<?xml version="1.0" encoding="UTF-8"?>
<svg xmlns="http://www.w3.org/2000/svg" xmlns:xlink="http://www.w3.org/1999/xlink"
     width="1000" height="1000" viewBox="0 0 1000 1000">
<defs>
</defs>
<rect x="0" y="0" width="1000" height="1000" fill="white" />
<path d="M143.63059199999998,332.32118784 L171.08379157228205,345.2384579280982" stroke="grey" stroke-width="5" />
<circle cx="171.08379157228205" cy="345.2384579280982" r="2.5" fill="grey" stroke="none" />
<path d="M171.08379157228205,345.2384579280982 A363.5065433674324,363.5065433674324,0,0,0,143.63059199999998,428.3211878400001" stroke="grey" stroke-width="5" fill="none" />
<circle cx="143.63059199999998" cy="332.32118784" r="5" fill="black" stroke="none" />
<circle cx="143.63059199999998" cy="428.32118784" r="5" fill="black" stroke="none" />
<path d="M143.63059199999998,428.32118784 L212.9591599614119,442.26567714989" stroke="grey" stroke-width="5" />
<circle cx="212.9591599614119" cy="442.26567714989" r="2.5" fill="grey" stroke="none" />
<path d="M212.9591599614119,442.26567714989017 A292.78950781238564,292.78950781238564,0,0,0,207.63059199999998,484.32118784000016" stroke="grey" stroke-width="5" fill="none" />
<circle cx="143.63059199999998" cy="428.32118784" r="5" fill="black" stroke="none" />
<circle cx="207.63059199999998" cy="484.32118784" r="5" fill="black" stroke="none" />
<path d="M119.63059199999998,484.32118784 L207.4589128239262,487.9414677982835" stroke="grey" stroke-width="5" />
<circle cx="207.4589128239262" cy="487.9414677982835" r="2.5" fill="grey" stroke="none" />
<path d="M207.4589128239262,487.9414677982835 A292.78950781238564,292.78950781238564,0,0,1,207.63059199999998,484.32118784000016" stroke="grey" stroke-width="5" fill="none" />
<circle cx="119.63059199999998" cy="484.32118784" r="5" fill="black" stroke="none" />
<circle cx="207.63059199999998" cy="484.32118784" r="5" fill="black" stroke="none" />
<path d="M207.63059199999998,484.32118784 L279.344077788623,488.1669468087997" stroke="grey" stroke-width="5" />
<circle cx="279.344077788623" cy="488.1669468087997" r="2.5" fill="grey" stroke="none" />
<path d="M279.344077788623,488.16694680879976 A220.97297833621883,220.97297833621883,0,0,0,279.630592,516.32118784" stroke="grey" stroke-width="5" fill="none" />
<circle cx="207.63059199999998" cy="484.32118784" r="5" fill="black" stroke="none" />
<circle cx="279.630592" cy="516.32118784" r="5" fill="black" stroke="none" />
<path d="M279.630592,516.32118784 L293.65572231154863,515.2824466264498" stroke="grey" stroke-width="5" />
<circle cx="293.65572231154863" cy="515.2824466264498" r="2.5" fill="grey" stroke="none" />
<path d="M293.65572231154863,515.2824466264498 A206.90943455932364,206.90943455932364,0,0,0,295.630592,532.32118784" stroke="grey" stroke-width="5" fill="none" />
<circle cx="279.630592" cy="516.32118784" r="5" fill="black" stroke="none" />
<circle cx="295.630592" cy="532.32118784" r="5" fill="black" stroke="none" />
<path d="M295.630592,532.32118784 L318.27911421725673,528.7393056588745" stroke="grey" stroke-width="5" />
<circle cx="318.27911421725673" cy="528.7393056588745" r="2.5" fill="grey" stroke="none" />
<path d="M318.27911421725673,528.7393056588745 A183.97942281521333,183.97942281521333,0,0,0,327.630592,564.32118784" stroke="grey" stroke-width="5" fill="none" />
<circle cx="295.630592" cy="532.32118784" r="5" fill="black" stroke="none" />
<circle cx="327.630592" cy="564.32118784" r="5" fill="black" stroke="none" />
<path d="M295.630592,532.32118784 A206.90943455932364,206.90943455932364,0,0,0,317.9518517181549,598.336086035648" stroke="grey" stroke-width="5" fill="none" />
<path d="M317.9518517181549,598.3360860356481 L247.63059199999998,636.32118784" stroke="grey" stroke-width="5" />
<circle cx="317.9518517181549" cy="598.3360860356481" r="2.5" fill="grey" stroke="none" />
<circle cx="295.630592" cy="532.32118784" r="5" fill="black" stroke="none" />
<circle cx="247.63059199999998" cy="636.32118784" r="5" fill="black" stroke="none" />
<path d="M247.63059199999995,636.3211878399999 A286.83407110798225,286.83407110798225,0,0,0,282.2212788517643,686.6714037109541" stroke="grey" stroke-width="5" fill="none" />
<path d="M282.2212788517642,686.6714037109541 L247.63059199999998,716.32118784" stroke="grey" stroke-width="5" />
<circle cx="282.2212788517642" cy="686.6714037109541" r="2.5" fill="grey" stroke="none" />
<circle cx="247.63059199999998" cy="636.32118784" r="5" fill="black" stroke="none" />
<circle cx="247.63059199999998" cy="716.32118784" r="5" fill="black" stroke="none" />
<path d="M143.63059199999998,732.32118784 L221.55054109750841,681.5243048180839" stroke="grey" stroke-width="5" />
<circle cx="221.55054109750841" cy="681.5243048180839" r="2.5" fill="grey" stroke="none" />
<path d="M221.55054109750841,681.5243048180839 A332.3931022190127,332.3931022190127,0,0,0,247.6305920000001,716.3211878400001" stroke="grey" stroke-width="5" fill="none" />
<circle cx="143.63059199999998" cy="732.32118784" r="5" fill="black" stroke="none" />
<circle cx="247.63059199999998" cy="716.32118784" r="5" fill="black" stroke="none" />
<path d="M247.6305920000001,716.3211878400001 A332.3931022190127,332.3931022190127,0,0,0,300.49912431749976,765.8657085911882" stroke="grey" stroke-width="5" fill="none" />
<path d="M300.49912431749976,765.8657085911882 L247.63059199999998,836.32118784" stroke="grey" stroke-width="5" />
<circle cx="300.49912431749976" cy="765.8657085911882" r="2.5" fill="grey" stroke="none" />
<circle cx="247.63059199999998" cy="716.32118784" r="5" fill="black" stroke="none" />
<circle cx="247.63059199999998" cy="836.32118784" r="5" fill="black" stroke="none" />
<path d="M247.63059199999998,636.32118784 L306.6449077916585,604.4437043841456" stroke="grey" stroke-width="5" />
<circle cx="306.6449077916585" cy="604.4437043841456" r="2.5" fill="grey" stroke="none" />
<path d="M306.6449077916585,604.4437043841456 A219.7605038863422,219.7605038863422,0,0,0,327.630592,636.32118784" stroke="grey" stroke-width="5" fill="none" />
<circle cx="247.63059199999998" cy="636.32118784" r="5" fill="black" stroke="none" />
<circle cx="327.630592" cy="636.32118784" r="5" fill="black" stroke="none" />
<path d="M327.630592,564.32118784 A183.97942281521333,183.97942281521333,0,0,0,355.6955247461512,614.1255731250905" stroke="grey" stroke-width="5" fill="none" />
<path d="M355.6955247461512,614.1255731250905 L327.630592,636.32118784" stroke="grey" stroke-width="5" />
<circle cx="355.6955247461512" cy="614.1255731250905" r="2.5" fill="grey" stroke="none" />
<circle cx="327.630592" cy="564.32118784" r="5" fill="black" stroke="none" />
<circle cx="327.630592" cy="636.32118784" r="5" fill="black" stroke="none" />
<path d="M327.630592,636.32118784 L367.22094312312254,605.0105060042374" stroke="grey" stroke-width="5" />
<circle cx="367.22094312312254" cy="605.0105060042374" r="2.5" fill="grey" stroke="none" />
<path d="M367.22094312312254,605.0105060042374 A169.28521588248347,169.28521588248347,0,0,0,399.630592,636.32118784" stroke="grey" stroke-width="5" fill="none" />
<circle cx="327.630592" cy="636.32118784" r="5" fill="black" stroke="none" />
<circle cx="399.630592" cy="636.32118784" r="5" fill="black" stroke="none" />
<path d="M327.630592,564.32118784 L362.11758252282834,551.4520585600808" stroke="grey" stroke-width="5" />
<circle cx="362.11758252282834" cy="551.4520585600808" r="2.5" fill="grey" stroke="none" />
<path d="M362.11758252282834,551.4520585600808 A147.16954637226763,147.16954637226763,0,0,0,367.630592,564.32118784" stroke="grey" stroke-width="5" fill="none" />
<circle cx="327.630592" cy="564.32118784" r="5" fill="black" stroke="none" />
<circle cx="367.630592" cy="564.32118784" r="5" fill="black" stroke="none" />
<path d="M399.630592,636.32118784 L442.42207791234677,578.2020227951116" stroke="grey" stroke-width="5" />
<circle cx="442.42207791234677" cy="578.2020227951116" r="2.5" fill="grey" stroke="none" />
<path d="M442.42207791234677,578.2020227951116 A97.11216958331755,97.11216958331755,0,0,0,487.630592,596.32118784" stroke="grey" stroke-width="5" fill="none" />
<circle cx="399.630592" cy="636.32118784" r="5" fill="black" stroke="none" />
<circle cx="487.630592" cy="596.32118784" r="5" fill="black" stroke="none" />
<path d="M367.630592,564.32118784 L441.2091156339655,528.5677753925395" stroke="grey" stroke-width="5" />
<circle cx="441.2091156339655" cy="528.5677753925395" r="2.5" fill="grey" stroke="none" />
<path d="M441.2091156339655,528.5677753925395 A65.36425533438766,65.36425533438766,0,0,0,511.630592,564.32118784" stroke="grey" stroke-width="5" fill="none" />
<circle cx="367.630592" cy="564.32118784" r="5" fill="black" stroke="none" />
<circle cx="511.630592" cy="564.32118784" r="5" fill="black" stroke="none" />
<path d="M487.630592,596.32118784 L491.67439934339484,564.8318613732921" stroke="grey" stroke-width="5" />
<circle cx="491.67439934339484" cy="564.8318613732921" r="2.5" fill="grey" stroke="none" />
<path d="M491.67439934339484,564.8318613732921 A65.36425533438766,65.36425533438766,0,0,0,511.630592,564.32118784" stroke="grey" stroke-width="5" fill="none" />
<circle cx="487.630592" cy="596.32118784" r="5" fill="black" stroke="none" />
<circle cx="511.630592" cy="564.32118784" r="5" fill="black" stroke="none" />
<path d="M247.63059199999998,716.32118784 L307.4489180745634,665.0472578752001" stroke="grey" stroke-width="5" />
<circle cx="307.4489180745634" cy="665.0472578752001" r="2.5" fill="grey" stroke="none" />
<path d="M307.44891807456344,665.0472578752002 A253.6070118959234,253.6070118959234,0,0,0,367.630592,716.32118784" stroke="grey" stroke-width="5" fill="none" />
<circle cx="247.63059199999998" cy="716.32118784" r="5" fill="black" stroke="none" />
<circle cx="367.630592" cy="716.32118784" r="5" fill="black" stroke="none" />
<path d="M367.630592,716.32118784 L434.39244667201285,607.2174007697181" stroke="grey" stroke-width="5" />
<circle cx="434.39244667201285" cy="607.2174007697181" r="2.5" fill="grey" stroke="none" />
<path d="M434.39244667201285,607.2174007697181 A125.69774095622812,125.69774095622812,0,0,0,463.630592,620.32118784" stroke="grey" stroke-width="5" fill="none" />
<circle cx="367.630592" cy="716.32118784" r="5" fill="black" stroke="none" />
<circle cx="463.630592" cy="620.32118784" r="5" fill="black" stroke="none" />
<path d="M463.630592,620.32118784 L471.90154659525035,592.9583261329514" stroke="grey" stroke-width="5" />
<circle cx="471.90154659525035" cy="592.9583261329514" r="2.5" fill="grey" stroke="none" />
<path d="M471.90154659525035,592.9583261329514 A97.11216958331755,97.11216958331755,0,0,0,487.630592,596.32118784" stroke="grey" stroke-width="5" fill="none" />
<circle cx="463.630592" cy="620.32118784" r="5" fill="black" stroke="none" />
<circle cx="487.630592" cy="596.32118784" r="5" fill="black" stroke="none" />
<path d="M487.630592,596.32118784 A97.11216958331755,97.11216958331755,0,0,0,490.0688948301226,596.6030363460893" stroke="grey" stroke-width="5" fill="none" />
<path d="M490.06889483012264,596.6030363460893 L487.630592,620.32118784" stroke="grey" stroke-width="5" />
<circle cx="490.06889483012264" cy="596.6030363460893" r="2.5" fill="grey" stroke="none" />
<circle cx="487.630592" cy="596.32118784" r="5" fill="black" stroke="none" />
<circle cx="487.630592" cy="620.32118784" r="5" fill="black" stroke="none" />
<path d="M487.6305919999999,620.32118784 A120.95532438672977,120.95532438672977,0,0,0,494.9553254926315,620.8500796715241" stroke="grey" stroke-width="5" fill="none" />
<path d="M494.9553254926315,620.8500796715241 L487.630592,796.32118784" stroke="grey" stroke-width="5" />
<circle cx="494.9553254926315" cy="620.8500796715241" r="2.5" fill="grey" stroke="none" />
<circle cx="487.630592" cy="620.32118784" r="5" fill="black" stroke="none" />
<circle cx="487.630592" cy="796.32118784" r="5" fill="black" stroke="none" />
<path d="M487.630592,796.32118784 A296.57924508835583,296.57924508835583,0,0,0,580.5565798976174,785.4293013206209" stroke="grey" stroke-width="5" fill="none" />
<path d="M580.5565798976176,785.4293013206209 L583.630592,796.32118784" stroke="grey" stroke-width="5" />
<circle cx="580.5565798976176" cy="785.4293013206209" r="2.5" fill="grey" stroke="none" />
<circle cx="487.630592" cy="796.32118784" r="5" fill="black" stroke="none" />
<circle cx="583.630592" cy="796.32118784" r="5" fill="black" stroke="none" />
<path d="M487.630592,796.32118784 A296.57924508835583,296.57924508835583,0,0,0,489.35254369472074,796.3880569311223" stroke="grey" stroke-width="5" fill="none" />
<path d="M489.3525436947207,796.3880569311223 L487.630592,844.32118784" stroke="grey" stroke-width="5" />
<circle cx="489.3525436947207" cy="796.3880569311223" r="2.5" fill="grey" stroke="none" />
<circle cx="487.630592" cy="796.32118784" r="5" fill="black" stroke="none" />
<circle cx="487.630592" cy="844.32118784" r="5" fill="black" stroke="none" />
<path d="M175.63059199999998,420.32118784 L349.9600139351345,463.1438490458649" stroke="grey" stroke-width="5" />
<circle cx="349.9600139351345" cy="463.1438490458649" r="2.5" fill="grey" stroke="none" />
<path d="M349.9600139351345,463.1438490458649 A154.50039896873741,154.50039896873741,0,0,1,367.630592,420.32118784" stroke="grey" stroke-width="5" fill="none" />
<circle cx="175.63059199999998" cy="420.32118784" r="5" fill="black" stroke="none" />
<circle cx="367.630592" cy="420.32118784" r="5" fill="black" stroke="none" />
<path d="M367.630592,420.32118784 L373.911356482209,424.1018488020792" stroke="grey" stroke-width="5" />
<circle cx="373.911356482209" cy="424.1018488020792" r="2.5" fill="grey" stroke="none" />
<path d="M373.911356482209,424.1018488020792 A147.16954637226763,147.16954637226763,0,0,0,367.630592,564.32118784" stroke="grey" stroke-width="5" fill="none" />
<circle cx="367.630592" cy="420.32118784" r="5" fill="black" stroke="none" />
<circle cx="367.630592" cy="564.32118784" r="5" fill="black" stroke="none" />
<path d="M367.630592,420.32118784 A154.50039896873741,154.50039896873741,0,0,1,401.3976737398285,381.0548254968629" stroke="grey" stroke-width="5" fill="none" />
<path d="M401.3976737398285,381.0548254968629 L367.630592,340.32118784" stroke="grey" stroke-width="5" />
<circle cx="401.3976737398285" cy="381.0548254968629" r="2.5" fill="grey" stroke="none" />
<circle cx="367.630592" cy="420.32118784" r="5" fill="black" stroke="none" />
<circle cx="367.630592" cy="340.32118784" r="5" fill="black" stroke="none" />
<path d="M367.630592,340.32118784 A207.41018110762798,207.41018110762798,0,0,1,391.5085804024809,323.2272784029898" stroke="grey" stroke-width="5" fill="none" />
<path d="M391.5085804024809,323.2272784029898 L367.630592,284.32118784" stroke="grey" stroke-width="5" />
<circle cx="391.5085804024809" cy="323.2272784029898" r="2.5" fill="grey" stroke="none" />
<circle cx="367.630592" cy="340.32118784" r="5" fill="black" stroke="none" />
<circle cx="367.630592" cy="284.32118784" r="5" fill="black" stroke="none" />
<path d="M367.630592,340.32118784 L453.19881504492696,443.5431665501857" stroke="grey" stroke-width="5" />
<circle cx="453.19881504492696" cy="443.5431665501857" r="2.5" fill="grey" stroke="none" />
<path d="M453.19881504492696,443.5431665501857 A73.33297318654843,73.33297318654843,0,0,1,463.630592,436.32118784" stroke="grey" stroke-width="5" fill="none" />
<circle cx="367.630592" cy="340.32118784" r="5" fill="black" stroke="none" />
<circle cx="463.630592" cy="436.32118784" r="5" fill="black" stroke="none" />
<path d="M367.630592,420.32118784 L437.17140983210356,462.18078247909483" stroke="grey" stroke-width="5" />
<circle cx="437.17140983210356" cy="462.18078247909483" r="2.5" fill="grey" stroke="none" />
<path d="M437.17140983210356,462.18078247909483 A73.33297318654843,73.33297318654843,0,0,1,463.630592,436.32118784" stroke="grey" stroke-width="5" fill="none" />
<circle cx="367.630592" cy="420.32118784" r="5" fill="black" stroke="none" />
<circle cx="463.630592" cy="436.32118784" r="5" fill="black" stroke="none" />
<path d="M463.630592,436.32118784 L492.907534601899,487.58187727892147" stroke="grey" stroke-width="5" />
<circle cx="492.907534601899" cy="487.58187727892147" r="2.5" fill="grey" stroke="none" />
<path d="M492.907534601899,487.58187727892147 A14.30079848606459,14.30079848606459,0,0,1,511.630592,508.32118784" stroke="grey" stroke-width="5" fill="none" />
<circle cx="463.630592" cy="436.32118784" r="5" fill="black" stroke="none" />
<circle cx="511.630592" cy="508.32118784" r="5" fill="black" stroke="none" />
<path d="M463.630592,620.32118784 L465.0027637018137,615.7816218101472" stroke="grey" stroke-width="5" />
<circle cx="465.0027637018137" cy="615.7816218101472" r="2.5" fill="grey" stroke="none" />
<path d="M465.00276370181365,615.7816218101472 A120.95532438672977,120.95532438672977,0,0,0,487.6305919999999,620.32118784" stroke="grey" stroke-width="5" fill="none" />
<circle cx="463.630592" cy="620.32118784" r="5" fill="black" stroke="none" />
<circle cx="487.630592" cy="620.32118784" r="5" fill="black" stroke="none" />
<path d="M487.630592,620.32118784 L487.63809004636147,620.248251944871" stroke="grey" stroke-width="5" />
<circle cx="487.63809004636147" cy="620.248251944871" r="2.5" fill="grey" stroke="none" />
<path d="M487.63809004636147,620.248251944871 A120.88200409283023,120.88200409283023,0,0,0,511.630592,620.32118784" stroke="grey" stroke-width="5" fill="none" />
<circle cx="487.630592" cy="620.32118784" r="5" fill="black" stroke="none" />
<circle cx="511.630592" cy="620.32118784" r="5" fill="black" stroke="none" />
<path d="M511.630592,620.32118784 L506.28898396319005,565.0610064180516" stroke="grey" stroke-width="5" />
<circle cx="506.28898396319005" cy="565.0610064180516" r="2.5" fill="grey" stroke="none" />
<path d="M506.28898396319005,565.0610064180516 A65.36425533438766,65.36425533438766,0,0,0,511.630592,564.32118784" stroke="grey" stroke-width="5" fill="none" />
<circle cx="511.630592" cy="620.32118784" r="5" fill="black" stroke="none" />
<circle cx="511.630592" cy="564.32118784" r="5" fill="black" stroke="none" />
<path d="M511.630592,564.32118784 L508.8435829394596,548.9080658514721" stroke="grey" stroke-width="5" />
<circle cx="508.8435829394596" cy="548.9080658514721" r="2.5" fill="grey" stroke="none" />
<path d="M508.8435829394596,548.9080658514721 A49.70118574580517,49.70118574580517,0,0,0,511.630592,548.32118784" stroke="grey" stroke-width="5" fill="none" />
<circle cx="511.630592" cy="564.32118784" r="5" fill="black" stroke="none" />
<circle cx="511.630592" cy="548.32118784" r="5" fill="black" stroke="none" />
<path d="M511.630592,548.32118784 L508.0382806595759,533.3963455739834" stroke="grey" stroke-width="5" />
<circle cx="508.0382806595759" cy="533.3963455739834" r="2.5" fill="grey" stroke="none" />
<path d="M508.0382806595759,533.3963455739834 A34.35010703999373,34.35010703999373,0,0,0,511.630592,532.32118784" stroke="grey" stroke-width="5" fill="none" />
<circle cx="511.630592" cy="548.32118784" r="5" fill="black" stroke="none" />
<circle cx="511.630592" cy="532.32118784" r="5" fill="black" stroke="none" />
<path d="M511.630592,532.32118784 L504.842102886957,513.4561092805889" stroke="grey" stroke-width="5" />
<circle cx="504.842102886957" cy="513.4561092805889" r="2.5" fill="grey" stroke="none" />
<path d="M504.842102886957,513.4561092805889 A14.30079848606459,14.30079848606459,0,0,0,511.630592,508.32118784" stroke="grey" stroke-width="5" fill="none" />
<circle cx="511.630592" cy="532.32118784" r="5" fill="black" stroke="none" />
<circle cx="511.630592" cy="508.32118784" r="5" fill="black" stroke="none" />
<path d="M511.630592,508.32118784 A14.30079848606459,14.30079848606459,0,0,0,514.1635600174321,501.9764627422811" stroke="grey" stroke-width="5" fill="none" />
<path d="M514.1635600174321,501.9764627422811 L559.630592,508.32118784" stroke="grey" stroke-width="5" />
<circle cx="514.1635600174321" cy="501.9764627422811" r="2.5" fill="grey" stroke="none" />
<circle cx="511.630592" cy="508.32118784" r="5" fill="black" stroke="none" />
<circle cx="559.630592" cy="508.32118784" r="5" fill="black" stroke="none" />
<path d="M559.630592,508.32118784 A60.20838537395788,60.20838537395788,0,0,1,546.7779301715376,537.9061329893433" stroke="grey" stroke-width="5" fill="none" />
<path d="M546.7779301715376,537.9061329893433 L559.630592,548.32118784" stroke="grey" stroke-width="5" />
<circle cx="546.7779301715376" cy="537.9061329893433" r="2.5" fill="grey" stroke="none" />
<circle cx="559.630592" cy="508.32118784" r="5" fill="black" stroke="none" />
<circle cx="559.630592" cy="548.32118784" r="5" fill="black" stroke="none" />
<path d="M559.630592,548.32118784 L538.6145315443968,531.2909862124193" stroke="grey" stroke-width="5" />
<circle cx="538.6145315443968" cy="531.2909862124193" r="2.5" fill="grey" stroke="none" />
<path d="M538.6145315443968,531.2909862124193 A49.70118574580517,49.70118574580517,0,0,1,511.630592,548.32118784" stroke="grey" stroke-width="5" fill="none" />
<circle cx="559.630592" cy="548.32118784" r="5" fill="black" stroke="none" />
<circle cx="511.630592" cy="548.32118784" r="5" fill="black" stroke="none" />
<path d="M511.630592,532.32118784 A34.35010703999373,34.35010703999373,0,0,0,532.3939287968998,511.4264268588397" stroke="grey" stroke-width="5" fill="none" />
<path d="M532.3939287968998,511.4264268588397 L591.630592,532.32118784" stroke="grey" stroke-width="5" />
<circle cx="532.3939287968998" cy="511.4264268588397" r="2.5" fill="grey" stroke="none" />
<circle cx="511.630592" cy="532.32118784" r="5" fill="black" stroke="none" />
<circle cx="591.630592" cy="532.32118784" r="5" fill="black" stroke="none" />
<circle cx="500" cy="500" r="5" fill="red" stroke="none" />
</svg>