<?xml version="1.0" encoding="UTF-8"?>
<svg xmlns="http://www.w3.org/2000/svg" xmlns:xlink="http://www.w3.org/1999/xlink"
     width="1000" height="1000" viewBox="0 0 1000 1000">
<defs>
</defs>
<rect x="0" y="0" width="1000" height="1000" fill="white" />
<path d="M300.737152,248.97065984 L343.0356164083625,302.25784165430633" stroke="grey" stroke-width="5" />
<circle cx="343.0356164083625" cy="302.25784165430633" r="2.5" fill="grey" stroke="none" />
<path d="M343.0356164083625,302.25784165430633 A252.46738186054077,252.46738186054077,0,0,0,300.7371519999999,344.97065984000005" stroke="grey" stroke-width="5" fill="none" />
<circle cx="300.737152" cy="248.97065984" r="5" fill="black" stroke="none" />
<circle cx="300.737152" cy="344.97065984" r="5" fill="black" stroke="none" />
<path d="M300.737152,344.97065984 L367.68891642598084,397.06008827930236" stroke="grey" stroke-width="5" />
<circle cx="367.68891642598084" cy="397.06008827930236" r="2.5" fill="grey" stroke="none" />
<path d="M367.68891642598084,397.06008827930236 A167.63904157921002,167.63904157921002,0,0,0,364.7371519999999,400.97065984" stroke="grey" stroke-width="5" fill="none" />
<circle cx="300.737152" cy="344.97065984" r="5" fill="black" stroke="none" />
<circle cx="364.737152" cy="400.97065984" r="5" fill="black" stroke="none" />
<path d="M276.737152,400.97065984 L346.7589615967555,432.0291797115008" stroke="grey" stroke-width="5" />
<circle cx="346.7589615967555" cy="432.0291797115008" r="2.5" fill="grey" stroke="none" />
<path d="M346.7589615967555,432.0291797115008 A167.63904157921002,167.63904157921002,0,0,1,364.7371519999999,400.97065984" stroke="grey" stroke-width="5" fill="none" />
<circle cx="276.737152" cy="400.97065984" r="5" fill="black" stroke="none" />
<circle cx="364.737152" cy="400.97065984" r="5" fill="black" stroke="none" />
<path d="M364.737152,400.97065984 L425.6316532743365,445.55305899641746" stroke="grey" stroke-width="5" />
<circle cx="425.6316532743365" cy="445.55305899641746" r="2.5" fill="grey" stroke="none" />
<path d="M425.6316532743365,445.55305899641746 A92.16897731534237,92.16897731534237,0,0,1,436.737152,432.97065984" stroke="grey" stroke-width="5" fill="none" />
<circle cx="364.737152" cy="400.97065984" r="5" fill="black" stroke="none" />
<circle cx="436.737152" cy="432.97065984" r="5" fill="black" stroke="none" />
<path d="M436.737152,432.97065984 L452.2595404484325,449.41720766860294" stroke="grey" stroke-width="5" />
<circle cx="452.2595404484325" cy="449.41720766860294" r="2.5" fill="grey" stroke="none" />
<path d="M452.2595404484325,449.41720766860294 A69.55408225428681,69.55408225428681,0,0,1,452.7371519999999,448.97065984" stroke="grey" stroke-width="5" fill="none" />
<circle cx="436.737152" cy="432.97065984" r="5" fill="black" stroke="none" />
<circle cx="452.737152" cy="448.97065984" r="5" fill="black" stroke="none" />
<path d="M452.737152,448.97065984 L483.4239363031776,482.1029491726995" stroke="grey" stroke-width="5" />
<circle cx="483.4239363031776" cy="482.1029491726995" r="2.5" fill="grey" stroke="none" />
<path d="M483.4239363031775,482.1029491726995 A24.39406313011618,24.39406313011618,0,0,1,484.737152,480.97065984" stroke="grey" stroke-width="5" fill="none" />
<circle cx="452.737152" cy="448.97065984" r="5" fill="black" stroke="none" />
<circle cx="484.737152" cy="480.97065984" r="5" fill="black" stroke="none" />
<path d="M452.7371519999999,448.97065984 A69.55408225428681,69.55408225428681,0,0,0,439.2114902036193,533.8012933919905" stroke="grey" stroke-width="5" fill="none" />
<path d="M439.2114902036193,533.8012933919905 L404.737152,552.97065984" stroke="grey" stroke-width="5" />
<circle cx="439.2114902036193" cy="533.8012933919905" r="2.5" fill="grey" stroke="none" />
<circle cx="452.737152" cy="448.97065984" r="5" fill="black" stroke="none" />
<circle cx="404.737152" cy="552.97065984" r="5" fill="black" stroke="none" />
<path d="M404.737152,552.97065984 A108.99954593004549,108.99954593004549,0,0,0,436.5201371707306,588.607042768243" stroke="grey" stroke-width="5" fill="none" />
<path d="M436.52013717073066,588.607042768243 L404.737152,632.97065984" stroke="grey" stroke-width="5" />
<circle cx="436.52013717073066" cy="588.607042768243" r="2.5" fill="grey" stroke="none" />
<circle cx="404.737152" cy="552.97065984" r="5" fill="black" stroke="none" />
<circle cx="404.737152" cy="632.97065984" r="5" fill="black" stroke="none" />
<path d="M300.737152,648.97065984 L368.9911889231483,597.9433408026593" stroke="grey" stroke-width="5" />
<circle cx="368.9911889231483" cy="597.9433408026593" r="2.5" fill="grey" stroke="none" />
<path d="M368.9911889231483,597.9433408026593 A163.57324532867867,163.57324532867867,0,0,0,404.7371519999999,632.9706598399999" stroke="grey" stroke-width="5" fill="none" />
<circle cx="300.737152" cy="648.97065984" r="5" fill="black" stroke="none" />
<circle cx="404.737152" cy="632.97065984" r="5" fill="black" stroke="none" />
<path d="M404.7371519999999,632.9706598399999 A163.57324532867867,163.57324532867867,0,0,0,442.35405549408233,653.0789066768402" stroke="grey" stroke-width="5" fill="none" />
<path d="M442.35405549408233,653.0789066768402 L404.737152,752.97065984" stroke="grey" stroke-width="5" />
<circle cx="442.35405549408233" cy="653.0789066768402" r="2.5" fill="grey" stroke="none" />
<circle cx="404.737152" cy="632.97065984" r="5" fill="black" stroke="none" />
<circle cx="404.737152" cy="752.97065984" r="5" fill="black" stroke="none" />
<path d="M404.737152,552.97065984 L451.8215115176382,526.7895237081779" stroke="grey" stroke-width="5" />
<circle cx="451.8215115176382" cy="526.7895237081779" r="2.5" fill="grey" stroke="none" />
<path d="M451.8215115176382,526.7895237081779 A55.125722969917526,55.125722969917526,0,0,0,484.737152,552.97065984" stroke="grey" stroke-width="5" fill="none" />
<circle cx="404.737152" cy="552.97065984" r="5" fill="black" stroke="none" />
<circle cx="484.737152" cy="552.97065984" r="5" fill="black" stroke="none" />
<path d="M484.737152,480.97065984 A24.39406313011618,24.39406313011618,0,0,0,493.24593206948873,523.4404113100886" stroke="grey" stroke-width="5" fill="none" />
<path d="M493.24593206948873,523.4404113100886 L484.737152,552.97065984" stroke="grey" stroke-width="5" />
<circle cx="493.24593206948873" cy="523.4404113100886" r="2.5" fill="grey" stroke="none" />
<circle cx="484.737152" cy="480.97065984" r="5" fill="black" stroke="none" />
<circle cx="484.737152" cy="552.97065984" r="5" fill="black" stroke="none" />
<path d="M484.737152,552.97065984 A55.125722969917526,55.125722969917526,0,0,0,540.2942871346128,537.6193534935074" stroke="grey" stroke-width="5" fill="none" />
<path d="M540.2942871346128,537.6193534935074 L556.7371519999999,552.97065984" stroke="grey" stroke-width="5" />
<circle cx="540.2942871346128" cy="537.6193534935074" r="2.5" fill="grey" stroke="none" />
<circle cx="484.737152" cy="552.97065984" r="5" fill="black" stroke="none" />
<circle cx="556.7371519999999" cy="552.97065984" r="5" fill="black" stroke="none" />
<path d="M484.737152,480.97065984 A24.39406313011618,24.39406313011618,0,0,1,519.3350319055118,485.12630317611195" stroke="grey" stroke-width="5" fill="none" />
<path d="M519.3350319055118,485.12630317611195 L524.7371519999999,480.97065984" stroke="grey" stroke-width="5" />
<circle cx="519.3350319055118" cy="485.12630317611195" r="2.5" fill="grey" stroke="none" />
<circle cx="484.737152" cy="480.97065984" r="5" fill="black" stroke="none" />
<circle cx="524.7371519999999" cy="480.97065984" r="5" fill="black" stroke="none" />
<path d="M556.7371519999999,552.97065984 A77.62084269676599,77.62084269676599,0,0,0,577.3110250144549,506.92824885309494" stroke="grey" stroke-width="5" fill="none" />
<path d="M577.3110250144549,506.92824885309494 L644.7371519999999,512.97065984" stroke="grey" stroke-width="5" />
<circle cx="577.3110250144549" cy="506.92824885309494" r="2.5" fill="grey" stroke="none" />
<circle cx="556.7371519999999" cy="552.97065984" r="5" fill="black" stroke="none" />
<circle cx="644.7371519999999" cy="512.97065984" r="5" fill="black" stroke="none" />
<path d="M524.737152,480.97065984 A31.209653570587612,31.209653570587612,0,0,1,531.0130613404066,496.5025005657939" stroke="grey" stroke-width="5" fill="none" />
<path d="M531.0130613404066,496.5025005657939 L668.7371519999999,480.97065984" stroke="grey" stroke-width="5" />
<circle cx="531.0130613404066" cy="496.5025005657939" r="2.5" fill="grey" stroke="none" />
<circle cx="524.7371519999999" cy="480.97065984" r="5" fill="black" stroke="none" />
<circle cx="668.7371519999999" cy="480.97065984" r="5" fill="black" stroke="none" />
<path d="M644.7371519999999,512.97065984 A145.3171744349445,145.3171744349445,0,0,0,644.4018093431417,483.71507923927675" stroke="grey" stroke-width="5" fill="none" />
<path d="M644.4018093431417,483.71507923927675 L668.7371519999999,480.97065984" stroke="grey" stroke-width="5" />
<circle cx="644.4018093431417" cy="483.71507923927675" r="2.5" fill="grey" stroke="none" />
<circle cx="644.7371519999999" cy="512.97065984" r="5" fill="black" stroke="none" />
<circle cx="668.7371519999999" cy="480.97065984" r="5" fill="black" stroke="none" />
<path d="M404.737152,632.97065984 L421.23102050465445,609.9480374386825" stroke="grey" stroke-width="5" />
<circle cx="421.23102050465445" cy="609.9480374386825" r="2.5" fill="grey" stroke="none" />
<path d="M421.23102050465445,609.9480374386825 A135.25207232185426,135.25207232185426,0,0,0,524.737152,632.97065984" stroke="grey" stroke-width="5" fill="none" />
<circle cx="404.737152" cy="632.97065984" r="5" fill="black" stroke="none" />
<circle cx="524.7371519999999" cy="632.97065984" r="5" fill="black" stroke="none" />
<path d="M524.7371519999999,632.97065984 L523.0944889347815,624.140783560107" stroke="grey" stroke-width="5" />
<circle cx="523.0944889347815" cy="624.140783560107" r="2.5" fill="grey" stroke="none" />
<path d="M523.0944889347815,624.140783560107 A126.27069953903037,126.27069953903037,0,0,0,620.7371519999999,536.97065984" stroke="grey" stroke-width="5" fill="none" />
<circle cx="524.7371519999999" cy="632.97065984" r="5" fill="black" stroke="none" />
<circle cx="620.7371519999999" cy="536.97065984" r="5" fill="black" stroke="none" />
<path d="M620.7371519999999,536.97065984 A126.27069953903037,126.27069953903037,0,0,0,625.7666996581246,511.27061751543226" stroke="grey" stroke-width="5" fill="none" />
<path d="M625.7666996581246,511.27061751543226 L644.7371519999999,512.97065984" stroke="grey" stroke-width="5" />
<circle cx="625.7666996581246" cy="511.27061751543226" r="2.5" fill="grey" stroke="none" />
<circle cx="620.7371519999999" cy="536.97065984" r="5" fill="black" stroke="none" />
<circle cx="644.7371519999999" cy="512.97065984" r="5" fill="black" stroke="none" />
<path d="M644.7371519999999,512.97065984 A145.3171744349445,145.3171744349445,0,0,1,640.7965374341081,535.9640964341086" stroke="grey" stroke-width="5" fill="none" />
<path d="M640.7965374341081,535.9640964341086 L644.7371519999999,536.97065984" stroke="grey" stroke-width="5" />
<circle cx="640.7965374341081" cy="535.9640964341086" r="2.5" fill="grey" stroke="none" />
<circle cx="644.7371519999999" cy="512.97065984" r="5" fill="black" stroke="none" />
<circle cx="644.7371519999999" cy="536.97065984" r="5" fill="black" stroke="none" />
<path d="M644.7371519999999,536.9706598399999 A149.38431262376946,149.38431262376946,0,0,1,583.9674077579441,623.5522047253195" stroke="grey" stroke-width="5" fill="none" />
<path d="M583.9674077579441,623.5522047253195 L644.7371519999999,712.97065984" stroke="grey" stroke-width="5" />
<circle cx="583.9674077579441" cy="623.5522047253195" r="2.5" fill="grey" stroke="none" />
<circle cx="644.7371519999999" cy="536.97065984" r="5" fill="black" stroke="none" />
<circle cx="644.7371519999999" cy="712.97065984" r="5" fill="black" stroke="none" />
<path d="M644.7371519999999,712.97065984 A257.49824294887156,257.49824294887156,0,0,0,692.8609765413693,670.616496415984" stroke="grey" stroke-width="5" fill="none" />
<path d="M692.8609765413694,670.616496415984 L740.7371519999999,712.97065984" stroke="grey" stroke-width="5" />
<circle cx="692.8609765413694" cy="670.616496415984" r="2.5" fill="grey" stroke="none" />
<circle cx="644.7371519999999" cy="712.97065984" r="5" fill="black" stroke="none" />
<circle cx="740.7371519999999" cy="712.97065984" r="5" fill="black" stroke="none" />
<path d="M644.7371519999999,712.97065984 A257.49824294887156,257.49824294887156,0,0,1,624.8896039792446,725.1842177854912" stroke="grey" stroke-width="5" fill="none" />
<path d="M624.8896039792446,725.1842177854912 L644.7371519999999,760.97065984" stroke="grey" stroke-width="5" />
<circle cx="624.8896039792446" cy="725.1842177854912" r="2.5" fill="grey" stroke="none" />
<circle cx="644.7371519999999" cy="712.97065984" r="5" fill="black" stroke="none" />
<circle cx="644.7371519999999" cy="760.97065984" r="5" fill="black" stroke="none" />
<path d="M332.737152,336.97065984 L381.9165460364737,384.90529837512133" stroke="grey" stroke-width="5" />
<circle cx="381.9165460364737" cy="384.90529837512133" r="2.5" fill="grey" stroke="none" />
<path d="M381.91654603647373,384.9052983751213 A164.89539848666516,164.89539848666516,0,0,1,524.7371519999999,336.97065984" stroke="grey" stroke-width="5" fill="none" />
<circle cx="332.737152" cy="336.97065984" r="5" fill="black" stroke="none" />
<circle cx="524.7371519999999" cy="336.97065984" r="5" fill="black" stroke="none" />
<path d="M524.7371519999999,336.97065984 L504.68198598219465,469.1435341742023" stroke="grey" stroke-width="5" />
<circle cx="504.68198598219465" cy="469.1435341742023" r="2.5" fill="grey" stroke="none" />
<path d="M504.68198598219465,469.1435341742023 A31.209653570587612,31.209653570587612,0,0,1,524.737152,480.97065984" stroke="grey" stroke-width="5" fill="none" />
<circle cx="524.7371519999999" cy="336.97065984" r="5" fill="black" stroke="none" />
<circle cx="524.7371519999999" cy="480.97065984" r="5" fill="black" stroke="none" />
<path d="M524.7371519999999,336.97065984 A164.89539848666516,164.89539848666516,0,0,0,516.6978801812405,335.9522226925063" stroke="grey" stroke-width="5" fill="none" />
<path d="M516.6978801812405,335.9522226925063 L524.7371519999999,256.97065984" stroke="grey" stroke-width="5" />
<circle cx="516.6978801812405" cy="335.9522226925063" r="2.5" fill="grey" stroke="none" />
<circle cx="524.7371519999999" cy="336.97065984" r="5" fill="black" stroke="none" />
<circle cx="524.7371519999999" cy="256.97065984" r="5" fill="black" stroke="none" />
<path d="M524.737152,256.97065984 A244.28505248515737,244.28505248515737,0,0,0,520.1396456777918,256.54655159630806" stroke="grey" stroke-width="5" fill="none" />
<path d="M520.1396456777918,256.54655159630806 L524.7371519999999,200.97065984" stroke="grey" stroke-width="5" />
<circle cx="520.1396456777918" cy="256.54655159630806" r="2.5" fill="grey" stroke="none" />
<circle cx="524.7371519999999" cy="256.97065984" r="5" fill="black" stroke="none" />
<circle cx="524.7371519999999" cy="200.97065984" r="5" fill="black" stroke="none" />
<path d="M524.7371519999999,256.97065984 L519.265381553561,310.7278894962287" stroke="grey" stroke-width="5" />
<circle cx="519.265381553561" cy="310.7278894962287" r="2.5" fill="grey" stroke="none" />
<path d="M519.265381553561,310.7278894962287 A190.2500637081525,190.2500637081525,0,0,1,620.737152,352.97065984000005" stroke="grey" stroke-width="5" fill="none" />
<circle cx="524.7371519999999" cy="256.97065984" r="5" fill="black" stroke="none" />
<circle cx="620.7371519999999" cy="352.97065984" r="5" fill="black" stroke="none" />
<path d="M524.7371519999999,336.97065984 A164.89539848666516,164.89539848666516,0,0,1,604.6464868559827,372.5652903217623" stroke="grey" stroke-width="5" fill="none" />
<path d="M604.6464868559827,372.5652903217623 L620.7371519999999,352.97065984" stroke="grey" stroke-width="5" />
<circle cx="604.6464868559827" cy="372.5652903217623" r="2.5" fill="grey" stroke="none" />
<circle cx="524.7371519999999" cy="336.97065984" r="5" fill="black" stroke="none" />
<circle cx="620.7371519999999" cy="352.97065984" r="5" fill="black" stroke="none" />
<path d="M620.7371519999999,352.97065984 L617.1935405393824,357.28594180754226" stroke="grey" stroke-width="5" />
<circle cx="617.1935405393824" cy="357.28594180754226" r="2.5" fill="grey" stroke="none" />
<path d="M617.1935405393824,357.28594180754226 A184.66626207815028,184.66626207815028,0,0,1,668.7371519999999,424.97065984" stroke="grey" stroke-width="5" fill="none" />
<circle cx="620.7371519999999" cy="352.97065984" r="5" fill="black" stroke="none" />
<circle cx="668.7371519999999" cy="424.97065984" r="5" fill="black" stroke="none" />
<path d="M620.7371519999999,536.97065984 A126.27069953903037,126.27069953903037,0,0,0,622.3425747411375,531.2503434826766" stroke="grey" stroke-width="5" fill="none" />
<path d="M622.3425747411375,531.2503434826766 L644.7371519999999,536.97065984" stroke="grey" stroke-width="5" />
<circle cx="622.3425747411375" cy="531.2503434826766" r="2.5" fill="grey" stroke="none" />
<circle cx="620.7371519999999" cy="536.97065984" r="5" fill="black" stroke="none" />
<circle cx="644.7371519999999" cy="536.97065984" r="5" fill="black" stroke="none" />
<path d="M644.7371519999999,536.9706598399999 A149.38431262376946,149.38431262376946,0,0,0,645.9228041866193,531.9719889339037" stroke="grey" stroke-width="5" fill="none" />
<path d="M645.9228041866193,531.9719889339037 L668.7371519999999,536.97065984" stroke="grey" stroke-width="5" />
<circle cx="645.9228041866193" cy="531.9719889339037" r="2.5" fill="grey" stroke="none" />
<circle cx="644.7371519999999" cy="536.97065984" r="5" fill="black" stroke="none" />
<circle cx="668.7371519999999" cy="536.97065984" r="5" fill="black" stroke="none" />
<path d="M668.7371519999999,536.97065984 L665.8720447357184,536.3429088982698" stroke="grey" stroke-width="5" />
<circle cx="665.8720447357184" cy="536.3429088982698" r="2.5" fill="grey" stroke="none" />
<path d="M665.8720447357183,536.3429088982698 A169.80677916972598,169.80677916972598,0,0,0,668.7371519999999,480.97065984" stroke="grey" stroke-width="5" fill="none" />
<circle cx="668.7371519999999" cy="536.97065984" r="5" fill="black" stroke="none" />
<circle cx="668.7371519999999" cy="480.97065984" r="5" fill="black" stroke="none" />
<path d="M668.7371519999999,480.97065984 A169.80677916972598,169.80677916972598,0,0,0,666.261911966727,465.484512444927" stroke="grey" stroke-width="5" fill="none" />
<path d="M666.261911966727,465.484512444927 L668.7371519999999,464.97065984" stroke="grey" stroke-width="5" />
<circle cx="666.261911966727" cy="465.484512444927" r="2.5" fill="grey" stroke="none" />
<circle cx="668.7371519999999" cy="480.97065984" r="5" fill="black" stroke="none" />
<circle cx="668.7371519999999" cy="464.97065984" r="5" fill="black" stroke="none" />
<path d="M668.7371519999999,464.97065984 A172.33479375075737,172.33479375075737,0,0,0,664.9565593628644,450.11398331915166" stroke="grey" stroke-width="5" fill="none" />
<path d="M664.9565593628644,450.11398331915166 L668.7371519999999,448.97065984" stroke="grey" stroke-width="5" />
<circle cx="664.9565593628644" cy="450.11398331915166" r="2.5" fill="grey" stroke="none" />
<circle cx="668.7371519999999" cy="464.97065984" r="5" fill="black" stroke="none" />
<circle cx="668.7371519999999" cy="448.97065984" r="5" fill="black" stroke="none" />
<path d="M668.7371519999999,448.97065984 A176.2844860509174,176.2844860509174,0,0,0,661.078378818472,428.37614992581786" stroke="grey" stroke-width="5" fill="none" />
<path d="M661.078378818472,428.3761499258179 L668.7371519999999,424.97065984" stroke="grey" stroke-width="5" />
<circle cx="661.078378818472" cy="428.3761499258179" r="2.5" fill="grey" stroke="none" />
<circle cx="668.7371519999999" cy="448.97065984" r="5" fill="black" stroke="none" />
<circle cx="668.7371519999999" cy="424.97065984" r="5" fill="black" stroke="none" />
<path d="M668.7371519999999,424.97065984 A184.66626207815028,184.66626207815028,0,0,1,674.5058160301464,439.5901620464947" stroke="grey" stroke-width="5" fill="none" />
<path d="M674.5058160301464,439.5901620464947 L716.7371519999999,424.97065984" stroke="grey" stroke-width="5" />
<circle cx="674.5058160301464" cy="439.5901620464947" r="2.5" fill="grey" stroke="none" />
<circle cx="668.7371519999999" cy="424.97065984" r="5" fill="black" stroke="none" />
<circle cx="716.7371519999999" cy="424.97065984" r="5" fill="black" stroke="none" />
<path d="M716.7371519999999,424.97065984 L707.4698971519285,428.1787670331099" stroke="grey" stroke-width="5" />
<circle cx="707.4698971519285" cy="428.1787670331099" r="2.5" fill="grey" stroke="none" />
<path d="M707.4698971519285,428.1787670331099 A219.5496475267407,219.5496475267407,0,0,1,716.7371519999999,464.97065984" stroke="grey" stroke-width="5" fill="none" />
<circle cx="716.7371519999999" cy="424.97065984" r="5" fill="black" stroke="none" />
<circle cx="716.7371519999999" cy="464.97065984" r="5" fill="black" stroke="none" />
<path d="M716.7371519999999,464.97065984 L670.1271343808339,472.50383145815135" stroke="grey" stroke-width="5" />
<circle cx="670.1271343808339" cy="472.50383145815135" r="2.5" fill="grey" stroke="none" />
<path d="M670.1271343808339,472.50383145815135 A172.33479375075737,172.33479375075737,0,0,0,668.7371519999999,464.97065984" stroke="grey" stroke-width="5" fill="none" />
<circle cx="716.7371519999999" cy="464.97065984" r="5" fill="black" stroke="none" />
<circle cx="668.7371519999999" cy="464.97065984" r="5" fill="black" stroke="none" />
<path d="M668.7371519999999,448.97065984 A176.2844860509174,176.2844860509174,0,0,1,672.6878928654736,464.5724446240106" stroke="grey" stroke-width="5" fill="none" />
<path d="M672.6878928654736,464.5724446240106 L748.7371519999999,448.97065984" stroke="grey" stroke-width="5" />
<circle cx="672.6878928654736" cy="464.5724446240106" r="2.5" fill="grey" stroke="none" />
<circle cx="668.7371519999999" cy="448.97065984" r="5" fill="black" stroke="none" />
<circle cx="748.7371519999999" cy="448.97065984" r="5" fill="black" stroke="none" />
<circle cx="500" cy="500" r="5" fill="red" stroke="none" />
</svg>