<?xml version="1.0" encoding="UTF-8"?>
<svg xmlns="http://www.w3.org/2000/svg" xmlns:xlink="http://www.w3.org/1999/xlink"
     width="1000" height="1000" viewBox="0 0 1000 1000">
<defs>
</defs>
<rect x="0" y="0" width="1000" height="1000" fill="white" />
<path d="M366.9196875,257.2928999999999 L404.7689447969615,326.3210177067371" stroke="grey" stroke-width="5" />
<circle cx="404.7689447969615" cy="326.3210177067371" r="2.5" fill="grey" stroke="none" />
<path d="M404.7689447969615,326.3210177067371 A198.07408403298925,198.07408403298925,0,0,0,366.9196874999999,353.2929" stroke="grey" stroke-width="5" fill="none" />
<circle cx="366.9196875" cy="257.2928999999999" r="5" fill="black" stroke="none" />
<circle cx="366.9196875" cy="353.2928999999999" r="5" fill="black" stroke="none" />
<path d="M366.9196875,353.2928999999999 L423.39526408327595,415.5513055125383" stroke="grey" stroke-width="5" />
<circle cx="423.39526408327595" cy="415.5513055125383" r="2.5" fill="grey" stroke="none" />
<path d="M423.39526408327595,415.5513055125383 A114.01696174476704,114.01696174476704,0,0,1,430.9196875,409.2928999999999" stroke="grey" stroke-width="5" fill="none" />
<circle cx="366.9196875" cy="353.2928999999999" r="5" fill="black" stroke="none" />
<circle cx="430.9196875" cy="409.2928999999999" r="5" fill="black" stroke="none" />
<path d="M342.9196875,409.2928999999999 L401.2629711116057,442.98362786181445" stroke="grey" stroke-width="5" />
<circle cx="401.2629711116057" cy="442.98362786181445" r="2.5" fill="grey" stroke="none" />
<path d="M401.2629711116057,442.98362786181445 A114.01696174476704,114.01696174476704,0,0,1,430.9196875,409.2928999999999" stroke="grey" stroke-width="5" fill="none" />
<circle cx="342.9196875" cy="409.2928999999999" r="5" fill="black" stroke="none" />
<circle cx="430.9196875" cy="409.2928999999999" r="5" fill="black" stroke="none" />
<path d="M430.9196875,409.2928999999999 L464.3867275179694,453.2373761575731" stroke="grey" stroke-width="5" />
<circle cx="464.3867275179694" cy="453.2373761575731" r="2.5" fill="grey" stroke="none" />
<path d="M464.3867275179694,453.2373761575731 A58.77965775255642,58.77965775255642,0,0,1,502.91968749999995,441.2928999999999" stroke="grey" stroke-width="5" fill="none" />
<circle cx="430.9196875" cy="409.2928999999999" r="5" fill="black" stroke="none" />
<circle cx="502.9196875" cy="441.2928999999999" r="5" fill="black" stroke="none" />
<path d="M502.9196875,441.2928999999999 L502.3201809601123,453.3473717158401" stroke="grey" stroke-width="5" />
<circle cx="502.3201809601123" cy="453.3473717158401" r="2.5" fill="grey" stroke="none" />
<path d="M502.3201809601123,453.3473717158401 A46.710287576803275,46.710287576803275,0,0,1,518.9196875,457.2928999999999" stroke="grey" stroke-width="5" fill="none" />
<circle cx="502.9196875" cy="441.2928999999999" r="5" fill="black" stroke="none" />
<circle cx="518.9196875" cy="457.2928999999999" r="5" fill="black" stroke="none" />
<path d="M518.9196875,457.2928999999999 A46.710287576803275,46.710287576803275,0,0,1,545.7106631269804,490.3882237854092" stroke="grey" stroke-width="5" fill="none" />
<path d="M545.7106631269804,490.3882237854092 L50.91968749999998,-10.707100000000082" stroke="grey" stroke-width="5" />
<circle cx="545.7106631269804" cy="490.3882237854092" r="2.5" fill="grey" stroke="none" />
<circle cx="518.9196875" cy="457.2928999999999" r="5" fill="black" stroke="none" />
<circle cx="550.9196875" cy="489.2928999999999" r="5" fill="black" stroke="none" />
<path d="M518.9196875,457.2928999999999 A46.710287576803275,46.710287576803275,0,0,0,479.9776310988441,542.201370938557" stroke="grey" stroke-width="5" fill="none" />
<path d="M479.9776310988441,542.201370938557 L-29.08031250000002,61.29289999999992" stroke="grey" stroke-width="5" />
<circle cx="479.9776310988441" cy="542.201370938557" r="2.5" fill="grey" stroke="none" />
<circle cx="518.9196875" cy="457.2928999999999" r="5" fill="black" stroke="none" />
<circle cx="470.9196875" cy="561.2928999999999" r="5" fill="black" stroke="none" />
<path d="M470.9196875,561.2928999999999 A67.84161087052435,67.84161087052435,0,0,0,486.32378302152085,566.4488168041028" stroke="grey" stroke-width="5" fill="none" />
<path d="M486.32378302152085,566.4488168041028 L-29.08031250000002,141.29289999999992" stroke="grey" stroke-width="5" />
<circle cx="486.32378302152085" cy="566.4488168041028" r="2.5" fill="grey" stroke="none" />
<circle cx="470.9196875" cy="561.2928999999999" r="5" fill="black" stroke="none" />
<circle cx="470.9196875" cy="641.2928999999999" r="5" fill="black" stroke="none" />
<path d="M366.9196875,657.2928999999999 L406.8255347799806,610.1265962266656" stroke="grey" stroke-width="5" />
<circle cx="406.8255347799806" cy="610.1265962266656" r="2.5" fill="grey" stroke="none" />
<path d="M406.8255347799806,610.1265962266656 A144.25445631074152,144.25445631074152,0,0,0,470.9196875,641.2928999999999" stroke="grey" stroke-width="5" fill="none" />
<circle cx="366.9196875" cy="657.2928999999999" r="5" fill="black" stroke="none" />
<circle cx="470.9196875" cy="641.2928999999999" r="5" fill="black" stroke="none" />
<path d="M470.9196875,641.2928999999999 A144.25445631074152,144.25445631074152,0,0,0,484.0438701979958,643.3692787428647" stroke="grey" stroke-width="5" fill="none" />
<path d="M484.0438701979958,643.3692787428647 L-29.08031250000002,261.2928999999999" stroke="grey" stroke-width="5" />
<circle cx="484.0438701979958" cy="643.3692787428647" r="2.5" fill="grey" stroke="none" />
<circle cx="470.9196875" cy="641.2928999999999" r="5" fill="black" stroke="none" />
<circle cx="470.9196875" cy="761.2928999999999" r="5" fill="black" stroke="none" />
<path d="M470.9196875,561.2928999999999 A67.84161087052435,67.84161087052435,0,0,0,543.3518393995989,552.1833516188739" stroke="grey" stroke-width="5" fill="none" />
<path d="M543.3518393995989,552.1833516188739 L50.91968749999998,61.29289999999992" stroke="grey" stroke-width="5" />
<circle cx="543.3518393995989" cy="552.1833516188739" r="2.5" fill="grey" stroke="none" />
<circle cx="470.9196875" cy="561.2928999999999" r="5" fill="black" stroke="none" />
<circle cx="550.9196875" cy="561.2928999999999" r="5" fill="black" stroke="none" />
<path d="M550.9196875,489.2928999999999 A52.03322559199704,52.03322559199704,0,0,1,533.2500365242274,540.0236384733472" stroke="grey" stroke-width="5" fill="none" />
<path d="M533.2500365242274,540.0236384733472 L50.91968749999998,61.29289999999992" stroke="grey" stroke-width="5" />
<circle cx="533.2500365242274" cy="540.0236384733472" r="2.5" fill="grey" stroke="none" />
<circle cx="550.9196875" cy="489.2928999999999" r="5" fill="black" stroke="none" />
<circle cx="550.9196875" cy="561.2928999999999" r="5" fill="black" stroke="none" />
<path d="M550.9196875,561.2928999999999 A79.68459176972449,79.68459176972449,0,0,0,571.3107638403328,535.5585309878787" stroke="grey" stroke-width="5" fill="none" />
<path d="M571.3107638403328,535.5585309878787 L122.91968749999998,61.29289999999992" stroke="grey" stroke-width="5" />
<circle cx="571.3107638403328" cy="535.5585309878787" r="2.5" fill="grey" stroke="none" />
<circle cx="550.9196875" cy="561.2928999999999" r="5" fill="black" stroke="none" />
<circle cx="622.9196875" cy="561.2928999999999" r="5" fill="black" stroke="none" />
<path d="M550.9196875,489.2928999999999 A52.03322559199704,52.03322559199704,0,0,1,551.676125615094,493.9143934632048" stroke="grey" stroke-width="5" fill="none" />
<path d="M551.676125615094,493.9143934632048 L90.91968749999998,-10.707100000000082" stroke="grey" stroke-width="5" />
<circle cx="551.676125615094" cy="493.9143934632048" r="2.5" fill="grey" stroke="none" />
<circle cx="550.9196875" cy="489.2928999999999" r="5" fill="black" stroke="none" />
<circle cx="590.9196875" cy="489.2928999999999" r="5" fill="black" stroke="none" />
<path d="M622.9196875,561.2928999999999 A137.3538101601395,137.3538101601395,0,0,0,636.6591986928842,513.7961073541212" stroke="grey" stroke-width="5" fill="none" />
<path d="M636.6591986928842,513.7961073541212 L210.91968749999998,21.292899999999918" stroke="grey" stroke-width="5" />
<circle cx="636.6591986928842" cy="513.7961073541212" r="2.5" fill="grey" stroke="none" />
<circle cx="622.9196875" cy="561.2928999999999" r="5" fill="black" stroke="none" />
<circle cx="710.9196875" cy="521.2928999999999" r="5" fill="black" stroke="none" />
<path d="M590.9196875,489.2928999999999 A91.54797412017186,91.54797412017186,0,0,1,591.4530344659047,495.8317806576773" stroke="grey" stroke-width="5" fill="none" />
<path d="M591.4530344659047,495.8317806576773 L234.91968749999998,-10.707100000000082" stroke="grey" stroke-width="5" />
<circle cx="591.4530344659047" cy="495.8317806576773" r="2.5" fill="grey" stroke="none" />
<circle cx="590.9196875" cy="489.2928999999999" r="5" fill="black" stroke="none" />
<circle cx="734.9196875" cy="489.2928999999999" r="5" fill="black" stroke="none" />
<path d="M710.9196875,521.2928999999999 A211.9917502298324,211.9917502298324,0,0,0,711.771904584227,490.3479227998982" stroke="grey" stroke-width="5" fill="none" />
<path d="M711.771904584227,490.3479227998982 L234.91968749999998,-10.707100000000082" stroke="grey" stroke-width="5" />
<circle cx="711.771904584227" cy="490.3479227998982" r="2.5" fill="grey" stroke="none" />
<circle cx="710.9196875" cy="521.2928999999999" r="5" fill="black" stroke="none" />
<circle cx="734.9196875" cy="489.2928999999999" r="5" fill="black" stroke="none" />
<path d="M470.9196875,641.2928999999999 A144.25445631074152,144.25445631074152,0,0,0,578.0604716020019,621.3091543898508" stroke="grey" stroke-width="5" fill="none" />
<path d="M578.0604716020019,621.3091543898508 L90.91968749999998,141.29289999999992" stroke="grey" stroke-width="5" />
<circle cx="578.0604716020019" cy="621.3091543898508" r="2.5" fill="grey" stroke="none" />
<circle cx="470.9196875" cy="641.2928999999999" r="5" fill="black" stroke="none" />
<circle cx="590.9196875" cy="641.2928999999999" r="5" fill="black" stroke="none" />
<path d="M590.9196875,641.2928999999999 A168.0180739251216,168.0180739251216,0,0,0,663.2925752536805,539.5677650686604" stroke="grey" stroke-width="5" fill="none" />
<path d="M663.2925752536805,539.5677650686604 L186.91968749999998,45.29289999999992" stroke="grey" stroke-width="5" />
<circle cx="663.2925752536805" cy="539.5677650686604" r="2.5" fill="grey" stroke="none" />
<circle cx="590.9196875" cy="641.2928999999999" r="5" fill="black" stroke="none" />
<circle cx="686.9196875" cy="545.2928999999999" r="5" fill="black" stroke="none" />
<path d="M686.9196875,545.2928999999999 A192.3289275317357,192.3289275317357,0,0,0,691.3563015929816,519.3179244786677" stroke="grey" stroke-width="5" fill="none" />
<path d="M691.3563015929816,519.3179244786677 L210.91968749999998,21.292899999999918" stroke="grey" stroke-width="5" />
<circle cx="691.3563015929816" cy="519.3179244786677" r="2.5" fill="grey" stroke="none" />
<circle cx="686.9196875" cy="545.2928999999999" r="5" fill="black" stroke="none" />
<circle cx="710.9196875" cy="521.2928999999999" r="5" fill="black" stroke="none" />
<path d="M710.9196875,521.2928999999999 A211.9917502298324,211.9917502298324,0,0,1,707.2667333460828,544.5084645157688" stroke="grey" stroke-width="5" fill="none" />
<path d="M707.2667333460828,544.5084645157688 L210.91968749999998,45.29289999999992" stroke="grey" stroke-width="5" />
<circle cx="707.2667333460828" cy="544.5084645157688" r="2.5" fill="grey" stroke="none" />
<circle cx="710.9196875" cy="521.2928999999999" r="5" fill="black" stroke="none" />
<circle cx="710.9196875" cy="545.2928999999999" r="5" fill="black" stroke="none" />
<path d="M710.9196875,545.2928999999999 A215.72798002463114,215.72798002463114,0,0,1,648.8387930678085,656.158813531692" stroke="grey" stroke-width="5" fill="none" />
<path d="M648.8387930678085,656.158813531692 L210.91968749999998,221.29289999999992" stroke="grey" stroke-width="5" />
<circle cx="648.8387930678085" cy="656.158813531692" r="2.5" fill="grey" stroke="none" />
<circle cx="710.9196875" cy="545.2928999999999" r="5" fill="black" stroke="none" />
<circle cx="710.9196875" cy="721.2928999999999" r="5" fill="black" stroke="none" />
<path d="M710.9196875,721.2928999999999 A305.70845942745456,305.70845942745456,0,0,0,747.9738152834339,678.79219529746" stroke="grey" stroke-width="5" fill="none" />
<path d="M747.9738152834339,678.7921952974599 L306.9196875,221.29289999999992" stroke="grey" stroke-width="5" />
<circle cx="747.9738152834339" cy="678.7921952974599" r="2.5" fill="grey" stroke="none" />
<circle cx="710.9196875" cy="721.2928999999999" r="5" fill="black" stroke="none" />
<circle cx="806.9196875" cy="721.2928999999999" r="5" fill="black" stroke="none" />
<path d="M710.9196875,721.2928999999999 A305.70845942745456,305.70845942745456,0,0,1,688.5041503348245,740.6737365647807" stroke="grey" stroke-width="5" fill="none" />
<path d="M688.5041503348245,740.6737365647807 L210.91968749999998,269.2928999999999" stroke="grey" stroke-width="5" />
<circle cx="688.5041503348245" cy="740.6737365647807" r="2.5" fill="grey" stroke="none" />
<circle cx="710.9196875" cy="721.2928999999999" r="5" fill="black" stroke="none" />
<circle cx="710.9196875" cy="769.2928999999999" r="5" fill="black" stroke="none" />
<path d="M398.9196875,345.2928999999999 L401.84914726144484,349.77654486664824" stroke="grey" stroke-width="5" />
<circle cx="401.84914726144484" cy="349.77654486664824" r="2.5" fill="grey" stroke="none" />
<path d="M401.8491472614448,349.7765448666483 A179.44546905817288,179.44546905817288,0,0,1,590.9196875,345.2928999999999" stroke="grey" stroke-width="5" fill="none" />
<circle cx="398.9196875" cy="345.2928999999999" r="5" fill="black" stroke="none" />
<circle cx="590.9196875" cy="345.2928999999999" r="5" fill="black" stroke="none" />
<path d="M590.9196875,345.2928999999999 L546.3846384194063,421.0728381087436" stroke="grey" stroke-width="5" />
<circle cx="546.3846384194063" cy="421.0728381087436" r="2.5" fill="grey" stroke="none" />
<path d="M546.3846384194063,421.0728381087436 A91.54797412017186,91.54797412017186,0,0,1,590.9196875,489.2928999999999" stroke="grey" stroke-width="5" fill="none" />
<circle cx="590.9196875" cy="345.2928999999999" r="5" fill="black" stroke="none" />
<circle cx="590.9196875" cy="489.2928999999999" r="5" fill="black" stroke="none" />
<path d="M590.9196875,345.2928999999999 A179.44546905817288,179.44546905817288,0,0,0,564.8192578625705,332.6705639295546" stroke="grey" stroke-width="5" fill="none" />
<path d="M564.8192578625705,332.6705639295546 L90.91968749999998,-234.70710000000008" stroke="grey" stroke-width="5" />
<circle cx="564.8192578625705" cy="332.6705639295546" r="2.5" fill="grey" stroke="none" />
<circle cx="590.9196875" cy="345.2928999999999" r="5" fill="black" stroke="none" />
<circle cx="590.9196875" cy="265.2928999999999" r="5" fill="black" stroke="none" />
<path d="M590.9196875,265.2928999999999 A251.70183226489968,251.70183226489968,0,0,0,575.1318583482516,259.7729902224857" stroke="grey" stroke-width="5" fill="none" />
<path d="M575.1318583482516,259.77299022248576 L90.91968749999998,-290.7071000000001" stroke="grey" stroke-width="5" />
<circle cx="575.1318583482516" cy="259.77299022248576" r="2.5" fill="grey" stroke="none" />
<circle cx="590.9196875" cy="265.2928999999999" r="5" fill="black" stroke="none" />
<circle cx="590.9196875" cy="209.29289999999992" r="5" fill="black" stroke="none" />
<path d="M590.9196875,265.2928999999999 L584.078617783708,282.95296547271414" stroke="grey" stroke-width="5" />
<circle cx="584.078617783708" cy="282.95296547271414" r="2.5" fill="grey" stroke="none" />
<path d="M584.078617783708,282.95296547271414 A232.76303221411183,232.76303221411183,0,0,1,686.9196875,361.2928999999999" stroke="grey" stroke-width="5" fill="none" />
<circle cx="590.9196875" cy="265.2928999999999" r="5" fill="black" stroke="none" />
<circle cx="686.9196875" cy="361.2928999999999" r="5" fill="black" stroke="none" />
<path d="M590.9196875,345.2928999999999 A179.44546905817288,179.44546905817288,0,0,1,644.1031708539971,393.06566259927826" stroke="grey" stroke-width="5" fill="none" />
<path d="M644.1031708539971,393.0656625992782 L186.91968749999998,-138.70710000000008" stroke="grey" stroke-width="5" />
<circle cx="644.1031708539971" cy="393.0656625992782" r="2.5" fill="grey" stroke="none" />
<circle cx="590.9196875" cy="345.2928999999999" r="5" fill="black" stroke="none" />
<circle cx="686.9196875" cy="361.2928999999999" r="5" fill="black" stroke="none" />
<path d="M686.9196875,361.2928999999999 A232.76303221411183,232.76303221411183,0,0,1,723.9108682661341,436.41893176570886" stroke="grey" stroke-width="5" fill="none" />
<path d="M723.9108682661341,436.41893176570886 L234.91968749999998,-66.70710000000008" stroke="grey" stroke-width="5" />
<circle cx="723.9108682661341" cy="436.41893176570886" r="2.5" fill="grey" stroke="none" />
<circle cx="686.9196875" cy="361.2928999999999" r="5" fill="black" stroke="none" />
<circle cx="734.9196875" cy="433.2928999999999" r="5" fill="black" stroke="none" />
<path d="M686.9196875,545.2928999999999 A192.3289275317357,192.3289275317357,0,0,0,688.0421690666744,540.3801810076168" stroke="grey" stroke-width="5" fill="none" />
<path d="M688.0421690666744,540.3801810076168 L210.91968749999998,45.29289999999992" stroke="grey" stroke-width="5" />
<circle cx="688.0421690666744" cy="540.3801810076168" r="2.5" fill="grey" stroke="none" />
<circle cx="686.9196875" cy="545.2928999999999" r="5" fill="black" stroke="none" />
<circle cx="710.9196875" cy="545.2928999999999" r="5" fill="black" stroke="none" />
<path d="M710.9196875,545.2928999999999 A215.72798002463114,215.72798002463114,0,0,0,711.826839498306,540.8405611331013" stroke="grey" stroke-width="5" fill="none" />
<path d="M711.826839498306,540.8405611331013 L234.91968749999998,45.29289999999992" stroke="grey" stroke-width="5" />
<circle cx="711.826839498306" cy="540.8405611331013" r="2.5" fill="grey" stroke="none" />
<circle cx="710.9196875" cy="545.2928999999999" r="5" fill="black" stroke="none" />
<circle cx="734.9196875" cy="545.2928999999999" r="5" fill="black" stroke="none" />
<path d="M734.9196875,545.2928999999999 L730.9109574058695,544.5200102809106" stroke="grey" stroke-width="5" />
<circle cx="730.9109574058695" cy="544.5200102809106" r="2.5" fill="grey" stroke="none" />
<path d="M730.9109574058695,544.5200102809106 A235.16356343087602,235.16356343087602,0,0,0,734.9196875,489.2928999999999" stroke="grey" stroke-width="5" fill="none" />
<circle cx="734.9196875" cy="545.2928999999999" r="5" fill="black" stroke="none" />
<circle cx="734.9196875" cy="489.2928999999999" r="5" fill="black" stroke="none" />
<path d="M734.9196875,489.2928999999999 A235.16356343087602,235.16356343087602,0,0,0,733.6584486538504,473.4362853090239" stroke="grey" stroke-width="5" fill="none" />
<path d="M733.6584486538504,473.4362853090239 L234.91968749999998,-26.707100000000082" stroke="grey" stroke-width="5" />
<circle cx="733.6584486538504" cy="473.4362853090239" r="2.5" fill="grey" stroke="none" />
<circle cx="734.9196875" cy="489.2928999999999" r="5" fill="black" stroke="none" />
<circle cx="734.9196875" cy="473.2928999999999" r="5" fill="black" stroke="none" />
<path d="M734.9196875,473.2928999999999 A236.43292656799656,236.43292656799656,0,0,0,732.6202129493419,457.7109317564163" stroke="grey" stroke-width="5" fill="none" />
<path d="M732.6202129493419,457.7109317564163 L234.91968749999998,-42.70710000000008" stroke="grey" stroke-width="5" />
<circle cx="732.6202129493419" cy="457.7109317564163" r="2.5" fill="grey" stroke="none" />
<circle cx="734.9196875" cy="473.2928999999999" r="5" fill="black" stroke="none" />
<circle cx="734.9196875" cy="457.2928999999999" r="5" fill="black" stroke="none" />
<path d="M734.9196875,457.2928999999999 A238.77009018197327,238.77009018197327,0,0,0,729.6894730235751,434.77805624132316" stroke="grey" stroke-width="5" fill="none" />
<path d="M729.6894730235751,434.77805624132316 L234.91968749999998,-66.70710000000008" stroke="grey" stroke-width="5" />
<circle cx="729.6894730235751" cy="434.77805624132316" r="2.5" fill="grey" stroke="none" />
<circle cx="734.9196875" cy="457.2928999999999" r="5" fill="black" stroke="none" />
<circle cx="734.9196875" cy="433.2928999999999" r="5" fill="black" stroke="none" />
<path d="M734.9196875,433.2928999999999 A244.2070776318894,244.2070776318894,0,0,1,737.6895328400984,443.95731319999516" stroke="grey" stroke-width="5" fill="none" />
<path d="M737.6895328400984,443.95731319999516 L282.9196875,-66.70710000000008" stroke="grey" stroke-width="5" />
<circle cx="737.6895328400984" cy="443.95731319999516" r="2.5" fill="grey" stroke="none" />
<circle cx="734.9196875" cy="433.2928999999999" r="5" fill="black" stroke="none" />
<circle cx="782.9196875" cy="433.2928999999999" r="5" fill="black" stroke="none" />
<path d="M782.9196875,433.2928999999999 L776.5931445611257,434.78457891498454" stroke="grey" stroke-width="5" />
<circle cx="776.5931445611257" cy="434.78457891498454" r="2.5" fill="grey" stroke="none" />
<path d="M776.5931445611257,434.78457891498454 A284.177442393846,284.177442393846,0,0,1,782.9196875,473.2928999999999" stroke="grey" stroke-width="5" fill="none" />
<circle cx="782.9196875" cy="433.2928999999999" r="5" fill="black" stroke="none" />
<circle cx="782.9196875" cy="473.2928999999999" r="5" fill="black" stroke="none" />
<path d="M782.9196875,473.2928999999999 L735.3864864707383,477.7799470642259" stroke="grey" stroke-width="5" />
<circle cx="735.3864864707383" cy="477.7799470642259" r="2.5" fill="grey" stroke="none" />
<path d="M735.3864864707383,477.7799470642259 A236.43292656799656,236.43292656799656,0,0,0,734.9196875,473.2928999999999" stroke="grey" stroke-width="5" fill="none" />
<circle cx="782.9196875" cy="473.2928999999999" r="5" fill="black" stroke="none" />
<circle cx="734.9196875" cy="473.2928999999999" r="5" fill="black" stroke="none" />
<path d="M734.9196875,457.2928999999999 A238.77009018197327,238.77009018197327,0,0,1,736.6043312637747,467.9134546463845" stroke="grey" stroke-width="5" fill="none" />
<path d="M736.6043312637747,467.9134546463845 L314.9196875,-42.70710000000008" stroke="grey" stroke-width="5" />
<circle cx="736.6043312637747" cy="467.9134546463845" r="2.5" fill="grey" stroke="none" />
<circle cx="734.9196875" cy="457.2928999999999" r="5" fill="black" stroke="none" />
<circle cx="814.9196875" cy="457.2928999999999" r="5" fill="black" stroke="none" />
<circle cx="500" cy="500" r="5" fill="red" stroke="none" />
</svg>