<?xml version="1.0" encoding="UTF-8"?>
<svg xmlns="http://www.w3.org/2000/svg" xmlns:xlink="http://www.w3.org/1999/xlink"
     width="1000" height="1000" viewBox="0 0 1000 1000">
<defs>
</defs>
<rect x="0" y="0" width="1000" height="1000" fill="white" />
<path d="M162.86383950000004,315.52681104 L194.22968316127856,332.689482632497" stroke="grey" stroke-width="5" />
<circle cx="194.22968316127856" cy="332.689482632497" r="2.5" fill="grey" stroke="none" />
<path d="M194.2296831612785,332.6894826324972 A348.55171191866725,348.55171191866725,0,0,0,162.86383949999998,411.5268110400001" stroke="grey" stroke-width="5" fill="none" />
<circle cx="162.86383950000004" cy="315.52681104" r="5" fill="black" stroke="none" />
<circle cx="162.86383950000004" cy="411.52681104" r="5" fill="black" stroke="none" />
<path d="M162.86383950000004,411.52681104 L233.94883064083325,430.1813387658173" stroke="grey" stroke-width="5" />
<circle cx="233.94883064083325" cy="430.1813387658173" r="2.5" fill="grey" stroke="none" />
<path d="M233.9488306408332,430.18133876581743 A275.0597574599265,275.0597574599265,0,0,0,226.86383950000004,467.52681104" stroke="grey" stroke-width="5" fill="none" />
<circle cx="162.86383950000004" cy="411.52681104" r="5" fill="black" stroke="none" />
<circle cx="226.86383950000004" cy="467.52681104" r="5" fill="black" stroke="none" />
<path d="M138.86383950000004,467.52681104 L226.0455448409748,475.3661478360518" stroke="grey" stroke-width="5" />
<circle cx="226.0455448409748" cy="475.3661478360518" r="2.5" fill="grey" stroke="none" />
<path d="M226.0455448409748,475.3661478360518 A275.0597574599265,275.0597574599265,0,0,1,226.86383950000004,467.52681104" stroke="grey" stroke-width="5" fill="none" />
<circle cx="138.86383950000004" cy="467.52681104" r="5" fill="black" stroke="none" />
<circle cx="226.86383950000004" cy="467.52681104" r="5" fill="black" stroke="none" />
<path d="M226.86383950000004,467.52681104 L300.26990806130055,476.2540668190891" stroke="grey" stroke-width="5" />
<circle cx="300.26990806130055" cy="476.2540668190891" r="2.5" fill="grey" stroke="none" />
<path d="M300.26990806130055,476.2540668190891 A201.1367171067322,201.1367171067322,0,0,0,298.86383950000004,499.52681104" stroke="grey" stroke-width="5" fill="none" />
<circle cx="226.86383950000004" cy="467.52681104" r="5" fill="black" stroke="none" />
<circle cx="298.86383950000004" cy="499.52681104" r="5" fill="black" stroke="none" />
<path d="M298.86383950000004,499.52681104 L314.2144011212572,499.5629244681917" stroke="grey" stroke-width="5" />
<circle cx="314.2144011212572" cy="499.5629244681917" r="2.5" fill="grey" stroke="none" />
<path d="M314.2144011212572,499.5629244681917 A185.7861130056647,185.7861130056647,0,0,0,314.86383950000004,515.5268110400001" stroke="grey" stroke-width="5" fill="none" />
<circle cx="298.86383950000004" cy="499.52681104" r="5" fill="black" stroke="none" />
<circle cx="314.86383950000004" cy="515.52681104" r="5" fill="black" stroke="none" />
<path d="M314.86383950000004,515.52681104 L340.21917379078724,513.4003356754583" stroke="grey" stroke-width="5" />
<circle cx="340.21917379078724" cy="513.4003356754583" r="2.5" fill="grey" stroke="none" />
<path d="M340.2191737907873,513.4003356754585 A160.3417644293389,160.3417644293389,0,0,0,346.86383950000004,547.52681104" stroke="grey" stroke-width="5" fill="none" />
<circle cx="314.86383950000004" cy="515.52681104" r="5" fill="black" stroke="none" />
<circle cx="346.86383950000004" cy="547.52681104" r="5" fill="black" stroke="none" />
<path d="M314.86383950000004,515.5268110400001 A185.7861130056647,185.7861130056647,0,0,0,334.6755791571485,584.760342488273" stroke="grey" stroke-width="5" fill="none" />
<path d="M334.6755791571484,584.7603424882728 L-233.13616049999996,119.52681103999998" stroke="grey" stroke-width="5" />
<circle cx="334.6755791571484" cy="584.7603424882728" r="2.5" fill="grey" stroke="none" />
<circle cx="314.86383950000004" cy="515.52681104" r="5" fill="black" stroke="none" />
<circle cx="266.86383950000004" cy="619.52681104" r="5" fill="black" stroke="none" />
<path d="M266.86383950000004,619.5268110400001 A261.9907019153039,261.9907019153039,0,0,0,300.9535612211209,670.3515280222621" stroke="grey" stroke-width="5" fill="none" />
<path d="M300.9535612211209,670.3515280222621 L-233.13616049999996,199.52681103999998" stroke="grey" stroke-width="5" />
<circle cx="300.9535612211209" cy="670.3515280222621" r="2.5" fill="grey" stroke="none" />
<circle cx="266.86383950000004" cy="619.52681104" r="5" fill="black" stroke="none" />
<circle cx="266.86383950000004" cy="699.52681104" r="5" fill="black" stroke="none" />
<path d="M162.86383950000004,715.52681104 L241.4564593230641,665.2835600739143" stroke="grey" stroke-width="5" />
<circle cx="241.4564593230641" cy="665.2835600739143" r="2.5" fill="grey" stroke="none" />
<path d="M241.4564593230641,665.2835600739143 A306.86058341936587,306.86058341936587,0,0,0,266.86383950000004,699.52681104" stroke="grey" stroke-width="5" fill="none" />
<circle cx="162.86383950000004" cy="715.52681104" r="5" fill="black" stroke="none" />
<circle cx="266.86383950000004" cy="699.52681104" r="5" fill="black" stroke="none" />
<path d="M266.86383950000004,699.52681104 A306.86058341936587,306.86058341936587,0,0,0,319.131403947213,747.8910418275888" stroke="grey" stroke-width="5" fill="none" />
<path d="M319.131403947213,747.8910418275888 L-233.13616049999996,319.52681104" stroke="grey" stroke-width="5" />
<circle cx="319.131403947213" cy="747.8910418275888" r="2.5" fill="grey" stroke="none" />
<circle cx="266.86383950000004" cy="699.52681104" r="5" fill="black" stroke="none" />
<circle cx="266.86383950000004" cy="819.52681104" r="5" fill="black" stroke="none" />
<path d="M266.86383950000004,619.52681104 L327.13406621836737,588.6268082911589" stroke="grey" stroke-width="5" />
<circle cx="327.13406621836737" cy="588.6268082911589" r="2.5" fill="grey" stroke="none" />
<path d="M327.1340662183674,588.6268082911589 A194.26101567240303,194.26101567240303,0,0,0,346.86383950000004,619.52681104" stroke="grey" stroke-width="5" fill="none" />
<circle cx="266.86383950000004" cy="619.52681104" r="5" fill="black" stroke="none" />
<circle cx="346.86383950000004" cy="619.52681104" r="5" fill="black" stroke="none" />
<path d="M346.86383950000004,547.52681104 A160.3417644293389,160.3417644293389,0,0,0,373.60242049844993,598.6566435495498" stroke="grey" stroke-width="5" fill="none" />
<path d="M373.60242049844993,598.6566435495498 L-153.13616049999996,119.52681103999998" stroke="grey" stroke-width="5" />
<circle cx="373.60242049844993" cy="598.6566435495498" r="2.5" fill="grey" stroke="none" />
<circle cx="346.86383950000004" cy="547.52681104" r="5" fill="black" stroke="none" />
<circle cx="346.86383950000004" cy="619.52681104" r="5" fill="black" stroke="none" />
<path d="M346.86383950000004,619.52681104 L386.1191848130747,588.8869789701224" stroke="grey" stroke-width="5" />
<circle cx="386.1191848130747" cy="588.8869789701224" r="2.5" fill="grey" stroke="none" />
<path d="M386.1191848130747,588.8869789701224 A144.46361167461382,144.46361167461382,0,0,0,418.86383950000004,619.52681104" stroke="grey" stroke-width="5" fill="none" />
<circle cx="346.86383950000004" cy="619.52681104" r="5" fill="black" stroke="none" />
<circle cx="418.86383950000004" cy="619.52681104" r="5" fill="black" stroke="none" />
<path d="M346.86383950000004,547.52681104 L382.80118252537045,536.3734211047309" stroke="grey" stroke-width="5" />
<circle cx="382.80118252537045" cy="536.3734211047309" r="2.5" fill="grey" stroke="none" />
<path d="M382.80118252537045,536.3734211047309 A122.71344091139167,122.71344091139167,0,0,0,386.86383950000004,547.52681104" stroke="grey" stroke-width="5" fill="none" />
<circle cx="346.86383950000004" cy="547.52681104" r="5" fill="black" stroke="none" />
<circle cx="386.86383950000004" cy="547.52681104" r="5" fill="black" stroke="none" />
<path d="M418.86383950000004,619.52681104 L455.16872185897984,566.0437920407066" stroke="grey" stroke-width="5" />
<circle cx="455.16872185897984" cy="566.0437920407066" r="2.5" fill="grey" stroke="none" />
<path d="M455.16872185897984,566.0437920407066 A79.82246530190372,79.82246530190372,0,0,0,506.86383950000004,579.52681104" stroke="grey" stroke-width="5" fill="none" />
<circle cx="418.86383950000004" cy="619.52681104" r="5" fill="black" stroke="none" />
<circle cx="506.86383950000004" cy="579.52681104" r="5" fill="black" stroke="none" />
<path d="M386.86383950000004,547.52681104 L447.7537926634879,521.9478512675801" stroke="grey" stroke-width="5" />
<circle cx="447.7537926634879" cy="521.9478512675801" r="2.5" fill="grey" stroke="none" />
<path d="M447.7537926634879,521.9478512675801 A56.66898937085103,56.66898937085103,0,0,0,530.8638395,547.52681104" stroke="grey" stroke-width="5" fill="none" />
<circle cx="386.86383950000004" cy="547.52681104" r="5" fill="black" stroke="none" />
<circle cx="530.8638395" cy="547.52681104" r="5" fill="black" stroke="none" />
<path d="M506.86383950000004,579.52681104 L504.87289945502914,556.4590932199128" stroke="grey" stroke-width="5" />
<circle cx="504.87289945502914" cy="556.4590932199128" r="2.5" fill="grey" stroke="none" />
<path d="M504.87289945502914,556.4590932199128 A56.66898937085103,56.66898937085103,0,0,0,530.8638395,547.52681104" stroke="grey" stroke-width="5" fill="none" />
<circle cx="506.86383950000004" cy="579.52681104" r="5" fill="black" stroke="none" />
<circle cx="530.8638395" cy="547.52681104" r="5" fill="black" stroke="none" />
<path d="M266.86383950000004,699.52681104 L325.73677979773333,649.1411050690249" stroke="grey" stroke-width="5" />
<circle cx="325.73677979773333" cy="649.1411050690249" r="2.5" fill="grey" stroke="none" />
<path d="M325.73677979773333,649.1411050690249 A229.37031005880777,229.37031005880777,0,0,0,386.86383950000004,699.52681104" stroke="grey" stroke-width="5" fill="none" />
<circle cx="266.86383950000004" cy="699.52681104" r="5" fill="black" stroke="none" />
<circle cx="386.86383950000004" cy="699.52681104" r="5" fill="black" stroke="none" />
<path d="M386.86383950000004,699.52681104 L448.2409302460896,591.2822397786308" stroke="grey" stroke-width="5" />
<circle cx="448.2409302460896" cy="591.2822397786308" r="2.5" fill="grey" stroke="none" />
<path d="M448.2409302460896,591.2822397786308 A104.93544968595513,104.93544968595513,0,0,0,482.86383950000004,603.52681104" stroke="grey" stroke-width="5" fill="none" />
<circle cx="386.86383950000004" cy="699.52681104" r="5" fill="black" stroke="none" />
<circle cx="482.86383950000004" cy="603.52681104" r="5" fill="black" stroke="none" />
<path d="M482.86383950000004,603.52681104 L486.964838088437,578.7509398090776" stroke="grey" stroke-width="5" />
<circle cx="486.964838088437" cy="578.7509398090776" r="2.5" fill="grey" stroke="none" />
<path d="M486.964838088437,578.7509398090776 A79.82246530190372,79.82246530190372,0,0,0,506.86383950000004,579.52681104" stroke="grey" stroke-width="5" fill="none" />
<circle cx="482.86383950000004" cy="603.52681104" r="5" fill="black" stroke="none" />
<circle cx="506.86383950000004" cy="579.52681104" r="5" fill="black" stroke="none" />
<path d="M506.86383950000004,579.52681104 A79.82246530190372,79.82246530190372,0,0,1,505.28064529250145,579.6476035557154" stroke="grey" stroke-width="5" fill="none" />
<path d="M505.28064529250145,579.6476035557154 L6.86383950000004,103.52681103999998" stroke="grey" stroke-width="5" />
<circle cx="505.28064529250145" cy="579.6476035557154" r="2.5" fill="grey" stroke="none" />
<circle cx="506.86383950000004" cy="579.52681104" r="5" fill="black" stroke="none" />
<circle cx="506.86383950000004" cy="603.52681104" r="5" fill="black" stroke="none" />
<path d="M506.86383950000004,603.52681104 A103.75409821685899,103.75409821685899,0,0,1,502.5469359207017,603.72283265612" stroke="grey" stroke-width="5" fill="none" />
<path d="M502.5469359207017,603.72283265612 L6.86383950000004,279.52681104" stroke="grey" stroke-width="5" />
<circle cx="502.5469359207017" cy="603.72283265612" r="2.5" fill="grey" stroke="none" />
<circle cx="506.86383950000004" cy="603.52681104" r="5" fill="black" stroke="none" />
<circle cx="506.86383950000004" cy="779.52681104" r="5" fill="black" stroke="none" />
<path d="M506.8638395000001,779.52681104 A279.6110698503792,279.6110698503792,0,0,0,596.5640801422402,762.4075624084729" stroke="grey" stroke-width="5" fill="none" />
<path d="M596.5640801422402,762.4075624084729 L102.86383950000004,279.52681104" stroke="grey" stroke-width="5" />
<circle cx="596.5640801422402" cy="762.4075624084729" r="2.5" fill="grey" stroke="none" />
<circle cx="506.86383950000004" cy="779.52681104" r="5" fill="black" stroke="none" />
<circle cx="602.8638395" cy="779.52681104" r="5" fill="black" stroke="none" />
<path d="M506.8638395000001,779.52681104 A279.6110698503792,279.6110698503792,0,0,1,505.8584034759731,779.5496905589171" stroke="grey" stroke-width="5" fill="none" />
<path d="M505.85840347597303,779.5496905589171 L6.86383950000004,327.52681104" stroke="grey" stroke-width="5" />
<circle cx="505.85840347597303" cy="779.5496905589171" r="2.5" fill="grey" stroke="none" />
<circle cx="506.86383950000004" cy="779.52681104" r="5" fill="black" stroke="none" />
<circle cx="506.86383950000004" cy="827.52681104" r="5" fill="black" stroke="none" />
<path d="M194.86383950000004,403.52681104 L358.232993786165,455.1783205361503" stroke="grey" stroke-width="5" />
<circle cx="358.232993786165" cy="455.1783205361503" r="2.5" fill="grey" stroke="none" />
<path d="M358.232993786165,455.1783205361503 A148.68378190237704,148.68378190237704,0,0,1,386.86383950000004,403.52681104" stroke="grey" stroke-width="5" fill="none" />
<circle cx="194.86383950000004" cy="403.52681104" r="5" fill="black" stroke="none" />
<circle cx="386.86383950000004" cy="403.52681104" r="5" fill="black" stroke="none" />
<path d="M386.86383950000004,403.52681104 L406.62513847291024,420.37761737356493" stroke="grey" stroke-width="5" />
<circle cx="406.62513847291024" cy="420.37761737356493" r="2.5" fill="grey" stroke="none" />
<path d="M406.62513847291024,420.37761737356493 A122.71344091139167,122.71344091139167,0,0,0,386.86383950000004,547.52681104" stroke="grey" stroke-width="5" fill="none" />
<circle cx="386.86383950000004" cy="403.52681104" r="5" fill="black" stroke="none" />
<circle cx="386.86383950000004" cy="547.52681104" r="5" fill="black" stroke="none" />
<path d="M386.86383950000004,403.52681104 A148.68378190237704,148.68378190237704,0,0,1,419.75420705438853,374.83019647165827" stroke="grey" stroke-width="5" fill="none" />
<path d="M419.75420705438853,374.83019647165827 L-113.13616049999996,-176.47318896000002" stroke="grey" stroke-width="5" />
<circle cx="419.75420705438853" cy="374.83019647165827" r="2.5" fill="grey" stroke="none" />
<circle cx="386.86383950000004" cy="403.52681104" r="5" fill="black" stroke="none" />
<circle cx="386.86383950000004" cy="323.52681104" r="5" fill="black" stroke="none" />
<path d="M386.86383950000004,323.52681104 A209.62484879993028,209.62484879993028,0,0,1,408.2693722218958,311.5110900826562" stroke="grey" stroke-width="5" fill="none" />
<path d="M408.2693722218958,311.5110900826562 L-113.13616049999996,-232.47318896000002" stroke="grey" stroke-width="5" />
<circle cx="408.2693722218958" cy="311.5110900826562" r="2.5" fill="grey" stroke="none" />
<circle cx="386.86383950000004" cy="323.52681104" r="5" fill="black" stroke="none" />
<circle cx="386.86383950000004" cy="267.52681104" r="5" fill="black" stroke="none" />
<path d="M386.86383950000004,323.52681104 L455.5942095995732,430.7345113567587" stroke="grey" stroke-width="5" />
<circle cx="455.5942095995732" cy="430.7345113567587" r="2.5" fill="grey" stroke="none" />
<path d="M455.5942095995732,430.7345113567587 A82.27747041610861,82.27747041610861,0,0,1,482.86383950000004,419.52681104" stroke="grey" stroke-width="5" fill="none" />
<circle cx="386.86383950000004" cy="323.52681104" r="5" fill="black" stroke="none" />
<circle cx="482.86383950000004" cy="419.52681104" r="5" fill="black" stroke="none" />
<path d="M386.86383950000004,403.52681104 L437.3935947859957,446.61441988464003" stroke="grey" stroke-width="5" />
<circle cx="437.3935947859957" cy="446.61441988464003" r="2.5" fill="grey" stroke="none" />
<path d="M437.3935947859957,446.61441988464003 A82.27747041610861,82.27747041610861,0,0,1,482.86383950000004,419.52681104" stroke="grey" stroke-width="5" fill="none" />
<circle cx="386.86383950000004" cy="403.52681104" r="5" fill="black" stroke="none" />
<circle cx="482.86383950000004" cy="419.52681104" r="5" fill="black" stroke="none" />
<path d="M482.86383950000004,419.52681104 L493.3340609577286,468.69605813130954" stroke="grey" stroke-width="5" />
<circle cx="493.3340609577286" cy="468.69605813130954" r="2.5" fill="grey" stroke="none" />
<path d="M493.3340609577286,468.69605813130954 A32.005804470964776,32.005804470964776,0,0,1,530.8638395,491.52681104" stroke="grey" stroke-width="5" fill="none" />
<circle cx="482.86383950000004" cy="419.52681104" r="5" fill="black" stroke="none" />
<circle cx="530.8638395" cy="491.52681104" r="5" fill="black" stroke="none" />
<path d="M482.86383950000004,603.52681104 L483.05675646411396,602.3613178660635" stroke="grey" stroke-width="5" />
<circle cx="483.05675646411396" cy="602.3613178660635" r="2.5" fill="grey" stroke="none" />
<path d="M483.05675646411396,602.3613178660635 A103.75409821685899,103.75409821685899,0,0,0,506.86383950000004,603.52681104" stroke="grey" stroke-width="5" fill="none" />
<circle cx="482.86383950000004" cy="603.52681104" r="5" fill="black" stroke="none" />
<circle cx="506.86383950000004" cy="603.52681104" r="5" fill="black" stroke="none" />
<path d="M506.86383950000004,603.52681104 A103.75409821685899,103.75409821685899,0,0,0,529.6423591870569,599.4295903572931" stroke="grey" stroke-width="5" fill="none" />
<path d="M529.6423591870569,599.4295903572931 L30.86383950000004,103.52681103999998" stroke="grey" stroke-width="5" />
<circle cx="529.6423591870569" cy="599.4295903572931" r="2.5" fill="grey" stroke="none" />
<circle cx="506.86383950000004" cy="603.52681104" r="5" fill="black" stroke="none" />
<circle cx="530.8638395" cy="603.52681104" r="5" fill="black" stroke="none" />
<path d="M530.8638395,603.52681104 L516.1902283048837,554.3070056599456" stroke="grey" stroke-width="5" />
<circle cx="516.1902283048837" cy="554.3070056599456" r="2.5" fill="grey" stroke="none" />
<path d="M516.1902283048837,554.3070056599456 A56.66898937085103,56.66898937085103,0,0,0,530.8638395,547.52681104" stroke="grey" stroke-width="5" fill="none" />
<circle cx="530.8638395" cy="603.52681104" r="5" fill="black" stroke="none" />
<circle cx="530.8638395" cy="547.52681104" r="5" fill="black" stroke="none" />
<path d="M530.8638395,547.52681104 L524.0288794280467,537.0017480190602" stroke="grey" stroke-width="5" />
<circle cx="524.0288794280467" cy="537.0017480190602" r="2.5" fill="grey" stroke="none" />
<path d="M524.0288794280467,537.0017480190602 A44.11934273120609,44.11934273120609,0,0,0,530.8638395,531.52681104" stroke="grey" stroke-width="5" fill="none" />
<circle cx="530.8638395" cy="547.52681104" r="5" fill="black" stroke="none" />
<circle cx="530.8638395" cy="531.52681104" r="5" fill="black" stroke="none" />
<path d="M530.8638395,531.52681104 L524.1691265844687,524.6882921624311" stroke="grey" stroke-width="5" />
<circle cx="524.1691265844687" cy="524.6882921624311" r="2.5" fill="grey" stroke="none" />
<path d="M524.1691265844687,524.6882921624311 A34.54936250864302,34.54936250864302,0,0,0,530.8638395,515.52681104" stroke="grey" stroke-width="5" fill="none" />
<circle cx="530.8638395" cy="531.52681104" r="5" fill="black" stroke="none" />
<circle cx="530.8638395" cy="515.52681104" r="5" fill="black" stroke="none" />
<path d="M530.8638395,515.52681104 L528.5916132899159,514.3837119448887" stroke="grey" stroke-width="5" />
<circle cx="528.5916132899159" cy="514.3837119448887" r="2.5" fill="grey" stroke="none" />
<path d="M528.5916132899159,514.3837119448887 A32.005804470964776,32.005804470964776,0,0,0,530.8638395,491.52681104" stroke="grey" stroke-width="5" fill="none" />
<circle cx="530.8638395" cy="515.52681104" r="5" fill="black" stroke="none" />
<circle cx="530.8638395" cy="491.52681104" r="5" fill="black" stroke="none" />
<path d="M530.8638395,491.52681104 A32.005804470964776,32.005804470964776,0,0,1,531.8226588719074,496.5809501091905" stroke="grey" stroke-width="5" fill="none" />
<path d="M531.8226588719074,496.5809501091905 L78.86383950000004,-8.473188960000016" stroke="grey" stroke-width="5" />
<circle cx="531.8226588719074" cy="496.5809501091905" r="2.5" fill="grey" stroke="none" />
<circle cx="530.8638395" cy="491.52681104" r="5" fill="black" stroke="none" />
<circle cx="578.8638395" cy="491.52681104" r="5" fill="black" stroke="none" />
<path d="M578.8638395,491.52681104 A79.31771625452684,79.31771625452684,0,0,1,573.6506791707308,529.4427846767883" stroke="grey" stroke-width="5" fill="none" />
<path d="M573.6506791707308,529.4427846767883 L78.86383950000004,31.526811039999984" stroke="grey" stroke-width="5" />
<circle cx="573.6506791707308" cy="529.4427846767883" r="2.5" fill="grey" stroke="none" />
<circle cx="578.8638395" cy="491.52681104" r="5" fill="black" stroke="none" />
<circle cx="578.8638395" cy="531.52681104" r="5" fill="black" stroke="none" />
<path d="M578.8638395,531.52681104 L540.9671345843133,516.3771269453587" stroke="grey" stroke-width="5" />
<circle cx="540.9671345843133" cy="516.3771269453587" r="2.5" fill="grey" stroke="none" />
<path d="M540.9671345843133,516.3771269453587 A44.11934273120609,44.11934273120609,0,0,1,530.8638395,531.52681104" stroke="grey" stroke-width="5" fill="none" />
<circle cx="578.8638395" cy="531.52681104" r="5" fill="black" stroke="none" />
<circle cx="530.8638395" cy="531.52681104" r="5" fill="black" stroke="none" />
<path d="M530.8638395,515.52681104 A34.54936250864302,34.54936250864302,0,0,0,534.2154270653424,504.7919725051239" stroke="grey" stroke-width="5" fill="none" />
<path d="M534.2154270653424,504.7919725051239 L110.86383950000004,15.526811039999984" stroke="grey" stroke-width="5" />
<circle cx="534.2154270653424" cy="504.7919725051239" r="2.5" fill="grey" stroke="none" />
<circle cx="530.8638395" cy="515.52681104" r="5" fill="black" stroke="none" />
<circle cx="610.8638395" cy="515.52681104" r="5" fill="black" stroke="none" />
<circle cx="500" cy="500" r="5" fill="red" stroke="none" />
</svg>