<?xml version="1.0" encoding="UTF-8"?>
<svg xmlns="http://www.w3.org/2000/svg" xmlns:xlink="http://www.w3.org/1999/xlink"
     width="1000" height="1000" viewBox="0 0 1000 1000">
<defs>
</defs>
<rect x="0" y="0" width="1000" height="1000" fill="white" />
<path d="M378.3238395,262.29720144000004 L414.8949764802501,333.74144796293785" stroke="grey" stroke-width="5" />
<circle cx="414.8949764802501" cy="333.74144796293785" r="2.5" fill="grey" stroke="none" />
<path d="M414.8949764802501,333.74144796293785 A186.77465340285787,186.77465340285787,0,0,0,378.3238395000001,358.29720144" stroke="grey" stroke-width="5" fill="none" />
<circle cx="378.3238395" cy="262.29720144000004" r="5" fill="black" stroke="none" />
<circle cx="378.3238395" cy="358.29720144000004" r="5" fill="black" stroke="none" />
<path d="M378.3238395,358.29720144000004 L432.70226016532405,421.62574795137147" stroke="grey" stroke-width="5" />
<circle cx="432.70226016532405" cy="421.62574795137147" r="2.5" fill="grey" stroke="none" />
<path d="M432.70226016532405,421.62574795137147 A103.30299691217913,103.30299691217913,0,0,1,442.3238395,414.29720144000004" stroke="grey" stroke-width="5" fill="none" />
<circle cx="378.3238395" cy="358.29720144000004" r="5" fill="black" stroke="none" />
<circle cx="442.3238395" cy="414.29720144000004" r="5" fill="black" stroke="none" />
<path d="M354.3238395,414.29720144000004 L410.96253456216095,447.61833412878786" stroke="grey" stroke-width="5" />
<circle cx="410.96253456216095" cy="447.61833412878786" r="2.5" fill="grey" stroke="none" />
<path d="M410.96253456216095,447.61833412878786 A103.30299691217913,103.30299691217913,0,0,1,442.3238395,414.29720144000004" stroke="grey" stroke-width="5" fill="none" />
<circle cx="354.3238395" cy="414.29720144000004" r="5" fill="black" stroke="none" />
<circle cx="442.3238395" cy="414.29720144000004" r="5" fill="black" stroke="none" />
<path d="M442.3238395,414.29720144000004 L468.9684242213775,453.88921757448367" stroke="grey" stroke-width="5" />
<circle cx="468.9684242213775" cy="453.88921757448367" r="2.5" fill="grey" stroke="none" />
<path d="M468.9684242213775,453.88921757448367 A55.58023885516951,55.58023885516951,0,0,1,514.3238395000001,446.29720144000004" stroke="grey" stroke-width="5" fill="none" />
<circle cx="442.3238395" cy="414.29720144000004" r="5" fill="black" stroke="none" />
<circle cx="514.3238395000001" cy="446.29720144000004" r="5" fill="black" stroke="none" />
<path d="M514.3238395000001,446.29720144000004 L512.4693296821371,453.25011145942835" stroke="grey" stroke-width="5" />
<circle cx="512.4693296821371" cy="453.25011145942835" r="2.5" fill="grey" stroke="none" />
<path d="M512.4693296821372,453.25011145942835 A48.38425633692944,48.38425633692944,0,0,1,530.3238395000001,462.29720144000004" stroke="grey" stroke-width="5" fill="none" />
<circle cx="514.3238395000001" cy="446.29720144000004" r="5" fill="black" stroke="none" />
<circle cx="530.3238395000001" cy="462.29720144000004" r="5" fill="black" stroke="none" />
<path d="M530.3238395000001,462.29720144000004 A48.38425633692944,48.38425633692944,0,0,1,548.1829650530166,495.5911293988736" stroke="grey" stroke-width="5" fill="none" />
<path d="M548.1829650530166,495.5911293988736 L62.32383950000002,-5.702798559999962" stroke="grey" stroke-width="5" />
<circle cx="548.1829650530166" cy="495.5911293988736" r="2.5" fill="grey" stroke="none" />
<circle cx="530.3238395000001" cy="462.29720144000004" r="5" fill="black" stroke="none" />
<circle cx="562.3238395000001" cy="494.29720144000004" r="5" fill="black" stroke="none" />
<path d="M530.3238395000001,462.29720144000004 A48.38425633692944,48.38425633692944,0,0,1,487.53522072310903,546.7511020068628" stroke="grey" stroke-width="5" fill="none" />
<path d="M487.53522072310903,546.7511020068628 L-17.67616049999998,66.29720144000004" stroke="grey" stroke-width="5" />
<circle cx="487.53522072310903" cy="546.7511020068628" r="2.5" fill="grey" stroke="none" />
<circle cx="530.3238395000001" cy="462.29720144000004" r="5" fill="black" stroke="none" />
<circle cx="482.3238395" cy="566.29720144" r="5" fill="black" stroke="none" />
<path d="M482.3238395,566.29720144 A68.61315886036513,68.61315886036513,0,0,0,491.76976462545963,568.1177568221192" stroke="grey" stroke-width="5" fill="none" />
<path d="M491.76976462545963,568.1177568221192 L-17.67616049999998,146.29720144000004" stroke="grey" stroke-width="5" />
<circle cx="491.76976462545963" cy="568.1177568221192" r="2.5" fill="grey" stroke="none" />
<circle cx="482.3238395" cy="566.29720144" r="5" fill="black" stroke="none" />
<circle cx="482.3238395" cy="646.29720144" r="5" fill="black" stroke="none" />
<path d="M378.3238395,662.29720144 L411.6050244532809,617.905242026352" stroke="grey" stroke-width="5" />
<circle cx="411.6050244532809" cy="617.905242026352" r="2.5" fill="grey" stroke="none" />
<path d="M411.6050244532809,617.905242026352 A147.3611814529108,147.3611814529108,0,0,0,482.3238395,646.29720144" stroke="grey" stroke-width="5" fill="none" />
<circle cx="378.3238395" cy="662.29720144" r="5" fill="black" stroke="none" />
<circle cx="482.3238395" cy="646.29720144" r="5" fill="black" stroke="none" />
<path d="M482.3238395,646.29720144 A147.3611814529108,147.3611814529108,0,0,0,490.2400007676412,647.0376149635938" stroke="grey" stroke-width="5" fill="none" />
<path d="M490.2400007676412,647.0376149635938 L-17.67616049999998,266.29720144000004" stroke="grey" stroke-width="5" />
<circle cx="490.2400007676412" cy="647.0376149635938" r="2.5" fill="grey" stroke="none" />
<circle cx="482.3238395" cy="646.29720144" r="5" fill="black" stroke="none" />
<circle cx="482.3238395" cy="766.29720144" r="5" fill="black" stroke="none" />
<path d="M482.3238395,566.29720144 A68.61315886036513,68.61315886036513,0,0,0,546.9956287255999,549.9917638164854" stroke="grey" stroke-width="5" fill="none" />
<path d="M546.9956287255999,549.9917638164854 L62.32383950000002,66.29720144000004" stroke="grey" stroke-width="5" />
<circle cx="546.9956287255999" cy="549.9917638164854" r="2.5" fill="grey" stroke="none" />
<circle cx="482.3238395" cy="566.29720144" r="5" fill="black" stroke="none" />
<circle cx="562.3238395000001" cy="566.29720144" r="5" fill="black" stroke="none" />
<path d="M562.3238395000001,494.29720144000004 A62.584206325859085,62.584206325859085,0,0,1,542.8661815521718,545.5990499963974" stroke="grey" stroke-width="5" fill="none" />
<path d="M542.8661815521718,545.5990499963974 L62.32383950000002,66.29720144000004" stroke="grey" stroke-width="5" />
<circle cx="542.8661815521718" cy="545.5990499963974" r="2.5" fill="grey" stroke="none" />
<circle cx="562.3238395000001" cy="494.29720144000004" r="5" fill="black" stroke="none" />
<circle cx="562.3238395000001" cy="566.29720144" r="5" fill="black" stroke="none" />
<path d="M562.3238395000001,566.29720144 A90.99219685664099,90.99219685664099,0,0,0,581.5949191838183,540.2721870797188" stroke="grey" stroke-width="5" fill="none" />
<path d="M581.5949191838183,540.2721870797188 L134.32383950000002,66.29720144000004" stroke="grey" stroke-width="5" />
<circle cx="581.5949191838183" cy="540.2721870797188" r="2.5" fill="grey" stroke="none" />
<circle cx="562.3238395000001" cy="566.29720144" r="5" fill="black" stroke="none" />
<circle cx="634.3238395000001" cy="566.29720144" r="5" fill="black" stroke="none" />
<path d="M562.3238395000001,494.29720144000004 A62.584206325859085,62.584206325859085,0,0,1,562.4872342126214,496.5174087384972" stroke="grey" stroke-width="5" fill="none" />
<path d="M562.4872342126214,496.5174087384972 L102.32383950000002,-5.702798559999962" stroke="grey" stroke-width="5" />
<circle cx="562.4872342126214" cy="496.5174087384972" r="2.5" fill="grey" stroke="none" />
<circle cx="562.3238395000001" cy="494.29720144000004" r="5" fill="black" stroke="none" />
<circle cx="602.3238395000001" cy="494.29720144000004" r="5" fill="black" stroke="none" />
<path d="M634.3238395000001,566.29720144 A149.7939009999997,149.7939009999997,0,0,0,648.7568909707381,517.5954586617582" stroke="grey" stroke-width="5" fill="none" />
<path d="M648.7568909707381,517.5954586617582 L222.32383950000002,26.297201440000038" stroke="grey" stroke-width="5" />
<circle cx="648.7568909707381" cy="517.5954586617582" r="2.5" fill="grey" stroke="none" />
<circle cx="634.3238395000001" cy="566.29720144" r="5" fill="black" stroke="none" />
<circle cx="722.3238395000001" cy="526.29720144" r="5" fill="black" stroke="none" />
<path d="M602.3238395,494.29720144000004 A102.48263287717437,102.48263287717437,0,0,1,602.4551786699401,497.62799554209016" stroke="grey" stroke-width="5" fill="none" />
<path d="M602.4551786699401,497.62799554209016 L246.32383950000002,-5.702798559999962" stroke="grey" stroke-width="5" />
<circle cx="602.4551786699401" cy="497.62799554209016" r="2.5" fill="grey" stroke="none" />
<circle cx="602.3238395000001" cy="494.29720144000004" r="5" fill="black" stroke="none" />
<circle cx="746.3238395000001" cy="494.29720144000004" r="5" fill="black" stroke="none" />
<path d="M722.3238395000001,526.29720144 A223.87369745818222,223.87369745818222,0,0,0,723.8137236390896,494.8183473289956" stroke="grey" stroke-width="5" fill="none" />
<path d="M723.8137236390896,494.8183473289956 L246.32383950000002,-5.702798559999962" stroke="grey" stroke-width="5" />
<circle cx="723.8137236390896" cy="494.8183473289956" r="2.5" fill="grey" stroke="none" />
<circle cx="722.3238395000001" cy="526.29720144" r="5" fill="black" stroke="none" />
<circle cx="746.3238395000001" cy="494.29720144000004" r="5" fill="black" stroke="none" />
<path d="M482.3238395,646.29720144 A147.3611814529108,147.3611814529108,0,0,0,584.4594372912785,620.7556261697082" stroke="grey" stroke-width="5" fill="none" />
<path d="M584.4594372912785,620.7556261697082 L102.32383950000002,146.29720144000004" stroke="grey" stroke-width="5" />
<circle cx="584.4594372912785" cy="620.7556261697082" r="2.5" fill="grey" stroke="none" />
<circle cx="482.3238395" cy="646.29720144" r="5" fill="black" stroke="none" />
<circle cx="602.3238395000001" cy="646.29720144" r="5" fill="black" stroke="none" />
<path d="M602.3238395000001,646.29720144 A178.53021951254559,178.53021951254559,0,0,0,673.0517024834509,543.8878974977947" stroke="grey" stroke-width="5" fill="none" />
<path d="M673.0517024834509,543.8878974977947 L198.32383950000002,50.29720144000004" stroke="grey" stroke-width="5" />
<circle cx="673.0517024834509" cy="543.8878974977947" r="2.5" fill="grey" stroke="none" />
<circle cx="602.3238395000001" cy="646.29720144" r="5" fill="black" stroke="none" />
<circle cx="698.3238395000001" cy="550.29720144" r="5" fill="black" stroke="none" />
<path d="M698.3238395000001,550.29720144 A204.6024285943784,204.6024285943784,0,0,0,703.1859839391074,524.0335123819743" stroke="grey" stroke-width="5" fill="none" />
<path d="M703.1859839391074,524.0335123819743 L222.32383950000002,26.297201440000038" stroke="grey" stroke-width="5" />
<circle cx="703.1859839391074" cy="524.0335123819743" r="2.5" fill="grey" stroke="none" />
<circle cx="698.3238395000001" cy="550.29720144" r="5" fill="black" stroke="none" />
<circle cx="722.3238395000001" cy="526.29720144" r="5" fill="black" stroke="none" />
<path d="M722.3238395000001,526.29720144 A223.87369745818222,223.87369745818222,0,0,1,718.3555098393113,549.3994305272051" stroke="grey" stroke-width="5" fill="none" />
<path d="M718.3555098393113,549.3994305272051 L222.32383950000002,50.29720144000004" stroke="grey" stroke-width="5" />
<circle cx="718.3555098393113" cy="549.3994305272051" r="2.5" fill="grey" stroke="none" />
<circle cx="722.3238395000001" cy="526.29720144" r="5" fill="black" stroke="none" />
<circle cx="722.3238395000001" cy="550.29720144" r="5" fill="black" stroke="none" />
<path d="M722.3238395000001,550.29720144 A227.942313059067,227.942313059067,0,0,1,659.745749386242,662.6007184355151" stroke="grey" stroke-width="5" fill="none" />
<path d="M659.745749386242,662.6007184355151 L222.32383950000002,226.29720144000004" stroke="grey" stroke-width="5" />
<circle cx="659.745749386242" cy="662.6007184355151" r="2.5" fill="grey" stroke="none" />
<circle cx="722.3238395000001" cy="550.29720144" r="5" fill="black" stroke="none" />
<circle cx="722.3238395000001" cy="726.29720144" r="5" fill="black" stroke="none" />
<path d="M722.3238395000001,726.29720144 A317.23542202849563,317.23542202849563,0,0,0,758.558172607595,683.8096416606562" stroke="grey" stroke-width="5" fill="none" />
<path d="M758.558172607595,683.8096416606562 L318.3238395,226.29720144000004" stroke="grey" stroke-width="5" />
<circle cx="758.558172607595" cy="683.8096416606562" r="2.5" fill="grey" stroke="none" />
<circle cx="722.3238395000001" cy="726.29720144" r="5" fill="black" stroke="none" />
<circle cx="818.3238395000001" cy="726.29720144" r="5" fill="black" stroke="none" />
<path d="M722.3238395000001,726.29720144 A317.23542202849563,317.23542202849563,0,0,1,699.7525006593756,746.4492878259621" stroke="grey" stroke-width="5" fill="none" />
<path d="M699.7525006593756,746.4492878259621 L222.32383950000002,274.29720144000004" stroke="grey" stroke-width="5" />
<circle cx="699.7525006593756" cy="746.4492878259621" r="2.5" fill="grey" stroke="none" />
<circle cx="722.3238395000001" cy="726.29720144" r="5" fill="black" stroke="none" />
<circle cx="722.3238395000001" cy="774.29720144" r="5" fill="black" stroke="none" />
<path d="M410.3238395,350.2972014400001 A174.50713927721606,174.50713927721606,0,0,1,598.4729354274378,355.9311878058914" stroke="grey" stroke-width="5" fill="none" />
<path d="M598.4729354274378,355.9311878058914 L102.32383950000002,-149.70279855999996" stroke="grey" stroke-width="5" />
<circle cx="598.4729354274378" cy="355.9311878058914" r="2.5" fill="grey" stroke="none" />
<circle cx="410.3238395" cy="350.29720144000004" r="5" fill="black" stroke="none" />
<circle cx="602.3238395000001" cy="350.29720144000004" r="5" fill="black" stroke="none" />
<path d="M602.3238395000001,350.29720144000004 L557.8301021468031,415.3928529784391" stroke="grey" stroke-width="5" />
<circle cx="557.8301021468031" cy="415.3928529784391" r="2.5" fill="grey" stroke="none" />
<path d="M557.8301021468031,415.3928529784391 A102.48263287717437,102.48263287717437,0,0,1,602.3238395,494.29720144000004" stroke="grey" stroke-width="5" fill="none" />
<circle cx="602.3238395000001" cy="350.29720144000004" r="5" fill="black" stroke="none" />
<circle cx="602.3238395000001" cy="494.29720144000004" r="5" fill="black" stroke="none" />
<path d="M602.3238395000001,350.29720144000004 A181.33145349529875,181.33145349529875,0,0,0,573.7863809480639,334.35982971119324" stroke="grey" stroke-width="5" fill="none" />
<path d="M573.7863809480639,334.35982971119324 L102.32383950000002,-229.70279855999996" stroke="grey" stroke-width="5" />
<circle cx="573.7863809480639" cy="334.35982971119324" r="2.5" fill="grey" stroke="none" />
<circle cx="602.3238395000001" cy="350.29720144000004" r="5" fill="black" stroke="none" />
<circle cx="602.3238395000001" cy="270.29720144000004" r="5" fill="black" stroke="none" />
<path d="M602.3238395,270.29720144000004 A251.46280797827276,251.46280797827276,0,0,0,584.7870642653518,263.26238674519675" stroke="grey" stroke-width="5" fill="none" />
<path d="M584.7870642653518,263.26238674519675 L102.32383950000002,-285.70279855999996" stroke="grey" stroke-width="5" />
<circle cx="584.7870642653518" cy="263.26238674519675" r="2.5" fill="grey" stroke="none" />
<circle cx="602.3238395000001" cy="270.29720144000004" r="5" fill="black" stroke="none" />
<circle cx="602.3238395000001" cy="214.29720144000004" r="5" fill="black" stroke="none" />
<path d="M602.3238395000001,270.29720144000004 L597.3272436305745,281.5138647326277" stroke="grey" stroke-width="5" />
<circle cx="597.3272436305745" cy="281.5138647326277" r="2.5" fill="grey" stroke="none" />
<path d="M597.3272436305745,281.5138647326277 A239.1835773141578,239.1835773141578,0,0,1,698.3238395,366.29720144" stroke="grey" stroke-width="5" fill="none" />
<circle cx="602.3238395000001" cy="270.29720144000004" r="5" fill="black" stroke="none" />
<circle cx="698.3238395000001" cy="366.29720144000004" r="5" fill="black" stroke="none" />
<path d="M602.3238395000001,350.29720144000004 A181.33145349529875,181.33145349529875,0,0,1,650.354595759174,398.6363400383892" stroke="grey" stroke-width="5" fill="none" />
<path d="M650.354595759174,398.6363400383892 L198.32383950000002,-133.70279855999996" stroke="grey" stroke-width="5" />
<circle cx="650.354595759174" cy="398.6363400383892" r="2.5" fill="grey" stroke="none" />
<circle cx="602.3238395000001" cy="350.29720144000004" r="5" fill="black" stroke="none" />
<circle cx="698.3238395000001" cy="366.29720144000004" r="5" fill="black" stroke="none" />
<path d="M698.3238395,366.29720144 A239.1835773141578,239.1835773141578,0,0,1,732.0151259171954,441.88145732706585" stroke="grey" stroke-width="5" fill="none" />
<path d="M732.0151259171954,441.88145732706585 L246.32383950000002,-61.70279855999996" stroke="grey" stroke-width="5" />
<circle cx="732.0151259171954" cy="441.88145732706585" r="2.5" fill="grey" stroke="none" />
<circle cx="698.3238395000001" cy="366.29720144000004" r="5" fill="black" stroke="none" />
<circle cx="746.3238395000001" cy="438.29720144000004" r="5" fill="black" stroke="none" />
<path d="M698.3238395000001,550.29720144 A204.6024285943784,204.6024285943784,0,0,0,699.5592520127644,545.1470787850519" stroke="grey" stroke-width="5" fill="none" />
<path d="M699.5592520127644,545.1470787850519 L222.32383950000002,50.29720144000004" stroke="grey" stroke-width="5" />
<circle cx="699.5592520127644" cy="545.1470787850519" r="2.5" fill="grey" stroke="none" />
<circle cx="698.3238395000001" cy="550.29720144" r="5" fill="black" stroke="none" />
<circle cx="722.3238395000001" cy="550.29720144" r="5" fill="black" stroke="none" />
<path d="M722.3238395000001,550.29720144 A227.942313059067,227.942313059067,0,0,0,723.334000744764,545.6028748441968" stroke="grey" stroke-width="5" fill="none" />
<path d="M723.334000744764,545.6028748441968 L246.32383950000002,50.29720144000004" stroke="grey" stroke-width="5" />
<circle cx="723.334000744764" cy="545.6028748441968" r="2.5" fill="grey" stroke="none" />
<circle cx="722.3238395000001" cy="550.29720144" r="5" fill="black" stroke="none" />
<circle cx="746.3238395000001" cy="550.29720144" r="5" fill="black" stroke="none" />
<path d="M746.3238395000001,550.29720144 L741.408578919834,549.2935476644153" stroke="grey" stroke-width="5" />
<circle cx="741.408578919834" cy="549.2935476644153" r="2.5" fill="grey" stroke="none" />
<path d="M741.408578919834,549.2935476644153 A246.3898451995084,246.3898451995084,0,0,0,746.3238395000001,494.29720144000004" stroke="grey" stroke-width="5" fill="none" />
<circle cx="746.3238395000001" cy="550.29720144" r="5" fill="black" stroke="none" />
<circle cx="746.3238395000001" cy="494.29720144000004" r="5" fill="black" stroke="none" />
<path d="M746.3238395000001,494.29720144000004 A246.3898451995084,246.3898451995084,0,0,0,745.4390393559671,478.3751583252564" stroke="grey" stroke-width="5" fill="none" />
<path d="M745.4390393559671,478.3751583252564 L246.32383950000002,-21.702798559999962" stroke="grey" stroke-width="5" />
<circle cx="745.4390393559671" cy="478.3751583252564" r="2.5" fill="grey" stroke="none" />
<circle cx="746.3238395000001" cy="494.29720144000004" r="5" fill="black" stroke="none" />
<circle cx="746.3238395000001" cy="478.29720144000004" r="5" fill="black" stroke="none" />
<path d="M746.3238395000001,478.29720144000004 A247.27807296919335,247.27807296919335,0,0,0,744.4313863275248,462.58686394644235" stroke="grey" stroke-width="5" fill="none" />
<path d="M744.4313863275248,462.58686394644235 L246.32383950000002,-37.70279855999996" stroke="grey" stroke-width="5" />
<circle cx="744.4313863275248" cy="462.58686394644235" r="2.5" fill="grey" stroke="none" />
<circle cx="746.3238395000001" cy="478.29720144000004" r="5" fill="black" stroke="none" />
<circle cx="746.3238395000001" cy="462.29720144000004" r="5" fill="black" stroke="none" />
<path d="M746.3238395,462.29720144000004 A249.19256595106864,249.19256595106864,0,0,0,741.7241401604538,439.4494014152874" stroke="grey" stroke-width="5" fill="none" />
<path d="M741.7241401604538,439.4494014152874 L246.32383950000002,-61.70279855999996" stroke="grey" stroke-width="5" />
<circle cx="741.7241401604538" cy="439.4494014152874" r="2.5" fill="grey" stroke="none" />
<circle cx="746.3238395000001" cy="462.29720144000004" r="5" fill="black" stroke="none" />
<circle cx="746.3238395000001" cy="438.29720144000004" r="5" fill="black" stroke="none" />
<path d="M746.3238395,438.29720144000004 A253.9343798231301,253.9343798231301,0,0,1,748.5316223667605,447.8971983488065" stroke="grey" stroke-width="5" fill="none" />
<path d="M748.5316223667605,447.8971983488065 L294.3238395,-61.70279855999996" stroke="grey" stroke-width="5" />
<circle cx="748.5316223667605" cy="447.8971983488065" r="2.5" fill="grey" stroke="none" />
<circle cx="746.3238395000001" cy="438.29720144000004" r="5" fill="black" stroke="none" />
<circle cx="794.3238395000001" cy="438.29720144000004" r="5" fill="black" stroke="none" />
<path d="M794.3238395000001,438.29720144000004 L788.8438205759919,439.446046550024" stroke="grey" stroke-width="5" />
<circle cx="788.8438205759919" cy="439.446046550024" r="2.5" fill="grey" stroke="none" />
<path d="M788.8438205759919,439.446046550024 A295.122913314703,295.122913314703,0,0,1,794.3238395000001,478.29720144000004" stroke="grey" stroke-width="5" fill="none" />
<circle cx="794.3238395000001" cy="438.29720144000004" r="5" fill="black" stroke="none" />
<circle cx="794.3238395000001" cy="478.29720144000004" r="5" fill="black" stroke="none" />
<path d="M794.3238395000001,478.29720144000004 L746.6085436844604,481.8156233764449" stroke="grey" stroke-width="5" />
<circle cx="746.6085436844604" cy="481.8156233764449" r="2.5" fill="grey" stroke="none" />
<path d="M746.6085436844604,481.8156233764449 A247.27807296919335,247.27807296919335,0,0,0,746.3238395000001,478.29720144000004" stroke="grey" stroke-width="5" fill="none" />
<circle cx="794.3238395000001" cy="478.29720144000004" r="5" fill="black" stroke="none" />
<circle cx="746.3238395000001" cy="478.29720144000004" r="5" fill="black" stroke="none" />
<path d="M746.3238395,462.29720144000004 A249.19256595106864,249.19256595106864,0,0,1,747.5457958240165,471.3990577929328" stroke="grey" stroke-width="5" fill="none" />
<path d="M747.5457958240165,471.3990577929328 L326.3238395,-37.70279855999996" stroke="grey" stroke-width="5" />
<circle cx="747.5457958240165" cy="471.3990577929328" r="2.5" fill="grey" stroke="none" />
<circle cx="746.3238395000001" cy="462.29720144000004" r="5" fill="black" stroke="none" />
<circle cx="826.3238395000001" cy="462.29720144000004" r="5" fill="black" stroke="none" />
<circle cx="500" cy="500" r="5" fill="red" stroke="none" />
</svg>