<?xml version="1.0" encoding="UTF-8"?>
<svg xmlns="http://www.w3.org/2000/svg" xmlns:xlink="http://www.w3.org/1999/xlink"
     width="1000" height="1000" viewBox="0 0 1000 1000">
<defs>
</defs>
<rect x="0" y="0" width="1000" height="1000" fill="white" />
<path d="M168.22955950000005,310.81888784 L200.64075568492495,329.3002996603518" stroke="grey" stroke-width="5" />
<circle cx="200.64075568492495" cy="329.3002996603518" r="2.5" fill="grey" stroke="none" />
<path d="M200.64075568492495,329.3002996603518 A344.6075229198261,344.6075229198261,0,0,0,168.2295595000001,406.8188878399999" stroke="grey" stroke-width="5" fill="none" />
<circle cx="168.22955950000005" cy="310.81888784" r="5" fill="black" stroke="none" />
<circle cx="168.22955950000005" cy="406.81888784" r="5" fill="black" stroke="none" />
<path d="M168.22955950000005,406.81888784 L239.73100352179745,426.9007976839153" stroke="grey" stroke-width="5" />
<circle cx="239.73100352179745" cy="426.9007976839153" r="2.5" fill="grey" stroke="none" />
<path d="M239.73100352179745,426.9007976839152 A270.3394974971628,270.3394974971628,0,0,0,232.2295595000001,462.81888784" stroke="grey" stroke-width="5" fill="none" />
<circle cx="168.22955950000005" cy="406.81888784" r="5" fill="black" stroke="none" />
<circle cx="232.22955950000005" cy="462.81888784" r="5" fill="black" stroke="none" />
<path d="M144.22955950000005,462.81888784 L231.1248517741089,471.90020331882096" stroke="grey" stroke-width="5" />
<circle cx="231.1248517741089" cy="471.90020331882096" r="2.5" fill="grey" stroke="none" />
<path d="M231.1248517741089,471.90020331882096 A270.3394974971628,270.3394974971628,0,0,1,232.2295595000001,462.81888784" stroke="grey" stroke-width="5" fill="none" />
<circle cx="144.22955950000005" cy="462.81888784" r="5" fill="black" stroke="none" />
<circle cx="232.22955950000005" cy="462.81888784" r="5" fill="black" stroke="none" />
<path d="M232.22955950000005,462.81888784 L306.02208474444853,473.0653069464565" stroke="grey" stroke-width="5" />
<circle cx="306.02208474444853" cy="473.0653069464565" r="2.5" fill="grey" stroke="none" />
<path d="M306.02208474444853,473.0653069464565 A195.83898819381835,195.83898819381835,0,0,0,304.22955950000005,494.81888784" stroke="grey" stroke-width="5" fill="none" />
<circle cx="232.22955950000005" cy="462.81888784" r="5" fill="black" stroke="none" />
<circle cx="304.22955950000005" cy="494.81888784" r="5" fill="black" stroke="none" />
<path d="M304.22955950000005,494.81888784 L319.9673415105079,495.2353920555385" stroke="grey" stroke-width="5" />
<circle cx="319.9673415105079" cy="495.2353920555385" r="2.5" fill="grey" stroke="none" />
<path d="M319.9673415105079,495.2353920555385 A180.09569570552907,180.09569570552907,0,0,0,320.22955950000005,510.81888784000006" stroke="grey" stroke-width="5" fill="none" />
<circle cx="304.22955950000005" cy="494.81888784" r="5" fill="black" stroke="none" />
<circle cx="320.22955950000005" cy="510.81888784" r="5" fill="black" stroke="none" />
<path d="M320.22955950000005,510.81888784 L346.4287059145152,509.2421790898071" stroke="grey" stroke-width="5" />
<circle cx="346.4287059145152" cy="509.2421790898071" r="2.5" fill="grey" stroke="none" />
<path d="M346.4287059145152,509.24217908980717 A153.84914767855727,153.84914767855727,0,0,0,352.22955950000005,542.81888784" stroke="grey" stroke-width="5" fill="none" />
<circle cx="320.22955950000005" cy="510.81888784" r="5" fill="black" stroke="none" />
<circle cx="352.22955950000005" cy="542.81888784" r="5" fill="black" stroke="none" />
<path d="M320.22955950000005,510.81888784000006 A180.09569570552907,180.09569570552907,0,0,0,339.18206349113734,581.0681867855076" stroke="grey" stroke-width="5" fill="none" />
<path d="M339.18206349113734,581.0681867855076 L272.22955950000005,614.81888784" stroke="grey" stroke-width="5" />
<circle cx="339.18206349113734" cy="581.0681867855076" r="2.5" fill="grey" stroke="none" />
<circle cx="320.22955950000005" cy="510.81888784" r="5" fill="black" stroke="none" />
<circle cx="272.22955950000005" cy="614.81888784" r="5" fill="black" stroke="none" />
<path d="M272.22955950000005,614.81888784 A255.07400998607937,255.07400998607937,0,0,0,306.1598433274914,665.7972986256285" stroke="grey" stroke-width="5" fill="none" />
<path d="M306.15984332749144,665.7972986256286 L272.22955950000005,694.81888784" stroke="grey" stroke-width="5" />
<circle cx="306.15984332749144" cy="665.7972986256286" r="2.5" fill="grey" stroke="none" />
<circle cx="272.22955950000005" cy="614.81888784" r="5" fill="black" stroke="none" />
<circle cx="272.22955950000005" cy="694.81888784" r="5" fill="black" stroke="none" />
<path d="M168.22955950000005,710.81888784 L247.02916231745382,660.7467819490313" stroke="grey" stroke-width="5" />
<circle cx="247.02916231745382" cy="660.7467819490313" r="2.5" fill="grey" stroke="none" />
<path d="M247.02916231745382,660.7467819490313 A299.722826332561,299.722826332561,0,0,0,272.22955949999994,694.8188878399999" stroke="grey" stroke-width="5" fill="none" />
<circle cx="168.22955950000005" cy="710.81888784" r="5" fill="black" stroke="none" />
<circle cx="272.22955950000005" cy="694.81888784" r="5" fill="black" stroke="none" />
<path d="M272.22955949999994,694.8188878399999 A299.722826332561,299.722826332561,0,0,0,324.3117775759051,742.8320842191993" stroke="grey" stroke-width="5" fill="none" />
<path d="M324.3117775759051,742.8320842191993 L272.22955950000005,814.81888784" stroke="grey" stroke-width="5" />
<circle cx="324.3117775759051" cy="742.8320842191993" r="2.5" fill="grey" stroke="none" />
<circle cx="272.22955950000005" cy="694.81888784" r="5" fill="black" stroke="none" />
<circle cx="272.22955950000005" cy="814.81888784" r="5" fill="black" stroke="none" />
<path d="M272.22955950000005,614.81888784 L332.89632580233285,584.2368218774809" stroke="grey" stroke-width="5" />
<circle cx="332.89632580233285" cy="584.2368218774809" r="2.5" fill="grey" stroke="none" />
<path d="M332.89632580233285,584.2368218774809 A187.13492482799282,187.13492482799282,0,0,0,352.22955950000005,614.81888784" stroke="grey" stroke-width="5" fill="none" />
<circle cx="272.22955950000005" cy="614.81888784" r="5" fill="black" stroke="none" />
<circle cx="352.22955950000005" cy="614.81888784" r="5" fill="black" stroke="none" />
<path d="M352.22955950000005,542.81888784 A153.84914767855727,153.84914767855727,0,0,0,378.51355729612476,594.3959982233175" stroke="grey" stroke-width="5" fill="none" />
<path d="M378.51355729612476,594.3959982233175 L352.22955950000005,614.81888784" stroke="grey" stroke-width="5" />
<circle cx="378.51355729612476" cy="594.3959982233175" r="2.5" fill="grey" stroke="none" />
<circle cx="352.22955950000005" cy="542.81888784" r="5" fill="black" stroke="none" />
<circle cx="352.22955950000005" cy="614.81888784" r="5" fill="black" stroke="none" />
<path d="M352.22955950000005,614.81888784 L391.3711083349649,584.4055718184801" stroke="grey" stroke-width="5" />
<circle cx="391.3711083349649" cy="584.4055718184801" r="2.5" fill="grey" stroke="none" />
<path d="M391.3711083349649,584.4055718184801 A137.56648086790085,137.56648086790085,0,0,0,424.22955950000005,614.81888784" stroke="grey" stroke-width="5" fill="none" />
<circle cx="352.22955950000005" cy="614.81888784" r="5" fill="black" stroke="none" />
<circle cx="424.22955950000005" cy="614.81888784" r="5" fill="black" stroke="none" />
<path d="M352.22955950000005,542.81888784 L388.61669185325155,532.2751245962739" stroke="grey" stroke-width="5" />
<circle cx="388.61669185325155" cy="532.2751245962739" r="2.5" fill="grey" stroke="none" />
<path d="M388.6166918532515,532.2751245962739 A115.96518874825553,115.96518874825553,0,0,0,392.22955950000005,542.81888784" stroke="grey" stroke-width="5" fill="none" />
<circle cx="352.22955950000005" cy="542.81888784" r="5" fill="black" stroke="none" />
<circle cx="392.22955950000005" cy="542.81888784" r="5" fill="black" stroke="none" />
<path d="M424.22955950000005,614.81888784 L458.2435126123999,563.2757762830906" stroke="grey" stroke-width="5" />
<circle cx="458.2435126123999" cy="563.2757762830906" r="2.5" fill="grey" stroke="none" />
<path d="M458.2435126123999,563.2757762830906 A75.81179395831853,75.81179395831853,0,0,0,512.2295595,574.81888784" stroke="grey" stroke-width="5" fill="none" />
<circle cx="424.22955950000005" cy="614.81888784" r="5" fill="black" stroke="none" />
<circle cx="512.2295595" cy="574.81888784" r="5" fill="black" stroke="none" />
<path d="M392.22955950000005,542.81888784 L447.8740467372564,520.7104595281904" stroke="grey" stroke-width="5" />
<circle cx="447.8740467372564" cy="520.7104595281904" r="2.5" fill="grey" stroke="none" />
<path d="M447.8740467372564,520.7104595281904 A56.08955461954163,56.08955461954163,0,0,0,536.2295595,542.81888784" stroke="grey" stroke-width="5" fill="none" />
<circle cx="392.22955950000005" cy="542.81888784" r="5" fill="black" stroke="none" />
<circle cx="536.2295595" cy="542.81888784" r="5" fill="black" stroke="none" />
<path d="M512.2295595,574.81888784 L509.0480716750394,555.3549504234436" stroke="grey" stroke-width="5" />
<circle cx="509.0480716750394" cy="555.3549504234436" r="2.5" fill="grey" stroke="none" />
<path d="M509.0480716750394,555.3549504234436 A56.08955461954163,56.08955461954163,0,0,0,536.2295595,542.81888784" stroke="grey" stroke-width="5" fill="none" />
<circle cx="512.2295595" cy="574.81888784" r="5" fill="black" stroke="none" />
<circle cx="536.2295595" cy="542.81888784" r="5" fill="black" stroke="none" />
<path d="M272.22955950000005,694.81888784 L330.8071374773791,644.715728848595" stroke="grey" stroke-width="5" />
<circle cx="330.8071374773791" cy="644.715728848595" r="2.5" fill="grey" stroke="none" />
<path d="M330.80713747737906,644.7157288485948 A222.64066767951118,222.64066767951118,0,0,0,392.22955950000005,694.81888784" stroke="grey" stroke-width="5" fill="none" />
<circle cx="272.22955950000005" cy="694.81888784" r="5" fill="black" stroke="none" />
<circle cx="392.22955950000005" cy="694.81888784" r="5" fill="black" stroke="none" />
<path d="M392.22955950000005,694.81888784 L451.8280476323833,587.081449623847" stroke="grey" stroke-width="5" />
<circle cx="451.8280476323833" cy="587.081449623847" r="2.5" fill="grey" stroke="none" />
<path d="M451.8280476323833,587.081449623847 A99.51741487548065,99.51741487548065,0,0,0,488.22955950000005,598.81888784" stroke="grey" stroke-width="5" fill="none" />
<circle cx="392.22955950000005" cy="694.81888784" r="5" fill="black" stroke="none" />
<circle cx="488.22955950000005" cy="598.81888784" r="5" fill="black" stroke="none" />
<path d="M488.22955950000005,598.81888784 L491.033346162567,575.2796600825096" stroke="grey" stroke-width="5" />
<circle cx="491.033346162567" cy="575.2796600825096" r="2.5" fill="grey" stroke="none" />
<path d="M491.033346162567,575.2796600825096 A75.81179395831853,75.81179395831853,0,0,0,512.2295595,574.81888784" stroke="grey" stroke-width="5" fill="none" />
<circle cx="488.22955950000005" cy="598.81888784" r="5" fill="black" stroke="none" />
<circle cx="512.2295595" cy="574.81888784" r="5" fill="black" stroke="none" />
<path d="M512.2295595,574.81888784 A75.81179395831853,75.81179395831853,0,0,1,509.3112296610305,575.2378169897166" stroke="grey" stroke-width="5" fill="none" />
<path d="M509.3112296610305,575.2378169897166 L512.2295595,598.81888784" stroke="grey" stroke-width="5" />
<circle cx="509.3112296610305" cy="575.2378169897166" r="2.5" fill="grey" stroke="none" />
<circle cx="512.2295595" cy="574.81888784" r="5" fill="black" stroke="none" />
<circle cx="512.2295595" cy="598.81888784" r="5" fill="black" stroke="none" />
<path d="M512.2295595,598.81888784 A99.57276093138395,99.57276093138395,0,0,1,504.42665011999924,599.4743157212637" stroke="grey" stroke-width="5" fill="none" />
<path d="M504.42665011999924,599.4743157212637 L512.2295595,774.81888784" stroke="grey" stroke-width="5" />
<circle cx="504.42665011999924" cy="599.4743157212637" r="2.5" fill="grey" stroke="none" />
<circle cx="512.2295595" cy="598.81888784" r="5" fill="black" stroke="none" />
<circle cx="512.2295595" cy="774.81888784" r="5" fill="black" stroke="none" />
<path d="M512.2295595,774.81888784 A275.090863605425,275.090863605425,0,0,0,600.8014019158188,755.9571460439894" stroke="grey" stroke-width="5" fill="none" />
<path d="M600.8014019158188,755.9571460439894 L608.2295595,774.81888784" stroke="grey" stroke-width="5" />
<circle cx="600.8014019158188" cy="755.9571460439894" r="2.5" fill="grey" stroke="none" />
<circle cx="512.2295595" cy="774.81888784" r="5" fill="black" stroke="none" />
<circle cx="608.2295595" cy="774.81888784" r="5" fill="black" stroke="none" />
<path d="M512.2295595,774.81888784 A275.090863605425,275.090863605425,0,0,1,510.4139772359449,774.8936745676549" stroke="grey" stroke-width="5" fill="none" />
<path d="M510.41397723594486,774.8936745676549 L512.2295595,822.81888784" stroke="grey" stroke-width="5" />
<circle cx="510.41397723594486" cy="774.8936745676549" r="2.5" fill="grey" stroke="none" />
<circle cx="512.2295595" cy="774.81888784" r="5" fill="black" stroke="none" />
<circle cx="512.2295595" cy="822.81888784" r="5" fill="black" stroke="none" />
<path d="M200.22955950000005,398.81888784 L359.93863545518184,452.7252766761975" stroke="grey" stroke-width="5" />
<circle cx="359.93863545518184" cy="452.7252766761975" r="2.5" fill="grey" stroke="none" />
<path d="M359.93863545518184,452.7252766761975 A147.82450846696068,147.82450846696068,0,0,1,392.22955950000005,398.81888784" stroke="grey" stroke-width="5" fill="none" />
<circle cx="200.22955950000005" cy="398.81888784" r="5" fill="black" stroke="none" />
<circle cx="392.22955950000005" cy="398.81888784" r="5" fill="black" stroke="none" />
<path d="M392.22955950000005,398.81888784 L415.45637727008983,420.62556546896764" stroke="grey" stroke-width="5" />
<circle cx="415.45637727008983" cy="420.62556546896764" r="2.5" fill="grey" stroke="none" />
<path d="M415.45637727008983,420.62556546896764 A115.96518874825553,115.96518874825553,0,0,0,392.22955950000005,542.81888784" stroke="grey" stroke-width="5" fill="none" />
<circle cx="392.22955950000005" cy="398.81888784" r="5" fill="black" stroke="none" />
<circle cx="392.22955950000005" cy="542.81888784" r="5" fill="black" stroke="none" />
<path d="M392.22955950000005,398.81888784 A147.82450846696068,147.82450846696068,0,0,1,424.42922411170144,372.9522013762573" stroke="grey" stroke-width="5" fill="none" />
<path d="M424.42922411170144,372.9522013762573 L392.22955950000005,318.81888784" stroke="grey" stroke-width="5" />
<circle cx="424.42922411170144" cy="372.9522013762573" r="2.5" fill="grey" stroke="none" />
<circle cx="392.22955950000005" cy="398.81888784" r="5" fill="black" stroke="none" />
<circle cx="392.22955950000005" cy="318.81888784" r="5" fill="black" stroke="none" />
<path d="M392.2295595,318.81888784 A210.81049131648675,210.81049131648675,0,0,1,412.79225826333186,308.0732612940835" stroke="grey" stroke-width="5" fill="none" />
<path d="M412.79225826333186,308.0732612940836 L392.22955950000005,262.81888784" stroke="grey" stroke-width="5" />
<circle cx="412.79225826333186" cy="308.0732612940836" r="2.5" fill="grey" stroke="none" />
<circle cx="392.22955950000005" cy="318.81888784" r="5" fill="black" stroke="none" />
<circle cx="392.22955950000005" cy="262.81888784" r="5" fill="black" stroke="none" />
<path d="M392.22955950000005,318.81888784 L456.0399797492988,426.0954550928261" stroke="grey" stroke-width="5" />
<circle cx="456.0399797492988" cy="426.0954550928261" r="2.5" fill="grey" stroke="none" />
<path d="M456.0399797492988,426.0954550928261 A85.99049446525203,85.99049446525203,0,0,1,488.22955950000005,414.81888784" stroke="grey" stroke-width="5" fill="none" />
<circle cx="392.22955950000005" cy="318.81888784" r="5" fill="black" stroke="none" />
<circle cx="488.22955950000005" cy="414.81888784" r="5" fill="black" stroke="none" />
<path d="M392.22955950000005,398.81888784 L437.3092218371605,441.1422777223227" stroke="grey" stroke-width="5" />
<circle cx="437.3092218371605" cy="441.1422777223227" r="2.5" fill="grey" stroke="none" />
<path d="M437.3092218371605,441.1422777223227 A85.99049446525203,85.99049446525203,0,0,1,488.22955950000005,414.81888784" stroke="grey" stroke-width="5" fill="none" />
<circle cx="392.22955950000005" cy="398.81888784" r="5" fill="black" stroke="none" />
<circle cx="488.22955950000005" cy="414.81888784" r="5" fill="black" stroke="none" />
<path d="M488.22955950000005,414.81888784 L494.7228574565683,461.8100213941557" stroke="grey" stroke-width="5" />
<circle cx="494.7228574565683" cy="461.8100213941557" r="2.5" fill="grey" stroke="none" />
<path d="M494.7228574565683,461.8100213941557 A38.55285591676113,38.55285591676113,0,0,1,536.2295595,486.81888784" stroke="grey" stroke-width="5" fill="none" />
<circle cx="488.22955950000005" cy="414.81888784" r="5" fill="black" stroke="none" />
<circle cx="536.2295595" cy="486.81888784" r="5" fill="black" stroke="none" />
<path d="M488.22955950000005,598.81888784 A99.51741487548065,99.51741487548065,0,0,0,512.2227618790702,598.7639608133761" stroke="grey" stroke-width="5" fill="none" />
<path d="M512.2227618790702,598.7639608133761 L512.2295595,598.81888784" stroke="grey" stroke-width="5" />
<circle cx="512.2227618790702" cy="598.7639608133761" r="2.5" fill="grey" stroke="none" />
<circle cx="488.22955950000005" cy="598.81888784" r="5" fill="black" stroke="none" />
<circle cx="512.2295595" cy="598.81888784" r="5" fill="black" stroke="none" />
<path d="M512.2295595,598.81888784 A99.57276093138395,99.57276093138395,0,0,0,534.2750228473337,593.4877399893339" stroke="grey" stroke-width="5" fill="none" />
<path d="M534.2750228473337,593.4877399893339 L536.2295595,598.81888784" stroke="grey" stroke-width="5" />
<circle cx="534.2750228473337" cy="593.4877399893339" r="2.5" fill="grey" stroke="none" />
<circle cx="512.2295595" cy="598.81888784" r="5" fill="black" stroke="none" />
<circle cx="536.2295595" cy="598.81888784" r="5" fill="black" stroke="none" />
<path d="M536.2295595,598.81888784 L519.3071955432304,552.6618489769777" stroke="grey" stroke-width="5" />
<circle cx="519.3071955432304" cy="552.6618489769777" r="2.5" fill="grey" stroke="none" />
<path d="M519.3071955432304,552.6618489769777 A56.08955461954163,56.08955461954163,0,0,0,536.2295595,542.81888784" stroke="grey" stroke-width="5" fill="none" />
<circle cx="536.2295595" cy="598.81888784" r="5" fill="black" stroke="none" />
<circle cx="536.2295595" cy="542.81888784" r="5" fill="black" stroke="none" />
<path d="M536.2295595,542.81888784 L529.1155597998876,534.4110142843497" stroke="grey" stroke-width="5" />
<circle cx="529.1155597998876" cy="534.4110142843497" r="2.5" fill="grey" stroke="none" />
<path d="M529.1155597998876,534.4110142843497 A45.07586634262889,45.07586634262889,0,0,0,536.2295595,526.81888784" stroke="grey" stroke-width="5" fill="none" />
<circle cx="536.2295595" cy="542.81888784" r="5" fill="black" stroke="none" />
<circle cx="536.2295595" cy="526.81888784" r="5" fill="black" stroke="none" />
<path d="M536.2295595,526.81888784 L530.3899995580733,522.4961606172886" stroke="grey" stroke-width="5" />
<circle cx="530.3899995580733" cy="522.4961606172886" r="2.5" fill="grey" stroke="none" />
<path d="M530.3899995580733,522.4961606172886 A37.810439241809185,37.810439241809185,0,0,0,536.2295595,510.81888784" stroke="grey" stroke-width="5" fill="none" />
<circle cx="536.2295595" cy="526.81888784" r="5" fill="black" stroke="none" />
<circle cx="536.2295595" cy="510.81888784" r="5" fill="black" stroke="none" />
<path d="M536.2295595,510.81888784 A37.810439241809185,37.810439241809185,0,0,0,535.5318828049963,487.0727179967885" stroke="grey" stroke-width="5" fill="none" />
<path d="M535.5318828049963,487.0727179967885 L536.2295595,486.81888784" stroke="grey" stroke-width="5" />
<circle cx="535.5318828049963" cy="487.0727179967885" r="2.5" fill="grey" stroke="none" />
<circle cx="536.2295595" cy="510.81888784" r="5" fill="black" stroke="none" />
<circle cx="536.2295595" cy="486.81888784" r="5" fill="black" stroke="none" />
<path d="M536.2295595,486.81888784 A38.55285591676113,38.55285591676113,0,0,1,538.0892882670017,494.0393944391705" stroke="grey" stroke-width="5" fill="none" />
<path d="M538.0892882670017,494.0393944391705 L584.2295595,486.81888784" stroke="grey" stroke-width="5" />
<circle cx="538.0892882670017" cy="494.0393944391705" r="2.5" fill="grey" stroke="none" />
<circle cx="536.2295595" cy="486.81888784" r="5" fill="black" stroke="none" />
<circle cx="584.2295595" cy="486.81888784" r="5" fill="black" stroke="none" />
<path d="M584.2295595,486.81888784 A85.2546797034541,85.2546797034541,0,0,1,581.2362048017397,525.8657967352319" stroke="grey" stroke-width="5" fill="none" />
<path d="M581.2362048017397,525.8657967352319 L584.2295595,526.81888784" stroke="grey" stroke-width="5" />
<circle cx="581.2362048017397" cy="525.8657967352319" r="2.5" fill="grey" stroke="none" />
<circle cx="584.2295595" cy="486.81888784" r="5" fill="black" stroke="none" />
<circle cx="584.2295595" cy="526.81888784" r="5" fill="black" stroke="none" />
<path d="M584.2295595,526.81888784 L542.9512177227415,513.6757677178357" stroke="grey" stroke-width="5" />
<circle cx="542.9512177227415" cy="513.6757677178357" r="2.5" fill="grey" stroke="none" />
<path d="M542.9512177227415,513.6757677178357 A45.07586634262889,45.07586634262889,0,0,1,536.2295595,526.81888784" stroke="grey" stroke-width="5" fill="none" />
<circle cx="584.2295595" cy="526.81888784" r="5" fill="black" stroke="none" />
<circle cx="536.2295595" cy="526.81888784" r="5" fill="black" stroke="none" />
<path d="M536.2295595,510.81888784 A37.810439241809185,37.810439241809185,0,0,0,537.647696064095,503.5043254306737" stroke="grey" stroke-width="5" fill="none" />
<path d="M537.647696064095,503.5043254306737 L616.2295595,510.81888784" stroke="grey" stroke-width="5" />
<circle cx="537.647696064095" cy="503.5043254306737" r="2.5" fill="grey" stroke="none" />
<circle cx="536.2295595" cy="510.81888784" r="5" fill="black" stroke="none" />
<circle cx="616.2295595" cy="510.81888784" r="5" fill="black" stroke="none" />
<circle cx="500" cy="500" r="5" fill="red" stroke="none" />
</svg>