<?xml version="1.0" encoding="UTF-8"?>
<svg xmlns="http://www.w3.org/2000/svg" xmlns:xlink="http://www.w3.org/1999/xlink"
     width="1000" height="1000" viewBox="0 0 1000 1000">
<defs>
</defs>
<rect x="0" y="0" width="1000" height="1000" fill="white" />
<path d="M113.5413595,351.84563024 L135.87824402871735,360.4087899237179" stroke="grey" stroke-width="5" />
<circle cx="135.87824402871735" cy="360.4087899237179" r="2.5" fill="grey" stroke="none" />
<path d="M135.8782440287174,360.4087899237178 A389.9619969973626,389.9619969973626,0,0,0,113.54135950000006,447.84563024000005" stroke="grey" stroke-width="5" fill="none" />
<circle cx="113.5413595" cy="351.84563024" r="5" fill="black" stroke="none" />
<circle cx="113.5413595" cy="447.84563024" r="5" fill="black" stroke="none" />
<path d="M113.5413595,447.84563024 L180.4155519851741,456.8706098801517" stroke="grey" stroke-width="5" />
<circle cx="180.4155519851741" cy="456.8706098801517" r="2.5" fill="grey" stroke="none" />
<path d="M180.4155519851741,456.8706098801517 A322.4815711091892,322.4815711091892,0,0,0,177.5413595,503.84563024" stroke="grey" stroke-width="5" fill="none" />
<circle cx="113.5413595" cy="447.84563024" r="5" fill="black" stroke="none" />
<circle cx="177.5413595" cy="503.84563024" r="5" fill="black" stroke="none" />
<path d="M89.5413595,503.84563024 L177.53258169696494,503.02123121036084" stroke="grey" stroke-width="5" />
<circle cx="177.53258169696494" cy="503.02123121036084" r="2.5" fill="grey" stroke="none" />
<path d="M177.53258169696494,503.0212312103607 A322.4815711091892,322.4815711091892,0,0,0,177.5413595,503.84563024" stroke="grey" stroke-width="5" fill="none" />
<circle cx="89.5413595" cy="503.84563024" r="5" fill="black" stroke="none" />
<circle cx="177.5413595" cy="503.84563024" r="5" fill="black" stroke="none" />
<path d="M177.5413595,503.84563024 L247.00724038536552,503.0171826233792" stroke="grey" stroke-width="5" />
<circle cx="247.00724038536552" cy="503.0171826233792" r="2.5" fill="grey" stroke="none" />
<path d="M247.00724038536552,503.0171826233792 A253.0107503811074,253.0107503811074,0,0,0,249.5413595,535.84563024" stroke="grey" stroke-width="5" fill="none" />
<circle cx="177.5413595" cy="503.84563024" r="5" fill="black" stroke="none" />
<circle cx="249.5413595" cy="535.84563024" r="5" fill="black" stroke="none" />
<path d="M249.5413595,535.84563024 L262.2995891195467,534.019672946028" stroke="grey" stroke-width="5" />
<circle cx="262.2995891195467" cy="534.019672946028" r="2.5" fill="grey" stroke="none" />
<path d="M262.2995891195467,534.019672946028 A240.12251764482863,240.12251764482863,0,0,0,265.5413595,551.84563024" stroke="grey" stroke-width="5" fill="none" />
<circle cx="249.5413595" cy="535.84563024" r="5" fill="black" stroke="none" />
<circle cx="265.5413595" cy="551.84563024" r="5" fill="black" stroke="none" />
<path d="M265.5413595,551.84563024 L286.03507701275,547.3138727490277" stroke="grey" stroke-width="5" />
<circle cx="286.03507701275" cy="547.3138727490277" r="2.5" fill="grey" stroke="none" />
<path d="M286.03507701275,547.3138727490277 A219.13372817403314,219.13372817403314,0,0,0,297.5413595,583.84563024" stroke="grey" stroke-width="5" fill="none" />
<circle cx="265.5413595" cy="551.84563024" r="5" fill="black" stroke="none" />
<circle cx="297.5413595" cy="583.84563024" r="5" fill="black" stroke="none" />
<path d="M265.5413595,551.84563024 A240.12251764482863,240.12251764482863,0,0,0,289.7560908796389,616.001388603242" stroke="grey" stroke-width="5" fill="none" />
<path d="M289.7560908796389,616.001388603242 L217.5413595,655.84563024" stroke="grey" stroke-width="5" />
<circle cx="289.7560908796389" cy="616.001388603242" r="2.5" fill="grey" stroke="none" />
<circle cx="265.5413595" cy="551.84563024" r="5" fill="black" stroke="none" />
<circle cx="217.5413595" cy="655.84563024" r="5" fill="black" stroke="none" />
<path d="M217.5413595,655.84563024 A322.59997529139866,322.59997529139866,0,0,0,252.37176177629883,706.7631487771381" stroke="grey" stroke-width="5" fill="none" />
<path d="M252.37176177629883,706.7631487771381 L217.5413595,735.84563024" stroke="grey" stroke-width="5" />
<circle cx="252.37176177629883" cy="706.7631487771381" r="2.5" fill="grey" stroke="none" />
<circle cx="217.5413595" cy="655.84563024" r="5" fill="black" stroke="none" />
<circle cx="217.5413595" cy="735.84563024" r="5" fill="black" stroke="none" />
<path d="M113.5413595,751.84563024 L191.70944793386957,700.9054016276605" stroke="grey" stroke-width="5" />
<circle cx="191.70944793386957" cy="700.9054016276605" r="2.5" fill="grey" stroke="none" />
<path d="M191.70944793386957,700.9054016276605 A367.9756036701496,367.9756036701496,0,0,0,217.5413595,735.84563024" stroke="grey" stroke-width="5" fill="none" />
<circle cx="113.5413595" cy="751.84563024" r="5" fill="black" stroke="none" />
<circle cx="217.5413595" cy="735.84563024" r="5" fill="black" stroke="none" />
<path d="M217.5413595,735.84563024 A367.9756036701496,367.9756036701496,0,0,0,271.22446477449967,788.2148493376025" stroke="grey" stroke-width="5" fill="none" />
<path d="M271.22446477449967,788.2148493376025 L217.5413595,855.84563024" stroke="grey" stroke-width="5" />
<circle cx="271.22446477449967" cy="788.2148493376025" r="2.5" fill="grey" stroke="none" />
<circle cx="217.5413595" cy="735.84563024" r="5" fill="black" stroke="none" />
<circle cx="217.5413595" cy="855.84563024" r="5" fill="black" stroke="none" />
<path d="M217.5413595,655.84563024 L276.2969883352199,623.427404372442" stroke="grey" stroke-width="5" />
<circle cx="276.2969883352199" cy="623.427404372442" r="2.5" fill="grey" stroke="none" />
<path d="M276.2969883352199,623.427404372442 A255.49434744825774,255.49434744825774,0,0,0,297.5413595,655.84563024" stroke="grey" stroke-width="5" fill="none" />
<circle cx="217.5413595" cy="655.84563024" r="5" fill="black" stroke="none" />
<circle cx="297.5413595" cy="655.84563024" r="5" fill="black" stroke="none" />
<path d="M297.5413595,583.84563024 A219.13372817403314,219.13372817403314,0,0,0,326.3542143420761,633.6664952285852" stroke="grey" stroke-width="5" fill="none" />
<path d="M326.3542143420761,633.6664952285852 L297.5413595,655.84563024" stroke="grey" stroke-width="5" />
<circle cx="326.3542143420761" cy="633.6664952285852" r="2.5" fill="grey" stroke="none" />
<circle cx="297.5413595" cy="583.84563024" r="5" fill="black" stroke="none" />
<circle cx="297.5413595" cy="655.84563024" r="5" fill="black" stroke="none" />
<path d="M297.5413595,655.84563024 L338.94711252361617,623.9729195491108" stroke="grey" stroke-width="5" />
<circle cx="338.94711252361617" cy="623.9729195491108" r="2.5" fill="grey" stroke="none" />
<path d="M338.94711252361617,623.9729195491108 A203.24201668457002,203.24201668457002,0,0,0,369.5413595,655.84563024" stroke="grey" stroke-width="5" fill="none" />
<circle cx="297.5413595" cy="655.84563024" r="5" fill="black" stroke="none" />
<circle cx="369.5413595" cy="655.84563024" r="5" fill="black" stroke="none" />
<path d="M297.5413595,583.84563024 L331.0924156804462,569.9508937954611" stroke="grey" stroke-width="5" />
<circle cx="331.0924156804462" cy="569.9508937954611" r="2.5" fill="grey" stroke="none" />
<path d="M331.0924156804462,569.9508937954611 A182.81930856299354,182.81930856299354,0,0,0,337.5413595,583.84563024" stroke="grey" stroke-width="5" fill="none" />
<circle cx="297.5413595" cy="583.84563024" r="5" fill="black" stroke="none" />
<circle cx="337.5413595" cy="583.84563024" r="5" fill="black" stroke="none" />
<path d="M369.5413595,655.84563024 L420.8030039398466,594.6085726235159" stroke="grey" stroke-width="5" />
<circle cx="420.8030039398466" cy="594.6085726235159" r="2.5" fill="grey" stroke="none" />
<path d="M420.8030039398466,594.6085726235159 A123.38130408944072,123.38130408944072,0,0,0,457.5413595,615.84563024" stroke="grey" stroke-width="5" fill="none" />
<circle cx="369.5413595" cy="655.84563024" r="5" fill="black" stroke="none" />
<circle cx="457.5413595" cy="615.84563024" r="5" fill="black" stroke="none" />
<path d="M337.5413595,583.84563024 L423.7081065244484,539.374587100897" stroke="grey" stroke-width="5" />
<circle cx="423.7081065244484" cy="539.374587100897" r="2.5" fill="grey" stroke="none" />
<path d="M423.7081065244484,539.374587100897 A85.85342811705914,85.85342811705914,0,0,0,481.5413595,583.84563024" stroke="grey" stroke-width="5" fill="none" />
<circle cx="337.5413595" cy="583.84563024" r="5" fill="black" stroke="none" />
<circle cx="481.5413595" cy="583.84563024" r="5" fill="black" stroke="none" />
<path d="M457.5413595,615.84563024 L470.4556547929471,580.6098181720907" stroke="grey" stroke-width="5" />
<circle cx="470.4556547929471" cy="580.6098181720907" r="2.5" fill="grey" stroke="none" />
<path d="M470.4556547929471,580.6098181720907 A85.85342811705914,85.85342811705914,0,0,0,481.5413595,583.84563024" stroke="grey" stroke-width="5" fill="none" />
<circle cx="457.5413595" cy="615.84563024" r="5" fill="black" stroke="none" />
<circle cx="481.5413595" cy="583.84563024" r="5" fill="black" stroke="none" />
<path d="M217.5413595,735.84563024 L280.17096473234005,683.5515361681862" stroke="grey" stroke-width="5" />
<circle cx="280.17096473234005" cy="683.5515361681862" r="2.5" fill="grey" stroke="none" />
<path d="M280.17096473234005,683.5515361681862 A286.3843067914355,286.3843067914355,0,0,0,337.5413595,735.84563024" stroke="grey" stroke-width="5" fill="none" />
<circle cx="217.5413595" cy="735.84563024" r="5" fill="black" stroke="none" />
<circle cx="337.5413595" cy="735.84563024" r="5" fill="black" stroke="none" />
<path d="M337.5413595,735.84563024 L412.1665818867539,627.5101637395024" stroke="grey" stroke-width="5" />
<circle cx="412.1665818867539" cy="627.5101637395024" r="2.5" fill="grey" stroke="none" />
<path d="M412.1665818867539,627.5101637395024 A154.83394716382787,154.83394716382787,0,0,0,433.5413595,639.84563024" stroke="grey" stroke-width="5" fill="none" />
<circle cx="337.5413595" cy="735.84563024" r="5" fill="black" stroke="none" />
<circle cx="433.5413595" cy="639.84563024" r="5" fill="black" stroke="none" />
<path d="M433.5413595,639.84563024 L447.0416282533619,611.4376824092997" stroke="grey" stroke-width="5" />
<circle cx="447.0416282533619" cy="611.4376824092997" r="2.5" fill="grey" stroke="none" />
<path d="M447.0416282533619,611.4376824092997 A123.38130408944072,123.38130408944072,0,0,0,457.5413595,615.84563024" stroke="grey" stroke-width="5" fill="none" />
<circle cx="433.5413595" cy="639.84563024" r="5" fill="black" stroke="none" />
<circle cx="457.5413595" cy="615.84563024" r="5" fill="black" stroke="none" />
<path d="M457.5413595,615.84563024 A123.38130408944072,123.38130408944072,0,0,0,464.15574743306695,618.0598820799383" stroke="grey" stroke-width="5" fill="none" />
<path d="M464.1557474330669,618.0598820799383 L457.5413595,639.84563024" stroke="grey" stroke-width="5" />
<circle cx="464.1557474330669" cy="618.0598820799383" r="2.5" fill="grey" stroke="none" />
<circle cx="457.5413595" cy="615.84563024" r="5" fill="black" stroke="none" />
<circle cx="457.5413595" cy="639.84563024" r="5" fill="black" stroke="none" />
<path d="M457.5413595,639.84563024 A146.14902137999775,146.14902137999775,0,0,0,480.52855924012687,644.8461233346126" stroke="grey" stroke-width="5" fill="none" />
<path d="M480.5285592401268,644.8461233346126 L457.5413595,815.84563024" stroke="grey" stroke-width="5" />
<circle cx="480.5285592401268" cy="644.8461233346126" r="2.5" fill="grey" stroke="none" />
<circle cx="457.5413595" cy="639.84563024" r="5" fill="black" stroke="none" />
<circle cx="457.5413595" cy="815.84563024" r="5" fill="black" stroke="none" />
<path d="M457.5413595000001,815.84563024 A318.68667730987914,318.68667730987914,0,0,0,553.263097946188,814.2041385659741" stroke="grey" stroke-width="5" fill="none" />
<path d="M553.2630979461882,814.2041385659741 L553.5413595,815.84563024" stroke="grey" stroke-width="5" />
<circle cx="553.2630979461882" cy="814.2041385659741" r="2.5" fill="grey" stroke="none" />
<circle cx="457.5413595" cy="815.84563024" r="5" fill="black" stroke="none" />
<circle cx="553.5413595" cy="815.84563024" r="5" fill="black" stroke="none" />
<path d="M457.5413595000001,815.84563024 A318.68667730987914,318.68667730987914,0,0,0,463.06179596474436,816.5387296642559" stroke="grey" stroke-width="5" fill="none" />
<path d="M463.0617959647443,816.5387296642559 L457.5413595,863.84563024" stroke="grey" stroke-width="5" />
<circle cx="463.0617959647443" cy="816.5387296642559" r="2.5" fill="grey" stroke="none" />
<circle cx="457.5413595" cy="815.84563024" r="5" fill="black" stroke="none" />
<circle cx="457.5413595" cy="863.84563024" r="5" fill="black" stroke="none" />
<path d="M145.5413595,439.84563024 L329.2041963328078,471.014632587994" stroke="grey" stroke-width="5" />
<circle cx="329.2041963328078" cy="471.014632587994" r="2.5" fill="grey" stroke="none" />
<path d="M329.2041963328078,471.01463258799413 A173.2378655904391,173.2378655904391,0,0,1,337.5413595,439.84563024" stroke="grey" stroke-width="5" fill="none" />
<circle cx="145.5413595" cy="439.84563024" r="5" fill="black" stroke="none" />
<circle cx="337.5413595" cy="439.84563024" r="5" fill="black" stroke="none" />
<path d="M337.5413595,439.84563024 A173.2378655904391,173.2378655904391,0,0,0,346.055712888516,579.451334413388" stroke="grey" stroke-width="5" fill="none" />
<path d="M346.055712888516,579.451334413388 L337.5413595,583.84563024" stroke="grey" stroke-width="5" />
<circle cx="346.055712888516" cy="579.451334413388" r="2.5" fill="grey" stroke="none" />
<circle cx="337.5413595" cy="439.84563024" r="5" fill="black" stroke="none" />
<circle cx="337.5413595" cy="583.84563024" r="5" fill="black" stroke="none" />
<path d="M337.5413595,439.84563024 A173.2378655904391,173.2378655904391,0,0,1,368.8293779123231,386.83805420786155" stroke="grey" stroke-width="5" fill="none" />
<path d="M368.829377912323,386.83805420786155 L337.5413595,359.84563024" stroke="grey" stroke-width="5" />
<circle cx="368.829377912323" cy="386.83805420786155" r="2.5" fill="grey" stroke="none" />
<circle cx="337.5413595" cy="439.84563024" r="5" fill="black" stroke="none" />
<circle cx="337.5413595" cy="359.84563024" r="5" fill="black" stroke="none" />
<path d="M337.54135950000006,359.8456302399999 A214.5601482939715,214.5601482939715,0,0,1,363.1413935963027,334.75539618744307" stroke="grey" stroke-width="5" fill="none" />
<path d="M363.14139359630275,334.755396187443 L337.5413595,303.84563024" stroke="grey" stroke-width="5" />
<circle cx="363.14139359630275" cy="334.755396187443" r="2.5" fill="grey" stroke="none" />
<circle cx="337.5413595" cy="359.84563024" r="5" fill="black" stroke="none" />
<circle cx="337.5413595" cy="303.84563024" r="5" fill="black" stroke="none" />
<path d="M337.5413595,359.84563024 L439.58575875353034,447.8801504163298" stroke="grey" stroke-width="5" />
<circle cx="439.58575875353034" cy="447.8801504163298" r="2.5" fill="grey" stroke="none" />
<path d="M439.58575875353034,447.88015041632974 A79.78946839032733,79.78946839032733,0,0,0,433.5413595,455.84563024" stroke="grey" stroke-width="5" fill="none" />
<circle cx="337.5413595" cy="359.84563024" r="5" fill="black" stroke="none" />
<circle cx="433.5413595" cy="455.84563024" r="5" fill="black" stroke="none" />
<path d="M337.5413595,439.84563024 L425.17520048673646,472.294248903685" stroke="grey" stroke-width="5" />
<circle cx="425.17520048673646" cy="472.294248903685" r="2.5" fill="grey" stroke="none" />
<path d="M425.17520048673646,472.294248903685 A79.78946839032733,79.78946839032733,0,0,1,433.5413595,455.84563024" stroke="grey" stroke-width="5" fill="none" />
<circle cx="337.5413595" cy="439.84563024" r="5" fill="black" stroke="none" />
<circle cx="433.5413595" cy="455.84563024" r="5" fill="black" stroke="none" />
<path d="M433.5413595,455.84563024 L472.17356697918825,481.5124323419948" stroke="grey" stroke-width="5" />
<circle cx="472.17356697918825" cy="481.5124323419948" r="2.5" fill="grey" stroke="none" />
<path d="M472.17356697918825,481.5124323419948 A33.40809082499391,33.40809082499391,0,0,0,481.5413595,527.84563024" stroke="grey" stroke-width="5" fill="none" />
<circle cx="433.5413595" cy="455.84563024" r="5" fill="black" stroke="none" />
<circle cx="481.5413595" cy="527.84563024" r="5" fill="black" stroke="none" />
<path d="M433.5413595,639.84563024 L437.269148986798,632.0014271949" stroke="grey" stroke-width="5" />
<circle cx="437.269148986798" cy="632.0014271949" r="2.5" fill="grey" stroke="none" />
<path d="M437.269148986798,632.0014271949 A146.14902137999775,146.14902137999775,0,0,0,457.5413595,639.84563024" stroke="grey" stroke-width="5" fill="none" />
<circle cx="433.5413595" cy="639.84563024" r="5" fill="black" stroke="none" />
<circle cx="457.5413595" cy="639.84563024" r="5" fill="black" stroke="none" />
<path d="M457.5413595,639.84563024 L459.0202158887347,634.9747346747721" stroke="grey" stroke-width="5" />
<circle cx="459.0202158887347" cy="634.9747346747721" r="2.5" fill="grey" stroke="none" />
<path d="M459.02021588873475,634.9747346747721 A141.0585754441432,141.0585754441432,0,0,0,481.5413595,639.84563024" stroke="grey" stroke-width="5" fill="none" />
<circle cx="457.5413595" cy="639.84563024" r="5" fill="black" stroke="none" />
<circle cx="481.5413595" cy="639.84563024" r="5" fill="black" stroke="none" />
<path d="M481.5413595,639.84563024 L488.7653936648969,585.1151851313637" stroke="grey" stroke-width="5" />
<circle cx="488.7653936648969" cy="585.1151851313637" r="2.5" fill="grey" stroke="none" />
<path d="M488.7653936648969,585.1151851313637 A85.85342811705914,85.85342811705914,0,0,1,481.5413595,583.84563024" stroke="grey" stroke-width="5" fill="none" />
<circle cx="481.5413595" cy="639.84563024" r="5" fill="black" stroke="none" />
<circle cx="481.5413595" cy="583.84563024" r="5" fill="black" stroke="none" />
<path d="M481.5413595,583.84563024 L484.8828346754533,568.6674760299326" stroke="grey" stroke-width="5" />
<circle cx="484.8828346754533" cy="568.6674760299326" r="2.5" fill="grey" stroke="none" />
<path d="M484.8828346754533,568.6674760299326 A70.31181232034231,70.31181232034231,0,0,1,481.5413595,567.84563024" stroke="grey" stroke-width="5" fill="none" />
<circle cx="481.5413595" cy="583.84563024" r="5" fill="black" stroke="none" />
<circle cx="481.5413595" cy="567.84563024" r="5" fill="black" stroke="none" />
<path d="M481.5413595,567.84563024 L485.55229426975774,553.103244563994" stroke="grey" stroke-width="5" />
<circle cx="485.55229426975774" cy="553.103244563994" r="2.5" fill="grey" stroke="none" />
<path d="M485.55229426975774,553.103244563994 A55.033542354559025,55.033542354559025,0,0,1,481.5413595,551.84563024" stroke="grey" stroke-width="5" fill="none" />
<circle cx="481.5413595" cy="567.84563024" r="5" fill="black" stroke="none" />
<circle cx="481.5413595" cy="551.84563024" r="5" fill="black" stroke="none" />
<path d="M481.5413595,551.84563024 L488.79468934859824,531.472869995865" stroke="grey" stroke-width="5" />
<circle cx="488.79468934859824" cy="531.472869995865" r="2.5" fill="grey" stroke="none" />
<path d="M488.79468934859824,531.472869995865 A33.40809082499391,33.40809082499391,0,0,1,481.5413595,527.84563024" stroke="grey" stroke-width="5" fill="none" />
<circle cx="481.5413595" cy="551.84563024" r="5" fill="black" stroke="none" />
<circle cx="481.5413595" cy="527.84563024" r="5" fill="black" stroke="none" />
<path d="M481.5413595,527.84563024 A33.40809082499391,33.40809082499391,0,0,0,524.3105156550957,522.9150466103473" stroke="grey" stroke-width="5" fill="none" />
<path d="M524.3105156550957,522.9150466103473 L529.5413595,527.84563024" stroke="grey" stroke-width="5" />
<circle cx="524.3105156550957" cy="522.9150466103473" r="2.5" fill="grey" stroke="none" />
<circle cx="481.5413595" cy="527.84563024" r="5" fill="black" stroke="none" />
<circle cx="529.5413595" cy="527.84563024" r="5" fill="black" stroke="none" />
<path d="M529.5413595,527.84563024 A40.59644127963733,40.59644127963733,0,0,1,516.2068184852398,537.2210972320476" stroke="grey" stroke-width="5" fill="none" />
<path d="M516.2068184852398,537.2210972320476 L529.5413595,567.84563024" stroke="grey" stroke-width="5" />
<circle cx="516.2068184852398" cy="537.2210972320476" r="2.5" fill="grey" stroke="none" />
<circle cx="529.5413595" cy="527.84563024" r="5" fill="black" stroke="none" />
<circle cx="529.5413595" cy="567.84563024" r="5" fill="black" stroke="none" />
<path d="M529.5413595,567.84563024 L528.0697209835386,564.4658181959815" stroke="grey" stroke-width="5" />
<circle cx="528.0697209835386" cy="564.4658181959815" r="2.5" fill="grey" stroke="none" />
<path d="M528.0697209835387,564.4658181959815 A70.31181232034231,70.31181232034231,0,0,1,481.5413595,567.84563024" stroke="grey" stroke-width="5" fill="none" />
<circle cx="529.5413595" cy="567.84563024" r="5" fill="black" stroke="none" />
<circle cx="481.5413595" cy="567.84563024" r="5" fill="black" stroke="none" />
<path d="M481.5413595,551.84563024 A55.033542354559025,55.033542354559025,0,0,0,542.0885853175126,535.4576052499531" stroke="grey" stroke-width="5" fill="none" />
<path d="M542.0885853175126,535.4576052499531 L561.5413595,551.84563024" stroke="grey" stroke-width="5" />
<circle cx="542.0885853175126" cy="535.4576052499531" r="2.5" fill="grey" stroke="none" />
<circle cx="481.5413595" cy="551.84563024" r="5" fill="black" stroke="none" />
<circle cx="561.5413595" cy="551.84563024" r="5" fill="black" stroke="none" />
<circle cx="500" cy="500" r="5" fill="red" stroke="none" />
</svg>