<?xml version="1.0" encoding="UTF-8"?>
<svg xmlns="http://www.w3.org/2000/svg" xmlns:xlink="http://www.w3.org/1999/xlink"
     width="1000" height="1000" viewBox="0 0 1000 1000">
<defs>
</defs>
<rect x="0" y="0" width="1000" height="1000" fill="white" />
<path d="M232.51187950000002,267.21572624000004 L273.369804636391,302.77275364157845" stroke="grey" stroke-width="5" />
<circle cx="273.369804636391" cy="302.77275364157845" r="2.5" fill="grey" stroke="none" />
<path d="M273.369804636391,302.77275364157845 A300.4327414857993,300.4327414857993,0,0,0,232.51187949999996,363.21572624000015" stroke="grey" stroke-width="5" fill="none" />
<circle cx="232.51187950000002" cy="267.21572624000004" r="5" fill="black" stroke="none" />
<circle cx="232.51187950000002" cy="363.21572624000004" r="5" fill="black" stroke="none" />
<path d="M232.51187950000002,363.21572624000004 L305.0708123810571,400.31988219423044" stroke="grey" stroke-width="5" />
<circle cx="305.0708123810571" cy="400.31988219423044" r="2.5" fill="grey" stroke="none" />
<path d="M305.07081238105707,400.31988219423056 A218.93723774532538,218.93723774532538,0,0,0,296.5118795,419.21572624000004" stroke="grey" stroke-width="5" fill="none" />
<circle cx="232.51187950000002" cy="363.21572624000004" r="5" fill="black" stroke="none" />
<circle cx="296.5118795" cy="419.21572624000004" r="5" fill="black" stroke="none" />
<path d="M208.51187950000002,419.21572624000004 L289.01562070605354,441.52687997463056" stroke="grey" stroke-width="5" />
<circle cx="289.01562070605354" cy="441.52687997463056" r="2.5" fill="grey" stroke="none" />
<path d="M289.01562070605354,441.52687997463056 A218.93723774532538,218.93723774532538,0,0,1,296.5118795,419.21572624000004" stroke="grey" stroke-width="5" fill="none" />
<circle cx="208.51187950000002" cy="419.21572624000004" r="5" fill="black" stroke="none" />
<circle cx="296.5118795" cy="419.21572624000004" r="5" fill="black" stroke="none" />
<path d="M296.5118795,419.21572624000004 L369.6500374762004,448.2513916229898" stroke="grey" stroke-width="5" />
<circle cx="369.6500374762004" cy="448.2513916229898" r="2.5" fill="grey" stroke="none" />
<path d="M369.6500374762004,448.2513916229898 A140.24632329909093,140.24632329909093,0,0,0,368.5118795,451.21572624000004" stroke="grey" stroke-width="5" fill="none" />
<circle cx="296.5118795" cy="419.21572624000004" r="5" fill="black" stroke="none" />
<circle cx="368.5118795" cy="451.21572624000004" r="5" fill="black" stroke="none" />
<path d="M368.5118795,451.21572624000004 L387.4457497182965,458.2405061558837" stroke="grey" stroke-width="5" />
<circle cx="387.4457497182965" cy="458.2405061558837" r="2.5" fill="grey" stroke="none" />
<path d="M387.4457497182965,458.2405061558837 A120.05129979551715,120.05129979551715,0,0,0,384.5118795,467.21572624000004" stroke="grey" stroke-width="5" fill="none" />
<circle cx="368.5118795" cy="451.21572624000004" r="5" fill="black" stroke="none" />
<circle cx="384.5118795" cy="467.21572624000004" r="5" fill="black" stroke="none" />
<path d="M384.5118795,467.21572624000004 L419.68173982489776,477.19959578433475" stroke="grey" stroke-width="5" />
<circle cx="419.68173982489776" cy="477.19959578433475" r="2.5" fill="grey" stroke="none" />
<path d="M419.68173982489776,477.19959578433475 A83.49180408850405,83.49180408850405,0,0,0,416.5118795,499.21572624" stroke="grey" stroke-width="5" fill="none" />
<circle cx="384.5118795" cy="467.21572624000004" r="5" fill="black" stroke="none" />
<circle cx="416.5118795" cy="499.21572624000004" r="5" fill="black" stroke="none" />
<path d="M384.5118795,467.21572624000004 A120.05129979551715,120.05129979551715,0,0,0,389.93754419380525,547.9434083530006" stroke="grey" stroke-width="5" fill="none" />
<path d="M389.93754419380525,547.9434083530006 L336.5118795,571.2157262400001" stroke="grey" stroke-width="5" />
<circle cx="389.93754419380525" cy="547.9434083530006" r="2.5" fill="grey" stroke="none" />
<circle cx="384.5118795" cy="467.21572624000004" r="5" fill="black" stroke="none" />
<circle cx="336.5118795" cy="571.2157262400001" r="5" fill="black" stroke="none" />
<path d="M336.51187949999996,571.21572624 A178.32567175960153,178.32567175960153,0,0,0,369.08691933738714,621.0859633480998" stroke="grey" stroke-width="5" fill="none" />
<path d="M369.08691933738714,621.0859633480998 L336.5118795,651.2157262400001" stroke="grey" stroke-width="5" />
<circle cx="369.08691933738714" cy="621.0859633480998" r="2.5" fill="grey" stroke="none" />
<circle cx="336.5118795" cy="571.2157262400001" r="5" fill="black" stroke="none" />
<circle cx="336.5118795" cy="651.2157262400001" r="5" fill="black" stroke="none" />
<path d="M232.51187950000002,667.2157262400001 L311.1634772958623,618.0479949000526" stroke="grey" stroke-width="5" />
<circle cx="311.1634772958623" cy="618.0479949000526" r="2.5" fill="grey" stroke="none" />
<path d="M311.1634772958623,618.0479949000526 A222.69836417655418,222.69836417655418,0,0,0,336.5118795000001,651.2157262400001" stroke="grey" stroke-width="5" fill="none" />
<circle cx="232.51187950000002" cy="667.2157262400001" r="5" fill="black" stroke="none" />
<circle cx="336.5118795" cy="651.2157262400001" r="5" fill="black" stroke="none" />
<path d="M336.5118795000001,651.2157262400001 A222.69836417655418,222.69836417655418,0,0,0,385.0305784063487,690.7264887353994" stroke="grey" stroke-width="5" fill="none" />
<path d="M385.0305784063487,690.7264887353994 L336.5118795,771.2157262400001" stroke="grey" stroke-width="5" />
<circle cx="385.0305784063487" cy="690.7264887353994" r="2.5" fill="grey" stroke="none" />
<circle cx="336.5118795" cy="651.2157262400001" r="5" fill="black" stroke="none" />
<circle cx="336.5118795" cy="771.2157262400001" r="5" fill="black" stroke="none" />
<path d="M336.5118795,571.2157262400001 L399.39474439631323,543.8238345359007" stroke="grey" stroke-width="5" />
<circle cx="399.39474439631323" cy="543.8238345359007" r="2.5" fill="grey" stroke="none" />
<path d="M399.39474439631323,543.8238345359007 A109.73580057808458,109.73580057808458,0,0,0,416.5118795,571.2157262400001" stroke="grey" stroke-width="5" fill="none" />
<circle cx="336.5118795" cy="571.2157262400001" r="5" fill="black" stroke="none" />
<circle cx="416.5118795" cy="571.2157262400001" r="5" fill="black" stroke="none" />
<path d="M416.5118795,499.21572624 A83.49180408850405,83.49180408850405,0,0,0,436.47858070217137,554.1840441490167" stroke="grey" stroke-width="5" fill="none" />
<path d="M436.47858070217137,554.1840441490167 L416.5118795,571.2157262400001" stroke="grey" stroke-width="5" />
<circle cx="436.47858070217137" cy="554.1840441490167" r="2.5" fill="grey" stroke="none" />
<circle cx="416.5118795" cy="499.21572624000004" r="5" fill="black" stroke="none" />
<circle cx="416.5118795" cy="571.2157262400001" r="5" fill="black" stroke="none" />
<path d="M416.5118795,571.2157262400001 L445.11790751795445,546.8146611790083" stroke="grey" stroke-width="5" />
<circle cx="445.11790751795445" cy="546.8146611790083" r="2.5" fill="grey" stroke="none" />
<path d="M445.11790751795445,546.8146611790083 A72.13637485009313,72.13637485009313,0,0,0,488.5118795,571.2157262400001" stroke="grey" stroke-width="5" fill="none" />
<circle cx="416.5118795" cy="571.2157262400001" r="5" fill="black" stroke="none" />
<circle cx="488.5118795" cy="571.2157262400001" r="5" fill="black" stroke="none" />
<path d="M416.5118795,499.21572624000004 L456.5067271687578,499.59143130287543" stroke="grey" stroke-width="5" />
<circle cx="456.5067271687578" cy="499.59143130287543" r="2.5" fill="grey" stroke="none" />
<path d="M456.5067271687578,499.59143130287543 A43.495191802694045,43.495191802694045,0,0,1,456.5118795,499.21572624000004" stroke="grey" stroke-width="5" fill="none" />
<circle cx="416.5118795" cy="499.21572624000004" r="5" fill="black" stroke="none" />
<circle cx="456.5118795" cy="499.21572624000004" r="5" fill="black" stroke="none" />
<path d="M488.5118795,571.2157262400001 A72.13637485009313,72.13637485009313,0,0,0,566.7914494529034,527.2499331465858" stroke="grey" stroke-width="5" fill="none" />
<path d="M566.7914494529034,527.2499331465858 L576.5118795000001,531.2157262400001" stroke="grey" stroke-width="5" />
<circle cx="566.7914494529034" cy="527.2499331465858" r="2.5" fill="grey" stroke="none" />
<circle cx="488.5118795" cy="571.2157262400001" r="5" fill="black" stroke="none" />
<circle cx="576.5118795000001" cy="531.2157262400001" r="5" fill="black" stroke="none" />
<path d="M456.5118795,499.21572624000004 A43.495191802694045,43.495191802694045,0,0,1,543.4938677904372,499.6606261926587" stroke="grey" stroke-width="5" fill="none" />
<path d="M543.4938677904372,499.6606261926587 L600.5118795000001,499.21572624000004" stroke="grey" stroke-width="5" />
<circle cx="543.4938677904372" cy="499.6606261926587" r="2.5" fill="grey" stroke="none" />
<circle cx="456.5118795" cy="499.21572624000004" r="5" fill="black" stroke="none" />
<circle cx="600.5118795000001" cy="499.21572624000004" r="5" fill="black" stroke="none" />
<path d="M576.5118795000001,531.21572624 A82.6346735294159,82.6346735294159,0,0,0,582.6321580945814,499.35523807088146" stroke="grey" stroke-width="5" fill="none" />
<path d="M582.6321580945814,499.35523807088146 L600.5118795000001,499.21572624000004" stroke="grey" stroke-width="5" />
<circle cx="582.6321580945814" cy="499.35523807088146" r="2.5" fill="grey" stroke="none" />
<circle cx="576.5118795000001" cy="531.2157262400001" r="5" fill="black" stroke="none" />
<circle cx="600.5118795000001" cy="499.21572624000004" r="5" fill="black" stroke="none" />
<path d="M336.5118795,651.2157262400001 L384.4894104504442,606.8396751624938" stroke="grey" stroke-width="5" />
<circle cx="384.4894104504442" cy="606.8396751624938" r="2.5" fill="grey" stroke="none" />
<path d="M384.4894104504442,606.8396751624939 A157.34488389176545,157.34488389176545,0,0,0,456.5118795000001,651.2157262400001" stroke="grey" stroke-width="5" fill="none" />
<circle cx="336.5118795" cy="651.2157262400001" r="5" fill="black" stroke="none" />
<circle cx="456.5118795" cy="651.2157262400001" r="5" fill="black" stroke="none" />
<path d="M456.5118795,651.2157262400001 L478.9395924037995,573.2306844479488" stroke="grey" stroke-width="5" />
<circle cx="478.9395924037995" cy="573.2306844479488" r="2.5" fill="grey" stroke="none" />
<path d="M478.9395924037995,573.2306844479488 A76.19891018140056,76.19891018140056,0,0,0,552.5118795000001,555.2157262400001" stroke="grey" stroke-width="5" fill="none" />
<circle cx="456.5118795" cy="651.2157262400001" r="5" fill="black" stroke="none" />
<circle cx="552.5118795000001" cy="555.2157262400001" r="5" fill="black" stroke="none" />
<path d="M552.5118795000001,555.2157262400001 A76.19891018140056,76.19891018140056,0,0,0,570.5529723156136,528.7845793831597" stroke="grey" stroke-width="5" fill="none" />
<path d="M570.5529723156136,528.7845793831597 L576.5118795000001,531.2157262400001" stroke="grey" stroke-width="5" />
<circle cx="570.5529723156136" cy="528.7845793831597" r="2.5" fill="grey" stroke="none" />
<circle cx="552.5118795000001" cy="555.2157262400001" r="5" fill="black" stroke="none" />
<circle cx="576.5118795000001" cy="531.2157262400001" r="5" fill="black" stroke="none" />
<path d="M576.5118795000001,531.21572624 A82.6346735294159,82.6346735294159,0,0,1,567.0080224535194,548.3571524821489" stroke="grey" stroke-width="5" fill="none" />
<path d="M567.0080224535194,548.3571524821489 L576.5118795000001,555.2157262400001" stroke="grey" stroke-width="5" />
<circle cx="567.0080224535194" cy="548.3571524821489" r="2.5" fill="grey" stroke="none" />
<circle cx="576.5118795000001" cy="531.2157262400001" r="5" fill="black" stroke="none" />
<circle cx="576.5118795000001" cy="555.2157262400001" r="5" fill="black" stroke="none" />
<path d="M576.5118795000001,555.2157262400001 A94.35488396915738,94.35488396915738,0,0,1,529.6422928975223,589.5777796142025" stroke="grey" stroke-width="5" fill="none" />
<path d="M529.6422928975223,589.5777796142025 L576.5118795000001,731.2157262400001" stroke="grey" stroke-width="5" />
<circle cx="529.6422928975223" cy="589.5777796142025" r="2.5" fill="grey" stroke="none" />
<circle cx="576.5118795000001" cy="555.2157262400001" r="5" fill="black" stroke="none" />
<circle cx="576.5118795000001" cy="731.2157262400001" r="5" fill="black" stroke="none" />
<path d="M576.5118795,731.2157262400001 A243.5462579579353,243.5462579579353,0,0,0,645.6410645375706,695.2010760361642" stroke="grey" stroke-width="5" fill="none" />
<path d="M645.6410645375706,695.2010760361642 L672.5118795000001,731.2157262400001" stroke="grey" stroke-width="5" />
<circle cx="645.6410645375706" cy="695.2010760361642" r="2.5" fill="grey" stroke="none" />
<circle cx="576.5118795000001" cy="731.2157262400001" r="5" fill="black" stroke="none" />
<circle cx="672.5118795000001" cy="731.2157262400001" r="5" fill="black" stroke="none" />
<path d="M576.5118795,731.2157262400001 A243.5462579579353,243.5462579579353,0,0,1,564.3647651167386,734.8871149654238" stroke="grey" stroke-width="5" fill="none" />
<path d="M564.3647651167385,734.8871149654238 L576.5118795000001,779.2157262400001" stroke="grey" stroke-width="5" />
<circle cx="564.3647651167385" cy="734.8871149654238" r="2.5" fill="grey" stroke="none" />
<circle cx="576.5118795000001" cy="731.2157262400001" r="5" fill="black" stroke="none" />
<circle cx="576.5118795000001" cy="779.2157262400001" r="5" fill="black" stroke="none" />
<path d="M264.5118795,355.21572624000004 L371.21896931434594,420.8220441765906" stroke="grey" stroke-width="5" />
<circle cx="371.21896931434594" cy="420.8220441765906" r="2.5" fill="grey" stroke="none" />
<path d="M371.21896931434594,420.8220441765906 A151.17441103848606,151.17441103848606,0,0,1,456.5118795,355.21572624" stroke="grey" stroke-width="5" fill="none" />
<circle cx="264.5118795" cy="355.21572624000004" r="5" fill="black" stroke="none" />
<circle cx="456.5118795" cy="355.21572624000004" r="5" fill="black" stroke="none" />
<path d="M456.5118795,355.21572624000004 L487.48780213997577,458.3433484943311" stroke="grey" stroke-width="5" />
<circle cx="487.48780213997577" cy="458.3433484943311" r="2.5" fill="grey" stroke="none" />
<path d="M487.48780213997577,458.3433484943311 A43.495191802694045,43.495191802694045,0,0,0,456.5118795,499.21572624000004" stroke="grey" stroke-width="5" fill="none" />
<circle cx="456.5118795" cy="355.21572624000004" r="5" fill="black" stroke="none" />
<circle cx="456.5118795" cy="499.21572624000004" r="5" fill="black" stroke="none" />
<path d="M456.5118795,355.21572624 A151.17441103848606,151.17441103848606,0,0,1,471.2853328841643,351.57772928141856" stroke="grey" stroke-width="5" fill="none" />
<path d="M471.2853328841643,351.57772928141856 L456.5118795,275.21572624000004" stroke="grey" stroke-width="5" />
<circle cx="471.2853328841643" cy="351.57772928141856" r="2.5" fill="grey" stroke="none" />
<circle cx="456.5118795" cy="355.21572624000004" r="5" fill="black" stroke="none" />
<circle cx="456.5118795" cy="275.21572624000004" r="5" fill="black" stroke="none" />
<path d="M456.5118795000001,275.21572624 A228.95236699897455,228.95236699897455,0,0,1,464.95746281063447,273.74526095180886" stroke="grey" stroke-width="5" fill="none" />
<path d="M464.95746281063447,273.74526095180886 L456.5118795,219.21572624000004" stroke="grey" stroke-width="5" />
<circle cx="464.95746281063447" cy="273.74526095180886" r="2.5" fill="grey" stroke="none" />
<circle cx="456.5118795" cy="275.21572624000004" r="5" fill="black" stroke="none" />
<circle cx="456.5118795" cy="219.21572624000004" r="5" fill="black" stroke="none" />
<path d="M456.5118795,275.21572624000004 L473.5828389323844,363.4532305118836" stroke="grey" stroke-width="5" />
<circle cx="473.5828389323844" cy="363.4532305118836" r="2.5" fill="grey" stroke="none" />
<path d="M473.5828389323844,363.4532305118836 A139.07870669701072,139.07870669701072,0,0,1,552.5118795,371.21572624000004" stroke="grey" stroke-width="5" fill="none" />
<circle cx="456.5118795" cy="275.21572624000004" r="5" fill="black" stroke="none" />
<circle cx="552.5118795000001" cy="371.21572624000004" r="5" fill="black" stroke="none" />
<path d="M456.5118795,355.21572624000004 L459.99143297946114,366.8001455651089" stroke="grey" stroke-width="5" />
<circle cx="459.99143297946114" cy="366.8001455651089" r="2.5" fill="grey" stroke="none" />
<path d="M459.99143297946114,366.8001455651089 A139.07870669701072,139.07870669701072,0,0,1,552.5118795,371.21572624000004" stroke="grey" stroke-width="5" fill="none" />
<circle cx="456.5118795" cy="355.21572624000004" r="5" fill="black" stroke="none" />
<circle cx="552.5118795000001" cy="371.21572624000004" r="5" fill="black" stroke="none" />
<path d="M552.5118795000001,371.21572624000004 L543.5877661027725,393.1019255868323" stroke="grey" stroke-width="5" />
<circle cx="543.5877661027725" cy="393.1019255868323" r="2.5" fill="grey" stroke="none" />
<path d="M543.5877661027724,393.1019255868323 A115.44302346644056,115.44302346644056,0,0,1,600.5118795000001,443.21572624000004" stroke="grey" stroke-width="5" fill="none" />
<circle cx="552.5118795000001" cy="371.21572624000004" r="5" fill="black" stroke="none" />
<circle cx="600.5118795000001" cy="443.21572624000004" r="5" fill="black" stroke="none" />
<path d="M552.5118795000001,555.2157262400001 A76.19891018140056,76.19891018140056,0,0,0,561.7892957797117,544.5909950537151" stroke="grey" stroke-width="5" fill="none" />
<path d="M561.7892957797117,544.5909950537151 L576.5118795000001,555.2157262400001" stroke="grey" stroke-width="5" />
<circle cx="561.7892957797117" cy="544.5909950537151" r="2.5" fill="grey" stroke="none" />
<circle cx="552.5118795000001" cy="555.2157262400001" r="5" fill="black" stroke="none" />
<circle cx="576.5118795000001" cy="555.2157262400001" r="5" fill="black" stroke="none" />
<path d="M576.5118795000001,555.2157262400001 A94.35488396915738,94.35488396915738,0,0,0,582.698103217581,545.4298123818212" stroke="grey" stroke-width="5" fill="none" />
<path d="M582.698103217581,545.4298123818212 L600.5118795000001,555.2157262400001" stroke="grey" stroke-width="5" />
<circle cx="582.698103217581" cy="545.4298123818212" r="2.5" fill="grey" stroke="none" />
<circle cx="576.5118795000001" cy="555.2157262400001" r="5" fill="black" stroke="none" />
<circle cx="600.5118795000001" cy="555.2157262400001" r="5" fill="black" stroke="none" />
<path d="M600.5118795000001,555.2157262400001 L588.0971335946706,548.395744217399" stroke="grey" stroke-width="5" />
<circle cx="588.0971335946706" cy="548.395744217399" r="2.5" fill="grey" stroke="none" />
<path d="M588.0971335946706,548.395744217399 A100.51493921777573,100.51493921777573,0,0,0,600.5118795000001,499.21572624000004" stroke="grey" stroke-width="5" fill="none" />
<circle cx="600.5118795000001" cy="555.2157262400001" r="5" fill="black" stroke="none" />
<circle cx="600.5118795000001" cy="499.21572624000004" r="5" fill="black" stroke="none" />
<path d="M600.5118795000001,499.21572624000004 A100.51493921777573,100.51493921777573,0,0,0,599.142154980196,483.44445374395815" stroke="grey" stroke-width="5" fill="none" />
<path d="M599.142154980196,483.44445374395815 L600.5118795000001,483.21572624000004" stroke="grey" stroke-width="5" />
<circle cx="599.142154980196" cy="483.44445374395815" r="2.5" fill="grey" stroke="none" />
<circle cx="600.5118795000001" cy="499.21572624000004" r="5" fill="black" stroke="none" />
<circle cx="600.5118795000001" cy="483.21572624000004" r="5" fill="black" stroke="none" />
<path d="M600.5118795000001,483.21572624000004 A101.9036297993018,101.9036297993018,0,0,0,596.8803607814245,468.4002300461829" stroke="grey" stroke-width="5" fill="none" />
<path d="M596.8803607814245,468.4002300461829 L600.5118795000001,467.21572624000004" stroke="grey" stroke-width="5" />
<circle cx="596.8803607814245" cy="468.4002300461829" r="2.5" fill="grey" stroke="none" />
<circle cx="600.5118795000001" cy="483.21572624000004" r="5" fill="black" stroke="none" />
<circle cx="600.5118795000001" cy="467.21572624000004" r="5" fill="black" stroke="none" />
<path d="M600.5118795000001,467.21572624000004 A105.72344359976715,105.72344359976715,0,0,0,592.0494084816999,447.99660660339254" stroke="grey" stroke-width="5" fill="none" />
<path d="M592.0494084816999,447.99660660339254 L600.5118795000001,443.21572624000004" stroke="grey" stroke-width="5" />
<circle cx="592.0494084816999" cy="447.99660660339254" r="2.5" fill="grey" stroke="none" />
<circle cx="600.5118795000001" cy="467.21572624000004" r="5" fill="black" stroke="none" />
<circle cx="600.5118795000001" cy="443.21572624000004" r="5" fill="black" stroke="none" />
<path d="M600.5118795000001,443.21572624000004 A115.44302346644056,115.44302346644056,0,0,1,607.829690424035,458.77076849940175" stroke="grey" stroke-width="5" fill="none" />
<path d="M607.829690424035,458.77076849940175 L648.5118795000001,443.21572624000004" stroke="grey" stroke-width="5" />
<circle cx="607.829690424035" cy="458.77076849940175" r="2.5" fill="grey" stroke="none" />
<circle cx="600.5118795000001" cy="443.21572624000004" r="5" fill="black" stroke="none" />
<circle cx="648.5118795000001" cy="443.21572624000004" r="5" fill="black" stroke="none" />
<path d="M648.5118795000001,443.21572624000004 L639.6007827400316,446.62292948612077" stroke="grey" stroke-width="5" />
<circle cx="639.6007827400316" cy="446.62292948612077" r="2.5" fill="grey" stroke="none" />
<path d="M639.6007827400316,446.62292948612077 A149.45731898529812,149.45731898529812,0,0,1,648.5118795000001,483.21572624000004" stroke="grey" stroke-width="5" fill="none" />
<circle cx="648.5118795000001" cy="443.21572624000004" r="5" fill="black" stroke="none" />
<circle cx="648.5118795000001" cy="483.21572624000004" r="5" fill="black" stroke="none" />
<path d="M648.5118795000001,483.21572624000004 L601.2590061973159,488.5560745281573" stroke="grey" stroke-width="5" />
<circle cx="601.2590061973159" cy="488.5560745281573" r="2.5" fill="grey" stroke="none" />
<path d="M601.2590061973159,488.5560745281573 A101.9036297993018,101.9036297993018,0,0,0,600.5118795000001,483.21572624000004" stroke="grey" stroke-width="5" fill="none" />
<circle cx="648.5118795000001" cy="483.21572624000004" r="5" fill="black" stroke="none" />
<circle cx="600.5118795000001" cy="483.21572624000004" r="5" fill="black" stroke="none" />
<path d="M600.5118795000001,467.21572624000004 A105.72344359976715,105.72344359976715,0,0,1,604.021771080742,481.1077352384939" stroke="grey" stroke-width="5" fill="none" />
<path d="M604.021771080742,481.10773523849383 L680.5118795000001,467.21572624000004" stroke="grey" stroke-width="5" />
<circle cx="604.021771080742" cy="481.10773523849383" r="2.5" fill="grey" stroke="none" />
<circle cx="600.5118795000001" cy="467.21572624000004" r="5" fill="black" stroke="none" />
<circle cx="680.5118795000001" cy="467.21572624000004" r="5" fill="black" stroke="none" />
<circle cx="500" cy="500" r="5" fill="red" stroke="none" />
</svg>