<?xml version="1.0" encoding="UTF-8"?>
<svg xmlns="http://www.w3.org/2000/svg" xmlns:xlink="http://www.w3.org/1999/xlink"
     width="1000" height="1000" viewBox="0 0 1000 1000">
<defs>
</defs>
<rect x="0" y="0" width="1000" height="1000" fill="white" />
<path d="M320.50355949999994,248.5171246399999 L362.0393462380425,306.71069689205075" stroke="grey" stroke-width="5" />
<circle cx="362.0393462380425" cy="306.71069689205075" r="2.5" fill="grey" stroke="none" />
<path d="M362.0393462380425,306.71069689205075 A237.47399159146542,237.47399159146542,0,0,0,320.50355949999994,344.5171246399999" stroke="grey" stroke-width="5" fill="none" />
<circle cx="320.50355949999994" cy="248.5171246399999" r="5" fill="black" stroke="none" />
<circle cx="320.50355949999994" cy="344.5171246399999" r="5" fill="black" stroke="none" />
<path d="M320.50355949999994,344.5171246399999 L384.781292763463,400.19559247806467" stroke="grey" stroke-width="5" />
<circle cx="384.781292763463" cy="400.19559247806467" r="2.5" fill="grey" stroke="none" />
<path d="M384.781292763463,400.19559247806467 A152.43447857379041,152.43447857379041,0,0,0,384.50355949999994,400.5171246399999" stroke="grey" stroke-width="5" fill="none" />
<circle cx="320.50355949999994" cy="344.5171246399999" r="5" fill="black" stroke="none" />
<circle cx="384.50355949999994" cy="400.5171246399999" r="5" fill="black" stroke="none" />
<path d="M296.50355949999994,400.5171246399999 L363.05411367282477,433.0515535943681" stroke="grey" stroke-width="5" />
<circle cx="363.05411367282477" cy="433.0515535943681" r="2.5" fill="grey" stroke="none" />
<path d="M363.05411367282477,433.0515535943681 A152.43447857379041,152.43447857379041,0,0,1,384.50355949999994,400.5171246399999" stroke="grey" stroke-width="5" fill="none" />
<circle cx="296.50355949999994" cy="400.5171246399999" r="5" fill="black" stroke="none" />
<circle cx="384.50355949999994" cy="400.5171246399999" r="5" fill="black" stroke="none" />
<path d="M384.50355949999994,400.5171246399999 L439.16878958642724,447.60302830656155" stroke="grey" stroke-width="5" />
<circle cx="439.16878958642724" cy="447.60302830656155" r="2.5" fill="grey" stroke="none" />
<path d="M439.16878958642724,447.60302830656155 A80.28623046963504,80.28623046963504,0,0,1,456.50355949999994,432.5171246399999" stroke="grey" stroke-width="5" fill="none" />
<circle cx="384.50355949999994" cy="400.5171246399999" r="5" fill="black" stroke="none" />
<circle cx="456.50355949999994" cy="432.5171246399999" r="5" fill="black" stroke="none" />
<path d="M456.50355949999994,432.5171246399999 L468.3794484314381,450.942060642509" stroke="grey" stroke-width="5" />
<circle cx="468.3794484314381" cy="450.942060642509" r="2.5" fill="grey" stroke="none" />
<path d="M468.3794484314381,450.942060642509 A58.36557800196404,58.36557800196404,0,0,1,472.50355949999994,448.5171246399999" stroke="grey" stroke-width="5" fill="none" />
<circle cx="456.50355949999994" cy="432.5171246399999" r="5" fill="black" stroke="none" />
<circle cx="472.50355949999994" cy="448.5171246399999" r="5" fill="black" stroke="none" />
<path d="M472.50355949999994,448.5171246399999 L490.5794534499799,482.36146879237833" stroke="grey" stroke-width="5" />
<circle cx="490.5794534499799" cy="482.36146879237833" r="2.5" fill="grey" stroke="none" />
<path d="M490.5794534499799,482.36146879237833 A19.996611724573203,19.996611724573203,0,0,1,504.50355949999994,480.5171246399999" stroke="grey" stroke-width="5" fill="none" />
<circle cx="472.50355949999994" cy="448.5171246399999" r="5" fill="black" stroke="none" />
<circle cx="504.50355949999994" cy="480.5171246399999" r="5" fill="black" stroke="none" />
<path d="M472.50355949999994,448.5171246399999 A58.36557800196404,58.36557800196404,0,0,0,452.0867572428259,533.329594416906" stroke="grey" stroke-width="5" fill="none" />
<path d="M452.0867572428259,533.329594416906 L-75.49644050000006,52.517124639999906" stroke="grey" stroke-width="5" />
<circle cx="452.0867572428259" cy="533.329594416906" r="2.5" fill="grey" stroke="none" />
<circle cx="472.50355949999994" cy="448.5171246399999" r="5" fill="black" stroke="none" />
<circle cx="424.50355949999994" cy="552.5171246399999" r="5" fill="black" stroke="none" />
<path d="M424.50355949999994,552.5171246399999 A91.96608564369441,91.96608564369441,0,0,0,454.47555634241473,579.9079841961408" stroke="grey" stroke-width="5" fill="none" />
<path d="M454.47555634241473,579.9079841961408 L-75.49644050000006,132.5171246399999" stroke="grey" stroke-width="5" />
<circle cx="454.47555634241473" cy="579.9079841961408" r="2.5" fill="grey" stroke="none" />
<circle cx="424.50355949999994" cy="552.5171246399999" r="5" fill="black" stroke="none" />
<circle cx="424.50355949999994" cy="632.5171246399999" r="5" fill="black" stroke="none" />
<path d="M320.50355949999994,648.5171246399999 L382.49395187273205,597.2256627878438" stroke="grey" stroke-width="5" />
<circle cx="382.49395187273205" cy="597.2256627878438" r="2.5" fill="grey" stroke="none" />
<path d="M382.49395187273205,597.2256627878438 A152.51393657965596,152.51393657965596,0,0,0,424.50355950000005,632.51712464" stroke="grey" stroke-width="5" fill="none" />
<circle cx="320.50355949999994" cy="648.5171246399999" r="5" fill="black" stroke="none" />
<circle cx="424.50355949999994" cy="632.5171246399999" r="5" fill="black" stroke="none" />
<path d="M424.50355950000005,632.51712464 A152.51393657965596,152.51393657965596,0,0,0,456.3128007168274,646.1229943226448" stroke="grey" stroke-width="5" fill="none" />
<path d="M456.31280071682744,646.1229943226448 L-75.49644050000006,252.5171246399999" stroke="grey" stroke-width="5" />
<circle cx="456.31280071682744" cy="646.1229943226448" r="2.5" fill="grey" stroke="none" />
<circle cx="424.50355949999994" cy="632.5171246399999" r="5" fill="black" stroke="none" />
<circle cx="424.50355949999994" cy="752.5171246399999" r="5" fill="black" stroke="none" />
<path d="M424.50355949999994,552.5171246399999 L456.72961874863273,530.0999092188772" stroke="grey" stroke-width="5" />
<circle cx="456.72961874863273" cy="530.0999092188772" r="2.5" fill="grey" stroke="none" />
<path d="M456.72961874863273,530.0999092188772 A52.70987031499247,52.70987031499247,0,0,0,504.50355949999994,552.5171246399999" stroke="grey" stroke-width="5" fill="none" />
<circle cx="424.50355949999994" cy="552.5171246399999" r="5" fill="black" stroke="none" />
<circle cx="504.50355949999994" cy="552.5171246399999" r="5" fill="black" stroke="none" />
<path d="M504.50355949999994,480.5171246399999 A19.996611724573203,19.996611724573203,0,0,1,501.7085211965395,519.9234895483777" stroke="grey" stroke-width="5" fill="none" />
<path d="M501.7085211965395,519.9234895483777 L4.5035594999999375,52.517124639999906" stroke="grey" stroke-width="5" />
<circle cx="501.7085211965395" cy="519.9234895483777" r="2.5" fill="grey" stroke="none" />
<circle cx="504.50355949999994" cy="480.5171246399999" r="5" fill="black" stroke="none" />
<circle cx="504.50355949999994" cy="552.5171246399999" r="5" fill="black" stroke="none" />
<path d="M504.50355949999994,552.5171246399999 A52.70987031499247,52.70987031499247,0,0,0,543.4561006841134,529.8311538824016" stroke="grey" stroke-width="5" fill="none" />
<path d="M543.4561006841134,529.8311538824016 L76.50355949999994,52.517124639999906" stroke="grey" stroke-width="5" />
<circle cx="543.4561006841134" cy="529.8311538824016" r="2.5" fill="grey" stroke="none" />
<circle cx="504.50355949999994" cy="552.5171246399999" r="5" fill="black" stroke="none" />
<circle cx="576.5035594999999" cy="552.5171246399999" r="5" fill="black" stroke="none" />
<path d="M504.50355949999994,480.5171246399999 A19.996611724573203,19.996611724573203,0,0,1,518.3181423393753,491.98063957053165" stroke="grey" stroke-width="5" fill="none" />
<path d="M518.3181423393753,491.98063957053165 L44.50355949999994,-19.482875360000094" stroke="grey" stroke-width="5" />
<circle cx="518.3181423393753" cy="491.98063957053165" r="2.5" fill="grey" stroke="none" />
<circle cx="504.50355949999994" cy="480.5171246399999" r="5" fill="black" stroke="none" />
<circle cx="544.5035594999999" cy="480.5171246399999" r="5" fill="black" stroke="none" />
<path d="M576.5035594999999,552.5171246399999 A92.79462805908172,92.79462805908172,0,0,0,592.5271608517912,507.0404191160811" stroke="grey" stroke-width="5" fill="none" />
<path d="M592.5271608517912,507.0404191160811 L164.50355949999994,12.517124639999906" stroke="grey" stroke-width="5" />
<circle cx="592.5271608517912" cy="507.0404191160811" r="2.5" fill="grey" stroke="none" />
<circle cx="576.5035594999999" cy="552.5171246399999" r="5" fill="black" stroke="none" />
<circle cx="664.5035594999999" cy="512.5171246399999" r="5" fill="black" stroke="none" />
<path d="M544.5035594999999,480.5171246399999 A48.58136721484209,48.58136721484209,0,0,1,548.3239460886971,495.00545548823203" stroke="grey" stroke-width="5" fill="none" />
<path d="M548.3239460886971,495.00545548823203 L188.50355949999994,-19.482875360000094" stroke="grey" stroke-width="5" />
<circle cx="548.3239460886971" cy="495.00545548823203" r="2.5" fill="grey" stroke="none" />
<circle cx="544.5035594999999" cy="480.5171246399999" r="5" fill="black" stroke="none" />
<circle cx="688.5035594999999" cy="480.5171246399999" r="5" fill="black" stroke="none" />
<path d="M664.5035594999999,512.5171246399999 A164.97908806095188,164.97908806095188,0,0,0,664.1049030580635,483.0388594214044" stroke="grey" stroke-width="5" fill="none" />
<path d="M664.1049030580635,483.0388594214044 L188.50355949999994,-19.482875360000094" stroke="grey" stroke-width="5" />
<circle cx="664.1049030580635" cy="483.0388594214044" r="2.5" fill="grey" stroke="none" />
<circle cx="664.5035594999999" cy="512.5171246399999" r="5" fill="black" stroke="none" />
<circle cx="688.5035594999999" cy="480.5171246399999" r="5" fill="black" stroke="none" />
<path d="M424.50355949999994,632.5171246399999 L430.80188187113856,621.4618276597525" stroke="grey" stroke-width="5" />
<circle cx="430.80188187113856" cy="621.4618276597525" r="2.5" fill="grey" stroke="none" />
<path d="M430.8018818711386,621.4618276597527 A139.79039713450743,139.79039713450743,0,0,0,544.5035594999999,632.5171246399999" stroke="grey" stroke-width="5" fill="none" />
<circle cx="424.50355949999994" cy="632.5171246399999" r="5" fill="black" stroke="none" />
<circle cx="544.5035594999999" cy="632.5171246399999" r="5" fill="black" stroke="none" />
<path d="M544.5035594999999,632.5171246399999 A139.79039713450743,139.79039713450743,0,0,0,635.2955284361668,535.1635481173569" stroke="grey" stroke-width="5" fill="none" />
<path d="M635.2955284361668,535.1635481173569 L140.50355949999994,36.517124639999906" stroke="grey" stroke-width="5" />
<circle cx="635.2955284361668" cy="535.1635481173569" r="2.5" fill="grey" stroke="none" />
<circle cx="544.5035594999999" cy="632.5171246399999" r="5" fill="black" stroke="none" />
<circle cx="640.5035594999999" cy="536.5171246399999" r="5" fill="black" stroke="none" />
<path d="M640.5035594999999,536.5171246399999 A145.1714525109648,145.1714525109648,0,0,0,644.7530166187847,511.01429997345014" stroke="grey" stroke-width="5" fill="none" />
<path d="M644.7530166187847,511.01429997345014 L164.50355949999994,12.517124639999906" stroke="grey" stroke-width="5" />
<circle cx="644.7530166187847" cy="511.01429997345014" r="2.5" fill="grey" stroke="none" />
<circle cx="640.5035594999999" cy="536.5171246399999" r="5" fill="black" stroke="none" />
<circle cx="664.5035594999999" cy="512.5171246399999" r="5" fill="black" stroke="none" />
<path d="M664.5035594999999,512.5171246399999 A164.97908806095188,164.97908806095188,0,0,1,661.0585786883614,535.7523947213077" stroke="grey" stroke-width="5" fill="none" />
<path d="M661.0585786883614,535.7523947213077 L164.50355949999994,36.517124639999906" stroke="grey" stroke-width="5" />
<circle cx="661.0585786883614" cy="535.7523947213077" r="2.5" fill="grey" stroke="none" />
<circle cx="664.5035594999999" cy="512.5171246399999" r="5" fill="black" stroke="none" />
<circle cx="664.5035594999999" cy="536.5171246399999" r="5" fill="black" stroke="none" />
<path d="M664.5035594999999,536.5171246399999 A168.50792705431786,168.50792705431786,0,0,1,603.1459102062825,633.2510513574314" stroke="grey" stroke-width="5" fill="none" />
<path d="M603.1459102062825,633.2510513574314 L164.50355949999994,212.5171246399999" stroke="grey" stroke-width="5" />
<circle cx="603.1459102062825" cy="633.2510513574314" r="2.5" fill="grey" stroke="none" />
<circle cx="664.5035594999999" cy="536.5171246399999" r="5" fill="black" stroke="none" />
<circle cx="664.5035594999999" cy="712.5171246399999" r="5" fill="black" stroke="none" />
<path d="M664.5035594999999,712.5171246399999 A268.74699878030873,268.74699878030873,0,0,0,708.2422325982623,669.882671028903" stroke="grey" stroke-width="5" fill="none" />
<path d="M708.2422325982623,669.882671028903 L260.50355949999994,212.5171246399999" stroke="grey" stroke-width="5" />
<circle cx="708.2422325982623" cy="669.882671028903" r="2.5" fill="grey" stroke="none" />
<circle cx="664.5035594999999" cy="712.5171246399999" r="5" fill="black" stroke="none" />
<circle cx="760.5035594999999" cy="712.5171246399999" r="5" fill="black" stroke="none" />
<path d="M664.5035594999999,712.5171246399999 A268.74699878030873,268.74699878030873,0,0,1,643.4880801880495,727.2358250746812" stroke="grey" stroke-width="5" fill="none" />
<path d="M643.4880801880495,727.2358250746812 L164.50355949999994,260.5171246399999" stroke="grey" stroke-width="5" />
<circle cx="643.4880801880495" cy="727.2358250746812" r="2.5" fill="grey" stroke="none" />
<circle cx="664.5035594999999" cy="712.5171246399999" r="5" fill="black" stroke="none" />
<circle cx="664.5035594999999" cy="760.5171246399999" r="5" fill="black" stroke="none" />
<path d="M352.50355949999994,336.5171246399999 L386.5021866726749,374.200700661494" stroke="grey" stroke-width="5" />
<circle cx="386.5021866726749" cy="374.200700661494" r="2.5" fill="grey" stroke="none" />
<path d="M386.5021866726749,374.200700661494 A169.43204343967338,169.43204343967338,0,0,1,544.5035594999999,336.5171246399999" stroke="grey" stroke-width="5" fill="none" />
<circle cx="352.50355949999994" cy="336.5171246399999" r="5" fill="black" stroke="none" />
<circle cx="544.5035594999999" cy="336.5171246399999" r="5" fill="black" stroke="none" />
<path d="M544.5035594999999,336.5171246399999 L512.7605364519308,453.12444187081843" stroke="grey" stroke-width="5" />
<circle cx="512.7605364519308" cy="453.12444187081843" r="2.5" fill="grey" stroke="none" />
<path d="M512.7605364519308,453.12444187081843 A48.58136721484209,48.58136721484209,0,0,1,544.5035594999999,480.5171246399999" stroke="grey" stroke-width="5" fill="none" />
<circle cx="544.5035594999999" cy="336.5171246399999" r="5" fill="black" stroke="none" />
<circle cx="544.5035594999999" cy="480.5171246399999" r="5" fill="black" stroke="none" />
<path d="M544.5035594999999,336.5171246399999 A169.43204343967338,169.43204343967338,0,0,0,530.4639301092017,333.3291677993866" stroke="grey" stroke-width="5" fill="none" />
<path d="M530.4639301092017,333.3291677993866 L44.50355949999994,-243.4828753600001" stroke="grey" stroke-width="5" />
<circle cx="530.4639301092017" cy="333.3291677993866" r="2.5" fill="grey" stroke="none" />
<circle cx="544.5035594999999" cy="336.5171246399999" r="5" fill="black" stroke="none" />
<circle cx="544.5035594999999" cy="256.5171246399999" r="5" fill="black" stroke="none" />
<path d="M544.5035594999999,256.5171246399999 A247.5166204555633,247.5166204555633,0,0,0,536.3817993228023,255.17181110056237" stroke="grey" stroke-width="5" fill="none" />
<path d="M536.3817993228023,255.17181110056237 L44.50355949999994,-299.4828753600001" stroke="grey" stroke-width="5" />
<circle cx="536.3817993228023" cy="255.17181110056237" r="2.5" fill="grey" stroke="none" />
<circle cx="544.5035594999999" cy="256.5171246399999" r="5" fill="black" stroke="none" />
<circle cx="544.5035594999999" cy="200.5171246399999" r="5" fill="black" stroke="none" />
<path d="M544.5035594999999,256.5171246399999 L536.6247707386771,299.6226686349908" stroke="grey" stroke-width="5" />
<circle cx="536.6247707386771" cy="299.6226686349908" r="2.5" fill="grey" stroke="none" />
<path d="M536.6247707386771,299.6226686349908 A203.69695323353108,203.69695323353108,0,0,1,640.5035594999999,352.5171246399999" stroke="grey" stroke-width="5" fill="none" />
<circle cx="544.5035594999999" cy="256.5171246399999" r="5" fill="black" stroke="none" />
<circle cx="640.5035594999999" cy="352.5171246399999" r="5" fill="black" stroke="none" />
<path d="M544.5035594999999,336.5171246399999 A169.43204343967338,169.43204343967338,0,0,1,616.8687347490182,377.3259759268207" stroke="grey" stroke-width="5" fill="none" />
<path d="M616.8687347490182,377.3259759268207 L140.50355949999994,-147.4828753600001" stroke="grey" stroke-width="5" />
<circle cx="616.8687347490182" cy="377.3259759268207" r="2.5" fill="grey" stroke="none" />
<circle cx="544.5035594999999" cy="336.5171246399999" r="5" fill="black" stroke="none" />
<circle cx="640.5035594999999" cy="352.5171246399999" r="5" fill="black" stroke="none" />
<path d="M640.5035594999999,352.5171246399999 L640.0606308386434,352.98205515698237" stroke="grey" stroke-width="5" />
<circle cx="640.0606308386434" cy="352.98205515698237" r="2.5" fill="grey" stroke="none" />
<path d="M640.0606308386434,352.98205515698237 A203.05481136083264,203.05481136083264,0,0,1,688.5035594999999,424.5171246399999" stroke="grey" stroke-width="5" fill="none" />
<circle cx="640.5035594999999" cy="352.5171246399999" r="5" fill="black" stroke="none" />
<circle cx="688.5035594999999" cy="424.5171246399999" r="5" fill="black" stroke="none" />
<path d="M640.5035594999999,536.5171246399999 A145.1714525109648,145.1714525109648,0,0,0,641.7216453451529,531.4599088492964" stroke="grey" stroke-width="5" fill="none" />
<path d="M641.7216453451529,531.4599088492964 L164.50355949999994,36.517124639999906" stroke="grey" stroke-width="5" />
<circle cx="641.7216453451529" cy="531.4599088492964" r="2.5" fill="grey" stroke="none" />
<circle cx="640.5035594999999" cy="536.5171246399999" r="5" fill="black" stroke="none" />
<circle cx="664.5035594999999" cy="536.5171246399999" r="5" fill="black" stroke="none" />
<path d="M664.5035594999999,536.5171246399999 A168.50792705431786,168.50792705431786,0,0,0,665.4323534465175,532.0477442777149" stroke="grey" stroke-width="5" fill="none" />
<path d="M665.4323534465175,532.0477442777149 L188.50355949999994,36.517124639999906" stroke="grey" stroke-width="5" />
<circle cx="665.4323534465175" cy="532.0477442777149" r="2.5" fill="grey" stroke="none" />
<circle cx="664.5035594999999" cy="536.5171246399999" r="5" fill="black" stroke="none" />
<circle cx="688.5035594999999" cy="536.5171246399999" r="5" fill="black" stroke="none" />
<path d="M688.5035594999999,536.5171246399999 L686.0488582445262,536.0415971118308" stroke="grey" stroke-width="5" />
<circle cx="686.0488582445262" cy="536.0415971118308" r="2.5" fill="grey" stroke="none" />
<path d="M686.0488582445262,536.0415971118308 A189.50771587580098,189.50771587580098,0,0,0,688.5035594999999,480.5171246399999" stroke="grey" stroke-width="5" fill="none" />
<circle cx="688.5035594999999" cy="536.5171246399999" r="5" fill="black" stroke="none" />
<circle cx="688.5035594999999" cy="480.5171246399999" r="5" fill="black" stroke="none" />
<path d="M688.5035594999999,480.5171246399999 A189.50771587580098,189.50771587580098,0,0,0,686.2370386357982,464.9437620867337" stroke="grey" stroke-width="5" fill="none" />
<path d="M686.2370386357982,464.9437620867337 L188.50355949999994,-35.482875360000094" stroke="grey" stroke-width="5" />
<circle cx="686.2370386357982" cy="464.9437620867337" r="2.5" fill="grey" stroke="none" />
<circle cx="688.5035594999999" cy="480.5171246399999" r="5" fill="black" stroke="none" />
<circle cx="688.5035594999999" cy="464.5171246399999" r="5" fill="black" stroke="none" />
<path d="M688.5035594999999,464.5171246399999 A191.81404116483057,191.81404116483057,0,0,0,685.0370917911179,449.46386392422994" stroke="grey" stroke-width="5" fill="none" />
<path d="M685.0370917911179,449.46386392422994 L188.50355949999994,-51.482875360000094" stroke="grey" stroke-width="5" />
<circle cx="685.0370917911179" cy="449.46386392422994" r="2.5" fill="grey" stroke="none" />
<circle cx="688.5035594999999" cy="464.5171246399999" r="5" fill="black" stroke="none" />
<circle cx="688.5035594999999" cy="448.5171246399999" r="5" fill="black" stroke="none" />
<path d="M688.5035594999999,448.5171246399999 A195.40746761447812,195.40746761447812,0,0,0,681.4042373650212,427.3599210799" stroke="grey" stroke-width="5" fill="none" />
<path d="M681.4042373650212,427.3599210799 L188.50355949999994,-75.4828753600001" stroke="grey" stroke-width="5" />
<circle cx="681.4042373650212" cy="427.3599210799" r="2.5" fill="grey" stroke="none" />
<circle cx="688.5035594999999" cy="448.5171246399999" r="5" fill="black" stroke="none" />
<circle cx="688.5035594999999" cy="424.5171246399999" r="5" fill="black" stroke="none" />
<path d="M688.5035594999999,424.5171246399999 A203.05481136083264,203.05481136083264,0,0,1,693.441321910055,438.2609410950099" stroke="grey" stroke-width="5" fill="none" />
<path d="M693.441321910055,438.2609410950099 L236.50355949999994,-75.4828753600001" stroke="grey" stroke-width="5" />
<circle cx="693.441321910055" cy="438.2609410950099" r="2.5" fill="grey" stroke="none" />
<circle cx="688.5035594999999" cy="424.5171246399999" r="5" fill="black" stroke="none" />
<circle cx="736.5035594999999" cy="424.5171246399999" r="5" fill="black" stroke="none" />
<path d="M736.5035594999999,424.5171246399999 L727.8280980091428,427.2859995769746" stroke="grey" stroke-width="5" />
<circle cx="727.8280980091428" cy="427.2859995769746" r="2.5" fill="grey" stroke="none" />
<path d="M727.8280980091428,427.28599957697463 A239.15051348467415,239.15051348467415,0,0,1,736.5035594999999,464.5171246399999" stroke="grey" stroke-width="5" fill="none" />
<circle cx="736.5035594999999" cy="424.5171246399999" r="5" fill="black" stroke="none" />
<circle cx="736.5035594999999" cy="464.5171246399999" r="5" fill="black" stroke="none" />
<path d="M736.5035594999999,464.5171246399999 L689.6910144015607,471.54045953831593" stroke="grey" stroke-width="5" />
<circle cx="689.6910144015607" cy="471.54045953831593" r="2.5" fill="grey" stroke="none" />
<path d="M689.6910144015607,471.54045953831593 A191.81404116483057,191.81404116483057,0,0,0,688.5035594999999,464.5171246399999" stroke="grey" stroke-width="5" fill="none" />
<circle cx="736.5035594999999" cy="464.5171246399999" r="5" fill="black" stroke="none" />
<circle cx="688.5035594999999" cy="464.5171246399999" r="5" fill="black" stroke="none" />
<path d="M688.5035594999999,448.5171246399999 A195.40746761447812,195.40746761447812,0,0,1,691.9115679460733,463.2028739167986" stroke="grey" stroke-width="5" fill="none" />
<path d="M691.9115679460733,463.2028739167986 L268.50355949999994,-51.482875360000094" stroke="grey" stroke-width="5" />
<circle cx="691.9115679460733" cy="463.2028739167986" r="2.5" fill="grey" stroke="none" />
<circle cx="688.5035594999999" cy="448.5171246399999" r="5" fill="black" stroke="none" />
<circle cx="768.5035594999999" cy="448.5171246399999" r="5" fill="black" stroke="none" />
<circle cx="500" cy="500" r="5" fill="red" stroke="none" />
</svg>