<?xml version="1.0" encoding="UTF-8"?>
<svg xmlns="http://www.w3.org/2000/svg" xmlns:xlink="http://www.w3.org/1999/xlink"
     width="1000" height="1000" viewBox="0 0 1000 1000">
<defs>
</defs>
<rect x="0" y="0" width="1000" height="1000" fill="white" />
<path d="M226.922752,269.92231424000005 L267.35047395531774,303.9841658814383" stroke="grey" stroke-width="5" />
<circle cx="267.35047395531774" cy="303.9841658814383" r="2.5" fill="grey" stroke="none" />
<path d="M267.35047395531774,303.9841658814383 A304.21704290524355,304.21704290524355,0,0,0,226.922752,365.9223142400001" stroke="grey" stroke-width="5" fill="none" />
<circle cx="226.922752" cy="269.92231424000005" r="5" fill="black" stroke="none" />
<circle cx="226.922752" cy="365.92231424000005" r="5" fill="black" stroke="none" />
<path d="M226.922752,365.92231424000005 L299.6645886456639,401.63769216625843" stroke="grey" stroke-width="5" />
<circle cx="299.6645886456639" cy="401.63769216625843" r="2.5" fill="grey" stroke="none" />
<path d="M299.6645886456639,401.63769216625843 A223.18024250567254,223.18024250567254,0,0,0,290.922752,421.92231424000005" stroke="grey" stroke-width="5" fill="none" />
<circle cx="226.922752" cy="365.92231424000005" r="5" fill="black" stroke="none" />
<circle cx="290.922752" cy="421.92231424000005" r="5" fill="black" stroke="none" />
<path d="M202.922752,421.92231424000005 L284.1501028570973,443.27044378554405" stroke="grey" stroke-width="5" />
<circle cx="284.1501028570973" cy="443.27044378554405" r="2.5" fill="grey" stroke="none" />
<path d="M284.1501028570973,443.270443785544 A223.18024250567254,223.18024250567254,0,0,1,290.922752,421.92231424000005" stroke="grey" stroke-width="5" fill="none" />
<circle cx="202.922752" cy="421.92231424000005" r="5" fill="black" stroke="none" />
<circle cx="290.922752" cy="421.92231424000005" r="5" fill="black" stroke="none" />
<path d="M290.922752,421.92231424000005 L364.5239350414661,449.4078971814582" stroke="grey" stroke-width="5" />
<circle cx="364.5239350414661" cy="449.4078971814582" r="2.5" fill="grey" stroke="none" />
<path d="M364.5239350414661,449.4078971814582 A144.61440123393936,144.61440123393936,0,0,0,362.922752,453.92231424000005" stroke="grey" stroke-width="5" fill="none" />
<circle cx="290.922752" cy="421.92231424000005" r="5" fill="black" stroke="none" />
<circle cx="362.922752" cy="453.92231424000005" r="5" fill="black" stroke="none" />
<path d="M362.922752,453.92231424000005 L381.7449852172957,460.24929380912585" stroke="grey" stroke-width="5" />
<circle cx="381.7449852172957" cy="460.24929380912585" r="2.5" fill="grey" stroke="none" />
<path d="M381.7449852172957,460.24929380912585 A124.75723291228773,124.75723291228773,0,0,0,378.92275199999995,469.9223142400001" stroke="grey" stroke-width="5" fill="none" />
<circle cx="362.922752" cy="453.92231424000005" r="5" fill="black" stroke="none" />
<circle cx="378.922752" cy="469.92231424000005" r="5" fill="black" stroke="none" />
<path d="M378.922752,469.92231424000005 L413.5301505557429,478.51939152681376" stroke="grey" stroke-width="5" />
<circle cx="413.5301505557429" cy="478.51939152681376" r="2.5" fill="grey" stroke="none" />
<path d="M413.5301505557429,478.5193915268138 A89.09798765006317,89.09798765006317,0,0,0,410.922752,501.92231424000005" stroke="grey" stroke-width="5" fill="none" />
<circle cx="378.922752" cy="469.92231424000005" r="5" fill="black" stroke="none" />
<circle cx="410.922752" cy="501.92231424000005" r="5" fill="black" stroke="none" />
<path d="M378.92275199999995,469.9223142400001 A124.75723291228773,124.75723291228773,0,0,0,385.69058892228134,549.9772518551785" stroke="grey" stroke-width="5" fill="none" />
<path d="M385.69058892228134,549.9772518551785 L-169.077248,73.92231424000005" stroke="grey" stroke-width="5" />
<circle cx="385.69058892228134" cy="549.9772518551785" r="2.5" fill="grey" stroke="none" />
<circle cx="378.922752" cy="469.92231424000005" r="5" fill="black" stroke="none" />
<circle cx="330.922752" cy="573.9223142400001" r="5" fill="black" stroke="none" />
<path d="M330.92275200000006,573.9223142400001 A184.53082217843937,184.53082217843937,0,0,0,363.5449405686129,624.2241566259455" stroke="grey" stroke-width="5" fill="none" />
<path d="M363.54494056861296,624.2241566259455 L-169.077248,153.92231424000005" stroke="grey" stroke-width="5" />
<circle cx="363.54494056861296" cy="624.2241566259455" r="2.5" fill="grey" stroke="none" />
<circle cx="330.922752" cy="573.9223142400001" r="5" fill="black" stroke="none" />
<circle cx="330.922752" cy="653.9223142400001" r="5" fill="black" stroke="none" />
<path d="M226.922752,669.9223142400001 L305.8686478706982,620.798231496574" stroke="grey" stroke-width="5" />
<circle cx="305.8686478706982" cy="620.798231496574" r="2.5" fill="grey" stroke="none" />
<path d="M305.8686478706982,620.798231496574 A228.64644019151234,228.64644019151234,0,0,0,330.92275199999995,653.92231424" stroke="grey" stroke-width="5" fill="none" />
<circle cx="226.922752" cy="669.9223142400001" r="5" fill="black" stroke="none" />
<circle cx="330.922752" cy="653.9223142400001" r="5" fill="black" stroke="none" />
<path d="M330.92275199999995,653.92231424 A228.64644019151234,228.64644019151234,0,0,0,379.9045184271404,694.5668777516712" stroke="grey" stroke-width="5" fill="none" />
<path d="M379.9045184271404,694.5668777516712 L-169.077248,273.92231424000005" stroke="grey" stroke-width="5" />
<circle cx="379.9045184271404" cy="694.5668777516712" r="2.5" fill="grey" stroke="none" />
<circle cx="330.922752" cy="653.9223142400001" r="5" fill="black" stroke="none" />
<circle cx="330.922752" cy="773.9223142400001" r="5" fill="black" stroke="none" />
<path d="M330.922752,573.9223142400001 L393.9387512358429,546.3710703395814" stroke="grey" stroke-width="5" />
<circle cx="393.9387512358429" cy="546.3710703395814" r="2.5" fill="grey" stroke="none" />
<path d="M393.9387512358429,546.3710703395814 A115.7551927727254,115.7551927727254,0,0,0,410.922752,573.9223142400001" stroke="grey" stroke-width="5" fill="none" />
<circle cx="330.922752" cy="573.9223142400001" r="5" fill="black" stroke="none" />
<circle cx="410.922752" cy="573.9223142400001" r="5" fill="black" stroke="none" />
<path d="M410.922752,501.92231424000005 A89.09798765006317,89.09798765006317,0,0,0,431.43630663906026,556.8987816741082" stroke="grey" stroke-width="5" fill="none" />
<path d="M431.43630663906026,556.8987816741082 L-89.077248,73.92231424000005" stroke="grey" stroke-width="5" />
<circle cx="431.43630663906026" cy="556.8987816741082" r="2.5" fill="grey" stroke="none" />
<circle cx="410.922752" cy="501.92231424000005" r="5" fill="black" stroke="none" />
<circle cx="410.922752" cy="573.9223142400001" r="5" fill="black" stroke="none" />
<path d="M410.922752,573.9223142400001 L441.61624570252775,548.4507809636048" stroke="grey" stroke-width="5" />
<circle cx="441.61624570252775" cy="548.4507809636048" r="2.5" fill="grey" stroke="none" />
<path d="M441.61624570252775,548.4507809636048 A75.86923580642431,75.86923580642431,0,0,0,482.922752,573.92231424" stroke="grey" stroke-width="5" fill="none" />
<circle cx="410.922752" cy="573.9223142400001" r="5" fill="black" stroke="none" />
<circle cx="482.922752" cy="573.9223142400001" r="5" fill="black" stroke="none" />
<path d="M410.922752,501.92231424000005 L450.8965513611679,501.05966743103176" stroke="grey" stroke-width="5" />
<circle cx="450.8965513611679" cy="501.05966743103176" r="2.5" fill="grey" stroke="none" />
<path d="M450.8965513611679,501.05966743103176 A49.11488128144881,49.11488128144881,0,0,0,450.922752,501.92231424000005" stroke="grey" stroke-width="5" fill="none" />
<circle cx="410.922752" cy="501.92231424000005" r="5" fill="black" stroke="none" />
<circle cx="450.922752" cy="501.92231424000005" r="5" fill="black" stroke="none" />
<path d="M482.922752,573.92231424 A75.86923580642431,75.86923580642431,0,0,0,568.4432058031773,532.7363486240406" stroke="grey" stroke-width="5" fill="none" />
<path d="M568.4432058031773,532.7363486240406 L70.922752,33.92231424000005" stroke="grey" stroke-width="5" />
<circle cx="568.4432058031773" cy="532.7363486240406" r="2.5" fill="grey" stroke="none" />
<circle cx="482.922752" cy="573.9223142400001" r="5" fill="black" stroke="none" />
<circle cx="570.922752" cy="533.9223142400001" r="5" fill="black" stroke="none" />
<path d="M450.922752,501.92231424000005 A49.11488128144881,49.11488128144881,0,0,0,549.1048129461784,500.99443894314163" stroke="grey" stroke-width="5" fill="none" />
<path d="M549.1048129461784,500.99443894314163 L94.922752,1.9223142400000484" stroke="grey" stroke-width="5" />
<circle cx="549.1048129461784" cy="500.99443894314163" r="2.5" fill="grey" stroke="none" />
<circle cx="450.922752" cy="501.92231424000005" r="5" fill="black" stroke="none" />
<circle cx="594.922752" cy="501.92231424000005" r="5" fill="black" stroke="none" />
<path d="M570.922752,533.9223142400001 A78.61781067067955,78.61781067067955,0,0,0,578.601694364269,501.5917907264695" stroke="grey" stroke-width="5" fill="none" />
<path d="M578.601694364269,501.5917907264695 L94.922752,1.9223142400000484" stroke="grey" stroke-width="5" />
<circle cx="578.601694364269" cy="501.5917907264695" r="2.5" fill="grey" stroke="none" />
<circle cx="570.922752" cy="533.9223142400001" r="5" fill="black" stroke="none" />
<circle cx="594.922752" cy="501.92231424000005" r="5" fill="black" stroke="none" />
<path d="M330.922752,653.9223142400001 L380.53342032893727,608.7584085666412" stroke="grey" stroke-width="5" />
<circle cx="380.53342032893727" cy="608.7584085666412" r="2.5" fill="grey" stroke="none" />
<path d="M380.5334203289372,608.7584085666412 A161.55697166093088,161.55697166093088,0,0,0,450.92275200000006,653.9223142400001" stroke="grey" stroke-width="5" fill="none" />
<circle cx="330.922752" cy="653.9223142400001" r="5" fill="black" stroke="none" />
<circle cx="450.922752" cy="653.9223142400001" r="5" fill="black" stroke="none" />
<path d="M450.922752,653.9223142400001 L477.35540786964634,571.0208532011602" stroke="grey" stroke-width="5" />
<circle cx="477.35540786964634" cy="571.0208532011602" r="2.5" fill="grey" stroke="none" />
<path d="M477.35540786964634,571.0208532011602 A74.54353856754331,74.54353856754331,0,0,0,546.922752,557.92231424" stroke="grey" stroke-width="5" fill="none" />
<circle cx="450.922752" cy="653.9223142400001" r="5" fill="black" stroke="none" />
<circle cx="546.922752" cy="557.9223142400001" r="5" fill="black" stroke="none" />
<path d="M546.922752,557.92231424 A74.54353856754331,74.54353856754331,0,0,0,567.2472669224308,532.1643316988582" stroke="grey" stroke-width="5" fill="none" />
<path d="M567.2472669224308,532.1643316988582 L70.922752,33.92231424000005" stroke="grey" stroke-width="5" />
<circle cx="567.2472669224308" cy="532.1643316988582" r="2.5" fill="grey" stroke="none" />
<circle cx="546.922752" cy="557.9223142400001" r="5" fill="black" stroke="none" />
<circle cx="570.922752" cy="533.9223142400001" r="5" fill="black" stroke="none" />
<path d="M570.922752,533.9223142400001 A78.61781067067955,78.61781067067955,0,0,1,560.8911508246819,549.7295476140359" stroke="grey" stroke-width="5" fill="none" />
<path d="M560.8911508246819,549.7295476140359 L70.922752,57.92231424000005" stroke="grey" stroke-width="5" />
<circle cx="560.8911508246819" cy="549.7295476140359" r="2.5" fill="grey" stroke="none" />
<circle cx="570.922752" cy="533.9223142400001" r="5" fill="black" stroke="none" />
<circle cx="570.922752" cy="557.9223142400001" r="5" fill="black" stroke="none" />
<path d="M570.9227520000001,557.9223142400001 A91.5698161960087,91.5698161960087,0,0,1,526.5686879741569,587.6306798872558" stroke="grey" stroke-width="5" fill="none" />
<path d="M526.5686879741569,587.6306798872558 L70.922752,233.92231424000005" stroke="grey" stroke-width="5" />
<circle cx="526.5686879741569" cy="587.6306798872558" r="2.5" fill="grey" stroke="none" />
<circle cx="570.922752" cy="557.9223142400001" r="5" fill="black" stroke="none" />
<circle cx="570.922752" cy="733.9223142400001" r="5" fill="black" stroke="none" />
<path d="M570.9227520000001,733.9223142400001 A244.43748863595133,244.43748863595133,0,0,0,641.9836723439935,698.9731706496239" stroke="grey" stroke-width="5" fill="none" />
<path d="M641.9836723439935,698.9731706496239 L166.922752,233.92231424000005" stroke="grey" stroke-width="5" />
<circle cx="641.9836723439935" cy="698.9731706496239" r="2.5" fill="grey" stroke="none" />
<circle cx="570.922752" cy="733.9223142400001" r="5" fill="black" stroke="none" />
<circle cx="666.922752" cy="733.9223142400001" r="5" fill="black" stroke="none" />
<path d="M570.9227520000001,733.9223142400001 A244.43748863595133,244.43748863595133,0,0,1,559.6346610898462,737.0514565391869" stroke="grey" stroke-width="5" fill="none" />
<path d="M559.6346610898462,737.0514565391869 L70.922752,281.92231424000005" stroke="grey" stroke-width="5" />
<circle cx="559.6346610898462" cy="737.0514565391869" r="2.5" fill="grey" stroke="none" />
<circle cx="570.922752" cy="733.9223142400001" r="5" fill="black" stroke="none" />
<circle cx="570.922752" cy="781.9223142400001" r="5" fill="black" stroke="none" />
<path d="M258.922752,357.92231424000005 L370.50107653690975,423.68044887401726" stroke="grey" stroke-width="5" />
<circle cx="370.50107653690975" cy="423.68044887401726" r="2.5" fill="grey" stroke="none" />
<path d="M370.50107653690975,423.68044887401726 A150.31515247030418,150.31515247030418,0,0,1,450.92275199999995,357.9223142400001" stroke="grey" stroke-width="5" fill="none" />
<circle cx="258.922752" cy="357.92231424000005" r="5" fill="black" stroke="none" />
<circle cx="450.922752" cy="357.92231424000005" r="5" fill="black" stroke="none" />
<path d="M450.922752,357.92231424000005 L483.96420341178566,453.57667837097154" stroke="grey" stroke-width="5" />
<circle cx="483.96420341178566" cy="453.57667837097154" r="2.5" fill="grey" stroke="none" />
<path d="M483.96420341178566,453.57667837097154 A49.11488128144881,49.11488128144881,0,0,0,450.922752,501.92231424000005" stroke="grey" stroke-width="5" fill="none" />
<circle cx="450.922752" cy="357.92231424000005" r="5" fill="black" stroke="none" />
<circle cx="450.922752" cy="501.92231424000005" r="5" fill="black" stroke="none" />
<path d="M450.92275199999995,357.9223142400001 A150.31515247030418,150.31515247030418,0,0,1,467.5642455664586,353.22613687547164" stroke="grey" stroke-width="5" fill="none" />
<path d="M467.56424556645857,353.22613687547164 L-49.077248,-222.07768575999995" stroke="grey" stroke-width="5" />
<circle cx="467.56424556645857" cy="353.22613687547164" r="2.5" fill="grey" stroke="none" />
<circle cx="450.922752" cy="357.92231424000005" r="5" fill="black" stroke="none" />
<circle cx="450.922752" cy="277.92231424000005" r="5" fill="black" stroke="none" />
<path d="M450.92275200000006,277.92231424 A227.43586960673287,227.43586960673287,0,0,1,460.47129834360453,276.0255449183312" stroke="grey" stroke-width="5" fill="none" />
<path d="M460.47129834360453,276.0255449183312 L-49.077248,-278.07768575999995" stroke="grey" stroke-width="5" />
<circle cx="460.47129834360453" cy="276.0255449183312" r="2.5" fill="grey" stroke="none" />
<circle cx="450.922752" cy="277.92231424000005" r="5" fill="black" stroke="none" />
<circle cx="450.922752" cy="221.92231424000005" r="5" fill="black" stroke="none" />
<path d="M450.922752,277.92231424000005 L470.97124132641045,368.64301057149146" stroke="grey" stroke-width="5" />
<circle cx="470.97124132641045" cy="368.64301057149146" r="2.5" fill="grey" stroke="none" />
<path d="M470.9712413264105,368.64301057149146 A134.52630784293012,134.52630784293012,0,0,1,546.922752,373.92231424" stroke="grey" stroke-width="5" fill="none" />
<circle cx="450.922752" cy="277.92231424000005" r="5" fill="black" stroke="none" />
<circle cx="546.922752" cy="373.92231424000005" r="5" fill="black" stroke="none" />
<path d="M450.922752,357.92231424000005 L456.0777415714218,372.8459095570103" stroke="grey" stroke-width="5" />
<circle cx="456.0777415714218" cy="372.8459095570103" r="2.5" fill="grey" stroke="none" />
<path d="M456.0777415714218,372.8459095570103 A134.52630784293012,134.52630784293012,0,0,1,546.922752,373.92231424" stroke="grey" stroke-width="5" fill="none" />
<circle cx="450.922752" cy="357.92231424000005" r="5" fill="black" stroke="none" />
<circle cx="546.922752" cy="373.92231424000005" r="5" fill="black" stroke="none" />
<path d="M546.922752,373.92231424000005 L538.1050433216255,397.61479297345807" stroke="grey" stroke-width="5" />
<circle cx="538.1050433216255" cy="397.61479297345807" r="2.5" fill="grey" stroke="none" />
<path d="M538.1050433216254,397.61479297345807 A109.24616672639276,109.24616672639276,0,0,1,594.922752,445.92231424000005" stroke="grey" stroke-width="5" fill="none" />
<circle cx="546.922752" cy="373.92231424000005" r="5" fill="black" stroke="none" />
<circle cx="594.922752" cy="445.92231424000005" r="5" fill="black" stroke="none" />
<path d="M546.922752,557.92231424 A74.54353856754331,74.54353856754331,0,0,0,557.7355412367722,547.1523744923603" stroke="grey" stroke-width="5" fill="none" />
<path d="M557.7355412367722,547.1523744923603 L70.922752,57.92231424000005" stroke="grey" stroke-width="5" />
<circle cx="557.7355412367722" cy="547.1523744923603" r="2.5" fill="grey" stroke="none" />
<circle cx="546.922752" cy="557.9223142400001" r="5" fill="black" stroke="none" />
<circle cx="570.922752" cy="557.9223142400001" r="5" fill="black" stroke="none" />
<path d="M570.9227520000001,557.9223142400001 A91.5698161960087,91.5698161960087,0,0,0,578.1663665269828,547.6974882162594" stroke="grey" stroke-width="5" fill="none" />
<path d="M578.1663665269828,547.6974882162594 L94.922752,57.92231424000005" stroke="grey" stroke-width="5" />
<circle cx="578.1663665269828" cy="547.6974882162594" r="2.5" fill="grey" stroke="none" />
<circle cx="570.922752" cy="557.9223142400001" r="5" fill="black" stroke="none" />
<circle cx="594.922752" cy="557.9223142400001" r="5" fill="black" stroke="none" />
<path d="M594.922752,557.9223142400001 L581.0451332585557,549.4541253526313" stroke="grey" stroke-width="5" />
<circle cx="581.0451332585557" cy="549.4541253526313" r="2.5" fill="grey" stroke="none" />
<path d="M581.0451332585557,549.4541253526313 A94.94221473765404,94.94221473765404,0,0,0,594.922752,501.92231424000005" stroke="grey" stroke-width="5" fill="none" />
<circle cx="594.922752" cy="557.9223142400001" r="5" fill="black" stroke="none" />
<circle cx="594.922752" cy="501.92231424000005" r="5" fill="black" stroke="none" />
<path d="M594.922752,501.92231424000005 A94.94221473765404,94.94221473765404,0,0,0,593.9150069916257,486.0717696366799" stroke="grey" stroke-width="5" fill="none" />
<path d="M593.9150069916257,486.0717696366799 L94.922752,-14.077685759999952" stroke="grey" stroke-width="5" />
<circle cx="593.9150069916257" cy="486.0717696366799" r="2.5" fill="grey" stroke="none" />
<circle cx="594.922752" cy="501.92231424000005" r="5" fill="black" stroke="none" />
<circle cx="594.922752" cy="485.92231424000005" r="5" fill="black" stroke="none" />
<path d="M594.922752,485.92231424000005 A95.96098208965356,95.96098208965356,0,0,0,591.478436340411,471.01369688414593" stroke="grey" stroke-width="5" fill="none" />
<path d="M591.478436340411,471.01369688414593 L94.922752,-30.07768575999995" stroke="grey" stroke-width="5" />
<circle cx="591.478436340411" cy="471.01369688414593" r="2.5" fill="grey" stroke="none" />
<circle cx="594.922752" cy="485.92231424000005" r="5" fill="black" stroke="none" />
<circle cx="594.922752" cy="469.92231424000005" r="5" fill="black" stroke="none" />
<path d="M594.922752,469.92231424000005 A99.57407307090942,99.57407307090942,0,0,0,586.518779806819,450.71007436940107" stroke="grey" stroke-width="5" fill="none" />
<path d="M586.518779806819,450.71007436940107 L94.922752,-54.07768575999995" stroke="grey" stroke-width="5" />
<circle cx="586.518779806819" cy="450.71007436940107" r="2.5" fill="grey" stroke="none" />
<circle cx="594.922752" cy="469.92231424000005" r="5" fill="black" stroke="none" />
<circle cx="594.922752" cy="445.92231424000005" r="5" fill="black" stroke="none" />
<path d="M594.922752,445.92231424000005 A109.24616672639276,109.24616672639276,0,0,1,602.176720802138,461.33939122914967" stroke="grey" stroke-width="5" fill="none" />
<path d="M602.176720802138,461.33939122914967 L142.922752,-54.07768575999995" stroke="grey" stroke-width="5" />
<circle cx="602.176720802138" cy="461.33939122914967" r="2.5" fill="grey" stroke="none" />
<circle cx="594.922752" cy="445.92231424000005" r="5" fill="black" stroke="none" />
<circle cx="642.922752" cy="445.92231424000005" r="5" fill="black" stroke="none" />
<path d="M642.922752,445.92231424000005 L634.3209406639007,449.1769818411415" stroke="grey" stroke-width="5" />
<circle cx="634.3209406639007" cy="449.1769818411415" r="2.5" fill="grey" stroke="none" />
<path d="M634.3209406639007,449.1769818411415 A143.61439438862251,143.61439438862251,0,0,1,642.922752,485.92231424000005" stroke="grey" stroke-width="5" fill="none" />
<circle cx="642.922752" cy="445.92231424000005" r="5" fill="black" stroke="none" />
<circle cx="642.922752" cy="485.92231424000005" r="5" fill="black" stroke="none" />
<path d="M642.922752,485.92231424000005 L595.4988370299637,490.59350173894444" stroke="grey" stroke-width="5" />
<circle cx="595.4988370299637" cy="490.59350173894444" r="2.5" fill="grey" stroke="none" />
<path d="M595.4988370299637,490.59350173894444 A95.96098208965356,95.96098208965356,0,0,0,594.922752,485.92231424000005" stroke="grey" stroke-width="5" fill="none" />
<circle cx="642.922752" cy="485.92231424000005" r="5" fill="black" stroke="none" />
<circle cx="594.922752" cy="485.92231424000005" r="5" fill="black" stroke="none" />
<path d="M594.922752,469.92231424000005 A99.57407307090942,99.57407307090942,0,0,1,598.1339146635078,483.12603126866173" stroke="grey" stroke-width="5" fill="none" />
<path d="M598.1339146635078,483.12603126866173 L174.922752,-30.07768575999995" stroke="grey" stroke-width="5" />
<circle cx="598.1339146635078" cy="483.12603126866173" r="2.5" fill="grey" stroke="none" />
<circle cx="594.922752" cy="469.92231424000005" r="5" fill="black" stroke="none" />
<circle cx="674.922752" cy="469.92231424000005" r="5" fill="black" stroke="none" />
<circle cx="500" cy="500" r="5" fill="red" stroke="none" />
</svg>