<?xml version="1.0" encoding="UTF-8"?>
<svg xmlns="http://www.w3.org/2000/svg" xmlns:xlink="http://www.w3.org/1999/xlink"
     width="1000" height="1000" viewBox="0 0 1000 1000">
<defs>
</defs>
<rect x="0" y="0" width="1000" height="1000" fill="white" />
<path d="M380.14271199999996,263.2445542399999 L416.49888769143564,335.0593159919488" stroke="grey" stroke-width="5" />
<circle cx="416.49888769143564" cy="335.0593159919488" r="2.5" fill="grey" stroke="none" />
<path d="M416.4988876914357,335.0593159919487 A184.87256421062398,184.87256421062398,0,0,0,380.1427120000001,359.24455423999984" stroke="grey" stroke-width="5" fill="none" />
<circle cx="380.14271199999996" cy="263.2445542399999" r="5" fill="black" stroke="none" />
<circle cx="380.14271199999996" cy="359.2445542399999" r="5" fill="black" stroke="none" />
<path d="M380.14271199999996,359.2445542399999 L434.1910687996086,422.71671084281274" stroke="grey" stroke-width="5" />
<circle cx="434.1910687996086" cy="422.71671084281274" r="2.5" fill="grey" stroke="none" />
<path d="M434.1910687996087,422.71671084281274 A101.50626684442328,101.50626684442328,0,0,1,444.14271199999996,415.2445542399999" stroke="grey" stroke-width="5" fill="none" />
<circle cx="380.14271199999996" cy="359.2445542399999" r="5" fill="black" stroke="none" />
<circle cx="444.14271199999996" cy="415.2445542399999" r="5" fill="black" stroke="none" />
<path d="M356.14271199999996,415.2445542399999 L412.54376765459915,448.4739907169348" stroke="grey" stroke-width="5" />
<circle cx="412.54376765459915" cy="448.4739907169348" r="2.5" fill="grey" stroke="none" />
<path d="M412.54376765459915,448.47399071693474 A101.50626684442328,101.50626684442328,0,0,1,444.14271199999996,415.2445542399999" stroke="grey" stroke-width="5" fill="none" />
<circle cx="356.14271199999996" cy="415.2445542399999" r="5" fill="black" stroke="none" />
<circle cx="444.14271199999996" cy="415.2445542399999" r="5" fill="black" stroke="none" />
<path d="M444.14271199999996,415.2445542399999 L469.64084780614985,453.9343285501893" stroke="grey" stroke-width="5" />
<circle cx="469.64084780614985" cy="453.9343285501893" r="2.5" fill="grey" stroke="none" />
<path d="M469.64084780614985,453.9343285501893 A55.16995747733775,55.16995747733775,0,0,1,516.142712,447.2445542399999" stroke="grey" stroke-width="5" fill="none" />
<circle cx="444.14271199999996" cy="415.2445542399999" r="5" fill="black" stroke="none" />
<circle cx="516.142712" cy="447.2445542399999" r="5" fill="black" stroke="none" />
<path d="M516.142712,447.2445542399999 L514.286886905079,453.309512850124" stroke="grey" stroke-width="5" />
<circle cx="514.286886905079" cy="453.309512850124" r="2.5" fill="grey" stroke="none" />
<path d="M514.286886905079,453.309512850124 A48.82741778684648,48.82741778684648,0,0,1,532.142712,463.2445542399999" stroke="grey" stroke-width="5" fill="none" />
<circle cx="516.142712" cy="447.2445542399999" r="5" fill="black" stroke="none" />
<circle cx="532.142712" cy="463.2445542399999" r="5" fill="black" stroke="none" />
<path d="M532.142712,463.2445542399999 A48.82741778684648,48.82741778684648,0,0,1,548.6937780063663,496.38991534753376" stroke="grey" stroke-width="5" fill="none" />
<path d="M548.6937780063663,496.38991534753376 L64.14271199999999,-4.7554457600001" stroke="grey" stroke-width="5" />
<circle cx="548.6937780063663" cy="496.38991534753376" r="2.5" fill="grey" stroke="none" />
<circle cx="532.142712" cy="463.2445542399999" r="5" fill="black" stroke="none" />
<circle cx="564.142712" cy="495.2445542399999" r="5" fill="black" stroke="none" />
<path d="M532.142712,463.2445542399999 A48.82741778684648,48.82741778684648,0,0,1,488.79313734272444,547.5239198416147" stroke="grey" stroke-width="5" fill="none" />
<path d="M488.79313734272444,547.5239198416147 L-15.857288000000011,67.2445542399999" stroke="grey" stroke-width="5" />
<circle cx="488.79313734272444" cy="547.5239198416147" r="2.5" fill="grey" stroke="none" />
<circle cx="532.142712" cy="463.2445542399999" r="5" fill="black" stroke="none" />
<circle cx="484.14271199999996" cy="567.2445542399998" r="5" fill="black" stroke="none" />
<path d="M484.142712,567.24455424 A69.08895467186657,69.08895467186657,0,0,0,492.6023405524863,568.6917629148492" stroke="grey" stroke-width="5" fill="none" />
<path d="M492.6023405524863,568.6917629148492 L-15.857288000000011,147.2445542399999" stroke="grey" stroke-width="5" />
<circle cx="492.6023405524863" cy="568.6917629148492" r="2.5" fill="grey" stroke="none" />
<circle cx="484.14271199999996" cy="567.2445542399998" r="5" fill="black" stroke="none" />
<circle cx="484.14271199999996" cy="647.2445542399998" r="5" fill="black" stroke="none" />
<path d="M380.14271199999996,663.2445542399998 L412.3526779598108,619.3748686920098" stroke="grey" stroke-width="5" />
<circle cx="412.3526779598108" cy="619.3748686920098" r="2.5" fill="grey" stroke="none" />
<path d="M412.3526779598108,619.3748686920098 A148.0959565148597,148.0959565148597,0,0,0,484.142712,647.2445542399998" stroke="grey" stroke-width="5" fill="none" />
<circle cx="380.14271199999996" cy="663.2445542399998" r="5" fill="black" stroke="none" />
<circle cx="484.14271199999996" cy="647.2445542399998" r="5" fill="black" stroke="none" />
<path d="M484.142712,647.2445542399998 A148.0959565148597,148.0959565148597,0,0,0,491.2279708991032,647.8359355552777" stroke="grey" stroke-width="5" fill="none" />
<path d="M491.2279708991032,647.8359355552777 L-15.857288000000011,267.2445542399999" stroke="grey" stroke-width="5" />
<circle cx="491.2279708991032" cy="647.8359355552777" r="2.5" fill="grey" stroke="none" />
<circle cx="484.14271199999996" cy="647.2445542399998" r="5" fill="black" stroke="none" />
<circle cx="484.14271199999996" cy="767.2445542399998" r="5" fill="black" stroke="none" />
<path d="M484.142712,567.24455424 A69.08895467186657,69.08895467186657,0,0,0,547.6866338162428,549.9926855942628" stroke="grey" stroke-width="5" fill="none" />
<path d="M547.6866338162428,549.9926855942628 L64.14271199999999,67.2445542399999" stroke="grey" stroke-width="5" />
<circle cx="547.6866338162428" cy="549.9926855942628" r="2.5" fill="grey" stroke="none" />
<circle cx="484.14271199999996" cy="567.2445542399998" r="5" fill="black" stroke="none" />
<circle cx="564.142712" cy="567.2445542399998" r="5" fill="black" stroke="none" />
<path d="M564.142712,495.2445542399999 A64.31875128678453,64.31875128678453,0,0,1,544.3941402022665,546.5409720868907" stroke="grey" stroke-width="5" fill="none" />
<path d="M544.3941402022666,546.5409720868907 L64.14271199999999,67.2445542399999" stroke="grey" stroke-width="5" />
<circle cx="544.3941402022666" cy="546.5409720868907" r="2.5" fill="grey" stroke="none" />
<circle cx="564.142712" cy="495.2445542399999" r="5" fill="black" stroke="none" />
<circle cx="564.142712" cy="567.2445542399998" r="5" fill="black" stroke="none" />
<path d="M564.142712,567.2445542399998 A92.93071385527624,92.93071385527624,0,0,0,583.3211771211702,541.1545747249781" stroke="grey" stroke-width="5" fill="none" />
<path d="M583.3211771211702,541.1545747249781 L136.142712,67.2445542399999" stroke="grey" stroke-width="5" />
<circle cx="583.3211771211702" cy="541.1545747249781" r="2.5" fill="grey" stroke="none" />
<circle cx="564.142712" cy="567.2445542399998" r="5" fill="black" stroke="none" />
<circle cx="636.142712" cy="567.2445542399998" r="5" fill="black" stroke="none" />
<path d="M564.142712,495.2445542399999 A64.31875128678453,64.31875128678453,0,0,1,564.2518007908152,497.06608414765446" stroke="grey" stroke-width="5" fill="none" />
<path d="M564.2518007908152,497.06608414765446 L104.14271199999999,-4.7554457600001" stroke="grey" stroke-width="5" />
<circle cx="564.2518007908152" cy="497.06608414765446" r="2.5" fill="grey" stroke="none" />
<circle cx="564.142712" cy="495.2445542399999" r="5" fill="black" stroke="none" />
<circle cx="604.142712" cy="495.2445542399999" r="5" fill="black" stroke="none" />
<path d="M636.1427120000001,567.2445542399998 A151.84422315534837,151.84422315534837,0,0,0,650.7347970081428,518.3218196848788" stroke="grey" stroke-width="5" fill="none" />
<path d="M650.7347970081428,518.3218196848788 L224.142712,27.2445542399999" stroke="grey" stroke-width="5" />
<circle cx="650.7347970081428" cy="518.3218196848788" r="2.5" fill="grey" stroke="none" />
<circle cx="636.142712" cy="567.2445542399998" r="5" fill="black" stroke="none" />
<circle cx="724.142712" cy="527.2445542399998" r="5" fill="black" stroke="none" />
<path d="M604.142712,495.2445542399999 A104.25122889966931,104.25122889966931,0,0,1,604.232090262993,498.0024799128612" stroke="grey" stroke-width="5" fill="none" />
<path d="M604.232090262993,498.0024799128612 L248.142712,-4.7554457600001" stroke="grey" stroke-width="5" />
<circle cx="604.232090262993" cy="498.0024799128612" r="2.5" fill="grey" stroke="none" />
<circle cx="604.142712" cy="495.2445542399999" r="5" fill="black" stroke="none" />
<circle cx="748.142712" cy="495.2445542399999" r="5" fill="black" stroke="none" />
<path d="M724.142712,527.2445542399998 A225.79242918763072,225.79242918763072,0,0,0,725.7509777888118,495.6736729380886" stroke="grey" stroke-width="5" fill="none" />
<path d="M725.7509777888118,495.6736729380886 L248.142712,-4.7554457600001" stroke="grey" stroke-width="5" />
<circle cx="725.7509777888118" cy="495.6736729380886" r="2.5" fill="grey" stroke="none" />
<circle cx="724.142712" cy="527.2445542399998" r="5" fill="black" stroke="none" />
<circle cx="748.142712" cy="495.2445542399999" r="5" fill="black" stroke="none" />
<path d="M484.142712,647.2445542399998 A148.0959565148597,148.0959565148597,0,0,0,585.5169745047808,620.9101294664756" stroke="grey" stroke-width="5" fill="none" />
<path d="M585.5169745047808,620.9101294664756 L104.14271199999999,147.2445542399999" stroke="grey" stroke-width="5" />
<circle cx="585.5169745047808" cy="620.9101294664756" r="2.5" fill="grey" stroke="none" />
<circle cx="484.14271199999996" cy="647.2445542399998" r="5" fill="black" stroke="none" />
<circle cx="604.142712" cy="647.2445542399998" r="5" fill="black" stroke="none" />
<path d="M604.1427120000001,647.2445542399998 A180.3514990679346,180.3514990679346,0,0,0,674.7155306001238,544.7341769027713" stroke="grey" stroke-width="5" fill="none" />
<path d="M674.7155306001238,544.7341769027713 L200.142712,51.2445542399999" stroke="grey" stroke-width="5" />
<circle cx="674.7155306001238" cy="544.7341769027713" r="2.5" fill="grey" stroke="none" />
<circle cx="604.142712" cy="647.2445542399998" r="5" fill="black" stroke="none" />
<circle cx="700.142712" cy="551.2445542399998" r="5" fill="black" stroke="none" />
<path d="M700.142712,551.24455424 A206.59890974051928,206.59890974051928,0,0,0,705.0894270108681,524.9286268038378" stroke="grey" stroke-width="5" fill="none" />
<path d="M705.0894270108681,524.9286268038378 L224.142712,27.2445542399999" stroke="grey" stroke-width="5" />
<circle cx="705.0894270108681" cy="524.9286268038378" r="2.5" fill="grey" stroke="none" />
<circle cx="700.142712" cy="551.2445542399998" r="5" fill="black" stroke="none" />
<circle cx="724.142712" cy="527.2445542399998" r="5" fill="black" stroke="none" />
<path d="M724.142712,527.2445542399998 A225.79242918763072,225.79242918763072,0,0,1,720.1131242250028,550.3232910525504" stroke="grey" stroke-width="5" fill="none" />
<path d="M720.1131242250028,550.3232910525504 L224.142712,51.2445542399999" stroke="grey" stroke-width="5" />
<circle cx="720.1131242250028" cy="550.3232910525504" r="2.5" fill="grey" stroke="none" />
<circle cx="724.142712" cy="527.2445542399998" r="5" fill="black" stroke="none" />
<circle cx="724.142712" cy="551.2445542399998" r="5" fill="black" stroke="none" />
<path d="M724.142712,551.24455424 A229.9259874002311,229.9259874002311,0,0,1,661.461180424895,663.6955921757539" stroke="grey" stroke-width="5" fill="none" />
<path d="M661.461180424895,663.6955921757539 L224.142712,227.2445542399999" stroke="grey" stroke-width="5" />
<circle cx="661.461180424895" cy="663.6955921757539" r="2.5" fill="grey" stroke="none" />
<circle cx="724.142712" cy="551.2445542399998" r="5" fill="black" stroke="none" />
<circle cx="724.142712" cy="727.2445542399998" r="5" fill="black" stroke="none" />
<path d="M724.142712,727.2445542399998 A319.18653288390976,319.18653288390976,0,0,0,760.2810536176803,684.7533921261568" stroke="grey" stroke-width="5" fill="none" />
<path d="M760.2810536176803,684.7533921261568 L320.14271199999996,227.2445542399999" stroke="grey" stroke-width="5" />
<circle cx="760.2810536176803" cy="684.7533921261568" r="2.5" fill="grey" stroke="none" />
<circle cx="724.142712" cy="727.2445542399998" r="5" fill="black" stroke="none" />
<circle cx="820.142712" cy="727.2445542399998" r="5" fill="black" stroke="none" />
<path d="M724.142712,727.2445542399998 A319.18653288390976,319.18653288390976,0,0,1,701.550897486534,747.5020777626399" stroke="grey" stroke-width="5" fill="none" />
<path d="M701.550897486534,747.5020777626398 L224.142712,275.2445542399999" stroke="grey" stroke-width="5" />
<circle cx="701.550897486534" cy="747.5020777626398" r="2.5" fill="grey" stroke="none" />
<circle cx="724.142712" cy="727.2445542399998" r="5" fill="black" stroke="none" />
<circle cx="724.142712" cy="775.2445542399998" r="5" fill="black" stroke="none" />
<path d="M412.142712,351.24455423999984 A172.76309124917648,172.76309124917648,0,0,1,599.0820026445977,358.47317409795687" stroke="grey" stroke-width="5" fill="none" />
<path d="M599.0820026445977,358.47317409795687 L104.14271199999999,-148.7554457600001" stroke="grey" stroke-width="5" />
<circle cx="599.0820026445977" cy="358.47317409795687" r="2.5" fill="grey" stroke="none" />
<circle cx="412.14271199999996" cy="351.2445542399999" r="5" fill="black" stroke="none" />
<circle cx="604.142712" cy="351.2445542399999" r="5" fill="black" stroke="none" />
<path d="M604.142712,351.2445542399999 L559.7895098012656,414.5978147538624" stroke="grey" stroke-width="5" />
<circle cx="559.7895098012656" cy="414.5978147538624" r="2.5" fill="grey" stroke="none" />
<path d="M559.7895098012656,414.5978147538624 A104.25122889966931,104.25122889966931,0,0,1,604.142712,495.2445542399999" stroke="grey" stroke-width="5" fill="none" />
<circle cx="604.142712" cy="351.2445542399999" r="5" fill="black" stroke="none" />
<circle cx="604.142712" cy="495.2445542399999" r="5" fill="black" stroke="none" />
<path d="M604.1427120000001,351.2445542399999 A181.5871336465535,181.5871336465535,0,0,0,575.2388521720618,334.7335417279056" stroke="grey" stroke-width="5" fill="none" />
<path d="M575.2388521720618,334.7335417279056 L104.14271199999999,-228.7554457600001" stroke="grey" stroke-width="5" />
<circle cx="575.2388521720618" cy="334.7335417279056" r="2.5" fill="grey" stroke="none" />
<circle cx="604.142712" cy="351.2445542399999" r="5" fill="black" stroke="none" />
<circle cx="604.142712" cy="271.2445542399999" r="5" fill="black" stroke="none" />
<path d="M604.1427120000001,271.24455423999996 A251.34589399385717,251.34589399385717,0,0,0,586.3314063680177,263.94567002045596" stroke="grey" stroke-width="5" fill="none" />
<path d="M586.3314063680178,263.94567002045596 L104.14271199999999,-284.7554457600001" stroke="grey" stroke-width="5" />
<circle cx="586.3314063680178" cy="263.94567002045596" r="2.5" fill="grey" stroke="none" />
<circle cx="604.142712" cy="271.2445542399999" r="5" fill="black" stroke="none" />
<circle cx="604.142712" cy="215.2445542399999" r="5" fill="black" stroke="none" />
<path d="M604.142712,271.2445542399999 L599.5116451244453,281.41695850254587" stroke="grey" stroke-width="5" />
<circle cx="599.5116451244453" cy="281.41695850254587" r="2.5" fill="grey" stroke="none" />
<path d="M599.5116451244453,281.4169585025459 A240.1689271026776,240.1689271026776,0,0,1,700.142712,367.2445542399999" stroke="grey" stroke-width="5" fill="none" />
<circle cx="604.142712" cy="271.2445542399999" r="5" fill="black" stroke="none" />
<circle cx="700.142712" cy="367.2445542399999" r="5" fill="black" stroke="none" />
<path d="M604.1427120000001,351.2445542399999 A181.5871336465535,181.5871336465535,0,0,1,651.3240777263,399.6261458035211" stroke="grey" stroke-width="5" fill="none" />
<path d="M651.3240777263,399.6261458035211 L200.142712,-132.7554457600001" stroke="grey" stroke-width="5" />
<circle cx="651.3240777263" cy="399.6261458035211" r="2.5" fill="grey" stroke="none" />
<circle cx="604.142712" cy="351.2445542399999" r="5" fill="black" stroke="none" />
<circle cx="700.142712" cy="367.2445542399999" r="5" fill="black" stroke="none" />
<path d="M700.142712,367.2445542399999 A240.1689271026776,240.1689271026776,0,0,1,733.2785167179054,442.8839148440194" stroke="grey" stroke-width="5" fill="none" />
<path d="M733.2785167179054,442.8839148440194 L248.142712,-60.7554457600001" stroke="grey" stroke-width="5" />
<circle cx="733.2785167179054" cy="442.8839148440194" r="2.5" fill="grey" stroke="none" />
<circle cx="700.142712" cy="367.2445542399999" r="5" fill="black" stroke="none" />
<circle cx="748.142712" cy="439.2445542399999" r="5" fill="black" stroke="none" />
<path d="M700.142712,551.24455424 A206.59890974051928,206.59890974051928,0,0,0,701.4023749515347,546.0455521180128" stroke="grey" stroke-width="5" fill="none" />
<path d="M701.4023749515347,546.0455521180128 L224.142712,51.2445542399999" stroke="grey" stroke-width="5" />
<circle cx="701.4023749515347" cy="546.0455521180128" r="2.5" fill="grey" stroke="none" />
<circle cx="700.142712" cy="551.2445542399998" r="5" fill="black" stroke="none" />
<circle cx="724.142712" cy="551.2445542399998" r="5" fill="black" stroke="none" />
<path d="M724.142712,551.24455424 A229.9259874002311,229.9259874002311,0,0,0,725.1745644487783,546.5013462952874" stroke="grey" stroke-width="5" fill="none" />
<path d="M725.1745644487783,546.5013462952874 L248.142712,51.2445542399999" stroke="grey" stroke-width="5" />
<circle cx="725.1745644487783" cy="546.5013462952874" r="2.5" fill="grey" stroke="none" />
<circle cx="724.142712" cy="551.2445542399998" r="5" fill="black" stroke="none" />
<circle cx="748.142712" cy="551.2445542399998" r="5" fill="black" stroke="none" />
<path d="M748.142712,551.2445542399998 L743.0594615559116,550.1947998426288" stroke="grey" stroke-width="5" />
<circle cx="743.0594615559116" cy="550.1947998426288" r="2.5" fill="grey" stroke="none" />
<path d="M743.0594615559116,550.1947998426288 A248.18827487029125,248.18827487029125,0,0,0,748.1427120000001,495.2445542399999" stroke="grey" stroke-width="5" fill="none" />
<circle cx="748.142712" cy="551.2445542399998" r="5" fill="black" stroke="none" />
<circle cx="748.142712" cy="495.2445542399999" r="5" fill="black" stroke="none" />
<path d="M748.1427120000001,495.2445542399999 A248.18827487029125,248.18827487029125,0,0,0,747.3246188227106,479.3129821556578" stroke="grey" stroke-width="5" fill="none" />
<path d="M747.3246188227106,479.3129821556578 L248.142712,-20.7554457600001" stroke="grey" stroke-width="5" />
<circle cx="747.3246188227106" cy="479.3129821556578" r="2.5" fill="grey" stroke="none" />
<circle cx="748.142712" cy="495.2445542399999" r="5" fill="black" stroke="none" />
<circle cx="748.142712" cy="479.2445542399999" r="5" fill="black" stroke="none" />
<path d="M748.142712,479.2445542399999 A249.00922482392343,249.00922482392343,0,0,0,746.3217136474226,463.5142845320473" stroke="grey" stroke-width="5" fill="none" />
<path d="M746.3217136474226,463.5142845320473 L248.142712,-36.7554457600001" stroke="grey" stroke-width="5" />
<circle cx="746.3217136474226" cy="463.5142845320473" r="2.5" fill="grey" stroke="none" />
<circle cx="748.142712" cy="479.2445542399999" r="5" fill="black" stroke="none" />
<circle cx="748.142712" cy="463.2445542399999" r="5" fill="black" stroke="none" />
<path d="M748.142712,463.2445542399999 A250.85009131298168,250.85009131298168,0,0,0,743.6532399340142,440.3437599124036" stroke="grey" stroke-width="5" fill="none" />
<path d="M743.6532399340142,440.3437599124036 L248.142712,-60.7554457600001" stroke="grey" stroke-width="5" />
<circle cx="743.6532399340142" cy="440.3437599124036" r="2.5" fill="grey" stroke="none" />
<circle cx="748.142712" cy="463.2445542399999" r="5" fill="black" stroke="none" />
<circle cx="748.142712" cy="439.2445542399999" r="5" fill="black" stroke="none" />
<path d="M748.1427120000001,439.2445542399999 A255.47217012467573,255.47217012467573,0,0,1,750.2598598667323,448.6576953410271" stroke="grey" stroke-width="5" fill="none" />
<path d="M750.2598598667323,448.6576953410271 L296.14271199999996,-60.7554457600001" stroke="grey" stroke-width="5" />
<circle cx="750.2598598667323" cy="448.6576953410271" r="2.5" fill="grey" stroke="none" />
<circle cx="748.142712" cy="439.2445542399999" r="5" fill="black" stroke="none" />
<circle cx="796.142712" cy="439.2445542399999" r="5" fill="black" stroke="none" />
<path d="M796.142712,439.2445542399999 L790.8122350837331,440.3381334099009" stroke="grey" stroke-width="5" />
<circle cx="790.8122350837331" cy="440.3381334099009" r="2.5" fill="grey" stroke="none" />
<path d="M790.8122350837331,440.3381334099009 A296.8691536677585,296.8691536677585,0,0,1,796.142712,479.2445542399999" stroke="grey" stroke-width="5" fill="none" />
<circle cx="796.142712" cy="439.2445542399999" r="5" fill="black" stroke="none" />
<circle cx="796.142712" cy="479.2445542399999" r="5" fill="black" stroke="none" />
<path d="M796.142712,479.2445542399999 L748.3998968613059,482.5906551902771" stroke="grey" stroke-width="5" />
<circle cx="748.3998968613059" cy="482.5906551902771" r="2.5" fill="grey" stroke="none" />
<path d="M748.3998968613059,482.5906551902771 A249.00922482392343,249.00922482392343,0,0,0,748.142712,479.2445542399999" stroke="grey" stroke-width="5" fill="none" />
<circle cx="796.142712" cy="479.2445542399999" r="5" fill="black" stroke="none" />
<circle cx="748.142712" cy="479.2445542399999" r="5" fill="black" stroke="none" />
<path d="M748.142712,463.2445542399999 A250.85009131298168,250.85009131298168,0,0,1,749.2911174597086,472.0767647393609" stroke="grey" stroke-width="5" fill="none" />
<path d="M749.2911174597086,472.0767647393609 L328.14271199999996,-36.7554457600001" stroke="grey" stroke-width="5" />
<circle cx="749.2911174597086" cy="472.0767647393609" r="2.5" fill="grey" stroke="none" />
<circle cx="748.142712" cy="463.2445542399999" r="5" fill="black" stroke="none" />
<circle cx="828.142712" cy="463.2445542399999" r="5" fill="black" stroke="none" />
<circle cx="500" cy="500" r="5" fill="red" stroke="none" />
</svg>