<?xml version="1.0" encoding="UTF-8"?>
<svg xmlns="http://www.w3.org/2000/svg" xmlns:xlink="http://www.w3.org/1999/xlink"
     width="1000" height="1000" viewBox="0 0 1000 1000">
<defs>
</defs>
<rect x="0" y="0" width="1000" height="1000" fill="white" />
<path d="M354.81763950000004,253.43557584000007 L393.8736404977169,319.76471088663993" stroke="grey" stroke-width="5" />
<circle cx="393.8736404977169" cy="319.76471088663993" r="2.5" fill="grey" stroke="none" />
<path d="M393.8736404977169,319.76471088663993 A209.15918249740872,209.15918249740872,0,0,0,354.81763950000004,349.43557584000007" stroke="grey" stroke-width="5" fill="none" />
<circle cx="354.81763950000004" cy="253.43557584000007" r="5" fill="black" stroke="none" />
<circle cx="354.81763950000004" cy="349.43557584000007" r="5" fill="black" stroke="none" />
<path d="M354.81763950000004,349.43557584000007 L413.4903266512724,410.2833215608113" stroke="grey" stroke-width="5" />
<circle cx="413.4903266512724" cy="410.2833215608113" r="2.5" fill="grey" stroke="none" />
<path d="M413.4903266512724,410.2833215608113 A124.63148066625999,124.63148066625999,0,0,1,418.8176395,405.43557584000007" stroke="grey" stroke-width="5" fill="none" />
<circle cx="354.81763950000004" cy="349.43557584000007" r="5" fill="black" stroke="none" />
<circle cx="418.81763950000004" cy="405.43557584000007" r="5" fill="black" stroke="none" />
<path d="M330.81763950000004,405.43557584000007 L391.20960543278215,439.1916451219621" stroke="grey" stroke-width="5" />
<circle cx="391.20960543278215" cy="439.1916451219621" r="2.5" fill="grey" stroke="none" />
<path d="M391.20960543278215,439.1916451219621 A124.63148066625999,124.63148066625999,0,0,1,418.8176395,405.43557584000007" stroke="grey" stroke-width="5" fill="none" />
<circle cx="330.81763950000004" cy="405.43557584000007" r="5" fill="black" stroke="none" />
<circle cx="418.81763950000004" cy="405.43557584000007" r="5" fill="black" stroke="none" />
<path d="M418.81763950000004,405.43557584000007 L458.81025099455786,452.0205513610981" stroke="grey" stroke-width="5" />
<circle cx="458.81025099455786" cy="452.0205513610981" r="2.5" fill="grey" stroke="none" />
<path d="M458.81025099455786,452.0205513610981 A63.23466545198403,63.23466545198403,0,0,1,490.81763950000004,437.43557584000007" stroke="grey" stroke-width="5" fill="none" />
<circle cx="418.81763950000004" cy="405.43557584000007" r="5" fill="black" stroke="none" />
<circle cx="490.81763950000004" cy="437.43557584000007" r="5" fill="black" stroke="none" />
<path d="M490.81763950000004,437.43557584000007 L493.1662498414918,453.43793749762114" stroke="grey" stroke-width="5" />
<circle cx="493.1662498414918" cy="453.43793749762114" r="2.5" fill="grey" stroke="none" />
<path d="M493.1662498414918,453.43793749762114 A47.06087340566838,47.06087340566838,0,0,1,506.81763950000004,453.43557584000007" stroke="grey" stroke-width="5" fill="none" />
<circle cx="490.81763950000004" cy="437.43557584000007" r="5" fill="black" stroke="none" />
<circle cx="506.81763950000004" cy="453.43557584000007" r="5" fill="black" stroke="none" />
<path d="M506.81763950000004,453.43557584000007 L506.0062491871492,458.9773652946788" stroke="grey" stroke-width="5" />
<circle cx="506.0062491871492" cy="458.9773652946788" r="2.5" fill="grey" stroke="none" />
<path d="M506.0062491871492,458.9773652946788 A41.45999984882237,41.45999984882237,0,0,1,538.8176395,485.43557584000007" stroke="grey" stroke-width="5" fill="none" />
<circle cx="506.81763950000004" cy="453.43557584000007" r="5" fill="black" stroke="none" />
<circle cx="538.8176395" cy="485.43557584000007" r="5" fill="black" stroke="none" />
<path d="M506.81763950000004,453.43557584000007 A47.06087340566838,47.06087340566838,0,0,0,472.57726492239163,538.2455148555704" stroke="grey" stroke-width="5" fill="none" />
<path d="M472.57726492239163,538.2455148555704 L458.81763950000004,557.4355758400001" stroke="grey" stroke-width="5" />
<circle cx="472.57726492239163" cy="538.2455148555704" r="2.5" fill="grey" stroke="none" />
<circle cx="506.81763950000004" cy="453.43557584000007" r="5" fill="black" stroke="none" />
<circle cx="458.81763950000004" cy="557.4355758400001" r="5" fill="black" stroke="none" />
<path d="M458.81763950000004,557.4355758400001 A70.6741267255872,70.6741267255872,0,0,0,479.713773549586,567.7000827534714" stroke="grey" stroke-width="5" fill="none" />
<path d="M479.713773549586,567.7000827534714 L458.81763950000004,637.4355758400001" stroke="grey" stroke-width="5" />
<circle cx="479.713773549586" cy="567.7000827534714" r="2.5" fill="grey" stroke="none" />
<circle cx="458.81763950000004" cy="557.4355758400001" r="5" fill="black" stroke="none" />
<circle cx="458.81763950000004" cy="637.4355758400001" r="5" fill="black" stroke="none" />
<path d="M354.81763950000004,653.4355758400001 L401.39076901206477,604.214892826277" stroke="grey" stroke-width="5" />
<circle cx="401.39076901206477" cy="604.214892826277" r="2.5" fill="grey" stroke="none" />
<path d="M401.39076901206477,604.214892826277 A143.47307873892012,143.47307873892012,0,0,0,458.8176395,637.4355758400001" stroke="grey" stroke-width="5" fill="none" />
<circle cx="354.81763950000004" cy="653.4355758400001" r="5" fill="black" stroke="none" />
<circle cx="458.81763950000004" cy="637.4355758400001" r="5" fill="black" stroke="none" />
<path d="M458.8176395,637.4355758400001 A143.47307873892012,143.47307873892012,0,0,0,477.33655043254095,641.6717769230258" stroke="grey" stroke-width="5" fill="none" />
<path d="M477.33655043254095,641.6717769230258 L458.81763950000004,757.4355758400001" stroke="grey" stroke-width="5" />
<circle cx="477.33655043254095" cy="641.6717769230258" r="2.5" fill="grey" stroke="none" />
<circle cx="458.81763950000004" cy="637.4355758400001" r="5" fill="black" stroke="none" />
<circle cx="458.81763950000004" cy="757.4355758400001" r="5" fill="black" stroke="none" />
<path d="M458.81763950000004,557.4355758400001 L459.60505161197426,556.3374001277401" stroke="grey" stroke-width="5" />
<circle cx="459.60505161197426" cy="556.3374001277401" r="2.5" fill="grey" stroke="none" />
<path d="M459.60505161197426,556.3374001277401 A69.3228281911836,69.3228281911836,0,0,0,538.8176395,557.4355758400001" stroke="grey" stroke-width="5" fill="none" />
<circle cx="458.81763950000004" cy="557.4355758400001" r="5" fill="black" stroke="none" />
<circle cx="538.8176395" cy="557.4355758400001" r="5" fill="black" stroke="none" />
<path d="M538.8176395,485.43557584000007 A41.45999984882237,41.45999984882237,0,0,1,523.2157194072229,534.3505743746657" stroke="grey" stroke-width="5" fill="none" />
<path d="M523.2157194072229,534.3505743746657 L538.8176395,557.4355758400001" stroke="grey" stroke-width="5" />
<circle cx="523.2157194072229" cy="534.3505743746657" r="2.5" fill="grey" stroke="none" />
<circle cx="538.8176395" cy="485.43557584000007" r="5" fill="black" stroke="none" />
<circle cx="538.8176395" cy="557.4355758400001" r="5" fill="black" stroke="none" />
<path d="M538.8176395,557.4355758400001 A69.3228281911836,69.3228281911836,0,0,0,561.5474237487899,531.8993595282296" stroke="grey" stroke-width="5" fill="none" />
<path d="M561.5474237487899,531.8993595282296 L610.8176395,557.4355758400001" stroke="grey" stroke-width="5" />
<circle cx="561.5474237487899" cy="531.8993595282296" r="2.5" fill="grey" stroke="none" />
<circle cx="538.8176395" cy="557.4355758400001" r="5" fill="black" stroke="none" />
<circle cx="610.8176395" cy="557.4355758400001" r="5" fill="black" stroke="none" />
<path d="M538.8176395,485.43557584000007 A41.45999984882237,41.45999984882237,0,0,1,540.7697800732545,492.4663010252065" stroke="grey" stroke-width="5" fill="none" />
<path d="M540.7697800732545,492.4663010252065 L578.8176395,485.43557584000007" stroke="grey" stroke-width="5" />
<circle cx="540.7697800732545" cy="492.4663010252065" r="2.5" fill="grey" stroke="none" />
<circle cx="538.8176395" cy="485.43557584000007" r="5" fill="black" stroke="none" />
<circle cx="578.8176395" cy="485.43557584000007" r="5" fill="black" stroke="none" />
<path d="M610.8176395,557.4355758400001 A124.81744508050292,124.81744508050292,0,0,0,624.3402325481658,510.9041811380966" stroke="grey" stroke-width="5" fill="none" />
<path d="M624.3402325481658,510.9041811380966 L698.8176395,517.4355758400001" stroke="grey" stroke-width="5" />
<circle cx="624.3402325481658" cy="510.9041811380966" r="2.5" fill="grey" stroke="none" />
<circle cx="610.8176395" cy="557.4355758400001" r="5" fill="black" stroke="none" />
<circle cx="698.8176395" cy="517.4355758400001" r="5" fill="black" stroke="none" />
<path d="M578.8176395,485.43557584000007 A80.151997775878,80.151997775878,0,0,1,579.9813176664409,494.7720394220865" stroke="grey" stroke-width="5" fill="none" />
<path d="M579.9813176664409,494.7720394220865 L722.8176395,485.43557584000007" stroke="grey" stroke-width="5" />
<circle cx="579.9813176664409" cy="494.7720394220865" r="2.5" fill="grey" stroke="none" />
<circle cx="578.8176395" cy="485.43557584000007" r="5" fill="black" stroke="none" />
<circle cx="722.8176395" cy="485.43557584000007" r="5" fill="black" stroke="none" />
<path d="M698.8176395,517.4355758400001 A199.58069315749046,199.58069315749046,0,0,0,699.1556949603787,486.98223344529003" stroke="grey" stroke-width="5" fill="none" />
<path d="M699.1556949603787,486.98223344529003 L722.8176395,485.43557584000007" stroke="grey" stroke-width="5" />
<circle cx="699.1556949603787" cy="486.98223344529003" r="2.5" fill="grey" stroke="none" />
<circle cx="698.8176395" cy="517.4355758400001" r="5" fill="black" stroke="none" />
<circle cx="722.8176395" cy="485.43557584000007" r="5" fill="black" stroke="none" />
<path d="M458.8176395,637.4355758400001 A143.47307873892012,143.47307873892012,0,0,0,571.375707354489,624.458959992725" stroke="grey" stroke-width="5" fill="none" />
<path d="M571.375707354489,624.458959992725 L578.8176395,637.4355758400001" stroke="grey" stroke-width="5" />
<circle cx="571.375707354489" cy="624.458959992725" r="2.5" fill="grey" stroke="none" />
<circle cx="458.81763950000004" cy="637.4355758400001" r="5" fill="black" stroke="none" />
<circle cx="578.8176395" cy="637.4355758400001" r="5" fill="black" stroke="none" />
<path d="M578.8176395,637.4355758400001 A158.4321867640044,158.4321867640044,0,0,0,654.161026231448,536.5395100417506" stroke="grey" stroke-width="5" fill="none" />
<path d="M654.161026231448,536.5395100417506 L674.8176395,541.4355758400001" stroke="grey" stroke-width="5" />
<circle cx="654.161026231448" cy="536.5395100417506" r="2.5" fill="grey" stroke="none" />
<circle cx="578.8176395" cy="637.4355758400001" r="5" fill="black" stroke="none" />
<circle cx="674.8176395" cy="541.4355758400001" r="5" fill="black" stroke="none" />
<path d="M674.8176395,541.4355758400001 A179.6611088286621,179.6611088286621,0,0,0,678.9742133978885,515.695380344274" stroke="grey" stroke-width="5" fill="none" />
<path d="M678.9742133978885,515.695380344274 L698.8176395,517.4355758400001" stroke="grey" stroke-width="5" />
<circle cx="678.9742133978885" cy="515.695380344274" r="2.5" fill="grey" stroke="none" />
<circle cx="674.8176395" cy="541.4355758400001" r="5" fill="black" stroke="none" />
<circle cx="698.8176395" cy="517.4355758400001" r="5" fill="black" stroke="none" />
<path d="M698.8176395,517.4355758400001 A199.58069315749046,199.58069315749046,0,0,1,695.382601000091,540.7196796115052" stroke="grey" stroke-width="5" fill="none" />
<path d="M695.382601000091,540.7196796115052 L698.8176395,541.4355758400001" stroke="grey" stroke-width="5" />
<circle cx="695.382601000091" cy="540.7196796115052" r="2.5" fill="grey" stroke="none" />
<circle cx="698.8176395" cy="517.4355758400001" r="5" fill="black" stroke="none" />
<circle cx="698.8176395" cy="541.4355758400001" r="5" fill="black" stroke="none" />
<path d="M698.8176395,541.4355758400001 A203.08953868071188,203.08953868071188,0,0,1,637.0458486358411,649.8792717263682" stroke="grey" stroke-width="5" fill="none" />
<path d="M637.0458486358411,649.8792717263682 L698.8176395,717.4355758400001" stroke="grey" stroke-width="5" />
<circle cx="637.0458486358411" cy="649.8792717263682" r="2.5" fill="grey" stroke="none" />
<circle cx="698.8176395" cy="541.4355758400001" r="5" fill="black" stroke="none" />
<circle cx="698.8176395" cy="717.4355758400001" r="5" fill="black" stroke="none" />
<path d="M698.8176395,717.4355758400001 A294.6297395328998,294.6297395328998,0,0,0,737.11596427017,674.8791094026152" stroke="grey" stroke-width="5" fill="none" />
<path d="M737.11596427017,674.8791094026152 L794.8176395,717.4355758400001" stroke="grey" stroke-width="5" />
<circle cx="737.11596427017" cy="674.8791094026152" r="2.5" fill="grey" stroke="none" />
<circle cx="698.8176395" cy="717.4355758400001" r="5" fill="black" stroke="none" />
<circle cx="794.8176395" cy="717.4355758400001" r="5" fill="black" stroke="none" />
<path d="M698.8176395,717.4355758400001 A294.6297395328998,294.6297395328998,0,0,1,676.630523148724,735.81421015162" stroke="grey" stroke-width="5" fill="none" />
<path d="M676.630523148724,735.81421015162 L698.8176395,765.4355758400001" stroke="grey" stroke-width="5" />
<circle cx="676.630523148724" cy="735.81421015162" r="2.5" fill="grey" stroke="none" />
<circle cx="698.8176395" cy="717.4355758400001" r="5" fill="black" stroke="none" />
<circle cx="698.8176395" cy="765.4355758400001" r="5" fill="black" stroke="none" />
<path d="M386.81763950000004,341.43557584000007 L397.1252437536215,355.8761593878635" stroke="grey" stroke-width="5" />
<circle cx="397.1252437536215" cy="355.8761593878635" r="2.5" fill="grey" stroke="none" />
<path d="M397.1252437536215,355.8761593878635 A177.0731399889445,177.0731399889445,0,0,1,578.8176395,341.43557584000007" stroke="grey" stroke-width="5" fill="none" />
<circle cx="386.81763950000004" cy="341.43557584000007" r="5" fill="black" stroke="none" />
<circle cx="578.8176395" cy="341.43557584000007" r="5" fill="black" stroke="none" />
<path d="M578.8176395,341.43557584000007 L535.6767337287766,428.2259558202944" stroke="grey" stroke-width="5" />
<circle cx="535.6767337287766" cy="428.2259558202944" r="2.5" fill="grey" stroke="none" />
<path d="M535.6767337287766,428.2259558202944 A80.151997775878,80.151997775878,0,0,1,578.8176395,485.43557584000007" stroke="grey" stroke-width="5" fill="none" />
<circle cx="578.8176395" cy="341.43557584000007" r="5" fill="black" stroke="none" />
<circle cx="578.8176395" cy="485.43557584000007" r="5" fill="black" stroke="none" />
<path d="M578.8176395,341.43557584000007 A177.0731399889445,177.0731399889445,0,0,0,555.5488039942965,331.8654488799296" stroke="grey" stroke-width="5" fill="none" />
<path d="M555.5488039942965,331.8654488799296 L578.8176395,261.43557584000007" stroke="grey" stroke-width="5" />
<circle cx="555.5488039942965" cy="331.8654488799296" r="2.5" fill="grey" stroke="none" />
<circle cx="578.8176395" cy="341.43557584000007" r="5" fill="black" stroke="none" />
<circle cx="578.8176395" cy="261.43557584000007" r="5" fill="black" stroke="none" />
<path d="M578.8176395,261.43557584000007 A251.24729803749992,251.24729803749992,0,0,0,564.9425102548289,257.29096610767505" stroke="grey" stroke-width="5" fill="none" />
<path d="M564.9425102548289,257.290966107675 L578.8176395,205.43557584000007" stroke="grey" stroke-width="5" />
<circle cx="564.9425102548289" cy="257.290966107675" r="2.5" fill="grey" stroke="none" />
<circle cx="578.8176395" cy="261.43557584000007" r="5" fill="black" stroke="none" />
<circle cx="578.8176395" cy="205.43557584000007" r="5" fill="black" stroke="none" />
<path d="M578.8176395,261.43557584000007 L570.7653113555191,285.808280213308" stroke="grey" stroke-width="5" />
<circle cx="570.7653113555191" cy="285.808280213308" r="2.5" fill="grey" stroke="none" />
<path d="M570.7653113555191,285.808280213308 A225.57886008317433,225.57886008317433,0,0,1,674.8176395,357.43557584000007" stroke="grey" stroke-width="5" fill="none" />
<circle cx="578.8176395" cy="261.43557584000007" r="5" fill="black" stroke="none" />
<circle cx="674.8176395" cy="357.43557584000007" r="5" fill="black" stroke="none" />
<path d="M578.8176395,341.43557584000007 A177.0731399889445,177.0731399889445,0,0,1,637.2269916618365,388.0908865865402" stroke="grey" stroke-width="5" fill="none" />
<path d="M637.2269916618365,388.09088658654025 L674.8176395,357.43557584000007" stroke="grey" stroke-width="5" />
<circle cx="637.2269916618365" cy="388.09088658654025" r="2.5" fill="grey" stroke="none" />
<circle cx="578.8176395" cy="341.43557584000007" r="5" fill="black" stroke="none" />
<circle cx="674.8176395" cy="357.43557584000007" r="5" fill="black" stroke="none" />
<path d="M674.8176395,357.43557584000007 A225.57886008317433,225.57886008317433,0,0,1,715.0523232573462,431.89478450190296" stroke="grey" stroke-width="5" fill="none" />
<path d="M715.0523232573462,431.894784501903 L722.8176395,429.43557584000007" stroke="grey" stroke-width="5" />
<circle cx="715.0523232573462" cy="431.894784501903" r="2.5" fill="grey" stroke="none" />
<circle cx="674.8176395" cy="357.43557584000007" r="5" fill="black" stroke="none" />
<circle cx="722.8176395" cy="429.43557584000007" r="5" fill="black" stroke="none" />
<path d="M674.8176395,541.4355758400001 A179.6611088286621,179.6611088286621,0,0,0,675.8820163722182,536.6555635939093" stroke="grey" stroke-width="5" fill="none" />
<path d="M675.8820163722182,536.6555635939093 L698.8176395,541.4355758400001" stroke="grey" stroke-width="5" />
<circle cx="675.8820163722182" cy="536.6555635939093" r="2.5" fill="grey" stroke="none" />
<circle cx="674.8176395" cy="541.4355758400001" r="5" fill="black" stroke="none" />
<circle cx="698.8176395" cy="541.4355758400001" r="5" fill="black" stroke="none" />
<path d="M698.8176395,541.4355758400001 A203.08953868071188,203.08953868071188,0,0,0,699.6664680189385,537.1303416411234" stroke="grey" stroke-width="5" fill="none" />
<path d="M699.6664680189385,537.1303416411234 L722.8176395,541.4355758400001" stroke="grey" stroke-width="5" />
<circle cx="699.6664680189385" cy="537.1303416411234" r="2.5" fill="grey" stroke="none" />
<circle cx="698.8176395" cy="541.4355758400001" r="5" fill="black" stroke="none" />
<circle cx="722.8176395" cy="541.4355758400001" r="5" fill="black" stroke="none" />
<path d="M722.8176395,541.4355758400001 L719.5295303976692,540.8241130564181" stroke="grey" stroke-width="5" />
<circle cx="719.5295303976692" cy="540.8241130564181" r="2.5" fill="grey" stroke="none" />
<path d="M719.5295303976692,540.8241130564181 A223.2931322801137,223.2931322801137,0,0,0,722.8176395,485.43557584000007" stroke="grey" stroke-width="5" fill="none" />
<circle cx="722.8176395" cy="541.4355758400001" r="5" fill="black" stroke="none" />
<circle cx="722.8176395" cy="485.43557584000007" r="5" fill="black" stroke="none" />
<path d="M722.8176395,485.43557584000007 A223.2931322801137,223.2931322801137,0,0,0,721.2215506493366,469.65451513375706" stroke="grey" stroke-width="5" fill="none" />
<path d="M721.2215506493366,469.65451513375706 L722.8176395,469.43557584000007" stroke="grey" stroke-width="5" />
<circle cx="721.2215506493366" cy="469.65451513375706" r="2.5" fill="grey" stroke="none" />
<circle cx="722.8176395" cy="485.43557584000007" r="5" fill="black" stroke="none" />
<circle cx="722.8176395" cy="469.43557584000007" r="5" fill="black" stroke="none" />
<path d="M722.8176395,469.43557584000007 A224.90416736153279,224.90416736153279,0,0,0,720.1483099649623,453.9934122526433" stroke="grey" stroke-width="5" fill="none" />
<path d="M720.1483099649623,453.9934122526433 L722.8176395,453.43557584000007" stroke="grey" stroke-width="5" />
<circle cx="720.1483099649623" cy="453.9934122526433" r="2.5" fill="grey" stroke="none" />
<circle cx="722.8176395" cy="469.43557584000007" r="5" fill="black" stroke="none" />
<circle cx="722.8176395" cy="453.43557584000007" r="5" fill="black" stroke="none" />
<path d="M722.8176395,453.43557584000007 A227.6311623431738,227.6311623431738,0,0,0,717.0088557483626,431.27516754119597" stroke="grey" stroke-width="5" fill="none" />
<path d="M717.0088557483626,431.27516754119597 L722.8176395,429.43557584000007" stroke="grey" stroke-width="5" />
<circle cx="717.0088557483626" cy="431.27516754119597" r="2.5" fill="grey" stroke="none" />
<circle cx="722.8176395" cy="453.43557584000007" r="5" fill="black" stroke="none" />
<circle cx="722.8176395" cy="429.43557584000007" r="5" fill="black" stroke="none" />
<path d="M722.8176395,429.43557584000007 A233.72427864769278,233.72427864769278,0,0,1,726.172703876815,441.0682899413661" stroke="grey" stroke-width="5" fill="none" />
<path d="M726.172703876815,441.0682899413661 L770.8176395,429.43557584000007" stroke="grey" stroke-width="5" />
<circle cx="726.172703876815" cy="441.0682899413661" r="2.5" fill="grey" stroke="none" />
<circle cx="722.8176395" cy="429.43557584000007" r="5" fill="black" stroke="none" />
<circle cx="770.8176395" cy="429.43557584000007" r="5" fill="black" stroke="none" />
<path d="M770.8176395,429.43557584000007 L763.7313272976041,431.2819900577123" stroke="grey" stroke-width="5" />
<circle cx="763.7313272976041" cy="431.2819900577123" r="2.5" fill="grey" stroke="none" />
<path d="M763.7313272976041,431.2819900577123 A272.5369294033092,272.5369294033092,0,0,1,770.8176395,469.43557584000007" stroke="grey" stroke-width="5" fill="none" />
<circle cx="770.8176395" cy="429.43557584000007" r="5" fill="black" stroke="none" />
<circle cx="770.8176395" cy="469.43557584000007" r="5" fill="black" stroke="none" />
<path d="M770.8176395,469.43557584000007 L723.4853671093856,474.77748655332863" stroke="grey" stroke-width="5" />
<circle cx="723.4853671093856" cy="474.77748655332863" r="2.5" fill="grey" stroke="none" />
<path d="M723.4853671093856,474.77748655332863 A224.90416736153279,224.90416736153279,0,0,0,722.8176395,469.43557584000007" stroke="grey" stroke-width="5" fill="none" />
<circle cx="770.8176395" cy="469.43557584000007" r="5" fill="black" stroke="none" />
<circle cx="722.8176395" cy="469.43557584000007" r="5" fill="black" stroke="none" />
<path d="M722.8176395,453.43557584000007 A227.6311623431738,227.6311623431738,0,0,1,724.9867553525423,465.4036709224863" stroke="grey" stroke-width="5" fill="none" />
<path d="M724.9867553525423,465.4036709224863 L802.8176395,453.43557584000007" stroke="grey" stroke-width="5" />
<circle cx="724.9867553525423" cy="465.4036709224863" r="2.5" fill="grey" stroke="none" />
<circle cx="722.8176395" cy="453.43557584000007" r="5" fill="black" stroke="none" />
<circle cx="802.8176395" cy="453.43557584000007" r="5" fill="black" stroke="none" />
<circle cx="500" cy="500" r="5" fill="red" stroke="none" />
</svg>