<?xml version="1.0" encoding="UTF-8"?>
<svg xmlns="http://www.w3.org/2000/svg" xmlns:xlink="http://www.w3.org/1999/xlink"
     width="1000" height="1000" viewBox="0 0 1000 1000">
<defs>
</defs>
<rect x="0" y="0" width="1000" height="1000" fill="white" />
<path d="M107.71968750000002,353.99490000000003 L129.38374827733736,362.0581732752838" stroke="grey" stroke-width="5" />
<circle cx="129.38374827733736" cy="362.0581732752838" r="2.5" fill="grey" stroke="none" />
<path d="M129.38374827733736,362.0581732752838 A395.45461636085076,395.45461636085076,0,0,0,107.71968749999996,449.99490000000026" stroke="grey" stroke-width="5" fill="none" />
<circle cx="107.71968750000002" cy="353.99490000000003" r="5" fill="black" stroke="none" />
<circle cx="107.71968750000002" cy="449.99490000000003" r="5" fill="black" stroke="none" />
<path d="M107.71968750000002,449.99490000000003 L174.30049087173933,458.48214655455195" stroke="grey" stroke-width="5" />
<circle cx="174.30049087173933" cy="458.48214655455195" r="2.5" fill="grey" stroke="none" />
<path d="M174.30049087173933,458.48214655455206 A328.33504595322694,328.33504595322694,0,0,0,171.71968750000002,505.9949" stroke="grey" stroke-width="5" fill="none" />
<circle cx="107.71968750000002" cy="449.99490000000003" r="5" fill="black" stroke="none" />
<circle cx="171.71968750000002" cy="505.99490000000003" r="5" fill="black" stroke="none" />
<path d="M83.71968750000002,505.99490000000003 L171.69899579397725,504.7279000015517" stroke="grey" stroke-width="5" />
<circle cx="171.69899579397725" cy="504.7279000015517" r="2.5" fill="grey" stroke="none" />
<path d="M171.69899579397725,504.7279000015517 A328.33504595322694,328.33504595322694,0,0,0,171.71968750000002,505.9949" stroke="grey" stroke-width="5" fill="none" />
<circle cx="83.71968750000002" cy="505.99490000000003" r="5" fill="black" stroke="none" />
<circle cx="171.71968750000002" cy="505.99490000000003" r="5" fill="black" stroke="none" />
<path d="M171.71968750000002,505.99490000000003 L240.9617132788989,504.73043483247056" stroke="grey" stroke-width="5" />
<circle cx="240.9617132788989" cy="504.73043483247056" r="2.5" fill="grey" stroke="none" />
<path d="M240.9617132788989,504.73043483247056 A259.08147560392587,259.08147560392587,0,0,0,243.71968750000008,537.9949000000001" stroke="grey" stroke-width="5" fill="none" />
<circle cx="171.71968750000002" cy="505.99490000000003" r="5" fill="black" stroke="none" />
<circle cx="243.71968750000002" cy="537.9949" r="5" fill="black" stroke="none" />
<path d="M243.71968750000002,537.9949 L256.39030719900137,536.1164141978509" stroke="grey" stroke-width="5" />
<circle cx="256.39030719900137" cy="536.1164141978509" r="2.5" fill="grey" stroke="none" />
<path d="M256.3903071990014,536.116414197851 A246.27236507799174,246.27236507799174,0,0,0,259.7196875000001,553.9949" stroke="grey" stroke-width="5" fill="none" />
<circle cx="243.71968750000002" cy="537.9949" r="5" fill="black" stroke="none" />
<circle cx="259.7196875" cy="553.9949" r="5" fill="black" stroke="none" />
<path d="M259.7196875,553.9949 L280.1477356071028,549.4043848501656" stroke="grey" stroke-width="5" />
<circle cx="280.1477356071028" cy="549.4043848501656" r="2.5" fill="grey" stroke="none" />
<path d="M280.1477356071028,549.4043848501656 A225.33488722589686,225.33488722589686,0,0,0,291.71968749999996,585.9949" stroke="grey" stroke-width="5" fill="none" />
<circle cx="259.7196875" cy="553.9949" r="5" fill="black" stroke="none" />
<circle cx="291.7196875" cy="585.9949" r="5" fill="black" stroke="none" />
<path d="M259.7196875000001,553.9949 A246.27236507799174,246.27236507799174,0,0,0,284.0355563084109,618.3614669649294" stroke="grey" stroke-width="5" fill="none" />
<path d="M284.03555630841083,618.3614669649294 L211.71968750000002,657.9949" stroke="grey" stroke-width="5" />
<circle cx="284.03555630841083" cy="618.3614669649294" r="2.5" fill="grey" stroke="none" />
<circle cx="259.7196875" cy="553.9949" r="5" fill="black" stroke="none" />
<circle cx="211.71968750000002" cy="657.9949" r="5" fill="black" stroke="none" />
<path d="M211.71968750000008,657.9949000000001 A328.73686589901604,328.73686589901604,0,0,0,246.49182119631695,709.2881513147544" stroke="grey" stroke-width="5" fill="none" />
<path d="M246.49182119631695,709.2881513147544 L211.71968750000002,737.9949" stroke="grey" stroke-width="5" />
<circle cx="246.49182119631695" cy="709.2881513147544" r="2.5" fill="grey" stroke="none" />
<circle cx="211.71968750000002" cy="657.9949" r="5" fill="black" stroke="none" />
<circle cx="211.71968750000002" cy="737.9949" r="5" fill="black" stroke="none" />
<path d="M107.71968750000002,753.9949 L186.20620880779893,703.1761984345926" stroke="grey" stroke-width="5" />
<circle cx="186.20620880779893" cy="703.1761984345926" r="2.5" fill="grey" stroke="none" />
<path d="M186.20620880779904,703.1761984345927 A373.8276487916693,373.8276487916693,0,0,0,211.71968750000002,737.9948999999999" stroke="grey" stroke-width="5" fill="none" />
<circle cx="107.71968750000002" cy="753.9949" r="5" fill="black" stroke="none" />
<circle cx="211.71968750000002" cy="737.9949" r="5" fill="black" stroke="none" />
<path d="M211.71968750000002,737.9948999999999 A373.8276487916693,373.8276487916693,0,0,0,265.5384052086455,791.1612466812887" stroke="grey" stroke-width="5" fill="none" />
<path d="M265.5384052086455,791.1612466812887 L211.71968750000002,857.9949" stroke="grey" stroke-width="5" />
<circle cx="265.5384052086455" cy="791.1612466812887" r="2.5" fill="grey" stroke="none" />
<circle cx="211.71968750000002" cy="737.9949" r="5" fill="black" stroke="none" />
<circle cx="211.71968750000002" cy="857.9949" r="5" fill="black" stroke="none" />
<path d="M211.71968750000002,657.9949 L270.7476280176507,625.6440485720442" stroke="grey" stroke-width="5" />
<circle cx="270.7476280176507" cy="625.6440485720442" r="2.5" fill="grey" stroke="none" />
<path d="M270.74762801765075,625.6440485720443 A261.4250886986703,261.4250886986703,0,0,0,291.71968749999996,657.9948999999999" stroke="grey" stroke-width="5" fill="none" />
<circle cx="211.71968750000002" cy="657.9949" r="5" fill="black" stroke="none" />
<circle cx="291.7196875" cy="657.9949" r="5" fill="black" stroke="none" />
<path d="M291.71968749999996,585.9949 A225.33488722589686,225.33488722589686,0,0,0,320.4731574839061,636.1834212278033" stroke="grey" stroke-width="5" fill="none" />
<path d="M320.4731574839061,636.1834212278033 L291.7196875,657.9949" stroke="grey" stroke-width="5" />
<circle cx="320.4731574839061" cy="636.1834212278033" r="2.5" fill="grey" stroke="none" />
<circle cx="291.7196875" cy="585.9949" r="5" fill="black" stroke="none" />
<circle cx="291.7196875" cy="657.9949" r="5" fill="black" stroke="none" />
<path d="M291.7196875,657.9949 L333.7664060176478,626.0995806211033" stroke="grey" stroke-width="5" />
<circle cx="333.7664060176478" cy="626.0995806211033" r="2.5" fill="grey" stroke="none" />
<path d="M333.7664060176478,626.0995806211033 A208.6497352049785,208.6497352049785,0,0,0,363.71968749999996,657.9948999999999" stroke="grey" stroke-width="5" fill="none" />
<circle cx="291.7196875" cy="657.9949" r="5" fill="black" stroke="none" />
<circle cx="363.7196875" cy="657.9949" r="5" fill="black" stroke="none" />
<path d="M291.7196875,585.9949 L325.3231703978847,572.1206738824676" stroke="grey" stroke-width="5" />
<circle cx="325.3231703978847" cy="572.1206738824676" r="2.5" fill="grey" stroke="none" />
<path d="M325.3231703978847,572.1206738824676 A188.979857130615,188.979857130615,0,0,0,331.7196875,585.9949" stroke="grey" stroke-width="5" fill="none" />
<circle cx="291.7196875" cy="585.9949" r="5" fill="black" stroke="none" />
<circle cx="331.7196875" cy="585.9949" r="5" fill="black" stroke="none" />
<path d="M363.7196875,657.9949 L416.72923811297636,596.5389310892879" stroke="grey" stroke-width="5" />
<circle cx="416.72923811297636" cy="596.5389310892879" r="2.5" fill="grey" stroke="none" />
<path d="M416.7292381129763,596.5389310892879 A127.49033297120081,127.49033297120081,0,0,0,451.7196875000001,617.9949" stroke="grey" stroke-width="5" fill="none" />
<circle cx="363.7196875" cy="657.9949" r="5" fill="black" stroke="none" />
<circle cx="451.7196875" cy="617.9949" r="5" fill="black" stroke="none" />
<path d="M331.7196875,585.9949 L420.4306318156473,540.661677877955" stroke="grey" stroke-width="5" />
<circle cx="420.4306318156473" cy="540.661677877955" r="2.5" fill="grey" stroke="none" />
<path d="M420.4306318156473,540.661677877955 A89.35690460791295,89.35690460791295,0,0,0,475.7196875,585.9949" stroke="grey" stroke-width="5" fill="none" />
<circle cx="331.7196875" cy="585.9949" r="5" fill="black" stroke="none" />
<circle cx="475.7196875" cy="585.9949" r="5" fill="black" stroke="none" />
<path d="M451.7196875,617.9949 L466.16073408893465,582.7016353145925" stroke="grey" stroke-width="5" />
<circle cx="466.16073408893465" cy="582.7016353145925" r="2.5" fill="grey" stroke="none" />
<path d="M466.16073408893465,582.7016353145925 A89.35690460791295,89.35690460791295,0,0,0,475.7196875,585.9949" stroke="grey" stroke-width="5" fill="none" />
<circle cx="451.7196875" cy="617.9949" r="5" fill="black" stroke="none" />
<circle cx="475.7196875" cy="585.9949" r="5" fill="black" stroke="none" />
<path d="M211.71968750000002,737.9949 L275.2237623421051,685.5679901962328" stroke="grey" stroke-width="5" />
<circle cx="275.2237623421051" cy="685.5679901962328" r="2.5" fill="grey" stroke="none" />
<path d="M275.2237623421051,685.5679901962328 A291.47870591366984,291.47870591366984,0,0,0,331.7196875000001,737.9949" stroke="grey" stroke-width="5" fill="none" />
<circle cx="211.71968750000002" cy="737.9949" r="5" fill="black" stroke="none" />
<circle cx="331.7196875" cy="737.9949" r="5" fill="black" stroke="none" />
<path d="M331.7196875,737.9949 L408.0117985581205,630.0967562877563" stroke="grey" stroke-width="5" />
<circle cx="408.0117985581205" cy="630.0967562877563" r="2.5" fill="grey" stroke="none" />
<path d="M408.0117985581205,630.0967562877563 A159.33296959859769,159.33296959859769,0,0,0,427.7196875,641.9949" stroke="grey" stroke-width="5" fill="none" />
<circle cx="331.7196875" cy="737.9949" r="5" fill="black" stroke="none" />
<circle cx="427.7196875" cy="641.9949" r="5" fill="black" stroke="none" />
<path d="M427.7196875,641.9949 L442.16488193810363,613.6172703415909" stroke="grey" stroke-width="5" />
<circle cx="442.16488193810363" cy="613.6172703415909" r="2.5" fill="grey" stroke="none" />
<path d="M442.16488193810363,613.6172703415909 A127.49033297120081,127.49033297120081,0,0,0,451.7196875000001,617.9949" stroke="grey" stroke-width="5" fill="none" />
<circle cx="427.7196875" cy="641.9949" r="5" fill="black" stroke="none" />
<circle cx="451.7196875" cy="617.9949" r="5" fill="black" stroke="none" />
<path d="M451.7196875000001,617.9949 A127.49033297120081,127.49033297120081,0,0,0,458.9589539798033,620.703842286299" stroke="grey" stroke-width="5" fill="none" />
<path d="M458.9589539798033,620.703842286299 L451.7196875,641.9949" stroke="grey" stroke-width="5" />
<circle cx="458.9589539798033" cy="620.703842286299" r="2.5" fill="grey" stroke="none" />
<circle cx="451.7196875" cy="617.9949" r="5" fill="black" stroke="none" />
<circle cx="451.7196875" cy="641.9949" r="5" fill="black" stroke="none" />
<path d="M451.7196875,641.9949 A149.97846579128503,149.97846579128503,0,0,0,477.48717119763927,648.2791716338585" stroke="grey" stroke-width="5" fill="none" />
<path d="M477.48717119763927,648.2791716338585 L451.7196875,817.9949" stroke="grey" stroke-width="5" />
<circle cx="477.48717119763927" cy="648.2791716338585" r="2.5" fill="grey" stroke="none" />
<circle cx="451.7196875" cy="641.9949" r="5" fill="black" stroke="none" />
<circle cx="451.7196875" cy="817.9949" r="5" fill="black" stroke="none" />
<path d="M451.7196875,817.9949 L451.7322478703556,817.9121719995302" stroke="grey" stroke-width="5" />
<circle cx="451.7322478703556" cy="817.9121719995302" r="2.5" fill="grey" stroke="none" />
<path d="M451.7322478703556,817.9121719995302 A321.5554773302854,321.5554773302854,0,0,0,547.7196875000001,817.9949" stroke="grey" stroke-width="5" fill="none" />
<circle cx="451.7196875" cy="817.9949" r="5" fill="black" stroke="none" />
<circle cx="547.7196875" cy="817.9949" r="5" fill="black" stroke="none" />
<path d="M451.7196875,817.9949 A321.63915340192597,321.63915340192597,0,0,0,457.9353060692444,818.8766321410516" stroke="grey" stroke-width="5" fill="none" />
<path d="M457.9353060692444,818.8766321410516 L451.7196875,865.9949" stroke="grey" stroke-width="5" />
<circle cx="457.9353060692444" cy="818.8766321410516" r="2.5" fill="grey" stroke="none" />
<circle cx="451.7196875" cy="817.9949" r="5" fill="black" stroke="none" />
<circle cx="451.7196875" cy="865.9949" r="5" fill="black" stroke="none" />
<path d="M139.71968750000002,441.99490000000003 L324.26623965187093,471.70687936946524" stroke="grey" stroke-width="5" />
<circle cx="324.26623965187093" cy="471.70687936946524" r="2.5" fill="grey" stroke="none" />
<path d="M324.26623965187093,471.70687936946524 A177.9967842437263,177.9967842437263,0,0,1,331.7196875,441.99490000000003" stroke="grey" stroke-width="5" fill="none" />
<circle cx="139.71968750000002" cy="441.99490000000003" r="5" fill="black" stroke="none" />
<circle cx="331.7196875" cy="441.99490000000003" r="5" fill="black" stroke="none" />
<path d="M331.7196875,441.99490000000003 A177.9967842437263,177.9967842437263,0,0,0,341.499750654236,580.9970749992757" stroke="grey" stroke-width="5" fill="none" />
<path d="M341.499750654236,580.9970749992757 L331.7196875,585.9949" stroke="grey" stroke-width="5" />
<circle cx="341.499750654236" cy="580.9970749992757" r="2.5" fill="grey" stroke="none" />
<circle cx="331.7196875" cy="441.99490000000003" r="5" fill="black" stroke="none" />
<circle cx="331.7196875" cy="585.9949" r="5" fill="black" stroke="none" />
<path d="M331.7196875,441.99490000000003 A177.9967842437263,177.9967842437263,0,0,1,362.3669331426221,387.12841762188236" stroke="grey" stroke-width="5" fill="none" />
<path d="M362.3669331426221,387.12841762188236 L331.7196875,361.99490000000003" stroke="grey" stroke-width="5" />
<circle cx="362.3669331426221" cy="387.12841762188236" r="2.5" fill="grey" stroke="none" />
<circle cx="331.7196875" cy="441.99490000000003" r="5" fill="black" stroke="none" />
<circle cx="331.7196875" cy="361.99490000000003" r="5" fill="black" stroke="none" />
<path d="M331.7196875000001,361.99490000000003 A217.63196272861126,217.63196272861126,0,0,1,357.3972055980356,335.5977061295715" stroke="grey" stroke-width="5" fill="none" />
<path d="M357.3972055980356,335.5977061295715 L331.7196875,305.99490000000003" stroke="grey" stroke-width="5" />
<circle cx="357.3972055980356" cy="335.5977061295715" r="2.5" fill="grey" stroke="none" />
<circle cx="331.7196875" cy="361.99490000000003" r="5" fill="black" stroke="none" />
<circle cx="331.7196875" cy="305.99490000000003" r="5" fill="black" stroke="none" />
<path d="M331.7196875,361.99490000000003 L435.35809087567907,446.9877789007979" stroke="grey" stroke-width="5" />
<circle cx="435.35809087567907" cy="446.9877789007979" r="2.5" fill="grey" stroke="none" />
<path d="M435.35809087567907,446.9877789007979 A83.59947368917852,83.59947368917852,0,0,0,427.7196875,457.9949" stroke="grey" stroke-width="5" fill="none" />
<circle cx="331.7196875" cy="361.99490000000003" r="5" fill="black" stroke="none" />
<circle cx="427.7196875" cy="457.99490000000003" r="5" fill="black" stroke="none" />
<path d="M331.7196875,441.99490000000003 L420.9640465302601,472.75683461422375" stroke="grey" stroke-width="5" />
<circle cx="420.9640465302601" cy="472.75683461422375" r="2.5" fill="grey" stroke="none" />
<path d="M420.9640465302601,472.75683461422375 A83.59947368917852,83.59947368917852,0,0,1,427.7196875,457.9949" stroke="grey" stroke-width="5" fill="none" />
<circle cx="331.7196875" cy="441.99490000000003" r="5" fill="black" stroke="none" />
<circle cx="427.7196875" cy="457.99490000000003" r="5" fill="black" stroke="none" />
<path d="M427.7196875,457.99490000000003 L466.6345476895749,480.60994602306624" stroke="grey" stroke-width="5" />
<circle cx="466.6345476895749" cy="480.60994602306624" r="2.5" fill="grey" stroke="none" />
<path d="M466.6345476895749,480.60994602306624 A38.59051180157702,38.59051180157702,0,0,0,475.7196875,529.9949" stroke="grey" stroke-width="5" fill="none" />
<circle cx="427.7196875" cy="457.99490000000003" r="5" fill="black" stroke="none" />
<circle cx="475.7196875" cy="529.9949" r="5" fill="black" stroke="none" />
<path d="M427.7196875,641.9949 L431.9632942072521,633.6583213495468" stroke="grey" stroke-width="5" />
<circle cx="431.9632942072521" cy="633.6583213495468" r="2.5" fill="grey" stroke="none" />
<path d="M431.9632942072521,633.6583213495468 A149.97846579128503,149.97846579128503,0,0,0,451.7196875,641.9949" stroke="grey" stroke-width="5" fill="none" />
<circle cx="427.7196875" cy="641.9949" r="5" fill="black" stroke="none" />
<circle cx="451.7196875" cy="641.9949" r="5" fill="black" stroke="none" />
<path d="M451.7196875,641.9949 L453.62626918957847,636.3875444893346" stroke="grey" stroke-width="5" />
<circle cx="453.62626918957847" cy="636.3875444893346" r="2.5" fill="grey" stroke="none" />
<path d="M453.62626918957847,636.3875444893346 A144.05584056575998,144.05584056575998,0,0,0,475.71968749999996,641.9949" stroke="grey" stroke-width="5" fill="none" />
<circle cx="451.7196875" cy="641.9949" r="5" fill="black" stroke="none" />
<circle cx="475.7196875" cy="641.9949" r="5" fill="black" stroke="none" />
<path d="M475.7196875,641.9949 L484.9390794611871,588.0785165271942" stroke="grey" stroke-width="5" />
<circle cx="484.9390794611871" cy="588.0785165271942" r="2.5" fill="grey" stroke="none" />
<path d="M484.939079461187,588.0785165271942 A89.35690460791295,89.35690460791295,0,0,1,475.7196875,585.9949" stroke="grey" stroke-width="5" fill="none" />
<circle cx="475.7196875" cy="641.9949" r="5" fill="black" stroke="none" />
<circle cx="475.7196875" cy="585.9949" r="5" fill="black" stroke="none" />
<path d="M475.7196875,585.9949 L479.868986755457,571.2991017254474" stroke="grey" stroke-width="5" />
<circle cx="479.868986755457" cy="571.2991017254474" r="2.5" fill="grey" stroke="none" />
<path d="M479.868986755457,571.2991017254474 A74.08656829080192,74.08656829080192,0,0,1,475.7196875,569.9949" stroke="grey" stroke-width="5" fill="none" />
<circle cx="475.7196875" cy="585.9949" r="5" fill="black" stroke="none" />
<circle cx="475.7196875" cy="569.9949" r="5" fill="black" stroke="none" />
<path d="M475.7196875,569.9949 L480.59749790363014,555.9332254881481" stroke="grey" stroke-width="5" />
<circle cx="480.59749790363014" cy="555.9332254881481" r="2.5" fill="grey" stroke="none" />
<path d="M480.59749790363014,555.9332254881481 A59.20289520882957,59.20289520882957,0,0,1,475.7196875,553.9949" stroke="grey" stroke-width="5" fill="none" />
<circle cx="475.7196875" cy="569.9949" r="5" fill="black" stroke="none" />
<circle cx="475.7196875" cy="553.9949" r="5" fill="black" stroke="none" />
<path d="M475.7196875,553.9949 L484.17324553516966,535.1957588953219" stroke="grey" stroke-width="5" />
<circle cx="484.17324553516966" cy="535.1957588953219" r="2.5" fill="grey" stroke="none" />
<path d="M484.17324553516966,535.1957588953219 A38.59051180157702,38.59051180157702,0,0,1,475.7196875,529.9949" stroke="grey" stroke-width="5" fill="none" />
<circle cx="475.7196875" cy="553.9949" r="5" fill="black" stroke="none" />
<circle cx="475.7196875" cy="529.9949" r="5" fill="black" stroke="none" />
<path d="M475.7196875,529.9949 L475.9400573758107,529.722664113911" stroke="grey" stroke-width="5" />
<circle cx="475.9400573758107" cy="529.722664113911" r="2.5" fill="grey" stroke="none" />
<path d="M475.9400573758107,529.722664113911 A38.24026151986486,38.24026151986486,0,0,0,523.7196875,529.9949" stroke="grey" stroke-width="5" fill="none" />
<circle cx="475.7196875" cy="529.9949" r="5" fill="black" stroke="none" />
<circle cx="523.7196875" cy="529.9949" r="5" fill="black" stroke="none" />
<path d="M523.7196875,529.9949 A38.24026151986486,38.24026151986486,0,0,1,512.2731929731705,536.2172104854995" stroke="grey" stroke-width="5" fill="none" />
<path d="M512.2731929731705,536.2172104854995 L523.7196875,569.9949" stroke="grey" stroke-width="5" />
<circle cx="512.2731929731705" cy="536.2172104854995" r="2.5" fill="grey" stroke="none" />
<circle cx="523.7196875" cy="529.9949" r="5" fill="black" stroke="none" />
<circle cx="523.7196875" cy="569.9949" r="5" fill="black" stroke="none" />
<path d="M523.7196875,569.9949 A73.90473327945686,73.90473327945686,0,0,1,475.7792800955373,569.8231074102064" stroke="grey" stroke-width="5" fill="none" />
<path d="M475.7792800955373,569.8231074102064 L475.7196875,569.9949" stroke="grey" stroke-width="5" />
<circle cx="475.7792800955373" cy="569.8231074102064" r="2.5" fill="grey" stroke="none" />
<circle cx="523.7196875" cy="569.9949" r="5" fill="black" stroke="none" />
<circle cx="475.7196875" cy="569.9949" r="5" fill="black" stroke="none" />
<path d="M475.7196875,553.9949 A59.20289520882957,59.20289520882957,0,0,0,542.5156263732435,541.1995669297436" stroke="grey" stroke-width="5" fill="none" />
<path d="M542.5156263732435,541.1995669297436 L555.7196875,553.9949" stroke="grey" stroke-width="5" />
<circle cx="542.5156263732435" cy="541.1995669297436" r="2.5" fill="grey" stroke="none" />
<circle cx="475.7196875" cy="553.9949" r="5" fill="black" stroke="none" />
<circle cx="555.7196875" cy="553.9949" r="5" fill="black" stroke="none" />
<circle cx="500" cy="500" r="5" fill="red" stroke="none" />
</svg>