<?xml version="1.0" encoding="UTF-8"?>
<svg xmlns="http://www.w3.org/2000/svg" xmlns:xlink="http://www.w3.org/1999/xlink"
     width="1000" height="1000" viewBox="0 0 1000 1000">
<defs>
</defs>
<rect x="0" y="0" width="1000" height="1000" fill="white" />
<path d="M383.70163199999996,265.23730944 L419.6296666770297,337.76250676101904" stroke="grey" stroke-width="5" />
<circle cx="419.6296666770297" cy="337.76250676101904" r="2.5" fill="grey" stroke="none" />
<path d="M419.6296666770297,337.76250676101904 A181.05356856718882,181.05356856718882,0,0,0,383.70163199999996,361.23730944" stroke="grey" stroke-width="5" fill="none" />
<circle cx="383.70163199999996" cy="265.23730944" r="5" fill="black" stroke="none" />
<circle cx="383.70163199999996" cy="361.23730944" r="5" fill="black" stroke="none" />
<path d="M383.70163199999996,361.23730944 L437.11346638886914,424.9662333707693" stroke="grey" stroke-width="5" />
<circle cx="437.11346638886914" cy="424.9662333707693" r="2.5" fill="grey" stroke="none" />
<path d="M437.11346638886914,424.9662333707693 A97.90190112655496,97.90190112655496,0,0,1,447.70163199999996,417.23730944" stroke="grey" stroke-width="5" fill="none" />
<circle cx="383.70163199999996" cy="361.23730944" r="5" fill="black" stroke="none" />
<circle cx="447.70163199999996" cy="417.23730944" r="5" fill="black" stroke="none" />
<path d="M359.70163199999996,417.23730944 L415.6765918014432,450.25721083440027" stroke="grey" stroke-width="5" />
<circle cx="415.6765918014432" cy="450.25721083440027" r="2.5" fill="grey" stroke="none" />
<path d="M415.6765918014432,450.2572108344003 A97.90190112655496,97.90190112655496,0,0,1,447.70163199999996,417.23730944" stroke="grey" stroke-width="5" fill="none" />
<circle cx="359.70163199999996" cy="417.23730944" r="5" fill="black" stroke="none" />
<circle cx="447.70163199999996" cy="417.23730944" r="5" fill="black" stroke="none" />
<path d="M447.70163199999996,417.23730944 L470.9122766844719,453.9683868556291" stroke="grey" stroke-width="5" />
<circle cx="470.9122766844719" cy="453.9683868556291" r="2.5" fill="grey" stroke="none" />
<path d="M470.9122766844719,453.9683868556291 A54.451859989845495,54.451859989845495,0,0,1,519.701632,449.23730944" stroke="grey" stroke-width="5" fill="none" />
<circle cx="447.70163199999996" cy="417.23730944" r="5" fill="black" stroke="none" />
<circle cx="519.701632" cy="449.23730944" r="5" fill="black" stroke="none" />
<path d="M519.701632,449.23730944 L518.0294433966668,453.54582523346124" stroke="grey" stroke-width="5" />
<circle cx="518.0294433966668" cy="453.54582523346124" r="2.5" fill="grey" stroke="none" />
<path d="M518.0294433966668,453.5458252334613 A49.83022358402313,49.83022358402313,0,0,1,535.7016319999999,465.23730944" stroke="grey" stroke-width="5" fill="none" />
<circle cx="519.701632" cy="449.23730944" r="5" fill="black" stroke="none" />
<circle cx="535.701632" cy="465.23730944" r="5" fill="black" stroke="none" />
<path d="M535.7016319999999,465.23730944 A49.83022358402313,49.83022358402313,0,0,1,549.7887867013802,497.96827628891197" stroke="grey" stroke-width="5" fill="none" />
<path d="M549.7887867013802,497.96827628891197 L567.701632,497.23730944" stroke="grey" stroke-width="5" />
<circle cx="549.7887867013802" cy="497.96827628891197" r="2.5" fill="grey" stroke="none" />
<circle cx="535.701632" cy="465.23730944" r="5" fill="black" stroke="none" />
<circle cx="567.701632" cy="497.23730944" r="5" fill="black" stroke="none" />
<path d="M535.7016319999999,465.23730944 A49.83022358402313,49.83022358402313,0,0,1,491.28525342441924,549.0622499948498" stroke="grey" stroke-width="5" fill="none" />
<path d="M491.2852534244193,549.0622499948498 L487.70163199999996,569.23730944" stroke="grey" stroke-width="5" />
<circle cx="491.2852534244193" cy="549.0622499948498" r="2.5" fill="grey" stroke="none" />
<circle cx="535.701632" cy="465.23730944" r="5" fill="black" stroke="none" />
<circle cx="487.70163199999996" cy="569.23730944" r="5" fill="black" stroke="none" />
<path d="M487.70163199999996,569.23730944 A70.32108413522744,70.32108413522744,0,0,0,494.224548420401,570.0835147021427" stroke="grey" stroke-width="5" fill="none" />
<path d="M494.22454842040094,570.0835147021427 L487.70163199999996,649.23730944" stroke="grey" stroke-width="5" />
<circle cx="494.22454842040094" cy="570.0835147021427" r="2.5" fill="grey" stroke="none" />
<circle cx="487.70163199999996" cy="569.23730944" r="5" fill="black" stroke="none" />
<circle cx="487.70163199999996" cy="649.23730944" r="5" fill="black" stroke="none" />
<path d="M383.70163199999996,665.23730944 L413.8137367530936,622.4538787131248" stroke="grey" stroke-width="5" />
<circle cx="413.8137367530936" cy="622.4538787131248" r="2.5" fill="grey" stroke="none" />
<path d="M413.8137367530936,622.4538787131248 A149.74319478478392,149.74319478478392,0,0,0,487.701632,649.23730944" stroke="grey" stroke-width="5" fill="none" />
<circle cx="383.70163199999996" cy="665.23730944" r="5" fill="black" stroke="none" />
<circle cx="487.70163199999996" cy="649.23730944" r="5" fill="black" stroke="none" />
<path d="M487.701632,649.23730944 A149.74319478478392,149.74319478478392,0,0,0,493.1670738828351,649.5872170508934" stroke="grey" stroke-width="5" fill="none" />
<path d="M493.16707388283515,649.5872170508935 L487.70163199999996,769.23730944" stroke="grey" stroke-width="5" />
<circle cx="493.16707388283515" cy="649.5872170508935" r="2.5" fill="grey" stroke="none" />
<circle cx="487.70163199999996" cy="649.23730944" r="5" fill="black" stroke="none" />
<circle cx="487.70163199999996" cy="769.23730944" r="5" fill="black" stroke="none" />
<path d="M487.70163199999996,569.23730944 A70.32108413522744,70.32108413522744,0,0,0,549.163797356732,550.2789807317126" stroke="grey" stroke-width="5" fill="none" />
<path d="M549.163797356732,550.2789807317126 L567.701632,569.23730944" stroke="grey" stroke-width="5" />
<circle cx="549.163797356732" cy="550.2789807317126" r="2.5" fill="grey" stroke="none" />
<circle cx="487.70163199999996" cy="569.23730944" r="5" fill="black" stroke="none" />
<circle cx="567.701632" cy="569.23730944" r="5" fill="black" stroke="none" />
<path d="M567.701632,497.23730944 A67.75797690747365,67.75797690747365,0,0,1,547.3718442618886,548.4463807298451" stroke="grey" stroke-width="5" fill="none" />
<path d="M547.3718442618886,548.4463807298451 L567.701632,569.23730944" stroke="grey" stroke-width="5" />
<circle cx="547.3718442618886" cy="548.4463807298451" r="2.5" fill="grey" stroke="none" />
<circle cx="567.701632" cy="497.23730944" r="5" fill="black" stroke="none" />
<circle cx="567.701632" cy="569.23730944" r="5" fill="black" stroke="none" />
<path d="M567.701632,569.23730944 A96.83654265799522,96.83654265799522,0,0,0,586.7651137295591,543.0015236177791" stroke="grey" stroke-width="5" fill="none" />
<path d="M586.7651137295591,543.0015236177791 L639.701632,569.23730944" stroke="grey" stroke-width="5" />
<circle cx="586.7651137295591" cy="543.0015236177791" r="2.5" fill="grey" stroke="none" />
<circle cx="567.701632" cy="569.23730944" r="5" fill="black" stroke="none" />
<circle cx="639.701632" cy="569.23730944" r="5" fill="black" stroke="none" />
<path d="M567.701632,497.23730944 A67.75797690747365,67.75797690747365,0,0,1,567.7356958346993,498.2624890265585" stroke="grey" stroke-width="5" fill="none" />
<path d="M567.7356958346993,498.2624890265585 L607.701632,497.23730944" stroke="grey" stroke-width="5" />
<circle cx="567.7356958346993" cy="498.2624890265585" r="2.5" fill="grey" stroke="none" />
<circle cx="567.701632" cy="497.23730944" r="5" fill="black" stroke="none" />
<circle cx="607.701632" cy="497.23730944" r="5" fill="black" stroke="none" />
<path d="M639.701632,569.23730944 A155.91777000057988,155.91777000057988,0,0,0,654.6481372129323,519.8571059956834" stroke="grey" stroke-width="5" fill="none" />
<path d="M654.6481372129323,519.8571059956834 L727.701632,529.23730944" stroke="grey" stroke-width="5" />
<circle cx="654.6481372129323" cy="519.8571059956834" r="2.5" fill="grey" stroke="none" />
<circle cx="639.701632" cy="569.23730944" r="5" fill="black" stroke="none" />
<circle cx="727.701632" cy="529.23730944" r="5" fill="black" stroke="none" />
<path d="M607.701632,497.23730944 A107.7370595226811,107.7370595226811,0,0,1,607.7305703652829,498.8175435041614" stroke="grey" stroke-width="5" fill="none" />
<path d="M607.7305703652829,498.8175435041614 L751.701632,497.23730944" stroke="grey" stroke-width="5" />
<circle cx="607.7305703652829" cy="498.8175435041614" r="2.5" fill="grey" stroke="none" />
<circle cx="607.701632" cy="497.23730944" r="5" fill="black" stroke="none" />
<circle cx="751.701632" cy="497.23730944" r="5" fill="black" stroke="none" />
<path d="M727.701632,529.23730944 A229.5710205551949,229.5710205551949,0,0,0,729.5571931638308,497.4803679837332" stroke="grey" stroke-width="5" fill="none" />
<path d="M729.5571931638308,497.4803679837332 L751.701632,497.23730944" stroke="grey" stroke-width="5" />
<circle cx="729.5571931638308" cy="497.4803679837332" r="2.5" fill="grey" stroke="none" />
<circle cx="727.701632" cy="529.23730944" r="5" fill="black" stroke="none" />
<circle cx="751.701632" cy="497.23730944" r="5" fill="black" stroke="none" />
<path d="M487.701632,649.23730944 A149.74319478478392,149.74319478478392,0,0,0,587.6299778674318,621.4249206847884" stroke="grey" stroke-width="5" fill="none" />
<path d="M587.6299778674318,621.4249206847884 L607.701632,649.23730944" stroke="grey" stroke-width="5" />
<circle cx="587.6299778674318" cy="621.4249206847884" r="2.5" fill="grey" stroke="none" />
<circle cx="487.70163199999996" cy="649.23730944" r="5" fill="black" stroke="none" />
<circle cx="607.701632" cy="649.23730944" r="5" fill="black" stroke="none" />
<path d="M607.701632,649.23730944 A184.04188671156825,184.04188671156825,0,0,0,678.0612197681558,546.5362018113883" stroke="grey" stroke-width="5" fill="none" />
<path d="M678.0612197681558,546.5362018113883 L703.701632,553.23730944" stroke="grey" stroke-width="5" />
<circle cx="678.0612197681558" cy="546.5362018113883" r="2.5" fill="grey" stroke="none" />
<circle cx="607.701632" cy="649.23730944" r="5" fill="black" stroke="none" />
<circle cx="703.701632" cy="553.23730944" r="5" fill="black" stroke="none" />
<path d="M703.701632,553.23730944 A210.54350143348933,210.54350143348933,0,0,0,708.8290532814597,526.814035530726" stroke="grey" stroke-width="5" fill="none" />
<path d="M708.8290532814597,526.814035530726 L727.701632,529.23730944" stroke="grey" stroke-width="5" />
<circle cx="708.8290532814597" cy="526.814035530726" r="2.5" fill="grey" stroke="none" />
<circle cx="703.701632" cy="553.23730944" r="5" fill="black" stroke="none" />
<circle cx="727.701632" cy="529.23730944" r="5" fill="black" stroke="none" />
<path d="M727.701632,529.23730944 A229.5710205551949,229.5710205551949,0,0,1,723.5424686506276,552.2648848495515" stroke="grey" stroke-width="5" fill="none" />
<path d="M723.5424686506276,552.2648848495515 L727.701632,553.23730944" stroke="grey" stroke-width="5" />
<circle cx="723.5424686506276" cy="552.2648848495515" r="2.5" fill="grey" stroke="none" />
<circle cx="727.701632" cy="529.23730944" r="5" fill="black" stroke="none" />
<circle cx="727.701632" cy="553.23730944" r="5" fill="black" stroke="none" />
<path d="M727.701632,553.23730944 A233.84234931225294,233.84234931225294,0,0,1,664.7948679675792,665.9062862685494" stroke="grey" stroke-width="5" fill="none" />
<path d="M664.7948679675792,665.9062862685494 L727.701632,729.23730944" stroke="grey" stroke-width="5" />
<circle cx="664.7948679675792" cy="665.9062862685494" r="2.5" fill="grey" stroke="none" />
<circle cx="727.701632" cy="553.23730944" r="5" fill="black" stroke="none" />
<circle cx="727.701632" cy="729.23730944" r="5" fill="black" stroke="none" />
<path d="M727.701632,729.23730944 A323.1064487978439,323.1064487978439,0,0,0,763.6824991480346,686.7332774247816" stroke="grey" stroke-width="5" fill="none" />
<path d="M763.6824991480346,686.7332774247816 L823.701632,729.23730944" stroke="grey" stroke-width="5" />
<circle cx="763.6824991480346" cy="686.7332774247816" r="2.5" fill="grey" stroke="none" />
<circle cx="727.701632" cy="729.23730944" r="5" fill="black" stroke="none" />
<circle cx="823.701632" cy="729.23730944" r="5" fill="black" stroke="none" />
<path d="M727.701632,729.23730944 A323.1064487978439,323.1064487978439,0,0,1,705.0727972946504,749.6856525003009" stroke="grey" stroke-width="5" fill="none" />
<path d="M705.0727972946504,749.6856525003009 L727.701632,777.23730944" stroke="grey" stroke-width="5" />
<circle cx="705.0727972946504" cy="749.6856525003009" r="2.5" fill="grey" stroke="none" />
<circle cx="727.701632" cy="729.23730944" r="5" fill="black" stroke="none" />
<circle cx="727.701632" cy="777.23730944" r="5" fill="black" stroke="none" />
<path d="M415.70163199999996,353.23730944 A169.24982182523485,169.24982182523485,0,0,1,600.1339321778987,363.549650735274" stroke="grey" stroke-width="5" fill="none" />
<path d="M600.1339321778987,363.549650735274 L607.701632,353.23730944" stroke="grey" stroke-width="5" />
<circle cx="600.1339321778987" cy="363.549650735274" r="2.5" fill="grey" stroke="none" />
<circle cx="415.70163199999996" cy="353.23730944" r="5" fill="black" stroke="none" />
<circle cx="607.701632" cy="353.23730944" r="5" fill="black" stroke="none" />
<path d="M607.701632,353.23730944 L563.7408967108402,413.1416550866197" stroke="grey" stroke-width="5" />
<circle cx="563.7408967108402" cy="413.1416550866197" r="2.5" fill="grey" stroke="none" />
<path d="M563.7408967108402,413.1416550866197 A107.7370595226811,107.7370595226811,0,0,1,607.701632,497.23730944" stroke="grey" stroke-width="5" fill="none" />
<circle cx="607.701632" cy="353.23730944" r="5" fill="black" stroke="none" />
<circle cx="607.701632" cy="497.23730944" r="5" fill="black" stroke="none" />
<path d="M607.701632,353.23730944 A182.0410087751486,182.0410087751486,0,0,0,578.0996365115742,335.56346010501886" stroke="grey" stroke-width="5" fill="none" />
<path d="M578.0996365115742,335.56346010501886 L607.701632,273.23730944" stroke="grey" stroke-width="5" />
<circle cx="578.0996365115742" cy="335.56346010501886" r="2.5" fill="grey" stroke="none" />
<circle cx="607.701632" cy="353.23730944" r="5" fill="black" stroke="none" />
<circle cx="607.701632" cy="273.23730944" r="5" fill="black" stroke="none" />
<path d="M607.701632,273.23730944 A251.03975654360752,251.03975654360752,0,0,0,589.3563096852924,265.40159999501304" stroke="grey" stroke-width="5" fill="none" />
<path d="M589.3563096852924,265.40159999501304 L607.701632,217.23730944" stroke="grey" stroke-width="5" />
<circle cx="589.3563096852924" cy="265.40159999501304" r="2.5" fill="grey" stroke="none" />
<circle cx="607.701632" cy="273.23730944" r="5" fill="black" stroke="none" />
<circle cx="607.701632" cy="217.23730944" r="5" fill="black" stroke="none" />
<path d="M607.701632,273.23730944 L603.8492875828564,281.3483098842204" stroke="grey" stroke-width="5" />
<circle cx="603.8492875828564" cy="281.3483098842204" r="2.5" fill="grey" stroke="none" />
<path d="M603.8492875828564,281.3483098842204 A242.06039767370814,242.06039767370814,0,0,1,703.701632,369.23730944" stroke="grey" stroke-width="5" fill="none" />
<circle cx="607.701632" cy="273.23730944" r="5" fill="black" stroke="none" />
<circle cx="703.701632" cy="369.23730944" r="5" fill="black" stroke="none" />
<path d="M607.701632,353.23730944 A182.0410087751486,182.0410087751486,0,0,1,653.1933803909958,401.6601958500354" stroke="grey" stroke-width="5" fill="none" />
<path d="M653.1933803909958,401.6601958500354 L703.701632,369.23730944" stroke="grey" stroke-width="5" />
<circle cx="653.1933803909958" cy="401.6601958500354" r="2.5" fill="grey" stroke="none" />
<circle cx="607.701632" cy="353.23730944" r="5" fill="black" stroke="none" />
<circle cx="703.701632" cy="369.23730944" r="5" fill="black" stroke="none" />
<path d="M703.701632,369.23730944 A242.06039767370814,242.06039767370814,0,0,1,735.7216929874673,444.9680131462085" stroke="grey" stroke-width="5" fill="none" />
<path d="M735.7216929874673,444.9680131462085 L751.701632,441.23730944" stroke="grey" stroke-width="5" />
<circle cx="735.7216929874673" cy="444.9680131462085" r="2.5" fill="grey" stroke="none" />
<circle cx="703.701632" cy="369.23730944" r="5" fill="black" stroke="none" />
<circle cx="751.701632" cy="441.23730944" r="5" fill="black" stroke="none" />
<path d="M703.701632,553.23730944 A210.54350143348933,210.54350143348933,0,0,0,705.0146135821765,547.9330179899473" stroke="grey" stroke-width="5" fill="none" />
<path d="M705.0146135821764,547.9330179899473 L727.701632,553.23730944" stroke="grey" stroke-width="5" />
<circle cx="705.0146135821764" cy="547.9330179899473" r="2.5" fill="grey" stroke="none" />
<circle cx="703.701632" cy="553.23730944" r="5" fill="black" stroke="none" />
<circle cx="727.701632" cy="553.23730944" r="5" fill="black" stroke="none" />
<path d="M727.701632,553.23730944 A233.84234931225294,233.84234931225294,0,0,0,728.780930273991,548.3893611741362" stroke="grey" stroke-width="5" fill="none" />
<path d="M728.780930273991,548.3893611741362 L751.701632,553.23730944" stroke="grey" stroke-width="5" />
<circle cx="728.780930273991" cy="548.3893611741362" r="2.5" fill="grey" stroke="none" />
<circle cx="727.701632" cy="553.23730944" r="5" fill="black" stroke="none" />
<circle cx="751.701632" cy="553.23730944" r="5" fill="black" stroke="none" />
<path d="M751.701632,553.23730944 L746.2684894231477,552.0881476713726" stroke="grey" stroke-width="5" />
<circle cx="746.2684894231477" cy="552.0881476713726" r="2.5" fill="grey" stroke="none" />
<path d="M746.2684894231477,552.0881476713726 A251.71679326297186,251.71679326297186,0,0,0,751.7016319999999,497.23730944" stroke="grey" stroke-width="5" fill="none" />
<circle cx="751.701632" cy="553.23730944" r="5" fill="black" stroke="none" />
<circle cx="751.701632" cy="497.23730944" r="5" fill="black" stroke="none" />
<path d="M751.7016319999999,497.23730944 A251.71679326297186,251.71679326297186,0,0,0,751.0203351220507,481.2880956124967" stroke="grey" stroke-width="5" fill="none" />
<path d="M751.0203351220507,481.2880956124967 L751.701632,481.23730944" stroke="grey" stroke-width="5" />
<circle cx="751.0203351220507" cy="481.2880956124967" r="2.5" fill="grey" stroke="none" />
<circle cx="751.701632" cy="497.23730944" r="5" fill="black" stroke="none" />
<circle cx="751.701632" cy="481.23730944" r="5" fill="black" stroke="none" />
<path d="M751.701632,481.23730944 A252.39998040513734,252.39998040513734,0,0,0,750.0266691131019,465.4686397499152" stroke="grey" stroke-width="5" fill="none" />
<path d="M750.0266691131019,465.46863974991516 L751.701632,465.23730944" stroke="grey" stroke-width="5" />
<circle cx="750.0266691131019" cy="465.46863974991516" r="2.5" fill="grey" stroke="none" />
<circle cx="751.701632" cy="481.23730944" r="5" fill="black" stroke="none" />
<circle cx="751.701632" cy="465.23730944" r="5" fill="black" stroke="none" />
<path d="M751.701632,465.23730944 A254.09084242930464,254.09084242930464,0,0,0,747.4371029943701,442.23291362560167" stroke="grey" stroke-width="5" fill="none" />
<path d="M747.4371029943701,442.23291362560167 L751.701632,441.23730944" stroke="grey" stroke-width="5" />
<circle cx="747.4371029943701" cy="442.23291362560167" r="2.5" fill="grey" stroke="none" />
<circle cx="751.701632" cy="465.23730944" r="5" fill="black" stroke="none" />
<circle cx="751.701632" cy="441.23730944" r="5" fill="black" stroke="none" />
<path d="M751.701632,441.23730944 A258.47004730396463,258.47004730396463,0,0,1,753.6405844751289,450.2685284711111" stroke="grey" stroke-width="5" fill="none" />
<path d="M753.6405844751289,450.2685284711111 L799.701632,441.23730944" stroke="grey" stroke-width="5" />
<circle cx="753.6405844751289" cy="450.2685284711111" r="2.5" fill="grey" stroke="none" />
<circle cx="751.701632" cy="441.23730944" r="5" fill="black" stroke="none" />
<circle cx="799.701632" cy="441.23730944" r="5" fill="black" stroke="none" />
<path d="M799.701632,441.23730944 L794.6775425543201,442.2223858690875" stroke="grey" stroke-width="5" />
<circle cx="794.6775425543201" cy="442.2223858690875" r="2.5" fill="grey" stroke="none" />
<path d="M794.6775425543201,442.2223858690875 A300.28837270283,300.28837270283,0,0,1,799.701632,481.23730944" stroke="grey" stroke-width="5" fill="none" />
<circle cx="799.701632" cy="441.23730944" r="5" fill="black" stroke="none" />
<circle cx="799.701632" cy="481.23730944" r="5" fill="black" stroke="none" />
<path d="M799.701632,481.23730944 L751.9068099884335,484.22948352256657" stroke="grey" stroke-width="5" />
<circle cx="751.9068099884335" cy="484.22948352256657" r="2.5" fill="grey" stroke="none" />
<path d="M751.9068099884335,484.22948352256657 A252.39998040513734,252.39998040513734,0,0,0,751.701632,481.23730944" stroke="grey" stroke-width="5" fill="none" />
<circle cx="799.701632" cy="481.23730944" r="5" fill="black" stroke="none" />
<circle cx="751.701632" cy="481.23730944" r="5" fill="black" stroke="none" />
<path d="M751.701632,465.23730944 A254.09084242930464,254.09084242930464,0,0,1,752.7068587429765,473.5160472985803" stroke="grey" stroke-width="5" fill="none" />
<path d="M752.7068587429765,473.5160472985803 L831.701632,465.23730944" stroke="grey" stroke-width="5" />
<circle cx="752.7068587429765" cy="473.5160472985803" r="2.5" fill="grey" stroke="none" />
<circle cx="751.701632" cy="465.23730944" r="5" fill="black" stroke="none" />
<circle cx="831.701632" cy="465.23730944" r="5" fill="black" stroke="none" />
<circle cx="500" cy="500" r="5" fill="red" stroke="none" />
</svg>