<?xml version="1.0" encoding="UTF-8"?>
<svg xmlns="http://www.w3.org/2000/svg" xmlns:xlink="http://www.w3.org/1999/xlink"
     width="1000" height="1000" viewBox="0 0 1000 1000">
<defs>
</defs>
<rect x="0" y="0" width="1000" height="1000" fill="white" />
<path d="M407.44,285.9584 L440.4609788311955,362.31820058983595" stroke="grey" stroke-width="5" />
<circle cx="440.4609788311955" cy="362.31820058983595" r="2.5" fill="grey" stroke="none" />
<path d="M440.4609788311955,362.31820058983595 A150.00390971758037,150.00390971758037,0,0,0,407.43999999999994,381.9584" stroke="grey" stroke-width="5" fill="none" />
<circle cx="407.44" cy="285.9584" r="5" fill="black" stroke="none" />
<circle cx="407.44" cy="381.9584" r="5" fill="black" stroke="none" />
<path d="M407.44,381.9584 L457.85569933689885,446.25344985789195" stroke="grey" stroke-width="5" />
<circle cx="457.85569933689885" cy="446.25344985789195" r="2.5" fill="grey" stroke="none" />
<path d="M457.85569933689885,446.25344985789195 A68.2995880702073,68.2995880702073,0,0,1,471.44,437.9584" stroke="grey" stroke-width="5" fill="none" />
<circle cx="407.44" cy="381.9584" r="5" fill="black" stroke="none" />
<circle cx="471.44" cy="437.9584" r="5" fill="black" stroke="none" />
<path d="M383.44,437.9584 L439.7091032428912,467.90885638086957" stroke="grey" stroke-width="5" />
<circle cx="439.7091032428912" cy="467.90885638086957" r="2.5" fill="grey" stroke="none" />
<path d="M439.7091032428912,467.90885638086957 A68.2995880702073,68.2995880702073,0,0,1,471.44,437.9584" stroke="grey" stroke-width="5" fill="none" />
<circle cx="383.44" cy="437.9584" r="5" fill="black" stroke="none" />
<circle cx="471.44" cy="437.9584" r="5" fill="black" stroke="none" />
<path d="M471.44,437.9584 L477.9145760420981,452.02328294724896" stroke="grey" stroke-width="5" />
<circle cx="477.9145760420981" cy="452.02328294724896" r="2.5" fill="grey" stroke="none" />
<path d="M477.9145760420981,452.02328294724896 A52.816013959404394,52.816013959404394,0,0,1,543.4399999999999,469.9584" stroke="grey" stroke-width="5" fill="none" />
<circle cx="471.44" cy="437.9584" r="5" fill="black" stroke="none" />
<circle cx="543.44" cy="469.9584" r="5" fill="black" stroke="none" />
<path d="M543.4399999999999,469.9584 A52.816013959404394,52.816013959404394,0,0,1,551.4012521932391,487.8574054038259" stroke="grey" stroke-width="5" fill="none" />
<path d="M551.4012521932391,487.8574054038259 L59.43999999999998,-14.041600000000017" stroke="grey" stroke-width="5" />
<circle cx="551.4012521932391" cy="487.8574054038259" r="2.5" fill="grey" stroke="none" />
<circle cx="543.44" cy="469.9584" r="5" fill="black" stroke="none" />
<circle cx="559.44" cy="485.9584" r="5" fill="black" stroke="none" />
<path d="M559.4399999999999,485.9584 A61.0760192756535,61.0760192756535,0,0,1,559.9311472656611,511.77020467033736" stroke="grey" stroke-width="5" fill="none" />
<path d="M559.9311472656611,511.77020467033736 L91.43999999999998,17.958399999999983" stroke="grey" stroke-width="5" />
<circle cx="559.9311472656611" cy="511.77020467033736" r="2.5" fill="grey" stroke="none" />
<circle cx="559.44" cy="485.9584" r="5" fill="black" stroke="none" />
<circle cx="591.44" cy="517.9584" r="5" fill="black" stroke="none" />
<path d="M559.4399999999999,485.9584 A61.0760192756535,61.0760192756535,0,0,1,507.7049774976849,560.5880636125645" stroke="grey" stroke-width="5" fill="none" />
<path d="M507.7049774976849,560.5880636125645 L11.439999999999984,89.95839999999998" stroke="grey" stroke-width="5" />
<circle cx="507.7049774976849" cy="560.5880636125645" r="2.5" fill="grey" stroke="none" />
<circle cx="559.44" cy="485.9584" r="5" fill="black" stroke="none" />
<circle cx="511.44" cy="589.9584" r="5" fill="black" stroke="none" />
<path d="M511.44,589.9584 A90.68289436580638,90.68289436580638,0,0,1,506.0901382768527,590.4781606042519" stroke="grey" stroke-width="5" fill="none" />
<path d="M506.0901382768527,590.4781606042519 L11.439999999999984,169.95839999999998" stroke="grey" stroke-width="5" />
<circle cx="506.0901382768527" cy="590.4781606042519" r="2.5" fill="grey" stroke="none" />
<circle cx="511.44" cy="589.9584" r="5" fill="black" stroke="none" />
<circle cx="511.44" cy="669.9584" r="5" fill="black" stroke="none" />
<path d="M407.44,685.9584 L424.09544151365935,652.4966535093596" stroke="grey" stroke-width="5" />
<circle cx="424.09544151365935" cy="652.4966535093596" r="2.5" fill="grey" stroke="none" />
<path d="M424.0954415136594,652.4966535093596 A170.34298145377164,170.34298145377164,0,0,0,511.43999999999994,669.9584" stroke="grey" stroke-width="5" fill="none" />
<circle cx="407.44" cy="685.9584" r="5" fill="black" stroke="none" />
<circle cx="511.44" cy="669.9584" r="5" fill="black" stroke="none" />
<path d="M511.43999999999994,669.9584 A170.34298145377164,170.34298145377164,0,0,1,506.71547632997493,670.2105569822904" stroke="grey" stroke-width="5" fill="none" />
<path d="M506.71547632997493,670.2105569822904 L11.439999999999984,289.9584" stroke="grey" stroke-width="5" />
<circle cx="506.71547632997493" cy="670.2105569822904" r="2.5" fill="grey" stroke="none" />
<circle cx="511.44" cy="669.9584" r="5" fill="black" stroke="none" />
<circle cx="511.44" cy="789.9584" r="5" fill="black" stroke="none" />
<path d="M511.44,589.9584 A90.68289436580638,90.68289436580638,0,0,0,564.6440638884139,563.596637761368" stroke="grey" stroke-width="5" fill="none" />
<path d="M564.6440638884139,563.596637761368 L91.43999999999998,89.95839999999998" stroke="grey" stroke-width="5" />
<circle cx="564.6440638884139" cy="563.596637761368" r="2.5" fill="grey" stroke="none" />
<circle cx="511.44" cy="589.9584" r="5" fill="black" stroke="none" />
<circle cx="591.44" cy="589.9584" r="5" fill="black" stroke="none" />
<path d="M591.4399999999999,517.9584 A93.18678946374317,93.18678946374317,0,0,1,566.4289865666423,565.3526393827278" stroke="grey" stroke-width="5" fill="none" />
<path d="M566.4289865666423,565.3526393827278 L91.43999999999998,89.95839999999998" stroke="grey" stroke-width="5" />
<circle cx="566.4289865666423" cy="565.3526393827278" r="2.5" fill="grey" stroke="none" />
<circle cx="591.44" cy="517.9584" r="5" fill="black" stroke="none" />
<circle cx="591.44" cy="589.9584" r="5" fill="black" stroke="none" />
<path d="M591.44,589.9584 A128.2723170857999,128.2723170857999,0,0,0,612.3749613074714,561.8518827660428" stroke="grey" stroke-width="5" fill="none" />
<path d="M612.3749613074714,561.8518827660428 L163.44,89.95839999999998" stroke="grey" stroke-width="5" />
<circle cx="612.3749613074714" cy="561.8518827660428" r="2.5" fill="grey" stroke="none" />
<circle cx="591.44" cy="589.9584" r="5" fill="black" stroke="none" />
<circle cx="663.44" cy="589.9584" r="5" fill="black" stroke="none" />
<path d="M591.4399999999999,517.9584 A93.18678946374317,93.18678946374317,0,0,0,592.3290100166349,512.6147389948474" stroke="grey" stroke-width="5" fill="none" />
<path d="M592.3290100166349,512.6147389948474 L131.44,17.958399999999983" stroke="grey" stroke-width="5" />
<circle cx="592.3290100166349" cy="512.6147389948474" r="2.5" fill="grey" stroke="none" />
<circle cx="591.44" cy="517.9584" r="5" fill="black" stroke="none" />
<circle cx="631.44" cy="517.9584" r="5" fill="black" stroke="none" />
<path d="M663.44,589.9584 A186.5613768456912,186.5613768456912,0,0,0,682.9844634784833,536.3570276019864" stroke="grey" stroke-width="5" fill="none" />
<path d="M682.9844634784833,536.3570276019864 L251.44,49.95839999999998" stroke="grey" stroke-width="5" />
<circle cx="682.9844634784833" cy="536.3570276019864" r="2.5" fill="grey" stroke="none" />
<circle cx="663.44" cy="589.9584" r="5" fill="black" stroke="none" />
<circle cx="751.44" cy="549.9584" r="5" fill="black" stroke="none" />
<path d="M631.44,517.9584 A132.66113873535082,132.66113873535082,0,0,0,632.3800696570119,508.6310421250671" stroke="grey" stroke-width="5" fill="none" />
<path d="M632.3800696570119,508.6310421250671 L275.44,17.958399999999983" stroke="grey" stroke-width="5" />
<circle cx="632.3800696570119" cy="508.6310421250671" r="2.5" fill="grey" stroke="none" />
<circle cx="631.44" cy="517.9584" r="5" fill="black" stroke="none" />
<circle cx="775.44" cy="517.9584" r="5" fill="black" stroke="none" />
<path d="M751.44,549.9584 A256.3550571581532,256.3550571581532,0,0,0,755.811917845994,516.678669566677" stroke="grey" stroke-width="5" fill="none" />
<path d="M755.811917845994,516.678669566677 L275.44,17.958399999999983" stroke="grey" stroke-width="5" />
<circle cx="755.811917845994" cy="516.678669566677" r="2.5" fill="grey" stroke="none" />
<circle cx="751.44" cy="549.9584" r="5" fill="black" stroke="none" />
<circle cx="775.44" cy="517.9584" r="5" fill="black" stroke="none" />
<path d="M511.43999999999994,669.9584 A170.34298145377164,170.34298145377164,0,0,0,604.2096477264575,634.7482120522852" stroke="grey" stroke-width="5" fill="none" />
<path d="M604.2096477264575,634.7482120522852 L131.44,169.95839999999998" stroke="grey" stroke-width="5" />
<circle cx="604.2096477264575" cy="634.7482120522852" r="2.5" fill="grey" stroke="none" />
<circle cx="511.44" cy="669.9584" r="5" fill="black" stroke="none" />
<circle cx="631.44" cy="669.9584" r="5" fill="black" stroke="none" />
<path d="M631.44,669.9584 A214.85420947833438,214.85420947833438,0,0,0,704.323001790856,566.4412693266305" stroke="grey" stroke-width="5" fill="none" />
<path d="M704.323001790856,566.4412693266305 L227.44,73.95839999999998" stroke="grey" stroke-width="5" />
<circle cx="704.323001790856" cy="566.4412693266305" r="2.5" fill="grey" stroke="none" />
<circle cx="631.44" cy="669.9584" r="5" fill="black" stroke="none" />
<circle cx="727.44" cy="573.9584" r="5" fill="black" stroke="none" />
<path d="M727.44,573.9584 A239.16270305078925,239.16270305078925,0,0,0,734.5772723258247,546.6079589634206" stroke="grey" stroke-width="5" fill="none" />
<path d="M734.5772723258247,546.6079589634206 L251.44,49.95839999999998" stroke="grey" stroke-width="5" />
<circle cx="734.5772723258247" cy="546.6079589634206" r="2.5" fill="grey" stroke="none" />
<circle cx="727.44" cy="573.9584" r="5" fill="black" stroke="none" />
<circle cx="751.44" cy="549.9584" r="5" fill="black" stroke="none" />
<path d="M751.44,549.9584 A256.3550571581532,256.3550571581532,0,0,1,745.9367525772163,572.3396783399888" stroke="grey" stroke-width="5" fill="none" />
<path d="M745.9367525772163,572.3396783399888 L251.44,73.95839999999998" stroke="grey" stroke-width="5" />
<circle cx="745.9367525772163" cy="572.3396783399888" r="2.5" fill="grey" stroke="none" />
<circle cx="751.44" cy="549.9584" r="5" fill="black" stroke="none" />
<circle cx="751.44" cy="573.9584" r="5" fill="black" stroke="none" />
<path d="M751.44,573.9584 A262.09143162369884,262.09143162369884,0,0,1,685.873445362474,684.7781936258806" stroke="grey" stroke-width="5" fill="none" />
<path d="M685.873445362474,684.7781936258806 L251.44,249.95839999999998" stroke="grey" stroke-width="5" />
<circle cx="685.873445362474" cy="684.7781936258806" r="2.5" fill="grey" stroke="none" />
<circle cx="751.44" cy="573.9584" r="5" fill="black" stroke="none" />
<circle cx="751.44" cy="749.9584" r="5" fill="black" stroke="none" />
<path d="M751.44,749.9584 A354.54375658098957,354.54375658098957,0,0,0,787.802343260402,707.0533422680776" stroke="grey" stroke-width="5" fill="none" />
<path d="M787.802343260402,707.0533422680776 L347.44,249.95839999999998" stroke="grey" stroke-width="5" />
<circle cx="787.802343260402" cy="707.0533422680776" r="2.5" fill="grey" stroke="none" />
<circle cx="751.44" cy="749.9584" r="5" fill="black" stroke="none" />
<circle cx="847.44" cy="749.9584" r="5" fill="black" stroke="none" />
<path d="M751.44,749.9584 A354.54375658098957,354.54375658098957,0,0,1,728.6549380809809,770.9579203893896" stroke="grey" stroke-width="5" fill="none" />
<path d="M728.6549380809809,770.9579203893895 L251.44,297.9584" stroke="grey" stroke-width="5" />
<circle cx="728.6549380809809" cy="770.9579203893895" r="2.5" fill="grey" stroke="none" />
<circle cx="751.44" cy="749.9584" r="5" fill="black" stroke="none" />
<circle cx="751.44" cy="797.9584" r="5" fill="black" stroke="none" />
<path d="M439.43999999999994,373.95840000000004 A139.83561252613728,139.83561252613728,0,0,1,600.9296356809468,403.2156667023461" stroke="grey" stroke-width="5" fill="none" />
<path d="M600.9296356809468,403.2156667023461 L131.44,-126.04160000000002" stroke="grey" stroke-width="5" />
<circle cx="600.9296356809468" cy="403.2156667023461" r="2.5" fill="grey" stroke="none" />
<circle cx="439.44" cy="373.9584" r="5" fill="black" stroke="none" />
<circle cx="631.44" cy="373.9584" r="5" fill="black" stroke="none" />
<path d="M631.44,373.9584 L595.7512908171072,408.1813306706215" stroke="grey" stroke-width="5" />
<circle cx="595.7512908171072" cy="408.1813306706215" r="2.5" fill="grey" stroke="none" />
<path d="M595.7512908171072,408.1813306706215 A132.66113873535082,132.66113873535082,0,0,1,631.44,517.9584" stroke="grey" stroke-width="5" fill="none" />
<circle cx="631.44" cy="373.9584" r="5" fill="black" stroke="none" />
<circle cx="631.44" cy="517.9584" r="5" fill="black" stroke="none" />
<path d="M631.44,373.9584 A182.1069974782957,182.1069974782957,0,0,0,597.9398260521115,346.4723184456883" stroke="grey" stroke-width="5" fill="none" />
<path d="M597.9398260521115,346.4723184456883 L131.44,-206.04160000000002" stroke="grey" stroke-width="5" />
<circle cx="597.9398260521115" cy="346.4723184456883" r="2.5" fill="grey" stroke="none" />
<circle cx="631.44" cy="373.9584" r="5" fill="black" stroke="none" />
<circle cx="631.44" cy="293.9584" r="5" fill="black" stroke="none" />
<path d="M631.44,293.9584 A244.39642904625265,244.39642904625265,0,0,0,609.5768941767913,281.545156169225" stroke="grey" stroke-width="5" fill="none" />
<path d="M609.5768941767913,281.545156169225 L131.44,-262.0416" stroke="grey" stroke-width="5" />
<circle cx="609.5768941767913" cy="281.545156169225" r="2.5" fill="grey" stroke="none" />
<circle cx="631.44" cy="293.9584" r="5" fill="black" stroke="none" />
<circle cx="631.44" cy="237.95839999999998" r="5" fill="black" stroke="none" />
<path d="M631.44,293.9584 A244.39642904625265,244.39642904625265,0,0,1,719.9995038508639,393.5583125089904" stroke="grey" stroke-width="5" fill="none" />
<path d="M719.9995038508639,393.5583125089904 L227.44,-110.04160000000002" stroke="grey" stroke-width="5" />
<circle cx="719.9995038508639" cy="393.5583125089904" r="2.5" fill="grey" stroke="none" />
<circle cx="631.44" cy="293.9584" r="5" fill="black" stroke="none" />
<circle cx="727.44" cy="389.9584" r="5" fill="black" stroke="none" />
<path d="M631.44,373.9584 A182.1069974782957,182.1069974782957,0,0,1,663.9281279572765,420.6871549181171" stroke="grey" stroke-width="5" fill="none" />
<path d="M663.9281279572765,420.6871549181171 L227.44,-110.04160000000002" stroke="grey" stroke-width="5" />
<circle cx="663.9281279572765" cy="420.6871549181171" r="2.5" fill="grey" stroke="none" />
<circle cx="631.44" cy="373.9584" r="5" fill="black" stroke="none" />
<circle cx="727.44" cy="389.9584" r="5" fill="black" stroke="none" />
<path d="M727.4399999999999,389.9584 A252.66204172878838,252.66204172878838,0,0,1,750.2862186663731,465.43244185296726" stroke="grey" stroke-width="5" fill="none" />
<path d="M750.2862186663731,465.43244185296726 L275.44,-38.04160000000002" stroke="grey" stroke-width="5" />
<circle cx="750.2862186663731" cy="465.43244185296726" r="2.5" fill="grey" stroke="none" />
<circle cx="727.44" cy="389.9584" r="5" fill="black" stroke="none" />
<circle cx="775.44" cy="461.9584" r="5" fill="black" stroke="none" />
<path d="M727.44,573.9584 A239.16270305078925,239.16270305078925,0,0,0,729.4430980919291,567.4882454101262" stroke="grey" stroke-width="5" fill="none" />
<path d="M729.4430980919291,567.4882454101262 L251.44,73.95839999999998" stroke="grey" stroke-width="5" />
<circle cx="729.4430980919291" cy="567.4882454101262" r="2.5" fill="grey" stroke="none" />
<circle cx="727.44" cy="573.9584" r="5" fill="black" stroke="none" />
<circle cx="751.44" cy="573.9584" r="5" fill="black" stroke="none" />
<path d="M751.44,573.9584 A262.09143162369884,262.09143162369884,0,0,0,753.1253580655848,567.9666950405087" stroke="grey" stroke-width="5" fill="none" />
<path d="M753.1253580655848,567.9666950405087 L275.44,73.95839999999998" stroke="grey" stroke-width="5" />
<circle cx="753.1253580655848" cy="567.9666950405087" r="2.5" fill="grey" stroke="none" />
<circle cx="751.44" cy="573.9584" r="5" fill="black" stroke="none" />
<circle cx="775.44" cy="573.9584" r="5" fill="black" stroke="none" />
<path d="M775.44,573.9584 L766.582083008753,571.579960528589" stroke="grey" stroke-width="5" />
<circle cx="766.582083008753" cy="571.579960528589" r="2.5" fill="grey" stroke="none" />
<path d="M766.582083008753,571.579960528589 A276.02481361384883,276.02481361384883,0,0,0,775.44,517.9584" stroke="grey" stroke-width="5" fill="none" />
<circle cx="775.44" cy="573.9584" r="5" fill="black" stroke="none" />
<circle cx="775.44" cy="517.9584" r="5" fill="black" stroke="none" />
<path d="M775.44,517.9584 L774.8633727806202,517.9208045082178" stroke="grey" stroke-width="5" />
<circle cx="774.8633727806202" cy="517.9208045082178" r="2.5" fill="grey" stroke="none" />
<path d="M774.8633727806202,517.9208045082178 A275.4469621008008,275.4469621008008,0,0,0,775.44,501.9584" stroke="grey" stroke-width="5" fill="none" />
<circle cx="775.44" cy="517.9584" r="5" fill="black" stroke="none" />
<circle cx="775.44" cy="501.9584" r="5" fill="black" stroke="none" />
<path d="M775.44,501.9584 A275.4469621008008,275.4469621008008,0,0,0,775.0897372387135,485.9762559744005" stroke="grey" stroke-width="5" fill="none" />
<path d="M775.0897372387135,485.9762559744005 L275.44,-14.041600000000017" stroke="grey" stroke-width="5" />
<circle cx="775.0897372387135" cy="485.9762559744005" r="2.5" fill="grey" stroke="none" />
<circle cx="775.44" cy="501.9584" r="5" fill="black" stroke="none" />
<circle cx="775.44" cy="485.9584" r="5" fill="black" stroke="none" />
<path d="M775.44,485.9584 A275.7976797048155,275.7976797048155,0,0,0,773.2043084032937,462.2671760871524" stroke="grey" stroke-width="5" fill="none" />
<path d="M773.2043084032937,462.2671760871524 L275.44,-38.04160000000002" stroke="grey" stroke-width="5" />
<circle cx="773.2043084032937" cy="462.2671760871524" r="2.5" fill="grey" stroke="none" />
<circle cx="775.44" cy="485.9584" r="5" fill="black" stroke="none" />
<circle cx="775.44" cy="461.9584" r="5" fill="black" stroke="none" />
<path d="M775.44,461.9584 A278.05459343546187,278.05459343546187,0,0,1,776.1510944413372,467.5203145118118" stroke="grey" stroke-width="5" fill="none" />
<path d="M776.1510944413372,467.5203145118118 L323.44,-38.04160000000002" stroke="grey" stroke-width="5" />
<circle cx="776.1510944413372" cy="467.5203145118118" r="2.5" fill="grey" stroke="none" />
<circle cx="775.44" cy="461.9584" r="5" fill="black" stroke="none" />
<circle cx="823.44" cy="461.9584" r="5" fill="black" stroke="none" />
<path d="M823.44,461.9584 L821.2316910805602,462.218131649115" stroke="grey" stroke-width="5" />
<circle cx="821.2316910805602" cy="462.218131649115" r="2.5" fill="grey" stroke="none" />
<path d="M821.2316910805602,462.218131649115 A323.4459289132575,323.4459289132575,0,0,1,823.44,501.9584" stroke="grey" stroke-width="5" fill="none" />
<circle cx="823.44" cy="461.9584" r="5" fill="black" stroke="none" />
<circle cx="823.44" cy="501.9584" r="5" fill="black" stroke="none" />
<path d="M823.44,501.9584 L775.4419130307729,501.6677759166444" stroke="grey" stroke-width="5" />
<circle cx="775.4419130307729" cy="501.6677759166444" r="2.5" fill="grey" stroke="none" />
<path d="M775.4419130307729,501.6677759166444 A275.4469621008008,275.4469621008008,0,0,1,775.44,501.9584" stroke="grey" stroke-width="5" fill="none" />
<circle cx="823.44" cy="501.9584" r="5" fill="black" stroke="none" />
<circle cx="775.44" cy="501.9584" r="5" fill="black" stroke="none" />
<path d="M775.44,485.9584 A275.7976797048155,275.7976797048155,0,0,1,775.5827218896959,489.1131489205313" stroke="grey" stroke-width="5" fill="none" />
<path d="M775.5827218896959,489.1131489205313 L355.44,-14.041600000000017" stroke="grey" stroke-width="5" />
<circle cx="775.5827218896959" cy="489.1131489205313" r="2.5" fill="grey" stroke="none" />
<circle cx="775.44" cy="485.9584" r="5" fill="black" stroke="none" />
<circle cx="855.44" cy="485.9584" r="5" fill="black" stroke="none" />
<circle cx="500" cy="500" r="5" fill="red" stroke="none" />
</svg>