<?xml version="1.0" encoding="UTF-8"?>
<svg xmlns="http://www.w3.org/2000/svg" xmlns:xlink="http://www.w3.org/1999/xlink"
     width="1000" height="1000" viewBox="0 0 1000 1000">
<defs>
</defs>
<rect x="0" y="0" width="1000" height="1000" fill="white" />
<path d="M405.014392,282.89890304000005 L438.30857102869555,358.9967766200947" stroke="grey" stroke-width="5" />
<circle cx="438.30857102869555" cy="358.9967766200947" r="2.5" fill="grey" stroke="none" />
<path d="M438.30857102869555,358.9967766200947 A153.90822399093875,153.90822399093875,0,0,0,405.01439200000004,378.89890304000005" stroke="grey" stroke-width="5" fill="none" />
<circle cx="405.014392" cy="282.89890304000005" r="5" fill="black" stroke="none" />
<circle cx="405.014392" cy="378.89890304000005" r="5" fill="black" stroke="none" />
<path d="M405.014392,378.89890304000005 L455.5035862783319,443.26967394386736" stroke="grey" stroke-width="5" />
<circle cx="455.5035862783319" cy="443.26967394386736" r="2.5" fill="grey" stroke="none" />
<path d="M455.5035862783319,443.26967394386736 A72.09896482283902,72.09896482283902,0,0,1,469.01439200000004,434.89890304000005" stroke="grey" stroke-width="5" fill="none" />
<circle cx="405.014392" cy="378.89890304000005" r="5" fill="black" stroke="none" />
<circle cx="469.014392" cy="434.89890304000005" r="5" fill="black" stroke="none" />
<path d="M381.014392,434.89890304000005 L436.74935234961976,465.3934066927641" stroke="grey" stroke-width="5" />
<circle cx="436.74935234961976" cy="465.3934066927641" r="2.5" fill="grey" stroke="none" />
<path d="M436.74935234961976,465.3934066927641 A72.09896482283902,72.09896482283902,0,0,1,469.01439200000004,434.89890304000005" stroke="grey" stroke-width="5" fill="none" />
<circle cx="381.014392" cy="434.89890304000005" r="5" fill="black" stroke="none" />
<circle cx="469.014392" cy="434.89890304000005" r="5" fill="black" stroke="none" />
<path d="M469.014392,434.89890304000005 L477.3490509940574,452.4101115759328" stroke="grey" stroke-width="5" />
<circle cx="477.3490509940574" cy="452.4101115759328" r="2.5" fill="grey" stroke="none" />
<path d="M477.3490509940574,452.4101115759328 A52.705435877952674,52.705435877952674,0,0,1,541.014392,466.89890304000005" stroke="grey" stroke-width="5" fill="none" />
<circle cx="469.014392" cy="434.89890304000005" r="5" fill="black" stroke="none" />
<circle cx="541.014392" cy="466.89890304000005" r="5" fill="black" stroke="none" />
<path d="M541.014392,466.89890304000005 A52.705435877952674,52.705435877952674,0,0,1,550.4834366666977,484.857820718123" stroke="grey" stroke-width="5" fill="none" />
<path d="M550.4834366666977,484.857820718123 L57.01439199999999,-17.10109695999995" stroke="grey" stroke-width="5" />
<circle cx="550.4834366666977" cy="484.857820718123" r="2.5" fill="grey" stroke="none" />
<circle cx="541.014392" cy="466.89890304000005" r="5" fill="black" stroke="none" />
<circle cx="557.014392" cy="482.89890304000005" r="5" fill="black" stroke="none" />
<path d="M557.014392,482.89890304000005 A59.52384742575855,59.52384742575855,0,0,1,558.7071912905303,509.82619474374826" stroke="grey" stroke-width="5" fill="none" />
<path d="M558.7071912905303,509.82619474374826 L89.01439199999999,14.89890304000005" stroke="grey" stroke-width="5" />
<circle cx="558.7071912905303" cy="509.82619474374826" r="2.5" fill="grey" stroke="none" />
<circle cx="557.014392" cy="482.89890304000005" r="5" fill="black" stroke="none" />
<circle cx="589.014392" cy="514.89890304" r="5" fill="black" stroke="none" />
<path d="M557.014392,482.89890304000005 A59.52384742575855,59.52384742575855,0,0,1,506.1417049182092,559.2061472573805" stroke="grey" stroke-width="5" fill="none" />
<path d="M506.1417049182092,559.2061472573805 L9.014391999999987,86.89890304000005" stroke="grey" stroke-width="5" />
<circle cx="506.1417049182092" cy="559.2061472573805" r="2.5" fill="grey" stroke="none" />
<circle cx="557.014392" cy="482.89890304000005" r="5" fill="black" stroke="none" />
<circle cx="509.014392" cy="586.89890304" r="5" fill="black" stroke="none" />
<path d="M509.014392,586.89890304 A87.36520252757956,87.36520252757956,0,0,1,504.71182233321764,587.238049857761" stroke="grey" stroke-width="5" fill="none" />
<path d="M504.71182233321764,587.238049857761 L9.014391999999987,166.89890304000005" stroke="grey" stroke-width="5" />
<circle cx="504.71182233321764" cy="587.238049857761" r="2.5" fill="grey" stroke="none" />
<circle cx="509.014392" cy="586.89890304" r="5" fill="black" stroke="none" />
<circle cx="509.014392" cy="666.89890304" r="5" fill="black" stroke="none" />
<path d="M405.014392,682.89890304 L422.96628472715145,648.3317559066389" stroke="grey" stroke-width="5" />
<circle cx="422.96628472715145" cy="648.3317559066389" r="2.5" fill="grey" stroke="none" />
<path d="M422.96628472715145,648.3317559066389 A167.14216433648633,167.14216433648633,0,0,0,509.014392,666.89890304" stroke="grey" stroke-width="5" fill="none" />
<circle cx="405.014392" cy="682.89890304" r="5" fill="black" stroke="none" />
<circle cx="509.014392" cy="666.89890304" r="5" fill="black" stroke="none" />
<path d="M509.014392,666.89890304 A167.14216433648633,167.14216433648633,0,0,1,505.2490330445525,667.0597221091374" stroke="grey" stroke-width="5" fill="none" />
<path d="M505.2490330445525,667.0597221091374 L9.014391999999987,286.89890304000005" stroke="grey" stroke-width="5" />
<circle cx="505.2490330445525" cy="667.0597221091374" r="2.5" fill="grey" stroke="none" />
<circle cx="509.014392" cy="666.89890304" r="5" fill="black" stroke="none" />
<circle cx="509.014392" cy="786.89890304" r="5" fill="black" stroke="none" />
<path d="M509.014392,586.89890304 A87.36520252757956,87.36520252757956,0,0,0,562.5149158493097,561.029205377743" stroke="grey" stroke-width="5" fill="none" />
<path d="M562.5149158493097,561.029205377743 L89.01439199999999,86.89890304000005" stroke="grey" stroke-width="5" />
<circle cx="562.5149158493097" cy="561.029205377743" r="2.5" fill="grey" stroke="none" />
<circle cx="509.014392" cy="586.89890304" r="5" fill="black" stroke="none" />
<circle cx="589.014392" cy="586.89890304" r="5" fill="black" stroke="none" />
<path d="M589.014392,514.89890304 A90.25264148447393,90.25264148447393,0,0,1,564.5810474232997,563.0462338973114" stroke="grey" stroke-width="5" fill="none" />
<path d="M564.5810474232997,563.0462338973114 L89.01439199999999,86.89890304000005" stroke="grey" stroke-width="5" />
<circle cx="564.5810474232997" cy="563.0462338973114" r="2.5" fill="grey" stroke="none" />
<circle cx="589.014392" cy="514.89890304" r="5" fill="black" stroke="none" />
<circle cx="589.014392" cy="586.89890304" r="5" fill="black" stroke="none" />
<path d="M589.014392,586.89890304 A124.39847801595079,124.39847801595079,0,0,0,609.4727803690823,559.082075885565" stroke="grey" stroke-width="5" fill="none" />
<path d="M609.4727803690823,559.082075885565 L161.014392,86.89890304000005" stroke="grey" stroke-width="5" />
<circle cx="609.4727803690823" cy="559.082075885565" r="2.5" fill="grey" stroke="none" />
<circle cx="589.014392" cy="586.89890304" r="5" fill="black" stroke="none" />
<circle cx="661.014392" cy="586.89890304" r="5" fill="black" stroke="none" />
<path d="M589.014392,514.89890304 A90.25264148447393,90.25264148447393,0,0,0,589.6567809227175,510.353788171525" stroke="grey" stroke-width="5" fill="none" />
<path d="M589.6567809227175,510.353788171525 L129.014392,14.89890304000005" stroke="grey" stroke-width="5" />
<circle cx="589.6567809227175" cy="510.353788171525" r="2.5" fill="grey" stroke="none" />
<circle cx="589.014392" cy="514.89890304" r="5" fill="black" stroke="none" />
<circle cx="629.014392" cy="514.89890304" r="5" fill="black" stroke="none" />
<path d="M661.014392,586.89890304 A182.96735714516126,182.96735714516126,0,0,0,679.806171000578,533.8643566422851" stroke="grey" stroke-width="5" fill="none" />
<path d="M679.806171000578,533.8643566422851 L249.014392,46.89890304000005" stroke="grey" stroke-width="5" />
<circle cx="679.806171000578" cy="533.8643566422851" r="2.5" fill="grey" stroke="none" />
<circle cx="661.014392" cy="586.89890304" r="5" fill="black" stroke="none" />
<circle cx="749.014392" cy="546.89890304" r="5" fill="black" stroke="none" />
<path d="M629.014392,514.89890304 A129.87182394547705,129.87182394547705,0,0,0,629.6788699637261,507.0768170709709" stroke="grey" stroke-width="5" fill="none" />
<path d="M629.6788699637261,507.0768170709709 L273.014392,14.89890304000005" stroke="grey" stroke-width="5" />
<circle cx="629.6788699637261" cy="507.0768170709709" r="2.5" fill="grey" stroke="none" />
<circle cx="629.014392" cy="514.89890304" r="5" fill="black" stroke="none" />
<circle cx="773.014392" cy="514.89890304" r="5" fill="black" stroke="none" />
<path d="M749.014392,546.89890304 A253.3923332097579,253.3923332097579,0,0,0,753.0158615613848,513.8075460468222" stroke="grey" stroke-width="5" fill="none" />
<path d="M753.0158615613848,513.8075460468222 L273.014392,14.89890304000005" stroke="grey" stroke-width="5" />
<circle cx="753.0158615613848" cy="513.8075460468222" r="2.5" fill="grey" stroke="none" />
<circle cx="749.014392" cy="546.89890304" r="5" fill="black" stroke="none" />
<circle cx="773.014392" cy="514.89890304" r="5" fill="black" stroke="none" />
<path d="M509.014392,666.89890304 A167.14216433648633,167.14216433648633,0,0,0,602.2220026606478,632.2390459400381" stroke="grey" stroke-width="5" fill="none" />
<path d="M602.2220026606478,632.2390459400381 L129.014392,166.89890304000005" stroke="grey" stroke-width="5" />
<circle cx="602.2220026606478" cy="632.2390459400381" r="2.5" fill="grey" stroke="none" />
<circle cx="509.014392" cy="666.89890304" r="5" fill="black" stroke="none" />
<circle cx="629.014392" cy="666.89890304" r="5" fill="black" stroke="none" />
<path d="M629.014392,666.89890304 A210.95012960196303,210.95012960196303,0,0,0,701.1989841366928,563.3949994987605" stroke="grey" stroke-width="5" fill="none" />
<path d="M701.1989841366928,563.3949994987605 L225.014392,70.89890304000005" stroke="grey" stroke-width="5" />
<circle cx="701.1989841366928" cy="563.3949994987605" r="2.5" fill="grey" stroke="none" />
<circle cx="629.014392" cy="666.89890304" r="5" fill="black" stroke="none" />
<circle cx="725.014392" cy="570.89890304" r="5" fill="black" stroke="none" />
<path d="M725.0143919999999,570.89890304 A235.91975555134204,235.91975555134204,0,0,0,731.8436937110288,543.6650059639485" stroke="grey" stroke-width="5" fill="none" />
<path d="M731.8436937110288,543.6650059639485 L249.014392,46.89890304000005" stroke="grey" stroke-width="5" />
<circle cx="731.8436937110288" cy="543.6650059639485" r="2.5" fill="grey" stroke="none" />
<circle cx="725.014392" cy="570.89890304" r="5" fill="black" stroke="none" />
<circle cx="749.014392" cy="546.89890304" r="5" fill="black" stroke="none" />
<path d="M749.014392,546.89890304 A253.3923332097579,253.3923332097579,0,0,1,743.7068233747146,569.3877422178487" stroke="grey" stroke-width="5" fill="none" />
<path d="M743.7068233747146,569.3877422178487 L249.014392,70.89890304000005" stroke="grey" stroke-width="5" />
<circle cx="743.7068233747146" cy="569.3877422178487" r="2.5" fill="grey" stroke="none" />
<circle cx="749.014392" cy="546.89890304" r="5" fill="black" stroke="none" />
<circle cx="749.014392" cy="570.89890304" r="5" fill="black" stroke="none" />
<path d="M749.014392,570.89890304 A258.9108376939926,258.9108376939926,0,0,1,683.856916798281,682.2949698176968" stroke="grey" stroke-width="5" fill="none" />
<path d="M683.856916798281,682.2949698176968 L249.014392,246.89890304000005" stroke="grey" stroke-width="5" />
<circle cx="683.856916798281" cy="682.2949698176968" r="2.5" fill="grey" stroke="none" />
<circle cx="749.014392" cy="570.89890304" r="5" fill="black" stroke="none" />
<circle cx="749.014392" cy="746.89890304" r="5" fill="black" stroke="none" />
<path d="M749.014392,746.89890304 A350.6668443772308,350.6668443772308,0,0,0,785.169388198408,704.072672790922" stroke="grey" stroke-width="5" fill="none" />
<path d="M785.169388198408,704.072672790922 L345.014392,246.89890304000005" stroke="grey" stroke-width="5" />
<circle cx="785.169388198408" cy="704.072672790922" r="2.5" fill="grey" stroke="none" />
<circle cx="749.014392" cy="746.89890304" r="5" fill="black" stroke="none" />
<circle cx="845.014392" cy="746.89890304" r="5" fill="black" stroke="none" />
<path d="M749.014392,746.89890304 A350.6668443772308,350.6668443772308,0,0,1,726.2375028115566,767.9250418812619" stroke="grey" stroke-width="5" fill="none" />
<path d="M726.2375028115566,767.9250418812619 L249.014392,294.89890304000005" stroke="grey" stroke-width="5" />
<circle cx="726.2375028115566" cy="767.9250418812619" r="2.5" fill="grey" stroke="none" />
<circle cx="749.014392" cy="746.89890304" r="5" fill="black" stroke="none" />
<circle cx="749.014392" cy="794.89890304" r="5" fill="black" stroke="none" />
<path d="M437.01439199999993,370.89890304000005 A143.64637152189044,143.64637152189044,0,0,1,601.5391976266536,398.3925622961568" stroke="grey" stroke-width="5" fill="none" />
<path d="M601.5391976266536,398.3925622961568 L129.014392,-129.10109695999995" stroke="grey" stroke-width="5" />
<circle cx="601.5391976266536" cy="398.3925622961568" r="2.5" fill="grey" stroke="none" />
<circle cx="437.014392" cy="370.89890304000005" r="5" fill="black" stroke="none" />
<circle cx="629.014392" cy="370.89890304000005" r="5" fill="black" stroke="none" />
<path d="M629.014392,370.89890304000005 L591.802394018175,408.135909586734" stroke="grey" stroke-width="5" />
<circle cx="591.802394018175" cy="408.135909586734" r="2.5" fill="grey" stroke="none" />
<path d="M591.8023940181752,408.135909586734 A129.87182394547705,129.87182394547705,0,0,1,629.014392,514.89890304" stroke="grey" stroke-width="5" fill="none" />
<circle cx="629.014392" cy="370.89890304000005" r="5" fill="black" stroke="none" />
<circle cx="629.014392" cy="514.89890304" r="5" fill="black" stroke="none" />
<path d="M629.014392,370.89890304000005 A182.51522287032654,182.51522287032654,0,0,0,595.8371573710419,344.67116865680373" stroke="grey" stroke-width="5" fill="none" />
<path d="M595.8371573710419,344.67116865680373 L129.014392,-209.10109695999995" stroke="grey" stroke-width="5" />
<circle cx="595.8371573710419" cy="344.67116865680373" r="2.5" fill="grey" stroke="none" />
<circle cx="629.014392" cy="370.89890304000005" r="5" fill="black" stroke="none" />
<circle cx="629.014392" cy="290.89890304000005" r="5" fill="black" stroke="none" />
<path d="M629.014392,290.89890304000005 A245.69896640605748,245.69896640605748,0,0,0,607.5160682543411,279.0740459789008" stroke="grey" stroke-width="5" fill="none" />
<path d="M607.5160682543411,279.0740459789008 L129.014392,-265.10109695999995" stroke="grey" stroke-width="5" />
<circle cx="607.5160682543411" cy="279.0740459789008" r="2.5" fill="grey" stroke="none" />
<circle cx="629.014392" cy="290.89890304000005" r="5" fill="black" stroke="none" />
<circle cx="629.014392" cy="234.89890304000005" r="5" fill="black" stroke="none" />
<path d="M629.014392,290.89890304000005 A245.69896640605748,245.69896640605748,0,0,1,719.5275798435047,389.65679096084506" stroke="grey" stroke-width="5" fill="none" />
<path d="M719.5275798435047,389.65679096084506 L225.014392,-113.10109695999995" stroke="grey" stroke-width="5" />
<circle cx="719.5275798435047" cy="389.65679096084506" r="2.5" fill="grey" stroke="none" />
<circle cx="629.014392" cy="290.89890304000005" r="5" fill="black" stroke="none" />
<circle cx="725.014392" cy="386.89890304000005" r="5" fill="black" stroke="none" />
<path d="M629.014392,370.89890304000005 A182.51522287032654,182.51522287032654,0,0,1,663.0740484886828,418.03255958055234" stroke="grey" stroke-width="5" fill="none" />
<path d="M663.0740484886828,418.0325595805523 L225.014392,-113.10109695999995" stroke="grey" stroke-width="5" />
<circle cx="663.0740484886828" cy="418.0325595805523" r="2.5" fill="grey" stroke="none" />
<circle cx="629.014392" cy="370.89890304000005" r="5" fill="black" stroke="none" />
<circle cx="725.014392" cy="386.89890304000005" r="5" fill="black" stroke="none" />
<path d="M725.014392,386.89890304000005 A251.839899024529,251.839899024529,0,0,1,749.0336658460135,462.5090942229843" stroke="grey" stroke-width="5" fill="none" />
<path d="M749.0336658460135,462.5090942229843 L273.014392,-41.10109695999995" stroke="grey" stroke-width="5" />
<circle cx="749.0336658460135" cy="462.5090942229843" r="2.5" fill="grey" stroke="none" />
<circle cx="725.014392" cy="386.89890304000005" r="5" fill="black" stroke="none" />
<circle cx="773.014392" cy="458.89890304000005" r="5" fill="black" stroke="none" />
<path d="M725.0143919999999,570.89890304 A235.91975555134204,235.91975555134204,0,0,0,726.9021065809527,564.6031352840631" stroke="grey" stroke-width="5" fill="none" />
<path d="M726.9021065809527,564.6031352840631 L249.014392,70.89890304000005" stroke="grey" stroke-width="5" />
<circle cx="726.9021065809527" cy="564.6031352840631" r="2.5" fill="grey" stroke="none" />
<circle cx="725.014392" cy="570.89890304" r="5" fill="black" stroke="none" />
<circle cx="749.014392" cy="570.89890304" r="5" fill="black" stroke="none" />
<path d="M749.014392,570.89890304 A258.9108376939926,258.9108376939926,0,0,0,750.5986903602496,565.077786264844" stroke="grey" stroke-width="5" fill="none" />
<path d="M750.5986903602496,565.077786264844 L273.014392,70.89890304000005" stroke="grey" stroke-width="5" />
<circle cx="750.5986903602496" cy="565.077786264844" r="2.5" fill="grey" stroke="none" />
<circle cx="749.014392" cy="570.89890304" r="5" fill="black" stroke="none" />
<circle cx="773.014392" cy="570.89890304" r="5" fill="black" stroke="none" />
<path d="M773.014392,570.89890304 L764.6426466734483,568.7248507644601" stroke="grey" stroke-width="5" />
<circle cx="764.6426466734483" cy="568.7248507644601" r="2.5" fill="grey" stroke="none" />
<path d="M764.6426466734483,568.7248507644601 A273.42062020068084,273.42062020068084,0,0,0,773.0143919999999,514.89890304" stroke="grey" stroke-width="5" fill="none" />
<circle cx="773.014392" cy="570.89890304" r="5" fill="black" stroke="none" />
<circle cx="773.014392" cy="514.89890304" r="5" fill="black" stroke="none" />
<path d="M773.014392,514.89890304 L772.6109844576257,514.8768883402789" stroke="grey" stroke-width="5" />
<circle cx="772.6109844576257" cy="514.8768883402789" r="2.5" fill="grey" stroke="none" />
<path d="M772.6109844576257,514.8768883402789 A273.01661241331993,273.01661241331993,0,0,0,773.0143919999999,498.89890304000005" stroke="grey" stroke-width="5" fill="none" />
<circle cx="773.014392" cy="514.89890304" r="5" fill="black" stroke="none" />
<circle cx="773.014392" cy="498.89890304000005" r="5" fill="black" stroke="none" />
<path d="M773.0143919999999,498.89890304000005 A273.01661241331993,273.01661241331993,0,0,0,772.4825890584141,482.932214154484" stroke="grey" stroke-width="5" fill="none" />
<path d="M772.4825890584141,482.932214154484 L273.014392,-17.10109695999995" stroke="grey" stroke-width="5" />
<circle cx="772.4825890584141" cy="482.932214154484" r="2.5" fill="grey" stroke="none" />
<circle cx="773.014392" cy="498.89890304000005" r="5" fill="black" stroke="none" />
<circle cx="773.014392" cy="482.89890304000005" r="5" fill="black" stroke="none" />
<path d="M773.014392,482.89890304000005 A273.549457605686,273.549457605686,0,0,0,770.5013164379386,459.277235338116" stroke="grey" stroke-width="5" fill="none" />
<path d="M770.5013164379386,459.277235338116 L273.014392,-41.10109695999995" stroke="grey" stroke-width="5" />
<circle cx="770.5013164379386" cy="459.277235338116" r="2.5" fill="grey" stroke="none" />
<circle cx="773.014392" cy="482.89890304000005" r="5" fill="black" stroke="none" />
<circle cx="773.014392" cy="458.89890304000005" r="5" fill="black" stroke="none" />
<path d="M773.014392,458.89890304000005 A276.0908517326226,276.0908517326226,0,0,1,773.8553242657094,464.9369171097564" stroke="grey" stroke-width="5" fill="none" />
<path d="M773.8553242657094,464.9369171097564 L321.014392,-41.10109695999995" stroke="grey" stroke-width="5" />
<circle cx="773.8553242657094" cy="464.9369171097564" r="2.5" fill="grey" stroke="none" />
<circle cx="773.014392" cy="458.89890304000005" r="5" fill="black" stroke="none" />
<circle cx="821.014392" cy="458.89890304000005" r="5" fill="black" stroke="none" />
<path d="M821.014392,458.89890304000005 L818.416988514598,459.2314617512548" stroke="grey" stroke-width="5" />
<circle cx="818.416988514598" cy="459.2314617512548" r="2.5" fill="grey" stroke="none" />
<path d="M818.416988514598,459.2314617512548 A321.0162804059087,321.0162804059087,0,0,1,821.014392,498.89890304000005" stroke="grey" stroke-width="5" fill="none" />
<circle cx="821.014392" cy="458.89890304000005" r="5" fill="black" stroke="none" />
<circle cx="821.014392" cy="498.89890304000005" r="5" fill="black" stroke="none" />
<path d="M821.014392,498.89890304000005 L773.015006369591,499.06354356365455" stroke="grey" stroke-width="5" />
<circle cx="773.015006369591" cy="499.06354356365455" r="2.5" fill="grey" stroke="none" />
<path d="M773.015006369591,499.06354356365455 A273.01661241331993,273.01661241331993,0,0,0,773.0143919999999,498.89890304000005" stroke="grey" stroke-width="5" fill="none" />
<circle cx="821.014392" cy="498.89890304000005" r="5" fill="black" stroke="none" />
<circle cx="773.014392" cy="498.89890304000005" r="5" fill="black" stroke="none" />
<path d="M773.014392,482.89890304000005 A273.549457605686,273.549457605686,0,0,1,773.2290480791646,486.76394914944353" stroke="grey" stroke-width="5" fill="none" />
<path d="M773.2290480791646,486.76394914944353 L353.014392,-17.10109695999995" stroke="grey" stroke-width="5" />
<circle cx="773.2290480791646" cy="486.76394914944353" r="2.5" fill="grey" stroke="none" />
<circle cx="773.014392" cy="482.89890304000005" r="5" fill="black" stroke="none" />
<circle cx="853.014392" cy="482.89890304000005" r="5" fill="black" stroke="none" />
<circle cx="500" cy="500" r="5" fill="red" stroke="none" />
</svg>