<?xml version="1.0" encoding="UTF-8"?>
<svg xmlns="http://www.w3.org/2000/svg" xmlns:xlink="http://www.w3.org/1999/xlink"
     width="1000" height="1000" viewBox="0 0 1000 1000">
<defs>
</defs>
<rect x="0" y="0" width="1000" height="1000" fill="white" />
<path d="M185.30303949999995,296.64596624 L220.72875616797637,319.5377106401556" stroke="grey" stroke-width="5" />
<circle cx="220.72875616797637" cy="319.5377106401556" r="2.5" fill="grey" stroke="none" />
<path d="M220.72875616797637,319.5377106401556 A332.50423382640076,332.50423382640076,0,0,0,185.3030395,392.64596624" stroke="grey" stroke-width="5" fill="none" />
<circle cx="185.30303949999995" cy="296.64596624" r="5" fill="black" stroke="none" />
<circle cx="185.30303949999995" cy="392.64596624" r="5" fill="black" stroke="none" />
<path d="M185.30303949999995,392.64596624 L257.8021558959135,417.3779260808929" stroke="grey" stroke-width="5" />
<circle cx="257.8021558959135" cy="417.3779260808929" r="2.5" fill="grey" stroke="none" />
<path d="M257.8021558959135,417.3779260808929 A255.90272133637384,255.90272133637384,0,0,0,249.30303949999998,448.64596624" stroke="grey" stroke-width="5" fill="none" />
<circle cx="185.30303949999995" cy="392.64596624" r="5" fill="black" stroke="none" />
<circle cx="249.30303949999995" cy="448.64596624" r="5" fill="black" stroke="none" />
<path d="M161.30303949999995,448.64596624 L246.98903097829864,461.6378788117564" stroke="grey" stroke-width="5" />
<circle cx="246.98903097829864" cy="461.6378788117564" r="2.5" fill="grey" stroke="none" />
<path d="M246.98903097829864,461.6378788117564 A255.90272133637384,255.90272133637384,0,0,1,249.30303949999998,448.64596624" stroke="grey" stroke-width="5" fill="none" />
<circle cx="161.30303949999995" cy="448.64596624" r="5" fill="black" stroke="none" />
<circle cx="249.30303949999995" cy="448.64596624" r="5" fill="black" stroke="none" />
<path d="M249.30303949999995,448.64596624 L323.9144551667405,463.9297461126769" stroke="grey" stroke-width="5" />
<circle cx="323.9144551667405" cy="463.9297461126769" r="2.5" fill="grey" stroke="none" />
<path d="M323.9144551667405,463.9297461126769 A179.74198817950634,179.74198817950634,0,0,0,321.30303949999995,480.64596624" stroke="grey" stroke-width="5" fill="none" />
<circle cx="249.30303949999995" cy="448.64596624" r="5" fill="black" stroke="none" />
<circle cx="321.30303949999995" cy="480.64596624" r="5" fill="black" stroke="none" />
<path d="M321.30303949999995,480.64596624 L338.2145992340154,482.4775972711635" stroke="grey" stroke-width="5" />
<circle cx="338.2145992340154" cy="482.4775972711635" r="2.5" fill="grey" stroke="none" />
<path d="M338.2145992340154,482.4775972711635 A162.73152890083037,162.73152890083037,0,0,0,337.30303949999995,496.64596623999995" stroke="grey" stroke-width="5" fill="none" />
<circle cx="321.30303949999995" cy="480.64596624" r="5" fill="black" stroke="none" />
<circle cx="337.30303949999995" cy="496.64596624" r="5" fill="black" stroke="none" />
<path d="M337.30303949999995,496.64596624 L366.2289947232829,497.2422811930328" stroke="grey" stroke-width="5" />
<circle cx="366.2289947232829" cy="497.2422811930328" r="2.5" fill="grey" stroke="none" />
<path d="M366.2289947232829,497.24228119303274 A133.79942774825977,133.79942774825977,0,0,0,369.30303949999995,528.64596624" stroke="grey" stroke-width="5" fill="none" />
<circle cx="337.30303949999995" cy="496.64596624" r="5" fill="black" stroke="none" />
<circle cx="369.30303949999995" cy="528.64596624" r="5" fill="black" stroke="none" />
<path d="M337.30303949999995,496.64596623999995 A162.73152890083037,162.73152890083037,0,0,0,353.1612017491914,570.1421259063347" stroke="grey" stroke-width="5" fill="none" />
<path d="M353.1612017491914,570.1421259063347 L289.30303949999995,600.64596624" stroke="grey" stroke-width="5" />
<circle cx="353.1612017491914" cy="570.1421259063347" r="2.5" fill="grey" stroke="none" />
<circle cx="337.30303949999995" cy="496.64596624" r="5" fill="black" stroke="none" />
<circle cx="289.30303949999995" cy="600.64596624" r="5" fill="black" stroke="none" />
<path d="M289.30303949999995,600.64596624 A233.5012198775882,233.5012198775882,0,0,0,322.7328508411605,651.9841357294225" stroke="grey" stroke-width="5" fill="none" />
<path d="M322.7328508411604,651.9841357294224 L289.30303949999995,680.64596624" stroke="grey" stroke-width="5" />
<circle cx="322.7328508411604" cy="651.9841357294224" r="2.5" fill="grey" stroke="none" />
<circle cx="289.30303949999995" cy="600.64596624" r="5" fill="black" stroke="none" />
<circle cx="289.30303949999995" cy="680.64596624" r="5" fill="black" stroke="none" />
<path d="M185.30303949999995,696.64596624 L264.6367082921699,647.0724148138484" stroke="grey" stroke-width="5" />
<circle cx="264.6367082921699" cy="647.0724148138484" r="2.5" fill="grey" stroke="none" />
<path d="M264.6367082921698,647.0724148138481 A277.53589728667856,277.53589728667856,0,0,0,289.3030395,680.64596624" stroke="grey" stroke-width="5" fill="none" />
<circle cx="185.30303949999995" cy="696.64596624" r="5" fill="black" stroke="none" />
<circle cx="289.30303949999995" cy="680.64596624" r="5" fill="black" stroke="none" />
<path d="M289.3030395,680.64596624 A277.53589728667856,277.53589728667856,0,0,0,340.71944319092154,727.2792962531162" stroke="grey" stroke-width="5" fill="none" />
<path d="M340.71944319092154,727.2792962531162 L289.30303949999995,800.64596624" stroke="grey" stroke-width="5" />
<circle cx="340.71944319092154" cy="727.2792962531162" r="2.5" fill="grey" stroke="none" />
<circle cx="289.30303949999995" cy="680.64596624" r="5" fill="black" stroke="none" />
<circle cx="289.30303949999995" cy="800.64596624" r="5" fill="black" stroke="none" />
<path d="M289.30303949999995,600.64596624 L351.1517236682316,571.1020157054869" stroke="grey" stroke-width="5" />
<circle cx="351.1517236682316" cy="571.1020157054869" r="2.5" fill="grey" stroke="none" />
<path d="M351.1517236682316,571.1020157054869 A164.95849782391264,164.95849782391264,0,0,0,369.30303949999995,600.64596624" stroke="grey" stroke-width="5" fill="none" />
<circle cx="289.30303949999995" cy="600.64596624" r="5" fill="black" stroke="none" />
<circle cx="369.30303949999995" cy="600.64596624" r="5" fill="black" stroke="none" />
<path d="M369.30303949999995,528.64596624 A133.79942774825977,133.79942774825977,0,0,0,393.99043544877657,581.6349134220266" stroke="grey" stroke-width="5" fill="none" />
<path d="M393.99043544877657,581.6349134220266 L369.30303949999995,600.64596624" stroke="grey" stroke-width="5" />
<circle cx="393.99043544877657" cy="581.6349134220266" r="2.5" fill="grey" stroke="none" />
<circle cx="369.30303949999995" cy="528.64596624" r="5" fill="black" stroke="none" />
<circle cx="369.30303949999995" cy="600.64596624" r="5" fill="black" stroke="none" />
<path d="M369.30303949999995,600.64596624 L407.6876487108733,571.0870838605344" stroke="grey" stroke-width="5" />
<circle cx="407.6876487108733" cy="571.0870838605344" r="2.5" fill="grey" stroke="none" />
<path d="M407.6876487108733,571.0870838605344 A116.51156033768403,116.51156033768403,0,0,0,441.30303949999995,600.64596624" stroke="grey" stroke-width="5" fill="none" />
<circle cx="369.30303949999995" cy="600.64596624" r="5" fill="black" stroke="none" />
<circle cx="441.30303949999995" cy="600.64596624" r="5" fill="black" stroke="none" />
<path d="M369.30303949999995,528.64596624 L407.0921850601314,520.3633972819104" stroke="grey" stroke-width="5" />
<circle cx="407.0921850601314" cy="520.3633972819104" r="2.5" fill="grey" stroke="none" />
<path d="M407.0921850601314,520.3633972819104 A95.1132484239803,95.1132484239803,0,0,0,409.30303949999995,528.64596624" stroke="grey" stroke-width="5" fill="none" />
<circle cx="369.30303949999995" cy="528.64596624" r="5" fill="black" stroke="none" />
<circle cx="409.30303949999995" cy="528.64596624" r="5" fill="black" stroke="none" />
<path d="M441.30303949999995,600.64596624 L466.0678089959428,558.18253826352" stroke="grey" stroke-width="5" />
<circle cx="466.0678089959428" cy="558.18253826352" r="2.5" fill="grey" stroke="none" />
<path d="M466.0678089959428,558.18253826352 A67.3542971540924,67.3542971540924,0,0,0,529.3030395,560.64596624" stroke="grey" stroke-width="5" fill="none" />
<circle cx="441.30303949999995" cy="600.64596624" r="5" fill="black" stroke="none" />
<circle cx="529.3030395" cy="560.64596624" r="5" fill="black" stroke="none" />
<path d="M409.30303949999995,528.64596624 L442.2968729710937,518.2251072108693" stroke="grey" stroke-width="5" />
<circle cx="442.2968729710937" cy="518.2251072108693" r="2.5" fill="grey" stroke="none" />
<path d="M442.2968729710937,518.2251072108693 A60.51285319468729,60.51285319468729,0,0,0,553.3030395,528.64596624" stroke="grey" stroke-width="5" fill="none" />
<circle cx="409.30303949999995" cy="528.64596624" r="5" fill="black" stroke="none" />
<circle cx="553.3030395" cy="528.64596624" r="5" fill="black" stroke="none" />
<path d="M529.3030395,560.64596624 L526.3266131834898,554.4859141434616" stroke="grey" stroke-width="5" />
<circle cx="526.3266131834898" cy="554.4859141434616" r="2.5" fill="grey" stroke="none" />
<path d="M526.3266131834898,554.4859141434616 A60.51285319468729,60.51285319468729,0,0,0,553.3030395,528.64596624" stroke="grey" stroke-width="5" fill="none" />
<circle cx="529.3030395" cy="560.64596624" r="5" fill="black" stroke="none" />
<circle cx="553.3030395" cy="528.64596624" r="5" fill="black" stroke="none" />
<path d="M289.30303949999995,680.64596624 L346.5444988788763,631.5686624481172" stroke="grey" stroke-width="5" />
<circle cx="346.5444988788763" cy="631.5686624481172" r="2.5" fill="grey" stroke="none" />
<path d="M346.54449887887637,631.5686624481173 A202.13585471835964,202.13585471835964,0,0,0,409.3030394999999,680.64596624" stroke="grey" stroke-width="5" fill="none" />
<circle cx="289.30303949999995" cy="680.64596624" r="5" fill="black" stroke="none" />
<circle cx="409.30303949999995" cy="680.64596624" r="5" fill="black" stroke="none" />
<path d="M409.30303949999995,680.64596624 L461.94547771815485,575.7952185994759" stroke="grey" stroke-width="5" />
<circle cx="461.94547771815485" cy="575.7952185994759" r="2.5" fill="grey" stroke="none" />
<path d="M461.9454777181548,575.7952185994758 A84.81192032162566,84.81192032162566,0,0,0,505.30303949999995,584.64596624" stroke="grey" stroke-width="5" fill="none" />
<circle cx="409.30303949999995" cy="680.64596624" r="5" fill="black" stroke="none" />
<circle cx="505.30303949999995" cy="584.64596624" r="5" fill="black" stroke="none" />
<path d="M505.30303949999995,584.64596624 L504.21146575797803,567.2225029383104" stroke="grey" stroke-width="5" />
<circle cx="504.21146575797803" cy="567.2225029383104" r="2.5" fill="grey" stroke="none" />
<path d="M504.21146575797803,567.2225029383104 A67.3542971540924,67.3542971540924,0,0,0,529.3030395,560.64596624" stroke="grey" stroke-width="5" fill="none" />
<circle cx="505.30303949999995" cy="584.64596624" r="5" fill="black" stroke="none" />
<circle cx="529.3030395" cy="560.64596624" r="5" fill="black" stroke="none" />
<path d="M529.3030395,560.64596624 A67.3542971540924,67.3542971540924,0,0,1,522.0339893516177,563.6482887309202" stroke="grey" stroke-width="5" fill="none" />
<path d="M522.0339893516177,563.6482887309202 L529.3030395,584.64596624" stroke="grey" stroke-width="5" />
<circle cx="522.0339893516177" cy="563.6482887309202" r="2.5" fill="grey" stroke="none" />
<circle cx="529.3030395" cy="560.64596624" r="5" fill="black" stroke="none" />
<circle cx="529.3030395" cy="584.64596624" r="5" fill="black" stroke="none" />
<path d="M529.3030395,584.64596624 A89.57459307550205,89.57459307550205,0,0,1,510.00735060158934,589.0138228511654" stroke="grey" stroke-width="5" fill="none" />
<path d="M510.00735060158934,589.0138228511654 L529.3030395,760.64596624" stroke="grey" stroke-width="5" />
<circle cx="510.00735060158934" cy="589.0138228511654" r="2.5" fill="grey" stroke="none" />
<circle cx="529.3030395" cy="584.64596624" r="5" fill="black" stroke="none" />
<circle cx="529.3030395" cy="760.64596624" r="5" fill="black" stroke="none" />
<path d="M529.3030395,760.64596624 A262.28798645977247,262.28798645977247,0,0,0,613.6423842151321,736.3903474150796" stroke="grey" stroke-width="5" fill="none" />
<path d="M613.6423842151321,736.3903474150796 L625.3030395,760.64596624" stroke="grey" stroke-width="5" />
<circle cx="613.6423842151321" cy="736.3903474150796" r="2.5" fill="grey" stroke="none" />
<circle cx="529.3030395" cy="760.64596624" r="5" fill="black" stroke="none" />
<circle cx="625.3030395" cy="760.64596624" r="5" fill="black" stroke="none" />
<path d="M529.3030395,760.64596624 A262.28798645977247,262.28798645977247,0,0,1,524.790308315307,761.1138227952588" stroke="grey" stroke-width="5" fill="none" />
<path d="M524.790308315307,761.1138227952588 L529.3030395,808.64596624" stroke="grey" stroke-width="5" />
<circle cx="524.790308315307" cy="761.1138227952588" r="2.5" fill="grey" stroke="none" />
<circle cx="529.3030395" cy="760.64596624" r="5" fill="black" stroke="none" />
<circle cx="529.3030395" cy="808.64596624" r="5" fill="black" stroke="none" />
<path d="M217.30303949999995,384.64596624 L364.1360843738091,444.5609507714908" stroke="grey" stroke-width="5" />
<circle cx="364.1360843738091" cy="444.5609507714908" r="2.5" fill="grey" stroke="none" />
<path d="M364.1360843738091,444.5609507714908 A146.7395371010887,146.7395371010887,0,0,1,409.30303949999995,384.64596624" stroke="grey" stroke-width="5" fill="none" />
<circle cx="217.30303949999995" cy="384.64596624" r="5" fill="black" stroke="none" />
<circle cx="409.30303949999995" cy="384.64596624" r="5" fill="black" stroke="none" />
<path d="M409.30303949999995,384.64596624 L441.21228194011775,425.23012484246357" stroke="grey" stroke-width="5" />
<circle cx="441.21228194011775" cy="425.23012484246357" r="2.5" fill="grey" stroke="none" />
<path d="M441.21228194011775,425.23012484246357 A95.1132484239803,95.1132484239803,0,0,0,409.30303949999995,528.64596624" stroke="grey" stroke-width="5" fill="none" />
<circle cx="409.30303949999995" cy="384.64596624" r="5" fill="black" stroke="none" />
<circle cx="409.30303949999995" cy="528.64596624" r="5" fill="black" stroke="none" />
<path d="M409.30303949999995,384.64596624 A146.7395371010887,146.7395371010887,0,0,1,438.2080742347682,366.9051103202461" stroke="grey" stroke-width="5" fill="none" />
<path d="M438.2080742347682,366.9051103202461 L409.30303949999995,304.64596624" stroke="grey" stroke-width="5" />
<circle cx="438.2080742347682" cy="366.9051103202461" r="2.5" fill="grey" stroke="none" />
<circle cx="409.30303949999995" cy="384.64596624" r="5" fill="black" stroke="none" />
<circle cx="409.30303949999995" cy="304.64596624" r="5" fill="black" stroke="none" />
<path d="M409.30303949999995,304.64596624 A215.38137605243818,215.38137605243818,0,0,1,426.8966615866703,297.40424717416215" stroke="grey" stroke-width="5" fill="none" />
<path d="M426.8966615866703,297.40424717416215 L409.30303949999995,248.64596624" stroke="grey" stroke-width="5" />
<circle cx="426.8966615866703" cy="297.40424717416215" r="2.5" fill="grey" stroke="none" />
<circle cx="409.30303949999995" cy="304.64596624" r="5" fill="black" stroke="none" />
<circle cx="409.30303949999995" cy="248.64596624" r="5" fill="black" stroke="none" />
<path d="M409.30303949999995,304.64596624 L458.1025257130932,409.75617527664417" stroke="grey" stroke-width="5" />
<circle cx="458.1025257130932" cy="409.75617527664417" r="2.5" fill="grey" stroke="none" />
<path d="M458.1025257130932,409.75617527664417 A99.49545845073422,99.49545845073422,0,0,1,505.30303949999995,400.64596624" stroke="grey" stroke-width="5" fill="none" />
<circle cx="409.30303949999995" cy="304.64596624" r="5" fill="black" stroke="none" />
<circle cx="505.30303949999995" cy="400.64596624" r="5" fill="black" stroke="none" />
<path d="M409.30303949999995,384.64596624 L438.5037199700374,421.78520731474" stroke="grey" stroke-width="5" />
<circle cx="438.5037199700374" cy="421.78520731474" r="2.5" fill="grey" stroke="none" />
<path d="M438.5037199700374,421.78520731474 A99.49545845073422,99.49545845073422,0,0,1,505.30303949999995,400.64596624" stroke="grey" stroke-width="5" fill="none" />
<circle cx="409.30303949999995" cy="384.64596624" r="5" fill="black" stroke="none" />
<circle cx="505.30303949999995" cy="400.64596624" r="5" fill="black" stroke="none" />
<path d="M505.30303949999995,400.64596624 L503.19327258959004,440.1730813675788" stroke="grey" stroke-width="5" />
<circle cx="503.19327258959004" cy="440.1730813675788" r="2.5" fill="grey" stroke="none" />
<path d="M503.19327258959004,440.1730813675788 A59.9120787728299,59.9120787728299,0,0,1,553.3030395,472.64596624" stroke="grey" stroke-width="5" fill="none" />
<circle cx="505.30303949999995" cy="400.64596624" r="5" fill="black" stroke="none" />
<circle cx="553.3030395" cy="472.64596624" r="5" fill="black" stroke="none" />
<path d="M505.30303949999995,584.64596624 A84.81192032162566,84.81192032162566,0,0,0,527.7449996246216,580.1453481149812" stroke="grey" stroke-width="5" fill="none" />
<path d="M527.7449996246216,580.1453481149812 L529.3030395,584.64596624" stroke="grey" stroke-width="5" />
<circle cx="527.7449996246216" cy="580.1453481149812" r="2.5" fill="grey" stroke="none" />
<circle cx="505.30303949999995" cy="584.64596624" r="5" fill="black" stroke="none" />
<circle cx="529.3030395" cy="584.64596624" r="5" fill="black" stroke="none" />
<path d="M529.3030395,584.64596624 A89.57459307550205,89.57459307550205,0,0,0,547.7312969728928,575.797961805891" stroke="grey" stroke-width="5" fill="none" />
<path d="M547.7312969728928,575.797961805891 L553.3030395,584.64596624" stroke="grey" stroke-width="5" />
<circle cx="547.7312969728928" cy="575.797961805891" r="2.5" fill="grey" stroke="none" />
<circle cx="529.3030395" cy="584.64596624" r="5" fill="black" stroke="none" />
<circle cx="553.3030395" cy="584.64596624" r="5" fill="black" stroke="none" />
<path d="M553.3030395,584.64596624 L532.2452703087146,551.2059366136359" stroke="grey" stroke-width="5" />
<circle cx="532.2452703087146" cy="551.2059366136359" r="2.5" fill="grey" stroke="none" />
<path d="M532.2452703087146,551.2059366136359 A60.51285319468729,60.51285319468729,0,0,0,553.3030395,528.64596624" stroke="grey" stroke-width="5" fill="none" />
<circle cx="553.3030395" cy="584.64596624" r="5" fill="black" stroke="none" />
<circle cx="553.3030395" cy="528.64596624" r="5" fill="black" stroke="none" />
<path d="M553.3030395,528.64596624 L548.2555280530759,525.9333471499648" stroke="grey" stroke-width="5" />
<circle cx="548.2555280530759" cy="525.9333471499648" r="2.5" fill="grey" stroke="none" />
<path d="M548.2555280530759,525.9333471499648 A54.782611128731126,54.782611128731126,0,0,0,553.3030395,512.64596624" stroke="grey" stroke-width="5" fill="none" />
<circle cx="553.3030395" cy="528.64596624" r="5" fill="black" stroke="none" />
<circle cx="553.3030395" cy="512.64596624" r="5" fill="black" stroke="none" />
<path d="M553.3030395,512.64596624 L551.966001178299,512.3287584102699" stroke="grey" stroke-width="5" />
<circle cx="551.966001178299" cy="512.3287584102699" r="2.5" fill="grey" stroke="none" />
<path d="M551.966001178299,512.3287584102699 A53.40845965202306,53.40845965202306,0,0,0,553.3030395,496.64596624" stroke="grey" stroke-width="5" fill="none" />
<circle cx="553.3030395" cy="512.64596624" r="5" fill="black" stroke="none" />
<circle cx="553.3030395" cy="496.64596624" r="5" fill="black" stroke="none" />
<path d="M553.3030395,496.64596624 A53.40845965202306,53.40845965202306,0,0,0,547.5168495698563,475.61532101180285" stroke="grey" stroke-width="5" fill="none" />
<path d="M547.5168495698563,475.61532101180285 L553.3030395,472.64596624" stroke="grey" stroke-width="5" />
<circle cx="547.5168495698563" cy="475.61532101180285" r="2.5" fill="grey" stroke="none" />
<circle cx="553.3030395" cy="496.64596624" r="5" fill="black" stroke="none" />
<circle cx="553.3030395" cy="472.64596624" r="5" fill="black" stroke="none" />
<path d="M553.3030395,472.64596624 A59.9120787728299,59.9120787728299,0,0,1,557.8405452410851,484.38178918391236" stroke="grey" stroke-width="5" fill="none" />
<path d="M557.8405452410851,484.38178918391236 L601.3030395,472.64596624" stroke="grey" stroke-width="5" />
<circle cx="557.8405452410851" cy="484.38178918391236" r="2.5" fill="grey" stroke="none" />
<circle cx="553.3030395" cy="472.64596624" r="5" fill="black" stroke="none" />
<circle cx="601.3030395" cy="472.64596624" r="5" fill="black" stroke="none" />
<path d="M601.3030395,472.64596624 L598.5594425652847,473.3867973497717" stroke="grey" stroke-width="5" />
<circle cx="598.5594425652847" cy="473.3867973497717" r="2.5" fill="grey" stroke="none" />
<path d="M598.5594425652847,473.3867973497717 A102.0893053854407,102.0893053854407,0,0,1,601.3030395,512.64596624" stroke="grey" stroke-width="5" fill="none" />
<circle cx="601.3030395" cy="472.64596624" r="5" fill="black" stroke="none" />
<circle cx="601.3030395" cy="512.64596624" r="5" fill="black" stroke="none" />
<path d="M601.3030395,512.64596624 L554.360689380089,506.7860100355995" stroke="grey" stroke-width="5" />
<circle cx="554.360689380089" cy="506.7860100355995" r="2.5" fill="grey" stroke="none" />
<path d="M554.360689380089,506.7860100355995 A54.782611128731126,54.782611128731126,0,0,1,553.3030395,512.64596624" stroke="grey" stroke-width="5" fill="none" />
<circle cx="601.3030395" cy="512.64596624" r="5" fill="black" stroke="none" />
<circle cx="553.3030395" cy="512.64596624" r="5" fill="black" stroke="none" />
<path d="M553.3030395,496.64596624 A53.40845965202306,53.40845965202306,0,0,1,553.3915619103475,498.6566165196373" stroke="grey" stroke-width="5" fill="none" />
<path d="M553.3915619103475,498.6566165196373 L633.3030395,496.64596624" stroke="grey" stroke-width="5" />
<circle cx="553.3915619103475" cy="498.6566165196373" r="2.5" fill="grey" stroke="none" />
<circle cx="553.3030395" cy="496.64596624" r="5" fill="black" stroke="none" />
<circle cx="633.3030395" cy="496.64596624" r="5" fill="black" stroke="none" />
<circle cx="500" cy="500" r="5" fill="red" stroke="none" />
</svg>