<?xml version="1.0" encoding="UTF-8"?>
<svg xmlns="http://www.w3.org/2000/svg" xmlns:xlink="http://www.w3.org/1999/xlink"
     width="1000" height="1000" viewBox="0 0 1000 1000">
<defs>
</defs>
<rect x="0" y="0" width="1000" height="1000" fill="white" />
<path d="M153.76,323.59040000000005 L183.28465492334288,338.633238970555" stroke="grey" stroke-width="5" />
<circle cx="183.28465492334288" cy="338.633238970555" r="2.5" fill="grey" stroke="none" />
<path d="M183.28465492334283,338.6332389705551 A355.4544153223589,355.4544153223589,0,0,0,153.76,419.5904" stroke="grey" stroke-width="5" fill="none" />
<circle cx="153.76" cy="323.59040000000005" r="5" fill="black" stroke="none" />
<circle cx="153.76" cy="419.59040000000005" r="5" fill="black" stroke="none" />
<path d="M153.76,419.59040000000005 L224.05022680016617,435.91436320734357" stroke="grey" stroke-width="5" />
<circle cx="224.05022680016617" cy="435.91436320734357" r="2.5" fill="grey" stroke="none" />
<path d="M224.05022680016617,435.91436320734357 A283.29356888598795,283.29356888598795,0,0,0,217.76,475.59040000000005" stroke="grey" stroke-width="5" fill="none" />
<circle cx="153.76" cy="419.59040000000005" r="5" fill="black" stroke="none" />
<circle cx="217.76" cy="475.59040000000005" r="5" fill="black" stroke="none" />
<path d="M129.76,475.59040000000005 L217.32012018491247,481.36316228842276" stroke="grey" stroke-width="5" />
<circle cx="217.32012018491247" cy="481.36316228842276" r="2.5" fill="grey" stroke="none" />
<path d="M217.32012018491247,481.3631622884226 A283.29356888598795,283.29356888598795,0,0,1,217.76,475.59040000000005" stroke="grey" stroke-width="5" fill="none" />
<circle cx="129.76" cy="475.59040000000005" r="5" fill="black" stroke="none" />
<circle cx="217.76" cy="475.59040000000005" r="5" fill="black" stroke="none" />
<path d="M217.76,475.59040000000005 L290.405416663124,481.87315780392646" stroke="grey" stroke-width="5" />
<circle cx="290.405416663124" cy="481.87315780392646" r="2.5" fill="grey" stroke="none" />
<path d="M290.405416663124,481.87315780392646 A210.3769753850454,210.3769753850454,0,0,0,289.76,507.59040000000005" stroke="grey" stroke-width="5" fill="none" />
<circle cx="217.76" cy="475.59040000000005" r="5" fill="black" stroke="none" />
<circle cx="289.76" cy="507.59040000000005" r="5" fill="black" stroke="none" />
<path d="M289.76,507.59040000000005 L304.46011769696287,507.0596742895404" stroke="grey" stroke-width="5" />
<circle cx="304.46011769696287" cy="507.0596742895404" r="2.5" fill="grey" stroke="none" />
<path d="M304.4601176969629,507.05967428954045 A195.66728027996916,195.66728027996916,0,0,0,305.76,523.5904" stroke="grey" stroke-width="5" fill="none" />
<circle cx="289.76" cy="507.59040000000005" r="5" fill="black" stroke="none" />
<circle cx="305.76" cy="523.5904" r="5" fill="black" stroke="none" />
<path d="M305.76,523.5904 L329.7513985572721,520.6766505739009" stroke="grey" stroke-width="5" />
<circle cx="329.7513985572721" cy="520.6766505739009" r="2.5" fill="grey" stroke="none" />
<path d="M329.7513985572721,520.6766505739009 A171.49959233817438,171.49959233817438,0,0,0,337.76,555.5904" stroke="grey" stroke-width="5" fill="none" />
<circle cx="305.76" cy="523.5904" r="5" fill="black" stroke="none" />
<circle cx="337.76" cy="555.5904" r="5" fill="black" stroke="none" />
<path d="M305.76,523.5904 A195.66728027996916,195.66728027996916,0,0,0,326.8786439147739,591.184870671468" stroke="grey" stroke-width="5" fill="none" />
<path d="M326.8786439147739,591.184870671468 L-242.24,127.59040000000002" stroke="grey" stroke-width="5" />
<circle cx="326.8786439147739" cy="591.184870671468" r="2.5" fill="grey" stroke="none" />
<circle cx="305.76" cy="523.5904" r="5" fill="black" stroke="none" />
<circle cx="257.76" cy="627.5904" r="5" fill="black" stroke="none" />
<path d="M257.75999999999993,627.5903999999998 A273.7873769408663,273.7873769408663,0,0,0,292.1065174538347,678.1567503267481" stroke="grey" stroke-width="5" fill="none" />
<path d="M292.1065174538347,678.1567503267481 L-242.24,207.59040000000002" stroke="grey" stroke-width="5" />
<circle cx="292.1065174538347" cy="678.1567503267481" r="2.5" fill="grey" stroke="none" />
<circle cx="257.76" cy="627.5904" r="5" fill="black" stroke="none" />
<circle cx="257.76" cy="707.5904" r="5" fill="black" stroke="none" />
<path d="M153.76,723.5904 L232.00224351695732,673.0641334656484" stroke="grey" stroke-width="5" />
<circle cx="232.00224351695732" cy="673.0641334656484" r="2.5" fill="grey" stroke="none" />
<path d="M232.00224351695732,673.0641334656484 A319.02036262934695,319.02036262934695,0,0,0,257.76,707.5904" stroke="grey" stroke-width="5" fill="none" />
<circle cx="153.76" cy="723.5904" r="5" fill="black" stroke="none" />
<circle cx="257.76" cy="707.5904" r="5" fill="black" stroke="none" />
<path d="M257.76,707.5904 A319.02036262934695,319.02036262934695,0,0,0,310.32248155376305,756.5081495162239" stroke="grey" stroke-width="5" fill="none" />
<path d="M310.32248155376317,756.508149516224 L-242.24,327.59040000000005" stroke="grey" stroke-width="5" />
<circle cx="310.32248155376317" cy="756.508149516224" r="2.5" fill="grey" stroke="none" />
<circle cx="257.76" cy="707.5904" r="5" fill="black" stroke="none" />
<circle cx="257.76" cy="827.5904" r="5" fill="black" stroke="none" />
<path d="M257.76,627.5904 L317.38225110704434,596.1867223759568" stroke="grey" stroke-width="5" />
<circle cx="317.38225110704434" cy="596.1867223759568" r="2.5" fill="grey" stroke="none" />
<path d="M317.3822511070442,596.1867223759567 A206.40040642440607,206.40040642440607,0,0,0,337.76,627.5903999999999" stroke="grey" stroke-width="5" fill="none" />
<circle cx="257.76" cy="627.5904" r="5" fill="black" stroke="none" />
<circle cx="337.76" cy="627.5904" r="5" fill="black" stroke="none" />
<path d="M337.76,555.5904 A171.49959233817438,171.49959233817438,0,0,0,365.1936091456488,606.0157873006842" stroke="grey" stroke-width="5" fill="none" />
<path d="M365.1936091456488,606.0157873006842 L-162.24,127.59040000000002" stroke="grey" stroke-width="5" />
<circle cx="365.1936091456488" cy="606.0157873006842" r="2.5" fill="grey" stroke="none" />
<circle cx="337.76" cy="555.5904" r="5" fill="black" stroke="none" />
<circle cx="337.76" cy="627.5904" r="5" fill="black" stroke="none" />
<path d="M337.76,627.5904 L377.15908258198175,596.6057802621542" stroke="grey" stroke-width="5" />
<circle cx="377.15908258198175" cy="596.6057802621542" r="2.5" fill="grey" stroke="none" />
<path d="M377.15908258198175,596.6057802621542 A156.27721450089905,156.27721450089905,0,0,0,409.76,627.5904" stroke="grey" stroke-width="5" fill="none" />
<circle cx="337.76" cy="627.5904" r="5" fill="black" stroke="none" />
<circle cx="409.76" cy="627.5904" r="5" fill="black" stroke="none" />
<path d="M337.76,555.5904 L372.9637236741235,543.5280905785627" stroke="grey" stroke-width="5" />
<circle cx="372.9637236741235" cy="543.5280905785627" r="2.5" fill="grey" stroke="none" />
<path d="M372.9637236741235,543.5280905785627 A134.28667161025328,134.28667161025328,0,0,0,377.76,555.5904" stroke="grey" stroke-width="5" fill="none" />
<circle cx="337.76" cy="555.5904" r="5" fill="black" stroke="none" />
<circle cx="377.76" cy="555.5904" r="5" fill="black" stroke="none" />
<path d="M409.76,627.5904 L449.40566358497773,571.535368139708" stroke="grey" stroke-width="5" />
<circle cx="449.40566358497773" cy="571.535368139708" r="2.5" fill="grey" stroke="none" />
<path d="M449.40566358497773,571.535368139708 A87.61903772674066,87.61903772674066,0,0,0,497.76,587.5904" stroke="grey" stroke-width="5" fill="none" />
<circle cx="409.76" cy="627.5904" r="5" fill="black" stroke="none" />
<circle cx="497.76" cy="587.5904" r="5" fill="black" stroke="none" />
<path d="M377.76,555.5904 L445.6578903429805,524.7128567791033" stroke="grey" stroke-width="5" />
<circle cx="445.6578903429805" cy="524.7128567791033" r="2.5" fill="grey" stroke="none" />
<path d="M445.6578903429805,524.7128567791033 A59.69748882624797,59.69748882624797,0,0,0,521.76,555.5904" stroke="grey" stroke-width="5" fill="none" />
<circle cx="377.76" cy="555.5904" r="5" fill="black" stroke="none" />
<circle cx="521.76" cy="555.5904" r="5" fill="black" stroke="none" />
<path d="M497.76,587.5904 L498.4738205481343,559.6779770806677" stroke="grey" stroke-width="5" />
<circle cx="498.4738205481343" cy="559.6779770806677" r="2.5" fill="grey" stroke="none" />
<path d="M498.4738205481343,559.6779770806677 A59.69748882624797,59.69748882624797,0,0,0,521.76,555.5904" stroke="grey" stroke-width="5" fill="none" />
<circle cx="497.76" cy="587.5904" r="5" fill="black" stroke="none" />
<circle cx="521.76" cy="555.5904" r="5" fill="black" stroke="none" />
<path d="M257.76,707.5904 L317.07306599781634,656.7613746709334" stroke="grey" stroke-width="5" />
<circle cx="317.07306599781634" cy="656.7613746709334" r="2.5" fill="grey" stroke="none" />
<path d="M317.07306599781634,656.7613746709334 A240.90743403257613,240.90743403257613,0,0,0,377.75999999999993,707.5904" stroke="grey" stroke-width="5" fill="none" />
<circle cx="257.76" cy="707.5904" r="5" fill="black" stroke="none" />
<circle cx="377.76" cy="707.5904" r="5" fill="black" stroke="none" />
<path d="M377.76,707.5904 L441.83300835832074,598.780342454948" stroke="grey" stroke-width="5" />
<circle cx="441.83300835832074" cy="598.780342454948" r="2.5" fill="grey" stroke="none" />
<path d="M441.83300835832074,598.780342454948 A114.63400443219282,114.63400443219282,0,0,0,473.76,611.5904" stroke="grey" stroke-width="5" fill="none" />
<circle cx="377.76" cy="707.5904" r="5" fill="black" stroke="none" />
<circle cx="473.76" cy="611.5904" r="5" fill="black" stroke="none" />
<path d="M473.76,611.5904 L479.9437910126429,585.2926975374531" stroke="grey" stroke-width="5" />
<circle cx="479.9437910126429" cy="585.2926975374531" r="2.5" fill="grey" stroke="none" />
<path d="M479.9437910126429,585.2926975374531 A87.61903772674066,87.61903772674066,0,0,0,497.76,587.5904" stroke="grey" stroke-width="5" fill="none" />
<circle cx="473.76" cy="611.5904" r="5" fill="black" stroke="none" />
<circle cx="497.76" cy="587.5904" r="5" fill="black" stroke="none" />
<path d="M497.76,587.5904 A87.61903772674066,87.61903772674066,0,0,0,498.2415412577421,587.6013903714535" stroke="grey" stroke-width="5" fill="none" />
<path d="M498.2415412577421,587.6013903714535 L-2.240000000000009,111.59040000000002" stroke="grey" stroke-width="5" />
<circle cx="498.2415412577421" cy="587.6013903714535" r="2.5" fill="grey" stroke="none" />
<circle cx="497.76" cy="587.5904" r="5" fill="black" stroke="none" />
<circle cx="497.76" cy="611.5904" r="5" fill="black" stroke="none" />
<path d="M497.76,611.5904 A111.61287995639215,111.61287995639215,0,0,0,499.130689801279,611.6094945420791" stroke="grey" stroke-width="5" fill="none" />
<path d="M499.130689801279,611.6094945420791 L-2.240000000000009,287.59040000000005" stroke="grey" stroke-width="5" />
<circle cx="499.130689801279" cy="611.6094945420791" r="2.5" fill="grey" stroke="none" />
<circle cx="497.76" cy="611.5904" r="5" fill="black" stroke="none" />
<circle cx="497.76" cy="787.5904" r="5" fill="black" stroke="none" />
<path d="M497.76,787.5904 A287.59912338559036,287.59912338559036,0,0,0,589.1449130405703,773.434526443076" stroke="grey" stroke-width="5" fill="none" />
<path d="M589.1449130405701,773.434526443076 L93.75999999999999,287.59040000000005" stroke="grey" stroke-width="5" />
<circle cx="589.1449130405701" cy="773.434526443076" r="2.5" fill="grey" stroke="none" />
<circle cx="497.76" cy="787.5904" r="5" fill="black" stroke="none" />
<circle cx="593.76" cy="787.5904" r="5" fill="black" stroke="none" />
<path d="M497.76,787.5904 A287.59912338559036,287.59912338559036,0,0,0,498.0803751065282,787.5927168974006" stroke="grey" stroke-width="5" fill="none" />
<path d="M498.0803751065281,787.5927168974006 L-2.240000000000009,335.59040000000005" stroke="grey" stroke-width="5" />
<circle cx="498.0803751065281" cy="787.5927168974006" r="2.5" fill="grey" stroke="none" />
<circle cx="497.76" cy="787.5904" r="5" fill="black" stroke="none" />
<circle cx="497.76" cy="835.5904" r="5" fill="black" stroke="none" />
<path d="M185.76,411.59040000000005 L354.7776130945888,459.1425243846975" stroke="grey" stroke-width="5" />
<circle cx="354.7776130945888" cy="459.1425243846975" r="2.5" fill="grey" stroke="none" />
<path d="M354.7776130945888,459.1425243846975 A150.86044866750197,150.86044866750197,0,0,1,377.76,411.59040000000005" stroke="grey" stroke-width="5" fill="none" />
<circle cx="185.76" cy="411.59040000000005" r="5" fill="black" stroke="none" />
<circle cx="377.76" cy="411.59040000000005" r="5" fill="black" stroke="none" />
<path d="M377.76,411.59040000000005 L391.1894874857714,421.3032240904946" stroke="grey" stroke-width="5" />
<circle cx="391.1894874857714" cy="421.3032240904946" r="2.5" fill="grey" stroke="none" />
<path d="M391.1894874857714,421.3032240904946 A134.28667161025328,134.28667161025328,0,0,0,377.76,555.5904" stroke="grey" stroke-width="5" fill="none" />
<circle cx="377.76" cy="411.59040000000005" r="5" fill="black" stroke="none" />
<circle cx="377.76" cy="555.5904" r="5" fill="black" stroke="none" />
<path d="M377.76,411.59040000000005 A150.86044866750197,150.86044866750197,0,0,1,411.3818522521814,377.9111026263822" stroke="grey" stroke-width="5" fill="none" />
<path d="M411.3818522521814,377.9111026263822 L-122.24000000000001,-168.40959999999998" stroke="grey" stroke-width="5" />
<circle cx="411.3818522521814" cy="377.9111026263822" r="2.5" fill="grey" stroke="none" />
<circle cx="377.76" cy="411.59040000000005" r="5" fill="black" stroke="none" />
<circle cx="377.76" cy="331.59040000000005" r="5" fill="black" stroke="none" />
<path d="M377.76,331.59040000000005 A208.09711908664184,208.09711908664184,0,0,1,400.45597064578203,317.25592433108375" stroke="grey" stroke-width="5" fill="none" />
<path d="M400.45597064578203,317.25592433108375 L-122.24000000000001,-224.40959999999998" stroke="grey" stroke-width="5" />
<circle cx="400.45597064578203" cy="317.25592433108375" r="2.5" fill="grey" stroke="none" />
<circle cx="377.76" cy="331.59040000000005" r="5" fill="black" stroke="none" />
<circle cx="377.76" cy="275.59040000000005" r="5" fill="black" stroke="none" />
<path d="M377.76,331.59040000000005 L454.75856051072526,437.67103462194893" stroke="grey" stroke-width="5" />
<circle cx="454.75856051072526" cy="437.67103462194893" r="2.5" fill="grey" stroke="none" />
<path d="M454.75856051072526,437.67103462194893 A77.01745108843838,77.01745108843838,0,0,1,473.76,427.59040000000005" stroke="grey" stroke-width="5" fill="none" />
<circle cx="377.76" cy="331.59040000000005" r="5" fill="black" stroke="none" />
<circle cx="473.76" cy="427.59040000000005" r="5" fill="black" stroke="none" />
<path d="M377.76,411.59040000000005 L437.5938935340129,454.86502854863113" stroke="grey" stroke-width="5" />
<circle cx="437.5938935340129" cy="454.86502854863113" r="2.5" fill="grey" stroke="none" />
<path d="M437.5938935340129,454.86502854863113 A77.01745108843838,77.01745108843838,0,0,1,473.76,427.59040000000005" stroke="grey" stroke-width="5" fill="none" />
<circle cx="377.76" cy="411.59040000000005" r="5" fill="black" stroke="none" />
<circle cx="473.76" cy="427.59040000000005" r="5" fill="black" stroke="none" />
<path d="M473.76,427.59040000000005 L492.5850110628986,479.53824760137434" stroke="grey" stroke-width="5" />
<circle cx="492.5850110628986" cy="479.53824760137434" r="2.5" fill="grey" stroke="none" />
<path d="M492.5850110628986,479.53824760137434 A21.763854717397823,21.763854717397823,0,0,1,521.76,499.59040000000005" stroke="grey" stroke-width="5" fill="none" />
<circle cx="473.76" cy="427.59040000000005" r="5" fill="black" stroke="none" />
<circle cx="521.76" cy="499.59040000000005" r="5" fill="black" stroke="none" />
<path d="M473.76,611.5904 L474.45154267651793,608.6494882663983" stroke="grey" stroke-width="5" />
<circle cx="474.45154267651793" cy="608.6494882663983" r="2.5" fill="grey" stroke="none" />
<path d="M474.451542676518,608.6494882663983 A111.61287995639215,111.61287995639215,0,0,0,497.76,611.5904" stroke="grey" stroke-width="5" fill="none" />
<circle cx="473.76" cy="611.5904" r="5" fill="black" stroke="none" />
<circle cx="497.76" cy="611.5904" r="5" fill="black" stroke="none" />
<path d="M497.76,611.5904 A111.61287995639215,111.61287995639215,0,0,0,521.3620318406555,609.5495256393145" stroke="grey" stroke-width="5" fill="none" />
<path d="M521.3620318406555,609.5495256393145 L21.75999999999999,111.59040000000002" stroke="grey" stroke-width="5" />
<circle cx="521.3620318406555" cy="609.5495256393145" r="2.5" fill="grey" stroke="none" />
<circle cx="497.76" cy="611.5904" r="5" fill="black" stroke="none" />
<circle cx="521.76" cy="611.5904" r="5" fill="black" stroke="none" />
<path d="M521.76,611.5904 L511.425739194363,558.5938789979158" stroke="grey" stroke-width="5" />
<circle cx="511.425739194363" cy="558.5938789979158" r="2.5" fill="grey" stroke="none" />
<path d="M511.425739194363,558.5938789979158 A59.69748882624797,59.69748882624797,0,0,0,521.76,555.5904" stroke="grey" stroke-width="5" fill="none" />
<circle cx="521.76" cy="611.5904" r="5" fill="black" stroke="none" />
<circle cx="521.76" cy="555.5904" r="5" fill="black" stroke="none" />
<path d="M521.76,555.5904 L516.4669592716376,542.0682377157189" stroke="grey" stroke-width="5" />
<circle cx="516.4669592716376" cy="542.0682377157189" r="2.5" fill="grey" stroke="none" />
<path d="M516.4669592716376,542.0682377157189 A45.17629214709858,45.17629214709858,0,0,0,521.76,539.5904" stroke="grey" stroke-width="5" fill="none" />
<circle cx="521.76" cy="555.5904" r="5" fill="black" stroke="none" />
<circle cx="521.76" cy="539.5904" r="5" fill="black" stroke="none" />
<path d="M521.76,539.5904 L515.4585189985473,528.1254113308864" stroke="grey" stroke-width="5" />
<circle cx="515.4585189985473" cy="528.1254113308864" r="2.5" fill="grey" stroke="none" />
<path d="M515.4585189985473,528.1254113308864 A32.0936843033018,32.0936843033018,0,0,0,521.76,523.5904" stroke="grey" stroke-width="5" fill="none" />
<circle cx="521.76" cy="539.5904" r="5" fill="black" stroke="none" />
<circle cx="521.76" cy="523.5904" r="5" fill="black" stroke="none" />
<path d="M521.76,523.5904 L514.7562203882542,515.9974789267956" stroke="grey" stroke-width="5" />
<circle cx="514.7562203882542" cy="515.9974789267956" r="2.5" fill="grey" stroke="none" />
<path d="M514.7562203882542,515.9974789267957 A21.763854717397823,21.763854717397823,0,0,0,521.76,499.59040000000005" stroke="grey" stroke-width="5" fill="none" />
<circle cx="521.76" cy="523.5904" r="5" fill="black" stroke="none" />
<circle cx="521.76" cy="499.59040000000005" r="5" fill="black" stroke="none" />
<path d="M521.76,499.59040000000005 A21.763854717397823,21.763854717397823,0,0,1,521.7634795703394,499.8722144318806" stroke="grey" stroke-width="5" fill="none" />
<path d="M521.7634795703394,499.8722144318806 L69.75999999999999,-0.4095999999999833" stroke="grey" stroke-width="5" />
<circle cx="521.7634795703394" cy="499.8722144318806" r="2.5" fill="grey" stroke="none" />
<circle cx="521.76" cy="499.59040000000005" r="5" fill="black" stroke="none" />
<circle cx="569.76" cy="499.59040000000005" r="5" fill="black" stroke="none" />
<path d="M569.76,499.5904 A69.76120248504894,69.76120248504894,0,0,1,560.6714976390172,534.4324664582532" stroke="grey" stroke-width="5" fill="none" />
<path d="M560.6714976390172,534.4324664582532 L69.75999999999999,39.59040000000002" stroke="grey" stroke-width="5" />
<circle cx="560.6714976390172" cy="534.4324664582532" r="2.5" fill="grey" stroke="none" />
<circle cx="569.76" cy="499.59040000000005" r="5" fill="black" stroke="none" />
<circle cx="569.76" cy="539.5904" r="5" fill="black" stroke="none" />
<path d="M569.76,539.5904 L539.2899377405323,522.2979408131131" stroke="grey" stroke-width="5" />
<circle cx="539.2899377405323" cy="522.2979408131131" r="2.5" fill="grey" stroke="none" />
<path d="M539.2899377405323,522.2979408131131 A45.17629214709858,45.17629214709858,0,0,1,521.76,539.5904" stroke="grey" stroke-width="5" fill="none" />
<circle cx="569.76" cy="539.5904" r="5" fill="black" stroke="none" />
<circle cx="521.76" cy="539.5904" r="5" fill="black" stroke="none" />
<path d="M521.76,523.5904 A32.0936843033018,32.0936843033018,0,0,0,531.2645631655196,507.24787294516386" stroke="grey" stroke-width="5" fill="none" />
<path d="M531.2645631655196,507.24787294516386 L101.75999999999999,23.590400000000017" stroke="grey" stroke-width="5" />
<circle cx="531.2645631655196" cy="507.24787294516386" r="2.5" fill="grey" stroke="none" />
<circle cx="521.76" cy="523.5904" r="5" fill="black" stroke="none" />
<circle cx="601.76" cy="523.5904" r="5" fill="black" stroke="none" />
<circle cx="500" cy="500" r="5" fill="red" stroke="none" />
</svg>