<?xml version="1.0" encoding="UTF-8"?>
<svg xmlns="http://www.w3.org/2000/svg" xmlns:xlink="http://www.w3.org/1999/xlink"
     width="1000" height="1000" viewBox="0 0 1000 1000">
<defs>
</defs>
<rect x="0" y="0" width="1000" height="1000" fill="white" />
<path d="M223.26655200000005,271.80178944000005 L263.38391592639505,304.88311996419316" stroke="grey" stroke-width="5" />
<circle cx="263.38391592639505" cy="304.88311996419316" r="2.5" fill="grey" stroke="none" />
<path d="M263.38391592639505,304.88311996419316 A306.6883892768599,306.6883892768599,0,0,0,223.26655200000005,367.80178944000016" stroke="grey" stroke-width="5" fill="none" />
<circle cx="223.26655200000005" cy="271.80178944000005" r="5" fill="black" stroke="none" />
<circle cx="223.26655200000005" cy="367.80178944000005" r="5" fill="black" stroke="none" />
<path d="M223.26655200000005,367.80178944000005 L296.1025004033212,402.59621748239385" stroke="grey" stroke-width="5" />
<circle cx="296.1025004033212" cy="402.59621748239385" r="2.5" fill="grey" stroke="none" />
<path d="M296.1025004033211,402.59621748239397 A225.9683322736059,225.9683322736059,0,0,0,287.26655200000005,423.80178944" stroke="grey" stroke-width="5" fill="none" />
<circle cx="223.26655200000005" cy="367.80178944000005" r="5" fill="black" stroke="none" />
<circle cx="287.26655200000005" cy="423.80178944000005" r="5" fill="black" stroke="none" />
<path d="M199.26655200000005,423.80178944000005 L280.95354802165355,444.4991976074874" stroke="grey" stroke-width="5" />
<circle cx="280.95354802165355" cy="444.4991976074874" r="2.5" fill="grey" stroke="none" />
<path d="M280.95354802165355,444.49919760748753 A225.9683322736059,225.9683322736059,0,0,1,287.26655200000005,423.80178944" stroke="grey" stroke-width="5" fill="none" />
<circle cx="199.26655200000005" cy="423.80178944000005" r="5" fill="black" stroke="none" />
<circle cx="287.26655200000005" cy="423.80178944000005" r="5" fill="black" stroke="none" />
<path d="M287.26655200000005,423.80178944000005 L361.1290171832376,450.258313918995" stroke="grey" stroke-width="5" />
<circle cx="361.1290171832376" cy="450.258313918995" r="2.5" fill="grey" stroke="none" />
<path d="M361.1290171832376,450.258313918995 A147.51062742282258,147.51062742282258,0,0,0,359.26655200000005,455.8017894400001" stroke="grey" stroke-width="5" fill="none" />
<circle cx="287.26655200000005" cy="423.80178944000005" r="5" fill="black" stroke="none" />
<circle cx="359.26655200000005" cy="455.80178944000005" r="5" fill="black" stroke="none" />
<path d="M359.26655200000005,455.80178944000005 L377.99424037503945,461.68333590862676" stroke="grey" stroke-width="5" />
<circle cx="377.99424037503945" cy="461.68333590862676" r="2.5" fill="grey" stroke="none" />
<path d="M377.99424037503945,461.68333590862676 A127.88108589136544,127.88108589136544,0,0,0,375.26655200000005,471.8017894400001" stroke="grey" stroke-width="5" fill="none" />
<circle cx="359.26655200000005" cy="455.80178944000005" r="5" fill="black" stroke="none" />
<circle cx="375.26655200000005" cy="471.80178944000005" r="5" fill="black" stroke="none" />
<path d="M375.26655200000005,471.80178944000005 L409.47309257934944,479.53478527433055" stroke="grey" stroke-width="5" />
<circle cx="409.47309257934944" cy="479.53478527433055" r="2.5" fill="grey" stroke="none" />
<path d="M409.47309257934944,479.5347852743306 A92.81134618630846,92.81134618630846,0,0,0,407.26655200000005,503.80178944000005" stroke="grey" stroke-width="5" fill="none" />
<circle cx="375.26655200000005" cy="471.80178944000005" r="5" fill="black" stroke="none" />
<circle cx="407.26655200000005" cy="503.80178944000005" r="5" fill="black" stroke="none" />
<path d="M375.26655200000005,471.8017894400001 A127.88108589136544,127.88108589136544,0,0,0,382.89836189164083,551.3885053401408" stroke="grey" stroke-width="5" fill="none" />
<path d="M382.89836189164083,551.3885053401408 L-172.73344799999995,75.80178944000005" stroke="grey" stroke-width="5" />
<circle cx="382.89836189164083" cy="551.3885053401408" r="2.5" fill="grey" stroke="none" />
<circle cx="375.26655200000005" cy="471.80178944000005" r="5" fill="black" stroke="none" />
<circle cx="327.26655200000005" cy="575.80178944" r="5" fill="black" stroke="none" />
<path d="M327.26655200000005,575.80178944 A188.6339188488507,188.6339188488507,0,0,0,359.9273702204697,626.3424462598434" stroke="grey" stroke-width="5" fill="none" />
<path d="M359.9273702204697,626.3424462598434 L-172.73344799999995,155.80178944000005" stroke="grey" stroke-width="5" />
<circle cx="359.9273702204697" cy="626.3424462598434" r="2.5" fill="grey" stroke="none" />
<circle cx="327.26655200000005" cy="575.80178944" r="5" fill="black" stroke="none" />
<circle cx="327.26655200000005" cy="655.80178944" r="5" fill="black" stroke="none" />
<path d="M223.26655200000005,671.80178944 L302.37015715612904,622.6926520545613" stroke="grey" stroke-width="5" />
<circle cx="302.37015715612904" cy="622.6926520545613" r="2.5" fill="grey" stroke="none" />
<path d="M302.37015715612904,622.6926520545613 A232.61780166331812,232.61780166331812,0,0,0,327.266552,655.80178944" stroke="grey" stroke-width="5" fill="none" />
<circle cx="223.26655200000005" cy="671.80178944" r="5" fill="black" stroke="none" />
<circle cx="327.26655200000005" cy="655.80178944" r="5" fill="black" stroke="none" />
<path d="M327.266552,655.80178944 A232.61780166331812,232.61780166331812,0,0,0,376.52919150695925,697.1446197611024" stroke="grey" stroke-width="5" fill="none" />
<path d="M376.5291915069593,697.1446197611025 L-172.73344799999995,275.80178944000005" stroke="grey" stroke-width="5" />
<circle cx="376.5291915069593" cy="697.1446197611025" r="2.5" fill="grey" stroke="none" />
<circle cx="327.26655200000005" cy="655.80178944" r="5" fill="black" stroke="none" />
<circle cx="327.26655200000005" cy="775.80178944" r="5" fill="black" stroke="none" />
<path d="M327.26655200000005,575.80178944 L390.32363667526346,548.1300216926522" stroke="grey" stroke-width="5" />
<circle cx="390.32363667526346" cy="548.1300216926522" r="2.5" fill="grey" stroke="none" />
<path d="M390.32363667526346,548.1300216926522 A119.77229921928858,119.77229921928858,0,0,0,407.26655200000005,575.80178944" stroke="grey" stroke-width="5" fill="none" />
<circle cx="327.26655200000005" cy="575.80178944" r="5" fill="black" stroke="none" />
<circle cx="407.26655200000005" cy="575.80178944" r="5" fill="black" stroke="none" />
<path d="M407.26655200000005,503.80178944000005 A92.81134618630846,92.81134618630846,0,0,0,428.14101255900437,558.7386746945283" stroke="grey" stroke-width="5" fill="none" />
<path d="M428.14101255900437,558.7386746945283 L-92.73344799999995,75.80178944000005" stroke="grey" stroke-width="5" />
<circle cx="428.14101255900437" cy="558.7386746945283" r="2.5" fill="grey" stroke="none" />
<circle cx="407.26655200000005" cy="503.80178944000005" r="5" fill="black" stroke="none" />
<circle cx="407.26655200000005" cy="575.80178944" r="5" fill="black" stroke="none" />
<path d="M407.26655200000005,575.80178944 L439.1548198857185,549.7358141095071" stroke="grey" stroke-width="5" />
<circle cx="439.1548198857185" cy="549.7358141095071" r="2.5" fill="grey" stroke="none" />
<path d="M439.1548198857185,549.7358141095071 A78.58617657244055,78.58617657244055,0,0,0,479.26655200000005,575.80178944" stroke="grey" stroke-width="5" fill="none" />
<circle cx="407.26655200000005" cy="575.80178944" r="5" fill="black" stroke="none" />
<circle cx="479.26655200000005" cy="575.80178944" r="5" fill="black" stroke="none" />
<path d="M407.26655200000005,503.80178944000005 L447.17406061596773,502.16570291345465" stroke="grey" stroke-width="5" />
<circle cx="447.17406061596773" cy="502.16570291345465" r="2.5" fill="grey" stroke="none" />
<path d="M447.17406061596773,502.16570291345465 A52.87031436368423,52.87031436368423,0,0,0,447.26655200000005,503.80178944000005" stroke="grey" stroke-width="5" fill="none" />
<circle cx="407.26655200000005" cy="503.80178944000005" r="5" fill="black" stroke="none" />
<circle cx="447.26655200000005" cy="503.80178944000005" r="5" fill="black" stroke="none" />
<path d="M479.26655200000005,575.80178944 L479.8958958995669,573.5008989291543" stroke="grey" stroke-width="5" />
<circle cx="479.8958958995669" cy="573.5008989291543" r="2.5" fill="grey" stroke="none" />
<path d="M479.8958958995669,573.5008989291543 A76.20076866459294,76.20076866459294,0,0,0,567.266552,535.80178944" stroke="grey" stroke-width="5" fill="none" />
<circle cx="479.26655200000005" cy="575.80178944" r="5" fill="black" stroke="none" />
<circle cx="567.266552" cy="535.80178944" r="5" fill="black" stroke="none" />
<path d="M447.26655200000005,503.80178944000005 A52.87031436368423,52.87031436368423,0,0,0,552.8245033413102,502.20045169424435" stroke="grey" stroke-width="5" fill="none" />
<path d="M552.8245033413102,502.20045169424435 L91.26655200000005,3.80178944000005" stroke="grey" stroke-width="5" />
<circle cx="552.8245033413102" cy="502.20045169424435" r="2.5" fill="grey" stroke="none" />
<circle cx="447.26655200000005" cy="503.80178944000005" r="5" fill="black" stroke="none" />
<circle cx="591.266552" cy="503.80178944000005" r="5" fill="black" stroke="none" />
<path d="M567.266552,535.80178944 A76.20076866459294,76.20076866459294,0,0,0,576.134742291188,503.171460441058" stroke="grey" stroke-width="5" fill="none" />
<path d="M576.134742291188,503.171460441058 L91.26655200000005,3.80178944000005" stroke="grey" stroke-width="5" />
<circle cx="576.134742291188" cy="503.171460441058" r="2.5" fill="grey" stroke="none" />
<circle cx="567.266552" cy="535.80178944" r="5" fill="black" stroke="none" />
<circle cx="591.266552" cy="503.80178944000005" r="5" fill="black" stroke="none" />
<path d="M327.26655200000005,655.80178944 L377.8601513125202,610.167470213645" stroke="grey" stroke-width="5" />
<circle cx="377.8601513125202" cy="610.167470213645" r="2.5" fill="grey" stroke="none" />
<path d="M377.8601513125202,610.167470213645 A164.4840847336751,164.4840847336751,0,0,0,447.26655200000005,655.80178944" stroke="grey" stroke-width="5" fill="none" />
<circle cx="327.26655200000005" cy="655.80178944" r="5" fill="black" stroke="none" />
<circle cx="447.26655200000005" cy="655.80178944" r="5" fill="black" stroke="none" />
<path d="M447.26655200000005,655.80178944 L476.33585913315613,569.9160709653295" stroke="grey" stroke-width="5" />
<circle cx="476.33585913315613" cy="569.9160709653295" r="2.5" fill="grey" stroke="none" />
<path d="M476.33585913315613,569.9160709653295 A73.81225197888769,73.81225197888769,0,0,0,543.266552,559.80178944" stroke="grey" stroke-width="5" fill="none" />
<circle cx="447.26655200000005" cy="655.80178944" r="5" fill="black" stroke="none" />
<circle cx="543.266552" cy="559.80178944" r="5" fill="black" stroke="none" />
<path d="M543.266552,559.80178944 A73.81225197888769,73.81225197888769,0,0,0,565.1580787567831,534.6795806623965" stroke="grey" stroke-width="5" fill="none" />
<path d="M565.1580787567831,534.6795806623965 L67.26655200000005,35.80178944000005" stroke="grey" stroke-width="5" />
<circle cx="565.1580787567831" cy="534.6795806623965" r="2.5" fill="grey" stroke="none" />
<circle cx="543.266552" cy="559.80178944" r="5" fill="black" stroke="none" />
<circle cx="567.266552" cy="535.80178944" r="5" fill="black" stroke="none" />
<path d="M567.266552,535.80178944 A76.20076866459294,76.20076866459294,0,0,1,556.9492553006608,550.629432801237" stroke="grey" stroke-width="5" fill="none" />
<path d="M556.9492553006608,550.629432801237 L67.26655200000005,59.80178944000005" stroke="grey" stroke-width="5" />
<circle cx="556.9492553006608" cy="550.629432801237" r="2.5" fill="grey" stroke="none" />
<circle cx="567.266552" cy="535.80178944" r="5" fill="black" stroke="none" />
<circle cx="567.266552" cy="559.80178944" r="5" fill="black" stroke="none" />
<path d="M567.266552,559.80178944 A90.00579447010516,90.00579447010516,0,0,1,524.690727316792,586.5529376899631" stroke="grey" stroke-width="5" fill="none" />
<path d="M524.690727316792,586.5529376899631 L67.26655200000005,235.80178944000005" stroke="grey" stroke-width="5" />
<circle cx="524.690727316792" cy="586.5529376899631" r="2.5" fill="grey" stroke="none" />
<circle cx="567.266552" cy="559.80178944" r="5" fill="black" stroke="none" />
<circle cx="567.266552" cy="735.80178944" r="5" fill="black" stroke="none" />
<path d="M567.266552,735.80178944 A245.2086314163407,245.2086314163407,0,0,0,639.5862728595406,701.6009557275379" stroke="grey" stroke-width="5" fill="none" />
<path d="M639.5862728595406,701.6009557275379 L163.26655200000005,235.80178944000005" stroke="grey" stroke-width="5" />
<circle cx="639.5862728595406" cy="701.6009557275379" r="2.5" fill="grey" stroke="none" />
<circle cx="567.266552" cy="735.80178944" r="5" fill="black" stroke="none" />
<circle cx="663.266552" cy="735.80178944" r="5" fill="black" stroke="none" />
<path d="M567.266552,735.80178944 A245.2086314163407,245.2086314163407,0,0,1,556.5524187451863,738.5981912235378" stroke="grey" stroke-width="5" fill="none" />
<path d="M556.5524187451863,738.5981912235378 L67.26655200000005,283.80178944000005" stroke="grey" stroke-width="5" />
<circle cx="556.5524187451863" cy="738.5981912235378" r="2.5" fill="grey" stroke="none" />
<circle cx="567.266552" cy="735.80178944" r="5" fill="black" stroke="none" />
<circle cx="567.266552" cy="783.80178944" r="5" fill="black" stroke="none" />
<path d="M255.26655200000005,359.80178944000005 L370.0281233888049,425.5442005458336" stroke="grey" stroke-width="5" />
<circle cx="370.0281233888049" cy="425.5442005458336" r="2.5" fill="grey" stroke="none" />
<path d="M370.0281233888049,425.5442005458336 A149.78769903498343,149.78769903498343,0,0,1,447.26655200000005,359.8017894400001" stroke="grey" stroke-width="5" fill="none" />
<circle cx="255.26655200000005" cy="359.80178944000005" r="5" fill="black" stroke="none" />
<circle cx="447.26655200000005" cy="359.80178944000005" r="5" fill="black" stroke="none" />
<path d="M447.26655200000005,359.80178944000005 L481.3867627902486,450.5144713932616" stroke="grey" stroke-width="5" />
<circle cx="481.3867627902486" cy="450.5144713932616" r="2.5" fill="grey" stroke="none" />
<path d="M481.3867627902486,450.5144713932616 A52.87031436368423,52.87031436368423,0,0,0,447.26655200000005,503.80178944000005" stroke="grey" stroke-width="5" fill="none" />
<circle cx="447.26655200000005" cy="359.80178944000005" r="5" fill="black" stroke="none" />
<circle cx="447.26655200000005" cy="503.80178944000005" r="5" fill="black" stroke="none" />
<path d="M447.26655200000005,359.8017894400001 A149.78769903498343,149.78769903498343,0,0,1,465.11499091883036,354.3312287290049" stroke="grey" stroke-width="5" fill="none" />
<path d="M465.11499091883036,354.3312287290049 L-52.73344799999995,-220.19821055999995" stroke="grey" stroke-width="5" />
<circle cx="465.11499091883036" cy="354.3312287290049" r="2.5" fill="grey" stroke="none" />
<circle cx="447.26655200000005" cy="359.80178944000005" r="5" fill="black" stroke="none" />
<circle cx="447.26655200000005" cy="279.80178944000005" r="5" fill="black" stroke="none" />
<path d="M447.26655200000005,279.80178944000005 A226.42453151501667,226.42453151501667,0,0,1,457.5366721910757,277.59286373142925" stroke="grey" stroke-width="5" fill="none" />
<path d="M457.5366721910757,277.59286373142925 L-52.73344799999995,-276.19821055999995" stroke="grey" stroke-width="5" />
<circle cx="457.5366721910757" cy="277.59286373142925" r="2.5" fill="grey" stroke="none" />
<circle cx="447.26655200000005" cy="279.80178944000005" r="5" fill="black" stroke="none" />
<circle cx="447.26655200000005" cy="223.80178944000005" r="5" fill="black" stroke="none" />
<path d="M447.26655200000005,279.80178944000005 L469.36975509181,372.0977790453227" stroke="grey" stroke-width="5" />
<circle cx="469.36975509181" cy="372.0977790453227" r="2.5" fill="grey" stroke="none" />
<path d="M469.36975509181,372.0977790453227 A131.51878203615937,131.51878203615937,0,0,1,543.266552,375.80178944000005" stroke="grey" stroke-width="5" fill="none" />
<circle cx="447.26655200000005" cy="279.80178944000005" r="5" fill="black" stroke="none" />
<circle cx="543.266552" cy="375.80178944000005" r="5" fill="black" stroke="none" />
<path d="M447.26655200000005,359.80178944000005 L453.69820820929135,376.90112061742946" stroke="grey" stroke-width="5" />
<circle cx="453.69820820929135" cy="376.90112061742946" r="2.5" fill="grey" stroke="none" />
<path d="M453.69820820929135,376.90112061742946 A131.51878203615937,131.51878203615937,0,0,1,543.266552,375.80178944000005" stroke="grey" stroke-width="5" fill="none" />
<circle cx="447.26655200000005" cy="359.80178944000005" r="5" fill="black" stroke="none" />
<circle cx="543.266552" cy="375.80178944000005" r="5" fill="black" stroke="none" />
<path d="M543.266552,375.80178944000005 L534.5882738092059,400.71310250322955" stroke="grey" stroke-width="5" />
<circle cx="534.5882738092059" cy="400.71310250322955" r="2.5" fill="grey" stroke="none" />
<path d="M534.5882738092059,400.71310250322955 A105.13913020200806,105.13913020200806,0,0,1,591.266552,447.80178944000005" stroke="grey" stroke-width="5" fill="none" />
<circle cx="543.266552" cy="375.80178944000005" r="5" fill="black" stroke="none" />
<circle cx="591.266552" cy="447.80178944000005" r="5" fill="black" stroke="none" />
<path d="M543.266552,559.80178944 A73.81225197888769,73.81225197888769,0,0,0,555.1641782088161,549.0424508435375" stroke="grey" stroke-width="5" fill="none" />
<path d="M555.1641782088161,549.0424508435375 L67.26655200000005,59.80178944000005" stroke="grey" stroke-width="5" />
<circle cx="555.1641782088161" cy="549.0424508435375" r="2.5" fill="grey" stroke="none" />
<circle cx="543.266552" cy="559.80178944" r="5" fill="black" stroke="none" />
<circle cx="567.266552" cy="559.80178944" r="5" fill="black" stroke="none" />
<path d="M567.266552,559.80178944 A90.00579447010516,90.00579447010516,0,0,0,575.2839048613105,549.3292682596039" stroke="grey" stroke-width="5" fill="none" />
<path d="M575.2839048613105,549.3292682596039 L91.26655200000005,59.80178944000005" stroke="grey" stroke-width="5" />
<circle cx="575.2839048613105" cy="549.3292682596039" r="2.5" fill="grey" stroke="none" />
<circle cx="567.266552" cy="559.80178944" r="5" fill="black" stroke="none" />
<circle cx="591.266552" cy="559.80178944" r="5" fill="black" stroke="none" />
<path d="M591.266552,559.80178944 L576.404648330304,550.0636278193799" stroke="grey" stroke-width="5" />
<circle cx="576.404648330304" cy="550.0636278193799" r="2.5" fill="grey" stroke="none" />
<path d="M576.404648330304,550.0636278193799 A91.34570114085724,91.34570114085724,0,0,0,591.266552,503.80178944000005" stroke="grey" stroke-width="5" fill="none" />
<circle cx="591.266552" cy="559.80178944" r="5" fill="black" stroke="none" />
<circle cx="591.266552" cy="503.80178944000005" r="5" fill="black" stroke="none" />
<path d="M591.266552,503.80178944000005 A91.34570114085724,91.34570114085724,0,0,0,590.5405903634942,487.8988176798812" stroke="grey" stroke-width="5" fill="none" />
<path d="M590.5405903634942,487.8988176798812 L91.26655200000005,-12.19821055999995" stroke="grey" stroke-width="5" />
<circle cx="590.5405903634942" cy="487.8988176798812" r="2.5" fill="grey" stroke="none" />
<circle cx="591.266552" cy="503.80178944000005" r="5" fill="black" stroke="none" />
<circle cx="591.266552" cy="487.80178944000005" r="5" fill="black" stroke="none" />
<path d="M591.266552,487.80178944000005 A92.0781182194489,92.0781182194489,0,0,0,587.9747909565265,472.81882984508815" stroke="grey" stroke-width="5" fill="none" />
<path d="M587.9747909565265,472.81882984508815 L91.26655200000005,-28.19821055999995" stroke="grey" stroke-width="5" />
<circle cx="587.9747909565265" cy="472.81882984508815" r="2.5" fill="grey" stroke="none" />
<circle cx="591.266552" cy="487.80178944000005" r="5" fill="black" stroke="none" />
<circle cx="591.266552" cy="471.80178944000005" r="5" fill="black" stroke="none" />
<path d="M591.266552,471.80178944000005 A95.52341384579388,95.52341384579388,0,0,0,582.9195809421692,452.57568462139005" stroke="grey" stroke-width="5" fill="none" />
<path d="M582.9195809421692,452.57568462139005 L91.26655200000005,-52.19821055999995" stroke="grey" stroke-width="5" />
<circle cx="582.9195809421692" cy="452.57568462139005" r="2.5" fill="grey" stroke="none" />
<circle cx="591.266552" cy="471.80178944000005" r="5" fill="black" stroke="none" />
<circle cx="591.266552" cy="447.80178944000005" r="5" fill="black" stroke="none" />
<path d="M591.266552,447.80178944000005 A105.13913020200806,105.13913020200806,0,0,1,598.4510501584942,463.09976392589806" stroke="grey" stroke-width="5" fill="none" />
<path d="M598.4510501584942,463.09976392589806 L139.26655200000005,-52.19821055999995" stroke="grey" stroke-width="5" />
<circle cx="598.4510501584942" cy="463.09976392589806" r="2.5" fill="grey" stroke="none" />
<circle cx="591.266552" cy="447.80178944000005" r="5" fill="black" stroke="none" />
<circle cx="639.266552" cy="447.80178944000005" r="5" fill="black" stroke="none" />
<path d="M639.266552,447.80178944000005 L630.9068444038962,450.9350742887659" stroke="grey" stroke-width="5" />
<circle cx="630.9068444038962" cy="450.9350742887659" r="2.5" fill="grey" stroke="none" />
<path d="M630.9068444038962,450.9350742887659 A139.79974551777556,139.79974551777556,0,0,1,639.266552,487.80178944000005" stroke="grey" stroke-width="5" fill="none" />
<circle cx="639.266552" cy="447.80178944000005" r="5" fill="black" stroke="none" />
<circle cx="639.266552" cy="487.80178944000005" r="5" fill="black" stroke="none" />
<path d="M639.266552,487.80178944000005 L591.7269340625554,491.96573448793157" stroke="grey" stroke-width="5" />
<circle cx="591.7269340625554" cy="491.96573448793157" r="2.5" fill="grey" stroke="none" />
<path d="M591.7269340625554,491.96573448793157 A92.0781182194489,92.0781182194489,0,0,0,591.266552,487.80178944000005" stroke="grey" stroke-width="5" fill="none" />
<circle cx="639.266552" cy="487.80178944000005" r="5" fill="black" stroke="none" />
<circle cx="591.266552" cy="487.80178944000005" r="5" fill="black" stroke="none" />
<path d="M591.266552,471.80178944000005 A95.52341384579388,95.52341384579388,0,0,1,594.2544301989142,484.4814633217944" stroke="grey" stroke-width="5" fill="none" />
<path d="M594.2544301989142,484.4814633217944 L171.26655200000005,-28.19821055999995" stroke="grey" stroke-width="5" />
<circle cx="594.2544301989142" cy="484.4814633217944" r="2.5" fill="grey" stroke="none" />
<circle cx="591.266552" cy="471.80178944000005" r="5" fill="black" stroke="none" />
<circle cx="671.266552" cy="471.80178944000005" r="5" fill="black" stroke="none" />
<circle cx="500" cy="500" r="5" fill="red" stroke="none" />
</svg>