<?xml version="1.0" encoding="UTF-8"?>
<svg xmlns="http://www.w3.org/2000/svg" xmlns:xlink="http://www.w3.org/1999/xlink"
     width="1000" height="1000" viewBox="0 0 1000 1000">
<defs>
</defs>
<rect x="0" y="0" width="1000" height="1000" fill="white" />
<path d="M420.0,324.0 L453.18354112154776,397.0037904674051" stroke="grey" stroke-width="5" />
<circle cx="453.18354112154776" cy="397.0037904674051" r="2.5" fill="grey" stroke="none" />
<path d="M453.18354112154776,397.0037904674051 A113.13708498984761,113.13708498984761,0,0,0,420.0,420.0" stroke="grey" stroke-width="5" fill="none" />
<circle cx="420.0" cy="324.0" r="5" fill="black" stroke="none" />
<circle cx="420.0" cy="420.0" r="5" fill="black" stroke="none" />
<path d="M420.0,420.0 L479.6039219456289,479.6039219456289" stroke="grey" stroke-width="5" />
<circle cx="479.6039219456289" cy="479.6039219456289" r="2.5" fill="grey" stroke="none" />
<path d="M479.6039219456289,479.6039219456289 A28.844410203711913,28.844410203711913,0,0,1,484.0,476.0" stroke="grey" stroke-width="5" fill="none" />
<circle cx="420.0" cy="420.0" r="5" fill="black" stroke="none" />
<circle cx="484.0" cy="476.0" r="5" fill="black" stroke="none" />
<path d="M396.0,476.0 L471.89426065249904,493.5140601505767" stroke="grey" stroke-width="5" />
<circle cx="471.89426065249904" cy="493.5140601505767" r="2.5" fill="grey" stroke="none" />
<path d="M471.89426065249904,493.5140601505767 A28.844410203711913,28.844410203711913,0,0,1,484.0,476.0" stroke="grey" stroke-width="5" fill="none" />
<circle cx="396.0" cy="476.0" r="5" fill="black" stroke="none" />
<circle cx="484.0" cy="476.0" r="5" fill="black" stroke="none" />
<path d="M484.0,476.0 A28.844410203711913,28.844410203711913,0,0,1,528.5545092761196,504.0792156108742" stroke="grey" stroke-width="5" fill="none" />
<path d="M528.5545092761196,504.0792156108742 L56.0,8.0" stroke="grey" stroke-width="5" />
<circle cx="528.5545092761196" cy="504.0792156108742" r="2.5" fill="grey" stroke="none" />
<circle cx="484.0" cy="476.0" r="5" fill="black" stroke="none" />
<circle cx="556.0" cy="508.0" r="5" fill="black" stroke="none" />
<path d="M556.0,508.0 A56.568542494923804,56.568542494923804,0,0,1,553.665631459995,517.8885438199983" stroke="grey" stroke-width="5" fill="none" />
<path d="M553.665631459995,517.8885438199983 L72.0,24.0" stroke="grey" stroke-width="5" />
<circle cx="553.665631459995" cy="517.8885438199983" r="2.5" fill="grey" stroke="none" />
<circle cx="556.0" cy="508.0" r="5" fill="black" stroke="none" />
<circle cx="572.0" cy="524.0" r="5" fill="black" stroke="none" />
<path d="M572.0,524.0 A75.8946638440411,75.8946638440411,0,0,1,566.8230581529866,535.981646697762" stroke="grey" stroke-width="5" fill="none" />
<path d="M566.8230581529866,535.981646697762 L104.0,56.0" stroke="grey" stroke-width="5" />
<circle cx="566.8230581529866" cy="535.981646697762" r="2.5" fill="grey" stroke="none" />
<circle cx="572.0" cy="524.0" r="5" fill="black" stroke="none" />
<circle cx="604.0" cy="556.0" r="5" fill="black" stroke="none" />
<path d="M572.0,524.0 A75.8946638440411,75.8946638440411,0,0,1,513.9865164179446,574.5947542290379" stroke="grey" stroke-width="5" fill="none" />
<path d="M513.9865164179446,574.5947542290379 L24.0,128.0" stroke="grey" stroke-width="5" />
<circle cx="513.9865164179446" cy="574.5947542290379" r="2.5" fill="grey" stroke="none" />
<circle cx="572.0" cy="524.0" r="5" fill="black" stroke="none" />
<circle cx="524.0" cy="628.0" r="5" fill="black" stroke="none" />
<path d="M524.0,628.0 A130.23056476879765,130.23056476879765,0,0,1,514.9275623190232,629.3722067648677" stroke="grey" stroke-width="5" fill="none" />
<path d="M514.9275623190232,629.3722067648677 L24.0,208.0" stroke="grey" stroke-width="5" />
<circle cx="514.9275623190232" cy="629.3722067648677" r="2.5" fill="grey" stroke="none" />
<circle cx="524.0" cy="628.0" r="5" fill="black" stroke="none" />
<circle cx="524.0" cy="708.0" r="5" fill="black" stroke="none" />
<path d="M420.0,724.0 L429.57787266704065,697.1819565322863" stroke="grey" stroke-width="5" />
<circle cx="429.57787266704065" cy="697.1819565322863" r="2.5" fill="grey" stroke="none" />
<path d="M429.57787266704065,697.1819565322863 A209.3800372528384,209.3800372528384,0,0,0,524.0,708.0" stroke="grey" stroke-width="5" fill="none" />
<circle cx="420.0" cy="724.0" r="5" fill="black" stroke="none" />
<circle cx="524.0" cy="708.0" r="5" fill="black" stroke="none" />
<path d="M524.0,708.0 A209.3800372528384,209.3800372528384,0,0,1,515.2796418682278,708.8217721991141" stroke="grey" stroke-width="5" fill="none" />
<path d="M515.2796418682278,708.8217721991141 L24.0,328.0" stroke="grey" stroke-width="5" />
<circle cx="515.2796418682278" cy="708.8217721991141" r="2.5" fill="grey" stroke="none" />
<circle cx="524.0" cy="708.0" r="5" fill="black" stroke="none" />
<circle cx="524.0" cy="828.0" r="5" fill="black" stroke="none" />
<path d="M524.0,628.0 A130.23056476879765,130.23056476879765,0,0,0,582.122433705091,601.073764560112" stroke="grey" stroke-width="5" fill="none" />
<path d="M582.122433705091,601.073764560112 L104.0,128.0" stroke="grey" stroke-width="5" />
<circle cx="582.122433705091" cy="601.073764560112" r="2.5" fill="grey" stroke="none" />
<circle cx="524.0" cy="628.0" r="5" fill="black" stroke="none" />
<circle cx="604.0" cy="628.0" r="5" fill="black" stroke="none" />
<path d="M604.0,556.0 A118.1185844818672,118.1185844818672,0,0,1,574.484708260863,591.673487090293" stroke="grey" stroke-width="5" fill="none" />
<path d="M574.484708260863,591.673487090293 L104.0,128.0" stroke="grey" stroke-width="5" />
<circle cx="574.484708260863" cy="591.673487090293" r="2.5" fill="grey" stroke="none" />
<circle cx="604.0" cy="556.0" r="5" fill="black" stroke="none" />
<circle cx="604.0" cy="628.0" r="5" fill="black" stroke="none" />
<path d="M604.0,628.0 A164.92422502470643,164.92422502470643,0,0,0,633.380171953219,597.0037614205229" stroke="grey" stroke-width="5" fill="none" />
<path d="M633.380171953219,597.0037614205229 L176.0,128.0" stroke="grey" stroke-width="5" />
<circle cx="633.380171953219" cy="597.0037614205229" r="2.5" fill="grey" stroke="none" />
<circle cx="604.0" cy="628.0" r="5" fill="black" stroke="none" />
<circle cx="676.0" cy="628.0" r="5" fill="black" stroke="none" />
<path d="M604.0,556.0 A118.1185844818672,118.1185844818672,0,0,0,610.0870725329455,542.8116393183677" stroke="grey" stroke-width="5" fill="none" />
<path d="M610.0870725329455,542.8116393183677 L144.0,56.0" stroke="grey" stroke-width="5" />
<circle cx="610.0870725329455" cy="542.8116393183677" r="2.5" fill="grey" stroke="none" />
<circle cx="604.0" cy="556.0" r="5" fill="black" stroke="none" />
<circle cx="644.0" cy="556.0" r="5" fill="black" stroke="none" />
<path d="M676.0,628.0 A217.6235281397671,217.6235281397671,0,0,0,706.455806409023,568.818602136341" stroke="grey" stroke-width="5" fill="none" />
<path d="M706.455806409023,568.818602136341 L264.0,88.0" stroke="grey" stroke-width="5" />
<circle cx="706.455806409023" cy="568.818602136341" r="2.5" fill="grey" stroke="none" />
<circle cx="676.0" cy="628.0" r="5" fill="black" stroke="none" />
<circle cx="764.0" cy="588.0" r="5" fill="black" stroke="none" />
<path d="M644.0,556.0 A154.50566332662373,154.50566332662373,0,0,0,651.6651369123664,529.4904432885157" stroke="grey" stroke-width="5" fill="none" />
<path d="M651.6651369123664,529.4904432885157 L288.0,56.0" stroke="grey" stroke-width="5" />
<circle cx="651.6651369123664" cy="529.4904432885157" r="2.5" fill="grey" stroke="none" />
<circle cx="644.0" cy="556.0" r="5" fill="black" stroke="none" />
<circle cx="788.0" cy="556.0" r="5" fill="black" stroke="none" />
<path d="M764.0,588.0 A278.2804340948174,278.2804340948174,0,0,0,773.1643567511262,553.1152915904968" stroke="grey" stroke-width="5" fill="none" />
<path d="M773.1643567511262,553.1152915904968 L288.0,56.0" stroke="grey" stroke-width="5" />
<circle cx="773.1643567511262" cy="553.1152915904968" r="2.5" fill="grey" stroke="none" />
<circle cx="764.0" cy="588.0" r="5" fill="black" stroke="none" />
<circle cx="788.0" cy="556.0" r="5" fill="black" stroke="none" />
<path d="M524.0,708.0 A209.3800372528384,209.3800372528384,0,0,0,619.1812065721773,672.1506317153672" stroke="grey" stroke-width="5" fill="none" />
<path d="M619.1812065721773,672.1506317153672 L144.0,208.0" stroke="grey" stroke-width="5" />
<circle cx="619.1812065721773" cy="672.1506317153672" r="2.5" fill="grey" stroke="none" />
<circle cx="524.0" cy="708.0" r="5" fill="black" stroke="none" />
<circle cx="644.0" cy="708.0" r="5" fill="black" stroke="none" />
<path d="M644.0,708.0 A252.98221281347034,252.98221281347034,0,0,0,729.2482159702611,606.9825007861218" stroke="grey" stroke-width="5" fill="none" />
<path d="M729.2482159702611,606.9825007861218 L240.0,112.0" stroke="grey" stroke-width="5" />
<circle cx="729.2482159702611" cy="606.9825007861218" r="2.5" fill="grey" stroke="none" />
<circle cx="644.0" cy="708.0" r="5" fill="black" stroke="none" />
<circle cx="740.0" cy="612.0" r="5" fill="black" stroke="none" />
<path d="M740.0,612.0 A264.8471257159496,264.8471257159496,0,0,0,751.2560447034061,583.7520149011353" stroke="grey" stroke-width="5" fill="none" />
<path d="M751.2560447034061,583.7520149011353 L264.0,88.0" stroke="grey" stroke-width="5" />
<circle cx="751.2560447034061" cy="583.7520149011353" r="2.5" fill="grey" stroke="none" />
<circle cx="740.0" cy="612.0" r="5" fill="black" stroke="none" />
<circle cx="764.0" cy="588.0" r="5" fill="black" stroke="none" />
<path d="M764.0,588.0 A278.2804340948174,278.2804340948174,0,0,1,756.1798978800269,608.6823809187993" stroke="grey" stroke-width="5" fill="none" />
<path d="M756.1798978800269,608.6823809187993 L264.0,112.0" stroke="grey" stroke-width="5" />
<circle cx="756.1798978800269" cy="608.6823809187993" r="2.5" fill="grey" stroke="none" />
<circle cx="764.0" cy="588.0" r="5" fill="black" stroke="none" />
<circle cx="764.0" cy="612.0" r="5" fill="black" stroke="none" />
<path d="M764.0,612.0 A286.77517326295873,286.77517326295873,0,0,1,693.7810474211104,711.397506277575" stroke="grey" stroke-width="5" fill="none" />
<path d="M693.7810474211104,711.397506277575 L264.0,288.0" stroke="grey" stroke-width="5" />
<circle cx="693.7810474211104" cy="711.397506277575" r="2.5" fill="grey" stroke="none" />
<circle cx="764.0" cy="612.0" r="5" fill="black" stroke="none" />
<circle cx="764.0" cy="788.0" r="5" fill="black" stroke="none" />
<path d="M764.0,788.0 A390.69169430639295,390.69169430639295,0,0,0,805.0789581923134,744.0631665538508" stroke="grey" stroke-width="5" fill="none" />
<path d="M805.0789581923134,744.0631665538508 L360.0,288.0" stroke="grey" stroke-width="5" />
<circle cx="805.0789581923134" cy="744.0631665538508" r="2.5" fill="grey" stroke="none" />
<circle cx="764.0" cy="788.0" r="5" fill="black" stroke="none" />
<circle cx="860.0" cy="788.0" r="5" fill="black" stroke="none" />
<path d="M764.0,788.0 A390.69169430639295,390.69169430639295,0,0,1,741.3777489032806,807.2080440587206" stroke="grey" stroke-width="5" fill="none" />
<path d="M741.3777489032806,807.2080440587206 L264.0,336.0" stroke="grey" stroke-width="5" />
<circle cx="741.3777489032806" cy="807.2080440587206" r="2.5" fill="grey" stroke="none" />
<circle cx="764.0" cy="788.0" r="5" fill="black" stroke="none" />
<circle cx="764.0" cy="836.0" r="5" fill="black" stroke="none" />
<path d="M452.0,412.0 A100.23971268913334,100.23971268913334,0,0,1,585.5327258481292,447.7300008705877" stroke="grey" stroke-width="5" fill="none" />
<path d="M585.5327258481292,447.7300008705877 L144.0,-88.0" stroke="grey" stroke-width="5" />
<circle cx="585.5327258481292" cy="447.7300008705877" r="2.5" fill="grey" stroke="none" />
<circle cx="452.0" cy="412.0" r="5" fill="black" stroke="none" />
<circle cx="644.0" cy="412.0" r="5" fill="black" stroke="none" />
<path d="M644.0,412.0 L631.8368757129538,419.4330203976394" stroke="grey" stroke-width="5" />
<circle cx="631.8368757129538" cy="419.4330203976394" r="2.5" fill="grey" stroke="none" />
<path d="M631.8368757129538,419.4330203976394 A154.50566332662373,154.50566332662373,0,0,1,644.0,556.0" stroke="grey" stroke-width="5" fill="none" />
<circle cx="644.0" cy="412.0" r="5" fill="black" stroke="none" />
<circle cx="644.0" cy="556.0" r="5" fill="black" stroke="none" />
<path d="M644.0,412.0 A168.7601848778319,168.7601848778319,0,0,0,609.8276725013275,371.867715415118" stroke="grey" stroke-width="5" fill="none" />
<path d="M609.8276725013274,371.867715415118 L144.0,-168.0" stroke="grey" stroke-width="5" />
<circle cx="609.8276725013274" cy="371.867715415118" r="2.5" fill="grey" stroke="none" />
<circle cx="644.0" cy="412.0" r="5" fill="black" stroke="none" />
<circle cx="644.0" cy="332.0" r="5" fill="black" stroke="none" />
<path d="M644.0,332.0 A221.2690669750293,221.2690669750293,0,0,0,619.652927689602,313.8732235939524" stroke="grey" stroke-width="5" fill="none" />
<path d="M619.652927689602,313.8732235939524 L144.0,-224.0" stroke="grey" stroke-width="5" />
<circle cx="619.652927689602" cy="313.8732235939524" r="2.5" fill="grey" stroke="none" />
<circle cx="644.0" cy="332.0" r="5" fill="black" stroke="none" />
<circle cx="644.0" cy="276.0" r="5" fill="black" stroke="none" />
<path d="M644.0,332.0 A221.2690669750293,221.2690669750293,0,0,1,711.9373284550425,436.4188014634873" stroke="grey" stroke-width="5" fill="none" />
<path d="M711.9373284550425,436.4188014634873 L240.0,-72.0" stroke="grey" stroke-width="5" />
<circle cx="711.9373284550425" cy="436.4188014634873" r="2.5" fill="grey" stroke="none" />
<circle cx="644.0" cy="332.0" r="5" fill="black" stroke="none" />
<circle cx="740.0" cy="428.0" r="5" fill="black" stroke="none" />
<path d="M644.0,412.0 A168.7601848778319,168.7601848778319,0,0,1,661.6429409747684,451.5071177075695" stroke="grey" stroke-width="5" fill="none" />
<path d="M661.6429409747684,451.5071177075695 L240.0,-72.0" stroke="grey" stroke-width="5" />
<circle cx="661.6429409747684" cy="451.5071177075695" r="2.5" fill="grey" stroke="none" />
<circle cx="644.0" cy="412.0" r="5" fill="black" stroke="none" />
<circle cx="740.0" cy="428.0" r="5" fill="black" stroke="none" />
<path d="M740.0,428.0 A250.5673562138532,250.5673562138532,0,0,1,750.5673562138531,500.0" stroke="grey" stroke-width="5" fill="none" />
<path d="M750.5673562138531,500.0 L288.0,0.0" stroke="grey" stroke-width="5" />
<circle cx="750.5673562138531" cy="500.0" r="2.5" fill="grey" stroke="none" />
<circle cx="740.0" cy="428.0" r="5" fill="black" stroke="none" />
<circle cx="788.0" cy="500.0" r="5" fill="black" stroke="none" />
<path d="M740.0,612.0 A264.8471257159496,264.8471257159496,0,0,0,743.8134389161289,603.4360043886608" stroke="grey" stroke-width="5" fill="none" />
<path d="M743.8134389161289,603.4360043886608 L264.0,112.0" stroke="grey" stroke-width="5" />
<circle cx="743.8134389161289" cy="603.4360043886608" r="2.5" fill="grey" stroke="none" />
<circle cx="740.0" cy="612.0" r="5" fill="black" stroke="none" />
<circle cx="764.0" cy="612.0" r="5" fill="black" stroke="none" />
<path d="M764.0,612.0 A286.77517326295873,286.77517326295873,0,0,0,767.2758011631421,603.9405893412219" stroke="grey" stroke-width="5" fill="none" />
<path d="M767.2758011631421,603.9405893412219 L288.0,112.0" stroke="grey" stroke-width="5" />
<circle cx="767.2758011631421" cy="603.9405893412219" r="2.5" fill="grey" stroke="none" />
<circle cx="764.0" cy="612.0" r="5" fill="black" stroke="none" />
<circle cx="788.0" cy="612.0" r="5" fill="black" stroke="none" />
<path d="M788.0,612.0 L773.4445162830198,606.3395341100633" stroke="grey" stroke-width="5" />
<circle cx="773.4445162830198" cy="606.3395341100633" r="2.5" fill="grey" stroke="none" />
<path d="M773.4445162830198,606.3395341100633 A293.393933134276,293.393933134276,0,0,0,788.0,556.0" stroke="grey" stroke-width="5" fill="none" />
<circle cx="788.0" cy="612.0" r="5" fill="black" stroke="none" />
<circle cx="788.0" cy="556.0" r="5" fill="black" stroke="none" />
<path d="M788.0,556.0 L785.418917320335,555.4981228122874" stroke="grey" stroke-width="5" />
<circle cx="785.418917320335" cy="555.4981228122874" r="2.5" fill="grey" stroke="none" />
<path d="M785.418917320335,555.4981228122874 A290.76450952617995,290.76450952617995,0,0,0,788.0,540.0" stroke="grey" stroke-width="5" fill="none" />
<circle cx="788.0" cy="556.0" r="5" fill="black" stroke="none" />
<circle cx="788.0" cy="540.0" r="5" fill="black" stroke="none" />
<path d="M788.0,540.0 L786.2505532887889,539.7570212901096" stroke="grey" stroke-width="5" />
<circle cx="786.2505532887889" cy="539.7570212901096" r="2.5" fill="grey" stroke="none" />
<path d="M786.2505532887889,539.7570212901096 A288.99826989101507,288.99826989101507,0,0,0,788.0,524.0" stroke="grey" stroke-width="5" fill="none" />
<circle cx="788.0" cy="540.0" r="5" fill="black" stroke="none" />
<circle cx="788.0" cy="524.0" r="5" fill="black" stroke="none" />
<path d="M788.0,524.0 L787.0051783745254,523.9170981978771" stroke="grey" stroke-width="5" />
<circle cx="787.0051783745254" cy="523.9170981978771" r="2.5" fill="grey" stroke="none" />
<path d="M787.0051783745254,523.9170981978771 A288.0,288.0,0,0,0,788.0,500.0" stroke="grey" stroke-width="5" fill="none" />
<circle cx="788.0" cy="524.0" r="5" fill="black" stroke="none" />
<circle cx="788.0" cy="500.0" r="5" fill="black" stroke="none" />
<path d="M788.0,500.0 A288.0,288.0,0,0,1,788.0,500.0" stroke="grey" stroke-width="5" fill="none" />
<path d="M788.0,500.0 L336.0,0.0" stroke="grey" stroke-width="5" />
<circle cx="788.0" cy="500.0" r="2.5" fill="grey" stroke="none" />
<circle cx="788.0" cy="500.0" r="5" fill="black" stroke="none" />
<circle cx="836.0" cy="500.0" r="5" fill="black" stroke="none" />
<path d="M836.0,500.0 A336.0,336.0,0,0,1,833.6440601295012,539.7195309677977" stroke="grey" stroke-width="5" fill="none" />
<path d="M833.6440601295012,539.7195309677977 L336.0,40.0" stroke="grey" stroke-width="5" />
<circle cx="833.6440601295012" cy="539.7195309677977" r="2.5" fill="grey" stroke="none" />
<circle cx="836.0" cy="500.0" r="5" fill="black" stroke="none" />
<circle cx="836.0" cy="540.0" r="5" fill="black" stroke="none" />
<path d="M836.0,540.0 L788.7257485115408,534.3721129180406" stroke="grey" stroke-width="5" />
<circle cx="788.7257485115408" cy="534.3721129180406" r="2.5" fill="grey" stroke="none" />
<path d="M788.7257485115408,534.3721129180406 A290.76450952617995,290.76450952617995,0,0,1,788.0,540.0" stroke="grey" stroke-width="5" fill="none" />
<circle cx="836.0" cy="540.0" r="5" fill="black" stroke="none" />
<circle cx="788.0" cy="540.0" r="5" fill="black" stroke="none" />
<path d="M788.0,524.0 A288.99826989101507,288.99826989101507,0,0,0,788.3856241827843,518.8077580988772" stroke="grey" stroke-width="5" fill="none" />
<path d="M788.3856241827843,518.8077580988772 L368.0,24.0" stroke="grey" stroke-width="5" />
<circle cx="788.3856241827843" cy="518.8077580988772" r="2.5" fill="grey" stroke="none" />
<circle cx="788.0" cy="524.0" r="5" fill="black" stroke="none" />
<circle cx="868.0" cy="524.0" r="5" fill="black" stroke="none" />
<circle cx="500" cy="500" r="5" fill="red" stroke="none" />
</svg>