<?xml version="1.0" encoding="UTF-8"?>
<svg xmlns="http://www.w3.org/2000/svg" xmlns:xlink="http://www.w3.org/1999/xlink"
     width="1000" height="1000" viewBox="0 0 1000 1000">
<defs>
</defs>
<rect x="0" y="0" width="1000" height="1000" fill="white" />
<path d="M250.0,260.0 L291.87506954291,300.2000667611937" stroke="grey" stroke-width="5" />
<circle cx="291.87506954291" cy="300.2000667611937" r="2.5" fill="grey" stroke="none" />
<path d="M291.87506954291,300.2000667611937 A288.5064990602465,288.5064990602465,0,0,0,250.00000000000006,355.9999999999999" stroke="grey" stroke-width="5" fill="none" />
<circle cx="250.0" cy="260.0" r="5" fill="black" stroke="none" />
<circle cx="250.0" cy="356.0" r="5" fill="black" stroke="none" />
<path d="M250.0,356.0 L321.6965137424645,397.2971919156596" stroke="grey" stroke-width="5" />
<circle cx="321.6965137424645" cy="397.2971919156596" r="2.5" fill="grey" stroke="none" />
<path d="M321.69651374246456,397.2971919156595 A205.7668583615933,205.7668583615933,0,0,0,314.0,412.00000000000006" stroke="grey" stroke-width="5" fill="none" />
<circle cx="250.0" cy="356.0" r="5" fill="black" stroke="none" />
<circle cx="314.0" cy="412.0" r="5" fill="black" stroke="none" />
<path d="M226.0,412.0 L304.08920066935224,437.07974328066786" stroke="grey" stroke-width="5" />
<circle cx="304.08920066935224" cy="437.07974328066786" r="2.5" fill="grey" stroke="none" />
<path d="M304.08920066935224,437.07974328066786 A205.7668583615933,205.7668583615933,0,0,1,314.0,412.00000000000006" stroke="grey" stroke-width="5" fill="none" />
<circle cx="226.0" cy="412.0" r="5" fill="black" stroke="none" />
<circle cx="314.0" cy="412.0" r="5" fill="black" stroke="none" />
<path d="M314.0,412.0 L385.18949583836894,445.68105179449714" stroke="grey" stroke-width="5" />
<circle cx="385.18949583836894" cy="445.68105179449714" r="2.5" fill="grey" stroke="none" />
<path d="M385.18949583836894,445.6810517944972 A127.01181047445942,127.01181047445942,0,0,1,386.0,444.0" stroke="grey" stroke-width="5" fill="none" />
<circle cx="314.0" cy="412.0" r="5" fill="black" stroke="none" />
<circle cx="386.0" cy="444.0" r="5" fill="black" stroke="none" />
<path d="M386.0,444.0 L404.9948178948713,453.33078773783154" stroke="grey" stroke-width="5" />
<circle cx="404.9948178948713" cy="453.33078773783154" r="2.5" fill="grey" stroke="none" />
<path d="M404.9948178948713,453.33078773783154 A105.84894897919393,105.84894897919393,0,0,0,402.0,460.0" stroke="grey" stroke-width="5" fill="none" />
<circle cx="386.0" cy="444.0" r="5" fill="black" stroke="none" />
<circle cx="402.0" cy="460.0" r="5" fill="black" stroke="none" />
<path d="M402.0,460.0 L438.44679652313044,474.87624347882877" stroke="grey" stroke-width="5" />
<circle cx="438.44679652313044" cy="474.87624347882877" r="2.5" fill="grey" stroke="none" />
<path d="M438.44679652313044,474.87624347882877 A66.48308055437865,66.48308055437865,0,0,0,434.0,492.0" stroke="grey" stroke-width="5" fill="none" />
<circle cx="402.0" cy="460.0" r="5" fill="black" stroke="none" />
<circle cx="434.0" cy="492.0" r="5" fill="black" stroke="none" />
<path d="M402.0,460.0 A105.84894897919393,105.84894897919393,0,0,0,403.0562126461893,542.4959067852321" stroke="grey" stroke-width="5" fill="none" />
<path d="M403.0562126461893,542.4959067852321 L354.0,564.0" stroke="grey" stroke-width="5" />
<circle cx="403.0562126461893" cy="542.4959067852321" r="2.5" fill="grey" stroke="none" />
<circle cx="402.0" cy="460.0" r="5" fill="black" stroke="none" />
<circle cx="354.0" cy="564.0" r="5" fill="black" stroke="none" />
<path d="M354.0,564.0 A159.4114174079134,159.4114174079134,0,0,0,386.50441930520327,611.9408467126763" stroke="grey" stroke-width="5" fill="none" />
<path d="M386.50441930520327,611.9408467126763 L354.0,644.0" stroke="grey" stroke-width="5" />
<circle cx="386.50441930520327" cy="611.9408467126763" r="2.5" fill="grey" stroke="none" />
<circle cx="354.0" cy="564.0" r="5" fill="black" stroke="none" />
<circle cx="354.0" cy="644.0" r="5" fill="black" stroke="none" />
<path d="M250.0,660.0 L327.2789051172957,610.5415007249308" stroke="grey" stroke-width="5" />
<circle cx="327.2789051172957" cy="610.5415007249308" r="2.5" fill="grey" stroke="none" />
<path d="M327.2789051172957,610.5415007249308 A205.06584308460538,205.06584308460538,0,0,0,354.0,644.0" stroke="grey" stroke-width="5" fill="none" />
<circle cx="250.0" cy="660.0" r="5" fill="black" stroke="none" />
<circle cx="354.0" cy="644.0" r="5" fill="black" stroke="none" />
<path d="M354.0,644.0 A205.06584308460538,205.06584308460538,0,0,0,400.7576922696203,679.4518441152071" stroke="grey" stroke-width="5" fill="none" />
<path d="M400.7576922696203,679.4518441152071 L354.0,764.0" stroke="grey" stroke-width="5" />
<circle cx="400.7576922696203" cy="679.4518441152071" r="2.5" fill="grey" stroke="none" />
<circle cx="354.0" cy="644.0" r="5" fill="black" stroke="none" />
<circle cx="354.0" cy="764.0" r="5" fill="black" stroke="none" />
<path d="M354.0,564.0 L415.79978961468555,536.9096812647954" stroke="grey" stroke-width="5" />
<circle cx="415.79978961468555" cy="536.9096812647954" r="2.5" fill="grey" stroke="none" />
<path d="M415.79978961468555,536.9096812647954 A91.93475947648963,91.93475947648963,0,0,0,434.0,564.0" stroke="grey" stroke-width="5" fill="none" />
<circle cx="354.0" cy="564.0" r="5" fill="black" stroke="none" />
<circle cx="434.0" cy="564.0" r="5" fill="black" stroke="none" />
<path d="M434.0,492.0 A66.48308055437865,66.48308055437865,0,0,0,452.2717703121734,546.2819196972864" stroke="grey" stroke-width="5" fill="none" />
<path d="M452.2717703121734,546.2819196972864 L434.0,564.0" stroke="grey" stroke-width="5" />
<circle cx="452.2717703121734" cy="546.2819196972864" r="2.5" fill="grey" stroke="none" />
<circle cx="434.0" cy="492.0" r="5" fill="black" stroke="none" />
<circle cx="434.0" cy="564.0" r="5" fill="black" stroke="none" />
<path d="M434.0,564.0 L453.85290704326235,544.7486962004729" stroke="grey" stroke-width="5" />
<circle cx="453.85290704326235" cy="544.7486962004729" r="2.5" fill="grey" stroke="none" />
<path d="M453.85290704326235,544.7486962004729 A64.28063471995279,64.28063471995279,0,0,0,506.0,564.0" stroke="grey" stroke-width="5" fill="none" />
<circle cx="434.0" cy="564.0" r="5" fill="black" stroke="none" />
<circle cx="506.0" cy="564.0" r="5" fill="black" stroke="none" />
<path d="M434.0,492.0 L472.9947214812862,496.7266329068226" stroke="grey" stroke-width="5" />
<circle cx="472.9947214812862" cy="496.7266329068226" r="2.5" fill="grey" stroke="none" />
<path d="M472.9947214812862,496.7266329068226 A27.202941017470888,27.202941017470888,0,0,1,474.0,492.0" stroke="grey" stroke-width="5" fill="none" />
<circle cx="434.0" cy="492.0" r="5" fill="black" stroke="none" />
<circle cx="474.0" cy="492.0" r="5" fill="black" stroke="none" />
<path d="M506.0,564.0 A64.28063471995279,64.28063471995279,0,0,0,562.282645430344,515.9019520247687" stroke="grey" stroke-width="5" fill="none" />
<path d="M562.282645430344,515.9019520247687 L594.0,524.0" stroke="grey" stroke-width="5" />
<circle cx="562.282645430344" cy="515.9019520247687" r="2.5" fill="grey" stroke="none" />
<circle cx="506.0" cy="564.0" r="5" fill="black" stroke="none" />
<circle cx="594.0" cy="524.0" r="5" fill="black" stroke="none" />
<path d="M474.0,492.0 A27.202941017470888,27.202941017470888,0,0,1,527.1406381792656,498.15995673360914" stroke="grey" stroke-width="5" fill="none" />
<path d="M527.1406381792656,498.15995673360914 L618.0,492.0" stroke="grey" stroke-width="5" />
<circle cx="527.1406381792656" cy="498.15995673360914" r="2.5" fill="grey" stroke="none" />
<circle cx="474.0" cy="492.0" r="5" fill="black" stroke="none" />
<circle cx="618.0" cy="492.0" r="5" fill="black" stroke="none" />
<path d="M594.0,524.0 A97.01546268507923,97.01546268507923,0,0,0,596.7932683763389,493.4377445168584" stroke="grey" stroke-width="5" fill="none" />
<path d="M596.7932683763389,493.4377445168584 L618.0,492.0" stroke="grey" stroke-width="5" />
<circle cx="596.7932683763389" cy="493.4377445168584" r="2.5" fill="grey" stroke="none" />
<circle cx="594.0" cy="524.0" r="5" fill="black" stroke="none" />
<circle cx="618.0" cy="492.0" r="5" fill="black" stroke="none" />
<path d="M354.0,644.0 L395.81909031709756,602.7537739338217" stroke="grey" stroke-width="5" />
<circle cx="395.81909031709756" cy="602.7537739338217" r="2.5" fill="grey" stroke="none" />
<path d="M395.81909031709756,602.7537739338217 A146.32839779072276,146.32839779072276,0,0,0,474.0,644.0" stroke="grey" stroke-width="5" fill="none" />
<circle cx="354.0" cy="644.0" r="5" fill="black" stroke="none" />
<circle cx="474.0" cy="644.0" r="5" fill="black" stroke="none" />
<path d="M474.0,644.0 L484.9189499003187,583.5258159366965" stroke="grey" stroke-width="5" />
<circle cx="484.9189499003187" cy="583.5258159366965" r="2.5" fill="grey" stroke="none" />
<path d="M484.9189499003187,583.5258159366965 A84.87638069569178,84.87638069569178,0,0,0,570.0,548.0" stroke="grey" stroke-width="5" fill="none" />
<circle cx="474.0" cy="644.0" r="5" fill="black" stroke="none" />
<circle cx="570.0" cy="548.0" r="5" fill="black" stroke="none" />
<path d="M570.0,548.0 A84.87638069569178,84.87638069569178,0,0,0,582.2382284697601,520.9969945029175" stroke="grey" stroke-width="5" fill="none" />
<path d="M582.2382284697601,520.9969945029175 L594.0,524.0" stroke="grey" stroke-width="5" />
<circle cx="582.2382284697601" cy="520.9969945029175" r="2.5" fill="grey" stroke="none" />
<circle cx="570.0" cy="548.0" r="5" fill="black" stroke="none" />
<circle cx="594.0" cy="524.0" r="5" fill="black" stroke="none" />
<path d="M594.0,524.0 A97.01546268507923,97.01546268507923,0,0,1,586.4024818447986,544.1204162611738" stroke="grey" stroke-width="5" fill="none" />
<path d="M586.4024818447986,544.1204162611738 L594.0,548.0" stroke="grey" stroke-width="5" />
<circle cx="586.4024818447986" cy="544.1204162611738" r="2.5" fill="grey" stroke="none" />
<circle cx="594.0" cy="524.0" r="5" fill="black" stroke="none" />
<circle cx="594.0" cy="548.0" r="5" fill="black" stroke="none" />
<path d="M594.0,548.0 A105.54619841567009,105.54619841567009,0,0,1,540.8413681504783,597.3241113373099" stroke="grey" stroke-width="5" fill="none" />
<path d="M540.8413681504783,597.3241113373099 L594.0,724.0" stroke="grey" stroke-width="5" />
<circle cx="540.8413681504783" cy="597.3241113373099" r="2.5" fill="grey" stroke="none" />
<circle cx="594.0" cy="548.0" r="5" fill="black" stroke="none" />
<circle cx="594.0" cy="724.0" r="5" fill="black" stroke="none" />
<path d="M594.0000000000001,724.0 A242.92385638302386,242.92385638302386,0,0,0,657.137111959972,685.2563846264933" stroke="grey" stroke-width="5" fill="none" />
<path d="M657.137111959972,685.2563846264933 L690.0,724.0" stroke="grey" stroke-width="5" />
<circle cx="657.137111959972" cy="685.2563846264933" r="2.5" fill="grey" stroke="none" />
<circle cx="594.0" cy="724.0" r="5" fill="black" stroke="none" />
<circle cx="690.0" cy="724.0" r="5" fill="black" stroke="none" />
<path d="M594.0000000000001,724.0 A242.92385638302386,242.92385638302386,0,0,1,579.3469810094571,729.5997748358758" stroke="grey" stroke-width="5" fill="none" />
<path d="M579.3469810094571,729.5997748358758 L594.0,772.0" stroke="grey" stroke-width="5" />
<circle cx="579.3469810094571" cy="729.5997748358758" r="2.5" fill="grey" stroke="none" />
<circle cx="594.0" cy="724.0" r="5" fill="black" stroke="none" />
<circle cx="594.0" cy="772.0" r="5" fill="black" stroke="none" />
<path d="M282.0,348.0 L373.5048237284095,411.8015284711846" stroke="grey" stroke-width="5" />
<circle cx="373.5048237284095" cy="411.8015284711846" r="2.5" fill="grey" stroke="none" />
<path d="M373.5048237284095,411.8015284711846 A154.20765220960988,154.20765220960988,0,0,1,474.00000000000006,348.0" stroke="grey" stroke-width="5" fill="none" />
<circle cx="282.0" cy="348.0" r="5" fill="black" stroke="none" />
<circle cx="474.0" cy="348.0" r="5" fill="black" stroke="none" />
<path d="M474.0,348.0 L495.41348009440634,473.1864990134523" stroke="grey" stroke-width="5" />
<circle cx="495.41348009440634" cy="473.1864990134523" r="2.5" fill="grey" stroke="none" />
<path d="M495.41348009440634,473.1864990134523 A27.202941017470888,27.202941017470888,0,0,0,474.0,492.0" stroke="grey" stroke-width="5" fill="none" />
<circle cx="474.0" cy="348.0" r="5" fill="black" stroke="none" />
<circle cx="474.0" cy="492.0" r="5" fill="black" stroke="none" />
<path d="M474.00000000000006,348.0 A154.20765220960988,154.20765220960988,0,0,1,482.82562181460287,346.7517023456869" stroke="grey" stroke-width="5" fill="none" />
<path d="M482.82562181460287,346.7517023456869 L474.0,268.0" stroke="grey" stroke-width="5" />
<circle cx="482.82562181460287" cy="346.7517023456869" r="2.5" fill="grey" stroke="none" />
<circle cx="474.0" cy="348.0" r="5" fill="black" stroke="none" />
<circle cx="474.0" cy="268.0" r="5" fill="black" stroke="none" />
<path d="M474.0,268.0 A233.45235059857504,233.45235059857504,0,0,1,479.00980285974885,267.49320090798767" stroke="grey" stroke-width="5" fill="none" />
<path d="M479.00980285974885,267.49320090798767 L474.0,212.0" stroke="grey" stroke-width="5" />
<circle cx="479.00980285974885" cy="267.49320090798767" r="2.5" fill="grey" stroke="none" />
<circle cx="474.0" cy="268.0" r="5" fill="black" stroke="none" />
<circle cx="474.0" cy="212.0" r="5" fill="black" stroke="none" />
<path d="M474.0,268.0 L482.9648523082207,347.99406675027694" stroke="grey" stroke-width="5" />
<circle cx="482.9648523082207" cy="347.99406675027694" r="2.5" fill="grey" stroke="none" />
<path d="M482.9648523082207,347.99406675027694 A152.95751043999115,152.95751043999115,0,0,1,570.0,364.0" stroke="grey" stroke-width="5" fill="none" />
<circle cx="474.0" cy="268.0" r="5" fill="black" stroke="none" />
<circle cx="570.0" cy="364.0" r="5" fill="black" stroke="none" />
<path d="M474.0,348.0 L474.21077868409475,349.23224461470795" stroke="grey" stroke-width="5" />
<circle cx="474.21077868409475" cy="349.23224461470795" r="2.5" fill="grey" stroke="none" />
<path d="M474.2107786840948,349.23224461470795 A152.95751043999115,152.95751043999115,0,0,1,570.0,364.0" stroke="grey" stroke-width="5" fill="none" />
<circle cx="474.0" cy="348.0" r="5" fill="black" stroke="none" />
<circle cx="570.0" cy="364.0" r="5" fill="black" stroke="none" />
<path d="M570.0,364.0 L561.4334106374885,380.6436593328795" stroke="grey" stroke-width="5" />
<circle cx="561.4334106374885" cy="380.6436593328795" r="2.5" fill="grey" stroke="none" />
<path d="M561.4334106374885,380.6436593328795 A134.23859355639868,134.23859355639868,0,0,1,618.0,436.0" stroke="grey" stroke-width="5" fill="none" />
<circle cx="570.0" cy="364.0" r="5" fill="black" stroke="none" />
<circle cx="618.0" cy="436.0" r="5" fill="black" stroke="none" />
<path d="M570.0,548.0 A84.87638069569178,84.87638069569178,0,0,0,575.5913515139026,538.599839070929" stroke="grey" stroke-width="5" fill="none" />
<path d="M575.5913515139026,538.599839070929 L594.0,548.0" stroke="grey" stroke-width="5" />
<circle cx="575.5913515139026" cy="538.599839070929" r="2.5" fill="grey" stroke="none" />
<circle cx="570.0" cy="548.0" r="5" fill="black" stroke="none" />
<circle cx="594.0" cy="548.0" r="5" fill="black" stroke="none" />
<path d="M594.0,548.0 A105.54619841567009,105.54619841567009,0,0,0,597.7669581806929,539.7696101074005" stroke="grey" stroke-width="5" fill="none" />
<path d="M597.7669581806929,539.7696101074005 L618.0,548.0" stroke="grey" stroke-width="5" />
<circle cx="597.7669581806929" cy="539.7696101074005" r="2.5" fill="grey" stroke="none" />
<circle cx="594.0" cy="548.0" r="5" fill="black" stroke="none" />
<circle cx="618.0" cy="548.0" r="5" fill="black" stroke="none" />
<path d="M618.0,548.0 L609.553768075685,544.5642446409566" stroke="grey" stroke-width="5" />
<circle cx="609.553768075685" cy="544.5642446409566" r="2.5" fill="grey" stroke="none" />
<path d="M609.553768075685,544.5642446409566 A118.27087553578015,118.27087553578015,0,0,0,618.0,492.0" stroke="grey" stroke-width="5" fill="none" />
<circle cx="618.0" cy="548.0" r="5" fill="black" stroke="none" />
<circle cx="618.0" cy="492.0" r="5" fill="black" stroke="none" />
<path d="M618.0,492.0 A118.27087553578015,118.27087553578015,0,0,0,615.8979670167716,476.427532132182" stroke="grey" stroke-width="5" fill="none" />
<path d="M615.8979670167716,476.427532132182 L618.0,476.0" stroke="grey" stroke-width="5" />
<circle cx="615.8979670167716" cy="476.427532132182" r="2.5" fill="grey" stroke="none" />
<circle cx="618.0" cy="492.0" r="5" fill="black" stroke="none" />
<circle cx="618.0" cy="476.0" r="5" fill="black" stroke="none" />
<path d="M618.0,476.0 A120.41594578792295,120.41594578792295,0,0,0,614.0418335933243,461.3417513242968" stroke="grey" stroke-width="5" fill="none" />
<path d="M614.0418335933243,461.3417513242968 L618.0,460.0" stroke="grey" stroke-width="5" />
<circle cx="614.0418335933243" cy="461.3417513242968" r="2.5" fill="grey" stroke="none" />
<circle cx="618.0" cy="476.0" r="5" fill="black" stroke="none" />
<circle cx="618.0" cy="460.0" r="5" fill="black" stroke="none" />
<path d="M618.0,460.0 A124.59534501738017,124.59534501738017,0,0,0,609.5232773418018,440.5975444925821" stroke="grey" stroke-width="5" fill="none" />
<path d="M609.5232773418018,440.5975444925821 L618.0,436.0" stroke="grey" stroke-width="5" />
<circle cx="609.5232773418018" cy="440.5975444925821" r="2.5" fill="grey" stroke="none" />
<circle cx="618.0" cy="460.0" r="5" fill="black" stroke="none" />
<circle cx="618.0" cy="436.0" r="5" fill="black" stroke="none" />
<path d="M618.0,436.0 A134.23859355639868,134.23859355639868,0,0,1,625.2520673444874,451.71004632501695" stroke="grey" stroke-width="5" fill="none" />
<path d="M625.2520673444874,451.71004632501695 L666.0,436.0" stroke="grey" stroke-width="5" />
<circle cx="625.2520673444874" cy="451.71004632501695" r="2.5" fill="grey" stroke="none" />
<circle cx="618.0" cy="436.0" r="5" fill="black" stroke="none" />
<circle cx="666.0" cy="436.0" r="5" fill="black" stroke="none" />
<path d="M666.0,436.0 L656.4976476232591,439.66355754283984" stroke="grey" stroke-width="5" />
<circle cx="656.4976476232591" cy="439.66355754283984" r="2.5" fill="grey" stroke="none" />
<path d="M656.4976476232591,439.66355754283984 A167.72596698186004,167.72596698186004,0,0,1,666.0,476.0" stroke="grey" stroke-width="5" fill="none" />
<circle cx="666.0" cy="436.0" r="5" fill="black" stroke="none" />
<circle cx="666.0" cy="476.0" r="5" fill="black" stroke="none" />
<path d="M666.0,476.0 L619.176817761063,482.7696167092439" stroke="grey" stroke-width="5" />
<circle cx="619.176817761063" cy="482.7696167092439" r="2.5" fill="grey" stroke="none" />
<path d="M619.176817761063,482.7696167092439 A120.41594578792295,120.41594578792295,0,0,0,618.0,476.0" stroke="grey" stroke-width="5" fill="none" />
<circle cx="666.0" cy="476.0" r="5" fill="black" stroke="none" />
<circle cx="618.0" cy="476.0" r="5" fill="black" stroke="none" />
<path d="M618.0,460.0 A124.59534501738017,124.59534501738017,0,0,1,622.1281104625806,475.3276544520039" stroke="grey" stroke-width="5" fill="none" />
<path d="M622.1281104625806,475.3276544520039 L698.0,460.0" stroke="grey" stroke-width="5" />
<circle cx="622.1281104625806" cy="475.3276544520039" r="2.5" fill="grey" stroke="none" />
<circle cx="618.0" cy="460.0" r="5" fill="black" stroke="none" />
<circle cx="698.0" cy="460.0" r="5" fill="black" stroke="none" />
<circle cx="500" cy="500" r="5" fill="red" stroke="none" />
</svg>