<?xml version="1.0" encoding="UTF-8"?>
<svg xmlns="http://www.w3.org/2000/svg" xmlns:xlink="http://www.w3.org/1999/xlink"
     width="1000" height="1000" viewBox="0 0 1000 1000">
<defs>
</defs>
<rect x="0" y="0" width="1000" height="1000" fill="white" />
<path d="M415.22035200000005,299.54970624000003 L447.5967495639188,376.0994272600504" stroke="grey" stroke-width="5" />
<circle cx="447.5967495639188" cy="376.0994272600504" r="2.5" fill="grey" stroke="none" />
<path d="M447.5967495639188,376.0994272600504 A134.5267727315057,134.5267727315057,0,0,0,415.22035200000005,395.54970624000003" stroke="grey" stroke-width="5" fill="none" />
<circle cx="415.22035200000005" cy="299.54970624000003" r="5" fill="black" stroke="none" />
<circle cx="415.22035200000005" cy="395.54970624000003" r="5" fill="black" stroke="none" />
<path d="M415.22035200000005,395.54970624000003 L466.7765507606847,459.0680179190302" stroke="grey" stroke-width="5" />
<circle cx="466.7765507606847" cy="459.0680179190302" r="2.5" fill="grey" stroke="none" />
<path d="M466.7765507606847,459.0680179190302 A52.71835293741824,52.71835293741824,0,0,1,479.22035200000005,451.54970624000003" stroke="grey" stroke-width="5" fill="none" />
<circle cx="415.22035200000005" cy="395.54970624000003" r="5" fill="black" stroke="none" />
<circle cx="479.22035200000005" cy="451.54970624000003" r="5" fill="black" stroke="none" />
<path d="M391.22035200000005,451.54970624000003 L451.84242757303764,478.5506887202393" stroke="grey" stroke-width="5" />
<circle cx="451.84242757303764" cy="478.5506887202393" r="2.5" fill="grey" stroke="none" />
<path d="M451.84242757303764,478.5506887202393 A52.71835293741824,52.71835293741824,0,0,1,479.22035200000005,451.54970624000003" stroke="grey" stroke-width="5" fill="none" />
<circle cx="391.22035200000005" cy="451.54970624000003" r="5" fill="black" stroke="none" />
<circle cx="479.22035200000005" cy="451.54970624000003" r="5" fill="black" stroke="none" />
<path d="M479.22035200000005,451.54970624000003 A52.71835293741824,52.71835293741824,0,0,1,550.1931991973632,483.8795939639224" stroke="grey" stroke-width="5" fill="none" />
<path d="M550.1931991973632,483.8795939639224 L551.220352,483.54970624000003" stroke="grey" stroke-width="5" />
<circle cx="550.1931991973632" cy="483.8795939639224" r="2.5" fill="grey" stroke="none" />
<circle cx="479.22035200000005" cy="451.54970624000003" r="5" fill="black" stroke="none" />
<circle cx="551.220352" cy="483.54970624000003" r="5" fill="black" stroke="none" />
<path d="M551.220352,483.54970624000003 A53.79718044464971,53.79718044464971,0,0,1,553.795973450415,499.639633080799" stroke="grey" stroke-width="5" fill="none" />
<path d="M553.795973450415,499.639633080799 L567.220352,499.54970624000003" stroke="grey" stroke-width="5" />
<circle cx="553.795973450415" cy="499.639633080799" r="2.5" fill="grey" stroke="none" />
<circle cx="551.220352" cy="483.54970624000003" r="5" fill="black" stroke="none" />
<circle cx="567.220352" cy="499.54970624000003" r="5" fill="black" stroke="none" />
<path d="M567.220352,499.54970624000003 A67.22186019052288,67.22186019052288,0,0,1,564.0612490710666,520.3699498018273" stroke="grey" stroke-width="5" fill="none" />
<path d="M564.0612490710666,520.3699498018273 L599.220352,531.54970624" stroke="grey" stroke-width="5" />
<circle cx="564.0612490710666" cy="520.3699498018273" r="2.5" fill="grey" stroke="none" />
<circle cx="567.220352" cy="499.54970624000003" r="5" fill="black" stroke="none" />
<circle cx="599.220352" cy="531.54970624" r="5" fill="black" stroke="none" />
<path d="M567.220352,499.54970624000003 A67.22186019052288,67.22186019052288,0,0,1,512.2678270741635,566.0929565562975" stroke="grey" stroke-width="5" fill="none" />
<path d="M512.2678270741635,566.0929565562975 L519.220352,603.54970624" stroke="grey" stroke-width="5" />
<circle cx="512.2678270741635" cy="566.0929565562975" r="2.5" fill="grey" stroke="none" />
<circle cx="567.220352" cy="499.54970624000003" r="5" fill="black" stroke="none" />
<circle cx="519.220352" cy="603.54970624" r="5" fill="black" stroke="none" />
<path d="M519.220352,603.54970624 A105.31839152490987,105.31839152490987,0,0,1,510.9684122393604,604.7456802275954" stroke="grey" stroke-width="5" fill="none" />
<path d="M510.9684122393604,604.7456802275954 L519.220352,683.54970624" stroke="grey" stroke-width="5" />
<circle cx="510.9684122393604" cy="604.7456802275954" r="2.5" fill="grey" stroke="none" />
<circle cx="519.220352" cy="603.54970624" r="5" fill="black" stroke="none" />
<circle cx="519.220352" cy="683.54970624" r="5" fill="black" stroke="none" />
<path d="M415.22035200000005,699.54970624 L427.8346008448242,669.8589760847756" stroke="grey" stroke-width="5" />
<circle cx="427.8346008448242" cy="669.8589760847756" r="2.5" fill="grey" stroke="none" />
<path d="M427.8346008448242,669.8589760847756 A184.55328930093393,184.55328930093393,0,0,0,519.220352,683.54970624" stroke="grey" stroke-width="5" fill="none" />
<circle cx="415.22035200000005" cy="699.54970624" r="5" fill="black" stroke="none" />
<circle cx="519.220352" cy="683.54970624" r="5" fill="black" stroke="none" />
<path d="M519.220352,683.54970624 A184.55328930093393,184.55328930093393,0,0,1,511.66230656233245,684.1844379893165" stroke="grey" stroke-width="5" fill="none" />
<path d="M511.66230656233245,684.1844379893165 L519.220352,803.54970624" stroke="grey" stroke-width="5" />
<circle cx="511.66230656233245" cy="684.1844379893165" r="2.5" fill="grey" stroke="none" />
<circle cx="519.220352" cy="683.54970624" r="5" fill="black" stroke="none" />
<circle cx="519.220352" cy="803.54970624" r="5" fill="black" stroke="none" />
<path d="M519.220352,603.54970624 A105.31839152490987,105.31839152490987,0,0,0,572.8647006918625,576.0440595081529" stroke="grey" stroke-width="5" fill="none" />
<path d="M572.8647006918625,576.0440595081529 L599.220352,603.54970624" stroke="grey" stroke-width="5" />
<circle cx="572.8647006918625" cy="576.0440595081529" r="2.5" fill="grey" stroke="none" />
<circle cx="519.220352" cy="603.54970624" r="5" fill="black" stroke="none" />
<circle cx="599.220352" cy="603.54970624" r="5" fill="black" stroke="none" />
<path d="M599.220352,531.54970624 A104.11561945661279,104.11561945661279,0,0,1,572.032560877647,575.1756103283657" stroke="grey" stroke-width="5" fill="none" />
<path d="M572.032560877647,575.1756103283656 L599.220352,603.54970624" stroke="grey" stroke-width="5" />
<circle cx="572.032560877647" cy="575.1756103283656" r="2.5" fill="grey" stroke="none" />
<circle cx="599.220352" cy="531.54970624" r="5" fill="black" stroke="none" />
<circle cx="599.220352" cy="603.54970624" r="5" fill="black" stroke="none" />
<path d="M599.220352,603.5497062400001 A143.41276063654243,143.41276063654243,0,0,0,622.7161829614528,574.2156206789747" stroke="grey" stroke-width="5" fill="none" />
<path d="M622.7161829614528,574.2156206789747 L671.220352,603.54970624" stroke="grey" stroke-width="5" />
<circle cx="622.7161829614528" cy="574.2156206789747" r="2.5" fill="grey" stroke="none" />
<circle cx="599.220352" cy="603.54970624" r="5" fill="black" stroke="none" />
<circle cx="671.220352" cy="603.54970624" r="5" fill="black" stroke="none" />
<path d="M599.220352,531.54970624 A104.11561945661279,104.11561945661279,0,0,0,601.5409296641376,523.0109064961999" stroke="grey" stroke-width="5" fill="none" />
<path d="M601.5409296641376,523.0109064961999 L639.220352,531.54970624" stroke="grey" stroke-width="5" />
<circle cx="601.5409296641376" cy="523.0109064961999" r="2.5" fill="grey" stroke="none" />
<circle cx="599.220352" cy="531.54970624" r="5" fill="black" stroke="none" />
<circle cx="639.220352" cy="531.54970624" r="5" fill="black" stroke="none" />
<path d="M671.220352,603.54970624 A200.09735280956173,200.09735280956173,0,0,0,694.3423799411914,547.6444116364952" stroke="grey" stroke-width="5" fill="none" />
<path d="M694.3423799411914,547.6444116364952 L759.220352,563.54970624" stroke="grey" stroke-width="5" />
<circle cx="694.3423799411914" cy="547.6444116364952" r="2.5" fill="grey" stroke="none" />
<circle cx="671.220352" cy="603.54970624" r="5" fill="black" stroke="none" />
<circle cx="759.220352" cy="563.54970624" r="5" fill="black" stroke="none" />
<path d="M639.220352,531.54970624 A142.75044789714045,142.75044789714045,0,0,0,641.8729014754277,515.8041197723185" stroke="grey" stroke-width="5" fill="none" />
<path d="M641.8729014754277,515.8041197723185 L783.220352,531.54970624" stroke="grey" stroke-width="5" />
<circle cx="641.8729014754277" cy="515.8041197723185" r="2.5" fill="grey" stroke="none" />
<circle cx="639.220352" cy="531.54970624" r="5" fill="black" stroke="none" />
<circle cx="783.220352" cy="531.54970624" r="5" fill="black" stroke="none" />
<path d="M759.220352,563.5497062400001 A266.89652686798723,266.89652686798723,0,0,0,765.2558028242397,529.5485214902923" stroke="grey" stroke-width="5" fill="none" />
<path d="M765.2558028242397,529.5485214902923 L783.220352,531.54970624" stroke="grey" stroke-width="5" />
<circle cx="765.2558028242397" cy="529.5485214902923" r="2.5" fill="grey" stroke="none" />
<circle cx="759.220352" cy="563.54970624" r="5" fill="black" stroke="none" />
<circle cx="783.220352" cy="531.54970624" r="5" fill="black" stroke="none" />
<path d="M519.220352,683.54970624 A184.55328930093393,184.55328930093393,0,0,0,611.5291809506226,647.0413492466574" stroke="grey" stroke-width="5" fill="none" />
<path d="M611.5291809506226,647.0413492466574 L639.220352,683.54970624" stroke="grey" stroke-width="5" />
<circle cx="611.5291809506226" cy="647.0413492466574" r="2.5" fill="grey" stroke="none" />
<circle cx="519.220352" cy="683.54970624" r="5" fill="black" stroke="none" />
<circle cx="639.220352" cy="683.54970624" r="5" fill="black" stroke="none" />
<path d="M639.220352,683.5497062400001 A230.3753482293499,230.3753482293499,0,0,0,715.905052945913,580.3604951715502" stroke="grey" stroke-width="5" fill="none" />
<path d="M715.905052945913,580.3604951715502 L735.220352,587.54970624" stroke="grey" stroke-width="5" />
<circle cx="715.905052945913" cy="580.3604951715502" r="2.5" fill="grey" stroke="none" />
<circle cx="639.220352" cy="683.54970624" r="5" fill="black" stroke="none" />
<circle cx="735.220352" cy="587.54970624" r="5" fill="black" stroke="none" />
<path d="M735.220352,587.54970624 A250.9851889210083,250.9851889210083,0,0,0,743.766637889112,559.7611187140334" stroke="grey" stroke-width="5" fill="none" />
<path d="M743.766637889112,559.7611187140334 L759.220352,563.54970624" stroke="grey" stroke-width="5" />
<circle cx="743.766637889112" cy="559.7611187140334" r="2.5" fill="grey" stroke="none" />
<circle cx="735.220352" cy="587.54970624" r="5" fill="black" stroke="none" />
<circle cx="759.220352" cy="563.54970624" r="5" fill="black" stroke="none" />
<path d="M759.220352,563.5497062400001 A266.89652686798723,266.89652686798723,0,0,1,752.863820399884,585.4028359421948" stroke="grey" stroke-width="5" fill="none" />
<path d="M752.863820399884,585.4028359421948 L759.220352,587.54970624" stroke="grey" stroke-width="5" />
<circle cx="752.863820399884" cy="585.4028359421948" r="2.5" fill="grey" stroke="none" />
<circle cx="759.220352" cy="563.54970624" r="5" fill="black" stroke="none" />
<circle cx="759.220352" cy="587.54970624" r="5" fill="black" stroke="none" />
<path d="M759.220352,587.54970624 A273.60581491209985,273.60581491209985,0,0,1,691.8597257338727,695.0640602341637" stroke="grey" stroke-width="5" fill="none" />
<path d="M691.8597257338727,695.0640602341637 L759.220352,763.54970624" stroke="grey" stroke-width="5" />
<circle cx="691.8597257338727" cy="695.0640602341637" r="2.5" fill="grey" stroke="none" />
<circle cx="759.220352" cy="587.54970624" r="5" fill="black" stroke="none" />
<circle cx="759.220352" cy="763.54970624" r="5" fill="black" stroke="none" />
<path d="M759.220352,763.54970624 A369.6669292081647,369.6669292081647,0,0,0,796.8791328901913,720.2644297306363" stroke="grey" stroke-width="5" fill="none" />
<path d="M796.8791328901914,720.2644297306362 L855.220352,763.54970624" stroke="grey" stroke-width="5" />
<circle cx="796.8791328901914" cy="720.2644297306362" r="2.5" fill="grey" stroke="none" />
<circle cx="759.220352" cy="763.54970624" r="5" fill="black" stroke="none" />
<circle cx="855.220352" cy="763.54970624" r="5" fill="black" stroke="none" />
<path d="M759.220352,763.54970624 A369.6669292081647,369.6669292081647,0,0,1,736.4372438474578,784.1673244270214" stroke="grey" stroke-width="5" fill="none" />
<path d="M736.4372438474577,784.1673244270214 L759.220352,811.54970624" stroke="grey" stroke-width="5" />
<circle cx="736.4372438474577" cy="784.1673244270214" r="2.5" fill="grey" stroke="none" />
<circle cx="759.220352" cy="763.54970624" r="5" fill="black" stroke="none" />
<circle cx="759.220352" cy="811.54970624" r="5" fill="black" stroke="none" />
<path d="M447.22035200000005,387.54970624000003 A124.22060944027842,124.22060944027842,0,0,1,596.635280325235,421.94628512250404" stroke="grey" stroke-width="5" fill="none" />
<path d="M596.635280325235,421.94628512250404 L639.220352,387.54970624000003" stroke="grey" stroke-width="5" />
<circle cx="596.635280325235" cy="421.94628512250404" r="2.5" fill="grey" stroke="none" />
<circle cx="447.22035200000005" cy="387.54970624000003" r="5" fill="black" stroke="none" />
<circle cx="639.220352" cy="387.54970624000003" r="5" fill="black" stroke="none" />
<path d="M639.220352,387.54970624000003 L611.050248515526,410.30310663420886" stroke="grey" stroke-width="5" />
<circle cx="611.050248515526" cy="410.30310663420886" r="2.5" fill="grey" stroke="none" />
<path d="M611.050248515526,410.30310663420886 A142.75044789714045,142.75044789714045,0,0,1,639.220352,531.54970624" stroke="grey" stroke-width="5" fill="none" />
<circle cx="639.220352" cy="387.54970624000003" r="5" fill="black" stroke="none" />
<circle cx="639.220352" cy="531.54970624" r="5" fill="black" stroke="none" />
<path d="M639.220352,387.54970624000003 A178.96193723167562,178.96193723167562,0,0,0,604.8936223789516,355.00102427280353" stroke="grey" stroke-width="5" fill="none" />
<path d="M604.8936223789517,355.0010242728036 L639.220352,307.54970624000003" stroke="grey" stroke-width="5" />
<circle cx="604.8936223789517" cy="355.0010242728036" r="2.5" fill="grey" stroke="none" />
<circle cx="639.220352" cy="387.54970624000003" r="5" fill="black" stroke="none" />
<circle cx="639.220352" cy="307.54970624000003" r="5" fill="black" stroke="none" />
<path d="M639.220352,307.54970624000003 A237.52772886405114,237.52772886405114,0,0,0,616.1128357073776,292.7869903618363" stroke="grey" stroke-width="5" fill="none" />
<path d="M616.1128357073776,292.7869903618363 L639.220352,251.54970624000003" stroke="grey" stroke-width="5" />
<circle cx="616.1128357073776" cy="292.7869903618363" r="2.5" fill="grey" stroke="none" />
<circle cx="639.220352" cy="307.54970624000003" r="5" fill="black" stroke="none" />
<circle cx="639.220352" cy="251.54970624000003" r="5" fill="black" stroke="none" />
<path d="M639.220352,307.54970624000003 A237.52772886405114,237.52772886405114,0,0,1,719.7697206898092,409.88511861386365" stroke="grey" stroke-width="5" fill="none" />
<path d="M719.7697206898092,409.88511861386365 L735.220352,403.54970624000003" stroke="grey" stroke-width="5" />
<circle cx="719.7697206898092" cy="409.88511861386365" r="2.5" fill="grey" stroke="none" />
<circle cx="639.220352" cy="307.54970624000003" r="5" fill="black" stroke="none" />
<circle cx="735.220352" cy="403.54970624000003" r="5" fill="black" stroke="none" />
<path d="M639.220352,387.54970624000003 A178.96193723167562,178.96193723167562,0,0,1,665.5824149357453,432.1042060083184" stroke="grey" stroke-width="5" fill="none" />
<path d="M665.5824149357453,432.1042060083184 L735.220352,403.54970624000003" stroke="grey" stroke-width="5" />
<circle cx="665.5824149357453" cy="432.1042060083184" r="2.5" fill="grey" stroke="none" />
<circle cx="639.220352" cy="387.54970624000003" r="5" fill="black" stroke="none" />
<circle cx="735.220352" cy="403.54970624000003" r="5" fill="black" stroke="none" />
<path d="M735.220352,403.54970624000003 A254.22681440279706,254.22681440279706,0,0,1,753.2847267150644,478.13403616875445" stroke="grey" stroke-width="5" fill="none" />
<path d="M753.2847267150644,478.13403616875445 L783.220352,475.54970624000003" stroke="grey" stroke-width="5" />
<circle cx="753.2847267150644" cy="478.13403616875445" r="2.5" fill="grey" stroke="none" />
<circle cx="735.220352" cy="403.54970624000003" r="5" fill="black" stroke="none" />
<circle cx="783.220352" cy="475.54970624000003" r="5" fill="black" stroke="none" />
<path d="M735.220352,587.54970624 A250.9851889210083,250.9851889210083,0,0,0,737.7890581009472,580.3114494028008" stroke="grey" stroke-width="5" fill="none" />
<path d="M737.7890581009472,580.3114494028008 L759.220352,587.54970624" stroke="grey" stroke-width="5" />
<circle cx="737.7890581009472" cy="580.3114494028008" r="2.5" fill="grey" stroke="none" />
<circle cx="735.220352" cy="587.54970624" r="5" fill="black" stroke="none" />
<circle cx="759.220352" cy="587.54970624" r="5" fill="black" stroke="none" />
<path d="M759.220352,587.54970624 A273.60581491209985,273.60581491209985,0,0,0,761.4014082484607,580.8049857337761" stroke="grey" stroke-width="5" fill="none" />
<path d="M761.4014082484607,580.8049857337761 L783.220352,587.54970624" stroke="grey" stroke-width="5" />
<circle cx="761.4014082484607" cy="580.8049857337761" r="2.5" fill="grey" stroke="none" />
<circle cx="759.220352" cy="587.54970624" r="5" fill="black" stroke="none" />
<circle cx="783.220352" cy="587.54970624" r="5" fill="black" stroke="none" />
<path d="M783.220352,587.54970624 L772.2607815538199,584.1618594051806" stroke="grey" stroke-width="5" />
<circle cx="772.2607815538199" cy="584.1618594051806" r="2.5" fill="grey" stroke="none" />
<path d="M772.2607815538199,584.1618594051806 A284.97219469771824,284.97219469771824,0,0,0,783.220352,531.54970624" stroke="grey" stroke-width="5" fill="none" />
<circle cx="783.220352" cy="587.54970624" r="5" fill="black" stroke="none" />
<circle cx="783.220352" cy="531.54970624" r="5" fill="black" stroke="none" />
<path d="M783.220352,531.54970624 L781.9031996603971,531.402980310545" stroke="grey" stroke-width="5" />
<circle cx="781.9031996603971" cy="531.402980310545" r="2.5" fill="grey" stroke="none" />
<path d="M781.9031996603971,531.402980310545 A283.6468951904008,283.6468951904008,0,0,0,783.220352,515.54970624" stroke="grey" stroke-width="5" fill="none" />
<circle cx="783.220352" cy="531.54970624" r="5" fill="black" stroke="none" />
<circle cx="783.220352" cy="515.54970624" r="5" fill="black" stroke="none" />
<path d="M783.220352,515.54970624 L782.7948076615844,515.5263424901574" stroke="grey" stroke-width="5" />
<circle cx="782.7948076615844" cy="515.5263424901574" r="2.5" fill="grey" stroke="none" />
<path d="M782.7948076615844,515.5263424901574 A283.2207099621675,283.2207099621675,0,0,0,783.220352,499.54970624000003" stroke="grey" stroke-width="5" fill="none" />
<circle cx="783.220352" cy="515.54970624" r="5" fill="black" stroke="none" />
<circle cx="783.220352" cy="499.54970624000003" r="5" fill="black" stroke="none" />
<path d="M783.220352,499.54970624000003 A283.2207099621675,283.2207099621675,0,0,0,782.1711796661874,475.6402808459047" stroke="grey" stroke-width="5" fill="none" />
<path d="M782.1711796661874,475.6402808459047 L783.220352,475.54970624000003" stroke="grey" stroke-width="5" />
<circle cx="782.1711796661874" cy="475.6402808459047" r="2.5" fill="grey" stroke="none" />
<circle cx="783.220352" cy="499.54970624000003" r="5" fill="black" stroke="none" />
<circle cx="783.220352" cy="475.54970624000003" r="5" fill="black" stroke="none" />
<path d="M783.220352,475.54970624000003 A284.2737846723722,284.2737846723722,0,0,1,783.5024009970921,479.07218881874684" stroke="grey" stroke-width="5" fill="none" />
<path d="M783.5024009970921,479.07218881874684 L831.220352,475.54970624000003" stroke="grey" stroke-width="5" />
<circle cx="783.5024009970921" cy="479.07218881874684" r="2.5" fill="grey" stroke="none" />
<circle cx="783.220352" cy="475.54970624000003" r="5" fill="black" stroke="none" />
<circle cx="831.220352" cy="475.54970624000003" r="5" fill="black" stroke="none" />
<path d="M831.220352,475.54970624000003 L830.6853906860724,475.58919645005744" stroke="grey" stroke-width="5" />
<circle cx="830.6853906860724" cy="475.58919645005744" r="2.5" fill="grey" stroke="none" />
<path d="M830.6853906860724,475.58919645005744 A331.58515488959125,331.58515488959125,0,0,1,831.220352,515.54970624" stroke="grey" stroke-width="5" fill="none" />
<circle cx="831.220352" cy="475.54970624000003" r="5" fill="black" stroke="none" />
<circle cx="831.220352" cy="515.54970624" r="5" fill="black" stroke="none" />
<path d="M831.220352,515.54970624 L783.3348329479777,513.3016386019074" stroke="grey" stroke-width="5" />
<circle cx="783.3348329479777" cy="513.3016386019074" r="2.5" fill="grey" stroke="none" />
<path d="M783.3348329479777,513.3016386019074 A283.6468951904008,283.6468951904008,0,0,1,783.220352,515.54970624" stroke="grey" stroke-width="5" fill="none" />
<circle cx="831.220352" cy="515.54970624" r="5" fill="black" stroke="none" />
<circle cx="783.220352" cy="515.54970624" r="5" fill="black" stroke="none" />
<path d="M783.220352,499.54970624000003 A283.2207099621675,283.2207099621675,0,0,1,783.2204923185086,499.6488841561523" stroke="grey" stroke-width="5" fill="none" />
<path d="M783.2204923185086,499.6488841561523 L863.220352,499.54970624000003" stroke="grey" stroke-width="5" />
<circle cx="783.2204923185086" cy="499.6488841561523" r="2.5" fill="grey" stroke="none" />
<circle cx="783.220352" cy="499.54970624000003" r="5" fill="black" stroke="none" />
<circle cx="863.220352" cy="499.54970624000003" r="5" fill="black" stroke="none" />
<circle cx="500" cy="500" r="5" fill="red" stroke="none" />
</svg>