<?xml version="1.0" encoding="UTF-8"?>
<svg xmlns="http://www.w3.org/2000/svg" xmlns:xlink="http://www.w3.org/1999/xlink"
     width="1000" height="1000" viewBox="0 0 1000 1000">
<defs>
</defs>
<rect x="0" y="0" width="1000" height="1000" fill="white" />
<path d="M125.79263199999997,345.47984384 L149.9164172764086,355.4411951837849" stroke="grey" stroke-width="5" />
<circle cx="149.9164172764086" cy="355.4411951837849" r="2.5" fill="grey" stroke="none" />
<path d="M149.9164172764086,355.4411951837849 A378.75554509799355,378.75554509799355,0,0,0,125.79263199999997,441.47984384" stroke="grey" stroke-width="5" fill="none" />
<circle cx="125.79263199999997" cy="345.47984384" r="5" fill="black" stroke="none" />
<circle cx="125.79263199999997" cy="441.47984384" r="5" fill="black" stroke="none" />
<path d="M125.79263199999997,441.47984384 L193.50755410873683,452.06939432732634" stroke="grey" stroke-width="5" />
<circle cx="193.50755410873683" cy="452.06939432732634" r="2.5" fill="grey" stroke="none" />
<path d="M193.50755410873683,452.06939432732634 A310.2176048333786,310.2176048333786,0,0,0,189.79263199999997,497.47984383999994" stroke="grey" stroke-width="5" fill="none" />
<circle cx="125.79263199999997" cy="441.47984384" r="5" fill="black" stroke="none" />
<circle cx="189.79263199999997" cy="497.47984384" r="5" fill="black" stroke="none" />
<path d="M101.79263199999997,497.47984384 L189.78860757105082,498.03674865319925" stroke="grey" stroke-width="5" />
<circle cx="189.78860757105082" cy="498.03674865319925" r="2.5" fill="grey" stroke="none" />
<path d="M189.78860757105082,498.0367486531991 A310.2176048333786,310.2176048333786,0,0,1,189.79263199999997,497.47984383999994" stroke="grey" stroke-width="5" fill="none" />
<circle cx="101.79263199999997" cy="497.47984384" r="5" fill="black" stroke="none" />
<circle cx="189.79263199999997" cy="497.47984384" r="5" fill="black" stroke="none" />
<path d="M189.79263199999997,497.47984384 L259.98331479956494,498.0500800751107" stroke="grey" stroke-width="5" />
<circle cx="259.98331479956494" cy="498.0500800751107" r="2.5" fill="grey" stroke="none" />
<path d="M259.98331479956494,498.0500800751107 A240.02460574349084,240.02460574349084,0,0,0,261.792632,529.4798438400001" stroke="grey" stroke-width="5" fill="none" />
<circle cx="189.79263199999997" cy="497.47984384" r="5" fill="black" stroke="none" />
<circle cx="261.79263199999997" cy="529.4798438400001" r="5" fill="black" stroke="none" />
<path d="M261.79263199999997,529.4798438400001 L274.90335089751505,527.8572997979162" stroke="grey" stroke-width="5" />
<circle cx="274.90335089751505" cy="527.8572997979162" r="2.5" fill="grey" stroke="none" />
<path d="M274.90335089751505,527.8572997979162 A226.81386771799959,226.81386771799959,0,0,0,277.792632,545.47984384" stroke="grey" stroke-width="5" fill="none" />
<circle cx="261.79263199999997" cy="529.4798438400001" r="5" fill="black" stroke="none" />
<circle cx="277.79263199999997" cy="545.4798438400001" r="5" fill="black" stroke="none" />
<path d="M277.79263199999997,545.4798438400001 L298.78874253556796,541.1825073610178" stroke="grey" stroke-width="5" />
<circle cx="298.78874253556796" cy="541.1825073610178" r="2.5" fill="grey" stroke="none" />
<path d="M298.78874253556796,541.1825073610178 A205.38249449005684,205.38249449005684,0,0,0,309.79263199999997,577.4798438400001" stroke="grey" stroke-width="5" fill="none" />
<circle cx="277.79263199999997" cy="545.4798438400001" r="5" fill="black" stroke="none" />
<circle cx="309.79263199999997" cy="577.4798438400001" r="5" fill="black" stroke="none" />
<path d="M277.792632,545.47984384 A226.81386771799959,226.81386771799959,0,0,0,301.53121080890594,609.7937626016126" stroke="grey" stroke-width="5" fill="none" />
<path d="M301.53121080890594,609.7937626016127 L-270.20736800000003,149.47984384" stroke="grey" stroke-width="5" />
<circle cx="301.53121080890594" cy="609.7937626016127" r="2.5" fill="grey" stroke="none" />
<circle cx="277.79263199999997" cy="545.4798438400001" r="5" fill="black" stroke="none" />
<circle cx="229.79263199999997" cy="649.4798438400001" r="5" fill="black" stroke="none" />
<path d="M229.79263199999986,649.4798438399998 A308.79806579044214,308.79806579044214,0,0,0,264.6302034205356,699.8932322367613" stroke="grey" stroke-width="5" fill="none" />
<path d="M264.6302034205356,699.8932322367613 L-270.20736800000003,229.47984384" stroke="grey" stroke-width="5" />
<circle cx="264.6302034205356" cy="699.8932322367613" r="2.5" fill="grey" stroke="none" />
<circle cx="229.79263199999997" cy="649.4798438400001" r="5" fill="black" stroke="none" />
<circle cx="229.79263199999997" cy="729.4798438400001" r="5" fill="black" stroke="none" />
<path d="M125.79263199999997,745.4798438400001 L203.58369262823533,694.4489474756954" stroke="grey" stroke-width="5" />
<circle cx="203.58369262823533" cy="694.4489474756954" r="2.5" fill="grey" stroke="none" />
<path d="M203.58369262823544,694.4489474756956 A354.50390752475244,354.50390752475244,0,0,0,229.79263199999997,729.47984384" stroke="grey" stroke-width="5" fill="none" />
<circle cx="125.79263199999997" cy="745.4798438400001" r="5" fill="black" stroke="none" />
<circle cx="229.79263199999997" cy="729.4798438400001" r="5" fill="black" stroke="none" />
<path d="M229.79263199999997,729.47984384 A354.50390752475244,354.50390752475244,0,0,0,283.16171797687196,780.4535253826855" stroke="grey" stroke-width="5" fill="none" />
<path d="M283.16171797687196,780.4535253826855 L-270.20736800000003,349.47984384" stroke="grey" stroke-width="5" />
<circle cx="283.16171797687196" cy="780.4535253826855" r="2.5" fill="grey" stroke="none" />
<circle cx="229.79263199999997" cy="729.4798438400001" r="5" fill="black" stroke="none" />
<circle cx="229.79263199999997" cy="849.4798438400001" r="5" fill="black" stroke="none" />
<path d="M229.79263199999997,649.4798438400001 L288.3169164813097,617.1039653809273" stroke="grey" stroke-width="5" />
<circle cx="288.3169164813097" cy="617.1039653809273" r="2.5" fill="grey" stroke="none" />
<path d="M288.3169164813097,617.1039653809272 A241.91541198509495,241.91541198509495,0,0,0,309.792632,649.4798438400001" stroke="grey" stroke-width="5" fill="none" />
<circle cx="229.79263199999997" cy="649.4798438400001" r="5" fill="black" stroke="none" />
<circle cx="309.79263199999997" cy="649.4798438400001" r="5" fill="black" stroke="none" />
<path d="M309.79263199999997,577.4798438400001 A205.38249449005684,205.38249449005684,0,0,0,338.5168460757882,626.9061071881395" stroke="grey" stroke-width="5" fill="none" />
<path d="M338.51684607578807,626.9061071881393 L-190.20736800000003,149.47984384" stroke="grey" stroke-width="5" />
<circle cx="338.51684607578807" cy="626.9061071881393" r="2.5" fill="grey" stroke="none" />
<circle cx="309.79263199999997" cy="577.4798438400001" r="5" fill="black" stroke="none" />
<circle cx="309.79263199999997" cy="649.4798438400001" r="5" fill="black" stroke="none" />
<path d="M309.79263199999997,649.4798438400001 L350.16267509799314,617.7539028233402" stroke="grey" stroke-width="5" />
<circle cx="350.16267509799314" cy="617.7539028233402" r="2.5" fill="grey" stroke="none" />
<path d="M350.1626750979932,617.7539028233404 A190.57073637869541,190.57073637869541,0,0,0,381.7926319999999,649.4798438400001" stroke="grey" stroke-width="5" fill="none" />
<circle cx="309.79263199999997" cy="649.4798438400001" r="5" fill="black" stroke="none" />
<circle cx="381.79263199999997" cy="649.4798438400001" r="5" fill="black" stroke="none" />
<path d="M309.79263199999997,577.4798438400001 L343.4749282246074,563.7595601354528" stroke="grey" stroke-width="5" />
<circle cx="343.4749282246074" cy="563.7595601354528" r="2.5" fill="grey" stroke="none" />
<path d="M343.4749282246074,563.7595601354528 A169.01295690851106,169.01295690851106,0,0,0,349.792632,577.4798438400001" stroke="grey" stroke-width="5" fill="none" />
<circle cx="309.79263199999997" cy="577.4798438400001" r="5" fill="black" stroke="none" />
<circle cx="349.79263199999997" cy="577.4798438400001" r="5" fill="black" stroke="none" />
<path d="M381.79263199999997,649.4798438400001 L429.5542283452154,589.0826276255935" stroke="grey" stroke-width="5" />
<circle cx="429.5542283452154" cy="589.0826276255935" r="2.5" fill="grey" stroke="none" />
<path d="M429.5542283452154,589.0826276255935 A113.57077656121848,113.57077656121848,0,0,0,469.792632,609.4798438400001" stroke="grey" stroke-width="5" fill="none" />
<circle cx="381.79263199999997" cy="649.4798438400001" r="5" fill="black" stroke="none" />
<circle cx="469.79263199999997" cy="609.4798438400001" r="5" fill="black" stroke="none" />
<path d="M349.79263199999997,577.4798438400001 L430.9204831361405,535.6325408694631" stroke="grey" stroke-width="5" />
<circle cx="430.9204831361405" cy="535.6325408694631" r="2.5" fill="grey" stroke="none" />
<path d="M430.9204831361405,535.6325408694631 A77.72810057474845,77.72810057474845,0,0,0,493.79263199999997,577.4798438400001" stroke="grey" stroke-width="5" fill="none" />
<circle cx="349.79263199999997" cy="577.4798438400001" r="5" fill="black" stroke="none" />
<circle cx="493.79263199999997" cy="577.4798438400001" r="5" fill="black" stroke="none" />
<path d="M469.79263199999997,609.4798438400001 L479.3260078948495,574.928256815399" stroke="grey" stroke-width="5" />
<circle cx="479.3260078948495" cy="574.928256815399" r="2.5" fill="grey" stroke="none" />
<path d="M479.3260078948495,574.928256815399 A77.72810057474845,77.72810057474845,0,0,0,493.79263199999997,577.4798438400001" stroke="grey" stroke-width="5" fill="none" />
<circle cx="469.79263199999997" cy="609.4798438400001" r="5" fill="black" stroke="none" />
<circle cx="493.79263199999997" cy="577.4798438400001" r="5" fill="black" stroke="none" />
<path d="M229.79263199999997,729.4798438400001 L290.9490173590458,677.5413720437286" stroke="grey" stroke-width="5" />
<circle cx="290.9490173590458" cy="677.5413720437286" r="2.5" fill="grey" stroke="none" />
<path d="M290.9490173590458,677.5413720437286 A274.26857663669426,274.26857663669426,0,0,0,349.792632,729.4798438400001" stroke="grey" stroke-width="5" fill="none" />
<circle cx="229.79263199999997" cy="729.4798438400001" r="5" fill="black" stroke="none" />
<circle cx="349.79263199999997" cy="729.4798438400001" r="5" fill="black" stroke="none" />
<path d="M349.79263199999997,729.4798438400001 L421.0994974942597,620.5405249755445" stroke="grey" stroke-width="5" />
<circle cx="421.0994974942597" cy="620.5405249755445" r="2.5" fill="grey" stroke="none" />
<path d="M421.0994974942597,620.5405249755446 A144.06702418332313,144.06702418332313,0,0,0,445.79263199999997,633.4798438400001" stroke="grey" stroke-width="5" fill="none" />
<circle cx="349.79263199999997" cy="729.4798438400001" r="5" fill="black" stroke="none" />
<circle cx="445.79263199999997" cy="633.4798438400001" r="5" fill="black" stroke="none" />
<path d="M445.79263199999997,633.4798438400001 L457.2673003138744,605.224700837083" stroke="grey" stroke-width="5" />
<circle cx="457.2673003138744" cy="605.224700837083" r="2.5" fill="grey" stroke="none" />
<path d="M457.26730031387433,605.224700837083 A113.57077656121848,113.57077656121848,0,0,0,469.792632,609.4798438400001" stroke="grey" stroke-width="5" fill="none" />
<circle cx="445.79263199999997" cy="633.4798438400001" r="5" fill="black" stroke="none" />
<circle cx="469.79263199999997" cy="609.4798438400001" r="5" fill="black" stroke="none" />
<path d="M469.792632,609.4798438400001 A113.57077656121848,113.57077656121848,0,0,0,474.9320924117942,610.7696767977021" stroke="grey" stroke-width="5" fill="none" />
<path d="M474.93209241179426,610.7696767977021 L-30.20736800000003,133.47984384" stroke="grey" stroke-width="5" />
<circle cx="474.93209241179426" cy="610.7696767977021" r="2.5" fill="grey" stroke="none" />
<circle cx="469.79263199999997" cy="609.4798438400001" r="5" fill="black" stroke="none" />
<circle cx="469.79263199999997" cy="633.4798438400001" r="5" fill="black" stroke="none" />
<path d="M469.7926319999999,633.47984384 A136.85522932295356,136.85522932295356,0,0,0,486.7051659190783,636.2079336154799" stroke="grey" stroke-width="5" fill="none" />
<path d="M486.70516591907824,636.2079336154799 L-30.20736800000003,309.47984384" stroke="grey" stroke-width="5" />
<circle cx="486.70516591907824" cy="636.2079336154799" r="2.5" fill="grey" stroke="none" />
<circle cx="469.79263199999997" cy="633.4798438400001" r="5" fill="black" stroke="none" />
<circle cx="469.79263199999997" cy="809.4798438400001" r="5" fill="black" stroke="none" />
<path d="M469.792632,809.4798438400001 A310.95057296091,310.95057296091,0,0,0,564.6602834682703,804.1534260312073" stroke="grey" stroke-width="5" fill="none" />
<path d="M564.6602834682703,804.1534260312073 L65.79263199999997,309.47984384" stroke="grey" stroke-width="5" />
<circle cx="564.6602834682703" cy="804.1534260312073" r="2.5" fill="grey" stroke="none" />
<circle cx="469.79263199999997" cy="809.4798438400001" r="5" fill="black" stroke="none" />
<circle cx="565.7926319999999" cy="809.4798438400001" r="5" fill="black" stroke="none" />
<path d="M469.792632,809.4798438400001 A310.95057296091,310.95057296091,0,0,0,473.81770697152916,809.8463270017728" stroke="grey" stroke-width="5" fill="none" />
<path d="M473.8177069715291,809.8463270017728 L-30.20736800000003,357.47984384" stroke="grey" stroke-width="5" />
<circle cx="473.8177069715291" cy="809.8463270017728" r="2.5" fill="grey" stroke="none" />
<circle cx="469.79263199999997" cy="809.4798438400001" r="5" fill="black" stroke="none" />
<circle cx="469.79263199999997" cy="857.4798438400001" r="5" fill="black" stroke="none" />
<path d="M157.79263199999997,433.47984384 L338.7406360385689,468.6535151605015" stroke="grey" stroke-width="5" />
<circle cx="338.7406360385689" cy="468.6535151605015" r="2.5" fill="grey" stroke="none" />
<path d="M338.7406360385688,468.65351516050157 A164.27776653290067,164.27776653290067,0,0,1,349.7926319999999,433.47984384000006" stroke="grey" stroke-width="5" fill="none" />
<circle cx="157.79263199999997" cy="433.47984384" r="5" fill="black" stroke="none" />
<circle cx="349.79263199999997" cy="433.47984384" r="5" fill="black" stroke="none" />
<path d="M349.7926319999999,433.47984384000006 A164.27776653290067,164.27776653290067,0,0,0,354.0009512691811,575.3091119768" stroke="grey" stroke-width="5" fill="none" />
<path d="M354.0009512691811,575.3091119768 L-150.20736800000003,77.47984384" stroke="grey" stroke-width="5" />
<circle cx="354.0009512691811" cy="575.3091119768" r="2.5" fill="grey" stroke="none" />
<circle cx="349.79263199999997" cy="433.47984384" r="5" fill="black" stroke="none" />
<circle cx="349.79263199999997" cy="577.4798438400001" r="5" fill="black" stroke="none" />
<path d="M349.7926319999999,433.47984384000006 A164.27776653290067,164.27776653290067,0,0,1,382.4036984078511,385.2903908607192" stroke="grey" stroke-width="5" fill="none" />
<path d="M382.4036984078511,385.2903908607192 L-150.20736800000003,-146.52015616" stroke="grey" stroke-width="5" />
<circle cx="382.4036984078511" cy="385.2903908607192" r="2.5" fill="grey" stroke="none" />
<circle cx="349.79263199999997" cy="433.47984384" r="5" fill="black" stroke="none" />
<circle cx="349.79263199999997" cy="353.47984384" r="5" fill="black" stroke="none" />
<path d="M349.792632,353.47984384 A209.83424306494453,209.83424306494453,0,0,1,374.99749374543853,331.4628142138462" stroke="grey" stroke-width="5" fill="none" />
<path d="M374.99749374543853,331.4628142138462 L-150.20736800000003,-202.52015616" stroke="grey" stroke-width="5" />
<circle cx="374.99749374543853" cy="331.4628142138462" r="2.5" fill="grey" stroke="none" />
<circle cx="349.79263199999997" cy="353.47984384" r="5" fill="black" stroke="none" />
<circle cx="349.79263199999997" cy="297.47984384" r="5" fill="black" stroke="none" />
<path d="M349.79263199999997,353.47984384 L446.9567999128513,448.25887662185016" stroke="grey" stroke-width="5" />
<circle cx="446.9567999128513" cy="448.25887662185016" r="2.5" fill="grey" stroke="none" />
<path d="M446.9567999128513,448.25887662185016 A74.09942593514617,74.09942593514617,0,0,0,445.79263199999997,449.47984384" stroke="grey" stroke-width="5" fill="none" />
<circle cx="349.79263199999997" cy="353.47984384" r="5" fill="black" stroke="none" />
<circle cx="445.79263199999997" cy="449.47984384" r="5" fill="black" stroke="none" />
<path d="M349.79263199999997,433.47984384 L432.2471934277233,469.99529827680544" stroke="grey" stroke-width="5" />
<circle cx="432.2471934277233" cy="469.99529827680544" r="2.5" fill="grey" stroke="none" />
<path d="M432.2471934277233,469.99529827680544 A74.09942593514617,74.09942593514617,0,0,1,445.79263199999997,449.47984384" stroke="grey" stroke-width="5" fill="none" />
<circle cx="349.79263199999997" cy="433.47984384" r="5" fill="black" stroke="none" />
<circle cx="445.79263199999997" cy="449.47984384" r="5" fill="black" stroke="none" />
<path d="M445.79263199999997,449.47984384 L483.64345364425196,484.7560339743728" stroke="grey" stroke-width="5" />
<circle cx="483.64345364425196" cy="484.7560339743728" r="2.5" fill="grey" stroke="none" />
<path d="M483.64345364425196,484.7560339743728 A22.35878147122983,22.35878147122983,0,0,0,493.79263199999997,521.47984384" stroke="grey" stroke-width="5" fill="none" />
<circle cx="445.79263199999997" cy="449.47984384" r="5" fill="black" stroke="none" />
<circle cx="493.79263199999997" cy="521.4798438400001" r="5" fill="black" stroke="none" />
<path d="M445.79263199999997,633.4798438400001 L448.5061774497839,626.7980285028323" stroke="grey" stroke-width="5" />
<circle cx="448.5061774497839" cy="626.7980285028323" r="2.5" fill="grey" stroke="none" />
<path d="M448.5061774497838,626.7980285028323 A136.85522932295356,136.85522932295356,0,0,0,469.7926319999999,633.47984384" stroke="grey" stroke-width="5" fill="none" />
<circle cx="445.79263199999997" cy="633.4798438400001" r="5" fill="black" stroke="none" />
<circle cx="469.79263199999997" cy="633.4798438400001" r="5" fill="black" stroke="none" />
<path d="M469.79263199999997,633.4798438400001 L470.5058229376517,630.3284069128947" stroke="grey" stroke-width="5" />
<circle cx="470.5058229376517" cy="630.3284069128947" r="2.5" fill="grey" stroke="none" />
<path d="M470.50582293765166,630.3284069128947 A133.62410010562544,133.62410010562544,0,0,0,493.79263199999997,633.4798438400001" stroke="grey" stroke-width="5" fill="none" />
<circle cx="469.79263199999997" cy="633.4798438400001" r="5" fill="black" stroke="none" />
<circle cx="493.79263199999997" cy="633.4798438400001" r="5" fill="black" stroke="none" />
<path d="M493.79263199999997,633.4798438400001 L496.389222274821,577.6441878261185" stroke="grey" stroke-width="5" />
<circle cx="496.389222274821" cy="577.6441878261185" r="2.5" fill="grey" stroke="none" />
<path d="M496.389222274821,577.6441878261185 A77.72810057474845,77.72810057474845,0,0,1,493.79263199999997,577.4798438400001" stroke="grey" stroke-width="5" fill="none" />
<circle cx="493.79263199999997" cy="633.4798438400001" r="5" fill="black" stroke="none" />
<circle cx="493.79263199999997" cy="577.4798438400001" r="5" fill="black" stroke="none" />
<path d="M493.79263199999997,577.4798438400001 L495.06525619538525,561.5950559676751" stroke="grey" stroke-width="5" />
<circle cx="495.06525619538525" cy="561.5950559676751" r="2.5" fill="grey" stroke="none" />
<path d="M495.06525619538525,561.5950559676751 A61.792415522280805,61.792415522280805,0,0,1,493.79263199999997,561.47984384" stroke="grey" stroke-width="5" fill="none" />
<circle cx="493.79263199999997" cy="577.4798438400001" r="5" fill="black" stroke="none" />
<circle cx="493.79263199999997" cy="561.4798438400001" r="5" fill="black" stroke="none" />
<path d="M493.79263199999997,561.4798438400001 L495.38895681901414,545.6693101982206" stroke="grey" stroke-width="5" />
<circle cx="495.38895681901414" cy="545.6693101982206" r="2.5" fill="grey" stroke="none" />
<path d="M495.3889568190141,545.6693101982206 A45.90149902996862,45.90149902996862,0,0,1,493.79263199999997,545.47984384" stroke="grey" stroke-width="5" fill="none" />
<circle cx="493.79263199999997" cy="561.4798438400001" r="5" fill="black" stroke="none" />
<circle cx="493.79263199999997" cy="545.4798438400001" r="5" fill="black" stroke="none" />
<path d="M493.79263199999997,545.4798438400001 L496.9763692350681,522.1533917465377" stroke="grey" stroke-width="5" />
<circle cx="496.9763692350681" cy="522.1533917465377" r="2.5" fill="grey" stroke="none" />
<path d="M496.9763692350681,522.1533917465377 A22.35878147122983,22.35878147122983,0,0,1,493.79263199999997,521.47984384" stroke="grey" stroke-width="5" fill="none" />
<circle cx="493.79263199999997" cy="545.4798438400001" r="5" fill="black" stroke="none" />
<circle cx="493.79263199999997" cy="521.4798438400001" r="5" fill="black" stroke="none" />
<path d="M493.79263199999997,521.47984384 A22.35878147122983,22.35878147122983,0,0,0,519.8860054627961,510.2206602336567" stroke="grey" stroke-width="5" fill="none" />
<path d="M519.8860054627961,510.2206602336567 L41.79263199999997,21.47984384" stroke="grey" stroke-width="5" />
<circle cx="519.8860054627961" cy="510.2206602336567" r="2.5" fill="grey" stroke="none" />
<circle cx="493.79263199999997" cy="521.4798438400001" r="5" fill="black" stroke="none" />
<circle cx="541.7926319999999" cy="521.4798438400001" r="5" fill="black" stroke="none" />
<path d="M541.7926319999999,521.47984384 A46.98944329185234,46.98944329185234,0,0,1,526.4167295375016,538.8608309409448" stroke="grey" stroke-width="5" fill="none" />
<path d="M526.4167295375016,538.8608309409448 L41.79263199999997,61.47984384" stroke="grey" stroke-width="5" />
<circle cx="526.4167295375016" cy="538.8608309409448" r="2.5" fill="grey" stroke="none" />
<circle cx="541.7926319999999" cy="521.4798438400001" r="5" fill="black" stroke="none" />
<circle cx="541.7926319999999" cy="561.4798438400001" r="5" fill="black" stroke="none" />
<path d="M541.7926319999999,561.4798438400001 L534.7387288285676,551.1030658126639" stroke="grey" stroke-width="5" />
<circle cx="534.7387288285676" cy="551.1030658126639" r="2.5" fill="grey" stroke="none" />
<path d="M534.7387288285676,551.1030658126639 A61.792415522280805,61.792415522280805,0,0,1,493.79263199999997,561.47984384" stroke="grey" stroke-width="5" fill="none" />
<circle cx="541.7926319999999" cy="561.4798438400001" r="5" fill="black" stroke="none" />
<circle cx="493.79263199999997" cy="561.4798438400001" r="5" fill="black" stroke="none" />
<path d="M493.79263199999997,545.47984384 A45.90149902996862,45.90149902996862,0,0,0,539.0760770892824,524.0833513554628" stroke="grey" stroke-width="5" fill="none" />
<path d="M539.0760770892824,524.0833513554628 L73.79263199999997,45.47984384" stroke="grey" stroke-width="5" />
<circle cx="539.0760770892824" cy="524.0833513554628" r="2.5" fill="grey" stroke="none" />
<circle cx="493.79263199999997" cy="545.4798438400001" r="5" fill="black" stroke="none" />
<circle cx="573.7926319999999" cy="545.4798438400001" r="5" fill="black" stroke="none" />
<circle cx="500" cy="500" r="5" fill="red" stroke="none" />
</svg>