<?xml version="1.0" encoding="UTF-8"?>
<svg xmlns="http://www.w3.org/2000/svg" xmlns:xlink="http://www.w3.org/1999/xlink"
     width="1000" height="1000" viewBox="0 0 1000 1000">
<defs>
</defs>
<rect x="0" y="0" width="1000" height="1000" fill="white" />
<path d="M210.9191995,278.80386704 L249.81223932813964,308.56367811760816" stroke="grey" stroke-width="5" />
<circle cx="249.81223932813964" cy="308.56367811760816" r="2.5" fill="grey" stroke="none" />
<path d="M249.81223932813964,308.56367811760816 A315.02663526416114,315.02663526416114,0,0,0,210.9191995,374.8038670399999" stroke="grey" stroke-width="5" fill="none" />
<circle cx="210.9191995" cy="278.80386704" r="5" fill="black" stroke="none" />
<circle cx="210.9191995" cy="374.80386704" r="5" fill="black" stroke="none" />
<path d="M210.9191995,374.80386704 L283.91696062816027,406.41799496608996" stroke="grey" stroke-width="5" />
<circle cx="283.91696062816027" cy="406.41799496608996" r="2.5" fill="grey" stroke="none" />
<path d="M283.9169606281603,406.41799496608985 A235.4771147486286,235.4771147486286,0,0,0,274.9191995,430.80386704000006" stroke="grey" stroke-width="5" fill="none" />
<circle cx="210.9191995" cy="374.80386704" r="5" fill="black" stroke="none" />
<circle cx="274.9191995" cy="430.80386704" r="5" fill="black" stroke="none" />
<path d="M186.9191995,430.80386704 L270.07174902998975,449.18198177603966" stroke="grey" stroke-width="5" />
<circle cx="270.07174902998975" cy="449.18198177603966" r="2.5" fill="grey" stroke="none" />
<path d="M270.07174902998975,449.18198177603966 A235.4771147486286,235.4771147486286,0,0,1,274.9191995,430.80386704000006" stroke="grey" stroke-width="5" fill="none" />
<circle cx="186.9191995" cy="430.80386704" r="5" fill="black" stroke="none" />
<circle cx="274.9191995" cy="430.80386704" r="5" fill="black" stroke="none" />
<path d="M274.9191995,430.80386704 L349.42014705699603,453.70754190408456" stroke="grey" stroke-width="5" />
<circle cx="349.42014705699603" cy="453.70754190408456" r="2.5" fill="grey" stroke="none" />
<path d="M349.420147056996,453.7075419040846 A157.53502400704042,157.53502400704042,0,0,0,346.9191995,462.80386704" stroke="grey" stroke-width="5" fill="none" />
<circle cx="274.9191995" cy="430.80386704" r="5" fill="black" stroke="none" />
<circle cx="346.9191995" cy="462.80386704" r="5" fill="black" stroke="none" />
<path d="M346.9191995,462.80386704 L365.2121031803267,467.24874370183784" stroke="grey" stroke-width="5" />
<circle cx="365.2121031803267" cy="467.24874370183784" r="2.5" fill="grey" stroke="none" />
<path d="M365.2121031803267,467.24874370183784 A138.70984794951943,138.70984794951943,0,0,0,362.9191995,478.80386703999994" stroke="grey" stroke-width="5" fill="none" />
<circle cx="346.9191995" cy="462.80386704" r="5" fill="black" stroke="none" />
<circle cx="362.9191995" cy="478.80386704" r="5" fill="black" stroke="none" />
<path d="M362.9191995,478.80386704 L395.6058646359979,483.85804601848946" stroke="grey" stroke-width="5" />
<circle cx="395.6058646359979" cy="483.85804601848946" r="2.5" fill="grey" stroke="none" />
<path d="M395.6058646359979,483.8580460184894 A105.63473944086198,105.63473944086198,0,0,0,394.9191995,510.80386704" stroke="grey" stroke-width="5" fill="none" />
<circle cx="362.9191995" cy="478.80386704" r="5" fill="black" stroke="none" />
<circle cx="394.9191995" cy="510.80386704" r="5" fill="black" stroke="none" />
<path d="M362.9191995,478.80386703999994 A138.70984794951943,138.70984794951943,0,0,0,373.38428235050304,556.6469942916804" stroke="grey" stroke-width="5" fill="none" />
<path d="M373.38428235050304,556.6469942916804 L-185.0808005,82.80386704" stroke="grey" stroke-width="5" />
<circle cx="373.38428235050304" cy="556.6469942916804" r="2.5" fill="grey" stroke="none" />
<circle cx="362.9191995" cy="478.80386704" r="5" fill="black" stroke="none" />
<circle cx="314.9191995" cy="582.80386704" r="5" fill="black" stroke="none" />
<path d="M314.9191995,582.80386704 A202.75942175518946,202.75942175518946,0,0,0,347.7583353288337,633.9173575331106" stroke="grey" stroke-width="5" fill="none" />
<path d="M347.75833532883377,633.9173575331106 L-185.0808005,162.80386704" stroke="grey" stroke-width="5" />
<circle cx="347.75833532883377" cy="633.9173575331106" r="2.5" fill="grey" stroke="none" />
<circle cx="314.9191995" cy="582.80386704" r="5" fill="black" stroke="none" />
<circle cx="314.9191995" cy="662.80386704" r="5" fill="black" stroke="none" />
<path d="M210.9191995,678.80386704 L290.36455482908,629.6648833142151" stroke="grey" stroke-width="5" />
<circle cx="290.36455482908" cy="629.6648833142151" r="2.5" fill="grey" stroke="none" />
<path d="M290.36455482908,629.6648833142151 A246.49543978925615,246.49543978925615,0,0,0,314.91919949999993,662.8038670399999" stroke="grey" stroke-width="5" fill="none" />
<circle cx="210.9191995" cy="678.80386704" r="5" fill="black" stroke="none" />
<circle cx="314.9191995" cy="662.80386704" r="5" fill="black" stroke="none" />
<path d="M314.91919949999993,662.8038670399999 A246.49543978925615,246.49543978925615,0,0,0,365.01839110146324,706.2521929484903" stroke="grey" stroke-width="5" fill="none" />
<path d="M365.0183911014633,706.2521929484903 L-185.0808005,282.80386704" stroke="grey" stroke-width="5" />
<circle cx="365.0183911014633" cy="706.2521929484903" r="2.5" fill="grey" stroke="none" />
<circle cx="314.9191995" cy="662.80386704" r="5" fill="black" stroke="none" />
<circle cx="314.9191995" cy="782.80386704" r="5" fill="black" stroke="none" />
<path d="M314.9191995,582.80386704 L377.87963387552145,554.6358051841657" stroke="grey" stroke-width="5" />
<circle cx="377.87963387552145" cy="554.6358051841657" r="2.5" fill="grey" stroke="none" />
<path d="M377.87963387552145,554.6358051841657 A133.78510765589272,133.78510765589272,0,0,0,394.9191995,582.80386704" stroke="grey" stroke-width="5" fill="none" />
<circle cx="314.9191995" cy="582.80386704" r="5" fill="black" stroke="none" />
<circle cx="394.9191995" cy="582.80386704" r="5" fill="black" stroke="none" />
<path d="M394.9191995,510.80386704 A105.63473944086198,105.63473944086198,0,0,0,417.0297563342748,565.3807069615264" stroke="grey" stroke-width="5" fill="none" />
<path d="M417.0297563342748,565.3807069615264 L-105.08080050000001,82.80386704" stroke="grey" stroke-width="5" />
<circle cx="417.0297563342748" cy="565.3807069615264" r="2.5" fill="grey" stroke="none" />
<circle cx="394.9191995" cy="510.80386704" r="5" fill="black" stroke="none" />
<circle cx="394.9191995" cy="582.80386704" r="5" fill="black" stroke="none" />
<path d="M394.9191995,582.80386704 L429.9639644878975,555.1885267809018" stroke="grey" stroke-width="5" />
<circle cx="429.9639644878975" cy="555.1885267809018" r="2.5" fill="grey" stroke="none" />
<path d="M429.9639644878975,555.1885267809018 A89.16736935952972,89.16736935952972,0,0,0,466.9191995,582.80386704" stroke="grey" stroke-width="5" fill="none" />
<circle cx="394.9191995" cy="582.80386704" r="5" fill="black" stroke="none" />
<circle cx="466.9191995" cy="582.80386704" r="5" fill="black" stroke="none" />
<path d="M394.9191995,510.80386704 L434.3744837801285,506.7472777928719" stroke="grey" stroke-width="5" />
<circle cx="434.3744837801285" cy="506.7472777928719" r="2.5" fill="grey" stroke="none" />
<path d="M434.3744837801285,506.7472777928719 A65.97146456414924,65.97146456414924,0,0,0,434.9191995,510.80386704000006" stroke="grey" stroke-width="5" fill="none" />
<circle cx="394.9191995" cy="510.80386704" r="5" fill="black" stroke="none" />
<circle cx="434.9191995" cy="510.80386704" r="5" fill="black" stroke="none" />
<path d="M466.9191995,582.80386704 L474.1676254740207,564.6604820090937" stroke="grey" stroke-width="5" />
<circle cx="474.1676254740207" cy="564.6604820090937" r="2.5" fill="grey" stroke="none" />
<path d="M474.1676254740207,564.6604820090937 A69.6296596810497,69.6296596810497,0,0,0,554.9191995,542.80386704" stroke="grey" stroke-width="5" fill="none" />
<circle cx="466.9191995" cy="582.80386704" r="5" fill="black" stroke="none" />
<circle cx="554.9191995" cy="542.80386704" r="5" fill="black" stroke="none" />
<path d="M434.9191995,510.80386704000006 A65.97146456414924,65.97146456414924,0,0,0,565.361834009038,508.9478931438502" stroke="grey" stroke-width="5" fill="none" />
<path d="M565.361834009038,508.9478931438502 L78.91919949999999,10.80386704" stroke="grey" stroke-width="5" />
<circle cx="565.361834009038" cy="508.9478931438502" r="2.5" fill="grey" stroke="none" />
<circle cx="434.9191995" cy="510.80386704" r="5" fill="black" stroke="none" />
<circle cx="578.9191995" cy="510.80386704" r="5" fill="black" stroke="none" />
<path d="M554.9191995,542.80386704 A69.6296596810497,69.6296596810497,0,0,0,568.9862243963549,509.4440643175787" stroke="grey" stroke-width="5" fill="none" />
<path d="M568.9862243963549,509.4440643175787 L78.91919949999999,10.80386704" stroke="grey" stroke-width="5" />
<circle cx="568.9862243963549" cy="509.4440643175787" r="2.5" fill="grey" stroke="none" />
<circle cx="554.9191995" cy="542.80386704" r="5" fill="black" stroke="none" />
<circle cx="578.9191995" cy="510.80386704" r="5" fill="black" stroke="none" />
<path d="M314.9191995,662.80386704 L368.3536814694278,615.8009349454741" stroke="grey" stroke-width="5" />
<circle cx="368.3536814694278" cy="615.8009349454741" r="2.5" fill="grey" stroke="none" />
<path d="M368.3536814694278,615.8009349454741 A175.3300023296036,175.3300023296036,0,0,0,434.9191995,662.80386704" stroke="grey" stroke-width="5" fill="none" />
<circle cx="314.9191995" cy="662.80386704" r="5" fill="black" stroke="none" />
<circle cx="434.9191995" cy="662.80386704" r="5" fill="black" stroke="none" />
<path d="M434.9191995,662.80386704 L472.67586972866695,568.3530939616783" stroke="grey" stroke-width="5" />
<circle cx="472.67586972866695" cy="568.3530939616783" r="2.5" fill="grey" stroke="none" />
<path d="M472.67586972866695,568.3530939616783 A73.61218342923132,73.61218342923132,0,0,0,530.9191995,566.80386704" stroke="grey" stroke-width="5" fill="none" />
<circle cx="434.9191995" cy="662.80386704" r="5" fill="black" stroke="none" />
<circle cx="530.9191995" cy="566.80386704" r="5" fill="black" stroke="none" />
<path d="M530.9191995,566.80386704 L529.246426861733,563.1896828851048" stroke="grey" stroke-width="5" />
<circle cx="529.246426861733" cy="563.1896828851048" r="2.5" fill="grey" stroke="none" />
<path d="M529.2464268617329,563.1896828851048 A69.6296596810497,69.6296596810497,0,0,0,554.9191995,542.80386704" stroke="grey" stroke-width="5" fill="none" />
<circle cx="530.9191995" cy="566.80386704" r="5" fill="black" stroke="none" />
<circle cx="554.9191995" cy="542.80386704" r="5" fill="black" stroke="none" />
<path d="M554.9191995,542.80386704 A69.6296596810497,69.6296596810497,0,0,1,544.2181257025686,553.7870511057322" stroke="grey" stroke-width="5" fill="none" />
<path d="M544.2181257025686,553.7870511057322 L54.91919949999999,66.80386704" stroke="grey" stroke-width="5" />
<circle cx="544.2181257025686" cy="553.7870511057322" r="2.5" fill="grey" stroke="none" />
<circle cx="554.9191995" cy="542.80386704" r="5" fill="black" stroke="none" />
<circle cx="554.9191995" cy="566.80386704" r="5" fill="black" stroke="none" />
<path d="M554.9191995,566.80386704 A86.4804898530229,86.4804898530229,0,0,1,519.0788487347173,584.3497045411339" stroke="grey" stroke-width="5" fill="none" />
<path d="M519.0788487347173,584.3497045411339 L54.91919949999999,242.80386704" stroke="grey" stroke-width="5" />
<circle cx="519.0788487347173" cy="584.3497045411339" r="2.5" fill="grey" stroke="none" />
<circle cx="554.9191995" cy="566.80386704" r="5" fill="black" stroke="none" />
<circle cx="554.9191995" cy="742.80386704" r="5" fill="black" stroke="none" />
<path d="M554.9191995000001,742.80386704 A248.93741447058295,248.93741447058295,0,0,0,631.4144315702702,711.4239425854167" stroke="grey" stroke-width="5" fill="none" />
<path d="M631.4144315702702,711.4239425854167 L150.9191995,242.80386704" stroke="grey" stroke-width="5" />
<circle cx="631.4144315702702" cy="711.4239425854167" r="2.5" fill="grey" stroke="none" />
<circle cx="554.9191995" cy="742.80386704" r="5" fill="black" stroke="none" />
<circle cx="650.9191995" cy="742.80386704" r="5" fill="black" stroke="none" />
<path d="M554.9191995000001,742.80386704 A248.93741447058295,248.93741447058295,0,0,1,546.1960077573068,744.6135016522711" stroke="grey" stroke-width="5" fill="none" />
<path d="M546.1960077573068,744.6135016522711 L54.91919949999999,290.80386704" stroke="grey" stroke-width="5" />
<circle cx="546.1960077573068" cy="744.6135016522711" r="2.5" fill="grey" stroke="none" />
<circle cx="554.9191995" cy="742.80386704" r="5" fill="black" stroke="none" />
<circle cx="554.9191995" cy="790.80386704" r="5" fill="black" stroke="none" />
<path d="M242.9191995,366.80386704 L368.37244181041035,431.8024461269689" stroke="grey" stroke-width="5" />
<circle cx="368.37244181041035" cy="431.8024461269689" r="2.5" fill="grey" stroke="none" />
<path d="M368.37244181041035,431.8024461269689 A148.24547355389575,148.24547355389575,0,0,1,434.9191995,366.80386704" stroke="grey" stroke-width="5" fill="none" />
<circle cx="242.9191995" cy="366.80386704" r="5" fill="black" stroke="none" />
<circle cx="434.9191995" cy="366.80386704" r="5" fill="black" stroke="none" />
<path d="M434.9191995,366.80386704 L471.0380653043596,440.72571826310957" stroke="grey" stroke-width="5" />
<circle cx="471.0380653043596" cy="440.72571826310957" r="2.5" fill="grey" stroke="none" />
<path d="M471.0380653043596,440.72571826310957 A65.97146456414924,65.97146456414924,0,0,0,434.9191995,510.80386704000006" stroke="grey" stroke-width="5" fill="none" />
<circle cx="434.9191995" cy="366.80386704" r="5" fill="black" stroke="none" />
<circle cx="434.9191995" cy="510.80386704" r="5" fill="black" stroke="none" />
<path d="M434.9191995,366.80386704 A148.24547355389575,148.24547355389575,0,0,1,456.71791981186607,358.21360444737036" stroke="grey" stroke-width="5" fill="none" />
<path d="M456.71791981186607,358.21360444737036 L-65.08080050000001,-213.19613296" stroke="grey" stroke-width="5" />
<circle cx="456.71791981186607" cy="358.21360444737036" r="2.5" fill="grey" stroke="none" />
<circle cx="434.9191995" cy="366.80386704" r="5" fill="black" stroke="none" />
<circle cx="434.9191995" cy="286.80386704" r="5" fill="black" stroke="none" />
<path d="M434.91919949999993,286.80386704 A222.90828092024486,222.90828092024486,0,0,1,447.6187871004041,283.33364304076645" stroke="grey" stroke-width="5" fill="none" />
<path d="M447.6187871004041,283.33364304076645 L-65.08080050000001,-269.19613296" stroke="grey" stroke-width="5" />
<circle cx="447.6187871004041" cy="283.33364304076645" r="2.5" fill="grey" stroke="none" />
<circle cx="434.9191995" cy="286.80386704" r="5" fill="black" stroke="none" />
<circle cx="434.9191995" cy="230.80386704" r="5" fill="black" stroke="none" />
<path d="M434.9191995,286.80386704 L464.6123816072311,384.07482179014534" stroke="grey" stroke-width="5" />
<circle cx="464.6123816072311" cy="384.07482179014534" r="2.5" fill="grey" stroke="none" />
<path d="M464.6123816072311,384.07482179014534 A121.20614868272483,121.20614868272483,0,0,1,530.9191995,382.80386704" stroke="grey" stroke-width="5" fill="none" />
<circle cx="434.9191995" cy="286.80386704" r="5" fill="black" stroke="none" />
<circle cx="530.9191995" cy="382.80386704" r="5" fill="black" stroke="none" />
<path d="M434.9191995,366.80386704 L446.7896523739327,391.0982581222326" stroke="grey" stroke-width="5" />
<circle cx="446.7896523739327" cy="391.0982581222326" r="2.5" fill="grey" stroke="none" />
<path d="M446.7896523739327,391.0982581222326 A121.20614868272483,121.20614868272483,0,0,1,530.9191995,382.80386704" stroke="grey" stroke-width="5" fill="none" />
<circle cx="434.9191995" cy="366.80386704" r="5" fill="black" stroke="none" />
<circle cx="530.9191995" cy="382.80386704" r="5" fill="black" stroke="none" />
<path d="M530.9191995,382.80386704 L523.199614853404,412.06418047853015" stroke="grey" stroke-width="5" />
<circle cx="523.199614853404" cy="412.06418047853015" r="2.5" fill="grey" stroke="none" />
<path d="M523.199614853404,412.06418047853015 A90.94465616108951,90.94465616108951,0,0,1,578.9191995,454.80386704" stroke="grey" stroke-width="5" fill="none" />
<circle cx="530.9191995" cy="382.80386704" r="5" fill="black" stroke="none" />
<circle cx="578.9191995" cy="454.80386704" r="5" fill="black" stroke="none" />
<path d="M530.9191995,566.80386704 A73.61218342923132,73.61218342923132,0,0,0,546.7472165600741,556.8634442599491" stroke="grey" stroke-width="5" fill="none" />
<path d="M546.7472165600741,556.8634442599491 L54.91919949999999,66.80386704" stroke="grey" stroke-width="5" />
<circle cx="546.7472165600741" cy="556.8634442599491" r="2.5" fill="grey" stroke="none" />
<circle cx="530.9191995" cy="566.80386704" r="5" fill="black" stroke="none" />
<circle cx="554.9191995" cy="566.80386704" r="5" fill="black" stroke="none" />
<path d="M554.9191995,566.80386704 A86.4804898530229,86.4804898530229,0,0,0,566.0072614112446,555.8741135608111" stroke="grey" stroke-width="5" fill="none" />
<path d="M566.0072614112446,555.8741135608111 L78.91919949999999,66.80386704" stroke="grey" stroke-width="5" />
<circle cx="566.0072614112446" cy="555.8741135608111" r="2.5" fill="grey" stroke="none" />
<circle cx="554.9191995" cy="566.80386704" r="5" fill="black" stroke="none" />
<circle cx="578.9191995" cy="566.80386704" r="5" fill="black" stroke="none" />
<path d="M578.9191995,566.80386704 L560.7978387086501,551.464418787117" stroke="grey" stroke-width="5" />
<circle cx="560.7978387086501" cy="551.464418787117" r="2.5" fill="grey" stroke="none" />
<path d="M560.7978387086501,551.464418787117 A79.65527975431884,79.65527975431884,0,0,0,578.9191995,510.80386704" stroke="grey" stroke-width="5" fill="none" />
<circle cx="578.9191995" cy="566.80386704" r="5" fill="black" stroke="none" />
<circle cx="578.9191995" cy="510.80386704" r="5" fill="black" stroke="none" />
<path d="M578.9191995,510.80386704 L578.3592169753002,510.7272066483601" stroke="grey" stroke-width="5" />
<circle cx="578.3592169753002" cy="510.7272066483601" r="2.5" fill="grey" stroke="none" />
<path d="M578.3592169753002,510.7272066483601 A79.09007426636289,79.09007426636289,0,0,0,578.9191995,494.80386704" stroke="grey" stroke-width="5" fill="none" />
<circle cx="578.9191995" cy="510.80386704" r="5" fill="black" stroke="none" />
<circle cx="578.9191995" cy="494.80386704" r="5" fill="black" stroke="none" />
<path d="M578.9191995,494.80386704 A79.09007426636289,79.09007426636289,0,0,0,576.3830828712589,479.4850177055597" stroke="grey" stroke-width="5" fill="none" />
<path d="M576.3830828712589,479.4850177055597 L78.91919949999999,-21.19613296" stroke="grey" stroke-width="5" />
<circle cx="576.3830828712589" cy="479.4850177055597" r="2.5" fill="grey" stroke="none" />
<circle cx="578.9191995" cy="494.80386704" r="5" fill="black" stroke="none" />
<circle cx="578.9191995" cy="478.80386704" r="5" fill="black" stroke="none" />
<path d="M578.9191995,478.80386704 A81.71607003630803,81.71607003630803,0,0,0,570.9108935672742,459.3901332719558" stroke="grey" stroke-width="5" fill="none" />
<path d="M570.9108935672742,459.3901332719558 L78.91919949999999,-45.19613296" stroke="grey" stroke-width="5" />
<circle cx="570.9108935672742" cy="459.3901332719558" r="2.5" fill="grey" stroke="none" />
<circle cx="578.9191995" cy="478.80386704" r="5" fill="black" stroke="none" />
<circle cx="578.9191995" cy="454.80386704" r="5" fill="black" stroke="none" />
<path d="M578.9191995,454.80386704 A90.94465616108951,90.94465616108951,0,0,1,585.6746135109465,469.4911310598256" stroke="grey" stroke-width="5" fill="none" />
<path d="M585.6746135109465,469.4911310598256 L126.91919949999999,-45.19613296" stroke="grey" stroke-width="5" />
<circle cx="585.6746135109465" cy="469.4911310598256" r="2.5" fill="grey" stroke="none" />
<circle cx="578.9191995" cy="454.80386704" r="5" fill="black" stroke="none" />
<circle cx="626.9191995" cy="454.80386704" r="5" fill="black" stroke="none" />
<path d="M626.9191995,454.80386704 L619.6646717009132,457.3872161649647" stroke="grey" stroke-width="5" />
<circle cx="619.6646717009132" cy="457.3872161649647" r="2.5" fill="grey" stroke="none" />
<path d="M619.6646717009132,457.3872161649647 A127.0255210556477,127.0255210556477,0,0,1,626.9191995,494.80386704" stroke="grey" stroke-width="5" fill="none" />
<circle cx="626.9191995" cy="454.80386704" r="5" fill="black" stroke="none" />
<circle cx="626.9191995" cy="494.80386704" r="5" fill="black" stroke="none" />
<path d="M626.9191995,494.80386704 L579.0238751304537,496.7647246136919" stroke="grey" stroke-width="5" />
<circle cx="579.0238751304537" cy="496.7647246136919" r="2.5" fill="grey" stroke="none" />
<path d="M579.0238751304537,496.7647246136919 A79.09007426636289,79.09007426636289,0,0,0,578.9191995,494.80386704" stroke="grey" stroke-width="5" fill="none" />
<circle cx="626.9191995" cy="494.80386704" r="5" fill="black" stroke="none" />
<circle cx="578.9191995" cy="494.80386704" r="5" fill="black" stroke="none" />
<path d="M578.9191995,478.80386704 A81.71607003630803,81.71607003630803,0,0,1,580.9987873356797,489.1966416180832" stroke="grey" stroke-width="5" fill="none" />
<path d="M580.9987873356797,489.1966416180832 L158.9191995,-21.19613296" stroke="grey" stroke-width="5" />
<circle cx="580.9987873356797" cy="489.1966416180832" r="2.5" fill="grey" stroke="none" />
<circle cx="578.9191995" cy="478.80386704" r="5" fill="black" stroke="none" />
<circle cx="658.9191995" cy="478.80386704" r="5" fill="black" stroke="none" />
<circle cx="500" cy="500" r="5" fill="red" stroke="none" />
</svg>