<?xml version="1.0" encoding="UTF-8"?>
<svg xmlns="http://www.w3.org/2000/svg" xmlns:xlink="http://www.w3.org/1999/xlink"
     width="1000" height="1000" viewBox="0 0 1000 1000">
<defs>
</defs>
<rect x="0" y="0" width="1000" height="1000" fill="white" />
<path d="M141.11500000000007,334.3904 L168.06373812020917,346.82605415270234" stroke="grey" stroke-width="5" />
<circle cx="168.06373812020917" cy="346.82605415270234" r="2.5" fill="grey" stroke="none" />
<path d="M168.06373812020917,346.82605415270234 A365.5734394580109,365.5734394580109,0,0,0,141.11500000000007,430.3904" stroke="grey" stroke-width="5" fill="none" />
<circle cx="141.11500000000007" cy="334.3904" r="5" fill="black" stroke="none" />
<circle cx="141.11500000000007" cy="430.3904" r="5" fill="black" stroke="none" />
<path d="M141.11500000000007,430.3904 L210.20199481411413,443.7905646048527" stroke="grey" stroke-width="5" />
<circle cx="210.20199481411413" cy="443.7905646048527" r="2.5" fill="grey" stroke="none" />
<path d="M210.20199481411413,443.7905646048527 A295.1988896272477,295.1988896272477,0,0,0,205.11500000000007,486.3903999999999" stroke="grey" stroke-width="5" fill="none" />
<circle cx="141.11500000000007" cy="430.3904" r="5" fill="black" stroke="none" />
<circle cx="205.11500000000007" cy="486.3904" r="5" fill="black" stroke="none" />
<path d="M117.11500000000007,486.3904 L204.9874166340037,489.51381418812997" stroke="grey" stroke-width="5" />
<circle cx="204.9874166340037" cy="489.51381418812997" r="2.5" fill="grey" stroke="none" />
<path d="M204.9874166340037,489.51381418813014 A295.1988896272477,295.1988896272477,0,0,1,205.11500000000007,486.3903999999999" stroke="grey" stroke-width="5" fill="none" />
<circle cx="117.11500000000007" cy="486.3904" r="5" fill="black" stroke="none" />
<circle cx="205.11500000000007" cy="486.3904" r="5" fill="black" stroke="none" />
<path d="M205.11500000000007,486.3904 L276.5953869425008,489.68937917538244" stroke="grey" stroke-width="5" />
<circle cx="276.5953869425008" cy="489.68937917538244" r="2.5" fill="grey" stroke="none" />
<path d="M276.5953869425008,489.6893791753824 A223.6424155592136,223.6424155592136,0,0,0,277.115,518.3903999999999" stroke="grey" stroke-width="5" fill="none" />
<circle cx="205.11500000000007" cy="486.3904" r="5" fill="black" stroke="none" />
<circle cx="277.11500000000007" cy="518.3904" r="5" fill="black" stroke="none" />
<path d="M277.11500000000007,518.3904 L290.9864044346065,517.2458605464064" stroke="grey" stroke-width="5" />
<circle cx="290.9864044346065" cy="517.2458605464064" r="2.5" fill="grey" stroke="none" />
<path d="M290.9864044346065,517.2458605464064 A209.72387283559297,209.72387283559297,0,0,0,293.11500000000007,534.3903999999999" stroke="grey" stroke-width="5" fill="none" />
<circle cx="277.11500000000007" cy="518.3904" r="5" fill="black" stroke="none" />
<circle cx="293.11500000000007" cy="534.3904" r="5" fill="black" stroke="none" />
<path d="M293.11500000000007,534.3904 L315.4694397033479,530.6744315964231" stroke="grey" stroke-width="5" />
<circle cx="315.4694397033479" cy="530.6744315964231" r="2.5" fill="grey" stroke="none" />
<path d="M315.4694397033479,530.674431596423 A187.06268584931624,187.06268584931624,0,0,0,325.11500000000007,566.3904" stroke="grey" stroke-width="5" fill="none" />
<circle cx="293.11500000000007" cy="534.3904" r="5" fill="black" stroke="none" />
<circle cx="325.11500000000007" cy="566.3904" r="5" fill="black" stroke="none" />
<path d="M293.11500000000007,534.3903999999999 A209.72387283559297,209.72387283559297,0,0,0,315.6908097840055,600.0711009187186" stroke="grey" stroke-width="5" fill="none" />
<path d="M315.6908097840055,600.0711009187186 L245.11500000000007,638.3904" stroke="grey" stroke-width="5" />
<circle cx="315.6908097840055" cy="600.0711009187186" r="2.5" fill="grey" stroke="none" />
<circle cx="293.11500000000007" cy="534.3904" r="5" fill="black" stroke="none" />
<circle cx="245.11500000000007" cy="638.3904" r="5" fill="black" stroke="none" />
<path d="M245.1150000000001,638.3904 A290.03149145766906,290.03149145766906,0,0,0,279.7564729795772,688.7089156419597" stroke="grey" stroke-width="5" fill="none" />
<path d="M279.7564729795773,688.7089156419598 L245.11500000000007,718.3904" stroke="grey" stroke-width="5" />
<circle cx="279.7564729795773" cy="688.7089156419598" r="2.5" fill="grey" stroke="none" />
<circle cx="245.11500000000007" cy="638.3904" r="5" fill="black" stroke="none" />
<circle cx="245.11500000000007" cy="718.3904" r="5" fill="black" stroke="none" />
<path d="M141.11500000000007,734.3904 L218.976318415791,683.5386074536282" stroke="grey" stroke-width="5" />
<circle cx="218.976318415791" cy="683.5386074536282" r="2.5" fill="grey" stroke="none" />
<path d="M218.976318415791,683.5386074536282 A335.6497132981942,335.6497132981942,0,0,0,245.11499999999998,718.3903999999999" stroke="grey" stroke-width="5" fill="none" />
<circle cx="141.11500000000007" cy="734.3904" r="5" fill="black" stroke="none" />
<circle cx="245.11500000000007" cy="718.3904" r="5" fill="black" stroke="none" />
<path d="M245.11499999999998,718.3903999999999 A335.6497132981942,335.6497132981942,0,0,0,298.0567822687642,768.103835947035" stroke="grey" stroke-width="5" fill="none" />
<path d="M298.0567822687642,768.103835947035 L245.11500000000007,838.3904" stroke="grey" stroke-width="5" />
<circle cx="298.0567822687642" cy="768.103835947035" r="2.5" fill="grey" stroke="none" />
<circle cx="245.11500000000007" cy="718.3904" r="5" fill="black" stroke="none" />
<circle cx="245.11500000000007" cy="838.3904" r="5" fill="black" stroke="none" />
<path d="M245.11500000000007,638.3904 L304.0084005465651,606.4140920218948" stroke="grey" stroke-width="5" />
<circle cx="304.0084005465651" cy="606.4140920218948" r="2.5" fill="grey" stroke="none" />
<path d="M304.0084005465651,606.4140920218948 A223.0171877617507,223.0171877617507,0,0,0,325.11500000000007,638.3904" stroke="grey" stroke-width="5" fill="none" />
<circle cx="245.11500000000007" cy="638.3904" r="5" fill="black" stroke="none" />
<circle cx="325.11500000000007" cy="638.3904" r="5" fill="black" stroke="none" />
<path d="M325.11500000000007,566.3904 A187.06268584931624,187.06268584931624,0,0,0,353.309701628439,616.0793039297806" stroke="grey" stroke-width="5" fill="none" />
<path d="M353.309701628439,616.0793039297806 L325.11500000000007,638.3904" stroke="grey" stroke-width="5" />
<circle cx="353.309701628439" cy="616.0793039297806" r="2.5" fill="grey" stroke="none" />
<circle cx="325.11500000000007" cy="566.3904" r="5" fill="black" stroke="none" />
<circle cx="325.11500000000007" cy="638.3904" r="5" fill="black" stroke="none" />
<path d="M325.11500000000007,638.3904 L364.7726761962092,607.0083965585163" stroke="grey" stroke-width="5" />
<circle cx="364.7726761962092" cy="607.0083965585163" r="2.5" fill="grey" stroke="none" />
<path d="M364.7726761962092,607.0083965585163 A172.44484926248154,172.44484926248154,0,0,0,397.1150000000001,638.3904" stroke="grey" stroke-width="5" fill="none" />
<circle cx="325.11500000000007" cy="638.3904" r="5" fill="black" stroke="none" />
<circle cx="397.11500000000007" cy="638.3904" r="5" fill="black" stroke="none" />
<path d="M325.11500000000007,566.3904 L359.4485102010759,553.3566036443749" stroke="grey" stroke-width="5" />
<circle cx="359.4485102010759" cy="553.3566036443749" r="2.5" fill="grey" stroke="none" />
<path d="M359.4485102010759,553.3566036443749 A150.3384463041972,150.3384463041972,0,0,0,365.1150000000001,566.3904000000001" stroke="grey" stroke-width="5" fill="none" />
<circle cx="325.11500000000007" cy="566.3904" r="5" fill="black" stroke="none" />
<circle cx="365.11500000000007" cy="566.3904" r="5" fill="black" stroke="none" />
<path d="M397.11500000000007,638.3904 L440.62981144666304,579.85871742209" stroke="grey" stroke-width="5" />
<circle cx="440.62981144666304" cy="579.85871742209" r="2.5" fill="grey" stroke="none" />
<path d="M440.62981144666304,579.85871742209 A99.50996953652432,99.50996953652432,0,0,0,485.11500000000007,598.3904" stroke="grey" stroke-width="5" fill="none" />
<circle cx="397.11500000000007" cy="638.3904" r="5" fill="black" stroke="none" />
<circle cx="485.11500000000007" cy="598.3904" r="5" fill="black" stroke="none" />
<path d="M365.11500000000007,566.3904 L439.8751605880672,529.5934472958" stroke="grey" stroke-width="5" />
<circle cx="439.8751605880672" cy="529.5934472958" r="2.5" fill="grey" stroke="none" />
<path d="M439.8751605880672,529.5934472958 A67.01319599272968,67.01319599272968,0,0,0,509.11500000000007,566.3904" stroke="grey" stroke-width="5" fill="none" />
<circle cx="365.11500000000007" cy="566.3904" r="5" fill="black" stroke="none" />
<circle cx="509.11500000000007" cy="566.3904" r="5" fill="black" stroke="none" />
<path d="M485.11500000000007,598.3904 L489.975964951073,566.2592420609976" stroke="grey" stroke-width="5" />
<circle cx="489.975964951073" cy="566.2592420609976" r="2.5" fill="grey" stroke="none" />
<path d="M489.975964951073,566.2592420609976 A67.01319599272968,67.01319599272968,0,0,0,509.11500000000007,566.3904" stroke="grey" stroke-width="5" fill="none" />
<circle cx="485.11500000000007" cy="598.3904" r="5" fill="black" stroke="none" />
<circle cx="509.11500000000007" cy="566.3904" r="5" fill="black" stroke="none" />
<path d="M245.11500000000007,718.3904 L305.0773766919959,667.0134753841314" stroke="grey" stroke-width="5" />
<circle cx="305.0773766919959" cy="667.0134753841314" r="2.5" fill="grey" stroke="none" />
<path d="M305.0773766919958,667.0134753841314 A256.68722219300275,256.68722219300275,0,0,0,365.1150000000001,718.3904" stroke="grey" stroke-width="5" fill="none" />
<circle cx="245.11500000000007" cy="718.3904" r="5" fill="black" stroke="none" />
<circle cx="365.11500000000007" cy="718.3904" r="5" fill="black" stroke="none" />
<path d="M365.11500000000007,718.3904 L432.5178563646729,609.2593864505063" stroke="grey" stroke-width="5" />
<circle cx="432.5178563646729" cy="609.2593864505063" r="2.5" fill="grey" stroke="none" />
<path d="M432.5178563646729,609.2593864505063 A128.4190532481843,128.4190532481843,0,0,0,461.1150000000001,622.3904" stroke="grey" stroke-width="5" fill="none" />
<circle cx="365.11500000000007" cy="718.3904" r="5" fill="black" stroke="none" />
<circle cx="461.11500000000007" cy="622.3904" r="5" fill="black" stroke="none" />
<path d="M461.11500000000007,622.3904 L469.8686054167554,594.8384579041057" stroke="grey" stroke-width="5" />
<circle cx="469.8686054167554" cy="594.8384579041057" r="2.5" fill="grey" stroke="none" />
<path d="M469.86860541675543,594.8384579041057 A99.50996953652432,99.50996953652432,0,0,0,485.11500000000007,598.3904" stroke="grey" stroke-width="5" fill="none" />
<circle cx="461.11500000000007" cy="622.3904" r="5" fill="black" stroke="none" />
<circle cx="485.11500000000007" cy="598.3904" r="5" fill="black" stroke="none" />
<path d="M485.11500000000007,598.3904 A99.50996953652432,99.50996953652432,0,0,0,487.98621833132864,598.7820990219255" stroke="grey" stroke-width="5" fill="none" />
<path d="M487.98621833132864,598.7820990219255 L485.11500000000007,622.3904" stroke="grey" stroke-width="5" />
<circle cx="487.98621833132864" cy="598.7820990219255" r="2.5" fill="grey" stroke="none" />
<circle cx="485.11500000000007" cy="598.3904" r="5" fill="black" stroke="none" />
<circle cx="485.11500000000007" cy="622.3904" r="5" fill="black" stroke="none" />
<path d="M485.11500000000007,622.3904 A123.292226994081,123.292226994081,0,0,0,493.85729015142175,623.1391097615871" stroke="grey" stroke-width="5" fill="none" />
<path d="M493.8572901514217,623.1391097615871 L485.11500000000007,798.3904" stroke="grey" stroke-width="5" />
<circle cx="493.8572901514217" cy="623.1391097615871" r="2.5" fill="grey" stroke="none" />
<circle cx="485.11500000000007" cy="622.3904" r="5" fill="black" stroke="none" />
<circle cx="485.11500000000007" cy="798.3904" r="5" fill="black" stroke="none" />
<path d="M485.1150000000001,798.3904 A298.76143331621637,298.76143331621637,0,0,0,578.371713927263,788.2989221160274" stroke="grey" stroke-width="5" fill="none" />
<path d="M578.371713927263,788.2989221160274 L581.115,798.3904" stroke="grey" stroke-width="5" />
<circle cx="578.371713927263" cy="788.2989221160274" r="2.5" fill="grey" stroke="none" />
<circle cx="485.11500000000007" cy="798.3904" r="5" fill="black" stroke="none" />
<circle cx="581.115" cy="798.3904" r="5" fill="black" stroke="none" />
<path d="M485.1150000000001,798.3904 A298.76143331621637,298.76143331621637,0,0,0,487.173536844047,798.4859726688492" stroke="grey" stroke-width="5" fill="none" />
<path d="M487.173536844047,798.4859726688492 L485.11500000000007,846.3904" stroke="grey" stroke-width="5" />
<circle cx="487.173536844047" cy="798.4859726688492" r="2.5" fill="grey" stroke="none" />
<circle cx="485.11500000000007" cy="798.3904" r="5" fill="black" stroke="none" />
<circle cx="485.11500000000007" cy="846.3904" r="5" fill="black" stroke="none" />
<path d="M173.11500000000007,422.3904 L348.5901101277815,464.0520030315648" stroke="grey" stroke-width="5" />
<circle cx="348.5901101277815" cy="464.0520030315648" r="2.5" fill="grey" stroke="none" />
<path d="M348.5901101277815,464.0520030315648 A155.61880746606425,155.61880746606425,0,0,1,365.1150000000001,422.39039999999994" stroke="grey" stroke-width="5" fill="none" />
<circle cx="173.11500000000007" cy="422.3904" r="5" fill="black" stroke="none" />
<circle cx="365.11500000000007" cy="422.3904" r="5" fill="black" stroke="none" />
<path d="M365.11500000000007,422.3904 L369.69183442583744,425.0238009641952" stroke="grey" stroke-width="5" />
<circle cx="369.69183442583744" cy="425.0238009641952" r="2.5" fill="grey" stroke="none" />
<path d="M369.69183442583744,425.0238009641952 A150.3384463041972,150.3384463041972,0,0,0,365.1150000000001,566.3904000000001" stroke="grey" stroke-width="5" fill="none" />
<circle cx="365.11500000000007" cy="422.3904" r="5" fill="black" stroke="none" />
<circle cx="365.11500000000007" cy="566.3904" r="5" fill="black" stroke="none" />
<path d="M365.1150000000001,422.39039999999994 A155.61880746606425,155.61880746606425,0,0,1,398.8150081941853,381.76797950463174" stroke="grey" stroke-width="5" fill="none" />
<path d="M398.8150081941853,381.76797950463174 L365.11500000000007,342.3904" stroke="grey" stroke-width="5" />
<circle cx="398.8150081941853" cy="381.76797950463174" r="2.5" fill="grey" stroke="none" />
<circle cx="365.11500000000007" cy="422.3904" r="5" fill="black" stroke="none" />
<circle cx="365.11500000000007" cy="342.3904" r="5" fill="black" stroke="none" />
<path d="M365.1150000000001,342.3904 A207.44818446339795,207.44818446339795,0,0,1,389.2395773504129,324.5951026577512" stroke="grey" stroke-width="5" fill="none" />
<path d="M389.239577350413,324.5951026577512 L365.11500000000007,286.3904" stroke="grey" stroke-width="5" />
<circle cx="389.239577350413" cy="324.5951026577512" r="2.5" fill="grey" stroke="none" />
<circle cx="365.11500000000007" cy="342.3904" r="5" fill="black" stroke="none" />
<circle cx="365.11500000000007" cy="286.3904" r="5" fill="black" stroke="none" />
<path d="M365.11500000000007,342.3904 L452.6291997183163,444.6484569516547" stroke="grey" stroke-width="5" />
<circle cx="452.6291997183163" cy="444.6484569516547" r="2.5" fill="grey" stroke="none" />
<path d="M452.6291997183163,444.6484569516547 A72.85455399053647,72.85455399053647,0,0,1,461.11500000000007,438.3904" stroke="grey" stroke-width="5" fill="none" />
<circle cx="365.11500000000007" cy="342.3904" r="5" fill="black" stroke="none" />
<circle cx="461.11500000000007" cy="438.3904" r="5" fill="black" stroke="none" />
<path d="M365.11500000000007,422.3904 L436.8521923858305,463.6662631885484" stroke="grey" stroke-width="5" />
<circle cx="436.8521923858305" cy="463.6662631885484" r="2.5" fill="grey" stroke="none" />
<path d="M436.85219238583056,463.6662631885484 A72.85455399053647,72.85455399053647,0,0,1,461.11500000000007,438.3904" stroke="grey" stroke-width="5" fill="none" />
<circle cx="365.11500000000007" cy="422.3904" r="5" fill="black" stroke="none" />
<circle cx="461.11500000000007" cy="438.3904" r="5" fill="black" stroke="none" />
<path d="M461.11500000000007,438.3904 L492.62279777849557,488.3115217182461" stroke="grey" stroke-width="5" />
<circle cx="492.62279777849557" cy="488.3115217182461" r="2.5" fill="grey" stroke="none" />
<path d="M492.62279777849557,488.3115217182461 A13.821853607964497,13.821853607964497,0,0,1,509.11500000000007,510.3904" stroke="grey" stroke-width="5" fill="none" />
<circle cx="461.11500000000007" cy="438.3904" r="5" fill="black" stroke="none" />
<circle cx="509.11500000000007" cy="510.3904" r="5" fill="black" stroke="none" />
<path d="M461.11500000000007,622.3904 L462.66739143918574,617.5042534345247" stroke="grey" stroke-width="5" />
<circle cx="462.66739143918574" cy="617.5042534345247" r="2.5" fill="grey" stroke="none" />
<path d="M462.66739143918574,617.5042534345247 A123.292226994081,123.292226994081,0,0,0,485.11500000000007,622.3904" stroke="grey" stroke-width="5" fill="none" />
<circle cx="461.11500000000007" cy="622.3904" r="5" fill="black" stroke="none" />
<circle cx="485.11500000000007" cy="622.3904" r="5" fill="black" stroke="none" />
<path d="M485.11500000000007,622.3904 L485.1829558735391,621.8316397349822" stroke="grey" stroke-width="5" />
<circle cx="485.1829558735391" cy="621.8316397349822" r="2.5" fill="grey" stroke="none" />
<path d="M485.1829558735391,621.8316397349822 A122.72934953449399,122.72934953449399,0,0,0,509.11500000000007,622.3904" stroke="grey" stroke-width="5" fill="none" />
<circle cx="485.11500000000007" cy="622.3904" r="5" fill="black" stroke="none" />
<circle cx="509.11500000000007" cy="622.3904" r="5" fill="black" stroke="none" />
<path d="M509.11500000000007,622.3904 L504.9770106644463,566.8281213412886" stroke="grey" stroke-width="5" />
<circle cx="504.9770106644463" cy="566.8281213412886" r="2.5" fill="grey" stroke="none" />
<path d="M504.9770106644463,566.8281213412886 A67.01319599272968,67.01319599272968,0,0,0,509.11500000000007,566.3904" stroke="grey" stroke-width="5" fill="none" />
<circle cx="509.11500000000007" cy="622.3904" r="5" fill="black" stroke="none" />
<circle cx="509.11500000000007" cy="566.3904" r="5" fill="black" stroke="none" />
<path d="M509.11500000000007,566.3904 L506.96523080701553,550.7322500680287" stroke="grey" stroke-width="5" />
<circle cx="506.96523080701553" cy="550.7322500680287" r="2.5" fill="grey" stroke="none" />
<path d="M506.96523080701553,550.7322500680287 A51.20815986891153,51.20815986891153,0,0,0,509.11500000000007,550.3904" stroke="grey" stroke-width="5" fill="none" />
<circle cx="509.11500000000007" cy="566.3904" r="5" fill="black" stroke="none" />
<circle cx="509.11500000000007" cy="550.3904" r="5" fill="black" stroke="none" />
<path d="M509.11500000000007,550.3904 L506.3328194201856,535.0096877357014" stroke="grey" stroke-width="5" />
<circle cx="506.3328194201856" cy="535.0096877357014" r="2.5" fill="grey" stroke="none" />
<path d="M506.3328194201856,535.0096877357014 A35.57784194073611,35.57784194073611,0,0,0,509.11500000000007,534.3904" stroke="grey" stroke-width="5" fill="none" />
<circle cx="509.11500000000007" cy="550.3904" r="5" fill="black" stroke="none" />
<circle cx="509.11500000000007" cy="534.3904" r="5" fill="black" stroke="none" />
<path d="M509.11500000000007,534.3904 L503.54114214815104,513.3605370193937" stroke="grey" stroke-width="5" />
<circle cx="503.54114214815104" cy="513.3605370193937" r="2.5" fill="grey" stroke="none" />
<path d="M503.54114214815104,513.3605370193937 A13.821853607964497,13.821853607964497,0,0,0,509.11500000000007,510.3904" stroke="grey" stroke-width="5" fill="none" />
<circle cx="509.11500000000007" cy="534.3904" r="5" fill="black" stroke="none" />
<circle cx="509.11500000000007" cy="510.3904" r="5" fill="black" stroke="none" />
<path d="M509.11500000000007,510.3904 A13.821853607964497,13.821853607964497,0,0,0,513.5986604690964,502.47387764576905" stroke="grey" stroke-width="5" fill="none" />
<path d="M513.5986604690964,502.47387764576905 L557.115,510.3904" stroke="grey" stroke-width="5" />
<circle cx="513.5986604690964" cy="502.47387764576905" r="2.5" fill="grey" stroke="none" />
<circle cx="509.11500000000007" cy="510.3904" r="5" fill="black" stroke="none" />
<circle cx="557.115" cy="510.3904" r="5" fill="black" stroke="none" />
<path d="M557.115,510.3904 A58.05242145819593,58.05242145819593,0,0,1,543.5318649440586,538.4065147032668" stroke="grey" stroke-width="5" fill="none" />
<path d="M543.5318649440586,538.4065147032668 L557.115,550.3904" stroke="grey" stroke-width="5" />
<circle cx="543.5318649440586" cy="538.4065147032668" r="2.5" fill="grey" stroke="none" />
<circle cx="557.115" cy="510.3904" r="5" fill="black" stroke="none" />
<circle cx="557.115" cy="550.3904" r="5" fill="black" stroke="none" />
<path d="M557.115,550.3904 L538.3995472273706,533.8784652824318" stroke="grey" stroke-width="5" />
<circle cx="538.3995472273706" cy="533.8784652824318" r="2.5" fill="grey" stroke="none" />
<path d="M538.3995472273706,533.8784652824318 A51.20815986891153,51.20815986891153,0,0,1,509.11500000000007,550.3904" stroke="grey" stroke-width="5" fill="none" />
<circle cx="557.115" cy="550.3904" r="5" fill="black" stroke="none" />
<circle cx="509.11500000000007" cy="550.3904" r="5" fill="black" stroke="none" />
<path d="M509.11500000000007,534.3904 A35.57784194073611,35.57784194073611,0,0,0,533.1920000979746,512.8091360620477" stroke="grey" stroke-width="5" fill="none" />
<path d="M533.1920000979746,512.8091360620477 L589.115,534.3904" stroke="grey" stroke-width="5" />
<circle cx="533.1920000979746" cy="512.8091360620477" r="2.5" fill="grey" stroke="none" />
<circle cx="509.11500000000007" cy="534.3904" r="5" fill="black" stroke="none" />
<circle cx="589.115" cy="534.3904" r="5" fill="black" stroke="none" />
<circle cx="500" cy="500" r="5" fill="red" stroke="none" />
</svg>