<?xml version="1.0" encoding="UTF-8"?>
<svg xmlns="http://www.w3.org/2000/svg" xmlns:xlink="http://www.w3.org/1999/xlink"
     width="1000" height="1000" viewBox="0 0 1000 1000">
<defs>
</defs>
<rect x="0" y="0" width="1000" height="1000" fill="white" />
<path d="M165.52943950000002,313.17871184 L197.4193514589346,330.99108499048293" stroke="grey" stroke-width="5" />
<circle cx="197.4193514589346" cy="330.99108499048293" r="2.5" fill="grey" stroke="none" />
<path d="M197.4193514589346,330.99108499048293 A346.58197042579394,346.58197042579394,0,0,0,165.52943949999997,409.1787118400001" stroke="grey" stroke-width="5" fill="none" />
<circle cx="165.52943950000002" cy="313.17871184" r="5" fill="black" stroke="none" />
<circle cx="165.52943950000002" cy="409.17871184" r="5" fill="black" stroke="none" />
<path d="M165.52943950000002,409.17871184 L236.82682891363322,428.5386242320244" stroke="grey" stroke-width="5" />
<circle cx="236.82682891363322" cy="428.5386242320244" r="2.5" fill="grey" stroke="none" />
<path d="M236.82682891363316,428.5386242320245 A272.70285331529976,272.70285331529976,0,0,0,229.52943950000002,465.17871183999995" stroke="grey" stroke-width="5" fill="none" />
<circle cx="165.52943950000002" cy="409.17871184" r="5" fill="black" stroke="none" />
<circle cx="229.52943950000002" cy="465.17871184" r="5" fill="black" stroke="none" />
<path d="M141.52943950000002,465.17871184 L228.57470905288096,473.634157692619" stroke="grey" stroke-width="5" />
<circle cx="228.57470905288096" cy="473.634157692619" r="2.5" fill="grey" stroke="none" />
<path d="M228.57470905288096,473.634157692619 A272.70285331529976,272.70285331529976,0,0,1,229.52943950000002,465.17871183999995" stroke="grey" stroke-width="5" fill="none" />
<circle cx="141.52943950000002" cy="465.17871184" r="5" fill="black" stroke="none" />
<circle cx="229.52943950000002" cy="465.17871184" r="5" fill="black" stroke="none" />
<path d="M229.52943950000002,465.17871184 L303.1341937610403,474.6548350577417" stroke="grey" stroke-width="5" />
<circle cx="303.1341937610403" cy="474.6548350577417" r="2.5" fill="grey" stroke="none" />
<path d="M303.1341937610403,474.6548350577417 A198.49061199982708,198.49061199982708,0,0,0,301.5294395000001,497.17871184" stroke="grey" stroke-width="5" fill="none" />
<circle cx="229.52943950000002" cy="465.17871184" r="5" fill="black" stroke="none" />
<circle cx="301.5294395" cy="497.17871184" r="5" fill="black" stroke="none" />
<path d="M301.5294395,497.17871184 L317.0726315448227,497.3996605972071" stroke="grey" stroke-width="5" />
<circle cx="317.0726315448227" cy="497.3996605972071" r="2.5" fill="grey" stroke="none" />
<path d="M317.0726315448227,497.3996605972071 A182.94584962481633,182.94584962481633,0,0,0,317.5294395,513.17871184" stroke="grey" stroke-width="5" fill="none" />
<circle cx="301.5294395" cy="497.17871184" r="5" fill="black" stroke="none" />
<circle cx="317.5294395" cy="513.17871184" r="5" fill="black" stroke="none" />
<path d="M317.5294395,513.17871184 L343.30149009263243,511.3173571789767" stroke="grey" stroke-width="5" />
<circle cx="343.30149009263243" cy="511.3173571789767" r="2.5" fill="grey" stroke="none" />
<path d="M343.30149009263243,511.31735717897675 A157.10666943419656,157.10666943419656,0,0,0,349.5294395,545.17871184" stroke="grey" stroke-width="5" fill="none" />
<circle cx="317.5294395" cy="513.17871184" r="5" fill="black" stroke="none" />
<circle cx="349.5294395" cy="545.17871184" r="5" fill="black" stroke="none" />
<path d="M317.5294395,513.17871184 A182.94584962481633,182.94584962481633,0,0,0,336.9220145891727,582.9141397428201" stroke="grey" stroke-width="5" fill="none" />
<path d="M336.9220145891727,582.9141397428201 L269.5294395,617.17871184" stroke="grey" stroke-width="5" />
<circle cx="336.9220145891727" cy="582.9141397428201" r="2.5" fill="grey" stroke="none" />
<circle cx="317.5294395" cy="513.17871184" r="5" fill="black" stroke="none" />
<circle cx="269.5294395" cy="617.17871184" r="5" fill="black" stroke="none" />
<path d="M269.5294395,617.17871184 A258.54889240850736,258.54889240850736,0,0,0,303.54034570492365,668.0807365521849" stroke="grey" stroke-width="5" fill="none" />
<path d="M303.54034570492365,668.0807365521849 L269.5294395,697.17871184" stroke="grey" stroke-width="5" />
<circle cx="303.54034570492365" cy="668.0807365521849" r="2.5" fill="grey" stroke="none" />
<circle cx="269.5294395" cy="617.17871184" r="5" fill="black" stroke="none" />
<circle cx="269.5294395" cy="697.17871184" r="5" fill="black" stroke="none" />
<path d="M165.52943950000002,713.17871184 L244.22587811527094,663.0206190460632" stroke="grey" stroke-width="5" />
<circle cx="244.22587811527094" cy="663.0206190460632" r="2.5" fill="grey" stroke="none" />
<path d="M244.22587811527094,663.0206190460632 A303.3086277375998,303.3086277375998,0,0,0,269.5294395000001,697.17871184" stroke="grey" stroke-width="5" fill="none" />
<circle cx="165.52943950000002" cy="713.17871184" r="5" fill="black" stroke="none" />
<circle cx="269.5294395" cy="697.17871184" r="5" fill="black" stroke="none" />
<path d="M269.5294395000001,697.17871184 A303.3086277375998,303.3086277375998,0,0,0,321.70612398043556,745.3719980641354" stroke="grey" stroke-width="5" fill="none" />
<path d="M321.70612398043545,745.3719980641354 L269.5294395,817.17871184" stroke="grey" stroke-width="5" />
<circle cx="321.70612398043545" cy="745.3719980641354" r="2.5" fill="grey" stroke="none" />
<circle cx="269.5294395" cy="697.17871184" r="5" fill="black" stroke="none" />
<circle cx="269.5294395" cy="817.17871184" r="5" fill="black" stroke="none" />
<path d="M269.5294395,617.17871184 L329.9965241594642,586.4352838128173" stroke="grey" stroke-width="5" />
<circle cx="329.9965241594642" cy="586.4352838128173" r="2.5" fill="grey" stroke="none" />
<path d="M329.9965241594642,586.4352838128173 A190.71507566436878,190.71507566436878,0,0,0,349.5294395,617.17871184" stroke="grey" stroke-width="5" fill="none" />
<circle cx="269.5294395" cy="617.17871184" r="5" fill="black" stroke="none" />
<circle cx="349.5294395" cy="617.17871184" r="5" fill="black" stroke="none" />
<path d="M349.5294395,545.17871184 A157.10666943419656,157.10666943419656,0,0,0,376.0458315856757,596.5291132944835" stroke="grey" stroke-width="5" fill="none" />
<path d="M376.0458315856757,596.5291132944835 L349.5294395,617.17871184" stroke="grey" stroke-width="5" />
<circle cx="376.0458315856757" cy="596.5291132944835" r="2.5" fill="grey" stroke="none" />
<circle cx="349.5294395" cy="545.17871184" r="5" fill="black" stroke="none" />
<circle cx="349.5294395" cy="617.17871184" r="5" fill="black" stroke="none" />
<path d="M349.5294395,617.17871184 L388.7327629866903,586.6491854612026" stroke="grey" stroke-width="5" />
<circle cx="388.7327629866903" cy="586.6491854612026" r="2.5" fill="grey" stroke="none" />
<path d="M388.7327629866903,586.6491854612026 A141.0265201076234,141.0265201076234,0,0,0,421.5294395000001,617.17871184" stroke="grey" stroke-width="5" fill="none" />
<circle cx="349.5294395" cy="617.17871184" r="5" fill="black" stroke="none" />
<circle cx="421.5294395" cy="617.17871184" r="5" fill="black" stroke="none" />
<path d="M349.5294395,545.17871184 L385.68952728550227,534.3216632536069" stroke="grey" stroke-width="5" />
<circle cx="385.68952728550227" cy="534.3216632536069" r="2.5" fill="grey" stroke="none" />
<path d="M385.6895272855023,534.3216632536069 A119.3518359335369,119.3518359335369,0,0,0,389.5294395000001,545.17871184" stroke="grey" stroke-width="5" fill="none" />
<circle cx="349.5294395" cy="545.17871184" r="5" fill="black" stroke="none" />
<circle cx="389.5294395" cy="545.17871184" r="5" fill="black" stroke="none" />
<path d="M421.5294395,617.17871184 L456.7297890731402,564.6146471383306" stroke="grey" stroke-width="5" />
<circle cx="456.7297890731402" cy="564.6146471383306" r="2.5" fill="grey" stroke="none" />
<path d="M456.72978907314024,564.6146471383306 A77.76479781022978,77.76479781022978,0,0,0,509.5294395,577.17871184" stroke="grey" stroke-width="5" fill="none" />
<circle cx="421.5294395" cy="617.17871184" r="5" fill="black" stroke="none" />
<circle cx="509.5294395" cy="577.17871184" r="5" fill="black" stroke="none" />
<path d="M389.5294395,545.17871184 L447.92520251851266,521.2968256782084" stroke="grey" stroke-width="5" />
<circle cx="447.92520251851266" cy="521.2968256782084" r="2.5" fill="grey" stroke="none" />
<path d="M447.92520251851266,521.2968256782084 A56.26134833707702,56.26134833707702,0,0,0,533.5294395000001,545.17871184" stroke="grey" stroke-width="5" fill="none" />
<circle cx="389.5294395" cy="545.17871184" r="5" fill="black" stroke="none" />
<circle cx="533.5294395000001" cy="545.17871184" r="5" fill="black" stroke="none" />
<path d="M509.5294395,577.17871184 L506.89436776361134,555.8373263135512" stroke="grey" stroke-width="5" />
<circle cx="506.89436776361134" cy="555.8373263135512" r="2.5" fill="grey" stroke="none" />
<path d="M506.89436776361134,555.8373263135512 A56.26134833707702,56.26134833707702,0,0,0,533.5294395000001,545.17871184" stroke="grey" stroke-width="5" fill="none" />
<circle cx="509.5294395" cy="577.17871184" r="5" fill="black" stroke="none" />
<circle cx="533.5294395000001" cy="545.17871184" r="5" fill="black" stroke="none" />
<path d="M269.5294395,697.17871184 L328.2606973377174,646.9312800636366" stroke="grey" stroke-width="5" />
<circle cx="328.2606973377174" cy="646.9312800636366" r="2.5" fill="grey" stroke="none" />
<path d="M328.2606973377174,646.9312800636366 A226.0159046174979,226.0159046174979,0,0,0,389.5294395,697.17871184" stroke="grey" stroke-width="5" fill="none" />
<circle cx="269.5294395" cy="697.17871184" r="5" fill="black" stroke="none" />
<circle cx="389.5294395" cy="697.17871184" r="5" fill="black" stroke="none" />
<path d="M389.5294395,697.17871184 L450.04332095104775,589.1675897912795" stroke="grey" stroke-width="5" />
<circle cx="450.04332095104775" cy="589.1675897912795" r="2.5" fill="grey" stroke="none" />
<path d="M450.04332095104775,589.1675897912795 A102.20826214541522,102.20826214541522,0,0,0,485.52943949999997,601.17871184" stroke="grey" stroke-width="5" fill="none" />
<circle cx="389.5294395" cy="697.17871184" r="5" fill="black" stroke="none" />
<circle cx="485.5294395" cy="601.17871184" r="5" fill="black" stroke="none" />
<path d="M485.5294395,601.17871184 L488.99012479165145,576.9814680709748" stroke="grey" stroke-width="5" />
<circle cx="488.99012479165145" cy="576.9814680709748" r="2.5" fill="grey" stroke="none" />
<path d="M488.99012479165145,576.9814680709748 A77.76479781022978,77.76479781022978,0,0,0,509.5294395,577.17871184" stroke="grey" stroke-width="5" fill="none" />
<circle cx="485.5294395" cy="601.17871184" r="5" fill="black" stroke="none" />
<circle cx="509.5294395" cy="577.17871184" r="5" fill="black" stroke="none" />
<path d="M509.5294395,577.17871184 A77.76479781022978,77.76479781022978,0,0,1,507.29194711535774,577.4221627554588" stroke="grey" stroke-width="5" fill="none" />
<path d="M507.29194711535774,577.4221627554588 L509.5294395,601.17871184" stroke="grey" stroke-width="5" />
<circle cx="507.29194711535774" cy="577.4221627554588" r="2.5" fill="grey" stroke="none" />
<circle cx="509.5294395" cy="577.17871184" r="5" fill="black" stroke="none" />
<circle cx="509.5294395" cy="601.17871184" r="5" fill="black" stroke="none" />
<path d="M509.5294395,601.17871184 A101.62648250719847,101.62648250719847,0,0,1,503.49186837023746,601.5664747939538" stroke="grey" stroke-width="5" fill="none" />
<path d="M503.49186837023746,601.5664747939538 L509.5294395,777.17871184" stroke="grey" stroke-width="5" />
<circle cx="503.49186837023746" cy="601.5664747939538" r="2.5" fill="grey" stroke="none" />
<circle cx="509.5294395" cy="601.17871184" r="5" fill="black" stroke="none" />
<circle cx="509.5294395" cy="777.17871184" r="5" fill="black" stroke="none" />
<path d="M509.52943949999997,777.17871184 A277.3424751358254,277.3424751358254,0,0,0,598.6816260590605,759.1925639226667" stroke="grey" stroke-width="5" fill="none" />
<path d="M598.6816260590605,759.1925639226667 L605.5294395000001,777.17871184" stroke="grey" stroke-width="5" />
<circle cx="598.6816260590605" cy="759.1925639226667" r="2.5" fill="grey" stroke="none" />
<circle cx="509.5294395" cy="777.17871184" r="5" fill="black" stroke="none" />
<circle cx="605.5294395000001" cy="777.17871184" r="5" fill="black" stroke="none" />
<path d="M509.52943949999997,777.17871184 A277.3424751358254,277.3424751358254,0,0,1,508.12409947734454,777.2234613486892" stroke="grey" stroke-width="5" fill="none" />
<path d="M508.12409947734454,777.2234613486892 L509.5294395,825.17871184" stroke="grey" stroke-width="5" />
<circle cx="508.12409947734454" cy="777.2234613486892" r="2.5" fill="grey" stroke="none" />
<circle cx="509.5294395" cy="777.17871184" r="5" fill="black" stroke="none" />
<circle cx="509.5294395" cy="825.17871184" r="5" fill="black" stroke="none" />
<path d="M197.52943950000002,401.17871184 L359.1081581725029,453.9686993748661" stroke="grey" stroke-width="5" />
<circle cx="359.1081581725029" cy="453.9686993748661" r="2.5" fill="grey" stroke="none" />
<path d="M359.1081581725029,453.9686993748661 A148.22075337410044,148.22075337410044,0,0,1,389.5294395,401.17871184" stroke="grey" stroke-width="5" fill="none" />
<circle cx="197.52943950000002" cy="401.17871184" r="5" fill="black" stroke="none" />
<circle cx="389.5294395" cy="401.17871184" r="5" fill="black" stroke="none" />
<path d="M389.5294395,401.17871184 L411.04576172943854,420.4261083369043" stroke="grey" stroke-width="5" />
<circle cx="411.04576172943854" cy="420.4261083369043" r="2.5" fill="grey" stroke="none" />
<path d="M411.04576172943854,420.4261083369043 A119.3518359335369,119.3518359335369,0,0,0,389.5294395000001,545.17871184" stroke="grey" stroke-width="5" fill="none" />
<circle cx="389.5294395" cy="401.17871184" r="5" fill="black" stroke="none" />
<circle cx="389.5294395" cy="545.17871184" r="5" fill="black" stroke="none" />
<path d="M389.5294395,401.17871184 A148.22075337410044,148.22075337410044,0,0,1,422.09975981048933,373.90105349685723" stroke="grey" stroke-width="5" fill="none" />
<path d="M422.09975981048933,373.90105349685723 L389.5294395,321.17871184" stroke="grey" stroke-width="5" />
<circle cx="422.09975981048933" cy="373.90105349685723" r="2.5" fill="grey" stroke="none" />
<circle cx="389.5294395" cy="401.17871184" r="5" fill="black" stroke="none" />
<circle cx="389.5294395" cy="321.17871184" r="5" fill="black" stroke="none" />
<path d="M389.52943949999997,321.17871184 A210.19228776619258,210.19228776619258,0,0,1,410.52301153174085,309.8036110462742" stroke="grey" stroke-width="5" fill="none" />
<path d="M410.52301153174085,309.8036110462742 L389.5294395,265.17871184" stroke="grey" stroke-width="5" />
<circle cx="410.52301153174085" cy="309.8036110462742" r="2.5" fill="grey" stroke="none" />
<circle cx="389.5294395" cy="321.17871184" r="5" fill="black" stroke="none" />
<circle cx="389.5294395" cy="265.17871184" r="5" fill="black" stroke="none" />
<path d="M389.5294395,321.17871184 L455.8122907650332,428.47231832198145" stroke="grey" stroke-width="5" />
<circle cx="455.8122907650332" cy="428.47231832198145" r="2.5" fill="grey" stroke="none" />
<path d="M455.8122907650332,428.47231832198145 A84.07593528273067,84.07593528273067,0,0,1,485.5294395,417.17871184" stroke="grey" stroke-width="5" fill="none" />
<circle cx="389.5294395" cy="321.17871184" r="5" fill="black" stroke="none" />
<circle cx="485.5294395" cy="417.17871184" r="5" fill="black" stroke="none" />
<path d="M389.5294395,401.17871184 L437.33727913389544,443.9451491187196" stroke="grey" stroke-width="5" />
<circle cx="437.33727913389544" cy="443.9451491187196" r="2.5" fill="grey" stroke="none" />
<path d="M437.33727913389544,443.9451491187196 A84.07593528273067,84.07593528273067,0,0,1,485.5294395,417.17871184" stroke="grey" stroke-width="5" fill="none" />
<circle cx="389.5294395" cy="401.17871184" r="5" fill="black" stroke="none" />
<circle cx="485.5294395" cy="417.17871184" r="5" fill="black" stroke="none" />
<path d="M485.5294395,417.17871184 L493.9360424752907,465.29334343725344" stroke="grey" stroke-width="5" />
<circle cx="493.9360424752907" cy="465.29334343725344" r="2.5" fill="grey" stroke="none" />
<path d="M493.9360424752907,465.29334343725344 A35.2324224348244,35.2324224348244,0,0,1,533.5294395,489.17871184" stroke="grey" stroke-width="5" fill="none" />
<circle cx="485.5294395" cy="417.17871184" r="5" fill="black" stroke="none" />
<circle cx="533.5294395000001" cy="489.17871184" r="5" fill="black" stroke="none" />
<path d="M485.5294395,601.17871184 L485.6118073759013,600.6027925049685" stroke="grey" stroke-width="5" />
<circle cx="485.6118073759013" cy="600.6027925049685" r="2.5" fill="grey" stroke="none" />
<path d="M485.6118073759013,600.6027925049685 A101.62648250719847,101.62648250719847,0,0,0,509.5294395,601.17871184" stroke="grey" stroke-width="5" fill="none" />
<circle cx="485.5294395" cy="601.17871184" r="5" fill="black" stroke="none" />
<circle cx="509.5294395" cy="601.17871184" r="5" fill="black" stroke="none" />
<path d="M509.5294395,601.17871184 A101.62648250719847,101.62648250719847,0,0,0,531.9681954442754,596.4674889629792" stroke="grey" stroke-width="5" fill="none" />
<path d="M531.9681954442754,596.4674889629792 L533.5294395000001,601.17871184" stroke="grey" stroke-width="5" />
<circle cx="531.9681954442754" cy="596.4674889629792" r="2.5" fill="grey" stroke="none" />
<circle cx="509.5294395" cy="601.17871184" r="5" fill="black" stroke="none" />
<circle cx="533.5294395000001" cy="601.17871184" r="5" fill="black" stroke="none" />
<path d="M533.5294395000001,601.17871184 L517.6978847956361,553.4052824209957" stroke="grey" stroke-width="5" />
<circle cx="517.6978847956361" cy="553.4052824209957" r="2.5" fill="grey" stroke="none" />
<path d="M517.6978847956361,553.4052824209957 A56.26134833707702,56.26134833707702,0,0,0,533.5294395000001,545.17871184" stroke="grey" stroke-width="5" fill="none" />
<circle cx="533.5294395000001" cy="601.17871184" r="5" fill="black" stroke="none" />
<circle cx="533.5294395000001" cy="545.17871184" r="5" fill="black" stroke="none" />
<path d="M533.5294395000001,545.17871184 L526.4891439605274,535.6923771982811" stroke="grey" stroke-width="5" />
<circle cx="526.4891439605274" cy="535.6923771982811" r="2.5" fill="grey" stroke="none" />
<path d="M526.4891439605274,535.6923771982811 A44.44795313426613,44.44795313426613,0,0,0,533.5294395000001,529.17871184" stroke="grey" stroke-width="5" fill="none" />
<circle cx="533.5294395000001" cy="545.17871184" r="5" fill="black" stroke="none" />
<circle cx="533.5294395000001" cy="529.17871184" r="5" fill="black" stroke="none" />
<path d="M533.5294395000001,529.17871184 L527.1766197527215,523.6502240531015" stroke="grey" stroke-width="5" />
<circle cx="527.1766197527215" cy="523.6502240531015" r="2.5" fill="grey" stroke="none" />
<path d="M527.1766197527215,523.6502240531015 A36.02640363602671,36.02640363602671,0,0,0,533.5294395000001,513.17871184" stroke="grey" stroke-width="5" fill="none" />
<circle cx="533.5294395000001" cy="529.17871184" r="5" fill="black" stroke="none" />
<circle cx="533.5294395000001" cy="513.17871184" r="5" fill="black" stroke="none" />
<path d="M533.5294395000001,513.17871184 L532.7904885650466,512.8882679321724" stroke="grey" stroke-width="5" />
<circle cx="532.7904885650466" cy="512.8882679321724" r="2.5" fill="grey" stroke="none" />
<path d="M532.7904885650466,512.8882679321724 A35.2324224348244,35.2324224348244,0,0,0,533.5294395,489.17871184" stroke="grey" stroke-width="5" fill="none" />
<circle cx="533.5294395000001" cy="513.17871184" r="5" fill="black" stroke="none" />
<circle cx="533.5294395000001" cy="489.17871184" r="5" fill="black" stroke="none" />
<path d="M533.5294395,489.17871184 A35.2324224348244,35.2324224348244,0,0,1,534.9261209136516,495.36430495492823" stroke="grey" stroke-width="5" fill="none" />
<path d="M534.9261209136516,495.36430495492823 L581.5294395000001,489.17871184" stroke="grey" stroke-width="5" />
<circle cx="534.9261209136516" cy="495.36430495492823" r="2.5" fill="grey" stroke="none" />
<circle cx="533.5294395000001" cy="489.17871184" r="5" fill="black" stroke="none" />
<circle cx="581.5294395000001" cy="489.17871184" r="5" fill="black" stroke="none" />
<path d="M581.5294395000001,489.17871184 A82.24445137895881,82.24445137895881,0,0,1,577.4346624113821,527.7132249992887" stroke="grey" stroke-width="5" fill="none" />
<path d="M577.4346624113821,527.7132249992887 L581.5294395000001,529.17871184" stroke="grey" stroke-width="5" />
<circle cx="577.4346624113821" cy="527.7132249992887" r="2.5" fill="grey" stroke="none" />
<circle cx="581.5294395000001" cy="489.17871184" r="5" fill="black" stroke="none" />
<circle cx="581.5294395000001" cy="529.17871184" r="5" fill="black" stroke="none" />
<path d="M581.5294395000001,529.17871184 L541.8485647131373,514.9772550648067" stroke="grey" stroke-width="5" />
<circle cx="541.8485647131373" cy="514.9772550648067" r="2.5" fill="grey" stroke="none" />
<path d="M541.8485647131373,514.9772550648067 A44.44795313426613,44.44795313426613,0,0,1,533.5294395000001,529.17871184" stroke="grey" stroke-width="5" fill="none" />
<circle cx="581.5294395000001" cy="529.17871184" r="5" fill="black" stroke="none" />
<circle cx="533.5294395000001" cy="529.17871184" r="5" fill="black" stroke="none" />
<path d="M533.5294395000001,513.17871184 A36.02640363602671,36.02640363602671,0,0,0,535.7861014961761,504.15411827603623" stroke="grey" stroke-width="5" fill="none" />
<path d="M535.7861014961761,504.15411827603623 L613.5294395000001,513.17871184" stroke="grey" stroke-width="5" />
<circle cx="535.7861014961761" cy="504.15411827603623" r="2.5" fill="grey" stroke="none" />
<circle cx="533.5294395000001" cy="513.17871184" r="5" fill="black" stroke="none" />
<circle cx="613.5294395000001" cy="513.17871184" r="5" fill="black" stroke="none" />
<circle cx="500" cy="500" r="5" fill="red" stroke="none" />
</svg>