<?xml version="1.0" encoding="UTF-8"?>
<svg xmlns="http://www.w3.org/2000/svg" xmlns:xlink="http://www.w3.org/1999/xlink"
     width="1000" height="1000" viewBox="0 0 1000 1000">
<defs>
</defs>
<rect x="0" y="0" width="1000" height="1000" fill="white" />
<path d="M281.1896875000001,251.54090000000008 L323.74392412556006,299.8612337739106" stroke="grey" stroke-width="5" />
<circle cx="323.74392412556006" cy="299.8612337739106" r="2.5" fill="grey" stroke="none" />
<path d="M323.74392412556006,299.8612337739106 A266.68657639475896,266.68657639475896,0,0,0,281.18968750000005,347.5409000000001" stroke="grey" stroke-width="5" fill="none" />
<circle cx="281.1896875000001" cy="251.54090000000008" r="5" fill="black" stroke="none" />
<circle cx="281.1896875000001" cy="347.5409000000001" r="5" fill="black" stroke="none" />
<path d="M281.1896875000001,347.5409000000001 L350.3430511005839,395.7244588828465" stroke="grey" stroke-width="5" />
<circle cx="350.3430511005839" cy="395.7244588828465" r="2.5" fill="grey" stroke="none" />
<path d="M350.3430511005839,395.7244588828465 A182.40227747798988,182.40227747798988,0,0,0,345.1896875000001,403.5409000000001" stroke="grey" stroke-width="5" fill="none" />
<circle cx="281.1896875000001" cy="347.5409000000001" r="5" fill="black" stroke="none" />
<circle cx="345.1896875000001" cy="403.5409000000001" r="5" fill="black" stroke="none" />
<path d="M257.1896875000001,403.5409000000001 L330.48411292632795,432.65792653337974" stroke="grey" stroke-width="5" />
<circle cx="330.48411292632795" cy="432.65792653337974" r="2.5" fill="grey" stroke="none" />
<path d="M330.48411292632795,432.65792653337974 A182.40227747798988,182.40227747798988,0,0,1,345.1896875000001,403.5409000000001" stroke="grey" stroke-width="5" fill="none" />
<circle cx="257.1896875000001" cy="403.5409000000001" r="5" fill="black" stroke="none" />
<circle cx="345.1896875000001" cy="403.5409000000001" r="5" fill="black" stroke="none" />
<path d="M345.1896875000001,403.5409000000001 L410.93377338411136,444.50467852543954" stroke="grey" stroke-width="5" />
<circle cx="410.93377338411136" cy="444.50467852543954" r="2.5" fill="grey" stroke="none" />
<path d="M410.93377338411136,444.50467852543954 A104.94057093973538,104.94057093973538,0,0,1,417.18968750000005,435.5409000000001" stroke="grey" stroke-width="5" fill="none" />
<circle cx="345.1896875000001" cy="403.5409000000001" r="5" fill="black" stroke="none" />
<circle cx="417.1896875000001" cy="435.5409000000001" r="5" fill="black" stroke="none" />
<path d="M417.1896875000001,435.5409000000001 L434.87088095698107,449.3038454926026" stroke="grey" stroke-width="5" />
<circle cx="434.87088095698107" cy="449.3038454926026" r="2.5" fill="grey" stroke="none" />
<path d="M434.87088095698107,449.30384549260265 A82.53424882530669,82.53424882530669,0,0,0,433.18968750000005,451.5409000000001" stroke="grey" stroke-width="5" fill="none" />
<circle cx="417.1896875000001" cy="435.5409000000001" r="5" fill="black" stroke="none" />
<circle cx="433.1896875000001" cy="451.5409000000001" r="5" fill="black" stroke="none" />
<path d="M433.1896875000001,451.5409000000001 L468.8304838503224,477.39201264701705" stroke="grey" stroke-width="5" />
<circle cx="468.8304838503224" cy="477.39201264701705" r="2.5" fill="grey" stroke="none" />
<path d="M468.8304838503224,477.39201264701705 A38.50532208874051,38.50532208874051,0,0,0,465.1896875000001,483.5409000000001" stroke="grey" stroke-width="5" fill="none" />
<circle cx="433.1896875000001" cy="451.5409000000001" r="5" fill="black" stroke="none" />
<circle cx="465.1896875000001" cy="483.5409000000001" r="5" fill="black" stroke="none" />
<path d="M433.18968750000005,451.5409000000001 A82.53424882530669,82.53424882530669,0,0,0,425.7028669464184,535.9421514266471" stroke="grey" stroke-width="5" fill="none" />
<path d="M425.7028669464184,535.9421514266471 L385.1896875000001,555.5409000000001" stroke="grey" stroke-width="5" />
<circle cx="425.7028669464184" cy="535.9421514266471" r="2.5" fill="grey" stroke="none" />
<circle cx="433.1896875000001" cy="451.5409000000001" r="5" fill="black" stroke="none" />
<circle cx="385.1896875000001" cy="555.5409000000001" r="5" fill="black" stroke="none" />
<path d="M385.1896875000001,555.5409000000001 A127.53901140105191,127.53901140105191,0,0,0,417.56618821186396,597.3183749516802" stroke="grey" stroke-width="5" fill="none" />
<path d="M417.56618821186396,597.3183749516802 L385.1896875000001,635.5409000000001" stroke="grey" stroke-width="5" />
<circle cx="417.56618821186396" cy="597.3183749516802" r="2.5" fill="grey" stroke="none" />
<circle cx="385.1896875000001" cy="555.5409000000001" r="5" fill="black" stroke="none" />
<circle cx="385.1896875000001" cy="635.5409000000001" r="5" fill="black" stroke="none" />
<path d="M281.1896875000001,651.5409000000001 L353.9709997505596,601.134932220804" stroke="grey" stroke-width="5" />
<circle cx="353.9709997505596" cy="601.134932220804" r="2.5" fill="grey" stroke="none" />
<path d="M353.9709997505596,601.134932220804 A177.63091912490253,177.63091912490253,0,0,0,385.18968750000005,635.5409000000001" stroke="grey" stroke-width="5" fill="none" />
<circle cx="281.1896875000001" cy="651.5409000000001" r="5" fill="black" stroke="none" />
<circle cx="385.1896875000001" cy="635.5409000000001" r="5" fill="black" stroke="none" />
<path d="M385.18968750000005,635.5409000000001 A177.63091912490253,177.63091912490253,0,0,0,427.2031003942389,662.0288703810108" stroke="grey" stroke-width="5" fill="none" />
<path d="M427.2031003942389,662.0288703810108 L385.1896875000001,755.5409000000001" stroke="grey" stroke-width="5" />
<circle cx="427.2031003942389" cy="662.0288703810108" r="2.5" fill="grey" stroke="none" />
<circle cx="385.1896875000001" cy="635.5409000000001" r="5" fill="black" stroke="none" />
<circle cx="385.1896875000001" cy="755.5409000000001" r="5" fill="black" stroke="none" />
<path d="M385.1896875000001,555.5409000000001 L440.9937847828679,528.5449819566794" stroke="grey" stroke-width="5" />
<circle cx="440.9937847828679" cy="528.5449819566794" r="2.5" fill="grey" stroke="none" />
<path d="M440.9937847828679,528.5449819566794 A65.54806960664563,65.54806960664563,0,0,0,465.1896875000001,555.5409000000001" stroke="grey" stroke-width="5" fill="none" />
<circle cx="385.1896875000001" cy="555.5409000000001" r="5" fill="black" stroke="none" />
<circle cx="465.1896875000001" cy="555.5409000000001" r="5" fill="black" stroke="none" />
<path d="M465.1896875000001,483.5409000000001 A38.50532208874051,38.50532208874051,0,0,0,479.5511553144761,532.6267463928748" stroke="grey" stroke-width="5" fill="none" />
<path d="M479.5511553144761,532.6267463928748 L465.1896875000001,555.5409000000001" stroke="grey" stroke-width="5" />
<circle cx="479.5511553144761" cy="532.6267463928748" r="2.5" fill="grey" stroke="none" />
<circle cx="465.1896875000001" cy="483.5409000000001" r="5" fill="black" stroke="none" />
<circle cx="465.1896875000001" cy="555.5409000000001" r="5" fill="black" stroke="none" />
<path d="M465.1896875000001,555.5409000000001 A65.54806960664563,65.54806960664563,0,0,0,536.4697210906936,554.4656669171018" stroke="grey" stroke-width="5" fill="none" />
<path d="M536.4697210906936,554.4656669171018 L537.1896875000001,555.5409000000001" stroke="grey" stroke-width="5" />
<circle cx="536.4697210906936" cy="554.4656669171018" r="2.5" fill="grey" stroke="none" />
<circle cx="465.1896875000001" cy="555.5409000000001" r="5" fill="black" stroke="none" />
<circle cx="537.1896875000001" cy="555.5409000000001" r="5" fill="black" stroke="none" />
<path d="M465.1896875000001,483.5409000000001 L484.3981929292808,492.6231141200564" stroke="grey" stroke-width="5" />
<circle cx="484.3981929292808" cy="492.6231141200564" r="2.5" fill="grey" stroke="none" />
<path d="M484.3981929292808,492.6231141200564 A17.257891793543454,17.257891793543454,0,0,1,505.1896875000001,483.5409000000001" stroke="grey" stroke-width="5" fill="none" />
<circle cx="465.1896875000001" cy="483.5409000000001" r="5" fill="black" stroke="none" />
<circle cx="505.1896875000001" cy="483.5409000000001" r="5" fill="black" stroke="none" />
<path d="M537.1896875000001,555.5409000000001 A66.8420857630705,66.8420857630705,0,0,0,566.3329298117229,508.2344915902998" stroke="grey" stroke-width="5" fill="none" />
<path d="M566.3329298117229,508.2344915902998 L625.1896875000001,515.5409000000001" stroke="grey" stroke-width="5" />
<circle cx="566.3329298117229" cy="508.2344915902998" r="2.5" fill="grey" stroke="none" />
<circle cx="537.1896875000001" cy="555.5409000000001" r="5" fill="black" stroke="none" />
<circle cx="625.1896875000001" cy="515.5409000000001" r="5" fill="black" stroke="none" />
<path d="M505.1896875000001,483.5409000000001 A17.257891793543454,17.257891793543454,0,0,1,517.1538159770844,498.1075342587039" stroke="grey" stroke-width="5" fill="none" />
<path d="M517.1538159770844,498.1075342587039 L649.1896875000001,483.5409000000001" stroke="grey" stroke-width="5" />
<circle cx="517.1538159770844" cy="498.1075342587039" r="2.5" fill="grey" stroke="none" />
<circle cx="505.1896875000001" cy="483.5409000000001" r="5" fill="black" stroke="none" />
<circle cx="649.1896875000001" cy="483.5409000000001" r="5" fill="black" stroke="none" />
<path d="M625.1896875000001,515.5409000000001 A126.1506140657178,126.1506140657178,0,0,0,625.3898474371649,486.16657711041165" stroke="grey" stroke-width="5" fill="none" />
<path d="M625.3898474371649,486.16657711041165 L649.1896875000001,483.5409000000001" stroke="grey" stroke-width="5" />
<circle cx="625.3898474371649" cy="486.16657711041165" r="2.5" fill="grey" stroke="none" />
<circle cx="625.1896875000001" cy="515.5409000000001" r="5" fill="black" stroke="none" />
<circle cx="649.1896875000001" cy="483.5409000000001" r="5" fill="black" stroke="none" />
<path d="M385.1896875000001,635.5409000000001 L412.3300393777136,603.4999827712277" stroke="grey" stroke-width="5" />
<circle cx="412.3300393777136" cy="603.4999827712277" r="2.5" fill="grey" stroke="none" />
<path d="M412.3300393777136,603.4999827712277 A135.64021685752968,135.64021685752968,0,0,0,505.18968750000005,635.5409000000001" stroke="grey" stroke-width="5" fill="none" />
<circle cx="385.1896875000001" cy="635.5409000000001" r="5" fill="black" stroke="none" />
<circle cx="505.1896875000001" cy="635.5409000000001" r="5" fill="black" stroke="none" />
<path d="M505.1896875000001,635.5409000000001 L504.1566734874978,608.561308460593" stroke="grey" stroke-width="5" />
<circle cx="504.1566734874978" cy="608.561308460593" r="2.5" fill="grey" stroke="none" />
<path d="M504.1566734874978,608.561308460593 A108.64085616911198,108.64085616911198,0,0,0,601.1896875000001,539.5409000000001" stroke="grey" stroke-width="5" fill="none" />
<circle cx="505.1896875000001" cy="635.5409000000001" r="5" fill="black" stroke="none" />
<circle cx="601.1896875000001" cy="539.5409000000001" r="5" fill="black" stroke="none" />
<path d="M601.1896875000001,539.5409000000001 A108.64085616911198,108.64085616911198,0,0,0,607.8133066118753,513.3838165921175" stroke="grey" stroke-width="5" fill="none" />
<path d="M607.8133066118753,513.3838165921175 L625.1896875000001,515.5409000000001" stroke="grey" stroke-width="5" />
<circle cx="607.8133066118753" cy="513.3838165921175" r="2.5" fill="grey" stroke="none" />
<circle cx="601.1896875000001" cy="539.5409000000001" r="5" fill="black" stroke="none" />
<circle cx="625.1896875000001" cy="515.5409000000001" r="5" fill="black" stroke="none" />
<path d="M625.1896875000001,515.5409000000001 A126.1506140657178,126.1506140657178,0,0,1,620.2930203756299,537.9942979677999" stroke="grey" stroke-width="5" fill="none" />
<path d="M620.2930203756299,537.9942979677999 L625.1896875000001,539.5409000000001" stroke="grey" stroke-width="5" />
<circle cx="620.2930203756299" cy="537.9942979677999" r="2.5" fill="grey" stroke="none" />
<circle cx="625.1896875000001" cy="515.5409000000001" r="5" fill="black" stroke="none" />
<circle cx="625.1896875000001" cy="539.5409000000001" r="5" fill="black" stroke="none" />
<path d="M625.1896875000001,539.5409000000001 A131.2857213453073,131.2857213453073,0,0,1,565.9377606801255,613.5259985450389" stroke="grey" stroke-width="5" fill="none" />
<path d="M565.9377606801255,613.5259985450389 L625.1896875000001,715.5409000000001" stroke="grey" stroke-width="5" />
<circle cx="565.9377606801255" cy="613.5259985450389" r="2.5" fill="grey" stroke="none" />
<circle cx="625.1896875000001" cy="539.5409000000001" r="5" fill="black" stroke="none" />
<circle cx="625.1896875000001" cy="715.5409000000001" r="5" fill="black" stroke="none" />
<path d="M625.1896875000001,715.5409000000001 A249.2595784100537,249.2595784100537,0,0,0,678.5179103362507,673.9588834131102" stroke="grey" stroke-width="5" fill="none" />
<path d="M678.5179103362507,673.9588834131102 L721.1896875000001,715.5409000000001" stroke="grey" stroke-width="5" />
<circle cx="678.5179103362507" cy="673.9588834131102" r="2.5" fill="grey" stroke="none" />
<circle cx="625.1896875000001" cy="715.5409000000001" r="5" fill="black" stroke="none" />
<circle cx="721.1896875000001" cy="715.5409000000001" r="5" fill="black" stroke="none" />
<path d="M625.1896875000001,715.5409000000001 A249.2595784100537,249.2595784100537,0,0,1,606.9519297720456,725.1480005400739" stroke="grey" stroke-width="5" fill="none" />
<path d="M606.9519297720456,725.1480005400739 L625.1896875000001,763.5409000000001" stroke="grey" stroke-width="5" />
<circle cx="606.9519297720456" cy="725.1480005400739" r="2.5" fill="grey" stroke="none" />
<circle cx="625.1896875000001" cy="715.5409000000001" r="5" fill="black" stroke="none" />
<circle cx="625.1896875000001" cy="763.5409000000001" r="5" fill="black" stroke="none" />
<path d="M313.1896875000001,339.5409000000001 L378.2149565447231,395.39379167681324" stroke="grey" stroke-width="5" />
<circle cx="378.2149565447231" cy="395.39379167681324" r="2.5" fill="grey" stroke="none" />
<path d="M378.2149565447231,395.39379167681324 A160.54300242974662,160.54300242974662,0,0,1,505.18968750000005,339.5409000000001" stroke="grey" stroke-width="5" fill="none" />
<circle cx="313.1896875000001" cy="339.5409000000001" r="5" fill="black" stroke="none" />
<circle cx="505.1896875000001" cy="339.5409000000001" r="5" fill="black" stroke="none" />
<path d="M505.1896875000001,339.5409000000001 L500.5578758585663,482.75112746629264" stroke="grey" stroke-width="5" />
<circle cx="500.5578758585663" cy="482.75112746629264" r="2.5" fill="grey" stroke="none" />
<path d="M500.5578758585663,482.75112746629264 A17.257891793543454,17.257891793543454,0,0,1,505.1896875000001,483.5409000000001" stroke="grey" stroke-width="5" fill="none" />
<circle cx="505.1896875000001" cy="339.5409000000001" r="5" fill="black" stroke="none" />
<circle cx="505.1896875000001" cy="483.5409000000001" r="5" fill="black" stroke="none" />
<path d="M505.18968750000005,339.5409000000001 A160.54300242974662,160.54300242974662,0,0,0,503.46409861649556,339.49437502089586" stroke="grey" stroke-width="5" fill="none" />
<path d="M503.4640986164955,339.49437502089586 L505.1896875000001,259.5409000000001" stroke="grey" stroke-width="5" />
<circle cx="503.4640986164955" cy="339.49437502089586" r="2.5" fill="grey" stroke="none" />
<circle cx="505.1896875000001" cy="339.5409000000001" r="5" fill="black" stroke="none" />
<circle cx="505.1896875000001" cy="259.5409000000001" r="5" fill="black" stroke="none" />
<path d="M505.1896875000001,259.5409000000001 A240.51509646830408,240.51509646830408,0,0,0,504.2097104844048,259.5217474140435" stroke="grey" stroke-width="5" fill="none" />
<path d="M504.2097104844048,259.5217474140435 L505.1896875000001,203.54090000000008" stroke="grey" stroke-width="5" />
<circle cx="504.2097104844048" cy="259.5217474140435" r="2.5" fill="grey" stroke="none" />
<circle cx="505.1896875000001" cy="259.5409000000001" r="5" fill="black" stroke="none" />
<circle cx="505.1896875000001" cy="203.54090000000008" r="5" fill="black" stroke="none" />
<path d="M505.1896875000001,259.5409000000001 L503.80568997894534,323.6670729757434" stroke="grey" stroke-width="5" />
<circle cx="503.80568997894534" cy="323.6670729757434" r="2.5" fill="grey" stroke="none" />
<path d="M503.80568997894534,323.6670729757434 A176.3739902285982,176.3739902285982,0,0,1,601.1896875000001,355.5409000000001" stroke="grey" stroke-width="5" fill="none" />
<circle cx="505.1896875000001" cy="259.5409000000001" r="5" fill="black" stroke="none" />
<circle cx="601.1896875000001" cy="355.5409000000001" r="5" fill="black" stroke="none" />
<path d="M505.18968750000005,339.5409000000001 A160.54300242974662,160.54300242974662,0,0,1,592.107097112915,368.50726905798297" stroke="grey" stroke-width="5" fill="none" />
<path d="M592.107097112915,368.50726905798297 L601.1896875000001,355.5409000000001" stroke="grey" stroke-width="5" />
<circle cx="592.107097112915" cy="368.50726905798297" r="2.5" fill="grey" stroke="none" />
<circle cx="505.1896875000001" cy="339.5409000000001" r="5" fill="black" stroke="none" />
<circle cx="601.1896875000001" cy="355.5409000000001" r="5" fill="black" stroke="none" />
<path d="M601.1896875000001,355.5409000000001 L595.1547136570003,364.1564705331464" stroke="grey" stroke-width="5" />
<circle cx="595.1547136570003" cy="364.1564705331464" r="2.5" fill="grey" stroke="none" />
<path d="M595.1547136570003,364.1564705331464 A165.8550090565783,165.8550090565783,0,0,1,649.1896875000001,427.5409000000001" stroke="grey" stroke-width="5" fill="none" />
<circle cx="601.1896875000001" cy="355.5409000000001" r="5" fill="black" stroke="none" />
<circle cx="649.1896875000001" cy="427.5409000000001" r="5" fill="black" stroke="none" />
<path d="M601.1896875000001,539.5409000000001 A108.64085616911198,108.64085616911198,0,0,0,603.5962989285866,532.7206735483333" stroke="grey" stroke-width="5" fill="none" />
<path d="M603.5962989285866,532.7206735483333 L625.1896875000001,539.5409000000001" stroke="grey" stroke-width="5" />
<circle cx="603.5962989285866" cy="532.7206735483333" r="2.5" fill="grey" stroke="none" />
<circle cx="601.1896875000001" cy="539.5409000000001" r="5" fill="black" stroke="none" />
<circle cx="625.1896875000001" cy="539.5409000000001" r="5" fill="black" stroke="none" />
<path d="M625.1896875000001,539.5409000000001 A131.2857213453073,131.2857213453073,0,0,0,626.9041686792901,533.6343960994686" stroke="grey" stroke-width="5" fill="none" />
<path d="M626.9041686792901,533.6343960994686 L649.1896875000001,539.5409000000001" stroke="grey" stroke-width="5" />
<circle cx="626.9041686792901" cy="533.6343960994686" r="2.5" fill="grey" stroke="none" />
<circle cx="625.1896875000001" cy="539.5409000000001" r="5" fill="black" stroke="none" />
<circle cx="649.1896875000001" cy="539.5409000000001" r="5" fill="black" stroke="none" />
<path d="M649.1896875000001,539.5409000000001 L645.0855608599454,538.453151484797" stroke="grey" stroke-width="5" />
<circle cx="645.0855608599454" cy="538.453151484797" r="2.5" fill="grey" stroke="none" />
<path d="M645.0855608599454,538.453151484797 A150.09485277369666,150.09485277369666,0,0,0,649.1896875000001,483.5409000000001" stroke="grey" stroke-width="5" fill="none" />
<circle cx="649.1896875000001" cy="539.5409000000001" r="5" fill="black" stroke="none" />
<circle cx="649.1896875000001" cy="483.5409000000001" r="5" fill="black" stroke="none" />
<path d="M649.1896875000001,483.5409000000001 A150.09485277369666,150.09485277369666,0,0,0,646.6637205038387,468.0904729409924" stroke="grey" stroke-width="5" fill="none" />
<path d="M646.6637205038387,468.0904729409924 L649.1896875000001,467.5409000000001" stroke="grey" stroke-width="5" />
<circle cx="646.6637205038387" cy="468.0904729409924" r="2.5" fill="grey" stroke="none" />
<circle cx="649.1896875000001" cy="483.5409000000001" r="5" fill="black" stroke="none" />
<circle cx="649.1896875000001" cy="467.5409000000001" r="5" fill="black" stroke="none" />
<path d="M649.1896875000001,467.5409000000001 A152.6799136401304,152.6799136401304,0,0,0,645.2116794354754,452.8330180668042" stroke="grey" stroke-width="5" fill="none" />
<path d="M645.2116794354754,452.8330180668042 L649.1896875000001,451.5409000000001" stroke="grey" stroke-width="5" />
<circle cx="645.2116794354754" cy="452.8330180668042" r="2.5" fill="grey" stroke="none" />
<circle cx="649.1896875000001" cy="467.5409000000001" r="5" fill="black" stroke="none" />
<circle cx="649.1896875000001" cy="451.5409000000001" r="5" fill="black" stroke="none" />
<path d="M649.1896875000001,451.5409000000001 A156.8625105917844,156.8625105917844,0,0,0,641.1007666803149,431.4695624456912" stroke="grey" stroke-width="5" fill="none" />
<path d="M641.1007666803149,431.4695624456912 L649.1896875000001,427.5409000000001" stroke="grey" stroke-width="5" />
<circle cx="641.1007666803149" cy="431.4695624456912" r="2.5" fill="grey" stroke="none" />
<circle cx="649.1896875000001" cy="451.5409000000001" r="5" fill="black" stroke="none" />
<circle cx="649.1896875000001" cy="427.5409000000001" r="5" fill="black" stroke="none" />
<path d="M649.1896875000001,427.5409000000001 A165.8550090565783,165.8550090565783,0,0,1,655.6774406445231,442.7949433744827" stroke="grey" stroke-width="5" fill="none" />
<path d="M655.6774406445231,442.7949433744827 L697.1896875000001,427.5409000000001" stroke="grey" stroke-width="5" />
<circle cx="655.6774406445231" cy="442.7949433744827" r="2.5" fill="grey" stroke="none" />
<circle cx="649.1896875000001" cy="427.5409000000001" r="5" fill="black" stroke="none" />
<circle cx="697.1896875000001" cy="427.5409000000001" r="5" fill="black" stroke="none" />
<path d="M697.1896875000001,427.5409000000001 L687.5801160008527,431.07202229671685" stroke="grey" stroke-width="5" />
<circle cx="687.5801160008527" cy="431.07202229671685" r="2.5" fill="grey" stroke="none" />
<path d="M687.5801160008527,431.07202229671685 A199.8433537277577,199.8433537277577,0,0,1,697.1896875000001,467.5409000000001" stroke="grey" stroke-width="5" fill="none" />
<circle cx="697.1896875000001" cy="427.5409000000001" r="5" fill="black" stroke="none" />
<circle cx="697.1896875000001" cy="467.5409000000001" r="5" fill="black" stroke="none" />
<path d="M697.1896875000001,467.5409000000001 L650.6525180679179,475.2013139672006" stroke="grey" stroke-width="5" />
<circle cx="650.6525180679179" cy="475.2013139672006" r="2.5" fill="grey" stroke="none" />
<path d="M650.6525180679179,475.2013139672006 A152.6799136401304,152.6799136401304,0,0,0,649.1896875000001,467.5409000000001" stroke="grey" stroke-width="5" fill="none" />
<circle cx="697.1896875000001" cy="467.5409000000001" r="5" fill="black" stroke="none" />
<circle cx="649.1896875000001" cy="467.5409000000001" r="5" fill="black" stroke="none" />
<path d="M649.1896875000001,451.5409000000001 A156.8625105917844,156.8625105917844,0,0,1,653.4695536149443,467.55091153225675" stroke="grey" stroke-width="5" fill="none" />
<path d="M653.4695536149443,467.55091153225675 L729.1896875000001,451.5409000000001" stroke="grey" stroke-width="5" />
<circle cx="653.4695536149443" cy="467.55091153225675" r="2.5" fill="grey" stroke="none" />
<circle cx="649.1896875000001" cy="451.5409000000001" r="5" fill="black" stroke="none" />
<circle cx="729.1896875000001" cy="451.5409000000001" r="5" fill="black" stroke="none" />
<circle cx="500" cy="500" r="5" fill="red" stroke="none" />
</svg>