<?xml version="1.0" encoding="UTF-8"?>
<svg xmlns="http://www.w3.org/2000/svg" xmlns:xlink="http://www.w3.org/1999/xlink"
     width="1000" height="1000" viewBox="0 0 1000 1000">
<defs>
</defs>
<rect x="0" y="0" width="1000" height="1000" fill="white" />
<path d="M270.55499999999995,253.81439999999998 L313.03256126746885,299.39117834412855" stroke="grey" stroke-width="5" />
<circle cx="313.03256126746885" cy="299.39117834412855" r="2.5" fill="grey" stroke="none" />
<path d="M313.03256126746874,299.39117834412866 A274.227501305686,274.227501305686,0,0,0,270.55499999999995,349.8144" stroke="grey" stroke-width="5" fill="none" />
<circle cx="270.55499999999995" cy="253.81439999999998" r="5" fill="black" stroke="none" />
<circle cx="270.55499999999995" cy="349.8144" r="5" fill="black" stroke="none" />
<path d="M270.55499999999995,349.8144 L340.7133007101995,395.73724201940223" stroke="grey" stroke-width="5" />
<circle cx="340.7133007101995" cy="395.73724201940223" r="2.5" fill="grey" stroke="none" />
<path d="M340.7133007101995,395.73724201940223 A190.37587891421546,190.37587891421546,0,0,0,334.55499999999995,405.81439999999986" stroke="grey" stroke-width="5" fill="none" />
<circle cx="270.55499999999995" cy="349.8144" r="5" fill="black" stroke="none" />
<circle cx="334.55499999999995" cy="405.8144" r="5" fill="black" stroke="none" />
<path d="M246.55499999999995,405.8144 L321.548077359127,433.6834366229983" stroke="grey" stroke-width="5" />
<circle cx="321.548077359127" cy="433.6834366229983" r="2.5" fill="grey" stroke="none" />
<path d="M321.548077359127,433.6834366229983 A190.37587891421546,190.37587891421546,0,0,1,334.55499999999995,405.81439999999986" stroke="grey" stroke-width="5" fill="none" />
<circle cx="246.55499999999995" cy="405.8144" r="5" fill="black" stroke="none" />
<circle cx="334.55499999999995" cy="405.8144" r="5" fill="black" stroke="none" />
<path d="M334.55499999999995,405.8144 L402.4538677593071,444.46830673172957" stroke="grey" stroke-width="5" />
<circle cx="402.4538677593071" cy="444.46830673172957" r="2.5" fill="grey" stroke="none" />
<path d="M402.4538677593072,444.4683067317295 A112.24534231922503,112.24534231922503,0,0,1,406.55499999999995,437.8144" stroke="grey" stroke-width="5" fill="none" />
<circle cx="334.55499999999995" cy="405.8144" r="5" fill="black" stroke="none" />
<circle cx="406.55499999999995" cy="437.8144" r="5" fill="black" stroke="none" />
<path d="M406.55499999999995,437.8144 L424.9319067257359,450.04382876434187" stroke="grey" stroke-width="5" />
<circle cx="424.9319067257359" cy="450.04382876434187" r="2.5" fill="grey" stroke="none" />
<path d="M424.9319067257359,450.04382876434187 A90.17115765232256,90.17115765232256,0,0,0,422.55499999999995,453.8144" stroke="grey" stroke-width="5" fill="none" />
<circle cx="406.55499999999995" cy="437.8144" r="5" fill="black" stroke="none" />
<circle cx="422.55499999999995" cy="453.8144" r="5" fill="black" stroke="none" />
<path d="M422.55499999999995,453.8144 L459.1114589618597,475.6154457877057" stroke="grey" stroke-width="5" />
<circle cx="459.1114589618597" cy="475.6154457877057" r="2.5" fill="grey" stroke="none" />
<path d="M459.1114589618597,475.6154457877057 A47.60755478240827,47.60755478240827,0,0,0,454.55499999999995,485.8144" stroke="grey" stroke-width="5" fill="none" />
<circle cx="422.55499999999995" cy="453.8144" r="5" fill="black" stroke="none" />
<circle cx="454.55499999999995" cy="485.8144" r="5" fill="black" stroke="none" />
<path d="M422.55499999999995,453.8144 A90.17115765232256,90.17115765232256,0,0,0,418.10757463568984,537.7421295147864" stroke="grey" stroke-width="5" fill="none" />
<path d="M418.10757463568984,537.7421295147864 L-125.44500000000005,57.81439999999998" stroke="grey" stroke-width="5" />
<circle cx="418.10757463568984" cy="537.7421295147864" r="2.5" fill="grey" stroke="none" />
<circle cx="422.55499999999995" cy="453.8144" r="5" fill="black" stroke="none" />
<circle cx="374.55499999999995" cy="557.8144" r="5" fill="black" stroke="none" />
<path d="M374.55499999999995,557.8144 A138.12658278680468,138.12658278680468,0,0,0,407.0214266348972,602.1466483412462" stroke="grey" stroke-width="5" fill="none" />
<path d="M407.0214266348972,602.1466483412462 L-125.44500000000005,137.81439999999998" stroke="grey" stroke-width="5" />
<circle cx="407.0214266348972" cy="602.1466483412462" r="2.5" fill="grey" stroke="none" />
<circle cx="374.55499999999995" cy="557.8144" r="5" fill="black" stroke="none" />
<circle cx="374.55499999999995" cy="637.8144" r="5" fill="black" stroke="none" />
<path d="M270.55499999999995,653.8144 L345.20638635381596,603.7699091582715" stroke="grey" stroke-width="5" />
<circle cx="345.20638635381596" cy="603.7699091582715" r="2.5" fill="grey" stroke="none" />
<path d="M345.20638635381596,603.7699091582715 A186.3578731161096,186.3578731161096,0,0,0,374.55499999999995,637.8144" stroke="grey" stroke-width="5" fill="none" />
<circle cx="270.55499999999995" cy="653.8144" r="5" fill="black" stroke="none" />
<circle cx="374.55499999999995" cy="637.8144" r="5" fill="black" stroke="none" />
<path d="M374.55499999999995,637.8144 A186.3578731161096,186.3578731161096,0,0,0,418.4633727983897,667.5739696281782" stroke="grey" stroke-width="5" fill="none" />
<path d="M418.4633727983897,667.5739696281782 L-125.44500000000005,257.8144" stroke="grey" stroke-width="5" />
<circle cx="418.4633727983897" cy="667.5739696281782" r="2.5" fill="grey" stroke="none" />
<circle cx="374.55499999999995" cy="637.8144" r="5" fill="black" stroke="none" />
<circle cx="374.55499999999995" cy="757.8144" r="5" fill="black" stroke="none" />
<path d="M374.55499999999995,557.8144 L433.2141424900534,530.7798978071909" stroke="grey" stroke-width="5" />
<circle cx="433.2141424900534" cy="530.7798978071909" r="2.5" fill="grey" stroke="none" />
<path d="M433.2141424900534,530.7798978071909 A73.53742497776219,73.53742497776219,0,0,0,454.55499999999995,557.8144" stroke="grey" stroke-width="5" fill="none" />
<circle cx="374.55499999999995" cy="557.8144" r="5" fill="black" stroke="none" />
<circle cx="454.55499999999995" cy="557.8144" r="5" fill="black" stroke="none" />
<path d="M454.55499999999995,485.8144 A47.60755478240827,47.60755478240827,0,0,0,470.57926181477256,537.428591170338" stroke="grey" stroke-width="5" fill="none" />
<path d="M470.57926181477256,537.428591170338 L-45.44500000000005,57.81439999999998" stroke="grey" stroke-width="5" />
<circle cx="470.57926181477256" cy="537.428591170338" r="2.5" fill="grey" stroke="none" />
<circle cx="454.55499999999995" cy="485.8144" r="5" fill="black" stroke="none" />
<circle cx="454.55499999999995" cy="557.8144" r="5" fill="black" stroke="none" />
<path d="M454.55499999999995,557.8144 L460.68299819057506,550.0184590034286" stroke="grey" stroke-width="5" />
<circle cx="460.68299819057506" cy="550.0184590034286" r="2.5" fill="grey" stroke="none" />
<path d="M460.68299819057506,550.0184590034286 A63.621324038092716,63.621324038092716,0,0,0,526.555,557.8144" stroke="grey" stroke-width="5" fill="none" />
<circle cx="454.55499999999995" cy="557.8144" r="5" fill="black" stroke="none" />
<circle cx="526.555" cy="557.8144" r="5" fill="black" stroke="none" />
<path d="M454.55499999999995,485.8144 L485.49550193465114,495.47243904157085" stroke="grey" stroke-width="5" />
<circle cx="485.49550193465114" cy="495.47243904157085" r="2.5" fill="grey" stroke="none" />
<path d="M485.49550193465114,495.47243904157085 A15.194711986740689,15.194711986740689,0,0,1,494.55499999999995,485.8144" stroke="grey" stroke-width="5" fill="none" />
<circle cx="454.55499999999995" cy="485.8144" r="5" fill="black" stroke="none" />
<circle cx="494.55499999999995" cy="485.8144" r="5" fill="black" stroke="none" />
<path d="M526.555,557.8144 A63.621324038092716,63.621324038092716,0,0,0,562.8657169680614,509.7762212767302" stroke="grey" stroke-width="5" fill="none" />
<path d="M562.8657169680614,509.7762212767302 L114.55499999999995,17.814399999999978" stroke="grey" stroke-width="5" />
<circle cx="562.8657169680614" cy="509.7762212767302" r="2.5" fill="grey" stroke="none" />
<circle cx="526.555" cy="557.8144" r="5" fill="black" stroke="none" />
<circle cx="614.555" cy="517.8144" r="5" fill="black" stroke="none" />
<path d="M494.55499999999995,485.8144 A15.194711986740689,15.194711986740689,0,0,1,515.11569589857,498.45241805969647" stroke="grey" stroke-width="5" fill="none" />
<path d="M515.11569589857,498.45241805969647 L138.55499999999995,-14.185600000000022" stroke="grey" stroke-width="5" />
<circle cx="515.11569589857" cy="498.45241805969647" r="2.5" fill="grey" stroke="none" />
<circle cx="494.55499999999995" cy="485.8144" r="5" fill="black" stroke="none" />
<circle cx="638.555" cy="485.8144" r="5" fill="black" stroke="none" />
<path d="M614.555,517.8144 A115.93188031063754,115.93188031063754,0,0,0,615.3290071739564,488.1923339889078" stroke="grey" stroke-width="5" fill="none" />
<path d="M615.3290071739564,488.1923339889078 L138.55499999999995,-14.185600000000022" stroke="grey" stroke-width="5" />
<circle cx="615.3290071739564" cy="488.1923339889078" r="2.5" fill="grey" stroke="none" />
<circle cx="614.555" cy="517.8144" r="5" fill="black" stroke="none" />
<circle cx="638.555" cy="485.8144" r="5" fill="black" stroke="none" />
<path d="M374.55499999999995,637.8144 L407.15919132193375,601.995299481705" stroke="grey" stroke-width="5" />
<circle cx="407.15919132193375" cy="601.995299481705" r="2.5" fill="grey" stroke="none" />
<path d="M407.15919132193375,601.995299481705 A137.92192310274677,137.92192310274677,0,0,0,494.55499999999995,637.8144" stroke="grey" stroke-width="5" fill="none" />
<circle cx="374.55499999999995" cy="637.8144" r="5" fill="black" stroke="none" />
<circle cx="494.55499999999995" cy="637.8144" r="5" fill="black" stroke="none" />
<path d="M494.55499999999995,637.8144 L496.0622630450069,599.6651709476951" stroke="grey" stroke-width="5" />
<circle cx="496.0622630450069" cy="599.6651709476951" r="2.5" fill="grey" stroke="none" />
<path d="M496.0622630450069,599.6651709476951 A99.74292993671276,99.74292993671276,0,0,0,590.555,541.8144" stroke="grey" stroke-width="5" fill="none" />
<circle cx="494.55499999999995" cy="637.8144" r="5" fill="black" stroke="none" />
<circle cx="590.555" cy="541.8144" r="5" fill="black" stroke="none" />
<path d="M590.555,541.8144 A99.74292993671276,99.74292993671276,0,0,0,598.5583198364782,515.326762977565" stroke="grey" stroke-width="5" fill="none" />
<path d="M598.5583198364782,515.326762977565 L114.55499999999995,17.814399999999978" stroke="grey" stroke-width="5" />
<circle cx="598.5583198364782" cy="515.326762977565" r="2.5" fill="grey" stroke="none" />
<circle cx="590.555" cy="541.8144" r="5" fill="black" stroke="none" />
<circle cx="614.555" cy="517.8144" r="5" fill="black" stroke="none" />
<path d="M614.555,517.8144 A115.93188031063754,115.93188031063754,0,0,1,608.9036856233694,539.751580220242" stroke="grey" stroke-width="5" fill="none" />
<path d="M608.9036856233694,539.751580220242 L114.55499999999995,41.81439999999998" stroke="grey" stroke-width="5" />
<circle cx="608.9036856233694" cy="539.751580220242" r="2.5" fill="grey" stroke="none" />
<circle cx="614.555" cy="517.8144" r="5" fill="black" stroke="none" />
<circle cx="614.555" cy="541.8144" r="5" fill="black" stroke="none" />
<path d="M614.555,541.8144 A121.94790720779093,121.94790720779093,0,0,1,556.7641443084229,607.931107625617" stroke="grey" stroke-width="5" fill="none" />
<path d="M556.7641443084229,607.931107625617 L114.55499999999995,217.81439999999998" stroke="grey" stroke-width="5" />
<circle cx="556.7641443084229" cy="607.931107625617" r="2.5" fill="grey" stroke="none" />
<circle cx="614.555" cy="541.8144" r="5" fill="black" stroke="none" />
<circle cx="614.555" cy="717.8144" r="5" fill="black" stroke="none" />
<path d="M614.555,717.8144 A246.1015255384655,246.1015255384655,0,0,0,671.0464518569718,676.9436977671164" stroke="grey" stroke-width="5" fill="none" />
<path d="M671.0464518569718,676.9436977671164 L210.55499999999995,217.81439999999998" stroke="grey" stroke-width="5" />
<circle cx="671.0464518569718" cy="676.9436977671164" r="2.5" fill="grey" stroke="none" />
<circle cx="614.555" cy="717.8144" r="5" fill="black" stroke="none" />
<circle cx="710.555" cy="717.8144" r="5" fill="black" stroke="none" />
<path d="M614.555,717.8144 A246.1015255384655,246.1015255384655,0,0,1,597.3997419188715,726.0071926875275" stroke="grey" stroke-width="5" fill="none" />
<path d="M597.3997419188715,726.0071926875275 L114.55499999999995,265.8144" stroke="grey" stroke-width="5" />
<circle cx="597.3997419188715" cy="726.0071926875275" r="2.5" fill="grey" stroke="none" />
<circle cx="614.555" cy="717.8144" r="5" fill="black" stroke="none" />
<circle cx="614.555" cy="765.8144" r="5" fill="black" stroke="none" />
<path d="M302.55499999999995,341.8144 L376.474743445438,401.03615273500304" stroke="grey" stroke-width="5" />
<circle cx="376.474743445438" cy="401.03615273500304" r="2.5" fill="grey" stroke="none" />
<path d="M376.474743445438,401.03615273500304 A158.2792850386936,158.2792850386936,0,0,1,494.555,341.8144" stroke="grey" stroke-width="5" fill="none" />
<circle cx="302.55499999999995" cy="341.8144" r="5" fill="black" stroke="none" />
<circle cx="494.55499999999995" cy="341.8144" r="5" fill="black" stroke="none" />
<path d="M494.55499999999995,341.8144 L499.47728341868884,484.814281718153" stroke="grey" stroke-width="5" />
<circle cx="499.47728341868884" cy="484.814281718153" r="2.5" fill="grey" stroke="none" />
<path d="M499.47728341868884,484.814281718153 A15.194711986740689,15.194711986740689,0,0,0,494.55499999999995,485.8144" stroke="grey" stroke-width="5" fill="none" />
<circle cx="494.55499999999995" cy="341.8144" r="5" fill="black" stroke="none" />
<circle cx="494.55499999999995" cy="485.8144" r="5" fill="black" stroke="none" />
<path d="M494.555,341.8144 A158.2792850386936,158.2792850386936,0,0,1,496.3826293390376,341.76205669353124" stroke="grey" stroke-width="5" fill="none" />
<path d="M496.3826293390376,341.76205669353124 L-5.44500000000005,-238.18560000000002" stroke="grey" stroke-width="5" />
<circle cx="496.3826293390376" cy="341.76205669353124" r="2.5" fill="grey" stroke="none" />
<circle cx="494.55499999999995" cy="341.8144" r="5" fill="black" stroke="none" />
<circle cx="494.55499999999995" cy="261.8144" r="5" fill="black" stroke="none" />
<path d="M494.55499999999995,261.8144 A238.24782910314212,238.24782910314212,0,0,1,495.5910918698677,261.79296903437114" stroke="grey" stroke-width="5" fill="none" />
<path d="M495.5910918698677,261.79296903437114 L-5.44500000000005,-294.1856" stroke="grey" stroke-width="5" />
<circle cx="495.5910918698677" cy="261.79296903437114" r="2.5" fill="grey" stroke="none" />
<circle cx="494.55499999999995" cy="261.8144" r="5" fill="black" stroke="none" />
<circle cx="494.55499999999995" cy="205.81439999999998" r="5" fill="black" stroke="none" />
<path d="M494.55499999999995,261.8144 L496.14736659865656,331.47074411772047" stroke="grey" stroke-width="5" />
<circle cx="496.14736659865656" cy="331.47074411772047" r="2.5" fill="grey" stroke="none" />
<path d="M496.14736659865656,331.47074411772047 A168.57328635451108,168.57328635451108,0,0,1,590.555,357.8144" stroke="grey" stroke-width="5" fill="none" />
<circle cx="494.55499999999995" cy="261.8144" r="5" fill="black" stroke="none" />
<circle cx="590.555" cy="357.8144" r="5" fill="black" stroke="none" />
<path d="M494.555,341.8144 A158.2792850386936,158.2792850386936,0,0,1,585.0252193964856,366.49702572998797" stroke="grey" stroke-width="5" fill="none" />
<path d="M585.0252193964856,366.49702572998797 L90.55499999999995,-142.18560000000002" stroke="grey" stroke-width="5" />
<circle cx="585.0252193964856" cy="366.49702572998797" r="2.5" fill="grey" stroke="none" />
<circle cx="494.55499999999995" cy="341.8144" r="5" fill="black" stroke="none" />
<circle cx="590.555" cy="357.8144" r="5" fill="black" stroke="none" />
<path d="M590.555,357.8144 L583.4341601835226,368.9952390680771" stroke="grey" stroke-width="5" />
<circle cx="583.4341601835226" cy="368.9952390680771" r="2.5" fill="grey" stroke="none" />
<path d="M583.4341601835226,368.9952390680771 A155.3174377600918,155.3174377600918,0,0,1,638.555,429.8144" stroke="grey" stroke-width="5" fill="none" />
<circle cx="590.555" cy="357.8144" r="5" fill="black" stroke="none" />
<circle cx="638.555" cy="429.8144" r="5" fill="black" stroke="none" />
<path d="M590.555,541.8144 A99.74292993671276,99.74292993671276,0,0,0,593.696165850808,534.2005932290343" stroke="grey" stroke-width="5" fill="none" />
<path d="M593.696165850808,534.2005932290343 L114.55499999999995,41.81439999999998" stroke="grey" stroke-width="5" />
<circle cx="593.696165850808" cy="534.2005932290343" r="2.5" fill="grey" stroke="none" />
<circle cx="590.555" cy="541.8144" r="5" fill="black" stroke="none" />
<circle cx="614.555" cy="541.8144" r="5" fill="black" stroke="none" />
<path d="M614.555,541.8144 A121.94790720779093,121.94790720779093,0,0,0,616.7472632884411,535.233060994177" stroke="grey" stroke-width="5" fill="none" />
<path d="M616.7472632884411,535.233060994177 L138.55499999999995,41.81439999999998" stroke="grey" stroke-width="5" />
<circle cx="616.7472632884411" cy="535.233060994177" r="2.5" fill="grey" stroke="none" />
<circle cx="614.555" cy="541.8144" r="5" fill="black" stroke="none" />
<circle cx="638.555" cy="541.8144" r="5" fill="black" stroke="none" />
<path d="M638.555,541.8144 L633.3395196895101,540.2404244675764" stroke="grey" stroke-width="5" />
<circle cx="633.3395196895101" cy="540.2404244675764" r="2.5" fill="grey" stroke="none" />
<path d="M633.3395196895101,540.2404244675764 A139.27928515166923,139.27928515166923,0,0,0,638.555,485.8144" stroke="grey" stroke-width="5" fill="none" />
<circle cx="638.555" cy="541.8144" r="5" fill="black" stroke="none" />
<circle cx="638.555" cy="485.8144" r="5" fill="black" stroke="none" />
<path d="M638.555,485.8144 A139.27928515166923,139.27928515166923,0,0,0,636.0871699836304,470.35204158451245" stroke="grey" stroke-width="5" fill="none" />
<path d="M636.0871699836304,470.35204158451245 L138.55499999999995,-30.185600000000022" stroke="grey" stroke-width="5" />
<circle cx="636.0871699836304" cy="470.35204158451245" r="2.5" fill="grey" stroke="none" />
<circle cx="638.555" cy="485.8144" r="5" fill="black" stroke="none" />
<circle cx="638.555" cy="469.8144" r="5" fill="black" stroke="none" />
<path d="M638.555,469.8144 A141.80500157737734,141.80500157737734,0,0,0,634.5278618072111,455.156796836757" stroke="grey" stroke-width="5" fill="none" />
<path d="M634.5278618072111,455.156796836757 L138.55499999999995,-46.18560000000002" stroke="grey" stroke-width="5" />
<circle cx="634.5278618072111" cy="455.156796836757" r="2.5" fill="grey" stroke="none" />
<circle cx="638.555" cy="469.8144" r="5" fill="black" stroke="none" />
<circle cx="638.555" cy="453.8144" r="5" fill="black" stroke="none" />
<path d="M638.555,453.8144 A146.04998347264538,146.04998347264538,0,0,0,630.2877239792576,434.0022223657133" stroke="grey" stroke-width="5" fill="none" />
<path d="M630.2877239792576,434.0022223657133 L138.55499999999995,-70.18560000000002" stroke="grey" stroke-width="5" />
<circle cx="630.2877239792576" cy="434.0022223657133" r="2.5" fill="grey" stroke="none" />
<circle cx="638.555" cy="453.8144" r="5" fill="black" stroke="none" />
<circle cx="638.555" cy="429.8144" r="5" fill="black" stroke="none" />
<path d="M638.555,429.8144 A155.3174377600918,155.3174377600918,0,0,1,645.3698897444441,445.30903522474523" stroke="grey" stroke-width="5" fill="none" />
<path d="M645.3698897444441,445.30903522474523 L186.55499999999995,-70.18560000000002" stroke="grey" stroke-width="5" />
<circle cx="645.3698897444441" cy="445.30903522474523" r="2.5" fill="grey" stroke="none" />
<circle cx="638.555" cy="429.8144" r="5" fill="black" stroke="none" />
<circle cx="686.555" cy="429.8144" r="5" fill="black" stroke="none" />
<path d="M686.555,429.8144 L676.8777139681653,433.455182217126" stroke="grey" stroke-width="5" />
<circle cx="676.8777139681653" cy="433.455182217126" r="2.5" fill="grey" stroke="none" />
<path d="M676.8777139681653,433.455182217126 A188.98131778660024,188.98131778660024,0,0,1,686.555,469.8144" stroke="grey" stroke-width="5" fill="none" />
<circle cx="686.555" cy="429.8144" r="5" fill="black" stroke="none" />
<circle cx="686.555" cy="469.8144" r="5" fill="black" stroke="none" />
<path d="M686.555,469.8144 L639.9843771813479,477.3497766565072" stroke="grey" stroke-width="5" />
<circle cx="639.9843771813479" cy="477.3497766565072" r="2.5" fill="grey" stroke="none" />
<path d="M639.9843771813479,477.3497766565072 A141.80500157737734,141.80500157737734,0,0,0,638.555,469.8144" stroke="grey" stroke-width="5" fill="none" />
<circle cx="686.555" cy="469.8144" r="5" fill="black" stroke="none" />
<circle cx="638.555" cy="469.8144" r="5" fill="black" stroke="none" />
<path d="M638.555,453.8144 A146.04998347264538,146.04998347264538,0,0,1,642.894201858233,469.80323282769274" stroke="grey" stroke-width="5" fill="none" />
<path d="M642.894201858233,469.80323282769274 L218.55499999999995,-46.18560000000002" stroke="grey" stroke-width="5" />
<circle cx="642.894201858233" cy="469.80323282769274" r="2.5" fill="grey" stroke="none" />
<circle cx="638.555" cy="453.8144" r="5" fill="black" stroke="none" />
<circle cx="718.555" cy="453.8144" r="5" fill="black" stroke="none" />
<circle cx="500" cy="500" r="5" fill="red" stroke="none" />
</svg>