<?xml version="1.0" encoding="UTF-8"?>
<svg xmlns="http://www.w3.org/2000/svg" xmlns:xlink="http://www.w3.org/1999/xlink"
     width="1000" height="1000" viewBox="0 0 1000 1000">
<defs>
</defs>
<rect x="0" y="0" width="1000" height="1000" fill="white" />
<path d="M356.875,254.0 L395.7374795738584,320.7959474247627" stroke="grey" stroke-width="5" />
<circle cx="395.7374795738584" cy="320.7959474247627" r="2.5" fill="grey" stroke="none" />
<path d="M395.7374795738584,320.7959474247627 A207.32767693918726,207.32767693918726,0,0,0,356.8750000000001,349.99999999999994" stroke="grey" stroke-width="5" fill="none" />
<circle cx="356.875" cy="254.0" r="5" fill="black" stroke="none" />
<circle cx="356.875" cy="350.0" r="5" fill="black" stroke="none" />
<path d="M356.875,350.0 L415.1796276710396,411.10528664213757" stroke="grey" stroke-width="5" />
<circle cx="415.1796276710396" cy="411.10528664213757" r="2.5" fill="grey" stroke="none" />
<path d="M415.1796276710396,411.1052866421375 A122.86889608440372,122.86889608440372,0,0,1,420.875,406.0" stroke="grey" stroke-width="5" fill="none" />
<circle cx="356.875" cy="350.0" r="5" fill="black" stroke="none" />
<circle cx="420.875" cy="406.0" r="5" fill="black" stroke="none" />
<path d="M332.875,406.0 L392.90833683840424,439.76594562638746" stroke="grey" stroke-width="5" />
<circle cx="392.90833683840424" cy="439.76594562638746" r="2.5" fill="grey" stroke="none" />
<path d="M392.90833683840424,439.7659456263874 A122.86889608440372,122.86889608440372,0,0,1,420.875,406.0" stroke="grey" stroke-width="5" fill="none" />
<circle cx="332.875" cy="406.0" r="5" fill="black" stroke="none" />
<circle cx="420.875" cy="406.0" r="5" fill="black" stroke="none" />
<path d="M420.875,406.0 L459.8105159486331,452.2551469089607" stroke="grey" stroke-width="5" />
<circle cx="459.8105159486331" cy="452.2551469089607" r="2.5" fill="grey" stroke="none" />
<path d="M459.8105159486331,452.2551469089607 A62.40805737242588,62.40805737242588,0,0,1,492.875,438.0" stroke="grey" stroke-width="5" fill="none" />
<circle cx="420.875" cy="406.0" r="5" fill="black" stroke="none" />
<circle cx="492.875" cy="438.0" r="5" fill="black" stroke="none" />
<path d="M492.875,438.0 L494.6514226691461,453.45799375256934" stroke="grey" stroke-width="5" />
<circle cx="494.6514226691461" cy="453.45799375256934" r="2.5" fill="grey" stroke="none" />
<path d="M494.6514226691461,453.45799375256934 A46.848325743829946,46.848325743829946,0,0,1,508.875,454.0" stroke="grey" stroke-width="5" fill="none" />
<circle cx="492.875" cy="438.0" r="5" fill="black" stroke="none" />
<circle cx="508.875" cy="454.0" r="5" fill="black" stroke="none" />
<path d="M508.875,454.0 L508.1850094376245,457.5762891120308" stroke="grey" stroke-width="5" />
<circle cx="508.1850094376245" cy="457.5762891120308" r="2.5" fill="grey" stroke="none" />
<path d="M508.1850094376245,457.5762891120308 A43.20608319438364,43.20608319438364,0,0,1,540.875,486.0" stroke="grey" stroke-width="5" fill="none" />
<circle cx="508.875" cy="454.0" r="5" fill="black" stroke="none" />
<circle cx="540.875" cy="486.0" r="5" fill="black" stroke="none" />
<path d="M508.875,454.0 A46.848325743829946,46.848325743829946,0,0,0,473.80113514410056,538.8379338438892" stroke="grey" stroke-width="5" fill="none" />
<path d="M473.80113514410056,538.8379338438892 L460.875,558.0" stroke="grey" stroke-width="5" />
<circle cx="473.80113514410056" cy="538.8379338438892" r="2.5" fill="grey" stroke="none" />
<circle cx="508.875" cy="454.0" r="5" fill="black" stroke="none" />
<circle cx="460.875" cy="558.0" r="5" fill="black" stroke="none" />
<path d="M460.875,558.0 A69.96260161686385,69.96260161686385,0,0,0,480.91672745378696,567.3096897476653" stroke="grey" stroke-width="5" fill="none" />
<path d="M480.91672745378696,567.3096897476653 L460.875,638.0" stroke="grey" stroke-width="5" />
<circle cx="480.91672745378696" cy="567.3096897476653" r="2.5" fill="grey" stroke="none" />
<circle cx="460.875" cy="558.0" r="5" fill="black" stroke="none" />
<circle cx="460.875" cy="638.0" r="5" fill="black" stroke="none" />
<path d="M356.875,654.0 L402.3509433700167,605.0686792734843" stroke="grey" stroke-width="5" />
<circle cx="402.3509433700167" cy="605.0686792734843" r="2.5" fill="grey" stroke="none" />
<path d="M402.3509433700167,605.0686792734843 A143.43906589559205,143.43906589559205,0,0,0,460.875,638.0" stroke="grey" stroke-width="5" fill="none" />
<circle cx="356.875" cy="654.0" r="5" fill="black" stroke="none" />
<circle cx="460.875" cy="638.0" r="5" fill="black" stroke="none" />
<path d="M460.875,638.0 A143.43906589559205,143.43906589559205,0,0,0,478.4937379058738,641.8176516366659" stroke="grey" stroke-width="5" fill="none" />
<path d="M478.4937379058738,641.8176516366659 L460.875,758.0" stroke="grey" stroke-width="5" />
<circle cx="478.4937379058738" cy="641.8176516366659" r="2.5" fill="grey" stroke="none" />
<circle cx="460.875" cy="638.0" r="5" fill="black" stroke="none" />
<circle cx="460.875" cy="758.0" r="5" fill="black" stroke="none" />
<path d="M460.875,558.0 A69.96260161686385,69.96260161686385,0,0,0,540.3026949298301,557.1879218576182" stroke="grey" stroke-width="5" fill="none" />
<path d="M540.3026949298301,557.1879218576182 L540.875,558.0" stroke="grey" stroke-width="5" />
<circle cx="540.3026949298301" cy="557.1879218576182" r="2.5" fill="grey" stroke="none" />
<circle cx="460.875" cy="558.0" r="5" fill="black" stroke="none" />
<circle cx="540.875" cy="558.0" r="5" fill="black" stroke="none" />
<path d="M540.875,486.0 A43.20608319438364,43.20608319438364,0,0,1,524.8893201489576,535.3169558076952" stroke="grey" stroke-width="5" fill="none" />
<path d="M524.8893201489576,535.3169558076952 L540.875,558.0" stroke="grey" stroke-width="5" />
<circle cx="524.8893201489576" cy="535.3169558076952" r="2.5" fill="grey" stroke="none" />
<circle cx="540.875" cy="486.0" r="5" fill="black" stroke="none" />
<circle cx="540.875" cy="558.0" r="5" fill="black" stroke="none" />
<path d="M540.875,558.0 A70.95608236789853,70.95608236789853,0,0,0,563.1117449673372,532.4295123641689" stroke="grey" stroke-width="5" fill="none" />
<path d="M563.1117449673372,532.4295123641689 L612.875,558.0" stroke="grey" stroke-width="5" />
<circle cx="563.1117449673372" cy="532.4295123641689" r="2.5" fill="grey" stroke="none" />
<circle cx="540.875" cy="558.0" r="5" fill="black" stroke="none" />
<circle cx="612.875" cy="558.0" r="5" fill="black" stroke="none" />
<path d="M540.875,486.0 A43.20608319438364,43.20608319438364,0,0,1,542.572923273138,492.63034403927134" stroke="grey" stroke-width="5" fill="none" />
<path d="M542.572923273138,492.63034403927134 L580.875,486.0" stroke="grey" stroke-width="5" />
<circle cx="542.572923273138" cy="492.63034403927134" r="2.5" fill="grey" stroke="none" />
<circle cx="540.875" cy="486.0" r="5" fill="black" stroke="none" />
<circle cx="580.875" cy="486.0" r="5" fill="black" stroke="none" />
<path d="M612.875,558.0 A126.90455320830691,126.90455320830691,0,0,0,626.3981054983637,511.32627703283407" stroke="grey" stroke-width="5" fill="none" />
<path d="M626.3981054983637,511.32627703283407 L700.875,518.0" stroke="grey" stroke-width="5" />
<circle cx="626.3981054983637" cy="511.32627703283407" r="2.5" fill="grey" stroke="none" />
<circle cx="612.875" cy="558.0" r="5" fill="black" stroke="none" />
<circle cx="700.875" cy="518.0" r="5" fill="black" stroke="none" />
<path d="M580.875,486.0 A82.07780226711726,82.07780226711726,0,0,1,581.9192000644509,494.8999719804233" stroke="grey" stroke-width="5" fill="none" />
<path d="M581.9192000644509,494.8999719804233 L724.875,486.0" stroke="grey" stroke-width="5" />
<circle cx="581.9192000644509" cy="494.8999719804233" r="2.5" fill="grey" stroke="none" />
<circle cx="580.875" cy="486.0" r="5" fill="black" stroke="none" />
<circle cx="724.875" cy="486.0" r="5" fill="black" stroke="none" />
<path d="M700.875,518.0 A201.6798592447942,201.6798592447942,0,0,0,701.2901452292365,487.4683178067401" stroke="grey" stroke-width="5" fill="none" />
<path d="M701.2901452292365,487.4683178067401 L724.875,486.0" stroke="grey" stroke-width="5" />
<circle cx="701.2901452292365" cy="487.4683178067401" r="2.5" fill="grey" stroke="none" />
<circle cx="700.875" cy="518.0" r="5" fill="black" stroke="none" />
<circle cx="724.875" cy="486.0" r="5" fill="black" stroke="none" />
<path d="M460.875,638.0 A143.43906589559205,143.43906589559205,0,0,0,572.5255482656825,623.7530220793099" stroke="grey" stroke-width="5" fill="none" />
<path d="M572.5255482656825,623.7530220793099 L580.875,638.0" stroke="grey" stroke-width="5" />
<circle cx="572.5255482656825" cy="623.7530220793099" r="2.5" fill="grey" stroke="none" />
<circle cx="460.875" cy="638.0" r="5" fill="black" stroke="none" />
<circle cx="580.875" cy="638.0" r="5" fill="black" stroke="none" />
<path d="M580.875,638.0 A159.9523854933086,159.9523854933086,0,0,0,655.6250674669545,536.954079624662" stroke="grey" stroke-width="5" fill="none" />
<path d="M655.6250674669545,536.954079624662 L676.875,542.0" stroke="grey" stroke-width="5" />
<circle cx="655.6250674669545" cy="536.954079624662" r="2.5" fill="grey" stroke="none" />
<circle cx="580.875" cy="638.0" r="5" fill="black" stroke="none" />
<circle cx="676.875" cy="542.0" r="5" fill="black" stroke="none" />
<path d="M676.875,542.0 A181.79319466085633,181.79319466085633,0,0,0,681.067698649944,516.2251080308599" stroke="grey" stroke-width="5" fill="none" />
<path d="M681.067698649944,516.2251080308599 L700.875,518.0" stroke="grey" stroke-width="5" />
<circle cx="681.067698649944" cy="516.2251080308599" r="2.5" fill="grey" stroke="none" />
<circle cx="676.875" cy="542.0" r="5" fill="black" stroke="none" />
<circle cx="700.875" cy="518.0" r="5" fill="black" stroke="none" />
<path d="M700.875,518.0 A201.6798592447942,201.6798592447942,0,0,1,697.410944004763,541.2757169792161" stroke="grey" stroke-width="5" fill="none" />
<path d="M697.410944004763,541.2757169792161 L700.875,542.0" stroke="grey" stroke-width="5" />
<circle cx="697.410944004763" cy="541.2757169792161" r="2.5" fill="grey" stroke="none" />
<circle cx="700.875" cy="518.0" r="5" fill="black" stroke="none" />
<circle cx="700.875" cy="542.0" r="5" fill="black" stroke="none" />
<path d="M700.875,542.0 A205.21882375893298,205.21882375893298,0,0,1,639.0628078179875,650.9181934253703" stroke="grey" stroke-width="5" fill="none" />
<path d="M639.0628078179875,650.9181934253703 L700.875,718.0" stroke="grey" stroke-width="5" />
<circle cx="639.0628078179875" cy="650.9181934253703" r="2.5" fill="grey" stroke="none" />
<circle cx="700.875" cy="542.0" r="5" fill="black" stroke="none" />
<circle cx="700.875" cy="718.0" r="5" fill="black" stroke="none" />
<path d="M700.875,718.0 A296.43678183552055,296.43678183552055,0,0,0,738.9361085764663,675.4545572030978" stroke="grey" stroke-width="5" fill="none" />
<path d="M738.9361085764663,675.4545572030978 L796.875,718.0" stroke="grey" stroke-width="5" />
<circle cx="738.9361085764663" cy="675.4545572030978" r="2.5" fill="grey" stroke="none" />
<circle cx="700.875" cy="718.0" r="5" fill="black" stroke="none" />
<circle cx="796.875" cy="718.0" r="5" fill="black" stroke="none" />
<path d="M700.875,718.0 A296.43678183552055,296.43678183552055,0,0,1,678.6437090096902,736.5611778298821" stroke="grey" stroke-width="5" fill="none" />
<path d="M678.6437090096902,736.5611778298821 L700.875,766.0" stroke="grey" stroke-width="5" />
<circle cx="678.6437090096902" cy="736.5611778298821" r="2.5" fill="grey" stroke="none" />
<circle cx="700.875" cy="718.0" r="5" fill="black" stroke="none" />
<circle cx="700.875" cy="766.0" r="5" fill="black" stroke="none" />
<path d="M388.875,342.0 L397.8893171601285,354.81675690708937" stroke="grey" stroke-width="5" />
<circle cx="397.8893171601285" cy="354.81675690708937" r="2.5" fill="grey" stroke="none" />
<path d="M397.8893171601285,354.81675690708937 A177.49581861272114,177.49581861272114,0,0,1,580.875,342.0" stroke="grey" stroke-width="5" fill="none" />
<circle cx="388.875" cy="342.0" r="5" fill="black" stroke="none" />
<circle cx="580.875" cy="342.0" r="5" fill="black" stroke="none" />
<path d="M580.875,342.0 L537.3983021697918,426.9374745863727" stroke="grey" stroke-width="5" />
<circle cx="537.3983021697918" cy="426.9374745863727" r="2.5" fill="grey" stroke="none" />
<path d="M537.3983021697918,426.9374745863727 A82.07780226711726,82.07780226711726,0,0,1,580.875,486.0" stroke="grey" stroke-width="5" fill="none" />
<circle cx="580.875" cy="342.0" r="5" fill="black" stroke="none" />
<circle cx="580.875" cy="486.0" r="5" fill="black" stroke="none" />
<path d="M580.875,342.0 A177.49581861272114,177.49581861272114,0,0,0,557.1079053150427,331.9421148070459" stroke="grey" stroke-width="5" fill="none" />
<path d="M557.1079053150427,331.942114807046 L580.875,262.0" stroke="grey" stroke-width="5" />
<circle cx="557.1079053150427" cy="331.942114807046" r="2.5" fill="grey" stroke="none" />
<circle cx="580.875" cy="342.0" r="5" fill="black" stroke="none" />
<circle cx="580.875" cy="262.0" r="5" fill="black" stroke="none" />
<path d="M580.875,262.0 A251.36580042837969,251.36580042837969,0,0,0,566.6704314992896,257.63700944925904" stroke="grey" stroke-width="5" fill="none" />
<path d="M566.6704314992896,257.63700944925904 L580.875,206.0" stroke="grey" stroke-width="5" />
<circle cx="566.6704314992896" cy="257.63700944925904" r="2.5" fill="grey" stroke="none" />
<circle cx="580.875" cy="262.0" r="5" fill="black" stroke="none" />
<circle cx="580.875" cy="206.0" r="5" fill="black" stroke="none" />
<path d="M580.875,262.0 L572.9786094530588,285.23760062036484" stroke="grey" stroke-width="5" />
<circle cx="572.9786094530588" cy="285.23760062036484" r="2.5" fill="grey" stroke="none" />
<path d="M572.9786094530588,285.2376006203648 A226.82320345370312,226.82320345370312,0,0,1,676.875,358.0" stroke="grey" stroke-width="5" fill="none" />
<circle cx="580.875" cy="262.0" r="5" fill="black" stroke="none" />
<circle cx="676.875" cy="358.0" r="5" fill="black" stroke="none" />
<path d="M580.875,342.0 A177.49581861272114,177.49581861272114,0,0,1,638.4098824066427,388.8808293894374" stroke="grey" stroke-width="5" fill="none" />
<path d="M638.4098824066427,388.88082938943734 L676.875,358.0" stroke="grey" stroke-width="5" />
<circle cx="638.4098824066427" cy="388.88082938943734" r="2.5" fill="grey" stroke="none" />
<circle cx="580.875" cy="342.0" r="5" fill="black" stroke="none" />
<circle cx="676.875" cy="358.0" r="5" fill="black" stroke="none" />
<path d="M676.875,358.0 A226.82320345370312,226.82320345370312,0,0,1,716.5730463335776,432.58426573273846" stroke="grey" stroke-width="5" fill="none" />
<path d="M716.5730463335776,432.58426573273846 L724.875,430.0" stroke="grey" stroke-width="5" />
<circle cx="716.5730463335776" cy="432.58426573273846" r="2.5" fill="grey" stroke="none" />
<circle cx="676.875" cy="358.0" r="5" fill="black" stroke="none" />
<circle cx="724.875" cy="430.0" r="5" fill="black" stroke="none" />
<path d="M676.875,542.0 A181.79319466085633,181.79319466085633,0,0,0,677.9452162750734,537.2057203910546" stroke="grey" stroke-width="5" fill="none" />
<path d="M677.9452162750734,537.2057203910546 L700.875,542.0" stroke="grey" stroke-width="5" />
<circle cx="677.9452162750734" cy="537.2057203910546" r="2.5" fill="grey" stroke="none" />
<circle cx="676.875" cy="542.0" r="5" fill="black" stroke="none" />
<circle cx="700.875" cy="542.0" r="5" fill="black" stroke="none" />
<path d="M700.875,542.0 A205.21882375893298,205.21882375893298,0,0,0,701.7304824570341,537.6772885522865" stroke="grey" stroke-width="5" fill="none" />
<path d="M701.7304824570341,537.6772885522865 L724.875,542.0" stroke="grey" stroke-width="5" />
<circle cx="701.7304824570341" cy="537.6772885522865" r="2.5" fill="grey" stroke="none" />
<circle cx="700.875" cy="542.0" r="5" fill="black" stroke="none" />
<circle cx="724.875" cy="542.0" r="5" fill="black" stroke="none" />
<path d="M724.875,542.0 L721.4805155862127,541.3660106931447" stroke="grey" stroke-width="5" />
<circle cx="721.4805155862127" cy="541.3660106931447" r="2.5" fill="grey" stroke="none" />
<path d="M721.4805155862127,541.3660106931447 A225.31037620358276,225.31037620358276,0,0,0,724.875,486.0" stroke="grey" stroke-width="5" fill="none" />
<circle cx="724.875" cy="542.0" r="5" fill="black" stroke="none" />
<circle cx="724.875" cy="486.0" r="5" fill="black" stroke="none" />
<path d="M724.875,486.0 A225.31037620358276,225.31037620358276,0,0,0,723.331762191983,470.2058794185237" stroke="grey" stroke-width="5" fill="none" />
<path d="M723.331762191983,470.2058794185237 L724.875,470.0" stroke="grey" stroke-width="5" />
<circle cx="723.331762191983" cy="470.2058794185237" r="2.5" fill="grey" stroke="none" />
<circle cx="724.875" cy="486.0" r="5" fill="black" stroke="none" />
<circle cx="724.875" cy="470.0" r="5" fill="black" stroke="none" />
<path d="M724.875,470.0 A226.86728637024774,226.86728637024774,0,0,0,722.2647168022717,454.53395453961315" stroke="grey" stroke-width="5" fill="none" />
<path d="M722.2647168022717,454.53395453961315 L724.875,454.0" stroke="grey" stroke-width="5" />
<circle cx="722.2647168022717" cy="454.53395453961315" r="2.5" fill="grey" stroke="none" />
<circle cx="724.875" cy="470.0" r="5" fill="black" stroke="none" />
<circle cx="724.875" cy="454.0" r="5" fill="black" stroke="none" />
<path d="M724.875,454.0 A229.53162227675733,229.53162227675733,0,0,0,719.1590715123278,431.77927735024815" stroke="grey" stroke-width="5" fill="none" />
<path d="M719.1590715123278,431.77927735024815 L724.875,430.0" stroke="grey" stroke-width="5" />
<circle cx="719.1590715123278" cy="431.77927735024815" r="2.5" fill="grey" stroke="none" />
<circle cx="724.875" cy="454.0" r="5" fill="black" stroke="none" />
<circle cx="724.875" cy="430.0" r="5" fill="black" stroke="none" />
<path d="M724.875,430.0 A235.5180791892631,235.5180791892631,0,0,1,728.1314048639999,441.47797218330743" stroke="grey" stroke-width="5" fill="none" />
<path d="M728.1314048639999,441.4779721833074 L772.875,430.0" stroke="grey" stroke-width="5" />
<circle cx="728.1314048639999" cy="441.4779721833074" r="2.5" fill="grey" stroke="none" />
<circle cx="724.875" cy="430.0" r="5" fill="black" stroke="none" />
<circle cx="772.875" cy="430.0" r="5" fill="black" stroke="none" />
<path d="M772.875,430.0 L765.9092684521872,431.7869031913766" stroke="grey" stroke-width="5" />
<circle cx="765.9092684521872" cy="431.7869031913766" r="2.5" fill="grey" stroke="none" />
<path d="M765.9092684521872,431.7869031913766 A274.5191534756728,274.5191534756728,0,0,1,772.875,470.0" stroke="grey" stroke-width="5" fill="none" />
<circle cx="772.875" cy="430.0" r="5" fill="black" stroke="none" />
<circle cx="772.875" cy="470.0" r="5" fill="black" stroke="none" />
<path d="M772.875,470.0 L725.5085300405727,475.2074909712609" stroke="grey" stroke-width="5" />
<circle cx="725.5085300405727" cy="475.2074909712609" r="2.5" fill="grey" stroke="none" />
<path d="M725.5085300405727,475.2074909712609 A226.86728637024774,226.86728637024774,0,0,0,724.875,470.0" stroke="grey" stroke-width="5" fill="none" />
<circle cx="772.875" cy="470.0" r="5" fill="black" stroke="none" />
<circle cx="724.875" cy="470.0" r="5" fill="black" stroke="none" />
<path d="M724.875,454.0 A229.53162227675733,229.53162227675733,0,0,1,726.9627309991934,465.7555207020487" stroke="grey" stroke-width="5" fill="none" />
<path d="M726.9627309991934,465.7555207020487 L804.875,454.0" stroke="grey" stroke-width="5" />
<circle cx="726.9627309991934" cy="465.7555207020487" r="2.5" fill="grey" stroke="none" />
<circle cx="724.875" cy="454.0" r="5" fill="black" stroke="none" />
<circle cx="804.875" cy="454.0" r="5" fill="black" stroke="none" />
<circle cx="500" cy="500" r="5" fill="red" stroke="none" />
</svg>