<?xml version="1.0" encoding="UTF-8"?>
<svg xmlns="http://www.w3.org/2000/svg" xmlns:xlink="http://www.w3.org/1999/xlink"
     width="1000" height="1000" viewBox="0 0 1000 1000">
<defs>
</defs>
<rect x="0" y="0" width="1000" height="1000" fill="white" />
<path d="M316.11259950000004,248.42613264 L357.8607278557286,305.5411828116529" stroke="grey" stroke-width="5" />
<circle cx="357.8607278557286" cy="305.5411828116529" r="2.5" fill="grey" stroke="none" />
<path d="M357.8607278557286,305.5411828116529 A240.86885283903823,240.86885283903823,0,0,0,316.1125995000001,344.4261326399999" stroke="grey" stroke-width="5" fill="none" />
<circle cx="316.11259950000004" cy="248.42613264" r="5" fill="black" stroke="none" />
<circle cx="316.11259950000004" cy="344.42613264" r="5" fill="black" stroke="none" />
<path d="M316.11259950000004,344.42613264 L381.0219889935396,399.34128573928206" stroke="grey" stroke-width="5" />
<circle cx="381.0219889935396" cy="399.34128573928206" r="2.5" fill="grey" stroke="none" />
<path d="M381.02198899353965,399.34128573928206 A155.84589779546417,155.84589779546417,0,0,0,380.11259950000004,400.42613264" stroke="grey" stroke-width="5" fill="none" />
<circle cx="316.11259950000004" cy="344.42613264" r="5" fill="black" stroke="none" />
<circle cx="380.11259950000004" cy="400.42613264" r="5" fill="black" stroke="none" />
<path d="M292.11259950000004,400.42613264 L359.4454381970072,432.6772028504242" stroke="grey" stroke-width="5" />
<circle cx="359.4454381970072" cy="432.6772028504242" r="2.5" fill="grey" stroke="none" />
<path d="M359.4454381970072,432.6772028504242 A155.84589779546417,155.84589779546417,0,0,1,380.11259950000004,400.42613264" stroke="grey" stroke-width="5" fill="none" />
<circle cx="292.11259950000004" cy="400.42613264" r="5" fill="black" stroke="none" />
<circle cx="380.11259950000004" cy="400.42613264" r="5" fill="black" stroke="none" />
<path d="M380.11259950000004,400.42613264 L436.28785832868334,447.083143703652" stroke="grey" stroke-width="5" />
<circle cx="436.28785832868334" cy="447.083143703652" r="2.5" fill="grey" stroke="none" />
<path d="M436.28785832868334,447.083143703652 A82.82167999161977,82.82167999161977,0,0,1,452.11259950000004,432.42613264" stroke="grey" stroke-width="5" fill="none" />
<circle cx="380.11259950000004" cy="400.42613264" r="5" fill="black" stroke="none" />
<circle cx="452.11259950000004" cy="432.42613264" r="5" fill="black" stroke="none" />
<path d="M452.11259950000004,432.42613264 L464.94059358276996,450.52770344136263" stroke="grey" stroke-width="5" />
<circle cx="464.94059358276996" cy="450.52770344136263" r="2.5" fill="grey" stroke="none" />
<path d="M464.94059358276996,450.52770344136263 A60.635551495094624,60.635551495094624,0,0,1,468.11259950000004,448.42613264" stroke="grey" stroke-width="5" fill="none" />
<circle cx="452.11259950000004" cy="432.42613264" r="5" fill="black" stroke="none" />
<circle cx="468.11259950000004" cy="448.42613264" r="5" fill="black" stroke="none" />
<path d="M468.11259950000004,448.42613264 L489.7062027204581,483.3510751205379" stroke="grey" stroke-width="5" />
<circle cx="489.7062027204581" cy="483.3510751205379" r="2.5" fill="grey" stroke="none" />
<path d="M489.7062027204581,483.3510751205379 A19.574191224014186,19.574191224014186,0,0,1,500.11259950000004,480.42613264" stroke="grey" stroke-width="5" fill="none" />
<circle cx="468.11259950000004" cy="448.42613264" r="5" fill="black" stroke="none" />
<circle cx="500.11259950000004" cy="480.42613264" r="5" fill="black" stroke="none" />
<path d="M468.11259950000004,448.42613264 A60.635551495094624,60.635551495094624,0,0,0,449.30578143615486,533.2680974706304" stroke="grey" stroke-width="5" fill="none" />
<path d="M449.30578143615486,533.2680974706304 L420.11259950000004,552.42613264" stroke="grey" stroke-width="5" />
<circle cx="449.30578143615486" cy="533.2680974706304" r="2.5" fill="grey" stroke="none" />
<circle cx="468.11259950000004" cy="448.42613264" r="5" fill="black" stroke="none" />
<circle cx="420.11259950000004" cy="552.42613264" r="5" fill="black" stroke="none" />
<path d="M420.11259950000004,552.42613264 A95.5536296654097,95.5536296654097,0,0,0,450.64207452199395,581.8186490645126" stroke="grey" stroke-width="5" fill="none" />
<path d="M450.64207452199395,581.8186490645126 L420.11259950000004,632.42613264" stroke="grey" stroke-width="5" />
<circle cx="450.64207452199395" cy="581.8186490645126" r="2.5" fill="grey" stroke="none" />
<circle cx="420.11259950000004" cy="552.42613264" r="5" fill="black" stroke="none" />
<circle cx="420.11259950000004" cy="632.42613264" r="5" fill="black" stroke="none" />
<path d="M316.11259950000004,648.42613264 L379.65478625283185,597.137566846111" stroke="grey" stroke-width="5" />
<circle cx="379.65478625283185" cy="597.137566846111" r="2.5" fill="grey" stroke="none" />
<path d="M379.65478625283185,597.137566846111 A154.65664345457088,154.65664345457088,0,0,0,420.11259950000004,632.42613264" stroke="grey" stroke-width="5" fill="none" />
<circle cx="316.11259950000004" cy="648.42613264" r="5" fill="black" stroke="none" />
<circle cx="420.11259950000004" cy="632.42613264" r="5" fill="black" stroke="none" />
<path d="M420.11259950000004,632.42613264 A154.65664345457088,154.65664345457088,0,0,0,453.33568224277303,647.4486989189352" stroke="grey" stroke-width="5" fill="none" />
<path d="M453.33568224277303,647.4486989189352 L420.11259950000004,752.42613264" stroke="grey" stroke-width="5" />
<circle cx="453.33568224277303" cy="647.4486989189352" r="2.5" fill="grey" stroke="none" />
<circle cx="420.11259950000004" cy="632.42613264" r="5" fill="black" stroke="none" />
<circle cx="420.11259950000004" cy="752.42613264" r="5" fill="black" stroke="none" />
<path d="M420.11259950000004,552.42613264 L456.1691467979912,528.7640117128718" stroke="grey" stroke-width="5" />
<circle cx="456.1691467979912" cy="528.7640117128718" r="2.5" fill="grey" stroke="none" />
<path d="M456.1691467979912,528.7640117128718 A52.42625355901634,52.42625355901634,0,0,0,500.11259950000004,552.42613264" stroke="grey" stroke-width="5" fill="none" />
<circle cx="420.11259950000004" cy="552.42613264" r="5" fill="black" stroke="none" />
<circle cx="500.11259950000004" cy="552.42613264" r="5" fill="black" stroke="none" />
<path d="M500.11259950000004,480.42613264 A19.574191224014186,19.574191224014186,0,0,1,500.0420408477643,519.5741460769402" stroke="grey" stroke-width="5" fill="none" />
<path d="M500.0420408477643,519.5741460769402 L500.11259950000004,552.42613264" stroke="grey" stroke-width="5" />
<circle cx="500.0420408477643" cy="519.5741460769402" r="2.5" fill="grey" stroke="none" />
<circle cx="500.11259950000004" cy="480.42613264" r="5" fill="black" stroke="none" />
<circle cx="500.11259950000004" cy="552.42613264" r="5" fill="black" stroke="none" />
<path d="M500.11259950000004,552.42613264 A52.42625355901634,52.42625355901634,0,0,0,542.404427170359,530.8281789697022" stroke="grey" stroke-width="5" fill="none" />
<path d="M542.404427170359,530.8281789697022 L572.1125995,552.42613264" stroke="grey" stroke-width="5" />
<circle cx="542.404427170359" cy="530.8281789697022" r="2.5" fill="grey" stroke="none" />
<circle cx="500.11259950000004" cy="552.42613264" r="5" fill="black" stroke="none" />
<circle cx="572.1125995" cy="552.42613264" r="5" fill="black" stroke="none" />
<path d="M500.11259950000004,480.42613264 A19.574191224014186,19.574191224014186,0,0,1,517.5914995561404,491.415822378318" stroke="grey" stroke-width="5" fill="none" />
<path d="M517.5914995561404,491.415822378318 L540.1125995,480.42613264" stroke="grey" stroke-width="5" />
<circle cx="517.5914995561404" cy="491.415822378318" r="2.5" fill="grey" stroke="none" />
<circle cx="500.11259950000004" cy="480.42613264" r="5" fill="black" stroke="none" />
<circle cx="540.1125995" cy="480.42613264" r="5" fill="black" stroke="none" />
<path d="M572.1125995,552.42613264 A89.15563016565066,89.15563016565066,0,0,0,588.888339819553,506.8985095751141" stroke="grey" stroke-width="5" fill="none" />
<path d="M588.888339819553,506.8985095751141 L660.1125995,512.42613264" stroke="grey" stroke-width="5" />
<circle cx="588.888339819553" cy="506.8985095751141" r="2.5" fill="grey" stroke="none" />
<circle cx="572.1125995" cy="552.42613264" r="5" fill="black" stroke="none" />
<circle cx="660.1125995" cy="512.42613264" r="5" fill="black" stroke="none" />
<path d="M540.1125995,480.42613264 A44.633585135795194,44.633585135795194,0,0,1,544.3834611068864,495.28138767774055" stroke="grey" stroke-width="5" fill="none" />
<path d="M544.3834611068864,495.28138767774055 L684.1125995,480.42613264" stroke="grey" stroke-width="5" />
<circle cx="544.3834611068864" cy="495.28138767774055" r="2.5" fill="grey" stroke="none" />
<circle cx="540.1125995" cy="480.42613264" r="5" fill="black" stroke="none" />
<circle cx="684.1125995" cy="480.42613264" r="5" fill="black" stroke="none" />
<path d="M660.1125995,512.42613264 A160.59406368553692,160.59406368553692,0,0,0,659.694103843511,483.0221765631691" stroke="grey" stroke-width="5" fill="none" />
<path d="M659.694103843511,483.0221765631691 L684.1125995,480.42613264" stroke="grey" stroke-width="5" />
<circle cx="659.694103843511" cy="483.0221765631691" r="2.5" fill="grey" stroke="none" />
<circle cx="660.1125995" cy="512.42613264" r="5" fill="black" stroke="none" />
<circle cx="684.1125995" cy="480.42613264" r="5" fill="black" stroke="none" />
<path d="M420.11259950000004,632.42613264 L428.52645087634045,618.4788294181797" stroke="grey" stroke-width="5" />
<circle cx="428.52645087634045" cy="618.4788294181797" r="2.5" fill="grey" stroke="none" />
<path d="M428.52645087634045,618.4788294181797 A138.36799212474784,138.36799212474784,0,0,0,540.1125995000001,632.42613264" stroke="grey" stroke-width="5" fill="none" />
<circle cx="420.11259950000004" cy="632.42613264" r="5" fill="black" stroke="none" />
<circle cx="540.1125995" cy="632.42613264" r="5" fill="black" stroke="none" />
<path d="M540.1125995000001,632.42613264 A138.36799212474784,138.36799212474784,0,0,0,633.6642899122901,535.7709218063717" stroke="grey" stroke-width="5" fill="none" />
<path d="M633.6642899122901,535.7709218063717 L636.1125995,536.42613264" stroke="grey" stroke-width="5" />
<circle cx="633.6642899122901" cy="535.7709218063717" r="2.5" fill="grey" stroke="none" />
<circle cx="540.1125995" cy="632.42613264" r="5" fill="black" stroke="none" />
<circle cx="636.1125995" cy="536.42613264" r="5" fill="black" stroke="none" />
<path d="M636.1125995000001,536.42613264 A140.90245874985393,140.90245874985393,0,0,0,640.4800303861568,510.902474235637" stroke="grey" stroke-width="5" fill="none" />
<path d="M640.4800303861568,510.902474235637 L660.1125995,512.42613264" stroke="grey" stroke-width="5" />
<circle cx="640.4800303861568" cy="510.902474235637" r="2.5" fill="grey" stroke="none" />
<circle cx="636.1125995" cy="536.42613264" r="5" fill="black" stroke="none" />
<circle cx="660.1125995" cy="512.42613264" r="5" fill="black" stroke="none" />
<path d="M660.1125995,512.42613264 A160.59406368553692,160.59406368553692,0,0,1,656.5927438731921,535.6253541357714" stroke="grey" stroke-width="5" fill="none" />
<path d="M656.5927438731921,535.6253541357714 L660.1125995,536.42613264" stroke="grey" stroke-width="5" />
<circle cx="656.5927438731921" cy="535.6253541357714" r="2.5" fill="grey" stroke="none" />
<circle cx="660.1125995" cy="512.42613264" r="5" fill="black" stroke="none" />
<circle cx="660.1125995" cy="536.42613264" r="5" fill="black" stroke="none" />
<path d="M660.1125995,536.42613264 A164.20386005741244,164.20386005741244,0,0,1,598.8353210264877,631.1277505921054" stroke="grey" stroke-width="5" fill="none" />
<path d="M598.8353210264877,631.1277505921054 L660.1125995,712.42613264" stroke="grey" stroke-width="5" />
<circle cx="598.8353210264877" cy="631.1277505921054" r="2.5" fill="grey" stroke="none" />
<circle cx="660.1125995" cy="536.42613264" r="5" fill="black" stroke="none" />
<circle cx="660.1125995" cy="712.42613264" r="5" fill="black" stroke="none" />
<path d="M660.1125995,712.42613264 A266.0092222969615,266.0092222969615,0,0,0,704.7469735797627,669.8222104348022" stroke="grey" stroke-width="5" fill="none" />
<path d="M704.7469735797627,669.8222104348022 L756.1125995,712.42613264" stroke="grey" stroke-width="5" />
<circle cx="704.7469735797627" cy="669.8222104348022" r="2.5" fill="grey" stroke="none" />
<circle cx="660.1125995" cy="712.42613264" r="5" fill="black" stroke="none" />
<circle cx="756.1125995" cy="712.42613264" r="5" fill="black" stroke="none" />
<path d="M660.1125995,712.42613264 A266.0092222969615,266.0092222969615,0,0,1,639.3202965623111,726.6070636869556" stroke="grey" stroke-width="5" fill="none" />
<path d="M639.320296562311,726.6070636869557 L660.1125995,760.42613264" stroke="grey" stroke-width="5" />
<circle cx="639.320296562311" cy="726.6070636869557" r="2.5" fill="grey" stroke="none" />
<circle cx="660.1125995" cy="712.42613264" r="5" fill="black" stroke="none" />
<circle cx="660.1125995" cy="760.42613264" r="5" fill="black" stroke="none" />
<path d="M348.11259950000004,336.42613264 L385.39921570317057,376.5816425311621" stroke="grey" stroke-width="5" />
<circle cx="385.39921570317057" cy="376.5816425311621" r="2.5" fill="grey" stroke="none" />
<path d="M385.3992157031705,376.5816425311622 A168.42039876972825,168.42039876972825,0,0,1,540.1125995,336.42613264" stroke="grey" stroke-width="5" fill="none" />
<circle cx="348.11259950000004" cy="336.42613264" r="5" fill="black" stroke="none" />
<circle cx="540.1125995" cy="336.42613264" r="5" fill="black" stroke="none" />
<path d="M540.1125995,336.42613264 L510.6303579487968,456.6508084048303" stroke="grey" stroke-width="5" />
<circle cx="510.6303579487968" cy="456.6508084048303" r="2.5" fill="grey" stroke="none" />
<path d="M510.6303579487968,456.6508084048303 A44.633585135795194,44.633585135795194,0,0,1,540.1125995,480.42613264" stroke="grey" stroke-width="5" fill="none" />
<circle cx="540.1125995" cy="336.42613264" r="5" fill="black" stroke="none" />
<circle cx="540.1125995" cy="480.42613264" r="5" fill="black" stroke="none" />
<path d="M540.1125995,336.42613264 A168.42039876972825,168.42039876972825,0,0,0,527.36743371033,333.81800851516743" stroke="grey" stroke-width="5" fill="none" />
<path d="M527.36743371033,333.81800851516743 L540.1125995,256.42613264" stroke="grey" stroke-width="5" />
<circle cx="527.36743371033" cy="333.81800851516743" r="2.5" fill="grey" stroke="none" />
<circle cx="540.1125995" cy="336.42613264" r="5" fill="black" stroke="none" />
<circle cx="540.1125995" cy="256.42613264" r="5" fill="black" stroke="none" />
<path d="M540.1125995000001,256.42613264 A246.8547133423915,246.8547133423915,0,0,0,532.7611834727388,255.328885323952" stroke="grey" stroke-width="5" fill="none" />
<path d="M532.7611834727388,255.328885323952 L540.1125995,200.42613264" stroke="grey" stroke-width="5" />
<circle cx="532.7611834727388" cy="255.328885323952" r="2.5" fill="grey" stroke="none" />
<circle cx="540.1125995" cy="256.42613264" r="5" fill="black" stroke="none" />
<circle cx="540.1125995" cy="200.42613264" r="5" fill="black" stroke="none" />
<path d="M540.1125995,256.42613264 L532.6224936236987,301.9079532641302" stroke="grey" stroke-width="5" />
<circle cx="532.6224936236987" cy="301.9079532641302" r="2.5" fill="grey" stroke="none" />
<path d="M532.6224936236987,301.9079532641302 A200.7602701488377,200.7602701488377,0,0,1,636.1125995,352.42613264" stroke="grey" stroke-width="5" fill="none" />
<circle cx="540.1125995" cy="256.42613264" r="5" fill="black" stroke="none" />
<circle cx="636.1125995" cy="352.42613264" r="5" fill="black" stroke="none" />
<path d="M540.1125995,336.42613264 A168.42039876972825,168.42039876972825,0,0,1,614.186628003534,376.1983654916591" stroke="grey" stroke-width="5" fill="none" />
<path d="M614.186628003534,376.1983654916591 L636.1125995,352.42613264" stroke="grey" stroke-width="5" />
<circle cx="614.186628003534" cy="376.1983654916591" r="2.5" fill="grey" stroke="none" />
<circle cx="540.1125995" cy="336.42613264" r="5" fill="black" stroke="none" />
<circle cx="636.1125995" cy="352.42613264" r="5" fill="black" stroke="none" />
<path d="M636.1125995,352.42613264 L634.932547973793,353.70554959365563" stroke="grey" stroke-width="5" />
<circle cx="634.932547973793" cy="353.70554959365563" r="2.5" fill="grey" stroke="none" />
<path d="M634.932547973793,353.70554959365563 A199.01974455413787,199.01974455413787,0,0,1,684.1125995,424.42613264" stroke="grey" stroke-width="5" fill="none" />
<circle cx="636.1125995" cy="352.42613264" r="5" fill="black" stroke="none" />
<circle cx="684.1125995" cy="424.42613264" r="5" fill="black" stroke="none" />
<path d="M636.1125995000001,536.42613264 A140.90245874985393,140.90245874985393,0,0,0,637.3917698310663,531.257070631164" stroke="grey" stroke-width="5" fill="none" />
<path d="M637.3917698310663,531.257070631164 L660.1125995,536.42613264" stroke="grey" stroke-width="5" />
<circle cx="637.3917698310663" cy="531.257070631164" r="2.5" fill="grey" stroke="none" />
<circle cx="636.1125995" cy="536.42613264" r="5" fill="black" stroke="none" />
<circle cx="660.1125995" cy="536.42613264" r="5" fill="black" stroke="none" />
<path d="M660.1125995,536.42613264 A164.20386005741244,164.20386005741244,0,0,0,661.081479465027,531.8694937379368" stroke="grey" stroke-width="5" fill="none" />
<path d="M661.081479465027,531.8694937379368 L684.1125995,536.42613264" stroke="grey" stroke-width="5" />
<circle cx="661.081479465027" cy="531.8694937379368" r="2.5" fill="grey" stroke="none" />
<circle cx="660.1125995" cy="536.42613264" r="5" fill="black" stroke="none" />
<circle cx="684.1125995" cy="536.42613264" r="5" fill="black" stroke="none" />
<path d="M684.1125995,536.42613264 L681.6294900231851,535.9348567826837" stroke="grey" stroke-width="5" />
<circle cx="681.6294900231851" cy="535.9348567826837" r="2.5" fill="grey" stroke="none" />
<path d="M681.6294900231851,535.9348567826837 A185.15017034308744,185.15017034308744,0,0,0,684.1125995,480.42613264" stroke="grey" stroke-width="5" fill="none" />
<circle cx="684.1125995" cy="536.42613264" r="5" fill="black" stroke="none" />
<circle cx="684.1125995" cy="480.42613264" r="5" fill="black" stroke="none" />
<path d="M684.1125995,480.42613264 A185.15017034308744,185.15017034308744,0,0,0,681.7879023660319,464.87530595959106" stroke="grey" stroke-width="5" fill="none" />
<path d="M681.7879023660319,464.87530595959106 L684.1125995,464.42613264" stroke="grey" stroke-width="5" />
<circle cx="681.7879023660319" cy="464.87530595959106" r="2.5" fill="grey" stroke="none" />
<circle cx="684.1125995" cy="480.42613264" r="5" fill="black" stroke="none" />
<circle cx="684.1125995" cy="464.42613264" r="5" fill="black" stroke="none" />
<path d="M684.1125995,464.42613264 A187.5178640385878,187.5178640385878,0,0,0,680.5672663574055,449.41925609673103" stroke="grey" stroke-width="5" fill="none" />
<path d="M680.5672663574055,449.41925609673103 L684.1125995,448.42613264" stroke="grey" stroke-width="5" />
<circle cx="680.5672663574055" cy="449.41925609673103" r="2.5" fill="grey" stroke="none" />
<circle cx="684.1125995" cy="464.42613264" r="5" fill="black" stroke="none" />
<circle cx="684.1125995" cy="448.42613264" r="5" fill="black" stroke="none" />
<path d="M684.1125995000001,448.42613264 A191.19966811978074,191.19966811978074,0,0,0,676.8782690377452,427.3956541843029" stroke="grey" stroke-width="5" fill="none" />
<path d="M676.8782690377452,427.3956541843029 L684.1125995,424.42613264" stroke="grey" stroke-width="5" />
<circle cx="676.8782690377452" cy="427.3956541843029" r="2.5" fill="grey" stroke="none" />
<circle cx="684.1125995" cy="448.42613264" r="5" fill="black" stroke="none" />
<circle cx="684.1125995" cy="424.42613264" r="5" fill="black" stroke="none" />
<path d="M684.1125995,424.42613264 A199.01974455413787,199.01974455413787,0,0,1,689.2416317770271,438.38455124920085" stroke="grey" stroke-width="5" fill="none" />
<path d="M689.2416317770271,438.38455124920085 L732.1125995,424.42613264" stroke="grey" stroke-width="5" />
<circle cx="689.2416317770271" cy="438.38455124920085" r="2.5" fill="grey" stroke="none" />
<circle cx="684.1125995" cy="424.42613264" r="5" fill="black" stroke="none" />
<circle cx="732.1125995" cy="424.42613264" r="5" fill="black" stroke="none" />
<path d="M732.1125995,424.42613264 L723.285657300682,427.30010915141145" stroke="grey" stroke-width="5" />
<circle cx="723.285657300682" cy="427.30010915141145" r="2.5" fill="grey" stroke="none" />
<path d="M723.285657300682,427.30010915141145 A234.82282445621485,234.82282445621485,0,0,1,732.1125995,464.42613264" stroke="grey" stroke-width="5" fill="none" />
<circle cx="732.1125995" cy="424.42613264" r="5" fill="black" stroke="none" />
<circle cx="732.1125995" cy="464.42613264" r="5" fill="black" stroke="none" />
<path d="M732.1125995,464.42613264 L685.3536127737018,471.5924734387007" stroke="grey" stroke-width="5" />
<circle cx="685.3536127737018" cy="471.5924734387007" r="2.5" fill="grey" stroke="none" />
<path d="M685.3536127737018,471.5924734387007 A187.5178640385878,187.5178640385878,0,0,0,684.1125995,464.42613264" stroke="grey" stroke-width="5" fill="none" />
<circle cx="732.1125995" cy="464.42613264" r="5" fill="black" stroke="none" />
<circle cx="684.1125995" cy="464.42613264" r="5" fill="black" stroke="none" />
<path d="M684.1125995000001,448.42613264 A191.19966811978074,191.19966811978074,0,0,1,687.6553712632243,463.35610930624654" stroke="grey" stroke-width="5" fill="none" />
<path d="M687.6553712632243,463.35610930624654 L764.1125995,448.42613264" stroke="grey" stroke-width="5" />
<circle cx="687.6553712632243" cy="463.35610930624654" r="2.5" fill="grey" stroke="none" />
<circle cx="684.1125995" cy="448.42613264" r="5" fill="black" stroke="none" />
<circle cx="764.1125995" cy="448.42613264" r="5" fill="black" stroke="none" />
<circle cx="500" cy="500" r="5" fill="red" stroke="none" />
</svg>