<?xml version="1.0" encoding="UTF-8"?>
<svg xmlns="http://www.w3.org/2000/svg" xmlns:xlink="http://www.w3.org/1999/xlink"
     width="1000" height="1000" viewBox="0 0 1000 1000">
<defs>
</defs>
<rect x="0" y="0" width="1000" height="1000" fill="white" />
<path d="M160.22968749999995,317.8589 L191.0697033964583,334.39134622247104" stroke="grey" stroke-width="5" />
<circle cx="191.0697033964583" cy="334.39134622247104" r="2.5" fill="grey" stroke="none" />
<path d="M191.0697033964583,334.39134622247104 A350.51983448238377,350.51983448238377,0,0,0,160.2296874999999,413.85890000000006" stroke="grey" stroke-width="5" fill="none" />
<circle cx="160.22968749999995" cy="317.8589" r="5" fill="black" stroke="none" />
<circle cx="160.22968749999995" cy="413.8589" r="5" fill="black" stroke="none" />
<path d="M160.22968749999995,413.8589 L231.0949143427685,431.8251800645233" stroke="grey" stroke-width="5" />
<circle cx="231.0949143427685" cy="431.8251800645233" r="2.5" fill="grey" stroke="none" />
<path d="M231.09491434276845,431.8251800645234 A277.41260094948404,277.41260094948404,0,0,0,224.22968749999995,469.85890000000006" stroke="grey" stroke-width="5" fill="none" />
<circle cx="160.22968749999995" cy="413.8589" r="5" fill="black" stroke="none" />
<circle cx="224.22968749999995" cy="469.8589" r="5" fill="black" stroke="none" />
<path d="M136.22968749999995,469.8589 L223.53479318350207,477.0927831138591" stroke="grey" stroke-width="5" />
<circle cx="223.53479318350207" cy="477.0927831138591" r="2.5" fill="grey" stroke="none" />
<path d="M223.53479318350207,477.0927831138591 A277.41260094948404,277.41260094948404,0,0,1,224.22968749999995,469.85890000000006" stroke="grey" stroke-width="5" fill="none" />
<circle cx="136.22968749999995" cy="469.8589" r="5" fill="black" stroke="none" />
<circle cx="224.22968749999995" cy="469.8589" r="5" fill="black" stroke="none" />
<path d="M224.22968749999995,469.8589 L297.42758348731945,477.8592720586979" stroke="grey" stroke-width="5" />
<circle cx="297.42758348731945" cy="477.8592720586979" r="2.5" fill="grey" stroke="none" />
<path d="M297.42758348731945,477.85927205869797 A203.77879125551235,203.77879125551235,0,0,0,296.22968749999995,501.8588999999999" stroke="grey" stroke-width="5" fill="none" />
<circle cx="224.22968749999995" cy="469.8589" r="5" fill="black" stroke="none" />
<circle cx="296.22968749999995" cy="501.8589" r="5" fill="black" stroke="none" />
<path d="M296.22968749999995,501.8589 L311.39016434037575,501.7205981539027" stroke="grey" stroke-width="5" />
<circle cx="311.39016434037575" cy="501.7205981539027" r="2.5" fill="grey" stroke="none" />
<path d="M311.39016434037575,501.7205981539026 A188.6176835971582,188.6176835971582,0,0,0,312.22968749999995,517.8589" stroke="grey" stroke-width="5" fill="none" />
<circle cx="296.22968749999995" cy="501.8589" r="5" fill="black" stroke="none" />
<circle cx="312.22968749999995" cy="517.8589" r="5" fill="black" stroke="none" />
<path d="M312.22968749999995,517.8589 L337.17958705860127,515.4859063393162" stroke="grey" stroke-width="5" />
<circle cx="337.17958705860127" cy="515.4859063393162" r="2.5" fill="grey" stroke="none" />
<path d="M337.17958705860127,515.4859063393162 A163.5551899682724,163.5551899682724,0,0,0,344.22968749999995,549.8589" stroke="grey" stroke-width="5" fill="none" />
<circle cx="312.22968749999995" cy="517.8589" r="5" fill="black" stroke="none" />
<circle cx="344.22968749999995" cy="549.8589" r="5" fill="black" stroke="none" />
<path d="M312.22968749999995,517.8589 A188.6176835971582,188.6176835971582,0,0,0,332.4399866232898,586.6041135440712" stroke="grey" stroke-width="5" fill="none" />
<path d="M332.4399866232899,586.6041135440713 L-235.77031250000005,121.8589" stroke="grey" stroke-width="5" />
<circle cx="332.4399866232899" cy="586.6041135440713" r="2.5" fill="grey" stroke="none" />
<circle cx="312.22968749999995" cy="517.8589" r="5" fill="black" stroke="none" />
<circle cx="264.22968749999995" cy="621.8589" r="5" fill="black" stroke="none" />
<path d="M264.2296874999999,621.8588999999998 A265.40013520259873,265.40013520259873,0,0,0,298.39607458425183,672.606746746815" stroke="grey" stroke-width="5" fill="none" />
<path d="M298.39607458425183,672.606746746815 L-235.77031250000005,201.8589" stroke="grey" stroke-width="5" />
<circle cx="298.39607458425183" cy="672.606746746815" r="2.5" fill="grey" stroke="none" />
<circle cx="264.22968749999995" cy="621.8589" r="5" fill="black" stroke="none" />
<circle cx="264.22968749999995" cy="701.8589" r="5" fill="black" stroke="none" />
<path d="M160.22968749999995,717.8589 L238.71909166993794,667.5319154900802" stroke="grey" stroke-width="5" />
<circle cx="238.71909166993794" cy="667.5319154900802" r="2.5" fill="grey" stroke="none" />
<path d="M238.719091669938,667.5319154900803 A310.37824628275365,310.37824628275365,0,0,0,264.2296874999999,701.8589" stroke="grey" stroke-width="5" fill="none" />
<circle cx="160.22968749999995" cy="717.8589" r="5" fill="black" stroke="none" />
<circle cx="264.22968749999995" cy="701.8589" r="5" fill="black" stroke="none" />
<path d="M264.2296874999999,701.8589 A310.37824628275365,310.37824628275365,0,0,0,316.5849097808335,750.3868216289602" stroke="grey" stroke-width="5" fill="none" />
<path d="M316.5849097808335,750.3868216289602 L-235.77031250000005,321.8589" stroke="grey" stroke-width="5" />
<circle cx="316.5849097808335" cy="750.3868216289602" r="2.5" fill="grey" stroke="none" />
<circle cx="264.22968749999995" cy="701.8589" r="5" fill="black" stroke="none" />
<circle cx="264.22968749999995" cy="821.8589" r="5" fill="black" stroke="none" />
<path d="M264.22968749999995,621.8589 L324.3071880119935,590.807585483288" stroke="grey" stroke-width="5" />
<circle cx="324.3071880119935" cy="590.807585483288" r="2.5" fill="grey" stroke="none" />
<path d="M324.30718801199345,590.807585483288 A197.77255058667183,197.77255058667183,0,0,0,344.22968749999995,621.8589000000001" stroke="grey" stroke-width="5" fill="none" />
<circle cx="264.22968749999995" cy="621.8589" r="5" fill="black" stroke="none" />
<circle cx="344.22968749999995" cy="621.8589" r="5" fill="black" stroke="none" />
<path d="M344.22968749999995,549.8589 A163.5551899682724,163.5551899682724,0,0,0,371.1800855235995,600.7756409051836" stroke="grey" stroke-width="5" fill="none" />
<path d="M371.1800855235995,600.7756409051836 L-155.77031250000005,121.8589" stroke="grey" stroke-width="5" />
<circle cx="371.1800855235995" cy="600.7756409051836" r="2.5" fill="grey" stroke="none" />
<circle cx="344.22968749999995" cy="549.8589" r="5" fill="black" stroke="none" />
<circle cx="344.22968749999995" cy="621.8589" r="5" fill="black" stroke="none" />
<path d="M344.22968749999995,621.8589 L383.5300623814542,591.114271092347" stroke="grey" stroke-width="5" />
<circle cx="383.5300623814542" cy="591.114271092347" r="2.5" fill="grey" stroke="none" />
<path d="M383.5300623814542,591.114271092347 A147.87513910579312,147.87513910579312,0,0,0,416.22968749999995,621.8589000000001" stroke="grey" stroke-width="5" fill="none" />
<circle cx="344.22968749999995" cy="621.8589" r="5" fill="black" stroke="none" />
<circle cx="416.22968749999995" cy="621.8589" r="5" fill="black" stroke="none" />
<path d="M344.22968749999995,549.8589 L379.94943606635655,538.4257370101324" stroke="grey" stroke-width="5" />
<circle cx="379.94943606635655" cy="538.4257370101324" r="2.5" fill="grey" stroke="none" />
<path d="M379.94943606635655,538.4257370101324 A126.05028824067666,126.05028824067666,0,0,0,384.22968749999995,549.8589" stroke="grey" stroke-width="5" fill="none" />
<circle cx="344.22968749999995" cy="549.8589" r="5" fill="black" stroke="none" />
<circle cx="384.22968749999995" cy="549.8589" r="5" fill="black" stroke="none" />
<path d="M416.22968749999995,621.8589 L453.56559884675573,567.5471402436642" stroke="grey" stroke-width="5" />
<circle cx="453.56559884675573" cy="567.5471402436642" r="2.5" fill="grey" stroke="none" />
<path d="M453.56559884675573,567.5471402436642 A81.96810212245771,81.96810212245771,0,0,0,504.22968749999995,581.8589" stroke="grey" stroke-width="5" fill="none" />
<circle cx="416.22968749999995" cy="621.8589" r="5" fill="black" stroke="none" />
<circle cx="504.22968749999995" cy="581.8589" r="5" fill="black" stroke="none" />
<path d="M384.22968749999995,549.8589 L447.37680174470154,522.6632780272671" stroke="grey" stroke-width="5" />
<circle cx="447.37680174470154" cy="522.6632780272671" r="2.5" fill="grey" stroke="none" />
<path d="M447.37680174470154,522.6632780272671 A57.295943709460396,57.295943709460396,0,0,0,528.2296875,549.8589" stroke="grey" stroke-width="5" fill="none" />
<circle cx="384.22968749999995" cy="549.8589" r="5" fill="black" stroke="none" />
<circle cx="528.2296875" cy="549.8589" r="5" fill="black" stroke="none" />
<path d="M504.22968749999995,581.8589 L502.95656396370566,557.2196111056879" stroke="grey" stroke-width="5" />
<circle cx="502.95656396370566" cy="557.2196111056879" r="2.5" fill="grey" stroke="none" />
<path d="M502.95656396370566,557.2196111056879 A57.295943709460396,57.295943709460396,0,0,0,528.2296875,549.8589" stroke="grey" stroke-width="5" fill="none" />
<circle cx="504.22968749999995" cy="581.8589" r="5" fill="black" stroke="none" />
<circle cx="528.2296875" cy="549.8589" r="5" fill="black" stroke="none" />
<path d="M264.22968749999995,701.8589 L323.2350333965177,651.3404352683956" stroke="grey" stroke-width="5" />
<circle cx="323.2350333965177" cy="651.3404352683956" r="2.5" fill="grey" stroke="none" />
<path d="M323.2350333965177,651.3404352683956 A232.70105450031306,232.70105450031306,0,0,0,384.22968749999995,701.8589000000001" stroke="grey" stroke-width="5" fill="none" />
<circle cx="264.22968749999995" cy="701.8589" r="5" fill="black" stroke="none" />
<circle cx="384.22968749999995" cy="701.8589" r="5" fill="black" stroke="none" />
<path d="M384.22968749999995,701.8589 L446.4238924288225,593.4161263544967" stroke="grey" stroke-width="5" />
<circle cx="446.4238924288225" cy="593.4161263544967" r="2.5" fill="grey" stroke="none" />
<path d="M446.4238924288225,593.4161263544967 A107.68923792820553,107.68923792820553,0,0,0,480.22968749999995,605.8589" stroke="grey" stroke-width="5" fill="none" />
<circle cx="384.22968749999995" cy="701.8589" r="5" fill="black" stroke="none" />
<circle cx="480.22968749999995" cy="605.8589" r="5" fill="black" stroke="none" />
<path d="M480.22968749999995,605.8589 L484.9517461060195,580.5749329525006" stroke="grey" stroke-width="5" />
<circle cx="484.9517461060195" cy="580.5749329525006" r="2.5" fill="grey" stroke="none" />
<path d="M484.9517461060195,580.5749329525006 A81.96810212245771,81.96810212245771,0,0,0,504.22968749999995,581.8589" stroke="grey" stroke-width="5" fill="none" />
<circle cx="480.22968749999995" cy="605.8589" r="5" fill="black" stroke="none" />
<circle cx="504.22968749999995" cy="581.8589" r="5" fill="black" stroke="none" />
<path d="M504.22968749999995,581.8589 A81.96810212245771,81.96810212245771,0,0,1,503.27249800973857,581.9027503954165" stroke="grey" stroke-width="5" fill="none" />
<path d="M503.2724980097385,581.9027503954165 L4.2296874999999545,105.8589" stroke="grey" stroke-width="5" />
<circle cx="503.2724980097385" cy="581.9027503954165" r="2.5" fill="grey" stroke="none" />
<circle cx="504.22968749999995" cy="581.8589" r="5" fill="black" stroke="none" />
<circle cx="504.22968749999995" cy="605.8589" r="5" fill="black" stroke="none" />
<path d="M504.22968749999995,605.8589 A105.94336678413453,105.94336678413453,0,0,1,501.5896495998874,605.9314399963828" stroke="grey" stroke-width="5" fill="none" />
<path d="M501.58964959988737,605.9314399963828 L4.2296874999999545,281.8589" stroke="grey" stroke-width="5" />
<circle cx="501.58964959988737" cy="605.9314399963828" r="2.5" fill="grey" stroke="none" />
<circle cx="504.22968749999995" cy="605.8589" r="5" fill="black" stroke="none" />
<circle cx="504.22968749999995" cy="781.8589" r="5" fill="black" stroke="none" />
<path d="M504.2296875,781.8589 A281.89063440553974,281.89063440553974,0,0,0,594.4471215326363,765.5975734071324" stroke="grey" stroke-width="5" fill="none" />
<path d="M594.4471215326363,765.5975734071324 L100.22968749999995,281.8589" stroke="grey" stroke-width="5" />
<circle cx="594.4471215326363" cy="765.5975734071324" r="2.5" fill="grey" stroke="none" />
<circle cx="504.22968749999995" cy="781.8589" r="5" fill="black" stroke="none" />
<circle cx="600.2296875" cy="781.8589" r="5" fill="black" stroke="none" />
<path d="M504.2296875,781.8589 A281.89063440553974,281.89063440553974,0,0,1,503.6143068560777,781.8674627400399" stroke="grey" stroke-width="5" fill="none" />
<path d="M503.6143068560777,781.8674627400399 L4.2296874999999545,329.8589" stroke="grey" stroke-width="5" />
<circle cx="503.6143068560777" cy="781.8674627400399" r="2.5" fill="grey" stroke="none" />
<circle cx="504.22968749999995" cy="781.8589" r="5" fill="black" stroke="none" />
<circle cx="504.22968749999995" cy="829.8589" r="5" fill="black" stroke="none" />
<path d="M192.22968749999995,405.8589 L357.31035815588723,456.3539454709076" stroke="grey" stroke-width="5" />
<circle cx="357.31035815588723" cy="456.3539454709076" r="2.5" fill="grey" stroke="none" />
<path d="M357.31035815588723,456.3539454709076 A149.21565589963296,149.21565589963296,0,0,1,384.22968749999995,405.8589" stroke="grey" stroke-width="5" fill="none" />
<circle cx="192.22968749999995" cy="405.8589" r="5" fill="black" stroke="none" />
<circle cx="384.22968749999995" cy="405.8589" r="5" fill="black" stroke="none" />
<path d="M384.22968749999995,405.8589 L402.20274694128716,420.4740768068188" stroke="grey" stroke-width="5" />
<circle cx="402.20274694128716" cy="420.4740768068188" r="2.5" fill="grey" stroke="none" />
<path d="M402.20274694128716,420.4740768068188 A126.05028824067666,126.05028824067666,0,0,0,384.22968749999995,549.8589" stroke="grey" stroke-width="5" fill="none" />
<circle cx="384.22968749999995" cy="405.8589" r="5" fill="black" stroke="none" />
<circle cx="384.22968749999995" cy="549.8589" r="5" fill="black" stroke="none" />
<path d="M384.22968749999995,405.8589 A149.21565589963296,149.21565589963296,0,0,1,417.3900523350263,375.73854776179394" stroke="grey" stroke-width="5" fill="none" />
<path d="M417.3900523350263,375.73854776179394 L-115.77031250000005,-174.1411" stroke="grey" stroke-width="5" />
<circle cx="417.3900523350263" cy="375.73854776179394" r="2.5" fill="grey" stroke="none" />
<circle cx="384.22968749999995" cy="405.8589" r="5" fill="black" stroke="none" />
<circle cx="384.22968749999995" cy="325.8589" r="5" fill="black" stroke="none" />
<path d="M384.22968749999995,325.85890000000006 A209.1121420806493,209.1121420806493,0,0,1,406.02807969649643,313.19216783006755" stroke="grey" stroke-width="5" fill="none" />
<path d="M406.02807969649643,313.19216783006755 L-115.77031250000005,-230.1411" stroke="grey" stroke-width="5" />
<circle cx="406.02807969649643" cy="313.19216783006755" r="2.5" fill="grey" stroke="none" />
<circle cx="384.22968749999995" cy="325.8589" r="5" fill="black" stroke="none" />
<circle cx="384.22968749999995" cy="269.8589" r="5" fill="black" stroke="none" />
<path d="M384.22968749999995,325.8589 L455.3757492034292,432.8764347907353" stroke="grey" stroke-width="5" />
<circle cx="455.3757492034292" cy="432.8764347907353" r="2.5" fill="grey" stroke="none" />
<path d="M455.3757492034292,432.8764347907353 A80.60332974237267,80.60332974237267,0,0,1,480.22968749999995,421.8589" stroke="grey" stroke-width="5" fill="none" />
<circle cx="384.22968749999995" cy="325.8589" r="5" fill="black" stroke="none" />
<circle cx="480.22968749999995" cy="421.8589" r="5" fill="black" stroke="none" />
<path d="M384.22968749999995,405.8589 L437.46317960702686,449.146850041569" stroke="grey" stroke-width="5" />
<circle cx="437.46317960702686" cy="449.146850041569" r="2.5" fill="grey" stroke="none" />
<path d="M437.46317960702686,449.146850041569 A80.60332974237267,80.60332974237267,0,0,1,480.22968749999995,421.8589" stroke="grey" stroke-width="5" fill="none" />
<circle cx="384.22968749999995" cy="405.8589" r="5" fill="black" stroke="none" />
<circle cx="480.22968749999995" cy="421.8589" r="5" fill="black" stroke="none" />
<path d="M480.22968749999995,421.8589 L492.91390253786705,471.99257976330546" stroke="grey" stroke-width="5" />
<circle cx="492.91390253786705" cy="471.99257976330546" r="2.5" fill="grey" stroke="none" />
<path d="M492.91390253786705,471.99257976330546 A28.889935367834482,28.889935367834482,0,0,1,528.2296875,493.8589" stroke="grey" stroke-width="5" fill="none" />
<circle cx="480.22968749999995" cy="421.8589" r="5" fill="black" stroke="none" />
<circle cx="528.2296875" cy="493.8589" r="5" fill="black" stroke="none" />
<path d="M480.22968749999995,605.8589 L480.55020623304205,604.1427025190937" stroke="grey" stroke-width="5" />
<circle cx="480.55020623304205" cy="604.1427025190937" r="2.5" fill="grey" stroke="none" />
<path d="M480.55020623304205,604.1427025190937 A105.94336678413453,105.94336678413453,0,0,0,504.22968749999995,605.8589" stroke="grey" stroke-width="5" fill="none" />
<circle cx="480.22968749999995" cy="605.8589" r="5" fill="black" stroke="none" />
<circle cx="504.22968749999995" cy="605.8589" r="5" fill="black" stroke="none" />
<path d="M504.22968749999995,605.8589 A105.94336678413453,105.94336678413453,0,0,0,527.2982332606641,602.3660267198255" stroke="grey" stroke-width="5" fill="none" />
<path d="M527.2982332606641,602.3660267198255 L28.229687499999955,105.8589" stroke="grey" stroke-width="5" />
<circle cx="527.2982332606641" cy="602.3660267198255" r="2.5" fill="grey" stroke="none" />
<circle cx="504.22968749999995" cy="605.8589" r="5" fill="black" stroke="none" />
<circle cx="528.2296875" cy="605.8589" r="5" fill="black" stroke="none" />
<path d="M528.2296875,605.8589 L514.7633408654798,555.3612584037547" stroke="grey" stroke-width="5" />
<circle cx="514.7633408654798" cy="555.3612584037547" r="2.5" fill="grey" stroke="none" />
<path d="M514.7633408654798,555.3612584037547 A57.295943709460396,57.295943709460396,0,0,0,528.2296875,549.8589" stroke="grey" stroke-width="5" fill="none" />
<circle cx="528.2296875" cy="605.8589" r="5" fill="black" stroke="none" />
<circle cx="528.2296875" cy="549.8589" r="5" fill="black" stroke="none" />
<path d="M528.2296875,549.8589 L521.7198403847688,538.3612942849668" stroke="grey" stroke-width="5" />
<circle cx="521.7198403847688" cy="538.3612942849668" r="2.5" fill="grey" stroke="none" />
<path d="M521.7198403847688,538.3612942849668 A44.083334328946286,44.083334328946286,0,0,0,528.2296875,533.8589" stroke="grey" stroke-width="5" fill="none" />
<circle cx="528.2296875" cy="549.8589" r="5" fill="black" stroke="none" />
<circle cx="528.2296875" cy="533.8589" r="5" fill="black" stroke="none" />
<path d="M528.2296875,533.8589 L521.3912235682758,525.6567948078027" stroke="grey" stroke-width="5" />
<circle cx="521.3912235682758" cy="525.6567948078027" r="2.5" fill="grey" stroke="none" />
<path d="M521.3912235682758,525.6567948078027 A33.404424341060775,33.404424341060775,0,0,0,528.2296875,517.8589" stroke="grey" stroke-width="5" fill="none" />
<circle cx="528.2296875" cy="533.8589" r="5" fill="black" stroke="none" />
<circle cx="528.2296875" cy="517.8589" r="5" fill="black" stroke="none" />
<path d="M528.2296875,517.8589 L524.4145457799937,515.4453332730067" stroke="grey" stroke-width="5" />
<circle cx="524.4145457799937" cy="515.4453332730067" r="2.5" fill="grey" stroke="none" />
<path d="M524.4145457799937,515.4453332730067 A28.889935367834482,28.889935367834482,0,0,0,528.2296875,493.8589" stroke="grey" stroke-width="5" fill="none" />
<circle cx="528.2296875" cy="517.8589" r="5" fill="black" stroke="none" />
<circle cx="528.2296875" cy="493.8589" r="5" fill="black" stroke="none" />
<path d="M528.2296875,493.8589 A28.889935367834482,28.889935367834482,0,0,1,528.796641527341,497.6801288174826" stroke="grey" stroke-width="5" fill="none" />
<path d="M528.796641527341,497.6801288174826 L76.22968749999995,-6.1410999999999945" stroke="grey" stroke-width="5" />
<circle cx="528.796641527341" cy="497.6801288174826" r="2.5" fill="grey" stroke="none" />
<circle cx="528.2296875" cy="493.8589" r="5" fill="black" stroke="none" />
<circle cx="576.2296875" cy="493.8589" r="5" fill="black" stroke="none" />
<path d="M576.2296875,493.8589 A76.47665242123016,76.47665242123016,0,0,1,569.892378986971,531.044061027824" stroke="grey" stroke-width="5" fill="none" />
<path d="M569.892378986971,531.044061027824 L76.22968749999995,33.858900000000006" stroke="grey" stroke-width="5" />
<circle cx="569.892378986971" cy="531.044061027824" r="2.5" fill="grey" stroke="none" />
<circle cx="576.2296875" cy="493.8589" r="5" fill="black" stroke="none" />
<circle cx="576.2296875" cy="533.8589" r="5" fill="black" stroke="none" />
<path d="M576.2296875,533.8589 L540.2879704116435,517.8946865205344" stroke="grey" stroke-width="5" />
<circle cx="540.2879704116435" cy="517.8946865205344" r="2.5" fill="grey" stroke="none" />
<path d="M540.2879704116435,517.8946865205344 A44.083334328946286,44.083334328946286,0,0,1,528.2296875,533.8589" stroke="grey" stroke-width="5" fill="none" />
<circle cx="576.2296875" cy="533.8589" r="5" fill="black" stroke="none" />
<circle cx="528.2296875" cy="533.8589" r="5" fill="black" stroke="none" />
<path d="M528.2296875,517.8589 A33.404424341060775,33.404424341060775,0,0,0,532.9587366393824,505.43849654716104" stroke="grey" stroke-width="5" fill="none" />
<path d="M532.9587366393824,505.43849654716104 L108.22968749999995,17.858900000000006" stroke="grey" stroke-width="5" />
<circle cx="532.9587366393824" cy="505.43849654716104" r="2.5" fill="grey" stroke="none" />
<circle cx="528.2296875" cy="517.8589" r="5" fill="black" stroke="none" />
<circle cx="608.2296875" cy="517.8589" r="5" fill="black" stroke="none" />
<circle cx="500" cy="500" r="5" fill="red" stroke="none" />
</svg>