<?xml version="1.0" encoding="UTF-8"?>
<svg xmlns="http://www.w3.org/2000/svg" xmlns:xlink="http://www.w3.org/1999/xlink"
     width="1000" height="1000" viewBox="0 0 1000 1000">
<defs>
</defs>
<rect x="0" y="0" width="1000" height="1000" fill="white" />
<path d="M144.88895950000006,331.26749264 L172.59690131001383,344.4330379545186" stroke="grey" stroke-width="5" />
<circle cx="172.59690131001383" cy="344.4330379545186" r="2.5" fill="grey" stroke="none" />
<path d="M172.59690131001378,344.4330379545188 A362.4829219589042,362.4829219589042,0,0,0,144.88895950000006,427.26749264000006" stroke="grey" stroke-width="5" fill="none" />
<circle cx="144.88895950000006" cy="331.26749264" r="5" fill="black" stroke="none" />
<circle cx="144.88895950000006" cy="427.26749264" r="5" fill="black" stroke="none" />
<path d="M144.88895950000006,427.26749264 L214.33862977414458,441.49191283051726" stroke="grey" stroke-width="5" />
<circle cx="214.33862977414458" cy="441.49191283051726" r="2.5" fill="grey" stroke="none" />
<path d="M214.33862977414458,441.49191283051726 A291.59152028744774,291.59152028744774,0,0,0,208.8889595000001,483.26749264000006" stroke="grey" stroke-width="5" fill="none" />
<circle cx="144.88895950000006" cy="427.26749264" r="5" fill="black" stroke="none" />
<circle cx="208.88895950000006" cy="483.26749264" r="5" fill="black" stroke="none" />
<path d="M120.88895950000006,483.26749264 L208.69207573855886,487.1427854480252" stroke="grey" stroke-width="5" />
<circle cx="208.69207573855886" cy="487.1427854480252" r="2.5" fill="grey" stroke="none" />
<path d="M208.69207573855886,487.1427854480252 A291.59152028744774,291.59152028744774,0,0,1,208.8889595000001,483.26749264000006" stroke="grey" stroke-width="5" fill="none" />
<circle cx="120.88895950000006" cy="483.26749264" r="5" fill="black" stroke="none" />
<circle cx="208.88895950000006" cy="483.26749264" r="5" fill="black" stroke="none" />
<path d="M208.88895950000006,483.26749264 L280.7196129106477,487.39618159251427" stroke="grey" stroke-width="5" />
<circle cx="280.7196129106477" cy="487.39618159251427" r="2.5" fill="grey" stroke="none" />
<path d="M280.7196129106477,487.39618159251427 A219.64231013287278,219.64231013287278,0,0,0,280.88895950000006,515.2674926399999" stroke="grey" stroke-width="5" fill="none" />
<circle cx="208.88895950000006" cy="483.26749264" r="5" fill="black" stroke="none" />
<circle cx="280.88895950000006" cy="515.26749264" r="5" fill="black" stroke="none" />
<path d="M280.88895950000006,515.26749264 L294.993419405387,514.2847044733002" stroke="grey" stroke-width="5" />
<circle cx="294.993419405387" cy="514.2847044733002" r="2.5" fill="grey" stroke="none" />
<path d="M294.993419405387,514.2847044733002 A205.50365171691007,205.50365171691007,0,0,0,296.88895950000006,531.26749264" stroke="grey" stroke-width="5" fill="none" />
<circle cx="280.88895950000006" cy="515.26749264" r="5" fill="black" stroke="none" />
<circle cx="296.88895950000006" cy="531.26749264" r="5" fill="black" stroke="none" />
<path d="M296.88895950000006,531.26749264 L319.691103889567,527.7572655242219" stroke="grey" stroke-width="5" />
<circle cx="319.691103889567" cy="527.7572655242219" r="2.5" fill="grey" stroke="none" />
<path d="M319.691103889567,527.7572655242219 A182.43290220227567,182.43290220227567,0,0,0,328.88895950000006,563.2674926400001" stroke="grey" stroke-width="5" fill="none" />
<circle cx="296.88895950000006" cy="531.26749264" r="5" fill="black" stroke="none" />
<circle cx="328.88895950000006" cy="563.26749264" r="5" fill="black" stroke="none" />
<path d="M296.88895950000006,531.26749264 A205.50365171691007,205.50365171691007,0,0,0,319.0761736049502,597.4593243951495" stroke="grey" stroke-width="5" fill="none" />
<path d="M319.0761736049502,597.4593243951495 L-251.11104049999994,135.26749264" stroke="grey" stroke-width="5" />
<circle cx="319.0761736049502" cy="597.4593243951495" r="2.5" fill="grey" stroke="none" />
<circle cx="296.88895950000006" cy="531.26749264" r="5" fill="black" stroke="none" />
<circle cx="248.88895950000006" cy="635.26749264" r="5" fill="black" stroke="none" />
<path d="M248.88895950000003,635.26749264 A285.22631229622743,285.22631229622743,0,0,0,283.4525919118506,685.6374673292263" stroke="grey" stroke-width="5" fill="none" />
<path d="M283.4525919118506,685.6374673292263 L-251.11104049999994,215.26749264" stroke="grey" stroke-width="5" />
<circle cx="283.4525919118506" cy="685.6374673292263" r="2.5" fill="grey" stroke="none" />
<circle cx="248.88895950000006" cy="635.26749264" r="5" fill="black" stroke="none" />
<circle cx="248.88895950000006" cy="715.26749264" r="5" fill="black" stroke="none" />
<path d="M144.88895950000006,731.26749264 L222.8420676083063,680.5002176199973" stroke="grey" stroke-width="5" />
<circle cx="222.8420676083063" cy="680.5002176199973" r="2.5" fill="grey" stroke="none" />
<path d="M222.8420676083063,680.5002176199973 A330.7519433782741,330.7519433782741,0,0,0,248.88895950000006,715.26749264" stroke="grey" stroke-width="5" fill="none" />
<circle cx="144.88895950000006" cy="731.26749264" r="5" fill="black" stroke="none" />
<circle cx="248.88895950000006" cy="715.26749264" r="5" fill="black" stroke="none" />
<path d="M248.88895950000006,715.26749264 A330.7519433782741,330.7519433782741,0,0,0,301.7204818476654,764.7302036598451" stroke="grey" stroke-width="5" fill="none" />
<path d="M301.7204818476654,764.7302036598451 L-251.11104049999994,335.26749264" stroke="grey" stroke-width="5" />
<circle cx="301.7204818476654" cy="764.7302036598451" r="2.5" fill="grey" stroke="none" />
<circle cx="248.88895950000006" cy="715.26749264" r="5" fill="black" stroke="none" />
<circle cx="248.88895950000006" cy="835.26749264" r="5" fill="black" stroke="none" />
<path d="M248.88895950000006,635.26749264 L307.9689423476206,603.4425233789935" stroke="grey" stroke-width="5" />
<circle cx="307.9689423476206" cy="603.4425233789935" r="2.5" fill="grey" stroke="none" />
<path d="M307.9689423476206,603.4425233789935 A218.11988159291,218.11988159291,0,0,0,328.8889595,635.2674926399999" stroke="grey" stroke-width="5" fill="none" />
<circle cx="248.88895950000006" cy="635.26749264" r="5" fill="black" stroke="none" />
<circle cx="328.88895950000006" cy="635.26749264" r="5" fill="black" stroke="none" />
<path d="M328.88895950000006,563.2674926400001 A182.43290220227567,182.43290220227567,0,0,0,356.8847393034674,613.1361390613476" stroke="grey" stroke-width="5" fill="none" />
<path d="M356.8847393034675,613.1361390613478 L-171.11104049999994,135.26749264" stroke="grey" stroke-width="5" />
<circle cx="356.8847393034675" cy="613.1361390613478" r="2.5" fill="grey" stroke="none" />
<circle cx="328.88895950000006" cy="563.26749264" r="5" fill="black" stroke="none" />
<circle cx="328.88895950000006" cy="635.26749264" r="5" fill="black" stroke="none" />
<path d="M328.88895950000006,635.26749264 L368.44944065597906,603.9939577589982" stroke="grey" stroke-width="5" />
<circle cx="368.44944065597906" cy="603.9939577589982" r="2.5" fill="grey" stroke="none" />
<path d="M368.44944065597906,603.9939577589982 A167.69106390653346,167.69106390653346,0,0,0,400.88895950000006,635.26749264" stroke="grey" stroke-width="5" fill="none" />
<circle cx="328.88895950000006" cy="635.26749264" r="5" fill="black" stroke="none" />
<circle cx="400.88895950000006" cy="635.26749264" r="5" fill="black" stroke="none" />
<path d="M328.88895950000006,563.26749264 L363.45686799396617,550.4861730370595" stroke="grey" stroke-width="5" />
<circle cx="363.45686799396617" cy="550.4861730370595" r="2.5" fill="grey" stroke="none" />
<path d="M363.4568679939662,550.4861730370595 A145.57774749578002,145.57774749578002,0,0,0,368.88895950000006,563.26749264" stroke="grey" stroke-width="5" fill="none" />
<circle cx="328.88895950000006" cy="563.26749264" r="5" fill="black" stroke="none" />
<circle cx="368.88895950000006" cy="563.26749264" r="5" fill="black" stroke="none" />
<path d="M400.88895950000006,635.26749264 L443.31205736744204,577.3681299696" stroke="grey" stroke-width="5" />
<circle cx="443.31205736744204" cy="577.3681299696" r="2.5" fill="grey" stroke="none" />
<path d="M443.31205736744204,577.3681299696 A95.91324400157202,95.91324400157202,0,0,0,488.88895950000006,595.26749264" stroke="grey" stroke-width="5" fill="none" />
<circle cx="400.88895950000006" cy="635.26749264" r="5" fill="black" stroke="none" />
<circle cx="488.88895950000006" cy="595.26749264" r="5" fill="black" stroke="none" />
<path d="M368.88895950000006,563.26749264 L441.8492856031761,528.0605651597418" stroke="grey" stroke-width="5" />
<circle cx="441.8492856031761" cy="528.0605651597418" r="2.5" fill="grey" stroke="none" />
<path d="M441.8492856031761,528.0605651597418 A64.56702642947944,64.56702642947944,0,0,0,512.8889595,563.26749264" stroke="grey" stroke-width="5" fill="none" />
<circle cx="368.88895950000006" cy="563.26749264" r="5" fill="black" stroke="none" />
<circle cx="512.8889595" cy="563.26749264" r="5" fill="black" stroke="none" />
<path d="M488.88895950000006,595.26749264 L492.52025251475436,564.1323185258576" stroke="grey" stroke-width="5" />
<circle cx="492.52025251475436" cy="564.1323185258576" r="2.5" fill="grey" stroke="none" />
<path d="M492.52025251475436,564.1323185258576 A64.56702642947944,64.56702642947944,0,0,0,512.8889595,563.26749264" stroke="grey" stroke-width="5" fill="none" />
<circle cx="488.88895950000006" cy="595.26749264" r="5" fill="black" stroke="none" />
<circle cx="512.8889595" cy="563.26749264" r="5" fill="black" stroke="none" />
<path d="M248.88895950000006,715.26749264 L308.63896620231986,664.046191886274" stroke="grey" stroke-width="5" />
<circle cx="308.63896620231986" cy="664.046191886274" r="2.5" fill="grey" stroke="none" />
<path d="M308.63896620231986,664.046191886274 A252.05197545051115,252.05197545051115,0,0,0,368.88895950000006,715.26749264" stroke="grey" stroke-width="5" fill="none" />
<circle cx="248.88895950000006" cy="715.26749264" r="5" fill="black" stroke="none" />
<circle cx="368.88895950000006" cy="715.26749264" r="5" fill="black" stroke="none" />
<path d="M368.88895950000006,715.26749264 L435.32758681898616,606.183797911778" stroke="grey" stroke-width="5" />
<circle cx="435.32758681898616" cy="606.183797911778" r="2.5" fill="grey" stroke="none" />
<path d="M435.32758681898616,606.183797911778 A124.3282750046227,124.3282750046227,0,0,0,464.88895950000006,619.26749264" stroke="grey" stroke-width="5" fill="none" />
<circle cx="368.88895950000006" cy="715.26749264" r="5" fill="black" stroke="none" />
<circle cx="464.88895950000006" cy="619.26749264" r="5" fill="black" stroke="none" />
<path d="M464.88895950000006,619.26749264 L472.913532384324,592.009095458058" stroke="grey" stroke-width="5" />
<circle cx="472.913532384324" cy="592.009095458058" r="2.5" fill="grey" stroke="none" />
<path d="M472.913532384324,592.009095458058 A95.91324400157202,95.91324400157202,0,0,0,488.88895950000006,595.26749264" stroke="grey" stroke-width="5" fill="none" />
<circle cx="464.88895950000006" cy="619.26749264" r="5" fill="black" stroke="none" />
<circle cx="488.88895950000006" cy="595.26749264" r="5" fill="black" stroke="none" />
<path d="M488.88895950000006,595.26749264 A95.91324400157202,95.91324400157202,0,0,0,491.10318108981534,595.4997224508243" stroke="grey" stroke-width="5" fill="none" />
<path d="M491.10318108981534,595.4997224508243 L-11.111040499999945,119.26749264" stroke="grey" stroke-width="5" />
<circle cx="491.10318108981534" cy="595.4997224508243" r="2.5" fill="grey" stroke="none" />
<circle cx="488.88895950000006" cy="595.26749264" r="5" fill="black" stroke="none" />
<circle cx="488.88895950000006" cy="619.26749264" r="5" fill="black" stroke="none" />
<path d="M488.88895950000006,619.26749264 A119.78393056510164,119.78393056510164,0,0,0,495.4956681319696,619.6992105907459" stroke="grey" stroke-width="5" fill="none" />
<path d="M495.4956681319695,619.6992105907459 L-11.111040499999945,295.26749264" stroke="grey" stroke-width="5" />
<circle cx="495.4956681319695" cy="619.6992105907459" r="2.5" fill="grey" stroke="none" />
<circle cx="488.88895950000006" cy="619.26749264" r="5" fill="black" stroke="none" />
<circle cx="488.88895950000006" cy="795.26749264" r="5" fill="black" stroke="none" />
<path d="M488.8889595000001,795.26749264 A295.476475258023,295.476475258023,0,0,0,581.6419490118292,783.9734839601314" stroke="grey" stroke-width="5" fill="none" />
<path d="M581.6419490118291,783.9734839601314 L84.88895950000006,295.26749264" stroke="grey" stroke-width="5" />
<circle cx="581.6419490118291" cy="783.9734839601314" r="2.5" fill="grey" stroke="none" />
<circle cx="488.88895950000006" cy="795.26749264" r="5" fill="black" stroke="none" />
<circle cx="584.8889595" cy="795.26749264" r="5" fill="black" stroke="none" />
<path d="M488.8889595000001,795.26749264 A295.476475258023,295.476475258023,0,0,0,490.44088750220965,795.3218088783144" stroke="grey" stroke-width="5" fill="none" />
<path d="M490.4408875022096,795.3218088783144 L-11.111040499999945,343.26749264" stroke="grey" stroke-width="5" />
<circle cx="490.4408875022096" cy="795.3218088783144" r="2.5" fill="grey" stroke="none" />
<circle cx="488.88895950000006" cy="795.26749264" r="5" fill="black" stroke="none" />
<circle cx="488.88895950000006" cy="843.26749264" r="5" fill="black" stroke="none" />
<path d="M176.88895950000006,419.26749264 L350.6188298379969,462.6756287841878" stroke="grey" stroke-width="5" />
<circle cx="350.6188298379969" cy="462.6756287841878" r="2.5" fill="grey" stroke="none" />
<path d="M350.6188298379969,462.6756287841878 A153.9735129352613,153.9735129352613,0,0,1,368.88895950000006,419.26749263999994" stroke="grey" stroke-width="5" fill="none" />
<circle cx="176.88895950000006" cy="419.26749264" r="5" fill="black" stroke="none" />
<circle cx="368.88895950000006" cy="419.26749264" r="5" fill="black" stroke="none" />
<path d="M368.88895950000006,419.26749264 L376.03809522847536,423.669621176359" stroke="grey" stroke-width="5" />
<circle cx="376.03809522847536" cy="423.669621176359" r="2.5" fill="grey" stroke="none" />
<path d="M376.03809522847536,423.669621176359 A145.57774749578002,145.57774749578002,0,0,0,368.88895950000006,563.26749264" stroke="grey" stroke-width="5" fill="none" />
<circle cx="368.88895950000006" cy="419.26749264" r="5" fill="black" stroke="none" />
<circle cx="368.88895950000006" cy="563.26749264" r="5" fill="black" stroke="none" />
<path d="M368.88895950000006,419.26749263999994 A153.9735129352613,153.9735129352613,0,0,1,402.67495313986433,380.6866397284132" stroke="grey" stroke-width="5" fill="none" />
<path d="M402.67495313986433,380.6866397284132 L-131.11104049999994,-160.73250736" stroke="grey" stroke-width="5" />
<circle cx="402.67495313986433" cy="380.6866397284132" r="2.5" fill="grey" stroke="none" />
<circle cx="368.88895950000006" cy="419.26749264" r="5" fill="black" stroke="none" />
<circle cx="368.88895950000006" cy="339.26749264" r="5" fill="black" stroke="none" />
<path d="M368.88895950000006,339.26749264 A207.42479085978388,207.42479085978388,0,0,1,392.6363401527608,322.52299189069197" stroke="grey" stroke-width="5" fill="none" />
<path d="M392.6363401527608,322.52299189069197 L-131.11104049999994,-216.73250736" stroke="grey" stroke-width="5" />
<circle cx="392.6363401527608" cy="322.52299189069197" r="2.5" fill="grey" stroke="none" />
<circle cx="368.88895950000006" cy="339.26749264" r="5" fill="black" stroke="none" />
<circle cx="368.88895950000006" cy="283.26749264" r="5" fill="black" stroke="none" />
<path d="M368.88895950000006,339.26749264 L453.45192603781254,442.9354796347519" stroke="grey" stroke-width="5" />
<circle cx="453.45192603781254" cy="442.9354796347519" r="2.5" fill="grey" stroke="none" />
<path d="M453.45192603781254,442.9354796347519 A73.64158250679496,73.64158250679496,0,0,1,464.88895950000006,435.26749264" stroke="grey" stroke-width="5" fill="none" />
<circle cx="368.88895950000006" cy="339.26749264" r="5" fill="black" stroke="none" />
<circle cx="464.88895950000006" cy="435.26749264" r="5" fill="black" stroke="none" />
<path d="M368.88895950000006,419.26749264 L437.2929517390952,461.38771215649547" stroke="grey" stroke-width="5" />
<circle cx="437.2929517390952" cy="461.38771215649547" r="2.5" fill="grey" stroke="none" />
<path d="M437.2929517390952,461.38771215649547 A73.64158250679496,73.64158250679496,0,0,1,464.88895950000006,435.26749264" stroke="grey" stroke-width="5" fill="none" />
<circle cx="368.88895950000006" cy="419.26749264" r="5" fill="black" stroke="none" />
<circle cx="464.88895950000006" cy="435.26749264" r="5" fill="black" stroke="none" />
<path d="M464.88895950000006,435.26749264 L492.9451975646816,486.99340594683906" stroke="grey" stroke-width="5" />
<circle cx="492.9451975646816" cy="486.99340594683906" r="2.5" fill="grey" stroke="none" />
<path d="M492.9451975646816,486.99340594683906 A14.796679568913286,14.796679568913286,0,0,1,512.8889595,507.26749264" stroke="grey" stroke-width="5" fill="none" />
<circle cx="464.88895950000006" cy="435.26749264" r="5" fill="black" stroke="none" />
<circle cx="512.8889595" cy="507.26749264" r="5" fill="black" stroke="none" />
<path d="M464.88895950000006,619.26749264 L466.17230925817887,614.9081257383515" stroke="grey" stroke-width="5" />
<circle cx="466.17230925817887" cy="614.9081257383515" r="2.5" fill="grey" stroke="none" />
<path d="M466.17230925817887,614.9081257383515 A119.78393056510164,119.78393056510164,0,0,0,488.88895950000006,619.26749264" stroke="grey" stroke-width="5" fill="none" />
<circle cx="464.88895950000006" cy="619.26749264" r="5" fill="black" stroke="none" />
<circle cx="488.88895950000006" cy="619.26749264" r="5" fill="black" stroke="none" />
<path d="M488.88895950000006,619.26749264 A119.78393056510164,119.78393056510164,0,0,0,512.8698369143988,619.090542527196" stroke="grey" stroke-width="5" fill="none" />
<path d="M512.8698369143988,619.0905425271959 L12.888959500000055,119.26749264" stroke="grey" stroke-width="5" />
<circle cx="512.8698369143988" cy="619.0905425271959" r="2.5" fill="grey" stroke="none" />
<circle cx="488.88895950000006" cy="619.26749264" r="5" fill="black" stroke="none" />
<circle cx="512.8889595" cy="619.26749264" r="5" fill="black" stroke="none" />
<path d="M512.8889595,619.26749264 L506.93721683931096,564.1932700870541" stroke="grey" stroke-width="5" />
<circle cx="506.93721683931096" cy="564.1932700870541" r="2.5" fill="grey" stroke="none" />
<path d="M506.93721683931096,564.1932700870541 A64.56702642947944,64.56702642947944,0,0,0,512.8889595,563.26749264" stroke="grey" stroke-width="5" fill="none" />
<circle cx="512.8889595" cy="619.26749264" r="5" fill="black" stroke="none" />
<circle cx="512.8889595" cy="563.26749264" r="5" fill="black" stroke="none" />
<path d="M512.8889595,563.26749264 L509.7801058973494,548.0071938994744" stroke="grey" stroke-width="5" />
<circle cx="509.7801058973494" cy="548.0071938994744" r="2.5" fill="grey" stroke="none" />
<path d="M509.7801058973494,548.0071938994744 A48.99327645162238,48.99327645162238,0,0,0,512.8889595,547.26749264" stroke="grey" stroke-width="5" fill="none" />
<circle cx="512.8889595" cy="563.26749264" r="5" fill="black" stroke="none" />
<circle cx="512.8889595" cy="547.26749264" r="5" fill="black" stroke="none" />
<path d="M512.8889595,547.26749264 L508.89719040309535,532.6285362208629" stroke="grey" stroke-width="5" />
<circle cx="508.89719040309535" cy="532.6285362208629" r="2.5" fill="grey" stroke="none" />
<path d="M508.89719040309535,532.6285362208629 A33.81983697454936,33.81983697454936,0,0,0,512.8889595,531.26749264" stroke="grey" stroke-width="5" fill="none" />
<circle cx="512.8889595" cy="547.26749264" r="5" fill="black" stroke="none" />
<circle cx="512.8889595" cy="531.26749264" r="5" fill="black" stroke="none" />
<path d="M512.8889595,531.26749264 L505.6391106746529,513.6799911207614" stroke="grey" stroke-width="5" />
<circle cx="505.6391106746529" cy="513.6799911207614" r="2.5" fill="grey" stroke="none" />
<path d="M505.6391106746529,513.6799911207614 A14.796679568913286,14.796679568913286,0,0,0,512.8889595,507.26749264" stroke="grey" stroke-width="5" fill="none" />
<circle cx="512.8889595" cy="531.26749264" r="5" fill="black" stroke="none" />
<circle cx="512.8889595" cy="507.26749264" r="5" fill="black" stroke="none" />
<path d="M512.8889595,507.26749264 A14.796679568913286,14.796679568913286,0,0,0,514.6923959281775,501.7536328449166" stroke="grey" stroke-width="5" fill="none" />
<path d="M514.6923959281775,501.7536328449166 L60.888959500000055,7.26749264" stroke="grey" stroke-width="5" />
<circle cx="514.6923959281775" cy="501.7536328449166" r="2.5" fill="grey" stroke="none" />
<circle cx="512.8889595" cy="507.26749264" r="5" fill="black" stroke="none" />
<circle cx="560.8889595" cy="507.26749264" r="5" fill="black" stroke="none" />
<path d="M560.8889595,507.26749264 A61.32113696161464,61.32113696161464,0,0,1,548.4388781623647,537.602618534308" stroke="grey" stroke-width="5" fill="none" />
<path d="M548.4388781623647,537.602618534308 L60.888959500000055,47.26749264" stroke="grey" stroke-width="5" />
<circle cx="548.4388781623647" cy="537.602618534308" r="2.5" fill="grey" stroke="none" />
<circle cx="560.8889595" cy="507.26749264" r="5" fill="black" stroke="none" />
<circle cx="560.8889595" cy="547.26749264" r="5" fill="black" stroke="none" />
<path d="M560.8889595,547.26749264 L538.7008373686995,530.0430744835907" stroke="grey" stroke-width="5" />
<circle cx="538.7008373686995" cy="530.0430744835907" r="2.5" fill="grey" stroke="none" />
<path d="M538.7008373686995,530.0430744835907 A48.99327645162238,48.99327645162238,0,0,1,512.8889595,547.26749264" stroke="grey" stroke-width="5" fill="none" />
<circle cx="560.8889595" cy="547.26749264" r="5" fill="black" stroke="none" />
<circle cx="512.8889595" cy="547.26749264" r="5" fill="black" stroke="none" />
<path d="M512.8889595,531.26749264 A33.81983697454936,33.81983697454936,0,0,0,532.0526528664384,510.7892917843895" stroke="grey" stroke-width="5" fill="none" />
<path d="M532.0526528664384,510.7892917843895 L92.88895950000006,31.26749264" stroke="grey" stroke-width="5" />
<circle cx="532.0526528664384" cy="510.7892917843895" r="2.5" fill="grey" stroke="none" />
<circle cx="512.8889595" cy="531.26749264" r="5" fill="black" stroke="none" />
<circle cx="592.8889595" cy="531.26749264" r="5" fill="black" stroke="none" />
<circle cx="500" cy="500" r="5" fill="red" stroke="none" />
</svg>