<?xml version="1.0" encoding="UTF-8"?>
<svg xmlns="http://www.w3.org/2000/svg" xmlns:xlink="http://www.w3.org/1999/xlink"
     width="1000" height="1000" viewBox="0 0 1000 1000">
<defs>
</defs>
<rect x="0" y="0" width="1000" height="1000" fill="white" />
<path d="M276.91183950000004,252.38086224000006 L319.4539107286506,299.6008983573491" stroke="grey" stroke-width="5" />
<circle cx="319.4539107286506" cy="299.6008983573491" r="2.5" fill="grey" stroke="none" />
<path d="M319.4539107286507,299.600898357349 A269.73448109272124,269.73448109272124,0,0,0,276.91183950000004,348.38086224000006" stroke="grey" stroke-width="5" fill="none" />
<circle cx="276.91183950000004" cy="252.38086224000006" r="5" fill="black" stroke="none" />
<circle cx="276.91183950000004" cy="348.38086224000006" r="5" fill="black" stroke="none" />
<path d="M276.91183950000004,348.38086224000006 L346.4861133853878,395.66616592056255" stroke="grey" stroke-width="5" />
<circle cx="346.4861133853878" cy="395.66616592056255" r="2.5" fill="grey" stroke="none" />
<path d="M346.4861133853878,395.66616592056255 A185.61266744820946,185.61266744820946,0,0,0,340.91183950000004,404.38086224000006" stroke="grey" stroke-width="5" fill="none" />
<circle cx="276.91183950000004" cy="348.38086224000006" r="5" fill="black" stroke="none" />
<circle cx="340.91183950000004" cy="404.38086224000006" r="5" fill="black" stroke="none" />
<path d="M252.91183950000004,404.38086224000006 L326.8969702197249,433.011915998972" stroke="grey" stroke-width="5" />
<circle cx="326.8969702197249" cy="433.011915998972" r="2.5" fill="grey" stroke="none" />
<path d="M326.8969702197249,433.011915998972 A185.61266744820946,185.61266744820946,0,0,1,340.91183950000004,404.38086224000006" stroke="grey" stroke-width="5" fill="none" />
<circle cx="252.91183950000004" cy="404.38086224000006" r="5" fill="black" stroke="none" />
<circle cx="340.91183950000004" cy="404.38086224000006" r="5" fill="black" stroke="none" />
<path d="M340.91183950000004,404.38086224000006 L407.56155402185976,444.4403375303085" stroke="grey" stroke-width="5" />
<circle cx="407.56155402185976" cy="444.4403375303085" r="2.5" fill="grey" stroke="none" />
<path d="M407.56155402185976,444.4403375303085 A107.85055581034158,107.85055581034158,0,0,1,412.91183950000004,436.38086224000006" stroke="grey" stroke-width="5" fill="none" />
<circle cx="340.91183950000004" cy="404.38086224000006" r="5" fill="black" stroke="none" />
<circle cx="412.91183950000004" cy="436.38086224000006" r="5" fill="black" stroke="none" />
<path d="M412.91183950000004,436.38086224000006 L430.9084140725056,449.5276154882369" stroke="grey" stroke-width="5" />
<circle cx="430.9084140725056" cy="449.5276154882369" r="2.5" fill="grey" stroke="none" />
<path d="M430.9084140725056,449.5276154882369 A85.56347844892473,85.56347844892473,0,0,0,428.91183950000004,452.38086224000006" stroke="grey" stroke-width="5" fill="none" />
<circle cx="412.91183950000004" cy="436.38086224000006" r="5" fill="black" stroke="none" />
<circle cx="428.91183950000004" cy="452.38086224000006" r="5" fill="black" stroke="none" />
<path d="M428.91183950000004,452.38086224000006 L465.0279322797434,476.5735996147636" stroke="grey" stroke-width="5" />
<circle cx="465.0279322797434" cy="476.5735996147636" r="2.5" fill="grey" stroke="none" />
<path d="M465.0279322797434,476.5735996147636 A42.09325071361932,42.09325071361932,0,0,0,460.91183950000004,484.38086224000006" stroke="grey" stroke-width="5" fill="none" />
<circle cx="428.91183950000004" cy="452.38086224000006" r="5" fill="black" stroke="none" />
<circle cx="460.91183950000004" cy="484.38086224000006" r="5" fill="black" stroke="none" />
<path d="M428.91183950000004,452.38086224000006 A85.56347844892473,85.56347844892473,0,0,0,422.6656825351437,536.6130057018598" stroke="grey" stroke-width="5" fill="none" />
<path d="M422.6656825351437,536.6130057018598 L380.91183950000004,556.38086224" stroke="grey" stroke-width="5" />
<circle cx="422.6656825351437" cy="536.6130057018598" r="2.5" fill="grey" stroke="none" />
<circle cx="428.91183950000004" cy="452.38086224000006" r="5" fill="black" stroke="none" />
<circle cx="380.91183950000004" cy="556.38086224" r="5" fill="black" stroke="none" />
<path d="M380.9118395000001,556.3808622400002 A131.76035670185328,131.76035670185328,0,0,0,413.3362619796991,599.2481138891227" stroke="grey" stroke-width="5" fill="none" />
<path d="M413.3362619796991,599.2481138891227 L380.91183950000004,636.38086224" stroke="grey" stroke-width="5" />
<circle cx="413.3362619796991" cy="599.2481138891227" r="2.5" fill="grey" stroke="none" />
<circle cx="380.91183950000004" cy="556.38086224" r="5" fill="black" stroke="none" />
<circle cx="380.91183950000004" cy="636.38086224" r="5" fill="black" stroke="none" />
<path d="M276.91183950000004,652.38086224 L350.4914721846502,602.1221311327099" stroke="grey" stroke-width="5" />
<circle cx="350.4914721846502" cy="602.1221311327099" r="2.5" fill="grey" stroke="none" />
<path d="M350.4914721846502,602.1221311327099 A181.05725491291315,181.05725491291315,0,0,0,380.9118395000001,636.38086224" stroke="grey" stroke-width="5" fill="none" />
<circle cx="276.91183950000004" cy="652.38086224" r="5" fill="black" stroke="none" />
<circle cx="380.91183950000004" cy="636.38086224" r="5" fill="black" stroke="none" />
<path d="M380.9118395000001,636.38086224 A181.05725491291315,181.05725491291315,0,0,0,423.7261918240416,664.2072950356857" stroke="grey" stroke-width="5" fill="none" />
<path d="M423.7261918240416,664.2072950356857 L380.91183950000004,756.38086224" stroke="grey" stroke-width="5" />
<circle cx="423.7261918240416" cy="664.2072950356857" r="2.5" fill="grey" stroke="none" />
<circle cx="380.91183950000004" cy="636.38086224" r="5" fill="black" stroke="none" />
<circle cx="380.91183950000004" cy="756.38086224" r="5" fill="black" stroke="none" />
<path d="M380.91183950000004,556.38086224 L437.99289801657557,529.3565192387794" stroke="grey" stroke-width="5" />
<circle cx="437.99289801657557" cy="529.3565192387794" r="2.5" fill="grey" stroke="none" />
<path d="M437.99289801657557,529.3565192387794 A68.60529074495363,68.60529074495363,0,0,0,460.91183950000004,556.38086224" stroke="grey" stroke-width="5" fill="none" />
<circle cx="380.91183950000004" cy="556.38086224" r="5" fill="black" stroke="none" />
<circle cx="460.91183950000004" cy="556.38086224" r="5" fill="black" stroke="none" />
<path d="M460.91183950000004,484.38086224000006 A42.09325071361932,42.09325071361932,0,0,0,476.0171887329008,534.592868041929" stroke="grey" stroke-width="5" fill="none" />
<path d="M476.0171887329008,534.592868041929 L460.91183950000004,556.38086224" stroke="grey" stroke-width="5" />
<circle cx="476.0171887329008" cy="534.592868041929" r="2.5" fill="grey" stroke="none" />
<circle cx="460.91183950000004" cy="484.38086224000006" r="5" fill="black" stroke="none" />
<circle cx="460.91183950000004" cy="556.38086224" r="5" fill="black" stroke="none" />
<path d="M460.91183950000004,556.38086224 L462.8042022177149,553.6513134372215" stroke="grey" stroke-width="5" />
<circle cx="462.8042022177149" cy="553.6513134372215" r="2.5" fill="grey" stroke="none" />
<path d="M462.8042022177149,553.6513134372215 A65.28392456186766,65.28392456186766,0,0,0,532.9118395,556.38086224" stroke="grey" stroke-width="5" fill="none" />
<circle cx="460.91183950000004" cy="556.38086224" r="5" fill="black" stroke="none" />
<circle cx="532.9118395" cy="556.38086224" r="5" fill="black" stroke="none" />
<path d="M460.91183950000004,484.38086224000006 L485.47123694465085,494.19448884927965" stroke="grey" stroke-width="5" />
<circle cx="485.47123694465085" cy="494.19448884927965" r="2.5" fill="grey" stroke="none" />
<path d="M485.47123694465085,494.19448884927965 A15.645731546962462,15.645731546962462,0,0,1,500.91183950000004,484.38086224000006" stroke="grey" stroke-width="5" fill="none" />
<circle cx="460.91183950000004" cy="484.38086224000006" r="5" fill="black" stroke="none" />
<circle cx="500.91183950000004" cy="484.38086224000006" r="5" fill="black" stroke="none" />
<path d="M532.9118395,556.38086224 A65.28392456186766,65.28392456186766,0,0,0,564.6929300079803,508.7644516760717" stroke="grey" stroke-width="5" fill="none" />
<path d="M564.6929300079803,508.7644516760717 L620.9118395,516.38086224" stroke="grey" stroke-width="5" />
<circle cx="564.6929300079803" cy="508.7644516760717" r="2.5" fill="grey" stroke="none" />
<circle cx="532.9118395" cy="556.38086224" r="5" fill="black" stroke="none" />
<circle cx="620.9118395" cy="516.38086224" r="5" fill="black" stroke="none" />
<path d="M500.91183950000004,484.38086224000006 A15.645731546962462,15.645731546962462,0,0,1,515.5556349797627,498.3233557276513" stroke="grey" stroke-width="5" fill="none" />
<path d="M515.5556349797627,498.3233557276513 L644.9118395,484.38086224000006" stroke="grey" stroke-width="5" />
<circle cx="515.5556349797627" cy="498.3233557276513" r="2.5" fill="grey" stroke="none" />
<circle cx="500.91183950000004" cy="484.38086224000006" r="5" fill="black" stroke="none" />
<circle cx="644.9118395" cy="484.38086224000006" r="5" fill="black" stroke="none" />
<path d="M620.9118395,516.38086224 A122.01641520303582,122.01641520303582,0,0,0,621.3137788246206,486.924349106424" stroke="grey" stroke-width="5" fill="none" />
<path d="M621.3137788246206,486.924349106424 L644.9118395,484.38086224000006" stroke="grey" stroke-width="5" />
<circle cx="621.3137788246206" cy="486.924349106424" r="2.5" fill="grey" stroke="none" />
<circle cx="620.9118395" cy="516.38086224" r="5" fill="black" stroke="none" />
<circle cx="644.9118395" cy="484.38086224000006" r="5" fill="black" stroke="none" />
<path d="M380.91183950000004,636.38086224 L410.29517691439304,602.7307926173044" stroke="grey" stroke-width="5" />
<circle cx="410.29517691439304" cy="602.7307926173044" r="2.5" fill="grey" stroke="none" />
<path d="M410.29517691439304,602.7307926173044 A136.38391047553824,136.38391047553824,0,0,0,500.91183950000004,636.38086224" stroke="grey" stroke-width="5" fill="none" />
<circle cx="380.91183950000004" cy="636.38086224" r="5" fill="black" stroke="none" />
<circle cx="500.91183950000004" cy="636.38086224" r="5" fill="black" stroke="none" />
<path d="M500.91183950000004,636.38086224 L500.7019330388527,604.9858369520794" stroke="grey" stroke-width="5" />
<circle cx="500.7019330388527" cy="604.9858369520794" r="2.5" fill="grey" stroke="none" />
<path d="M500.7019330388527,604.9858369520794 A104.98818348042617,104.98818348042617,0,0,0,596.9118395,540.38086224" stroke="grey" stroke-width="5" fill="none" />
<circle cx="500.91183950000004" cy="636.38086224" r="5" fill="black" stroke="none" />
<circle cx="596.9118395" cy="540.38086224" r="5" fill="black" stroke="none" />
<path d="M596.9118395,540.38086224 A104.98818348042617,104.98818348042617,0,0,0,604.0377589298821,514.0948000116128" stroke="grey" stroke-width="5" fill="none" />
<path d="M604.0377589298821,514.0948000116128 L620.9118395,516.38086224" stroke="grey" stroke-width="5" />
<circle cx="604.0377589298821" cy="514.0948000116128" r="2.5" fill="grey" stroke="none" />
<circle cx="596.9118395" cy="540.38086224" r="5" fill="black" stroke="none" />
<circle cx="620.9118395" cy="516.38086224" r="5" fill="black" stroke="none" />
<path d="M620.9118395,516.38086224 A122.01641520303582,122.01641520303582,0,0,1,615.7328298636829,538.6512311672402" stroke="grey" stroke-width="5" fill="none" />
<path d="M615.7328298636829,538.6512311672402 L620.9118395,540.38086224" stroke="grey" stroke-width="5" />
<circle cx="615.7328298636829" cy="538.6512311672402" r="2.5" fill="grey" stroke="none" />
<circle cx="620.9118395" cy="516.38086224" r="5" fill="black" stroke="none" />
<circle cx="620.9118395" cy="540.38086224" r="5" fill="black" stroke="none" />
<path d="M620.9118395,540.38086224 A127.47661341014528,127.47661341014528,0,0,1,562.183119257087,611.2813849930819" stroke="grey" stroke-width="5" fill="none" />
<path d="M562.183119257087,611.2813849930819 L620.9118395,716.38086224" stroke="grey" stroke-width="5" />
<circle cx="562.183119257087" cy="611.2813849930819" r="2.5" fill="grey" stroke="none" />
<circle cx="620.9118395" cy="540.38086224" r="5" fill="black" stroke="none" />
<circle cx="620.9118395" cy="716.38086224" r="5" fill="black" stroke="none" />
<path d="M620.9118395,716.38086224 A247.87164112701487,247.87164112701487,0,0,0,675.4863727479396,675.0568006527335" stroke="grey" stroke-width="5" fill="none" />
<path d="M675.4863727479396,675.0568006527335 L716.9118395,716.38086224" stroke="grey" stroke-width="5" />
<circle cx="675.4863727479396" cy="675.0568006527335" r="2.5" fill="grey" stroke="none" />
<circle cx="620.9118395" cy="716.38086224" r="5" fill="black" stroke="none" />
<circle cx="716.9118395" cy="716.38086224" r="5" fill="black" stroke="none" />
<path d="M620.9118395,716.38086224 A247.87164112701487,247.87164112701487,0,0,1,603.0917369545512,725.416157909528" stroke="grey" stroke-width="5" fill="none" />
<path d="M603.0917369545512,725.416157909528 L620.9118395,764.38086224" stroke="grey" stroke-width="5" />
<circle cx="603.0917369545512" cy="725.416157909528" r="2.5" fill="grey" stroke="none" />
<circle cx="620.9118395" cy="716.38086224" r="5" fill="black" stroke="none" />
<circle cx="620.9118395" cy="764.38086224" r="5" fill="black" stroke="none" />
<path d="M308.91183950000004,340.38086224000006 L377.4947615333948,397.66932454654767" stroke="grey" stroke-width="5" />
<circle cx="377.4947615333948" cy="397.66932454654767" r="2.5" fill="grey" stroke="none" />
<path d="M377.4947615333948,397.66932454654767 A159.62174222366951,159.62174222366951,0,0,1,500.91183950000004,340.38086224000006" stroke="grey" stroke-width="5" fill="none" />
<circle cx="308.91183950000004" cy="340.38086224000006" r="5" fill="black" stroke="none" />
<circle cx="500.91183950000004" cy="340.38086224000006" r="5" fill="black" stroke="none" />
<path d="M500.91183950000004,340.38086224000006 L500.0893762706269,484.3545237361765" stroke="grey" stroke-width="5" />
<circle cx="500.0893762706269" cy="484.3545237361765" r="2.5" fill="grey" stroke="none" />
<path d="M500.0893762706269,484.3545237361765 A15.645731546962462,15.645731546962462,0,0,1,500.91183950000004,484.38086224000006" stroke="grey" stroke-width="5" fill="none" />
<circle cx="500.91183950000004" cy="340.38086224000006" r="5" fill="black" stroke="none" />
<circle cx="500.91183950000004" cy="484.38086224000006" r="5" fill="black" stroke="none" />
<path d="M500.91183950000004,340.38086224000006 A159.62174222366951,159.62174222366951,0,0,0,500.607415405762,340.3794134923554" stroke="grey" stroke-width="5" fill="none" />
<path d="M500.6074154057621,340.3794134923554 L500.91183950000004,260.38086224000006" stroke="grey" stroke-width="5" />
<circle cx="500.6074154057621" cy="340.3794134923554" r="2.5" fill="grey" stroke="none" />
<circle cx="500.91183950000004" cy="340.38086224000006" r="5" fill="black" stroke="none" />
<circle cx="500.91183950000004" cy="260.38086224000006" r="5" fill="black" stroke="none" />
<path d="M500.91183950000004,260.38086224000006 A239.62087269709957,239.62087269709957,0,0,0,500.7391089054918,260.38026719373585" stroke="grey" stroke-width="5" fill="none" />
<path d="M500.7391089054918,260.38026719373585 L500.91183950000004,204.38086224000006" stroke="grey" stroke-width="5" />
<circle cx="500.7391089054918" cy="260.38026719373585" r="2.5" fill="grey" stroke="none" />
<circle cx="500.91183950000004" cy="260.38086224000006" r="5" fill="black" stroke="none" />
<circle cx="500.91183950000004" cy="204.38086224000006" r="5" fill="black" stroke="none" />
<path d="M500.91183950000004,260.38086224000006 L500.6593063318793,326.7431771001201" stroke="grey" stroke-width="5" />
<circle cx="500.6593063318793" cy="326.7431771001201" r="2.5" fill="grey" stroke="none" />
<path d="M500.65930633187924,326.7431771001201 A173.25807734763654,173.25807734763654,0,0,1,596.9118395,356.38086224000006" stroke="grey" stroke-width="5" fill="none" />
<circle cx="500.91183950000004" cy="260.38086224000006" r="5" fill="black" stroke="none" />
<circle cx="596.9118395" cy="356.38086224000006" r="5" fill="black" stroke="none" />
<path d="M500.91183950000004,340.38086224000006 A159.62174222366951,159.62174222366951,0,0,1,589.2843606480299,367.68445467673826" stroke="grey" stroke-width="5" fill="none" />
<path d="M589.2843606480299,367.68445467673826 L596.9118395,356.38086224000006" stroke="grey" stroke-width="5" />
<circle cx="589.2843606480299" cy="367.68445467673826" r="2.5" fill="grey" stroke="none" />
<circle cx="500.91183950000004" cy="340.38086224000006" r="5" fill="black" stroke="none" />
<circle cx="596.9118395" cy="356.38086224000006" r="5" fill="black" stroke="none" />
<path d="M596.9118395,356.38086224000006 L590.4154394920164,366.0082449468433" stroke="grey" stroke-width="5" />
<circle cx="590.4154394920164" cy="366.0082449468433" r="2.5" fill="grey" stroke="none" />
<path d="M590.4154394920164,366.0082449468433 A161.64387436819132,161.64387436819132,0,0,1,644.9118395,428.38086224000006" stroke="grey" stroke-width="5" fill="none" />
<circle cx="596.9118395" cy="356.38086224000006" r="5" fill="black" stroke="none" />
<circle cx="644.9118395" cy="428.38086224000006" r="5" fill="black" stroke="none" />
<path d="M596.9118395,540.38086224 A104.98818348042617,104.98818348042617,0,0,0,599.5815157839105,533.2571854596628" stroke="grey" stroke-width="5" fill="none" />
<path d="M599.5815157839105,533.2571854596628 L620.9118395,540.38086224" stroke="grey" stroke-width="5" />
<circle cx="599.5815157839105" cy="533.2571854596628" r="2.5" fill="grey" stroke="none" />
<circle cx="596.9118395" cy="540.38086224" r="5" fill="black" stroke="none" />
<circle cx="620.9118395" cy="540.38086224" r="5" fill="black" stroke="none" />
<path d="M620.9118395,540.38086224 A127.47661341014528,127.47661341014528,0,0,0,622.7980808446071,534.2186836012282" stroke="grey" stroke-width="5" fill="none" />
<path d="M622.7980808446071,534.2186836012282 L644.9118395,540.38086224" stroke="grey" stroke-width="5" />
<circle cx="622.7980808446071" cy="534.2186836012282" r="2.5" fill="grey" stroke="none" />
<circle cx="620.9118395" cy="540.38086224" r="5" fill="black" stroke="none" />
<circle cx="644.9118395" cy="540.38086224" r="5" fill="black" stroke="none" />
<path d="M644.9118395,540.38086224 L640.4019249394253,539.1241378811548" stroke="grey" stroke-width="5" />
<circle cx="640.4019249394253" cy="539.1241378811548" r="2.5" fill="grey" stroke="none" />
<path d="M640.4019249394253,539.1241378811546 A145.75115331152486,145.75115331152486,0,0,0,644.9118395,484.38086224000006" stroke="grey" stroke-width="5" fill="none" />
<circle cx="644.9118395" cy="540.38086224" r="5" fill="black" stroke="none" />
<circle cx="644.9118395" cy="484.38086224000006" r="5" fill="black" stroke="none" />
<path d="M644.9118395,484.38086224000006 A145.75115331152486,145.75115331152486,0,0,0,642.4007628282851,468.92876832885264" stroke="grey" stroke-width="5" fill="none" />
<path d="M642.4007628282851,468.92876832885264 L644.9118395,468.38086224000006" stroke="grey" stroke-width="5" />
<circle cx="642.4007628282851" cy="468.92876832885264" r="2.5" fill="grey" stroke="none" />
<circle cx="644.9118395" cy="484.38086224000006" r="5" fill="black" stroke="none" />
<circle cx="644.9118395" cy="468.38086224000006" r="5" fill="black" stroke="none" />
<path d="M644.9118395,468.38086224000006 A148.3213103365785,148.3213103365785,0,0,0,640.9084405802332,453.69640971580594" stroke="grey" stroke-width="5" fill="none" />
<path d="M640.9084405802332,453.69640971580594 L644.9118395,452.38086224000006" stroke="grey" stroke-width="5" />
<circle cx="640.9084405802332" cy="453.69640971580594" r="2.5" fill="grey" stroke="none" />
<circle cx="644.9118395" cy="468.38086224000006" r="5" fill="black" stroke="none" />
<circle cx="644.9118395" cy="452.38086224000006" r="5" fill="black" stroke="none" />
<path d="M644.9118395,452.38086224000006 A152.5353188880517,152.5353188880517,0,0,0,636.7461262307902,432.41656660724885" stroke="grey" stroke-width="5" fill="none" />
<path d="M636.7461262307902,432.41656660724885 L644.9118395,428.38086224000006" stroke="grey" stroke-width="5" />
<circle cx="636.7461262307902" cy="432.41656660724885" r="2.5" fill="grey" stroke="none" />
<circle cx="644.9118395" cy="452.38086224000006" r="5" fill="black" stroke="none" />
<circle cx="644.9118395" cy="428.38086224000006" r="5" fill="black" stroke="none" />
<path d="M644.9118395,428.38086224000006 A161.64387436819132,161.64387436819132,0,0,1,651.5377252675212,443.7411345519225" stroke="grey" stroke-width="5" fill="none" />
<path d="M651.5377252675212,443.74113455192247 L692.9118395,428.38086224000006" stroke="grey" stroke-width="5" />
<circle cx="651.5377252675212" cy="443.74113455192247" r="2.5" fill="grey" stroke="none" />
<circle cx="644.9118395" cy="428.38086224000006" r="5" fill="black" stroke="none" />
<circle cx="692.9118395" cy="428.38086224000006" r="5" fill="black" stroke="none" />
<path d="M692.9118395,428.38086224000006 L683.2639364126021,431.96267713587366" stroke="grey" stroke-width="5" />
<circle cx="683.2639364126021" cy="431.96267713587366" r="2.5" fill="grey" stroke="none" />
<path d="M683.2639364126021,431.9626771358737 A195.48592709440655,195.48592709440655,0,0,1,692.9118395,468.38086224000006" stroke="grey" stroke-width="5" fill="none" />
<circle cx="692.9118395" cy="428.38086224000006" r="5" fill="black" stroke="none" />
<circle cx="692.9118395" cy="468.38086224000006" r="5" fill="black" stroke="none" />
<path d="M692.9118395,468.38086224000006 L646.368269262992,476.0095674712629" stroke="grey" stroke-width="5" />
<circle cx="646.368269262992" cy="476.0095674712629" r="2.5" fill="grey" stroke="none" />
<path d="M646.368269262992,476.0095674712629 A148.3213103365785,148.3213103365785,0,0,0,644.9118395,468.38086224000006" stroke="grey" stroke-width="5" fill="none" />
<circle cx="692.9118395" cy="468.38086224000006" r="5" fill="black" stroke="none" />
<circle cx="644.9118395" cy="468.38086224000006" r="5" fill="black" stroke="none" />
<path d="M644.9118395,452.38086224000006 A152.5353188880517,152.5353188880517,0,0,1,649.2272884910395,468.40506562925486" stroke="grey" stroke-width="5" fill="none" />
<path d="M649.2272884910395,468.40506562925486 L724.9118395,452.38086224000006" stroke="grey" stroke-width="5" />
<circle cx="649.2272884910395" cy="468.40506562925486" r="2.5" fill="grey" stroke="none" />
<circle cx="644.9118395" cy="452.38086224000006" r="5" fill="black" stroke="none" />
<circle cx="724.9118395" cy="452.38086224000006" r="5" fill="black" stroke="none" />
<circle cx="500" cy="500" r="5" fill="red" stroke="none" />
</svg>