<?xml version="1.0" encoding="UTF-8"?>
<svg xmlns="http://www.w3.org/2000/svg" xmlns:xlink="http://www.w3.org/1999/xlink"
     width="1000" height="1000" viewBox="0 0 1000 1000">
<defs>
</defs>
<rect x="0" y="0" width="1000" height="1000" fill="white" />
<path d="M106.21811200000002,354.45883904000004 L127.72712789362913,362.4085371842323" stroke="grey" stroke-width="5" />
<circle cx="127.72712789362913" cy="362.4085371842323" r="2.5" fill="grey" stroke="none" />
<path d="M127.72712789362913,362.4085371842323 A396.8860062361851,396.8860062361851,0,0,0,106.21811200000002,450.4588390400002" stroke="grey" stroke-width="5" fill="none" />
<circle cx="106.21811200000002" cy="354.45883904000004" r="5" fill="black" stroke="none" />
<circle cx="106.21811200000002" cy="450.45883904000004" r="5" fill="black" stroke="none" />
<path d="M106.21811200000002,450.45883904000004 L172.73464854241774,458.8271935625667" stroke="grey" stroke-width="5" />
<circle cx="172.73464854241774" cy="458.8271935625667" r="2.5" fill="grey" stroke="none" />
<path d="M172.73464854241774,458.82719356256683 A329.84513071226195,329.84513071226195,0,0,0,170.21811200000002,506.45883904" stroke="grey" stroke-width="5" fill="none" />
<circle cx="106.21811200000002" cy="450.45883904000004" r="5" fill="black" stroke="none" />
<circle cx="170.21811200000002" cy="506.45883904000004" r="5" fill="black" stroke="none" />
<path d="M82.21811200000002,506.45883904000004 L170.19427978800235,505.098742005112" stroke="grey" stroke-width="5" />
<circle cx="170.19427978800235" cy="505.098742005112" r="2.5" fill="grey" stroke="none" />
<path d="M170.19427978800235,505.09874200511183 A329.84513071226195,329.84513071226195,0,0,0,170.21811200000002,506.45883904" stroke="grey" stroke-width="5" fill="none" />
<circle cx="82.21811200000002" cy="506.45883904000004" r="5" fill="black" stroke="none" />
<circle cx="170.21811200000002" cy="506.45883904000004" r="5" fill="black" stroke="none" />
<path d="M170.21811200000002,506.45883904000004 L239.4150094564027,505.1036050535347" stroke="grey" stroke-width="5" />
<circle cx="239.4150094564027" cy="505.1036050535347" r="2.5" fill="grey" stroke="none" />
<path d="M239.4150094564027,505.1036050535347 A260.6349632745944,260.6349632745944,0,0,0,242.21811200000002,538.4588390399999" stroke="grey" stroke-width="5" fill="none" />
<circle cx="170.21811200000002" cy="506.45883904000004" r="5" fill="black" stroke="none" />
<circle cx="242.21811200000002" cy="538.45883904" r="5" fill="black" stroke="none" />
<path d="M242.21811200000002,538.45883904 L254.87384973049714,536.5707118946606" stroke="grey" stroke-width="5" />
<circle cx="254.87384973049714" cy="536.5707118946606" r="2.5" fill="grey" stroke="none" />
<path d="M254.87384973049714,536.5707118946606 A247.8391545225031,247.8391545225031,0,0,0,258.218112,554.45883904" stroke="grey" stroke-width="5" fill="none" />
<circle cx="242.21811200000002" cy="538.45883904" r="5" fill="black" stroke="none" />
<circle cx="258.218112" cy="554.45883904" r="5" fill="black" stroke="none" />
<path d="M258.218112,554.45883904 L278.64559005247816,549.8577634654183" stroke="grey" stroke-width="5" />
<circle cx="278.64559005247816" cy="549.8577634654183" r="2.5" fill="grey" stroke="none" />
<path d="M278.64559005247816,549.8577634654183 A226.89991489859392,226.89991489859392,0,0,0,290.218112,586.45883904" stroke="grey" stroke-width="5" fill="none" />
<circle cx="258.218112" cy="554.45883904" r="5" fill="black" stroke="none" />
<circle cx="290.218112" cy="586.45883904" r="5" fill="black" stroke="none" />
<path d="M258.218112,554.45883904 A247.8391545225031,247.8391545225031,0,0,0,282.54814097195964,618.9072559589129" stroke="grey" stroke-width="5" fill="none" />
<path d="M282.54814097195964,618.9072559589129 L210.21811200000002,658.45883904" stroke="grey" stroke-width="5" />
<circle cx="282.54814097195964" cy="618.9072559589129" r="2.5" fill="grey" stroke="none" />
<circle cx="258.218112" cy="554.45883904" r="5" fill="black" stroke="none" />
<circle cx="210.21811200000002" cy="658.45883904" r="5" fill="black" stroke="none" />
<path d="M210.21811200000002,658.4588390399999 A330.276772242235,330.276772242235,0,0,0,244.96946565182074,709.8622711037679" stroke="grey" stroke-width="5" fill="none" />
<path d="M244.96946565182074,709.8622711037679 L210.21811200000002,738.45883904" stroke="grey" stroke-width="5" />
<circle cx="244.96946565182074" cy="709.8622711037679" r="2.5" fill="grey" stroke="none" />
<circle cx="210.21811200000002" cy="658.45883904" r="5" fill="black" stroke="none" />
<circle cx="210.21811200000002" cy="738.45883904" r="5" fill="black" stroke="none" />
<path d="M106.21811200000002,754.45883904 L184.80039234633836,703.6795715434587" stroke="grey" stroke-width="5" />
<circle cx="184.80039234633836" cy="703.6795715434587" r="2.5" fill="grey" stroke="none" />
<path d="M184.80039234633836,703.6795715434587 A375.28144175958016,375.28144175958016,0,0,0,210.21811200000002,738.45883904" stroke="grey" stroke-width="5" fill="none" />
<circle cx="106.21811200000002" cy="754.45883904" r="5" fill="black" stroke="none" />
<circle cx="210.21811200000002" cy="738.45883904" r="5" fill="black" stroke="none" />
<path d="M210.21811200000002,738.45883904 A375.28144175958016,375.28144175958016,0,0,0,264.069918847813,791.8444060397109" stroke="grey" stroke-width="5" fill="none" />
<path d="M264.0699188478129,791.8444060397107 L210.21811200000002,858.45883904" stroke="grey" stroke-width="5" />
<circle cx="264.0699188478129" cy="791.8444060397107" r="2.5" fill="grey" stroke="none" />
<circle cx="210.21811200000002" cy="738.45883904" r="5" fill="black" stroke="none" />
<circle cx="210.21811200000002" cy="858.45883904" r="5" fill="black" stroke="none" />
<path d="M210.21811200000002,658.45883904 L269.3318302834516,626.1342129731929" stroke="grey" stroke-width="5" />
<circle cx="269.3318302834516" cy="626.1342129731929" r="2.5" fill="grey" stroke="none" />
<path d="M269.3318302834516,626.1342129731929 A262.9023472750846,262.9023472750846,0,0,0,290.218112,658.45883904" stroke="grey" stroke-width="5" fill="none" />
<circle cx="210.21811200000002" cy="658.45883904" r="5" fill="black" stroke="none" />
<circle cx="290.218112" cy="658.45883904" r="5" fill="black" stroke="none" />
<path d="M290.218112,586.45883904 A226.89991489859392,226.89991489859392,0,0,0,318.94611049379023,636.7591330612414" stroke="grey" stroke-width="5" fill="none" />
<path d="M318.94611049379023,636.7591330612414 L290.218112,658.45883904" stroke="grey" stroke-width="5" />
<circle cx="318.94611049379023" cy="636.7591330612414" r="2.5" fill="grey" stroke="none" />
<circle cx="290.218112" cy="586.45883904" r="5" fill="black" stroke="none" />
<circle cx="290.218112" cy="658.45883904" r="5" fill="black" stroke="none" />
<path d="M290.218112,658.45883904 L332.44453093217214,626.5630953959698" stroke="grey" stroke-width="5" />
<circle cx="332.44453093217214" cy="626.5630953959698" r="2.5" fill="grey" stroke="none" />
<path d="M332.44453093217214,626.5630953959698 A209.98345727877987,209.98345727877987,0,0,0,362.2181120000001,658.45883904" stroke="grey" stroke-width="5" fill="none" />
<circle cx="290.218112" cy="658.45883904" r="5" fill="black" stroke="none" />
<circle cx="362.218112" cy="658.45883904" r="5" fill="black" stroke="none" />
<path d="M290.218112,586.45883904 L323.8457714511487,572.5996425979373" stroke="grey" stroke-width="5" />
<circle cx="323.8457714511487" cy="572.5996425979373" r="2.5" fill="grey" stroke="none" />
<path d="M323.8457714511487,572.5996425979373 A190.5282665144182,190.5282665144182,0,0,0,330.218112,586.4588390399999" stroke="grey" stroke-width="5" fill="none" />
<circle cx="290.218112" cy="586.45883904" r="5" fill="black" stroke="none" />
<circle cx="330.218112" cy="586.45883904" r="5" fill="black" stroke="none" />
<path d="M362.218112,658.45883904 L415.6878380459201,596.9649022387904" stroke="grey" stroke-width="5" />
<circle cx="415.6878380459201" cy="596.9649022387904" r="2.5" fill="grey" stroke="none" />
<path d="M415.6878380459201,596.9649022387904 A128.4940968276332,128.4940968276332,0,0,0,450.218112,618.45883904" stroke="grey" stroke-width="5" fill="none" />
<circle cx="362.218112" cy="658.45883904" r="5" fill="black" stroke="none" />
<circle cx="450.218112" cy="618.45883904" r="5" fill="black" stroke="none" />
<path d="M330.218112,586.45883904 L419.6030106437269,540.9409416041751" stroke="grey" stroke-width="5" />
<circle cx="419.6030106437269" cy="540.9409416041751" r="2.5" fill="grey" stroke="none" />
<path d="M419.6030106437269,540.9409416041751 A90.22104298327066,90.22104298327066,0,0,0,474.218112,586.45883904" stroke="grey" stroke-width="5" fill="none" />
<circle cx="330.218112" cy="586.45883904" r="5" fill="black" stroke="none" />
<circle cx="474.218112" cy="586.45883904" r="5" fill="black" stroke="none" />
<path d="M450.218112,618.45883904 L465.0460685126939,583.1748716294163" stroke="grey" stroke-width="5" />
<circle cx="465.0460685126939" cy="583.1748716294163" r="2.5" fill="grey" stroke="none" />
<path d="M465.0460685126939,583.1748716294163 A90.22104298327066,90.22104298327066,0,0,0,474.218112,586.45883904" stroke="grey" stroke-width="5" fill="none" />
<circle cx="450.218112" cy="618.45883904" r="5" fill="black" stroke="none" />
<circle cx="474.218112" cy="586.45883904" r="5" fill="black" stroke="none" />
<path d="M210.21811200000002,738.45883904 L273.96513205135886,686.0020050445412" stroke="grey" stroke-width="5" />
<circle cx="273.96513205135886" cy="686.0020050445412" r="2.5" fill="grey" stroke="none" />
<path d="M273.96513205135886,686.0020050445412 A292.7259937367182,292.7259937367182,0,0,0,330.218112,738.4588390399999" stroke="grey" stroke-width="5" fill="none" />
<circle cx="210.21811200000002" cy="738.45883904" r="5" fill="black" stroke="none" />
<circle cx="330.218112" cy="738.45883904" r="5" fill="black" stroke="none" />
<path d="M330.218112,738.45883904 L406.94924608585904,630.68988106766" stroke="grey" stroke-width="5" />
<circle cx="406.94924608585904" cy="630.68988106766" r="2.5" fill="grey" stroke="none" />
<path d="M406.94924608585904,630.68988106766 A160.43156739703434,160.43156739703434,0,0,0,426.2181119999999,642.4588390399999" stroke="grey" stroke-width="5" fill="none" />
<circle cx="330.218112" cy="738.45883904" r="5" fill="black" stroke="none" />
<circle cx="426.218112" cy="642.45883904" r="5" fill="black" stroke="none" />
<path d="M426.218112,642.45883904 L440.9060372929272,614.0992396605878" stroke="grey" stroke-width="5" />
<circle cx="440.9060372929272" cy="614.0992396605878" r="2.5" fill="grey" stroke="none" />
<path d="M440.9060372929271,614.0992396605878 A128.4940968276332,128.4940968276332,0,0,0,450.218112,618.45883904" stroke="grey" stroke-width="5" fill="none" />
<circle cx="426.218112" cy="642.45883904" r="5" fill="black" stroke="none" />
<circle cx="450.218112" cy="618.45883904" r="5" fill="black" stroke="none" />
<path d="M450.218112,618.45883904 A128.4940968276332,128.4940968276332,0,0,0,457.61162852329073,621.301108334185" stroke="grey" stroke-width="5" fill="none" />
<path d="M457.6116285232907,621.301108334185 L450.218112,642.45883904" stroke="grey" stroke-width="5" />
<circle cx="457.6116285232907" cy="621.301108334185" r="2.5" fill="grey" stroke="none" />
<circle cx="450.218112" cy="618.45883904" r="5" fill="black" stroke="none" />
<circle cx="450.218112" cy="642.45883904" r="5" fill="black" stroke="none" />
<path d="M450.218112,642.45883904 A150.9064517953728,150.9064517953728,0,0,0,476.6931609898911,649.0957693860762" stroke="grey" stroke-width="5" fill="none" />
<path d="M476.6931609898911,649.0957693860762 L450.218112,818.45883904" stroke="grey" stroke-width="5" />
<circle cx="476.6931609898911" cy="649.0957693860762" r="2.5" fill="grey" stroke="none" />
<circle cx="450.218112" cy="642.45883904" r="5" fill="black" stroke="none" />
<circle cx="450.218112" cy="818.45883904" r="5" fill="black" stroke="none" />
<path d="M450.218112,818.45883904 L450.3001451490982,817.9340662265504" stroke="grey" stroke-width="5" />
<circle cx="450.3001451490982" cy="817.9340662265504" r="2.5" fill="grey" stroke="none" />
<path d="M450.3001451490982,817.9340662265504 A321.79519269179457,321.79519269179457,0,0,0,546.218112,818.45883904" stroke="grey" stroke-width="5" fill="none" />
<circle cx="450.218112" cy="818.45883904" r="5" fill="black" stroke="none" />
<circle cx="546.218112" cy="818.45883904" r="5" fill="black" stroke="none" />
<path d="M450.2181120000001,818.45883904 A322.32633856939026,322.32633856939026,0,0,0,456.61184016074844,819.3927615355626" stroke="grey" stroke-width="5" fill="none" />
<path d="M456.61184016074844,819.3927615355626 L450.218112,866.45883904" stroke="grey" stroke-width="5" />
<circle cx="456.61184016074844" cy="819.3927615355626" r="2.5" fill="grey" stroke="none" />
<circle cx="450.218112" cy="818.45883904" r="5" fill="black" stroke="none" />
<circle cx="450.218112" cy="866.45883904" r="5" fill="black" stroke="none" />
<path d="M138.21811200000002,442.45883904000004 L322.957699869585,471.84154368575565" stroke="grey" stroke-width="5" />
<circle cx="322.957699869585" cy="471.84154368575565" r="2.5" fill="grey" stroke="none" />
<path d="M322.957699869585,471.84154368575565 A179.26760638070996,179.26760638070996,0,0,1,330.218112,442.45883904000004" stroke="grey" stroke-width="5" fill="none" />
<circle cx="138.21811200000002" cy="442.45883904000004" r="5" fill="black" stroke="none" />
<circle cx="330.218112" cy="442.45883904000004" r="5" fill="black" stroke="none" />
<path d="M330.218112,442.45883904000004 A179.26760638070996,179.26760638070996,0,0,0,340.2526132979092,581.3489221767678" stroke="grey" stroke-width="5" fill="none" />
<path d="M340.2526132979092,581.3489221767678 L330.218112,586.45883904" stroke="grey" stroke-width="5" />
<circle cx="340.2526132979092" cy="581.3489221767678" r="2.5" fill="grey" stroke="none" />
<circle cx="330.218112" cy="442.45883904000004" r="5" fill="black" stroke="none" />
<circle cx="330.218112" cy="586.45883904" r="5" fill="black" stroke="none" />
<path d="M330.218112,442.45883904000004 A179.26760638070996,179.26760638070996,0,0,1,360.70477420760994,387.1562373504134" stroke="grey" stroke-width="5" fill="none" />
<path d="M360.7047742076099,387.1562373504135 L330.218112,362.45883904000004" stroke="grey" stroke-width="5" />
<circle cx="360.7047742076099" cy="387.1562373504135" r="2.5" fill="grey" stroke="none" />
<circle cx="330.218112" cy="442.45883904000004" r="5" fill="black" stroke="none" />
<circle cx="330.218112" cy="362.45883904000004" r="5" fill="black" stroke="none" />
<path d="M330.21811200000013,362.45883903999993 A218.50276989335663,218.50276989335663,0,0,1,355.9067223512947,335.74231285105014" stroke="grey" stroke-width="5" fill="none" />
<path d="M355.9067223512947,335.74231285105014 L330.218112,306.45883904000004" stroke="grey" stroke-width="5" />
<circle cx="355.9067223512947" cy="335.74231285105014" r="2.5" fill="grey" stroke="none" />
<circle cx="330.218112" cy="362.45883904000004" r="5" fill="black" stroke="none" />
<circle cx="330.218112" cy="306.45883904000004" r="5" fill="black" stroke="none" />
<path d="M330.218112,362.45883904000004 L434.20742574382615,446.7011048567138" stroke="grey" stroke-width="5" />
<circle cx="434.20742574382615" cy="446.7011048567138" r="2.5" fill="grey" stroke="none" />
<path d="M434.2074257438262,446.70110485671375 A84.6725165018093,84.6725165018093,0,0,0,426.218112,458.45883904000004" stroke="grey" stroke-width="5" fill="none" />
<circle cx="330.218112" cy="362.45883904000004" r="5" fill="black" stroke="none" />
<circle cx="426.218112" cy="458.45883904000004" r="5" fill="black" stroke="none" />
<path d="M330.218112,442.45883904000004 L419.8078224860192,472.82188902231513" stroke="grey" stroke-width="5" />
<circle cx="419.8078224860192" cy="472.82188902231513" r="2.5" fill="grey" stroke="none" />
<path d="M419.8078224860192,472.82188902231513 A84.6725165018093,84.6725165018093,0,0,1,426.218112,458.45883904000004" stroke="grey" stroke-width="5" fill="none" />
<circle cx="330.218112" cy="442.45883904000004" r="5" fill="black" stroke="none" />
<circle cx="426.218112" cy="458.45883904000004" r="5" fill="black" stroke="none" />
<path d="M426.218112,458.45883904000004 L465.22719387983926,480.42198735727027" stroke="grey" stroke-width="5" />
<circle cx="465.22719387983926" cy="480.42198735727027" r="2.5" fill="grey" stroke="none" />
<path d="M465.22719387983926,480.42198735727027 A39.90547110997654,39.90547110997654,0,0,0,474.218112,530.45883904" stroke="grey" stroke-width="5" fill="none" />
<circle cx="426.218112" cy="458.45883904000004" r="5" fill="black" stroke="none" />
<circle cx="474.218112" cy="530.45883904" r="5" fill="black" stroke="none" />
<path d="M426.218112,642.45883904 L430.5986776449744,634.000797194804" stroke="grey" stroke-width="5" />
<circle cx="430.5986776449744" cy="634.000797194804" r="2.5" fill="grey" stroke="none" />
<path d="M430.5986776449744,634.0007971948039 A150.9064517953728,150.9064517953728,0,0,0,450.218112,642.45883904" stroke="grey" stroke-width="5" fill="none" />
<circle cx="426.218112" cy="642.45883904" r="5" fill="black" stroke="none" />
<circle cx="450.218112" cy="642.45883904" r="5" fill="black" stroke="none" />
<path d="M450.218112,642.45883904 L452.24144460166116,636.6687490091754" stroke="grey" stroke-width="5" />
<circle cx="452.24144460166116" cy="636.6687490091754" r="2.5" fill="grey" stroke="none" />
<path d="M452.24144460166116,636.6687490091754 A144.77301740817995,144.77301740817995,0,0,0,474.218112,642.45883904" stroke="grey" stroke-width="5" fill="none" />
<circle cx="450.218112" cy="642.45883904" r="5" fill="black" stroke="none" />
<circle cx="474.218112" cy="642.45883904" r="5" fill="black" stroke="none" />
<path d="M474.218112,642.45883904 L483.9329947867313,588.7788710249571" stroke="grey" stroke-width="5" />
<circle cx="483.9329947867313" cy="588.7788710249571" r="2.5" fill="grey" stroke="none" />
<path d="M483.9329947867313,588.7788710249571 A90.22104298327066,90.22104298327066,0,0,1,474.218112,586.45883904" stroke="grey" stroke-width="5" fill="none" />
<circle cx="474.218112" cy="642.45883904" r="5" fill="black" stroke="none" />
<circle cx="474.218112" cy="586.45883904" r="5" fill="black" stroke="none" />
<path d="M474.218112,586.45883904 L478.55981988968625,571.8990432797717" stroke="grey" stroke-width="5" />
<circle cx="478.55981988968625" cy="571.8990432797717" r="2.5" fill="grey" stroke="none" />
<path d="M478.55981988968625,571.8990432797717 A75.02768654109744,75.02768654109744,0,0,1,474.218112,570.45883904" stroke="grey" stroke-width="5" fill="none" />
<circle cx="474.218112" cy="586.45883904" r="5" fill="black" stroke="none" />
<circle cx="474.218112" cy="570.45883904" r="5" fill="black" stroke="none" />
<path d="M474.218112,570.45883904 L479.2950282609365,556.5842296378926" stroke="grey" stroke-width="5" />
<circle cx="479.2950282609365" cy="556.5842296378926" r="2.5" fill="grey" stroke="none" />
<path d="M479.2950282609365,556.5842296378926 A60.25338910326267,60.25338910326267,0,0,1,474.218112,554.45883904" stroke="grey" stroke-width="5" fill="none" />
<circle cx="474.218112" cy="570.45883904" r="5" fill="black" stroke="none" />
<circle cx="474.218112" cy="554.45883904" r="5" fill="black" stroke="none" />
<path d="M474.218112,554.45883904 L482.9248046946966,536.0677741175542" stroke="grey" stroke-width="5" />
<circle cx="482.9248046946966" cy="536.0677741175542" r="2.5" fill="grey" stroke="none" />
<path d="M482.9248046946966,536.0677741175542 A39.90547110997654,39.90547110997654,0,0,1,474.218112,530.45883904" stroke="grey" stroke-width="5" fill="none" />
<circle cx="474.218112" cy="554.45883904" r="5" fill="black" stroke="none" />
<circle cx="474.218112" cy="530.45883904" r="5" fill="black" stroke="none" />
<path d="M474.218112,530.45883904 L475.64219234683736,528.7764240801512" stroke="grey" stroke-width="5" />
<circle cx="475.64219234683736" cy="528.7764240801512" r="2.5" fill="grey" stroke="none" />
<path d="M475.6421923468374,528.7764240801512 A37.70126491921954,37.70126491921954,0,0,0,522.218112,530.45883904" stroke="grey" stroke-width="5" fill="none" />
<circle cx="474.218112" cy="530.45883904" r="5" fill="black" stroke="none" />
<circle cx="522.218112" cy="530.45883904" r="5" fill="black" stroke="none" />
<path d="M522.218112,530.45883904 A37.70126491921954,37.70126491921954,0,0,1,511.33816120473836,535.9559658054758" stroke="grey" stroke-width="5" fill="none" />
<path d="M511.33816120473836,535.9559658054758 L522.218112,570.45883904" stroke="grey" stroke-width="5" />
<circle cx="511.33816120473836" cy="535.9559658054758" r="2.5" fill="grey" stroke="none" />
<circle cx="522.218112" cy="530.45883904" r="5" fill="black" stroke="none" />
<circle cx="522.218112" cy="570.45883904" r="5" fill="black" stroke="none" />
<path d="M522.218112,570.45883904 A73.87890429418384,73.87890429418384,0,0,1,474.61286994325724,569.3800124473266" stroke="grey" stroke-width="5" fill="none" />
<path d="M474.6128699432573,569.3800124473266 L474.218112,570.45883904" stroke="grey" stroke-width="5" />
<circle cx="474.6128699432573" cy="569.3800124473266" r="2.5" fill="grey" stroke="none" />
<circle cx="522.218112" cy="570.45883904" r="5" fill="black" stroke="none" />
<circle cx="474.218112" cy="570.45883904" r="5" fill="black" stroke="none" />
<path d="M474.218112,554.45883904 A60.25338910326267,60.25338910326267,0,0,0,542.5111013967435,542.6998496070532" stroke="grey" stroke-width="5" fill="none" />
<path d="M542.5111013967435,542.6998496070532 L554.218112,554.45883904" stroke="grey" stroke-width="5" />
<circle cx="542.5111013967435" cy="542.6998496070532" r="2.5" fill="grey" stroke="none" />
<circle cx="474.218112" cy="554.45883904" r="5" fill="black" stroke="none" />
<circle cx="554.218112" cy="554.45883904" r="5" fill="black" stroke="none" />
<circle cx="500" cy="500" r="5" fill="red" stroke="none" />
</svg>