<?xml version="1.0" encoding="UTF-8"?>
<svg xmlns="http://www.w3.org/2000/svg" xmlns:xlink="http://www.w3.org/1999/xlink"
     width="1000" height="1000" viewBox="0 0 1000 1000">
<defs>
</defs>
<rect x="0" y="0" width="1000" height="1000" fill="white" />
<path d="M156.33023200000002,321.31748864 L186.38049860701028,336.9413741380638" stroke="grey" stroke-width="5" />
<circle cx="186.38049860701028" cy="336.9413741380638" r="2.5" fill="grey" stroke="none" />
<path d="M186.3804986070104,336.9413741380637 A353.4760347208426,353.4760347208426,0,0,0,156.33023199999997,417.3174886400002" stroke="grey" stroke-width="5" fill="none" />
<circle cx="156.33023200000002" cy="321.31748864" r="5" fill="black" stroke="none" />
<circle cx="156.33023200000002" cy="417.31748864" r="5" fill="black" stroke="none" />
<path d="M156.33023200000002,417.31748864 L226.85420061992454,434.2846454268873" stroke="grey" stroke-width="5" />
<circle cx="226.85420061992454" cy="434.2846454268873" r="2.5" fill="grey" stroke="none" />
<path d="M226.85420061992454,434.28464542688744 A280.9397365017102,280.9397365017102,0,0,0,220.33023200000002,473.31748864" stroke="grey" stroke-width="5" fill="none" />
<circle cx="156.33023200000002" cy="417.31748864" r="5" fill="black" stroke="none" />
<circle cx="220.33023200000002" cy="473.31748864" r="5" fill="black" stroke="none" />
<path d="M132.33023200000002,473.31748864 L219.79716492282262,479.66513436576327" stroke="grey" stroke-width="5" />
<circle cx="219.79716492282262" cy="479.66513436576327" r="2.5" fill="grey" stroke="none" />
<path d="M219.79716492282262,479.66513436576327 A280.9397365017102,280.9397365017102,0,0,1,220.33023200000002,473.31748864" stroke="grey" stroke-width="5" fill="none" />
<circle cx="132.33023200000002" cy="473.31748864" r="5" fill="black" stroke="none" />
<circle cx="220.33023200000002" cy="473.31748864" r="5" fill="black" stroke="none" />
<path d="M220.33023200000002,473.31748864 L293.20122908085887,480.26990692006433" stroke="grey" stroke-width="5" />
<circle cx="293.20122908085887" cy="480.26990692006433" r="2.5" fill="grey" stroke="none" />
<path d="M293.20122908085887,480.26990692006433 A207.73783532763198,207.73783532763198,0,0,0,292.330232,505.3174886400001" stroke="grey" stroke-width="5" fill="none" />
<circle cx="220.33023200000002" cy="473.31748864" r="5" fill="black" stroke="none" />
<circle cx="292.330232" cy="505.31748864" r="5" fill="black" stroke="none" />
<path d="M292.330232,505.31748864 L307.2116009442012,504.9364437191599" stroke="grey" stroke-width="5" />
<circle cx="307.2116009442012" cy="504.9364437191599" r="2.5" fill="grey" stroke="none" />
<path d="M307.2116009442012,504.93644371916 A192.8515887595701,192.8515887595701,0,0,0,308.330232,521.3174886400001" stroke="grey" stroke-width="5" fill="none" />
<circle cx="292.330232" cy="505.31748864" r="5" fill="black" stroke="none" />
<circle cx="308.330232" cy="521.31748864" r="5" fill="black" stroke="none" />
<path d="M308.330232,521.31748864 L332.69505301869384,518.607636164561" stroke="grey" stroke-width="5" />
<circle cx="332.69505301869384" cy="518.607636164561" r="2.5" fill="grey" stroke="none" />
<path d="M332.69505301869384,518.607636164561 A168.33653616505939,168.33653616505939,0,0,0,340.330232,553.31748864" stroke="grey" stroke-width="5" fill="none" />
<circle cx="308.330232" cy="521.31748864" r="5" fill="black" stroke="none" />
<circle cx="340.330232" cy="553.31748864" r="5" fill="black" stroke="none" />
<path d="M308.330232,521.3174886400001 A192.8515887595701,192.8515887595701,0,0,0,329.10042765438106,589.3592270511272" stroke="grey" stroke-width="5" fill="none" />
<path d="M329.10042765438106,589.3592270511272 L-239.66976799999998,125.31748864000002" stroke="grey" stroke-width="5" />
<circle cx="329.10042765438106" cy="589.3592270511272" r="2.5" fill="grey" stroke="none" />
<circle cx="308.330232" cy="521.31748864" r="5" fill="black" stroke="none" />
<circle cx="260.330232" cy="625.31748864" r="5" fill="black" stroke="none" />
<path d="M260.330232,625.3174886400001 A270.45530250340875,270.45530250340875,0,0,0,294.60686986159624,675.9537801360319" stroke="grey" stroke-width="5" fill="none" />
<path d="M294.60686986159624,675.9537801360319 L-239.66976799999998,205.31748864000002" stroke="grey" stroke-width="5" />
<circle cx="294.60686986159624" cy="675.9537801360319" r="2.5" fill="grey" stroke="none" />
<circle cx="260.330232" cy="625.31748864" r="5" fill="black" stroke="none" />
<circle cx="260.330232" cy="705.31748864" r="5" fill="black" stroke="none" />
<path d="M156.33023200000002,721.31748864 L234.6686903655136,670.8688531074598" stroke="grey" stroke-width="5" />
<circle cx="234.6686903655136" cy="670.8688531074598" r="2.5" fill="grey" stroke="none" />
<path d="M234.66869036551367,670.8688531074599 A315.58971598360165,315.58971598360165,0,0,0,260.330232,705.3174886400001" stroke="grey" stroke-width="5" fill="none" />
<circle cx="156.33023200000002" cy="721.31748864" r="5" fill="black" stroke="none" />
<circle cx="260.330232" cy="705.31748864" r="5" fill="black" stroke="none" />
<path d="M260.330232,705.3174886400001 A315.58971598360165,315.58971598360165,0,0,0,312.8116466976055,754.0814617844999" stroke="grey" stroke-width="5" fill="none" />
<path d="M312.8116466976056,754.0814617845 L-239.66976799999998,325.31748864" stroke="grey" stroke-width="5" />
<circle cx="312.8116466976056" cy="754.0814617845" r="2.5" fill="grey" stroke="none" />
<circle cx="260.330232" cy="705.31748864" r="5" fill="black" stroke="none" />
<circle cx="260.330232" cy="825.31748864" r="5" fill="black" stroke="none" />
<path d="M260.330232,625.31748864 L320.1292248709006,594.0500506468088" stroke="grey" stroke-width="5" />
<circle cx="320.1292248709006" cy="594.0500506468088" r="2.5" fill="grey" stroke="none" />
<path d="M320.1292248709006,594.0500506468088 A202.97514077396363,202.97514077396363,0,0,0,340.330232,625.31748864" stroke="grey" stroke-width="5" fill="none" />
<circle cx="260.330232" cy="625.31748864" r="5" fill="black" stroke="none" />
<circle cx="340.330232" cy="625.31748864" r="5" fill="black" stroke="none" />
<path d="M340.330232,553.31748864 A168.33653616505939,168.33653616505939,0,0,0,367.5785834023355,603.9315054943308" stroke="grey" stroke-width="5" fill="none" />
<path d="M367.5785834023355,603.9315054943308 L-159.66976799999998,125.31748864000002" stroke="grey" stroke-width="5" />
<circle cx="367.5785834023355" cy="603.9315054943308" r="2.5" fill="grey" stroke="none" />
<circle cx="340.330232" cy="553.31748864" r="5" fill="black" stroke="none" />
<circle cx="340.330232" cy="625.31748864" r="5" fill="black" stroke="none" />
<path d="M340.330232,625.31748864 L379.69069019365725,594.4252675618756" stroke="grey" stroke-width="5" />
<circle cx="379.69069019365725" cy="594.4252675618756" r="2.5" fill="grey" stroke="none" />
<path d="M379.69069019365725,594.4252675618756 A152.9394036218605,152.9394036218605,0,0,0,412.3302320000001,625.3174886400001" stroke="grey" stroke-width="5" fill="none" />
<circle cx="340.330232" cy="625.31748864" r="5" fill="black" stroke="none" />
<circle cx="412.330232" cy="625.31748864" r="5" fill="black" stroke="none" />
<path d="M340.330232,553.31748864 L375.7350638829875,541.4949830688621" stroke="grey" stroke-width="5" />
<circle cx="375.7350638829875" cy="541.4949830688621" r="2.5" fill="grey" stroke="none" />
<path d="M375.7350638829875,541.4949830688621 A131.00995369837494,131.00995369837494,0,0,0,380.330232,553.31748864" stroke="grey" stroke-width="5" fill="none" />
<circle cx="340.330232" cy="553.31748864" r="5" fill="black" stroke="none" />
<circle cx="380.330232" cy="553.31748864" r="5" fill="black" stroke="none" />
<path d="M412.330232,625.31748864 L451.0929146576974,569.9090832748584" stroke="grey" stroke-width="5" />
<circle cx="451.0929146576974" cy="569.9090832748584" r="2.5" fill="grey" stroke="none" />
<path d="M451.09291465769746,569.9090832748584 A85.31812773971518,85.31812773971518,0,0,0,500.330232,585.31748864" stroke="grey" stroke-width="5" fill="none" />
<circle cx="412.330232" cy="625.31748864" r="5" fill="black" stroke="none" />
<circle cx="500.330232" cy="585.31748864" r="5" fill="black" stroke="none" />
<path d="M380.330232,553.31748864 L446.46651758768786,523.8512273239979" stroke="grey" stroke-width="5" />
<circle cx="446.46651758768786" cy="523.8512273239979" r="2.5" fill="grey" stroke="none" />
<path d="M446.46651758768786,523.8512273239979 A58.60643978310196,58.60643978310196,0,0,0,524.330232,553.31748864" stroke="grey" stroke-width="5" fill="none" />
<circle cx="380.330232" cy="553.31748864" r="5" fill="black" stroke="none" />
<circle cx="524.330232" cy="553.31748864" r="5" fill="black" stroke="none" />
<path d="M500.330232,585.31748864 L500.22684184868075,558.6060007748869" stroke="grey" stroke-width="5" />
<circle cx="500.22684184868075" cy="558.6060007748869" r="2.5" fill="grey" stroke="none" />
<path d="M500.22684184868075,558.6060007748869 A58.60643978310196,58.60643978310196,0,0,0,524.330232,553.31748864" stroke="grey" stroke-width="5" fill="none" />
<circle cx="500.330232" cy="585.31748864" r="5" fill="black" stroke="none" />
<circle cx="524.330232" cy="553.31748864" r="5" fill="black" stroke="none" />
<path d="M260.330232,705.31748864 L319.52258726193617,654.6092752909246" stroke="grey" stroke-width="5" />
<circle cx="319.52258726193617" cy="654.6092752909246" r="2.5" fill="grey" stroke="none" />
<path d="M319.52258726193617,654.6092752909246 A237.64705871230632,237.64705871230632,0,0,0,380.330232,705.31748864" stroke="grey" stroke-width="5" fill="none" />
<circle cx="260.330232" cy="705.31748864" r="5" fill="black" stroke="none" />
<circle cx="380.330232" cy="705.31748864" r="5" fill="black" stroke="none" />
<path d="M380.330232,705.31748864 L443.67637793467367,596.6344702327934" stroke="grey" stroke-width="5" />
<circle cx="443.67637793467367" cy="596.6344702327934" r="2.5" fill="grey" stroke="none" />
<path d="M443.67637793467367,596.6344702327934 A111.85066490517774,111.85066490517774,0,0,0,476.330232,609.3174886400001" stroke="grey" stroke-width="5" fill="none" />
<circle cx="380.330232" cy="705.31748864" r="5" fill="black" stroke="none" />
<circle cx="476.330232" cy="609.31748864" r="5" fill="black" stroke="none" />
<path d="M476.330232,609.31748864 L481.9450309794275,583.3858562028149" stroke="grey" stroke-width="5" />
<circle cx="481.9450309794275" cy="583.3858562028149" r="2.5" fill="grey" stroke="none" />
<path d="M481.9450309794275,583.3858562028149 A85.31812773971518,85.31812773971518,0,0,0,500.330232,585.31748864" stroke="grey" stroke-width="5" fill="none" />
<circle cx="476.330232" cy="609.31748864" r="5" fill="black" stroke="none" />
<circle cx="500.330232" cy="585.31748864" r="5" fill="black" stroke="none" />
<path d="M500.330232,585.31748864 A85.31812773971518,85.31812773971518,0,0,1,500.2577322965976,585.3177384549874" stroke="grey" stroke-width="5" fill="none" />
<path d="M500.2577322965976,585.3177384549874 L0.3302320000000236,109.31748864000002" stroke="grey" stroke-width="5" />
<circle cx="500.2577322965976" cy="585.3177384549874" r="2.5" fill="grey" stroke="none" />
<circle cx="500.330232" cy="585.31748864" r="5" fill="black" stroke="none" />
<circle cx="500.330232" cy="609.31748864" r="5" fill="black" stroke="none" />
<path d="M500.330232,609.31748864 A109.31798742993011,109.31798742993011,0,0,1,500.12652667600827,609.3179142077391" stroke="grey" stroke-width="5" fill="none" />
<path d="M500.12652667600827,609.3179142077391 L0.3302320000000236,285.31748864" stroke="grey" stroke-width="5" />
<circle cx="500.12652667600827" cy="609.3179142077391" r="2.5" fill="grey" stroke="none" />
<circle cx="500.330232" cy="609.31748864" r="5" fill="black" stroke="none" />
<circle cx="500.330232" cy="785.31748864" r="5" fill="black" stroke="none" />
<path d="M500.330232,785.3174886400001 A285.3176797483997,285.3176797483997,0,0,0,591.2687631991251,770.3260831682958" stroke="grey" stroke-width="5" fill="none" />
<path d="M591.2687631991251,770.3260831682958 L96.33023200000002,285.31748864" stroke="grey" stroke-width="5" />
<circle cx="591.2687631991251" cy="770.3260831682958" r="2.5" fill="grey" stroke="none" />
<circle cx="500.330232" cy="785.31748864" r="5" fill="black" stroke="none" />
<circle cx="596.330232" cy="785.31748864" r="5" fill="black" stroke="none" />
<path d="M500.330232,785.3174886400001 A285.3176797483997,285.3176797483997,0,0,1,500.2826763820908,785.3175397185973" stroke="grey" stroke-width="5" fill="none" />
<path d="M500.2826763820908,785.3175397185973 L0.3302320000000236,333.31748864" stroke="grey" stroke-width="5" />
<circle cx="500.2826763820908" cy="785.3175397185973" r="2.5" fill="grey" stroke="none" />
<circle cx="500.330232" cy="785.31748864" r="5" fill="black" stroke="none" />
<circle cx="500.330232" cy="833.31748864" r="5" fill="black" stroke="none" />
<path d="M188.33023200000002,409.31748864 L355.83125210176354,458.05308868122626" stroke="grey" stroke-width="5" />
<circle cx="355.83125210176354" cy="458.05308868122626" r="2.5" fill="grey" stroke="none" />
<path d="M355.83125210176354,458.05308868122626 A150.1471652737085,150.1471652737085,0,0,1,380.330232,409.31748864" stroke="grey" stroke-width="5" fill="none" />
<circle cx="188.33023200000002" cy="409.31748864" r="5" fill="black" stroke="none" />
<circle cx="380.330232" cy="409.31748864" r="5" fill="black" stroke="none" />
<path d="M380.330232,409.31748864 L395.58290537023845,420.8755517104241" stroke="grey" stroke-width="5" />
<circle cx="395.58290537023845" cy="420.8755517104241" r="2.5" fill="grey" stroke="none" />
<path d="M395.58290537023845,420.8755517104241 A131.00995369837494,131.00995369837494,0,0,0,380.330232,553.31748864" stroke="grey" stroke-width="5" fill="none" />
<circle cx="380.330232" cy="409.31748864" r="5" fill="black" stroke="none" />
<circle cx="380.330232" cy="553.31748864" r="5" fill="black" stroke="none" />
<path d="M380.330232,409.31748864 A150.1471652737085,150.1471652737085,0,0,1,413.80345879397237,377.05965868012277" stroke="grey" stroke-width="5" fill="none" />
<path d="M413.80345879397237,377.05965868012277 L-119.66976799999998,-170.68251135999998" stroke="grey" stroke-width="5" />
<circle cx="413.80345879397237" cy="377.05965868012277" r="2.5" fill="grey" stroke="none" />
<circle cx="380.330232" cy="409.31748864" r="5" fill="black" stroke="none" />
<circle cx="380.330232" cy="329.31748864" r="5" fill="black" stroke="none" />
<path d="M380.330232,329.31748863999997 A208.45472663705743,208.45472663705743,0,0,1,402.6817490319265,315.6564861845001" stroke="grey" stroke-width="5" fill="none" />
<path d="M402.6817490319265,315.6564861845001 L-119.66976799999998,-226.68251135999998" stroke="grey" stroke-width="5" />
<circle cx="402.6817490319265" cy="315.6564861845001" r="2.5" fill="grey" stroke="none" />
<circle cx="380.330232" cy="329.31748864" r="5" fill="black" stroke="none" />
<circle cx="380.330232" cy="273.31748864" r="5" fill="black" stroke="none" />
<path d="M380.330232,329.31748864 L455.02441885753,435.8522602026584" stroke="grey" stroke-width="5" />
<circle cx="455.02441885753" cy="435.8522602026584" r="2.5" fill="grey" stroke="none" />
<path d="M455.02441885753,435.8522602026584 A78.343700577713,78.343700577713,0,0,1,476.330232,425.31748864" stroke="grey" stroke-width="5" fill="none" />
<circle cx="380.330232" cy="329.31748864" r="5" fill="black" stroke="none" />
<circle cx="476.330232" cy="425.31748864" r="5" fill="black" stroke="none" />
<path d="M380.330232,409.31748864 L437.5587780474864,452.68373195942775" stroke="grey" stroke-width="5" />
<circle cx="437.5587780474864" cy="452.68373195942775" r="2.5" fill="grey" stroke="none" />
<path d="M437.5587780474864,452.68373195942775 A78.343700577713,78.343700577713,0,0,1,476.330232,425.31748864" stroke="grey" stroke-width="5" fill="none" />
<circle cx="380.330232" cy="409.31748864" r="5" fill="black" stroke="none" />
<circle cx="476.330232" cy="425.31748864" r="5" fill="black" stroke="none" />
<path d="M476.330232,425.31748864 L492.60463018504475,476.66623558723535" stroke="grey" stroke-width="5" />
<circle cx="492.60463018504475" cy="476.66623558723535" r="2.5" fill="grey" stroke="none" />
<path d="M492.60463018504475,476.66623558723535 A24.477664438633727,24.477664438633727,0,0,1,524.330232,497.31748864" stroke="grey" stroke-width="5" fill="none" />
<circle cx="476.330232" cy="425.31748864" r="5" fill="black" stroke="none" />
<circle cx="524.330232" cy="497.31748864" r="5" fill="black" stroke="none" />
<path d="M476.330232,609.31748864 L476.86619562890434,606.8421708458333" stroke="grey" stroke-width="5" />
<circle cx="476.86619562890434" cy="606.8421708458333" r="2.5" fill="grey" stroke="none" />
<path d="M476.8661956289043,606.8421708458333 A109.31798742993011,109.31798742993011,0,0,0,500.330232,609.31748864" stroke="grey" stroke-width="5" fill="none" />
<circle cx="476.330232" cy="609.31748864" r="5" fill="black" stroke="none" />
<circle cx="500.330232" cy="609.31748864" r="5" fill="black" stroke="none" />
<path d="M500.330232,609.31748864 A109.31798742993011,109.31798742993011,0,0,0,523.7492415214103,606.7070564812284" stroke="grey" stroke-width="5" fill="none" />
<path d="M523.7492415214103,606.7070564812284 L24.330232000000024,109.31748864000002" stroke="grey" stroke-width="5" />
<circle cx="523.7492415214103" cy="606.7070564812284" r="2.5" fill="grey" stroke="none" />
<circle cx="500.330232" cy="609.31748864" r="5" fill="black" stroke="none" />
<circle cx="524.330232" cy="609.31748864" r="5" fill="black" stroke="none" />
<path d="M524.330232,609.31748864 L512.7322001240741,557.2066942241106" stroke="grey" stroke-width="5" />
<circle cx="512.7322001240741" cy="557.2066942241106" r="2.5" fill="grey" stroke="none" />
<path d="M512.7322001240741,557.2066942241106 A58.60643978310196,58.60643978310196,0,0,0,524.330232,553.31748864" stroke="grey" stroke-width="5" fill="none" />
<circle cx="524.330232" cy="609.31748864" r="5" fill="black" stroke="none" />
<circle cx="524.330232" cy="553.31748864" r="5" fill="black" stroke="none" />
<path d="M524.330232,553.31748864 L518.4940699663877,540.5280708108431" stroke="grey" stroke-width="5" />
<circle cx="518.4940699663877" cy="540.5280708108431" r="2.5" fill="grey" stroke="none" />
<path d="M518.4940699663877,540.5280708108431 A44.54834618221372,44.54834618221372,0,0,0,524.330232,537.31748864" stroke="grey" stroke-width="5" fill="none" />
<circle cx="524.330232" cy="553.31748864" r="5" fill="black" stroke="none" />
<circle cx="524.330232" cy="537.31748864" r="5" fill="black" stroke="none" />
<path d="M524.330232,537.31748864 L517.6669914243517,527.0974708248249" stroke="grey" stroke-width="5" />
<circle cx="517.6669914243517" cy="527.0974708248249" r="2.5" fill="grey" stroke="none" />
<path d="M517.6669914243517,527.0974708248249 A32.348037206148305,32.348037206148305,0,0,0,524.330232,521.31748864" stroke="grey" stroke-width="5" fill="none" />
<circle cx="524.330232" cy="537.31748864" r="5" fill="black" stroke="none" />
<circle cx="524.330232" cy="521.31748864" r="5" fill="black" stroke="none" />
<path d="M524.330232,521.31748864 L518.4106148640424,516.1308808407432" stroke="grey" stroke-width="5" />
<circle cx="518.4106148640424" cy="516.1308808407432" r="2.5" fill="grey" stroke="none" />
<path d="M518.4106148640424,516.1308808407432 A24.477664438633727,24.477664438633727,0,0,0,524.330232,497.31748864" stroke="grey" stroke-width="5" fill="none" />
<circle cx="524.330232" cy="521.31748864" r="5" fill="black" stroke="none" />
<circle cx="524.330232" cy="497.31748864" r="5" fill="black" stroke="none" />
<path d="M524.330232,497.31748864 A24.477664438633727,24.477664438633727,0,0,1,524.4608479361643,499.09282051709727" stroke="grey" stroke-width="5" fill="none" />
<path d="M524.4608479361643,499.09282051709727 L72.33023200000002,-2.682511359999978" stroke="grey" stroke-width="5" />
<circle cx="524.4608479361643" cy="499.09282051709727" r="2.5" fill="grey" stroke="none" />
<circle cx="524.330232" cy="497.31748864" r="5" fill="black" stroke="none" />
<circle cx="572.330232" cy="497.31748864" r="5" fill="black" stroke="none" />
<path d="M572.330232,497.31748864 A72.37995805725751,72.37995805725751,0,0,1,564.3234877617891,533.1865522543291" stroke="grey" stroke-width="5" fill="none" />
<path d="M564.3234877617891,533.1865522543291 L72.33023200000002,37.31748864000002" stroke="grey" stroke-width="5" />
<circle cx="564.3234877617891" cy="533.1865522543291" r="2.5" fill="grey" stroke="none" />
<circle cx="572.330232" cy="497.31748864" r="5" fill="black" stroke="none" />
<circle cx="572.330232" cy="537.31748864" r="5" fill="black" stroke="none" />
<path d="M572.330232,537.31748864 L539.5897576811631,520.4256269014477" stroke="grey" stroke-width="5" />
<circle cx="539.5897576811631" cy="520.4256269014477" r="2.5" fill="grey" stroke="none" />
<path d="M539.5897576811631,520.4256269014477 A44.54834618221372,44.54834618221372,0,0,1,524.330232,537.31748864" stroke="grey" stroke-width="5" fill="none" />
<circle cx="572.330232" cy="537.31748864" r="5" fill="black" stroke="none" />
<circle cx="524.330232" cy="537.31748864" r="5" fill="black" stroke="none" />
<path d="M524.330232,521.31748864 A32.348037206148305,32.348037206148305,0,0,0,531.693213370982,506.4757808264148" stroke="grey" stroke-width="5" fill="none" />
<path d="M531.693213370982,506.4757808264148 L104.33023200000002,21.317488640000022" stroke="grey" stroke-width="5" />
<circle cx="531.693213370982" cy="506.4757808264148" r="2.5" fill="grey" stroke="none" />
<circle cx="524.330232" cy="521.31748864" r="5" fill="black" stroke="none" />
<circle cx="604.330232" cy="521.31748864" r="5" fill="black" stroke="none" />
<circle cx="500" cy="500" r="5" fill="red" stroke="none" />
</svg>