<?xml version="1.0" encoding="UTF-8"?>
<svg xmlns="http://www.w3.org/2000/svg" xmlns:xlink="http://www.w3.org/1999/xlink"
     width="1000" height="1000" viewBox="0 0 1000 1000">
<defs>
</defs>
<rect x="0" y="0" width="1000" height="1000" fill="white" />
<path d="M258.09331199999997,257.27714304 L300.27915812807026,299.60531999176817" stroke="grey" stroke-width="5" />
<circle cx="300.27915812807026" cy="299.60531999176817" r="2.5" fill="grey" stroke="none" />
<path d="M300.27915812807026,299.60531999176817 A282.9247999975152,282.9247999975152,0,0,0,258.09331199999997,353.27714304" stroke="grey" stroke-width="5" fill="none" />
<circle cx="258.09331199999997" cy="257.27714304" r="5" fill="black" stroke="none" />
<circle cx="258.09331199999997" cy="353.27714304" r="5" fill="black" stroke="none" />
<path d="M258.09331199999997,353.27714304 L329.2494153296204,396.43521715931854" stroke="grey" stroke-width="5" />
<circle cx="329.2494153296204" cy="396.43521715931854" r="2.5" fill="grey" stroke="none" />
<path d="M329.2494153296204,396.43521715931854 A199.70334601631987,199.70334601631987,0,0,0,322.09331199999997,409.27714304000006" stroke="grey" stroke-width="5" fill="none" />
<circle cx="258.09331199999997" cy="353.27714304" r="5" fill="black" stroke="none" />
<circle cx="322.09331199999997" cy="409.27714304" r="5" fill="black" stroke="none" />
<path d="M234.09331199999997,409.27714304 L310.99456880846463,435.51454900354827" stroke="grey" stroke-width="5" />
<circle cx="310.99456880846463" cy="435.51454900354827" r="2.5" fill="grey" stroke="none" />
<path d="M310.9945688084646,435.5145490035484 A199.70334601631987,199.70334601631987,0,0,1,322.09331199999997,409.27714304000006" stroke="grey" stroke-width="5" fill="none" />
<circle cx="234.09331199999997" cy="409.27714304" r="5" fill="black" stroke="none" />
<circle cx="322.09331199999997" cy="409.27714304" r="5" fill="black" stroke="none" />
<path d="M322.09331199999997,409.27714304 L392.11972342161965,444.9868523165041" stroke="grey" stroke-width="5" />
<circle cx="392.11972342161965" cy="444.9868523165041" r="2.5" fill="grey" stroke="none" />
<path d="M392.11972342161965,444.9868523165041 A121.09748342832717,121.09748342832717,0,0,1,394.09331199999997,441.27714304" stroke="grey" stroke-width="5" fill="none" />
<circle cx="322.09331199999997" cy="409.27714304" r="5" fill="black" stroke="none" />
<circle cx="394.09331199999997" cy="441.27714304" r="5" fill="black" stroke="none" />
<path d="M394.09331199999997,441.27714304 L412.94549699100594,451.73025212608815" stroke="grey" stroke-width="5" />
<circle cx="412.94549699100594" cy="451.73025212608815" r="2.5" fill="grey" stroke="none" />
<path d="M412.94549699100594,451.73025212608815 A99.54122288757543,99.54122288757543,0,0,0,410.09331199999997,457.27714304" stroke="grey" stroke-width="5" fill="none" />
<circle cx="394.09331199999997" cy="441.27714304" r="5" fill="black" stroke="none" />
<circle cx="410.09331199999997" cy="457.27714304" r="5" fill="black" stroke="none" />
<path d="M410.09331199999997,457.27714304 L446.80891472279677,474.7240702733359" stroke="grey" stroke-width="5" />
<circle cx="446.80891472279677" cy="474.7240702733359" r="2.5" fill="grey" stroke="none" />
<path d="M446.80891472279677,474.7240702733359 A58.89112137252923,58.89112137252923,0,0,0,442.09331199999997,489.27714304" stroke="grey" stroke-width="5" fill="none" />
<circle cx="410.09331199999997" cy="457.27714304" r="5" fill="black" stroke="none" />
<circle cx="442.09331199999997" cy="489.27714304" r="5" fill="black" stroke="none" />
<path d="M410.09331199999997,457.27714304 A99.54122288757543,99.54122288757543,0,0,0,409.03447819468477,540.4194123737678" stroke="grey" stroke-width="5" fill="none" />
<path d="M409.03447819468477,540.4194123737678 L-137.90668800000003,61.27714304" stroke="grey" stroke-width="5" />
<circle cx="409.03447819468477" cy="540.4194123737678" r="2.5" fill="grey" stroke="none" />
<circle cx="410.09331199999997" cy="457.27714304" r="5" fill="black" stroke="none" />
<circle cx="362.09331199999997" cy="561.27714304" r="5" fill="black" stroke="none" />
<path d="M362.09331199999997,561.27714304 A150.90772960413253,150.90772960413253,0,0,0,394.58803648576884,607.9882438154652" stroke="grey" stroke-width="5" fill="none" />
<path d="M394.58803648576884,607.9882438154652 L-137.90668800000003,141.27714304" stroke="grey" stroke-width="5" />
<circle cx="394.58803648576884" cy="607.9882438154652" r="2.5" fill="grey" stroke="none" />
<circle cx="362.09331199999997" cy="561.27714304" r="5" fill="black" stroke="none" />
<circle cx="362.09331199999997" cy="641.27714304" r="5" fill="black" stroke="none" />
<path d="M258.09331199999997,657.27714304 L334.48027125897784,607.6136847160825" stroke="grey" stroke-width="5" />
<circle cx="334.48027125897784" cy="607.6136847160825" r="2.5" fill="grey" stroke="none" />
<path d="M334.48027125897784,607.6136847160825 A197.42716566033656,197.42716566033656,0,0,0,362.09331199999997,641.27714304" stroke="grey" stroke-width="5" fill="none" />
<circle cx="258.09331199999997" cy="657.27714304" r="5" fill="black" stroke="none" />
<circle cx="362.09331199999997" cy="641.27714304" r="5" fill="black" stroke="none" />
<path d="M362.09331199999997,641.27714304 A197.42716566033656,197.42716566033656,0,0,0,407.8437235981727,674.5987011991326" stroke="grey" stroke-width="5" fill="none" />
<path d="M407.8437235981727,674.5987011991326 L-137.90668800000003,261.27714304" stroke="grey" stroke-width="5" />
<circle cx="407.8437235981727" cy="674.5987011991326" r="2.5" fill="grey" stroke="none" />
<circle cx="362.09331199999997" cy="641.27714304" r="5" fill="black" stroke="none" />
<circle cx="362.09331199999997" cy="761.27714304" r="5" fill="black" stroke="none" />
<path d="M362.09331199999997,561.27714304 L422.9540568264809,534.2344185692824" stroke="grey" stroke-width="5" />
<circle cx="422.9540568264809" cy="534.2344185692824" r="2.5" fill="grey" stroke="none" />
<path d="M422.9540568264809,534.2344185692824 A84.30938722511253,84.30938722511253,0,0,0,442.093312,561.27714304" stroke="grey" stroke-width="5" fill="none" />
<circle cx="362.09331199999997" cy="561.27714304" r="5" fill="black" stroke="none" />
<circle cx="442.09331199999997" cy="561.27714304" r="5" fill="black" stroke="none" />
<path d="M442.09331199999997,489.27714304 A58.89112137252923,58.89112137252923,0,0,0,459.55148170886696,542.8028216892981" stroke="grey" stroke-width="5" fill="none" />
<path d="M459.55148170886696,542.8028216892981 L-57.90668800000003,61.27714304" stroke="grey" stroke-width="5" />
<circle cx="459.55148170886696" cy="542.8028216892981" r="2.5" fill="grey" stroke="none" />
<circle cx="442.09331199999997" cy="489.27714304" r="5" fill="black" stroke="none" />
<circle cx="442.09331199999997" cy="561.27714304" r="5" fill="black" stroke="none" />
<path d="M442.09331199999997,561.27714304 L456.8138789595967,545.6997664300114" stroke="grey" stroke-width="5" />
<circle cx="456.8138789595967" cy="545.6997664300114" r="2.5" fill="grey" stroke="none" />
<path d="M456.8138789595967,545.6997664300114 A62.87694094239926,62.87694094239926,0,0,0,514.093312,561.27714304" stroke="grey" stroke-width="5" fill="none" />
<circle cx="442.09331199999997" cy="561.27714304" r="5" fill="black" stroke="none" />
<circle cx="514.093312" cy="561.27714304" r="5" fill="black" stroke="none" />
<path d="M442.09331199999997,489.27714304 L479.4771646164461,496.1996889162185" stroke="grey" stroke-width="5" />
<circle cx="479.4771646164461" cy="496.1996889162185" r="2.5" fill="grey" stroke="none" />
<path d="M479.4771646164461,496.1996889162185 A20.871730558675903,20.871730558675903,0,0,1,482.09331199999997,489.27714304" stroke="grey" stroke-width="5" fill="none" />
<circle cx="442.09331199999997" cy="489.27714304" r="5" fill="black" stroke="none" />
<circle cx="482.09331199999997" cy="489.27714304" r="5" fill="black" stroke="none" />
<path d="M514.093312,561.27714304 A62.87694094239926,62.87694094239926,0,0,0,561.5543665528063,512.8284707021812" stroke="grey" stroke-width="5" fill="none" />
<path d="M561.5543665528063,512.8284707021812 L102.09331199999997,21.27714304" stroke="grey" stroke-width="5" />
<circle cx="561.5543665528063" cy="512.8284707021812" r="2.5" fill="grey" stroke="none" />
<circle cx="514.093312" cy="561.27714304" r="5" fill="black" stroke="none" />
<circle cx="602.093312" cy="521.27714304" r="5" fill="black" stroke="none" />
<path d="M482.09331199999997,489.27714304 A20.871730558675903,20.871730558675903,0,0,1,520.7966689859273,498.23147077950836" stroke="grey" stroke-width="5" fill="none" />
<path d="M520.7966689859273,498.23147077950836 L126.09331199999997,-10.722856960000001" stroke="grey" stroke-width="5" />
<circle cx="520.7966689859273" cy="498.23147077950836" r="2.5" fill="grey" stroke="none" />
<circle cx="482.09331199999997" cy="489.27714304" r="5" fill="black" stroke="none" />
<circle cx="626.093312" cy="489.27714304" r="5" fill="black" stroke="none" />
<path d="M602.093312,521.2771430399999 A104.28691754517418,104.28691754517418,0,0,0,603.9118676648573,491.16343225708346" stroke="grey" stroke-width="5" fill="none" />
<path d="M603.9118676648573,491.16343225708346 L126.09331199999997,-10.722856960000001" stroke="grey" stroke-width="5" />
<circle cx="603.9118676648573" cy="491.16343225708346" r="2.5" fill="grey" stroke="none" />
<circle cx="602.093312" cy="521.27714304" r="5" fill="black" stroke="none" />
<circle cx="626.093312" cy="489.27714304" r="5" fill="black" stroke="none" />
<path d="M362.09331199999997,641.27714304 L400.5256488801531,601.9055155031335" stroke="grey" stroke-width="5" />
<circle cx="400.5256488801531" cy="601.9055155031335" r="2.5" fill="grey" stroke="none" />
<path d="M400.5256488801531,601.9055155031335 A142.4074458048945,142.4074458048945,0,0,0,482.09331199999997,641.27714304" stroke="grey" stroke-width="5" fill="none" />
<circle cx="362.09331199999997" cy="641.27714304" r="5" fill="black" stroke="none" />
<circle cx="482.09331199999997" cy="641.27714304" r="5" fill="black" stroke="none" />
<path d="M482.09331199999997,641.27714304 L488.64927318671994,589.5530349111868" stroke="grey" stroke-width="5" />
<circle cx="488.64927318671994" cy="589.5530349111868" r="2.5" fill="grey" stroke="none" />
<path d="M488.64927318671994,589.5530349111868 A90.26951346381546,90.26951346381546,0,0,0,578.093312,545.27714304" stroke="grey" stroke-width="5" fill="none" />
<circle cx="482.09331199999997" cy="641.27714304" r="5" fill="black" stroke="none" />
<circle cx="578.093312" cy="545.27714304" r="5" fill="black" stroke="none" />
<path d="M578.093312,545.27714304 A90.26951346381546,90.26951346381546,0,0,0,588.3707546361933,518.4172415421984" stroke="grey" stroke-width="5" fill="none" />
<path d="M588.3707546361933,518.4172415421984 L102.09331199999997,21.27714304" stroke="grey" stroke-width="5" />
<circle cx="588.3707546361933" cy="518.4172415421984" r="2.5" fill="grey" stroke="none" />
<circle cx="578.093312" cy="545.27714304" r="5" fill="black" stroke="none" />
<circle cx="602.093312" cy="521.27714304" r="5" fill="black" stroke="none" />
<path d="M602.093312,521.2771430399999 A104.28691754517418,104.28691754517418,0,0,1,595.332404696819,542.2787628224369" stroke="grey" stroke-width="5" fill="none" />
<path d="M595.332404696819,542.2787628224369 L102.09331199999997,45.27714304" stroke="grey" stroke-width="5" />
<circle cx="595.332404696819" cy="542.2787628224369" r="2.5" fill="grey" stroke="none" />
<circle cx="602.093312" cy="521.27714304" r="5" fill="black" stroke="none" />
<circle cx="602.093312" cy="545.27714304" r="5" fill="black" stroke="none" />
<path d="M602.093312,545.27714304 A111.68287262151685,111.68287262151685,0,0,1,546.7885483241239,601.4095448304304" stroke="grey" stroke-width="5" fill="none" />
<path d="M546.7885483241239,601.4095448304304 L102.09331199999997,221.27714304" stroke="grey" stroke-width="5" />
<circle cx="546.7885483241239" cy="601.4095448304304" r="2.5" fill="grey" stroke="none" />
<circle cx="602.093312" cy="545.27714304" r="5" fill="black" stroke="none" />
<circle cx="602.093312" cy="721.27714304" r="5" fill="black" stroke="none" />
<path d="M602.093312,721.27714304 A243.69369788132389,243.69369788132389,0,0,0,662.5431439269137,681.5663645872455" stroke="grey" stroke-width="5" fill="none" />
<path d="M662.5431439269137,681.5663645872455 L198.09331199999997,221.27714304" stroke="grey" stroke-width="5" />
<circle cx="662.5431439269137" cy="681.5663645872455" r="2.5" fill="grey" stroke="none" />
<circle cx="602.093312" cy="721.27714304" r="5" fill="black" stroke="none" />
<circle cx="698.093312" cy="721.27714304" r="5" fill="black" stroke="none" />
<path d="M602.093312,721.27714304 A243.69369788132389,243.69369788132389,0,0,1,586.3927535740476,727.8659924538276" stroke="grey" stroke-width="5" fill="none" />
<path d="M586.3927535740476,727.8659924538276 L102.09331199999997,269.27714304" stroke="grey" stroke-width="5" />
<circle cx="586.3927535740476" cy="727.8659924538276" r="2.5" fill="grey" stroke="none" />
<circle cx="602.093312" cy="721.27714304" r="5" fill="black" stroke="none" />
<circle cx="602.093312" cy="769.27714304" r="5" fill="black" stroke="none" />
<path d="M290.09331199999997,345.27714304 L374.6236569560547,407.584716924521" stroke="grey" stroke-width="5" />
<circle cx="374.6236569560547" cy="407.584716924521" r="2.5" fill="grey" stroke="none" />
<path d="M374.6236569560547,407.584716924521 A155.755616081713,155.755616081713,0,0,1,482.09331199999997,345.27714304" stroke="grey" stroke-width="5" fill="none" />
<circle cx="290.09331199999997" cy="345.27714304" r="5" fill="black" stroke="none" />
<circle cx="482.09331199999997" cy="345.27714304" r="5" fill="black" stroke="none" />
<path d="M482.09331199999997,345.27714304 L497.600448853554,479.26666233310334" stroke="grey" stroke-width="5" />
<circle cx="497.600448853554" cy="479.26666233310334" r="2.5" fill="grey" stroke="none" />
<path d="M497.600448853554,479.26666233310334 A20.871730558675903,20.871730558675903,0,0,0,482.09331199999997,489.27714304" stroke="grey" stroke-width="5" fill="none" />
<circle cx="482.09331199999997" cy="345.27714304" r="5" fill="black" stroke="none" />
<circle cx="482.09331199999997" cy="489.27714304" r="5" fill="black" stroke="none" />
<path d="M482.09331199999997,345.27714304 A155.755616081713,155.755616081713,0,0,1,488.15204284910783,344.6956605488932" stroke="grey" stroke-width="5" fill="none" />
<path d="M488.15204284910783,344.6956605488932 L-17.90668800000003,-234.72285696" stroke="grey" stroke-width="5" />
<circle cx="488.15204284910783" cy="344.6956605488932" r="2.5" fill="grey" stroke="none" />
<circle cx="482.09331199999997" cy="345.27714304" r="5" fill="black" stroke="none" />
<circle cx="482.09331199999997" cy="265.27714304" r="5" fill="black" stroke="none" />
<path d="M482.09331199999997,265.27714304 A235.40490448288023,235.40490448288023,0,0,1,485.527973621585,265.0403662177343" stroke="grey" stroke-width="5" fill="none" />
<path d="M485.527973621585,265.0403662177343 L-17.90668800000003,-290.72285696" stroke="grey" stroke-width="5" />
<circle cx="485.527973621585" cy="265.0403662177343" r="2.5" fill="grey" stroke="none" />
<circle cx="482.09331199999997" cy="265.27714304" r="5" fill="black" stroke="none" />
<circle cx="482.09331199999997" cy="209.27714304" r="5" fill="black" stroke="none" />
<path d="M482.09331199999997,265.27714304 L487.89052503576573,341.26765597911515" stroke="grey" stroke-width="5" />
<circle cx="487.89052503576573" cy="341.26765597911515" r="2.5" fill="grey" stroke="none" />
<path d="M487.89052503576573,341.26765597911515 A159.19358159886332,159.19358159886332,0,0,1,578.093312,361.27714304000006" stroke="grey" stroke-width="5" fill="none" />
<circle cx="482.09331199999997" cy="265.27714304" r="5" fill="black" stroke="none" />
<circle cx="578.093312" cy="361.27714304" r="5" fill="black" stroke="none" />
<path d="M482.09331199999997,345.27714304 A155.755616081713,155.755616081713,0,0,1,576.4067985672374,364.273020096594" stroke="grey" stroke-width="5" fill="none" />
<path d="M576.4067985672374,364.273020096594 L78.09331199999997,-138.72285696" stroke="grey" stroke-width="5" />
<circle cx="576.4067985672374" cy="364.273020096594" r="2.5" fill="grey" stroke="none" />
<circle cx="482.09331199999997" cy="345.27714304" r="5" fill="black" stroke="none" />
<circle cx="578.093312" cy="361.27714304" r="5" fill="black" stroke="none" />
<path d="M578.093312,361.27714304 L569.9819605753305,375.6859293319262" stroke="grey" stroke-width="5" />
<circle cx="569.9819605753305" cy="375.6859293319262" r="2.5" fill="grey" stroke="none" />
<path d="M569.9819605753305,375.6859293319262 A142.6585537990413,142.6585537990413,0,0,1,626.093312,433.27714304" stroke="grey" stroke-width="5" fill="none" />
<circle cx="578.093312" cy="361.27714304" r="5" fill="black" stroke="none" />
<circle cx="626.093312" cy="433.27714304" r="5" fill="black" stroke="none" />
<path d="M578.093312,545.27714304 A90.26951346381546,90.26951346381546,0,0,0,582.5185938168103,536.595993434941" stroke="grey" stroke-width="5" fill="none" />
<path d="M582.5185938168103,536.595993434941 L102.09331199999997,45.27714304" stroke="grey" stroke-width="5" />
<circle cx="582.5185938168103" cy="536.595993434941" r="2.5" fill="grey" stroke="none" />
<circle cx="578.093312" cy="545.27714304" r="5" fill="black" stroke="none" />
<circle cx="602.093312" cy="545.27714304" r="5" fill="black" stroke="none" />
<path d="M602.093312,545.27714304 A111.68287262151685,111.68287262151685,0,0,0,605.1119105687,537.7432151994446" stroke="grey" stroke-width="5" fill="none" />
<path d="M605.1119105687,537.7432151994446 L126.09331199999997,45.27714304" stroke="grey" stroke-width="5" />
<circle cx="605.1119105687" cy="537.7432151994446" r="2.5" fill="grey" stroke="none" />
<circle cx="602.093312" cy="545.27714304" r="5" fill="black" stroke="none" />
<circle cx="626.093312" cy="545.27714304" r="5" fill="black" stroke="none" />
<path d="M626.093312,545.27714304 L619.1028315673218,542.7670259096902" stroke="grey" stroke-width="5" />
<circle cx="619.1028315673218" cy="542.7670259096902" r="2.5" fill="grey" stroke="none" />
<path d="M619.1028315673218,542.7670259096902 A126.5484215330794,126.5484215330794,0,0,0,626.093312,489.27714304" stroke="grey" stroke-width="5" fill="none" />
<circle cx="626.093312" cy="545.27714304" r="5" fill="black" stroke="none" />
<circle cx="626.093312" cy="489.27714304" r="5" fill="black" stroke="none" />
<path d="M626.093312,489.27714304 A126.5484215330794,126.5484215330794,0,0,0,623.7988070835199,473.76341567178804" stroke="grey" stroke-width="5" fill="none" />
<path d="M623.7988070835199,473.76341567178804 L126.09331199999997,-26.72285696" stroke="grey" stroke-width="5" />
<circle cx="623.7988070835199" cy="473.76341567178804" r="2.5" fill="grey" stroke="none" />
<circle cx="626.093312" cy="489.27714304" r="5" fill="black" stroke="none" />
<circle cx="626.093312" cy="473.27714304" r="5" fill="black" stroke="none" />
<path d="M626.093312,473.27714304 A128.89388819968912,128.89388819968912,0,0,0,622.0770774746013,458.6379211052666" stroke="grey" stroke-width="5" fill="none" />
<path d="M622.0770774746013,458.6379211052666 L126.09331199999997,-42.72285696" stroke="grey" stroke-width="5" />
<circle cx="622.0770774746013" cy="458.6379211052666" r="2.5" fill="grey" stroke="none" />
<circle cx="626.093312" cy="473.27714304" r="5" fill="black" stroke="none" />
<circle cx="626.093312" cy="457.27714304" r="5" fill="black" stroke="none" />
<path d="M626.093312,457.27714304 A133.13439014001588,133.13439014001588,0,0,0,617.6750762348438,437.73169127816567" stroke="grey" stroke-width="5" fill="none" />
<path d="M617.6750762348438,437.73169127816567 L126.09331199999997,-66.72285696" stroke="grey" stroke-width="5" />
<circle cx="617.6750762348438" cy="437.73169127816567" r="2.5" fill="grey" stroke="none" />
<circle cx="626.093312" cy="457.27714304" r="5" fill="black" stroke="none" />
<circle cx="626.093312" cy="433.27714304" r="5" fill="black" stroke="none" />
<path d="M626.093312,433.27714304 A142.6585537990413,142.6585537990413,0,0,1,633.2101726401847,448.94598079282935" stroke="grey" stroke-width="5" fill="none" />
<path d="M633.2101726401847,448.94598079282935 L174.09331199999997,-66.72285696" stroke="grey" stroke-width="5" />
<circle cx="633.2101726401847" cy="448.94598079282935" r="2.5" fill="grey" stroke="none" />
<circle cx="626.093312" cy="433.27714304" r="5" fill="black" stroke="none" />
<circle cx="674.093312" cy="433.27714304" r="5" fill="black" stroke="none" />
<path d="M674.093312,433.27714304 L664.4669419132331,436.9665375777027" stroke="grey" stroke-width="5" />
<circle cx="664.4669419132331" cy="436.9665375777027" r="2.5" fill="grey" stroke="none" />
<path d="M664.4669419132331,436.96653757770264 A176.13231494315278,176.13231494315278,0,0,1,674.093312,473.27714304" stroke="grey" stroke-width="5" fill="none" />
<circle cx="674.093312" cy="433.27714304" r="5" fill="black" stroke="none" />
<circle cx="674.093312" cy="473.27714304" r="5" fill="black" stroke="none" />
<path d="M674.093312,473.27714304 L627.4017428345504,480.44417381052295" stroke="grey" stroke-width="5" />
<circle cx="627.4017428345504" cy="480.44417381052295" r="2.5" fill="grey" stroke="none" />
<path d="M627.4017428345504,480.44417381052295 A128.89388819968912,128.89388819968912,0,0,0,626.093312,473.27714304" stroke="grey" stroke-width="5" fill="none" />
<circle cx="674.093312" cy="473.27714304" r="5" fill="black" stroke="none" />
<circle cx="626.093312" cy="473.27714304" r="5" fill="black" stroke="none" />
<path d="M626.093312,457.27714304 A133.13439014001588,133.13439014001588,0,0,1,630.3628300486978,472.9759666287895" stroke="grey" stroke-width="5" fill="none" />
<path d="M630.3628300486978,472.9759666287895 L206.09331199999997,-42.72285696" stroke="grey" stroke-width="5" />
<circle cx="630.3628300486978" cy="472.9759666287895" r="2.5" fill="grey" stroke="none" />
<circle cx="626.093312" cy="457.27714304" r="5" fill="black" stroke="none" />
<circle cx="706.093312" cy="457.27714304" r="5" fill="black" stroke="none" />
<circle cx="500" cy="500" r="5" fill="red" stroke="none" />
</svg>