<?xml version="1.0" encoding="UTF-8"?>
<svg xmlns="http://www.w3.org/2000/svg" xmlns:xlink="http://www.w3.org/1999/xlink"
     width="1000" height="1000" viewBox="0 0 1000 1000">
<defs>
</defs>
<rect x="0" y="0" width="1000" height="1000" fill="white" />
<path d="M415.9561195,301.4011054400001 L448.3121419420574,377.8596203386684" stroke="grey" stroke-width="5" />
<circle cx="448.3121419420574" cy="377.8596203386684" r="2.5" fill="grey" stroke="none" />
<path d="M448.3121419420574,377.8596203386684 A132.62694678847225,132.62694678847225,0,0,0,415.95611950000006,397.4011054400001" stroke="grey" stroke-width="5" fill="none" />
<circle cx="415.9561195" cy="301.4011054400001" r="5" fill="black" stroke="none" />
<circle cx="415.9561195" cy="397.4011054400001" r="5" fill="black" stroke="none" />
<path d="M415.9561195,397.4011054400001 L467.85508456030846,460.7582042830944" stroke="grey" stroke-width="5" />
<circle cx="467.85508456030846" cy="460.7582042830944" r="2.5" fill="grey" stroke="none" />
<path d="M467.85508456030846,460.7582042830944 A50.72685797200796,50.72685797200796,0,0,1,479.95611950000006,453.4011054400001" stroke="grey" stroke-width="5" fill="none" />
<circle cx="415.9561195" cy="397.4011054400001" r="5" fill="black" stroke="none" />
<circle cx="479.9561195" cy="453.4011054400001" r="5" fill="black" stroke="none" />
<path d="M391.9561195,453.4011054400001 L453.4207336911209,479.9105482942219" stroke="grey" stroke-width="5" />
<circle cx="453.4207336911209" cy="479.9105482942219" r="2.5" fill="grey" stroke="none" />
<path d="M453.4207336911209,479.9105482942219 A50.72685797200796,50.72685797200796,0,0,1,479.95611950000006,453.4011054400001" stroke="grey" stroke-width="5" fill="none" />
<circle cx="391.9561195" cy="453.4011054400001" r="5" fill="black" stroke="none" />
<circle cx="479.9561195" cy="453.4011054400001" r="5" fill="black" stroke="none" />
<path d="M479.95611950000006,453.4011054400001 A50.72685797200796,50.72685797200796,0,0,1,548.8356279601569,486.2779170149204" stroke="grey" stroke-width="5" fill="none" />
<path d="M548.8356279601569,486.2779170149204 L51.95611950000003,-14.598894559999906" stroke="grey" stroke-width="5" />
<circle cx="548.8356279601569" cy="486.2779170149204" r="2.5" fill="grey" stroke="none" />
<circle cx="479.9561195" cy="453.4011054400001" r="5" fill="black" stroke="none" />
<circle cx="551.9561195" cy="485.4011054400001" r="5" fill="black" stroke="none" />
<path d="M551.9561195,485.4011054400001 A53.968195039970325,53.968195039970325,0,0,1,553.9567279304954,501.11246883406903" stroke="grey" stroke-width="5" fill="none" />
<path d="M553.9567279304954,501.11246883406903 L67.95611950000003,1.4011054400000944" stroke="grey" stroke-width="5" />
<circle cx="553.9567279304954" cy="501.11246883406903" r="2.5" fill="grey" stroke="none" />
<circle cx="551.9561195" cy="485.4011054400001" r="5" fill="black" stroke="none" />
<circle cx="567.9561195" cy="501.4011054400001" r="5" fill="black" stroke="none" />
<path d="M567.9561195,501.4011054400001 A67.97056181871886,67.97056181871886,0,0,1,564.4665760900043,521.5420017914763" stroke="grey" stroke-width="5" fill="none" />
<path d="M564.4665760900043,521.5420017914763 L99.95611950000003,33.401105440000094" stroke="grey" stroke-width="5" />
<circle cx="564.4665760900043" cy="521.5420017914763" r="2.5" fill="grey" stroke="none" />
<circle cx="567.9561195" cy="501.4011054400001" r="5" fill="black" stroke="none" />
<circle cx="599.9561195" cy="533.40110544" r="5" fill="black" stroke="none" />
<path d="M567.9561195,501.4011054400001 A67.97056181871886,67.97056181871886,0,0,1,512.6445630700229,566.7840721933044" stroke="grey" stroke-width="5" fill="none" />
<path d="M512.6445630700229,566.7840721933044 L19.956119500000028,105.4011054400001" stroke="grey" stroke-width="5" />
<circle cx="512.6445630700229" cy="566.7840721933044" r="2.5" fill="grey" stroke="none" />
<circle cx="567.9561195" cy="501.4011054400001" r="5" fill="black" stroke="none" />
<circle cx="519.9561195" cy="605.40110544" r="5" fill="black" stroke="none" />
<path d="M519.9561195,605.40110544 A107.27366747469902,107.27366747469902,0,0,1,511.4803607246266,606.657587874022" stroke="grey" stroke-width="5" fill="none" />
<path d="M511.4803607246266,606.657587874022 L19.956119500000028,185.4011054400001" stroke="grey" stroke-width="5" />
<circle cx="511.4803607246266" cy="606.657587874022" r="2.5" fill="grey" stroke="none" />
<circle cx="519.9561195" cy="605.40110544" r="5" fill="black" stroke="none" />
<circle cx="519.9561195" cy="685.40110544" r="5" fill="black" stroke="none" />
<path d="M415.9561195,701.40110544 L428.1877159538086,672.0895478056161" stroke="grey" stroke-width="5" />
<circle cx="428.1877159538086" cy="672.0895478056161" r="2.5" fill="grey" stroke="none" />
<path d="M428.18771595380855,672.0895478056161 A186.4720263306867,186.4720263306867,0,0,0,519.9561195,685.40110544" stroke="grey" stroke-width="5" fill="none" />
<circle cx="415.9561195" cy="701.40110544" r="5" fill="black" stroke="none" />
<circle cx="519.9561195" cy="685.40110544" r="5" fill="black" stroke="none" />
<path d="M519.9561195,685.40110544 A186.4720263306867,186.4720263306867,0,0,1,512.1588912062015,686.0751943933099" stroke="grey" stroke-width="5" fill="none" />
<path d="M512.1588912062015,686.0751943933099 L19.956119500000028,305.4011054400001" stroke="grey" stroke-width="5" />
<circle cx="512.1588912062015" cy="686.0751943933099" r="2.5" fill="grey" stroke="none" />
<circle cx="519.9561195" cy="685.40110544" r="5" fill="black" stroke="none" />
<circle cx="519.9561195" cy="805.40110544" r="5" fill="black" stroke="none" />
<path d="M519.9561195,605.40110544 A107.27366747469902,107.27366747469902,0,0,0,573.8167499252877,577.8378260483928" stroke="grey" stroke-width="5" fill="none" />
<path d="M573.8167499252877,577.8378260483928 L99.95611950000003,105.4011054400001" stroke="grey" stroke-width="5" />
<circle cx="573.8167499252877" cy="577.8378260483928" r="2.5" fill="grey" stroke="none" />
<circle cx="519.9561195" cy="605.40110544" r="5" fill="black" stroke="none" />
<circle cx="599.9561195" cy="605.40110544" r="5" fill="black" stroke="none" />
<path d="M599.9561195,533.4011054400002 A105.38908705417411,105.38908705417411,0,0,1,572.5199395813252,576.4703735654092" stroke="grey" stroke-width="5" fill="none" />
<path d="M572.5199395813252,576.4703735654092 L99.95611950000003,105.4011054400001" stroke="grey" stroke-width="5" />
<circle cx="572.5199395813252" cy="576.4703735654092" r="2.5" fill="grey" stroke="none" />
<circle cx="599.9561195" cy="533.40110544" r="5" fill="black" stroke="none" />
<circle cx="599.9561195" cy="605.40110544" r="5" fill="black" stroke="none" />
<path d="M599.9561195,605.40110544 A145.26052062922088,145.26052062922088,0,0,0,623.8465276443329,575.9121626876339" stroke="grey" stroke-width="5" fill="none" />
<path d="M623.8465276443329,575.9121626876339 L171.95611950000003,105.4011054400001" stroke="grey" stroke-width="5" />
<circle cx="623.8465276443329" cy="575.9121626876339" r="2.5" fill="grey" stroke="none" />
<circle cx="599.9561195" cy="605.40110544" r="5" fill="black" stroke="none" />
<circle cx="671.9561195" cy="605.40110544" r="5" fill="black" stroke="none" />
<path d="M599.9561195,533.4011054400002 A105.38908705417411,105.38908705417411,0,0,0,602.5102354187444,524.4644906856017" stroke="grey" stroke-width="5" fill="none" />
<path d="M602.5102354187444,524.4644906856017 L139.95611950000003,33.401105440000094" stroke="grey" stroke-width="5" />
<circle cx="602.5102354187444" cy="524.4644906856017" r="2.5" fill="grey" stroke="none" />
<circle cx="599.9561195" cy="533.40110544" r="5" fill="black" stroke="none" />
<circle cx="639.9561195" cy="533.40110544" r="5" fill="black" stroke="none" />
<path d="M671.9561195,605.4011054400002 A201.68862154685948,201.68862154685948,0,0,0,695.5935330892567,549.2084329676749" stroke="grey" stroke-width="5" fill="none" />
<path d="M695.5935330892567,549.2084329676749 L259.9561195,65.4011054400001" stroke="grey" stroke-width="5" />
<circle cx="695.5935330892567" cy="549.2084329676749" r="2.5" fill="grey" stroke="none" />
<circle cx="671.9561195" cy="605.40110544" r="5" fill="black" stroke="none" />
<circle cx="759.9561195" cy="565.40110544" r="5" fill="black" stroke="none" />
<path d="M639.9561195,533.40110544 A143.8865846078511,143.8865846078511,0,0,0,642.9013694353569,516.809159515334" stroke="grey" stroke-width="5" fill="none" />
<path d="M642.9013694353569,516.809159515334 L283.9561195,33.401105440000094" stroke="grey" stroke-width="5" />
<circle cx="642.9013694353569" cy="516.809159515334" r="2.5" fill="grey" stroke="none" />
<circle cx="639.9561195" cy="533.40110544" r="5" fill="black" stroke="none" />
<circle cx="783.9561195" cy="533.40110544" r="5" fill="black" stroke="none" />
<path d="M759.9561195,565.40110544 A268.05687578995673,268.05687578995673,0,0,0,766.221446157379,531.3150165918221" stroke="grey" stroke-width="5" fill="none" />
<path d="M766.221446157379,531.3150165918221 L283.9561195,33.401105440000094" stroke="grey" stroke-width="5" />
<circle cx="766.221446157379" cy="531.3150165918221" r="2.5" fill="grey" stroke="none" />
<circle cx="759.9561195" cy="565.40110544" r="5" fill="black" stroke="none" />
<circle cx="783.9561195" cy="533.40110544" r="5" fill="black" stroke="none" />
<path d="M519.9561195,685.40110544 A186.4720263306867,186.4720263306867,0,0,0,612.3477657240945,648.828075781004" stroke="grey" stroke-width="5" fill="none" />
<path d="M612.3477657240945,648.828075781004 L139.95611950000003,185.4011054400001" stroke="grey" stroke-width="5" />
<circle cx="612.3477657240945" cy="648.828075781004" r="2.5" fill="grey" stroke="none" />
<circle cx="519.9561195" cy="685.40110544" r="5" fill="black" stroke="none" />
<circle cx="639.9561195" cy="685.40110544" r="5" fill="black" stroke="none" />
<path d="M639.9561195000001,685.40110544 A232.29568503067878,232.29568503067878,0,0,0,717.2262487990869,582.304569232513" stroke="grey" stroke-width="5" fill="none" />
<path d="M717.2262487990869,582.304569232513 L235.95611950000003,89.4011054400001" stroke="grey" stroke-width="5" />
<circle cx="717.2262487990869" cy="582.304569232513" r="2.5" fill="grey" stroke="none" />
<circle cx="639.9561195" cy="685.40110544" r="5" fill="black" stroke="none" />
<circle cx="735.9561195" cy="589.40110544" r="5" fill="black" stroke="none" />
<path d="M735.9561195,589.40110544 A252.3248857790137,252.3248857790137,0,0,0,744.6995547757955,561.5627799560721" stroke="grey" stroke-width="5" fill="none" />
<path d="M744.6995547757955,561.5627799560721 L259.9561195,65.4011054400001" stroke="grey" stroke-width="5" />
<circle cx="744.6995547757955" cy="561.5627799560721" r="2.5" fill="grey" stroke="none" />
<circle cx="735.9561195" cy="589.40110544" r="5" fill="black" stroke="none" />
<circle cx="759.9561195" cy="565.40110544" r="5" fill="black" stroke="none" />
<path d="M759.9561195,565.40110544 A268.05687578995673,268.05687578995673,0,0,1,753.4854453496196,587.1757859395448" stroke="grey" stroke-width="5" fill="none" />
<path d="M753.4854453496196,587.1757859395448 L259.9561195,89.4011054400001" stroke="grey" stroke-width="5" />
<circle cx="753.4854453496196" cy="587.1757859395448" r="2.5" fill="grey" stroke="none" />
<circle cx="759.9561195" cy="565.40110544" r="5" fill="black" stroke="none" />
<circle cx="759.9561195" cy="589.40110544" r="5" fill="black" stroke="none" />
<path d="M759.9561195,589.40110544 A274.89951203920367,274.89951203920367,0,0,1,692.3583212741081,696.3874180185668" stroke="grey" stroke-width="5" fill="none" />
<path d="M692.3583212741082,696.3874180185668 L259.9561195,265.4011054400001" stroke="grey" stroke-width="5" />
<circle cx="692.3583212741082" cy="696.3874180185668" r="2.5" fill="grey" stroke="none" />
<circle cx="759.9561195" cy="589.40110544" r="5" fill="black" stroke="none" />
<circle cx="759.9561195" cy="765.40110544" r="5" fill="black" stroke="none" />
<path d="M759.9561194999999,765.40110544 A371.50360810397564,371.50360810397564,0,0,0,797.8306322846261,722.0627057999882" stroke="grey" stroke-width="5" fill="none" />
<path d="M797.8306322846261,722.0627057999882 L355.9561195,265.4011054400001" stroke="grey" stroke-width="5" />
<circle cx="797.8306322846261" cy="722.0627057999882" r="2.5" fill="grey" stroke="none" />
<circle cx="759.9561195" cy="765.40110544" r="5" fill="black" stroke="none" />
<circle cx="855.9561195" cy="765.40110544" r="5" fill="black" stroke="none" />
<path d="M759.9561194999999,765.40110544 A371.50360810397564,371.50360810397564,0,0,1,737.1778758234385,785.939829429469" stroke="grey" stroke-width="5" fill="none" />
<path d="M737.1778758234385,785.9398294294691 L259.9561195,313.4011054400001" stroke="grey" stroke-width="5" />
<circle cx="737.1778758234385" cy="785.9398294294691" r="2.5" fill="grey" stroke="none" />
<circle cx="759.9561195" cy="765.40110544" r="5" fill="black" stroke="none" />
<circle cx="759.9561195" cy="813.40110544" r="5" fill="black" stroke="none" />
<path d="M447.9561195,389.4011054400001 A122.23207834031234,122.23207834031234,0,0,1,595.902108421344,424.21433792772524" stroke="grey" stroke-width="5" fill="none" />
<path d="M595.902108421344,424.21433792772524 L139.95611950000003,-110.5988945599999" stroke="grey" stroke-width="5" />
<circle cx="595.902108421344" cy="424.21433792772524" r="2.5" fill="grey" stroke="none" />
<circle cx="447.9561195" cy="389.4011054400001" r="5" fill="black" stroke="none" />
<circle cx="639.9561195" cy="389.4011054400001" r="5" fill="black" stroke="none" />
<path d="M639.9561195,389.4011054400001 L612.8920249479885,410.788229850232" stroke="grey" stroke-width="5" />
<circle cx="612.8920249479885" cy="410.788229850232" r="2.5" fill="grey" stroke="none" />
<path d="M612.8920249479885,410.788229850232 A143.8865846078511,143.8865846078511,0,0,1,639.9561195,533.40110544" stroke="grey" stroke-width="5" fill="none" />
<circle cx="639.9561195" cy="389.4011054400001" r="5" fill="black" stroke="none" />
<circle cx="639.9561195" cy="533.40110544" r="5" fill="black" stroke="none" />
<path d="M639.9561195,389.4011054400001 A178.38113931520974,178.38113931520974,0,0,0,605.5781679256324,356.218633610404" stroke="grey" stroke-width="5" fill="none" />
<path d="M605.5781679256324,356.218633610404 L139.95611950000003,-190.5988945599999" stroke="grey" stroke-width="5" />
<circle cx="605.5781679256324" cy="356.218633610404" r="2.5" fill="grey" stroke="none" />
<circle cx="639.9561195" cy="389.4011054400001" r="5" fill="black" stroke="none" />
<circle cx="639.9561195" cy="309.4011054400001" r="5" fill="black" stroke="none" />
<path d="M639.9561195,309.40110544000004 A236.46491070133905,236.46491070133905,0,0,0,616.7169693187299,294.34785907741457" stroke="grey" stroke-width="5" fill="none" />
<path d="M616.7169693187299,294.34785907741457 L139.95611950000003,-246.5988945599999" stroke="grey" stroke-width="5" />
<circle cx="616.7169693187299" cy="294.34785907741457" r="2.5" fill="grey" stroke="none" />
<circle cx="639.9561195" cy="309.4011054400001" r="5" fill="black" stroke="none" />
<circle cx="639.9561195" cy="253.4011054400001" r="5" fill="black" stroke="none" />
<path d="M639.9561195,309.40110544000004 A236.46491070133905,236.46491070133905,0,0,1,719.482663205579,412.0055993532622" stroke="grey" stroke-width="5" fill="none" />
<path d="M719.482663205579,412.0055993532622 L235.95611950000003,-94.5988945599999" stroke="grey" stroke-width="5" />
<circle cx="719.482663205579" cy="412.0055993532622" r="2.5" fill="grey" stroke="none" />
<circle cx="639.9561195" cy="309.4011054400001" r="5" fill="black" stroke="none" />
<circle cx="735.9561195" cy="405.4011054400001" r="5" fill="black" stroke="none" />
<path d="M639.9561195,389.4011054400001 A178.38113931520974,178.38113931520974,0,0,1,665.5703055748387,433.6199971734951" stroke="grey" stroke-width="5" fill="none" />
<path d="M665.5703055748387,433.6199971734951 L235.95611950000003,-94.5988945599999" stroke="grey" stroke-width="5" />
<circle cx="665.5703055748387" cy="433.6199971734951" r="2.5" fill="grey" stroke="none" />
<circle cx="639.9561195" cy="389.4011054400001" r="5" fill="black" stroke="none" />
<circle cx="735.9561195" cy="405.4011054400001" r="5" fill="black" stroke="none" />
<path d="M735.9561195,405.4011054400001 A254.21298389632318,254.21298389632318,0,0,1,753.4117071530757,479.8320090431369" stroke="grey" stroke-width="5" fill="none" />
<path d="M753.4117071530757,479.8320090431369 L283.9561195,-22.598894559999906" stroke="grey" stroke-width="5" />
<circle cx="753.4117071530757" cy="479.8320090431369" r="2.5" fill="grey" stroke="none" />
<circle cx="735.9561195" cy="405.4011054400001" r="5" fill="black" stroke="none" />
<circle cx="783.9561195" cy="477.4011054400001" r="5" fill="black" stroke="none" />
<path d="M735.9561195,589.40110544 A252.3248857790137,252.3248857790137,0,0,0,738.6086380212955,582.0595262295284" stroke="grey" stroke-width="5" fill="none" />
<path d="M738.6086380212955,582.0595262295284 L259.9561195,89.4011054400001" stroke="grey" stroke-width="5" />
<circle cx="738.6086380212955" cy="582.0595262295284" r="2.5" fill="grey" stroke="none" />
<circle cx="735.9561195" cy="589.40110544" r="5" fill="black" stroke="none" />
<circle cx="759.9561195" cy="589.40110544" r="5" fill="black" stroke="none" />
<path d="M759.9561195,589.40110544 A274.89951203920367,274.89951203920367,0,0,0,762.2107065715325,582.5547520052601" stroke="grey" stroke-width="5" fill="none" />
<path d="M762.2107065715325,582.5547520052601 L283.9561195,89.4011054400001" stroke="grey" stroke-width="5" />
<circle cx="762.2107065715325" cy="582.5547520052601" r="2.5" fill="grey" stroke="none" />
<circle cx="759.9561195" cy="589.40110544" r="5" fill="black" stroke="none" />
<circle cx="783.9561195" cy="589.40110544" r="5" fill="black" stroke="none" />
<path d="M783.9561195,589.40110544 L772.7166149849735,585.8624455582882" stroke="grey" stroke-width="5" />
<circle cx="772.7166149849735" cy="585.8624455582882" r="2.5" fill="grey" stroke="none" />
<path d="M772.7166149849735,585.8624455582882 A285.9138185644623,285.9138185644623,0,0,0,783.9561195,533.40110544" stroke="grey" stroke-width="5" fill="none" />
<circle cx="783.9561195" cy="589.40110544" r="5" fill="black" stroke="none" />
<circle cx="783.9561195" cy="533.40110544" r="5" fill="black" stroke="none" />
<path d="M783.9561195,533.40110544 L782.5408564339142,533.2346312996333" stroke="grey" stroke-width="5" />
<circle cx="782.5408564339142" cy="533.2346312996333" r="2.5" fill="grey" stroke="none" />
<path d="M782.5408564339142,533.2346312996333 A284.48879814859544,284.48879814859544,0,0,0,783.9561195,517.40110544" stroke="grey" stroke-width="5" fill="none" />
<circle cx="783.9561195" cy="533.40110544" r="5" fill="black" stroke="none" />
<circle cx="783.9561195" cy="517.40110544" r="5" fill="black" stroke="none" />
<path d="M783.9561195,517.40110544 L783.4278884388091,517.3687349300471" stroke="grey" stroke-width="5" />
<circle cx="783.4278884388091" cy="517.3687349300471" r="2.5" fill="grey" stroke="none" />
<path d="M783.4278884388091,517.3687349300471 A283.9595761687784,283.9595761687784,0,0,0,783.9561195,501.4011054400001" stroke="grey" stroke-width="5" fill="none" />
<circle cx="783.9561195" cy="517.40110544" r="5" fill="black" stroke="none" />
<circle cx="783.9561195" cy="501.4011054400001" r="5" fill="black" stroke="none" />
<path d="M783.9561195,501.4011054400001 A283.9595761687784,283.9595761687784,0,0,0,783.0645384688187,477.4720626912502" stroke="grey" stroke-width="5" fill="none" />
<path d="M783.0645384688187,477.4720626912502 L283.9561195,-22.598894559999906" stroke="grey" stroke-width="5" />
<circle cx="783.0645384688187" cy="477.4720626912502" r="2.5" fill="grey" stroke="none" />
<circle cx="783.9561195" cy="501.4011054400001" r="5" fill="black" stroke="none" />
<circle cx="783.9561195" cy="477.4011054400001" r="5" fill="black" stroke="none" />
<path d="M783.9561195,477.4011054400001 A284.85397634021587,284.85397634021587,0,0,1,784.1961686707341,480.6525053376946" stroke="grey" stroke-width="5" fill="none" />
<path d="M784.1961686707341,480.6525053376946 L331.9561195,-22.598894559999906" stroke="grey" stroke-width="5" />
<circle cx="784.1961686707341" cy="480.6525053376946" r="2.5" fill="grey" stroke="none" />
<circle cx="783.9561195" cy="477.4011054400001" r="5" fill="black" stroke="none" />
<circle cx="831.9561195" cy="477.4011054400001" r="5" fill="black" stroke="none" />
<path d="M831.9561195,477.4011054400001 L831.6442564738679,477.4223364378059" stroke="grey" stroke-width="5" />
<circle cx="831.6442564738679" cy="477.4223364378059" r="2.5" fill="grey" stroke="none" />
<path d="M831.6442564738679,477.4223364378059 A332.41188869237556,332.41188869237556,0,0,1,831.9561195,517.40110544" stroke="grey" stroke-width="5" fill="none" />
<circle cx="831.9561195" cy="477.4011054400001" r="5" fill="black" stroke="none" />
<circle cx="831.9561195" cy="517.40110544" r="5" fill="black" stroke="none" />
<path d="M831.9561195,517.40110544 L784.0987361977966,514.8924263586249" stroke="grey" stroke-width="5" />
<circle cx="784.0987361977966" cy="514.8924263586249" r="2.5" fill="grey" stroke="none" />
<path d="M784.0987361977966,514.8924263586249 A284.48879814859544,284.48879814859544,0,0,1,783.9561195,517.40110544" stroke="grey" stroke-width="5" fill="none" />
<circle cx="831.9561195" cy="517.40110544" r="5" fill="black" stroke="none" />
<circle cx="783.9561195" cy="517.40110544" r="5" fill="black" stroke="none" />
<path d="M783.9561195,501.4011054400001 A283.9595761687784,283.9595761687784,0,0,0,783.9574720740745,501.09313825907975" stroke="grey" stroke-width="5" fill="none" />
<path d="M783.9574720740745,501.09313825907975 L363.9561195,1.4011054400000944" stroke="grey" stroke-width="5" />
<circle cx="783.9574720740745" cy="501.09313825907975" r="2.5" fill="grey" stroke="none" />
<circle cx="783.9561195" cy="501.4011054400001" r="5" fill="black" stroke="none" />
<circle cx="863.9561195" cy="501.4011054400001" r="5" fill="black" stroke="none" />
<circle cx="500" cy="500" r="5" fill="red" stroke="none" />
</svg>