<?xml version="1.0" encoding="UTF-8"?>
<svg xmlns="http://www.w3.org/2000/svg" xmlns:xlink="http://www.w3.org/1999/xlink"
     width="1000" height="1000" viewBox="0 0 1000 1000">
<defs>
</defs>
<rect x="0" y="0" width="1000" height="1000" fill="white" />
<path d="M103.15327200000002,355.29375744000004 L124.36881546301197,363.0297959702227" stroke="grey" stroke-width="5" />
<circle cx="124.36881546301197" cy="363.0297959702227" r="2.5" fill="grey" stroke="none" />
<path d="M124.36881546301197,363.0297959702227 A399.824490981505,399.824490981505,0,0,0,103.15327199999996,451.29375744" stroke="grey" stroke-width="5" fill="none" />
<circle cx="103.15327200000002" cy="355.29375744000004" r="5" fill="black" stroke="none" />
<circle cx="103.15327200000002" cy="451.29375744000004" r="5" fill="black" stroke="none" />
<path d="M103.15327200000002,451.29375744000004 L169.55289604453304,459.44319138117095" stroke="grey" stroke-width="5" />
<circle cx="169.55289604453304" cy="459.44319138117095" r="2.5" fill="grey" stroke="none" />
<path d="M169.55289604453304,459.44319138117095 A332.92663341628213,332.92663341628213,0,0,0,167.15327200000002,507.29375744000004" stroke="grey" stroke-width="5" fill="none" />
<circle cx="103.15327200000002" cy="451.29375744000004" r="5" fill="black" stroke="none" />
<circle cx="167.15327200000002" cy="507.29375744000004" r="5" fill="black" stroke="none" />
<path d="M79.15327200000002,507.29375744000004 L167.12335569817913,505.7691347928899" stroke="grey" stroke-width="5" />
<circle cx="167.12335569817913" cy="505.7691347928899" r="2.5" fill="grey" stroke="none" />
<path d="M167.12335569817913,505.76913479289 A332.92663341628213,332.92663341628213,0,0,0,167.15327200000002,507.29375744000004" stroke="grey" stroke-width="5" fill="none" />
<circle cx="79.15327200000002" cy="507.29375744000004" r="5" fill="black" stroke="none" />
<circle cx="167.15327200000002" cy="507.29375744000004" r="5" fill="black" stroke="none" />
<path d="M167.15327200000002,507.29375744000004 L236.27359476322067,505.7791057219593" stroke="grey" stroke-width="5" />
<circle cx="236.27359476322067" cy="505.7791057219593" r="2.5" fill="grey" stroke="none" />
<path d="M236.27359476322067,505.7791057219593 A263.78971716513047,263.78971716513047,0,0,0,239.15327200000002,539.29375744" stroke="grey" stroke-width="5" fill="none" />
<circle cx="167.15327200000002" cy="507.29375744000004" r="5" fill="black" stroke="none" />
<circle cx="239.15327200000002" cy="539.29375744" r="5" fill="black" stroke="none" />
<path d="M239.15327200000002,539.29375744 L251.78785122978124,537.3904938053821" stroke="grey" stroke-width="5" />
<circle cx="251.78785122978124" cy="537.3904938053821" r="2.5" fill="grey" stroke="none" />
<path d="M251.78785122978124,537.3904938053821 A251.0125889754128,251.0125889754128,0,0,0,255.15327200000002,555.2937574399999" stroke="grey" stroke-width="5" fill="none" />
<circle cx="239.15327200000002" cy="539.29375744" r="5" fill="black" stroke="none" />
<circle cx="255.15327200000002" cy="555.29375744" r="5" fill="black" stroke="none" />
<path d="M255.15327200000002,555.29375744 L275.59897124224494,550.6765034385829" stroke="grey" stroke-width="5" />
<circle cx="275.59897124224494" cy="550.6765034385829" r="2.5" fill="grey" stroke="none" />
<path d="M275.59897124224494,550.6765034385828 A230.05201522329583,230.05201522329583,0,0,0,287.153272,587.29375744" stroke="grey" stroke-width="5" fill="none" />
<circle cx="255.15327200000002" cy="555.29375744" r="5" fill="black" stroke="none" />
<circle cx="287.153272" cy="587.29375744" r="5" fill="black" stroke="none" />
<path d="M255.15327200000002,555.2937574399999 A251.0125889754128,251.0125889754128,0,0,0,279.4977740101557,619.9420199832533" stroke="grey" stroke-width="5" fill="none" />
<path d="M279.4977740101557,619.9420199832533 L207.15327200000002,659.29375744" stroke="grey" stroke-width="5" />
<circle cx="279.4977740101557" cy="619.9420199832533" r="2.5" fill="grey" stroke="none" />
<circle cx="255.15327200000002" cy="555.29375744" r="5" fill="black" stroke="none" />
<circle cx="207.15327200000002" cy="659.29375744" r="5" fill="black" stroke="none" />
<path d="M207.15327200000007,659.29375744 A333.36722583310365,333.36722583310365,0,0,0,241.8549424177134,710.937992086531" stroke="grey" stroke-width="5" fill="none" />
<path d="M241.8549424177134,710.937992086531 L207.15327200000002,739.29375744" stroke="grey" stroke-width="5" />
<circle cx="241.8549424177134" cy="710.937992086531" r="2.5" fill="grey" stroke="none" />
<circle cx="207.15327200000002" cy="659.29375744" r="5" fill="black" stroke="none" />
<circle cx="207.15327200000002" cy="739.29375744" r="5" fill="black" stroke="none" />
<path d="M103.15327200000002,755.29375744 L181.9473700387341,704.6050659802479" stroke="grey" stroke-width="5" />
<circle cx="181.9473700387341" cy="704.6050659802479" r="2.5" fill="grey" stroke="none" />
<path d="M181.9473700387341,704.6050659802479 A378.1807880499213,378.1807880499213,0,0,0,207.15327200000007,739.29375744" stroke="grey" stroke-width="5" fill="none" />
<circle cx="103.15327200000002" cy="755.29375744" r="5" fill="black" stroke="none" />
<circle cx="207.15327200000002" cy="739.29375744" r="5" fill="black" stroke="none" />
<path d="M207.15327200000007,739.29375744 A378.1807880499213,378.1807880499213,0,0,0,261.0698607032634,793.14347508635" stroke="grey" stroke-width="5" fill="none" />
<path d="M261.0698607032634,793.14347508635 L207.15327200000002,859.29375744" stroke="grey" stroke-width="5" />
<circle cx="261.0698607032634" cy="793.14347508635" r="2.5" fill="grey" stroke="none" />
<circle cx="207.15327200000002" cy="739.29375744" r="5" fill="black" stroke="none" />
<circle cx="207.15327200000002" cy="859.29375744" r="5" fill="black" stroke="none" />
<path d="M207.15327200000002,659.29375744 L266.46051949069954,627.0336247735441" stroke="grey" stroke-width="5" />
<circle cx="266.46051949069954" cy="627.0336247735441" r="2.5" fill="grey" stroke="none" />
<path d="M266.46051949069954,627.0336247735441 A265.8537770648736,265.8537770648736,0,0,0,287.15327200000013,659.29375744" stroke="grey" stroke-width="5" fill="none" />
<circle cx="207.15327200000002" cy="659.29375744" r="5" fill="black" stroke="none" />
<circle cx="287.153272" cy="659.29375744" r="5" fill="black" stroke="none" />
<path d="M287.153272,587.29375744 A230.05201522329583,230.05201522329583,0,0,0,315.81672733528234,637.8421262851593" stroke="grey" stroke-width="5" fill="none" />
<path d="M315.8167273352823,637.8421262851592 L287.153272,659.29375744" stroke="grey" stroke-width="5" />
<circle cx="315.8167273352823" cy="637.8421262851592" r="2.5" fill="grey" stroke="none" />
<circle cx="287.153272" cy="587.29375744" r="5" fill="black" stroke="none" />
<circle cx="287.153272" cy="659.29375744" r="5" fill="black" stroke="none" />
<path d="M287.153272,659.29375744 L329.7635896073458,627.4043426429546" stroke="grey" stroke-width="5" />
<circle cx="329.7635896073458" cy="627.4043426429546" r="2.5" fill="grey" stroke="none" />
<path d="M329.7635896073459,627.4043426429546 A212.63184603360696,212.63184603360696,0,0,0,359.153272,659.29375744" stroke="grey" stroke-width="5" fill="none" />
<circle cx="287.153272" cy="659.29375744" r="5" fill="black" stroke="none" />
<circle cx="359.153272" cy="659.29375744" r="5" fill="black" stroke="none" />
<path d="M287.153272,587.29375744 L320.84269723931266,573.4768830028531" stroke="grey" stroke-width="5" />
<circle cx="320.84269723931266" cy="573.4768830028531" r="2.5" fill="grey" stroke="none" />
<path d="M320.84269723931266,573.4768830028531 A193.63933347411506,193.63933347411506,0,0,0,327.15327199999996,587.2937574399999" stroke="grey" stroke-width="5" fill="none" />
<circle cx="287.153272" cy="587.29375744" r="5" fill="black" stroke="none" />
<circle cx="327.153272" cy="587.29375744" r="5" fill="black" stroke="none" />
<path d="M359.153272,659.29375744 L413.57360137164926,597.7458686829932" stroke="grey" stroke-width="5" />
<circle cx="413.57360137164926" cy="597.7458686829932" r="2.5" fill="grey" stroke="none" />
<path d="M413.5736013716492,597.7458686829932 A130.4751977368095,130.4751977368095,0,0,0,447.1532720000001,619.29375744" stroke="grey" stroke-width="5" fill="none" />
<circle cx="359.153272" cy="659.29375744" r="5" fill="black" stroke="none" />
<circle cx="447.153272" cy="619.29375744" r="5" fill="black" stroke="none" />
<path d="M327.153272,587.29375744 L417.93539117363764,541.4455520228126" stroke="grey" stroke-width="5" />
<circle cx="417.93539117363764" cy="541.4455520228126" r="2.5" fill="grey" stroke="none" />
<path d="M417.93539117363764,541.4455520228126 A91.93657489976195,91.93657489976195,0,0,0,471.153272,587.29375744" stroke="grey" stroke-width="5" fill="none" />
<circle cx="327.153272" cy="587.29375744" r="5" fill="black" stroke="none" />
<circle cx="471.153272" cy="587.29375744" r="5" fill="black" stroke="none" />
<path d="M447.153272,619.29375744 L462.7626763457385,584.0578106505714" stroke="grey" stroke-width="5" />
<circle cx="462.7626763457385" cy="584.0578106505714" r="2.5" fill="grey" stroke="none" />
<path d="M462.7626763457385,584.0578106505714 A91.93657489976195,91.93657489976195,0,0,0,471.153272,587.29375744" stroke="grey" stroke-width="5" fill="none" />
<circle cx="447.153272" cy="619.29375744" r="5" fill="black" stroke="none" />
<circle cx="471.153272" cy="587.29375744" r="5" fill="black" stroke="none" />
<path d="M207.15327200000002,739.29375744 L271.4172539555598,686.7817494854421" stroke="grey" stroke-width="5" />
<circle cx="271.4172539555598" cy="686.7817494854421" r="2.5" fill="grey" stroke="none" />
<path d="M271.4172539555598,686.7817494854421 A295.1906057618696,295.1906057618696,0,0,0,327.153272,739.29375744" stroke="grey" stroke-width="5" fill="none" />
<circle cx="207.15327200000002" cy="739.29375744" r="5" fill="black" stroke="none" />
<circle cx="327.153272" cy="739.29375744" r="5" fill="black" stroke="none" />
<path d="M327.153272,739.29375744 L404.79117512169995,631.8097120506404" stroke="grey" stroke-width="5" />
<circle cx="404.79117512169995" cy="631.8097120506404" r="2.5" fill="grey" stroke="none" />
<path d="M404.79117512169995,631.8097120506404 A162.59926360712566,162.59926360712566,0,0,0,423.153272,643.29375744" stroke="grey" stroke-width="5" fill="none" />
<circle cx="327.153272" cy="739.29375744" r="5" fill="black" stroke="none" />
<circle cx="423.153272" cy="643.29375744" r="5" fill="black" stroke="none" />
<path d="M423.153272,643.29375744 L438.33556309668666,614.9838007975768" stroke="grey" stroke-width="5" />
<circle cx="438.33556309668666" cy="614.9838007975768" r="2.5" fill="grey" stroke="none" />
<path d="M438.33556309668666,614.9838007975768 A130.4751977368095,130.4751977368095,0,0,0,447.1532720000001,619.29375744" stroke="grey" stroke-width="5" fill="none" />
<circle cx="423.153272" cy="643.29375744" r="5" fill="black" stroke="none" />
<circle cx="447.153272" cy="619.29375744" r="5" fill="black" stroke="none" />
<path d="M447.1532720000001,619.29375744 A130.4751977368095,130.4751977368095,0,0,0,454.8531898265219,622.4154514578101" stroke="grey" stroke-width="5" fill="none" />
<path d="M454.8531898265219,622.4154514578101 L447.153272,643.29375744" stroke="grey" stroke-width="5" />
<circle cx="454.8531898265219" cy="622.4154514578101" r="2.5" fill="grey" stroke="none" />
<circle cx="447.153272" cy="619.29375744" r="5" fill="black" stroke="none" />
<circle cx="447.153272" cy="643.29375744" r="5" fill="black" stroke="none" />
<path d="M447.15327199999996,643.29375744 A152.7281165390955,152.7281165390955,0,0,0,475.06105024079375,650.6782212746332" stroke="grey" stroke-width="5" fill="none" />
<path d="M475.06105024079375,650.6782212746332 L447.153272,819.29375744" stroke="grey" stroke-width="5" />
<circle cx="475.06105024079375" cy="650.6782212746332" r="2.5" fill="grey" stroke="none" />
<circle cx="447.153272" cy="643.29375744" r="5" fill="black" stroke="none" />
<circle cx="447.153272" cy="819.29375744" r="5" fill="black" stroke="none" />
<path d="M447.153272,819.29375744 L447.38855359519187,817.8722135255825" stroke="grey" stroke-width="5" />
<circle cx="447.38855359519187" cy="817.8722135255825" r="2.5" fill="grey" stroke="none" />
<path d="M447.38855359519187,817.8722135255825 A322.19669213767475,322.19669213767475,0,0,0,543.1532719999999,819.29375744" stroke="grey" stroke-width="5" fill="none" />
<circle cx="447.153272" cy="819.29375744" r="5" fill="black" stroke="none" />
<circle cx="543.153272" cy="819.29375744" r="5" fill="black" stroke="none" />
<path d="M447.153272,819.29375744 A323.63757538403905,323.63757538403905,0,0,0,453.90922141654096,820.3387587071381" stroke="grey" stroke-width="5" fill="none" />
<path d="M453.90922141654096,820.3387587071381 L447.153272,867.29375744" stroke="grey" stroke-width="5" />
<circle cx="453.90922141654096" cy="820.3387587071381" r="2.5" fill="grey" stroke="none" />
<circle cx="447.153272" cy="819.29375744" r="5" fill="black" stroke="none" />
<circle cx="447.153272" cy="867.29375744" r="5" fill="black" stroke="none" />
<path d="M135.15327200000002,443.29375744000004 L320.24723906008535,472.06195676040574" stroke="grey" stroke-width="5" />
<circle cx="320.24723906008535" cy="472.06195676040574" r="2.5" fill="grey" stroke="none" />
<path d="M320.24723906008535,472.0619567604057 A181.91093789428808,181.91093789428808,0,0,1,327.153272,443.29375744000004" stroke="grey" stroke-width="5" fill="none" />
<circle cx="135.15327200000002" cy="443.29375744000004" r="5" fill="black" stroke="none" />
<circle cx="327.153272" cy="443.29375744000004" r="5" fill="black" stroke="none" />
<path d="M327.153272,443.29375744000004 A181.91093789428808,181.91093789428808,0,0,0,337.62229585115745,582.0065273068584" stroke="grey" stroke-width="5" fill="none" />
<path d="M337.62229585115756,582.0065273068585 L327.153272,587.29375744" stroke="grey" stroke-width="5" />
<circle cx="337.62229585115756" cy="582.0065273068585" r="2.5" fill="grey" stroke="none" />
<circle cx="327.153272" cy="443.29375744000004" r="5" fill="black" stroke="none" />
<circle cx="327.153272" cy="587.29375744" r="5" fill="black" stroke="none" />
<path d="M327.153272,443.29375744000004 A181.91093789428808,181.91093789428808,0,0,1,357.3209789938105,387.1537050218534" stroke="grey" stroke-width="5" fill="none" />
<path d="M357.3209789938105,387.1537050218534 L327.153272,363.29375744000004" stroke="grey" stroke-width="5" />
<circle cx="357.3209789938105" cy="387.1537050218534" r="2.5" fill="grey" stroke="none" />
<circle cx="327.153272" cy="443.29375744000004" r="5" fill="black" stroke="none" />
<circle cx="327.153272" cy="363.29375744000004" r="5" fill="black" stroke="none" />
<path d="M327.153272,363.29375744000004 A220.3737464744372,220.3737464744372,0,0,1,352.8549214812931,335.9484410226373" stroke="grey" stroke-width="5" fill="none" />
<path d="M352.8549214812931,335.9484410226373 L327.153272,307.29375744000004" stroke="grey" stroke-width="5" />
<circle cx="352.8549214812931" cy="335.9484410226373" r="2.5" fill="grey" stroke="none" />
<circle cx="327.153272" cy="363.29375744000004" r="5" fill="black" stroke="none" />
<circle cx="327.153272" cy="307.29375744000004" r="5" fill="black" stroke="none" />
<path d="M327.153272,363.29375744000004 L431.79257707018087,446.054052562474" stroke="grey" stroke-width="5" />
<circle cx="431.79257707018087" cy="446.054052562474" r="2.5" fill="grey" stroke="none" />
<path d="M431.79257707018087,446.054052562474 A86.9621629656228,86.9621629656228,0,0,0,423.153272,459.29375744" stroke="grey" stroke-width="5" fill="none" />
<circle cx="327.153272" cy="363.29375744000004" r="5" fill="black" stroke="none" />
<circle cx="423.153272" cy="459.29375744000004" r="5" fill="black" stroke="none" />
<path d="M327.153272,443.29375744000004 L417.3709645917743,472.89169324421533" stroke="grey" stroke-width="5" />
<circle cx="417.3709645917743" cy="472.89169324421533" r="2.5" fill="grey" stroke="none" />
<path d="M417.3709645917743,472.89169324421533 A86.9621629656228,86.9621629656228,0,0,1,423.153272,459.29375744" stroke="grey" stroke-width="5" fill="none" />
<circle cx="327.153272" cy="443.29375744000004" r="5" fill="black" stroke="none" />
<circle cx="423.153272" cy="459.29375744000004" r="5" fill="black" stroke="none" />
<path d="M423.153272,459.29375744000004 L462.38975333778274,480.0775925895811" stroke="grey" stroke-width="5" />
<circle cx="462.38975333778274" cy="480.0775925895811" r="2.5" fill="grey" stroke="none" />
<path d="M462.38975333778274,480.07759258958106 A42.56093245007138,42.56093245007138,0,0,0,471.153272,531.29375744" stroke="grey" stroke-width="5" fill="none" />
<circle cx="423.153272" cy="459.29375744000004" r="5" fill="black" stroke="none" />
<circle cx="471.153272" cy="531.29375744" r="5" fill="black" stroke="none" />
<path d="M423.153272,643.29375744 L427.81851670625997,634.594617467026" stroke="grey" stroke-width="5" />
<circle cx="427.81851670625997" cy="634.594617467026" r="2.5" fill="grey" stroke="none" />
<path d="M427.81851670625997,634.594617467026 A152.7281165390955,152.7281165390955,0,0,0,447.15327199999996,643.29375744" stroke="grey" stroke-width="5" fill="none" />
<circle cx="423.153272" cy="643.29375744" r="5" fill="black" stroke="none" />
<circle cx="447.153272" cy="643.29375744" r="5" fill="black" stroke="none" />
<path d="M447.153272,643.29375744 L449.423014542755,637.1393567858519" stroke="grey" stroke-width="5" />
<circle cx="449.423014542755" cy="637.1393567858519" r="2.5" fill="grey" stroke="none" />
<path d="M449.423014542755,637.1393567858519 A146.16851452203906,146.16851452203906,0,0,0,471.153272,643.29375744" stroke="grey" stroke-width="5" fill="none" />
<circle cx="447.153272" cy="643.29375744" r="5" fill="black" stroke="none" />
<circle cx="471.153272" cy="643.29375744" r="5" fill="black" stroke="none" />
<path d="M471.153272,643.29375744 L481.85608317867127,590.1284199721722" stroke="grey" stroke-width="5" />
<circle cx="481.85608317867127" cy="590.1284199721722" r="2.5" fill="grey" stroke="none" />
<path d="M481.85608317867127,590.1284199721722 A91.93657489976195,91.93657489976195,0,0,1,471.153272,587.29375744" stroke="grey" stroke-width="5" fill="none" />
<circle cx="471.153272" cy="643.29375744" r="5" fill="black" stroke="none" />
<circle cx="471.153272" cy="587.29375744" r="5" fill="black" stroke="none" />
<path d="M471.153272,587.29375744 L475.8685635199044,573.0247036257365" stroke="grey" stroke-width="5" />
<circle cx="475.8685635199044" cy="573.0247036257365" r="2.5" fill="grey" stroke="none" />
<path d="M475.8685635199044,573.0247036257365 A76.90860528068065,76.90860528068065,0,0,1,471.153272,571.29375744" stroke="grey" stroke-width="5" fill="none" />
<circle cx="471.153272" cy="587.29375744" r="5" fill="black" stroke="none" />
<circle cx="471.153272" cy="571.29375744" r="5" fill="black" stroke="none" />
<path d="M471.153272,571.29375744 L476.6078374846568,557.8129748499013" stroke="grey" stroke-width="5" />
<circle cx="476.6078374846568" cy="557.8129748499013" r="2.5" fill="grey" stroke="none" />
<path d="M476.6078374846568,557.8129748499013 A62.36612324122399,62.36612324122399,0,0,1,471.153272,555.29375744" stroke="grey" stroke-width="5" fill="none" />
<circle cx="471.153272" cy="571.29375744" r="5" fill="black" stroke="none" />
<circle cx="471.153272" cy="555.29375744" r="5" fill="black" stroke="none" />
<path d="M471.153272,555.29375744 L480.3139336228287,537.7344903452152" stroke="grey" stroke-width="5" />
<circle cx="480.3139336228287" cy="537.7344903452152" r="2.5" fill="grey" stroke="none" />
<path d="M480.3139336228287,537.7344903452152 A42.56093245007138,42.56093245007138,0,0,1,471.153272,531.29375744" stroke="grey" stroke-width="5" fill="none" />
<circle cx="471.153272" cy="555.29375744" r="5" fill="black" stroke="none" />
<circle cx="471.153272" cy="531.29375744" r="5" fill="black" stroke="none" />
<path d="M471.153272,531.29375744 L475.13252542454,526.9769492578088" stroke="grey" stroke-width="5" />
<circle cx="475.13252542454" cy="526.9769492578088" r="2.5" fill="grey" stroke="none" />
<path d="M475.13252542454,526.9769492578088 A36.68987711916654,36.68987711916654,0,0,0,519.153272,531.29375744" stroke="grey" stroke-width="5" fill="none" />
<circle cx="471.153272" cy="531.29375744" r="5" fill="black" stroke="none" />
<circle cx="519.153272" cy="531.29375744" r="5" fill="black" stroke="none" />
<path d="M519.153272,531.29375744 A36.68987711916654,36.68987711916654,0,0,1,509.5193001473102,535.4334588732876" stroke="grey" stroke-width="5" fill="none" />
<path d="M509.5193001473102,535.4334588732876 L519.153272,571.29375744" stroke="grey" stroke-width="5" />
<circle cx="509.5193001473102" cy="535.4334588732876" r="2.5" fill="grey" stroke="none" />
<circle cx="519.153272" cy="531.29375744" r="5" fill="black" stroke="none" />
<circle cx="519.153272" cy="571.29375744" r="5" fill="black" stroke="none" />
<path d="M519.153272,571.29375744 A73.821729038404,73.821729038404,0,0,1,472.31109145343623,568.4322440207799" stroke="grey" stroke-width="5" fill="none" />
<path d="M472.3110914534362,568.4322440207799 L471.153272,571.29375744" stroke="grey" stroke-width="5" />
<circle cx="472.3110914534362" cy="568.4322440207799" r="2.5" fill="grey" stroke="none" />
<circle cx="519.153272" cy="571.29375744" r="5" fill="black" stroke="none" />
<circle cx="471.153272" cy="571.29375744" r="5" fill="black" stroke="none" />
<path d="M471.153272,555.29375744 A62.36612324122399,62.36612324122399,0,0,0,542.3521366945214,545.7802342233863" stroke="grey" stroke-width="5" fill="none" />
<path d="M542.3521366945214,545.7802342233863 L551.153272,555.29375744" stroke="grey" stroke-width="5" />
<circle cx="542.3521366945214" cy="545.7802342233863" r="2.5" fill="grey" stroke="none" />
<circle cx="471.153272" cy="555.29375744" r="5" fill="black" stroke="none" />
<circle cx="551.153272" cy="555.29375744" r="5" fill="black" stroke="none" />
<circle cx="500" cy="500" r="5" fill="red" stroke="none" />
</svg>