<?xml version="1.0" encoding="UTF-8"?>
<svg xmlns="http://www.w3.org/2000/svg" xmlns:xlink="http://www.w3.org/1999/xlink"
     width="1000" height="1000" viewBox="0 0 1000 1000">
<defs>
</defs>
<rect x="0" y="0" width="1000" height="1000" fill="white" />
<path d="M344.334592,251.07620864000006 L384.2996928862332,314.9842056863704" stroke="grey" stroke-width="5" />
<circle cx="384.2996928862332" cy="314.9842056863704" r="2.5" fill="grey" stroke="none" />
<path d="M384.2996928862332,314.9842056863704 A218.21412697559995,218.21412697559995,0,0,0,344.33459200000004,347.07620864" stroke="grey" stroke-width="5" fill="none" />
<circle cx="344.334592" cy="251.07620864000006" r="5" fill="black" stroke="none" />
<circle cx="344.334592" cy="347.07620864000006" r="5" fill="black" stroke="none" />
<path d="M344.334592,347.07620864000006 L404.83443614625384,406.5105149666454" stroke="grey" stroke-width="5" />
<circle cx="404.83443614625384" cy="406.5105149666454" r="2.5" fill="grey" stroke="none" />
<path d="M404.8344361462539,406.51051496664536 A133.40452899134746,133.40452899134746,0,0,1,408.334592,403.07620864000006" stroke="grey" stroke-width="5" fill="none" />
<circle cx="344.334592" cy="347.07620864000006" r="5" fill="black" stroke="none" />
<circle cx="408.334592" cy="403.07620864000006" r="5" fill="black" stroke="none" />
<path d="M320.334592,403.07620864000006 L382.59054488720784,436.6613214100538" stroke="grey" stroke-width="5" />
<circle cx="382.59054488720784" cy="436.6613214100538" r="2.5" fill="grey" stroke="none" />
<path d="M382.59054488720784,436.6613214100538 A133.40452899134746,133.40452899134746,0,0,1,408.334592,403.07620864000006" stroke="grey" stroke-width="5" fill="none" />
<circle cx="320.334592" cy="403.07620864000006" r="5" fill="black" stroke="none" />
<circle cx="408.334592" cy="403.07620864000006" r="5" fill="black" stroke="none" />
<path d="M408.334592,403.07620864000006 L453.3877524921155,450.7138423223418" stroke="grey" stroke-width="5" />
<circle cx="453.3877524921155" cy="450.7138423223418" r="2.5" fill="grey" stroke="none" />
<path d="M453.3877524921155,450.7138423223418 A67.8367669952163,67.8367669952163,0,0,1,480.334592,435.07620864000006" stroke="grey" stroke-width="5" fill="none" />
<circle cx="408.334592" cy="403.07620864000006" r="5" fill="black" stroke="none" />
<circle cx="480.334592" cy="435.07620864000006" r="5" fill="black" stroke="none" />
<path d="M480.334592,435.07620864000006 L485.7775835735016,453.04581543850924" stroke="grey" stroke-width="5" />
<circle cx="485.7775835735016" cy="453.04581543850924" r="2.5" fill="grey" stroke="none" />
<path d="M485.7775835735016,453.04581543850924 A49.06090680820391,49.06090680820391,0,0,1,496.334592,451.07620864000006" stroke="grey" stroke-width="5" fill="none" />
<circle cx="480.334592" cy="435.07620864000006" r="5" fill="black" stroke="none" />
<circle cx="496.334592" cy="451.07620864000006" r="5" fill="black" stroke="none" />
<path d="M496.334592,451.07620864000006 L497.5342258735838,467.08824259081916" stroke="grey" stroke-width="5" />
<circle cx="497.5342258735838" cy="467.08824259081916" r="2.5" fill="grey" stroke="none" />
<path d="M497.5342258735838,467.08824259081916 A33.003996997383084,33.003996997383084,0,0,1,528.3345919999999,483.07620864000006" stroke="grey" stroke-width="5" fill="none" />
<circle cx="496.334592" cy="451.07620864000006" r="5" fill="black" stroke="none" />
<circle cx="528.3345919999999" cy="483.07620864000006" r="5" fill="black" stroke="none" />
<path d="M496.334592,451.07620864000006 A49.06090680820391,49.06090680820391,0,0,0,466.43435074024137,535.7815562352189" stroke="grey" stroke-width="5" fill="none" />
<path d="M466.43435074024137,535.7815562352189 L448.334592,555.07620864" stroke="grey" stroke-width="5" />
<circle cx="466.43435074024137" cy="535.7815562352189" r="2.5" fill="grey" stroke="none" />
<circle cx="496.334592" cy="451.07620864000006" r="5" fill="black" stroke="none" />
<circle cx="448.334592" cy="555.07620864" r="5" fill="black" stroke="none" />
<path d="M448.334592,555.07620864 A75.51624422575107,75.51624422575107,0,0,0,473.02183630176864,570.5328421760722" stroke="grey" stroke-width="5" fill="none" />
<path d="M473.0218363017686,570.5328421760722 L448.334592,635.07620864" stroke="grey" stroke-width="5" />
<circle cx="473.0218363017686" cy="570.5328421760722" r="2.5" fill="grey" stroke="none" />
<circle cx="448.334592" cy="555.07620864" r="5" fill="black" stroke="none" />
<circle cx="448.334592" cy="635.07620864" r="5" fill="black" stroke="none" />
<path d="M344.334592,651.07620864 L396.21999904765,600.7204444325655" stroke="grey" stroke-width="5" />
<circle cx="396.21999904765" cy="600.7204444325655" r="2.5" fill="grey" stroke="none" />
<path d="M396.21999904765,600.7204444325655 A144.61983447772056,144.61983447772056,0,0,0,448.33459200000004,635.07620864" stroke="grey" stroke-width="5" fill="none" />
<circle cx="344.334592" cy="651.07620864" r="5" fill="black" stroke="none" />
<circle cx="448.334592" cy="635.07620864" r="5" fill="black" stroke="none" />
<path d="M448.33459200000004,635.07620864 A144.61983447772056,144.61983447772056,0,0,0,471.29041138490646,641.7415113716352" stroke="grey" stroke-width="5" fill="none" />
<path d="M471.29041138490646,641.7415113716352 L448.334592,755.07620864" stroke="grey" stroke-width="5" />
<circle cx="471.29041138490646" cy="641.7415113716352" r="2.5" fill="grey" stroke="none" />
<circle cx="448.334592" cy="635.07620864" r="5" fill="black" stroke="none" />
<circle cx="448.334592" cy="755.07620864" r="5" fill="black" stroke="none" />
<path d="M448.334592,555.07620864 L457.62475280517833,545.1727383179394" stroke="grey" stroke-width="5" />
<circle cx="457.62475280517833" cy="545.1727383179394" r="2.5" fill="grey" stroke="none" />
<path d="M457.62475280517833,545.1727383179394 A61.93737047989106,61.93737047989106,0,0,0,528.3345919999999,555.0762086400001" stroke="grey" stroke-width="5" fill="none" />
<circle cx="448.334592" cy="555.07620864" r="5" fill="black" stroke="none" />
<circle cx="528.3345919999999" cy="555.07620864" r="5" fill="black" stroke="none" />
<path d="M528.3345919999999,483.07620864000006 A33.003996997383084,33.003996997383084,0,0,1,515.0983934584967,529.3479527867906" stroke="grey" stroke-width="5" fill="none" />
<path d="M515.0983934584967,529.3479527867906 L528.3345919999999,555.07620864" stroke="grey" stroke-width="5" />
<circle cx="515.0983934584967" cy="529.3479527867906" r="2.5" fill="grey" stroke="none" />
<circle cx="528.3345919999999" cy="483.07620864000006" r="5" fill="black" stroke="none" />
<circle cx="528.3345919999999" cy="555.07620864" r="5" fill="black" stroke="none" />
<path d="M528.3345919999999,555.0762086400001 A61.93737047989106,61.93737047989106,0,0,0,554.2951275514565,529.8039760121757" stroke="grey" stroke-width="5" fill="none" />
<path d="M554.2951275514565,529.8039760121757 L600.3345919999999,555.07620864" stroke="grey" stroke-width="5" />
<circle cx="554.2951275514565" cy="529.8039760121757" r="2.5" fill="grey" stroke="none" />
<circle cx="528.3345919999999" cy="555.07620864" r="5" fill="black" stroke="none" />
<circle cx="600.3345919999999" cy="555.07620864" r="5" fill="black" stroke="none" />
<path d="M528.3345919999999,483.07620864000006 A33.003996997383084,33.003996997383084,0,0,1,532.0361360825262,492.06590882929044" stroke="grey" stroke-width="5" fill="none" />
<path d="M532.0361360825262,492.06590882929044 L568.3345919999999,483.07620864000006" stroke="grey" stroke-width="5" />
<circle cx="532.0361360825262" cy="492.06590882929044" r="2.5" fill="grey" stroke="none" />
<circle cx="528.3345919999999" cy="483.07620864000006" r="5" fill="black" stroke="none" />
<circle cx="568.3345919999999" cy="483.07620864000006" r="5" fill="black" stroke="none" />
<path d="M600.3345919999999,555.07620864 A114.45706229832774,114.45706229832774,0,0,0,614.0920936453678,509.1330869688134" stroke="grey" stroke-width="5" fill="none" />
<path d="M614.0920936453678,509.1330869688134 L688.3345919999999,515.07620864" stroke="grey" stroke-width="5" />
<circle cx="614.0920936453678" cy="509.1330869688134" r="2.5" fill="grey" stroke="none" />
<circle cx="600.3345919999999" cy="555.07620864" r="5" fill="black" stroke="none" />
<circle cx="688.3345919999999" cy="515.07620864" r="5" fill="black" stroke="none" />
<path d="M568.3345919999999,483.07620864000006 A70.39908506368012,70.39908506368012,0,0,1,570.1765350345086,494.4066907511153" stroke="grey" stroke-width="5" fill="none" />
<path d="M570.1765350345086,494.4066907511153 L712.3345919999999,483.07620864000006" stroke="grey" stroke-width="5" />
<circle cx="570.1765350345086" cy="494.4066907511153" r="2.5" fill="grey" stroke="none" />
<circle cx="568.3345919999999" cy="483.07620864000006" r="5" fill="black" stroke="none" />
<circle cx="712.3345919999999" cy="483.07620864000006" r="5" fill="black" stroke="none" />
<path d="M688.3345919999999,515.07620864 A188.93705462604012,188.93705462604012,0,0,0,688.3397748889445,484.9886774218595" stroke="grey" stroke-width="5" fill="none" />
<path d="M688.3397748889445,484.9886774218595 L712.3345919999999,483.07620864000006" stroke="grey" stroke-width="5" />
<circle cx="688.3397748889445" cy="484.9886774218595" r="2.5" fill="grey" stroke="none" />
<circle cx="688.3345919999999" cy="515.07620864" r="5" fill="black" stroke="none" />
<circle cx="712.3345919999999" cy="483.07620864000006" r="5" fill="black" stroke="none" />
<path d="M448.33459200000004,635.07620864 A144.61983447772056,144.61983447772056,0,0,0,565.2839845135942,629.0461076142635" stroke="grey" stroke-width="5" fill="none" />
<path d="M565.2839845135942,629.0461076142635 L568.3345919999999,635.07620864" stroke="grey" stroke-width="5" />
<circle cx="565.2839845135942" cy="629.0461076142635" r="2.5" fill="grey" stroke="none" />
<circle cx="448.334592" cy="635.07620864" r="5" fill="black" stroke="none" />
<circle cx="568.3345919999999" cy="635.07620864" r="5" fill="black" stroke="none" />
<path d="M568.3345919999999,635.0762086400001 A151.37766877701378,151.37766877701378,0,0,0,647.2714440013481,535.0188575787547" stroke="grey" stroke-width="5" fill="none" />
<path d="M647.2714440013481,535.0188575787547 L664.3345919999999,539.07620864" stroke="grey" stroke-width="5" />
<circle cx="647.2714440013481" cy="535.0188575787547" r="2.5" fill="grey" stroke="none" />
<circle cx="568.3345919999999" cy="635.07620864" r="5" fill="black" stroke="none" />
<circle cx="664.3345919999999" cy="539.07620864" r="5" fill="black" stroke="none" />
<path d="M664.3345919999999,539.07620864 A168.91657174322262,168.91657174322262,0,0,0,668.3779483292208,513.4786767127013" stroke="grey" stroke-width="5" fill="none" />
<path d="M668.3779483292208,513.4786767127013 L688.3345919999999,515.07620864" stroke="grey" stroke-width="5" />
<circle cx="668.3779483292208" cy="513.4786767127013" r="2.5" fill="grey" stroke="none" />
<circle cx="664.3345919999999" cy="539.07620864" r="5" fill="black" stroke="none" />
<circle cx="688.3345919999999" cy="515.07620864" r="5" fill="black" stroke="none" />
<path d="M688.3345919999999,515.07620864 A188.93705462604012,188.93705462604012,0,0,1,684.9970284973139,538.3837212621092" stroke="grey" stroke-width="5" fill="none" />
<path d="M684.9970284973139,538.3837212621092 L688.3345919999999,539.07620864" stroke="grey" stroke-width="5" />
<circle cx="684.9970284973139" cy="538.3837212621092" r="2.5" fill="grey" stroke="none" />
<circle cx="688.3345919999999" cy="515.07620864" r="5" fill="black" stroke="none" />
<circle cx="688.3345919999999" cy="539.07620864" r="5" fill="black" stroke="none" />
<path d="M688.3345919999999,539.07620864 A192.34570082401964,192.34570082401964,0,0,1,626.7149791601817,644.7072309247815" stroke="grey" stroke-width="5" fill="none" />
<path d="M626.7149791601817,644.7072309247814 L688.3345919999999,715.07620864" stroke="grey" stroke-width="5" />
<circle cx="626.7149791601817" cy="644.7072309247814" r="2.5" fill="grey" stroke="none" />
<circle cx="688.3345919999999" cy="539.07620864" r="5" fill="black" stroke="none" />
<circle cx="688.3345919999999" cy="715.07620864" r="5" fill="black" stroke="none" />
<path d="M688.3345919999999,715.0762086400001 A285.8805590920154,285.8805590920154,0,0,0,727.9999871100814,672.4636191913124" stroke="grey" stroke-width="5" fill="none" />
<path d="M727.9999871100814,672.4636191913124 L784.3345919999999,715.07620864" stroke="grey" stroke-width="5" />
<circle cx="727.9999871100814" cy="672.4636191913124" r="2.5" fill="grey" stroke="none" />
<circle cx="688.3345919999999" cy="715.07620864" r="5" fill="black" stroke="none" />
<circle cx="784.3345919999999" cy="715.07620864" r="5" fill="black" stroke="none" />
<path d="M688.3345919999999,715.0762086400001 A285.8805590920154,285.8805590920154,0,0,1,666.4121052465889,732.4536626817514" stroke="grey" stroke-width="5" fill="none" />
<path d="M666.4121052465889,732.4536626817514 L688.3345919999999,763.07620864" stroke="grey" stroke-width="5" />
<circle cx="666.4121052465889" cy="732.4536626817514" r="2.5" fill="grey" stroke="none" />
<circle cx="688.3345919999999" cy="715.07620864" r="5" fill="black" stroke="none" />
<circle cx="688.3345919999999" cy="763.07620864" r="5" fill="black" stroke="none" />
<path d="M376.334592,339.07620864000006 L393.4694072822929,361.37346608712585" stroke="grey" stroke-width="5" />
<circle cx="393.4694072822929" cy="361.37346608712585" r="2.5" fill="grey" stroke="none" />
<path d="M393.4694072822929,361.37346608712585 A174.83158493099367,174.83158493099367,0,0,1,568.3345919999999,339.07620864000006" stroke="grey" stroke-width="5" fill="none" />
<circle cx="376.334592" cy="339.07620864000006" r="5" fill="black" stroke="none" />
<circle cx="568.3345919999999" cy="339.07620864000006" r="5" fill="black" stroke="none" />
<path d="M568.3345919999999,339.07620864000006 L527.5161536566671,435.2011383915894" stroke="grey" stroke-width="5" />
<circle cx="527.5161536566671" cy="435.2011383915894" r="2.5" fill="grey" stroke="none" />
<path d="M527.5161536566671,435.2011383915894 A70.39908506368012,70.39908506368012,0,0,1,568.3345919999999,483.07620864000006" stroke="grey" stroke-width="5" fill="none" />
<circle cx="568.3345919999999" cy="339.07620864000006" r="5" fill="black" stroke="none" />
<circle cx="568.3345919999999" cy="483.07620864000006" r="5" fill="black" stroke="none" />
<path d="M568.3345919999999,339.07620864000006 A174.83158493099367,174.83158493099367,0,0,0,547.7066181845926,331.8032055273563" stroke="grey" stroke-width="5" fill="none" />
<path d="M547.7066181845926,331.8032055273563 L568.3345919999999,259.07620864000006" stroke="grey" stroke-width="5" />
<circle cx="547.7066181845926" cy="331.8032055273563" r="2.5" fill="grey" stroke="none" />
<circle cx="568.3345919999999" cy="339.07620864000006" r="5" fill="black" stroke="none" />
<circle cx="568.3345919999999" cy="259.07620864000006" r="5" fill="black" stroke="none" />
<path d="M568.3345919999999,259.07620864000006 A250.42741404862855,250.42741404862855,0,0,0,556.1656065290114,255.95222936828225" stroke="grey" stroke-width="5" fill="none" />
<path d="M556.1656065290114,255.95222936828225 L568.3345919999999,203.07620864000006" stroke="grey" stroke-width="5" />
<circle cx="556.1656065290114" cy="255.95222936828225" r="2.5" fill="grey" stroke="none" />
<circle cx="568.3345919999999" cy="259.07620864000006" r="5" fill="black" stroke="none" />
<circle cx="568.3345919999999" cy="203.07620864000006" r="5" fill="black" stroke="none" />
<path d="M568.3345919999999,259.07620864000006 L559.7886843357387,289.2060801271425" stroke="grey" stroke-width="5" />
<circle cx="559.7886843357387" cy="289.2060801271425" r="2.5" fill="grey" stroke="none" />
<path d="M559.7886843357387,289.2060801271425 A219.1090217904394,219.1090217904394,0,0,1,664.334592,355.07620864000006" stroke="grey" stroke-width="5" fill="none" />
<circle cx="568.3345919999999" cy="259.07620864000006" r="5" fill="black" stroke="none" />
<circle cx="664.3345919999999" cy="355.07620864000006" r="5" fill="black" stroke="none" />
<path d="M568.3345919999999,339.07620864000006 A174.83158493099367,174.83158493099367,0,0,1,631.1259433480883,384.36233282119014" stroke="grey" stroke-width="5" fill="none" />
<path d="M631.1259433480882,384.36233282119014 L664.3345919999999,355.07620864000006" stroke="grey" stroke-width="5" />
<circle cx="631.1259433480882" cy="384.36233282119014" r="2.5" fill="grey" stroke="none" />
<circle cx="568.3345919999999" cy="339.07620864000006" r="5" fill="black" stroke="none" />
<circle cx="664.3345919999999" cy="355.07620864000006" r="5" fill="black" stroke="none" />
<path d="M664.334592,355.07620864000006 A219.1090217904394,219.1090217904394,0,0,1,707.2283270501878,428.82989463304347" stroke="grey" stroke-width="5" fill="none" />
<path d="M707.2283270501878,428.82989463304347 L712.3345919999999,427.07620864000006" stroke="grey" stroke-width="5" />
<circle cx="707.2283270501878" cy="428.82989463304347" r="2.5" fill="grey" stroke="none" />
<circle cx="664.3345919999999" cy="355.07620864000006" r="5" fill="black" stroke="none" />
<circle cx="712.3345919999999" cy="427.07620864000006" r="5" fill="black" stroke="none" />
<path d="M664.3345919999999,539.07620864 A168.91657174322262,168.91657174322262,0,0,0,665.3940456428743,534.3164373932678" stroke="grey" stroke-width="5" fill="none" />
<path d="M665.3940456428743,534.3164373932678 L688.3345919999999,539.07620864" stroke="grey" stroke-width="5" />
<circle cx="665.3940456428743" cy="534.3164373932678" r="2.5" fill="grey" stroke="none" />
<circle cx="664.3345919999999" cy="539.07620864" r="5" fill="black" stroke="none" />
<circle cx="688.3345919999999" cy="539.07620864" r="5" fill="black" stroke="none" />
<path d="M688.3345919999999,539.07620864 A192.34570082401964,192.34570082401964,0,0,0,689.169030829479,534.8130205601136" stroke="grey" stroke-width="5" fill="none" />
<path d="M689.169030829479,534.8130205601136 L712.3345919999999,539.07620864" stroke="grey" stroke-width="5" />
<circle cx="689.169030829479" cy="534.8130205601136" r="2.5" fill="grey" stroke="none" />
<circle cx="688.3345919999999" cy="539.07620864" r="5" fill="black" stroke="none" />
<circle cx="712.3345919999999" cy="539.07620864" r="5" fill="black" stroke="none" />
<path d="M712.3345919999999,539.07620864 L709.490050240002,538.5527239536289" stroke="grey" stroke-width="5" />
<circle cx="709.490050240002" cy="538.5527239536289" r="2.5" fill="grey" stroke="none" />
<path d="M709.490050240002,538.5527239536289 A213.00796622146146,213.00796622146146,0,0,0,712.3345919999999,483.07620864000006" stroke="grey" stroke-width="5" fill="none" />
<circle cx="712.3345919999999" cy="539.07620864" r="5" fill="black" stroke="none" />
<circle cx="712.3345919999999" cy="483.07620864000006" r="5" fill="black" stroke="none" />
<path d="M712.3345919999999,483.07620864000006 A213.00796622146146,213.00796622146146,0,0,0,710.492619214131,467.36181790941555" stroke="grey" stroke-width="5" fill="none" />
<path d="M710.492619214131,467.36181790941555 L712.3345919999999,467.07620864000006" stroke="grey" stroke-width="5" />
<circle cx="710.492619214131" cy="467.36181790941555" r="2.5" fill="grey" stroke="none" />
<circle cx="712.3345919999999" cy="483.07620864000006" r="5" fill="black" stroke="none" />
<circle cx="712.3345919999999" cy="467.07620864000006" r="5" fill="black" stroke="none" />
<path d="M712.3345919999999,467.07620864000006 A214.87195023390854,214.87195023390854,0,0,0,709.3858525337705,451.75562461768874" stroke="grey" stroke-width="5" fill="none" />
<path d="M709.3858525337705,451.75562461768874 L712.3345919999999,451.07620864000006" stroke="grey" stroke-width="5" />
<circle cx="709.3858525337705" cy="451.75562461768874" r="2.5" fill="grey" stroke="none" />
<circle cx="712.3345919999999" cy="467.07620864000006" r="5" fill="black" stroke="none" />
<circle cx="712.3345919999999" cy="451.07620864000006" r="5" fill="black" stroke="none" />
<path d="M712.3345919999999,451.07620864000006 A217.8979493268426,217.8979493268426,0,0,0,706.0829222717038,429.22327028748657" stroke="grey" stroke-width="5" fill="none" />
<path d="M706.0829222717038,429.22327028748657 L712.3345919999999,427.07620864000006" stroke="grey" stroke-width="5" />
<circle cx="706.0829222717038" cy="429.22327028748657" r="2.5" fill="grey" stroke="none" />
<circle cx="712.3345919999999" cy="451.07620864000006" r="5" fill="black" stroke="none" />
<circle cx="712.3345919999999" cy="427.07620864000006" r="5" fill="black" stroke="none" />
<path d="M712.334592,427.07620864000006 A224.508036172702,224.508036172702,0,0,1,716.1866685657219,439.4427325535741" stroke="grey" stroke-width="5" fill="none" />
<path d="M716.1866685657219,439.4427325535741 L760.3345919999999,427.07620864000006" stroke="grey" stroke-width="5" />
<circle cx="716.1866685657219" cy="439.4427325535741" r="2.5" fill="grey" stroke="none" />
<circle cx="712.3345919999999" cy="427.07620864000006" r="5" fill="black" stroke="none" />
<circle cx="760.3345919999999" cy="427.07620864000006" r="5" fill="black" stroke="none" />
<path d="M760.3345919999999,427.07620864000006 L752.682089417309,429.21979431347836" stroke="grey" stroke-width="5" />
<circle cx="752.682089417309" cy="429.21979431347836" r="2.5" fill="grey" stroke="none" />
<path d="M752.682089417309,429.21979431347836 A262.4082236312789,262.4082236312789,0,0,1,760.3345919999999,467.07620864000006" stroke="grey" stroke-width="5" fill="none" />
<circle cx="760.3345919999999" cy="427.07620864000006" r="5" fill="black" stroke="none" />
<circle cx="760.3345919999999" cy="467.07620864000006" r="5" fill="black" stroke="none" />
<path d="M760.3345919999999,467.07620864000006 L713.1739650621264,473.0404818845996" stroke="grey" stroke-width="5" />
<circle cx="713.1739650621264" cy="473.0404818845996" r="2.5" fill="grey" stroke="none" />
<path d="M713.1739650621264,473.0404818845996 A214.87195023390854,214.87195023390854,0,0,0,712.3345919999999,467.07620864000006" stroke="grey" stroke-width="5" fill="none" />
<circle cx="760.3345919999999" cy="467.07620864000006" r="5" fill="black" stroke="none" />
<circle cx="712.3345919999999" cy="467.07620864000006" r="5" fill="black" stroke="none" />
<path d="M712.3345919999999,451.07620864000006 A217.8979493268426,217.8979493268426,0,0,1,714.9091602863006,464.03377770907196" stroke="grey" stroke-width="5" fill="none" />
<path d="M714.9091602863006,464.03377770907196 L792.3345919999999,451.07620864000006" stroke="grey" stroke-width="5" />
<circle cx="714.9091602863006" cy="464.03377770907196" r="2.5" fill="grey" stroke="none" />
<circle cx="712.3345919999999" cy="451.07620864000006" r="5" fill="black" stroke="none" />
<circle cx="792.3345919999999" cy="451.07620864000006" r="5" fill="black" stroke="none" />
<circle cx="500" cy="500" r="5" fill="red" stroke="none" />
</svg>