<?xml version="1.0" encoding="UTF-8"?>
<svg xmlns="http://www.w3.org/2000/svg" xmlns:xlink="http://www.w3.org/1999/xlink"
     width="1000" height="1000" viewBox="0 0 1000 1000">
<defs>
</defs>
<rect x="0" y="0" width="1000" height="1000" fill="white" />
<path d="M146.14847199999997,330.20186623999996 L174.11263805699633,343.62066715763433" stroke="grey" stroke-width="5" />
<circle cx="174.11263805699633" cy="343.62066715763433" r="2.5" fill="grey" stroke="none" />
<path d="M174.11263805699633,343.62066715763433 A361.4651690196355,361.4651690196355,0,0,0,146.14847199999997,426.20186624" stroke="grey" stroke-width="5" fill="none" />
<circle cx="146.14847199999997" cy="330.20186623999996" r="5" fill="black" stroke="none" />
<circle cx="146.14847199999997" cy="426.20186623999996" r="5" fill="black" stroke="none" />
<path d="M146.14847199999997,426.20186623999996 L215.7192671016083,440.7113269500243" stroke="grey" stroke-width="5" />
<circle cx="215.7192671016083" cy="440.7113269500243" r="2.5" fill="grey" stroke="none" />
<path d="M215.7192671016083,440.7113269500243 A290.39745496349246,290.39745496349246,0,0,0,210.14847200000003,482.2018662400001" stroke="grey" stroke-width="5" fill="none" />
<circle cx="146.14847199999997" cy="426.20186623999996" r="5" fill="black" stroke="none" />
<circle cx="210.14847199999997" cy="482.20186623999996" r="5" fill="black" stroke="none" />
<path d="M122.14847199999997,482.20186623999996 L209.9241682752957,486.3364097509232" stroke="grey" stroke-width="5" />
<circle cx="209.9241682752957" cy="486.3364097509232" r="2.5" fill="grey" stroke="none" />
<path d="M209.9241682752957,486.3364097509232 A290.39745496349246,290.39745496349246,0,0,1,210.14847200000003,482.2018662400001" stroke="grey" stroke-width="5" fill="none" />
<circle cx="122.14847199999997" cy="482.20186623999996" r="5" fill="black" stroke="none" />
<circle cx="210.14847199999997" cy="482.20186623999996" r="5" fill="black" stroke="none" />
<path d="M210.14847199999997,482.20186623999996 L282.0964638763752,486.6197832060238" stroke="grey" stroke-width="5" />
<circle cx="282.0964638763752" cy="486.6197832060238" r="2.5" fill="grey" stroke="none" />
<path d="M282.0964638763752,486.61978320602384 A218.31395112688892,218.31395112688892,0,0,0,282.14847199999997,514.2018662400001" stroke="grey" stroke-width="5" fill="none" />
<circle cx="210.14847199999997" cy="482.20186623999996" r="5" fill="black" stroke="none" />
<circle cx="282.14847199999997" cy="514.20186624" r="5" fill="black" stroke="none" />
<path d="M282.14847199999997,514.20186624 L296.33382631931886,513.277114844132" stroke="grey" stroke-width="5" />
<circle cx="296.33382631931886" cy="513.277114844132" r="2.5" fill="grey" stroke="none" />
<path d="M296.33382631931886,513.277114844132 A204.09848622739378,204.09848622739378,0,0,0,298.14847199999997,530.20186624" stroke="grey" stroke-width="5" fill="none" />
<circle cx="282.14847199999997" cy="514.20186624" r="5" fill="black" stroke="none" />
<circle cx="298.14847199999997" cy="530.20186624" r="5" fill="black" stroke="none" />
<path d="M298.14847199999997,530.20186624 L321.10850026647415,526.7664911926004" stroke="grey" stroke-width="5" />
<circle cx="321.10850026647415" cy="526.7664911926004" r="2.5" fill="grey" stroke="none" />
<path d="M321.10850026647415,526.7664911926004 A180.88287295284107,180.88287295284107,0,0,0,330.14847199999997,562.20186624" stroke="grey" stroke-width="5" fill="none" />
<circle cx="298.14847199999997" cy="530.20186624" r="5" fill="black" stroke="none" />
<circle cx="330.14847199999997" cy="562.20186624" r="5" fill="black" stroke="none" />
<path d="M298.14847199999997,530.20186624 A204.09848622739378,204.09848622739378,0,0,0,320.1970727581312,596.576909432684" stroke="grey" stroke-width="5" fill="none" />
<path d="M320.1970727581312,596.576909432684 L-249.85152800000003,134.20186624" stroke="grey" stroke-width="5" />
<circle cx="320.1970727581312" cy="596.576909432684" r="2.5" fill="grey" stroke="none" />
<circle cx="298.14847199999997" cy="530.20186624" r="5" fill="black" stroke="none" />
<circle cx="250.14847199999997" cy="634.20186624" r="5" fill="black" stroke="none" />
<path d="M250.148472,634.2018662400001 A283.61228278449727,283.61228278449727,0,0,0,284.68398921383744,684.5939935246181" stroke="grey" stroke-width="5" fill="none" />
<path d="M284.6839892138375,684.5939935246182 L-249.85152800000003,214.20186624" stroke="grey" stroke-width="5" />
<circle cx="284.6839892138375" cy="684.5939935246182" r="2.5" fill="grey" stroke="none" />
<circle cx="250.14847199999997" cy="634.20186624" r="5" fill="black" stroke="none" />
<circle cx="250.14847199999997" cy="714.20186624" r="5" fill="black" stroke="none" />
<path d="M146.14847199999997,730.20186624 L224.13709100501893,679.4655426132283" stroke="grey" stroke-width="5" />
<circle cx="224.13709100501893" cy="679.4655426132283" r="2.5" fill="grey" stroke="none" />
<path d="M224.13709100501904,679.4655426132283 A329.10215062292383,329.10215062292383,0,0,0,250.14847199999988,714.2018662399998" stroke="grey" stroke-width="5" fill="none" />
<circle cx="146.14847199999997" cy="730.20186624" r="5" fill="black" stroke="none" />
<circle cx="250.14847199999997" cy="714.20186624" r="5" fill="black" stroke="none" />
<path d="M250.14847199999988,714.2018662399998 A329.10215062292383,329.10215062292383,0,0,0,302.94269022893354,763.5842222334705" stroke="grey" stroke-width="5" fill="none" />
<path d="M302.94269022893354,763.5842222334705 L-249.85152800000003,334.20186623999996" stroke="grey" stroke-width="5" />
<circle cx="302.94269022893354" cy="763.5842222334705" r="2.5" fill="grey" stroke="none" />
<circle cx="250.14847199999997" cy="714.20186624" r="5" fill="black" stroke="none" />
<circle cx="250.14847199999997" cy="834.20186624" r="5" fill="black" stroke="none" />
<path d="M250.14847199999997,634.20186624 L309.29738648030104,602.4314193155107" stroke="grey" stroke-width="5" />
<circle cx="309.29738648030104" cy="602.4314193155107" r="2.5" fill="grey" stroke="none" />
<path d="M309.29738648030104,602.4314193155107 A216.47097372681088,216.47097372681088,0,0,0,330.14847199999997,634.20186624" stroke="grey" stroke-width="5" fill="none" />
<circle cx="250.14847199999997" cy="634.20186624" r="5" fill="black" stroke="none" />
<circle cx="330.14847199999997" cy="634.20186624" r="5" fill="black" stroke="none" />
<path d="M330.14847199999997,562.20186624 A180.88287295284107,180.88287295284107,0,0,0,358.0722771689333,612.1389103730795" stroke="grey" stroke-width="5" fill="none" />
<path d="M358.0722771689333,612.1389103730795 L-169.85152800000003,134.20186624" stroke="grey" stroke-width="5" />
<circle cx="358.0722771689333" cy="612.1389103730795" r="2.5" fill="grey" stroke="none" />
<circle cx="330.14847199999997" cy="562.20186624" r="5" fill="black" stroke="none" />
<circle cx="330.14847199999997" cy="634.20186624" r="5" fill="black" stroke="none" />
<path d="M330.14847199999997,634.20186624 L369.6812897629642,602.9664809362209" stroke="grey" stroke-width="5" />
<circle cx="369.6812897629642" cy="602.9664809362209" r="2.5" fill="grey" stroke="none" />
<path d="M369.6812897629642,602.9664809362209 A166.08751438393446,166.08751438393446,0,0,0,402.14847199999997,634.20186624" stroke="grey" stroke-width="5" fill="none" />
<circle cx="330.14847199999997" cy="634.20186624" r="5" fill="black" stroke="none" />
<circle cx="402.14847199999997" cy="634.20186624" r="5" fill="black" stroke="none" />
<path d="M330.14847199999997,562.20186624 L364.79996306798716,549.5120339034461" stroke="grey" stroke-width="5" />
<circle cx="364.79996306798716" cy="549.5120339034461" r="2.5" fill="grey" stroke="none" />
<path d="M364.79996306798716,549.5120339034461 A143.98087195066446,143.98087195066446,0,0,0,370.14847199999997,562.20186624" stroke="grey" stroke-width="5" fill="none" />
<circle cx="330.14847199999997" cy="562.20186624" r="5" fill="black" stroke="none" />
<circle cx="370.14847199999997" cy="562.20186624" r="5" fill="black" stroke="none" />
<path d="M402.14847199999997,634.20186624 L444.1976967958411,576.5320009155957" stroke="grey" stroke-width="5" />
<circle cx="444.1976967958411" cy="576.5320009155957" r="2.5" fill="grey" stroke="none" />
<path d="M444.1976967958411,576.5320009155957 A94.71559642969913,94.71559642969913,0,0,0,490.14847199999997,594.20186624" stroke="grey" stroke-width="5" fill="none" />
<circle cx="402.14847199999997" cy="634.20186624" r="5" fill="black" stroke="none" />
<circle cx="490.14847199999997" cy="594.20186624" r="5" fill="black" stroke="none" />
<path d="M370.14847199999997,562.20186624 L442.469317369255,527.5585191858004" stroke="grey" stroke-width="5" />
<circle cx="442.469317369255" cy="527.5585191858004" r="2.5" fill="grey" stroke="none" />
<path d="M442.469317369255,527.5585191858004 A63.79068445841942,63.79068445841942,0,0,0,514.148472,562.20186624" stroke="grey" stroke-width="5" fill="none" />
<circle cx="370.14847199999997" cy="562.20186624" r="5" fill="black" stroke="none" />
<circle cx="514.148472" cy="562.20186624" r="5" fill="black" stroke="none" />
<path d="M490.14847199999997,594.20186624 L493.36502394779586,563.44468863869" stroke="grey" stroke-width="5" />
<circle cx="493.36502394779586" cy="563.44468863869" r="2.5" fill="grey" stroke="none" />
<path d="M493.36502394779586,563.44468863869 A63.79068445841942,63.79068445841942,0,0,0,514.148472,562.20186624" stroke="grey" stroke-width="5" fill="none" />
<circle cx="490.14847199999997" cy="594.20186624" r="5" fill="black" stroke="none" />
<circle cx="514.148472" cy="562.20186624" r="5" fill="black" stroke="none" />
<path d="M250.14847199999997,714.20186624 L309.83223522196226,663.0339843834977" stroke="grey" stroke-width="5" />
<circle cx="309.83223522196226" cy="663.0339843834977" r="2.5" fill="grey" stroke="none" />
<path d="M309.83223522196215,663.0339843834976 A250.48724283810074,250.48724283810074,0,0,0,370.1484719999999,714.20186624" stroke="grey" stroke-width="5" fill="none" />
<circle cx="250.14847199999997" cy="714.20186624" r="5" fill="black" stroke="none" />
<circle cx="370.14847199999997" cy="714.20186624" r="5" fill="black" stroke="none" />
<path d="M370.14847199999997,714.20186624 L436.2613325750354,605.1427097113414" stroke="grey" stroke-width="5" />
<circle cx="436.2613325750354" cy="605.1427097113414" r="2.5" fill="grey" stroke="none" />
<path d="M436.2613325750354,605.1427097113414 A122.95367880040692,122.95367880040692,0,0,0,466.1484719999999,618.20186624" stroke="grey" stroke-width="5" fill="none" />
<circle cx="370.14847199999997" cy="714.20186624" r="5" fill="black" stroke="none" />
<circle cx="466.14847199999997" cy="618.20186624" r="5" fill="black" stroke="none" />
<path d="M466.14847199999997,618.20186624 L473.92296272987926,591.0551060306141" stroke="grey" stroke-width="5" />
<circle cx="473.92296272987926" cy="591.0551060306141" r="2.5" fill="grey" stroke="none" />
<path d="M473.92296272987926,591.0551060306141 A94.71559642969913,94.71559642969913,0,0,0,490.14847199999997,594.20186624" stroke="grey" stroke-width="5" fill="none" />
<circle cx="466.14847199999997" cy="618.20186624" r="5" fill="black" stroke="none" />
<circle cx="490.14847199999997" cy="594.20186624" r="5" fill="black" stroke="none" />
<path d="M490.14847199999997,594.20186624 A94.71559642969913,94.71559642969913,0,0,0,492.13320943041424,594.3883351541276" stroke="grey" stroke-width="5" fill="none" />
<path d="M492.1332094304142,594.3883351541275 L-9.85152800000003,118.20186623999999" stroke="grey" stroke-width="5" />
<circle cx="492.1332094304142" cy="594.3883351541275" r="2.5" fill="grey" stroke="none" />
<circle cx="490.14847199999997" cy="594.20186624" r="5" fill="black" stroke="none" />
<circle cx="490.14847199999997" cy="618.20186624" r="5" fill="black" stroke="none" />
<path d="M490.148472,618.20186624 A118.61169329603904,118.61169329603904,0,0,0,496.0304403635801,618.5452503597108" stroke="grey" stroke-width="5" fill="none" />
<path d="M496.0304403635801,618.5452503597108 L-9.85152800000003,294.20186623999996" stroke="grey" stroke-width="5" />
<circle cx="496.0304403635801" cy="618.5452503597108" r="2.5" fill="grey" stroke="none" />
<circle cx="490.14847199999997" cy="618.20186624" r="5" fill="black" stroke="none" />
<circle cx="490.14847199999997" cy="794.20186624" r="5" fill="black" stroke="none" />
<path d="M490.148472,794.20186624 A294.3667622253464,294.3667622253464,0,0,0,582.7231731422925,782.504278424777" stroke="grey" stroke-width="5" fill="none" />
<path d="M582.7231731422925,782.504278424777 L86.14847199999997,294.20186623999996" stroke="grey" stroke-width="5" />
<circle cx="582.7231731422925" cy="782.504278424777" r="2.5" fill="grey" stroke="none" />
<circle cx="490.14847199999997" cy="794.20186624" r="5" fill="black" stroke="none" />
<circle cx="586.148472" cy="794.20186624" r="5" fill="black" stroke="none" />
<path d="M490.148472,794.20186624 A294.3667622253464,294.3667622253464,0,0,0,491.5290893810095,794.2448544602246" stroke="grey" stroke-width="5" fill="none" />
<path d="M491.5290893810094,794.2448544602246 L-9.85152800000003,342.20186623999996" stroke="grey" stroke-width="5" />
<circle cx="491.5290893810094" cy="794.2448544602246" r="2.5" fill="grey" stroke="none" />
<circle cx="490.14847199999997" cy="794.20186624" r="5" fill="black" stroke="none" />
<circle cx="490.14847199999997" cy="842.20186624" r="5" fill="black" stroke="none" />
<path d="M178.14847199999997,418.20186623999996 L351.2607268387914,462.19811340648437" stroke="grey" stroke-width="5" />
<circle cx="351.2607268387914" cy="462.19811340648437" r="2.5" fill="grey" stroke="none" />
<path d="M351.26072683879136,462.1981134064844 A153.46776212140986,153.46776212140986,0,0,1,370.14847199999997,418.20186623999996" stroke="grey" stroke-width="5" fill="none" />
<circle cx="178.14847199999997" cy="418.20186623999996" r="5" fill="black" stroke="none" />
<circle cx="370.14847199999997" cy="418.20186623999996" r="5" fill="black" stroke="none" />
<path d="M370.14847199999997,418.20186623999996 L378.175481500959,423.2583673606663" stroke="grey" stroke-width="5" />
<circle cx="378.175481500959" cy="423.2583673606663" r="2.5" fill="grey" stroke="none" />
<path d="M378.175481500959,423.2583673606663 A143.98087195066446,143.98087195066446,0,0,0,370.14847199999997,562.20186624" stroke="grey" stroke-width="5" fill="none" />
<circle cx="370.14847199999997" cy="418.20186623999996" r="5" fill="black" stroke="none" />
<circle cx="370.14847199999997" cy="562.20186624" r="5" fill="black" stroke="none" />
<path d="M370.14847199999997,418.20186623999996 A153.46776212140986,153.46776212140986,0,0,1,403.9432665321915,380.3109947988202" stroke="grey" stroke-width="5" fill="none" />
<path d="M403.9432665321915,380.3109947988202 L-129.85152800000003,-161.79813376" stroke="grey" stroke-width="5" />
<circle cx="403.9432665321915" cy="380.3109947988202" r="2.5" fill="grey" stroke="none" />
<circle cx="370.14847199999997" cy="418.20186623999996" r="5" fill="black" stroke="none" />
<circle cx="370.14847199999997" cy="338.20186623999996" r="5" fill="black" stroke="none" />
<path d="M370.14847199999997,338.20186624 A207.4609732266617,207.4609732266617,0,0,1,393.76035450786526,321.80574325231703" stroke="grey" stroke-width="5" fill="none" />
<path d="M393.76035450786526,321.80574325231703 L-129.85152800000003,-217.79813376" stroke="grey" stroke-width="5" />
<circle cx="393.76035450786526" cy="321.80574325231703" r="2.5" fill="grey" stroke="none" />
<circle cx="370.14847199999997" cy="338.20186623999996" r="5" fill="black" stroke="none" />
<circle cx="370.14847199999997" cy="282.20186623999996" r="5" fill="black" stroke="none" />
<path d="M370.14847199999997,338.20186623999996 L453.6856662738877,442.2912238412567" stroke="grey" stroke-width="5" />
<circle cx="453.6856662738877" cy="442.2912238412567" r="2.5" fill="grey" stroke="none" />
<path d="M453.6856662738877,442.2912238412567 A73.99540765637852,73.99540765637852,0,0,1,466.14847199999997,434.20186623999996" stroke="grey" stroke-width="5" fill="none" />
<circle cx="370.14847199999997" cy="338.20186623999996" r="5" fill="black" stroke="none" />
<circle cx="466.14847199999997" cy="434.20186623999996" r="5" fill="black" stroke="none" />
<path d="M370.14847199999997,418.20186623999996 L437.3913021448613,460.5605361710179" stroke="grey" stroke-width="5" />
<circle cx="437.3913021448613" cy="460.5605361710179" r="2.5" fill="grey" stroke="none" />
<path d="M437.3913021448613,460.5605361710179 A73.99540765637852,73.99540765637852,0,0,1,466.14847199999997,434.20186623999996" stroke="grey" stroke-width="5" fill="none" />
<circle cx="370.14847199999997" cy="418.20186623999996" r="5" fill="black" stroke="none" />
<circle cx="466.14847199999997" cy="434.20186623999996" r="5" fill="black" stroke="none" />
<path d="M466.14847199999997,434.20186623999996 L492.9328010400106,486.2632935660123" stroke="grey" stroke-width="5" />
<circle cx="492.9328010400106" cy="486.2632935660123" r="2.5" fill="grey" stroke="none" />
<path d="M492.9328010400106,486.2632935660123 A15.448055048893202,15.448055048893202,0,0,1,514.148472,506.20186623999996" stroke="grey" stroke-width="5" fill="none" />
<circle cx="466.14847199999997" cy="434.20186623999996" r="5" fill="black" stroke="none" />
<circle cx="514.148472" cy="506.20186623999996" r="5" fill="black" stroke="none" />
<path d="M466.14847199999997,618.20186624 L467.34390466464845,614.0276862169976" stroke="grey" stroke-width="5" />
<circle cx="467.34390466464845" cy="614.0276862169976" r="2.5" fill="grey" stroke="none" />
<path d="M467.3439046646484,614.0276862169976 A118.61169329603904,118.61169329603904,0,0,0,490.148472,618.20186624" stroke="grey" stroke-width="5" fill="none" />
<circle cx="466.14847199999997" cy="618.20186624" r="5" fill="black" stroke="none" />
<circle cx="490.14847199999997" cy="618.20186624" r="5" fill="black" stroke="none" />
<path d="M490.148472,618.20186624 A118.61169329603904,118.61169329603904,0,0,0,514.0968997769439,617.7710117271328" stroke="grey" stroke-width="5" fill="none" />
<path d="M514.0968997769439,617.7710117271328 L14.14847199999997,118.20186623999999" stroke="grey" stroke-width="5" />
<circle cx="514.0968997769439" cy="617.7710117271328" r="2.5" fill="grey" stroke="none" />
<circle cx="490.14847199999997" cy="618.20186624" r="5" fill="black" stroke="none" />
<circle cx="514.148472" cy="618.20186624" r="5" fill="black" stroke="none" />
<path d="M514.148472,618.20186624 L507.5814690822142,563.338556584667" stroke="grey" stroke-width="5" />
<circle cx="507.5814690822142" cy="563.338556584667" r="2.5" fill="grey" stroke="none" />
<path d="M507.5814690822142,563.338556584667 A63.79068445841942,63.79068445841942,0,0,0,514.148472,562.20186624" stroke="grey" stroke-width="5" fill="none" />
<circle cx="514.148472" cy="618.20186624" r="5" fill="black" stroke="none" />
<circle cx="514.148472" cy="562.20186624" r="5" fill="black" stroke="none" />
<path d="M514.148472,562.20186624 L510.717076933954,547.1161964295225" stroke="grey" stroke-width="5" />
<circle cx="510.717076933954" cy="547.1161964295225" r="2.5" fill="grey" stroke="none" />
<path d="M510.717076933954,547.1161964295225 A48.31968236643981,48.31968236643981,0,0,0,514.148472,546.20186624" stroke="grey" stroke-width="5" fill="none" />
<circle cx="514.148472" cy="562.20186624" r="5" fill="black" stroke="none" />
<circle cx="514.148472" cy="546.20186624" r="5" fill="black" stroke="none" />
<path d="M514.148472,546.20186624 L509.76568432247115,531.8898634996683" stroke="grey" stroke-width="5" />
<circle cx="509.76568432247115" cy="531.8898634996683" r="2.5" fill="grey" stroke="none" />
<path d="M509.76568432247115,531.8898634996683 A33.35164140358963,33.35164140358963,0,0,0,514.148472,530.20186624" stroke="grey" stroke-width="5" fill="none" />
<circle cx="514.148472" cy="546.20186624" r="5" fill="black" stroke="none" />
<circle cx="514.148472" cy="530.20186624" r="5" fill="black" stroke="none" />
<path d="M514.148472,530.20186624 L506.55339183067014,513.989119354246" stroke="grey" stroke-width="5" />
<circle cx="506.55339183067014" cy="513.989119354246" r="2.5" fill="grey" stroke="none" />
<path d="M506.55339183067014,513.989119354246 A15.448055048893202,15.448055048893202,0,0,0,514.148472,506.20186623999996" stroke="grey" stroke-width="5" fill="none" />
<circle cx="514.148472" cy="530.20186624" r="5" fill="black" stroke="none" />
<circle cx="514.148472" cy="506.20186623999996" r="5" fill="black" stroke="none" />
<path d="M514.148472,506.20186623999996 A15.448055048893202,15.448055048893202,0,0,0,515.3717068515049,501.5339599946001" stroke="grey" stroke-width="5" fill="none" />
<path d="M515.3717068515049,501.5339599946001 L62.14847199999997,6.201866239999987" stroke="grey" stroke-width="5" />
<circle cx="515.3717068515049" cy="501.5339599946001" r="2.5" fill="grey" stroke="none" />
<circle cx="514.148472" cy="506.20186623999996" r="5" fill="black" stroke="none" />
<circle cx="562.148472" cy="506.20186623999996" r="5" fill="black" stroke="none" />
<path d="M562.148472,506.20186624 A62.457151046086246,62.457151046086246,0,0,1,550.1237980133246,537.2625896780278" stroke="grey" stroke-width="5" fill="none" />
<path d="M550.1237980133246,537.2625896780278 L62.14847199999997,46.20186623999999" stroke="grey" stroke-width="5" />
<circle cx="550.1237980133246" cy="537.2625896780278" r="2.5" fill="grey" stroke="none" />
<circle cx="562.148472" cy="506.20186623999996" r="5" fill="black" stroke="none" />
<circle cx="562.148472" cy="546.20186624" r="5" fill="black" stroke="none" />
<path d="M562.148472,546.20186624 L538.7780415603058,528.8280279717643" stroke="grey" stroke-width="5" />
<circle cx="538.7780415603058" cy="528.8280279717643" r="2.5" fill="grey" stroke="none" />
<path d="M538.7780415603058,528.8280279717643 A48.31968236643981,48.31968236643981,0,0,1,514.148472,546.20186624" stroke="grey" stroke-width="5" fill="none" />
<circle cx="562.148472" cy="546.20186624" r="5" fill="black" stroke="none" />
<circle cx="514.148472" cy="546.20186624" r="5" fill="black" stroke="none" />
<path d="M514.148472,530.20186624 A33.35164140358963,33.35164140358963,0,0,0,531.7576200477847,510.1875194828859" stroke="grey" stroke-width="5" fill="none" />
<path d="M531.7576200477847,510.1875194828859 L94.14847199999997,30.201866239999987" stroke="grey" stroke-width="5" />
<circle cx="531.7576200477847" cy="510.1875194828859" r="2.5" fill="grey" stroke="none" />
<circle cx="514.148472" cy="530.20186624" r="5" fill="black" stroke="none" />
<circle cx="594.148472" cy="530.20186624" r="5" fill="black" stroke="none" />
<circle cx="500" cy="500" r="5" fill="red" stroke="none" />
</svg>