<?xml version="1.0" encoding="UTF-8"?>
<svg xmlns="http://www.w3.org/2000/svg" xmlns:xlink="http://www.w3.org/1999/xlink"
     width="1000" height="1000" viewBox="0 0 1000 1000">
<defs>
</defs>
<rect x="0" y="0" width="1000" height="1000" fill="white" />
<path d="M242.09843199999995,263.02997503999995 L283.57400838041906,301.1393531500947" stroke="grey" stroke-width="5" />
<circle cx="283.57400838041906" cy="301.1393531500947" r="2.5" fill="grey" stroke="none" />
<path d="M283.57400838041895,301.1393531500948 A293.9145568257579,293.9145568257579,0,0,0,242.09843199999995,359.0299750399999" stroke="grey" stroke-width="5" fill="none" />
<circle cx="242.09843199999995" cy="263.02997503999995" r="5" fill="black" stroke="none" />
<circle cx="242.09843199999995" cy="359.02997503999995" r="5" fill="black" stroke="none" />
<path d="M242.09843199999995,359.02997503999995 L314.2376136083066,398.4615392246619" stroke="grey" stroke-width="5" />
<circle cx="314.2376136083066" cy="398.4615392246619" r="2.5" fill="grey" stroke="none" />
<path d="M314.2376136083066,398.4615392246619 A211.70196790431984,211.70196790431984,0,0,0,306.09843199999995,415.02997503999995" stroke="grey" stroke-width="5" fill="none" />
<circle cx="242.09843199999995" cy="359.02997503999995" r="5" fill="black" stroke="none" />
<circle cx="306.09843199999995" cy="415.02997503999995" r="5" fill="black" stroke="none" />
<path d="M218.09843199999995,415.02997503999995 L297.30553244352063,438.90436974253385" stroke="grey" stroke-width="5" />
<circle cx="297.30553244352063" cy="438.90436974253385" r="2.5" fill="grey" stroke="none" />
<path d="M297.30553244352063,438.90436974253385 A211.70196790431984,211.70196790431984,0,0,1,306.09843199999995,415.02997503999995" stroke="grey" stroke-width="5" fill="none" />
<circle cx="218.09843199999995" cy="415.02997503999995" r="5" fill="black" stroke="none" />
<circle cx="306.09843199999995" cy="415.02997503999995" r="5" fill="black" stroke="none" />
<path d="M306.09843199999995,415.02997503999995 L378.26280937308644,446.6532827309105" stroke="grey" stroke-width="5" />
<circle cx="378.26280937308644" cy="446.6532827309105" r="2.5" fill="grey" stroke="none" />
<path d="M378.26280937308644,446.6532827309105 A132.91281287039885,132.91281287039885,0,0,0,378.09843199999995,447.02997503999995" stroke="grey" stroke-width="5" fill="none" />
<circle cx="306.09843199999995" cy="415.02997503999995" r="5" fill="black" stroke="none" />
<circle cx="378.09843199999995" cy="447.02997503999995" r="5" fill="black" stroke="none" />
<path d="M378.09843199999995,447.02997503999995 L397.123546042897,455.2969791667976" stroke="grey" stroke-width="5" />
<circle cx="397.123546042897" cy="455.2969791667976" r="2.5" fill="grey" stroke="none" />
<path d="M397.123546042897,455.2969791667976 A112.1691795922644,112.1691795922644,0,0,0,394.09843199999995,463.0299750399999" stroke="grey" stroke-width="5" fill="none" />
<circle cx="378.09843199999995" cy="447.02997503999995" r="5" fill="black" stroke="none" />
<circle cx="394.09843199999995" cy="463.02997503999995" r="5" fill="black" stroke="none" />
<path d="M394.09843199999995,463.02997503999995 L430.07018088991447,475.58764042145106" stroke="grey" stroke-width="5" />
<circle cx="430.07018088991447" cy="475.58764042145106" r="2.5" fill="grey" stroke="none" />
<path d="M430.07018088991447,475.58764042145106 A74.06850140890968,74.06850140890968,0,0,0,426.09843199999995,495.0299750399999" stroke="grey" stroke-width="5" fill="none" />
<circle cx="394.09843199999995" cy="463.02997503999995" r="5" fill="black" stroke="none" />
<circle cx="426.09843199999995" cy="495.02997503999995" r="5" fill="black" stroke="none" />
<path d="M394.09843199999995,463.0299750399999 A112.1691795922644,112.1691795922644,0,0,0,397.16142910098614,544.7901014271029" stroke="grey" stroke-width="5" fill="none" />
<path d="M397.16142910098614,544.7901014271029 L-153.90156800000005,67.02997503999995" stroke="grey" stroke-width="5" />
<circle cx="397.16142910098614" cy="544.7901014271029" r="2.5" fill="grey" stroke="none" />
<circle cx="394.09843199999995" cy="463.02997503999995" r="5" fill="black" stroke="none" />
<circle cx="346.09843199999995" cy="567.02997504" r="5" fill="black" stroke="none" />
<path d="M346.09843199999995,567.02997504 A167.86515477228042,167.86515477228042,0,0,0,378.62263855159586,615.9579506310158" stroke="grey" stroke-width="5" fill="none" />
<path d="M378.6226385515958,615.9579506310158 L-153.90156800000005,147.02997503999995" stroke="grey" stroke-width="5" />
<circle cx="378.6226385515958" cy="615.9579506310158" r="2.5" fill="grey" stroke="none" />
<circle cx="346.09843199999995" cy="567.02997504" r="5" fill="black" stroke="none" />
<circle cx="346.09843199999995" cy="647.02997504" r="5" fill="black" stroke="none" />
<path d="M242.09843199999995,663.02997504 L320.0865095227419,613.7305681750126" stroke="grey" stroke-width="5" />
<circle cx="320.0865095227419" cy="613.7305681750126" r="2.5" fill="grey" stroke="none" />
<path d="M320.0865095227419,613.7305681750126 A212.84620314471584,212.84620314471584,0,0,0,346.098432,647.0299750400001" stroke="grey" stroke-width="5" fill="none" />
<circle cx="242.09843199999995" cy="663.02997504" r="5" fill="black" stroke="none" />
<circle cx="346.09843199999995" cy="647.02997504" r="5" fill="black" stroke="none" />
<path d="M346.098432,647.0299750400001 A212.84620314471584,212.84620314471584,0,0,0,393.71587352633736,684.4103865102293" stroke="grey" stroke-width="5" fill="none" />
<path d="M393.71587352633736,684.4103865102293 L-153.90156800000005,267.02997503999995" stroke="grey" stroke-width="5" />
<circle cx="393.71587352633736" cy="684.4103865102293" r="2.5" fill="grey" stroke="none" />
<circle cx="346.09843199999995" cy="647.02997504" r="5" fill="black" stroke="none" />
<circle cx="346.09843199999995" cy="767.02997504" r="5" fill="black" stroke="none" />
<path d="M346.09843199999995,567.02997504 L408.527336056767,539.8398174926796" stroke="grey" stroke-width="5" />
<circle cx="408.527336056767" cy="539.8398174926796" r="2.5" fill="grey" stroke="none" />
<path d="M408.527336056767,539.8398174926796 A99.77203669727129,99.77203669727129,0,0,0,426.09843199999995,567.02997504" stroke="grey" stroke-width="5" fill="none" />
<circle cx="346.09843199999995" cy="567.02997504" r="5" fill="black" stroke="none" />
<circle cx="426.09843199999995" cy="567.02997504" r="5" fill="black" stroke="none" />
<path d="M426.09843199999995,495.0299750399999 A74.06850140890968,74.06850140890968,0,0,0,445.13714889736895,549.7615360479576" stroke="grey" stroke-width="5" fill="none" />
<path d="M445.13714889736895,549.7615360479576 L-73.90156800000005,67.02997503999995" stroke="grey" stroke-width="5" />
<circle cx="445.13714889736895" cy="549.7615360479576" r="2.5" fill="grey" stroke="none" />
<circle cx="426.09843199999995" cy="495.02997503999995" r="5" fill="black" stroke="none" />
<circle cx="426.09843199999995" cy="567.02997504" r="5" fill="black" stroke="none" />
<path d="M426.09843199999995,567.02997504 L450.3306402519478,545.0509513433425" stroke="grey" stroke-width="5" />
<circle cx="450.3306402519478" cy="545.0509513433425" r="2.5" fill="grey" stroke="none" />
<path d="M450.3306402519478,545.0509513433425 A67.05694233054204,67.05694233054204,0,0,0,498.09843199999995,567.02997504" stroke="grey" stroke-width="5" fill="none" />
<circle cx="426.09843199999995" cy="567.02997504" r="5" fill="black" stroke="none" />
<circle cx="498.09843199999995" cy="567.02997504" r="5" fill="black" stroke="none" />
<path d="M426.09843199999995,495.02997503999995 L465.8132848558238,497.70087655559666" stroke="grey" stroke-width="5" />
<circle cx="465.8132848558238" cy="497.70087655559666" r="2.5" fill="grey" stroke="none" />
<path d="M465.8132848558238,497.70087655559666 A34.263938199828274,34.263938199828274,0,0,1,466.09843199999995,495.02997503999995" stroke="grey" stroke-width="5" fill="none" />
<circle cx="426.09843199999995" cy="495.02997503999995" r="5" fill="black" stroke="none" />
<circle cx="466.09843199999995" cy="495.02997503999995" r="5" fill="black" stroke="none" />
<path d="M498.09843199999995,567.02997504 A67.05694233054204,67.05694233054204,0,0,0,563.9781754732709,520.0854817675106" stroke="grey" stroke-width="5" fill="none" />
<path d="M563.9781754732709,520.0854817675106 L86.09843199999995,27.029975039999954" stroke="grey" stroke-width="5" />
<circle cx="563.9781754732709" cy="520.0854817675106" r="2.5" fill="grey" stroke="none" />
<circle cx="498.09843199999995" cy="567.02997504" r="5" fill="black" stroke="none" />
<circle cx="586.098432" cy="527.02997504" r="5" fill="black" stroke="none" />
<path d="M466.09843199999995,495.02997503999995 A34.263938199828274,34.263938199828274,0,0,1,534.2290804756066,498.4548428053761" stroke="grey" stroke-width="5" fill="none" />
<path d="M534.2290804756066,498.4548428053761 L110.09843199999995,-4.970024960000046" stroke="grey" stroke-width="5" />
<circle cx="534.2290804756066" cy="498.4548428053761" r="2.5" fill="grey" stroke="none" />
<circle cx="466.09843199999995" cy="495.02997503999995" r="5" fill="black" stroke="none" />
<circle cx="610.098432" cy="495.02997503999995" r="5" fill="black" stroke="none" />
<path d="M586.098432,527.02997504 A90.24167298716063,90.24167298716063,0,0,0,590.1498674471219,495.93048617301935" stroke="grey" stroke-width="5" fill="none" />
<path d="M590.1498674471219,495.93048617301935 L110.09843199999995,-4.970024960000046" stroke="grey" stroke-width="5" />
<circle cx="590.1498674471219" cy="495.93048617301935" r="2.5" fill="grey" stroke="none" />
<circle cx="586.098432" cy="527.02997504" r="5" fill="black" stroke="none" />
<circle cx="610.098432" cy="495.02997503999995" r="5" fill="black" stroke="none" />
<path d="M346.09843199999995,647.02997504 L390.8983598112717,604.2303313879933" stroke="grey" stroke-width="5" />
<circle cx="390.8983598112717" cy="604.2303313879933" r="2.5" fill="grey" stroke="none" />
<path d="M390.8983598112717,604.2303313879934 A150.88780558123852,150.88780558123852,0,0,0,466.09843199999995,647.02997504" stroke="grey" stroke-width="5" fill="none" />
<circle cx="346.09843199999995" cy="647.02997504" r="5" fill="black" stroke="none" />
<circle cx="466.09843199999995" cy="647.02997504" r="5" fill="black" stroke="none" />
<path d="M466.09843199999995,647.02997504 L481.94110807513084,578.3208148060752" stroke="grey" stroke-width="5" />
<circle cx="481.94110807513084" cy="578.3208148060752" r="2.5" fill="grey" stroke="none" />
<path d="M481.94110807513084,578.3208148060752 A80.37582727065168,80.37582727065168,0,0,0,562.0984319999999,551.02997504" stroke="grey" stroke-width="5" fill="none" />
<circle cx="466.09843199999995" cy="647.02997504" r="5" fill="black" stroke="none" />
<circle cx="562.098432" cy="551.02997504" r="5" fill="black" stroke="none" />
<path d="M562.0984319999999,551.02997504 A80.37582727065168,80.37582727065168,0,0,0,576.6855541307456,524.0748706559792" stroke="grey" stroke-width="5" fill="none" />
<path d="M576.6855541307456,524.0748706559792 L86.09843199999995,27.029975039999954" stroke="grey" stroke-width="5" />
<circle cx="576.6855541307456" cy="524.0748706559792" r="2.5" fill="grey" stroke="none" />
<circle cx="562.098432" cy="551.02997504" r="5" fill="black" stroke="none" />
<circle cx="586.098432" cy="527.02997504" r="5" fill="black" stroke="none" />
<path d="M586.098432,527.02997504 A90.24167298716063,90.24167298716063,0,0,1,577.6307137828562,546.0112140796773" stroke="grey" stroke-width="5" fill="none" />
<path d="M577.6307137828562,546.0112140796773 L86.09843199999995,51.029975039999954" stroke="grey" stroke-width="5" />
<circle cx="577.6307137828562" cy="546.0112140796773" r="2.5" fill="grey" stroke="none" />
<circle cx="586.098432" cy="527.02997504" r="5" fill="black" stroke="none" />
<circle cx="586.098432" cy="551.02997504" r="5" fill="black" stroke="none" />
<path d="M586.098432,551.02997504 A100.08495563990441,100.08495563990441,0,0,1,535.489648442169,593.5814255015005" stroke="grey" stroke-width="5" fill="none" />
<path d="M535.489648442169,593.5814255015005 L86.09843199999995,227.02997503999995" stroke="grey" stroke-width="5" />
<circle cx="535.489648442169" cy="593.5814255015005" r="2.5" fill="grey" stroke="none" />
<circle cx="586.098432" cy="551.02997504" r="5" fill="black" stroke="none" />
<circle cx="586.098432" cy="727.02997504" r="5" fill="black" stroke="none" />
<path d="M586.098432,727.02997504 A242.80763900569852,242.80763900569852,0,0,0,651.9219652915355,689.407671495848" stroke="grey" stroke-width="5" fill="none" />
<path d="M651.9219652915355,689.4076714958481 L182.09843199999995,227.02997503999995" stroke="grey" stroke-width="5" />
<circle cx="651.9219652915355" cy="689.4076714958481" r="2.5" fill="grey" stroke="none" />
<circle cx="586.098432" cy="727.02997504" r="5" fill="black" stroke="none" />
<circle cx="682.098432" cy="727.02997504" r="5" fill="black" stroke="none" />
<path d="M586.098432,727.02997504 A242.80763900569852,242.80763900569852,0,0,1,572.5397734173737,731.7186458446486" stroke="grey" stroke-width="5" fill="none" />
<path d="M572.5397734173737,731.7186458446486 L86.09843199999995,275.02997503999995" stroke="grey" stroke-width="5" />
<circle cx="572.5397734173737" cy="731.7186458446486" r="2.5" fill="grey" stroke="none" />
<circle cx="586.098432" cy="727.02997504" r="5" fill="black" stroke="none" />
<circle cx="586.098432" cy="775.02997504" r="5" fill="black" stroke="none" />
<path d="M274.09843199999995,351.02997503999995 L372.45687490900514,415.89211754261964" stroke="grey" stroke-width="5" />
<circle cx="372.45687490900514" cy="415.89211754261964" r="2.5" fill="grey" stroke="none" />
<path d="M372.45687490900514,415.89211754261964 A152.77887501039424,152.77887501039424,0,0,1,466.09843199999995,351.02997503999995" stroke="grey" stroke-width="5" fill="none" />
<circle cx="274.09843199999995" cy="351.02997503999995" r="5" fill="black" stroke="none" />
<circle cx="466.09843199999995" cy="351.02997503999995" r="5" fill="black" stroke="none" />
<path d="M466.09843199999995,351.02997503999995 L492.3968465486459,466.5902780832164" stroke="grey" stroke-width="5" />
<circle cx="492.3968465486459" cy="466.5902780832164" r="2.5" fill="grey" stroke="none" />
<path d="M492.3968465486459,466.59027808321633 A34.263938199828274,34.263938199828274,0,0,0,466.09843199999995,495.02997503999995" stroke="grey" stroke-width="5" fill="none" />
<circle cx="466.09843199999995" cy="351.02997503999995" r="5" fill="black" stroke="none" />
<circle cx="466.09843199999995" cy="495.02997503999995" r="5" fill="black" stroke="none" />
<path d="M466.09843199999995,351.02997503999995 A152.77887501039424,152.77887501039424,0,0,1,477.6233244710824,348.8687026400051" stroke="grey" stroke-width="5" fill="none" />
<path d="M477.62332447108236,348.8687026400051 L-33.901568000000054,-228.97002496000005" stroke="grey" stroke-width="5" />
<circle cx="477.62332447108236" cy="348.8687026400051" r="2.5" fill="grey" stroke="none" />
<circle cx="466.09843199999995" cy="351.02997503999995" r="5" fill="black" stroke="none" />
<circle cx="466.09843199999995" cy="271.02997503999995" r="5" fill="black" stroke="none" />
<path d="M466.098432,271.02997503999995 A231.46617170342986,231.46617170342986,0,0,1,472.6563526171313,270.15458762280457" stroke="grey" stroke-width="5" fill="none" />
<path d="M472.6563526171313,270.15458762280457 L-33.901568000000054,-284.97002496000005" stroke="grey" stroke-width="5" />
<circle cx="472.6563526171313" cy="270.15458762280457" r="2.5" fill="grey" stroke="none" />
<circle cx="466.09843199999995" cy="271.02997503999995" r="5" fill="black" stroke="none" />
<circle cx="466.09843199999995" cy="215.02997503999995" r="5" fill="black" stroke="none" />
<path d="M466.09843199999995,271.02997503999995 L478.50550190159163,354.8268986822312" stroke="grey" stroke-width="5" />
<circle cx="478.50550190159163" cy="354.8268986822312" r="2.5" fill="grey" stroke="none" />
<path d="M478.5055019015917,354.8268986822312 A146.75572491293704,146.75572491293704,0,0,1,562.098432,367.02997503999995" stroke="grey" stroke-width="5" fill="none" />
<circle cx="466.09843199999995" cy="271.02997503999995" r="5" fill="black" stroke="none" />
<circle cx="562.098432" cy="367.02997503999995" r="5" fill="black" stroke="none" />
<path d="M466.09843199999995,351.02997503999995 L467.4349664691093,356.9029651395473" stroke="grey" stroke-width="5" />
<circle cx="467.4349664691093" cy="356.9029651395473" r="2.5" fill="grey" stroke="none" />
<path d="M467.4349664691094,356.9029651395473 A146.75572491293704,146.75572491293704,0,0,1,562.098432,367.02997503999995" stroke="grey" stroke-width="5" fill="none" />
<circle cx="466.09843199999995" cy="351.02997503999995" r="5" fill="black" stroke="none" />
<circle cx="562.098432" cy="367.02997503999995" r="5" fill="black" stroke="none" />
<path d="M562.098432,367.02997503999995 L553.2536746406706,385.9690620500417" stroke="grey" stroke-width="5" />
<circle cx="553.2536746406706" cy="385.9690620500417" r="2.5" fill="grey" stroke="none" />
<path d="M553.2536746406706,385.96906205004177 A125.85312341170417,125.85312341170417,0,0,1,610.098432,439.02997503999995" stroke="grey" stroke-width="5" fill="none" />
<circle cx="562.098432" cy="367.02997503999995" r="5" fill="black" stroke="none" />
<circle cx="610.098432" cy="439.02997503999995" r="5" fill="black" stroke="none" />
<path d="M562.0984319999999,551.02997504 A80.37582727065168,80.37582727065168,0,0,0,569.1435856114504,540.9809489669732" stroke="grey" stroke-width="5" fill="none" />
<path d="M569.1435856114504,540.9809489669732 L86.09843199999995,51.029975039999954" stroke="grey" stroke-width="5" />
<circle cx="569.1435856114504" cy="540.9809489669732" r="2.5" fill="grey" stroke="none" />
<circle cx="562.098432" cy="551.02997504" r="5" fill="black" stroke="none" />
<circle cx="586.098432" cy="551.02997504" r="5" fill="black" stroke="none" />
<path d="M586.098432,551.02997504 A100.08495563990441,100.08495563990441,0,0,0,590.8053883800981,542.0877629077761" stroke="grey" stroke-width="5" fill="none" />
<path d="M590.8053883800981,542.0877629077761 L110.09843199999995,51.029975039999954" stroke="grey" stroke-width="5" />
<circle cx="590.8053883800981" cy="542.0877629077761" r="2.5" fill="grey" stroke="none" />
<circle cx="586.098432" cy="551.02997504" r="5" fill="black" stroke="none" />
<circle cx="610.098432" cy="551.02997504" r="5" fill="black" stroke="none" />
<path d="M610.098432,551.02997504 L599.992171222341,546.3457826690162" stroke="grey" stroke-width="5" />
<circle cx="599.992171222341" cy="546.3457826690162" r="2.5" fill="grey" stroke="none" />
<path d="M599.992171222341,546.3457826690162 A110.21055247553038,110.21055247553038,0,0,0,610.0984319999999,495.02997503999995" stroke="grey" stroke-width="5" fill="none" />
<circle cx="610.098432" cy="551.02997504" r="5" fill="black" stroke="none" />
<circle cx="610.098432" cy="495.02997503999995" r="5" fill="black" stroke="none" />
<path d="M610.0984319999999,495.02997503999995 A110.21055247553038,110.21055247553038,0,0,0,608.2642758319894,479.3793197120814" stroke="grey" stroke-width="5" fill="none" />
<path d="M608.2642758319894,479.3793197120814 L110.09843199999995,-20.970024960000046" stroke="grey" stroke-width="5" />
<circle cx="608.2642758319894" cy="479.3793197120814" r="2.5" fill="grey" stroke="none" />
<circle cx="610.098432" cy="495.02997503999995" r="5" fill="black" stroke="none" />
<circle cx="610.098432" cy="479.02997503999995" r="5" fill="black" stroke="none" />
<path d="M610.098432,479.02997503999995 A112.07768143426968,112.07768143426968,0,0,0,606.2476393232421,464.3230352479376" stroke="grey" stroke-width="5" fill="none" />
<path d="M606.2476393232421,464.3230352479376 L110.09843199999995,-36.970024960000046" stroke="grey" stroke-width="5" />
<circle cx="606.2476393232421" cy="464.3230352479376" r="2.5" fill="grey" stroke="none" />
<circle cx="610.098432" cy="479.02997503999995" r="5" fill="black" stroke="none" />
<circle cx="610.098432" cy="463.02997503999995" r="5" fill="black" stroke="none" />
<path d="M610.098432,463.02997503999995 A116.13977559131771,116.13977559131771,0,0,0,601.6010317328905,443.73564338576506" stroke="grey" stroke-width="5" fill="none" />
<path d="M601.6010317328905,443.73564338576506 L110.09843199999995,-60.970024960000046" stroke="grey" stroke-width="5" />
<circle cx="601.6010317328905" cy="443.73564338576506" r="2.5" fill="grey" stroke="none" />
<circle cx="610.098432" cy="463.02997503999995" r="5" fill="black" stroke="none" />
<circle cx="610.098432" cy="439.02997503999995" r="5" fill="black" stroke="none" />
<path d="M610.098432,439.02997503999995 A125.85312341170417,125.85312341170417,0,0,1,617.4238656394954,454.71595810045903" stroke="grey" stroke-width="5" fill="none" />
<path d="M617.4238656394954,454.71595810045903 L158.09843199999995,-60.970024960000046" stroke="grey" stroke-width="5" />
<circle cx="617.4238656394954" cy="454.71595810045903" r="2.5" fill="grey" stroke="none" />
<circle cx="610.098432" cy="439.02997503999995" r="5" fill="black" stroke="none" />
<circle cx="658.098432" cy="439.02997503999995" r="5" fill="black" stroke="none" />
<path d="M658.098432,439.02997503999995 L648.8014002364359,442.61533797818777" stroke="grey" stroke-width="5" />
<circle cx="648.8014002364359" cy="442.61533797818777" r="2.5" fill="grey" stroke="none" />
<path d="M648.8014002364359,442.61533797818777 A159.48309047570413,159.48309047570413,0,0,1,658.098432,479.02997503999995" stroke="grey" stroke-width="5" fill="none" />
<circle cx="658.098432" cy="439.02997503999995" r="5" fill="black" stroke="none" />
<circle cx="658.098432" cy="479.02997503999995" r="5" fill="black" stroke="none" />
<path d="M658.098432,479.02997503999995 L611.104604532685,485.2631914134269" stroke="grey" stroke-width="5" />
<circle cx="611.104604532685" cy="485.2631914134269" r="2.5" fill="grey" stroke="none" />
<path d="M611.104604532685,485.2631914134269 A112.07768143426968,112.07768143426968,0,0,0,610.098432,479.02997503999995" stroke="grey" stroke-width="5" fill="none" />
<circle cx="658.098432" cy="479.02997503999995" r="5" fill="black" stroke="none" />
<circle cx="610.098432" cy="479.02997503999995" r="5" fill="black" stroke="none" />
<path d="M610.098432,463.02997503999995 A116.13977559131771,116.13977559131771,0,0,1,614.003867293447,477.82871865363273" stroke="grey" stroke-width="5" fill="none" />
<path d="M614.003867293447,477.82871865363273 L190.09843199999995,-36.970024960000046" stroke="grey" stroke-width="5" />
<circle cx="614.003867293447" cy="477.82871865363273" r="2.5" fill="grey" stroke="none" />
<circle cx="610.098432" cy="463.02997503999995" r="5" fill="black" stroke="none" />
<circle cx="690.098432" cy="463.02997503999995" r="5" fill="black" stroke="none" />
<circle cx="500" cy="500" r="5" fill="red" stroke="none" />
</svg>