<?xml version="1.0" encoding="UTF-8"?>
<svg xmlns="http://www.w3.org/2000/svg" xmlns:xlink="http://www.w3.org/1999/xlink"
     width="1000" height="1000" viewBox="0 0 1000 1000">
<defs>
</defs>
<rect x="0" y="0" width="1000" height="1000" fill="white" />
<path d="M180.88000000000005,300.1664 L215.57610909210297,321.8931748366373" stroke="grey" stroke-width="5" />
<circle cx="215.57610909210297" cy="321.8931748366373" r="2.5" fill="grey" stroke="none" />
<path d="M215.57610909210308,321.8931748366372 A335.58753089016875,335.58753089016875,0,0,0,180.88000000000005,396.1664" stroke="grey" stroke-width="5" fill="none" />
<circle cx="180.88000000000005" cy="300.1664" r="5" fill="black" stroke="none" />
<circle cx="180.88000000000005" cy="396.1664" r="5" fill="black" stroke="none" />
<path d="M180.88000000000005,396.1664 L253.17153841298096,419.68824345374185" stroke="grey" stroke-width="5" />
<circle cx="253.17153841298096" cy="419.68824345374185" r="2.5" fill="grey" stroke="none" />
<path d="M253.17153841298096,419.68824345374185 A259.565536404508,259.565536404508,0,0,0,244.88000000000005,452.16640000000007" stroke="grey" stroke-width="5" fill="none" />
<circle cx="180.88000000000005" cy="396.1664" r="5" fill="black" stroke="none" />
<circle cx="244.88000000000005" cy="452.1664" r="5" fill="black" stroke="none" />
<path d="M156.88000000000005,452.1664 L242.92055200235842,464.1611229781418" stroke="grey" stroke-width="5" />
<circle cx="242.92055200235842" cy="464.1611229781418" r="2.5" fill="grey" stroke="none" />
<path d="M242.92055200235842,464.1611229781418 A259.565536404508,259.565536404508,0,0,1,244.88000000000005,452.16640000000007" stroke="grey" stroke-width="5" fill="none" />
<circle cx="156.88000000000005" cy="452.1664" r="5" fill="black" stroke="none" />
<circle cx="244.88000000000005" cy="452.1664" r="5" fill="black" stroke="none" />
<path d="M244.88000000000005,452.1664 L319.34471124726304,466.1281247252943" stroke="grey" stroke-width="5" />
<circle cx="319.34471124726304" cy="466.1281247252943" r="2.5" fill="grey" stroke="none" />
<path d="M319.34471124726304,466.1281247252943 A183.8032570140148,183.8032570140148,0,0,0,316.88000000000005,484.16640000000007" stroke="grey" stroke-width="5" fill="none" />
<circle cx="244.88000000000005" cy="452.1664" r="5" fill="black" stroke="none" />
<circle cx="316.88000000000005" cy="484.1664" r="5" fill="black" stroke="none" />
<path d="M316.88000000000005,484.1664 L333.50115734016845,485.6035600964466" stroke="grey" stroke-width="5" />
<circle cx="333.50115734016845" cy="485.6035600964466" r="2.5" fill="grey" stroke="none" />
<path d="M333.50115734016845,485.6035600964466 A167.1200828415304,167.1200828415304,0,0,0,332.88,500.16640000000007" stroke="grey" stroke-width="5" fill="none" />
<circle cx="316.88000000000005" cy="484.1664" r="5" fill="black" stroke="none" />
<circle cx="332.88000000000005" cy="500.1664" r="5" fill="black" stroke="none" />
<path d="M332.88000000000005,500.1664 L361.1040945068549,500.1382975028367" stroke="grey" stroke-width="5" />
<circle cx="361.1040945068549" cy="500.1382975028367" r="2.5" fill="grey" stroke="none" />
<path d="M361.1040945068549,500.13829750283674 A138.89597434396717,138.89597434396717,0,0,0,364.88000000000005,532.1664" stroke="grey" stroke-width="5" fill="none" />
<circle cx="332.88000000000005" cy="500.1664" r="5" fill="black" stroke="none" />
<circle cx="364.88000000000005" cy="532.1664000000001" r="5" fill="black" stroke="none" />
<path d="M332.88,500.16640000000007 A167.1200828415304,167.1200828415304,0,0,0,349.5861735071496,572.8340777983677" stroke="grey" stroke-width="5" fill="none" />
<path d="M349.5861735071496,572.8340777983677 L-215.11999999999995,104.16640000000001" stroke="grey" stroke-width="5" />
<circle cx="349.5861735071496" cy="572.8340777983677" r="2.5" fill="grey" stroke="none" />
<circle cx="332.88000000000005" cy="500.1664" r="5" fill="black" stroke="none" />
<circle cx="284.88000000000005" cy="604.1664000000001" r="5" fill="black" stroke="none" />
<path d="M284.88000000000005,604.1664 A239.0130818364551,239.0130818364551,0,0,0,318.4351165933785,655.4395265127242" stroke="grey" stroke-width="5" fill="none" />
<path d="M318.4351165933785,655.4395265127242 L-215.11999999999995,184.1664" stroke="grey" stroke-width="5" />
<circle cx="318.4351165933785" cy="655.4395265127242" r="2.5" fill="grey" stroke="none" />
<circle cx="284.88000000000005" cy="604.1664000000001" r="5" fill="black" stroke="none" />
<circle cx="284.88000000000005" cy="684.1664000000001" r="5" fill="black" stroke="none" />
<path d="M180.88000000000005,700.1664000000001 L260.10175971359683,650.4749533857618" stroke="grey" stroke-width="5" />
<circle cx="260.10175971359683" cy="650.4749533857618" r="2.5" fill="grey" stroke="none" />
<path d="M260.10175971359683,650.4749533857618 A283.18523494165436,283.18523494165436,0,0,0,284.8800000000001,684.1664000000001" stroke="grey" stroke-width="5" fill="none" />
<circle cx="180.88000000000005" cy="700.1664000000001" r="5" fill="black" stroke="none" />
<circle cx="284.88000000000005" cy="684.1664000000001" r="5" fill="black" stroke="none" />
<path d="M284.8800000000001,684.1664000000001 A283.18523494165436,283.18523494165436,0,0,0,336.4817084001969,731.2047698496762" stroke="grey" stroke-width="5" fill="none" />
<path d="M336.4817084001969,731.2047698496762 L-215.11999999999995,304.1664" stroke="grey" stroke-width="5" />
<circle cx="336.4817084001969" cy="731.2047698496762" r="2.5" fill="grey" stroke="none" />
<circle cx="284.88000000000005" cy="684.1664000000001" r="5" fill="black" stroke="none" />
<circle cx="284.88000000000005" cy="804.1664000000001" r="5" fill="black" stroke="none" />
<path d="M284.88000000000005,604.1664000000001 L346.4443862596023,574.3554085307167" stroke="grey" stroke-width="5" />
<circle cx="346.4443862596023" cy="574.3554085307167" r="2.5" fill="grey" stroke="none" />
<path d="M346.4443862596023,574.3554085307167 A170.61082406740783,170.61082406740783,0,0,0,364.88000000000005,604.1664" stroke="grey" stroke-width="5" fill="none" />
<circle cx="284.88000000000005" cy="604.1664000000001" r="5" fill="black" stroke="none" />
<circle cx="364.88000000000005" cy="604.1664000000001" r="5" fill="black" stroke="none" />
<path d="M364.88000000000005,532.1664 A138.89597434396717,138.89597434396717,0,0,0,389.9974596808594,584.8029056830945" stroke="grey" stroke-width="5" fill="none" />
<path d="M389.9974596808594,584.8029056830945 L-135.11999999999995,104.16640000000001" stroke="grey" stroke-width="5" />
<circle cx="389.9974596808594" cy="584.8029056830945" r="2.5" fill="grey" stroke="none" />
<circle cx="364.88000000000005" cy="532.1664000000001" r="5" fill="black" stroke="none" />
<circle cx="364.88000000000005" cy="604.1664000000001" r="5" fill="black" stroke="none" />
<path d="M364.88000000000005,604.1664000000001 L403.53861067880445,574.3637926627249" stroke="grey" stroke-width="5" />
<circle cx="403.53861067880445" cy="574.3637926627249" r="2.5" fill="grey" stroke="none" />
<path d="M403.53861067880445,574.3637926627249 A121.79808409396264,121.79808409396264,0,0,0,436.88000000000005,604.1664000000001" stroke="grey" stroke-width="5" fill="none" />
<circle cx="364.88000000000005" cy="604.1664000000001" r="5" fill="black" stroke="none" />
<circle cx="436.88000000000005" cy="604.1664000000001" r="5" fill="black" stroke="none" />
<path d="M364.88000000000005,532.1664000000001 L402.31814142657197,523.2539500859704" stroke="grey" stroke-width="5" />
<circle cx="402.31814142657197" cy="523.2539500859704" r="2.5" fill="grey" stroke="none" />
<path d="M402.31814142657197,523.2539500859704 A100.41161132538403,100.41161132538403,0,0,0,404.88000000000005,532.1664" stroke="grey" stroke-width="5" fill="none" />
<circle cx="364.88000000000005" cy="532.1664000000001" r="5" fill="black" stroke="none" />
<circle cx="404.88000000000005" cy="532.1664000000001" r="5" fill="black" stroke="none" />
<path d="M436.88000000000005,604.1664000000001 L464.3345237290763,558.8584326271791" stroke="grey" stroke-width="5" />
<circle cx="464.3345237290763" cy="558.8584326271791" r="2.5" fill="grey" stroke="none" />
<path d="M464.3345237290763,558.8584326271791 A68.82108171890357,68.82108171890357,0,0,0,524.8800000000001,564.1664" stroke="grey" stroke-width="5" fill="none" />
<circle cx="436.88000000000005" cy="604.1664000000001" r="5" fill="black" stroke="none" />
<circle cx="524.8800000000001" cy="564.1664000000001" r="5" fill="black" stroke="none" />
<path d="M404.88000000000005,532.1664000000001 L444.5692887768113,518.7448110753741" stroke="grey" stroke-width="5" />
<circle cx="444.5692887768113" cy="518.7448110753741" r="2.5" fill="grey" stroke="none" />
<path d="M444.5692887768113,518.7448110753741 A58.51437164457981,58.51437164457981,0,0,0,548.8800000000001,532.1664000000001" stroke="grey" stroke-width="5" fill="none" />
<circle cx="404.88000000000005" cy="532.1664000000001" r="5" fill="black" stroke="none" />
<circle cx="548.8800000000001" cy="532.1664000000001" r="5" fill="black" stroke="none" />
<path d="M524.8800000000001,564.1664000000001 L521.1539477461782,554.556779447764" stroke="grey" stroke-width="5" />
<circle cx="521.1539477461782" cy="554.556779447764" r="2.5" fill="grey" stroke="none" />
<path d="M521.1539477461782,554.556779447764 A58.51437164457981,58.51437164457981,0,0,0,548.8800000000001,532.1664000000001" stroke="grey" stroke-width="5" fill="none" />
<circle cx="524.8800000000001" cy="564.1664000000001" r="5" fill="black" stroke="none" />
<circle cx="548.8800000000001" cy="532.1664000000001" r="5" fill="black" stroke="none" />
<path d="M284.88000000000005,684.1664000000001 L342.5408212205483,634.8023898418" stroke="grey" stroke-width="5" />
<circle cx="342.5408212205483" cy="634.8023898418" r="2.5" fill="grey" stroke="none" />
<path d="M342.5408212205483,634.8023898418 A207.28019029555136,207.28019029555136,0,0,0,404.88000000000005,684.1664" stroke="grey" stroke-width="5" fill="none" />
<circle cx="284.88000000000005" cy="684.1664000000001" r="5" fill="black" stroke="none" />
<circle cx="404.88000000000005" cy="684.1664000000001" r="5" fill="black" stroke="none" />
<path d="M404.88000000000005,684.1664000000001 L459.53879778027357,578.338876708148" stroke="grey" stroke-width="5" />
<circle cx="459.53879778027357" cy="578.338876708148" r="2.5" fill="grey" stroke="none" />
<path d="M459.53879778027357,578.338876708148 A88.17079158632978,88.17079158632978,0,0,0,500.88000000000005,588.1664000000001" stroke="grey" stroke-width="5" fill="none" />
<circle cx="404.88000000000005" cy="684.1664000000001" r="5" fill="black" stroke="none" />
<circle cx="500.88000000000005" cy="588.1664000000001" r="5" fill="black" stroke="none" />
<path d="M500.88000000000005,588.1664000000001 L500.68687771565874,568.8176538975555" stroke="grey" stroke-width="5" />
<circle cx="500.68687771565874" cy="568.8176538975555" r="2.5" fill="grey" stroke="none" />
<path d="M500.68687771565874,568.8176538975555 A68.82108171890357,68.82108171890357,0,0,0,524.8800000000001,564.1664" stroke="grey" stroke-width="5" fill="none" />
<circle cx="500.88000000000005" cy="588.1664000000001" r="5" fill="black" stroke="none" />
<circle cx="524.8800000000001" cy="564.1664000000001" r="5" fill="black" stroke="none" />
<path d="M524.8800000000001,564.1664 A68.82108171890357,68.82108171890357,0,0,1,518.6909180478664,566.234363222484" stroke="grey" stroke-width="5" fill="none" />
<path d="M518.6909180478664,566.234363222484 L24.880000000000052,88.16640000000001" stroke="grey" stroke-width="5" />
<circle cx="518.6909180478664" cy="566.234363222484" r="2.5" fill="grey" stroke="none" />
<circle cx="524.8800000000001" cy="564.1664000000001" r="5" fill="black" stroke="none" />
<circle cx="524.8800000000001" cy="588.1664000000001" r="5" fill="black" stroke="none" />
<path d="M524.88,588.1664000000001 A91.60965281541026,91.60965281541026,0,0,1,508.5900627217441,591.2060267273853" stroke="grey" stroke-width="5" fill="none" />
<path d="M508.5900627217441,591.2060267273853 L24.880000000000052,264.1664" stroke="grey" stroke-width="5" />
<circle cx="508.5900627217441" cy="591.2060267273853" r="2.5" fill="grey" stroke="none" />
<circle cx="524.8800000000001" cy="588.1664000000001" r="5" fill="black" stroke="none" />
<circle cx="524.8800000000001" cy="764.1664000000001" r="5" fill="black" stroke="none" />
<path d="M524.88,764.1664000000001 A265.3354504941999,265.3354504941999,0,0,0,610.4051049317649,741.274976103959" stroke="grey" stroke-width="5" fill="none" />
<path d="M610.4051049317649,741.274976103959 L120.88000000000005,264.1664" stroke="grey" stroke-width="5" />
<circle cx="610.4051049317649" cy="741.274976103959" r="2.5" fill="grey" stroke="none" />
<circle cx="524.8800000000001" cy="764.1664000000001" r="5" fill="black" stroke="none" />
<circle cx="620.8800000000001" cy="764.1664000000001" r="5" fill="black" stroke="none" />
<path d="M524.88,764.1664000000001 A265.3354504941999,265.3354504941999,0,0,1,521.0806736355894,764.4967041156274" stroke="grey" stroke-width="5" fill="none" />
<path d="M521.0806736355893,764.4967041156275 L24.880000000000052,312.1664" stroke="grey" stroke-width="5" />
<circle cx="521.0806736355893" cy="764.4967041156275" r="2.5" fill="grey" stroke="none" />
<circle cx="524.8800000000001" cy="764.1664000000001" r="5" fill="black" stroke="none" />
<circle cx="524.8800000000001" cy="812.1664000000001" r="5" fill="black" stroke="none" />
<path d="M212.88000000000005,388.1664 L363.19629281202424,446.71478452153383" stroke="grey" stroke-width="5" />
<circle cx="363.19629281202424" cy="446.71478452153383" r="2.5" fill="grey" stroke="none" />
<path d="M363.19629281202424,446.71478452153383 A146.81474206958913,146.81474206958913,0,0,1,404.88000000000005,388.1664" stroke="grey" stroke-width="5" fill="none" />
<circle cx="212.88000000000005" cy="388.1664" r="5" fill="black" stroke="none" />
<circle cx="404.88000000000005" cy="388.1664" r="5" fill="black" stroke="none" />
<path d="M404.88000000000005,388.1664 L434.94418656715453,423.5131852699383" stroke="grey" stroke-width="5" />
<circle cx="434.94418656715453" cy="423.5131852699383" r="2.5" fill="grey" stroke="none" />
<path d="M434.94418656715453,423.5131852699383 A100.41161132538403,100.41161132538403,0,0,0,404.88000000000005,532.1664" stroke="grey" stroke-width="5" fill="none" />
<circle cx="404.88000000000005" cy="388.1664" r="5" fill="black" stroke="none" />
<circle cx="404.88000000000005" cy="532.1664000000001" r="5" fill="black" stroke="none" />
<path d="M404.88000000000005,388.1664 A146.81474206958913,146.81474206958913,0,0,1,434.77988304459063,368.4670960052858" stroke="grey" stroke-width="5" fill="none" />
<path d="M434.7798830445907,368.4670960052857 L-95.11999999999995,-191.8336" stroke="grey" stroke-width="5" />
<circle cx="434.7798830445907" cy="368.4670960052857" r="2.5" fill="grey" stroke="none" />
<circle cx="404.88000000000005" cy="388.1664" r="5" fill="black" stroke="none" />
<circle cx="404.88000000000005" cy="308.1664" r="5" fill="black" stroke="none" />
<path d="M404.88,308.16640000000007 A214.121331232925,214.121331232925,0,0,1,423.27590507559137,300.0966289754214" stroke="grey" stroke-width="5" fill="none" />
<path d="M423.2759050755914,300.09662897542137 L-95.11999999999995,-247.8336" stroke="grey" stroke-width="5" />
<circle cx="423.2759050755914" cy="300.09662897542137" r="2.5" fill="grey" stroke="none" />
<circle cx="404.88000000000005" cy="308.1664" r="5" fill="black" stroke="none" />
<circle cx="404.88000000000005" cy="252.1664" r="5" fill="black" stroke="none" />
<path d="M404.88000000000005,308.1664 L457.42565073631954,414.13802894334333" stroke="grey" stroke-width="5" />
<circle cx="457.42565073631954" cy="414.13802894334333" r="2.5" fill="grey" stroke="none" />
<path d="M457.4256507363195,414.13802894334333 A95.83764025141687,95.83764025141687,0,0,1,500.88000000000005,404.1664" stroke="grey" stroke-width="5" fill="none" />
<circle cx="404.88000000000005" cy="308.1664" r="5" fill="black" stroke="none" />
<circle cx="500.88000000000005" cy="404.1664" r="5" fill="black" stroke="none" />
<path d="M404.88000000000005,388.1664 L437.90762281628497,426.99732892122876" stroke="grey" stroke-width="5" />
<circle cx="437.90762281628497" cy="426.99732892122876" r="2.5" fill="grey" stroke="none" />
<path d="M437.90762281628497,426.99732892122876 A95.83764025141687,95.83764025141687,0,0,1,500.88000000000005,404.1664" stroke="grey" stroke-width="5" fill="none" />
<circle cx="404.88000000000005" cy="388.1664" r="5" fill="black" stroke="none" />
<circle cx="500.88000000000005" cy="404.1664" r="5" fill="black" stroke="none" />
<path d="M500.88000000000005,404.1664 L500.49933714828006,445.6212766665826" stroke="grey" stroke-width="5" />
<circle cx="500.49933714828006" cy="445.6212766665826" r="2.5" fill="grey" stroke="none" />
<path d="M500.49933714828006,445.6212766665826 A54.38101588753197,54.38101588753197,0,0,1,548.8800000000001,476.1664" stroke="grey" stroke-width="5" fill="none" />
<circle cx="500.88000000000005" cy="404.1664" r="5" fill="black" stroke="none" />
<circle cx="548.8800000000001" cy="476.1664" r="5" fill="black" stroke="none" />
<path d="M500.88000000000005,588.1664000000001 A88.17079158632978,88.17079158632978,0,0,0,523.9460496492447,584.8567922747254" stroke="grey" stroke-width="5" fill="none" />
<path d="M523.9460496492447,584.8567922747254 L24.880000000000052,88.16640000000001" stroke="grey" stroke-width="5" />
<circle cx="523.9460496492447" cy="584.8567922747254" r="2.5" fill="grey" stroke="none" />
<circle cx="500.88000000000005" cy="588.1664000000001" r="5" fill="black" stroke="none" />
<circle cx="524.8800000000001" cy="588.1664000000001" r="5" fill="black" stroke="none" />
<path d="M524.88,588.1664000000001 A91.60965281541026,91.60965281541026,0,0,0,544.4191958275436,580.1203066082147" stroke="grey" stroke-width="5" fill="none" />
<path d="M544.4191958275436,580.1203066082147 L48.88000000000005,88.16640000000001" stroke="grey" stroke-width="5" />
<circle cx="544.4191958275436" cy="580.1203066082147" r="2.5" fill="grey" stroke="none" />
<circle cx="524.8800000000001" cy="588.1664000000001" r="5" fill="black" stroke="none" />
<circle cx="548.8800000000001" cy="588.1664000000001" r="5" fill="black" stroke="none" />
<path d="M548.8800000000001,588.1664000000001 L528.3721338628305,551.1757140549072" stroke="grey" stroke-width="5" />
<circle cx="528.3721338628305" cy="551.1757140549072" r="2.5" fill="grey" stroke="none" />
<path d="M528.3721338628307,551.1757140549072 A58.51437164457981,58.51437164457981,0,0,0,548.8800000000001,532.1664000000001" stroke="grey" stroke-width="5" fill="none" />
<circle cx="548.8800000000001" cy="588.1664000000001" r="5" fill="black" stroke="none" />
<circle cx="548.8800000000001" cy="532.1664000000001" r="5" fill="black" stroke="none" />
<path d="M548.8800000000001,532.1664000000001 L543.0072142720741,528.3017032970794" stroke="grey" stroke-width="5" />
<circle cx="543.0072142720741" cy="528.3017032970794" r="2.5" fill="grey" stroke="none" />
<path d="M543.0072142720741,528.3017032970794 A51.48404499415334,51.48404499415334,0,0,0,548.8800000000001,516.1664000000001" stroke="grey" stroke-width="5" fill="none" />
<circle cx="548.8800000000001" cy="532.1664000000001" r="5" fill="black" stroke="none" />
<circle cx="548.8800000000001" cy="516.1664000000001" r="5" fill="black" stroke="none" />
<path d="M548.8800000000001,516.1664000000001 L546.4079355985184,515.3487980781483" stroke="grey" stroke-width="5" />
<circle cx="546.4079355985184" cy="515.3487980781483" r="2.5" fill="grey" stroke="none" />
<path d="M546.4079355985184,515.3487980781483 A48.880283233222016,48.880283233222016,0,0,0,548.8800000000001,500.1664" stroke="grey" stroke-width="5" fill="none" />
<circle cx="548.8800000000001" cy="516.1664000000001" r="5" fill="black" stroke="none" />
<circle cx="548.8800000000001" cy="500.1664" r="5" fill="black" stroke="none" />
<path d="M548.8800000000001,500.1664 A48.880283233222016,48.880283233222016,0,0,0,543.9357044999169,478.5772093541485" stroke="grey" stroke-width="5" fill="none" />
<path d="M543.9357044999169,478.5772093541485 L48.88000000000005,-23.83359999999999" stroke="grey" stroke-width="5" />
<circle cx="543.9357044999169" cy="478.5772093541485" r="2.5" fill="grey" stroke="none" />
<circle cx="548.8800000000001" cy="500.1664" r="5" fill="black" stroke="none" />
<circle cx="548.8800000000001" cy="476.1664" r="5" fill="black" stroke="none" />
<path d="M548.8800000000001,476.1664 A54.38101588753197,54.38101588753197,0,0,1,552.8065189224455,487.0089858650909" stroke="grey" stroke-width="5" fill="none" />
<path d="M552.8065189224455,487.0089858650909 L96.88000000000005,-23.83359999999999" stroke="grey" stroke-width="5" />
<circle cx="552.8065189224455" cy="487.0089858650909" r="2.5" fill="grey" stroke="none" />
<circle cx="548.8800000000001" cy="476.1664" r="5" fill="black" stroke="none" />
<circle cx="596.8800000000001" cy="476.1664" r="5" fill="black" stroke="none" />
<path d="M596.8800000000001,476.1664 L595.3758272490758,476.53644388600776" stroke="grey" stroke-width="5" />
<circle cx="595.3758272490758" cy="476.53644388600776" r="2.5" fill="grey" stroke="none" />
<path d="M595.3758272490758,476.53644388600776 A98.21958505797105,98.21958505797105,0,0,1,596.8800000000001,516.1664000000001" stroke="grey" stroke-width="5" fill="none" />
<circle cx="596.8800000000001" cy="476.1664" r="5" fill="black" stroke="none" />
<circle cx="596.8800000000001" cy="516.1664000000001" r="5" fill="black" stroke="none" />
<path d="M596.8800000000001,516.1664000000001 L550.7818708060078,508.47398881294635" stroke="grey" stroke-width="5" />
<circle cx="550.7818708060078" cy="508.47398881294635" r="2.5" fill="grey" stroke="none" />
<path d="M550.7818708060078,508.47398881294635 A51.48404499415334,51.48404499415334,0,0,1,548.8800000000001,516.1664000000001" stroke="grey" stroke-width="5" fill="none" />
<circle cx="596.8800000000001" cy="516.1664000000001" r="5" fill="black" stroke="none" />
<circle cx="548.8800000000001" cy="516.1664000000001" r="5" fill="black" stroke="none" />
<path d="M548.8800000000001,500.1664 A48.880283233222016,48.880283233222016,0,0,0,548.8802424915579,500.06311043102573" stroke="grey" stroke-width="5" fill="none" />
<path d="M548.8802424915579,500.06311043102573 L128.88000000000005,0.1664000000000101" stroke="grey" stroke-width="5" />
<circle cx="548.8802424915579" cy="500.06311043102573" r="2.5" fill="grey" stroke="none" />
<circle cx="548.8800000000001" cy="500.1664" r="5" fill="black" stroke="none" />
<circle cx="628.8800000000001" cy="500.1664" r="5" fill="black" stroke="none" />
<circle cx="500" cy="500" r="5" fill="red" stroke="none" />
</svg>