<?xml version="1.0" encoding="UTF-8"?>
<svg xmlns="http://www.w3.org/2000/svg" xmlns:xlink="http://www.w3.org/1999/xlink"
     width="1000" height="1000" viewBox="0 0 1000 1000">
<defs>
</defs>
<rect x="0" y="0" width="1000" height="1000" fill="white" />
<path d="M104.6962795,354.89202704 L126.05575190594232,362.7326558618108" stroke="grey" stroke-width="5" />
<circle cx="126.05575190594232" cy="362.7326558618108" r="2.5" fill="grey" stroke="none" />
<path d="M126.05575190594232,362.7326558618108 A398.34234578987736,398.34234578987736,0,0,0,104.6962795,450.89202704000013" stroke="grey" stroke-width="5" fill="none" />
<circle cx="104.6962795" cy="354.89202704" r="5" fill="black" stroke="none" />
<circle cx="104.6962795" cy="450.89202704" r="5" fill="black" stroke="none" />
<path d="M104.6962795,450.89202704 L171.15239038592148,459.14776744205017" stroke="grey" stroke-width="5" />
<circle cx="171.15239038592148" cy="459.14776744205017" r="2.5" fill="grey" stroke="none" />
<path d="M171.15239038592148,459.1477674420503 A331.3753992888763,331.3753992888763,0,0,0,168.69627950000006,506.89202704000024" stroke="grey" stroke-width="5" fill="none" />
<circle cx="104.6962795" cy="450.89202704" r="5" fill="black" stroke="none" />
<circle cx="168.6962795" cy="506.89202704" r="5" fill="black" stroke="none" />
<path d="M80.6962795,506.89202704 L168.66935542581598,505.44602790278816" stroke="grey" stroke-width="5" />
<circle cx="168.66935542581598" cy="505.44602790278816" r="2.5" fill="grey" stroke="none" />
<path d="M168.66935542581598,505.44602790278816 A331.3753992888763,331.3753992888763,0,0,0,168.69627950000006,506.89202704000024" stroke="grey" stroke-width="5" fill="none" />
<circle cx="80.6962795" cy="506.89202704" r="5" fill="black" stroke="none" />
<circle cx="168.6962795" cy="506.89202704" r="5" fill="black" stroke="none" />
<path d="M168.6962795,506.89202704 L237.85258000054108,505.453386108601" stroke="grey" stroke-width="5" />
<circle cx="237.85258000054108" cy="505.453386108601" r="2.5" fill="grey" stroke="none" />
<path d="M237.85258000054108,505.45338610860114 A262.2041365661919,262.2041365661919,0,0,0,240.6962795,538.8920270399999" stroke="grey" stroke-width="5" fill="none" />
<circle cx="168.6962795" cy="506.89202704" r="5" fill="black" stroke="none" />
<circle cx="240.6962795" cy="538.89202704" r="5" fill="black" stroke="none" />
<path d="M240.6962795,538.89202704 L253.3399960778553,536.995641727503" stroke="grey" stroke-width="5" />
<circle cx="253.3399960778553" cy="536.995641727503" r="2.5" fill="grey" stroke="none" />
<path d="M253.33999607785526,536.9956417275027 A249.4189949496674,249.4189949496674,0,0,0,256.69627949999995,554.8920270399999" stroke="grey" stroke-width="5" fill="none" />
<circle cx="240.6962795" cy="538.89202704" r="5" fill="black" stroke="none" />
<circle cx="256.6962795" cy="554.89202704" r="5" fill="black" stroke="none" />
<path d="M256.6962795,554.89202704 L277.1296263378895,550.2820365933346" stroke="grey" stroke-width="5" />
<circle cx="277.1296263378895" cy="550.2820365933346" r="2.5" fill="grey" stroke="none" />
<path d="M277.1296263378895,550.2820365933346 A228.4720697596584,228.4720697596584,0,0,0,288.6962795,586.89202704" stroke="grey" stroke-width="5" fill="none" />
<circle cx="256.6962795" cy="554.89202704" r="5" fill="black" stroke="none" />
<circle cx="288.6962795" cy="586.89202704" r="5" fill="black" stroke="none" />
<path d="M256.69627949999995,554.8920270399999 A249.4189949496674,249.4189949496674,0,0,0,281.03588053710007,619.4342891699828" stroke="grey" stroke-width="5" fill="none" />
<path d="M281.03588053710007,619.4342891699829 L208.6962795,658.89202704" stroke="grey" stroke-width="5" />
<circle cx="281.03588053710007" cy="619.4342891699829" r="2.5" fill="grey" stroke="none" />
<circle cx="256.6962795" cy="554.89202704" r="5" fill="black" stroke="none" />
<circle cx="208.6962795" cy="658.89202704" r="5" fill="black" stroke="none" />
<path d="M208.69627949999995,658.8920270399999 A331.82003229766315,331.82003229766315,0,0,0,243.42417959208416,710.4124098432104" stroke="grey" stroke-width="5" fill="none" />
<path d="M243.42417959208416,710.4124098432104 L208.6962795,738.89202704" stroke="grey" stroke-width="5" />
<circle cx="243.42417959208416" cy="710.4124098432104" r="2.5" fill="grey" stroke="none" />
<circle cx="208.6962795" cy="658.89202704" r="5" fill="black" stroke="none" />
<circle cx="208.6962795" cy="738.89202704" r="5" fill="black" stroke="none" />
<path d="M104.6962795,754.89202704 L183.38104322056654,704.1560539595273" stroke="grey" stroke-width="5" />
<circle cx="183.38104322056654" cy="704.1560539595273" r="2.5" fill="grey" stroke="none" />
<path d="M183.38104322056654,704.1560539595273 A376.73234286482784,376.73234286482784,0,0,0,208.6962795,738.89202704" stroke="grey" stroke-width="5" fill="none" />
<circle cx="104.6962795" cy="754.89202704" r="5" fill="black" stroke="none" />
<circle cx="208.6962795" cy="738.89202704" r="5" fill="black" stroke="none" />
<path d="M208.6962795,738.89202704 A376.73234286482784,376.73234286482784,0,0,0,262.58073331880416,792.505299044283" stroke="grey" stroke-width="5" fill="none" />
<path d="M262.58073331880416,792.505299044283 L208.6962795,858.89202704" stroke="grey" stroke-width="5" />
<circle cx="262.58073331880416" cy="792.505299044283" r="2.5" fill="grey" stroke="none" />
<circle cx="208.6962795" cy="738.89202704" r="5" fill="black" stroke="none" />
<circle cx="208.6962795" cy="858.89202704" r="5" fill="black" stroke="none" />
<path d="M208.6962795,658.89202704 L267.9030675188136,626.5976006362121" stroke="grey" stroke-width="5" />
<circle cx="267.9030675188136" cy="626.5976006362121" r="2.5" fill="grey" stroke="none" />
<path d="M267.90306751881354,626.597600636212 A264.37840031670936,264.37840031670936,0,0,0,288.69627949999995,658.89202704" stroke="grey" stroke-width="5" fill="none" />
<circle cx="208.6962795" cy="658.89202704" r="5" fill="black" stroke="none" />
<circle cx="288.6962795" cy="658.89202704" r="5" fill="black" stroke="none" />
<path d="M288.6962795,586.89202704 A228.4720697596584,228.4720697596584,0,0,0,317.39431696114946,637.3122397391328" stroke="grey" stroke-width="5" fill="none" />
<path d="M317.3943169611495,637.3122397391328 L288.6962795,658.89202704" stroke="grey" stroke-width="5" />
<circle cx="317.3943169611495" cy="637.3122397391328" r="2.5" fill="grey" stroke="none" />
<circle cx="288.6962795" cy="586.89202704" r="5" fill="black" stroke="none" />
<circle cx="288.6962795" cy="658.89202704" r="5" fill="black" stroke="none" />
<path d="M288.6962795,658.89202704 L331.11051253851616,626.998204030685" stroke="grey" stroke-width="5" />
<circle cx="331.11051253851616" cy="626.998204030685" r="2.5" fill="grey" stroke="none" />
<path d="M331.1105125385161,626.998204030685 A211.31067839089962,211.31067839089962,0,0,0,360.69627949999995,658.89202704" stroke="grey" stroke-width="5" fill="none" />
<circle cx="288.6962795" cy="658.89202704" r="5" fill="black" stroke="none" />
<circle cx="360.6962795" cy="658.89202704" r="5" fill="black" stroke="none" />
<path d="M288.6962795,586.89202704 L322.3525828097331,573.0519280093927" stroke="grey" stroke-width="5" />
<circle cx="322.3525828097331" cy="573.0519280093927" r="2.5" fill="grey" stroke="none" />
<path d="M322.3525828097331,573.0519280093927 A192.0812042347252,192.0812042347252,0,0,0,328.69627949999995,586.8920270399999" stroke="grey" stroke-width="5" fill="none" />
<circle cx="288.6962795" cy="586.89202704" r="5" fill="black" stroke="none" />
<circle cx="328.6962795" cy="586.89202704" r="5" fill="black" stroke="none" />
<path d="M360.6962795,658.89202704 L414.63615858589253,597.3673477601671" stroke="grey" stroke-width="5" />
<circle cx="414.63615858589253" cy="597.3673477601671" r="2.5" fill="grey" stroke="none" />
<path d="M414.63615858589253,597.3673477601671 A129.48894095953605,129.48894095953605,0,0,0,448.69627950000006,618.89202704" stroke="grey" stroke-width="5" fill="none" />
<circle cx="360.6962795" cy="658.89202704" r="5" fill="black" stroke="none" />
<circle cx="448.6962795" cy="618.89202704" r="5" fill="black" stroke="none" />
<path d="M328.6962795,586.89202704 L418.7714121495297,541.2023546909717" stroke="grey" stroke-width="5" />
<circle cx="418.7714121495297" cy="541.2023546909717" r="2.5" fill="grey" stroke="none" />
<path d="M418.7714121495296,541.2023546909717 A91.08082957605411,91.08082957605411,0,0,0,472.6962795,586.89202704" stroke="grey" stroke-width="5" fill="none" />
<circle cx="328.6962795" cy="586.89202704" r="5" fill="black" stroke="none" />
<circle cx="472.6962795" cy="586.89202704" r="5" fill="black" stroke="none" />
<path d="M448.6962795,618.89202704 L463.91363317321276,583.6270987509716" stroke="grey" stroke-width="5" />
<circle cx="463.91363317321276" cy="583.6270987509716" r="2.5" fill="grey" stroke="none" />
<path d="M463.91363317321276,583.6270987509716 A91.08082957605411,91.08082957605411,0,0,0,472.6962795,586.89202704" stroke="grey" stroke-width="5" fill="none" />
<circle cx="448.6962795" cy="618.89202704" r="5" fill="black" stroke="none" />
<circle cx="472.6962795" cy="586.89202704" r="5" fill="black" stroke="none" />
<path d="M208.6962795,738.89202704 L272.69651357340376,686.4067871584521" stroke="grey" stroke-width="5" />
<circle cx="272.69651357340376" cy="686.4067871584521" r="2.5" fill="grey" stroke="none" />
<path d="M272.69651357340376,686.4067871584521 A293.96320388855173,293.96320388855173,0,0,0,328.6962795,738.89202704" stroke="grey" stroke-width="5" fill="none" />
<circle cx="208.6962795" cy="738.89202704" r="5" fill="black" stroke="none" />
<circle cx="328.6962795" cy="738.89202704" r="5" fill="black" stroke="none" />
<path d="M328.6962795,738.89202704 L405.8759246555162,631.2609620309411" stroke="grey" stroke-width="5" />
<circle cx="405.8759246555162" cy="631.2609620309411" r="2.5" fill="grey" stroke="none" />
<path d="M405.8759246555162,631.2609620309411 A161.52022075499468,161.52022075499468,0,0,0,424.6962795,642.89202704" stroke="grey" stroke-width="5" fill="none" />
<circle cx="328.6962795" cy="738.89202704" r="5" fill="black" stroke="none" />
<circle cx="424.6962795" cy="642.89202704" r="5" fill="black" stroke="none" />
<path d="M424.6962795,642.89202704 L439.6298558020862,614.5549279618529" stroke="grey" stroke-width="5" />
<circle cx="439.6298558020862" cy="614.5549279618529" r="2.5" fill="grey" stroke="none" />
<path d="M439.6298558020862,614.5549279618529 A129.48894095953605,129.48894095953605,0,0,0,448.69627950000006,618.89202704" stroke="grey" stroke-width="5" fill="none" />
<circle cx="424.6962795" cy="642.89202704" r="5" fill="black" stroke="none" />
<circle cx="448.6962795" cy="618.89202704" r="5" fill="black" stroke="none" />
<path d="M448.69627950000006,618.89202704 A129.48894095953605,129.48894095953605,0,0,0,456.24334029908914,621.8718202155071" stroke="grey" stroke-width="5" fill="none" />
<path d="M456.24334029908914,621.8718202155071 L448.6962795,642.89202704" stroke="grey" stroke-width="5" />
<circle cx="456.24334029908914" cy="621.8718202155071" r="2.5" fill="grey" stroke="none" />
<circle cx="448.6962795" cy="618.89202704" r="5" fill="black" stroke="none" />
<circle cx="448.6962795" cy="642.89202704" r="5" fill="black" stroke="none" />
<path d="M448.69627949999995,642.89202704 A151.8229334743016,151.8229334743016,0,0,0,475.88464192873755,649.8954723593645" stroke="grey" stroke-width="5" fill="none" />
<path d="M475.88464192873755,649.8954723593645 L448.6962795,818.89202704" stroke="grey" stroke-width="5" />
<circle cx="475.88464192873755" cy="649.8954723593645" r="2.5" fill="grey" stroke="none" />
<circle cx="448.6962795" cy="642.89202704" r="5" fill="black" stroke="none" />
<circle cx="448.6962795" cy="818.89202704" r="5" fill="black" stroke="none" />
<path d="M448.6962795,818.89202704 L448.8524863249825,817.9210816471378" stroke="grey" stroke-width="5" />
<circle cx="448.8524863249825" cy="817.9210816471378" r="2.5" fill="grey" stroke="none" />
<path d="M448.8524863249825,817.9210816471378 A322.00913389346925,322.00913389346925,0,0,0,544.6962795,818.89202704" stroke="grey" stroke-width="5" fill="none" />
<circle cx="448.6962795" cy="818.89202704" r="5" fill="black" stroke="none" />
<circle cx="544.6962795" cy="818.89202704" r="5" fill="black" stroke="none" />
<path d="M448.69627949999995,818.89202704 A322.9925643831793,322.9925643831793,0,0,0,455.2700787775392,819.8803382426852" stroke="grey" stroke-width="5" fill="none" />
<path d="M455.2700787775391,819.8803382426852 L448.6962795,866.89202704" stroke="grey" stroke-width="5" />
<circle cx="455.2700787775391" cy="819.8803382426852" r="2.5" fill="grey" stroke="none" />
<circle cx="448.6962795" cy="818.89202704" r="5" fill="black" stroke="none" />
<circle cx="448.6962795" cy="866.89202704" r="5" fill="black" stroke="none" />
<path d="M136.6962795,442.89202704 L321.61825712493345,471.96004562065315" stroke="grey" stroke-width="5" />
<circle cx="321.61825712493345" cy="471.96004562065315" r="2.5" fill="grey" stroke="none" />
<path d="M321.6182571249334,471.96004562065326 A180.5721053561214,180.5721053561214,0,0,1,328.6962795,442.89202704" stroke="grey" stroke-width="5" fill="none" />
<circle cx="136.6962795" cy="442.89202704" r="5" fill="black" stroke="none" />
<circle cx="328.6962795" cy="442.89202704" r="5" fill="black" stroke="none" />
<path d="M328.6962795,442.89202704 A180.5721053561214,180.5721053561214,0,0,0,338.9604355654625,581.6856408402153" stroke="grey" stroke-width="5" fill="none" />
<path d="M338.96043556546255,581.6856408402155 L328.6962795,586.89202704" stroke="grey" stroke-width="5" />
<circle cx="338.96043556546255" cy="581.6856408402155" r="2.5" fill="grey" stroke="none" />
<circle cx="328.6962795" cy="442.89202704" r="5" fill="black" stroke="none" />
<circle cx="328.6962795" cy="586.89202704" r="5" fill="black" stroke="none" />
<path d="M328.6962795,442.89202704 A180.5721053561214,180.5721053561214,0,0,1,359.02297148689433,387.1648872719258" stroke="grey" stroke-width="5" fill="none" />
<path d="M359.02297148689445,387.16488727192575 L328.6962795,362.89202704" stroke="grey" stroke-width="5" />
<circle cx="359.02297148689445" cy="387.16488727192575" r="2.5" fill="grey" stroke="none" />
<circle cx="328.6962795" cy="442.89202704" r="5" fill="black" stroke="none" />
<circle cx="328.6962795" cy="362.89202704" r="5" fill="black" stroke="none" />
<path d="M328.69627949999995,362.89202704000013 A219.41640983833045,219.41640983833045,0,0,1,354.3928946423169,335.8594145992565" stroke="grey" stroke-width="5" fill="none" />
<path d="M354.3928946423169,335.8594145992565 L328.6962795,306.89202704" stroke="grey" stroke-width="5" />
<circle cx="354.3928946423169" cy="335.8594145992565" r="2.5" fill="grey" stroke="none" />
<circle cx="328.6962795" cy="362.89202704" r="5" fill="black" stroke="none" />
<circle cx="328.6962795" cy="306.89202704" r="5" fill="black" stroke="none" />
<path d="M328.6962795,362.89202704 L433.0189711426972,446.38976277575915" stroke="grey" stroke-width="5" />
<circle cx="433.0189711426972" cy="446.38976277575915" r="2.5" fill="grey" stroke="none" />
<path d="M433.0189711426972,446.3897627757592 A85.79344824648447,85.79344824648447,0,0,0,424.6962795,458.89202704" stroke="grey" stroke-width="5" fill="none" />
<circle cx="328.6962795" cy="362.89202704" r="5" fill="black" stroke="none" />
<circle cx="424.6962795" cy="458.89202704" r="5" fill="black" stroke="none" />
<path d="M328.6962795,442.89202704 L418.61014828307884,472.8668505418226" stroke="grey" stroke-width="5" />
<circle cx="418.61014828307884" cy="472.8668505418226" r="2.5" fill="grey" stroke="none" />
<path d="M418.61014828307884,472.8668505418226 A85.79344824648447,85.79344824648447,0,0,1,424.6962795,458.89202704" stroke="grey" stroke-width="5" fill="none" />
<circle cx="328.6962795" cy="442.89202704" r="5" fill="black" stroke="none" />
<circle cx="424.6962795" cy="458.89202704" r="5" fill="black" stroke="none" />
<path d="M424.6962795,458.89202704 L463.81216824973933,480.2452202999619" stroke="grey" stroke-width="5" />
<circle cx="463.81216824973933" cy="480.2452202999619" r="2.5" fill="grey" stroke="none" />
<path d="M463.81216824973933,480.2452202999619 A41.22875801891457,41.22875801891457,0,0,0,472.6962795,530.89202704" stroke="grey" stroke-width="5" fill="none" />
<circle cx="424.6962795" cy="458.89202704" r="5" fill="black" stroke="none" />
<circle cx="472.6962795" cy="530.89202704" r="5" fill="black" stroke="none" />
<path d="M424.6962795,642.89202704 L429.21733455787535,634.3131319032152" stroke="grey" stroke-width="5" />
<circle cx="429.21733455787535" cy="634.3131319032152" r="2.5" fill="grey" stroke="none" />
<path d="M429.21733455787535,634.3131319032152 A151.8229334743016,151.8229334743016,0,0,0,448.69627949999995,642.89202704" stroke="grey" stroke-width="5" fill="none" />
<circle cx="424.6962795" cy="642.89202704" r="5" fill="black" stroke="none" />
<circle cx="448.6962795" cy="642.89202704" r="5" fill="black" stroke="none" />
<path d="M448.6962795,642.89202704 L450.8406075866489,636.9196066394159" stroke="grey" stroke-width="5" />
<circle cx="450.8406075866489" cy="636.9196066394159" r="2.5" fill="grey" stroke="none" />
<path d="M450.8406075866489,636.9196066394159 A145.47723033087416,145.47723033087416,0,0,0,472.6962795,642.89202704" stroke="grey" stroke-width="5" fill="none" />
<circle cx="448.6962795" cy="642.89202704" r="5" fill="black" stroke="none" />
<circle cx="472.6962795" cy="642.89202704" r="5" fill="black" stroke="none" />
<path d="M472.6962795,642.89202704 L482.9056031105581,589.4622775880899" stroke="grey" stroke-width="5" />
<circle cx="482.9056031105581" cy="589.4622775880899" r="2.5" fill="grey" stroke="none" />
<path d="M482.9056031105581,589.4622775880899 A91.08082957605411,91.08082957605411,0,0,1,472.6962795,586.89202704" stroke="grey" stroke-width="5" fill="none" />
<circle cx="472.6962795" cy="642.89202704" r="5" fill="black" stroke="none" />
<circle cx="472.6962795" cy="586.89202704" r="5" fill="black" stroke="none" />
<path d="M472.6962795,586.89202704 L477.22665185473085,572.4744593994089" stroke="grey" stroke-width="5" />
<circle cx="477.22665185473085" cy="572.4744593994089" r="2.5" fill="grey" stroke="none" />
<path d="M477.22665185473085,572.4744593994089 A75.96823448641025,75.96823448641025,0,0,1,472.6962795,570.89202704" stroke="grey" stroke-width="5" fill="none" />
<circle cx="472.6962795" cy="586.89202704" r="5" fill="black" stroke="none" />
<circle cx="472.6962795" cy="570.89202704" r="5" fill="black" stroke="none" />
<path d="M472.6962795,570.89202704 L477.96543627514757,557.2110635031165" stroke="grey" stroke-width="5" />
<circle cx="477.96543627514757" cy="557.2110635031165" r="2.5" fill="grey" stroke="none" />
<path d="M477.96543627514757,557.2110635031165 A61.307648672104634,61.307648672104634,0,0,1,472.6962795,554.89202704" stroke="grey" stroke-width="5" fill="none" />
<circle cx="472.6962795" cy="570.89202704" r="5" fill="black" stroke="none" />
<circle cx="472.6962795" cy="554.89202704" r="5" fill="black" stroke="none" />
<path d="M472.6962795,554.89202704 L481.63853108229256,536.914318996377" stroke="grey" stroke-width="5" />
<circle cx="481.63853108229256" cy="536.914318996377" r="2.5" fill="grey" stroke="none" />
<path d="M481.63853108229256,536.914318996377 A41.22875801891457,41.22875801891457,0,0,1,472.6962795,530.89202704" stroke="grey" stroke-width="5" fill="none" />
<circle cx="472.6962795" cy="554.89202704" r="5" fill="black" stroke="none" />
<circle cx="472.6962795" cy="530.89202704" r="5" fill="black" stroke="none" />
<path d="M472.6962795,530.89202704 L475.3748872495695,527.8613915986047" stroke="grey" stroke-width="5" />
<circle cx="475.3748872495695" cy="527.8613915986047" r="2.5" fill="grey" stroke="none" />
<path d="M475.3748872495695,527.8613915986047 A37.184046576216154,37.184046576216154,0,0,0,520.6962795000001,530.89202704" stroke="grey" stroke-width="5" fill="none" />
<circle cx="472.6962795" cy="530.89202704" r="5" fill="black" stroke="none" />
<circle cx="520.6962795" cy="530.89202704" r="5" fill="black" stroke="none" />
<path d="M520.6962795000001,530.89202704 A37.184046576216154,37.184046576216154,0,0,1,510.42055254757656,535.6940527873398" stroke="grey" stroke-width="5" fill="none" />
<path d="M510.42055254757656,535.6940527873398 L520.6962795,570.89202704" stroke="grey" stroke-width="5" />
<circle cx="510.42055254757656" cy="535.6940527873398" r="2.5" fill="grey" stroke="none" />
<circle cx="520.6962795" cy="530.89202704" r="5" fill="black" stroke="none" />
<circle cx="520.6962795" cy="570.89202704" r="5" fill="black" stroke="none" />
<path d="M520.6962795,570.89202704 A73.85130657599913,73.85130657599913,0,0,1,473.45712392892847,568.9165525317246" stroke="grey" stroke-width="5" fill="none" />
<path d="M473.45712392892847,568.9165525317245 L472.6962795,570.89202704" stroke="grey" stroke-width="5" />
<circle cx="473.45712392892847" cy="568.9165525317245" r="2.5" fill="grey" stroke="none" />
<circle cx="520.6962795" cy="570.89202704" r="5" fill="black" stroke="none" />
<circle cx="472.6962795" cy="570.89202704" r="5" fill="black" stroke="none" />
<path d="M472.6962795,554.89202704 A61.307648672104634,61.307648672104634,0,0,0,542.4574701517683,544.2265871847909" stroke="grey" stroke-width="5" fill="none" />
<path d="M542.4574701517683,544.2265871847909 L552.6962795,554.89202704" stroke="grey" stroke-width="5" />
<circle cx="542.4574701517683" cy="544.2265871847909" r="2.5" fill="grey" stroke="none" />
<circle cx="472.6962795" cy="554.89202704" r="5" fill="black" stroke="none" />
<circle cx="552.6962795" cy="554.89202704" r="5" fill="black" stroke="none" />
<circle cx="500" cy="500" r="5" fill="red" stroke="none" />
</svg>