<?xml version="1.0" encoding="UTF-8"?>
<svg xmlns="http://www.w3.org/2000/svg" xmlns:xlink="http://www.w3.org/1999/xlink"
     width="1000" height="1000" viewBox="0 0 1000 1000">
<defs>
</defs>
<rect x="0" y="0" width="1000" height="1000" fill="white" />
<path d="M175.149312,304.89560064 L208.84500381739048,325.13313731731694" stroke="grey" stroke-width="5" />
<circle cx="208.84500381739048" cy="325.13313731731694" r="2.5" fill="grey" stroke="none" />
<path d="M208.84500381739053,325.1331373173168 A339.6316408501712,339.6316408501712,0,0,0,175.149312,400.8956006400001" stroke="grey" stroke-width="5" fill="none" />
<circle cx="175.149312" cy="304.89560064" r="5" fill="black" stroke="none" />
<circle cx="175.149312" cy="400.89560064" r="5" fill="black" stroke="none" />
<path d="M175.149312,400.89560064 L247.11820733996686,422.851638933107" stroke="grey" stroke-width="5" />
<circle cx="247.11820733996686" cy="422.851638933107" r="2.5" fill="grey" stroke="none" />
<path d="M247.11820733996686,422.851638933107 A264.38810615127846,264.38810615127846,0,0,0,239.149312,456.89560064000005" stroke="grey" stroke-width="5" fill="none" />
<circle cx="175.149312" cy="400.89560064" r="5" fill="black" stroke="none" />
<circle cx="239.149312" cy="456.89560064" r="5" fill="black" stroke="none" />
<path d="M151.149312,456.89560064 L237.60732850776287,467.5784543640096" stroke="grey" stroke-width="5" />
<circle cx="237.60732850776287" cy="467.5784543640096" r="2.5" fill="grey" stroke="none" />
<path d="M237.60732850776287,467.5784543640096 A264.38810615127846,264.38810615127846,0,0,1,239.149312,456.89560064000005" stroke="grey" stroke-width="5" fill="none" />
<circle cx="151.149312" cy="456.89560064" r="5" fill="black" stroke="none" />
<circle cx="239.149312" cy="456.89560064" r="5" fill="black" stroke="none" />
<path d="M239.149312,456.89560064 L313.3542437985729,469.1576308429921" stroke="grey" stroke-width="5" />
<circle cx="313.3542437985729" cy="469.1576308429921" r="2.5" fill="grey" stroke="none" />
<path d="M313.3542437985729,469.1576308429921 A189.1768750223444,189.1768750223444,0,0,0,311.149312,488.89560064" stroke="grey" stroke-width="5" fill="none" />
<circle cx="239.149312" cy="456.89560064" r="5" fill="black" stroke="none" />
<circle cx="311.149312" cy="488.89560064" r="5" fill="black" stroke="none" />
<path d="M311.149312,488.89560064 L327.3781537621818,489.8498547228737" stroke="grey" stroke-width="5" />
<circle cx="327.3781537621818" cy="489.8498547228737" r="2.5" fill="grey" stroke="none" />
<path d="M327.3781537621818,489.8498547228737 A172.92000245113263,172.92000245113263,0,0,0,327.149312,504.89560064000005" stroke="grey" stroke-width="5" fill="none" />
<circle cx="311.149312" cy="488.89560064" r="5" fill="black" stroke="none" />
<circle cx="327.149312" cy="504.89560064" r="5" fill="black" stroke="none" />
<path d="M327.149312,504.89560064 L354.4554741949602,504.12221601154204" stroke="grey" stroke-width="5" />
<circle cx="354.4554741949602" cy="504.12221601154204" r="2.5" fill="grey" stroke="none" />
<path d="M354.4554741949602,504.12221601154204 A145.60289027577616,145.60289027577616,0,0,0,359.149312,536.89560064" stroke="grey" stroke-width="5" fill="none" />
<circle cx="327.149312" cy="504.89560064" r="5" fill="black" stroke="none" />
<circle cx="359.149312" cy="536.89560064" r="5" fill="black" stroke="none" />
<path d="M327.149312,504.89560064000005 A172.92000245113263,172.92000245113263,0,0,0,344.90833274776264,576.4715763968613" stroke="grey" stroke-width="5" fill="none" />
<path d="M344.90833274776264,576.4715763968613 L279.149312,608.89560064" stroke="grey" stroke-width="5" />
<circle cx="344.90833274776264" cy="576.4715763968613" r="2.5" fill="grey" stroke="none" />
<circle cx="327.149312" cy="504.89560064" r="5" fill="black" stroke="none" />
<circle cx="279.149312" cy="608.89560064" r="5" fill="black" stroke="none" />
<path d="M279.149312,608.89560064 A246.23825500685248,246.23825500685248,0,0,0,312.8725280545127,660.0518274563292" stroke="grey" stroke-width="5" fill="none" />
<path d="M312.8725280545127,660.0518274563292 L279.149312,688.89560064" stroke="grey" stroke-width="5" />
<circle cx="312.8725280545127" cy="660.0518274563292" r="2.5" fill="grey" stroke="none" />
<circle cx="279.149312" cy="608.89560064" r="5" fill="black" stroke="none" />
<circle cx="279.149312" cy="688.89560064" r="5" fill="black" stroke="none" />
<path d="M175.149312,704.89560064 L254.19566926885767,655.0380770166959" stroke="grey" stroke-width="5" />
<circle cx="254.19566926885767" cy="655.0380770166959" r="2.5" fill="grey" stroke="none" />
<path d="M254.19566926885767,655.0380770166959 A290.614133054846,290.614133054846,0,0,0,279.149312,688.8956006400001" stroke="grey" stroke-width="5" fill="none" />
<circle cx="175.149312" cy="704.89560064" r="5" fill="black" stroke="none" />
<circle cx="279.149312" cy="688.89560064" r="5" fill="black" stroke="none" />
<path d="M279.149312,688.8956006400001 A290.614133054846,290.614133054846,0,0,0,330.97706849685335,736.4060552466926" stroke="grey" stroke-width="5" fill="none" />
<path d="M330.97706849685335,736.4060552466926 L279.149312,808.89560064" stroke="grey" stroke-width="5" />
<circle cx="330.97706849685335" cy="736.4060552466926" r="2.5" fill="grey" stroke="none" />
<circle cx="279.149312" cy="688.89560064" r="5" fill="black" stroke="none" />
<circle cx="279.149312" cy="808.89560064" r="5" fill="black" stroke="none" />
<path d="M279.149312,608.89560064 L340.318919167915,578.7344941757858" stroke="grey" stroke-width="5" />
<circle cx="340.318919167915" cy="578.7344941757858" r="2.5" fill="grey" stroke="none" />
<path d="M340.318919167915,578.7344941757858 A178.036985339619,178.036985339619,0,0,0,359.149312,608.89560064" stroke="grey" stroke-width="5" fill="none" />
<circle cx="279.149312" cy="608.89560064" r="5" fill="black" stroke="none" />
<circle cx="359.149312" cy="608.89560064" r="5" fill="black" stroke="none" />
<path d="M359.149312,536.89560064 A145.60289027577616,145.60289027577616,0,0,0,384.8089500560206,589.0574178239149" stroke="grey" stroke-width="5" fill="none" />
<path d="M384.8089500560206,589.0574178239149 L359.149312,608.89560064" stroke="grey" stroke-width="5" />
<circle cx="384.8089500560206" cy="589.0574178239149" r="2.5" fill="grey" stroke="none" />
<circle cx="359.149312" cy="536.89560064" r="5" fill="black" stroke="none" />
<circle cx="359.149312" cy="608.89560064" r="5" fill="black" stroke="none" />
<path d="M359.149312,608.89560064 L398.07390774172416,578.8019085668435" stroke="grey" stroke-width="5" />
<circle cx="398.07390774172416" cy="578.8019085668435" r="2.5" fill="grey" stroke="none" />
<path d="M398.07390774172416,578.8019085668435 A128.8358221800898,128.8358221800898,0,0,0,431.149312,608.89560064" stroke="grey" stroke-width="5" fill="none" />
<circle cx="359.149312" cy="608.89560064" r="5" fill="black" stroke="none" />
<circle cx="431.149312" cy="608.89560064" r="5" fill="black" stroke="none" />
<path d="M359.149312,536.89560064 L396.1171025312119,527.2119501349861" stroke="grey" stroke-width="5" />
<circle cx="396.1171025312119" cy="527.2119501349861" r="2.5" fill="grey" stroke="none" />
<path d="M396.1171025312119,527.2119501349861 A107.38783272168087,107.38783272168087,0,0,0,399.149312,536.8956006400001" stroke="grey" stroke-width="5" fill="none" />
<circle cx="359.149312" cy="536.89560064" r="5" fill="black" stroke="none" />
<circle cx="399.149312" cy="536.89560064" r="5" fill="black" stroke="none" />
<path d="M431.149312,608.89560064 L461.7860188283605,560.4399832944492" stroke="grey" stroke-width="5" />
<circle cx="461.7860188283605" cy="560.4399832944492" r="2.5" fill="grey" stroke="none" />
<path d="M461.7860188283605,560.4399832944492 A71.5073418441751,71.5073418441751,0,0,0,519.149312,568.89560064" stroke="grey" stroke-width="5" fill="none" />
<circle cx="431.149312" cy="608.89560064" r="5" fill="black" stroke="none" />
<circle cx="519.149312" cy="568.89560064" r="5" fill="black" stroke="none" />
<path d="M399.149312,536.89560064 L446.6832162469449,519.50561567574" stroke="grey" stroke-width="5" />
<circle cx="446.6832162469449" cy="519.50561567574" r="2.5" fill="grey" stroke="none" />
<path d="M446.6832162469449,519.50561567574 A56.77277932829883,56.77277932829883,0,0,0,543.149312,536.89560064" stroke="grey" stroke-width="5" fill="none" />
<circle cx="399.149312" cy="536.89560064" r="5" fill="black" stroke="none" />
<circle cx="543.149312" cy="536.89560064" r="5" fill="black" stroke="none" />
<path d="M519.149312,568.89560064 L515.203469132356,554.6992047382886" stroke="grey" stroke-width="5" />
<circle cx="515.203469132356" cy="554.6992047382886" r="2.5" fill="grey" stroke="none" />
<path d="M515.203469132356,554.6992047382886 A56.77277932829883,56.77277932829883,0,0,0,543.149312,536.89560064" stroke="grey" stroke-width="5" fill="none" />
<circle cx="519.149312" cy="568.89560064" r="5" fill="black" stroke="none" />
<circle cx="543.149312" cy="536.89560064" r="5" fill="black" stroke="none" />
<path d="M279.149312,688.89560064 L337.271693278041,639.1829996897026" stroke="grey" stroke-width="5" />
<circle cx="337.271693278041" cy="639.1829996897026" r="2.5" fill="grey" stroke="none" />
<path d="M337.271693278041,639.1829996897026 A214.1317566621535,214.1317566621535,0,0,0,399.149312,688.89560064" stroke="grey" stroke-width="5" fill="none" />
<circle cx="279.149312" cy="688.89560064" r="5" fill="black" stroke="none" />
<circle cx="399.149312" cy="688.89560064" r="5" fill="black" stroke="none" />
<path d="M399.149312,688.89560064 L456.18889634673894,582.0591797974056" stroke="grey" stroke-width="5" />
<circle cx="456.18889634673894" cy="582.0591797974056" r="2.5" fill="grey" stroke="none" />
<path d="M456.18889634673894,582.0591797974056 A93.0221575343193,93.0221575343193,0,0,0,495.149312,592.89560064" stroke="grey" stroke-width="5" fill="none" />
<circle cx="399.149312" cy="688.89560064" r="5" fill="black" stroke="none" />
<circle cx="495.149312" cy="592.89560064" r="5" fill="black" stroke="none" />
<path d="M495.149312,592.89560064 L496.2712130723536,571.4100559141913" stroke="grey" stroke-width="5" />
<circle cx="496.2712130723536" cy="571.4100559141913" r="2.5" fill="grey" stroke="none" />
<path d="M496.2712130723536,571.4100559141913 A71.5073418441751,71.5073418441751,0,0,0,519.149312,568.89560064" stroke="grey" stroke-width="5" fill="none" />
<circle cx="495.149312" cy="592.89560064" r="5" fill="black" stroke="none" />
<circle cx="519.149312" cy="568.89560064" r="5" fill="black" stroke="none" />
<path d="M519.149312,568.89560064 A71.5073418441751,71.5073418441751,0,0,1,514.4368390847026,570.0348314402349" stroke="grey" stroke-width="5" fill="none" />
<path d="M514.4368390847026,570.0348314402349 L519.149312,592.89560064" stroke="grey" stroke-width="5" />
<circle cx="514.4368390847026" cy="570.0348314402349" r="2.5" fill="grey" stroke="none" />
<circle cx="519.149312" cy="568.89560064" r="5" fill="black" stroke="none" />
<circle cx="519.149312" cy="592.89560064" r="5" fill="black" stroke="none" />
<path d="M519.149312,592.89560064 A94.84876787992408,94.84876787992408,0,0,1,506.737560631605,594.6091646991727" stroke="grey" stroke-width="5" fill="none" />
<path d="M506.737560631605,594.6091646991727 L519.149312,768.89560064" stroke="grey" stroke-width="5" />
<circle cx="506.737560631605" cy="594.6091646991727" r="2.5" fill="grey" stroke="none" />
<circle cx="519.149312" cy="592.89560064" r="5" fill="black" stroke="none" />
<circle cx="519.149312" cy="768.89560064" r="5" fill="black" stroke="none" />
<path d="M519.149312,768.8956006400001 A269.5765942985773,269.5765942985773,0,0,0,606.1200539661763,747.8105613968773" stroke="grey" stroke-width="5" fill="none" />
<path d="M606.1200539661763,747.8105613968773 L615.149312,768.89560064" stroke="grey" stroke-width="5" />
<circle cx="606.1200539661763" cy="747.8105613968773" r="2.5" fill="grey" stroke="none" />
<circle cx="519.149312" cy="768.89560064" r="5" fill="black" stroke="none" />
<circle cx="615.149312" cy="768.89560064" r="5" fill="black" stroke="none" />
<path d="M519.149312,768.8956006400001 A269.5765942985773,269.5765942985773,0,0,1,516.2602670401503,769.0857556791193" stroke="grey" stroke-width="5" fill="none" />
<path d="M516.2602670401503,769.0857556791193 L519.149312,816.89560064" stroke="grey" stroke-width="5" />
<circle cx="516.2602670401503" cy="769.0857556791193" r="2.5" fill="grey" stroke="none" />
<circle cx="519.149312" cy="768.89560064" r="5" fill="black" stroke="none" />
<circle cx="519.149312" cy="816.89560064" r="5" fill="black" stroke="none" />
<path d="M207.149312,392.89560064 L361.83739325275627,449.469734523296" stroke="grey" stroke-width="5" />
<circle cx="361.83739325275627" cy="449.469734523296" r="2.5" fill="grey" stroke="none" />
<path d="M361.8373932527563,449.4697345232959 A147.11292816180264,147.11292816180264,0,0,1,399.149312,392.89560064000005" stroke="grey" stroke-width="5" fill="none" />
<circle cx="207.149312" cy="392.89560064" r="5" fill="black" stroke="none" />
<circle cx="399.149312" cy="392.89560064" r="5" fill="black" stroke="none" />
<path d="M399.149312,392.89560064 L426.3821545248636,421.8171409818069" stroke="grey" stroke-width="5" />
<circle cx="426.3821545248636" cy="421.8171409818069" r="2.5" fill="grey" stroke="none" />
<path d="M426.3821545248636,421.8171409818069 A107.38783272168087,107.38783272168087,0,0,0,399.149312,536.8956006400001" stroke="grey" stroke-width="5" fill="none" />
<circle cx="399.149312" cy="392.89560064" r="5" fill="black" stroke="none" />
<circle cx="399.149312" cy="536.89560064" r="5" fill="black" stroke="none" />
<path d="M399.149312,392.89560064000005 A147.11292816180264,147.11292816180264,0,0,1,430.1989758925739,370.5008468525982" stroke="grey" stroke-width="5" fill="none" />
<path d="M430.1989758925739,370.5008468525982 L399.149312,312.89560064" stroke="grey" stroke-width="5" />
<circle cx="430.1989758925739" cy="370.5008468525982" r="2.5" fill="grey" stroke="none" />
<circle cx="399.149312" cy="392.89560064" r="5" fill="black" stroke="none" />
<circle cx="399.149312" cy="312.89560064" r="5" fill="black" stroke="none" />
<path d="M399.149312,312.89560064 A212.55332867292316,212.55332867292316,0,0,1,418.5535294559412,303.6702010242575" stroke="grey" stroke-width="5" fill="none" />
<path d="M418.5535294559413,303.6702010242575 L399.149312,256.89560064" stroke="grey" stroke-width="5" />
<circle cx="418.5535294559413" cy="303.6702010242575" r="2.5" fill="grey" stroke="none" />
<circle cx="399.149312" cy="312.89560064" r="5" fill="black" stroke="none" />
<circle cx="399.149312" cy="256.89560064" r="5" fill="black" stroke="none" />
<path d="M399.149312,312.89560064 L456.7122502810496,419.68990423932235" stroke="grey" stroke-width="5" />
<circle cx="456.7122502810496" cy="419.68990423932235" r="2.5" fill="grey" stroke="none" />
<path d="M456.7122502810496,419.68990423932235 A91.23344100065341,91.23344100065341,0,0,1,495.149312,408.89560064" stroke="grey" stroke-width="5" fill="none" />
<circle cx="399.149312" cy="312.89560064" r="5" fill="black" stroke="none" />
<circle cx="495.149312" cy="408.89560064" r="5" fill="black" stroke="none" />
<path d="M399.149312,392.89560064 L437.4565144716336,433.5782176181433" stroke="grey" stroke-width="5" />
<circle cx="437.4565144716336" cy="433.5782176181433" r="2.5" fill="grey" stroke="none" />
<path d="M437.4565144716336,433.5782176181433 A91.23344100065341,91.23344100065341,0,0,1,495.149312,408.89560064" stroke="grey" stroke-width="5" fill="none" />
<circle cx="399.149312" cy="392.89560064" r="5" fill="black" stroke="none" />
<circle cx="495.149312" cy="408.89560064" r="5" fill="black" stroke="none" />
<path d="M495.149312,408.89560064 L497.4910390023589,452.8773269466594" stroke="grey" stroke-width="5" />
<circle cx="497.4910390023589" cy="452.8773269466594" r="2.5" fill="grey" stroke="none" />
<path d="M497.4910390023589,452.8773269466594 A47.18941831575923,47.18941831575923,0,0,1,543.149312,480.89560064" stroke="grey" stroke-width="5" fill="none" />
<circle cx="495.149312" cy="408.89560064" r="5" fill="black" stroke="none" />
<circle cx="543.149312" cy="480.89560064" r="5" fill="black" stroke="none" />
<path d="M495.149312,592.89560064 A93.0221575343193,93.0221575343193,0,0,0,518.7805319705673,591.1066046521448" stroke="grey" stroke-width="5" fill="none" />
<path d="M518.7805319705673,591.1066046521448 L519.149312,592.89560064" stroke="grey" stroke-width="5" />
<circle cx="518.7805319705673" cy="591.1066046521448" r="2.5" fill="grey" stroke="none" />
<circle cx="495.149312" cy="592.89560064" r="5" fill="black" stroke="none" />
<circle cx="519.149312" cy="592.89560064" r="5" fill="black" stroke="none" />
<path d="M519.149312,592.89560064 A94.84876787992408,94.84876787992408,0,0,0,539.9565233203448,586.0218868224272" stroke="grey" stroke-width="5" fill="none" />
<path d="M539.9565233203448,586.0218868224272 L543.149312,592.89560064" stroke="grey" stroke-width="5" />
<circle cx="539.9565233203448" cy="586.0218868224272" r="2.5" fill="grey" stroke="none" />
<circle cx="519.149312" cy="592.89560064" r="5" fill="black" stroke="none" />
<circle cx="543.149312" cy="592.89560064" r="5" fill="black" stroke="none" />
<path d="M543.149312,592.89560064 L523.9164190731897,551.4893520193766" stroke="grey" stroke-width="5" />
<circle cx="523.9164190731897" cy="551.4893520193766" r="2.5" fill="grey" stroke="none" />
<path d="M523.9164190731897,551.4893520193766 A56.77277932829883,56.77277932829883,0,0,0,543.149312,536.89560064" stroke="grey" stroke-width="5" fill="none" />
<circle cx="543.149312" cy="592.89560064" r="5" fill="black" stroke="none" />
<circle cx="543.149312" cy="536.89560064" r="5" fill="black" stroke="none" />
<path d="M543.149312,536.89560064 L536.4380358116683,531.15700239701" stroke="grey" stroke-width="5" />
<circle cx="536.4380358116683" cy="531.15700239701" r="2.5" fill="grey" stroke="none" />
<path d="M536.4380358116683,531.15700239701 A47.94256201101182,47.94256201101182,0,0,0,543.149312,520.89560064" stroke="grey" stroke-width="5" fill="none" />
<circle cx="543.149312" cy="536.89560064" r="5" fill="black" stroke="none" />
<circle cx="543.149312" cy="520.89560064" r="5" fill="black" stroke="none" />
<path d="M543.149312,520.89560064 L539.0844415098608,518.927135640714" stroke="grey" stroke-width="5" />
<circle cx="539.0844415098608" cy="518.927135640714" r="2.5" fill="grey" stroke="none" />
<path d="M539.0844415098608,518.927135640714 A43.42614456407239,43.42614456407239,0,0,0,543.149312,504.89560064" stroke="grey" stroke-width="5" fill="none" />
<circle cx="543.149312" cy="520.89560064" r="5" fill="black" stroke="none" />
<circle cx="543.149312" cy="504.89560064" r="5" fill="black" stroke="none" />
<path d="M543.149312,504.89560064 A43.42614456407239,43.42614456407239,0,0,0,539.7082296758571,482.4191431463339" stroke="grey" stroke-width="5" fill="none" />
<path d="M539.7082296758571,482.4191431463339 L543.149312,480.89560064" stroke="grey" stroke-width="5" />
<circle cx="539.7082296758571" cy="482.4191431463339" r="2.5" fill="grey" stroke="none" />
<circle cx="543.149312" cy="504.89560064" r="5" fill="black" stroke="none" />
<circle cx="543.149312" cy="480.89560064" r="5" fill="black" stroke="none" />
<path d="M543.149312,480.89560064 A47.18941831575923,47.18941831575923,0,0,1,546.1858520954818,490.31969694720266" stroke="grey" stroke-width="5" fill="none" />
<path d="M546.1858520954818,490.3196969472027 L591.149312,480.89560064" stroke="grey" stroke-width="5" />
<circle cx="546.1858520954818" cy="490.3196969472027" r="2.5" fill="grey" stroke="none" />
<circle cx="543.149312" cy="480.89560064" r="5" fill="black" stroke="none" />
<circle cx="591.149312" cy="480.89560064" r="5" fill="black" stroke="none" />
<path d="M591.149312,480.89560064 A93.12988324367058,93.12988324367058,0,0,1,590.7751419185801,520.8098237051968" stroke="grey" stroke-width="5" fill="none" />
<path d="M590.7751419185801,520.8098237051968 L591.149312,520.89560064" stroke="grey" stroke-width="5" />
<circle cx="590.7751419185801" cy="520.8098237051968" r="2.5" fill="grey" stroke="none" />
<circle cx="591.149312" cy="480.89560064" r="5" fill="black" stroke="none" />
<circle cx="591.149312" cy="520.89560064" r="5" fill="black" stroke="none" />
<path d="M591.149312,520.89560064 L546.7303589236025,510.712740408084" stroke="grey" stroke-width="5" />
<circle cx="546.7303589236025" cy="510.712740408084" r="2.5" fill="grey" stroke="none" />
<path d="M546.7303589236025,510.712740408084 A47.94256201101182,47.94256201101182,0,0,1,543.149312,520.89560064" stroke="grey" stroke-width="5" fill="none" />
<circle cx="591.149312" cy="520.89560064" r="5" fill="black" stroke="none" />
<circle cx="543.149312" cy="520.89560064" r="5" fill="black" stroke="none" />
<path d="M543.149312,504.89560064 A43.42614456407239,43.42614456407239,0,0,0,543.3918713455591,501.72497328389557" stroke="grey" stroke-width="5" fill="none" />
<path d="M543.3918713455591,501.72497328389557 L623.149312,504.89560064" stroke="grey" stroke-width="5" />
<circle cx="543.3918713455591" cy="501.72497328389557" r="2.5" fill="grey" stroke="none" />
<circle cx="543.149312" cy="504.89560064" r="5" fill="black" stroke="none" />
<circle cx="623.149312" cy="504.89560064" r="5" fill="black" stroke="none" />
<circle cx="500" cy="500" r="5" fill="red" stroke="none" />
</svg>