<?xml version="1.0" encoding="UTF-8"?>
<svg xmlns="http://www.w3.org/2000/svg" xmlns:xlink="http://www.w3.org/1999/xlink"
     width="1000" height="1000" viewBox="0 0 1000 1000">
<defs>
</defs>
<rect x="0" y="0" width="1000" height="1000" fill="white" />
<path d="M207.5207595,280.91227344 L246.02737855206198,309.7564663174369" stroke="grey" stroke-width="5" />
<circle cx="246.02737855206198" cy="309.7564663174369" r="2.5" fill="grey" stroke="none" />
<path d="M246.02737855206198,309.7564663174369 A317.3242735013604,317.3242735013604,0,0,0,207.5207595,376.91227344000004" stroke="grey" stroke-width="5" fill="none" />
<circle cx="207.5207595" cy="280.91227344" r="5" fill="black" stroke="none" />
<circle cx="207.5207595" cy="376.91227344" r="5" fill="black" stroke="none" />
<path d="M207.5207595,376.91227344 L280.519072841745,407.6330740567874" stroke="grey" stroke-width="5" />
<circle cx="280.519072841745" cy="407.6330740567874" r="2.5" fill="grey" stroke="none" />
<path d="M280.519072841745,407.6330740567874 A238.12502261300926,238.12502261300926,0,0,0,271.5207595,432.91227344000004" stroke="grey" stroke-width="5" fill="none" />
<circle cx="207.5207595" cy="376.91227344" r="5" fill="black" stroke="none" />
<circle cx="271.5207595" cy="432.91227344" r="5" fill="black" stroke="none" />
<path d="M183.5207595,432.91227344 L267.0513699128429,450.6192128964814" stroke="grey" stroke-width="5" />
<circle cx="267.0513699128429" cy="450.6192128964814" r="2.5" fill="grey" stroke="none" />
<path d="M267.0513699128429,450.6192128964814 A238.12502261300926,238.12502261300926,0,0,1,271.5207595,432.91227344000004" stroke="grey" stroke-width="5" fill="none" />
<circle cx="183.5207595" cy="432.91227344" r="5" fill="black" stroke="none" />
<circle cx="271.5207595" cy="432.91227344" r="5" fill="black" stroke="none" />
<path d="M271.5207595,432.91227344 L346.1310355728972,454.8198821522438" stroke="grey" stroke-width="5" />
<circle cx="346.1310355728972" cy="454.8198821522438" r="2.5" fill="grey" stroke="none" />
<path d="M346.1310355728972,454.8198821522438 A160.36490034482662,160.36490034482662,0,0,0,343.5207595,464.9122734399999" stroke="grey" stroke-width="5" fill="none" />
<circle cx="271.5207595" cy="432.91227344" r="5" fill="black" stroke="none" />
<circle cx="343.5207595" cy="464.91227344" r="5" fill="black" stroke="none" />
<path d="M343.5207595,464.91227344 L361.6650158178834,468.98080484571346" stroke="grey" stroke-width="5" />
<circle cx="361.6650158178834" cy="468.98080484571346" r="2.5" fill="grey" stroke="none" />
<path d="M361.6650158178834,468.98080484571346 A141.77008964053798,141.77008964053798,0,0,0,359.5207595,480.91227344" stroke="grey" stroke-width="5" fill="none" />
<circle cx="343.5207595" cy="464.91227344" r="5" fill="black" stroke="none" />
<circle cx="359.5207595" cy="480.91227344" r="5" fill="black" stroke="none" />
<path d="M359.5207595,480.91227344 L391.7496898652782,485.29140453399043" stroke="grey" stroke-width="5" />
<circle cx="391.7496898652782" cy="485.29140453399043" r="2.5" fill="grey" stroke="none" />
<path d="M391.7496898652782,485.29140453399043 A109.2450109837798,109.2450109837798,0,0,0,391.5207595,512.9122734399999" stroke="grey" stroke-width="5" fill="none" />
<circle cx="359.5207595" cy="480.91227344" r="5" fill="black" stroke="none" />
<circle cx="391.5207595" cy="512.91227344" r="5" fill="black" stroke="none" />
<path d="M359.5207595,480.91227344 A141.77008964053798,141.77008964053798,0,0,0,370.74161343924493,558.232532319972" stroke="grey" stroke-width="5" fill="none" />
<path d="M370.74161343924493,558.232532319972 L311.5207595,584.91227344" stroke="grey" stroke-width="5" />
<circle cx="370.74161343924493" cy="558.232532319972" r="2.5" fill="grey" stroke="none" />
<circle cx="359.5207595" cy="480.91227344" r="5" fill="black" stroke="none" />
<circle cx="311.5207595" cy="584.91227344" r="5" fill="black" stroke="none" />
<path d="M311.5207595,584.9122734399999 A206.723289157768,206.723289157768,0,0,0,344.42198153260773,636.1249369144607" stroke="grey" stroke-width="5" fill="none" />
<path d="M344.42198153260773,636.1249369144607 L311.5207595,664.91227344" stroke="grey" stroke-width="5" />
<circle cx="344.42198153260773" cy="636.1249369144607" r="2.5" fill="grey" stroke="none" />
<circle cx="311.5207595" cy="584.91227344" r="5" fill="black" stroke="none" />
<circle cx="311.5207595" cy="664.91227344" r="5" fill="black" stroke="none" />
<path d="M207.5207595,680.91227344 L287.0114394303917,631.7435201332212" stroke="grey" stroke-width="5" />
<circle cx="287.0114394303917" cy="631.7435201332212" r="2.5" fill="grey" stroke="none" />
<path d="M287.0114394303917,631.7435201332212 A250.44057584705828,250.44057584705828,0,0,0,311.52075950000005,664.91227344" stroke="grey" stroke-width="5" fill="none" />
<circle cx="207.5207595" cy="680.91227344" r="5" fill="black" stroke="none" />
<circle cx="311.5207595" cy="664.91227344" r="5" fill="black" stroke="none" />
<path d="M311.52075950000005,664.91227344 A250.44057584705828,250.44057584705828,0,0,0,361.8236063023844,708.8726077189818" stroke="grey" stroke-width="5" fill="none" />
<path d="M361.8236063023844,708.8726077189818 L311.5207595,784.91227344" stroke="grey" stroke-width="5" />
<circle cx="361.8236063023844" cy="708.8726077189818" r="2.5" fill="grey" stroke="none" />
<circle cx="311.5207595" cy="664.91227344" r="5" fill="black" stroke="none" />
<circle cx="311.5207595" cy="784.91227344" r="5" fill="black" stroke="none" />
<path d="M311.5207595,584.91227344 L374.39772526887884,556.5854078590419" stroke="grey" stroke-width="5" />
<circle cx="374.39772526887884" cy="556.5854078590419" r="2.5" fill="grey" stroke="none" />
<path d="M374.39772526887884,556.5854078590419 A137.7600805756376,137.7600805756376,0,0,0,391.5207595,584.9122734399999" stroke="grey" stroke-width="5" fill="none" />
<circle cx="311.5207595" cy="584.91227344" r="5" fill="black" stroke="none" />
<circle cx="391.5207595" cy="584.91227344" r="5" fill="black" stroke="none" />
<path d="M391.5207595,512.9122734399999 A109.2450109837798,109.2450109837798,0,0,0,413.9749645150079,567.3362138425679" stroke="grey" stroke-width="5" fill="none" />
<path d="M413.9749645150079,567.3362138425679 L391.5207595,584.91227344" stroke="grey" stroke-width="5" />
<circle cx="413.9749645150079" cy="567.3362138425679" r="2.5" fill="grey" stroke="none" />
<circle cx="391.5207595" cy="512.91227344" r="5" fill="black" stroke="none" />
<circle cx="391.5207595" cy="584.91227344" r="5" fill="black" stroke="none" />
<path d="M391.5207595,584.91227344 L427.22649952433744,556.9635567422268" stroke="grey" stroke-width="5" />
<circle cx="427.22649952433744" cy="556.9635567422268" r="2.5" fill="grey" stroke="none" />
<path d="M427.22649952433744,556.9635567422268 A92.41660656075923,92.41660656075923,0,0,0,463.5207595,584.91227344" stroke="grey" stroke-width="5" fill="none" />
<circle cx="391.5207595" cy="584.91227344" r="5" fill="black" stroke="none" />
<circle cx="463.5207595" cy="584.91227344" r="5" fill="black" stroke="none" />
<path d="M391.5207595,512.91227344 L430.802513783721,508.23657005033346" stroke="grey" stroke-width="5" />
<circle cx="430.802513783721" cy="508.23657005033346" r="2.5" fill="grey" stroke="none" />
<path d="M430.802513783721,508.23657005033346 A69.68596117473137,69.68596117473137,0,0,0,431.5207595,512.91227344" stroke="grey" stroke-width="5" fill="none" />
<circle cx="391.5207595" cy="512.91227344" r="5" fill="black" stroke="none" />
<circle cx="431.5207595" cy="512.91227344" r="5" fill="black" stroke="none" />
<path d="M463.5207595,584.91227344 L473.0211153354608,562.7984135728257" stroke="grey" stroke-width="5" />
<circle cx="473.0211153354608" cy="562.7984135728257" r="2.5" fill="grey" stroke="none" />
<path d="M473.0211153354608,562.7984135728257 A68.34837938829396,68.34837938829396,0,0,0,551.5207594999999,544.91227344" stroke="grey" stroke-width="5" fill="none" />
<circle cx="463.5207595" cy="584.91227344" r="5" fill="black" stroke="none" />
<circle cx="551.5207594999999" cy="544.91227344" r="5" fill="black" stroke="none" />
<path d="M431.5207595,512.91227344 A69.68596117473137,69.68596117473137,0,0,0,568.6891991136464,511.74423730908063" stroke="grey" stroke-width="5" fill="none" />
<path d="M568.6891991136464,511.74423730908063 L575.5207594999999,512.91227344" stroke="grey" stroke-width="5" />
<circle cx="568.6891991136464" cy="511.74423730908063" r="2.5" fill="grey" stroke="none" />
<circle cx="431.5207595" cy="512.91227344" r="5" fill="black" stroke="none" />
<circle cx="575.5207594999999" cy="512.91227344" r="5" fill="black" stroke="none" />
<path d="M551.5207594999999,544.91227344 A68.34837938829396,68.34837938829396,0,0,0,567.3707495994176,511.51881345533144" stroke="grey" stroke-width="5" fill="none" />
<path d="M567.3707495994176,511.51881345533144 L575.5207594999999,512.91227344" stroke="grey" stroke-width="5" />
<circle cx="567.3707495994176" cy="511.51881345533144" r="2.5" fill="grey" stroke="none" />
<circle cx="551.5207594999999" cy="544.91227344" r="5" fill="black" stroke="none" />
<circle cx="575.5207594999999" cy="512.91227344" r="5" fill="black" stroke="none" />
<path d="M311.5207595,664.91227344 L365.6136364882837,617.5830328436166" stroke="grey" stroke-width="5" />
<circle cx="365.6136364882837" cy="617.5830328436166" r="2.5" fill="grey" stroke="none" />
<path d="M365.6136364882837,617.5830328436166 A178.56501424020934,178.56501424020934,0,0,0,431.52075949999994,664.9122734399999" stroke="grey" stroke-width="5" fill="none" />
<circle cx="311.5207595" cy="664.91227344" r="5" fill="black" stroke="none" />
<circle cx="431.5207595" cy="664.91227344" r="5" fill="black" stroke="none" />
<path d="M431.5207595,664.91227344 L471.5427947769953,568.5308770192091" stroke="grey" stroke-width="5" />
<circle cx="471.5427947769953" cy="568.5308770192091" r="2.5" fill="grey" stroke="none" />
<path d="M471.5427947769953,568.5308770192091 A74.20440441190918,74.20440441190918,0,0,0,527.5207595,568.91227344" stroke="grey" stroke-width="5" fill="none" />
<circle cx="431.5207595" cy="664.91227344" r="5" fill="black" stroke="none" />
<circle cx="527.5207594999999" cy="568.91227344" r="5" fill="black" stroke="none" />
<path d="M527.5207594999999,568.91227344 L525.3488903558683,563.4738900866516" stroke="grey" stroke-width="5" />
<circle cx="525.3488903558683" cy="563.4738900866516" r="2.5" fill="grey" stroke="none" />
<path d="M525.3488903558683,563.4738900866516 A68.34837938829396,68.34837938829396,0,0,0,551.5207594999999,544.91227344" stroke="grey" stroke-width="5" fill="none" />
<circle cx="527.5207594999999" cy="568.91227344" r="5" fill="black" stroke="none" />
<circle cx="551.5207594999999" cy="544.91227344" r="5" fill="black" stroke="none" />
<path d="M551.5207594999999,544.91227344 A68.34837938829396,68.34837938829396,0,0,1,540.9258864083578,554.7409607761533" stroke="grey" stroke-width="5" fill="none" />
<path d="M540.9258864083578,554.7409607761533 L551.5207594999999,568.91227344" stroke="grey" stroke-width="5" />
<circle cx="540.9258864083578" cy="554.7409607761533" r="2.5" fill="grey" stroke="none" />
<circle cx="551.5207594999999" cy="544.91227344" r="5" fill="black" stroke="none" />
<circle cx="551.5207594999999" cy="568.91227344" r="5" fill="black" stroke="none" />
<path d="M551.5207594999999,568.9122734399999 A86.04237380573693,86.04237380573693,0,0,1,517.7125549207923,584.1994981475785" stroke="grey" stroke-width="5" fill="none" />
<path d="M517.7125549207923,584.1994981475785 L551.5207594999999,744.91227344" stroke="grey" stroke-width="5" />
<circle cx="517.7125549207923" cy="584.1994981475785" r="2.5" fill="grey" stroke="none" />
<circle cx="551.5207594999999" cy="568.91227344" r="5" fill="black" stroke="none" />
<circle cx="551.5207594999999" cy="744.91227344" r="5" fill="black" stroke="none" />
<path d="M551.5207594999999,744.91227344 A250.2726719819928,250.2726719819928,0,0,0,629.1330993932927,714.385290964861" stroke="grey" stroke-width="5" fill="none" />
<path d="M629.1330993932927,714.385290964861 L647.5207594999999,744.91227344" stroke="grey" stroke-width="5" />
<circle cx="629.1330993932927" cy="714.385290964861" r="2.5" fill="grey" stroke="none" />
<circle cx="551.5207594999999" cy="744.91227344" r="5" fill="black" stroke="none" />
<circle cx="647.5207594999999" cy="744.91227344" r="5" fill="black" stroke="none" />
<path d="M551.5207594999999,744.91227344 A250.2726719819928,250.2726719819928,0,0,1,543.3552691109995,746.4888049817253" stroke="grey" stroke-width="5" fill="none" />
<path d="M543.3552691109995,746.4888049817253 L551.5207594999999,792.91227344" stroke="grey" stroke-width="5" />
<circle cx="543.3552691109995" cy="746.4888049817253" r="2.5" fill="grey" stroke="none" />
<circle cx="551.5207594999999" cy="744.91227344" r="5" fill="black" stroke="none" />
<circle cx="551.5207594999999" cy="792.91227344" r="5" fill="black" stroke="none" />
<path d="M239.5207595,368.91227344 L367.8897822872774,433.5147474245363" stroke="grey" stroke-width="5" />
<circle cx="367.8897822872774" cy="433.5147474245363" r="2.5" fill="grey" stroke="none" />
<path d="M367.8897822872774,433.5147474245363 A147.8965801975359,147.8965801975359,0,0,1,431.52075950000005,368.9122734399999" stroke="grey" stroke-width="5" fill="none" />
<circle cx="239.5207595" cy="368.91227344" r="5" fill="black" stroke="none" />
<circle cx="431.5207595" cy="368.91227344" r="5" fill="black" stroke="none" />
<path d="M431.5207595,368.91227344 L467.7339280706533,438.2340402236281" stroke="grey" stroke-width="5" />
<circle cx="467.7339280706533" cy="438.2340402236281" r="2.5" fill="grey" stroke="none" />
<path d="M467.7339280706533,438.2340402236281 A69.68596117473137,69.68596117473137,0,0,0,431.5207595,512.91227344" stroke="grey" stroke-width="5" fill="none" />
<circle cx="431.5207595" cy="368.91227344" r="5" fill="black" stroke="none" />
<circle cx="431.5207595" cy="512.91227344" r="5" fill="black" stroke="none" />
<path d="M431.52075950000005,368.9122734399999 A147.8965801975359,147.8965801975359,0,0,1,454.3621411868987,359.32098849834915" stroke="grey" stroke-width="5" fill="none" />
<path d="M454.3621411868987,359.32098849834915 L431.5207595,288.91227344" stroke="grey" stroke-width="5" />
<circle cx="454.3621411868987" cy="359.32098849834915" r="2.5" fill="grey" stroke="none" />
<circle cx="431.5207595" cy="368.91227344" r="5" fill="black" stroke="none" />
<circle cx="431.5207595" cy="288.91227344" r="5" fill="black" stroke="none" />
<path d="M431.52075950000005,288.91227344 A221.9176304030984,221.9176304030984,0,0,1,444.88474968303166,285.03548230876777" stroke="grey" stroke-width="5" fill="none" />
<path d="M444.88474968303166,285.03548230876777 L431.5207595,232.91227343999998" stroke="grey" stroke-width="5" />
<circle cx="444.88474968303166" cy="285.03548230876777" r="2.5" fill="grey" stroke="none" />
<circle cx="431.5207595" cy="288.91227344" r="5" fill="black" stroke="none" />
<circle cx="431.5207595" cy="232.91227343999998" r="5" fill="black" stroke="none" />
<path d="M431.5207595,288.91227344 L463.48501610657416,387.4423127482222" stroke="grey" stroke-width="5" />
<circle cx="463.48501610657416" cy="387.4423127482222" r="2.5" fill="grey" stroke="none" />
<path d="M463.48501610657416,387.4423127482222 A118.332485008159,118.332485008159,0,0,1,527.5207595,384.91227344" stroke="grey" stroke-width="5" fill="none" />
<circle cx="431.5207595" cy="288.91227344" r="5" fill="black" stroke="none" />
<circle cx="527.5207594999999" cy="384.91227344" r="5" fill="black" stroke="none" />
<path d="M431.5207595,368.91227344 L445.2095600248952,395.1163277934043" stroke="grey" stroke-width="5" />
<circle cx="445.2095600248952" cy="395.1163277934043" r="2.5" fill="grey" stroke="none" />
<path d="M445.20956002489527,395.11632779340425 A118.332485008159,118.332485008159,0,0,1,527.5207595,384.91227344" stroke="grey" stroke-width="5" fill="none" />
<circle cx="431.5207595" cy="368.91227344" r="5" fill="black" stroke="none" />
<circle cx="527.5207594999999" cy="384.91227344" r="5" fill="black" stroke="none" />
<path d="M527.5207594999999,384.91227344 L520.2216005333011,415.4362715613971" stroke="grey" stroke-width="5" />
<circle cx="520.2216005333011" cy="415.4362715613971" r="2.5" fill="grey" stroke="none" />
<path d="M520.2216005333011,415.4362715613971 A86.94789989163723,86.94789989163723,0,0,1,575.5207594999999,456.91227344" stroke="grey" stroke-width="5" fill="none" />
<circle cx="527.5207594999999" cy="384.91227344" r="5" fill="black" stroke="none" />
<circle cx="575.5207594999999" cy="456.91227344" r="5" fill="black" stroke="none" />
<path d="M527.5207595,568.91227344 A74.20440441190918,74.20440441190918,0,0,0,544.4323779604022,559.4311149391473" stroke="grey" stroke-width="5" fill="none" />
<path d="M544.4323779604022,559.4311149391473 L551.5207594999999,568.91227344" stroke="grey" stroke-width="5" />
<circle cx="544.4323779604022" cy="559.4311149391473" r="2.5" fill="grey" stroke="none" />
<circle cx="527.5207594999999" cy="568.91227344" r="5" fill="black" stroke="none" />
<circle cx="551.5207594999999" cy="568.91227344" r="5" fill="black" stroke="none" />
<path d="M551.5207594999999,568.9122734399999 A86.04237380573693,86.04237380573693,0,0,0,563.5584179976717,557.9967032835438" stroke="grey" stroke-width="5" fill="none" />
<path d="M563.5584179976717,557.9967032835438 L575.5207594999999,568.91227344" stroke="grey" stroke-width="5" />
<circle cx="563.5584179976717" cy="557.9967032835438" r="2.5" fill="grey" stroke="none" />
<circle cx="551.5207594999999" cy="568.91227344" r="5" fill="black" stroke="none" />
<circle cx="575.5207594999999" cy="568.91227344" r="5" fill="black" stroke="none" />
<path d="M575.5207594999999,568.91227344 L556.5957586838705,551.6433153451951" stroke="grey" stroke-width="5" />
<circle cx="556.5957586838705" cy="551.6433153451951" r="2.5" fill="grey" stroke="none" />
<path d="M556.5957586838705,551.6433153451951 A76.61665563600495,76.61665563600495,0,0,0,575.5207594999999,512.91227344" stroke="grey" stroke-width="5" fill="none" />
<circle cx="575.5207594999999" cy="568.91227344" r="5" fill="black" stroke="none" />
<circle cx="575.5207594999999" cy="512.91227344" r="5" fill="black" stroke="none" />
<path d="M575.5207594999999,512.91227344 L574.50273188241,512.7382146639121" stroke="grey" stroke-width="5" />
<circle cx="574.50273188241" cy="512.7382146639121" r="2.5" fill="grey" stroke="none" />
<path d="M574.50273188241,512.7382146639121 A75.5838552256113,75.5838552256113,0,0,0,575.5207594999999,496.91227344" stroke="grey" stroke-width="5" fill="none" />
<circle cx="575.5207594999999" cy="512.91227344" r="5" fill="black" stroke="none" />
<circle cx="575.5207594999999" cy="496.91227344" r="5" fill="black" stroke="none" />
<path d="M575.5207594999999,496.91227344 A75.5838552256113,75.5838552256113,0,0,0,573.2794823949284,481.4787519130719" stroke="grey" stroke-width="5" fill="none" />
<path d="M573.2794823949284,481.4787519130719 L575.5207594999999,480.91227344" stroke="grey" stroke-width="5" />
<circle cx="573.2794823949284" cy="481.4787519130719" r="2.5" fill="grey" stroke="none" />
<circle cx="575.5207594999999" cy="496.91227344" r="5" fill="black" stroke="none" />
<circle cx="575.5207594999999" cy="480.91227344" r="5" fill="black" stroke="none" />
<path d="M575.5207595,480.91227344 A77.89561233269927,77.89561233269927,0,0,0,567.6581701503388,461.39820687333327" stroke="grey" stroke-width="5" fill="none" />
<path d="M567.6581701503388,461.39820687333327 L575.5207594999999,456.91227344" stroke="grey" stroke-width="5" />
<circle cx="567.6581701503388" cy="461.39820687333327" r="2.5" fill="grey" stroke="none" />
<circle cx="575.5207594999999" cy="480.91227344" r="5" fill="black" stroke="none" />
<circle cx="575.5207594999999" cy="456.91227344" r="5" fill="black" stroke="none" />
<path d="M575.5207594999999,456.91227344 A86.94789989163723,86.94789989163723,0,0,1,582.0964110451042,471.3623222121718" stroke="grey" stroke-width="5" fill="none" />
<path d="M582.0964110451042,471.3623222121718 L623.5207594999999,456.91227344" stroke="grey" stroke-width="5" />
<circle cx="582.0964110451042" cy="471.3623222121718" r="2.5" fill="grey" stroke="none" />
<circle cx="575.5207594999999" cy="456.91227344" r="5" fill="black" stroke="none" />
<circle cx="623.5207594999999" cy="456.91227344" r="5" fill="black" stroke="none" />
<path d="M623.5207594999999,456.91227344 L616.6650247234414,459.3037582933637" stroke="grey" stroke-width="5" />
<circle cx="616.6650247234414" cy="459.3037582933637" r="2.5" fill="grey" stroke="none" />
<path d="M616.6650247234414,459.3037582933637 A123.55934639988256,123.55934639988256,0,0,1,623.5207594999999,496.91227344" stroke="grey" stroke-width="5" fill="none" />
<circle cx="623.5207594999999" cy="456.91227344" r="5" fill="black" stroke="none" />
<circle cx="623.5207594999999" cy="496.91227344" r="5" fill="black" stroke="none" />
<path d="M623.5207594999999,496.91227344 L575.5602508060404,498.1111726139113" stroke="grey" stroke-width="5" />
<circle cx="575.5602508060404" cy="498.1111726139113" r="2.5" fill="grey" stroke="none" />
<path d="M575.5602508060404,498.1111726139113 A75.5838552256113,75.5838552256113,0,0,0,575.5207594999999,496.91227344" stroke="grey" stroke-width="5" fill="none" />
<circle cx="623.5207594999999" cy="496.91227344" r="5" fill="black" stroke="none" />
<circle cx="575.5207594999999" cy="496.91227344" r="5" fill="black" stroke="none" />
<path d="M575.5207595,480.91227344 A77.89561233269927,77.89561233269927,0,0,1,577.3154605034728,490.51074355799574" stroke="grey" stroke-width="5" fill="none" />
<path d="M577.3154605034728,490.51074355799574 L655.5207594999999,480.91227344" stroke="grey" stroke-width="5" />
<circle cx="577.3154605034728" cy="490.51074355799574" r="2.5" fill="grey" stroke="none" />
<circle cx="575.5207594999999" cy="480.91227344" r="5" fill="black" stroke="none" />
<circle cx="655.5207594999999" cy="480.91227344" r="5" fill="black" stroke="none" />
<circle cx="500" cy="500" r="5" fill="red" stroke="none" />
</svg>