<?xml version="1.0" encoding="UTF-8"?>
<svg xmlns="http://www.w3.org/2000/svg" xmlns:xlink="http://www.w3.org/1999/xlink"
     width="1000" height="1000" viewBox="0 0 1000 1000">
<defs>
</defs>
<rect x="0" y="0" width="1000" height="1000" fill="white" />
<path d="M311.7167995,248.44621903999996 L353.653085558685,304.4747510039143" stroke="grey" stroke-width="5" />
<circle cx="353.653085558685" cy="304.4747510039143" r="2.5" fill="grey" stroke="none" />
<path d="M353.653085558685,304.4747510039143 A244.22846345476376,244.22846345476376,0,0,0,311.7167995,344.44621903999996" stroke="grey" stroke-width="5" fill="none" />
<circle cx="311.7167995" cy="248.44621903999996" r="5" fill="black" stroke="none" />
<circle cx="311.7167995" cy="344.44621903999996" r="5" fill="black" stroke="none" />
<path d="M311.7167995,344.44621903999996 L377.2372705629602,398.5772141423683" stroke="grey" stroke-width="5" />
<circle cx="377.2372705629602" cy="398.5772141423683" r="2.5" fill="grey" stroke="none" />
<path d="M377.2372705629602,398.5772141423683 A159.23965972695012,159.23965972695012,0,0,0,375.7167995,400.44621903999996" stroke="grey" stroke-width="5" fill="none" />
<circle cx="311.7167995" cy="344.44621903999996" r="5" fill="black" stroke="none" />
<circle cx="375.7167995" cy="400.44621903999996" r="5" fill="black" stroke="none" />
<path d="M287.7167995,400.44621903999996 L355.8270436175469,432.38766475044554" stroke="grey" stroke-width="5" />
<circle cx="355.8270436175469" cy="432.38766475044554" r="2.5" fill="grey" stroke="none" />
<path d="M355.8270436175469,432.38766475044554 A159.23965972695012,159.23965972695012,0,0,1,375.7167995,400.44621903999996" stroke="grey" stroke-width="5" fill="none" />
<circle cx="287.7167995" cy="400.44621903999996" r="5" fill="black" stroke="none" />
<circle cx="375.7167995" cy="400.44621903999996" r="5" fill="black" stroke="none" />
<path d="M375.7167995,400.44621903999996 L433.3293420788062,446.5952272837903" stroke="grey" stroke-width="5" />
<circle cx="433.3293420788062" cy="446.5952272837903" r="2.5" fill="grey" stroke="none" />
<path d="M433.3293420788062,446.5952272837903 A85.4227509303866,85.4227509303866,0,0,1,447.7167995,432.44621903999996" stroke="grey" stroke-width="5" fill="none" />
<circle cx="375.7167995" cy="400.44621903999996" r="5" fill="black" stroke="none" />
<circle cx="447.7167995" cy="432.44621903999996" r="5" fill="black" stroke="none" />
<path d="M447.7167995,432.44621903999996 L461.4151415099955,450.14549503704615" stroke="grey" stroke-width="5" />
<circle cx="461.4151415099955" cy="450.14549503704615" r="2.5" fill="grey" stroke="none" />
<path d="M461.4151415099955,450.14549503704615 A63.04175576389717,63.04175576389717,0,0,1,463.71679950000004,448.44621903999996" stroke="grey" stroke-width="5" fill="none" />
<circle cx="447.7167995" cy="432.44621903999996" r="5" fill="black" stroke="none" />
<circle cx="463.7167995" cy="448.44621903999996" r="5" fill="black" stroke="none" />
<path d="M463.7167995,448.44621903999996 L488.479140591784,483.630334308515" stroke="grey" stroke-width="5" />
<circle cx="488.479140591784" cy="483.630334308515" r="2.5" fill="grey" stroke="none" />
<path d="M488.479140591784,483.630334308515 A20.017396343052717,20.017396343052717,0,0,1,495.7167995,480.44621903999996" stroke="grey" stroke-width="5" fill="none" />
<circle cx="463.7167995" cy="448.44621903999996" r="5" fill="black" stroke="none" />
<circle cx="495.7167995" cy="480.44621903999996" r="5" fill="black" stroke="none" />
<path d="M463.71679950000004,448.44621903999996 A63.04175576389717,63.04175576389717,0,0,0,446.4749320550796,533.3066070215283" stroke="grey" stroke-width="5" fill="none" />
<path d="M446.4749320550796,533.3066070215283 L-84.28320049999999,52.44621903999996" stroke="grey" stroke-width="5" />
<circle cx="446.4749320550796" cy="533.3066070215283" r="2.5" fill="grey" stroke="none" />
<circle cx="463.7167995" cy="448.44621903999996" r="5" fill="black" stroke="none" />
<circle cx="415.7167995" cy="552.44621904" r="5" fill="black" stroke="none" />
<path d="M415.7167995,552.44621904 A99.26864448613597,99.26864448613597,0,0,0,446.70543836613723,583.7493491220633" stroke="grey" stroke-width="5" fill="none" />
<path d="M446.70543836613723,583.7493491220633 L-84.28320049999999,132.44621903999996" stroke="grey" stroke-width="5" />
<circle cx="446.70543836613723" cy="583.7493491220633" r="2.5" fill="grey" stroke="none" />
<circle cx="415.7167995" cy="552.44621904" r="5" fill="black" stroke="none" />
<circle cx="415.7167995" cy="632.44621904" r="5" fill="black" stroke="none" />
<path d="M311.7167995,648.44621904 L376.718600345502,597.1975067774003" stroke="grey" stroke-width="5" />
<circle cx="376.718600345502" cy="597.1975067774003" r="2.5" fill="grey" stroke="none" />
<path d="M376.71860034550207,597.1975067774005 A156.98935895313048,156.98935895313048,0,0,0,415.7167995,632.44621904" stroke="grey" stroke-width="5" fill="none" />
<circle cx="311.7167995" cy="648.44621904" r="5" fill="black" stroke="none" />
<circle cx="415.7167995" cy="632.44621904" r="5" fill="black" stroke="none" />
<path d="M415.7167995,632.44621904 A156.98935895313048,156.98935895313048,0,0,0,450.2842289860615,648.9093715553339" stroke="grey" stroke-width="5" fill="none" />
<path d="M450.2842289860615,648.9093715553339 L-84.28320049999999,252.44621903999996" stroke="grey" stroke-width="5" />
<circle cx="450.2842289860615" cy="648.9093715553339" r="2.5" fill="grey" stroke="none" />
<circle cx="415.7167995" cy="632.44621904" r="5" fill="black" stroke="none" />
<circle cx="415.7167995" cy="752.44621904" r="5" fill="black" stroke="none" />
<path d="M415.7167995,552.44621904 L455.32273109136315,527.8009593535944" stroke="grey" stroke-width="5" />
<circle cx="455.32273109136315" cy="527.8009593535944" r="2.5" fill="grey" stroke="none" />
<path d="M455.32273109136315,527.8009593535944 A52.62082950804609,52.62082950804609,0,0,0,495.71679950000004,552.44621904" stroke="grey" stroke-width="5" fill="none" />
<circle cx="415.7167995" cy="552.44621904" r="5" fill="black" stroke="none" />
<circle cx="495.7167995" cy="552.44621904" r="5" fill="black" stroke="none" />
<path d="M495.7167995,480.44621903999996 A20.017396343052717,20.017396343052717,0,0,0,498.3706353011377,519.9509730848638" stroke="grey" stroke-width="5" fill="none" />
<path d="M498.3706353011377,519.9509730848638 L-4.283200499999992,52.44621903999996" stroke="grey" stroke-width="5" />
<circle cx="498.3706353011377" cy="519.9509730848638" r="2.5" fill="grey" stroke="none" />
<circle cx="495.7167995" cy="480.44621903999996" r="5" fill="black" stroke="none" />
<circle cx="495.7167995" cy="552.44621904" r="5" fill="black" stroke="none" />
<path d="M495.71679950000004,552.44621904 A52.62082950804609,52.62082950804609,0,0,0,541.6024968185764,532.2208621327114" stroke="grey" stroke-width="5" fill="none" />
<path d="M541.6024968185764,532.2208621327114 L67.71679950000001,52.44621903999996" stroke="grey" stroke-width="5" />
<circle cx="541.6024968185764" cy="532.2208621327114" r="2.5" fill="grey" stroke="none" />
<circle cx="495.7167995" cy="552.44621904" r="5" fill="black" stroke="none" />
<circle cx="567.7167995" cy="552.44621904" r="5" fill="black" stroke="none" />
<path d="M495.7167995,480.44621903999996 A20.017396343052717,20.017396343052717,0,0,1,517.5583057391411,490.38740118772745" stroke="grey" stroke-width="5" fill="none" />
<path d="M517.5583057391411,490.38740118772745 L35.71679950000001,-19.55378096000004" stroke="grey" stroke-width="5" />
<circle cx="517.5583057391411" cy="490.38740118772745" r="2.5" fill="grey" stroke="none" />
<circle cx="495.7167995" cy="480.44621903999996" r="5" fill="black" stroke="none" />
<circle cx="535.7167995" cy="480.44621903999996" r="5" fill="black" stroke="none" />
<path d="M567.7167995,552.44621904 A85.65144964397774,85.65144964397774,0,0,0,585.3791582969486,506.8242328960444" stroke="grey" stroke-width="5" fill="none" />
<path d="M585.3791582969486,506.8242328960444 L155.7167995,12.44621903999996" stroke="grey" stroke-width="5" />
<circle cx="585.3791582969486" cy="506.8242328960444" r="2.5" fill="grey" stroke="none" />
<circle cx="567.7167995" cy="552.44621904" r="5" fill="black" stroke="none" />
<circle cx="655.7167995" cy="512.44621904" r="5" fill="black" stroke="none" />
<path d="M535.7167995,480.44621903999996 A40.71903874546722,40.71903874546722,0,0,1,540.4801385572607,495.5956273159698" stroke="grey" stroke-width="5" fill="none" />
<path d="M540.4801385572607,495.5956273159698 L179.7167995,-19.55378096000004" stroke="grey" stroke-width="5" />
<circle cx="540.4801385572607" cy="495.5956273159698" r="2.5" fill="grey" stroke="none" />
<circle cx="535.7167995" cy="480.44621903999996" r="5" fill="black" stroke="none" />
<circle cx="679.7167995" cy="480.44621903999996" r="5" fill="black" stroke="none" />
<path d="M655.7167995,512.44621904 A156.2134117638907,156.2134117638907,0,0,0,655.2969015853462,483.1031845335831" stroke="grey" stroke-width="5" fill="none" />
<path d="M655.2969015853462,483.1031845335831 L179.7167995,-19.55378096000004" stroke="grey" stroke-width="5" />
<circle cx="655.2969015853462" cy="483.1031845335831" r="2.5" fill="grey" stroke="none" />
<circle cx="655.7167995" cy="512.44621904" r="5" fill="black" stroke="none" />
<circle cx="679.7167995" cy="480.44621903999996" r="5" fill="black" stroke="none" />
<path d="M415.7167995,632.44621904 L426.3531856712422,615.7317477779555" stroke="grey" stroke-width="5" />
<circle cx="426.3531856712422" cy="615.7317477779555" r="2.5" fill="grey" stroke="none" />
<path d="M426.3531856712422,615.7317477779555 A137.1775882005324,137.1775882005324,0,0,0,535.7167995,632.44621904" stroke="grey" stroke-width="5" fill="none" />
<circle cx="415.7167995" cy="632.44621904" r="5" fill="black" stroke="none" />
<circle cx="535.7167995" cy="632.44621904" r="5" fill="black" stroke="none" />
<path d="M535.7167995,632.44621904 L535.5836421487626,631.9524405392476" stroke="grey" stroke-width="5" />
<circle cx="535.5836421487626" cy="631.9524405392476" r="2.5" fill="grey" stroke="none" />
<path d="M535.5836421487626,631.9524405392476 A136.66617047695036,136.66617047695036,0,0,0,631.7167995,536.44621904" stroke="grey" stroke-width="5" fill="none" />
<circle cx="535.7167995" cy="632.44621904" r="5" fill="black" stroke="none" />
<circle cx="631.7167995" cy="536.44621904" r="5" fill="black" stroke="none" />
<path d="M631.7167995,536.44621904 A136.66617047695036,136.66617047695036,0,0,0,636.2317001228913,510.8888031693786" stroke="grey" stroke-width="5" fill="none" />
<path d="M636.2317001228913,510.8888031693786 L155.7167995,12.44621903999996" stroke="grey" stroke-width="5" />
<circle cx="636.2317001228913" cy="510.8888031693786" r="2.5" fill="grey" stroke="none" />
<circle cx="631.7167995" cy="536.44621904" r="5" fill="black" stroke="none" />
<circle cx="655.7167995" cy="512.44621904" r="5" fill="black" stroke="none" />
<path d="M655.7167995,512.44621904 A156.2134117638907,156.2134117638907,0,0,1,652.1027488897669,535.6003341991533" stroke="grey" stroke-width="5" fill="none" />
<path d="M652.1027488897669,535.6003341991533 L155.7167995,36.44621903999996" stroke="grey" stroke-width="5" />
<circle cx="652.1027488897669" cy="535.6003341991533" r="2.5" fill="grey" stroke="none" />
<circle cx="655.7167995" cy="512.44621904" r="5" fill="black" stroke="none" />
<circle cx="655.7167995" cy="536.44621904" r="5" fill="black" stroke="none" />
<path d="M655.7167995,536.44621904 A159.92513413730455,159.92513413730455,0,0,1,594.5434719245746,628.9867452309811" stroke="grey" stroke-width="5" fill="none" />
<path d="M594.5434719245746,628.9867452309811 L155.7167995,212.44621903999996" stroke="grey" stroke-width="5" />
<circle cx="594.5434719245746" cy="628.9867452309811" r="2.5" fill="grey" stroke="none" />
<circle cx="655.7167995" cy="536.44621904" r="5" fill="black" stroke="none" />
<circle cx="655.7167995" cy="712.44621904" r="5" fill="black" stroke="none" />
<path d="M655.7167995,712.44621904 A263.40295676190664,263.40295676190664,0,0,0,701.2929195605699,669.8890172015155" stroke="grey" stroke-width="5" fill="none" />
<path d="M701.2929195605699,669.8890172015155 L251.7167995,212.44621903999996" stroke="grey" stroke-width="5" />
<circle cx="701.2929195605699" cy="669.8890172015155" r="2.5" fill="grey" stroke="none" />
<circle cx="655.7167995" cy="712.44621904" r="5" fill="black" stroke="none" />
<circle cx="751.7167995" cy="712.44621904" r="5" fill="black" stroke="none" />
<path d="M655.7167995,712.44621904 A263.40295676190664,263.40295676190664,0,0,1,635.1678999127079,726.0768817550858" stroke="grey" stroke-width="5" fill="none" />
<path d="M635.1678999127079,726.0768817550858 L155.7167995,260.44621903999996" stroke="grey" stroke-width="5" />
<circle cx="635.1678999127079" cy="726.0768817550858" r="2.5" fill="grey" stroke="none" />
<circle cx="655.7167995" cy="712.44621904" r="5" fill="black" stroke="none" />
<circle cx="655.7167995" cy="760.44621904" r="5" fill="black" stroke="none" />
<path d="M343.7167995,336.44621903999996 L384.345284644688,378.9648156571131" stroke="grey" stroke-width="5" />
<circle cx="384.345284644688" cy="378.9648156571131" r="2.5" fill="grey" stroke="none" />
<path d="M384.345284644688,378.9648156571131 A167.40827050308735,167.40827050308735,0,0,1,535.7167995,336.44621903999996" stroke="grey" stroke-width="5" fill="none" />
<circle cx="343.7167995" cy="336.44621903999996" r="5" fill="black" stroke="none" />
<circle cx="535.7167995" cy="336.44621903999996" r="5" fill="black" stroke="none" />
<path d="M535.7167995,336.44621903999996 L508.6874665052929,460.21849623161194" stroke="grey" stroke-width="5" />
<circle cx="508.6874665052929" cy="460.21849623161194" r="2.5" fill="grey" stroke="none" />
<path d="M508.6874665052929,460.21849623161194 A40.71903874546722,40.71903874546722,0,0,1,535.7167995,480.44621903999996" stroke="grey" stroke-width="5" fill="none" />
<circle cx="535.7167995" cy="336.44621903999996" r="5" fill="black" stroke="none" />
<circle cx="535.7167995" cy="480.44621903999996" r="5" fill="black" stroke="none" />
<path d="M535.7167995,336.44621903999996 A167.40827050308735,167.40827050308735,0,0,0,524.2903713374371,334.3633286584028" stroke="grey" stroke-width="5" fill="none" />
<path d="M524.2903713374371,334.3633286584028 L35.71679950000001,-243.55378096000004" stroke="grey" stroke-width="5" />
<circle cx="524.2903713374371" cy="334.3633286584028" r="2.5" fill="grey" stroke="none" />
<circle cx="535.7167995" cy="336.44621903999996" r="5" fill="black" stroke="none" />
<circle cx="535.7167995" cy="256.44621903999996" r="5" fill="black" stroke="none" />
<path d="M535.7167995,256.44621903999996 A246.15875768786873,246.15875768786873,0,0,0,529.1438998888307,255.57257296754793" stroke="grey" stroke-width="5" fill="none" />
<path d="M529.1438998888308,255.57257296754793 L35.71679950000001,-299.55378096000004" stroke="grey" stroke-width="5" />
<circle cx="529.1438998888308" cy="255.57257296754793" r="2.5" fill="grey" stroke="none" />
<circle cx="535.7167995" cy="256.44621903999996" r="5" fill="black" stroke="none" />
<circle cx="535.7167995" cy="200.44621903999996" r="5" fill="black" stroke="none" />
<path d="M535.7167995,256.44621903999996 L528.698858609018,304.30173976078765" stroke="grey" stroke-width="5" />
<circle cx="528.698858609018" cy="304.30173976078765" r="2.5" fill="grey" stroke="none" />
<path d="M528.698858609018,304.30173976078765 A197.7913889584551,197.7913889584551,0,0,1,631.7167995,352.44621903999996" stroke="grey" stroke-width="5" fill="none" />
<circle cx="535.7167995" cy="256.44621903999996" r="5" fill="black" stroke="none" />
<circle cx="631.7167995" cy="352.44621903999996" r="5" fill="black" stroke="none" />
<path d="M535.7167995,336.44621903999996 A167.40827050308735,167.40827050308735,0,0,1,611.4835267430601,375.11224120129197" stroke="grey" stroke-width="5" fill="none" />
<path d="M611.4835267430601,375.11224120129197 L131.7167995,-147.55378096000004" stroke="grey" stroke-width="5" />
<circle cx="611.4835267430601" cy="375.11224120129197" r="2.5" fill="grey" stroke="none" />
<circle cx="535.7167995" cy="336.44621903999996" r="5" fill="black" stroke="none" />
<circle cx="631.7167995" cy="352.44621903999996" r="5" fill="black" stroke="none" />
<path d="M631.7167995,352.44621903999996 L629.8263174879619,354.56400333002216" stroke="grey" stroke-width="5" />
<circle cx="629.8263174879619" cy="354.56400333002216" r="2.5" fill="grey" stroke="none" />
<path d="M629.8263174879619,354.56400333002216 A194.95256305028377,194.95256305028377,0,0,1,679.7167995,424.44621903999996" stroke="grey" stroke-width="5" fill="none" />
<circle cx="631.7167995" cy="352.44621903999996" r="5" fill="black" stroke="none" />
<circle cx="679.7167995" cy="424.44621903999996" r="5" fill="black" stroke="none" />
<path d="M631.7167995,536.44621904 A136.66617047695036,136.66617047695036,0,0,0,633.0698816129865,531.1456057950495" stroke="grey" stroke-width="5" fill="none" />
<path d="M633.0698816129865,531.1456057950495 L155.7167995,36.44621903999996" stroke="grey" stroke-width="5" />
<circle cx="633.0698816129865" cy="531.1456057950495" r="2.5" fill="grey" stroke="none" />
<circle cx="631.7167995" cy="536.44621904" r="5" fill="black" stroke="none" />
<circle cx="655.7167995" cy="536.44621904" r="5" fill="black" stroke="none" />
<path d="M655.7167995,536.44621904 A159.92513413730455,159.92513413730455,0,0,0,656.7345919350664,531.7854718351493" stroke="grey" stroke-width="5" fill="none" />
<path d="M656.7345919350664,531.7854718351493 L179.7167995,36.44621903999996" stroke="grey" stroke-width="5" />
<circle cx="656.7345919350664" cy="531.7854718351493" r="2.5" fill="grey" stroke="none" />
<circle cx="655.7167995" cy="536.44621904" r="5" fill="black" stroke="none" />
<circle cx="679.7167995" cy="536.44621904" r="5" fill="black" stroke="none" />
<path d="M679.7167995,536.44621904 L677.1708775940947,535.9299110059179" stroke="grey" stroke-width="5" />
<circle cx="677.1708775940947" cy="535.9299110059179" r="2.5" fill="grey" stroke="none" />
<path d="M677.1708775940947,535.9299110059179 A180.7774277180502,180.7774277180502,0,0,0,679.7167995,480.44621903999996" stroke="grey" stroke-width="5" fill="none" />
<circle cx="679.7167995" cy="536.44621904" r="5" fill="black" stroke="none" />
<circle cx="679.7167995" cy="480.44621903999996" r="5" fill="black" stroke="none" />
<path d="M679.7167995,480.44621903999996 A180.7774277180502,180.7774277180502,0,0,0,677.3403951960606,464.9163484788155" stroke="grey" stroke-width="5" fill="none" />
<path d="M677.3403951960606,464.9163484788155 L179.7167995,-35.55378096000004" stroke="grey" stroke-width="5" />
<circle cx="677.3403951960606" cy="464.9163484788155" r="2.5" fill="grey" stroke="none" />
<circle cx="679.7167995" cy="480.44621903999996" r="5" fill="black" stroke="none" />
<circle cx="679.7167995" cy="464.44621903999996" r="5" fill="black" stroke="none" />
<path d="M679.7167995,464.44621903999996 A183.19988909132795,183.19988909132795,0,0,0,676.0976302364485,449.4844183624306" stroke="grey" stroke-width="5" fill="none" />
<path d="M676.0976302364485,449.4844183624306 L179.7167995,-51.55378096000004" stroke="grey" stroke-width="5" />
<circle cx="676.0976302364485" cy="449.4844183624306" r="2.5" fill="grey" stroke="none" />
<circle cx="679.7167995" cy="464.44621903999996" r="5" fill="black" stroke="none" />
<circle cx="679.7167995" cy="448.44621903999996" r="5" fill="black" stroke="none" />
<path d="M679.7167995,448.44621903999996 A186.96502441311011,186.96502441311011,0,0,0,672.3534960517392,427.5417861623819" stroke="grey" stroke-width="5" fill="none" />
<path d="M672.3534960517392,427.5417861623819 L179.7167995,-75.55378096000004" stroke="grey" stroke-width="5" />
<circle cx="672.3534960517392" cy="427.5417861623819" r="2.5" fill="grey" stroke="none" />
<circle cx="679.7167995" cy="448.44621903999996" r="5" fill="black" stroke="none" />
<circle cx="679.7167995" cy="424.44621903999996" r="5" fill="black" stroke="none" />
<path d="M679.7167995,424.44621903999996 A194.95256305028377,194.95256305028377,0,0,1,685.0338238223679,438.6079330731748" stroke="grey" stroke-width="5" fill="none" />
<path d="M685.0338238223679,438.6079330731749 L227.7167995,-75.55378096000004" stroke="grey" stroke-width="5" />
<circle cx="685.0338238223679" cy="438.6079330731749" r="2.5" fill="grey" stroke="none" />
<circle cx="679.7167995" cy="424.44621903999996" r="5" fill="black" stroke="none" />
<circle cx="727.7167995" cy="424.44621903999996" r="5" fill="black" stroke="none" />
<path d="M727.7167995,424.44621903999996 L718.7495505596445,427.42144776155686" stroke="grey" stroke-width="5" />
<circle cx="718.7495505596445" cy="427.42144776155686" r="2.5" fill="grey" stroke="none" />
<path d="M718.7495505596445,427.42144776155686 A230.4756215200967,230.4756215200967,0,0,1,727.7167995,464.44621903999996" stroke="grey" stroke-width="5" fill="none" />
<circle cx="727.7167995" cy="424.44621903999996" r="5" fill="black" stroke="none" />
<circle cx="727.7167995" cy="464.44621903999996" r="5" fill="black" stroke="none" />
<path d="M727.7167995,464.44621903999996 L681.0069635021877,471.7390989741558" stroke="grey" stroke-width="5" />
<circle cx="681.0069635021877" cy="471.7390989741558" r="2.5" fill="grey" stroke="none" />
<path d="M681.0069635021877,471.7390989741558 A183.19988909132795,183.19988909132795,0,0,0,679.7167995,464.44621903999996" stroke="grey" stroke-width="5" fill="none" />
<circle cx="727.7167995" cy="464.44621903999996" r="5" fill="black" stroke="none" />
<circle cx="679.7167995" cy="464.44621903999996" r="5" fill="black" stroke="none" />
<path d="M679.7167995,448.44621903999996 A186.96502441311011,186.96502441311011,0,0,1,683.3869997694748,463.59768318711673" stroke="grey" stroke-width="5" fill="none" />
<path d="M683.3869997694748,463.59768318711673 L259.7167995,-51.55378096000004" stroke="grey" stroke-width="5" />
<circle cx="683.3869997694748" cy="463.59768318711673" r="2.5" fill="grey" stroke="none" />
<circle cx="679.7167995" cy="448.44621903999996" r="5" fill="black" stroke="none" />
<circle cx="759.7167995" cy="448.44621903999996" r="5" fill="black" stroke="none" />
<circle cx="500" cy="500" r="5" fill="red" stroke="none" />
</svg>