<?xml version="1.0" encoding="UTF-8"?>
<svg xmlns="http://www.w3.org/2000/svg" xmlns:xlink="http://www.w3.org/1999/xlink"
     width="1000" height="1000" viewBox="0 0 1000 1000">
<defs>
</defs>
<rect x="0" y="0" width="1000" height="1000" fill="white" />
<path d="M119.10923949999994,349.25987024000005 L142.19716965197557,358.3970768827393" stroke="grey" stroke-width="5" />
<circle cx="142.19716965197557" cy="358.3970768827393" r="2.5" fill="grey" stroke="none" />
<path d="M142.19716965197557,358.3970768827393 A384.804175185782,384.804175185782,0,0,0,119.1092395,445.25987024" stroke="grey" stroke-width="5" fill="none" />
<circle cx="119.10923949999994" cy="349.25987024000005" r="5" fill="black" stroke="none" />
<circle cx="119.10923949999994" cy="445.25987024000005" r="5" fill="black" stroke="none" />
<path d="M119.10923949999994,445.25987024000005 L186.32950351585083,454.92050356672814" stroke="grey" stroke-width="5" />
<circle cx="186.32950351585083" cy="454.92050356672814" r="2.5" fill="grey" stroke="none" />
<path d="M186.32950351585083,454.92050356672814 A316.8932649383543,316.8932649383543,0,0,0,183.10923949999994,501.2598702400002" stroke="grey" stroke-width="5" fill="none" />
<circle cx="119.10923949999994" cy="445.25987024000005" r="5" fill="black" stroke="none" />
<circle cx="183.10923949999994" cy="501.25987024000005" r="5" fill="black" stroke="none" />
<path d="M95.10923949999994,501.25987024000005 L183.1082691690345,500.98604981867953" stroke="grey" stroke-width="5" />
<circle cx="183.1082691690345" cy="500.98604981867953" r="2.5" fill="grey" stroke="none" />
<path d="M183.1082691690345,500.98604981867953 A316.8932649383543,316.8932649383543,0,0,0,183.10923949999994,501.2598702400002" stroke="grey" stroke-width="5" fill="none" />
<circle cx="95.10923949999994" cy="501.25987024000005" r="5" fill="black" stroke="none" />
<circle cx="183.10923949999994" cy="501.25987024000005" r="5" fill="black" stroke="none" />
<path d="M183.10923949999994,501.25987024000005 L252.8629162906172,500.9825488647084" stroke="grey" stroke-width="5" />
<circle cx="252.8629162906172" cy="500.9825488647084" r="2.5" fill="grey" stroke="none" />
<path d="M252.8629162906172,500.9825488647085 A247.13903687327507,247.13903687327507,0,0,0,255.10923949999997,533.25987024" stroke="grey" stroke-width="5" fill="none" />
<circle cx="183.10923949999994" cy="501.25987024000005" r="5" fill="black" stroke="none" />
<circle cx="255.10923949999994" cy="533.25987024" r="5" fill="black" stroke="none" />
<path d="M255.10923949999994,533.25987024 L267.99853764874695,531.5093085485883" stroke="grey" stroke-width="5" />
<circle cx="267.99853764874695" cy="531.5093085485883" r="2.5" fill="grey" stroke="none" />
<path d="M267.99853764874695,531.5093085485883 A234.13140553614338,234.13140553614338,0,0,0,271.10923949999994,549.2598702399999" stroke="grey" stroke-width="5" fill="none" />
<circle cx="255.10923949999994" cy="533.25987024" r="5" fill="black" stroke="none" />
<circle cx="271.10923949999994" cy="549.25987024" r="5" fill="black" stroke="none" />
<path d="M271.10923949999994,549.25987024 L291.7673365245283,544.8140150354882" stroke="grey" stroke-width="5" />
<circle cx="291.7673365245283" cy="544.8140150354882" r="2.5" fill="grey" stroke="none" />
<path d="M291.7673365245283,544.8140150354882 A213.00032413517596,213.00032413517596,0,0,0,303.10923949999994,581.25987024" stroke="grey" stroke-width="5" fill="none" />
<circle cx="271.10923949999994" cy="549.25987024" r="5" fill="black" stroke="none" />
<circle cx="303.10923949999994" cy="581.25987024" r="5" fill="black" stroke="none" />
<path d="M271.10923949999994,549.2598702399999 A234.13140553614338,234.13140553614338,0,0,0,295.1540854473923,613.3828309288305" stroke="grey" stroke-width="5" fill="none" />
<path d="M295.1540854473923,613.3828309288305 L223.10923949999994,653.25987024" stroke="grey" stroke-width="5" />
<circle cx="295.1540854473923" cy="613.3828309288305" r="2.5" fill="grey" stroke="none" />
<circle cx="271.10923949999994" cy="549.25987024" r="5" fill="black" stroke="none" />
<circle cx="223.10923949999994" cy="653.25987024" r="5" fill="black" stroke="none" />
<path d="M223.10923949999994,653.25987024 A316.4760355481123,316.4760355481123,0,0,0,257.9621443012369,703.8988903476298" stroke="grey" stroke-width="5" fill="none" />
<path d="M257.9621443012369,703.8988903476298 L223.10923949999994,733.25987024" stroke="grey" stroke-width="5" />
<circle cx="257.9621443012369" cy="703.8988903476298" r="2.5" fill="grey" stroke="none" />
<circle cx="223.10923949999994" cy="653.25987024" r="5" fill="black" stroke="none" />
<circle cx="223.10923949999994" cy="733.25987024" r="5" fill="black" stroke="none" />
<path d="M119.10923949999994,749.25987024 L197.05561394526092,698.2507484792106" stroke="grey" stroke-width="5" />
<circle cx="197.05561394526092" cy="698.2507484792106" r="2.5" fill="grey" stroke="none" />
<path d="M197.05561394526092,698.2507484792106 A362.04787019764393,362.04787019764393,0,0,0,223.1092395,733.25987024" stroke="grey" stroke-width="5" fill="none" />
<circle cx="119.10923949999994" cy="749.25987024" r="5" fill="black" stroke="none" />
<circle cx="223.10923949999994" cy="733.25987024" r="5" fill="black" stroke="none" />
<path d="M223.1092395,733.25987024 A362.04787019764393,362.04787019764393,0,0,0,276.65361012153994,784.9474520730251" stroke="grey" stroke-width="5" fill="none" />
<path d="M276.65361012153994,784.9474520730251 L223.10923949999994,853.25987024" stroke="grey" stroke-width="5" />
<circle cx="276.65361012153994" cy="784.9474520730251" r="2.5" fill="grey" stroke="none" />
<circle cx="223.10923949999994" cy="733.25987024" r="5" fill="black" stroke="none" />
<circle cx="223.10923949999994" cy="853.25987024" r="5" fill="black" stroke="none" />
<path d="M223.10923949999994,653.25987024 L281.70026103171784,620.8295632808043" stroke="grey" stroke-width="5" />
<circle cx="281.70026103171784" cy="620.8295632808043" r="2.5" fill="grey" stroke="none" />
<path d="M281.70026103171784,620.8295632808043 A249.50863591517233,249.50863591517233,0,0,0,303.1092394999999,653.2598702399999" stroke="grey" stroke-width="5" fill="none" />
<circle cx="223.10923949999994" cy="653.25987024" r="5" fill="black" stroke="none" />
<circle cx="303.10923949999994" cy="653.25987024" r="5" fill="black" stroke="none" />
<path d="M303.10923949999994,581.25987024 A213.00032413517596,213.00032413517596,0,0,0,331.91845984850283,630.8347581569617" stroke="grey" stroke-width="5" fill="none" />
<path d="M331.9184598485029,630.8347581569618 L303.10923949999994,653.25987024" stroke="grey" stroke-width="5" />
<circle cx="331.9184598485029" cy="630.8347581569618" r="2.5" fill="grey" stroke="none" />
<circle cx="303.10923949999994" cy="581.25987024" r="5" fill="black" stroke="none" />
<circle cx="303.10923949999994" cy="653.25987024" r="5" fill="black" stroke="none" />
<path d="M303.10923949999994,653.25987024 L343.9901645062636,621.4381369812108" stroke="grey" stroke-width="5" />
<circle cx="343.9901645062636" cy="621.4381369812108" r="2.5" fill="grey" stroke="none" />
<path d="M343.99016450626357,621.4381369812107 A197.7025287755572,197.7025287755572,0,0,0,375.10923949999994,653.25987024" stroke="grey" stroke-width="5" fill="none" />
<circle cx="303.10923949999994" cy="653.25987024" r="5" fill="black" stroke="none" />
<circle cx="375.10923949999994" cy="653.25987024" r="5" fill="black" stroke="none" />
<path d="M303.10923949999994,581.25987024 L336.67722273658853,567.4058429860208" stroke="grey" stroke-width="5" />
<circle cx="336.67722273658853" cy="567.4058429860208" r="2.5" fill="grey" stroke="none" />
<path d="M336.67722273658853,567.4058429860208 A176.6858150551142,176.6858150551142,0,0,0,343.10923949999994,581.25987024" stroke="grey" stroke-width="5" fill="none" />
<circle cx="303.10923949999994" cy="581.25987024" r="5" fill="black" stroke="none" />
<circle cx="343.10923949999994" cy="581.25987024" r="5" fill="black" stroke="none" />
<path d="M375.10923949999994,653.25987024 L424.752895450856,592.3395888772535" stroke="grey" stroke-width="5" />
<circle cx="424.752895450856" cy="592.3395888772535" r="2.5" fill="grey" stroke="none" />
<path d="M424.752895450856,592.3395888772535 A119.11644058252415,119.11644058252415,0,0,0,463.10923949999994,613.25987024" stroke="grey" stroke-width="5" fill="none" />
<circle cx="375.10923949999994" cy="653.25987024" r="5" fill="black" stroke="none" />
<circle cx="463.10923949999994" cy="613.25987024" r="5" fill="black" stroke="none" />
<path d="M343.10923949999994,581.25987024 L426.9418298252372,537.8396880061848" stroke="grey" stroke-width="5" />
<circle cx="426.9418298252372" cy="537.8396880061848" r="2.5" fill="grey" stroke="none" />
<path d="M426.9418298252372,537.8396880061848 A82.27598809914107,82.27598809914107,0,0,0,487.10923949999994,581.25987024" stroke="grey" stroke-width="5" fill="none" />
<circle cx="343.10923949999994" cy="581.25987024" r="5" fill="black" stroke="none" />
<circle cx="487.10923949999994" cy="581.25987024" r="5" fill="black" stroke="none" />
<path d="M463.10923949999994,613.25987024 L474.5188509913251,578.2307437193825" stroke="grey" stroke-width="5" />
<circle cx="474.5188509913251" cy="578.2307437193825" r="2.5" fill="grey" stroke="none" />
<path d="M474.5188509913251,578.2307437193825 A82.27598809914107,82.27598809914107,0,0,0,487.10923949999994,581.25987024" stroke="grey" stroke-width="5" fill="none" />
<circle cx="463.10923949999994" cy="613.25987024" r="5" fill="black" stroke="none" />
<circle cx="487.10923949999994" cy="581.25987024" r="5" fill="black" stroke="none" />
<path d="M223.10923949999994,733.25987024 L285.00696846984454,681.1156376134418" stroke="grey" stroke-width="5" />
<circle cx="285.00696846984454" cy="681.1156376134418" r="2.5" fill="grey" stroke="none" />
<path d="M285.00696846984454,681.1156376134418 A281.1136385781558,281.1136385781558,0,0,0,343.10923949999994,733.2598702399999" stroke="grey" stroke-width="5" fill="none" />
<circle cx="223.10923949999994" cy="733.25987024" r="5" fill="black" stroke="none" />
<circle cx="343.10923949999994" cy="733.25987024" r="5" fill="black" stroke="none" />
<path d="M343.10923949999994,733.25987024 L416.1951703313144,624.5981830396117" stroke="grey" stroke-width="5" />
<circle cx="416.1951703313144" cy="624.5981830396117" r="2.5" fill="grey" stroke="none" />
<path d="M416.1951703313144,624.5981830396117 A150.15977055313454,150.15977055313454,0,0,0,439.10923949999994,637.25987024" stroke="grey" stroke-width="5" fill="none" />
<circle cx="343.10923949999994" cy="733.25987024" r="5" fill="black" stroke="none" />
<circle cx="439.10923949999994" cy="637.25987024" r="5" fill="black" stroke="none" />
<path d="M439.10923949999994,637.25987024 L451.6975110683428,608.8834054392916" stroke="grey" stroke-width="5" />
<circle cx="451.6975110683428" cy="608.8834054392916" r="2.5" fill="grey" stroke="none" />
<path d="M451.6975110683428,608.8834054392916 A119.11644058252415,119.11644058252415,0,0,0,463.10923949999994,613.25987024" stroke="grey" stroke-width="5" fill="none" />
<circle cx="439.10923949999994" cy="637.25987024" r="5" fill="black" stroke="none" />
<circle cx="463.10923949999994" cy="613.25987024" r="5" fill="black" stroke="none" />
<path d="M463.10923949999994,613.25987024 A119.11644058252415,119.11644058252415,0,0,0,469.082759129456,615.034128127277" stroke="grey" stroke-width="5" fill="none" />
<path d="M469.082759129456,615.034128127277 L463.10923949999994,637.25987024" stroke="grey" stroke-width="5" />
<circle cx="469.082759129456" cy="615.034128127277" r="2.5" fill="grey" stroke="none" />
<circle cx="463.10923949999994" cy="613.25987024" r="5" fill="black" stroke="none" />
<circle cx="463.10923949999994" cy="637.25987024" r="5" fill="black" stroke="none" />
<path d="M463.10923949999994,637.25987024 A142.13092622145965,142.13092622145965,0,0,0,483.3769526591295,641.155497539675" stroke="grey" stroke-width="5" fill="none" />
<path d="M483.3769526591294,641.1554975396749 L463.10923949999994,813.25987024" stroke="grey" stroke-width="5" />
<circle cx="483.3769526591294" cy="641.1554975396749" r="2.5" fill="grey" stroke="none" />
<circle cx="463.10923949999994" cy="637.25987024" r="5" fill="black" stroke="none" />
<circle cx="463.10923949999994" cy="813.25987024" r="5" fill="black" stroke="none" />
<path d="M463.1092395,813.25987024 A315.4245940205837,315.4245940205837,0,0,0,558.4856417290841,809.9550035482364" stroke="grey" stroke-width="5" fill="none" />
<path d="M558.4856417290841,809.9550035482364 L559.1092395,813.25987024" stroke="grey" stroke-width="5" />
<circle cx="558.4856417290841" cy="809.9550035482364" r="2.5" fill="grey" stroke="none" />
<circle cx="463.10923949999994" cy="813.25987024" r="5" fill="black" stroke="none" />
<circle cx="559.1092395" cy="813.25987024" r="5" fill="black" stroke="none" />
<path d="M463.1092395,813.25987024 A315.4245940205837,315.4245940205837,0,0,0,467.95643847971564,813.7927415957001" stroke="grey" stroke-width="5" fill="none" />
<path d="M467.95643847971564,813.7927415957001 L463.10923949999994,861.25987024" stroke="grey" stroke-width="5" />
<circle cx="467.95643847971564" cy="813.7927415957001" r="2.5" fill="grey" stroke="none" />
<circle cx="463.10923949999994" cy="813.25987024" r="5" fill="black" stroke="none" />
<circle cx="463.10923949999994" cy="861.25987024" r="5" fill="black" stroke="none" />
<path d="M151.10923949999994,437.25987024000005 L333.6970365644995,470.09416503187725" stroke="grey" stroke-width="5" />
<circle cx="333.6970365644995" cy="470.09416503187725" r="2.5" fill="grey" stroke="none" />
<path d="M333.6970365644995,470.09416503187725 A168.97051403298153,168.97051403298153,0,0,1,343.10923949999994,437.25987024000005" stroke="grey" stroke-width="5" fill="none" />
<circle cx="151.10923949999994" cy="437.25987024000005" r="5" fill="black" stroke="none" />
<circle cx="343.10923949999994" cy="437.25987024000005" r="5" fill="black" stroke="none" />
<path d="M343.10923949999994,437.25987024000005 A168.97051403298153,168.97051403298153,0,0,0,349.960154184188,577.7115131762173" stroke="grey" stroke-width="5" fill="none" />
<path d="M349.960154184188,577.7115131762172 L343.10923949999994,581.25987024" stroke="grey" stroke-width="5" />
<circle cx="349.960154184188" cy="577.7115131762172" r="2.5" fill="grey" stroke="none" />
<circle cx="343.10923949999994" cy="437.25987024000005" r="5" fill="black" stroke="none" />
<circle cx="343.10923949999994" cy="581.25987024" r="5" fill="black" stroke="none" />
<path d="M343.10923949999994,437.25987024000005 A168.97051403298153,168.97051403298153,0,0,1,375.01643001243474,386.28921842791954" stroke="grey" stroke-width="5" fill="none" />
<path d="M375.01643001243474,386.28921842791954 L343.10923949999994,357.25987024000005" stroke="grey" stroke-width="5" />
<circle cx="375.01643001243474" cy="386.28921842791954" r="2.5" fill="grey" stroke="none" />
<circle cx="343.10923949999994" cy="437.25987024000005" r="5" fill="black" stroke="none" />
<circle cx="343.10923949999994" cy="357.25987024000005" r="5" fill="black" stroke="none" />
<path d="M343.10923949999994,357.25987024000005 A212.10717897838822,212.10717897838822,0,0,1,368.57381896955906,333.516924842422" stroke="grey" stroke-width="5" fill="none" />
<path d="M368.57381896955906,333.516924842422 L343.10923949999994,301.25987024000005" stroke="grey" stroke-width="5" />
<circle cx="368.57381896955906" cy="333.516924842422" r="2.5" fill="grey" stroke="none" />
<circle cx="343.10923949999994" cy="357.25987024000005" r="5" fill="black" stroke="none" />
<circle cx="343.10923949999994" cy="301.25987024000005" r="5" fill="black" stroke="none" />
<path d="M343.10923949999994,357.25987024000005 L443.2213154844251,448.3424213795225" stroke="grey" stroke-width="5" />
<circle cx="443.2213154844251" cy="448.3424213795225" r="2.5" fill="grey" stroke="none" />
<path d="M443.2213154844251,448.3424213795225 A76.76147760595806,76.76147760595806,0,0,0,439.10923949999994,453.25987024000005" stroke="grey" stroke-width="5" fill="none" />
<circle cx="343.10923949999994" cy="357.25987024000005" r="5" fill="black" stroke="none" />
<circle cx="439.10923949999994" cy="453.25987024000005" r="5" fill="black" stroke="none" />
<path d="M343.10923949999994,437.25987024000005 L428.7262238170633,471.49783740003835" stroke="grey" stroke-width="5" />
<circle cx="428.7262238170633" cy="471.49783740003835" r="2.5" fill="grey" stroke="none" />
<path d="M428.7262238170633,471.4978374000384 A76.76147760595806,76.76147760595806,0,0,1,439.10923949999994,453.25987024000005" stroke="grey" stroke-width="5" fill="none" />
<circle cx="343.10923949999994" cy="437.25987024000005" r="5" fill="black" stroke="none" />
<circle cx="439.10923949999994" cy="453.25987024000005" r="5" fill="black" stroke="none" />
<path d="M439.10923949999994,453.25987024000005 L477.5043291100307,482.73218189752424" stroke="grey" stroke-width="5" />
<circle cx="477.5043291100307" cy="482.73218189752424" r="2.5" fill="grey" stroke="none" />
<path d="M477.5043291100307,482.73218189752424 A28.358997704608687,28.358997704608687,0,0,0,487.10923949999994,525.25987024" stroke="grey" stroke-width="5" fill="none" />
<circle cx="439.10923949999994" cy="453.25987024000005" r="5" fill="black" stroke="none" />
<circle cx="487.10923949999994" cy="525.25987024" r="5" fill="black" stroke="none" />
<path d="M439.10923949999994,637.25987024 L442.36498793042796,629.9207665167901" stroke="grey" stroke-width="5" />
<circle cx="442.36498793042796" cy="629.9207665167901" r="2.5" fill="grey" stroke="none" />
<path d="M442.36498793042796,629.9207665167901 A142.13092622145965,142.13092622145965,0,0,0,463.10923949999994,637.25987024" stroke="grey" stroke-width="5" fill="none" />
<circle cx="439.10923949999994" cy="637.25987024" r="5" fill="black" stroke="none" />
<circle cx="463.10923949999994" cy="637.25987024" r="5" fill="black" stroke="none" />
<path d="M463.10923949999994,637.25987024 L464.2167771079803,633.1390425233336" stroke="grey" stroke-width="5" />
<circle cx="464.2167771079803" cy="633.1390425233336" r="2.5" fill="grey" stroke="none" />
<path d="M464.2167771079803,633.1390425233336 A137.86385924008513,137.86385924008513,0,0,0,487.10923949999994,637.25987024" stroke="grey" stroke-width="5" fill="none" />
<circle cx="463.10923949999994" cy="637.25987024" r="5" fill="black" stroke="none" />
<circle cx="487.10923949999994" cy="637.25987024" r="5" fill="black" stroke="none" />
<path d="M487.10923949999994,637.25987024 L492.3069028871455,581.9155325594737" stroke="grey" stroke-width="5" />
<circle cx="492.3069028871455" cy="581.9155325594737" r="2.5" fill="grey" stroke="none" />
<path d="M492.30690288714544,581.9155325594737 A82.27598809914107,82.27598809914107,0,0,1,487.10923949999994,581.25987024" stroke="grey" stroke-width="5" fill="none" />
<circle cx="487.10923949999994" cy="637.25987024" r="5" fill="black" stroke="none" />
<circle cx="487.10923949999994" cy="581.25987024" r="5" fill="black" stroke="none" />
<path d="M487.10923949999994,581.25987024 L489.57770964031795,565.6993016223802" stroke="grey" stroke-width="5" />
<circle cx="489.57770964031795" cy="565.6993016223802" r="2.5" fill="grey" stroke="none" />
<path d="M489.57770964031795,565.6993016223802 A66.5208416213295,66.5208416213295,0,0,1,487.10923949999994,565.25987024" stroke="grey" stroke-width="5" fill="none" />
<circle cx="487.10923949999994" cy="581.25987024" r="5" fill="black" stroke="none" />
<circle cx="487.10923949999994" cy="565.25987024" r="5" fill="black" stroke="none" />
<path d="M487.10923949999994,565.25987024 L490.1327192664868,549.9534112274231" stroke="grey" stroke-width="5" />
<circle cx="490.1327192664868" cy="549.9534112274231" r="2.5" fill="grey" stroke="none" />
<path d="M490.1327192664868,549.9534112274231 A50.91862647725292,50.91862647725292,0,0,1,487.10923949999994,549.25987024" stroke="grey" stroke-width="5" fill="none" />
<circle cx="487.10923949999994" cy="565.25987024" r="5" fill="black" stroke="none" />
<circle cx="487.10923949999994" cy="549.25987024" r="5" fill="black" stroke="none" />
<path d="M487.10923949999994,549.25987024 L492.8205241829633,527.4351576959672" stroke="grey" stroke-width="5" />
<circle cx="492.8205241829633" cy="527.4351576959672" r="2.5" fill="grey" stroke="none" />
<path d="M492.8205241829633,527.4351576959672 A28.358997704608687,28.358997704608687,0,0,1,487.10923949999994,525.25987024" stroke="grey" stroke-width="5" fill="none" />
<circle cx="487.10923949999994" cy="549.25987024" r="5" fill="black" stroke="none" />
<circle cx="487.10923949999994" cy="525.25987024" r="5" fill="black" stroke="none" />
<path d="M487.10923949999994,525.25987024 A28.358997704608687,28.358997704608687,0,0,0,523.0201386458904,516.5621848659525" stroke="grey" stroke-width="5" fill="none" />
<path d="M523.0201386458904,516.5621848659525 L535.1092395,525.25987024" stroke="grey" stroke-width="5" />
<circle cx="523.0201386458904" cy="516.5621848659525" r="2.5" fill="grey" stroke="none" />
<circle cx="487.10923949999994" cy="525.25987024" r="5" fill="black" stroke="none" />
<circle cx="535.1092395" cy="525.25987024" r="5" fill="black" stroke="none" />
<path d="M535.1092395,525.25987024 A43.25181779775268,43.25181779775268,0,0,1,520.491791246007,538.089450433684" stroke="grey" stroke-width="5" fill="none" />
<path d="M520.491791246007,538.089450433684 L535.1092395,565.25987024" stroke="grey" stroke-width="5" />
<circle cx="520.491791246007" cy="538.089450433684" r="2.5" fill="grey" stroke="none" />
<circle cx="535.1092395" cy="525.25987024" r="5" fill="black" stroke="none" />
<circle cx="535.1092395" cy="565.25987024" r="5" fill="black" stroke="none" />
<path d="M535.1092395,565.25987024 L531.5161597689845,558.5811748211476" stroke="grey" stroke-width="5" />
<circle cx="531.5161597689845" cy="558.5811748211476" r="2.5" fill="grey" stroke="none" />
<path d="M531.5161597689845,558.5811748211476 A66.5208416213295,66.5208416213295,0,0,1,487.10923949999994,565.25987024" stroke="grey" stroke-width="5" fill="none" />
<circle cx="535.1092395" cy="565.25987024" r="5" fill="black" stroke="none" />
<circle cx="487.10923949999994" cy="565.25987024" r="5" fill="black" stroke="none" />
<path d="M487.10923949999994,549.25987024 A50.91862647725292,50.91862647725292,0,0,0,541.0474883488138,530.1298891897065" stroke="grey" stroke-width="5" fill="none" />
<path d="M541.0474883488138,530.1298891897065 L567.1092395,549.25987024" stroke="grey" stroke-width="5" />
<circle cx="541.0474883488138" cy="530.1298891897065" r="2.5" fill="grey" stroke="none" />
<circle cx="487.10923949999994" cy="549.25987024" r="5" fill="black" stroke="none" />
<circle cx="567.1092395" cy="549.25987024" r="5" fill="black" stroke="none" />
<circle cx="500" cy="500" r="5" fill="red" stroke="none" />
</svg>