<?xml version="1.0" encoding="UTF-8"?>
<svg xmlns="http://www.w3.org/2000/svg" xmlns:xlink="http://www.w3.org/1999/xlink"
     width="1000" height="1000" viewBox="0 0 1000 1000">
<defs>
</defs>
<rect x="0" y="0" width="1000" height="1000" fill="white" />
<path d="M142.37279949999999,333.36235664 L169.57288294805727,346.03633053975534" stroke="grey" stroke-width="5" />
<circle cx="169.57288294805727" cy="346.03633053975534" r="2.5" fill="grey" stroke="none" />
<path d="M169.57288294805727,346.03633053975534 A364.53654301993066,364.53654301993066,0,0,0,142.37279950000004,429.3623566399998" stroke="grey" stroke-width="5" fill="none" />
<circle cx="142.37279949999999" cy="333.36235664" r="5" fill="black" stroke="none" />
<circle cx="142.37279949999999" cy="429.36235664" r="5" fill="black" stroke="none" />
<path d="M142.37279949999999,429.36235664 L211.58042850233943,443.03207697565557" stroke="grey" stroke-width="5" />
<circle cx="211.58042850233943" cy="443.03207697565557" r="2.5" fill="grey" stroke="none" />
<path d="M211.5804285023395,443.03207697565546 A293.9918255268363,293.9918255268363,0,0,0,206.37279949999999,485.36235664000003" stroke="grey" stroke-width="5" fill="none" />
<circle cx="142.37279949999999" cy="429.36235664" r="5" fill="black" stroke="none" />
<circle cx="206.37279949999999" cy="485.36235664" r="5" fill="black" stroke="none" />
<path d="M118.37279949999999,485.36235664 L206.22419253768192,488.7319732665926" stroke="grey" stroke-width="5" />
<circle cx="206.22419253768192" cy="488.7319732665926" r="2.5" fill="grey" stroke="none" />
<path d="M206.22419253768192,488.7319732665927 A293.9918255268363,293.9918255268363,0,0,1,206.37279949999999,485.36235664000003" stroke="grey" stroke-width="5" fill="none" />
<circle cx="118.37279949999999" cy="485.36235664" r="5" fill="black" stroke="none" />
<circle cx="206.37279949999999" cy="485.36235664" r="5" fill="black" stroke="none" />
<path d="M206.37279949999999,485.36235664 L277.9694696396763,488.93153048180875" stroke="grey" stroke-width="5" />
<circle cx="277.9694696396763" cy="488.93153048180875" r="2.5" fill="grey" stroke="none" />
<path d="M277.9694696396763,488.9315304818088 A222.3062469422795,222.3062469422795,0,0,0,278.37279950000004,517.36235664" stroke="grey" stroke-width="5" fill="none" />
<circle cx="206.37279949999999" cy="485.36235664" r="5" fill="black" stroke="none" />
<circle cx="278.3727995" cy="517.3623566399999" r="5" fill="black" stroke="none" />
<path d="M278.3727995,517.3623566399999 L292.3202249698446,516.2697101838297" stroke="grey" stroke-width="5" />
<circle cx="292.3202249698446" cy="516.2697101838297" r="2.5" fill="grey" stroke="none" />
<path d="M292.3202249698446,516.2697101838297 A208.31608777538463,208.31608777538463,0,0,0,294.37279950000004,533.36235664" stroke="grey" stroke-width="5" fill="none" />
<circle cx="278.3727995" cy="517.3623566399999" r="5" fill="black" stroke="none" />
<circle cx="294.3727995" cy="533.3623566399999" r="5" fill="black" stroke="none" />
<path d="M294.3727995,533.3623566399999 L316.8720557064087,529.7119241686745" stroke="grey" stroke-width="5" />
<circle cx="316.8720557064087" cy="529.7119241686745" r="2.5" fill="grey" stroke="none" />
<path d="M316.8720557064087,529.7119241686746 A185.52261969636413,185.52261969636413,0,0,0,326.3727994999999,565.3623566399999" stroke="grey" stroke-width="5" fill="none" />
<circle cx="294.3727995" cy="533.3623566399999" r="5" fill="black" stroke="none" />
<circle cx="326.3727995" cy="565.3623566399999" r="5" fill="black" stroke="none" />
<path d="M294.37279950000004,533.36235664 A208.31608777538463,208.31608777538463,0,0,0,316.8235778362134,599.2068081802655" stroke="grey" stroke-width="5" fill="none" />
<path d="M316.8235778362134,599.2068081802655 L-253.62720050000001,137.36235663999997" stroke="grey" stroke-width="5" />
<circle cx="316.8235778362134" cy="599.2068081802655" r="2.5" fill="grey" stroke="none" />
<circle cx="294.3727995" cy="533.3623566399999" r="5" fill="black" stroke="none" />
<circle cx="246.37279949999999" cy="637.3623566399999" r="5" fill="black" stroke="none" />
<path d="M246.37279949999999,637.3623566399999 A288.435736092395,288.435736092395,0,0,0,280.9894449592109,687.6953665807637" stroke="grey" stroke-width="5" fill="none" />
<path d="M280.9894449592109,687.6953665807637 L-253.62720050000001,217.36235663999997" stroke="grey" stroke-width="5" />
<circle cx="280.9894449592109" cy="687.6953665807637" r="2.5" fill="grey" stroke="none" />
<circle cx="246.37279949999999" cy="637.3623566399999" r="5" fill="black" stroke="none" />
<circle cx="246.37279949999999" cy="717.3623566399999" r="5" fill="black" stroke="none" />
<path d="M142.37279949999999,733.3623566399999 L220.2620993772486,682.5372780358506" stroke="grey" stroke-width="5" />
<circle cx="220.2620993772486" cy="682.5372780358506" r="2.5" fill="grey" stroke="none" />
<path d="M220.26209937724855,682.5372780358505 A334.0256740395291,334.0256740395291,0,0,0,246.3727995,717.36235664" stroke="grey" stroke-width="5" fill="none" />
<circle cx="142.37279949999999" cy="733.3623566399999" r="5" fill="black" stroke="none" />
<circle cx="246.37279949999999" cy="717.3623566399999" r="5" fill="black" stroke="none" />
<path d="M246.3727995,717.36235664 A334.0256740395291,334.0256740395291,0,0,0,299.2780760623849,766.99037467359" stroke="grey" stroke-width="5" fill="none" />
<path d="M299.2780760623848,766.9903746735899 L-253.62720050000001,337.36235664" stroke="grey" stroke-width="5" />
<circle cx="299.2780760623848" cy="766.9903746735899" r="2.5" fill="grey" stroke="none" />
<circle cx="246.37279949999999" cy="717.3623566399999" r="5" fill="black" stroke="none" />
<circle cx="246.37279949999999" cy="837.3623566399999" r="5" fill="black" stroke="none" />
<path d="M246.37279949999999,637.3623566399999 L305.32486921112735,605.4344119701773" stroke="grey" stroke-width="5" />
<circle cx="305.32486921112735" cy="605.4344119701773" r="2.5" fill="grey" stroke="none" />
<path d="M305.32486921112735,605.4344119701773 A221.39291265792983,221.39291265792983,0,0,0,326.3727994999999,637.3623566399999" stroke="grey" stroke-width="5" fill="none" />
<circle cx="246.37279949999999" cy="637.3623566399999" r="5" fill="black" stroke="none" />
<circle cx="326.3727995" cy="637.3623566399999" r="5" fill="black" stroke="none" />
<path d="M326.3727994999999,565.3623566399999 A185.52261969636413,185.52261969636413,0,0,0,354.5040457682776,615.1067753053759" stroke="grey" stroke-width="5" fill="none" />
<path d="M354.5040457682776,615.1067753053759 L-173.62720050000001,137.36235663999997" stroke="grey" stroke-width="5" />
<circle cx="354.5040457682776" cy="615.1067753053759" r="2.5" fill="grey" stroke="none" />
<circle cx="326.3727995" cy="565.3623566399999" r="5" fill="black" stroke="none" />
<circle cx="326.3727995" cy="637.3623566399999" r="5" fill="black" stroke="none" />
<path d="M326.3727995,637.3623566399999 L365.99546943344944,606.0155209900898" stroke="grey" stroke-width="5" />
<circle cx="365.99546943344944" cy="606.0155209900898" r="2.5" fill="grey" stroke="none" />
<path d="M365.99546943344944,606.0155209900898 A170.86984784672148,170.86984784672148,0,0,0,398.3727995,637.3623566399999" stroke="grey" stroke-width="5" fill="none" />
<circle cx="326.3727995" cy="637.3623566399999" r="5" fill="black" stroke="none" />
<circle cx="398.3727995" cy="637.3623566399999" r="5" fill="black" stroke="none" />
<path d="M326.3727995,565.3623566399999 L360.7816274036462,552.4090746972752" stroke="grey" stroke-width="5" />
<circle cx="360.7816274036462" cy="552.4090746972752" r="2.5" fill="grey" stroke="none" />
<path d="M360.7816274036462,552.4090746972752 A148.75639945562594,148.75639945562594,0,0,0,366.3727995,565.3623566399999" stroke="grey" stroke-width="5" fill="none" />
<circle cx="326.3727995" cy="565.3623566399999" r="5" fill="black" stroke="none" />
<circle cx="366.3727995" cy="565.3623566399999" r="5" fill="black" stroke="none" />
<path d="M398.3727995,637.3623566399999 L441.52794478608956,579.0325745691177" stroke="grey" stroke-width="5" />
<circle cx="441.52794478608956" cy="579.0325745691177" r="2.5" fill="grey" stroke="none" />
<path d="M441.52794478608956,579.0325745691177 A98.31138837368613,98.31138837368613,0,0,0,486.3727995,597.36235664" stroke="grey" stroke-width="5" fill="none" />
<circle cx="398.3727995" cy="637.3623566399999" r="5" fill="black" stroke="none" />
<circle cx="486.3727995" cy="597.3623566399999" r="5" fill="black" stroke="none" />
<path d="M366.3727995,565.3623566399999 L440.5505324035348,529.0790893512603" stroke="grey" stroke-width="5" />
<circle cx="440.5505324035348" cy="529.0790893512603" r="2.5" fill="grey" stroke="none" />
<path d="M440.5505324035348,529.0790893512603 A66.18030398088051,66.18030398088051,0,0,0,510.3727995,565.3623566399999" stroke="grey" stroke-width="5" fill="none" />
<circle cx="366.3727995" cy="565.3623566399999" r="5" fill="black" stroke="none" />
<circle cx="510.3727995" cy="565.3623566399999" r="5" fill="black" stroke="none" />
<path d="M486.3727995,597.3623566399999 L490.8265737427039,565.5414440312669" stroke="grey" stroke-width="5" />
<circle cx="490.8265737427039" cy="565.5414440312669" r="2.5" fill="grey" stroke="none" />
<path d="M490.8265737427039,565.541444031267 A66.18030398088051,66.18030398088051,0,0,0,510.3727995,565.3623566399999" stroke="grey" stroke-width="5" fill="none" />
<circle cx="486.3727995" cy="597.3623566399999" r="5" fill="black" stroke="none" />
<circle cx="510.3727995" cy="565.3623566399999" r="5" fill="black" stroke="none" />
<path d="M246.37279949999999,717.3623566399999 L306.26181727887075,666.03656029163" stroke="grey" stroke-width="5" />
<circle cx="306.26181727887075" cy="666.03656029163" r="2.5" fill="grey" stroke="none" />
<path d="M306.26181727887075,666.03656029163 A255.15215616874914,255.15215616874914,0,0,0,366.3727995,717.3623566399999" stroke="grey" stroke-width="5" fill="none" />
<circle cx="246.37279949999999" cy="717.3623566399999" r="5" fill="black" stroke="none" />
<circle cx="366.3727995" cy="717.3623566399999" r="5" fill="black" stroke="none" />
<path d="M366.3727995,717.3623566399999 L433.45588611849564,608.2428230156952" stroke="grey" stroke-width="5" />
<circle cx="433.45588611849564" cy="608.2428230156952" r="2.5" fill="grey" stroke="none" />
<path d="M433.45588611849564,608.2428230156952 A127.06151198014977,127.06151198014977,0,0,0,462.3727995,621.3623566399999" stroke="grey" stroke-width="5" fill="none" />
<circle cx="366.3727995" cy="717.3623566399999" r="5" fill="black" stroke="none" />
<circle cx="462.3727995" cy="621.3623566399999" r="5" fill="black" stroke="none" />
<path d="M462.3727995,621.3623566399999 L470.8866810718578,593.9017771128429" stroke="grey" stroke-width="5" />
<circle cx="470.8866810718578" cy="593.9017771128429" r="2.5" fill="grey" stroke="none" />
<path d="M470.8866810718578,593.9017771128429 A98.31138837368613,98.31138837368613,0,0,0,486.3727995,597.36235664" stroke="grey" stroke-width="5" fill="none" />
<circle cx="462.3727995" cy="621.3623566399999" r="5" fill="black" stroke="none" />
<circle cx="486.3727995" cy="597.3623566399999" r="5" fill="black" stroke="none" />
<path d="M486.3727995,597.36235664 A98.31138837368613,98.31138837368613,0,0,0,489.0300208362025,597.6974341582602" stroke="grey" stroke-width="5" fill="none" />
<path d="M489.0300208362025,597.6974341582602 L-13.627200500000015,121.36235663999997" stroke="grey" stroke-width="5" />
<circle cx="489.0300208362025" cy="597.6974341582602" r="2.5" fill="grey" stroke="none" />
<circle cx="486.3727995" cy="597.3623566399999" r="5" fill="black" stroke="none" />
<circle cx="486.3727995" cy="621.3623566399999" r="5" fill="black" stroke="none" />
<path d="M486.3727995,621.3623566399999 A122.12502693011677,122.12502693011677,0,0,0,494.40925383906,621.9969907827472" stroke="grey" stroke-width="5" fill="none" />
<path d="M494.40925383906,621.9969907827472 L-13.627200500000015,297.36235664" stroke="grey" stroke-width="5" />
<circle cx="494.40925383906" cy="621.9969907827472" r="2.5" fill="grey" stroke="none" />
<circle cx="486.3727995" cy="621.3623566399999" r="5" fill="black" stroke="none" />
<circle cx="486.3727995" cy="797.3623566399999" r="5" fill="black" stroke="none" />
<path d="M486.3727994999999,797.3623566399999 A297.67443917804184,297.67443917804184,0,0,0,579.4666467558951,786.8712669357731" stroke="grey" stroke-width="5" fill="none" />
<path d="M579.4666467558952,786.871266935773 L82.37279949999999,297.36235664" stroke="grey" stroke-width="5" />
<circle cx="579.4666467558952" cy="786.871266935773" r="2.5" fill="grey" stroke="none" />
<circle cx="486.3727995" cy="797.3623566399999" r="5" fill="black" stroke="none" />
<circle cx="582.3727994999999" cy="797.3623566399999" r="5" fill="black" stroke="none" />
<path d="M486.3727994999999,797.3623566399999 A297.67443917804184,297.67443917804184,0,0,0,488.26358723307595,797.4429833687898" stroke="grey" stroke-width="5" fill="none" />
<path d="M488.26358723307595,797.4429833687898 L-13.627200500000015,345.36235664" stroke="grey" stroke-width="5" />
<circle cx="488.26358723307595" cy="797.4429833687898" r="2.5" fill="grey" stroke="none" />
<circle cx="486.3727995" cy="797.3623566399999" r="5" fill="black" stroke="none" />
<circle cx="486.3727995" cy="845.3623566399999" r="5" fill="black" stroke="none" />
<path d="M174.37279949999999,421.36235664 L349.28390116526555,463.60267566536913" stroke="grey" stroke-width="5" />
<circle cx="349.28390116526555" cy="463.60267566536913" r="2.5" fill="grey" stroke="none" />
<path d="M349.28390116526555,463.60267566536913 A155.04872674963107,155.04872674963107,0,0,1,366.3727995,421.36235664" stroke="grey" stroke-width="5" fill="none" />
<circle cx="174.37279949999999" cy="421.36235664" r="5" fill="black" stroke="none" />
<circle cx="366.3727995" cy="421.36235664" r="5" fill="black" stroke="none" />
<path d="M366.3727995,421.36235664 L371.79577909199236,424.55370041961953" stroke="grey" stroke-width="5" />
<circle cx="371.79577909199236" cy="424.55370041961953" r="2.5" fill="grey" stroke="none" />
<path d="M371.79577909199236,424.55370041961953 A148.75639945562594,148.75639945562594,0,0,0,366.3727995,565.3623566399999" stroke="grey" stroke-width="5" fill="none" />
<circle cx="366.3727995" cy="421.36235664" r="5" fill="black" stroke="none" />
<circle cx="366.3727995" cy="565.3623566399999" r="5" fill="black" stroke="none" />
<path d="M366.3727995,421.36235664 A155.04872674963107,155.04872674963107,0,0,1,400.1111261248228,381.4153444048063" stroke="grey" stroke-width="5" fill="none" />
<path d="M400.1111261248228,381.4153444048063 L-133.62720050000001,-158.63764336000003" stroke="grey" stroke-width="5" />
<circle cx="400.1111261248228" cy="381.4153444048063" r="2.5" fill="grey" stroke="none" />
<circle cx="366.3727995" cy="421.36235664" r="5" fill="black" stroke="none" />
<circle cx="366.3727995" cy="341.36235664" r="5" fill="black" stroke="none" />
<path d="M366.37279950000004,341.3623566399999 A207.4177682945262,207.4177682945262,0,0,1,390.3765156500306,323.9181375517235" stroke="grey" stroke-width="5" fill="none" />
<path d="M390.3765156500306,323.9181375517235 L-133.62720050000001,-214.63764336000003" stroke="grey" stroke-width="5" />
<circle cx="390.3765156500306" cy="323.9181375517235" r="2.5" fill="grey" stroke="none" />
<circle cx="366.3727995" cy="341.36235664" r="5" fill="black" stroke="none" />
<circle cx="366.3727995" cy="285.36235664" r="5" fill="black" stroke="none" />
<path d="M366.3727995,341.36235664 L452.92500475660626,444.1141752678176" stroke="grey" stroke-width="5" />
<circle cx="452.92500475660626" cy="444.1141752678176" r="2.5" fill="grey" stroke="none" />
<path d="M452.92500475660626,444.1141752678176 A73.07038102515791,73.07038102515791,0,0,1,462.3727995,437.36235664" stroke="grey" stroke-width="5" fill="none" />
<circle cx="366.3727995" cy="341.36235664" r="5" fill="black" stroke="none" />
<circle cx="462.3727995" cy="437.36235664" r="5" fill="black" stroke="none" />
<path d="M366.3727995,421.36235664 L437.0250200659361,462.94014995354127" stroke="grey" stroke-width="5" />
<circle cx="437.0250200659361" cy="462.94014995354127" r="2.5" fill="grey" stroke="none" />
<path d="M437.0250200659361,462.94014995354127 A73.07038102515791,73.07038102515791,0,0,1,462.3727995,437.36235664" stroke="grey" stroke-width="5" fill="none" />
<circle cx="366.3727995" cy="421.36235664" r="5" fill="black" stroke="none" />
<circle cx="462.3727995" cy="437.36235664" r="5" fill="black" stroke="none" />
<path d="M462.3727995,437.36235664 L492.80460563975254,488.02189533681263" stroke="grey" stroke-width="5" />
<circle cx="492.80460563975254" cy="488.02189533681263" r="2.5" fill="grey" stroke="none" />
<path d="M492.80460563975254,488.02189533681263 A13.973141784214155,13.973141784214155,0,0,1,510.3727995,509.36235664" stroke="grey" stroke-width="5" fill="none" />
<circle cx="462.3727995" cy="437.36235664" r="5" fill="black" stroke="none" />
<circle cx="510.3727995" cy="509.36235664" r="5" fill="black" stroke="none" />
<path d="M462.3727995,621.3623566399999 L463.8346592705012,616.6472902925782" stroke="grey" stroke-width="5" />
<circle cx="463.8346592705012" cy="616.6472902925782" r="2.5" fill="grey" stroke="none" />
<path d="M463.8346592705012,616.6472902925782 A122.12502693011677,122.12502693011677,0,0,0,486.3727995,621.3623566399999" stroke="grey" stroke-width="5" fill="none" />
<circle cx="462.3727995" cy="621.3623566399999" r="5" fill="black" stroke="none" />
<circle cx="486.3727995" cy="621.3623566399999" r="5" fill="black" stroke="none" />
<path d="M486.3727995,621.3623566399999 L486.4085283731238,621.0441592052155" stroke="grey" stroke-width="5" />
<circle cx="486.4085283731238" cy="621.0441592052155" r="2.5" fill="grey" stroke="none" />
<path d="M486.4085283731238,621.0441592052155 A121.8048298659858,121.8048298659858,0,0,0,510.3727995,621.3623566399999" stroke="grey" stroke-width="5" fill="none" />
<circle cx="486.3727995" cy="621.3623566399999" r="5" fill="black" stroke="none" />
<circle cx="510.3727995" cy="621.3623566399999" r="5" fill="black" stroke="none" />
<path d="M510.3727995,621.3623566399999 L505.6358604564204,565.9398946914348" stroke="grey" stroke-width="5" />
<circle cx="505.6358604564204" cy="565.9398946914348" r="2.5" fill="grey" stroke="none" />
<path d="M505.6358604564204,565.9398946914348 A66.18030398088051,66.18030398088051,0,0,0,510.3727995,565.3623566399999" stroke="grey" stroke-width="5" fill="none" />
<circle cx="510.3727995" cy="621.3623566399999" r="5" fill="black" stroke="none" />
<circle cx="510.3727995" cy="565.3623566399999" r="5" fill="black" stroke="none" />
<path d="M510.3727995,565.3623566399999 L507.9058037013109,549.8170200870957" stroke="grey" stroke-width="5" />
<circle cx="507.9058037013109" cy="549.8170200870957" r="2.5" fill="grey" stroke="none" />
<path d="M507.9058037013109,549.8170200870957 A50.44043241806864,50.44043241806864,0,0,0,510.3727995,549.3623566399999" stroke="grey" stroke-width="5" fill="none" />
<circle cx="510.3727995" cy="565.3623566399999" r="5" fill="black" stroke="none" />
<circle cx="510.3727995" cy="549.3623566399999" r="5" fill="black" stroke="none" />
<path d="M510.3727995,549.3623566399999 L507.1847440772061,534.1909529347574" stroke="grey" stroke-width="5" />
<circle cx="507.1847440772061" cy="534.1909529347574" r="2.5" fill="grey" stroke="none" />
<path d="M507.1847440772061,534.1909529347574 A34.93768466916132,34.93768466916132,0,0,0,510.3727995,533.3623566399999" stroke="grey" stroke-width="5" fill="none" />
<circle cx="510.3727995" cy="549.3623566399999" r="5" fill="black" stroke="none" />
<circle cx="510.3727995" cy="533.3623566399999" r="5" fill="black" stroke="none" />
<path d="M510.3727995,533.3623566399999 L504.1485461754328,513.3430976895193" stroke="grey" stroke-width="5" />
<circle cx="504.1485461754328" cy="513.3430976895193" r="2.5" fill="grey" stroke="none" />
<path d="M504.1485461754328,513.3430976895193 A13.973141784214155,13.973141784214155,0,0,0,510.3727995,509.36235664" stroke="grey" stroke-width="5" fill="none" />
<circle cx="510.3727995" cy="533.3623566399999" r="5" fill="black" stroke="none" />
<circle cx="510.3727995" cy="509.36235664" r="5" fill="black" stroke="none" />
<path d="M510.3727995,509.36235664 A13.973141784214155,13.973141784214155,0,0,0,513.796809618959,502.21285690001685" stroke="grey" stroke-width="5" fill="none" />
<path d="M513.796809618959,502.21285690001685 L58.372799499999985,9.362356639999973" stroke="grey" stroke-width="5" />
<circle cx="513.796809618959" cy="502.21285690001685" r="2.5" fill="grey" stroke="none" />
<circle cx="510.3727995" cy="509.36235664" r="5" fill="black" stroke="none" />
<circle cx="558.3727994999999" cy="509.36235664" r="5" fill="black" stroke="none" />
<path d="M558.3727994999999,509.36235664 A59.118841694689436,59.118841694689436,0,0,1,545.1419556519298,538.1738298215014" stroke="grey" stroke-width="5" fill="none" />
<path d="M545.1419556519298,538.1738298215014 L58.372799499999985,49.36235663999997" stroke="grey" stroke-width="5" />
<circle cx="545.1419556519298" cy="538.1738298215014" r="2.5" fill="grey" stroke="none" />
<circle cx="558.3727994999999" cy="509.36235664" r="5" fill="black" stroke="none" />
<circle cx="558.3727994999999" cy="549.3623566399999" r="5" fill="black" stroke="none" />
<path d="M558.3727994999999,549.3623566399999 L538.5152972894791,532.5700644338447" stroke="grey" stroke-width="5" />
<circle cx="538.5152972894791" cy="532.5700644338447" r="2.5" fill="grey" stroke="none" />
<path d="M538.5152972894791,532.5700644338447 A50.44043241806864,50.44043241806864,0,0,1,510.3727995,549.3623566399999" stroke="grey" stroke-width="5" fill="none" />
<circle cx="558.3727994999999" cy="549.3623566399999" r="5" fill="black" stroke="none" />
<circle cx="510.3727995" cy="549.3623566399999" r="5" fill="black" stroke="none" />
<path d="M510.3727995,533.3623566399999 A34.93768466916132,34.93768466916132,0,0,0,532.7756330711543,512.0995738283135" stroke="grey" stroke-width="5" fill="none" />
<path d="M532.7756330711543,512.0995738283135 L90.37279949999999,33.36235663999997" stroke="grey" stroke-width="5" />
<circle cx="532.7756330711543" cy="512.0995738283135" r="2.5" fill="grey" stroke="none" />
<circle cx="510.3727995" cy="533.3623566399999" r="5" fill="black" stroke="none" />
<circle cx="590.3727994999999" cy="533.3623566399999" r="5" fill="black" stroke="none" />
<circle cx="500" cy="500" r="5" fill="red" stroke="none" />
</svg>