<?xml version="1.0" encoding="UTF-8"?>
<svg xmlns="http://www.w3.org/2000/svg" xmlns:xlink="http://www.w3.org/1999/xlink"
     width="1000" height="1000" viewBox="0 0 1000 1000">
<defs>
</defs>
<rect x="0" y="0" width="1000" height="1000" fill="white" />
<path d="M368.87411199999997,258.04657664 L406.5135052683534,327.49876638968124" stroke="grey" stroke-width="5" />
<circle cx="406.5135052683534" cy="327.49876638968124" r="2.5" fill="grey" stroke="none" />
<path d="M406.5135052683534,327.49876638968124 A196.20499558954137,196.20499558954137,0,0,0,368.87411199999997,354.04657664" stroke="grey" stroke-width="5" fill="none" />
<circle cx="368.87411199999997" cy="258.04657664" r="5" fill="black" stroke="none" />
<circle cx="368.87411199999997" cy="354.04657664" r="5" fill="black" stroke="none" />
<path d="M368.87411199999997,354.04657664 L424.9897487018513,416.5076924851126" stroke="grey" stroke-width="5" />
<circle cx="424.9897487018513" cy="416.5076924851126" r="2.5" fill="grey" stroke="none" />
<path d="M424.9897487018513,416.5076924851126 A112.23859948329692,112.23859948329692,0,0,1,432.87411199999997,410.04657664" stroke="grey" stroke-width="5" fill="none" />
<circle cx="368.87411199999997" cy="354.04657664" r="5" fill="black" stroke="none" />
<circle cx="432.87411199999997" cy="410.04657664" r="5" fill="black" stroke="none" />
<path d="M344.87411199999997,410.04657664 L402.90478921865486,443.6970404215009" stroke="grey" stroke-width="5" />
<circle cx="402.90478921865486" cy="443.6970404215009" r="2.5" fill="grey" stroke="none" />
<path d="M402.90478921865486,443.6970404215009 A112.23859948329692,112.23859948329692,0,0,1,432.87411199999997,410.04657664" stroke="grey" stroke-width="5" fill="none" />
<circle cx="344.87411199999997" cy="410.04657664" r="5" fill="black" stroke="none" />
<circle cx="432.87411199999997" cy="410.04657664" r="5" fill="black" stroke="none" />
<path d="M432.87411199999997,410.04657664 L465.2177654848375,453.38935305035795" stroke="grey" stroke-width="5" />
<circle cx="465.2177654848375" cy="453.38935305035795" r="2.5" fill="grey" stroke="none" />
<path d="M465.2177654848375,453.38935305035795 A58.15802822424378,58.15802822424378,0,0,1,504.87411199999997,442.04657664" stroke="grey" stroke-width="5" fill="none" />
<circle cx="432.87411199999997" cy="410.04657664" r="5" fill="black" stroke="none" />
<circle cx="504.87411199999997" cy="442.04657664" r="5" fill="black" stroke="none" />
<path d="M504.87411199999997,442.04657664 L503.9272091321667,453.3052967474451" stroke="grey" stroke-width="5" />
<circle cx="503.9272091321667" cy="453.3052967474451" r="2.5" fill="grey" stroke="none" />
<path d="M503.9272091321667,453.3052967474451 A46.85955914658113,46.85955914658113,0,0,1,520.874112,458.04657664" stroke="grey" stroke-width="5" fill="none" />
<circle cx="504.87411199999997" cy="442.04657664" r="5" fill="black" stroke="none" />
<circle cx="520.874112" cy="458.04657664" r="5" fill="black" stroke="none" />
<path d="M520.874112,458.04657664 A46.85955914658113,46.85955914658113,0,0,1,546.0507096526553,491.3310655845848" stroke="grey" stroke-width="5" fill="none" />
<path d="M546.0507096526553,491.3310655845848 L52.87411199999997,-9.953423359999988" stroke="grey" stroke-width="5" />
<circle cx="546.0507096526553" cy="491.3310655845848" r="2.5" fill="grey" stroke="none" />
<circle cx="520.874112" cy="458.04657664" r="5" fill="black" stroke="none" />
<circle cx="552.874112" cy="490.04657664" r="5" fill="black" stroke="none" />
<path d="M520.874112,458.04657664 A46.85955914658113,46.85955914658113,0,0,1,481.2291265327651,542.9356797161637" stroke="grey" stroke-width="5" fill="none" />
<path d="M481.2291265327651,542.9356797161637 L-27.12588800000003,62.04657664000001" stroke="grey" stroke-width="5" />
<circle cx="481.2291265327651" cy="542.9356797161637" r="2.5" fill="grey" stroke="none" />
<circle cx="520.874112" cy="458.04657664" r="5" fill="black" stroke="none" />
<circle cx="472.87411199999997" cy="562.04657664" r="5" fill="black" stroke="none" />
<path d="M472.87411199999997,562.04657664 A67.71699544820297,67.71699544820297,0,0,0,487.29797328052956,566.5150358170978" stroke="grey" stroke-width="5" fill="none" />
<path d="M487.29797328052956,566.5150358170978 L-27.12588800000003,142.04657664" stroke="grey" stroke-width="5" />
<circle cx="487.29797328052956" cy="566.5150358170978" r="2.5" fill="grey" stroke="none" />
<circle cx="472.87411199999997" cy="562.04657664" r="5" fill="black" stroke="none" />
<circle cx="472.87411199999997" cy="642.04657664" r="5" fill="black" stroke="none" />
<path d="M368.87411199999997,658.04657664 L407.66182970886763,611.2955796167026" stroke="grey" stroke-width="5" />
<circle cx="407.66182970886763" cy="611.2955796167026" r="2.5" fill="grey" stroke="none" />
<path d="M407.66182970886763,611.2955796167026 A144.61342861204815,144.61342861204815,0,0,0,472.87411199999997,642.04657664" stroke="grey" stroke-width="5" fill="none" />
<circle cx="368.87411199999997" cy="658.04657664" r="5" fill="black" stroke="none" />
<circle cx="472.87411199999997" cy="642.04657664" r="5" fill="black" stroke="none" />
<path d="M472.87411199999997,642.04657664 A144.61342861204815,144.61342861204815,0,0,0,485.1098304978804,643.84480034791" stroke="grey" stroke-width="5" fill="none" />
<path d="M485.1098304978804,643.84480034791 L-27.12588800000003,262.04657664" stroke="grey" stroke-width="5" />
<circle cx="485.1098304978804" cy="643.84480034791" r="2.5" fill="grey" stroke="none" />
<circle cx="472.87411199999997" cy="642.04657664" r="5" fill="black" stroke="none" />
<circle cx="472.87411199999997" cy="762.04657664" r="5" fill="black" stroke="none" />
<path d="M472.87411199999997,562.04657664 A67.71699544820297,67.71699544820297,0,0,0,543.9216442171621,551.541057825708" stroke="grey" stroke-width="5" fill="none" />
<path d="M543.9216442171621,551.541057825708 L52.87411199999997,62.04657664000001" stroke="grey" stroke-width="5" />
<circle cx="543.9216442171621" cy="551.541057825708" r="2.5" fill="grey" stroke="none" />
<circle cx="472.87411199999997" cy="562.04657664" r="5" fill="black" stroke="none" />
<circle cx="552.874112" cy="562.04657664" r="5" fill="black" stroke="none" />
<path d="M552.874112,490.04657664 A53.80280993007646,53.80280993007646,0,0,1,534.8968211006935,540.9506316610394" stroke="grey" stroke-width="5" fill="none" />
<path d="M534.8968211006935,540.9506316610394 L52.87411199999997,62.04657664000001" stroke="grey" stroke-width="5" />
<circle cx="534.8968211006935" cy="540.9506316610394" r="2.5" fill="grey" stroke="none" />
<circle cx="552.874112" cy="490.04657664" r="5" fill="black" stroke="none" />
<circle cx="552.874112" cy="562.04657664" r="5" fill="black" stroke="none" />
<path d="M552.874112,562.04657664 A81.51962581202109,81.51962581202109,0,0,0,573.0044547190048,536.2739435919603" stroke="grey" stroke-width="5" fill="none" />
<path d="M573.0044547190048,536.2739435919603 L124.87411199999997,62.04657664000001" stroke="grey" stroke-width="5" />
<circle cx="573.0044547190048" cy="536.2739435919603" r="2.5" fill="grey" stroke="none" />
<circle cx="552.874112" cy="562.04657664" r="5" fill="black" stroke="none" />
<circle cx="624.874112" cy="562.04657664" r="5" fill="black" stroke="none" />
<path d="M552.874112,490.04657664 A53.80280993007646,53.80280993007646,0,0,1,553.496466195449,494.2667233652018" stroke="grey" stroke-width="5" fill="none" />
<path d="M553.496466195449,494.2667233652018 L92.87411199999997,-9.953423359999988" stroke="grey" stroke-width="5" />
<circle cx="553.496466195449" cy="494.2667233652018" r="2.5" fill="grey" stroke="none" />
<circle cx="552.874112" cy="490.04657664" r="5" fill="black" stroke="none" />
<circle cx="592.874112" cy="490.04657664" r="5" fill="black" stroke="none" />
<path d="M624.874112,562.04657664 A139.43931124518627,139.43931124518627,0,0,0,638.6974627061974,514.364378141602" stroke="grey" stroke-width="5" fill="none" />
<path d="M638.6974627061974,514.364378141602 L212.87411199999997,22.046576640000012" stroke="grey" stroke-width="5" />
<circle cx="638.6974627061974" cy="514.364378141602" r="2.5" fill="grey" stroke="none" />
<circle cx="624.874112" cy="562.04657664" r="5" fill="black" stroke="none" />
<circle cx="712.874112" cy="522.04657664" r="5" fill="black" stroke="none" />
<path d="M592.874112,490.04657664 A93.4059490416533,93.4059490416533,0,0,1,593.3235959996646,496.0785530650886" stroke="grey" stroke-width="5" fill="none" />
<path d="M593.3235959996646,496.0785530650886 L236.87411199999997,-9.953423359999988" stroke="grey" stroke-width="5" />
<circle cx="593.3235959996646" cy="496.0785530650886" r="2.5" fill="grey" stroke="none" />
<circle cx="592.874112" cy="490.04657664" r="5" fill="black" stroke="none" />
<circle cx="736.874112" cy="490.04657664" r="5" fill="black" stroke="none" />
<path d="M712.874112,522.04657664 A214.01270780337302,214.01270780337302,0,0,0,713.8240196342288,491.01513891076274" stroke="grey" stroke-width="5" fill="none" />
<path d="M713.8240196342288,491.01513891076274 L236.87411199999997,-9.953423359999988" stroke="grey" stroke-width="5" />
<circle cx="713.8240196342288" cy="491.01513891076274" r="2.5" fill="grey" stroke="none" />
<circle cx="712.874112" cy="522.04657664" r="5" fill="black" stroke="none" />
<circle cx="736.874112" cy="490.04657664" r="5" fill="black" stroke="none" />
<path d="M472.87411199999997,642.04657664 A144.61342861204815,144.61342861204815,0,0,0,579.1381169055081,621.0380195954233" stroke="grey" stroke-width="5" fill="none" />
<path d="M579.1381169055081,621.0380195954233 L92.87411199999997,142.04657664" stroke="grey" stroke-width="5" />
<circle cx="579.1381169055081" cy="621.0380195954233" r="2.5" fill="grey" stroke="none" />
<circle cx="472.87411199999997" cy="642.04657664" r="5" fill="black" stroke="none" />
<circle cx="592.874112" cy="642.04657664" r="5" fill="black" stroke="none" />
<path d="M592.874112,642.04657664 A169.71396705908427,169.71396705908427,0,0,0,664.884645554343,540.1980630795887" stroke="grey" stroke-width="5" fill="none" />
<path d="M664.884645554343,540.1980630795887 L188.87411199999997,46.04657664000001" stroke="grey" stroke-width="5" />
<circle cx="664.884645554343" cy="540.1980630795887" r="2.5" fill="grey" stroke="none" />
<circle cx="592.874112" cy="642.04657664" r="5" fill="black" stroke="none" />
<circle cx="688.874112" cy="546.04657664" r="5" fill="black" stroke="none" />
<path d="M688.874112,546.04657664 A194.40606318747345,194.40606318747345,0,0,0,693.3717791490747,520.0267928728846" stroke="grey" stroke-width="5" fill="none" />
<path d="M693.3717791490747,520.0267928728846 L212.87411199999997,22.046576640000012" stroke="grey" stroke-width="5" />
<circle cx="693.3717791490747" cy="520.0267928728846" r="2.5" fill="grey" stroke="none" />
<circle cx="688.874112" cy="546.04657664" r="5" fill="black" stroke="none" />
<circle cx="712.874112" cy="522.04657664" r="5" fill="black" stroke="none" />
<path d="M712.874112,522.04657664 A214.01270780337302,214.01270780337302,0,0,1,709.1750444086845,545.2464351961214" stroke="grey" stroke-width="5" fill="none" />
<path d="M709.1750444086845,545.2464351961214 L212.87411199999997,46.04657664000001" stroke="grey" stroke-width="5" />
<circle cx="709.1750444086845" cy="545.2464351961214" r="2.5" fill="grey" stroke="none" />
<circle cx="712.874112" cy="522.04657664" r="5" fill="black" stroke="none" />
<circle cx="712.874112" cy="546.04657664" r="5" fill="black" stroke="none" />
<path d="M712.874112,546.04657664 A217.79732500664906,217.79732500664906,0,0,1,650.7244677110435,657.2189861730271" stroke="grey" stroke-width="5" fill="none" />
<path d="M650.7244677110435,657.2189861730271 L212.87411199999997,222.04657664" stroke="grey" stroke-width="5" />
<circle cx="650.7244677110435" cy="657.2189861730271" r="2.5" fill="grey" stroke="none" />
<circle cx="712.874112" cy="546.04657664" r="5" fill="black" stroke="none" />
<circle cx="712.874112" cy="722.04657664" r="5" fill="black" stroke="none" />
<path d="M712.874112,722.04657664 A307.60375445909614,307.60375445909614,0,0,0,749.7623789575617,679.5517301915836" stroke="grey" stroke-width="5" fill="none" />
<path d="M749.7623789575617,679.5517301915836 L308.87411199999997,222.04657664" stroke="grey" stroke-width="5" />
<circle cx="749.7623789575617" cy="679.5517301915836" r="2.5" fill="grey" stroke="none" />
<circle cx="712.874112" cy="722.04657664" r="5" fill="black" stroke="none" />
<circle cx="808.874112" cy="722.04657664" r="5" fill="black" stroke="none" />
<path d="M712.874112,722.04657664 A307.60375445909614,307.60375445909614,0,0,1,690.4282064360751,741.5722830766631" stroke="grey" stroke-width="5" fill="none" />
<path d="M690.4282064360751,741.5722830766631 L212.87411199999997,270.04657664" stroke="grey" stroke-width="5" />
<circle cx="690.4282064360751" cy="741.5722830766631" r="2.5" fill="grey" stroke="none" />
<circle cx="712.874112" cy="722.04657664" r="5" fill="black" stroke="none" />
<circle cx="712.874112" cy="770.04657664" r="5" fill="black" stroke="none" />
<path d="M400.87411199999997,346.04657664 L402.66471639483376,348.82758251071795" stroke="grey" stroke-width="5" />
<circle cx="402.66471639483376" cy="348.82758251071795" r="2.5" fill="grey" stroke="none" />
<path d="M402.66471639483376,348.82758251071795 A179.79782324614482,179.79782324614482,0,0,1,592.874112,346.04657664" stroke="grey" stroke-width="5" fill="none" />
<circle cx="400.87411199999997" cy="346.04657664" r="5" fill="black" stroke="none" />
<circle cx="592.874112" cy="346.04657664" r="5" fill="black" stroke="none" />
<path d="M592.874112,346.04657664 L548.2486073309389,420.0203575464556" stroke="grey" stroke-width="5" />
<circle cx="548.2486073309389" cy="420.0203575464556" r="2.5" fill="grey" stroke="none" />
<path d="M548.2486073309389,420.02035754645556 A93.4059490416533,93.4059490416533,0,0,1,592.874112,490.04657664" stroke="grey" stroke-width="5" fill="none" />
<circle cx="592.874112" cy="346.04657664" r="5" fill="black" stroke="none" />
<circle cx="592.874112" cy="490.04657664" r="5" fill="black" stroke="none" />
<path d="M592.874112,346.04657664 A179.79782324614482,179.79782324614482,0,0,0,566.339499095048,332.88827658159335" stroke="grey" stroke-width="5" fill="none" />
<path d="M566.339499095048,332.88827658159335 L92.87411199999997,-233.95342336" stroke="grey" stroke-width="5" />
<circle cx="566.339499095048" cy="332.88827658159335" r="2.5" fill="grey" stroke="none" />
<circle cx="592.874112" cy="346.04657664" r="5" fill="black" stroke="none" />
<circle cx="592.874112" cy="266.04657664" r="5" fill="black" stroke="none" />
<path d="M592.874112,266.04657664 A251.71373617991514,251.71373617991514,0,0,0,576.7829917566263,260.2831312599095" stroke="grey" stroke-width="5" fill="none" />
<path d="M576.7829917566263,260.2831312599095 L92.87411199999997,-289.95342336" stroke="grey" stroke-width="5" />
<circle cx="576.7829917566263" cy="260.2831312599095" r="2.5" fill="grey" stroke="none" />
<circle cx="592.874112" cy="266.04657664" r="5" fill="black" stroke="none" />
<circle cx="592.874112" cy="210.04657664" r="5" fill="black" stroke="none" />
<path d="M592.874112,266.04657664 L586.297773572892,282.61262346471494" stroke="grey" stroke-width="5" />
<circle cx="586.297773572892" cy="282.61262346471494" r="2.5" fill="grey" stroke="none" />
<path d="M586.297773572892,282.61262346471494 A233.8900964139609,233.8900964139609,0,0,1,688.874112,362.04657664" stroke="grey" stroke-width="5" fill="none" />
<circle cx="592.874112" cy="266.04657664" r="5" fill="black" stroke="none" />
<circle cx="688.874112" cy="362.04657664" r="5" fill="black" stroke="none" />
<path d="M592.874112,346.04657664 A179.79782324614482,179.79782324614482,0,0,1,645.1927838152002,393.95136600575904" stroke="grey" stroke-width="5" fill="none" />
<path d="M645.1927838152002,393.95136600575904 L188.87411199999997,-137.95342336" stroke="grey" stroke-width="5" />
<circle cx="645.1927838152002" cy="393.95136600575904" r="2.5" fill="grey" stroke="none" />
<circle cx="592.874112" cy="346.04657664" r="5" fill="black" stroke="none" />
<circle cx="688.874112" cy="362.04657664" r="5" fill="black" stroke="none" />
<path d="M688.874112,362.04657664 A233.8900964139609,233.8900964139609,0,0,1,725.3192192129097,437.26383296840106" stroke="grey" stroke-width="5" fill="none" />
<path d="M725.3192192129097,437.26383296840106 L236.87411199999997,-65.95342335999999" stroke="grey" stroke-width="5" />
<circle cx="725.3192192129097" cy="437.26383296840106" r="2.5" fill="grey" stroke="none" />
<circle cx="688.874112" cy="362.04657664" r="5" fill="black" stroke="none" />
<circle cx="736.874112" cy="434.04657664" r="5" fill="black" stroke="none" />
<path d="M688.874112,546.04657664 A194.40606318747345,194.40606318747345,0,0,0,690.0115993949232,541.101210437591" stroke="grey" stroke-width="5" fill="none" />
<path d="M690.0115993949232,541.101210437591 L212.87411199999997,46.04657664000001" stroke="grey" stroke-width="5" />
<circle cx="690.0115993949232" cy="541.101210437591" r="2.5" fill="grey" stroke="none" />
<circle cx="688.874112" cy="546.04657664" r="5" fill="black" stroke="none" />
<circle cx="712.874112" cy="546.04657664" r="5" fill="black" stroke="none" />
<path d="M712.874112,546.04657664 A217.79732500664906,217.79732500664906,0,0,0,713.7952821504729,541.5602226925168" stroke="grey" stroke-width="5" fill="none" />
<path d="M713.7952821504729,541.5602226925168 L236.87411199999997,46.04657664000001" stroke="grey" stroke-width="5" />
<circle cx="713.7952821504729" cy="541.5602226925168" r="2.5" fill="grey" stroke="none" />
<circle cx="712.874112" cy="546.04657664" r="5" fill="black" stroke="none" />
<circle cx="736.874112" cy="546.04657664" r="5" fill="black" stroke="none" />
<path d="M736.874112,546.04657664 L732.7267194084652,545.2403541735184" stroke="grey" stroke-width="5" />
<circle cx="732.7267194084652" cy="545.2403541735184" r="2.5" fill="grey" stroke="none" />
<path d="M732.7267194084652,545.2403541735184 A237.0831406329263,237.0831406329263,0,0,0,736.874112,490.04657664" stroke="grey" stroke-width="5" fill="none" />
<circle cx="736.874112" cy="546.04657664" r="5" fill="black" stroke="none" />
<circle cx="736.874112" cy="490.04657664" r="5" fill="black" stroke="none" />
<path d="M736.874112,490.04657664 A237.0831406329263,237.0831406329263,0,0,0,735.6727613328912,474.1782042045491" stroke="grey" stroke-width="5" fill="none" />
<path d="M735.6727613328912,474.1782042045491 L236.87411199999997,-25.953423359999988" stroke="grey" stroke-width="5" />
<circle cx="735.6727613328912" cy="474.1782042045491" r="2.5" fill="grey" stroke="none" />
<circle cx="736.874112" cy="490.04657664" r="5" fill="black" stroke="none" />
<circle cx="736.874112" cy="474.04657664" r="5" fill="black" stroke="none" />
<path d="M736.874112,474.04657664 A238.29168076097812,238.29168076097812,0,0,0,734.639897299789,458.44228453059077" stroke="grey" stroke-width="5" fill="none" />
<path d="M734.639897299789,458.44228453059077 L236.87411199999997,-41.95342335999999" stroke="grey" stroke-width="5" />
<circle cx="734.639897299789" cy="458.44228453059077" r="2.5" fill="grey" stroke="none" />
<circle cx="736.874112" cy="474.04657664" r="5" fill="black" stroke="none" />
<circle cx="736.874112" cy="458.04657664" r="5" fill="black" stroke="none" />
<path d="M736.874112,458.04657664 A240.56066733240476,240.56066733240476,0,0,0,731.7453477839456,435.4745906800275" stroke="grey" stroke-width="5" fill="none" />
<path d="M731.7453477839456,435.4745906800275 L236.87411199999997,-65.95342335999999" stroke="grey" stroke-width="5" />
<circle cx="731.7453477839456" cy="435.4745906800275" r="2.5" fill="grey" stroke="none" />
<circle cx="736.874112" cy="458.04657664" r="5" fill="black" stroke="none" />
<circle cx="736.874112" cy="434.04657664" r="5" fill="black" stroke="none" />
<path d="M736.874112,434.04657664 A245.88452368681507,245.88452368681507,0,0,1,739.5483664540934,444.5402928436571" stroke="grey" stroke-width="5" fill="none" />
<path d="M739.5483664540934,444.5402928436571 L284.87411199999997,-65.95342335999999" stroke="grey" stroke-width="5" />
<circle cx="739.5483664540934" cy="444.5402928436571" r="2.5" fill="grey" stroke="none" />
<circle cx="736.874112" cy="434.04657664" r="5" fill="black" stroke="none" />
<circle cx="784.874112" cy="434.04657664" r="5" fill="black" stroke="none" />
<path d="M784.874112,434.04657664 L778.6826353177278,435.48001360618343" stroke="grey" stroke-width="5" />
<circle cx="778.6826353177278" cy="435.48001360618343" r="2.5" fill="grey" stroke="none" />
<path d="M778.6826353177278,435.48001360618343 A286.05391077888083,286.05391077888083,0,0,1,784.874112,474.04657664" stroke="grey" stroke-width="5" fill="none" />
<circle cx="784.874112" cy="434.04657664" r="5" fill="black" stroke="none" />
<circle cx="784.874112" cy="474.04657664" r="5" fill="black" stroke="none" />
<path d="M784.874112,474.04657664 L737.3088721945307,478.3800023669796" stroke="grey" stroke-width="5" />
<circle cx="737.3088721945307" cy="478.3800023669796" r="2.5" fill="grey" stroke="none" />
<path d="M737.3088721945307,478.3800023669796 A238.29168076097812,238.29168076097812,0,0,0,736.874112,474.04657664" stroke="grey" stroke-width="5" fill="none" />
<circle cx="784.874112" cy="474.04657664" r="5" fill="black" stroke="none" />
<circle cx="736.874112" cy="474.04657664" r="5" fill="black" stroke="none" />
<path d="M736.874112,458.04657664 A240.56066733240476,240.56066733240476,0,0,1,738.4795734832466,468.4258381162584" stroke="grey" stroke-width="5" fill="none" />
<path d="M738.4795734832466,468.4258381162584 L316.87411199999997,-41.95342335999999" stroke="grey" stroke-width="5" />
<circle cx="738.4795734832466" cy="468.4258381162584" r="2.5" fill="grey" stroke="none" />
<circle cx="736.874112" cy="458.04657664" r="5" fill="black" stroke="none" />
<circle cx="816.874112" cy="458.04657664" r="5" fill="black" stroke="none" />
<circle cx="500" cy="500" r="5" fill="red" stroke="none" />
</svg>