<?xml version="1.0" encoding="UTF-8"?>
<svg xmlns="http://www.w3.org/2000/svg" xmlns:xlink="http://www.w3.org/1999/xlink"
     width="1000" height="1000" viewBox="0 0 1000 1000">
<defs>
</defs>
<rect x="0" y="0" width="1000" height="1000" fill="white" />
<path d="M329.25079949999997,249.03910223999992 L370.29154213128754,309.3592770069971" stroke="grey" stroke-width="5" />
<circle cx="370.29154213128754" cy="309.3592770069971" r="2.5" fill="grey" stroke="none" />
<path d="M370.29154213128754,309.3592770069971 A230.58223978870188,230.58223978870188,0,0,0,329.2507994999999,345.0391022399999" stroke="grey" stroke-width="5" fill="none" />
<circle cx="329.25079949999997" cy="249.03910223999992" r="5" fill="black" stroke="none" />
<circle cx="329.25079949999997" cy="345.0391022399999" r="5" fill="black" stroke="none" />
<path d="M329.25079949999997,345.0391022399999 L392.2085087532885,402.17543504996036" stroke="grey" stroke-width="5" />
<circle cx="392.2085087532885" cy="402.17543504996036" r="2.5" fill="grey" stroke="none" />
<path d="M392.2085087532885,402.17543504996036 A145.56322026135035,145.56322026135035,0,0,1,393.25079949999997,401.0391022399999" stroke="grey" stroke-width="5" fill="none" />
<circle cx="329.25079949999997" cy="345.0391022399999" r="5" fill="black" stroke="none" />
<circle cx="393.25079949999997" cy="401.0391022399999" r="5" fill="black" stroke="none" />
<path d="M305.25079949999997,401.0391022399999 L370.2298524841875,434.0579048969578" stroke="grey" stroke-width="5" />
<circle cx="370.2298524841875" cy="434.0579048969578" r="2.5" fill="grey" stroke="none" />
<path d="M370.2298524841875,434.0579048969578 A145.56322026135035,145.56322026135035,0,0,1,393.25079949999997,401.0391022399999" stroke="grey" stroke-width="5" fill="none" />
<circle cx="305.25079949999997" cy="401.0391022399999" r="5" fill="black" stroke="none" />
<circle cx="393.25079949999997" cy="401.0391022399999" r="5" fill="black" stroke="none" />
<path d="M393.25079949999997,401.0391022399999 L444.67549666348174,448.7119107903018" stroke="grey" stroke-width="5" />
<circle cx="444.67549666348174" cy="448.7119107903018" r="2.5" fill="grey" stroke="none" />
<path d="M444.67549666348174,448.7119107903018 A75.44049817050778,75.44049817050778,0,0,1,465.25079949999997,433.0391022399999" stroke="grey" stroke-width="5" fill="none" />
<circle cx="393.25079949999997" cy="401.0391022399999" r="5" fill="black" stroke="none" />
<circle cx="465.25079949999997" cy="433.0391022399999" r="5" fill="black" stroke="none" />
<path d="M465.25079949999997,433.0391022399999 L474.9882433207983,451.8029290546117" stroke="grey" stroke-width="5" />
<circle cx="474.9882433207983" cy="451.8029290546117" r="2.5" fill="grey" stroke="none" />
<path d="M474.9882433207983,451.8029290546117 A54.300512151308325,54.300512151308325,0,0,1,481.25079949999997,449.0391022399999" stroke="grey" stroke-width="5" fill="none" />
<circle cx="465.25079949999997" cy="433.0391022399999" r="5" fill="black" stroke="none" />
<circle cx="481.25079949999997" cy="449.0391022399999" r="5" fill="black" stroke="none" />
<path d="M481.25079949999997,449.0391022399999 L492.0127729217963,478.29047363815636" stroke="grey" stroke-width="5" />
<circle cx="492.0127729217963" cy="478.29047363815636" r="2.5" fill="grey" stroke="none" />
<path d="M492.0127729217963,478.29047363815636 A23.132214145091574,23.132214145091574,0,0,1,513.2507995,481.0391022399999" stroke="grey" stroke-width="5" fill="none" />
<circle cx="481.25079949999997" cy="449.0391022399999" r="5" fill="black" stroke="none" />
<circle cx="513.2507995" cy="481.0391022399999" r="5" fill="black" stroke="none" />
<path d="M481.25079949999997,449.0391022399999 A54.300512151308325,54.300512151308325,0,0,0,457.4867266285452,533.7811664561533" stroke="grey" stroke-width="5" fill="none" />
<path d="M457.4867266285452,533.7811664561533 L433.25079949999997,553.0391022399999" stroke="grey" stroke-width="5" />
<circle cx="457.4867266285452" cy="533.7811664561533" r="2.5" fill="grey" stroke="none" />
<circle cx="481.25079949999997" cy="449.0391022399999" r="5" fill="black" stroke="none" />
<circle cx="433.25079949999997" cy="553.0391022399999" r="5" fill="black" stroke="none" />
<path d="M433.25079949999997,553.0391022399999 A85.25609734097833,85.25609734097833,0,0,0,461.7671188626326,576.2026832450821" stroke="grey" stroke-width="5" fill="none" />
<path d="M461.7671188626326,576.2026832450821 L433.25079949999997,633.0391022399999" stroke="grey" stroke-width="5" />
<circle cx="461.7671188626326" cy="576.2026832450821" r="2.5" fill="grey" stroke="none" />
<circle cx="433.25079949999997" cy="553.0391022399999" r="5" fill="black" stroke="none" />
<circle cx="433.25079949999997" cy="633.0391022399999" r="5" fill="black" stroke="none" />
<path d="M329.25079949999997,649.0391022399999 L387.86347861739773,597.8787978288635" stroke="grey" stroke-width="5" />
<circle cx="387.86347861739773" cy="597.8787978288635" r="2.5" fill="grey" stroke="none" />
<path d="M387.86347861739773,597.8787978288635 A148.8450821902234,148.8450821902234,0,0,0,433.25079949999997,633.0391022399999" stroke="grey" stroke-width="5" fill="none" />
<circle cx="329.25079949999997" cy="649.0391022399999" r="5" fill="black" stroke="none" />
<circle cx="433.25079949999997" cy="633.0391022399999" r="5" fill="black" stroke="none" />
<path d="M433.25079949999997,633.0391022399999 A148.8450821902234,148.8450821902234,0,0,0,462.0348405192444,643.9218717145353" stroke="grey" stroke-width="5" fill="none" />
<path d="M462.0348405192444,643.9218717145353 L433.25079949999997,753.0391022399999" stroke="grey" stroke-width="5" />
<circle cx="462.0348405192444" cy="643.9218717145353" r="2.5" fill="grey" stroke="none" />
<circle cx="433.25079949999997" cy="633.0391022399999" r="5" fill="black" stroke="none" />
<circle cx="433.25079949999997" cy="753.0391022399999" r="5" fill="black" stroke="none" />
<path d="M433.25079949999997,553.0391022399999 L457.1980096286146,534.0105817954088" stroke="grey" stroke-width="5" />
<circle cx="457.1980096286146" cy="534.0105817954088" r="2.5" fill="grey" stroke="none" />
<path d="M457.1980096286146,534.0105817954088 A54.66927888507734,54.66927888507734,0,0,0,513.2507995,553.0391022399999" stroke="grey" stroke-width="5" fill="none" />
<circle cx="433.25079949999997" cy="553.0391022399999" r="5" fill="black" stroke="none" />
<circle cx="513.2507995" cy="553.0391022399999" r="5" fill="black" stroke="none" />
<path d="M513.2507995,481.0391022399999 A23.132214145091574,23.132214145091574,0,0,1,505.6068113185107,522.4424374365396" stroke="grey" stroke-width="5" fill="none" />
<path d="M505.6068113185107,522.4424374365396 L513.2507995,553.0391022399999" stroke="grey" stroke-width="5" />
<circle cx="505.6068113185107" cy="522.4424374365396" r="2.5" fill="grey" stroke="none" />
<circle cx="513.2507995" cy="481.0391022399999" r="5" fill="black" stroke="none" />
<circle cx="513.2507995" cy="553.0391022399999" r="5" fill="black" stroke="none" />
<path d="M513.2507995,553.0391022399999 A54.66927888507734,54.66927888507734,0,0,0,546.4187384753667,528.8795909280217" stroke="grey" stroke-width="5" fill="none" />
<path d="M546.4187384753667,528.8795909280217 L585.2507995,553.0391022399999" stroke="grey" stroke-width="5" />
<circle cx="546.4187384753667" cy="528.8795909280217" r="2.5" fill="grey" stroke="none" />
<circle cx="513.2507995" cy="553.0391022399999" r="5" fill="black" stroke="none" />
<circle cx="585.2507995" cy="553.0391022399999" r="5" fill="black" stroke="none" />
<path d="M513.2507995,481.0391022399999 A23.132214145091574,23.132214145091574,0,0,1,521.7919858228621,492.2405744316635" stroke="grey" stroke-width="5" fill="none" />
<path d="M521.7919858228621,492.2405744316635 L553.2507995,481.0391022399999" stroke="grey" stroke-width="5" />
<circle cx="521.7919858228621" cy="492.2405744316635" r="2.5" fill="grey" stroke="none" />
<circle cx="513.2507995" cy="481.0391022399999" r="5" fill="black" stroke="none" />
<circle cx="553.2507995" cy="481.0391022399999" r="5" fill="black" stroke="none" />
<path d="M585.2507995,553.0391022399999 A100.40341220204797,100.40341220204797,0,0,0,600.1202579021865,507.53519338929095" stroke="grey" stroke-width="5" fill="none" />
<path d="M600.1202579021865,507.53519338929095 L673.2507995,513.0391022399999" stroke="grey" stroke-width="5" />
<circle cx="600.1202579021865" cy="507.53519338929095" r="2.5" fill="grey" stroke="none" />
<circle cx="585.2507995" cy="553.0391022399999" r="5" fill="black" stroke="none" />
<circle cx="673.2507995" cy="513.0391022399999" r="5" fill="black" stroke="none" />
<path d="M553.2507995,481.0391022399999 A56.52577545911573,56.52577545911573,0,0,1,556.2664174070399,494.59134365751265" stroke="grey" stroke-width="5" fill="none" />
<path d="M556.2664174070399,494.59134365751265 L697.2507995,481.0391022399999" stroke="grey" stroke-width="5" />
<circle cx="556.2664174070399" cy="494.59134365751265" r="2.5" fill="grey" stroke="none" />
<circle cx="553.2507995" cy="481.0391022399999" r="5" fill="black" stroke="none" />
<circle cx="697.2507995" cy="481.0391022399999" r="5" fill="black" stroke="none" />
<path d="M673.2507995,513.0391022399999 A173.74077735124345,173.74077735124345,0,0,0,672.9435999712966,483.3756520854958" stroke="grey" stroke-width="5" fill="none" />
<path d="M672.9435999712966,483.3756520854958 L697.2507995,481.0391022399999" stroke="grey" stroke-width="5" />
<circle cx="672.9435999712966" cy="483.3756520854958" r="2.5" fill="grey" stroke="none" />
<circle cx="673.2507995" cy="513.0391022399999" r="5" fill="black" stroke="none" />
<circle cx="697.2507995" cy="481.0391022399999" r="5" fill="black" stroke="none" />
<path d="M433.25079949999997,633.0391022399999 L435.73722664162074,628.0833569692172" stroke="grey" stroke-width="5" />
<circle cx="435.73722664162074" cy="628.0833569692172" r="2.5" fill="grey" stroke="none" />
<path d="M435.73722664162074,628.0833569692172 A143.3005595669966,143.3005595669966,0,0,0,553.2507995,633.0391022399999" stroke="grey" stroke-width="5" fill="none" />
<circle cx="433.25079949999997" cy="633.0391022399999" r="5" fill="black" stroke="none" />
<circle cx="553.2507995" cy="633.0391022399999" r="5" fill="black" stroke="none" />
<path d="M553.2507995,633.0391022399999 A143.3005595669966,143.3005595669966,0,0,0,639.0817457655156,534.5154801072044" stroke="grey" stroke-width="5" fill="none" />
<path d="M639.0817457655156,534.5154801072044 L649.2507995,537.0391022399999" stroke="grey" stroke-width="5" />
<circle cx="639.0817457655156" cy="534.5154801072044" r="2.5" fill="grey" stroke="none" />
<circle cx="553.2507995" cy="633.0391022399999" r="5" fill="black" stroke="none" />
<circle cx="649.2507995" cy="537.0391022399999" r="5" fill="black" stroke="none" />
<path d="M649.2507995,537.0391022399999 A153.7780746599929,153.7780746599929,0,0,0,653.3443949462321,511.54091784514304" stroke="grey" stroke-width="5" fill="none" />
<path d="M653.3443949462321,511.54091784514304 L673.2507995,513.0391022399999" stroke="grey" stroke-width="5" />
<circle cx="653.3443949462321" cy="511.54091784514304" r="2.5" fill="grey" stroke="none" />
<circle cx="649.2507995" cy="537.0391022399999" r="5" fill="black" stroke="none" />
<circle cx="673.2507995" cy="513.0391022399999" r="5" fill="black" stroke="none" />
<path d="M673.2507995,513.0391022399999 A173.74077735124345,173.74077735124345,0,0,1,669.9014251127859,536.3230430891845" stroke="grey" stroke-width="5" fill="none" />
<path d="M669.9014251127859,536.3230430891845 L673.2507995,537.0391022399999" stroke="grey" stroke-width="5" />
<circle cx="669.9014251127859" cy="536.3230430891845" r="2.5" fill="grey" stroke="none" />
<circle cx="673.2507995" cy="513.0391022399999" r="5" fill="black" stroke="none" />
<circle cx="673.2507995" cy="537.0391022399999" r="5" fill="black" stroke="none" />
<path d="M673.2507994999999,537.0391022399999 A177.16583932049187,177.16583932049187,0,0,1,611.7802932584622,637.4514483779146" stroke="grey" stroke-width="5" fill="none" />
<path d="M611.7802932584622,637.4514483779146 L673.2507995,713.0391022399999" stroke="grey" stroke-width="5" />
<circle cx="611.7802932584622" cy="637.4514483779146" r="2.5" fill="grey" stroke="none" />
<circle cx="673.2507995" cy="537.0391022399999" r="5" fill="black" stroke="none" />
<circle cx="673.2507995" cy="713.0391022399999" r="5" fill="black" stroke="none" />
<path d="M673.2507995,713.0391022399999 A274.59333315034127,274.59333315034127,0,0,0,715.3395907791355,670.382978180594" stroke="grey" stroke-width="5" fill="none" />
<path d="M715.3395907791355,670.382978180594 L769.2507995,713.0391022399999" stroke="grey" stroke-width="5" />
<circle cx="715.3395907791355" cy="670.382978180594" r="2.5" fill="grey" stroke="none" />
<circle cx="673.2507995" cy="713.0391022399999" r="5" fill="black" stroke="none" />
<circle cx="769.2507995" cy="713.0391022399999" r="5" fill="black" stroke="none" />
<path d="M673.2507995,713.0391022399999 A274.59333315034127,274.59333315034127,0,0,1,651.8462389972262,728.7885886861745" stroke="grey" stroke-width="5" fill="none" />
<path d="M651.8462389972262,728.7885886861745 L673.2507995,761.0391022399999" stroke="grey" stroke-width="5" />
<circle cx="651.8462389972262" cy="728.7885886861745" r="2.5" fill="grey" stroke="none" />
<circle cx="673.2507995" cy="713.0391022399999" r="5" fill="black" stroke="none" />
<circle cx="673.2507995" cy="761.0391022399999" r="5" fill="black" stroke="none" />
<path d="M361.25079949999997,337.0391022399999 L388.8586701657677,369.46453873060864" stroke="grey" stroke-width="5" />
<circle cx="388.8586701657677" cy="369.46453873060864" r="2.5" fill="grey" stroke="none" />
<path d="M388.85867016576776,369.4645387306086 A171.4406656722214,171.4406656722214,0,0,1,553.2507995,337.0391022399999" stroke="grey" stroke-width="5" fill="none" />
<circle cx="361.25079949999997" cy="337.0391022399999" r="5" fill="black" stroke="none" />
<circle cx="553.2507995" cy="337.0391022399999" r="5" fill="black" stroke="none" />
<path d="M553.2507995,337.0391022399999 L517.557343957765,446.2700924586399" stroke="grey" stroke-width="5" />
<circle cx="517.557343957765" cy="446.2700924586399" r="2.5" fill="grey" stroke="none" />
<path d="M517.557343957765,446.2700924586399 A56.52577545911573,56.52577545911573,0,0,1,553.2507995,481.0391022399999" stroke="grey" stroke-width="5" fill="none" />
<circle cx="553.2507995" cy="337.0391022399999" r="5" fill="black" stroke="none" />
<circle cx="553.2507995" cy="481.0391022399999" r="5" fill="black" stroke="none" />
<path d="M553.2507995,337.0391022399999 A171.4406656722214,171.4406656722214,0,0,0,536.7041526668909,332.53446019213396" stroke="grey" stroke-width="5" fill="none" />
<path d="M536.704152666891,332.534460192134 L553.2507995,257.0391022399999" stroke="grey" stroke-width="5" />
<circle cx="536.704152666891" cy="332.534460192134" r="2.5" fill="grey" stroke="none" />
<circle cx="553.2507995" cy="337.0391022399999" r="5" fill="black" stroke="none" />
<circle cx="553.2507995" cy="257.0391022399999" r="5" fill="black" stroke="none" />
<path d="M553.2507994999999,257.0391022399999 A248.72805528877197,248.72805528877197,0,0,0,543.6168406637968,255.12612083310444" stroke="grey" stroke-width="5" fill="none" />
<path d="M543.6168406637968,255.12612083310444 L553.2507995,201.03910223999992" stroke="grey" stroke-width="5" />
<circle cx="543.6168406637968" cy="255.12612083310444" r="2.5" fill="grey" stroke="none" />
<circle cx="553.2507995" cy="257.0391022399999" r="5" fill="black" stroke="none" />
<circle cx="553.2507995" cy="201.03910223999992" r="5" fill="black" stroke="none" />
<path d="M553.2507995,257.0391022399999 L544.8437106818892,295.3970962227237" stroke="grey" stroke-width="5" />
<circle cx="544.8437106818892" cy="295.3970962227237" r="2.5" fill="grey" stroke="none" />
<path d="M544.8437106818892,295.3970962227237 A209.4595584398439,209.4595584398439,0,0,1,649.2507995,353.0391022399999" stroke="grey" stroke-width="5" fill="none" />
<circle cx="553.2507995" cy="257.0391022399999" r="5" fill="black" stroke="none" />
<circle cx="649.2507995" cy="353.0391022399999" r="5" fill="black" stroke="none" />
<path d="M553.2507995,337.0391022399999 A171.4406656722214,171.4406656722214,0,0,1,622.1603664639632,379.7138964321954" stroke="grey" stroke-width="5" fill="none" />
<path d="M622.1603664639632,379.7138964321954 L649.2507995,353.0391022399999" stroke="grey" stroke-width="5" />
<circle cx="622.1603664639632" cy="379.7138964321954" r="2.5" fill="grey" stroke="none" />
<circle cx="553.2507995" cy="337.0391022399999" r="5" fill="black" stroke="none" />
<circle cx="649.2507995" cy="353.0391022399999" r="5" fill="black" stroke="none" />
<path d="M649.2507995,353.0391022399999 A209.4595584398439,209.4595584398439,0,0,1,695.7975121713419,425.59139263950954" stroke="grey" stroke-width="5" fill="none" />
<path d="M695.7975121713419,425.59139263950954 L697.2507995,425.0391022399999" stroke="grey" stroke-width="5" />
<circle cx="695.7975121713419" cy="425.59139263950954" r="2.5" fill="grey" stroke="none" />
<circle cx="649.2507995" cy="353.0391022399999" r="5" fill="black" stroke="none" />
<circle cx="697.2507995" cy="425.0391022399999" r="5" fill="black" stroke="none" />
<path d="M649.2507995,537.0391022399999 A153.7780746599929,153.7780746599929,0,0,0,650.3798615048972,532.14954898443" stroke="grey" stroke-width="5" fill="none" />
<path d="M650.3798615048972,532.1495489844301 L673.2507995,537.0391022399999" stroke="grey" stroke-width="5" />
<circle cx="650.3798615048972" cy="532.1495489844301" r="2.5" fill="grey" stroke="none" />
<circle cx="649.2507995" cy="537.0391022399999" r="5" fill="black" stroke="none" />
<circle cx="673.2507995" cy="537.0391022399999" r="5" fill="black" stroke="none" />
<path d="M673.2507994999999,537.0391022399999 A177.16583932049187,177.16583932049187,0,0,0,674.1226431414794,532.6961735920177" stroke="grey" stroke-width="5" fill="none" />
<path d="M674.1226431414794,532.6961735920177 L697.2507995,537.0391022399999" stroke="grey" stroke-width="5" />
<circle cx="674.1226431414794" cy="532.6961735920177" r="2.5" fill="grey" stroke="none" />
<circle cx="673.2507995" cy="537.0391022399999" r="5" fill="black" stroke="none" />
<circle cx="697.2507995" cy="537.0391022399999" r="5" fill="black" stroke="none" />
<path d="M697.2507995,537.0391022399999 L694.7562046321627,536.5706754726996" stroke="grey" stroke-width="5" />
<circle cx="694.7562046321627" cy="536.5706754726996" r="2.5" fill="grey" stroke="none" />
<path d="M694.7562046321627,536.5706754726996 A198.16002005261896,198.16002005261896,0,0,0,697.2507995,481.0391022399999" stroke="grey" stroke-width="5" fill="none" />
<circle cx="697.2507995" cy="537.0391022399999" r="5" fill="black" stroke="none" />
<circle cx="697.2507995" cy="481.0391022399999" r="5" fill="black" stroke="none" />
<path d="M697.2507995,481.0391022399999 A198.16002005261896,198.16002005261896,0,0,0,695.1189543754874,465.4169522645735" stroke="grey" stroke-width="5" fill="none" />
<path d="M695.1189543754874,465.4169522645735 L697.2507995,465.0391022399999" stroke="grey" stroke-width="5" />
<circle cx="695.1189543754874" cy="465.4169522645735" r="2.5" fill="grey" stroke="none" />
<circle cx="697.2507995" cy="481.0391022399999" r="5" fill="black" stroke="none" />
<circle cx="697.2507995" cy="465.0391022399999" r="5" fill="black" stroke="none" />
<path d="M697.2507995,465.0391022399999 A200.3250914777636,200.3250914777636,0,0,0,693.9565645388303,449.8901871100188" stroke="grey" stroke-width="5" fill="none" />
<path d="M693.9565645388303,449.8901871100188 L697.2507995,449.0391022399999" stroke="grey" stroke-width="5" />
<circle cx="693.9565645388303" cy="449.8901871100188" r="2.5" fill="grey" stroke="none" />
<circle cx="697.2507995" cy="465.0391022399999" r="5" fill="black" stroke="none" />
<circle cx="697.2507995" cy="449.0391022399999" r="5" fill="black" stroke="none" />
<path d="M697.2507995,449.0391022399999 A203.72749201787755,203.72749201787755,0,0,0,690.4393210561618,427.6276572193322" stroke="grey" stroke-width="5" fill="none" />
<path d="M690.4393210561618,427.62765721933215 L697.2507995,425.0391022399999" stroke="grey" stroke-width="5" />
<circle cx="690.4393210561618" cy="427.62765721933215" r="2.5" fill="grey" stroke="none" />
<circle cx="697.2507995" cy="449.0391022399999" r="5" fill="black" stroke="none" />
<circle cx="697.2507995" cy="425.0391022399999" r="5" fill="black" stroke="none" />
<path d="M697.2507995,425.0391022399999 A211.0142509319557,211.0142509319557,0,0,1,701.7984855081589,438.32030039804226" stroke="grey" stroke-width="5" fill="none" />
<path d="M701.7984855081589,438.32030039804226 L745.2507995,425.0391022399999" stroke="grey" stroke-width="5" />
<circle cx="701.7984855081589" cy="438.32030039804226" r="2.5" fill="grey" stroke="none" />
<circle cx="697.2507995" cy="425.0391022399999" r="5" fill="black" stroke="none" />
<circle cx="745.2507995" cy="425.0391022399999" r="5" fill="black" stroke="none" />
<path d="M745.2507995,425.0391022399999 L736.9108509381851,427.5882072082219" stroke="grey" stroke-width="5" />
<circle cx="736.9108509381851" cy="427.5882072082219" r="2.5" fill="grey" stroke="none" />
<path d="M736.9108509381851,427.5882072082219 A247.73013346699338,247.73013346699338,0,0,1,745.2507995,465.0391022399999" stroke="grey" stroke-width="5" fill="none" />
<circle cx="745.2507995" cy="425.0391022399999" r="5" fill="black" stroke="none" />
<circle cx="745.2507995" cy="465.0391022399999" r="5" fill="black" stroke="none" />
<path d="M745.2507995,465.0391022399999 L698.3201968902908,471.72913547535836" stroke="grey" stroke-width="5" />
<circle cx="698.3201968902908" cy="471.72913547535836" r="2.5" fill="grey" stroke="none" />
<path d="M698.3201968902908,471.72913547535836 A200.3250914777636,200.3250914777636,0,0,0,697.2507995,465.0391022399999" stroke="grey" stroke-width="5" fill="none" />
<circle cx="745.2507995" cy="465.0391022399999" r="5" fill="black" stroke="none" />
<circle cx="697.2507995" cy="465.0391022399999" r="5" fill="black" stroke="none" />
<path d="M697.2507995,449.0391022399999 A203.72749201787755,203.72749201787755,0,0,1,700.3708084461985,463.170254867686" stroke="grey" stroke-width="5" fill="none" />
<path d="M700.3708084461985,463.170254867686 L777.2507995,449.0391022399999" stroke="grey" stroke-width="5" />
<circle cx="700.3708084461985" cy="463.170254867686" r="2.5" fill="grey" stroke="none" />
<circle cx="697.2507995" cy="449.0391022399999" r="5" fill="black" stroke="none" />
<circle cx="777.2507995" cy="449.0391022399999" r="5" fill="black" stroke="none" />
<circle cx="500" cy="500" r="5" fill="red" stroke="none" />
</svg>