<?xml version="1.0" encoding="UTF-8"?>
<svg xmlns="http://www.w3.org/2000/svg" xmlns:xlink="http://www.w3.org/1999/xlink"
     width="1000" height="1000" viewBox="0 0 1000 1000">
<defs>
</defs>
<rect x="0" y="0" width="1000" height="1000" fill="white" />
<path d="M352.746112,252.90220543999993 L391.99201829686245,318.7583741508942" stroke="grey" stroke-width="5" />
<circle cx="391.99201829686245" cy="318.7583741508942" r="2.5" fill="grey" stroke="none" />
<path d="M391.99201829686245,318.7583741508942 A210.98400662612448,210.98400662612448,0,0,0,352.74611200000004,348.9022054399999" stroke="grey" stroke-width="5" fill="none" />
<circle cx="352.746112" cy="252.90220543999993" r="5" fill="black" stroke="none" />
<circle cx="352.746112" cy="348.90220543999993" r="5" fill="black" stroke="none" />
<path d="M352.746112,348.90220543999993 L411.78651999374574,409.48380066265094" stroke="grey" stroke-width="5" />
<circle cx="411.78651999374574" cy="409.48380066265094" r="2.5" fill="grey" stroke="none" />
<path d="M411.7865199937458,409.4838006626509 A126.39145697907168,126.39145697907168,0,0,1,416.74611200000004,404.9022054399999" stroke="grey" stroke-width="5" fill="none" />
<circle cx="352.746112" cy="348.90220543999993" r="5" fill="black" stroke="none" />
<circle cx="416.746112" cy="404.90220543999993" r="5" fill="black" stroke="none" />
<path d="M328.746112,404.90220543999993 L389.5021421749513,438.6402101261107" stroke="grey" stroke-width="5" />
<circle cx="389.5021421749513" cy="438.6402101261107" r="2.5" fill="grey" stroke="none" />
<path d="M389.50214217495125,438.64021012611073 A126.39145697907168,126.39145697907168,0,0,1,416.74611200000004,404.9022054399999" stroke="grey" stroke-width="5" fill="none" />
<circle cx="328.746112" cy="404.90220543999993" r="5" fill="black" stroke="none" />
<circle cx="416.746112" cy="404.90220543999993" r="5" fill="black" stroke="none" />
<path d="M416.746112,404.90220543999993 L457.7816697366709,451.7755843661223" stroke="grey" stroke-width="5" />
<circle cx="457.7816697366709" cy="451.7755843661223" r="2.5" fill="grey" stroke="none" />
<path d="M457.7816697366709,451.7755843661223 A64.0935384688076,64.0935384688076,0,0,1,488.746112,436.90220543999993" stroke="grey" stroke-width="5" fill="none" />
<circle cx="416.746112" cy="404.90220543999993" r="5" fill="black" stroke="none" />
<circle cx="488.746112" cy="436.90220543999993" r="5" fill="black" stroke="none" />
<path d="M488.746112,436.90220543999993 L491.6884333044647,453.39908058205094" stroke="grey" stroke-width="5" />
<circle cx="491.6884333044647" cy="453.39908058205094" r="2.5" fill="grey" stroke="none" />
<path d="M491.6884333044647,453.39908058205094 A47.336326764257024,47.336326764257024,0,0,1,504.746112,452.90220543999993" stroke="grey" stroke-width="5" fill="none" />
<circle cx="488.746112" cy="436.90220543999993" r="5" fill="black" stroke="none" />
<circle cx="504.746112" cy="452.90220543999993" r="5" fill="black" stroke="none" />
<path d="M504.746112,452.90220543999993 L503.9831551211567,460.4733681807656" stroke="grey" stroke-width="5" />
<circle cx="503.9831551211567" cy="460.4733681807656" r="2.5" fill="grey" stroke="none" />
<path d="M503.9831551211567,460.4733681807656 A39.72681899790758,39.72681899790758,0,0,1,536.746112,484.90220543999993" stroke="grey" stroke-width="5" fill="none" />
<circle cx="504.746112" cy="452.90220543999993" r="5" fill="black" stroke="none" />
<circle cx="536.746112" cy="484.90220543999993" r="5" fill="black" stroke="none" />
<path d="M504.746112,452.90220543999993 A47.336326764257024,47.336326764257024,0,0,0,471.35413352709736,537.6847736565996" stroke="grey" stroke-width="5" fill="none" />
<path d="M471.35413352709736,537.6847736565996 L456.746112,556.90220544" stroke="grey" stroke-width="5" />
<circle cx="471.35413352709736" cy="537.6847736565996" r="2.5" fill="grey" stroke="none" />
<circle cx="504.746112" cy="452.90220543999993" r="5" fill="black" stroke="none" />
<circle cx="456.746112" cy="556.90220544" r="5" fill="black" stroke="none" />
<path d="M456.746112,556.90220544 A71.47558891714361,71.47558891714361,0,0,0,478.4666745107069,568.1547922337429" stroke="grey" stroke-width="5" fill="none" />
<path d="M478.4666745107069,568.1547922337429 L456.746112,636.90220544" stroke="grey" stroke-width="5" />
<circle cx="478.4666745107069" cy="568.1547922337429" r="2.5" fill="grey" stroke="none" />
<circle cx="456.746112" cy="556.90220544" r="5" fill="black" stroke="none" />
<circle cx="456.746112" cy="636.90220544" r="5" fill="black" stroke="none" />
<path d="M352.746112,652.90220544 L400.40684026595653,603.4133222348156" stroke="grey" stroke-width="5" />
<circle cx="400.40684026595653" cy="603.4133222348156" r="2.5" fill="grey" stroke="none" />
<path d="M400.4068402659566,603.4133222348156 A143.57267386746162,143.57267386746162,0,0,0,456.7461119999999,636.90220544" stroke="grey" stroke-width="5" fill="none" />
<circle cx="352.746112" cy="652.90220544" r="5" fill="black" stroke="none" />
<circle cx="456.746112" cy="636.90220544" r="5" fill="black" stroke="none" />
<path d="M456.7461119999999,636.90220544 A143.57267386746162,143.57267386746162,0,0,0,476.1625848108821,641.5799785229328" stroke="grey" stroke-width="5" fill="none" />
<path d="M476.1625848108821,641.5799785229328 L456.746112,756.90220544" stroke="grey" stroke-width="5" />
<circle cx="476.1625848108821" cy="641.5799785229328" r="2.5" fill="grey" stroke="none" />
<circle cx="456.746112" cy="636.90220544" r="5" fill="black" stroke="none" />
<circle cx="456.746112" cy="756.90220544" r="5" fill="black" stroke="none" />
<path d="M456.746112,556.90220544 L459.0092719316767,553.9249287758572" stroke="grey" stroke-width="5" />
<circle cx="459.0092719316767" cy="553.9249287758572" r="2.5" fill="grey" stroke="none" />
<path d="M459.0092719316767,553.9249287758572 A67.73579357365277,67.73579357365277,0,0,0,536.7461119999999,556.90220544" stroke="grey" stroke-width="5" fill="none" />
<circle cx="456.746112" cy="556.90220544" r="5" fill="black" stroke="none" />
<circle cx="536.746112" cy="556.90220544" r="5" fill="black" stroke="none" />
<path d="M536.746112,484.90220543999993 A39.72681899790758,39.72681899790758,0,0,1,521.5514732061641,533.3729553731237" stroke="grey" stroke-width="5" fill="none" />
<path d="M521.5514732061641,533.3729553731237 L536.746112,556.90220544" stroke="grey" stroke-width="5" />
<circle cx="521.5514732061641" cy="533.3729553731237" r="2.5" fill="grey" stroke="none" />
<circle cx="536.746112" cy="484.90220543999993" r="5" fill="black" stroke="none" />
<circle cx="536.746112" cy="556.90220544" r="5" fill="black" stroke="none" />
<path d="M536.7461119999999,556.90220544 A67.73579357365277,67.73579357365277,0,0,0,560.0161170132043,531.4038760300361" stroke="grey" stroke-width="5" fill="none" />
<path d="M560.0161170132043,531.4038760300361 L608.746112,556.90220544" stroke="grey" stroke-width="5" />
<circle cx="560.0161170132043" cy="531.4038760300361" r="2.5" fill="grey" stroke="none" />
<circle cx="536.746112" cy="556.90220544" r="5" fill="black" stroke="none" />
<circle cx="608.746112" cy="556.90220544" r="5" fill="black" stroke="none" />
<path d="M536.746112,484.90220543999993 A39.72681899790758,39.72681899790758,0,0,1,538.979715455629,492.33175830514585" stroke="grey" stroke-width="5" fill="none" />
<path d="M538.979715455629,492.33175830514585 L576.746112,484.90220543999993" stroke="grey" stroke-width="5" />
<circle cx="538.979715455629" cy="492.33175830514585" r="2.5" fill="grey" stroke="none" />
<circle cx="536.746112" cy="484.90220543999993" r="5" fill="black" stroke="none" />
<circle cx="576.746112" cy="484.90220543999993" r="5" fill="black" stroke="none" />
<path d="M608.746112,556.90220544 A122.73376821010793,122.73376821010793,0,0,0,622.2833533806445,510.5052056161179" stroke="grey" stroke-width="5" fill="none" />
<path d="M622.2833533806445,510.5052056161179 L696.746112,516.90220544" stroke="grey" stroke-width="5" />
<circle cx="622.2833533806445" cy="510.5052056161179" r="2.5" fill="grey" stroke="none" />
<circle cx="608.746112" cy="556.90220544" r="5" fill="black" stroke="none" />
<circle cx="696.746112" cy="516.90220544" r="5" fill="black" stroke="none" />
<path d="M576.7461119999999,484.90220543999993 A78.21706404418737,78.21706404418737,0,0,1,578.0347618003996,494.6628604620634" stroke="grey" stroke-width="5" fill="none" />
<path d="M578.0347618003996,494.6628604620634 L720.746112,484.90220543999993" stroke="grey" stroke-width="5" />
<circle cx="578.0347618003996" cy="494.6628604620634" r="2.5" fill="grey" stroke="none" />
<circle cx="576.746112" cy="484.90220543999993" r="5" fill="black" stroke="none" />
<circle cx="720.746112" cy="484.90220543999993" r="5" fill="black" stroke="none" />
<path d="M696.746112,516.90220544 A197.4708007170997,197.4708007170997,0,0,0,697.0105511476073,486.5255845259057" stroke="grey" stroke-width="5" fill="none" />
<path d="M697.0105511476073,486.5255845259057 L720.746112,484.90220543999993" stroke="grey" stroke-width="5" />
<circle cx="697.0105511476073" cy="486.5255845259057" r="2.5" fill="grey" stroke="none" />
<circle cx="696.746112" cy="516.90220544" r="5" fill="black" stroke="none" />
<circle cx="720.746112" cy="484.90220543999993" r="5" fill="black" stroke="none" />
<path d="M456.7461119999999,636.90220544 A143.57267386746162,143.57267386746162,0,0,0,570.2064075591013,625.236468407161" stroke="grey" stroke-width="5" fill="none" />
<path d="M570.2064075591013,625.236468407161 L576.746112,636.90220544" stroke="grey" stroke-width="5" />
<circle cx="570.2064075591013" cy="625.236468407161" r="2.5" fill="grey" stroke="none" />
<circle cx="456.746112" cy="636.90220544" r="5" fill="black" stroke="none" />
<circle cx="576.746112" cy="636.90220544" r="5" fill="black" stroke="none" />
<path d="M576.746112,636.9022054399999 A156.94642258252492,156.94642258252492,0,0,0,652.7237195479954,536.1613750966102" stroke="grey" stroke-width="5" fill="none" />
<path d="M652.7237195479954,536.1613750966102 L672.746112,540.90220544" stroke="grey" stroke-width="5" />
<circle cx="652.7237195479954" cy="536.1613750966102" r="2.5" fill="grey" stroke="none" />
<circle cx="576.746112" cy="636.90220544" r="5" fill="black" stroke="none" />
<circle cx="672.746112" cy="540.90220544" r="5" fill="black" stroke="none" />
<path d="M672.746112,540.90220544 A177.52242005158814,177.52242005158814,0,0,0,676.8709389496913,515.1947548853894" stroke="grey" stroke-width="5" fill="none" />
<path d="M676.8709389496913,515.1947548853894 L696.746112,516.90220544" stroke="grey" stroke-width="5" />
<circle cx="676.8709389496913" cy="515.1947548853894" r="2.5" fill="grey" stroke="none" />
<circle cx="672.746112" cy="540.90220544" r="5" fill="black" stroke="none" />
<circle cx="696.746112" cy="516.90220544" r="5" fill="black" stroke="none" />
<path d="M696.746112,516.90220544 A197.4708007170997,197.4708007170997,0,0,1,693.3370154509366,540.1934769878993" stroke="grey" stroke-width="5" fill="none" />
<path d="M693.3370154509366,540.1934769878993 L696.746112,540.90220544" stroke="grey" stroke-width="5" />
<circle cx="693.3370154509366" cy="540.1934769878993" r="2.5" fill="grey" stroke="none" />
<circle cx="696.746112" cy="516.90220544" r="5" fill="black" stroke="none" />
<circle cx="696.746112" cy="540.90220544" r="5" fill="black" stroke="none" />
<path d="M696.746112,540.90220544 A200.95278798009375,200.95278798009375,0,0,1,635.010937042316,648.8424330489404" stroke="grey" stroke-width="5" fill="none" />
<path d="M635.010937042316,648.8424330489404 L696.746112,716.90220544" stroke="grey" stroke-width="5" />
<circle cx="635.010937042316" cy="648.8424330489404" r="2.5" fill="grey" stroke="none" />
<circle cx="696.746112" cy="540.90220544" r="5" fill="black" stroke="none" />
<circle cx="696.746112" cy="716.90220544" r="5" fill="black" stroke="none" />
<path d="M696.746112,716.90220544 A292.84056978474223,292.84056978474223,0,0,0,735.2936800647859,674.3344011760806" stroke="grey" stroke-width="5" fill="none" />
<path d="M735.2936800647859,674.3344011760806 L792.746112,716.90220544" stroke="grey" stroke-width="5" />
<circle cx="735.2936800647859" cy="674.3344011760806" r="2.5" fill="grey" stroke="none" />
<circle cx="696.746112" cy="716.90220544" r="5" fill="black" stroke="none" />
<circle cx="792.746112" cy="716.90220544" r="5" fill="black" stroke="none" />
<path d="M696.746112,716.90220544 A292.84056978474223,292.84056978474223,0,0,1,674.6059087349918,735.0922711334429" stroke="grey" stroke-width="5" fill="none" />
<path d="M674.6059087349919,735.0922711334428 L696.746112,764.90220544" stroke="grey" stroke-width="5" />
<circle cx="674.6059087349919" cy="735.0922711334428" r="2.5" fill="grey" stroke="none" />
<circle cx="696.746112" cy="716.90220544" r="5" fill="black" stroke="none" />
<circle cx="696.746112" cy="764.90220544" r="5" fill="black" stroke="none" />
<path d="M384.746112,340.90220543999993 L396.3716451943866,356.9502253715357" stroke="grey" stroke-width="5" />
<circle cx="396.3716451943866" cy="356.9502253715357" r="2.5" fill="grey" stroke="none" />
<path d="M396.3716451943866,356.9502253715357 A176.6410879183338,176.6410879183338,0,0,1,576.7461119999999,340.9022054399999" stroke="grey" stroke-width="5" fill="none" />
<circle cx="384.746112" cy="340.90220543999993" r="5" fill="black" stroke="none" />
<circle cx="576.746112" cy="340.90220543999993" r="5" fill="black" stroke="none" />
<path d="M576.746112,340.90220543999993 L533.9833479751985,429.5511450193186" stroke="grey" stroke-width="5" />
<circle cx="533.9833479751985" cy="429.5511450193186" r="2.5" fill="grey" stroke="none" />
<path d="M533.9833479751985,429.5511450193186 A78.21706404418737,78.21706404418737,0,0,1,576.7461119999999,484.90220543999993" stroke="grey" stroke-width="5" fill="none" />
<circle cx="576.746112" cy="340.90220543999993" r="5" fill="black" stroke="none" />
<circle cx="576.746112" cy="484.90220543999993" r="5" fill="black" stroke="none" />
<path d="M576.7461119999999,340.9022054399999 A176.6410879183338,176.6410879183338,0,0,0,553.9857300085529,331.8107765152114" stroke="grey" stroke-width="5" fill="none" />
<path d="M553.9857300085529,331.8107765152114 L576.746112,260.90220543999993" stroke="grey" stroke-width="5" />
<circle cx="553.9857300085529" cy="331.8107765152114" r="2.5" fill="grey" stroke="none" />
<circle cx="576.746112" cy="340.90220543999993" r="5" fill="black" stroke="none" />
<circle cx="576.746112" cy="260.90220543999993" r="5" fill="black" stroke="none" />
<path d="M576.7461119999999,260.90220543999993 A251.11296476003093,251.11296476003093,0,0,0,563.2044792634749,256.97137026349037" stroke="grey" stroke-width="5" fill="none" />
<path d="M563.2044792634749,256.97137026349037 L576.746112,204.90220543999993" stroke="grey" stroke-width="5" />
<circle cx="563.2044792634749" cy="256.97137026349037" r="2.5" fill="grey" stroke="none" />
<circle cx="576.746112" cy="260.90220543999993" r="5" fill="black" stroke="none" />
<circle cx="576.746112" cy="204.90220543999993" r="5" fill="black" stroke="none" />
<path d="M576.746112,260.90220543999993 L568.5566815277173,286.41587269424804" stroke="grey" stroke-width="5" />
<circle cx="568.5566815277173" cy="286.41587269424804" r="2.5" fill="grey" stroke="none" />
<path d="M568.5566815277173,286.41587269424804 A224.317181729471,224.317181729471,0,0,1,672.746112,356.90220543999993" stroke="grey" stroke-width="5" fill="none" />
<circle cx="576.746112" cy="260.90220543999993" r="5" fill="black" stroke="none" />
<circle cx="672.746112" cy="356.90220543999993" r="5" fill="black" stroke="none" />
<path d="M576.7461119999999,340.9022054399999 A176.6410879183338,176.6410879183338,0,0,1,636.0308689779396,387.3160320805166" stroke="grey" stroke-width="5" fill="none" />
<path d="M636.0308689779396,387.3160320805166 L672.746112,356.90220543999993" stroke="grey" stroke-width="5" />
<circle cx="636.0308689779396" cy="387.3160320805166" r="2.5" fill="grey" stroke="none" />
<circle cx="576.746112" cy="340.90220543999993" r="5" fill="black" stroke="none" />
<circle cx="672.746112" cy="356.90220543999993" r="5" fill="black" stroke="none" />
<path d="M672.746112,356.90220543999993 A224.317181729471,224.317181729471,0,0,1,713.5158374294156,431.23092856619394" stroke="grey" stroke-width="5" fill="none" />
<path d="M713.5158374294156,431.23092856619394 L720.746112,428.90220543999993" stroke="grey" stroke-width="5" />
<circle cx="713.5158374294156" cy="431.23092856619394" r="2.5" fill="grey" stroke="none" />
<circle cx="672.746112" cy="356.90220543999993" r="5" fill="black" stroke="none" />
<circle cx="720.746112" cy="428.90220543999993" r="5" fill="black" stroke="none" />
<path d="M672.746112,540.90220544 A177.52242005158814,177.52242005158814,0,0,0,673.8062272688679,536.1331562907965" stroke="grey" stroke-width="5" fill="none" />
<path d="M673.8062272688679,536.1331562907965 L696.746112,540.90220544" stroke="grey" stroke-width="5" />
<circle cx="673.8062272688679" cy="536.1331562907965" r="2.5" fill="grey" stroke="none" />
<circle cx="672.746112" cy="540.90220544" r="5" fill="black" stroke="none" />
<circle cx="696.746112" cy="540.90220544" r="5" fill="black" stroke="none" />
<path d="M696.746112,540.90220544 A200.95278798009375,200.95278798009375,0,0,0,697.5895257872297,536.611504969752" stroke="grey" stroke-width="5" fill="none" />
<path d="M697.5895257872297,536.611504969752 L720.746112,540.90220544" stroke="grey" stroke-width="5" />
<circle cx="697.5895257872297" cy="536.611504969752" r="2.5" fill="grey" stroke="none" />
<circle cx="696.746112" cy="540.90220544" r="5" fill="black" stroke="none" />
<circle cx="720.746112" cy="540.90220544" r="5" fill="black" stroke="none" />
<path d="M720.746112,540.90220544 L717.5586460333657,540.3115975845815" stroke="grey" stroke-width="5" />
<circle cx="717.5586460333657" cy="540.3115975845815" r="2.5" fill="grey" stroke="none" />
<path d="M717.5586460333657,540.3115975845815 A221.26181180604237,221.26181180604237,0,0,0,720.746112,484.90220543999993" stroke="grey" stroke-width="5" fill="none" />
<circle cx="720.746112" cy="540.90220544" r="5" fill="black" stroke="none" />
<circle cx="720.746112" cy="484.90220543999993" r="5" fill="black" stroke="none" />
<path d="M720.746112,484.90220543999993 A221.26181180604237,221.26181180604237,0,0,0,719.0983793887256,469.1343311602265" stroke="grey" stroke-width="5" fill="none" />
<path d="M719.0983793887256,469.13433116022657 L720.746112,468.90220543999993" stroke="grey" stroke-width="5" />
<circle cx="719.0983793887256" cy="469.13433116022657" r="2.5" fill="grey" stroke="none" />
<circle cx="720.746112" cy="484.90220543999993" r="5" fill="black" stroke="none" />
<circle cx="720.746112" cy="468.90220543999993" r="5" fill="black" stroke="none" />
<path d="M720.746112,468.90220543999993 A222.92581454289342,222.92581454289342,0,0,0,718.018783413244,453.48410090494315" stroke="grey" stroke-width="5" fill="none" />
<path d="M718.018783413244,453.48410090494315 L720.746112,452.90220543999993" stroke="grey" stroke-width="5" />
<circle cx="718.018783413244" cy="453.48410090494315" r="2.5" fill="grey" stroke="none" />
<circle cx="720.746112" cy="468.90220543999993" r="5" fill="black" stroke="none" />
<circle cx="720.746112" cy="452.90220543999993" r="5" fill="black" stroke="none" />
<path d="M720.746112,452.90220543999993 A225.71452814458468,225.71452814458468,0,0,0,714.8458986743976,430.8025431224314" stroke="grey" stroke-width="5" fill="none" />
<path d="M714.8458986743976,430.8025431224314 L720.746112,428.90220543999993" stroke="grey" stroke-width="5" />
<circle cx="714.8458986743976" cy="430.8025431224314" r="2.5" fill="grey" stroke="none" />
<circle cx="720.746112" cy="452.90220543999993" r="5" fill="black" stroke="none" />
<circle cx="720.746112" cy="428.90220543999993" r="5" fill="black" stroke="none" />
<path d="M720.746112,428.90220543999993 A231.913221603281,231.913221603281,0,0,1,724.2001582953421,440.6870050093907" stroke="grey" stroke-width="5" fill="none" />
<path d="M724.2001582953421,440.6870050093907 L768.746112,428.90220543999993" stroke="grey" stroke-width="5" />
<circle cx="724.2001582953421" cy="440.6870050093907" r="2.5" fill="grey" stroke="none" />
<circle cx="720.746112" cy="428.90220543999993" r="5" fill="black" stroke="none" />
<circle cx="768.746112" cy="428.90220543999993" r="5" fill="black" stroke="none" />
<path d="M768.746112,428.90220543999993 L761.5416534430151,430.80817204390206" stroke="grey" stroke-width="5" />
<circle cx="761.5416534430151" cy="430.80817204390206" r="2.5" fill="grey" stroke="none" />
<path d="M761.5416534430151,430.80817204390206 A270.5393604295177,270.5393604295177,0,0,1,768.746112,468.90220543999993" stroke="grey" stroke-width="5" fill="none" />
<circle cx="768.746112" cy="428.90220543999993" r="5" fill="black" stroke="none" />
<circle cx="768.746112" cy="468.90220543999993" r="5" fill="black" stroke="none" />
<path d="M768.746112,468.90220543999993 L721.4481686794843,474.37525847710555" stroke="grey" stroke-width="5" />
<circle cx="721.4481686794843" cy="474.37525847710555" r="2.5" fill="grey" stroke="none" />
<path d="M721.4481686794843,474.37525847710555 A222.92581454289342,222.92581454289342,0,0,0,720.746112,468.90220543999993" stroke="grey" stroke-width="5" fill="none" />
<circle cx="768.746112" cy="468.90220543999993" r="5" fill="black" stroke="none" />
<circle cx="720.746112" cy="468.90220543999993" r="5" fill="black" stroke="none" />
<path d="M720.746112,452.90220543999993 A225.71452814458468,225.71452814458468,0,0,1,722.9966444289399,465.0780185418204" stroke="grey" stroke-width="5" fill="none" />
<path d="M722.9966444289399,465.0780185418204 L800.746112,452.90220543999993" stroke="grey" stroke-width="5" />
<circle cx="722.9966444289399" cy="465.0780185418204" r="2.5" fill="grey" stroke="none" />
<circle cx="720.746112" cy="452.90220543999993" r="5" fill="black" stroke="none" />
<circle cx="800.746112" cy="452.90220543999993" r="5" fill="black" stroke="none" />
<circle cx="500" cy="500" r="5" fill="red" stroke="none" />
</svg>