<?xml version="1.0" encoding="UTF-8"?>
<svg xmlns="http://www.w3.org/2000/svg" xmlns:xlink="http://www.w3.org/1999/xlink"
     width="1000" height="1000" viewBox="0 0 1000 1000">
<defs>
</defs>
<rect x="0" y="0" width="1000" height="1000" fill="white" />
<path d="M399.653752,277.18429184000007 L433.59449253185807,352.54864564305177" stroke="grey" stroke-width="5" />
<circle cx="433.59449253185807" cy="352.54864564305177" r="2.5" fill="grey" stroke="none" />
<path d="M433.59449253185807,352.54864564305177 A161.71454270967646,161.71454270967646,0,0,0,399.65375199999994,373.1842918400001" stroke="grey" stroke-width="5" fill="none" />
<circle cx="399.653752" cy="277.18429184000007" r="5" fill="black" stroke="none" />
<circle cx="399.653752" cy="373.18429184000007" r="5" fill="black" stroke="none" />
<path d="M399.653752,373.18429184000007 L450.6079891430573,437.5793020754538" stroke="grey" stroke-width="5" />
<circle cx="450.6079891430573" cy="437.5793020754538" r="2.5" fill="grey" stroke="none" />
<path d="M450.6079891430573,437.5793020754539 A79.59845642900234,79.59845642900234,0,0,1,463.653752,429.18429184000007" stroke="grey" stroke-width="5" fill="none" />
<circle cx="399.653752" cy="373.18429184000007" r="5" fill="black" stroke="none" />
<circle cx="463.653752" cy="429.18429184000007" r="5" fill="black" stroke="none" />
<path d="M375.653752,429.18429184000007 L430.83192079544574,460.6084896832796" stroke="grey" stroke-width="5" />
<circle cx="430.83192079544574" cy="460.6084896832796" r="2.5" fill="grey" stroke="none" />
<path d="M430.83192079544574,460.6084896832796 A79.59845642900234,79.59845642900234,0,0,1,463.653752,429.18429184000007" stroke="grey" stroke-width="5" fill="none" />
<circle cx="375.653752" cy="429.18429184000007" r="5" fill="black" stroke="none" />
<circle cx="463.653752" cy="429.18429184000007" r="5" fill="black" stroke="none" />
<path d="M463.653752,429.18429184000007 L475.9337028396432,453.110101592889" stroke="grey" stroke-width="5" />
<circle cx="475.9337028396432" cy="453.110101592889" r="2.5" fill="grey" stroke="none" />
<path d="M475.9337028396432,453.110101592889 A52.70530553596847,52.70530553596847,0,0,1,535.6537519999999,461.18429184000007" stroke="grey" stroke-width="5" fill="none" />
<circle cx="463.653752" cy="429.18429184000007" r="5" fill="black" stroke="none" />
<circle cx="535.6537519999999" cy="461.18429184000007" r="5" fill="black" stroke="none" />
<path d="M535.6537519999999,461.18429184000007 A52.70530553596847,52.70530553596847,0,0,1,548.2116116553854,478.7047016167863" stroke="grey" stroke-width="5" fill="none" />
<path d="M548.2116116553854,478.7047016167863 L51.653752,-22.81570815999993" stroke="grey" stroke-width="5" />
<circle cx="548.2116116553854" cy="478.7047016167863" r="2.5" fill="grey" stroke="none" />
<circle cx="535.6537519999999" cy="461.18429184000007" r="5" fill="black" stroke="none" />
<circle cx="551.6537519999999" cy="477.18429184000007" r="5" fill="black" stroke="none" />
<path d="M551.6537519999999,477.18429184000007 A56.4682798969456,56.4682798969456,0,0,1,556.1310000068504,506.16258653089415" stroke="grey" stroke-width="5" fill="none" />
<path d="M556.1310000068504,506.16258653089415 L83.653752,9.184291840000071" stroke="grey" stroke-width="5" />
<circle cx="556.1310000068504" cy="506.16258653089415" r="2.5" fill="grey" stroke="none" />
<circle cx="551.6537519999999" cy="477.18429184000007" r="5" fill="black" stroke="none" />
<circle cx="583.6537519999999" cy="509.18429184000007" r="5" fill="black" stroke="none" />
<path d="M551.6537519999999,477.18429184000007 A56.4682798969456,56.4682798969456,0,0,1,502.5388218612913,556.411178130548" stroke="grey" stroke-width="5" fill="none" />
<path d="M502.5388218612913,556.411178130548 L3.6537519999999972,81.18429184000007" stroke="grey" stroke-width="5" />
<circle cx="502.5388218612913" cy="556.411178130548" r="2.5" fill="grey" stroke="none" />
<circle cx="551.6537519999999" cy="477.18429184000007" r="5" fill="black" stroke="none" />
<circle cx="503.653752" cy="581.18429184" r="5" fill="black" stroke="none" />
<path d="M503.653752,581.18429184 A81.26646999371762,81.26646999371762,0,0,1,501.8416885777708,581.2455988249352" stroke="grey" stroke-width="5" fill="none" />
<path d="M501.8416885777708,581.2455988249352 L3.6537519999999972,161.18429184000007" stroke="grey" stroke-width="5" />
<circle cx="501.8416885777708" cy="581.2455988249352" r="2.5" fill="grey" stroke="none" />
<circle cx="503.653752" cy="581.18429184" r="5" fill="black" stroke="none" />
<circle cx="503.653752" cy="661.18429184" r="5" fill="black" stroke="none" />
<path d="M399.653752,677.18429184 L420.5485772506329,640.2896905076818" stroke="grey" stroke-width="5" />
<circle cx="420.5485772506329" cy="640.2896905076818" r="2.5" fill="grey" stroke="none" />
<path d="M420.5485772506329,640.2896905076818 A161.2256984467421,161.2256984467421,0,0,0,503.653752,661.18429184" stroke="grey" stroke-width="5" fill="none" />
<circle cx="399.653752" cy="677.18429184" r="5" fill="black" stroke="none" />
<circle cx="503.653752" cy="661.18429184" r="5" fill="black" stroke="none" />
<path d="M503.653752,661.18429184 A161.2256984467421,161.2256984467421,0,0,1,502.09481471457934,661.2120888486697" stroke="grey" stroke-width="5" fill="none" />
<path d="M502.09481471457934,661.2120888486697 L3.6537519999999972,281.18429184000007" stroke="grey" stroke-width="5" />
<circle cx="502.09481471457934" cy="661.2120888486697" r="2.5" fill="grey" stroke="none" />
<circle cx="503.653752" cy="661.18429184" r="5" fill="black" stroke="none" />
<circle cx="503.653752" cy="781.18429184" r="5" fill="black" stroke="none" />
<path d="M503.653752,581.18429184 A81.26646999371762,81.26646999371762,0,0,0,558.318404790826,556.5968445047351" stroke="grey" stroke-width="5" fill="none" />
<path d="M558.318404790826,556.5968445047351 L83.653752,81.18429184000007" stroke="grey" stroke-width="5" />
<circle cx="558.318404790826" cy="556.5968445047351" r="2.5" fill="grey" stroke="none" />
<circle cx="503.653752" cy="581.18429184" r="5" fill="black" stroke="none" />
<circle cx="583.6537519999999" cy="581.18429184" r="5" fill="black" stroke="none" />
<path d="M583.6537519999999,509.18429184000007 A84.15641057150546,84.15641057150546,0,0,1,560.3922825469275,558.6095013547451" stroke="grey" stroke-width="5" fill="none" />
<path d="M560.3922825469275,558.6095013547451 L83.653752,81.18429184000007" stroke="grey" stroke-width="5" />
<circle cx="560.3922825469275" cy="558.6095013547451" r="2.5" fill="grey" stroke="none" />
<circle cx="583.6537519999999" cy="509.18429184000007" r="5" fill="black" stroke="none" />
<circle cx="583.6537519999999" cy="581.18429184" r="5" fill="black" stroke="none" />
<path d="M583.6537519999999,581.18429184 A116.57117767801698,116.57117767801698,0,0,0,603.3574173861186,553.9081045531325" stroke="grey" stroke-width="5" fill="none" />
<path d="M603.3574173861186,553.9081045531325 L155.653752,81.18429184000007" stroke="grey" stroke-width="5" />
<circle cx="603.3574173861186" cy="553.9081045531325" r="2.5" fill="grey" stroke="none" />
<circle cx="583.6537519999999" cy="581.18429184" r="5" fill="black" stroke="none" />
<circle cx="655.6537519999999" cy="581.18429184" r="5" fill="black" stroke="none" />
<path d="M583.6537519999999,509.18429184000007 A84.15641057150546,84.15641057150546,0,0,0,583.9252351832292,506.2334853588868" stroke="grey" stroke-width="5" fill="none" />
<path d="M583.9252351832292,506.2334853588868 L123.653752,9.184291840000071" stroke="grey" stroke-width="5" />
<circle cx="583.9252351832292" cy="506.2334853588868" r="2.5" fill="grey" stroke="none" />
<circle cx="583.6537519999999" cy="509.18429184000007" r="5" fill="black" stroke="none" />
<circle cx="623.6537519999999" cy="509.18429184000007" r="5" fill="black" stroke="none" />
<path d="M655.6537519999999,581.18429184 A175.55335301053012,175.55335301053012,0,0,0,673.0980232302967,529.2584023316975" stroke="grey" stroke-width="5" fill="none" />
<path d="M673.0980232302967,529.2584023316975 L243.653752,41.18429184000007" stroke="grey" stroke-width="5" />
<circle cx="673.0980232302967" cy="529.2584023316975" r="2.5" fill="grey" stroke="none" />
<circle cx="655.6537519999999" cy="581.18429184" r="5" fill="black" stroke="none" />
<circle cx="743.6537519999999" cy="541.18429184" r="5" fill="black" stroke="none" />
<path d="M623.6537519999999,509.18429184000007 A123.99436116323918,123.99436116323918,0,0,0,623.9214266138846,504.2522495528143" stroke="grey" stroke-width="5" fill="none" />
<path d="M623.9214266138846,504.2522495528143 L267.653752,9.184291840000071" stroke="grey" stroke-width="5" />
<circle cx="623.9214266138846" cy="504.2522495528143" r="2.5" fill="grey" stroke="none" />
<circle cx="623.6537519999999" cy="509.18429184000007" r="5" fill="black" stroke="none" />
<circle cx="767.6537519999999" cy="509.18429184000007" r="5" fill="black" stroke="none" />
<path d="M743.6537519999999,541.1842918400001 A247.10988802158403,247.10988802158403,0,0,0,746.9645358607693,508.47436045460506" stroke="grey" stroke-width="5" fill="none" />
<path d="M746.9645358607693,508.47436045460506 L267.653752,9.184291840000071" stroke="grey" stroke-width="5" />
<circle cx="746.9645358607693" cy="508.47436045460506" r="2.5" fill="grey" stroke="none" />
<circle cx="743.6537519999999" cy="541.18429184" r="5" fill="black" stroke="none" />
<circle cx="767.6537519999999" cy="509.18429184000007" r="5" fill="black" stroke="none" />
<path d="M503.653752,661.18429184 A161.2256984467421,161.2256984467421,0,0,0,598.1343467275483,627.9194114745575" stroke="grey" stroke-width="5" fill="none" />
<path d="M598.1343467275483,627.9194114745575 L123.653752,161.18429184000007" stroke="grey" stroke-width="5" />
<circle cx="598.1343467275483" cy="627.9194114745575" r="2.5" fill="grey" stroke="none" />
<circle cx="503.653752" cy="661.18429184" r="5" fill="black" stroke="none" />
<circle cx="623.6537519999999" cy="661.18429184" r="5" fill="black" stroke="none" />
<path d="M623.653752,661.18429184 A203.15173225852598,203.15173225852598,0,0,0,694.7569186180967,557.7959252025942" stroke="grey" stroke-width="5" fill="none" />
<path d="M694.7569186180967,557.7959252025942 L219.653752,65.18429184000007" stroke="grey" stroke-width="5" />
<circle cx="694.7569186180967" cy="557.7959252025942" r="2.5" fill="grey" stroke="none" />
<circle cx="623.6537519999999" cy="661.18429184" r="5" fill="black" stroke="none" />
<circle cx="719.6537519999999" cy="565.18429184" r="5" fill="black" stroke="none" />
<path d="M719.6537519999999,565.18429184 A229.12172020644354,229.12172020644354,0,0,0,725.9171708584886,538.1863140621908" stroke="grey" stroke-width="5" fill="none" />
<path d="M725.9171708584886,538.1863140621908 L243.653752,41.18429184000007" stroke="grey" stroke-width="5" />
<circle cx="725.9171708584886" cy="538.1863140621908" r="2.5" fill="grey" stroke="none" />
<circle cx="719.6537519999999" cy="565.18429184" r="5" fill="black" stroke="none" />
<circle cx="743.6537519999999" cy="541.18429184" r="5" fill="black" stroke="none" />
<path d="M743.6537519999999,541.1842918400001 A247.10988802158403,247.10988802158403,0,0,1,738.7149183405468,563.8630137067291" stroke="grey" stroke-width="5" fill="none" />
<path d="M738.7149183405468,563.8630137067291 L243.653752,65.18429184000007" stroke="grey" stroke-width="5" />
<circle cx="738.7149183405468" cy="563.8630137067291" r="2.5" fill="grey" stroke="none" />
<circle cx="743.6537519999999" cy="541.18429184" r="5" fill="black" stroke="none" />
<circle cx="743.6537519999999" cy="565.18429184" r="5" fill="black" stroke="none" />
<path d="M743.6537519999999,565.18429184 A252.22240734391502,252.22240734391502,0,0,1,679.2542429371841,677.4374795678094" stroke="grey" stroke-width="5" fill="none" />
<path d="M679.2542429371841,677.4374795678094 L243.653752,241.18429184000007" stroke="grey" stroke-width="5" />
<circle cx="679.2542429371841" cy="677.4374795678094" r="2.5" fill="grey" stroke="none" />
<circle cx="743.6537519999999" cy="565.18429184" r="5" fill="black" stroke="none" />
<circle cx="743.6537519999999" cy="741.18429184" r="5" fill="black" stroke="none" />
<path d="M743.6537519999999,741.1842918400001 A342.8367154988506,342.8367154988506,0,0,0,779.5315195425899,698.4921738413143" stroke="grey" stroke-width="5" fill="none" />
<path d="M779.5315195425899,698.4921738413143 L339.653752,241.18429184000007" stroke="grey" stroke-width="5" />
<circle cx="779.5315195425899" cy="698.4921738413143" r="2.5" fill="grey" stroke="none" />
<circle cx="743.6537519999999" cy="741.18429184" r="5" fill="black" stroke="none" />
<circle cx="839.6537519999999" cy="741.18429184" r="5" fill="black" stroke="none" />
<path d="M743.6537519999999,741.1842918400001 A342.8367154988506,342.8367154988506,0,0,1,720.902408157978,762.181501185812" stroke="grey" stroke-width="5" fill="none" />
<path d="M720.902408157978,762.181501185812 L243.653752,289.18429184000007" stroke="grey" stroke-width="5" />
<circle cx="720.902408157978" cy="762.181501185812" r="2.5" fill="grey" stroke="none" />
<circle cx="743.6537519999999" cy="741.18429184" r="5" fill="black" stroke="none" />
<circle cx="743.6537519999999" cy="789.18429184" r="5" fill="black" stroke="none" />
<path d="M431.65375200000005,365.18429184000007 A151.1505368245835,151.1505368245835,0,0,1,602.168770646036,388.6086758897379" stroke="grey" stroke-width="5" fill="none" />
<path d="M602.168770646036,388.6086758897379 L123.653752,-134.81570815999993" stroke="grey" stroke-width="5" />
<circle cx="602.168770646036" cy="388.6086758897379" r="2.5" fill="grey" stroke="none" />
<circle cx="431.653752" cy="365.18429184000007" r="5" fill="black" stroke="none" />
<circle cx="623.6537519999999" cy="365.18429184000007" r="5" fill="black" stroke="none" />
<path d="M623.6537519999999,365.18429184000007 L583.8128114741061,408.62158770756764" stroke="grey" stroke-width="5" />
<circle cx="583.8128114741061" cy="408.62158770756764" r="2.5" fill="grey" stroke="none" />
<path d="M583.8128114741061,408.62158770756764 A123.99436116323918,123.99436116323918,0,0,1,623.6537519999999,509.18429184000007" stroke="grey" stroke-width="5" fill="none" />
<circle cx="623.6537519999999" cy="365.18429184000007" r="5" fill="black" stroke="none" />
<circle cx="623.6537519999999" cy="509.18429184000007" r="5" fill="black" stroke="none" />
<path d="M623.6537519999999,365.18429184000007 A182.9358509159967,182.9358509159967,0,0,0,591.2629536471982,341.4547419758348" stroke="grey" stroke-width="5" fill="none" />
<path d="M591.2629536471982,341.4547419758348 L123.653752,-214.81570815999993" stroke="grey" stroke-width="5" />
<circle cx="591.2629536471982" cy="341.4547419758348" r="2.5" fill="grey" stroke="none" />
<circle cx="623.6537519999999" cy="365.18429184000007" r="5" fill="black" stroke="none" />
<circle cx="623.6537519999999" cy="285.18429184000007" r="5" fill="black" stroke="none" />
<path d="M623.6537519999999,285.1842918400001 A247.8629436925975,247.8629436925975,0,0,0,602.9497038402252,274.5284999491739" stroke="grey" stroke-width="5" fill="none" />
<path d="M602.9497038402252,274.5284999491739 L123.653752,-270.81570815999993" stroke="grey" stroke-width="5" />
<circle cx="602.9497038402252" cy="274.5284999491739" r="2.5" fill="grey" stroke="none" />
<circle cx="623.6537519999999" cy="285.18429184000007" r="5" fill="black" stroke="none" />
<circle cx="623.6537519999999" cy="229.18429184000007" r="5" fill="black" stroke="none" />
<path d="M623.6537519999999,285.1842918400001 A247.8629436925975,247.8629436925975,0,0,1,718.0117813050211,382.0724711181846" stroke="grey" stroke-width="5" fill="none" />
<path d="M718.0117813050211,382.0724711181846 L219.653752,-118.81570815999993" stroke="grey" stroke-width="5" />
<circle cx="718.0117813050211" cy="382.0724711181846" r="2.5" fill="grey" stroke="none" />
<circle cx="623.6537519999999" cy="285.18429184000007" r="5" fill="black" stroke="none" />
<circle cx="719.6537519999999" cy="381.18429184000007" r="5" fill="black" stroke="none" />
<path d="M623.6537519999999,365.18429184000007 A182.9358509159967,182.9358509159967,0,0,1,660.904127614205,412.96329930959354" stroke="grey" stroke-width="5" fill="none" />
<path d="M660.904127614205,412.96329930959354 L219.653752,-118.81570815999993" stroke="grey" stroke-width="5" />
<circle cx="660.904127614205" cy="412.96329930959354" r="2.5" fill="grey" stroke="none" />
<circle cx="623.6537519999999" cy="365.18429184000007" r="5" fill="black" stroke="none" />
<circle cx="719.6537519999999" cy="381.18429184000007" r="5" fill="black" stroke="none" />
<path d="M719.6537519999999,381.18429184000007 A249.72974046604816,249.72974046604816,0,0,1,745.995100375267,456.97263818682285" stroke="grey" stroke-width="5" fill="none" />
<path d="M745.995100375267,456.97263818682285 L267.653752,-46.81570815999993" stroke="grey" stroke-width="5" />
<circle cx="745.995100375267" cy="456.97263818682285" r="2.5" fill="grey" stroke="none" />
<circle cx="719.6537519999999" cy="381.18429184000007" r="5" fill="black" stroke="none" />
<circle cx="767.6537519999999" cy="453.18429184000007" r="5" fill="black" stroke="none" />
<path d="M719.6537519999999,565.18429184 A229.12172020644354,229.12172020644354,0,0,0,721.3378556682824,559.214156403063" stroke="grey" stroke-width="5" fill="none" />
<path d="M721.3378556682824,559.214156403063 L243.653752,65.18429184000007" stroke="grey" stroke-width="5" />
<circle cx="721.3378556682824" cy="559.214156403063" r="2.5" fill="grey" stroke="none" />
<circle cx="719.6537519999999" cy="565.18429184" r="5" fill="black" stroke="none" />
<circle cx="743.6537519999999" cy="565.18429184" r="5" fill="black" stroke="none" />
<path d="M743.6537519999999,565.18429184 A252.22240734391502,252.22240734391502,0,0,0,745.0596528179564,559.6817336134139" stroke="grey" stroke-width="5" fill="none" />
<path d="M745.0596528179564,559.6817336134139 L267.653752,65.18429184000007" stroke="grey" stroke-width="5" />
<circle cx="745.0596528179564" cy="559.6817336134139" r="2.5" fill="grey" stroke="none" />
<circle cx="743.6537519999999" cy="565.18429184" r="5" fill="black" stroke="none" />
<circle cx="767.6537519999999" cy="565.18429184" r="5" fill="black" stroke="none" />
<path d="M767.6537519999999,565.18429184 L760.2058247272666,563.370426495983" stroke="grey" stroke-width="5" />
<circle cx="760.2058247272666" cy="563.370426495983" r="2.5" fill="grey" stroke="none" />
<path d="M760.2058247272666,563.370426495983 A267.8112808980977,267.8112808980977,0,0,0,767.6537519999999,509.18429184000007" stroke="grey" stroke-width="5" fill="none" />
<circle cx="767.6537519999999" cy="565.18429184" r="5" fill="black" stroke="none" />
<circle cx="767.6537519999999" cy="509.18429184000007" r="5" fill="black" stroke="none" />
<path d="M767.6537519999999,509.18429184000007 L767.5830304611385,509.1818650955684" stroke="grey" stroke-width="5" />
<circle cx="767.5830304611385" cy="509.1818650955684" r="2.5" fill="grey" stroke="none" />
<path d="M767.5830304611385,509.1818650955684 A267.7405177357357,267.7405177357357,0,0,0,767.6537519999999,493.18429184000007" stroke="grey" stroke-width="5" fill="none" />
<circle cx="767.6537519999999" cy="509.18429184000007" r="5" fill="black" stroke="none" />
<circle cx="767.6537519999999" cy="493.18429184000007" r="5" fill="black" stroke="none" />
<path d="M767.6537519999999,493.18429184000007 A267.7405177357357,267.7405177357357,0,0,0,766.7730280237254,477.2593677209173" stroke="grey" stroke-width="5" fill="none" />
<path d="M766.7730280237254,477.2593677209173 L267.653752,-22.81570815999993" stroke="grey" stroke-width="5" />
<circle cx="766.7730280237254" cy="477.2593677209173" r="2.5" fill="grey" stroke="none" />
<circle cx="767.6537519999999" cy="493.18429184000007" r="5" fill="black" stroke="none" />
<circle cx="767.6537519999999" cy="477.18429184000007" r="5" fill="black" stroke="none" />
<path d="M767.653752,477.18429184000007 A268.62443578073794,268.62443578073794,0,0,0,764.6072306799038,453.7171633277304" stroke="grey" stroke-width="5" fill="none" />
<path d="M764.6072306799038,453.7171633277304 L267.653752,-46.81570815999993" stroke="grey" stroke-width="5" />
<circle cx="764.6072306799038" cy="453.7171633277304" r="2.5" fill="grey" stroke="none" />
<circle cx="767.6537519999999" cy="477.18429184000007" r="5" fill="black" stroke="none" />
<circle cx="767.6537519999999" cy="453.18429184000007" r="5" fill="black" stroke="none" />
<path d="M767.6537519999999,453.18429184000007 A271.717208675122,271.717208675122,0,0,1,768.7771579365369,460.13672289239537" stroke="grey" stroke-width="5" fill="none" />
<path d="M768.7771579365369,460.1367228923953 L315.653752,-46.81570815999993" stroke="grey" stroke-width="5" />
<circle cx="768.7771579365369" cy="460.1367228923953" r="2.5" fill="grey" stroke="none" />
<circle cx="767.6537519999999" cy="453.18429184000007" r="5" fill="black" stroke="none" />
<circle cx="815.6537519999999" cy="453.18429184000007" r="5" fill="black" stroke="none" />
<path d="M815.6537519999999,453.18429184000007 L812.3110753788769,453.6800558604694" stroke="grey" stroke-width="5" />
<circle cx="812.3110753788769" cy="453.6800558604694" r="2.5" fill="grey" stroke="none" />
<path d="M812.3110753788769,453.6800558604694 A315.72732702349316,315.72732702349316,0,0,1,815.6537519999999,493.18429184000007" stroke="grey" stroke-width="5" fill="none" />
<circle cx="815.6537519999999" cy="453.18429184000007" r="5" fill="black" stroke="none" />
<circle cx="815.6537519999999" cy="493.18429184000007" r="5" fill="black" stroke="none" />
<path d="M815.6537519999999,493.18429184000007 L767.6781252432385,494.2201986483157" stroke="grey" stroke-width="5" />
<circle cx="767.6781252432385" cy="494.2201986483157" r="2.5" fill="grey" stroke="none" />
<path d="M767.6781252432385,494.2201986483157 A267.7405177357357,267.7405177357357,0,0,0,767.6537519999999,493.18429184000007" stroke="grey" stroke-width="5" fill="none" />
<circle cx="815.6537519999999" cy="493.18429184000007" r="5" fill="black" stroke="none" />
<circle cx="767.6537519999999" cy="493.18429184000007" r="5" fill="black" stroke="none" />
<path d="M767.653752,477.18429184000007 A268.62443578073794,268.62443578073794,0,0,1,768.0478160887399,482.40864449290905" stroke="grey" stroke-width="5" fill="none" />
<path d="M768.0478160887399,482.40864449290905 L347.653752,-22.81570815999993" stroke="grey" stroke-width="5" />
<circle cx="768.0478160887399" cy="482.40864449290905" r="2.5" fill="grey" stroke="none" />
<circle cx="767.6537519999999" cy="477.18429184000007" r="5" fill="black" stroke="none" />
<circle cx="847.6537519999999" cy="477.18429184000007" r="5" fill="black" stroke="none" />
<circle cx="500" cy="500" r="5" fill="red" stroke="none" />
</svg>