<?xml version="1.0" encoding="UTF-8"?>
<svg xmlns="http://www.w3.org/2000/svg" xmlns:xlink="http://www.w3.org/1999/xlink"
     width="1000" height="1000" viewBox="0 0 1000 1000">
<defs>
</defs>
<rect x="0" y="0" width="1000" height="1000" fill="white" />
<path d="M238.22399199999995,264.65329664 L279.4678575251477,301.7331186577865" stroke="grey" stroke-width="5" />
<circle cx="279.4678575251477" cy="301.7331186577865" r="2.5" fill="grey" stroke="none" />
<path d="M279.4678575251477,301.7331186577865 A296.55384351195977,296.55384351195977,0,0,0,238.22399199999995,360.65329664" stroke="grey" stroke-width="5" fill="none" />
<circle cx="238.22399199999995" cy="264.65329664" r="5" fill="black" stroke="none" />
<circle cx="238.22399199999995" cy="360.65329664" r="5" fill="black" stroke="none" />
<path d="M238.22399199999995,360.65329664 L310.54861521229714,399.15261479137064" stroke="grey" stroke-width="5" />
<circle cx="310.54861521229714" cy="399.15261479137064" r="2.5" fill="grey" stroke="none" />
<path d="M310.54861521229714,399.15261479137064 A214.62064742562845,214.62064742562845,0,0,0,302.22399199999995,416.65329663999995" stroke="grey" stroke-width="5" fill="none" />
<circle cx="238.22399199999995" cy="360.65329664" r="5" fill="black" stroke="none" />
<circle cx="302.22399199999995" cy="416.65329664" r="5" fill="black" stroke="none" />
<path d="M214.22399199999995,416.65329664 L293.9632807650295,439.9092966567554" stroke="grey" stroke-width="5" />
<circle cx="293.9632807650295" cy="439.9092966567554" r="2.5" fill="grey" stroke="none" />
<path d="M293.9632807650295,439.9092966567554 A214.62064742562845,214.62064742562845,0,0,1,302.22399199999995,416.65329663999995" stroke="grey" stroke-width="5" fill="none" />
<circle cx="214.22399199999995" cy="416.65329664" r="5" fill="black" stroke="none" />
<circle cx="302.22399199999995" cy="416.65329664" r="5" fill="black" stroke="none" />
<path d="M302.22399199999995,416.65329664 L374.80933864137586,447.24219069231356" stroke="grey" stroke-width="5" />
<circle cx="374.80933864137586" cy="447.24219069231356" r="2.5" fill="grey" stroke="none" />
<path d="M374.80933864137586,447.24219069231356 A135.85318595585423,135.85318595585423,0,0,0,374.22399199999995,448.65329664" stroke="grey" stroke-width="5" fill="none" />
<circle cx="302.22399199999995" cy="416.65329664" r="5" fill="black" stroke="none" />
<circle cx="374.22399199999995" cy="448.65329664" r="5" fill="black" stroke="none" />
<path d="M374.22399199999995,448.65329664 L393.2282320345647,456.41157336664753" stroke="grey" stroke-width="5" />
<circle cx="393.2282320345647" cy="456.41157336664753" r="2.5" fill="grey" stroke="none" />
<path d="M393.2282320345647,456.41157336664753 A115.32632557588882,115.32632557588882,0,0,0,390.22399199999995,464.65329664" stroke="grey" stroke-width="5" fill="none" />
<circle cx="374.22399199999995" cy="448.65329664" r="5" fill="black" stroke="none" />
<circle cx="390.22399199999995" cy="464.65329664" r="5" fill="black" stroke="none" />
<path d="M390.22399199999995,464.65329664 L425.8986156937769,476.1401448517109" stroke="grey" stroke-width="5" />
<circle cx="425.8986156937769" cy="476.1401448517109" r="2.5" fill="grey" stroke="none" />
<path d="M425.8986156937769,476.1401448517109 A77.84797906044771,77.84797906044771,0,0,0,422.22399199999995,496.65329664000006" stroke="grey" stroke-width="5" fill="none" />
<circle cx="390.22399199999995" cy="464.65329664" r="5" fill="black" stroke="none" />
<circle cx="422.22399199999995" cy="496.65329664" r="5" fill="black" stroke="none" />
<path d="M390.22399199999995,464.65329664 A115.32632557588882,115.32632557588882,0,0,0,394.2511721018727,546.0146364650222" stroke="grey" stroke-width="5" fill="none" />
<path d="M394.25117210187267,546.0146364650222 L342.22399199999995,568.65329664" stroke="grey" stroke-width="5" />
<circle cx="394.25117210187267" cy="546.0146364650222" r="2.5" fill="grey" stroke="none" />
<circle cx="390.22399199999995" cy="464.65329664" r="5" fill="black" stroke="none" />
<circle cx="342.22399199999995" cy="568.65329664" r="5" fill="black" stroke="none" />
<path d="M342.22399199999995,568.6532966400001 A172.06552193846366,172.06552193846366,0,0,0,374.76458865499654,617.9942184397341" stroke="grey" stroke-width="5" fill="none" />
<path d="M374.7645886549965,617.9942184397341 L342.22399199999995,648.65329664" stroke="grey" stroke-width="5" />
<circle cx="374.7645886549965" cy="617.9942184397341" r="2.5" fill="grey" stroke="none" />
<circle cx="342.22399199999995" cy="568.65329664" r="5" fill="black" stroke="none" />
<circle cx="342.22399199999995" cy="648.65329664" r="5" fill="black" stroke="none" />
<path d="M238.22399199999995,664.65329664 L316.5052411776617,615.4155309613391" stroke="grey" stroke-width="5" />
<circle cx="316.5052411776617" cy="615.4155309613391" r="2.5" fill="grey" stroke="none" />
<path d="M316.5052411776617,615.4155309613391 A216.77424040313443,216.77424040313443,0,0,0,342.22399200000007,648.6532966400001" stroke="grey" stroke-width="5" fill="none" />
<circle cx="238.22399199999995" cy="664.65329664" r="5" fill="black" stroke="none" />
<circle cx="342.22399199999995" cy="648.65329664" r="5" fill="black" stroke="none" />
<path d="M342.22399200000007,648.6532966400001 A216.77424040313443,216.77424040313443,0,0,0,390.22311493748776,686.9227295122985" stroke="grey" stroke-width="5" fill="none" />
<path d="M390.2231149374879,686.9227295122985 L342.22399199999995,768.65329664" stroke="grey" stroke-width="5" />
<circle cx="390.2231149374879" cy="686.9227295122985" r="2.5" fill="grey" stroke="none" />
<circle cx="342.22399199999995" cy="648.65329664" r="5" fill="black" stroke="none" />
<circle cx="342.22399199999995" cy="768.65329664" r="5" fill="black" stroke="none" />
<path d="M342.22399199999995,568.65329664 L404.8735433690855,541.392509090446" stroke="grey" stroke-width="5" />
<circle cx="404.8735433690855" cy="541.392509090446" r="2.5" fill="grey" stroke="none" />
<path d="M404.8735433690855,541.392509090446 A103.74190358748922,103.74190358748922,0,0,0,422.22399199999995,568.65329664" stroke="grey" stroke-width="5" fill="none" />
<circle cx="342.22399199999995" cy="568.65329664" r="5" fill="black" stroke="none" />
<circle cx="422.22399199999995" cy="568.65329664" r="5" fill="black" stroke="none" />
<path d="M422.22399199999995,496.65329664000006 A77.84797906044771,77.84797906044771,0,0,0,441.6368426565156,551.5174699368631" stroke="grey" stroke-width="5" fill="none" />
<path d="M441.6368426565156,551.5174699368631 L422.22399199999995,568.65329664" stroke="grey" stroke-width="5" />
<circle cx="441.6368426565156" cy="551.5174699368631" r="2.5" fill="grey" stroke="none" />
<circle cx="422.22399199999995" cy="496.65329664" r="5" fill="black" stroke="none" />
<circle cx="422.22399199999995" cy="568.65329664" r="5" fill="black" stroke="none" />
<path d="M422.22399199999995,568.65329664 L448.3483184885694,545.5932144622162" stroke="grey" stroke-width="5" />
<circle cx="448.3483184885694" cy="545.5932144622162" r="2.5" fill="grey" stroke="none" />
<path d="M448.3483184885694,545.5932144622162 A68.89584463489726,68.89584463489726,0,0,0,494.22399199999995,568.65329664" stroke="grey" stroke-width="5" fill="none" />
<circle cx="422.22399199999995" cy="568.65329664" r="5" fill="black" stroke="none" />
<circle cx="494.22399199999995" cy="568.65329664" r="5" fill="black" stroke="none" />
<path d="M422.22399199999995,496.65329664 L462.11109491342563,498.369639568542" stroke="grey" stroke-width="5" />
<circle cx="462.11109491342563" cy="498.369639568542" r="2.5" fill="grey" stroke="none" />
<path d="M462.11109491342563,498.369639568542 A37.92396608736885,37.92396608736885,0,0,1,462.22399199999995,496.65329664" stroke="grey" stroke-width="5" fill="none" />
<circle cx="422.22399199999995" cy="496.65329664" r="5" fill="black" stroke="none" />
<circle cx="462.22399199999995" cy="496.65329664" r="5" fill="black" stroke="none" />
<path d="M494.22399199999995,568.65329664 A68.89584463489726,68.89584463489726,0,0,0,565.0587225825802,522.6715686241328" stroke="grey" stroke-width="5" fill="none" />
<path d="M565.0587225825802,522.6715686241328 L582.223992,528.65329664" stroke="grey" stroke-width="5" />
<circle cx="565.0587225825802" cy="522.6715686241328" r="2.5" fill="grey" stroke="none" />
<circle cx="494.22399199999995" cy="568.65329664" r="5" fill="black" stroke="none" />
<circle cx="582.223992" cy="528.65329664" r="5" fill="black" stroke="none" />
<path d="M462.22399199999995,496.65329664 A37.92396608736885,37.92396608736885,0,0,1,537.9051577770542,498.80575643500765" stroke="grey" stroke-width="5" fill="none" />
<path d="M537.9051577770542,498.80575643500765 L606.223992,496.65329664" stroke="grey" stroke-width="5" />
<circle cx="537.9051577770542" cy="498.80575643500765" r="2.5" fill="grey" stroke="none" />
<circle cx="462.22399199999995" cy="496.65329664" r="5" fill="black" stroke="none" />
<circle cx="606.223992" cy="496.65329664" r="5" fill="black" stroke="none" />
<path d="M582.223992,528.65329664 A87.07351071798985,87.07351071798985,0,0,0,587.0303267955596,497.25801411126974" stroke="grey" stroke-width="5" fill="none" />
<path d="M587.0303267955596,497.25801411126974 L606.223992,496.65329664" stroke="grey" stroke-width="5" />
<circle cx="587.0303267955596" cy="497.25801411126974" r="2.5" fill="grey" stroke="none" />
<circle cx="582.223992" cy="528.65329664" r="5" fill="black" stroke="none" />
<circle cx="606.223992" cy="496.65329664" r="5" fill="black" stroke="none" />
<path d="M342.22399199999995,648.65329664 L388.3659883923,605.179260478137" stroke="grey" stroke-width="5" />
<circle cx="388.3659883923" cy="605.179260478137" r="2.5" fill="grey" stroke="none" />
<path d="M388.36598839230004,605.179260478137 A153.37806030314735,153.37806030314735,0,0,0,462.22399199999995,648.65329664" stroke="grey" stroke-width="5" fill="none" />
<circle cx="342.22399199999995" cy="648.65329664" r="5" fill="black" stroke="none" />
<circle cx="462.22399199999995" cy="648.65329664" r="5" fill="black" stroke="none" />
<path d="M462.22399199999995,648.65329664 L480.6657261843025,576.0827756295439" stroke="grey" stroke-width="5" />
<circle cx="480.6657261843025" cy="576.0827756295439" r="2.5" fill="grey" stroke="none" />
<path d="M480.6657261843025,576.0827756295439 A78.5009738250163,78.5009738250163,0,0,0,558.223992,552.65329664" stroke="grey" stroke-width="5" fill="none" />
<circle cx="462.22399199999995" cy="648.65329664" r="5" fill="black" stroke="none" />
<circle cx="558.223992" cy="552.65329664" r="5" fill="black" stroke="none" />
<path d="M558.223992,552.65329664 A78.5009738250163,78.5009738250163,0,0,0,574.1288985657814,525.8323303033233" stroke="grey" stroke-width="5" fill="none" />
<path d="M574.1288985657814,525.8323303033233 L582.223992,528.65329664" stroke="grey" stroke-width="5" />
<circle cx="574.1288985657814" cy="525.8323303033233" r="2.5" fill="grey" stroke="none" />
<circle cx="558.223992" cy="552.65329664" r="5" fill="black" stroke="none" />
<circle cx="582.223992" cy="528.65329664" r="5" fill="black" stroke="none" />
<path d="M582.223992,528.65329664 A87.07351071798985,87.07351071798985,0,0,1,573.3274018549893,546.9562392654353" stroke="grey" stroke-width="5" fill="none" />
<path d="M573.3274018549893,546.9562392654353 L582.223992,552.65329664" stroke="grey" stroke-width="5" />
<circle cx="573.3274018549893" cy="546.9562392654353" r="2.5" fill="grey" stroke="none" />
<circle cx="582.223992" cy="528.65329664" r="5" fill="black" stroke="none" />
<circle cx="582.223992" cy="552.65329664" r="5" fill="black" stroke="none" />
<path d="M582.223992,552.65329664 A97.63787434943416,97.63787434943416,0,0,1,533.0394069565245,591.8779195206174" stroke="grey" stroke-width="5" fill="none" />
<path d="M533.0394069565245,591.8779195206174 L582.223992,728.65329664" stroke="grey" stroke-width="5" />
<circle cx="533.0394069565245" cy="591.8779195206174" r="2.5" fill="grey" stroke="none" />
<circle cx="582.223992" cy="552.65329664" r="5" fill="black" stroke="none" />
<circle cx="582.223992" cy="728.65329664" r="5" fill="black" stroke="none" />
<path d="M582.223992,728.65329664 A242.9878904899499,242.9878904899499,0,0,0,649.379829611644,691.6475448054373" stroke="grey" stroke-width="5" fill="none" />
<path d="M649.379829611644,691.6475448054373 L678.223992,728.65329664" stroke="grey" stroke-width="5" />
<circle cx="649.379829611644" cy="691.6475448054373" r="2.5" fill="grey" stroke="none" />
<circle cx="582.223992" cy="728.65329664" r="5" fill="black" stroke="none" />
<circle cx="678.223992" cy="728.65329664" r="5" fill="black" stroke="none" />
<path d="M582.223992,728.65329664 A242.9878904899499,242.9878904899499,0,0,1,569.2255382615853,732.9183113822305" stroke="grey" stroke-width="5" fill="none" />
<path d="M569.2255382615853,732.9183113822305 L582.223992,776.65329664" stroke="grey" stroke-width="5" />
<circle cx="569.2255382615853" cy="732.9183113822305" r="2.5" fill="grey" stroke="none" />
<circle cx="582.223992" cy="728.65329664" r="5" fill="black" stroke="none" />
<circle cx="582.223992" cy="776.65329664" r="5" fill="black" stroke="none" />
<path d="M270.22399199999995,352.65329664 L371.9538053767833,417.8887960507873" stroke="grey" stroke-width="5" />
<circle cx="371.9538053767833" cy="417.8887960507873" r="2.5" fill="grey" stroke="none" />
<path d="M371.9538053767833,417.8887960507873 A152.1120566275925,152.1120566275925,0,0,1,462.223992,352.65329664" stroke="grey" stroke-width="5" fill="none" />
<circle cx="270.22399199999995" cy="352.65329664" r="5" fill="black" stroke="none" />
<circle cx="462.22399199999995" cy="352.65329664" r="5" fill="black" stroke="none" />
<path d="M462.22399199999995,352.65329664 L490.5818376395004,463.2641126206652" stroke="grey" stroke-width="5" />
<circle cx="490.5818376395004" cy="463.2641126206652" r="2.5" fill="grey" stroke="none" />
<path d="M490.5818376395004,463.2641126206652 A37.92396608736885,37.92396608736885,0,0,0,462.22399199999995,496.65329664" stroke="grey" stroke-width="5" fill="none" />
<circle cx="462.22399199999995" cy="352.65329664" r="5" fill="black" stroke="none" />
<circle cx="462.22399199999995" cy="496.65329664" r="5" fill="black" stroke="none" />
<path d="M462.223992,352.65329664 A152.1120566275925,152.1120566275925,0,0,1,475.066856658053,349.94528952889937" stroke="grey" stroke-width="5" fill="none" />
<path d="M475.066856658053,349.94528952889937 L462.22399199999995,272.65329664" stroke="grey" stroke-width="5" />
<circle cx="475.066856658053" cy="349.94528952889937" r="2.5" fill="grey" stroke="none" />
<circle cx="462.22399199999995" cy="352.65329664" r="5" fill="black" stroke="none" />
<circle cx="462.22399199999995" cy="272.65329664" r="5" fill="black" stroke="none" />
<path d="M462.223992,272.65329664 A230.46377222695088,230.46377222695088,0,0,1,469.5438645795305,271.5575036812854" stroke="grey" stroke-width="5" fill="none" />
<path d="M469.5438645795306,271.5575036812854 L462.22399199999995,216.65329664" stroke="grey" stroke-width="5" />
<circle cx="469.5438645795306" cy="271.5575036812854" r="2.5" fill="grey" stroke="none" />
<circle cx="462.22399199999995" cy="272.65329664" r="5" fill="black" stroke="none" />
<circle cx="462.22399199999995" cy="216.65329664" r="5" fill="black" stroke="none" />
<path d="M462.22399199999995,272.65329664 L476.45009419505595,358.27000435851926" stroke="grey" stroke-width="5" />
<circle cx="476.45009419505595" cy="358.27000435851926" r="2.5" fill="grey" stroke="none" />
<path d="M476.450094195056,358.27000435851926 A143.673204627571,143.673204627571,0,0,1,558.223992,368.65329664" stroke="grey" stroke-width="5" fill="none" />
<circle cx="462.22399199999995" cy="272.65329664" r="5" fill="black" stroke="none" />
<circle cx="558.223992" cy="368.65329664" r="5" fill="black" stroke="none" />
<path d="M462.22399199999995,352.65329664 L464.31972423668975,360.8277770192269" stroke="grey" stroke-width="5" />
<circle cx="464.31972423668975" cy="360.8277770192269" r="2.5" fill="grey" stroke="none" />
<path d="M464.31972423668975,360.8277770192269 A143.673204627571,143.673204627571,0,0,1,558.223992,368.65329664" stroke="grey" stroke-width="5" fill="none" />
<circle cx="462.22399199999995" cy="352.65329664" r="5" fill="black" stroke="none" />
<circle cx="558.223992" cy="368.65329664" r="5" fill="black" stroke="none" />
<path d="M558.223992,368.65329664 L549.3104234097843,388.76129352035923" stroke="grey" stroke-width="5" />
<circle cx="549.3104234097843" cy="388.76129352035923" r="2.5" fill="grey" stroke="none" />
<path d="M549.3104234097843,388.76129352035923 A121.67813146213204,121.67813146213204,0,0,1,606.223992,440.65329664" stroke="grey" stroke-width="5" fill="none" />
<circle cx="558.223992" cy="368.65329664" r="5" fill="black" stroke="none" />
<circle cx="606.223992" cy="440.65329664" r="5" fill="black" stroke="none" />
<path d="M558.223992,552.65329664 A78.5009738250163,78.5009738250163,0,0,0,566.108193022309,542.3333167469906" stroke="grey" stroke-width="5" fill="none" />
<path d="M566.108193022309,542.3333167469906 L582.223992,552.65329664" stroke="grey" stroke-width="5" />
<circle cx="566.108193022309" cy="542.3333167469906" r="2.5" fill="grey" stroke="none" />
<circle cx="558.223992" cy="552.65329664" r="5" fill="black" stroke="none" />
<circle cx="582.223992" cy="552.65329664" r="5" fill="black" stroke="none" />
<path d="M582.223992,552.65329664 A97.63787434943416,97.63787434943416,0,0,0,587.4805511530551,543.3625146576351" stroke="grey" stroke-width="5" fill="none" />
<path d="M587.4805511530551,543.362514657635 L606.223992,552.65329664" stroke="grey" stroke-width="5" />
<circle cx="587.4805511530551" cy="543.362514657635" r="2.5" fill="grey" stroke="none" />
<circle cx="582.223992" cy="552.65329664" r="5" fill="black" stroke="none" />
<circle cx="606.223992" cy="552.65329664" r="5" fill="black" stroke="none" />
<path d="M606.223992,552.65329664 L595.2206746276236,547.1991527811267" stroke="grey" stroke-width="5" />
<circle cx="595.2206746276236" cy="547.1991527811267" r="2.5" fill="grey" stroke="none" />
<path d="M595.2206746276236,547.1991527811267 A106.27669970316113,106.27669970316113,0,0,0,606.223992,496.65329664" stroke="grey" stroke-width="5" fill="none" />
<circle cx="606.223992" cy="552.65329664" r="5" fill="black" stroke="none" />
<circle cx="606.223992" cy="496.65329664" r="5" fill="black" stroke="none" />
<path d="M606.223992,496.65329664 A106.27669970316113,106.27669970316113,0,0,0,604.5566819905695,480.95696581637225" stroke="grey" stroke-width="5" fill="none" />
<path d="M604.5566819905695,480.95696581637225 L606.223992,480.65329664" stroke="grey" stroke-width="5" />
<circle cx="604.5566819905695" cy="480.95696581637225" r="2.5" fill="grey" stroke="none" />
<circle cx="606.223992" cy="496.65329664" r="5" fill="black" stroke="none" />
<circle cx="606.223992" cy="480.65329664" r="5" fill="black" stroke="none" />
<path d="M606.223992,480.65329664 A107.97143792372077,107.97143792372077,0,0,0,602.4484206188342,465.90964183200305" stroke="grey" stroke-width="5" fill="none" />
<path d="M602.4484206188342,465.90964183200305 L606.223992,464.65329664" stroke="grey" stroke-width="5" />
<circle cx="602.4484206188342" cy="465.90964183200305" r="2.5" fill="grey" stroke="none" />
<circle cx="606.223992" cy="480.65329664" r="5" fill="black" stroke="none" />
<circle cx="606.223992" cy="464.65329664" r="5" fill="black" stroke="none" />
<path d="M606.223992,464.65329664 A111.95055120380555,111.95055120380555,0,0,0,597.7318957200582,445.3977795891087" stroke="grey" stroke-width="5" fill="none" />
<path d="M597.7318957200582,445.3977795891087 L606.223992,440.65329664" stroke="grey" stroke-width="5" />
<circle cx="597.7318957200582" cy="445.3977795891087" r="2.5" fill="grey" stroke="none" />
<circle cx="606.223992" cy="464.65329664" r="5" fill="black" stroke="none" />
<circle cx="606.223992" cy="440.65329664" r="5" fill="black" stroke="none" />
<path d="M606.223992,440.65329664 A121.67813146213204,121.67813146213204,0,0,1,613.5603999141586,456.3009926033523" stroke="grey" stroke-width="5" fill="none" />
<path d="M613.5603999141586,456.3009926033523 L654.223992,440.65329664" stroke="grey" stroke-width="5" />
<circle cx="613.5603999141586" cy="456.3009926033523" r="2.5" fill="grey" stroke="none" />
<circle cx="606.223992" cy="440.65329664" r="5" fill="black" stroke="none" />
<circle cx="654.223992" cy="440.65329664" r="5" fill="black" stroke="none" />
<path d="M654.223992,440.65329664 L645.0630705983123,444.1784970830688" stroke="grey" stroke-width="5" />
<circle cx="645.0630705983123" cy="444.1784970830688" r="2.5" fill="grey" stroke="none" />
<path d="M645.0630705983123,444.1784970830688 A155.43273348724162,155.43273348724162,0,0,1,654.223992,480.65329664" stroke="grey" stroke-width="5" fill="none" />
<circle cx="654.223992" cy="440.65329664" r="5" fill="black" stroke="none" />
<circle cx="654.223992" cy="480.65329664" r="5" fill="black" stroke="none" />
<path d="M654.223992,480.65329664 L607.1317849527701,486.56080135762176" stroke="grey" stroke-width="5" />
<circle cx="607.1317849527701" cy="486.56080135762176" r="2.5" fill="grey" stroke="none" />
<path d="M607.1317849527701,486.56080135762176 A107.97143792372077,107.97143792372077,0,0,0,606.223992,480.65329664" stroke="grey" stroke-width="5" fill="none" />
<circle cx="654.223992" cy="480.65329664" r="5" fill="black" stroke="none" />
<circle cx="606.223992" cy="480.65329664" r="5" fill="black" stroke="none" />
<path d="M606.223992,464.65329664 A111.95055120380555,111.95055120380555,0,0,1,609.9868403498491,479.12367693551647" stroke="grey" stroke-width="5" fill="none" />
<path d="M609.9868403498491,479.12367693551647 L686.223992,464.65329664" stroke="grey" stroke-width="5" />
<circle cx="609.9868403498491" cy="479.12367693551647" r="2.5" fill="grey" stroke="none" />
<circle cx="606.223992" cy="464.65329664" r="5" fill="black" stroke="none" />
<circle cx="686.223992" cy="464.65329664" r="5" fill="black" stroke="none" />
<circle cx="500" cy="500" r="5" fill="red" stroke="none" />
</svg>