<?xml version="1.0" encoding="UTF-8"?>
<svg xmlns="http://www.w3.org/2000/svg" xmlns:xlink="http://www.w3.org/1999/xlink"
     width="1000" height="1000" viewBox="0 0 1000 1000">
<defs>
</defs>
<rect x="0" y="0" width="1000" height="1000" fill="white" />
<path d="M132.25879949999995,341.16806543999996 L157.50993844774683,352.07434203740297" stroke="grey" stroke-width="5" />
<circle cx="157.50993844774683" cy="352.07434203740297" r="2.5" fill="grey" stroke="none" />
<path d="M157.50993844774683,352.07434203740297 A373.070291695457,373.070291695457,0,0,0,132.25879949999995,437.16806543999996" stroke="grey" stroke-width="5" fill="none" />
<circle cx="132.25879949999995" cy="341.16806543999996" r="5" fill="black" stroke="none" />
<circle cx="132.25879949999995" cy="437.16806543999996" r="5" fill="black" stroke="none" />
<path d="M132.25879949999995,437.16806543999996 L200.52183818654083,448.83142753755067" stroke="grey" stroke-width="5" />
<circle cx="200.52183818654083" cy="448.83142753755067" r="2.5" fill="grey" stroke="none" />
<path d="M200.52183818654083,448.83142753755067 A303.81802482903043,303.81802482903043,0,0,0,196.25879949999995,493.1680654399999" stroke="grey" stroke-width="5" fill="none" />
<circle cx="132.25879949999995" cy="437.16806543999996" r="5" fill="black" stroke="none" />
<circle cx="196.25879949999995" cy="493.16806543999996" r="5" fill="black" stroke="none" />
<path d="M108.25879949999995,493.16806543999996 L196.22816787456821,494.70224404376313" stroke="grey" stroke-width="5" />
<circle cx="196.22816787456821" cy="494.70224404376313" r="2.5" fill="grey" stroke="none" />
<path d="M196.22816787456821,494.70224404376296 A303.81802482903043,303.81802482903043,0,0,1,196.25879949999995,493.1680654399999" stroke="grey" stroke-width="5" fill="none" />
<circle cx="108.25879949999995" cy="493.16806543999996" r="5" fill="black" stroke="none" />
<circle cx="196.25879949999995" cy="493.16806543999996" r="5" fill="black" stroke="none" />
<path d="M196.25879949999995,493.16806543999996 L266.95507051082996,494.7582096034752" stroke="grey" stroke-width="5" />
<circle cx="266.95507051082996" cy="494.7582096034752" r="2.5" fill="grey" stroke="none" />
<path d="M266.95507051082996,494.7582096034751 A233.10387282748724,233.10387282748724,0,0,0,268.25879949999995,525.1680654400001" stroke="grey" stroke-width="5" fill="none" />
<circle cx="196.25879949999995" cy="493.16806543999996" r="5" fill="black" stroke="none" />
<circle cx="268.25879949999995" cy="525.16806544" r="5" fill="black" stroke="none" />
<path d="M268.25879949999995,525.16806544 L281.6499729453285,523.7137278907716" stroke="grey" stroke-width="5" />
<circle cx="281.6499729453285" cy="523.7137278907716" r="2.5" fill="grey" stroke="none" />
<path d="M281.6499729453285,523.7137278907717 A219.63395731364798,219.63395731364798,0,0,0,284.25879949999995,541.16806544" stroke="grey" stroke-width="5" fill="none" />
<circle cx="268.25879949999995" cy="525.16806544" r="5" fill="black" stroke="none" />
<circle cx="284.25879949999995" cy="541.16806544" r="5" fill="black" stroke="none" />
<path d="M284.25879949999995,541.16806544 L305.73171306918107,537.0705712712702" stroke="grey" stroke-width="5" />
<circle cx="305.73171306918107" cy="537.0705712712702" r="2.5" fill="grey" stroke="none" />
<path d="M305.73171306918107,537.0705712712702 A197.77359419652902,197.77359419652902,0,0,0,316.2587995,573.16806544" stroke="grey" stroke-width="5" fill="none" />
<circle cx="284.25879949999995" cy="541.16806544" r="5" fill="black" stroke="none" />
<circle cx="316.25879949999995" cy="573.16806544" r="5" fill="black" stroke="none" />
<path d="M284.25879949999995,541.16806544 A219.63395731364798,219.63395731364798,0,0,0,307.58725429801143,605.907556371938" stroke="grey" stroke-width="5" fill="none" />
<path d="M307.58725429801143,605.907556371938 L-263.74120050000005,145.16806544" stroke="grey" stroke-width="5" />
<circle cx="307.58725429801143" cy="605.907556371938" r="2.5" fill="grey" stroke="none" />
<circle cx="284.25879949999995" cy="541.16806544" r="5" fill="black" stroke="none" />
<circle cx="236.25879949999995" cy="645.16806544" r="5" fill="black" stroke="none" />
<path d="M236.25879949999995,645.16806544 A301.0534637979994,301.0534637979994,0,0,0,271.039341477839,695.4743075543989" stroke="grey" stroke-width="5" fill="none" />
<path d="M271.0393414778391,695.474307554399 L-263.74120050000005,225.16806544" stroke="grey" stroke-width="5" />
<circle cx="271.0393414778391" cy="695.474307554399" r="2.5" fill="grey" stroke="none" />
<circle cx="236.25879949999995" cy="645.16806544" r="5" fill="black" stroke="none" />
<circle cx="236.25879949999995" cy="725.16806544" r="5" fill="black" stroke="none" />
<path d="M132.25879949999995,741.16806544 L210.012213519424,690.1766605745017" stroke="grey" stroke-width="5" />
<circle cx="210.012213519424" cy="690.1766605745017" r="2.5" fill="grey" stroke="none" />
<path d="M210.012213519424,690.1766605745017 A346.785349366396,346.785349366396,0,0,0,236.25879949999984,725.1680654399999" stroke="grey" stroke-width="5" fill="none" />
<circle cx="132.25879949999995" cy="741.16806544" r="5" fill="black" stroke="none" />
<circle cx="236.25879949999995" cy="725.16806544" r="5" fill="black" stroke="none" />
<path d="M236.25879949999984,725.1680654399999 A346.785349366396,346.785349366396,0,0,0,289.45143128934285,775.5528601721765" stroke="grey" stroke-width="5" fill="none" />
<path d="M289.45143128934285,775.5528601721765 L-263.74120050000005,345.16806543999996" stroke="grey" stroke-width="5" />
<circle cx="289.45143128934285" cy="775.5528601721765" r="2.5" fill="grey" stroke="none" />
<circle cx="236.25879949999995" cy="725.16806544" r="5" fill="black" stroke="none" />
<circle cx="236.25879949999995" cy="845.16806544" r="5" fill="black" stroke="none" />
<path d="M236.25879949999995,645.16806544 L294.85465143406816,612.9158179642501" stroke="grey" stroke-width="5" />
<circle cx="294.85465143406816" cy="612.9158179642501" r="2.5" fill="grey" stroke="none" />
<path d="M294.85465143406816,612.9158179642501 A234.16787991689498,234.16787991689498,0,0,0,316.2587994999999,645.16806544" stroke="grey" stroke-width="5" fill="none" />
<circle cx="236.25879949999995" cy="645.16806544" r="5" fill="black" stroke="none" />
<circle cx="316.25879949999995" cy="645.16806544" r="5" fill="black" stroke="none" />
<path d="M316.2587995,573.16806544 A197.77359419652902,197.77359419652902,0,0,0,344.8157892629566,622.6060981327366" stroke="grey" stroke-width="5" fill="none" />
<path d="M344.8157892629566,622.6060981327366 L-183.74120050000005,145.16806544" stroke="grey" stroke-width="5" />
<circle cx="344.8157892629566" cy="622.6060981327366" r="2.5" fill="grey" stroke="none" />
<circle cx="316.25879949999995" cy="573.16806544" r="5" fill="black" stroke="none" />
<circle cx="316.25879949999995" cy="645.16806544" r="5" fill="black" stroke="none" />
<path d="M316.25879949999995,645.16806544 L356.2561356921111,613.5674451002952" stroke="grey" stroke-width="5" />
<circle cx="356.2561356921111" cy="613.5674451002952" r="2.5" fill="grey" stroke="none" />
<path d="M356.2561356921111,613.5674451002952 A183.19351274751332,183.19351274751332,0,0,0,388.25879949999995,645.16806544" stroke="grey" stroke-width="5" fill="none" />
<circle cx="316.25879949999995" cy="645.16806544" r="5" fill="black" stroke="none" />
<circle cx="388.25879949999995" cy="645.16806544" r="5" fill="black" stroke="none" />
<path d="M316.25879949999995,573.16806544 L350.15198963969556,559.671369286044" stroke="grey" stroke-width="5" />
<circle cx="350.15198963969556" cy="559.671369286044" r="2.5" fill="grey" stroke="none" />
<path d="M350.15198963969556,559.671369286044 A161.29196669832425,161.29196669832425,0,0,0,356.2587994999999,573.16806544" stroke="grey" stroke-width="5" fill="none" />
<circle cx="316.25879949999995" cy="573.16806544" r="5" fill="black" stroke="none" />
<circle cx="356.25879949999995" cy="573.16806544" r="5" fill="black" stroke="none" />
<path d="M388.25879949999995,645.16806544 L434.23718136330126,585.4354626284073" stroke="grey" stroke-width="5" />
<circle cx="434.23718136330126" cy="585.4354626284073" r="2.5" fill="grey" stroke="none" />
<path d="M434.23718136330126,585.4354626284073 A107.81450083162896,107.81450083162896,0,0,0,476.25879949999995,605.16806544" stroke="grey" stroke-width="5" fill="none" />
<circle cx="388.25879949999995" cy="645.16806544" r="5" fill="black" stroke="none" />
<circle cx="476.25879949999995" cy="605.16806544" r="5" fill="black" stroke="none" />
<path d="M356.25879949999995,573.16806544 L434.7932102931659,533.1919772466485" stroke="grey" stroke-width="5" />
<circle cx="434.7932102931659" cy="533.1919772466485" r="2.5" fill="grey" stroke="none" />
<path d="M434.7932102931659,533.1919772466485 A73.16852313265126,73.16852313265126,0,0,0,500.25879949999995,573.16806544" stroke="grey" stroke-width="5" fill="none" />
<circle cx="356.25879949999995" cy="573.16806544" r="5" fill="black" stroke="none" />
<circle cx="500.25879949999995" cy="573.16806544" r="5" fill="black" stroke="none" />
<path d="M476.25879949999995,605.16806544 L483.88798756584737,571.372514546813" stroke="grey" stroke-width="5" />
<circle cx="483.88798756584737" cy="571.372514546813" r="2.5" fill="grey" stroke="none" />
<path d="M483.88798756584737,571.372514546813 A73.16852313265126,73.16852313265126,0,0,0,500.25879949999995,573.16806544" stroke="grey" stroke-width="5" fill="none" />
<circle cx="476.25879949999995" cy="605.16806544" r="5" fill="black" stroke="none" />
<circle cx="500.25879949999995" cy="573.16806544" r="5" fill="black" stroke="none" />
<path d="M236.25879949999995,725.16806544 L296.8338629557222,673.4523311278319" stroke="grey" stroke-width="5" />
<circle cx="296.8338629557222" cy="673.4523311278319" r="2.5" fill="grey" stroke="none" />
<path d="M296.8338629557221,673.4523311278319 A267.1370255415249,267.1370255415249,0,0,0,356.2587994999999,725.16806544" stroke="grey" stroke-width="5" fill="none" />
<circle cx="236.25879949999995" cy="725.16806544" r="5" fill="black" stroke="none" />
<circle cx="356.25879949999995" cy="725.16806544" r="5" fill="black" stroke="none" />
<path d="M356.25879949999995,725.16806544 L425.9017920468094,616.0735410540191" stroke="grey" stroke-width="5" />
<circle cx="425.9017920468094" cy="616.0735410540191" r="2.5" fill="grey" stroke="none" />
<path d="M425.9017920468094,616.0735410540191 A137.70842877142024,137.70842877142024,0,0,0,452.25879949999995,629.16806544" stroke="grey" stroke-width="5" fill="none" />
<circle cx="356.25879949999995" cy="725.16806544" r="5" fill="black" stroke="none" />
<circle cx="452.25879949999995" cy="629.16806544" r="5" fill="black" stroke="none" />
<path d="M452.25879949999995,629.16806544 L462.62252247788,601.1280908731928" stroke="grey" stroke-width="5" />
<circle cx="462.62252247788" cy="601.1280908731928" r="2.5" fill="grey" stroke="none" />
<path d="M462.62252247788,601.1280908731928 A107.81450083162896,107.81450083162896,0,0,0,476.25879949999995,605.16806544" stroke="grey" stroke-width="5" fill="none" />
<circle cx="452.25879949999995" cy="629.16806544" r="5" fill="black" stroke="none" />
<circle cx="476.25879949999995" cy="605.16806544" r="5" fill="black" stroke="none" />
<path d="M476.25879949999995,605.16806544 A107.81450083162896,107.81450083162896,0,0,0,480.5100800283536,606.0382459731966" stroke="grey" stroke-width="5" fill="none" />
<path d="M480.5100800283536,606.0382459731966 L-23.741200500000048,129.16806544" stroke="grey" stroke-width="5" />
<circle cx="480.5100800283536" cy="606.0382459731966" r="2.5" fill="grey" stroke="none" />
<circle cx="476.25879949999995" cy="605.16806544" r="5" fill="black" stroke="none" />
<circle cx="476.25879949999995" cy="629.16806544" r="5" fill="black" stroke="none" />
<path d="M476.25879949999995,629.16806544 A131.33176969299288,131.33176969299288,0,0,0,489.8135445956937,630.9361289216594" stroke="grey" stroke-width="5" fill="none" />
<path d="M489.81354459569377,630.9361289216594 L-23.741200500000048,305.16806543999996" stroke="grey" stroke-width="5" />
<circle cx="489.81354459569377" cy="630.9361289216594" r="2.5" fill="grey" stroke="none" />
<circle cx="476.25879949999995" cy="629.16806544" r="5" fill="black" stroke="none" />
<circle cx="476.25879949999995" cy="805.16806544" r="5" fill="black" stroke="none" />
<path d="M476.2587994999999,805.16806544 A306.090170971845,306.090170971845,0,0,0,570.5270001550197,797.8542177218701" stroke="grey" stroke-width="5" fill="none" />
<path d="M570.5270001550197,797.8542177218701 L72.25879949999995,305.16806543999996" stroke="grey" stroke-width="5" />
<circle cx="570.5270001550197" cy="797.8542177218701" r="2.5" fill="grey" stroke="none" />
<circle cx="476.25879949999995" cy="805.16806544" r="5" fill="black" stroke="none" />
<circle cx="572.2587994999999" cy="805.16806544" r="5" fill="black" stroke="none" />
<path d="M476.2587994999999,805.16806544 A306.090170971845,306.090170971845,0,0,0,479.4698768204821,805.4008952308541" stroke="grey" stroke-width="5" fill="none" />
<path d="M479.4698768204821,805.4008952308541 L-23.741200500000048,353.16806543999996" stroke="grey" stroke-width="5" />
<circle cx="479.4698768204821" cy="805.4008952308541" r="2.5" fill="grey" stroke="none" />
<circle cx="476.25879949999995" cy="805.16806544" r="5" fill="black" stroke="none" />
<circle cx="476.25879949999995" cy="853.16806544" r="5" fill="black" stroke="none" />
<path d="M164.25879949999995,429.16806543999996 L343.20566637340494,466.9208129288923" stroke="grey" stroke-width="5" />
<circle cx="343.20566637340494" cy="466.9208129288923" r="2.5" fill="grey" stroke="none" />
<path d="M343.20566637340494,466.9208129288923 A160.2457352777082,160.2457352777082,0,0,1,356.25879949999995,429.16806543999996" stroke="grey" stroke-width="5" fill="none" />
<circle cx="164.25879949999995" cy="429.16806543999996" r="5" fill="black" stroke="none" />
<circle cx="356.25879949999995" cy="429.16806543999996" r="5" fill="black" stroke="none" />
<path d="M356.25879949999995,429.16806543999996 A160.2457352777082,160.2457352777082,0,0,0,357.19118667016477,572.6934557578439" stroke="grey" stroke-width="5" fill="none" />
<path d="M357.19118667016477,572.6934557578439 L-143.74120050000005,73.16806543999999" stroke="grey" stroke-width="5" />
<circle cx="357.19118667016477" cy="572.6934557578439" r="2.5" fill="grey" stroke="none" />
<circle cx="356.25879949999995" cy="429.16806543999996" r="5" fill="black" stroke="none" />
<circle cx="356.25879949999995" cy="573.16806544" r="5" fill="black" stroke="none" />
<path d="M356.25879949999995,429.16806543999996 A160.2457352777082,160.2457352777082,0,0,1,389.44870734298297,383.99522696649115" stroke="grey" stroke-width="5" fill="none" />
<path d="M389.44870734298297,383.9952269664911 L-143.74120050000005,-150.83193456" stroke="grey" stroke-width="5" />
<circle cx="389.44870734298297" cy="383.9952269664911" r="2.5" fill="grey" stroke="none" />
<circle cx="356.25879949999995" cy="429.16806543999996" r="5" fill="black" stroke="none" />
<circle cx="356.25879949999995" cy="349.16806543999996" r="5" fill="black" stroke="none" />
<path d="M356.2587994999999,349.1680654400001 A208.35499803050882,208.35499803050882,0,0,1,381.0949657035408,328.90529516302615" stroke="grey" stroke-width="5" fill="none" />
<path d="M381.0949657035408,328.90529516302615 L-143.74120050000005,-206.83193456" stroke="grey" stroke-width="5" />
<circle cx="381.0949657035408" cy="328.90529516302615" r="2.5" fill="grey" stroke="none" />
<circle cx="356.25879949999995" cy="349.16806543999996" r="5" fill="black" stroke="none" />
<circle cx="356.25879949999995" cy="293.16806543999996" r="5" fill="black" stroke="none" />
<path d="M356.25879949999995,349.16806543999996 L449.8430407809298,447.36880473835066" stroke="grey" stroke-width="5" />
<circle cx="449.8430407809298" cy="447.36880473835066" r="2.5" fill="grey" stroke="none" />
<path d="M449.84304078092975,447.3688047383507 A72.70325489806717,72.70325489806717,0,0,1,452.25879949999995,445.16806543999996" stroke="grey" stroke-width="5" fill="none" />
<circle cx="356.25879949999995" cy="349.16806543999996" r="5" fill="black" stroke="none" />
<circle cx="452.25879949999995" cy="445.16806543999996" r="5" fill="black" stroke="none" />
<path d="M356.25879949999995,429.16806543999996 L434.78482830638274,467.86365525226387" stroke="grey" stroke-width="5" />
<circle cx="434.78482830638274" cy="467.86365525226387" r="2.5" fill="grey" stroke="none" />
<path d="M434.78482830638274,467.86365525226387 A72.70325489806717,72.70325489806717,0,0,1,452.25879949999995,445.16806543999996" stroke="grey" stroke-width="5" fill="none" />
<circle cx="356.25879949999995" cy="429.16806543999996" r="5" fill="black" stroke="none" />
<circle cx="452.25879949999995" cy="445.16806543999996" r="5" fill="black" stroke="none" />
<path d="M452.25879949999995,445.16806543999996 L488.7251653894104,487.0505771311161" stroke="grey" stroke-width="5" />
<circle cx="488.7251653894104" cy="487.0505771311161" r="2.5" fill="grey" stroke="none" />
<path d="M488.7251653894104,487.0505771311161 A17.170015961941395,17.170015961941395,0,0,0,500.25879949999995,517.16806544" stroke="grey" stroke-width="5" fill="none" />
<circle cx="452.25879949999995" cy="445.16806543999996" r="5" fill="black" stroke="none" />
<circle cx="500.25879949999995" cy="517.16806544" r="5" fill="black" stroke="none" />
<path d="M452.25879949999995,629.16806544 L454.4694801554932,623.1868722444981" stroke="grey" stroke-width="5" />
<circle cx="454.4694801554932" cy="623.1868722444981" r="2.5" fill="grey" stroke="none" />
<path d="M454.46948015549316,623.1868722444981 A131.33176969299288,131.33176969299288,0,0,0,476.25879949999995,629.16806544" stroke="grey" stroke-width="5" fill="none" />
<circle cx="452.25879949999995" cy="629.16806544" r="5" fill="black" stroke="none" />
<circle cx="476.25879949999995" cy="629.16806544" r="5" fill="black" stroke="none" />
<path d="M476.25879949999995,629.16806544 L476.6498913233094,627.0402634265218" stroke="grey" stroke-width="5" />
<circle cx="476.6498913233094" cy="627.0402634265218" r="2.5" fill="grey" stroke="none" />
<path d="M476.6498913233094,627.0402634265218 A129.16832470344005,129.16832470344005,0,0,0,500.2587995,629.16806544" stroke="grey" stroke-width="5" fill="none" />
<circle cx="476.25879949999995" cy="629.16806544" r="5" fill="black" stroke="none" />
<circle cx="500.25879949999995" cy="629.16806544" r="5" fill="black" stroke="none" />
<path d="M500.25879949999995,629.16806544 L500.14659923201714,573.1683762706164" stroke="grey" stroke-width="5" />
<circle cx="500.14659923201714" cy="573.1683762706164" r="2.5" fill="grey" stroke="none" />
<path d="M500.14659923201714,573.1683762706164 A73.16852313265126,73.16852313265126,0,0,0,500.25879949999995,573.16806544" stroke="grey" stroke-width="5" fill="none" />
<circle cx="500.25879949999995" cy="629.16806544" r="5" fill="black" stroke="none" />
<circle cx="500.25879949999995" cy="573.16806544" r="5" fill="black" stroke="none" />
<path d="M500.25879949999995,573.16806544 L500.2022074209,557.1682936206098" stroke="grey" stroke-width="5" />
<circle cx="500.2022074209" cy="557.1682936206098" r="2.5" fill="grey" stroke="none" />
<path d="M500.2022074209,557.1682936206098 A57.168651228914975,57.168651228914975,0,0,0,500.25879949999995,557.16806544" stroke="grey" stroke-width="5" fill="none" />
<circle cx="500.25879949999995" cy="573.16806544" r="5" fill="black" stroke="none" />
<circle cx="500.25879949999995" cy="557.16806544" r="5" fill="black" stroke="none" />
<path d="M500.25879949999995,557.16806544 L500.1863693657952,541.1684570479975" stroke="grey" stroke-width="5" />
<circle cx="500.1863693657952" cy="541.1684570479975" r="2.5" fill="grey" stroke="none" />
<path d="M500.1863693657952,541.1684570479975 A41.16887889235414,41.16887889235414,0,0,0,500.25879949999995,541.16806544" stroke="grey" stroke-width="5" fill="none" />
<circle cx="500.25879949999995" cy="557.16806544" r="5" fill="black" stroke="none" />
<circle cx="500.25879949999995" cy="541.16806544" r="5" fill="black" stroke="none" />
<path d="M500.25879949999995,541.16806544 L500.107935694765,517.1696767010657" stroke="grey" stroke-width="5" />
<circle cx="500.107935694765" cy="517.1696767010657" r="2.5" fill="grey" stroke="none" />
<path d="M500.107935694765,517.1696767010657 A17.170015961941395,17.170015961941395,0,0,0,500.25879949999995,517.16806544" stroke="grey" stroke-width="5" fill="none" />
<circle cx="500.25879949999995" cy="541.16806544" r="5" fill="black" stroke="none" />
<circle cx="500.25879949999995" cy="517.16806544" r="5" fill="black" stroke="none" />
<path d="M500.25879949999995,517.16806544 A17.170015961941395,17.170015961941395,0,0,0,516.1768484136425,505.75491299111934" stroke="grey" stroke-width="5" fill="none" />
<path d="M516.1768484136425,505.75491299111934 L48.25879949999995,17.168065439999992" stroke="grey" stroke-width="5" />
<circle cx="516.1768484136425" cy="505.75491299111934" r="2.5" fill="grey" stroke="none" />
<circle cx="500.25879949999995" cy="517.16806544" r="5" fill="black" stroke="none" />
<circle cx="548.2587994999999" cy="517.16806544" r="5" fill="black" stroke="none" />
<path d="M548.2587994999999,517.16806544 A51.22161848412561,51.22161848412561,0,0,1,533.0406285003917,539.1404019963059" stroke="grey" stroke-width="5" fill="none" />
<path d="M533.0406285003917,539.1404019963059 L48.25879949999995,57.16806543999999" stroke="grey" stroke-width="5" />
<circle cx="533.0406285003917" cy="539.1404019963059" r="2.5" fill="grey" stroke="none" />
<circle cx="548.2587994999999" cy="517.16806544" r="5" fill="black" stroke="none" />
<circle cx="548.2587994999999" cy="557.16806544" r="5" fill="black" stroke="none" />
<path d="M548.2587994999999,557.16806544 L536.8767763109328,543.6847576649653" stroke="grey" stroke-width="5" />
<circle cx="536.8767763109328" cy="543.6847576649653" r="2.5" fill="grey" stroke="none" />
<path d="M536.8767763109328,543.6847576649653 A57.168651228914975,57.168651228914975,0,0,1,500.25879949999995,557.16806544" stroke="grey" stroke-width="5" fill="none" />
<circle cx="548.2587994999999" cy="557.16806544" r="5" fill="black" stroke="none" />
<circle cx="500.25879949999995" cy="557.16806544" r="5" fill="black" stroke="none" />
<path d="M500.25879949999995,541.16806544 A41.16887889235414,41.16887889235414,0,0,0,536.6309883413411,518.7895524797652" stroke="grey" stroke-width="5" fill="none" />
<path d="M536.6309883413411,518.7895524797652 L80.25879949999995,41.16806543999999" stroke="grey" stroke-width="5" />
<circle cx="536.6309883413411" cy="518.7895524797652" r="2.5" fill="grey" stroke="none" />
<circle cx="500.25879949999995" cy="541.16806544" r="5" fill="black" stroke="none" />
<circle cx="580.2587994999999" cy="541.16806544" r="5" fill="black" stroke="none" />
<circle cx="500" cy="500" r="5" fill="red" stroke="none" />
</svg>