<?xml version="1.0" encoding="UTF-8"?>
<svg xmlns="http://www.w3.org/2000/svg" xmlns:xlink="http://www.w3.org/1999/xlink"
     width="1000" height="1000" viewBox="0 0 1000 1000">
<defs>
</defs>
<rect x="0" y="0" width="1000" height="1000" fill="white" />
<path d="M197.66791949999993,287.47465103999997 L234.9285069848009,313.6671058551348" stroke="grey" stroke-width="5" />
<circle cx="234.9285069848009" cy="313.6671058551348" r="2.5" fill="grey" stroke="none" />
<path d="M234.92850698480095,313.66710585513465 A324.0105613243314,324.0105613243314,0,0,0,197.66791949999993,383.47465104" stroke="grey" stroke-width="5" fill="none" />
<circle cx="197.66791949999993" cy="287.47465103999997" r="5" fill="black" stroke="none" />
<circle cx="197.66791949999993" cy="383.47465103999997" r="5" fill="black" stroke="none" />
<path d="M197.66791949999993,383.47465103999997 L270.55484850833534,411.5668562180709" stroke="grey" stroke-width="5" />
<circle cx="270.55484850833534" cy="411.5668562180709" r="2.5" fill="grey" stroke="none" />
<path d="M270.55484850833534,411.5668562180709 A245.8973331742097,245.8973331742097,0,0,0,261.6679194999999,439.4746510399998" stroke="grey" stroke-width="5" fill="none" />
<circle cx="197.66791949999993" cy="383.47465103999997" r="5" fill="black" stroke="none" />
<circle cx="261.6679194999999" cy="439.47465103999997" r="5" fill="black" stroke="none" />
<path d="M173.66791949999993,439.47465103999997 L258.22598704606344,455.157775229835" stroke="grey" stroke-width="5" />
<circle cx="258.22598704606344" cy="455.157775229835" r="2.5" fill="grey" stroke="none" />
<path d="M258.22598704606344,455.1577752298351 A245.8973331742097,245.8973331742097,0,0,1,261.6679194999999,439.4746510399998" stroke="grey" stroke-width="5" fill="none" />
<circle cx="173.66791949999993" cy="439.47465103999997" r="5" fill="black" stroke="none" />
<circle cx="261.6679194999999" cy="439.47465103999997" r="5" fill="black" stroke="none" />
<path d="M261.6679194999999,439.47465103999997 L336.43171168074423,458.46120376013397" stroke="grey" stroke-width="5" />
<circle cx="336.43171168074423" cy="458.46120376013397" r="2.5" fill="grey" stroke="none" />
<path d="M336.4317116807443,458.46120376013386 A168.76035238393015,168.76035238393015,0,0,0,333.6679194999999,471.4746510400001" stroke="grey" stroke-width="5" fill="none" />
<circle cx="261.6679194999999" cy="439.47465103999997" r="5" fill="black" stroke="none" />
<circle cx="333.6679194999999" cy="471.47465103999997" r="5" fill="black" stroke="none" />
<path d="M333.6679194999999,471.47465103999997 L351.3176339970965,474.50151310750147" stroke="grey" stroke-width="5" />
<circle cx="351.3176339970965" cy="474.50151310750147" r="2.5" fill="grey" stroke="none" />
<path d="M351.3176339970965,474.5015131075015 A150.85297078290594,150.85297078290594,0,0,0,349.6679194999999,487.4746510400001" stroke="grey" stroke-width="5" fill="none" />
<circle cx="333.6679194999999" cy="471.47465103999997" r="5" fill="black" stroke="none" />
<circle cx="349.6679194999999" cy="487.47465103999997" r="5" fill="black" stroke="none" />
<path d="M349.6679194999999,487.47465103999997 L380.490186927224,490.0426967557275" stroke="grey" stroke-width="5" />
<circle cx="380.490186927224" cy="490.0426967557275" r="2.5" fill="grey" stroke="none" />
<path d="M380.490186927224,490.04269675572755 A119.92390632642129,119.92390632642129,0,0,0,381.6679194999999,519.47465104" stroke="grey" stroke-width="5" fill="none" />
<circle cx="349.6679194999999" cy="487.47465103999997" r="5" fill="black" stroke="none" />
<circle cx="381.6679194999999" cy="519.47465104" r="5" fill="black" stroke="none" />
<path d="M349.6679194999999,487.4746510400001 A150.85297078290594,150.85297078290594,0,0,0,363.0150169670557,563.1801647472705" stroke="grey" stroke-width="5" fill="none" />
<path d="M363.01501696705566,563.1801647472704 L-198.33208050000007,91.47465103999997" stroke="grey" stroke-width="5" />
<circle cx="363.01501696705566" cy="563.1801647472704" r="2.5" fill="grey" stroke="none" />
<circle cx="349.6679194999999" cy="487.47465103999997" r="5" fill="black" stroke="none" />
<circle cx="301.6679194999999" cy="591.47465104" r="5" fill="black" stroke="none" />
<path d="M301.6679194999999,591.47465104 A218.41068183206673,218.41068183206673,0,0,0,334.7792078684758,642.8471763311405" stroke="grey" stroke-width="5" fill="none" />
<path d="M334.7792078684758,642.8471763311405 L-198.33208050000007,171.47465103999997" stroke="grey" stroke-width="5" />
<circle cx="334.7792078684758" cy="642.8471763311405" r="2.5" fill="grey" stroke="none" />
<circle cx="301.6679194999999" cy="591.47465104" r="5" fill="black" stroke="none" />
<circle cx="301.6679194999999" cy="671.47465104" r="5" fill="black" stroke="none" />
<path d="M197.66791949999993,687.47465104 L277.1806804754488,638.1691751128458" stroke="grey" stroke-width="5" />
<circle cx="277.1806804754488" cy="638.1691751128458" r="2.5" fill="grey" stroke="none" />
<path d="M277.1806804754488,638.1691751128458 A262.18155942924034,262.18155942924034,0,0,0,301.66791949999987,671.4746510399999" stroke="grey" stroke-width="5" fill="none" />
<circle cx="197.66791949999993" cy="687.47465104" r="5" fill="black" stroke="none" />
<circle cx="301.6679194999999" cy="671.47465104" r="5" fill="black" stroke="none" />
<path d="M301.66791949999987,671.4746510399999 A262.18155942924034,262.18155942924034,0,0,0,352.5069271304325,716.760152150345" stroke="grey" stroke-width="5" fill="none" />
<path d="M352.5069271304325,716.760152150345 L-198.33208050000007,291.47465103999997" stroke="grey" stroke-width="5" />
<circle cx="352.5069271304325" cy="716.760152150345" r="2.5" fill="grey" stroke="none" />
<circle cx="301.6679194999999" cy="671.47465104" r="5" fill="black" stroke="none" />
<circle cx="301.6679194999999" cy="791.47465104" r="5" fill="black" stroke="none" />
<path d="M301.6679194999999,591.47465104 L364.1833580507086,562.6413028916724" stroke="grey" stroke-width="5" />
<circle cx="364.1833580507086" cy="562.6413028916724" r="2.5" fill="grey" stroke="none" />
<path d="M364.18335805070865,562.6413028916725 A149.5663500201441,149.5663500201441,0,0,0,381.6679194999999,591.47465104" stroke="grey" stroke-width="5" fill="none" />
<circle cx="301.6679194999999" cy="591.47465104" r="5" fill="black" stroke="none" />
<circle cx="381.6679194999999" cy="591.47465104" r="5" fill="black" stroke="none" />
<path d="M381.6679194999999,519.47465104 A119.92390632642129,119.92390632642129,0,0,0,405.12006654316775,573.3453579704629" stroke="grey" stroke-width="5" fill="none" />
<path d="M405.12006654316775,573.3453579704629 L-118.33208050000007,91.47465103999997" stroke="grey" stroke-width="5" />
<circle cx="405.12006654316775" cy="573.3453579704629" r="2.5" fill="grey" stroke="none" />
<circle cx="381.6679194999999" cy="519.47465104" r="5" fill="black" stroke="none" />
<circle cx="381.6679194999999" cy="591.47465104" r="5" fill="black" stroke="none" />
<path d="M381.6679194999999,591.47465104 L418.8743407291556,562.7128445712608" stroke="grey" stroke-width="5" />
<circle cx="418.8743407291556" cy="562.7128445712608" r="2.5" fill="grey" stroke="none" />
<path d="M418.8743407291556,562.7128445712608 A102.53913139064645,102.53913139064645,0,0,0,453.6679194999999,591.4746510399999" stroke="grey" stroke-width="5" fill="none" />
<circle cx="381.6679194999999" cy="591.47465104" r="5" fill="black" stroke="none" />
<circle cx="453.6679194999999" cy="591.47465104" r="5" fill="black" stroke="none" />
<path d="M381.6679194999999,519.47465104 L420.35475751826357,513.1077159953086" stroke="grey" stroke-width="5" />
<circle cx="420.35475751826357" cy="513.1077159953086" r="2.5" fill="grey" stroke="none" />
<path d="M420.35475751826357,513.1077159953087 A80.71664554841377,80.71664554841377,0,0,0,421.6679194999999,519.47465104" stroke="grey" stroke-width="5" fill="none" />
<circle cx="381.6679194999999" cy="519.47465104" r="5" fill="black" stroke="none" />
<circle cx="421.6679194999999" cy="519.47465104" r="5" fill="black" stroke="none" />
<path d="M453.6679194999999,591.47465104 L470.076022921592,559.0796988055894" stroke="grey" stroke-width="5" />
<circle cx="470.076022921592" cy="559.0796988055894" r="2.5" fill="grey" stroke="none" />
<path d="M470.076022921592,559.0796988055894 A66.22578965288555,66.22578965288555,0,0,0,541.6679194999999,551.4746510399999" stroke="grey" stroke-width="5" fill="none" />
<circle cx="453.6679194999999" cy="591.47465104" r="5" fill="black" stroke="none" />
<circle cx="541.6679194999999" cy="551.47465104" r="5" fill="black" stroke="none" />
<path d="M421.6679194999999,519.47465104 L433.52870174566453,516.5258643638214" stroke="grey" stroke-width="5" />
<circle cx="433.52870174566453" cy="516.5258643638214" r="2.5" fill="grey" stroke="none" />
<path d="M433.52870174566453,516.5258643638215 A68.49480042009206,68.49480042009206,0,0,0,565.6679194999999,519.47465104" stroke="grey" stroke-width="5" fill="none" />
<circle cx="421.6679194999999" cy="519.47465104" r="5" fill="black" stroke="none" />
<circle cx="565.6679194999999" cy="519.47465104" r="5" fill="black" stroke="none" />
<path d="M541.6679194999999,551.4746510399999 A66.22578965288555,66.22578965288555,0,0,0,563.4925541366191,518.8295189624359" stroke="grey" stroke-width="5" fill="none" />
<path d="M563.4925541366191,518.8295189624359 L65.66791949999993,19.47465103999997" stroke="grey" stroke-width="5" />
<circle cx="563.4925541366191" cy="518.8295189624359" r="2.5" fill="grey" stroke="none" />
<circle cx="541.6679194999999" cy="551.47465104" r="5" fill="black" stroke="none" />
<circle cx="565.6679194999999" cy="519.47465104" r="5" fill="black" stroke="none" />
<path d="M301.6679194999999,671.47465104 L357.3912071787529,623.2972140594218" stroke="grey" stroke-width="5" />
<circle cx="357.3912071787529" cy="623.2972140594218" r="2.5" fill="grey" stroke="none" />
<path d="M357.3912071787529,623.2972140594218 A188.5191523022217,188.5191523022217,0,0,0,421.6679194999999,671.47465104" stroke="grey" stroke-width="5" fill="none" />
<circle cx="301.6679194999999" cy="671.47465104" r="5" fill="black" stroke="none" />
<circle cx="421.6679194999999" cy="671.47465104" r="5" fill="black" stroke="none" />
<path d="M421.6679194999999,671.47465104 L467.7915335699302,570.5066877628733" stroke="grey" stroke-width="5" />
<circle cx="467.7915335699302" cy="570.5066877628733" r="2.5" fill="grey" stroke="none" />
<path d="M467.7915335699302,570.5066877628733 A77.51502002236887,77.51502002236887,0,0,0,517.6679194999999,575.47465104" stroke="grey" stroke-width="5" fill="none" />
<circle cx="421.6679194999999" cy="671.47465104" r="5" fill="black" stroke="none" />
<circle cx="517.6679194999999" cy="575.47465104" r="5" fill="black" stroke="none" />
<path d="M517.6679194999999,575.47465104 L515.0947767293804,564.482578504883" stroke="grey" stroke-width="5" />
<circle cx="515.0947767293804" cy="564.482578504883" r="2.5" fill="grey" stroke="none" />
<path d="M515.0947767293804,564.482578504883 A66.22578965288555,66.22578965288555,0,0,0,541.6679194999999,551.4746510399999" stroke="grey" stroke-width="5" fill="none" />
<circle cx="517.6679194999999" cy="575.47465104" r="5" fill="black" stroke="none" />
<circle cx="541.6679194999999" cy="551.47465104" r="5" fill="black" stroke="none" />
<path d="M541.6679194999999,551.4746510399999 A66.22578965288555,66.22578965288555,0,0,1,532.007920342276,557.9771355838727" stroke="grey" stroke-width="5" fill="none" />
<path d="M532.007920342276,557.9771355838727 L41.667919499999925,75.47465103999997" stroke="grey" stroke-width="5" />
<circle cx="532.007920342276" cy="557.9771355838727" r="2.5" fill="grey" stroke="none" />
<circle cx="541.6679194999999" cy="551.47465104" r="5" fill="black" stroke="none" />
<circle cx="541.6679194999999" cy="575.47465104" r="5" fill="black" stroke="none" />
<path d="M541.6679194999999,575.47465104 A86.21275117445356,86.21275117445356,0,0,1,514.0928161081631,585.0531069344897" stroke="grey" stroke-width="5" fill="none" />
<path d="M514.0928161081631,585.0531069344897 L41.667919499999925,251.47465103999997" stroke="grey" stroke-width="5" />
<circle cx="514.0928161081631" cy="585.0531069344897" r="2.5" fill="grey" stroke="none" />
<circle cx="541.6679194999999" cy="575.47465104" r="5" fill="black" stroke="none" />
<circle cx="541.6679194999999" cy="751.47465104" r="5" fill="black" stroke="none" />
<path d="M541.6679194999999,751.47465104 A254.90334566487792,254.90334566487792,0,0,0,622.4034409084662,723.5913980566244" stroke="grey" stroke-width="5" fill="none" />
<path d="M622.4034409084662,723.5913980566244 L137.66791949999993,251.47465103999997" stroke="grey" stroke-width="5" />
<circle cx="622.4034409084662" cy="723.5913980566244" r="2.5" fill="grey" stroke="none" />
<circle cx="541.6679194999999" cy="751.47465104" r="5" fill="black" stroke="none" />
<circle cx="637.6679194999999" cy="751.47465104" r="5" fill="black" stroke="none" />
<path d="M541.6679194999999,751.47465104 A254.90334566487792,254.90334566487792,0,0,1,535.1280221803661,752.4712611146939" stroke="grey" stroke-width="5" fill="none" />
<path d="M535.1280221803661,752.4712611146939 L41.667919499999925,299.47465103999997" stroke="grey" stroke-width="5" />
<circle cx="535.1280221803661" cy="752.4712611146939" r="2.5" fill="grey" stroke="none" />
<circle cx="541.6679194999999" cy="751.47465104" r="5" fill="black" stroke="none" />
<circle cx="541.6679194999999" cy="799.47465104" r="5" fill="black" stroke="none" />
<path d="M229.66791949999993,375.47465103999997 L366.38090193794403,438.44990656261393" stroke="grey" stroke-width="5" />
<circle cx="366.38090193794403" cy="438.44990656261393" r="2.5" fill="grey" stroke="none" />
<path d="M366.38090193794403,438.44990656261393 A147.11382453416223,147.11382453416223,0,0,1,421.6679194999999,375.47465103999997" stroke="grey" stroke-width="5" fill="none" />
<circle cx="229.66791949999993" cy="375.47465103999997" r="5" fill="black" stroke="none" />
<circle cx="421.6679194999999" cy="375.47465103999997" r="5" fill="black" stroke="none" />
<path d="M421.6679194999999,375.47465103999997 L457.021695297439,431.67692780998436" stroke="grey" stroke-width="5" />
<circle cx="457.021695297439" cy="431.67692780998436" r="2.5" fill="grey" stroke="none" />
<path d="M457.021695297439,431.67692780998436 A80.71664554841377,80.71664554841377,0,0,0,421.6679194999999,519.47465104" stroke="grey" stroke-width="5" fill="none" />
<circle cx="421.6679194999999" cy="375.47465103999997" r="5" fill="black" stroke="none" />
<circle cx="421.6679194999999" cy="519.47465104" r="5" fill="black" stroke="none" />
<path d="M421.6679194999999,375.47465103999997 A147.11382453416223,147.11382453416223,0,0,1,447.3832545019918,362.6174848742894" stroke="grey" stroke-width="5" fill="none" />
<path d="M447.3832545019918,362.6174848742894 L-78.33208050000007,-204.52534896000003" stroke="grey" stroke-width="5" />
<circle cx="447.3832545019918" cy="362.6174848742894" r="2.5" fill="grey" stroke="none" />
<circle cx="421.6679194999999" cy="375.47465103999997" r="5" fill="black" stroke="none" />
<circle cx="421.6679194999999" cy="295.47465103999997" r="5" fill="black" stroke="none" />
<path d="M421.6679195,295.4746510399999 A219.01263251846518,219.01263251846518,0,0,1,436.9383301390933,290.2626428195914" stroke="grey" stroke-width="5" fill="none" />
<path d="M436.9383301390933,290.2626428195914 L-78.33208050000007,-260.52534896000003" stroke="grey" stroke-width="5" />
<circle cx="436.9383301390933" cy="290.2626428195914" r="2.5" fill="grey" stroke="none" />
<circle cx="421.6679194999999" cy="295.47465103999997" r="5" fill="black" stroke="none" />
<circle cx="421.6679194999999" cy="239.47465103999997" r="5" fill="black" stroke="none" />
<path d="M421.6679194999999,295.47465103999997 L460.67380107861254,397.319150642665" stroke="grey" stroke-width="5" />
<circle cx="460.67380107861254" cy="397.319150642665" r="2.5" fill="grey" stroke="none" />
<path d="M460.6738010786126,397.319150642665 A109.954112002909,109.954112002909,0,0,1,517.6679194999999,391.47465103999997" stroke="grey" stroke-width="5" fill="none" />
<circle cx="421.6679194999999" cy="295.47465103999997" r="5" fill="black" stroke="none" />
<circle cx="517.6679194999999" cy="391.47465103999997" r="5" fill="black" stroke="none" />
<path d="M421.6679194999999,375.47465103999997 L441.4539430268307,406.9287049663395" stroke="grey" stroke-width="5" />
<circle cx="441.4539430268307" cy="406.9287049663395" r="2.5" fill="grey" stroke="none" />
<path d="M441.4539430268307,406.9287049663395 A109.954112002909,109.954112002909,0,0,1,517.6679194999999,391.47465103999997" stroke="grey" stroke-width="5" fill="none" />
<circle cx="421.6679194999999" cy="375.47465103999997" r="5" fill="black" stroke="none" />
<circle cx="517.6679194999999" cy="391.47465103999997" r="5" fill="black" stroke="none" />
<path d="M517.6679194999999,391.47465103999997 L512.074213846561,425.8340365929508" stroke="grey" stroke-width="5" />
<circle cx="512.074213846561" cy="425.8340365929508" r="2.5" fill="grey" stroke="none" />
<path d="M512.0742138465608,425.8340365929508 A75.14237664665822,75.14237664665822,0,0,1,565.6679194999999,463.47465103999997" stroke="grey" stroke-width="5" fill="none" />
<circle cx="517.6679194999999" cy="391.47465103999997" r="5" fill="black" stroke="none" />
<circle cx="565.6679194999999" cy="463.47465103999997" r="5" fill="black" stroke="none" />
<path d="M517.6679194999999,575.47465104 A77.51502002236887,77.51502002236887,0,0,0,537.464175198367,567.860252768276" stroke="grey" stroke-width="5" fill="none" />
<path d="M537.464175198367,567.860252768276 L41.667919499999925,75.47465103999997" stroke="grey" stroke-width="5" />
<circle cx="537.464175198367" cy="567.860252768276" r="2.5" fill="grey" stroke="none" />
<circle cx="517.6679194999999" cy="575.47465104" r="5" fill="black" stroke="none" />
<circle cx="541.6679194999999" cy="575.47465104" r="5" fill="black" stroke="none" />
<path d="M541.6679194999999,575.47465104 A86.21275117445356,86.21275117445356,0,0,0,556.5895129101298,565.0404911855876" stroke="grey" stroke-width="5" fill="none" />
<path d="M556.5895129101298,565.0404911855876 L65.66791949999993,75.47465103999997" stroke="grey" stroke-width="5" />
<circle cx="556.5895129101298" cy="565.0404911855876" r="2.5" fill="grey" stroke="none" />
<circle cx="541.6679194999999" cy="575.47465104" r="5" fill="black" stroke="none" />
<circle cx="565.6679194999999" cy="575.47465104" r="5" fill="black" stroke="none" />
<path d="M565.6679194999999,575.47465104 L544.9595603880708,551.6737420195176" stroke="grey" stroke-width="5" />
<circle cx="544.9595603880708" cy="551.6737420195176" r="2.5" fill="grey" stroke="none" />
<path d="M544.9595603880708,551.6737420195176 A68.49480042009206,68.49480042009206,0,0,0,565.6679194999999,519.47465104" stroke="grey" stroke-width="5" fill="none" />
<circle cx="565.6679194999999" cy="575.47465104" r="5" fill="black" stroke="none" />
<circle cx="565.6679194999999" cy="519.47465104" r="5" fill="black" stroke="none" />
<path d="M565.6679194999999,519.47465104 L563.0457787393046,518.6970220747287" stroke="grey" stroke-width="5" />
<circle cx="563.0457787393046" cy="518.6970220747287" r="2.5" fill="grey" stroke="none" />
<path d="M563.0457787393046,518.6970220747287 A65.75978141165194,65.75978141165194,0,0,0,565.6679194999999,503.47465103999997" stroke="grey" stroke-width="5" fill="none" />
<circle cx="565.6679194999999" cy="519.47465104" r="5" fill="black" stroke="none" />
<circle cx="565.6679194999999" cy="503.47465103999997" r="5" fill="black" stroke="none" />
<path d="M565.6679194999999,503.47465103999997 A65.75978141165194,65.75978141165194,0,0,0,564.5952622308126,487.6792472372505" stroke="grey" stroke-width="5" fill="none" />
<path d="M564.5952622308126,487.6792472372505 L65.66791949999993,-12.52534896000003" stroke="grey" stroke-width="5" />
<circle cx="564.5952622308126" cy="487.6792472372505" r="2.5" fill="grey" stroke="none" />
<circle cx="565.6679194999999" cy="503.47465103999997" r="5" fill="black" stroke="none" />
<circle cx="565.6679194999999" cy="487.47465103999997" r="5" fill="black" stroke="none" />
<path d="M565.6679194999999,487.47465103999997 A66.85177647623318,66.85177647623318,0,0,0,558.4226540599911,467.50456169529565" stroke="grey" stroke-width="5" fill="none" />
<path d="M558.4226540599911,467.50456169529565 L65.66791949999993,-36.52534896000003" stroke="grey" stroke-width="5" />
<circle cx="558.4226540599911" cy="467.50456169529565" r="2.5" fill="grey" stroke="none" />
<circle cx="565.6679194999999" cy="487.47465103999997" r="5" fill="black" stroke="none" />
<circle cx="565.6679194999999" cy="463.47465103999997" r="5" fill="black" stroke="none" />
<path d="M565.6679194999999,463.47465103999997 A75.14237664665822,75.14237664665822,0,0,1,571.539662840437,477.0118854886958" stroke="grey" stroke-width="5" fill="none" />
<path d="M571.539662840437,477.0118854886958 L113.66791949999993,-36.52534896000003" stroke="grey" stroke-width="5" />
<circle cx="571.539662840437" cy="477.0118854886958" r="2.5" fill="grey" stroke="none" />
<circle cx="565.6679194999999" cy="463.47465103999997" r="5" fill="black" stroke="none" />
<circle cx="613.6679194999999" cy="463.47465103999997" r="5" fill="black" stroke="none" />
<path d="M613.6679194999999,463.47465103999997 L608.268641389281,465.2096218039023" stroke="grey" stroke-width="5" />
<circle cx="608.268641389281" cy="465.2096218039023" r="2.5" fill="grey" stroke="none" />
<path d="M608.268641389281,465.2096218039023 A113.72101443140681,113.72101443140681,0,0,1,613.6679194999999,503.47465103999997" stroke="grey" stroke-width="5" fill="none" />
<circle cx="613.6679194999999" cy="463.47465103999997" r="5" fill="black" stroke="none" />
<circle cx="613.6679194999999" cy="503.47465103999997" r="5" fill="black" stroke="none" />
<path d="M613.6679194999999,503.47465103999997 L565.7290789851845,502.00923544355106" stroke="grey" stroke-width="5" />
<circle cx="565.7290789851845" cy="502.00923544355106" r="2.5" fill="grey" stroke="none" />
<path d="M565.7290789851845,502.00923544355106 A65.75978141165194,65.75978141165194,0,0,1,565.6679194999999,503.47465103999997" stroke="grey" stroke-width="5" fill="none" />
<circle cx="613.6679194999999" cy="503.47465103999997" r="5" fill="black" stroke="none" />
<circle cx="565.6679194999999" cy="503.47465103999997" r="5" fill="black" stroke="none" />
<path d="M565.6679194999999,487.47465103999997 A66.85177647623318,66.85177647623318,0,0,1,566.6060031845896,494.2728403372449" stroke="grey" stroke-width="5" fill="none" />
<path d="M566.6060031845896,494.2728403372449 L145.66791949999993,-12.52534896000003" stroke="grey" stroke-width="5" />
<circle cx="566.6060031845896" cy="494.2728403372449" r="2.5" fill="grey" stroke="none" />
<circle cx="565.6679194999999" cy="487.47465103999997" r="5" fill="black" stroke="none" />
<circle cx="645.6679194999999" cy="487.47465103999997" r="5" fill="black" stroke="none" />
<circle cx="500" cy="500" r="5" fill="red" stroke="none" />
</svg>