<?xml version="1.0" encoding="UTF-8"?>
<svg xmlns="http://www.w3.org/2000/svg" xmlns:xlink="http://www.w3.org/1999/xlink"
     width="1000" height="1000" viewBox="0 0 1000 1000">
<defs>
</defs>
<rect x="0" y="0" width="1000" height="1000" fill="white" />
<path d="M133.533952,340.24899584 L159.0199589131729,351.35893417842976" stroke="grey" stroke-width="5" />
<circle cx="159.0199589131729" cy="351.35893417842976" r="2.5" fill="grey" stroke="none" />
<path d="M159.0199589131729,351.35893417842976 A371.96983058864686,371.96983058864686,0,0,0,133.533952,436.24899584000013" stroke="grey" stroke-width="5" fill="none" />
<circle cx="133.533952" cy="340.24899584" r="5" fill="black" stroke="none" />
<circle cx="133.533952" cy="436.24899584" r="5" fill="black" stroke="none" />
<path d="M133.533952,436.24899584 L201.9115065652877,448.1440616703338" stroke="grey" stroke-width="5" />
<circle cx="201.9115065652877" cy="448.1440616703338" r="2.5" fill="grey" stroke="none" />
<path d="M201.9115065652877,448.14406167033394 A302.5653454350426,302.5653454350426,0,0,0,197.533952,492.24899583999996" stroke="grey" stroke-width="5" fill="none" />
<circle cx="133.533952" cy="436.24899584" r="5" fill="black" stroke="none" />
<circle cx="197.533952" cy="492.24899584" r="5" fill="black" stroke="none" />
<path d="M109.533952,492.24899584 L197.4942496231625,493.9950647652859" stroke="grey" stroke-width="5" />
<circle cx="197.4942496231625" cy="493.9950647652859" r="2.5" fill="grey" stroke="none" />
<path d="M197.4942496231625,493.9950647652859 A302.5653454350426,302.5653454350426,0,0,1,197.533952,492.24899583999996" stroke="grey" stroke-width="5" fill="none" />
<circle cx="109.533952" cy="492.24899584" r="5" fill="black" stroke="none" />
<circle cx="197.533952" cy="492.24899584" r="5" fill="black" stroke="none" />
<path d="M197.533952,492.24899584 L268.3378104431681,494.0634176733459" stroke="grey" stroke-width="5" />
<circle cx="268.3378104431681" cy="494.0634176733459" r="2.5" fill="grey" stroke="none" />
<path d="M268.3378104431681,494.0634176733459 A231.73824259277242,231.73824259277242,0,0,0,269.533952,524.2489958399999" stroke="grey" stroke-width="5" fill="none" />
<circle cx="197.533952" cy="492.24899584" r="5" fill="black" stroke="none" />
<circle cx="269.533952" cy="524.24899584" r="5" fill="black" stroke="none" />
<path d="M269.533952,524.24899584 L282.9877830917874,522.8334211945893" stroke="grey" stroke-width="5" />
<circle cx="282.9877830917874" cy="522.8334211945893" r="2.5" fill="grey" stroke="none" />
<path d="M282.9877830917874,522.8334211945892 A218.21014506861647,218.21014506861647,0,0,0,285.533952,540.2489958399999" stroke="grey" stroke-width="5" fill="none" />
<circle cx="269.533952" cy="524.24899584" r="5" fill="black" stroke="none" />
<circle cx="285.533952" cy="540.24899584" r="5" fill="black" stroke="none" />
<path d="M285.533952,540.24899584 L307.11801736072675,536.1982989347529" stroke="grey" stroke-width="5" />
<circle cx="307.11801736072675" cy="536.1982989347529" r="2.5" fill="grey" stroke="none" />
<path d="M307.11801736072675,536.1982989347528 A196.24927024737352,196.24927024737352,0,0,0,317.533952,572.24899584" stroke="grey" stroke-width="5" fill="none" />
<circle cx="285.533952" cy="540.24899584" r="5" fill="black" stroke="none" />
<circle cx="317.533952" cy="572.24899584" r="5" fill="black" stroke="none" />
<path d="M285.533952,540.2489958399999 A218.21014506861647,218.21014506861647,0,0,0,308.76778742278515,605.0995160963625" stroke="grey" stroke-width="5" fill="none" />
<path d="M308.76778742278515,605.0995160963625 L237.533952,644.24899584" stroke="grey" stroke-width="5" />
<circle cx="308.76778742278515" cy="605.0995160963625" r="2.5" fill="grey" stroke="none" />
<circle cx="285.533952" cy="540.24899584" r="5" fill="black" stroke="none" />
<circle cx="237.533952" cy="644.24899584" r="5" fill="black" stroke="none" />
<path d="M237.533952,644.2489958399999 A299.4932372418226,299.4932372418226,0,0,0,272.29861107609634,694.5463354466278" stroke="grey" stroke-width="5" fill="none" />
<path d="M272.29861107609634,694.5463354466278 L237.533952,724.24899584" stroke="grey" stroke-width="5" />
<circle cx="272.29861107609634" cy="694.5463354466278" r="2.5" fill="grey" stroke="none" />
<circle cx="237.533952" cy="644.24899584" r="5" fill="black" stroke="none" />
<circle cx="237.533952" cy="724.24899584" r="5" fill="black" stroke="none" />
<path d="M133.533952,740.24899584 L211.29225134413662,689.2719587103422" stroke="grey" stroke-width="5" />
<circle cx="211.29225134413662" cy="689.2719587103422" r="2.5" fill="grey" stroke="none" />
<path d="M211.29225134413662,689.2719587103422 A345.2188269605044,345.2188269605044,0,0,0,237.533952,724.24899584" stroke="grey" stroke-width="5" fill="none" />
<circle cx="133.533952" cy="740.24899584" r="5" fill="black" stroke="none" />
<circle cx="237.533952" cy="724.24899584" r="5" fill="black" stroke="none" />
<path d="M237.533952,724.24899584 A345.2188269605044,345.2188269605044,0,0,0,290.6911069315631,774.5283697005691" stroke="grey" stroke-width="5" fill="none" />
<path d="M290.6911069315631,774.5283697005691 L237.533952,844.24899584" stroke="grey" stroke-width="5" />
<circle cx="290.6911069315631" cy="774.5283697005691" r="2.5" fill="grey" stroke="none" />
<circle cx="237.533952" cy="724.24899584" r="5" fill="black" stroke="none" />
<circle cx="237.533952" cy="844.24899584" r="5" fill="black" stroke="none" />
<path d="M237.533952,644.24899584 L296.1591166177841,612.0291289600367" stroke="grey" stroke-width="5" />
<circle cx="296.1591166177841" cy="612.0291289600367" r="2.5" fill="grey" stroke="none" />
<path d="M296.1591166177841,612.0291289600367 A232.5975740922219,232.5975740922219,0,0,0,317.5339519999999,644.2489958399999" stroke="grey" stroke-width="5" fill="none" />
<circle cx="237.533952" cy="644.24899584" r="5" fill="black" stroke="none" />
<circle cx="317.533952" cy="644.24899584" r="5" fill="black" stroke="none" />
<path d="M317.533952,572.24899584 A196.24927024737352,196.24927024737352,0,0,0,346.0481417113813,621.7070310298781" stroke="grey" stroke-width="5" fill="none" />
<path d="M346.0481417113813,621.7070310298781 L317.533952,644.24899584" stroke="grey" stroke-width="5" />
<circle cx="346.0481417113813" cy="621.7070310298781" r="2.5" fill="grey" stroke="none" />
<circle cx="317.533952" cy="572.24899584" r="5" fill="black" stroke="none" />
<circle cx="317.533952" cy="644.24899584" r="5" fill="black" stroke="none" />
<path d="M317.533952,644.24899584 L357.47105468147254,612.6766182842512" stroke="grey" stroke-width="5" />
<circle cx="357.47105468147254" cy="612.6766182842512" r="2.5" fill="grey" stroke="none" />
<path d="M357.4710546814725,612.6766182842512 A181.6879758310567,181.6879758310567,0,0,0,389.533952,644.24899584" stroke="grey" stroke-width="5" fill="none" />
<circle cx="317.533952" cy="644.24899584" r="5" fill="black" stroke="none" />
<circle cx="389.533952" cy="644.24899584" r="5" fill="black" stroke="none" />
<path d="M317.533952,572.24899584 L351.480150296931,558.8077076309257" stroke="grey" stroke-width="5" />
<circle cx="351.480150296931" cy="558.8077076309257" r="2.5" fill="grey" stroke="none" />
<path d="M351.480150296931,558.8077076309257 A159.73882506337227,159.73882506337227,0,0,0,357.533952,572.24899584" stroke="grey" stroke-width="5" fill="none" />
<circle cx="317.533952" cy="572.24899584" r="5" fill="black" stroke="none" />
<circle cx="357.533952" cy="572.24899584" r="5" fill="black" stroke="none" />
<path d="M389.533952,644.24899584 L435.16163379051983,584.667365104106" stroke="grey" stroke-width="5" />
<circle cx="435.16163379051983" cy="584.667365104106" r="2.5" fill="grey" stroke="none" />
<path d="M435.16163379051983,584.667365104106 A106.64228263867314,106.64228263867314,0,0,0,477.53395199999994,604.24899584" stroke="grey" stroke-width="5" fill="none" />
<circle cx="389.533952" cy="644.24899584" r="5" fill="black" stroke="none" />
<circle cx="477.533952" cy="604.24899584" r="5" fill="black" stroke="none" />
<path d="M357.533952,572.24899584 L435.54886506554584,532.6851895250345" stroke="grey" stroke-width="5" />
<circle cx="435.54886506554584" cy="532.6851895250345" r="2.5" fill="grey" stroke="none" />
<path d="M435.54886506554584,532.6851895250345 A72.26527802912436,72.26527802912436,0,0,0,501.533952,572.24899584" stroke="grey" stroke-width="5" fill="none" />
<circle cx="357.533952" cy="572.24899584" r="5" fill="black" stroke="none" />
<circle cx="501.533952" cy="572.24899584" r="5" fill="black" stroke="none" />
<path d="M477.533952,604.24899584 L484.7760647581366,570.6434866380348" stroke="grey" stroke-width="5" />
<circle cx="484.7760647581366" cy="570.6434866380348" r="2.5" fill="grey" stroke="none" />
<path d="M484.77606475813656,570.6434866380348 A72.26527802912436,72.26527802912436,0,0,0,501.533952,572.24899584" stroke="grey" stroke-width="5" fill="none" />
<circle cx="477.533952" cy="604.24899584" r="5" fill="black" stroke="none" />
<circle cx="501.533952" cy="572.24899584" r="5" fill="black" stroke="none" />
<path d="M237.533952,724.24899584 L298.0088378736742,672.5797131497297" stroke="grey" stroke-width="5" />
<circle cx="298.0088378736742" cy="672.5797131497297" r="2.5" fill="grey" stroke="none" />
<path d="M298.0088378736742,672.5797131497297 A265.6768468797886,265.6768468797886,0,0,0,357.533952,724.24899584" stroke="grey" stroke-width="5" fill="none" />
<circle cx="237.533952" cy="724.24899584" r="5" fill="black" stroke="none" />
<circle cx="357.533952" cy="724.24899584" r="5" fill="black" stroke="none" />
<path d="M357.533952,724.24899584 L426.853312471495,615.1367042011968" stroke="grey" stroke-width="5" />
<circle cx="426.853312471495" cy="615.1367042011968" r="2.5" fill="grey" stroke="none" />
<path d="M426.853312471495,615.1367042011968 A136.40710593919457,136.40710593919457,0,0,0,453.533952,628.24899584" stroke="grey" stroke-width="5" fill="none" />
<circle cx="357.533952" cy="724.24899584" r="5" fill="black" stroke="none" />
<circle cx="453.533952" cy="628.24899584" r="5" fill="black" stroke="none" />
<path d="M453.533952,628.24899584 L463.67311372966867,600.2643195772507" stroke="grey" stroke-width="5" />
<circle cx="463.67311372966867" cy="600.2643195772507" r="2.5" fill="grey" stroke="none" />
<path d="M463.67311372966867,600.2643195772507 A106.64228263867314,106.64228263867314,0,0,0,477.53395199999994,604.24899584" stroke="grey" stroke-width="5" fill="none" />
<circle cx="453.533952" cy="628.24899584" r="5" fill="black" stroke="none" />
<circle cx="477.533952" cy="604.24899584" r="5" fill="black" stroke="none" />
<path d="M477.53395199999994,604.24899584 A106.64228263867314,106.64228263867314,0,0,0,481.59910799233006,605.0427704304714" stroke="grey" stroke-width="5" fill="none" />
<path d="M481.59910799233006,605.0427704304714 L477.533952,628.24899584" stroke="grey" stroke-width="5" />
<circle cx="481.59910799233006" cy="605.0427704304714" r="2.5" fill="grey" stroke="none" />
<circle cx="477.533952" cy="604.24899584" r="5" fill="black" stroke="none" />
<circle cx="477.533952" cy="628.24899584" r="5" fill="black" stroke="none" />
<path d="M477.533952,628.24899584 A130.20187497385223,130.20187497385223,0,0,0,490.41186832171496,629.8483576239088" stroke="grey" stroke-width="5" fill="none" />
<path d="M490.411868321715,629.8483576239088 L477.533952,804.24899584" stroke="grey" stroke-width="5" />
<circle cx="490.411868321715" cy="629.8483576239088" r="2.5" fill="grey" stroke="none" />
<circle cx="477.533952" cy="628.24899584" r="5" fill="black" stroke="none" />
<circle cx="477.533952" cy="804.24899584" r="5" fill="black" stroke="none" />
<path d="M477.5339519999999,804.24899584 A305.0773259067063,305.0773259067063,0,0,0,571.6705737829992,796.5392109586899" stroke="grey" stroke-width="5" fill="none" />
<path d="M571.6705737829993,796.5392109586899 L573.533952,804.24899584" stroke="grey" stroke-width="5" />
<circle cx="571.6705737829993" cy="796.5392109586899" r="2.5" fill="grey" stroke="none" />
<circle cx="477.533952" cy="804.24899584" r="5" fill="black" stroke="none" />
<circle cx="573.533952" cy="804.24899584" r="5" fill="black" stroke="none" />
<path d="M477.5339519999999,804.24899584 A305.0773259067063,305.0773259067063,0,0,0,480.58196222802604,804.4587239536304" stroke="grey" stroke-width="5" fill="none" />
<path d="M480.58196222802604,804.4587239536304 L477.533952,852.24899584" stroke="grey" stroke-width="5" />
<circle cx="480.58196222802604" cy="804.4587239536304" r="2.5" fill="grey" stroke="none" />
<circle cx="477.533952" cy="804.24899584" r="5" fill="black" stroke="none" />
<circle cx="477.533952" cy="852.24899584" r="5" fill="black" stroke="none" />
<path d="M165.533952,428.24899584 L344.0342449255493,466.5415978450391" stroke="grey" stroke-width="5" />
<circle cx="344.0342449255493" cy="466.5415978450391" r="2.5" fill="grey" stroke="none" />
<path d="M344.0342449255493,466.5415978450391 A159.51420447943386,159.51420447943386,0,0,1,357.533952,428.24899584" stroke="grey" stroke-width="5" fill="none" />
<circle cx="165.533952" cy="428.24899584" r="5" fill="black" stroke="none" />
<circle cx="357.533952" cy="428.24899584" r="5" fill="black" stroke="none" />
<path d="M357.533952,428.24899584 A159.51420447943386,159.51420447943386,0,0,0,357.73428405377877,572.147401179916" stroke="grey" stroke-width="5" fill="none" />
<path d="M357.73428405377877,572.147401179916 L357.533952,572.24899584" stroke="grey" stroke-width="5" />
<circle cx="357.73428405377877" cy="572.147401179916" r="2.5" fill="grey" stroke="none" />
<circle cx="357.533952" cy="428.24899584" r="5" fill="black" stroke="none" />
<circle cx="357.533952" cy="572.24899584" r="5" fill="black" stroke="none" />
<path d="M357.533952,428.24899584 A159.51420447943386,159.51420447943386,0,0,1,390.8203383667213,383.70475970036694" stroke="grey" stroke-width="5" fill="none" />
<path d="M390.8203383667213,383.70475970036694 L357.533952,348.24899584" stroke="grey" stroke-width="5" />
<circle cx="390.8203383667213" cy="383.70475970036694" r="2.5" fill="grey" stroke="none" />
<circle cx="357.533952" cy="428.24899584" r="5" fill="black" stroke="none" />
<circle cx="357.533952" cy="348.24899584" r="5" fill="black" stroke="none" />
<path d="M357.533952,348.24899584 A208.14644387139222,208.14644387139222,0,0,1,382.282666049827,328.3387889359682" stroke="grey" stroke-width="5" fill="none" />
<path d="M382.282666049827,328.3387889359682 L357.533952,292.24899584" stroke="grey" stroke-width="5" />
<circle cx="382.282666049827" cy="328.3387889359682" r="2.5" fill="grey" stroke="none" />
<circle cx="357.533952" cy="348.24899584" r="5" fill="black" stroke="none" />
<circle cx="357.533952" cy="292.24899584" r="5" fill="black" stroke="none" />
<path d="M357.533952,348.24899584 L450.3253182936865,447.0878645397572" stroke="grey" stroke-width="5" />
<circle cx="450.3253182936865" cy="447.0878645397572" r="2.5" fill="grey" stroke="none" />
<path d="M450.3253182936865,447.0878645397572 A72.57594699062933,72.57594699062933,0,0,1,453.533952,444.24899584" stroke="grey" stroke-width="5" fill="none" />
<circle cx="357.533952" cy="348.24899584" r="5" fill="black" stroke="none" />
<circle cx="453.533952" cy="444.24899584" r="5" fill="black" stroke="none" />
<path d="M357.533952,428.24899584 L435.1806418660005,467.3546497540163" stroke="grey" stroke-width="5" />
<circle cx="435.1806418660005" cy="467.3546497540163" r="2.5" fill="grey" stroke="none" />
<path d="M435.1806418660005,467.3546497540163 A72.57594699062933,72.57594699062933,0,0,1,453.533952,444.24899584" stroke="grey" stroke-width="5" fill="none" />
<circle cx="357.533952" cy="428.24899584" r="5" fill="black" stroke="none" />
<circle cx="453.533952" cy="444.24899584" r="5" fill="black" stroke="none" />
<path d="M453.533952,444.24899584 L489.550483984505,487.4624368560492" stroke="grey" stroke-width="5" />
<circle cx="489.550483984505" cy="487.4624368560492" r="2.5" fill="grey" stroke="none" />
<path d="M489.550483984505,487.4624368560492 A16.321239981896042,16.321239981896042,0,0,0,501.533952,516.24899584" stroke="grey" stroke-width="5" fill="none" />
<circle cx="453.533952" cy="444.24899584" r="5" fill="black" stroke="none" />
<circle cx="501.533952" cy="516.24899584" r="5" fill="black" stroke="none" />
<path d="M453.533952,628.24899584 L455.64771695308985,622.4148815922043" stroke="grey" stroke-width="5" />
<circle cx="455.64771695308985" cy="622.4148815922043" r="2.5" fill="grey" stroke="none" />
<path d="M455.64771695308985,622.4148815922043 A130.20187497385223,130.20187497385223,0,0,0,477.533952,628.24899584" stroke="grey" stroke-width="5" fill="none" />
<circle cx="453.533952" cy="628.24899584" r="5" fill="black" stroke="none" />
<circle cx="477.533952" cy="628.24899584" r="5" fill="black" stroke="none" />
<path d="M477.533952,628.24899584 L477.86933418484955,626.3344433370598" stroke="grey" stroke-width="5" />
<circle cx="477.86933418484955" cy="626.3344433370598" r="2.5" fill="grey" stroke="none" />
<path d="M477.8693341848495,626.3344433370598 A128.25816910710464,128.25816910710464,0,0,0,501.533952,628.24899584" stroke="grey" stroke-width="5" fill="none" />
<circle cx="477.533952" cy="628.24899584" r="5" fill="black" stroke="none" />
<circle cx="501.533952" cy="628.24899584" r="5" fill="black" stroke="none" />
<path d="M501.533952,628.24899584 L500.86428387786174,572.2601094796092" stroke="grey" stroke-width="5" />
<circle cx="500.86428387786174" cy="572.2601094796092" r="2.5" fill="grey" stroke="none" />
<path d="M500.86428387786174,572.2601094796092 A72.26527802912436,72.26527802912436,0,0,0,501.533952,572.24899584" stroke="grey" stroke-width="5" fill="none" />
<circle cx="501.533952" cy="628.24899584" r="5" fill="black" stroke="none" />
<circle cx="501.533952" cy="572.24899584" r="5" fill="black" stroke="none" />
<path d="M501.533952,572.24899584 L501.19442338295823,556.2572297089795" stroke="grey" stroke-width="5" />
<circle cx="501.19442338295823" cy="556.2572297089795" r="2.5" fill="grey" stroke="none" />
<path d="M501.19442338295823,556.2572297089795 A56.26990795928712,56.26990795928712,0,0,0,501.533952,556.24899584" stroke="grey" stroke-width="5" fill="none" />
<circle cx="501.533952" cy="572.24899584" r="5" fill="black" stroke="none" />
<circle cx="501.533952" cy="556.24899584" r="5" fill="black" stroke="none" />
<path d="M501.533952,556.24899584 L501.0980087235561,540.2632469096773" stroke="grey" stroke-width="5" />
<circle cx="501.0980087235561" cy="540.2632469096773" r="2.5" fill="grey" stroke="none" />
<path d="M501.0980087235561,540.2632469096773 A40.278215884850745,40.278215884850745,0,0,0,501.533952,540.24899584" stroke="grey" stroke-width="5" fill="none" />
<circle cx="501.533952" cy="556.24899584" r="5" fill="black" stroke="none" />
<circle cx="501.533952" cy="540.24899584" r="5" fill="black" stroke="none" />
<path d="M501.533952,540.24899584 L500.6215766553386,516.3093996519854" stroke="grey" stroke-width="5" />
<circle cx="500.6215766553386" cy="516.3093996519854" r="2.5" fill="grey" stroke="none" />
<path d="M500.6215766553386,516.3093996519854 A16.321239981896042,16.321239981896042,0,0,0,501.533952,516.24899584" stroke="grey" stroke-width="5" fill="none" />
<circle cx="501.533952" cy="540.24899584" r="5" fill="black" stroke="none" />
<circle cx="501.533952" cy="516.24899584" r="5" fill="black" stroke="none" />
<path d="M501.533952,516.24899584 A16.321239981896042,16.321239981896042,0,0,0,515.5081497266962,505.08725531116886" stroke="grey" stroke-width="5" fill="none" />
<path d="M515.5081497266962,505.08725531116886 L549.533952,516.24899584" stroke="grey" stroke-width="5" />
<circle cx="515.5081497266962" cy="505.08725531116886" r="2.5" fill="grey" stroke="none" />
<circle cx="501.533952" cy="516.24899584" r="5" fill="black" stroke="none" />
<circle cx="549.533952" cy="516.24899584" r="5" fill="black" stroke="none" />
<path d="M549.533952,516.24899584 A52.13101060354232,52.13101060354232,0,0,1,534.4528527924732,539.1234354448432" stroke="grey" stroke-width="5" fill="none" />
<path d="M534.4528527924732,539.1234354448432 L549.533952,556.24899584" stroke="grey" stroke-width="5" />
<circle cx="534.4528527924732" cy="539.1234354448432" r="2.5" fill="grey" stroke="none" />
<circle cx="549.533952" cy="516.24899584" r="5" fill="black" stroke="none" />
<circle cx="549.533952" cy="556.24899584" r="5" fill="black" stroke="none" />
<path d="M549.533952,556.24899584 L537.1882078080337,542.2296074072818" stroke="grey" stroke-width="5" />
<circle cx="537.1882078080337" cy="542.2296074072818" r="2.5" fill="grey" stroke="none" />
<path d="M537.1882078080337,542.2296074072818 A56.26990795928712,56.26990795928712,0,0,1,501.533952,556.24899584" stroke="grey" stroke-width="5" fill="none" />
<circle cx="549.533952" cy="556.24899584" r="5" fill="black" stroke="none" />
<circle cx="501.533952" cy="556.24899584" r="5" fill="black" stroke="none" />
<path d="M501.533952,540.24899584 A40.278215884850745,40.278215884850745,0,0,0,536.117244095825,517.8291714274457" stroke="grey" stroke-width="5" fill="none" />
<path d="M536.117244095825,517.8291714274457 L581.533952,540.24899584" stroke="grey" stroke-width="5" />
<circle cx="536.117244095825" cy="517.8291714274457" r="2.5" fill="grey" stroke="none" />
<circle cx="501.533952" cy="540.24899584" r="5" fill="black" stroke="none" />
<circle cx="581.533952" cy="540.24899584" r="5" fill="black" stroke="none" />
<circle cx="500" cy="500" r="5" fill="red" stroke="none" />
</svg>