<?xml version="1.0" encoding="UTF-8"?>
<svg xmlns="http://www.w3.org/2000/svg" xmlns:xlink="http://www.w3.org/1999/xlink"
     width="1000" height="1000" viewBox="0 0 1000 1000">
<defs>
</defs>
<rect x="0" y="0" width="1000" height="1000" fill="white" />
<path d="M387.148792,267.36141824 L422.65388338289813,340.5538479087778" stroke="grey" stroke-width="5" />
<circle cx="422.65388338289813" cy="340.5538479087778" r="2.5" fill="grey" stroke="none" />
<path d="M422.65388338289813,340.5538479087778 A177.21596195727818,177.21596195727818,0,0,0,387.14879200000007,363.3614182399999" stroke="grey" stroke-width="5" fill="none" />
<circle cx="387.148792" cy="267.36141824" r="5" fill="black" stroke="none" />
<circle cx="387.148792" cy="363.36141824" r="5" fill="black" stroke="none" />
<path d="M387.148792,363.36141824 L439.9614283704865,427.3061810879959" stroke="grey" stroke-width="5" />
<circle cx="439.9614283704865" cy="427.3061810879959" r="2.5" fill="grey" stroke="none" />
<path d="M439.9614283704865,427.3061810879959 A94.28160685586278,94.28160685586278,0,0,1,451.14879199999996,419.36141824" stroke="grey" stroke-width="5" fill="none" />
<circle cx="387.148792" cy="363.36141824" r="5" fill="black" stroke="none" />
<circle cx="451.148792" cy="419.36141824" r="5" fill="black" stroke="none" />
<path d="M363.148792,419.36141824 L418.77124293456,452.13654403485674" stroke="grey" stroke-width="5" />
<circle cx="418.77124293456" cy="452.13654403485674" r="2.5" fill="grey" stroke="none" />
<path d="M418.77124293456,452.13654403485674 A94.28160685586278,94.28160685586278,0,0,1,451.14879199999996,419.36141824" stroke="grey" stroke-width="5" fill="none" />
<circle cx="363.148792" cy="419.36141824" r="5" fill="black" stroke="none" />
<circle cx="451.148792" cy="419.36141824" r="5" fill="black" stroke="none" />
<path d="M451.148792,419.36141824 L472.08963782063665,453.9284264464493" stroke="grey" stroke-width="5" />
<circle cx="472.08963782063665" cy="453.9284264464493" r="2.5" fill="grey" stroke="none" />
<path d="M472.0896378206366,453.9284264464493 A53.86629935946474,53.86629935946474,0,0,1,523.148792,451.36141824" stroke="grey" stroke-width="5" fill="none" />
<circle cx="451.148792" cy="419.36141824" r="5" fill="black" stroke="none" />
<circle cx="523.148792" cy="451.36141824" r="5" fill="black" stroke="none" />
<path d="M523.148792,451.36141824 L521.9039691806315,453.97695068232207" stroke="grey" stroke-width="5" />
<circle cx="521.9039691806315" cy="453.97695068232207" r="2.5" fill="grey" stroke="none" />
<path d="M521.9039691806315,453.97695068232207 A50.96964718696287,50.96964718696287,0,0,1,539.1487920000001,467.36141824" stroke="grey" stroke-width="5" fill="none" />
<circle cx="523.148792" cy="451.36141824" r="5" fill="black" stroke="none" />
<circle cx="539.148792" cy="467.36141824" r="5" fill="black" stroke="none" />
<path d="M539.1487920000001,467.36141824 A50.96964718696287,50.96964718696287,0,0,1,550.9675943552354,499.54255054525265" stroke="grey" stroke-width="5" fill="none" />
<path d="M550.9675943552354,499.54255054525265 L71.14879200000001,-0.6385817600000223" stroke="grey" stroke-width="5" />
<circle cx="550.9675943552354" cy="499.54255054525265" r="2.5" fill="grey" stroke="none" />
<circle cx="539.148792" cy="467.36141824" r="5" fill="black" stroke="none" />
<circle cx="571.148792" cy="499.36141824" r="5" fill="black" stroke="none" />
<path d="M539.1487920000001,467.36141824 A50.96964718696287,50.96964718696287,0,0,1,493.7261305663734,550.5820471777614" stroke="grey" stroke-width="5" fill="none" />
<path d="M493.7261305663734,550.5820471777614 L-8.851207999999986,71.36141823999998" stroke="grey" stroke-width="5" />
<circle cx="493.7261305663734" cy="550.5820471777614" r="2.5" fill="grey" stroke="none" />
<circle cx="539.148792" cy="467.36141824" r="5" fill="black" stroke="none" />
<circle cx="491.148792" cy="571.3614182399999" r="5" fill="black" stroke="none" />
<path d="M491.148792,571.3614182399999 A71.90824637191109,71.90824637191109,0,0,0,495.8021707723323,571.7856122496619" stroke="grey" stroke-width="5" fill="none" />
<path d="M495.8021707723323,571.7856122496619 L-8.851207999999986,151.36141823999998" stroke="grey" stroke-width="5" />
<circle cx="495.8021707723323" cy="571.7856122496619" r="2.5" fill="grey" stroke="none" />
<circle cx="491.148792" cy="571.3614182399999" r="5" fill="black" stroke="none" />
<circle cx="491.148792" cy="651.3614182399999" r="5" fill="black" stroke="none" />
<path d="M387.148792,667.3614182399999 L415.233499844456,625.7110308050317" stroke="grey" stroke-width="5" />
<circle cx="415.233499844456" cy="625.7110308050317" r="2.5" fill="grey" stroke="none" />
<path d="M415.233499844456,625.7110308050317 A151.61999477207306,151.61999477207306,0,0,0,491.148792,651.3614182399999" stroke="grey" stroke-width="5" fill="none" />
<circle cx="387.148792" cy="667.3614182399999" r="5" fill="black" stroke="none" />
<circle cx="491.148792" cy="651.3614182399999" r="5" fill="black" stroke="none" />
<path d="M491.148792,651.3614182399999 A151.61999477207306,151.61999477207306,0,0,0,495.05712054556,651.539403316043" stroke="grey" stroke-width="5" fill="none" />
<path d="M495.05712054556005,651.539403316043 L-8.851207999999986,271.36141824" stroke="grey" stroke-width="5" />
<circle cx="495.05712054556005" cy="651.539403316043" r="2.5" fill="grey" stroke="none" />
<circle cx="491.148792" cy="651.3614182399999" r="5" fill="black" stroke="none" />
<circle cx="491.148792" cy="771.3614182399999" r="5" fill="black" stroke="none" />
<path d="M491.148792,571.3614182399999 A71.90824637191109,71.90824637191109,0,0,0,550.7708883251546,550.9226157513353" stroke="grey" stroke-width="5" fill="none" />
<path d="M550.7708883251546,550.9226157513353 L71.14879200000001,71.36141823999998" stroke="grey" stroke-width="5" />
<circle cx="550.7708883251546" cy="550.9226157513353" r="2.5" fill="grey" stroke="none" />
<circle cx="491.148792" cy="571.3614182399999" r="5" fill="black" stroke="none" />
<circle cx="571.148792" cy="571.3614182399999" r="5" fill="black" stroke="none" />
<path d="M571.148792,499.36141824 A71.15165767375677,71.15165767375677,0,0,1,550.236698128061,550.38682914129" stroke="grey" stroke-width="5" fill="none" />
<path d="M550.236698128061,550.38682914129 L71.14879200000001,71.36141823999998" stroke="grey" stroke-width="5" />
<circle cx="550.236698128061" cy="550.38682914129" r="2.5" fill="grey" stroke="none" />
<circle cx="571.148792" cy="499.36141824" r="5" fill="black" stroke="none" />
<circle cx="571.148792" cy="571.3614182399999" r="5" fill="black" stroke="none" />
<path d="M571.148792,571.3614182399999 A100.77004821018727,100.77004821018727,0,0,0,590.1850784303192,544.9583612334864" stroke="grey" stroke-width="5" fill="none" />
<path d="M590.1850784303191,544.9583612334864 L143.14879200000001,71.36141823999998" stroke="grey" stroke-width="5" />
<circle cx="590.1850784303191" cy="544.9583612334864" r="2.5" fill="grey" stroke="none" />
<circle cx="571.148792" cy="571.3614182399999" r="5" fill="black" stroke="none" />
<circle cx="643.148792" cy="571.3614182399999" r="5" fill="black" stroke="none" />
<path d="M571.148792,499.36141824 A71.15165767375677,71.15165767375677,0,0,1,571.1504834042033,499.5912200204829" stroke="grey" stroke-width="5" fill="none" />
<path d="M571.1504834042033,499.5912200204829 L111.14879200000001,-0.6385817600000223" stroke="grey" stroke-width="5" />
<circle cx="571.1504834042033" cy="499.5912200204829" r="2.5" fill="grey" stroke="none" />
<circle cx="571.148792" cy="499.36141824" r="5" fill="black" stroke="none" />
<circle cx="611.148792" cy="499.36141824" r="5" fill="black" stroke="none" />
<path d="M643.148792,571.3614182399999 A159.95008178892397,159.95008178892397,0,0,0,658.497914280975,521.504414264615" stroke="grey" stroke-width="5" fill="none" />
<path d="M658.497914280975,521.504414264615 L231.14879200000001,31.361418239999978" stroke="grey" stroke-width="5" />
<circle cx="658.497914280975" cy="521.504414264615" r="2.5" fill="grey" stroke="none" />
<circle cx="643.148792" cy="571.3614182399999" r="5" fill="black" stroke="none" />
<circle cx="731.148792" cy="531.3614182399999" r="5" fill="black" stroke="none" />
<path d="M611.148792,499.36141824 A111.15062640274896,111.15062640274896,0,0,1,611.150278285242,499.72181510335395" stroke="grey" stroke-width="5" fill="none" />
<path d="M611.150278285242,499.72181510335395 L255.14879200000001,-0.6385817600000223" stroke="grey" stroke-width="5" />
<circle cx="611.150278285242" cy="499.72181510335395" r="2.5" fill="grey" stroke="none" />
<circle cx="611.148792" cy="499.36141824" r="5" fill="black" stroke="none" />
<circle cx="755.148792" cy="499.36141824" r="5" fill="black" stroke="none" />
<path d="M731.148792,531.3614182399999 A233.26659125790704,233.26659125790704,0,0,0,733.2658606800703,499.41618644284625" stroke="grey" stroke-width="5" fill="none" />
<path d="M733.2658606800703,499.41618644284625 L255.14879200000001,-0.6385817600000223" stroke="grey" stroke-width="5" />
<circle cx="733.2658606800703" cy="499.41618644284625" r="2.5" fill="grey" stroke="none" />
<circle cx="731.148792" cy="531.3614182399999" r="5" fill="black" stroke="none" />
<circle cx="755.148792" cy="499.36141824" r="5" fill="black" stroke="none" />
<path d="M491.148792,651.3614182399999 A151.61999477207306,151.61999477207306,0,0,0,589.7415131624284,622.2091798106883" stroke="grey" stroke-width="5" fill="none" />
<path d="M589.7415131624284,622.2091798106883 L111.14879200000001,151.36141823999998" stroke="grey" stroke-width="5" />
<circle cx="589.7415131624284" cy="622.2091798106883" r="2.5" fill="grey" stroke="none" />
<circle cx="491.148792" cy="651.3614182399999" r="5" fill="black" stroke="none" />
<circle cx="611.148792" cy="651.3614182399999" r="5" fill="black" stroke="none" />
<path d="M611.1487920000001,651.3614182399999 A187.78799986869095,187.78799986869095,0,0,0,681.4207549769297,548.4854881205117" stroke="grey" stroke-width="5" fill="none" />
<path d="M681.4207549769297,548.4854881205117 L207.14879200000001,55.36141823999998" stroke="grey" stroke-width="5" />
<circle cx="681.4207549769297" cy="548.4854881205117" r="2.5" fill="grey" stroke="none" />
<circle cx="611.148792" cy="651.3614182399999" r="5" fill="black" stroke="none" />
<circle cx="707.148792" cy="555.3614182399999" r="5" fill="black" stroke="none" />
<path d="M707.1487920000001,555.36141824 A214.419002554819,214.419002554819,0,0,0,712.4723182823606,528.8274629532804" stroke="grey" stroke-width="5" fill="none" />
<path d="M712.4723182823606,528.8274629532804 L231.14879200000001,31.361418239999978" stroke="grey" stroke-width="5" />
<circle cx="712.4723182823606" cy="528.8274629532804" r="2.5" fill="grey" stroke="none" />
<circle cx="707.148792" cy="555.3614182399999" r="5" fill="black" stroke="none" />
<circle cx="731.148792" cy="531.3614182399999" r="5" fill="black" stroke="none" />
<path d="M731.148792,531.3614182399999 A233.26659125790704,233.26659125790704,0,0,1,726.8509003952861,554.3320493533188" stroke="grey" stroke-width="5" fill="none" />
<path d="M726.8509003952861,554.3320493533188 L231.14879200000001,55.36141823999998" stroke="grey" stroke-width="5" />
<circle cx="726.8509003952861" cy="554.3320493533188" r="2.5" fill="grey" stroke="none" />
<circle cx="731.148792" cy="531.3614182399999" r="5" fill="black" stroke="none" />
<circle cx="731.148792" cy="555.3614182399999" r="5" fill="black" stroke="none" />
<path d="M731.148792,555.3614182399999 A237.68603381899297,237.68603381899297,0,0,1,667.9921233070131,668.146653785928" stroke="grey" stroke-width="5" fill="none" />
<path d="M667.9921233070131,668.146653785928 L231.14879200000001,231.36141823999998" stroke="grey" stroke-width="5" />
<circle cx="667.9921233070131" cy="668.146653785928" r="2.5" fill="grey" stroke="none" />
<circle cx="731.148792" cy="555.3614182399999" r="5" fill="black" stroke="none" />
<circle cx="731.148792" cy="731.3614182399999" r="5" fill="black" stroke="none" />
<path d="M731.148792,731.3614182399999 A327.04414058821396,327.04414058821396,0,0,0,767.0179985519438,688.8365916404912" stroke="grey" stroke-width="5" fill="none" />
<path d="M767.0179985519438,688.8365916404912 L327.148792,231.36141823999998" stroke="grey" stroke-width="5" />
<circle cx="767.0179985519438" cy="688.8365916404912" r="2.5" fill="grey" stroke="none" />
<circle cx="731.148792" cy="731.3614182399999" r="5" fill="black" stroke="none" />
<circle cx="827.148792" cy="731.3614182399999" r="5" fill="black" stroke="none" />
<path d="M731.148792,731.3614182399999 A327.04414058821396,327.04414058821396,0,0,1,708.4876964935232,751.973709549048" stroke="grey" stroke-width="5" fill="none" />
<path d="M708.4876964935232,751.973709549048 L231.14879200000001,279.36141824" stroke="grey" stroke-width="5" />
<circle cx="708.4876964935232" cy="751.973709549048" r="2.5" fill="grey" stroke="none" />
<circle cx="731.148792" cy="731.3614182399999" r="5" fill="black" stroke="none" />
<circle cx="731.148792" cy="779.3614182399999" r="5" fill="black" stroke="none" />
<path d="M419.14879200000007,355.3614182399999 A165.7022545670501,165.7022545670501,0,0,1,600.9667140136444,368.61141666837864" stroke="grey" stroke-width="5" fill="none" />
<path d="M600.9667140136444,368.61141666837864 L111.14879200000001,-144.63858176000002" stroke="grey" stroke-width="5" />
<circle cx="600.9667140136444" cy="368.61141666837864" r="2.5" fill="grey" stroke="none" />
<circle cx="419.148792" cy="355.36141824" r="5" fill="black" stroke="none" />
<circle cx="611.148792" cy="355.36141824" r="5" fill="black" stroke="none" />
<path d="M611.148792,355.36141824 L567.7269813724996,411.8664777516945" stroke="grey" stroke-width="5" />
<circle cx="567.7269813724996" cy="411.8664777516945" r="2.5" fill="grey" stroke="none" />
<path d="M567.7269813724996,411.8664777516945 A111.15062640274896,111.15062640274896,0,0,1,611.148792,499.36141824" stroke="grey" stroke-width="5" fill="none" />
<circle cx="611.148792" cy="355.36141824" r="5" fill="black" stroke="none" />
<circle cx="611.148792" cy="499.36141824" r="5" fill="black" stroke="none" />
<path d="M611.148792,355.36141824 A182.4126456597883,182.4126456597883,0,0,0,580.895182956696,336.5058329144242" stroke="grey" stroke-width="5" fill="none" />
<path d="M580.895182956696,336.5058329144242 L111.14879200000001,-224.63858176000002" stroke="grey" stroke-width="5" />
<circle cx="580.895182956696" cy="336.5058329144242" r="2.5" fill="grey" stroke="none" />
<circle cx="611.148792" cy="355.36141824" r="5" fill="black" stroke="none" />
<circle cx="611.148792" cy="275.36141824" r="5" fill="black" stroke="none" />
<path d="M611.1487920000001,275.36141824 A250.63229316710863,250.63229316710863,0,0,0,592.289825280391,266.9782531008782" stroke="grey" stroke-width="5" fill="none" />
<path d="M592.289825280391,266.9782531008782 L111.14879200000001,-280.63858176" stroke="grey" stroke-width="5" />
<circle cx="592.289825280391" cy="266.9782531008782" r="2.5" fill="grey" stroke="none" />
<circle cx="611.148792" cy="275.36141824" r="5" fill="black" stroke="none" />
<circle cx="611.148792" cy="219.36141823999998" r="5" fill="black" stroke="none" />
<path d="M611.148792,275.36141824 L608.13709993545,281.4482341370037" stroke="grey" stroke-width="5" />
<circle cx="608.13709993545" cy="281.4482341370037" r="2.5" fill="grey" stroke="none" />
<path d="M608.13709993545,281.4482341370037 A243.84115063763022,243.84115063763022,0,0,1,707.148792,371.36141824" stroke="grey" stroke-width="5" fill="none" />
<circle cx="611.148792" cy="275.36141824" r="5" fill="black" stroke="none" />
<circle cx="707.148792" cy="371.36141824" r="5" fill="black" stroke="none" />
<path d="M611.148792,355.36141824 A182.4126456597883,182.4126456597883,0,0,1,654.963832376691,403.7680720772347" stroke="grey" stroke-width="5" fill="none" />
<path d="M654.963832376691,403.7680720772347 L207.14879200000001,-128.63858176000002" stroke="grey" stroke-width="5" />
<circle cx="654.963832376691" cy="403.7680720772347" r="2.5" fill="grey" stroke="none" />
<circle cx="611.148792" cy="355.36141824" r="5" fill="black" stroke="none" />
<circle cx="707.148792" cy="371.36141824" r="5" fill="black" stroke="none" />
<path d="M707.148792,371.36141824 A243.84115063763022,243.84115063763022,0,0,1,738.0466511810839,447.1577952224284" stroke="grey" stroke-width="5" fill="none" />
<path d="M738.0466511810839,447.1577952224284 L255.14879200000001,-56.63858176000002" stroke="grey" stroke-width="5" />
<circle cx="738.0466511810839" cy="447.1577952224284" r="2.5" fill="grey" stroke="none" />
<circle cx="707.148792" cy="371.36141824" r="5" fill="black" stroke="none" />
<circle cx="755.148792" cy="443.36141824" r="5" fill="black" stroke="none" />
<path d="M707.1487920000001,555.36141824 A214.419002554819,214.419002554819,0,0,0,708.5216898361609,549.9421017226482" stroke="grey" stroke-width="5" fill="none" />
<path d="M708.5216898361609,549.9421017226482 L231.14879200000001,55.36141823999998" stroke="grey" stroke-width="5" />
<circle cx="708.5216898361609" cy="549.9421017226482" r="2.5" fill="grey" stroke="none" />
<circle cx="707.148792" cy="555.3614182399999" r="5" fill="black" stroke="none" />
<circle cx="731.148792" cy="555.3614182399999" r="5" fill="black" stroke="none" />
<path d="M731.148792,555.3614182399999 A237.68603381899297,237.68603381899297,0,0,0,732.2811329276333,550.3996622851647" stroke="grey" stroke-width="5" fill="none" />
<path d="M732.2811329276333,550.3996622851647 L255.14879200000001,55.36141823999998" stroke="grey" stroke-width="5" />
<circle cx="732.2811329276333" cy="550.3996622851647" r="2.5" fill="grey" stroke="none" />
<circle cx="731.148792" cy="555.3614182399999" r="5" fill="black" stroke="none" />
<circle cx="755.148792" cy="555.3614182399999" r="5" fill="black" stroke="none" />
<path d="M755.148792,555.3614182399999 L749.3475747723289,554.1026875569161" stroke="grey" stroke-width="5" />
<circle cx="749.3475747723289" cy="554.1026875569161" r="2.5" fill="grey" stroke="none" />
<path d="M749.3475747723289,554.1026875569161 A255.14959111416087,255.14959111416087,0,0,0,755.148792,499.36141824" stroke="grey" stroke-width="5" fill="none" />
<circle cx="755.148792" cy="555.3614182399999" r="5" fill="black" stroke="none" />
<circle cx="755.148792" cy="499.36141824" r="5" fill="black" stroke="none" />
<path d="M755.148792,499.36141824 A255.14959111416087,255.14959111416087,0,0,0,754.6088019030474,483.39663169058036" stroke="grey" stroke-width="5" fill="none" />
<path d="M754.6088019030474,483.39663169058036 L255.14879200000001,-16.638581760000022" stroke="grey" stroke-width="5" />
<circle cx="754.6088019030474" cy="483.39663169058036" r="2.5" fill="grey" stroke="none" />
<circle cx="755.148792" cy="499.36141824" r="5" fill="black" stroke="none" />
<circle cx="755.148792" cy="483.36141824" r="5" fill="black" stroke="none" />
<path d="M755.148792,483.36141824 A255.69072815032516,255.69072815032516,0,0,0,753.6240628520868,467.55646128357444" stroke="grey" stroke-width="5" fill="none" />
<path d="M753.6240628520868,467.55646128357444 L255.14879200000001,-32.63858176000002" stroke="grey" stroke-width="5" />
<circle cx="753.6240628520868" cy="467.55646128357444" r="2.5" fill="grey" stroke="none" />
<circle cx="755.148792" cy="483.36141824" r="5" fill="black" stroke="none" />
<circle cx="755.148792" cy="467.36141824" r="5" fill="black" stroke="none" />
<path d="M755.148792,467.36141824 A257.2278816115459,257.2278816115459,0,0,0,751.115267656481,444.2567902953431" stroke="grey" stroke-width="5" fill="none" />
<path d="M751.115267656481,444.2567902953431 L255.14879200000001,-56.63858176000002" stroke="grey" stroke-width="5" />
<circle cx="751.115267656481" cy="444.2567902953431" r="2.5" fill="grey" stroke="none" />
<circle cx="755.148792" cy="467.36141824" r="5" fill="black" stroke="none" />
<circle cx="755.148792" cy="443.36141824" r="5" fill="black" stroke="none" />
<path d="M755.148792,443.36141824 A261.359589460275,261.359589460275,0,0,1,756.913998350075,451.9996619322196" stroke="grey" stroke-width="5" fill="none" />
<path d="M756.913998350075,451.9996619322196 L303.148792,-56.63858176000002" stroke="grey" stroke-width="5" />
<circle cx="756.913998350075" cy="451.9996619322196" r="2.5" fill="grey" stroke="none" />
<circle cx="755.148792" cy="443.36141824" r="5" fill="black" stroke="none" />
<circle cx="803.148792" cy="443.36141824" r="5" fill="black" stroke="none" />
<path d="M803.148792,443.36141824 L798.4408953978245,444.2410146416902" stroke="grey" stroke-width="5" />
<circle cx="798.4408953978245" cy="444.2410146416902" r="2.5" fill="grey" stroke="none" />
<path d="M798.4408953978245,444.2410146416902 A303.60506006001197,303.60506006001197,0,0,1,803.148792,483.36141824" stroke="grey" stroke-width="5" fill="none" />
<circle cx="803.148792" cy="443.36141824" r="5" fill="black" stroke="none" />
<circle cx="803.148792" cy="483.36141824" r="5" fill="black" stroke="none" />
<path d="M803.148792,483.36141824 L755.3064673857874,485.98728530821523" stroke="grey" stroke-width="5" />
<circle cx="755.3064673857874" cy="485.98728530821523" r="2.5" fill="grey" stroke="none" />
<path d="M755.3064673857874,485.98728530821523 A255.69072815032516,255.69072815032516,0,0,0,755.148792,483.36141824" stroke="grey" stroke-width="5" fill="none" />
<circle cx="803.148792" cy="483.36141824" r="5" fill="black" stroke="none" />
<circle cx="755.148792" cy="483.36141824" r="5" fill="black" stroke="none" />
<path d="M755.148792,467.36141824 A257.2278816115459,257.2278816115459,0,0,1,756.016727164325,475.0677219165378" stroke="grey" stroke-width="5" fill="none" />
<path d="M756.016727164325,475.0677219165378 L335.148792,-32.63858176000002" stroke="grey" stroke-width="5" />
<circle cx="756.016727164325" cy="475.0677219165378" r="2.5" fill="grey" stroke="none" />
<circle cx="755.148792" cy="467.36141824" r="5" fill="black" stroke="none" />
<circle cx="835.148792" cy="467.36141824" r="5" fill="black" stroke="none" />
<circle cx="500" cy="500" r="5" fill="red" stroke="none" />
</svg>