<?xml version="1.0" encoding="UTF-8"?>
<svg xmlns="http://www.w3.org/2000/svg" xmlns:xlink="http://www.w3.org/1999/xlink"
     width="1000" height="1000" viewBox="0 0 1000 1000">
<defs>
</defs>
<rect x="0" y="0" width="1000" height="1000" fill="white" />
<path d="M294.17831949999993,249.60109903999995 L336.61878488463657,301.2333948347275" stroke="grey" stroke-width="5" />
<circle cx="336.61878488463657" cy="301.2333948347275" r="2.5" fill="grey" stroke="none" />
<path d="M336.61878488463657,301.2333948347275 A257.29668630104817,257.29668630104817,0,0,0,294.17831950000004,345.6010990399999" stroke="grey" stroke-width="5" fill="none" />
<circle cx="294.17831949999993" cy="249.60109903999995" r="5" fill="black" stroke="none" />
<circle cx="294.17831949999993" cy="345.60109903999995" r="5" fill="black" stroke="none" />
<path d="M294.17831949999993,345.60109903999995 L361.9189877630604,396.4173430076149" stroke="grey" stroke-width="5" />
<circle cx="361.9189877630604" cy="396.4173430076149" r="2.5" fill="grey" stroke="none" />
<path d="M361.9189877630604,396.41734300761476 A172.614404873927,172.614404873927,0,0,0,358.1783195,401.6010990399999" stroke="grey" stroke-width="5" fill="none" />
<circle cx="294.17831949999993" cy="345.60109903999995" r="5" fill="black" stroke="none" />
<circle cx="358.17831949999993" cy="401.60109903999995" r="5" fill="black" stroke="none" />
<path d="M270.17831949999993,401.60109903999995 L341.3183120256099,432.05991851949045" stroke="grey" stroke-width="5" />
<circle cx="341.3183120256099" cy="432.05991851949045" r="2.5" fill="grey" stroke="none" />
<path d="M341.3183120256099,432.05991851949045 A172.614404873927,172.614404873927,0,0,1,358.1783195,401.6010990399999" stroke="grey" stroke-width="5" fill="none" />
<circle cx="270.17831949999993" cy="401.60109903999995" r="5" fill="black" stroke="none" />
<circle cx="358.17831949999993" cy="401.60109903999995" r="5" fill="black" stroke="none" />
<path d="M358.17831949999993,401.60109903999995 L420.8355174891464,445.07399682000573" stroke="grey" stroke-width="5" />
<circle cx="420.8355174891464" cy="445.07399682000573" r="2.5" fill="grey" stroke="none" />
<path d="M420.83551748914647,445.0739968200057 A96.35289884865936,96.35289884865936,0,0,1,430.17831949999993,433.6010990399999" stroke="grey" stroke-width="5" fill="none" />
<circle cx="358.17831949999993" cy="401.60109903999995" r="5" fill="black" stroke="none" />
<circle cx="430.17831949999993" cy="433.60109903999995" r="5" fill="black" stroke="none" />
<path d="M430.17831949999993,433.60109903999995 L446.56841100746124,449.18771991385955" stroke="grey" stroke-width="5" />
<circle cx="446.56841100746124" cy="449.18771991385955" r="2.5" fill="grey" stroke="none" />
<path d="M446.56841100746124,449.18771991385955 A73.73481206201029,73.73481206201029,0,0,0,446.17831949999993,449.60109903999995" stroke="grey" stroke-width="5" fill="none" />
<circle cx="430.17831949999993" cy="433.60109903999995" r="5" fill="black" stroke="none" />
<circle cx="446.17831949999993" cy="449.60109903999995" r="5" fill="black" stroke="none" />
<path d="M446.17831949999993,449.60109903999995 L479.1654105980428,480.4903823504451" stroke="grey" stroke-width="5" />
<circle cx="479.1654105980428" cy="480.4903823504451" r="2.5" fill="grey" stroke="none" />
<path d="M479.1654105980428,480.4903823504451 A28.543042871774777,28.543042871774777,0,0,0,478.17831949999993,481.60109903999995" stroke="grey" stroke-width="5" fill="none" />
<circle cx="446.17831949999993" cy="449.60109903999995" r="5" fill="black" stroke="none" />
<circle cx="478.17831949999993" cy="481.60109903999995" r="5" fill="black" stroke="none" />
<path d="M446.17831949999993,449.60109903999995 A73.73481206201029,73.73481206201029,0,0,0,434.753558077511,534.3471152540537" stroke="grey" stroke-width="5" fill="none" />
<path d="M434.753558077511,534.3471152540537 L398.17831949999993,553.60109904" stroke="grey" stroke-width="5" />
<circle cx="434.753558077511" cy="534.3471152540537" r="2.5" fill="grey" stroke="none" />
<circle cx="446.17831949999993" cy="449.60109903999995" r="5" fill="black" stroke="none" />
<circle cx="398.17831949999993" cy="553.60109904" r="5" fill="black" stroke="none" />
<path d="M398.17831949999993,553.60109904 A115.06838157434896,115.06838157434896,0,0,0,430.2504271908755,591.5190118559232" stroke="grey" stroke-width="5" fill="none" />
<path d="M430.2504271908755,591.5190118559232 L398.17831949999993,633.60109904" stroke="grey" stroke-width="5" />
<circle cx="430.2504271908755" cy="591.5190118559232" r="2.5" fill="grey" stroke="none" />
<circle cx="398.17831949999993" cy="553.60109904" r="5" fill="black" stroke="none" />
<circle cx="398.17831949999993" cy="633.60109904" r="5" fill="black" stroke="none" />
<path d="M294.17831949999993,649.60109904 L364.1219687798857,598.7626899000104" stroke="grey" stroke-width="5" />
<circle cx="364.1219687798857" cy="598.7626899000104" r="2.5" fill="grey" stroke="none" />
<path d="M364.1219687798857,598.7626899000104 A167.97889237800078,167.97889237800078,0,0,0,398.17831949999993,633.60109904" stroke="grey" stroke-width="5" fill="none" />
<circle cx="294.17831949999993" cy="649.60109904" r="5" fill="black" stroke="none" />
<circle cx="398.17831949999993" cy="633.60109904" r="5" fill="black" stroke="none" />
<path d="M398.17831949999993,633.60109904 A167.97889237800078,167.97889237800078,0,0,0,437.4122396192611,655.8835479935685" stroke="grey" stroke-width="5" fill="none" />
<path d="M437.4122396192611,655.8835479935685 L398.17831949999993,753.60109904" stroke="grey" stroke-width="5" />
<circle cx="437.4122396192611" cy="655.8835479935685" r="2.5" fill="grey" stroke="none" />
<circle cx="398.17831949999993" cy="633.60109904" r="5" fill="black" stroke="none" />
<circle cx="398.17831949999993" cy="753.60109904" r="5" fill="black" stroke="none" />
<path d="M398.17831949999993,553.60109904 L448.78951160385316,526.958290679642" stroke="grey" stroke-width="5" />
<circle cx="448.78951160385316" cy="526.958290679642" r="2.5" fill="grey" stroke="none" />
<path d="M448.78951160385316,526.958290679642 A57.8728222755722,57.8728222755722,0,0,0,478.1783195,553.60109904" stroke="grey" stroke-width="5" fill="none" />
<circle cx="398.17831949999993" cy="553.60109904" r="5" fill="black" stroke="none" />
<circle cx="478.17831949999993" cy="553.60109904" r="5" fill="black" stroke="none" />
<path d="M478.17831949999993,481.60109903999995 A28.543042871774777,28.543042871774777,0,0,0,489.2374842360405,526.4362166508465" stroke="grey" stroke-width="5" fill="none" />
<path d="M489.2374842360405,526.4362166508465 L478.17831949999993,553.60109904" stroke="grey" stroke-width="5" />
<circle cx="489.2374842360405" cy="526.4362166508465" r="2.5" fill="grey" stroke="none" />
<circle cx="478.17831949999993" cy="481.60109903999995" r="5" fill="black" stroke="none" />
<circle cx="478.17831949999993" cy="553.60109904" r="5" fill="black" stroke="none" />
<path d="M478.1783195,553.60109904 A57.8728222755722,57.8728222755722,0,0,0,539.5510904969335,542.248962101374" stroke="grey" stroke-width="5" fill="none" />
<path d="M539.5510904969335,542.248962101374 L550.1783194999999,553.60109904" stroke="grey" stroke-width="5" />
<circle cx="539.5510904969335" cy="542.248962101374" r="2.5" fill="grey" stroke="none" />
<circle cx="478.17831949999993" cy="553.60109904" r="5" fill="black" stroke="none" />
<circle cx="550.1783194999999" cy="553.60109904" r="5" fill="black" stroke="none" />
<path d="M478.17831949999993,481.60109903999995 L480.2261369460295,483.32771172565714" stroke="grey" stroke-width="5" />
<circle cx="480.2261369460295" cy="483.32771172565714" r="2.5" fill="grey" stroke="none" />
<path d="M480.2261369460295,483.32771172565714 A25.864470927895848,25.864470927895848,0,0,1,518.1783194999999,481.60109903999995" stroke="grey" stroke-width="5" fill="none" />
<circle cx="478.17831949999993" cy="481.60109903999995" r="5" fill="black" stroke="none" />
<circle cx="518.1783194999999" cy="481.60109903999995" r="5" fill="black" stroke="none" />
<path d="M550.1783194999999,553.60109904 A73.42303157824499,73.42303157824499,0,0,0,573.0699064632862,507.19238038389" stroke="grey" stroke-width="5" fill="none" />
<path d="M573.0699064632862,507.19238038389 L638.1783194999999,513.60109904" stroke="grey" stroke-width="5" />
<circle cx="573.0699064632862" cy="507.19238038389" r="2.5" fill="grey" stroke="none" />
<circle cx="550.1783194999999" cy="553.60109904" r="5" fill="black" stroke="none" />
<circle cx="638.1783194999999" cy="513.60109904" r="5" fill="black" stroke="none" />
<path d="M518.1783194999999,481.60109903999995 A25.864470927895848,25.864470927895848,0,0,1,525.6996151825488,497.0844150074337" stroke="grey" stroke-width="5" fill="none" />
<path d="M525.6996151825488,497.0844150074337 L662.1783194999999,481.60109903999995" stroke="grey" stroke-width="5" />
<circle cx="525.6996151825488" cy="497.0844150074337" r="2.5" fill="grey" stroke="none" />
<circle cx="518.1783194999999" cy="481.60109903999995" r="5" fill="black" stroke="none" />
<circle cx="662.1783194999999" cy="481.60109903999995" r="5" fill="black" stroke="none" />
<path d="M638.1783194999999,513.6010990399999 A138.84609420124124,138.84609420124124,0,0,0,637.9611127758765,484.34850688969715" stroke="grey" stroke-width="5" fill="none" />
<path d="M637.9611127758765,484.34850688969715 L662.1783194999999,481.60109903999995" stroke="grey" stroke-width="5" />
<circle cx="637.9611127758765" cy="484.34850688969715" r="2.5" fill="grey" stroke="none" />
<circle cx="638.1783194999999" cy="513.60109904" r="5" fill="black" stroke="none" />
<circle cx="662.1783194999999" cy="481.60109903999995" r="5" fill="black" stroke="none" />
<path d="M398.17831949999993,633.60109904 L418.27047729881696,607.2380067120644" stroke="grey" stroke-width="5" />
<circle cx="418.27047729881696" cy="607.2380067120644" r="2.5" fill="grey" stroke="none" />
<path d="M418.27047729881696,607.2380067120644 A134.83213624555518,134.83213624555518,0,0,0,518.1783194999999,633.60109904" stroke="grey" stroke-width="5" fill="none" />
<circle cx="398.17831949999993" cy="633.60109904" r="5" fill="black" stroke="none" />
<circle cx="518.1783194999999" cy="633.60109904" r="5" fill="black" stroke="none" />
<path d="M518.1783194999999,633.60109904 L516.2069847785895,619.1128244029438" stroke="grey" stroke-width="5" />
<circle cx="516.2069847785895" cy="619.1128244029438" r="2.5" fill="grey" stroke="none" />
<path d="M516.2069847785895,619.1128244029438 A120.21036266836548,120.21036266836548,0,0,0,614.1783194999999,537.60109904" stroke="grey" stroke-width="5" fill="none" />
<circle cx="518.1783194999999" cy="633.60109904" r="5" fill="black" stroke="none" />
<circle cx="614.1783194999999" cy="537.60109904" r="5" fill="black" stroke="none" />
<path d="M614.1783194999999,537.60109904 A120.21036266836548,120.21036266836548,0,0,0,619.6322157678079,511.7755782594577" stroke="grey" stroke-width="5" fill="none" />
<path d="M619.6322157678079,511.7755782594577 L638.1783194999999,513.60109904" stroke="grey" stroke-width="5" />
<circle cx="619.6322157678079" cy="511.7755782594577" r="2.5" fill="grey" stroke="none" />
<circle cx="614.1783194999999" cy="537.60109904" r="5" fill="black" stroke="none" />
<circle cx="638.1783194999999" cy="513.60109904" r="5" fill="black" stroke="none" />
<path d="M638.1783194999999,513.6010990399999 A138.84609420124124,138.84609420124124,0,0,1,633.9743160371227,536.4571051692961" stroke="grey" stroke-width="5" fill="none" />
<path d="M633.9743160371227,536.4571051692961 L638.1783194999999,537.60109904" stroke="grey" stroke-width="5" />
<circle cx="633.9743160371227" cy="536.4571051692961" r="2.5" fill="grey" stroke="none" />
<circle cx="638.1783194999999" cy="513.60109904" r="5" fill="black" stroke="none" />
<circle cx="638.1783194999999" cy="537.60109904" r="5" fill="black" stroke="none" />
<path d="M638.1783194999999,537.60109904 A143.20297004203493,143.20297004203493,0,0,1,577.7816434163262,620.2377086288467" stroke="grey" stroke-width="5" fill="none" />
<path d="M577.7816434163262,620.2377086288467 L638.1783194999999,713.60109904" stroke="grey" stroke-width="5" />
<circle cx="577.7816434163262" cy="620.2377086288467" r="2.5" fill="grey" stroke="none" />
<circle cx="638.1783194999999" cy="537.60109904" r="5" fill="black" stroke="none" />
<circle cx="638.1783194999999" cy="713.60109904" r="5" fill="black" stroke="none" />
<path d="M638.1783194999999,713.60109904 A254.3986585871473,254.3986585871473,0,0,0,687.9551768117525,671.4395782793541" stroke="grey" stroke-width="5" fill="none" />
<path d="M687.9551768117525,671.4395782793541 L734.1783194999999,713.60109904" stroke="grey" stroke-width="5" />
<circle cx="687.9551768117525" cy="671.4395782793541" r="2.5" fill="grey" stroke="none" />
<circle cx="638.1783194999999" cy="713.60109904" r="5" fill="black" stroke="none" />
<circle cx="734.1783194999999" cy="713.60109904" r="5" fill="black" stroke="none" />
<path d="M638.1783194999999,713.60109904 A254.3986585871473,254.3986585871473,0,0,1,618.8174618597219,724.9468564976037" stroke="grey" stroke-width="5" fill="none" />
<path d="M618.8174618597219,724.9468564976037 L638.1783194999999,761.60109904" stroke="grey" stroke-width="5" />
<circle cx="618.8174618597219" cy="724.9468564976037" r="2.5" fill="grey" stroke="none" />
<circle cx="638.1783194999999" cy="713.60109904" r="5" fill="black" stroke="none" />
<circle cx="638.1783194999999" cy="761.60109904" r="5" fill="black" stroke="none" />
<path d="M326.17831949999993,337.60109903999995 L380.5926314641705,388.4395470060802" stroke="grey" stroke-width="5" />
<circle cx="380.5926314641705" cy="388.4395470060802" r="2.5" fill="grey" stroke="none" />
<path d="M380.5926314641705,388.4395470060802 A163.41314002509097,163.41314002509097,0,0,1,518.1783194999999,337.6010990399999" stroke="grey" stroke-width="5" fill="none" />
<circle cx="326.17831949999993" cy="337.60109903999995" r="5" fill="black" stroke="none" />
<circle cx="518.1783194999999" cy="337.60109903999995" r="5" fill="black" stroke="none" />
<path d="M518.1783194999999,337.60109903999995 L502.8772020178644,474.29605935020146" stroke="grey" stroke-width="5" />
<circle cx="502.8772020178644" cy="474.29605935020146" r="2.5" fill="grey" stroke="none" />
<path d="M502.8772020178644,474.29605935020146 A25.864470927895848,25.864470927895848,0,0,1,518.1783194999999,481.60109903999995" stroke="grey" stroke-width="5" fill="none" />
<circle cx="518.1783194999999" cy="337.60109903999995" r="5" fill="black" stroke="none" />
<circle cx="518.1783194999999" cy="481.60109903999995" r="5" fill="black" stroke="none" />
<path d="M518.1783194999999,337.6010990399999 A163.41314002509097,163.41314002509097,0,0,0,512.2205919705302,337.04444942024895" stroke="grey" stroke-width="5" fill="none" />
<path d="M512.2205919705302,337.04444942024895 L518.1783194999999,257.60109903999995" stroke="grey" stroke-width="5" />
<circle cx="512.2205919705302" cy="337.04444942024895" r="2.5" fill="grey" stroke="none" />
<circle cx="518.1783194999999" cy="337.60109903999995" r="5" fill="black" stroke="none" />
<circle cx="518.1783194999999" cy="257.60109903999995" r="5" fill="black" stroke="none" />
<path d="M518.1783195,257.60109903999995 A243.07957233478092,243.07957233478092,0,0,0,514.7808903051116,257.3702331364755" stroke="grey" stroke-width="5" fill="none" />
<path d="M514.7808903051117,257.3702331364755 L518.1783194999999,201.60109903999995" stroke="grey" stroke-width="5" />
<circle cx="514.7808903051117" cy="257.3702331364755" r="2.5" fill="grey" stroke="none" />
<circle cx="518.1783194999999" cy="257.60109903999995" r="5" fill="black" stroke="none" />
<circle cx="518.1783194999999" cy="201.60109903999995" r="5" fill="black" stroke="none" />
<path d="M518.1783194999999,257.60109903999995 L513.884225854868,314.86071427557306" stroke="grey" stroke-width="5" />
<circle cx="513.884225854868" cy="314.86071427557306" r="2.5" fill="grey" stroke="none" />
<path d="M513.884225854868,314.86071427557306 A185.65916849469076,185.65916849469076,0,0,1,614.1783195,353.60109903999995" stroke="grey" stroke-width="5" fill="none" />
<circle cx="518.1783194999999" cy="257.60109903999995" r="5" fill="black" stroke="none" />
<circle cx="614.1783194999999" cy="353.60109903999995" r="5" fill="black" stroke="none" />
<path d="M518.1783194999999,337.6010990399999 A163.41314002509097,163.41314002509097,0,0,1,600.497259917528,371.14288889654244" stroke="grey" stroke-width="5" fill="none" />
<path d="M600.497259917528,371.14288889654244 L614.1783194999999,353.60109903999995" stroke="grey" stroke-width="5" />
<circle cx="600.497259917528" cy="371.14288889654244" r="2.5" fill="grey" stroke="none" />
<circle cx="518.1783194999999" cy="337.60109903999995" r="5" fill="black" stroke="none" />
<circle cx="614.1783194999999" cy="353.60109903999995" r="5" fill="black" stroke="none" />
<path d="M614.1783194999999,353.60109903999995 L609.7320114450259,359.302134187726" stroke="grey" stroke-width="5" />
<circle cx="609.7320114450259" cy="359.302134187726" r="2.5" fill="grey" stroke="none" />
<path d="M609.7320114450259,359.302134187726 A178.42926828270063,178.42926828270063,0,0,1,662.1783194999999,425.60109903999995" stroke="grey" stroke-width="5" fill="none" />
<circle cx="614.1783194999999" cy="353.60109903999995" r="5" fill="black" stroke="none" />
<circle cx="662.1783194999999" cy="425.60109903999995" r="5" fill="black" stroke="none" />
<path d="M614.1783194999999,537.60109904 A120.21036266836548,120.21036266836548,0,0,0,615.9924678596019,531.5638827253425" stroke="grey" stroke-width="5" fill="none" />
<path d="M615.9924678596019,531.5638827253425 L638.1783194999999,537.60109904" stroke="grey" stroke-width="5" />
<circle cx="615.9924678596019" cy="531.5638827253425" r="2.5" fill="grey" stroke="none" />
<circle cx="614.1783194999999" cy="537.60109904" r="5" fill="black" stroke="none" />
<circle cx="638.1783194999999" cy="537.60109904" r="5" fill="black" stroke="none" />
<path d="M638.1783194999999,537.60109904 A143.20297004203493,143.20297004203493,0,0,0,639.5025953419674,532.3437246110468" stroke="grey" stroke-width="5" fill="none" />
<path d="M639.5025953419674,532.3437246110468 L662.1783194999999,537.60109904" stroke="grey" stroke-width="5" />
<circle cx="639.5025953419674" cy="532.3437246110468" r="2.5" fill="grey" stroke="none" />
<circle cx="638.1783194999999" cy="537.60109904" r="5" fill="black" stroke="none" />
<circle cx="662.1783194999999" cy="537.60109904" r="5" fill="black" stroke="none" />
<path d="M662.1783194999999,537.60109904 L659.0010662453665,536.8644517823951" stroke="grey" stroke-width="5" />
<circle cx="659.0010662453665" cy="536.8644517823951" r="2.5" fill="grey" stroke="none" />
<path d="M659.0010662453665,536.8644517823951 A163.21864744072585,163.21864744072585,0,0,0,662.1783195,481.60109903999995" stroke="grey" stroke-width="5" fill="none" />
<circle cx="662.1783194999999" cy="537.60109904" r="5" fill="black" stroke="none" />
<circle cx="662.1783194999999" cy="481.60109903999995" r="5" fill="black" stroke="none" />
<path d="M662.1783195,481.60109903999995 A163.21864744072585,163.21864744072585,0,0,0,659.6665625120474,466.1338563168699" stroke="grey" stroke-width="5" fill="none" />
<path d="M659.6665625120474,466.1338563168699 L662.1783194999999,465.60109903999995" stroke="grey" stroke-width="5" />
<circle cx="659.6665625120474" cy="466.1338563168699" r="2.5" fill="grey" stroke="none" />
<circle cx="662.1783194999999" cy="481.60109903999995" r="5" fill="black" stroke="none" />
<circle cx="662.1783194999999" cy="465.60109903999995" r="5" fill="black" stroke="none" />
<path d="M662.1783194999999,465.60109903999995 A165.78628321758094,165.78628321758094,0,0,0,658.3178141160188,450.800798414754" stroke="grey" stroke-width="5" fill="none" />
<path d="M658.3178141160188,450.800798414754 L662.1783194999999,449.60109903999995" stroke="grey" stroke-width="5" />
<circle cx="658.3178141160188" cy="450.800798414754" r="2.5" fill="grey" stroke="none" />
<circle cx="662.1783194999999" cy="465.60109903999995" r="5" fill="black" stroke="none" />
<circle cx="662.1783194999999" cy="449.60109903999995" r="5" fill="black" stroke="none" />
<path d="M662.1783194999999,449.60109903999995 A169.82890370552346,169.82890370552346,0,0,0,654.3612573798772,429.1871568575073" stroke="grey" stroke-width="5" fill="none" />
<path d="M654.3612573798772,429.1871568575073 L662.1783194999999,425.60109903999995" stroke="grey" stroke-width="5" />
<circle cx="654.3612573798772" cy="429.1871568575073" r="2.5" fill="grey" stroke="none" />
<circle cx="662.1783194999999" cy="449.60109903999995" r="5" fill="black" stroke="none" />
<circle cx="662.1783194999999" cy="425.60109903999995" r="5" fill="black" stroke="none" />
<path d="M662.1783194999999,425.60109903999995 A178.42926828270063,178.42926828270063,0,0,1,668.2021695759508,440.4598124806193" stroke="grey" stroke-width="5" fill="none" />
<path d="M668.2021695759508,440.4598124806193 L710.1783194999999,425.60109903999995" stroke="grey" stroke-width="5" />
<circle cx="668.2021695759508" cy="440.4598124806193" r="2.5" fill="grey" stroke="none" />
<circle cx="662.1783194999999" cy="425.60109903999995" r="5" fill="black" stroke="none" />
<circle cx="710.1783194999999" cy="425.60109903999995" r="5" fill="black" stroke="none" />
<path d="M710.1783194999999,425.60109903999995 L700.7675199662807,428.9323329376218" stroke="grey" stroke-width="5" />
<circle cx="700.7675199662807" cy="428.9323329376218" r="2.5" fill="grey" stroke="none" />
<path d="M700.7675199662807,428.9323329376218 A212.97467073598202,212.97467073598202,0,0,1,710.1783194999999,465.60109903999995" stroke="grey" stroke-width="5" fill="none" />
<circle cx="710.1783194999999" cy="425.60109903999995" r="5" fill="black" stroke="none" />
<circle cx="710.1783194999999" cy="465.60109903999995" r="5" fill="black" stroke="none" />
<path d="M710.1783194999999,465.60109903999995 L663.609514138036,473.2227972593147" stroke="grey" stroke-width="5" />
<circle cx="663.609514138036" cy="473.2227972593147" r="2.5" fill="grey" stroke="none" />
<path d="M663.609514138036,473.2227972593147 A165.78628321758094,165.78628321758094,0,0,0,662.1783194999999,465.60109903999995" stroke="grey" stroke-width="5" fill="none" />
<circle cx="710.1783194999999" cy="465.60109903999995" r="5" fill="black" stroke="none" />
<circle cx="662.1783194999999" cy="465.60109903999995" r="5" fill="black" stroke="none" />
<path d="M662.1783194999999,449.60109903999995 A169.82890370552346,169.82890370552346,0,0,1,666.2666953839348,465.3988072470648" stroke="grey" stroke-width="5" fill="none" />
<path d="M666.2666953839348,465.3988072470648 L742.1783194999999,449.60109903999995" stroke="grey" stroke-width="5" />
<circle cx="666.2666953839348" cy="465.3988072470648" r="2.5" fill="grey" stroke="none" />
<circle cx="662.1783194999999" cy="449.60109903999995" r="5" fill="black" stroke="none" />
<circle cx="742.1783194999999" cy="449.60109903999995" r="5" fill="black" stroke="none" />
<circle cx="500" cy="500" r="5" fill="red" stroke="none" />
</svg>