<?xml version="1.0" encoding="UTF-8"?>
<svg xmlns="http://www.w3.org/2000/svg" xmlns:xlink="http://www.w3.org/1999/xlink"
     width="1000" height="1000" viewBox="0 0 1000 1000">
<defs>
</defs>
<rect x="0" y="0" width="1000" height="1000" fill="white" />
<path d="M155.04247949999996,322.45759824000004 L184.82976118631478,337.788487460286" stroke="grey" stroke-width="5" />
<circle cx="184.82976118631478" cy="337.788487460286" r="2.5" fill="grey" stroke="none" />
<path d="M184.82976118631478,337.788487460286 A354.46417905663924,354.46417905663924,0,0,0,155.04247949999996,418.4575982399999" stroke="grey" stroke-width="5" fill="none" />
<circle cx="155.04247949999996" cy="322.45759824000004" r="5" fill="black" stroke="none" />
<circle cx="155.04247949999996" cy="418.45759824000004" r="5" fill="black" stroke="none" />
<path d="M155.04247949999996,418.45759824000004 L225.45011345614836,435.1008288809834" stroke="grey" stroke-width="5" />
<circle cx="225.45011345614836" cy="435.1008288809834" r="2.5" fill="grey" stroke="none" />
<path d="M225.45011345614836,435.1008288809834 A282.11618637217043,282.11618637217043,0,0,0,219.04247949999996,474.4575982400001" stroke="grey" stroke-width="5" fill="none" />
<circle cx="155.04247949999996" cy="418.45759824000004" r="5" fill="black" stroke="none" />
<circle cx="219.04247949999996" cy="474.45759824000004" r="5" fill="black" stroke="none" />
<path d="M131.04247949999996,474.45759824000004 L218.55742763371956,480.51613300629975" stroke="grey" stroke-width="5" />
<circle cx="218.55742763371956" cy="480.51613300629975" r="2.5" fill="grey" stroke="none" />
<path d="M218.55742763371956,480.51613300629975 A282.11618637217043,282.11618637217043,0,0,1,219.04247949999996,474.4575982400001" stroke="grey" stroke-width="5" fill="none" />
<circle cx="131.04247949999996" cy="474.45759824000004" r="5" fill="black" stroke="none" />
<circle cx="219.04247949999996" cy="474.45759824000004" r="5" fill="black" stroke="none" />
<path d="M219.04247949999996,474.45759824000004 L291.8013300253935,481.07224869821897" stroke="grey" stroke-width="5" />
<circle cx="291.8013300253935" cy="481.07224869821897" r="2.5" fill="grey" stroke="none" />
<path d="M291.8013300253935,481.072248698219 A209.0572791091886,209.0572791091886,0,0,0,291.04247949999996,506.45759824000004" stroke="grey" stroke-width="5" fill="none" />
<circle cx="219.04247949999996" cy="474.45759824000004" r="5" fill="black" stroke="none" />
<circle cx="291.04247949999996" cy="506.45759824000004" r="5" fill="black" stroke="none" />
<path d="M291.04247949999996,506.45759824000004 L305.83269544577104,506.0005231740627" stroke="grey" stroke-width="5" />
<circle cx="305.83269544577104" cy="506.0005231740627" r="2.5" fill="grey" stroke="none" />
<path d="M305.83269544577104,506.0005231740627 A194.26000215231437,194.26000215231437,0,0,0,307.04247949999996,522.45759824" stroke="grey" stroke-width="5" fill="none" />
<circle cx="291.04247949999996" cy="506.45759824000004" r="5" fill="black" stroke="none" />
<circle cx="307.04247949999996" cy="522.45759824" r="5" fill="black" stroke="none" />
<path d="M307.04247949999996,522.45759824 L331.21885621545226,519.6438009142072" stroke="grey" stroke-width="5" />
<circle cx="331.21885621545226" cy="519.6438009142072" r="2.5" fill="grey" stroke="none" />
<path d="M331.21885621545226,519.6438009142072 A169.9204325900131,169.9204325900131,0,0,0,339.0424795,554.45759824" stroke="grey" stroke-width="5" fill="none" />
<circle cx="307.04247949999996" cy="522.45759824" r="5" fill="black" stroke="none" />
<circle cx="339.04247949999996" cy="554.45759824" r="5" fill="black" stroke="none" />
<path d="M307.04247949999996,522.45759824 A194.26000215231437,194.26000215231437,0,0,0,327.98935297452437,590.2733944531523" stroke="grey" stroke-width="5" fill="none" />
<path d="M327.9893529745244,590.2733944531524 L259.04247949999996,626.45759824" stroke="grey" stroke-width="5" />
<circle cx="327.9893529745244" cy="590.2733944531524" r="2.5" fill="grey" stroke="none" />
<circle cx="307.04247949999996" cy="522.45759824" r="5" fill="black" stroke="none" />
<circle cx="259.04247949999996" cy="626.45759824" r="5" fill="black" stroke="none" />
<path d="M259.0424794999999,626.4575982399999 A272.1250647002903,272.1250647002903,0,0,0,293.3544445895782,677.0583668377619" stroke="grey" stroke-width="5" fill="none" />
<path d="M293.3544445895782,677.0583668377619 L259.04247949999996,706.45759824" stroke="grey" stroke-width="5" />
<circle cx="293.3544445895782" cy="677.0583668377619" r="2.5" fill="grey" stroke="none" />
<circle cx="259.04247949999996" cy="626.45759824" r="5" fill="black" stroke="none" />
<circle cx="259.04247949999996" cy="706.45759824" r="5" fill="black" stroke="none" />
<path d="M155.04247949999996,722.45759824 L233.33228423906962,671.9697529433151" stroke="grey" stroke-width="5" />
<circle cx="233.33228423906962" cy="671.9697529433151" r="2.5" fill="grey" stroke="none" />
<path d="M233.33228423906957,671.969752943315 A317.30941769278957,317.30941769278957,0,0,0,259.04247949999996,706.45759824" stroke="grey" stroke-width="5" fill="none" />
<circle cx="155.04247949999996" cy="722.45759824" r="5" fill="black" stroke="none" />
<circle cx="259.04247949999996" cy="706.45759824" r="5" fill="black" stroke="none" />
<path d="M259.04247949999996,706.45759824 A317.30941769278957,317.30941769278957,0,0,0,311.5647080939409,755.29866298282" stroke="grey" stroke-width="5" fill="none" />
<path d="M311.5647080939408,755.2986629828199 L259.04247949999996,826.45759824" stroke="grey" stroke-width="5" />
<circle cx="311.5647080939408" cy="755.2986629828199" r="2.5" fill="grey" stroke="none" />
<circle cx="259.04247949999996" cy="706.45759824" r="5" fill="black" stroke="none" />
<circle cx="259.04247949999996" cy="826.45759824" r="5" fill="black" stroke="none" />
<path d="M259.04247949999996,626.45759824 L318.7521017815767,595.1212223930142" stroke="grey" stroke-width="5" />
<circle cx="318.7521017815767" cy="595.1212223930142" r="2.5" fill="grey" stroke="none" />
<path d="M318.7521017815767,595.1212223930141 A204.6920798617699,204.6920798617699,0,0,0,339.04247949999996,626.45759824" stroke="grey" stroke-width="5" fill="none" />
<circle cx="259.04247949999996" cy="626.45759824" r="5" fill="black" stroke="none" />
<circle cx="339.04247949999996" cy="626.45759824" r="5" fill="black" stroke="none" />
<path d="M339.0424795,554.45759824 A169.9204325900131,169.9204325900131,0,0,0,366.3848081936265,604.9758730857867" stroke="grey" stroke-width="5" fill="none" />
<path d="M366.3848081936265,604.9758730857867 L339.04247949999996,626.45759824" stroke="grey" stroke-width="5" />
<circle cx="366.3848081936265" cy="604.9758730857867" r="2.5" fill="grey" stroke="none" />
<circle cx="339.04247949999996" cy="554.45759824" r="5" fill="black" stroke="none" />
<circle cx="339.04247949999996" cy="626.45759824" r="5" fill="black" stroke="none" />
<path d="M339.04247949999996,626.45759824 L378.42219817395267,595.5185987610976" stroke="grey" stroke-width="5" />
<circle cx="378.42219817395267" cy="595.5185987610976" r="2.5" fill="grey" stroke="none" />
<path d="M378.42219817395267,595.5185987610976 A154.61230418740024,154.61230418740024,0,0,0,411.04247949999996,626.45759824" stroke="grey" stroke-width="5" fill="none" />
<circle cx="339.04247949999996" cy="626.45759824" r="5" fill="black" stroke="none" />
<circle cx="411.04247949999996" cy="626.45759824" r="5" fill="black" stroke="none" />
<path d="M339.04247949999996,554.45759824 L374.34580681661794,542.5132391968723" stroke="grey" stroke-width="5" />
<circle cx="374.34580681661794" cy="542.5132391968723" r="2.5" fill="grey" stroke="none" />
<path d="M374.34580681661794,542.5132391968723 A132.65124112339538,132.65124112339538,0,0,0,379.04247949999996,554.45759824" stroke="grey" stroke-width="5" fill="none" />
<circle cx="339.04247949999996" cy="554.45759824" r="5" fill="black" stroke="none" />
<circle cx="379.04247949999996" cy="554.45759824" r="5" fill="black" stroke="none" />
<path d="M411.04247949999996,626.45759824 L450.2528257900974,570.7181150559513" stroke="grey" stroke-width="5" />
<circle cx="450.2528257900974" cy="570.7181150559513" r="2.5" fill="grey" stroke="none" />
<path d="M450.2528257900974,570.7181150559513 A86.46290036158383,86.46290036158383,0,0,0,499.04247949999996,586.45759824" stroke="grey" stroke-width="5" fill="none" />
<circle cx="411.04247949999996" cy="626.45759824" r="5" fill="black" stroke="none" />
<circle cx="499.04247949999996" cy="586.45759824" r="5" fill="black" stroke="none" />
<path d="M379.04247949999996,554.45759824 L446.08077306246696,524.2755604268158" stroke="grey" stroke-width="5" />
<circle cx="446.08077306246696" cy="524.2755604268158" r="2.5" fill="grey" stroke="none" />
<path d="M446.08077306246696,524.2755604268158 A59.13193610543435,59.13193610543435,0,0,0,523.0424795,554.45759824" stroke="grey" stroke-width="5" fill="none" />
<circle cx="379.04247949999996" cy="554.45759824" r="5" fill="black" stroke="none" />
<circle cx="523.0424794999999" cy="554.45759824" r="5" fill="black" stroke="none" />
<path d="M499.04247949999996,586.45759824 L499.34515218910235,559.1283099870251" stroke="grey" stroke-width="5" />
<circle cx="499.34515218910235" cy="559.1283099870251" r="2.5" fill="grey" stroke="none" />
<path d="M499.34515218910235,559.1283099870251 A59.13193610543435,59.13193610543435,0,0,0,523.0424795,554.45759824" stroke="grey" stroke-width="5" fill="none" />
<circle cx="499.04247949999996" cy="586.45759824" r="5" fill="black" stroke="none" />
<circle cx="523.0424794999999" cy="554.45759824" r="5" fill="black" stroke="none" />
<path d="M259.04247949999996,706.45759824 L318.2953741293749,655.68844071977" stroke="grey" stroke-width="5" />
<circle cx="318.2953741293749" cy="655.68844071977" r="2.5" fill="grey" stroke="none" />
<path d="M318.2953741293749,655.68844071977 A239.28113514553792,239.28113514553792,0,0,0,379.04247949999996,706.45759824" stroke="grey" stroke-width="5" fill="none" />
<circle cx="259.04247949999996" cy="706.45759824" r="5" fill="black" stroke="none" />
<circle cx="379.04247949999996" cy="706.45759824" r="5" fill="black" stroke="none" />
<path d="M379.04247949999996,706.45759824 L442.7557214352081,597.7079905128219" stroke="grey" stroke-width="5" />
<circle cx="442.7557214352081" cy="597.7079905128219" r="2.5" fill="grey" stroke="none" />
<path d="M442.7557214352081,597.7079905128219 A113.24203653439466,113.24203653439466,0,0,0,475.04247949999996,610.45759824" stroke="grey" stroke-width="5" fill="none" />
<circle cx="379.04247949999996" cy="706.45759824" r="5" fill="black" stroke="none" />
<circle cx="475.04247949999996" cy="610.45759824" r="5" fill="black" stroke="none" />
<path d="M475.04247949999996,610.45759824 L480.944358876765,584.3369176595852" stroke="grey" stroke-width="5" />
<circle cx="480.944358876765" cy="584.3369176595852" r="2.5" fill="grey" stroke="none" />
<path d="M480.944358876765,584.3369176595852 A86.46290036158383,86.46290036158383,0,0,0,499.04247949999996,586.45759824" stroke="grey" stroke-width="5" fill="none" />
<circle cx="475.04247949999996" cy="610.45759824" r="5" fill="black" stroke="none" />
<circle cx="499.04247949999996" cy="586.45759824" r="5" fill="black" stroke="none" />
<path d="M499.04247949999996,586.45759824 A86.46290036158383,86.46290036158383,0,0,0,499.25050978458825,586.4596518808293" stroke="grey" stroke-width="5" fill="none" />
<path d="M499.25050978458825,586.4596518808293 L499.04247949999996,610.45759824" stroke="grey" stroke-width="5" />
<circle cx="499.25050978458825" cy="586.4596518808293" r="2.5" fill="grey" stroke="none" />
<circle cx="499.04247949999996" cy="586.45759824" r="5" fill="black" stroke="none" />
<circle cx="499.04247949999996" cy="610.45759824" r="5" fill="black" stroke="none" />
<path d="M499.04247949999996,610.45759824 A110.46174837678957,110.46174837678957,0,0,0,499.63076979524016,610.4611312793467" stroke="grey" stroke-width="5" fill="none" />
<path d="M499.63076979524016,610.4611312793467 L499.04247949999996,786.45759824" stroke="grey" stroke-width="5" />
<circle cx="499.63076979524016" cy="610.4611312793467" r="2.5" fill="grey" stroke="none" />
<circle cx="499.04247949999996" cy="610.45759824" r="5" fill="black" stroke="none" />
<circle cx="499.04247949999996" cy="786.45759824" r="5" fill="black" stroke="none" />
<path d="M499.0424795,786.45759824 A286.45919855179585,286.45919855179585,0,0,0,590.2075167201964,771.8850425494435" stroke="grey" stroke-width="5" fill="none" />
<path d="M590.2075167201964,771.8850425494435 L595.0424794999999,786.45759824" stroke="grey" stroke-width="5" />
<circle cx="590.2075167201964" cy="771.8850425494435" r="2.5" fill="grey" stroke="none" />
<circle cx="499.04247949999996" cy="786.45759824" r="5" fill="black" stroke="none" />
<circle cx="595.0424794999999" cy="786.45759824" r="5" fill="black" stroke="none" />
<path d="M499.0424795,786.45759824 A286.45919855179585,286.45919855179585,0,0,0,499.17989774368027,786.4580246165682" stroke="grey" stroke-width="5" fill="none" />
<path d="M499.1798977436803,786.4580246165682 L499.04247949999996,834.45759824" stroke="grey" stroke-width="5" />
<circle cx="499.1798977436803" cy="786.4580246165682" r="2.5" fill="grey" stroke="none" />
<circle cx="499.04247949999996" cy="786.45759824" r="5" fill="black" stroke="none" />
<circle cx="499.04247949999996" cy="834.45759824" r="5" fill="black" stroke="none" />
<path d="M187.04247949999996,410.45759824000004 L355.3114271092926,458.6021697028982" stroke="grey" stroke-width="5" />
<circle cx="355.3114271092926" cy="458.6021697028982" r="2.5" fill="grey" stroke="none" />
<path d="M355.3114271092926,458.6021697028982 A150.49439683409207,150.49439683409207,0,0,1,379.0424794999999,410.45759824000004" stroke="grey" stroke-width="5" fill="none" />
<circle cx="187.04247949999996" cy="410.45759824000004" r="5" fill="black" stroke="none" />
<circle cx="379.04247949999996" cy="410.45759824000004" r="5" fill="black" stroke="none" />
<path d="M379.04247949999996,410.45759824000004 L393.3836371647641,421.0740666994523" stroke="grey" stroke-width="5" />
<circle cx="393.3836371647641" cy="421.0740666994523" r="2.5" fill="grey" stroke="none" />
<path d="M393.383637164764,421.0740666994524 A132.65124112339538,132.65124112339538,0,0,0,379.04247949999996,554.45759824" stroke="grey" stroke-width="5" fill="none" />
<circle cx="379.04247949999996" cy="410.45759824000004" r="5" fill="black" stroke="none" />
<circle cx="379.04247949999996" cy="554.45759824" r="5" fill="black" stroke="none" />
<path d="M379.0424794999999,410.45759824000004 A150.49439683409207,150.49439683409207,0,0,1,412.59591685321436,377.4884098228785" stroke="grey" stroke-width="5" fill="none" />
<path d="M412.59591685321436,377.4884098228785 L379.04247949999996,330.45759824000004" stroke="grey" stroke-width="5" />
<circle cx="412.59591685321436" cy="377.4884098228785" r="2.5" fill="grey" stroke="none" />
<circle cx="379.04247949999996" cy="410.45759824000004" r="5" fill="black" stroke="none" />
<circle cx="379.04247949999996" cy="330.45759824000004" r="5" fill="black" stroke="none" />
<path d="M379.0424795,330.45759824 A208.2674908862571,208.2674908862571,0,0,1,401.56866173440335,316.46085047788614" stroke="grey" stroke-width="5" fill="none" />
<path d="M401.56866173440335,316.46085047788614 L379.04247949999996,274.45759824000004" stroke="grey" stroke-width="5" />
<circle cx="401.56866173440335" cy="316.46085047788614" r="2.5" fill="grey" stroke="none" />
<circle cx="379.04247949999996" cy="330.45759824000004" r="5" fill="black" stroke="none" />
<circle cx="379.04247949999996" cy="274.45759824000004" r="5" fill="black" stroke="none" />
<path d="M379.04247949999996,330.45759824000004 L454.8955788944702,436.7785330534619" stroke="grey" stroke-width="5" />
<circle cx="454.8955788944702" cy="436.7785330534619" r="2.5" fill="grey" stroke="none" />
<path d="M454.8955788944702,436.7785330534619 A77.6618483306776,77.6618483306776,0,0,1,475.04247949999996,426.45759824000004" stroke="grey" stroke-width="5" fill="none" />
<circle cx="379.04247949999996" cy="330.45759824000004" r="5" fill="black" stroke="none" />
<circle cx="475.04247949999996" cy="426.45759824000004" r="5" fill="black" stroke="none" />
<path d="M379.04247949999996,410.45759824000004 L437.58050260248746,453.79211073010265" stroke="grey" stroke-width="5" />
<circle cx="437.58050260248746" cy="453.79211073010265" r="2.5" fill="grey" stroke="none" />
<path d="M437.58050260248746,453.79211073010265 A77.6618483306776,77.6618483306776,0,0,1,475.04247949999996,426.45759824000004" stroke="grey" stroke-width="5" fill="none" />
<circle cx="379.04247949999996" cy="410.45759824000004" r="5" fill="black" stroke="none" />
<circle cx="475.04247949999996" cy="426.45759824000004" r="5" fill="black" stroke="none" />
<path d="M475.04247949999996,426.45759824000004 L492.5784656557351,478.1309421173644" stroke="grey" stroke-width="5" />
<circle cx="492.5784656557351" cy="478.1309421173644" r="2.5" fill="grey" stroke="none" />
<path d="M492.5784656557351,478.1309421173644 A23.094043922560843,23.094043922560843,0,0,1,523.0424794999999,498.45759824" stroke="grey" stroke-width="5" fill="none" />
<circle cx="475.04247949999996" cy="426.45759824000004" r="5" fill="black" stroke="none" />
<circle cx="523.0424794999999" cy="498.45759824000004" r="5" fill="black" stroke="none" />
<path d="M475.04247949999996,610.45759824 L475.65522986031567,607.7456728657959" stroke="grey" stroke-width="5" />
<circle cx="475.65522986031567" cy="607.7456728657959" r="2.5" fill="grey" stroke="none" />
<path d="M475.65522986031567,607.7456728657959 A110.46174837678957,110.46174837678957,0,0,0,499.04247949999996,610.45759824" stroke="grey" stroke-width="5" fill="none" />
<circle cx="475.04247949999996" cy="610.45759824" r="5" fill="black" stroke="none" />
<circle cx="499.04247949999996" cy="610.45759824" r="5" fill="black" stroke="none" />
<path d="M499.04247949999996,610.45759824 A110.46174837678957,110.46174837678957,0,0,0,522.5577401698836,608.1339272055038" stroke="grey" stroke-width="5" fill="none" />
<path d="M522.5577401698836,608.1339272055038 L523.0424794999999,610.45759824" stroke="grey" stroke-width="5" />
<circle cx="522.5577401698836" cy="608.1339272055038" r="2.5" fill="grey" stroke="none" />
<circle cx="499.04247949999996" cy="610.45759824" r="5" fill="black" stroke="none" />
<circle cx="523.0424794999999" cy="610.45759824" r="5" fill="black" stroke="none" />
<path d="M523.0424794999999,610.45759824 L512.0755181771939,557.8858162966493" stroke="grey" stroke-width="5" />
<circle cx="512.0755181771939" cy="557.8858162966493" r="2.5" fill="grey" stroke="none" />
<path d="M512.0755181771939,557.8858162966493 A59.13193610543435,59.13193610543435,0,0,0,523.0424795,554.45759824" stroke="grey" stroke-width="5" fill="none" />
<circle cx="523.0424794999999" cy="610.45759824" r="5" fill="black" stroke="none" />
<circle cx="523.0424794999999" cy="554.45759824" r="5" fill="black" stroke="none" />
<path d="M523.0424794999999,554.45759824 L517.4702432385768,541.2884163547371" stroke="grey" stroke-width="5" />
<circle cx="517.4702432385768" cy="541.2884163547371" r="2.5" fill="grey" stroke="none" />
<path d="M517.4702432385768,541.2884163547371 A44.83238476700933,44.83238476700933,0,0,0,523.0424794999999,538.45759824" stroke="grey" stroke-width="5" fill="none" />
<circle cx="523.0424794999999" cy="554.45759824" r="5" fill="black" stroke="none" />
<circle cx="523.0424794999999" cy="538.45759824" r="5" fill="black" stroke="none" />
<path d="M523.0424794999999,538.45759824 L516.5375202071527,527.6009058839594" stroke="grey" stroke-width="5" />
<circle cx="516.5375202071527" cy="527.6009058839594" r="2.5" fill="grey" stroke="none" />
<path d="M516.5375202071527,527.6009058839594 A32.17607154730313,32.17607154730313,0,0,0,523.0424795,522.45759824" stroke="grey" stroke-width="5" fill="none" />
<circle cx="523.0424794999999" cy="538.45759824" r="5" fill="black" stroke="none" />
<circle cx="523.0424794999999" cy="522.45759824" r="5" fill="black" stroke="none" />
<path d="M523.0424794999999,522.45759824 L516.5385023114268,516.1187098116475" stroke="grey" stroke-width="5" />
<circle cx="516.5385023114268" cy="516.1187098116475" r="2.5" fill="grey" stroke="none" />
<path d="M516.5385023114268,516.1187098116475 A23.094043922560843,23.094043922560843,0,0,0,523.0424794999999,498.45759824" stroke="grey" stroke-width="5" fill="none" />
<circle cx="523.0424794999999" cy="522.45759824" r="5" fill="black" stroke="none" />
<circle cx="523.0424794999999" cy="498.45759824000004" r="5" fill="black" stroke="none" />
<path d="M523.0424794999999,498.45759824 A23.094043922560843,23.094043922560843,0,0,1,523.0886029655567,499.4987238325484" stroke="grey" stroke-width="5" fill="none" />
<path d="M523.0886029655567,499.4987238325484 L571.0424794999999,498.45759824000004" stroke="grey" stroke-width="5" />
<circle cx="523.0886029655567" cy="499.4987238325484" r="2.5" fill="grey" stroke="none" />
<circle cx="523.0424794999999" cy="498.45759824000004" r="5" fill="black" stroke="none" />
<circle cx="571.0424794999999" cy="498.45759824000004" r="5" fill="black" stroke="none" />
<path d="M571.0424795,498.45759824000004 A71.05922105326772,71.05922105326772,0,0,1,562.4905472211041,533.8281599367174" stroke="grey" stroke-width="5" fill="none" />
<path d="M562.4905472211041,533.8281599367174 L571.0424794999999,538.45759824" stroke="grey" stroke-width="5" />
<circle cx="562.4905472211041" cy="533.8281599367174" r="2.5" fill="grey" stroke="none" />
<circle cx="571.0424794999999" cy="498.45759824000004" r="5" fill="black" stroke="none" />
<circle cx="571.0424794999999" cy="538.45759824" r="5" fill="black" stroke="none" />
<path d="M571.0424794999999,538.45759824 L539.4262731253042,521.3427203361259" stroke="grey" stroke-width="5" />
<circle cx="539.4262731253042" cy="521.3427203361259" r="2.5" fill="grey" stroke="none" />
<path d="M539.4262731253042,521.3427203361259 A44.83238476700933,44.83238476700933,0,0,1,523.0424794999999,538.45759824" stroke="grey" stroke-width="5" fill="none" />
<circle cx="571.0424794999999" cy="538.45759824" r="5" fill="black" stroke="none" />
<circle cx="523.0424794999999" cy="538.45759824" r="5" fill="black" stroke="none" />
<path d="M523.0424795,522.45759824 A32.17607154730313,32.17607154730313,0,0,0,531.4380784932385,506.8517735565431" stroke="grey" stroke-width="5" fill="none" />
<path d="M531.4380784932385,506.8517735565431 L603.0424794999999,522.45759824" stroke="grey" stroke-width="5" />
<circle cx="531.4380784932385" cy="506.8517735565431" r="2.5" fill="grey" stroke="none" />
<circle cx="523.0424794999999" cy="522.45759824" r="5" fill="black" stroke="none" />
<circle cx="603.0424794999999" cy="522.45759824" r="5" fill="black" stroke="none" />
<circle cx="500" cy="500" r="5" fill="red" stroke="none" />
</svg>