<?xml version="1.0" encoding="UTF-8"?>
<svg xmlns="http://www.w3.org/2000/svg" xmlns:xlink="http://www.w3.org/1999/xlink"
     width="1000" height="1000" viewBox="0 0 1000 1000">
<defs>
</defs>
<rect x="0" y="0" width="1000" height="1000" fill="white" />
<path d="M110.66567950000001,352.97757584 L132.65586604502374,361.28162293615117" stroke="grey" stroke-width="5" />
<circle cx="132.65586604502374" cy="361.28162293615117" r="2.5" fill="grey" stroke="none" />
<path d="M132.65586604502386,361.28162293615105 A392.66334293687214,392.66334293687214,0,0,0,110.66567950000007,448.97757583999993" stroke="grey" stroke-width="5" fill="none" />
<circle cx="110.66567950000001" cy="352.97757584" r="5" fill="black" stroke="none" />
<circle cx="110.66567950000001" cy="448.97757584" r="5" fill="black" stroke="none" />
<path d="M110.66567950000001,448.97757584 L177.38612949005676,457.72131848043006" stroke="grey" stroke-width="5" />
<circle cx="177.38612949005676" cy="457.72131848043006" r="2.5" fill="grey" stroke="none" />
<path d="M177.38612949005676,457.72131848043006 A325.37239642667856,325.37239642667856,0,0,0,174.6656795,504.97757584000004" stroke="grey" stroke-width="5" fill="none" />
<circle cx="110.66567950000001" cy="448.97757584" r="5" fill="black" stroke="none" />
<circle cx="174.6656795" cy="504.97757584" r="5" fill="black" stroke="none" />
<path d="M86.66567950000001,504.97757584 L174.65119402809046,503.91801085915057" stroke="grey" stroke-width="5" />
<circle cx="174.65119402809046" cy="503.91801085915057" r="2.5" fill="grey" stroke="none" />
<path d="M174.65119402809046,503.91801085915057 A325.37239642667856,325.37239642667856,0,0,0,174.6656795,504.97757584000004" stroke="grey" stroke-width="5" fill="none" />
<circle cx="86.66567950000001" cy="504.97757584" r="5" fill="black" stroke="none" />
<circle cx="174.6656795" cy="504.97757584" r="5" fill="black" stroke="none" />
<path d="M174.6656795,504.97757584 L244.01117345259325,503.9165981516307" stroke="grey" stroke-width="5" />
<circle cx="244.01117345259325" cy="503.9165981516307" r="2.5" fill="grey" stroke="none" />
<path d="M244.01117345259325,503.9165981516307 A256.0187865337223,256.0187865337223,0,0,0,246.66567950000004,536.9775758400001" stroke="grey" stroke-width="5" fill="none" />
<circle cx="174.6656795" cy="504.97757584" r="5" fill="black" stroke="none" />
<circle cx="246.6656795" cy="536.97757584" r="5" fill="black" stroke="none" />
<path d="M246.6656795,536.97757584 L259.37454401399896,535.1225449050712" stroke="grey" stroke-width="5" />
<circle cx="259.37454401399896" cy="535.1225449050712" r="2.5" fill="grey" stroke="none" />
<path d="M259.37454401399896,535.1225449050712 A243.17525209009176,243.17525209009176,0,0,0,262.6656795,552.9775758400001" stroke="grey" stroke-width="5" fill="none" />
<circle cx="246.6656795" cy="536.97757584" r="5" fill="black" stroke="none" />
<circle cx="262.6656795" cy="552.97757584" r="5" fill="black" stroke="none" />
<path d="M262.6656795,552.97757584 L283.11398998643244,548.4131204451265" stroke="grey" stroke-width="5" />
<circle cx="283.11398998643244" cy="548.4131204451265" r="2.5" fill="grey" stroke="none" />
<path d="M283.11398998643244,548.4131204451267 A222.22369714060576,222.22369714060576,0,0,0,294.6656795,584.97757584" stroke="grey" stroke-width="5" fill="none" />
<circle cx="262.6656795" cy="552.97757584" r="5" fill="black" stroke="none" />
<circle cx="294.6656795" cy="584.97757584" r="5" fill="black" stroke="none" />
<path d="M262.6656795,552.9775758400001 A243.17525209009176,243.17525209009176,0,0,0,286.93975576588673,617.2157649635051" stroke="grey" stroke-width="5" fill="none" />
<path d="M286.93975576588673,617.2157649635051 L-285.3343205,156.97757584" stroke="grey" stroke-width="5" />
<circle cx="286.93975576588673" cy="617.2157649635051" r="2.5" fill="grey" stroke="none" />
<circle cx="262.6656795" cy="552.97757584" r="5" fill="black" stroke="none" />
<circle cx="214.6656795" cy="656.97757584" r="5" fill="black" stroke="none" />
<path d="M214.6656795,656.97757584 A325.6649102556179,325.6649102556179,0,0,0,249.47173867194198,708.0702382555946" stroke="grey" stroke-width="5" fill="none" />
<path d="M249.47173867194198,708.0702382555946 L-285.3343205,236.97757584" stroke="grey" stroke-width="5" />
<circle cx="249.47173867194198" cy="708.0702382555946" r="2.5" fill="grey" stroke="none" />
<circle cx="214.6656795" cy="656.97757584" r="5" fill="black" stroke="none" />
<circle cx="214.6656795" cy="736.97757584" r="5" fill="black" stroke="none" />
<path d="M110.66567950000001,752.97757584 L188.98033341124767,702.0911004998019" stroke="grey" stroke-width="5" />
<circle cx="188.98033341124767" cy="702.0911004998019" r="2.5" fill="grey" stroke="none" />
<path d="M188.98033341124767,702.0911004998019 A370.90975439613294,370.90975439613294,0,0,0,214.6656795,736.97757584" stroke="grey" stroke-width="5" fill="none" />
<circle cx="110.66567950000001" cy="752.97757584" r="5" fill="black" stroke="none" />
<circle cx="214.6656795" cy="736.97757584" r="5" fill="black" stroke="none" />
<path d="M214.6656795,736.97757584 A370.90975439613294,370.90975439613294,0,0,0,268.4171381980983,789.7299156556688" stroke="grey" stroke-width="5" fill="none" />
<path d="M268.4171381980983,789.7299156556688 L-285.3343205,356.97757584" stroke="grey" stroke-width="5" />
<circle cx="268.4171381980983" cy="789.7299156556688" r="2.5" fill="grey" stroke="none" />
<circle cx="214.6656795" cy="736.97757584" r="5" fill="black" stroke="none" />
<circle cx="214.6656795" cy="856.97757584" r="5" fill="black" stroke="none" />
<path d="M214.6656795,656.97757584 L273.5435251230706,624.5857434785951" stroke="grey" stroke-width="5" />
<circle cx="273.5435251230706" cy="624.5857434785951" r="2.5" fill="grey" stroke="none" />
<path d="M273.5435251230706,624.5857434785951 A258.4649734331514,258.4649734331514,0,0,0,294.6656795000001,656.9775758400001" stroke="grey" stroke-width="5" fill="none" />
<circle cx="214.6656795" cy="656.97757584" r="5" fill="black" stroke="none" />
<circle cx="294.6656795" cy="656.97757584" r="5" fill="black" stroke="none" />
<path d="M294.6656795,584.97757584 A222.22369714060576,222.22369714060576,0,0,0,323.45711588976405,634.9665945368686" stroke="grey" stroke-width="5" fill="none" />
<path d="M323.45711588976405,634.9665945368685 L-205.3343205,156.97757584" stroke="grey" stroke-width="5" />
<circle cx="323.45711588976405" cy="634.9665945368685" r="2.5" fill="grey" stroke="none" />
<circle cx="294.6656795" cy="584.97757584" r="5" fill="black" stroke="none" />
<circle cx="294.6656795" cy="656.97757584" r="5" fill="black" stroke="none" />
<path d="M294.6656795,656.97757584 L336.3766868272768,625.0896147814863" stroke="grey" stroke-width="5" />
<circle cx="336.3766868272768" cy="625.0896147814863" r="2.5" fill="grey" stroke="none" />
<path d="M336.3766868272769,625.0896147814863 A205.9611622121988,205.9611622121988,0,0,0,366.6656795,656.97757584" stroke="grey" stroke-width="5" fill="none" />
<circle cx="294.6656795" cy="656.97757584" r="5" fill="black" stroke="none" />
<circle cx="366.6656795" cy="656.97757584" r="5" fill="black" stroke="none" />
<path d="M294.6656795,584.97757584 L328.2341421945631,571.0852728995403" stroke="grey" stroke-width="5" />
<circle cx="328.2341421945631" cy="571.0852728995403" r="2.5" fill="grey" stroke="none" />
<path d="M328.2341421945631,571.0852728995403 A185.89412559529598,185.89412559529598,0,0,0,334.6656795,584.97757584" stroke="grey" stroke-width="5" fill="none" />
<circle cx="294.6656795" cy="584.97757584" r="5" fill="black" stroke="none" />
<circle cx="334.6656795" cy="584.97757584" r="5" fill="black" stroke="none" />
<path d="M366.6656795,656.97757584 L418.7834477179381,595.6181232822249" stroke="grey" stroke-width="5" />
<circle cx="418.7834477179381" cy="595.6181232822249" r="2.5" fill="grey" stroke="none" />
<path d="M418.7834477179381,595.6181232822249 A125.45498740424658,125.45498740424658,0,0,0,454.6656795,616.97757584" stroke="grey" stroke-width="5" fill="none" />
<circle cx="366.6656795" cy="656.97757584" r="5" fill="black" stroke="none" />
<circle cx="454.6656795" cy="616.97757584" r="5" fill="black" stroke="none" />
<path d="M334.6656795,584.97757584 L422.0754153607181,540.0512263936457" stroke="grey" stroke-width="5" />
<circle cx="422.0754153607181" cy="540.0512263936457" r="2.5" fill="grey" stroke="none" />
<path d="M422.0754153607181,540.0512263936457 A87.61473407389688,87.61473407389688,0,0,0,478.6656795,584.97757584" stroke="grey" stroke-width="5" fill="none" />
<circle cx="334.6656795" cy="584.97757584" r="5" fill="black" stroke="none" />
<circle cx="478.6656795" cy="584.97757584" r="5" fill="black" stroke="none" />
<path d="M454.6656795,616.97757584 L468.33960516667463,581.6943145257833" stroke="grey" stroke-width="5" />
<circle cx="468.33960516667463" cy="581.6943145257833" r="2.5" fill="grey" stroke="none" />
<path d="M468.3396051666746,581.6943145257833 A87.61473407389688,87.61473407389688,0,0,0,478.6656795,584.97757584" stroke="grey" stroke-width="5" fill="none" />
<circle cx="454.6656795" cy="616.97757584" r="5" fill="black" stroke="none" />
<circle cx="478.6656795" cy="584.97757584" r="5" fill="black" stroke="none" />
<path d="M214.6656795,736.97757584 L277.71359881131207,684.6146387283018" stroke="grey" stroke-width="5" />
<circle cx="277.71359881131207" cy="684.6146387283018" r="2.5" fill="grey" stroke="none" />
<path d="M277.71359881131207,684.6146387283018 A288.9529528940649,288.9529528940649,0,0,0,334.6656795,736.97757584" stroke="grey" stroke-width="5" fill="none" />
<circle cx="214.6656795" cy="736.97757584" r="5" fill="black" stroke="none" />
<circle cx="334.6656795" cy="736.97757584" r="5" fill="black" stroke="none" />
<path d="M334.6656795,736.97757584 L410.10710005311586,628.8456108218636" stroke="grey" stroke-width="5" />
<circle cx="410.10710005311586" cy="628.8456108218636" r="2.5" fill="grey" stroke="none" />
<path d="M410.10710005311586,628.8456108218636 A157.10482134205705,157.10482134205705,0,0,0,430.6656795,640.97757584" stroke="grey" stroke-width="5" fill="none" />
<circle cx="334.6656795" cy="736.97757584" r="5" fill="black" stroke="none" />
<circle cx="430.6656795" cy="640.97757584" r="5" fill="black" stroke="none" />
<path d="M430.6656795,640.97757584 L444.63354955815765,612.5766851087324" stroke="grey" stroke-width="5" />
<circle cx="444.63354955815765" cy="612.5766851087324" r="2.5" fill="grey" stroke="none" />
<path d="M444.63354955815765,612.5766851087324 A125.45498740424658,125.45498740424658,0,0,0,454.6656795,616.97757584" stroke="grey" stroke-width="5" fill="none" />
<circle cx="430.6656795" cy="640.97757584" r="5" fill="black" stroke="none" />
<circle cx="454.6656795" cy="616.97757584" r="5" fill="black" stroke="none" />
<path d="M454.6656795,616.97757584 A125.45498740424658,125.45498740424658,0,0,0,461.5941891306611,619.4317694588347" stroke="grey" stroke-width="5" fill="none" />
<path d="M461.5941891306611,619.4317694588347 L-45.33432049999999,140.97757584" stroke="grey" stroke-width="5" />
<circle cx="461.5941891306611" cy="619.4317694588347" r="2.5" fill="grey" stroke="none" />
<circle cx="454.6656795" cy="616.97757584" r="5" fill="black" stroke="none" />
<circle cx="454.6656795" cy="640.97757584" r="5" fill="black" stroke="none" />
<path d="M454.6656795,640.97757584 A148.08739819754976,148.08739819754976,0,0,0,479.0337978745399,646.5956884541766" stroke="grey" stroke-width="5" fill="none" />
<path d="M479.0337978745399,646.5956884541766 L-45.33432049999999,316.97757584" stroke="grey" stroke-width="5" />
<circle cx="479.0337978745399" cy="646.5956884541766" r="2.5" fill="grey" stroke="none" />
<circle cx="454.6656795" cy="640.97757584" r="5" fill="black" stroke="none" />
<circle cx="454.6656795" cy="816.97757584" r="5" fill="black" stroke="none" />
<path d="M454.66567949999995,816.97757584 A320.2030359015974,320.2030359015974,0,0,0,550.5396941876656,816.189379189145" stroke="grey" stroke-width="5" fill="none" />
<path d="M550.5396941876656,816.189379189145 L50.66567950000001,316.97757584" stroke="grey" stroke-width="5" />
<circle cx="550.5396941876656" cy="816.189379189145" r="2.5" fill="grey" stroke="none" />
<circle cx="454.6656795" cy="816.97757584" r="5" fill="black" stroke="none" />
<circle cx="550.6656795" cy="816.97757584" r="5" fill="black" stroke="none" />
<path d="M454.66567949999995,816.97757584 A320.2030359015974,320.2030359015974,0,0,0,460.53049195423955,817.7611400647118" stroke="grey" stroke-width="5" fill="none" />
<path d="M460.53049195423955,817.7611400647118 L-45.33432049999999,364.97757584" stroke="grey" stroke-width="5" />
<circle cx="460.53049195423955" cy="817.7611400647118" r="2.5" fill="grey" stroke="none" />
<circle cx="454.6656795" cy="816.97757584" r="5" fill="black" stroke="none" />
<circle cx="454.6656795" cy="864.97757584" r="5" fill="black" stroke="none" />
<path d="M142.6656795,440.97757584 L326.79321010077507,471.3907004328064" stroke="grey" stroke-width="5" />
<circle cx="326.79321010077507" cy="471.3907004328064" r="2.5" fill="grey" stroke="none" />
<path d="M326.79321010077507,471.3907004328064 A175.55365017258876,175.55365017258876,0,0,1,334.6656795,440.97757584" stroke="grey" stroke-width="5" fill="none" />
<circle cx="142.6656795" cy="440.97757584" r="5" fill="black" stroke="none" />
<circle cx="334.6656795" cy="440.97757584" r="5" fill="black" stroke="none" />
<path d="M334.6656795,440.97757584 A175.55365017258876,175.55365017258876,0,0,0,343.86250308001047,580.2506457574015" stroke="grey" stroke-width="5" fill="none" />
<path d="M343.86250308001047,580.2506457574015 L-165.3343205,84.97757583999999" stroke="grey" stroke-width="5" />
<circle cx="343.86250308001047" cy="580.2506457574015" r="2.5" fill="grey" stroke="none" />
<circle cx="334.6656795" cy="440.97757584" r="5" fill="black" stroke="none" />
<circle cx="334.6656795" cy="584.97757584" r="5" fill="black" stroke="none" />
<path d="M334.6656795,440.97757584 A175.55365017258876,175.55365017258876,0,0,1,365.634405791876,387.0178280346079" stroke="grey" stroke-width="5" fill="none" />
<path d="M365.634405791876,387.01782803460793 L-165.3343205,-139.02242416" stroke="grey" stroke-width="5" />
<circle cx="365.634405791876" cy="387.01782803460793" r="2.5" fill="grey" stroke="none" />
<circle cx="334.6656795" cy="440.97757584" r="5" fill="black" stroke="none" />
<circle cx="334.6656795" cy="360.97757584" r="5" fill="black" stroke="none" />
<path d="M334.6656795,360.97757583999993 A216.01544378705813,216.01544378705813,0,0,1,360.31129653149844,335.22822426820574" stroke="grey" stroke-width="5" fill="none" />
<path d="M360.3112965314984,335.2282242682058 L-165.3343205,-195.02242416" stroke="grey" stroke-width="5" />
<circle cx="360.3112965314984" cy="335.2282242682058" r="2.5" fill="grey" stroke="none" />
<circle cx="334.6656795" cy="360.97757584" r="5" fill="black" stroke="none" />
<circle cx="334.6656795" cy="304.97757584" r="5" fill="black" stroke="none" />
<path d="M334.6656795,360.97757584 L437.5466296233825,447.4856828245791" stroke="grey" stroke-width="5" />
<circle cx="437.5466296233825" cy="447.4856828245791" r="2.5" fill="grey" stroke="none" />
<path d="M437.5466296233825,447.48568282457904 A81.59765302874631,81.59765302874631,0,0,0,430.6656795,456.97757584" stroke="grey" stroke-width="5" fill="none" />
<circle cx="334.6656795" cy="360.97757584" r="5" fill="black" stroke="none" />
<circle cx="430.6656795" cy="456.97757584" r="5" fill="black" stroke="none" />
<path d="M334.6656795,440.97757584 L423.1523098230114,472.5662708648415" stroke="grey" stroke-width="5" />
<circle cx="423.1523098230114" cy="472.5662708648415" r="2.5" fill="grey" stroke="none" />
<path d="M423.1523098230114,472.5662708648415 A81.59765302874631,81.59765302874631,0,0,1,430.6656795,456.97757584" stroke="grey" stroke-width="5" fill="none" />
<circle cx="334.6656795" cy="440.97757584" r="5" fill="black" stroke="none" />
<circle cx="430.6656795" cy="456.97757584" r="5" fill="black" stroke="none" />
<path d="M430.6656795,456.97757584 L469.4239871545991,481.02737310656346" stroke="grey" stroke-width="5" />
<circle cx="469.4239871545991" cy="481.02737310656346" r="2.5" fill="grey" stroke="none" />
<path d="M469.4239871545991,481.02737310656346 A35.98406776282624,35.98406776282624,0,0,0,478.6656795,528.97757584" stroke="grey" stroke-width="5" fill="none" />
<circle cx="430.6656795" cy="456.97757584" r="5" fill="black" stroke="none" />
<circle cx="478.6656795" cy="528.97757584" r="5" fill="black" stroke="none" />
<path d="M430.6656795,640.97757584 L434.6452957908592,632.8858161831254" stroke="grey" stroke-width="5" />
<circle cx="434.6452957908592" cy="632.8858161831254" r="2.5" fill="grey" stroke="none" />
<path d="M434.6452957908592,632.8858161831254 A148.08739819754976,148.08739819754976,0,0,0,454.6656795,640.97757584" stroke="grey" stroke-width="5" fill="none" />
<circle cx="430.6656795" cy="640.97757584" r="5" fill="black" stroke="none" />
<circle cx="454.6656795" cy="640.97757584" r="5" fill="black" stroke="none" />
<path d="M454.6656795,640.97757584 L456.3508407911994,635.7371762682739" stroke="grey" stroke-width="5" />
<circle cx="456.3508407911994" cy="635.7371762682739" r="2.5" fill="grey" stroke="none" />
<path d="M456.3508407911994,635.7371762682739 A142.58271326117926,142.58271326117926,0,0,0,478.6656795,640.97757584" stroke="grey" stroke-width="5" fill="none" />
<circle cx="454.6656795" cy="640.97757584" r="5" fill="black" stroke="none" />
<circle cx="478.6656795" cy="640.97757584" r="5" fill="black" stroke="none" />
<path d="M478.6656795,640.97757584 L486.89041066408356,586.6284035076446" stroke="grey" stroke-width="5" />
<circle cx="486.89041066408356" cy="586.6284035076446" r="2.5" fill="grey" stroke="none" />
<path d="M486.89041066408356,586.6284035076446 A87.61473407389688,87.61473407389688,0,0,1,478.6656795,584.97757584" stroke="grey" stroke-width="5" fill="none" />
<circle cx="478.6656795" cy="640.97757584" r="5" fill="black" stroke="none" />
<circle cx="478.6656795" cy="584.97757584" r="5" fill="black" stroke="none" />
<path d="M478.6656795,584.97757584 L482.418820970556,570.0282895970929" stroke="grey" stroke-width="5" />
<circle cx="482.418820970556" cy="570.0282895970929" r="2.5" fill="grey" stroke="none" />
<path d="M482.418820970556,570.0282895970929 A72.20151798930317,72.20151798930317,0,0,1,478.6656795,568.97757584" stroke="grey" stroke-width="5" fill="none" />
<circle cx="478.6656795" cy="584.97757584" r="5" fill="black" stroke="none" />
<circle cx="478.6656795" cy="568.97757584" r="5" fill="black" stroke="none" />
<path d="M478.6656795,568.97757584 L483.12438516516676,554.561803462001" stroke="grey" stroke-width="5" />
<circle cx="483.12438516516676" cy="554.561803462001" r="2.5" fill="grey" stroke="none" />
<path d="M483.12438516516676,554.561803462001 A57.11196698661035,57.11196698661035,0,0,1,478.6656795,552.97757584" stroke="grey" stroke-width="5" fill="none" />
<circle cx="478.6656795" cy="568.97757584" r="5" fill="black" stroke="none" />
<circle cx="478.6656795" cy="552.97757584" r="5" fill="black" stroke="none" />
<path d="M478.6656795,552.97757584 L486.5580599819678,533.379145904461" stroke="grey" stroke-width="5" />
<circle cx="486.5580599819678" cy="533.379145904461" r="2.5" fill="grey" stroke="none" />
<path d="M486.5580599819678,533.379145904461 A35.98406776282624,35.98406776282624,0,0,1,478.6656795,528.97757584" stroke="grey" stroke-width="5" fill="none" />
<circle cx="478.6656795" cy="552.97757584" r="5" fill="black" stroke="none" />
<circle cx="478.6656795" cy="528.97757584" r="5" fill="black" stroke="none" />
<path d="M478.6656795,528.97757584 A35.98406776282624,35.98406776282624,0,0,0,524.3663705625856,526.4789183760672" stroke="grey" stroke-width="5" fill="none" />
<path d="M524.3663705625856,526.4789183760672 L26.66567950000001,28.977575839999986" stroke="grey" stroke-width="5" />
<circle cx="524.3663705625856" cy="526.4789183760672" r="2.5" fill="grey" stroke="none" />
<circle cx="478.6656795" cy="528.97757584" r="5" fill="black" stroke="none" />
<circle cx="526.6656795" cy="528.97757584" r="5" fill="black" stroke="none" />
<path d="M526.6656795,528.97757584 A39.3796694343626,39.3796694343626,0,0,1,514.1994712162007,536.730551070464" stroke="grey" stroke-width="5" fill="none" />
<path d="M514.1994712162007,536.730551070464 L26.66567950000001,68.97757583999999" stroke="grey" stroke-width="5" />
<circle cx="514.1994712162007" cy="536.730551070464" r="2.5" fill="grey" stroke="none" />
<circle cx="526.6656795" cy="528.97757584" r="5" fill="black" stroke="none" />
<circle cx="526.6656795" cy="568.97757584" r="5" fill="black" stroke="none" />
<path d="M526.6656795,568.97757584 L526.0343317041786,567.3444338655873" stroke="grey" stroke-width="5" />
<circle cx="526.0343317041786" cy="567.3444338655873" r="2.5" fill="grey" stroke="none" />
<path d="M526.0343317041786,567.3444338655873 A72.20151798930317,72.20151798930317,0,0,1,478.6656795,568.97757584" stroke="grey" stroke-width="5" fill="none" />
<circle cx="526.6656795" cy="568.97757584" r="5" fill="black" stroke="none" />
<circle cx="478.6656795" cy="568.97757584" r="5" fill="black" stroke="none" />
<path d="M478.6656795,552.97757584 A57.11196698661035,57.11196698661035,0,0,0,542.3868156267228,538.2770771363996" stroke="grey" stroke-width="5" fill="none" />
<path d="M542.3868156267228,538.2770771363996 L58.66567950000001,52.977575839999986" stroke="grey" stroke-width="5" />
<circle cx="542.3868156267228" cy="538.2770771363996" r="2.5" fill="grey" stroke="none" />
<circle cx="478.6656795" cy="552.97757584" r="5" fill="black" stroke="none" />
<circle cx="558.6656795" cy="552.97757584" r="5" fill="black" stroke="none" />
<circle cx="500" cy="500" r="5" fill="red" stroke="none" />
</svg>