<?xml version="1.0" encoding="UTF-8"?>
<svg xmlns="http://www.w3.org/2000/svg" xmlns:xlink="http://www.w3.org/1999/xlink"
     width="1000" height="1000" viewBox="0 0 1000 1000">
<defs>
</defs>
<rect x="0" y="0" width="1000" height="1000" fill="white" />
<path d="M151.208952,325.83181824 L180.2099774129826,340.3134280585947" stroke="grey" stroke-width="5" />
<circle cx="180.2099774129826" cy="340.3134280585947" r="2.5" fill="grey" stroke="none" />
<path d="M180.2099774129826,340.3134280585947 A357.4429462230339,357.4429462230339,0,0,0,151.20895199999995,421.83181824" stroke="grey" stroke-width="5" fill="none" />
<circle cx="151.208952" cy="325.83181824" r="5" fill="black" stroke="none" />
<circle cx="151.208952" cy="421.83181824" r="5" fill="black" stroke="none" />
<path d="M151.208952,421.83181824 L221.2616804583962,437.5314597368765" stroke="grey" stroke-width="5" />
<circle cx="221.2616804583962" cy="437.5314597368765" r="2.5" fill="grey" stroke="none" />
<path d="M221.2616804583962,437.5314597368765 A285.65253246467586,285.65253246467586,0,0,0,215.208952,477.8318182399999" stroke="grey" stroke-width="5" fill="none" />
<circle cx="151.208952" cy="421.83181824" r="5" fill="black" stroke="none" />
<circle cx="215.208952" cy="477.83181824" r="5" fill="black" stroke="none" />
<path d="M127.20895200000001,477.83181824 L214.8511853947461,483.0435017559279" stroke="grey" stroke-width="5" />
<circle cx="214.8511853947461" cy="483.0435017559279" r="2.5" fill="grey" stroke="none" />
<path d="M214.8511853947461,483.0435017559279 A285.65253246467586,285.65253246467586,0,0,1,215.208952,477.8318182399999" stroke="grey" stroke-width="5" fill="none" />
<circle cx="127.20895200000001" cy="477.83181824" r="5" fill="black" stroke="none" />
<circle cx="215.208952" cy="477.83181824" r="5" fill="black" stroke="none" />
<path d="M215.208952,477.83181824 L287.6243679331428,483.46864606132925" stroke="grey" stroke-width="5" />
<circle cx="287.6243679331428" cy="483.46864606132925" r="2.5" fill="grey" stroke="none" />
<path d="M287.6243679331428,483.46864606132914 A213.0180620483688,213.0180620483688,0,0,0,287.208952,509.8318182400001" stroke="grey" stroke-width="5" fill="none" />
<circle cx="215.208952" cy="477.83181824" r="5" fill="black" stroke="none" />
<circle cx="287.208952" cy="509.83181824" r="5" fill="black" stroke="none" />
<path d="M287.208952,509.83181824 L301.73230339234755,509.16077990231014" stroke="grey" stroke-width="5" />
<circle cx="301.73230339234755" cy="509.16077990231014" r="2.5" fill="grey" stroke="none" />
<path d="M301.73230339234755,509.16077990231014 A198.4792165606331,198.4792165606331,0,0,0,303.20895200000007,525.83181824" stroke="grey" stroke-width="5" fill="none" />
<circle cx="287.208952" cy="509.83181824" r="5" fill="black" stroke="none" />
<circle cx="303.208952" cy="525.8318182400001" r="5" fill="black" stroke="none" />
<path d="M303.208952,525.8318182400001 L326.8412050262514,522.7297255839569" stroke="grey" stroke-width="5" />
<circle cx="326.8412050262514" cy="522.7297255839569" r="2.5" fill="grey" stroke="none" />
<path d="M326.8412050262514,522.7297255839569 A174.64423466545554,174.64423466545554,0,0,0,335.20895199999995,557.83181824" stroke="grey" stroke-width="5" fill="none" />
<circle cx="303.208952" cy="525.8318182400001" r="5" fill="black" stroke="none" />
<circle cx="335.208952" cy="557.8318182400001" r="5" fill="black" stroke="none" />
<path d="M303.20895200000007,525.83181824 A198.4792165606331,198.4792165606331,0,0,0,324.6565848004148,592.9983126334481" stroke="grey" stroke-width="5" fill="none" />
<path d="M324.6565848004148,592.9983126334481 L-244.791048,129.83181824000002" stroke="grey" stroke-width="5" />
<circle cx="324.6565848004148" cy="592.9983126334481" r="2.5" fill="grey" stroke="none" />
<circle cx="303.208952" cy="525.8318182400001" r="5" fill="black" stroke="none" />
<circle cx="255.208952" cy="629.8318182400001" r="5" fill="black" stroke="none" />
<path d="M255.20895200000007,629.8318182400001 A277.09016259774126,277.09016259774126,0,0,0,289.62210186608974,680.3332974943917" stroke="grey" stroke-width="5" fill="none" />
<path d="M289.62210186608974,680.3332974943917 L-244.791048,209.83181824000002" stroke="grey" stroke-width="5" />
<circle cx="289.62210186608974" cy="680.3332974943917" r="2.5" fill="grey" stroke="none" />
<circle cx="255.208952" cy="629.8318182400001" r="5" fill="black" stroke="none" />
<circle cx="255.208952" cy="709.8318182400001" r="5" fill="black" stroke="none" />
<path d="M151.208952,725.8318182400001 L229.35997860111587,675.2313554819863" stroke="grey" stroke-width="5" />
<circle cx="229.35997860111587" cy="675.2313554819863" r="2.5" fill="grey" stroke="none" />
<path d="M229.35997860111593,675.2313554819864 A322.4159566876967,322.4159566876967,0,0,0,255.20895200000004,709.8318182400001" stroke="grey" stroke-width="5" fill="none" />
<circle cx="151.208952" cy="725.8318182400001" r="5" fill="black" stroke="none" />
<circle cx="255.208952" cy="709.8318182400001" r="5" fill="black" stroke="none" />
<path d="M255.20895200000004,709.8318182400001 A322.4159566876967,322.4159566876967,0,0,0,307.85040348752887,758.9026490535337" stroke="grey" stroke-width="5" fill="none" />
<path d="M307.85040348752887,758.9026490535337 L-244.791048,329.83181824" stroke="grey" stroke-width="5" />
<circle cx="307.85040348752887" cy="758.9026490535337" r="2.5" fill="grey" stroke="none" />
<circle cx="255.208952" cy="709.8318182400001" r="5" fill="black" stroke="none" />
<circle cx="255.208952" cy="829.8318182400001" r="5" fill="black" stroke="none" />
<path d="M255.208952,629.8318182400001 L314.6630963930867,598.2986403255122" stroke="grey" stroke-width="5" />
<circle cx="314.6630963930867" cy="598.2986403255122" r="2.5" fill="grey" stroke="none" />
<path d="M314.6630963930867,598.2986403255122 A209.79130231838187,209.79130231838187,0,0,0,335.208952,629.8318182400001" stroke="grey" stroke-width="5" fill="none" />
<circle cx="255.208952" cy="629.8318182400001" r="5" fill="black" stroke="none" />
<circle cx="335.208952" cy="629.8318182400001" r="5" fill="black" stroke="none" />
<path d="M335.20895199999995,557.83181824 A174.64423466545554,174.64423466545554,0,0,0,362.81697029554755,608.0806414812108" stroke="grey" stroke-width="5" fill="none" />
<path d="M362.81697029554755,608.0806414812108 L-164.791048,129.83181824000002" stroke="grey" stroke-width="5" />
<circle cx="362.81697029554755" cy="608.0806414812108" r="2.5" fill="grey" stroke="none" />
<circle cx="335.208952" cy="557.8318182400001" r="5" fill="black" stroke="none" />
<circle cx="335.208952" cy="629.8318182400001" r="5" fill="black" stroke="none" />
<path d="M335.208952,629.8318182400001 L374.64819448362925,598.7593259911623" stroke="grey" stroke-width="5" />
<circle cx="374.64819448362925" cy="598.7593259911623" r="2.5" fill="grey" stroke="none" />
<path d="M374.64819448362925,598.7593259911623 A159.58220331992757,159.58220331992757,0,0,0,407.20895200000007,629.8318182400001" stroke="grey" stroke-width="5" fill="none" />
<circle cx="335.208952" cy="629.8318182400001" r="5" fill="black" stroke="none" />
<circle cx="407.208952" cy="629.8318182400001" r="5" fill="black" stroke="none" />
<path d="M335.208952,557.8318182400001 L370.2195656559142,545.5451833166048" stroke="grey" stroke-width="5" />
<circle cx="370.2195656559142" cy="545.5451833166048" r="2.5" fill="grey" stroke="none" />
<path d="M370.2195656559142,545.5451833166048 A137.5402663291107,137.5402663291107,0,0,0,375.208952,557.8318182400001" stroke="grey" stroke-width="5" fill="none" />
<circle cx="335.208952" cy="557.8318182400001" r="5" fill="black" stroke="none" />
<circle cx="375.208952" cy="557.8318182400001" r="5" fill="black" stroke="none" />
<path d="M407.208952,629.8318182400001 L447.6919411249919,573.1886376835325" stroke="grey" stroke-width="5" />
<circle cx="447.6919411249919" cy="573.1886376835325" r="2.5" fill="grey" stroke="none" />
<path d="M447.6919411249919,573.1886376835325 A89.95948926735136,89.95948926735136,0,0,0,495.208952,589.8318182400001" stroke="grey" stroke-width="5" fill="none" />
<circle cx="407.208952" cy="629.8318182400001" r="5" fill="black" stroke="none" />
<circle cx="495.208952" cy="589.8318182400001" r="5" fill="black" stroke="none" />
<path d="M375.208952,557.8318182400001 L444.71014350142764,525.6229351607105" stroke="grey" stroke-width="5" />
<circle cx="444.71014350142764" cy="525.6229351607105" r="2.5" fill="grey" stroke="none" />
<path d="M444.71014350142764,525.6229351607105 A60.93851850744899,60.93851850744899,0,0,0,519.208952,557.8318182400001" stroke="grey" stroke-width="5" fill="none" />
<circle cx="375.208952" cy="557.8318182400001" r="5" fill="black" stroke="none" />
<circle cx="519.208952" cy="557.8318182400001" r="5" fill="black" stroke="none" />
<path d="M495.208952,589.8318182400001 L496.7545461896699,560.8520342096114" stroke="grey" stroke-width="5" />
<circle cx="496.7545461896699" cy="560.8520342096114" r="2.5" fill="grey" stroke="none" />
<path d="M496.7545461896699,560.8520342096114 A60.93851850744899,60.93851850744899,0,0,0,519.208952,557.8318182400001" stroke="grey" stroke-width="5" fill="none" />
<circle cx="495.208952" cy="589.8318182400001" r="5" fill="black" stroke="none" />
<circle cx="519.208952" cy="557.8318182400001" r="5" fill="black" stroke="none" />
<path d="M255.208952,709.8318182400001 L314.64250960024526,658.8861175796915" stroke="grey" stroke-width="5" />
<circle cx="314.64250960024526" cy="658.8861175796915" r="2.5" fill="grey" stroke="none" />
<path d="M314.64250960024526,658.8861175796915 A244.13561314737083,244.13561314737083,0,0,0,375.208952,709.8318182400001" stroke="grey" stroke-width="5" fill="none" />
<circle cx="255.208952" cy="709.8318182400001" r="5" fill="black" stroke="none" />
<circle cx="375.208952" cy="709.8318182400001" r="5" fill="black" stroke="none" />
<path d="M375.208952,709.8318182400001 L439.9820720410701,600.9180638551861" stroke="grey" stroke-width="5" />
<circle cx="439.9820720410701" cy="600.9180638551861" r="2.5" fill="grey" stroke="none" />
<path d="M439.9820720410701,600.9180638551861 A117.4163842432678,117.4163842432678,0,0,0,471.208952,613.8318182400001" stroke="grey" stroke-width="5" fill="none" />
<circle cx="375.208952" cy="709.8318182400001" r="5" fill="black" stroke="none" />
<circle cx="471.208952" cy="613.8318182400001" r="5" fill="black" stroke="none" />
<path d="M471.208952,613.8318182400001 L477.94151139771367,587.2131457397651" stroke="grey" stroke-width="5" />
<circle cx="477.94151139771367" cy="587.2131457397651" r="2.5" fill="grey" stroke="none" />
<path d="M477.94151139771367,587.2131457397651 A89.95948926735136,89.95948926735136,0,0,0,495.208952,589.8318182400001" stroke="grey" stroke-width="5" fill="none" />
<circle cx="471.208952" cy="613.8318182400001" r="5" fill="black" stroke="none" />
<circle cx="495.208952" cy="589.8318182400001" r="5" fill="black" stroke="none" />
<path d="M495.208952,589.8318182400001 A89.95948926735136,89.95948926735136,0,0,0,496.2170595854153,589.8799147254958" stroke="grey" stroke-width="5" fill="none" />
<path d="M496.2170595854153,589.8799147254958 L-4.791047999999989,113.83181824000002" stroke="grey" stroke-width="5" />
<circle cx="496.2170595854153" cy="589.8799147254958" r="2.5" fill="grey" stroke="none" />
<circle cx="495.208952" cy="589.8318182400001" r="5" fill="black" stroke="none" />
<circle cx="495.208952" cy="613.8318182400001" r="5" fill="black" stroke="none" />
<path d="M495.208952,613.8318182400001 A113.93259842890754,113.93259842890754,0,0,0,498.11690107980814,613.9170352634735" stroke="grey" stroke-width="5" fill="none" />
<path d="M498.11690107980814,613.9170352634735 L-4.791047999999989,289.83181824" stroke="grey" stroke-width="5" />
<circle cx="498.11690107980814" cy="613.9170352634735" r="2.5" fill="grey" stroke="none" />
<circle cx="495.208952" cy="613.8318182400001" r="5" fill="black" stroke="none" />
<circle cx="495.208952" cy="789.8318182400001" r="5" fill="black" stroke="none" />
<path d="M495.20895200000007,789.8318182400001 A289.8714146052396,289.8714146052396,0,0,0,587.014433746607,776.5030295041992" stroke="grey" stroke-width="5" fill="none" />
<path d="M587.0144337466069,776.5030295041993 L91.20895200000001,289.83181824" stroke="grey" stroke-width="5" />
<circle cx="587.0144337466069" cy="776.5030295041993" r="2.5" fill="grey" stroke="none" />
<circle cx="495.208952" cy="789.8318182400001" r="5" fill="black" stroke="none" />
<circle cx="591.208952" cy="789.8318182400001" r="5" fill="black" stroke="none" />
<path d="M495.20895200000007,789.8318182400001 A289.8714146052396,289.8714146052396,0,0,0,495.8895280157869,789.842269217776" stroke="grey" stroke-width="5" fill="none" />
<path d="M495.88952801578694,789.842269217776 L-4.791047999999989,337.83181824" stroke="grey" stroke-width="5" />
<circle cx="495.88952801578694" cy="789.842269217776" r="2.5" fill="grey" stroke="none" />
<circle cx="495.208952" cy="789.8318182400001" r="5" fill="black" stroke="none" />
<circle cx="495.208952" cy="837.8318182400001" r="5" fill="black" stroke="none" />
<path d="M183.208952,413.83181824 L353.66658043450303,460.1968402381052" stroke="grey" stroke-width="5" />
<circle cx="353.66658043450303" cy="460.1968402381052" r="2.5" fill="grey" stroke="none" />
<path d="M353.66658043450303,460.19684023810515 A151.65012762527664,151.65012762527664,0,0,1,375.208952,413.83181824" stroke="grey" stroke-width="5" fill="none" />
<circle cx="183.208952" cy="413.83181824" r="5" fill="black" stroke="none" />
<circle cx="375.208952" cy="413.83181824" r="5" fill="black" stroke="none" />
<path d="M375.208952,413.83181824 L386.81978547476,421.84909532255335" stroke="grey" stroke-width="5" />
<circle cx="386.81978547476" cy="421.84909532255335" r="2.5" fill="grey" stroke="none" />
<path d="M386.81978547476,421.84909532255335 A137.5402663291107,137.5402663291107,0,0,0,375.208952,557.8318182400001" stroke="grey" stroke-width="5" fill="none" />
<circle cx="375.208952" cy="413.83181824" r="5" fill="black" stroke="none" />
<circle cx="375.208952" cy="557.8318182400001" r="5" fill="black" stroke="none" />
<path d="M375.208952,413.83181824 A151.65012762527664,151.65012762527664,0,0,1,408.93292072358497,378.73768812683045" stroke="grey" stroke-width="5" fill="none" />
<path d="M408.93292072358497,378.7376881268305 L-124.79104799999999,-166.16818175999998" stroke="grey" stroke-width="5" />
<circle cx="408.93292072358497" cy="378.7376881268305" r="2.5" fill="grey" stroke="none" />
<circle cx="375.208952" cy="413.83181824" r="5" fill="black" stroke="none" />
<circle cx="375.208952" cy="333.83181824" r="5" fill="black" stroke="none" />
<path d="M375.20895200000007,333.83181823999996 A207.80921608620417,207.80921608620417,0,0,1,398.2298309481242,318.8163832419848" stroke="grey" stroke-width="5" fill="none" />
<path d="M398.2298309481242,318.8163832419848 L-124.79104799999999,-222.16818175999998" stroke="grey" stroke-width="5" />
<circle cx="398.2298309481242" cy="318.8163832419848" r="2.5" fill="grey" stroke="none" />
<circle cx="375.208952" cy="333.83181824" r="5" fill="black" stroke="none" />
<circle cx="375.208952" cy="277.83181824" r="5" fill="black" stroke="none" />
<path d="M375.208952,333.83181824 L454.45435332852367,439.3527226850229" stroke="grey" stroke-width="5" />
<circle cx="454.45435332852367" cy="439.3527226850229" r="2.5" fill="grey" stroke="none" />
<path d="M454.45435332852367,439.35272268502285 A75.84522513937642,75.84522513937642,0,0,1,471.208952,429.83181824" stroke="grey" stroke-width="5" fill="none" />
<circle cx="375.208952" cy="333.83181824" r="5" fill="black" stroke="none" />
<circle cx="471.208952" cy="429.83181824" r="5" fill="black" stroke="none" />
<path d="M375.208952,413.83181824 L437.5878854891174,456.90445337713913" stroke="grey" stroke-width="5" />
<circle cx="437.5878854891174" cy="456.90445337713913" r="2.5" fill="grey" stroke="none" />
<path d="M437.5878854891174,456.90445337713913 A75.84522513937642,75.84522513937642,0,0,1,471.208952,429.83181824" stroke="grey" stroke-width="5" fill="none" />
<circle cx="375.208952" cy="413.83181824" r="5" fill="black" stroke="none" />
<circle cx="471.208952" cy="429.83181824" r="5" fill="black" stroke="none" />
<path d="M471.208952,429.83181824 L492.6751502094613,482.1482222020117" stroke="grey" stroke-width="5" />
<circle cx="492.6751502094613" cy="482.1482222020117" r="2.5" fill="grey" stroke="none" />
<path d="M492.6751502094613,482.1482222020117 A19.29609792167062,19.29609792167062,0,0,1,519.208952,501.83181824" stroke="grey" stroke-width="5" fill="none" />
<circle cx="471.208952" cy="429.83181824" r="5" fill="black" stroke="none" />
<circle cx="519.208952" cy="501.83181824" r="5" fill="black" stroke="none" />
<path d="M471.208952,613.8318182400001 L472.0631926176906,610.4543877718149" stroke="grey" stroke-width="5" />
<circle cx="472.0631926176906" cy="610.4543877718149" r="2.5" fill="grey" stroke="none" />
<path d="M472.0631926176906,610.4543877718149 A113.93259842890754,113.93259842890754,0,0,0,495.208952,613.8318182400001" stroke="grey" stroke-width="5" fill="none" />
<circle cx="471.208952" cy="613.8318182400001" r="5" fill="black" stroke="none" />
<circle cx="495.208952" cy="613.8318182400001" r="5" fill="black" stroke="none" />
<path d="M495.208952,613.8318182400001 A113.93259842890754,113.93259842890754,0,0,0,518.957929586527,612.3442650541406" stroke="grey" stroke-width="5" fill="none" />
<path d="M518.957929586527,612.3442650541406 L19.20895200000001,113.83181824000002" stroke="grey" stroke-width="5" />
<circle cx="518.957929586527" cy="612.3442650541406" r="2.5" fill="grey" stroke="none" />
<circle cx="495.208952" cy="613.8318182400001" r="5" fill="black" stroke="none" />
<circle cx="519.208952" cy="613.8318182400001" r="5" fill="black" stroke="none" />
<path d="M519.208952,613.8318182400001 L510.139926227456,560.0889751450668" stroke="grey" stroke-width="5" />
<circle cx="510.139926227456" cy="560.0889751450668" r="2.5" fill="grey" stroke="none" />
<path d="M510.139926227456,560.0889751450668 A60.93851850744899,60.93851850744899,0,0,0,519.208952,557.8318182400001" stroke="grey" stroke-width="5" fill="none" />
<circle cx="519.208952" cy="613.8318182400001" r="5" fill="black" stroke="none" />
<circle cx="519.208952" cy="557.8318182400001" r="5" fill="black" stroke="none" />
<path d="M519.208952,557.8318182400001 L514.5099346970561,543.6846271506336" stroke="grey" stroke-width="5" />
<circle cx="514.5099346970561" cy="543.6846271506336" r="2.5" fill="grey" stroke="none" />
<path d="M514.5099346970561,543.6846271506336 A46.03134643047825,46.03134643047825,0,0,0,519.2089520000001,541.8318182400001" stroke="grey" stroke-width="5" fill="none" />
<circle cx="519.208952" cy="557.8318182400001" r="5" fill="black" stroke="none" />
<circle cx="519.208952" cy="541.8318182400001" r="5" fill="black" stroke="none" />
<path d="M519.208952,541.8318182400001 L513.4333941646316,529.2542405770573" stroke="grey" stroke-width="5" />
<circle cx="513.4333941646316" cy="529.2542405770573" r="2.5" fill="grey" stroke="none" />
<path d="M513.4333941646316,529.2542405770573 A32.19109613732813,32.19109613732813,0,0,0,519.2089520000001,525.83181824" stroke="grey" stroke-width="5" fill="none" />
<circle cx="519.208952" cy="541.8318182400001" r="5" fill="black" stroke="none" />
<circle cx="519.208952" cy="525.8318182400001" r="5" fill="black" stroke="none" />
<path d="M519.208952,525.8318182400001 L511.5142962881237,515.4841976218337" stroke="grey" stroke-width="5" />
<circle cx="511.5142962881237" cy="515.4841976218337" r="2.5" fill="grey" stroke="none" />
<path d="M511.5142962881237,515.4841976218337 A19.29609792167062,19.29609792167062,0,0,0,519.208952,501.83181824" stroke="grey" stroke-width="5" fill="none" />
<circle cx="519.208952" cy="525.8318182400001" r="5" fill="black" stroke="none" />
<circle cx="519.208952" cy="501.83181824" r="5" fill="black" stroke="none" />
<path d="M519.208952,501.83181824 A19.29609792167062,19.29609792167062,0,0,0,519.2889347043782,500.5257308940281" stroke="grey" stroke-width="5" fill="none" />
<path d="M519.2889347043782,500.5257308940281 L67.20895200000001,1.8318182400000182" stroke="grey" stroke-width="5" />
<circle cx="519.2889347043782" cy="500.5257308940281" r="2.5" fill="grey" stroke="none" />
<circle cx="519.208952" cy="501.83181824" r="5" fill="black" stroke="none" />
<circle cx="567.208952" cy="501.83181824" r="5" fill="black" stroke="none" />
<path d="M567.208952,501.83181824 A67.23391098993649,67.23391098993649,0,0,1,557.0804755651312,535.5277088518407" stroke="grey" stroke-width="5" fill="none" />
<path d="M557.0804755651312,535.5277088518407 L67.20895200000001,41.83181824000002" stroke="grey" stroke-width="5" />
<circle cx="557.0804755651312" cy="535.5277088518407" r="2.5" fill="grey" stroke="none" />
<circle cx="567.208952" cy="501.83181824" r="5" fill="black" stroke="none" />
<circle cx="567.208952" cy="541.8318182400001" r="5" fill="black" stroke="none" />
<path d="M567.208952,541.8318182400001 L539.0798498327472,524.3238605334892" stroke="grey" stroke-width="5" />
<circle cx="539.0798498327472" cy="524.3238605334892" r="2.5" fill="grey" stroke="none" />
<path d="M539.0798498327472,524.3238605334892 A46.03134643047825,46.03134643047825,0,0,1,519.2089520000001,541.8318182400001" stroke="grey" stroke-width="5" fill="none" />
<circle cx="567.208952" cy="541.8318182400001" r="5" fill="black" stroke="none" />
<circle cx="519.208952" cy="541.8318182400001" r="5" fill="black" stroke="none" />
<path d="M519.2089520000001,525.83181824 A32.19109613732813,32.19109613732813,0,0,0,531.1523983985895,508.11139596729566" stroke="grey" stroke-width="5" fill="none" />
<path d="M531.1523983985895,508.11139596729566 L99.20895200000001,25.83181824000002" stroke="grey" stroke-width="5" />
<circle cx="531.1523983985895" cy="508.11139596729566" r="2.5" fill="grey" stroke="none" />
<circle cx="519.208952" cy="525.8318182400001" r="5" fill="black" stroke="none" />
<circle cx="599.208952" cy="525.8318182400001" r="5" fill="black" stroke="none" />
<circle cx="500" cy="500" r="5" fill="red" stroke="none" />
</svg>