<?xml version="1.0" encoding="UTF-8"?>
<svg xmlns="http://www.w3.org/2000/svg" xmlns:xlink="http://www.w3.org/1999/xlink"
     width="1000" height="1000" viewBox="0 0 1000 1000">
<defs>
</defs>
<rect x="0" y="0" width="1000" height="1000" fill="white" />
<path d="M411.734272,292.48308223999993 L444.3335749646019,369.12559146326964" stroke="grey" stroke-width="5" />
<circle cx="444.3335749646019" cy="369.12559146326964" r="2.5" fill="grey" stroke="none" />
<path d="M444.3335749646019,369.12559146326964 A142.22117172228826,142.22117172228826,0,0,0,411.7342719999999,388.48308223999993" stroke="grey" stroke-width="5" fill="none" />
<circle cx="411.734272" cy="292.48308223999993" r="5" fill="black" stroke="none" />
<circle cx="411.734272" cy="388.48308223999993" r="5" fill="black" stroke="none" />
<path d="M411.734272,388.48308223999993 L462.39744895776823,452.49208625863525" stroke="grey" stroke-width="5" />
<circle cx="462.39744895776823" cy="452.49208625863525" r="2.5" fill="grey" stroke="none" />
<path d="M462.39744895776823,452.49208625863525 A60.5883958604335,60.5883958604335,0,0,1,475.734272,444.48308223999993" stroke="grey" stroke-width="5" fill="none" />
<circle cx="411.734272" cy="388.48308223999993" r="5" fill="black" stroke="none" />
<circle cx="475.734272" cy="444.48308223999993" r="5" fill="black" stroke="none" />
<path d="M387.734272,444.48308223999993 L445.68942553139823,473.14268788893685" stroke="grey" stroke-width="5" />
<circle cx="445.68942553139823" cy="473.14268788893685" r="2.5" fill="grey" stroke="none" />
<path d="M445.68942553139823,473.14268788893685 A60.5883958604335,60.5883958604335,0,0,1,475.734272,444.48308223999993" stroke="grey" stroke-width="5" fill="none" />
<circle cx="387.734272" cy="444.48308223999993" r="5" fill="black" stroke="none" />
<circle cx="475.734272" cy="444.48308223999993" r="5" fill="black" stroke="none" />
<path d="M475.734272,444.48308223999993 L478.6881920474695,451.2412778459582" stroke="grey" stroke-width="5" />
<circle cx="478.6881920474695" cy="451.2412778459582" r="2.5" fill="grey" stroke="none" />
<path d="M478.6881920474695,451.2412778459582 A53.212838153030226,53.212838153030226,0,0,1,547.734272,476.48308223999993" stroke="grey" stroke-width="5" fill="none" />
<circle cx="475.734272" cy="444.48308223999993" r="5" fill="black" stroke="none" />
<circle cx="547.7342719999999" cy="476.48308223999993" r="5" fill="black" stroke="none" />
<path d="M547.734272,476.48308223999993 A53.212838153030226,53.212838153030226,0,0,1,552.846554315785,493.7671963572262" stroke="grey" stroke-width="5" fill="none" />
<path d="M552.846554315785,493.7671963572262 L63.73427199999999,-7.516917760000069" stroke="grey" stroke-width="5" />
<circle cx="552.846554315785" cy="493.7671963572262" r="2.5" fill="grey" stroke="none" />
<circle cx="547.7342719999999" cy="476.48308223999993" r="5" fill="black" stroke="none" />
<circle cx="563.7342719999999" cy="492.48308223999993" r="5" fill="black" stroke="none" />
<path d="M563.734272,492.48308223999993 A64.17601950869644,64.17601950869644,0,0,1,562.1750051887323,515.9006355143971" stroke="grey" stroke-width="5" fill="none" />
<path d="M562.1750051887323,515.9006355143971 L95.73427199999999,24.48308223999993" stroke="grey" stroke-width="5" />
<circle cx="562.1750051887323" cy="515.9006355143971" r="2.5" fill="grey" stroke="none" />
<circle cx="563.7342719999999" cy="492.48308223999993" r="5" fill="black" stroke="none" />
<circle cx="595.7342719999999" cy="524.4830822399999" r="5" fill="black" stroke="none" />
<path d="M563.734272,492.48308223999993 A64.17601950869644,64.17601950869644,0,0,1,510.3292504047523,563.3393090115176" stroke="grey" stroke-width="5" fill="none" />
<path d="M510.3292504047523,563.3393090115176 L15.73427199999999,96.48308223999993" stroke="grey" stroke-width="5" />
<circle cx="510.3292504047523" cy="563.3393090115176" r="2.5" fill="grey" stroke="none" />
<circle cx="563.7342719999999" cy="492.48308223999993" r="5" fill="black" stroke="none" />
<circle cx="515.7342719999999" cy="596.4830822399999" r="5" fill="black" stroke="none" />
<path d="M515.734272,596.4830822399999 A97.75762105278838,97.75762105278838,0,0,1,508.68110519225957,597.3714069249361" stroke="grey" stroke-width="5" fill="none" />
<path d="M508.6811051922595,597.3714069249361 L15.73427199999999,176.48308223999993" stroke="grey" stroke-width="5" />
<circle cx="508.6811051922595" cy="597.3714069249361" r="2.5" fill="grey" stroke="none" />
<circle cx="515.7342719999999" cy="596.4830822399999" r="5" fill="black" stroke="none" />
<circle cx="515.7342719999999" cy="676.4830822399999" r="5" fill="black" stroke="none" />
<path d="M411.734272,692.4830822399999 L426.14519140587333,661.05686225624" stroke="grey" stroke-width="5" />
<circle cx="426.14519140587333" cy="661.05686225624" r="2.5" fill="grey" stroke="none" />
<path d="M426.14519140587333,661.05686225624 A177.18308506260004,177.18308506260004,0,0,0,515.734272,676.4830822399999" stroke="grey" stroke-width="5" fill="none" />
<circle cx="411.734272" cy="692.4830822399999" r="5" fill="black" stroke="none" />
<circle cx="515.7342719999999" cy="676.4830822399999" r="5" fill="black" stroke="none" />
<path d="M515.734272,676.4830822399999 A177.18308506260004,177.18308506260004,0,0,1,509.38984197045085,676.9341021399507" stroke="grey" stroke-width="5" fill="none" />
<path d="M509.3898419704508,676.9341021399507 L15.73427199999999,296.48308223999993" stroke="grey" stroke-width="5" />
<circle cx="509.3898419704508" cy="676.9341021399507" r="2.5" fill="grey" stroke="none" />
<circle cx="515.7342719999999" cy="676.4830822399999" r="5" fill="black" stroke="none" />
<circle cx="515.7342719999999" cy="796.4830822399999" r="5" fill="black" stroke="none" />
<path d="M515.734272,596.4830822399999 A97.75762105278838,97.75762105278838,0,0,0,568.8552676468564,569.3938368385864" stroke="grey" stroke-width="5" fill="none" />
<path d="M568.8552676468564,569.3938368385864 L95.73427199999999,96.48308223999993" stroke="grey" stroke-width="5" />
<circle cx="568.8552676468564" cy="569.3938368385864" r="2.5" fill="grey" stroke="none" />
<circle cx="515.7342719999999" cy="596.4830822399999" r="5" fill="black" stroke="none" />
<circle cx="595.7342719999999" cy="596.4830822399999" r="5" fill="black" stroke="none" />
<path d="M595.734272,524.4830822399999 A98.8153437040047,98.8153437040047,0,0,1,569.6002712124231,570.1446676412237" stroke="grey" stroke-width="5" fill="none" />
<path d="M569.600271212423,570.1446676412237 L95.73427199999999,96.48308223999993" stroke="grey" stroke-width="5" />
<circle cx="569.600271212423" cy="570.1446676412237" r="2.5" fill="grey" stroke="none" />
<circle cx="595.7342719999999" cy="524.4830822399999" r="5" fill="black" stroke="none" />
<circle cx="595.7342719999999" cy="596.4830822399999" r="5" fill="black" stroke="none" />
<path d="M595.734272,596.4830822399999 A135.91922599066172,135.91922599066172,0,0,0,617.8183427611107,567.7707466605319" stroke="grey" stroke-width="5" fill="none" />
<path d="M617.8183427611107,567.7707466605319 L167.73427199999998,96.48308223999993" stroke="grey" stroke-width="5" />
<circle cx="617.8183427611107" cy="567.7707466605319" r="2.5" fill="grey" stroke="none" />
<circle cx="595.7342719999999" cy="596.4830822399999" r="5" fill="black" stroke="none" />
<circle cx="667.7342719999999" cy="596.4830822399999" r="5" fill="black" stroke="none" />
<path d="M595.734272,524.4830822399999 A98.8153437040047,98.8153437040047,0,0,0,597.2460472877523,517.5407650417203" stroke="grey" stroke-width="5" fill="none" />
<path d="M597.2460472877523,517.5407650417203 L135.73427199999998,24.48308223999993" stroke="grey" stroke-width="5" />
<circle cx="597.2460472877523" cy="517.5407650417203" r="2.5" fill="grey" stroke="none" />
<circle cx="595.7342719999999" cy="524.4830822399999" r="5" fill="black" stroke="none" />
<circle cx="635.7342719999999" cy="524.4830822399999" r="5" fill="black" stroke="none" />
<path d="M667.7342719999999,596.4830822399999 A193.50393061098413,193.50393061098413,0,0,0,688.9501298847507,541.7327159245166" stroke="grey" stroke-width="5" fill="none" />
<path d="M688.9501298847507,541.7327159245166 L255.73427199999998,56.48308223999993" stroke="grey" stroke-width="5" />
<circle cx="688.9501298847507" cy="541.7327159245166" r="2.5" fill="grey" stroke="none" />
<circle cx="667.7342719999999" cy="596.4830822399999" r="5" fill="black" stroke="none" />
<circle cx="755.7342719999999" cy="556.4830822399999" r="5" fill="black" stroke="none" />
<path d="M635.7342719999999,524.4830822399999 A137.924667523038,137.924667523038,0,0,0,637.3994171084473,512.0255598455743" stroke="grey" stroke-width="5" fill="none" />
<path d="M637.3994171084473,512.0255598455743 L279.734272,24.48308223999993" stroke="grey" stroke-width="5" />
<circle cx="637.3994171084473" cy="512.0255598455743" r="2.5" fill="grey" stroke="none" />
<circle cx="635.7342719999999" cy="524.4830822399999" r="5" fill="black" stroke="none" />
<circle cx="779.7342719999999" cy="524.4830822399999" r="5" fill="black" stroke="none" />
<path d="M755.7342719999999,556.4830822399999 A261.8976068136182,261.8976068136182,0,0,0,760.9002375320415,522.8346778042717" stroke="grey" stroke-width="5" fill="none" />
<path d="M760.9002375320415,522.8346778042717 L279.734272,24.48308223999993" stroke="grey" stroke-width="5" />
<circle cx="760.9002375320415" cy="522.8346778042717" r="2.5" fill="grey" stroke="none" />
<circle cx="755.7342719999999" cy="556.4830822399999" r="5" fill="black" stroke="none" />
<circle cx="779.7342719999999" cy="524.4830822399999" r="5" fill="black" stroke="none" />
<path d="M515.734272,676.4830822399999 A177.18308506260004,177.18308506260004,0,0,0,608.0194613030508,640.4480032328665" stroke="grey" stroke-width="5" fill="none" />
<path d="M608.0194613030507,640.4480032328665 L135.73427199999998,176.48308223999993" stroke="grey" stroke-width="5" />
<circle cx="608.0194613030507" cy="640.4480032328665" r="2.5" fill="grey" stroke="none" />
<circle cx="515.7342719999999" cy="676.4830822399999" r="5" fill="black" stroke="none" />
<circle cx="635.7342719999999" cy="676.4830822399999" r="5" fill="black" stroke="none" />
<path d="M635.734272,676.4830822399999 A222.64337158851274,222.64337158851274,0,0,0,710.319762570013,573.0456595890125" stroke="grey" stroke-width="5" fill="none" />
<path d="M710.319762570013,573.0456595890125 L231.73427199999998,80.48308223999993" stroke="grey" stroke-width="5" />
<circle cx="710.319762570013" cy="573.0456595890125" r="2.5" fill="grey" stroke="none" />
<circle cx="635.7342719999999" cy="676.4830822399999" r="5" fill="black" stroke="none" />
<circle cx="731.7342719999999" cy="580.4830822399999" r="5" fill="black" stroke="none" />
<path d="M731.7342719999999,580.4830822399999 A245.31265631071824,245.31265631071824,0,0,0,739.5396213706281,552.9062296883526" stroke="grey" stroke-width="5" fill="none" />
<path d="M739.5396213706281,552.9062296883526 L255.73427199999998,56.48308223999993" stroke="grey" stroke-width="5" />
<circle cx="739.5396213706281" cy="552.9062296883526" r="2.5" fill="grey" stroke="none" />
<circle cx="731.7342719999999" cy="580.4830822399999" r="5" fill="black" stroke="none" />
<circle cx="755.7342719999999" cy="556.4830822399999" r="5" fill="black" stroke="none" />
<path d="M755.7342719999999,556.4830822399999 A261.8976068136182,261.8976068136182,0,0,1,749.8180693000367,578.6211721224164" stroke="grey" stroke-width="5" fill="none" />
<path d="M749.8180693000367,578.6211721224164 L255.73427199999998,80.48308223999993" stroke="grey" stroke-width="5" />
<circle cx="749.8180693000367" cy="578.6211721224164" r="2.5" fill="grey" stroke="none" />
<circle cx="755.7342719999999" cy="556.4830822399999" r="5" fill="black" stroke="none" />
<circle cx="755.7342719999999" cy="580.4830822399999" r="5" fill="black" stroke="none" />
<path d="M755.7342719999999,580.4830822399999 A268.09987766170383,268.09987766170383,0,0,1,689.2978993201962,689.8521785895052" stroke="grey" stroke-width="5" fill="none" />
<path d="M689.2978993201962,689.8521785895052 L255.73427199999998,256.48308223999993" stroke="grey" stroke-width="5" />
<circle cx="689.2978993201962" cy="689.8521785895052" r="2.5" fill="grey" stroke="none" />
<circle cx="755.7342719999999" cy="580.4830822399999" r="5" fill="black" stroke="none" />
<circle cx="755.7342719999999" cy="756.4830822399999" r="5" fill="black" stroke="none" />
<path d="M755.734272,756.4830822399999 A362.19275165400614,362.19275165400614,0,0,0,792.650440247517,713.3994123085513" stroke="grey" stroke-width="5" fill="none" />
<path d="M792.650440247517,713.3994123085512 L351.734272,256.48308223999993" stroke="grey" stroke-width="5" />
<circle cx="792.650440247517" cy="713.3994123085512" r="2.5" fill="grey" stroke="none" />
<circle cx="755.7342719999999" cy="756.4830822399999" r="5" fill="black" stroke="none" />
<circle cx="851.7342719999999" cy="756.4830822399999" r="5" fill="black" stroke="none" />
<path d="M755.734272,756.4830822399999 A362.19275165400614,362.19275165400614,0,0,1,732.942679457469,777.3468900814923" stroke="grey" stroke-width="5" fill="none" />
<path d="M732.942679457469,777.3468900814923 L255.73427199999998,304.48308223999993" stroke="grey" stroke-width="5" />
<circle cx="732.942679457469" cy="777.3468900814923" r="2.5" fill="grey" stroke="none" />
<circle cx="755.7342719999999" cy="756.4830822399999" r="5" fill="black" stroke="none" />
<circle cx="755.7342719999999" cy="804.4830822399999" r="5" fill="black" stroke="none" />
<path d="M443.73427200000003,380.48308223999993 A132.09892421295717,132.09892421295717,0,0,1,599.1428117964854,412.70264238072673" stroke="grey" stroke-width="5" fill="none" />
<path d="M599.1428117964854,412.70264238072673 L135.73427199999998,-119.51691776000007" stroke="grey" stroke-width="5" />
<circle cx="599.1428117964854" cy="412.70264238072673" r="2.5" fill="grey" stroke="none" />
<circle cx="443.734272" cy="380.48308223999993" r="5" fill="black" stroke="none" />
<circle cx="635.7342719999999" cy="380.48308223999993" r="5" fill="black" stroke="none" />
<path d="M635.7342719999999,380.48308223999993 L603.515145454819,408.85270945986247" stroke="grey" stroke-width="5" />
<circle cx="603.515145454819" cy="408.85270945986247" r="2.5" fill="grey" stroke="none" />
<path d="M603.515145454819,408.85270945986247 A137.924667523038,137.924667523038,0,0,1,635.7342719999999,524.4830822399999" stroke="grey" stroke-width="5" fill="none" />
<circle cx="635.7342719999999" cy="380.48308223999993" r="5" fill="black" stroke="none" />
<circle cx="635.7342719999999" cy="524.4830822399999" r="5" fill="black" stroke="none" />
<path d="M635.7342719999999,380.48308223999993 A180.85377028478172,180.85377028478172,0,0,0,601.7280529942541,350.4691019881883" stroke="grey" stroke-width="5" fill="none" />
<path d="M601.7280529942541,350.4691019881883 L135.73427199999998,-199.51691776000007" stroke="grey" stroke-width="5" />
<circle cx="601.7280529942541" cy="350.4691019881883" r="2.5" fill="grey" stroke="none" />
<circle cx="635.7342719999999" cy="380.48308223999993" r="5" fill="black" stroke="none" />
<circle cx="635.7342719999999" cy="300.48308223999993" r="5" fill="black" stroke="none" />
<path d="M635.734272,300.48308223999993 A241.3105738831612,241.3105738831612,0,0,0,613.2062037912555,286.8916977426892" stroke="grey" stroke-width="5" fill="none" />
<path d="M613.2062037912555,286.8916977426892 L135.73427199999998,-255.51691776000007" stroke="grey" stroke-width="5" />
<circle cx="613.2062037912555" cy="286.8916977426892" r="2.5" fill="grey" stroke="none" />
<circle cx="635.7342719999999" cy="300.48308223999993" r="5" fill="black" stroke="none" />
<circle cx="635.7342719999999" cy="244.48308223999993" r="5" fill="black" stroke="none" />
<path d="M635.734272,300.48308223999993 A241.3105738831612,241.3105738831612,0,0,1,720.3271281658319,401.5787133694258" stroke="grey" stroke-width="5" fill="none" />
<path d="M720.3271281658319,401.5787133694258 L231.73427199999998,-103.51691776000007" stroke="grey" stroke-width="5" />
<circle cx="720.3271281658319" cy="401.5787133694258" r="2.5" fill="grey" stroke="none" />
<circle cx="635.7342719999999" cy="300.48308223999993" r="5" fill="black" stroke="none" />
<circle cx="731.7342719999999" cy="396.48308223999993" r="5" fill="black" stroke="none" />
<path d="M635.7342719999999,380.48308223999993 A180.85377028478172,180.85377028478172,0,0,1,665.1274172680984,426.23671446723705" stroke="grey" stroke-width="5" fill="none" />
<path d="M665.1274172680984,426.23671446723705 L231.73427199999998,-103.51691776000007" stroke="grey" stroke-width="5" />
<circle cx="665.1274172680984" cy="426.23671446723705" r="2.5" fill="grey" stroke="none" />
<circle cx="635.7342719999999" cy="380.48308223999993" r="5" fill="black" stroke="none" />
<circle cx="731.7342719999999" cy="396.48308223999993" r="5" fill="black" stroke="none" />
<path d="M731.7342719999999,396.48308223999993 A253.80410769311948,253.80410769311948,0,0,1,752.2083977265372,471.5843494159748" stroke="grey" stroke-width="5" fill="none" />
<path d="M752.2083977265372,471.5843494159748 L279.734272,-31.51691776000007" stroke="grey" stroke-width="5" />
<circle cx="752.2083977265372" cy="471.5843494159748" r="2.5" fill="grey" stroke="none" />
<circle cx="731.7342719999999" cy="396.48308223999993" r="5" fill="black" stroke="none" />
<circle cx="779.7342719999999" cy="468.48308223999993" r="5" fill="black" stroke="none" />
<path d="M731.7342719999999,580.4830822399999 A245.31265631071824,245.31265631071824,0,0,0,733.998068634587,573.6424009759576" stroke="grey" stroke-width="5" fill="none" />
<path d="M733.998068634587,573.6424009759576 L255.73427199999998,80.48308223999993" stroke="grey" stroke-width="5" />
<circle cx="733.998068634587" cy="573.6424009759576" r="2.5" fill="grey" stroke="none" />
<circle cx="731.7342719999999" cy="580.4830822399999" r="5" fill="black" stroke="none" />
<circle cx="755.7342719999999" cy="580.4830822399999" r="5" fill="black" stroke="none" />
<path d="M755.7342719999999,580.4830822399999 A268.09987766170383,268.09987766170383,0,0,0,757.6480102068067,574.1285858403749" stroke="grey" stroke-width="5" fill="none" />
<path d="M757.6480102068067,574.1285858403749 L279.734272,80.48308223999993" stroke="grey" stroke-width="5" />
<circle cx="757.6480102068067" cy="574.1285858403749" r="2.5" fill="grey" stroke="none" />
<circle cx="755.7342719999999" cy="580.4830822399999" r="5" fill="black" stroke="none" />
<circle cx="779.7342719999999" cy="580.4830822399999" r="5" fill="black" stroke="none" />
<path d="M779.7342719999999,580.4830822399999 L769.8565166849845,577.6411273101264" stroke="grey" stroke-width="5" />
<circle cx="769.8565166849845" cy="577.6411273101264" r="2.5" fill="grey" stroke="none" />
<path d="M769.8565166849845,577.6411273101264 A280.803640017968,280.803640017968,0,0,0,779.7342719999999,524.4830822399999" stroke="grey" stroke-width="5" fill="none" />
<circle cx="779.7342719999999" cy="580.4830822399999" r="5" fill="black" stroke="none" />
<circle cx="779.7342719999999" cy="524.4830822399999" r="5" fill="black" stroke="none" />
<path d="M779.7342719999999,524.4830822399999 L778.7970839689699,524.4010570684899" stroke="grey" stroke-width="5" />
<circle cx="778.7970839689699" cy="524.4010570684899" r="2.5" fill="grey" stroke="none" />
<path d="M778.7970839689699,524.4010570684899 A279.86286930505906,279.86286930505906,0,0,0,779.7342719999999,508.48308223999993" stroke="grey" stroke-width="5" fill="none" />
<circle cx="779.7342719999999" cy="524.4830822399999" r="5" fill="black" stroke="none" />
<circle cx="779.7342719999999" cy="508.48308223999993" r="5" fill="black" stroke="none" />
<path d="M779.7342719999999,508.48308223999993 L779.7066651028242,508.48224504698294" stroke="grey" stroke-width="5" />
<circle cx="779.7066651028242" cy="508.48224504698294" r="2.5" fill="grey" stroke="none" />
<path d="M779.7066651028242,508.48224504698294 A279.8352497166513,279.8352497166513,0,0,0,779.7342719999999,492.48308223999993" stroke="grey" stroke-width="5" fill="none" />
<circle cx="779.7342719999999" cy="508.48308223999993" r="5" fill="black" stroke="none" />
<circle cx="779.7342719999999" cy="492.48308223999993" r="5" fill="black" stroke="none" />
<path d="M779.7342719999999,492.48308223999993 A279.8352497166513,279.8352497166513,0,0,0,778.0758774943789,468.66992914607835" stroke="grey" stroke-width="5" fill="none" />
<path d="M778.0758774943789,468.66992914607835 L279.734272,-31.51691776000007" stroke="grey" stroke-width="5" />
<circle cx="778.0758774943789" cy="468.66992914607835" r="2.5" fill="grey" stroke="none" />
<circle cx="779.7342719999999" cy="492.48308223999993" r="5" fill="black" stroke="none" />
<circle cx="779.7342719999999" cy="468.48308223999993" r="5" fill="black" stroke="none" />
<path d="M779.7342719999999,468.48308223999993 A281.5041368016829,281.5041368016829,0,0,1,780.211433079414,473.0531670127693" stroke="grey" stroke-width="5" fill="none" />
<path d="M780.211433079414,473.0531670127693 L327.734272,-31.51691776000007" stroke="grey" stroke-width="5" />
<circle cx="780.211433079414" cy="473.0531670127693" r="2.5" fill="grey" stroke="none" />
<circle cx="779.7342719999999" cy="468.48308223999993" r="5" fill="black" stroke="none" />
<circle cx="827.7342719999999" cy="468.48308223999993" r="5" fill="black" stroke="none" />
<path d="M827.7342719999999,468.48308223999993 L826.3385391638617,468.6173043851026" stroke="grey" stroke-width="5" />
<circle cx="826.3385391638617" cy="468.6173043851026" r="2.5" fill="grey" stroke="none" />
<path d="M826.3385391638617,468.6173043851026 A327.84404177544627,327.84404177544627,0,0,1,827.7342719999999,508.48308223999993" stroke="grey" stroke-width="5" fill="none" />
<circle cx="827.7342719999999" cy="468.48308223999993" r="5" fill="black" stroke="none" />
<circle cx="827.7342719999999" cy="508.48308223999993" r="5" fill="black" stroke="none" />
<path d="M827.7342719999999,508.48308223999993 L779.7691647370181,507.24155218249564" stroke="grey" stroke-width="5" />
<circle cx="779.7691647370181" cy="507.24155218249564" r="2.5" fill="grey" stroke="none" />
<path d="M779.7691647370181,507.24155218249564 A279.86286930505906,279.86286930505906,0,0,1,779.7342719999999,508.48308223999993" stroke="grey" stroke-width="5" fill="none" />
<circle cx="827.7342719999999" cy="508.48308223999993" r="5" fill="black" stroke="none" />
<circle cx="779.7342719999999" cy="508.48308223999993" r="5" fill="black" stroke="none" />
<path d="M779.7342719999999,492.48308223999993 A279.8352497166513,279.8352497166513,0,0,1,779.774177146124,494.15390846891813" stroke="grey" stroke-width="5" fill="none" />
<path d="M779.774177146124,494.15390846891813 L359.734272,-7.516917760000069" stroke="grey" stroke-width="5" />
<circle cx="779.774177146124" cy="494.15390846891813" r="2.5" fill="grey" stroke="none" />
<circle cx="779.7342719999999" cy="492.48308223999993" r="5" fill="black" stroke="none" />
<circle cx="859.7342719999999" cy="492.48308223999993" r="5" fill="black" stroke="none" />
<circle cx="500" cy="500" r="5" fill="red" stroke="none" />
</svg>