<?xml version="1.0" encoding="UTF-8"?>
<svg xmlns="http://www.w3.org/2000/svg" xmlns:xlink="http://www.w3.org/1999/xlink"
     width="1000" height="1000" viewBox="0 0 1000 1000">
<defs>
</defs>
<rect x="0" y="0" width="1000" height="1000" fill="white" />
<path d="M183.81631200000004,297.81594624 L219.00102184691673,320.31485284779126" stroke="grey" stroke-width="5" />
<circle cx="219.00102184691673" cy="320.31485284779126" r="2.5" fill="grey" stroke="none" />
<path d="M219.00102184691679,320.31485284779114 A333.53737096491585,333.53737096491585,0,0,0,183.81631200000004,393.81594624" stroke="grey" stroke-width="5" fill="none" />
<circle cx="183.81631200000004" cy="297.81594624" r="5" fill="black" stroke="none" />
<circle cx="183.81631200000004" cy="393.81594624" r="5" fill="black" stroke="none" />
<path d="M183.81631200000004,393.81594624 L256.24971582599386,418.1412759068458" stroke="grey" stroke-width="5" />
<circle cx="256.24971582599386" cy="418.1412759068458" r="2.5" fill="grey" stroke="none" />
<path d="M256.24971582599386,418.1412759068458 A257.1284732289831,257.1284732289831,0,0,0,247.816312,449.81594624000013" stroke="grey" stroke-width="5" fill="none" />
<circle cx="183.81631200000004" cy="393.81594624" r="5" fill="black" stroke="none" />
<circle cx="247.81631200000004" cy="449.81594624" r="5" fill="black" stroke="none" />
<path d="M159.81631200000004,449.81594624 L245.62452538711807,462.47441325523414" stroke="grey" stroke-width="5" />
<circle cx="245.62452538711807" cy="462.47441325523414" r="2.5" fill="grey" stroke="none" />
<path d="M245.62452538711807,462.47441325523414 A257.1284732289831,257.1284732289831,0,0,1,247.816312,449.81594624000013" stroke="grey" stroke-width="5" fill="none" />
<circle cx="159.81631200000004" cy="449.81594624" r="5" fill="black" stroke="none" />
<circle cx="247.81631200000004" cy="449.81594624" r="5" fill="black" stroke="none" />
<path d="M247.81631200000004,449.81594624 L322.3837498781222,464.65471848930247" stroke="grey" stroke-width="5" />
<circle cx="322.3837498781222" cy="464.65471848930247" r="2.5" fill="grey" stroke="none" />
<path d="M322.3837498781222,464.6547184893026 A181.09892664626122,181.09892664626122,0,0,0,319.81631200000004,481.81594623999996" stroke="grey" stroke-width="5" fill="none" />
<circle cx="247.81631200000004" cy="449.81594624" r="5" fill="black" stroke="none" />
<circle cx="319.81631200000004" cy="481.81594624" r="5" fill="black" stroke="none" />
<path d="M319.81631200000004,481.81594624 L336.6316116951501,483.5129384430185" stroke="grey" stroke-width="5" />
<circle cx="336.6316116951501" cy="483.5129384430185" r="2.5" fill="grey" stroke="none" />
<path d="M336.6316116951501,483.5129384430185 A164.19821404664515,164.19821404664515,0,0,0,335.81631200000004,497.8159462400001" stroke="grey" stroke-width="5" fill="none" />
<circle cx="319.81631200000004" cy="481.81594624" r="5" fill="black" stroke="none" />
<circle cx="335.81631200000004" cy="497.81594624" r="5" fill="black" stroke="none" />
<path d="M335.81631200000004,497.81594624 L364.5073086564891,498.1976082667767" stroke="grey" stroke-width="5" />
<circle cx="364.5073086564891" cy="498.1976082667767" r="2.5" fill="grey" stroke="none" />
<path d="M364.5073086564891,498.19760826677674 A135.5046789726019,135.5046789726019,0,0,0,367.81631200000004,529.81594624" stroke="grey" stroke-width="5" fill="none" />
<circle cx="335.81631200000004" cy="497.81594624" r="5" fill="black" stroke="none" />
<circle cx="367.81631200000004" cy="529.81594624" r="5" fill="black" stroke="none" />
<path d="M335.81631200000004,497.8159462400001 A164.19821404664515,164.19821404664515,0,0,0,351.96275448756234,571.035395664402" stroke="grey" stroke-width="5" fill="none" />
<path d="M351.96275448756234,571.035395664402 L287.81631200000004,601.81594624" stroke="grey" stroke-width="5" />
<circle cx="351.96275448756234" cy="571.035395664402" r="2.5" fill="grey" stroke="none" />
<circle cx="335.81631200000004" cy="497.81594624" r="5" fill="black" stroke="none" />
<circle cx="287.81631200000004" cy="601.81594624" r="5" fill="black" stroke="none" />
<path d="M287.81631200000004,601.81594624 A235.3474120572136,235.3474120572136,0,0,0,321.2877088931697,653.1349776157473" stroke="grey" stroke-width="5" fill="none" />
<path d="M321.2877088931697,653.1349776157473 L287.81631200000004,681.81594624" stroke="grey" stroke-width="5" />
<circle cx="321.2877088931697" cy="653.1349776157473" r="2.5" fill="grey" stroke="none" />
<circle cx="287.81631200000004" cy="601.81594624" r="5" fill="black" stroke="none" />
<circle cx="287.81631200000004" cy="681.81594624" r="5" fill="black" stroke="none" />
<path d="M183.81631200000004,697.81594624 L263.1148782887889,648.203896279054" stroke="grey" stroke-width="5" />
<circle cx="263.1148782887889" cy="648.203896279054" r="2.5" fill="grey" stroke="none" />
<path d="M263.1148782887889,648.203896279054 A279.42611860817146,279.42611860817146,0,0,0,287.81631200000004,681.81594624" stroke="grey" stroke-width="5" fill="none" />
<circle cx="183.81631200000004" cy="697.81594624" r="5" fill="black" stroke="none" />
<circle cx="287.81631200000004" cy="681.81594624" r="5" fill="black" stroke="none" />
<path d="M287.81631200000004,681.81594624 A279.42611860817146,279.42611860817146,0,0,0,339.29612661108285,728.5896341443041" stroke="grey" stroke-width="5" fill="none" />
<path d="M339.29612661108285,728.5896341443041 L287.81631200000004,801.81594624" stroke="grey" stroke-width="5" />
<circle cx="339.29612661108285" cy="728.5896341443041" r="2.5" fill="grey" stroke="none" />
<circle cx="287.81631200000004" cy="681.81594624" r="5" fill="black" stroke="none" />
<circle cx="287.81631200000004" cy="801.81594624" r="5" fill="black" stroke="none" />
<path d="M287.81631200000004,601.81594624 L349.5717187070783,572.1827297162246" stroke="grey" stroke-width="5" />
<circle cx="349.5717187070783" cy="572.1827297162246" r="2.5" fill="grey" stroke="none" />
<path d="M349.5717187070783,572.1827297162246 A166.85027504330913,166.85027504330913,0,0,0,367.81631200000004,601.81594624" stroke="grey" stroke-width="5" fill="none" />
<circle cx="287.81631200000004" cy="601.81594624" r="5" fill="black" stroke="none" />
<circle cx="367.81631200000004" cy="601.81594624" r="5" fill="black" stroke="none" />
<path d="M367.81631200000004,529.81594624 A135.5046789726019,135.5046789726019,0,0,0,392.6492137744136,582.6881292581733" stroke="grey" stroke-width="5" fill="none" />
<path d="M392.6492137744136,582.6881292581733 L367.81631200000004,601.81594624" stroke="grey" stroke-width="5" />
<circle cx="392.6492137744136" cy="582.6881292581733" r="2.5" fill="grey" stroke="none" />
<circle cx="367.81631200000004" cy="529.81594624" r="5" fill="black" stroke="none" />
<circle cx="367.81631200000004" cy="601.81594624" r="5" fill="black" stroke="none" />
<path d="M367.81631200000004,601.81594624 L406.300452691822,572.1731116432596" stroke="grey" stroke-width="5" />
<circle cx="406.300452691822" cy="572.1731116432596" r="2.5" fill="grey" stroke="none" />
<path d="M406.300452691822,572.1731116432596 A118.27325652922521,118.27325652922521,0,0,0,439.81631200000004,601.81594624" stroke="grey" stroke-width="5" fill="none" />
<circle cx="367.81631200000004" cy="601.81594624" r="5" fill="black" stroke="none" />
<circle cx="439.81631200000004" cy="601.81594624" r="5" fill="black" stroke="none" />
<path d="M367.81631200000004,529.81594624 L405.4888849292055,521.318351520297" stroke="grey" stroke-width="5" />
<circle cx="405.4888849292055" cy="521.318351520297" r="2.5" fill="grey" stroke="none" />
<path d="M405.4888849292055,521.318351520297 A96.88561804245204,96.88561804245204,0,0,0,407.81631200000004,529.81594624" stroke="grey" stroke-width="5" fill="none" />
<circle cx="367.81631200000004" cy="529.81594624" r="5" fill="black" stroke="none" />
<circle cx="407.81631200000004" cy="529.81594624" r="5" fill="black" stroke="none" />
<path d="M439.81631200000004,601.81594624 L465.50683581791725,558.353920584103" stroke="grey" stroke-width="5" />
<circle cx="465.50683581791725" cy="558.353920584103" r="2.5" fill="grey" stroke="none" />
<path d="M465.50683581791725,558.353920584103 A67.78612264193843,67.78612264193843,0,0,0,527.816312,561.81594624" stroke="grey" stroke-width="5" fill="none" />
<circle cx="439.81631200000004" cy="601.81594624" r="5" fill="black" stroke="none" />
<circle cx="527.816312" cy="561.81594624" r="5" fill="black" stroke="none" />
<path d="M407.81631200000004,529.81594624 L443.11899915089856,518.3976243540419" stroke="grey" stroke-width="5" />
<circle cx="443.11899915089856" cy="518.3976243540419" r="2.5" fill="grey" stroke="none" />
<path d="M443.11899915089856,518.397624354042 A59.78227864064667,59.78227864064667,0,0,0,551.816312,529.81594624" stroke="grey" stroke-width="5" fill="none" />
<circle cx="407.81631200000004" cy="529.81594624" r="5" fill="black" stroke="none" />
<circle cx="551.816312" cy="529.81594624" r="5" fill="black" stroke="none" />
<path d="M527.816312,561.81594624 L524.531901957619,554.5170306033783" stroke="grey" stroke-width="5" />
<circle cx="524.531901957619" cy="554.5170306033783" r="2.5" fill="grey" stroke="none" />
<path d="M524.531901957619,554.5170306033783 A59.78227864064667,59.78227864064667,0,0,0,551.816312,529.81594624" stroke="grey" stroke-width="5" fill="none" />
<circle cx="527.816312" cy="561.81594624" r="5" fill="black" stroke="none" />
<circle cx="551.816312" cy="529.81594624" r="5" fill="black" stroke="none" />
<path d="M287.81631200000004,681.81594624 L345.2053441944508,632.6404356690277" stroke="grey" stroke-width="5" />
<circle cx="345.2053441944508" cy="632.6404356690277" r="2.5" fill="grey" stroke="none" />
<path d="M345.2053441944508,632.6404356690277 A203.8501180780328,203.8501180780328,0,0,0,407.816312,681.81594624" stroke="grey" stroke-width="5" fill="none" />
<circle cx="287.81631200000004" cy="681.81594624" r="5" fill="black" stroke="none" />
<circle cx="407.81631200000004" cy="681.81594624" r="5" fill="black" stroke="none" />
<path d="M407.81631200000004,681.81594624 L461.15455270157594,576.6157430984864" stroke="grey" stroke-width="5" />
<circle cx="461.15455270157594" cy="576.6157430984864" r="2.5" fill="grey" stroke="none" />
<path d="M461.15455270157594,576.6157430984864 A85.90076173322281,85.90076173322281,0,0,0,503.81631200000004,585.81594624" stroke="grey" stroke-width="5" fill="none" />
<circle cx="407.81631200000004" cy="681.81594624" r="5" fill="black" stroke="none" />
<circle cx="503.81631200000004" cy="585.81594624" r="5" fill="black" stroke="none" />
<path d="M503.81631200000004,585.81594624 L503.0115331698142,567.719192927818" stroke="grey" stroke-width="5" />
<circle cx="503.0115331698142" cy="567.719192927818" r="2.5" fill="grey" stroke="none" />
<path d="M503.0115331698142,567.719192927818 A67.78612264193843,67.78612264193843,0,0,0,527.816312,561.81594624" stroke="grey" stroke-width="5" fill="none" />
<circle cx="503.81631200000004" cy="585.81594624" r="5" fill="black" stroke="none" />
<circle cx="527.816312" cy="561.81594624" r="5" fill="black" stroke="none" />
<path d="M527.816312,561.81594624 A67.78612264193843,67.78612264193843,0,0,1,520.9015356279139,564.4832089091645" stroke="grey" stroke-width="5" fill="none" />
<path d="M520.9015356279139,564.4832089091645 L527.816312,585.81594624" stroke="grey" stroke-width="5" />
<circle cx="520.9015356279139" cy="564.4832089091645" r="2.5" fill="grey" stroke="none" />
<circle cx="527.816312" cy="561.81594624" r="5" fill="black" stroke="none" />
<circle cx="527.816312" cy="585.81594624" r="5" fill="black" stroke="none" />
<path d="M527.816312,585.81594624 A90.21155049298244,90.21155049298244,0,0,1,509.53077531362817,589.7066784819784" stroke="grey" stroke-width="5" fill="none" />
<path d="M509.5307753136282,589.7066784819784 L527.816312,761.81594624" stroke="grey" stroke-width="5" />
<circle cx="509.5307753136282" cy="589.7066784819784" r="2.5" fill="grey" stroke="none" />
<circle cx="527.816312" cy="585.81594624" r="5" fill="black" stroke="none" />
<circle cx="527.816312" cy="761.81594624" r="5" fill="black" stroke="none" />
<path d="M527.816312,761.81594624 A263.2894546289842,263.2894546289842,0,0,0,612.5607860946564,738.0155590556653" stroke="grey" stroke-width="5" fill="none" />
<path d="M612.5607860946564,738.0155590556653 L623.816312,761.81594624" stroke="grey" stroke-width="5" />
<circle cx="612.5607860946564" cy="738.0155590556653" r="2.5" fill="grey" stroke="none" />
<circle cx="527.816312" cy="761.81594624" r="5" fill="black" stroke="none" />
<circle cx="623.816312" cy="761.81594624" r="5" fill="black" stroke="none" />
<path d="M527.816312,761.81594624 A263.2894546289842,263.2894546289842,0,0,1,523.5443025346302,762.2346329853967" stroke="grey" stroke-width="5" fill="none" />
<path d="M523.5443025346302,762.2346329853967 L527.816312,809.81594624" stroke="grey" stroke-width="5" />
<circle cx="523.5443025346302" cy="762.2346329853967" r="2.5" fill="grey" stroke="none" />
<circle cx="527.816312" cy="761.81594624" r="5" fill="black" stroke="none" />
<circle cx="527.816312" cy="809.81594624" r="5" fill="black" stroke="none" />
<path d="M215.81631200000004,385.81594624 L363.8297233125808,445.2872390276308" stroke="grey" stroke-width="5" />
<circle cx="363.8297233125808" cy="445.2872390276308" r="2.5" fill="grey" stroke="none" />
<path d="M363.82972331258077,445.28723902763085 A146.75091300004883,146.75091300004883,0,0,1,407.8163120000001,385.81594623999996" stroke="grey" stroke-width="5" fill="none" />
<circle cx="215.81631200000004" cy="385.81594624" r="5" fill="black" stroke="none" />
<circle cx="407.81631200000004" cy="385.81594624" r="5" fill="black" stroke="none" />
<path d="M407.81631200000004,385.81594624 L439.13991127735204,424.6151700662572" stroke="grey" stroke-width="5" />
<circle cx="439.13991127735204" cy="424.6151700662572" r="2.5" fill="grey" stroke="none" />
<path d="M439.1399112773521,424.6151700662572 A96.88561804245204,96.88561804245204,0,0,0,407.81631200000004,529.81594624" stroke="grey" stroke-width="5" fill="none" />
<circle cx="407.81631200000004" cy="385.81594624" r="5" fill="black" stroke="none" />
<circle cx="407.81631200000004" cy="529.81594624" r="5" fill="black" stroke="none" />
<path d="M407.8163120000001,385.81594623999996 A146.75091300004883,146.75091300004883,0,0,1,437.06545567666944,367.428986587706" stroke="grey" stroke-width="5" fill="none" />
<path d="M437.06545567666944,367.428986587706 L407.81631200000004,305.81594624" stroke="grey" stroke-width="5" />
<circle cx="437.06545567666944" cy="367.428986587706" r="2.5" fill="grey" stroke="none" />
<circle cx="407.81631200000004" cy="385.81594624" r="5" fill="black" stroke="none" />
<circle cx="407.81631200000004" cy="305.81594624" r="5" fill="black" stroke="none" />
<path d="M407.81631200000004,305.81594624 A214.95413247469307,214.95413247469307,0,0,1,425.6816691203385,298.30204571387185" stroke="grey" stroke-width="5" fill="none" />
<path d="M425.6816691203385,298.30204571387185 L407.81631200000004,249.81594624000002" stroke="grey" stroke-width="5" />
<circle cx="425.6816691203385" cy="298.30204571387185" r="2.5" fill="grey" stroke="none" />
<circle cx="407.81631200000004" cy="305.81594624" r="5" fill="black" stroke="none" />
<circle cx="407.81631200000004" cy="249.81594624000002" r="5" fill="black" stroke="none" />
<path d="M407.81631200000004,305.81594624 L457.8616955301982,411.23606618429875" stroke="grey" stroke-width="5" />
<circle cx="457.8616955301982" cy="411.23606618429875" r="2.5" fill="grey" stroke="none" />
<path d="M457.8616955301982,411.23606618429875 A98.2581938060532,98.2581938060532,0,0,1,503.81631200000004,401.81594624" stroke="grey" stroke-width="5" fill="none" />
<circle cx="407.81631200000004" cy="305.81594624" r="5" fill="black" stroke="none" />
<circle cx="503.81631200000004" cy="401.81594624" r="5" fill="black" stroke="none" />
<path d="M407.81631200000004,385.81594624 L438.2777081512418,423.54719534925727" stroke="grey" stroke-width="5" />
<circle cx="438.2777081512418" cy="423.54719534925727" r="2.5" fill="grey" stroke="none" />
<path d="M438.2777081512419,423.5471953492572 A98.2581938060532,98.2581938060532,0,0,1,503.81631200000004,401.81594624" stroke="grey" stroke-width="5" fill="none" />
<circle cx="407.81631200000004" cy="385.81594624" r="5" fill="black" stroke="none" />
<circle cx="503.81631200000004" cy="401.81594624" r="5" fill="black" stroke="none" />
<path d="M503.81631200000004,401.81594624 L502.25488557304817,441.9874983159632" stroke="grey" stroke-width="5" />
<circle cx="502.25488557304817" cy="441.9874983159632" r="2.5" fill="grey" stroke="none" />
<path d="M502.25488557304817,441.9874983159632 A58.05630767270614,58.05630767270614,0,0,1,551.816312,473.81594624" stroke="grey" stroke-width="5" fill="none" />
<circle cx="503.81631200000004" cy="401.81594624" r="5" fill="black" stroke="none" />
<circle cx="551.816312" cy="473.81594624" r="5" fill="black" stroke="none" />
<path d="M503.81631200000004,585.81594624 A85.90076173322281,85.90076173322281,0,0,0,526.4871003363905,581.7152028824373" stroke="grey" stroke-width="5" fill="none" />
<path d="M526.4871003363905,581.7152028824373 L527.816312,585.81594624" stroke="grey" stroke-width="5" />
<circle cx="526.4871003363905" cy="581.7152028824373" r="2.5" fill="grey" stroke="none" />
<circle cx="503.81631200000004" cy="585.81594624" r="5" fill="black" stroke="none" />
<circle cx="527.816312" cy="585.81594624" r="5" fill="black" stroke="none" />
<path d="M527.816312,585.81594624 A90.21155049298244,90.21155049298244,0,0,0,546.6294822494582,577.2257420002902" stroke="grey" stroke-width="5" fill="none" />
<path d="M546.6294822494582,577.2257420002902 L551.816312,585.81594624" stroke="grey" stroke-width="5" />
<circle cx="546.6294822494582" cy="577.2257420002902" r="2.5" fill="grey" stroke="none" />
<circle cx="527.816312" cy="585.81594624" r="5" fill="black" stroke="none" />
<circle cx="551.816312" cy="585.81594624" r="5" fill="black" stroke="none" />
<path d="M551.816312,585.81594624 L530.9008844817831,551.1767151907136" stroke="grey" stroke-width="5" />
<circle cx="530.9008844817831" cy="551.1767151907136" r="2.5" fill="grey" stroke="none" />
<path d="M530.9008844817831,551.1767151907136 A59.78227864064667,59.78227864064667,0,0,0,551.816312,529.81594624" stroke="grey" stroke-width="5" fill="none" />
<circle cx="551.816312" cy="585.81594624" r="5" fill="black" stroke="none" />
<circle cx="551.816312" cy="529.81594624" r="5" fill="black" stroke="none" />
<path d="M551.816312,529.81594624 L546.4808617962829,526.7458416667484" stroke="grey" stroke-width="5" />
<circle cx="546.4808617962829" cy="526.7458416667484" r="2.5" fill="grey" stroke="none" />
<path d="M546.4808617962829,526.7458416667484 A53.62658445013927,53.62658445013927,0,0,0,551.816312,513.81594624" stroke="grey" stroke-width="5" fill="none" />
<circle cx="551.816312" cy="529.81594624" r="5" fill="black" stroke="none" />
<circle cx="551.816312" cy="513.81594624" r="5" fill="black" stroke="none" />
<path d="M551.816312,513.81594624 L550.1116042325153,513.361414646349" stroke="grey" stroke-width="5" />
<circle cx="550.1116042325153" cy="513.361414646349" r="2.5" fill="grey" stroke="none" />
<path d="M550.1116042325153,513.361414646349 A51.86232042733837,51.86232042733837,0,0,0,551.816312,497.81594624" stroke="grey" stroke-width="5" fill="none" />
<circle cx="551.816312" cy="513.81594624" r="5" fill="black" stroke="none" />
<circle cx="551.816312" cy="497.81594624" r="5" fill="black" stroke="none" />
<path d="M551.816312,497.81594624 A51.86232042733837,51.86232042733837,0,0,0,546.2880655700108,476.6095047958727" stroke="grey" stroke-width="5" fill="none" />
<path d="M546.2880655700108,476.6095047958727 L551.816312,473.81594624" stroke="grey" stroke-width="5" />
<circle cx="546.2880655700108" cy="476.6095047958727" r="2.5" fill="grey" stroke="none" />
<circle cx="551.816312" cy="497.81594624" r="5" fill="black" stroke="none" />
<circle cx="551.816312" cy="473.81594624" r="5" fill="black" stroke="none" />
<path d="M551.816312,473.81594624 A58.05630767270614,58.05630767270614,0,0,1,556.1563070859719,485.2689431793257" stroke="grey" stroke-width="5" fill="none" />
<path d="M556.1563070859719,485.2689431793257 L599.816312,473.81594624" stroke="grey" stroke-width="5" />
<circle cx="556.1563070859719" cy="485.2689431793257" r="2.5" fill="grey" stroke="none" />
<circle cx="551.816312" cy="473.81594624" r="5" fill="black" stroke="none" />
<circle cx="599.816312" cy="473.81594624" r="5" fill="black" stroke="none" />
<path d="M599.816312,473.81594624 L597.4701159950392,474.4314059889576" stroke="grey" stroke-width="5" />
<circle cx="597.4701159950392" cy="474.4314059889576" r="2.5" fill="grey" stroke="none" />
<path d="M597.4701159950392,474.4314059889576 A100.7679339462109,100.7679339462109,0,0,1,599.816312,513.81594624" stroke="grey" stroke-width="5" fill="none" />
<circle cx="599.816312" cy="473.81594624" r="5" fill="black" stroke="none" />
<circle cx="599.816312" cy="513.81594624" r="5" fill="black" stroke="none" />
<path d="M599.816312,513.81594624 L553.1201511765314,507.3525572945996" stroke="grey" stroke-width="5" />
<circle cx="553.1201511765314" cy="507.3525572945996" r="2.5" fill="grey" stroke="none" />
<path d="M553.1201511765314,507.3525572945996 A53.62658445013927,53.62658445013927,0,0,1,551.816312,513.81594624" stroke="grey" stroke-width="5" fill="none" />
<circle cx="599.816312" cy="513.81594624" r="5" fill="black" stroke="none" />
<circle cx="551.816312" cy="513.81594624" r="5" fill="black" stroke="none" />
<path d="M551.816312,497.81594624 A51.86232042733837,51.86232042733837,0,0,1,551.8552030355158,499.14081535549803" stroke="grey" stroke-width="5" fill="none" />
<path d="M551.8552030355158,499.14081535549803 L631.816312,497.81594624" stroke="grey" stroke-width="5" />
<circle cx="551.8552030355158" cy="499.14081535549803" r="2.5" fill="grey" stroke="none" />
<circle cx="551.816312" cy="497.81594624" r="5" fill="black" stroke="none" />
<circle cx="631.816312" cy="497.81594624" r="5" fill="black" stroke="none" />
<circle cx="500" cy="500" r="5" fill="red" stroke="none" />
</svg>