<?xml version="1.0" encoding="UTF-8"?>
<svg xmlns="http://www.w3.org/2000/svg" xmlns:xlink="http://www.w3.org/1999/xlink"
     width="1000" height="1000" viewBox="0 0 1000 1000">
<defs>
</defs>
<rect x="0" y="0" width="1000" height="1000" fill="white" />
<path d="M200.8955995,285.25112143999996 L238.5852392639319,312.3112645174829" stroke="grey" stroke-width="5" />
<circle cx="238.5852392639319" cy="312.3112645174829" r="2.5" fill="grey" stroke="none" />
<path d="M238.5852392639319,312.3112645174829 A321.8147581415775,321.8147581415775,0,0,0,200.89559950000006,381.2511214399999" stroke="grey" stroke-width="5" fill="none" />
<circle cx="200.8955995" cy="285.25112143999996" r="5" fill="black" stroke="none" />
<circle cx="200.8955995" cy="381.25112143999996" r="5" fill="black" stroke="none" />
<path d="M200.8955995,381.25112143999996 L273.83787254296203,410.2102845582606" stroke="grey" stroke-width="5" />
<circle cx="273.83787254296203" cy="410.2102845582606" r="2.5" fill="grey" stroke="none" />
<path d="M273.83787254296203,410.2102845582606 A243.3341342578185,243.3341342578185,0,0,0,264.8955995,437.25112143999996" stroke="grey" stroke-width="5" fill="none" />
<circle cx="200.8955995" cy="381.25112143999996" r="5" fill="black" stroke="none" />
<circle cx="264.8955995" cy="437.25112143999996" r="5" fill="black" stroke="none" />
<path d="M176.8955995,437.25112143999996 L261.1288127356796,453.6097338880661" stroke="grey" stroke-width="5" />
<circle cx="261.1288127356796" cy="453.6097338880661" r="2.5" fill="grey" stroke="none" />
<path d="M261.1288127356796,453.6097338880661 A243.3341342578185,243.3341342578185,0,0,1,264.8955995,437.25112143999996" stroke="grey" stroke-width="5" fill="none" />
<circle cx="176.8955995" cy="437.25112143999996" r="5" fill="black" stroke="none" />
<circle cx="264.8955995" cy="437.25112143999996" r="5" fill="black" stroke="none" />
<path d="M264.8955995,437.25112143999996 L339.6359525752123,457.19916719615765" stroke="grey" stroke-width="5" />
<circle cx="339.6359525752123" cy="457.19916719615765" r="2.5" fill="grey" stroke="none" />
<path d="M339.6359525752123,457.19916719615765 A165.9775255724763,165.9775255724763,0,0,0,336.8955995,469.2511214399999" stroke="grey" stroke-width="5" fill="none" />
<circle cx="264.8955995" cy="437.25112143999996" r="5" fill="black" stroke="none" />
<circle cx="336.8955995" cy="469.25112143999996" r="5" fill="black" stroke="none" />
<path d="M336.8955995,469.25112143999996 L354.71726931585204,472.61091038023795" stroke="grey" stroke-width="5" />
<circle cx="354.71726931585204" cy="472.61091038023795" r="2.5" fill="grey" stroke="none" />
<path d="M354.71726931585204,472.61091038023795 A147.8419225566349,147.8419225566349,0,0,0,352.8955995,485.25112143999996" stroke="grey" stroke-width="5" fill="none" />
<circle cx="336.8955995" cy="469.25112143999996" r="5" fill="black" stroke="none" />
<circle cx="352.8955995" cy="485.25112143999996" r="5" fill="black" stroke="none" />
<path d="M352.8955995,485.25112143999996 L384.1906552001483,488.38880443575727" stroke="grey" stroke-width="5" />
<circle cx="384.1906552001483" cy="488.38880443575727" r="2.5" fill="grey" stroke="none" />
<path d="M384.1906552001483,488.38880443575727 A116.38996608557812,116.38996608557812,0,0,0,384.8955995,517.2511214399999" stroke="grey" stroke-width="5" fill="none" />
<circle cx="352.8955995" cy="485.25112143999996" r="5" fill="black" stroke="none" />
<circle cx="384.8955995" cy="517.2511214399999" r="5" fill="black" stroke="none" />
<path d="M352.8955995,485.25112143999996 A147.8419225566349,147.8419225566349,0,0,0,365.5573231437903,561.5012252315255" stroke="grey" stroke-width="5" fill="none" />
<path d="M365.5573231437903,561.5012252315255 L304.8955995,589.2511214399999" stroke="grey" stroke-width="5" />
<circle cx="365.5573231437903" cy="561.5012252315255" r="2.5" fill="grey" stroke="none" />
<circle cx="352.8955995" cy="485.25112143999996" r="5" fill="black" stroke="none" />
<circle cx="304.8955995" cy="589.2511214399999" r="5" fill="black" stroke="none" />
<path d="M304.8955995,589.25112144 A214.54950424729958,214.54950424729958,0,0,0,337.93334201266407,640.5912093325109" stroke="grey" stroke-width="5" fill="none" />
<path d="M337.93334201266407,640.5912093325109 L304.8955995,669.2511214399999" stroke="grey" stroke-width="5" />
<circle cx="337.93334201266407" cy="640.5912093325109" r="2.5" fill="grey" stroke="none" />
<circle cx="304.8955995" cy="589.2511214399999" r="5" fill="black" stroke="none" />
<circle cx="304.8955995" cy="669.2511214399999" r="5" fill="black" stroke="none" />
<path d="M200.8955995,685.2511214399999 L280.4183848528816,635.9984687139705" stroke="grey" stroke-width="5" />
<circle cx="280.4183848528816" cy="635.9984687139705" r="2.5" fill="grey" stroke="none" />
<path d="M280.4183848528816,635.9984687139705 A258.28602208242324,258.28602208242324,0,0,0,304.8955995,669.25112144" stroke="grey" stroke-width="5" fill="none" />
<circle cx="200.8955995" cy="685.2511214399999" r="5" fill="black" stroke="none" />
<circle cx="304.8955995" cy="669.2511214399999" r="5" fill="black" stroke="none" />
<path d="M304.8955995,669.25112144 A258.28602208242324,258.28602208242324,0,0,0,355.56724350726665,714.1281113144017" stroke="grey" stroke-width="5" fill="none" />
<path d="M355.56724350726654,714.1281113144016 L304.8955995,789.2511214399999" stroke="grey" stroke-width="5" />
<circle cx="355.56724350726654" cy="714.1281113144016" r="2.5" fill="grey" stroke="none" />
<circle cx="304.8955995" cy="669.2511214399999" r="5" fill="black" stroke="none" />
<circle cx="304.8955995" cy="789.2511214399999" r="5" fill="black" stroke="none" />
<path d="M304.8955995,589.2511214399999 L367.5478921825488,560.5906331661613" stroke="grey" stroke-width="5" />
<circle cx="367.5478921825488" cy="560.5906331661613" r="2.5" fill="grey" stroke="none" />
<path d="M367.5478921825488,560.5906331661613 A145.6529632131184,145.6529632131184,0,0,0,384.8955995,589.25112144" stroke="grey" stroke-width="5" fill="none" />
<circle cx="304.8955995" cy="589.2511214399999" r="5" fill="black" stroke="none" />
<circle cx="384.8955995" cy="589.2511214399999" r="5" fill="black" stroke="none" />
<path d="M384.8955995,517.2511214399999 A116.38996608557812,116.38996608557812,0,0,0,408.02111419529854,571.3197642419527" stroke="grey" stroke-width="5" fill="none" />
<path d="M408.02111419529854,571.3197642419527 L384.8955995,589.2511214399999" stroke="grey" stroke-width="5" />
<circle cx="408.02111419529854" cy="571.3197642419527" r="2.5" fill="grey" stroke="none" />
<circle cx="384.8955995" cy="517.2511214399999" r="5" fill="black" stroke="none" />
<circle cx="384.8955995" cy="589.2511214399999" r="5" fill="black" stroke="none" />
<path d="M384.8955995,589.2511214399999 L421.67303510488273,560.7341632944843" stroke="grey" stroke-width="5" />
<circle cx="421.67303510488273" cy="560.7341632944843" r="2.5" fill="grey" stroke="none" />
<path d="M421.67303510488273,560.7341632944843 A99.1148425855685,99.1148425855685,0,0,0,456.8955995,589.2511214399999" stroke="grey" stroke-width="5" fill="none" />
<circle cx="384.8955995" cy="589.2511214399999" r="5" fill="black" stroke="none" />
<circle cx="456.8955995" cy="589.2511214399999" r="5" fill="black" stroke="none" />
<path d="M384.8955995,517.2511214399999 L423.7909698329966,511.4217286960771" stroke="grey" stroke-width="5" />
<circle cx="423.7909698329966" cy="511.4217286960771" r="2.5" fill="grey" stroke="none" />
<path d="M423.79096983299655,511.421728696077 A77.06018534497582,77.06018534497582,0,0,0,424.8955995,517.25112144" stroke="grey" stroke-width="5" fill="none" />
<circle cx="384.8955995" cy="517.2511214399999" r="5" fill="black" stroke="none" />
<circle cx="424.8955995" cy="517.2511214399999" r="5" fill="black" stroke="none" />
<path d="M456.8955995,589.2511214399999 L471.0173980003249,560.0108040180304" stroke="grey" stroke-width="5" />
<circle cx="471.0173980003249" cy="560.0108040180304" r="2.5" fill="grey" stroke="none" />
<path d="M471.0173980003249,560.0108040180304 A66.64298775986882,66.64298775986882,0,0,0,544.8955995,549.25112144" stroke="grey" stroke-width="5" fill="none" />
<circle cx="456.8955995" cy="589.2511214399999" r="5" fill="black" stroke="none" />
<circle cx="544.8955995" cy="549.2511214399999" r="5" fill="black" stroke="none" />
<path d="M424.8955995,517.2511214399999 L430.77998468479905,515.8995063182907" stroke="grey" stroke-width="5" />
<circle cx="430.77998468479905" cy="515.8995063182907" r="2.5" fill="grey" stroke="none" />
<path d="M430.77998468479905,515.8995063182907 A71.02256557884985,71.02256557884985,0,0,0,568.8955995,517.2511214399999" stroke="grey" stroke-width="5" fill="none" />
<circle cx="424.8955995" cy="517.2511214399999" r="5" fill="black" stroke="none" />
<circle cx="568.8955995" cy="517.2511214399999" r="5" fill="black" stroke="none" />
<path d="M544.8955995,549.25112144 A66.64298775986882,66.64298775986882,0,0,0,564.647180185147,516.1873380044764" stroke="grey" stroke-width="5" fill="none" />
<path d="M564.647180185147,516.1873380044764 L568.8955995,517.2511214399999" stroke="grey" stroke-width="5" />
<circle cx="564.647180185147" cy="516.1873380044764" r="2.5" fill="grey" stroke="none" />
<circle cx="544.8955995" cy="549.2511214399999" r="5" fill="black" stroke="none" />
<circle cx="568.8955995" cy="517.2511214399999" r="5" fill="black" stroke="none" />
<path d="M304.8955995,669.2511214399999 L360.1287505326423,621.3369138209894" stroke="grey" stroke-width="5" />
<circle cx="360.1287505326423" cy="621.3369138209894" r="2.5" fill="grey" stroke="none" />
<path d="M360.1287505326423,621.3369138209894 A185.16644696910402,185.16644696910402,0,0,0,424.89559949999995,669.2511214399999" stroke="grey" stroke-width="5" fill="none" />
<circle cx="304.8955995" cy="669.2511214399999" r="5" fill="black" stroke="none" />
<circle cx="424.8955995" cy="669.2511214399999" r="5" fill="black" stroke="none" />
<path d="M424.8955995,669.2511214399999 L469.1037935069856,569.6259814654202" stroke="grey" stroke-width="5" />
<circle cx="469.1037935069856" cy="569.6259814654202" r="2.5" fill="grey" stroke="none" />
<path d="M469.1037935069856,569.6259814654202 A76.1731768451469,76.1731768451469,0,0,0,520.8955995,573.2511214399999" stroke="grey" stroke-width="5" fill="none" />
<circle cx="424.8955995" cy="669.2511214399999" r="5" fill="black" stroke="none" />
<circle cx="520.8955995" cy="573.2511214399999" r="5" fill="black" stroke="none" />
<path d="M520.8955995,573.2511214399999 L518.2813063520317,564.0865169565735" stroke="grey" stroke-width="5" />
<circle cx="518.2813063520317" cy="564.0865169565735" r="2.5" fill="grey" stroke="none" />
<path d="M518.2813063520317,564.0865169565735 A66.64298775986882,66.64298775986882,0,0,0,544.8955995,549.25112144" stroke="grey" stroke-width="5" fill="none" />
<circle cx="520.8955995" cy="573.2511214399999" r="5" fill="black" stroke="none" />
<circle cx="544.8955995" cy="549.2511214399999" r="5" fill="black" stroke="none" />
<path d="M544.8955995,549.25112144 A66.64298775986882,66.64298775986882,0,0,1,534.8249563564872,556.8199809251181" stroke="grey" stroke-width="5" fill="none" />
<path d="M534.8249563564872,556.8199809251181 L544.8955995,573.2511214399999" stroke="grey" stroke-width="5" />
<circle cx="534.8249563564872" cy="556.8199809251181" r="2.5" fill="grey" stroke="none" />
<circle cx="544.8955995" cy="549.2511214399999" r="5" fill="black" stroke="none" />
<circle cx="544.8955995" cy="573.2511214399999" r="5" fill="black" stroke="none" />
<path d="M544.8955995,573.2511214399999 A85.91473474720168,85.91473474720168,0,0,1,515.2300409985925,584.5540507478099" stroke="grey" stroke-width="5" fill="none" />
<path d="M515.2300409985925,584.5540507478099 L544.8955995,749.2511214399999" stroke="grey" stroke-width="5" />
<circle cx="515.2300409985925" cy="584.5540507478099" r="2.5" fill="grey" stroke="none" />
<circle cx="544.8955995" cy="573.2511214399999" r="5" fill="black" stroke="none" />
<circle cx="544.8955995" cy="749.2511214399999" r="5" fill="black" stroke="none" />
<path d="M544.8955995,749.2511214399999 A253.26218903255577,253.26218903255577,0,0,0,624.6292390678169,720.4751440932491" stroke="grey" stroke-width="5" fill="none" />
<path d="M624.6292390678169,720.4751440932491 L640.8955995,749.2511214399999" stroke="grey" stroke-width="5" />
<circle cx="624.6292390678169" cy="720.4751440932491" r="2.5" fill="grey" stroke="none" />
<circle cx="544.8955995" cy="749.2511214399999" r="5" fill="black" stroke="none" />
<circle cx="640.8955995" cy="749.2511214399999" r="5" fill="black" stroke="none" />
<path d="M544.8955995,749.2511214399999 A253.26218903255577,253.26218903255577,0,0,1,537.8227196597151,750.4220003735786" stroke="grey" stroke-width="5" fill="none" />
<path d="M537.8227196597151,750.4220003735786 L544.8955995,797.2511214399999" stroke="grey" stroke-width="5" />
<circle cx="537.8227196597151" cy="750.4220003735786" r="2.5" fill="grey" stroke="none" />
<circle cx="544.8955995" cy="749.2511214399999" r="5" fill="black" stroke="none" />
<circle cx="544.8955995" cy="797.2511214399999" r="5" fill="black" stroke="none" />
<path d="M232.8955995,373.25112143999996 L366.8964075810636,436.83843830417345" stroke="grey" stroke-width="5" />
<circle cx="366.8964075810636" cy="436.83843830417345" r="2.5" fill="grey" stroke="none" />
<path d="M366.8964075810636,436.83843830417345 A147.3293901116883,147.3293901116883,0,0,1,424.8955995,373.25112143999996" stroke="grey" stroke-width="5" fill="none" />
<circle cx="232.8955995" cy="373.25112143999996" r="5" fill="black" stroke="none" />
<circle cx="424.8955995" cy="373.25112143999996" r="5" fill="black" stroke="none" />
<path d="M424.8955995,373.25112143999996 L460.716873813393,433.70438806067824" stroke="grey" stroke-width="5" />
<circle cx="460.716873813393" cy="433.70438806067824" r="2.5" fill="grey" stroke="none" />
<path d="M460.716873813393,433.70438806067824 A77.06018534497582,77.06018534497582,0,0,0,424.8955995,517.25112144" stroke="grey" stroke-width="5" fill="none" />
<circle cx="424.8955995" cy="373.25112143999996" r="5" fill="black" stroke="none" />
<circle cx="424.8955995" cy="517.2511214399999" r="5" fill="black" stroke="none" />
<path d="M424.8955995,373.25112143999996 A147.3293901116883,147.3293901116883,0,0,1,449.6967612734358,361.52424990526197" stroke="grey" stroke-width="5" fill="none" />
<path d="M449.6967612734358,361.52424990526197 L424.8955995,293.25112143999996" stroke="grey" stroke-width="5" />
<circle cx="449.6967612734358" cy="361.52424990526197" r="2.5" fill="grey" stroke="none" />
<circle cx="424.8955995" cy="373.25112143999996" r="5" fill="black" stroke="none" />
<circle cx="424.8955995" cy="293.25112143999996" r="5" fill="black" stroke="none" />
<path d="M424.89559950000006,293.25112143999996 A219.96765616854228,219.96765616854228,0,0,1,439.54546199005483,288.502911144654" stroke="grey" stroke-width="5" fill="none" />
<path d="M439.54546199005483,288.502911144654 L424.8955995,237.25112143999996" stroke="grey" stroke-width="5" />
<circle cx="439.54546199005483" cy="288.502911144654" r="2.5" fill="grey" stroke="none" />
<circle cx="424.8955995" cy="293.25112143999996" r="5" fill="black" stroke="none" />
<circle cx="424.8955995" cy="237.25112143999996" r="5" fill="black" stroke="none" />
<path d="M424.8955995,293.25112143999996 L461.5194218801239,394.0699037651615" stroke="grey" stroke-width="5" />
<circle cx="461.5194218801239" cy="394.0699037651615" r="2.5" fill="grey" stroke="none" />
<path d="M461.51942188012396,394.0699037651615 A112.70288452724729,112.70288452724729,0,0,1,520.8955995,389.25112143999996" stroke="grey" stroke-width="5" fill="none" />
<circle cx="424.8955995" cy="293.25112143999996" r="5" fill="black" stroke="none" />
<circle cx="520.8955995" cy="389.25112143999996" r="5" fill="black" stroke="none" />
<path d="M424.8955995,373.25112143999996 L442.5472231262015,403.04063423138757" stroke="grey" stroke-width="5" />
<circle cx="442.5472231262015" cy="403.04063423138757" r="2.5" fill="grey" stroke="none" />
<path d="M442.5472231262015,403.04063423138757 A112.70288452724729,112.70288452724729,0,0,1,520.8955995,389.25112143999996" stroke="grey" stroke-width="5" fill="none" />
<circle cx="424.8955995" cy="373.25112143999996" r="5" fill="black" stroke="none" />
<circle cx="520.8955995" cy="389.25112143999996" r="5" fill="black" stroke="none" />
<path d="M520.8955995,389.25112143999996 L514.6552444811348,422.3256604191564" stroke="grey" stroke-width="5" />
<circle cx="514.6552444811348" cy="422.3256604191564" r="2.5" fill="grey" stroke="none" />
<path d="M514.6552444811348,422.3256604191564 A79.04479249211823,79.04479249211823,0,0,1,568.8955995,461.25112143999996" stroke="grey" stroke-width="5" fill="none" />
<circle cx="520.8955995" cy="389.25112143999996" r="5" fill="black" stroke="none" />
<circle cx="568.8955995" cy="461.25112143999996" r="5" fill="black" stroke="none" />
<path d="M520.8955995,573.2511214399999 A76.1731768451469,76.1731768451469,0,0,0,539.8050514890728,564.9454443870723" stroke="grey" stroke-width="5" fill="none" />
<path d="M539.8050514890728,564.9454443870723 L544.8955995,573.2511214399999" stroke="grey" stroke-width="5" />
<circle cx="539.8050514890728" cy="564.9454443870723" r="2.5" fill="grey" stroke="none" />
<circle cx="520.8955995" cy="573.2511214399999" r="5" fill="black" stroke="none" />
<circle cx="544.8955995" cy="573.2511214399999" r="5" fill="black" stroke="none" />
<path d="M544.8955995,573.2511214399999 A85.91473474720168,85.91473474720168,0,0,0,558.8617962688858,562.5829895952743" stroke="grey" stroke-width="5" fill="none" />
<path d="M558.8617962688858,562.5829895952743 L568.8955995,573.2511214399999" stroke="grey" stroke-width="5" />
<circle cx="558.8617962688858" cy="562.5829895952743" r="2.5" fill="grey" stroke="none" />
<circle cx="544.8955995" cy="573.2511214399999" r="5" fill="black" stroke="none" />
<circle cx="568.8955995" cy="573.2511214399999" r="5" fill="black" stroke="none" />
<path d="M568.8955995,573.2511214399999 L548.6588918408085,551.7350661179295" stroke="grey" stroke-width="5" />
<circle cx="548.6588918408085" cy="551.7350661179295" r="2.5" fill="grey" stroke="none" />
<path d="M548.6588918408085,551.7350661179295 A71.02256557884985,71.02256557884985,0,0,0,568.8955995,517.2511214399999" stroke="grey" stroke-width="5" fill="none" />
<circle cx="568.8955995" cy="573.2511214399999" r="5" fill="black" stroke="none" />
<circle cx="568.8955995" cy="517.2511214399999" r="5" fill="black" stroke="none" />
<path d="M568.8955995,517.2511214399999 L566.84335013368,516.7372482274801" stroke="grey" stroke-width="5" />
<circle cx="566.84335013368" cy="516.7372482274801" r="2.5" fill="grey" stroke="none" />
<path d="M566.84335013368,516.7372482274801 A68.90695854064398,68.90695854064398,0,0,0,568.8955995,501.25112143999996" stroke="grey" stroke-width="5" fill="none" />
<circle cx="568.8955995" cy="517.2511214399999" r="5" fill="black" stroke="none" />
<circle cx="568.8955995" cy="501.25112143999996" r="5" fill="black" stroke="none" />
<path d="M568.8955995,501.25112143999996 A68.90695854064398,68.90695854064398,0,0,0,567.3802872674505,485.5755130740165" stroke="grey" stroke-width="5" fill="none" />
<path d="M567.3802872674505,485.5755130740165 L568.8955995,485.25112143999996" stroke="grey" stroke-width="5" />
<circle cx="567.3802872674505" cy="485.5755130740165" r="2.5" fill="grey" stroke="none" />
<circle cx="568.8955995" cy="501.25112143999996" r="5" fill="black" stroke="none" />
<circle cx="568.8955995" cy="485.25112143999996" r="5" fill="black" stroke="none" />
<path d="M568.8955995,485.25112143999996 A70.45660401440045,70.45660401440045,0,0,0,561.4101172166432,465.4611732584883" stroke="grey" stroke-width="5" fill="none" />
<path d="M561.4101172166432,465.4611732584883 L568.8955995,461.25112143999996" stroke="grey" stroke-width="5" />
<circle cx="561.4101172166432" cy="465.4611732584883" r="2.5" fill="grey" stroke="none" />
<circle cx="568.8955995" cy="485.25112143999996" r="5" fill="black" stroke="none" />
<circle cx="568.8955995" cy="461.25112143999996" r="5" fill="black" stroke="none" />
<path d="M568.8955995,461.25112143999996 A79.04479249211823,79.04479249211823,0,0,1,575.0300243823071,475.12883876228494" stroke="grey" stroke-width="5" fill="none" />
<path d="M575.0300243823071,475.12883876228494 L616.8955995,461.25112143999996" stroke="grey" stroke-width="5" />
<circle cx="575.0300243823071" cy="475.12883876228494" r="2.5" fill="grey" stroke="none" />
<circle cx="568.8955995" cy="461.25112143999996" r="5" fill="black" stroke="none" />
<circle cx="616.8955995" cy="461.25112143999996" r="5" fill="black" stroke="none" />
<path d="M616.8955995,461.25112143999996 L610.9647041774322,463.21711112300983" stroke="grey" stroke-width="5" />
<circle cx="610.9647041774322" cy="463.21711112300983" r="2.5" fill="grey" stroke="none" />
<path d="M610.9647041774322,463.21711112300983 A116.90229461957549,116.90229461957549,0,0,1,616.8955995,501.25112143999996" stroke="grey" stroke-width="5" fill="none" />
<circle cx="616.8955995" cy="461.25112143999996" r="5" fill="black" stroke="none" />
<circle cx="616.8955995" cy="501.25112143999996" r="5" fill="black" stroke="none" />
<path d="M616.8955995,501.25112143999996 L568.9030121653525,500.73746177075424" stroke="grey" stroke-width="5" />
<circle cx="568.9030121653525" cy="500.73746177075424" r="2.5" fill="grey" stroke="none" />
<path d="M568.9030121653525,500.73746177075424 A68.90695854064398,68.90695854064398,0,0,1,568.8955995,501.25112143999996" stroke="grey" stroke-width="5" fill="none" />
<circle cx="616.8955995" cy="501.25112143999996" r="5" fill="black" stroke="none" />
<circle cx="568.8955995" cy="501.25112143999996" r="5" fill="black" stroke="none" />
<path d="M568.8955995,485.25112143999996 A70.45660401440045,70.45660401440045,0,0,1,570.1134695669166,493.0548985226208" stroke="grey" stroke-width="5" fill="none" />
<path d="M570.1134695669166,493.0548985226208 L648.8955995,485.25112143999996" stroke="grey" stroke-width="5" />
<circle cx="570.1134695669166" cy="493.0548985226208" r="2.5" fill="grey" stroke="none" />
<circle cx="568.8955995" cy="485.25112143999996" r="5" fill="black" stroke="none" />
<circle cx="648.8955995" cy="485.25112143999996" r="5" fill="black" stroke="none" />
<circle cx="500" cy="500" r="5" fill="red" stroke="none" />
</svg>