<?xml version="1.0" encoding="UTF-8"?>
<svg xmlns="http://www.w3.org/2000/svg" xmlns:xlink="http://www.w3.org/1999/xlink"
     width="1000" height="1000" viewBox="0 0 1000 1000">
<defs>
</defs>
<rect x="0" y="0" width="1000" height="1000" fill="white" />
<path d="M109.201912,353.50091264 L131.026402755653,361.68229345013316" stroke="grey" stroke-width="5" />
<circle cx="131.026402755653" cy="361.68229345013316" r="2.5" fill="grey" stroke="none" />
<path d="M131.026402755653,361.68229345013316 A394.04733650749205,394.04733650749205,0,0,0,109.201912,449.50091263999985" stroke="grey" stroke-width="5" fill="none" />
<circle cx="109.201912" cy="353.50091264" r="5" fill="black" stroke="none" />
<circle cx="109.201912" cy="449.50091264" r="5" fill="black" stroke="none" />
<path d="M109.201912,449.50091264 L175.85072169305124,458.11329884780923" stroke="grey" stroke-width="5" />
<circle cx="175.85072169305124" cy="458.11329884780923" r="2.5" fill="grey" stroke="none" />
<path d="M175.85072169305124,458.1132988478091 A326.84438248244174,326.84438248244174,0,0,0,173.201912,505.50091263999985" stroke="grey" stroke-width="5" fill="none" />
<circle cx="109.201912" cy="449.50091264" r="5" fill="black" stroke="none" />
<circle cx="173.201912" cy="505.50091264" r="5" fill="black" stroke="none" />
<path d="M85.201912,505.50091264 L173.18435506843798,504.3341190911029" stroke="grey" stroke-width="5" />
<circle cx="173.18435506843798" cy="504.3341190911029" r="2.5" fill="grey" stroke="none" />
<path d="M173.18435506843798,504.33411909110276 A326.84438248244174,326.84438248244174,0,0,0,173.201912,505.50091263999985" stroke="grey" stroke-width="5" fill="none" />
<circle cx="85.201912" cy="505.50091264" r="5" fill="black" stroke="none" />
<circle cx="173.201912" cy="505.50091264" r="5" fill="black" stroke="none" />
<path d="M173.201912,505.50091264 L242.49350333583362,504.33454415553996" stroke="grey" stroke-width="5" />
<circle cx="242.49350333583362" cy="504.33454415553996" r="2.5" fill="grey" stroke="none" />
<path d="M242.49350333583362,504.33454415553985 A257.54297524352836,257.54297524352836,0,0,0,245.201912,537.50091264" stroke="grey" stroke-width="5" fill="none" />
<circle cx="173.201912" cy="505.50091264" r="5" fill="black" stroke="none" />
<circle cx="245.201912" cy="537.50091264" r="5" fill="black" stroke="none" />
<path d="M245.201912,537.50091264 L257.8902495576276,535.6334565612267" stroke="grey" stroke-width="5" />
<circle cx="257.8902495576276" cy="535.6334565612267" r="2.5" fill="grey" stroke="none" />
<path d="M257.8902495576276,535.6334565612267 A244.71794884268024,244.71794884268024,0,0,0,261.201912,553.50091264" stroke="grey" stroke-width="5" fill="none" />
<circle cx="245.201912" cy="537.50091264" r="5" fill="black" stroke="none" />
<circle cx="261.201912" cy="553.50091264" r="5" fill="black" stroke="none" />
<path d="M261.201912,553.50091264 L281.6369211620139,548.9226027836224" stroke="grey" stroke-width="5" />
<circle cx="281.6369211620139" cy="548.9226027836224" r="2.5" fill="grey" stroke="none" />
<path d="M281.6369211620139,548.9226027836224 A223.77635099073507,223.77635099073507,0,0,0,293.201912,585.50091264" stroke="grey" stroke-width="5" fill="none" />
<circle cx="261.201912" cy="553.50091264" r="5" fill="black" stroke="none" />
<circle cx="293.201912" cy="585.50091264" r="5" fill="black" stroke="none" />
<path d="M261.201912,553.50091264 A244.71794884268024,244.71794884268024,0,0,0,285.49910751061634,617.7974601043102" stroke="grey" stroke-width="5" fill="none" />
<path d="M285.49910751061634,617.7974601043102 L-286.798088,157.50091264" stroke="grey" stroke-width="5" />
<circle cx="285.49910751061634" cy="617.7974601043102" r="2.5" fill="grey" stroke="none" />
<circle cx="261.201912" cy="553.50091264" r="5" fill="black" stroke="none" />
<circle cx="213.201912" cy="657.50091264" r="5" fill="black" stroke="none" />
<path d="M213.201912,657.50091264 A327.1997566669154,327.1997566669154,0,0,0,247.99224989175215,708.6906194544152" stroke="grey" stroke-width="5" fill="none" />
<path d="M247.99224989175224,708.6906194544154 L-286.798088,237.50091264" stroke="grey" stroke-width="5" />
<circle cx="247.99224989175224" cy="708.6906194544154" r="2.5" fill="grey" stroke="none" />
<circle cx="213.201912" cy="657.50091264" r="5" fill="black" stroke="none" />
<circle cx="213.201912" cy="737.50091264" r="5" fill="black" stroke="none" />
<path d="M109.201912,753.50091264 L187.59926876896333,702.6465146791384" stroke="grey" stroke-width="5" />
<circle cx="187.59926876896333" cy="702.6465146791384" r="2.5" fill="grey" stroke="none" />
<path d="M187.59926876896333,702.6465146791384 A372.3705503732655,372.3705503732655,0,0,0,213.20191199999994,737.5009126399999" stroke="grey" stroke-width="5" fill="none" />
<circle cx="109.201912" cy="753.50091264" r="5" fill="black" stroke="none" />
<circle cx="213.201912" cy="737.50091264" r="5" fill="black" stroke="none" />
<path d="M213.20191199999994,737.5009126399999 A372.3705503732655,372.3705503732655,0,0,0,266.98716147058315,790.456268422206" stroke="grey" stroke-width="5" fill="none" />
<path d="M266.98716147058315,790.456268422206 L-286.798088,357.50091264" stroke="grey" stroke-width="5" />
<circle cx="266.98716147058315" cy="790.456268422206" r="2.5" fill="grey" stroke="none" />
<circle cx="213.201912" cy="737.50091264" r="5" fill="black" stroke="none" />
<circle cx="213.201912" cy="857.50091264" r="5" fill="black" stroke="none" />
<path d="M213.201912,657.50091264 L272.15126404847604,625.1276956080522" stroke="grey" stroke-width="5" />
<circle cx="272.15126404847604" cy="625.1276956080522" r="2.5" fill="grey" stroke="none" />
<path d="M272.15126404847604,625.1276956080522 A259.94612265407744,259.94612265407744,0,0,0,293.201912,657.50091264" stroke="grey" stroke-width="5" fill="none" />
<circle cx="213.201912" cy="657.50091264" r="5" fill="black" stroke="none" />
<circle cx="293.201912" cy="657.50091264" r="5" fill="black" stroke="none" />
<path d="M293.201912,585.50091264 A223.77635099073507,223.77635099073507,0,0,0,321.9764886199773,635.5857096402699" stroke="grey" stroke-width="5" fill="none" />
<path d="M321.9764886199773,635.5857096402699 L-206.798088,157.50091264" stroke="grey" stroke-width="5" />
<circle cx="321.9764886199773" cy="635.5857096402699" r="2.5" fill="grey" stroke="none" />
<circle cx="293.201912" cy="585.50091264" r="5" fill="black" stroke="none" />
<circle cx="293.201912" cy="657.50091264" r="5" fill="black" stroke="none" />
<path d="M293.201912,657.50091264 L335.0768820766781,625.6082289714282" stroke="grey" stroke-width="5" />
<circle cx="335.0768820766781" cy="625.6082289714282" r="2.5" fill="grey" stroke="none" />
<path d="M335.0768820766781,625.6082289714282 A207.30909775233854,207.30909775233854,0,0,0,365.2019120000001,657.50091264" stroke="grey" stroke-width="5" fill="none" />
<circle cx="293.201912" cy="657.50091264" r="5" fill="black" stroke="none" />
<circle cx="365.201912" cy="657.50091264" r="5" fill="black" stroke="none" />
<path d="M293.201912,585.50091264 L326.7856696448738,571.6156685534237" stroke="grey" stroke-width="5" />
<circle cx="326.7856696448738" cy="571.6156685534237" r="2.5" fill="grey" stroke="none" />
<path d="M326.7856696448738,571.6156685534237 A187.43534411291978,187.43534411291978,0,0,0,333.201912,585.5009126399999" stroke="grey" stroke-width="5" fill="none" />
<circle cx="293.201912" cy="585.50091264" r="5" fill="black" stroke="none" />
<circle cx="333.201912" cy="585.50091264" r="5" fill="black" stroke="none" />
<path d="M365.201912,657.50091264 L417.76092779470537,596.0898564599875" stroke="grey" stroke-width="5" />
<circle cx="417.76092779470537" cy="596.0898564599875" r="2.5" fill="grey" stroke="none" />
<path d="M417.7609277947054,596.0898564599875 A126.4773715400848,126.4773715400848,0,0,0,453.201912,617.50091264" stroke="grey" stroke-width="5" fill="none" />
<circle cx="365.201912" cy="657.50091264" r="5" fill="black" stroke="none" />
<circle cx="453.201912" cy="617.50091264" r="5" fill="black" stroke="none" />
<path d="M333.201912,585.50091264 L421.25465913104335,540.3649621597801" stroke="grey" stroke-width="5" />
<circle cx="421.25465913104335" cy="540.3649621597801" r="2.5" fill="grey" stroke="none" />
<path d="M421.25465913104335,540.3649621597801 A88.48818496685676,88.48818496685676,0,0,0,477.201912,585.50091264" stroke="grey" stroke-width="5" fill="none" />
<circle cx="333.201912" cy="585.50091264" r="5" fill="black" stroke="none" />
<circle cx="477.201912" cy="585.50091264" r="5" fill="black" stroke="none" />
<path d="M453.201912,617.50091264 L467.25834972205445,582.2079267212437" stroke="grey" stroke-width="5" />
<circle cx="467.25834972205445" cy="582.2079267212437" r="2.5" fill="grey" stroke="none" />
<path d="M467.25834972205445,582.2079267212437 A88.48818496685676,88.48818496685676,0,0,0,477.201912,585.50091264" stroke="grey" stroke-width="5" fill="none" />
<circle cx="453.201912" cy="617.50091264" r="5" fill="black" stroke="none" />
<circle cx="477.201912" cy="585.50091264" r="5" fill="black" stroke="none" />
<path d="M213.201912,737.50091264 L276.47304307213506,685.1053353954366" stroke="grey" stroke-width="5" />
<circle cx="276.47304307213506" cy="685.1053353954366" r="2.5" fill="grey" stroke="none" />
<path d="M276.47304307213494,685.1053353954364 A290.2210978982897,290.2210978982897,0,0,0,333.2019119999999,737.5009126399999" stroke="grey" stroke-width="5" fill="none" />
<circle cx="213.201912" cy="737.50091264" r="5" fill="black" stroke="none" />
<circle cx="333.201912" cy="737.50091264" r="5" fill="black" stroke="none" />
<path d="M333.201912,737.50091264 L409.0642144040172,629.4818923264952" stroke="grey" stroke-width="5" />
<circle cx="409.0642144040172" cy="629.4818923264952" r="2.5" fill="grey" stroke="none" />
<path d="M409.06421440401715,629.4818923264952 A158.22413704112483,158.22413704112483,0,0,0,429.201912,641.50091264" stroke="grey" stroke-width="5" fill="none" />
<circle cx="333.201912" cy="737.50091264" r="5" fill="black" stroke="none" />
<circle cx="429.201912" cy="641.50091264" r="5" fill="black" stroke="none" />
<path d="M429.201912,641.50091264 L443.4071422492496,613.1095661882406" stroke="grey" stroke-width="5" />
<circle cx="443.4071422492496" cy="613.1095661882406" r="2.5" fill="grey" stroke="none" />
<path d="M443.4071422492496,613.1095661882406 A126.4773715400848,126.4773715400848,0,0,0,453.201912,617.50091264" stroke="grey" stroke-width="5" fill="none" />
<circle cx="429.201912" cy="641.50091264" r="5" fill="black" stroke="none" />
<circle cx="453.201912" cy="617.50091264" r="5" fill="black" stroke="none" />
<path d="M453.201912,617.50091264 A126.4773715400848,126.4773715400848,0,0,0,460.28619096399785,620.0805516457208" stroke="grey" stroke-width="5" fill="none" />
<path d="M460.28619096399785,620.0805516457208 L-46.79808800000001,141.50091264" stroke="grey" stroke-width="5" />
<circle cx="460.28619096399785" cy="620.0805516457208" r="2.5" fill="grey" stroke="none" />
<circle cx="453.201912" cy="617.50091264" r="5" fill="black" stroke="none" />
<circle cx="453.201912" cy="641.50091264" r="5" fill="black" stroke="none" />
<path d="M453.20191200000005,641.50091264 A149.03881815959443,149.03881815959443,0,0,0,478.26721163070664,647.445770465294" stroke="grey" stroke-width="5" fill="none" />
<path d="M478.26721163070664,647.445770465294 L-46.79808800000001,317.50091264" stroke="grey" stroke-width="5" />
<circle cx="478.26721163070664" cy="647.445770465294" r="2.5" fill="grey" stroke="none" />
<circle cx="453.201912" cy="641.50091264" r="5" fill="black" stroke="none" />
<circle cx="453.201912" cy="817.50091264" r="5" fill="black" stroke="none" />
<path d="M453.20191200000005,817.50091264 A320.93128636468066,320.93128636468066,0,0,0,549.1468853931899,817.1458248563858" stroke="grey" stroke-width="5" fill="none" />
<path d="M549.1468853931899,817.1458248563858 L49.20191199999999,317.50091264" stroke="grey" stroke-width="5" />
<circle cx="549.1468853931899" cy="817.1458248563858" r="2.5" fill="grey" stroke="none" />
<circle cx="453.201912" cy="817.50091264" r="5" fill="black" stroke="none" />
<circle cx="549.201912" cy="817.50091264" r="5" fill="black" stroke="none" />
<path d="M453.20191200000005,817.50091264 A320.93128636468066,320.93128636468066,0,0,0,459.24126467822805,818.332555769369" stroke="grey" stroke-width="5" fill="none" />
<path d="M459.24126467822805,818.332555769369 L-46.79808800000001,365.50091264" stroke="grey" stroke-width="5" />
<circle cx="459.24126467822805" cy="818.332555769369" r="2.5" fill="grey" stroke="none" />
<circle cx="453.201912" cy="817.50091264" r="5" fill="black" stroke="none" />
<circle cx="453.201912" cy="865.50091264" r="5" fill="black" stroke="none" />
<path d="M141.201912,441.50091264 L325.5445307902314,471.5564656695383" stroke="grey" stroke-width="5" />
<circle cx="325.5445307902314" cy="471.5564656695383" r="2.5" fill="grey" stroke="none" />
<path d="M325.5445307902314,471.5564656695383 A176.759003681308,176.759003681308,0,0,1,333.201912,441.50091264" stroke="grey" stroke-width="5" fill="none" />
<circle cx="141.201912" cy="441.50091264" r="5" fill="black" stroke="none" />
<circle cx="333.201912" cy="441.50091264" r="5" fill="black" stroke="none" />
<path d="M333.201912,441.50091264 A176.759003681308,176.759003681308,0,0,0,342.702751765616,580.6307700589497" stroke="grey" stroke-width="5" fill="none" />
<path d="M342.702751765616,580.6307700589497 L-166.798088,85.50091264" stroke="grey" stroke-width="5" />
<circle cx="342.702751765616" cy="580.6307700589497" r="2.5" fill="grey" stroke="none" />
<circle cx="333.201912" cy="441.50091264" r="5" fill="black" stroke="none" />
<circle cx="333.201912" cy="585.50091264" r="5" fill="black" stroke="none" />
<path d="M333.201912,441.50091264 A176.759003681308,176.759003681308,0,0,1,364.00997454958485,387.0820724578949" stroke="grey" stroke-width="5" fill="none" />
<path d="M364.00997454958485,387.0820724578949 L-166.798088,-138.49908736" stroke="grey" stroke-width="5" />
<circle cx="364.00997454958485" cy="387.0820724578949" r="2.5" fill="grey" stroke="none" />
<circle cx="333.201912" cy="441.50091264" r="5" fill="black" stroke="none" />
<circle cx="333.201912" cy="361.50091264" r="5" fill="black" stroke="none" />
<path d="M333.201912,361.50091264 A216.80313503270347,216.80313503270347,0,0,1,358.86513610478835,335.42615774890373" stroke="grey" stroke-width="5" fill="none" />
<path d="M358.86513610478835,335.42615774890373 L-166.798088,-194.49908736" stroke="grey" stroke-width="5" />
<circle cx="358.86513610478835" cy="335.42615774890373" r="2.5" fill="grey" stroke="none" />
<circle cx="333.201912" cy="361.50091264" r="5" fill="black" stroke="none" />
<circle cx="333.201912" cy="305.50091264" r="5" fill="black" stroke="none" />
<path d="M333.201912,361.50091264 L436.47111102607244,447.2494364330859" stroke="grey" stroke-width="5" />
<circle cx="436.47111102607244" cy="447.2494364330859" r="2.5" fill="grey" stroke="none" />
<path d="M436.47111102607244,447.2494364330859 A82.57446149317994,82.57446149317994,0,0,0,429.201912,457.50091263999997" stroke="grey" stroke-width="5" fill="none" />
<circle cx="333.201912" cy="361.50091264" r="5" fill="black" stroke="none" />
<circle cx="429.201912" cy="457.50091264" r="5" fill="black" stroke="none" />
<path d="M333.201912,441.50091264 L422.07886439819,472.67165725088716" stroke="grey" stroke-width="5" />
<circle cx="422.07886439819" cy="472.67165725088716" r="2.5" fill="grey" stroke="none" />
<path d="M422.07886439819,472.67165725088716 A82.57446149317994,82.57446149317994,0,0,1,429.201912,457.50091263999997" stroke="grey" stroke-width="5" fill="none" />
<circle cx="333.201912" cy="441.50091264" r="5" fill="black" stroke="none" />
<circle cx="429.201912" cy="457.50091264" r="5" fill="black" stroke="none" />
<path d="M429.201912,457.50091264 L468.033725028928,480.81109884536187" stroke="grey" stroke-width="5" />
<circle cx="468.033725028928" cy="480.81109884536187" r="2.5" fill="grey" stroke="none" />
<path d="M468.033725028928,480.81109884536187 A37.2834636675384,37.2834636675384,0,0,0,477.201912,529.50091264" stroke="grey" stroke-width="5" fill="none" />
<circle cx="429.201912" cy="457.50091264" r="5" fill="black" stroke="none" />
<circle cx="477.201912" cy="529.50091264" r="5" fill="black" stroke="none" />
<path d="M429.201912,641.50091264 L433.31192344732824,633.2864200288748" stroke="grey" stroke-width="5" />
<circle cx="433.31192344732824" cy="633.2864200288748" r="2.5" fill="grey" stroke="none" />
<path d="M433.31192344732824,633.2864200288748 A149.03881815959443,149.03881815959443,0,0,0,453.20191200000005,641.50091264" stroke="grey" stroke-width="5" fill="none" />
<circle cx="429.201912" cy="641.50091264" r="5" fill="black" stroke="none" />
<circle cx="453.201912" cy="641.50091264" r="5" fill="black" stroke="none" />
<path d="M453.201912,641.50091264 L454.9958219610337,636.0767616216879" stroke="grey" stroke-width="5" />
<circle cx="454.9958219610337" cy="636.0767616216879" r="2.5" fill="grey" stroke="none" />
<path d="M454.99582196103376,636.076761621688 A143.32571679363286,143.32571679363286,0,0,0,477.201912,641.50091264" stroke="grey" stroke-width="5" fill="none" />
<circle cx="453.201912" cy="641.50091264" r="5" fill="black" stroke="none" />
<circle cx="477.201912" cy="641.50091264" r="5" fill="black" stroke="none" />
<path d="M477.201912,641.50091264 L485.92463744144834,587.3615650476454" stroke="grey" stroke-width="5" />
<circle cx="485.92463744144834" cy="587.3615650476454" r="2.5" fill="grey" stroke="none" />
<path d="M485.92463744144834,587.3615650476454 A88.48818496685676,88.48818496685676,0,0,1,477.201912,585.50091264" stroke="grey" stroke-width="5" fill="none" />
<circle cx="477.201912" cy="641.50091264" r="5" fill="black" stroke="none" />
<circle cx="477.201912" cy="585.50091264" r="5" fill="black" stroke="none" />
<path d="M477.201912,585.50091264 L481.1550368408009,570.6752929797753" stroke="grey" stroke-width="5" />
<circle cx="481.1550368408009" cy="570.6752929797753" r="2.5" fill="grey" stroke="none" />
<path d="M481.15503684080085,570.6752929797753 A73.14458062118243,73.14458062118243,0,0,1,477.201912,569.50091264" stroke="grey" stroke-width="5" fill="none" />
<circle cx="477.201912" cy="585.50091264" r="5" fill="black" stroke="none" />
<circle cx="477.201912" cy="569.50091264" r="5" fill="black" stroke="none" />
<path d="M477.201912,569.50091264 L481.87368496037135,555.2588198648215" stroke="grey" stroke-width="5" />
<circle cx="481.87368496037135" cy="555.2588198648215" r="2.5" fill="grey" stroke="none" />
<path d="M481.87368496037135,555.2588198648215 A58.155829198530526,58.155829198530526,0,0,1,477.201912,553.50091264" stroke="grey" stroke-width="5" fill="none" />
<circle cx="477.201912" cy="569.50091264" r="5" fill="black" stroke="none" />
<circle cx="477.201912" cy="553.50091264" r="5" fill="black" stroke="none" />
<path d="M477.201912,553.50091264 L485.3842392525147,534.2992157464413" stroke="grey" stroke-width="5" />
<circle cx="485.3842392525147" cy="534.2992157464413" r="2.5" fill="grey" stroke="none" />
<path d="M485.3842392525147,534.2992157464413 A37.2834636675384,37.2834636675384,0,0,1,477.201912,529.50091264" stroke="grey" stroke-width="5" fill="none" />
<circle cx="477.201912" cy="553.50091264" r="5" fill="black" stroke="none" />
<circle cx="477.201912" cy="529.50091264" r="5" fill="black" stroke="none" />
<path d="M477.201912,529.50091264 A37.2834636675384,37.2834636675384,0,0,0,524.216868641588,528.347838299326" stroke="grey" stroke-width="5" fill="none" />
<path d="M524.216868641588,528.347838299326 L25.201911999999993,29.500912639999996" stroke="grey" stroke-width="5" />
<circle cx="524.216868641588" cy="528.347838299326" r="2.5" fill="grey" stroke="none" />
<circle cx="477.201912" cy="529.50091264" r="5" fill="black" stroke="none" />
<circle cx="525.201912" cy="529.50091264" r="5" fill="black" stroke="none" />
<path d="M525.201912,529.50091264 A38.80000277124546,38.80000277124546,0,0,1,513.2266472911747,536.475964915044" stroke="grey" stroke-width="5" fill="none" />
<path d="M513.2266472911747,536.475964915044 L25.201911999999993,69.50091264" stroke="grey" stroke-width="5" />
<circle cx="513.2266472911747" cy="536.475964915044" r="2.5" fill="grey" stroke="none" />
<circle cx="525.201912" cy="529.50091264" r="5" fill="black" stroke="none" />
<circle cx="525.201912" cy="569.50091264" r="5" fill="black" stroke="none" />
<path d="M525.201912,569.50091264 L524.934471650457,568.7633754098882" stroke="grey" stroke-width="5" />
<circle cx="524.934471650457" cy="568.7633754098882" r="2.5" fill="grey" stroke="none" />
<path d="M524.9344716504569,568.7633754098882 A73.14458062118243,73.14458062118243,0,0,1,477.201912,569.50091264" stroke="grey" stroke-width="5" fill="none" />
<circle cx="525.201912" cy="569.50091264" r="5" fill="black" stroke="none" />
<circle cx="477.201912" cy="569.50091264" r="5" fill="black" stroke="none" />
<path d="M477.201912,553.50091264 A58.155829198530526,58.155829198530526,0,0,0,542.4734487442298,539.7253901370387" stroke="grey" stroke-width="5" fill="none" />
<path d="M542.4734487442298,539.7253901370387 L57.20191199999999,53.500912639999996" stroke="grey" stroke-width="5" />
<circle cx="542.4734487442298" cy="539.7253901370387" r="2.5" fill="grey" stroke="none" />
<circle cx="477.201912" cy="553.50091264" r="5" fill="black" stroke="none" />
<circle cx="557.201912" cy="553.50091264" r="5" fill="black" stroke="none" />
<circle cx="500" cy="500" r="5" fill="red" stroke="none" />
</svg>