<?xml version="1.0" encoding="UTF-8"?>
<svg xmlns="http://www.w3.org/2000/svg" xmlns:xlink="http://www.w3.org/1999/xlink"
     width="1000" height="1000" viewBox="0 0 1000 1000">
<defs>
</defs>
<rect x="0" y="0" width="1000" height="1000" fill="white" />
<path d="M230.635,268.1024 L271.3543403458277,303.1578723137031" stroke="grey" stroke-width="5" />
<circle cx="271.3543403458277" cy="303.1578723137031" r="2.5" fill="grey" stroke="none" />
<path d="M271.3543403458277,303.1578723137031 A301.7045921273987,301.7045921273987,0,0,0,230.63499999999993,364.1024" stroke="grey" stroke-width="5" fill="none" />
<circle cx="230.635" cy="268.1024" r="5" fill="black" stroke="none" />
<circle cx="230.635" cy="364.1024" r="5" fill="black" stroke="none" />
<path d="M230.635,364.1024 L303.2605413595413,400.7427830099026" stroke="grey" stroke-width="5" />
<circle cx="303.2605413595413" cy="400.7427830099026" r="2.5" fill="grey" stroke="none" />
<path d="M303.2605413595413,400.7427830099026 A220.35972796942733,220.35972796942733,0,0,0,294.635,420.10239999999993" stroke="grey" stroke-width="5" fill="none" />
<circle cx="230.635" cy="364.1024" r="5" fill="black" stroke="none" />
<circle cx="294.635" cy="420.1024" r="5" fill="black" stroke="none" />
<path d="M206.635,420.1024 L287.38449215170886,442.0944257158842" stroke="grey" stroke-width="5" />
<circle cx="287.38449215170886" cy="442.0944257158842" r="2.5" fill="grey" stroke="none" />
<path d="M287.38449215170886,442.0944257158841 A220.35972796942733,220.35972796942733,0,0,1,294.635,420.10239999999993" stroke="grey" stroke-width="5" fill="none" />
<circle cx="206.635" cy="420.1024" r="5" fill="black" stroke="none" />
<circle cx="294.635" cy="420.1024" r="5" fill="black" stroke="none" />
<path d="M294.635,420.1024 L367.9372253550216,448.6207545420367" stroke="grey" stroke-width="5" />
<circle cx="367.9372253550216" cy="448.6207545420367" r="2.5" fill="grey" stroke="none" />
<path d="M367.9372253550216,448.6207545420367 A141.70533973975716,141.70533973975716,0,0,0,366.635,452.1024" stroke="grey" stroke-width="5" fill="none" />
<circle cx="294.635" cy="420.1024" r="5" fill="black" stroke="none" />
<circle cx="366.635" cy="452.1024" r="5" fill="black" stroke="none" />
<path d="M366.635,452.1024 L385.535951004657,458.89061423042523" stroke="grey" stroke-width="5" />
<circle cx="385.535951004657" cy="458.89061423042523" r="2.5" fill="grey" stroke="none" />
<path d="M385.535951004657,458.89061423042523 A121.62236681943006,121.62236681943006,0,0,0,382.635,468.1024" stroke="grey" stroke-width="5" fill="none" />
<circle cx="366.635" cy="452.1024" r="5" fill="black" stroke="none" />
<circle cx="382.635" cy="468.1024" r="5" fill="black" stroke="none" />
<path d="M382.635,468.1024 L417.62312562044724,477.6115146064907" stroke="grey" stroke-width="5" />
<circle cx="417.62312562044724" cy="477.6115146064907" r="2.5" fill="grey" stroke="none" />
<path d="M417.62312562044724,477.6115146064907 A85.36506141718637,85.36506141718637,0,0,0,414.635,500.10239999999993" stroke="grey" stroke-width="5" fill="none" />
<circle cx="382.635" cy="468.1024" r="5" fill="black" stroke="none" />
<circle cx="414.635" cy="500.1024" r="5" fill="black" stroke="none" />
<path d="M382.635,468.1024 A121.62236681943006,121.62236681943006,0,0,0,388.5142611814151,548.6099799509758" stroke="grey" stroke-width="5" fill="none" />
<path d="M388.5142611814151,548.6099799509759 L334.635,572.1024" stroke="grey" stroke-width="5" />
<circle cx="388.5142611814151" cy="548.6099799509759" r="2.5" fill="grey" stroke="none" />
<circle cx="382.635" cy="468.1024" r="5" fill="black" stroke="none" />
<circle cx="334.635" cy="572.1024" r="5" fill="black" stroke="none" />
<path d="M334.635,572.1023999999999 A180.40049698035756,180.40049698035756,0,0,0,367.22431816078796,622.1268095992535" stroke="grey" stroke-width="5" fill="none" />
<path d="M367.22431816078796,622.1268095992535 L334.635,652.1024" stroke="grey" stroke-width="5" />
<circle cx="367.22431816078796" cy="622.1268095992535" r="2.5" fill="grey" stroke="none" />
<circle cx="334.635" cy="572.1024" r="5" fill="black" stroke="none" />
<circle cx="334.635" cy="652.1024" r="5" fill="black" stroke="none" />
<path d="M230.635,668.1024 L309.39276106750253,618.9521070737707" stroke="grey" stroke-width="5" />
<circle cx="309.39276106750253" cy="618.9521070737707" r="2.5" fill="grey" stroke="none" />
<path d="M309.39276106750253,618.9521070737707 A224.67915637806726,224.67915637806726,0,0,0,334.635,652.1024" stroke="grey" stroke-width="5" fill="none" />
<circle cx="230.635" cy="668.1024" r="5" fill="black" stroke="none" />
<circle cx="334.635" cy="652.1024" r="5" fill="black" stroke="none" />
<path d="M334.635,652.1024 A224.67915637806726,224.67915637806726,0,0,0,383.31396414467133,692.0028446329089" stroke="grey" stroke-width="5" fill="none" />
<path d="M383.31396414467133,692.0028446329089 L334.635,772.1024" stroke="grey" stroke-width="5" />
<circle cx="383.31396414467133" cy="692.0028446329089" r="2.5" fill="grey" stroke="none" />
<circle cx="334.635" cy="652.1024" r="5" fill="black" stroke="none" />
<circle cx="334.635" cy="772.1024" r="5" fill="black" stroke="none" />
<path d="M334.635,572.1024 L397.5725229698742,544.6603992369421" stroke="grey" stroke-width="5" />
<circle cx="397.5725229698742" cy="544.6603992369421" r="2.5" fill="grey" stroke="none" />
<path d="M397.5725229698742,544.6603992369421 A111.74049986804248,111.74049986804248,0,0,0,414.63499999999993,572.1024" stroke="grey" stroke-width="5" fill="none" />
<circle cx="334.635" cy="572.1024" r="5" fill="black" stroke="none" />
<circle cx="414.635" cy="572.1024" r="5" fill="black" stroke="none" />
<path d="M414.635,500.10239999999993 A85.36506141718637,85.36506141718637,0,0,0,434.7847156896222,555.0832134418155" stroke="grey" stroke-width="5" fill="none" />
<path d="M434.78471568962226,555.0832134418155 L414.635,572.1024" stroke="grey" stroke-width="5" />
<circle cx="434.78471568962226" cy="555.0832134418155" r="2.5" fill="grey" stroke="none" />
<circle cx="414.635" cy="500.1024" r="5" fill="black" stroke="none" />
<circle cx="414.635" cy="572.1024" r="5" fill="black" stroke="none" />
<path d="M414.635,572.1024 L443.978520932806,547.3177894019146" stroke="grey" stroke-width="5" />
<circle cx="443.978520932806" cy="547.3177894019146" r="2.5" fill="grey" stroke="none" />
<path d="M443.978520932806,547.3177894019146 A73.33061646242993,73.33061646242993,0,0,0,486.635,572.1024" stroke="grey" stroke-width="5" fill="none" />
<circle cx="414.635" cy="572.1024" r="5" fill="black" stroke="none" />
<circle cx="486.635" cy="572.1024" r="5" fill="black" stroke="none" />
<path d="M414.635,500.1024 L454.63491706773175,500.0544179053741" stroke="grey" stroke-width="5" />
<circle cx="454.63491706773175" cy="500.0544179053741" r="2.5" fill="grey" stroke="none" />
<path d="M454.63491706773175,500.0544179053741 A45.36511557088773,45.36511557088773,0,0,0,454.635,500.1024" stroke="grey" stroke-width="5" fill="none" />
<circle cx="414.635" cy="500.1024" r="5" fill="black" stroke="none" />
<circle cx="454.635" cy="500.1024" r="5" fill="black" stroke="none" />
<path d="M486.635,572.1024 A73.33061646242993,73.33061646242993,0,0,0,567.3635149422585,528.9747504801012" stroke="grey" stroke-width="5" fill="none" />
<path d="M567.3635149422585,528.9747504801012 L574.635,532.1024" stroke="grey" stroke-width="5" />
<circle cx="567.3635149422585" cy="528.9747504801012" r="2.5" fill="grey" stroke="none" />
<circle cx="486.635" cy="572.1024" r="5" fill="black" stroke="none" />
<circle cx="574.635" cy="532.1024" r="5" fill="black" stroke="none" />
<path d="M454.635,500.1024 A45.36511557088773,45.36511557088773,0,0,0,545.3650911236672,500.04709672358763" stroke="grey" stroke-width="5" fill="none" />
<path d="M545.3650911236672,500.04709672358763 L598.635,500.1024" stroke="grey" stroke-width="5" />
<circle cx="545.3650911236672" cy="500.04709672358763" r="2.5" fill="grey" stroke="none" />
<circle cx="454.635" cy="500.1024" r="5" fill="black" stroke="none" />
<circle cx="598.635" cy="500.1024" r="5" fill="black" stroke="none" />
<path d="M574.635,532.1024 A81.24621413185969,81.24621413185969,0,0,0,581.2461703483469,500.08434742072967" stroke="grey" stroke-width="5" fill="none" />
<path d="M581.2461703483469,500.08434742072967 L598.635,500.1024" stroke="grey" stroke-width="5" />
<circle cx="581.2461703483469" cy="500.08434742072967" r="2.5" fill="grey" stroke="none" />
<circle cx="574.635" cy="532.1024" r="5" fill="black" stroke="none" />
<circle cx="598.635" cy="500.1024" r="5" fill="black" stroke="none" />
<path d="M334.635,652.1024 L383.1787586220801,607.451946811967" stroke="grey" stroke-width="5" />
<circle cx="383.1787586220801" cy="607.451946811967" r="2.5" fill="grey" stroke="none" />
<path d="M383.1787586220801,607.451946811967 A158.72341765083058,158.72341765083058,0,0,0,454.63500000000005,652.1024" stroke="grey" stroke-width="5" fill="none" />
<circle cx="334.635" cy="652.1024" r="5" fill="black" stroke="none" />
<circle cx="454.635" cy="652.1024" r="5" fill="black" stroke="none" />
<path d="M454.635,652.1024 L478.40016007253496,572.4211945901743" stroke="grey" stroke-width="5" />
<circle cx="478.40016007253496" cy="572.4211945901743" r="2.5" fill="grey" stroke="none" />
<path d="M478.400160072535,572.4211945901743 A75.57368927583195,75.57368927583195,0,0,0,550.635,556.1024" stroke="grey" stroke-width="5" fill="none" />
<circle cx="454.635" cy="652.1024" r="5" fill="black" stroke="none" />
<circle cx="550.635" cy="556.1024" r="5" fill="black" stroke="none" />
<path d="M550.635,556.1024 A75.57368927583195,75.57368927583195,0,0,0,569.4240631316984,529.8610443395061" stroke="grey" stroke-width="5" fill="none" />
<path d="M569.4240631316984,529.8610443395061 L574.635,532.1024" stroke="grey" stroke-width="5" />
<circle cx="569.4240631316984" cy="529.8610443395061" r="2.5" fill="grey" stroke="none" />
<circle cx="550.635" cy="556.1024" r="5" fill="black" stroke="none" />
<circle cx="574.635" cy="532.1024" r="5" fill="black" stroke="none" />
<path d="M574.635,532.1024 A81.24621413185969,81.24621413185969,0,0,1,564.9442435301723,548.8179530813578" stroke="grey" stroke-width="5" fill="none" />
<path d="M564.9442435301723,548.8179530813578 L574.635,556.1024" stroke="grey" stroke-width="5" />
<circle cx="564.9442435301723" cy="548.8179530813578" r="2.5" fill="grey" stroke="none" />
<circle cx="574.635" cy="532.1024" r="5" fill="black" stroke="none" />
<circle cx="574.635" cy="556.1024" r="5" fill="black" stroke="none" />
<path d="M574.635,556.1024 A93.36949454056179,93.36949454056179,0,0,1,528.5825634870491,588.8870045353583" stroke="grey" stroke-width="5" fill="none" />
<path d="M528.5825634870491,588.8870045353583 L574.635,732.1024" stroke="grey" stroke-width="5" />
<circle cx="528.5825634870491" cy="588.8870045353583" r="2.5" fill="grey" stroke="none" />
<circle cx="574.635" cy="556.1024" r="5" fill="black" stroke="none" />
<circle cx="574.635" cy="732.1024" r="5" fill="black" stroke="none" />
<path d="M574.635,732.1024 A243.8071108699662,243.8071108699662,0,0,0,644.4133317247699,696.4349687069783" stroke="grey" stroke-width="5" fill="none" />
<path d="M644.4133317247699,696.4349687069783 L670.635,732.1024" stroke="grey" stroke-width="5" />
<circle cx="644.4133317247699" cy="696.4349687069783" r="2.5" fill="grey" stroke="none" />
<circle cx="574.635" cy="732.1024" r="5" fill="black" stroke="none" />
<circle cx="670.635" cy="732.1024" r="5" fill="black" stroke="none" />
<path d="M574.635,732.1024 A243.8071108699662,243.8071108699662,0,0,1,562.7736771814847,735.5872932988423" stroke="grey" stroke-width="5" fill="none" />
<path d="M562.7736771814847,735.5872932988423 L574.635,780.1024" stroke="grey" stroke-width="5" />
<circle cx="562.7736771814847" cy="735.5872932988423" r="2.5" fill="grey" stroke="none" />
<circle cx="574.635" cy="732.1024" r="5" fill="black" stroke="none" />
<circle cx="574.635" cy="780.1024" r="5" fill="black" stroke="none" />
<path d="M262.635,356.1024 L370.9781658508016,421.78319347137244" stroke="grey" stroke-width="5" />
<circle cx="370.9781658508016" cy="421.78319347137244" r="2.5" fill="grey" stroke="none" />
<path d="M370.97816585080164,421.7831934713724 A150.87909898577738,150.87909898577738,0,0,1,454.635,356.1024" stroke="grey" stroke-width="5" fill="none" />
<circle cx="262.635" cy="356.1024" r="5" fill="black" stroke="none" />
<circle cx="454.635" cy="356.1024" r="5" fill="black" stroke="none" />
<path d="M454.635,356.1024 L486.3600161870842,456.7340254663853" stroke="grey" stroke-width="5" />
<circle cx="486.3600161870842" cy="456.7340254663853" r="2.5" fill="grey" stroke="none" />
<path d="M486.3600161870842,456.7340254663853 A45.36511557088773,45.36511557088773,0,0,0,454.635,500.1024" stroke="grey" stroke-width="5" fill="none" />
<circle cx="454.635" cy="356.1024" r="5" fill="black" stroke="none" />
<circle cx="454.635" cy="500.1024" r="5" fill="black" stroke="none" />
<path d="M454.635,356.1024 A150.87909898577738,150.87909898577738,0,0,1,470.03845688545795,352.12570052590127" stroke="grey" stroke-width="5" fill="none" />
<path d="M470.03845688545795,352.12570052590127 L454.635,276.1024" stroke="grey" stroke-width="5" />
<circle cx="470.03845688545795" cy="352.12570052590127" r="2.5" fill="grey" stroke="none" />
<circle cx="454.635" cy="356.1024" r="5" fill="black" stroke="none" />
<circle cx="454.635" cy="276.1024" r="5" fill="black" stroke="none" />
<path d="M454.635,276.1024 A228.44718976332365,228.44718976332365,0,0,1,463.45087737288145,274.495498612671" stroke="grey" stroke-width="5" fill="none" />
<path d="M463.45087737288145,274.495498612671 L454.635,220.1024" stroke="grey" stroke-width="5" />
<circle cx="463.45087737288145" cy="274.495498612671" r="2.5" fill="grey" stroke="none" />
<circle cx="454.635" cy="276.1024" r="5" fill="black" stroke="none" />
<circle cx="454.635" cy="220.1024" r="5" fill="black" stroke="none" />
<path d="M454.635,276.1024 L472.6841220480072,365.18330176691074" stroke="grey" stroke-width="5" />
<circle cx="472.6841220480072" cy="365.18330176691074" r="2.5" fill="grey" stroke="none" />
<path d="M472.6841220480072,365.18330176691074 A137.5561678397592,137.5561678397592,0,0,1,550.635,372.1024" stroke="grey" stroke-width="5" fill="none" />
<circle cx="454.635" cy="276.1024" r="5" fill="black" stroke="none" />
<circle cx="550.635" cy="372.1024" r="5" fill="black" stroke="none" />
<path d="M454.635,356.1024 L458.6408217175335,368.80885059365033" stroke="grey" stroke-width="5" />
<circle cx="458.6408217175335" cy="368.80885059365033" r="2.5" fill="grey" stroke="none" />
<path d="M458.6408217175335,368.80885059365033 A137.5561678397592,137.5561678397592,0,0,1,550.635,372.1024" stroke="grey" stroke-width="5" fill="none" />
<circle cx="454.635" cy="356.1024" r="5" fill="black" stroke="none" />
<circle cx="550.635" cy="372.1024" r="5" fill="black" stroke="none" />
<path d="M550.635,372.1024 L541.7330225931985,394.5876680079812" stroke="grey" stroke-width="5" />
<circle cx="541.7330225931985" cy="394.5876680079812" r="2.5" fill="grey" stroke="none" />
<path d="M541.7330225931985,394.5876680079812 A113.37285791034819,113.37285791034819,0,0,1,598.635,444.1024" stroke="grey" stroke-width="5" fill="none" />
<circle cx="550.635" cy="372.1024" r="5" fill="black" stroke="none" />
<circle cx="598.635" cy="444.1024" r="5" fill="black" stroke="none" />
<path d="M550.635,556.1024 A75.57368927583195,75.57368927583195,0,0,0,560.4099050429301,545.409535160186" stroke="grey" stroke-width="5" fill="none" />
<path d="M560.4099050429301,545.409535160186 L574.635,556.1024" stroke="grey" stroke-width="5" />
<circle cx="560.4099050429301" cy="545.409535160186" r="2.5" fill="grey" stroke="none" />
<circle cx="550.635" cy="556.1024" r="5" fill="black" stroke="none" />
<circle cx="574.635" cy="556.1024" r="5" fill="black" stroke="none" />
<path d="M574.635,556.1024 A93.36949454056179,93.36949454056179,0,0,0,581.1595810386455,546.162592175825" stroke="grey" stroke-width="5" fill="none" />
<path d="M581.1595810386455,546.162592175825 L598.635,556.1024" stroke="grey" stroke-width="5" />
<circle cx="581.1595810386455" cy="546.162592175825" r="2.5" fill="grey" stroke="none" />
<circle cx="574.635" cy="556.1024" r="5" fill="black" stroke="none" />
<circle cx="598.635" cy="556.1024" r="5" fill="black" stroke="none" />
<path d="M598.635,556.1024 L585.7365634152956,548.765924624629" stroke="grey" stroke-width="5" />
<circle cx="585.7365634152956" cy="548.765924624629" r="2.5" fill="grey" stroke="none" />
<path d="M585.7365634152956,548.765924624629 A98.63505315434264,98.63505315434264,0,0,0,598.635,500.1024" stroke="grey" stroke-width="5" fill="none" />
<circle cx="598.635" cy="556.1024" r="5" fill="black" stroke="none" />
<circle cx="598.635" cy="500.1024" r="5" fill="black" stroke="none" />
<path d="M598.635,500.1024 A98.63505315434264,98.63505315434264,0,0,0,597.3783290450832,484.3049452645905" stroke="grey" stroke-width="5" fill="none" />
<path d="M597.3783290450832,484.3049452645905 L598.635,484.1024" stroke="grey" stroke-width="5" />
<circle cx="597.3783290450832" cy="484.3049452645905" r="2.5" fill="grey" stroke="none" />
<circle cx="598.635" cy="500.1024" r="5" fill="black" stroke="none" />
<circle cx="598.635" cy="484.1024" r="5" fill="black" stroke="none" />
<path d="M598.635,484.1024 A99.90794218058942,99.90794218058942,0,0,0,595.0607368104826,469.2582819639474" stroke="grey" stroke-width="5" fill="none" />
<path d="M595.0607368104826,469.2582819639474 L598.635,468.1024" stroke="grey" stroke-width="5" />
<circle cx="595.0607368104826" cy="469.2582819639474" r="2.5" fill="grey" stroke="none" />
<circle cx="598.635" cy="484.1024" r="5" fill="black" stroke="none" />
<circle cx="598.635" cy="468.1024" r="5" fill="black" stroke="none" />
<path d="M598.635,468.1024 A103.664459245973,103.664459245973,0,0,0,590.1886406163644,448.8890499547088" stroke="grey" stroke-width="5" fill="none" />
<path d="M590.1886406163644,448.8890499547088 L598.635,444.1024" stroke="grey" stroke-width="5" />
<circle cx="590.1886406163644" cy="448.8890499547088" r="2.5" fill="grey" stroke="none" />
<circle cx="598.635" cy="468.1024" r="5" fill="black" stroke="none" />
<circle cx="598.635" cy="444.1024" r="5" fill="black" stroke="none" />
<path d="M598.635,444.1024 A113.37285791034819,113.37285791034819,0,0,1,605.9367347635138,459.6166725194054" stroke="grey" stroke-width="5" fill="none" />
<path d="M605.9367347635138,459.6166725194054 L646.635,444.1024" stroke="grey" stroke-width="5" />
<circle cx="605.9367347635138" cy="459.6166725194054" r="2.5" fill="grey" stroke="none" />
<circle cx="598.635" cy="444.1024" r="5" fill="black" stroke="none" />
<circle cx="646.635" cy="444.1024" r="5" fill="black" stroke="none" />
<path d="M646.635,444.1024 L637.8201154369136,447.46265431413764" stroke="grey" stroke-width="5" />
<circle cx="637.8201154369136" cy="447.46265431413764" r="2.5" fill="grey" stroke="none" />
<path d="M637.8201154369136,447.46265431413764 A147.49426060277736,147.49426060277736,0,0,1,646.635,484.1024" stroke="grey" stroke-width="5" fill="none" />
<circle cx="646.635" cy="444.1024" r="5" fill="black" stroke="none" />
<circle cx="646.635" cy="484.1024" r="5" fill="black" stroke="none" />
<path d="M646.635,484.1024 L599.32590625411,489.23146910856656" stroke="grey" stroke-width="5" />
<circle cx="599.32590625411" cy="489.23146910856656" r="2.5" fill="grey" stroke="none" />
<path d="M599.32590625411,489.23146910856656 A99.90794218058942,99.90794218058942,0,0,0,598.635,484.1024" stroke="grey" stroke-width="5" fill="none" />
<circle cx="646.635" cy="484.1024" r="5" fill="black" stroke="none" />
<circle cx="598.635" cy="484.1024" r="5" fill="black" stroke="none" />
<path d="M598.635,468.1024 A103.664459245973,103.664459245973,0,0,1,602.0503012769225,481.77759291286276" stroke="grey" stroke-width="5" fill="none" />
<path d="M602.0503012769225,481.77759291286276 L678.635,468.1024" stroke="grey" stroke-width="5" />
<circle cx="602.0503012769225" cy="481.77759291286276" r="2.5" fill="grey" stroke="none" />
<circle cx="598.635" cy="468.1024" r="5" fill="black" stroke="none" />
<circle cx="678.635" cy="468.1024" r="5" fill="black" stroke="none" />
<circle cx="500" cy="500" r="5" fill="red" stroke="none" />
</svg>