<?xml version="1.0" encoding="UTF-8"?>
<svg xmlns="http://www.w3.org/2000/svg" xmlns:xlink="http://www.w3.org/1999/xlink"
     width="1000" height="1000" viewBox="0 0 1000 1000">
<defs>
</defs>
<rect x="0" y="0" width="1000" height="1000" fill="white" />
<path d="M412.6846875,294.1988999999999 L445.20814740003976,370.8562883960396" stroke="grey" stroke-width="5" />
<circle cx="445.20814740003976" cy="370.8562883960396" r="2.5" fill="grey" stroke="none" />
<path d="M445.2081474000397,370.8562883960396 A140.2862978276306,140.2862978276306,0,0,0,412.6846875,390.1988999999999" stroke="grey" stroke-width="5" fill="none" />
<circle cx="412.6846875" cy="294.1988999999999" r="5" fill="black" stroke="none" />
<circle cx="412.6846875" cy="390.1988999999999" r="5" fill="black" stroke="none" />
<path d="M412.6846875,390.1988999999999 L463.5045824893674,454.1061370234834" stroke="grey" stroke-width="5" />
<circle cx="463.5045824893674" cy="454.1061370234834" r="2.5" fill="grey" stroke="none" />
<path d="M463.5045824893674,454.1061370234834 A58.635843629836735,58.635843629836735,0,0,1,476.6846875,446.1988999999999" stroke="grey" stroke-width="5" fill="none" />
<circle cx="412.6846875" cy="390.1988999999999" r="5" fill="black" stroke="none" />
<circle cx="476.6846875" cy="446.1988999999999" r="5" fill="black" stroke="none" />
<path d="M388.6846875,446.1988999999999 L447.2070378332716,474.48401865800474" stroke="grey" stroke-width="5" />
<circle cx="447.2070378332716" cy="474.48401865800474" r="2.5" fill="grey" stroke="none" />
<path d="M447.2070378332716,474.48401865800474 A58.635843629836735,58.635843629836735,0,0,1,476.6846875,446.1988999999999" stroke="grey" stroke-width="5" fill="none" />
<circle cx="388.6846875" cy="446.1988999999999" r="5" fill="black" stroke="none" />
<circle cx="476.6846875" cy="446.1988999999999" r="5" fill="black" stroke="none" />
<path d="M476.6846875,446.1988999999999 L478.78923427190034,451.0552334216381" stroke="grey" stroke-width="5" />
<circle cx="478.78923427190034" cy="451.0552334216381" r="2.5" fill="grey" stroke="none" />
<path d="M478.78923427190034,451.0552334216381 A53.34310412961228,53.34310412961228,0,0,1,548.6846875,478.1988999999999" stroke="grey" stroke-width="5" fill="none" />
<circle cx="476.6846875" cy="446.1988999999999" r="5" fill="black" stroke="none" />
<circle cx="548.6846875" cy="478.1988999999999" r="5" fill="black" stroke="none" />
<path d="M548.6846875,478.1988999999999 A53.34310412961228,53.34310412961228,0,0,1,553.1298704204743,495.2351676539178" stroke="grey" stroke-width="5" fill="none" />
<path d="M553.1298704204743,495.2351676539178 L64.6846875,-5.801100000000076" stroke="grey" stroke-width="5" />
<circle cx="553.1298704204743" cy="495.2351676539178" r="2.5" fill="grey" stroke="none" />
<circle cx="548.6846875" cy="478.1988999999999" r="5" fill="black" stroke="none" />
<circle cx="564.6846875" cy="494.1988999999999" r="5" fill="black" stroke="none" />
<path d="M564.6846875,494.1988999999999 A64.9442958094293,64.9442958094293,0,0,1,562.6837439452963,516.9855763276726" stroke="grey" stroke-width="5" fill="none" />
<path d="M562.6837439452963,516.9855763276726 L96.6846875,26.198899999999924" stroke="grey" stroke-width="5" />
<circle cx="562.6837439452963" cy="516.9855763276726" r="2.5" fill="grey" stroke="none" />
<circle cx="564.6846875" cy="494.1988999999999" r="5" fill="black" stroke="none" />
<circle cx="596.6846875" cy="526.1988999999999" r="5" fill="black" stroke="none" />
<path d="M564.6846875,494.1988999999999 A64.9442958094293,64.9442958094293,0,0,1,510.87858849261056,564.0266965459807" stroke="grey" stroke-width="5" fill="none" />
<path d="M510.87858849261056,564.0266965459807 L16.684687499999995,98.19889999999992" stroke="grey" stroke-width="5" />
<circle cx="510.87858849261056" cy="564.0266965459807" r="2.5" fill="grey" stroke="none" />
<circle cx="564.6846875" cy="494.1988999999999" r="5" fill="black" stroke="none" />
<circle cx="516.6846875" cy="598.1988999999999" r="5" fill="black" stroke="none" />
<path d="M516.6846875,598.1988999999999 A99.60623855051772,99.60623855051772,0,0,1,509.2854781607081,599.1724893985709" stroke="grey" stroke-width="5" fill="none" />
<path d="M509.2854781607082,599.1724893985709 L16.684687499999995,178.19889999999992" stroke="grey" stroke-width="5" />
<circle cx="509.2854781607082" cy="599.1724893985709" r="2.5" fill="grey" stroke="none" />
<circle cx="516.6846875" cy="598.1988999999999" r="5" fill="black" stroke="none" />
<circle cx="516.6846875" cy="678.1988999999999" r="5" fill="black" stroke="none" />
<path d="M412.6846875,694.1988999999999 L426.6054990936585,663.2374772988472" stroke="grey" stroke-width="5" />
<circle cx="426.6054990936585" cy="663.2374772988472" r="2.5" fill="grey" stroke="none" />
<path d="M426.6054990936585,663.2374772988472 A178.9782857169624,178.9782857169624,0,0,0,516.6846875,678.1988999999999" stroke="grey" stroke-width="5" fill="none" />
<circle cx="412.6846875" cy="694.1988999999999" r="5" fill="black" stroke="none" />
<circle cx="516.6846875" cy="678.1988999999999" r="5" fill="black" stroke="none" />
<path d="M516.6846875,678.1988999999999 A178.9782857169624,178.9782857169624,0,0,1,509.9984723506293,678.6987893323185" stroke="grey" stroke-width="5" fill="none" />
<path d="M509.9984723506293,678.6987893323185 L16.684687499999995,298.1988999999999" stroke="grey" stroke-width="5" />
<circle cx="509.9984723506293" cy="678.6987893323185" r="2.5" fill="grey" stroke="none" />
<circle cx="516.6846875" cy="678.1988999999999" r="5" fill="black" stroke="none" />
<circle cx="516.6846875" cy="798.1988999999999" r="5" fill="black" stroke="none" />
<path d="M516.6846875,598.1988999999999 A99.60623855051772,99.60623855051772,0,0,0,569.8828906951501,570.9773509386786" stroke="grey" stroke-width="5" fill="none" />
<path d="M569.8828906951501,570.9773509386786 L96.6846875,98.19889999999992" stroke="grey" stroke-width="5" />
<circle cx="569.8828906951501" cy="570.9773509386786" r="2.5" fill="grey" stroke="none" />
<circle cx="516.6846875" cy="598.1988999999999" r="5" fill="black" stroke="none" />
<circle cx="596.6846875" cy="598.1988999999999" r="5" fill="black" stroke="none" />
<path d="M596.6846875,526.1988999999999 A100.17140888588247,100.17140888588247,0,0,1,570.2794094006567,571.380079661468" stroke="grey" stroke-width="5" fill="none" />
<path d="M570.2794094006567,571.3800796614681 L96.6846875,98.19889999999992" stroke="grey" stroke-width="5" />
<circle cx="570.2794094006567" cy="571.3800796614681" r="2.5" fill="grey" stroke="none" />
<circle cx="596.6846875" cy="526.1988999999999" r="5" fill="black" stroke="none" />
<circle cx="596.6846875" cy="598.1988999999999" r="5" fill="black" stroke="none" />
<path d="M596.6846875,598.1988999999999 A137.8076658179168,137.8076658179168,0,0,0,619.0969189974473,569.3316424405056" stroke="grey" stroke-width="5" fill="none" />
<path d="M619.0969189974473,569.3316424405056 L168.6846875,98.19889999999992" stroke="grey" stroke-width="5" />
<circle cx="619.0969189974473" cy="569.3316424405056" r="2.5" fill="grey" stroke="none" />
<circle cx="596.6846875" cy="598.1988999999999" r="5" fill="black" stroke="none" />
<circle cx="668.6846875" cy="598.1988999999999" r="5" fill="black" stroke="none" />
<path d="M596.6846875,526.1988999999999 A100.17140888588247,100.17140888588247,0,0,0,598.3805125274579,518.856985788226" stroke="grey" stroke-width="5" fill="none" />
<path d="M598.3805125274579,518.856985788226 L136.6846875,26.198899999999924" stroke="grey" stroke-width="5" />
<circle cx="598.3805125274579" cy="518.856985788226" r="2.5" fill="grey" stroke="none" />
<circle cx="596.6846875" cy="526.1988999999999" r="5" fill="black" stroke="none" />
<circle cx="636.6846875" cy="526.1988999999999" r="5" fill="black" stroke="none" />
<path d="M668.6846875,598.1988999999999 A195.18593125064788,195.18593125064788,0,0,0,690.3543907859412,543.159630057449" stroke="grey" stroke-width="5" fill="none" />
<path d="M690.3543907859412,543.159630057449 L256.6846875,58.198899999999924" stroke="grey" stroke-width="5" />
<circle cx="690.3543907859412" cy="543.159630057449" r="2.5" fill="grey" stroke="none" />
<circle cx="668.6846875" cy="598.1988999999999" r="5" fill="black" stroke="none" />
<circle cx="756.6846875" cy="558.1988999999999" r="5" fill="black" stroke="none" />
<path d="M636.6846875,526.1988999999999 A139.1728643025739,139.1728643025739,0,0,0,638.5705450281,512.9340716248964" stroke="grey" stroke-width="5" fill="none" />
<path d="M638.5705450281,512.9340716248964 L280.6846875,26.198899999999924" stroke="grey" stroke-width="5" />
<circle cx="638.5705450281" cy="512.9340716248964" r="2.5" fill="grey" stroke="none" />
<circle cx="636.6846875" cy="526.1988999999999" r="5" fill="black" stroke="none" />
<circle cx="780.6846875" cy="526.1988999999999" r="5" fill="black" stroke="none" />
<path d="M756.6846875,558.1988999999999 A263.1998114706442,263.1998114706442,0,0,0,762.0607221784817,524.4605529266066" stroke="grey" stroke-width="5" fill="none" />
<path d="M762.0607221784817,524.4605529266066 L280.6846875,26.198899999999924" stroke="grey" stroke-width="5" />
<circle cx="762.0607221784817" cy="524.4605529266066" r="2.5" fill="grey" stroke="none" />
<circle cx="756.6846875" cy="558.1988999999999" r="5" fill="black" stroke="none" />
<circle cx="780.6846875" cy="526.1988999999999" r="5" fill="black" stroke="none" />
<path d="M516.6846875,678.1988999999999 A178.9782857169624,178.9782857169624,0,0,0,608.9289229097935,642.0130857065463" stroke="grey" stroke-width="5" fill="none" />
<path d="M608.9289229097935,642.0130857065463 L136.6846875,178.19889999999992" stroke="grey" stroke-width="5" />
<circle cx="608.9289229097935" cy="642.0130857065463" r="2.5" fill="grey" stroke="none" />
<circle cx="516.6846875" cy="678.1988999999999" r="5" fill="black" stroke="none" />
<circle cx="636.6846875" cy="678.1988999999999" r="5" fill="black" stroke="none" />
<path d="M636.6846875,678.1989 A224.58306204650125,224.58306204650125,0,0,0,711.7582570493491,574.806365568743" stroke="grey" stroke-width="5" fill="none" />
<path d="M711.7582570493491,574.806365568743 L232.6846875,82.19889999999992" stroke="grey" stroke-width="5" />
<circle cx="711.7582570493491" cy="574.806365568743" r="2.5" fill="grey" stroke="none" />
<circle cx="636.6846875" cy="678.1988999999999" r="5" fill="black" stroke="none" />
<circle cx="732.6846875" cy="582.1988999999999" r="5" fill="black" stroke="none" />
<path d="M732.6846875,582.1988999999999 A246.77686876646814,246.77686876646814,0,0,0,740.6682705721254,554.5674490699803" stroke="grey" stroke-width="5" fill="none" />
<path d="M740.6682705721254,554.5674490699803 L256.6846875,58.198899999999924" stroke="grey" stroke-width="5" />
<circle cx="740.6682705721254" cy="554.5674490699803" r="2.5" fill="grey" stroke="none" />
<circle cx="732.6846875" cy="582.1988999999999" r="5" fill="black" stroke="none" />
<circle cx="756.6846875" cy="558.1988999999999" r="5" fill="black" stroke="none" />
<path d="M756.6846875,558.1988999999999 A263.1998114706442,263.1998114706442,0,0,1,750.6608992585425,580.269884396836" stroke="grey" stroke-width="5" fill="none" />
<path d="M750.6608992585425,580.2698843968361 L256.6846875,82.19889999999992" stroke="grey" stroke-width="5" />
<circle cx="750.6608992585425" cy="580.2698843968361" r="2.5" fill="grey" stroke="none" />
<circle cx="756.6846875" cy="558.1988999999999" r="5" fill="black" stroke="none" />
<circle cx="756.6846875" cy="582.1988999999999" r="5" fill="black" stroke="none" />
<path d="M756.6846875,582.1988999999999 A269.52493012369496,269.52493012369496,0,0,1,690.0216019935751,691.1425612833991" stroke="grey" stroke-width="5" fill="none" />
<path d="M690.0216019935751,691.1425612833991 L256.6846875,258.1988999999999" stroke="grey" stroke-width="5" />
<circle cx="690.0216019935751" cy="691.1425612833991" r="2.5" fill="grey" stroke="none" />
<circle cx="756.6846875" cy="582.1988999999999" r="5" fill="black" stroke="none" />
<circle cx="756.6846875" cy="758.1988999999999" r="5" fill="black" stroke="none" />
<path d="M756.6846875,758.1988999999999 A364.0792506559288,364.0792506559288,0,0,0,793.7686310497319,715.066715624127" stroke="grey" stroke-width="5" fill="none" />
<path d="M793.7686310497319,715.066715624127 L352.6846875,258.1988999999999" stroke="grey" stroke-width="5" />
<circle cx="793.7686310497319" cy="715.066715624127" r="2.5" fill="grey" stroke="none" />
<circle cx="756.6846875" cy="758.1988999999999" r="5" fill="black" stroke="none" />
<circle cx="852.6846875" cy="758.1988999999999" r="5" fill="black" stroke="none" />
<path d="M756.6846875,758.1988999999999 A364.0792506559288,364.0792506559288,0,0,1,733.8936914904589,779.0115442757676" stroke="grey" stroke-width="5" fill="none" />
<path d="M733.8936914904589,779.0115442757676 L256.6846875,306.1988999999999" stroke="grey" stroke-width="5" />
<circle cx="733.8936914904589" cy="779.0115442757676" r="2.5" fill="grey" stroke="none" />
<circle cx="756.6846875" cy="758.1988999999999" r="5" fill="black" stroke="none" />
<circle cx="756.6846875" cy="806.1988999999999" r="5" fill="black" stroke="none" />
<path d="M444.6846875,382.1988999999999 A130.14178021751,130.14178021751,0,0,1,598.5815684021724,415.037906513843" stroke="grey" stroke-width="5" fill="none" />
<path d="M598.5815684021724,415.037906513843 L136.6846875,-117.80110000000008" stroke="grey" stroke-width="5" />
<circle cx="598.5815684021724" cy="415.037906513843" r="2.5" fill="grey" stroke="none" />
<circle cx="444.6846875" cy="382.1988999999999" r="5" fill="black" stroke="none" />
<circle cx="636.6846875" cy="382.1988999999999" r="5" fill="black" stroke="none" />
<path d="M636.6846875,382.1988999999999 L605.4225569916132,409.1420304236732" stroke="grey" stroke-width="5" />
<circle cx="605.4225569916132" cy="409.1420304236732" r="2.5" fill="grey" stroke="none" />
<path d="M605.4225569916132,409.1420304236732 A139.1728643025739,139.1728643025739,0,0,1,636.6846875,526.1988999999999" stroke="grey" stroke-width="5" fill="none" />
<circle cx="636.6846875" cy="382.1988999999999" r="5" fill="black" stroke="none" />
<circle cx="636.6846875" cy="526.1988999999999" r="5" fill="black" stroke="none" />
<path d="M636.6846875,382.1988999999999 A180.4433511054998,180.4433511054998,0,0,0,602.5809826861177,351.5515411015221" stroke="grey" stroke-width="5" fill="none" />
<path d="M602.5809826861177,351.55154110152205 L136.6846875,-197.80110000000008" stroke="grey" stroke-width="5" />
<circle cx="602.5809826861177" cy="351.55154110152205" r="2.5" fill="grey" stroke="none" />
<circle cx="636.6846875" cy="382.1988999999999" r="5" fill="black" stroke="none" />
<circle cx="636.6846875" cy="302.1988999999999" r="5" fill="black" stroke="none" />
<path d="M636.6846875000001,302.1989 A240.43289907619277,240.43289907619277,0,0,0,614.0037796104193,288.31363484456153" stroke="grey" stroke-width="5" fill="none" />
<path d="M614.0037796104193,288.31363484456153 L136.6846875,-253.80110000000008" stroke="grey" stroke-width="5" />
<circle cx="614.0037796104193" cy="288.31363484456153" r="2.5" fill="grey" stroke="none" />
<circle cx="636.6846875" cy="302.1988999999999" r="5" fill="black" stroke="none" />
<circle cx="636.6846875" cy="246.19889999999992" r="5" fill="black" stroke="none" />
<path d="M636.6846875000001,302.1989 A240.43289907619277,240.43289907619277,0,0,1,720.2738254870275,403.62873476241344" stroke="grey" stroke-width="5" fill="none" />
<path d="M720.2738254870275,403.6287347624134 L232.6846875,-101.80110000000008" stroke="grey" stroke-width="5" />
<circle cx="720.2738254870275" cy="403.6287347624134" r="2.5" fill="grey" stroke="none" />
<circle cx="636.6846875" cy="302.1988999999999" r="5" fill="black" stroke="none" />
<circle cx="732.6846875" cy="398.1988999999999" r="5" fill="black" stroke="none" />
<path d="M636.6846875,382.1988999999999 A180.4433511054998,180.4433511054998,0,0,1,665.3140954687385,427.6739825682659" stroke="grey" stroke-width="5" fill="none" />
<path d="M665.3140954687385,427.6739825682659 L232.6846875,-101.80110000000008" stroke="grey" stroke-width="5" />
<circle cx="665.3140954687385" cy="427.6739825682659" r="2.5" fill="grey" stroke="none" />
<circle cx="636.6846875" cy="382.1988999999999" r="5" fill="black" stroke="none" />
<circle cx="732.6846875" cy="398.1988999999999" r="5" fill="black" stroke="none" />
<path d="M732.6846875,398.1988999999999 A253.97958138043828,253.97958138043828,0,0,1,752.5600563843572,473.18497291977894" stroke="grey" stroke-width="5" fill="none" />
<path d="M752.5600563843572,473.18497291977894 L280.6846875,-29.801100000000076" stroke="grey" stroke-width="5" />
<circle cx="752.5600563843572" cy="473.18497291977894" r="2.5" fill="grey" stroke="none" />
<circle cx="732.6846875" cy="398.1988999999999" r="5" fill="black" stroke="none" />
<circle cx="780.6846875" cy="470.1988999999999" r="5" fill="black" stroke="none" />
<path d="M732.6846875,582.1988999999999 A246.77686876646814,246.77686876646814,0,0,0,735.0203501118748,575.2612648809095" stroke="grey" stroke-width="5" fill="none" />
<path d="M735.0203501118748,575.2612648809095 L256.6846875,82.19889999999992" stroke="grey" stroke-width="5" />
<circle cx="735.0203501118748" cy="575.2612648809095" r="2.5" fill="grey" stroke="none" />
<circle cx="732.6846875" cy="582.1988999999999" r="5" fill="black" stroke="none" />
<circle cx="756.6846875" cy="582.1988999999999" r="5" fill="black" stroke="none" />
<path d="M756.6846875,582.1988999999999 A269.52493012369496,269.52493012369496,0,0,0,758.6614073462548,575.7493518641413" stroke="grey" stroke-width="5" fill="none" />
<path d="M758.6614073462548,575.7493518641413 L280.6846875,82.19889999999992" stroke="grey" stroke-width="5" />
<circle cx="758.6614073462548" cy="575.7493518641413" r="2.5" fill="grey" stroke="none" />
<circle cx="756.6846875" cy="582.1988999999999" r="5" fill="black" stroke="none" />
<circle cx="780.6846875" cy="582.1988999999999" r="5" fill="black" stroke="none" />
<path d="M780.6846875,582.1988999999999 L770.5422235824933,579.2286653757519" stroke="grey" stroke-width="5" />
<circle cx="770.5422235824933" cy="579.2286653757519" r="2.5" fill="grey" stroke="none" />
<path d="M770.5422235824933,579.2286653757519 A281.9047288680746,281.9047288680746,0,0,0,780.6846875,526.1989" stroke="grey" stroke-width="5" fill="none" />
<circle cx="780.6846875" cy="582.1988999999999" r="5" fill="black" stroke="none" />
<circle cx="780.6846875" cy="526.1988999999999" r="5" fill="black" stroke="none" />
<path d="M780.6846875,526.1988999999999 L779.6543560613002,526.1027296297179" stroke="grey" stroke-width="5" />
<circle cx="779.6543560613002" cy="526.1027296297179" r="2.5" fill="grey" stroke="none" />
<path d="M779.6543560613002,526.1027296297179 A280.86991892721915,280.86991892721915,0,0,0,780.6846875,510.1988999999999" stroke="grey" stroke-width="5" fill="none" />
<circle cx="780.6846875" cy="526.1988999999999" r="5" fill="black" stroke="none" />
<circle cx="780.6846875" cy="510.1988999999999" r="5" fill="black" stroke="none" />
<path d="M780.6846875,510.1988999999999 L780.5594799260855,510.1943504838259" stroke="grey" stroke-width="5" />
<circle cx="780.5594799260855" cy="510.1943504838259" r="2.5" fill="grey" stroke="none" />
<path d="M780.5594799260855,510.1943504838259 A280.7446287254356,280.7446287254356,0,0,0,780.6846875,494.1988999999999" stroke="grey" stroke-width="5" fill="none" />
<circle cx="780.6846875" cy="510.1988999999999" r="5" fill="black" stroke="none" />
<circle cx="780.6846875" cy="494.1988999999999" r="5" fill="black" stroke="none" />
<path d="M780.6846875,494.1988999999999 A280.7446287254356,280.7446287254356,0,0,0,779.1755103899175,470.35913367136925" stroke="grey" stroke-width="5" fill="none" />
<path d="M779.1755103899175,470.35913367136925 L280.6846875,-29.801100000000076" stroke="grey" stroke-width="5" />
<circle cx="779.1755103899175" cy="470.35913367136925" r="2.5" fill="grey" stroke="none" />
<circle cx="780.6846875" cy="494.1988999999999" r="5" fill="black" stroke="none" />
<circle cx="780.6846875" cy="470.1988999999999" r="5" fill="black" stroke="none" />
<path d="M780.6846875,470.1988999999999 A282.2622882323862,282.2622882323862,0,0,1,781.1092043275767,474.51246185879415" stroke="grey" stroke-width="5" fill="none" />
<path d="M781.1092043275767,474.51246185879415 L328.6846875,-29.801100000000076" stroke="grey" stroke-width="5" />
<circle cx="781.1092043275767" cy="474.51246185879415" r="2.5" fill="grey" stroke="none" />
<circle cx="780.6846875" cy="470.1988999999999" r="5" fill="black" stroke="none" />
<circle cx="828.6846875" cy="470.1988999999999" r="5" fill="black" stroke="none" />
<path d="M828.6846875,470.1988999999999 L827.499509841768,470.30635738774555" stroke="grey" stroke-width="5" />
<circle cx="827.499509841768" cy="470.30635738774555" r="2.5" fill="grey" stroke="none" />
<path d="M827.499509841768,470.30635738774555 A328.8428824806501,328.8428824806501,0,0,1,828.6846875,510.1988999999999" stroke="grey" stroke-width="5" fill="none" />
<circle cx="828.6846875" cy="470.1988999999999" r="5" fill="black" stroke="none" />
<circle cx="828.6846875" cy="510.1988999999999" r="5" fill="black" stroke="none" />
<path d="M828.6846875,510.1988999999999 L780.7348020864509,508.7110421686422" stroke="grey" stroke-width="5" />
<circle cx="780.7348020864509" cy="508.7110421686422" r="2.5" fill="grey" stroke="none" />
<path d="M780.7348020864509,508.7110421686422 A280.86991892721915,280.86991892721915,0,0,1,780.6846875,510.1988999999999" stroke="grey" stroke-width="5" fill="none" />
<circle cx="828.6846875" cy="510.1988999999999" r="5" fill="black" stroke="none" />
<circle cx="780.6846875" cy="510.1988999999999" r="5" fill="black" stroke="none" />
<path d="M780.6846875,494.1988999999999 A280.7446287254356,280.7446287254356,0,0,1,780.7083240543982,495.4852060120462" stroke="grey" stroke-width="5" fill="none" />
<path d="M780.7083240543982,495.4852060120462 L360.6846875,-5.801100000000076" stroke="grey" stroke-width="5" />
<circle cx="780.7083240543982" cy="495.4852060120462" r="2.5" fill="grey" stroke="none" />
<circle cx="780.6846875" cy="494.1988999999999" r="5" fill="black" stroke="none" />
<circle cx="860.6846875" cy="494.1988999999999" r="5" fill="black" stroke="none" />
<circle cx="500" cy="500" r="5" fill="red" stroke="none" />
</svg>