<?xml version="1.0" encoding="UTF-8"?>
<svg xmlns="http://www.w3.org/2000/svg" xmlns:xlink="http://www.w3.org/1999/xlink"
     width="1000" height="1000" viewBox="0 0 1000 1000">
<defs>
</defs>
<rect x="0" y="0" width="1000" height="1000" fill="white" />
<path d="M413.58335200000005,295.94860544000005 L446.04400144277673,372.5963456661874" stroke="grey" stroke-width="5" />
<circle cx="446.04400144277673" cy="372.5963456661874" r="2.5" fill="grey" stroke="none" />
<path d="M446.04400144277673,372.5963456661874 A138.35801717976693,138.35801717976693,0,0,0,413.583352,391.94860544000005" stroke="grey" stroke-width="5" fill="none" />
<circle cx="413.58335200000005" cy="295.94860544000005" r="5" fill="black" stroke="none" />
<circle cx="413.58335200000005" cy="391.94860544000005" r="5" fill="black" stroke="none" />
<path d="M413.58335200000005,391.94860544000005 L464.6026320621009,455.74076224938244" stroke="grey" stroke-width="5" />
<circle cx="464.6026320621009" cy="455.74076224938244" r="2.5" fill="grey" stroke="none" />
<path d="M464.6026320621009,455.74076224938244 A56.67321927680388,56.67321927680388,0,0,1,477.58335200000005,447.94860544000005" stroke="grey" stroke-width="5" fill="none" />
<circle cx="413.58335200000005" cy="391.94860544000005" r="5" fill="black" stroke="none" />
<circle cx="477.58335200000005" cy="447.94860544000005" r="5" fill="black" stroke="none" />
<path d="M389.58335200000005,447.94860544000005 L448.73723166147175,475.8342729166474" stroke="grey" stroke-width="5" />
<circle cx="448.73723166147175" cy="475.8342729166474" r="2.5" fill="grey" stroke="none" />
<path d="M448.73723166147175,475.8342729166474 A56.67321927680388,56.67321927680388,0,0,1,477.58335200000005,447.94860544000005" stroke="grey" stroke-width="5" fill="none" />
<circle cx="389.58335200000005" cy="447.94860544000005" r="5" fill="black" stroke="none" />
<circle cx="477.58335200000005" cy="447.94860544000005" r="5" fill="black" stroke="none" />
<path d="M477.58335200000005,447.94860544000005 L478.8447156065144,450.87748824024317" stroke="grey" stroke-width="5" />
<circle cx="478.8447156065144" cy="450.87748824024317" r="2.5" fill="grey" stroke="none" />
<path d="M478.8447156065144,450.87748824024317 A53.48427076586819,53.48427076586819,0,0,1,549.583352,479.94860544000005" stroke="grey" stroke-width="5" fill="none" />
<circle cx="477.58335200000005" cy="447.94860544000005" r="5" fill="black" stroke="none" />
<circle cx="549.5833520000001" cy="479.94860544000005" r="5" fill="black" stroke="none" />
<path d="M549.583352,479.94860544000005 A53.48427076586819,53.48427076586819,0,0,1,553.3825107598835,496.7023092431791" stroke="grey" stroke-width="5" fill="none" />
<path d="M553.3825107598835,496.7023092431791 L565.583352,495.94860544000005" stroke="grey" stroke-width="5" />
<circle cx="553.3825107598835" cy="496.7023092431791" r="2.5" fill="grey" stroke="none" />
<circle cx="549.5833520000001" cy="479.94860544000005" r="5" fill="black" stroke="none" />
<circle cx="565.5833520000001" cy="495.94860544000005" r="5" fill="black" stroke="none" />
<path d="M565.583352,495.94860544000005 A65.70836976699928,65.70836976699928,0,0,1,563.168590851326,518.0919591889456" stroke="grey" stroke-width="5" fill="none" />
<path d="M563.168590851326,518.0919591889456 L597.583352,527.94860544" stroke="grey" stroke-width="5" />
<circle cx="563.168590851326" cy="518.0919591889456" r="2.5" fill="grey" stroke="none" />
<circle cx="565.5833520000001" cy="495.94860544000005" r="5" fill="black" stroke="none" />
<circle cx="597.5833520000001" cy="527.94860544" r="5" fill="black" stroke="none" />
<path d="M565.583352,495.94860544000005 A65.70836976699928,65.70836976699928,0,0,1,511.3848413843757,564.714567479736" stroke="grey" stroke-width="5" fill="none" />
<path d="M511.3848413843757,564.714567479736 L517.583352,599.94860544" stroke="grey" stroke-width="5" />
<circle cx="511.3848413843757" cy="564.714567479736" r="2.5" fill="grey" stroke="none" />
<circle cx="565.5833520000001" cy="495.94860544000005" r="5" fill="black" stroke="none" />
<circle cx="517.5833520000001" cy="599.94860544" r="5" fill="black" stroke="none" />
<path d="M517.583352,599.94860544 A101.48348632638077,101.48348632638077,0,0,1,509.86927170797463,601.002452806409" stroke="grey" stroke-width="5" fill="none" />
<path d="M509.86927170797463,601.002452806409 L517.583352,679.94860544" stroke="grey" stroke-width="5" />
<circle cx="509.86927170797463" cy="601.002452806409" r="2.5" fill="grey" stroke="none" />
<circle cx="517.5833520000001" cy="599.94860544" r="5" fill="black" stroke="none" />
<circle cx="517.5833520000001" cy="679.94860544" r="5" fill="black" stroke="none" />
<path d="M413.58335200000005,695.94860544 L427.04167602217245,665.432033868" stroke="grey" stroke-width="5" />
<circle cx="427.04167602217245" cy="665.432033868" r="2.5" fill="grey" stroke="none" />
<path d="M427.04167602217245,665.432033868 A180.80562731108984,180.80562731108984,0,0,0,517.583352,679.94860544" stroke="grey" stroke-width="5" fill="none" />
<circle cx="413.58335200000005" cy="695.94860544" r="5" fill="black" stroke="none" />
<circle cx="517.5833520000001" cy="679.94860544" r="5" fill="black" stroke="none" />
<path d="M517.583352,679.94860544 A180.80562731108984,180.80562731108984,0,0,1,510.58088101351,680.4957612364751" stroke="grey" stroke-width="5" fill="none" />
<path d="M510.58088101351,680.4957612364751 L517.583352,799.94860544" stroke="grey" stroke-width="5" />
<circle cx="510.58088101351" cy="680.4957612364751" r="2.5" fill="grey" stroke="none" />
<circle cx="517.5833520000001" cy="679.94860544" r="5" fill="black" stroke="none" />
<circle cx="517.5833520000001" cy="799.94860544" r="5" fill="black" stroke="none" />
<path d="M517.583352,599.94860544 A101.48348632638077,101.48348632638077,0,0,0,570.895326863522,572.6137082503785" stroke="grey" stroke-width="5" fill="none" />
<path d="M570.895326863522,572.6137082503785 L597.583352,599.94860544" stroke="grey" stroke-width="5" />
<circle cx="570.895326863522" cy="572.6137082503785" r="2.5" fill="grey" stroke="none" />
<circle cx="517.5833520000001" cy="599.94860544" r="5" fill="black" stroke="none" />
<circle cx="597.5833520000001" cy="599.94860544" r="5" fill="black" stroke="none" />
<path d="M597.583352,527.94860544 A101.50682308887768,101.50682308887768,0,0,1,570.9116296874104,572.6304062268159" stroke="grey" stroke-width="5" fill="none" />
<path d="M570.9116296874104,572.6304062268159 L597.583352,599.94860544" stroke="grey" stroke-width="5" />
<circle cx="570.9116296874104" cy="572.6304062268159" r="2.5" fill="grey" stroke="none" />
<circle cx="597.5833520000001" cy="527.94860544" r="5" fill="black" stroke="none" />
<circle cx="597.5833520000001" cy="599.94860544" r="5" fill="black" stroke="none" />
<path d="M597.583352,599.94860544 A139.686199450614,139.686199450614,0,0,0,620.3402038758652,570.9258038239391" stroke="grey" stroke-width="5" fill="none" />
<path d="M620.3402038758652,570.9258038239391 L669.5833520000001,599.94860544" stroke="grey" stroke-width="5" />
<circle cx="620.3402038758652" cy="570.9258038239391" r="2.5" fill="grey" stroke="none" />
<circle cx="597.5833520000001" cy="599.94860544" r="5" fill="black" stroke="none" />
<circle cx="669.5833520000001" cy="599.94860544" r="5" fill="black" stroke="none" />
<path d="M597.583352,527.94860544 A101.50682308887768,101.50682308887768,0,0,0,599.4751192061192,520.2073202707606" stroke="grey" stroke-width="5" fill="none" />
<path d="M599.4751192061192,520.2073202707606 L637.5833520000001,527.94860544" stroke="grey" stroke-width="5" />
<circle cx="599.4751192061192" cy="520.2073202707606" r="2.5" fill="grey" stroke="none" />
<circle cx="597.5833520000001" cy="527.94860544" r="5" fill="black" stroke="none" />
<circle cx="637.5833520000001" cy="527.94860544" r="5" fill="black" stroke="none" />
<path d="M669.5833520000001,599.94860544 A196.84571878747255,196.84571878747255,0,0,0,691.7218357013169,544.6203397597325" stroke="grey" stroke-width="5" fill="none" />
<path d="M691.7218357013169,544.6203397597325 L757.5833520000001,559.94860544" stroke="grey" stroke-width="5" />
<circle cx="691.7218357013169" cy="544.6203397597325" r="2.5" fill="grey" stroke="none" />
<circle cx="669.5833520000001" cy="599.94860544" r="5" fill="black" stroke="none" />
<circle cx="757.5833520000001" cy="559.94860544" r="5" fill="black" stroke="none" />
<path d="M637.5833520000001,527.94860544 A140.39338764199942,140.39338764199942,0,0,0,639.7069066373634,513.866633744919" stroke="grey" stroke-width="5" fill="none" />
<path d="M639.7069066373634,513.866633744919 L781.5833520000001,527.94860544" stroke="grey" stroke-width="5" />
<circle cx="639.7069066373634" cy="513.866633744919" r="2.5" fill="grey" stroke="none" />
<circle cx="637.5833520000001" cy="527.94860544" r="5" fill="black" stroke="none" />
<circle cx="781.5833520000001" cy="527.94860544" r="5" fill="black" stroke="none" />
<path d="M757.583352,559.94860544 A264.4674243111176,264.4674243111176,0,0,0,763.1742589691889,526.1214076530144" stroke="grey" stroke-width="5" fill="none" />
<path d="M763.1742589691889,526.1214076530144 L781.5833520000001,527.94860544" stroke="grey" stroke-width="5" />
<circle cx="763.1742589691889" cy="526.1214076530144" r="2.5" fill="grey" stroke="none" />
<circle cx="757.5833520000001" cy="559.94860544" r="5" fill="black" stroke="none" />
<circle cx="781.5833520000001" cy="527.94860544" r="5" fill="black" stroke="none" />
<path d="M517.583352,679.94860544 A180.80562731108984,180.80562731108984,0,0,0,609.8181054001332,643.633765506868" stroke="grey" stroke-width="5" fill="none" />
<path d="M609.8181054001332,643.633765506868 L637.5833520000001,679.94860544" stroke="grey" stroke-width="5" />
<circle cx="609.8181054001332" cy="643.633765506868" r="2.5" fill="grey" stroke="none" />
<circle cx="517.5833520000001" cy="679.94860544" r="5" fill="black" stroke="none" />
<circle cx="637.5833520000001" cy="679.94860544" r="5" fill="black" stroke="none" />
<path d="M637.5833520000001,679.94860544 A226.51860706652056,226.51860706652056,0,0,0,713.1696011441462,576.6120127356171" stroke="grey" stroke-width="5" fill="none" />
<path d="M713.1696011441462,576.612012735617 L733.5833520000001,583.94860544" stroke="grey" stroke-width="5" />
<circle cx="713.1696011441462" cy="576.612012735617" r="2.5" fill="grey" stroke="none" />
<circle cx="637.5833520000001" cy="679.94860544" r="5" fill="black" stroke="none" />
<circle cx="733.5833520000001" cy="583.94860544" r="5" fill="black" stroke="none" />
<path d="M733.5833520000001,583.94860544 A248.21069817168785,248.21069817168785,0,0,0,741.7497875356892,556.2635842559455" stroke="grey" stroke-width="5" fill="none" />
<path d="M741.7497875356892,556.2635842559455 L757.5833520000001,559.94860544" stroke="grey" stroke-width="5" />
<circle cx="741.7497875356892" cy="556.2635842559455" r="2.5" fill="grey" stroke="none" />
<circle cx="733.5833520000001" cy="583.94860544" r="5" fill="black" stroke="none" />
<circle cx="757.5833520000001" cy="559.94860544" r="5" fill="black" stroke="none" />
<path d="M757.583352,559.94860544 A264.4674243111176,264.4674243111176,0,0,1,751.4502942555856,581.9497897528489" stroke="grey" stroke-width="5" fill="none" />
<path d="M751.4502942555856,581.9497897528489 L757.5833520000001,583.94860544" stroke="grey" stroke-width="5" />
<circle cx="751.4502942555856" cy="581.9497897528489" r="2.5" fill="grey" stroke="none" />
<circle cx="757.5833520000001" cy="559.94860544" r="5" fill="black" stroke="none" />
<circle cx="757.5833520000001" cy="583.94860544" r="5" fill="black" stroke="none" />
<path d="M757.5833520000001,583.94860544 A270.9179794381996,270.9179794381996,0,0,1,690.690434423868,692.4414451258181" stroke="grey" stroke-width="5" fill="none" />
<path d="M690.690434423868,692.4414451258181 L757.5833520000001,759.94860544" stroke="grey" stroke-width="5" />
<circle cx="690.690434423868" cy="692.4414451258181" r="2.5" fill="grey" stroke="none" />
<circle cx="757.5833520000001" cy="583.94860544" r="5" fill="black" stroke="none" />
<circle cx="757.5833520000001" cy="759.94860544" r="5" fill="black" stroke="none" />
<path d="M757.5833520000001,759.94860544 A365.95417841275804,365.95417841275804,0,0,0,794.846935872142,716.766568235431" stroke="grey" stroke-width="5" fill="none" />
<path d="M794.846935872142,716.766568235431 L853.5833520000001,759.94860544" stroke="grey" stroke-width="5" />
<circle cx="794.846935872142" cy="716.766568235431" r="2.5" fill="grey" stroke="none" />
<circle cx="757.5833520000001" cy="759.94860544" r="5" fill="black" stroke="none" />
<circle cx="853.5833520000001" cy="759.94860544" r="5" fill="black" stroke="none" />
<path d="M757.5833520000001,759.94860544 A365.95417841275804,365.95417841275804,0,0,1,734.7939315621409,780.7031713382473" stroke="grey" stroke-width="5" fill="none" />
<path d="M734.7939315621409,780.7031713382473 L757.5833520000001,807.94860544" stroke="grey" stroke-width="5" />
<circle cx="734.7939315621409" cy="780.7031713382473" r="2.5" fill="grey" stroke="none" />
<circle cx="757.5833520000001" cy="759.94860544" r="5" fill="black" stroke="none" />
<circle cx="757.5833520000001" cy="807.94860544" r="5" fill="black" stroke="none" />
<path d="M445.583352,383.94860544000005 A128.17604206276883,128.17604206276883,0,0,1,597.9759857822788,417.357371962967" stroke="grey" stroke-width="5" fill="none" />
<path d="M597.9759857822788,417.357371962967 L637.5833520000001,383.94860544000005" stroke="grey" stroke-width="5" />
<circle cx="597.9759857822788" cy="417.357371962967" r="2.5" fill="grey" stroke="none" />
<circle cx="445.58335200000005" cy="383.94860544000005" r="5" fill="black" stroke="none" />
<circle cx="637.5833520000001" cy="383.94860544000005" r="5" fill="black" stroke="none" />
<path d="M637.5833520000001,383.94860544000005 L607.3147550054828,409.48013117712816" stroke="grey" stroke-width="5" />
<circle cx="607.3147550054828" cy="409.48013117712816" r="2.5" fill="grey" stroke="none" />
<path d="M607.3147550054828,409.48013117712816 A140.39338764199942,140.39338764199942,0,0,1,637.5833520000001,527.94860544" stroke="grey" stroke-width="5" fill="none" />
<circle cx="637.5833520000001" cy="383.94860544000005" r="5" fill="black" stroke="none" />
<circle cx="637.5833520000001" cy="527.94860544" r="5" fill="black" stroke="none" />
<path d="M637.5833520000001,383.94860544000005 A179.9919579505615,179.9919579505615,0,0,0,603.3937403623769,352.66758883139767" stroke="grey" stroke-width="5" fill="none" />
<path d="M603.3937403623769,352.66758883139767 L637.5833520000001,303.94860544000005" stroke="grey" stroke-width="5" />
<circle cx="603.3937403623769" cy="352.66758883139767" r="2.5" fill="grey" stroke="none" />
<circle cx="637.5833520000001" cy="383.94860544000005" r="5" fill="black" stroke="none" />
<circle cx="637.5833520000001" cy="303.94860544000005" r="5" fill="black" stroke="none" />
<path d="M637.5833520000001,303.94860544000005 A239.51060113589273,239.51060113589273,0,0,0,614.7549354994138,289.7700477215435" stroke="grey" stroke-width="5" fill="none" />
<path d="M614.7549354994138,289.7700477215435 L637.5833520000001,247.94860544000005" stroke="grey" stroke-width="5" />
<circle cx="614.7549354994138" cy="289.7700477215435" r="2.5" fill="grey" stroke="none" />
<circle cx="637.5833520000001" cy="303.94860544000005" r="5" fill="black" stroke="none" />
<circle cx="637.5833520000001" cy="247.94860544000005" r="5" fill="black" stroke="none" />
<path d="M637.5833520000001,303.94860544000005 A239.51060113589273,239.51060113589273,0,0,1,720.1640020405788,405.6965522265877" stroke="grey" stroke-width="5" fill="none" />
<path d="M720.1640020405788,405.6965522265877 L733.5833520000001,399.94860544000005" stroke="grey" stroke-width="5" />
<circle cx="720.1640020405788" cy="405.6965522265877" r="2.5" fill="grey" stroke="none" />
<circle cx="637.5833520000001" cy="303.94860544000005" r="5" fill="black" stroke="none" />
<circle cx="733.5833520000001" cy="399.94860544000005" r="5" fill="black" stroke="none" />
<path d="M637.5833520000001,383.94860544000005 A179.9919579505615,179.9919579505615,0,0,1,665.4530096353913,429.1310608978246" stroke="grey" stroke-width="5" fill="none" />
<path d="M665.4530096353913,429.1310608978246 L733.5833520000001,399.94860544000005" stroke="grey" stroke-width="5" />
<circle cx="665.4530096353913" cy="429.1310608978246" r="2.5" fill="grey" stroke="none" />
<circle cx="637.5833520000001" cy="383.94860544000005" r="5" fill="black" stroke="none" />
<circle cx="733.5833520000001" cy="399.94860544000005" r="5" fill="black" stroke="none" />
<path d="M733.5833520000001,399.94860544000005 A254.1091574205005,254.1091574205005,0,0,1,752.8575521554516,474.81027584688906" stroke="grey" stroke-width="5" fill="none" />
<path d="M752.8575521554516,474.81027584688906 L781.5833520000001,471.94860544000005" stroke="grey" stroke-width="5" />
<circle cx="752.8575521554516" cy="474.81027584688906" r="2.5" fill="grey" stroke="none" />
<circle cx="733.5833520000001" cy="399.94860544000005" r="5" fill="black" stroke="none" />
<circle cx="781.5833520000001" cy="471.94860544000005" r="5" fill="black" stroke="none" />
<path d="M733.5833520000001,583.94860544 A248.21069817168785,248.21069817168785,0,0,0,735.9937268464241,576.9123629594882" stroke="grey" stroke-width="5" fill="none" />
<path d="M735.9937268464241,576.9123629594882 L757.5833520000001,583.94860544" stroke="grey" stroke-width="5" />
<circle cx="735.9937268464241" cy="576.9123629594882" r="2.5" fill="grey" stroke="none" />
<circle cx="733.5833520000001" cy="583.94860544" r="5" fill="black" stroke="none" />
<circle cx="757.5833520000001" cy="583.94860544" r="5" fill="black" stroke="none" />
<path d="M757.5833520000001,583.94860544 A270.9179794381996,270.9179794381996,0,0,0,759.6255628240376,577.4023172209878" stroke="grey" stroke-width="5" fill="none" />
<path d="M759.6255628240376,577.4023172209878 L781.5833520000001,583.94860544" stroke="grey" stroke-width="5" />
<circle cx="759.6255628240376" cy="577.4023172209878" r="2.5" fill="grey" stroke="none" />
<circle cx="757.5833520000001" cy="583.94860544" r="5" fill="black" stroke="none" />
<circle cx="781.5833520000001" cy="583.94860544" r="5" fill="black" stroke="none" />
<path d="M781.5833520000001,583.94860544 L771.1723310980967,580.8447618366272" stroke="grey" stroke-width="5" />
<circle cx="771.1723310980967" cy="580.8447618366272" r="2.5" fill="grey" stroke="none" />
<path d="M771.1723310980967,580.8447618366272 A282.9669745210503,282.9669745210503,0,0,0,781.5833520000001,527.94860544" stroke="grey" stroke-width="5" fill="none" />
<circle cx="781.5833520000001" cy="583.94860544" r="5" fill="black" stroke="none" />
<circle cx="781.5833520000001" cy="527.94860544" r="5" fill="black" stroke="none" />
<path d="M781.5833520000001,527.94860544 L780.458653306621,527.8369732721291" stroke="grey" stroke-width="5" />
<circle cx="780.458653306621" cy="527.8369732721291" r="2.5" fill="grey" stroke="none" />
<path d="M780.458653306621,527.8369732721291 A281.8367493701216,281.8367493701216,0,0,0,781.5833520000001,511.94860544000005" stroke="grey" stroke-width="5" fill="none" />
<circle cx="781.5833520000001" cy="527.94860544" r="5" fill="black" stroke="none" />
<circle cx="781.5833520000001" cy="511.94860544000005" r="5" fill="black" stroke="none" />
<path d="M781.5833520000001,511.94860544000005 L781.3593002865352,511.93909811116356" stroke="grey" stroke-width="5" />
<circle cx="781.3593002865352" cy="511.93909811116356" r="2.5" fill="grey" stroke="none" />
<path d="M781.3593002865352,511.93909811116356 A281.61249603211274,281.61249603211274,0,0,0,781.5833520000001,495.94860544000005" stroke="grey" stroke-width="5" fill="none" />
<circle cx="781.5833520000001" cy="511.94860544000005" r="5" fill="black" stroke="none" />
<circle cx="781.5833520000001" cy="495.94860544000005" r="5" fill="black" stroke="none" />
<path d="M781.5833520000001,495.94860544000005 A281.61249603211274,281.61249603211274,0,0,0,780.2254240890339,472.0838825128241" stroke="grey" stroke-width="5" fill="none" />
<path d="M780.2254240890339,472.0838825128241 L781.5833520000001,471.94860544000005" stroke="grey" stroke-width="5" />
<circle cx="780.2254240890339" cy="472.0838825128241" r="2.5" fill="grey" stroke="none" />
<circle cx="781.5833520000001" cy="495.94860544000005" r="5" fill="black" stroke="none" />
<circle cx="781.5833520000001" cy="471.94860544000005" r="5" fill="black" stroke="none" />
<path d="M781.5833520000001,471.94860544000005 A282.97714547347584,282.97714547347584,0,0,1,781.9577375072538,476.00210175645987" stroke="grey" stroke-width="5" fill="none" />
<path d="M781.9577375072538,476.00210175645987 L829.5833520000001,471.94860544000005" stroke="grey" stroke-width="5" />
<circle cx="781.9577375072538" cy="476.00210175645987" r="2.5" fill="grey" stroke="none" />
<circle cx="781.5833520000001" cy="471.94860544000005" r="5" fill="black" stroke="none" />
<circle cx="829.5833520000001" cy="471.94860544000005" r="5" fill="black" stroke="none" />
<path d="M829.5833520000001,471.94860544000005 L828.6117872768348,472.03129695103877" stroke="grey" stroke-width="5" />
<circle cx="828.6117872768348" cy="472.03129695103877" r="2.5" fill="grey" stroke="none" />
<path d="M828.6117872768348,472.03129695103877 A329.79987126667703,329.79987126667703,0,0,1,829.5833520000001,511.94860544000005" stroke="grey" stroke-width="5" fill="none" />
<circle cx="829.5833520000001" cy="471.94860544000005" r="5" fill="black" stroke="none" />
<circle cx="829.5833520000001" cy="511.94860544000005" r="5" fill="black" stroke="none" />
<path d="M829.5833520000001,511.94860544000005 L781.6517187148279,510.2109079175254" stroke="grey" stroke-width="5" />
<circle cx="781.6517187148279" cy="510.2109079175254" r="2.5" fill="grey" stroke="none" />
<path d="M781.6517187148279,510.2109079175254 A281.8367493701216,281.8367493701216,0,0,1,781.5833520000001,511.94860544000005" stroke="grey" stroke-width="5" fill="none" />
<circle cx="829.5833520000001" cy="511.94860544000005" r="5" fill="black" stroke="none" />
<circle cx="781.5833520000001" cy="511.94860544000005" r="5" fill="black" stroke="none" />
<path d="M781.5833520000001,495.94860544000005 A281.61249603211274,281.61249603211274,0,0,1,781.594820468743,496.84484443915653" stroke="grey" stroke-width="5" fill="none" />
<path d="M781.594820468743,496.84484443915653 L861.5833520000001,495.94860544000005" stroke="grey" stroke-width="5" />
<circle cx="781.594820468743" cy="496.84484443915653" r="2.5" fill="grey" stroke="none" />
<circle cx="781.5833520000001" cy="495.94860544000005" r="5" fill="black" stroke="none" />
<circle cx="861.5833520000001" cy="495.94860544000005" r="5" fill="black" stroke="none" />
<circle cx="500" cy="500" r="5" fill="red" stroke="none" />
</svg>