<?xml version="1.0" encoding="UTF-8"?>
<svg xmlns="http://www.w3.org/2000/svg" xmlns:xlink="http://www.w3.org/1999/xlink"
     width="1000" height="1000" viewBox="0 0 1000 1000">
<defs>
</defs>
<rect x="0" y="0" width="1000" height="1000" fill="white" />
<path d="M283.339392,251.15649023999998 L325.890369622452,300.0280166011286" stroke="grey" stroke-width="5" />
<circle cx="325.890369622452" cy="300.0280166011286" r="2.5" fill="grey" stroke="none" />
<path d="M325.89036962245206,300.02801660112857 A265.14704888926235,265.14704888926235,0,0,0,283.339392,347.15649024000004" stroke="grey" stroke-width="5" fill="none" />
<circle cx="283.339392" cy="251.15649023999998" r="5" fill="black" stroke="none" />
<circle cx="283.339392" cy="347.15649024" r="5" fill="black" stroke="none" />
<path d="M283.339392,347.15649024 L352.27286571082493,395.78569957883457" stroke="grey" stroke-width="5" />
<circle cx="352.27286571082493" cy="395.78569957883457" r="2.5" fill="grey" stroke="none" />
<path d="M352.27286571082493,395.78569957883457 A180.78696473353628,180.78696473353628,0,0,0,347.339392,403.15649024000004" stroke="grey" stroke-width="5" fill="none" />
<circle cx="283.339392" cy="347.15649024" r="5" fill="black" stroke="none" />
<circle cx="347.339392" cy="403.15649024" r="5" fill="black" stroke="none" />
<path d="M259.339392,403.15649024 L332.2830821829474,432.50954070749765" stroke="grey" stroke-width="5" />
<circle cx="332.2830821829474" cy="432.50954070749765" r="2.5" fill="grey" stroke="none" />
<path d="M332.2830821829474,432.5095407074976 A180.78696473353628,180.78696473353628,0,0,1,347.339392,403.15649024000004" stroke="grey" stroke-width="5" fill="none" />
<circle cx="259.339392" cy="403.15649024" r="5" fill="black" stroke="none" />
<circle cx="347.339392" cy="403.15649024" r="5" fill="black" stroke="none" />
<path d="M347.339392,403.15649024 L412.6081119614022,444.5610935716254" stroke="grey" stroke-width="5" />
<circle cx="412.6081119614022" cy="444.5610935716254" r="2.5" fill="grey" stroke="none" />
<path d="M412.6081119614022,444.5610935716254 A103.4930646996449,103.4930646996449,0,0,1,419.339392,435.15649024" stroke="grey" stroke-width="5" fill="none" />
<circle cx="347.339392" cy="403.15649024" r="5" fill="black" stroke="none" />
<circle cx="419.339392" cy="435.15649024" r="5" fill="black" stroke="none" />
<path d="M419.339392,435.15649024 L436.8427431769958,449.22753124775227" stroke="grey" stroke-width="5" />
<circle cx="436.8427431769958" cy="449.22753124775227" r="2.5" fill="grey" stroke="none" />
<path d="M436.8427431769958,449.22753124775227 A81.03507063367616,81.03507063367616,0,0,0,435.339392,451.15649024" stroke="grey" stroke-width="5" fill="none" />
<circle cx="419.339392" cy="435.15649024" r="5" fill="black" stroke="none" />
<circle cx="435.339392" cy="451.15649024" r="5" fill="black" stroke="none" />
<path d="M435.339392,451.15649024 L470.6774955640117,477.8502851132046" stroke="grey" stroke-width="5" />
<circle cx="470.6774955640117" cy="477.8502851132046" r="2.5" fill="grey" stroke="none" />
<path d="M470.6774955640117,477.8502851132046 A36.74804941714432,36.74804941714432,0,0,0,467.339392,483.15649024" stroke="grey" stroke-width="5" fill="none" />
<circle cx="435.339392" cy="451.15649024" r="5" fill="black" stroke="none" />
<circle cx="467.339392" cy="483.15649024" r="5" fill="black" stroke="none" />
<path d="M435.339392,451.15649024 A81.03507063367616,81.03507063367616,0,0,0,427.21924637688437,535.632072275637" stroke="grey" stroke-width="5" fill="none" />
<path d="M427.21924637688437,535.632072275637 L-112.66060800000002,55.15649023999998" stroke="grey" stroke-width="5" />
<circle cx="427.21924637688437" cy="535.632072275637" r="2.5" fill="grey" stroke="none" />
<circle cx="435.339392" cy="451.15649024" r="5" fill="black" stroke="none" />
<circle cx="387.339392" cy="555.15649024" r="5" fill="black" stroke="none" />
<path d="M387.339392,555.1564902399999 A125.4378372363175,125.4378372363175,0,0,0,419.6839483663207,596.3534268228227" stroke="grey" stroke-width="5" fill="none" />
<path d="M419.6839483663207,596.3534268228227 L-112.66060800000002,135.15649023999998" stroke="grey" stroke-width="5" />
<circle cx="419.6839483663207" cy="596.3534268228227" r="2.5" fill="grey" stroke="none" />
<circle cx="387.339392" cy="555.15649024" r="5" fill="black" stroke="none" />
<circle cx="387.339392" cy="635.15649024" r="5" fill="black" stroke="none" />
<path d="M283.339392,651.15649024 L355.6950150408552,600.6765154585014" stroke="grey" stroke-width="5" />
<circle cx="355.6950150408552" cy="600.6765154585014" r="2.5" fill="grey" stroke="none" />
<path d="M355.6950150408552,600.6765154585014 A175.95365710585523,175.95365710585523,0,0,0,387.339392,635.1564902399999" stroke="grey" stroke-width="5" fill="none" />
<circle cx="283.339392" cy="651.15649024" r="5" fill="black" stroke="none" />
<circle cx="387.339392" cy="635.15649024" r="5" fill="black" stroke="none" />
<path d="M387.339392,635.1564902399999 A175.95365710585523,175.95365710585523,0,0,0,428.929679530689,660.9617935949842" stroke="grey" stroke-width="5" fill="none" />
<path d="M428.929679530689,660.9617935949842 L-112.66060800000002,255.15649023999998" stroke="grey" stroke-width="5" />
<circle cx="428.929679530689" cy="660.9617935949842" r="2.5" fill="grey" stroke="none" />
<circle cx="387.339392" cy="635.15649024" r="5" fill="black" stroke="none" />
<circle cx="387.339392" cy="755.15649024" r="5" fill="black" stroke="none" />
<path d="M387.339392,555.15649024 L442.42828607818336,528.1860157991403" stroke="grey" stroke-width="5" />
<circle cx="442.42828607818336" cy="528.1860157991403" r="2.5" fill="grey" stroke="none" />
<path d="M442.42828607818336,528.1860157991403 A64.10112113313525,64.10112113313525,0,0,0,467.339392,555.15649024" stroke="grey" stroke-width="5" fill="none" />
<circle cx="387.339392" cy="555.15649024" r="5" fill="black" stroke="none" />
<circle cx="467.339392" cy="555.15649024" r="5" fill="black" stroke="none" />
<path d="M467.339392,483.15649024 A36.74804941714432,36.74804941714432,0,0,0,481.27624578850674,531.6202492746731" stroke="grey" stroke-width="5" fill="none" />
<path d="M481.27624578850674,531.6202492746731 L-32.660608000000025,55.15649023999998" stroke="grey" stroke-width="5" />
<circle cx="481.27624578850674" cy="531.6202492746731" r="2.5" fill="grey" stroke="none" />
<circle cx="467.339392" cy="483.15649024" r="5" fill="black" stroke="none" />
<circle cx="467.339392" cy="555.15649024" r="5" fill="black" stroke="none" />
<path d="M467.339392,555.15649024 A64.10112113313525,64.10112113313525,0,0,0,537.2216095914599,552.1872159627798" stroke="grey" stroke-width="5" fill="none" />
<path d="M537.2216095914599,552.1872159627798 L39.339391999999975,55.15649023999998" stroke="grey" stroke-width="5" />
<circle cx="537.2216095914599" cy="552.1872159627798" r="2.5" fill="grey" stroke="none" />
<circle cx="467.339392" cy="555.15649024" r="5" fill="black" stroke="none" />
<circle cx="539.339392" cy="555.15649024" r="5" fill="black" stroke="none" />
<path d="M467.339392,483.15649024 L483.6705252952856,491.57867279860403" stroke="grey" stroke-width="5" />
<circle cx="483.6705252952856" cy="491.57867279860403" r="2.5" fill="grey" stroke="none" />
<path d="M483.6705252952856,491.57867279860403 A18.373091627836605,18.373091627836605,0,0,1,507.339392,483.15649024" stroke="grey" stroke-width="5" fill="none" />
<circle cx="467.339392" cy="483.15649024" r="5" fill="black" stroke="none" />
<circle cx="507.339392" cy="483.15649024" r="5" fill="black" stroke="none" />
<path d="M539.339392,555.15649024 A67.74825590762374,67.74825590762374,0,0,0,567.2734073308338,508.0071745718821" stroke="grey" stroke-width="5" fill="none" />
<path d="M567.2734073308338,508.0071745718821 L127.33939199999998,15.156490239999982" stroke="grey" stroke-width="5" />
<circle cx="567.2734073308338" cy="508.0071745718821" r="2.5" fill="grey" stroke="none" />
<circle cx="539.339392" cy="555.15649024" r="5" fill="black" stroke="none" />
<circle cx="627.339392" cy="515.15649024" r="5" fill="black" stroke="none" />
<path d="M507.339392,483.15649024 A18.373091627836605,18.373091627836605,0,0,1,518.2603455275975,497.96769166275584" stroke="grey" stroke-width="5" fill="none" />
<path d="M518.2603455275975,497.96769166275584 L151.33939199999998,-16.843509760000018" stroke="grey" stroke-width="5" />
<circle cx="518.2603455275975" cy="497.96769166275584" r="2.5" fill="grey" stroke="none" />
<circle cx="507.339392" cy="483.15649024" r="5" fill="black" stroke="none" />
<circle cx="651.339392" cy="483.15649024" r="5" fill="black" stroke="none" />
<path d="M627.339392,515.15649024 A128.23821564309475,128.23821564309475,0,0,0,627.4512844608932,485.81514749483335" stroke="grey" stroke-width="5" fill="none" />
<path d="M627.4512844608932,485.81514749483335 L151.33939199999998,-16.843509760000018" stroke="grey" stroke-width="5" />
<circle cx="627.4512844608932" cy="485.81514749483335" r="2.5" fill="grey" stroke="none" />
<circle cx="627.339392" cy="515.15649024" r="5" fill="black" stroke="none" />
<circle cx="651.339392" cy="483.15649024" r="5" fill="black" stroke="none" />
<path d="M387.339392,635.15649024 L413.33373482463685,603.9716404096738" stroke="grey" stroke-width="5" />
<circle cx="413.33373482463685" cy="603.9716404096738" r="2.5" fill="grey" stroke="none" />
<path d="M413.33373482463685,603.9716404096738 A135.35561875638882,135.35561875638882,0,0,0,507.339392,635.15649024" stroke="grey" stroke-width="5" fill="none" />
<circle cx="387.339392" cy="635.15649024" r="5" fill="black" stroke="none" />
<circle cx="507.339392" cy="635.15649024" r="5" fill="black" stroke="none" />
<path d="M507.339392,635.15649024 L505.99213830046614,610.3465221265852" stroke="grey" stroke-width="5" />
<circle cx="505.99213830046614" cy="610.3465221265852" r="2.5" fill="grey" stroke="none" />
<path d="M505.99213830046614,610.3465221265852 A110.50909766550839,110.50909766550839,0,0,0,603.339392,539.15649024" stroke="grey" stroke-width="5" fill="none" />
<circle cx="507.339392" cy="635.15649024" r="5" fill="black" stroke="none" />
<circle cx="603.339392" cy="539.15649024" r="5" fill="black" stroke="none" />
<path d="M603.339392,539.15649024 A110.50909766550839,110.50909766550839,0,0,0,609.7345376853908,513.0610836387497" stroke="grey" stroke-width="5" fill="none" />
<path d="M609.7345376853908,513.0610836387497 L127.33939199999998,15.156490239999982" stroke="grey" stroke-width="5" />
<circle cx="609.7345376853908" cy="513.0610836387497" r="2.5" fill="grey" stroke="none" />
<circle cx="603.339392" cy="539.15649024" r="5" fill="black" stroke="none" />
<circle cx="627.339392" cy="515.15649024" r="5" fill="black" stroke="none" />
<path d="M627.339392,515.15649024 A128.23821564309475,128.23821564309475,0,0,1,622.5741191718251,537.6911827961937" stroke="grey" stroke-width="5" fill="none" />
<path d="M622.5741191718251,537.6911827961937 L127.33939199999998,39.15649023999998" stroke="grey" stroke-width="5" />
<circle cx="622.5741191718251" cy="537.6911827961937" r="2.5" fill="grey" stroke="none" />
<circle cx="627.339392" cy="515.15649024" r="5" fill="black" stroke="none" />
<circle cx="627.339392" cy="539.15649024" r="5" fill="black" stroke="none" />
<path d="M627.339392,539.15649024 A133.22368964581665,133.22368964581665,0,0,1,567.854349572385,614.6487624309719" stroke="grey" stroke-width="5" fill="none" />
<path d="M567.854349572385,614.6487624309719 L127.33939199999998,215.15649023999998" stroke="grey" stroke-width="5" />
<circle cx="567.854349572385" cy="614.6487624309719" r="2.5" fill="grey" stroke="none" />
<circle cx="627.339392" cy="539.15649024" r="5" fill="black" stroke="none" />
<circle cx="627.339392" cy="715.15649024" r="5" fill="black" stroke="none" />
<path d="M627.339392,715.15649024 A250.01527162820446,250.01527162820446,0,0,0,680.0552289991465,673.458209829889" stroke="grey" stroke-width="5" fill="none" />
<path d="M680.0552289991465,673.4582098298889 L223.33939199999998,215.15649023999998" stroke="grey" stroke-width="5" />
<circle cx="680.0552289991465" cy="673.4582098298889" r="2.5" fill="grey" stroke="none" />
<circle cx="627.339392" cy="715.15649024" r="5" fill="black" stroke="none" />
<circle cx="723.339392" cy="715.15649024" r="5" fill="black" stroke="none" />
<path d="M627.339392,715.15649024 A250.01527162820446,250.01527162820446,0,0,1,608.9007687337657,725.0516798793551" stroke="grey" stroke-width="5" fill="none" />
<path d="M608.9007687337657,725.0516798793551 L127.33939199999998,263.15649024" stroke="grey" stroke-width="5" />
<circle cx="608.9007687337657" cy="725.0516798793551" r="2.5" fill="grey" stroke="none" />
<circle cx="627.339392" cy="715.15649024" r="5" fill="black" stroke="none" />
<circle cx="627.339392" cy="763.15649024" r="5" fill="black" stroke="none" />
<path d="M315.339392,339.15649024 L378.58794518127297,394.24739127785404" stroke="grey" stroke-width="5" />
<circle cx="378.58794518127297" cy="394.24739127785404" r="2.5" fill="grey" stroke="none" />
<path d="M378.58794518127297,394.24739127785404 A161.01087325657508,161.01087325657508,0,0,1,507.339392,339.15649024" stroke="grey" stroke-width="5" fill="none" />
<circle cx="315.339392" cy="339.15649024" r="5" fill="black" stroke="none" />
<circle cx="507.339392" cy="339.15649024" r="5" fill="black" stroke="none" />
<path d="M507.339392,339.15649024 L500.8375044429063,481.6460063671965" stroke="grey" stroke-width="5" />
<circle cx="500.8375044429063" cy="481.6460063671965" r="2.5" fill="grey" stroke="none" />
<path d="M500.8375044429063,481.6460063671965 A18.373091627836605,18.373091627836605,0,0,1,507.339392,483.15649024" stroke="grey" stroke-width="5" fill="none" />
<circle cx="507.339392" cy="339.15649024" r="5" fill="black" stroke="none" />
<circle cx="507.339392" cy="483.15649024" r="5" fill="black" stroke="none" />
<path d="M507.339392,339.15649024 A161.01087325657508,161.01087325657508,0,0,0,504.90431981068696,339.0638357794017" stroke="grey" stroke-width="5" fill="none" />
<path d="M504.90431981068696,339.0638357794017 L7.339391999999975,-240.84350976000002" stroke="grey" stroke-width="5" />
<circle cx="504.90431981068696" cy="339.0638357794017" r="2.5" fill="grey" stroke="none" />
<circle cx="507.339392" cy="339.15649024" r="5" fill="black" stroke="none" />
<circle cx="507.339392" cy="259.15649024" r="5" fill="black" stroke="none" />
<path d="M507.339392,259.15649024000004 A240.955313011448,240.955313011448,0,0,0,505.95574820236544,259.11830303695774" stroke="grey" stroke-width="5" fill="none" />
<path d="M505.9557482023655,259.11830303695774 L7.339391999999975,-296.84350976" stroke="grey" stroke-width="5" />
<circle cx="505.9557482023655" cy="259.11830303695774" r="2.5" fill="grey" stroke="none" />
<circle cx="507.339392" cy="259.15649024" r="5" fill="black" stroke="none" />
<circle cx="507.339392" cy="203.15649023999998" r="5" fill="black" stroke="none" />
<path d="M507.339392,259.15649024 L505.4196335898826,322.15371853683223" stroke="grey" stroke-width="5" />
<circle cx="505.4196335898826" cy="322.15371853683223" r="2.5" fill="grey" stroke="none" />
<path d="M505.4196335898826,322.15371853683223 A177.92884043494715,177.92884043494715,0,0,1,603.339392,355.15649024" stroke="grey" stroke-width="5" fill="none" />
<circle cx="507.339392" cy="259.15649024" r="5" fill="black" stroke="none" />
<circle cx="603.339392" cy="355.15649024" r="5" fill="black" stroke="none" />
<path d="M507.339392,339.15649024 A161.01087325657508,161.01087325657508,0,0,1,593.5135962615732,368.9286125003921" stroke="grey" stroke-width="5" fill="none" />
<path d="M593.5135962615732,368.9286125003921 L103.33939199999998,-144.84350976000002" stroke="grey" stroke-width="5" />
<circle cx="593.5135962615732" cy="368.9286125003921" r="2.5" fill="grey" stroke="none" />
<circle cx="507.339392" cy="339.15649024" r="5" fill="black" stroke="none" />
<circle cx="603.339392" cy="355.15649024" r="5" fill="black" stroke="none" />
<path d="M603.339392,355.15649024 L597.5482468282198,363.273528437886" stroke="grey" stroke-width="5" />
<circle cx="597.5482468282198" cy="363.273528437886" r="2.5" fill="grey" stroke="none" />
<path d="M597.5482468282198,363.273528437886 A167.95769849901157,167.95769849901157,0,0,1,651.339392,427.15649024" stroke="grey" stroke-width="5" fill="none" />
<circle cx="603.339392" cy="355.15649024" r="5" fill="black" stroke="none" />
<circle cx="651.339392" cy="427.15649024" r="5" fill="black" stroke="none" />
<path d="M603.339392,539.15649024 A110.50909766550839,110.50909766550839,0,0,0,605.6280706877745,532.4803224987588" stroke="grey" stroke-width="5" fill="none" />
<path d="M605.6280706877745,532.4803224987588 L127.33939199999998,39.15649023999998" stroke="grey" stroke-width="5" />
<circle cx="605.6280706877745" cy="532.4803224987588" r="2.5" fill="grey" stroke="none" />
<circle cx="603.339392" cy="539.15649024" r="5" fill="black" stroke="none" />
<circle cx="627.339392" cy="539.15649024" r="5" fill="black" stroke="none" />
<path d="M627.339392,539.15649024 A133.22368964581665,133.22368964581665,0,0,0,628.9765925658437,533.3704967441188" stroke="grey" stroke-width="5" fill="none" />
<path d="M628.9765925658437,533.3704967441188 L151.33939199999998,39.15649023999998" stroke="grey" stroke-width="5" />
<circle cx="628.9765925658437" cy="533.3704967441188" r="2.5" fill="grey" stroke="none" />
<circle cx="627.339392" cy="539.15649024" r="5" fill="black" stroke="none" />
<circle cx="651.339392" cy="539.15649024" r="5" fill="black" stroke="none" />
<path d="M651.339392,539.15649024 L647.4194126156366,538.1422623349162" stroke="grey" stroke-width="5" />
<circle cx="647.4194126156366" cy="538.1422623349162" r="2.5" fill="grey" stroke="none" />
<path d="M647.4194126156366,538.1422623349162 A152.27381715831802,152.27381715831802,0,0,0,651.339392,483.15649024" stroke="grey" stroke-width="5" fill="none" />
<circle cx="651.339392" cy="539.15649024" r="5" fill="black" stroke="none" />
<circle cx="651.339392" cy="483.15649024" r="5" fill="black" stroke="none" />
<path d="M651.339392,483.15649024 A152.27381715831802,152.27381715831802,0,0,0,648.8098689012777,467.70544458349985" stroke="grey" stroke-width="5" fill="none" />
<path d="M648.8098689012777,467.70544458349985 L151.33939199999998,-32.84350976000002" stroke="grey" stroke-width="5" />
<circle cx="648.8098689012777" cy="467.70544458349985" r="2.5" fill="grey" stroke="none" />
<circle cx="651.339392" cy="483.15649024" r="5" fill="black" stroke="none" />
<circle cx="651.339392" cy="467.15649024" r="5" fill="black" stroke="none" />
<path d="M651.339392,467.15649024 A154.86222168199987,154.86222168199987,0,0,0,647.3767808454619,452.4353895010844" stroke="grey" stroke-width="5" fill="none" />
<path d="M647.3767808454619,452.4353895010844 L151.33939199999998,-48.84350976000002" stroke="grey" stroke-width="5" />
<circle cx="647.3767808454619" cy="452.4353895010844" r="2.5" fill="grey" stroke="none" />
<circle cx="651.339392" cy="467.15649024" r="5" fill="black" stroke="none" />
<circle cx="651.339392" cy="451.15649024" r="5" fill="black" stroke="none" />
<path d="M651.339392,451.15649024 A159.02609853921737,159.02609853921737,0,0,0,643.2915149477287,431.0301387518454" stroke="grey" stroke-width="5" fill="none" />
<path d="M643.2915149477287,431.03013875184547 L151.33939199999998,-72.84350976000002" stroke="grey" stroke-width="5" />
<circle cx="643.2915149477287" cy="431.03013875184547" r="2.5" fill="grey" stroke="none" />
<circle cx="651.339392" cy="451.15649024" r="5" fill="black" stroke="none" />
<circle cx="651.339392" cy="427.15649024" r="5" fill="black" stroke="none" />
<path d="M651.339392,427.15649024 A167.95769849901157,167.95769849901157,0,0,1,657.754743477522,442.3525421599" stroke="grey" stroke-width="5" fill="none" />
<path d="M657.754743477522,442.35254215989994 L199.33939199999998,-72.84350976000002" stroke="grey" stroke-width="5" />
<circle cx="657.754743477522" cy="442.35254215989994" r="2.5" fill="grey" stroke="none" />
<circle cx="651.339392" cy="427.15649024" r="5" fill="black" stroke="none" />
<circle cx="699.339392" cy="427.15649024" r="5" fill="black" stroke="none" />
<path d="M699.339392,427.15649024 L689.7543862166287,430.6590867680894" stroke="grey" stroke-width="5" />
<circle cx="689.7543862166287" cy="430.6590867680894" r="2.5" fill="grey" stroke="none" />
<path d="M689.7543862166287,430.6590867680894 A202.02695200463938,202.02695200463938,0,0,1,699.339392,467.15649024" stroke="grey" stroke-width="5" fill="none" />
<circle cx="699.339392" cy="427.15649024" r="5" fill="black" stroke="none" />
<circle cx="699.339392" cy="467.15649024" r="5" fill="black" stroke="none" />
<path d="M699.339392,467.15649024 L652.8020930254403,474.82405768735623" stroke="grey" stroke-width="5" />
<circle cx="652.8020930254403" cy="474.82405768735623" r="2.5" fill="grey" stroke="none" />
<path d="M652.8020930254403,474.82405768735623 A154.86222168199987,154.86222168199987,0,0,0,651.339392,467.15649024" stroke="grey" stroke-width="5" fill="none" />
<circle cx="699.339392" cy="467.15649024" r="5" fill="black" stroke="none" />
<circle cx="651.339392" cy="467.15649024" r="5" fill="black" stroke="none" />
<path d="M651.339392,451.15649024 A159.02609853921737,159.02609853921737,0,0,1,655.5958808698892,467.1484875092771" stroke="grey" stroke-width="5" fill="none" />
<path d="M655.5958808698892,467.1484875092771 L231.33939199999998,-48.84350976000002" stroke="grey" stroke-width="5" />
<circle cx="655.5958808698892" cy="467.1484875092771" r="2.5" fill="grey" stroke="none" />
<circle cx="651.339392" cy="451.15649024" r="5" fill="black" stroke="none" />
<circle cx="731.339392" cy="451.15649024" r="5" fill="black" stroke="none" />
<circle cx="500" cy="500" r="5" fill="red" stroke="none" />
</svg>