<?xml version="1.0" encoding="UTF-8"?>
<svg xmlns="http://www.w3.org/2000/svg" xmlns:xlink="http://www.w3.org/1999/xlink"
     width="1000" height="1000" viewBox="0 0 1000 1000">
<defs>
</defs>
<rect x="0" y="0" width="1000" height="1000" fill="white" />
<path d="M179.4299595,301.34590224 L213.8786964697665,322.6934453573381" stroke="grey" stroke-width="5" />
<circle cx="213.8786964697665" cy="322.6934453573381" r="2.5" fill="grey" stroke="none" />
<path d="M213.8786964697665,322.6934453573381 A336.6051316499665,336.6051316499665,0,0,0,179.4299595,397.3459022400001" stroke="grey" stroke-width="5" fill="none" />
<circle cx="179.4299595" cy="301.34590224" r="5" fill="black" stroke="none" />
<circle cx="179.4299595" cy="397.34590224" r="5" fill="black" stroke="none" />
<path d="M179.4299595,397.34590224 L251.64554602648488,420.4710385363393" stroke="grey" stroke-width="5" />
<circle cx="251.64554602648488" cy="420.4710385363393" r="2.5" fill="grey" stroke="none" />
<path d="M251.64554602648485,420.4710385363394 A260.7772814490773,260.7772814490773,0,0,0,243.4299595,453.34590224000004" stroke="grey" stroke-width="5" fill="none" />
<circle cx="179.4299595" cy="397.34590224" r="5" fill="black" stroke="none" />
<circle cx="243.4299595" cy="453.34590224" r="5" fill="black" stroke="none" />
<path d="M155.4299595,453.34590224 L241.58071202645147,465.0105426847534" stroke="grey" stroke-width="5" />
<circle cx="241.58071202645147" cy="465.0105426847534" r="2.5" fill="grey" stroke="none" />
<path d="M241.58071202645147,465.0105426847534 A260.7772814490773,260.7772814490773,0,0,1,243.4299595,453.34590224000004" stroke="grey" stroke-width="5" fill="none" />
<circle cx="155.4299595" cy="453.34590224" r="5" fill="black" stroke="none" />
<circle cx="243.4299595" cy="453.34590224" r="5" fill="black" stroke="none" />
<path d="M243.4299595,453.34590224 L317.8362608692312,466.8757705413621" stroke="grey" stroke-width="5" />
<circle cx="317.8362608692312" cy="466.8757705413621" r="2.5" fill="grey" stroke="none" />
<path d="M317.8362608692312,466.8757705413621 A185.1508639767346,185.1508639767346,0,0,0,315.4299595,485.3459022400001" stroke="grey" stroke-width="5" fill="none" />
<circle cx="243.4299595" cy="453.34590224" r="5" fill="black" stroke="none" />
<circle cx="315.4299595" cy="485.34590224" r="5" fill="black" stroke="none" />
<path d="M315.4299595,485.34590224 L331.953412409362,486.6577960533762" stroke="grey" stroke-width="5" />
<circle cx="331.953412409362" cy="486.6577960533762" r="2.5" fill="grey" stroke="none" />
<path d="M331.953412409362,486.6577960533763 A168.57541341195423,168.57541341195423,0,0,0,331.4299595,501.3459022399999" stroke="grey" stroke-width="5" fill="none" />
<circle cx="315.4299595" cy="485.34590224" r="5" fill="black" stroke="none" />
<circle cx="331.4299595" cy="501.34590224" r="5" fill="black" stroke="none" />
<path d="M331.4299595,501.34590224 L359.4223866786026,501.1224042190529" stroke="grey" stroke-width="5" />
<circle cx="359.4223866786026" cy="501.1224042190529" r="2.5" fill="grey" stroke="none" />
<path d="M359.4223866786026,501.12240421905284 A140.5820940175927,140.5820940175927,0,0,0,363.4299595,533.34590224" stroke="grey" stroke-width="5" fill="none" />
<circle cx="331.4299595" cy="501.34590224" r="5" fill="black" stroke="none" />
<circle cx="363.4299595" cy="533.34590224" r="5" fill="black" stroke="none" />
<path d="M331.4299595,501.3459022399999 A168.57541341195423,168.57541341195423,0,0,0,348.4076325069778,573.7388915354155" stroke="grey" stroke-width="5" fill="none" />
<path d="M348.40763250697785,573.7388915354156 L-216.5700405,105.34590223999999" stroke="grey" stroke-width="5" />
<circle cx="348.40763250697785" cy="573.7388915354156" r="2.5" fill="grey" stroke="none" />
<circle cx="331.4299595" cy="501.34590224" r="5" fill="black" stroke="none" />
<circle cx="283.4299595" cy="605.34590224" r="5" fill="black" stroke="none" />
<path d="M283.42995949999994,605.3459022399999 A240.83260070208783,240.83260070208783,0,0,0,317.0270993625537,656.5926537014125" stroke="grey" stroke-width="5" fill="none" />
<path d="M317.0270993625537,656.5926537014125 L-216.5700405,185.34590224" stroke="grey" stroke-width="5" />
<circle cx="317.0270993625537" cy="656.5926537014125" r="2.5" fill="grey" stroke="none" />
<circle cx="283.4299595" cy="605.34590224" r="5" fill="black" stroke="none" />
<circle cx="283.4299595" cy="685.34590224" r="5" fill="black" stroke="none" />
<path d="M179.4299595,701.34590224 L258.610346705948,651.613723659531" stroke="grey" stroke-width="5" />
<circle cx="258.610346705948" cy="651.613723659531" r="2.5" fill="grey" stroke="none" />
<path d="M258.610346705948,651.613723659531 A285.0538298625915,285.0538298625915,0,0,0,283.42995950000005,685.34590224" stroke="grey" stroke-width="5" fill="none" />
<circle cx="179.4299595" cy="701.34590224" r="5" fill="black" stroke="none" />
<circle cx="283.4299595" cy="685.34590224" r="5" fill="black" stroke="none" />
<path d="M283.42995950000005,685.34590224 A285.0538298625915,285.0538298625915,0,0,0,335.09029602280907,732.5090868191747" stroke="grey" stroke-width="5" fill="none" />
<path d="M335.09029602280907,732.5090868191747 L-216.5700405,305.34590224" stroke="grey" stroke-width="5" />
<circle cx="335.09029602280907" cy="732.5090868191747" r="2.5" fill="grey" stroke="none" />
<circle cx="283.4299595" cy="685.34590224" r="5" fill="black" stroke="none" />
<circle cx="283.4299595" cy="805.34590224" r="5" fill="black" stroke="none" />
<path d="M283.4299595,605.34590224 L344.896972850037,575.4465774561651" stroke="grey" stroke-width="5" />
<circle cx="344.896972850037" cy="575.4465774561651" r="2.5" fill="grey" stroke="none" />
<path d="M344.89697285003695,575.4465774561651 A172.47937581325854,172.47937581325854,0,0,0,363.4299595,605.34590224" stroke="grey" stroke-width="5" fill="none" />
<circle cx="283.4299595" cy="605.34590224" r="5" fill="black" stroke="none" />
<circle cx="363.4299595" cy="605.34590224" r="5" fill="black" stroke="none" />
<path d="M363.4299595,533.34590224 A140.5820940175927,140.5820940175927,0,0,0,388.68638825349,585.8638748154223" stroke="grey" stroke-width="5" fill="none" />
<path d="M388.68638825349,585.8638748154223 L-136.5700405,105.34590223999999" stroke="grey" stroke-width="5" />
<circle cx="388.68638825349" cy="585.8638748154223" r="2.5" fill="grey" stroke="none" />
<circle cx="363.4299595" cy="533.34590224" r="5" fill="black" stroke="none" />
<circle cx="363.4299595" cy="605.34590224" r="5" fill="black" stroke="none" />
<path d="M363.4299595,605.34590224 L402.1646462536601,575.4671637618628" stroke="grey" stroke-width="5" />
<circle cx="402.1646462536601" cy="575.4671637618628" r="2.5" fill="grey" stroke="none" />
<path d="M402.1646462536601,575.4671637618628 A123.55990146051136,123.55990146051136,0,0,0,435.4299595,605.34590224" stroke="grey" stroke-width="5" fill="none" />
<circle cx="363.4299595" cy="605.34590224" r="5" fill="black" stroke="none" />
<circle cx="435.4299595" cy="605.34590224" r="5" fill="black" stroke="none" />
<path d="M363.4299595,533.34590224 L400.75050828119663,524.2334543953284" stroke="grey" stroke-width="5" />
<circle cx="400.75050828119663" cy="524.2334543953284" r="2.5" fill="grey" stroke="none" />
<path d="M400.75050828119663,524.2334543953284 A102.16516979074267,102.16516979074267,0,0,0,403.4299595,533.34590224" stroke="grey" stroke-width="5" fill="none" />
<circle cx="363.4299595" cy="533.34590224" r="5" fill="black" stroke="none" />
<circle cx="403.4299595" cy="533.34590224" r="5" fill="black" stroke="none" />
<path d="M435.4299595,605.34590224 L463.7227615968239,559.1862476895639" stroke="grey" stroke-width="5" />
<circle cx="463.7227615968239" cy="559.1862476895639" r="2.5" fill="grey" stroke="none" />
<path d="M463.7227615968239,559.1862476895639 A69.41937727847518,69.41937727847518,0,0,0,523.4299595,565.34590224" stroke="grey" stroke-width="5" fill="none" />
<circle cx="435.4299595" cy="605.34590224" r="5" fill="black" stroke="none" />
<circle cx="523.4299595" cy="565.34590224" r="5" fill="black" stroke="none" />
<path d="M403.4299595,533.34590224 L445.1963660907723,518.9238464566437" stroke="grey" stroke-width="5" />
<circle cx="445.1963660907723" cy="518.9238464566437" r="2.5" fill="grey" stroke="none" />
<path d="M445.1963660907723,518.9238464566437 A57.9788776570509,57.9788776570509,0,0,0,547.4299595,533.34590224" stroke="grey" stroke-width="5" fill="none" />
<circle cx="403.4299595" cy="533.34590224" r="5" fill="black" stroke="none" />
<circle cx="547.4299595" cy="533.34590224" r="5" fill="black" stroke="none" />
<path d="M523.4299595,565.34590224 L519.5686393139307,554.5767222336827" stroke="grey" stroke-width="5" />
<circle cx="519.5686393139307" cy="554.5767222336827" r="2.5" fill="grey" stroke="none" />
<path d="M519.5686393139307,554.5767222336827 A57.9788776570509,57.9788776570509,0,0,0,547.4299595,533.34590224" stroke="grey" stroke-width="5" fill="none" />
<circle cx="523.4299595" cy="565.34590224" r="5" fill="black" stroke="none" />
<circle cx="547.4299595" cy="533.34590224" r="5" fill="black" stroke="none" />
<path d="M283.4299595,685.34590224 L341.2158219018808,635.8913572860174" stroke="grey" stroke-width="5" />
<circle cx="341.2158219018808" cy="635.8913572860174" r="2.5" fill="grey" stroke="none" />
<path d="M341.2158219018808,635.8913572860174 A208.99491907539587,208.99491907539587,0,0,0,403.42995950000005,685.34590224" stroke="grey" stroke-width="5" fill="none" />
<circle cx="283.4299595" cy="685.34590224" r="5" fill="black" stroke="none" />
<circle cx="403.4299595" cy="685.34590224" r="5" fill="black" stroke="none" />
<path d="M403.4299595,685.34590224 L458.7152020527818,579.2374952387356" stroke="grey" stroke-width="5" />
<circle cx="458.7152020527818" cy="579.2374952387356" r="2.5" fill="grey" stroke="none" />
<path d="M458.7152020527818,579.2374952387356 A89.34772069421399,89.34772069421399,0,0,0,499.4299595,589.34590224" stroke="grey" stroke-width="5" fill="none" />
<circle cx="403.4299595" cy="685.34590224" r="5" fill="black" stroke="none" />
<circle cx="499.4299595" cy="589.34590224" r="5" fill="black" stroke="none" />
<path d="M499.4299595,589.34590224 L499.5571027864388,569.4179644169252" stroke="grey" stroke-width="5" />
<circle cx="499.5571027864388" cy="569.4179644169252" r="2.5" fill="grey" stroke="none" />
<path d="M499.5571027864388,569.4179644169252 A69.41937727847518,69.41937727847518,0,0,0,523.4299595,565.34590224" stroke="grey" stroke-width="5" fill="none" />
<circle cx="499.4299595" cy="589.34590224" r="5" fill="black" stroke="none" />
<circle cx="523.4299595" cy="565.34590224" r="5" fill="black" stroke="none" />
<path d="M523.4299595,565.34590224 A69.41937727847518,69.41937727847518,0,0,1,517.6090389203601,567.1488770571223" stroke="grey" stroke-width="5" fill="none" />
<path d="M517.6090389203601,567.1488770571223 L23.429959499999995,89.34590223999999" stroke="grey" stroke-width="5" />
<circle cx="517.6090389203601" cy="567.1488770571223" r="2.5" fill="grey" stroke="none" />
<circle cx="523.4299595" cy="565.34590224" r="5" fill="black" stroke="none" />
<circle cx="523.4299595" cy="589.34590224" r="5" fill="black" stroke="none" />
<path d="M523.4299595,589.34590224 A92.3669489008448,92.3669489008448,0,0,1,508.1243618078314,592.008956055738" stroke="grey" stroke-width="5" fill="none" />
<path d="M508.1243618078314,592.008956055738 L23.429959499999995,265.34590224" stroke="grey" stroke-width="5" />
<circle cx="508.1243618078314" cy="592.008956055738" r="2.5" fill="grey" stroke="none" />
<circle cx="523.4299595" cy="589.34590224" r="5" fill="black" stroke="none" />
<circle cx="523.4299595" cy="765.34590224" r="5" fill="black" stroke="none" />
<path d="M523.4299595,765.34590224 A266.37832276244114,266.37832276244114,0,0,0,609.3307558943868,742.9077945503052" stroke="grey" stroke-width="5" fill="none" />
<path d="M609.3307558943868,742.9077945503052 L119.4299595,265.34590224" stroke="grey" stroke-width="5" />
<circle cx="609.3307558943868" cy="742.9077945503052" r="2.5" fill="grey" stroke="none" />
<circle cx="523.4299595" cy="765.34590224" r="5" fill="black" stroke="none" />
<circle cx="619.4299595" cy="765.34590224" r="5" fill="black" stroke="none" />
<path d="M523.4299595,765.34590224 A266.37832276244114,266.37832276244114,0,0,1,519.8625815843162,765.636760804181" stroke="grey" stroke-width="5" fill="none" />
<path d="M519.8625815843161,765.636760804181 L23.429959499999995,313.34590224" stroke="grey" stroke-width="5" />
<circle cx="519.8625815843161" cy="765.636760804181" r="2.5" fill="grey" stroke="none" />
<circle cx="523.4299595" cy="765.34590224" r="5" fill="black" stroke="none" />
<circle cx="523.4299595" cy="813.34590224" r="5" fill="black" stroke="none" />
<path d="M211.4299595,389.34590224 L362.86856865302786,447.41604227540535" stroke="grey" stroke-width="5" />
<circle cx="362.86856865302786" cy="447.41604227540535" r="2.5" fill="grey" stroke="none" />
<path d="M362.86856865302786,447.41604227540535 A146.86763453276996,146.86763453276996,0,0,1,403.4299595,389.34590224" stroke="grey" stroke-width="5" fill="none" />
<circle cx="211.4299595" cy="389.34590224" r="5" fill="black" stroke="none" />
<circle cx="403.4299595" cy="389.34590224" r="5" fill="black" stroke="none" />
<path d="M403.4299595,389.34590224 L432.82322129195853,423.0259633331985" stroke="grey" stroke-width="5" />
<circle cx="432.82322129195853" cy="423.0259633331985" r="2.5" fill="grey" stroke="none" />
<path d="M432.82322129195853,423.0259633331985 A102.16516979074267,102.16516979074267,0,0,0,403.4299595,533.34590224" stroke="grey" stroke-width="5" fill="none" />
<circle cx="403.4299595" cy="389.34590224" r="5" fill="black" stroke="none" />
<circle cx="403.4299595" cy="533.34590224" r="5" fill="black" stroke="none" />
<path d="M403.4299595,389.34590224 A146.86763453276996,146.86763453276996,0,0,1,433.63633115430207,368.9810489639387" stroke="grey" stroke-width="5" fill="none" />
<path d="M433.63633115430207,368.9810489639387 L-96.5700405,-190.65409776" stroke="grey" stroke-width="5" />
<circle cx="433.63633115430207" cy="368.9810489639387" r="2.5" fill="grey" stroke="none" />
<circle cx="403.4299595" cy="389.34590224" r="5" fill="black" stroke="none" />
<circle cx="403.4299595" cy="309.34590224" r="5" fill="black" stroke="none" />
<path d="M403.4299595,309.34590224 A213.7165358947484,213.7165358947484,0,0,1,422.0845975619825,300.99259366100705" stroke="grey" stroke-width="5" fill="none" />
<path d="M422.0845975619825,300.99259366100705 L-96.5700405,-246.65409776" stroke="grey" stroke-width="5" />
<circle cx="422.0845975619825" cy="300.99259366100705" r="2.5" fill="grey" stroke="none" />
<circle cx="403.4299595" cy="309.34590224" r="5" fill="black" stroke="none" />
<circle cx="403.4299595" cy="253.34590224" r="5" fill="black" stroke="none" />
<path d="M403.4299595,309.34590224 L457.2287854274372,415.55862167800035" stroke="grey" stroke-width="5" />
<circle cx="457.2287854274372" cy="415.55862167800035" r="2.5" fill="grey" stroke="none" />
<path d="M457.2287854274372,415.55862167800035 A94.6558142373266,94.6558142373266,0,0,1,499.4299595,405.34590224" stroke="grey" stroke-width="5" fill="none" />
<circle cx="403.4299595" cy="309.34590224" r="5" fill="black" stroke="none" />
<circle cx="499.4299595" cy="405.34590224" r="5" fill="black" stroke="none" />
<path d="M403.4299595,389.34590224 L437.7608562734798,428.68371744741006" stroke="grey" stroke-width="5" />
<circle cx="437.7608562734798" cy="428.68371744741006" r="2.5" fill="grey" stroke="none" />
<path d="M437.7608562734798,428.68371744741006 A94.6558142373266,94.6558142373266,0,0,1,499.4299595,405.34590224" stroke="grey" stroke-width="5" fill="none" />
<circle cx="403.4299595" cy="389.34590224" r="5" fill="black" stroke="none" />
<circle cx="499.4299595" cy="405.34590224" r="5" fill="black" stroke="none" />
<path d="M499.4299595,405.34590224 L499.6834561620364,447.4385216770882" stroke="grey" stroke-width="5" />
<circle cx="499.6834561620364" cy="447.4385216770882" r="2.5" fill="grey" stroke="none" />
<path d="M499.6834561620364,447.4385216770882 A52.562431483820056,52.562431483820056,0,0,1,547.4299595,477.34590224" stroke="grey" stroke-width="5" fill="none" />
<circle cx="499.4299595" cy="405.34590224" r="5" fill="black" stroke="none" />
<circle cx="547.4299595" cy="477.34590224" r="5" fill="black" stroke="none" />
<path d="M499.4299595,589.34590224 A89.34772069421399,89.34772069421399,0,0,0,522.6640968679177,586.4254239585373" stroke="grey" stroke-width="5" fill="none" />
<path d="M522.6640968679177,586.4254239585373 L23.429959499999995,89.34590223999999" stroke="grey" stroke-width="5" />
<circle cx="522.6640968679177" cy="586.4254239585373" r="2.5" fill="grey" stroke="none" />
<circle cx="499.4299595" cy="589.34590224" r="5" fill="black" stroke="none" />
<circle cx="523.4299595" cy="589.34590224" r="5" fill="black" stroke="none" />
<path d="M523.4299595,589.34590224 A92.3669489008448,92.3669489008448,0,0,0,543.3094734885769,581.5839613857621" stroke="grey" stroke-width="5" fill="none" />
<path d="M543.3094734885769,581.5839613857621 L47.429959499999995,89.34590223999999" stroke="grey" stroke-width="5" />
<circle cx="543.3094734885769" cy="581.5839613857621" r="2.5" fill="grey" stroke="none" />
<circle cx="523.4299595" cy="589.34590224" r="5" fill="black" stroke="none" />
<circle cx="547.4299595" cy="589.34590224" r="5" fill="black" stroke="none" />
<path d="M547.4299595,589.34590224 L527.1854239494374,551.2103796027781" stroke="grey" stroke-width="5" />
<circle cx="527.1854239494374" cy="551.2103796027781" r="2.5" fill="grey" stroke="none" />
<path d="M527.1854239494374,551.2103796027781 A57.9788776570509,57.9788776570509,0,0,0,547.4299595,533.34590224" stroke="grey" stroke-width="5" fill="none" />
<circle cx="547.4299595" cy="589.34590224" r="5" fill="black" stroke="none" />
<circle cx="547.4299595" cy="533.34590224" r="5" fill="black" stroke="none" />
<path d="M547.4299595,533.34590224 L541.3136940074866,529.0458270694269" stroke="grey" stroke-width="5" />
<circle cx="541.3136940074866" cy="529.0458270694269" r="2.5" fill="grey" stroke="none" />
<path d="M541.3136940074866,529.0458270694269 A50.50229086577436,50.50229086577436,0,0,0,547.4299595,517.34590224" stroke="grey" stroke-width="5" fill="none" />
<circle cx="547.4299595" cy="533.34590224" r="5" fill="black" stroke="none" />
<circle cx="547.4299595" cy="517.34590224" r="5" fill="black" stroke="none" />
<path d="M547.4299595,517.34590224 L544.5624656575693,516.2972134283513" stroke="grey" stroke-width="5" />
<circle cx="544.5624656575693" cy="516.2972134283513" r="2.5" fill="grey" stroke="none" />
<path d="M544.5624656575693,516.2972134283513 A47.44905173985332,47.44905173985332,0,0,0,547.4299595,501.34590224" stroke="grey" stroke-width="5" fill="none" />
<circle cx="547.4299595" cy="517.34590224" r="5" fill="black" stroke="none" />
<circle cx="547.4299595" cy="501.34590224" r="5" fill="black" stroke="none" />
<path d="M547.4299595,501.34590224 A47.44905173985332,47.44905173985332,0,0,0,542.8158770209747,479.54973873183894" stroke="grey" stroke-width="5" fill="none" />
<path d="M542.8158770209747,479.54973873183894 L47.429959499999995,-22.654097760000013" stroke="grey" stroke-width="5" />
<circle cx="542.8158770209747" cy="479.54973873183894" r="2.5" fill="grey" stroke="none" />
<circle cx="547.4299595" cy="501.34590224" r="5" fill="black" stroke="none" />
<circle cx="547.4299595" cy="477.34590224" r="5" fill="black" stroke="none" />
<path d="M547.4299595,477.34590224 A52.562431483820056,52.562431483820056,0,0,1,551.1411776807151,487.85960672297625" stroke="grey" stroke-width="5" fill="none" />
<path d="M551.1411776807151,487.85960672297625 L95.4299595,-22.654097760000013" stroke="grey" stroke-width="5" />
<circle cx="551.1411776807151" cy="487.85960672297625" r="2.5" fill="grey" stroke="none" />
<circle cx="547.4299595" cy="477.34590224" r="5" fill="black" stroke="none" />
<circle cx="595.4299595" cy="477.34590224" r="5" fill="black" stroke="none" />
<path d="M595.4299595,477.34590224 L594.3709516853816,477.5972998795533" stroke="grey" stroke-width="5" />
<circle cx="594.3709516853816" cy="477.5972998795533" r="2.5" fill="grey" stroke="none" />
<path d="M594.3709516853816,477.5972998795533 A96.9935951220042,96.9935951220042,0,0,1,595.4299595,517.34590224" stroke="grey" stroke-width="5" fill="none" />
<circle cx="595.4299595" cy="477.34590224" r="5" fill="black" stroke="none" />
<circle cx="595.4299595" cy="517.34590224" r="5" fill="black" stroke="none" />
<path d="M595.4299595,517.34590224 L549.6881424584366,509.0316046039109" stroke="grey" stroke-width="5" />
<circle cx="549.6881424584366" cy="509.0316046039109" r="2.5" fill="grey" stroke="none" />
<path d="M549.6881424584366,509.0316046039109 A50.50229086577436,50.50229086577436,0,0,1,547.4299595,517.34590224" stroke="grey" stroke-width="5" fill="none" />
<circle cx="595.4299595" cy="517.34590224" r="5" fill="black" stroke="none" />
<circle cx="547.4299595" cy="517.34590224" r="5" fill="black" stroke="none" />
<path d="M547.4299595,501.34590224 A47.44905173985332,47.44905173985332,0,0,0,547.4464054028465,500.50112409642287" stroke="grey" stroke-width="5" fill="none" />
<path d="M547.4464054028465,500.50112409642287 L127.4299595,1.3459022399999867" stroke="grey" stroke-width="5" />
<circle cx="547.4464054028465" cy="500.50112409642287" r="2.5" fill="grey" stroke="none" />
<circle cx="547.4299595" cy="501.34590224" r="5" fill="black" stroke="none" />
<circle cx="627.4299595" cy="501.34590224" r="5" fill="black" stroke="none" />
<circle cx="500" cy="500" r="5" fill="red" stroke="none" />
</svg>