<?xml version="1.0" encoding="UTF-8"?>
<svg xmlns="http://www.w3.org/2000/svg" xmlns:xlink="http://www.w3.org/1999/xlink"
     width="1000" height="1000" viewBox="0 0 1000 1000">
<defs>
</defs>
<rect x="0" y="0" width="1000" height="1000" fill="white" />
<path d="M120.46783199999999,348.55033344000003 L143.75476344672387,357.8428211397829" stroke="grey" stroke-width="5" />
<circle cx="143.75476344672387" cy="357.8428211397829" r="2.5" fill="grey" stroke="none" />
<path d="M143.75476344672393,357.84282113978276 A383.56137979258995,383.56137979258995,0,0,0,120.46783199999999,444.5503334400001" stroke="grey" stroke-width="5" fill="none" />
<circle cx="120.46783199999999" cy="348.55033344000003" r="5" fill="black" stroke="none" />
<circle cx="120.46783199999999" cy="444.55033344000003" r="5" fill="black" stroke="none" />
<path d="M120.46783199999999,444.55033344000003 L187.78193985957193,454.3849275806399" stroke="grey" stroke-width="5" />
<circle cx="187.78193985957193" cy="454.3849275806399" r="2.5" fill="grey" stroke="none" />
<path d="M187.78193985957193,454.3849275806399 A315.5326479299336,315.5326479299336,0,0,0,184.467832,500.55033344" stroke="grey" stroke-width="5" fill="none" />
<circle cx="120.46783199999999" cy="444.55033344000003" r="5" fill="black" stroke="none" />
<circle cx="184.467832" cy="500.55033344000003" r="5" fill="black" stroke="none" />
<path d="M96.46783199999999,500.55033344000003 L184.46764550322234,500.4303201079165" stroke="grey" stroke-width="5" />
<circle cx="184.46764550322234" cy="500.4303201079165" r="2.5" fill="grey" stroke="none" />
<path d="M184.46764550322234,500.4303201079166 A315.5326479299336,315.5326479299336,0,0,0,184.467832,500.55033344" stroke="grey" stroke-width="5" fill="none" />
<circle cx="96.46783199999999" cy="500.55033344000003" r="5" fill="black" stroke="none" />
<circle cx="184.467832" cy="500.55033344000003" r="5" fill="black" stroke="none" />
<path d="M184.467832,500.55033344000003 L254.30250831888438,500.428531729913" stroke="grey" stroke-width="5" />
<circle cx="254.30250831888438" cy="500.428531729913" r="2.5" fill="grey" stroke="none" />
<path d="M254.30250831888438,500.428531729913 A245.69786539128788,245.69786539128788,0,0,0,256.46783199999993,532.5503334399999" stroke="grey" stroke-width="5" fill="none" />
<circle cx="184.467832" cy="500.55033344000003" r="5" fill="black" stroke="none" />
<circle cx="256.467832" cy="532.55033344" r="5" fill="black" stroke="none" />
<path d="M256.467832,532.55033344 L269.39642726386666,530.8223067476508" stroke="grey" stroke-width="5" />
<circle cx="269.39642726386666" cy="530.8223067476508" r="2.5" fill="grey" stroke="none" />
<path d="M269.39642726386666,530.8223067476507 A232.65429794421468,232.65429794421468,0,0,0,272.467832,548.5503334399999" stroke="grey" stroke-width="5" fill="none" />
<circle cx="256.467832" cy="532.55033344" r="5" fill="black" stroke="none" />
<circle cx="272.467832" cy="548.55033344" r="5" fill="black" stroke="none" />
<path d="M272.467832,548.55033344 L293.1819799544505,544.1303922995717" stroke="grey" stroke-width="5" />
<circle cx="293.1819799544505" cy="544.1303922995717" r="2.5" fill="grey" stroke="none" />
<path d="M293.18197995445047,544.1303922995716 A211.47383984804222,211.47383984804222,0,0,0,304.467832,580.55033344" stroke="grey" stroke-width="5" fill="none" />
<circle cx="272.467832" cy="548.55033344" r="5" fill="black" stroke="none" />
<circle cx="304.467832" cy="580.55033344" r="5" fill="black" stroke="none" />
<path d="M272.467832,548.5503334399999 A232.65429794421468,232.65429794421468,0,0,0,296.4597216874904,612.6915145713357" stroke="grey" stroke-width="5" fill="none" />
<path d="M296.45972168749046,612.6915145713357 L224.467832,652.55033344" stroke="grey" stroke-width="5" />
<circle cx="296.45972168749046" cy="612.6915145713357" r="2.5" fill="grey" stroke="none" />
<circle cx="272.467832" cy="548.55033344" r="5" fill="black" stroke="none" />
<circle cx="224.467832" cy="652.55033344" r="5" fill="black" stroke="none" />
<path d="M224.46783199999987,652.5503334399999 A314.9437724982595,314.9437724982595,0,0,0,259.3213249258932,703.133835684772" stroke="grey" stroke-width="5" fill="none" />
<path d="M259.3213249258932,703.133835684772 L224.467832,732.55033344" stroke="grey" stroke-width="5" />
<circle cx="259.3213249258932" cy="703.133835684772" r="2.5" fill="grey" stroke="none" />
<circle cx="224.467832" cy="652.55033344" r="5" fill="black" stroke="none" />
<circle cx="224.467832" cy="732.55033344" r="5" fill="black" stroke="none" />
<path d="M120.46783199999999,748.55033344 L198.37281168159348,697.5314467444815" stroke="grey" stroke-width="5" />
<circle cx="198.37281168159348" cy="697.5314467444815" r="2.5" fill="grey" stroke="none" />
<path d="M198.37281168159348,697.5314467444815 A360.5518453507559,360.5518453507559,0,0,0,224.46783200000004,732.55033344" stroke="grey" stroke-width="5" fill="none" />
<circle cx="120.46783199999999" cy="748.55033344" r="5" fill="black" stroke="none" />
<circle cx="224.467832" cy="732.55033344" r="5" fill="black" stroke="none" />
<path d="M224.46783200000004,732.55033344 A360.5518453507559,360.5518453507559,0,0,0,277.97725880996154,784.083677074725" stroke="grey" stroke-width="5" fill="none" />
<path d="M277.97725880996154,784.083677074725 L224.467832,852.55033344" stroke="grey" stroke-width="5" />
<circle cx="277.97725880996154" cy="784.083677074725" r="2.5" fill="grey" stroke="none" />
<circle cx="224.467832" cy="732.55033344" r="5" fill="black" stroke="none" />
<circle cx="224.467832" cy="852.55033344" r="5" fill="black" stroke="none" />
<path d="M224.467832,652.55033344 L283.03359475273646,620.1249847014168" stroke="grey" stroke-width="5" />
<circle cx="283.03359475273646" cy="620.1249847014168" r="2.5" fill="grey" stroke="none" />
<path d="M283.03359475273646,620.1249847014167 A248.00087289248683,248.00087289248683,0,0,0,304.467832,652.55033344" stroke="grey" stroke-width="5" fill="none" />
<circle cx="224.467832" cy="652.55033344" r="5" fill="black" stroke="none" />
<circle cx="304.467832" cy="652.55033344" r="5" fill="black" stroke="none" />
<path d="M304.467832,580.55033344 A211.47383984804222,211.47383984804222,0,0,0,333.26696435178076,630.0818194968269" stroke="grey" stroke-width="5" fill="none" />
<path d="M333.26696435178076,630.0818194968269 L304.467832,652.55033344" stroke="grey" stroke-width="5" />
<circle cx="333.26696435178076" cy="630.0818194968269" r="2.5" fill="grey" stroke="none" />
<circle cx="304.467832" cy="580.55033344" r="5" fill="black" stroke="none" />
<circle cx="304.467832" cy="652.55033344" r="5" fill="black" stroke="none" />
<path d="M304.467832,652.55033344 L345.2343203641862,620.7451248303635" stroke="grey" stroke-width="5" />
<circle cx="345.2343203641862" cy="620.7451248303635" r="2.5" fill="grey" stroke="none" />
<path d="M345.2343203641862,620.7451248303635 A196.2951878254671,196.2951878254671,0,0,0,376.467832,652.55033344" stroke="grey" stroke-width="5" fill="none" />
<circle cx="304.467832" cy="652.55033344" r="5" fill="black" stroke="none" />
<circle cx="376.467832" cy="652.55033344" r="5" fill="black" stroke="none" />
<path d="M304.467832,580.55033344 L338.0505734997504,566.7157759178115" stroke="grey" stroke-width="5" />
<circle cx="338.0505734997504" cy="566.7157759178115" r="2.5" fill="grey" stroke="none" />
<path d="M338.0505734997504,566.7157759178115 A175.15310873654343,175.15310873654343,0,0,0,344.46783199999993,580.5503334399999" stroke="grey" stroke-width="5" fill="none" />
<circle cx="304.467832" cy="580.55033344" r="5" fill="black" stroke="none" />
<circle cx="344.467832" cy="580.55033344" r="5" fill="black" stroke="none" />
<path d="M376.467832,652.55033344 L425.7241342463041,591.7235427072808" stroke="grey" stroke-width="5" />
<circle cx="425.7241342463041" cy="591.7235427072808" r="2.5" fill="grey" stroke="none" />
<path d="M425.7241342463041,591.7235427072808 A118.02589766756873,118.02589766756873,0,0,0,464.467832,612.55033344" stroke="grey" stroke-width="5" fill="none" />
<circle cx="376.467832" cy="652.55033344" r="5" fill="black" stroke="none" />
<circle cx="464.467832" cy="612.55033344" r="5" fill="black" stroke="none" />
<path d="M344.467832,580.55033344 L427.7437274913659,537.4216274263082" stroke="grey" stroke-width="5" />
<circle cx="427.7437274913659" cy="537.4216274263082" r="2.5" fill="grey" stroke="none" />
<path d="M427.7437274913659,537.4216274263082 A81.3716603989092,81.3716603989092,0,0,0,488.467832,580.55033344" stroke="grey" stroke-width="5" fill="none" />
<circle cx="344.467832" cy="580.55033344" r="5" fill="black" stroke="none" />
<circle cx="488.467832" cy="580.55033344" r="5" fill="black" stroke="none" />
<path d="M464.467832,612.55033344 L475.5027365614567,577.5965927093324" stroke="grey" stroke-width="5" />
<circle cx="475.5027365614567" cy="577.5965927093324" r="2.5" fill="grey" stroke="none" />
<path d="M475.5027365614567,577.5965927093324 A81.3716603989092,81.3716603989092,0,0,0,488.467832,580.55033344" stroke="grey" stroke-width="5" fill="none" />
<circle cx="464.467832" cy="612.55033344" r="5" fill="black" stroke="none" />
<circle cx="488.467832" cy="580.55033344" r="5" fill="black" stroke="none" />
<path d="M224.467832,732.55033344 L286.2028006108674,680.4457547275604" stroke="grey" stroke-width="5" />
<circle cx="286.2028006108674" cy="680.4457547275604" r="2.5" fill="grey" stroke="none" />
<path d="M286.2028006108674,680.4457547275604 A279.7676051043712,279.7676051043712,0,0,0,344.46783199999993,732.5503334399999" stroke="grey" stroke-width="5" fill="none" />
<circle cx="224.467832" cy="732.55033344" r="5" fill="black" stroke="none" />
<circle cx="344.467832" cy="732.55033344" r="5" fill="black" stroke="none" />
<path d="M344.467832,732.55033344 L417.18630508725676,623.8223102847564" stroke="grey" stroke-width="5" />
<circle cx="417.18630508725676" cy="623.8223102847564" r="2.5" fill="grey" stroke="none" />
<path d="M417.18630508725676,623.8223102847564 A148.96332632347938,148.96332632347938,0,0,0,440.46783199999993,636.55033344" stroke="grey" stroke-width="5" fill="none" />
<circle cx="344.467832" cy="732.55033344" r="5" fill="black" stroke="none" />
<circle cx="440.467832" cy="636.55033344" r="5" fill="black" stroke="none" />
<path d="M440.467832,636.55033344 L452.83176240950365,608.1908955635449" stroke="grey" stroke-width="5" />
<circle cx="452.83176240950365" cy="608.1908955635449" r="2.5" fill="grey" stroke="none" />
<path d="M452.83176240950365,608.1908955635449 A118.02589766756873,118.02589766756873,0,0,0,464.467832,612.55033344" stroke="grey" stroke-width="5" fill="none" />
<circle cx="440.467832" cy="636.55033344" r="5" fill="black" stroke="none" />
<circle cx="464.467832" cy="612.55033344" r="5" fill="black" stroke="none" />
<path d="M464.467832,612.55033344 A118.02589766756873,118.02589766756873,0,0,0,470.27790361649795,614.2221935825312" stroke="grey" stroke-width="5" fill="none" />
<path d="M470.27790361649795,614.2221935825312 L464.467832,636.55033344" stroke="grey" stroke-width="5" />
<circle cx="470.27790361649795" cy="614.2221935825312" r="2.5" fill="grey" stroke="none" />
<circle cx="464.467832" cy="612.55033344" r="5" fill="black" stroke="none" />
<circle cx="464.467832" cy="636.55033344" r="5" fill="black" stroke="none" />
<path d="M464.467832,636.55033344 A141.09758511525067,141.09758511525067,0,0,0,484.06203573264065,640.1945427624335" stroke="grey" stroke-width="5" fill="none" />
<path d="M484.06203573264065,640.1945427624335 L464.467832,812.55033344" stroke="grey" stroke-width="5" />
<circle cx="484.06203573264065" cy="640.1945427624335" r="2.5" fill="grey" stroke="none" />
<circle cx="464.467832" cy="636.55033344" r="5" fill="black" stroke="none" />
<circle cx="464.467832" cy="812.55033344" r="5" fill="black" stroke="none" />
<path d="M464.467832,812.55033344 A314.56358005375546,314.56358005375546,0,0,0,559.7494162531785,808.8369361874318" stroke="grey" stroke-width="5" fill="none" />
<path d="M559.7494162531787,808.8369361874318 L560.467832,812.55033344" stroke="grey" stroke-width="5" />
<circle cx="559.7494162531787" cy="808.8369361874318" r="2.5" fill="grey" stroke="none" />
<circle cx="464.467832" cy="812.55033344" r="5" fill="black" stroke="none" />
<circle cx="560.467832" cy="812.55033344" r="5" fill="black" stroke="none" />
<path d="M464.467832,812.55033344 A314.56358005375546,314.56358005375546,0,0,0,469.14926813100317,813.0470862975451" stroke="grey" stroke-width="5" fill="none" />
<path d="M469.1492681310031,813.0470862975451 L464.467832,860.55033344" stroke="grey" stroke-width="5" />
<circle cx="469.1492681310031" cy="813.0470862975451" r="2.5" fill="grey" stroke="none" />
<circle cx="464.467832" cy="812.55033344" r="5" fill="black" stroke="none" />
<circle cx="464.467832" cy="860.55033344" r="5" fill="black" stroke="none" />
<path d="M152.467832,436.55033344000003 L334.75491343904196,469.8308628426848" stroke="grey" stroke-width="5" />
<circle cx="334.75491343904196" cy="469.8308628426848" r="2.5" fill="grey" stroke="none" />
<path d="M334.75491343904196,469.8308628426847 A167.97653249592756,167.97653249592756,0,0,1,344.46783199999993,436.55033344000003" stroke="grey" stroke-width="5" fill="none" />
<circle cx="152.467832" cy="436.55033344000003" r="5" fill="black" stroke="none" />
<circle cx="344.467832" cy="436.55033344000003" r="5" fill="black" stroke="none" />
<path d="M344.46783199999993,436.55033344000003 A167.97653249592756,167.97653249592756,0,0,0,350.8404763085814,577.2499317896433" stroke="grey" stroke-width="5" fill="none" />
<path d="M350.8404763085814,577.2499317896434 L344.467832,580.55033344" stroke="grey" stroke-width="5" />
<circle cx="350.8404763085814" cy="577.2499317896434" r="2.5" fill="grey" stroke="none" />
<circle cx="344.467832" cy="436.55033344000003" r="5" fill="black" stroke="none" />
<circle cx="344.467832" cy="580.55033344" r="5" fill="black" stroke="none" />
<path d="M344.46783199999993,436.55033344000003 A167.97653249592756,167.97653249592756,0,0,1,376.5233921514546,386.11566049903115" stroke="grey" stroke-width="5" fill="none" />
<path d="M376.5233921514546,386.11566049903115 L344.467832,356.55033344000003" stroke="grey" stroke-width="5" />
<circle cx="376.5233921514546" cy="386.11566049903115" r="2.5" fill="grey" stroke="none" />
<circle cx="344.467832" cy="436.55033344000003" r="5" fill="black" stroke="none" />
<circle cx="344.467832" cy="356.55033344000003" r="5" fill="black" stroke="none" />
<path d="M344.46783200000004,356.5503334399999 A211.58464528163523,211.58464528163523,0,0,1,369.8887778600058,333.14937221516817" stroke="grey" stroke-width="5" fill="none" />
<path d="M369.8887778600058,333.14937221516817 L344.467832,300.55033344000003" stroke="grey" stroke-width="5" />
<circle cx="369.8887778600058" cy="333.14937221516817" r="2.5" fill="grey" stroke="none" />
<circle cx="344.467832" cy="356.55033344000003" r="5" fill="black" stroke="none" />
<circle cx="344.467832" cy="300.55033344000003" r="5" fill="black" stroke="none" />
<path d="M344.467832,356.55033344000003 L444.03926600388183,448.38657021616257" stroke="grey" stroke-width="5" />
<circle cx="444.03926600388183" cy="448.38657021616257" r="2.5" fill="grey" stroke="none" />
<path d="M444.0392660038819,448.38657021616257 A76.1285090057293,76.1285090057293,0,0,0,440.467832,452.55033344000003" stroke="grey" stroke-width="5" fill="none" />
<circle cx="344.467832" cy="356.55033344000003" r="5" fill="black" stroke="none" />
<circle cx="440.467832" cy="452.55033344000003" r="5" fill="black" stroke="none" />
<path d="M344.467832,436.55033344000003 L429.51139140489363,471.24402772011865" stroke="grey" stroke-width="5" />
<circle cx="429.51139140489363" cy="471.24402772011865" r="2.5" fill="grey" stroke="none" />
<path d="M429.51139140489363,471.24402772011865 A76.1285090057293,76.1285090057293,0,0,1,440.467832,452.55033344000003" stroke="grey" stroke-width="5" fill="none" />
<circle cx="344.467832" cy="436.55033344000003" r="5" fill="black" stroke="none" />
<circle cx="440.467832" cy="452.55033344000003" r="5" fill="black" stroke="none" />
<path d="M440.467832,452.55033344000003 L478.7891713057748,483.094068588225" stroke="grey" stroke-width="5" />
<circle cx="478.7891713057748" cy="483.094068588225" r="2.5" fill="grey" stroke="none" />
<path d="M478.7891713057748,483.094068588225 A27.123970409868218,27.123970409868218,0,0,0,488.467832,524.55033344" stroke="grey" stroke-width="5" fill="none" />
<circle cx="440.467832" cy="452.55033344000003" r="5" fill="black" stroke="none" />
<circle cx="488.467832" cy="524.55033344" r="5" fill="black" stroke="none" />
<path d="M440.467832,636.55033344 L443.61132133129985,629.3400380522346" stroke="grey" stroke-width="5" />
<circle cx="443.61132133129985" cy="629.3400380522346" r="2.5" fill="grey" stroke="none" />
<path d="M443.6113213312998,629.3400380522346 A141.09758511525067,141.09758511525067,0,0,0,464.467832,636.55033344" stroke="grey" stroke-width="5" fill="none" />
<circle cx="440.467832" cy="636.55033344" r="5" fill="black" stroke="none" />
<circle cx="464.467832" cy="636.55033344" r="5" fill="black" stroke="none" />
<path d="M464.467832,636.55033344 L465.4905389111813,632.6200646837224" stroke="grey" stroke-width="5" />
<circle cx="465.4905389111813" cy="632.6200646837224" r="2.5" fill="grey" stroke="none" />
<path d="M465.4905389111813,632.6200646837224 A137.03643479511354,137.03643479511354,0,0,0,488.46783200000004,636.55033344" stroke="grey" stroke-width="5" fill="none" />
<circle cx="464.467832" cy="636.55033344" r="5" fill="black" stroke="none" />
<circle cx="488.467832" cy="636.55033344" r="5" fill="black" stroke="none" />
<path d="M488.467832,636.55033344 L493.15224699502596,581.0830154524256" stroke="grey" stroke-width="5" />
<circle cx="493.15224699502596" cy="581.0830154524256" r="2.5" fill="grey" stroke="none" />
<path d="M493.15224699502596,581.0830154524256 A81.3716603989092,81.3716603989092,0,0,1,488.467832,580.55033344" stroke="grey" stroke-width="5" fill="none" />
<circle cx="488.467832" cy="636.55033344" r="5" fill="black" stroke="none" />
<circle cx="488.467832" cy="580.55033344" r="5" fill="black" stroke="none" />
<path d="M488.467832,580.55033344 L490.70694086568074,564.9105191623164" stroke="grey" stroke-width="5" />
<circle cx="490.70694086568074" cy="564.9105191623164" r="2.5" fill="grey" stroke="none" />
<path d="M490.70694086568074,564.9105191623164 A65.57237563178116,65.57237563178116,0,0,1,488.467832,564.55033344" stroke="grey" stroke-width="5" fill="none" />
<circle cx="488.467832" cy="580.55033344" r="5" fill="black" stroke="none" />
<circle cx="488.467832" cy="564.55033344" r="5" fill="black" stroke="none" />
<path d="M488.467832,564.55033344 L491.2239177591256,549.1233768832805" stroke="grey" stroke-width="5" />
<circle cx="491.2239177591256" cy="549.1233768832805" r="2.5" fill="grey" stroke="none" />
<path d="M491.2239177591256,549.1233768832805 A49.9011600658282,49.9011600658282,0,0,1,488.467832,548.55033344" stroke="grey" stroke-width="5" fill="none" />
<circle cx="488.467832" cy="564.55033344" r="5" fill="black" stroke="none" />
<circle cx="488.467832" cy="548.55033344" r="5" fill="black" stroke="none" />
<path d="M488.467832,548.55033344 L493.73164505231955,526.3897233226363" stroke="grey" stroke-width="5" />
<circle cx="493.73164505231955" cy="526.3897233226363" r="2.5" fill="grey" stroke="none" />
<path d="M493.73164505231955,526.3897233226363 A27.123970409868218,27.123970409868218,0,0,1,488.467832,524.55033344" stroke="grey" stroke-width="5" fill="none" />
<circle cx="488.467832" cy="548.55033344" r="5" fill="black" stroke="none" />
<circle cx="488.467832" cy="524.55033344" r="5" fill="black" stroke="none" />
<path d="M488.467832,524.55033344 A27.123970409868218,27.123970409868218,0,0,0,522.5003766413092,515.1473701280001" stroke="grey" stroke-width="5" fill="none" />
<path d="M522.5003766413092,515.1473701280001 L536.467832,524.55033344" stroke="grey" stroke-width="5" />
<circle cx="522.5003766413092" cy="515.1473701280001" r="2.5" fill="grey" stroke="none" />
<circle cx="488.467832" cy="524.55033344" r="5" fill="black" stroke="none" />
<circle cx="536.467832" cy="524.55033344" r="5" fill="black" stroke="none" />
<path d="M536.467832,524.55033344 A43.96159281458539,43.96159281458539,0,0,1,521.6239181693553,538.2756816503695" stroke="grey" stroke-width="5" fill="none" />
<path d="M521.6239181693553,538.2756816503695 L536.467832,564.55033344" stroke="grey" stroke-width="5" />
<circle cx="521.6239181693553" cy="538.2756816503695" r="2.5" fill="grey" stroke="none" />
<circle cx="536.467832" cy="524.55033344" r="5" fill="black" stroke="none" />
<circle cx="536.467832" cy="564.55033344" r="5" fill="black" stroke="none" />
<path d="M536.467832,564.55033344 L532.2538742127066,557.0913657593362" stroke="grey" stroke-width="5" />
<circle cx="532.2538742127066" cy="557.0913657593362" r="2.5" fill="grey" stroke="none" />
<path d="M532.2538742127066,557.0913657593362 A65.57237563178116,65.57237563178116,0,0,1,488.467832,564.55033344" stroke="grey" stroke-width="5" fill="none" />
<circle cx="536.467832" cy="564.55033344" r="5" fill="black" stroke="none" />
<circle cx="488.467832" cy="564.55033344" r="5" fill="black" stroke="none" />
<path d="M488.467832,548.55033344 A49.9011600658282,49.9011600658282,0,0,0,540.7059008134337,528.8644316570119" stroke="grey" stroke-width="5" fill="none" />
<path d="M540.7059008134337,528.8644316570119 L568.467832,548.55033344" stroke="grey" stroke-width="5" />
<circle cx="540.7059008134337" cy="528.8644316570119" r="2.5" fill="grey" stroke="none" />
<circle cx="488.467832" cy="548.55033344" r="5" fill="black" stroke="none" />
<circle cx="568.467832" cy="548.55033344" r="5" fill="black" stroke="none" />
<circle cx="500" cy="500" r="5" fill="red" stroke="none" />
</svg>