<?xml version="1.0" encoding="UTF-8"?>
<svg xmlns="http://www.w3.org/2000/svg" xmlns:xlink="http://www.w3.org/1999/xlink"
     width="1000" height="1000" viewBox="0 0 1000 1000">
<defs>
</defs>
<rect x="0" y="0" width="1000" height="1000" fill="white" />
<path d="M188.3146875,294.3189 L224.21528577806993,318.00970045916995" stroke="grey" stroke-width="5" />
<circle cx="224.21528577806993" cy="318.00970045916995" r="2.5" fill="grey" stroke="none" />
<path d="M224.21528577806993,318.00970045916995 A330.4204559730415,330.4204559730415,0,0,0,188.31468750000005,390.3188999999999" stroke="grey" stroke-width="5" fill="none" />
<circle cx="188.3146875" cy="294.3189" r="5" fill="black" stroke="none" />
<circle cx="188.3146875" cy="390.3189" r="5" fill="black" stroke="none" />
<path d="M188.3146875,390.3189 L260.9342989349044,415.873517251183" stroke="grey" stroke-width="5" />
<circle cx="260.9342989349044" cy="415.873517251183" r="2.5" fill="grey" stroke="none" />
<path d="M260.9342989349044,415.873517251183 A253.43574042631136,253.43574042631136,0,0,0,252.31468749999996,446.3189" stroke="grey" stroke-width="5" fill="none" />
<circle cx="188.3146875" cy="390.3189" r="5" fill="black" stroke="none" />
<circle cx="252.3146875" cy="446.3189" r="5" fill="black" stroke="none" />
<path d="M164.3146875,446.3189 L249.74393270756516,459.98031348502354" stroke="grey" stroke-width="5" />
<circle cx="249.74393270756516" cy="459.98031348502354" r="2.5" fill="grey" stroke="none" />
<path d="M249.74393270756516,459.98031348502354 A253.43574042631136,253.43574042631136,0,0,1,252.31468749999996,446.3189" stroke="grey" stroke-width="5" fill="none" />
<circle cx="164.3146875" cy="446.3189" r="5" fill="black" stroke="none" />
<circle cx="252.3146875" cy="446.3189" r="5" fill="black" stroke="none" />
<path d="M252.3146875,446.3189 L326.99844416268405,462.5051896484232" stroke="grey" stroke-width="5" />
<circle cx="326.99844416268405" cy="462.5051896484232" r="2.5" fill="grey" stroke="none" />
<path d="M326.99844416268405,462.5051896484232 A177.018075702547,177.018075702547,0,0,0,324.3146875,478.3189" stroke="grey" stroke-width="5" fill="none" />
<circle cx="252.3146875" cy="446.3189" r="5" fill="black" stroke="none" />
<circle cx="324.3146875" cy="478.3189" r="5" fill="black" stroke="none" />
<path d="M324.3146875,478.3189 L341.416687668701,480.42943599519094" stroke="grey" stroke-width="5" />
<circle cx="341.416687668701" cy="480.42943599519094" r="2.5" fill="grey" stroke="none" />
<path d="M341.416687668701,480.42943599519094 A159.78633835667134,159.78633835667134,0,0,0,340.3146875,494.31890000000004" stroke="grey" stroke-width="5" fill="none" />
<circle cx="324.3146875" cy="478.3189" r="5" fill="black" stroke="none" />
<circle cx="340.3146875" cy="494.3189" r="5" fill="black" stroke="none" />
<path d="M340.3146875,494.3189 L369.7128617471878,495.3647943599819" stroke="grey" stroke-width="5" />
<circle cx="369.7128617471878" cy="495.3647943599819" r="2.5" fill="grey" stroke="none" />
<path d="M369.7128617471878,495.36479435998194 A130.3695651808069,130.3695651808069,0,0,0,372.3146875,526.3189" stroke="grey" stroke-width="5" fill="none" />
<circle cx="340.3146875" cy="494.3189" r="5" fill="black" stroke="none" />
<circle cx="372.3146875" cy="526.3189" r="5" fill="black" stroke="none" />
<path d="M340.3146875,494.31890000000004 A159.78633835667134,159.78633835667134,0,0,0,355.5793450273446,568.3692060996899" stroke="grey" stroke-width="5" fill="none" />
<path d="M355.5793450273446,568.3692060996899 L292.3146875,598.3189" stroke="grey" stroke-width="5" />
<circle cx="355.5793450273446" cy="568.3692060996899" r="2.5" fill="grey" stroke="none" />
<circle cx="340.3146875" cy="494.3189" r="5" fill="black" stroke="none" />
<circle cx="292.3146875" cy="598.3189" r="5" fill="black" stroke="none" />
<path d="M292.3146875,598.3189 A229.7820600600331,229.7820600600331,0,0,0,325.66215919084556,649.6867141313303" stroke="grey" stroke-width="5" fill="none" />
<path d="M325.6621591908456,649.6867141313303 L292.3146875,678.3189" stroke="grey" stroke-width="5" />
<circle cx="325.6621591908456" cy="649.6867141313303" r="2.5" fill="grey" stroke="none" />
<circle cx="292.3146875" cy="598.3189" r="5" fill="black" stroke="none" />
<circle cx="292.3146875" cy="678.3189" r="5" fill="black" stroke="none" />
<path d="M188.3146875,694.3189 L267.71112023768785,644.8195272199255" stroke="grey" stroke-width="5" />
<circle cx="267.71112023768785" cy="644.8195272199255" r="2.5" fill="grey" stroke="none" />
<path d="M267.71112023768785,644.8195272199255 A273.73494319401874,273.73494319401874,0,0,0,292.3146874999999,678.3188999999999" stroke="grey" stroke-width="5" fill="none" />
<circle cx="188.3146875" cy="694.3189" r="5" fill="black" stroke="none" />
<circle cx="292.3146875" cy="678.3189" r="5" fill="black" stroke="none" />
<path d="M292.3146874999999,678.3188999999999 A273.73494319401874,273.73494319401874,0,0,0,343.59895385452324,724.6542496594113" stroke="grey" stroke-width="5" fill="none" />
<path d="M343.59895385452324,724.6542496594113 L292.3146875,798.3189" stroke="grey" stroke-width="5" />
<circle cx="343.59895385452324" cy="724.6542496594113" r="2.5" fill="grey" stroke="none" />
<circle cx="292.3146875" cy="678.3189" r="5" fill="black" stroke="none" />
<circle cx="292.3146875" cy="798.3189" r="5" fill="black" stroke="none" />
<path d="M292.3146875,598.3189 L354.3445115602524,568.9537802648355" stroke="grey" stroke-width="5" />
<circle cx="354.3445115602524" cy="568.9537802648355" r="2.5" fill="grey" stroke="none" />
<path d="M354.3445115602524,568.9537802648355 A161.15255233918157,161.15255233918157,0,0,0,372.31468750000005,598.3189" stroke="grey" stroke-width="5" fill="none" />
<circle cx="292.3146875" cy="598.3189" r="5" fill="black" stroke="none" />
<circle cx="372.3146875" cy="598.3189" r="5" fill="black" stroke="none" />
<path d="M372.3146875,526.3189 A130.3695651808069,130.3695651808069,0,0,0,396.7048400476796,579.5382515262763" stroke="grey" stroke-width="5" fill="none" />
<path d="M396.70484004767957,579.5382515262763 L372.3146875,598.3189" stroke="grey" stroke-width="5" />
<circle cx="396.70484004767957" cy="579.5382515262763" r="2.5" fill="grey" stroke="none" />
<circle cx="372.3146875" cy="526.3189" r="5" fill="black" stroke="none" />
<circle cx="372.3146875" cy="598.3189" r="5" fill="black" stroke="none" />
<path d="M372.3146875,598.3189 L410.47259208956666,568.9369520523757" stroke="grey" stroke-width="5" />
<circle cx="410.47259208956666" cy="568.9369520523757" r="2.5" fill="grey" stroke="none" />
<path d="M410.4725920895667,568.9369520523757 A112.99318619028607,112.99318619028607,0,0,0,444.3146875,598.3189" stroke="grey" stroke-width="5" fill="none" />
<circle cx="372.3146875" cy="598.3189" r="5" fill="black" stroke="none" />
<circle cx="444.3146875" cy="598.3189" r="5" fill="black" stroke="none" />
<path d="M372.3146875,526.3189 L410.3349959671444,518.4820339037846" stroke="grey" stroke-width="5" />
<circle cx="410.3349959671444" cy="518.4820339037846" r="2.5" fill="grey" stroke="none" />
<path d="M410.3349959671444,518.4820339037846 A91.549978292912,91.549978292912,0,0,0,412.3146875,526.3189" stroke="grey" stroke-width="5" fill="none" />
<circle cx="372.3146875" cy="526.3189" r="5" fill="black" stroke="none" />
<circle cx="412.3146875" cy="526.3189" r="5" fill="black" stroke="none" />
<path d="M444.3146875,598.3189 L467.142042614392,558.0145478468826" stroke="grey" stroke-width="5" />
<circle cx="467.142042614392" cy="558.0145478468826" r="2.5" fill="grey" stroke="none" />
<path d="M467.142042614392,558.0145478468826 A66.67333144093412,66.67333144093412,0,0,0,532.3146875,558.3189" stroke="grey" stroke-width="5" fill="none" />
<circle cx="444.3146875" cy="598.3189" r="5" fill="black" stroke="none" />
<circle cx="532.3146875" cy="558.3189" r="5" fill="black" stroke="none" />
<path d="M412.3146875,526.3189 L440.4627500748933,517.8702097578074" stroke="grey" stroke-width="5" />
<circle cx="440.4627500748933" cy="517.8702097578074" r="2.5" fill="grey" stroke="none" />
<path d="M440.4627500748933,517.8702097578074 A62.16131051894462,62.16131051894462,0,0,0,556.3146875,526.3189" stroke="grey" stroke-width="5" fill="none" />
<circle cx="412.3146875" cy="526.3189" r="5" fill="black" stroke="none" />
<circle cx="556.3146875" cy="526.3189" r="5" fill="black" stroke="none" />
<path d="M532.3146875,558.3189 L530.1278379315677,554.3722530984495" stroke="grey" stroke-width="5" />
<circle cx="530.1278379315677" cy="554.3722530984495" r="2.5" fill="grey" stroke="none" />
<path d="M530.1278379315677,554.3722530984495 A62.16131051894462,62.16131051894462,0,0,0,556.3146875,526.3189" stroke="grey" stroke-width="5" fill="none" />
<circle cx="532.3146875" cy="558.3189" r="5" fill="black" stroke="none" />
<circle cx="556.3146875" cy="526.3189" r="5" fill="black" stroke="none" />
<path d="M292.3146875,678.3189 L349.2355293256478,629.4465855390363" stroke="grey" stroke-width="5" />
<circle cx="349.2355293256478" cy="629.4465855390363" r="2.5" fill="grey" stroke="none" />
<path d="M349.2355293256477,629.4465855390363 A198.71171109281067,198.71171109281067,0,0,0,412.3146875,678.3189" stroke="grey" stroke-width="5" fill="none" />
<circle cx="292.3146875" cy="678.3189" r="5" fill="black" stroke="none" />
<circle cx="412.3146875" cy="678.3189" r="5" fill="black" stroke="none" />
<path d="M412.3146875,678.3189 L463.49039796854504,574.2467796267113" stroke="grey" stroke-width="5" />
<circle cx="463.49039796854504" cy="574.2467796267113" r="2.5" fill="grey" stroke="none" />
<path d="M463.49039796854504,574.2467796267113 A82.73775030439644,82.73775030439644,0,0,0,508.3146875,582.3189" stroke="grey" stroke-width="5" fill="none" />
<circle cx="412.3146875" cy="678.3189" r="5" fill="black" stroke="none" />
<circle cx="508.3146875" cy="582.3189" r="5" fill="black" stroke="none" />
<path d="M508.3146875,582.3189 L506.70030202024765,566.3358054015334" stroke="grey" stroke-width="5" />
<circle cx="506.70030202024765" cy="566.3358054015334" r="2.5" fill="grey" stroke="none" />
<path d="M506.70030202024765,566.3358054015334 A66.67333144093412,66.67333144093412,0,0,0,532.3146875,558.3189" stroke="grey" stroke-width="5" fill="none" />
<circle cx="508.3146875" cy="582.3189" r="5" fill="black" stroke="none" />
<circle cx="532.3146875" cy="558.3189" r="5" fill="black" stroke="none" />
<path d="M532.3146875,558.3189 A66.67333144093412,66.67333144093412,0,0,1,524.3630109182261,562.0626846376392" stroke="grey" stroke-width="5" fill="none" />
<path d="M524.3630109182261,562.0626846376392 L532.3146875,582.3189" stroke="grey" stroke-width="5" />
<circle cx="524.3630109182261" cy="562.0626846376392" r="2.5" fill="grey" stroke="none" />
<circle cx="532.3146875" cy="558.3189" r="5" fill="black" stroke="none" />
<circle cx="532.3146875" cy="582.3189" r="5" fill="black" stroke="none" />
<path d="M532.3146875,582.3189 A88.43438429385175,88.43438429385175,0,0,1,510.9772386026289,587.7504447743349" stroke="grey" stroke-width="5" fill="none" />
<path d="M510.9772386026289,587.7504447743349 L532.3146875,758.3189" stroke="grey" stroke-width="5" />
<circle cx="510.9772386026289" cy="587.7504447743349" r="2.5" fill="grey" stroke="none" />
<circle cx="532.3146875" cy="582.3189" r="5" fill="black" stroke="none" />
<circle cx="532.3146875" cy="758.3189" r="5" fill="black" stroke="none" />
<path d="M532.3146875,758.3189 A260.33227445983846,260.33227445983846,0,0,0,615.8137630988347,733.1524509893037" stroke="grey" stroke-width="5" fill="none" />
<path d="M615.8137630988347,733.1524509893037 L628.3146875,758.3189" stroke="grey" stroke-width="5" />
<circle cx="615.8137630988347" cy="733.1524509893037" r="2.5" fill="grey" stroke="none" />
<circle cx="532.3146875" cy="758.3189" r="5" fill="black" stroke="none" />
<circle cx="628.3146875" cy="758.3189" r="5" fill="black" stroke="none" />
<path d="M532.3146875,758.3189 A260.33227445983846,260.33227445983846,0,0,1,527.3118373281422,758.8956482198837" stroke="grey" stroke-width="5" fill="none" />
<path d="M527.3118373281422,758.8956482198837 L532.3146875,806.3189" stroke="grey" stroke-width="5" />
<circle cx="527.3118373281422" cy="758.8956482198837" r="2.5" fill="grey" stroke="none" />
<circle cx="532.3146875" cy="758.3189" r="5" fill="black" stroke="none" />
<circle cx="532.3146875" cy="806.3189" r="5" fill="black" stroke="none" />
<path d="M220.3146875,382.3189 L364.7297203945318,443.0833347701122" stroke="grey" stroke-width="5" />
<circle cx="364.7297203945318" cy="443.0833347701122" r="2.5" fill="grey" stroke="none" />
<path d="M364.7297203945318,443.0833347701122 A146.75678970811762,146.75678970811762,0,0,1,412.3146875,382.3189" stroke="grey" stroke-width="5" fill="none" />
<circle cx="220.3146875" cy="382.3189" r="5" fill="black" stroke="none" />
<circle cx="412.3146875" cy="382.3189" r="5" fill="black" stroke="none" />
<path d="M412.3146875,382.3189 L445.30005411028577,426.58804971195093" stroke="grey" stroke-width="5" />
<circle cx="445.30005411028577" cy="426.58804971195093" r="2.5" fill="grey" stroke="none" />
<path d="M445.30005411028577,426.58804971195093 A91.549978292912,91.549978292912,0,0,0,412.3146875,526.3189" stroke="grey" stroke-width="5" fill="none" />
<circle cx="412.3146875" cy="382.3189" r="5" fill="black" stroke="none" />
<circle cx="412.3146875" cy="526.3189" r="5" fill="black" stroke="none" />
<path d="M412.3146875,382.3189 A146.75678970811762,146.75678970811762,0,0,1,440.4944494891471,365.8484260851443" stroke="grey" stroke-width="5" fill="none" />
<path d="M440.4944494891471,365.8484260851443 L412.3146875,302.3189" stroke="grey" stroke-width="5" />
<circle cx="440.4944494891471" cy="365.8484260851443" r="2.5" fill="grey" stroke="none" />
<circle cx="412.3146875" cy="382.3189" r="5" fill="black" stroke="none" />
<circle cx="412.3146875" cy="302.3189" r="5" fill="black" stroke="none" />
<path d="M412.3146875,302.3189 A216.25570819155888,216.25570819155888,0,0,1,429.3521258352331,295.6096646085439" stroke="grey" stroke-width="5" fill="none" />
<path d="M429.3521258352331,295.6096646085439 L412.3146875,246.31889999999999" stroke="grey" stroke-width="5" />
<circle cx="429.3521258352331" cy="295.6096646085439" r="2.5" fill="grey" stroke="none" />
<circle cx="412.3146875" cy="302.3189" r="5" fill="black" stroke="none" />
<circle cx="412.3146875" cy="246.31889999999999" r="5" fill="black" stroke="none" />
<path d="M412.3146875,302.3189 L458.6337002961371,406.7422422838569" stroke="grey" stroke-width="5" />
<circle cx="458.6337002961371" cy="406.7422422838569" r="2.5" fill="grey" stroke="none" />
<path d="M458.6337002961371,406.74224228385685 A102.02048875315516,102.02048875315516,0,0,1,508.3146875,398.3189" stroke="grey" stroke-width="5" fill="none" />
<circle cx="412.3146875" cy="302.3189" r="5" fill="black" stroke="none" />
<circle cx="508.3146875" cy="398.3189" r="5" fill="black" stroke="none" />
<path d="M412.3146875,382.3189 L439.0440574809853,418.19197351695107" stroke="grey" stroke-width="5" />
<circle cx="439.0440574809853" cy="418.19197351695107" r="2.5" fill="grey" stroke="none" />
<path d="M439.0440574809853,418.19197351695107 A102.02048875315516,102.02048875315516,0,0,1,508.3146875,398.3189" stroke="grey" stroke-width="5" fill="none" />
<circle cx="412.3146875" cy="382.3189" r="5" fill="black" stroke="none" />
<circle cx="508.3146875" cy="398.3189" r="5" fill="black" stroke="none" />
<path d="M508.3146875,398.3189 L505.18811930665197,436.5539982071951" stroke="grey" stroke-width="5" />
<circle cx="505.18811930665197" cy="436.5539982071951" r="2.5" fill="grey" stroke="none" />
<path d="M505.18811930665197,436.5539982071951 A63.65777034606739,63.65777034606739,0,0,1,556.3146875,470.3189" stroke="grey" stroke-width="5" fill="none" />
<circle cx="508.3146875" cy="398.3189" r="5" fill="black" stroke="none" />
<circle cx="556.3146875" cy="470.3189" r="5" fill="black" stroke="none" />
<path d="M508.3146875,582.3189 A82.73775030439644,82.73775030439644,0,0,0,530.2330882596023,577.0162041373097" stroke="grey" stroke-width="5" fill="none" />
<path d="M530.2330882596023,577.0162041373097 L532.3146875,582.3189" stroke="grey" stroke-width="5" />
<circle cx="530.2330882596023" cy="577.0162041373097" r="2.5" fill="grey" stroke="none" />
<circle cx="508.3146875" cy="582.3189" r="5" fill="black" stroke="none" />
<circle cx="532.3146875" cy="582.3189" r="5" fill="black" stroke="none" />
<path d="M532.3146875,582.3189 A88.43438429385175,88.43438429385175,0,0,0,549.9321775166502,572.9891634003185" stroke="grey" stroke-width="5" fill="none" />
<path d="M549.9321775166502,572.9891634003185 L556.3146875,582.3189" stroke="grey" stroke-width="5" />
<circle cx="549.9321775166502" cy="572.9891634003185" r="2.5" fill="grey" stroke="none" />
<circle cx="532.3146875" cy="582.3189" r="5" fill="black" stroke="none" />
<circle cx="556.3146875" cy="582.3189" r="5" fill="black" stroke="none" />
<path d="M556.3146875,582.3189 L535.0977689988321,551.304728210344" stroke="grey" stroke-width="5" />
<circle cx="535.0977689988321" cy="551.304728210344" r="2.5" fill="grey" stroke="none" />
<path d="M535.0977689988321,551.304728210344 A62.16131051894462,62.16131051894462,0,0,0,556.3146875,526.3189" stroke="grey" stroke-width="5" fill="none" />
<circle cx="556.3146875" cy="582.3189" r="5" fill="black" stroke="none" />
<circle cx="556.3146875" cy="526.3189" r="5" fill="black" stroke="none" />
<path d="M556.3146875,526.3189 L551.8673803488261,524.2404327763112" stroke="grey" stroke-width="5" />
<circle cx="551.8673803488261" cy="524.2404327763112" r="2.5" fill="grey" stroke="none" />
<path d="M551.8673803488261,524.2404327763112 A57.25228139937006,57.25228139937006,0,0,0,556.3146875,510.3189" stroke="grey" stroke-width="5" fill="none" />
<circle cx="556.3146875" cy="526.3189" r="5" fill="black" stroke="none" />
<circle cx="556.3146875" cy="510.3189" r="5" fill="black" stroke="none" />
<path d="M556.3146875,510.3189 L555.6736002244141,510.2014294824189" stroke="grey" stroke-width="5" />
<circle cx="555.6736002244141" cy="510.2014294824189" r="2.5" fill="grey" stroke="none" />
<path d="M555.6736002244141,510.2014294824189 A56.600520540297644,56.600520540297644,0,0,0,556.3146875,494.3189" stroke="grey" stroke-width="5" fill="none" />
<circle cx="556.3146875" cy="510.3189" r="5" fill="black" stroke="none" />
<circle cx="556.3146875" cy="494.3189" r="5" fill="black" stroke="none" />
<path d="M556.3146875,494.3189 A56.600520540297644,56.600520540297644,0,0,0,550.0715090905019,473.6094163984112" stroke="grey" stroke-width="5" fill="none" />
<path d="M550.0715090905019,473.6094163984112 L556.3146875,470.3189" stroke="grey" stroke-width="5" />
<circle cx="550.0715090905019" cy="473.6094163984112" r="2.5" fill="grey" stroke="none" />
<circle cx="556.3146875" cy="494.3189" r="5" fill="black" stroke="none" />
<circle cx="556.3146875" cy="470.3189" r="5" fill="black" stroke="none" />
<path d="M556.3146875,470.3189 A63.65777034606739,63.65777034606739,0,0,1,561.2275194842053,482.5786744693776" stroke="grey" stroke-width="5" fill="none" />
<path d="M561.2275194842053,482.5786744693776 L604.3146875,470.3189" stroke="grey" stroke-width="5" />
<circle cx="561.2275194842053" cy="482.5786744693776" r="2.5" fill="grey" stroke="none" />
<circle cx="556.3146875" cy="470.3189" r="5" fill="black" stroke="none" />
<circle cx="604.3146875" cy="470.3189" r="5" fill="black" stroke="none" />
<path d="M604.3146875,470.3189 L600.8219827448481,471.3126940820475" stroke="grey" stroke-width="5" />
<circle cx="600.8219827448481" cy="471.3126940820475" r="2.5" fill="grey" stroke="none" />
<path d="M600.8219827448481,471.3126940820475 A104.82382231836738,104.82382231836738,0,0,1,604.3146875,510.3189" stroke="grey" stroke-width="5" fill="none" />
<circle cx="604.3146875" cy="470.3189" r="5" fill="black" stroke="none" />
<circle cx="604.3146875" cy="510.3189" r="5" fill="black" stroke="none" />
<path d="M604.3146875,510.3189 L556.9742040573432,505.63593802883526" stroke="grey" stroke-width="5" />
<circle cx="556.9742040573432" cy="505.63593802883526" r="2.5" fill="grey" stroke="none" />
<path d="M556.9742040573432,505.63593802883526 A57.25228139937006,57.25228139937006,0,0,1,556.3146875,510.3189" stroke="grey" stroke-width="5" fill="none" />
<circle cx="604.3146875" cy="510.3189" r="5" fill="black" stroke="none" />
<circle cx="556.3146875" cy="510.3189" r="5" fill="black" stroke="none" />
<path d="M556.3146875,494.3189 A56.600520540297644,56.600520540297644,0,0,1,556.5514292223172,497.6431422728757" stroke="grey" stroke-width="5" fill="none" />
<path d="M556.5514292223172,497.6431422728757 L636.3146875,494.3189" stroke="grey" stroke-width="5" />
<circle cx="556.5514292223172" cy="497.6431422728757" r="2.5" fill="grey" stroke="none" />
<circle cx="556.3146875" cy="494.3189" r="5" fill="black" stroke="none" />
<circle cx="636.3146875" cy="494.3189" r="5" fill="black" stroke="none" />
<circle cx="500" cy="500" r="5" fill="red" stroke="none" />
</svg>