<?xml version="1.0" encoding="UTF-8"?>
<svg xmlns="http://www.w3.org/2000/svg" xmlns:xlink="http://www.w3.org/1999/xlink"
     width="1000" height="1000" viewBox="0 0 1000 1000">
<defs>
</defs>
<rect x="0" y="0" width="1000" height="1000" fill="white" />
<path d="M221.45968750000003,272.7629 L261.4150465038291,305.3590431865954" stroke="grey" stroke-width="5" />
<circle cx="261.4150465038291" cy="305.3590431865954" r="2.5" fill="grey" stroke="none" />
<path d="M261.4150465038291,305.3590431865954 A307.9088860426208,307.9088860426208,0,0,0,221.45968749999997,368.76290000000006" stroke="grey" stroke-width="5" fill="none" />
<circle cx="221.45968750000003" cy="272.7629" r="5" fill="black" stroke="none" />
<circle cx="221.45968750000003" cy="368.7629" r="5" fill="black" stroke="none" />
<path d="M221.45968750000003,368.7629 L294.3345210988364,403.0986187283038" stroke="grey" stroke-width="5" />
<circle cx="294.3345210988364" cy="403.0986187283038" r="2.5" fill="grey" stroke="none" />
<path d="M294.33452109883626,403.09861872830385 A227.3503175806175,227.3503175806175,0,0,0,285.45968750000003,424.7629" stroke="grey" stroke-width="5" fill="none" />
<circle cx="221.45968750000003" cy="368.7629" r="5" fill="black" stroke="none" />
<circle cx="285.45968750000003" cy="424.7629" r="5" fill="black" stroke="none" />
<path d="M197.45968750000003,424.7629 L279.36967440855415,445.13264783662123" stroke="grey" stroke-width="5" />
<circle cx="279.36967440855415" cy="445.13264783662123" r="2.5" fill="grey" stroke="none" />
<path d="M279.36967440855415,445.13264783662123 A227.3503175806175,227.3503175806175,0,0,1,285.45968750000003,424.7629" stroke="grey" stroke-width="5" fill="none" />
<circle cx="197.45968750000003" cy="424.7629" r="5" fill="black" stroke="none" />
<circle cx="285.45968750000003" cy="424.7629" r="5" fill="black" stroke="none" />
<path d="M285.45968750000003,424.7629 L359.43911901769434,450.7067322904462" stroke="grey" stroke-width="5" />
<circle cx="359.43911901769434" cy="450.7067322904462" r="2.5" fill="grey" stroke="none" />
<path d="M359.43911901769434,450.7067322904462 A148.9536421307235,148.9536421307235,0,0,0,357.4596875,456.76290000000006" stroke="grey" stroke-width="5" fill="none" />
<circle cx="285.45968750000003" cy="424.7629" r="5" fill="black" stroke="none" />
<circle cx="357.45968750000003" cy="456.7629" r="5" fill="black" stroke="none" />
<path d="M357.45968750000003,456.7629 L376.1346434472242,462.42761985099463" stroke="grey" stroke-width="5" />
<circle cx="376.1346434472242" cy="462.42761985099463" r="2.5" fill="grey" stroke="none" />
<path d="M376.1346434472242,462.4276198509947 A129.4384421414583,129.4384421414583,0,0,0,373.45968750000003,472.7629" stroke="grey" stroke-width="5" fill="none" />
<circle cx="357.45968750000003" cy="456.7629" r="5" fill="black" stroke="none" />
<circle cx="373.45968750000003" cy="472.7629" r="5" fill="black" stroke="none" />
<path d="M373.45968750000003,472.7629 L407.4592314153665,480.0811131392099" stroke="grey" stroke-width="5" />
<circle cx="407.4592314153665" cy="480.0811131392099" r="2.5" fill="grey" stroke="none" />
<path d="M407.4592314153665,480.0811131392099 A94.66021288803259,94.66021288803259,0,0,0,405.45968750000003,504.7629" stroke="grey" stroke-width="5" fill="none" />
<circle cx="373.45968750000003" cy="472.7629" r="5" fill="black" stroke="none" />
<circle cx="405.45968750000003" cy="504.7629" r="5" fill="black" stroke="none" />
<path d="M373.45968750000003,472.7629 A129.4384421414583,129.4384421414583,0,0,0,381.5143319105932,552.1100447266607" stroke="grey" stroke-width="5" fill="none" />
<path d="M381.5143319105932,552.1100447266607 L325.45968750000003,576.7629" stroke="grey" stroke-width="5" />
<circle cx="381.5143319105932" cy="552.1100447266607" r="2.5" fill="grey" stroke="none" />
<circle cx="373.45968750000003" cy="472.7629" r="5" fill="black" stroke="none" />
<circle cx="325.45968750000003" cy="576.7629" r="5" fill="black" stroke="none" />
<path d="M325.45968750000003,576.7629000000001 A190.674758434376,190.674758434376,0,0,0,358.1419542213001,627.4094123362004" stroke="grey" stroke-width="5" fill="none" />
<path d="M358.1419542213001,627.4094123362004 L325.45968750000003,656.7629" stroke="grey" stroke-width="5" />
<circle cx="358.1419542213001" cy="627.4094123362004" r="2.5" fill="grey" stroke="none" />
<circle cx="325.45968750000003" cy="576.7629" r="5" fill="black" stroke="none" />
<circle cx="325.45968750000003" cy="656.7629" r="5" fill="black" stroke="none" />
<path d="M221.45968750000003,672.7629 L300.6313975075294,623.657138266284" stroke="grey" stroke-width="5" />
<circle cx="300.6313975075294" cy="623.657138266284" r="2.5" fill="grey" stroke="none" />
<path d="M300.6313975075293,623.6571382662839 A234.6037670285958,234.6037670285958,0,0,0,325.45968750000003,656.7629000000001" stroke="grey" stroke-width="5" fill="none" />
<circle cx="221.45968750000003" cy="672.7629" r="5" fill="black" stroke="none" />
<circle cx="325.45968750000003" cy="656.7629" r="5" fill="black" stroke="none" />
<path d="M325.45968750000003,656.7629000000001 A234.6037670285958,234.6037670285958,0,0,0,374.8551428840388,698.4381320246522" stroke="grey" stroke-width="5" fill="none" />
<path d="M374.8551428840388,698.4381320246522 L325.45968750000003,776.7629" stroke="grey" stroke-width="5" />
<circle cx="374.8551428840388" cy="698.4381320246522" r="2.5" fill="grey" stroke="none" />
<circle cx="325.45968750000003" cy="656.7629" r="5" fill="black" stroke="none" />
<circle cx="325.45968750000003" cy="776.7629" r="5" fill="black" stroke="none" />
<path d="M325.45968750000003,576.7629 L388.5245653213255,549.0269412385499" stroke="grey" stroke-width="5" />
<circle cx="388.5245653213255" cy="549.0269412385499" r="2.5" fill="grey" stroke="none" />
<path d="M388.5245653213255,549.0269412385499 A121.78018518629231,121.78018518629231,0,0,0,405.4596875000001,576.7629000000001" stroke="grey" stroke-width="5" fill="none" />
<circle cx="325.45968750000003" cy="576.7629" r="5" fill="black" stroke="none" />
<circle cx="405.45968750000003" cy="576.7629" r="5" fill="black" stroke="none" />
<path d="M405.45968750000003,504.7629 A94.66021288803259,94.66021288803259,0,0,0,426.5134463865271,559.6681015453134" stroke="grey" stroke-width="5" fill="none" />
<path d="M426.5134463865271,559.6681015453134 L405.45968750000003,576.7629" stroke="grey" stroke-width="5" />
<circle cx="426.5134463865271" cy="559.6681015453134" r="2.5" fill="grey" stroke="none" />
<circle cx="405.45968750000003" cy="504.7629" r="5" fill="black" stroke="none" />
<circle cx="405.45968750000003" cy="576.7629" r="5" fill="black" stroke="none" />
<path d="M405.45968750000003,576.7629 L437.8915007324249,550.4295828134368" stroke="grey" stroke-width="5" />
<circle cx="437.8915007324249" cy="550.4295828134368" r="2.5" fill="grey" stroke="none" />
<path d="M437.8915007324249,550.4295828134368 A80.00380305965245,80.00380305965245,0,0,0,477.45968750000003,576.7629" stroke="grey" stroke-width="5" fill="none" />
<circle cx="405.45968750000003" cy="576.7629" r="5" fill="black" stroke="none" />
<circle cx="477.45968750000003" cy="576.7629" r="5" fill="black" stroke="none" />
<path d="M405.45968750000003,504.7629 L445.3214609198198,502.7546811185439" stroke="grey" stroke-width="5" />
<circle cx="445.3214609198198" cy="502.7546811185439" r="2.5" fill="grey" stroke="none" />
<path d="M445.3214609198198,502.7546811185439 A54.747884927252244,54.747884927252244,0,0,0,445.45968750000003,504.7629" stroke="grey" stroke-width="5" fill="none" />
<circle cx="405.45968750000003" cy="504.7629" r="5" fill="black" stroke="none" />
<circle cx="445.45968750000003" cy="504.7629" r="5" fill="black" stroke="none" />
<path d="M477.45968750000003,576.7629 L478.84790716781947,572.035203010934" stroke="grey" stroke-width="5" />
<circle cx="478.84790716781947" cy="572.035203010934" r="2.5" fill="grey" stroke="none" />
<path d="M478.84790716781947,572.035203010934 A75.0765043406235,75.0765043406235,0,0,0,565.4596875,536.7629" stroke="grey" stroke-width="5" fill="none" />
<circle cx="477.45968750000003" cy="576.7629" r="5" fill="black" stroke="none" />
<circle cx="565.4596875" cy="536.7629" r="5" fill="black" stroke="none" />
<path d="M445.45968750000003,504.7629 A54.747884927252244,54.747884927252244,0,0,0,554.6704559647766,502.91069555451594" stroke="grey" stroke-width="5" fill="none" />
<path d="M554.6704559647766,502.91069555451594 L589.4596875,504.7629" stroke="grey" stroke-width="5" />
<circle cx="554.6704559647766" cy="502.91069555451594" r="2.5" fill="grey" stroke="none" />
<circle cx="445.45968750000003" cy="504.7629" r="5" fill="black" stroke="none" />
<circle cx="589.4596875" cy="504.7629" r="5" fill="black" stroke="none" />
<path d="M565.4596875,536.7629 A75.0765043406235,75.0765043406235,0,0,0,574.9703249723225,503.9914756108518" stroke="grey" stroke-width="5" fill="none" />
<path d="M574.9703249723225,503.9914756108518 L589.4596875,504.7629" stroke="grey" stroke-width="5" />
<circle cx="574.9703249723225" cy="503.9914756108518" r="2.5" fill="grey" stroke="none" />
<circle cx="565.4596875" cy="536.7629" r="5" fill="black" stroke="none" />
<circle cx="589.4596875" cy="504.7629" r="5" fill="black" stroke="none" />
<path d="M325.45968750000003,656.7629 L376.51458156324634,610.9080877912315" stroke="grey" stroke-width="5" />
<circle cx="376.51458156324634" cy="610.9080877912315" r="2.5" fill="grey" stroke="none" />
<path d="M376.51458156324634,610.9080877912315 A165.97967497259313,165.97967497259313,0,0,0,445.4596875,656.7629" stroke="grey" stroke-width="5" fill="none" />
<circle cx="325.45968750000003" cy="656.7629" r="5" fill="black" stroke="none" />
<circle cx="445.45968750000003" cy="656.7629" r="5" fill="black" stroke="none" />
<path d="M445.45968750000003,656.7629 L475.82853840785526,569.4750037675935" stroke="grey" stroke-width="5" />
<circle cx="475.82853840785526" cy="569.4750037675935" r="2.5" fill="grey" stroke="none" />
<path d="M475.82853840785526,569.4750037675935 A73.55974241395668,73.55974241395668,0,0,0,541.4596875,560.7629" stroke="grey" stroke-width="5" fill="none" />
<circle cx="445.45968750000003" cy="656.7629" r="5" fill="black" stroke="none" />
<circle cx="541.4596875" cy="560.7629" r="5" fill="black" stroke="none" />
<path d="M541.4596875,560.7629 A73.55974241395668,73.55974241395668,0,0,0,564.1372130107638,536.020183386812" stroke="grey" stroke-width="5" fill="none" />
<path d="M564.1372130107638,536.020183386812 L565.4596875,536.7629" stroke="grey" stroke-width="5" />
<circle cx="564.1372130107638" cy="536.020183386812" r="2.5" fill="grey" stroke="none" />
<circle cx="541.4596875" cy="560.7629" r="5" fill="black" stroke="none" />
<circle cx="565.4596875" cy="536.7629" r="5" fill="black" stroke="none" />
<path d="M565.4596875,536.7629 A75.0765043406235,75.0765043406235,0,0,1,555.0244149323848,551.0763669944957" stroke="grey" stroke-width="5" fill="none" />
<path d="M555.0244149323848,551.0763669944957 L565.4596875,560.7629" stroke="grey" stroke-width="5" />
<circle cx="555.0244149323848" cy="551.0763669944957" r="2.5" fill="grey" stroke="none" />
<circle cx="565.4596875" cy="536.7629" r="5" fill="black" stroke="none" />
<circle cx="565.4596875" cy="560.7629" r="5" fill="black" stroke="none" />
<path d="M565.4596875,560.7629 A89.31461640743726,89.31461640743726,0,0,1,523.8005999638458,586.0850285785434" stroke="grey" stroke-width="5" fill="none" />
<path d="M523.8005999638458,586.0850285785434 L565.4596875,736.7629" stroke="grey" stroke-width="5" />
<circle cx="523.8005999638458" cy="586.0850285785434" r="2.5" fill="grey" stroke="none" />
<circle cx="565.4596875" cy="560.7629" r="5" fill="black" stroke="none" />
<circle cx="565.4596875" cy="736.7629" r="5" fill="black" stroke="none" />
<path d="M565.4596875,736.7629 A245.64535717983284,245.64535717983284,0,0,0,638.3988854884168,702.946766418122" stroke="grey" stroke-width="5" fill="none" />
<path d="M638.3988854884168,702.946766418122 L661.4596875,736.7629" stroke="grey" stroke-width="5" />
<circle cx="638.3988854884168" cy="702.946766418122" r="2.5" fill="grey" stroke="none" />
<circle cx="565.4596875" cy="736.7629" r="5" fill="black" stroke="none" />
<circle cx="661.4596875" cy="736.7629" r="5" fill="black" stroke="none" />
<path d="M565.4596875,736.7629 A245.64535717983284,245.64535717983284,0,0,1,555.0322709854477,739.4015260063977" stroke="grey" stroke-width="5" fill="none" />
<path d="M555.0322709854477,739.4015260063977 L565.4596875,784.7629" stroke="grey" stroke-width="5" />
<circle cx="555.0322709854477" cy="739.4015260063977" r="2.5" fill="grey" stroke="none" />
<circle cx="565.4596875" cy="736.7629" r="5" fill="black" stroke="none" />
<circle cx="565.4596875" cy="784.7629" r="5" fill="black" stroke="none" />
<path d="M253.45968750000003,360.7629 L369.7924882931264,426.46348118715423" stroke="grey" stroke-width="5" />
<circle cx="369.7924882931264" cy="426.46348118715423" r="2.5" fill="grey" stroke="none" />
<path d="M369.7924882931264,426.46348118715423 A149.5380075566331,149.5380075566331,0,0,1,445.45968750000003,360.7629" stroke="grey" stroke-width="5" fill="none" />
<circle cx="253.45968750000003" cy="360.7629" r="5" fill="black" stroke="none" />
<circle cx="445.45968750000003" cy="360.7629" r="5" fill="black" stroke="none" />
<path d="M445.45968750000003,360.7629 L480.03205471682156,449.02341650153824" stroke="grey" stroke-width="5" />
<circle cx="480.03205471682156" cy="449.02341650153824" r="2.5" fill="grey" stroke="none" />
<path d="M480.03205471682156,449.02341650153824 A54.747884927252244,54.747884927252244,0,0,0,445.45968750000003,504.7629" stroke="grey" stroke-width="5" fill="none" />
<circle cx="445.45968750000003" cy="360.7629" r="5" fill="black" stroke="none" />
<circle cx="445.45968750000003" cy="504.7629" r="5" fill="black" stroke="none" />
<path d="M445.45968750000003,360.7629 A149.5380075566331,149.5380075566331,0,0,1,463.8992864369669,354.8850311503066" stroke="grey" stroke-width="5" fill="none" />
<path d="M463.8992864369669,354.88503115030653 L445.45968750000003,280.7629" stroke="grey" stroke-width="5" />
<circle cx="463.8992864369669" cy="354.88503115030653" r="2.5" fill="grey" stroke="none" />
<circle cx="445.45968750000003" cy="360.7629" r="5" fill="black" stroke="none" />
<circle cx="445.45968750000003" cy="280.7629" r="5" fill="black" stroke="none" />
<path d="M445.4596875,280.7629 A225.9193477859027,225.9193477859027,0,0,1,456.08623969722225,278.3896812869991" stroke="grey" stroke-width="5" fill="none" />
<path d="M456.0862396972223,278.3896812869991 L445.45968750000003,224.7629" stroke="grey" stroke-width="5" />
<circle cx="456.0862396972223" cy="278.3896812869991" r="2.5" fill="grey" stroke="none" />
<circle cx="445.45968750000003" cy="280.7629" r="5" fill="black" stroke="none" />
<circle cx="445.45968750000003" cy="224.7629" r="5" fill="black" stroke="none" />
<path d="M445.45968750000003,280.7629 L468.61021548611905,373.82167407918354" stroke="grey" stroke-width="5" />
<circle cx="468.61021548611905" cy="373.82167407918354" r="2.5" fill="grey" stroke="none" />
<path d="M468.610215486119,373.8216740791836 A130.02418430433494,130.02418430433494,0,0,1,541.4596875,376.7629" stroke="grey" stroke-width="5" fill="none" />
<circle cx="445.45968750000003" cy="280.7629" r="5" fill="black" stroke="none" />
<circle cx="541.4596875" cy="376.7629" r="5" fill="black" stroke="none" />
<path d="M445.45968750000003,360.7629 L452.5768748668776,378.93251589871096" stroke="grey" stroke-width="5" />
<circle cx="452.5768748668776" cy="378.93251589871096" r="2.5" fill="grey" stroke="none" />
<path d="M452.5768748668776,378.93251589871096 A130.02418430433494,130.02418430433494,0,0,1,541.4596875,376.7629" stroke="grey" stroke-width="5" fill="none" />
<circle cx="445.45968750000003" cy="360.7629" r="5" fill="black" stroke="none" />
<circle cx="541.4596875" cy="376.7629" r="5" fill="black" stroke="none" />
<path d="M541.4596875,376.7629 L532.8725428685394,402.2878102314573" stroke="grey" stroke-width="5" />
<circle cx="532.8725428685394" cy="402.2878102314573" r="2.5" fill="grey" stroke="none" />
<path d="M532.8725428685394,402.2878102314573 A103.09353085430561,103.09353085430561,0,0,1,589.4596875000001,448.7629" stroke="grey" stroke-width="5" fill="none" />
<circle cx="541.4596875" cy="376.7629" r="5" fill="black" stroke="none" />
<circle cx="589.4596875" cy="448.7629" r="5" fill="black" stroke="none" />
<path d="M541.4596875,560.7629 A73.55974241395668,73.55974241395668,0,0,0,553.9127630468907,550.0444770644821" stroke="grey" stroke-width="5" fill="none" />
<path d="M553.9127630468907,550.0444770644821 L565.4596875,560.7629" stroke="grey" stroke-width="5" />
<circle cx="553.9127630468907" cy="550.0444770644821" r="2.5" fill="grey" stroke="none" />
<circle cx="541.4596875" cy="560.7629" r="5" fill="black" stroke="none" />
<circle cx="565.4596875" cy="560.7629" r="5" fill="black" stroke="none" />
<path d="M565.4596875,560.7629 A89.31461640743726,89.31461640743726,0,0,0,573.8833747452226,550.1831409964011" stroke="grey" stroke-width="5" fill="none" />
<path d="M573.8833747452226,550.1831409964011 L589.4596875,560.7629" stroke="grey" stroke-width="5" />
<circle cx="573.8833747452226" cy="550.1831409964011" r="2.5" fill="grey" stroke="none" />
<circle cx="565.4596875" cy="560.7629" r="5" fill="black" stroke="none" />
<circle cx="589.4596875" cy="560.7629" r="5" fill="black" stroke="none" />
<path d="M589.4596875,560.7629 L574.108191228124,550.3358410767462" stroke="grey" stroke-width="5" />
<circle cx="574.108191228124" cy="550.3358410767462" r="2.5" fill="grey" stroke="none" />
<path d="M574.108191228124,550.3358410767462 A89.58638793928273,89.58638793928273,0,0,0,589.4596875000001,504.7629" stroke="grey" stroke-width="5" fill="none" />
<circle cx="589.4596875" cy="560.7629" r="5" fill="black" stroke="none" />
<circle cx="589.4596875" cy="504.7629" r="5" fill="black" stroke="none" />
<path d="M589.4596875000001,504.7629 A89.58638793928273,89.58638793928273,0,0,0,588.8878929099178,488.83472355726667" stroke="grey" stroke-width="5" fill="none" />
<path d="M588.8878929099178,488.83472355726667 L589.4596875,488.7629" stroke="grey" stroke-width="5" />
<circle cx="588.8878929099178" cy="488.83472355726667" r="2.5" fill="grey" stroke="none" />
<circle cx="589.4596875" cy="504.7629" r="5" fill="black" stroke="none" />
<circle cx="589.4596875" cy="488.7629" r="5" fill="black" stroke="none" />
<path d="M589.4596875,488.7629 A90.16267578109947,90.16267578109947,0,0,0,586.2535267220567,473.7390550052913" stroke="grey" stroke-width="5" fill="none" />
<path d="M586.2535267220567,473.73905500529133 L589.4596875,472.7629" stroke="grey" stroke-width="5" />
<circle cx="586.2535267220567" cy="473.73905500529133" r="2.5" fill="grey" stroke="none" />
<circle cx="589.4596875" cy="488.7629" r="5" fill="black" stroke="none" />
<circle cx="589.4596875" cy="472.7629" r="5" fill="black" stroke="none" />
<path d="M589.4596875,472.7629 A93.5141449407931,93.5141449407931,0,0,0,581.1471497184023,453.5238190404282" stroke="grey" stroke-width="5" fill="none" />
<path d="M581.1471497184023,453.5238190404282 L589.4596875,448.7629" stroke="grey" stroke-width="5" />
<circle cx="581.1471497184023" cy="453.5238190404282" r="2.5" fill="grey" stroke="none" />
<circle cx="589.4596875" cy="472.7629" r="5" fill="black" stroke="none" />
<circle cx="589.4596875" cy="448.7629" r="5" fill="black" stroke="none" />
<path d="M589.4596875000001,448.7629 A103.09353085430561,103.09353085430561,0,0,1,596.6009806172922,463.9926861903694" stroke="grey" stroke-width="5" fill="none" />
<path d="M596.6009806172922,463.9926861903694 L637.4596875,448.7629" stroke="grey" stroke-width="5" />
<circle cx="596.6009806172922" cy="463.9926861903694" r="2.5" fill="grey" stroke="none" />
<circle cx="589.4596875" cy="448.7629" r="5" fill="black" stroke="none" />
<circle cx="637.4596875" cy="448.7629" r="5" fill="black" stroke="none" />
<path d="M637.4596875,448.7629 L629.2325146958319,451.8295189000644" stroke="grey" stroke-width="5" />
<circle cx="629.2325146958319" cy="451.8295189000644" r="2.5" fill="grey" stroke="none" />
<path d="M629.2325146958319,451.8295189000644 A137.91822977405005,137.91822977405005,0,0,1,637.4596875,488.7629" stroke="grey" stroke-width="5" fill="none" />
<circle cx="637.4596875" cy="448.7629" r="5" fill="black" stroke="none" />
<circle cx="637.4596875" cy="488.7629" r="5" fill="black" stroke="none" />
<path d="M637.4596875,488.7629 L589.8629083141385,492.6538572480255" stroke="grey" stroke-width="5" />
<circle cx="589.8629083141385" cy="492.6538572480255" r="2.5" fill="grey" stroke="none" />
<path d="M589.8629083141385,492.6538572480255 A90.16267578109947,90.16267578109947,0,0,0,589.4596875,488.7629" stroke="grey" stroke-width="5" fill="none" />
<circle cx="637.4596875" cy="488.7629" r="5" fill="black" stroke="none" />
<circle cx="589.4596875" cy="488.7629" r="5" fill="black" stroke="none" />
<path d="M589.4596875,472.7629 A93.5141449407931,93.5141449407931,0,0,1,592.3291414068935,485.1600218641162" stroke="grey" stroke-width="5" fill="none" />
<path d="M592.3291414068935,485.1600218641162 L669.4596875,472.7629" stroke="grey" stroke-width="5" />
<circle cx="592.3291414068935" cy="485.1600218641162" r="2.5" fill="grey" stroke="none" />
<circle cx="589.4596875" cy="472.7629" r="5" fill="black" stroke="none" />
<circle cx="669.4596875" cy="472.7629" r="5" fill="black" stroke="none" />
<circle cx="500" cy="500" r="5" fill="red" stroke="none" />
</svg>