<?xml version="1.0" encoding="UTF-8"?>
<svg xmlns="http://www.w3.org/2000/svg" xmlns:xlink="http://www.w3.org/1999/xlink"
     width="1000" height="1000" viewBox="0 0 1000 1000">
<defs>
</defs>
<rect x="0" y="0" width="1000" height="1000" fill="white" />
<path d="M176.56487950000002,303.71099984 L210.5132930085856,324.313895822097" stroke="grey" stroke-width="5" />
<circle cx="210.5132930085856" cy="324.313895822097" r="2.5" fill="grey" stroke="none" />
<path d="M210.5132930085856,324.313895822097 A338.6268753745662,338.6268753745662,0,0,0,176.56487950000002,399.71099984" stroke="grey" stroke-width="5" fill="none" />
<circle cx="176.56487950000002" cy="303.71099984" r="5" fill="black" stroke="none" />
<circle cx="176.56487950000002" cy="399.71099984" r="5" fill="black" stroke="none" />
<path d="M176.56487950000002,399.71099984 L248.61903893926336,422.0531610634375" stroke="grey" stroke-width="5" />
<circle cx="248.61903893926336" cy="422.0531610634375" r="2.5" fill="grey" stroke="none" />
<path d="M248.61903893926336,422.0531610634375 A263.1883304480311,263.1883304480311,0,0,0,240.56487949999996,455.71099984000006" stroke="grey" stroke-width="5" fill="none" />
<circle cx="176.56487950000002" cy="399.71099984" r="5" fill="black" stroke="none" />
<circle cx="240.56487950000002" cy="455.71099984" r="5" fill="black" stroke="none" />
<path d="M152.56487950000002,455.71099984 L238.92431741549098,466.71959665126184" stroke="grey" stroke-width="5" />
<circle cx="238.92431741549098" cy="466.71959665126184" r="2.5" fill="grey" stroke="none" />
<path d="M238.92431741549098,466.71959665126195 A263.1883304480311,263.1883304480311,0,0,1,240.56487949999996,455.71099984000006" stroke="grey" stroke-width="5" fill="none" />
<circle cx="152.56487950000002" cy="455.71099984" r="5" fill="black" stroke="none" />
<circle cx="240.56487950000002" cy="455.71099984" r="5" fill="black" stroke="none" />
<path d="M240.56487950000002,455.71099984 L314.8411198174882,468.3909346651905" stroke="grey" stroke-width="5" />
<circle cx="314.8411198174882" cy="468.3909346651905" r="2.5" fill="grey" stroke="none" />
<path d="M314.8411198174882,468.3909346651905 A187.83754662415603,187.83754662415603,0,0,0,312.5648795,487.71099984" stroke="grey" stroke-width="5" fill="none" />
<circle cx="240.56487950000002" cy="455.71099984" r="5" fill="black" stroke="none" />
<circle cx="312.5648795" cy="487.71099984" r="5" fill="black" stroke="none" />
<path d="M312.5648795,487.71099984 L328.8920901541925,488.7814774207569" stroke="grey" stroke-width="5" />
<circle cx="328.8920901541925" cy="488.7814774207569" r="2.5" fill="grey" stroke="none" />
<path d="M328.8920901541925,488.7814774207569 A171.4752811942934,171.4752811942934,0,0,0,328.5648795000001,503.71099984" stroke="grey" stroke-width="5" fill="none" />
<circle cx="312.5648795" cy="487.71099984" r="5" fill="black" stroke="none" />
<circle cx="328.5648795" cy="503.71099984" r="5" fill="black" stroke="none" />
<path d="M328.5648795,503.71099984 L356.09821006868674,503.1149948613407" stroke="grey" stroke-width="5" />
<circle cx="356.09821006868674" cy="503.1149948613407" r="2.5" fill="grey" stroke="none" />
<path d="M356.09821006868674,503.1149948613407 A143.93550061892998,143.93550061892998,0,0,0,360.5648795,535.71099984" stroke="grey" stroke-width="5" fill="none" />
<circle cx="328.5648795" cy="503.71099984" r="5" fill="black" stroke="none" />
<circle cx="360.5648795" cy="535.71099984" r="5" fill="black" stroke="none" />
<path d="M328.5648795000001,503.71099984 A171.4752811942934,171.4752811942934,0,0,0,346.0689487311815,575.5579480659603" stroke="grey" stroke-width="5" fill="none" />
<path d="M346.0689487311815,575.5579480659603 L-219.43512049999998,107.71099984" stroke="grey" stroke-width="5" />
<circle cx="346.0689487311815" cy="575.5579480659603" r="2.5" fill="grey" stroke="none" />
<circle cx="328.5648795" cy="503.71099984" r="5" fill="black" stroke="none" />
<circle cx="280.5648795" cy="607.71099984" r="5" fill="black" stroke="none" />
<path d="M280.5648795,607.71099984 A244.44515048448392,244.44515048448392,0,0,0,314.2461218964504,658.8991137951173" stroke="grey" stroke-width="5" fill="none" />
<path d="M314.2461218964504,658.8991137951173 L-219.43512049999998,187.71099984" stroke="grey" stroke-width="5" />
<circle cx="314.2461218964504" cy="658.8991137951173" r="2.5" fill="grey" stroke="none" />
<circle cx="280.5648795" cy="607.71099984" r="5" fill="black" stroke="none" />
<circle cx="280.5648795" cy="687.71099984" r="5" fill="black" stroke="none" />
<path d="M176.56487950000002,703.71099984 L255.6574030870113,653.8957013811585" stroke="grey" stroke-width="5" />
<circle cx="255.6574030870113" cy="653.8957013811585" r="2.5" fill="grey" stroke="none" />
<path d="M255.6574030870113,653.8957013811585 A288.7684047290873,288.7684047290873,0,0,0,280.5648795,687.71099984" stroke="grey" stroke-width="5" fill="none" />
<circle cx="176.56487950000002" cy="703.71099984" r="5" fill="black" stroke="none" />
<circle cx="280.5648795" cy="687.71099984" r="5" fill="black" stroke="none" />
<path d="M280.5648795,687.71099984 A288.7684047290873,288.7684047290873,0,0,0,332.3381758649426,735.1099834066752" stroke="grey" stroke-width="5" fill="none" />
<path d="M332.3381758649426,735.1099834066752 L-219.43512049999998,307.71099984" stroke="grey" stroke-width="5" />
<circle cx="332.3381758649426" cy="735.1099834066752" r="2.5" fill="grey" stroke="none" />
<circle cx="280.5648795" cy="687.71099984" r="5" fill="black" stroke="none" />
<circle cx="280.5648795" cy="807.71099984" r="5" fill="black" stroke="none" />
<path d="M280.5648795,607.71099984 L341.8343260476081,577.636537136632" stroke="grey" stroke-width="5" />
<circle cx="341.8343260476081" cy="577.636537136632" r="2.5" fill="grey" stroke="none" />
<path d="M341.8343260476081,577.636537136632 A176.19254330243942,176.19254330243942,0,0,0,360.5648795,607.71099984" stroke="grey" stroke-width="5" fill="none" />
<circle cx="280.5648795" cy="607.71099984" r="5" fill="black" stroke="none" />
<circle cx="360.5648795" cy="607.71099984" r="5" fill="black" stroke="none" />
<path d="M360.5648795,535.71099984 A143.93550061892998,143.93550061892998,0,0,0,386.0924333297228,587.9914461392602" stroke="grey" stroke-width="5" fill="none" />
<path d="M386.0924333297228,587.9914461392602 L-139.43512049999998,107.71099984" stroke="grey" stroke-width="5" />
<circle cx="386.0924333297228" cy="587.9914461392602" r="2.5" fill="grey" stroke="none" />
<circle cx="360.5648795" cy="535.71099984" r="5" fill="black" stroke="none" />
<circle cx="360.5648795" cy="607.71099984" r="5" fill="black" stroke="none" />
<path d="M360.5648795,607.71099984 L399.4320603547909,577.6868359434183" stroke="grey" stroke-width="5" />
<circle cx="399.4320603547909" cy="577.6868359434183" r="2.5" fill="grey" stroke="none" />
<path d="M399.4320603547909,577.6868359434183 A127.07932547579091,127.07932547579091,0,0,0,432.5648795,607.71099984" stroke="grey" stroke-width="5" fill="none" />
<circle cx="360.5648795" cy="607.71099984" r="5" fill="black" stroke="none" />
<circle cx="432.5648795" cy="607.71099984" r="5" fill="black" stroke="none" />
<path d="M360.5648795,535.71099984 L397.650129218376,526.2130244231158" stroke="grey" stroke-width="5" />
<circle cx="397.650129218376" cy="526.2130244231158" r="2.5" fill="grey" stroke="none" />
<path d="M397.650129218376,526.2130244231158 A105.65329478261431,105.65329478261431,0,0,0,400.5648795000001,535.7109998400001" stroke="grey" stroke-width="5" fill="none" />
<circle cx="360.5648795" cy="535.71099984" r="5" fill="black" stroke="none" />
<circle cx="400.5648795" cy="535.71099984" r="5" fill="black" stroke="none" />
<path d="M432.5648795,607.71099984 L462.44825541130854,559.979665275222" stroke="grey" stroke-width="5" />
<circle cx="462.44825541130854" cy="559.979665275222" r="2.5" fill="grey" stroke="none" />
<path d="M462.44825541130854,559.979665275222 A70.76506036302096,70.76506036302096,0,0,0,520.5648795000001,567.71099984" stroke="grey" stroke-width="5" fill="none" />
<circle cx="432.5648795" cy="607.71099984" r="5" fill="black" stroke="none" />
<circle cx="520.5648795" cy="567.71099984" r="5" fill="black" stroke="none" />
<path d="M400.5648795,535.71099984 L446.25322618602434,519.3025464385232" stroke="grey" stroke-width="5" />
<circle cx="446.25322618602434" cy="519.3025464385232" r="2.5" fill="grey" stroke="none" />
<path d="M446.2532261860244,519.3025464385232 A57.1078277858824,57.1078277858824,0,0,0,544.5648795,535.71099984" stroke="grey" stroke-width="5" fill="none" />
<circle cx="400.5648795" cy="535.71099984" r="5" fill="black" stroke="none" />
<circle cx="544.5648795" cy="535.71099984" r="5" fill="black" stroke="none" />
<path d="M520.5648795,567.71099984 L516.5959809954056,554.6431826417728" stroke="grey" stroke-width="5" />
<circle cx="516.5959809954056" cy="554.6431826417728" r="2.5" fill="grey" stroke="none" />
<path d="M516.5959809954056,554.6431826417728 A57.1078277858824,57.1078277858824,0,0,0,544.5648795,535.71099984" stroke="grey" stroke-width="5" fill="none" />
<circle cx="520.5648795" cy="567.71099984" r="5" fill="black" stroke="none" />
<circle cx="544.5648795" cy="535.71099984" r="5" fill="black" stroke="none" />
<path d="M280.5648795,687.71099984 L338.58112931749605,638.0822611249072" stroke="grey" stroke-width="5" />
<circle cx="338.58112931749605" cy="638.0822611249072" r="2.5" fill="grey" stroke="none" />
<path d="M338.58112931749605,638.0822611249072 A212.42119162122688,212.42119162122688,0,0,0,400.5648795,687.71099984" stroke="grey" stroke-width="5" fill="none" />
<circle cx="280.5648795" cy="687.71099984" r="5" fill="black" stroke="none" />
<circle cx="400.5648795" cy="687.71099984" r="5" fill="black" stroke="none" />
<path d="M400.5648795,687.71099984 L457.03964868397406,581.0994189825403" stroke="grey" stroke-width="5" />
<circle cx="457.03964868397406" cy="581.0994189825403" r="2.5" fill="grey" stroke="none" />
<path d="M457.03964868397406,581.0994189825403 A91.77531010300102,91.77531010300102,0,0,0,496.5648795,591.71099984" stroke="grey" stroke-width="5" fill="none" />
<circle cx="400.5648795" cy="687.71099984" r="5" fill="black" stroke="none" />
<circle cx="496.5648795" cy="591.71099984" r="5" fill="black" stroke="none" />
<path d="M496.5648795,591.71099984 L497.35128642699294,570.7154727382217" stroke="grey" stroke-width="5" />
<circle cx="497.35128642699294" cy="570.7154727382217" r="2.5" fill="grey" stroke="none" />
<path d="M497.35128642699294,570.7154727382217 A70.76506036302096,70.76506036302096,0,0,0,520.5648795000001,567.71099984" stroke="grey" stroke-width="5" fill="none" />
<circle cx="496.5648795" cy="591.71099984" r="5" fill="black" stroke="none" />
<circle cx="520.5648795" cy="567.71099984" r="5" fill="black" stroke="none" />
<path d="M520.5648795000001,567.71099984 A70.76506036302096,70.76506036302096,0,0,1,515.4835569001293,569.0503673697864" stroke="grey" stroke-width="5" fill="none" />
<path d="M515.4835569001293,569.0503673697864 L20.564879500000018,91.71099984" stroke="grey" stroke-width="5" />
<circle cx="515.4835569001293" cy="569.0503673697864" r="2.5" fill="grey" stroke="none" />
<circle cx="520.5648795" cy="567.71099984" r="5" fill="black" stroke="none" />
<circle cx="520.5648795" cy="591.71099984" r="5" fill="black" stroke="none" />
<path d="M520.5648795,591.71099984 A93.98841290553852,93.98841290553852,0,0,1,507.1987429460719,593.712325019169" stroke="grey" stroke-width="5" fill="none" />
<path d="M507.1987429460719,593.712325019169 L20.564879500000018,267.71099984" stroke="grey" stroke-width="5" />
<circle cx="507.1987429460719" cy="593.712325019169" r="2.5" fill="grey" stroke="none" />
<circle cx="520.5648795" cy="591.71099984" r="5" fill="black" stroke="none" />
<circle cx="520.5648795" cy="767.71099984" r="5" fill="black" stroke="none" />
<path d="M520.5648795000001,767.7109998400001 A268.49970894617746,268.49970894617746,0,0,0,607.1883682552709,746.1762527437495" stroke="grey" stroke-width="5" fill="none" />
<path d="M607.1883682552709,746.1762527437495 L116.56487950000002,267.71099984" stroke="grey" stroke-width="5" />
<circle cx="607.1883682552709" cy="746.1762527437495" r="2.5" fill="grey" stroke="none" />
<circle cx="520.5648795" cy="767.71099984" r="5" fill="black" stroke="none" />
<circle cx="616.5648795" cy="767.71099984" r="5" fill="black" stroke="none" />
<path d="M520.5648795000001,767.7109998400001 A268.49970894617746,268.49970894617746,0,0,1,517.4526294681025,767.9318932654922" stroke="grey" stroke-width="5" fill="none" />
<path d="M517.4526294681026,767.9318932654922 L20.564879500000018,315.71099984" stroke="grey" stroke-width="5" />
<circle cx="517.4526294681026" cy="767.9318932654922" r="2.5" fill="grey" stroke="none" />
<circle cx="520.5648795" cy="767.71099984" r="5" fill="black" stroke="none" />
<circle cx="520.5648795" cy="815.71099984" r="5" fill="black" stroke="none" />
<path d="M208.56487950000002,391.71099984 L362.189451726087,448.79352063512385" stroke="grey" stroke-width="5" />
<circle cx="362.189451726087" cy="448.79352063512385" r="2.5" fill="grey" stroke="none" />
<path d="M362.189451726087,448.79352063512385 A147.0164982051402,147.0164982051402,0,0,1,400.5648795000001,391.71099984" stroke="grey" stroke-width="5" fill="none" />
<circle cx="208.56487950000002" cy="391.71099984" r="5" fill="black" stroke="none" />
<circle cx="400.5648795" cy="391.71099984" r="5" fill="black" stroke="none" />
<path d="M400.5648795,391.71099984 L428.54102616923876,422.1781922757086" stroke="grey" stroke-width="5" />
<circle cx="428.54102616923876" cy="422.1781922757086" r="2.5" fill="grey" stroke="none" />
<path d="M428.54102616923876,422.1781922757086 A105.65329478261431,105.65329478261431,0,0,0,400.5648795000001,535.7109998400001" stroke="grey" stroke-width="5" fill="none" />
<circle cx="400.5648795" cy="391.71099984" r="5" fill="black" stroke="none" />
<circle cx="400.5648795" cy="535.71099984" r="5" fill="black" stroke="none" />
<path d="M400.5648795000001,391.71099984 A147.0164982051402,147.0164982051402,0,0,1,431.3461833562363,369.99806076543905" stroke="grey" stroke-width="5" fill="none" />
<path d="M431.3461833562363,369.99806076543905 L-99.43512049999998,-188.28900016" stroke="grey" stroke-width="5" />
<circle cx="431.3461833562363" cy="369.99806076543905" r="2.5" fill="grey" stroke="none" />
<circle cx="400.5648795" cy="391.71099984" r="5" fill="black" stroke="none" />
<circle cx="400.5648795" cy="311.71099984" r="5" fill="black" stroke="none" />
<path d="M400.5648795000001,311.71099984 A212.93212714407846,212.93212714407846,0,0,1,419.7237102829915,302.7797979937833" stroke="grey" stroke-width="5" fill="none" />
<path d="M419.7237102829915,302.7797979937833 L-99.43512049999998,-244.28900016" stroke="grey" stroke-width="5" />
<circle cx="419.7237102829915" cy="302.7797979937833" r="2.5" fill="grey" stroke="none" />
<circle cx="400.5648795" cy="311.71099984" r="5" fill="black" stroke="none" />
<circle cx="400.5648795" cy="255.71099984" r="5" fill="black" stroke="none" />
<path d="M400.5648795,311.71099984 L456.8730061928676,418.335307454558" stroke="grey" stroke-width="5" />
<circle cx="456.8730061928676" cy="418.335307454558" r="2.5" fill="grey" stroke="none" />
<path d="M456.8730061928676,418.335307454558 A92.35290793138027,92.35290793138027,0,0,1,496.5648795,407.71099984" stroke="grey" stroke-width="5" fill="none" />
<circle cx="400.5648795" cy="311.71099984" r="5" fill="black" stroke="none" />
<circle cx="496.5648795" cy="407.71099984" r="5" fill="black" stroke="none" />
<path d="M400.5648795,391.71099984 L437.5367891305064,431.9749539415431" stroke="grey" stroke-width="5" />
<circle cx="437.5367891305064" cy="431.9749539415431" r="2.5" fill="grey" stroke="none" />
<path d="M437.5367891305064,431.9749539415431 A92.35290793138027,92.35290793138027,0,0,1,496.5648795,407.71099984" stroke="grey" stroke-width="5" fill="none" />
<circle cx="400.5648795" cy="391.71099984" r="5" fill="black" stroke="none" />
<circle cx="496.5648795" cy="407.71099984" r="5" fill="black" stroke="none" />
<path d="M496.5648795,407.71099984 L498.17867986659735,451.06785509183493" stroke="grey" stroke-width="5" />
<circle cx="498.17867986659735" cy="451.06785509183493" r="2.5" fill="grey" stroke="none" />
<path d="M498.17867986659735,451.06785509183493 A48.96602916657631,48.96602916657631,0,0,1,544.5648795,479.71099984" stroke="grey" stroke-width="5" fill="none" />
<circle cx="496.5648795" cy="407.71099984" r="5" fill="black" stroke="none" />
<circle cx="544.5648795" cy="479.71099984" r="5" fill="black" stroke="none" />
<path d="M496.5648795,591.71099984 A91.77531010300102,91.77531010300102,0,0,0,520.0806475500357,589.551522256594" stroke="grey" stroke-width="5" fill="none" />
<path d="M520.0806475500358,589.551522256594 L20.564879500000018,91.71099984" stroke="grey" stroke-width="5" />
<circle cx="520.0806475500358" cy="589.551522256594" r="2.5" fill="grey" stroke="none" />
<circle cx="496.5648795" cy="591.71099984" r="5" fill="black" stroke="none" />
<circle cx="520.5648795" cy="591.71099984" r="5" fill="black" stroke="none" />
<path d="M520.5648795,591.71099984 A93.98841290553852,93.98841290553852,0,0,0,541.0784802436937,584.5362657169719" stroke="grey" stroke-width="5" fill="none" />
<path d="M541.0784802436937,584.5362657169719 L44.56487950000002,91.71099984" stroke="grey" stroke-width="5" />
<circle cx="541.0784802436937" cy="584.5362657169719" r="2.5" fill="grey" stroke="none" />
<circle cx="520.5648795" cy="591.71099984" r="5" fill="black" stroke="none" />
<circle cx="544.5648795" cy="591.71099984" r="5" fill="black" stroke="none" />
<path d="M544.5648795,591.71099984 L524.9594891853354,551.3646560781742" stroke="grey" stroke-width="5" />
<circle cx="524.9594891853354" cy="551.3646560781742" r="2.5" fill="grey" stroke="none" />
<path d="M524.9594891853354,551.3646560781742 A57.1078277858824,57.1078277858824,0,0,0,544.5648795,535.71099984" stroke="grey" stroke-width="5" fill="none" />
<circle cx="544.5648795" cy="591.71099984" r="5" fill="black" stroke="none" />
<circle cx="544.5648795" cy="535.71099984" r="5" fill="black" stroke="none" />
<path d="M544.5648795,535.71099984 L538.026638632716,530.4717369678664" stroke="grey" stroke-width="5" />
<circle cx="538.026638632716" cy="530.4717369678664" r="2.5" fill="grey" stroke="none" />
<path d="M538.026638632716,530.4717369678664 A48.72937511955188,48.72937511955188,0,0,0,544.5648795,519.71099984" stroke="grey" stroke-width="5" fill="none" />
<circle cx="544.5648795" cy="535.71099984" r="5" fill="black" stroke="none" />
<circle cx="544.5648795" cy="519.71099984" r="5" fill="black" stroke="none" />
<path d="M544.5648795,519.71099984 L540.8973508128105,518.0888557171512" stroke="grey" stroke-width="5" />
<circle cx="540.8973508128105" cy="518.0888557171512" r="2.5" fill="grey" stroke="none" />
<path d="M540.8973508128105,518.0888557171512 A44.71912347823917,44.71912347823917,0,0,0,544.5648795,503.71099984" stroke="grey" stroke-width="5" fill="none" />
<circle cx="544.5648795" cy="519.71099984" r="5" fill="black" stroke="none" />
<circle cx="544.5648795" cy="503.71099984" r="5" fill="black" stroke="none" />
<path d="M544.5648795,503.71099984 A44.71912347823917,44.71912347823917,0,0,0,540.6996928906312,481.47069879163547" stroke="grey" stroke-width="5" fill="none" />
<path d="M540.6996928906312,481.47069879163547 L44.56487950000002,-20.28900016" stroke="grey" stroke-width="5" />
<circle cx="540.6996928906312" cy="481.47069879163547" r="2.5" fill="grey" stroke="none" />
<circle cx="544.5648795" cy="503.71099984" r="5" fill="black" stroke="none" />
<circle cx="544.5648795" cy="479.71099984" r="5" fill="black" stroke="none" />
<path d="M544.5648795,479.71099984 A48.96602916657631,48.96602916657631,0,0,1,547.8305490387174,489.516174791764" stroke="grey" stroke-width="5" fill="none" />
<path d="M547.8305490387174,489.516174791764 L92.56487950000002,-20.28900016" stroke="grey" stroke-width="5" />
<circle cx="547.8305490387174" cy="489.516174791764" r="2.5" fill="grey" stroke="none" />
<circle cx="544.5648795" cy="479.71099984" r="5" fill="black" stroke="none" />
<circle cx="592.5648795" cy="479.71099984" r="5" fill="black" stroke="none" />
<path d="M592.5648795,479.71099984 L592.4456420715934,479.7371351109266" stroke="grey" stroke-width="5" />
<circle cx="592.4456420715934" cy="479.7371351109266" r="2.5" fill="grey" stroke="none" />
<path d="M592.4456420715934,479.7371351109266 A94.6402685517217,94.6402685517217,0,0,1,592.5648795,519.71099984" stroke="grey" stroke-width="5" fill="none" />
<circle cx="592.5648795" cy="479.71099984" r="5" fill="black" stroke="none" />
<circle cx="592.5648795" cy="519.71099984" r="5" fill="black" stroke="none" />
<path d="M592.5648795,519.71099984 L547.660777014665,510.1490065474599" stroke="grey" stroke-width="5" />
<circle cx="547.660777014665" cy="510.1490065474599" r="2.5" fill="grey" stroke="none" />
<path d="M547.660777014665,510.1490065474599 A48.72937511955188,48.72937511955188,0,0,1,544.5648795,519.71099984" stroke="grey" stroke-width="5" fill="none" />
<circle cx="592.5648795" cy="519.71099984" r="5" fill="black" stroke="none" />
<circle cx="544.5648795" cy="519.71099984" r="5" fill="black" stroke="none" />
<path d="M544.5648795,503.71099984 A44.71912347823917,44.71912347823917,0,0,0,544.6992915492331,501.3316679986618" stroke="grey" stroke-width="5" fill="none" />
<path d="M544.6992915492331,501.3316679986618 L124.56487950000002,3.7109998399999995" stroke="grey" stroke-width="5" />
<circle cx="544.6992915492331" cy="501.3316679986618" r="2.5" fill="grey" stroke="none" />
<circle cx="544.5648795" cy="503.71099984" r="5" fill="black" stroke="none" />
<circle cx="624.5648795" cy="503.71099984" r="5" fill="black" stroke="none" />
<circle cx="500" cy="500" r="5" fill="red" stroke="none" />
</svg>