<?xml version="1.0" encoding="UTF-8"?>
<svg xmlns="http://www.w3.org/2000/svg" xmlns:xlink="http://www.w3.org/1999/xlink"
     width="1000" height="1000" viewBox="0 0 1000 1000">
<defs>
</defs>
<rect x="0" y="0" width="1000" height="1000" fill="white" />
<path d="M417.81683200000003,307.15864064000004 L450.20427195319996,383.1551992876961" stroke="grey" stroke-width="5" />
<circle cx="450.20427195319996" cy="383.1551992876961" r="2.5" fill="grey" stroke="none" />
<path d="M450.20427195319996,383.1551992876961 A127.0130780085613,127.0130780085613,0,0,0,417.81683200000003,403.15864064000004" stroke="grey" stroke-width="5" fill="none" />
<circle cx="417.81683200000003" cy="307.15864064000004" r="5" fill="black" stroke="none" />
<circle cx="417.81683200000003" cy="403.15864064000004" r="5" fill="black" stroke="none" />
<path d="M417.81683200000003,403.15864064000004 L471.0730806290683,465.9136747566345" stroke="grey" stroke-width="5" />
<circle cx="471.0730806290683" cy="465.9136747566345" r="2.5" fill="grey" stroke="none" />
<path d="M471.0730806290683,465.9136747566345 A44.706199043185066,44.706199043185066,0,0,1,481.81683200000003,459.15864064000004" stroke="grey" stroke-width="5" fill="none" />
<circle cx="417.81683200000003" cy="403.15864064000004" r="5" fill="black" stroke="none" />
<circle cx="481.81683200000003" cy="459.15864064000004" r="5" fill="black" stroke="none" />
<path d="M393.81683200000003,459.15864064000004 L458.2738866666085,483.950834944526" stroke="grey" stroke-width="5" />
<circle cx="458.2738866666085" cy="483.950834944526" r="2.5" fill="grey" stroke="none" />
<path d="M458.2738866666085,483.950834944526 A44.706199043185066,44.706199043185066,0,0,1,481.81683200000003,459.15864064000004" stroke="grey" stroke-width="5" fill="none" />
<circle cx="393.81683200000003" cy="459.15864064000004" r="5" fill="black" stroke="none" />
<circle cx="481.81683200000003" cy="459.15864064000004" r="5" fill="black" stroke="none" />
<path d="M481.81683200000003,459.15864064000004 A44.706199043185066,44.706199043185066,0,0,1,544.114834456395,492.7525443241271" stroke="grey" stroke-width="5" fill="none" />
<path d="M544.114834456395,492.7525443241271 L53.81683200000002,-8.841359359999984" stroke="grey" stroke-width="5" />
<circle cx="544.114834456395" cy="492.7525443241271" r="2.5" fill="grey" stroke="none" />
<circle cx="481.81683200000003" cy="459.15864064000004" r="5" fill="black" stroke="none" />
<circle cx="553.816832" cy="491.15864064000004" r="5" fill="black" stroke="none" />
<path d="M553.816832,491.15864064000004 A54.53825301427325,54.53825301427325,0,0,1,554.2538042514385,505.56289188241817" stroke="grey" stroke-width="5" fill="none" />
<path d="M554.2538042514385,505.56289188241817 L69.81683200000002,7.158640640000016" stroke="grey" stroke-width="5" />
<circle cx="554.2538042514385" cy="505.56289188241817" r="2.5" fill="grey" stroke="none" />
<circle cx="553.816832" cy="491.15864064000004" r="5" fill="black" stroke="none" />
<circle cx="569.816832" cy="507.15864064000004" r="5" fill="black" stroke="none" />
<path d="M569.816832,507.15864064000004 A70.18287658915732,70.18287658915732,0,0,1,565.5052414911978,525.1932432113998" stroke="grey" stroke-width="5" fill="none" />
<path d="M565.5052414911978,525.1932432113998 L101.81683200000002,39.158640640000016" stroke="grey" stroke-width="5" />
<circle cx="565.5052414911978" cy="525.1932432113998" r="2.5" fill="grey" stroke="none" />
<circle cx="569.816832" cy="507.15864064000004" r="5" fill="black" stroke="none" />
<circle cx="601.816832" cy="539.15864064" r="5" fill="black" stroke="none" />
<path d="M569.816832,507.15864064000004 A70.18287658915732,70.18287658915732,0,0,1,513.5167410947674,568.8689616337135" stroke="grey" stroke-width="5" fill="none" />
<path d="M513.5167410947674,568.8689616337135 L21.81683200000002,111.15864064000002" stroke="grey" stroke-width="5" />
<circle cx="513.5167410947674" cy="568.8689616337135" r="2.5" fill="grey" stroke="none" />
<circle cx="569.816832" cy="507.15864064000004" r="5" fill="black" stroke="none" />
<circle cx="521.816832" cy="611.15864064" r="5" fill="black" stroke="none" />
<path d="M521.816832,611.15864064 A113.27937829741514,113.27937829741514,0,0,1,512.8451273634626,612.5487461079213" stroke="grey" stroke-width="5" fill="none" />
<path d="M512.8451273634626,612.5487461079213 L21.81683200000002,191.15864064000002" stroke="grey" stroke-width="5" />
<circle cx="512.8451273634626" cy="612.5487461079213" r="2.5" fill="grey" stroke="none" />
<circle cx="521.816832" cy="611.15864064" r="5" fill="black" stroke="none" />
<circle cx="521.816832" cy="691.15864064" r="5" fill="black" stroke="none" />
<path d="M417.81683200000003,707.15864064 L429.0511629376429,678.8403270220338" stroke="grey" stroke-width="5" />
<circle cx="429.0511629376429" cy="678.8403270220338" r="2.5" fill="grey" stroke="none" />
<path d="M429.0511629376429,678.8403270220338 A192.39958432868013,192.39958432868013,0,0,0,521.816832,691.15864064" stroke="grey" stroke-width="5" fill="none" />
<circle cx="417.81683200000003" cy="707.15864064" r="5" fill="black" stroke="none" />
<circle cx="521.816832" cy="691.15864064" r="5" fill="black" stroke="none" />
<path d="M521.816832,691.15864064 A192.39958432868013,192.39958432868013,0,0,1,513.4570247691412,691.9283942886295" stroke="grey" stroke-width="5" fill="none" />
<path d="M513.4570247691412,691.9283942886295 L21.81683200000002,311.15864064000004" stroke="grey" stroke-width="5" />
<circle cx="513.4570247691412" cy="691.9283942886295" r="2.5" fill="grey" stroke="none" />
<circle cx="521.816832" cy="691.15864064" r="5" fill="black" stroke="none" />
<circle cx="521.816832" cy="811.15864064" r="5" fill="black" stroke="none" />
<path d="M521.816832,611.15864064 A113.27937829741514,113.27937829741514,0,0,0,576.5135682997052,583.5337740886597" stroke="grey" stroke-width="5" fill="none" />
<path d="M576.5135682997052,583.5337740886597 L101.81683200000002,111.15864064000002" stroke="grey" stroke-width="5" />
<circle cx="576.5135682997052" cy="583.5337740886597" r="2.5" fill="grey" stroke="none" />
<circle cx="521.816832" cy="611.15864064" r="5" fill="black" stroke="none" />
<circle cx="601.816832" cy="611.15864064" r="5" fill="black" stroke="none" />
<path d="M601.816832,539.15864064 A109.08742555990993,109.08742555990993,0,0,1,573.6821503760639,580.4425703918516" stroke="grey" stroke-width="5" fill="none" />
<path d="M573.6821503760639,580.4425703918516 L101.81683200000002,111.15864064000002" stroke="grey" stroke-width="5" />
<circle cx="573.6821503760639" cy="580.4425703918516" r="2.5" fill="grey" stroke="none" />
<circle cx="601.816832" cy="539.15864064" r="5" fill="black" stroke="none" />
<circle cx="601.816832" cy="611.15864064" r="5" fill="black" stroke="none" />
<path d="M601.816832,611.15864064 A150.7412042788862,150.7412042788862,0,0,0,626.9929059946103,581.2139919871753" stroke="grey" stroke-width="5" fill="none" />
<path d="M626.9929059946103,581.2139919871753 L173.81683200000003,111.15864064000002" stroke="grey" stroke-width="5" />
<circle cx="626.9929059946103" cy="581.2139919871753" r="2.5" fill="grey" stroke="none" />
<circle cx="601.816832" cy="611.15864064" r="5" fill="black" stroke="none" />
<circle cx="673.816832" cy="611.15864064" r="5" fill="black" stroke="none" />
<path d="M601.816832,539.15864064 A109.08742555990993,109.08742555990993,0,0,0,605.152483442797,529.0348349590832" stroke="grey" stroke-width="5" fill="none" />
<path d="M605.152483442797,529.0348349590832 L141.81683200000003,39.158640640000016" stroke="grey" stroke-width="5" />
<circle cx="605.152483442797" cy="529.0348349590832" r="2.5" fill="grey" stroke="none" />
<circle cx="601.816832" cy="539.15864064" r="5" fill="black" stroke="none" />
<circle cx="641.816832" cy="539.15864064" r="5" fill="black" stroke="none" />
<path d="M673.816832,611.15864064 A206.32143484245378,206.32143484245378,0,0,0,699.0988573239292,554.1126555230342" stroke="grey" stroke-width="5" fill="none" />
<path d="M699.0988573239292,554.1126555230342 L261.81683200000003,71.15864064000002" stroke="grey" stroke-width="5" />
<circle cx="699.0988573239292" cy="554.1126555230342" r="2.5" fill="grey" stroke="none" />
<circle cx="673.816832" cy="611.15864064" r="5" fill="black" stroke="none" />
<circle cx="761.816832" cy="571.15864064" r="5" fill="black" stroke="none" />
<path d="M641.816832,539.15864064 A147.12380152541223,147.12380152541223,0,0,0,645.762135698893,519.9702972383092" stroke="grey" stroke-width="5" fill="none" />
<path d="M645.762135698893,519.9702972383092 L285.81683200000003,39.158640640000016" stroke="grey" stroke-width="5" />
<circle cx="645.762135698893" cy="519.9702972383092" r="2.5" fill="grey" stroke="none" />
<circle cx="641.816832" cy="539.15864064" r="5" fill="black" stroke="none" />
<circle cx="785.816832" cy="539.15864064" r="5" fill="black" stroke="none" />
<path d="M761.816832,571.15864064 A271.31458799012063,271.31458799012063,0,0,0,768.8035068538811,536.8277118391086" stroke="grey" stroke-width="5" fill="none" />
<path d="M768.8035068538811,536.8277118391086 L285.81683200000003,39.158640640000016" stroke="grey" stroke-width="5" />
<circle cx="768.8035068538811" cy="536.8277118391086" r="2.5" fill="grey" stroke="none" />
<circle cx="761.816832" cy="571.15864064" r="5" fill="black" stroke="none" />
<circle cx="785.816832" cy="539.15864064" r="5" fill="black" stroke="none" />
<path d="M521.816832,691.15864064 A192.39958432868013,192.39958432868013,0,0,0,614.6352020494163,654.519806176873" stroke="grey" stroke-width="5" fill="none" />
<path d="M614.6352020494163,654.519806176873 L141.81683200000003,191.15864064000002" stroke="grey" stroke-width="5" />
<circle cx="614.6352020494163" cy="654.519806176873" r="2.5" fill="grey" stroke="none" />
<circle cx="521.816832" cy="691.15864064" r="5" fill="black" stroke="none" />
<circle cx="641.816832" cy="691.15864064" r="5" fill="black" stroke="none" />
<path d="M641.8168320000001,691.15864064 A238.02025067176302,238.02025067176302,0,0,0,720.986029210549,588.4240613385481" stroke="grey" stroke-width="5" fill="none" />
<path d="M720.986029210549,588.424061338548 L237.81683200000003,95.15864064000002" stroke="grey" stroke-width="5" />
<circle cx="720.986029210549" cy="588.424061338548" r="2.5" fill="grey" stroke="none" />
<circle cx="641.816832" cy="691.15864064" r="5" fill="black" stroke="none" />
<circle cx="737.816832" cy="595.15864064" r="5" fill="black" stroke="none" />
<path d="M737.816832,595.15864064 A256.14841883363033,256.14841883363033,0,0,0,747.1815763303971,567.180955588537" stroke="grey" stroke-width="5" fill="none" />
<path d="M747.1815763303971,567.180955588537 L261.81683200000003,71.15864064000002" stroke="grey" stroke-width="5" />
<circle cx="747.1815763303971" cy="567.180955588537" r="2.5" fill="grey" stroke="none" />
<circle cx="737.816832" cy="595.15864064" r="5" fill="black" stroke="none" />
<circle cx="761.816832" cy="571.15864064" r="5" fill="black" stroke="none" />
<path d="M761.816832,571.15864064 A271.31458799012063,271.31458799012063,0,0,1,754.9945139433,592.6790349273723" stroke="grey" stroke-width="5" fill="none" />
<path d="M754.9945139433,592.6790349273723 L261.81683200000003,95.15864064000002" stroke="grey" stroke-width="5" />
<circle cx="754.9945139433" cy="592.6790349273723" r="2.5" fill="grey" stroke="none" />
<circle cx="761.816832" cy="571.15864064" r="5" fill="black" stroke="none" />
<circle cx="761.816832" cy="595.15864064" r="5" fill="black" stroke="none" />
<path d="M761.816832,595.15864064 A278.57354577735646,278.57354577735646,0,0,1,693.4989036368536,700.403080560915" stroke="grey" stroke-width="5" fill="none" />
<path d="M693.4989036368536,700.403080560915 L261.81683200000003,271.15864064000004" stroke="grey" stroke-width="5" />
<circle cx="693.4989036368536" cy="700.403080560915" r="2.5" fill="grey" stroke="none" />
<circle cx="761.816832" cy="595.15864064" r="5" fill="black" stroke="none" />
<circle cx="761.816832" cy="771.15864064" r="5" fill="black" stroke="none" />
<path d="M761.816832,771.15864064 A376.928457286325,376.928457286325,0,0,0,800.4122465037859,727.6566363249652" stroke="grey" stroke-width="5" fill="none" />
<path d="M800.4122465037859,727.6566363249652 L357.81683200000003,271.15864064000004" stroke="grey" stroke-width="5" />
<circle cx="800.4122465037859" cy="727.6566363249652" r="2.5" fill="grey" stroke="none" />
<circle cx="761.816832" cy="771.15864064" r="5" fill="black" stroke="none" />
<circle cx="857.816832" cy="771.15864064" r="5" fill="black" stroke="none" />
<path d="M761.816832,771.15864064 A376.928457286325,376.928457286325,0,0,1,739.0609169628679,791.4188392899844" stroke="grey" stroke-width="5" fill="none" />
<path d="M739.0609169628679,791.4188392899844 L261.81683200000003,319.15864064000004" stroke="grey" stroke-width="5" />
<circle cx="739.0609169628679" cy="791.4188392899844" r="2.5" fill="grey" stroke="none" />
<circle cx="761.816832" cy="771.15864064" r="5" fill="black" stroke="none" />
<circle cx="761.816832" cy="819.15864064" r="5" fill="black" stroke="none" />
<path d="M449.816832,395.15864064000004 A116.23278789983866,116.23278789983866,0,0,1,593.465263829883,430.9036510358236" stroke="grey" stroke-width="5" fill="none" />
<path d="M593.465263829883,430.9036510358236 L141.81683200000003,-104.84135935999998" stroke="grey" stroke-width="5" />
<circle cx="593.465263829883" cy="430.9036510358236" r="2.5" fill="grey" stroke="none" />
<circle cx="449.81683200000003" cy="395.15864064000004" r="5" fill="black" stroke="none" />
<circle cx="641.816832" cy="395.15864064000004" r="5" fill="black" stroke="none" />
<path d="M641.816832,395.15864064000004 L618.3053867474781,412.54001805500684" stroke="grey" stroke-width="5" />
<circle cx="618.3053867474781" cy="412.54001805500684" r="2.5" fill="grey" stroke="none" />
<path d="M618.3053867474781,412.54001805500684 A147.12380152541223,147.12380152541223,0,0,1,641.816832,539.15864064" stroke="grey" stroke-width="5" fill="none" />
<circle cx="641.816832" cy="395.15864064000004" r="5" fill="black" stroke="none" />
<circle cx="641.816832" cy="539.15864064" r="5" fill="black" stroke="none" />
<path d="M641.816832,395.15864064 A176.3624803379928,176.3624803379928,0,0,0,607.3546081822486,360.0760471791739" stroke="grey" stroke-width="5" fill="none" />
<path d="M607.3546081822487,360.07604717917394 L141.81683200000003,-184.84135935999998" stroke="grey" stroke-width="5" />
<circle cx="607.3546081822487" cy="360.07604717917394" r="2.5" fill="grey" stroke="none" />
<circle cx="641.816832" cy="395.15864064000004" r="5" fill="black" stroke="none" />
<circle cx="641.816832" cy="315.15864064000004" r="5" fill="black" stroke="none" />
<path d="M641.816832,315.15864064000004 A232.97712756528028,232.97712756528028,0,0,0,618.2141520668811,299.24204568765595" stroke="grey" stroke-width="5" fill="none" />
<path d="M618.2141520668811,299.24204568765595 L141.81683200000003,-240.84135935999998" stroke="grey" stroke-width="5" />
<circle cx="618.2141520668811" cy="299.24204568765595" r="2.5" fill="grey" stroke="none" />
<circle cx="641.816832" cy="315.15864064000004" r="5" fill="black" stroke="none" />
<circle cx="641.816832" cy="259.15864064000004" r="5" fill="black" stroke="none" />
<path d="M641.816832,315.15864064000004 A232.97712756528028,232.97712756528028,0,0,1,718.2456782985382,418.4698468505065" stroke="grey" stroke-width="5" fill="none" />
<path d="M718.2456782985382,418.4698468505065 L237.81683200000003,-88.84135935999998" stroke="grey" stroke-width="5" />
<circle cx="718.2456782985382" cy="418.4698468505065" r="2.5" fill="grey" stroke="none" />
<circle cx="641.816832" cy="315.15864064000004" r="5" fill="black" stroke="none" />
<circle cx="737.816832" cy="411.15864064000004" r="5" fill="black" stroke="none" />
<path d="M641.816832,395.15864064 A176.3624803379928,176.3624803379928,0,0,1,665.2108494512743,438.2820958346989" stroke="grey" stroke-width="5" fill="none" />
<path d="M665.2108494512743,438.2820958346989 L237.81683200000003,-88.84135935999998" stroke="grey" stroke-width="5" />
<circle cx="665.2108494512743" cy="438.2820958346989" r="2.5" fill="grey" stroke="none" />
<circle cx="641.816832" cy="395.15864064000004" r="5" fill="black" stroke="none" />
<circle cx="737.816832" cy="411.15864064000004" r="5" fill="black" stroke="none" />
<path d="M737.816832,411.15864064000004 A253.86932212350686,253.86932212350686,0,0,1,753.4297503402294,485.0670043883389" stroke="grey" stroke-width="5" fill="none" />
<path d="M753.4297503402294,485.0670043883389 L285.81683200000003,-16.841359359999984" stroke="grey" stroke-width="5" />
<circle cx="753.4297503402294" cy="485.0670043883389" r="2.5" fill="grey" stroke="none" />
<circle cx="737.816832" cy="411.15864064000004" r="5" fill="black" stroke="none" />
<circle cx="785.816832" cy="483.15864064000004" r="5" fill="black" stroke="none" />
<path d="M737.816832,595.15864064 A256.14841883363033,256.14841883363033,0,0,0,740.740617899266,587.4983849248003" stroke="grey" stroke-width="5" fill="none" />
<path d="M740.740617899266,587.4983849248003 L261.81683200000003,95.15864064000002" stroke="grey" stroke-width="5" />
<circle cx="740.740617899266" cy="587.4983849248003" r="2.5" fill="grey" stroke="none" />
<circle cx="737.816832" cy="595.15864064" r="5" fill="black" stroke="none" />
<circle cx="761.816832" cy="595.15864064" r="5" fill="black" stroke="none" />
<path d="M761.816832,595.15864064 A278.57354577735646,278.57354577735646,0,0,0,764.3095789494741,587.9981072666942" stroke="grey" stroke-width="5" fill="none" />
<path d="M764.3095789494741,587.9981072666942 L285.81683200000003,95.15864064000002" stroke="grey" stroke-width="5" />
<circle cx="764.3095789494741" cy="587.9981072666942" r="2.5" fill="grey" stroke="none" />
<circle cx="761.816832" cy="595.15864064" r="5" fill="black" stroke="none" />
<circle cx="785.816832" cy="595.15864064" r="5" fill="black" stroke="none" />
<path d="M785.816832,595.15864064 L773.7152830233815,591.1296023842915" stroke="grey" stroke-width="5" />
<circle cx="773.7152830233815" cy="591.1296023842915" r="2.5" fill="grey" stroke="none" />
<path d="M773.7152830233815,591.1296023842915 A288.4868464788107,288.4868464788107,0,0,0,785.816832,539.15864064" stroke="grey" stroke-width="5" fill="none" />
<circle cx="785.816832" cy="595.15864064" r="5" fill="black" stroke="none" />
<circle cx="785.816832" cy="539.15864064" r="5" fill="black" stroke="none" />
<path d="M785.816832,539.15864064 L784.0995528085859,538.9233629684068" stroke="grey" stroke-width="5" />
<circle cx="784.0995528085859" cy="538.9233629684068" r="2.5" fill="grey" stroke="none" />
<path d="M784.0995528085859,538.9233629684068 A286.75352498410354,286.75352498410354,0,0,0,785.816832,523.15864064" stroke="grey" stroke-width="5" fill="none" />
<circle cx="785.816832" cy="539.15864064" r="5" fill="black" stroke="none" />
<circle cx="785.816832" cy="523.15864064" r="5" fill="black" stroke="none" />
<path d="M785.816832,523.15864064 L784.9725404762861,523.0902309390867" stroke="grey" stroke-width="5" />
<circle cx="784.9725404762861" cy="523.0902309390867" r="2.5" fill="grey" stroke="none" />
<path d="M784.9725404762861,523.0902309390867 A285.9064665066687,285.9064665066687,0,0,0,785.816832,507.15864064000004" stroke="grey" stroke-width="5" fill="none" />
<circle cx="785.816832" cy="523.15864064" r="5" fill="black" stroke="none" />
<circle cx="785.816832" cy="507.15864064000004" r="5" fill="black" stroke="none" />
<path d="M785.816832,507.15864064000004 A285.9064665066687,285.9064665066687,0,0,0,785.4114227799133,483.18252881451923" stroke="grey" stroke-width="5" fill="none" />
<path d="M785.4114227799133,483.18252881451923 L285.81683200000003,-16.841359359999984" stroke="grey" stroke-width="5" />
<circle cx="785.4114227799133" cy="483.18252881451923" r="2.5" fill="grey" stroke="none" />
<circle cx="785.816832" cy="507.15864064000004" r="5" fill="black" stroke="none" />
<circle cx="785.816832" cy="483.15864064000004" r="5" fill="black" stroke="none" />
<path d="M785.816832,483.15864064000004 A286.3125789056584,286.3125789056584,0,0,1,785.9488982788217,485.5736209415896" stroke="grey" stroke-width="5" fill="none" />
<path d="M785.9488982788217,485.5736209415896 L333.81683200000003,-16.841359359999984" stroke="grey" stroke-width="5" />
<circle cx="785.9488982788217" cy="485.5736209415896" r="2.5" fill="grey" stroke="none" />
<circle cx="785.816832" cy="483.15864064000004" r="5" fill="black" stroke="none" />
<circle cx="833.816832" cy="483.15864064000004" r="5" fill="black" stroke="none" />
<path d="M833.816832,483.15864064000004 A334.2413928758808,334.2413928758808,0,0,1,833.4399442711895,523.1324939432596" stroke="grey" stroke-width="5" fill="none" />
<path d="M833.4399442711895,523.1324939432596 L333.81683200000003,23.158640640000016" stroke="grey" stroke-width="5" />
<circle cx="833.4399442711895" cy="523.1324939432596" r="2.5" fill="grey" stroke="none" />
<circle cx="833.816832" cy="483.15864064000004" r="5" fill="black" stroke="none" />
<circle cx="833.816832" cy="523.15864064" r="5" fill="black" stroke="none" />
<path d="M833.816832,523.15864064 L786.06594344158,519.8459087392757" stroke="grey" stroke-width="5" />
<circle cx="786.06594344158" cy="519.8459087392757" r="2.5" fill="grey" stroke="none" />
<path d="M786.06594344158,519.8459087392757 A286.75352498410354,286.75352498410354,0,0,1,785.816832,523.15864064" stroke="grey" stroke-width="5" fill="none" />
<circle cx="833.816832" cy="523.15864064" r="5" fill="black" stroke="none" />
<circle cx="785.816832" cy="523.15864064" r="5" fill="black" stroke="none" />
<path d="M785.816832,507.15864064000004 A285.9064665066687,285.9064665066687,0,0,0,785.8517393321972,505.5938100688548" stroke="grey" stroke-width="5" fill="none" />
<path d="M785.8517393321972,505.5938100688548 L365.81683200000003,7.158640640000016" stroke="grey" stroke-width="5" />
<circle cx="785.8517393321972" cy="505.5938100688548" r="2.5" fill="grey" stroke="none" />
<circle cx="785.816832" cy="507.15864064000004" r="5" fill="black" stroke="none" />
<circle cx="865.816832" cy="507.15864064000004" r="5" fill="black" stroke="none" />
<circle cx="500" cy="500" r="5" fill="red" stroke="none" />
</svg>