<?xml version="1.0" encoding="UTF-8"?>
<svg xmlns="http://www.w3.org/2000/svg" xmlns:xlink="http://www.w3.org/1999/xlink"
     width="1000" height="1000" viewBox="0 0 1000 1000">
<defs>
</defs>
<rect x="0" y="0" width="1000" height="1000" fill="white" />
<path d="M348.563832,251.92802303999997 L388.1778242955281,316.8208522353998" stroke="grey" stroke-width="5" />
<circle cx="388.1778242955281" cy="316.8208522353998" r="2.5" fill="grey" stroke="none" />
<path d="M388.1778242955281,316.8208522353998 A214.6131383560825,214.6131383560825,0,0,0,348.56383200000005,347.92802303999986" stroke="grey" stroke-width="5" fill="none" />
<circle cx="348.563832" cy="251.92802303999997" r="5" fill="black" stroke="none" />
<circle cx="348.563832" cy="347.92802303999997" r="5" fill="black" stroke="none" />
<path d="M348.563832,347.92802303999997 L408.33701076389207,407.952161156124" stroke="grey" stroke-width="5" />
<circle cx="408.33701076389207" cy="407.952161156124" r="2.5" fill="grey" stroke="none" />
<path d="M408.3370107638921,407.95216115612396 A129.90345735016834,129.90345735016834,0,0,1,412.56383200000005,403.92802303999997" stroke="grey" stroke-width="5" fill="none" />
<circle cx="348.563832" cy="347.92802303999997" r="5" fill="black" stroke="none" />
<circle cx="412.563832" cy="403.92802303999997" r="5" fill="black" stroke="none" />
<path d="M324.563832,403.92802303999997 L386.0621048456213,437.605574933999" stroke="grey" stroke-width="5" />
<circle cx="386.0621048456213" cy="437.605574933999" r="2.5" fill="grey" stroke="none" />
<path d="M386.0621048456213,437.605574933999 A129.90345735016834,129.90345735016834,0,0,1,412.56383200000005,403.92802303999997" stroke="grey" stroke-width="5" fill="none" />
<circle cx="324.563832" cy="403.92802303999997" r="5" fill="black" stroke="none" />
<circle cx="412.563832" cy="403.92802303999997" r="5" fill="black" stroke="none" />
<path d="M412.563832,403.92802303999997 L455.64015758779703,451.25886854768845" stroke="grey" stroke-width="5" />
<circle cx="455.64015758779703" cy="451.25886854768845" r="2.5" fill="grey" stroke="none" />
<path d="M455.64015758779703,451.2588685476884 A65.90518579055065,65.90518579055065,0,0,1,484.563832,435.92802303999997" stroke="grey" stroke-width="5" fill="none" />
<circle cx="412.563832" cy="403.92802303999997" r="5" fill="black" stroke="none" />
<circle cx="484.563832" cy="435.92802303999997" r="5" fill="black" stroke="none" />
<path d="M484.563832,435.92802303999997 L488.7399126103757,453.2619715077217" stroke="grey" stroke-width="5" />
<circle cx="488.7399126103757" cy="453.2619715077217" r="2.5" fill="grey" stroke="none" />
<path d="M488.7399126103757,453.2619715077217 A48.07528341431798,48.07528341431798,0,0,1,500.563832,451.92802303999997" stroke="grey" stroke-width="5" fill="none" />
<circle cx="484.563832" cy="435.92802303999997" r="5" fill="black" stroke="none" />
<circle cx="500.563832" cy="451.92802303999997" r="5" fill="black" stroke="none" />
<path d="M500.563832,451.92802303999997 L500.425895234,463.6884286875843" stroke="grey" stroke-width="5" />
<circle cx="500.425895234" cy="463.6884286875843" r="2.5" fill="grey" stroke="none" />
<path d="M500.425895234,463.6884286875843 A36.314068870439115,36.314068870439115,0,0,1,532.563832,483.92802303999997" stroke="grey" stroke-width="5" fill="none" />
<circle cx="500.563832" cy="451.92802303999997" r="5" fill="black" stroke="none" />
<circle cx="532.563832" cy="483.92802303999997" r="5" fill="black" stroke="none" />
<path d="M500.563832,451.92802303999997 A48.07528341431798,48.07528341431798,0,0,0,468.9032035763352,536.6636349473446" stroke="grey" stroke-width="5" fill="none" />
<path d="M468.9032035763353,536.6636349473446 L-47.43616800000001,55.92802303999997" stroke="grey" stroke-width="5" />
<circle cx="468.9032035763353" cy="536.6636349473446" r="2.5" fill="grey" stroke="none" />
<circle cx="500.563832" cy="451.92802303999997" r="5" fill="black" stroke="none" />
<circle cx="452.563832" cy="555.92802304" r="5" fill="black" stroke="none" />
<path d="M452.56383199999993,555.92802304 A73.33576068799582,73.33576068799582,0,0,0,475.83642528519573,569.2405621921794" stroke="grey" stroke-width="5" fill="none" />
<path d="M475.83642528519573,569.2405621921794 L-47.43616800000001,135.92802303999997" stroke="grey" stroke-width="5" />
<circle cx="475.83642528519573" cy="569.2405621921794" r="2.5" fill="grey" stroke="none" />
<circle cx="452.563832" cy="555.92802304" r="5" fill="black" stroke="none" />
<circle cx="452.563832" cy="635.92802304" r="5" fill="black" stroke="none" />
<path d="M348.563832,651.92802304 L398.3648484284453,601.9652560783039" stroke="grey" stroke-width="5" />
<circle cx="398.3648484284453" cy="601.9652560783039" r="2.5" fill="grey" stroke="none" />
<path d="M398.3648484284454,601.9652560783039 A143.96741812676572,143.96741812676572,0,0,0,452.56383199999993,635.92802304" stroke="grey" stroke-width="5" fill="none" />
<circle cx="348.563832" cy="651.92802304" r="5" fill="black" stroke="none" />
<circle cx="452.563832" cy="635.92802304" r="5" fill="black" stroke="none" />
<path d="M452.56383199999993,635.92802304 A143.96741812676572,143.96741812676572,0,0,0,473.7625713447988,641.5564015495245" stroke="grey" stroke-width="5" fill="none" />
<path d="M473.76257134479874,641.5564015495245 L-47.43616800000001,255.92802303999997" stroke="grey" stroke-width="5" />
<circle cx="473.76257134479874" cy="641.5564015495245" r="2.5" fill="grey" stroke="none" />
<circle cx="452.563832" cy="635.92802304" r="5" fill="black" stroke="none" />
<circle cx="452.563832" cy="755.92802304" r="5" fill="black" stroke="none" />
<path d="M452.563832,555.92802304 L458.138467754967,549.3554357065668" stroke="grey" stroke-width="5" />
<circle cx="458.138467754967" cy="549.3554357065668" r="2.5" fill="grey" stroke="none" />
<path d="M458.138467754967,549.3554357065668 A64.71743903838433,64.71743903838433,0,0,0,532.563832,555.92802304" stroke="grey" stroke-width="5" fill="none" />
<circle cx="452.563832" cy="555.92802304" r="5" fill="black" stroke="none" />
<circle cx="532.563832" cy="555.92802304" r="5" fill="black" stroke="none" />
<path d="M532.563832,483.92802303999997 A36.314068870439115,36.314068870439115,0,0,1,518.2721265783099,531.3821762826165" stroke="grey" stroke-width="5" fill="none" />
<path d="M518.2721265783099,531.3821762826165 L32.56383199999999,55.92802303999997" stroke="grey" stroke-width="5" />
<circle cx="518.2721265783099" cy="531.3821762826165" r="2.5" fill="grey" stroke="none" />
<circle cx="532.563832" cy="483.92802303999997" r="5" fill="black" stroke="none" />
<circle cx="532.563832" cy="555.92802304" r="5" fill="black" stroke="none" />
<path d="M532.563832,555.92802304 A64.71743903838433,64.71743903838433,0,0,0,557.0671771263009,530.5235025926318" stroke="grey" stroke-width="5" fill="none" />
<path d="M557.0671771263009,530.5235025926318 L104.56383199999999,55.92802303999997" stroke="grey" stroke-width="5" />
<circle cx="557.0671771263009" cy="530.5235025926318" r="2.5" fill="grey" stroke="none" />
<circle cx="532.563832" cy="555.92802304" r="5" fill="black" stroke="none" />
<circle cx="604.563832" cy="555.92802304" r="5" fill="black" stroke="none" />
<path d="M532.563832,483.92802303999997 A36.314068870439115,36.314068870439115,0,0,1,535.4548322903368,492.14720016866033" stroke="grey" stroke-width="5" fill="none" />
<path d="M535.4548322903368,492.14720016866033 L72.56383199999999,-16.07197696000003" stroke="grey" stroke-width="5" />
<circle cx="535.4548322903368" cy="492.14720016866033" r="2.5" fill="grey" stroke="none" />
<circle cx="532.563832" cy="483.92802303999997" r="5" fill="black" stroke="none" />
<circle cx="572.563832" cy="483.92802303999997" r="5" fill="black" stroke="none" />
<path d="M604.563832,555.92802304 A118.58135909023386,118.58135909023386,0,0,0,618.1777702399231,509.775139119569" stroke="grey" stroke-width="5" fill="none" />
<path d="M618.1777702399231,509.775139119569 L192.563832,15.928023039999971" stroke="grey" stroke-width="5" />
<circle cx="618.1777702399231" cy="509.775139119569" r="2.5" fill="grey" stroke="none" />
<circle cx="604.563832" cy="555.92802304" r="5" fill="black" stroke="none" />
<circle cx="692.563832" cy="515.92802304" r="5" fill="black" stroke="none" />
<path d="M572.563832,483.92802303999997 A74.3223933813154,74.3223933813154,0,0,1,574.1185639030152,494.4993961348193" stroke="grey" stroke-width="5" fill="none" />
<path d="M574.1185639030152,494.4993961348193 L216.563832,-16.07197696000003" stroke="grey" stroke-width="5" />
<circle cx="574.1185639030152" cy="494.4993961348193" r="2.5" fill="grey" stroke="none" />
<circle cx="572.563832" cy="483.92802303999997" r="5" fill="black" stroke="none" />
<circle cx="716.563832" cy="483.92802303999997" r="5" fill="black" stroke="none" />
<path d="M692.5638319999999,515.92802304 A193.22145665657058,193.22145665657058,0,0,0,692.691545994186,485.6996708129669" stroke="grey" stroke-width="5" fill="none" />
<path d="M692.691545994186,485.6996708129669 L216.563832,-16.07197696000003" stroke="grey" stroke-width="5" />
<circle cx="692.691545994186" cy="485.6996708129669" r="2.5" fill="grey" stroke="none" />
<circle cx="692.563832" cy="515.92802304" r="5" fill="black" stroke="none" />
<circle cx="716.563832" cy="483.92802303999997" r="5" fill="black" stroke="none" />
<path d="M452.56383199999993,635.92802304 A143.96741812676572,143.96741812676572,0,0,0,567.7994779381266,627.0033396151632" stroke="grey" stroke-width="5" fill="none" />
<path d="M567.7994779381266,627.0033396151632 L72.56383199999999,135.92802303999997" stroke="grey" stroke-width="5" />
<circle cx="567.7994779381266" cy="627.0033396151632" r="2.5" fill="grey" stroke="none" />
<circle cx="452.563832" cy="635.92802304" r="5" fill="black" stroke="none" />
<circle cx="572.563832" cy="635.92802304" r="5" fill="black" stroke="none" />
<path d="M572.563832,635.92802304 A154.08418855316395,154.08418855316395,0,0,0,649.9352870096915,535.5154455330131" stroke="grey" stroke-width="5" fill="none" />
<path d="M649.9352870096915,535.5154455330131 L168.563832,39.92802303999997" stroke="grey" stroke-width="5" />
<circle cx="649.9352870096915" cy="535.5154455330131" r="2.5" fill="grey" stroke="none" />
<circle cx="572.563832" cy="635.92802304" r="5" fill="black" stroke="none" />
<circle cx="668.563832" cy="539.92802304" r="5" fill="black" stroke="none" />
<path d="M668.563832,539.92802304 A173.22820925705776,173.22820925705776,0,0,0,672.6386311450187,514.2798991166312" stroke="grey" stroke-width="5" fill="none" />
<path d="M672.6386311450187,514.2798991166312 L192.563832,15.928023039999971" stroke="grey" stroke-width="5" />
<circle cx="672.6386311450187" cy="514.2798991166312" r="2.5" fill="grey" stroke="none" />
<circle cx="668.563832" cy="539.92802304" r="5" fill="black" stroke="none" />
<circle cx="692.563832" cy="515.92802304" r="5" fill="black" stroke="none" />
<path d="M692.5638319999999,515.92802304 A193.22145665657058,193.22145665657058,0,0,1,689.1971026483616,539.2299332392026" stroke="grey" stroke-width="5" fill="none" />
<path d="M689.1971026483616,539.2299332392026 L192.563832,39.92802303999997" stroke="grey" stroke-width="5" />
<circle cx="689.1971026483616" cy="539.2299332392026" r="2.5" fill="grey" stroke="none" />
<circle cx="692.563832" cy="515.92802304" r="5" fill="black" stroke="none" />
<circle cx="692.563832" cy="539.92802304" r="5" fill="black" stroke="none" />
<path d="M692.563832,539.92802304 A196.6597986839379,196.6597986839379,0,0,1,630.8918748938358,646.7732724483017" stroke="grey" stroke-width="5" fill="none" />
<path d="M630.891874893836,646.7732724483017 L192.563832,215.92802303999997" stroke="grey" stroke-width="5" />
<circle cx="630.891874893836" cy="646.7732724483017" r="2.5" fill="grey" stroke="none" />
<circle cx="692.563832" cy="539.92802304" r="5" fill="black" stroke="none" />
<circle cx="692.563832" cy="715.92802304" r="5" fill="black" stroke="none" />
<path d="M692.563832,715.92802304 A289.3194437442582,289.3194437442582,0,0,0,731.6460925530166,673.337325274755" stroke="grey" stroke-width="5" fill="none" />
<path d="M731.6460925530166,673.337325274755 L288.563832,215.92802303999997" stroke="grey" stroke-width="5" />
<circle cx="731.6460925530166" cy="673.337325274755" r="2.5" fill="grey" stroke="none" />
<circle cx="692.563832" cy="715.92802304" r="5" fill="black" stroke="none" />
<circle cx="788.563832" cy="715.92802304" r="5" fill="black" stroke="none" />
<path d="M692.563832,715.92802304 A289.3194437442582,289.3194437442582,0,0,1,670.5262024782962,733.7232440233921" stroke="grey" stroke-width="5" fill="none" />
<path d="M670.5262024782962,733.7232440233921 L192.563832,263.92802303999997" stroke="grey" stroke-width="5" />
<circle cx="670.5262024782962" cy="733.7232440233921" r="2.5" fill="grey" stroke="none" />
<circle cx="692.563832" cy="715.92802304" r="5" fill="black" stroke="none" />
<circle cx="692.563832" cy="763.92802304" r="5" fill="black" stroke="none" />
<path d="M380.563832,339.92802303999997 L394.8974440289761,359.13836487259994" stroke="grey" stroke-width="5" />
<circle cx="394.8974440289761" cy="359.13836487259994" r="2.5" fill="grey" stroke="none" />
<path d="M394.8974440289761,359.13836487259994 A175.7513798591835,175.7513798591835,0,0,1,572.563832,339.92802303999997" stroke="grey" stroke-width="5" fill="none" />
<circle cx="380.563832" cy="339.92802303999997" r="5" fill="black" stroke="none" />
<circle cx="572.563832" cy="339.92802303999997" r="5" fill="black" stroke="none" />
<path d="M572.563832,339.92802303999997 L530.686061591555,432.3081704935796" stroke="grey" stroke-width="5" />
<circle cx="530.686061591555" cy="432.3081704935796" r="2.5" fill="grey" stroke="none" />
<path d="M530.686061591555,432.3081704935796 A74.3223933813154,74.3223933813154,0,0,1,572.563832,483.92802303999997" stroke="grey" stroke-width="5" fill="none" />
<circle cx="572.563832" cy="339.92802303999997" r="5" fill="black" stroke="none" />
<circle cx="572.563832" cy="483.92802303999997" r="5" fill="black" stroke="none" />
<path d="M572.563832,339.92802303999997 A175.7513798591835,175.7513798591835,0,0,0,550.8502871264072,331.7656520755379" stroke="grey" stroke-width="5" fill="none" />
<path d="M550.8502871264072,331.7656520755379 L72.56383199999999,-240.07197696000003" stroke="grey" stroke-width="5" />
<circle cx="550.8502871264072" cy="331.7656520755379" r="2.5" fill="grey" stroke="none" />
<circle cx="572.563832" cy="339.92802303999997" r="5" fill="black" stroke="none" />
<circle cx="572.563832" cy="259.92802303999997" r="5" fill="black" stroke="none" />
<path d="M572.563832,259.92802303999997 A250.79885134507097,250.79885134507097,0,0,0,559.7009870537584,256.4104764551357" stroke="grey" stroke-width="5" fill="none" />
<path d="M559.7009870537582,256.4104764551357 L72.56383199999999,-296.07197696000003" stroke="grey" stroke-width="5" />
<circle cx="559.7009870537582" cy="256.4104764551357" r="2.5" fill="grey" stroke="none" />
<circle cx="572.563832" cy="259.92802303999997" r="5" fill="black" stroke="none" />
<circle cx="572.563832" cy="203.92802303999997" r="5" fill="black" stroke="none" />
<path d="M572.563832,259.92802303999997 L564.1574328911748,287.7399618192313" stroke="grey" stroke-width="5" />
<circle cx="564.1574328911748" cy="287.7399618192313" r="2.5" fill="grey" stroke="none" />
<path d="M564.1574328911748,287.7399618192313 A221.74422202999338,221.74422202999338,0,0,1,668.563832,355.92802303999997" stroke="grey" stroke-width="5" fill="none" />
<circle cx="572.563832" cy="259.92802303999997" r="5" fill="black" stroke="none" />
<circle cx="668.563832" cy="355.92802303999997" r="5" fill="black" stroke="none" />
<path d="M572.563832,339.92802303999997 A175.7513798591835,175.7513798591835,0,0,1,633.6013439139101,385.81055903979507" stroke="grey" stroke-width="5" fill="none" />
<path d="M633.6013439139101,385.81055903979507 L168.563832,-144.07197696000003" stroke="grey" stroke-width="5" />
<circle cx="633.6013439139101" cy="385.81055903979507" r="2.5" fill="grey" stroke="none" />
<circle cx="572.563832" cy="339.92802303999997" r="5" fill="black" stroke="none" />
<circle cx="668.563832" cy="355.92802303999997" r="5" fill="black" stroke="none" />
<path d="M668.563832,355.92802303999997 A221.74422202999338,221.74422202999338,0,0,1,710.3988151678216,429.97972736654134" stroke="grey" stroke-width="5" fill="none" />
<path d="M710.3988151678216,429.97972736654134 L216.563832,-72.07197696000003" stroke="grey" stroke-width="5" />
<circle cx="710.3988151678216" cy="429.97972736654134" r="2.5" fill="grey" stroke="none" />
<circle cx="668.563832" cy="355.92802303999997" r="5" fill="black" stroke="none" />
<circle cx="716.563832" cy="427.92802303999997" r="5" fill="black" stroke="none" />
<path d="M668.563832,539.92802304 A173.22820925705776,173.22820925705776,0,0,0,669.620268139537,535.1706855019711" stroke="grey" stroke-width="5" fill="none" />
<path d="M669.620268139537,535.1706855019711 L192.563832,39.92802303999997" stroke="grey" stroke-width="5" />
<circle cx="669.620268139537" cy="535.1706855019711" r="2.5" fill="grey" stroke="none" />
<circle cx="668.563832" cy="539.92802304" r="5" fill="black" stroke="none" />
<circle cx="692.563832" cy="539.92802304" r="5" fill="black" stroke="none" />
<path d="M692.563832,539.92802304 A196.6597986839379,196.6597986839379,0,0,0,693.4001850017764,535.6573254701699" stroke="grey" stroke-width="5" fill="none" />
<path d="M693.4001850017764,535.6573254701699 L216.563832,39.92802303999997" stroke="grey" stroke-width="5" />
<circle cx="693.4001850017764" cy="535.6573254701699" r="2.5" fill="grey" stroke="none" />
<circle cx="692.563832" cy="539.92802304" r="5" fill="black" stroke="none" />
<circle cx="716.563832" cy="539.92802304" r="5" fill="black" stroke="none" />
<path d="M716.563832,539.92802304 L713.5600004457173,539.3742045450092" stroke="grey" stroke-width="5" />
<circle cx="713.5600004457173" cy="539.3742045450092" r="2.5" fill="grey" stroke="none" />
<path d="M713.5600004457173,539.3742045450092 A217.15939255285963,217.15939255285963,0,0,0,716.563832,483.92802303999997" stroke="grey" stroke-width="5" fill="none" />
<circle cx="716.563832" cy="539.92802304" r="5" fill="black" stroke="none" />
<circle cx="716.563832" cy="483.92802303999997" r="5" fill="black" stroke="none" />
<path d="M716.563832,483.92802303999997 A217.15939255285963,217.15939255285963,0,0,0,714.8164840890402,468.1867961759565" stroke="grey" stroke-width="5" fill="none" />
<path d="M714.8164840890402,468.18679617595654 L216.563832,-32.07197696000003" stroke="grey" stroke-width="5" />
<circle cx="714.8164840890402" cy="468.18679617595654" r="2.5" fill="grey" stroke="none" />
<circle cx="716.563832" cy="483.92802303999997" r="5" fill="black" stroke="none" />
<circle cx="716.563832" cy="467.92802303999997" r="5" fill="black" stroke="none" />
<path d="M716.563832,467.92802303999997 A218.92579801532526,218.92579801532526,0,0,0,713.7236682922603,452.55847126886715" stroke="grey" stroke-width="5" fill="none" />
<path d="M713.7236682922603,452.55847126886715 L216.563832,-48.07197696000003" stroke="grey" stroke-width="5" />
<circle cx="713.7236682922603" cy="452.55847126886715" r="2.5" fill="grey" stroke="none" />
<circle cx="716.563832" cy="467.92802303999997" r="5" fill="black" stroke="none" />
<circle cx="716.563832" cy="451.92802303999997" r="5" fill="black" stroke="none" />
<path d="M716.563832,451.92802303999997 A221.83509257862468,221.83509257862468,0,0,0,710.4850363806705,429.9510331325664" stroke="grey" stroke-width="5" fill="none" />
<path d="M710.4850363806705,429.9510331325664 L216.563832,-72.07197696000003" stroke="grey" stroke-width="5" />
<circle cx="710.4850363806705" cy="429.9510331325664" r="2.5" fill="grey" stroke="none" />
<circle cx="716.563832" cy="451.92802303999997" r="5" fill="black" stroke="none" />
<circle cx="716.563832" cy="427.92802303999997" r="5" fill="black" stroke="none" />
<path d="M716.5638319999999,427.92802303999997 A228.24167716139615,228.24167716139615,0,0,1,720.2165865016773,440.00901548568913" stroke="grey" stroke-width="5" fill="none" />
<path d="M720.2165865016773,440.00901548568913 L264.563832,-72.07197696000003" stroke="grey" stroke-width="5" />
<circle cx="720.2165865016773" cy="440.00901548568913" r="2.5" fill="grey" stroke="none" />
<circle cx="716.563832" cy="427.92802303999997" r="5" fill="black" stroke="none" />
<circle cx="764.563832" cy="427.92802303999997" r="5" fill="black" stroke="none" />
<path d="M764.563832,427.92802303999997 L757.1304208616443,429.9530187933794" stroke="grey" stroke-width="5" />
<circle cx="757.1304208616443" cy="429.9530187933794" r="2.5" fill="grey" stroke="none" />
<path d="M757.1304208616443,429.9530187933794 A266.5007184017465,266.5007184017465,0,0,1,764.563832,467.92802303999997" stroke="grey" stroke-width="5" fill="none" />
<circle cx="764.563832" cy="427.92802303999997" r="5" fill="black" stroke="none" />
<circle cx="764.563832" cy="467.92802303999997" r="5" fill="black" stroke="none" />
<path d="M764.563832,467.92802303999997 L717.3346788479535,473.65341755172125" stroke="grey" stroke-width="5" />
<circle cx="717.3346788479535" cy="473.65341755172125" r="2.5" fill="grey" stroke="none" />
<path d="M717.3346788479535,473.65341755172125 A218.92579801532526,218.92579801532526,0,0,0,716.563832,467.92802303999997" stroke="grey" stroke-width="5" fill="none" />
<circle cx="764.563832" cy="467.92802303999997" r="5" fill="black" stroke="none" />
<circle cx="716.563832" cy="467.92802303999997" r="5" fill="black" stroke="none" />
<path d="M716.563832,451.92802303999997 A221.83509257862468,221.83509257862468,0,0,1,718.9769044257283,464.50459709353316" stroke="grey" stroke-width="5" fill="none" />
<path d="M718.9769044257283,464.50459709353316 L296.563832,-48.07197696000003" stroke="grey" stroke-width="5" />
<circle cx="718.9769044257283" cy="464.50459709353316" r="2.5" fill="grey" stroke="none" />
<circle cx="716.563832" cy="451.92802303999997" r="5" fill="black" stroke="none" />
<circle cx="796.563832" cy="451.92802303999997" r="5" fill="black" stroke="none" />
<circle cx="500" cy="500" r="5" fill="red" stroke="none" />
</svg>