<?xml version="1.0" encoding="UTF-8"?>
<svg xmlns="http://www.w3.org/2000/svg" xmlns:xlink="http://www.w3.org/1999/xlink"
     width="1000" height="1000" viewBox="0 0 1000 1000">
<defs>
</defs>
<rect x="0" y="0" width="1000" height="1000" fill="white" />
<path d="M260.14468750000003,256.64689999999996 L302.39391264830124,299.5122416314765" stroke="grey" stroke-width="5" />
<circle cx="302.39391264830124" cy="299.5122416314765" r="2.5" fill="grey" stroke="none" />
<path d="M302.3939126483011,299.5122416314766 A281.50223269821976,281.50223269821976,0,0,0,260.1446875,352.64689999999996" stroke="grey" stroke-width="5" fill="none" />
<circle cx="260.14468750000003" cy="256.64689999999996" r="5" fill="black" stroke="none" />
<circle cx="260.14468750000003" cy="352.64689999999996" r="5" fill="black" stroke="none" />
<path d="M260.14468750000003,352.64689999999996 L331.15017998260123,396.26852891154635" stroke="grey" stroke-width="5" />
<circle cx="331.15017998260123" cy="396.26852891154635" r="2.5" fill="grey" stroke="none" />
<path d="M331.15017998260123,396.26852891154635 A198.16780720914952,198.16780720914952,0,0,0,324.14468750000003,408.64689999999996" stroke="grey" stroke-width="5" fill="none" />
<circle cx="260.14468750000003" cy="352.64689999999996" r="5" fill="black" stroke="none" />
<circle cx="324.14468750000003" cy="408.64689999999996" r="5" fill="black" stroke="none" />
<path d="M236.14468750000003,408.64689999999996 L312.7382560231589,435.1654485876961" stroke="grey" stroke-width="5" />
<circle cx="312.7382560231589" cy="435.1654485876961" r="2.5" fill="grey" stroke="none" />
<path d="M312.73825602315895,435.165448587696 A198.16780720914952,198.16780720914952,0,0,1,324.14468750000003,408.64689999999996" stroke="grey" stroke-width="5" fill="none" />
<circle cx="236.14468750000003" cy="408.64689999999996" r="5" fill="black" stroke="none" />
<circle cx="324.14468750000003" cy="408.64689999999996" r="5" fill="black" stroke="none" />
<path d="M324.14468750000003,408.64689999999996 L393.849333078234,444.8569829792842" stroke="grey" stroke-width="5" />
<circle cx="393.849333078234" cy="444.8569829792842" r="2.5" fill="grey" stroke="none" />
<path d="M393.849333078234,444.8569829792842 A119.6190470371782,119.6190470371782,0,0,1,396.14468750000003,440.64689999999996" stroke="grey" stroke-width="5" fill="none" />
<circle cx="324.14468750000003" cy="408.64689999999996" r="5" fill="black" stroke="none" />
<circle cx="396.14468750000003" cy="440.64689999999996" r="5" fill="black" stroke="none" />
<path d="M396.14468750000003,440.64689999999996 L414.9410887199532,451.38900509210106" stroke="grey" stroke-width="5" />
<circle cx="414.9410887199532" cy="451.38900509210106" r="2.5" fill="grey" stroke="none" />
<path d="M414.9410887199532,451.38900509210106 A97.9696239355988,97.9696239355988,0,0,0,412.14468750000003,456.64689999999996" stroke="grey" stroke-width="5" fill="none" />
<circle cx="396.14468750000003" cy="440.64689999999996" r="5" fill="black" stroke="none" />
<circle cx="412.14468750000003" cy="456.64689999999996" r="5" fill="black" stroke="none" />
<path d="M412.14468750000003,456.64689999999996 L448.88692840916406,474.7777335151511" stroke="grey" stroke-width="5" />
<circle cx="448.88692840916406" cy="474.7777335151511" r="2.5" fill="grey" stroke="none" />
<path d="M448.88692840916406,474.7777335151511 A56.99744568033425,56.99744568033425,0,0,0,444.14468750000003,488.64689999999996" stroke="grey" stroke-width="5" fill="none" />
<circle cx="412.14468750000003" cy="456.64689999999996" r="5" fill="black" stroke="none" />
<circle cx="444.14468750000003" cy="488.64689999999996" r="5" fill="black" stroke="none" />
<path d="M412.14468750000003,456.64689999999996 A97.9696239355988,97.9696239355988,0,0,0,410.53954042882117,539.9358659277113" stroke="grey" stroke-width="5" fill="none" />
<path d="M410.53954042882117,539.9358659277113 L-135.85531249999997,60.64689999999996" stroke="grey" stroke-width="5" />
<circle cx="410.53954042882117" cy="539.9358659277113" r="2.5" fill="grey" stroke="none" />
<circle cx="412.14468750000003" cy="456.64689999999996" r="5" fill="black" stroke="none" />
<circle cx="364.14468750000003" cy="560.6469" r="5" fill="black" stroke="none" />
<path d="M364.14468750000003,560.6469 A148.77739214706864,148.77739214706864,0,0,0,396.6370836593802,607.0085040529241" stroke="grey" stroke-width="5" fill="none" />
<path d="M396.6370836593802,607.0085040529241 L-135.85531249999997,140.64689999999996" stroke="grey" stroke-width="5" />
<circle cx="396.6370836593802" cy="607.0085040529241" r="2.5" fill="grey" stroke="none" />
<circle cx="364.14468750000003" cy="560.6469" r="5" fill="black" stroke="none" />
<circle cx="364.14468750000003" cy="640.6469" r="5" fill="black" stroke="none" />
<path d="M260.14468750000003,656.6469 L336.27724085804715,606.9255561268153" stroke="grey" stroke-width="5" />
<circle cx="336.27724085804715" cy="606.9255561268153" r="2.5" fill="grey" stroke="none" />
<path d="M336.27724085804715,606.9255561268153 A195.54594450942375,195.54594450942375,0,0,0,364.14468750000003,640.6469" stroke="grey" stroke-width="5" fill="none" />
<circle cx="260.14468750000003" cy="656.6469" r="5" fill="black" stroke="none" />
<circle cx="364.14468750000003" cy="640.6469" r="5" fill="black" stroke="none" />
<path d="M364.14468750000003,640.6469 A195.54594450942375,195.54594450942375,0,0,0,409.61737006086383,673.4047191381128" stroke="grey" stroke-width="5" fill="none" />
<path d="M409.61737006086383,673.4047191381128 L-135.85531249999997,260.64689999999996" stroke="grey" stroke-width="5" />
<circle cx="409.61737006086383" cy="673.4047191381128" r="2.5" fill="grey" stroke="none" />
<circle cx="364.14468750000003" cy="640.6469" r="5" fill="black" stroke="none" />
<circle cx="364.14468750000003" cy="760.6469" r="5" fill="black" stroke="none" />
<path d="M364.14468750000003,560.6469 L424.7119811584296,533.6091748335776" stroke="grey" stroke-width="5" />
<circle cx="424.7119811584296" cy="533.6091748335776" r="2.5" fill="grey" stroke="none" />
<path d="M424.7119811584296,533.6091748335776 A82.44915047520288,82.44915047520288,0,0,0,444.14468750000003,560.6469" stroke="grey" stroke-width="5" fill="none" />
<circle cx="364.14468750000003" cy="560.6469" r="5" fill="black" stroke="none" />
<circle cx="444.14468750000003" cy="560.6469" r="5" fill="black" stroke="none" />
<path d="M444.14468750000003,488.64689999999996 A56.99744568033425,56.99744568033425,0,0,0,461.386986744826,541.9254579156676" stroke="grey" stroke-width="5" fill="none" />
<path d="M461.386986744826,541.9254579156676 L-55.85531249999997,60.64689999999996" stroke="grey" stroke-width="5" />
<circle cx="461.386986744826" cy="541.9254579156676" r="2.5" fill="grey" stroke="none" />
<circle cx="444.14468750000003" cy="488.64689999999996" r="5" fill="black" stroke="none" />
<circle cx="444.14468750000003" cy="560.6469" r="5" fill="black" stroke="none" />
<path d="M444.14468750000003,560.6469 L457.48378351752257,546.1635001933104" stroke="grey" stroke-width="5" />
<circle cx="457.48378351752257" cy="546.1635001933104" r="2.5" fill="grey" stroke="none" />
<path d="M457.48378351752257,546.1635001933104 A62.759042488574124,62.759042488574124,0,0,0,516.1446875,560.6469" stroke="grey" stroke-width="5" fill="none" />
<circle cx="444.14468750000003" cy="560.6469" r="5" fill="black" stroke="none" />
<circle cx="516.1446875" cy="560.6469" r="5" fill="black" stroke="none" />
<path d="M444.14468750000003,488.64689999999996 L480.88989764754075,496.1156979827531" stroke="grey" stroke-width="5" />
<circle cx="480.88989764754075" cy="496.1156979827531" r="2.5" fill="grey" stroke="none" />
<path d="M480.88989764754075,496.1156979827531 A19.500867008485958,19.500867008485958,0,0,1,484.14468750000003,488.64689999999996" stroke="grey" stroke-width="5" fill="none" />
<circle cx="444.14468750000003" cy="488.64689999999996" r="5" fill="black" stroke="none" />
<circle cx="484.14468750000003" cy="488.64689999999996" r="5" fill="black" stroke="none" />
<path d="M516.1446875,560.6469 A62.759042488574124,62.759042488574124,0,0,0,561.5609104067867,512.204577992304" stroke="grey" stroke-width="5" fill="none" />
<path d="M561.5609104067867,512.204577992304 L104.14468750000003,20.64689999999996" stroke="grey" stroke-width="5" />
<circle cx="561.5609104067867" cy="512.204577992304" r="2.5" fill="grey" stroke="none" />
<circle cx="516.1446875" cy="560.6469" r="5" fill="black" stroke="none" />
<circle cx="604.1446875" cy="520.6469" r="5" fill="black" stroke="none" />
<path d="M484.14468750000003,488.64689999999996 A19.500867008485958,19.500867008485958,0,0,1,519.4247811178176,498.2790431128197" stroke="grey" stroke-width="5" fill="none" />
<path d="M519.4247811178176,498.2790431128197 L128.14468750000003,-11.35310000000004" stroke="grey" stroke-width="5" />
<circle cx="519.4247811178176" cy="498.2790431128197" r="2.5" fill="grey" stroke="none" />
<circle cx="484.14468750000003" cy="488.64689999999996" r="5" fill="black" stroke="none" />
<circle cx="628.1446875" cy="488.64689999999996" r="5" fill="black" stroke="none" />
<path d="M604.1446875,520.6469 A106.17160832389543,106.17160832389543,0,0,0,605.7573620557935,490.6303263086452" stroke="grey" stroke-width="5" fill="none" />
<path d="M605.7573620557935,490.6303263086452 L128.14468750000003,-11.35310000000004" stroke="grey" stroke-width="5" />
<circle cx="605.7573620557935" cy="490.6303263086452" r="2.5" fill="grey" stroke="none" />
<circle cx="604.1446875" cy="520.6469" r="5" fill="black" stroke="none" />
<circle cx="628.1446875" cy="488.64689999999996" r="5" fill="black" stroke="none" />
<path d="M364.14468750000003,640.6469 L401.6667998957074,601.8013908123646" stroke="grey" stroke-width="5" />
<circle cx="401.6667998957074" cy="601.8013908123646" r="2.5" fill="grey" stroke="none" />
<path d="M401.6667998957074,601.8013908123646 A141.53777380643885,141.53777380643885,0,0,0,484.14468750000003,640.6469" stroke="grey" stroke-width="5" fill="none" />
<circle cx="364.14468750000003" cy="640.6469" r="5" fill="black" stroke="none" />
<circle cx="484.14468750000003" cy="640.6469" r="5" fill="black" stroke="none" />
<path d="M484.14468750000003,640.6469 L489.72294600661985,591.164130968818" stroke="grey" stroke-width="5" />
<circle cx="489.72294600661985" cy="591.164130968818" r="2.5" fill="grey" stroke="none" />
<path d="M489.72294600661985,591.164130968818 A91.74157516678389,91.74157516678389,0,0,0,580.1446875,544.6469" stroke="grey" stroke-width="5" fill="none" />
<circle cx="484.14468750000003" cy="640.6469" r="5" fill="black" stroke="none" />
<circle cx="580.1446875" cy="544.6469" r="5" fill="black" stroke="none" />
<path d="M580.1446875,544.6469 A91.74157516678389,91.74157516678389,0,0,0,589.9901379223255,517.8407312295067" stroke="grey" stroke-width="5" fill="none" />
<path d="M589.9901379223255,517.8407312295067 L104.14468750000003,20.64689999999996" stroke="grey" stroke-width="5" />
<circle cx="589.9901379223255" cy="517.8407312295067" r="2.5" fill="grey" stroke="none" />
<circle cx="580.1446875" cy="544.6469" r="5" fill="black" stroke="none" />
<circle cx="604.1446875" cy="520.6469" r="5" fill="black" stroke="none" />
<path d="M604.1446875,520.6469 A106.17160832389543,106.17160832389543,0,0,1,597.582538317258,541.8337020791078" stroke="grey" stroke-width="5" fill="none" />
<path d="M597.582538317258,541.8337020791078 L104.14468750000003,44.64689999999996" stroke="grey" stroke-width="5" />
<circle cx="597.582538317258" cy="541.8337020791078" r="2.5" fill="grey" stroke="none" />
<circle cx="604.1446875" cy="520.6469" r="5" fill="black" stroke="none" />
<circle cx="604.1446875" cy="544.6469" r="5" fill="black" stroke="none" />
<path d="M604.1446875,544.6469 A113.31134812578419,113.31134812578419,0,0,1,548.3657934912077,602.4705403228095" stroke="grey" stroke-width="5" fill="none" />
<path d="M548.3657934912076,602.4705403228095 L104.14468750000003,220.64689999999996" stroke="grey" stroke-width="5" />
<circle cx="548.3657934912076" cy="602.4705403228095" r="2.5" fill="grey" stroke="none" />
<circle cx="604.1446875" cy="544.6469" r="5" fill="black" stroke="none" />
<circle cx="604.1446875" cy="720.6469" r="5" fill="black" stroke="none" />
<path d="M604.1446875,720.6469 A243.9901031068323,243.9901031068323,0,0,0,663.9265677308231,680.7187062981432" stroke="grey" stroke-width="5" fill="none" />
<path d="M663.9265677308231,680.7187062981432 L200.14468750000003,220.64689999999996" stroke="grey" stroke-width="5" />
<circle cx="663.9265677308231" cy="680.7187062981432" r="2.5" fill="grey" stroke="none" />
<circle cx="604.1446875" cy="720.6469" r="5" fill="black" stroke="none" />
<circle cx="700.1446875" cy="720.6469" r="5" fill="black" stroke="none" />
<path d="M604.1446875,720.6469 A243.9901031068323,243.9901031068323,0,0,1,588.1911692410829,727.4939297695068" stroke="grey" stroke-width="5" fill="none" />
<path d="M588.1911692410828,727.4939297695068 L104.14468750000003,268.64689999999996" stroke="grey" stroke-width="5" />
<circle cx="588.1911692410828" cy="727.4939297695068" r="2.5" fill="grey" stroke="none" />
<circle cx="604.1446875" cy="720.6469" r="5" fill="black" stroke="none" />
<circle cx="604.1446875" cy="768.6469" r="5" fill="black" stroke="none" />
<path d="M292.14468750000003,344.64689999999996 L374.9165776295489,406.51142282514945" stroke="grey" stroke-width="5" />
<circle cx="374.9165776295489" cy="406.51142282514945" r="2.5" fill="grey" stroke="none" />
<path d="M374.9165776295489,406.51142282514945 A156.16009930223106,156.16009930223106,0,0,1,484.14468750000003,344.64689999999996" stroke="grey" stroke-width="5" fill="none" />
<circle cx="292.14468750000003" cy="344.64689999999996" r="5" fill="black" stroke="none" />
<circle cx="484.14468750000003" cy="344.64689999999996" r="5" fill="black" stroke="none" />
<path d="M484.14468750000003,344.64689999999996 L498.02002981669426,480.59990896526836" stroke="grey" stroke-width="5" />
<circle cx="498.02002981669426" cy="480.59990896526836" r="2.5" fill="grey" stroke="none" />
<path d="M498.02002981669426,480.59990896526836 A19.500867008485958,19.500867008485958,0,0,0,484.14468750000003,488.64689999999996" stroke="grey" stroke-width="5" fill="none" />
<circle cx="484.14468750000003" cy="344.64689999999996" r="5" fill="black" stroke="none" />
<circle cx="484.14468750000003" cy="488.64689999999996" r="5" fill="black" stroke="none" />
<path d="M484.14468750000003,344.64689999999996 A156.16009930223106,156.16009930223106,0,0,1,489.5035685871402,344.1930632427497" stroke="grey" stroke-width="5" fill="none" />
<path d="M489.5035685871402,344.1930632427497 L-15.855312499999968,-235.35310000000004" stroke="grey" stroke-width="5" />
<circle cx="489.5035685871402" cy="344.1930632427497" r="2.5" fill="grey" stroke="none" />
<circle cx="484.14468750000003" cy="344.64689999999996" r="5" fill="black" stroke="none" />
<circle cx="484.14468750000003" cy="264.64689999999996" r="5" fill="black" stroke="none" />
<path d="M484.14468750000003,264.64689999999996 A235.88656726079736,235.88656726079736,0,0,1,487.18211874148716,264.461946738695" stroke="grey" stroke-width="5" fill="none" />
<path d="M487.18211874148716,264.461946738695 L-15.855312499999968,-291.35310000000004" stroke="grey" stroke-width="5" />
<circle cx="487.18211874148716" cy="264.461946738695" r="2.5" fill="grey" stroke="none" />
<circle cx="484.14468750000003" cy="264.64689999999996" r="5" fill="black" stroke="none" />
<circle cx="484.14468750000003" cy="208.64689999999996" r="5" fill="black" stroke="none" />
<path d="M484.14468750000003,264.64689999999996 L489.19465841938097,339.6076622546799" stroke="grey" stroke-width="5" />
<circle cx="489.19465841938097" cy="339.6076622546799" r="2.5" fill="grey" stroke="none" />
<path d="M489.19465841938097,339.6076622546799 A160.75589387043536,160.75589387043536,0,0,1,580.1446875,360.64689999999996" stroke="grey" stroke-width="5" fill="none" />
<circle cx="484.14468750000003" cy="264.64689999999996" r="5" fill="black" stroke="none" />
<circle cx="580.1446875" cy="360.64689999999996" r="5" fill="black" stroke="none" />
<path d="M484.14468750000003,344.64689999999996 A156.16009930223106,156.16009930223106,0,0,1,577.8534587890963,364.6308175076131" stroke="grey" stroke-width="5" fill="none" />
<path d="M577.8534587890963,364.6308175076131 L80.14468750000003,-139.35310000000004" stroke="grey" stroke-width="5" />
<circle cx="577.8534587890963" cy="364.6308175076131" r="2.5" fill="grey" stroke="none" />
<circle cx="484.14468750000003" cy="344.64689999999996" r="5" fill="black" stroke="none" />
<circle cx="580.1446875" cy="360.64689999999996" r="5" fill="black" stroke="none" />
<path d="M580.1446875,360.64689999999996 L572.173469510626,374.50700691719317" stroke="grey" stroke-width="5" />
<circle cx="572.173469510626" cy="374.50700691719317" r="2.5" fill="grey" stroke="none" />
<path d="M572.173469510626,374.5070069171931 A144.76705776551057,144.76705776551057,0,0,1,628.1446875,432.64689999999996" stroke="grey" stroke-width="5" fill="none" />
<circle cx="580.1446875" cy="360.64689999999996" r="5" fill="black" stroke="none" />
<circle cx="628.1446875" cy="432.64689999999996" r="5" fill="black" stroke="none" />
<path d="M580.1446875,544.6469 A91.74157516678389,91.74157516678389,0,0,0,584.3198658787147,536.1479851759158" stroke="grey" stroke-width="5" fill="none" />
<path d="M584.3198658787147,536.1479851759158 L104.14468750000003,44.64689999999996" stroke="grey" stroke-width="5" />
<circle cx="584.3198658787147" cy="536.1479851759158" r="2.5" fill="grey" stroke="none" />
<circle cx="580.1446875" cy="544.6469" r="5" fill="black" stroke="none" />
<circle cx="604.1446875" cy="544.6469" r="5" fill="black" stroke="none" />
<path d="M604.1446875,544.6469 A113.31134812578419,113.31134812578419,0,0,0,607.0028015604069,537.2808539642919" stroke="grey" stroke-width="5" fill="none" />
<path d="M607.0028015604069,537.2808539642919 L128.14468750000003,44.64689999999996" stroke="grey" stroke-width="5" />
<circle cx="607.0028015604069" cy="537.2808539642919" r="2.5" fill="grey" stroke="none" />
<circle cx="604.1446875" cy="544.6469" r="5" fill="black" stroke="none" />
<circle cx="628.1446875" cy="544.6469" r="5" fill="black" stroke="none" />
<path d="M628.1446875,544.6469 L621.4842942488665,542.3263518973404" stroke="grey" stroke-width="5" />
<circle cx="621.4842942488665" cy="542.3263518973404" r="2.5" fill="grey" stroke="none" />
<path d="M621.4842942488665,542.3263518973404 A128.6466237958955,128.6466237958955,0,0,0,628.1446875,488.64689999999996" stroke="grey" stroke-width="5" fill="none" />
<circle cx="628.1446875" cy="544.6469" r="5" fill="black" stroke="none" />
<circle cx="628.1446875" cy="488.64689999999996" r="5" fill="black" stroke="none" />
<path d="M628.1446875,488.64689999999996 A128.6466237958955,128.6466237958955,0,0,0,625.812357134414,473.144747136448" stroke="grey" stroke-width="5" fill="none" />
<path d="M625.812357134414,473.144747136448 L128.14468750000003,-27.35310000000004" stroke="grey" stroke-width="5" />
<circle cx="625.812357134414" cy="473.144747136448" r="2.5" fill="grey" stroke="none" />
<circle cx="628.1446875" cy="488.64689999999996" r="5" fill="black" stroke="none" />
<circle cx="628.1446875" cy="472.64689999999996" r="5" fill="black" stroke="none" />
<path d="M628.1446875,472.64689999999996 A131.03149626743436,131.03149626743436,0,0,0,624.12069803624,458.00827065862626" stroke="grey" stroke-width="5" fill="none" />
<path d="M624.12069803624,458.00827065862626 L128.14468750000003,-43.35310000000004" stroke="grey" stroke-width="5" />
<circle cx="624.12069803624" cy="458.00827065862626" r="2.5" fill="grey" stroke="none" />
<circle cx="628.1446875" cy="472.64689999999996" r="5" fill="black" stroke="none" />
<circle cx="628.1446875" cy="456.64689999999996" r="5" fill="black" stroke="none" />
<path d="M628.1446875,456.64689999999996 A135.27953361126978,135.27953361126978,0,0,0,619.7465350704385,437.06098544855587" stroke="grey" stroke-width="5" fill="none" />
<path d="M619.7465350704385,437.06098544855587 L128.14468750000003,-67.35310000000004" stroke="grey" stroke-width="5" />
<circle cx="619.7465350704385" cy="437.06098544855587" r="2.5" fill="grey" stroke="none" />
<circle cx="628.1446875" cy="456.64689999999996" r="5" fill="black" stroke="none" />
<circle cx="628.1446875" cy="432.64689999999996" r="5" fill="black" stroke="none" />
<path d="M628.1446875,432.64689999999996 A144.76705776551057,144.76705776551057,0,0,1,635.2189984897612,448.29580808572075" stroke="grey" stroke-width="5" fill="none" />
<path d="M635.2189984897612,448.29580808572075 L176.14468750000003,-67.35310000000004" stroke="grey" stroke-width="5" />
<circle cx="635.2189984897612" cy="448.29580808572075" r="2.5" fill="grey" stroke="none" />
<circle cx="628.1446875" cy="432.64689999999996" r="5" fill="black" stroke="none" />
<circle cx="676.1446875" cy="432.64689999999996" r="5" fill="black" stroke="none" />
<path d="M676.1446875,432.64689999999996 L666.4990362479086,436.33514358297623" stroke="grey" stroke-width="5" />
<circle cx="666.4990362479086" cy="436.33514358297623" r="2.5" fill="grey" stroke="none" />
<path d="M666.4990362479086,436.33514358297623 A178.255835848599,178.255835848599,0,0,1,676.1446875,472.64689999999996" stroke="grey" stroke-width="5" fill="none" />
<circle cx="676.1446875" cy="432.64689999999996" r="5" fill="black" stroke="none" />
<circle cx="676.1446875" cy="472.64689999999996" r="5" fill="black" stroke="none" />
<path d="M676.1446875,472.64689999999996 L629.4796428560577,479.8934065553011" stroke="grey" stroke-width="5" />
<circle cx="629.4796428560577" cy="479.8934065553011" r="2.5" fill="grey" stroke="none" />
<path d="M629.4796428560577,479.8934065553011 A131.03149626743436,131.03149626743436,0,0,0,628.1446875,472.64689999999996" stroke="grey" stroke-width="5" fill="none" />
<circle cx="676.1446875" cy="472.64689999999996" r="5" fill="black" stroke="none" />
<circle cx="628.1446875" cy="472.64689999999996" r="5" fill="black" stroke="none" />
<path d="M628.1446875,456.64689999999996 A135.27953361126978,135.27953361126978,0,0,1,632.4373327185551,472.41549136784573" stroke="grey" stroke-width="5" fill="none" />
<path d="M632.4373327185551,472.41549136784573 L208.14468750000003,-43.35310000000004" stroke="grey" stroke-width="5" />
<circle cx="632.4373327185551" cy="472.41549136784573" r="2.5" fill="grey" stroke="none" />
<circle cx="628.1446875" cy="456.64689999999996" r="5" fill="black" stroke="none" />
<circle cx="708.1446875" cy="456.64689999999996" r="5" fill="black" stroke="none" />
<circle cx="500" cy="500" r="5" fill="red" stroke="none" />
</svg>