<?xml version="1.0" encoding="UTF-8"?>
<svg xmlns="http://www.w3.org/2000/svg" xmlns:xlink="http://www.w3.org/1999/xlink"
     width="1000" height="1000" viewBox="0 0 1000 1000">
<defs>
</defs>
<rect x="0" y="0" width="1000" height="1000" fill="white" />
<path d="M419.439232,315.30927104 L452.0956668422344,390.1762429666705" stroke="grey" stroke-width="5" />
<circle cx="452.0956668422344" cy="390.1762429666705" r="2.5" fill="grey" stroke="none" />
<path d="M452.0956668422344,390.17624296667043 A119.81687170096706,119.81687170096706,0,0,0,419.439232,411.30927104000006" stroke="grey" stroke-width="5" fill="none" />
<circle cx="419.439232" cy="315.30927104" r="5" fill="black" stroke="none" />
<circle cx="419.439232" cy="411.30927104" r="5" fill="black" stroke="none" />
<path d="M419.439232,411.30927104 L475.36035885582,472.8737971516094" stroke="grey" stroke-width="5" />
<circle cx="475.36035885582" cy="472.8737971516094" r="2.5" fill="grey" stroke="none" />
<path d="M475.36035885582,472.8737971516094 A36.64618393074516,36.64618393074516,0,0,1,483.439232,467.30927104" stroke="grey" stroke-width="5" fill="none" />
<circle cx="419.439232" cy="411.30927104" r="5" fill="black" stroke="none" />
<circle cx="483.439232" cy="467.30927104" r="5" fill="black" stroke="none" />
<path d="M395.439232,467.30927104 L465.0234265612931,489.0646395956627" stroke="grey" stroke-width="5" />
<circle cx="465.0234265612931" cy="489.0646395956627" r="2.5" fill="grey" stroke="none" />
<path d="M465.0234265612931,489.0646395956627 A36.64618393074516,36.64618393074516,0,0,1,483.439232,467.30927104" stroke="grey" stroke-width="5" fill="none" />
<circle cx="395.439232" cy="467.30927104" r="5" fill="black" stroke="none" />
<circle cx="483.439232" cy="467.30927104" r="5" fill="black" stroke="none" />
<path d="M483.439232,467.30927104 A36.64618393074516,36.64618393074516,0,0,1,536.6433399338243,499.54345298139384" stroke="grey" stroke-width="5" fill="none" />
<path d="M536.6433399338243,499.54345298139384 L555.439232,499.30927104" stroke="grey" stroke-width="5" />
<circle cx="536.6433399338243" cy="499.54345298139384" r="2.5" fill="grey" stroke="none" />
<circle cx="483.439232" cy="467.30927104" r="5" fill="black" stroke="none" />
<circle cx="555.439232" cy="499.30927104" r="5" fill="black" stroke="none" />
<path d="M555.4392320000001,499.30927104 A55.44353480114708,55.44353480114708,0,0,1,554.212687811392,511.61766032859236" stroke="grey" stroke-width="5" fill="none" />
<path d="M554.212687811392,511.61766032859236 L571.439232,515.30927104" stroke="grey" stroke-width="5" />
<circle cx="554.212687811392" cy="511.61766032859236" r="2.5" fill="grey" stroke="none" />
<circle cx="555.439232" cy="499.30927104" r="5" fill="black" stroke="none" />
<circle cx="571.439232" cy="515.30927104" r="5" fill="black" stroke="none" />
<path d="M571.439232,515.30927104 A73.06119112446777,73.06119112446777,0,0,1,566.44175826142,530.3879977566314" stroke="grey" stroke-width="5" fill="none" />
<path d="M566.44175826142,530.3879977566314 L603.439232,547.30927104" stroke="grey" stroke-width="5" />
<circle cx="566.44175826142" cy="530.3879977566314" r="2.5" fill="grey" stroke="none" />
<circle cx="571.439232" cy="515.30927104" r="5" fill="black" stroke="none" />
<circle cx="603.439232" cy="547.30927104" r="5" fill="black" stroke="none" />
<path d="M571.439232,515.30927104 A73.06119112446777,73.06119112446777,0,0,1,514.0842162245333,571.6908118371288" stroke="grey" stroke-width="5" fill="none" />
<path d="M514.0842162245333,571.6908118371288 L523.439232,619.30927104" stroke="grey" stroke-width="5" />
<circle cx="514.0842162245333" cy="571.6908118371288" r="2.5" fill="grey" stroke="none" />
<circle cx="571.439232" cy="515.30927104" r="5" fill="black" stroke="none" />
<circle cx="523.439232" cy="619.30927104" r="5" fill="black" stroke="none" />
<path d="M523.4392320000001,619.30927104 A121.58988343133656,121.58988343133656,0,0,1,514.201384454302,620.757693056911" stroke="grey" stroke-width="5" fill="none" />
<path d="M514.201384454302,620.757693056911 L523.439232,699.30927104" stroke="grey" stroke-width="5" />
<circle cx="514.201384454302" cy="620.757693056911" r="2.5" fill="grey" stroke="none" />
<circle cx="523.439232" cy="619.30927104" r="5" fill="black" stroke="none" />
<circle cx="523.439232" cy="699.30927104" r="5" fill="black" stroke="none" />
<path d="M419.439232,715.30927104 L429.6735065532263,687.9568233364432" stroke="grey" stroke-width="5" />
<circle cx="429.6735065532263" cy="687.9568233364432" r="2.5" fill="grey" stroke="none" />
<path d="M429.6735065532263,687.9568233364432 A200.6827922848544,200.6827922848544,0,0,0,523.439232,699.30927104" stroke="grey" stroke-width="5" fill="none" />
<circle cx="419.439232" cy="715.30927104" r="5" fill="black" stroke="none" />
<circle cx="523.439232" cy="699.30927104" r="5" fill="black" stroke="none" />
<path d="M523.439232,699.30927104 A200.6827922848544,200.6827922848544,0,0,1,514.691801062659,700.144283207843" stroke="grey" stroke-width="5" fill="none" />
<path d="M514.691801062659,700.144283207843 L523.439232,819.30927104" stroke="grey" stroke-width="5" />
<circle cx="514.691801062659" cy="700.144283207843" r="2.5" fill="grey" stroke="none" />
<circle cx="523.439232" cy="699.30927104" r="5" fill="black" stroke="none" />
<circle cx="523.439232" cy="819.30927104" r="5" fill="black" stroke="none" />
<path d="M523.4392320000001,619.30927104 A121.58988343133656,121.58988343133656,0,0,0,579.6495762860136,591.8697161762489" stroke="grey" stroke-width="5" fill="none" />
<path d="M579.6495762860136,591.8697161762489 L603.439232,619.30927104" stroke="grey" stroke-width="5" />
<circle cx="579.6495762860136" cy="591.8697161762489" r="2.5" fill="grey" stroke="none" />
<circle cx="523.439232" cy="619.30927104" r="5" fill="black" stroke="none" />
<circle cx="603.439232" cy="619.30927104" r="5" fill="black" stroke="none" />
<path d="M603.439232,547.30927104 A113.74463434855295,113.74463434855295,0,0,1,574.5104088843536,585.9420782327984" stroke="grey" stroke-width="5" fill="none" />
<path d="M574.5104088843536,585.9420782327984 L603.439232,619.30927104" stroke="grey" stroke-width="5" />
<circle cx="574.5104088843536" cy="585.9420782327984" r="2.5" fill="grey" stroke="none" />
<circle cx="603.439232" cy="547.30927104" r="5" fill="black" stroke="none" />
<circle cx="603.439232" cy="619.30927104" r="5" fill="black" stroke="none" />
<path d="M603.439232,619.30927104 A157.90622810024314,157.90622810024314,0,0,0,630.5731786792288,588.7976457032967" stroke="grey" stroke-width="5" fill="none" />
<path d="M630.5731786792288,588.7976457032967 L675.439232,619.30927104" stroke="grey" stroke-width="5" />
<circle cx="630.5731786792288" cy="588.7976457032967" r="2.5" fill="grey" stroke="none" />
<circle cx="603.439232" cy="619.30927104" r="5" fill="black" stroke="none" />
<circle cx="675.439232" cy="619.30927104" r="5" fill="black" stroke="none" />
<path d="M603.439232,547.30927104 A113.74463434855295,113.74463434855295,0,0,0,608.0209161954785,535.6275666777206" stroke="grey" stroke-width="5" fill="none" />
<path d="M608.0209161954785,535.6275666777206 L643.439232,547.30927104" stroke="grey" stroke-width="5" />
<circle cx="608.0209161954785" cy="535.6275666777206" r="2.5" fill="grey" stroke="none" />
<circle cx="603.439232" cy="547.30927104" r="5" fill="black" stroke="none" />
<circle cx="643.439232" cy="547.30927104" r="5" fill="black" stroke="none" />
<path d="M675.4392320000001,619.30927104 A212.16414937695296,212.16414937695296,0,0,0,703.157404633873,561.1612231996288" stroke="grey" stroke-width="5" fill="none" />
<path d="M703.157404633873,561.1612231996288 L763.439232,579.30927104" stroke="grey" stroke-width="5" />
<circle cx="703.157404633873" cy="561.1612231996288" r="2.5" fill="grey" stroke="none" />
<circle cx="675.439232" cy="619.30927104" r="5" fill="black" stroke="none" />
<circle cx="763.439232" cy="579.30927104" r="5" fill="black" stroke="none" />
<path d="M643.439232,547.30927104 A151.03966499925113,151.03966499925113,0,0,0,649.0345211195051,524.5294092420872" stroke="grey" stroke-width="5" fill="none" />
<path d="M649.0345211195051,524.5294092420872 L787.439232,547.30927104" stroke="grey" stroke-width="5" />
<circle cx="649.0345211195051" cy="524.5294092420872" r="2.5" fill="grey" stroke="none" />
<circle cx="643.439232" cy="547.30927104" r="5" fill="black" stroke="none" />
<circle cx="787.439232" cy="547.30927104" r="5" fill="black" stroke="none" />
<path d="M763.439232,579.30927104 A275.118500704053,275.118500704053,0,0,0,771.4661344339453,544.6802784809715" stroke="grey" stroke-width="5" fill="none" />
<path d="M771.4661344339453,544.6802784809715 L787.439232,547.30927104" stroke="grey" stroke-width="5" />
<circle cx="771.4661344339453" cy="544.6802784809715" r="2.5" fill="grey" stroke="none" />
<circle cx="763.439232" cy="579.30927104" r="5" fill="black" stroke="none" />
<circle cx="787.439232" cy="547.30927104" r="5" fill="black" stroke="none" />
<path d="M523.439232,699.30927104 A200.6827922848544,200.6827922848544,0,0,0,617.2257542666579,662.8855599979911" stroke="grey" stroke-width="5" fill="none" />
<path d="M617.2257542666579,662.8855599979911 L643.439232,699.30927104" stroke="grey" stroke-width="5" />
<circle cx="617.2257542666579" cy="662.8855599979911" r="2.5" fill="grey" stroke="none" />
<circle cx="523.439232" cy="699.30927104" r="5" fill="black" stroke="none" />
<circle cx="643.439232" cy="699.30927104" r="5" fill="black" stroke="none" />
<path d="M643.439232,699.30927104 A245.5585445453813,245.5585445453813,0,0,0,725.4671564302613,597.2808314648785" stroke="grey" stroke-width="5" fill="none" />
<path d="M725.4671564302613,597.2808314648785 L739.439232,603.30927104" stroke="grey" stroke-width="5" />
<circle cx="725.4671564302613" cy="597.2808314648785" r="2.5" fill="grey" stroke="none" />
<circle cx="643.439232" cy="699.30927104" r="5" fill="black" stroke="none" />
<circle cx="739.439232" cy="603.30927104" r="5" fill="black" stroke="none" />
<path d="M739.4392320000001,603.3092710400001 A260.7756723767883,260.7756723767883,0,0,0,749.7052821944689,575.1746190395849" stroke="grey" stroke-width="5" fill="none" />
<path d="M749.7052821944689,575.1746190395849 L763.439232,579.30927104" stroke="grey" stroke-width="5" />
<circle cx="749.7052821944689" cy="575.1746190395849" r="2.5" fill="grey" stroke="none" />
<circle cx="739.439232" cy="603.30927104" r="5" fill="black" stroke="none" />
<circle cx="763.439232" cy="579.30927104" r="5" fill="black" stroke="none" />
<path d="M763.439232,579.30927104 A275.118500704053,275.118500704053,0,0,1,756.1280271311872,600.4421383062501" stroke="grey" stroke-width="5" fill="none" />
<path d="M756.1280271311872,600.4421383062501 L763.439232,603.30927104" stroke="grey" stroke-width="5" />
<circle cx="756.1280271311872" cy="600.4421383062501" r="2.5" fill="grey" stroke="none" />
<circle cx="763.439232" cy="579.30927104" r="5" fill="black" stroke="none" />
<circle cx="763.439232" cy="603.30927104" r="5" fill="black" stroke="none" />
<path d="M763.439232,603.30927104 A282.9717908901274,282.9717908901274,0,0,1,694.1575933557227,705.8539855865798" stroke="grey" stroke-width="5" fill="none" />
<path d="M694.1575933557227,705.8539855865798 L763.439232,779.30927104" stroke="grey" stroke-width="5" />
<circle cx="694.1575933557227" cy="705.8539855865798" r="2.5" fill="grey" stroke="none" />
<circle cx="763.439232" cy="603.30927104" r="5" fill="black" stroke="none" />
<circle cx="763.439232" cy="779.30927104" r="5" fill="black" stroke="none" />
<path d="M763.439232,779.30927104 A383.9451755728232,383.9451755728232,0,0,0,803.1720048582658,735.5857239220273" stroke="grey" stroke-width="5" fill="none" />
<path d="M803.1720048582658,735.5857239220273 L859.439232,779.30927104" stroke="grey" stroke-width="5" />
<circle cx="803.1720048582658" cy="735.5857239220273" r="2.5" fill="grey" stroke="none" />
<circle cx="763.439232" cy="779.30927104" r="5" fill="black" stroke="none" />
<circle cx="859.439232" cy="779.30927104" r="5" fill="black" stroke="none" />
<path d="M763.439232,779.30927104 A383.9451755728232,383.9451755728232,0,0,1,740.7345657354833,799.0999276258594" stroke="grey" stroke-width="5" fill="none" />
<path d="M740.7345657354833,799.0999276258594 L763.439232,827.30927104" stroke="grey" stroke-width="5" />
<circle cx="740.7345657354833" cy="799.0999276258594" r="2.5" fill="grey" stroke="none" />
<circle cx="763.439232" cy="779.30927104" r="5" fill="black" stroke="none" />
<circle cx="763.439232" cy="827.30927104" r="5" fill="black" stroke="none" />
<path d="M451.439232,403.30927104 A108.20002428634663,108.20002428634663,0,0,1,589.719353831787,439.52122022086917" stroke="grey" stroke-width="5" fill="none" />
<path d="M589.719353831787,439.52122022086917 L643.439232,403.30927104" stroke="grey" stroke-width="5" />
<circle cx="589.719353831787" cy="439.52122022086917" r="2.5" fill="grey" stroke="none" />
<circle cx="451.439232" cy="403.30927104" r="5" fill="black" stroke="none" />
<circle cx="643.439232" cy="403.30927104" r="5" fill="black" stroke="none" />
<path d="M643.439232,403.30927104 L625.241941821009,415.575854093814" stroke="grey" stroke-width="5" />
<circle cx="625.241941821009" cy="415.575854093814" r="2.5" fill="grey" stroke="none" />
<path d="M625.241941821009,415.575854093814 A151.03966499925113,151.03966499925113,0,0,1,643.439232,547.30927104" stroke="grey" stroke-width="5" fill="none" />
<circle cx="643.439232" cy="403.30927104" r="5" fill="black" stroke="none" />
<circle cx="643.439232" cy="547.30927104" r="5" fill="black" stroke="none" />
<path d="M643.439232,403.30927104000006 A172.9852893848665,172.9852893848665,0,0,0,609.0273879190044,365.6983282787405" stroke="grey" stroke-width="5" fill="none" />
<path d="M609.0273879190044,365.6983282787405 L643.439232,323.30927104" stroke="grey" stroke-width="5" />
<circle cx="609.0273879190044" cy="365.6983282787405" r="2.5" fill="grey" stroke="none" />
<circle cx="643.439232" cy="403.30927104" r="5" fill="black" stroke="none" />
<circle cx="643.439232" cy="323.30927104" r="5" fill="black" stroke="none" />
<path d="M643.4392320000001,323.30927104 A227.58388997722577,227.58388997722577,0,0,0,619.4240101441821,306.2673678023027" stroke="grey" stroke-width="5" fill="none" />
<path d="M619.4240101441821,306.26736780230266 L643.439232,267.30927104" stroke="grey" stroke-width="5" />
<circle cx="619.4240101441821" cy="306.26736780230266" r="2.5" fill="grey" stroke="none" />
<circle cx="643.439232" cy="323.30927104" r="5" fill="black" stroke="none" />
<circle cx="643.439232" cy="267.30927104" r="5" fill="black" stroke="none" />
<path d="M643.4392320000001,323.30927104 A227.58388997722577,227.58388997722577,0,0,1,715.6667086790368,427.32058238594993" stroke="grey" stroke-width="5" fill="none" />
<path d="M715.6667086790368,427.32058238594993 L739.439232,419.30927104" stroke="grey" stroke-width="5" />
<circle cx="715.6667086790368" cy="427.32058238594993" r="2.5" fill="grey" stroke="none" />
<circle cx="643.439232" cy="323.30927104" r="5" fill="black" stroke="none" />
<circle cx="739.439232" cy="419.30927104" r="5" fill="black" stroke="none" />
<path d="M643.439232,403.30927104000006 A172.9852893848665,172.9852893848665,0,0,1,663.9271040461527,444.7567660015472" stroke="grey" stroke-width="5" fill="none" />
<path d="M663.9271040461527,444.7567660015472 L739.439232,419.30927104" stroke="grey" stroke-width="5" />
<circle cx="663.9271040461527" cy="444.7567660015472" r="2.5" fill="grey" stroke="none" />
<circle cx="643.439232" cy="403.30927104" r="5" fill="black" stroke="none" />
<circle cx="739.439232" cy="419.30927104" r="5" fill="black" stroke="none" />
<path d="M739.4392320000001,419.30927104 A252.67002109638176,252.67002109638176,0,0,1,752.5546103074876,492.3640080356853" stroke="grey" stroke-width="5" fill="none" />
<path d="M752.5546103074876,492.3640080356853 L787.439232,491.30927104" stroke="grey" stroke-width="5" />
<circle cx="752.5546103074876" cy="492.3640080356853" r="2.5" fill="grey" stroke="none" />
<circle cx="739.439232" cy="419.30927104" r="5" fill="black" stroke="none" />
<circle cx="787.439232" cy="491.30927104" r="5" fill="black" stroke="none" />
<path d="M739.4392320000001,603.3092710400001 A260.7756723767883,260.7756723767883,0,0,0,742.7752343762742,595.2057607349009" stroke="grey" stroke-width="5" fill="none" />
<path d="M742.7752343762742,595.2057607349009 L763.439232,603.30927104" stroke="grey" stroke-width="5" />
<circle cx="742.7752343762742" cy="595.2057607349009" r="2.5" fill="grey" stroke="none" />
<circle cx="739.439232" cy="603.30927104" r="5" fill="black" stroke="none" />
<circle cx="763.439232" cy="603.30927104" r="5" fill="black" stroke="none" />
<path d="M763.439232,603.30927104 A282.9717908901274,282.9717908901274,0,0,0,766.2944140923063,595.7095578445605" stroke="grey" stroke-width="5" fill="none" />
<path d="M766.2944140923063,595.7095578445605 L787.439232,603.30927104" stroke="grey" stroke-width="5" />
<circle cx="766.2944140923063" cy="595.7095578445605" r="2.5" fill="grey" stroke="none" />
<circle cx="763.439232" cy="603.30927104" r="5" fill="black" stroke="none" />
<circle cx="787.439232" cy="603.30927104" r="5" fill="black" stroke="none" />
<path d="M787.439232,603.30927104 L774.1379080064278,598.5286080940219" stroke="grey" stroke-width="5" />
<circle cx="774.1379080064278" cy="598.5286080940219" r="2.5" fill="grey" stroke="none" />
<path d="M774.1379080064278,598.5286080940219 A291.3065039079732,291.3065039079732,0,0,0,787.439232,547.30927104" stroke="grey" stroke-width="5" fill="none" />
<circle cx="787.439232" cy="603.30927104" r="5" fill="black" stroke="none" />
<circle cx="787.439232" cy="547.30927104" r="5" fill="black" stroke="none" />
<path d="M787.439232,547.30927104 L785.3008805102887,546.9573223881001" stroke="grey" stroke-width="5" />
<circle cx="785.3008805102887" cy="546.9573223881001" r="2.5" fill="grey" stroke="none" />
<path d="M785.3008805102887,546.9573223881001 A289.1393825576274,289.1393825576274,0,0,0,787.439232,531.30927104" stroke="grey" stroke-width="5" fill="none" />
<circle cx="787.439232" cy="547.30927104" r="5" fill="black" stroke="none" />
<circle cx="787.439232" cy="531.30927104" r="5" fill="black" stroke="none" />
<path d="M787.439232,531.30927104 L786.1540868689053,531.1692868180996" stroke="grey" stroke-width="5" />
<circle cx="786.1540868689053" cy="531.1692868180996" r="2.5" fill="grey" stroke="none" />
<path d="M786.1540868689053,531.1692868180996 A287.8466360278091,287.8466360278091,0,0,0,787.439232,515.30927104" stroke="grey" stroke-width="5" fill="none" />
<circle cx="787.439232" cy="531.30927104" r="5" fill="black" stroke="none" />
<circle cx="787.439232" cy="515.30927104" r="5" fill="black" stroke="none" />
<path d="M787.439232,515.30927104 L787.1635708224842,515.2945890786949" stroke="grey" stroke-width="5" />
<circle cx="787.1635708224842" cy="515.2945890786949" r="2.5" fill="grey" stroke="none" />
<path d="M787.1635708224842,515.2945890786949 A287.57058413997424,287.57058413997424,0,0,0,787.439232,491.30927104" stroke="grey" stroke-width="5" fill="none" />
<circle cx="787.439232" cy="515.30927104" r="5" fill="black" stroke="none" />
<circle cx="787.439232" cy="491.30927104" r="5" fill="black" stroke="none" />
<path d="M787.439232,491.30927104 A287.57058413997424,287.57058413997424,0,0,1,787.4741167358545,492.55197546014324" stroke="grey" stroke-width="5" fill="none" />
<path d="M787.4741167358545,492.55197546014324 L835.439232,491.30927104" stroke="grey" stroke-width="5" />
<circle cx="787.4741167358545" cy="492.55197546014324" r="2.5" fill="grey" stroke="none" />
<circle cx="787.439232" cy="491.30927104" r="5" fill="black" stroke="none" />
<circle cx="835.439232" cy="491.30927104" r="5" fill="black" stroke="none" />
<path d="M835.439232,491.30927104 A335.5517950102577,335.5517950102577,0,0,1,834.0996119740621,531.1842334102851" stroke="grey" stroke-width="5" fill="none" />
<path d="M834.0996119740621,531.1842334102851 L835.439232,531.30927104" stroke="grey" stroke-width="5" />
<circle cx="834.0996119740621" cy="531.1842334102851" r="2.5" fill="grey" stroke="none" />
<circle cx="835.439232" cy="491.30927104" r="5" fill="black" stroke="none" />
<circle cx="835.439232" cy="531.30927104" r="5" fill="black" stroke="none" />
<path d="M835.439232,531.30927104 L787.8880606672665,526.8709335722883" stroke="grey" stroke-width="5" />
<circle cx="787.8880606672665" cy="526.8709335722883" r="2.5" fill="grey" stroke="none" />
<path d="M787.8880606672665,526.8709335722883 A289.1393825576274,289.1393825576274,0,0,1,787.439232,531.30927104" stroke="grey" stroke-width="5" fill="none" />
<circle cx="835.439232" cy="531.30927104" r="5" fill="black" stroke="none" />
<circle cx="787.439232" cy="531.30927104" r="5" fill="black" stroke="none" />
<path d="M787.439232,515.30927104 A287.8466360278091,287.8466360278091,0,0,0,787.597116723652,511.98266768161795" stroke="grey" stroke-width="5" fill="none" />
<path d="M787.597116723652,511.98266768161795 L867.439232,515.30927104" stroke="grey" stroke-width="5" />
<circle cx="787.597116723652" cy="511.98266768161795" r="2.5" fill="grey" stroke="none" />
<circle cx="787.439232" cy="515.30927104" r="5" fill="black" stroke="none" />
<circle cx="867.439232" cy="515.30927104" r="5" fill="black" stroke="none" />
<circle cx="500" cy="500" r="5" fill="red" stroke="none" />
</svg>