<?xml version="1.0" encoding="UTF-8"?>
<svg xmlns="http://www.w3.org/2000/svg" xmlns:xlink="http://www.w3.org/1999/xlink"
     width="1000" height="1000" viewBox="0 0 1000 1000">
<defs>
</defs>
<rect x="0" y="0" width="1000" height="1000" fill="white" />
<path d="M418.755192,311.16632064 L451.2441200545074,386.67888536899727" stroke="grey" stroke-width="5" />
<circle cx="451.2441200545074" cy="386.67888536899727" r="2.5" fill="grey" stroke="none" />
<path d="M451.2441200545074,386.67888536899727 A123.3645445436903,123.3645445436903,0,0,0,418.755192,407.16632064" stroke="grey" stroke-width="5" fill="none" />
<circle cx="418.755192" cy="311.16632064" r="5" fill="black" stroke="none" />
<circle cx="418.755192" cy="407.16632064" r="5" fill="black" stroke="none" />
<path d="M418.755192,407.16632064 L473.2153129768521,469.39470831336246" stroke="grey" stroke-width="5" />
<circle cx="473.2153129768521" cy="469.39470831336246" r="2.5" fill="grey" stroke="none" />
<path d="M473.2153129768521,469.39470831336246 A40.67066926117829,40.67066926117829,0,0,1,482.755192,463.16632064" stroke="grey" stroke-width="5" fill="none" />
<circle cx="418.755192" cy="407.16632064" r="5" fill="black" stroke="none" />
<circle cx="482.755192" cy="463.16632064" r="5" fill="black" stroke="none" />
<path d="M394.755192,463.16632064 L461.61242111485996,486.56507813609244" stroke="grey" stroke-width="5" />
<circle cx="461.61242111485996" cy="486.56507813609244" r="2.5" fill="grey" stroke="none" />
<path d="M461.61242111485996,486.56507813609244 A40.67066926117829,40.67066926117829,0,0,1,482.755192,463.16632064" stroke="grey" stroke-width="5" fill="none" />
<circle cx="394.755192" cy="463.16632064" r="5" fill="black" stroke="none" />
<circle cx="482.755192" cy="463.16632064" r="5" fill="black" stroke="none" />
<path d="M482.755192,463.16632064 A40.67066926117829,40.67066926117829,0,0,1,540.5131161206504,496.4235827498939" stroke="grey" stroke-width="5" fill="none" />
<path d="M540.5131161206504,496.4235827498939 L54.75519200000002,-4.833679359999991" stroke="grey" stroke-width="5" />
<circle cx="540.5131161206504" cy="496.4235827498939" r="2.5" fill="grey" stroke="none" />
<circle cx="482.755192" cy="463.16632064" r="5" fill="black" stroke="none" />
<circle cx="554.7551920000001" cy="495.16632064" r="5" fill="black" stroke="none" />
<path d="M554.7551920000001,495.16632064 A54.96813174114759,54.96813174114759,0,0,1,554.2961409688379,508.56881456236715" stroke="grey" stroke-width="5" fill="none" />
<path d="M554.2961409688379,508.56881456236715 L70.75519200000002,11.16632064000001" stroke="grey" stroke-width="5" />
<circle cx="554.2961409688379" cy="508.56881456236715" r="2.5" fill="grey" stroke="none" />
<circle cx="554.7551920000001" cy="495.16632064" r="5" fill="black" stroke="none" />
<circle cx="570.7551920000001" cy="511.16632064" r="5" fill="black" stroke="none" />
<path d="M570.7551920000001,511.16632064000004 A71.63088657550009,71.63088657550009,0,0,1,566.0402982142731,527.7427994867503" stroke="grey" stroke-width="5" fill="none" />
<path d="M566.0402982142731,527.7427994867503 L102.75519200000002,43.16632064000001" stroke="grey" stroke-width="5" />
<circle cx="566.0402982142731" cy="527.7427994867503" r="2.5" fill="grey" stroke="none" />
<circle cx="570.7551920000001" cy="511.16632064" r="5" fill="black" stroke="none" />
<circle cx="602.7551920000001" cy="543.16632064" r="5" fill="black" stroke="none" />
<path d="M570.7551920000001,511.16632064000004 A71.63088657550009,71.63088657550009,0,0,1,513.8847863370565,570.2723033631775" stroke="grey" stroke-width="5" fill="none" />
<path d="M513.8847863370565,570.2723033631775 L22.755192000000022,115.16632064000001" stroke="grey" stroke-width="5" />
<circle cx="513.8847863370565" cy="570.2723033631775" r="2.5" fill="grey" stroke="none" />
<circle cx="570.7551920000001" cy="511.16632064" r="5" fill="black" stroke="none" />
<circle cx="522.7551920000001" cy="615.16632064" r="5" fill="black" stroke="none" />
<path d="M522.7551920000001,615.16632064 A117.39284549201521,117.39284549201521,0,0,1,513.5951879792125,616.6029632407428" stroke="grey" stroke-width="5" fill="none" />
<path d="M513.5951879792125,616.6029632407428 L22.755192000000022,195.16632064" stroke="grey" stroke-width="5" />
<circle cx="513.5951879792125" cy="616.6029632407428" r="2.5" fill="grey" stroke="none" />
<circle cx="522.7551920000001" cy="615.16632064" r="5" fill="black" stroke="none" />
<circle cx="522.7551920000001" cy="695.16632064" r="5" fill="black" stroke="none" />
<path d="M418.755192,711.16632064 L429.4443550814407,683.383730045057" stroke="grey" stroke-width="5" />
<circle cx="429.4443550814407" cy="683.383730045057" r="2.5" fill="grey" stroke="none" />
<path d="M429.4443550814407,683.383730045057 A196.4884003576602,196.4884003576602,0,0,0,522.7551920000001,695.16632064" stroke="grey" stroke-width="5" fill="none" />
<circle cx="418.755192" cy="711.16632064" r="5" fill="black" stroke="none" />
<circle cx="522.7551920000001" cy="695.16632064" r="5" fill="black" stroke="none" />
<path d="M522.7551920000001,695.16632064 A196.4884003576602,196.4884003576602,0,0,1,514.1497441688913,695.9782544443824" stroke="grey" stroke-width="5" fill="none" />
<path d="M514.1497441688913,695.9782544443824 L22.755192000000022,315.16632064" stroke="grey" stroke-width="5" />
<circle cx="514.1497441688913" cy="695.9782544443824" r="2.5" fill="grey" stroke="none" />
<circle cx="522.7551920000001" cy="695.16632064" r="5" fill="black" stroke="none" />
<circle cx="522.7551920000001" cy="815.16632064" r="5" fill="black" stroke="none" />
<path d="M522.7551920000001,615.16632064 A117.39284549201521,117.39284549201521,0,0,0,578.1550610753759,587.5949005423056" stroke="grey" stroke-width="5" fill="none" />
<path d="M578.1550610753759,587.5949005423056 L102.75519200000002,115.16632064000001" stroke="grey" stroke-width="5" />
<circle cx="578.1550610753759" cy="587.5949005423056" r="2.5" fill="grey" stroke="none" />
<circle cx="522.7551920000001" cy="615.16632064" r="5" fill="black" stroke="none" />
<circle cx="602.7551920000001" cy="615.16632064" r="5" fill="black" stroke="none" />
<path d="M602.7551920000001,543.16632064 A111.45385018271983,111.45385018271983,0,0,1,574.2011357813858,583.1634064315821" stroke="grey" stroke-width="5" fill="none" />
<path d="M574.2011357813858,583.1634064315821 L102.75519200000002,115.16632064000001" stroke="grey" stroke-width="5" />
<circle cx="574.2011357813858" cy="583.1634064315821" r="2.5" fill="grey" stroke="none" />
<circle cx="602.7551920000001" cy="543.16632064" r="5" fill="black" stroke="none" />
<circle cx="602.7551920000001" cy="615.16632064" r="5" fill="black" stroke="none" />
<path d="M602.7551920000001,615.16632064 A154.34348347990647,154.34348347990647,0,0,0,628.8748433390704,584.9304753727554" stroke="grey" stroke-width="5" fill="none" />
<path d="M628.8748433390704,584.9304753727554 L174.75519200000002,115.16632064000001" stroke="grey" stroke-width="5" />
<circle cx="628.8748433390704" cy="584.9304753727554" r="2.5" fill="grey" stroke="none" />
<circle cx="602.7551920000001" cy="615.16632064" r="5" fill="black" stroke="none" />
<circle cx="674.7551920000001" cy="615.16632064" r="5" fill="black" stroke="none" />
<path d="M602.7551920000001,543.16632064 A111.45385018271983,111.45385018271983,0,0,0,606.6832895228424,532.2588973329458" stroke="grey" stroke-width="5" fill="none" />
<path d="M606.6832895228424,532.2588973329458 L142.75519200000002,43.16632064000001" stroke="grey" stroke-width="5" />
<circle cx="606.6832895228424" cy="532.2588973329458" r="2.5" fill="grey" stroke="none" />
<circle cx="602.7551920000001" cy="543.16632064" r="5" fill="black" stroke="none" />
<circle cx="642.7551920000001" cy="543.16632064" r="5" fill="black" stroke="none" />
<path d="M674.7551920000001,615.16632064 A209.2908467676314,209.2908467676314,0,0,0,701.2192548631224,557.5627484840845" stroke="grey" stroke-width="5" fill="none" />
<path d="M701.2192548631224,557.5627484840845 L262.755192,75.16632064000001" stroke="grey" stroke-width="5" />
<circle cx="701.2192548631224" cy="557.5627484840845" r="2.5" fill="grey" stroke="none" />
<circle cx="674.7551920000001" cy="615.16632064" r="5" fill="black" stroke="none" />
<circle cx="762.7551920000001" cy="575.16632064" r="5" fill="black" stroke="none" />
<path d="M642.7551920000001,543.16632064 A149.13878127620652,149.13878127620652,0,0,0,647.4771958030491,522.2002882553649" stroke="grey" stroke-width="5" fill="none" />
<path d="M647.4771958030491,522.2002882553649 L286.755192,43.16632064000001" stroke="grey" stroke-width="5" />
<circle cx="647.4771958030491" cy="522.2002882553649" r="2.5" fill="grey" stroke="none" />
<circle cx="642.7551920000001" cy="543.16632064" r="5" fill="black" stroke="none" />
<circle cx="786.7551920000001" cy="543.16632064" r="5" fill="black" stroke="none" />
<path d="M762.7551920000001,575.16632064 A273.2952006192428,273.2952006192428,0,0,0,770.2503632446395,540.6817876653985" stroke="grey" stroke-width="5" fill="none" />
<path d="M770.2503632446395,540.6817876653985 L286.755192,43.16632064000001" stroke="grey" stroke-width="5" />
<circle cx="770.2503632446395" cy="540.6817876653985" r="2.5" fill="grey" stroke="none" />
<circle cx="762.7551920000001" cy="575.16632064" r="5" fill="black" stroke="none" />
<circle cx="786.7551920000001" cy="543.16632064" r="5" fill="black" stroke="none" />
<path d="M522.7551920000001,695.16632064 A196.4884003576602,196.4884003576602,0,0,0,616.0022006844093,658.591238444897" stroke="grey" stroke-width="5" fill="none" />
<path d="M616.0022006844093,658.591238444897 L142.75519200000002,195.16632064" stroke="grey" stroke-width="5" />
<circle cx="616.0022006844093" cy="658.591238444897" r="2.5" fill="grey" stroke="none" />
<circle cx="522.7551920000001" cy="695.16632064" r="5" fill="black" stroke="none" />
<circle cx="642.7551920000001" cy="695.16632064" r="5" fill="black" stroke="none" />
<path d="M642.7551920000001,695.16632064 A241.80351022082405,241.80351022082405,0,0,0,723.3077007578313,592.7502471013584" stroke="grey" stroke-width="5" fill="none" />
<path d="M723.3077007578313,592.7502471013584 L238.75519200000002,99.16632064000001" stroke="grey" stroke-width="5" />
<circle cx="723.3077007578313" cy="592.7502471013584" r="2.5" fill="grey" stroke="none" />
<circle cx="642.7551920000001" cy="695.16632064" r="5" fill="black" stroke="none" />
<circle cx="738.7551920000001" cy="599.16632064" r="5" fill="black" stroke="none" />
<path d="M738.7551920000001,599.16632064 A258.5304640777024,258.5304640777024,0,0,0,748.559878009811,571.1054702535611" stroke="grey" stroke-width="5" fill="none" />
<path d="M748.559878009811,571.1054702535611 L262.755192,75.16632064000001" stroke="grey" stroke-width="5" />
<circle cx="748.559878009811" cy="571.1054702535611" r="2.5" fill="grey" stroke="none" />
<circle cx="738.7551920000001" cy="599.16632064" r="5" fill="black" stroke="none" />
<circle cx="762.7551920000001" cy="575.16632064" r="5" fill="black" stroke="none" />
<path d="M762.7551920000001,575.16632064 A273.2952006192428,273.2952006192428,0,0,1,755.6911461373804,596.5002822196128" stroke="grey" stroke-width="5" fill="none" />
<path d="M755.6911461373804,596.5002822196128 L262.755192,99.16632064000001" stroke="grey" stroke-width="5" />
<circle cx="755.6911461373804" cy="596.5002822196128" r="2.5" fill="grey" stroke="none" />
<circle cx="762.7551920000001" cy="575.16632064" r="5" fill="black" stroke="none" />
<circle cx="762.7551920000001" cy="599.16632064" r="5" fill="black" stroke="none" />
<path d="M762.7551920000001,599.16632064 A280.8455982781859,280.8455982781859,0,0,1,693.9543161045765,703.1156649218326" stroke="grey" stroke-width="5" fill="none" />
<path d="M693.9543161045765,703.1156649218326 L262.755192,275.16632064" stroke="grey" stroke-width="5" />
<circle cx="693.9543161045765" cy="703.1156649218326" r="2.5" fill="grey" stroke="none" />
<circle cx="762.7551920000001" cy="599.16632064" r="5" fill="black" stroke="none" />
<circle cx="762.7551920000001" cy="775.16632064" r="5" fill="black" stroke="none" />
<path d="M762.755192,775.1663206400001 A380.4691773817061,380.4691773817061,0,0,0,801.8937201268996,731.5533992094554" stroke="grey" stroke-width="5" fill="none" />
<path d="M801.8937201268996,731.5533992094554 L358.755192,275.16632064" stroke="grey" stroke-width="5" />
<circle cx="801.8937201268996" cy="731.5533992094554" r="2.5" fill="grey" stroke="none" />
<circle cx="762.7551920000001" cy="775.16632064" r="5" fill="black" stroke="none" />
<circle cx="858.7551920000001" cy="775.16632064" r="5" fill="black" stroke="none" />
<path d="M762.755192,775.1663206400001 A380.4691773817061,380.4691773817061,0,0,1,740.021492797212,795.205822999666" stroke="grey" stroke-width="5" fill="none" />
<path d="M740.021492797212,795.205822999666 L262.755192,323.16632064" stroke="grey" stroke-width="5" />
<circle cx="740.021492797212" cy="795.205822999666" r="2.5" fill="grey" stroke="none" />
<circle cx="762.7551920000001" cy="775.16632064" r="5" fill="black" stroke="none" />
<circle cx="762.7551920000001" cy="823.16632064" r="5" fill="black" stroke="none" />
<path d="M450.755192,399.16632064 A112.21622880952714,112.21622880952714,0,0,1,591.6572929336241,435.25880244919813" stroke="grey" stroke-width="5" fill="none" />
<path d="M591.6572929336241,435.25880244919813 L142.75519200000002,-100.83367935999999" stroke="grey" stroke-width="5" />
<circle cx="591.6572929336241" cy="435.25880244919813" r="2.5" fill="grey" stroke="none" />
<circle cx="450.755192" cy="399.16632064" r="5" fill="black" stroke="none" />
<circle cx="642.7551920000001" cy="399.16632064" r="5" fill="black" stroke="none" />
<path d="M642.7551920000001,399.16632064 L621.8153301729599,413.9569792754524" stroke="grey" stroke-width="5" />
<circle cx="621.8153301729599" cy="413.9569792754524" r="2.5" fill="grey" stroke="none" />
<path d="M621.8153301729599,413.9569792754524 A149.13878127620652,149.13878127620652,0,0,1,642.7551920000001,543.16632064" stroke="grey" stroke-width="5" fill="none" />
<circle cx="642.7551920000001" cy="399.16632064" r="5" fill="black" stroke="none" />
<circle cx="642.7551920000001" cy="543.16632064" r="5" fill="black" stroke="none" />
<path d="M642.7551920000001,399.16632064 A174.7755009611821,174.7755009611821,0,0,0,608.2947905311796,362.8186817382188" stroke="grey" stroke-width="5" fill="none" />
<path d="M608.2947905311796,362.8186817382188 L142.75519200000002,-180.83367936" stroke="grey" stroke-width="5" />
<circle cx="608.2947905311796" cy="362.8186817382188" r="2.5" fill="grey" stroke="none" />
<circle cx="642.7551920000001" cy="399.16632064" r="5" fill="black" stroke="none" />
<circle cx="642.7551920000001" cy="319.16632064" r="5" fill="black" stroke="none" />
<path d="M642.7551920000001,319.16632064 A230.39067783621837,230.39067783621837,0,0,0,618.9360299813566,302.68278025953737" stroke="grey" stroke-width="5" fill="none" />
<path d="M618.9360299813566,302.68278025953737 L142.75519200000002,-236.83367936" stroke="grey" stroke-width="5" />
<circle cx="618.9360299813566" cy="302.68278025953737" r="2.5" fill="grey" stroke="none" />
<circle cx="642.7551920000001" cy="319.16632064" r="5" fill="black" stroke="none" />
<circle cx="642.7551920000001" cy="263.16632064" r="5" fill="black" stroke="none" />
<path d="M642.7551920000001,319.16632064 A230.39067783621837,230.39067783621837,0,0,1,717.0938519790036,422.86295399258125" stroke="grey" stroke-width="5" fill="none" />
<path d="M717.0938519790036,422.8629539925813 L238.75519200000002,-84.83367935999999" stroke="grey" stroke-width="5" />
<circle cx="717.0938519790036" cy="422.8629539925813" r="2.5" fill="grey" stroke="none" />
<circle cx="642.7551920000001" cy="319.16632064" r="5" fill="black" stroke="none" />
<circle cx="738.7551920000001" cy="415.16632064" r="5" fill="black" stroke="none" />
<path d="M642.7551920000001,399.16632064 A174.7755009611821,174.7755009611821,0,0,1,664.688463489812,441.483457641475" stroke="grey" stroke-width="5" fill="none" />
<path d="M664.688463489812,441.483457641475 L238.75519200000002,-84.83367935999999" stroke="grey" stroke-width="5" />
<circle cx="664.688463489812" cy="441.483457641475" r="2.5" fill="grey" stroke="none" />
<circle cx="642.7551920000001" cy="399.16632064" r="5" fill="black" stroke="none" />
<circle cx="738.7551920000001" cy="415.16632064" r="5" fill="black" stroke="none" />
<path d="M738.7551920000001,415.16632064 A253.3787577140439,253.3787577140439,0,0,1,753.1253801380504,488.6714170930518" stroke="grey" stroke-width="5" fill="none" />
<path d="M753.1253801380504,488.6714170930518 L286.755192,-12.83367935999999" stroke="grey" stroke-width="5" />
<circle cx="753.1253801380504" cy="488.6714170930518" r="2.5" fill="grey" stroke="none" />
<circle cx="738.7551920000001" cy="415.16632064" r="5" fill="black" stroke="none" />
<circle cx="786.7551920000001" cy="487.16632064" r="5" fill="black" stroke="none" />
<path d="M738.7551920000001,599.16632064 A258.5304640777024,258.5304640777024,0,0,0,741.8774662770356,591.2868674215172" stroke="grey" stroke-width="5" fill="none" />
<path d="M741.8774662770356,591.2868674215172 L262.755192,99.16632064000001" stroke="grey" stroke-width="5" />
<circle cx="741.8774662770356" cy="591.2868674215172" r="2.5" fill="grey" stroke="none" />
<circle cx="738.7551920000001" cy="599.16632064" r="5" fill="black" stroke="none" />
<circle cx="762.7551920000001" cy="599.16632064" r="5" fill="black" stroke="none" />
<path d="M762.7551920000001,599.16632064 A280.8455982781859,280.8455982781859,0,0,0,765.4223751116651,591.7889582810195" stroke="grey" stroke-width="5" fill="none" />
<path d="M765.4223751116651,591.7889582810195 L286.755192,99.16632064000001" stroke="grey" stroke-width="5" />
<circle cx="765.4223751116651" cy="591.7889582810195" r="2.5" fill="grey" stroke="none" />
<circle cx="762.7551920000001" cy="599.16632064" r="5" fill="black" stroke="none" />
<circle cx="786.7551920000001" cy="599.16632064" r="5" fill="black" stroke="none" />
<path d="M786.7551920000001,599.16632064 L774.0607981923881,594.7763170349177" stroke="grey" stroke-width="5" />
<circle cx="774.0607981923881" cy="594.7763170349177" r="2.5" fill="grey" stroke="none" />
<path d="M774.0607981923881,594.7763170349177 A289.98598479332094,289.98598479332094,0,0,0,786.7551920000001,543.16632064" stroke="grey" stroke-width="5" fill="none" />
<circle cx="786.7551920000001" cy="599.16632064" r="5" fill="black" stroke="none" />
<circle cx="786.7551920000001" cy="543.16632064" r="5" fill="black" stroke="none" />
<path d="M786.7551920000001,543.16632064 L784.830042453906,542.876520751785" stroke="grey" stroke-width="5" />
<circle cx="784.830042453906" cy="542.876520751785" r="2.5" fill="grey" stroke="none" />
<path d="M784.830042453906,542.876520751785 A288.03914511064664,288.03914511064664,0,0,0,786.7551920000001,527.16632064" stroke="grey" stroke-width="5" fill="none" />
<circle cx="786.7551920000001" cy="543.16632064" r="5" fill="black" stroke="none" />
<circle cx="786.7551920000001" cy="527.16632064" r="5" fill="black" stroke="none" />
<path d="M786.7551920000001,527.16632064 L785.6933207813731,527.0657221685219" stroke="grey" stroke-width="5" />
<circle cx="785.6933207813731" cy="527.0657221685219" r="2.5" fill="grey" stroke="none" />
<path d="M785.6933207813731,527.0657221685219 A286.9725193386854,286.9725193386854,0,0,0,786.7551920000001,511.16632064" stroke="grey" stroke-width="5" fill="none" />
<circle cx="786.7551920000001" cy="527.16632064" r="5" fill="black" stroke="none" />
<circle cx="786.7551920000001" cy="511.16632064" r="5" fill="black" stroke="none" />
<path d="M786.7551920000001,511.16632064 A286.9725193386854,286.9725193386854,0,0,0,786.6855481577436,487.169437538197" stroke="grey" stroke-width="5" fill="none" />
<path d="M786.6855481577436,487.169437538197 L286.755192,-12.83367935999999" stroke="grey" stroke-width="5" />
<circle cx="786.6855481577436" cy="487.169437538197" r="2.5" fill="grey" stroke="none" />
<circle cx="786.7551920000001" cy="511.16632064" r="5" fill="black" stroke="none" />
<circle cx="786.7551920000001" cy="487.16632064" r="5" fill="black" stroke="none" />
<path d="M786.7551920000001,487.16632064000004 A287.0422328941722,287.0422328941722,0,0,1,786.8315229076508,489.0035946168767" stroke="grey" stroke-width="5" fill="none" />
<path d="M786.8315229076508,489.0035946168767 L334.755192,-12.83367935999999" stroke="grey" stroke-width="5" />
<circle cx="786.8315229076508" cy="489.0035946168767" r="2.5" fill="grey" stroke="none" />
<circle cx="786.7551920000001" cy="487.16632064" r="5" fill="black" stroke="none" />
<circle cx="834.7551920000001" cy="487.16632064" r="5" fill="black" stroke="none" />
<path d="M834.7551920000001,487.16632064 A335.0011073069344,335.0011073069344,0,0,1,833.903405013745,527.0971957423477" stroke="grey" stroke-width="5" fill="none" />
<path d="M833.903405013745,527.0971957423477 L334.755192,27.16632064000001" stroke="grey" stroke-width="5" />
<circle cx="833.903405013745" cy="527.0971957423477" r="2.5" fill="grey" stroke="none" />
<circle cx="834.7551920000001" cy="487.16632064" r="5" fill="black" stroke="none" />
<circle cx="834.7551920000001" cy="527.16632064" r="5" fill="black" stroke="none" />
<path d="M834.7551920000001,527.16632064 L787.095323662837,523.298588948754" stroke="grey" stroke-width="5" />
<circle cx="787.095323662837" cy="523.298588948754" r="2.5" fill="grey" stroke="none" />
<path d="M787.095323662837,523.298588948754 A288.03914511064664,288.03914511064664,0,0,1,786.7551920000001,527.16632064" stroke="grey" stroke-width="5" fill="none" />
<circle cx="834.7551920000001" cy="527.16632064" r="5" fill="black" stroke="none" />
<circle cx="786.7551920000001" cy="527.16632064" r="5" fill="black" stroke="none" />
<path d="M786.7551920000001,511.16632064 A286.9725193386854,286.9725193386854,0,0,0,786.8396036776205,508.73319057720346" stroke="grey" stroke-width="5" fill="none" />
<path d="M786.8396036776205,508.73319057720346 L366.755192,11.16632064000001" stroke="grey" stroke-width="5" />
<circle cx="786.8396036776205" cy="508.73319057720346" r="2.5" fill="grey" stroke="none" />
<circle cx="786.7551920000001" cy="511.16632064" r="5" fill="black" stroke="none" />
<circle cx="866.7551920000001" cy="511.16632064" r="5" fill="black" stroke="none" />
<circle cx="500" cy="500" r="5" fill="red" stroke="none" />
</svg>