<?xml version="1.0" encoding="UTF-8"?>
<svg xmlns="http://www.w3.org/2000/svg" xmlns:xlink="http://www.w3.org/1999/xlink"
     width="1000" height="1000" viewBox="0 0 1000 1000">
<defs>
</defs>
<rect x="0" y="0" width="1000" height="1000" fill="white" />
<path d="M340.601,622.3022500000001 L454.13661544176244,535.1896506508053" stroke="grey" stroke-width="5" />
<circle cx="454.13661544176244" cy="535.1896506508053" r="2.5" fill="grey" stroke="none" />
<path d="M454.13661544176244,535.1896506508053 A57.80797138857671,57.80797138857671,0,0,0,460.601,542.3022500000001" stroke="grey" stroke-width="5" fill="none" />
<circle cx="340.601" cy="622.3022500000001" r="5" fill="black" stroke="none" />
<circle cx="460.601" cy="542.3022500000001" r="5" fill="black" stroke="none" />
<path d="M460.601,542.3022500000001 L471.5710508689891,530.5238334317446" stroke="grey" stroke-width="5" />
<circle cx="471.5710508689891" cy="530.5238334317446" r="2.5" fill="grey" stroke="none" />
<path d="M471.5710508689891,530.5238334317446 A41.71222310141832,41.71222310141832,0,0,1,460.601,486.3022500000001" stroke="grey" stroke-width="5" fill="none" />
<circle cx="460.601" cy="542.3022500000001" r="5" fill="black" stroke="none" />
<circle cx="460.601" cy="486.3022500000001" r="5" fill="black" stroke="none" />
<path d="M460.601,486.3022500000001 A41.71222310141832,41.71222310141832,0,0,0,458.47678477537494,496.03362212188995" stroke="grey" stroke-width="5" fill="none" />
<path d="M458.47678477537494,496.03362212188995 L356.601,486.3022500000001" stroke="grey" stroke-width="5" />
<circle cx="458.47678477537494" cy="496.03362212188995" r="2.5" fill="grey" stroke="none" />
<circle cx="460.601" cy="486.3022500000001" r="5" fill="black" stroke="none" />
<circle cx="356.601" cy="486.3022500000001" r="5" fill="black" stroke="none" />
<path d="M356.601,486.3022500000001 A144.05173222166573,144.05173222166573,0,0,1,404.926135356144,391.7786443545257" stroke="grey" stroke-width="5" fill="none" />
<path d="M404.926135356144,391.7786443545257 L396.601,382.3022500000001" stroke="grey" stroke-width="5" />
<circle cx="404.926135356144" cy="391.7786443545257" r="2.5" fill="grey" stroke="none" />
<circle cx="356.601" cy="486.3022500000001" r="5" fill="black" stroke="none" />
<circle cx="396.601" cy="382.3022500000001" r="5" fill="black" stroke="none" />
<path d="M396.60100000000006,382.3022500000001 A156.66561063635655,156.66561063635655,0,0,1,506.54506185438356,343.4711664855808" stroke="grey" stroke-width="5" fill="none" />
<path d="M506.54506185438356,343.4711664855808 L508.601,294.3022500000001" stroke="grey" stroke-width="5" />
<circle cx="506.54506185438356" cy="343.4711664855808" r="2.5" fill="grey" stroke="none" />
<circle cx="396.601" cy="382.3022500000001" r="5" fill="black" stroke="none" />
<circle cx="508.601" cy="294.3022500000001" r="5" fill="black" stroke="none" />
<path d="M508.601,294.3022500000001 L507.95061614175296,309.8565455793206" stroke="grey" stroke-width="5" />
<circle cx="507.95061614175296" cy="309.8565455793206" r="2.5" fill="grey" stroke="none" />
<path d="M507.95061614175296,309.8565455793206 A190.30960447665925,190.30960447665925,0,0,1,556.6010000000001,318.3022500000001" stroke="grey" stroke-width="5" fill="none" />
<circle cx="508.601" cy="294.3022500000001" r="5" fill="black" stroke="none" />
<circle cx="556.601" cy="318.3022500000001" r="5" fill="black" stroke="none" />
<path d="M556.601,318.3022500000001 L551.7236745312168,333.9592006492042" stroke="grey" stroke-width="5" />
<circle cx="551.7236745312168" cy="333.9592006492042" r="2.5" fill="grey" stroke="none" />
<path d="M551.7236745312168,333.95920064920426 A173.91056769518772,173.91056769518772,0,0,0,508.601,326.3022500000001" stroke="grey" stroke-width="5" fill="none" />
<circle cx="556.601" cy="318.3022500000001" r="5" fill="black" stroke="none" />
<circle cx="508.601" cy="326.3022500000001" r="5" fill="black" stroke="none" />
<path d="M508.601,294.3022500000001 L507.26550911889666,326.24126515968845" stroke="grey" stroke-width="5" />
<circle cx="507.26550911889666" cy="326.24126515968845" r="2.5" fill="grey" stroke="none" />
<path d="M507.26550911889666,326.24126515968845 A173.91056769518772,173.91056769518772,0,0,1,508.601,326.3022500000001" stroke="grey" stroke-width="5" fill="none" />
<circle cx="508.601" cy="294.3022500000001" r="5" fill="black" stroke="none" />
<circle cx="508.601" cy="326.3022500000001" r="5" fill="black" stroke="none" />
<path d="M508.601,326.3022500000001 L503.6204332122673,426.8851176611902" stroke="grey" stroke-width="5" />
<circle cx="503.6204332122673" cy="426.8851176611902" r="2.5" fill="grey" stroke="none" />
<path d="M503.6204332122673,426.8851176611902 A73.20446404463657,73.20446404463657,0,0,0,460.60100000000006,438.3022500000001" stroke="grey" stroke-width="5" fill="none" />
<circle cx="508.601" cy="326.3022500000001" r="5" fill="black" stroke="none" />
<circle cx="460.601" cy="438.3022500000001" r="5" fill="black" stroke="none" />
<path d="M396.601,382.3022500000001 L451.6851953213859,445.0038800920478" stroke="grey" stroke-width="5" />
<circle cx="451.6851953213859" cy="445.0038800920478" r="2.5" fill="grey" stroke="none" />
<path d="M451.6851953213859,445.0038800920478 A73.20446404463657,73.20446404463657,0,0,1,460.60100000000006,438.3022500000001" stroke="grey" stroke-width="5" fill="none" />
<circle cx="396.601" cy="382.3022500000001" r="5" fill="black" stroke="none" />
<circle cx="460.601" cy="438.3022500000001" r="5" fill="black" stroke="none" />
<path d="M460.601,438.3022500000001 L477.5502778495762,464.84435278036733" stroke="grey" stroke-width="5" />
<circle cx="477.5502778495762" cy="464.84435278036733" r="2.5" fill="grey" stroke="none" />
<path d="M477.5502778495762,464.84435278036733 A41.71222310141832,41.71222310141832,0,0,0,460.601,486.3022500000001" stroke="grey" stroke-width="5" fill="none" />
<circle cx="460.601" cy="438.3022500000001" r="5" fill="black" stroke="none" />
<circle cx="460.601" cy="486.3022500000001" r="5" fill="black" stroke="none" />
<path d="M556.6010000000001,318.3022500000001 A190.30960447665925,190.30960447665925,0,0,1,576.0208177044744,325.53343921654914" stroke="grey" stroke-width="5" fill="none" />
<path d="M576.0208177044744,325.53343921654914 L596.601,278.3022500000001" stroke="grey" stroke-width="5" />
<circle cx="576.0208177044744" cy="325.53343921654914" r="2.5" fill="grey" stroke="none" />
<circle cx="556.601" cy="318.3022500000001" r="5" fill="black" stroke="none" />
<circle cx="596.601" cy="278.3022500000001" r="5" fill="black" stroke="none" />
<path d="M556.601,318.3022500000001 L546.8314743640402,349.6639013245564" stroke="grey" stroke-width="5" />
<circle cx="546.8314743640402" cy="349.6639013245564" r="2.5" fill="grey" stroke="none" />
<path d="M546.8314743640403,349.6639013245564 A157.46151769896824,157.46151769896824,0,0,1,604.601,382.3022500000001" stroke="grey" stroke-width="5" fill="none" />
<circle cx="556.601" cy="318.3022500000001" r="5" fill="black" stroke="none" />
<circle cx="604.601" cy="382.3022500000001" r="5" fill="black" stroke="none" />
<path d="M508.601,326.3022500000001 L506.45902682623824,369.55953646003695" stroke="grey" stroke-width="5" />
<circle cx="506.45902682623824" cy="369.55953646003695" r="2.5" fill="grey" stroke="none" />
<path d="M506.45902682623824,369.55953646003695 A130.60028160789886,130.60028160789886,0,0,1,556.601,382.3022500000001" stroke="grey" stroke-width="5" fill="none" />
<circle cx="508.601" cy="326.3022500000001" r="5" fill="black" stroke="none" />
<circle cx="556.601" cy="382.3022500000001" r="5" fill="black" stroke="none" />
<path d="M460.601,438.3022500000001 L466.472861471418,447.4974235094337" stroke="grey" stroke-width="5" />
<circle cx="466.472861471418" cy="447.4974235094337" r="2.5" fill="grey" stroke="none" />
<path d="M466.472861471418,447.4974235094337 A62.294378205922335,62.294378205922335,0,0,1,508.60100000000006,438.3022500000001" stroke="grey" stroke-width="5" fill="none" />
<circle cx="460.601" cy="438.3022500000001" r="5" fill="black" stroke="none" />
<circle cx="508.601" cy="438.3022500000001" r="5" fill="black" stroke="none" />
<path d="M460.601,486.3022500000001 A41.71222310141832,41.71222310141832,0,0,1,540.5419129007203,490.18863646515365" stroke="grey" stroke-width="5" fill="none" />
<path d="M540.5419129007203,490.18863646515365 L556.601,486.3022500000001" stroke="grey" stroke-width="5" />
<circle cx="540.5419129007203" cy="490.18863646515365" r="2.5" fill="grey" stroke="none" />
<circle cx="460.601" cy="486.3022500000001" r="5" fill="black" stroke="none" />
<circle cx="556.601" cy="486.3022500000001" r="5" fill="black" stroke="none" />
<path d="M460.601,542.3022500000001 A57.80797138857671,57.80797138857671,0,0,0,546.3046250974195,534.6069826863009" stroke="grey" stroke-width="5" fill="none" />
<path d="M546.3046250974195,534.6069826863009 L556.601,542.3022500000001" stroke="grey" stroke-width="5" />
<circle cx="546.3046250974195" cy="534.6069826863009" r="2.5" fill="grey" stroke="none" />
<circle cx="460.601" cy="542.3022500000001" r="5" fill="black" stroke="none" />
<circle cx="556.601" cy="542.3022500000001" r="5" fill="black" stroke="none" />
<path d="M604.601,382.3022500000001 L586.7571979242858,402.38021632686963" stroke="grey" stroke-width="5" />
<circle cx="586.7571979242858" cy="402.38021632686963" r="2.5" fill="grey" stroke="none" />
<path d="M586.7571979242858,402.38021632686963 A130.60028160789886,130.60028160789886,0,0,0,556.601,382.3022500000001" stroke="grey" stroke-width="5" fill="none" />
<circle cx="604.601" cy="382.3022500000001" r="5" fill="black" stroke="none" />
<circle cx="556.601" cy="382.3022500000001" r="5" fill="black" stroke="none" />
<path d="M556.601,382.3022500000001 L526.997829234544,443.85993611791224" stroke="grey" stroke-width="5" />
<circle cx="526.997829234544" cy="443.85993611791224" r="2.5" fill="grey" stroke="none" />
<path d="M526.997829234544,443.85993611791224 A62.294378205922335,62.294378205922335,0,0,0,508.60100000000006,438.3022500000001" stroke="grey" stroke-width="5" fill="none" />
<circle cx="556.601" cy="382.3022500000001" r="5" fill="black" stroke="none" />
<circle cx="508.601" cy="438.3022500000001" r="5" fill="black" stroke="none" />
<path d="M508.601,438.3022500000001 L508.04050445657475,442.32286549986816" stroke="grey" stroke-width="5" />
<circle cx="508.04050445657475" cy="442.32286549986816" r="2.5" fill="grey" stroke="none" />
<path d="M508.04050445657475,442.32286549986816 A58.23488263972463,58.23488263972463,0,0,1,556.601,486.3022500000001" stroke="grey" stroke-width="5" fill="none" />
<circle cx="508.601" cy="438.3022500000001" r="5" fill="black" stroke="none" />
<circle cx="556.601" cy="486.3022500000001" r="5" fill="black" stroke="none" />
<path d="M556.601,486.3022500000001 A58.23488263972463,58.23488263972463,0,0,1,546.6465842590964,534.8625548837364" stroke="grey" stroke-width="5" fill="none" />
<path d="M546.6465842590964,534.8625548837364 L556.601,542.3022500000001" stroke="grey" stroke-width="5" />
<circle cx="546.6465842590964" cy="534.8625548837364" r="2.5" fill="grey" stroke="none" />
<circle cx="556.601" cy="486.3022500000001" r="5" fill="black" stroke="none" />
<circle cx="556.601" cy="542.3022500000001" r="5" fill="black" stroke="none" />
<path d="M556.601,542.3022500000001 A70.6622498655577,70.6622498655577,0,0,1,551.2039787996032,548.6960584765575" stroke="grey" stroke-width="5" fill="none" />
<path d="M551.2039787996032,548.6960584765575 L628.601,622.3022500000001" stroke="grey" stroke-width="5" />
<circle cx="551.2039787996032" cy="548.6960584765575" r="2.5" fill="grey" stroke="none" />
<circle cx="556.601" cy="542.3022500000001" r="5" fill="black" stroke="none" />
<circle cx="628.601" cy="622.3022500000001" r="5" fill="black" stroke="none" />
<path d="M604.601,382.3022500000001 L582.1037959879925,407.6162555401407" stroke="grey" stroke-width="5" />
<circle cx="582.1037959879925" cy="407.6162555401407" r="2.5" fill="grey" stroke="none" />
<path d="M582.1037959879925,407.6162555401407 A123.59526510373482,123.59526510373482,0,0,0,580.601,406.3022500000001" stroke="grey" stroke-width="5" fill="none" />
<circle cx="604.601" cy="382.3022500000001" r="5" fill="black" stroke="none" />
<circle cx="580.601" cy="406.3022500000001" r="5" fill="black" stroke="none" />
<path d="M580.601,406.3022500000001 L554.6017360307397,436.52610002141114" stroke="grey" stroke-width="5" />
<circle cx="554.6017360307397" cy="436.52610002141114" r="2.5" fill="grey" stroke="none" />
<path d="M554.6017360307397,436.52610002141114 A83.72744804460777,83.72744804460777,0,0,1,556.601,438.3022500000001" stroke="grey" stroke-width="5" fill="none" />
<circle cx="580.601" cy="406.3022500000001" r="5" fill="black" stroke="none" />
<circle cx="556.601" cy="438.3022500000001" r="5" fill="black" stroke="none" />
<path d="M556.601,438.3022500000001 L539.3676466830203,457.08741500790956" stroke="grey" stroke-width="5" />
<circle cx="539.3676466830203" cy="457.08741500790956" r="2.5" fill="grey" stroke="none" />
<path d="M539.3676466830203,457.08741500790956 A58.23488263972463,58.23488263972463,0,0,1,556.601,486.3022500000001" stroke="grey" stroke-width="5" fill="none" />
<circle cx="556.601" cy="438.3022500000001" r="5" fill="black" stroke="none" />
<circle cx="556.601" cy="486.3022500000001" r="5" fill="black" stroke="none" />
<path d="M556.601,382.3022500000001 L553.5650881759921,388.61521250744926" stroke="grey" stroke-width="5" />
<circle cx="553.5650881759921" cy="388.61521250744926" r="2.5" fill="grey" stroke="none" />
<path d="M553.5650881759921,388.61521250744926 A123.59526510373482,123.59526510373482,0,0,1,580.601,406.3022500000001" stroke="grey" stroke-width="5" fill="none" />
<circle cx="556.601" cy="382.3022500000001" r="5" fill="black" stroke="none" />
<circle cx="580.601" cy="406.3022500000001" r="5" fill="black" stroke="none" />
<path d="M508.60100000000006,438.3022500000001 A62.294378205922335,62.294378205922335,0,0,1,542.1119260550602,454.09602152323134" stroke="grey" stroke-width="5" fill="none" />
<path d="M542.1119260550602,454.09602152323134 L556.601,438.3022500000001" stroke="grey" stroke-width="5" />
<circle cx="542.1119260550602" cy="454.09602152323134" r="2.5" fill="grey" stroke="none" />
<circle cx="508.601" cy="438.3022500000001" r="5" fill="black" stroke="none" />
<circle cx="556.601" cy="438.3022500000001" r="5" fill="black" stroke="none" />
<path d="M604.601,382.3022500000001 L580.6729050514161,409.22630366329855" stroke="grey" stroke-width="5" />
<circle cx="580.6729050514161" cy="409.22630366329855" r="2.5" fill="grey" stroke="none" />
<path d="M580.6729050514161,409.22630366329855 A121.44126792842084,121.44126792842084,0,0,1,604.601,438.3022500000001" stroke="grey" stroke-width="5" fill="none" />
<circle cx="604.601" cy="382.3022500000001" r="5" fill="black" stroke="none" />
<circle cx="604.601" cy="438.3022500000001" r="5" fill="black" stroke="none" />
<path d="M580.601,406.3022500000001 L579.1962995352875,407.93519838733414" stroke="grey" stroke-width="5" />
<circle cx="579.1962995352875" cy="407.93519838733414" r="2.5" fill="grey" stroke="none" />
<path d="M579.1962995352875,407.93519838733414 A121.44126792842084,121.44126792842084,0,0,1,604.601,438.3022500000001" stroke="grey" stroke-width="5" fill="none" />
<circle cx="580.601" cy="406.3022500000001" r="5" fill="black" stroke="none" />
<circle cx="604.601" cy="438.3022500000001" r="5" fill="black" stroke="none" />
<path d="M556.601,438.3022500000001 A83.72744804460777,83.72744804460777,0,0,1,572.1169577879909,457.4626052106193" stroke="grey" stroke-width="5" fill="none" />
<path d="M572.1169577879909,457.4626052106193 L604.601,438.3022500000001" stroke="grey" stroke-width="5" />
<circle cx="572.1169577879909" cy="457.4626052106193" r="2.5" fill="grey" stroke="none" />
<circle cx="556.601" cy="438.3022500000001" r="5" fill="black" stroke="none" />
<circle cx="604.601" cy="438.3022500000001" r="5" fill="black" stroke="none" />
<path d="M556.601,486.3022500000001 A58.23488263972463,58.23488263972463,0,0,0,550.1594479612005,470.4140010090902" stroke="grey" stroke-width="5" fill="none" />
<path d="M550.1594479612005,470.4140010090902 L604.601,438.3022500000001" stroke="grey" stroke-width="5" />
<circle cx="550.1594479612005" cy="470.4140010090902" r="2.5" fill="grey" stroke="none" />
<circle cx="556.601" cy="486.3022500000001" r="5" fill="black" stroke="none" />
<circle cx="604.601" cy="438.3022500000001" r="5" fill="black" stroke="none" />
<path d="M604.601,438.3022500000001 L590.5319047638526,446.60075116735044" stroke="grey" stroke-width="5" />
<circle cx="590.5319047638526" cy="446.60075116735044" r="2.5" fill="grey" stroke="none" />
<path d="M590.5319047638526,446.60075116735044 A105.10711467861016,105.10711467861016,0,0,1,604.601,510.3022500000001" stroke="grey" stroke-width="5" fill="none" />
<circle cx="604.601" cy="438.3022500000001" r="5" fill="black" stroke="none" />
<circle cx="604.601" cy="510.3022500000001" r="5" fill="black" stroke="none" />
<path d="M604.601,510.3022500000001 L570.3219950503634,506.9260788473113" stroke="grey" stroke-width="5" />
<circle cx="570.3219950503634" cy="506.9260788473113" r="2.5" fill="grey" stroke="none" />
<path d="M570.3219950503634,506.9260788473113 A70.6622498655577,70.6622498655577,0,0,1,556.601,542.3022500000001" stroke="grey" stroke-width="5" fill="none" />
<circle cx="604.601" cy="510.3022500000001" r="5" fill="black" stroke="none" />
<circle cx="556.601" cy="542.3022500000001" r="5" fill="black" stroke="none" />
<path d="M604.601,382.3022500000001 A157.46151769896824,157.46151769896824,0,0,1,607.9032848185842,385.32214389245854" stroke="grey" stroke-width="5" fill="none" />
<path d="M607.9032848185842,385.3221438924585 L708.601,278.3022500000001" stroke="grey" stroke-width="5" />
<circle cx="607.9032848185842" cy="385.3221438924585" r="2.5" fill="grey" stroke="none" />
<circle cx="604.601" cy="382.3022500000001" r="5" fill="black" stroke="none" />
<circle cx="708.601" cy="278.3022500000001" r="5" fill="black" stroke="none" />
<path d="M604.601,382.3022500000001 A157.46151769896824,157.46151769896824,0,0,1,646.0565820019896,441.1645990074122" stroke="grey" stroke-width="5" fill="none" />
<path d="M646.0565820019896,441.1645990074123 L732.601,406.3022500000001" stroke="grey" stroke-width="5" />
<circle cx="646.0565820019896" cy="441.1645990074123" r="2.5" fill="grey" stroke="none" />
<circle cx="604.601" cy="382.3022500000001" r="5" fill="black" stroke="none" />
<circle cx="732.601" cy="406.3022500000001" r="5" fill="black" stroke="none" />
<path d="M732.601,406.3022500000001 A250.76382026931736,250.76382026931736,0,0,1,740.695065553232,429.65528467334684" stroke="grey" stroke-width="5" fill="none" />
<path d="M740.695065553232,429.65528467334684 L820.601,406.3022500000001" stroke="grey" stroke-width="5" />
<circle cx="740.695065553232" cy="429.65528467334684" r="2.5" fill="grey" stroke="none" />
<circle cx="732.601" cy="406.3022500000001" r="5" fill="black" stroke="none" />
<circle cx="820.601" cy="406.3022500000001" r="5" fill="black" stroke="none" />
<path d="M604.601,438.3022500000001 A121.44126792842084,121.44126792842084,0,0,1,617.7903064740888,529.5537689102883" stroke="grey" stroke-width="5" fill="none" />
<path d="M617.7903064740888,529.5537689102883 L668.601,542.3022500000001" stroke="grey" stroke-width="5" />
<circle cx="617.7903064740888" cy="529.5537689102883" r="2.5" fill="grey" stroke="none" />
<circle cx="604.601" cy="438.3022500000001" r="5" fill="black" stroke="none" />
<circle cx="668.601" cy="542.3022500000001" r="5" fill="black" stroke="none" />
<circle cx="500" cy="500" r="5" fill="red" stroke="none" />
</svg>