<?xml version="1.0" encoding="UTF-8"?>
<svg xmlns="http://www.w3.org/2000/svg" xmlns:xlink="http://www.w3.org/1999/xlink"
     width="1000" height="1000" viewBox="0 0 1000 1000">
<defs>
</defs>
<rect x="0" y="0" width="1000" height="1000" fill="white" />
<path d="M258.84799999999996,691.488 L371.0622079682084,602.3837244583654" stroke="grey" stroke-width="5" />
<circle cx="371.0622079682084" cy="602.3837244583654" r="2.5" fill="grey" stroke="none" />
<path d="M371.0622079682084,602.3837244583654 A164.64319374939254,164.64319374939254,0,0,0,378.84799999999996,611.488" stroke="grey" stroke-width="5" fill="none" />
<circle cx="258.84799999999996" cy="691.488" r="5" fill="black" stroke="none" />
<circle cx="378.84799999999996" cy="611.488" r="5" fill="black" stroke="none" />
<path d="M378.84799999999996,611.488 L401.9453388036204,590.2330796640746" stroke="grey" stroke-width="5" />
<circle cx="401.9453388036204" cy="590.2330796640746" r="2.5" fill="grey" stroke="none" />
<path d="M401.9453388036204,590.2330796640746 A133.2543629604675,133.2543629604675,0,0,1,378.84799999999996,555.4879999999999" stroke="grey" stroke-width="5" fill="none" />
<circle cx="378.84799999999996" cy="611.488" r="5" fill="black" stroke="none" />
<circle cx="378.84799999999996" cy="555.488" r="5" fill="black" stroke="none" />
<path d="M378.84799999999996,555.4879999999999 A133.2543629604675,133.2543629604675,0,0,1,370.61683418034875,531.8860729862528" stroke="grey" stroke-width="5" fill="none" />
<path d="M370.61683418034875,531.8860729862529 L274.84799999999996,555.488" stroke="grey" stroke-width="5" />
<circle cx="370.61683418034875" cy="531.8860729862529" r="2.5" fill="grey" stroke="none" />
<circle cx="378.84799999999996" cy="555.488" r="5" fill="black" stroke="none" />
<circle cx="274.84799999999996" cy="555.488" r="5" fill="black" stroke="none" />
<path d="M274.84799999999996,555.488 L314.15857754837185,545.8000321960095" stroke="grey" stroke-width="5" />
<circle cx="314.15857754837185" cy="545.8000321960095" r="2.5" fill="grey" stroke="none" />
<path d="M314.1585775483718,545.8000321960094 A191.40187367943926,191.40187367943926,0,0,1,314.84799999999996,451.4879999999999" stroke="grey" stroke-width="5" fill="none" />
<circle cx="274.84799999999996" cy="555.488" r="5" fill="black" stroke="none" />
<circle cx="314.84799999999996" cy="451.488" r="5" fill="black" stroke="none" />
<path d="M314.84799999999996,451.488 L350.1806709132135,460.7455750266906" stroke="grey" stroke-width="5" />
<circle cx="350.1806709132135" cy="460.7455750266906" r="2.5" fill="grey" stroke="none" />
<path d="M350.18067091321353,460.7455750266905 A154.87653549844148,154.87653549844148,0,0,1,426.84799999999996,363.48800000000006" stroke="grey" stroke-width="5" fill="none" />
<circle cx="314.84799999999996" cy="451.488" r="5" fill="black" stroke="none" />
<circle cx="426.84799999999996" cy="363.488" r="5" fill="black" stroke="none" />
<path d="M426.84799999999996,363.488 L445.5461270531201,398.38135520936595" stroke="grey" stroke-width="5" />
<circle cx="445.5461270531201" cy="398.38135520936595" r="2.5" fill="grey" stroke="none" />
<path d="M445.5461270531201,398.38135520936595 A115.28908555453114,115.28908555453114,0,0,1,474.84799999999996,387.488" stroke="grey" stroke-width="5" fill="none" />
<circle cx="426.84799999999996" cy="363.488" r="5" fill="black" stroke="none" />
<circle cx="474.84799999999996" cy="387.488" r="5" fill="black" stroke="none" />
<path d="M474.84799999999996,387.488 A115.28908555453114,115.28908555453114,0,0,0,433.889932591623,405.54878383387614" stroke="grey" stroke-width="5" fill="none" />
<path d="M433.889932591623,405.54878383387614 L426.84799999999996,395.488" stroke="grey" stroke-width="5" />
<circle cx="433.889932591623" cy="405.54878383387614" r="2.5" fill="grey" stroke="none" />
<circle cx="474.84799999999996" cy="387.488" r="5" fill="black" stroke="none" />
<circle cx="426.84799999999996" cy="395.488" r="5" fill="black" stroke="none" />
<path d="M426.84799999999996,363.488 L439.7457925855115,387.5571089981594" stroke="grey" stroke-width="5" />
<circle cx="439.7457925855115" cy="387.5571089981594" r="2.5" fill="grey" stroke="none" />
<path d="M439.7457925855115,387.5571089981594 A127.56948399989712,127.56948399989712,0,0,0,426.84799999999996,395.488" stroke="grey" stroke-width="5" fill="none" />
<circle cx="426.84799999999996" cy="363.488" r="5" fill="black" stroke="none" />
<circle cx="426.84799999999996" cy="395.488" r="5" fill="black" stroke="none" />
<path d="M426.84799999999996,395.488 L430.3954020631149,400.556160602858" stroke="grey" stroke-width="5" />
<circle cx="430.3954020631149" cy="400.556160602858" r="2.5" fill="grey" stroke="none" />
<path d="M430.3954020631149,400.556160602858 A121.38318354698072,121.38318354698072,0,0,0,378.84799999999996,507.48799999999994" stroke="grey" stroke-width="5" fill="none" />
<circle cx="426.84799999999996" cy="395.488" r="5" fill="black" stroke="none" />
<circle cx="378.84799999999996" cy="507.488" r="5" fill="black" stroke="none" />
<path d="M314.84799999999996,451.488 L382.5803594915131,469.23467421174104" stroke="grey" stroke-width="5" />
<circle cx="382.5803594915131" cy="469.23467421174104" r="2.5" fill="grey" stroke="none" />
<path d="M382.5803594915131,469.23467421174104 A121.38318354698072,121.38318354698072,0,0,0,378.84799999999996,507.48799999999994" stroke="grey" stroke-width="5" fill="none" />
<circle cx="314.84799999999996" cy="451.488" r="5" fill="black" stroke="none" />
<circle cx="378.84799999999996" cy="507.488" r="5" fill="black" stroke="none" />
<path d="M378.84799999999996,507.48799999999994 A121.38318354698072,121.38318354698072,0,0,0,389.64102092892387,550.5447622052948" stroke="grey" stroke-width="5" fill="none" />
<path d="M389.64102092892387,550.5447622052948 L378.84799999999996,555.488" stroke="grey" stroke-width="5" />
<circle cx="389.64102092892387" cy="550.5447622052948" r="2.5" fill="grey" stroke="none" />
<circle cx="378.84799999999996" cy="507.488" r="5" fill="black" stroke="none" />
<circle cx="378.84799999999996" cy="555.488" r="5" fill="black" stroke="none" />
<path d="M474.84799999999996,387.488 A115.28908555453114,115.28908555453114,0,0,1,511.1712984691051,385.2534299488034" stroke="grey" stroke-width="5" fill="none" />
<path d="M511.1712984691051,385.2534299488034 L514.848,347.488" stroke="grey" stroke-width="5" />
<circle cx="511.1712984691051" cy="385.2534299488034" r="2.5" fill="grey" stroke="none" />
<circle cx="474.84799999999996" cy="387.488" r="5" fill="black" stroke="none" />
<circle cx="514.848" cy="347.488" r="5" fill="black" stroke="none" />
<path d="M474.84799999999996,387.488 L488.3013194751936,447.66849780506476" stroke="grey" stroke-width="5" />
<circle cx="488.3013194751936" cy="447.66849780506476" r="2.5" fill="grey" stroke="none" />
<path d="M488.3013194751936,447.66849780506476 A53.62317827208676,53.62317827208676,0,0,1,522.848,451.488" stroke="grey" stroke-width="5" fill="none" />
<circle cx="474.84799999999996" cy="387.488" r="5" fill="black" stroke="none" />
<circle cx="522.848" cy="451.488" r="5" fill="black" stroke="none" />
<path d="M426.84799999999996,395.488 L468.6651935898588,455.23207448139937" stroke="grey" stroke-width="5" />
<circle cx="468.6651935898588" cy="455.23207448139937" r="2.5" fill="grey" stroke="none" />
<path d="M468.6651935898588,455.23207448139937 A54.64464519053996,54.64464519053996,0,0,1,474.84799999999996,451.488" stroke="grey" stroke-width="5" fill="none" />
<circle cx="426.84799999999996" cy="395.488" r="5" fill="black" stroke="none" />
<circle cx="474.84799999999996" cy="451.488" r="5" fill="black" stroke="none" />
<path d="M378.84799999999996,507.488 L426.60580617866805,504.5362496973565" stroke="grey" stroke-width="5" />
<circle cx="426.60580617866805" cy="504.5362496973565" r="2.5" fill="grey" stroke="none" />
<path d="M426.60580617866805,504.5362496973565 A73.53424540987693,73.53424540987693,0,0,0,426.84799999999996,507.488" stroke="grey" stroke-width="5" fill="none" />
<circle cx="378.84799999999996" cy="507.488" r="5" fill="black" stroke="none" />
<circle cx="426.84799999999996" cy="507.488" r="5" fill="black" stroke="none" />
<path d="M378.84799999999996,555.488 L444.61064648642025,525.3684994697695" stroke="grey" stroke-width="5" />
<circle cx="444.61064648642025" cy="525.3684994697695" r="2.5" fill="grey" stroke="none" />
<path d="M444.61064648642025,525.3684994697695 A60.922419912541244,60.922419912541244,0,0,0,474.84799999999996,555.488" stroke="grey" stroke-width="5" fill="none" />
<circle cx="378.84799999999996" cy="555.488" r="5" fill="black" stroke="none" />
<circle cx="474.84799999999996" cy="555.488" r="5" fill="black" stroke="none" />
<path d="M378.84799999999996,611.488 L415.90020739407134,577.3913569569613" stroke="grey" stroke-width="5" />
<circle cx="415.90020739407134" cy="577.3913569569613" r="2.5" fill="grey" stroke="none" />
<path d="M415.90020739407134,577.3913569569613 A114.2899700236202,114.2899700236202,0,0,0,474.84799999999996,611.488" stroke="grey" stroke-width="5" fill="none" />
<circle cx="378.84799999999996" cy="611.488" r="5" fill="black" stroke="none" />
<circle cx="474.84799999999996" cy="611.488" r="5" fill="black" stroke="none" />
<path d="M522.848,451.488 A53.62317827208676,53.62317827208676,0,0,0,475.3181638347792,452.3948299917625" stroke="grey" stroke-width="5" fill="none" />
<path d="M475.31816383477917,452.3948299917625 L474.84799999999996,451.488" stroke="grey" stroke-width="5" />
<circle cx="475.31816383477917" cy="452.3948299917625" r="2.5" fill="grey" stroke="none" />
<circle cx="522.848" cy="451.488" r="5" fill="black" stroke="none" />
<circle cx="474.84799999999996" cy="451.488" r="5" fill="black" stroke="none" />
<path d="M474.84799999999996,451.488 A54.64464519053996,54.64464519053996,0,0,0,445.6394083777262,505.5644700085792" stroke="grey" stroke-width="5" fill="none" />
<path d="M445.6394083777262,505.5644700085792 L426.84799999999996,507.488" stroke="grey" stroke-width="5" />
<circle cx="445.6394083777262" cy="505.5644700085792" r="2.5" fill="grey" stroke="none" />
<circle cx="474.84799999999996" cy="451.488" r="5" fill="black" stroke="none" />
<circle cx="426.84799999999996" cy="507.488" r="5" fill="black" stroke="none" />
<path d="M426.84799999999996,507.488 L439.3942667582794,506.20373647356195" stroke="grey" stroke-width="5" />
<circle cx="439.3942667582794" cy="506.20373647356195" r="2.5" fill="grey" stroke="none" />
<path d="M439.3942667582794,506.20373647356195 A60.922419912541244,60.922419912541244,0,0,0,474.84799999999996,555.488" stroke="grey" stroke-width="5" fill="none" />
<circle cx="426.84799999999996" cy="507.488" r="5" fill="black" stroke="none" />
<circle cx="474.84799999999996" cy="555.488" r="5" fill="black" stroke="none" />
<path d="M474.84799999999996,555.488 A60.922419912541244,60.922419912541244,0,0,0,486.5926930830102,559.4288260798885" stroke="grey" stroke-width="5" fill="none" />
<path d="M486.5926930830102,559.4288260798885 L474.84799999999996,611.488" stroke="grey" stroke-width="5" />
<circle cx="486.5926930830102" cy="559.4288260798885" r="2.5" fill="grey" stroke="none" />
<circle cx="474.84799999999996" cy="555.488" r="5" fill="black" stroke="none" />
<circle cx="474.84799999999996" cy="611.488" r="5" fill="black" stroke="none" />
<path d="M474.84799999999996,611.488 A114.2899700236202,114.2899700236202,0,0,0,527.160291401585,611.0158358928176" stroke="grey" stroke-width="5" fill="none" />
<path d="M527.160291401585,611.0158358928176 L546.848,691.488" stroke="grey" stroke-width="5" />
<circle cx="527.160291401585" cy="611.0158358928176" r="2.5" fill="grey" stroke="none" />
<circle cx="474.84799999999996" cy="611.488" r="5" fill="black" stroke="none" />
<circle cx="546.848" cy="691.488" r="5" fill="black" stroke="none" />
<path d="M522.848,451.488 L510.4557088856976,477.7999234303675" stroke="grey" stroke-width="5" />
<circle cx="510.4557088856976" cy="477.7999234303675" r="2.5" fill="grey" stroke="none" />
<path d="M510.4557088856976,477.7999234303675 A24.53905556454853,24.53905556454853,0,0,0,498.84799999999996,475.488" stroke="grey" stroke-width="5" fill="none" />
<circle cx="522.848" cy="451.488" r="5" fill="black" stroke="none" />
<circle cx="498.84799999999996" cy="475.488" r="5" fill="black" stroke="none" />
<path d="M498.84799999999996,475.488 A24.53905556454853,24.53905556454853,0,0,0,476.4810756168746,507.0018171827625" stroke="grey" stroke-width="5" fill="none" />
<path d="M476.4810756168746,507.0018171827625 L474.84799999999996,507.488" stroke="grey" stroke-width="5" />
<circle cx="476.4810756168746" cy="507.0018171827625" r="2.5" fill="grey" stroke="none" />
<circle cx="498.84799999999996" cy="475.488" r="5" fill="black" stroke="none" />
<circle cx="474.84799999999996" cy="507.488" r="5" fill="black" stroke="none" />
<path d="M474.84799999999996,507.488 A26.242965686065325,26.242965686065325,0,0,0,489.1655145366273,523.9020328161428" stroke="grey" stroke-width="5" fill="none" />
<path d="M489.1655145366273,523.9020328161428 L474.84799999999996,555.488" stroke="grey" stroke-width="5" />
<circle cx="489.1655145366273" cy="523.9020328161428" r="2.5" fill="grey" stroke="none" />
<circle cx="474.84799999999996" cy="507.488" r="5" fill="black" stroke="none" />
<circle cx="474.84799999999996" cy="555.488" r="5" fill="black" stroke="none" />
<path d="M474.84799999999996,451.488 L488.7050904364482,478.2149072540146" stroke="grey" stroke-width="5" />
<circle cx="488.7050904364482" cy="478.2149072540146" r="2.5" fill="grey" stroke="none" />
<path d="M488.7050904364482,478.2149072540146 A24.53905556454853,24.53905556454853,0,0,1,498.84799999999996,475.488" stroke="grey" stroke-width="5" fill="none" />
<circle cx="474.84799999999996" cy="451.488" r="5" fill="black" stroke="none" />
<circle cx="498.84799999999996" cy="475.488" r="5" fill="black" stroke="none" />
<path d="M426.84799999999996,507.488 L473.8934503894535,502.6723239758827" stroke="grey" stroke-width="5" />
<circle cx="473.8934503894535" cy="502.6723239758827" r="2.5" fill="grey" stroke="none" />
<path d="M473.8934503894535,502.6723239758827 A26.242965686065325,26.242965686065325,0,0,0,474.84799999999996,507.488" stroke="grey" stroke-width="5" fill="none" />
<circle cx="426.84799999999996" cy="507.488" r="5" fill="black" stroke="none" />
<circle cx="474.84799999999996" cy="507.488" r="5" fill="black" stroke="none" />
<path d="M522.848,451.488 L510.24466100729086,478.248030690402" stroke="grey" stroke-width="5" />
<circle cx="510.24466100729086" cy="478.248030690402" r="2.5" fill="grey" stroke="none" />
<path d="M510.24466100729086,478.248030690402 A24.0437361489432,24.0437361489432,0,0,1,522.848,507.488" stroke="grey" stroke-width="5" fill="none" />
<circle cx="522.848" cy="451.488" r="5" fill="black" stroke="none" />
<circle cx="522.848" cy="507.488" r="5" fill="black" stroke="none" />
<path d="M498.84799999999996,475.488 L498.8712530532919,475.9827733006016" stroke="grey" stroke-width="5" />
<circle cx="498.8712530532919" cy="475.9827733006016" r="2.5" fill="grey" stroke="none" />
<path d="M498.8712530532919,475.9827733006016 A24.0437361489432,24.0437361489432,0,0,1,522.848,507.488" stroke="grey" stroke-width="5" fill="none" />
<circle cx="498.84799999999996" cy="475.488" r="5" fill="black" stroke="none" />
<circle cx="522.848" cy="507.488" r="5" fill="black" stroke="none" />
<path d="M474.84799999999996,507.488 L476.9558037436549,506.86048590837754" stroke="grey" stroke-width="5" />
<circle cx="476.9558037436549" cy="506.86048590837754" r="2.5" fill="grey" stroke="none" />
<path d="M476.9558037436549,506.86048590837754 A24.0437361489432,24.0437361489432,0,0,0,522.848,507.488" stroke="grey" stroke-width="5" fill="none" />
<circle cx="474.84799999999996" cy="507.488" r="5" fill="black" stroke="none" />
<circle cx="522.848" cy="507.488" r="5" fill="black" stroke="none" />
<path d="M474.84799999999996,555.488 L490.07347291052486,521.8989796096055" stroke="grey" stroke-width="5" />
<circle cx="490.07347291052486" cy="521.8989796096055" r="2.5" fill="grey" stroke="none" />
<path d="M490.07347291052486,521.8989796096055 A24.0437361489432,24.0437361489432,0,0,0,522.848,507.488" stroke="grey" stroke-width="5" fill="none" />
<circle cx="474.84799999999996" cy="555.488" r="5" fill="black" stroke="none" />
<circle cx="522.848" cy="507.488" r="5" fill="black" stroke="none" />
<path d="M522.848,507.488 A24.0437361489432,24.0437361489432,0,0,1,506.6421739288209,523.1080672817804" stroke="grey" stroke-width="5" fill="none" />
<path d="M506.6421739288209,523.1080672817804 L522.848,579.488" stroke="grey" stroke-width="5" />
<circle cx="506.6421739288209" cy="523.1080672817804" r="2.5" fill="grey" stroke="none" />
<circle cx="522.848" cy="507.488" r="5" fill="black" stroke="none" />
<circle cx="522.848" cy="579.488" r="5" fill="black" stroke="none" />
<path d="M522.848,579.488 A82.7065490030868,82.7065490030868,0,0,1,481.79862047303254,580.6788883867105" stroke="grey" stroke-width="5" fill="none" />
<path d="M481.79862047303254,580.6788883867105 L474.84799999999996,611.488" stroke="grey" stroke-width="5" />
<circle cx="481.79862047303254" cy="580.6788883867105" r="2.5" fill="grey" stroke="none" />
<circle cx="522.848" cy="579.488" r="5" fill="black" stroke="none" />
<circle cx="474.84799999999996" cy="611.488" r="5" fill="black" stroke="none" />
<path d="M522.848,451.488 A53.62317827208676,53.62317827208676,0,0,1,534.2895678864751,458.7729362898737" stroke="grey" stroke-width="5" fill="none" />
<path d="M534.2895678864751,458.7729362898737 L626.848,347.488" stroke="grey" stroke-width="5" />
<circle cx="534.2895678864751" cy="458.7729362898737" r="2.5" fill="grey" stroke="none" />
<circle cx="522.848" cy="451.488" r="5" fill="black" stroke="none" />
<circle cx="626.848" cy="347.488" r="5" fill="black" stroke="none" />
<path d="M522.848,451.488 A53.62317827208676,53.62317827208676,0,0,1,552.9289491923655,491.39932645707427" stroke="grey" stroke-width="5" fill="none" />
<path d="M552.9289491923655,491.39932645707427 L650.848,475.488" stroke="grey" stroke-width="5" />
<circle cx="552.9289491923655" cy="491.39932645707427" r="2.5" fill="grey" stroke="none" />
<circle cx="522.848" cy="451.488" r="5" fill="black" stroke="none" />
<circle cx="650.848" cy="475.488" r="5" fill="black" stroke="none" />
<path d="M650.848,475.488 A152.82655936714661,152.82655936714661,0,0,1,652.0280701635064,484.3979767222339" stroke="grey" stroke-width="5" fill="none" />
<path d="M652.0280701635064,484.3979767222339 L738.848,475.488" stroke="grey" stroke-width="5" />
<circle cx="652.0280701635064" cy="484.3979767222339" r="2.5" fill="grey" stroke="none" />
<circle cx="650.848" cy="475.488" r="5" fill="black" stroke="none" />
<circle cx="738.848" cy="475.488" r="5" fill="black" stroke="none" />
<path d="M522.848,507.488 A24.0437361489432,24.0437361489432,0,0,1,514.7757445329886,518.9678312280518" stroke="grey" stroke-width="5" fill="none" />
<path d="M514.7757445329886,518.9678312280518 L586.848,611.488" stroke="grey" stroke-width="5" />
<circle cx="514.7757445329886" cy="518.9678312280518" r="2.5" fill="grey" stroke="none" />
<circle cx="522.848" cy="507.488" r="5" fill="black" stroke="none" />
<circle cx="586.848" cy="611.488" r="5" fill="black" stroke="none" />
<circle cx="500" cy="500" r="5" fill="red" stroke="none" />
</svg>