<?xml version="1.0" encoding="UTF-8"?>
<svg xmlns="http://www.w3.org/2000/svg" xmlns:xlink="http://www.w3.org/1999/xlink"
     width="1000" height="1000" viewBox="0 0 1000 1000">
<defs>
</defs>
<rect x="0" y="0" width="1000" height="1000" fill="white" />
<path d="M300.54288799999995,644.8684579999999 L417.0071655509612,560.2788430611665" stroke="grey" stroke-width="5" />
<circle cx="417.0071655509612" cy="560.2788430611665" r="2.5" fill="grey" stroke="none" />
<path d="M417.0071655509612,560.2788430611665 A102.57362960663087,102.57362960663087,0,0,0,420.54288799999995,564.8684579999999" stroke="grey" stroke-width="5" fill="none" />
<circle cx="300.54288799999995" cy="644.8684579999999" r="5" fill="black" stroke="none" />
<circle cx="420.54288799999995" cy="564.8684579999999" r="5" fill="black" stroke="none" />
<path d="M420.54288799999995,564.8684579999999 L438.0675546890458,550.5613925093443" stroke="grey" stroke-width="5" />
<circle cx="438.0675546890458" cy="550.5613925093443" r="2.5" fill="grey" stroke="none" />
<path d="M438.0675546890458,550.5613925093443 A79.95049840168797,79.95049840168797,0,0,1,420.542888,508.868458" stroke="grey" stroke-width="5" fill="none" />
<circle cx="420.54288799999995" cy="564.8684579999999" r="5" fill="black" stroke="none" />
<circle cx="420.54288799999995" cy="508.8684579999999" r="5" fill="black" stroke="none" />
<path d="M420.542888,508.868458 A79.95049840168797,79.95049840168797,0,0,1,420.1427535567957,503.86036075874347" stroke="grey" stroke-width="5" fill="none" />
<path d="M420.1427535567957,503.8603607587434 L316.54288799999995,508.8684579999999" stroke="grey" stroke-width="5" />
<circle cx="420.1427535567957" cy="503.8603607587434" r="2.5" fill="grey" stroke="none" />
<circle cx="420.54288799999995" cy="508.8684579999999" r="5" fill="black" stroke="none" />
<circle cx="316.54288799999995" cy="508.8684579999999" r="5" fill="black" stroke="none" />
<path d="M316.54288799999995,508.8684579999999 L328.067238352249,508.31136203374376" stroke="grey" stroke-width="5" />
<circle cx="328.067238352249" cy="508.31136203374376" r="2.5" fill="grey" stroke="none" />
<path d="M328.067238352249,508.3113620337438 A172.1335332428819,172.1335332428819,0,0,1,356.54288800000006,404.86845799999986" stroke="grey" stroke-width="5" fill="none" />
<circle cx="316.54288799999995" cy="508.8684579999999" r="5" fill="black" stroke="none" />
<circle cx="356.54288799999995" cy="404.8684579999999" r="5" fill="black" stroke="none" />
<path d="M356.54288800000006,404.86845799999986 A172.1335332428819,172.1335332428819,0,0,1,470.85884751139713,330.35110817245425" stroke="grey" stroke-width="5" fill="none" />
<path d="M470.8588475113971,330.35110817245425 L468.54288799999995,316.8684579999999" stroke="grey" stroke-width="5" />
<circle cx="470.8588475113971" cy="330.35110817245425" r="2.5" fill="grey" stroke="none" />
<circle cx="356.54288799999995" cy="404.8684579999999" r="5" fill="black" stroke="none" />
<circle cx="468.54288799999995" cy="316.8684579999999" r="5" fill="black" stroke="none" />
<path d="M468.54288799999995,316.8684579999999 L472.91482422857194,342.32023574310756" stroke="grey" stroke-width="5" />
<circle cx="472.91482422857194" cy="342.32023574310756" r="2.5" fill="grey" stroke="none" />
<path d="M472.91482422857194,342.32023574310756 A159.9891083876597,159.9891083876597,0,0,1,516.542888,340.8684579999999" stroke="grey" stroke-width="5" fill="none" />
<circle cx="468.54288799999995" cy="316.8684579999999" r="5" fill="black" stroke="none" />
<circle cx="516.542888" cy="340.8684579999999" r="5" fill="black" stroke="none" />
<path d="M516.542888,340.8684579999999 L515.9619373306501,346.4568157184086" stroke="grey" stroke-width="5" />
<circle cx="515.9619373306501" cy="346.4568157184086" r="2.5" fill="grey" stroke="none" />
<path d="M515.9619373306501,346.4568157184086 A154.37063478096582,154.37063478096582,0,0,0,468.54288799999995,348.8684579999999" stroke="grey" stroke-width="5" fill="none" />
<circle cx="516.542888" cy="340.8684579999999" r="5" fill="black" stroke="none" />
<circle cx="468.54288799999995" cy="348.8684579999999" r="5" fill="black" stroke="none" />
<path d="M468.54288799999995,316.8684579999999 L473.8659973849077,347.85761014762295" stroke="grey" stroke-width="5" />
<circle cx="473.8659973849077" cy="347.85761014762295" r="2.5" fill="grey" stroke="none" />
<path d="M473.8659973849077,347.85761014762295 A154.37063478096582,154.37063478096582,0,0,0,468.54288799999995,348.8684579999999" stroke="grey" stroke-width="5" fill="none" />
<circle cx="468.54288799999995" cy="316.8684579999999" r="5" fill="black" stroke="none" />
<circle cx="468.54288799999995" cy="348.8684579999999" r="5" fill="black" stroke="none" />
<path d="M468.54288799999995,348.8684579999999 L481.9514377543468,413.2880652531435" stroke="grey" stroke-width="5" />
<circle cx="481.9514377543468" cy="413.2880652531435" r="2.5" fill="grey" stroke="none" />
<path d="M481.9514377543467,413.2880652531435 A88.57036878481605,88.57036878481605,0,0,0,420.54288799999995,460.8684579999999" stroke="grey" stroke-width="5" fill="none" />
<circle cx="468.54288799999995" cy="348.8684579999999" r="5" fill="black" stroke="none" />
<circle cx="420.54288799999995" cy="460.8684579999999" r="5" fill="black" stroke="none" />
<path d="M356.54288799999995,404.8684579999999 L426.1849270431444,451.0505849774239" stroke="grey" stroke-width="5" />
<circle cx="426.1849270431444" cy="451.0505849774239" r="2.5" fill="grey" stroke="none" />
<path d="M426.1849270431444,451.05058497742385 A88.57036878481605,88.57036878481605,0,0,0,420.54288799999995,460.8684579999999" stroke="grey" stroke-width="5" fill="none" />
<circle cx="356.54288799999995" cy="404.8684579999999" r="5" fill="black" stroke="none" />
<circle cx="420.54288799999995" cy="460.8684579999999" r="5" fill="black" stroke="none" />
<path d="M420.54288799999995,460.8684579999999 L428.2758354389081,464.6768289547538" stroke="grey" stroke-width="5" />
<circle cx="428.2758354389081" cy="464.6768289547538" r="2.5" fill="grey" stroke="none" />
<path d="M428.2758354389081,464.67682895475383 A79.95049840168797,79.95049840168797,0,0,0,420.542888,508.868458" stroke="grey" stroke-width="5" fill="none" />
<circle cx="420.54288799999995" cy="460.8684579999999" r="5" fill="black" stroke="none" />
<circle cx="420.54288799999995" cy="508.8684579999999" r="5" fill="black" stroke="none" />
<path d="M516.542888,340.8684579999999 A159.9891083876597,159.9891083876597,0,0,1,543.7009234412108,346.09501602266494" stroke="grey" stroke-width="5" fill="none" />
<path d="M543.7009234412108,346.09501602266494 L556.542888,300.8684579999999" stroke="grey" stroke-width="5" />
<circle cx="543.7009234412108" cy="346.09501602266494" r="2.5" fill="grey" stroke="none" />
<circle cx="516.542888" cy="340.8684579999999" r="5" fill="black" stroke="none" />
<circle cx="556.542888" cy="300.8684579999999" r="5" fill="black" stroke="none" />
<path d="M516.542888,340.8684579999999 L511.8868710836905,385.65623335521065" stroke="grey" stroke-width="5" />
<circle cx="511.8868710836905" cy="385.65623335521065" r="2.5" fill="grey" stroke="none" />
<path d="M511.8868710836905,385.65623335521065 A114.95996987942507,114.95996987942507,0,0,1,564.542888,404.8684579999999" stroke="grey" stroke-width="5" fill="none" />
<circle cx="516.542888" cy="340.8684579999999" r="5" fill="black" stroke="none" />
<circle cx="564.542888" cy="404.8684579999999" r="5" fill="black" stroke="none" />
<path d="M468.54288799999995,348.8684579999999 L480.3235032361138,405.466868761375" stroke="grey" stroke-width="5" />
<circle cx="480.3235032361138" cy="405.466868761375" r="2.5" fill="grey" stroke="none" />
<path d="M480.3235032361138,405.466868761375 A96.55919131122798,96.55919131122798,0,0,1,516.542888,404.8684579999999" stroke="grey" stroke-width="5" fill="none" />
<circle cx="468.54288799999995" cy="348.8684579999999" r="5" fill="black" stroke="none" />
<circle cx="516.542888" cy="404.8684579999999" r="5" fill="black" stroke="none" />
<path d="M420.54288799999995,460.8684579999999 L454.9581847716615,477.81752142761025" stroke="grey" stroke-width="5" />
<circle cx="454.9581847716615" cy="477.81752142761025" r="2.5" fill="grey" stroke="none" />
<path d="M454.9581847716615,477.8175214276103 A50.20784276065161,50.20784276065161,0,0,1,468.54288799999995,460.8684579999999" stroke="grey" stroke-width="5" fill="none" />
<circle cx="420.54288799999995" cy="460.8684579999999" r="5" fill="black" stroke="none" />
<circle cx="468.54288799999995" cy="460.8684579999999" r="5" fill="black" stroke="none" />
<path d="M420.54288799999995,508.8684579999999 L481.345732104512,502.0820614692349" stroke="grey" stroke-width="5" />
<circle cx="481.345732104512" cy="502.0820614692349" r="2.5" fill="grey" stroke="none" />
<path d="M481.345732104512,502.08206146923493 A18.770100976774362,18.770100976774362,0,0,0,516.542888,508.8684579999999" stroke="grey" stroke-width="5" fill="none" />
<circle cx="420.54288799999995" cy="508.8684579999999" r="5" fill="black" stroke="none" />
<circle cx="516.542888" cy="508.8684579999999" r="5" fill="black" stroke="none" />
<path d="M420.54288799999995,564.8684579999999 L448.1423511936346,542.3363702619151" stroke="grey" stroke-width="5" />
<circle cx="448.1423511936346" cy="542.3363702619151" r="2.5" fill="grey" stroke="none" />
<path d="M448.1423511936346,542.3363702619151 A66.94463374071366,66.94463374071366,0,0,0,516.542888,564.8684579999999" stroke="grey" stroke-width="5" fill="none" />
<circle cx="420.54288799999995" cy="564.8684579999999" r="5" fill="black" stroke="none" />
<circle cx="516.542888" cy="564.8684579999999" r="5" fill="black" stroke="none" />
<path d="M564.542888,404.8684579999999 L554.2119928937678,420.0954491085496" stroke="grey" stroke-width="5" />
<circle cx="554.2119928937678" cy="420.0954491085496" r="2.5" fill="grey" stroke="none" />
<path d="M554.2119928937678,420.0954491085496 A96.55919131122798,96.55919131122798,0,0,0,516.542888,404.8684579999999" stroke="grey" stroke-width="5" fill="none" />
<circle cx="564.542888" cy="404.8684579999999" r="5" fill="black" stroke="none" />
<circle cx="516.542888" cy="404.8684579999999" r="5" fill="black" stroke="none" />
<path d="M516.542888,404.8684579999999 L508.60179862975394,450.5344914611052" stroke="grey" stroke-width="5" />
<circle cx="508.60179862975394" cy="450.5344914611052" r="2.5" fill="grey" stroke="none" />
<path d="M508.60179862975394,450.5344914611052 A50.20784276065161,50.20784276065161,0,0,0,468.54288799999995,460.8684579999999" stroke="grey" stroke-width="5" fill="none" />
<circle cx="516.542888" cy="404.8684579999999" r="5" fill="black" stroke="none" />
<circle cx="468.54288799999995" cy="460.8684579999999" r="5" fill="black" stroke="none" />
<path d="M468.54288799999995,460.8684579999999 L488.23982198373903,485.3707517724198" stroke="grey" stroke-width="5" />
<circle cx="488.23982198373903" cy="485.3707517724198" r="2.5" fill="grey" stroke="none" />
<path d="M488.23982198373903,485.3707517724198 A18.770100976774362,18.770100976774362,0,0,1,516.542888,508.8684579999999" stroke="grey" stroke-width="5" fill="none" />
<circle cx="468.54288799999995" cy="460.8684579999999" r="5" fill="black" stroke="none" />
<circle cx="516.542888" cy="508.8684579999999" r="5" fill="black" stroke="none" />
<path d="M516.542888,508.8684579999999 A18.770100976774362,18.770100976774362,0,0,1,504.6383356044657,518.1879777187748" stroke="grey" stroke-width="5" fill="none" />
<path d="M504.6383356044657,518.1879777187748 L516.542888,564.8684579999999" stroke="grey" stroke-width="5" />
<circle cx="504.6383356044657" cy="518.1879777187748" r="2.5" fill="grey" stroke="none" />
<circle cx="516.542888" cy="508.8684579999999" r="5" fill="black" stroke="none" />
<circle cx="516.542888" cy="564.8684579999999" r="5" fill="black" stroke="none" />
<path d="M516.542888,564.8684579999999 A66.94463374071366,66.94463374071366,0,0,0,534.9117717793467,557.1205057567342" stroke="grey" stroke-width="5" fill="none" />
<path d="M534.9117717793467,557.1205057567342 L588.542888,644.8684579999999" stroke="grey" stroke-width="5" />
<circle cx="534.9117717793467" cy="557.1205057567342" r="2.5" fill="grey" stroke="none" />
<circle cx="516.542888" cy="564.8684579999999" r="5" fill="black" stroke="none" />
<circle cx="588.542888" cy="644.8684579999999" r="5" fill="black" stroke="none" />
<path d="M564.542888,404.8684579999999 L545.9674099716333,432.24736717161386" stroke="grey" stroke-width="5" />
<circle cx="545.9674099716333" cy="432.24736717161386" r="2.5" fill="grey" stroke="none" />
<path d="M545.9674099716333,432.24736717161386 A81.87442845405589,81.87442845405589,0,0,0,540.542888,428.8684579999999" stroke="grey" stroke-width="5" fill="none" />
<circle cx="564.542888" cy="404.8684579999999" r="5" fill="black" stroke="none" />
<circle cx="540.542888" cy="428.8684579999999" r="5" fill="black" stroke="none" />
<path d="M540.542888,428.8684579999999 L521.0377046308032,463.0898427726812" stroke="grey" stroke-width="5" />
<circle cx="521.0377046308032" cy="463.0898427726812" r="2.5" fill="grey" stroke="none" />
<path d="M521.0377046308032,463.0898427726812 A42.48464102094207,42.48464102094207,0,0,0,516.542888,460.8684579999999" stroke="grey" stroke-width="5" fill="none" />
<circle cx="540.542888" cy="428.8684579999999" r="5" fill="black" stroke="none" />
<circle cx="516.542888" cy="460.8684579999999" r="5" fill="black" stroke="none" />
<path d="M516.542888,460.8684579999999 L507.3087984444639,482.71132868099727" stroke="grey" stroke-width="5" />
<circle cx="507.3087984444639" cy="482.71132868099727" r="2.5" fill="grey" stroke="none" />
<path d="M507.3087984444639,482.71132868099727 A18.770100976774362,18.770100976774362,0,0,1,516.542888,508.8684579999999" stroke="grey" stroke-width="5" fill="none" />
<circle cx="516.542888" cy="460.8684579999999" r="5" fill="black" stroke="none" />
<circle cx="516.542888" cy="508.8684579999999" r="5" fill="black" stroke="none" />
<path d="M516.542888,404.8684579999999 L514.0270385613924,419.33610334309697" stroke="grey" stroke-width="5" />
<circle cx="514.0270385613924" cy="419.33610334309697" r="2.5" fill="grey" stroke="none" />
<path d="M514.0270385613924,419.33610334309697 A81.87442845405589,81.87442845405589,0,0,1,540.542888,428.8684579999999" stroke="grey" stroke-width="5" fill="none" />
<circle cx="516.542888" cy="404.8684579999999" r="5" fill="black" stroke="none" />
<circle cx="540.542888" cy="428.8684579999999" r="5" fill="black" stroke="none" />
<path d="M468.54288799999995,460.8684579999999 L473.38176592755434,466.88785211523106" stroke="grey" stroke-width="5" />
<circle cx="473.38176592755434" cy="466.88785211523106" r="2.5" fill="grey" stroke="none" />
<path d="M473.38176592755434,466.8878521152311 A42.48464102094207,42.48464102094207,0,0,1,516.542888,460.8684579999999" stroke="grey" stroke-width="5" fill="none" />
<circle cx="468.54288799999995" cy="460.8684579999999" r="5" fill="black" stroke="none" />
<circle cx="516.542888" cy="460.8684579999999" r="5" fill="black" stroke="none" />
<path d="M564.542888,404.8684579999999 L542.3767088572464,437.5398005358094" stroke="grey" stroke-width="5" />
<circle cx="542.3767088572464" cy="437.5398005358094" r="2.5" fill="grey" stroke="none" />
<path d="M542.3767088572464,437.5398005358094 A75.47888427022693,75.47888427022693,0,0,1,564.542888,460.8684579999999" stroke="grey" stroke-width="5" fill="none" />
<circle cx="564.542888" cy="404.8684579999999" r="5" fill="black" stroke="none" />
<circle cx="564.542888" cy="460.8684579999999" r="5" fill="black" stroke="none" />
<path d="M540.542888,428.8684579999999 L537.3759183314479,434.4248316848577" stroke="grey" stroke-width="5" />
<circle cx="537.3759183314479" cy="434.4248316848577" r="2.5" fill="grey" stroke="none" />
<path d="M537.3759183314479,434.4248316848577 A75.47888427022693,75.47888427022693,0,0,1,564.542888,460.8684579999999" stroke="grey" stroke-width="5" fill="none" />
<circle cx="540.542888" cy="428.8684579999999" r="5" fill="black" stroke="none" />
<circle cx="564.542888" cy="460.8684579999999" r="5" fill="black" stroke="none" />
<path d="M516.542888,460.8684579999999 A42.48464102094207,42.48464102094207,0,0,1,536.3291197749792,477.97411116314424" stroke="grey" stroke-width="5" fill="none" />
<path d="M536.3291197749792,477.97411116314424 L564.542888,460.8684579999999" stroke="grey" stroke-width="5" />
<circle cx="536.3291197749792" cy="477.97411116314424" r="2.5" fill="grey" stroke="none" />
<circle cx="516.542888" cy="460.8684579999999" r="5" fill="black" stroke="none" />
<circle cx="564.542888" cy="460.8684579999999" r="5" fill="black" stroke="none" />
<path d="M516.542888,508.8684579999999 A18.770100976774362,18.770100976774362,0,0,0,516.0505356803546,490.26876189521766" stroke="grey" stroke-width="5" fill="none" />
<path d="M516.0505356803546,490.26876189521766 L564.542888,460.8684579999999" stroke="grey" stroke-width="5" />
<circle cx="516.0505356803546" cy="490.26876189521766" r="2.5" fill="grey" stroke="none" />
<circle cx="516.542888" cy="508.8684579999999" r="5" fill="black" stroke="none" />
<circle cx="564.542888" cy="460.8684579999999" r="5" fill="black" stroke="none" />
<path d="M564.542888,460.8684579999999 L561.9358396251089,462.44907867160794" stroke="grey" stroke-width="5" />
<circle cx="561.9358396251089" cy="462.44907867160794" r="2.5" fill="grey" stroke="none" />
<path d="M561.9358396251089,462.44907867160794 A72.43010370473246,72.43010370473246,0,0,1,564.542888,532.8684579999999" stroke="grey" stroke-width="5" fill="none" />
<circle cx="564.542888" cy="460.8684579999999" r="5" fill="black" stroke="none" />
<circle cx="564.542888" cy="532.8684579999999" r="5" fill="black" stroke="none" />
<path d="M564.542888,532.8684579999999 L559.6547537104464,530.3791761972619" stroke="grey" stroke-width="5" />
<circle cx="559.6547537104464" cy="530.3791761972619" r="2.5" fill="grey" stroke="none" />
<path d="M559.6547537104464,530.3791761972619 A66.94463374071366,66.94463374071366,0,0,1,516.542888,564.8684579999999" stroke="grey" stroke-width="5" fill="none" />
<circle cx="564.542888" cy="532.8684579999999" r="5" fill="black" stroke="none" />
<circle cx="516.542888" cy="564.8684579999999" r="5" fill="black" stroke="none" />
<path d="M564.542888,404.8684579999999 A114.95996987942507,114.95996987942507,0,0,1,574.269561100903,412.2513420697641" stroke="grey" stroke-width="5" fill="none" />
<path d="M574.269561100903,412.2513420697641 L668.542888,300.8684579999999" stroke="grey" stroke-width="5" />
<circle cx="574.269561100903" cy="412.2513420697641" r="2.5" fill="grey" stroke="none" />
<circle cx="564.542888" cy="404.8684579999999" r="5" fill="black" stroke="none" />
<circle cx="668.542888" cy="300.8684579999999" r="5" fill="black" stroke="none" />
<path d="M564.542888,404.8684579999999 A114.95996987942507,114.95996987942507,0,0,1,607.836482800941,460.16173131522044" stroke="grey" stroke-width="5" fill="none" />
<path d="M607.836482800941,460.16173131522044 L692.542888,428.8684579999999" stroke="grey" stroke-width="5" />
<circle cx="607.836482800941" cy="460.16173131522044" r="2.5" fill="grey" stroke="none" />
<circle cx="564.542888" cy="404.8684579999999" r="5" fill="black" stroke="none" />
<circle cx="692.542888" cy="428.8684579999999" r="5" fill="black" stroke="none" />
<path d="M692.542888,428.8684579999999 A205.26193019329793,205.26193019329793,0,0,1,698.9660354752097,449.55223777058154" stroke="grey" stroke-width="5" fill="none" />
<path d="M698.9660354752097,449.55223777058154 L780.542888,428.8684579999999" stroke="grey" stroke-width="5" />
<circle cx="698.9660354752097" cy="449.55223777058154" r="2.5" fill="grey" stroke="none" />
<circle cx="692.542888" cy="428.8684579999999" r="5" fill="black" stroke="none" />
<circle cx="780.542888" cy="428.8684579999999" r="5" fill="black" stroke="none" />
<path d="M564.542888,460.8684579999999 A75.47888427022693,75.47888427022693,0,0,1,567.3847155585535,534.0053242856343" stroke="grey" stroke-width="5" fill="none" />
<path d="M567.3847155585535,534.0053242856343 L628.542888,564.8684579999999" stroke="grey" stroke-width="5" />
<circle cx="567.3847155585535" cy="534.0053242856343" r="2.5" fill="grey" stroke="none" />
<circle cx="564.542888" cy="460.8684579999999" r="5" fill="black" stroke="none" />
<circle cx="628.542888" cy="564.8684579999999" r="5" fill="black" stroke="none" />
<circle cx="500" cy="500" r="5" fill="red" stroke="none" />
</svg>