<?xml version="1.0" encoding="UTF-8"?>
<svg xmlns="http://www.w3.org/2000/svg" xmlns:xlink="http://www.w3.org/1999/xlink"
     width="1000" height="1000" viewBox="0 0 1000 1000">
<defs>
</defs>
<rect x="0" y="0" width="1000" height="1000" fill="white" />
<path d="M339.117056,622.855296 L452.9271448724753,535.9463185249591" stroke="grey" stroke-width="5" />
<circle cx="452.9271448724753" cy="535.9463185249591" r="2.5" fill="grey" stroke="none" />
<path d="M452.9271448724753,535.9463185249591 A59.2282998688528,59.2282998688528,0,0,0,459.117056,542.855296" stroke="grey" stroke-width="5" fill="none" />
<circle cx="339.117056" cy="622.855296" r="5" fill="black" stroke="none" />
<circle cx="459.117056" cy="542.855296" r="5" fill="black" stroke="none" />
<path d="M459.117056,542.855296 L470.3573715519485,531.0727039706159" stroke="grey" stroke-width="5" />
<circle cx="470.3573715519485" cy="531.0727039706159" r="2.5" fill="grey" stroke="none" />
<path d="M470.3573715519485,531.0727039706159 A42.944130604248514,42.944130604248514,0,0,1,459.117056,486.85529599999995" stroke="grey" stroke-width="5" fill="none" />
<circle cx="459.117056" cy="542.855296" r="5" fill="black" stroke="none" />
<circle cx="459.117056" cy="486.85529599999995" r="5" fill="black" stroke="none" />
<path d="M459.117056,486.85529599999995 A42.944130604248514,42.944130604248514,0,0,0,457.2315281833637,496.1197716788387" stroke="grey" stroke-width="5" fill="none" />
<path d="M457.2315281833637,496.1197716788387 L-144.882944,-13.144704000000047" stroke="grey" stroke-width="5" />
<circle cx="457.2315281833637" cy="496.1197716788387" r="2.5" fill="grey" stroke="none" />
<circle cx="459.117056" cy="486.85529599999995" r="5" fill="black" stroke="none" />
<circle cx="355.117056" cy="486.85529599999995" r="5" fill="black" stroke="none" />
<path d="M355.11705600000005,486.85529599999995 A145.47800763467566,145.47800763467566,0,0,1,402.9604274396572,391.6156281438107" stroke="grey" stroke-width="5" fill="none" />
<path d="M402.9604274396572,391.6156281438107 L-104.88294400000001,-117.14470400000005" stroke="grey" stroke-width="5" />
<circle cx="402.9604274396572" cy="391.6156281438107" r="2.5" fill="grey" stroke="none" />
<circle cx="355.117056" cy="486.85529599999995" r="5" fill="black" stroke="none" />
<circle cx="395.117056" cy="382.85529599999995" r="5" fill="black" stroke="none" />
<path d="M395.117056,382.85529599999995 A157.23648945888726,157.23648945888726,0,0,1,505.4517033027242,342.8580496861076" stroke="grey" stroke-width="5" fill="none" />
<path d="M505.45170330272424,342.8580496861076 L7.117055999999991,-205.14470400000005" stroke="grey" stroke-width="5" />
<circle cx="505.45170330272424" cy="342.8580496861076" r="2.5" fill="grey" stroke="none" />
<circle cx="395.117056" cy="382.85529599999995" r="5" fill="black" stroke="none" />
<circle cx="507.117056" cy="294.85529599999995" r="5" fill="black" stroke="none" />
<path d="M507.117056,294.85529599999995 L506.56494797665823,310.7694657106879" stroke="grey" stroke-width="5" />
<circle cx="506.56494797665823" cy="310.7694657106879" r="2.5" fill="grey" stroke="none" />
<path d="M506.5649479766582,310.7694657106879 A189.3443784466673,189.3443784466673,0,0,1,555.1170559999999,318.85529599999995" stroke="grey" stroke-width="5" fill="none" />
<circle cx="507.117056" cy="294.85529599999995" r="5" fill="black" stroke="none" />
<circle cx="555.117056" cy="318.85529599999995" r="5" fill="black" stroke="none" />
<path d="M555.117056,318.85529599999995 L550.4439852450813,334.2135549511095" stroke="grey" stroke-width="5" />
<circle cx="550.4439852450813" cy="334.2135549511095" r="2.5" fill="grey" stroke="none" />
<path d="M550.4439852450813,334.2135549511095 A173.2909143877854,173.2909143877854,0,0,0,507.11705599999993,326.85529599999995" stroke="grey" stroke-width="5" fill="none" />
<circle cx="555.117056" cy="318.85529599999995" r="5" fill="black" stroke="none" />
<circle cx="507.117056" cy="326.85529599999995" r="5" fill="black" stroke="none" />
<path d="M507.117056,294.85529599999995 L506.00834229733306,326.81327755225334" stroke="grey" stroke-width="5" />
<circle cx="506.00834229733306" cy="326.81327755225334" r="2.5" fill="grey" stroke="none" />
<path d="M506.008342297333,326.81327755225334 A173.2909143877854,173.2909143877854,0,0,1,507.11705599999993,326.85529599999995" stroke="grey" stroke-width="5" fill="none" />
<circle cx="507.117056" cy="294.85529599999995" r="5" fill="black" stroke="none" />
<circle cx="507.117056" cy="326.85529599999995" r="5" fill="black" stroke="none" />
<path d="M507.117056,326.85529599999995 L503.02083380149315,426.5087454148555" stroke="grey" stroke-width="5" />
<circle cx="503.02083380149315" cy="426.5087454148555" r="2.5" fill="grey" stroke="none" />
<path d="M503.02083380149315,426.5087454148555 A73.55331357154998,73.55331357154998,0,0,0,459.117056,438.85529599999995" stroke="grey" stroke-width="5" fill="none" />
<circle cx="507.117056" cy="326.85529599999995" r="5" fill="black" stroke="none" />
<circle cx="459.117056" cy="438.85529599999995" r="5" fill="black" stroke="none" />
<path d="M395.117056,382.85529599999995 L450.9370369760358,445.20113507869087" stroke="grey" stroke-width="5" />
<circle cx="450.9370369760358" cy="445.20113507869087" r="2.5" fill="grey" stroke="none" />
<path d="M450.9370369760358,445.20113507869087 A73.55331357154998,73.55331357154998,0,0,1,459.117056,438.85529599999995" stroke="grey" stroke-width="5" fill="none" />
<circle cx="395.117056" cy="382.85529599999995" r="5" fill="black" stroke="none" />
<circle cx="459.117056" cy="438.85529599999995" r="5" fill="black" stroke="none" />
<path d="M459.117056,438.85529599999995 L476.13047731813856,464.3006408979817" stroke="grey" stroke-width="5" />
<circle cx="476.13047731813856" cy="464.3006408979817" r="2.5" fill="grey" stroke="none" />
<path d="M476.13047731813856,464.3006408979817 A42.944130604248514,42.944130604248514,0,0,0,459.117056,486.85529599999995" stroke="grey" stroke-width="5" fill="none" />
<circle cx="459.117056" cy="438.85529599999995" r="5" fill="black" stroke="none" />
<circle cx="459.117056" cy="486.85529599999995" r="5" fill="black" stroke="none" />
<path d="M555.1170559999999,318.85529599999995 A189.3443784466673,189.3443784466673,0,0,1,574.8127678515212,326.06224269656354" stroke="grey" stroke-width="5" fill="none" />
<path d="M574.8127678515212,326.06224269656354 L95.11705599999999,-221.14470400000005" stroke="grey" stroke-width="5" />
<circle cx="574.8127678515212" cy="326.06224269656354" r="2.5" fill="grey" stroke="none" />
<circle cx="555.117056" cy="318.85529599999995" r="5" fill="black" stroke="none" />
<circle cx="595.117056" cy="278.85529599999995" r="5" fill="black" stroke="none" />
<path d="M555.117056,318.85529599999995 L545.4293642068128,350.6943343971184" stroke="grey" stroke-width="5" />
<circle cx="545.4293642068128" cy="350.6943343971184" r="2.5" fill="grey" stroke="none" />
<path d="M545.4293642068128,350.6943343971184 A156.0641179559054,156.0641179559054,0,0,1,603.117056,382.85529599999995" stroke="grey" stroke-width="5" fill="none" />
<circle cx="555.117056" cy="318.85529599999995" r="5" fill="black" stroke="none" />
<circle cx="603.117056" cy="382.85529599999995" r="5" fill="black" stroke="none" />
<path d="M507.117056,326.85529599999995 L505.3170603891743,370.6458334410034" stroke="grey" stroke-width="5" />
<circle cx="505.3170603891743" cy="370.6458334410034" r="2.5" fill="grey" stroke="none" />
<path d="M505.31706038917423,370.6458334410034 A129.463398446645,129.463398446645,0,0,1,555.1170559999999,382.85529599999995" stroke="grey" stroke-width="5" fill="none" />
<circle cx="507.117056" cy="326.85529599999995" r="5" fill="black" stroke="none" />
<circle cx="555.117056" cy="382.85529599999995" r="5" fill="black" stroke="none" />
<path d="M459.117056,438.85529599999995 L465.78465056781016,448.8273786425993" stroke="grey" stroke-width="5" />
<circle cx="465.78465056781016" cy="448.8273786425993" r="2.5" fill="grey" stroke="none" />
<path d="M465.78465056781016,448.8273786425993 A61.55751224143774,61.55751224143774,0,0,1,507.117056,438.85529599999995" stroke="grey" stroke-width="5" fill="none" />
<circle cx="459.117056" cy="438.85529599999995" r="5" fill="black" stroke="none" />
<circle cx="507.117056" cy="438.85529599999995" r="5" fill="black" stroke="none" />
<path d="M459.117056,486.85529599999995 A42.944130604248514,42.944130604248514,0,0,1,541.7726264340255,490.0377696193018" stroke="grey" stroke-width="5" fill="none" />
<path d="M541.7726264340255,490.0377696193018 L55.11705599999999,-13.144704000000047" stroke="grey" stroke-width="5" />
<circle cx="541.7726264340255" cy="490.0377696193018" r="2.5" fill="grey" stroke="none" />
<circle cx="459.117056" cy="486.85529599999995" r="5" fill="black" stroke="none" />
<circle cx="555.117056" cy="486.85529599999995" r="5" fill="black" stroke="none" />
<path d="M459.117056,542.855296 A59.2282998688528,59.2282998688528,0,0,0,546.7575497486723,536.3555091678713" stroke="grey" stroke-width="5" fill="none" />
<path d="M546.7575497486723,536.3555091678713 L55.11705599999999,42.85529599999995" stroke="grey" stroke-width="5" />
<circle cx="546.7575497486723" cy="536.3555091678713" r="2.5" fill="grey" stroke="none" />
<circle cx="459.117056" cy="542.855296" r="5" fill="black" stroke="none" />
<circle cx="555.117056" cy="542.855296" r="5" fill="black" stroke="none" />
<path d="M603.117056,382.85529599999995 L585.5410243073613,402.82230349610984" stroke="grey" stroke-width="5" />
<circle cx="585.5410243073613" cy="402.82230349610984" r="2.5" fill="grey" stroke="none" />
<path d="M585.5410243073613,402.82230349610984 A129.463398446645,129.463398446645,0,0,0,555.1170559999999,382.85529599999995" stroke="grey" stroke-width="5" fill="none" />
<circle cx="603.117056" cy="382.85529599999995" r="5" fill="black" stroke="none" />
<circle cx="555.117056" cy="382.85529599999995" r="5" fill="black" stroke="none" />
<path d="M555.117056,382.85529599999995 L526.2071665825325,444.29980490994535" stroke="grey" stroke-width="5" />
<circle cx="526.2071665825325" cy="444.29980490994535" r="2.5" fill="grey" stroke="none" />
<path d="M526.2071665825325,444.29980490994535 A61.55751224143774,61.55751224143774,0,0,0,507.117056,438.85529599999995" stroke="grey" stroke-width="5" fill="none" />
<circle cx="555.117056" cy="382.85529599999995" r="5" fill="black" stroke="none" />
<circle cx="507.117056" cy="438.85529599999995" r="5" fill="black" stroke="none" />
<path d="M507.117056,438.85529599999995 L506.55114735291124,443.7171822514615" stroke="grey" stroke-width="5" />
<circle cx="506.55114735291124" cy="443.7171822514615" r="2.5" fill="grey" stroke="none" />
<path d="M506.55114735291124,443.7171822514615 A56.662801778192645,56.662801778192645,0,0,1,555.1170559999999,486.85529599999995" stroke="grey" stroke-width="5" fill="none" />
<circle cx="507.117056" cy="438.85529599999995" r="5" fill="black" stroke="none" />
<circle cx="555.117056" cy="486.85529599999995" r="5" fill="black" stroke="none" />
<path d="M555.1170559999999,486.85529599999995 A56.662801778192645,56.662801778192645,0,0,1,544.7322273121043,534.7807553835879" stroke="grey" stroke-width="5" fill="none" />
<path d="M544.7322273121043,534.7807553835879 L55.11705599999999,42.85529599999995" stroke="grey" stroke-width="5" />
<circle cx="544.7322273121043" cy="534.7807553835879" r="2.5" fill="grey" stroke="none" />
<circle cx="555.117056" cy="486.85529599999995" r="5" fill="black" stroke="none" />
<circle cx="555.117056" cy="542.855296" r="5" fill="black" stroke="none" />
<path d="M555.117056,542.855296 A69.81737790374791,69.81737790374791,0,0,1,550.2027229543587,548.5196132025252" stroke="grey" stroke-width="5" fill="none" />
<path d="M550.2027229543587,548.5196132025252 L127.11705599999999,122.85529599999995" stroke="grey" stroke-width="5" />
<circle cx="550.2027229543587" cy="548.5196132025252" r="2.5" fill="grey" stroke="none" />
<circle cx="555.117056" cy="542.855296" r="5" fill="black" stroke="none" />
<circle cx="627.117056" cy="622.855296" r="5" fill="black" stroke="none" />
<path d="M603.117056,382.85529599999995 L580.7488820673485,408.26635034935" stroke="grey" stroke-width="5" />
<circle cx="580.7488820673485" cy="408.26635034935" r="2.5" fill="grey" stroke="none" />
<path d="M580.7488820673485,408.26635034935 A122.21065597301553,122.21065597301553,0,0,0,579.117056,406.85529599999995" stroke="grey" stroke-width="5" fill="none" />
<circle cx="603.117056" cy="382.85529599999995" r="5" fill="black" stroke="none" />
<circle cx="579.117056" cy="406.85529599999995" r="5" fill="black" stroke="none" />
<path d="M579.117056,406.85529599999995 L553.2924685436334,437.25864612649326" stroke="grey" stroke-width="5" />
<circle cx="553.2924685436334" cy="437.25864612649326" r="2.5" fill="grey" stroke="none" />
<path d="M553.2924685436334,437.25864612649326 A82.31989242798339,82.31989242798339,0,0,1,555.117056,438.85529599999995" stroke="grey" stroke-width="5" fill="none" />
<circle cx="579.117056" cy="406.85529599999995" r="5" fill="black" stroke="none" />
<circle cx="555.117056" cy="438.85529599999995" r="5" fill="black" stroke="none" />
<path d="M555.117056,438.85529599999995 L537.9384220096952,457.91259997613264" stroke="grey" stroke-width="5" />
<circle cx="537.9384220096952" cy="457.91259997613264" r="2.5" fill="grey" stroke="none" />
<path d="M537.9384220096952,457.91259997613264 A56.662801778192645,56.662801778192645,0,0,1,555.1170559999999,486.85529599999995" stroke="grey" stroke-width="5" fill="none" />
<circle cx="555.117056" cy="438.85529599999995" r="5" fill="black" stroke="none" />
<circle cx="555.117056" cy="486.85529599999995" r="5" fill="black" stroke="none" />
<path d="M555.117056,382.85529599999995 L552.0293121444472,389.41792590509783" stroke="grey" stroke-width="5" />
<circle cx="552.0293121444472" cy="389.41792590509783" r="2.5" fill="grey" stroke="none" />
<path d="M552.0293121444471,389.4179259050978 A122.21065597301553,122.21065597301553,0,0,1,579.117056,406.85529599999995" stroke="grey" stroke-width="5" fill="none" />
<circle cx="555.117056" cy="382.85529599999995" r="5" fill="black" stroke="none" />
<circle cx="579.117056" cy="406.85529599999995" r="5" fill="black" stroke="none" />
<path d="M507.117056,438.85529599999995 A61.55751224143774,61.55751224143774,0,0,1,541.2156618450422,454.2769584123071" stroke="grey" stroke-width="5" fill="none" />
<path d="M541.2156618450422,454.2769584123071 L55.11705599999999,-61.14470400000005" stroke="grey" stroke-width="5" />
<circle cx="541.2156618450422" cy="454.2769584123071" r="2.5" fill="grey" stroke="none" />
<circle cx="507.117056" cy="438.85529599999995" r="5" fill="black" stroke="none" />
<circle cx="555.117056" cy="438.85529599999995" r="5" fill="black" stroke="none" />
<path d="M603.117056,382.85529599999995 L579.2105551126118,410.01394539092934" stroke="grey" stroke-width="5" />
<circle cx="579.2105551126118" cy="410.01394539092934" r="2.5" fill="grey" stroke="none" />
<path d="M579.2105551126118,410.01394539092934 A119.88245103164498,119.88245103164498,0,0,1,603.1170559999999,438.85529599999995" stroke="grey" stroke-width="5" fill="none" />
<circle cx="603.117056" cy="382.85529599999995" r="5" fill="black" stroke="none" />
<circle cx="603.117056" cy="438.85529599999995" r="5" fill="black" stroke="none" />
<path d="M579.117056,406.85529599999995 L577.6098165595492,408.62977268853996" stroke="grey" stroke-width="5" />
<circle cx="577.6098165595492" cy="408.62977268853996" r="2.5" fill="grey" stroke="none" />
<path d="M577.6098165595492,408.62977268853996 A119.88245103164498,119.88245103164498,0,0,1,603.1170559999999,438.85529599999995" stroke="grey" stroke-width="5" fill="none" />
<circle cx="579.117056" cy="406.85529599999995" r="5" fill="black" stroke="none" />
<circle cx="603.117056" cy="438.85529599999995" r="5" fill="black" stroke="none" />
<path d="M555.117056,438.85529599999995 A82.31989242798339,82.31989242798339,0,0,1,570.8075692844287,458.01365910935345" stroke="grey" stroke-width="5" fill="none" />
<path d="M570.8075692844287,458.01365910935345 L103.11705599999999,-61.14470400000005" stroke="grey" stroke-width="5" />
<circle cx="570.8075692844287" cy="458.01365910935345" r="2.5" fill="grey" stroke="none" />
<circle cx="555.117056" cy="438.85529599999995" r="5" fill="black" stroke="none" />
<circle cx="603.117056" cy="438.85529599999995" r="5" fill="black" stroke="none" />
<path d="M555.1170559999999,486.85529599999995 A56.662801778192645,56.662801778192645,0,0,0,548.7385872894479,471.0997713783503" stroke="grey" stroke-width="5" fill="none" />
<path d="M548.7385872894479,471.0997713783503 L103.11705599999999,-61.14470400000005" stroke="grey" stroke-width="5" />
<circle cx="548.7385872894479" cy="471.0997713783503" r="2.5" fill="grey" stroke="none" />
<circle cx="555.117056" cy="486.85529599999995" r="5" fill="black" stroke="none" />
<circle cx="603.117056" cy="438.85529599999995" r="5" fill="black" stroke="none" />
<path d="M603.117056,438.85529599999995 L589.1863949569146,447.115676765756" stroke="grey" stroke-width="5" />
<circle cx="589.1863949569146" cy="447.115676765756" r="2.5" fill="grey" stroke="none" />
<path d="M589.1863949569146,447.115676765756 A103.68685880744363,103.68685880744363,0,0,1,603.117056,510.85529599999995" stroke="grey" stroke-width="5" fill="none" />
<circle cx="603.117056" cy="438.85529599999995" r="5" fill="black" stroke="none" />
<circle cx="603.117056" cy="510.85529599999995" r="5" fill="black" stroke="none" />
<path d="M603.117056,510.85529599999995 L569.4337021091924,507.3093959235134" stroke="grey" stroke-width="5" />
<circle cx="569.4337021091924" cy="507.3093959235134" r="2.5" fill="grey" stroke="none" />
<path d="M569.4337021091924,507.3093959235134 A69.81737790374791,69.81737790374791,0,0,1,555.117056,542.855296" stroke="grey" stroke-width="5" fill="none" />
<circle cx="603.117056" cy="510.85529599999995" r="5" fill="black" stroke="none" />
<circle cx="555.117056" cy="542.855296" r="5" fill="black" stroke="none" />
<path d="M603.117056,382.85529599999995 A156.0641179559054,156.0641179559054,0,0,1,606.6821547275548,386.0924639190154" stroke="grey" stroke-width="5" fill="none" />
<path d="M606.6821547275548,386.09246391901536 L207.117056,-221.14470400000005" stroke="grey" stroke-width="5" />
<circle cx="606.6821547275548" cy="386.09246391901536" r="2.5" fill="grey" stroke="none" />
<circle cx="603.117056" cy="382.85529599999995" r="5" fill="black" stroke="none" />
<circle cx="707.117056" cy="278.85529599999995" r="5" fill="black" stroke="none" />
<path d="M603.117056,382.85529599999995 A156.0641179559054,156.0641179559054,0,0,1,644.7506853704002,441.6626363455276" stroke="grey" stroke-width="5" fill="none" />
<path d="M644.7506853704002,441.6626363455276 L231.117056,-93.14470400000005" stroke="grey" stroke-width="5" />
<circle cx="644.7506853704002" cy="441.6626363455276" r="2.5" fill="grey" stroke="none" />
<circle cx="603.117056" cy="382.85529599999995" r="5" fill="black" stroke="none" />
<circle cx="731.117056" cy="406.85529599999995" r="5" fill="black" stroke="none" />
<path d="M731.117056,406.85529599999995 A249.18071646368375,249.18071646368375,0,0,1,739.1996016565599,430.1818073515375" stroke="grey" stroke-width="5" fill="none" />
<path d="M739.1996016565599,430.1818073515375 L319.117056,-93.14470400000005" stroke="grey" stroke-width="5" />
<circle cx="739.1996016565599" cy="430.1818073515375" r="2.5" fill="grey" stroke="none" />
<circle cx="731.117056" cy="406.85529599999995" r="5" fill="black" stroke="none" />
<circle cx="819.117056" cy="406.85529599999995" r="5" fill="black" stroke="none" />
<path d="M603.1170559999999,438.85529599999995 A119.88245103164498,119.88245103164498,0,0,1,616.1250011900227,529.778955051714" stroke="grey" stroke-width="5" fill="none" />
<path d="M616.1250011900227,529.778955051714 L167.117056,42.85529599999995" stroke="grey" stroke-width="5" />
<circle cx="616.1250011900227" cy="529.778955051714" r="2.5" fill="grey" stroke="none" />
<circle cx="603.117056" cy="438.85529599999995" r="5" fill="black" stroke="none" />
<circle cx="667.117056" cy="542.855296" r="5" fill="black" stroke="none" />
<circle cx="500" cy="500" r="5" fill="red" stroke="none" />
</svg>