<?xml version="1.0" encoding="UTF-8"?>
<svg xmlns="http://www.w3.org/2000/svg" xmlns:xlink="http://www.w3.org/1999/xlink"
     width="1000" height="1000" viewBox="0 0 1000 1000">
<defs>
</defs>
<rect x="0" y="0" width="1000" height="1000" fill="white" />
<path d="M250.73830399999997,702.570064 L361.75928623805305,612.3455014691197" stroke="grey" stroke-width="5" />
<circle cx="361.75928623805305" cy="612.3455014691197" r="2.5" fill="grey" stroke="none" />
<path d="M361.75928623805305,612.3455014691197 A178.13479907575757,178.13479907575757,0,0,0,370.73830399999997,622.570064" stroke="grey" stroke-width="5" fill="none" />
<circle cx="250.73830399999997" cy="702.570064" r="5" fill="black" stroke="none" />
<circle cx="370.73830399999997" cy="622.570064" r="5" fill="black" stroke="none" />
<path d="M370.73830399999997,622.570064 L394.494472989184,600.0437066682882" stroke="grey" stroke-width="5" />
<circle cx="394.494472989184" cy="600.0437066682882" r="2.5" fill="grey" stroke="none" />
<path d="M394.49447298918403,600.0437066682882 A145.3965593601187,145.3965593601187,0,0,1,370.73830399999997,566.570064" stroke="grey" stroke-width="5" fill="none" />
<circle cx="370.73830399999997" cy="622.570064" r="5" fill="black" stroke="none" />
<circle cx="370.73830399999997" cy="566.570064" r="5" fill="black" stroke="none" />
<path d="M370.73830399999997,566.570064 A145.3965593601187,145.3965593601187,0,0,1,360.18567828304674,539.9013147225602" stroke="grey" stroke-width="5" fill="none" />
<path d="M360.18567828304674,539.9013147225602 L266.73830399999997,566.570064" stroke="grey" stroke-width="5" />
<circle cx="360.18567828304674" cy="539.9013147225602" r="2.5" fill="grey" stroke="none" />
<circle cx="370.73830399999997" cy="566.570064" r="5" fill="black" stroke="none" />
<circle cx="266.73830399999997" cy="566.570064" r="5" fill="black" stroke="none" />
<path d="M266.73830399999997,566.570064 L310.7048642414585,554.0225399987437" stroke="grey" stroke-width="5" />
<circle cx="310.7048642414585" cy="554.0225399987437" r="2.5" fill="grey" stroke="none" />
<path d="M310.7048642414585,554.0225399987437 A196.8529482882096,196.8529482882096,0,0,1,306.73830399999997,462.570064" stroke="grey" stroke-width="5" fill="none" />
<circle cx="266.73830399999997" cy="566.570064" r="5" fill="black" stroke="none" />
<circle cx="306.73830399999997" cy="462.570064" r="5" fill="black" stroke="none" />
<path d="M306.73830399999997,462.570064 L353.27374011209827,471.58280905739576" stroke="grey" stroke-width="5" />
<circle cx="353.27374011209827" cy="471.58280905739576" r="2.5" fill="grey" stroke="none" />
<path d="M353.27374011209827,471.58280905739576 A149.45277542341097,149.45277542341097,0,0,1,418.73830399999997,374.570064" stroke="grey" stroke-width="5" fill="none" />
<circle cx="306.73830399999997" cy="462.570064" r="5" fill="black" stroke="none" />
<circle cx="418.73830399999997" cy="374.570064" r="5" fill="black" stroke="none" />
<path d="M418.73830399999997,374.570064 L441.9600404488812,410.41353097110584" stroke="grey" stroke-width="5" />
<circle cx="441.9600404488812" cy="410.41353097110584" r="2.5" fill="grey" stroke="none" />
<path d="M441.9600404488812,410.41353097110584 A106.7444253240445,106.7444253240445,0,0,1,466.73830399999997,398.570064" stroke="grey" stroke-width="5" fill="none" />
<circle cx="418.73830399999997" cy="374.570064" r="5" fill="black" stroke="none" />
<circle cx="466.73830399999997" cy="398.570064" r="5" fill="black" stroke="none" />
<path d="M466.73830399999997,398.570064 A106.7444253240445,106.7444253240445,0,0,0,429.9476105225322,419.4578677569455" stroke="grey" stroke-width="5" fill="none" />
<path d="M429.9476105225322,419.4578677569456 L418.73830399999997,406.570064" stroke="grey" stroke-width="5" />
<circle cx="429.9476105225322" cy="419.4578677569456" r="2.5" fill="grey" stroke="none" />
<circle cx="466.73830399999997" cy="398.570064" r="5" fill="black" stroke="none" />
<circle cx="418.73830399999997" cy="406.570064" r="5" fill="black" stroke="none" />
<path d="M418.73830399999997,374.570064 L432.67288119540393,396.07851400584997" stroke="grey" stroke-width="5" />
<circle cx="432.67288119540393" cy="396.07851400584997" r="2.5" fill="grey" stroke="none" />
<path d="M432.67288119540393,396.07851400584997 A123.82494166265742,123.82494166265742,0,0,0,418.738304,406.57006399999995" stroke="grey" stroke-width="5" fill="none" />
<circle cx="418.73830399999997" cy="374.570064" r="5" fill="black" stroke="none" />
<circle cx="418.73830399999997" cy="406.570064" r="5" fill="black" stroke="none" />
<path d="M418.738304,406.57006399999995 A123.82494166265742,123.82494166265742,0,0,0,377.4334199976151,517.6082266080232" stroke="grey" stroke-width="5" fill="none" />
<path d="M377.4334199976151,517.6082266080232 L370.73830399999997,518.570064" stroke="grey" stroke-width="5" />
<circle cx="377.4334199976151" cy="517.6082266080232" r="2.5" fill="grey" stroke="none" />
<circle cx="418.73830399999997" cy="406.570064" r="5" fill="black" stroke="none" />
<circle cx="370.73830399999997" cy="518.570064" r="5" fill="black" stroke="none" />
<path d="M306.73830399999997,462.570064 L371.793578999375,475.1696366524567" stroke="grey" stroke-width="5" />
<circle cx="371.793578999375" cy="475.1696366524567" r="2.5" fill="grey" stroke="none" />
<path d="M371.793578999375,475.1696366524567 A130.58879480935767,130.58879480935767,0,0,0,370.73830399999997,518.570064" stroke="grey" stroke-width="5" fill="none" />
<circle cx="306.73830399999997" cy="462.570064" r="5" fill="black" stroke="none" />
<circle cx="370.73830399999997" cy="518.570064" r="5" fill="black" stroke="none" />
<path d="M370.73830399999997,518.570064 A130.58879480935767,130.58879480935767,0,0,0,383.90282981975656,559.790303611038" stroke="grey" stroke-width="5" fill="none" />
<path d="M383.90282981975656,559.790303611038 L370.73830399999997,566.570064" stroke="grey" stroke-width="5" />
<circle cx="383.90282981975656" cy="559.790303611038" r="2.5" fill="grey" stroke="none" />
<circle cx="370.73830399999997" cy="518.570064" r="5" fill="black" stroke="none" />
<circle cx="370.73830399999997" cy="566.570064" r="5" fill="black" stroke="none" />
<path d="M466.73830399999997,398.570064 A106.7444253240445,106.7444253240445,0,0,1,505.0799811608559,393.3765216794825" stroke="grey" stroke-width="5" fill="none" />
<path d="M505.0799811608559,393.3765216794825 L506.73830399999997,358.570064" stroke="grey" stroke-width="5" />
<circle cx="505.0799811608559" cy="393.3765216794825" r="2.5" fill="grey" stroke="none" />
<circle cx="466.73830399999997" cy="398.570064" r="5" fill="black" stroke="none" />
<circle cx="506.73830399999997" cy="358.570064" r="5" fill="black" stroke="none" />
<path d="M466.73830399999997,398.570064 L487.4651926987061,461.7757103443381" stroke="grey" stroke-width="5" />
<circle cx="487.4651926987061" cy="461.7757103443381" r="2.5" fill="grey" stroke="none" />
<path d="M487.4651926987061,461.7757103443381 A40.22707687317724,40.22707687317724,0,0,1,514.738304,462.570064" stroke="grey" stroke-width="5" fill="none" />
<circle cx="466.73830399999997" cy="398.570064" r="5" fill="black" stroke="none" />
<circle cx="514.738304" cy="462.570064" r="5" fill="black" stroke="none" />
<path d="M418.73830399999997,406.570064 L467.13872494423435,462.21803166231507" stroke="grey" stroke-width="5" />
<circle cx="467.13872494423435" cy="462.21803166231507" r="2.5" fill="grey" stroke="none" />
<path d="M467.13872494423435,462.218031662315 A50.07335149318961,50.07335149318961,0,0,0,466.73830399999997,462.570064" stroke="grey" stroke-width="5" fill="none" />
<circle cx="418.73830399999997" cy="406.570064" r="5" fill="black" stroke="none" />
<circle cx="466.73830399999997" cy="462.570064" r="5" fill="black" stroke="none" />
<path d="M370.73830399999997,518.570064 L417.4905779122023,511.8535134242198" stroke="grey" stroke-width="5" />
<circle cx="417.4905779122023" cy="511.8535134242198" r="2.5" fill="grey" stroke="none" />
<path d="M417.4905779122023,511.8535134242198 A83.35652652168585,83.35652652168585,0,0,0,418.73830399999997,518.570064" stroke="grey" stroke-width="5" fill="none" />
<circle cx="370.73830399999997" cy="518.570064" r="5" fill="black" stroke="none" />
<circle cx="418.73830399999997" cy="518.570064" r="5" fill="black" stroke="none" />
<path d="M370.73830399999997,566.570064 L433.84101744625843,534.0720247301834" stroke="grey" stroke-width="5" />
<circle cx="433.84101744625843" cy="534.0720247301834" r="2.5" fill="grey" stroke="none" />
<path d="M433.84101744625843,534.0720247301834 A74.41716093590587,74.41716093590587,0,0,0,466.73830399999997,566.570064" stroke="grey" stroke-width="5" fill="none" />
<circle cx="370.73830399999997" cy="566.570064" r="5" fill="black" stroke="none" />
<circle cx="466.73830399999997" cy="566.570064" r="5" fill="black" stroke="none" />
<path d="M370.73830399999997,622.570064 L407.8415741687786,587.3875595154813" stroke="grey" stroke-width="5" />
<circle cx="407.8415741687786" cy="587.3875595154813" r="2.5" fill="grey" stroke="none" />
<path d="M407.84157416877866,587.3875595154814 A127.00299606607913,127.00299606607913,0,0,0,466.73830399999997,622.570064" stroke="grey" stroke-width="5" fill="none" />
<circle cx="370.73830399999997" cy="622.570064" r="5" fill="black" stroke="none" />
<circle cx="466.73830399999997" cy="622.570064" r="5" fill="black" stroke="none" />
<path d="M514.738304,462.570064 A40.22707687317724,40.22707687317724,0,0,0,473.27878478223624,469.9301750745625" stroke="grey" stroke-width="5" fill="none" />
<path d="M473.27878478223624,469.93017507456256 L466.73830399999997,462.570064" stroke="grey" stroke-width="5" />
<circle cx="473.27878478223624" cy="469.93017507456256" r="2.5" fill="grey" stroke="none" />
<circle cx="514.738304" cy="462.570064" r="5" fill="black" stroke="none" />
<circle cx="466.73830399999997" cy="462.570064" r="5" fill="black" stroke="none" />
<path d="M466.73830399999997,462.570064 A50.07335149318961,50.07335149318961,0,0,0,451.1850404937143,511.1552793851255" stroke="grey" stroke-width="5" fill="none" />
<path d="M451.1850404937143,511.1552793851255 L418.73830399999997,518.570064" stroke="grey" stroke-width="5" />
<circle cx="451.1850404937143" cy="511.1552793851255" r="2.5" fill="grey" stroke="none" />
<circle cx="466.73830399999997" cy="462.570064" r="5" fill="black" stroke="none" />
<circle cx="418.73830399999997" cy="518.570064" r="5" fill="black" stroke="none" />
<path d="M418.73830399999997,518.570064 L427.45301464087015,516.5785631784759" stroke="grey" stroke-width="5" />
<circle cx="427.45301464087015" cy="516.5785631784759" r="2.5" fill="grey" stroke="none" />
<path d="M427.45301464087015,516.5785631784759 A74.41716093590587,74.41716093590587,0,0,0,466.73830399999997,566.570064" stroke="grey" stroke-width="5" fill="none" />
<circle cx="418.73830399999997" cy="518.570064" r="5" fill="black" stroke="none" />
<circle cx="466.73830399999997" cy="566.570064" r="5" fill="black" stroke="none" />
<path d="M466.73830399999997,566.570064 A74.41716093590587,74.41716093590587,0,0,0,480.51037329115195,571.8196929296573" stroke="grey" stroke-width="5" fill="none" />
<path d="M480.51037329115195,571.8196929296573 L466.73830399999997,622.570064" stroke="grey" stroke-width="5" />
<circle cx="480.51037329115195" cy="571.8196929296573" r="2.5" fill="grey" stroke="none" />
<circle cx="466.73830399999997" cy="566.570064" r="5" fill="black" stroke="none" />
<circle cx="466.73830399999997" cy="622.570064" r="5" fill="black" stroke="none" />
<path d="M466.73830399999997,622.570064 A127.00299606607913,127.00299606607913,0,0,0,523.8550255147452,624.7425299064091" stroke="grey" stroke-width="5" fill="none" />
<path d="M523.8550255147452,624.7425299064091 L538.738304,702.570064" stroke="grey" stroke-width="5" />
<circle cx="523.8550255147452" cy="624.7425299064091" r="2.5" fill="grey" stroke="none" />
<circle cx="466.73830399999997" cy="622.570064" r="5" fill="black" stroke="none" />
<circle cx="538.738304" cy="702.570064" r="5" fill="black" stroke="none" />
<path d="M514.738304,462.570064 L505.97703640466665,484.82049969275005" stroke="grey" stroke-width="5" />
<circle cx="505.97703640466665" cy="484.82049969275005" r="2.5" fill="grey" stroke="none" />
<path d="M505.97703640466665,484.82049969275005 A16.313865077305024,16.313865077305024,0,0,0,490.73830399999997,486.570064" stroke="grey" stroke-width="5" fill="none" />
<circle cx="514.738304" cy="462.570064" r="5" fill="black" stroke="none" />
<circle cx="490.73830399999997" cy="486.570064" r="5" fill="black" stroke="none" />
<path d="M490.73830399999997,486.570064 A16.313865077305024,16.313865077305024,0,0,0,485.7557541080522,507.9525878008508" stroke="grey" stroke-width="5" fill="none" />
<path d="M485.7557541080522,507.9525878008508 L466.73830399999997,518.570064" stroke="grey" stroke-width="5" />
<circle cx="485.7557541080522" cy="507.9525878008508" r="2.5" fill="grey" stroke="none" />
<circle cx="490.73830399999997" cy="486.570064" r="5" fill="black" stroke="none" />
<circle cx="466.73830399999997" cy="518.570064" r="5" fill="black" stroke="none" />
<path d="M466.73830399999997,518.570064 A38.09445757272984,38.09445757272984,0,0,0,482.9731979675984,534.0774956578373" stroke="grey" stroke-width="5" fill="none" />
<path d="M482.9731979675984,534.0774956578373 L466.73830399999997,566.570064" stroke="grey" stroke-width="5" />
<circle cx="482.9731979675984" cy="534.0774956578373" r="2.5" fill="grey" stroke="none" />
<circle cx="466.73830399999997" cy="518.570064" r="5" fill="black" stroke="none" />
<circle cx="466.73830399999997" cy="566.570064" r="5" fill="black" stroke="none" />
<path d="M466.73830399999997,462.570064 L489.1633612569325,487.8053513985535" stroke="grey" stroke-width="5" />
<circle cx="489.1633612569325" cy="487.8053513985535" r="2.5" fill="grey" stroke="none" />
<path d="M489.1633612569325,487.8053513985535 A16.313865077305024,16.313865077305024,0,0,1,490.73830399999997,486.570064" stroke="grey" stroke-width="5" fill="none" />
<circle cx="466.73830399999997" cy="462.570064" r="5" fill="black" stroke="none" />
<circle cx="490.73830399999997" cy="486.570064" r="5" fill="black" stroke="none" />
<path d="M418.73830399999997,518.570064 L462.8628931682425,508.4866361962292" stroke="grey" stroke-width="5" />
<circle cx="462.8628931682425" cy="508.4866361962292" r="2.5" fill="grey" stroke="none" />
<path d="M462.8628931682425,508.4866361962292 A38.09445757272984,38.09445757272984,0,0,0,466.73830399999997,518.570064" stroke="grey" stroke-width="5" fill="none" />
<circle cx="418.73830399999997" cy="518.570064" r="5" fill="black" stroke="none" />
<circle cx="466.73830399999997" cy="518.570064" r="5" fill="black" stroke="none" />
<path d="M514.738304,462.570064 L508.6860487079505,477.94059294533" stroke="grey" stroke-width="5" />
<circle cx="508.6860487079505" cy="477.94059294533" r="2.5" fill="grey" stroke="none" />
<path d="M508.6860487079505,477.94059294533 A23.707907578706966,23.707907578706966,0,0,1,514.738304,518.570064" stroke="grey" stroke-width="5" fill="none" />
<circle cx="514.738304" cy="462.570064" r="5" fill="black" stroke="none" />
<circle cx="514.738304" cy="518.570064" r="5" fill="black" stroke="none" />
<path d="M490.73830399999997,486.570064 A16.313865077305024,16.313865077305024,0,0,1,510.1417091375981,512.7784165501391" stroke="grey" stroke-width="5" fill="none" />
<path d="M510.1417091375981,512.7784165501391 L514.738304,518.570064" stroke="grey" stroke-width="5" />
<circle cx="510.1417091375981" cy="512.7784165501391" r="2.5" fill="grey" stroke="none" />
<circle cx="490.73830399999997" cy="486.570064" r="5" fill="black" stroke="none" />
<circle cx="514.738304" cy="518.570064" r="5" fill="black" stroke="none" />
<path d="M466.73830399999997,518.570064 L479.2997389929094,511.5569925153058" stroke="grey" stroke-width="5" />
<circle cx="479.2997389929094" cy="511.5569925153058" r="2.5" fill="grey" stroke="none" />
<path d="M479.2997389929094,511.5569925153058 A23.707907578706966,23.707907578706966,0,0,0,514.738304,518.570064" stroke="grey" stroke-width="5" fill="none" />
<circle cx="466.73830399999997" cy="518.570064" r="5" fill="black" stroke="none" />
<circle cx="514.738304" cy="518.570064" r="5" fill="black" stroke="none" />
<path d="M466.73830399999997,566.570064 L489.40344935547563,521.2079701102803" stroke="grey" stroke-width="5" />
<circle cx="489.40344935547563" cy="521.2079701102803" r="2.5" fill="grey" stroke="none" />
<path d="M489.40344935547563,521.2079701102803 A23.707907578706966,23.707907578706966,0,0,0,514.738304,518.570064" stroke="grey" stroke-width="5" fill="none" />
<circle cx="466.73830399999997" cy="566.570064" r="5" fill="black" stroke="none" />
<circle cx="514.738304" cy="518.570064" r="5" fill="black" stroke="none" />
<path d="M514.738304,518.570064 A23.707907578706966,23.707907578706966,0,0,1,503.80785774918934,523.4001089980891" stroke="grey" stroke-width="5" fill="none" />
<path d="M503.80785774918934,523.4001089980891 L514.738304,590.570064" stroke="grey" stroke-width="5" />
<circle cx="503.80785774918934" cy="523.4001089980891" r="2.5" fill="grey" stroke="none" />
<circle cx="514.738304" cy="518.570064" r="5" fill="black" stroke="none" />
<circle cx="514.738304" cy="590.570064" r="5" fill="black" stroke="none" />
<path d="M514.738304,590.570064 A91.76139764498201,91.76139764498201,0,0,1,475.96797077594533,588.5585437387872" stroke="grey" stroke-width="5" fill="none" />
<path d="M475.96797077594533,588.5585437387872 L466.73830399999997,622.570064" stroke="grey" stroke-width="5" />
<circle cx="475.96797077594533" cy="588.5585437387872" r="2.5" fill="grey" stroke="none" />
<circle cx="514.738304" cy="590.570064" r="5" fill="black" stroke="none" />
<circle cx="466.73830399999997" cy="622.570064" r="5" fill="black" stroke="none" />
<path d="M514.738304,462.570064 A40.22707687317724,40.22707687317724,0,0,1,525.8657104621866,469.19119060971616" stroke="grey" stroke-width="5" fill="none" />
<path d="M525.8657104621866,469.19119060971616 L618.738304,358.570064" stroke="grey" stroke-width="5" />
<circle cx="525.8657104621866" cy="469.19119060971616" r="2.5" fill="grey" stroke="none" />
<circle cx="514.738304" cy="462.570064" r="5" fill="black" stroke="none" />
<circle cx="618.738304" cy="358.570064" r="5" fill="black" stroke="none" />
<path d="M514.738304,462.570064 A40.22707687317724,40.22707687317724,0,0,1,540.0501949361791,496.23176442687446" stroke="grey" stroke-width="5" fill="none" />
<path d="M540.0501949361791,496.23176442687446 L642.738304,486.570064" stroke="grey" stroke-width="5" />
<circle cx="540.0501949361791" cy="496.23176442687446" r="2.5" fill="grey" stroke="none" />
<circle cx="514.738304" cy="462.570064" r="5" fill="black" stroke="none" />
<circle cx="642.738304" cy="486.570064" r="5" fill="black" stroke="none" />
<path d="M642.738304,486.570064 A143.36870861439922,143.36870861439922,0,0,1,643.1264768304054,491.66943940206033" stroke="grey" stroke-width="5" fill="none" />
<path d="M643.1264768304054,491.66943940206033 L730.738304,486.570064" stroke="grey" stroke-width="5" />
<circle cx="643.1264768304054" cy="491.66943940206033" r="2.5" fill="grey" stroke="none" />
<circle cx="642.738304" cy="486.570064" r="5" fill="black" stroke="none" />
<circle cx="730.738304" cy="486.570064" r="5" fill="black" stroke="none" />
<path d="M514.738304,518.570064 A23.707907578706966,23.707907578706966,0,0,1,512.8136970160238,519.9467804555536" stroke="grey" stroke-width="5" fill="none" />
<path d="M512.8136970160238,519.9467804555536 L578.738304,622.570064" stroke="grey" stroke-width="5" />
<circle cx="512.8136970160238" cy="519.9467804555536" r="2.5" fill="grey" stroke="none" />
<circle cx="514.738304" cy="518.570064" r="5" fill="black" stroke="none" />
<circle cx="578.738304" cy="622.570064" r="5" fill="black" stroke="none" />
<circle cx="500" cy="500" r="5" fill="red" stroke="none" />
</svg>