<?xml version="1.0" encoding="UTF-8"?>
<svg xmlns="http://www.w3.org/2000/svg" xmlns:xlink="http://www.w3.org/1999/xlink"
     width="1000" height="1000" viewBox="0 0 1000 1000">
<defs>
</defs>
<rect x="0" y="0" width="1000" height="1000" fill="white" />
<path d="M267.128168,680.258938 L380.61735634553384,592.4104404382687" stroke="grey" stroke-width="5" />
<circle cx="380.61735634553384" cy="592.4104404382687" r="2.5" fill="grey" stroke="none" />
<path d="M380.61735634553384,592.4104404382687 A150.96988145959466,150.96988145959466,0,0,0,387.1281680000001,600.2589380000001" stroke="grey" stroke-width="5" fill="none" />
<circle cx="267.128168" cy="680.258938" r="5" fill="black" stroke="none" />
<circle cx="387.128168" cy="600.258938" r="5" fill="black" stroke="none" />
<path d="M387.128168,600.258938 L409.3562764650296,580.5147156465197" stroke="grey" stroke-width="5" />
<circle cx="409.3562764650296" cy="580.5147156465197" r="2.5" fill="grey" stroke="none" />
<path d="M409.3562764650296,580.5147156465197 A121.2390368318887,121.2390368318887,0,0,1,387.128168,544.258938" stroke="grey" stroke-width="5" fill="none" />
<circle cx="387.128168" cy="600.258938" r="5" fill="black" stroke="none" />
<circle cx="387.128168" cy="544.258938" r="5" fill="black" stroke="none" />
<path d="M387.128168,544.258938 A121.2390368318887,121.2390368318887,0,0,1,381.20943314270005,524.2426334717461" stroke="grey" stroke-width="5" fill="none" />
<path d="M381.20943314270005,524.2426334717461 L283.128168,544.258938" stroke="grey" stroke-width="5" />
<circle cx="381.20943314270005" cy="524.2426334717461" r="2.5" fill="grey" stroke="none" />
<circle cx="387.128168" cy="544.258938" r="5" fill="black" stroke="none" />
<circle cx="283.128168" cy="544.258938" r="5" fill="black" stroke="none" />
<path d="M283.128168,544.258938 L317.0816336739141,537.329756287979" stroke="grey" stroke-width="5" />
<circle cx="317.0816336739141" cy="537.329756287979" r="2.5" fill="grey" stroke="none" />
<path d="M317.0816336739141,537.329756287979 A186.68861626763444,186.68861626763444,0,0,1,323.1281680000001,440.2589379999999" stroke="grey" stroke-width="5" fill="none" />
<circle cx="283.128168" cy="544.258938" r="5" fill="black" stroke="none" />
<circle cx="323.128168" cy="440.258938" r="5" fill="black" stroke="none" />
<path d="M323.128168,440.258938 L347.12865010096425,448.36545373521096" stroke="grey" stroke-width="5" />
<circle cx="347.12865010096425" cy="448.36545373521096" r="2.5" fill="grey" stroke="none" />
<path d="M347.12865010096425,448.3654537352109 A161.35605345918717,161.35605345918717,0,0,1,435.128168,352.258938" stroke="grey" stroke-width="5" fill="none" />
<circle cx="323.128168" cy="440.258938" r="5" fill="black" stroke="none" />
<circle cx="435.128168" cy="352.258938" r="5" fill="black" stroke="none" />
<path d="M435.128168,352.258938 L449.79064970943347,385.65171499614326" stroke="grey" stroke-width="5" />
<circle cx="449.79064970943347" cy="385.65171499614326" r="2.5" fill="grey" stroke="none" />
<path d="M449.79064970943347,385.65171499614326 A124.8859845616155,124.8859845616155,0,0,1,483.128168,376.258938" stroke="grey" stroke-width="5" fill="none" />
<circle cx="435.128168" cy="352.258938" r="5" fill="black" stroke="none" />
<circle cx="483.128168" cy="376.258938" r="5" fill="black" stroke="none" />
<path d="M483.128168,376.258938 A124.8859845616155,124.8859845616155,0,0,0,438.93956527423757,391.05904144434487" stroke="grey" stroke-width="5" fill="none" />
<path d="M438.93956527423757,391.05904144434487 L435.128168,384.258938" stroke="grey" stroke-width="5" />
<circle cx="438.93956527423757" cy="391.05904144434487" r="2.5" fill="grey" stroke="none" />
<circle cx="483.128168" cy="376.258938" r="5" fill="black" stroke="none" />
<circle cx="435.128168" cy="384.258938" r="5" fill="black" stroke="none" />
<path d="M435.128168,352.258938 L446.65657800329205,378.51408579754934" stroke="grey" stroke-width="5" />
<circle cx="446.65657800329205" cy="378.51408579754934" r="2.5" fill="grey" stroke="none" />
<path d="M446.65657800329205,378.51408579754934 A132.68137781890897,132.68137781890897,0,0,0,435.128168,384.25893799999994" stroke="grey" stroke-width="5" fill="none" />
<circle cx="435.128168" cy="352.258938" r="5" fill="black" stroke="none" />
<circle cx="435.128168" cy="384.258938" r="5" fill="black" stroke="none" />
<path d="M435.128168,384.258938 L444.78333409316707,401.48520004559083" stroke="grey" stroke-width="5" />
<circle cx="444.78333409316707" cy="401.48520004559083" r="2.5" fill="grey" stroke="none" />
<path d="M444.78333409316707,401.48520004559083 A112.93381249176025,112.93381249176025,0,0,0,387.128168,496.258938" stroke="grey" stroke-width="5" fill="none" />
<circle cx="435.128168" cy="384.258938" r="5" fill="black" stroke="none" />
<circle cx="387.128168" cy="496.258938" r="5" fill="black" stroke="none" />
<path d="M323.128168,440.258938 L393.0046688999693,463.86075365037516" stroke="grey" stroke-width="5" />
<circle cx="393.0046688999693" cy="463.86075365037516" r="2.5" fill="grey" stroke="none" />
<path d="M393.0046688999694,463.8607536503751 A112.93381249176025,112.93381249176025,0,0,0,387.128168,496.258938" stroke="grey" stroke-width="5" fill="none" />
<circle cx="323.128168" cy="440.258938" r="5" fill="black" stroke="none" />
<circle cx="387.128168" cy="496.258938" r="5" fill="black" stroke="none" />
<path d="M387.128168,496.258938 A112.93381249176025,112.93381249176025,0,0,0,394.8602146323164,541.2270728619131" stroke="grey" stroke-width="5" fill="none" />
<path d="M394.8602146323164,541.2270728619131 L387.128168,544.258938" stroke="grey" stroke-width="5" />
<circle cx="394.8602146323164" cy="541.2270728619131" r="2.5" fill="grey" stroke="none" />
<circle cx="387.128168" cy="496.258938" r="5" fill="black" stroke="none" />
<circle cx="387.128168" cy="544.258938" r="5" fill="black" stroke="none" />
<path d="M483.128168,376.258938 A124.8859845616155,124.8859845616155,0,0,1,517.4665709818223,376.341486188532" stroke="grey" stroke-width="5" fill="none" />
<path d="M517.4665709818222,376.341486188532 L523.128168,336.258938" stroke="grey" stroke-width="5" />
<circle cx="517.4665709818222" cy="376.341486188532" r="2.5" fill="grey" stroke="none" />
<circle cx="483.128168" cy="376.258938" r="5" fill="black" stroke="none" />
<circle cx="523.128168" cy="336.258938" r="5" fill="black" stroke="none" />
<path d="M483.128168,376.258938 L490.89921731019206,433.25321665910064" stroke="grey" stroke-width="5" />
<circle cx="490.89921731019206" cy="433.25321665910064" r="2.5" fill="grey" stroke="none" />
<path d="M490.89921731019206,433.25321665910064 A67.36436247693634,67.36436247693634,0,0,1,531.128168,440.258938" stroke="grey" stroke-width="5" fill="none" />
<circle cx="483.128168" cy="376.258938" r="5" fill="black" stroke="none" />
<circle cx="531.128168" cy="440.258938" r="5" fill="black" stroke="none" />
<path d="M435.128168,384.258938 L469.6483360877724,445.84808681419236" stroke="grey" stroke-width="5" />
<circle cx="469.6483360877724" cy="445.84808681419236" r="2.5" fill="grey" stroke="none" />
<path d="M469.6483360877724,445.84808681419236 A62.07779960601106,62.07779960601106,0,0,1,483.128168,440.258938" stroke="grey" stroke-width="5" fill="none" />
<circle cx="435.128168" cy="384.258938" r="5" fill="black" stroke="none" />
<circle cx="483.128168" cy="440.258938" r="5" fill="black" stroke="none" />
<path d="M387.128168,496.258938 L435.0560489992031,497.8474758235611" stroke="grey" stroke-width="5" />
<circle cx="435.0560489992031" cy="497.8474758235611" r="2.5" fill="grey" stroke="none" />
<path d="M435.0560489992031,497.8474758235611 A64.97961320232729,64.97961320232729,0,0,1,435.128168,496.258938" stroke="grey" stroke-width="5" fill="none" />
<circle cx="387.128168" cy="496.258938" r="5" fill="black" stroke="none" />
<circle cx="435.128168" cy="496.258938" r="5" fill="black" stroke="none" />
<path d="M387.128168,544.258938 L455.9031746307934,517.2911046576487" stroke="grey" stroke-width="5" />
<circle cx="455.9031746307934" cy="517.2911046576487" r="2.5" fill="grey" stroke="none" />
<path d="M455.9031746307934,517.2911046576487 A47.36572925569781,47.36572925569781,0,0,0,483.128168,544.258938" stroke="grey" stroke-width="5" fill="none" />
<circle cx="387.128168" cy="544.258938" r="5" fill="black" stroke="none" />
<circle cx="483.128168" cy="544.258938" r="5" fill="black" stroke="none" />
<path d="M387.128168,600.258938 L423.98797627459146,567.518039168003" stroke="grey" stroke-width="5" />
<circle cx="423.98797627459146" cy="567.518039168003" r="2.5" fill="grey" stroke="none" />
<path d="M423.9879762745915,567.5180391680032 A101.66864493994235,101.66864493994235,0,0,0,483.12816799999996,600.258938" stroke="grey" stroke-width="5" fill="none" />
<circle cx="387.128168" cy="600.258938" r="5" fill="black" stroke="none" />
<circle cx="483.128168" cy="600.258938" r="5" fill="black" stroke="none" />
<path d="M531.128168,440.258938 L528.6853182328837,444.9472460107375" stroke="grey" stroke-width="5" />
<circle cx="528.6853182328837" cy="444.9472460107375" r="2.5" fill="grey" stroke="none" />
<path d="M528.6853182328837,444.9472460107375 A62.07779960601106,62.07779960601106,0,0,0,483.128168,440.258938" stroke="grey" stroke-width="5" fill="none" />
<circle cx="531.128168" cy="440.258938" r="5" fill="black" stroke="none" />
<circle cx="483.128168" cy="440.258938" r="5" fill="black" stroke="none" />
<path d="M483.128168,440.258938 A62.07779960601106,62.07779960601106,0,0,0,438.02516837963293,496.42600370016754" stroke="grey" stroke-width="5" fill="none" />
<path d="M438.02516837963293,496.42600370016754 L435.128168,496.258938" stroke="grey" stroke-width="5" />
<circle cx="438.02516837963293" cy="496.42600370016754" r="2.5" fill="grey" stroke="none" />
<circle cx="483.128168" cy="440.258938" r="5" fill="black" stroke="none" />
<circle cx="435.128168" cy="496.258938" r="5" fill="black" stroke="none" />
<path d="M435.128168,496.258938 L452.7128359280067,497.27301962741706" stroke="grey" stroke-width="5" />
<circle cx="452.7128359280067" cy="497.27301962741706" r="2.5" fill="grey" stroke="none" />
<path d="M452.7128359280067,497.27301962741706 A47.36572925569781,47.36572925569781,0,0,0,483.128168,544.258938" stroke="grey" stroke-width="5" fill="none" />
<circle cx="435.128168" cy="496.258938" r="5" fill="black" stroke="none" />
<circle cx="483.128168" cy="544.258938" r="5" fill="black" stroke="none" />
<path d="M483.128168,544.258938 A47.36572925569781,47.36572925569781,0,0,0,492.1396943272757,546.708970258992" stroke="grey" stroke-width="5" fill="none" />
<path d="M492.1396943272757,546.708970258992 L483.128168,600.258938" stroke="grey" stroke-width="5" />
<circle cx="492.1396943272757" cy="546.708970258992" r="2.5" fill="grey" stroke="none" />
<circle cx="483.128168" cy="544.258938" r="5" fill="black" stroke="none" />
<circle cx="483.128168" cy="600.258938" r="5" fill="black" stroke="none" />
<path d="M483.12816799999996,600.258938 A101.66864493994235,101.66864493994235,0,0,0,529.733656959898,597.2235722842726" stroke="grey" stroke-width="5" fill="none" />
<path d="M529.733656959898,597.2235722842726 L555.128168,680.258938" stroke="grey" stroke-width="5" />
<circle cx="529.733656959898" cy="597.2235722842726" r="2.5" fill="grey" stroke="none" />
<circle cx="483.128168" cy="600.258938" r="5" fill="black" stroke="none" />
<circle cx="555.128168" cy="680.258938" r="5" fill="black" stroke="none" />
<path d="M531.128168,440.258938 L516.8407218120997,467.67935055151986" stroke="grey" stroke-width="5" />
<circle cx="516.8407218120997" cy="467.67935055151986" r="2.5" fill="grey" stroke="none" />
<path d="M516.8407218120997,467.67935055151986 A36.44494878476396,36.44494878476396,0,0,0,507.128168,464.258938" stroke="grey" stroke-width="5" fill="none" />
<circle cx="531.128168" cy="440.258938" r="5" fill="black" stroke="none" />
<circle cx="507.128168" cy="464.258938" r="5" fill="black" stroke="none" />
<path d="M507.128168,464.258938 L503.380064123827,483.0521556992376" stroke="grey" stroke-width="5" />
<circle cx="503.380064123827" cy="483.0521556992376" r="2.5" fill="grey" stroke="none" />
<path d="M503.380064123827,483.0521556992376 A17.28161624166176,17.28161624166176,0,0,0,483.128168,496.258938" stroke="grey" stroke-width="5" fill="none" />
<circle cx="507.128168" cy="464.258938" r="5" fill="black" stroke="none" />
<circle cx="483.128168" cy="496.258938" r="5" fill="black" stroke="none" />
<path d="M483.128168,496.258938 A17.28161624166176,17.28161624166176,0,0,0,493.844230195554,516.1480883710344" stroke="grey" stroke-width="5" fill="none" />
<path d="M493.844230195554,516.1480883710344 L483.128168,544.258938" stroke="grey" stroke-width="5" />
<circle cx="493.844230195554" cy="516.1480883710344" r="2.5" fill="grey" stroke="none" />
<circle cx="483.128168" cy="496.258938" r="5" fill="black" stroke="none" />
<circle cx="483.128168" cy="544.258938" r="5" fill="black" stroke="none" />
<path d="M483.128168,440.258938 L490.0947994766619,464.92691495581647" stroke="grey" stroke-width="5" />
<circle cx="490.0947994766619" cy="464.92691495581647" r="2.5" fill="grey" stroke="none" />
<path d="M490.0947994766619,464.92691495581647 A36.44494878476396,36.44494878476396,0,0,1,507.128168,464.258938" stroke="grey" stroke-width="5" fill="none" />
<circle cx="483.128168" cy="440.258938" r="5" fill="black" stroke="none" />
<circle cx="507.128168" cy="464.258938" r="5" fill="black" stroke="none" />
<path d="M435.128168,496.258938 L482.74704864698396,499.00504797375515" stroke="grey" stroke-width="5" />
<circle cx="482.74704864698396" cy="499.00504797375515" r="2.5" fill="grey" stroke="none" />
<path d="M482.74704864698396,499.00504797375515 A17.28161624166176,17.28161624166176,0,0,1,483.128168,496.258938" stroke="grey" stroke-width="5" fill="none" />
<circle cx="435.128168" cy="496.258938" r="5" fill="black" stroke="none" />
<circle cx="483.128168" cy="496.258938" r="5" fill="black" stroke="none" />
<path d="M531.128168,440.258938 L514.4874157755778,472.1958065740146" stroke="grey" stroke-width="5" />
<circle cx="514.4874157755778" cy="472.1958065740146" r="2.5" fill="grey" stroke="none" />
<path d="M514.4874157755778,472.1958065740146 A31.3521671966081,31.3521671966081,0,0,1,531.128168,496.258938" stroke="grey" stroke-width="5" fill="none" />
<circle cx="531.128168" cy="440.258938" r="5" fill="black" stroke="none" />
<circle cx="531.128168" cy="496.258938" r="5" fill="black" stroke="none" />
<path d="M507.128168,464.258938 L506.13208475779066,469.25335913555205" stroke="grey" stroke-width="5" />
<circle cx="506.13208475779066" cy="469.25335913555205" r="2.5" fill="grey" stroke="none" />
<path d="M506.13208475779066,469.25335913555205 A31.3521671966081,31.3521671966081,0,0,1,531.128168,496.258938" stroke="grey" stroke-width="5" fill="none" />
<circle cx="507.128168" cy="464.258938" r="5" fill="black" stroke="none" />
<circle cx="531.128168" cy="496.258938" r="5" fill="black" stroke="none" />
<path d="M483.128168,496.258938 A17.28161624166176,17.28161624166176,0,0,1,517.158145729083,497.93789062762914" stroke="grey" stroke-width="5" fill="none" />
<path d="M517.158145729083,497.93789062762914 L531.128168,496.258938" stroke="grey" stroke-width="5" />
<circle cx="517.158145729083" cy="497.93789062762914" r="2.5" fill="grey" stroke="none" />
<circle cx="483.128168" cy="496.258938" r="5" fill="black" stroke="none" />
<circle cx="531.128168" cy="496.258938" r="5" fill="black" stroke="none" />
<path d="M483.128168,544.258938 L488.8322526415351,529.2957301814031" stroke="grey" stroke-width="5" />
<circle cx="488.8322526415351" cy="529.2957301814031" r="2.5" fill="grey" stroke="none" />
<path d="M488.8322526415351,529.2957301814031 A31.3521671966081,31.3521671966081,0,0,0,531.128168,496.258938" stroke="grey" stroke-width="5" fill="none" />
<circle cx="483.128168" cy="544.258938" r="5" fill="black" stroke="none" />
<circle cx="531.128168" cy="496.258938" r="5" fill="black" stroke="none" />
<path d="M531.128168,496.258938 A31.3521671966081,31.3521671966081,0,0,1,513.0087214180494,528.5259803511054" stroke="grey" stroke-width="5" fill="none" />
<path d="M513.0087214180494,528.5259803511054 L531.128168,568.258938" stroke="grey" stroke-width="5" />
<circle cx="513.0087214180494" cy="528.5259803511054" r="2.5" fill="grey" stroke="none" />
<circle cx="531.128168" cy="496.258938" r="5" fill="black" stroke="none" />
<circle cx="531.128168" cy="568.258938" r="5" fill="black" stroke="none" />
<path d="M531.128168,568.258938 A75.02163327950191,75.02163327950191,0,0,1,487.55021871487446,573.9814058117079" stroke="grey" stroke-width="5" fill="none" />
<path d="M487.5502187148745,573.9814058117079 L483.128168,600.258938" stroke="grey" stroke-width="5" />
<circle cx="487.5502187148745" cy="573.9814058117079" r="2.5" fill="grey" stroke="none" />
<circle cx="531.128168" cy="568.258938" r="5" fill="black" stroke="none" />
<circle cx="483.128168" cy="600.258938" r="5" fill="black" stroke="none" />
<path d="M531.128168,440.258938 A67.36436247693634,67.36436247693634,0,0,1,542.877422029126,448.04344110643694" stroke="grey" stroke-width="5" fill="none" />
<path d="M542.877422029126,448.04344110643694 L635.128168,336.258938" stroke="grey" stroke-width="5" />
<circle cx="542.877422029126" cy="448.04344110643694" r="2.5" fill="grey" stroke="none" />
<circle cx="531.128168" cy="440.258938" r="5" fill="black" stroke="none" />
<circle cx="635.128168" cy="336.258938" r="5" fill="black" stroke="none" />
<path d="M531.128168,440.258938 A67.36436247693634,67.36436247693634,0,0,1,565.7268775519198,485.2373816956809" stroke="grey" stroke-width="5" fill="none" />
<path d="M565.7268775519198,485.2373816956809 L659.128168,464.258938" stroke="grey" stroke-width="5" />
<circle cx="565.7268775519198" cy="485.2373816956809" r="2.5" fill="grey" stroke="none" />
<circle cx="531.128168" cy="440.258938" r="5" fill="black" stroke="none" />
<circle cx="659.128168" cy="464.258938" r="5" fill="black" stroke="none" />
<path d="M659.128168,464.258938 A163.0926036456714,163.0926036456714,0,0,1,661.4132344903996,476.6555125292641" stroke="grey" stroke-width="5" fill="none" />
<path d="M661.4132344903996,476.6555125292641 L747.128168,464.258938" stroke="grey" stroke-width="5" />
<circle cx="661.4132344903996" cy="476.6555125292641" r="2.5" fill="grey" stroke="none" />
<circle cx="659.128168" cy="464.258938" r="5" fill="black" stroke="none" />
<circle cx="747.128168" cy="464.258938" r="5" fill="black" stroke="none" />
<path d="M531.128168,496.258938 A31.3521671966081,31.3521671966081,0,0,1,521.5797352478428,522.7436455863408" stroke="grey" stroke-width="5" fill="none" />
<path d="M521.5797352478428,522.7436455863408 L595.128168,600.258938" stroke="grey" stroke-width="5" />
<circle cx="521.5797352478428" cy="522.7436455863408" r="2.5" fill="grey" stroke="none" />
<circle cx="531.128168" cy="496.258938" r="5" fill="black" stroke="none" />
<circle cx="595.128168" cy="600.258938" r="5" fill="black" stroke="none" />
<circle cx="500" cy="500" r="5" fill="red" stroke="none" />
</svg>