<?xml version="1.0" encoding="UTF-8"?>
<svg xmlns="http://www.w3.org/2000/svg" xmlns:xlink="http://www.w3.org/1999/xlink"
     width="1000" height="1000" viewBox="0 0 1000 1000">
<defs>
</defs>
<rect x="0" y="0" width="1000" height="1000" fill="white" />
<path d="M260.066432,689.807312 L372.47081499949223,600.8861411442733" stroke="grey" stroke-width="5" />
<circle cx="372.47081499949223" cy="600.8861411442733" r="2.5" fill="grey" stroke="none" />
<path d="M372.4708149994923,600.8861411442733 A162.60906033144636,162.60906033144636,0,0,0,380.06643199999996,609.8073119999999" stroke="grey" stroke-width="5" fill="none" />
<circle cx="260.066432" cy="689.807312" r="5" fill="black" stroke="none" />
<circle cx="380.066432" cy="609.807312" r="5" fill="black" stroke="none" />
<path d="M380.066432,609.807312 L403.0475183630696,588.7665695085523" stroke="grey" stroke-width="5" />
<circle cx="403.0475183630696" cy="588.7665695085523" r="2.5" fill="grey" stroke="none" />
<path d="M403.0475183630696,588.7665695085523 A131.45070390787552,131.45070390787552,0,0,1,380.0664320000001,553.807312" stroke="grey" stroke-width="5" fill="none" />
<circle cx="380.066432" cy="609.807312" r="5" fill="black" stroke="none" />
<circle cx="380.066432" cy="553.807312" r="5" fill="black" stroke="none" />
<path d="M380.0664320000001,553.807312 A131.45070390787552,131.45070390787552,0,0,1,372.1872022707896,530.7111754009499" stroke="grey" stroke-width="5" fill="none" />
<path d="M372.18720227078956,530.7111754009497 L276.066432,553.807312" stroke="grey" stroke-width="5" />
<circle cx="372.18720227078956" cy="530.7111754009497" r="2.5" fill="grey" stroke="none" />
<circle cx="380.066432" cy="553.807312" r="5" fill="black" stroke="none" />
<circle cx="276.066432" cy="553.807312" r="5" fill="black" stroke="none" />
<path d="M276.066432,553.807312 L314.61747618740026,544.5441716810049" stroke="grey" stroke-width="5" />
<circle cx="314.61747618740026" cy="544.5441716810049" r="2.5" fill="grey" stroke="none" />
<path d="M314.61747618740026,544.544171681005 A190.65902382493192,190.65902382493192,0,0,1,316.066432,449.807312" stroke="grey" stroke-width="5" fill="none" />
<circle cx="276.066432" cy="553.807312" r="5" fill="black" stroke="none" />
<circle cx="316.066432" cy="449.807312" r="5" fill="black" stroke="none" />
<path d="M316.066432,449.807312 L349.70195018004154,458.9859360439219" stroke="grey" stroke-width="5" />
<circle cx="349.70195018004154" cy="458.9859360439219" r="2.5" fill="grey" stroke="none" />
<path d="M349.70195018004154,458.985936043922 A155.79363665399165,155.79363665399165,0,0,1,428.066432,361.80731199999997" stroke="grey" stroke-width="5" fill="none" />
<circle cx="316.066432" cy="449.807312" r="5" fill="black" stroke="none" />
<circle cx="428.066432" cy="361.807312" r="5" fill="black" stroke="none" />
<path d="M428.066432,361.807312 L446.1289561717361,396.5075060367698" stroke="grey" stroke-width="5" />
<circle cx="446.1289561717361" cy="396.5075060367698" r="2.5" fill="grey" stroke="none" />
<path d="M446.1289561717361,396.5075060367698 A116.67384312636645,116.67384312636645,0,0,1,476.066432,385.807312" stroke="grey" stroke-width="5" fill="none" />
<circle cx="428.066432" cy="361.807312" r="5" fill="black" stroke="none" />
<circle cx="476.066432" cy="385.807312" r="5" fill="black" stroke="none" />
<path d="M476.066432,385.807312 A116.67384312636645,116.67384312636645,0,0,0,434.5658203170493,403.4021025120355" stroke="grey" stroke-width="5" fill="none" />
<path d="M434.5658203170493,403.4021025120355 L428.066432,393.807312" stroke="grey" stroke-width="5" />
<circle cx="434.5658203170493" cy="403.4021025120355" r="2.5" fill="grey" stroke="none" />
<circle cx="476.066432" cy="385.807312" r="5" fill="black" stroke="none" />
<circle cx="428.066432" cy="393.807312" r="5" fill="black" stroke="none" />
<path d="M428.066432,361.807312 L440.778100784213,386.2278951449384" stroke="grey" stroke-width="5" />
<circle cx="440.778100784213" cy="386.2278951449384" r="2.5" fill="grey" stroke="none" />
<path d="M440.778100784213,386.2278951449384 A128.26271940776854,128.26271940776854,0,0,0,428.066432,393.807312" stroke="grey" stroke-width="5" fill="none" />
<circle cx="428.066432" cy="361.807312" r="5" fill="black" stroke="none" />
<circle cx="428.066432" cy="393.807312" r="5" fill="black" stroke="none" />
<path d="M428.066432,393.807312 L432.65886366994266,400.5869376608255" stroke="grey" stroke-width="5" />
<circle cx="432.65886366994266" cy="400.5869376608255" r="2.5" fill="grey" stroke="none" />
<path d="M432.65886366994266,400.5869376608255 A120.0740838227632,120.0740838227632,0,0,0,380.066432,505.80731199999997" stroke="grey" stroke-width="5" fill="none" />
<circle cx="428.066432" cy="393.807312" r="5" fill="black" stroke="none" />
<circle cx="380.066432" cy="505.807312" r="5" fill="black" stroke="none" />
<path d="M316.066432,449.807312 L384.16150351146484,468.38942681393456" stroke="grey" stroke-width="5" />
<circle cx="384.16150351146484" cy="468.38942681393456" r="2.5" fill="grey" stroke="none" />
<path d="M384.16150351146484,468.3894268139346 A120.0740838227632,120.0740838227632,0,0,0,380.066432,505.80731199999997" stroke="grey" stroke-width="5" fill="none" />
<circle cx="316.066432" cy="449.807312" r="5" fill="black" stroke="none" />
<circle cx="380.066432" cy="505.807312" r="5" fill="black" stroke="none" />
<path d="M380.066432,505.80731199999997 A120.0740838227632,120.0740838227632,0,0,0,390.44628237755467,549.1504685733257" stroke="grey" stroke-width="5" fill="none" />
<path d="M390.44628237755467,549.1504685733257 L380.066432,553.807312" stroke="grey" stroke-width="5" />
<circle cx="390.44628237755467" cy="549.1504685733257" r="2.5" fill="grey" stroke="none" />
<circle cx="380.066432" cy="505.807312" r="5" fill="black" stroke="none" />
<circle cx="380.066432" cy="553.807312" r="5" fill="black" stroke="none" />
<path d="M476.066432,385.807312 A116.67384312636645,116.67384312636645,0,0,1,512.0916145568956,383.95441185773825" stroke="grey" stroke-width="5" fill="none" />
<path d="M512.0916145568956,383.95441185773825 L516.0664320000001,345.807312" stroke="grey" stroke-width="5" />
<circle cx="512.0916145568956" cy="383.95441185773825" r="2.5" fill="grey" stroke="none" />
<circle cx="476.066432" cy="385.807312" r="5" fill="black" stroke="none" />
<circle cx="516.0664320000001" cy="345.807312" r="5" fill="black" stroke="none" />
<path d="M476.066432,385.807312 L488.5814849135647,445.5195760745493" stroke="grey" stroke-width="5" />
<circle cx="488.5814849135647" cy="445.5195760745493" r="2.5" fill="grey" stroke="none" />
<path d="M488.5814849135647,445.5195760745493 A55.66416331784723,55.66416331784723,0,0,1,524.0664320000001,449.807312" stroke="grey" stroke-width="5" fill="none" />
<circle cx="476.066432" cy="385.807312" r="5" fill="black" stroke="none" />
<circle cx="524.0664320000001" cy="449.807312" r="5" fill="black" stroke="none" />
<path d="M428.066432,393.807312 L468.81401673031394,453.96136347176616" stroke="grey" stroke-width="5" />
<circle cx="468.81401673031394" cy="453.96136347176616" r="2.5" fill="grey" stroke="none" />
<path d="M468.81401673031394,453.96136347176616 A55.606848551918205,55.606848551918205,0,0,1,476.066432,449.80731199999997" stroke="grey" stroke-width="5" fill="none" />
<circle cx="428.066432" cy="393.807312" r="5" fill="black" stroke="none" />
<circle cx="476.066432" cy="449.807312" r="5" fill="black" stroke="none" />
<path d="M380.066432,505.807312 L427.91684953882026,503.4903434597311" stroke="grey" stroke-width="5" />
<circle cx="427.91684953882026" cy="503.4903434597311" r="2.5" fill="grey" stroke="none" />
<path d="M427.91684953882026,503.4903434597311 A72.16760407465364,72.16760407465364,0,0,0,428.066432,505.80731199999997" stroke="grey" stroke-width="5" fill="none" />
<circle cx="380.066432" cy="505.807312" r="5" fill="black" stroke="none" />
<circle cx="428.066432" cy="505.807312" r="5" fill="black" stroke="none" />
<path d="M380.066432,553.807312 L446.26960372511405,524.1057465766918" stroke="grey" stroke-width="5" />
<circle cx="446.26960372511405" cy="524.1057465766918" r="2.5" fill="grey" stroke="none" />
<path d="M446.26960372511405,524.1057465766918 A58.89008831608224,58.89008831608224,0,0,0,476.066432,553.807312" stroke="grey" stroke-width="5" fill="none" />
<circle cx="380.066432" cy="553.807312" r="5" fill="black" stroke="none" />
<circle cx="476.066432" cy="553.807312" r="5" fill="black" stroke="none" />
<path d="M380.066432,609.807312 L417.1093352264482,575.8920228961821" stroke="grey" stroke-width="5" />
<circle cx="417.1093352264482" cy="575.8920228961821" r="2.5" fill="grey" stroke="none" />
<path d="M417.1093352264482,575.8920228961821 A112.38532575864149,112.38532575864149,0,0,0,476.066432,609.807312" stroke="grey" stroke-width="5" fill="none" />
<circle cx="380.066432" cy="609.807312" r="5" fill="black" stroke="none" />
<circle cx="476.066432" cy="609.807312" r="5" fill="black" stroke="none" />
<path d="M524.0664320000001,449.807312 L524.0416519290421,449.8589930456243" stroke="grey" stroke-width="5" />
<circle cx="524.0416519290421" cy="449.8589930456243" r="2.5" fill="grey" stroke="none" />
<path d="M524.0416519290421,449.8589930456243 A55.606848551918205,55.606848551918205,0,0,0,476.066432,449.80731199999997" stroke="grey" stroke-width="5" fill="none" />
<circle cx="524.0664320000001" cy="449.807312" r="5" fill="black" stroke="none" />
<circle cx="476.066432" cy="449.807312" r="5" fill="black" stroke="none" />
<path d="M476.066432,449.80731199999997 A55.606848551918205,55.606848551918205,0,0,0,444.57348178779336,504.47467146815194" stroke="grey" stroke-width="5" fill="none" />
<path d="M444.57348178779336,504.47467146815194 L428.066432,505.807312" stroke="grey" stroke-width="5" />
<circle cx="444.57348178779336" cy="504.47467146815194" r="2.5" fill="grey" stroke="none" />
<circle cx="476.066432" cy="449.807312" r="5" fill="black" stroke="none" />
<circle cx="428.066432" cy="505.807312" r="5" fill="black" stroke="none" />
<path d="M428.066432,505.807312 L441.30088941252916,504.73887308501014" stroke="grey" stroke-width="5" />
<circle cx="441.30088941252916" cy="504.73887308501014" r="2.5" fill="grey" stroke="none" />
<path d="M441.30088941252916,504.73887308501014 A58.89008831608224,58.89008831608224,0,0,0,476.066432,553.807312" stroke="grey" stroke-width="5" fill="none" />
<circle cx="428.066432" cy="505.807312" r="5" fill="black" stroke="none" />
<circle cx="476.066432" cy="553.807312" r="5" fill="black" stroke="none" />
<path d="M476.066432,553.807312 A58.89008831608224,58.89008831608224,0,0,0,487.45877254237007,557.5392050321514" stroke="grey" stroke-width="5" fill="none" />
<path d="M487.45877254237007,557.5392050321514 L476.066432,609.807312" stroke="grey" stroke-width="5" />
<circle cx="487.45877254237007" cy="557.5392050321514" r="2.5" fill="grey" stroke="none" />
<circle cx="476.066432" cy="553.807312" r="5" fill="black" stroke="none" />
<circle cx="476.066432" cy="609.807312" r="5" fill="black" stroke="none" />
<path d="M476.066432,609.807312 A112.38532575864149,112.38532575864149,0,0,0,527.589340085043,608.9462700579869" stroke="grey" stroke-width="5" fill="none" />
<path d="M527.589340085043,608.9462700579869 L548.0664320000001,689.807312" stroke="grey" stroke-width="5" />
<circle cx="527.589340085043" cy="608.9462700579869" r="2.5" fill="grey" stroke="none" />
<circle cx="476.066432" cy="609.807312" r="5" fill="black" stroke="none" />
<circle cx="548.0664320000001" cy="689.807312" r="5" fill="black" stroke="none" />
<path d="M524.0664320000001,449.807312 L511.3244596622282,476.38183048510035" stroke="grey" stroke-width="5" />
<circle cx="511.3244596622282" cy="476.38183048510035" r="2.5" fill="grey" stroke="none" />
<path d="M511.3244596622282,476.38183048510035 A26.19277224495277,26.19277224495277,0,0,0,500.066432,473.807312" stroke="grey" stroke-width="5" fill="none" />
<circle cx="524.0664320000001" cy="449.807312" r="5" fill="black" stroke="none" />
<circle cx="500.066432" cy="473.807312" r="5" fill="black" stroke="none" />
<path d="M500.066432,473.807312 L500.06246342318536,475.3720352404684" stroke="grey" stroke-width="5" />
<circle cx="500.06246342318536" cy="475.3720352404684" r="2.5" fill="grey" stroke="none" />
<path d="M500.06246342318536,475.3720352404684 A24.628043971780766,24.628043971780766,0,0,0,476.066432,505.807312" stroke="grey" stroke-width="5" fill="none" />
<circle cx="500.066432" cy="473.807312" r="5" fill="black" stroke="none" />
<circle cx="476.066432" cy="505.807312" r="5" fill="black" stroke="none" />
<path d="M476.066432,505.807312 A24.628043971780766,24.628043971780766,0,0,0,489.9908969071008,522.5024088744224" stroke="grey" stroke-width="5" fill="none" />
<path d="M489.9908969071008,522.5024088744224 L476.066432,553.807312" stroke="grey" stroke-width="5" />
<circle cx="489.9908969071008" cy="522.5024088744224" r="2.5" fill="grey" stroke="none" />
<circle cx="476.066432" cy="505.807312" r="5" fill="black" stroke="none" />
<circle cx="476.066432" cy="553.807312" r="5" fill="black" stroke="none" />
<path d="M476.066432,449.807312 L488.7264516519438,476.3574869034612" stroke="grey" stroke-width="5" />
<circle cx="488.7264516519438" cy="476.3574869034612" r="2.5" fill="grey" stroke="none" />
<path d="M488.7264516519438,476.3574869034612 A26.19277224495277,26.19277224495277,0,0,1,500.066432,473.807312" stroke="grey" stroke-width="5" fill="none" />
<circle cx="476.066432" cy="449.807312" r="5" fill="black" stroke="none" />
<circle cx="500.066432" cy="473.807312" r="5" fill="black" stroke="none" />
<path d="M428.066432,505.807312 L475.4518235922247,501.98181354539497" stroke="grey" stroke-width="5" />
<circle cx="475.4518235922247" cy="501.98181354539497" r="2.5" fill="grey" stroke="none" />
<path d="M475.4518235922247,501.98181354539497 A24.628043971780766,24.628043971780766,0,0,0,476.066432,505.807312" stroke="grey" stroke-width="5" fill="none" />
<circle cx="428.066432" cy="505.807312" r="5" fill="black" stroke="none" />
<circle cx="476.066432" cy="505.807312" r="5" fill="black" stroke="none" />
<path d="M524.0664320000001,449.807312 L510.70378108263003,477.6763109587349" stroke="grey" stroke-width="5" />
<circle cx="510.70378108263003" cy="477.6763109587349" r="2.5" fill="grey" stroke="none" />
<path d="M510.70378108263003,477.6763109587349 A24.757181218304495,24.757181218304495,0,0,1,524.0664320000001,505.807312" stroke="grey" stroke-width="5" fill="none" />
<circle cx="524.0664320000001" cy="449.807312" r="5" fill="black" stroke="none" />
<circle cx="524.0664320000001" cy="505.807312" r="5" fill="black" stroke="none" />
<path d="M500.066432,473.807312 L500.06279095039326,475.2428984092944" stroke="grey" stroke-width="5" />
<circle cx="500.06279095039326" cy="475.2428984092944" r="2.5" fill="grey" stroke="none" />
<path d="M500.06279095039326,475.2428984092944 A24.757181218304495,24.757181218304495,0,0,1,524.0664320000001,505.807312" stroke="grey" stroke-width="5" fill="none" />
<circle cx="500.066432" cy="473.807312" r="5" fill="black" stroke="none" />
<circle cx="524.0664320000001" cy="505.807312" r="5" fill="black" stroke="none" />
<path d="M476.066432,505.807312 A24.628043971780766,24.628043971780766,0,0,0,523.9408978071237,505.7770201717514" stroke="grey" stroke-width="5" fill="none" />
<path d="M523.9408978071237,505.7770201717514 L524.0664320000001,505.807312" stroke="grey" stroke-width="5" />
<circle cx="523.9408978071237" cy="505.7770201717514" r="2.5" fill="grey" stroke="none" />
<circle cx="476.066432" cy="505.807312" r="5" fill="black" stroke="none" />
<circle cx="524.0664320000001" cy="505.807312" r="5" fill="black" stroke="none" />
<path d="M476.066432,553.807312 L489.93841413522216,522.6204003448585" stroke="grey" stroke-width="5" />
<circle cx="489.93841413522216" cy="522.6204003448585" r="2.5" fill="grey" stroke="none" />
<path d="M489.93841413522216,522.6204003448585 A24.757181218304495,24.757181218304495,0,0,0,524.0664320000001,505.807312" stroke="grey" stroke-width="5" fill="none" />
<circle cx="476.066432" cy="553.807312" r="5" fill="black" stroke="none" />
<circle cx="524.0664320000001" cy="505.807312" r="5" fill="black" stroke="none" />
<path d="M524.0664320000001,505.807312 A24.757181218304495,24.757181218304495,0,0,1,507.3156397120581,523.6516265292544" stroke="grey" stroke-width="5" fill="none" />
<path d="M507.3156397120581,523.6516265292544 L524.0664320000001,577.807312" stroke="grey" stroke-width="5" />
<circle cx="507.3156397120581" cy="523.6516265292544" r="2.5" fill="grey" stroke="none" />
<circle cx="524.0664320000001" cy="505.807312" r="5" fill="black" stroke="none" />
<circle cx="524.0664320000001" cy="577.807312" r="5" fill="black" stroke="none" />
<path d="M524.0664320000001,577.807312 A81.44428125949648,81.44428125949648,0,0,1,482.65563381538357,579.576025984777" stroke="grey" stroke-width="5" fill="none" />
<path d="M482.65563381538357,579.576025984777 L476.066432,609.807312" stroke="grey" stroke-width="5" />
<circle cx="482.65563381538357" cy="579.576025984777" r="2.5" fill="grey" stroke="none" />
<circle cx="524.0664320000001" cy="577.807312" r="5" fill="black" stroke="none" />
<circle cx="476.066432" cy="609.807312" r="5" fill="black" stroke="none" />
<path d="M524.0664320000001,449.807312 A55.66416331784723,55.66416331784723,0,0,1,535.5652206473108,457.1792788689393" stroke="grey" stroke-width="5" fill="none" />
<path d="M535.5652206473108,457.1792788689393 L628.0664320000001,345.807312" stroke="grey" stroke-width="5" />
<circle cx="535.5652206473108" cy="457.1792788689393" r="2.5" fill="grey" stroke="none" />
<circle cx="524.0664320000001" cy="449.807312" r="5" fill="black" stroke="none" />
<circle cx="628.0664320000001" cy="345.807312" r="5" fill="black" stroke="none" />
<path d="M524.0664320000001,449.807312 A55.66416331784723,55.66416331784723,0,0,1,554.8563621192814,490.5512639514988" stroke="grey" stroke-width="5" fill="none" />
<path d="M554.8563621192814,490.5512639514988 L652.0664320000001,473.807312" stroke="grey" stroke-width="5" />
<circle cx="554.8563621192814" cy="490.5512639514988" r="2.5" fill="grey" stroke="none" />
<circle cx="524.0664320000001" cy="449.807312" r="5" fill="black" stroke="none" />
<circle cx="652.0664320000001" cy="473.807312" r="5" fill="black" stroke="none" />
<path d="M652.066432,473.807312 A154.30572460500605,154.30572460500605,0,0,1,653.3954071228445,483.2636407933882" stroke="grey" stroke-width="5" fill="none" />
<path d="M653.3954071228445,483.2636407933882 L740.0664320000001,473.807312" stroke="grey" stroke-width="5" />
<circle cx="653.3954071228445" cy="483.2636407933882" r="2.5" fill="grey" stroke="none" />
<circle cx="652.0664320000001" cy="473.807312" r="5" fill="black" stroke="none" />
<circle cx="740.0664320000001" cy="473.807312" r="5" fill="black" stroke="none" />
<path d="M524.0664320000001,505.807312 A24.757181218304495,24.757181218304495,0,0,1,515.4893333562933,519.3131709994394" stroke="grey" stroke-width="5" fill="none" />
<path d="M515.4893333562933,519.3131709994394 L588.0664320000001,609.807312" stroke="grey" stroke-width="5" />
<circle cx="515.4893333562933" cy="519.3131709994394" r="2.5" fill="grey" stroke="none" />
<circle cx="524.0664320000001" cy="505.807312" r="5" fill="black" stroke="none" />
<circle cx="588.0664320000001" cy="609.807312" r="5" fill="black" stroke="none" />
<circle cx="500" cy="500" r="5" fill="red" stroke="none" />
</svg>