<?xml version="1.0" encoding="UTF-8"?>
<svg xmlns="http://www.w3.org/2000/svg" xmlns:xlink="http://www.w3.org/1999/xlink"
     width="1000" height="1000" viewBox="0 0 1000 1000">
<defs>
</defs>
<rect x="0" y="0" width="1000" height="1000" fill="white" />
<path d="M356.375,617.46875 L465.71256892381075,528.0431795942984" stroke="grey" stroke-width="5" />
<circle cx="465.71256892381075" cy="528.0431795942984" r="2.5" fill="grey" stroke="none" />
<path d="M465.71256892381075,528.0431795942984 A44.295009330199946,44.295009330199946,0,0,0,476.375,537.46875" stroke="grey" stroke-width="5" fill="none" />
<circle cx="356.375" cy="617.46875" r="5" fill="black" stroke="none" />
<circle cx="476.375" cy="537.46875" r="5" fill="black" stroke="none" />
<path d="M476.375,537.46875 L483.9855727437739,525.3985426986972" stroke="grey" stroke-width="5" />
<circle cx="483.9855727437739" cy="525.3985426986972" r="2.5" fill="grey" stroke="none" />
<path d="M483.9855727437739,525.3985426986972 A30.025786443697026,30.025786443697026,0,0,1,476.375,481.46875" stroke="grey" stroke-width="5" fill="none" />
<circle cx="476.375" cy="537.46875" r="5" fill="black" stroke="none" />
<circle cx="476.375" cy="481.46875" r="5" fill="black" stroke="none" />
<path d="M476.375,481.46875 A30.025786443697026,30.025786443697026,0,0,0,470.2858157727194,495.6854771677822" stroke="grey" stroke-width="5" fill="none" />
<path d="M470.2858157727194,495.6854771677822 L372.375,481.46875" stroke="grey" stroke-width="5" />
<circle cx="470.2858157727194" cy="495.6854771677822" r="2.5" fill="grey" stroke="none" />
<circle cx="476.375" cy="481.46875" r="5" fill="black" stroke="none" />
<circle cx="372.375" cy="481.46875" r="5" fill="black" stroke="none" />
<path d="M372.375,481.46875000000006 A128.96335856188958,128.96335856188958,0,0,1,424.98337515142174,395.099791001685" stroke="grey" stroke-width="5" fill="none" />
<path d="M424.98337515142174,395.099791001685 L412.375,377.46875" stroke="grey" stroke-width="5" />
<circle cx="424.98337515142174" cy="395.099791001685" r="2.5" fill="grey" stroke="none" />
<circle cx="372.375" cy="481.46875" r="5" fill="black" stroke="none" />
<circle cx="412.375" cy="377.46875" r="5" fill="black" stroke="none" />
<path d="M412.375,377.46875 A150.63879929009823,150.63879929009823,0,0,1,517.3250082525434,350.36079410591685" stroke="grey" stroke-width="5" fill="none" />
<path d="M517.3250082525434,350.36079410591685 L524.375,289.46875" stroke="grey" stroke-width="5" />
<circle cx="517.3250082525434" cy="350.36079410591685" r="2.5" fill="grey" stroke="none" />
<circle cx="412.375" cy="377.46875" r="5" fill="black" stroke="none" />
<circle cx="524.375" cy="289.46875" r="5" fill="black" stroke="none" />
<path d="M524.375,289.46875 L523.0112657705581,301.24756731249994" stroke="grey" stroke-width="5" />
<circle cx="523.0112657705581" cy="301.24756731249994" r="2.5" fill="grey" stroke="none" />
<path d="M523.0112657705581,301.24756731249994 A200.08010358744446,200.08010358744446,0,0,1,572.375,313.46875" stroke="grey" stroke-width="5" fill="none" />
<circle cx="524.375" cy="289.46875" r="5" fill="black" stroke="none" />
<circle cx="572.375" cy="313.46875" r="5" fill="black" stroke="none" />
<path d="M572.375,313.46875 L565.1792588483497,332.01425040336807" stroke="grey" stroke-width="5" />
<circle cx="565.1792588483497" cy="332.01425040336807" r="2.5" fill="grey" stroke="none" />
<path d="M565.1792588483497,332.01425040336807 A180.1875352280576,180.1875352280576,0,0,0,524.375,321.46875" stroke="grey" stroke-width="5" fill="none" />
<circle cx="572.375" cy="313.46875" r="5" fill="black" stroke="none" />
<circle cx="524.375" cy="321.46875" r="5" fill="black" stroke="none" />
<path d="M524.375,289.46875 L520.7234162084612,321.0081346199962" stroke="grey" stroke-width="5" />
<circle cx="520.7234162084612" cy="321.0081346199962" r="2.5" fill="grey" stroke="none" />
<path d="M520.7234162084612,321.0081346199962 A180.1875352280576,180.1875352280576,0,0,1,524.375,321.46875" stroke="grey" stroke-width="5" fill="none" />
<circle cx="524.375" cy="289.46875" r="5" fill="black" stroke="none" />
<circle cx="524.375" cy="321.46875" r="5" fill="black" stroke="none" />
<path d="M524.375,321.46875 L509.55064636329024,430.0476375981063" stroke="grey" stroke-width="5" />
<circle cx="509.55064636329024" cy="430.0476375981063" r="2.5" fill="grey" stroke="none" />
<path d="M509.55064636329024,430.0476375981063 A70.60133038096733,70.60133038096733,0,0,0,476.375,433.46875" stroke="grey" stroke-width="5" fill="none" />
<circle cx="524.375" cy="321.46875" r="5" fill="black" stroke="none" />
<circle cx="476.375" cy="433.46875" r="5" fill="black" stroke="none" />
<path d="M412.375,377.46875 L458.9319511056478,442.57210423867514" stroke="grey" stroke-width="5" />
<circle cx="458.9319511056478" cy="442.57210423867514" r="2.5" fill="grey" stroke="none" />
<path d="M458.9319511056478,442.57210423867514 A70.60133038096733,70.60133038096733,0,0,1,476.375,433.46875" stroke="grey" stroke-width="5" fill="none" />
<circle cx="412.375" cy="377.46875" r="5" fill="black" stroke="none" />
<circle cx="476.375" cy="433.46875" r="5" fill="black" stroke="none" />
<path d="M476.375,433.46875 L489.9526085286975,471.7051634359748" stroke="grey" stroke-width="5" />
<circle cx="489.9526085286975" cy="471.7051634359748" r="2.5" fill="grey" stroke="none" />
<path d="M489.9526085286975,471.7051634359748 A30.025786443697026,30.025786443697026,0,0,0,476.375,481.46875" stroke="grey" stroke-width="5" fill="none" />
<circle cx="476.375" cy="433.46875" r="5" fill="black" stroke="none" />
<circle cx="476.375" cy="481.46875" r="5" fill="black" stroke="none" />
<path d="M572.375,313.46875 A200.08010358744446,200.08010358744446,0,0,1,588.9143479373256,320.7619276424713" stroke="grey" stroke-width="5" fill="none" />
<path d="M588.9143479373256,320.7619276424713 L612.375,273.46875" stroke="grey" stroke-width="5" />
<circle cx="588.9143479373256" cy="320.7619276424713" r="2.5" fill="grey" stroke="none" />
<circle cx="572.375" cy="313.46875" r="5" fill="black" stroke="none" />
<circle cx="612.375" cy="273.46875" r="5" fill="black" stroke="none" />
<path d="M572.375,313.46875 L562.133450897254,339.86417599062656" stroke="grey" stroke-width="5" />
<circle cx="562.133450897254" cy="339.86417599062656" r="2.5" fill="grey" stroke="none" />
<path d="M562.133450897254,339.86417599062656 A171.7674237204555,171.7674237204555,0,0,1,620.375,377.46875" stroke="grey" stroke-width="5" fill="none" />
<circle cx="572.375" cy="313.46875" r="5" fill="black" stroke="none" />
<circle cx="620.375" cy="377.46875" r="5" fill="black" stroke="none" />
<path d="M524.375,321.46875 L519.2510469048863,358.9984218363909" stroke="grey" stroke-width="5" />
<circle cx="519.2510469048863" cy="358.9984218363909" r="2.5" fill="grey" stroke="none" />
<path d="M519.2510469048863,358.9984218363909 A142.3096899426125,142.3096899426125,0,0,1,572.375,377.46875" stroke="grey" stroke-width="5" fill="none" />
<circle cx="524.375" cy="321.46875" r="5" fill="black" stroke="none" />
<circle cx="572.375" cy="377.46875" r="5" fill="black" stroke="none" />
<path d="M476.375,433.46875 A70.60133038096733,70.60133038096733,0,0,1,524.2874519149459,433.70771137574377" stroke="grey" stroke-width="5" fill="none" />
<path d="M524.2874519149459,433.70771137574377 L524.375,433.46875" stroke="grey" stroke-width="5" />
<circle cx="524.2874519149459" cy="433.70771137574377" r="2.5" fill="grey" stroke="none" />
<circle cx="476.375" cy="433.46875" r="5" fill="black" stroke="none" />
<circle cx="524.375" cy="433.46875" r="5" fill="black" stroke="none" />
<path d="M476.375,481.46875 A30.025786443697026,30.025786443697026,0,0,1,529.0874494756114,492.5523067620736" stroke="grey" stroke-width="5" fill="none" />
<path d="M529.0874494756114,492.5523067620736 L572.375,481.46875" stroke="grey" stroke-width="5" />
<circle cx="529.0874494756114" cy="492.5523067620736" r="2.5" fill="grey" stroke="none" />
<circle cx="476.375" cy="481.46875" r="5" fill="black" stroke="none" />
<circle cx="572.375" cy="481.46875" r="5" fill="black" stroke="none" />
<path d="M476.375,537.46875 A44.295009330199946,44.295009330199946,0,0,0,539.336197354501,520.3644648653052" stroke="grey" stroke-width="5" fill="none" />
<path d="M539.336197354501,520.3644648653052 L572.375,537.46875" stroke="grey" stroke-width="5" />
<circle cx="539.336197354501" cy="520.3644648653052" r="2.5" fill="grey" stroke="none" />
<circle cx="476.375" cy="537.46875" r="5" fill="black" stroke="none" />
<circle cx="572.375" cy="537.46875" r="5" fill="black" stroke="none" />
<path d="M620.375,377.46875 L599.730953377523,398.48258873487345" stroke="grey" stroke-width="5" />
<circle cx="599.730953377523" cy="398.48258873487345" r="2.5" fill="grey" stroke="none" />
<path d="M599.730953377523,398.48258873487345 A142.3096899426125,142.3096899426125,0,0,0,572.375,377.46875" stroke="grey" stroke-width="5" fill="none" />
<circle cx="620.375" cy="377.46875" r="5" fill="black" stroke="none" />
<circle cx="572.375" cy="377.46875" r="5" fill="black" stroke="none" />
<path d="M572.375,377.46875 L536.0354259298796,438.9918371886625" stroke="grey" stroke-width="5" />
<circle cx="536.0354259298796" cy="438.9918371886625" r="2.5" fill="grey" stroke="none" />
<path d="M536.0354259298796,438.9918371886625 A70.85582440112104,70.85582440112104,0,0,0,524.375,433.46875" stroke="grey" stroke-width="5" fill="none" />
<circle cx="572.375" cy="377.46875" r="5" fill="black" stroke="none" />
<circle cx="524.375" cy="433.46875" r="5" fill="black" stroke="none" />
<path d="M524.375,433.46875 A70.85582440112104,70.85582440112104,0,0,1,568.6415063993452,482.42469201433" stroke="grey" stroke-width="5" fill="none" />
<path d="M568.6415063993452,482.42469201433 L572.375,481.46875" stroke="grey" stroke-width="5" />
<circle cx="568.6415063993452" cy="482.42469201433" r="2.5" fill="grey" stroke="none" />
<circle cx="524.375" cy="433.46875" r="5" fill="black" stroke="none" />
<circle cx="572.375" cy="481.46875" r="5" fill="black" stroke="none" />
<path d="M572.375,481.46875 A74.70975740532491,74.70975740532491,0,0,1,566.3460242144956,534.3475315341883" stroke="grey" stroke-width="5" fill="none" />
<path d="M566.3460242144956,534.3475315341883 L572.375,537.46875" stroke="grey" stroke-width="5" />
<circle cx="566.3460242144956" cy="534.3475315341883" r="2.5" fill="grey" stroke="none" />
<circle cx="572.375" cy="481.46875" r="5" fill="black" stroke="none" />
<circle cx="572.375" cy="537.46875" r="5" fill="black" stroke="none" />
<path d="M572.375,537.46875 A81.49875981610089,81.49875981610089,0,0,1,563.2171554799613,551.4357765041503" stroke="grey" stroke-width="5" fill="none" />
<path d="M563.2171554799613,551.4357765041503 L644.375,617.46875" stroke="grey" stroke-width="5" />
<circle cx="563.2171554799613" cy="551.4357765041503" r="2.5" fill="grey" stroke="none" />
<circle cx="572.375" cy="537.46875" r="5" fill="black" stroke="none" />
<circle cx="644.375" cy="617.46875" r="5" fill="black" stroke="none" />
<path d="M620.375,377.46875 L596.5901501613343,401.6796524448099" stroke="grey" stroke-width="5" />
<circle cx="596.5901501613343" cy="401.6796524448099" r="2.5" fill="grey" stroke="none" />
<path d="M596.5901501613345,401.6796524448099 A137.82796469353562,137.82796469353562,0,0,0,596.375,401.46875" stroke="grey" stroke-width="5" fill="none" />
<circle cx="620.375" cy="377.46875" r="5" fill="black" stroke="none" />
<circle cx="596.375" cy="401.46875" r="5" fill="black" stroke="none" />
<path d="M596.375,401.46875 L568.7413122526641,429.72070118915366" stroke="grey" stroke-width="5" />
<circle cx="568.7413122526641" cy="429.72070118915366" r="2.5" fill="grey" stroke="none" />
<path d="M568.7413122526641,429.72070118915366 A98.30843225055773,98.30843225055773,0,0,1,572.375,433.46875" stroke="grey" stroke-width="5" fill="none" />
<circle cx="596.375" cy="401.46875" r="5" fill="black" stroke="none" />
<circle cx="572.375" cy="433.46875" r="5" fill="black" stroke="none" />
<path d="M572.375,433.46875 L555.0015758407104,449.43939768356114" stroke="grey" stroke-width="5" />
<circle cx="555.0015758407104" cy="449.43939768356114" r="2.5" fill="grey" stroke="none" />
<path d="M555.0015758407104,449.43939768356114 A74.70975740532491,74.70975740532491,0,0,1,572.375,481.46875" stroke="grey" stroke-width="5" fill="none" />
<circle cx="572.375" cy="433.46875" r="5" fill="black" stroke="none" />
<circle cx="572.375" cy="481.46875" r="5" fill="black" stroke="none" />
<path d="M572.375,377.46875 L570.0957113230818,381.3275975398084" stroke="grey" stroke-width="5" />
<circle cx="570.0957113230818" cy="381.3275975398084" r="2.5" fill="grey" stroke="none" />
<path d="M570.0957113230818,381.3275975398084 A137.82796469353562,137.82796469353562,0,0,1,596.375,401.46875" stroke="grey" stroke-width="5" fill="none" />
<circle cx="572.375" cy="377.46875" r="5" fill="black" stroke="none" />
<circle cx="596.375" cy="401.46875" r="5" fill="black" stroke="none" />
<path d="M524.375,433.46875 A70.85582440112104,70.85582440112104,0,0,1,552.1642973408524,452.04758677086585" stroke="grey" stroke-width="5" fill="none" />
<path d="M552.1642973408524,452.04758677086585 L572.375,433.46875" stroke="grey" stroke-width="5" />
<circle cx="552.1642973408524" cy="452.04758677086585" r="2.5" fill="grey" stroke="none" />
<circle cx="524.375" cy="433.46875" r="5" fill="black" stroke="none" />
<circle cx="572.375" cy="433.46875" r="5" fill="black" stroke="none" />
<path d="M620.375,377.46875 L596.3865509433521,401.8868986892826" stroke="grey" stroke-width="5" />
<circle cx="596.3865509433521" cy="401.8868986892826" r="2.5" fill="grey" stroke="none" />
<path d="M596.3865509433521,401.8868986892826 A137.53744163522347,137.53744163522347,0,0,1,620.375,433.46875" stroke="grey" stroke-width="5" fill="none" />
<circle cx="620.375" cy="377.46875" r="5" fill="black" stroke="none" />
<circle cx="620.375" cy="433.46875" r="5" fill="black" stroke="none" />
<path d="M596.375,401.46875 L596.1718542900051,401.6764407988373" stroke="grey" stroke-width="5" />
<circle cx="596.1718542900051" cy="401.6764407988373" r="2.5" fill="grey" stroke="none" />
<path d="M596.1718542900051,401.6764407988373 A137.53744163522347,137.53744163522347,0,0,1,620.375,433.46875" stroke="grey" stroke-width="5" fill="none" />
<circle cx="596.375" cy="401.46875" r="5" fill="black" stroke="none" />
<circle cx="620.375" cy="433.46875" r="5" fill="black" stroke="none" />
<path d="M572.375,433.46875 A98.30843225055773,98.30843225055773,0,0,1,586.0411346282467,452.4450738256653" stroke="grey" stroke-width="5" fill="none" />
<path d="M586.0411346282467,452.4450738256653 L620.375,433.46875" stroke="grey" stroke-width="5" />
<circle cx="586.0411346282467" cy="452.4450738256653" r="2.5" fill="grey" stroke="none" />
<circle cx="572.375" cy="433.46875" r="5" fill="black" stroke="none" />
<circle cx="620.375" cy="433.46875" r="5" fill="black" stroke="none" />
<path d="M572.375,481.46875 A74.70975740532491,74.70975740532491,0,0,0,565.3871915948364,463.8605059954811" stroke="grey" stroke-width="5" fill="none" />
<path d="M565.3871915948364,463.8605059954811 L620.375,433.46875" stroke="grey" stroke-width="5" />
<circle cx="565.3871915948364" cy="463.8605059954811" r="2.5" fill="grey" stroke="none" />
<circle cx="572.375" cy="481.46875" r="5" fill="black" stroke="none" />
<circle cx="620.375" cy="433.46875" r="5" fill="black" stroke="none" />
<path d="M620.375,433.46875 L605.4628205805149,441.71071001663654" stroke="grey" stroke-width="5" />
<circle cx="605.4628205805149" cy="441.71071001663654" r="2.5" fill="grey" stroke="none" />
<path d="M605.4628205805149,441.71071001663654 A120.49916120688351,120.49916120688351,0,0,1,620.375,505.46875" stroke="grey" stroke-width="5" fill="none" />
<circle cx="620.375" cy="433.46875" r="5" fill="black" stroke="none" />
<circle cx="620.375" cy="505.46875" r="5" fill="black" stroke="none" />
<path d="M620.375,505.46875 L581.4147842574586,503.69875058282844" stroke="grey" stroke-width="5" />
<circle cx="581.4147842574586" cy="503.69875058282844" r="2.5" fill="grey" stroke="none" />
<path d="M581.4147842574586,503.69875058282844 A81.49875981610089,81.49875981610089,0,0,1,572.375,537.46875" stroke="grey" stroke-width="5" fill="none" />
<circle cx="620.375" cy="505.46875" r="5" fill="black" stroke="none" />
<circle cx="572.375" cy="537.46875" r="5" fill="black" stroke="none" />
<path d="M620.375,377.46875 A171.7674237204555,171.7674237204555,0,0,1,620.8757119024485,377.9626691391574" stroke="grey" stroke-width="5" fill="none" />
<path d="M620.8757119024485,377.96266913915747 L724.375,273.46875" stroke="grey" stroke-width="5" />
<circle cx="620.8757119024485" cy="377.96266913915747" r="2.5" fill="grey" stroke="none" />
<circle cx="620.375" cy="377.46875" r="5" fill="black" stroke="none" />
<circle cx="724.375" cy="273.46875" r="5" fill="black" stroke="none" />
<path d="M620.375,377.46875 A171.7674237204555,171.7674237204555,0,0,1,659.6628923966766,436.661160074645" stroke="grey" stroke-width="5" fill="none" />
<path d="M659.6628923966766,436.661160074645 L748.375,401.46875" stroke="grey" stroke-width="5" />
<circle cx="659.6628923966766" cy="436.661160074645" r="2.5" fill="grey" stroke="none" />
<circle cx="620.375" cy="377.46875" r="5" fill="black" stroke="none" />
<circle cx="748.375" cy="401.46875" r="5" fill="black" stroke="none" />
<path d="M748.375,401.46875 A267.20506703946035,267.20506703946035,0,0,1,756.430244396271,424.88623554613133" stroke="grey" stroke-width="5" fill="none" />
<path d="M756.430244396271,424.88623554613133 L836.375,401.46875" stroke="grey" stroke-width="5" />
<circle cx="756.430244396271" cy="424.88623554613133" r="2.5" fill="grey" stroke="none" />
<circle cx="748.375" cy="401.46875" r="5" fill="black" stroke="none" />
<circle cx="836.375" cy="401.46875" r="5" fill="black" stroke="none" />
<path d="M620.375,433.46875 A137.53744163522347,137.53744163522347,0,0,1,634.7824414720465,527.3905334449125" stroke="grey" stroke-width="5" fill="none" />
<path d="M634.7824414720465,527.3905334449125 L684.375,537.46875" stroke="grey" stroke-width="5" />
<circle cx="634.7824414720465" cy="527.3905334449125" r="2.5" fill="grey" stroke="none" />
<circle cx="620.375" cy="433.46875" r="5" fill="black" stroke="none" />
<circle cx="684.375" cy="537.46875" r="5" fill="black" stroke="none" />
<circle cx="500" cy="500" r="5" fill="red" stroke="none" />
</svg>