<?xml version="1.0" encoding="UTF-8"?>
<svg xmlns="http://www.w3.org/2000/svg" xmlns:xlink="http://www.w3.org/1999/xlink"
     width="1000" height="1000" viewBox="0 0 1000 1000">
<defs>
</defs>
<rect x="0" y="0" width="1000" height="1000" fill="white" />
<path d="M231.00800000000004,722.398 L341.1617034107531,631.3247958484095" stroke="grey" stroke-width="5" />
<circle cx="341.1617034107531" cy="631.3247958484095" r="2.5" fill="grey" stroke="none" />
<path d="M341.1617034107531,631.3247958484095 A206.09659499370676,206.09659499370676,0,0,0,351.00800000000004,642.398" stroke="grey" stroke-width="5" fill="none" />
<circle cx="231.00800000000004" cy="722.398" r="5" fill="black" stroke="none" />
<circle cx="351.00800000000004" cy="642.398" r="5" fill="black" stroke="none" />
<path d="M351.00800000000004,642.398 L375.49082477023717,618.9987216385293" stroke="grey" stroke-width="5" />
<circle cx="375.49082477023717" cy="618.9987216385293" r="2.5" fill="grey" stroke="none" />
<path d="M375.49082477023717,618.9987216385293 A172.2301671252745,172.2301671252745,0,0,1,351.00800000000004,586.398" stroke="grey" stroke-width="5" fill="none" />
<circle cx="351.00800000000004" cy="642.398" r="5" fill="black" stroke="none" />
<circle cx="351.00800000000004" cy="586.398" r="5" fill="black" stroke="none" />
<path d="M351.00800000000004,586.398 A172.2301671252745,172.2301671252745,0,0,1,337.0120724832467,555.6611709524113" stroke="grey" stroke-width="5" fill="none" />
<path d="M337.0120724832467,555.6611709524113 L247.00800000000004,586.398" stroke="grey" stroke-width="5" />
<circle cx="337.0120724832467" cy="555.6611709524113" r="2.5" fill="grey" stroke="none" />
<circle cx="351.00800000000004" cy="586.398" r="5" fill="black" stroke="none" />
<circle cx="247.00800000000004" cy="586.398" r="5" fill="black" stroke="none" />
<path d="M247.00800000000004,586.398 L297.7504793476025,569.0691962011678" stroke="grey" stroke-width="5" />
<circle cx="297.7504793476025" cy="569.0691962011678" r="2.5" fill="grey" stroke="none" />
<path d="M297.7504793476025,569.0691962011678 A213.71809111069652,213.71809111069652,0,0,1,287.00800000000004,482.3980000000001" stroke="grey" stroke-width="5" fill="none" />
<circle cx="247.00800000000004" cy="586.398" r="5" fill="black" stroke="none" />
<circle cx="287.00800000000004" cy="482.398" r="5" fill="black" stroke="none" />
<path d="M287.00800000000004,482.398 L354.37604951373703,487.96540350595706" stroke="grey" stroke-width="5" />
<circle cx="354.37604951373703" cy="487.96540350595706" r="2.5" fill="grey" stroke="none" />
<path d="M354.37604951373703,487.96540350595706 A146.1203834788288,146.1203834788288,0,0,1,399.00800000000004,394.398" stroke="grey" stroke-width="5" fill="none" />
<circle cx="287.00800000000004" cy="482.398" r="5" fill="black" stroke="none" />
<circle cx="399.00800000000004" cy="394.398" r="5" fill="black" stroke="none" />
<path d="M399.00800000000004,394.398 L432.7514010909472,429.6816921935025" stroke="grey" stroke-width="5" />
<circle cx="432.7514010909472" cy="429.6816921935025" r="2.5" fill="grey" stroke="none" />
<path d="M432.7514010909472,429.6816921935025 A97.2987074323189,97.2987074323189,0,0,1,447.00800000000004,418.398" stroke="grey" stroke-width="5" fill="none" />
<circle cx="399.00800000000004" cy="394.398" r="5" fill="black" stroke="none" />
<circle cx="447.00800000000004" cy="418.398" r="5" fill="black" stroke="none" />
<path d="M447.00800000000004,418.398 A97.2987074323189,97.2987074323189,0,0,0,421.3678291632391,442.693628822805" stroke="grey" stroke-width="5" fill="none" />
<path d="M421.3678291632391,442.693628822805 L399.00800000000004,426.398" stroke="grey" stroke-width="5" />
<circle cx="421.3678291632391" cy="442.693628822805" r="2.5" fill="grey" stroke="none" />
<circle cx="447.00800000000004" cy="418.398" r="5" fill="black" stroke="none" />
<circle cx="399.00800000000004" cy="426.398" r="5" fill="black" stroke="none" />
<path d="M399.00800000000004,394.398 L413.628602278802,409.6859915423603" stroke="grey" stroke-width="5" />
<circle cx="413.628602278802" cy="409.6859915423603" r="2.5" fill="grey" stroke="none" />
<path d="M413.628602278802,409.6859915423603 A124.96654939622839,124.96654939622839,0,0,0,399.00800000000004,426.398" stroke="grey" stroke-width="5" fill="none" />
<circle cx="399.00800000000004" cy="394.398" r="5" fill="black" stroke="none" />
<circle cx="399.00800000000004" cy="426.398" r="5" fill="black" stroke="none" />
<path d="M399.00800000000004,426.398 A124.96654939622839,124.96654939622839,0,0,0,378.9876003557664,531.1871383801766" stroke="grey" stroke-width="5" fill="none" />
<path d="M378.9876003557664,531.1871383801766 L351.00800000000004,538.398" stroke="grey" stroke-width="5" />
<circle cx="378.9876003557664" cy="531.1871383801766" r="2.5" fill="grey" stroke="none" />
<circle cx="399.00800000000004" cy="426.398" r="5" fill="black" stroke="none" />
<circle cx="351.00800000000004" cy="538.398" r="5" fill="black" stroke="none" />
<path d="M287.00800000000004,482.398 L346.6623298285024,487.3279293571651" stroke="grey" stroke-width="5" />
<circle cx="346.6623298285024" cy="487.3279293571651" r="2.5" fill="grey" stroke="none" />
<path d="M346.6623298285024,487.3279293571651 A153.86039928454622,153.86039928454622,0,0,0,351.00800000000004,538.398" stroke="grey" stroke-width="5" fill="none" />
<circle cx="287.00800000000004" cy="482.398" r="5" fill="black" stroke="none" />
<circle cx="351.00800000000004" cy="538.398" r="5" fill="black" stroke="none" />
<path d="M351.00800000000004,538.398 A153.86039928454622,153.86039928454622,0,0,0,366.89922565348866,577.1829407081582" stroke="grey" stroke-width="5" fill="none" />
<path d="M366.89922565348866,577.1829407081582 L351.00800000000004,586.398" stroke="grey" stroke-width="5" />
<circle cx="366.89922565348866" cy="577.1829407081582" r="2.5" fill="grey" stroke="none" />
<circle cx="351.00800000000004" cy="538.398" r="5" fill="black" stroke="none" />
<circle cx="351.00800000000004" cy="586.398" r="5" fill="black" stroke="none" />
<path d="M447.00800000000004,418.398 A97.2987074323189,97.2987074323189,0,0,1,489.6634002532572,403.2519086820023" stroke="grey" stroke-width="5" fill="none" />
<path d="M489.6634002532572,403.2519086820023 L487.00800000000004,378.398" stroke="grey" stroke-width="5" />
<circle cx="489.6634002532572" cy="403.2519086820023" r="2.5" fill="grey" stroke="none" />
<circle cx="447.00800000000004" cy="418.398" r="5" fill="black" stroke="none" />
<circle cx="487.00800000000004" cy="378.398" r="5" fill="black" stroke="none" />
<path d="M447.00800000000004,418.398 L490.0353089932878,484.6554439249372" stroke="grey" stroke-width="5" />
<circle cx="490.0353089932878" cy="484.6554439249372" r="2.5" fill="grey" stroke="none" />
<path d="M490.0353089932878,484.6554439249372 A18.29618725308633,18.29618725308633,0,0,1,495.00800000000004,482.398" stroke="grey" stroke-width="5" fill="none" />
<circle cx="447.00800000000004" cy="418.398" r="5" fill="black" stroke="none" />
<circle cx="495.00800000000004" cy="482.398" r="5" fill="black" stroke="none" />
<path d="M399.00800000000004,426.398 L454.8736685286897,467.1123628708078" stroke="grey" stroke-width="5" />
<circle cx="454.8736685286897" cy="467.1123628708078" r="2.5" fill="grey" stroke="none" />
<path d="M454.8736685286897,467.1123628708078 A55.838897446135114,55.838897446135114,0,0,0,447.00800000000004,482.398" stroke="grey" stroke-width="5" fill="none" />
<circle cx="399.00800000000004" cy="426.398" r="5" fill="black" stroke="none" />
<circle cx="447.00800000000004" cy="482.398" r="5" fill="black" stroke="none" />
<path d="M351.00800000000004,538.398 L395.37341703528705,526.964209707092" stroke="grey" stroke-width="5" />
<circle cx="395.37341703528705" cy="526.964209707092" r="2.5" fill="grey" stroke="none" />
<path d="M395.37341703528705,526.964209707092 A108.04531673330406,108.04531673330406,0,0,0,399.00800000000004,538.398" stroke="grey" stroke-width="5" fill="none" />
<circle cx="351.00800000000004" cy="538.398" r="5" fill="black" stroke="none" />
<circle cx="399.00800000000004" cy="538.398" r="5" fill="black" stroke="none" />
<path d="M351.00800000000004,586.398 L412.32062717280536,550.843820161646" stroke="grey" stroke-width="5" />
<circle cx="412.32062717280536" cy="550.843820161646" r="2.5" fill="grey" stroke="none" />
<path d="M412.32062717280536,550.843820161646 A101.35465686390538,101.35465686390538,0,0,0,447.008,586.398" stroke="grey" stroke-width="5" fill="none" />
<circle cx="351.00800000000004" cy="586.398" r="5" fill="black" stroke="none" />
<circle cx="447.00800000000004" cy="586.398" r="5" fill="black" stroke="none" />
<path d="M351.00800000000004,642.398 L390.16005820360874,604.9787104805797" stroke="grey" stroke-width="5" />
<circle cx="390.16005820360874" cy="604.9787104805797" r="2.5" fill="grey" stroke="none" />
<path d="M390.16005820360874,604.9787104805797 A151.93861414400226,151.93861414400226,0,0,0,447.00800000000004,642.398" stroke="grey" stroke-width="5" fill="none" />
<circle cx="351.00800000000004" cy="642.398" r="5" fill="black" stroke="none" />
<circle cx="447.00800000000004" cy="642.398" r="5" fill="black" stroke="none" />
<path d="M495.00800000000004,482.398 A18.29618725308633,18.29618725308633,0,0,0,482.63662788380043,494.23252423027355" stroke="grey" stroke-width="5" fill="none" />
<path d="M482.63662788380043,494.23252423027355 L447.00800000000004,482.398" stroke="grey" stroke-width="5" />
<circle cx="482.63662788380043" cy="494.23252423027355" r="2.5" fill="grey" stroke="none" />
<circle cx="495.00800000000004" cy="482.398" r="5" fill="black" stroke="none" />
<circle cx="447.00800000000004" cy="482.398" r="5" fill="black" stroke="none" />
<path d="M447.00800000000004,482.398 A55.838897446135114,55.838897446135114,0,0,0,447.80632699888406,519.8444694222993" stroke="grey" stroke-width="5" fill="none" />
<path d="M447.80632699888406,519.8444694222993 L399.00800000000004,538.398" stroke="grey" stroke-width="5" />
<circle cx="447.80632699888406" cy="519.8444694222993" r="2.5" fill="grey" stroke="none" />
<circle cx="447.00800000000004" cy="482.398" r="5" fill="black" stroke="none" />
<circle cx="399.00800000000004" cy="538.398" r="5" fill="black" stroke="none" />
<path d="M399.00800000000004,538.398 L405.26188625772835,536.0202203290929" stroke="grey" stroke-width="5" />
<circle cx="405.26188625772835" cy="536.0202203290929" r="2.5" fill="grey" stroke="none" />
<path d="M405.26188625772835,536.0202203290929 A101.35465686390538,101.35465686390538,0,0,0,447.008,586.398" stroke="grey" stroke-width="5" fill="none" />
<circle cx="399.00800000000004" cy="538.398" r="5" fill="black" stroke="none" />
<circle cx="447.00800000000004" cy="586.398" r="5" fill="black" stroke="none" />
<path d="M447.008,586.398 A101.35465686390538,101.35465686390538,0,0,0,464.6502898108467,594.9903387589648" stroke="grey" stroke-width="5" fill="none" />
<path d="M464.6502898108467,594.9903387589648 L447.00800000000004,642.398" stroke="grey" stroke-width="5" />
<circle cx="464.6502898108467" cy="594.9903387589648" r="2.5" fill="grey" stroke="none" />
<circle cx="447.00800000000004" cy="586.398" r="5" fill="black" stroke="none" />
<circle cx="447.00800000000004" cy="642.398" r="5" fill="black" stroke="none" />
<path d="M447.00800000000004,642.398 A151.93861414400226,151.93861414400226,0,0,0,512.9387775110241,651.3866919663687" stroke="grey" stroke-width="5" fill="none" />
<path d="M512.9387775110241,651.3866919663687 L519.008,722.398" stroke="grey" stroke-width="5" />
<circle cx="512.9387775110241" cy="651.3866919663687" r="2.5" fill="grey" stroke="none" />
<circle cx="447.00800000000004" cy="642.398" r="5" fill="black" stroke="none" />
<circle cx="519.008" cy="722.398" r="5" fill="black" stroke="none" />
<path d="M495.00800000000004,482.398 A18.29618725308633,18.29618725308633,0,0,0,482.13368901724056,503.94276551006124" stroke="grey" stroke-width="5" fill="none" />
<path d="M482.13368901724056,503.94276551006124 L471.00800000000004,506.398" stroke="grey" stroke-width="5" />
<circle cx="482.13368901724056" cy="503.94276551006124" r="2.5" fill="grey" stroke="none" />
<circle cx="495.00800000000004" cy="482.398" r="5" fill="black" stroke="none" />
<circle cx="471.00800000000004" cy="506.398" r="5" fill="black" stroke="none" />
<path d="M471.00800000000004,506.398 A29.689568336370236,29.689568336370236,0,0,0,475.9584455881958,517.4205088750086" stroke="grey" stroke-width="5" fill="none" />
<path d="M475.9584455881958,517.4205088750086 L447.00800000000004,538.398" stroke="grey" stroke-width="5" />
<circle cx="475.9584455881958" cy="517.4205088750086" r="2.5" fill="grey" stroke="none" />
<circle cx="471.00800000000004" cy="506.398" r="5" fill="black" stroke="none" />
<circle cx="447.00800000000004" cy="538.398" r="5" fill="black" stroke="none" />
<path d="M447.00800000000004,538.398 A65.44125967614008,65.44125967614008,0,0,0,465.7848653425514,555.7842543050695" stroke="grey" stroke-width="5" fill="none" />
<path d="M465.7848653425515,555.7842543050695 L447.00800000000004,586.398" stroke="grey" stroke-width="5" />
<circle cx="465.7848653425515" cy="555.7842543050695" r="2.5" fill="grey" stroke="none" />
<circle cx="447.00800000000004" cy="538.398" r="5" fill="black" stroke="none" />
<circle cx="447.00800000000004" cy="586.398" r="5" fill="black" stroke="none" />
<path d="M447.00800000000004,482.398 L471.82412839009544,490.6410082261938" stroke="grey" stroke-width="5" />
<circle cx="471.82412839009544" cy="490.6410082261938" r="2.5" fill="grey" stroke="none" />
<path d="M471.82412839009544,490.6410082261938 A29.689568336370236,29.689568336370236,0,0,0,471.00800000000004,506.398" stroke="grey" stroke-width="5" fill="none" />
<circle cx="447.00800000000004" cy="482.398" r="5" fill="black" stroke="none" />
<circle cx="471.00800000000004" cy="506.398" r="5" fill="black" stroke="none" />
<path d="M399.00800000000004,538.398 L438.83081750293434,523.2570329285719" stroke="grey" stroke-width="5" />
<circle cx="438.83081750293434" cy="523.2570329285719" r="2.5" fill="grey" stroke="none" />
<path d="M438.83081750293434,523.2570329285719 A65.44125967614008,65.44125967614008,0,0,0,447.00800000000004,538.398" stroke="grey" stroke-width="5" fill="none" />
<circle cx="399.00800000000004" cy="538.398" r="5" fill="black" stroke="none" />
<circle cx="447.00800000000004" cy="538.398" r="5" fill="black" stroke="none" />
<path d="M495.00800000000004,482.398 A18.29618725308633,18.29618725308633,0,0,0,497.64122199622915,518.1435011596143" stroke="grey" stroke-width="5" fill="none" />
<path d="M497.64122199622915,518.1435011596143 L495.00800000000004,538.398" stroke="grey" stroke-width="5" />
<circle cx="497.64122199622915" cy="518.1435011596143" r="2.5" fill="grey" stroke="none" />
<circle cx="495.00800000000004" cy="482.398" r="5" fill="black" stroke="none" />
<circle cx="495.00800000000004" cy="538.398" r="5" fill="black" stroke="none" />
<path d="M471.00800000000004,506.398 A29.689568336370236,29.689568336370236,0,0,0,496.17236641904896,529.4418017310418" stroke="grey" stroke-width="5" fill="none" />
<path d="M496.17236641904896,529.4418017310418 L495.00800000000004,538.398" stroke="grey" stroke-width="5" />
<circle cx="496.17236641904896" cy="529.4418017310418" r="2.5" fill="grey" stroke="none" />
<circle cx="471.00800000000004" cy="506.398" r="5" fill="black" stroke="none" />
<circle cx="495.00800000000004" cy="538.398" r="5" fill="black" stroke="none" />
<path d="M447.00800000000004,538.398 L468.64500295404326,522.7198289660826" stroke="grey" stroke-width="5" />
<circle cx="468.64500295404326" cy="522.7198289660826" r="2.5" fill="grey" stroke="none" />
<path d="M468.64500295404326,522.7198289660826 A38.721137225035136,38.721137225035136,0,0,0,495.00800000000004,538.398" stroke="grey" stroke-width="5" fill="none" />
<circle cx="447.00800000000004" cy="538.398" r="5" fill="black" stroke="none" />
<circle cx="495.00800000000004" cy="538.398" r="5" fill="black" stroke="none" />
<path d="M447.00800000000004,586.398 L479.7551433025492,533.0071544562643" stroke="grey" stroke-width="5" />
<circle cx="479.7551433025492" cy="533.0071544562643" r="2.5" fill="grey" stroke="none" />
<path d="M479.7551433025492,533.0071544562642 A38.721137225035136,38.721137225035136,0,0,0,495.00800000000004,538.398" stroke="grey" stroke-width="5" fill="none" />
<circle cx="447.00800000000004" cy="586.398" r="5" fill="black" stroke="none" />
<circle cx="495.00800000000004" cy="538.398" r="5" fill="black" stroke="none" />
<path d="M495.00800000000004,538.398 A38.721137225035136,38.721137225035136,0,0,0,498.25088674817056,538.6816115335475" stroke="grey" stroke-width="5" fill="none" />
<path d="M498.25088674817056,538.6816115335475 L495.00800000000004,610.398" stroke="grey" stroke-width="5" />
<circle cx="498.25088674817056" cy="538.6816115335475" r="2.5" fill="grey" stroke="none" />
<circle cx="495.00800000000004" cy="538.398" r="5" fill="black" stroke="none" />
<circle cx="495.00800000000004" cy="610.398" r="5" fill="black" stroke="none" />
<path d="M495.00800000000004,610.398 A110.51080701904228,110.51080701904228,0,0,1,461.4568770516573,603.5715508302784" stroke="grey" stroke-width="5" fill="none" />
<path d="M461.4568770516573,603.5715508302784 L447.00800000000004,642.398" stroke="grey" stroke-width="5" />
<circle cx="461.4568770516573" cy="603.5715508302784" r="2.5" fill="grey" stroke="none" />
<circle cx="495.00800000000004" cy="610.398" r="5" fill="black" stroke="none" />
<circle cx="447.00800000000004" cy="642.398" r="5" fill="black" stroke="none" />
<path d="M495.00800000000004,482.398 A18.29618725308633,18.29618725308633,0,0,1,511.55193889508564,485.8118649652533" stroke="grey" stroke-width="5" fill="none" />
<path d="M511.55193889508564,485.8118649652533 L599.008,378.398" stroke="grey" stroke-width="5" />
<circle cx="511.55193889508564" cy="485.8118649652533" r="2.5" fill="grey" stroke="none" />
<circle cx="495.00800000000004" cy="482.398" r="5" fill="black" stroke="none" />
<circle cx="599.008" cy="378.398" r="5" fill="black" stroke="none" />
<path d="M495.00800000000004,482.398 A18.29618725308633,18.29618725308633,0,0,1,518.2714886572827,500.95035269599776" stroke="grey" stroke-width="5" fill="none" />
<path d="M518.2714886572827,500.95035269599776 L623.008,506.398" stroke="grey" stroke-width="5" />
<circle cx="518.2714886572827" cy="500.95035269599776" r="2.5" fill="grey" stroke="none" />
<circle cx="495.00800000000004" cy="482.398" r="5" fill="black" stroke="none" />
<circle cx="623.008" cy="506.398" r="5" fill="black" stroke="none" />
<path d="M623.008,506.398 A123.17427681135379,123.17427681135379,0,0,0,623.117694416821,503.7330670347988" stroke="grey" stroke-width="5" fill="none" />
<path d="M623.117694416821,503.7330670347988 L711.008,506.398" stroke="grey" stroke-width="5" />
<circle cx="623.117694416821" cy="503.7330670347988" r="2.5" fill="grey" stroke="none" />
<circle cx="623.008" cy="506.398" r="5" fill="black" stroke="none" />
<circle cx="711.008" cy="506.398" r="5" fill="black" stroke="none" />
<path d="M495.00800000000004,538.398 A38.721137225035136,38.721137225035136,0,0,0,514.8232588045978,535.7714616197314" stroke="grey" stroke-width="5" fill="none" />
<path d="M514.8232588045978,535.7714616197314 L559.008,642.398" stroke="grey" stroke-width="5" />
<circle cx="514.8232588045978" cy="535.7714616197314" r="2.5" fill="grey" stroke="none" />
<circle cx="495.00800000000004" cy="538.398" r="5" fill="black" stroke="none" />
<circle cx="559.008" cy="642.398" r="5" fill="black" stroke="none" />
<circle cx="500" cy="500" r="5" fill="red" stroke="none" />
</svg>