<?xml version="1.0" encoding="UTF-8"?>
<svg xmlns="http://www.w3.org/2000/svg" xmlns:xlink="http://www.w3.org/1999/xlink"
     width="1000" height="1000" viewBox="0 0 1000 1000">
<defs>
</defs>
<rect x="0" y="0" width="1000" height="1000" fill="white" />
<path d="M311.52456799999993,636.893838 L427.96814803101216,552.3183131596833" stroke="grey" stroke-width="5" />
<circle cx="427.96814803101216" cy="552.3183131596833" r="2.5" fill="grey" stroke="none" />
<path d="M427.96814803101216,552.3183131596833 A89.02692620750685,89.02692620750685,0,0,0,431.524568,556.893838" stroke="grey" stroke-width="5" fill="none" />
<circle cx="311.52456799999993" cy="636.893838" r="5" fill="black" stroke="none" />
<circle cx="431.52456799999993" cy="556.893838" r="5" fill="black" stroke="none" />
<path d="M431.52456799999993,556.893838 L447.3273486627343,543.7638610620648" stroke="grey" stroke-width="5" />
<circle cx="447.3273486627343" cy="543.7638610620648" r="2.5" fill="grey" stroke="none" />
<path d="M447.3273486627344,543.763861062065 A68.4812655691823,68.4812655691823,0,0,1,431.52456799999993,500.8938379999999" stroke="grey" stroke-width="5" fill="none" />
<circle cx="431.52456799999993" cy="556.893838" r="5" fill="black" stroke="none" />
<circle cx="431.52456799999993" cy="500.89383799999996" r="5" fill="black" stroke="none" />
<path d="M431.52456799999993,500.8938379999999 A68.4812655691823,68.4812655691823,0,0,1,431.5196540249244,500.3548930695571" stroke="grey" stroke-width="5" fill="none" />
<path d="M431.5196540249244,500.3548930695571 L327.52456799999993,500.89383799999996" stroke="grey" stroke-width="5" />
<circle cx="431.5196540249244" cy="500.3548930695571" r="2.5" fill="grey" stroke="none" />
<circle cx="431.52456799999993" cy="500.89383799999996" r="5" fill="black" stroke="none" />
<circle cx="327.52456799999993" cy="500.89383799999996" r="5" fill="black" stroke="none" />
<path d="M327.52456799999993,500.89383799999996 L332.1314088654068,500.8699634726095" stroke="grey" stroke-width="5" />
<circle cx="332.1314088654068" cy="500.8699634726095" r="2.5" fill="grey" stroke="none" />
<path d="M332.1314088654068,500.86996347260947 A167.87084537213985,167.87084537213985,0,0,1,367.52456799999993,396.89383799999996" stroke="grey" stroke-width="5" fill="none" />
<circle cx="327.52456799999993" cy="500.89383799999996" r="5" fill="black" stroke="none" />
<circle cx="367.52456799999993" cy="396.89383799999996" r="5" fill="black" stroke="none" />
<path d="M367.52456799999993,396.89383799999996 A167.87084537213985,167.87084537213985,0,0,1,482.11639153961505,333.08446065631716" stroke="grey" stroke-width="5" fill="none" />
<path d="M482.116391539615,333.08446065631716 L479.52456799999993,308.89383799999996" stroke="grey" stroke-width="5" />
<circle cx="482.116391539615" cy="333.08446065631716" r="2.5" fill="grey" stroke="none" />
<circle cx="367.52456799999993" cy="396.89383799999996" r="5" fill="black" stroke="none" />
<circle cx="479.52456799999993" cy="308.89383799999996" r="5" fill="black" stroke="none" />
<path d="M479.52456799999993,308.89383799999996 L481.95798122487895,331.6059479064802" stroke="grey" stroke-width="5" />
<circle cx="481.95798122487895" cy="331.6059479064802" r="2.5" fill="grey" stroke="none" />
<path d="M481.957981224879,331.6059479064802 A169.35782007913565,169.35782007913565,0,0,1,527.5245679999999,332.89383799999996" stroke="grey" stroke-width="5" fill="none" />
<circle cx="479.52456799999993" cy="308.89383799999996" r="5" fill="black" stroke="none" />
<circle cx="527.5245679999999" cy="332.89383799999996" r="5" fill="black" stroke="none" />
<path d="M527.5245679999999,332.89383799999996 L526.0716804054412,341.7145566301392" stroke="grey" stroke-width="5" />
<circle cx="526.0716804054412" cy="341.7145566301392" r="2.5" fill="grey" stroke="none" />
<path d="M526.0716804054412,341.7145566301392 A160.41824740956648,160.41824740956648,0,0,0,479.524568,340.89383799999996" stroke="grey" stroke-width="5" fill="none" />
<circle cx="527.5245679999999" cy="332.89383799999996" r="5" fill="black" stroke="none" />
<circle cx="479.52456799999993" cy="340.89383799999996" r="5" fill="black" stroke="none" />
<path d="M479.52456799999993,308.89383799999996 L482.9103313311248,340.4946479683364" stroke="grey" stroke-width="5" />
<circle cx="482.9103313311248" cy="340.4946479683364" r="2.5" fill="grey" stroke="none" />
<path d="M482.9103313311248,340.4946479683364 A160.41824740956648,160.41824740956648,0,0,0,479.524568,340.89383799999996" stroke="grey" stroke-width="5" fill="none" />
<circle cx="479.52456799999993" cy="308.89383799999996" r="5" fill="black" stroke="none" />
<circle cx="479.52456799999993" cy="340.89383799999996" r="5" fill="black" stroke="none" />
<path d="M479.52456799999993,340.89383799999996 L489.39155936767634,417.5661703345808" stroke="grey" stroke-width="5" />
<circle cx="489.39155936767634" cy="417.5661703345808" r="2.5" fill="grey" stroke="none" />
<path d="M489.39155936767634,417.5661703345808 A83.11362876181546,83.11362876181546,0,0,0,431.52456799999993,452.89383799999996" stroke="grey" stroke-width="5" fill="none" />
<circle cx="479.52456799999993" cy="340.89383799999996" r="5" fill="black" stroke="none" />
<circle cx="431.52456799999993" cy="452.89383799999996" r="5" fill="black" stroke="none" />
<path d="M367.52456799999993,396.89383799999996 L434.41080343104977,448.95166428377433" stroke="grey" stroke-width="5" />
<circle cx="434.41080343104977" cy="448.95166428377433" r="2.5" fill="grey" stroke="none" />
<path d="M434.41080343104977,448.95166428377433 A83.11362876181546,83.11362876181546,0,0,0,431.52456799999993,452.89383799999996" stroke="grey" stroke-width="5" fill="none" />
<circle cx="367.52456799999993" cy="396.89383799999996" r="5" fill="black" stroke="none" />
<circle cx="431.52456799999993" cy="452.89383799999996" r="5" fill="black" stroke="none" />
<path d="M431.52456799999993,452.89383799999996 L443.57983986964524,461.1869961891378" stroke="grey" stroke-width="5" />
<circle cx="443.57983986964524" cy="461.1869961891378" r="2.5" fill="grey" stroke="none" />
<path d="M443.57983986964524,461.1869961891378 A68.4812655691823,68.4812655691823,0,0,0,431.52456799999993,500.8938379999999" stroke="grey" stroke-width="5" fill="none" />
<circle cx="431.52456799999993" cy="452.89383799999996" r="5" fill="black" stroke="none" />
<circle cx="431.52456799999993" cy="500.89383799999996" r="5" fill="black" stroke="none" />
<path d="M527.5245679999999,332.89383799999996 A169.35782007913565,169.35782007913565,0,0,1,552.4973504278676,338.98416407070215" stroke="grey" stroke-width="5" fill="none" />
<path d="M552.4973504278676,338.98416407070215 L567.5245679999999,292.89383799999996" stroke="grey" stroke-width="5" />
<circle cx="552.4973504278676" cy="338.98416407070215" r="2.5" fill="grey" stroke="none" />
<circle cx="527.5245679999999" cy="332.89383799999996" r="5" fill="black" stroke="none" />
<circle cx="567.5245679999999" cy="292.89383799999996" r="5" fill="black" stroke="none" />
<path d="M527.5245679999999,332.89383799999996 L520.7717320850749,373.8914112356231" stroke="grey" stroke-width="5" />
<circle cx="520.7717320850749" cy="373.8914112356231" r="2.5" fill="grey" stroke="none" />
<path d="M520.7717320850749,373.8914112356231 A127.80782845333407,127.80782845333407,0,0,1,575.5245679999999,396.89383799999996" stroke="grey" stroke-width="5" fill="none" />
<circle cx="527.5245679999999" cy="332.89383799999996" r="5" fill="black" stroke="none" />
<circle cx="575.5245679999999" cy="396.89383799999996" r="5" fill="black" stroke="none" />
<path d="M479.52456799999993,340.89383799999996 L486.3788983079681,394.15602013032486" stroke="grey" stroke-width="5" />
<circle cx="486.3788983079681" cy="394.15602013032486" r="2.5" fill="grey" stroke="none" />
<path d="M486.3788983079681,394.15602013032486 A106.71683318931869,106.71683318931869,0,0,1,527.5245679999999,396.89383799999996" stroke="grey" stroke-width="5" fill="none" />
<circle cx="479.52456799999993" cy="340.89383799999996" r="5" fill="black" stroke="none" />
<circle cx="527.5245679999999" cy="396.89383799999996" r="5" fill="black" stroke="none" />
<path d="M431.52456799999993,452.89383799999996 L457.68258038852616,470.88866524215484" stroke="grey" stroke-width="5" />
<circle cx="457.68258038852616" cy="470.88866524215484" r="2.5" fill="grey" stroke="none" />
<path d="M457.68258038852616,470.88866524215484 A51.36374026447912,51.36374026447912,0,0,1,479.52456799999993,452.89383799999996" stroke="grey" stroke-width="5" fill="none" />
<circle cx="431.52456799999993" cy="452.89383799999996" r="5" fill="black" stroke="none" />
<circle cx="479.52456799999993" cy="452.89383799999996" r="5" fill="black" stroke="none" />
<path d="M431.52456799999993,500.89383799999996 L472.4632684059627,500.3594482922656" stroke="grey" stroke-width="5" />
<circle cx="472.4632684059627" cy="500.3594482922656" r="2.5" fill="grey" stroke="none" />
<path d="M472.4632684059627,500.3594482922656 A27.53907750736879,27.53907750736879,0,0,0,527.5245679999999,500.89383799999996" stroke="grey" stroke-width="5" fill="none" />
<circle cx="431.52456799999993" cy="500.89383799999996" r="5" fill="black" stroke="none" />
<circle cx="527.5245679999999" cy="500.89383799999996" r="5" fill="black" stroke="none" />
<path d="M431.52456799999993,556.893838 L451.3878092512084,540.3901665824736" stroke="grey" stroke-width="5" />
<circle cx="451.3878092512084" cy="540.3901665824736" r="2.5" fill="grey" stroke="none" />
<path d="M451.38780925120847,540.3901665824736 A63.2021411500976,63.2021411500976,0,0,0,527.5245679999999,556.893838" stroke="grey" stroke-width="5" fill="none" />
<circle cx="431.52456799999993" cy="556.893838" r="5" fill="black" stroke="none" />
<circle cx="527.5245679999999" cy="556.893838" r="5" fill="black" stroke="none" />
<path d="M575.5245679999999,396.89383799999996 L563.061416679137,413.9085357751586" stroke="grey" stroke-width="5" />
<circle cx="563.061416679137" cy="413.9085357751586" r="2.5" fill="grey" stroke="none" />
<path d="M563.0614166791369,413.9085357751586 A106.71683318931869,106.71683318931869,0,0,0,527.5245679999999,396.89383799999996" stroke="grey" stroke-width="5" fill="none" />
<circle cx="575.5245679999999" cy="396.89383799999996" r="5" fill="black" stroke="none" />
<circle cx="527.5245679999999" cy="396.89383799999996" r="5" fill="black" stroke="none" />
<path d="M527.5245679999999,396.89383799999996 L513.2478140457554,450.37410719225335" stroke="grey" stroke-width="5" />
<circle cx="513.2478140457554" cy="450.37410719225335" r="2.5" fill="grey" stroke="none" />
<path d="M513.2478140457554,450.37410719225335 A51.36374026447912,51.36374026447912,0,0,0,479.52456799999993,452.89383799999996" stroke="grey" stroke-width="5" fill="none" />
<circle cx="527.5245679999999" cy="396.89383799999996" r="5" fill="black" stroke="none" />
<circle cx="479.52456799999993" cy="452.89383799999996" r="5" fill="black" stroke="none" />
<path d="M479.52456799999993,452.89383799999996 L489.0219344241406,474.7436569121934" stroke="grey" stroke-width="5" />
<circle cx="489.0219344241406" cy="474.7436569121934" r="2.5" fill="grey" stroke="none" />
<path d="M489.0219344241406,474.7436569121934 A27.53907750736879,27.53907750736879,0,0,1,527.5245679999999,500.89383799999996" stroke="grey" stroke-width="5" fill="none" />
<circle cx="479.52456799999993" cy="452.89383799999996" r="5" fill="black" stroke="none" />
<circle cx="527.5245679999999" cy="500.89383799999996" r="5" fill="black" stroke="none" />
<path d="M527.5245679999999,500.89383799999996 A27.53907750736879,27.53907750736879,0,0,1,511.9932837355728,524.7903597229832" stroke="grey" stroke-width="5" fill="none" />
<path d="M511.9932837355728,524.7903597229832 L527.5245679999999,556.893838" stroke="grey" stroke-width="5" />
<circle cx="511.9932837355728" cy="524.7903597229832" r="2.5" fill="grey" stroke="none" />
<circle cx="527.5245679999999" cy="500.89383799999996" r="5" fill="black" stroke="none" />
<circle cx="527.5245679999999" cy="556.893838" r="5" fill="black" stroke="none" />
<path d="M527.5245679999999,556.893838 A63.2021411500976,63.2021411500976,0,0,0,537.1652625695538,551.119995149579" stroke="grey" stroke-width="5" fill="none" />
<path d="M537.1652625695538,551.119995149579 L599.5245679999999,636.893838" stroke="grey" stroke-width="5" />
<circle cx="537.1652625695538" cy="551.119995149579" r="2.5" fill="grey" stroke="none" />
<circle cx="527.5245679999999" cy="556.893838" r="5" fill="black" stroke="none" />
<circle cx="599.5245679999999" cy="636.893838" r="5" fill="black" stroke="none" />
<path d="M575.5245679999999,396.89383799999996 L555.786892774289,423.8397179065961" stroke="grey" stroke-width="5" />
<circle cx="555.786892774289" cy="423.8397179065961" r="2.5" fill="grey" stroke="none" />
<path d="M555.786892774289,423.8397179065961 A94.4063873578312,94.4063873578312,0,0,0,551.5245679999999,420.89383799999996" stroke="grey" stroke-width="5" fill="none" />
<circle cx="575.5245679999999" cy="396.89383799999996" r="5" fill="black" stroke="none" />
<circle cx="551.5245679999999" cy="420.89383799999996" r="5" fill="black" stroke="none" />
<path d="M551.5245679999999,420.89383799999996 L529.7764322584206,454.2839587899766" stroke="grey" stroke-width="5" />
<circle cx="529.7764322584206" cy="454.2839587899766" r="2.5" fill="grey" stroke="none" />
<path d="M529.7764322584206,454.2839587899766 A54.55815559526247,54.55815559526247,0,0,0,527.5245679999999,452.89383799999996" stroke="grey" stroke-width="5" fill="none" />
<circle cx="551.5245679999999" cy="420.89383799999996" r="5" fill="black" stroke="none" />
<circle cx="527.5245679999999" cy="452.89383799999996" r="5" fill="black" stroke="none" />
<path d="M527.5245679999999,452.89383799999996 L513.8934537511136,476.22243215081636" stroke="grey" stroke-width="5" />
<circle cx="513.8934537511136" cy="476.22243215081636" r="2.5" fill="grey" stroke="none" />
<path d="M513.8934537511136,476.22243215081636 A27.53907750736879,27.53907750736879,0,0,1,527.5245679999999,500.89383799999996" stroke="grey" stroke-width="5" fill="none" />
<circle cx="527.5245679999999" cy="452.89383799999996" r="5" fill="black" stroke="none" />
<circle cx="527.5245679999999" cy="500.89383799999996" r="5" fill="black" stroke="none" />
<path d="M527.5245679999999,396.89383799999996 L524.3494390791672,408.787770608943" stroke="grey" stroke-width="5" />
<circle cx="524.3494390791672" cy="408.787770608943" r="2.5" fill="grey" stroke="none" />
<path d="M524.3494390791672,408.787770608943 A94.4063873578312,94.4063873578312,0,0,1,551.5245679999999,420.89383799999996" stroke="grey" stroke-width="5" fill="none" />
<circle cx="527.5245679999999" cy="396.89383799999996" r="5" fill="black" stroke="none" />
<circle cx="551.5245679999999" cy="420.89383799999996" r="5" fill="black" stroke="none" />
<path d="M479.52456799999993,452.89383799999996 A51.36374026447912,51.36374026447912,0,0,1,525.9129867243305,455.65193428139685" stroke="grey" stroke-width="5" fill="none" />
<path d="M525.9129867243305,455.6519342813968 L527.5245679999999,452.89383799999996" stroke="grey" stroke-width="5" />
<circle cx="525.9129867243305" cy="455.6519342813968" r="2.5" fill="grey" stroke="none" />
<circle cx="479.52456799999993" cy="452.89383799999996" r="5" fill="black" stroke="none" />
<circle cx="527.5245679999999" cy="452.89383799999996" r="5" fill="black" stroke="none" />
<path d="M575.5245679999999,396.89383799999996 L552.5986109567486,428.19236116277415" stroke="grey" stroke-width="5" />
<circle cx="552.5986109567486" cy="428.19236116277415" r="2.5" fill="grey" stroke="none" />
<path d="M552.5986109567486,428.19236116277415 A89.01095926882748,89.01095926882748,0,0,1,575.5245679999999,452.89383799999996" stroke="grey" stroke-width="5" fill="none" />
<circle cx="575.5245679999999" cy="396.89383799999996" r="5" fill="black" stroke="none" />
<circle cx="575.5245679999999" cy="452.89383799999996" r="5" fill="black" stroke="none" />
<path d="M551.5245679999999,420.89383799999996 L548.5798826959508,425.4148415084842" stroke="grey" stroke-width="5" />
<circle cx="548.5798826959508" cy="425.4148415084842" r="2.5" fill="grey" stroke="none" />
<path d="M548.5798826959508,425.4148415084842 A89.01095926882748,89.01095926882748,0,0,1,575.5245679999999,452.89383799999996" stroke="grey" stroke-width="5" fill="none" />
<circle cx="551.5245679999999" cy="420.89383799999996" r="5" fill="black" stroke="none" />
<circle cx="575.5245679999999" cy="452.89383799999996" r="5" fill="black" stroke="none" />
<path d="M527.5245679999999,452.89383799999996 A54.55815559526247,54.55815559526247,0,0,1,546.2918405335287,471.12686643304505" stroke="grey" stroke-width="5" fill="none" />
<path d="M546.2918405335287,471.12686643304505 L575.5245679999999,452.89383799999996" stroke="grey" stroke-width="5" />
<circle cx="546.2918405335287" cy="471.12686643304505" r="2.5" fill="grey" stroke="none" />
<circle cx="527.5245679999999" cy="452.89383799999996" r="5" fill="black" stroke="none" />
<circle cx="575.5245679999999" cy="452.89383799999996" r="5" fill="black" stroke="none" />
<path d="M527.5245679999999,500.89383799999996 A27.53907750736879,27.53907750736879,0,0,0,523.36652642492,485.42583680651353" stroke="grey" stroke-width="5" fill="none" />
<path d="M523.36652642492,485.42583680651353 L575.5245679999999,452.89383799999996" stroke="grey" stroke-width="5" />
<circle cx="523.36652642492" cy="485.42583680651353" r="2.5" fill="grey" stroke="none" />
<circle cx="527.5245679999999" cy="500.89383799999996" r="5" fill="black" stroke="none" />
<circle cx="575.5245679999999" cy="452.89383799999996" r="5" fill="black" stroke="none" />
<path d="M575.5245679999999,452.89383799999996 L567.4728641238936,457.9158444438355" stroke="grey" stroke-width="5" />
<circle cx="567.4728641238936" cy="457.9158444438355" r="2.5" fill="grey" stroke="none" />
<path d="M567.4728641238936,457.9158444438355 A79.52146591931552,79.52146591931552,0,0,1,575.5245679999999,524.893838" stroke="grey" stroke-width="5" fill="none" />
<circle cx="575.5245679999999" cy="452.89383799999996" r="5" fill="black" stroke="none" />
<circle cx="575.5245679999999" cy="524.893838" r="5" fill="black" stroke="none" />
<path d="M575.5245679999999,524.893838 L560.0254830799934,519.785146624938" stroke="grey" stroke-width="5" />
<circle cx="560.0254830799934" cy="519.785146624938" r="2.5" fill="grey" stroke="none" />
<path d="M560.0254830799934,519.785146624938 A63.2021411500976,63.2021411500976,0,0,1,527.5245679999999,556.893838" stroke="grey" stroke-width="5" fill="none" />
<circle cx="575.5245679999999" cy="524.893838" r="5" fill="black" stroke="none" />
<circle cx="527.5245679999999" cy="556.893838" r="5" fill="black" stroke="none" />
<path d="M575.5245679999999,396.89383799999996 A127.80782845333407,127.80782845333407,0,0,1,583.7139203209708,403.4245343865689" stroke="grey" stroke-width="5" fill="none" />
<path d="M583.7139203209708,403.4245343865689 L679.5245679999999,292.89383799999996" stroke="grey" stroke-width="5" />
<circle cx="583.7139203209708" cy="403.4245343865689" r="2.5" fill="grey" stroke="none" />
<circle cx="575.5245679999999" cy="396.89383799999996" r="5" fill="black" stroke="none" />
<circle cx="679.5245679999999" cy="292.89383799999996" r="5" fill="black" stroke="none" />
<path d="M575.5245679999999,396.89383799999996 A127.80782845333407,127.80782845333407,0,0,1,619.1258510651408,453.69802788257533" stroke="grey" stroke-width="5" fill="none" />
<path d="M619.1258510651408,453.69802788257533 L703.5245679999999,420.89383799999996" stroke="grey" stroke-width="5" />
<circle cx="619.1258510651408" cy="453.69802788257533" r="2.5" fill="grey" stroke="none" />
<circle cx="575.5245679999999" cy="396.89383799999996" r="5" fill="black" stroke="none" />
<circle cx="703.5245679999999" cy="420.89383799999996" r="5" fill="black" stroke="none" />
<path d="M703.524568,420.89383799999996 A218.35758435638746,218.35758435638746,0,0,1,710.7368238551464,442.81586131275674" stroke="grey" stroke-width="5" fill="none" />
<path d="M710.7368238551464,442.81586131275674 L791.5245679999999,420.89383799999996" stroke="grey" stroke-width="5" />
<circle cx="710.7368238551464" cy="442.81586131275674" r="2.5" fill="grey" stroke="none" />
<circle cx="703.5245679999999" cy="420.89383799999996" r="5" fill="black" stroke="none" />
<circle cx="791.5245679999999" cy="420.89383799999996" r="5" fill="black" stroke="none" />
<path d="M575.5245679999999,452.89383799999996 A89.01095926882748,89.01095926882748,0,0,1,582.4219425976074,533.6091393581206" stroke="grey" stroke-width="5" fill="none" />
<path d="M582.4219425976074,533.6091393581206 L639.5245679999999,556.893838" stroke="grey" stroke-width="5" />
<circle cx="582.4219425976074" cy="533.6091393581206" r="2.5" fill="grey" stroke="none" />
<circle cx="575.5245679999999" cy="452.89383799999996" r="5" fill="black" stroke="none" />
<circle cx="639.5245679999999" cy="556.893838" r="5" fill="black" stroke="none" />
<circle cx="500" cy="500" r="5" fill="red" stroke="none" />
</svg>