<?xml version="1.0" encoding="UTF-8"?>
<svg xmlns="http://www.w3.org/2000/svg" xmlns:xlink="http://www.w3.org/1999/xlink"
     width="1000" height="1000" viewBox="0 0 1000 1000">
<defs>
</defs>
<rect x="0" y="0" width="1000" height="1000" fill="white" />
<path d="M215.51300000000003,724.93425 L328.0297254880661,635.9710802941294" stroke="grey" stroke-width="5" />
<circle cx="328.0297254880661" cy="635.9710802941294" r="2.5" fill="grey" stroke="none" />
<path d="M328.0297254880661,635.9710802941294 A219.2302670528467,219.2302670528467,0,0,0,335.51300000000003,644.93425" stroke="grey" stroke-width="5" fill="none" />
<circle cx="215.51300000000003" cy="724.93425" r="5" fill="black" stroke="none" />
<circle cx="335.51300000000003" cy="644.93425" r="5" fill="black" stroke="none" />
<path d="M335.51300000000003,644.93425 L359.70262841166993,623.6200692342005" stroke="grey" stroke-width="5" />
<circle cx="359.70262841166993" cy="623.6200692342005" r="2.5" fill="grey" stroke="none" />
<path d="M359.70262841166993,623.6200692342005 A186.99003714653486,186.99003714653486,0,0,1,335.5130000000001,588.9342500000001" stroke="grey" stroke-width="5" fill="none" />
<circle cx="335.51300000000003" cy="644.93425" r="5" fill="black" stroke="none" />
<circle cx="335.51300000000003" cy="588.93425" r="5" fill="black" stroke="none" />
<path d="M335.5130000000001,588.9342500000001 A186.99003714653486,186.99003714653486,0,0,1,322.4946382215088,558.7972833721885" stroke="grey" stroke-width="5" fill="none" />
<path d="M322.4946382215088,558.7972833721885 L231.51300000000003,588.93425" stroke="grey" stroke-width="5" />
<circle cx="322.4946382215088" cy="558.7972833721885" r="2.5" fill="grey" stroke="none" />
<circle cx="335.51300000000003" cy="588.93425" r="5" fill="black" stroke="none" />
<circle cx="231.51300000000003" cy="588.93425" r="5" fill="black" stroke="none" />
<path d="M231.51300000000003,588.93425 L282.6315312402666,572.0016304059241" stroke="grey" stroke-width="5" />
<circle cx="282.6315312402666" cy="572.0016304059241" r="2.5" fill="grey" stroke="none" />
<path d="M282.6315312402666,572.0016304059241 A228.98315656847444,228.98315656847444,0,0,1,271.51300000000003,484.93425" stroke="grey" stroke-width="5" fill="none" />
<circle cx="231.51300000000003" cy="588.93425" r="5" fill="black" stroke="none" />
<circle cx="271.51300000000003" cy="484.93425" r="5" fill="black" stroke="none" />
<path d="M271.51300000000003,484.93425 L344.7999774794408,489.76657429399" stroke="grey" stroke-width="5" />
<circle cx="344.7999774794408" cy="489.76657429399" r="2.5" fill="grey" stroke="none" />
<path d="M344.7999774794408,489.76657429399 A155.53703736429628,155.53703736429628,0,0,1,383.51300000000003,396.93425" stroke="grey" stroke-width="5" fill="none" />
<circle cx="271.51300000000003" cy="484.93425" r="5" fill="black" stroke="none" />
<circle cx="383.51300000000003" cy="396.93425" r="5" fill="black" stroke="none" />
<path d="M383.51300000000003,396.93425 L421.6589740662844,430.6851700736747" stroke="grey" stroke-width="5" />
<circle cx="421.6589740662844" cy="430.6851700736747" r="2.5" fill="grey" stroke="none" />
<path d="M421.6589740662844,430.6851700736747 A104.60335554877051,104.60335554877051,0,0,1,431.5130000000001,420.93424999999996" stroke="grey" stroke-width="5" fill="none" />
<circle cx="383.51300000000003" cy="396.93425" r="5" fill="black" stroke="none" />
<circle cx="431.51300000000003" cy="420.93425" r="5" fill="black" stroke="none" />
<path d="M431.5130000000001,420.93424999999996 A104.60335554877051,104.60335554877051,0,0,0,410.702696075504,445.521990639537" stroke="grey" stroke-width="5" fill="none" />
<path d="M410.70269607550404,445.521990639537 L383.51300000000003,428.93425" stroke="grey" stroke-width="5" />
<circle cx="410.70269607550404" cy="445.521990639537" r="2.5" fill="grey" stroke="none" />
<circle cx="431.51300000000003" cy="420.93425" r="5" fill="black" stroke="none" />
<circle cx="383.51300000000003" cy="428.93425" r="5" fill="black" stroke="none" />
<path d="M383.51300000000003,396.93425 L397.80530109109634,409.5798390458134" stroke="grey" stroke-width="5" />
<circle cx="397.80530109109634" cy="409.5798390458134" r="2.5" fill="grey" stroke="none" />
<path d="M397.80530109109634,409.5798390458134 A136.45351586552283,136.45351586552283,0,0,0,383.51300000000003,428.93425" stroke="grey" stroke-width="5" fill="none" />
<circle cx="383.51300000000003" cy="396.93425" r="5" fill="black" stroke="none" />
<circle cx="383.51300000000003" cy="428.93425" r="5" fill="black" stroke="none" />
<path d="M383.51300000000003,428.93425 A136.45351586552283,136.45351586552283,0,0,0,367.585205744871,532.9527579184861" stroke="grey" stroke-width="5" fill="none" />
<path d="M367.585205744871,532.9527579184861 L335.51300000000003,540.93425" stroke="grey" stroke-width="5" />
<circle cx="367.585205744871" cy="532.9527579184861" r="2.5" fill="grey" stroke="none" />
<circle cx="383.51300000000003" cy="428.93425" r="5" fill="black" stroke="none" />
<circle cx="335.51300000000003" cy="540.93425" r="5" fill="black" stroke="none" />
<path d="M271.51300000000003,484.93425 L330.86333714444345,488.8476338766928" stroke="grey" stroke-width="5" />
<circle cx="330.86333714444345" cy="488.8476338766928" r="2.5" fill="grey" stroke="none" />
<path d="M330.86333714444345,488.8476338766928 A169.50394093372134,169.50394093372134,0,0,0,335.51300000000003,540.93425" stroke="grey" stroke-width="5" fill="none" />
<circle cx="271.51300000000003" cy="484.93425" r="5" fill="black" stroke="none" />
<circle cx="335.51300000000003" cy="540.93425" r="5" fill="black" stroke="none" />
<path d="M335.51300000000003,540.93425 A169.50394093372134,169.50394093372134,0,0,0,350.89475804255875,580.6176954078655" stroke="grey" stroke-width="5" fill="none" />
<path d="M350.8947580425587,580.6176954078655 L335.51300000000003,588.93425" stroke="grey" stroke-width="5" />
<circle cx="350.8947580425587" cy="580.6176954078655" r="2.5" fill="grey" stroke="none" />
<circle cx="335.51300000000003" cy="540.93425" r="5" fill="black" stroke="none" />
<circle cx="335.51300000000003" cy="588.93425" r="5" fill="black" stroke="none" />
<path d="M431.5130000000001,420.93424999999996 A104.60335554877051,104.60335554877051,0,0,1,475.6601362489297,398.26783682314704" stroke="grey" stroke-width="5" fill="none" />
<path d="M475.66013624892963,398.2678368231471 L471.51300000000003,380.93425" stroke="grey" stroke-width="5" />
<circle cx="475.66013624892963" cy="398.2678368231471" r="2.5" fill="grey" stroke="none" />
<circle cx="431.51300000000003" cy="420.93425" r="5" fill="black" stroke="none" />
<circle cx="471.51300000000003" cy="380.93425" r="5" fill="black" stroke="none" />
<path d="M431.51300000000003,420.93425 L483.35008811142825,480.7782824345665" stroke="grey" stroke-width="5" />
<circle cx="483.35008811142825" cy="480.7782824345665" r="2.5" fill="grey" stroke="none" />
<path d="M483.35008811142825,480.7782824345665 A25.430178765838413,25.430178765838413,0,0,0,479.51300000000003,484.93424999999996" stroke="grey" stroke-width="5" fill="none" />
<circle cx="431.51300000000003" cy="420.93425" r="5" fill="black" stroke="none" />
<circle cx="479.51300000000003" cy="484.93425" r="5" fill="black" stroke="none" />
<path d="M383.51300000000003,428.93425 L440.136441423493,463.4787685500665" stroke="grey" stroke-width="5" />
<circle cx="440.136441423493" cy="463.4787685500665" r="2.5" fill="grey" stroke="none" />
<path d="M440.136441423493,463.47876855006655 A70.12450350670937,70.12450350670937,0,0,0,431.51300000000003,484.93425" stroke="grey" stroke-width="5" fill="none" />
<circle cx="383.51300000000003" cy="428.93425" r="5" fill="black" stroke="none" />
<circle cx="431.51300000000003" cy="484.93425" r="5" fill="black" stroke="none" />
<path d="M335.51300000000003,540.93425 L380.1844654658733,529.8173049815705" stroke="grey" stroke-width="5" />
<circle cx="380.1844654658733" cy="529.8173049815705" r="2.5" fill="grey" stroke="none" />
<path d="M380.1844654658733,529.8173049815705 A123.46997202584315,123.46997202584315,0,0,0,383.51300000000003,540.93425" stroke="grey" stroke-width="5" fill="none" />
<circle cx="335.51300000000003" cy="540.93425" r="5" fill="black" stroke="none" />
<circle cx="383.51300000000003" cy="540.93425" r="5" fill="black" stroke="none" />
<path d="M335.51300000000003,588.93425 L401.2597049802786,553.3865538453352" stroke="grey" stroke-width="5" />
<circle cx="401.2597049802786" cy="553.3865538453352" r="2.5" fill="grey" stroke="none" />
<path d="M401.2597049802787,553.3865538453352 A112.24869706175878,112.24869706175878,0,0,0,431.51300000000003,588.93425" stroke="grey" stroke-width="5" fill="none" />
<circle cx="335.51300000000003" cy="588.93425" r="5" fill="black" stroke="none" />
<circle cx="431.51300000000003" cy="588.93425" r="5" fill="black" stroke="none" />
<path d="M335.51300000000003,644.93425 L379.7272448881447,605.9758008691898" stroke="grey" stroke-width="5" />
<circle cx="379.7272448881447" cy="605.9758008691898" r="2.5" fill="grey" stroke="none" />
<path d="M379.7272448881447,605.9758008691898 A160.30098562411428,160.30098562411428,0,0,0,431.51300000000003,644.93425" stroke="grey" stroke-width="5" fill="none" />
<circle cx="335.51300000000003" cy="644.93425" r="5" fill="black" stroke="none" />
<circle cx="431.51300000000003" cy="644.93425" r="5" fill="black" stroke="none" />
<path d="M479.51300000000003,484.93424999999996 A25.430178765838413,25.430178765838413,0,0,0,475.16365084895983,494.5365072609067" stroke="grey" stroke-width="5" fill="none" />
<path d="M475.16365084895983,494.53650726090666 L431.51300000000003,484.93425" stroke="grey" stroke-width="5" />
<circle cx="475.16365084895983" cy="494.53650726090666" r="2.5" fill="grey" stroke="none" />
<circle cx="479.51300000000003" cy="484.93425" r="5" fill="black" stroke="none" />
<circle cx="431.51300000000003" cy="484.93425" r="5" fill="black" stroke="none" />
<path d="M431.51300000000003,484.93425 A70.12450350670937,70.12450350670937,0,0,0,433.8414603489478,523.2485187335161" stroke="grey" stroke-width="5" fill="none" />
<path d="M433.84146034894775,523.248518733516 L383.51300000000003,540.93425" stroke="grey" stroke-width="5" />
<circle cx="433.84146034894775" cy="523.248518733516" r="2.5" fill="grey" stroke="none" />
<circle cx="431.51300000000003" cy="484.93425" r="5" fill="black" stroke="none" />
<circle cx="383.51300000000003" cy="540.93425" r="5" fill="black" stroke="none" />
<path d="M383.51300000000003,540.93425 L394.09964414751556,537.2140379746629" stroke="grey" stroke-width="5" />
<circle cx="394.09964414751556" cy="537.2140379746629" r="2.5" fill="grey" stroke="none" />
<path d="M394.09964414751556,537.2140379746629 A112.24869706175878,112.24869706175878,0,0,0,431.51300000000003,588.93425" stroke="grey" stroke-width="5" fill="none" />
<circle cx="383.51300000000003" cy="540.93425" r="5" fill="black" stroke="none" />
<circle cx="431.51300000000003" cy="588.93425" r="5" fill="black" stroke="none" />
<path d="M431.51300000000003,588.93425 A112.24869706175878,112.24869706175878,0,0,0,452.0428618343303,601.4883386947553" stroke="grey" stroke-width="5" fill="none" />
<path d="M452.0428618343303,601.4883386947553 L431.51300000000003,644.93425" stroke="grey" stroke-width="5" />
<circle cx="452.0428618343303" cy="601.4883386947553" r="2.5" fill="grey" stroke="none" />
<circle cx="431.51300000000003" cy="588.93425" r="5" fill="black" stroke="none" />
<circle cx="431.51300000000003" cy="644.93425" r="5" fill="black" stroke="none" />
<path d="M431.51300000000003,644.93425 A160.30098562411428,160.30098562411428,0,0,0,502.50325904209166,660.2814389947591" stroke="grey" stroke-width="5" fill="none" />
<path d="M502.5032590420916,660.2814389947591 L503.51300000000003,724.93425" stroke="grey" stroke-width="5" />
<circle cx="502.5032590420916" cy="660.2814389947591" r="2.5" fill="grey" stroke="none" />
<circle cx="431.51300000000003" cy="644.93425" r="5" fill="black" stroke="none" />
<circle cx="503.51300000000003" cy="724.93425" r="5" fill="black" stroke="none" />
<path d="M479.51300000000003,484.93424999999996 A25.430178765838413,25.430178765838413,0,0,0,475.0676376202168,505.00712474636583" stroke="grey" stroke-width="5" fill="none" />
<path d="M475.0676376202168,505.00712474636583 L455.51300000000003,508.93425" stroke="grey" stroke-width="5" />
<circle cx="475.0676376202168" cy="505.00712474636583" r="2.5" fill="grey" stroke="none" />
<circle cx="479.51300000000003" cy="484.93425" r="5" fill="black" stroke="none" />
<circle cx="455.51300000000003" cy="508.93425" r="5" fill="black" stroke="none" />
<path d="M455.51300000000003,508.93424999999996 A45.3752574875614,45.3752574875614,0,0,0,461.0514645928123,523.279295128881" stroke="grey" stroke-width="5" fill="none" />
<path d="M461.0514645928123,523.279295128881 L431.51300000000003,540.93425" stroke="grey" stroke-width="5" />
<circle cx="461.0514645928123" cy="523.279295128881" r="2.5" fill="grey" stroke="none" />
<circle cx="455.51300000000003" cy="508.93425" r="5" fill="black" stroke="none" />
<circle cx="431.51300000000003" cy="540.93425" r="5" fill="black" stroke="none" />
<path d="M431.51300000000003,540.93425 A79.78773083665492,79.78773083665492,0,0,0,451.3186124663569,563.2155400187467" stroke="grey" stroke-width="5" fill="none" />
<path d="M451.3186124663569,563.2155400187467 L431.51300000000003,588.93425" stroke="grey" stroke-width="5" />
<circle cx="451.3186124663569" cy="563.2155400187467" r="2.5" fill="grey" stroke="none" />
<circle cx="431.51300000000003" cy="540.93425" r="5" fill="black" stroke="none" />
<circle cx="431.51300000000003" cy="588.93425" r="5" fill="black" stroke="none" />
<path d="M431.51300000000003,484.93425 L455.68431711957453,490.25144918954294" stroke="grey" stroke-width="5" />
<circle cx="455.68431711957453" cy="490.25144918954294" r="2.5" fill="grey" stroke="none" />
<path d="M455.68431711957453,490.251449189543 A45.3752574875614,45.3752574875614,0,0,0,455.51300000000003,508.93424999999996" stroke="grey" stroke-width="5" fill="none" />
<circle cx="431.51300000000003" cy="484.93425" r="5" fill="black" stroke="none" />
<circle cx="455.51300000000003" cy="508.93425" r="5" fill="black" stroke="none" />
<path d="M383.51300000000003,540.93425 L424.7247468394658,526.4521880697984" stroke="grey" stroke-width="5" />
<circle cx="424.7247468394658" cy="526.4521880697984" r="2.5" fill="grey" stroke="none" />
<path d="M424.7247468394658,526.4521880697984 A79.78773083665492,79.78773083665492,0,0,0,431.51300000000003,540.93425" stroke="grey" stroke-width="5" fill="none" />
<circle cx="383.51300000000003" cy="540.93425" r="5" fill="black" stroke="none" />
<circle cx="431.51300000000003" cy="540.93425" r="5" fill="black" stroke="none" />
<path d="M479.51300000000003,484.93424999999996 A25.430178765838413,25.430178765838413,0,0,0,488.61844593158,522.7410250219758" stroke="grey" stroke-width="5" fill="none" />
<path d="M488.61844593158,522.7410250219758 L479.51300000000003,540.93425" stroke="grey" stroke-width="5" />
<circle cx="488.61844593158" cy="522.7410250219758" r="2.5" fill="grey" stroke="none" />
<circle cx="479.51300000000003" cy="484.93425" r="5" fill="black" stroke="none" />
<circle cx="479.51300000000003" cy="540.93425" r="5" fill="black" stroke="none" />
<path d="M455.51300000000003,508.93424999999996 A45.3752574875614,45.3752574875614,0,0,0,479.69180825590905,540.576980421758" stroke="grey" stroke-width="5" fill="none" />
<path d="M479.69180825590905,540.576980421758 L479.51300000000003,540.93425" stroke="grey" stroke-width="5" />
<circle cx="479.69180825590905" cy="540.576980421758" r="2.5" fill="grey" stroke="none" />
<circle cx="455.51300000000003" cy="508.93425" r="5" fill="black" stroke="none" />
<circle cx="479.51300000000003" cy="540.93425" r="5" fill="black" stroke="none" />
<path d="M431.51300000000003,540.93425 L460.70853304212926,523.4842631641073" stroke="grey" stroke-width="5" />
<circle cx="460.70853304212926" cy="523.4842631641073" r="2.5" fill="grey" stroke="none" />
<path d="M460.70853304212926,523.4842631641073 A45.774774626015336,45.774774626015336,0,0,0,479.51300000000003,540.93425" stroke="grey" stroke-width="5" fill="none" />
<circle cx="431.51300000000003" cy="540.93425" r="5" fill="black" stroke="none" />
<circle cx="479.51300000000003" cy="540.93425" r="5" fill="black" stroke="none" />
<path d="M431.51300000000003,588.93425 L472.0711502950715,536.2671938013132" stroke="grey" stroke-width="5" />
<circle cx="472.0711502950715" cy="536.2671938013132" r="2.5" fill="grey" stroke="none" />
<path d="M472.0711502950715,536.2671938013132 A45.774774626015336,45.774774626015336,0,0,0,479.51300000000003,540.93425" stroke="grey" stroke-width="5" fill="none" />
<circle cx="431.51300000000003" cy="588.93425" r="5" fill="black" stroke="none" />
<circle cx="479.51300000000003" cy="540.93425" r="5" fill="black" stroke="none" />
<path d="M479.51300000000003,540.93425 A45.774774626015336,45.774774626015336,0,0,0,491.829511418376,545.0396837067052" stroke="grey" stroke-width="5" fill="none" />
<path d="M491.829511418376,545.0396837067052 L479.51300000000003,612.93425" stroke="grey" stroke-width="5" />
<circle cx="491.829511418376" cy="545.0396837067052" r="2.5" fill="grey" stroke="none" />
<circle cx="479.51300000000003" cy="540.93425" r="5" fill="black" stroke="none" />
<circle cx="479.51300000000003" cy="612.93425" r="5" fill="black" stroke="none" />
<path d="M479.51300000000003,612.93425 A114.77744548500152,114.77744548500152,0,0,1,450.9624792491058,603.7746768275773" stroke="grey" stroke-width="5" fill="none" />
<path d="M450.9624792491058,603.7746768275773 L431.51300000000003,644.93425" stroke="grey" stroke-width="5" />
<circle cx="450.9624792491058" cy="603.7746768275773" r="2.5" fill="grey" stroke="none" />
<circle cx="479.51300000000003" cy="612.93425" r="5" fill="black" stroke="none" />
<circle cx="431.51300000000003" cy="644.93425" r="5" fill="black" stroke="none" />
<path d="M479.51300000000003,484.93424999999996 A25.430178765838413,25.430178765838413,0,0,1,514.6028386225369,479.1805116242823" stroke="grey" stroke-width="5" fill="none" />
<path d="M514.6028386225369,479.1805116242823 L583.513,380.93425" stroke="grey" stroke-width="5" />
<circle cx="514.6028386225369" cy="479.1805116242823" r="2.5" fill="grey" stroke="none" />
<circle cx="479.51300000000003" cy="484.93425" r="5" fill="black" stroke="none" />
<circle cx="583.513" cy="380.93425" r="5" fill="black" stroke="none" />
<path d="M479.51300000000003,484.93424999999996 A25.430178765838413,25.430178765838413,0,0,1,525.3428270409258,502.1059699988875" stroke="grey" stroke-width="5" fill="none" />
<path d="M525.3428270409258,502.1059699988875 L607.513,508.93425" stroke="grey" stroke-width="5" />
<circle cx="525.3428270409258" cy="502.1059699988875" r="2.5" fill="grey" stroke="none" />
<circle cx="479.51300000000003" cy="484.93425" r="5" fill="black" stroke="none" />
<circle cx="607.513" cy="508.93425" r="5" fill="black" stroke="none" />
<path d="M607.513,508.93424999999996 A107.88357609971273,107.88357609971273,0,0,0,607.7711128181716,504.9247572524372" stroke="grey" stroke-width="5" fill="none" />
<path d="M607.7711128181716,504.9247572524372 L695.513,508.93425" stroke="grey" stroke-width="5" />
<circle cx="607.7711128181716" cy="504.9247572524372" r="2.5" fill="grey" stroke="none" />
<circle cx="607.513" cy="508.93425" r="5" fill="black" stroke="none" />
<circle cx="695.513" cy="508.93425" r="5" fill="black" stroke="none" />
<path d="M479.51300000000003,540.93425 A45.774774626015336,45.774774626015336,0,0,0,513.1623661386808,543.8415568803596" stroke="grey" stroke-width="5" fill="none" />
<path d="M513.1623661386808,543.8415568803596 L543.513,644.93425" stroke="grey" stroke-width="5" />
<circle cx="513.1623661386808" cy="543.8415568803596" r="2.5" fill="grey" stroke="none" />
<circle cx="479.51300000000003" cy="540.93425" r="5" fill="black" stroke="none" />
<circle cx="543.513" cy="644.93425" r="5" fill="black" stroke="none" />
<circle cx="500" cy="500" r="5" fill="red" stroke="none" />
</svg>