<?xml version="1.0" encoding="UTF-8"?>
<svg xmlns="http://www.w3.org/2000/svg" xmlns:xlink="http://www.w3.org/1999/xlink"
     width="1000" height="1000" viewBox="0 0 1000 1000">
<defs>
</defs>
<rect x="0" y="0" width="1000" height="1000" fill="white" />
<path d="M265.13599999999997,682.9060000000001 L378.3259604935837,594.7565904947569" stroke="grey" stroke-width="5" />
<circle cx="378.3259604935837" cy="594.7565904947569" r="2.5" fill="grey" stroke="none" />
<path d="M378.3259604935837,594.7565904947569 A154.21862187167932,154.21862187167932,0,0,0,385.136,602.9060000000001" stroke="grey" stroke-width="5" fill="none" />
<circle cx="265.13599999999997" cy="682.9060000000001" r="5" fill="black" stroke="none" />
<circle cx="385.13599999999997" cy="602.9060000000001" r="5" fill="black" stroke="none" />
<path d="M385.13599999999997,602.9060000000001 L407.58943862840977,582.7900928794476" stroke="grey" stroke-width="5" />
<circle cx="407.58943862840977" cy="582.7900928794476" r="2.5" fill="grey" stroke="none" />
<path d="M407.58943862840977,582.7900928794476 A124.07220209216892,124.07220209216892,0,0,1,385.13599999999997,546.9060000000001" stroke="grey" stroke-width="5" fill="none" />
<circle cx="385.13599999999997" cy="602.9060000000001" r="5" fill="black" stroke="none" />
<circle cx="385.13599999999997" cy="546.9060000000001" r="5" fill="black" stroke="none" />
<path d="M385.13599999999997,546.9060000000001 A124.07220209216892,124.07220209216892,0,0,1,378.68264760781847,526.0002180866094" stroke="grey" stroke-width="5" fill="none" />
<path d="M378.68264760781847,526.0002180866094 L-218.864,46.906000000000034" stroke="grey" stroke-width="5" />
<circle cx="378.68264760781847" cy="526.0002180866094" r="2.5" fill="grey" stroke="none" />
<circle cx="385.13599999999997" cy="546.9060000000001" r="5" fill="black" stroke="none" />
<circle cx="281.13599999999997" cy="546.9060000000001" r="5" fill="black" stroke="none" />
<path d="M281.13599999999997,546.9060000000001 L316.4135369009929,539.3454685929254" stroke="grey" stroke-width="5" />
<circle cx="316.4135369009929" cy="539.3454685929254" r="2.5" fill="grey" stroke="none" />
<path d="M316.4135369009929,539.3454685929255 A187.7553070674701,187.7553070674701,0,0,1,321.13599999999997,442.90600000000006" stroke="grey" stroke-width="5" fill="none" />
<circle cx="281.13599999999997" cy="546.9060000000001" r="5" fill="black" stroke="none" />
<circle cx="321.13599999999997" cy="442.90600000000006" r="5" fill="black" stroke="none" />
<path d="M321.13599999999997,442.90600000000006 L347.80614547261723,451.419201569984" stroke="grey" stroke-width="5" />
<circle cx="347.80614547261723" cy="451.419201569984" r="2.5" fill="grey" stroke="none" />
<path d="M347.80614547261723,451.419201569984 A159.7593919993438,159.7593919993438,0,0,1,433.13599999999997,354.90600000000006" stroke="grey" stroke-width="5" fill="none" />
<circle cx="321.13599999999997" cy="442.90600000000006" r="5" fill="black" stroke="none" />
<circle cx="433.13599999999997" cy="354.90600000000006" r="5" fill="black" stroke="none" />
<path d="M433.13599999999997,354.90600000000006 L448.7073373695247,388.695597156823" stroke="grey" stroke-width="5" />
<circle cx="448.7073373695247" cy="388.695597156823" r="2.5" fill="grey" stroke="none" />
<path d="M448.7073373695247,388.695597156823 A122.55450759560006,122.55450759560006,0,0,1,481.136,378.90600000000006" stroke="grey" stroke-width="5" fill="none" />
<circle cx="433.13599999999997" cy="354.90600000000006" r="5" fill="black" stroke="none" />
<circle cx="481.13599999999997" cy="378.90600000000006" r="5" fill="black" stroke="none" />
<path d="M481.136,378.90600000000006 A122.55450759560006,122.55450759560006,0,0,0,437.6282296091678,394.5041726402731" stroke="grey" stroke-width="5" fill="none" />
<path d="M437.62822960916776,394.5041726402731 L-66.864,-113.09399999999997" stroke="grey" stroke-width="5" />
<circle cx="437.62822960916776" cy="394.5041726402731" r="2.5" fill="grey" stroke="none" />
<circle cx="481.13599999999997" cy="378.90600000000006" r="5" fill="black" stroke="none" />
<circle cx="433.13599999999997" cy="386.90600000000006" r="5" fill="black" stroke="none" />
<path d="M433.13599999999997,354.90600000000006 L445.01306323945215,380.6790709150674" stroke="grey" stroke-width="5" />
<circle cx="445.01306323945215" cy="380.6790709150674" r="2.5" fill="grey" stroke="none" />
<path d="M445.01306323945215,380.6790709150674 A131.3813051084514,131.3813051084514,0,0,0,433.136,386.906" stroke="grey" stroke-width="5" fill="none" />
<circle cx="433.13599999999997" cy="354.90600000000006" r="5" fill="black" stroke="none" />
<circle cx="433.13599999999997" cy="386.90600000000006" r="5" fill="black" stroke="none" />
<path d="M433.13599999999997,386.90600000000006 L441.5395148529267,401.11973397907536" stroke="grey" stroke-width="5" />
<circle cx="441.5395148529267" cy="401.11973397907536" r="2.5" fill="grey" stroke="none" />
<path d="M441.53951485292674,401.11973397907536 A114.86920967778964,114.86920967778964,0,0,0,385.13599999999997,498.906" stroke="grey" stroke-width="5" fill="none" />
<circle cx="433.13599999999997" cy="386.90600000000006" r="5" fill="black" stroke="none" />
<circle cx="385.13599999999997" cy="498.90600000000006" r="5" fill="black" stroke="none" />
<path d="M321.13599999999997,442.90600000000006 L390.5705162708133,465.0697348598143" stroke="grey" stroke-width="5" />
<circle cx="390.5705162708133" cy="465.0697348598143" r="2.5" fill="grey" stroke="none" />
<path d="M390.5705162708133,465.0697348598143 A114.86920967778964,114.86920967778964,0,0,0,385.13599999999997,498.906" stroke="grey" stroke-width="5" fill="none" />
<circle cx="321.13599999999997" cy="442.90600000000006" r="5" fill="black" stroke="none" />
<circle cx="385.13599999999997" cy="498.90600000000006" r="5" fill="black" stroke="none" />
<path d="M385.13599999999997,498.906 A114.86920967778964,114.86920967778964,0,0,0,393.65597871287866,543.4267713338706" stroke="grey" stroke-width="5" fill="none" />
<path d="M393.65597871287866,543.4267713338706 L-114.864,46.906000000000034" stroke="grey" stroke-width="5" />
<circle cx="393.65597871287866" cy="543.4267713338706" r="2.5" fill="grey" stroke="none" />
<circle cx="385.13599999999997" cy="498.90600000000006" r="5" fill="black" stroke="none" />
<circle cx="385.13599999999997" cy="546.9060000000001" r="5" fill="black" stroke="none" />
<path d="M481.136,378.90600000000006 A122.55450759560006,122.55450759560006,0,0,1,515.9428704496165,378.48690517550494" stroke="grey" stroke-width="5" fill="none" />
<path d="M515.9428704496165,378.48690517550494 L21.135999999999996,-161.09399999999997" stroke="grey" stroke-width="5" />
<circle cx="515.9428704496165" cy="378.48690517550494" r="2.5" fill="grey" stroke="none" />
<circle cx="481.13599999999997" cy="378.90600000000006" r="5" fill="black" stroke="none" />
<circle cx="521.136" cy="338.90600000000006" r="5" fill="black" stroke="none" />
<path d="M481.13599999999997,378.90600000000006 L490.13372797689397,436.665270124788" stroke="grey" stroke-width="5" />
<circle cx="490.13372797689397" cy="436.665270124788" r="2.5" fill="grey" stroke="none" />
<path d="M490.13372797689397,436.665270124788 A64.09860631870241,64.09860631870241,0,0,1,529.136,442.906" stroke="grey" stroke-width="5" fill="none" />
<circle cx="481.13599999999997" cy="378.90600000000006" r="5" fill="black" stroke="none" />
<circle cx="529.136" cy="442.90600000000006" r="5" fill="black" stroke="none" />
<path d="M433.13599999999997,386.90600000000006 L469.3981635743356,448.23994842181014" stroke="grey" stroke-width="5" />
<circle cx="469.3981635743356" cy="448.23994842181014" r="2.5" fill="grey" stroke="none" />
<path d="M469.3981635743356,448.23994842181014 A60.12965434791719,60.12965434791719,0,0,1,481.13599999999997,442.90600000000006" stroke="grey" stroke-width="5" fill="none" />
<circle cx="433.13599999999997" cy="386.90600000000006" r="5" fill="black" stroke="none" />
<circle cx="481.13599999999997" cy="442.90600000000006" r="5" fill="black" stroke="none" />
<path d="M385.13599999999997,498.90600000000006 L433.1300837175498,499.3631103878239" stroke="grey" stroke-width="5" />
<circle cx="433.1300837175498" cy="499.3631103878239" r="2.5" fill="grey" stroke="none" />
<path d="M433.1300837175498,499.3631103878239 A66.87294917976925,66.87294917976925,0,0,1,433.13599999999997,498.90600000000006" stroke="grey" stroke-width="5" fill="none" />
<circle cx="385.13599999999997" cy="498.90600000000006" r="5" fill="black" stroke="none" />
<circle cx="433.13599999999997" cy="498.90600000000006" r="5" fill="black" stroke="none" />
<path d="M385.13599999999997,546.9060000000001 L453.19504278838843,519.1133281356025" stroke="grey" stroke-width="5" />
<circle cx="453.19504278838843" cy="519.1133281356025" r="2.5" fill="grey" stroke="none" />
<path d="M453.19504278838843,519.1133281356025 A50.55712938844534,50.55712938844534,0,0,0,481.13599999999997,546.9060000000001" stroke="grey" stroke-width="5" fill="none" />
<circle cx="385.13599999999997" cy="546.9060000000001" r="5" fill="black" stroke="none" />
<circle cx="481.13599999999997" cy="546.9060000000001" r="5" fill="black" stroke="none" />
<path d="M385.13599999999997,602.9060000000001 L422.07715002755896,569.8106351795517" stroke="grey" stroke-width="5" />
<circle cx="422.07715002755896" cy="569.8106351795517" r="2.5" fill="grey" stroke="none" />
<path d="M422.07715002755896,569.8106351795517 A104.62072133186622,104.62072133186622,0,0,0,481.13599999999997,602.9060000000001" stroke="grey" stroke-width="5" fill="none" />
<circle cx="385.13599999999997" cy="602.9060000000001" r="5" fill="black" stroke="none" />
<circle cx="481.13599999999997" cy="602.9060000000001" r="5" fill="black" stroke="none" />
<path d="M529.136,442.90600000000006 L527.3319142130824,446.44123043376834" stroke="grey" stroke-width="5" />
<circle cx="527.3319142130824" cy="446.44123043376834" r="2.5" fill="grey" stroke="none" />
<path d="M527.3319142130824,446.44123043376834 A60.12965434791719,60.12965434791719,0,0,0,481.13599999999997,442.90600000000006" stroke="grey" stroke-width="5" fill="none" />
<circle cx="529.136" cy="442.90600000000006" r="5" fill="black" stroke="none" />
<circle cx="481.13599999999997" cy="442.90600000000006" r="5" fill="black" stroke="none" />
<path d="M481.13599999999997,442.90600000000006 A60.12965434791719,60.12965434791719,0,0,0,439.8783924197642,499.0163161238817" stroke="grey" stroke-width="5" fill="none" />
<path d="M439.8783924197642,499.01631612388167 L-66.864,-1.0939999999999657" stroke="grey" stroke-width="5" />
<circle cx="439.8783924197642" cy="499.01631612388167" r="2.5" fill="grey" stroke="none" />
<circle cx="481.13599999999997" cy="442.90600000000006" r="5" fill="black" stroke="none" />
<circle cx="433.13599999999997" cy="498.90600000000006" r="5" fill="black" stroke="none" />
<path d="M433.13599999999997,498.90600000000006 L449.44963634934646,499.1729166990636" stroke="grey" stroke-width="5" />
<circle cx="449.44963634934646" cy="499.1729166990636" r="2.5" fill="grey" stroke="none" />
<path d="M449.44963634934646,499.1729166990636 A50.55712938844534,50.55712938844534,0,0,0,481.13599999999997,546.9060000000001" stroke="grey" stroke-width="5" fill="none" />
<circle cx="433.13599999999997" cy="498.90600000000006" r="5" fill="black" stroke="none" />
<circle cx="481.13599999999997" cy="546.9060000000001" r="5" fill="black" stroke="none" />
<path d="M481.13599999999997,546.9060000000001 A50.55712938844534,50.55712938844534,0,0,0,490.8841224124389,549.728503977182" stroke="grey" stroke-width="5" fill="none" />
<path d="M490.8841224124389,549.728503977182 L-18.864000000000004,102.90600000000003" stroke="grey" stroke-width="5" />
<circle cx="490.8841224124389" cy="549.728503977182" r="2.5" fill="grey" stroke="none" />
<circle cx="481.13599999999997" cy="546.9060000000001" r="5" fill="black" stroke="none" />
<circle cx="481.13599999999997" cy="602.9060000000001" r="5" fill="black" stroke="none" />
<path d="M481.13599999999997,602.9060000000001 A104.62072133186622,104.62072133186622,0,0,0,529.1866778538038,600.4670750438087" stroke="grey" stroke-width="5" fill="none" />
<path d="M529.1866778538038,600.4670750438087 L53.135999999999996,182.90600000000003" stroke="grey" stroke-width="5" />
<circle cx="529.1866778538038" cy="600.4670750438087" r="2.5" fill="grey" stroke="none" />
<circle cx="481.13599999999997" cy="602.9060000000001" r="5" fill="black" stroke="none" />
<circle cx="553.136" cy="682.9060000000001" r="5" fill="black" stroke="none" />
<path d="M529.136,442.90600000000006 L515.2229444897113,470.16959113483074" stroke="grey" stroke-width="5" />
<circle cx="515.2229444897113" cy="470.16959113483074" r="2.5" fill="grey" stroke="none" />
<path d="M515.2229444897113,470.16959113483074 A33.49016769142845,33.49016769142845,0,0,0,505.13599999999997,466.90600000000006" stroke="grey" stroke-width="5" fill="none" />
<circle cx="529.136" cy="442.90600000000006" r="5" fill="black" stroke="none" />
<circle cx="505.13599999999997" cy="466.90600000000006" r="5" fill="black" stroke="none" />
<path d="M505.13599999999997,466.90600000000006 L502.89781455218775,481.3278281171919" stroke="grey" stroke-width="5" />
<circle cx="502.89781455218775" cy="481.3278281171919" r="2.5" fill="grey" stroke="none" />
<path d="M502.89781455218775,481.3278281171919 A18.895696123720874,18.895696123720874,0,0,0,481.13599999999997,498.906" stroke="grey" stroke-width="5" fill="none" />
<circle cx="505.13599999999997" cy="466.90600000000006" r="5" fill="black" stroke="none" />
<circle cx="481.13599999999997" cy="498.90600000000006" r="5" fill="black" stroke="none" />
<path d="M481.13599999999997,498.906 A18.895696123720874,18.895696123720874,0,0,0,492.9495915612777,517.5310887524761" stroke="grey" stroke-width="5" fill="none" />
<path d="M492.9495915612777,517.5310887524761 L-18.864000000000004,46.906000000000034" stroke="grey" stroke-width="5" />
<circle cx="492.9495915612777" cy="517.5310887524761" r="2.5" fill="grey" stroke="none" />
<circle cx="481.13599999999997" cy="498.90600000000006" r="5" fill="black" stroke="none" />
<circle cx="481.13599999999997" cy="546.9060000000001" r="5" fill="black" stroke="none" />
<path d="M481.13599999999997,442.90600000000006 L489.4933950613506,468.2005882969017" stroke="grey" stroke-width="5" />
<circle cx="489.4933950613506" cy="468.2005882969017" r="2.5" fill="grey" stroke="none" />
<path d="M489.4933950613506,468.2005882969017 A33.49016769142845,33.49016769142845,0,0,1,505.13599999999997,466.90600000000006" stroke="grey" stroke-width="5" fill="none" />
<circle cx="481.13599999999997" cy="442.90600000000006" r="5" fill="black" stroke="none" />
<circle cx="505.13599999999997" cy="466.90600000000006" r="5" fill="black" stroke="none" />
<path d="M433.13599999999997,498.90600000000006 L481.10683256663225,499.69087812317383" stroke="grey" stroke-width="5" />
<circle cx="481.10683256663225" cy="499.69087812317383" r="2.5" fill="grey" stroke="none" />
<path d="M481.10683256663225,499.69087812317383 A18.895696123720874,18.895696123720874,0,0,1,481.13599999999997,498.906" stroke="grey" stroke-width="5" fill="none" />
<circle cx="433.13599999999997" cy="498.90600000000006" r="5" fill="black" stroke="none" />
<circle cx="481.13599999999997" cy="498.90600000000006" r="5" fill="black" stroke="none" />
<path d="M529.136,442.90600000000006 L513.2530916351589,474.0296535619934" stroke="grey" stroke-width="5" />
<circle cx="513.2530916351589" cy="474.0296535619934" r="2.5" fill="grey" stroke="none" />
<path d="M513.2530916351589,474.0296535619934 A29.15653154955163,29.15653154955163,0,0,1,529.136,498.90600000000006" stroke="grey" stroke-width="5" fill="none" />
<circle cx="529.136" cy="442.90600000000006" r="5" fill="black" stroke="none" />
<circle cx="529.136" cy="498.90600000000006" r="5" fill="black" stroke="none" />
<path d="M505.13599999999997,466.90600000000006 L504.4714003052551,471.1883719427353" stroke="grey" stroke-width="5" />
<circle cx="504.4714003052551" cy="471.1883719427353" r="2.5" fill="grey" stroke="none" />
<path d="M504.4714003052551,471.1883719427353 A29.15653154955163,29.15653154955163,0,0,1,529.136,498.90600000000006" stroke="grey" stroke-width="5" fill="none" />
<circle cx="505.13599999999997" cy="466.90600000000006" r="5" fill="black" stroke="none" />
<circle cx="529.136" cy="498.90600000000006" r="5" fill="black" stroke="none" />
<path d="M481.13599999999997,498.906 A18.895696123720874,18.895696123720874,0,0,1,518.8823900855655,499.2910030630969" stroke="grey" stroke-width="5" fill="none" />
<path d="M518.8823900855655,499.2910030630969 L29.135999999999996,-1.0939999999999657" stroke="grey" stroke-width="5" />
<circle cx="518.8823900855655" cy="499.2910030630969" r="2.5" fill="grey" stroke="none" />
<circle cx="481.13599999999997" cy="498.90600000000006" r="5" fill="black" stroke="none" />
<circle cx="529.136" cy="498.90600000000006" r="5" fill="black" stroke="none" />
<path d="M481.13599999999997,546.9060000000001 L489.1210435045696,527.0509082577745" stroke="grey" stroke-width="5" />
<circle cx="489.1210435045696" cy="527.0509082577745" r="2.5" fill="grey" stroke="none" />
<path d="M489.1210435045696,527.0509082577745 A29.15653154955163,29.15653154955163,0,0,0,529.136,498.90600000000006" stroke="grey" stroke-width="5" fill="none" />
<circle cx="481.13599999999997" cy="546.9060000000001" r="5" fill="black" stroke="none" />
<circle cx="529.136" cy="498.90600000000006" r="5" fill="black" stroke="none" />
<path d="M529.136,498.90600000000006 A29.15653154955163,29.15653154955163,0,0,1,511.0816372415816,526.9685121585525" stroke="grey" stroke-width="5" fill="none" />
<path d="M511.0816372415816,526.9685121585525 L29.135999999999996,70.90600000000003" stroke="grey" stroke-width="5" />
<circle cx="511.0816372415816" cy="526.9685121585525" r="2.5" fill="grey" stroke="none" />
<circle cx="529.136" cy="498.90600000000006" r="5" fill="black" stroke="none" />
<circle cx="529.136" cy="570.9060000000001" r="5" fill="black" stroke="none" />
<path d="M529.136,570.9060000000001 A76.65877204860513,76.65877204860513,0,0,1,486.1777757071875,575.402343780543" stroke="grey" stroke-width="5" fill="none" />
<path d="M486.1777757071875,575.402343780543 L-18.864000000000004,102.90600000000003" stroke="grey" stroke-width="5" />
<circle cx="486.1777757071875" cy="575.402343780543" r="2.5" fill="grey" stroke="none" />
<circle cx="529.136" cy="570.9060000000001" r="5" fill="black" stroke="none" />
<circle cx="481.13599999999997" cy="602.9060000000001" r="5" fill="black" stroke="none" />
<path d="M529.136,442.906 A64.09860631870241,64.09860631870241,0,0,1,540.8338490990699,450.5912143464911" stroke="grey" stroke-width="5" fill="none" />
<path d="M540.8338490990699,450.5912143464911 L133.136,-161.09399999999997" stroke="grey" stroke-width="5" />
<circle cx="540.8338490990699" cy="450.5912143464911" r="2.5" fill="grey" stroke="none" />
<circle cx="529.136" cy="442.90600000000006" r="5" fill="black" stroke="none" />
<circle cx="633.136" cy="338.90600000000006" r="5" fill="black" stroke="none" />
<path d="M529.136,442.906 A64.09860631870241,64.09860631870241,0,0,1,562.7226523392757,486.7901470285868" stroke="grey" stroke-width="5" fill="none" />
<path d="M562.7226523392757,486.7901470285868 L157.136,-33.093999999999966" stroke="grey" stroke-width="5" />
<circle cx="562.7226523392757" cy="486.7901470285868" r="2.5" fill="grey" stroke="none" />
<circle cx="529.136" cy="442.90600000000006" r="5" fill="black" stroke="none" />
<circle cx="657.136" cy="466.90600000000006" r="5" fill="black" stroke="none" />
<path d="M657.136,466.90600000000006 A160.5831103572228,160.5831103572228,0,0,1,659.1394443360967,478.51575953405955" stroke="grey" stroke-width="5" fill="none" />
<path d="M659.1394443360967,478.51575953405955 L245.136,-33.093999999999966" stroke="grey" stroke-width="5" />
<circle cx="659.1394443360967" cy="478.51575953405955" r="2.5" fill="grey" stroke="none" />
<circle cx="657.136" cy="466.90600000000006" r="5" fill="black" stroke="none" />
<circle cx="745.136" cy="466.90600000000006" r="5" fill="black" stroke="none" />
<path d="M529.136,498.90600000000006 A29.15653154955163,29.15653154955163,0,0,1,519.5650366048799,521.6174160030682" stroke="grey" stroke-width="5" fill="none" />
<path d="M519.5650366048799,521.6174160030682 L93.136,102.90600000000003" stroke="grey" stroke-width="5" />
<circle cx="519.5650366048799" cy="521.6174160030682" r="2.5" fill="grey" stroke="none" />
<circle cx="529.136" cy="498.90600000000006" r="5" fill="black" stroke="none" />
<circle cx="593.136" cy="602.9060000000001" r="5" fill="black" stroke="none" />
<circle cx="500" cy="500" r="5" fill="red" stroke="none" />
</svg>