<?xml version="1.0" encoding="UTF-8"?>
<svg xmlns="http://www.w3.org/2000/svg" xmlns:xlink="http://www.w3.org/1999/xlink"
     width="1000" height="1000" viewBox="0 0 1000 1000">
<defs>
</defs>
<rect x="0" y="0" width="1000" height="1000" fill="white" />
<path d="M242.54002400000002,712.659334 L352.71356718404235,621.6571025776733" stroke="grey" stroke-width="5" />
<circle cx="352.71356718404235" cy="621.6571025776733" r="2.5" fill="grey" stroke="none" />
<path d="M352.7135671840424,621.6571025776733 A191.0333580797975,191.0333580797975,0,0,0,362.540024,632.6593340000001" stroke="grey" stroke-width="5" fill="none" />
<circle cx="242.54002400000002" cy="712.659334" r="5" fill="black" stroke="none" />
<circle cx="362.540024" cy="632.659334" r="5" fill="black" stroke="none" />
<path d="M362.540024,632.659334 L386.7477863408079,609.2970017545625" stroke="grey" stroke-width="5" />
<circle cx="386.7477863408079" cy="609.2970017545625" r="2.5" fill="grey" stroke="none" />
<path d="M386.747786340808,609.2970017545625 A157.3909098113488,157.3909098113488,0,0,1,362.540024,576.6593340000001" stroke="grey" stroke-width="5" fill="none" />
<circle cx="362.540024" cy="632.659334" r="5" fill="black" stroke="none" />
<circle cx="362.540024" cy="576.659334" r="5" fill="black" stroke="none" />
<path d="M362.540024,576.6593340000001 A157.3909098113488,157.3909098113488,0,0,1,349.9878672171621,547.6262376131932" stroke="grey" stroke-width="5" fill="none" />
<path d="M349.9878672171621,547.6262376131932 L-241.45997599999998,76.659334" stroke="grey" stroke-width="5" />
<circle cx="349.9878672171621" cy="547.6262376131932" r="2.5" fill="grey" stroke="none" />
<circle cx="362.540024" cy="576.659334" r="5" fill="black" stroke="none" />
<circle cx="258.540024" cy="576.659334" r="5" fill="black" stroke="none" />
<path d="M258.540024,576.659334 L306.22464808152677,561.5202969443093" stroke="grey" stroke-width="5" />
<circle cx="306.22464808152677" cy="561.5202969443093" r="2.5" fill="grey" stroke="none" />
<path d="M306.22464808152677,561.5202969443093 A203.30674840556603,203.30674840556603,0,0,1,298.540024,472.659334" stroke="grey" stroke-width="5" fill="none" />
<circle cx="258.540024" cy="576.659334" r="5" fill="black" stroke="none" />
<circle cx="298.540024" cy="472.659334" r="5" fill="black" stroke="none" />
<path d="M298.540024,472.659334 L355.35826693152717,480.3702879747873" stroke="grey" stroke-width="5" />
<circle cx="355.35826693152717" cy="480.3702879747873" r="2.5" fill="grey" stroke="none" />
<path d="M355.35826693152717,480.3702879747873 A145.96765579827652,145.96765579827652,0,0,1,410.540024,384.65933399999994" stroke="grey" stroke-width="5" fill="none" />
<circle cx="298.540024" cy="472.659334" r="5" fill="black" stroke="none" />
<circle cx="410.540024" cy="384.659334" r="5" fill="black" stroke="none" />
<path d="M410.540024,384.659334 L438.52262548661633,420.7372767425614" stroke="grey" stroke-width="5" />
<circle cx="438.52262548661633" cy="420.7372767425614" r="2.5" fill="grey" stroke="none" />
<path d="M438.52262548661633,420.7372767425614 A100.30975463654634,100.30975463654634,0,0,1,458.540024,408.659334" stroke="grey" stroke-width="5" fill="none" />
<circle cx="410.540024" cy="384.659334" r="5" fill="black" stroke="none" />
<circle cx="458.540024" cy="408.659334" r="5" fill="black" stroke="none" />
<path d="M458.540024,408.659334 A100.30975463654634,100.30975463654634,0,0,0,426.60449734801864,431.62495290160945" stroke="grey" stroke-width="5" fill="none" />
<path d="M426.60449734801864,431.6249529016094 L-89.45997599999998,-83.340666" stroke="grey" stroke-width="5" />
<circle cx="426.60449734801864" cy="431.6249529016094" r="2.5" fill="grey" stroke="none" />
<circle cx="458.540024" cy="408.659334" r="5" fill="black" stroke="none" />
<circle cx="410.540024" cy="416.659334" r="5" fill="black" stroke="none" />
<path d="M410.540024,384.659334 L425.0667377456561,403.3886128700874" stroke="grey" stroke-width="5" />
<circle cx="425.0667377456561" cy="403.3886128700874" r="2.5" fill="grey" stroke="none" />
<path d="M425.0667377456561,403.3886128700874 A122.26509688068843,122.26509688068843,0,0,0,410.540024,416.65933400000006" stroke="grey" stroke-width="5" fill="none" />
<circle cx="410.540024" cy="384.659334" r="5" fill="black" stroke="none" />
<circle cx="410.540024" cy="416.659334" r="5" fill="black" stroke="none" />
<path d="M410.540024,416.65933400000006 A122.26509688068843,122.26509688068843,0,0,0,380.30866239616586,524.9547113357203" stroke="grey" stroke-width="5" fill="none" />
<path d="M380.30866239616586,524.9547113357203 L-137.45997599999998,28.659334" stroke="grey" stroke-width="5" />
<circle cx="380.30866239616586" cy="524.9547113357203" r="2.5" fill="grey" stroke="none" />
<circle cx="410.540024" cy="416.659334" r="5" fill="black" stroke="none" />
<circle cx="362.540024" cy="528.659334" r="5" fill="black" stroke="none" />
<path d="M298.540024,472.659334 L360.85967193721837,481.1168981937388" stroke="grey" stroke-width="5" />
<circle cx="360.85967193721837" cy="481.1168981937388" r="2.5" fill="grey" stroke="none" />
<path d="M360.85967193721837,481.1168981937388 A140.415819718592,140.415819718592,0,0,0,362.540024,528.6593340000001" stroke="grey" stroke-width="5" fill="none" />
<circle cx="298.540024" cy="472.659334" r="5" fill="black" stroke="none" />
<circle cx="362.540024" cy="528.659334" r="5" fill="black" stroke="none" />
<path d="M362.540024,528.6593340000001 A140.415819718592,140.415819718592,0,0,0,377.3655020377408,568.3913908089957" stroke="grey" stroke-width="5" fill="none" />
<path d="M377.3655020377407,568.3913908089955 L-137.45997599999998,76.659334" stroke="grey" stroke-width="5" />
<circle cx="377.3655020377407" cy="568.3913908089955" r="2.5" fill="grey" stroke="none" />
<circle cx="362.540024" cy="528.659334" r="5" fill="black" stroke="none" />
<circle cx="362.540024" cy="576.659334" r="5" fill="black" stroke="none" />
<path d="M458.540024,408.659334 A100.30975463654634,100.30975463654634,0,0,1,498.88503087696995,399.69644214137355" stroke="grey" stroke-width="5" fill="none" />
<path d="M498.88503087696995,399.69644214137355 L-1.4599759999999833,-131.340666" stroke="grey" stroke-width="5" />
<circle cx="498.88503087696995" cy="399.69644214137355" r="2.5" fill="grey" stroke="none" />
<circle cx="458.540024" cy="408.659334" r="5" fill="black" stroke="none" />
<circle cx="498.540024" cy="368.659334" r="5" fill="black" stroke="none" />
<path d="M458.540024,408.659334 L488.380767177784,474.40161411597853" stroke="grey" stroke-width="5" />
<circle cx="488.380767177784" cy="474.40161411597853" r="2.5" fill="grey" stroke="none" />
<path d="M488.380767177784,474.40161411597853 A28.11198910152272,28.11198910152272,0,0,1,506.540024,472.659334" stroke="grey" stroke-width="5" fill="none" />
<circle cx="458.540024" cy="408.659334" r="5" fill="black" stroke="none" />
<circle cx="506.540024" cy="472.659334" r="5" fill="black" stroke="none" />
<path d="M410.540024,416.659334 L463.6619430026035,466.14756669162324" stroke="grey" stroke-width="5" />
<circle cx="463.6619430026035" cy="466.14756669162324" r="2.5" fill="grey" stroke="none" />
<path d="M463.6619430026035,466.1475666916233 A49.66328248559624,49.66328248559624,0,0,0,458.540024,472.659334" stroke="grey" stroke-width="5" fill="none" />
<circle cx="410.540024" cy="416.659334" r="5" fill="black" stroke="none" />
<circle cx="458.540024" cy="472.659334" r="5" fill="black" stroke="none" />
<path d="M362.540024,528.659334 L408.0389507465589,519.1731622704839" stroke="grey" stroke-width="5" />
<circle cx="408.0389507465589" cy="519.1731622704839" r="2.5" fill="grey" stroke="none" />
<path d="M408.0389507465589,519.1731622704839 A93.93851569640714,93.93851569640714,0,0,0,410.540024,528.659334" stroke="grey" stroke-width="5" fill="none" />
<circle cx="362.540024" cy="528.659334" r="5" fill="black" stroke="none" />
<circle cx="410.540024" cy="528.659334" r="5" fill="black" stroke="none" />
<path d="M362.540024,576.659334 L423.88378614556774,542.4488526077026" stroke="grey" stroke-width="5" />
<circle cx="423.88378614556774" cy="542.4488526077026" r="2.5" fill="grey" stroke="none" />
<path d="M423.8837861455678,542.4488526077027 A87.15264252588175,87.15264252588175,0,0,0,458.540024,576.659334" stroke="grey" stroke-width="5" fill="none" />
<circle cx="362.540024" cy="576.659334" r="5" fill="black" stroke="none" />
<circle cx="458.540024" cy="576.659334" r="5" fill="black" stroke="none" />
<path d="M362.540024,632.659334 L399.99039532739135,596.516876661404" stroke="grey" stroke-width="5" />
<circle cx="399.99039532739135" cy="596.516876661404" r="2.5" fill="grey" stroke="none" />
<path d="M399.9903953273914,596.516876661404 A138.98715231000358,138.98715231000358,0,0,0,458.540024,632.659334" stroke="grey" stroke-width="5" fill="none" />
<circle cx="362.540024" cy="632.659334" r="5" fill="black" stroke="none" />
<circle cx="458.540024" cy="632.659334" r="5" fill="black" stroke="none" />
<path d="M506.540024,472.659334 A28.11198910152272,28.11198910152272,0,0,0,476.53150707870697,484.5237675370473" stroke="grey" stroke-width="5" fill="none" />
<path d="M476.53150707870697,484.5237675370473 L-41.45997599999998,-27.340666" stroke="grey" stroke-width="5" />
<circle cx="476.53150707870697" cy="484.5237675370473" r="2.5" fill="grey" stroke="none" />
<circle cx="506.540024" cy="472.659334" r="5" fill="black" stroke="none" />
<circle cx="458.540024" cy="472.659334" r="5" fill="black" stroke="none" />
<path d="M458.540024,472.659334 A49.66328248559624,49.66328248559624,0,0,0,452.704425588315,515.1515764299594" stroke="grey" stroke-width="5" fill="none" />
<path d="M452.704425588315,515.1515764299594 L-89.45997599999998,28.659334" stroke="grey" stroke-width="5" />
<circle cx="452.704425588315" cy="515.1515764299594" r="2.5" fill="grey" stroke="none" />
<circle cx="458.540024" cy="472.659334" r="5" fill="black" stroke="none" />
<circle cx="410.540024" cy="528.659334" r="5" fill="black" stroke="none" />
<path d="M410.540024,528.659334 L417.00237915298294,526.5890585199802" stroke="grey" stroke-width="5" />
<circle cx="417.00237915298294" cy="526.5890585199802" r="2.5" fill="grey" stroke="none" />
<path d="M417.00237915298294,526.5890585199802 A87.15264252588175,87.15264252588175,0,0,0,458.540024,576.659334" stroke="grey" stroke-width="5" fill="none" />
<circle cx="410.540024" cy="528.659334" r="5" fill="black" stroke="none" />
<circle cx="458.540024" cy="576.659334" r="5" fill="black" stroke="none" />
<path d="M458.540024,576.659334 A87.15264252588175,87.15264252588175,0,0,0,474.00229872038636,583.1847499690905" stroke="grey" stroke-width="5" fill="none" />
<path d="M474.00229872038636,583.1847499690905 L-41.45997599999998,132.659334" stroke="grey" stroke-width="5" />
<circle cx="474.00229872038636" cy="583.1847499690905" r="2.5" fill="grey" stroke="none" />
<circle cx="458.540024" cy="576.659334" r="5" fill="black" stroke="none" />
<circle cx="458.540024" cy="632.659334" r="5" fill="black" stroke="none" />
<path d="M458.540024,632.659334 A138.98715231000358,138.98715231000358,0,0,0,519.7572604027389,637.5757215813259" stroke="grey" stroke-width="5" fill="none" />
<path d="M519.7572604027388,637.5757215813259 L30.540024000000017,212.659334" stroke="grey" stroke-width="5" />
<circle cx="519.7572604027388" cy="637.5757215813259" r="2.5" fill="grey" stroke="none" />
<circle cx="458.540024" cy="632.659334" r="5" fill="black" stroke="none" />
<circle cx="530.540024" cy="712.659334" r="5" fill="black" stroke="none" />
<path d="M506.540024,472.659334 L504.1356019999455,482.7110553433074" stroke="grey" stroke-width="5" />
<circle cx="504.1356019999455" cy="482.7110553433074" r="2.5" fill="grey" stroke="none" />
<path d="M504.1356019999455,482.7110553433074 A17.776692922029433,17.776692922029433,0,0,0,482.540024,496.659334" stroke="grey" stroke-width="5" fill="none" />
<circle cx="506.540024" cy="472.659334" r="5" fill="black" stroke="none" />
<circle cx="482.540024" cy="496.659334" r="5" fill="black" stroke="none" />
<path d="M482.540024,496.659334 A17.776692922029433,17.776692922029433,0,0,0,485.3769279144052,510.1082428751801" stroke="grey" stroke-width="5" fill="none" />
<path d="M485.3769279144052,510.1082428751801 L-41.45997599999998,28.659334" stroke="grey" stroke-width="5" />
<circle cx="485.3769279144052" cy="510.1082428751801" r="2.5" fill="grey" stroke="none" />
<circle cx="482.540024" cy="496.659334" r="5" fill="black" stroke="none" />
<circle cx="458.540024" cy="528.659334" r="5" fill="black" stroke="none" />
<path d="M458.540024,528.659334 A50.40126025452271,50.40126025452271,0,0,0,476.02327387948446,544.3328731280291" stroke="grey" stroke-width="5" fill="none" />
<path d="M476.02327387948446,544.3328731280291 L-41.45997599999998,76.659334" stroke="grey" stroke-width="5" />
<circle cx="476.02327387948446" cy="544.3328731280291" r="2.5" fill="grey" stroke="none" />
<circle cx="458.540024" cy="528.659334" r="5" fill="black" stroke="none" />
<circle cx="458.540024" cy="576.659334" r="5" fill="black" stroke="none" />
<path d="M458.540024,472.659334 L485.15963454247174,490.2135622246328" stroke="grey" stroke-width="5" />
<circle cx="485.15963454247174" cy="490.2135622246328" r="2.5" fill="grey" stroke="none" />
<path d="M485.15963454247174,490.2135622246328 A17.776692922029433,17.776692922029433,0,0,0,482.540024,496.659334" stroke="grey" stroke-width="5" fill="none" />
<circle cx="458.540024" cy="472.659334" r="5" fill="black" stroke="none" />
<circle cx="482.540024" cy="496.659334" r="5" fill="black" stroke="none" />
<path d="M410.540024,528.659334 L452.00163107418774,515.3767231784198" stroke="grey" stroke-width="5" />
<circle cx="452.00163107418774" cy="515.3767231784198" r="2.5" fill="grey" stroke="none" />
<path d="M452.00163107418774,515.3767231784198 A50.40126025452271,50.40126025452271,0,0,0,458.540024,528.659334" stroke="grey" stroke-width="5" fill="none" />
<circle cx="410.540024" cy="528.659334" r="5" fill="black" stroke="none" />
<circle cx="458.540024" cy="528.659334" r="5" fill="black" stroke="none" />
<path d="M506.540024,472.659334 A28.11198910152272,28.11198910152272,0,0,1,506.25434080235186,527.4074287807553" stroke="grey" stroke-width="5" fill="none" />
<path d="M506.25434080235186,527.4074287807553 L6.540024000000017,28.659334" stroke="grey" stroke-width="5" />
<circle cx="506.25434080235186" cy="527.4074287807553" r="2.5" fill="grey" stroke="none" />
<circle cx="506.540024" cy="472.659334" r="5" fill="black" stroke="none" />
<circle cx="506.540024" cy="528.659334" r="5" fill="black" stroke="none" />
<path d="M482.540024,496.659334 A17.776692922029433,17.776692922029433,0,0,0,503.9549494513395,517.3311622830519" stroke="grey" stroke-width="5" fill="none" />
<path d="M503.9549494513395,517.3311622830519 L6.540024000000017,28.659334" stroke="grey" stroke-width="5" />
<circle cx="503.9549494513395" cy="517.3311622830519" r="2.5" fill="grey" stroke="none" />
<circle cx="482.540024" cy="496.659334" r="5" fill="black" stroke="none" />
<circle cx="506.540024" cy="528.659334" r="5" fill="black" stroke="none" />
<path d="M458.540024,528.659334 L475.81884583603704,516.7152960650653" stroke="grey" stroke-width="5" />
<circle cx="475.81884583603704" cy="516.7152960650653" r="2.5" fill="grey" stroke="none" />
<path d="M475.81884583603704,516.7152960650653 A29.396076936287475,29.396076936287475,0,0,0,506.540024,528.6593340000001" stroke="grey" stroke-width="5" fill="none" />
<circle cx="458.540024" cy="528.659334" r="5" fill="black" stroke="none" />
<circle cx="506.540024" cy="528.659334" r="5" fill="black" stroke="none" />
<path d="M458.540024,576.659334 L486.0157924194818,525.8567453015477" stroke="grey" stroke-width="5" />
<circle cx="486.0157924194818" cy="525.8567453015477" r="2.5" fill="grey" stroke="none" />
<path d="M486.0157924194818,525.8567453015477 A29.396076936287475,29.396076936287475,0,0,0,506.540024,528.6593340000001" stroke="grey" stroke-width="5" fill="none" />
<circle cx="458.540024" cy="576.659334" r="5" fill="black" stroke="none" />
<circle cx="506.540024" cy="528.659334" r="5" fill="black" stroke="none" />
<path d="M506.540024,528.6593340000001 A29.396076936287475,29.396076936287475,0,0,1,501.905899259319,529.3342272312985" stroke="grey" stroke-width="5" fill="none" />
<path d="M501.905899259319,529.3342272312985 L6.540024000000017,100.659334" stroke="grey" stroke-width="5" />
<circle cx="501.905899259319" cy="529.3342272312985" r="2.5" fill="grey" stroke="none" />
<circle cx="506.540024" cy="528.659334" r="5" fill="black" stroke="none" />
<circle cx="506.540024" cy="600.659334" r="5" fill="black" stroke="none" />
<path d="M506.540024,600.659334 A100.87156901349424,100.87156901349424,0,0,1,469.9099322428466,596.2790800621508" stroke="grey" stroke-width="5" fill="none" />
<path d="M469.90993224284654,596.2790800621508 L-41.45997599999998,132.659334" stroke="grey" stroke-width="5" />
<circle cx="469.90993224284654" cy="596.2790800621508" r="2.5" fill="grey" stroke="none" />
<circle cx="506.540024" cy="600.659334" r="5" fill="black" stroke="none" />
<circle cx="458.540024" cy="632.659334" r="5" fill="black" stroke="none" />
<path d="M506.540024,472.659334 A28.11198910152272,28.11198910152272,0,0,1,518.1019343900462,478.4917712820745" stroke="grey" stroke-width="5" fill="none" />
<path d="M518.1019343900463,478.4917712820745 L110.54002400000002,-131.340666" stroke="grey" stroke-width="5" />
<circle cx="518.1019343900463" cy="478.4917712820745" r="2.5" fill="grey" stroke="none" />
<circle cx="506.540024" cy="472.659334" r="5" fill="black" stroke="none" />
<circle cx="610.540024" cy="368.659334" r="5" fill="black" stroke="none" />
<path d="M506.540024,472.659334 A28.11198910152272,28.11198910152272,0,0,1,528.1033269868572,499.3021866195603" stroke="grey" stroke-width="5" fill="none" />
<path d="M528.1033269868572,499.3021866195603 L134.54002400000002,-3.340665999999999" stroke="grey" stroke-width="5" />
<circle cx="528.1033269868572" cy="499.3021866195603" r="2.5" fill="grey" stroke="none" />
<circle cx="506.540024" cy="472.659334" r="5" fill="black" stroke="none" />
<circle cx="634.540024" cy="496.659334" r="5" fill="black" stroke="none" />
<path d="M634.540024,496.659334 A134.5814924395035,134.5814924395035,0,0,1,634.5663313013551,497.9799536297202" stroke="grey" stroke-width="5" fill="none" />
<path d="M634.5663313013551,497.9799536297202 L222.54002400000002,-3.340665999999999" stroke="grey" stroke-width="5" />
<circle cx="634.5663313013551" cy="497.9799536297202" r="2.5" fill="grey" stroke="none" />
<circle cx="634.540024" cy="496.659334" r="5" fill="black" stroke="none" />
<circle cx="722.540024" cy="496.659334" r="5" fill="black" stroke="none" />
<path d="M506.540024,528.6593340000001 A29.396076936287475,29.396076936287475,0,0,0,513.8012025337107,525.954886782023" stroke="grey" stroke-width="5" fill="none" />
<path d="M513.8012025337107,525.954886782023 L70.54002400000002,132.659334" stroke="grey" stroke-width="5" />
<circle cx="513.8012025337107" cy="525.954886782023" r="2.5" fill="grey" stroke="none" />
<circle cx="506.540024" cy="528.659334" r="5" fill="black" stroke="none" />
<circle cx="570.540024" cy="632.659334" r="5" fill="black" stroke="none" />
<circle cx="500" cy="500" r="5" fill="red" stroke="none" />
</svg>