<?xml version="1.0" encoding="UTF-8"?>
<svg xmlns="http://www.w3.org/2000/svg" xmlns:xlink="http://www.w3.org/1999/xlink"
     width="1000" height="1000" viewBox="0 0 1000 1000">
<defs>
</defs>
<rect x="0" y="0" width="1000" height="1000" fill="white" />
<path d="M397.616552,612.085482 L475.3134817762408,527.0258557224195" stroke="grey" stroke-width="5" />
<circle cx="475.3134817762408" cy="527.0258557224195" r="2.5" fill="grey" stroke="none" />
<path d="M475.3134817762408,527.0258557224195 A36.60356621343103,36.60356621343103,0,0,0,517.6165520000001,532.085482" stroke="grey" stroke-width="5" fill="none" />
<circle cx="397.616552" cy="612.085482" r="5" fill="black" stroke="none" />
<circle cx="517.616552" cy="532.085482" r="5" fill="black" stroke="none" />
<path d="M517.616552,532.085482 L514.2952786060767,526.0363608270371" stroke="grey" stroke-width="5" />
<circle cx="514.2952786060767" cy="526.0363608270371" r="2.5" fill="grey" stroke="none" />
<path d="M514.2952786060767,526.0363608270371 A29.70264425166601,29.70264425166601,0,0,0,517.6165520000001,476.085482" stroke="grey" stroke-width="5" fill="none" />
<circle cx="517.616552" cy="532.085482" r="5" fill="black" stroke="none" />
<circle cx="517.616552" cy="476.085482" r="5" fill="black" stroke="none" />
<path d="M517.6165520000001,476.085482 A29.70264425166601,29.70264425166601,0,0,0,471.3740690184849,492.0751560909655" stroke="grey" stroke-width="5" fill="none" />
<path d="M471.3740690184849,492.0751560909655 L413.616552,476.085482" stroke="grey" stroke-width="5" />
<circle cx="471.3740690184849" cy="492.0751560909655" r="2.5" fill="grey" stroke="none" />
<circle cx="517.616552" cy="476.085482" r="5" fill="black" stroke="none" />
<circle cx="413.616552" cy="476.085482" r="5" fill="black" stroke="none" />
<path d="M413.616552,476.08548199999996 A89.63260712230246,89.63260712230246,0,0,1,469.44486349347386,415.7362005805068" stroke="grey" stroke-width="5" fill="none" />
<path d="M469.4448634934739,415.7362005805068 L453.616552,372.085482" stroke="grey" stroke-width="5" />
<circle cx="469.4448634934739" cy="415.7362005805068" r="2.5" fill="grey" stroke="none" />
<circle cx="413.616552" cy="476.085482" r="5" fill="black" stroke="none" />
<circle cx="453.616552" cy="372.085482" r="5" fill="black" stroke="none" />
<path d="M453.616552,372.085482 A136.06450001209362,136.06450001209362,0,0,1,539.5634700212976,369.81444011175853" stroke="grey" stroke-width="5" fill="none" />
<path d="M539.5634700212976,369.81444011175853 L565.616552,284.085482" stroke="grey" stroke-width="5" />
<circle cx="539.5634700212976" cy="369.81444011175853" r="2.5" fill="grey" stroke="none" />
<circle cx="453.616552" cy="372.085482" r="5" fill="black" stroke="none" />
<circle cx="565.616552" cy="284.085482" r="5" fill="black" stroke="none" />
<path d="M565.616552,284.085482 L564.8488102814192,286.6117741940162" stroke="grey" stroke-width="5" />
<circle cx="564.8488102814192" cy="286.6117741940162" r="2.5" fill="grey" stroke="none" />
<path d="M564.8488102814192,286.6117741940162 A223.02444508963816,223.02444508963816,0,0,1,613.616552,308.085482" stroke="grey" stroke-width="5" fill="none" />
<circle cx="565.616552" cy="284.085482" r="5" fill="black" stroke="none" />
<circle cx="613.616552" cy="308.085482" r="5" fill="black" stroke="none" />
<path d="M613.616552,308.085482 L599.4770749039343,331.96907012071233" stroke="grey" stroke-width="5" />
<circle cx="599.4770749039343" cy="331.96907012071233" r="2.5" fill="grey" stroke="none" />
<path d="M599.4770749039343,331.96907012071233 A195.26925469090372,195.26925469090372,0,0,0,565.616552,316.08548199999996" stroke="grey" stroke-width="5" fill="none" />
<circle cx="613.616552" cy="308.085482" r="5" fill="black" stroke="none" />
<circle cx="565.616552" cy="316.085482" r="5" fill="black" stroke="none" />
<path d="M565.616552,284.085482 L556.7784345171447,313.1677458217577" stroke="grey" stroke-width="5" />
<circle cx="556.7784345171447" cy="313.1677458217577" r="2.5" fill="grey" stroke="none" />
<path d="M556.7784345171447,313.1677458217577 A195.26925469090372,195.26925469090372,0,0,1,565.616552,316.08548199999996" stroke="grey" stroke-width="5" fill="none" />
<circle cx="565.616552" cy="284.085482" r="5" fill="black" stroke="none" />
<circle cx="565.616552" cy="316.085482" r="5" fill="black" stroke="none" />
<path d="M565.616552,316.085482 L524.8800167667303,430.2646031829728" stroke="grey" stroke-width="5" />
<circle cx="524.8800167667303" cy="430.2646031829728" r="2.5" fill="grey" stroke="none" />
<path d="M524.8800167667301,430.2646031829728 A74.04080498982319,74.04080498982319,0,0,0,517.6165520000001,428.085482" stroke="grey" stroke-width="5" fill="none" />
<circle cx="565.616552" cy="316.085482" r="5" fill="black" stroke="none" />
<circle cx="517.616552" cy="428.085482" r="5" fill="black" stroke="none" />
<path d="M453.616552,372.085482 L474.7600011184522,430.39408602711626" stroke="grey" stroke-width="5" />
<circle cx="474.7600011184522" cy="430.39408602711626" r="2.5" fill="grey" stroke="none" />
<path d="M474.7600011184522,430.39408602711626 A74.04080498982319,74.04080498982319,0,0,1,517.6165520000001,428.085482" stroke="grey" stroke-width="5" fill="none" />
<circle cx="453.616552" cy="372.085482" r="5" fill="black" stroke="none" />
<circle cx="517.616552" cy="428.085482" r="5" fill="black" stroke="none" />
<path d="M517.616552,428.085482 L507.0671594814359,471.15034952716104" stroke="grey" stroke-width="5" />
<circle cx="507.0671594814359" cy="471.15034952716104" r="2.5" fill="grey" stroke="none" />
<path d="M507.0671594814359,471.15034952716104 A29.70264425166601,29.70264425166601,0,0,1,517.6165520000001,476.085482" stroke="grey" stroke-width="5" fill="none" />
<circle cx="517.616552" cy="428.085482" r="5" fill="black" stroke="none" />
<circle cx="517.616552" cy="476.085482" r="5" fill="black" stroke="none" />
<path d="M613.616552,308.085482 A223.02444508963816,223.02444508963816,0,0,1,623.1599246448209,314.0657748852485" stroke="grey" stroke-width="5" fill="none" />
<path d="M623.1599246448208,314.0657748852485 L653.616552,268.085482" stroke="grey" stroke-width="5" />
<circle cx="623.1599246448208" cy="314.0657748852485" r="2.5" fill="grey" stroke="none" />
<circle cx="613.616552" cy="308.085482" r="5" fill="black" stroke="none" />
<circle cx="653.616552" cy="268.085482" r="5" fill="black" stroke="none" />
<path d="M613.616552,308.085482 L605.0006017261646,322.63904761000975" stroke="grey" stroke-width="5" />
<circle cx="605.0006017261646" cy="322.63904761000975" r="2.5" fill="grey" stroke="none" />
<path d="M605.0006017261646,322.63904761000975 A206.11170222852712,206.11170222852712,0,0,1,661.616552,372.08548199999996" stroke="grey" stroke-width="5" fill="none" />
<circle cx="613.616552" cy="308.085482" r="5" fill="black" stroke="none" />
<circle cx="661.616552" cy="372.085482" r="5" fill="black" stroke="none" />
<path d="M565.616552,316.085482 L557.4906429132752,338.86133058461945" stroke="grey" stroke-width="5" />
<circle cx="557.4906429132752" cy="338.86133058461945" r="2.5" fill="grey" stroke="none" />
<path d="M557.4906429132752,338.8613305846194 A171.08724325191818,171.08724325191818,0,0,1,613.6165520000001,372.08548200000007" stroke="grey" stroke-width="5" fill="none" />
<circle cx="565.616552" cy="316.085482" r="5" fill="black" stroke="none" />
<circle cx="613.616552" cy="372.085482" r="5" fill="black" stroke="none" />
<path d="M517.6165520000001,428.085482 A74.04080498982319,74.04080498982319,0,0,1,549.9049737811873,445.305078888072" stroke="grey" stroke-width="5" fill="none" />
<path d="M549.9049737811873,445.305078888072 L565.616552,428.085482" stroke="grey" stroke-width="5" />
<circle cx="549.9049737811873" cy="445.305078888072" r="2.5" fill="grey" stroke="none" />
<circle cx="517.616552" cy="428.085482" r="5" fill="black" stroke="none" />
<circle cx="565.616552" cy="428.085482" r="5" fill="black" stroke="none" />
<path d="M517.6165520000001,476.085482 A29.70264425166601,29.70264425166601,0,0,1,529.0657614035929,493.88210905863497" stroke="grey" stroke-width="5" fill="none" />
<path d="M529.0657614035929,493.88210905863497 L613.616552,476.085482" stroke="grey" stroke-width="5" />
<circle cx="529.0657614035929" cy="493.88210905863497" r="2.5" fill="grey" stroke="none" />
<circle cx="517.616552" cy="476.085482" r="5" fill="black" stroke="none" />
<circle cx="613.616552" cy="476.085482" r="5" fill="black" stroke="none" />
<path d="M517.6165520000001,532.085482 A36.60356621343103,36.60356621343103,0,0,0,535.2258656309239,509.9478364528738" stroke="grey" stroke-width="5" fill="none" />
<path d="M535.2258656309239,509.9478364528738 L613.616552,532.085482" stroke="grey" stroke-width="5" />
<circle cx="535.2258656309239" cy="509.9478364528738" r="2.5" fill="grey" stroke="none" />
<circle cx="517.616552" cy="532.085482" r="5" fill="black" stroke="none" />
<circle cx="613.616552" cy="532.085482" r="5" fill="black" stroke="none" />
<path d="M661.616552,372.085482 L634.1531317562099,393.8219323798835" stroke="grey" stroke-width="5" />
<circle cx="634.1531317562099" cy="393.8219323798835" r="2.5" fill="grey" stroke="none" />
<path d="M634.1531317562099,393.8219323798835 A171.08724325191818,171.08724325191818,0,0,0,613.6165520000001,372.08548200000007" stroke="grey" stroke-width="5" fill="none" />
<circle cx="661.616552" cy="372.085482" r="5" fill="black" stroke="none" />
<circle cx="613.616552" cy="372.085482" r="5" fill="black" stroke="none" />
<path d="M613.616552,372.085482 L564.6494273502974,427.21482747963256" stroke="grey" stroke-width="5" />
<circle cx="564.6494273502974" cy="427.21482747963256" r="2.5" fill="grey" stroke="none" />
<path d="M564.6494273502974,427.21482747963256 A97.35106468622224,97.35106468622224,0,0,1,565.616552,428.085482" stroke="grey" stroke-width="5" fill="none" />
<circle cx="613.616552" cy="372.085482" r="5" fill="black" stroke="none" />
<circle cx="565.616552" cy="428.085482" r="5" fill="black" stroke="none" />
<path d="M565.616552,428.085482 A97.35106468622224,97.35106468622224,0,0,1,595.263667254028,479.94847893912095" stroke="grey" stroke-width="5" fill="none" />
<path d="M595.263667254028,479.94847893912095 L613.616552,476.085482" stroke="grey" stroke-width="5" />
<circle cx="595.263667254028" cy="479.94847893912095" r="2.5" fill="grey" stroke="none" />
<circle cx="565.616552" cy="428.085482" r="5" fill="black" stroke="none" />
<circle cx="613.616552" cy="476.085482" r="5" fill="black" stroke="none" />
<path d="M613.616552,476.085482 A116.10609398106988,116.10609398106988,0,0,1,611.736043468023,531.554423614655" stroke="grey" stroke-width="5" fill="none" />
<path d="M611.736043468023,531.554423614655 L613.616552,532.085482" stroke="grey" stroke-width="5" />
<circle cx="611.736043468023" cy="531.554423614655" r="2.5" fill="grey" stroke="none" />
<circle cx="613.616552" cy="476.085482" r="5" fill="black" stroke="none" />
<circle cx="613.616552" cy="532.085482" r="5" fill="black" stroke="none" />
<path d="M613.616552,532.085482 A118.06015010807428,118.06015010807428,0,0,1,601.0634562641602,561.027672833586" stroke="grey" stroke-width="5" fill="none" />
<path d="M601.0634562641602,561.027672833586 L685.616552,612.085482" stroke="grey" stroke-width="5" />
<circle cx="601.0634562641602" cy="561.027672833586" r="2.5" fill="grey" stroke="none" />
<circle cx="613.616552" cy="532.085482" r="5" fill="black" stroke="none" />
<circle cx="685.616552" cy="612.085482" r="5" fill="black" stroke="none" />
<path d="M661.616552,372.085482 L635.2161051828366,392.98062168595305" stroke="grey" stroke-width="5" />
<circle cx="635.2161051828366" cy="392.98062168595305" r="2.5" fill="grey" stroke="none" />
<path d="M635.2161051828366,392.98062168595305 A172.44286716342032,172.44286716342032,0,0,1,637.616552,396.085482" stroke="grey" stroke-width="5" fill="none" />
<circle cx="661.616552" cy="372.085482" r="5" fill="black" stroke="none" />
<circle cx="637.616552" cy="396.085482" r="5" fill="black" stroke="none" />
<path d="M637.616552,396.085482 L607.3074019077392,418.9719784065292" stroke="grey" stroke-width="5" />
<circle cx="607.3074019077392" cy="418.9719784065292" r="2.5" fill="grey" stroke="none" />
<path d="M607.3074019077392,418.9719784065292 A134.46344777500326,134.46344777500326,0,0,1,613.616552,428.085482" stroke="grey" stroke-width="5" fill="none" />
<circle cx="637.616552" cy="396.085482" r="5" fill="black" stroke="none" />
<circle cx="613.616552" cy="428.085482" r="5" fill="black" stroke="none" />
<path d="M613.616552,428.085482 L598.1052790375454,437.903468015465" stroke="grey" stroke-width="5" />
<circle cx="598.1052790375454" cy="437.903468015465" r="2.5" fill="grey" stroke="none" />
<path d="M598.1052790375454,437.903468015465 A116.10609398106988,116.10609398106988,0,0,1,613.616552,476.085482" stroke="grey" stroke-width="5" fill="none" />
<circle cx="613.616552" cy="428.085482" r="5" fill="black" stroke="none" />
<circle cx="613.616552" cy="476.085482" r="5" fill="black" stroke="none" />
<path d="M613.6165520000001,372.08548200000007 A171.08724325191818,171.08724325191818,0,0,1,636.5347079575156,396.90238447715217" stroke="grey" stroke-width="5" fill="none" />
<path d="M636.5347079575156,396.90238447715217 L637.616552,396.085482" stroke="grey" stroke-width="5" />
<circle cx="636.5347079575156" cy="396.90238447715217" r="2.5" fill="grey" stroke="none" />
<circle cx="613.616552" cy="372.085482" r="5" fill="black" stroke="none" />
<circle cx="637.616552" cy="396.085482" r="5" fill="black" stroke="none" />
<path d="M565.616552,428.085482 A97.35106468622224,97.35106468622224,0,0,1,582.2579852458143,447.93414113989445" stroke="grey" stroke-width="5" fill="none" />
<path d="M582.2579852458143,447.93414113989445 L613.616552,428.085482" stroke="grey" stroke-width="5" />
<circle cx="582.2579852458143" cy="447.93414113989445" r="2.5" fill="grey" stroke="none" />
<circle cx="565.616552" cy="428.085482" r="5" fill="black" stroke="none" />
<circle cx="613.616552" cy="428.085482" r="5" fill="black" stroke="none" />
<path d="M661.616552,372.085482 L638.7065999005558,390.2180027346553" stroke="grey" stroke-width="5" />
<circle cx="638.7065999005558" cy="390.2180027346553" r="2.5" fill="grey" stroke="none" />
<path d="M638.7065999005558,390.2180027346552 A176.89434072219788,176.89434072219788,0,0,1,661.6165520000001,428.085482" stroke="grey" stroke-width="5" fill="none" />
<circle cx="661.616552" cy="372.085482" r="5" fill="black" stroke="none" />
<circle cx="661.616552" cy="428.085482" r="5" fill="black" stroke="none" />
<path d="M637.616552,396.085482 A172.44286716342032,172.44286716342032,0,0,1,657.5495377306254,429.89518136099866" stroke="grey" stroke-width="5" fill="none" />
<path d="M657.5495377306254,429.8951813609986 L661.616552,428.085482" stroke="grey" stroke-width="5" />
<circle cx="657.5495377306254" cy="429.8951813609986" r="2.5" fill="grey" stroke="none" />
<circle cx="637.616552" cy="396.085482" r="5" fill="black" stroke="none" />
<circle cx="661.616552" cy="428.085482" r="5" fill="black" stroke="none" />
<path d="M613.616552,428.085482 A134.46344777500326,134.46344777500326,0,0,1,622.8502772372813,445.3353114866264" stroke="grey" stroke-width="5" fill="none" />
<path d="M622.8502772372813,445.3353114866264 L661.616552,428.085482" stroke="grey" stroke-width="5" />
<circle cx="622.8502772372813" cy="445.3353114866264" r="2.5" fill="grey" stroke="none" />
<circle cx="613.616552" cy="428.085482" r="5" fill="black" stroke="none" />
<circle cx="661.616552" cy="428.085482" r="5" fill="black" stroke="none" />
<path d="M613.616552,476.085482 A116.10609398106988,116.10609398106988,0,0,0,606.0783883690053,452.7982989652333" stroke="grey" stroke-width="5" fill="none" />
<path d="M606.0783883690053,452.7982989652333 L661.616552,428.085482" stroke="grey" stroke-width="5" />
<circle cx="606.0783883690053" cy="452.7982989652333" r="2.5" fill="grey" stroke="none" />
<circle cx="613.616552" cy="476.085482" r="5" fill="black" stroke="none" />
<circle cx="661.616552" cy="428.085482" r="5" fill="black" stroke="none" />
<path d="M661.616552,428.085482 L647.6582768409443,434.29649577150326" stroke="grey" stroke-width="5" />
<circle cx="647.6582768409443" cy="434.29649577150326" r="2.5" fill="grey" stroke="none" />
<path d="M647.6582768409443,434.29649577150326 A161.6165746065082,161.6165746065082,0,0,1,661.616552,500.085482" stroke="grey" stroke-width="5" fill="none" />
<circle cx="661.616552" cy="428.085482" r="5" fill="black" stroke="none" />
<circle cx="661.616552" cy="500.085482" r="5" fill="black" stroke="none" />
<path d="M661.616552,500.085482 L618.060133594126,500.0624442002691" stroke="grey" stroke-width="5" />
<circle cx="618.060133594126" cy="500.0624442002691" r="2.5" fill="grey" stroke="none" />
<path d="M618.060133594126,500.0624442002691 A118.06015010807428,118.06015010807428,0,0,1,613.616552,532.085482" stroke="grey" stroke-width="5" fill="none" />
<circle cx="661.616552" cy="500.085482" r="5" fill="black" stroke="none" />
<circle cx="613.616552" cy="532.085482" r="5" fill="black" stroke="none" />
<path d="M661.616552,372.08548199999996 A206.11170222852712,206.11170222852712,0,0,0,655.2596032911522,364.4400893279468" stroke="grey" stroke-width="5" fill="none" />
<path d="M655.2596032911522,364.4400893279468 L765.616552,268.085482" stroke="grey" stroke-width="5" />
<circle cx="655.2596032911522" cy="364.4400893279468" r="2.5" fill="grey" stroke="none" />
<circle cx="661.616552" cy="372.085482" r="5" fill="black" stroke="none" />
<circle cx="765.616552" cy="268.085482" r="5" fill="black" stroke="none" />
<path d="M661.616552,372.08548199999996 A206.11170222852712,206.11170222852712,0,0,1,694.001968840197,430.39202716880595" stroke="grey" stroke-width="5" fill="none" />
<path d="M694.001968840197,430.39202716880595 L789.616552,396.085482" stroke="grey" stroke-width="5" />
<circle cx="694.001968840197" cy="430.39202716880595" r="2.5" fill="grey" stroke="none" />
<circle cx="661.616552" cy="372.085482" r="5" fill="black" stroke="none" />
<circle cx="789.616552" cy="396.085482" r="5" fill="black" stroke="none" />
<path d="M789.616552,396.085482 A307.6946119832797,307.6946119832797,0,0,1,796.6667465219675,418.3616771876609" stroke="grey" stroke-width="5" fill="none" />
<path d="M796.6667465219675,418.3616771876609 L877.616552,396.085482" stroke="grey" stroke-width="5" />
<circle cx="796.6667465219675" cy="418.3616771876609" r="2.5" fill="grey" stroke="none" />
<circle cx="789.616552" cy="396.085482" r="5" fill="black" stroke="none" />
<circle cx="877.616552" cy="396.085482" r="5" fill="black" stroke="none" />
<path d="M661.6165520000001,428.085482 A176.89434072219788,176.89434072219788,0,0,1,675.1322350498184,524.9059837387761" stroke="grey" stroke-width="5" fill="none" />
<path d="M675.1322350498184,524.9059837387761 L725.616552,532.085482" stroke="grey" stroke-width="5" />
<circle cx="675.1322350498184" cy="524.9059837387761" r="2.5" fill="grey" stroke="none" />
<circle cx="661.616552" cy="428.085482" r="5" fill="black" stroke="none" />
<circle cx="725.616552" cy="532.085482" r="5" fill="black" stroke="none" />
<circle cx="500" cy="500" r="5" fill="red" stroke="none" />
</svg>