<?xml version="1.0" encoding="UTF-8"?>
<svg xmlns="http://www.w3.org/2000/svg" xmlns:xlink="http://www.w3.org/1999/xlink"
     width="1000" height="1000" viewBox="0 0 1000 1000">
<defs>
</defs>
<rect x="0" y="0" width="1000" height="1000" fill="white" />
<path d="M295.50924799999996,649.0759679999999 L411.8125610894547,564.2895959472554" stroke="grey" stroke-width="5" />
<circle cx="411.8125610894547" cy="564.2895959472554" r="2.5" fill="grey" stroke="none" />
<path d="M411.8125610894547,564.2895959472554 A109.13375522111626,109.13375522111626,0,0,0,415.50924799999996,569.0759679999999" stroke="grey" stroke-width="5" fill="none" />
<circle cx="295.50924799999996" cy="649.0759679999999" r="5" fill="black" stroke="none" />
<circle cx="415.50924799999996" cy="569.0759679999999" r="5" fill="black" stroke="none" />
<path d="M415.50924799999996,569.0759679999999 L433.80900559782566,554.1148812501132" stroke="grey" stroke-width="5" />
<circle cx="433.80900559782566" cy="554.1148812501132" r="2.5" fill="grey" stroke="none" />
<path d="M433.80900559782566,554.1148812501132 A85.49659708235485,85.49659708235485,0,0,1,415.509248,513.075968" stroke="grey" stroke-width="5" fill="none" />
<circle cx="415.50924799999996" cy="569.0759679999999" r="5" fill="black" stroke="none" />
<circle cx="415.50924799999996" cy="513.0759679999999" r="5" fill="black" stroke="none" />
<path d="M415.509248,513.075968 A85.49659708235485,85.49659708235485,0,0,1,414.7083880507861,505.91684407156663" stroke="grey" stroke-width="5" fill="none" />
<path d="M414.7083880507861,505.91684407156663 L311.50924799999996,513.0759679999999" stroke="grey" stroke-width="5" />
<circle cx="414.7083880507861" cy="505.91684407156663" r="2.5" fill="grey" stroke="none" />
<circle cx="415.50924799999996" cy="513.0759679999999" r="5" fill="black" stroke="none" />
<circle cx="311.50924799999996" cy="513.0759679999999" r="5" fill="black" stroke="none" />
<path d="M311.50924799999996,513.0759679999999 L326.3005935296406,512.0498637547237" stroke="grey" stroke-width="5" />
<circle cx="326.3005935296406" cy="512.0498637547237" r="2.5" fill="grey" stroke="none" />
<path d="M326.3005935296406,512.0498637547237 A174.11686599713005,174.11686599713005,0,0,1,351.50924799999996,409.07596799999993" stroke="grey" stroke-width="5" fill="none" />
<circle cx="311.50924799999996" cy="513.0759679999999" r="5" fill="black" stroke="none" />
<circle cx="351.50924799999996" cy="409.07596799999993" r="5" fill="black" stroke="none" />
<path d="M351.50924799999996,409.07596799999993 A174.11686599713005,174.11686599713005,0,0,1,465.2058852036017,329.39503934469667" stroke="grey" stroke-width="5" fill="none" />
<path d="M465.2058852036017,329.39503934469667 L463.50924799999996,321.07596799999993" stroke="grey" stroke-width="5" />
<circle cx="465.2058852036017" cy="329.39503934469667" r="2.5" fill="grey" stroke="none" />
<circle cx="351.50924799999996" cy="409.07596799999993" r="5" fill="black" stroke="none" />
<circle cx="463.50924799999996" cy="321.07596799999993" r="5" fill="black" stroke="none" />
<path d="M463.50924799999996,321.07596799999993 L468.95591447551124,347.7824476789527" stroke="grey" stroke-width="5" />
<circle cx="468.95591447551124" cy="347.7824476789527" r="2.5" fill="grey" stroke="none" />
<path d="M468.9559144755112,347.7824476789527 A155.35095262232076,155.35095262232076,0,0,1,511.509248,345.07596799999993" stroke="grey" stroke-width="5" fill="none" />
<circle cx="463.50924799999996" cy="321.07596799999993" r="5" fill="black" stroke="none" />
<circle cx="511.50924799999996" cy="345.07596799999993" r="5" fill="black" stroke="none" />
<path d="M511.50924799999996,345.07596799999993 L511.2156311322543,349.0282947735975" stroke="grey" stroke-width="5" />
<circle cx="511.2156311322543" cy="349.0282947735975" r="2.5" fill="grey" stroke="none" />
<path d="M511.2156311322543,349.0282947735975 A151.38773451195624,151.38773451195624,0,0,0,463.50924799999996,353.075968" stroke="grey" stroke-width="5" fill="none" />
<circle cx="511.50924799999996" cy="345.07596799999993" r="5" fill="black" stroke="none" />
<circle cx="463.50924799999996" cy="353.07596799999993" r="5" fill="black" stroke="none" />
<path d="M463.50924799999996,321.07596799999993 L469.74789212285447,351.6657284048892" stroke="grey" stroke-width="5" />
<circle cx="469.74789212285447" cy="351.6657284048892" r="2.5" fill="grey" stroke="none" />
<path d="M469.74789212285447,351.6657284048892 A151.38773451195624,151.38773451195624,0,0,0,463.50924799999996,353.075968" stroke="grey" stroke-width="5" fill="none" />
<circle cx="463.50924799999996" cy="321.07596799999993" r="5" fill="black" stroke="none" />
<circle cx="463.50924799999996" cy="353.07596799999993" r="5" fill="black" stroke="none" />
<path d="M463.50924799999996,353.07596799999993 L477.96297043804867,411.2715123945628" stroke="grey" stroke-width="5" />
<circle cx="477.96297043804867" cy="411.2715123945628" r="2.5" fill="grey" stroke="none" />
<path d="M477.96297043804867,411.2715123945628 A91.42414989849529,91.42414989849529,0,0,0,415.50924799999996,465.07596799999993" stroke="grey" stroke-width="5" fill="none" />
<circle cx="463.50924799999996" cy="353.07596799999993" r="5" fill="black" stroke="none" />
<circle cx="415.50924799999996" cy="465.07596799999993" r="5" fill="black" stroke="none" />
<path d="M351.50924799999996,409.07596799999993 L422.03144312503275,452.2582015054153" stroke="grey" stroke-width="5" />
<circle cx="422.03144312503275" cy="452.2582015054153" r="2.5" fill="grey" stroke="none" />
<path d="M422.03144312503275,452.2582015054153 A91.42414989849529,91.42414989849529,0,0,0,415.50924799999996,465.07596799999993" stroke="grey" stroke-width="5" fill="none" />
<circle cx="351.50924799999996" cy="409.07596799999993" r="5" fill="black" stroke="none" />
<circle cx="415.50924799999996" cy="465.07596799999993" r="5" fill="black" stroke="none" />
<path d="M415.50924799999996,465.07596799999993 L420.9872688020689,467.3402936126791" stroke="grey" stroke-width="5" />
<circle cx="420.9872688020689" cy="467.3402936126791" r="2.5" fill="grey" stroke="none" />
<path d="M420.9872688020689,467.3402936126791 A85.49659708235485,85.49659708235485,0,0,0,415.509248,513.075968" stroke="grey" stroke-width="5" fill="none" />
<circle cx="415.50924799999996" cy="465.07596799999993" r="5" fill="black" stroke="none" />
<circle cx="415.50924799999996" cy="513.0759679999999" r="5" fill="black" stroke="none" />
<path d="M511.509248,345.07596799999993 A155.35095262232076,155.35095262232076,0,0,1,539.6895738766406,349.80460657479125" stroke="grey" stroke-width="5" fill="none" />
<path d="M539.6895738766406,349.80460657479125 L551.509248,305.07596799999993" stroke="grey" stroke-width="5" />
<circle cx="539.6895738766406" cy="349.80460657479125" r="2.5" fill="grey" stroke="none" />
<circle cx="511.50924799999996" cy="345.07596799999993" r="5" fill="black" stroke="none" />
<circle cx="551.509248" cy="305.07596799999993" r="5" fill="black" stroke="none" />
<path d="M511.50924799999996,345.07596799999993 L508.05065006567276,391.63156720620793" stroke="grey" stroke-width="5" />
<circle cx="508.05065006567276" cy="391.63156720620793" r="2.5" fill="grey" stroke="none" />
<path d="M508.05065006567276,391.63156720620793 A108.66706121296619,108.66706121296619,0,0,1,559.509248,409.07596799999993" stroke="grey" stroke-width="5" fill="none" />
<circle cx="511.50924799999996" cy="345.07596799999993" r="5" fill="black" stroke="none" />
<circle cx="559.509248" cy="409.07596799999993" r="5" fill="black" stroke="none" />
<path d="M463.50924799999996,353.07596799999993 L477.90863650579337,411.0527457218078" stroke="grey" stroke-width="5" />
<circle cx="477.90863650579337" cy="411.0527457218078" r="2.5" fill="grey" stroke="none" />
<path d="M477.9086365057933,411.0527457218078 A91.64956292674036,91.64956292674036,0,0,1,511.50924799999996,409.07596799999993" stroke="grey" stroke-width="5" fill="none" />
<circle cx="463.50924799999996" cy="353.07596799999993" r="5" fill="black" stroke="none" />
<circle cx="511.50924799999996" cy="409.07596799999993" r="5" fill="black" stroke="none" />
<path d="M415.50924799999996,465.07596799999993 L453.32053612079073,480.7051653385645" stroke="grey" stroke-width="5" />
<circle cx="453.32053612079073" cy="480.7051653385645" r="2.5" fill="grey" stroke="none" />
<path d="M453.32053612079073,480.7051653385645 A50.51002863454478,50.51002863454478,0,0,1,463.50924799999996,465.07596799999993" stroke="grey" stroke-width="5" fill="none" />
<circle cx="415.50924799999996" cy="465.07596799999993" r="5" fill="black" stroke="none" />
<circle cx="463.50924799999996" cy="465.07596799999993" r="5" fill="black" stroke="none" />
<path d="M415.50924799999996,513.0759679999999 L482.7853011653375,502.66418330720603" stroke="grey" stroke-width="5" />
<circle cx="482.7853011653375" cy="502.66418330720603" r="2.5" fill="grey" stroke="none" />
<path d="M482.7853011653375,502.66418330720603 A17.4196362953572,17.4196362953572,0,0,0,511.509248,513.0759679999999" stroke="grey" stroke-width="5" fill="none" />
<circle cx="415.50924799999996" cy="513.0759679999999" r="5" fill="black" stroke="none" />
<circle cx="511.50924799999996" cy="513.0759679999999" r="5" fill="black" stroke="none" />
<path d="M415.50924799999996,569.0759679999999 L445.784534878337,544.3242088062975" stroke="grey" stroke-width="5" />
<circle cx="445.784534878337" cy="544.3242088062975" r="2.5" fill="grey" stroke="none" />
<path d="M445.784534878337,544.3242088062975 A70.02822391480822,70.02822391480822,0,0,0,511.50924799999996,569.0759679999999" stroke="grey" stroke-width="5" fill="none" />
<circle cx="415.50924799999996" cy="569.0759679999999" r="5" fill="black" stroke="none" />
<circle cx="511.50924799999996" cy="569.0759679999999" r="5" fill="black" stroke="none" />
<path d="M559.509248,409.07596799999993 L550.1899702487603,423.31486929599004" stroke="grey" stroke-width="5" />
<circle cx="550.1899702487603" cy="423.31486929599004" r="2.5" fill="grey" stroke="none" />
<path d="M550.1899702487603,423.31486929599004 A91.64956292674036,91.64956292674036,0,0,0,511.50924799999996,409.07596799999993" stroke="grey" stroke-width="5" fill="none" />
<circle cx="559.509248" cy="409.07596799999993" r="5" fill="black" stroke="none" />
<circle cx="511.50924799999996" cy="409.07596799999993" r="5" fill="black" stroke="none" />
<path d="M511.50924799999996,409.07596799999993 L506.3429920173952,449.8898269317517" stroke="grey" stroke-width="5" />
<circle cx="506.3429920173952" cy="449.8898269317517" r="2.5" fill="grey" stroke="none" />
<path d="M506.3429920173952,449.8898269317517 A50.51002863454478,50.51002863454478,0,0,0,463.50924799999996,465.07596799999993" stroke="grey" stroke-width="5" fill="none" />
<circle cx="511.50924799999996" cy="409.07596799999993" r="5" fill="black" stroke="none" />
<circle cx="463.50924799999996" cy="465.07596799999993" r="5" fill="black" stroke="none" />
<path d="M463.50924799999996,465.07596799999993 L487.4152590056276,487.95558126072126" stroke="grey" stroke-width="5" />
<circle cx="487.4152590056276" cy="487.95558126072126" r="2.5" fill="grey" stroke="none" />
<path d="M487.4152590056276,487.95558126072126 A17.4196362953572,17.4196362953572,0,0,0,511.509248,513.0759679999999" stroke="grey" stroke-width="5" fill="none" />
<circle cx="463.50924799999996" cy="465.07596799999993" r="5" fill="black" stroke="none" />
<circle cx="511.50924799999996" cy="513.0759679999999" r="5" fill="black" stroke="none" />
<path d="M511.509248,513.0759679999999 A17.4196362953572,17.4196362953572,0,0,1,502.86294443847333,517.1827610646468" stroke="grey" stroke-width="5" fill="none" />
<path d="M502.86294443847333,517.1827610646468 L511.50924799999996,569.0759679999999" stroke="grey" stroke-width="5" />
<circle cx="502.86294443847333" cy="517.1827610646468" r="2.5" fill="grey" stroke="none" />
<circle cx="511.50924799999996" cy="513.0759679999999" r="5" fill="black" stroke="none" />
<circle cx="511.50924799999996" cy="569.0759679999999" r="5" fill="black" stroke="none" />
<path d="M511.50924799999996,569.0759679999999 A70.02822391480822,70.02822391480822,0,0,0,534.2243577278467,561.095380208154" stroke="grey" stroke-width="5" fill="none" />
<path d="M534.2243577278467,561.095380208154 L583.509248,649.0759679999999" stroke="grey" stroke-width="5" />
<circle cx="534.2243577278467" cy="561.095380208154" r="2.5" fill="grey" stroke="none" />
<circle cx="511.50924799999996" cy="569.0759679999999" r="5" fill="black" stroke="none" />
<circle cx="583.509248" cy="649.0759679999999" r="5" fill="black" stroke="none" />
<path d="M559.509248,409.07596799999993 L541.4889435097826,436.60914640814025" stroke="grey" stroke-width="5" />
<circle cx="541.4889435097826" cy="436.60914640814025" r="2.5" fill="grey" stroke="none" />
<path d="M541.4889435097826,436.60914640814025 A75.76102396788559,75.76102396788559,0,0,0,535.509248,433.07596799999993" stroke="grey" stroke-width="5" fill="none" />
<circle cx="559.509248" cy="409.07596799999993" r="5" fill="black" stroke="none" />
<circle cx="535.509248" cy="433.07596799999993" r="5" fill="black" stroke="none" />
<path d="M535.509248,433.07596799999993 L517.2348776244528,467.5175463683442" stroke="grey" stroke-width="5" />
<circle cx="517.2348776244528" cy="467.5175463683442" r="2.5" fill="grey" stroke="none" />
<path d="M517.2348776244528,467.5175463683442 A36.77160318319739,36.77160318319739,0,0,0,511.50924799999996,465.07596799999993" stroke="grey" stroke-width="5" fill="none" />
<circle cx="535.509248" cy="433.07596799999993" r="5" fill="black" stroke="none" />
<circle cx="511.50924799999996" cy="465.07596799999993" r="5" fill="black" stroke="none" />
<path d="M511.50924799999996,465.07596799999993 L505.45222119346374,483.45560479437006" stroke="grey" stroke-width="5" />
<circle cx="505.45222119346374" cy="483.45560479437006" r="2.5" fill="grey" stroke="none" />
<path d="M505.45222119346374,483.45560479437006 A17.4196362953572,17.4196362953572,0,0,1,511.509248,513.0759679999999" stroke="grey" stroke-width="5" fill="none" />
<circle cx="511.50924799999996" cy="465.07596799999993" r="5" fill="black" stroke="none" />
<circle cx="511.50924799999996" cy="513.0759679999999" r="5" fill="black" stroke="none" />
<path d="M511.50924799999996,409.07596799999993 L509.5139833266562,424.8387275658358" stroke="grey" stroke-width="5" />
<circle cx="509.5139833266562" cy="424.8387275658358" r="2.5" fill="grey" stroke="none" />
<path d="M509.5139833266562,424.8387275658358 A75.76102396788559,75.76102396788559,0,0,1,535.509248,433.07596799999993" stroke="grey" stroke-width="5" fill="none" />
<circle cx="511.50924799999996" cy="409.07596799999993" r="5" fill="black" stroke="none" />
<circle cx="535.509248" cy="433.07596799999993" r="5" fill="black" stroke="none" />
<path d="M463.50924799999996,465.07596799999993 L473.43451412176057,474.57509565965694" stroke="grey" stroke-width="5" />
<circle cx="473.43451412176057" cy="474.57509565965694" r="2.5" fill="grey" stroke="none" />
<path d="M473.43451412176057,474.57509565965694 A36.77160318319739,36.77160318319739,0,0,1,511.50924799999996,465.07596799999993" stroke="grey" stroke-width="5" fill="none" />
<circle cx="463.50924799999996" cy="465.07596799999993" r="5" fill="black" stroke="none" />
<circle cx="511.50924799999996" cy="465.07596799999993" r="5" fill="black" stroke="none" />
<path d="M559.509248,409.07596799999993 L537.7865630597563,442.2660042886897" stroke="grey" stroke-width="5" />
<circle cx="537.7865630597563" cy="442.2660042886897" r="2.5" fill="grey" stroke="none" />
<path d="M537.7865630597563,442.2660042886897 A69.0002797723497,69.0002797723497,0,0,1,559.509248,465.07596799999993" stroke="grey" stroke-width="5" fill="none" />
<circle cx="559.509248" cy="409.07596799999993" r="5" fill="black" stroke="none" />
<circle cx="559.509248" cy="465.07596799999993" r="5" fill="black" stroke="none" />
<path d="M535.509248,433.07596799999993 L532.3404821923255,439.0481188130308" stroke="grey" stroke-width="5" />
<circle cx="532.3404821923255" cy="439.0481188130308" r="2.5" fill="grey" stroke="none" />
<path d="M532.3404821923255,439.0481188130308 A69.0002797723497,69.0002797723497,0,0,1,559.509248,465.07596799999993" stroke="grey" stroke-width="5" fill="none" />
<circle cx="535.509248" cy="433.07596799999993" r="5" fill="black" stroke="none" />
<circle cx="559.509248" cy="465.07596799999993" r="5" fill="black" stroke="none" />
<path d="M511.50924799999996,465.07596799999993 A36.77160318319739,36.77160318319739,0,0,1,531.7136460954376,481.38829798229443" stroke="grey" stroke-width="5" fill="none" />
<path d="M531.7136460954376,481.38829798229443 L559.509248,465.07596799999993" stroke="grey" stroke-width="5" />
<circle cx="531.7136460954376" cy="481.38829798229443" r="2.5" fill="grey" stroke="none" />
<circle cx="511.50924799999996" cy="465.07596799999993" r="5" fill="black" stroke="none" />
<circle cx="559.509248" cy="465.07596799999993" r="5" fill="black" stroke="none" />
<path d="M511.509248,513.0759679999999 A17.4196362953572,17.4196362953572,0,0,0,515.0235543941319,491.18316712027007" stroke="grey" stroke-width="5" fill="none" />
<path d="M515.0235543941319,491.18316712027007 L559.509248,465.07596799999993" stroke="grey" stroke-width="5" />
<circle cx="515.0235543941319" cy="491.18316712027007" r="2.5" fill="grey" stroke="none" />
<circle cx="511.50924799999996" cy="513.0759679999999" r="5" fill="black" stroke="none" />
<circle cx="559.509248" cy="465.07596799999993" r="5" fill="black" stroke="none" />
<path d="M559.509248,465.07596799999993 A69.0002797723497,69.0002797723497,0,0,1,558.5639482974384,536.48701917775" stroke="grey" stroke-width="5" fill="none" />
<path d="M558.5639482974384,536.48701917775 L559.509248,537.0759679999999" stroke="grey" stroke-width="5" />
<circle cx="558.5639482974384" cy="536.48701917775" r="2.5" fill="grey" stroke="none" />
<circle cx="559.509248" cy="465.07596799999993" r="5" fill="black" stroke="none" />
<circle cx="559.509248" cy="537.0759679999999" r="5" fill="black" stroke="none" />
<path d="M559.509248,537.0759679999999 L559.4364153049667,537.0305911424331" stroke="grey" stroke-width="5" />
<circle cx="559.4364153049667" cy="537.0305911424331" r="2.5" fill="grey" stroke="none" />
<path d="M559.4364153049667,537.0305911424331 A70.02822391480822,70.02822391480822,0,0,1,511.50924799999996,569.0759679999999" stroke="grey" stroke-width="5" fill="none" />
<circle cx="559.509248" cy="537.0759679999999" r="5" fill="black" stroke="none" />
<circle cx="511.50924799999996" cy="569.0759679999999" r="5" fill="black" stroke="none" />
<path d="M559.509248,409.07596799999993 A108.66706121296619,108.66706121296619,0,0,1,569.8369479184928,416.7453851243532" stroke="grey" stroke-width="5" fill="none" />
<path d="M569.8369479184928,416.7453851243532 L663.509248,305.07596799999993" stroke="grey" stroke-width="5" />
<circle cx="569.8369479184928" cy="416.7453851243532" r="2.5" fill="grey" stroke="none" />
<circle cx="559.509248" cy="409.07596799999993" r="5" fill="black" stroke="none" />
<circle cx="663.509248" cy="305.07596799999993" r="5" fill="black" stroke="none" />
<path d="M559.509248,409.07596799999993 A108.66706121296619,108.66706121296619,0,0,1,602.343853843702,463.47239710737233" stroke="grey" stroke-width="5" fill="none" />
<path d="M602.343853843702,463.47239710737233 L687.509248,433.07596799999993" stroke="grey" stroke-width="5" />
<circle cx="602.343853843702" cy="463.47239710737233" r="2.5" fill="grey" stroke="none" />
<circle cx="559.509248" cy="409.07596799999993" r="5" fill="black" stroke="none" />
<circle cx="687.509248" cy="433.07596799999993" r="5" fill="black" stroke="none" />
<path d="M687.509248,433.07596799999993 A199.0943096742409,199.0943096742409,0,0,1,693.4682744587018,453.0045648745012" stroke="grey" stroke-width="5" fill="none" />
<path d="M693.4682744587018,453.0045648745012 L775.509248,433.07596799999993" stroke="grey" stroke-width="5" />
<circle cx="693.4682744587018" cy="453.0045648745012" r="2.5" fill="grey" stroke="none" />
<circle cx="687.509248" cy="433.07596799999993" r="5" fill="black" stroke="none" />
<circle cx="775.509248" cy="433.07596799999993" r="5" fill="black" stroke="none" />
<path d="M559.509248,465.07596799999993 A69.0002797723497,69.0002797723497,0,0,1,560.2216937885102,533.6806503189213" stroke="grey" stroke-width="5" fill="none" />
<path d="M560.2216937885102,533.6806503189213 L623.509248,569.0759679999999" stroke="grey" stroke-width="5" />
<circle cx="560.2216937885102" cy="533.6806503189213" r="2.5" fill="grey" stroke="none" />
<circle cx="559.509248" cy="465.07596799999993" r="5" fill="black" stroke="none" />
<circle cx="623.509248" cy="569.0759679999999" r="5" fill="black" stroke="none" />
<circle cx="500" cy="500" r="5" fill="red" stroke="none" />
</svg>