<?xml version="1.0" encoding="UTF-8"?>
<svg xmlns="http://www.w3.org/2000/svg" xmlns:xlink="http://www.w3.org/1999/xlink"
     width="1000" height="1000" viewBox="0 0 1000 1000">
<defs>
</defs>
<rect x="0" y="0" width="1000" height="1000" fill="white" />
<path d="M266.458112,681.144192 L379.84754264637377,593.1949295714228" stroke="grey" stroke-width="5" />
<circle cx="379.84754264637377" cy="593.1949295714228" r="2.5" fill="grey" stroke="none" />
<path d="M379.84754264637377,593.1949295714228 A152.0588961749276,152.0588961749276,0,0,0,386.45811199999997,601.144192" stroke="grey" stroke-width="5" fill="none" />
<circle cx="266.458112" cy="681.144192" r="5" fill="black" stroke="none" />
<circle cx="386.458112" cy="601.144192" r="5" fill="black" stroke="none" />
<path d="M386.458112,601.144192 L408.76306905842097,581.2747244492342" stroke="grey" stroke-width="5" />
<circle cx="408.76306905842097" cy="581.2747244492342" r="2.5" fill="grey" stroke="none" />
<path d="M408.76306905842097,581.2747244492342 A122.18739051938793,122.18739051938793,0,0,1,386.45811199999997,545.144192" stroke="grey" stroke-width="5" fill="none" />
<circle cx="386.458112" cy="601.144192" r="5" fill="black" stroke="none" />
<circle cx="386.458112" cy="545.144192" r="5" fill="black" stroke="none" />
<path d="M386.45811199999997,545.144192 A122.18739051938793,122.18739051938793,0,0,1,380.36153368176326,524.8273192060188" stroke="grey" stroke-width="5" fill="none" />
<path d="M380.3615336817633,524.8273192060188 L282.458112,545.144192" stroke="grey" stroke-width="5" />
<circle cx="380.3615336817633" cy="524.8273192060188" r="2.5" fill="grey" stroke="none" />
<circle cx="386.458112" cy="545.144192" r="5" fill="black" stroke="none" />
<circle cx="282.458112" cy="545.144192" r="5" fill="black" stroke="none" />
<path d="M282.458112,545.144192 L316.8587468628135,538.0053881611332" stroke="grey" stroke-width="5" />
<circle cx="316.8587468628135" cy="538.0053881611332" r="2.5" fill="grey" stroke="none" />
<path d="M316.8587468628135,538.005388161133 A187.0431183709719,187.0431183709719,0,0,1,322.45811199999997,441.14419200000003" stroke="grey" stroke-width="5" fill="none" />
<circle cx="282.458112" cy="545.144192" r="5" fill="black" stroke="none" />
<circle cx="322.458112" cy="441.14419200000003" r="5" fill="black" stroke="none" />
<path d="M322.458112,441.14419200000003 L347.35125496233513,449.39636313106155" stroke="grey" stroke-width="5" />
<circle cx="347.35125496233513" cy="449.39636313106155" r="2.5" fill="grey" stroke="none" />
<path d="M347.35125496233513,449.39636313106155 A160.81780817414904,160.81780817414904,0,0,1,434.458112,353.14419200000003" stroke="grey" stroke-width="5" fill="none" />
<circle cx="322.458112" cy="441.14419200000003" r="5" fill="black" stroke="none" />
<circle cx="434.458112" cy="353.14419200000003" r="5" fill="black" stroke="none" />
<path d="M434.458112,353.14419200000003 L449.4218384410197,386.6725233350222" stroke="grey" stroke-width="5" />
<circle cx="449.4218384410197" cy="386.6725233350222" r="2.5" fill="grey" stroke="none" />
<path d="M449.42183844101976,386.6725233350222 A124.10184283054542,124.10184283054542,0,0,1,482.458112,377.14419200000003" stroke="grey" stroke-width="5" fill="none" />
<circle cx="434.458112" cy="353.14419200000003" r="5" fill="black" stroke="none" />
<circle cx="482.458112" cy="377.14419200000003" r="5" fill="black" stroke="none" />
<path d="M482.458112,377.14419200000003 A124.10184283054542,124.10184283054542,0,0,0,438.4919263391254,392.2130607704912" stroke="grey" stroke-width="5" fill="none" />
<path d="M438.49192633912537,392.2130607704912 L434.458112,385.14419200000003" stroke="grey" stroke-width="5" />
<circle cx="438.49192633912537" cy="392.2130607704912" r="2.5" fill="grey" stroke="none" />
<circle cx="482.458112" cy="377.14419200000003" r="5" fill="black" stroke="none" />
<circle cx="434.458112" cy="385.14419200000003" r="5" fill="black" stroke="none" />
<path d="M434.458112,353.14419200000003 L446.1048281495237,379.24029577236854" stroke="grey" stroke-width="5" />
<circle cx="446.1048281495237" cy="379.24029577236854" r="2.5" fill="grey" stroke="none" />
<path d="M446.10482814952377,379.24029577236854 A132.24067344783677,132.24067344783677,0,0,0,434.458112,385.144192" stroke="grey" stroke-width="5" fill="none" />
<circle cx="434.458112" cy="353.14419200000003" r="5" fill="black" stroke="none" />
<circle cx="434.458112" cy="385.14419200000003" r="5" fill="black" stroke="none" />
<path d="M434.458112,385.14419200000003 L443.7079148513045,401.3535752317935" stroke="grey" stroke-width="5" />
<circle cx="443.7079148513045" cy="401.3535752317935" r="2.5" fill="grey" stroke="none" />
<path d="M443.70791485130457,401.35357523179346 A113.57779699367921,113.57779699367921,0,0,0,386.458112,497.14419200000003" stroke="grey" stroke-width="5" fill="none" />
<circle cx="434.458112" cy="385.14419200000003" r="5" fill="black" stroke="none" />
<circle cx="386.458112" cy="497.14419200000003" r="5" fill="black" stroke="none" />
<path d="M322.458112,441.14419200000003 L392.191615020315,464.2611122443712" stroke="grey" stroke-width="5" />
<circle cx="392.191615020315" cy="464.2611122443712" r="2.5" fill="grey" stroke="none" />
<path d="M392.191615020315,464.2611122443712 A113.57779699367921,113.57779699367921,0,0,0,386.458112,497.14419200000003" stroke="grey" stroke-width="5" fill="none" />
<circle cx="322.458112" cy="441.14419200000003" r="5" fill="black" stroke="none" />
<circle cx="386.458112" cy="497.14419200000003" r="5" fill="black" stroke="none" />
<path d="M386.458112,497.14419200000003 A113.57779699367921,113.57779699367921,0,0,0,394.4585243147751,541.9632324794276" stroke="grey" stroke-width="5" fill="none" />
<path d="M394.4585243147751,541.9632324794276 L386.458112,545.144192" stroke="grey" stroke-width="5" />
<circle cx="394.4585243147751" cy="541.9632324794276" r="2.5" fill="grey" stroke="none" />
<circle cx="386.458112" cy="497.14419200000003" r="5" fill="black" stroke="none" />
<circle cx="386.458112" cy="545.144192" r="5" fill="black" stroke="none" />
<path d="M482.458112,377.14419200000003 A124.10184283054542,124.10184283054542,0,0,1,516.9534280121246,377.06160619003066" stroke="grey" stroke-width="5" fill="none" />
<path d="M516.9534280121247,377.06160619003066 L522.458112,337.14419200000003" stroke="grey" stroke-width="5" />
<circle cx="516.9534280121247" cy="377.06160619003066" r="2.5" fill="grey" stroke="none" />
<circle cx="482.458112" cy="377.14419200000003" r="5" fill="black" stroke="none" />
<circle cx="522.458112" cy="337.14419200000003" r="5" fill="black" stroke="none" />
<path d="M482.458112,377.14419200000003 L490.63269695146147,434.3954547646716" stroke="grey" stroke-width="5" />
<circle cx="490.63269695146147" cy="434.3954547646716" r="2.5" fill="grey" stroke="none" />
<path d="M490.63269695146147,434.3954547646716 A66.26992320757135,66.26992320757135,0,0,1,530.458112,441.14419200000003" stroke="grey" stroke-width="5" fill="none" />
<circle cx="482.458112" cy="377.14419200000003" r="5" fill="black" stroke="none" />
<circle cx="530.458112" cy="441.14419200000003" r="5" fill="black" stroke="none" />
<path d="M434.458112,385.14419200000003 L469.56145798730216,446.65940448327717" stroke="grey" stroke-width="5" />
<circle cx="469.56145798730216" cy="446.65940448327717" r="2.5" fill="grey" stroke="none" />
<path d="M469.5614579873022,446.6594044832771 A61.414362896128814,61.414362896128814,0,0,1,482.458112,441.14419200000003" stroke="grey" stroke-width="5" fill="none" />
<circle cx="434.458112" cy="385.14419200000003" r="5" fill="black" stroke="none" />
<circle cx="482.458112" cy="441.14419200000003" r="5" fill="black" stroke="none" />
<path d="M386.458112,497.14419200000003 L434.4166660236996,498.35044657848044" stroke="grey" stroke-width="5" />
<circle cx="434.4166660236996" cy="498.35044657848044" r="2.5" fill="grey" stroke="none" />
<path d="M434.4166660236996,498.35044657848044 A65.60407549792473,65.60407549792473,0,0,1,434.458112,497.14419200000003" stroke="grey" stroke-width="5" fill="none" />
<circle cx="386.458112" cy="497.14419200000003" r="5" fill="black" stroke="none" />
<circle cx="434.458112" cy="497.14419200000003" r="5" fill="black" stroke="none" />
<path d="M386.458112,545.144192 L454.9943096380069,517.8942376472934" stroke="grey" stroke-width="5" />
<circle cx="454.9943096380069" cy="517.8942376472934" r="2.5" fill="grey" stroke="none" />
<path d="M454.9943096380069,517.8942376472934 A48.43259136095663,48.43259136095663,0,0,0,482.458112,545.144192" stroke="grey" stroke-width="5" fill="none" />
<circle cx="386.458112" cy="545.144192" r="5" fill="black" stroke="none" />
<circle cx="482.458112" cy="545.144192" r="5" fill="black" stroke="none" />
<path d="M386.458112,601.144192 L423.34850994328974,568.2818752087511" stroke="grey" stroke-width="5" />
<circle cx="423.34850994328974" cy="568.2818752087511" r="2.5" fill="grey" stroke="none" />
<path d="M423.34850994328974,568.2818752087511 A102.65410566527486,102.65410566527486,0,0,0,482.45811199999997,601.144192" stroke="grey" stroke-width="5" fill="none" />
<circle cx="386.458112" cy="601.144192" r="5" fill="black" stroke="none" />
<circle cx="482.458112" cy="601.144192" r="5" fill="black" stroke="none" />
<path d="M530.458112,441.14419200000003 L528.2264631217382,445.45652422539837" stroke="grey" stroke-width="5" />
<circle cx="528.2264631217382" cy="445.45652422539837" r="2.5" fill="grey" stroke="none" />
<path d="M528.2264631217382,445.45652422539837 A61.414362896128814,61.414362896128814,0,0,0,482.458112,441.14419200000003" stroke="grey" stroke-width="5" fill="none" />
<circle cx="530.458112" cy="441.14419200000003" r="5" fill="black" stroke="none" />
<circle cx="482.458112" cy="441.14419200000003" r="5" fill="black" stroke="none" />
<path d="M482.458112,441.14419200000003 A61.414362896128814,61.414362896128814,0,0,0,438.64385308414626,497.3265741870074" stroke="grey" stroke-width="5" fill="none" />
<path d="M438.64385308414626,497.3265741870074 L434.458112,497.14419200000003" stroke="grey" stroke-width="5" />
<circle cx="438.64385308414626" cy="497.3265741870074" r="2.5" fill="grey" stroke="none" />
<circle cx="482.458112" cy="441.14419200000003" r="5" fill="black" stroke="none" />
<circle cx="434.458112" cy="497.14419200000003" r="5" fill="black" stroke="none" />
<path d="M434.458112,497.14419200000003 L451.6133189220843,497.89168308798554" stroke="grey" stroke-width="5" />
<circle cx="451.6133189220843" cy="497.89168308798554" r="2.5" fill="grey" stroke="none" />
<path d="M451.6133189220843,497.89168308798554 A48.43259136095663,48.43259136095663,0,0,0,482.458112,545.144192" stroke="grey" stroke-width="5" fill="none" />
<circle cx="434.458112" cy="497.14419200000003" r="5" fill="black" stroke="none" />
<circle cx="482.458112" cy="545.144192" r="5" fill="black" stroke="none" />
<path d="M482.458112,545.144192 A48.43259136095663,48.43259136095663,0,0,0,491.7236715697084,547.7202084409881" stroke="grey" stroke-width="5" fill="none" />
<path d="M491.7236715697084,547.7202084409881 L482.458112,601.144192" stroke="grey" stroke-width="5" />
<circle cx="491.7236715697084" cy="547.7202084409881" r="2.5" fill="grey" stroke="none" />
<circle cx="482.458112" cy="545.144192" r="5" fill="black" stroke="none" />
<circle cx="482.458112" cy="601.144192" r="5" fill="black" stroke="none" />
<path d="M482.45811199999997,601.144192 A102.65410566527486,102.65410566527486,0,0,0,529.5546204584315,598.3076284908525" stroke="grey" stroke-width="5" fill="none" />
<path d="M529.5546204584315,598.3076284908525 L554.458112,681.144192" stroke="grey" stroke-width="5" />
<circle cx="529.5546204584315" cy="598.3076284908525" r="2.5" fill="grey" stroke="none" />
<circle cx="482.458112" cy="601.144192" r="5" fill="black" stroke="none" />
<circle cx="554.458112" cy="681.144192" r="5" fill="black" stroke="none" />
<path d="M530.458112,441.14419200000003 L516.2926231397298,468.5169094089518" stroke="grey" stroke-width="5" />
<circle cx="516.2926231397298" cy="468.5169094089518" r="2.5" fill="grey" stroke="none" />
<path d="M516.2926231397298,468.5169094089518 A35.44904176331718,35.44904176331718,0,0,0,506.458112,465.14419200000003" stroke="grey" stroke-width="5" fill="none" />
<circle cx="530.458112" cy="441.14419200000003" r="5" fill="black" stroke="none" />
<circle cx="506.458112" cy="465.14419200000003" r="5" fill="black" stroke="none" />
<path d="M506.458112,465.14419200000003 L503.23785689987784,482.5245956660991" stroke="grey" stroke-width="5" />
<circle cx="503.23785689987784" cy="482.5245956660991" r="2.5" fill="grey" stroke="none" />
<path d="M503.23785689987784,482.5245956660991 A17.7728296547682,17.7728296547682,0,0,0,482.458112,497.14419200000003" stroke="grey" stroke-width="5" fill="none" />
<circle cx="506.458112" cy="465.14419200000003" r="5" fill="black" stroke="none" />
<circle cx="482.458112" cy="497.14419200000003" r="5" fill="black" stroke="none" />
<path d="M482.458112,497.14419200000003 A17.7728296547682,17.7728296547682,0,0,0,493.5628266321023,516.566118222717" stroke="grey" stroke-width="5" fill="none" />
<path d="M493.5628266321023,516.566118222717 L482.458112,545.144192" stroke="grey" stroke-width="5" />
<circle cx="493.5628266321023" cy="516.566118222717" r="2.5" fill="grey" stroke="none" />
<circle cx="482.458112" cy="497.14419200000003" r="5" fill="black" stroke="none" />
<circle cx="482.458112" cy="545.144192" r="5" fill="black" stroke="none" />
<path d="M482.458112,441.14419200000003 L489.87463044481683,466.02778409776045" stroke="grey" stroke-width="5" />
<circle cx="489.87463044481683" cy="466.02778409776045" r="2.5" fill="grey" stroke="none" />
<path d="M489.87463044481683,466.02778409776045 A35.44904176331718,35.44904176331718,0,0,1,506.458112,465.14419200000003" stroke="grey" stroke-width="5" fill="none" />
<circle cx="482.458112" cy="441.14419200000003" r="5" fill="black" stroke="none" />
<circle cx="506.458112" cy="465.14419200000003" r="5" fill="black" stroke="none" />
<path d="M434.458112,497.14419200000003 L482.2440175883167,499.2263317678742" stroke="grey" stroke-width="5" />
<circle cx="482.2440175883167" cy="499.2263317678742" r="2.5" fill="grey" stroke="none" />
<path d="M482.2440175883167,499.2263317678742 A17.7728296547682,17.7728296547682,0,0,1,482.458112,497.14419200000003" stroke="grey" stroke-width="5" fill="none" />
<circle cx="434.458112" cy="497.14419200000003" r="5" fill="black" stroke="none" />
<circle cx="482.458112" cy="497.14419200000003" r="5" fill="black" stroke="none" />
<path d="M530.458112,441.14419200000003 L514.060156373202,472.8308220827623" stroke="grey" stroke-width="5" />
<circle cx="514.060156373202" cy="472.8308220827623" r="2.5" fill="grey" stroke="none" />
<path d="M514.060156373202,472.8308220827623 A30.591701913058184,30.591701913058184,0,0,1,530.458112,497.14419200000003" stroke="grey" stroke-width="5" fill="none" />
<circle cx="530.458112" cy="441.14419200000003" r="5" fill="black" stroke="none" />
<circle cx="530.458112" cy="497.14419200000003" r="5" fill="black" stroke="none" />
<path d="M506.458112,465.14419200000003 L505.5732010626472,469.92024508323385" stroke="grey" stroke-width="5" />
<circle cx="505.5732010626472" cy="469.92024508323385" r="2.5" fill="grey" stroke="none" />
<path d="M505.5732010626472,469.92024508323385 A30.591701913058184,30.591701913058184,0,0,1,530.458112,497.14419200000003" stroke="grey" stroke-width="5" fill="none" />
<circle cx="506.458112" cy="465.14419200000003" r="5" fill="black" stroke="none" />
<circle cx="530.458112" cy="497.14419200000003" r="5" fill="black" stroke="none" />
<path d="M482.458112,497.14419200000003 A17.7728296547682,17.7728296547682,0,0,1,517.6952180601231,498.34086415803307" stroke="grey" stroke-width="5" fill="none" />
<path d="M517.6952180601231,498.34086415803307 L530.458112,497.14419200000003" stroke="grey" stroke-width="5" />
<circle cx="517.6952180601231" cy="498.34086415803307" r="2.5" fill="grey" stroke="none" />
<circle cx="482.458112" cy="497.14419200000003" r="5" fill="black" stroke="none" />
<circle cx="530.458112" cy="497.14419200000003" r="5" fill="black" stroke="none" />
<path d="M482.458112,545.144192 L488.91993606766096,528.5146350001659" stroke="grey" stroke-width="5" />
<circle cx="488.91993606766096" cy="528.5146350001659" r="2.5" fill="grey" stroke="none" />
<path d="M488.91993606766096,528.5146350001659 A30.591701913058184,30.591701913058184,0,0,0,530.458112,497.14419200000003" stroke="grey" stroke-width="5" fill="none" />
<circle cx="482.458112" cy="545.144192" r="5" fill="black" stroke="none" />
<circle cx="530.458112" cy="497.14419200000003" r="5" fill="black" stroke="none" />
<path d="M530.458112,497.14419200000003 A30.591701913058184,30.591701913058184,0,0,1,512.3322184110707,527.9958678200741" stroke="grey" stroke-width="5" fill="none" />
<path d="M512.3322184110707,527.9958678200741 L530.458112,569.144192" stroke="grey" stroke-width="5" />
<circle cx="512.3322184110707" cy="527.9958678200741" r="2.5" fill="grey" stroke="none" />
<circle cx="530.458112" cy="497.14419200000003" r="5" fill="black" stroke="none" />
<circle cx="530.458112" cy="569.144192" r="5" fill="black" stroke="none" />
<path d="M530.458112,569.144192 A75.55538282569556,75.55538282569556,0,0,1,487.0888353199709,574.4440575233684" stroke="grey" stroke-width="5" fill="none" />
<path d="M487.0888353199709,574.4440575233684 L482.458112,601.144192" stroke="grey" stroke-width="5" />
<circle cx="487.0888353199709" cy="574.4440575233684" r="2.5" fill="grey" stroke="none" />
<circle cx="530.458112" cy="569.144192" r="5" fill="black" stroke="none" />
<circle cx="482.458112" cy="601.144192" r="5" fill="black" stroke="none" />
<path d="M530.458112,441.14419200000003 A66.26992320757135,66.26992320757135,0,0,1,542.1921044321141,448.8968783191577" stroke="grey" stroke-width="5" fill="none" />
<path d="M542.1921044321141,448.8968783191577 L634.458112,337.14419200000003" stroke="grey" stroke-width="5" />
<circle cx="542.1921044321141" cy="448.8968783191577" r="2.5" fill="grey" stroke="none" />
<circle cx="530.458112" cy="441.14419200000003" r="5" fill="black" stroke="none" />
<circle cx="634.458112" cy="337.14419200000003" r="5" fill="black" stroke="none" />
<path d="M530.458112,441.14419200000003 A66.26992320757135,66.26992320757135,0,0,1,564.7225803338399,485.76306504661056" stroke="grey" stroke-width="5" fill="none" />
<path d="M564.7225803338399,485.76306504661056 L658.458112,465.14419200000003" stroke="grey" stroke-width="5" />
<circle cx="564.7225803338399" cy="485.76306504661056" r="2.5" fill="grey" stroke="none" />
<circle cx="530.458112" cy="441.14419200000003" r="5" fill="black" stroke="none" />
<circle cx="658.458112" cy="465.14419200000003" r="5" fill="black" stroke="none" />
<path d="M658.458112,465.14419200000003 A162.2464194055986,162.2464194055986,0,0,1,660.6477699374761,477.2800830975739" stroke="grey" stroke-width="5" fill="none" />
<path d="M660.6477699374761,477.2800830975739 L746.458112,465.14419200000003" stroke="grey" stroke-width="5" />
<circle cx="660.6477699374761" cy="477.2800830975739" r="2.5" fill="grey" stroke="none" />
<circle cx="658.458112" cy="465.14419200000003" r="5" fill="black" stroke="none" />
<circle cx="746.458112" cy="465.14419200000003" r="5" fill="black" stroke="none" />
<path d="M530.458112,497.14419200000003 A30.591701913058184,30.591701913058184,0,0,1,520.879993663888,522.3579536302723" stroke="grey" stroke-width="5" fill="none" />
<path d="M520.879993663888,522.3579536302723 L594.458112,601.144192" stroke="grey" stroke-width="5" />
<circle cx="520.879993663888" cy="522.3579536302723" r="2.5" fill="grey" stroke="none" />
<circle cx="530.458112" cy="497.14419200000003" r="5" fill="black" stroke="none" />
<circle cx="594.458112" cy="601.144192" r="5" fill="black" stroke="none" />
<circle cx="500" cy="500" r="5" fill="red" stroke="none" />
</svg>