<?xml version="1.0" encoding="UTF-8"?>
<svg xmlns="http://www.w3.org/2000/svg" xmlns:xlink="http://www.w3.org/1999/xlink"
     width="1000" height="1000" viewBox="0 0 1000 1000">
<defs>
</defs>
<rect x="0" y="0" width="1000" height="1000" fill="white" />
<path d="M214.823936,724.789376 L327.49595474378486,635.9759165854128" stroke="grey" stroke-width="5" />
<circle cx="327.49595474378486" cy="635.9759165854128" r="2.5" fill="grey" stroke="none" />
<path d="M327.49595474378486,635.9759165854128 A219.6522149239599,219.6522149239599,0,0,0,334.82393599999995,644.789376" stroke="grey" stroke-width="5" fill="none" />
<circle cx="214.823936" cy="724.789376" r="5" fill="black" stroke="none" />
<circle cx="334.823936" cy="644.789376" r="5" fill="black" stroke="none" />
<path d="M334.823936,644.789376 L358.9811254618669,623.613763121263" stroke="grey" stroke-width="5" />
<circle cx="358.9811254618669" cy="623.613763121263" r="2.5" fill="grey" stroke="none" />
<path d="M358.9811254618668,623.613763121263 A187.52782569261947,187.52782569261947,0,0,1,334.823936,588.789376" stroke="grey" stroke-width="5" fill="none" />
<circle cx="334.823936" cy="644.789376" r="5" fill="black" stroke="none" />
<circle cx="334.823936" cy="588.789376" r="5" fill="black" stroke="none" />
<path d="M334.823936,588.789376 A187.52782569261947,187.52782569261947,0,0,1,321.91058113575406,558.7438873211216" stroke="grey" stroke-width="5" fill="none" />
<path d="M321.91058113575406,558.7438873211216 L-269.176064,88.789376" stroke="grey" stroke-width="5" />
<circle cx="321.91058113575406" cy="558.7438873211216" r="2.5" fill="grey" stroke="none" />
<circle cx="334.823936" cy="588.789376" r="5" fill="black" stroke="none" />
<circle cx="230.823936" cy="588.789376" r="5" fill="black" stroke="none" />
<path d="M230.823936,588.789376 L281.87968861169674,571.9483227940102" stroke="grey" stroke-width="5" />
<circle cx="281.87968861169674" cy="571.9483227940102" r="2.5" fill="grey" stroke="none" />
<path d="M281.87968861169674,571.9483227940102 A229.68028081008927,229.68028081008927,0,0,1,270.823936,484.7893759999999" stroke="grey" stroke-width="5" fill="none" />
<circle cx="230.823936" cy="588.789376" r="5" fill="black" stroke="none" />
<circle cx="270.823936" cy="484.789376" r="5" fill="black" stroke="none" />
<path d="M270.823936,484.789376 L344.1933058706948,489.658967870729" stroke="grey" stroke-width="5" />
<circle cx="344.1933058706948" cy="489.658967870729" r="2.5" fill="grey" stroke="none" />
<path d="M344.1933058706948,489.65896787072893 A156.14948889125918,156.14948889125918,0,0,1,382.823936,396.789376" stroke="grey" stroke-width="5" fill="none" />
<circle cx="270.823936" cy="484.789376" r="5" fill="black" stroke="none" />
<circle cx="382.823936" cy="396.789376" r="5" fill="black" stroke="none" />
<path d="M382.823936,396.789376 L421.0832764924642,430.48883876788835" stroke="grey" stroke-width="5" />
<circle cx="421.0832764924642" cy="430.48883876788835" r="2.5" fill="grey" stroke="none" />
<path d="M421.0832764924642,430.48883876788835 A105.16487429270988,105.16487429270988,0,0,1,430.82393599999995,420.78937600000006" stroke="grey" stroke-width="5" fill="none" />
<circle cx="382.823936" cy="396.789376" r="5" fill="black" stroke="none" />
<circle cx="430.823936" cy="420.789376" r="5" fill="black" stroke="none" />
<path d="M430.82393599999995,420.78937600000006 A105.16487429270988,105.16487429270988,0,0,0,410.12952748005165,445.38362009394365" stroke="grey" stroke-width="5" fill="none" />
<path d="M410.12952748005165,445.38362009394365 L-117.176064,-71.210624" stroke="grey" stroke-width="5" />
<circle cx="410.12952748005165" cy="445.38362009394365" r="2.5" fill="grey" stroke="none" />
<circle cx="430.823936" cy="420.789376" r="5" fill="black" stroke="none" />
<circle cx="382.823936" cy="428.789376" r="5" fill="black" stroke="none" />
<path d="M382.823936,396.789376 L397.1057925356212,409.36907252334413" stroke="grey" stroke-width="5" />
<circle cx="397.1057925356212" cy="409.36907252334413" r="2.5" fill="grey" stroke="none" />
<path d="M397.1057925356212,409.36907252334413 A137.11740569672938,137.11740569672938,0,0,0,382.823936,428.789376" stroke="grey" stroke-width="5" fill="none" />
<circle cx="382.823936" cy="396.789376" r="5" fill="black" stroke="none" />
<circle cx="382.823936" cy="428.789376" r="5" fill="black" stroke="none" />
<path d="M382.823936,428.789376 A137.11740569672938,137.11740569672938,0,0,0,366.881434043514,532.8729424099845" stroke="grey" stroke-width="5" fill="none" />
<path d="M366.881434043514,532.8729424099845 L-165.176064,40.789376000000004" stroke="grey" stroke-width="5" />
<circle cx="366.881434043514" cy="532.8729424099845" r="2.5" fill="grey" stroke="none" />
<circle cx="382.823936" cy="428.789376" r="5" fill="black" stroke="none" />
<circle cx="334.823936" cy="540.789376" r="5" fill="black" stroke="none" />
<path d="M270.823936,484.789376 L330.2356026322508,488.7325824002832" stroke="grey" stroke-width="5" />
<circle cx="330.2356026322508" cy="488.7325824002832" r="2.5" fill="grey" stroke="none" />
<path d="M330.2356026322508,488.73258240028315 A170.13790087162081,170.13790087162081,0,0,0,334.823936,540.789376" stroke="grey" stroke-width="5" fill="none" />
<circle cx="270.823936" cy="484.789376" r="5" fill="black" stroke="none" />
<circle cx="334.823936" cy="540.789376" r="5" fill="black" stroke="none" />
<path d="M334.823936,540.789376 A170.13790087162081,170.13790087162081,0,0,0,350.1411259934289,580.555714846832" stroke="grey" stroke-width="5" fill="none" />
<path d="M350.1411259934289,580.555714846832 L-165.176064,88.789376" stroke="grey" stroke-width="5" />
<circle cx="350.1411259934289" cy="580.555714846832" r="2.5" fill="grey" stroke="none" />
<circle cx="334.823936" cy="540.789376" r="5" fill="black" stroke="none" />
<circle cx="334.823936" cy="588.789376" r="5" fill="black" stroke="none" />
<path d="M430.82393599999995,420.78937600000006 A105.16487429270988,105.16487429270988,0,0,1,474.9994192617316,397.85000368208136" stroke="grey" stroke-width="5" fill="none" />
<path d="M474.9994192617316,397.85000368208136 L-29.176063999999997,-119.210624" stroke="grey" stroke-width="5" />
<circle cx="474.9994192617316" cy="397.85000368208136" r="2.5" fill="grey" stroke="none" />
<circle cx="430.823936" cy="420.789376" r="5" fill="black" stroke="none" />
<circle cx="470.823936" cy="380.789376" r="5" fill="black" stroke="none" />
<path d="M430.823936,420.789376 L482.84968372920474,480.36188856297105" stroke="grey" stroke-width="5" />
<circle cx="482.84968372920474" cy="480.36188856297105" r="2.5" fill="grey" stroke="none" />
<path d="M482.84968372920474,480.36188856297105 A26.072759136721064,26.072759136721064,0,0,0,478.823936,484.789376" stroke="grey" stroke-width="5" fill="none" />
<circle cx="430.823936" cy="420.789376" r="5" fill="black" stroke="none" />
<circle cx="478.823936" cy="484.789376" r="5" fill="black" stroke="none" />
<path d="M382.823936,428.789376 L439.4721858862583,463.215837217441" stroke="grey" stroke-width="5" />
<circle cx="439.4721858862583" cy="463.215837217441" r="2.5" fill="grey" stroke="none" />
<path d="M439.4721858862583,463.215837217441 A70.82860236515663,70.82860236515663,0,0,0,430.823936,484.789376" stroke="grey" stroke-width="5" fill="none" />
<circle cx="382.823936" cy="428.789376" r="5" fill="black" stroke="none" />
<circle cx="430.823936" cy="484.789376" r="5" fill="black" stroke="none" />
<path d="M334.823936,540.789376 L379.5458330028189,529.7455344886703" stroke="grey" stroke-width="5" />
<circle cx="379.5458330028189" cy="529.7455344886703" r="2.5" fill="grey" stroke="none" />
<path d="M379.5458330028189,529.7455344886703 A124.07257218660969,124.07257218660969,0,0,0,382.823936,540.7893760000001" stroke="grey" stroke-width="5" fill="none" />
<circle cx="334.823936" cy="540.789376" r="5" fill="black" stroke="none" />
<circle cx="382.823936" cy="540.789376" r="5" fill="black" stroke="none" />
<path d="M334.823936,588.789376 L400.85963229767316,553.2922941225925" stroke="grey" stroke-width="5" />
<circle cx="400.85963229767316" cy="553.2922941225925" r="2.5" fill="grey" stroke="none" />
<path d="M400.85963229767316,553.2922941225925 A112.55612431583397,112.55612431583397,0,0,0,430.823936,588.7893760000001" stroke="grey" stroke-width="5" fill="none" />
<circle cx="334.823936" cy="588.789376" r="5" fill="black" stroke="none" />
<circle cx="430.823936" cy="588.789376" r="5" fill="black" stroke="none" />
<path d="M334.823936,644.789376 L379.3314300995577,605.7751741723148" stroke="grey" stroke-width="5" />
<circle cx="379.3314300995577" cy="605.7751741723148" r="2.5" fill="grey" stroke="none" />
<path d="M379.3314300995577,605.7751741723148 A160.46585690732303,160.46585690732303,0,0,0,430.823936,644.789376" stroke="grey" stroke-width="5" fill="none" />
<circle cx="334.823936" cy="644.789376" r="5" fill="black" stroke="none" />
<circle cx="430.823936" cy="644.789376" r="5" fill="black" stroke="none" />
<path d="M478.823936,484.789376 A26.072759136721064,26.072759136721064,0,0,0,474.5355577482683,494.4008081110136" stroke="grey" stroke-width="5" fill="none" />
<path d="M474.5355577482683,494.4008081110136 L-69.176064,-15.210623999999996" stroke="grey" stroke-width="5" />
<circle cx="474.5355577482683" cy="494.4008081110136" r="2.5" fill="grey" stroke="none" />
<circle cx="478.823936" cy="484.789376" r="5" fill="black" stroke="none" />
<circle cx="430.823936" cy="484.789376" r="5" fill="black" stroke="none" />
<path d="M430.823936,484.789376 A70.82860236515663,70.82860236515663,0,0,0,433.10836796961445,523.2851986745436" stroke="grey" stroke-width="5" fill="none" />
<path d="M433.10836796961445,523.2851986745436 L-117.176064,40.789376000000004" stroke="grey" stroke-width="5" />
<circle cx="433.10836796961445" cy="523.2851986745436" r="2.5" fill="grey" stroke="none" />
<circle cx="430.823936" cy="484.789376" r="5" fill="black" stroke="none" />
<circle cx="382.823936" cy="540.789376" r="5" fill="black" stroke="none" />
<path d="M382.823936,540.789376 L393.70024821773217,537.0032956914613" stroke="grey" stroke-width="5" />
<circle cx="393.70024821773217" cy="537.0032956914613" r="2.5" fill="grey" stroke="none" />
<path d="M393.70024821773217,537.0032956914613 A112.55612431583397,112.55612431583397,0,0,0,430.823936,588.7893760000001" stroke="grey" stroke-width="5" fill="none" />
<circle cx="382.823936" cy="540.789376" r="5" fill="black" stroke="none" />
<circle cx="430.823936" cy="588.789376" r="5" fill="black" stroke="none" />
<path d="M430.823936,588.7893760000001 A112.55612431583397,112.55612431583397,0,0,0,451.4775927457204,601.5601157701748" stroke="grey" stroke-width="5" fill="none" />
<path d="M451.4775927457204,601.5601157701748 L-69.176064,144.789376" stroke="grey" stroke-width="5" />
<circle cx="451.4775927457204" cy="601.5601157701748" r="2.5" fill="grey" stroke="none" />
<circle cx="430.823936" cy="588.789376" r="5" fill="black" stroke="none" />
<circle cx="430.823936" cy="644.789376" r="5" fill="black" stroke="none" />
<path d="M430.823936,644.789376 A160.46585690732303,160.46585690732303,0,0,0,502.01570717002295,660.4531961588992" stroke="grey" stroke-width="5" fill="none" />
<path d="M502.01570717002295,660.4531961588992 L2.8239360000000033,224.789376" stroke="grey" stroke-width="5" />
<circle cx="502.01570717002295" cy="660.4531961588992" r="2.5" fill="grey" stroke="none" />
<circle cx="430.823936" cy="644.789376" r="5" fill="black" stroke="none" />
<circle cx="502.823936" cy="724.789376" r="5" fill="black" stroke="none" />
<path d="M478.823936,484.789376 A26.072759136721064,26.072759136721064,0,0,0,474.40712424767554,504.97930514505344" stroke="grey" stroke-width="5" fill="none" />
<path d="M474.40712424767554,504.97930514505344 L-45.176064,8.789376000000004" stroke="grey" stroke-width="5" />
<circle cx="474.40712424767554" cy="504.97930514505344" r="2.5" fill="grey" stroke="none" />
<circle cx="478.823936" cy="484.789376" r="5" fill="black" stroke="none" />
<circle cx="454.823936" cy="508.789376" r="5" fill="black" stroke="none" />
<path d="M454.823936,508.789376 A46.02314514460601,46.02314514460601,0,0,0,460.3555358650593,523.3761920007274" stroke="grey" stroke-width="5" fill="none" />
<path d="M460.3555358650593,523.3761920007274 L-69.176064,40.789376000000004" stroke="grey" stroke-width="5" />
<circle cx="460.3555358650593" cy="523.3761920007274" r="2.5" fill="grey" stroke="none" />
<circle cx="454.823936" cy="508.789376" r="5" fill="black" stroke="none" />
<circle cx="430.823936" cy="540.789376" r="5" fill="black" stroke="none" />
<path d="M430.823936,540.789376 A80.30629505214065,80.30629505214065,0,0,0,450.6444145985198,563.3492479409083" stroke="grey" stroke-width="5" fill="none" />
<path d="M450.6444145985198,563.3492479409083 L-69.176064,88.789376" stroke="grey" stroke-width="5" />
<circle cx="450.6444145985198" cy="563.3492479409083" r="2.5" fill="grey" stroke="none" />
<circle cx="430.823936" cy="540.789376" r="5" fill="black" stroke="none" />
<circle cx="430.823936" cy="588.789376" r="5" fill="black" stroke="none" />
<path d="M430.823936,484.789376 L455.05064440505265,490.1164115524549" stroke="grey" stroke-width="5" />
<circle cx="455.05064440505265" cy="490.1164115524549" r="2.5" fill="grey" stroke="none" />
<path d="M455.05064440505265,490.1164115524549 A46.02314514460601,46.02314514460601,0,0,0,454.823936,508.789376" stroke="grey" stroke-width="5" fill="none" />
<circle cx="430.823936" cy="484.789376" r="5" fill="black" stroke="none" />
<circle cx="454.823936" cy="508.789376" r="5" fill="black" stroke="none" />
<path d="M382.823936,540.789376 L424.1574878089932,526.4010297064045" stroke="grey" stroke-width="5" />
<circle cx="424.1574878089932" cy="526.4010297064045" r="2.5" fill="grey" stroke="none" />
<path d="M424.1574878089932,526.4010297064045 A80.30629505214065,80.30629505214065,0,0,0,430.823936,540.789376" stroke="grey" stroke-width="5" fill="none" />
<circle cx="382.823936" cy="540.789376" r="5" fill="black" stroke="none" />
<circle cx="430.823936" cy="540.789376" r="5" fill="black" stroke="none" />
<path d="M478.823936,484.789376 A26.072759136721064,26.072759136721064,0,0,0,487.98663065764475,523.1401755837252" stroke="grey" stroke-width="5" fill="none" />
<path d="M487.98663065764475,523.1401755837252 L-21.176063999999997,40.789376000000004" stroke="grey" stroke-width="5" />
<circle cx="487.98663065764475" cy="523.1401755837252" r="2.5" fill="grey" stroke="none" />
<circle cx="478.823936" cy="484.789376" r="5" fill="black" stroke="none" />
<circle cx="478.823936" cy="540.789376" r="5" fill="black" stroke="none" />
<path d="M454.823936,508.789376 L454.88722943325257,508.77706174032505" stroke="grey" stroke-width="5" />
<circle cx="454.88722943325257" cy="508.77706174032505" r="2.5" fill="grey" stroke="none" />
<path d="M454.88722943325257,508.7770617403251 A45.958664917526406,45.958664917526406,0,0,0,478.823936,540.789376" stroke="grey" stroke-width="5" fill="none" />
<circle cx="454.823936" cy="508.789376" r="5" fill="black" stroke="none" />
<circle cx="478.823936" cy="540.789376" r="5" fill="black" stroke="none" />
<path d="M430.823936,540.789376 L460.4110793104679,523.3434410411021" stroke="grey" stroke-width="5" />
<circle cx="460.4110793104679" cy="523.3434410411021" r="2.5" fill="grey" stroke="none" />
<path d="M460.4110793104679,523.3434410411021 A45.958664917526406,45.958664917526406,0,0,0,478.823936,540.789376" stroke="grey" stroke-width="5" fill="none" />
<circle cx="430.823936" cy="540.789376" r="5" fill="black" stroke="none" />
<circle cx="478.823936" cy="540.789376" r="5" fill="black" stroke="none" />
<path d="M430.823936,588.789376 L471.7541842790502,536.2542794061559" stroke="grey" stroke-width="5" />
<circle cx="471.7541842790502" cy="536.2542794061559" r="2.5" fill="grey" stroke="none" />
<path d="M471.7541842790502,536.2542794061559 A45.958664917526406,45.958664917526406,0,0,0,478.823936,540.789376" stroke="grey" stroke-width="5" fill="none" />
<circle cx="430.823936" cy="588.789376" r="5" fill="black" stroke="none" />
<circle cx="478.823936" cy="540.789376" r="5" fill="black" stroke="none" />
<path d="M478.823936,540.789376 A45.958664917526406,45.958664917526406,0,0,0,491.51949104647025,545.1694570355962" stroke="grey" stroke-width="5" fill="none" />
<path d="M491.51949104647025,545.1694570355962 L-21.176063999999997,112.789376" stroke="grey" stroke-width="5" />
<circle cx="491.51949104647025" cy="545.1694570355962" r="2.5" fill="grey" stroke="none" />
<circle cx="478.823936" cy="540.789376" r="5" fill="black" stroke="none" />
<circle cx="478.823936" cy="612.789376" r="5" fill="black" stroke="none" />
<path d="M478.823936,612.789376 A114.76004977779276,114.76004977779276,0,0,1,450.52749101226726,603.5487319065771" stroke="grey" stroke-width="5" fill="none" />
<path d="M450.52749101226726,603.5487319065771 L-69.176064,144.789376" stroke="grey" stroke-width="5" />
<circle cx="450.52749101226726" cy="603.5487319065771" r="2.5" fill="grey" stroke="none" />
<circle cx="478.823936" cy="612.789376" r="5" fill="black" stroke="none" />
<circle cx="430.823936" cy="644.789376" r="5" fill="black" stroke="none" />
<path d="M478.823936,484.789376 A26.072759136721064,26.072759136721064,0,0,1,514.8764915160829,478.5878826555292" stroke="grey" stroke-width="5" fill="none" />
<path d="M514.8764915160829,478.5878826555292 L82.823936,-119.210624" stroke="grey" stroke-width="5" />
<circle cx="514.8764915160829" cy="478.5878826555292" r="2.5" fill="grey" stroke="none" />
<circle cx="478.823936" cy="484.789376" r="5" fill="black" stroke="none" />
<circle cx="582.823936" cy="380.789376" r="5" fill="black" stroke="none" />
<path d="M478.823936,484.789376 A26.072759136721064,26.072759136721064,0,0,1,525.9849504131173,502.1380180142608" stroke="grey" stroke-width="5" fill="none" />
<path d="M525.9849504131173,502.1380180142608 L106.823936,8.789376000000004" stroke="grey" stroke-width="5" />
<circle cx="525.9849504131173" cy="502.1380180142608" r="2.5" fill="grey" stroke="none" />
<circle cx="478.823936" cy="484.789376" r="5" fill="black" stroke="none" />
<circle cx="606.823936" cy="508.789376" r="5" fill="black" stroke="none" />
<path d="M606.823936,508.789376 A107.18491700328677,107.18491700328677,0,0,0,607.0760057352401,504.8306758107237" stroke="grey" stroke-width="5" fill="none" />
<path d="M607.0760057352401,504.8306758107237 L194.823936,8.789376000000004" stroke="grey" stroke-width="5" />
<circle cx="607.0760057352401" cy="504.8306758107237" r="2.5" fill="grey" stroke="none" />
<circle cx="606.823936" cy="508.789376" r="5" fill="black" stroke="none" />
<circle cx="694.823936" cy="508.789376" r="5" fill="black" stroke="none" />
<path d="M478.823936,540.789376 A45.958664917526406,45.958664917526406,0,0,0,513.0348792354582,544.0714284351948" stroke="grey" stroke-width="5" fill="none" />
<path d="M513.0348792354582,544.0714284351948 L42.823936,144.789376" stroke="grey" stroke-width="5" />
<circle cx="513.0348792354582" cy="544.0714284351948" r="2.5" fill="grey" stroke="none" />
<circle cx="478.823936" cy="540.789376" r="5" fill="black" stroke="none" />
<circle cx="542.823936" cy="644.789376" r="5" fill="black" stroke="none" />
<circle cx="500" cy="500" r="5" fill="red" stroke="none" />
</svg>