<?xml version="1.0" encoding="UTF-8"?>
<svg xmlns="http://www.w3.org/2000/svg" xmlns:xlink="http://www.w3.org/1999/xlink"
     width="1000" height="1000" viewBox="0 0 1000 1000">
<defs>
</defs>
<rect x="0" y="0" width="1000" height="1000" fill="white" />
<path d="M391.42361600000004,612.338256 L476.1650133169322,524.6608031794378" stroke="grey" stroke-width="5" />
<circle cx="476.1650133169322" cy="524.6608031794378" r="2.5" fill="grey" stroke="none" />
<path d="M476.1650133169322,524.6608031794378 A34.29667336108551,34.29667336108551,0,0,0,511.423616,532.338256" stroke="grey" stroke-width="5" fill="none" />
<circle cx="391.42361600000004" cy="612.338256" r="5" fill="black" stroke="none" />
<circle cx="511.42361600000004" cy="532.338256" r="5" fill="black" stroke="none" />
<path d="M511.42361600000004,532.338256 L508.7517478666504,524.7746653038053" stroke="grey" stroke-width="5" />
<circle cx="508.7517478666504" cy="524.7746653038053" r="2.5" fill="grey" stroke="none" />
<path d="M508.7517478666504,524.7746653038053 A26.27502867052655,26.27502867052655,0,0,0,511.423616,476.338256" stroke="grey" stroke-width="5" fill="none" />
<circle cx="511.42361600000004" cy="532.338256" r="5" fill="black" stroke="none" />
<circle cx="511.42361600000004" cy="476.338256" r="5" fill="black" stroke="none" />
<path d="M511.423616,476.338256 A26.27502867052655,26.27502867052655,0,0,0,474.54332251294716,493.4934876502715" stroke="grey" stroke-width="5" fill="none" />
<path d="M474.54332251294716,493.4934876502715 L-92.57638399999999,-23.661744" stroke="grey" stroke-width="5" />
<circle cx="474.54332251294716" cy="493.4934876502715" r="2.5" fill="grey" stroke="none" />
<circle cx="511.42361600000004" cy="476.338256" r="5" fill="black" stroke="none" />
<circle cx="407.42361600000004" cy="476.338256" r="5" fill="black" stroke="none" />
<path d="M407.42361600000004,476.338256 A95.55242018723017,95.55242018723017,0,0,1,463.6126452614231,411.6471538728607" stroke="grey" stroke-width="5" fill="none" />
<path d="M463.6126452614231,411.6471538728607 L-52.57638399999999,-127.661744" stroke="grey" stroke-width="5" />
<circle cx="463.6126452614231" cy="411.6471538728607" r="2.5" fill="grey" stroke="none" />
<circle cx="407.42361600000004" cy="476.338256" r="5" fill="black" stroke="none" />
<circle cx="447.42361600000004" cy="372.338256" r="5" fill="black" stroke="none" />
<path d="M447.42361600000004,372.338256 A138.0644669552488,138.0644669552488,0,0,1,536.6756093396743,366.89591773653" stroke="grey" stroke-width="5" fill="none" />
<path d="M536.6756093396743,366.89591773653 L59.42361600000001,-215.661744" stroke="grey" stroke-width="5" />
<circle cx="536.6756093396743" cy="366.89591773653" r="2.5" fill="grey" stroke="none" />
<circle cx="447.42361600000004" cy="372.338256" r="5" fill="black" stroke="none" />
<circle cx="559.423616" cy="284.338256" r="5" fill="black" stroke="none" />
<path d="M559.423616,284.338256 L558.3649770069687,288.18029636831943" stroke="grey" stroke-width="5" />
<circle cx="558.3649770069687" cy="288.18029636831943" r="2.5" fill="grey" stroke="none" />
<path d="M558.3649770069687,288.18029636831943 A219.71358034413117,219.71358034413117,0,0,1,607.423616,308.338256" stroke="grey" stroke-width="5" fill="none" />
<circle cx="559.423616" cy="284.338256" r="5" fill="black" stroke="none" />
<circle cx="607.423616" cy="308.338256" r="5" fill="black" stroke="none" />
<path d="M607.423616,308.338256 L594.3801411206525,331.61000234668717" stroke="grey" stroke-width="5" />
<circle cx="594.3801411206525" cy="331.61000234668717" r="2.5" fill="grey" stroke="none" />
<path d="M594.3801411206525,331.61000234668717 A193.03575406550206,193.03575406550206,0,0,0,559.423616,316.338256" stroke="grey" stroke-width="5" fill="none" />
<circle cx="607.423616" cy="308.338256" r="5" fill="black" stroke="none" />
<circle cx="559.423616" cy="316.338256" r="5" fill="black" stroke="none" />
<path d="M559.423616,284.338256 L551.2782474797847,313.8996408304407" stroke="grey" stroke-width="5" />
<circle cx="551.2782474797847" cy="313.8996408304407" r="2.5" fill="grey" stroke="none" />
<path d="M551.2782474797847,313.8996408304407 A193.03575406550206,193.03575406550206,0,0,1,559.423616,316.338256" stroke="grey" stroke-width="5" fill="none" />
<circle cx="559.423616" cy="284.338256" r="5" fill="black" stroke="none" />
<circle cx="559.423616" cy="316.338256" r="5" fill="black" stroke="none" />
<path d="M559.423616,316.338256 L522.3386956306165,430.9573520701902" stroke="grey" stroke-width="5" />
<circle cx="522.3386956306165" cy="430.9573520701902" r="2.5" fill="grey" stroke="none" />
<path d="M522.3386956306166,430.95735207019027 A72.5665525957861,72.5665525957861,0,0,0,511.42361600000004,428.338256" stroke="grey" stroke-width="5" fill="none" />
<circle cx="559.423616" cy="316.338256" r="5" fill="black" stroke="none" />
<circle cx="511.42361600000004" cy="428.338256" r="5" fill="black" stroke="none" />
<path d="M447.42361600000004,372.338256 L472.36590254559195,432.90110870128126" stroke="grey" stroke-width="5" />
<circle cx="472.36590254559195" cy="432.90110870128126" r="2.5" fill="grey" stroke="none" />
<path d="M472.36590254559195,432.90110870128126 A72.5665525957861,72.5665525957861,0,0,1,511.42361600000004,428.338256" stroke="grey" stroke-width="5" fill="none" />
<circle cx="447.42361600000004" cy="372.338256" r="5" fill="black" stroke="none" />
<circle cx="511.42361600000004" cy="428.338256" r="5" fill="black" stroke="none" />
<path d="M511.42361600000004,428.338256 L504.13628355191446,474.0525860630553" stroke="grey" stroke-width="5" />
<circle cx="504.13628355191446" cy="474.0525860630553" r="2.5" fill="grey" stroke="none" />
<path d="M504.13628355191446,474.0525860630553 A26.27502867052655,26.27502867052655,0,0,1,511.423616,476.338256" stroke="grey" stroke-width="5" fill="none" />
<circle cx="511.42361600000004" cy="428.338256" r="5" fill="black" stroke="none" />
<circle cx="511.42361600000004" cy="476.338256" r="5" fill="black" stroke="none" />
<path d="M607.423616,308.338256 A219.71358034413117,219.71358034413117,0,0,1,617.9602638932797,314.6370222243266" stroke="grey" stroke-width="5" fill="none" />
<path d="M617.9602638932797,314.63702222432664 L147.423616,-231.661744" stroke="grey" stroke-width="5" />
<circle cx="617.9602638932797" cy="314.63702222432664" r="2.5" fill="grey" stroke="none" />
<circle cx="607.423616" cy="308.338256" r="5" fill="black" stroke="none" />
<circle cx="647.423616" cy="268.338256" r="5" fill="black" stroke="none" />
<path d="M607.423616,308.338256 L598.3385307419979,324.5475715097049" stroke="grey" stroke-width="5" />
<circle cx="598.3385307419979" cy="324.5475715097049" r="2.5" fill="grey" stroke="none" />
<path d="M598.3385307419978,324.5475715097049 A201.13185051512104,201.13185051512104,0,0,1,655.423616,372.338256" stroke="grey" stroke-width="5" fill="none" />
<circle cx="607.423616" cy="308.338256" r="5" fill="black" stroke="none" />
<circle cx="655.423616" cy="372.338256" r="5" fill="black" stroke="none" />
<path d="M559.423616,316.338256 L551.3612159094309,341.2568752482747" stroke="grey" stroke-width="5" />
<circle cx="551.3612159094309" cy="341.2568752482747" r="2.5" fill="grey" stroke="none" />
<path d="M551.3612159094309,341.2568752482747 A166.84530007056534,166.84530007056534,0,0,1,607.423616,372.338256" stroke="grey" stroke-width="5" fill="none" />
<circle cx="559.423616" cy="316.338256" r="5" fill="black" stroke="none" />
<circle cx="607.423616" cy="372.338256" r="5" fill="black" stroke="none" />
<path d="M511.42361600000004,428.338256 A72.5665525957861,72.5665525957861,0,0,1,546.3203572520301,444.1400943459327" stroke="grey" stroke-width="5" fill="none" />
<path d="M546.3203572520301,444.1400943459327 L59.42361600000001,-71.661744" stroke="grey" stroke-width="5" />
<circle cx="546.3203572520301" cy="444.1400943459327" r="2.5" fill="grey" stroke="none" />
<circle cx="511.42361600000004" cy="428.338256" r="5" fill="black" stroke="none" />
<circle cx="559.423616" cy="428.338256" r="5" fill="black" stroke="none" />
<path d="M511.423616,476.338256 A26.27502867052655,26.27502867052655,0,0,1,525.6599295566389,494.34799621502947" stroke="grey" stroke-width="5" fill="none" />
<path d="M525.6599295566389,494.34799621502947 L107.42361600000001,-23.661744" stroke="grey" stroke-width="5" />
<circle cx="525.6599295566389" cy="494.34799621502947" r="2.5" fill="grey" stroke="none" />
<circle cx="511.42361600000004" cy="476.338256" r="5" fill="black" stroke="none" />
<circle cx="607.423616" cy="476.338256" r="5" fill="black" stroke="none" />
<path d="M511.423616,532.338256 A34.29667336108551,34.29667336108551,0,0,0,532.8408863401157,509.88625247667665" stroke="grey" stroke-width="5" fill="none" />
<path d="M532.8408863401157,509.88625247667665 L107.42361600000001,32.338256" stroke="grey" stroke-width="5" />
<circle cx="532.8408863401157" cy="509.88625247667665" r="2.5" fill="grey" stroke="none" />
<circle cx="511.42361600000004" cy="532.338256" r="5" fill="black" stroke="none" />
<circle cx="607.423616" cy="532.338256" r="5" fill="black" stroke="none" />
<path d="M655.423616,372.338256 L628.9288582746012,394.1005020802989" stroke="grey" stroke-width="5" />
<circle cx="628.9288582746012" cy="394.1005020802989" r="2.5" fill="grey" stroke="none" />
<path d="M628.9288582746012,394.1005020802989 A166.84530007056534,166.84530007056534,0,0,0,607.423616,372.338256" stroke="grey" stroke-width="5" fill="none" />
<circle cx="655.423616" cy="372.338256" r="5" fill="black" stroke="none" />
<circle cx="607.423616" cy="372.338256" r="5" fill="black" stroke="none" />
<path d="M607.423616,372.338256 L559.9389949873807,428.7687668817973" stroke="grey" stroke-width="5" />
<circle cx="559.9389949873807" cy="428.7687668817973" r="2.5" fill="grey" stroke="none" />
<path d="M559.9389949873807,428.7687668817973 A93.09442352599318,93.09442352599318,0,0,0,559.423616,428.338256" stroke="grey" stroke-width="5" fill="none" />
<circle cx="607.423616" cy="372.338256" r="5" fill="black" stroke="none" />
<circle cx="559.423616" cy="428.338256" r="5" fill="black" stroke="none" />
<path d="M559.423616,428.338256 A93.09442352599318,93.09442352599318,0,0,1,590.9150806169233,479.97452102806704" stroke="grey" stroke-width="5" fill="none" />
<path d="M590.9150806169233,479.97452102806704 L107.42361600000001,-23.661744" stroke="grey" stroke-width="5" />
<circle cx="590.9150806169233" cy="479.97452102806704" r="2.5" fill="grey" stroke="none" />
<circle cx="559.423616" cy="428.338256" r="5" fill="black" stroke="none" />
<circle cx="607.423616" cy="476.338256" r="5" fill="black" stroke="none" />
<path d="M607.423616,476.338256 A109.99868819052796,109.99868819052796,0,0,1,605.3295862952644,531.7078800064816" stroke="grey" stroke-width="5" fill="none" />
<path d="M605.3295862952644,531.7078800064816 L107.42361600000001,32.338256" stroke="grey" stroke-width="5" />
<circle cx="605.3295862952644" cy="531.7078800064816" r="2.5" fill="grey" stroke="none" />
<circle cx="607.423616" cy="476.338256" r="5" fill="black" stroke="none" />
<circle cx="607.423616" cy="532.338256" r="5" fill="black" stroke="none" />
<path d="M607.423616,532.338256 A112.18554307769337,112.18554307769337,0,0,1,595.0858423092175,559.5338447270426" stroke="grey" stroke-width="5" fill="none" />
<path d="M595.0858423092175,559.5338447270426 L179.423616,112.338256" stroke="grey" stroke-width="5" />
<circle cx="595.0858423092175" cy="559.5338447270426" r="2.5" fill="grey" stroke="none" />
<circle cx="607.423616" cy="532.338256" r="5" fill="black" stroke="none" />
<circle cx="679.423616" cy="612.338256" r="5" fill="black" stroke="none" />
<path d="M655.423616,372.338256 L629.346337502097,393.7575932763634" stroke="grey" stroke-width="5" />
<circle cx="629.346337502097" cy="393.7575932763634" r="2.5" fill="grey" stroke="none" />
<path d="M629.346337502097,393.7575932763634 A167.38555496707892,167.38555496707892,0,0,1,631.423616,396.338256" stroke="grey" stroke-width="5" fill="none" />
<circle cx="655.423616" cy="372.338256" r="5" fill="black" stroke="none" />
<circle cx="631.423616" cy="396.338256" r="5" fill="black" stroke="none" />
<path d="M631.423616,396.338256 L601.3891464762978,420.0282562123044" stroke="grey" stroke-width="5" />
<circle cx="601.3891464762978" cy="420.0282562123044" r="2.5" fill="grey" stroke="none" />
<path d="M601.3891464762978,420.0282562123044 A129.13264044244195,129.13264044244195,0,0,1,607.423616,428.338256" stroke="grey" stroke-width="5" fill="none" />
<circle cx="631.423616" cy="396.338256" r="5" fill="black" stroke="none" />
<circle cx="607.423616" cy="428.338256" r="5" fill="black" stroke="none" />
<path d="M607.423616,428.338256 L591.5063519199853,438.9565813380934" stroke="grey" stroke-width="5" />
<circle cx="591.5063519199853" cy="438.9565813380934" r="2.5" fill="grey" stroke="none" />
<path d="M591.5063519199853,438.9565813380934 A109.99868819052796,109.99868819052796,0,0,1,607.423616,476.338256" stroke="grey" stroke-width="5" fill="none" />
<circle cx="607.423616" cy="428.338256" r="5" fill="black" stroke="none" />
<circle cx="607.423616" cy="476.338256" r="5" fill="black" stroke="none" />
<path d="M607.423616,372.338256 A166.84530007056534,166.84530007056534,0,0,1,630.9994321325481,396.67283543720504" stroke="grey" stroke-width="5" fill="none" />
<path d="M630.9994321325481,396.67283543720504 L131.423616,-103.661744" stroke="grey" stroke-width="5" />
<circle cx="630.9994321325481" cy="396.67283543720504" r="2.5" fill="grey" stroke="none" />
<circle cx="607.423616" cy="372.338256" r="5" fill="black" stroke="none" />
<circle cx="631.423616" cy="396.338256" r="5" fill="black" stroke="none" />
<path d="M559.423616,428.338256 A93.09442352599318,93.09442352599318,0,0,1,577.4439333876642,448.3375487120091" stroke="grey" stroke-width="5" fill="none" />
<path d="M577.4439333876642,448.3375487120091 L107.42361600000001,-71.661744" stroke="grey" stroke-width="5" />
<circle cx="577.4439333876642" cy="448.3375487120091" r="2.5" fill="grey" stroke="none" />
<circle cx="559.423616" cy="428.338256" r="5" fill="black" stroke="none" />
<circle cx="607.423616" cy="428.338256" r="5" fill="black" stroke="none" />
<path d="M655.423616,372.338256 L632.2543529454185,391.3690095293905" stroke="grey" stroke-width="5" />
<circle cx="632.2543529454185" cy="391.3690095293905" r="2.5" fill="grey" stroke="none" />
<path d="M632.2543529454185,391.3690095293905 A171.14878312052642,171.14878312052642,0,0,1,655.423616,428.338256" stroke="grey" stroke-width="5" fill="none" />
<circle cx="655.423616" cy="372.338256" r="5" fill="black" stroke="none" />
<circle cx="655.423616" cy="428.338256" r="5" fill="black" stroke="none" />
<path d="M631.423616,396.338256 A167.38555496707892,167.38555496707892,0,0,1,652.0061536214921,429.91395807411897" stroke="grey" stroke-width="5" fill="none" />
<path d="M652.0061536214921,429.91395807411897 L155.423616,-71.661744" stroke="grey" stroke-width="5" />
<circle cx="652.0061536214921" cy="429.91395807411897" r="2.5" fill="grey" stroke="none" />
<circle cx="631.423616" cy="396.338256" r="5" fill="black" stroke="none" />
<circle cx="655.423616" cy="428.338256" r="5" fill="black" stroke="none" />
<path d="M607.423616,428.338256 A129.13264044244195,129.13264044244195,0,0,1,617.2679206667704,445.9308441888625" stroke="grey" stroke-width="5" fill="none" />
<path d="M617.2679206667704,445.9308441888625 L155.423616,-71.661744" stroke="grey" stroke-width="5" />
<circle cx="617.2679206667704" cy="445.9308441888625" r="2.5" fill="grey" stroke="none" />
<circle cx="607.423616" cy="428.338256" r="5" fill="black" stroke="none" />
<circle cx="655.423616" cy="428.338256" r="5" fill="black" stroke="none" />
<path d="M607.423616,476.338256 A109.99868819052796,109.99868819052796,0,0,0,599.8919978401992,453.942425474949" stroke="grey" stroke-width="5" fill="none" />
<path d="M599.8919978401992,453.942425474949 L155.423616,-71.661744" stroke="grey" stroke-width="5" />
<circle cx="599.8919978401992" cy="453.942425474949" r="2.5" fill="grey" stroke="none" />
<circle cx="607.423616" cy="476.338256" r="5" fill="black" stroke="none" />
<circle cx="655.423616" cy="428.338256" r="5" fill="black" stroke="none" />
<path d="M655.423616,428.338256 L641.1436130515573,434.9223900070903" stroke="grey" stroke-width="5" />
<circle cx="641.1436130515573" cy="434.9223900070903" r="2.5" fill="grey" stroke="none" />
<path d="M641.1436130515573,434.9223900070903 A155.4239840810838,155.4239840810838,0,0,1,655.423616,500.338256" stroke="grey" stroke-width="5" fill="none" />
<circle cx="655.423616" cy="428.338256" r="5" fill="black" stroke="none" />
<circle cx="655.423616" cy="500.338256" r="5" fill="black" stroke="none" />
<path d="M655.423616,500.338256 L612.185277395556,500.2441542937124" stroke="grey" stroke-width="5" />
<circle cx="612.185277395556" cy="500.2441542937124" r="2.5" fill="grey" stroke="none" />
<path d="M612.185277395556,500.2441542937124 A112.18554307769337,112.18554307769337,0,0,1,607.423616,532.338256" stroke="grey" stroke-width="5" fill="none" />
<circle cx="655.423616" cy="500.338256" r="5" fill="black" stroke="none" />
<circle cx="607.423616" cy="532.338256" r="5" fill="black" stroke="none" />
<path d="M655.423616,372.338256 A201.13185051512104,201.13185051512104,0,0,0,650.0221929386798,366.03223179620215" stroke="grey" stroke-width="5" fill="none" />
<path d="M650.0221929386798,366.03223179620215 L259.42361600000004,-231.661744" stroke="grey" stroke-width="5" />
<circle cx="650.0221929386798" cy="366.03223179620215" r="2.5" fill="grey" stroke="none" />
<circle cx="655.423616" cy="372.338256" r="5" fill="black" stroke="none" />
<circle cx="759.423616" cy="268.338256" r="5" fill="black" stroke="none" />
<path d="M655.423616,372.338256 A201.13185051512104,201.13185051512104,0,0,1,688.8939296163226,430.91234085785834" stroke="grey" stroke-width="5" fill="none" />
<path d="M688.8939296163226,430.91234085785834 L283.42361600000004,-103.661744" stroke="grey" stroke-width="5" />
<circle cx="688.8939296163226" cy="430.91234085785834" r="2.5" fill="grey" stroke="none" />
<circle cx="655.423616" cy="372.338256" r="5" fill="black" stroke="none" />
<circle cx="783.423616" cy="396.338256" r="5" fill="black" stroke="none" />
<path d="M783.423616,396.338256 A301.7858566527547,301.7858566527547,0,0,1,790.6772698344943,418.8739987599435" stroke="grey" stroke-width="5" fill="none" />
<path d="M790.6772698344943,418.8739987599435 L371.42361600000004,-103.661744" stroke="grey" stroke-width="5" />
<circle cx="790.6772698344943" cy="418.8739987599435" r="2.5" fill="grey" stroke="none" />
<circle cx="783.423616" cy="396.338256" r="5" fill="black" stroke="none" />
<circle cx="871.423616" cy="396.338256" r="5" fill="black" stroke="none" />
<path d="M655.423616,428.338256 A171.14878312052642,171.14878312052642,0,0,1,669.3198198637242,524.9540490692989" stroke="grey" stroke-width="5" fill="none" />
<path d="M669.3198198637242,524.9540490692989 L219.423616,32.338256" stroke="grey" stroke-width="5" />
<circle cx="669.3198198637242" cy="524.9540490692989" r="2.5" fill="grey" stroke="none" />
<circle cx="655.423616" cy="428.338256" r="5" fill="black" stroke="none" />
<circle cx="719.423616" cy="532.338256" r="5" fill="black" stroke="none" />
<circle cx="500" cy="500" r="5" fill="red" stroke="none" />
</svg>