<?xml version="1.0" encoding="UTF-8"?>
<svg xmlns="http://www.w3.org/2000/svg" xmlns:xlink="http://www.w3.org/1999/xlink"
     width="1000" height="1000" viewBox="0 0 1000 1000">
<defs>
</defs>
<rect x="0" y="0" width="1000" height="1000" fill="white" />
<path d="M281.19987199999997,663.1723519999999 L396.47158499065176,577.2073358929089" stroke="grey" stroke-width="5" />
<circle cx="396.47158499065176" cy="577.2073358929089" r="2.5" fill="grey" stroke="none" />
<path d="M396.47158499065176,577.2073358929089 A129.14761101169577,129.14761101169577,0,0,0,401.19987199999997,583.1723519999999" stroke="grey" stroke-width="5" fill="none" />
<circle cx="281.19987199999997" cy="663.1723519999999" r="5" fill="black" stroke="none" />
<circle cx="401.19987199999997" cy="583.1723519999999" r="5" fill="black" stroke="none" />
<path d="M401.19987199999997,583.1723519999999 L421.6098157669919,565.9907646716064" stroke="grey" stroke-width="5" />
<circle cx="421.6098157669919" cy="565.9907646716064" r="2.5" fill="grey" stroke="none" />
<path d="M421.6098157669919,565.9907646716064 A102.46854154338438,102.46854154338438,0,0,1,401.19987199999997,527.1723519999999" stroke="grey" stroke-width="5" fill="none" />
<circle cx="401.19987199999997" cy="583.1723519999999" r="5" fill="black" stroke="none" />
<circle cx="401.19987199999997" cy="527.1723519999999" r="5" fill="black" stroke="none" />
<path d="M401.19987199999997,527.1723519999999 A102.46854154338438,102.46854154338438,0,0,1,398.4390255346212,513.6077357290242" stroke="grey" stroke-width="5" fill="none" />
<path d="M398.4390255346212,513.6077357290242 L-202.80012800000003,27.172351999999933" stroke="grey" stroke-width="5" />
<circle cx="398.4390255346212" cy="513.6077357290242" r="2.5" fill="grey" stroke="none" />
<circle cx="401.19987199999997" cy="527.1723519999999" r="5" fill="black" stroke="none" />
<circle cx="297.19987199999997" cy="527.1723519999999" r="5" fill="black" stroke="none" />
<path d="M297.19987199999997,527.1723519999999 L321.57673104253763,523.9061972835777" stroke="grey" stroke-width="5" />
<circle cx="321.57673104253763" cy="523.9061972835777" r="2.5" fill="grey" stroke="none" />
<path d="M321.57673104253763,523.9061972835779 A180.01769128068582,180.01769128068582,0,0,1,337.19987199999997,423.17235199999993" stroke="grey" stroke-width="5" fill="none" />
<circle cx="297.19987199999997" cy="527.1723519999999" r="5" fill="black" stroke="none" />
<circle cx="337.19987199999997" cy="423.17235199999993" r="5" fill="black" stroke="none" />
<path d="M337.19987199999997,423.17235199999993 L344.0180561565277,426.3899480720183" stroke="grey" stroke-width="5" />
<circle cx="344.0180561565277" cy="426.3899480720183" r="2.5" fill="grey" stroke="none" />
<path d="M344.0180561565277,426.3899480720183 A172.4784234332756,172.4784234332756,0,0,1,449.19987199999997,335.17235199999993" stroke="grey" stroke-width="5" fill="none" />
<circle cx="337.19987199999997" cy="423.17235199999993" r="5" fill="black" stroke="none" />
<circle cx="449.19987199999997" cy="335.17235199999993" r="5" fill="black" stroke="none" />
<path d="M449.19987199999997,335.17235199999993 L458.51378720001145,365.3925659350778" stroke="grey" stroke-width="5" />
<circle cx="458.51378720001145" cy="365.3925659350778" r="2.5" fill="grey" stroke="none" />
<path d="M458.51378720001145,365.3925659350778 A140.85548323735327,140.85548323735327,0,0,1,497.19987199999997,359.17235199999993" stroke="grey" stroke-width="5" fill="none" />
<circle cx="449.19987199999997" cy="335.17235199999993" r="5" fill="black" stroke="none" />
<circle cx="497.19987199999997" cy="359.17235199999993" r="5" fill="black" stroke="none" />
<path d="M497.19987199999997,359.17235199999993 A140.85548323735327,140.85548323735327,0,0,0,449.68392155949226,368.4380016555047" stroke="grey" stroke-width="5" fill="none" />
<path d="M449.68392155949226,368.4380016555047 L-50.80012800000003,-132.82764800000007" stroke="grey" stroke-width="5" />
<circle cx="449.68392155949226" cy="368.4380016555047" r="2.5" fill="grey" stroke="none" />
<circle cx="497.19987199999997" cy="359.17235199999993" r="5" fill="black" stroke="none" />
<circle cx="449.19987199999997" cy="367.17235199999993" r="5" fill="black" stroke="none" />
<path d="M449.19987199999997,335.17235199999993 L458.1146825071729,364.0976186501746" stroke="grey" stroke-width="5" />
<circle cx="458.1146825071729" cy="364.0976186501746" r="2.5" fill="grey" stroke="none" />
<path d="M458.1146825071729,364.0976186501746 A142.21053785858595,142.21053785858595,0,0,0,449.19987199999997,367.17235199999993" stroke="grey" stroke-width="5" fill="none" />
<circle cx="449.19987199999997" cy="335.17235199999993" r="5" fill="black" stroke="none" />
<circle cx="449.19987199999997" cy="367.17235199999993" r="5" fill="black" stroke="none" />
<path d="M449.19987199999997,367.17235199999993 L463.9311662740286,405.6904275925475" stroke="grey" stroke-width="5" />
<circle cx="463.9311662740286" cy="405.6904275925475" r="2.5" fill="grey" stroke="none" />
<path d="M463.9311662740286,405.6904275925475 A100.9715614122526,100.9715614122526,0,0,0,401.19987199999997,479.17235199999993" stroke="grey" stroke-width="5" fill="none" />
<circle cx="449.19987199999997" cy="367.17235199999993" r="5" fill="black" stroke="none" />
<circle cx="401.19987199999997" cy="479.17235199999993" r="5" fill="black" stroke="none" />
<path d="M337.19987199999997,423.17235199999993 L408.6857352445212,456.90752657139967" stroke="grey" stroke-width="5" />
<circle cx="408.6857352445212" cy="456.90752657139967" r="2.5" fill="grey" stroke="none" />
<path d="M408.6857352445212,456.90752657139967 A100.9715614122526,100.9715614122526,0,0,0,401.19987199999997,479.17235199999993" stroke="grey" stroke-width="5" fill="none" />
<circle cx="337.19987199999997" cy="423.17235199999993" r="5" fill="black" stroke="none" />
<circle cx="401.19987199999997" cy="479.17235199999993" r="5" fill="black" stroke="none" />
<path d="M401.19987199999997,479.17235199999993 A100.9715614122526,100.9715614122526,0,0,0,402.64325966163324,526.7753865465305" stroke="grey" stroke-width="5" fill="none" />
<path d="M402.64325966163324,526.7753865465305 L-98.80012800000003,27.172351999999933" stroke="grey" stroke-width="5" />
<circle cx="402.64325966163324" cy="526.7753865465305" r="2.5" fill="grey" stroke="none" />
<circle cx="401.19987199999997" cy="479.17235199999993" r="5" fill="black" stroke="none" />
<circle cx="401.19987199999997" cy="527.1723519999999" r="5" fill="black" stroke="none" />
<path d="M497.19987199999997,359.17235199999993 A140.85548323735327,140.85548323735327,0,0,1,528.3824368871093,362.033683696427" stroke="grey" stroke-width="5" fill="none" />
<path d="M528.3824368871093,362.033683696427 L37.19987199999997,-180.82764800000007" stroke="grey" stroke-width="5" />
<circle cx="528.3824368871093" cy="362.033683696427" r="2.5" fill="grey" stroke="none" />
<circle cx="497.19987199999997" cy="359.17235199999993" r="5" fill="black" stroke="none" />
<circle cx="537.1998719999999" cy="319.17235199999993" r="5" fill="black" stroke="none" />
<path d="M497.19987199999997,359.17235199999993 L498.2279940423817,410.87999146704226" stroke="grey" stroke-width="5" />
<circle cx="498.2279940423817" cy="410.87999146704226" r="2.5" fill="grey" stroke="none" />
<path d="M498.2279940423817,410.87999146704226 A89.1376235157091,89.1376235157091,0,0,1,545.199872,423.17235199999993" stroke="grey" stroke-width="5" fill="none" />
<circle cx="497.19987199999997" cy="359.17235199999993" r="5" fill="black" stroke="none" />
<circle cx="545.1998719999999" cy="423.17235199999993" r="5" fill="black" stroke="none" />
<path d="M449.19987199999997,367.17235199999993 L472.53757859349105,428.19370762586595" stroke="grey" stroke-width="5" />
<circle cx="472.53757859349105" cy="428.19370762586595" r="2.5" fill="grey" stroke="none" />
<path d="M472.53757859349105,428.19370762586595 A76.8786590285516,76.8786590285516,0,0,1,497.19987199999997,423.17235199999993" stroke="grey" stroke-width="5" fill="none" />
<circle cx="449.19987199999997" cy="367.17235199999993" r="5" fill="black" stroke="none" />
<circle cx="497.19987199999997" cy="423.17235199999993" r="5" fill="black" stroke="none" />
<path d="M401.19987199999997,479.17235199999993 L446.2767794003697,488.6748291654495" stroke="grey" stroke-width="5" />
<circle cx="446.2767794003697" cy="488.6748291654495" r="2.5" fill="grey" stroke="none" />
<path d="M446.2767794003697,488.6748291654495 A54.90395182524017,54.90395182524017,0,0,1,449.19987199999997,479.17235199999993" stroke="grey" stroke-width="5" fill="none" />
<circle cx="401.19987199999997" cy="479.17235199999993" r="5" fill="black" stroke="none" />
<circle cx="449.19987199999997" cy="479.17235199999993" r="5" fill="black" stroke="none" />
<path d="M401.19987199999997,527.1723519999999 L473.66168383136716,507.24365456309306" stroke="grey" stroke-width="5" />
<circle cx="473.66168383136716" cy="507.24365456309306" r="2.5" fill="grey" stroke="none" />
<path d="M473.66168383136716,507.24365456309306 A27.316248461827342,27.316248461827342,0,0,0,497.19987199999997,527.1723519999999" stroke="grey" stroke-width="5" fill="none" />
<circle cx="401.19987199999997" cy="527.1723519999999" r="5" fill="black" stroke="none" />
<circle cx="497.19987199999997" cy="527.1723519999999" r="5" fill="black" stroke="none" />
<path d="M401.19987199999997,583.1723519999999 L436.3356811667587,553.5941728318263" stroke="grey" stroke-width="5" />
<circle cx="436.3356811667587" cy="553.5941728318263" r="2.5" fill="grey" stroke="none" />
<path d="M436.3356811667587,553.5941728318263 A83.21947400715939,83.21947400715939,0,0,0,497.19987199999997,583.1723519999999" stroke="grey" stroke-width="5" fill="none" />
<circle cx="401.19987199999997" cy="583.1723519999999" r="5" fill="black" stroke="none" />
<circle cx="497.19987199999997" cy="583.1723519999999" r="5" fill="black" stroke="none" />
<path d="M545.1998719999999,423.17235199999993 L538.9836009820228,433.7383439046176" stroke="grey" stroke-width="5" />
<circle cx="538.9836009820228" cy="433.7383439046176" r="2.5" fill="grey" stroke="none" />
<path d="M538.9836009820228,433.7383439046176 A76.8786590285516,76.8786590285516,0,0,0,497.19987199999997,423.17235199999993" stroke="grey" stroke-width="5" fill="none" />
<circle cx="545.1998719999999" cy="423.17235199999993" r="5" fill="black" stroke="none" />
<circle cx="497.19987199999997" cy="423.17235199999993" r="5" fill="black" stroke="none" />
<path d="M497.19987199999997,423.17235199999993 L498.00025007252776,445.13247840246595" stroke="grey" stroke-width="5" />
<circle cx="498.00025007252776" cy="445.13247840246595" r="2.5" fill="grey" stroke="none" />
<path d="M498.00025007252776,445.13247840246595 A54.90395182524017,54.90395182524017,0,0,0,449.19987199999997,479.17235199999993" stroke="grey" stroke-width="5" fill="none" />
<circle cx="497.19987199999997" cy="423.17235199999993" r="5" fill="black" stroke="none" />
<circle cx="449.19987199999997" cy="479.17235199999993" r="5" fill="black" stroke="none" />
<path d="M449.19987199999997,479.17235199999993 L474.72551843339807,489.63766379778264" stroke="grey" stroke-width="5" />
<circle cx="474.72551843339807" cy="489.63766379778264" r="2.5" fill="grey" stroke="none" />
<path d="M474.72551843339807,489.6376637977827 A27.316248461827342,27.316248461827342,0,0,0,497.19987199999997,527.1723519999999" stroke="grey" stroke-width="5" fill="none" />
<circle cx="449.19987199999997" cy="479.17235199999993" r="5" fill="black" stroke="none" />
<circle cx="497.19987199999997" cy="527.1723519999999" r="5" fill="black" stroke="none" />
<path d="M497.19987199999997,527.1723519999999 A27.316248461827342,27.316248461827342,0,0,0,499.0808762842416,527.3007809709433" stroke="grey" stroke-width="5" fill="none" />
<path d="M499.0808762842416,527.3007809709433 L-2.8001280000000293,83.17235199999993" stroke="grey" stroke-width="5" />
<circle cx="499.0808762842416" cy="527.3007809709433" r="2.5" fill="grey" stroke="none" />
<circle cx="497.19987199999997" cy="527.1723519999999" r="5" fill="black" stroke="none" />
<circle cx="497.19987199999997" cy="583.1723519999999" r="5" fill="black" stroke="none" />
<path d="M497.19987199999997,583.1723519999999 A83.21947400715939,83.21947400715939,0,0,0,532.4914993414491,576.6145111879786" stroke="grey" stroke-width="5" fill="none" />
<path d="M532.4914993414491,576.6145111879786 L69.19987199999997,163.17235199999993" stroke="grey" stroke-width="5" />
<circle cx="532.4914993414491" cy="576.6145111879786" r="2.5" fill="grey" stroke="none" />
<circle cx="497.19987199999997" cy="583.1723519999999" r="5" fill="black" stroke="none" />
<circle cx="569.1998719999999" cy="663.1723519999999" r="5" fill="black" stroke="none" />
<path d="M545.1998719999999,423.17235199999993 L528.8643462229841,450.93836037036675" stroke="grey" stroke-width="5" />
<circle cx="528.8643462229841" cy="450.93836037036675" r="2.5" fill="grey" stroke="none" />
<path d="M528.8643462229841,450.93836037036675 A56.92271045925601,56.92271045925601,0,0,0,521.199872,447.17235199999993" stroke="grey" stroke-width="5" fill="none" />
<circle cx="545.1998719999999" cy="423.17235199999993" r="5" fill="black" stroke="none" />
<circle cx="521.1998719999999" cy="447.17235199999993" r="5" fill="black" stroke="none" />
<path d="M521.1998719999999,447.17235199999993 L507.8266832203602,480.49680365180046" stroke="grey" stroke-width="5" />
<circle cx="507.8266832203602" cy="480.49680365180046" r="2.5" fill="grey" stroke="none" />
<path d="M507.8266832203602,480.4968036518005 A21.015033619489905,21.015033619489905,0,0,0,497.19987199999997,479.17235199999993" stroke="grey" stroke-width="5" fill="none" />
<circle cx="521.1998719999999" cy="447.17235199999993" r="5" fill="black" stroke="none" />
<circle cx="497.19987199999997" cy="479.17235199999993" r="5" fill="black" stroke="none" />
<path d="M497.19987199999997,479.17235199999993 A21.015033619489905,21.015033619489905,0,0,0,497.8457955476168,520.9043306806418" stroke="grey" stroke-width="5" fill="none" />
<path d="M497.8457955476168,520.9043306806418 L-2.8001280000000293,27.172351999999933" stroke="grey" stroke-width="5" />
<circle cx="497.8457955476168" cy="520.9043306806418" r="2.5" fill="grey" stroke="none" />
<circle cx="497.19987199999997" cy="479.17235199999993" r="5" fill="black" stroke="none" />
<circle cx="497.19987199999997" cy="527.1723519999999" r="5" fill="black" stroke="none" />
<path d="M497.19987199999997,423.17235199999993 L497.92672144120434,443.1150592683272" stroke="grey" stroke-width="5" />
<circle cx="497.92672144120434" cy="443.1150592683272" r="2.5" fill="grey" stroke="none" />
<path d="M497.92672144120434,443.1150592683272 A56.92271045925601,56.92271045925601,0,0,1,521.199872,447.17235199999993" stroke="grey" stroke-width="5" fill="none" />
<circle cx="497.19987199999997" cy="423.17235199999993" r="5" fill="black" stroke="none" />
<circle cx="521.1998719999999" cy="447.17235199999993" r="5" fill="black" stroke="none" />
<path d="M449.19987199999997,479.17235199999993 L480.55574576503227,492.02801058240607" stroke="grey" stroke-width="5" />
<circle cx="480.55574576503227" cy="492.02801058240607" r="2.5" fill="grey" stroke="none" />
<path d="M480.55574576503227,492.02801058240607 A21.015033619489905,21.015033619489905,0,0,1,497.19987199999997,479.17235199999993" stroke="grey" stroke-width="5" fill="none" />
<circle cx="449.19987199999997" cy="479.17235199999993" r="5" fill="black" stroke="none" />
<circle cx="497.19987199999997" cy="479.17235199999993" r="5" fill="black" stroke="none" />
<path d="M545.1998719999999,423.17235199999993 L525.2361627569709,457.10529823705537" stroke="grey" stroke-width="5" />
<circle cx="525.2361627569709" cy="457.10529823705537" r="2.5" fill="grey" stroke="none" />
<path d="M525.2361627569709,457.10529823705537 A49.76765365202873,49.76765365202873,0,0,1,545.1998719999999,479.17235199999993" stroke="grey" stroke-width="5" fill="none" />
<circle cx="545.1998719999999" cy="423.17235199999993" r="5" fill="black" stroke="none" />
<circle cx="545.1998719999999" cy="479.17235199999993" r="5" fill="black" stroke="none" />
<path d="M521.1998719999999,447.17235199999993 L518.5350957227965,453.8126686571409" stroke="grey" stroke-width="5" />
<circle cx="518.5350957227965" cy="453.8126686571409" r="2.5" fill="grey" stroke="none" />
<path d="M518.5350957227965,453.8126686571409 A49.76765365202873,49.76765365202873,0,0,1,545.1998719999999,479.17235199999993" stroke="grey" stroke-width="5" fill="none" />
<circle cx="521.1998719999999" cy="447.17235199999993" r="5" fill="black" stroke="none" />
<circle cx="545.1998719999999" cy="479.17235199999993" r="5" fill="black" stroke="none" />
<path d="M497.19987199999997,479.17235199999993 A21.015033619489905,21.015033619489905,0,0,1,519.0862289051861,491.2052570130145" stroke="grey" stroke-width="5" fill="none" />
<path d="M519.0862289051861,491.2052570130145 L45.19987199999997,-20.827648000000067" stroke="grey" stroke-width="5" />
<circle cx="519.0862289051861" cy="491.2052570130145" r="2.5" fill="grey" stroke="none" />
<circle cx="497.19987199999997" cy="479.17235199999993" r="5" fill="black" stroke="none" />
<circle cx="545.1998719999999" cy="479.17235199999993" r="5" fill="black" stroke="none" />
<path d="M497.19987199999997,527.1723519999999 A27.316248461827342,27.316248461827342,0,0,0,524.8091047777267,488.56821316870963" stroke="grey" stroke-width="5" fill="none" />
<path d="M524.8091047777267,488.56821316870963 L45.19987199999997,-20.827648000000067" stroke="grey" stroke-width="5" />
<circle cx="524.8091047777267" cy="488.56821316870963" r="2.5" fill="grey" stroke="none" />
<circle cx="497.19987199999997" cy="527.1723519999999" r="5" fill="black" stroke="none" />
<circle cx="545.1998719999999" cy="479.17235199999993" r="5" fill="black" stroke="none" />
<path d="M545.1998719999999,479.17235199999993 A49.76765365202873,49.76765365202873,0,0,1,532.9469408707625,537.3003811949256" stroke="grey" stroke-width="5" fill="none" />
<path d="M532.9469408707625,537.3003811949256 L45.19987199999997,51.17235199999993" stroke="grey" stroke-width="5" />
<circle cx="532.9469408707625" cy="537.3003811949256" r="2.5" fill="grey" stroke="none" />
<circle cx="545.1998719999999" cy="479.17235199999993" r="5" fill="black" stroke="none" />
<circle cx="545.1998719999999" cy="551.1723519999999" r="5" fill="black" stroke="none" />
<path d="M545.1998719999999,551.1723519999999 A68.27618939299613,68.27618939299613,0,0,1,497.70267630343125,568.2375288375939" stroke="grey" stroke-width="5" fill="none" />
<path d="M497.70267630343125,568.2375288375939 L-2.8001280000000293,83.17235199999993" stroke="grey" stroke-width="5" />
<circle cx="497.70267630343125" cy="568.2375288375939" r="2.5" fill="grey" stroke="none" />
<circle cx="545.1998719999999" cy="551.1723519999999" r="5" fill="black" stroke="none" />
<circle cx="497.19987199999997" cy="583.1723519999999" r="5" fill="black" stroke="none" />
<path d="M545.199872,423.17235199999993 A89.1376235157091,89.1376235157091,0,0,1,556.7295243486277,431.2448038821301" stroke="grey" stroke-width="5" fill="none" />
<path d="M556.7295243486277,431.2448038821301 L149.19987199999997,-180.82764800000007" stroke="grey" stroke-width="5" />
<circle cx="556.7295243486277" cy="431.2448038821301" r="2.5" fill="grey" stroke="none" />
<circle cx="545.1998719999999" cy="423.17235199999993" r="5" fill="black" stroke="none" />
<circle cx="649.1998719999999" cy="319.17235199999993" r="5" fill="black" stroke="none" />
<path d="M545.199872,423.17235199999993 A89.1376235157091,89.1376235157091,0,0,1,585.2599008246416,473.9948997809936" stroke="grey" stroke-width="5" fill="none" />
<path d="M585.2599008246416,473.9948997809936 L173.19987199999997,-52.82764800000007" stroke="grey" stroke-width="5" />
<circle cx="585.2599008246416" cy="473.9948997809936" r="2.5" fill="grey" stroke="none" />
<circle cx="545.1998719999999" cy="423.17235199999993" r="5" fill="black" stroke="none" />
<circle cx="673.1998719999999" cy="447.17235199999993" r="5" fill="black" stroke="none" />
<path d="M673.1998719999999,447.17235199999993 A181.07721020058898,181.07721020058898,0,0,1,677.4836056071019,464.1039585088969" stroke="grey" stroke-width="5" fill="none" />
<path d="M677.4836056071019,464.1039585088969 L261.19987199999997,-52.82764800000007" stroke="grey" stroke-width="5" />
<circle cx="677.4836056071019" cy="464.1039585088969" r="2.5" fill="grey" stroke="none" />
<circle cx="673.1998719999999" cy="447.17235199999993" r="5" fill="black" stroke="none" />
<circle cx="761.1998719999999" cy="447.17235199999993" r="5" fill="black" stroke="none" />
<path d="M545.1998719999999,479.17235199999993 A49.76765365202873,49.76765365202873,0,0,1,539.5915850645297,530.1550284713246" stroke="grey" stroke-width="5" fill="none" />
<path d="M539.5915850645297,530.1550284713246 L109.19987199999997,83.17235199999993" stroke="grey" stroke-width="5" />
<circle cx="539.5915850645297" cy="530.1550284713246" r="2.5" fill="grey" stroke="none" />
<circle cx="545.1998719999999" cy="479.17235199999993" r="5" fill="black" stroke="none" />
<circle cx="609.1998719999999" cy="583.1723519999999" r="5" fill="black" stroke="none" />
<circle cx="500" cy="500" r="5" fill="red" stroke="none" />
</svg>