<?xml version="1.0" encoding="UTF-8"?>
<svg xmlns="http://www.w3.org/2000/svg" xmlns:xlink="http://www.w3.org/1999/xlink"
     width="1000" height="1000" viewBox="0 0 1000 1000">
<defs>
</defs>
<rect x="0" y="0" width="1000" height="1000" fill="white" />
<path d="M265.794104,682.026614 L379.08376515619193,593.977022705898" stroke="grey" stroke-width="5" />
<circle cx="379.08376515619193" cy="593.977022705898" r="2.5" fill="grey" stroke="none" />
<path d="M379.08376515619193,593.977022705898 A153.14181873501374,153.14181873501374,0,0,0,385.794104,602.026614" stroke="grey" stroke-width="5" fill="none" />
<circle cx="265.794104" cy="682.026614" r="5" fill="black" stroke="none" />
<circle cx="385.794104" cy="602.026614" r="5" fill="black" stroke="none" />
<path d="M385.794104,602.026614 L408.17416385678223,582.0332353017162" stroke="grey" stroke-width="5" />
<circle cx="408.17416385678223" cy="582.0332353017162" r="2.5" fill="grey" stroke="none" />
<path d="M408.17416385678223,582.0332353017162 A123.13178256432337,123.13178256432337,0,0,1,385.794104,546.026614" stroke="grey" stroke-width="5" fill="none" />
<circle cx="385.794104" cy="602.026614" r="5" fill="black" stroke="none" />
<circle cx="385.794104" cy="546.026614" r="5" fill="black" stroke="none" />
<path d="M385.794104,546.026614 A123.13178256432337,123.13178256432337,0,0,1,379.5192838358936,525.4132428086585" stroke="grey" stroke-width="5" fill="none" />
<path d="M379.5192838358936,525.4132428086585 L281.794104,546.026614" stroke="grey" stroke-width="5" />
<circle cx="379.5192838358936" cy="525.4132428086585" r="2.5" fill="grey" stroke="none" />
<circle cx="385.794104" cy="546.026614" r="5" fill="black" stroke="none" />
<circle cx="281.794104" cy="546.026614" r="5" fill="black" stroke="none" />
<path d="M281.794104,546.026614 L316.63610030392243,538.6773207670158" stroke="grey" stroke-width="5" />
<circle cx="316.63610030392243" cy="538.6773207670158" r="2.5" fill="grey" stroke="none" />
<path d="M316.6361003039225,538.6773207670158 A187.39865221892023,187.39865221892023,0,0,1,321.79410399999995,442.026614" stroke="grey" stroke-width="5" fill="none" />
<circle cx="281.794104" cy="546.026614" r="5" fill="black" stroke="none" />
<circle cx="321.794104" cy="442.026614" r="5" fill="black" stroke="none" />
<path d="M321.794104,442.026614 L347.5772073487726,450.4142927259401" stroke="grey" stroke-width="5" />
<circle cx="347.5772073487726" cy="450.4142927259401" r="2.5" fill="grey" stroke="none" />
<path d="M347.5772073487726,450.4142927259401 A160.2855267498217,160.2855267498217,0,0,1,433.79410399999995,354.026614" stroke="grey" stroke-width="5" fill="none" />
<circle cx="321.794104" cy="442.026614" r="5" fill="black" stroke="none" />
<circle cx="433.794104" cy="354.026614" r="5" fill="black" stroke="none" />
<path d="M433.794104,354.026614 L449.060797716541,387.6872259616358" stroke="grey" stroke-width="5" />
<circle cx="449.060797716541" cy="387.6872259616358" r="2.5" fill="grey" stroke="none" />
<path d="M449.06079771654095,387.6872259616358 A123.32461855391166,123.32461855391166,0,0,1,481.794104,378.026614" stroke="grey" stroke-width="5" fill="none" />
<circle cx="433.794104" cy="354.026614" r="5" fill="black" stroke="none" />
<circle cx="481.794104" cy="378.026614" r="5" fill="black" stroke="none" />
<path d="M481.794104,378.026614 A123.32461855391166,123.32461855391166,0,0,0,438.0548767502286,393.36153017302604" stroke="grey" stroke-width="5" fill="none" />
<path d="M438.0548767502286,393.36153017302604 L433.794104,386.026614" stroke="grey" stroke-width="5" />
<circle cx="438.0548767502286" cy="393.36153017302604" r="2.5" fill="grey" stroke="none" />
<circle cx="481.794104" cy="378.026614" r="5" fill="black" stroke="none" />
<circle cx="433.794104" cy="386.026614" r="5" fill="black" stroke="none" />
<path d="M433.794104,354.026614 L445.55704546581734,379.9620139994979" stroke="grey" stroke-width="5" />
<circle cx="445.55704546581734" cy="379.9620139994979" r="2.5" fill="grey" stroke="none" />
<path d="M445.5570454658173,379.9620139994979 A131.80725845516935,131.80725845516935,0,0,0,433.794104,386.026614" stroke="grey" stroke-width="5" fill="none" />
<circle cx="433.794104" cy="354.026614" r="5" fill="black" stroke="none" />
<circle cx="433.794104" cy="386.026614" r="5" fill="black" stroke="none" />
<path d="M433.794104,386.026614 L442.62658643258106,401.2317239742957" stroke="grey" stroke-width="5" />
<circle cx="442.62658643258106" cy="401.2317239742957" r="2.5" fill="grey" stroke="none" />
<path d="M442.62658643258106,401.2317239742957 A114.2229439887968,114.2229439887968,0,0,0,385.794104,498.026614" stroke="grey" stroke-width="5" fill="none" />
<circle cx="433.794104" cy="386.026614" r="5" fill="black" stroke="none" />
<circle cx="385.794104" cy="498.026614" r="5" fill="black" stroke="none" />
<path d="M321.794104,442.026614 L391.38021092327665,464.66414916269963" stroke="grey" stroke-width="5" />
<circle cx="391.38021092327665" cy="464.66414916269963" r="2.5" fill="grey" stroke="none" />
<path d="M391.38021092327665,464.66414916269963 A114.2229439887968,114.2229439887968,0,0,0,385.794104,498.026614" stroke="grey" stroke-width="5" fill="none" />
<circle cx="321.794104" cy="442.026614" r="5" fill="black" stroke="none" />
<circle cx="385.794104" cy="498.026614" r="5" fill="black" stroke="none" />
<path d="M385.794104,498.026614 A114.2229439887968,114.2229439887968,0,0,0,394.0571362622502,542.6964934919998" stroke="grey" stroke-width="5" fill="none" />
<path d="M394.0571362622502,542.6964934919998 L385.794104,546.026614" stroke="grey" stroke-width="5" />
<circle cx="394.0571362622502" cy="542.6964934919998" r="2.5" fill="grey" stroke="none" />
<circle cx="385.794104" cy="498.026614" r="5" fill="black" stroke="none" />
<circle cx="385.794104" cy="546.026614" r="5" fill="black" stroke="none" />
<path d="M481.794104,378.026614 A123.32461855391166,123.32461855391166,0,0,1,516.4455697143711,377.7768238907302" stroke="grey" stroke-width="5" fill="none" />
<path d="M516.4455697143711,377.7768238907302 L521.7941040000001,338.026614" stroke="grey" stroke-width="5" />
<circle cx="516.4455697143711" cy="377.7768238907302" r="2.5" fill="grey" stroke="none" />
<circle cx="481.794104" cy="378.026614" r="5" fill="black" stroke="none" />
<circle cx="521.7941040000001" cy="338.026614" r="5" fill="black" stroke="none" />
<path d="M481.794104,378.026614 L490.3775578837112,435.5328709714285" stroke="grey" stroke-width="5" />
<circle cx="490.3775578837112" cy="435.5328709714285" r="2.5" fill="grey" stroke="none" />
<path d="M490.3775578837112,435.5328709714285 A65.1813019006817,65.1813019006817,0,0,1,529.7941040000001,442.026614" stroke="grey" stroke-width="5" fill="none" />
<circle cx="481.794104" cy="378.026614" r="5" fill="black" stroke="none" />
<circle cx="529.7941040000001" cy="442.026614" r="5" fill="black" stroke="none" />
<path d="M433.794104,386.026614 L469.47822140732984,447.45678764095373" stroke="grey" stroke-width="5" />
<circle cx="469.47822140732984" cy="447.45678764095373" r="2.5" fill="grey" stroke="none" />
<path d="M469.47822140732984,447.45678764095373 A60.764859363515455,60.764859363515455,0,0,1,481.794104,442.026614" stroke="grey" stroke-width="5" fill="none" />
<circle cx="433.794104" cy="386.026614" r="5" fill="black" stroke="none" />
<circle cx="481.794104" cy="442.026614" r="5" fill="black" stroke="none" />
<path d="M385.794104,498.026614 L433.77458610984104,498.85567812878026" stroke="grey" stroke-width="5" />
<circle cx="433.77458610984104" cy="498.85567812878026" r="2.5" fill="grey" stroke="none" />
<path d="M433.77458610984104,498.85567812878026 A66.23529963295864,66.23529963295864,0,0,1,433.794104,498.02661399999994" stroke="grey" stroke-width="5" fill="none" />
<circle cx="385.794104" cy="498.026614" r="5" fill="black" stroke="none" />
<circle cx="433.794104" cy="498.026614" r="5" fill="black" stroke="none" />
<path d="M385.794104,546.026614 L454.09152374744065,518.5017743375063" stroke="grey" stroke-width="5" />
<circle cx="454.09152374744065" cy="518.5017743375063" r="2.5" fill="grey" stroke="none" />
<path d="M454.09152374744065,518.5017743375063 A49.496503366074364,49.496503366074364,0,0,0,481.794104,546.026614" stroke="grey" stroke-width="5" fill="none" />
<circle cx="385.794104" cy="546.026614" r="5" fill="black" stroke="none" />
<circle cx="481.794104" cy="546.026614" r="5" fill="black" stroke="none" />
<path d="M385.794104,602.026614 L422.71152282634733,569.0461867856986" stroke="grey" stroke-width="5" />
<circle cx="422.71152282634733" cy="569.0461867856986" r="2.5" fill="grey" stroke="none" />
<path d="M422.71152282634733,569.0461867856986 A103.63823914688926,103.63823914688926,0,0,0,481.794104,602.026614" stroke="grey" stroke-width="5" fill="none" />
<circle cx="385.794104" cy="602.026614" r="5" fill="black" stroke="none" />
<circle cx="481.794104" cy="602.026614" r="5" fill="black" stroke="none" />
<path d="M529.7941040000001,442.026614 L527.7753663493951,445.9546749697561" stroke="grey" stroke-width="5" />
<circle cx="527.7753663493951" cy="445.9546749697561" r="2.5" fill="grey" stroke="none" />
<path d="M527.7753663493951,445.9546749697561 A60.764859363515455,60.764859363515455,0,0,0,481.794104,442.026614" stroke="grey" stroke-width="5" fill="none" />
<circle cx="529.7941040000001" cy="442.026614" r="5" fill="black" stroke="none" />
<circle cx="481.794104" cy="442.026614" r="5" fill="black" stroke="none" />
<path d="M481.794104,442.026614 A60.764859363515455,60.764859363515455,0,0,0,439.2621157937105,498.1895979421181" stroke="grey" stroke-width="5" fill="none" />
<path d="M439.2621157937105,498.1895979421181 L433.794104,498.026614" stroke="grey" stroke-width="5" />
<circle cx="439.2621157937105" cy="498.1895979421181" r="2.5" fill="grey" stroke="none" />
<circle cx="481.794104" cy="442.026614" r="5" fill="black" stroke="none" />
<circle cx="433.794104" cy="498.026614" r="5" fill="black" stroke="none" />
<path d="M433.794104,498.026614 L450.52546946451264,498.52532248917373" stroke="grey" stroke-width="5" />
<circle cx="450.52546946451264" cy="498.52532248917373" r="2.5" fill="grey" stroke="none" />
<path d="M450.52546946451264,498.5253224891737 A49.496503366074364,49.496503366074364,0,0,0,481.794104,546.026614" stroke="grey" stroke-width="5" fill="none" />
<circle cx="433.794104" cy="498.026614" r="5" fill="black" stroke="none" />
<circle cx="481.794104" cy="546.026614" r="5" fill="black" stroke="none" />
<path d="M481.794104,546.026614 A49.496503366074364,49.496503366074364,0,0,0,491.30506075687754,548.7268086070309" stroke="grey" stroke-width="5" fill="none" />
<path d="M491.30506075687754,548.7268086070309 L481.794104,602.026614" stroke="grey" stroke-width="5" />
<circle cx="491.30506075687754" cy="548.7268086070309" r="2.5" fill="grey" stroke="none" />
<circle cx="481.794104" cy="546.026614" r="5" fill="black" stroke="none" />
<circle cx="481.794104" cy="602.026614" r="5" fill="black" stroke="none" />
<path d="M481.794104,602.026614 A103.63823914688926,103.63823914688926,0,0,0,529.3722812157104,599.3889013404064" stroke="grey" stroke-width="5" fill="none" />
<path d="M529.3722812157104,599.3889013404064 L553.7941040000001,682.026614" stroke="grey" stroke-width="5" />
<circle cx="529.3722812157104" cy="599.3889013404064" r="2.5" fill="grey" stroke="none" />
<circle cx="481.794104" cy="602.026614" r="5" fill="black" stroke="none" />
<circle cx="553.7941040000001" cy="682.026614" r="5" fill="black" stroke="none" />
<path d="M529.7941040000001,442.026614 L515.7533209582049,469.3471783312597" stroke="grey" stroke-width="5" />
<circle cx="515.7533209582049" cy="469.3471783312597" r="2.5" fill="grey" stroke="none" />
<path d="M515.7533209582049,469.3471783312597 A34.463931834133675,34.463931834133675,0,0,0,505.794104,466.026614" stroke="grey" stroke-width="5" fill="none" />
<circle cx="529.7941040000001" cy="442.026614" r="5" fill="black" stroke="none" />
<circle cx="505.794104" cy="466.026614" r="5" fill="black" stroke="none" />
<path d="M505.794104,466.026614 L503.0787179769539,481.94811929226785" stroke="grey" stroke-width="5" />
<circle cx="503.0787179769539" cy="481.94811929226785" r="2.5" fill="grey" stroke="none" />
<path d="M503.0787179769539,481.94811929226785 A18.31253399908958,18.31253399908958,0,0,0,481.794104,498.026614" stroke="grey" stroke-width="5" fill="none" />
<circle cx="505.794104" cy="466.026614" r="5" fill="black" stroke="none" />
<circle cx="481.794104" cy="498.026614" r="5" fill="black" stroke="none" />
<path d="M481.794104,498.026614 A18.31253399908958,18.31253399908958,0,0,0,493.26424965783735,517.0287571124809" stroke="grey" stroke-width="5" fill="none" />
<path d="M493.26424965783735,517.0287571124809 L481.794104,546.026614" stroke="grey" stroke-width="5" />
<circle cx="493.26424965783735" cy="517.0287571124809" r="2.5" fill="grey" stroke="none" />
<circle cx="481.794104" cy="498.026614" r="5" fill="black" stroke="none" />
<circle cx="481.794104" cy="546.026614" r="5" fill="black" stroke="none" />
<path d="M481.794104,442.026614 L489.6741839725205,467.1193047391869" stroke="grey" stroke-width="5" />
<circle cx="489.6741839725205" cy="467.1193047391869" r="2.5" fill="grey" stroke="none" />
<path d="M489.6741839725205,467.1193047391869 A34.463931834133675,34.463931834133675,0,0,1,505.794104,466.026614" stroke="grey" stroke-width="5" fill="none" />
<circle cx="481.794104" cy="442.026614" r="5" fill="black" stroke="none" />
<circle cx="505.794104" cy="466.026614" r="5" fill="black" stroke="none" />
<path d="M433.794104,498.026614 L481.6955954278359,499.4544042463976" stroke="grey" stroke-width="5" />
<circle cx="481.6955954278359" cy="499.4544042463976" r="2.5" fill="grey" stroke="none" />
<path d="M481.6955954278359,499.45440424639753 A18.31253399908958,18.31253399908958,0,0,1,481.794104,498.026614" stroke="grey" stroke-width="5" fill="none" />
<circle cx="433.794104" cy="498.026614" r="5" fill="black" stroke="none" />
<circle cx="481.794104" cy="498.026614" r="5" fill="black" stroke="none" />
<path d="M529.7941040000001,442.026614 L513.648601708697,473.44254234936705" stroke="grey" stroke-width="5" />
<circle cx="513.648601708697" cy="473.44254234936705" r="2.5" fill="grey" stroke="none" />
<path d="M513.6486017086971,473.44254234936705 A29.859385215838124,29.859385215838124,0,0,1,529.7941040000001,498.026614" stroke="grey" stroke-width="5" fill="none" />
<circle cx="529.7941040000001" cy="442.026614" r="5" fill="black" stroke="none" />
<circle cx="529.7941040000001" cy="498.026614" r="5" fill="black" stroke="none" />
<path d="M505.794104,466.026614 L505.0199839109848,470.56562134168166" stroke="grey" stroke-width="5" />
<circle cx="505.0199839109848" cy="470.56562134168166" r="2.5" fill="grey" stroke="none" />
<path d="M505.0199839109848,470.56562134168166 A29.859385215838124,29.859385215838124,0,0,1,529.7941040000001,498.026614" stroke="grey" stroke-width="5" fill="none" />
<circle cx="505.794104" cy="466.026614" r="5" fill="black" stroke="none" />
<circle cx="529.7941040000001" cy="498.026614" r="5" fill="black" stroke="none" />
<path d="M481.794104,498.026614 A18.31253399908958,18.31253399908958,0,0,1,518.2724975256024,498.7897373654177" stroke="grey" stroke-width="5" fill="none" />
<path d="M518.2724975256024,498.7897373654177 L529.7941040000001,498.026614" stroke="grey" stroke-width="5" />
<circle cx="518.2724975256024" cy="498.7897373654177" r="2.5" fill="grey" stroke="none" />
<circle cx="481.794104" cy="498.026614" r="5" fill="black" stroke="none" />
<circle cx="529.7941040000001" cy="498.026614" r="5" fill="black" stroke="none" />
<path d="M481.794104,546.026614 L489.01706535019423,527.7661310222708" stroke="grey" stroke-width="5" />
<circle cx="489.01706535019423" cy="527.7661310222708" r="2.5" fill="grey" stroke="none" />
<path d="M489.01706535019423,527.7661310222708 A29.859385215838124,29.859385215838124,0,0,0,529.7941040000001,498.026614" stroke="grey" stroke-width="5" fill="none" />
<circle cx="481.794104" cy="546.026614" r="5" fill="black" stroke="none" />
<circle cx="529.7941040000001" cy="498.026614" r="5" fill="black" stroke="none" />
<path d="M529.7941040000001,498.026614 A29.859385215838124,29.859385215838124,0,0,1,511.6901164247552,527.4758814861958" stroke="grey" stroke-width="5" fill="none" />
<path d="M511.6901164247552,527.4758814861958 L529.7941040000001,570.026614" stroke="grey" stroke-width="5" />
<circle cx="511.6901164247552" cy="527.4758814861958" r="2.5" fill="grey" stroke="none" />
<circle cx="529.7941040000001" cy="498.026614" r="5" fill="black" stroke="none" />
<circle cx="529.7941040000001" cy="570.026614" r="5" fill="black" stroke="none" />
<path d="M529.7941040000001,570.026614 A76.10134888073806,76.10134888073806,0,0,1,486.6314474793543,574.9179358029207" stroke="grey" stroke-width="5" fill="none" />
<path d="M486.6314474793543,574.9179358029207 L481.794104,602.026614" stroke="grey" stroke-width="5" />
<circle cx="486.6314474793543" cy="574.9179358029207" r="2.5" fill="grey" stroke="none" />
<circle cx="529.7941040000001" cy="570.026614" r="5" fill="black" stroke="none" />
<circle cx="481.794104" cy="602.026614" r="5" fill="black" stroke="none" />
<path d="M529.7941040000001,442.026614 A65.1813019006817,65.1813019006817,0,0,1,541.5109181808482,449.7461863213274" stroke="grey" stroke-width="5" fill="none" />
<path d="M541.5109181808482,449.7461863213274 L633.7941040000001,338.026614" stroke="grey" stroke-width="5" />
<circle cx="541.5109181808482" cy="449.7461863213274" r="2.5" fill="grey" stroke="none" />
<circle cx="529.7941040000001" cy="442.026614" r="5" fill="black" stroke="none" />
<circle cx="633.7941040000001" cy="338.026614" r="5" fill="black" stroke="none" />
<path d="M529.7941040000001,442.026614 A65.1813019006817,65.1813019006817,0,0,1,563.7211366184125,486.2807119162319" stroke="grey" stroke-width="5" fill="none" />
<path d="M563.7211366184125,486.2807119162319 L657.7941040000001,466.026614" stroke="grey" stroke-width="5" />
<circle cx="563.7211366184125" cy="486.2807119162319" r="2.5" fill="grey" stroke="none" />
<circle cx="529.7941040000001" cy="442.026614" r="5" fill="black" stroke="none" />
<circle cx="657.7941040000001" cy="466.026614" r="5" fill="black" stroke="none" />
<path d="M657.7941040000001,466.026614 A161.4099445928528,161.4099445928528,0,0,1,659.8898656215388,477.9002016978867" stroke="grey" stroke-width="5" fill="none" />
<path d="M659.8898656215388,477.9002016978867 L745.7941040000001,466.026614" stroke="grey" stroke-width="5" />
<circle cx="659.8898656215388" cy="477.9002016978867" r="2.5" fill="grey" stroke="none" />
<circle cx="657.7941040000001" cy="466.026614" r="5" fill="black" stroke="none" />
<circle cx="745.7941040000001" cy="466.026614" r="5" fill="black" stroke="none" />
<path d="M529.7941040000001,498.026614 A29.859385215838124,29.859385215838124,0,0,1,520.2082777170856,521.9820016644744" stroke="grey" stroke-width="5" fill="none" />
<path d="M520.2082777170856,521.9820016644744 L593.7941040000001,602.026614" stroke="grey" stroke-width="5" />
<circle cx="520.2082777170856" cy="521.9820016644744" r="2.5" fill="grey" stroke="none" />
<circle cx="529.7941040000001" cy="498.026614" r="5" fill="black" stroke="none" />
<circle cx="593.7941040000001" cy="602.026614" r="5" fill="black" stroke="none" />
<circle cx="500" cy="500" r="5" fill="red" stroke="none" />
</svg>