<?xml version="1.0" encoding="UTF-8"?>
<svg xmlns="http://www.w3.org/2000/svg" xmlns:xlink="http://www.w3.org/1999/xlink"
     width="1000" height="1000" viewBox="0 0 1000 1000">
<defs>
</defs>
<rect x="0" y="0" width="1000" height="1000" fill="white" />
<path d="M249.07272799999998,704.756398 L359.8813543726877,614.336671907416" stroke="grey" stroke-width="5" />
<circle cx="359.8813543726877" cy="614.336671907416" r="2.5" fill="grey" stroke="none" />
<path d="M359.8813543726877,614.336671907416 A180.84830492790468,180.84830492790468,0,0,0,369.072728,624.756398" stroke="grey" stroke-width="5" fill="none" />
<circle cx="249.07272799999998" cy="704.756398" r="5" fill="black" stroke="none" />
<circle cx="369.072728" cy="624.756398" r="5" fill="black" stroke="none" />
<path d="M369.072728,624.756398 L392.9383236411172,602.0156374019308" stroke="grey" stroke-width="5" />
<circle cx="392.9383236411172" cy="602.0156374019308" r="2.5" fill="grey" stroke="none" />
<path d="M392.9383236411172,602.0156374019308 A147.8830376320976,147.8830376320976,0,0,1,369.072728,568.756398" stroke="grey" stroke-width="5" fill="none" />
<circle cx="369.072728" cy="624.756398" r="5" fill="black" stroke="none" />
<circle cx="369.072728" cy="568.756398" r="5" fill="black" stroke="none" />
<path d="M369.072728,568.756398 A147.8830376320976,147.8830376320976,0,0,1,358.0706603151842,541.5386007940635" stroke="grey" stroke-width="5" fill="none" />
<path d="M358.0706603151842,541.5386007940635 L-234.92727200000002,68.75639799999999" stroke="grey" stroke-width="5" />
<circle cx="358.0706603151842" cy="541.5386007940635" r="2.5" fill="grey" stroke="none" />
<circle cx="369.072728" cy="568.756398" r="5" fill="black" stroke="none" />
<circle cx="265.072728" cy="568.756398" r="5" fill="black" stroke="none" />
<path d="M265.072728,568.756398 L309.88717415800915,555.6405095381886" stroke="grey" stroke-width="5" />
<circle cx="309.88717415800915" cy="555.6405095381886" r="2.5" fill="grey" stroke="none" />
<path d="M309.8871741580091,555.6405095381884 A198.08774028519886,198.08774028519886,0,0,1,305.072728,464.7563979999999" stroke="grey" stroke-width="5" fill="none" />
<circle cx="265.072728" cy="568.756398" r="5" fill="black" stroke="none" />
<circle cx="305.072728" cy="464.756398" r="5" fill="black" stroke="none" />
<path d="M305.072728,464.756398 L353.82402277211617,473.5708199754593" stroke="grey" stroke-width="5" />
<circle cx="353.82402277211617" cy="473.5708199754593" r="2.5" fill="grey" stroke="none" />
<path d="M353.82402277211617,473.57081997545924 A148.54601265364343,148.54601265364343,0,0,1,417.072728,376.756398" stroke="grey" stroke-width="5" fill="none" />
<circle cx="305.072728" cy="464.756398" r="5" fill="black" stroke="none" />
<circle cx="417.072728" cy="376.756398" r="5" fill="black" stroke="none" />
<path d="M417.072728,376.756398 L441.26531659760326,412.71057433505126" stroke="grey" stroke-width="5" />
<circle cx="441.26531659760326" cy="412.71057433505126" r="2.5" fill="grey" stroke="none" />
<path d="M441.26531659760326,412.71057433505126 A105.21029829487411,105.21029829487411,0,0,1,465.072728,400.756398" stroke="grey" stroke-width="5" fill="none" />
<circle cx="417.072728" cy="376.756398" r="5" fill="black" stroke="none" />
<circle cx="465.072728" cy="400.756398" r="5" fill="black" stroke="none" />
<path d="M465.072728,400.756398 A105.21029829487411,105.21029829487411,0,0,0,429.2379198778042,422.14157152834173" stroke="grey" stroke-width="5" fill="none" />
<path d="M429.2379198778042,422.14157152834173 L-82.92727200000002,-91.24360200000001" stroke="grey" stroke-width="5" />
<circle cx="429.2379198778042" cy="422.14157152834173" r="2.5" fill="grey" stroke="none" />
<circle cx="465.072728" cy="400.756398" r="5" fill="black" stroke="none" />
<circle cx="417.072728" cy="408.756398" r="5" fill="black" stroke="none" />
<path d="M417.072728,376.756398 L431.16783653146666,397.7040537482668" stroke="grey" stroke-width="5" />
<circle cx="431.16783653146666" cy="397.7040537482668" r="2.5" fill="grey" stroke="none" />
<path d="M431.16783653146666,397.7040537482668 A123.2977183377551,123.2977183377551,0,0,0,417.072728,408.756398" stroke="grey" stroke-width="5" fill="none" />
<circle cx="417.072728" cy="376.756398" r="5" fill="black" stroke="none" />
<circle cx="417.072728" cy="408.756398" r="5" fill="black" stroke="none" />
<path d="M417.072728,408.756398 A123.2977183377551,123.2977183377551,0,0,0,378.2230927620541,519.3057558996561" stroke="grey" stroke-width="5" fill="none" />
<path d="M378.2230927620541,519.3057558996561 L-130.92727200000002,20.75639799999999" stroke="grey" stroke-width="5" />
<circle cx="378.2230927620541" cy="519.3057558996561" r="2.5" fill="grey" stroke="none" />
<circle cx="417.072728" cy="408.756398" r="5" fill="black" stroke="none" />
<circle cx="369.072728" cy="520.756398" r="5" fill="black" stroke="none" />
<path d="M305.072728,464.756398 L369.55266050599187,476.41461829371053" stroke="grey" stroke-width="5" />
<circle cx="369.55266050599187" cy="476.41461829371053" r="2.5" fill="grey" stroke="none" />
<path d="M369.55266050599187,476.4146182937105 A132.56235744469993,132.56235744469993,0,0,0,369.072728,520.756398" stroke="grey" stroke-width="5" fill="none" />
<circle cx="305.072728" cy="464.756398" r="5" fill="black" stroke="none" />
<circle cx="369.072728" cy="520.756398" r="5" fill="black" stroke="none" />
<path d="M369.072728,520.756398 A132.56235744469993,132.56235744469993,0,0,0,382.6367911558481,561.6332363347923" stroke="grey" stroke-width="5" fill="none" />
<path d="M382.636791155848,561.6332363347923 L-130.92727200000002,68.75639799999999" stroke="grey" stroke-width="5" />
<circle cx="382.636791155848" cy="561.6332363347923" r="2.5" fill="grey" stroke="none" />
<circle cx="369.072728" cy="520.756398" r="5" fill="black" stroke="none" />
<circle cx="369.072728" cy="568.756398" r="5" fill="black" stroke="none" />
<path d="M465.072728,400.756398 A105.21029829487411,105.21029829487411,0,0,1,503.8303333733202,394.85944924271314" stroke="grey" stroke-width="5" fill="none" />
<path d="M503.8303333733202,394.85944924271314 L5.072727999999984,-139.243602" stroke="grey" stroke-width="5" />
<circle cx="503.8303333733202" cy="394.85944924271314" r="2.5" fill="grey" stroke="none" />
<circle cx="465.072728" cy="400.756398" r="5" fill="black" stroke="none" />
<circle cx="505.072728" cy="360.756398" r="5" fill="black" stroke="none" />
<path d="M465.072728,400.756398 L487.5210317849248,464.54181262975317" stroke="grey" stroke-width="5" />
<circle cx="487.5210317849248" cy="464.54181262975317" r="2.5" fill="grey" stroke="none" />
<path d="M487.5210317849248,464.54181262975317 A37.589994670076614,37.589994670076614,0,0,1,513.072728,464.756398" stroke="grey" stroke-width="5" fill="none" />
<circle cx="465.072728" cy="400.756398" r="5" fill="black" stroke="none" />
<circle cx="513.072728" cy="464.756398" r="5" fill="black" stroke="none" />
<path d="M417.072728,408.756398 L466.6275078288765,463.28076011700824" stroke="grey" stroke-width="5" />
<circle cx="466.6275078288765" cy="463.28076011700824" r="2.5" fill="grey" stroke="none" />
<path d="M466.6275078288765,463.28076011700824 A49.61880501681183,49.61880501681183,0,0,0,465.072728,464.756398" stroke="grey" stroke-width="5" fill="none" />
<circle cx="417.072728" cy="408.756398" r="5" fill="black" stroke="none" />
<circle cx="465.072728" cy="464.756398" r="5" fill="black" stroke="none" />
<path d="M369.072728,520.756398 L415.56897669225157,513.385170992663" stroke="grey" stroke-width="5" />
<circle cx="415.56897669225157" cy="513.385170992663" r="2.5" fill="grey" stroke="none" />
<path d="M415.56897669225157,513.385170992663 A85.48544027667162,85.48544027667162,0,0,0,417.072728,520.756398" stroke="grey" stroke-width="5" fill="none" />
<circle cx="369.072728" cy="520.756398" r="5" fill="black" stroke="none" />
<circle cx="417.072728" cy="520.756398" r="5" fill="black" stroke="none" />
<path d="M369.072728,568.756398 L431.7231076563356,535.8555793034787" stroke="grey" stroke-width="5" />
<circle cx="431.7231076563356" cy="535.8555793034787" r="2.5" fill="grey" stroke="none" />
<path d="M431.7231076563356,535.8555793034789 A77.11910655146615,77.11910655146615,0,0,0,465.072728,568.756398" stroke="grey" stroke-width="5" fill="none" />
<circle cx="369.072728" cy="568.756398" r="5" fill="black" stroke="none" />
<circle cx="465.072728" cy="568.756398" r="5" fill="black" stroke="none" />
<path d="M369.072728,624.756398 L406.2083105924344,589.3710924705026" stroke="grey" stroke-width="5" />
<circle cx="406.2083105924344" cy="589.3710924705026" r="2.5" fill="grey" stroke="none" />
<path d="M406.2083105924344,589.3710924705026 A129.55336032421692,129.55336032421692,0,0,0,465.072728,624.756398" stroke="grey" stroke-width="5" fill="none" />
<circle cx="369.072728" cy="624.756398" r="5" fill="black" stroke="none" />
<circle cx="465.072728" cy="624.756398" r="5" fill="black" stroke="none" />
<path d="M513.072728,464.756398 A37.589994670076614,37.589994670076614,0,0,0,473.53995188164095,473.300308000456" stroke="grey" stroke-width="5" fill="none" />
<path d="M473.53995188164095,473.300308000456 L-34.927272000000016,-35.24360200000001" stroke="grey" stroke-width="5" />
<circle cx="473.53995188164095" cy="473.300308000456" r="2.5" fill="grey" stroke="none" />
<circle cx="513.072728" cy="464.756398" r="5" fill="black" stroke="none" />
<circle cx="465.072728" cy="464.756398" r="5" fill="black" stroke="none" />
<path d="M465.072728,464.756398 A49.61880501681183,49.61880501681183,0,0,0,451.8660472868032,512.0477552888547" stroke="grey" stroke-width="5" fill="none" />
<path d="M451.8660472868032,512.0477552888547 L-82.92727200000002,20.75639799999999" stroke="grey" stroke-width="5" />
<circle cx="451.8660472868032" cy="512.0477552888547" r="2.5" fill="grey" stroke="none" />
<circle cx="465.072728" cy="464.756398" r="5" fill="black" stroke="none" />
<circle cx="417.072728" cy="520.756398" r="5" fill="black" stroke="none" />
<path d="M417.072728,520.756398 L425.18869757595854,518.7249999977302" stroke="grey" stroke-width="5" />
<circle cx="425.18869757595854" cy="518.7249999977302" r="2.5" fill="grey" stroke="none" />
<path d="M425.18869757595854,518.7249999977302 A77.11910655146615,77.11910655146615,0,0,0,465.072728,568.756398" stroke="grey" stroke-width="5" fill="none" />
<circle cx="417.072728" cy="520.756398" r="5" fill="black" stroke="none" />
<circle cx="465.072728" cy="568.756398" r="5" fill="black" stroke="none" />
<path d="M465.072728,568.756398 A77.11910655146615,77.11910655146615,0,0,0,479.2088757545215,574.2636233152239" stroke="grey" stroke-width="5" fill="none" />
<path d="M479.2088757545215,574.2636233152239 L-34.927272000000016,124.75639799999999" stroke="grey" stroke-width="5" />
<circle cx="479.2088757545215" cy="574.2636233152239" r="2.5" fill="grey" stroke="none" />
<circle cx="465.072728" cy="568.756398" r="5" fill="black" stroke="none" />
<circle cx="465.072728" cy="624.756398" r="5" fill="black" stroke="none" />
<path d="M465.072728,624.756398 A129.55336032421692,129.55336032421692,0,0,0,523.081362232657,627.4806804530838" stroke="grey" stroke-width="5" fill="none" />
<path d="M523.081362232657,627.4806804530838 L37.072727999999984,204.756398" stroke="grey" stroke-width="5" />
<circle cx="523.081362232657" cy="627.4806804530838" r="2.5" fill="grey" stroke="none" />
<circle cx="465.072728" cy="624.756398" r="5" fill="black" stroke="none" />
<circle cx="537.072728" cy="704.756398" r="5" fill="black" stroke="none" />
<path d="M513.072728,464.756398 L505.45262935346335,485.2999084210289" stroke="grey" stroke-width="5" />
<circle cx="505.45262935346335" cy="485.2999084210289" r="2.5" fill="grey" stroke="none" />
<path d="M505.45262935346335,485.2999084210289 A15.67877097531527,15.67877097531527,0,0,0,489.072728,488.756398" stroke="grey" stroke-width="5" fill="none" />
<circle cx="513.072728" cy="464.756398" r="5" fill="black" stroke="none" />
<circle cx="489.072728" cy="488.756398" r="5" fill="black" stroke="none" />
<path d="M489.072728,488.756398 A15.67877097531527,15.67877097531527,0,0,0,486.52164064931213,508.0098494686301" stroke="grey" stroke-width="5" fill="none" />
<path d="M486.52164064931213,508.0098494686301 L-34.927272000000016,20.75639799999999" stroke="grey" stroke-width="5" />
<circle cx="486.52164064931213" cy="508.0098494686301" r="2.5" fill="grey" stroke="none" />
<circle cx="489.072728" cy="488.756398" r="5" fill="black" stroke="none" />
<circle cx="465.072728" cy="520.756398" r="5" fill="black" stroke="none" />
<path d="M465.072728,520.756398 A40.629329151444146,40.629329151444146,0,0,0,481.59896173715407,536.2235307244569" stroke="grey" stroke-width="5" fill="none" />
<path d="M481.59896173715407,536.2235307244569 L-34.927272000000016,68.75639799999999" stroke="grey" stroke-width="5" />
<circle cx="481.59896173715407" cy="536.2235307244569" r="2.5" fill="grey" stroke="none" />
<circle cx="465.072728" cy="520.756398" r="5" fill="black" stroke="none" />
<circle cx="465.072728" cy="568.756398" r="5" fill="black" stroke="none" />
<path d="M465.072728,464.756398 L488.9635250527497,488.8635696906457" stroke="grey" stroke-width="5" />
<circle cx="488.9635250527497" cy="488.8635696906457" r="2.5" fill="grey" stroke="none" />
<path d="M488.9635250527497,488.8635696906457 A15.67877097531527,15.67877097531527,0,0,1,489.072728,488.756398" stroke="grey" stroke-width="5" fill="none" />
<circle cx="465.072728" cy="464.756398" r="5" fill="black" stroke="none" />
<circle cx="489.072728" cy="488.756398" r="5" fill="black" stroke="none" />
<path d="M417.072728,520.756398 L460.58651135427573,509.8650544889398" stroke="grey" stroke-width="5" />
<circle cx="460.58651135427573" cy="509.8650544889398" r="2.5" fill="grey" stroke="none" />
<path d="M460.58651135427573,509.8650544889398 A40.629329151444146,40.629329151444146,0,0,0,465.072728,520.756398" stroke="grey" stroke-width="5" fill="none" />
<circle cx="417.072728" cy="520.756398" r="5" fill="black" stroke="none" />
<circle cx="465.072728" cy="520.756398" r="5" fill="black" stroke="none" />
<path d="M513.072728,464.756398 L508.53085827887264,477.0011145417397" stroke="grey" stroke-width="5" />
<circle cx="508.53085827887264" cy="477.0011145417397" r="2.5" fill="grey" stroke="none" />
<path d="M508.53085827887264,477.0011145417397 A24.530068799259148,24.530068799259148,0,0,1,513.072728,520.756398" stroke="grey" stroke-width="5" fill="none" />
<circle cx="513.072728" cy="464.756398" r="5" fill="black" stroke="none" />
<circle cx="513.072728" cy="520.756398" r="5" fill="black" stroke="none" />
<path d="M489.072728,488.756398 A15.67877097531527,15.67877097531527,0,0,0,508.35563528222883,513.2667712095581" stroke="grey" stroke-width="5" fill="none" />
<path d="M508.35563528222883,513.2667712095581 L13.072727999999984,20.75639799999999" stroke="grey" stroke-width="5" />
<circle cx="508.35563528222883" cy="513.2667712095581" r="2.5" fill="grey" stroke="none" />
<circle cx="489.072728" cy="488.756398" r="5" fill="black" stroke="none" />
<circle cx="513.072728" cy="520.756398" r="5" fill="black" stroke="none" />
<path d="M465.072728,520.756398 L478.91256382952156,512.5317321648838" stroke="grey" stroke-width="5" />
<circle cx="478.91256382952156" cy="512.5317321648838" r="2.5" fill="grey" stroke="none" />
<path d="M478.91256382952156,512.5317321648838 A24.530068799259148,24.530068799259148,0,0,0,513.072728,520.756398" stroke="grey" stroke-width="5" fill="none" />
<circle cx="465.072728" cy="520.756398" r="5" fill="black" stroke="none" />
<circle cx="513.072728" cy="520.756398" r="5" fill="black" stroke="none" />
<path d="M465.072728,568.756398 L488.89032273009195,521.870055927109" stroke="grey" stroke-width="5" />
<circle cx="488.89032273009195" cy="521.870055927109" r="2.5" fill="grey" stroke="none" />
<path d="M488.89032273009195,521.870055927109 A24.530068799259148,24.530068799259148,0,0,0,513.072728,520.756398" stroke="grey" stroke-width="5" fill="none" />
<circle cx="465.072728" cy="568.756398" r="5" fill="black" stroke="none" />
<circle cx="513.072728" cy="520.756398" r="5" fill="black" stroke="none" />
<path d="M513.072728,520.756398 A24.530068799259148,24.530068799259148,0,0,1,503.42334129776543,524.2900187248878" stroke="grey" stroke-width="5" fill="none" />
<path d="M503.42334129776543,524.2900187248878 L13.072727999999984,92.75639799999999" stroke="grey" stroke-width="5" />
<circle cx="503.42334129776543" cy="524.2900187248878" r="2.5" fill="grey" stroke="none" />
<circle cx="513.072728" cy="520.756398" r="5" fill="black" stroke="none" />
<circle cx="513.072728" cy="592.756398" r="5" fill="black" stroke="none" />
<path d="M513.072728,592.756398 A93.67307824181069,93.67307824181069,0,0,1,474.745965101629,590.2046523669829" stroke="grey" stroke-width="5" fill="none" />
<path d="M474.745965101629,590.2046523669829 L-34.927272000000016,124.75639799999999" stroke="grey" stroke-width="5" />
<circle cx="474.745965101629" cy="590.2046523669829" r="2.5" fill="grey" stroke="none" />
<circle cx="513.072728" cy="592.756398" r="5" fill="black" stroke="none" />
<circle cx="465.072728" cy="624.756398" r="5" fill="black" stroke="none" />
<path d="M513.072728,464.756398 A37.589994670076614,37.589994670076614,0,0,1,524.1906809450098,471.22816212486373" stroke="grey" stroke-width="5" fill="none" />
<path d="M524.1906809450098,471.22816212486373 L117.07272799999998,-139.243602" stroke="grey" stroke-width="5" />
<circle cx="524.1906809450098" cy="471.22816212486373" r="2.5" fill="grey" stroke="none" />
<circle cx="513.072728" cy="464.756398" r="5" fill="black" stroke="none" />
<circle cx="617.072728" cy="360.756398" r="5" fill="black" stroke="none" />
<path d="M513.072728,464.756398 A37.589994670076614,37.589994670076614,0,0,1,537.4711707105845,497.01351965105636" stroke="grey" stroke-width="5" fill="none" />
<path d="M537.4711707105845,497.01351965105636 L141.07272799999998,-11.24360200000001" stroke="grey" stroke-width="5" />
<circle cx="537.4711707105845" cy="497.01351965105636" r="2.5" fill="grey" stroke="none" />
<circle cx="513.072728" cy="464.756398" r="5" fill="black" stroke="none" />
<circle cx="641.072728" cy="488.756398" r="5" fill="black" stroke="none" />
<path d="M641.072728,488.756398 A141.52008045255056,141.52008045255056,0,0,1,641.3499161814183,493.0621064578354" stroke="grey" stroke-width="5" fill="none" />
<path d="M641.3499161814183,493.0621064578354 L229.07272799999998,-11.24360200000001" stroke="grey" stroke-width="5" />
<circle cx="641.3499161814183" cy="493.0621064578354" r="2.5" fill="grey" stroke="none" />
<circle cx="641.072728" cy="488.756398" r="5" fill="black" stroke="none" />
<circle cx="729.072728" cy="488.756398" r="5" fill="black" stroke="none" />
<path d="M513.072728,520.756398 A24.530068799259148,24.530068799259148,0,0,1,512.8924719045677,520.8688390545885" stroke="grey" stroke-width="5" fill="none" />
<path d="M512.8924719045677,520.8688390545885 L77.07272799999998,124.75639799999999" stroke="grey" stroke-width="5" />
<circle cx="512.8924719045677" cy="520.8688390545885" r="2.5" fill="grey" stroke="none" />
<circle cx="513.072728" cy="520.756398" r="5" fill="black" stroke="none" />
<circle cx="577.072728" cy="624.756398" r="5" fill="black" stroke="none" />
<circle cx="500" cy="500" r="5" fill="red" stroke="none" />
</svg>