<?xml version="1.0" encoding="UTF-8"?>
<svg xmlns="http://www.w3.org/2000/svg" xmlns:xlink="http://www.w3.org/1999/xlink"
     width="1000" height="1000" viewBox="0 0 1000 1000">
<defs>
</defs>
<rect x="0" y="0" width="1000" height="1000" fill="white" />
<path d="M282.02112800000003,662.2732980000001 L397.3746658012742,576.3989247489061" stroke="grey" stroke-width="5" />
<circle cx="397.3746658012742" cy="576.3989247489061" r="2.5" fill="grey" stroke="none" />
<path d="M397.3746658012742,576.3989247489061 A127.9404350554944,127.9404350554944,0,0,0,402.0211280000001,582.2732980000001" stroke="grey" stroke-width="5" fill="none" />
<circle cx="282.02112800000003" cy="662.2732980000001" r="5" fill="black" stroke="none" />
<circle cx="402.02112800000003" cy="582.2732980000001" r="5" fill="black" stroke="none" />
<path d="M402.02112800000003,582.2732980000001 L422.3153218370525,565.2321724681038" stroke="grey" stroke-width="5" />
<circle cx="422.3153218370525" cy="565.2321724681038" r="2.5" fill="grey" stroke="none" />
<path d="M422.3153218370525,565.232172468104 A101.44035462373533,101.44035462373533,0,0,1,402.02112800000003,526.2732980000001" stroke="grey" stroke-width="5" fill="none" />
<circle cx="402.02112800000003" cy="582.2732980000001" r="5" fill="black" stroke="none" />
<circle cx="402.02112800000003" cy="526.2732980000001" r="5" fill="black" stroke="none" />
<path d="M402.02112800000003,526.2732980000001 A101.44035462373533,101.44035462373533,0,0,1,399.4071243613222,513.0850646513757" stroke="grey" stroke-width="5" fill="none" />
<path d="M399.4071243613222,513.0850646513757 L298.02112800000003,526.2732980000001" stroke="grey" stroke-width="5" />
<circle cx="399.4071243613222" cy="513.0850646513757" r="2.5" fill="grey" stroke="none" />
<circle cx="402.02112800000003" cy="526.2732980000001" r="5" fill="black" stroke="none" />
<circle cx="298.02112800000003" cy="526.2732980000001" r="5" fill="black" stroke="none" />
<path d="M298.02112800000003,526.2732980000001 L321.83853414593557,523.1751432125072" stroke="grey" stroke-width="5" />
<circle cx="321.83853414593557" cy="523.1751432125072" r="2.5" fill="grey" stroke="none" />
<path d="M321.83853414593557,523.1751432125072 A179.66244787987605,179.66244787987605,0,0,1,338.021128,422.273298" stroke="grey" stroke-width="5" fill="none" />
<circle cx="298.02112800000003" cy="526.2732980000001" r="5" fill="black" stroke="none" />
<circle cx="338.02112800000003" cy="422.273298" r="5" fill="black" stroke="none" />
<path d="M338.02112800000003,422.273298 L343.9386523731435,425.11286372761583" stroke="grey" stroke-width="5" />
<circle cx="343.9386523731435" cy="425.11286372761583" r="2.5" fill="grey" stroke="none" />
<path d="M343.9386523731435,425.11286372761583 A173.09889486125897,173.09889486125897,0,0,1,450.021128,334.273298" stroke="grey" stroke-width="5" fill="none" />
<circle cx="338.02112800000003" cy="422.273298" r="5" fill="black" stroke="none" />
<circle cx="450.02112800000003" cy="334.273298" r="5" fill="black" stroke="none" />
<path d="M450.02112800000003,334.273298 L459.07523769633184,364.29613924218125" stroke="grey" stroke-width="5" />
<circle cx="459.07523769633184" cy="364.29613924218125" r="2.5" fill="grey" stroke="none" />
<path d="M459.07523769633184,364.2961392421813 A141.74051641711057,141.74051641711057,0,0,1,498.02112800000003,358.27329799999995" stroke="grey" stroke-width="5" fill="none" />
<circle cx="450.02112800000003" cy="334.273298" r="5" fill="black" stroke="none" />
<circle cx="498.02112800000003" cy="358.273298" r="5" fill="black" stroke="none" />
<path d="M498.02112800000003,358.27329799999995 A141.74051641711057,141.74051641711057,0,0,0,450.37840545418305,367.22925266113873" stroke="grey" stroke-width="5" fill="none" />
<path d="M450.37840545418305,367.22925266113873 L450.02112800000003,366.273298" stroke="grey" stroke-width="5" />
<circle cx="450.37840545418305" cy="367.22925266113873" r="2.5" fill="grey" stroke="none" />
<circle cx="498.02112800000003" cy="358.273298" r="5" fill="black" stroke="none" />
<circle cx="450.02112800000003" cy="366.273298" r="5" fill="black" stroke="none" />
<path d="M450.02112800000003,334.273298 L458.7805777801657,363.319066047776" stroke="grey" stroke-width="5" />
<circle cx="458.7805777801657" cy="363.319066047776" r="2.5" fill="grey" stroke="none" />
<path d="M458.7805777801657,363.319066047776 A142.7610537723408,142.7610537723408,0,0,0,450.021128,366.27329800000007" stroke="grey" stroke-width="5" fill="none" />
<circle cx="450.02112800000003" cy="334.273298" r="5" fill="black" stroke="none" />
<circle cx="450.02112800000003" cy="366.273298" r="5" fill="black" stroke="none" />
<path d="M450.02112800000003,366.273298 L464.8655952254641,405.9921144832613" stroke="grey" stroke-width="5" />
<circle cx="464.8655952254641" cy="405.9921144832613" r="2.5" fill="grey" stroke="none" />
<path d="M464.8655952254641,405.9921144832613 A100.35890064258965,100.35890064258965,0,0,0,402.02112800000003,478.273298" stroke="grey" stroke-width="5" fill="none" />
<circle cx="450.02112800000003" cy="366.273298" r="5" fill="black" stroke="none" />
<circle cx="402.02112800000003" cy="478.273298" r="5" fill="black" stroke="none" />
<path d="M338.02112800000003,422.273298 L409.519091423514,456.58209906774897" stroke="grey" stroke-width="5" />
<circle cx="409.519091423514" cy="456.58209906774897" r="2.5" fill="grey" stroke="none" />
<path d="M409.519091423514,456.58209906774897 A100.35890064258965,100.35890064258965,0,0,0,402.02112800000003,478.273298" stroke="grey" stroke-width="5" fill="none" />
<circle cx="338.02112800000003" cy="422.273298" r="5" fill="black" stroke="none" />
<circle cx="402.02112800000003" cy="478.273298" r="5" fill="black" stroke="none" />
<path d="M402.02112800000003,478.273298 A100.35890064258965,100.35890064258965,0,0,0,403.0656791708392,525.993198794656" stroke="grey" stroke-width="5" fill="none" />
<path d="M403.0656791708392,525.993198794656 L402.02112800000003,526.2732980000001" stroke="grey" stroke-width="5" />
<circle cx="403.0656791708392" cy="525.993198794656" r="2.5" fill="grey" stroke="none" />
<circle cx="402.02112800000003" cy="478.273298" r="5" fill="black" stroke="none" />
<circle cx="402.02112800000003" cy="526.2732980000001" r="5" fill="black" stroke="none" />
<path d="M498.02112800000003,358.27329799999995 A141.74051641711057,141.74051641711057,0,0,1,529.0266625380846,361.26346243296484" stroke="grey" stroke-width="5" fill="none" />
<path d="M529.0266625380846,361.26346243296484 L538.0211280000001,318.273298" stroke="grey" stroke-width="5" />
<circle cx="529.0266625380846" cy="361.26346243296484" r="2.5" fill="grey" stroke="none" />
<circle cx="498.02112800000003" cy="358.273298" r="5" fill="black" stroke="none" />
<circle cx="538.0211280000001" cy="318.273298" r="5" fill="black" stroke="none" />
<path d="M498.02112800000003,358.273298 L498.7388916814996,409.6794927383698" stroke="grey" stroke-width="5" />
<circle cx="498.7388916814996" cy="409.6794927383698" r="2.5" fill="grey" stroke="none" />
<path d="M498.7388916814996,409.6794927383698 A90.32931100251562,90.32931100251562,0,0,1,546.0211280000001,422.273298" stroke="grey" stroke-width="5" fill="none" />
<circle cx="498.02112800000003" cy="358.273298" r="5" fill="black" stroke="none" />
<circle cx="546.0211280000001" cy="422.273298" r="5" fill="black" stroke="none" />
<path d="M450.02112800000003,366.273298 L472.7800294849465,427.1684866053931" stroke="grey" stroke-width="5" />
<circle cx="472.7800294849465" cy="427.1684866053931" r="2.5" fill="grey" stroke="none" />
<path d="M472.7800294849465,427.1684866053931 A77.75188832555249,77.75188832555249,0,0,1,498.02112800000003,422.273298" stroke="grey" stroke-width="5" fill="none" />
<circle cx="450.02112800000003" cy="366.273298" r="5" fill="black" stroke="none" />
<circle cx="498.02112800000003" cy="422.273298" r="5" fill="black" stroke="none" />
<path d="M402.02112800000003,478.273298 L446.79527841023975,488.20191427623615" stroke="grey" stroke-width="5" />
<circle cx="446.79527841023975" cy="488.20191427623615" r="2.5" fill="grey" stroke="none" />
<path d="M446.79527841023975,488.20191427623615 A54.49713043995238,54.49713043995238,0,0,1,450.02112800000003,478.273298" stroke="grey" stroke-width="5" fill="none" />
<circle cx="402.02112800000003" cy="478.273298" r="5" fill="black" stroke="none" />
<circle cx="450.02112800000003" cy="478.273298" r="5" fill="black" stroke="none" />
<path d="M402.02112800000003,526.2732980000001 L474.5513560864475,506.8241222989039" stroke="grey" stroke-width="5" />
<circle cx="474.5513560864475" cy="506.8241222989039" r="2.5" fill="grey" stroke="none" />
<path d="M474.5513560864475,506.8241222989039 A26.34771569205172,26.34771569205172,0,0,0,498.02112800000003,526.2732980000001" stroke="grey" stroke-width="5" fill="none" />
<circle cx="402.02112800000003" cy="526.2732980000001" r="5" fill="black" stroke="none" />
<circle cx="498.02112800000003" cy="526.2732980000001" r="5" fill="black" stroke="none" />
<path d="M402.02112800000003,582.2732980000001 L436.97554391799554,552.9219182735914" stroke="grey" stroke-width="5" />
<circle cx="436.97554391799554" cy="552.9219182735914" r="2.5" fill="grey" stroke="none" />
<path d="M436.97554391799554,552.9219182735914 A82.29709289026673,82.29709289026673,0,0,0,498.02112800000003,582.2732980000001" stroke="grey" stroke-width="5" fill="none" />
<circle cx="402.02112800000003" cy="582.2732980000001" r="5" fill="black" stroke="none" />
<circle cx="498.02112800000003" cy="582.2732980000001" r="5" fill="black" stroke="none" />
<path d="M546.0211280000001,422.273298 L539.6131617208096,433.0959376669087" stroke="grey" stroke-width="5" />
<circle cx="539.6131617208096" cy="433.0959376669087" r="2.5" fill="grey" stroke="none" />
<path d="M539.6131617208096,433.0959376669087 A77.75188832555249,77.75188832555249,0,0,0,498.02112800000003,422.273298" stroke="grey" stroke-width="5" fill="none" />
<circle cx="546.0211280000001" cy="422.273298" r="5" fill="black" stroke="none" />
<circle cx="498.02112800000003" cy="422.273298" r="5" fill="black" stroke="none" />
<path d="M498.02112800000003,422.273298 L498.6129874421002,445.52052292511047" stroke="grey" stroke-width="5" />
<circle cx="498.6129874421002" cy="445.52052292511047" r="2.5" fill="grey" stroke="none" />
<path d="M498.6129874421002,445.52052292511047 A54.49713043995238,54.49713043995238,0,0,0,450.02112800000003,478.273298" stroke="grey" stroke-width="5" fill="none" />
<circle cx="498.02112800000003" cy="422.273298" r="5" fill="black" stroke="none" />
<circle cx="450.02112800000003" cy="478.273298" r="5" fill="black" stroke="none" />
<path d="M450.02112800000003,478.273298 L475.8367257241849,489.49579615292436" stroke="grey" stroke-width="5" />
<circle cx="475.8367257241849" cy="489.49579615292436" r="2.5" fill="grey" stroke="none" />
<path d="M475.8367257241849,489.49579615292436 A26.34771569205172,26.34771569205172,0,0,0,498.02112800000003,526.2732980000001" stroke="grey" stroke-width="5" fill="none" />
<circle cx="450.02112800000003" cy="478.273298" r="5" fill="black" stroke="none" />
<circle cx="498.02112800000003" cy="526.2732980000001" r="5" fill="black" stroke="none" />
<path d="M498.02112800000003,526.2732980000001 A26.34771569205172,26.34771569205172,0,0,0,499.36645688181864,526.3400976707869" stroke="grey" stroke-width="5" fill="none" />
<path d="M499.36645688181864,526.3400976707869 L498.02112800000003,582.2732980000001" stroke="grey" stroke-width="5" />
<circle cx="499.36645688181864" cy="526.3400976707869" r="2.5" fill="grey" stroke="none" />
<circle cx="498.02112800000003" cy="526.2732980000001" r="5" fill="black" stroke="none" />
<circle cx="498.02112800000003" cy="582.2732980000001" r="5" fill="black" stroke="none" />
<path d="M498.02112800000003,582.2732980000001 A82.29709289026673,82.29709289026673,0,0,0,532.605344892902,575.5625766011462" stroke="grey" stroke-width="5" fill="none" />
<path d="M532.605344892902,575.5625766011462 L570.0211280000001,662.2732980000001" stroke="grey" stroke-width="5" />
<circle cx="532.605344892902" cy="575.5625766011462" r="2.5" fill="grey" stroke="none" />
<circle cx="498.02112800000003" cy="582.2732980000001" r="5" fill="black" stroke="none" />
<circle cx="570.0211280000001" cy="662.2732980000001" r="5" fill="black" stroke="none" />
<path d="M546.0211280000001,422.273298 L529.5828089297007,450.0365533412875" stroke="grey" stroke-width="5" />
<circle cx="529.5828089297007" cy="450.0365533412875" r="2.5" fill="grey" stroke="none" />
<path d="M529.5828089297007,450.0365533412875 A58.06452089003394,58.06452089003394,0,0,0,522.021128,446.273298" stroke="grey" stroke-width="5" fill="none" />
<circle cx="546.0211280000001" cy="422.273298" r="5" fill="black" stroke="none" />
<circle cx="522.0211280000001" cy="446.273298" r="5" fill="black" stroke="none" />
<path d="M522.0211280000001,446.273298 L508.2740179373849,479.8132186478126" stroke="grey" stroke-width="5" />
<circle cx="508.2740179373849" cy="479.8132186478126" r="2.5" fill="grey" stroke="none" />
<path d="M508.2740179373849,479.8132186478126 A21.81663388768275,21.81663388768275,0,0,0,498.02112800000003,478.273298" stroke="grey" stroke-width="5" fill="none" />
<circle cx="522.0211280000001" cy="446.273298" r="5" fill="black" stroke="none" />
<circle cx="498.02112800000003" cy="478.273298" r="5" fill="black" stroke="none" />
<path d="M498.02112800000003,478.273298 A21.81663388768275,21.81663388768275,0,0,0,498.36143951000616,521.7550139901085" stroke="grey" stroke-width="5" fill="none" />
<path d="M498.36143951000616,521.7550139901085 L498.02112800000003,526.2732980000001" stroke="grey" stroke-width="5" />
<circle cx="498.36143951000616" cy="521.7550139901085" r="2.5" fill="grey" stroke="none" />
<circle cx="498.02112800000003" cy="478.273298" r="5" fill="black" stroke="none" />
<circle cx="498.02112800000003" cy="526.2732980000001" r="5" fill="black" stroke="none" />
<path d="M498.02112800000003,422.273298 L498.52219338903257,441.9542880669918" stroke="grey" stroke-width="5" />
<circle cx="498.52219338903257" cy="441.9542880669918" r="2.5" fill="grey" stroke="none" />
<path d="M498.52219338903257,441.9542880669918 A58.06452089003394,58.06452089003394,0,0,1,522.021128,446.273298" stroke="grey" stroke-width="5" fill="none" />
<circle cx="498.02112800000003" cy="422.273298" r="5" fill="black" stroke="none" />
<circle cx="522.0211280000001" cy="446.273298" r="5" fill="black" stroke="none" />
<path d="M450.02112800000003,478.273298 L479.9921437378289,491.30223005699236" stroke="grey" stroke-width="5" />
<circle cx="479.9921437378289" cy="491.30223005699236" r="2.5" fill="grey" stroke="none" />
<path d="M479.9921437378289,491.30223005699236 A21.81663388768275,21.81663388768275,0,0,1,498.02112800000003,478.273298" stroke="grey" stroke-width="5" fill="none" />
<circle cx="450.02112800000003" cy="478.273298" r="5" fill="black" stroke="none" />
<circle cx="498.02112800000003" cy="478.273298" r="5" fill="black" stroke="none" />
<path d="M546.0211280000001,422.273298 L525.9285317066367,456.20839069265526" stroke="grey" stroke-width="5" />
<circle cx="525.9285317066367" cy="456.20839069265526" r="2.5" fill="grey" stroke="none" />
<path d="M525.9285317066367,456.20839069265526 A50.89198170821402,50.89198170821402,0,0,1,546.021128,478.273298" stroke="grey" stroke-width="5" fill="none" />
<circle cx="546.0211280000001" cy="422.273298" r="5" fill="black" stroke="none" />
<circle cx="546.0211280000001" cy="478.273298" r="5" fill="black" stroke="none" />
<path d="M522.0211280000001,446.273298 L519.30092294213,452.90999919546454" stroke="grey" stroke-width="5" />
<circle cx="519.30092294213" cy="452.90999919546454" r="2.5" fill="grey" stroke="none" />
<path d="M519.30092294213,452.90999919546454 A50.89198170821402,50.89198170821402,0,0,1,546.021128,478.273298" stroke="grey" stroke-width="5" fill="none" />
<circle cx="522.0211280000001" cy="446.273298" r="5" fill="black" stroke="none" />
<circle cx="546.0211280000001" cy="478.273298" r="5" fill="black" stroke="none" />
<path d="M498.02112800000003,478.273298 A21.81663388768275,21.81663388768275,0,0,1,519.728571515071,490.68608674273185" stroke="grey" stroke-width="5" fill="none" />
<path d="M519.728571515071,490.68608674273185 L546.0211280000001,478.273298" stroke="grey" stroke-width="5" />
<circle cx="519.728571515071" cy="490.68608674273185" r="2.5" fill="grey" stroke="none" />
<circle cx="498.02112800000003" cy="478.273298" r="5" fill="black" stroke="none" />
<circle cx="546.0211280000001" cy="478.273298" r="5" fill="black" stroke="none" />
<path d="M498.02112800000003,526.2732980000001 A26.34771569205172,26.34771569205172,0,0,0,523.8259850701749,488.75168645418387" stroke="grey" stroke-width="5" fill="none" />
<path d="M523.8259850701749,488.75168645418387 L546.0211280000001,478.273298" stroke="grey" stroke-width="5" />
<circle cx="523.8259850701749" cy="488.75168645418387" r="2.5" fill="grey" stroke="none" />
<circle cx="498.02112800000003" cy="526.2732980000001" r="5" fill="black" stroke="none" />
<circle cx="546.0211280000001" cy="478.273298" r="5" fill="black" stroke="none" />
<path d="M546.021128,478.273298 A50.89198170821402,50.89198170821402,0,0,1,534.3635055311532,537.5385573750456" stroke="grey" stroke-width="5" fill="none" />
<path d="M534.3635055311532,537.5385573750456 L546.0211280000001,550.2732980000001" stroke="grey" stroke-width="5" />
<circle cx="534.3635055311532" cy="537.5385573750456" r="2.5" fill="grey" stroke="none" />
<circle cx="546.0211280000001" cy="478.273298" r="5" fill="black" stroke="none" />
<circle cx="546.0211280000001" cy="550.2732980000001" r="5" fill="black" stroke="none" />
<path d="M546.0211280000001,550.2732980000001 A68.15679506981819,68.15679506981819,0,0,1,498.36113805923577,568.1370886208701" stroke="grey" stroke-width="5" fill="none" />
<path d="M498.36113805923577,568.1370886208701 L498.02112800000003,582.2732980000001" stroke="grey" stroke-width="5" />
<circle cx="498.36113805923577" cy="568.1370886208701" r="2.5" fill="grey" stroke="none" />
<circle cx="546.0211280000001" cy="550.2732980000001" r="5" fill="black" stroke="none" />
<circle cx="498.02112800000003" cy="582.2732980000001" r="5" fill="black" stroke="none" />
<path d="M546.0211280000001,422.273298 A90.32931100251562,90.32931100251562,0,0,1,557.5060633940924,430.3405634597593" stroke="grey" stroke-width="5" fill="none" />
<path d="M557.5060633940924,430.3405634597593 L650.0211280000001,318.273298" stroke="grey" stroke-width="5" />
<circle cx="557.5060633940924" cy="430.3405634597593" r="2.5" fill="grey" stroke="none" />
<circle cx="546.0211280000001" cy="422.273298" r="5" fill="black" stroke="none" />
<circle cx="650.0211280000001" cy="318.273298" r="5" fill="black" stroke="none" />
<path d="M546.0211280000001,422.273298 A90.32931100251562,90.32931100251562,0,0,1,586.3094840892953,473.3530980707164" stroke="grey" stroke-width="5" fill="none" />
<path d="M586.3094840892953,473.3530980707164 L674.0211280000001,446.273298" stroke="grey" stroke-width="5" />
<circle cx="586.3094840892953" cy="473.3530980707164" r="2.5" fill="grey" stroke="none" />
<circle cx="546.0211280000001" cy="422.273298" r="5" fill="black" stroke="none" />
<circle cx="674.0211280000001" cy="446.273298" r="5" fill="black" stroke="none" />
<path d="M674.0211280000001,446.273298 A182.12608681402344,182.12608681402344,0,0,1,678.4140504099461,463.41669623302994" stroke="grey" stroke-width="5" fill="none" />
<path d="M678.4140504099461,463.41669623302994 L762.0211280000001,446.273298" stroke="grey" stroke-width="5" />
<circle cx="678.4140504099461" cy="463.41669623302994" r="2.5" fill="grey" stroke="none" />
<circle cx="674.0211280000001" cy="446.273298" r="5" fill="black" stroke="none" />
<circle cx="762.0211280000001" cy="446.273298" r="5" fill="black" stroke="none" />
<path d="M546.021128,478.273298 A50.89198170821402,50.89198170821402,0,0,1,540.7566729799445,530.4776542698919" stroke="grey" stroke-width="5" fill="none" />
<path d="M540.7566729799445,530.4776542698919 L610.0211280000001,582.2732980000001" stroke="grey" stroke-width="5" />
<circle cx="540.7566729799445" cy="530.4776542698919" r="2.5" fill="grey" stroke="none" />
<circle cx="546.0211280000001" cy="478.273298" r="5" fill="black" stroke="none" />
<circle cx="610.0211280000001" cy="582.2732980000001" r="5" fill="black" stroke="none" />
<circle cx="500" cy="500" r="5" fill="red" stroke="none" />
</svg>