<?xml version="1.0" encoding="UTF-8"?>
<svg xmlns="http://www.w3.org/2000/svg" xmlns:xlink="http://www.w3.org/1999/xlink"
     width="1000" height="1000" viewBox="0 0 1000 1000">
<defs>
</defs>
<rect x="0" y="0" width="1000" height="1000" fill="white" />
<path d="M279.58399999999995,664.9739999999999 L394.6869390532386,578.8233019228686" stroke="grey" stroke-width="5" />
<circle cx="394.6869390532386" cy="578.8233019228686" r="2.5" fill="grey" stroke="none" />
<path d="M394.6869390532386,578.8233019228686 A131.54449335491012,131.54449335491012,0,0,0,399.58399999999995,584.9739999999999" stroke="grey" stroke-width="5" fill="none" />
<circle cx="279.58399999999995" cy="664.9739999999999" r="5" fill="black" stroke="none" />
<circle cx="399.58399999999995" cy="584.9739999999999" r="5" fill="black" stroke="none" />
<path d="M399.58399999999995,584.9739999999999 L420.2191714001975,567.512110912998" stroke="grey" stroke-width="5" />
<circle cx="420.2191714001975" cy="567.512110912998" r="2.5" fill="grey" stroke="none" />
<path d="M420.2191714001975,567.512110912998 A104.51251471474602,104.51251471474602,0,0,1,399.58399999999995,528.9739999999999" stroke="grey" stroke-width="5" fill="none" />
<circle cx="399.58399999999995" cy="584.9739999999999" r="5" fill="black" stroke="none" />
<circle cx="399.58399999999995" cy="528.9739999999999" r="5" fill="black" stroke="none" />
<path d="M399.58399999999995,528.9739999999999 A104.51251471474602,104.51251471474602,0,0,1,396.5217723616812,514.6670425387085" stroke="grey" stroke-width="5" fill="none" />
<path d="M396.5217723616812,514.6670425387085 L295.58399999999995,528.9739999999999" stroke="grey" stroke-width="5" />
<circle cx="396.5217723616812" cy="514.6670425387085" r="2.5" fill="grey" stroke="none" />
<circle cx="399.58399999999995" cy="528.9739999999999" r="5" fill="black" stroke="none" />
<circle cx="295.58399999999995" cy="528.9739999999999" r="5" fill="black" stroke="none" />
<path d="M295.58399999999995,528.9739999999999 L321.06351926882223,525.3625234458415" stroke="grey" stroke-width="5" />
<circle cx="321.06351926882223" cy="525.3625234458415" r="2.5" fill="grey" stroke="none" />
<path d="M321.06351926882223,525.3625234458415 A180.72498922949205,180.72498922949205,0,0,1,335.58399999999995,424.97399999999993" stroke="grey" stroke-width="5" fill="none" />
<circle cx="295.58399999999995" cy="528.9739999999999" r="5" fill="black" stroke="none" />
<circle cx="335.58399999999995" cy="424.97399999999993" r="5" fill="black" stroke="none" />
<path d="M335.58399999999995,424.97399999999993 L344.208326567061,428.9094364844073" stroke="grey" stroke-width="5" />
<circle cx="344.208326567061" cy="428.9094364844073" r="2.5" fill="grey" stroke="none" />
<path d="M344.208326567061,428.9094364844073 A171.24518601116944,171.24518601116944,0,0,1,447.584,336.97399999999993" stroke="grey" stroke-width="5" fill="none" />
<circle cx="335.58399999999995" cy="424.97399999999993" r="5" fill="black" stroke="none" />
<circle cx="447.58399999999995" cy="336.97399999999993" r="5" fill="black" stroke="none" />
<path d="M447.58399999999995,336.97399999999993 L457.4244261553891,367.5800232449722" stroke="grey" stroke-width="5" />
<circle cx="457.4244261553891" cy="367.5800232449722" r="2.5" fill="grey" stroke="none" />
<path d="M457.42442615538914,367.58002324497215 A139.09611688325458,139.09611688325458,0,0,1,495.584,360.97399999999993" stroke="grey" stroke-width="5" fill="none" />
<circle cx="447.58399999999995" cy="336.97399999999993" r="5" fill="black" stroke="none" />
<circle cx="495.58399999999995" cy="360.97399999999993" r="5" fill="black" stroke="none" />
<path d="M495.584,360.97399999999993 A139.09611688325458,139.09611688325458,0,0,0,448.3362408037747,370.8544010904186" stroke="grey" stroke-width="5" fill="none" />
<path d="M448.3362408037747,370.8544010904186 L447.58399999999995,368.97399999999993" stroke="grey" stroke-width="5" />
<circle cx="448.3362408037747" cy="370.8544010904186" r="2.5" fill="grey" stroke="none" />
<circle cx="495.58399999999995" cy="360.97399999999993" r="5" fill="black" stroke="none" />
<circle cx="447.58399999999995" cy="368.97399999999993" r="5" fill="black" stroke="none" />
<path d="M447.58399999999995,336.97399999999993 L456.80451222755437,365.6519461692857" stroke="grey" stroke-width="5" />
<circle cx="456.80451222755437" cy="365.6519461692857" r="2.5" fill="grey" stroke="none" />
<path d="M456.80451222755437,365.6519461692857 A141.12140068749324,141.12140068749324,0,0,0,447.58399999999995,368.97399999999993" stroke="grey" stroke-width="5" fill="none" />
<circle cx="447.58399999999995" cy="336.97399999999993" r="5" fill="black" stroke="none" />
<circle cx="447.58399999999995" cy="368.97399999999993" r="5" fill="black" stroke="none" />
<path d="M447.58399999999995,368.97399999999993 L462.03942871649457,405.1087108327118" stroke="grey" stroke-width="5" />
<circle cx="462.03942871649457" cy="405.1087108327118" r="2.5" fill="grey" stroke="none" />
<path d="M462.03942871649457,405.1087108327118 A102.20255247301806,102.20255247301806,0,0,0,399.58399999999995,480.97399999999993" stroke="grey" stroke-width="5" fill="none" />
<circle cx="447.58399999999995" cy="368.97399999999993" r="5" fill="black" stroke="none" />
<circle cx="399.58399999999995" cy="480.97399999999993" r="5" fill="black" stroke="none" />
<path d="M335.58399999999995,424.97399999999993 L407.02041295426136,457.57172965104616" stroke="grey" stroke-width="5" />
<circle cx="407.02041295426136" cy="457.57172965104616" r="2.5" fill="grey" stroke="none" />
<path d="M407.02041295426136,457.57172965104616 A102.20255247301806,102.20255247301806,0,0,0,399.58399999999995,480.97399999999993" stroke="grey" stroke-width="5" fill="none" />
<circle cx="335.58399999999995" cy="424.97399999999993" r="5" fill="black" stroke="none" />
<circle cx="399.58399999999995" cy="480.97399999999993" r="5" fill="black" stroke="none" />
<path d="M399.58399999999995,480.97399999999993 A102.20255247301806,102.20255247301806,0,0,0,401.80342002925147,528.3336092661773" stroke="grey" stroke-width="5" fill="none" />
<path d="M401.8034200292515,528.3336092661773 L399.58399999999995,528.9739999999999" stroke="grey" stroke-width="5" />
<circle cx="401.8034200292515" cy="528.3336092661773" r="2.5" fill="grey" stroke="none" />
<circle cx="399.58399999999995" cy="480.97399999999993" r="5" fill="black" stroke="none" />
<circle cx="399.58399999999995" cy="528.9739999999999" r="5" fill="black" stroke="none" />
<path d="M495.584,360.97399999999993 A139.09611688325458,139.09611688325458,0,0,1,527.1168908026848,363.57271546646075" stroke="grey" stroke-width="5" fill="none" />
<path d="M527.1168908026848,363.57271546646075 L535.584,320.97399999999993" stroke="grey" stroke-width="5" />
<circle cx="527.1168908026848" cy="363.57271546646075" r="2.5" fill="grey" stroke="none" />
<circle cx="495.58399999999995" cy="360.97399999999993" r="5" fill="black" stroke="none" />
<circle cx="535.584" cy="320.97399999999993" r="5" fill="black" stroke="none" />
<path d="M495.58399999999995,360.97399999999993 L497.2453444723964,413.2770064808401" stroke="grey" stroke-width="5" />
<circle cx="497.2453444723964" cy="413.2770064808401" r="2.5" fill="grey" stroke="none" />
<path d="M497.2453444723964,413.2770064808401 A86.7667317121027,86.7667317121027,0,0,1,543.584,424.97399999999993" stroke="grey" stroke-width="5" fill="none" />
<circle cx="495.58399999999995" cy="360.97399999999993" r="5" fill="black" stroke="none" />
<circle cx="543.584" cy="424.97399999999993" r="5" fill="black" stroke="none" />
<path d="M447.58399999999995,368.97399999999993 L472.0852472094634,430.22057388711744" stroke="grey" stroke-width="5" />
<circle cx="472.0852472094634" cy="430.22057388711744" r="2.5" fill="grey" stroke="none" />
<path d="M472.0852472094634,430.22057388711744 A75.15584961930782,75.15584961930782,0,0,1,495.58399999999995,424.97399999999993" stroke="grey" stroke-width="5" fill="none" />
<circle cx="447.58399999999995" cy="368.97399999999993" r="5" fill="black" stroke="none" />
<circle cx="495.58399999999995" cy="424.97399999999993" r="5" fill="black" stroke="none" />
<path d="M399.58399999999995,480.97399999999993 L445.2125270293933,489.6193190254664" stroke="grey" stroke-width="5" />
<circle cx="445.2125270293933" cy="489.6193190254664" r="2.5" fill="grey" stroke="none" />
<path d="M445.2125270293933,489.6193190254664 A55.762224955609554,55.762224955609554,0,0,1,447.584,480.97399999999993" stroke="grey" stroke-width="5" fill="none" />
<circle cx="399.58399999999995" cy="480.97399999999993" r="5" fill="black" stroke="none" />
<circle cx="447.58399999999995" cy="480.97399999999993" r="5" fill="black" stroke="none" />
<path d="M399.58399999999995,528.9739999999999 L471.8401966659135,508.12522050073517" stroke="grey" stroke-width="5" />
<circle cx="471.8401966659135" cy="508.12522050073517" r="2.5" fill="grey" stroke="none" />
<path d="M471.8401966659135,508.1252205007351 A29.308594848610472,29.308594848610472,0,0,0,495.584,528.9739999999999" stroke="grey" stroke-width="5" fill="none" />
<circle cx="399.58399999999995" cy="528.9739999999999" r="5" fill="black" stroke="none" />
<circle cx="495.58399999999995" cy="528.9739999999999" r="5" fill="black" stroke="none" />
<path d="M399.58399999999995,584.9739999999999 L435.0465865131451,554.9648597597196" stroke="grey" stroke-width="5" />
<circle cx="435.0465865131451" cy="554.9648597597196" r="2.5" fill="grey" stroke="none" />
<path d="M435.0465865131451,554.9648597597196 A85.08866982154551,85.08866982154551,0,0,0,495.58399999999995,584.9739999999999" stroke="grey" stroke-width="5" fill="none" />
<circle cx="399.58399999999995" cy="584.9739999999999" r="5" fill="black" stroke="none" />
<circle cx="495.58399999999995" cy="584.9739999999999" r="5" fill="black" stroke="none" />
<path d="M543.584,424.97399999999993 L537.7517106519182,435.0137701135551" stroke="grey" stroke-width="5" />
<circle cx="537.7517106519182" cy="435.0137701135551" r="2.5" fill="grey" stroke="none" />
<path d="M537.7517106519182,435.0137701135551 A75.15584961930782,75.15584961930782,0,0,0,495.58399999999995,424.97399999999993" stroke="grey" stroke-width="5" fill="none" />
<circle cx="543.584" cy="424.97399999999993" r="5" fill="black" stroke="none" />
<circle cx="495.58399999999995" cy="424.97399999999993" r="5" fill="black" stroke="none" />
<path d="M495.58399999999995,424.97399999999993 L496.72352868537445,444.33411756089333" stroke="grey" stroke-width="5" />
<circle cx="496.72352868537445" cy="444.33411756089333" r="2.5" fill="grey" stroke="none" />
<path d="M496.72352868537445,444.33411756089333 A55.762224955609554,55.762224955609554,0,0,0,447.584,480.97399999999993" stroke="grey" stroke-width="5" fill="none" />
<circle cx="495.58399999999995" cy="424.97399999999993" r="5" fill="black" stroke="none" />
<circle cx="447.58399999999995" cy="480.97399999999993" r="5" fill="black" stroke="none" />
<path d="M447.58399999999995,480.97399999999993 L472.45017915250486,489.9999448366063" stroke="grey" stroke-width="5" />
<circle cx="472.45017915250486" cy="489.9999448366063" r="2.5" fill="grey" stroke="none" />
<path d="M472.45017915250486,489.9999448366063 A29.308594848610472,29.308594848610472,0,0,0,495.584,528.9739999999999" stroke="grey" stroke-width="5" fill="none" />
<circle cx="447.58399999999995" cy="480.97399999999993" r="5" fill="black" stroke="none" />
<circle cx="495.58399999999995" cy="528.9739999999999" r="5" fill="black" stroke="none" />
<path d="M495.584,528.9739999999999 A29.308594848610472,29.308594848610472,0,0,0,498.4789190485301,529.2690970947017" stroke="grey" stroke-width="5" fill="none" />
<path d="M498.4789190485301,529.2690970947017 L495.58399999999995,584.9739999999999" stroke="grey" stroke-width="5" />
<circle cx="498.4789190485301" cy="529.2690970947017" r="2.5" fill="grey" stroke="none" />
<circle cx="495.58399999999995" cy="528.9739999999999" r="5" fill="black" stroke="none" />
<circle cx="495.58399999999995" cy="584.9739999999999" r="5" fill="black" stroke="none" />
<path d="M495.58399999999995,584.9739999999999 A85.08866982154551,85.08866982154551,0,0,0,532.2560534042221,578.7377212699477" stroke="grey" stroke-width="5" fill="none" />
<path d="M532.2560534042221,578.7377212699477 L567.584,664.9739999999999" stroke="grey" stroke-width="5" />
<circle cx="532.2560534042221" cy="578.7377212699477" r="2.5" fill="grey" stroke="none" />
<circle cx="495.58399999999995" cy="584.9739999999999" r="5" fill="black" stroke="none" />
<circle cx="567.584" cy="664.9739999999999" r="5" fill="black" stroke="none" />
<path d="M543.584,424.97399999999993 L527.4539576907994,452.74044076473206" stroke="grey" stroke-width="5" />
<circle cx="527.4539576907994" cy="452.74044076473206" r="2.5" fill="grey" stroke="none" />
<path d="M527.4539576907994,452.74044076473206 A54.65515284033159,54.65515284033159,0,0,0,519.584,448.97399999999993" stroke="grey" stroke-width="5" fill="none" />
<circle cx="543.584" cy="424.97399999999993" r="5" fill="black" stroke="none" />
<circle cx="519.584" cy="448.97399999999993" r="5" fill="black" stroke="none" />
<path d="M519.584,448.97399999999993 L506.99860872624504,481.7651649884917" stroke="grey" stroke-width="5" />
<circle cx="506.99860872624504" cy="481.7651649884917" r="2.5" fill="grey" stroke="none" />
<path d="M506.99860872624504,481.7651649884917 A19.53176213248571,19.53176213248571,0,0,0,495.584,480.97399999999993" stroke="grey" stroke-width="5" fill="none" />
<circle cx="519.584" cy="448.97399999999993" r="5" fill="black" stroke="none" />
<circle cx="495.58399999999995" cy="480.97399999999993" r="5" fill="black" stroke="none" />
<path d="M495.584,480.97399999999993 A19.53176213248571,19.53176213248571,0,0,0,497.0571000751629,519.3087822514108" stroke="grey" stroke-width="5" fill="none" />
<path d="M497.0571000751629,519.3087822514108 L495.58399999999995,528.9739999999999" stroke="grey" stroke-width="5" />
<circle cx="497.0571000751629" cy="519.3087822514108" r="2.5" fill="grey" stroke="none" />
<circle cx="495.58399999999995" cy="480.97399999999993" r="5" fill="black" stroke="none" />
<circle cx="495.58399999999995" cy="528.9739999999999" r="5" fill="black" stroke="none" />
<path d="M495.58399999999995,424.97399999999993 L496.7885779195436,445.4392769455796" stroke="grey" stroke-width="5" />
<circle cx="496.7885779195436" cy="445.4392769455796" r="2.5" fill="grey" stroke="none" />
<path d="M496.78857791954357,445.4392769455796 A54.65515284033159,54.65515284033159,0,0,1,519.584,448.97399999999993" stroke="grey" stroke-width="5" fill="none" />
<circle cx="495.58399999999995" cy="424.97399999999993" r="5" fill="black" stroke="none" />
<circle cx="519.584" cy="448.97399999999993" r="5" fill="black" stroke="none" />
<path d="M447.58399999999995,480.97399999999993 L481.6403157379146,493.33578768371416" stroke="grey" stroke-width="5" />
<circle cx="481.6403157379146" cy="493.33578768371416" r="2.5" fill="grey" stroke="none" />
<path d="M481.6403157379146,493.33578768371416 A19.53176213248571,19.53176213248571,0,0,1,495.584,480.97399999999993" stroke="grey" stroke-width="5" fill="none" />
<circle cx="447.58399999999995" cy="480.97399999999993" r="5" fill="black" stroke="none" />
<circle cx="495.58399999999995" cy="480.97399999999993" r="5" fill="black" stroke="none" />
<path d="M543.584,424.97399999999993 L523.8878631408439,458.87915702998896" stroke="grey" stroke-width="5" />
<circle cx="523.8878631408439" cy="458.87915702998896" r="2.5" fill="grey" stroke="none" />
<path d="M523.8878631408439,458.87915702998896 A47.55579598745037,47.55579598745037,0,0,1,543.584,480.97399999999993" stroke="grey" stroke-width="5" fill="none" />
<circle cx="543.584" cy="424.97399999999993" r="5" fill="black" stroke="none" />
<circle cx="543.584" cy="480.97399999999993" r="5" fill="black" stroke="none" />
<path d="M519.584,448.97399999999993 L517.0401629163676,455.601952973316" stroke="grey" stroke-width="5" />
<circle cx="517.0401629163676" cy="455.601952973316" r="2.5" fill="grey" stroke="none" />
<path d="M517.0401629163676,455.601952973316 A47.55579598745037,47.55579598745037,0,0,1,543.584,480.97399999999993" stroke="grey" stroke-width="5" fill="none" />
<circle cx="519.584" cy="448.97399999999993" r="5" fill="black" stroke="none" />
<circle cx="543.584" cy="480.97399999999993" r="5" fill="black" stroke="none" />
<path d="M495.584,480.97399999999993 A19.53176213248571,19.53176213248571,0,0,1,517.9004956831529,492.185783065628" stroke="grey" stroke-width="5" fill="none" />
<path d="M517.9004956831529,492.185783065628 L543.584,480.97399999999993" stroke="grey" stroke-width="5" />
<circle cx="517.9004956831529" cy="492.185783065628" r="2.5" fill="grey" stroke="none" />
<circle cx="495.58399999999995" cy="480.97399999999993" r="5" fill="black" stroke="none" />
<circle cx="543.584" cy="480.97399999999993" r="5" fill="black" stroke="none" />
<path d="M495.584,528.9739999999999 A29.308594848610472,29.308594848610472,0,0,0,526.8607805075733,488.2742930906504" stroke="grey" stroke-width="5" fill="none" />
<path d="M526.8607805075733,488.2742930906504 L543.584,480.97399999999993" stroke="grey" stroke-width="5" />
<circle cx="526.8607805075733" cy="488.2742930906504" r="2.5" fill="grey" stroke="none" />
<circle cx="495.58399999999995" cy="528.9739999999999" r="5" fill="black" stroke="none" />
<circle cx="543.584" cy="480.97399999999993" r="5" fill="black" stroke="none" />
<path d="M543.584,480.97399999999993 A47.55579598745037,47.55579598745037,0,0,1,530.2143572126805,536.7239206815468" stroke="grey" stroke-width="5" fill="none" />
<path d="M530.2143572126805,536.7239206815468 L543.584,552.9739999999999" stroke="grey" stroke-width="5" />
<circle cx="530.2143572126805" cy="536.7239206815468" r="2.5" fill="grey" stroke="none" />
<circle cx="543.584" cy="480.97399999999993" r="5" fill="black" stroke="none" />
<circle cx="543.584" cy="552.9739999999999" r="5" fill="black" stroke="none" />
<path d="M543.584,552.9739999999999 A68.59890474344317,68.59890474344317,0,0,1,496.4397990474833,568.5064573684677" stroke="grey" stroke-width="5" fill="none" />
<path d="M496.4397990474833,568.5064573684677 L495.58399999999995,584.9739999999999" stroke="grey" stroke-width="5" />
<circle cx="496.4397990474833" cy="568.5064573684677" r="2.5" fill="grey" stroke="none" />
<circle cx="543.584" cy="552.9739999999999" r="5" fill="black" stroke="none" />
<circle cx="495.58399999999995" cy="584.9739999999999" r="5" fill="black" stroke="none" />
<path d="M543.584,424.97399999999993 A86.7667317121027,86.7667317121027,0,0,1,555.1918431169665,433.0498231118681" stroke="grey" stroke-width="5" fill="none" />
<path d="M555.1918431169665,433.0498231118681 L647.584,320.97399999999993" stroke="grey" stroke-width="5" />
<circle cx="555.1918431169665" cy="433.0498231118681" r="2.5" fill="grey" stroke="none" />
<circle cx="543.584" cy="424.97399999999993" r="5" fill="black" stroke="none" />
<circle cx="647.584" cy="320.97399999999993" r="5" fill="black" stroke="none" />
<path d="M543.584,424.97399999999993 A86.7667317121027,86.7667317121027,0,0,1,583.1671414634379,475.2675857870583" stroke="grey" stroke-width="5" fill="none" />
<path d="M583.1671414634379,475.2675857870583 L671.584,448.97399999999993" stroke="grey" stroke-width="5" />
<circle cx="583.1671414634379" cy="475.2675857870583" r="2.5" fill="grey" stroke="none" />
<circle cx="543.584" cy="424.97399999999993" r="5" fill="black" stroke="none" />
<circle cx="671.584" cy="448.97399999999993" r="5" fill="black" stroke="none" />
<path d="M671.584,448.97399999999993 A179.01039559757416,179.01039559757416,0,0,1,675.6490942238506,465.47294639936894" stroke="grey" stroke-width="5" fill="none" />
<path d="M675.6490942238506,465.47294639936894 L759.584,448.97399999999993" stroke="grey" stroke-width="5" />
<circle cx="675.6490942238506" cy="465.47294639936894" r="2.5" fill="grey" stroke="none" />
<circle cx="671.584" cy="448.97399999999993" r="5" fill="black" stroke="none" />
<circle cx="759.584" cy="448.97399999999993" r="5" fill="black" stroke="none" />
<path d="M543.584,480.97399999999993 A47.55579598745037,47.55579598745037,0,0,1,537.3190997955862,529.47606694332" stroke="grey" stroke-width="5" fill="none" />
<path d="M537.3190997955862,529.47606694332 L607.584,584.9739999999999" stroke="grey" stroke-width="5" />
<circle cx="537.3190997955862" cy="529.47606694332" r="2.5" fill="grey" stroke="none" />
<circle cx="543.584" cy="480.97399999999993" r="5" fill="black" stroke="none" />
<circle cx="607.584" cy="584.9739999999999" r="5" fill="black" stroke="none" />
<circle cx="500" cy="500" r="5" fill="red" stroke="none" />
</svg>