<?xml version="1.0" encoding="UTF-8"?>
<svg xmlns="http://www.w3.org/2000/svg" xmlns:xlink="http://www.w3.org/1999/xlink"
     width="1000" height="1000" viewBox="0 0 1000 1000">
<defs>
</defs>
<rect x="0" y="0" width="1000" height="1000" fill="white" />
<path d="M253.56226399999997,698.766174 L364.9755244266769,608.9049868810104" stroke="grey" stroke-width="5" />
<circle cx="364.9755244266769" cy="608.9049868810104" r="2.5" fill="grey" stroke="none" />
<path d="M364.9755244266769,608.9049868810105 A173.47018525211755,173.47018525211755,0,0,0,373.562264,618.766174" stroke="grey" stroke-width="5" fill="none" />
<circle cx="253.56226399999997" cy="698.766174" r="5" fill="black" stroke="none" />
<circle cx="373.56226399999997" cy="618.766174" r="5" fill="black" stroke="none" />
<path d="M373.56226399999997,618.766174 L397.1124199998725,596.6449148435722" stroke="grey" stroke-width="5" />
<circle cx="397.1124199998725" cy="596.6449148435722" r="2.5" fill="grey" stroke="none" />
<path d="M397.1124199998725,596.6449148435722 A141.1598161071485,141.1598161071485,0,0,1,373.562264,562.7661740000001" stroke="grey" stroke-width="5" fill="none" />
<circle cx="373.56226399999997" cy="618.766174" r="5" fill="black" stroke="none" />
<circle cx="373.56226399999997" cy="562.766174" r="5" fill="black" stroke="none" />
<path d="M373.562264,562.7661740000001 A141.1598161071485,141.1598161071485,0,0,1,363.8020487359727,537.0973281367487" stroke="grey" stroke-width="5" fill="none" />
<path d="M363.8020487359727,537.0973281367487 L269.56226399999997,562.766174" stroke="grey" stroke-width="5" />
<circle cx="363.8020487359727" cy="537.0973281367487" r="2.5" fill="grey" stroke="none" />
<circle cx="373.56226399999997" cy="562.766174" r="5" fill="black" stroke="none" />
<circle cx="269.56226399999997" cy="562.766174" r="5" fill="black" stroke="none" />
<path d="M269.56226399999997,562.766174 L311.99852454203,551.207469426152" stroke="grey" stroke-width="5" />
<circle cx="311.99852454203" cy="551.207469426152" r="2.5" fill="grey" stroke="none" />
<path d="M311.99852454203,551.207469426152 A194.85060867085838,194.85060867085838,0,0,1,309.56226399999997,458.76617399999986" stroke="grey" stroke-width="5" fill="none" />
<circle cx="269.56226399999997" cy="562.766174" r="5" fill="black" stroke="none" />
<circle cx="309.56226399999997" cy="458.766174" r="5" fill="black" stroke="none" />
<path d="M309.56226399999997,458.766174 L352.2487967653723,468.0087175292439" stroke="grey" stroke-width="5" />
<circle cx="352.2487967653723" cy="468.0087175292439" r="2.5" fill="grey" stroke="none" />
<path d="M352.2487967653723,468.0087175292438 A151.17493248354364,151.17493248354364,0,0,1,421.56226399999997,370.766174" stroke="grey" stroke-width="5" fill="none" />
<circle cx="309.56226399999997" cy="458.766174" r="5" fill="black" stroke="none" />
<circle cx="421.56226399999997" cy="370.766174" r="5" fill="black" stroke="none" />
<path d="M421.56226399999997,370.766174 L443.16092543203723,406.3520768534532" stroke="grey" stroke-width="5" />
<circle cx="443.16092543203723" cy="406.3520768534532" r="2.5" fill="grey" stroke="none" />
<path d="M443.16092543203723,406.3520768534532 A109.54731355630759,109.54731355630759,0,0,1,469.56226399999997,394.766174" stroke="grey" stroke-width="5" fill="none" />
<circle cx="421.56226399999997" cy="370.766174" r="5" fill="black" stroke="none" />
<circle cx="469.56226399999997" cy="394.766174" r="5" fill="black" stroke="none" />
<path d="M469.56226399999997,394.766174 A109.54731355630759,109.54731355630759,0,0,0,431.2189941694874,414.73695323091624" stroke="grey" stroke-width="5" fill="none" />
<path d="M431.2189941694874,414.73695323091624 L421.56226399999997,402.766174" stroke="grey" stroke-width="5" />
<circle cx="431.2189941694874" cy="414.73695323091624" r="2.5" fill="grey" stroke="none" />
<circle cx="469.56226399999997" cy="394.766174" r="5" fill="black" stroke="none" />
<circle cx="421.56226399999997" cy="402.766174" r="5" fill="black" stroke="none" />
<path d="M421.56226399999997,370.766174 L435.18082104771463,393.20407597967244" stroke="grey" stroke-width="5" />
<circle cx="435.18082104771463" cy="393.20407597967244" r="2.5" fill="grey" stroke="none" />
<path d="M435.18082104771463,393.20407597967244 A124.92756039963311,124.92756039963311,0,0,0,421.56226399999997,402.766174" stroke="grey" stroke-width="5" fill="none" />
<circle cx="421.56226399999997" cy="370.766174" r="5" fill="black" stroke="none" />
<circle cx="421.56226399999997" cy="402.766174" r="5" fill="black" stroke="none" />
<path d="M421.56226399999997,402.766174 A124.92756039963311,124.92756039963311,0,0,0,375.9157662621834,514.4913175764968" stroke="grey" stroke-width="5" fill="none" />
<path d="M375.91576626218347,514.4913175764968 L373.56226399999997,514.766174" stroke="grey" stroke-width="5" />
<circle cx="375.91576626218347" cy="514.4913175764968" r="2.5" fill="grey" stroke="none" />
<circle cx="421.56226399999997" cy="402.766174" r="5" fill="black" stroke="none" />
<circle cx="373.56226399999997" cy="514.766174" r="5" fill="black" stroke="none" />
<path d="M309.56226399999997,458.766174 L375.5858978665849,473.06169697734975" stroke="grey" stroke-width="5" />
<circle cx="375.5858978665849" cy="473.06169697734975" r="2.5" fill="grey" stroke="none" />
<path d="M375.5858978665849,473.0616969773497 A127.29705801550945,127.29705801550945,0,0,0,373.56226399999997,514.766174" stroke="grey" stroke-width="5" fill="none" />
<circle cx="309.56226399999997" cy="458.766174" r="5" fill="black" stroke="none" />
<circle cx="373.56226399999997" cy="514.766174" r="5" fill="black" stroke="none" />
<path d="M373.56226399999997,514.766174 A127.29705801550945,127.29705801550945,0,0,0,385.9792236997212,556.6021514722344" stroke="grey" stroke-width="5" fill="none" />
<path d="M385.97922369972116,556.6021514722343 L373.56226399999997,562.766174" stroke="grey" stroke-width="5" />
<circle cx="385.97922369972116" cy="556.6021514722343" r="2.5" fill="grey" stroke="none" />
<circle cx="373.56226399999997" cy="514.766174" r="5" fill="black" stroke="none" />
<circle cx="373.56226399999997" cy="562.766174" r="5" fill="black" stroke="none" />
<path d="M469.56226399999997,394.766174 A109.54731355630759,109.54731355630759,0,0,1,507.1970644387612,390.68935929714667" stroke="grey" stroke-width="5" fill="none" />
<path d="M507.1970644387612,390.68935929714667 L509.56226399999997,354.766174" stroke="grey" stroke-width="5" />
<circle cx="507.1970644387612" cy="390.68935929714667" r="2.5" fill="grey" stroke="none" />
<circle cx="469.56226399999997" cy="394.766174" r="5" fill="black" stroke="none" />
<circle cx="509.56226399999997" cy="354.766174" r="5" fill="black" stroke="none" />
<path d="M469.56226399999997,394.766174 L487.54728655638695,456.9466441343392" stroke="grey" stroke-width="5" />
<circle cx="487.54728655638695" cy="456.9466441343392" r="2.5" fill="grey" stroke="none" />
<path d="M487.54728655638695,456.9466441343392 A44.81809370560031,44.81809370560031,0,0,1,517.5622639999999,458.766174" stroke="grey" stroke-width="5" fill="none" />
<circle cx="469.56226399999997" cy="394.766174" r="5" fill="black" stroke="none" />
<circle cx="517.5622639999999" cy="458.766174" r="5" fill="black" stroke="none" />
<path d="M421.56226399999997,402.766174 L467.8211351381235,460.1100910554428" stroke="grey" stroke-width="5" />
<circle cx="467.8211351381235" cy="460.1100910554428" r="2.5" fill="grey" stroke="none" />
<path d="M467.8211351381235,460.1100910554428 A51.25118710238792,51.25118710238792,0,0,1,469.56226399999997,458.76617400000003" stroke="grey" stroke-width="5" fill="none" />
<circle cx="421.56226399999997" cy="402.766174" r="5" fill="black" stroke="none" />
<circle cx="469.56226399999997" cy="458.766174" r="5" fill="black" stroke="none" />
<path d="M373.56226399999997,514.766174 L420.7232699046059,509.258422586273" stroke="grey" stroke-width="5" />
<circle cx="420.7232699046059" cy="509.258422586273" r="2.5" fill="grey" stroke="none" />
<path d="M420.7232699046059,509.258422586273 A79.8155268315882,79.8155268315882,0,0,0,421.56226399999997,514.766174" stroke="grey" stroke-width="5" fill="none" />
<circle cx="373.56226399999997" cy="514.766174" r="5" fill="black" stroke="none" />
<circle cx="421.56226399999997" cy="514.766174" r="5" fill="black" stroke="none" />
<path d="M373.56226399999997,562.766174 L437.5181560728743,531.0172137831605" stroke="grey" stroke-width="5" />
<circle cx="437.5181560728743" cy="531.0172137831605" r="2.5" fill="grey" stroke="none" />
<path d="M437.5181560728743,531.0172137831605 A69.75706682053062,69.75706682053062,0,0,0,469.56226399999997,562.766174" stroke="grey" stroke-width="5" fill="none" />
<circle cx="373.56226399999997" cy="562.766174" r="5" fill="black" stroke="none" />
<circle cx="469.56226399999997" cy="562.766174" r="5" fill="black" stroke="none" />
<path d="M373.56226399999997,618.766174 L410.6368996793665,583.9410278736707" stroke="grey" stroke-width="5" />
<circle cx="410.6368996793665" cy="583.9410278736707" r="2.5" fill="grey" stroke="none" />
<path d="M410.6368996793665,583.9410278736707 A122.6044854783216,122.6044854783216,0,0,0,469.562264,618.766174" stroke="grey" stroke-width="5" fill="none" />
<circle cx="373.56226399999997" cy="618.766174" r="5" fill="black" stroke="none" />
<circle cx="469.56226399999997" cy="618.766174" r="5" fill="black" stroke="none" />
<path d="M517.5622639999999,458.766174 A44.81809370560031,44.81809370560031,0,0,0,473.38283498665015,463.9418795545847" stroke="grey" stroke-width="5" fill="none" />
<path d="M473.3828349866502,463.9418795545847 L469.56226399999997,458.766174" stroke="grey" stroke-width="5" />
<circle cx="473.3828349866502" cy="463.9418795545847" r="2.5" fill="grey" stroke="none" />
<circle cx="517.5622639999999" cy="458.766174" r="5" fill="black" stroke="none" />
<circle cx="469.56226399999997" cy="458.766174" r="5" fill="black" stroke="none" />
<path d="M469.56226399999997,458.76617400000003 A51.25118710238792,51.25118710238792,0,0,0,449.63352065437067,509.4816632364933" stroke="grey" stroke-width="5" fill="none" />
<path d="M449.63352065437067,509.4816632364933 L421.56226399999997,514.766174" stroke="grey" stroke-width="5" />
<circle cx="449.63352065437067" cy="509.4816632364933" r="2.5" fill="grey" stroke="none" />
<circle cx="469.56226399999997" cy="458.766174" r="5" fill="black" stroke="none" />
<circle cx="421.56226399999997" cy="514.766174" r="5" fill="black" stroke="none" />
<path d="M421.56226399999997,514.766174 L431.447092957887,512.9053208979625" stroke="grey" stroke-width="5" />
<circle cx="431.447092957887" cy="512.9053208979625" r="2.5" fill="grey" stroke="none" />
<path d="M431.447092957887,512.9053208979625 A69.75706682053062,69.75706682053062,0,0,0,469.56226399999997,562.766174" stroke="grey" stroke-width="5" fill="none" />
<circle cx="421.56226399999997" cy="514.766174" r="5" fill="black" stroke="none" />
<circle cx="469.56226399999997" cy="562.766174" r="5" fill="black" stroke="none" />
<path d="M469.56226399999997,562.766174 A69.75706682053062,69.75706682053062,0,0,0,482.68214106739924,567.5732205344285" stroke="grey" stroke-width="5" fill="none" />
<path d="M482.68214106739924,567.5732205344285 L469.56226399999997,618.766174" stroke="grey" stroke-width="5" />
<circle cx="482.68214106739924" cy="567.5732205344285" r="2.5" fill="grey" stroke="none" />
<circle cx="469.56226399999997" cy="562.766174" r="5" fill="black" stroke="none" />
<circle cx="469.56226399999997" cy="618.766174" r="5" fill="black" stroke="none" />
<path d="M469.562264,618.766174 A122.6044854783216,122.6044854783216,0,0,0,525.094027965223,620.0089564152801" stroke="grey" stroke-width="5" fill="none" />
<path d="M525.0940279652228,620.0089564152801 L541.5622639999999,698.766174" stroke="grey" stroke-width="5" />
<circle cx="525.0940279652228" cy="620.0089564152801" r="2.5" fill="grey" stroke="none" />
<circle cx="469.56226399999997" cy="618.766174" r="5" fill="black" stroke="none" />
<circle cx="541.5622639999999" cy="698.766174" r="5" fill="black" stroke="none" />
<path d="M517.5622639999999,458.766174 L507.20898080435774,483.0742858594867" stroke="grey" stroke-width="5" />
<circle cx="507.20898080435774" cy="483.0742858594867" r="2.5" fill="grey" stroke="none" />
<path d="M507.20898080435774,483.0742858594867 A18.396988976568206,18.396988976568206,0,0,0,493.56226399999997,482.766174" stroke="grey" stroke-width="5" fill="none" />
<circle cx="517.5622639999999" cy="458.766174" r="5" fill="black" stroke="none" />
<circle cx="493.56226399999997" cy="482.766174" r="5" fill="black" stroke="none" />
<path d="M493.56226399999997,482.766174 A18.396988976568206,18.396988976568206,0,0,0,483.44794131136524,508.02985408161084" stroke="grey" stroke-width="5" fill="none" />
<path d="M483.44794131136524,508.02985408161084 L469.56226399999997,514.766174" stroke="grey" stroke-width="5" />
<circle cx="483.44794131136524" cy="508.02985408161084" r="2.5" fill="grey" stroke="none" />
<circle cx="493.56226399999997" cy="482.766174" r="5" fill="black" stroke="none" />
<circle cx="469.56226399999997" cy="514.766174" r="5" fill="black" stroke="none" />
<path d="M469.56226399999997,514.766174 A33.830395614062425,33.830395614062425,0,0,0,485.2384755063507,530.4399911633917" stroke="grey" stroke-width="5" fill="none" />
<path d="M485.2384755063507,530.4399911633917 L469.56226399999997,562.766174" stroke="grey" stroke-width="5" />
<circle cx="485.2384755063507" cy="530.4399911633917" r="2.5" fill="grey" stroke="none" />
<circle cx="469.56226399999997" cy="514.766174" r="5" fill="black" stroke="none" />
<circle cx="469.56226399999997" cy="562.766174" r="5" fill="black" stroke="none" />
<path d="M469.56226399999997,458.766174 L489.0741517353536,485.1988161587698" stroke="grey" stroke-width="5" />
<circle cx="489.0741517353536" cy="485.1988161587698" r="2.5" fill="grey" stroke="none" />
<path d="M489.07415173535355,485.1988161587698 A18.396988976568206,18.396988976568206,0,0,1,493.56226399999997,482.766174" stroke="grey" stroke-width="5" fill="none" />
<circle cx="469.56226399999997" cy="458.766174" r="5" fill="black" stroke="none" />
<circle cx="493.56226399999997" cy="482.766174" r="5" fill="black" stroke="none" />
<path d="M421.56226399999997,514.766174 L466.7535911208044,506.2587509969098" stroke="grey" stroke-width="5" />
<circle cx="466.7535911208044" cy="506.2587509969098" r="2.5" fill="grey" stroke="none" />
<path d="M466.7535911208044,506.2587509969098 A33.830395614062425,33.830395614062425,0,0,0,469.56226399999997,514.766174" stroke="grey" stroke-width="5" fill="none" />
<circle cx="421.56226399999997" cy="514.766174" r="5" fill="black" stroke="none" />
<circle cx="469.56226399999997" cy="514.766174" r="5" fill="black" stroke="none" />
<path d="M517.5622639999999,458.766174 L508.99114864018406,478.88999626873346" stroke="grey" stroke-width="5" />
<circle cx="508.99114864018406" cy="478.88999626873346" r="2.5" fill="grey" stroke="none" />
<path d="M508.99114864018406,478.88999626873346 A22.944999703725674,22.944999703725674,0,0,1,517.562264,514.766174" stroke="grey" stroke-width="5" fill="none" />
<circle cx="517.5622639999999" cy="458.766174" r="5" fill="black" stroke="none" />
<circle cx="517.5622639999999" cy="514.766174" r="5" fill="black" stroke="none" />
<path d="M493.56226399999997,482.766174 A18.396988976568206,18.396988976568206,0,0,1,514.0811846320973,511.8393176644922" stroke="grey" stroke-width="5" fill="none" />
<path d="M514.0811846320973,511.8393176644922 L517.5622639999999,514.766174" stroke="grey" stroke-width="5" />
<circle cx="514.0811846320973" cy="511.8393176644922" r="2.5" fill="grey" stroke="none" />
<circle cx="493.56226399999997" cy="482.766174" r="5" fill="black" stroke="none" />
<circle cx="517.5622639999999" cy="514.766174" r="5" fill="black" stroke="none" />
<path d="M469.56226399999997,514.766174 L479.35602493481406,510.0149540643955" stroke="grey" stroke-width="5" />
<circle cx="479.35602493481406" cy="510.0149540643955" r="2.5" fill="grey" stroke="none" />
<path d="M479.35602493481406,510.0149540643955 A22.944999703725674,22.944999703725674,0,0,0,517.562264,514.766174" stroke="grey" stroke-width="5" fill="none" />
<circle cx="469.56226399999997" cy="514.766174" r="5" fill="black" stroke="none" />
<circle cx="517.5622639999999" cy="514.766174" r="5" fill="black" stroke="none" />
<path d="M469.56226399999997,562.766174 L489.98819939922515,520.6455045986843" stroke="grey" stroke-width="5" />
<circle cx="489.98819939922515" cy="520.6455045986843" r="2.5" fill="grey" stroke="none" />
<path d="M489.98819939922515,520.6455045986843 A22.944999703725674,22.944999703725674,0,0,0,517.562264,514.766174" stroke="grey" stroke-width="5" fill="none" />
<circle cx="469.56226399999997" cy="562.766174" r="5" fill="black" stroke="none" />
<circle cx="517.5622639999999" cy="514.766174" r="5" fill="black" stroke="none" />
<path d="M517.562264,514.766174 A22.944999703725674,22.944999703725674,0,0,1,504.5519671442795,522.4889440952965" stroke="grey" stroke-width="5" fill="none" />
<path d="M504.5519671442795,522.4889440952965 L517.5622639999999,586.766174" stroke="grey" stroke-width="5" />
<circle cx="504.5519671442795" cy="522.4889440952965" r="2.5" fill="grey" stroke="none" />
<circle cx="517.5622639999999" cy="514.766174" r="5" fill="black" stroke="none" />
<circle cx="517.5622639999999" cy="586.766174" r="5" fill="black" stroke="none" />
<path d="M517.5622639999999,586.766174 A88.52571415924287,88.52571415924287,0,0,1,478.0226448789516,585.7542881102006" stroke="grey" stroke-width="5" fill="none" />
<path d="M478.02264487895155,585.7542881102006 L469.56226399999997,618.766174" stroke="grey" stroke-width="5" />
<circle cx="478.02264487895155" cy="585.7542881102006" r="2.5" fill="grey" stroke="none" />
<circle cx="517.5622639999999" cy="586.766174" r="5" fill="black" stroke="none" />
<circle cx="469.56226399999997" cy="618.766174" r="5" fill="black" stroke="none" />
<path d="M517.5622639999999,458.766174 A44.81809370560031,44.81809370560031,0,0,1,528.7663638321013,465.63202311332327" stroke="grey" stroke-width="5" fill="none" />
<path d="M528.7663638321013,465.63202311332327 L621.5622639999999,354.766174" stroke="grey" stroke-width="5" />
<circle cx="528.7663638321013" cy="465.63202311332327" r="2.5" fill="grey" stroke="none" />
<circle cx="517.5622639999999" cy="458.766174" r="5" fill="black" stroke="none" />
<circle cx="621.5622639999999" cy="354.766174" r="5" fill="black" stroke="none" />
<path d="M517.5622639999999,458.766174 A44.81809370560031,44.81809370560031,0,0,1,544.5072425252865,494.7305706002169" stroke="grey" stroke-width="5" fill="none" />
<path d="M544.5072425252865,494.7305706002169 L645.5622639999999,482.766174" stroke="grey" stroke-width="5" />
<circle cx="544.5072425252865" cy="494.7305706002169" r="2.5" fill="grey" stroke="none" />
<circle cx="517.5622639999999" cy="458.766174" r="5" fill="black" stroke="none" />
<circle cx="645.5622639999999" cy="482.766174" r="5" fill="black" stroke="none" />
<path d="M645.5622639999999,482.766174 A146.5789120556022,146.5789120556022,0,0,1,646.1815095731012,489.21372546551373" stroke="grey" stroke-width="5" fill="none" />
<path d="M646.1815095731012,489.21372546551373 L733.5622639999999,482.766174" stroke="grey" stroke-width="5" />
<circle cx="646.1815095731012" cy="489.21372546551373" r="2.5" fill="grey" stroke="none" />
<circle cx="645.5622639999999" cy="482.766174" r="5" fill="black" stroke="none" />
<circle cx="733.5622639999999" cy="482.766174" r="5" fill="black" stroke="none" />
<path d="M517.562264,514.766174 A22.944999703725674,22.944999703725674,0,0,1,512.9893253228702,518.9142919259648" stroke="grey" stroke-width="5" fill="none" />
<path d="M512.9893253228702,518.9142919259648 L581.5622639999999,618.766174" stroke="grey" stroke-width="5" />
<circle cx="512.9893253228702" cy="518.9142919259648" r="2.5" fill="grey" stroke="none" />
<circle cx="517.5622639999999" cy="514.766174" r="5" fill="black" stroke="none" />
<circle cx="581.5622639999999" cy="618.766174" r="5" fill="black" stroke="none" />
<circle cx="500" cy="500" r="5" fill="red" stroke="none" />
</svg>