<?xml version="1.0" encoding="UTF-8"?>
<svg xmlns="http://www.w3.org/2000/svg" xmlns:xlink="http://www.w3.org/1999/xlink"
     width="1000" height="1000" viewBox="0 0 1000 1000">
<defs>
</defs>
<rect x="0" y="0" width="1000" height="1000" fill="white" />
<path d="M260.68248800000003,688.959558 L373.1831636771739,600.1316332359312" stroke="grey" stroke-width="5" />
<circle cx="373.1831636771739" cy="600.1316332359312" r="2.5" fill="grey" stroke="none" />
<path d="M373.1831636771739,600.1316332359312 A161.58234417604388,161.58234417604388,0,0,0,380.68248800000003,608.959558" stroke="grey" stroke-width="5" fill="none" />
<circle cx="260.68248800000003" cy="688.959558" r="5" fill="black" stroke="none" />
<circle cx="380.68248800000003" cy="608.959558" r="5" fill="black" stroke="none" />
<path d="M380.68248800000003,608.959558 L403.6031796655406,588.0286117284118" stroke="grey" stroke-width="5" />
<circle cx="403.6031796655406" cy="588.0286117284118" r="2.5" fill="grey" stroke="none" />
<path d="M403.6031796655406,588.0286117284118 A130.54264994026093,130.54264994026093,0,0,1,380.68248800000003,552.959558" stroke="grey" stroke-width="5" fill="none" />
<circle cx="380.68248800000003" cy="608.959558" r="5" fill="black" stroke="none" />
<circle cx="380.68248800000003" cy="552.959558" r="5" fill="black" stroke="none" />
<path d="M380.68248800000003,552.959558 A130.54264994026093,130.54264994026093,0,0,1,372.98027241030974,530.1226203452884" stroke="grey" stroke-width="5" fill="none" />
<path d="M372.98027241030974,530.1226203452884 L276.68248800000003,552.959558" stroke="grey" stroke-width="5" />
<circle cx="372.98027241030974" cy="530.1226203452884" r="2.5" fill="grey" stroke="none" />
<circle cx="380.68248800000003" cy="552.959558" r="5" fill="black" stroke="none" />
<circle cx="276.68248800000003" cy="552.959558" r="5" fill="black" stroke="none" />
<path d="M276.68248800000003,552.959558 L314.84491865303846,543.9093700344876" stroke="grey" stroke-width="5" />
<circle cx="314.84491865303846" cy="543.9093700344876" r="2.5" fill="grey" stroke="none" />
<path d="M314.84491865303846,543.9093700344876 A190.29040155884243,190.29040155884243,0,0,1,316.68248800000003,448.95955799999996" stroke="grey" stroke-width="5" fill="none" />
<circle cx="276.68248800000003" cy="552.959558" r="5" fill="black" stroke="none" />
<circle cx="316.68248800000003" cy="448.959558" r="5" fill="black" stroke="none" />
<path d="M316.68248800000003,448.959558 L349.46206357915474,458.08625848747147" stroke="grey" stroke-width="5" />
<circle cx="349.46206357915474" cy="458.08625848747147" r="2.5" fill="grey" stroke="none" />
<path d="M349.46206357915474,458.08625848747147 A156.26398186858515,156.26398186858515,0,0,1,428.682488,360.959558" stroke="grey" stroke-width="5" fill="none" />
<circle cx="316.68248800000003" cy="448.959558" r="5" fill="black" stroke="none" />
<circle cx="428.68248800000003" cy="360.959558" r="5" fill="black" stroke="none" />
<path d="M428.68248800000003,360.959558 L446.42890300462693,395.5579240529094" stroke="grey" stroke-width="5" />
<circle cx="446.42890300462693" cy="395.5579240529094" r="2.5" fill="grey" stroke="none" />
<path d="M446.42890300462693,395.5579240529094 A117.37976683153494,117.37976683153494,0,0,1,476.68248800000003,384.959558" stroke="grey" stroke-width="5" fill="none" />
<circle cx="428.68248800000003" cy="360.959558" r="5" fill="black" stroke="none" />
<circle cx="476.68248800000003" cy="384.959558" r="5" fill="black" stroke="none" />
<path d="M476.68248800000003,384.959558 A117.37976683153494,117.37976683153494,0,0,0,434.9164525499755,402.31611436502993" stroke="grey" stroke-width="5" fill="none" />
<path d="M434.9164525499755,402.31611436502993 L428.68248800000003,392.959558" stroke="grey" stroke-width="5" />
<circle cx="434.9164525499755" cy="402.31611436502993" r="2.5" fill="grey" stroke="none" />
<circle cx="476.68248800000003" cy="384.959558" r="5" fill="black" stroke="none" />
<circle cx="428.68248800000003" cy="392.959558" r="5" fill="black" stroke="none" />
<path d="M428.68248800000003,360.959558 L441.2976473700307,385.5540409750862" stroke="grey" stroke-width="5" />
<circle cx="441.2976473700307" cy="385.5540409750862" r="2.5" fill="grey" stroke="none" />
<path d="M441.2976473700307,385.5540409750862 A128.62287409876018,128.62287409876018,0,0,0,428.68248800000003,392.95955799999996" stroke="grey" stroke-width="5" fill="none" />
<circle cx="428.68248800000003" cy="360.959558" r="5" fill="black" stroke="none" />
<circle cx="428.68248800000003" cy="392.959558" r="5" fill="black" stroke="none" />
<path d="M428.68248800000003,392.959558 L433.7849040700167,400.6177734380608" stroke="grey" stroke-width="5" />
<circle cx="433.7849040700167" cy="400.6177734380608" r="2.5" fill="grey" stroke="none" />
<path d="M433.7849040700167,400.6177734380608 A119.42054214173334,119.42054214173334,0,0,0,380.68248800000003,504.959558" stroke="grey" stroke-width="5" fill="none" />
<circle cx="428.68248800000003" cy="392.959558" r="5" fill="black" stroke="none" />
<circle cx="380.68248800000003" cy="504.959558" r="5" fill="black" stroke="none" />
<path d="M316.68248800000003,448.959558 L384.9554339694627,467.9685511993158" stroke="grey" stroke-width="5" />
<circle cx="384.9554339694627" cy="467.9685511993158" r="2.5" fill="grey" stroke="none" />
<path d="M384.9554339694627,467.9685511993158 A119.42054214173334,119.42054214173334,0,0,0,380.68248800000003,504.959558" stroke="grey" stroke-width="5" fill="none" />
<circle cx="316.68248800000003" cy="448.959558" r="5" fill="black" stroke="none" />
<circle cx="380.68248800000003" cy="504.959558" r="5" fill="black" stroke="none" />
<path d="M380.68248800000003,504.959558 A119.42054214173334,119.42054214173334,0,0,0,390.8482248785098,548.4474547654792" stroke="grey" stroke-width="5" fill="none" />
<path d="M390.8482248785098,548.4474547654792 L380.68248800000003,552.959558" stroke="grey" stroke-width="5" />
<circle cx="390.8482248785098" cy="548.4474547654792" r="2.5" fill="grey" stroke="none" />
<circle cx="380.68248800000003" cy="504.959558" r="5" fill="black" stroke="none" />
<circle cx="380.68248800000003" cy="552.959558" r="5" fill="black" stroke="none" />
<path d="M476.68248800000003,384.959558 A117.37976683153494,117.37976683153494,0,0,1,512.557679329928,383.2938975405647" stroke="grey" stroke-width="5" fill="none" />
<path d="M512.557679329928,383.2938975405647 L516.682488,344.959558" stroke="grey" stroke-width="5" />
<circle cx="512.557679329928" cy="383.2938975405647" r="2.5" fill="grey" stroke="none" />
<circle cx="476.68248800000003" cy="384.959558" r="5" fill="black" stroke="none" />
<circle cx="516.682488" cy="344.959558" r="5" fill="black" stroke="none" />
<path d="M476.68248800000003,384.959558 L488.73747730773175,444.43465544035877" stroke="grey" stroke-width="5" />
<circle cx="488.73747730773175" cy="444.43465544035877" r="2.5" fill="grey" stroke="none" />
<path d="M488.73747730773175,444.43465544035877 A56.695254946296075,56.695254946296075,0,0,1,524.682488,448.959558" stroke="grey" stroke-width="5" fill="none" />
<circle cx="476.68248800000003" cy="384.959558" r="5" fill="black" stroke="none" />
<circle cx="524.682488" cy="448.959558" r="5" fill="black" stroke="none" />
<path d="M428.68248800000003,392.959558 L468.88621874194405,453.3013308406829" stroke="grey" stroke-width="5" />
<circle cx="468.88621874194405" cy="453.3013308406829" r="2.5" fill="grey" stroke="none" />
<path d="M468.88621874194405,453.3013308406829 A56.11446413738181,56.11446413738181,0,0,1,476.68248800000003,448.95955799999996" stroke="grey" stroke-width="5" fill="none" />
<circle cx="428.68248800000003" cy="392.959558" r="5" fill="black" stroke="none" />
<circle cx="476.68248800000003" cy="448.959558" r="5" fill="black" stroke="none" />
<path d="M380.68248800000003,504.959558 L428.5719251791275,502.96898312715786" stroke="grey" stroke-width="5" />
<circle cx="428.5719251791275" cy="502.96898312715786" r="2.5" fill="grey" stroke="none" />
<path d="M428.5719251791275,502.96898312715786 A71.48975264627447,71.48975264627447,0,0,0,428.68248800000003,504.959558" stroke="grey" stroke-width="5" fill="none" />
<circle cx="380.68248800000003" cy="504.959558" r="5" fill="black" stroke="none" />
<circle cx="428.68248800000003" cy="504.959558" r="5" fill="black" stroke="none" />
<path d="M380.68248800000003,552.959558 L447.11021486270323,523.4753440348824" stroke="grey" stroke-width="5" />
<circle cx="447.11021486270323" cy="523.4753440348824" r="2.5" fill="grey" stroke="none" />
<path d="M447.11021486270323,523.4753440348824 A57.865543714938916,57.865543714938916,0,0,0,476.68248800000003,552.959558" stroke="grey" stroke-width="5" fill="none" />
<circle cx="380.68248800000003" cy="552.959558" r="5" fill="black" stroke="none" />
<circle cx="476.68248800000003" cy="552.959558" r="5" fill="black" stroke="none" />
<path d="M380.68248800000003,608.959558 L417.7190605991376,575.1381305113264" stroke="grey" stroke-width="5" />
<circle cx="417.7190605991376" cy="575.1381305113264" r="2.5" fill="grey" stroke="none" />
<path d="M417.7190605991376,575.1381305113264 A111.42662000359476,111.42662000359476,0,0,0,476.68248800000003,608.959558" stroke="grey" stroke-width="5" fill="none" />
<circle cx="380.68248800000003" cy="608.959558" r="5" fill="black" stroke="none" />
<circle cx="476.68248800000003" cy="608.959558" r="5" fill="black" stroke="none" />
<path d="M524.682488,448.959558 L524.4296385827937,449.4824204445662" stroke="grey" stroke-width="5" />
<circle cx="524.4296385827937" cy="449.4824204445662" r="2.5" fill="grey" stroke="none" />
<path d="M524.4296385827937,449.4824204445662 A56.11446413738181,56.11446413738181,0,0,0,476.68248800000003,448.95955799999996" stroke="grey" stroke-width="5" fill="none" />
<circle cx="524.682488" cy="448.959558" r="5" fill="black" stroke="none" />
<circle cx="476.68248800000003" cy="448.959558" r="5" fill="black" stroke="none" />
<path d="M476.68248800000003,448.95955799999996 A56.11446413738181,56.11446413738181,0,0,0,444.0207327434382,503.8929067345538" stroke="grey" stroke-width="5" fill="none" />
<path d="M444.0207327434382,503.8929067345538 L428.68248800000003,504.959558" stroke="grey" stroke-width="5" />
<circle cx="444.0207327434382" cy="503.8929067345538" r="2.5" fill="grey" stroke="none" />
<circle cx="476.68248800000003" cy="448.959558" r="5" fill="black" stroke="none" />
<circle cx="428.68248800000003" cy="504.959558" r="5" fill="black" stroke="none" />
<path d="M428.68248800000003,504.959558 L442.273872051343,504.0143868125515" stroke="grey" stroke-width="5" />
<circle cx="442.273872051343" cy="504.0143868125515" r="2.5" fill="grey" stroke="none" />
<path d="M442.273872051343,504.01438681255155 A57.865543714938916,57.865543714938916,0,0,0,476.68248800000003,552.959558" stroke="grey" stroke-width="5" fill="none" />
<circle cx="428.68248800000003" cy="504.959558" r="5" fill="black" stroke="none" />
<circle cx="476.68248800000003" cy="552.959558" r="5" fill="black" stroke="none" />
<path d="M476.68248800000003,552.959558 A57.865543714938916,57.865543714938916,0,0,0,487.8908602817165,556.5843607784748" stroke="grey" stroke-width="5" fill="none" />
<path d="M487.8908602817165,556.5843607784748 L476.68248800000003,608.959558" stroke="grey" stroke-width="5" />
<circle cx="487.8908602817165" cy="556.5843607784748" r="2.5" fill="grey" stroke="none" />
<circle cx="476.68248800000003" cy="552.959558" r="5" fill="black" stroke="none" />
<circle cx="476.68248800000003" cy="608.959558" r="5" fill="black" stroke="none" />
<path d="M476.68248800000003,608.959558 A111.42662000359476,111.42662000359476,0,0,0,527.7995508236584,607.903089017082" stroke="grey" stroke-width="5" fill="none" />
<path d="M527.7995508236584,607.903089017082 L548.682488,688.959558" stroke="grey" stroke-width="5" />
<circle cx="527.7995508236584" cy="607.903089017082" r="2.5" fill="grey" stroke="none" />
<circle cx="476.68248800000003" cy="608.959558" r="5" fill="black" stroke="none" />
<circle cx="548.682488" cy="688.959558" r="5" fill="black" stroke="none" />
<path d="M524.682488,448.959558 L511.7759050246264,475.64883258904234" stroke="grey" stroke-width="5" />
<circle cx="511.7759050246264" cy="475.64883258904234" r="2.5" fill="grey" stroke="none" />
<path d="M511.7759050246264,475.64883258904234 A27.049053466350884,27.049053466350884,0,0,0,500.682488,472.959558" stroke="grey" stroke-width="5" fill="none" />
<circle cx="524.682488" cy="448.959558" r="5" fill="black" stroke="none" />
<circle cx="500.68248800000003" cy="472.959558" r="5" fill="black" stroke="none" />
<path d="M500.68248800000003,472.959558 L500.6014965543378,476.168470814473" stroke="grey" stroke-width="5" />
<circle cx="500.6014965543378" cy="476.168470814473" r="2.5" fill="grey" stroke="none" />
<path d="M500.6014965543378,476.168470814473 A23.83911872166225,23.83911872166225,0,0,0,476.68248800000003,504.95955799999996" stroke="grey" stroke-width="5" fill="none" />
<circle cx="500.68248800000003" cy="472.959558" r="5" fill="black" stroke="none" />
<circle cx="476.68248800000003" cy="504.959558" r="5" fill="black" stroke="none" />
<path d="M476.68248800000003,504.95955799999996 A23.83911872166225,23.83911872166225,0,0,0,490.3937835683331,521.8179785336195" stroke="grey" stroke-width="5" fill="none" />
<path d="M490.3937835683331,521.8179785336195 L476.68248800000003,552.959558" stroke="grey" stroke-width="5" />
<circle cx="490.3937835683331" cy="521.8179785336195" r="2.5" fill="grey" stroke="none" />
<circle cx="476.68248800000003" cy="504.959558" r="5" fill="black" stroke="none" />
<circle cx="476.68248800000003" cy="552.959558" r="5" fill="black" stroke="none" />
<path d="M476.68248800000003,448.959558 L488.76017728252504,475.3967953570019" stroke="grey" stroke-width="5" />
<circle cx="488.76017728252504" cy="475.3967953570019" r="2.5" fill="grey" stroke="none" />
<path d="M488.76017728252504,475.3967953570019 A27.049053466350884,27.049053466350884,0,0,1,500.682488,472.959558" stroke="grey" stroke-width="5" fill="none" />
<circle cx="476.68248800000003" cy="448.959558" r="5" fill="black" stroke="none" />
<circle cx="500.68248800000003" cy="472.959558" r="5" fill="black" stroke="none" />
<path d="M428.68248800000003,504.959558 L476.2183169955314,501.65382432575996" stroke="grey" stroke-width="5" />
<circle cx="476.2183169955314" cy="501.65382432575996" r="2.5" fill="grey" stroke="none" />
<path d="M476.2183169955314,501.65382432575996 A23.83911872166225,23.83911872166225,0,0,0,476.68248800000003,504.95955799999996" stroke="grey" stroke-width="5" fill="none" />
<circle cx="428.68248800000003" cy="504.959558" r="5" fill="black" stroke="none" />
<circle cx="476.68248800000003" cy="504.959558" r="5" fill="black" stroke="none" />
<path d="M524.682488,448.959558 L510.96039040555104,477.335219577869" stroke="grey" stroke-width="5" />
<circle cx="510.96039040555104" cy="477.335219577869" r="2.5" fill="grey" stroke="none" />
<path d="M510.96039040555104,477.335219577869 A25.175830262883252,25.175830262883252,0,0,1,524.682488,504.959558" stroke="grey" stroke-width="5" fill="none" />
<circle cx="524.682488" cy="448.959558" r="5" fill="black" stroke="none" />
<circle cx="524.682488" cy="504.959558" r="5" fill="black" stroke="none" />
<path d="M500.68248800000003,472.959558 L500.6352237820754,474.8321848351472" stroke="grey" stroke-width="5" />
<circle cx="500.6352237820754" cy="474.8321848351472" r="2.5" fill="grey" stroke="none" />
<path d="M500.6352237820754,474.8321848351472 A25.175830262883252,25.175830262883252,0,0,1,524.682488,504.959558" stroke="grey" stroke-width="5" fill="none" />
<circle cx="500.68248800000003" cy="472.959558" r="5" fill="black" stroke="none" />
<circle cx="524.682488" cy="504.959558" r="5" fill="black" stroke="none" />
<path d="M476.68248800000003,504.95955799999996 A23.83911872166225,23.83911872166225,0,0,0,523.3719704825583,504.69623010381025" stroke="grey" stroke-width="5" fill="none" />
<path d="M523.3719704825583,504.69623010381025 L524.682488,504.959558" stroke="grey" stroke-width="5" />
<circle cx="523.3719704825583" cy="504.69623010381025" r="2.5" fill="grey" stroke="none" />
<circle cx="476.68248800000003" cy="504.959558" r="5" fill="black" stroke="none" />
<circle cx="524.682488" cy="504.959558" r="5" fill="black" stroke="none" />
<path d="M476.68248800000003,552.959558 L489.855141996822,523.041360322708" stroke="grey" stroke-width="5" />
<circle cx="489.855141996822" cy="523.041360322708" r="2.5" fill="grey" stroke="none" />
<path d="M489.855141996822,523.041360322708 A25.175830262883252,25.175830262883252,0,0,0,524.682488,504.959558" stroke="grey" stroke-width="5" fill="none" />
<circle cx="476.68248800000003" cy="552.959558" r="5" fill="black" stroke="none" />
<circle cx="524.682488" cy="504.959558" r="5" fill="black" stroke="none" />
<path d="M524.682488,504.959558 A25.175830262883252,25.175830262883252,0,0,1,507.68864287138695,523.9730515417161" stroke="grey" stroke-width="5" fill="none" />
<path d="M507.68864287138695,523.9730515417161 L524.682488,576.959558" stroke="grey" stroke-width="5" />
<circle cx="507.68864287138695" cy="523.9730515417161" r="2.5" fill="grey" stroke="none" />
<circle cx="524.682488" cy="504.959558" r="5" fill="black" stroke="none" />
<circle cx="524.682488" cy="576.959558" r="5" fill="black" stroke="none" />
<path d="M524.682488,576.959558 A80.82078186596259,80.82078186596259,0,0,1,483.08716937704685,579.0313541687399" stroke="grey" stroke-width="5" fill="none" />
<path d="M483.08716937704685,579.0313541687399 L476.68248800000003,608.959558" stroke="grey" stroke-width="5" />
<circle cx="483.08716937704685" cy="579.0313541687399" r="2.5" fill="grey" stroke="none" />
<circle cx="524.682488" cy="576.959558" r="5" fill="black" stroke="none" />
<circle cx="476.68248800000003" cy="608.959558" r="5" fill="black" stroke="none" />
<path d="M524.682488,448.959558 A56.695254946296075,56.695254946296075,0,0,1,536.2093460322295,456.37391613559873" stroke="grey" stroke-width="5" fill="none" />
<path d="M536.2093460322295,456.37391613559873 L628.682488,344.959558" stroke="grey" stroke-width="5" />
<circle cx="536.2093460322295" cy="456.37391613559873" r="2.5" fill="grey" stroke="none" />
<circle cx="524.682488" cy="448.959558" r="5" fill="black" stroke="none" />
<circle cx="628.682488" cy="344.959558" r="5" fill="black" stroke="none" />
<path d="M524.682488,448.959558 A56.695254946296075,56.695254946296075,0,0,1,555.8265075633566,490.11298899039747" stroke="grey" stroke-width="5" fill="none" />
<path d="M555.8265075633566,490.11298899039747 L652.682488,472.959558" stroke="grey" stroke-width="5" />
<circle cx="555.8265075633566" cy="490.11298899039747" r="2.5" fill="grey" stroke="none" />
<circle cx="524.682488" cy="448.959558" r="5" fill="black" stroke="none" />
<circle cx="652.682488" cy="472.959558" r="5" fill="black" stroke="none" />
<path d="M652.682488,472.95955799999996 A155.05846524916177,155.05846524916177,0,0,1,654.0890355470166,482.6882476445688" stroke="grey" stroke-width="5" fill="none" />
<path d="M654.0890355470166,482.6882476445688 L740.682488,472.959558" stroke="grey" stroke-width="5" />
<circle cx="654.0890355470166" cy="482.6882476445688" r="2.5" fill="grey" stroke="none" />
<circle cx="652.682488" cy="472.959558" r="5" fill="black" stroke="none" />
<circle cx="740.682488" cy="472.959558" r="5" fill="black" stroke="none" />
<path d="M524.682488,504.959558 A25.175830262883252,25.175830262883252,0,0,1,515.8921861002412,519.5259020375706" stroke="grey" stroke-width="5" fill="none" />
<path d="M515.8921861002412,519.5259020375706 L588.682488,608.959558" stroke="grey" stroke-width="5" />
<circle cx="515.8921861002412" cy="519.5259020375706" r="2.5" fill="grey" stroke="none" />
<circle cx="524.682488" cy="504.959558" r="5" fill="black" stroke="none" />
<circle cx="588.682488" cy="608.959558" r="5" fill="black" stroke="none" />
<circle cx="500" cy="500" r="5" fill="red" stroke="none" />
</svg>