<?xml version="1.0" encoding="UTF-8"?>
<svg xmlns="http://www.w3.org/2000/svg" xmlns:xlink="http://www.w3.org/1999/xlink"
     width="1000" height="1000" viewBox="0 0 1000 1000">
<defs>
</defs>
<rect x="0" y="0" width="1000" height="1000" fill="white" />
<path d="M257.05239200000005,693.968922 L368.9885129190229,604.599329575264" stroke="grey" stroke-width="5" />
<circle cx="368.9885129190229" cy="604.599329575264" r="2.5" fill="grey" stroke="none" />
<path d="M368.9885129190229,604.5993295752642 A167.64554719635038,167.64554719635038,0,0,0,377.052392,613.968922" stroke="grey" stroke-width="5" fill="none" />
<circle cx="257.05239200000005" cy="693.968922" r="5" fill="black" stroke="none" />
<circle cx="377.05239200000005" cy="613.968922" r="5" fill="black" stroke="none" />
<path d="M377.05239200000005,613.968922 L400.31311292604397,592.406897882507" stroke="grey" stroke-width="5" />
<circle cx="400.31311292604397" cy="592.406897882507" r="2.5" fill="grey" stroke="none" />
<path d="M400.31311292604397,592.406897882507 A135.9283275508227,135.9283275508227,0,0,1,377.05239200000005,557.9689220000001" stroke="grey" stroke-width="5" fill="none" />
<circle cx="377.05239200000005" cy="613.968922" r="5" fill="black" stroke="none" />
<circle cx="377.05239200000005" cy="557.968922" r="5" fill="black" stroke="none" />
<path d="M377.05239200000005,557.9689220000001 A135.9283275508227,135.9283275508227,0,0,1,368.30009357144127,533.6399298077838" stroke="grey" stroke-width="5" fill="none" />
<path d="M368.30009357144127,533.6399298077838 L-226.94760799999997,57.96892200000002" stroke="grey" stroke-width="5" />
<circle cx="368.30009357144127" cy="533.6399298077838" r="2.5" fill="grey" stroke="none" />
<circle cx="377.05239200000005" cy="557.968922" r="5" fill="black" stroke="none" />
<circle cx="273.05239200000005" cy="557.968922" r="5" fill="black" stroke="none" />
<path d="M273.05239200000005,557.968922 L313.45799440049586,547.6481733718965" stroke="grey" stroke-width="5" />
<circle cx="313.45799440049586" cy="547.6481733718965" r="2.5" fill="grey" stroke="none" />
<path d="M313.45799440049586,547.6481733718965 A192.53121377782807,192.53121377782807,0,0,1,313.05239200000005,453.968922" stroke="grey" stroke-width="5" fill="none" />
<circle cx="273.05239200000005" cy="557.968922" r="5" fill="black" stroke="none" />
<circle cx="313.05239200000005" cy="453.968922" r="5" fill="black" stroke="none" />
<path d="M313.05239200000005,453.968922 L350.8908700188798,463.2856816618211" stroke="grey" stroke-width="5" />
<circle cx="350.8908700188798" cy="463.2856816618211" r="2.5" fill="grey" stroke="none" />
<path d="M350.8908700188798,463.2856816618211 A153.56260552218998,153.56260552218998,0,0,1,425.05239200000005,365.968922" stroke="grey" stroke-width="5" fill="none" />
<circle cx="313.05239200000005" cy="453.968922" r="5" fill="black" stroke="none" />
<circle cx="425.05239200000005" cy="365.968922" r="5" fill="black" stroke="none" />
<path d="M425.05239200000005,365.968922 L444.7112718641963,401.1254924467943" stroke="grey" stroke-width="5" />
<circle cx="444.7112718641963" cy="401.1254924467943" r="2.5" fill="grey" stroke="none" />
<path d="M444.7112718641963,401.1254924467943 A113.28288353835164,113.28288353835164,0,0,1,473.052392,389.968922" stroke="grey" stroke-width="5" fill="none" />
<circle cx="425.05239200000005" cy="365.968922" r="5" fill="black" stroke="none" />
<circle cx="473.05239200000005" cy="389.968922" r="5" fill="black" stroke="none" />
<path d="M473.052392,389.968922 A113.28288353835164,113.28288353835164,0,0,0,432.9360105810825,408.7014073165251" stroke="grey" stroke-width="5" fill="none" />
<path d="M432.9360105810825,408.7014073165251 L-74.94760799999997,-102.03107799999998" stroke="grey" stroke-width="5" />
<circle cx="432.9360105810825" cy="408.7014073165251" r="2.5" fill="grey" stroke="none" />
<circle cx="473.05239200000005" cy="389.968922" r="5" fill="black" stroke="none" />
<circle cx="425.05239200000005" cy="397.968922" r="5" fill="black" stroke="none" />
<path d="M425.05239200000005,365.968922 L438.21187854995236,389.5024304772367" stroke="grey" stroke-width="5" />
<circle cx="438.21187854995236" cy="389.5024304772367" r="2.5" fill="grey" stroke="none" />
<path d="M438.21187854995236,389.5024304772367 A126.59970309113581,126.59970309113581,0,0,0,425.05239200000005,397.968922" stroke="grey" stroke-width="5" fill="none" />
<circle cx="425.05239200000005" cy="365.968922" r="5" fill="black" stroke="none" />
<circle cx="425.05239200000005" cy="397.968922" r="5" fill="black" stroke="none" />
<path d="M425.05239200000005,397.968922 L426.9755803755653,400.58708405202964" stroke="grey" stroke-width="5" />
<circle cx="426.9755803755653" cy="400.58708405202964" r="2.5" fill="grey" stroke="none" />
<path d="M426.9755803755653,400.58708405202964 A123.35109938206365,123.35109938206365,0,0,0,377.05239200000005,509.9689220000001" stroke="grey" stroke-width="5" fill="none" />
<circle cx="425.05239200000005" cy="397.968922" r="5" fill="black" stroke="none" />
<circle cx="377.05239200000005" cy="509.968922" r="5" fill="black" stroke="none" />
<path d="M313.05239200000005,453.968922 L380.2262110067127,470.5087608101113" stroke="grey" stroke-width="5" />
<circle cx="380.2262110067127" cy="470.5087608101113" r="2.5" fill="grey" stroke="none" />
<path d="M380.2262110067127,470.5087608101113 A123.35109938206365,123.35109938206365,0,0,0,377.05239200000005,509.9689220000001" stroke="grey" stroke-width="5" fill="none" />
<circle cx="313.05239200000005" cy="453.968922" r="5" fill="black" stroke="none" />
<circle cx="377.05239200000005" cy="509.968922" r="5" fill="black" stroke="none" />
<path d="M377.05239200000005,509.9689220000001 A123.35109938206365,123.35109938206365,0,0,0,388.42853519606035,552.6051514613065" stroke="grey" stroke-width="5" fill="none" />
<path d="M388.4285351960603,552.6051514613065 L-122.94760799999997,57.96892200000002" stroke="grey" stroke-width="5" />
<circle cx="388.4285351960603" cy="552.6051514613065" r="2.5" fill="grey" stroke="none" />
<circle cx="377.05239200000005" cy="509.968922" r="5" fill="black" stroke="none" />
<circle cx="377.05239200000005" cy="557.968922" r="5" fill="black" stroke="none" />
<path d="M473.052392,389.968922 A113.28288353835164,113.28288353835164,0,0,1,509.8182899460566,387.1433968024072" stroke="grey" stroke-width="5" fill="none" />
<path d="M509.8182899460566,387.1433968024072 L13.052392000000026,-150.03107799999998" stroke="grey" stroke-width="5" />
<circle cx="509.8182899460566" cy="387.1433968024072" r="2.5" fill="grey" stroke="none" />
<circle cx="473.05239200000005" cy="389.968922" r="5" fill="black" stroke="none" />
<circle cx="513.052392" cy="349.968922" r="5" fill="black" stroke="none" />
<path d="M473.05239200000005,389.968922 L487.9593243371218,450.8361364379779" stroke="grey" stroke-width="5" />
<circle cx="487.9593243371218" cy="450.8361364379779" r="2.5" fill="grey" stroke="none" />
<path d="M487.9593243371218,450.836136437978 A50.61682873080599,50.61682873080599,0,0,1,521.052392,453.968922" stroke="grey" stroke-width="5" fill="none" />
<circle cx="473.05239200000005" cy="389.968922" r="5" fill="black" stroke="none" />
<circle cx="521.052392" cy="453.968922" r="5" fill="black" stroke="none" />
<path d="M425.05239200000005,397.968922 L468.4231504101606,457.0123705149446" stroke="grey" stroke-width="5" />
<circle cx="468.4231504101606" cy="457.0123705149446" r="2.5" fill="grey" stroke="none" />
<path d="M468.4231504101606,457.0123705149446 A53.338857493985984,53.338857493985984,0,0,1,473.052392,453.968922" stroke="grey" stroke-width="5" fill="none" />
<circle cx="425.05239200000005" cy="397.968922" r="5" fill="black" stroke="none" />
<circle cx="473.05239200000005" cy="453.968922" r="5" fill="black" stroke="none" />
<path d="M377.05239200000005,509.968922 L424.639625129098,506.1104214323453" stroke="grey" stroke-width="5" />
<circle cx="424.639625129098" cy="506.1104214323453" r="2.5" fill="grey" stroke="none" />
<path d="M424.639625129098,506.1104214323453 A75.60769372731683,75.60769372731683,0,0,0,425.05239200000005,509.9689220000001" stroke="grey" stroke-width="5" fill="none" />
<circle cx="377.05239200000005" cy="509.968922" r="5" fill="black" stroke="none" />
<circle cx="425.05239200000005" cy="509.968922" r="5" fill="black" stroke="none" />
<path d="M377.05239200000005,557.968922 L442.1784732613589,527.2624382690975" stroke="grey" stroke-width="5" />
<circle cx="442.1784732613589" cy="527.2624382690975" r="2.5" fill="grey" stroke="none" />
<path d="M442.1784732613589,527.2624382690976 A63.92628172171246,63.92628172171246,0,0,0,473.052392,557.968922" stroke="grey" stroke-width="5" fill="none" />
<circle cx="377.05239200000005" cy="557.968922" r="5" fill="black" stroke="none" />
<circle cx="473.05239200000005" cy="557.968922" r="5" fill="black" stroke="none" />
<path d="M377.05239200000005,613.968922 L414.1130120499695,579.6147854335806" stroke="grey" stroke-width="5" />
<circle cx="414.1130120499695" cy="579.6147854335806" r="2.5" fill="grey" stroke="none" />
<path d="M414.1130120499695,579.6147854335806 A117.11143735247958,117.11143735247958,0,0,0,473.05239200000005,613.968922" stroke="grey" stroke-width="5" fill="none" />
<circle cx="377.05239200000005" cy="613.968922" r="5" fill="black" stroke="none" />
<circle cx="473.05239200000005" cy="613.968922" r="5" fill="black" stroke="none" />
<path d="M521.052392,453.968922 A50.61682873080599,50.61682873080599,0,0,0,474.4276026348204,456.31801465408074" stroke="grey" stroke-width="5" fill="none" />
<path d="M474.4276026348204,456.31801465408074 L-26.947607999999974,-46.03107799999998" stroke="grey" stroke-width="5" />
<circle cx="474.4276026348204" cy="456.31801465408074" r="2.5" fill="grey" stroke="none" />
<circle cx="521.052392" cy="453.968922" r="5" fill="black" stroke="none" />
<circle cx="473.05239200000005" cy="453.968922" r="5" fill="black" stroke="none" />
<path d="M473.052392,453.968922 A53.338857493985984,53.338857493985984,0,0,0,447.12681229181845,507.0327619282289" stroke="grey" stroke-width="5" fill="none" />
<path d="M447.12681229181845,507.03276192822887 L-74.94760799999997,9.96892200000002" stroke="grey" stroke-width="5" />
<circle cx="447.12681229181845" cy="507.03276192822887" r="2.5" fill="grey" stroke="none" />
<circle cx="473.05239200000005" cy="453.968922" r="5" fill="black" stroke="none" />
<circle cx="425.05239200000005" cy="509.968922" r="5" fill="black" stroke="none" />
<path d="M425.05239200000005,509.968922 L436.63182055709956,508.4287204756192" stroke="grey" stroke-width="5" />
<circle cx="436.63182055709956" cy="508.4287204756192" r="2.5" fill="grey" stroke="none" />
<path d="M436.63182055709956,508.42872047561923 A63.92628172171246,63.92628172171246,0,0,0,473.052392,557.968922" stroke="grey" stroke-width="5" fill="none" />
<circle cx="425.05239200000005" cy="509.968922" r="5" fill="black" stroke="none" />
<circle cx="473.05239200000005" cy="557.968922" r="5" fill="black" stroke="none" />
<path d="M473.052392,557.968922 A63.92628172171246,63.92628172171246,0,0,0,485.2904172326957,562.2109127852627" stroke="grey" stroke-width="5" fill="none" />
<path d="M485.2904172326957,562.2109127852627 L-26.947607999999974,113.96892200000002" stroke="grey" stroke-width="5" />
<circle cx="485.2904172326957" cy="562.2109127852627" r="2.5" fill="grey" stroke="none" />
<circle cx="473.05239200000005" cy="557.968922" r="5" fill="black" stroke="none" />
<circle cx="473.05239200000005" cy="613.968922" r="5" fill="black" stroke="none" />
<path d="M473.05239200000005,613.968922 A117.11143735247958,117.11143735247958,0,0,0,526.4957075942283,614.0748273627662" stroke="grey" stroke-width="5" fill="none" />
<path d="M526.4957075942283,614.0748273627662 L45.052392000000026,193.96892200000002" stroke="grey" stroke-width="5" />
<circle cx="526.4957075942283" cy="614.0748273627662" r="2.5" fill="grey" stroke="none" />
<circle cx="473.05239200000005" cy="613.968922" r="5" fill="black" stroke="none" />
<circle cx="545.052392" cy="693.968922" r="5" fill="black" stroke="none" />
<path d="M521.052392,453.968922 L509.24474534300697,479.7863542549421" stroke="grey" stroke-width="5" />
<circle cx="509.24474534300697" cy="479.7863542549421" r="2.5" fill="grey" stroke="none" />
<path d="M509.24474534300697,479.7863542549421 A22.227388302806673,22.227388302806673,0,0,0,497.05239200000005,477.968922" stroke="grey" stroke-width="5" fill="none" />
<circle cx="521.052392" cy="453.968922" r="5" fill="black" stroke="none" />
<circle cx="497.05239200000005" cy="477.968922" r="5" fill="black" stroke="none" />
<path d="M497.05239200000005,477.968922 A22.227388302806673,22.227388302806673,0,0,0,479.1533544520307,507.7119491804005" stroke="grey" stroke-width="5" fill="none" />
<path d="M479.1533544520307,507.7119491804005 L-26.947607999999974,9.96892200000002" stroke="grey" stroke-width="5" />
<circle cx="479.1533544520307" cy="507.7119491804005" r="2.5" fill="grey" stroke="none" />
<circle cx="497.05239200000005" cy="477.968922" r="5" fill="black" stroke="none" />
<circle cx="473.05239200000005" cy="509.968922" r="5" fill="black" stroke="none" />
<path d="M473.05239200000005,509.968922 A28.732437814493693,28.732437814493693,0,0,0,487.88807278859184,526.0548306843338" stroke="grey" stroke-width="5" fill="none" />
<path d="M487.88807278859184,526.0548306843338 L-26.947607999999974,57.96892200000002" stroke="grey" stroke-width="5" />
<circle cx="487.88807278859184" cy="526.0548306843338" r="2.5" fill="grey" stroke="none" />
<circle cx="473.05239200000005" cy="509.968922" r="5" fill="black" stroke="none" />
<circle cx="473.05239200000005" cy="557.968922" r="5" fill="black" stroke="none" />
<path d="M473.05239200000005,453.968922 L488.770382888022,480.8179122543421" stroke="grey" stroke-width="5" />
<circle cx="488.770382888022" cy="480.8179122543421" r="2.5" fill="grey" stroke="none" />
<path d="M488.770382888022,480.8179122543421 A22.227388302806673,22.227388302806673,0,0,1,497.05239200000005,477.968922" stroke="grey" stroke-width="5" fill="none" />
<circle cx="473.05239200000005" cy="453.968922" r="5" fill="black" stroke="none" />
<circle cx="497.05239200000005" cy="477.968922" r="5" fill="black" stroke="none" />
<path d="M425.05239200000005,509.968922 L471.51840798144826,503.78839000797416" stroke="grey" stroke-width="5" />
<circle cx="471.51840798144826" cy="503.78839000797416" r="2.5" fill="grey" stroke="none" />
<path d="M471.51840798144826,503.7883900079742 A28.732437814493693,28.732437814493693,0,0,0,473.05239200000005,509.968922" stroke="grey" stroke-width="5" fill="none" />
<circle cx="425.05239200000005" cy="509.968922" r="5" fill="black" stroke="none" />
<circle cx="473.05239200000005" cy="509.968922" r="5" fill="black" stroke="none" />
<path d="M521.052392,453.968922 L509.6881187423108,478.816917835248" stroke="grey" stroke-width="5" />
<circle cx="509.6881187423108" cy="478.816917835248" r="2.5" fill="grey" stroke="none" />
<path d="M509.6881187423108,478.816917835248 A23.293402816328694,23.293402816328694,0,0,1,521.052392,509.968922" stroke="grey" stroke-width="5" fill="none" />
<circle cx="521.052392" cy="453.968922" r="5" fill="black" stroke="none" />
<circle cx="521.052392" cy="509.968922" r="5" fill="black" stroke="none" />
<path d="M497.05239200000005,477.968922 A22.227388302806673,22.227388302806673,0,0,1,520.0889365704385,509.51269773684857" stroke="grey" stroke-width="5" fill="none" />
<path d="M520.0889365704385,509.51269773684857 L21.052392000000026,9.96892200000002" stroke="grey" stroke-width="5" />
<circle cx="520.0889365704385" cy="509.51269773684857" r="2.5" fill="grey" stroke="none" />
<circle cx="497.05239200000005" cy="477.968922" r="5" fill="black" stroke="none" />
<circle cx="521.052392" cy="509.968922" r="5" fill="black" stroke="none" />
<path d="M473.05239200000005,509.968922 L478.1535596758906,508.0818104363364" stroke="grey" stroke-width="5" />
<circle cx="478.1535596758906" cy="508.0818104363364" r="2.5" fill="grey" stroke="none" />
<path d="M478.1535596758906,508.0818104363364 A23.293402816328694,23.293402816328694,0,0,0,521.052392,509.968922" stroke="grey" stroke-width="5" fill="none" />
<circle cx="473.05239200000005" cy="509.968922" r="5" fill="black" stroke="none" />
<circle cx="521.052392" cy="509.968922" r="5" fill="black" stroke="none" />
<path d="M473.05239200000005,557.968922 L490.1808540841924,521.1226652732989" stroke="grey" stroke-width="5" />
<circle cx="490.1808540841924" cy="521.1226652732989" r="2.5" fill="grey" stroke="none" />
<path d="M490.18085408419233,521.1226652732989 A23.293402816328694,23.293402816328694,0,0,0,521.052392,509.968922" stroke="grey" stroke-width="5" fill="none" />
<circle cx="473.05239200000005" cy="557.968922" r="5" fill="black" stroke="none" />
<circle cx="521.052392" cy="509.968922" r="5" fill="black" stroke="none" />
<path d="M521.052392,509.968922 A23.293402816328694,23.293402816328694,0,0,1,505.7944733668518,522.5611766795217" stroke="grey" stroke-width="5" fill="none" />
<path d="M505.7944733668518,522.5611766795217 L21.052392000000026,81.96892200000002" stroke="grey" stroke-width="5" />
<circle cx="505.7944733668518" cy="522.5611766795217" r="2.5" fill="grey" stroke="none" />
<circle cx="521.052392" cy="509.968922" r="5" fill="black" stroke="none" />
<circle cx="521.052392" cy="581.968922" r="5" fill="black" stroke="none" />
<path d="M521.052392,581.968922 A84.62923479958773,84.62923479958773,0,0,1,480.526620659131,582.3583321820589" stroke="grey" stroke-width="5" fill="none" />
<path d="M480.526620659131,582.3583321820589 L-26.947607999999974,113.96892200000002" stroke="grey" stroke-width="5" />
<circle cx="480.526620659131" cy="582.3583321820589" r="2.5" fill="grey" stroke="none" />
<circle cx="521.052392" cy="581.968922" r="5" fill="black" stroke="none" />
<circle cx="473.05239200000005" cy="613.968922" r="5" fill="black" stroke="none" />
<path d="M521.052392,453.968922 A50.61682873080599,50.61682873080599,0,0,1,532.408156009056,461.11845200025556" stroke="grey" stroke-width="5" fill="none" />
<path d="M532.408156009056,461.11845200025556 L125.05239200000003,-150.03107799999998" stroke="grey" stroke-width="5" />
<circle cx="532.408156009056" cy="461.11845200025556" r="2.5" fill="grey" stroke="none" />
<circle cx="521.052392" cy="453.968922" r="5" fill="black" stroke="none" />
<circle cx="625.052392" cy="349.968922" r="5" fill="black" stroke="none" />
<path d="M521.052392,453.968922 A50.61682873080599,50.61682873080599,0,0,1,550.0728113699524,492.59885736707463" stroke="grey" stroke-width="5" fill="none" />
<path d="M550.0728113699524,492.59885736707463 L149.05239200000003,-22.03107799999998" stroke="grey" stroke-width="5" />
<circle cx="550.0728113699524" cy="492.59885736707463" r="2.5" fill="grey" stroke="none" />
<circle cx="521.052392" cy="453.968922" r="5" fill="black" stroke="none" />
<circle cx="649.052392" cy="477.968922" r="5" fill="black" stroke="none" />
<path d="M649.052392,477.968922 A150.6717755877449,150.6717755877449,0,0,1,650.0252549098279,486.05701437980724" stroke="grey" stroke-width="5" fill="none" />
<path d="M650.0252549098279,486.05701437980724 L237.05239200000003,-22.03107799999998" stroke="grey" stroke-width="5" />
<circle cx="650.0252549098279" cy="486.05701437980724" r="2.5" fill="grey" stroke="none" />
<circle cx="649.052392" cy="477.968922" r="5" fill="black" stroke="none" />
<circle cx="737.052392" cy="477.968922" r="5" fill="black" stroke="none" />
<path d="M521.052392,509.968922 A23.293402816328694,23.293402816328694,0,0,1,513.9315219016831,518.6680291478954" stroke="grey" stroke-width="5" fill="none" />
<path d="M513.9315219016831,518.6680291478954 L85.05239200000003,113.96892200000002" stroke="grey" stroke-width="5" />
<circle cx="513.9315219016831" cy="518.6680291478954" r="2.5" fill="grey" stroke="none" />
<circle cx="521.052392" cy="509.968922" r="5" fill="black" stroke="none" />
<circle cx="585.052392" cy="613.968922" r="5" fill="black" stroke="none" />
<circle cx="500" cy="500" r="5" fill="red" stroke="none" />
</svg>