<?xml version="1.0" encoding="UTF-8"?>
<svg xmlns="http://www.w3.org/2000/svg" xmlns:xlink="http://www.w3.org/1999/xlink"
     width="1000" height="1000" viewBox="0 0 1000 1000">
<defs>
</defs>
<rect x="0" y="0" width="1000" height="1000" fill="white" />
<path d="M224.54501599999998,724.894406 L335.3862099352522,634.3984414383301" stroke="grey" stroke-width="5" />
<circle cx="335.3862099352522" cy="634.3984414383301" r="2.5" fill="grey" stroke="none" />
<path d="M335.3862099352522,634.3984414383301 A212.5103313736372,212.5103313736372,0,0,0,344.54501600000003,644.894406" stroke="grey" stroke-width="5" fill="none" />
<circle cx="224.54501599999998" cy="724.894406" r="5" fill="black" stroke="none" />
<circle cx="344.545016" cy="644.894406" r="5" fill="black" stroke="none" />
<path d="M344.545016,644.894406 L369.00228968052835,622.0985968780514" stroke="grey" stroke-width="5" />
<circle cx="369.00228968052835" cy="622.0985968780514" r="2.5" fill="grey" stroke="none" />
<path d="M369.00228968052835,622.0985968780514 A179.076708336213,179.076708336213,0,0,1,344.545016,588.8944059999999" stroke="grey" stroke-width="5" fill="none" />
<circle cx="344.545016" cy="644.894406" r="5" fill="black" stroke="none" />
<circle cx="344.545016" cy="588.894406" r="5" fill="black" stroke="none" />
<path d="M344.545016,588.8944059999999 A179.076708336213,179.076708336213,0,0,1,330.5907802445904,558.0429472924699" stroke="grey" stroke-width="5" fill="none" />
<path d="M330.5907802445904,558.0429472924699 L240.54501599999998,588.894406" stroke="grey" stroke-width="5" />
<circle cx="330.5907802445904" cy="558.0429472924699" r="2.5" fill="grey" stroke="none" />
<circle cx="344.545016" cy="588.894406" r="5" fill="black" stroke="none" />
<circle cx="240.54501599999998" cy="588.894406" r="5" fill="black" stroke="none" />
<path d="M240.54501599999998,588.894406 L291.9011034207173,571.2987953265557" stroke="grey" stroke-width="5" />
<circle cx="291.9011034207173" cy="571.2987953265557" r="2.5" fill="grey" stroke="none" />
<path d="M291.9011034207173,571.2987953265557 A219.97424615743793,219.97424615743793,0,0,1,280.545016,484.8944059999999" stroke="grey" stroke-width="5" fill="none" />
<circle cx="240.54501599999998" cy="588.894406" r="5" fill="black" stroke="none" />
<circle cx="280.545016" cy="484.894406" r="5" fill="black" stroke="none" />
<path d="M280.545016,484.894406 L351.43096265228405,489.7736496194343" stroke="grey" stroke-width="5" />
<circle cx="351.43096265228405" cy="489.7736496194343" r="2.5" fill="grey" stroke="none" />
<path d="M351.43096265228405,489.77364961943425 A148.9205731271979,148.9205731271979,0,0,1,392.54501600000003,396.89440599999995" stroke="grey" stroke-width="5" fill="none" />
<circle cx="280.545016" cy="484.894406" r="5" fill="black" stroke="none" />
<circle cx="392.545016" cy="396.894406" r="5" fill="black" stroke="none" />
<path d="M392.545016,396.894406 L428.5963103854728,431.4864740801836" stroke="grey" stroke-width="5" />
<circle cx="428.5963103854728" cy="431.4864740801836" r="2.5" fill="grey" stroke="none" />
<path d="M428.5963103854728,431.4864740801836 A98.95751676620173,98.95751676620173,0,0,1,440.545016,420.894406" stroke="grey" stroke-width="5" fill="none" />
<circle cx="392.545016" cy="396.894406" r="5" fill="black" stroke="none" />
<circle cx="440.545016" cy="420.894406" r="5" fill="black" stroke="none" />
<path d="M440.545016,420.894406 A98.95751676620173,98.95751676620173,0,0,0,417.4746122395283,445.3909302449045" stroke="grey" stroke-width="5" fill="none" />
<path d="M417.4746122395283,445.3909302449045 L392.545016,428.894406" stroke="grey" stroke-width="5" />
<circle cx="417.4746122395283" cy="445.3909302449045" r="2.5" fill="grey" stroke="none" />
<circle cx="440.545016" cy="420.894406" r="5" fill="black" stroke="none" />
<circle cx="392.545016" cy="428.894406" r="5" fill="black" stroke="none" />
<path d="M392.545016,396.894406 L407.02640080480694,410.78963660412154" stroke="grey" stroke-width="5" />
<circle cx="407.02640080480694" cy="410.78963660412154" r="2.5" fill="grey" stroke="none" />
<path d="M407.02640080480694,410.78963660412154 A128.85099566760476,128.85099566760476,0,0,0,392.545016,428.894406" stroke="grey" stroke-width="5" fill="none" />
<circle cx="392.545016" cy="396.894406" r="5" fill="black" stroke="none" />
<circle cx="392.545016" cy="428.894406" r="5" fill="black" stroke="none" />
<path d="M392.545016,428.894406 A128.85099566760476,128.85099566760476,0,0,0,375.3885636329486,532.780619443101" stroke="grey" stroke-width="5" fill="none" />
<path d="M375.3885636329486,532.780619443101 L344.545016,540.894406" stroke="grey" stroke-width="5" />
<circle cx="375.3885636329486" cy="532.780619443101" r="2.5" fill="grey" stroke="none" />
<circle cx="392.545016" cy="428.894406" r="5" fill="black" stroke="none" />
<circle cx="344.545016" cy="540.894406" r="5" fill="black" stroke="none" />
<path d="M280.545016,484.894406 L339.63553580215375,488.9617431144776" stroke="grey" stroke-width="5" />
<circle cx="339.63553580215375" cy="488.9617431144776" r="2.5" fill="grey" stroke="none" />
<path d="M339.63553580215375,488.96174311447754 A160.74390965922504,160.74390965922504,0,0,0,344.5450159999999,540.894406" stroke="grey" stroke-width="5" fill="none" />
<circle cx="280.545016" cy="484.894406" r="5" fill="black" stroke="none" />
<circle cx="344.545016" cy="540.894406" r="5" fill="black" stroke="none" />
<path d="M344.5450159999999,540.894406 A160.74390965922504,160.74390965922504,0,0,0,360.45956430438196,579.7939302103248" stroke="grey" stroke-width="5" fill="none" />
<path d="M360.45956430438196,579.7939302103248 L344.545016,588.894406" stroke="grey" stroke-width="5" />
<circle cx="360.45956430438196" cy="579.7939302103248" r="2.5" fill="grey" stroke="none" />
<circle cx="344.545016" cy="540.894406" r="5" fill="black" stroke="none" />
<circle cx="344.545016" cy="588.894406" r="5" fill="black" stroke="none" />
<path d="M440.545016,420.894406 A98.95751676620173,98.95751676620173,0,0,1,484.04746135508617,402.33676927668415" stroke="grey" stroke-width="5" fill="none" />
<path d="M484.0474613550861,402.33676927668415 L480.545016,380.894406" stroke="grey" stroke-width="5" />
<circle cx="484.0474613550861" cy="402.33676927668415" r="2.5" fill="grey" stroke="none" />
<circle cx="440.545016" cy="420.894406" r="5" fill="black" stroke="none" />
<circle cx="480.545016" cy="380.894406" r="5" fill="black" stroke="none" />
<path d="M440.545016,420.894406 L488.6099436378326,484.8453886687997" stroke="grey" stroke-width="5" />
<circle cx="488.6099436378326" cy="484.8453886687997" r="2.5" fill="grey" stroke="none" />
<path d="M488.6099436378326,484.8453886687997 A18.957732684398028,18.957732684398028,0,0,0,488.545016,484.89440599999995" stroke="grey" stroke-width="5" fill="none" />
<circle cx="440.545016" cy="420.894406" r="5" fill="black" stroke="none" />
<circle cx="488.545016" cy="484.894406" r="5" fill="black" stroke="none" />
<path d="M392.545016,428.894406 L448.8423990748108,466.1477628492269" stroke="grey" stroke-width="5" />
<circle cx="448.8423990748108" cy="466.1477628492269" r="2.5" fill="grey" stroke="none" />
<path d="M448.8423990748108,466.1477628492269 A61.34390020640272,61.34390020640272,0,0,0,440.545016,484.894406" stroke="grey" stroke-width="5" fill="none" />
<circle cx="392.545016" cy="428.894406" r="5" fill="black" stroke="none" />
<circle cx="440.545016" cy="484.894406" r="5" fill="black" stroke="none" />
<path d="M344.545016,540.894406 L388.8093652671954,529.2501072861131" stroke="grey" stroke-width="5" />
<circle cx="388.8093652671954" cy="529.2501072861131" r="2.5" fill="grey" stroke="none" />
<path d="M388.8093652671954,529.2501072861131 A114.97358839547931,114.97358839547931,0,0,0,392.545016,540.894406" stroke="grey" stroke-width="5" fill="none" />
<circle cx="344.545016" cy="540.894406" r="5" fill="black" stroke="none" />
<circle cx="392.545016" cy="540.894406" r="5" fill="black" stroke="none" />
<path d="M344.545016,588.894406 L407.16244230449337,553.0876484849966" stroke="grey" stroke-width="5" />
<circle cx="407.16244230449337" cy="553.0876484849966" r="2.5" fill="grey" stroke="none" />
<path d="M407.16244230449337,553.0876484849966 A106.94442734679114,106.94442734679114,0,0,0,440.545016,588.894406" stroke="grey" stroke-width="5" fill="none" />
<circle cx="344.545016" cy="588.894406" r="5" fill="black" stroke="none" />
<circle cx="440.545016" cy="588.894406" r="5" fill="black" stroke="none" />
<path d="M344.545016,644.894406 L385.43102233512053,606.7859230861327" stroke="grey" stroke-width="5" />
<circle cx="385.43102233512053" cy="606.7859230861327" r="2.5" fill="grey" stroke="none" />
<path d="M385.43102233512053,606.7859230861327 A156.61827483577096,156.61827483577096,0,0,0,440.545016,644.894406" stroke="grey" stroke-width="5" fill="none" />
<circle cx="344.545016" cy="644.894406" r="5" fill="black" stroke="none" />
<circle cx="440.545016" cy="644.894406" r="5" fill="black" stroke="none" />
<path d="M488.545016,484.89440599999995 A18.957732684398028,18.957732684398028,0,0,0,481.6260184038719,495.3317638407811" stroke="grey" stroke-width="5" fill="none" />
<path d="M481.6260184038719,495.3317638407811 L440.545016,484.894406" stroke="grey" stroke-width="5" />
<circle cx="481.6260184038719" cy="495.3317638407811" r="2.5" fill="grey" stroke="none" />
<circle cx="488.545016" cy="484.894406" r="5" fill="black" stroke="none" />
<circle cx="440.545016" cy="484.894406" r="5" fill="black" stroke="none" />
<path d="M440.545016,484.894406 A61.34390020640272,61.34390020640272,0,0,0,442.66763430482104,521.8191185964824" stroke="grey" stroke-width="5" fill="none" />
<path d="M442.66763430482104,521.8191185964824 L392.545016,540.894406" stroke="grey" stroke-width="5" />
<circle cx="442.66763430482104" cy="521.8191185964824" r="2.5" fill="grey" stroke="none" />
<circle cx="440.545016" cy="484.894406" r="5" fill="black" stroke="none" />
<circle cx="392.545016" cy="540.894406" r="5" fill="black" stroke="none" />
<path d="M392.545016,540.894406 L400.04911658571444,538.0385520917528" stroke="grey" stroke-width="5" />
<circle cx="400.04911658571444" cy="538.0385520917528" r="2.5" fill="grey" stroke="none" />
<path d="M400.04911658571444,538.0385520917528 A106.94442734679114,106.94442734679114,0,0,0,440.545016,588.894406" stroke="grey" stroke-width="5" fill="none" />
<circle cx="392.545016" cy="540.894406" r="5" fill="black" stroke="none" />
<circle cx="440.545016" cy="588.894406" r="5" fill="black" stroke="none" />
<path d="M440.545016,588.894406 A106.94442734679114,106.94442734679114,0,0,0,459.4020606888948,598.938960294845" stroke="grey" stroke-width="5" fill="none" />
<path d="M459.4020606888948,598.938960294845 L440.545016,644.894406" stroke="grey" stroke-width="5" />
<circle cx="459.4020606888948" cy="598.938960294845" r="2.5" fill="grey" stroke="none" />
<circle cx="440.545016" cy="588.894406" r="5" fill="black" stroke="none" />
<circle cx="440.545016" cy="644.894406" r="5" fill="black" stroke="none" />
<path d="M440.545016,644.894406 A156.61827483577096,156.61827483577096,0,0,0,508.72288956142165,656.3751745330196" stroke="grey" stroke-width="5" fill="none" />
<path d="M508.72288956142165,656.3751745330196 L512.545016,724.894406" stroke="grey" stroke-width="5" />
<circle cx="508.72288956142165" cy="656.3751745330196" r="2.5" fill="grey" stroke="none" />
<circle cx="440.545016" cy="644.894406" r="5" fill="black" stroke="none" />
<circle cx="512.545016" cy="724.894406" r="5" fill="black" stroke="none" />
<path d="M488.545016,484.89440599999995 A18.957732684398028,18.957732684398028,0,0,0,481.6120453503569,504.61288980312366" stroke="grey" stroke-width="5" fill="none" />
<path d="M481.61204535035694,504.61288980312366 L464.545016,508.894406" stroke="grey" stroke-width="5" />
<circle cx="481.61204535035694" cy="504.61288980312366" r="2.5" fill="grey" stroke="none" />
<circle cx="488.545016" cy="484.894406" r="5" fill="black" stroke="none" />
<circle cx="464.545016" cy="508.894406" r="5" fill="black" stroke="none" />
<path d="M464.545016,508.89440599999995 A36.553609240854634,36.553609240854634,0,0,0,469.88281208547625,520.7152441611089" stroke="grey" stroke-width="5" fill="none" />
<path d="M469.88281208547625,520.7152441611089 L440.545016,540.894406" stroke="grey" stroke-width="5" />
<circle cx="469.88281208547625" cy="520.7152441611089" r="2.5" fill="grey" stroke="none" />
<circle cx="464.545016" cy="508.894406" r="5" fill="black" stroke="none" />
<circle cx="440.545016" cy="540.894406" r="5" fill="black" stroke="none" />
<path d="M440.545016,540.894406 A72.1612608297076,72.1612608297076,0,0,0,459.8824668616188,559.9819231054155" stroke="grey" stroke-width="5" fill="none" />
<path d="M459.8824668616188,559.9819231054155 L440.545016,588.894406" stroke="grey" stroke-width="5" />
<circle cx="459.8824668616188" cy="559.9819231054155" r="2.5" fill="grey" stroke="none" />
<circle cx="440.545016" cy="540.894406" r="5" fill="black" stroke="none" />
<circle cx="440.545016" cy="588.894406" r="5" fill="black" stroke="none" />
<path d="M440.545016,484.894406 L464.57195833253473,490.99887717329443" stroke="grey" stroke-width="5" />
<circle cx="464.57195833253473" cy="490.99887717329443" r="2.5" fill="grey" stroke="none" />
<path d="M464.57195833253473,490.99887717329443 A36.553609240854634,36.553609240854634,0,0,0,464.545016,508.89440599999995" stroke="grey" stroke-width="5" fill="none" />
<circle cx="440.545016" cy="484.894406" r="5" fill="black" stroke="none" />
<circle cx="464.545016" cy="508.894406" r="5" fill="black" stroke="none" />
<path d="M392.545016,540.894406 L432.5576661902209,525.6666938818271" stroke="grey" stroke-width="5" />
<circle cx="432.5576661902209" cy="525.6666938818271" r="2.5" fill="grey" stroke="none" />
<path d="M432.5576661902209,525.6666938818271 A72.1612608297076,72.1612608297076,0,0,0,440.545016,540.894406" stroke="grey" stroke-width="5" fill="none" />
<circle cx="392.545016" cy="540.894406" r="5" fill="black" stroke="none" />
<circle cx="440.545016" cy="540.894406" r="5" fill="black" stroke="none" />
<path d="M488.545016,484.89440599999995 A18.957732684398028,18.957732684398028,0,0,0,494.88654440419583,518.2550869733024" stroke="grey" stroke-width="5" fill="none" />
<path d="M494.88654440419583,518.2550869733024 L488.545016,540.894406" stroke="grey" stroke-width="5" />
<circle cx="494.88654440419583" cy="518.2550869733024" r="2.5" fill="grey" stroke="none" />
<circle cx="488.545016" cy="484.894406" r="5" fill="black" stroke="none" />
<circle cx="488.545016" cy="540.894406" r="5" fill="black" stroke="none" />
<path d="M464.545016,508.89440599999995 A36.553609240854634,36.553609240854634,0,0,0,490.140421281849,535.1987933888887" stroke="grey" stroke-width="5" fill="none" />
<path d="M490.140421281849,535.1987933888887 L488.545016,540.894406" stroke="grey" stroke-width="5" />
<circle cx="490.140421281849" cy="535.1987933888887" r="2.5" fill="grey" stroke="none" />
<circle cx="464.545016" cy="508.894406" r="5" fill="black" stroke="none" />
<circle cx="488.545016" cy="540.894406" r="5" fill="black" stroke="none" />
<path d="M440.545016,540.894406 L465.009467894328,524.0672342302772" stroke="grey" stroke-width="5" />
<circle cx="465.009467894328" cy="524.0672342302772" r="2.5" fill="grey" stroke="none" />
<path d="M465.009467894328,524.0672342302772 A42.468448294387805,42.468448294387805,0,0,0,488.545016,540.894406" stroke="grey" stroke-width="5" fill="none" />
<circle cx="440.545016" cy="540.894406" r="5" fill="black" stroke="none" />
<circle cx="488.545016" cy="540.894406" r="5" fill="black" stroke="none" />
<path d="M440.545016,588.894406 L476.38997209588206,535.3006470606399" stroke="grey" stroke-width="5" />
<circle cx="476.38997209588206" cy="535.3006470606399" r="2.5" fill="grey" stroke="none" />
<path d="M476.38997209588206,535.3006470606399 A42.468448294387805,42.468448294387805,0,0,0,488.545016,540.894406" stroke="grey" stroke-width="5" fill="none" />
<circle cx="440.545016" cy="588.894406" r="5" fill="black" stroke="none" />
<circle cx="488.545016" cy="540.894406" r="5" fill="black" stroke="none" />
<path d="M488.545016,540.894406 A42.468448294387805,42.468448294387805,0,0,0,495.7128935750138,542.2515067072635" stroke="grey" stroke-width="5" fill="none" />
<path d="M495.7128935750138,542.2515067072635 L488.545016,612.894406" stroke="grey" stroke-width="5" />
<circle cx="495.7128935750138" cy="542.2515067072635" r="2.5" fill="grey" stroke="none" />
<circle cx="488.545016" cy="540.894406" r="5" fill="black" stroke="none" />
<circle cx="488.545016" cy="612.894406" r="5" fill="black" stroke="none" />
<path d="M488.545016,612.894406 A113.47406560326058,113.47406560326058,0,0,1,456.923297987216,604.9798138131084" stroke="grey" stroke-width="5" fill="none" />
<path d="M456.923297987216,604.9798138131084 L440.545016,644.894406" stroke="grey" stroke-width="5" />
<circle cx="456.923297987216" cy="604.9798138131084" r="2.5" fill="grey" stroke="none" />
<circle cx="488.545016" cy="612.894406" r="5" fill="black" stroke="none" />
<circle cx="440.545016" cy="644.894406" r="5" fill="black" stroke="none" />
<path d="M488.545016,484.89440599999995 A18.957732684398028,18.957732684398028,0,0,1,511.6316635967283,485.030029041256" stroke="grey" stroke-width="5" fill="none" />
<path d="M511.6316635967283,485.030029041256 L592.545016,380.894406" stroke="grey" stroke-width="5" />
<circle cx="511.6316635967283" cy="485.030029041256" r="2.5" fill="grey" stroke="none" />
<circle cx="488.545016" cy="484.894406" r="5" fill="black" stroke="none" />
<circle cx="592.545016" cy="380.894406" r="5" fill="black" stroke="none" />
<path d="M488.545016,484.89440599999995 A18.957732684398028,18.957732684398028,0,0,1,518.9027645718514,501.44260877380174" stroke="grey" stroke-width="5" fill="none" />
<path d="M518.9027645718514,501.44260877380174 L616.545016,508.894406" stroke="grey" stroke-width="5" />
<circle cx="518.9027645718514" cy="501.44260877380174" r="2.5" fill="grey" stroke="none" />
<circle cx="488.545016" cy="484.894406" r="5" fill="black" stroke="none" />
<circle cx="616.545016" cy="508.894406" r="5" fill="black" stroke="none" />
<path d="M616.545016,508.894406 A116.88392195906623,116.88392195906623,0,0,0,616.7735736910981,505.0777652508509" stroke="grey" stroke-width="5" fill="none" />
<path d="M616.7735736910981,505.0777652508509 L704.545016,508.894406" stroke="grey" stroke-width="5" />
<circle cx="616.7735736910981" cy="505.0777652508509" r="2.5" fill="grey" stroke="none" />
<circle cx="616.545016" cy="508.894406" r="5" fill="black" stroke="none" />
<circle cx="704.545016" cy="508.894406" r="5" fill="black" stroke="none" />
<path d="M488.545016,540.894406 A42.468448294387805,42.468448294387805,0,0,0,514.4782824265235,539.9242838196368" stroke="grey" stroke-width="5" fill="none" />
<path d="M514.4782824265235,539.9242838196368 L552.545016,644.894406" stroke="grey" stroke-width="5" />
<circle cx="514.4782824265235" cy="539.9242838196368" r="2.5" fill="grey" stroke="none" />
<circle cx="488.545016" cy="540.894406" r="5" fill="black" stroke="none" />
<circle cx="552.545016" cy="644.894406" r="5" fill="black" stroke="none" />
<circle cx="500" cy="500" r="5" fill="red" stroke="none" />
</svg>