<?xml version="1.0" encoding="UTF-8"?>
<svg xmlns="http://www.w3.org/2000/svg" xmlns:xlink="http://www.w3.org/1999/xlink"
     width="1000" height="1000" viewBox="0 0 1000 1000">
<defs>
</defs>
<rect x="0" y="0" width="1000" height="1000" fill="white" />
<path d="M287.14421600000003,656.916606 L402.94673419712694,571.5473584265048" stroke="grey" stroke-width="5" />
<circle cx="402.94673419712694" cy="571.5473584265048" r="2.5" fill="grey" stroke="none" />
<path d="M402.94673419712694,571.5473584265048 A120.57512554757673,120.57512554757673,0,0,0,407.144216,576.916606" stroke="grey" stroke-width="5" fill="none" />
<circle cx="287.14421600000003" cy="656.916606" r="5" fill="black" stroke="none" />
<circle cx="407.14421600000003" cy="576.916606" r="5" fill="black" stroke="none" />
<path d="M407.14421600000003,576.916606 L426.69929166010684,560.7182607267682" stroke="grey" stroke-width="5" />
<circle cx="426.69929166010684" cy="560.7182607267682" r="2.5" fill="grey" stroke="none" />
<path d="M426.6992916601068,560.7182607267682 A95.18246177113666,95.18246177113666,0,0,1,407.14421600000003,520.916606" stroke="grey" stroke-width="5" fill="none" />
<circle cx="407.14421600000003" cy="576.916606" r="5" fill="black" stroke="none" />
<circle cx="407.14421600000003" cy="520.916606" r="5" fill="black" stroke="none" />
<path d="M407.14421600000003,520.916606 A95.18246177113666,95.18246177113666,0,0,1,405.35032640762984,510.0568542632215" stroke="grey" stroke-width="5" fill="none" />
<path d="M405.35032640762984,510.0568542632215 L-196.855784,20.916606" stroke="grey" stroke-width="5" />
<circle cx="405.35032640762984" cy="510.0568542632215" r="2.5" fill="grey" stroke="none" />
<circle cx="407.14421600000003" cy="520.916606" r="5" fill="black" stroke="none" />
<circle cx="303.14421600000003" cy="520.916606" r="5" fill="black" stroke="none" />
<path d="M303.14421600000003,520.916606 L323.492619448416,518.754517952541" stroke="grey" stroke-width="5" />
<circle cx="323.492619448416" cy="518.754517952541" r="2.5" fill="grey" stroke="none" />
<path d="M323.492619448416,518.754517952541 A177.50095023073507,177.50095023073507,0,0,1,343.14421600000003,416.916606" stroke="grey" stroke-width="5" fill="none" />
<circle cx="303.14421600000003" cy="520.916606" r="5" fill="black" stroke="none" />
<circle cx="343.14421600000003" cy="416.916606" r="5" fill="black" stroke="none" />
<path d="M343.14421600000003,416.916606 L343.70534727417703,417.21382609319187" stroke="grey" stroke-width="5" />
<circle cx="343.70534727417703" cy="417.21382609319187" r="2.5" fill="grey" stroke="none" />
<path d="M343.70534727417703,417.21382609319187 A176.86596354531838,176.86596354531838,0,0,1,455.14421600000003,328.916606" stroke="grey" stroke-width="5" fill="none" />
<circle cx="343.14421600000003" cy="416.916606" r="5" fill="black" stroke="none" />
<circle cx="455.14421600000003" cy="328.916606" r="5" fill="black" stroke="none" />
<path d="M455.14421600000003,328.916606 L462.6889870733129,357.6929404449713" stroke="grey" stroke-width="5" />
<circle cx="462.6889870733129" cy="357.6929404449713" r="2.5" fill="grey" stroke="none" />
<path d="M462.68898707331294,357.6929404449713 A147.11699726684844,147.11699726684844,0,0,1,503.14421600000003,352.916606" stroke="grey" stroke-width="5" fill="none" />
<circle cx="455.14421600000003" cy="328.916606" r="5" fill="black" stroke="none" />
<circle cx="503.14421600000003" cy="352.916606" r="5" fill="black" stroke="none" />
<path d="M503.14421600000003,352.916606 L503.1232865767525,353.89566424717793" stroke="grey" stroke-width="5" />
<circle cx="503.1232865767525" cy="353.89566424717793" r="2.5" fill="grey" stroke="none" />
<path d="M503.1232865767525,353.89566424717793 A146.13771534006509,146.13771534006509,0,0,0,455.144216,360.916606" stroke="grey" stroke-width="5" fill="none" />
<circle cx="503.14421600000003" cy="352.916606" r="5" fill="black" stroke="none" />
<circle cx="455.14421600000003" cy="360.916606" r="5" fill="black" stroke="none" />
<path d="M455.14421600000003,328.916606 L462.9373472309282,358.6402050987159" stroke="grey" stroke-width="5" />
<circle cx="462.9373472309282" cy="358.6402050987159" r="2.5" fill="grey" stroke="none" />
<path d="M462.93734723092825,358.6402050987159 A146.13771534006509,146.13771534006509,0,0,0,455.144216,360.916606" stroke="grey" stroke-width="5" fill="none" />
<circle cx="455.14421600000003" cy="328.916606" r="5" fill="black" stroke="none" />
<circle cx="455.14421600000003" cy="360.916606" r="5" fill="black" stroke="none" />
<path d="M455.14421600000003,360.916606 L470.31107716072347,407.94417610244653" stroke="grey" stroke-width="5" />
<circle cx="470.31107716072347" cy="407.94417610244653" r="2.5" fill="grey" stroke="none" />
<path d="M470.31107716072347,407.94417610244653 A96.72490296099495,96.72490296099495,0,0,0,407.14421600000003,472.916606" stroke="grey" stroke-width="5" fill="none" />
<circle cx="455.14421600000003" cy="360.916606" r="5" fill="black" stroke="none" />
<circle cx="407.14421600000003" cy="472.916606" r="5" fill="black" stroke="none" />
<path d="M343.14421600000003,416.916606 L414.52518723675144,454.7256890068828" stroke="grey" stroke-width="5" />
<circle cx="414.52518723675144" cy="454.7256890068828" r="2.5" fill="grey" stroke="none" />
<path d="M414.52518723675144,454.7256890068828 A96.72490296099495,96.72490296099495,0,0,0,407.14421600000003,472.916606" stroke="grey" stroke-width="5" fill="none" />
<circle cx="343.14421600000003" cy="416.916606" r="5" fill="black" stroke="none" />
<circle cx="407.14421600000003" cy="472.916606" r="5" fill="black" stroke="none" />
<path d="M407.14421600000003,472.916606 L408.6249575833329,473.34849624943877" stroke="grey" stroke-width="5" />
<circle cx="408.6249575833329" cy="473.34849624943877" r="2.5" fill="grey" stroke="none" />
<path d="M408.6249575833329,473.34849624943877 A95.18246177113666,95.18246177113666,0,0,0,407.14421600000003,520.916606" stroke="grey" stroke-width="5" fill="none" />
<circle cx="407.14421600000003" cy="472.916606" r="5" fill="black" stroke="none" />
<circle cx="407.14421600000003" cy="520.916606" r="5" fill="black" stroke="none" />
<path d="M503.14421600000003,352.916606 A147.11699726684844,147.11699726684844,0,0,1,533.0596481184366,356.6456469056518" stroke="grey" stroke-width="5" fill="none" />
<path d="M533.0596481184366,356.6456469056518 L43.144216,-187.083394" stroke="grey" stroke-width="5" />
<circle cx="533.0596481184366" cy="356.6456469056518" r="2.5" fill="grey" stroke="none" />
<circle cx="503.14421600000003" cy="352.916606" r="5" fill="black" stroke="none" />
<circle cx="543.144216" cy="312.916606" r="5" fill="black" stroke="none" />
<path d="M503.14421600000003,352.916606 L502.08514197289736,402.45906822381306" stroke="grey" stroke-width="5" />
<circle cx="502.08514197289736" cy="402.45906822381306" r="2.5" fill="grey" stroke="none" />
<path d="M502.08514197289736,402.45906822381306 A97.56321637181655,97.56321637181655,0,0,1,551.144216,416.916606" stroke="grey" stroke-width="5" fill="none" />
<circle cx="503.14421600000003" cy="352.916606" r="5" fill="black" stroke="none" />
<circle cx="551.144216" cy="416.916606" r="5" fill="black" stroke="none" />
<path d="M455.14421600000003,360.916606 L474.4799724907449,420.87058291165823" stroke="grey" stroke-width="5" />
<circle cx="474.4799724907449" cy="420.87058291165823" r="2.5" fill="grey" stroke="none" />
<path d="M474.4799724907449,420.87058291165823 A83.14286772065233,83.14286772065233,0,0,1,503.14421600000003,416.916606" stroke="grey" stroke-width="5" fill="none" />
<circle cx="455.14421600000003" cy="360.916606" r="5" fill="black" stroke="none" />
<circle cx="503.14421600000003" cy="416.916606" r="5" fill="black" stroke="none" />
<path d="M407.14421600000003,472.916606 L449.6979756928489,485.3283286767774" stroke="grey" stroke-width="5" />
<circle cx="449.6979756928489" cy="485.3283286767774" r="2.5" fill="grey" stroke="none" />
<path d="M449.6979756928489,485.3283286767774 A52.398011305906365,52.398011305906365,0,0,1,455.14421600000003,472.916606" stroke="grey" stroke-width="5" fill="none" />
<circle cx="407.14421600000003" cy="472.916606" r="5" fill="black" stroke="none" />
<circle cx="455.14421600000003" cy="472.916606" r="5" fill="black" stroke="none" />
<path d="M407.14421600000003,520.916606 L479.36543074347014,504.648123536586" stroke="grey" stroke-width="5" />
<circle cx="479.36543074347014" cy="504.648123536586" r="2.5" fill="grey" stroke="none" />
<path d="M479.36543074347014,504.648123536586 A21.15160752316221,21.15160752316221,0,0,0,503.144216,520.916606" stroke="grey" stroke-width="5" fill="none" />
<circle cx="407.14421600000003" cy="520.916606" r="5" fill="black" stroke="none" />
<circle cx="503.14421600000003" cy="520.916606" r="5" fill="black" stroke="none" />
<path d="M407.14421600000003,576.916606 L440.71649017034633,549.107187204026" stroke="grey" stroke-width="5" />
<circle cx="440.71649017034633" cy="549.107187204026" r="2.5" fill="grey" stroke="none" />
<path d="M440.71649017034633,549.1071872040259 A76.98084419395447,76.98084419395447,0,0,0,503.144216,576.916606" stroke="grey" stroke-width="5" fill="none" />
<circle cx="407.14421600000003" cy="576.916606" r="5" fill="black" stroke="none" />
<circle cx="503.14421600000003" cy="576.916606" r="5" fill="black" stroke="none" />
<path d="M551.144216,416.916606 L543.5848360037548,429.1967619148694" stroke="grey" stroke-width="5" />
<circle cx="543.5848360037548" cy="429.1967619148694" r="2.5" fill="grey" stroke="none" />
<path d="M543.5848360037548,429.1967619148694 A83.14286772065233,83.14286772065233,0,0,0,503.14421600000003,416.916606" stroke="grey" stroke-width="5" fill="none" />
<circle cx="551.144216" cy="416.916606" r="5" fill="black" stroke="none" />
<circle cx="503.14421600000003" cy="416.916606" r="5" fill="black" stroke="none" />
<path d="M503.14421600000003,416.916606 L501.9815369620128,447.63947001717736" stroke="grey" stroke-width="5" />
<circle cx="501.9815369620128" cy="447.63947001717736" r="2.5" fill="grey" stroke="none" />
<path d="M501.9815369620128,447.63947001717736 A52.398011305906365,52.398011305906365,0,0,0,455.14421600000003,472.916606" stroke="grey" stroke-width="5" fill="none" />
<circle cx="503.14421600000003" cy="416.916606" r="5" fill="black" stroke="none" />
<circle cx="455.14421600000003" cy="472.916606" r="5" fill="black" stroke="none" />
<path d="M455.14421600000003,472.916606 L481.8929780984876,489.0671934677301" stroke="grey" stroke-width="5" />
<circle cx="481.8929780984876" cy="489.0671934677301" r="2.5" fill="grey" stroke="none" />
<path d="M481.8929780984876,489.0671934677301 A21.15160752316221,21.15160752316221,0,0,0,503.144216,520.916606" stroke="grey" stroke-width="5" fill="none" />
<circle cx="455.14421600000003" cy="472.916606" r="5" fill="black" stroke="none" />
<circle cx="503.14421600000003" cy="520.916606" r="5" fill="black" stroke="none" />
<path d="M503.144216,520.916606 A21.15160752316221,21.15160752316221,0,0,1,500.8639191151566,521.1339571442822" stroke="grey" stroke-width="5" fill="none" />
<path d="M500.8639191151566,521.1339571442822 L3.144216,76.916606" stroke="grey" stroke-width="5" />
<circle cx="500.8639191151566" cy="521.1339571442822" r="2.5" fill="grey" stroke="none" />
<circle cx="503.14421600000003" cy="520.916606" r="5" fill="black" stroke="none" />
<circle cx="503.14421600000003" cy="576.916606" r="5" fill="black" stroke="none" />
<path d="M503.144216,576.916606 A76.98084419395447,76.98084419395447,0,0,0,533.2487855523491,569.4303149359687" stroke="grey" stroke-width="5" fill="none" />
<path d="M533.2487855523491,569.4303149359687 L75.144216,156.916606" stroke="grey" stroke-width="5" />
<circle cx="533.2487855523491" cy="569.4303149359687" r="2.5" fill="grey" stroke="none" />
<circle cx="503.14421600000003" cy="576.916606" r="5" fill="black" stroke="none" />
<circle cx="575.144216" cy="656.916606" r="5" fill="black" stroke="none" />
<path d="M551.144216,416.916606 L534.0847593930412,444.629564874995" stroke="grey" stroke-width="5" />
<circle cx="534.0847593930412" cy="444.629564874995" r="2.5" fill="grey" stroke="none" />
<path d="M534.0847593930412,444.629564874995 A65.02042685813353,65.02042685813353,0,0,0,527.144216,440.916606" stroke="grey" stroke-width="5" fill="none" />
<circle cx="551.144216" cy="416.916606" r="5" fill="black" stroke="none" />
<circle cx="527.144216" cy="440.916606" r="5" fill="black" stroke="none" />
<path d="M527.144216,440.916606 L511.3825008417316,475.22430627809035" stroke="grey" stroke-width="5" />
<circle cx="511.3825008417316" cy="475.22430627809035" r="2.5" fill="grey" stroke="none" />
<path d="M511.3825008417316,475.22430627809035 A27.26529524530941,27.26529524530941,0,0,0,503.14421600000003,472.916606" stroke="grey" stroke-width="5" fill="none" />
<circle cx="527.144216" cy="440.916606" r="5" fill="black" stroke="none" />
<circle cx="503.14421600000003" cy="472.916606" r="5" fill="black" stroke="none" />
<path d="M503.14421600000003,472.916606 L502.43918953386316,478.98950606882875" stroke="grey" stroke-width="5" />
<circle cx="502.43918953386316" cy="478.98950606882875" r="2.5" fill="grey" stroke="none" />
<path d="M502.43918953386316,478.98950606882875 A21.15160752316221,21.15160752316221,0,0,1,503.144216,520.916606" stroke="grey" stroke-width="5" fill="none" />
<circle cx="503.14421600000003" cy="472.916606" r="5" fill="black" stroke="none" />
<circle cx="503.14421600000003" cy="520.916606" r="5" fill="black" stroke="none" />
<path d="M503.14421600000003,416.916606 L502.4588791806058,435.0260835258557" stroke="grey" stroke-width="5" />
<circle cx="502.4588791806058" cy="435.0260835258557" r="2.5" fill="grey" stroke="none" />
<path d="M502.4588791806058,435.0260835258557 A65.02042685813353,65.02042685813353,0,0,1,527.144216,440.916606" stroke="grey" stroke-width="5" fill="none" />
<circle cx="503.14421600000003" cy="416.916606" r="5" fill="black" stroke="none" />
<circle cx="527.144216" cy="440.916606" r="5" fill="black" stroke="none" />
<path d="M455.14421600000003,472.916606 L476.6593013028728,485.9071610686911" stroke="grey" stroke-width="5" />
<circle cx="476.6593013028728" cy="485.9071610686911" r="2.5" fill="grey" stroke="none" />
<path d="M476.6593013028728,485.9071610686911 A27.26529524530941,27.26529524530941,0,0,1,503.14421600000003,472.916606" stroke="grey" stroke-width="5" fill="none" />
<circle cx="455.14421600000003" cy="472.916606" r="5" fill="black" stroke="none" />
<circle cx="503.14421600000003" cy="472.916606" r="5" fill="black" stroke="none" />
<path d="M551.144216,416.916606 L530.3377675748395,450.7165248852223" stroke="grey" stroke-width="5" />
<circle cx="530.3377675748395" cy="450.7165248852223" r="2.5" fill="grey" stroke="none" />
<path d="M530.3377675748395,450.7165248852223 A57.872627906583716,57.872627906583716,0,0,1,551.144216,472.916606" stroke="grey" stroke-width="5" fill="none" />
<circle cx="551.144216" cy="416.916606" r="5" fill="black" stroke="none" />
<circle cx="551.144216" cy="472.916606" r="5" fill="black" stroke="none" />
<path d="M527.144216,440.916606 L524.1602091572155,447.4117374855045" stroke="grey" stroke-width="5" />
<circle cx="524.1602091572155" cy="447.4117374855045" r="2.5" fill="grey" stroke="none" />
<path d="M524.1602091572155,447.4117374855045 A57.872627906583716,57.872627906583716,0,0,1,551.144216,472.916606" stroke="grey" stroke-width="5" fill="none" />
<circle cx="527.144216" cy="440.916606" r="5" fill="black" stroke="none" />
<circle cx="551.144216" cy="472.916606" r="5" fill="black" stroke="none" />
<path d="M503.14421600000003,472.916606 A27.26529524530941,27.26529524530941,0,0,1,524.0953659747537,487.24031100078946" stroke="grey" stroke-width="5" fill="none" />
<path d="M524.0953659747537,487.24031100078946 L51.144216,-27.083394" stroke="grey" stroke-width="5" />
<circle cx="524.0953659747537" cy="487.24031100078946" r="2.5" fill="grey" stroke="none" />
<circle cx="503.14421600000003" cy="472.916606" r="5" fill="black" stroke="none" />
<circle cx="551.144216" cy="472.916606" r="5" fill="black" stroke="none" />
<path d="M503.144216,520.916606 A21.15160752316221,21.15160752316221,0,0,0,518.6924703965062,490.1014116516731" stroke="grey" stroke-width="5" fill="none" />
<path d="M518.6924703965062,490.1014116516731 L51.144216,-27.083394" stroke="grey" stroke-width="5" />
<circle cx="518.6924703965062" cy="490.1014116516731" r="2.5" fill="grey" stroke="none" />
<circle cx="503.14421600000003" cy="520.916606" r="5" fill="black" stroke="none" />
<circle cx="551.144216" cy="472.916606" r="5" fill="black" stroke="none" />
<path d="M551.144216,472.916606 A57.872627906583716,57.872627906583716,0,0,1,543.4838200917403,538.1889833727353" stroke="grey" stroke-width="5" fill="none" />
<path d="M543.4838200917403,538.1889833727353 L51.144216,44.916606" stroke="grey" stroke-width="5" />
<circle cx="543.4838200917403" cy="538.1889833727353" r="2.5" fill="grey" stroke="none" />
<circle cx="551.144216" cy="472.916606" r="5" fill="black" stroke="none" />
<circle cx="551.144216" cy="544.916606" r="5" fill="black" stroke="none" />
<path d="M551.144216,544.916606 A68.06785089022492,68.06785089022492,0,0,1,502.7801724973999,568.0110503205075" stroke="grey" stroke-width="5" fill="none" />
<path d="M502.7801724973999,568.0110503205075 L3.144216,76.916606" stroke="grey" stroke-width="5" />
<circle cx="502.7801724973999" cy="568.0110503205075" r="2.5" fill="grey" stroke="none" />
<circle cx="551.144216" cy="544.916606" r="5" fill="black" stroke="none" />
<circle cx="503.14421600000003" cy="576.916606" r="5" fill="black" stroke="none" />
<path d="M551.144216,416.916606 A97.56321637181655,97.56321637181655,0,0,1,562.2785499328976,424.90031020656966" stroke="grey" stroke-width="5" fill="none" />
<path d="M562.2785499328976,424.90031020656966 L155.144216,-187.083394" stroke="grey" stroke-width="5" />
<circle cx="562.2785499328976" cy="424.90031020656966" r="2.5" fill="grey" stroke="none" />
<circle cx="551.144216" cy="416.916606" r="5" fill="black" stroke="none" />
<circle cx="655.144216" cy="312.916606" r="5" fill="black" stroke="none" />
<path d="M551.144216,416.916606 A97.56321637181655,97.56321637181655,0,0,1,592.65408749581,469.4418380930288" stroke="grey" stroke-width="5" fill="none" />
<path d="M592.65408749581,469.4418380930288 L179.144216,-59.083394" stroke="grey" stroke-width="5" />
<circle cx="592.65408749581" cy="469.4418380930288" r="2.5" fill="grey" stroke="none" />
<circle cx="551.144216" cy="416.916606" r="5" fill="black" stroke="none" />
<circle cx="679.144216" cy="440.916606" r="5" fill="black" stroke="none" />
<path d="M679.144216,440.916606 A188.63588622744584,188.63588622744584,0,0,1,684.1849890414358,459.26442114539054" stroke="grey" stroke-width="5" fill="none" />
<path d="M684.1849890414358,459.26442114539054 L267.14421600000003,-59.083394" stroke="grey" stroke-width="5" />
<circle cx="684.1849890414358" cy="459.26442114539054" r="2.5" fill="grey" stroke="none" />
<circle cx="679.144216" cy="440.916606" r="5" fill="black" stroke="none" />
<circle cx="767.144216" cy="440.916606" r="5" fill="black" stroke="none" />
<path d="M551.144216,472.916606 A57.872627906583716,57.872627906583716,0,0,1,548.1232501882703,532.1464438489087" stroke="grey" stroke-width="5" fill="none" />
<path d="M548.1232501882703,532.1464438489087 L115.144216,76.916606" stroke="grey" stroke-width="5" />
<circle cx="548.1232501882703" cy="532.1464438489087" r="2.5" fill="grey" stroke="none" />
<circle cx="551.144216" cy="472.916606" r="5" fill="black" stroke="none" />
<circle cx="615.144216" cy="576.916606" r="5" fill="black" stroke="none" />
<circle cx="500" cy="500" r="5" fill="red" stroke="none" />
</svg>