<?xml version="1.0" encoding="UTF-8"?>
<svg xmlns="http://www.w3.org/2000/svg" xmlns:xlink="http://www.w3.org/1999/xlink"
     width="1000" height="1000" viewBox="0 0 1000 1000">
<defs>
</defs>
<rect x="0" y="0" width="1000" height="1000" fill="white" />
<path d="M254.71200799999997,697.193378 L366.2939221959002,607.4897834432974" stroke="grey" stroke-width="5" />
<circle cx="366.2939221959002" cy="607.4897834432974" r="2.5" fill="grey" stroke="none" />
<path d="M366.2939221959002,607.4897834432974 A171.5557308469844,171.5557308469844,0,0,0,374.71200799999997,617.193378" stroke="grey" stroke-width="5" fill="none" />
<circle cx="254.71200799999997" cy="697.193378" r="5" fill="black" stroke="none" />
<circle cx="374.71200799999997" cy="617.193378" r="5" fill="black" stroke="none" />
<path d="M374.71200799999997,617.193378 L398.17100584711744,595.2500204737782" stroke="grey" stroke-width="5" />
<circle cx="398.17100584711744" cy="595.2500204737782" r="2.5" fill="grey" stroke="none" />
<path d="M398.17100584711744,595.2500204737782 A139.4335341675128,139.4335341675128,0,0,1,374.71200799999997,561.193378" stroke="grey" stroke-width="5" fill="none" />
<circle cx="374.71200799999997" cy="617.193378" r="5" fill="black" stroke="none" />
<circle cx="374.71200799999997" cy="561.193378" r="5" fill="black" stroke="none" />
<path d="M374.71200799999997,561.193378 A139.4335341675128,139.4335341675128,0,0,1,365.28175156469075,535.9541929260727" stroke="grey" stroke-width="5" fill="none" />
<path d="M365.28175156469075,535.9541929260727 L270.71200799999997,561.193378" stroke="grey" stroke-width="5" />
<circle cx="365.28175156469075" cy="535.9541929260727" r="2.5" fill="grey" stroke="none" />
<circle cx="374.71200799999997" cy="561.193378" r="5" fill="black" stroke="none" />
<circle cx="270.71200799999997" cy="561.193378" r="5" fill="black" stroke="none" />
<path d="M270.71200799999997,561.193378 L312.49497786928015,550.0421570098774" stroke="grey" stroke-width="5" />
<circle cx="312.49497786928015" cy="550.0421570098774" r="2.5" fill="grey" stroke="none" />
<path d="M312.4949778692802,550.0421570098775 A194.0679025558914,194.0679025558914,0,0,1,310.71200799999997,457.193378" stroke="grey" stroke-width="5" fill="none" />
<circle cx="270.71200799999997" cy="561.193378" r="5" fill="black" stroke="none" />
<circle cx="310.71200799999997" cy="457.19337800000005" r="5" fill="black" stroke="none" />
<path d="M310.71200799999997,457.19337800000005 L351.808579652416,466.48718152991904" stroke="grey" stroke-width="5" />
<circle cx="351.808579652416" cy="466.48718152991904" r="2.5" fill="grey" stroke="none" />
<path d="M351.808579652416,466.48718152991904 A151.93355806550093,151.93355806550093,0,0,1,422.71200799999997,369.19337800000005" stroke="grey" stroke-width="5" fill="none" />
<circle cx="310.71200799999997" cy="457.19337800000005" r="5" fill="black" stroke="none" />
<circle cx="422.71200799999997" cy="369.19337800000005" r="5" fill="black" stroke="none" />
<path d="M422.71200799999997,369.19337800000005 L443.66219800046053,404.65067884717985" stroke="grey" stroke-width="5" />
<circle cx="443.66219800046053" cy="404.65067884717985" r="2.5" fill="grey" stroke="none" />
<path d="M443.66219800046053,404.65067884717985 A110.74945136858668,110.74945136858668,0,0,1,470.71200799999997,393.19337800000005" stroke="grey" stroke-width="5" fill="none" />
<circle cx="422.71200799999997" cy="369.19337800000005" r="5" fill="black" stroke="none" />
<circle cx="470.71200799999997" cy="393.19337800000005" r="5" fill="black" stroke="none" />
<path d="M470.71200799999997,393.19337800000005 A110.74945136858668,110.74945136858668,0,0,0,431.7655148300589,412.76757476697077" stroke="grey" stroke-width="5" fill="none" />
<path d="M431.765514830059,412.7675747669707 L422.71200799999997,401.19337800000005" stroke="grey" stroke-width="5" />
<circle cx="431.765514830059" cy="412.7675747669707" r="2.5" fill="grey" stroke="none" />
<circle cx="470.71200799999997" cy="393.19337800000005" r="5" fill="black" stroke="none" />
<circle cx="422.71200799999997" cy="401.19337800000005" r="5" fill="black" stroke="none" />
<path d="M422.71200799999997,369.19337800000005 L436.18717017658196,391.99951385123103" stroke="grey" stroke-width="5" />
<circle cx="436.18717017658196" cy="391.99951385123103" r="2.5" fill="grey" stroke="none" />
<path d="M436.18717017658196,391.99951385123103 A125.44394070038994,125.44394070038994,0,0,0,422.7120079999999,401.19337800000005" stroke="grey" stroke-width="5" fill="none" />
<circle cx="422.71200799999997" cy="369.19337800000005" r="5" fill="black" stroke="none" />
<circle cx="422.71200799999997" cy="401.19337800000005" r="5" fill="black" stroke="none" />
<path d="M422.7120079999999,401.19337800000005 A125.44394070038994,125.44394070038994,0,0,0,375.24585281988743,513.1371617865411" stroke="grey" stroke-width="5" fill="none" />
<path d="M375.24585281988743,513.1371617865411 L374.71200799999997,513.193378" stroke="grey" stroke-width="5" />
<circle cx="375.24585281988743" cy="513.1371617865411" r="2.5" fill="grey" stroke="none" />
<circle cx="422.71200799999997" cy="401.19337800000005" r="5" fill="black" stroke="none" />
<circle cx="374.71200799999997" cy="513.193378" r="5" fill="black" stroke="none" />
<path d="M310.71200799999997,457.19337800000005 L377.12218005158337,472.21173760078807" stroke="grey" stroke-width="5" />
<circle cx="377.12218005158337" cy="472.21173760078807" r="2.5" fill="grey" stroke="none" />
<path d="M377.12218005158337,472.21173760078807 A125.98073726742099,125.98073726742099,0,0,0,374.71200799999997,513.193378" stroke="grey" stroke-width="5" fill="none" />
<circle cx="310.71200799999997" cy="457.19337800000005" r="5" fill="black" stroke="none" />
<circle cx="374.71200799999997" cy="513.193378" r="5" fill="black" stroke="none" />
<path d="M374.71200799999997,513.193378 A125.98073726742099,125.98073726742099,0,0,0,386.80001767758176,555.289331381806" stroke="grey" stroke-width="5" fill="none" />
<path d="M386.80001767758176,555.289331381806 L374.71200799999997,561.193378" stroke="grey" stroke-width="5" />
<circle cx="386.80001767758176" cy="555.289331381806" r="2.5" fill="grey" stroke="none" />
<circle cx="374.71200799999997" cy="513.193378" r="5" fill="black" stroke="none" />
<circle cx="374.71200799999997" cy="561.193378" r="5" fill="black" stroke="none" />
<path d="M470.71200799999997,393.19337800000005 A110.74945136858668,110.74945136858668,0,0,1,508.059605190777,389.5442000499216" stroke="grey" stroke-width="5" fill="none" />
<path d="M508.059605190777,389.5442000499216 L510.71200799999997,353.19337800000005" stroke="grey" stroke-width="5" />
<circle cx="508.059605190777" cy="389.5442000499216" r="2.5" fill="grey" stroke="none" />
<circle cx="470.71200799999997" cy="393.19337800000005" r="5" fill="black" stroke="none" />
<circle cx="510.71200799999997" cy="353.19337800000005" r="5" fill="black" stroke="none" />
<path d="M470.71200799999997,393.19337800000005 L487.64537039611344,454.94548571126626" stroke="grey" stroke-width="5" />
<circle cx="487.64537039611344" cy="454.94548571126626" r="2.5" fill="grey" stroke="none" />
<path d="M487.64537039611344,454.94548571126626 A46.71772822433626,46.71772822433626,0,0,1,518.712008,457.193378" stroke="grey" stroke-width="5" fill="none" />
<circle cx="470.71200799999997" cy="393.19337800000005" r="5" fill="black" stroke="none" />
<circle cx="518.712008" cy="457.19337800000005" r="5" fill="black" stroke="none" />
<path d="M422.71200799999997,401.19337800000005 L468.04387700315385,459.1466088867352" stroke="grey" stroke-width="5" />
<circle cx="468.04387700315385" cy="459.1466088867352" r="2.5" fill="grey" stroke="none" />
<path d="M468.0438770031538,459.1466088867352 A51.86707397225091,51.86707397225091,0,0,1,470.71200799999997,457.19337800000005" stroke="grey" stroke-width="5" fill="none" />
<circle cx="422.71200799999997" cy="401.19337800000005" r="5" fill="black" stroke="none" />
<circle cx="470.71200799999997" cy="457.19337800000005" r="5" fill="black" stroke="none" />
<path d="M374.71200799999997,513.193378 L422.0251524848757,508.2110952640968" stroke="grey" stroke-width="5" />
<circle cx="422.0251524848757" cy="508.2110952640968" r="2.5" fill="grey" stroke="none" />
<path d="M422.0251524848757,508.2110952640968 A78.40598784814176,78.40598784814176,0,0,0,422.71200799999997,513.193378" stroke="grey" stroke-width="5" fill="none" />
<circle cx="374.71200799999997" cy="513.193378" r="5" fill="black" stroke="none" />
<circle cx="422.71200799999997" cy="513.193378" r="5" fill="black" stroke="none" />
<path d="M374.71200799999997,561.193378 L439.04137699061175,529.7735162055515" stroke="grey" stroke-width="5" />
<circle cx="439.04137699061175" cy="529.7735162055515" r="2.5" fill="grey" stroke="none" />
<path d="M439.04137699061175,529.7735162055515 A67.8411083815923,67.8411083815923,0,0,0,470.71200799999997,561.193378" stroke="grey" stroke-width="5" fill="none" />
<circle cx="374.71200799999997" cy="561.193378" r="5" fill="black" stroke="none" />
<circle cx="470.71200799999997" cy="561.193378" r="5" fill="black" stroke="none" />
<path d="M374.71200799999997,617.193378 L411.780877216046,582.5194564795031" stroke="grey" stroke-width="5" />
<circle cx="411.780877216046" cy="582.5194564795031" r="2.5" fill="grey" stroke="none" />
<path d="M411.780877216046,582.5194564795031 A120.79765859669199,120.79765859669199,0,0,0,470.71200799999997,617.193378" stroke="grey" stroke-width="5" fill="none" />
<circle cx="374.71200799999997" cy="617.193378" r="5" fill="black" stroke="none" />
<circle cx="470.71200799999997" cy="617.193378" r="5" fill="black" stroke="none" />
<path d="M518.712008,457.193378 A46.71772822433626,46.71772822433626,0,0,0,473.61971004524827,461.4432051079687" stroke="grey" stroke-width="5" fill="none" />
<path d="M473.61971004524827,461.4432051079687 L470.71200799999997,457.19337800000005" stroke="grey" stroke-width="5" />
<circle cx="473.61971004524827" cy="461.4432051079687" r="2.5" fill="grey" stroke="none" />
<circle cx="518.712008" cy="457.19337800000005" r="5" fill="black" stroke="none" />
<circle cx="470.71200799999997" cy="457.19337800000005" r="5" fill="black" stroke="none" />
<path d="M470.71200799999997,457.19337800000005 A51.86707397225091,51.86707397225091,0,0,0,448.8725018554084,508.72767414135814" stroke="grey" stroke-width="5" fill="none" />
<path d="M448.8725018554084,508.72767414135814 L422.71200799999997,513.193378" stroke="grey" stroke-width="5" />
<circle cx="448.8725018554084" cy="508.72767414135814" r="2.5" fill="grey" stroke="none" />
<circle cx="470.71200799999997" cy="457.19337800000005" r="5" fill="black" stroke="none" />
<circle cx="422.71200799999997" cy="513.193378" r="5" fill="black" stroke="none" />
<path d="M422.71200799999997,513.193378 L433.126242194372,511.415625405433" stroke="grey" stroke-width="5" />
<circle cx="433.126242194372" cy="511.415625405433" r="2.5" fill="grey" stroke="none" />
<path d="M433.126242194372,511.415625405433 A67.8411083815923,67.8411083815923,0,0,0,470.71200799999997,561.193378" stroke="grey" stroke-width="5" fill="none" />
<circle cx="422.71200799999997" cy="513.193378" r="5" fill="black" stroke="none" />
<circle cx="470.71200799999997" cy="561.193378" r="5" fill="black" stroke="none" />
<path d="M470.71200799999997,561.193378 A67.8411083815923,67.8411083815923,0,0,0,483.55158649072007,565.8169102850528" stroke="grey" stroke-width="5" fill="none" />
<path d="M483.55158649072007,565.8169102850528 L470.71200799999997,617.193378" stroke="grey" stroke-width="5" />
<circle cx="483.55158649072007" cy="565.8169102850528" r="2.5" fill="grey" stroke="none" />
<circle cx="470.71200799999997" cy="561.193378" r="5" fill="black" stroke="none" />
<circle cx="470.71200799999997" cy="617.193378" r="5" fill="black" stroke="none" />
<path d="M470.71200799999997,617.193378 A120.79765859669199,120.79765859669199,0,0,0,525.5717462979038,618.0599852351278" stroke="grey" stroke-width="5" fill="none" />
<path d="M525.5717462979038,618.0599852351278 L542.712008,697.193378" stroke="grey" stroke-width="5" />
<circle cx="525.5717462979038" cy="618.0599852351278" r="2.5" fill="grey" stroke="none" />
<circle cx="470.71200799999997" cy="617.193378" r="5" fill="black" stroke="none" />
<circle cx="542.712008" cy="697.193378" r="5" fill="black" stroke="none" />
<path d="M518.712008,457.19337800000005 L507.8247845351227,482.0995911381373" stroke="grey" stroke-width="5" />
<circle cx="507.8247845351227" cy="482.0995911381373" r="2.5" fill="grey" stroke="none" />
<path d="M507.8247845351227,482.0995911381373 A19.535912838742586,19.535912838742586,0,0,0,494.71200799999997,481.19337800000005" stroke="grey" stroke-width="5" fill="none" />
<circle cx="518.712008" cy="457.19337800000005" r="5" fill="black" stroke="none" />
<circle cx="494.71200799999997" cy="481.19337800000005" r="5" fill="black" stroke="none" />
<path d="M494.71200799999997,481.19337800000005 A19.535912838742586,19.535912838742586,0,0,0,482.1879188720677,508.0238180646689" stroke="grey" stroke-width="5" fill="none" />
<path d="M482.1879188720677,508.0238180646689 L470.71200799999997,513.193378" stroke="grey" stroke-width="5" />
<circle cx="482.1879188720677" cy="508.0238180646689" r="2.5" fill="grey" stroke="none" />
<circle cx="494.71200799999997" cy="481.19337800000005" r="5" fill="black" stroke="none" />
<circle cx="470.71200799999997" cy="513.193378" r="5" fill="black" stroke="none" />
<path d="M470.71200799999997,513.193378 A32.12244851257373,32.12244851257373,0,0,0,486.13227234194267,528.974779171633" stroke="grey" stroke-width="5" fill="none" />
<path d="M486.13227234194267,528.974779171633 L470.71200799999997,561.193378" stroke="grey" stroke-width="5" />
<circle cx="486.13227234194267" cy="528.974779171633" r="2.5" fill="grey" stroke="none" />
<circle cx="470.71200799999997" cy="513.193378" r="5" fill="black" stroke="none" />
<circle cx="470.71200799999997" cy="561.193378" r="5" fill="black" stroke="none" />
<path d="M470.71200799999997,457.19337800000005 L488.96857649537156,483.87673774000814" stroke="grey" stroke-width="5" />
<circle cx="488.96857649537156" cy="483.87673774000814" r="2.5" fill="grey" stroke="none" />
<path d="M488.96857649537156,483.87673774000814 A19.535912838742586,19.535912838742586,0,0,1,494.71200799999997,481.19337800000005" stroke="grey" stroke-width="5" fill="none" />
<circle cx="470.71200799999997" cy="457.19337800000005" r="5" fill="black" stroke="none" />
<circle cx="494.71200799999997" cy="481.19337800000005" r="5" fill="black" stroke="none" />
<path d="M422.71200799999997,513.193378 L468.3355874749169,505.40524540463355" stroke="grey" stroke-width="5" />
<circle cx="468.3355874749169" cy="505.40524540463355" r="2.5" fill="grey" stroke="none" />
<path d="M468.3355874749169,505.40524540463355 A32.12244851257373,32.12244851257373,0,0,0,470.71200799999997,513.193378" stroke="grey" stroke-width="5" fill="none" />
<circle cx="422.71200799999997" cy="513.193378" r="5" fill="black" stroke="none" />
<circle cx="470.71200799999997" cy="513.193378" r="5" fill="black" stroke="none" />
<path d="M518.712008,457.19337800000005 L509.17041599931093,479.0212503508305" stroke="grey" stroke-width="5" />
<circle cx="509.17041599931093" cy="479.0212503508305" r="2.5" fill="grey" stroke="none" />
<path d="M509.17041599931093,479.0212503508305 A22.89551192795102,22.89551192795102,0,0,1,518.712008,513.193378" stroke="grey" stroke-width="5" fill="none" />
<circle cx="518.712008" cy="457.19337800000005" r="5" fill="black" stroke="none" />
<circle cx="518.712008" cy="513.193378" r="5" fill="black" stroke="none" />
<path d="M494.71200799999997,481.19337800000005 A19.535912838742586,19.535912838742586,0,0,1,515.9662801371818,511.2574326124557" stroke="grey" stroke-width="5" fill="none" />
<path d="M515.9662801371818,511.2574326124557 L518.712008,513.193378" stroke="grey" stroke-width="5" />
<circle cx="515.9662801371818" cy="511.2574326124557" r="2.5" fill="grey" stroke="none" />
<circle cx="494.71200799999997" cy="481.19337800000005" r="5" fill="black" stroke="none" />
<circle cx="518.712008" cy="513.193378" r="5" fill="black" stroke="none" />
<path d="M470.71200799999997,513.193378 L479.1247678420512,509.4036774080509" stroke="grey" stroke-width="5" />
<circle cx="479.1247678420512" cy="509.4036774080509" r="2.5" fill="grey" stroke="none" />
<path d="M479.1247678420512,509.4036774080509 A22.89551192795102,22.89551192795102,0,0,0,518.712008,513.193378" stroke="grey" stroke-width="5" fill="none" />
<circle cx="470.71200799999997" cy="513.193378" r="5" fill="black" stroke="none" />
<circle cx="518.712008" cy="513.193378" r="5" fill="black" stroke="none" />
<path d="M470.71200799999997,561.193378 L490.1156749030403,520.6519874060721" stroke="grey" stroke-width="5" />
<circle cx="490.1156749030403" cy="520.6519874060721" r="2.5" fill="grey" stroke="none" />
<path d="M490.1156749030403,520.6519874060721 A22.89551192795102,22.89551192795102,0,0,0,518.712008,513.193378" stroke="grey" stroke-width="5" fill="none" />
<circle cx="470.71200799999997" cy="561.193378" r="5" fill="black" stroke="none" />
<circle cx="518.712008" cy="513.193378" r="5" fill="black" stroke="none" />
<path d="M518.712008,513.193378 A22.89551192795102,22.89551192795102,0,0,1,504.91172505594824,522.3624556660873" stroke="grey" stroke-width="5" fill="none" />
<path d="M504.91172505594824,522.3624556660873 L518.712008,585.193378" stroke="grey" stroke-width="5" />
<circle cx="504.91172505594824" cy="522.3624556660873" r="2.5" fill="grey" stroke="none" />
<circle cx="518.712008" cy="513.193378" r="5" fill="black" stroke="none" />
<circle cx="518.712008" cy="585.193378" r="5" fill="black" stroke="none" />
<path d="M518.712008,585.193378 A87.22414171800689,87.22414171800689,0,0,1,478.8520738355287,584.6216054999255" stroke="grey" stroke-width="5" fill="none" />
<path d="M478.8520738355287,584.6216054999255 L470.71200799999997,617.193378" stroke="grey" stroke-width="5" />
<circle cx="478.8520738355287" cy="584.6216054999255" r="2.5" fill="grey" stroke="none" />
<circle cx="518.712008" cy="585.193378" r="5" fill="black" stroke="none" />
<circle cx="470.71200799999997" cy="617.193378" r="5" fill="black" stroke="none" />
<path d="M518.712008,457.193378 A46.71772822433626,46.71772822433626,0,0,1,529.9616975770638,464.15529594565584" stroke="grey" stroke-width="5" fill="none" />
<path d="M529.9616975770638,464.15529594565584 L622.712008,353.19337800000005" stroke="grey" stroke-width="5" />
<circle cx="529.9616975770638" cy="464.15529594565584" r="2.5" fill="grey" stroke="none" />
<circle cx="518.712008" cy="457.19337800000005" r="5" fill="black" stroke="none" />
<circle cx="622.712008" cy="353.19337800000005" r="5" fill="black" stroke="none" />
<path d="M518.712008,457.193378 A46.71772822433626,46.71772822433626,0,0,1,546.3385620044814,494.05998301351144" stroke="grey" stroke-width="5" fill="none" />
<path d="M546.3385620044814,494.05998301351144 L646.712008,481.19337800000005" stroke="grey" stroke-width="5" />
<circle cx="546.3385620044814" cy="494.05998301351144" r="2.5" fill="grey" stroke="none" />
<circle cx="518.712008" cy="457.19337800000005" r="5" fill="black" stroke="none" />
<circle cx="646.712008" cy="481.19337800000005" r="5" fill="black" stroke="none" />
<path d="M646.712008,481.19337800000005 A147.91248196972066,147.91248196972066,0,0,1,647.4399396312019,488.18617233956417" stroke="grey" stroke-width="5" fill="none" />
<path d="M647.4399396312019,488.18617233956417 L734.712008,481.19337800000005" stroke="grey" stroke-width="5" />
<circle cx="647.4399396312019" cy="488.18617233956417" r="2.5" fill="grey" stroke="none" />
<circle cx="646.712008" cy="481.19337800000005" r="5" fill="black" stroke="none" />
<circle cx="734.712008" cy="481.19337800000005" r="5" fill="black" stroke="none" />
<path d="M518.712008,513.193378 A22.89551192795102,22.89551192795102,0,0,1,513.2021008912947,518.7058546583422" stroke="grey" stroke-width="5" fill="none" />
<path d="M513.2021008912947,518.7058546583422 L582.712008,617.193378" stroke="grey" stroke-width="5" />
<circle cx="513.2021008912947" cy="518.7058546583422" r="2.5" fill="grey" stroke="none" />
<circle cx="518.712008" cy="513.193378" r="5" fill="black" stroke="none" />
<circle cx="582.712008" cy="617.193378" r="5" fill="black" stroke="none" />
<circle cx="500" cy="500" r="5" fill="red" stroke="none" />
</svg>