<?xml version="1.0" encoding="UTF-8"?>
<svg xmlns="http://www.w3.org/2000/svg" xmlns:xlink="http://www.w3.org/1999/xlink"
     width="1000" height="1000" viewBox="0 0 1000 1000">
<defs>
</defs>
<rect x="0" y="0" width="1000" height="1000" fill="white" />
<path d="M310.368512,637.6605920000001 L426.8387701972494,553.1104739635576" stroke="grey" stroke-width="5" />
<circle cx="426.8387701972494" cy="553.1104739635576" r="2.5" fill="grey" stroke="none" />
<path d="M426.8387701972494,553.1104739635576 A90.40623867236492,90.40623867236492,0,0,0,430.36851200000007,557.6605920000001" stroke="grey" stroke-width="5" fill="none" />
<circle cx="310.368512" cy="637.6605920000001" r="5" fill="black" stroke="none" />
<circle cx="430.368512" cy="557.6605920000001" r="5" fill="black" stroke="none" />
<path d="M430.368512,557.6605920000001 L446.3541147245514,544.423199793554" stroke="grey" stroke-width="5" />
<circle cx="446.3541147245514" cy="544.423199793554" r="2.5" fill="grey" stroke="none" />
<path d="M446.35411472455144,544.423199793554 A69.65128632613043,69.65128632613043,0,0,1,430.368512,501.66059200000007" stroke="grey" stroke-width="5" fill="none" />
<circle cx="430.368512" cy="557.6605920000001" r="5" fill="black" stroke="none" />
<circle cx="430.368512" cy="501.66059200000007" r="5" fill="black" stroke="none" />
<path d="M430.368512,501.66059200000007 A69.65128632613043,69.65128632613043,0,0,1,430.35189888527736,500.6661065965541" stroke="grey" stroke-width="5" fill="none" />
<path d="M430.35189888527736,500.6661065965541 L326.368512,501.66059200000007" stroke="grey" stroke-width="5" />
<circle cx="430.35189888527736" cy="500.6661065965541" r="2.5" fill="grey" stroke="none" />
<circle cx="430.368512" cy="501.66059200000007" r="5" fill="black" stroke="none" />
<circle cx="326.368512" cy="501.66059200000007" r="5" fill="black" stroke="none" />
<path d="M326.368512,501.66059200000007 L331.69035114288397,501.6096945296866" stroke="grey" stroke-width="5" />
<circle cx="331.69035114288397" cy="501.6096945296866" r="2.5" fill="grey" stroke="none" />
<path d="M331.69035114288397,501.6096945296866 A168.31734614971978,168.31734614971978,0,0,1,366.368512,397.66059200000007" stroke="grey" stroke-width="5" fill="none" />
<circle cx="326.368512" cy="501.66059200000007" r="5" fill="black" stroke="none" />
<circle cx="366.368512" cy="397.66059200000007" r="5" fill="black" stroke="none" />
<path d="M366.368512,397.66059200000007 A168.31734614971978,168.31734614971978,0,0,1,480.9935975507536,332.75919851656454" stroke="grey" stroke-width="5" fill="none" />
<path d="M480.9935975507536,332.75919851656454 L478.368512,309.66059200000007" stroke="grey" stroke-width="5" />
<circle cx="480.9935975507536" cy="332.75919851656454" r="2.5" fill="grey" stroke="none" />
<circle cx="366.368512" cy="397.66059200000007" r="5" fill="black" stroke="none" />
<circle cx="478.368512" cy="309.66059200000007" r="5" fill="black" stroke="none" />
<path d="M478.368512,309.66059200000007 L480.9824079301132,332.66073900381906" stroke="grey" stroke-width="5" />
<circle cx="480.9824079301132" cy="332.66073900381906" r="2.5" fill="grey" stroke="none" />
<path d="M480.98240793011314,332.66073900381906 A168.41643945554895,168.41643945554895,0,0,1,526.368512,333.66059200000007" stroke="grey" stroke-width="5" fill="none" />
<circle cx="478.368512" cy="309.66059200000007" r="5" fill="black" stroke="none" />
<circle cx="526.368512" cy="333.66059200000007" r="5" fill="black" stroke="none" />
<path d="M526.368512,333.66059200000007 L525.0210508752912,342.16072601541566" stroke="grey" stroke-width="5" />
<circle cx="525.0210508752912" cy="342.16072601541566" r="2.5" fill="grey" stroke="none" />
<path d="M525.0210508752912,342.16072601541566 A159.8101667569513,159.8101667569513,0,0,0,478.368512,341.66059200000007" stroke="grey" stroke-width="5" fill="none" />
<circle cx="526.368512" cy="333.66059200000007" r="5" fill="black" stroke="none" />
<circle cx="478.368512" cy="341.66059200000007" r="5" fill="black" stroke="none" />
<path d="M478.368512,309.66059200000007 L481.9542286380752,341.21196665101706" stroke="grey" stroke-width="5" />
<circle cx="481.9542286380752" cy="341.21196665101706" r="2.5" fill="grey" stroke="none" />
<path d="M481.95422863807516,341.21196665101706 A159.8101667569513,159.8101667569513,0,0,0,478.368512,341.66059200000007" stroke="grey" stroke-width="5" fill="none" />
<circle cx="478.368512" cy="309.66059200000007" r="5" fill="black" stroke="none" />
<circle cx="478.368512" cy="341.66059200000007" r="5" fill="black" stroke="none" />
<path d="M478.368512,341.66059200000007 L488.6785170536492,417.1283590196255" stroke="grey" stroke-width="5" />
<circle cx="488.6785170536492" cy="417.1283590196255" r="2.5" fill="grey" stroke="none" />
<path d="M488.6785170536492,417.1283590196255 A83.64140634210186,83.64140634210186,0,0,0,430.36851200000007,453.660592" stroke="grey" stroke-width="5" fill="none" />
<circle cx="478.368512" cy="341.66059200000007" r="5" fill="black" stroke="none" />
<circle cx="430.368512" cy="453.66059200000007" r="5" fill="black" stroke="none" />
<path d="M366.368512,397.66059200000007 L433.59492741784584,449.1448017382349" stroke="grey" stroke-width="5" />
<circle cx="433.59492741784584" cy="449.1448017382349" r="2.5" fill="grey" stroke="none" />
<path d="M433.59492741784584,449.1448017382349 A83.64140634210186,83.64140634210186,0,0,0,430.36851200000007,453.660592" stroke="grey" stroke-width="5" fill="none" />
<circle cx="366.368512" cy="397.66059200000007" r="5" fill="black" stroke="none" />
<circle cx="430.368512" cy="453.66059200000007" r="5" fill="black" stroke="none" />
<path d="M430.368512,453.66059200000007 L442.0152897936001,461.4114645371915" stroke="grey" stroke-width="5" />
<circle cx="442.0152897936001" cy="461.4114645371915" r="2.5" fill="grey" stroke="none" />
<path d="M442.0152897936001,461.4114645371915 A69.65128632613043,69.65128632613043,0,0,0,430.368512,501.66059200000007" stroke="grey" stroke-width="5" fill="none" />
<circle cx="430.368512" cy="453.66059200000007" r="5" fill="black" stroke="none" />
<circle cx="430.368512" cy="501.66059200000007" r="5" fill="black" stroke="none" />
<path d="M526.368512,333.66059200000007 A168.41643945554895,168.41643945554895,0,0,1,551.5687588309864,339.67295863917354" stroke="grey" stroke-width="5" fill="none" />
<path d="M551.5687588309864,339.67295863917354 L566.368512,293.66059200000007" stroke="grey" stroke-width="5" />
<circle cx="551.5687588309864" cy="339.67295863917354" r="2.5" fill="grey" stroke="none" />
<circle cx="526.368512" cy="333.66059200000007" r="5" fill="black" stroke="none" />
<circle cx="566.368512" cy="293.66059200000007" r="5" fill="black" stroke="none" />
<path d="M526.368512,333.66059200000007 L519.8068685689888,375.0531394376977" stroke="grey" stroke-width="5" />
<circle cx="519.8068685689888" cy="375.0531394376977" r="2.5" fill="grey" stroke="none" />
<path d="M519.8068685689888,375.0531394376977 A126.50703540469439,126.50703540469439,0,0,1,574.368512,397.66059200000007" stroke="grey" stroke-width="5" fill="none" />
<circle cx="526.368512" cy="333.66059200000007" r="5" fill="black" stroke="none" />
<circle cx="574.368512" cy="397.66059200000007" r="5" fill="black" stroke="none" />
<path d="M478.368512,341.66059200000007 L485.69518035862296,395.2907597682407" stroke="grey" stroke-width="5" />
<circle cx="485.69518035862296" cy="395.2907597682407" r="2.5" fill="grey" stroke="none" />
<path d="M485.69518035862296,395.2907597682407 A105.68184732906876,105.68184732906876,0,0,1,526.368512,397.66059200000007" stroke="grey" stroke-width="5" fill="none" />
<circle cx="478.368512" cy="341.66059200000007" r="5" fill="black" stroke="none" />
<circle cx="526.368512" cy="397.66059200000007" r="5" fill="black" stroke="none" />
<path d="M430.368512,453.66059200000007 L457.42624545860673,471.66737867521266" stroke="grey" stroke-width="5" />
<circle cx="457.42624545860673" cy="471.66737867521266" r="2.5" fill="grey" stroke="none" />
<path d="M457.42624545860673,471.6673786752126 A51.139632447687774,51.139632447687774,0,0,1,478.36851200000007,453.66059200000007" stroke="grey" stroke-width="5" fill="none" />
<circle cx="430.368512" cy="453.66059200000007" r="5" fill="black" stroke="none" />
<circle cx="478.368512" cy="453.66059200000007" r="5" fill="black" stroke="none" />
<path d="M430.368512,501.66059200000007 L473.58676082913104,500.6299106183288" stroke="grey" stroke-width="5" />
<circle cx="473.58676082913104" cy="500.6299106183288" r="2.5" fill="grey" stroke="none" />
<path d="M473.58676082913104,500.6299106183288 A26.420749249114987,26.420749249114987,0,0,0,526.368512,501.66059200000007" stroke="grey" stroke-width="5" fill="none" />
<circle cx="430.368512" cy="501.66059200000007" r="5" fill="black" stroke="none" />
<circle cx="526.368512" cy="501.66059200000007" r="5" fill="black" stroke="none" />
<path d="M430.368512,557.6605920000001 L451.1659676860658,540.4385902677906" stroke="grey" stroke-width="5" />
<circle cx="451.1659676860658" cy="540.4385902677906" r="2.5" fill="grey" stroke="none" />
<path d="M451.1659676860658,540.4385902677907 A63.40380347332972,63.40380347332972,0,0,0,526.368512,557.6605920000001" stroke="grey" stroke-width="5" fill="none" />
<circle cx="430.368512" cy="557.6605920000001" r="5" fill="black" stroke="none" />
<circle cx="526.368512" cy="557.6605920000001" r="5" fill="black" stroke="none" />
<path d="M574.368512,397.66059200000007 L562.1262027533244,414.5073816850985" stroke="grey" stroke-width="5" />
<circle cx="562.1262027533244" cy="414.5073816850985" r="2.5" fill="grey" stroke="none" />
<path d="M562.1262027533243,414.5073816850985 A105.68184732906876,105.68184732906876,0,0,0,526.368512,397.66059200000007" stroke="grey" stroke-width="5" fill="none" />
<circle cx="574.368512" cy="397.66059200000007" r="5" fill="black" stroke="none" />
<circle cx="526.368512" cy="397.66059200000007" r="5" fill="black" stroke="none" />
<path d="M526.368512,397.66059200000007 L512.759769496398,450.47777984294936" stroke="grey" stroke-width="5" />
<circle cx="512.759769496398" cy="450.47777984294936" r="2.5" fill="grey" stroke="none" />
<path d="M512.759769496398,450.47777984294936 A51.139632447687774,51.139632447687774,0,0,0,478.36851200000007,453.66059200000007" stroke="grey" stroke-width="5" fill="none" />
<circle cx="526.368512" cy="397.66059200000007" r="5" fill="black" stroke="none" />
<circle cx="478.368512" cy="453.66059200000007" r="5" fill="black" stroke="none" />
<path d="M478.368512,453.66059200000007 L488.82432092334915,476.0592358505348" stroke="grey" stroke-width="5" />
<circle cx="488.82432092334915" cy="476.0592358505348" r="2.5" fill="grey" stroke="none" />
<path d="M488.82432092334915,476.0592358505348 A26.420749249114987,26.420749249114987,0,0,1,526.368512,501.66059200000007" stroke="grey" stroke-width="5" fill="none" />
<circle cx="478.368512" cy="453.66059200000007" r="5" fill="black" stroke="none" />
<circle cx="526.368512" cy="501.66059200000007" r="5" fill="black" stroke="none" />
<path d="M526.368512,501.66059200000007 A26.420749249114987,26.420749249114987,0,0,1,510.9879187912967,524.0275182139246" stroke="grey" stroke-width="5" fill="none" />
<path d="M510.9879187912967,524.0275182139246 L526.368512,557.6605920000001" stroke="grey" stroke-width="5" />
<circle cx="510.9879187912967" cy="524.0275182139246" r="2.5" fill="grey" stroke="none" />
<circle cx="526.368512" cy="501.66059200000007" r="5" fill="black" stroke="none" />
<circle cx="526.368512" cy="557.6605920000001" r="5" fill="black" stroke="none" />
<path d="M526.368512,557.6605920000001 A63.40380347332972,63.40380347332972,0,0,0,536.8625173860952,551.5867919805492" stroke="grey" stroke-width="5" fill="none" />
<path d="M536.8625173860952,551.5867919805492 L598.368512,637.6605920000001" stroke="grey" stroke-width="5" />
<circle cx="536.8625173860952" cy="551.5867919805492" r="2.5" fill="grey" stroke="none" />
<circle cx="526.368512" cy="557.6605920000001" r="5" fill="black" stroke="none" />
<circle cx="598.368512" cy="637.6605920000001" r="5" fill="black" stroke="none" />
<path d="M574.368512,397.66059200000007 L554.7501571777365,424.6576471305962" stroke="grey" stroke-width="5" />
<circle cx="554.7501571777365" cy="424.6576471305962" r="2.5" fill="grey" stroke="none" />
<path d="M554.7501571777365,424.6576471305962 A93.13457922213748,93.13457922213748,0,0,0,550.368512,421.66059200000007" stroke="grey" stroke-width="5" fill="none" />
<circle cx="574.368512" cy="397.66059200000007" r="5" fill="black" stroke="none" />
<circle cx="550.368512" cy="421.66059200000007" r="5" fill="black" stroke="none" />
<path d="M550.368512,421.66059200000007 L528.8342746874563,455.153330534666" stroke="grey" stroke-width="5" />
<circle cx="528.8342746874563" cy="455.153330534666" r="2.5" fill="grey" stroke="none" />
<path d="M528.8342746874563,455.153330534666 A53.316406094977964,53.316406094977964,0,0,0,526.368512,453.66059200000007" stroke="grey" stroke-width="5" fill="none" />
<circle cx="550.368512" cy="421.66059200000007" r="5" fill="black" stroke="none" />
<circle cx="526.368512" cy="453.66059200000007" r="5" fill="black" stroke="none" />
<path d="M526.368512,453.66059200000007 L513.0668192897928,477.03667653555976" stroke="grey" stroke-width="5" />
<circle cx="513.0668192897928" cy="477.03667653555976" r="2.5" fill="grey" stroke="none" />
<path d="M513.0668192897928,477.03667653555976 A26.420749249114987,26.420749249114987,0,0,1,526.368512,501.66059200000007" stroke="grey" stroke-width="5" fill="none" />
<circle cx="526.368512" cy="453.66059200000007" r="5" fill="black" stroke="none" />
<circle cx="526.368512" cy="501.66059200000007" r="5" fill="black" stroke="none" />
<path d="M526.368512,397.66059200000007 L523.2378628108859,409.81102296362906" stroke="grey" stroke-width="5" />
<circle cx="523.2378628108859" cy="409.81102296362906" r="2.5" fill="grey" stroke="none" />
<path d="M523.2378628108859,409.81102296362906 A93.13457922213748,93.13457922213748,0,0,1,550.368512,421.66059200000007" stroke="grey" stroke-width="5" fill="none" />
<circle cx="526.368512" cy="397.66059200000007" r="5" fill="black" stroke="none" />
<circle cx="550.368512" cy="421.66059200000007" r="5" fill="black" stroke="none" />
<path d="M478.36851200000007,453.66059200000007 A51.139632447687774,51.139632447687774,0,0,1,525.2919525271502,455.55251250915325" stroke="grey" stroke-width="5" fill="none" />
<path d="M525.2919525271502,455.55251250915325 L526.368512,453.66059200000007" stroke="grey" stroke-width="5" />
<circle cx="525.2919525271502" cy="455.55251250915325" r="2.5" fill="grey" stroke="none" />
<circle cx="478.368512" cy="453.66059200000007" r="5" fill="black" stroke="none" />
<circle cx="526.368512" cy="453.66059200000007" r="5" fill="black" stroke="none" />
<path d="M574.368512,397.66059200000007 L551.5108751810704,429.1152622282851" stroke="grey" stroke-width="5" />
<circle cx="551.5108751810704" cy="429.1152622282851" r="2.5" fill="grey" stroke="none" />
<path d="M551.5108751810704,429.1152622282851 A87.62429064411653,87.62429064411653,0,0,1,574.368512,453.66059200000007" stroke="grey" stroke-width="5" fill="none" />
<circle cx="574.368512" cy="397.66059200000007" r="5" fill="black" stroke="none" />
<circle cx="574.368512" cy="453.66059200000007" r="5" fill="black" stroke="none" />
<path d="M550.368512,421.66059200000007 L547.3884691557248,426.2955272594565" stroke="grey" stroke-width="5" />
<circle cx="547.3884691557248" cy="426.2955272594565" r="2.5" fill="grey" stroke="none" />
<path d="M547.3884691557248,426.2955272594565 A87.62429064411653,87.62429064411653,0,0,1,574.368512,453.66059200000007" stroke="grey" stroke-width="5" fill="none" />
<circle cx="550.368512" cy="421.66059200000007" r="5" fill="black" stroke="none" />
<circle cx="574.368512" cy="453.66059200000007" r="5" fill="black" stroke="none" />
<path d="M526.368512,453.66059200000007 A53.316406094977964,53.316406094977964,0,0,1,545.2507148112071,471.80404341116616" stroke="grey" stroke-width="5" fill="none" />
<path d="M545.2507148112071,471.80404341116616 L574.368512,453.66059200000007" stroke="grey" stroke-width="5" />
<circle cx="545.2507148112071" cy="471.80404341116616" r="2.5" fill="grey" stroke="none" />
<circle cx="526.368512" cy="453.66059200000007" r="5" fill="black" stroke="none" />
<circle cx="574.368512" cy="453.66059200000007" r="5" fill="black" stroke="none" />
<path d="M526.368512,501.66059200000007 A26.420749249114987,26.420749249114987,0,0,0,522.4238255526891,486.02759725504677" stroke="grey" stroke-width="5" fill="none" />
<path d="M522.4238255526891,486.02759725504677 L574.368512,453.66059200000007" stroke="grey" stroke-width="5" />
<circle cx="522.4238255526891" cy="486.02759725504677" r="2.5" fill="grey" stroke="none" />
<circle cx="526.368512" cy="501.66059200000007" r="5" fill="black" stroke="none" />
<circle cx="574.368512" cy="453.66059200000007" r="5" fill="black" stroke="none" />
<path d="M574.368512,453.66059200000007 L566.7697553340244,458.3954169409289" stroke="grey" stroke-width="5" />
<circle cx="566.7697553340244" cy="458.3954169409289" r="2.5" fill="grey" stroke="none" />
<path d="M566.7697553340244,458.3954169409289 A78.67109735401317,78.67109735401317,0,0,1,574.368512,525.6605920000001" stroke="grey" stroke-width="5" fill="none" />
<circle cx="574.368512" cy="453.66059200000007" r="5" fill="black" stroke="none" />
<circle cx="574.368512" cy="525.6605920000001" r="5" fill="black" stroke="none" />
<path d="M574.368512,525.6605920000001 L559.9361986554447,520.6807733322447" stroke="grey" stroke-width="5" />
<circle cx="559.9361986554447" cy="520.6807733322447" r="2.5" fill="grey" stroke="none" />
<path d="M559.9361986554447,520.6807733322447 A63.40380347332972,63.40380347332972,0,0,1,526.368512,557.6605920000001" stroke="grey" stroke-width="5" fill="none" />
<circle cx="574.368512" cy="525.6605920000001" r="5" fill="black" stroke="none" />
<circle cx="526.368512" cy="557.6605920000001" r="5" fill="black" stroke="none" />
<path d="M574.368512,397.66059200000007 A126.50703540469439,126.50703540469439,0,0,1,582.7316831146226,404.2947304694967" stroke="grey" stroke-width="5" fill="none" />
<path d="M582.7316831146226,404.2947304694967 L678.368512,293.66059200000007" stroke="grey" stroke-width="5" />
<circle cx="582.7316831146226" cy="404.2947304694967" r="2.5" fill="grey" stroke="none" />
<circle cx="574.368512" cy="397.66059200000007" r="5" fill="black" stroke="none" />
<circle cx="678.368512" cy="293.66059200000007" r="5" fill="black" stroke="none" />
<path d="M574.368512,397.66059200000007 A126.50703540469439,126.50703540469439,0,0,1,617.9757954594883,454.330078907605" stroke="grey" stroke-width="5" fill="none" />
<path d="M617.9757954594883,454.330078907605 L702.368512,421.66059200000007" stroke="grey" stroke-width="5" />
<circle cx="617.9757954594883" cy="454.330078907605" r="2.5" fill="grey" stroke="none" />
<circle cx="574.368512" cy="397.66059200000007" r="5" fill="black" stroke="none" />
<circle cx="702.368512" cy="421.66059200000007" r="5" fill="black" stroke="none" />
<path d="M702.368512,421.66059200000007 A217.00248269290518,217.00248269290518,0,0,1,709.5114149336321,443.4752752559373" stroke="grey" stroke-width="5" fill="none" />
<path d="M709.5114149336321,443.4752752559373 L790.368512,421.66059200000007" stroke="grey" stroke-width="5" />
<circle cx="709.5114149336321" cy="443.4752752559373" r="2.5" fill="grey" stroke="none" />
<circle cx="702.368512" cy="421.66059200000007" r="5" fill="black" stroke="none" />
<circle cx="790.368512" cy="421.66059200000007" r="5" fill="black" stroke="none" />
<path d="M574.368512,453.66059200000007 A87.62429064411653,87.62429064411653,0,0,1,580.8824983972349,533.7051593069355" stroke="grey" stroke-width="5" fill="none" />
<path d="M580.8824983972349,533.7051593069355 L638.368512,557.6605920000001" stroke="grey" stroke-width="5" />
<circle cx="580.8824983972349" cy="533.7051593069355" r="2.5" fill="grey" stroke="none" />
<circle cx="574.368512" cy="453.66059200000007" r="5" fill="black" stroke="none" />
<circle cx="638.368512" cy="557.6605920000001" r="5" fill="black" stroke="none" />
<circle cx="500" cy="500" r="5" fill="red" stroke="none" />
</svg>