<?xml version="1.0" encoding="UTF-8"?>
<svg xmlns="http://www.w3.org/2000/svg" xmlns:xlink="http://www.w3.org/1999/xlink"
     width="1000" height="1000" viewBox="0 0 1000 1000">
<defs>
</defs>
<rect x="0" y="0" width="1000" height="1000" fill="white" />
<path d="M259.454984,690.650194 L371.76385209715164,601.6368864424559" stroke="grey" stroke-width="5" />
<circle cx="371.76385209715164" cy="601.6368864424559" r="2.5" fill="grey" stroke="none" />
<path d="M371.76385209715164,601.6368864424559 A163.6293565185596,163.6293565185596,0,0,0,379.4549840000001,610.650194" stroke="grey" stroke-width="5" fill="none" />
<circle cx="259.454984" cy="690.650194" r="5" fill="black" stroke="none" />
<circle cx="379.454984" cy="610.650194" r="5" fill="black" stroke="none" />
<path d="M379.454984,610.650194 L402.4949450479995,589.5014460524815" stroke="grey" stroke-width="5" />
<circle cx="402.4949450479995" cy="589.5014460524815" r="2.5" fill="grey" stroke="none" />
<path d="M402.4949450479995,589.5014460524815 A132.35461679396712,132.35461679396712,0,0,1,379.454984,554.650194" stroke="grey" stroke-width="5" fill="none" />
<circle cx="379.454984" cy="610.650194" r="5" fill="black" stroke="none" />
<circle cx="379.454984" cy="554.650194" r="5" fill="black" stroke="none" />
<path d="M379.454984,554.650194 A132.35461679396712,132.35461679396712,0,0,1,371.3994030745032,531.299058405706" stroke="grey" stroke-width="5" fill="none" />
<path d="M371.39940307450325,531.2990584057061 L275.454984,554.650194" stroke="grey" stroke-width="5" />
<circle cx="371.39940307450325" cy="531.2990584057061" r="2.5" fill="grey" stroke="none" />
<circle cx="379.454984" cy="554.650194" r="5" fill="black" stroke="none" />
<circle cx="275.454984" cy="554.650194" r="5" fill="black" stroke="none" />
<path d="M275.454984,554.650194 L314.38874504053956,545.1744210261963" stroke="grey" stroke-width="5" />
<circle cx="314.38874504053956" cy="545.1744210261963" r="2.5" fill="grey" stroke="none" />
<path d="M314.3887450405395,545.1744210261962 A191.02949060990002,191.02949060990002,0,0,1,315.4549840000001,450.65019399999994" stroke="grey" stroke-width="5" fill="none" />
<circle cx="275.454984" cy="554.650194" r="5" fill="black" stroke="none" />
<circle cx="315.454984" cy="450.650194" r="5" fill="black" stroke="none" />
<path d="M315.454984,450.650194 L349.9416031937528,459.8723773116727" stroke="grey" stroke-width="5" />
<circle cx="349.9416031937528" cy="459.8723773116727" r="2.5" fill="grey" stroke="none" />
<path d="M349.9416031937528,459.87237731167266 A155.33109332866323,155.33109332866323,0,0,1,427.454984,362.65019400000006" stroke="grey" stroke-width="5" fill="none" />
<circle cx="315.454984" cy="450.650194" r="5" fill="black" stroke="none" />
<circle cx="427.454984" cy="362.650194" r="5" fill="black" stroke="none" />
<path d="M427.454984,362.650194 L445.8347693231675,397.44872445257727" stroke="grey" stroke-width="5" />
<circle cx="445.8347693231675" cy="397.44872445257727" r="2.5" fill="grey" stroke="none" />
<path d="M445.8347693231675,397.44872445257727 A115.97687843134032,115.97687843134032,0,0,1,475.454984,386.650194" stroke="grey" stroke-width="5" fill="none" />
<circle cx="427.454984" cy="362.650194" r="5" fill="black" stroke="none" />
<circle cx="475.454984" cy="386.650194" r="5" fill="black" stroke="none" />
<path d="M475.454984,386.650194 A115.97687843134032,115.97687843134032,0,0,0,434.2237238106602,404.479751773032" stroke="grey" stroke-width="5" fill="none" />
<path d="M434.2237238106602,404.479751773032 L427.454984,394.650194" stroke="grey" stroke-width="5" />
<circle cx="434.2237238106602" cy="404.479751773032" r="2.5" fill="grey" stroke="none" />
<circle cx="475.454984" cy="386.650194" r="5" fill="black" stroke="none" />
<circle cx="427.454984" cy="394.650194" r="5" fill="black" stroke="none" />
<path d="M427.454984,362.650194 L440.2608698190286,386.89563538086236" stroke="grey" stroke-width="5" />
<circle cx="440.2608698190286" cy="386.89563538086236" r="2.5" fill="grey" stroke="none" />
<path d="M440.2608698190286,386.89563538086236 A127.91153572167714,127.91153572167714,0,0,0,427.454984,394.650194" stroke="grey" stroke-width="5" fill="none" />
<circle cx="427.454984" cy="362.650194" r="5" fill="black" stroke="none" />
<circle cx="427.454984" cy="394.650194" r="5" fill="black" stroke="none" />
<path d="M427.454984,394.650194 L431.52894717540664,400.5663996037072" stroke="grey" stroke-width="5" />
<circle cx="431.52894717540664" cy="400.5663996037072" r="2.5" fill="grey" stroke="none" />
<path d="M431.52894717540664,400.5663996037072 A120.72831466842352,120.72831466842352,0,0,0,379.454984,506.65019400000006" stroke="grey" stroke-width="5" fill="none" />
<circle cx="427.454984" cy="394.650194" r="5" fill="black" stroke="none" />
<circle cx="379.454984" cy="506.650194" r="5" fill="black" stroke="none" />
<path d="M315.454984,450.650194 L383.3697944175819,468.81152282523607" stroke="grey" stroke-width="5" />
<circle cx="383.3697944175819" cy="468.81152282523607" r="2.5" fill="grey" stroke="none" />
<path d="M383.3697944175819,468.811522825236 A120.72831466842352,120.72831466842352,0,0,0,379.454984,506.65019400000006" stroke="grey" stroke-width="5" fill="none" />
<circle cx="315.454984" cy="450.650194" r="5" fill="black" stroke="none" />
<circle cx="379.454984" cy="506.650194" r="5" fill="black" stroke="none" />
<path d="M379.454984,506.65019400000006 A120.72831466842352,120.72831466842352,0,0,0,390.04390646974775,549.849608406128" stroke="grey" stroke-width="5" fill="none" />
<path d="M390.04390646974775,549.849608406128 L379.454984,554.650194" stroke="grey" stroke-width="5" />
<circle cx="390.04390646974775" cy="549.849608406128" r="2.5" fill="grey" stroke="none" />
<circle cx="379.454984" cy="506.650194" r="5" fill="black" stroke="none" />
<circle cx="379.454984" cy="554.650194" r="5" fill="black" stroke="none" />
<path d="M475.454984,386.650194 A115.97687843134032,115.97687843134032,0,0,1,511.6295331028361,384.60766797361305" stroke="grey" stroke-width="5" fill="none" />
<path d="M511.62953310283615,384.60766797361305 L515.454984,346.650194" stroke="grey" stroke-width="5" />
<circle cx="511.62953310283615" cy="384.60766797361305" r="2.5" fill="grey" stroke="none" />
<circle cx="475.454984" cy="386.650194" r="5" fill="black" stroke="none" />
<circle cx="515.454984" cy="346.650194" r="5" fill="black" stroke="none" />
<path d="M475.454984,386.650194 L488.43612671390594,446.59759873094606" stroke="grey" stroke-width="5" />
<circle cx="488.43612671390594" cy="446.59759873094606" r="2.5" fill="grey" stroke="none" />
<path d="M488.4361267139059,446.59759873094606 A54.640091752099885,54.640091752099885,0,0,1,523.4549840000001,450.650194" stroke="grey" stroke-width="5" fill="none" />
<circle cx="475.454984" cy="386.650194" r="5" fill="black" stroke="none" />
<circle cx="523.454984" cy="450.650194" r="5" fill="black" stroke="none" />
<path d="M427.454984,394.650194 L468.74051429600564,454.60500340125947" stroke="grey" stroke-width="5" />
<circle cx="468.74051429600564" cy="454.60500340125947" r="2.5" fill="grey" stroke="none" />
<path d="M468.74051429600564,454.60500340125947 A55.116795649583,55.116795649583,0,0,1,475.454984,450.650194" stroke="grey" stroke-width="5" fill="none" />
<circle cx="427.454984" cy="394.650194" r="5" fill="black" stroke="none" />
<circle cx="475.454984" cy="450.650194" r="5" fill="black" stroke="none" />
<path d="M379.454984,506.650194 L427.26141542591773,504.01282205398735" stroke="grey" stroke-width="5" />
<circle cx="427.26141542591773" cy="504.01282205398735" r="2.5" fill="grey" stroke="none" />
<path d="M427.26141542591773,504.01282205398735 A72.84918960893036,72.84918960893036,0,0,0,427.454984,506.65019400000006" stroke="grey" stroke-width="5" fill="none" />
<circle cx="379.454984" cy="506.650194" r="5" fill="black" stroke="none" />
<circle cx="427.454984" cy="506.650194" r="5" fill="black" stroke="none" />
<path d="M379.454984,554.650194 L445.43639766832547,524.7369119994548" stroke="grey" stroke-width="5" />
<circle cx="445.43639766832547" cy="524.7369119994548" r="2.5" fill="grey" stroke="none" />
<path d="M445.43639766832547,524.7369119994548 A59.909110448060325,59.909110448060325,0,0,0,475.454984,554.650194" stroke="grey" stroke-width="5" fill="none" />
<circle cx="379.454984" cy="554.650194" r="5" fill="black" stroke="none" />
<circle cx="475.454984" cy="554.650194" r="5" fill="black" stroke="none" />
<path d="M379.454984,610.650194 L416.5030334593899,576.643198140436" stroke="grey" stroke-width="5" />
<circle cx="416.5030334593899" cy="576.643198140436" r="2.5" fill="grey" stroke="none" />
<path d="M416.5030334593899,576.643198140436 A113.33985725541518,113.33985725541518,0,0,0,475.454984,610.6501939999999" stroke="grey" stroke-width="5" fill="none" />
<circle cx="379.454984" cy="610.650194" r="5" fill="black" stroke="none" />
<circle cx="475.454984" cy="610.650194" r="5" fill="black" stroke="none" />
<path d="M523.4549840000001,450.650194 A54.640091752099885,54.640091752099885,0,0,0,475.6672732786688,451.0770193366869" stroke="grey" stroke-width="5" fill="none" />
<path d="M475.6672732786688,451.0770193366869 L475.454984,450.650194" stroke="grey" stroke-width="5" />
<circle cx="475.6672732786688" cy="451.0770193366869" r="2.5" fill="grey" stroke="none" />
<circle cx="523.454984" cy="450.650194" r="5" fill="black" stroke="none" />
<circle cx="475.454984" cy="450.650194" r="5" fill="black" stroke="none" />
<path d="M475.454984,450.650194 A55.116795649583,55.116795649583,0,0,0,445.11333834003875,505.03145451165256" stroke="grey" stroke-width="5" fill="none" />
<path d="M445.11333834003875,505.03145451165256 L427.454984,506.650194" stroke="grey" stroke-width="5" />
<circle cx="445.11333834003875" cy="505.03145451165256" r="2.5" fill="grey" stroke="none" />
<circle cx="475.454984" cy="450.650194" r="5" fill="black" stroke="none" />
<circle cx="427.454984" cy="506.650194" r="5" fill="black" stroke="none" />
<path d="M427.454984,506.650194 L440.3410333137388,505.46893121235473" stroke="grey" stroke-width="5" />
<circle cx="440.3410333137388" cy="505.46893121235473" r="2.5" fill="grey" stroke="none" />
<path d="M440.3410333137388,505.4689312123548 A59.909110448060325,59.909110448060325,0,0,0,475.454984,554.650194" stroke="grey" stroke-width="5" fill="none" />
<circle cx="427.454984" cy="506.650194" r="5" fill="black" stroke="none" />
<circle cx="475.454984" cy="554.650194" r="5" fill="black" stroke="none" />
<path d="M475.454984,554.650194 A59.909110448060325,59.909110448060325,0,0,0,487.02601088353543,558.4874099365303" stroke="grey" stroke-width="5" fill="none" />
<path d="M487.02601088353543,558.4874099365303 L475.454984,610.650194" stroke="grey" stroke-width="5" />
<circle cx="487.02601088353543" cy="558.4874099365303" r="2.5" fill="grey" stroke="none" />
<circle cx="475.454984" cy="554.650194" r="5" fill="black" stroke="none" />
<circle cx="475.454984" cy="610.650194" r="5" fill="black" stroke="none" />
<path d="M475.454984,610.6501939999999 A113.33985725541518,113.33985725541518,0,0,0,527.3762407058937,609.9839292237318" stroke="grey" stroke-width="5" fill="none" />
<path d="M527.3762407058937,609.9839292237318 L547.454984,690.650194" stroke="grey" stroke-width="5" />
<circle cx="527.3762407058937" cy="609.9839292237318" r="2.5" fill="grey" stroke="none" />
<circle cx="475.454984" cy="610.650194" r="5" fill="black" stroke="none" />
<circle cx="547.454984" cy="690.650194" r="5" fill="black" stroke="none" />
<path d="M523.454984,450.650194 L510.8842551117756,477.0992860954144" stroke="grey" stroke-width="5" />
<circle cx="510.8842551117756" cy="477.0992860954144" r="2.5" fill="grey" stroke="none" />
<path d="M510.8842551117756,477.0992860954144 A25.35566419319147,25.35566419319147,0,0,0,499.454984,474.650194" stroke="grey" stroke-width="5" fill="none" />
<circle cx="523.454984" cy="450.650194" r="5" fill="black" stroke="none" />
<circle cx="499.454984" cy="474.650194" r="5" fill="black" stroke="none" />
<path d="M499.454984,474.650194 A25.35566419319147,25.35566419319147,0,0,0,475.5266948415947,506.63076475992506" stroke="grey" stroke-width="5" fill="none" />
<path d="M475.5266948415947,506.63076475992506 L475.454984,506.650194" stroke="grey" stroke-width="5" />
<circle cx="475.5266948415947" cy="506.63076475992506" r="2.5" fill="grey" stroke="none" />
<circle cx="499.454984" cy="474.650194" r="5" fill="black" stroke="none" />
<circle cx="475.454984" cy="506.650194" r="5" fill="black" stroke="none" />
<path d="M475.454984,506.650194 A25.429960493046206,25.429960493046206,0,0,0,489.5812376028796,523.1976783491417" stroke="grey" stroke-width="5" fill="none" />
<path d="M489.5812376028796,523.1976783491417 L475.454984,554.650194" stroke="grey" stroke-width="5" />
<circle cx="489.5812376028796" cy="523.1976783491417" r="2.5" fill="grey" stroke="none" />
<circle cx="475.454984" cy="506.650194" r="5" fill="black" stroke="none" />
<circle cx="475.454984" cy="554.650194" r="5" fill="black" stroke="none" />
<path d="M475.454984,450.650194 L488.70842950905075,477.29735384309095" stroke="grey" stroke-width="5" />
<circle cx="488.70842950905075" cy="477.29735384309095" r="2.5" fill="grey" stroke="none" />
<path d="M488.70842950905075,477.29735384309095 A25.35566419319147,25.35566419319147,0,0,1,499.454984,474.650194" stroke="grey" stroke-width="5" fill="none" />
<circle cx="475.454984" cy="450.650194" r="5" fill="black" stroke="none" />
<circle cx="499.454984" cy="474.650194" r="5" fill="black" stroke="none" />
<path d="M427.454984,506.650194 L474.67621945074796,502.3214283041298" stroke="grey" stroke-width="5" />
<circle cx="474.67621945074796" cy="502.3214283041298" r="2.5" fill="grey" stroke="none" />
<path d="M474.67621945074796,502.3214283041299 A25.429960493046206,25.429960493046206,0,0,0,475.454984,506.650194" stroke="grey" stroke-width="5" fill="none" />
<circle cx="427.454984" cy="506.650194" r="5" fill="black" stroke="none" />
<circle cx="475.454984" cy="506.650194" r="5" fill="black" stroke="none" />
<path d="M523.454984,450.650194 L510.4652354343387,477.980912780459" stroke="grey" stroke-width="5" />
<circle cx="510.4652354343387" cy="477.980912780459" r="2.5" fill="grey" stroke="none" />
<path d="M510.4652354343387,477.980912780459 A24.379527367811978,24.379527367811978,0,0,1,523.4549840000001,506.650194" stroke="grey" stroke-width="5" fill="none" />
<circle cx="523.454984" cy="450.650194" r="5" fill="black" stroke="none" />
<circle cx="523.454984" cy="506.650194" r="5" fill="black" stroke="none" />
<path d="M499.454984,474.650194 L499.4759659069999,475.62610529793676" stroke="grey" stroke-width="5" />
<circle cx="499.4759659069999" cy="475.62610529793676" r="2.5" fill="grey" stroke="none" />
<path d="M499.4759659069999,475.62610529793676 A24.379527367811978,24.379527367811978,0,0,1,523.4549840000001,506.650194" stroke="grey" stroke-width="5" fill="none" />
<circle cx="499.454984" cy="474.650194" r="5" fill="black" stroke="none" />
<circle cx="523.454984" cy="506.650194" r="5" fill="black" stroke="none" />
<path d="M475.454984,506.650194 L476.46886280145765,506.3754950255858" stroke="grey" stroke-width="5" />
<circle cx="476.46886280145765" cy="506.3754950255858" r="2.5" fill="grey" stroke="none" />
<path d="M476.46886280145765,506.3754950255858 A24.379527367811978,24.379527367811978,0,0,0,523.4549840000001,506.650194" stroke="grey" stroke-width="5" fill="none" />
<circle cx="475.454984" cy="506.650194" r="5" fill="black" stroke="none" />
<circle cx="523.454984" cy="506.650194" r="5" fill="black" stroke="none" />
<path d="M475.454984,554.650194 L490.0116044982144,522.2394539046669" stroke="grey" stroke-width="5" />
<circle cx="490.0116044982144" cy="522.2394539046669" r="2.5" fill="grey" stroke="none" />
<path d="M490.0116044982144,522.2394539046669 A24.379527367811978,24.379527367811978,0,0,0,523.4549840000001,506.650194" stroke="grey" stroke-width="5" fill="none" />
<circle cx="475.454984" cy="554.650194" r="5" fill="black" stroke="none" />
<circle cx="523.454984" cy="506.650194" r="5" fill="black" stroke="none" />
<path d="M523.4549840000001,506.650194 A24.379527367811978,24.379527367811978,0,0,1,506.96722328443,523.3627728316394" stroke="grey" stroke-width="5" fill="none" />
<path d="M506.96722328443,523.3627728316394 L523.454984,578.650194" stroke="grey" stroke-width="5" />
<circle cx="506.96722328443" cy="523.3627728316394" r="2.5" fill="grey" stroke="none" />
<circle cx="523.454984" cy="506.650194" r="5" fill="black" stroke="none" />
<circle cx="523.454984" cy="578.650194" r="5" fill="black" stroke="none" />
<path d="M523.454984,578.650194 A82.07307287215394,82.07307287215394,0,0,1,482.2261564854765,580.1254003259835" stroke="grey" stroke-width="5" fill="none" />
<path d="M482.2261564854765,580.1254003259835 L475.454984,610.650194" stroke="grey" stroke-width="5" />
<circle cx="482.2261564854765" cy="580.1254003259835" r="2.5" fill="grey" stroke="none" />
<circle cx="523.454984" cy="578.650194" r="5" fill="black" stroke="none" />
<circle cx="475.454984" cy="610.650194" r="5" fill="black" stroke="none" />
<path d="M523.4549840000001,450.650194 A54.640091752099885,54.640091752099885,0,0,1,534.9252837569458,457.97900309161247" stroke="grey" stroke-width="5" fill="none" />
<path d="M534.9252837569458,457.97900309161247 L627.454984,346.650194" stroke="grey" stroke-width="5" />
<circle cx="534.9252837569458" cy="457.97900309161247" r="2.5" fill="grey" stroke="none" />
<circle cx="523.454984" cy="450.650194" r="5" fill="black" stroke="none" />
<circle cx="627.454984" cy="346.650194" r="5" fill="black" stroke="none" />
<path d="M523.4549840000001,450.650194 A54.640091752099885,54.640091752099885,0,0,1,553.8904499602731,490.98007595612944" stroke="grey" stroke-width="5" fill="none" />
<path d="M553.8904499602731,490.98007595612944 L651.454984,474.650194" stroke="grey" stroke-width="5" />
<circle cx="553.8904499602731" cy="490.98007595612944" r="2.5" fill="grey" stroke="none" />
<circle cx="523.454984" cy="450.650194" r="5" fill="black" stroke="none" />
<circle cx="651.454984" cy="474.650194" r="5" fill="black" stroke="none" />
<path d="M651.454984,474.650194 A153.56179486668518,153.56179486668518,0,0,1,652.7084533700863,483.8335807305989" stroke="grey" stroke-width="5" fill="none" />
<path d="M652.7084533700863,483.8335807305989 L739.454984,474.650194" stroke="grey" stroke-width="5" />
<circle cx="652.7084533700863" cy="483.8335807305989" r="2.5" fill="grey" stroke="none" />
<circle cx="651.454984" cy="474.650194" r="5" fill="black" stroke="none" />
<circle cx="739.454984" cy="474.650194" r="5" fill="black" stroke="none" />
<path d="M523.4549840000001,506.650194 A24.379527367811978,24.379527367811978,0,0,1,515.1172352562149,519.1266973857523" stroke="grey" stroke-width="5" fill="none" />
<path d="M515.1172352562148,519.1266973857523 L587.454984,610.650194" stroke="grey" stroke-width="5" />
<circle cx="515.1172352562148" cy="519.1266973857523" r="2.5" fill="grey" stroke="none" />
<circle cx="523.454984" cy="506.650194" r="5" fill="black" stroke="none" />
<circle cx="587.454984" cy="610.650194" r="5" fill="black" stroke="none" />
<circle cx="500" cy="500" r="5" fill="red" stroke="none" />
</svg>