<?xml version="1.0" encoding="UTF-8"?>
<svg xmlns="http://www.w3.org/2000/svg" xmlns:xlink="http://www.w3.org/1999/xlink"
     width="1000" height="1000" viewBox="0 0 1000 1000">
<defs>
</defs>
<rect x="0" y="0" width="1000" height="1000" fill="white" />
<path d="M263.836928,684.654848 L376.8280141989565,596.3076238945175" stroke="grey" stroke-width="5" />
<circle cx="376.8280141989565" cy="596.3076238945175" r="2.5" fill="grey" stroke="none" />
<path d="M376.8280141989565,596.3076238945175 A156.35375437251352,156.35375437251352,0,0,0,383.836928,604.654848" stroke="grey" stroke-width="5" fill="none" />
<circle cx="263.836928" cy="684.654848" r="5" fill="black" stroke="none" />
<circle cx="383.836928" cy="604.654848" r="5" fill="black" stroke="none" />
<path d="M383.836928,604.654848 L406.43204038505587,584.2982233731914" stroke="grey" stroke-width="5" />
<circle cx="406.43204038505587" cy="584.2982233731914" r="2.5" fill="grey" stroke="none" />
<path d="M406.43204038505587,584.2982233731914 A125.94107165805875,125.94107165805875,0,0,1,383.836928,548.654848" stroke="grey" stroke-width="5" fill="none" />
<circle cx="383.836928" cy="604.654848" r="5" fill="black" stroke="none" />
<circle cx="383.836928" cy="548.654848" r="5" fill="black" stroke="none" />
<path d="M383.836928,548.654848 A125.94107165805875,125.94107165805875,0,0,1,377.0260702618934,527.1765732782392" stroke="grey" stroke-width="5" fill="none" />
<path d="M377.0260702618934,527.1765732782392 L-220.163072,48.654848000000015" stroke="grey" stroke-width="5" />
<circle cx="377.0260702618934" cy="527.1765732782392" r="2.5" fill="grey" stroke="none" />
<circle cx="383.836928" cy="548.654848" r="5" fill="black" stroke="none" />
<circle cx="279.836928" cy="548.654848" r="5" fill="black" stroke="none" />
<path d="M279.836928,548.654848 L315.9680357126688,540.6700686368581" stroke="grey" stroke-width="5" />
<circle cx="315.9680357126688" cy="540.6700686368581" r="2.5" fill="grey" stroke="none" />
<path d="M315.9680357126688,540.6700686368581 A188.47232784252517,188.47232784252517,0,0,1,319.83692799999994,444.654848" stroke="grey" stroke-width="5" fill="none" />
<circle cx="279.836928" cy="548.654848" r="5" fill="black" stroke="none" />
<circle cx="319.836928" cy="444.654848" r="5" fill="black" stroke="none" />
<path d="M319.836928,444.654848 L348.27153465766423,453.38981022094083" stroke="grey" stroke-width="5" />
<circle cx="348.27153465766423" cy="453.38981022094083" r="2.5" fill="grey" stroke="none" />
<path d="M348.27153465766423,453.38981022094083 A158.72629582517285,158.72629582517285,0,0,1,431.83692799999994,356.654848" stroke="grey" stroke-width="5" fill="none" />
<circle cx="319.836928" cy="444.654848" r="5" fill="black" stroke="none" />
<circle cx="431.836928" cy="356.654848" r="5" fill="black" stroke="none" />
<path d="M431.836928,356.654848 L448.022385860866,390.6924412184428" stroke="grey" stroke-width="5" />
<circle cx="448.022385860866" cy="390.6924412184428" r="2.5" fill="grey" stroke="none" />
<path d="M448.02238586086594,390.6924412184428 A121.03641922322505,121.03641922322505,0,0,1,479.836928,380.654848" stroke="grey" stroke-width="5" fill="none" />
<circle cx="431.836928" cy="356.654848" r="5" fill="black" stroke="none" />
<circle cx="479.836928" cy="380.654848" r="5" fill="black" stroke="none" />
<path d="M479.836928,380.654848 A121.03641922322505,121.03641922322505,0,0,0,436.8053764283294,396.7708649168504" stroke="grey" stroke-width="5" fill="none" />
<path d="M436.8053764283294,396.7708649168504 L-68.163072,-111.34515199999998" stroke="grey" stroke-width="5" />
<circle cx="436.8053764283294" cy="396.7708649168504" r="2.5" fill="grey" stroke="none" />
<circle cx="479.836928" cy="380.654848" r="5" fill="black" stroke="none" />
<circle cx="431.836928" cy="388.654848" r="5" fill="black" stroke="none" />
<path d="M431.836928,356.654848 L443.9358341784273,382.0985302504185" stroke="grey" stroke-width="5" />
<circle cx="443.9358341784273" cy="382.0985302504185" r="2.5" fill="grey" stroke="none" />
<path d="M443.9358341784272,382.09853025041855 A130.55246936914017,130.55246936914017,0,0,0,431.83692800000006,388.654848" stroke="grey" stroke-width="5" fill="none" />
<circle cx="431.836928" cy="356.654848" r="5" fill="black" stroke="none" />
<circle cx="431.836928" cy="388.654848" r="5" fill="black" stroke="none" />
<path d="M431.836928,388.654848 L439.34884807126645,400.92565472283974" stroke="grey" stroke-width="5" />
<circle cx="439.34884807126645" cy="400.92565472283974" r="2.5" fill="grey" stroke="none" />
<path d="M439.34884807126645,400.92565472283974 A116.16491777804643,116.16491777804643,0,0,0,383.836928,500.654848" stroke="grey" stroke-width="5" fill="none" />
<circle cx="431.836928" cy="388.654848" r="5" fill="black" stroke="none" />
<circle cx="383.836928" cy="500.654848" r="5" fill="black" stroke="none" />
<path d="M319.836928,444.654848 L388.9564919949054,465.88801600166335" stroke="grey" stroke-width="5" />
<circle cx="388.9564919949054" cy="465.88801600166335" r="2.5" fill="grey" stroke="none" />
<path d="M388.9564919949054,465.88801600166335 A116.16491777804643,116.16491777804643,0,0,0,383.836928,500.654848" stroke="grey" stroke-width="5" fill="none" />
<circle cx="319.836928" cy="444.654848" r="5" fill="black" stroke="none" />
<circle cx="383.836928" cy="500.654848" r="5" fill="black" stroke="none" />
<path d="M383.836928,500.654848 A116.16491777804643,116.16491777804643,0,0,0,392.8540663496742,544.8780238488758" stroke="grey" stroke-width="5" fill="none" />
<path d="M392.8540663496742,544.8780238488758 L-116.163072,48.654848000000015" stroke="grey" stroke-width="5" />
<circle cx="392.8540663496742" cy="544.8780238488758" r="2.5" fill="grey" stroke="none" />
<circle cx="383.836928" cy="500.654848" r="5" fill="black" stroke="none" />
<circle cx="383.836928" cy="548.654848" r="5" fill="black" stroke="none" />
<path d="M479.836928,380.654848 A121.03641922322505,121.03641922322505,0,0,1,514.9524420351377,379.8907195277312" stroke="grey" stroke-width="5" fill="none" />
<path d="M514.9524420351377,379.8907195277312 L19.836928,-159.34515199999998" stroke="grey" stroke-width="5" />
<circle cx="514.9524420351377" cy="379.8907195277312" r="2.5" fill="grey" stroke="none" />
<circle cx="479.836928" cy="380.654848" r="5" fill="black" stroke="none" />
<circle cx="519.836928" cy="340.654848" r="5" fill="black" stroke="none" />
<path d="M479.836928,380.654848 L489.6797073920244,438.9142244801128" stroke="grey" stroke-width="5" />
<circle cx="489.6797073920244" cy="438.9142244801128" r="2.5" fill="grey" stroke="none" />
<path d="M489.6797073920244,438.9142244801128 A61.95143590248967,61.95143590248967,0,0,1,527.8369280000001,444.654848" stroke="grey" stroke-width="5" fill="none" />
<circle cx="479.836928" cy="380.654848" r="5" fill="black" stroke="none" />
<circle cx="527.836928" cy="444.654848" r="5" fill="black" stroke="none" />
<path d="M431.836928,388.654848 L469.2456905748198,449.76248638556484" stroke="grey" stroke-width="5" />
<circle cx="469.2456905748198" cy="449.76248638556484" r="2.5" fill="grey" stroke="none" />
<path d="M469.2456905748198,449.76248638556484 A58.903610435866206,58.903610435866206,0,0,1,479.836928,444.654848" stroke="grey" stroke-width="5" fill="none" />
<circle cx="431.836928" cy="388.654848" r="5" fill="black" stroke="none" />
<circle cx="479.836928" cy="444.654848" r="5" fill="black" stroke="none" />
<path d="M383.836928,500.654848 L431.8348655972145,500.38426843544045" stroke="grey" stroke-width="5" />
<circle cx="431.8348655972145" cy="500.38426843544045" r="2.5" fill="grey" stroke="none" />
<path d="M431.8348655972145,500.38426843544045 A68.1662175155721,68.1662175155721,0,0,0,431.836928,500.65484799999996" stroke="grey" stroke-width="5" fill="none" />
<circle cx="383.836928" cy="500.654848" r="5" fill="black" stroke="none" />
<circle cx="431.836928" cy="500.654848" r="5" fill="black" stroke="none" />
<path d="M383.836928,548.654848 L451.42176878434816,520.3469692666736" stroke="grey" stroke-width="5" />
<circle cx="451.42176878434816" cy="520.3469692666736" r="2.5" fill="grey" stroke="none" />
<path d="M451.42176878434816,520.3469692666736 A52.66729256740173,52.66729256740173,0,0,0,479.836928,548.654848" stroke="grey" stroke-width="5" fill="none" />
<circle cx="383.836928" cy="548.654848" r="5" fill="black" stroke="none" />
<circle cx="479.836928" cy="548.654848" r="5" fill="black" stroke="none" />
<path d="M383.836928,604.654848 L420.8167372002184,571.3386120888332" stroke="grey" stroke-width="5" />
<circle cx="420.8167372002184" cy="571.3386120888332" r="2.5" fill="grey" stroke="none" />
<path d="M420.8167372002184,571.3386120888332 A106.57948527920507,106.57948527920507,0,0,0,479.836928,604.654848" stroke="grey" stroke-width="5" fill="none" />
<circle cx="383.836928" cy="604.654848" r="5" fill="black" stroke="none" />
<circle cx="479.836928" cy="604.654848" r="5" fill="black" stroke="none" />
<path d="M527.836928,444.654848 L526.4674343500949,447.3776640455433" stroke="grey" stroke-width="5" />
<circle cx="526.4674343500949" cy="447.3776640455433" r="2.5" fill="grey" stroke="none" />
<path d="M526.4674343500949,447.3776640455433 A58.903610435866206,58.903610435866206,0,0,0,479.836928,444.654848" stroke="grey" stroke-width="5" fill="none" />
<circle cx="527.836928" cy="444.654848" r="5" fill="black" stroke="none" />
<circle cx="479.836928" cy="444.654848" r="5" fill="black" stroke="none" />
<path d="M479.836928,444.654848 A58.903610435866206,58.903610435866206,0,0,0,441.09910765867727,500.5658655106966" stroke="grey" stroke-width="5" fill="none" />
<path d="M441.09910765867727,500.56586551069665 L-68.163072,0.6548480000000154" stroke="grey" stroke-width="5" />
<circle cx="441.09910765867727" cy="500.56586551069665" r="2.5" fill="grey" stroke="none" />
<circle cx="479.836928" cy="444.654848" r="5" fill="black" stroke="none" />
<circle cx="431.836928" cy="500.654848" r="5" fill="black" stroke="none" />
<path d="M431.836928,500.654848 L447.33513775358347,500.50595547853743" stroke="grey" stroke-width="5" />
<circle cx="447.33513775358347" cy="500.50595547853743" r="2.5" fill="grey" stroke="none" />
<path d="M447.33513775358347,500.50595547853743 A52.66729256740173,52.66729256740173,0,0,0,479.836928,548.654848" stroke="grey" stroke-width="5" fill="none" />
<circle cx="431.836928" cy="500.654848" r="5" fill="black" stroke="none" />
<circle cx="479.836928" cy="548.654848" r="5" fill="black" stroke="none" />
<path d="M479.836928,548.654848 A52.66729256740173,52.66729256740173,0,0,0,490.03622123620084,551.7162142768238" stroke="grey" stroke-width="5" fill="none" />
<path d="M490.03622123620084,551.7162142768238 L-20.163072,104.65484800000002" stroke="grey" stroke-width="5" />
<circle cx="490.03622123620084" cy="551.7162142768238" r="2.5" fill="grey" stroke="none" />
<circle cx="479.836928" cy="548.654848" r="5" fill="black" stroke="none" />
<circle cx="479.836928" cy="604.654848" r="5" fill="black" stroke="none" />
<path d="M479.836928,604.654848 A106.57948527920507,106.57948527920507,0,0,0,528.8058413288999,602.6129143320397" stroke="grey" stroke-width="5" fill="none" />
<path d="M528.8058413288999,602.6129143320397 L51.836928,184.65484800000002" stroke="grey" stroke-width="5" />
<circle cx="528.8058413288999" cy="602.6129143320397" r="2.5" fill="grey" stroke="none" />
<circle cx="479.836928" cy="604.654848" r="5" fill="black" stroke="none" />
<circle cx="551.836928" cy="684.654848" r="5" fill="black" stroke="none" />
<path d="M527.836928,444.654848 L514.1895916846647,471.7883701604679" stroke="grey" stroke-width="5" />
<circle cx="514.1895916846647" cy="471.7883701604679" r="2.5" fill="grey" stroke="none" />
<path d="M514.1895916846647,471.7883701604679 A31.579116048114567,31.579116048114567,0,0,0,503.836928,468.654848" stroke="grey" stroke-width="5" fill="none" />
<circle cx="527.836928" cy="444.654848" r="5" fill="black" stroke="none" />
<circle cx="503.836928" cy="468.654848" r="5" fill="black" stroke="none" />
<path d="M503.836928,468.654848 L502.45114671112276,479.9757602346346" stroke="grey" stroke-width="5" />
<circle cx="502.45114671112276" cy="479.9757602346346" r="2.5" fill="grey" stroke="none" />
<path d="M502.45114671112276,479.9757602346346 A20.173703139986173,20.173703139986173,0,0,0,479.836928,500.654848" stroke="grey" stroke-width="5" fill="none" />
<circle cx="503.836928" cy="468.654848" r="5" fill="black" stroke="none" />
<circle cx="479.836928" cy="500.654848" r="5" fill="black" stroke="none" />
<path d="M479.836928,500.654848 A20.173703139986173,20.173703139986173,0,0,0,492.27672794462325,518.6367745905487" stroke="grey" stroke-width="5" fill="none" />
<path d="M492.2767279446232,518.6367745905487 L-20.163072,48.654848000000015" stroke="grey" stroke-width="5" />
<circle cx="492.2767279446232" cy="518.6367745905487" r="2.5" fill="grey" stroke="none" />
<circle cx="479.836928" cy="500.654848" r="5" fill="black" stroke="none" />
<circle cx="479.836928" cy="548.654848" r="5" fill="black" stroke="none" />
<path d="M479.836928,444.654848 L489.1902722793578,470.32862731544316" stroke="grey" stroke-width="5" />
<circle cx="489.1902722793578" cy="470.32862731544316" r="2.5" fill="grey" stroke="none" />
<path d="M489.1902722793578,470.32862731544316 A31.579116048114567,31.579116048114567,0,0,1,503.836928,468.654848" stroke="grey" stroke-width="5" fill="none" />
<circle cx="479.836928" cy="444.654848" r="5" fill="black" stroke="none" />
<circle cx="503.836928" cy="468.654848" r="5" fill="black" stroke="none" />
<path d="M431.836928,500.654848 L479.82722777124354,500.19380141124594" stroke="grey" stroke-width="5" />
<circle cx="479.82722777124354" cy="500.19380141124594" r="2.5" fill="grey" stroke="none" />
<path d="M479.82722777124354,500.1938014112459 A20.173703139986173,20.173703139986173,0,0,0,479.836928,500.654848" stroke="grey" stroke-width="5" fill="none" />
<circle cx="431.836928" cy="500.654848" r="5" fill="black" stroke="none" />
<circle cx="479.836928" cy="500.654848" r="5" fill="black" stroke="none" />
<path d="M527.836928,444.654848 L512.5115573591057,475.12462424745917" stroke="grey" stroke-width="5" />
<circle cx="512.5115573591057" cy="475.12462424745917" r="2.5" fill="grey" stroke="none" />
<path d="M512.5115573591057,475.12462424745917 A27.844629399226847,27.844629399226847,0,0,1,527.836928,500.654848" stroke="grey" stroke-width="5" fill="none" />
<circle cx="527.836928" cy="444.654848" r="5" fill="black" stroke="none" />
<circle cx="527.836928" cy="500.654848" r="5" fill="black" stroke="none" />
<path d="M503.836928,468.654848 L503.3831801380614,472.36166650223436" stroke="grey" stroke-width="5" />
<circle cx="503.3831801380614" cy="472.36166650223436" r="2.5" fill="grey" stroke="none" />
<path d="M503.3831801380614,472.36166650223436 A27.844629399226847,27.844629399226847,0,0,1,527.836928,500.654848" stroke="grey" stroke-width="5" fill="none" />
<circle cx="503.836928" cy="468.654848" r="5" fill="black" stroke="none" />
<circle cx="527.836928" cy="500.654848" r="5" fill="black" stroke="none" />
<path d="M479.836928,500.654848 A20.173703139986173,20.173703139986173,0,0,0,520.1681234018063,500.47444370562107" stroke="grey" stroke-width="5" fill="none" />
<path d="M520.1681234018063,500.47444370562107 L27.836928,0.6548480000000154" stroke="grey" stroke-width="5" />
<circle cx="520.1681234018063" cy="500.47444370562107" r="2.5" fill="grey" stroke="none" />
<circle cx="479.836928" cy="500.654848" r="5" fill="black" stroke="none" />
<circle cx="527.836928" cy="500.654848" r="5" fill="black" stroke="none" />
<path d="M479.836928,548.654848 L489.3400013552733,525.7232932431816" stroke="grey" stroke-width="5" />
<circle cx="489.3400013552733" cy="525.7232932431816" r="2.5" fill="grey" stroke="none" />
<path d="M489.3400013552733,525.7232932431816 A27.844629399226847,27.844629399226847,0,0,0,527.836928,500.654848" stroke="grey" stroke-width="5" fill="none" />
<circle cx="479.836928" cy="548.654848" r="5" fill="black" stroke="none" />
<circle cx="527.836928" cy="500.654848" r="5" fill="black" stroke="none" />
<path d="M527.836928,500.654848 A27.844629399226847,27.844629399226847,0,0,1,509.9621967920595,526.0015003693358" stroke="grey" stroke-width="5" fill="none" />
<path d="M509.9621967920595,526.0015003693358 L27.836928,72.65484800000002" stroke="grey" stroke-width="5" />
<circle cx="509.9621967920595" cy="526.0015003693358" r="2.5" fill="grey" stroke="none" />
<circle cx="527.836928" cy="500.654848" r="5" fill="black" stroke="none" />
<circle cx="527.836928" cy="572.654848" r="5" fill="black" stroke="none" />
<path d="M527.836928,572.654848 A77.80502232105772,77.80502232105772,0,0,1,485.28057943879764,576.4000010256724" stroke="grey" stroke-width="5" fill="none" />
<path d="M485.28057943879764,576.4000010256724 L-20.163072,104.65484800000002" stroke="grey" stroke-width="5" />
<circle cx="485.28057943879764" cy="576.4000010256724" r="2.5" fill="grey" stroke="none" />
<circle cx="527.836928" cy="572.654848" r="5" fill="black" stroke="none" />
<circle cx="479.836928" cy="604.654848" r="5" fill="black" stroke="none" />
<path d="M527.8369280000001,444.654848 A61.95143590248967,61.95143590248967,0,0,1,539.4920263915506,452.267827811115" stroke="grey" stroke-width="5" fill="none" />
<path d="M539.4920263915506,452.267827811115 L131.836928,-159.34515199999998" stroke="grey" stroke-width="5" />
<circle cx="539.4920263915506" cy="452.267827811115" r="2.5" fill="grey" stroke="none" />
<circle cx="527.836928" cy="444.654848" r="5" fill="black" stroke="none" />
<circle cx="631.836928" cy="340.654848" r="5" fill="black" stroke="none" />
<path d="M527.8369280000001,444.654848 A61.95143590248967,61.95143590248967,0,0,1,560.7350209486999,487.78371411838805" stroke="grey" stroke-width="5" fill="none" />
<path d="M560.7350209486999,487.78371411838805 L155.836928,-31.345151999999985" stroke="grey" stroke-width="5" />
<circle cx="560.7350209486999" cy="487.78371411838805" r="2.5" fill="grey" stroke="none" />
<circle cx="527.836928" cy="444.654848" r="5" fill="black" stroke="none" />
<circle cx="655.836928" cy="468.654848" r="5" fill="black" stroke="none" />
<path d="M655.836928,468.654848 A158.9580657984372,158.9580657984372,0,0,1,657.6607306631591,479.7327680938148" stroke="grey" stroke-width="5" fill="none" />
<path d="M657.6607306631591,479.7327680938148 L243.836928,-31.345151999999985" stroke="grey" stroke-width="5" />
<circle cx="657.6607306631591" cy="479.7327680938148" r="2.5" fill="grey" stroke="none" />
<circle cx="655.836928" cy="468.654848" r="5" fill="black" stroke="none" />
<circle cx="743.836928" cy="468.654848" r="5" fill="black" stroke="none" />
<path d="M527.836928,500.654848 A27.844629399226847,27.844629399226847,0,0,1,518.3656925250789,520.9290402181884" stroke="grey" stroke-width="5" fill="none" />
<path d="M518.3656925250789,520.9290402181884 L91.836928,104.65484800000002" stroke="grey" stroke-width="5" />
<circle cx="518.3656925250789" cy="520.9290402181884" r="2.5" fill="grey" stroke="none" />
<circle cx="527.836928" cy="500.654848" r="5" fill="black" stroke="none" />
<circle cx="591.836928" cy="604.654848" r="5" fill="black" stroke="none" />
<circle cx="500" cy="500" r="5" fill="red" stroke="none" />
</svg>