<?xml version="1.0" encoding="UTF-8"?>
<svg xmlns="http://www.w3.org/2000/svg" xmlns:xlink="http://www.w3.org/1999/xlink"
     width="1000" height="1000" viewBox="0 0 1000 1000">
<defs>
</defs>
<rect x="0" y="0" width="1000" height="1000" fill="white" />
<path d="M327.824384,627.689344 L443.2233871594358,542.1068245119775" stroke="grey" stroke-width="5" />
<circle cx="443.2233871594358" cy="542.1068245119775" r="2.5" fill="grey" stroke="none" />
<path d="M443.2233871594358,542.1068245119775 A70.68640913308435,70.68640913308435,0,0,0,447.824384,547.689344" stroke="grey" stroke-width="5" fill="none" />
<circle cx="327.824384" cy="627.689344" r="5" fill="black" stroke="none" />
<circle cx="447.824384" cy="547.689344" r="5" fill="black" stroke="none" />
<path d="M447.824384,547.689344 L461.0022331116253,535.644580034695" stroke="grey" stroke-width="5" />
<circle cx="461.0022331116253" cy="535.644580034695" r="2.5" fill="grey" stroke="none" />
<path d="M461.0022331116253,535.644580034695 A52.83334087609633,52.83334087609633,0,0,1,447.824384,491.689344" stroke="grey" stroke-width="5" fill="none" />
<circle cx="447.824384" cy="547.689344" r="5" fill="black" stroke="none" />
<circle cx="447.824384" cy="491.689344" r="5" fill="black" stroke="none" />
<path d="M447.824384,491.689344 A52.83334087609633,52.83334087609633,0,0,0,447.24130418757784,497.19252349927865" stroke="grey" stroke-width="5" fill="none" />
<path d="M447.24130418757784,497.19252349927865 L-156.175616,-8.310655999999994" stroke="grey" stroke-width="5" />
<circle cx="447.24130418757784" cy="497.19252349927865" r="2.5" fill="grey" stroke="none" />
<circle cx="447.824384" cy="491.689344" r="5" fill="black" stroke="none" />
<circle cx="343.824384" cy="491.689344" r="5" fill="black" stroke="none" />
<path d="M343.824384,491.68934400000006 A156.39657936198537,156.39657936198537,0,0,1,387.55633417878045,391.2971387091596" stroke="grey" stroke-width="5" fill="none" />
<path d="M387.5563341787805,391.2971387091595 L-116.17561599999999,-112.310656" stroke="grey" stroke-width="5" />
<circle cx="387.5563341787805" cy="391.2971387091595" r="2.5" fill="grey" stroke="none" />
<circle cx="343.824384" cy="491.689344" r="5" fill="black" stroke="none" />
<circle cx="383.824384" cy="387.689344" r="5" fill="black" stroke="none" />
<path d="M383.82438399999995,387.68934400000006 A161.58730520721542,161.58730520721542,0,0,1,496.63233100363726,338.44779169054755" stroke="grey" stroke-width="5" fill="none" />
<path d="M496.63233100363726,338.44779169054755 L-4.175615999999991,-200.310656" stroke="grey" stroke-width="5" />
<circle cx="496.63233100363726" cy="338.44779169054755" r="2.5" fill="grey" stroke="none" />
<circle cx="383.824384" cy="387.689344" r="5" fill="black" stroke="none" />
<circle cx="495.824384" cy="299.689344" r="5" fill="black" stroke="none" />
<path d="M495.824384,299.689344 L496.21366735094824,318.3638589454166" stroke="grey" stroke-width="5" />
<circle cx="496.21366735094824" cy="318.3638589454166" r="2.5" fill="grey" stroke="none" />
<path d="M496.21366735094824,318.3638589454166 A181.6756011470164,181.6756011470164,0,0,1,543.824384,323.689344" stroke="grey" stroke-width="5" fill="none" />
<circle cx="495.824384" cy="299.689344" r="5" fill="black" stroke="none" />
<circle cx="543.824384" cy="323.689344" r="5" fill="black" stroke="none" />
<path d="M543.824384,323.689344 L540.6129406975618,336.60935846865004" stroke="grey" stroke-width="5" />
<circle cx="540.6129406975618" cy="336.60935846865004" r="2.5" fill="grey" stroke="none" />
<path d="M540.6129406975618,336.60935846865004 A168.3624444231248,168.3624444231248,0,0,0,495.824384,331.689344" stroke="grey" stroke-width="5" fill="none" />
<circle cx="543.824384" cy="323.689344" r="5" fill="black" stroke="none" />
<circle cx="495.824384" cy="331.689344" r="5" fill="black" stroke="none" />
<path d="M495.824384,299.689344 L496.49112915455515,331.67412404053925" stroke="grey" stroke-width="5" />
<circle cx="496.49112915455515" cy="331.67412404053925" r="2.5" fill="grey" stroke="none" />
<path d="M496.4911291545551,331.67412404053925 A168.3624444231248,168.3624444231248,0,0,0,495.824384,331.689344" stroke="grey" stroke-width="5" fill="none" />
<circle cx="495.824384" cy="299.689344" r="5" fill="black" stroke="none" />
<circle cx="495.824384" cy="331.689344" r="5" fill="black" stroke="none" />
<path d="M495.824384,331.689344 L498.0960726893938,423.25653158134094" stroke="grey" stroke-width="5" />
<circle cx="498.0960726893938" cy="423.25653158134094" r="2.5" fill="grey" stroke="none" />
<path d="M498.0960726893938,423.25653158134094 A76.7670820347484,76.7670820347484,0,0,0,447.824384,443.689344" stroke="grey" stroke-width="5" fill="none" />
<circle cx="495.824384" cy="331.689344" r="5" fill="black" stroke="none" />
<circle cx="447.824384" cy="443.689344" r="5" fill="black" stroke="none" />
<path d="M383.824384,387.689344 L444.8071552869044,446.6433249105053" stroke="grey" stroke-width="5" />
<circle cx="444.8071552869044" cy="446.6433249105053" r="2.5" fill="grey" stroke="none" />
<path d="M444.8071552869044,446.6433249105053 A76.7670820347484,76.7670820347484,0,0,1,447.824384,443.689344" stroke="grey" stroke-width="5" fill="none" />
<circle cx="383.824384" cy="387.689344" r="5" fill="black" stroke="none" />
<circle cx="447.824384" cy="443.689344" r="5" fill="black" stroke="none" />
<path d="M447.824384,443.689344 L464.0912220123134,461.2453670955223" stroke="grey" stroke-width="5" />
<circle cx="464.0912220123134" cy="461.2453670955223" r="2.5" fill="grey" stroke="none" />
<path d="M464.0912220123134,461.2453670955223 A52.83334087609633,52.83334087609633,0,0,0,447.824384,491.689344" stroke="grey" stroke-width="5" fill="none" />
<circle cx="447.824384" cy="443.689344" r="5" fill="black" stroke="none" />
<circle cx="447.824384" cy="491.689344" r="5" fill="black" stroke="none" />
<path d="M543.824384,323.689344 A181.6756011470164,181.6756011470164,0,0,1,565.6459490355162,330.5991929554165" stroke="grey" stroke-width="5" fill="none" />
<path d="M565.6459490355162,330.5991929554165 L83.82438400000001,-216.310656" stroke="grey" stroke-width="5" />
<circle cx="565.6459490355162" cy="330.5991929554165" r="2.5" fill="grey" stroke="none" />
<circle cx="543.824384" cy="323.689344" r="5" fill="black" stroke="none" />
<circle cx="583.824384" cy="283.689344" r="5" fill="black" stroke="none" />
<path d="M543.824384,323.689344 L534.9943407610943,359.21364745535095" stroke="grey" stroke-width="5" />
<circle cx="534.9943407610943" cy="359.21364745535095" r="2.5" fill="grey" stroke="none" />
<path d="M534.9943407610943,359.21364745535095 A145.07033104025712,145.07033104025712,0,0,1,591.824384,387.689344" stroke="grey" stroke-width="5" fill="none" />
<circle cx="543.824384" cy="323.689344" r="5" fill="black" stroke="none" />
<circle cx="591.824384" cy="387.689344" r="5" fill="black" stroke="none" />
<path d="M495.824384,331.689344 L497.0099958287958,379.4789646609938" stroke="grey" stroke-width="5" />
<circle cx="497.0099958287958" cy="379.4789646609938" r="2.5" fill="grey" stroke="none" />
<path d="M497.0099958287958,379.4789646609938 A120.55811911327163,120.55811911327163,0,0,1,543.824384,387.689344" stroke="grey" stroke-width="5" fill="none" />
<circle cx="495.824384" cy="331.689344" r="5" fill="black" stroke="none" />
<circle cx="543.824384" cy="387.689344" r="5" fill="black" stroke="none" />
<path d="M447.824384,443.689344 L461.6227461104723,458.5812586860909" stroke="grey" stroke-width="5" />
<circle cx="461.6227461104723" cy="458.5812586860909" r="2.5" fill="grey" stroke="none" />
<path d="M461.6227461104723,458.5812586860909 A56.46526142797704,56.46526142797704,0,0,1,495.824384,443.689344" stroke="grey" stroke-width="5" fill="none" />
<circle cx="447.824384" cy="443.689344" r="5" fill="black" stroke="none" />
<circle cx="495.824384" cy="443.689344" r="5" fill="black" stroke="none" />
<path d="M447.824384,491.689344 L455.9498735015251,492.9835912606128" stroke="grey" stroke-width="5" />
<circle cx="455.9498735015251" cy="492.9835912606128" r="2.5" fill="grey" stroke="none" />
<path d="M455.9498735015251,492.9835912606128 A44.60542160017987,44.60542160017987,0,0,1,543.824384,491.689344" stroke="grey" stroke-width="5" fill="none" />
<circle cx="447.824384" cy="491.689344" r="5" fill="black" stroke="none" />
<circle cx="543.824384" cy="491.689344" r="5" fill="black" stroke="none" />
<path d="M447.824384,547.689344 L452.19317613114805,543.6961984124747" stroke="grey" stroke-width="5" />
<circle cx="452.19317613114805" cy="543.6961984124747" r="2.5" fill="grey" stroke="none" />
<path d="M452.19317613114805,543.6961984124747 A64.76766295096492,64.76766295096492,0,0,0,543.824384,547.689344" stroke="grey" stroke-width="5" fill="none" />
<circle cx="447.824384" cy="547.689344" r="5" fill="black" stroke="none" />
<circle cx="543.824384" cy="547.689344" r="5" fill="black" stroke="none" />
<path d="M591.824384,387.689344 L576.3090215924497,406.6662263286604" stroke="grey" stroke-width="5" />
<circle cx="576.3090215924497" cy="406.6662263286604" r="2.5" fill="grey" stroke="none" />
<path d="M576.3090215924497,406.6662263286604 A120.55811911327163,120.55811911327163,0,0,0,543.824384,387.689344" stroke="grey" stroke-width="5" fill="none" />
<circle cx="591.824384" cy="387.689344" r="5" fill="black" stroke="none" />
<circle cx="543.824384" cy="387.689344" r="5" fill="black" stroke="none" />
<path d="M543.824384,387.689344 L520.5258286847944,447.3975655988027" stroke="grey" stroke-width="5" />
<circle cx="520.5258286847944" cy="447.3975655988027" r="2.5" fill="grey" stroke="none" />
<path d="M520.5258286847944,447.3975655988027 A56.46526142797704,56.46526142797704,0,0,0,495.824384,443.689344" stroke="grey" stroke-width="5" fill="none" />
<circle cx="543.824384" cy="387.689344" r="5" fill="black" stroke="none" />
<circle cx="495.824384" cy="443.689344" r="5" fill="black" stroke="none" />
<path d="M495.824384,443.689344 L496.7014212382948,455.5167108423554" stroke="grey" stroke-width="5" />
<circle cx="496.7014212382948" cy="455.5167108423554" r="2.5" fill="grey" stroke="none" />
<path d="M496.7014212382948,455.5167108423554 A44.60542160017987,44.60542160017987,0,0,1,543.824384,491.689344" stroke="grey" stroke-width="5" fill="none" />
<circle cx="495.824384" cy="443.689344" r="5" fill="black" stroke="none" />
<circle cx="543.824384" cy="491.689344" r="5" fill="black" stroke="none" />
<path d="M543.824384,491.689344 A44.60542160017987,44.60542160017987,0,0,1,530.1818073344432,532.843601236106" stroke="grey" stroke-width="5" fill="none" />
<path d="M530.1818073344432,532.843601236106 L43.82438400000001,47.689344000000006" stroke="grey" stroke-width="5" />
<circle cx="530.1818073344432" cy="532.843601236106" r="2.5" fill="grey" stroke="none" />
<circle cx="543.824384" cy="491.689344" r="5" fill="black" stroke="none" />
<circle cx="543.824384" cy="547.689344" r="5" fill="black" stroke="none" />
<path d="M543.824384,547.689344 A64.76766295096492,64.76766295096492,0,0,1,543.5145875551841,547.972188130541" stroke="grey" stroke-width="5" fill="none" />
<path d="M543.5145875551841,547.972188130541 L115.82438400000001,127.689344" stroke="grey" stroke-width="5" />
<circle cx="543.5145875551841" cy="547.972188130541" r="2.5" fill="grey" stroke="none" />
<circle cx="543.824384" cy="547.689344" r="5" fill="black" stroke="none" />
<circle cx="615.824384" cy="627.689344" r="5" fill="black" stroke="none" />
<path d="M591.824384,387.689344 L570.4808825194983,413.79463921888345" stroke="grey" stroke-width="5" />
<circle cx="570.4808825194983" cy="413.79463921888345" r="2.5" fill="grey" stroke="none" />
<path d="M570.4808825194983,413.79463921888345 A111.35043344383439,111.35043344383439,0,0,0,567.824384,411.689344" stroke="grey" stroke-width="5" fill="none" />
<circle cx="591.824384" cy="387.689344" r="5" fill="black" stroke="none" />
<circle cx="567.824384" cy="411.689344" r="5" fill="black" stroke="none" />
<path d="M567.824384,411.689344 L543.4625693080366,443.40961493969223" stroke="grey" stroke-width="5" />
<circle cx="543.4625693080366" cy="443.40961493969223" r="2.5" fill="grey" stroke="none" />
<path d="M543.4625693080366,443.40961493969223 A71.35451360726799,71.35451360726799,0,0,1,543.824384,443.689344" stroke="grey" stroke-width="5" fill="none" />
<circle cx="567.824384" cy="411.689344" r="5" fill="black" stroke="none" />
<circle cx="543.824384" cy="443.689344" r="5" fill="black" stroke="none" />
<path d="M543.824384,443.689344 L527.395675842559,464.79885539845014" stroke="grey" stroke-width="5" />
<circle cx="527.395675842559" cy="464.79885539845014" r="2.5" fill="grey" stroke="none" />
<path d="M527.395675842559,464.79885539845014 A44.60542160017987,44.60542160017987,0,0,1,543.824384,491.689344" stroke="grey" stroke-width="5" fill="none" />
<circle cx="543.824384" cy="443.689344" r="5" fill="black" stroke="none" />
<circle cx="543.824384" cy="491.689344" r="5" fill="black" stroke="none" />
<path d="M543.824384,387.689344 L540.4772751076525,396.26712561589164" stroke="grey" stroke-width="5" />
<circle cx="540.4772751076525" cy="396.26712561589164" r="2.5" fill="grey" stroke="none" />
<path d="M540.4772751076525,396.26712561589164 A111.35043344383439,111.35043344383439,0,0,1,567.824384,411.689344" stroke="grey" stroke-width="5" fill="none" />
<circle cx="543.824384" cy="387.689344" r="5" fill="black" stroke="none" />
<circle cx="567.824384" cy="411.689344" r="5" fill="black" stroke="none" />
<path d="M495.824384,443.689344 A56.46526142797704,56.46526142797704,0,0,1,534.6797304666653,455.4394564340914" stroke="grey" stroke-width="5" fill="none" />
<path d="M534.6797304666653,455.43945643409137 L43.82438400000001,-56.310655999999994" stroke="grey" stroke-width="5" />
<circle cx="534.6797304666653" cy="455.43945643409137" r="2.5" fill="grey" stroke="none" />
<circle cx="495.824384" cy="443.689344" r="5" fill="black" stroke="none" />
<circle cx="543.824384" cy="443.689344" r="5" fill="black" stroke="none" />
<path d="M591.824384,387.689344 L568.1800352632314,416.6088118106336" stroke="grey" stroke-width="5" />
<circle cx="568.1800352632314" cy="416.6088118106336" r="2.5" fill="grey" stroke="none" />
<path d="M568.1800352632314,416.6088118106336 A107.71540036656687,107.71540036656687,0,0,1,591.824384,443.689344" stroke="grey" stroke-width="5" fill="none" />
<circle cx="591.824384" cy="387.689344" r="5" fill="black" stroke="none" />
<circle cx="591.824384" cy="443.689344" r="5" fill="black" stroke="none" />
<path d="M567.824384,411.689344 L565.6102580944223,414.5722439197126" stroke="grey" stroke-width="5" />
<circle cx="565.6102580944223" cy="414.5722439197126" r="2.5" fill="grey" stroke="none" />
<path d="M565.6102580944223,414.5722439197126 A107.71540036656687,107.71540036656687,0,0,1,591.824384,443.689344" stroke="grey" stroke-width="5" fill="none" />
<circle cx="567.824384" cy="411.689344" r="5" fill="black" stroke="none" />
<circle cx="591.824384" cy="443.689344" r="5" fill="black" stroke="none" />
<path d="M543.824384,443.689344 A71.35451360726799,71.35451360726799,0,0,1,560.8277389798448,462.69781798969836" stroke="grey" stroke-width="5" fill="none" />
<path d="M560.8277389798448,462.69781798969836 L91.82438400000001,-56.310655999999994" stroke="grey" stroke-width="5" />
<circle cx="560.8277389798448" cy="462.69781798969836" r="2.5" fill="grey" stroke="none" />
<circle cx="543.824384" cy="443.689344" r="5" fill="black" stroke="none" />
<circle cx="591.824384" cy="443.689344" r="5" fill="black" stroke="none" />
<path d="M543.824384,491.689344 A44.60542160017987,44.60542160017987,0,0,0,538.0248817491106,476.68150939498986" stroke="grey" stroke-width="5" fill="none" />
<path d="M538.0248817491106,476.68150939498986 L91.82438400000001,-56.310655999999994" stroke="grey" stroke-width="5" />
<circle cx="538.0248817491106" cy="476.68150939498986" r="2.5" fill="grey" stroke="none" />
<circle cx="543.824384" cy="491.689344" r="5" fill="black" stroke="none" />
<circle cx="591.824384" cy="443.689344" r="5" fill="black" stroke="none" />
<path d="M591.824384,443.689344 L579.4121343871429,451.3010685516804" stroke="grey" stroke-width="5" />
<circle cx="579.4121343871429" cy="451.3010685516804" r="2.5" fill="grey" stroke="none" />
<path d="M579.4121343871429,451.3010685516804 A93.15510191143476,93.15510191143476,0,0,1,591.824384,515.689344" stroke="grey" stroke-width="5" fill="none" />
<circle cx="591.824384" cy="443.689344" r="5" fill="black" stroke="none" />
<circle cx="591.824384" cy="515.689344" r="5" fill="black" stroke="none" />
<path d="M591.824384,515.689344 L563.8424587763985,510.9082822439488" stroke="grey" stroke-width="5" />
<circle cx="563.8424587763985" cy="510.9082822439488" r="2.5" fill="grey" stroke="none" />
<path d="M563.8424587763985,510.9082822439488 A64.76766295096492,64.76766295096492,0,0,1,543.824384,547.689344" stroke="grey" stroke-width="5" fill="none" />
<circle cx="591.824384" cy="515.689344" r="5" fill="black" stroke="none" />
<circle cx="543.824384" cy="547.689344" r="5" fill="black" stroke="none" />
<path d="M591.824384,387.689344 A145.07033104025712,145.07033104025712,0,0,1,597.360983403088,392.45354557720924" stroke="grey" stroke-width="5" fill="none" />
<path d="M597.360983403088,392.45354557720924 L195.824384,-216.310656" stroke="grey" stroke-width="5" />
<circle cx="597.360983403088" cy="392.45354557720924" r="2.5" fill="grey" stroke="none" />
<circle cx="591.824384" cy="387.689344" r="5" fill="black" stroke="none" />
<circle cx="695.824384" cy="283.689344" r="5" fill="black" stroke="none" />
<path d="M591.824384,387.689344 A145.07033104025712,145.07033104025712,0,0,1,634.613838689817,445.9212113548972" stroke="grey" stroke-width="5" fill="none" />
<path d="M634.613838689817,445.9212113548972 L219.824384,-88.310656" stroke="grey" stroke-width="5" />
<circle cx="634.613838689817" cy="445.9212113548972" r="2.5" fill="grey" stroke="none" />
<circle cx="591.824384" cy="387.689344" r="5" fill="black" stroke="none" />
<circle cx="719.824384" cy="411.689344" r="5" fill="black" stroke="none" />
<path d="M719.824384,411.689344 A236.89983487569128,236.89983487569128,0,0,1,727.7142217777348,434.67186697684986" stroke="grey" stroke-width="5" fill="none" />
<path d="M727.7142217777348,434.67186697684986 L307.824384,-88.310656" stroke="grey" stroke-width="5" />
<circle cx="727.7142217777348" cy="434.67186697684986" r="2.5" fill="grey" stroke="none" />
<circle cx="719.824384" cy="411.689344" r="5" fill="black" stroke="none" />
<circle cx="807.824384" cy="411.689344" r="5" fill="black" stroke="none" />
<path d="M591.824384,443.689344 A107.71540036656687,107.71540036656687,0,0,1,602.9996805293905,531.522583761064" stroke="grey" stroke-width="5" fill="none" />
<path d="M602.9996805293905,531.522583761064 L155.824384,47.689344000000006" stroke="grey" stroke-width="5" />
<circle cx="602.9996805293905" cy="531.522583761064" r="2.5" fill="grey" stroke="none" />
<circle cx="591.824384" cy="443.689344" r="5" fill="black" stroke="none" />
<circle cx="655.824384" cy="547.689344" r="5" fill="black" stroke="none" />
<circle cx="500" cy="500" r="5" fill="red" stroke="none" />
</svg>