<?xml version="1.0" encoding="UTF-8"?>
<svg xmlns="http://www.w3.org/2000/svg" xmlns:xlink="http://www.w3.org/1999/xlink"
     width="1000" height="1000" viewBox="0 0 1000 1000">
<defs>
</defs>
<rect x="0" y="0" width="1000" height="1000" fill="white" />
<path d="M218.86399999999998,725.354 L330.67587640534356,635.7274363601609" stroke="grey" stroke-width="5" />
<circle cx="330.67587640534356" cy="635.7274363601609" r="2.5" fill="grey" stroke="none" />
<path d="M330.67587640534356,635.7274363601609 A217.00828512294183,217.00828512294183,0,0,0,338.86400000000003,645.354" stroke="grey" stroke-width="5" fill="none" />
<circle cx="218.86399999999998" cy="725.354" r="5" fill="black" stroke="none" />
<circle cx="338.864" cy="645.354" r="5" fill="black" stroke="none" />
<path d="M338.864,645.354 L363.1863520517144,623.4138304530031" stroke="grey" stroke-width="5" />
<circle cx="363.1863520517144" cy="623.4138304530031" r="2.5" fill="grey" stroke="none" />
<path d="M363.1863520517145,623.4138304530031 A184.2524024592353,184.2524024592353,0,0,1,338.864,589.354" stroke="grey" stroke-width="5" fill="none" />
<circle cx="338.864" cy="645.354" r="5" fill="black" stroke="none" />
<circle cx="338.864" cy="589.354" r="5" fill="black" stroke="none" />
<path d="M338.864,589.354 A184.2524024592353,184.2524024592353,0,0,1,325.396468790143,558.8434762828343" stroke="grey" stroke-width="5" fill="none" />
<path d="M325.396468790143,558.8434762828343 L234.86399999999998,589.354" stroke="grey" stroke-width="5" />
<circle cx="325.396468790143" cy="558.8434762828343" r="2.5" fill="grey" stroke="none" />
<circle cx="338.864" cy="589.354" r="5" fill="black" stroke="none" />
<circle cx="234.86399999999998" cy="589.354" r="5" fill="black" stroke="none" />
<path d="M234.86399999999998,589.354 L286.20288405188626,572.0521826475008" stroke="grey" stroke-width="5" />
<circle cx="286.20288405188626" cy="572.0521826475008" r="2.5" fill="grey" stroke="none" />
<path d="M286.20288405188626,572.0521826475008 A225.61188756800917,225.61188756800917,0,0,1,274.864,485.35400000000016" stroke="grey" stroke-width="5" fill="none" />
<circle cx="234.86399999999998" cy="589.354" r="5" fill="black" stroke="none" />
<circle cx="274.864" cy="485.35400000000004" r="5" fill="black" stroke="none" />
<path d="M274.864,485.35400000000004 L347.5611149909647,490.0832389762529" stroke="grey" stroke-width="5" />
<circle cx="347.5611149909647" cy="490.0832389762529" r="2.5" fill="grey" stroke="none" />
<path d="M347.5611149909647,490.08323897625297 A152.7611070004404,152.7611070004404,0,0,1,386.864,397.35400000000004" stroke="grey" stroke-width="5" fill="none" />
<circle cx="274.864" cy="485.35400000000004" r="5" fill="black" stroke="none" />
<circle cx="386.864" cy="397.35400000000004" r="5" fill="black" stroke="none" />
<path d="M386.864,397.35400000000004 L424.37136162132083,431.38366907953343" stroke="grey" stroke-width="5" />
<circle cx="424.37136162132083" cy="431.38366907953343" r="2.5" fill="grey" stroke="none" />
<path d="M424.37136162132083,431.38366907953343 A102.11704956568224,102.11704956568224,0,0,1,434.8639999999999,421.35400000000004" stroke="grey" stroke-width="5" fill="none" />
<circle cx="386.864" cy="397.35400000000004" r="5" fill="black" stroke="none" />
<circle cx="434.864" cy="421.35400000000004" r="5" fill="black" stroke="none" />
<path d="M434.8639999999999,421.35400000000004 A102.11704956568224,102.11704956568224,0,0,0,413.38290052866745,445.9133113310374" stroke="grey" stroke-width="5" fill="none" />
<path d="M413.38290052866745,445.9133113310374 L386.864,429.35400000000004" stroke="grey" stroke-width="5" />
<circle cx="413.38290052866745" cy="445.9133113310374" r="2.5" fill="grey" stroke="none" />
<circle cx="434.864" cy="421.35400000000004" r="5" fill="black" stroke="none" />
<circle cx="386.864" cy="429.35400000000004" r="5" fill="black" stroke="none" />
<path d="M386.864,397.35400000000004 L401.2167149000167,410.3759273584634" stroke="grey" stroke-width="5" />
<circle cx="401.2167149000167" cy="410.3759273584634" r="2.5" fill="grey" stroke="none" />
<path d="M401.2167149000167,410.3759273584634 A133.38145227879326,133.38145227879326,0,0,0,386.864,429.35400000000004" stroke="grey" stroke-width="5" fill="none" />
<circle cx="386.864" cy="397.35400000000004" r="5" fill="black" stroke="none" />
<circle cx="386.864" cy="429.35400000000004" r="5" fill="black" stroke="none" />
<path d="M386.864,429.35400000000004 A133.38145227879326,133.38145227879326,0,0,0,370.805361947482,533.1565575788392" stroke="grey" stroke-width="5" fill="none" />
<path d="M370.805361947482,533.1565575788392 L338.864,541.354" stroke="grey" stroke-width="5" />
<circle cx="370.805361947482" cy="533.1565575788392" r="2.5" fill="grey" stroke="none" />
<circle cx="386.864" cy="429.35400000000004" r="5" fill="black" stroke="none" />
<circle cx="338.864" cy="541.354" r="5" fill="black" stroke="none" />
<path d="M274.864,485.35400000000004 L333.9929632240712,489.2005762711417" stroke="grey" stroke-width="5" />
<circle cx="333.9929632240712" cy="489.2005762711417" r="2.5" fill="grey" stroke="none" />
<path d="M333.9929632240712,489.20057627114176 A166.35793883070326,166.35793883070326,0,0,0,338.864,541.354" stroke="grey" stroke-width="5" fill="none" />
<circle cx="274.864" cy="485.35400000000004" r="5" fill="black" stroke="none" />
<circle cx="338.864" cy="541.354" r="5" fill="black" stroke="none" />
<path d="M338.864,541.354 A166.35793883070326,166.35793883070326,0,0,0,354.5134148937085,580.6760024177563" stroke="grey" stroke-width="5" fill="none" />
<path d="M354.5134148937085,580.6760024177563 L338.864,589.354" stroke="grey" stroke-width="5" />
<circle cx="354.5134148937085" cy="580.6760024177563" r="2.5" fill="grey" stroke="none" />
<circle cx="338.864" cy="541.354" r="5" fill="black" stroke="none" />
<circle cx="338.864" cy="589.354" r="5" fill="black" stroke="none" />
<path d="M434.8639999999999,421.35400000000004 A102.11704956568224,102.11704956568224,0,0,1,478.83552977911603,400.1002652042093" stroke="grey" stroke-width="5" fill="none" />
<path d="M478.83552977911603,400.1002652042093 L474.864,381.35400000000004" stroke="grey" stroke-width="5" />
<circle cx="478.83552977911603" cy="400.1002652042093" r="2.5" fill="grey" stroke="none" />
<circle cx="434.864" cy="421.35400000000004" r="5" fill="black" stroke="none" />
<circle cx="474.864" cy="381.35400000000004" r="5" fill="black" stroke="none" />
<path d="M434.864,421.35400000000004 L485.62135846867466,482.6390530294674" stroke="grey" stroke-width="5" />
<circle cx="485.62135846867466" cy="482.6390530294674" r="2.5" fill="grey" stroke="none" />
<path d="M485.62135846867466,482.6390530294674 A22.542134149188282,22.542134149188282,0,0,0,482.864,485.354" stroke="grey" stroke-width="5" fill="none" />
<circle cx="434.864" cy="421.35400000000004" r="5" fill="black" stroke="none" />
<circle cx="482.864" cy="485.35400000000004" r="5" fill="black" stroke="none" />
<path d="M386.864,429.35400000000004 L443.3712957067463,464.63909415657974" stroke="grey" stroke-width="5" />
<circle cx="443.3712957067463" cy="464.63909415657974" r="2.5" fill="grey" stroke="none" />
<path d="M443.3712957067463,464.63909415657974 A66.76229333987862,66.76229333987862,0,0,0,434.864,485.35400000000004" stroke="grey" stroke-width="5" fill="none" />
<circle cx="386.864" cy="429.35400000000004" r="5" fill="black" stroke="none" />
<circle cx="434.864" cy="485.35400000000004" r="5" fill="black" stroke="none" />
<path d="M338.864,541.354 L383.32404229169913,529.9437590300682" stroke="grey" stroke-width="5" />
<circle cx="383.32404229169913" cy="529.9437590300682" r="2.5" fill="grey" stroke="none" />
<path d="M383.32404229169913,529.9437590300682 A120.45707871270997,120.45707871270997,0,0,0,386.864,541.354" stroke="grey" stroke-width="5" fill="none" />
<circle cx="338.864" cy="541.354" r="5" fill="black" stroke="none" />
<circle cx="386.864" cy="541.354" r="5" fill="black" stroke="none" />
<path d="M338.864,589.354 L403.29777662826865,553.6238361828374" stroke="grey" stroke-width="5" />
<circle cx="403.29777662826865" cy="553.6238361828374" r="2.5" fill="grey" stroke="none" />
<path d="M403.29777662826865,553.6238361828374 A110.57502345466631,110.57502345466631,0,0,0,434.86400000000003,589.354" stroke="grey" stroke-width="5" fill="none" />
<circle cx="338.864" cy="589.354" r="5" fill="black" stroke="none" />
<circle cx="434.864" cy="589.354" r="5" fill="black" stroke="none" />
<path d="M338.864,645.354 L381.72835475030877,606.6878706410959" stroke="grey" stroke-width="5" />
<circle cx="381.72835475030877" cy="606.6878706410959" r="2.5" fill="grey" stroke="none" />
<path d="M381.7283547503088,606.6878706410959 A159.28114707020416,159.28114707020416,0,0,0,434.86400000000003,645.354" stroke="grey" stroke-width="5" fill="none" />
<circle cx="338.864" cy="645.354" r="5" fill="black" stroke="none" />
<circle cx="434.864" cy="645.354" r="5" fill="black" stroke="none" />
<path d="M482.864,485.354 A22.542134149188282,22.542134149188282,0,0,0,478.0069800408657,495.05481192702223" stroke="grey" stroke-width="5" fill="none" />
<path d="M478.0069800408657,495.05481192702223 L434.864,485.35400000000004" stroke="grey" stroke-width="5" />
<circle cx="478.0069800408657" cy="495.05481192702223" r="2.5" fill="grey" stroke="none" />
<circle cx="482.864" cy="485.35400000000004" r="5" fill="black" stroke="none" />
<circle cx="434.864" cy="485.35400000000004" r="5" fill="black" stroke="none" />
<path d="M434.864,485.35400000000004 A66.76229333987862,66.76229333987862,0,0,0,437.2953511738822,522.9200965877818" stroke="grey" stroke-width="5" fill="none" />
<path d="M437.2953511738822,522.9200965877818 L386.864,541.354" stroke="grey" stroke-width="5" />
<circle cx="437.2953511738822" cy="522.9200965877818" r="2.5" fill="grey" stroke="none" />
<circle cx="434.864" cy="485.35400000000004" r="5" fill="black" stroke="none" />
<circle cx="386.864" cy="541.354" r="5" fill="black" stroke="none" />
<path d="M386.864,541.354 L396.1454487585283,537.9614014287214" stroke="grey" stroke-width="5" />
<circle cx="396.1454487585283" cy="537.9614014287214" r="2.5" fill="grey" stroke="none" />
<path d="M396.1454487585283,537.9614014287214 A110.57502345466631,110.57502345466631,0,0,0,434.86400000000003,589.354" stroke="grey" stroke-width="5" fill="none" />
<circle cx="386.864" cy="541.354" r="5" fill="black" stroke="none" />
<circle cx="434.864" cy="589.354" r="5" fill="black" stroke="none" />
<path d="M434.86400000000003,589.354 A110.57502345466631,110.57502345466631,0,0,0,454.7817500047973,600.9066186103338" stroke="grey" stroke-width="5" fill="none" />
<path d="M454.78175000479723,600.9066186103337 L434.864,645.354" stroke="grey" stroke-width="5" />
<circle cx="454.78175000479723" cy="600.9066186103337" r="2.5" fill="grey" stroke="none" />
<circle cx="434.864" cy="589.354" r="5" fill="black" stroke="none" />
<circle cx="434.864" cy="645.354" r="5" fill="black" stroke="none" />
<path d="M434.86400000000003,645.354 A159.28114707020416,159.28114707020416,0,0,0,504.8492549366325,659.2073130812764" stroke="grey" stroke-width="5" fill="none" />
<path d="M504.8492549366325,659.2073130812764 L506.864,725.354" stroke="grey" stroke-width="5" />
<circle cx="504.8492549366325" cy="659.2073130812764" r="2.5" fill="grey" stroke="none" />
<circle cx="434.864" cy="645.354" r="5" fill="black" stroke="none" />
<circle cx="506.864" cy="725.354" r="5" fill="black" stroke="none" />
<path d="M482.864,485.354 A22.542134149188282,22.542134149188282,0,0,0,478.01899138656313,504.99830694695856" stroke="grey" stroke-width="5" fill="none" />
<path d="M478.01899138656313,504.99830694695856 L458.864,509.35400000000004" stroke="grey" stroke-width="5" />
<circle cx="478.01899138656313" cy="504.99830694695856" r="2.5" fill="grey" stroke="none" />
<circle cx="482.864" cy="485.35400000000004" r="5" fill="black" stroke="none" />
<circle cx="458.864" cy="509.35400000000004" r="5" fill="black" stroke="none" />
<path d="M458.864,509.354 A42.18610923040903,42.18610923040903,0,0,0,464.3854040105241,522.6112442051827" stroke="grey" stroke-width="5" fill="none" />
<path d="M464.3854040105241,522.6112442051827 L434.864,541.354" stroke="grey" stroke-width="5" />
<circle cx="464.3854040105241" cy="522.6112442051827" r="2.5" fill="grey" stroke="none" />
<circle cx="458.864" cy="509.35400000000004" r="5" fill="black" stroke="none" />
<circle cx="434.864" cy="541.354" r="5" fill="black" stroke="none" />
<path d="M434.864,541.354 A77.1547264397976,77.1547264397976,0,0,0,454.5507646811123,562.347564675201" stroke="grey" stroke-width="5" fill="none" />
<path d="M454.5507646811123,562.347564675201 L434.864,589.354" stroke="grey" stroke-width="5" />
<circle cx="454.5507646811123" cy="562.347564675201" r="2.5" fill="grey" stroke="none" />
<circle cx="434.864" cy="541.354" r="5" fill="black" stroke="none" />
<circle cx="434.864" cy="589.354" r="5" fill="black" stroke="none" />
<path d="M434.864,485.35400000000004 L458.8415215630321,490.7454084501991" stroke="grey" stroke-width="5" />
<circle cx="458.8415215630321" cy="490.7454084501991" r="2.5" fill="grey" stroke="none" />
<path d="M458.8415215630321,490.74540845019914 A42.18610923040903,42.18610923040903,0,0,0,458.864,509.354" stroke="grey" stroke-width="5" fill="none" />
<circle cx="434.864" cy="485.35400000000004" r="5" fill="black" stroke="none" />
<circle cx="458.864" cy="509.35400000000004" r="5" fill="black" stroke="none" />
<path d="M386.864,541.354 L427.534544056879,526.4879124688148" stroke="grey" stroke-width="5" />
<circle cx="427.534544056879" cy="526.4879124688148" r="2.5" fill="grey" stroke="none" />
<path d="M427.534544056879,526.4879124688148 A77.1547264397976,77.1547264397976,0,0,0,434.864,541.354" stroke="grey" stroke-width="5" fill="none" />
<circle cx="386.864" cy="541.354" r="5" fill="black" stroke="none" />
<circle cx="434.864" cy="541.354" r="5" fill="black" stroke="none" />
<path d="M482.864,485.354 A22.542134149188282,22.542134149188282,0,0,0,491.3706566136596,520.8250388888142" stroke="grey" stroke-width="5" fill="none" />
<path d="M491.3706566136596,520.8250388888142 L482.864,541.354" stroke="grey" stroke-width="5" />
<circle cx="491.3706566136596" cy="520.8250388888142" r="2.5" fill="grey" stroke="none" />
<circle cx="482.864" cy="485.35400000000004" r="5" fill="black" stroke="none" />
<circle cx="482.864" cy="541.354" r="5" fill="black" stroke="none" />
<path d="M458.864,509.354 A42.18610923040903,42.18610923040903,0,0,0,483.8507560875299,538.9726793158432" stroke="grey" stroke-width="5" fill="none" />
<path d="M483.8507560875299,538.9726793158432 L482.864,541.354" stroke="grey" stroke-width="5" />
<circle cx="483.8507560875299" cy="538.9726793158432" r="2.5" fill="grey" stroke="none" />
<circle cx="458.864" cy="509.35400000000004" r="5" fill="black" stroke="none" />
<circle cx="482.864" cy="541.354" r="5" fill="black" stroke="none" />
<path d="M434.864,541.354 L462.2092699705647,523.992843429705" stroke="grey" stroke-width="5" />
<circle cx="462.2092699705647" cy="523.992843429705" r="2.5" fill="grey" stroke="none" />
<path d="M462.2092699705647,523.992843429705 A44.763777901334485,44.763777901334485,0,0,0,482.864,541.354" stroke="grey" stroke-width="5" fill="none" />
<circle cx="434.864" cy="541.354" r="5" fill="black" stroke="none" />
<circle cx="482.864" cy="541.354" r="5" fill="black" stroke="none" />
<path d="M434.864,589.354 L473.6311750494295,536.1729302479931" stroke="grey" stroke-width="5" />
<circle cx="473.6311750494295" cy="536.1729302479931" r="2.5" fill="grey" stroke="none" />
<path d="M473.6311750494295,536.1729302479931 A44.763777901334485,44.763777901334485,0,0,0,482.864,541.354" stroke="grey" stroke-width="5" fill="none" />
<circle cx="434.864" cy="589.354" r="5" fill="black" stroke="none" />
<circle cx="482.864" cy="541.354" r="5" fill="black" stroke="none" />
<path d="M482.864,541.354 A44.763777901334485,44.763777901334485,0,0,0,493.30897423888484,544.2608855115225" stroke="grey" stroke-width="5" fill="none" />
<path d="M493.30897423888484,544.2608855115225 L482.864,613.354" stroke="grey" stroke-width="5" />
<circle cx="493.30897423888484" cy="544.2608855115225" r="2.5" fill="grey" stroke="none" />
<circle cx="482.864" cy="541.354" r="5" fill="black" stroke="none" />
<circle cx="482.864" cy="613.354" r="5" fill="black" stroke="none" />
<path d="M482.864,613.354 A114.64192868231066,114.64192868231066,0,0,1,453.1186408184283,604.6179237668597" stroke="grey" stroke-width="5" fill="none" />
<path d="M453.1186408184283,604.6179237668597 L434.864,645.354" stroke="grey" stroke-width="5" />
<circle cx="453.1186408184283" cy="604.6179237668597" r="2.5" fill="grey" stroke="none" />
<circle cx="482.864" cy="613.354" r="5" fill="black" stroke="none" />
<circle cx="434.864" cy="645.354" r="5" fill="black" stroke="none" />
<path d="M482.864,485.354 A22.542134149188282,22.542134149188282,0,0,1,513.3163326294593,481.81145697694296" stroke="grey" stroke-width="5" fill="none" />
<path d="M513.3163326294593,481.8114569769429 L586.864,381.35400000000004" stroke="grey" stroke-width="5" />
<circle cx="513.3163326294593" cy="481.8114569769429" r="2.5" fill="grey" stroke="none" />
<circle cx="482.864" cy="485.35400000000004" r="5" fill="black" stroke="none" />
<circle cx="586.864" cy="381.35400000000004" r="5" fill="black" stroke="none" />
<path d="M482.864,485.354 A22.542134149188282,22.542134149188282,0,0,1,522.4623222894033,501.89522805144213" stroke="grey" stroke-width="5" fill="none" />
<path d="M522.4623222894033,501.89522805144213 L610.864,509.35400000000004" stroke="grey" stroke-width="5" />
<circle cx="522.4623222894033" cy="501.89522805144213" r="2.5" fill="grey" stroke="none" />
<circle cx="482.864" cy="485.35400000000004" r="5" fill="black" stroke="none" />
<circle cx="610.864" cy="509.35400000000004" r="5" fill="black" stroke="none" />
<path d="M610.864,509.35400000000004 A111.25791572737643,111.25791572737643,0,0,0,611.1350407678744,505.22747793136364" stroke="grey" stroke-width="5" fill="none" />
<path d="M611.1350407678744,505.22747793136364 L698.864,509.35400000000004" stroke="grey" stroke-width="5" />
<circle cx="611.1350407678744" cy="505.22747793136364" r="2.5" fill="grey" stroke="none" />
<circle cx="610.864" cy="509.35400000000004" r="5" fill="black" stroke="none" />
<circle cx="698.864" cy="509.35400000000004" r="5" fill="black" stroke="none" />
<path d="M482.864,541.354 A44.763777901334485,44.763777901334485,0,0,0,513.7361297921271,542.6041611856616" stroke="grey" stroke-width="5" fill="none" />
<path d="M513.7361297921271,542.6041611856616 L546.864,645.354" stroke="grey" stroke-width="5" />
<circle cx="513.7361297921271" cy="542.6041611856616" r="2.5" fill="grey" stroke="none" />
<circle cx="482.864" cy="541.354" r="5" fill="black" stroke="none" />
<circle cx="546.864" cy="645.354" r="5" fill="black" stroke="none" />
<circle cx="500" cy="500" r="5" fill="red" stroke="none" />
</svg>