<?xml version="1.0" encoding="UTF-8"?>
<svg xmlns="http://www.w3.org/2000/svg" xmlns:xlink="http://www.w3.org/1999/xlink"
     width="1000" height="1000" viewBox="0 0 1000 1000">
<defs>
</defs>
<rect x="0" y="0" width="1000" height="1000" fill="white" />
<path d="M280.38754400000005,664.072654 L395.5756927180797,578.0154894213114" stroke="grey" stroke-width="5" />
<circle cx="395.5756927180797" cy="578.0154894213114" r="2.5" fill="grey" stroke="none" />
<path d="M395.5756927180797,578.0154894213114 A130.34896447979804,130.34896447979804,0,0,0,400.38754400000005,584.072654" stroke="grey" stroke-width="5" fill="none" />
<circle cx="280.38754400000005" cy="664.072654" r="5" fill="black" stroke="none" />
<circle cx="400.38754400000005" cy="584.072654" r="5" fill="black" stroke="none" />
<path d="M400.38754400000005,584.072654 L420.9111427958981,566.7507899511671" stroke="grey" stroke-width="5" />
<circle cx="420.9111427958981" cy="566.7507899511671" r="2.5" fill="grey" stroke="none" />
<path d="M420.9111427958981,566.7507899511671 A103.49258569074233,103.49258569074233,0,0,1,400.38754400000005,528.072654" stroke="grey" stroke-width="5" fill="none" />
<circle cx="400.38754400000005" cy="584.072654" r="5" fill="black" stroke="none" />
<circle cx="400.38754400000005" cy="528.072654" r="5" fill="black" stroke="none" />
<path d="M400.38754400000005,528.072654 A103.49258569074233,103.49258569074233,0,0,1,397.47725229437873,514.1351156997448" stroke="grey" stroke-width="5" fill="none" />
<path d="M397.47725229437873,514.1351156997448 L296.38754400000005,528.072654" stroke="grey" stroke-width="5" />
<circle cx="397.47725229437873" cy="514.1351156997448" r="2.5" fill="grey" stroke="none" />
<circle cx="400.38754400000005" cy="528.072654" r="5" fill="black" stroke="none" />
<circle cx="296.38754400000005" cy="528.072654" r="5" fill="black" stroke="none" />
<path d="M296.38754400000005,528.072654 L321.31844847376135,524.6353561600341" stroke="grey" stroke-width="5" />
<circle cx="321.31844847376135" cy="524.6353561600341" r="2.5" fill="grey" stroke="none" />
<path d="M321.31844847376135,524.6353561600341 A180.37183158396886,180.37183158396886,0,0,1,336.38754400000005,424.07265400000006" stroke="grey" stroke-width="5" fill="none" />
<circle cx="296.38754400000005" cy="528.072654" r="5" fill="black" stroke="none" />
<circle cx="336.38754400000005" cy="424.07265400000006" r="5" fill="black" stroke="none" />
<path d="M336.38754400000005,424.07265400000006 L344.10806846238245,427.6555042700111" stroke="grey" stroke-width="5" />
<circle cx="344.10806846238245" cy="427.6555042700111" r="2.5" fill="grey" stroke="none" />
<path d="M344.10806846238245,427.6555042700111 A171.8604677666031,171.8604677666031,0,0,1,448.387544,336.07265400000006" stroke="grey" stroke-width="5" fill="none" />
<circle cx="336.38754400000005" cy="424.07265400000006" r="5" fill="black" stroke="none" />
<circle cx="448.38754400000005" cy="336.07265400000006" r="5" fill="black" stroke="none" />
<path d="M448.38754400000005,336.07265400000006 L457.9635712044736,366.4872640866263" stroke="grey" stroke-width="5" />
<circle cx="457.9635712044736" cy="366.4872640866263" r="2.5" fill="grey" stroke="none" />
<path d="M457.96357120447357,366.4872640866263 A139.97396899765198,139.97396899765198,0,0,1,496.38754400000005,360.07265400000006" stroke="grey" stroke-width="5" fill="none" />
<circle cx="448.38754400000005" cy="336.07265400000006" r="5" fill="black" stroke="none" />
<circle cx="496.38754400000005" cy="360.07265400000006" r="5" fill="black" stroke="none" />
<path d="M496.38754400000005,360.07265400000006 A139.97396899765198,139.97396899765198,0,0,0,449.0032494175326,369.64646753161907" stroke="grey" stroke-width="5" fill="none" />
<path d="M449.0032494175326,369.646467531619 L448.38754400000005,368.07265400000006" stroke="grey" stroke-width="5" />
<circle cx="449.0032494175326" cy="369.646467531619" r="2.5" fill="grey" stroke="none" />
<circle cx="496.38754400000005" cy="360.07265400000006" r="5" fill="black" stroke="none" />
<circle cx="448.38754400000005" cy="368.07265400000006" r="5" fill="black" stroke="none" />
<path d="M448.38754400000005,336.07265400000006 L457.45604755546634,364.87530815075695" stroke="grey" stroke-width="5" />
<circle cx="457.45604755546634" cy="364.87530815075695" r="2.5" fill="grey" stroke="none" />
<path d="M457.45604755546634,364.87530815075695 A141.66393414329434,141.66393414329434,0,0,0,448.387544,368.07265400000006" stroke="grey" stroke-width="5" fill="none" />
<circle cx="448.38754400000005" cy="336.07265400000006" r="5" fill="black" stroke="none" />
<circle cx="448.38754400000005" cy="368.07265400000006" r="5" fill="black" stroke="none" />
<path d="M448.38754400000005,368.07265400000006 L462.98910257965906,405.39590927926724" stroke="grey" stroke-width="5" />
<circle cx="462.98910257965906" cy="405.39590927926724" r="2.5" fill="grey" stroke="none" />
<path d="M462.98910257965906,405.39590927926724 A101.58612360433702,101.58612360433702,0,0,0,400.38754400000005,480.07265400000006" stroke="grey" stroke-width="5" fill="none" />
<circle cx="448.38754400000005" cy="368.07265400000006" r="5" fill="black" stroke="none" />
<circle cx="400.38754400000005" cy="480.07265400000006" r="5" fill="black" stroke="none" />
<path d="M336.38754400000005,424.07265400000006 L407.8528225140983,457.2374206772162" stroke="grey" stroke-width="5" />
<circle cx="407.8528225140983" cy="457.2374206772162" r="2.5" fill="grey" stroke="none" />
<path d="M407.8528225140983,457.2374206772162 A101.58612360433702,101.58612360433702,0,0,0,400.38754400000005,480.07265400000006" stroke="grey" stroke-width="5" fill="none" />
<circle cx="336.38754400000005" cy="424.07265400000006" r="5" fill="black" stroke="none" />
<circle cx="400.38754400000005" cy="480.07265400000006" r="5" fill="black" stroke="none" />
<path d="M400.38754400000005,480.07265400000006 A101.58612360433702,101.58612360433702,0,0,0,402.22252927387467,527.5555208144818" stroke="grey" stroke-width="5" fill="none" />
<path d="M402.22252927387467,527.5555208144818 L400.38754400000005,528.072654" stroke="grey" stroke-width="5" />
<circle cx="402.22252927387467" cy="527.5555208144818" r="2.5" fill="grey" stroke="none" />
<circle cx="400.38754400000005" cy="480.07265400000006" r="5" fill="black" stroke="none" />
<circle cx="400.38754400000005" cy="528.072654" r="5" fill="black" stroke="none" />
<path d="M496.38754400000005,360.07265400000006 A139.97396899765198,139.97396899765198,0,0,1,527.7458849887422,362.8035063744444" stroke="grey" stroke-width="5" fill="none" />
<path d="M527.7458849887422,362.8035063744444 L536.387544,320.07265400000006" stroke="grey" stroke-width="5" />
<circle cx="527.7458849887422" cy="362.8035063744444" r="2.5" fill="grey" stroke="none" />
<circle cx="496.38754400000005" cy="360.07265400000006" r="5" fill="black" stroke="none" />
<circle cx="536.387544" cy="320.07265400000006" r="5" fill="black" stroke="none" />
<path d="M496.38754400000005,360.07265400000006 L497.73017952303945,412.07921833856335" stroke="grey" stroke-width="5" />
<circle cx="497.73017952303945" cy="412.07921833856335" r="2.5" fill="grey" stroke="none" />
<path d="M497.73017952303945,412.07921833856335 A87.95007636696882,87.95007636696882,0,0,1,544.387544,424.07265400000006" stroke="grey" stroke-width="5" fill="none" />
<circle cx="496.38754400000005" cy="360.07265400000006" r="5" fill="black" stroke="none" />
<circle cx="544.387544" cy="424.07265400000006" r="5" fill="black" stroke="none" />
<path d="M448.38754400000005,368.07265400000006 L472.30607982643437,429.21116970611945" stroke="grey" stroke-width="5" />
<circle cx="472.30607982643437" cy="429.21116970611945" r="2.5" fill="grey" stroke="none" />
<path d="M472.30607982643437,429.21116970611945 A76.01323377515025,76.01323377515025,0,0,1,496.38754400000005,424.07265400000006" stroke="grey" stroke-width="5" fill="none" />
<circle cx="448.38754400000005" cy="368.07265400000006" r="5" fill="black" stroke="none" />
<circle cx="496.38754400000005" cy="424.07265400000006" r="5" fill="black" stroke="none" />
<path d="M400.38754400000005,480.07265400000006 L445.749092973052,489.1471745748361" stroke="grey" stroke-width="5" />
<circle cx="445.749092973052" cy="489.1471745748361" r="2.5" fill="grey" stroke="none" />
<path d="M445.749092973052,489.1471745748361 A55.32580530779145,55.32580530779145,0,0,1,448.38754400000005,480.07265400000006" stroke="grey" stroke-width="5" fill="none" />
<circle cx="400.38754400000005" cy="480.07265400000006" r="5" fill="black" stroke="none" />
<circle cx="448.38754400000005" cy="480.07265400000006" r="5" fill="black" stroke="none" />
<path d="M400.38754400000005,528.072654 L472.7570451021383,507.6775744469675" stroke="grey" stroke-width="5" />
<circle cx="472.7570451021383" cy="507.6775744469675" r="2.5" fill="grey" stroke="none" />
<path d="M472.7570451021383,507.6775744469675 A28.30412939759241,28.30412939759241,0,0,0,496.38754400000005,528.072654" stroke="grey" stroke-width="5" fill="none" />
<circle cx="400.38754400000005" cy="528.072654" r="5" fill="black" stroke="none" />
<circle cx="496.38754400000005" cy="528.072654" r="5" fill="black" stroke="none" />
<path d="M400.38754400000005,584.072654 L435.69253897452745,554.275329988983" stroke="grey" stroke-width="5" />
<circle cx="435.69253897452745" cy="554.275329988983" r="2.5" fill="grey" stroke="none" />
<path d="M435.69253897452745,554.275329988983 A84.15022869223625,84.15022869223625,0,0,0,496.38754400000005,584.072654" stroke="grey" stroke-width="5" fill="none" />
<circle cx="400.38754400000005" cy="584.072654" r="5" fill="black" stroke="none" />
<circle cx="496.38754400000005" cy="584.072654" r="5" fill="black" stroke="none" />
<path d="M544.387544,424.07265400000006 L538.3631362035287,434.3777363268749" stroke="grey" stroke-width="5" />
<circle cx="538.3631362035287" cy="434.3777363268749" r="2.5" fill="grey" stroke="none" />
<path d="M538.3631362035287,434.3777363268749 A76.01323377515025,76.01323377515025,0,0,0,496.38754400000005,424.07265400000006" stroke="grey" stroke-width="5" fill="none" />
<circle cx="544.387544" cy="424.07265400000006" r="5" fill="black" stroke="none" />
<circle cx="496.38754400000005" cy="424.07265400000006" r="5" fill="black" stroke="none" />
<path d="M496.38754400000005,424.07265400000006 L497.37069418819675,444.73670762700016" stroke="grey" stroke-width="5" />
<circle cx="497.37069418819675" cy="444.73670762700016" r="2.5" fill="grey" stroke="none" />
<path d="M497.37069418819675,444.73670762700016 A55.32580530779145,55.32580530779145,0,0,0,448.38754400000005,480.07265400000006" stroke="grey" stroke-width="5" fill="none" />
<circle cx="496.38754400000005" cy="424.07265400000006" r="5" fill="black" stroke="none" />
<circle cx="448.38754400000005" cy="480.07265400000006" r="5" fill="black" stroke="none" />
<path d="M448.38754400000005,480.07265400000006 L473.59558301909044,489.8053688220755" stroke="grey" stroke-width="5" />
<circle cx="473.59558301909044" cy="489.8053688220755" r="2.5" fill="grey" stroke="none" />
<path d="M473.59558301909044,489.8053688220755 A28.30412939759241,28.30412939759241,0,0,0,496.38754400000005,528.072654" stroke="grey" stroke-width="5" fill="none" />
<circle cx="448.38754400000005" cy="480.07265400000006" r="5" fill="black" stroke="none" />
<circle cx="496.38754400000005" cy="528.072654" r="5" fill="black" stroke="none" />
<path d="M496.38754400000005,528.072654 A28.30412939759241,28.30412939759241,0,0,0,498.7849418396585,528.2780369655081" stroke="grey" stroke-width="5" fill="none" />
<path d="M498.7849418396585,528.2780369655081 L496.38754400000005,584.072654" stroke="grey" stroke-width="5" />
<circle cx="498.7849418396585" cy="528.2780369655081" r="2.5" fill="grey" stroke="none" />
<circle cx="496.38754400000005" cy="528.072654" r="5" fill="black" stroke="none" />
<circle cx="496.38754400000005" cy="584.072654" r="5" fill="black" stroke="none" />
<path d="M496.38754400000005,584.072654 A84.15022869223625,84.15022869223625,0,0,0,532.3751284107803,577.6731102077234" stroke="grey" stroke-width="5" fill="none" />
<path d="M532.3751284107803,577.6731102077234 L568.387544,664.072654" stroke="grey" stroke-width="5" />
<circle cx="532.3751284107803" cy="577.6731102077234" r="2.5" fill="grey" stroke="none" />
<circle cx="496.38754400000005" cy="584.072654" r="5" fill="black" stroke="none" />
<circle cx="568.387544" cy="664.072654" r="5" fill="black" stroke="none" />
<path d="M544.387544,424.07265400000006 L528.154754924618,451.83973642004906" stroke="grey" stroke-width="5" />
<circle cx="528.154754924618" cy="451.83973642004906" r="2.5" fill="grey" stroke="none" />
<path d="M528.154754924618,451.83973642004906 A55.78620988161544,55.78620988161544,0,0,0,520.387544,448.07265400000006" stroke="grey" stroke-width="5" fill="none" />
<circle cx="544.387544" cy="424.07265400000006" r="5" fill="black" stroke="none" />
<circle cx="520.387544" cy="448.07265400000006" r="5" fill="black" stroke="none" />
<path d="M520.387544,448.07265400000006 L507.40131453061366,481.1487533522428" stroke="grey" stroke-width="5" />
<circle cx="507.40131453061366" cy="481.1487533522428" r="2.5" fill="grey" stroke="none" />
<path d="M507.40131453061366,481.1487533522428 A20.252134627136208,20.252134627136208,0,0,0,496.38754400000005,480.07265400000006" stroke="grey" stroke-width="5" fill="none" />
<circle cx="520.387544" cy="448.07265400000006" r="5" fill="black" stroke="none" />
<circle cx="496.38754400000005" cy="480.07265400000006" r="5" fill="black" stroke="none" />
<path d="M496.38754400000005,480.07265400000006 A20.252134627136208,20.252134627136208,0,0,0,497.4152200825923,520.0865096453867" stroke="grey" stroke-width="5" fill="none" />
<path d="M497.4152200825923,520.0865096453867 L496.38754400000005,528.072654" stroke="grey" stroke-width="5" />
<circle cx="497.4152200825923" cy="520.0865096453867" r="2.5" fill="grey" stroke="none" />
<circle cx="496.38754400000005" cy="480.07265400000006" r="5" fill="black" stroke="none" />
<circle cx="496.38754400000005" cy="528.072654" r="5" fill="black" stroke="none" />
<path d="M496.38754400000005,424.07265400000006 L497.3488139025868,444.276823266862" stroke="grey" stroke-width="5" />
<circle cx="497.3488139025868" cy="444.276823266862" r="2.5" fill="grey" stroke="none" />
<path d="M497.3488139025868,444.276823266862 A55.78620988161544,55.78620988161544,0,0,1,520.387544,448.07265400000006" stroke="grey" stroke-width="5" fill="none" />
<circle cx="496.38754400000005" cy="424.07265400000006" r="5" fill="black" stroke="none" />
<circle cx="520.387544" cy="448.07265400000006" r="5" fill="black" stroke="none" />
<path d="M448.38754400000005,480.07265400000006 L481.1071451823596,492.7055504803165" stroke="grey" stroke-width="5" />
<circle cx="481.1071451823596" cy="492.7055504803165" r="2.5" fill="grey" stroke="none" />
<path d="M481.1071451823596,492.7055504803165 A20.252134627136208,20.252134627136208,0,0,1,496.38754400000005,480.07265400000006" stroke="grey" stroke-width="5" fill="none" />
<circle cx="448.38754400000005" cy="480.07265400000006" r="5" fill="black" stroke="none" />
<circle cx="496.38754400000005" cy="480.07265400000006" r="5" fill="black" stroke="none" />
<path d="M544.387544,424.07265400000006 L524.5559320013188,457.9957218309579" stroke="grey" stroke-width="5" />
<circle cx="524.5559320013188" cy="457.9957218309579" r="2.5" fill="grey" stroke="none" />
<path d="M524.5559320013188,457.9957218309579 A48.65545376374219,48.65545376374219,0,0,1,544.387544,480.07265400000006" stroke="grey" stroke-width="5" fill="none" />
<circle cx="544.387544" cy="424.07265400000006" r="5" fill="black" stroke="none" />
<circle cx="544.387544" cy="480.07265400000006" r="5" fill="black" stroke="none" />
<path d="M520.387544,448.07265400000006 L517.7815486399475,454.71015887728424" stroke="grey" stroke-width="5" />
<circle cx="517.7815486399475" cy="454.71015887728424" r="2.5" fill="grey" stroke="none" />
<path d="M517.7815486399475,454.71015887728424 A48.65545376374219,48.65545376374219,0,0,1,544.387544,480.07265400000006" stroke="grey" stroke-width="5" fill="none" />
<circle cx="520.387544" cy="448.07265400000006" r="5" fill="black" stroke="none" />
<circle cx="544.387544" cy="480.07265400000006" r="5" fill="black" stroke="none" />
<path d="M496.38754400000005,480.07265400000006 A20.252134627136208,20.252134627136208,0,0,1,518.4756784146122,491.70552810147126" stroke="grey" stroke-width="5" fill="none" />
<path d="M518.4756784146122,491.70552810147126 L544.387544,480.07265400000006" stroke="grey" stroke-width="5" />
<circle cx="518.4756784146122" cy="491.70552810147126" r="2.5" fill="grey" stroke="none" />
<circle cx="496.38754400000005" cy="480.07265400000006" r="5" fill="black" stroke="none" />
<circle cx="544.387544" cy="480.07265400000006" r="5" fill="black" stroke="none" />
<path d="M496.38754400000005,528.072654 A28.30412939759241,28.30412939759241,0,0,0,525.8213764713372,488.40775008546103" stroke="grey" stroke-width="5" fill="none" />
<path d="M525.8213764713372,488.40775008546103 L544.387544,480.07265400000006" stroke="grey" stroke-width="5" />
<circle cx="525.8213764713372" cy="488.40775008546103" r="2.5" fill="grey" stroke="none" />
<circle cx="496.38754400000005" cy="528.072654" r="5" fill="black" stroke="none" />
<circle cx="544.387544" cy="480.07265400000006" r="5" fill="black" stroke="none" />
<path d="M544.387544,480.07265400000006 A48.65545376374219,48.65545376374219,0,0,1,531.5635252184004,537.0283277605546" stroke="grey" stroke-width="5" fill="none" />
<path d="M531.5635252184004,537.0283277605546 L544.387544,552.072654" stroke="grey" stroke-width="5" />
<circle cx="531.5635252184004" cy="537.0283277605546" r="2.5" fill="grey" stroke="none" />
<circle cx="544.387544" cy="480.07265400000006" r="5" fill="black" stroke="none" />
<circle cx="544.387544" cy="552.072654" r="5" fill="black" stroke="none" />
<path d="M544.387544,552.072654 A68.42379233099888,68.42379233099888,0,0,1,497.0626587355707,568.3607152043624" stroke="grey" stroke-width="5" fill="none" />
<path d="M497.0626587355707,568.3607152043624 L496.38754400000005,584.072654" stroke="grey" stroke-width="5" />
<circle cx="497.0626587355707" cy="568.3607152043624" r="2.5" fill="grey" stroke="none" />
<circle cx="544.387544" cy="552.072654" r="5" fill="black" stroke="none" />
<circle cx="496.38754400000005" cy="584.072654" r="5" fill="black" stroke="none" />
<path d="M544.387544,424.07265400000006 A87.95007636696882,87.95007636696882,0,0,1,555.9581446918753,432.14794052057965" stroke="grey" stroke-width="5" fill="none" />
<path d="M555.9581446918753,432.14794052057965 L648.387544,320.07265400000006" stroke="grey" stroke-width="5" />
<circle cx="555.9581446918753" cy="432.14794052057965" r="2.5" fill="grey" stroke="none" />
<circle cx="544.387544" cy="424.07265400000006" r="5" fill="black" stroke="none" />
<circle cx="648.387544" cy="320.07265400000006" r="5" fill="black" stroke="none" />
<path d="M544.387544,424.07265400000006 A87.95007636696882,87.95007636696882,0,0,1,584.212461441687,474.6331462162131" stroke="grey" stroke-width="5" fill="none" />
<path d="M584.212461441687,474.6331462162131 L672.387544,448.07265400000006" stroke="grey" stroke-width="5" />
<circle cx="584.212461441687" cy="474.6331462162131" r="2.5" fill="grey" stroke="none" />
<circle cx="544.387544" cy="424.07265400000006" r="5" fill="black" stroke="none" />
<circle cx="672.387544" cy="448.07265400000006" r="5" fill="black" stroke="none" />
<path d="M672.387544,448.07265400000006 A180.0386474870206,180.0386474870206,0,0,1,676.5619725058074,464.789426959872" stroke="grey" stroke-width="5" fill="none" />
<path d="M676.5619725058074,464.789426959872 L760.387544,448.07265400000006" stroke="grey" stroke-width="5" />
<circle cx="676.5619725058074" cy="464.789426959872" r="2.5" fill="grey" stroke="none" />
<circle cx="672.387544" cy="448.07265400000006" r="5" fill="black" stroke="none" />
<circle cx="760.387544" cy="448.07265400000006" r="5" fill="black" stroke="none" />
<path d="M544.387544,480.07265400000006 A48.65545376374219,48.65545376374219,0,0,1,538.445581393938,529.8209733616751" stroke="grey" stroke-width="5" fill="none" />
<path d="M538.445581393938,529.8209733616751 L608.387544,584.072654" stroke="grey" stroke-width="5" />
<circle cx="538.445581393938" cy="529.8209733616751" r="2.5" fill="grey" stroke="none" />
<circle cx="544.387544" cy="480.07265400000006" r="5" fill="black" stroke="none" />
<circle cx="608.387544" cy="584.072654" r="5" fill="black" stroke="none" />
<circle cx="500" cy="500" r="5" fill="red" stroke="none" />
</svg>