<?xml version="1.0" encoding="UTF-8"?>
<svg xmlns="http://www.w3.org/2000/svg" xmlns:xlink="http://www.w3.org/1999/xlink"
     width="1000" height="1000" viewBox="0 0 1000 1000">
<defs>
</defs>
<rect x="0" y="0" width="1000" height="1000" fill="white" />
<path d="M342.101504,621.761264 L455.3418082446141,534.4375533259681" stroke="grey" stroke-width="5" />
<circle cx="455.3418082446141" cy="534.4375533259681" r="2.5" fill="grey" stroke="none" />
<path d="M455.3418082446141,534.4375533259681 A56.39414127318294,56.39414127318294,0,0,0,462.101504,541.761264" stroke="grey" stroke-width="5" fill="none" />
<circle cx="342.101504" cy="621.761264" r="5" fill="black" stroke="none" />
<circle cx="462.101504" cy="541.761264" r="5" fill="black" stroke="none" />
<path d="M462.101504,541.761264 L472.79288790535844,529.9801710036704" stroke="grey" stroke-width="5" />
<circle cx="472.79288790535844" cy="529.9801710036704" r="2.5" fill="grey" stroke="none" />
<path d="M472.79288790535844,529.9801710036704 A40.48502935579658,40.48502935579658,0,0,1,462.101504,485.76126400000004" stroke="grey" stroke-width="5" fill="none" />
<circle cx="462.101504" cy="541.761264" r="5" fill="black" stroke="none" />
<circle cx="462.101504" cy="485.76126400000004" r="5" fill="black" stroke="none" />
<path d="M462.101504,485.76126400000004 A40.48502935579658,40.48502935579658,0,0,0,459.7172665543961,495.95784858149364" stroke="grey" stroke-width="5" fill="none" />
<path d="M459.7172665543961,495.95784858149364 L358.101504,485.76126400000004" stroke="grey" stroke-width="5" />
<circle cx="459.7172665543961" cy="495.95784858149364" r="2.5" fill="grey" stroke="none" />
<circle cx="462.101504" cy="485.76126400000004" r="5" fill="black" stroke="none" />
<circle cx="358.101504" cy="485.76126400000004" r="5" fill="black" stroke="none" />
<path d="M358.101504,485.76126400000004 A142.61109623707304,142.61109623707304,0,0,1,406.9000492560828,391.9707264607416" stroke="grey" stroke-width="5" fill="none" />
<path d="M406.9000492560828,391.9707264607416 L398.101504,381.76126400000004" stroke="grey" stroke-width="5" />
<circle cx="406.9000492560828" cy="391.9707264607416" r="2.5" fill="grey" stroke="none" />
<circle cx="358.101504" cy="485.76126400000004" r="5" fill="black" stroke="none" />
<circle cx="398.101504" cy="381.76126400000004" r="5" fill="black" stroke="none" />
<path d="M398.101504,381.76126400000004 A156.08876377862597,156.08876377862597,0,0,1,507.636021260017,344.0981290771138" stroke="grey" stroke-width="5" fill="none" />
<path d="M507.63602126001695,344.0981290771138 L510.101504,293.76126400000004" stroke="grey" stroke-width="5" />
<circle cx="507.63602126001695" cy="344.0981290771138" r="2.5" fill="grey" stroke="none" />
<circle cx="398.101504" cy="381.76126400000004" r="5" fill="black" stroke="none" />
<circle cx="510.101504" cy="293.76126400000004" r="5" fill="black" stroke="none" />
<path d="M510.101504,293.76126400000004 L509.3574465438601,308.9524146707986" stroke="grey" stroke-width="5" />
<circle cx="509.3574465438601" cy="308.9524146707986" r="2.5" fill="grey" stroke="none" />
<path d="M509.35744654386014,308.9524146707986 A191.27661034726566,191.27661034726566,0,0,1,558.1015040000001,317.7612640000001" stroke="grey" stroke-width="5" fill="none" />
<circle cx="510.101504" cy="293.76126400000004" r="5" fill="black" stroke="none" />
<circle cx="558.101504" cy="317.76126400000004" r="5" fill="black" stroke="none" />
<path d="M558.101504,317.76126400000004 L553.0150104453149,333.71534594730986" stroke="grey" stroke-width="5" />
<circle cx="553.0150104453149" cy="333.71534594730986" r="2.5" fill="grey" stroke="none" />
<path d="M553.015010445315,333.71534594730986 A174.53130809668417,174.53130809668417,0,0,0,510.101504,325.76126400000004" stroke="grey" stroke-width="5" fill="none" />
<circle cx="558.101504" cy="317.76126400000004" r="5" fill="black" stroke="none" />
<circle cx="510.101504" cy="325.76126400000004" r="5" fill="black" stroke="none" />
<path d="M510.101504,293.76126400000004 L508.53824930700966,325.67766693647354" stroke="grey" stroke-width="5" />
<circle cx="508.53824930700966" cy="325.67766693647354" r="2.5" fill="grey" stroke="none" />
<path d="M508.5382493070097,325.67766693647354 A174.53130809668417,174.53130809668417,0,0,1,510.101504,325.76126400000004" stroke="grey" stroke-width="5" fill="none" />
<circle cx="510.101504" cy="293.76126400000004" r="5" fill="black" stroke="none" />
<circle cx="510.101504" cy="325.76126400000004" r="5" fill="black" stroke="none" />
<path d="M510.101504,325.76126400000004 L504.2175298806756,427.25270658199497" stroke="grey" stroke-width="5" />
<circle cx="504.2175298806756" cy="427.25270658199497" r="2.5" fill="grey" stroke="none" />
<path d="M504.2175298806756,427.25270658199497 A72.86944666964136,72.86944666964136,0,0,0,462.10150400000003,437.76126400000004" stroke="grey" stroke-width="5" fill="none" />
<circle cx="510.101504" cy="325.76126400000004" r="5" fill="black" stroke="none" />
<circle cx="462.101504" cy="437.76126400000004" r="5" fill="black" stroke="none" />
<path d="M398.101504,381.76126400000004 L452.42907407147106,444.8006950746468" stroke="grey" stroke-width="5" />
<circle cx="452.42907407147106" cy="444.8006950746468" r="2.5" fill="grey" stroke="none" />
<path d="M452.42907407147106,444.8006950746468 A72.86944666964136,72.86944666964136,0,0,1,462.10150400000003,437.76126400000004" stroke="grey" stroke-width="5" fill="none" />
<circle cx="398.101504" cy="381.76126400000004" r="5" fill="black" stroke="none" />
<circle cx="462.101504" cy="437.76126400000004" r="5" fill="black" stroke="none" />
<path d="M462.101504,437.76126400000004 L478.94423804181616,465.42121329051565" stroke="grey" stroke-width="5" />
<circle cx="478.94423804181616" cy="465.42121329051565" r="2.5" fill="grey" stroke="none" />
<path d="M478.94423804181616,465.42121329051565 A40.48502935579658,40.48502935579658,0,0,0,462.101504,485.76126400000004" stroke="grey" stroke-width="5" fill="none" />
<circle cx="462.101504" cy="437.76126400000004" r="5" fill="black" stroke="none" />
<circle cx="462.101504" cy="485.76126400000004" r="5" fill="black" stroke="none" />
<path d="M558.1015040000001,317.7612640000001 A191.27661034726566,191.27661034726566,0,0,1,577.243180995229,325.01362151390754" stroke="grey" stroke-width="5" fill="none" />
<path d="M577.243180995229,325.01362151390754 L598.101504,277.76126400000004" stroke="grey" stroke-width="5" />
<circle cx="577.243180995229" cy="325.01362151390754" r="2.5" fill="grey" stroke="none" />
<circle cx="558.101504" cy="317.76126400000004" r="5" fill="black" stroke="none" />
<circle cx="598.101504" cy="277.76126400000004" r="5" fill="black" stroke="none" />
<path d="M558.101504,317.76126400000004 L548.2561149939062,348.6418974496753" stroke="grey" stroke-width="5" />
<circle cx="548.2561149939062" cy="348.6418974496753" r="2.5" fill="grey" stroke="none" />
<path d="M548.2561149939062,348.6418974496753 A158.8644952213669,158.8644952213669,0,0,1,606.101504,381.76126400000004" stroke="grey" stroke-width="5" fill="none" />
<circle cx="558.101504" cy="317.76126400000004" r="5" fill="black" stroke="none" />
<circle cx="606.101504" cy="381.76126400000004" r="5" fill="black" stroke="none" />
<path d="M510.101504,325.76126400000004 L507.6249993759571,368.47797582740617" stroke="grey" stroke-width="5" />
<circle cx="507.6249993759571" cy="368.47797582740617" r="2.5" fill="grey" stroke="none" />
<path d="M507.6249993759571,368.47797582740617 A131.7428687175883,131.7428687175883,0,0,1,558.101504,381.76126400000004" stroke="grey" stroke-width="5" fill="none" />
<circle cx="510.101504" cy="325.76126400000004" r="5" fill="black" stroke="none" />
<circle cx="558.101504" cy="381.76126400000004" r="5" fill="black" stroke="none" />
<path d="M462.101504,437.76126400000004 L467.206834443448,446.1454836181748" stroke="grey" stroke-width="5" />
<circle cx="467.206834443448" cy="446.1454836181748" r="2.5" fill="grey" stroke="none" />
<path d="M467.206834443448,446.1454836181748 A63.05315727177908,63.05315727177908,0,0,1,510.10150400000003,437.76126400000004" stroke="grey" stroke-width="5" fill="none" />
<circle cx="462.101504" cy="437.76126400000004" r="5" fill="black" stroke="none" />
<circle cx="510.101504" cy="437.76126400000004" r="5" fill="black" stroke="none" />
<path d="M462.101504,485.76126400000004 A40.48502935579658,40.48502935579658,0,0,1,539.3214679143834,490.36362293194037" stroke="grey" stroke-width="5" fill="none" />
<path d="M539.3214679143834,490.36362293194037 L558.101504,485.76126400000004" stroke="grey" stroke-width="5" />
<circle cx="539.3214679143834" cy="490.36362293194037" r="2.5" fill="grey" stroke="none" />
<circle cx="462.101504" cy="485.76126400000004" r="5" fill="black" stroke="none" />
<circle cx="558.101504" cy="485.76126400000004" r="5" fill="black" stroke="none" />
<path d="M462.101504,541.761264 A56.39414127318294,56.39414127318294,0,0,0,545.792607761065,532.9140736521775" stroke="grey" stroke-width="5" fill="none" />
<path d="M545.792607761065,532.9140736521775 L558.101504,541.761264" stroke="grey" stroke-width="5" />
<circle cx="545.792607761065" cy="532.9140736521775" r="2.5" fill="grey" stroke="none" />
<circle cx="462.101504" cy="541.761264" r="5" fill="black" stroke="none" />
<circle cx="558.101504" cy="541.761264" r="5" fill="black" stroke="none" />
<path d="M606.101504,381.76126400000004 L587.9876683127536,401.9471893170596" stroke="grey" stroke-width="5" />
<circle cx="587.9876683127536" cy="401.9471893170596" r="2.5" fill="grey" stroke="none" />
<path d="M587.9876683127536,401.9471893170596 A131.7428687175883,131.7428687175883,0,0,0,558.101504,381.76126400000004" stroke="grey" stroke-width="5" fill="none" />
<circle cx="606.101504" cy="381.76126400000004" r="5" fill="black" stroke="none" />
<circle cx="558.101504" cy="381.76126400000004" r="5" fill="black" stroke="none" />
<path d="M558.101504,381.76126400000004 L527.8078297907127,443.4100252317563" stroke="grey" stroke-width="5" />
<circle cx="527.8078297907127" cy="443.4100252317563" r="2.5" fill="grey" stroke="none" />
<path d="M527.8078297907127,443.4100252317563 A63.05315727177908,63.05315727177908,0,0,0,510.10150400000003,437.76126400000004" stroke="grey" stroke-width="5" fill="none" />
<circle cx="558.101504" cy="381.76126400000004" r="5" fill="black" stroke="none" />
<circle cx="510.101504" cy="437.76126400000004" r="5" fill="black" stroke="none" />
<path d="M510.101504,437.76126400000004 L509.58365813055127,440.9518851547619" stroke="grey" stroke-width="5" />
<circle cx="509.58365813055127" cy="440.9518851547619" r="2.5" fill="grey" stroke="none" />
<path d="M509.58365813055127,440.9518851547619 A59.820785433992015,59.820785433992015,0,0,1,558.101504,485.76126400000004" stroke="grey" stroke-width="5" fill="none" />
<circle cx="510.101504" cy="437.76126400000004" r="5" fill="black" stroke="none" />
<circle cx="558.101504" cy="485.76126400000004" r="5" fill="black" stroke="none" />
<path d="M558.101504,485.76126400000004 A59.820785433992015,59.820785433992015,0,0,1,548.5750771532763,534.9140122227876" stroke="grey" stroke-width="5" fill="none" />
<path d="M548.5750771532763,534.9140122227876 L558.101504,541.761264" stroke="grey" stroke-width="5" />
<circle cx="548.5750771532763" cy="534.9140122227876" r="2.5" fill="grey" stroke="none" />
<circle cx="558.101504" cy="485.76126400000004" r="5" fill="black" stroke="none" />
<circle cx="558.101504" cy="541.761264" r="5" fill="black" stroke="none" />
<path d="M558.101504,541.761264 A71.55269343595471,71.55269343595471,0,0,1,552.2421866680161,548.8931679284937" stroke="grey" stroke-width="5" fill="none" />
<path d="M552.2421866680161,548.8931679284937 L630.101504,621.761264" stroke="grey" stroke-width="5" />
<circle cx="552.2421866680161" cy="548.8931679284937" r="2.5" fill="grey" stroke="none" />
<circle cx="558.101504" cy="541.761264" r="5" fill="black" stroke="none" />
<circle cx="630.101504" cy="621.761264" r="5" fill="black" stroke="none" />
<path d="M606.101504,381.76126400000004 L583.4751865821208,406.9758657819391" stroke="grey" stroke-width="5" />
<circle cx="583.4751865821208" cy="406.9758657819391" r="2.5" fill="grey" stroke="none" />
<path d="M583.4751865821208,406.9758657819391 A124.9863845462365,124.9863845462365,0,0,0,582.101504,405.76126400000004" stroke="grey" stroke-width="5" fill="none" />
<circle cx="606.101504" cy="381.76126400000004" r="5" fill="black" stroke="none" />
<circle cx="582.101504" cy="405.76126400000004" r="5" fill="black" stroke="none" />
<path d="M582.101504,405.76126400000004 L555.929480816904,435.80235049870373" stroke="grey" stroke-width="5" />
<circle cx="555.929480816904" cy="435.80235049870373" r="2.5" fill="grey" stroke="none" />
<path d="M555.929480816904,435.80235049870373 A85.14367284736845,85.14367284736845,0,0,1,558.101504,437.76126400000004" stroke="grey" stroke-width="5" fill="none" />
<circle cx="582.101504" cy="405.76126400000004" r="5" fill="black" stroke="none" />
<circle cx="558.101504" cy="437.76126400000004" r="5" fill="black" stroke="none" />
<path d="M558.101504,437.76126400000004 L540.8213257420414,456.27191137721815" stroke="grey" stroke-width="5" />
<circle cx="540.8213257420414" cy="456.27191137721815" r="2.5" fill="grey" stroke="none" />
<path d="M540.8213257420414,456.27191137721815 A59.820785433992015,59.820785433992015,0,0,1,558.101504,485.76126400000004" stroke="grey" stroke-width="5" fill="none" />
<circle cx="558.101504" cy="437.76126400000004" r="5" fill="black" stroke="none" />
<circle cx="558.101504" cy="485.76126400000004" r="5" fill="black" stroke="none" />
<path d="M558.101504,381.76126400000004 L555.1217458094504,387.8251834819506" stroke="grey" stroke-width="5" />
<circle cx="555.1217458094504" cy="387.8251834819506" r="2.5" fill="grey" stroke="none" />
<path d="M555.1217458094504,387.8251834819506 A124.9863845462365,124.9863845462365,0,0,1,582.101504,405.76126400000004" stroke="grey" stroke-width="5" fill="none" />
<circle cx="558.101504" cy="381.76126400000004" r="5" fill="black" stroke="none" />
<circle cx="582.101504" cy="405.76126400000004" r="5" fill="black" stroke="none" />
<path d="M510.10150400000003,437.76126400000004 A63.05315727177908,63.05315727177908,0,0,1,543.0270758463308,453.9090964934099" stroke="grey" stroke-width="5" fill="none" />
<path d="M543.0270758463308,453.9090964934099 L558.101504,437.76126400000004" stroke="grey" stroke-width="5" />
<circle cx="543.0270758463308" cy="453.9090964934099" r="2.5" fill="grey" stroke="none" />
<circle cx="510.101504" cy="437.76126400000004" r="5" fill="black" stroke="none" />
<circle cx="558.101504" cy="437.76126400000004" r="5" fill="black" stroke="none" />
<path d="M606.101504,381.76126400000004 L582.1544754057521,408.44765660702404" stroke="grey" stroke-width="5" />
<circle cx="582.1544754057521" cy="408.44765660702404" r="2.5" fill="grey" stroke="none" />
<path d="M582.1544754057521,408.4476566070241 A123.00889971843382,123.00889971843382,0,0,1,606.101504,437.76126400000004" stroke="grey" stroke-width="5" fill="none" />
<circle cx="606.101504" cy="381.76126400000004" r="5" fill="black" stroke="none" />
<circle cx="606.101504" cy="437.76126400000004" r="5" fill="black" stroke="none" />
<path d="M582.101504,405.76126400000004 L580.8025266826769,407.25227177102937" stroke="grey" stroke-width="5" />
<circle cx="580.8025266826769" cy="407.25227177102937" r="2.5" fill="grey" stroke="none" />
<path d="M580.8025266826769,407.2522717710294 A123.00889971843382,123.00889971843382,0,0,1,606.101504,437.76126400000004" stroke="grey" stroke-width="5" fill="none" />
<circle cx="582.101504" cy="405.76126400000004" r="5" fill="black" stroke="none" />
<circle cx="606.101504" cy="437.76126400000004" r="5" fill="black" stroke="none" />
<path d="M558.101504,437.76126400000004 A85.14367284736845,85.14367284736845,0,0,1,573.4407979086733,456.9199091403335" stroke="grey" stroke-width="5" fill="none" />
<path d="M573.4407979086733,456.9199091403335 L606.101504,437.76126400000004" stroke="grey" stroke-width="5" />
<circle cx="573.4407979086733" cy="456.9199091403335" r="2.5" fill="grey" stroke="none" />
<circle cx="558.101504" cy="437.76126400000004" r="5" fill="black" stroke="none" />
<circle cx="606.101504" cy="437.76126400000004" r="5" fill="black" stroke="none" />
<path d="M558.101504,485.76126400000004 A59.820785433992015,59.820785433992015,0,0,0,551.5985048198646,469.73251463543556" stroke="grey" stroke-width="5" fill="none" />
<path d="M551.5985048198646,469.73251463543556 L606.101504,437.76126400000004" stroke="grey" stroke-width="5" />
<circle cx="551.5985048198646" cy="469.73251463543556" r="2.5" fill="grey" stroke="none" />
<circle cx="558.101504" cy="485.76126400000004" r="5" fill="black" stroke="none" />
<circle cx="606.101504" cy="437.76126400000004" r="5" fill="black" stroke="none" />
<path d="M606.101504,437.76126400000004 L591.9044876560398,446.0891794291671" stroke="grey" stroke-width="5" />
<circle cx="591.9044876560398" cy="446.0891794291671" r="2.5" fill="grey" stroke="none" />
<path d="M591.9044876560398,446.0891794291671 A106.54957262204158,106.54957262204158,0,0,1,606.101504,509.76126400000004" stroke="grey" stroke-width="5" fill="none" />
<circle cx="606.101504" cy="437.76126400000004" r="5" fill="black" stroke="none" />
<circle cx="606.101504" cy="509.76126400000004" r="5" fill="black" stroke="none" />
<path d="M606.101504,509.76126400000004 L571.2517957790027,506.55511527030694" stroke="grey" stroke-width="5" />
<circle cx="571.2517957790027" cy="506.55511527030694" r="2.5" fill="grey" stroke="none" />
<path d="M571.2517957790027,506.55511527030694 A71.55269343595471,71.55269343595471,0,0,1,558.101504,541.761264" stroke="grey" stroke-width="5" fill="none" />
<circle cx="606.101504" cy="509.76126400000004" r="5" fill="black" stroke="none" />
<circle cx="558.101504" cy="541.761264" r="5" fill="black" stroke="none" />
<path d="M606.101504,381.76126400000004 A158.8644952213669,158.8644952213669,0,0,1,609.1375695559129,384.55772544960854" stroke="grey" stroke-width="5" fill="none" />
<path d="M609.1375695559129,384.5577254496085 L710.101504,277.76126400000004" stroke="grey" stroke-width="5" />
<circle cx="609.1375695559129" cy="384.5577254496085" r="2.5" fill="grey" stroke="none" />
<circle cx="606.101504" cy="381.76126400000004" r="5" fill="black" stroke="none" />
<circle cx="710.101504" cy="277.76126400000004" r="5" fill="black" stroke="none" />
<path d="M606.101504,381.76126400000004 A158.8644952213669,158.8644952213669,0,0,1,647.3717829322949,440.6747487380267" stroke="grey" stroke-width="5" fill="none" />
<path d="M647.3717829322949,440.6747487380267 L734.101504,405.76126400000004" stroke="grey" stroke-width="5" />
<circle cx="647.3717829322949" cy="440.6747487380267" r="2.5" fill="grey" stroke="none" />
<circle cx="606.101504" cy="381.76126400000004" r="5" fill="black" stroke="none" />
<circle cx="734.101504" cy="405.76126400000004" r="5" fill="black" stroke="none" />
<path d="M734.101504,405.76126400000004 A252.3577887403908,252.3577887403908,0,0,1,742.2042783583132,429.1371671264236" stroke="grey" stroke-width="5" fill="none" />
<path d="M742.2042783583132,429.1371671264236 L822.101504,405.76126400000004" stroke="grey" stroke-width="5" />
<circle cx="742.2042783583132" cy="429.1371671264236" r="2.5" fill="grey" stroke="none" />
<circle cx="734.101504" cy="405.76126400000004" r="5" fill="black" stroke="none" />
<circle cx="822.101504" cy="405.76126400000004" r="5" fill="black" stroke="none" />
<path d="M606.101504,437.76126400000004 A123.00889971843382,123.00889971843382,0,0,1,619.4613589979351,529.3287080572288" stroke="grey" stroke-width="5" fill="none" />
<path d="M619.4613589979351,529.3287080572288 L670.101504,541.761264" stroke="grey" stroke-width="5" />
<circle cx="619.4613589979351" cy="529.3287080572288" r="2.5" fill="grey" stroke="none" />
<circle cx="606.101504" cy="437.76126400000004" r="5" fill="black" stroke="none" />
<circle cx="670.101504" cy="541.761264" r="5" fill="black" stroke="none" />
<circle cx="500" cy="500" r="5" fill="red" stroke="none" />
</svg>