<?xml version="1.0" encoding="UTF-8"?>
<svg xmlns="http://www.w3.org/2000/svg" xmlns:xlink="http://www.w3.org/1999/xlink"
     width="1000" height="1000" viewBox="0 0 1000 1000">
<defs>
</defs>
<rect x="0" y="0" width="1000" height="1000" fill="white" />
<path d="M240.37935200000004,714.9527820000001 L350.430914881724,623.8356471068057" stroke="grey" stroke-width="5" />
<circle cx="350.430914881724" cy="623.8356471068057" r="2.5" fill="grey" stroke="none" />
<path d="M350.4309148817239,623.8356471068057 A194.18078874461145,194.18078874461145,0,0,0,360.37935200000004,634.952782" stroke="grey" stroke-width="5" fill="none" />
<circle cx="240.37935200000004" cy="714.9527820000001" r="5" fill="black" stroke="none" />
<circle cx="360.37935200000004" cy="634.9527820000001" r="5" fill="black" stroke="none" />
<path d="M360.37935200000004,634.9527820000001 L384.6701029071344,611.4741313939178" stroke="grey" stroke-width="5" />
<circle cx="384.6701029071344" cy="611.4741313939178" r="2.5" fill="grey" stroke="none" />
<path d="M384.6701029071343,611.4741313939177 A160.3978401771028,160.3978401771028,0,0,1,360.3793520000001,578.9527820000001" stroke="grey" stroke-width="5" fill="none" />
<circle cx="360.37935200000004" cy="634.9527820000001" r="5" fill="black" stroke="none" />
<circle cx="360.37935200000004" cy="578.9527820000001" r="5" fill="black" stroke="none" />
<path d="M360.3793520000001,578.9527820000001 A160.3978401771028,160.3978401771028,0,0,1,347.4150150854381,549.4498686762901" stroke="grey" stroke-width="5" fill="none" />
<path d="M347.4150150854381,549.4498686762901 L256.37935200000004,578.9527820000001" stroke="grey" stroke-width="5" />
<circle cx="347.4150150854381" cy="549.4498686762901" r="2.5" fill="grey" stroke="none" />
<circle cx="360.37935200000004" cy="578.9527820000001" r="5" fill="black" stroke="none" />
<circle cx="256.37935200000004" cy="578.9527820000001" r="5" fill="black" stroke="none" />
<path d="M256.37935200000004,578.9527820000001 L304.8375771287817,563.2484001419417" stroke="grey" stroke-width="5" />
<circle cx="304.8375771287817" cy="563.2484001419417" r="2.5" fill="grey" stroke="none" />
<path d="M304.8375771287817,563.2484001419417 A205.15538360345167,205.15538360345167,0,0,1,296.37935200000004,474.95278200000007" stroke="grey" stroke-width="5" fill="none" />
<circle cx="256.37935200000004" cy="578.9527820000001" r="5" fill="black" stroke="none" />
<circle cx="296.37935200000004" cy="474.952782" r="5" fill="black" stroke="none" />
<path d="M296.37935200000004,474.952782 L355.57561656207884,482.2344685963027" stroke="grey" stroke-width="5" />
<circle cx="355.57561656207884" cy="482.2344685963027" r="2.5" fill="grey" stroke="none" />
<path d="M355.57561656207884,482.23446859630275 A145.51294319571514,145.51294319571514,0,0,1,408.37935200000004,386.952782" stroke="grey" stroke-width="5" fill="none" />
<circle cx="296.37935200000004" cy="474.952782" r="5" fill="black" stroke="none" />
<circle cx="408.37935200000004" cy="386.952782" r="5" fill="black" stroke="none" />
<path d="M408.37935200000004,386.952782 L437.56668737316124,422.96592026954016" stroke="grey" stroke-width="5" />
<circle cx="437.56668737316124" cy="422.96592026954016" r="2.5" fill="grey" stroke="none" />
<path d="M437.56668737316124,422.96592026954016 A99.15728901840461,99.15728901840461,0,0,1,456.37935200000004,410.952782" stroke="grey" stroke-width="5" fill="none" />
<circle cx="408.37935200000004" cy="386.952782" r="5" fill="black" stroke="none" />
<circle cx="456.37935200000004" cy="410.952782" r="5" fill="black" stroke="none" />
<path d="M456.37935200000004,410.952782 A99.15728901840461,99.15728901840461,0,0,0,425.7308005322026,434.30179625064363" stroke="grey" stroke-width="5" fill="none" />
<path d="M425.7308005322026,434.30179625064363 L408.37935200000004,418.952782" stroke="grey" stroke-width="5" />
<circle cx="425.7308005322026" cy="434.30179625064363" r="2.5" fill="grey" stroke="none" />
<circle cx="456.37935200000004" cy="410.952782" r="5" fill="black" stroke="none" />
<circle cx="408.37935200000004" cy="418.952782" r="5" fill="black" stroke="none" />
<path d="M408.37935200000004,386.952782 L422.98044679830195,404.96851516423504" stroke="grey" stroke-width="5" />
<circle cx="422.98044679830195" cy="404.96851516423504" r="2.5" fill="grey" stroke="none" />
<path d="M422.98044679830195,404.96851516423504 A122.32332028472501,122.32332028472501,0,0,0,408.37935200000004,418.952782" stroke="grey" stroke-width="5" fill="none" />
<circle cx="408.37935200000004" cy="386.952782" r="5" fill="black" stroke="none" />
<circle cx="408.37935200000004" cy="418.952782" r="5" fill="black" stroke="none" />
<path d="M408.37935200000004,418.952782 A122.32332028472501,122.32332028472501,0,0,0,380.57616387164626,526.4753101939813" stroke="grey" stroke-width="5" fill="none" />
<path d="M380.57616387164626,526.4753101939813 L360.37935200000004,530.9527820000001" stroke="grey" stroke-width="5" />
<circle cx="380.57616387164626" cy="526.4753101939813" r="2.5" fill="grey" stroke="none" />
<circle cx="408.37935200000004" cy="418.952782" r="5" fill="black" stroke="none" />
<circle cx="360.37935200000004" cy="530.9527820000001" r="5" fill="black" stroke="none" />
<path d="M296.37935200000004,474.952782 L358.05934994791085,482.5399907139261" stroke="grey" stroke-width="5" />
<circle cx="358.05934994791085" cy="482.5399907139261" r="2.5" fill="grey" stroke="none" />
<path d="M358.05934994791085,482.53999071392616 A143.01048934074527,143.01048934074527,0,0,0,360.37935200000004,530.9527820000001" stroke="grey" stroke-width="5" fill="none" />
<circle cx="296.37935200000004" cy="474.952782" r="5" fill="black" stroke="none" />
<circle cx="360.37935200000004" cy="530.9527820000001" r="5" fill="black" stroke="none" />
<path d="M360.37935200000004,530.9527820000001 A143.01048934074527,143.01048934074527,0,0,0,375.5144260639346,570.3941896983538" stroke="grey" stroke-width="5" fill="none" />
<path d="M375.5144260639346,570.3941896983537 L360.37935200000004,578.9527820000001" stroke="grey" stroke-width="5" />
<circle cx="375.5144260639346" cy="570.3941896983537" r="2.5" fill="grey" stroke="none" />
<circle cx="360.37935200000004" cy="530.9527820000001" r="5" fill="black" stroke="none" />
<circle cx="360.37935200000004" cy="578.9527820000001" r="5" fill="black" stroke="none" />
<path d="M456.37935200000004,410.952782 A99.15728901840461,99.15728901840461,0,0,1,497.2190611737998,400.8817153864921" stroke="grey" stroke-width="5" fill="none" />
<path d="M497.2190611737998,400.8817153864921 L496.37935200000004,370.952782" stroke="grey" stroke-width="5" />
<circle cx="497.2190611737998" cy="400.8817153864921" r="2.5" fill="grey" stroke="none" />
<circle cx="456.37935200000004" cy="410.952782" r="5" fill="black" stroke="none" />
<circle cx="496.37935200000004" cy="370.952782" r="5" fill="black" stroke="none" />
<path d="M456.37935200000004,410.952782 L488.8142324443726,477.16536714394334" stroke="grey" stroke-width="5" />
<circle cx="488.8142324443726" cy="477.16536714394334" r="2.5" fill="grey" stroke="none" />
<path d="M488.8142324443726,477.16536714394334 A25.427187289974242,25.427187289974242,0,0,1,504.37935200000004,474.952782" stroke="grey" stroke-width="5" fill="none" />
<circle cx="456.37935200000004" cy="410.952782" r="5" fill="black" stroke="none" />
<circle cx="504.37935200000004" cy="474.952782" r="5" fill="black" stroke="none" />
<path d="M408.37935200000004,418.952782 L462.3248485669832,466.67272849483965" stroke="grey" stroke-width="5" />
<circle cx="462.3248485669832" cy="466.67272849483965" r="2.5" fill="grey" stroke="none" />
<path d="M462.3248485669832,466.67272849483965 A50.30033858215493,50.30033858215493,0,0,0,456.37935200000004,474.952782" stroke="grey" stroke-width="5" fill="none" />
<circle cx="408.37935200000004" cy="418.952782" r="5" fill="black" stroke="none" />
<circle cx="456.37935200000004" cy="474.952782" r="5" fill="black" stroke="none" />
<path d="M360.37935200000004,530.9527820000001 L405.58441078550004,520.9311816856628" stroke="grey" stroke-width="5" />
<circle cx="405.58441078550004" cy="520.9311816856628" r="2.5" fill="grey" stroke="none" />
<path d="M405.58441078550004,520.9311816856628 A96.70789964361454,96.70789964361454,0,0,0,408.37935200000004,530.952782" stroke="grey" stroke-width="5" fill="none" />
<circle cx="360.37935200000004" cy="530.9527820000001" r="5" fill="black" stroke="none" />
<circle cx="408.37935200000004" cy="530.9527820000001" r="5" fill="black" stroke="none" />
<path d="M360.37935200000004,578.9527820000001 L421.4828219360982,544.399948945477" stroke="grey" stroke-width="5" />
<circle cx="421.4828219360982" cy="544.399948945477" r="2.5" fill="grey" stroke="none" />
<path d="M421.4828219360983,544.3999489454771 A90.20145629356229,90.20145629356229,0,0,0,456.37935200000004,578.9527820000001" stroke="grey" stroke-width="5" fill="none" />
<circle cx="360.37935200000004" cy="578.9527820000001" r="5" fill="black" stroke="none" />
<circle cx="456.37935200000004" cy="578.9527820000001" r="5" fill="black" stroke="none" />
<path d="M360.37935200000004,634.9527820000001 L398.02268775973437,598.5679567087134" stroke="grey" stroke-width="5" />
<circle cx="398.02268775973437" cy="598.5679567087134" r="2.5" fill="grey" stroke="none" />
<path d="M398.0226877597343,598.5679567087134 A141.82741026148446,141.82741026148446,0,0,0,456.37935200000004,634.9527820000001" stroke="grey" stroke-width="5" fill="none" />
<circle cx="360.37935200000004" cy="634.9527820000001" r="5" fill="black" stroke="none" />
<circle cx="456.37935200000004" cy="634.9527820000001" r="5" fill="black" stroke="none" />
<path d="M504.37935200000004,474.952782 A25.427187289974242,25.427187289974242,0,0,0,477.9494449208433,487.3384489820361" stroke="grey" stroke-width="5" fill="none" />
<path d="M477.9494449208433,487.3384489820361 L456.37935200000004,474.952782" stroke="grey" stroke-width="5" />
<circle cx="477.9494449208433" cy="487.3384489820361" r="2.5" fill="grey" stroke="none" />
<circle cx="504.37935200000004" cy="474.952782" r="5" fill="black" stroke="none" />
<circle cx="456.37935200000004" cy="474.952782" r="5" fill="black" stroke="none" />
<path d="M456.37935200000004,474.952782 A50.30033858215493,50.30033858215493,0,0,0,452.3456756635214,516.0993612765576" stroke="grey" stroke-width="5" fill="none" />
<path d="M452.3456756635214,516.0993612765576 L408.37935200000004,530.9527820000001" stroke="grey" stroke-width="5" />
<circle cx="452.3456756635214" cy="516.0993612765576" r="2.5" fill="grey" stroke="none" />
<circle cx="456.37935200000004" cy="474.952782" r="5" fill="black" stroke="none" />
<circle cx="408.37935200000004" cy="530.9527820000001" r="5" fill="black" stroke="none" />
<path d="M408.37935200000004,530.9527820000001 L414.54352843340314,528.8702993553383" stroke="grey" stroke-width="5" />
<circle cx="414.54352843340314" cy="528.8702993553383" r="2.5" fill="grey" stroke="none" />
<path d="M414.54352843340314,528.8702993553383 A90.20145629356229,90.20145629356229,0,0,0,456.37935200000004,578.9527820000001" stroke="grey" stroke-width="5" fill="none" />
<circle cx="408.37935200000004" cy="530.9527820000001" r="5" fill="black" stroke="none" />
<circle cx="456.37935200000004" cy="578.9527820000001" r="5" fill="black" stroke="none" />
<path d="M456.37935200000004,578.9527820000001 A90.20145629356229,90.20145629356229,0,0,0,472.2575067343144,585.8292303640363" stroke="grey" stroke-width="5" fill="none" />
<path d="M472.2575067343144,585.8292303640363 L456.37935200000004,634.9527820000001" stroke="grey" stroke-width="5" />
<circle cx="472.2575067343144" cy="585.8292303640363" r="2.5" fill="grey" stroke="none" />
<circle cx="456.37935200000004" cy="578.9527820000001" r="5" fill="black" stroke="none" />
<circle cx="456.37935200000004" cy="634.9527820000001" r="5" fill="black" stroke="none" />
<path d="M456.37935200000004,634.9527820000001 A141.82741026148446,141.82741026148446,0,0,0,518.563810405432,640.6072517500808" stroke="grey" stroke-width="5" fill="none" />
<path d="M518.563810405432,640.6072517500808 L528.379352,714.9527820000001" stroke="grey" stroke-width="5" />
<circle cx="518.563810405432" cy="640.6072517500808" r="2.5" fill="grey" stroke="none" />
<circle cx="456.37935200000004" cy="634.9527820000001" r="5" fill="black" stroke="none" />
<circle cx="528.379352" cy="714.9527820000001" r="5" fill="black" stroke="none" />
<path d="M504.37935200000004,474.952782 L503.384095321584,480.64504217690313" stroke="grey" stroke-width="5" />
<circle cx="503.384095321584" cy="480.64504217690313" r="2.5" fill="grey" stroke="none" />
<path d="M503.384095321584,480.64504217690313 A19.648574846014313,19.648574846014313,0,0,0,480.37935200000004,498.952782" stroke="grey" stroke-width="5" fill="none" />
<circle cx="504.37935200000004" cy="474.952782" r="5" fill="black" stroke="none" />
<circle cx="480.37935200000004" cy="498.952782" r="5" fill="black" stroke="none" />
<path d="M480.37935200000004,498.952782 A19.648574846014313,19.648574846014313,0,0,0,483.97578681208375,511.3706237818177" stroke="grey" stroke-width="5" fill="none" />
<path d="M483.97578681208375,511.37062378181764 L456.37935200000004,530.9527820000001" stroke="grey" stroke-width="5" />
<circle cx="483.97578681208375" cy="511.37062378181764" r="2.5" fill="grey" stroke="none" />
<circle cx="480.37935200000004" cy="498.952782" r="5" fill="black" stroke="none" />
<circle cx="456.37935200000004" cy="530.9527820000001" r="5" fill="black" stroke="none" />
<path d="M456.37935200000004,530.9527820000001 A53.48678010012778,53.48678010012778,0,0,0,474.1342534447796,546.8166508906877" stroke="grey" stroke-width="5" fill="none" />
<path d="M474.1342534447796,546.8166508906877 L456.37935200000004,578.9527820000001" stroke="grey" stroke-width="5" />
<circle cx="474.1342534447796" cy="546.8166508906877" r="2.5" fill="grey" stroke="none" />
<circle cx="456.37935200000004" cy="530.9527820000001" r="5" fill="black" stroke="none" />
<circle cx="456.37935200000004" cy="578.9527820000001" r="5" fill="black" stroke="none" />
<path d="M456.37935200000004,474.952782 L482.9606799632217,490.21592793548245" stroke="grey" stroke-width="5" />
<circle cx="482.9606799632217" cy="490.21592793548245" r="2.5" fill="grey" stroke="none" />
<path d="M482.9606799632217,490.21592793548245 A19.648574846014313,19.648574846014313,0,0,0,480.37935200000004,498.952782" stroke="grey" stroke-width="5" fill="none" />
<circle cx="456.37935200000004" cy="474.952782" r="5" fill="black" stroke="none" />
<circle cx="480.37935200000004" cy="498.952782" r="5" fill="black" stroke="none" />
<path d="M408.37935200000004,530.9527820000001 L449.32685468026517,517.1192286299489" stroke="grey" stroke-width="5" />
<circle cx="449.32685468026517" cy="517.1192286299489" r="2.5" fill="grey" stroke="none" />
<path d="M449.32685468026517,517.1192286299489 A53.48678010012778,53.48678010012778,0,0,0,456.37935200000004,530.9527820000001" stroke="grey" stroke-width="5" fill="none" />
<circle cx="408.37935200000004" cy="530.9527820000001" r="5" fill="black" stroke="none" />
<circle cx="456.37935200000004" cy="530.9527820000001" r="5" fill="black" stroke="none" />
<path d="M504.37935200000004,474.952782 A25.427187289974242,25.427187289974242,0,0,1,503.562087411214,525.1764450777765" stroke="grey" stroke-width="5" fill="none" />
<path d="M503.562087411214,525.1764450777765 L504.37935200000004,530.9527820000001" stroke="grey" stroke-width="5" />
<circle cx="503.562087411214" cy="525.1764450777765" r="2.5" fill="grey" stroke="none" />
<circle cx="504.37935200000004" cy="474.952782" r="5" fill="black" stroke="none" />
<circle cx="504.37935200000004" cy="530.9527820000001" r="5" fill="black" stroke="none" />
<path d="M480.37935200000004,498.952782 A19.648574846014313,19.648574846014313,0,0,0,502.75256324300096,519.45481660342" stroke="grey" stroke-width="5" fill="none" />
<path d="M502.75256324300096,519.45481660342 L504.37935200000004,530.9527820000001" stroke="grey" stroke-width="5" />
<circle cx="502.75256324300096" cy="519.45481660342" r="2.5" fill="grey" stroke="none" />
<circle cx="480.37935200000004" cy="498.952782" r="5" fill="black" stroke="none" />
<circle cx="504.37935200000004" cy="530.9527820000001" r="5" fill="black" stroke="none" />
<path d="M456.37935200000004,530.9527820000001 L474.50533779691835,518.0907610848795" stroke="grey" stroke-width="5" />
<circle cx="474.50533779691835" cy="518.0907610848795" r="2.5" fill="grey" stroke="none" />
<path d="M474.5053377969184,518.0907610848795 A31.26105304495402,31.26105304495402,0,0,0,504.37935200000004,530.9527820000001" stroke="grey" stroke-width="5" fill="none" />
<circle cx="456.37935200000004" cy="530.9527820000001" r="5" fill="black" stroke="none" />
<circle cx="504.37935200000004" cy="530.9527820000001" r="5" fill="black" stroke="none" />
<path d="M456.37935200000004,578.9527820000001 L484.8824237765595,527.362608183576" stroke="grey" stroke-width="5" />
<circle cx="484.8824237765595" cy="527.362608183576" r="2.5" fill="grey" stroke="none" />
<path d="M484.8824237765595,527.362608183576 A31.26105304495402,31.26105304495402,0,0,0,504.37935200000004,530.9527820000001" stroke="grey" stroke-width="5" fill="none" />
<circle cx="456.37935200000004" cy="578.9527820000001" r="5" fill="black" stroke="none" />
<circle cx="504.37935200000004" cy="530.9527820000001" r="5" fill="black" stroke="none" />
<path d="M504.37935200000004,530.9527820000001 A31.26105304495402,31.26105304495402,0,0,1,501.32856501314365,531.232808911228" stroke="grey" stroke-width="5" fill="none" />
<path d="M501.32856501314365,531.232808911228 L504.37935200000004,602.9527820000001" stroke="grey" stroke-width="5" />
<circle cx="501.32856501314365" cy="531.232808911228" r="2.5" fill="grey" stroke="none" />
<circle cx="504.37935200000004" cy="530.9527820000001" r="5" fill="black" stroke="none" />
<circle cx="504.37935200000004" cy="602.9527820000001" r="5" fill="black" stroke="none" />
<path d="M504.37935200000004,602.952782 A103.04588320490745,103.04588320490745,0,0,1,468.30705580223764,598.0510649282146" stroke="grey" stroke-width="5" fill="none" />
<path d="M468.30705580223764,598.0510649282146 L456.37935200000004,634.9527820000001" stroke="grey" stroke-width="5" />
<circle cx="468.30705580223764" cy="598.0510649282146" r="2.5" fill="grey" stroke="none" />
<circle cx="504.37935200000004" cy="602.9527820000001" r="5" fill="black" stroke="none" />
<circle cx="456.37935200000004" cy="634.9527820000001" r="5" fill="black" stroke="none" />
<path d="M504.37935200000004,474.952782 A25.427187289974242,25.427187289974242,0,0,1,516.3527687682703,480.52876975918286" stroke="grey" stroke-width="5" fill="none" />
<path d="M516.3527687682703,480.52876975918286 L608.379352,370.952782" stroke="grey" stroke-width="5" />
<circle cx="516.3527687682703" cy="480.52876975918286" r="2.5" fill="grey" stroke="none" />
<circle cx="504.37935200000004" cy="474.952782" r="5" fill="black" stroke="none" />
<circle cx="608.379352" cy="370.952782" r="5" fill="black" stroke="none" />
<path d="M504.37935200000004,474.952782 A25.427187289974242,25.427187289974242,0,0,1,525.4263917140381,499.79885854798573" stroke="grey" stroke-width="5" fill="none" />
<path d="M525.4263917140381,499.79885854798573 L632.379352,498.952782" stroke="grey" stroke-width="5" />
<circle cx="525.4263917140381" cy="499.79885854798573" r="2.5" fill="grey" stroke="none" />
<circle cx="504.37935200000004" cy="474.952782" r="5" fill="black" stroke="none" />
<circle cx="632.379352" cy="498.952782" r="5" fill="black" stroke="none" />
<path d="M632.379352,498.952782 A132.38349406734753,132.38349406734753,0,0,1,632.3819994539106,499.3709355643077" stroke="grey" stroke-width="5" fill="none" />
<path d="M632.3819994539106,499.3709355643077 L720.379352,498.952782" stroke="grey" stroke-width="5" />
<circle cx="632.3819994539106" cy="499.3709355643077" r="2.5" fill="grey" stroke="none" />
<circle cx="632.379352" cy="498.952782" r="5" fill="black" stroke="none" />
<circle cx="720.379352" cy="498.952782" r="5" fill="black" stroke="none" />
<path d="M504.37935200000004,530.9527820000001 A31.26105304495402,31.26105304495402,0,0,0,514.1294339885424,527.8857048080706" stroke="grey" stroke-width="5" fill="none" />
<path d="M514.1294339885424,527.8857048080706 L568.379352,634.9527820000001" stroke="grey" stroke-width="5" />
<circle cx="514.1294339885424" cy="527.8857048080706" r="2.5" fill="grey" stroke="none" />
<circle cx="504.37935200000004" cy="530.9527820000001" r="5" fill="black" stroke="none" />
<circle cx="568.379352" cy="634.9527820000001" r="5" fill="black" stroke="none" />
<circle cx="500" cy="500" r="5" fill="red" stroke="none" />
</svg>