<?xml version="1.0" encoding="UTF-8"?>
<svg xmlns="http://www.w3.org/2000/svg" xmlns:xlink="http://www.w3.org/1999/xlink"
     width="1000" height="1000" viewBox="0 0 1000 1000">
<defs>
</defs>
<rect x="0" y="0" width="1000" height="1000" fill="white" />
<path d="M235.47852799999998,719.390448 L345.45015369306964,628.181503615739" stroke="grey" stroke-width="5" />
<circle cx="345.45015369306964" cy="628.181503615739" r="2.5" fill="grey" stroke="none" />
<path d="M345.4501536930696,628.181503615739 A200.78882653844934,200.78882653844934,0,0,0,355.478528,639.390448" stroke="grey" stroke-width="5" fill="none" />
<circle cx="235.47852799999998" cy="719.390448" r="5" fill="black" stroke="none" />
<circle cx="355.478528" cy="639.390448" r="5" fill="black" stroke="none" />
<path d="M355.478528,639.390448 L379.90339042740237,615.8327546761043" stroke="grey" stroke-width="5" />
<circle cx="379.90339042740237" cy="615.8327546761043" r="2.5" fill="grey" stroke="none" />
<path d="M379.90339042740237,615.8327546761043 A166.8544955543227,166.8544955543227,0,0,1,355.478528,583.390448" stroke="grey" stroke-width="5" fill="none" />
<circle cx="355.478528" cy="639.390448" r="5" fill="black" stroke="none" />
<circle cx="355.478528" cy="583.390448" r="5" fill="black" stroke="none" />
<path d="M355.478528,583.390448 A166.8544955543227,166.8544955543227,0,0,1,341.81325661317237,553.0789685596607" stroke="grey" stroke-width="5" fill="none" />
<path d="M341.81325661317237,553.0789685596607 L-248.52147200000002,83.39044800000002" stroke="grey" stroke-width="5" />
<circle cx="341.81325661317237" cy="553.0789685596607" r="2.5" fill="grey" stroke="none" />
<circle cx="355.478528" cy="583.390448" r="5" fill="black" stroke="none" />
<circle cx="251.47852799999998" cy="583.390448" r="5" fill="black" stroke="none" />
<path d="M251.47852799999998,583.390448 L301.34756110588495,566.6570809449933" stroke="grey" stroke-width="5" />
<circle cx="301.34756110588495" cy="566.6570809449933" r="2.5" fill="grey" stroke="none" />
<path d="M301.34756110588495,566.6570809449933 A209.53748571243165,209.53748571243165,0,0,1,291.478528,479.39044800000005" stroke="grey" stroke-width="5" fill="none" />
<circle cx="251.47852799999998" cy="583.390448" r="5" fill="black" stroke="none" />
<circle cx="291.478528" cy="479.390448" r="5" fill="black" stroke="none" />
<path d="M291.478528,479.390448 L355.40337436695097,485.7085620659303" stroke="grey" stroke-width="5" />
<circle cx="355.40337436695097" cy="485.7085620659303" r="2.5" fill="grey" stroke="none" />
<path d="M355.40337436695097,485.7085620659303 A145.30116772651033,145.30116772651033,0,0,1,403.478528,391.390448" stroke="grey" stroke-width="5" fill="none" />
<circle cx="291.478528" cy="479.390448" r="5" fill="black" stroke="none" />
<circle cx="403.478528" cy="391.390448" r="5" fill="black" stroke="none" />
<path d="M403.478528,391.390448 L435.20879150123955,427.09452122125776" stroke="grey" stroke-width="5" />
<circle cx="435.20879150123955" cy="427.09452122125776" r="2.5" fill="grey" stroke="none" />
<path d="M435.20879150123955,427.09452122125776 A97.5351707574631,97.5351707574631,0,0,1,451.478528,415.390448" stroke="grey" stroke-width="5" fill="none" />
<circle cx="403.478528" cy="391.390448" r="5" fill="black" stroke="none" />
<circle cx="451.478528" cy="415.390448" r="5" fill="black" stroke="none" />
<path d="M451.478528,415.390448 A97.5351707574631,97.5351707574631,0,0,0,423.60379077828304,439.36396491162094" stroke="grey" stroke-width="5" fill="none" />
<path d="M423.6037907782831,439.3639649116209 L-96.52147200000002,-76.60955199999998" stroke="grey" stroke-width="5" />
<circle cx="423.6037907782831" cy="439.3639649116209" r="2.5" fill="grey" stroke="none" />
<circle cx="451.478528" cy="415.390448" r="5" fill="black" stroke="none" />
<circle cx="403.478528" cy="423.390448" r="5" fill="black" stroke="none" />
<path d="M403.478528,391.390448 L418.14066586982517,407.8888311307913" stroke="grey" stroke-width="5" />
<circle cx="418.14066586982517" cy="407.8888311307913" r="2.5" fill="grey" stroke="none" />
<path d="M418.14066586982517,407.8888311307913 A123.22912810974316,123.22912810974316,0,0,0,403.478528,423.39044800000005" stroke="grey" stroke-width="5" fill="none" />
<circle cx="403.478528" cy="391.390448" r="5" fill="black" stroke="none" />
<circle cx="403.478528" cy="423.390448" r="5" fill="black" stroke="none" />
<path d="M403.478528,423.39044800000005 A123.22912810974316,123.22912810974316,0,0,0,380.3073882553289,529.3103515575455" stroke="grey" stroke-width="5" fill="none" />
<path d="M380.3073882553289,529.3103515575456 L-144.52147200000002,35.39044800000002" stroke="grey" stroke-width="5" />
<circle cx="380.3073882553289" cy="529.3103515575456" r="2.5" fill="grey" stroke="none" />
<circle cx="403.478528" cy="423.390448" r="5" fill="black" stroke="none" />
<circle cx="355.478528" cy="535.390448" r="5" fill="black" stroke="none" />
<path d="M291.478528,479.390448 L351.92986848611287,485.3652525765678" stroke="grey" stroke-width="5" />
<circle cx="351.92986848611287" cy="485.3652525765678" r="2.5" fill="grey" stroke="none" />
<path d="M351.92986848611287,485.3652525765678 A148.79159814548498,148.79159814548498,0,0,0,355.478528,535.390448" stroke="grey" stroke-width="5" fill="none" />
<circle cx="291.478528" cy="479.390448" r="5" fill="black" stroke="none" />
<circle cx="355.478528" cy="535.390448" r="5" fill="black" stroke="none" />
<path d="M355.478528,535.390448 A148.79159814548498,148.79159814548498,0,0,0,371.1237553787272,574.3629830695713" stroke="grey" stroke-width="5" fill="none" />
<path d="M371.1237553787272,574.3629830695713 L-144.52147200000002,83.39044800000002" stroke="grey" stroke-width="5" />
<circle cx="371.1237553787272" cy="574.3629830695713" r="2.5" fill="grey" stroke="none" />
<circle cx="355.478528" cy="535.390448" r="5" fill="black" stroke="none" />
<circle cx="355.478528" cy="583.390448" r="5" fill="black" stroke="none" />
<path d="M451.478528,415.390448 A97.5351707574631,97.5351707574631,0,0,1,493.3455617368254,402.6920970008649" stroke="grey" stroke-width="5" fill="none" />
<path d="M493.3455617368254,402.6920970008649 L-8.521472000000017,-124.60955199999998" stroke="grey" stroke-width="5" />
<circle cx="493.3455617368254" cy="402.6920970008649" r="2.5" fill="grey" stroke="none" />
<circle cx="451.478528" cy="415.390448" r="5" fill="black" stroke="none" />
<circle cx="491.478528" cy="375.390448" r="5" fill="black" stroke="none" />
<path d="M451.478528,415.390448 L489.74394723499853,482.11595827646914" stroke="grey" stroke-width="5" />
<circle cx="489.74394723499853" cy="482.11595827646914" r="2.5" fill="grey" stroke="none" />
<path d="M489.74394723499853,482.11595827646914 A20.61614820201599,20.61614820201599,0,0,1,499.478528,479.39044800000005" stroke="grey" stroke-width="5" fill="none" />
<circle cx="451.478528" cy="415.390448" r="5" fill="black" stroke="none" />
<circle cx="499.478528" cy="479.390448" r="5" fill="black" stroke="none" />
<path d="M403.478528,423.390448 L458.7084084560176,467.2266671445761" stroke="grey" stroke-width="5" />
<circle cx="458.7084084560176" cy="467.2266671445761" r="2.5" fill="grey" stroke="none" />
<path d="M458.7084084560176,467.2266671445761 A52.71704542828144,52.71704542828144,0,0,0,451.478528,479.39044800000005" stroke="grey" stroke-width="5" fill="none" />
<circle cx="403.478528" cy="423.390448" r="5" fill="black" stroke="none" />
<circle cx="451.478528" cy="479.390448" r="5" fill="black" stroke="none" />
<path d="M355.478528,535.390448 L400.14532148843097,524.4524343581306" stroke="grey" stroke-width="5" />
<circle cx="400.14532148843097" cy="524.4524343581306" r="2.5" fill="grey" stroke="none" />
<path d="M400.1453214884309,524.4524343581305 A102.80505029757776,102.80505029757776,0,0,0,403.478528,535.390448" stroke="grey" stroke-width="5" fill="none" />
<circle cx="355.478528" cy="535.390448" r="5" fill="black" stroke="none" />
<circle cx="403.478528" cy="535.390448" r="5" fill="black" stroke="none" />
<path d="M355.478528,583.390448 L416.43399291081136,548.2184873451788" stroke="grey" stroke-width="5" />
<circle cx="416.43399291081136" cy="548.2184873451788" r="2.5" fill="grey" stroke="none" />
<path d="M416.43399291081136,548.2184873451788 A96.47953183285817,96.47953183285817,0,0,0,451.478528,583.390448" stroke="grey" stroke-width="5" fill="none" />
<circle cx="355.478528" cy="583.390448" r="5" fill="black" stroke="none" />
<circle cx="451.478528" cy="583.390448" r="5" fill="black" stroke="none" />
<path d="M355.478528,639.390448 L393.76638742062323,602.4619431643885" stroke="grey" stroke-width="5" />
<circle cx="393.76638742062323" cy="602.4619431643885" r="2.5" fill="grey" stroke="none" />
<path d="M393.76638742062323,602.4619431643885 A147.59414025864135,147.59414025864135,0,0,0,451.478528,639.390448" stroke="grey" stroke-width="5" fill="none" />
<circle cx="355.478528" cy="639.390448" r="5" fill="black" stroke="none" />
<circle cx="451.478528" cy="639.390448" r="5" fill="black" stroke="none" />
<path d="M499.478528,479.39044800000005 A20.61614820201599,20.61614820201599,0,0,0,481.02462211974955,491.9401860450015" stroke="grey" stroke-width="5" fill="none" />
<path d="M481.02462211974955,491.94018604500144 L-48.52147200000002,-20.60955199999998" stroke="grey" stroke-width="5" />
<circle cx="481.02462211974955" cy="491.94018604500144" r="2.5" fill="grey" stroke="none" />
<circle cx="499.478528" cy="479.390448" r="5" fill="black" stroke="none" />
<circle cx="451.478528" cy="479.390448" r="5" fill="black" stroke="none" />
<path d="M451.478528,479.39044800000005 A52.71704542828144,52.71704542828144,0,0,0,450.50508890857003,518.1477451695501" stroke="grey" stroke-width="5" fill="none" />
<path d="M450.50508890857003,518.1477451695501 L-96.52147200000002,35.39044800000002" stroke="grey" stroke-width="5" />
<circle cx="450.50508890857003" cy="518.1477451695501" r="2.5" fill="grey" stroke="none" />
<circle cx="451.478528" cy="479.390448" r="5" fill="black" stroke="none" />
<circle cx="403.478528" cy="535.390448" r="5" fill="black" stroke="none" />
<path d="M403.478528,535.390448 L409.4174225544079,533.2128999938398" stroke="grey" stroke-width="5" />
<circle cx="409.4174225544079" cy="533.2128999938398" r="2.5" fill="grey" stroke="none" />
<path d="M409.41742255440784,533.2128999938396 A96.47953183285817,96.47953183285817,0,0,0,451.478528,583.390448" stroke="grey" stroke-width="5" fill="none" />
<circle cx="403.478528" cy="535.390448" r="5" fill="black" stroke="none" />
<circle cx="451.478528" cy="583.390448" r="5" fill="black" stroke="none" />
<path d="M451.478528,583.390448 A96.47953183285817,96.47953183285817,0,0,0,468.2824203305249,591.116931481465" stroke="grey" stroke-width="5" fill="none" />
<path d="M468.28242033052493,591.116931481465 L-48.52147200000002,139.39044800000002" stroke="grey" stroke-width="5" />
<circle cx="468.28242033052493" cy="591.116931481465" r="2.5" fill="grey" stroke="none" />
<circle cx="451.478528" cy="583.390448" r="5" fill="black" stroke="none" />
<circle cx="451.478528" cy="639.390448" r="5" fill="black" stroke="none" />
<path d="M451.478528,639.390448 A147.59414025864135,147.59414025864135,0,0,0,515.7054174933988,646.7561586443497" stroke="grey" stroke-width="5" fill="none" />
<path d="M515.7054174933988,646.7561586443497 L23.478527999999983,219.39044800000002" stroke="grey" stroke-width="5" />
<circle cx="515.7054174933988" cy="646.7561586443497" r="2.5" fill="grey" stroke="none" />
<circle cx="451.478528" cy="639.390448" r="5" fill="black" stroke="none" />
<circle cx="523.478528" cy="719.390448" r="5" fill="black" stroke="none" />
<path d="M499.478528,479.39044800000005 A20.61614820201599,20.61614820201599,0,0,0,479.5781307326551,502.8236186560795" stroke="grey" stroke-width="5" fill="none" />
<path d="M479.5781307326551,502.82361865607953 L-24.521472000000017,3.3904480000000206" stroke="grey" stroke-width="5" />
<circle cx="479.5781307326551" cy="502.82361865607953" r="2.5" fill="grey" stroke="none" />
<circle cx="499.478528" cy="479.390448" r="5" fill="black" stroke="none" />
<circle cx="475.478528" cy="503.390448" r="5" fill="black" stroke="none" />
<path d="M475.478528,503.390448 A24.754751598177855,24.754751598177855,0,0,0,479.9999775525582,514.5875573277131" stroke="grey" stroke-width="5" fill="none" />
<path d="M479.9999775525582,514.5875573277131 L-48.52147200000002,35.39044800000002" stroke="grey" stroke-width="5" />
<circle cx="479.9999775525582" cy="514.5875573277131" r="2.5" fill="grey" stroke="none" />
<circle cx="475.478528" cy="503.390448" r="5" fill="black" stroke="none" />
<circle cx="451.478528" cy="535.390448" r="5" fill="black" stroke="none" />
<path d="M451.478528,535.3904480000001 A60.0567819208413,60.0567819208413,0,0,0,469.79625204410695,551.9090614835635" stroke="grey" stroke-width="5" fill="none" />
<path d="M469.79625204410695,551.9090614835635 L-48.52147200000002,83.39044800000002" stroke="grey" stroke-width="5" />
<circle cx="469.79625204410695" cy="551.9090614835635" r="2.5" fill="grey" stroke="none" />
<circle cx="451.478528" cy="535.390448" r="5" fill="black" stroke="none" />
<circle cx="451.478528" cy="583.390448" r="5" fill="black" stroke="none" />
<path d="M451.478528,479.390448 L477.21539633377176,490.3222129357798" stroke="grey" stroke-width="5" />
<circle cx="477.21539633377176" cy="490.3222129357798" r="2.5" fill="grey" stroke="none" />
<path d="M477.21539633377176,490.3222129357798 A24.754751598177855,24.754751598177855,0,0,0,475.478528,503.390448" stroke="grey" stroke-width="5" fill="none" />
<circle cx="451.478528" cy="479.390448" r="5" fill="black" stroke="none" />
<circle cx="475.478528" cy="503.390448" r="5" fill="black" stroke="none" />
<path d="M403.478528,535.390448 L443.6139666504383,520.6744358517857" stroke="grey" stroke-width="5" />
<circle cx="443.6139666504383" cy="520.6744358517857" r="2.5" fill="grey" stroke="none" />
<path d="M443.6139666504383,520.6744358517857 A60.0567819208413,60.0567819208413,0,0,0,451.478528,535.3904480000001" stroke="grey" stroke-width="5" fill="none" />
<circle cx="403.478528" cy="535.390448" r="5" fill="black" stroke="none" />
<circle cx="451.478528" cy="535.390448" r="5" fill="black" stroke="none" />
<path d="M499.478528,479.39044800000005 A20.61614820201599,20.61614820201599,0,0,0,499.6962576695494,520.6139105286741" stroke="grey" stroke-width="5" fill="none" />
<path d="M499.6962576695494,520.6139105286741 L-0.521472000000017,35.39044800000002" stroke="grey" stroke-width="5" />
<circle cx="499.6962576695494" cy="520.6139105286741" r="2.5" fill="grey" stroke="none" />
<circle cx="499.478528" cy="479.390448" r="5" fill="black" stroke="none" />
<circle cx="499.478528" cy="535.390448" r="5" fill="black" stroke="none" />
<path d="M475.478528,503.390448 A24.754751598177855,24.754751598177855,0,0,0,499.6352826984713,524.7520647215026" stroke="grey" stroke-width="5" fill="none" />
<path d="M499.6352826984713,524.7520647215026 L-0.521472000000017,35.39044800000002" stroke="grey" stroke-width="5" />
<circle cx="499.6352826984713" cy="524.7520647215026" r="2.5" fill="grey" stroke="none" />
<circle cx="475.478528" cy="503.390448" r="5" fill="black" stroke="none" />
<circle cx="499.478528" cy="535.390448" r="5" fill="black" stroke="none" />
<path d="M451.478528,535.390448 L471.4040116495763,520.8572575606172" stroke="grey" stroke-width="5" />
<circle cx="471.4040116495763" cy="520.8572575606172" r="2.5" fill="grey" stroke="none" />
<path d="M471.4040116495763,520.8572575606172 A35.394289690393414,35.394289690393414,0,0,0,499.478528,535.390448" stroke="grey" stroke-width="5" fill="none" />
<circle cx="451.478528" cy="535.390448" r="5" fill="black" stroke="none" />
<circle cx="499.478528" cy="535.390448" r="5" fill="black" stroke="none" />
<path d="M451.478528,583.390448 L482.1995090197212,530.5924543564014" stroke="grey" stroke-width="5" />
<circle cx="482.1995090197212" cy="530.5924543564014" r="2.5" fill="grey" stroke="none" />
<path d="M482.1995090197212,530.5924543564014 A35.394289690393414,35.394289690393414,0,0,0,499.478528,535.390448" stroke="grey" stroke-width="5" fill="none" />
<circle cx="451.478528" cy="583.390448" r="5" fill="black" stroke="none" />
<circle cx="499.478528" cy="535.390448" r="5" fill="black" stroke="none" />
<path d="M499.478528,535.390448 A35.394289690393414,35.394289690393414,0,0,0,499.8281326339725,535.393872411704" stroke="grey" stroke-width="5" fill="none" />
<path d="M499.8281326339725,535.393872411704 L-0.521472000000017,107.39044800000002" stroke="grey" stroke-width="5" />
<circle cx="499.8281326339725" cy="535.393872411704" r="2.5" fill="grey" stroke="none" />
<circle cx="499.478528" cy="535.390448" r="5" fill="black" stroke="none" />
<circle cx="499.478528" cy="607.390448" r="5" fill="black" stroke="none" />
<path d="M499.4785279999999,607.390448 A107.39171408766829,107.39171408766829,0,0,1,464.69504792666237,601.4225843379413" stroke="grey" stroke-width="5" fill="none" />
<path d="M464.69504792666237,601.4225843379413 L-48.52147200000002,139.39044800000002" stroke="grey" stroke-width="5" />
<circle cx="464.69504792666237" cy="601.4225843379413" r="2.5" fill="grey" stroke="none" />
<circle cx="499.478528" cy="607.390448" r="5" fill="black" stroke="none" />
<circle cx="451.478528" cy="639.390448" r="5" fill="black" stroke="none" />
<path d="M499.478528,479.39044800000005 A20.61614820201599,20.61614820201599,0,0,1,513.170867171685,484.13955156266644" stroke="grey" stroke-width="5" fill="none" />
<path d="M513.170867171685,484.13955156266644 L103.47852799999998,-124.60955199999998" stroke="grey" stroke-width="5" />
<circle cx="513.170867171685" cy="484.13955156266644" r="2.5" fill="grey" stroke="none" />
<circle cx="499.478528" cy="479.390448" r="5" fill="black" stroke="none" />
<circle cx="603.478528" cy="375.390448" r="5" fill="black" stroke="none" />
<path d="M499.478528,479.39044800000005 A20.61614820201599,20.61614820201599,0,0,1,520.6088605554766,500.5481179548339" stroke="grey" stroke-width="5" fill="none" />
<path d="M520.6088605554766,500.5481179548339 L127.47852799999998,3.3904480000000206" stroke="grey" stroke-width="5" />
<circle cx="520.6088605554766" cy="500.5481179548339" r="2.5" fill="grey" stroke="none" />
<circle cx="499.478528" cy="479.390448" r="5" fill="black" stroke="none" />
<circle cx="627.478528" cy="503.390448" r="5" fill="black" stroke="none" />
<path d="M627.478528,503.390448 A127.52360659378907,127.52360659378907,0,0,0,627.5078237181058,502.00627250391005" stroke="grey" stroke-width="5" fill="none" />
<path d="M627.5078237181058,502.00627250391005 L215.47852799999998,3.3904480000000206" stroke="grey" stroke-width="5" />
<circle cx="627.5078237181058" cy="502.00627250391005" r="2.5" fill="grey" stroke="none" />
<circle cx="627.478528" cy="503.390448" r="5" fill="black" stroke="none" />
<circle cx="715.478528" cy="503.390448" r="5" fill="black" stroke="none" />
<path d="M499.478528,535.390448 A35.394289690393414,35.394289690393414,0,0,0,514.669092924802,532.2113870463694" stroke="grey" stroke-width="5" fill="none" />
<path d="M514.669092924802,532.2113870463694 L63.47852799999998,139.39044800000002" stroke="grey" stroke-width="5" />
<circle cx="514.669092924802" cy="532.2113870463694" r="2.5" fill="grey" stroke="none" />
<circle cx="499.478528" cy="535.390448" r="5" fill="black" stroke="none" />
<circle cx="563.478528" cy="639.390448" r="5" fill="black" stroke="none" />
<circle cx="500" cy="500" r="5" fill="red" stroke="none" />
</svg>