<?xml version="1.0" encoding="UTF-8"?>
<svg xmlns="http://www.w3.org/2000/svg" xmlns:xlink="http://www.w3.org/1999/xlink"
     width="1000" height="1000" viewBox="0 0 1000 1000">
<defs>
</defs>
<rect x="0" y="0" width="1000" height="1000" fill="white" />
<path d="M255.29177599999997,696.396816 L366.9602407770351,606.7744462597094" stroke="grey" stroke-width="5" />
<circle cx="366.9602407770351" cy="606.7744462597094" r="2.5" fill="grey" stroke="none" />
<path d="M366.9602407770351,606.7744462597094 A170.58827599859268,170.58827599859268,0,0,0,375.29177599999997,616.396816" stroke="grey" stroke-width="5" fill="none" />
<circle cx="255.29177599999997" cy="696.396816" r="5" fill="black" stroke="none" />
<circle cx="375.29177599999997" cy="616.396816" r="5" fill="black" stroke="none" />
<path d="M375.29177599999997,616.396816 L398.7032330440861,594.545658390279" stroke="grey" stroke-width="5" />
<circle cx="398.7032330440861" cy="594.545658390279" r="2.5" fill="grey" stroke="none" />
<path d="M398.7032330440861,594.545658390279 A138.5637633588668,138.5637633588668,0,0,1,375.29177599999997,560.396816" stroke="grey" stroke-width="5" fill="none" />
<circle cx="375.29177599999997" cy="616.396816" r="5" fill="black" stroke="none" />
<circle cx="375.29177599999997" cy="560.396816" r="5" fill="black" stroke="none" />
<path d="M375.29177599999997,560.396816 A138.5637633588668,138.5637633588668,0,0,1,366.0289009314831,535.3788231933407" stroke="grey" stroke-width="5" fill="none" />
<path d="M366.0289009314831,535.3788231933407 L271.29177599999997,560.396816" stroke="grey" stroke-width="5" />
<circle cx="366.0289009314831" cy="535.3788231933407" r="2.5" fill="grey" stroke="none" />
<circle cx="375.29177599999997" cy="560.396816" r="5" fill="black" stroke="none" />
<circle cx="271.29177599999997" cy="560.396816" r="5" fill="black" stroke="none" />
<path d="M271.29177599999997,560.396816 L312.7392570708505,549.4514470748334" stroke="grey" stroke-width="5" />
<circle cx="312.7392570708505" cy="549.4514470748334" r="2.5" fill="grey" stroke="none" />
<path d="M312.7392570708505,549.4514470748334 A193.68022991563194,193.68022991563194,0,0,1,311.29177599999997,456.39681599999994" stroke="grey" stroke-width="5" fill="none" />
<circle cx="271.29177599999997" cy="560.396816" r="5" fill="black" stroke="none" />
<circle cx="311.29177599999997" cy="456.39681599999994" r="5" fill="black" stroke="none" />
<path d="M311.29177599999997,456.39681599999994 L351.5833073523506,465.70663312380645" stroke="grey" stroke-width="5" />
<circle cx="351.5833073523506" cy="465.70663312380645" r="2.5" fill="grey" stroke="none" />
<path d="M351.5833073523506,465.70663312380645 A152.32711402823873,152.32711402823873,0,0,1,423.29177599999997,368.39681599999994" stroke="grey" stroke-width="5" fill="none" />
<circle cx="311.29177599999997" cy="456.39681599999994" r="5" fill="black" stroke="none" />
<circle cx="423.29177599999997" cy="368.39681599999994" r="5" fill="black" stroke="none" />
<path d="M423.29177599999997,368.39681599999994 L443.91829472104956,403.7843585212" stroke="grey" stroke-width="5" />
<circle cx="443.91829472104956" cy="403.7843585212" r="2.5" fill="grey" stroke="none" />
<path d="M443.91829472104956,403.7843585212 A111.36699390830319,111.36699390830319,0,0,1,471.29177599999997,392.39681599999994" stroke="grey" stroke-width="5" fill="none" />
<circle cx="423.29177599999997" cy="368.39681599999994" r="5" fill="black" stroke="none" />
<circle cx="471.29177599999997" cy="392.39681599999994" r="5" fill="black" stroke="none" />
<path d="M471.29177599999997,392.39681599999994 A111.36699390830319,111.36699390830319,0,0,0,432.04805092885334,411.7665599128974" stroke="grey" stroke-width="5" fill="none" />
<path d="M432.04805092885334,411.7665599128974 L423.29177599999997,400.39681599999994" stroke="grey" stroke-width="5" />
<circle cx="432.04805092885334" cy="411.7665599128974" r="2.5" fill="grey" stroke="none" />
<circle cx="471.29177599999997" cy="392.39681599999994" r="5" fill="black" stroke="none" />
<circle cx="423.29177599999997" cy="400.39681599999994" r="5" fill="black" stroke="none" />
<path d="M423.29177599999997,368.39681599999994 L436.6916170964348,391.3860296908928" stroke="grey" stroke-width="5" />
<circle cx="436.6916170964348" cy="391.3860296908928" r="2.5" fill="grey" stroke="none" />
<path d="M436.6916170964348,391.3860296908928 A125.7177230631069,125.7177230631069,0,0,0,423.29177599999997,400.39681599999994" stroke="grey" stroke-width="5" fill="none" />
<circle cx="423.29177599999997" cy="368.39681599999994" r="5" fill="black" stroke="none" />
<circle cx="423.29177599999997" cy="400.39681599999994" r="5" fill="black" stroke="none" />
<path d="M423.29177599999997,400.39681599999994 L423.5326994219656,400.70964738464977" stroke="grey" stroke-width="5" />
<circle cx="423.5326994219656" cy="400.70964738464977" r="2.5" fill="grey" stroke="none" />
<path d="M423.5326994219656,400.70964738464977 A125.32287173605638,125.32287173605638,0,0,0,375.29177599999997,512.396816" stroke="grey" stroke-width="5" fill="none" />
<circle cx="423.29177599999997" cy="400.39681599999994" r="5" fill="black" stroke="none" />
<circle cx="375.29177599999997" cy="512.396816" r="5" fill="black" stroke="none" />
<path d="M311.29177599999997,456.39681599999994 L377.89431806130744,471.78609175497144" stroke="grey" stroke-width="5" />
<circle cx="377.89431806130744" cy="471.78609175497144" r="2.5" fill="grey" stroke="none" />
<path d="M377.89431806130744,471.78609175497144 A125.32287173605638,125.32287173605638,0,0,0,375.29177599999997,512.396816" stroke="grey" stroke-width="5" fill="none" />
<circle cx="311.29177599999997" cy="456.39681599999994" r="5" fill="black" stroke="none" />
<circle cx="375.29177599999997" cy="512.396816" r="5" fill="black" stroke="none" />
<path d="M375.29177599999997,512.396816 A125.32287173605638,125.32287173605638,0,0,0,387.2086584404732,554.6254102902138" stroke="grey" stroke-width="5" fill="none" />
<path d="M387.2086584404732,554.6254102902138 L375.29177599999997,560.396816" stroke="grey" stroke-width="5" />
<circle cx="387.2086584404732" cy="554.6254102902138" r="2.5" fill="grey" stroke="none" />
<circle cx="375.29177599999997" cy="512.396816" r="5" fill="black" stroke="none" />
<circle cx="375.29177599999997" cy="560.396816" r="5" fill="black" stroke="none" />
<path d="M471.29177599999997,392.39681599999994 A111.36699390830319,111.36699390830319,0,0,1,508.49485362467266,388.95746403261757" stroke="grey" stroke-width="5" fill="none" />
<path d="M508.49485362467266,388.95746403261757 L511.29177599999997,352.39681599999994" stroke="grey" stroke-width="5" />
<circle cx="508.49485362467266" cy="388.95746403261757" r="2.5" fill="grey" stroke="none" />
<circle cx="471.29177599999997" cy="392.39681599999994" r="5" fill="black" stroke="none" />
<circle cx="511.29177599999997" cy="352.39681599999994" r="5" fill="black" stroke="none" />
<path d="M471.29177599999997,392.39681599999994 L487.70895698620564,453.9311326620125" stroke="grey" stroke-width="5" />
<circle cx="487.70895698620564" cy="453.9311326620125" r="2.5" fill="grey" stroke="none" />
<path d="M487.70895698620564,453.9311326620125 A47.68029232473343,47.68029232473343,0,0,1,519.291776,456.39681599999994" stroke="grey" stroke-width="5" fill="none" />
<circle cx="471.29177599999997" cy="392.39681599999994" r="5" fill="black" stroke="none" />
<circle cx="519.291776" cy="456.39681599999994" r="5" fill="black" stroke="none" />
<path d="M423.29177599999997,400.39681599999994 L468.1462527770515,458.63892448172396" stroke="grey" stroke-width="5" />
<circle cx="468.1462527770515" cy="458.63892448172396" r="2.5" fill="grey" stroke="none" />
<path d="M468.1462527770515,458.63892448172396 A52.20536160369006,52.20536160369006,0,0,1,471.29177599999997,456.39681599999994" stroke="grey" stroke-width="5" fill="none" />
<circle cx="423.29177599999997" cy="400.39681599999994" r="5" fill="black" stroke="none" />
<circle cx="471.29177599999997" cy="456.39681599999994" r="5" fill="black" stroke="none" />
<path d="M375.29177599999997,512.396816 L422.6776057918062,507.6863534972517" stroke="grey" stroke-width="5" />
<circle cx="422.6776057918062" cy="507.6863534972517" r="2.5" fill="grey" stroke="none" />
<path d="M422.6776057918062,507.6863534972517 A77.70349204618822,77.70349204618822,0,0,0,423.29177599999997,512.396816" stroke="grey" stroke-width="5" fill="none" />
<circle cx="375.29177599999997" cy="512.396816" r="5" fill="black" stroke="none" />
<circle cx="423.29177599999997" cy="512.396816" r="5" fill="black" stroke="none" />
<path d="M375.29177599999997,560.396816 L439.81430399420924,529.1482332993025" stroke="grey" stroke-width="5" />
<circle cx="439.81430399420924" cy="529.1482332993025" r="2.5" fill="grey" stroke="none" />
<path d="M439.81430399420924,529.1482332993025 A66.87254674507342,66.87254674507342,0,0,0,471.29177599999997,560.396816" stroke="grey" stroke-width="5" fill="none" />
<circle cx="375.29177599999997" cy="560.396816" r="5" fill="black" stroke="none" />
<circle cx="471.29177599999997" cy="560.396816" r="5" fill="black" stroke="none" />
<path d="M375.29177599999997,616.396816 L412.3584048549021,581.8005605151626" stroke="grey" stroke-width="5" />
<circle cx="412.3584048549021" cy="581.8005605151626" r="2.5" fill="grey" stroke="none" />
<path d="M412.3584048549021,581.8005605151626 A119.88486518394232,119.88486518394232,0,0,0,471.29177599999997,616.396816" stroke="grey" stroke-width="5" fill="none" />
<circle cx="375.29177599999997" cy="616.396816" r="5" fill="black" stroke="none" />
<circle cx="471.29177599999997" cy="616.396816" r="5" fill="black" stroke="none" />
<path d="M519.291776,456.39681599999994 A47.68029232473343,47.68029232473343,0,0,0,473.7801545589299,460.1762635954582" stroke="grey" stroke-width="5" fill="none" />
<path d="M473.7801545589299,460.1762635954582 L471.29177599999997,456.39681599999994" stroke="grey" stroke-width="5" />
<circle cx="473.7801545589299" cy="460.1762635954582" r="2.5" fill="grey" stroke="none" />
<circle cx="519.291776" cy="456.39681599999994" r="5" fill="black" stroke="none" />
<circle cx="471.29177599999997" cy="456.39681599999994" r="5" fill="black" stroke="none" />
<path d="M471.29177599999997,456.39681599999994 A52.20536160369006,52.20536160369006,0,0,0,448.46331269749794,508.3288439807791" stroke="grey" stroke-width="5" fill="none" />
<path d="M448.46331269749794,508.3288439807791 L423.29177599999997,512.396816" stroke="grey" stroke-width="5" />
<circle cx="448.46331269749794" cy="508.3288439807791" r="2.5" fill="grey" stroke="none" />
<circle cx="471.29177599999997" cy="456.39681599999994" r="5" fill="black" stroke="none" />
<circle cx="423.29177599999997" cy="512.396816" r="5" fill="black" stroke="none" />
<path d="M423.29177599999997,512.396816 L433.9839927384164,510.66884686414477" stroke="grey" stroke-width="5" />
<circle cx="433.9839927384164" cy="510.66884686414477" r="2.5" fill="grey" stroke="none" />
<path d="M433.9839927384164,510.66884686414477 A66.87254674507342,66.87254674507342,0,0,0,471.29177599999997,560.396816" stroke="grey" stroke-width="5" fill="none" />
<circle cx="423.29177599999997" cy="512.396816" r="5" fill="black" stroke="none" />
<circle cx="471.29177599999997" cy="560.396816" r="5" fill="black" stroke="none" />
<path d="M471.29177599999997,560.396816 A66.87254674507342,66.87254674507342,0,0,0,483.9863685173065,564.9268905378082" stroke="grey" stroke-width="5" fill="none" />
<path d="M483.9863685173065,564.9268905378082 L471.29177599999997,616.396816" stroke="grey" stroke-width="5" />
<circle cx="483.9863685173065" cy="564.9268905378082" r="2.5" fill="grey" stroke="none" />
<circle cx="471.29177599999997" cy="560.396816" r="5" fill="black" stroke="none" />
<circle cx="471.29177599999997" cy="616.396816" r="5" fill="black" stroke="none" />
<path d="M471.29177599999997,616.396816 A119.88486518394232,119.88486518394232,0,0,0,525.8067062681043,617.0743132021871" stroke="grey" stroke-width="5" fill="none" />
<path d="M525.8067062681043,617.0743132021871 L543.291776,696.396816" stroke="grey" stroke-width="5" />
<circle cx="525.8067062681043" cy="617.0743132021871" r="2.5" fill="grey" stroke="none" />
<circle cx="471.29177599999997" cy="616.396816" r="5" fill="black" stroke="none" />
<circle cx="543.291776" cy="696.396816" r="5" fill="black" stroke="none" />
<path d="M519.291776,456.39681599999994 L508.15714229863994,481.56326423436695" stroke="grey" stroke-width="5" />
<circle cx="508.15714229863994" cy="481.56326423436695" r="2.5" fill="grey" stroke="none" />
<path d="M508.15714229863994,481.56326423436695 A20.160659616491554,20.160659616491554,0,0,0,495.29177599999997,480.39681599999994" stroke="grey" stroke-width="5" fill="none" />
<circle cx="519.291776" cy="456.39681599999994" r="5" fill="black" stroke="none" />
<circle cx="495.29177599999997" cy="480.39681599999994" r="5" fill="black" stroke="none" />
<path d="M495.29177599999997,480.39681599999994 A20.160659616491554,20.160659616491554,0,0,0,481.49127683808433,507.99245663657933" stroke="grey" stroke-width="5" fill="none" />
<path d="M481.49127683808433,507.99245663657933 L471.29177599999997,512.396816" stroke="grey" stroke-width="5" />
<circle cx="481.49127683808433" cy="507.99245663657933" r="2.5" fill="grey" stroke="none" />
<circle cx="495.29177599999997" cy="480.39681599999994" r="5" fill="black" stroke="none" />
<circle cx="471.29177599999997" cy="512.396816" r="5" fill="black" stroke="none" />
<path d="M471.29177599999997,512.396816 A31.270484041217415,31.270484041217415,0,0,0,486.5756561677557,528.2423470137614" stroke="grey" stroke-width="5" fill="none" />
<path d="M486.5756561677557,528.2423470137614 L471.29177599999997,560.396816" stroke="grey" stroke-width="5" />
<circle cx="486.5756561677557" cy="528.2423470137614" r="2.5" fill="grey" stroke="none" />
<circle cx="471.29177599999997" cy="512.396816" r="5" fill="black" stroke="none" />
<circle cx="471.29177599999997" cy="560.396816" r="5" fill="black" stroke="none" />
<path d="M471.29177599999997,456.39681599999994 L488.9134618652448,483.16132818899746" stroke="grey" stroke-width="5" />
<circle cx="488.9134618652448" cy="483.16132818899746" r="2.5" fill="grey" stroke="none" />
<path d="M488.9134618652448,483.16132818899746 A20.160659616491554,20.160659616491554,0,0,1,495.29177599999997,480.39681599999994" stroke="grey" stroke-width="5" fill="none" />
<circle cx="471.29177599999997" cy="456.39681599999994" r="5" fill="black" stroke="none" />
<circle cx="495.29177599999997" cy="480.39681599999994" r="5" fill="black" stroke="none" />
<path d="M423.29177599999997,512.396816 L469.13004510793024,504.98889337765513" stroke="grey" stroke-width="5" />
<circle cx="469.13004510793024" cy="504.98889337765513" r="2.5" fill="grey" stroke="none" />
<path d="M469.13004510793024,504.98889337765513 A31.270484041217415,31.270484041217415,0,0,0,471.29177599999997,512.396816" stroke="grey" stroke-width="5" fill="none" />
<circle cx="423.29177599999997" cy="512.396816" r="5" fill="black" stroke="none" />
<circle cx="471.29177599999997" cy="512.396816" r="5" fill="black" stroke="none" />
<path d="M519.291776,456.39681599999994 L509.27824326669196,479.0293569470053" stroke="grey" stroke-width="5" />
<circle cx="509.27824326669196" cy="479.0293569470053" r="2.5" fill="grey" stroke="none" />
<path d="M509.27824326669196,479.0293569470053 A22.931499475002287,22.931499475002287,0,0,1,519.291776,512.396816" stroke="grey" stroke-width="5" fill="none" />
<circle cx="519.291776" cy="456.39681599999994" r="5" fill="black" stroke="none" />
<circle cx="519.291776" cy="512.396816" r="5" fill="black" stroke="none" />
<path d="M495.29177599999997,480.39681599999994 A20.160659616491554,20.160659616491554,0,0,1,516.9607281790526,510.8988942470475" stroke="grey" stroke-width="5" fill="none" />
<path d="M516.9607281790526,510.8988942470475 L519.291776,512.396816" stroke="grey" stroke-width="5" />
<circle cx="516.9607281790526" cy="510.8988942470475" r="2.5" fill="grey" stroke="none" />
<circle cx="495.29177599999997" cy="480.39681599999994" r="5" fill="black" stroke="none" />
<circle cx="519.291776" cy="512.396816" r="5" fill="black" stroke="none" />
<path d="M471.29177599999997,512.396816 L478.94747575008694,509.09092354378" stroke="grey" stroke-width="5" />
<circle cx="478.94747575008694" cy="509.09092354378" r="2.5" fill="grey" stroke="none" />
<path d="M478.94747575008694,509.09092354378 A22.931499475002287,22.931499475002287,0,0,0,519.291776,512.396816" stroke="grey" stroke-width="5" fill="none" />
<circle cx="471.29177599999997" cy="512.396816" r="5" fill="black" stroke="none" />
<circle cx="519.291776" cy="512.396816" r="5" fill="black" stroke="none" />
<path d="M471.29177599999997,560.396816 L490.1555622504724,520.7108839397962" stroke="grey" stroke-width="5" />
<circle cx="490.1555622504724" cy="520.7108839397962" r="2.5" fill="grey" stroke="none" />
<path d="M490.1555622504724,520.7108839397962 A22.931499475002287,22.931499475002287,0,0,0,519.291776,512.396816" stroke="grey" stroke-width="5" fill="none" />
<circle cx="471.29177599999997" cy="560.396816" r="5" fill="black" stroke="none" />
<circle cx="519.291776" cy="512.396816" r="5" fill="black" stroke="none" />
<path d="M519.291776,512.396816 A22.931499475002287,22.931499475002287,0,0,1,505.109977475251,522.3549054655674" stroke="grey" stroke-width="5" fill="none" />
<path d="M505.109977475251,522.3549054655674 L519.291776,584.396816" stroke="grey" stroke-width="5" />
<circle cx="505.109977475251" cy="522.3549054655674" r="2.5" fill="grey" stroke="none" />
<circle cx="519.291776" cy="512.396816" r="5" fill="black" stroke="none" />
<circle cx="519.291776" cy="584.396816" r="5" fill="black" stroke="none" />
<path d="M519.291776,584.396816 A86.57364016934962,86.57364016934962,0,0,1,479.26864704177865,584.0547808080759" stroke="grey" stroke-width="5" fill="none" />
<path d="M479.26864704177865,584.0547808080759 L471.29177599999997,616.396816" stroke="grey" stroke-width="5" />
<circle cx="479.26864704177865" cy="584.0547808080759" r="2.5" fill="grey" stroke="none" />
<circle cx="519.291776" cy="584.396816" r="5" fill="black" stroke="none" />
<circle cx="471.29177599999997" cy="616.396816" r="5" fill="black" stroke="none" />
<path d="M519.291776,456.39681599999994 A47.68029232473343,47.68029232473343,0,0,1,530.5664614449456,463.4062613155381" stroke="grey" stroke-width="5" fill="none" />
<path d="M530.5664614449456,463.4062613155381 L623.291776,352.39681599999994" stroke="grey" stroke-width="5" />
<circle cx="530.5664614449456" cy="463.4062613155381" r="2.5" fill="grey" stroke="none" />
<circle cx="519.291776" cy="456.39681599999994" r="5" fill="black" stroke="none" />
<circle cx="623.291776" cy="352.39681599999994" r="5" fill="black" stroke="none" />
<path d="M519.291776,456.39681599999994 A47.68029232473343,47.68029232473343,0,0,1,547.2635362686196,493.7096569603151" stroke="grey" stroke-width="5" fill="none" />
<path d="M547.2635362686196,493.7096569603151 L647.291776,480.39681599999994" stroke="grey" stroke-width="5" />
<circle cx="547.2635362686196" cy="493.7096569603151" r="2.5" fill="grey" stroke="none" />
<circle cx="519.291776" cy="456.39681599999994" r="5" fill="black" stroke="none" />
<circle cx="647.291776" cy="480.39681599999994" r="5" fill="black" stroke="none" />
<path d="M647.291776,480.396816 A148.59055185364923,148.59055185364923,0,0,1,648.0775166370486,487.66301630151696" stroke="grey" stroke-width="5" fill="none" />
<path d="M648.0775166370486,487.66301630151696 L735.291776,480.39681599999994" stroke="grey" stroke-width="5" />
<circle cx="648.0775166370486" cy="487.66301630151696" r="2.5" fill="grey" stroke="none" />
<circle cx="647.291776" cy="480.39681599999994" r="5" fill="black" stroke="none" />
<circle cx="735.291776" cy="480.39681599999994" r="5" fill="black" stroke="none" />
<path d="M519.291776,512.396816 A22.931499475002287,22.931499475002287,0,0,1,513.3446983630516,518.6486646645596" stroke="grey" stroke-width="5" fill="none" />
<path d="M513.3446983630516,518.6486646645596 L583.291776,616.396816" stroke="grey" stroke-width="5" />
<circle cx="513.3446983630516" cy="518.6486646645596" r="2.5" fill="grey" stroke="none" />
<circle cx="519.291776" cy="512.396816" r="5" fill="black" stroke="none" />
<circle cx="583.291776" cy="616.396816" r="5" fill="black" stroke="none" />
<circle cx="500" cy="500" r="5" fill="red" stroke="none" />
</svg>