<?xml version="1.0" encoding="UTF-8"?>
<svg xmlns="http://www.w3.org/2000/svg" xmlns:xlink="http://www.w3.org/1999/xlink"
     width="1000" height="1000" viewBox="0 0 1000 1000">
<defs>
</defs>
<rect x="0" y="0" width="1000" height="1000" fill="white" />
<path d="M304.7840719999999,641.6008019999999 L421.3014173826307,557.0843912638253" stroke="grey" stroke-width="5" />
<circle cx="421.3014173826307" cy="557.0843912638253" r="2.5" fill="grey" stroke="none" />
<path d="M421.3014173826307,557.0843912638253 A97.22188350337795,97.22188350337795,0,0,0,424.7840719999999,561.6008019999999" stroke="grey" stroke-width="5" fill="none" />
<circle cx="304.7840719999999" cy="641.6008019999999" r="5" fill="black" stroke="none" />
<circle cx="424.7840719999999" cy="561.6008019999999" r="5" fill="black" stroke="none" />
<path d="M424.7840719999999,561.6008019999999 L441.6479250301134,547.7895402222404" stroke="grey" stroke-width="5" />
<circle cx="441.6479250301134" cy="547.7895402222404" r="2.5" fill="grey" stroke="none" />
<path d="M441.6479250301134,547.7895402222404 A75.4241659413241,75.4241659413241,0,0,1,424.7840719999999,505.600802" stroke="grey" stroke-width="5" fill="none" />
<circle cx="424.7840719999999" cy="561.6008019999999" r="5" fill="black" stroke="none" />
<circle cx="424.7840719999999" cy="505.600802" r="5" fill="black" stroke="none" />
<path d="M424.7840719999999,505.600802 A75.4241659413241,75.4241659413241,0,0,1,424.61263930852823,502.35598300467757" stroke="grey" stroke-width="5" fill="none" />
<path d="M424.61263930852823,502.3559830046775 L-179.21592800000005,5.600801999999987" stroke="grey" stroke-width="5" />
<circle cx="424.61263930852823" cy="502.3559830046775" r="2.5" fill="grey" stroke="none" />
<circle cx="424.7840719999999" cy="505.600802" r="5" fill="black" stroke="none" />
<circle cx="320.7840719999999" cy="505.600802" r="5" fill="black" stroke="none" />
<path d="M320.7840719999999,505.600802 L329.6030543506735,505.32519382979524" stroke="grey" stroke-width="5" />
<circle cx="329.6030543506735" cy="505.32519382979524" r="2.5" fill="grey" stroke="none" />
<path d="M329.6030543506735,505.32519382979535 A170.48013601573766,170.48013601573766,0,0,1,360.7840719999999,401.60080199999993" stroke="grey" stroke-width="5" fill="none" />
<circle cx="320.7840719999999" cy="505.600802" r="5" fill="black" stroke="none" />
<circle cx="360.7840719999999" cy="401.600802" r="5" fill="black" stroke="none" />
<path d="M360.7840719999999,401.60080199999993 A170.48013601573766,170.48013601573766,0,0,1,475.3695540353853,331.3085126405941" stroke="grey" stroke-width="5" fill="none" />
<path d="M475.3695540353853,331.3085126405941 L-27.215928000000048,-186.399198" stroke="grey" stroke-width="5" />
<circle cx="475.3695540353853" cy="331.3085126405941" r="2.5" fill="grey" stroke="none" />
<circle cx="360.7840719999999" cy="401.600802" r="5" fill="black" stroke="none" />
<circle cx="472.7840719999999" cy="313.600802" r="5" fill="black" stroke="none" />
<path d="M472.7840719999999,313.600802 L476.3456911311425,337.99397902583655" stroke="grey" stroke-width="5" />
<circle cx="476.3456911311425" cy="337.99397902583655" r="2.5" fill="grey" stroke="none" />
<path d="M476.3456911311425,337.99397902583655 A163.72378312250297,163.72378312250297,0,0,1,520.7840719999999,337.600802" stroke="grey" stroke-width="5" fill="none" />
<circle cx="472.7840719999999" cy="313.600802" r="5" fill="black" stroke="none" />
<circle cx="520.7840719999999" cy="337.600802" r="5" fill="black" stroke="none" />
<path d="M520.7840719999999,337.600802 L519.9025263675177,344.48887974123954" stroke="grey" stroke-width="5" />
<circle cx="519.9025263675177" cy="344.48887974123954" r="2.5" fill="grey" stroke="none" />
<path d="M519.9025263675177,344.48887974123954 A156.77952379039934,156.77952379039934,0,0,0,472.7840719999999,345.60080200000004" stroke="grey" stroke-width="5" fill="none" />
<circle cx="520.7840719999999" cy="337.600802" r="5" fill="black" stroke="none" />
<circle cx="472.7840719999999" cy="345.600802" r="5" fill="black" stroke="none" />
<path d="M472.7840719999999,313.600802 L477.34897637152886,344.8653803674795" stroke="grey" stroke-width="5" />
<circle cx="477.34897637152886" cy="344.8653803674795" r="2.5" fill="grey" stroke="none" />
<path d="M477.34897637152886,344.8653803674795 A156.77952379039934,156.77952379039934,0,0,0,472.7840719999999,345.60080200000004" stroke="grey" stroke-width="5" fill="none" />
<circle cx="472.7840719999999" cy="313.600802" r="5" fill="black" stroke="none" />
<circle cx="472.7840719999999" cy="345.600802" r="5" fill="black" stroke="none" />
<path d="M472.7840719999999,345.600802 L485.0113902169686,414.967833188161" stroke="grey" stroke-width="5" />
<circle cx="485.0113902169686" cy="414.967833188161" r="2.5" fill="grey" stroke="none" />
<path d="M485.01139021696855,414.967833188161 A86.34308203871574,86.34308203871574,0,0,0,424.7840719999999,457.60080200000004" stroke="grey" stroke-width="5" fill="none" />
<circle cx="472.7840719999999" cy="345.600802" r="5" fill="black" stroke="none" />
<circle cx="424.7840719999999" cy="457.600802" r="5" fill="black" stroke="none" />
<path d="M360.7840719999999,401.600802 L429.4913027797543,450.16375383068953" stroke="grey" stroke-width="5" />
<circle cx="429.4913027797543" cy="450.16375383068953" r="2.5" fill="grey" stroke="none" />
<path d="M429.4913027797543,450.16375383068953 A86.34308203871574,86.34308203871574,0,0,0,424.7840719999999,457.60080200000004" stroke="grey" stroke-width="5" fill="none" />
<circle cx="360.7840719999999" cy="401.600802" r="5" fill="black" stroke="none" />
<circle cx="424.7840719999999" cy="457.600802" r="5" fill="black" stroke="none" />
<path d="M424.7840719999999,457.600802 L434.29585207117225,462.96258981933113" stroke="grey" stroke-width="5" />
<circle cx="434.29585207117225" cy="462.96258981933113" r="2.5" fill="grey" stroke="none" />
<path d="M434.29585207117225,462.96258981933113 A75.4241659413241,75.4241659413241,0,0,0,424.7840719999999,505.600802" stroke="grey" stroke-width="5" fill="none" />
<circle cx="424.7840719999999" cy="457.600802" r="5" fill="black" stroke="none" />
<circle cx="424.7840719999999" cy="505.600802" r="5" fill="black" stroke="none" />
<path d="M520.7840719999999,337.600802 A163.72378312250297,163.72378312250297,0,0,1,547.0913919600358,343.1947769900165" stroke="grey" stroke-width="5" fill="none" />
<path d="M547.0913919600358,343.1947769900165 L60.78407199999995,-202.399198" stroke="grey" stroke-width="5" />
<circle cx="547.0913919600358" cy="343.1947769900165" r="2.5" fill="grey" stroke="none" />
<circle cx="520.7840719999999" cy="337.600802" r="5" fill="black" stroke="none" />
<circle cx="560.7840719999999" cy="297.600802" r="5" fill="black" stroke="none" />
<path d="M520.7840719999999,337.600802 L515.2407333224112,380.9144392642856" stroke="grey" stroke-width="5" />
<circle cx="515.2407333224112" cy="380.9144392642856" r="2.5" fill="grey" stroke="none" />
<path d="M515.2407333224112,380.9144392642856 A120.05686455985924,120.05686455985924,0,0,1,568.7840719999999,401.600802" stroke="grey" stroke-width="5" fill="none" />
<circle cx="520.7840719999999" cy="337.600802" r="5" fill="black" stroke="none" />
<circle cx="568.7840719999999" cy="401.600802" r="5" fill="black" stroke="none" />
<path d="M472.7840719999999,345.600802 L482.54164036627134,400.95664840665086" stroke="grey" stroke-width="5" />
<circle cx="482.54164036627134" cy="400.95664840665086" r="2.5" fill="grey" stroke="none" />
<path d="M482.5416403662713,400.95664840665086 A100.57027302311747,100.57027302311747,0,0,1,520.7840719999999,401.600802" stroke="grey" stroke-width="5" fill="none" />
<circle cx="472.7840719999999" cy="345.600802" r="5" fill="black" stroke="none" />
<circle cx="520.7840719999999" cy="401.600802" r="5" fill="black" stroke="none" />
<path d="M424.7840719999999,457.600802 L456.1103424773327,475.25941208282694" stroke="grey" stroke-width="5" />
<circle cx="456.1103424773327" cy="475.25941208282694" r="2.5" fill="grey" stroke="none" />
<path d="M456.1103424773327,475.259412082827 A50.38252403308504,50.38252403308504,0,0,1,472.784072,457.600802" stroke="grey" stroke-width="5" fill="none" />
<circle cx="424.7840719999999" cy="457.600802" r="5" fill="black" stroke="none" />
<circle cx="472.7840719999999" cy="457.600802" r="5" fill="black" stroke="none" />
<path d="M424.7840719999999,505.600802 L478.53394157685244,501.5984266384173" stroke="grey" stroke-width="5" />
<circle cx="478.53394157685244" cy="501.5984266384173" r="2.5" fill="grey" stroke="none" />
<path d="M478.53394157685244,501.5984266384173 A21.525487960656918,21.525487960656918,0,0,0,520.7840719999999,505.600802" stroke="grey" stroke-width="5" fill="none" />
<circle cx="424.7840719999999" cy="505.600802" r="5" fill="black" stroke="none" />
<circle cx="520.7840719999999" cy="505.600802" r="5" fill="black" stroke="none" />
<path d="M424.7840719999999,561.6008019999999 L449.7028664797286,541.1926548742415" stroke="grey" stroke-width="5" />
<circle cx="449.7028664797286" cy="541.1926548742415" r="2.5" fill="grey" stroke="none" />
<path d="M449.7028664797286,541.1926548742415 A65.01258690395564,65.01258690395564,0,0,0,520.7840719999999,561.6008019999999" stroke="grey" stroke-width="5" fill="none" />
<circle cx="424.7840719999999" cy="561.6008019999999" r="5" fill="black" stroke="none" />
<circle cx="520.7840719999999" cy="561.6008019999999" r="5" fill="black" stroke="none" />
<path d="M568.7840719999999,401.600802 L557.6196365450865,417.57210848046327" stroke="grey" stroke-width="5" />
<circle cx="557.6196365450865" cy="417.57210848046327" r="2.5" fill="grey" stroke="none" />
<path d="M557.6196365450865,417.57210848046327 A100.57027302311747,100.57027302311747,0,0,0,520.7840719999999,401.600802" stroke="grey" stroke-width="5" fill="none" />
<circle cx="568.7840719999999" cy="401.600802" r="5" fill="black" stroke="none" />
<circle cx="520.7840719999999" cy="401.600802" r="5" fill="black" stroke="none" />
<path d="M520.7840719999999,401.600802 L510.41216231763303,450.70511584539776" stroke="grey" stroke-width="5" />
<circle cx="510.41216231763303" cy="450.70511584539776" r="2.5" fill="grey" stroke="none" />
<path d="M510.41216231763303,450.70511584539776 A50.38252403308504,50.38252403308504,0,0,0,472.784072,457.600802" stroke="grey" stroke-width="5" fill="none" />
<circle cx="520.7840719999999" cy="401.600802" r="5" fill="black" stroke="none" />
<circle cx="472.7840719999999" cy="457.600802" r="5" fill="black" stroke="none" />
<path d="M472.7840719999999,457.600802 L488.3722353783347,481.88531750630074" stroke="grey" stroke-width="5" />
<circle cx="488.3722353783347" cy="481.88531750630074" r="2.5" fill="grey" stroke="none" />
<path d="M488.3722353783347,481.88531750630074 A21.525487960656918,21.525487960656918,0,0,1,520.7840719999999,505.600802" stroke="grey" stroke-width="5" fill="none" />
<circle cx="472.7840719999999" cy="457.600802" r="5" fill="black" stroke="none" />
<circle cx="520.7840719999999" cy="505.600802" r="5" fill="black" stroke="none" />
<path d="M520.7840719999999,505.600802 A21.525487960656918,21.525487960656918,0,0,1,506.88154883407975,520.3958554022272" stroke="grey" stroke-width="5" fill="none" />
<path d="M506.88154883407975,520.3958554022272 L20.784071999999952,61.60080199999999" stroke="grey" stroke-width="5" />
<circle cx="506.88154883407975" cy="520.3958554022272" r="2.5" fill="grey" stroke="none" />
<circle cx="520.7840719999999" cy="505.600802" r="5" fill="black" stroke="none" />
<circle cx="520.7840719999999" cy="561.6008019999999" r="5" fill="black" stroke="none" />
<path d="M520.7840719999999,561.6008019999999 A65.01258690395564,65.01258690395564,0,0,0,535.6315958989707,554.3785419962401" stroke="grey" stroke-width="5" fill="none" />
<path d="M535.6315958989707,554.3785419962401 L92.78407199999995,141.600802" stroke="grey" stroke-width="5" />
<circle cx="535.6315958989707" cy="554.3785419962401" r="2.5" fill="grey" stroke="none" />
<circle cx="520.7840719999999" cy="561.6008019999999" r="5" fill="black" stroke="none" />
<circle cx="592.7840719999999" cy="641.6008019999999" r="5" fill="black" stroke="none" />
<path d="M568.7840719999999,401.600802 L549.7520688588812,428.8270738819491" stroke="grey" stroke-width="5" />
<circle cx="549.7520688588812" cy="428.8270738819491" r="2.5" fill="grey" stroke="none" />
<path d="M549.7520688588812,428.8270738819491 A86.8380893844653,86.8380893844653,0,0,0,544.7840719999999,425.600802" stroke="grey" stroke-width="5" fill="none" />
<circle cx="568.7840719999999" cy="401.600802" r="5" fill="black" stroke="none" />
<circle cx="544.7840719999999" cy="425.600802" r="5" fill="black" stroke="none" />
<path d="M544.7840719999999,425.600802 L524.3519408388561,459.5444365096067" stroke="grey" stroke-width="5" />
<circle cx="524.3519408388561" cy="459.5444365096067" r="2.5" fill="grey" stroke="none" />
<path d="M524.3519408388561,459.5444365096067 A47.2193778013263,47.2193778013263,0,0,0,520.7840719999999,457.600802" stroke="grey" stroke-width="5" fill="none" />
<circle cx="544.7840719999999" cy="425.600802" r="5" fill="black" stroke="none" />
<circle cx="520.7840719999999" cy="457.600802" r="5" fill="black" stroke="none" />
<path d="M520.7840719999999,457.600802 L509.4746545261945,480.67184557300806" stroke="grey" stroke-width="5" />
<circle cx="509.4746545261945" cy="480.67184557300806" r="2.5" fill="grey" stroke="none" />
<path d="M509.4746545261945,480.67184557300806 A21.525487960656918,21.525487960656918,0,0,1,520.7840719999999,505.600802" stroke="grey" stroke-width="5" fill="none" />
<circle cx="520.7840719999999" cy="457.600802" r="5" fill="black" stroke="none" />
<circle cx="520.7840719999999" cy="505.600802" r="5" fill="black" stroke="none" />
<path d="M520.7840719999999,401.600802 L517.9461489747998,415.0365401780349" stroke="grey" stroke-width="5" />
<circle cx="517.9461489747998" cy="415.0365401780349" r="2.5" fill="grey" stroke="none" />
<path d="M517.9461489747998,415.0365401780349 A86.8380893844653,86.8380893844653,0,0,1,544.7840719999999,425.600802" stroke="grey" stroke-width="5" fill="none" />
<circle cx="520.7840719999999" cy="401.600802" r="5" fill="black" stroke="none" />
<circle cx="544.7840719999999" cy="425.600802" r="5" fill="black" stroke="none" />
<path d="M472.7840719999999,457.600802 L474.4927589256587,460.262734206795" stroke="grey" stroke-width="5" />
<circle cx="474.4927589256587" cy="460.262734206795" r="2.5" fill="grey" stroke="none" />
<path d="M474.4927589256587,460.262734206795 A47.2193778013263,47.2193778013263,0,0,1,520.7840719999999,457.600802" stroke="grey" stroke-width="5" fill="none" />
<circle cx="472.7840719999999" cy="457.600802" r="5" fill="black" stroke="none" />
<circle cx="520.7840719999999" cy="457.600802" r="5" fill="black" stroke="none" />
<path d="M568.7840719999999,401.600802 L546.2937372605745,433.77439737991597" stroke="grey" stroke-width="5" />
<circle cx="546.2937372605745" cy="433.77439737991597" r="2.5" fill="grey" stroke="none" />
<path d="M546.2937372605745,433.77439737991597 A80.80185982973649,80.80185982973649,0,0,1,568.7840719999999,457.600802" stroke="grey" stroke-width="5" fill="none" />
<circle cx="568.7840719999999" cy="401.600802" r="5" fill="black" stroke="none" />
<circle cx="568.7840719999999" cy="457.600802" r="5" fill="black" stroke="none" />
<path d="M544.7840719999999,425.600802 L541.6710723830846,430.77238789046595" stroke="grey" stroke-width="5" />
<circle cx="541.6710723830846" cy="430.77238789046595" r="2.5" fill="grey" stroke="none" />
<path d="M541.6710723830846,430.77238789046595 A80.80185982973649,80.80185982973649,0,0,1,568.7840719999999,457.600802" stroke="grey" stroke-width="5" fill="none" />
<circle cx="544.7840719999999" cy="425.600802" r="5" fill="black" stroke="none" />
<circle cx="568.7840719999999" cy="457.600802" r="5" fill="black" stroke="none" />
<path d="M520.7840719999999,457.600802 A47.2193778013263,47.2193778013263,0,0,1,540.1963653971035,475.2225536261921" stroke="grey" stroke-width="5" fill="none" />
<path d="M540.1963653971035,475.2225536261921 L68.78407199999995,-42.39919800000001" stroke="grey" stroke-width="5" />
<circle cx="540.1963653971035" cy="475.2225536261921" r="2.5" fill="grey" stroke="none" />
<circle cx="520.7840719999999" cy="457.600802" r="5" fill="black" stroke="none" />
<circle cx="568.7840719999999" cy="457.600802" r="5" fill="black" stroke="none" />
<path d="M520.7840719999999,505.600802 A21.525487960656918,21.525487960656918,0,0,0,518.3239682457911,488.70492055487773" stroke="grey" stroke-width="5" fill="none" />
<path d="M518.3239682457911,488.70492055487773 L68.78407199999995,-42.39919800000001" stroke="grey" stroke-width="5" />
<circle cx="518.3239682457911" cy="488.70492055487773" r="2.5" fill="grey" stroke="none" />
<circle cx="520.7840719999999" cy="505.600802" r="5" fill="black" stroke="none" />
<circle cx="568.7840719999999" cy="457.600802" r="5" fill="black" stroke="none" />
<path d="M568.7840719999999,457.600802 L563.7454900344296,460.7066349084885" stroke="grey" stroke-width="5" />
<circle cx="563.7454900344296" cy="460.7066349084885" r="2.5" fill="grey" stroke="none" />
<path d="M563.7454900344296,460.7066349084885 A74.88294892660399,74.88294892660399,0,0,1,568.7840719999999,529.6008019999999" stroke="grey" stroke-width="5" fill="none" />
<circle cx="568.7840719999999" cy="457.600802" r="5" fill="black" stroke="none" />
<circle cx="568.7840719999999" cy="529.6008019999999" r="5" fill="black" stroke="none" />
<path d="M568.7840719999999,529.6008019999999 L559.717606245595,525.6991042692241" stroke="grey" stroke-width="5" />
<circle cx="559.717606245595" cy="525.6991042692241" r="2.5" fill="grey" stroke="none" />
<path d="M559.717606245595,525.6991042692241 A65.01258690395564,65.01258690395564,0,0,1,520.7840719999999,561.6008019999999" stroke="grey" stroke-width="5" fill="none" />
<circle cx="568.7840719999999" cy="529.6008019999999" r="5" fill="black" stroke="none" />
<circle cx="520.7840719999999" cy="561.6008019999999" r="5" fill="black" stroke="none" />
<path d="M568.7840719999999,401.600802 A120.05686455985924,120.05686455985924,0,0,1,577.9495196190267,408.6899615644186" stroke="grey" stroke-width="5" fill="none" />
<path d="M577.9495196190267,408.6899615644186 L172.78407199999995,-202.399198" stroke="grey" stroke-width="5" />
<circle cx="577.9495196190267" cy="408.6899615644186" r="2.5" fill="grey" stroke="none" />
<circle cx="568.7840719999999" cy="401.600802" r="5" fill="black" stroke="none" />
<circle cx="672.7840719999999" cy="297.600802" r="5" fill="black" stroke="none" />
<path d="M568.7840719999999,401.600802 A120.05686455985924,120.05686455985924,0,0,1,612.2987967813757,457.5425981788844" stroke="grey" stroke-width="5" fill="none" />
<path d="M612.2987967813757,457.5425981788844 L196.78407199999995,-74.39919800000001" stroke="grey" stroke-width="5" />
<circle cx="612.2987967813757" cy="457.5425981788844" r="2.5" fill="grey" stroke="none" />
<circle cx="568.7840719999999" cy="401.600802" r="5" fill="black" stroke="none" />
<circle cx="696.7840719999999" cy="425.600802" r="5" fill="black" stroke="none" />
<path d="M696.7840719999999,425.600802 A210.37873384908556,210.37873384908556,0,0,1,703.5472820417751,446.8237305807332" stroke="grey" stroke-width="5" fill="none" />
<path d="M703.5472820417751,446.8237305807332 L284.7840719999999,-74.39919800000001" stroke="grey" stroke-width="5" />
<circle cx="703.5472820417751" cy="446.8237305807332" r="2.5" fill="grey" stroke="none" />
<circle cx="696.7840719999999" cy="425.600802" r="5" fill="black" stroke="none" />
<circle cx="784.7840719999999" cy="425.600802" r="5" fill="black" stroke="none" />
<path d="M568.7840719999999,457.600802 A80.80185982973649,80.80185982973649,0,0,1,573.2983279047094,534.0043479325524" stroke="grey" stroke-width="5" fill="none" />
<path d="M573.2983279047095,534.0043479325524 L132.78407199999995,61.60080199999999" stroke="grey" stroke-width="5" />
<circle cx="573.2983279047095" cy="534.0043479325524" r="2.5" fill="grey" stroke="none" />
<circle cx="568.7840719999999" cy="457.600802" r="5" fill="black" stroke="none" />
<circle cx="632.7840719999999" cy="561.6008019999999" r="5" fill="black" stroke="none" />
<circle cx="500" cy="500" r="5" fill="red" stroke="none" />
</svg>