<?xml version="1.0" encoding="UTF-8"?>
<svg xmlns="http://www.w3.org/2000/svg" xmlns:xlink="http://www.w3.org/1999/xlink"
     width="1000" height="1000" viewBox="0 0 1000 1000">
<defs>
</defs>
<rect x="0" y="0" width="1000" height="1000" fill="white" />
<path d="M278.78909600000003,665.8761860000001 L393.8052728986372,579.630687214609" stroke="grey" stroke-width="5" />
<circle cx="393.8052728986372" cy="579.630687214609" r="2.5" fill="grey" stroke="none" />
<path d="M393.8052728986372,579.630687214609 A132.7341945785027,132.7341945785027,0,0,0,398.7890960000001,585.8761860000001" stroke="grey" stroke-width="5" fill="none" />
<circle cx="278.78909600000003" cy="665.8761860000001" r="5" fill="black" stroke="none" />
<circle cx="398.78909600000003" cy="585.8761860000001" r="5" fill="black" stroke="none" />
<path d="M398.78909600000003,585.8761860000001 L419.53377064237475,568.2745890604247" stroke="grey" stroke-width="5" />
<circle cx="419.53377064237475" cy="568.2745890604247" r="2.5" fill="grey" stroke="none" />
<path d="M419.5337706423748,568.2745890604247 A105.52835438119847,105.52835438119847,0,0,1,398.78909600000003,529.8761860000001" stroke="grey" stroke-width="5" fill="none" />
<circle cx="398.78909600000003" cy="585.8761860000001" r="5" fill="black" stroke="none" />
<circle cx="398.78909600000003" cy="529.8761860000001" r="5" fill="black" stroke="none" />
<path d="M398.78909600000003,529.8761860000001 A105.52835438119847,105.52835438119847,0,0,1,395.57255325090165,515.2033530468789" stroke="grey" stroke-width="5" fill="none" />
<path d="M395.57255325090165,515.2033530468789 L294.78909600000003,529.8761860000001" stroke="grey" stroke-width="5" />
<circle cx="395.57255325090165" cy="515.2033530468789" r="2.5" fill="grey" stroke="none" />
<circle cx="398.78909600000003" cy="529.8761860000001" r="5" fill="black" stroke="none" />
<circle cx="294.78909600000003" cy="529.8761860000001" r="5" fill="black" stroke="none" />
<path d="M294.78909600000003,529.8761860000001 L320.8117762110679,526.0876035267978" stroke="grey" stroke-width="5" />
<circle cx="320.8117762110679" cy="526.0876035267978" r="2.5" fill="grey" stroke="none" />
<path d="M320.8117762110679,526.0876035267978 A181.07728350735712,181.07728350735712,0,0,1,334.78909600000003,425.8761860000001" stroke="grey" stroke-width="5" fill="none" />
<circle cx="294.78909600000003" cy="529.8761860000001" r="5" fill="black" stroke="none" />
<circle cx="334.78909600000003" cy="425.8761860000001" r="5" fill="black" stroke="none" />
<path d="M334.78909600000003,425.8761860000001 L344.3184678056793,430.15165067066744" stroke="grey" stroke-width="5" />
<circle cx="344.3184678056793" cy="430.15165067066744" r="2.5" fill="grey" stroke="none" />
<path d="M344.3184678056793,430.15165067066744 A170.63273827259465,170.63273827259465,0,0,1,446.78909600000003,337.8761860000001" stroke="grey" stroke-width="5" fill="none" />
<circle cx="334.78909600000003" cy="425.8761860000001" r="5" fill="black" stroke="none" />
<circle cx="446.78909600000003" cy="337.8761860000001" r="5" fill="black" stroke="none" />
<path d="M446.78909600000003,337.8761860000001 L456.89618802837424,368.67063196710905" stroke="grey" stroke-width="5" />
<circle cx="456.89618802837424" cy="368.67063196710905" r="2.5" fill="grey" stroke="none" />
<path d="M456.89618802837424,368.67063196710905 A138.2220731808194,138.2220731808194,0,0,1,494.789096,361.8761860000001" stroke="grey" stroke-width="5" fill="none" />
<circle cx="446.78909600000003" cy="337.8761860000001" r="5" fill="black" stroke="none" />
<circle cx="494.78909600000003" cy="361.8761860000001" r="5" fill="black" stroke="none" />
<path d="M494.789096,361.8761860000001 A138.2220731808194,138.2220731808194,0,0,0,447.6827470530754,372.06155168014857" stroke="grey" stroke-width="5" fill="none" />
<path d="M447.68274705307533,372.06155168014857 L446.78909600000003,369.8761860000001" stroke="grey" stroke-width="5" />
<circle cx="447.68274705307533" cy="372.06155168014857" r="2.5" fill="grey" stroke="none" />
<circle cx="494.78909600000003" cy="361.8761860000001" r="5" fill="black" stroke="none" />
<circle cx="446.78909600000003" cy="369.8761860000001" r="5" fill="black" stroke="none" />
<path d="M446.78909600000003,337.8761860000001 L456.1599152925125,366.4273446874545" stroke="grey" stroke-width="5" />
<circle cx="456.1599152925125" cy="366.4273446874545" r="2.5" fill="grey" stroke="none" />
<path d="M456.1599152925125,366.4273446874545 A140.5830973993808,140.5830973993808,0,0,0,446.7890960000001,369.8761860000001" stroke="grey" stroke-width="5" fill="none" />
<circle cx="446.78909600000003" cy="337.8761860000001" r="5" fill="black" stroke="none" />
<circle cx="446.78909600000003" cy="369.8761860000001" r="5" fill="black" stroke="none" />
<path d="M446.78909600000003,369.8761860000001 L461.08217455543695,404.8289824312552" stroke="grey" stroke-width="5" />
<circle cx="461.08217455543695" cy="404.8289824312552" r="2.5" fill="grey" stroke="none" />
<path d="M461.08217455543695,404.8289824312552 A102.82081366340087,102.82081366340087,0,0,0,398.78909600000003,481.8761860000001" stroke="grey" stroke-width="5" fill="none" />
<circle cx="446.78909600000003" cy="369.8761860000001" r="5" fill="black" stroke="none" />
<circle cx="398.78909600000003" cy="481.8761860000001" r="5" fill="black" stroke="none" />
<path d="M334.78909600000003,425.8761860000001 L406.18856630541495,457.91039759548346" stroke="grey" stroke-width="5" />
<circle cx="406.18856630541495" cy="457.91039759548346" r="2.5" fill="grey" stroke="none" />
<path d="M406.18856630541495,457.91039759548346 A102.82081366340087,102.82081366340087,0,0,0,398.78909600000003,481.8761860000001" stroke="grey" stroke-width="5" fill="none" />
<circle cx="334.78909600000003" cy="425.8761860000001" r="5" fill="black" stroke="none" />
<circle cx="398.78909600000003" cy="481.8761860000001" r="5" fill="black" stroke="none" />
<path d="M398.78909600000003,481.8761860000001 A102.82081366340087,102.82081366340087,0,0,0,401.3858639044366,529.1096527723967" stroke="grey" stroke-width="5" fill="none" />
<path d="M401.3858639044366,529.1096527723967 L398.78909600000003,529.8761860000001" stroke="grey" stroke-width="5" />
<circle cx="401.3858639044366" cy="529.1096527723967" r="2.5" fill="grey" stroke="none" />
<circle cx="398.78909600000003" cy="481.8761860000001" r="5" fill="black" stroke="none" />
<circle cx="398.78909600000003" cy="529.8761860000001" r="5" fill="black" stroke="none" />
<path d="M494.789096,361.8761860000001 A138.2220731808194,138.2220731808194,0,0,1,526.4953381128304,364.3410947534568" stroke="grey" stroke-width="5" fill="none" />
<path d="M526.4953381128304,364.3410947534568 L534.789096,321.8761860000001" stroke="grey" stroke-width="5" />
<circle cx="526.4953381128304" cy="364.3410947534568" r="2.5" fill="grey" stroke="none" />
<circle cx="494.78909600000003" cy="361.8761860000001" r="5" fill="black" stroke="none" />
<circle cx="534.789096" cy="321.8761860000001" r="5" fill="black" stroke="none" />
<path d="M494.78909600000003,361.8761860000001 L496.7733876438061,414.4731883494617" stroke="grey" stroke-width="5" />
<circle cx="496.7733876438061" cy="414.4731883494617" r="2.5" fill="grey" stroke="none" />
<path d="M496.773387643806,414.4731883494617 A85.58765412373332,85.58765412373332,0,0,1,542.7890960000001,425.8761860000001" stroke="grey" stroke-width="5" fill="none" />
<circle cx="494.78909600000003" cy="361.8761860000001" r="5" fill="black" stroke="none" />
<circle cx="542.789096" cy="425.8761860000001" r="5" fill="black" stroke="none" />
<path d="M446.78909600000003,369.8761860000001 L471.8747879712053,431.22161843472077" stroke="grey" stroke-width="5" />
<circle cx="471.8747879712053" cy="431.22161843472077" r="2.5" fill="grey" stroke="none" />
<path d="M471.8747879712053,431.22161843472077 A74.3067515263842,74.3067515263842,0,0,1,494.78909600000003,425.8761860000001" stroke="grey" stroke-width="5" fill="none" />
<circle cx="446.78909600000003" cy="369.8761860000001" r="5" fill="black" stroke="none" />
<circle cx="494.78909600000003" cy="425.8761860000001" r="5" fill="black" stroke="none" />
<path d="M398.78909600000003,481.8761860000001 L444.66740002051074,490.09160366589884" stroke="grey" stroke-width="5" />
<circle cx="444.66740002051074" cy="490.09160366589884" r="2.5" fill="grey" stroke="none" />
<path d="M444.66740002051074,490.09160366589884 A56.212747116679914,56.212747116679914,0,0,1,446.78909600000003,481.8761860000001" stroke="grey" stroke-width="5" fill="none" />
<circle cx="398.78909600000003" cy="481.8761860000001" r="5" fill="black" stroke="none" />
<circle cx="446.78909600000003" cy="481.8761860000001" r="5" fill="black" stroke="none" />
<path d="M398.78909600000003,529.8761860000001 L470.9135527418722,508.5859534301069" stroke="grey" stroke-width="5" />
<circle cx="470.9135527418722" cy="508.5859534301069" r="2.5" fill="grey" stroke="none" />
<path d="M470.9135527418722,508.5859534301069 A30.327215671799088,30.327215671799088,0,0,0,494.78909600000003,529.8761860000001" stroke="grey" stroke-width="5" fill="none" />
<circle cx="398.78909600000003" cy="529.8761860000001" r="5" fill="black" stroke="none" />
<circle cx="494.78909600000003" cy="529.8761860000001" r="5" fill="black" stroke="none" />
<path d="M398.78909600000003,585.8761860000001 L434.39826960348654,555.6622476314691" stroke="grey" stroke-width="5" />
<circle cx="434.39826960348654" cy="555.6622476314691" r="2.5" fill="grey" stroke="none" />
<path d="M434.3982696034866,555.6622476314692 A86.0341376571174,86.0341376571174,0,0,0,494.78909600000003,585.8761860000001" stroke="grey" stroke-width="5" fill="none" />
<circle cx="398.78909600000003" cy="585.8761860000001" r="5" fill="black" stroke="none" />
<circle cx="494.78909600000003" cy="585.8761860000001" r="5" fill="black" stroke="none" />
<path d="M542.789096,425.8761860000001 L537.1492682801423,435.6460942237862" stroke="grey" stroke-width="5" />
<circle cx="537.1492682801423" cy="435.6460942237862" r="2.5" fill="grey" stroke="none" />
<path d="M537.1492682801423,435.6460942237862 A74.3067515263842,74.3067515263842,0,0,0,494.78909600000003,425.8761860000001" stroke="grey" stroke-width="5" fill="none" />
<circle cx="542.789096" cy="425.8761860000001" r="5" fill="black" stroke="none" />
<circle cx="494.78909600000003" cy="425.8761860000001" r="5" fill="black" stroke="none" />
<path d="M494.78909600000003,425.8761860000001 L496.0579728923113,443.9256443578167" stroke="grey" stroke-width="5" />
<circle cx="496.0579728923113" cy="443.9256443578167" r="2.5" fill="grey" stroke="none" />
<path d="M496.0579728923113,443.9256443578167 A56.212747116679914,56.212747116679914,0,0,0,446.78909600000003,481.8761860000001" stroke="grey" stroke-width="5" fill="none" />
<circle cx="494.78909600000003" cy="425.8761860000001" r="5" fill="black" stroke="none" />
<circle cx="446.78909600000003" cy="481.8761860000001" r="5" fill="black" stroke="none" />
<path d="M446.78909600000003,481.8761860000001 L471.29230211165833,490.2220609351704" stroke="grey" stroke-width="5" />
<circle cx="471.29230211165833" cy="490.2220609351704" r="2.5" fill="grey" stroke="none" />
<path d="M471.29230211165833,490.2220609351704 A30.327215671799088,30.327215671799088,0,0,0,494.78909600000003,529.8761860000001" stroke="grey" stroke-width="5" fill="none" />
<circle cx="446.78909600000003" cy="481.8761860000001" r="5" fill="black" stroke="none" />
<circle cx="494.78909600000003" cy="529.8761860000001" r="5" fill="black" stroke="none" />
<path d="M494.78909600000003,529.8761860000001 A30.327215671799088,30.327215671799088,0,0,0,498.1631453077049,530.271537378257" stroke="grey" stroke-width="5" fill="none" />
<path d="M498.1631453077049,530.271537378257 L494.78909600000003,585.8761860000001" stroke="grey" stroke-width="5" />
<circle cx="498.1631453077049" cy="530.271537378257" r="2.5" fill="grey" stroke="none" />
<circle cx="494.78909600000003" cy="529.8761860000001" r="5" fill="black" stroke="none" />
<circle cx="494.78909600000003" cy="585.8761860000001" r="5" fill="black" stroke="none" />
<path d="M494.78909600000003,585.8761860000001 A86.0341376571174,86.0341376571174,0,0,0,532.134118906554,579.8077141916949" stroke="grey" stroke-width="5" fill="none" />
<path d="M532.134118906554,579.8077141916949 L566.789096,665.8761860000001" stroke="grey" stroke-width="5" />
<circle cx="532.134118906554" cy="579.8077141916949" r="2.5" fill="grey" stroke="none" />
<circle cx="494.78909600000003" cy="585.8761860000001" r="5" fill="black" stroke="none" />
<circle cx="566.789096" cy="665.8761860000001" r="5" fill="black" stroke="none" />
<path d="M542.789096,425.8761860000001 L526.7618820348565,453.64022726159857" stroke="grey" stroke-width="5" />
<circle cx="526.7618820348565" cy="453.64022726159857" r="2.5" fill="grey" stroke="none" />
<path d="M526.7618820348565,453.64022726159857 A53.529682031596316,53.529682031596316,0,0,0,518.789096,449.8761860000001" stroke="grey" stroke-width="5" fill="none" />
<circle cx="542.789096" cy="425.8761860000001" r="5" fill="black" stroke="none" />
<circle cx="518.789096" cy="449.8761860000001" r="5" fill="black" stroke="none" />
<path d="M518.789096,449.8761860000001 L506.6192390928657,482.34180563491026" stroke="grey" stroke-width="5" />
<circle cx="506.6192390928657" cy="482.34180563491026" r="2.5" fill="grey" stroke="none" />
<path d="M506.6192390928657,482.34180563491026 A18.858052773385936,18.858052773385936,0,0,0,494.78909600000003,481.8761860000001" stroke="grey" stroke-width="5" fill="none" />
<circle cx="518.789096" cy="449.8761860000001" r="5" fill="black" stroke="none" />
<circle cx="494.78909600000003" cy="481.8761860000001" r="5" fill="black" stroke="none" />
<path d="M494.78909600000003,481.8761860000001 A18.858052773385936,18.858052773385936,0,0,0,496.759758505611,518.5775937478955" stroke="grey" stroke-width="5" fill="none" />
<path d="M496.759758505611,518.5775937478955 L494.78909600000003,529.8761860000001" stroke="grey" stroke-width="5" />
<circle cx="496.759758505611" cy="518.5775937478955" r="2.5" fill="grey" stroke="none" />
<circle cx="494.78909600000003" cy="481.8761860000001" r="5" fill="black" stroke="none" />
<circle cx="494.78909600000003" cy="529.8761860000001" r="5" fill="black" stroke="none" />
<path d="M494.78909600000003,425.8761860000001 L496.2461279966178,446.6021039423272" stroke="grey" stroke-width="5" />
<circle cx="496.2461279966178" cy="446.6021039423272" r="2.5" fill="grey" stroke="none" />
<path d="M496.2461279966178,446.6021039423272 A53.529682031596316,53.529682031596316,0,0,1,518.789096,449.8761860000001" stroke="grey" stroke-width="5" fill="none" />
<circle cx="494.78909600000003" cy="425.8761860000001" r="5" fill="black" stroke="none" />
<circle cx="518.789096" cy="449.8761860000001" r="5" fill="black" stroke="none" />
<path d="M446.78909600000003,481.8761860000001 L482.1489948948996,493.91988724269953" stroke="grey" stroke-width="5" />
<circle cx="482.1489948948996" cy="493.91988724269953" r="2.5" fill="grey" stroke="none" />
<path d="M482.1489948948996,493.91988724269953 A18.858052773385936,18.858052773385936,0,0,1,494.78909600000003,481.8761860000001" stroke="grey" stroke-width="5" fill="none" />
<circle cx="446.78909600000003" cy="481.8761860000001" r="5" fill="black" stroke="none" />
<circle cx="494.78909600000003" cy="481.8761860000001" r="5" fill="black" stroke="none" />
<path d="M542.789096,425.8761860000001 L523.2319926900452,459.7550762697518" stroke="grey" stroke-width="5" />
<circle cx="523.2319926900452" cy="459.7550762697518" r="2.5" fill="grey" stroke="none" />
<path d="M523.2319926900452,459.7550762697518 A46.46912276344166,46.46912276344166,0,0,1,542.789096,481.8761860000001" stroke="grey" stroke-width="5" fill="none" />
<circle cx="542.789096" cy="425.8761860000001" r="5" fill="black" stroke="none" />
<circle cx="542.789096" cy="481.8761860000001" r="5" fill="black" stroke="none" />
<path d="M518.789096,449.8761860000001 L516.3108162705456,456.4875116432958" stroke="grey" stroke-width="5" />
<circle cx="516.3108162705456" cy="456.4875116432958" r="2.5" fill="grey" stroke="none" />
<path d="M516.3108162705456,456.4875116432958 A46.46912276344166,46.46912276344166,0,0,1,542.789096,481.8761860000001" stroke="grey" stroke-width="5" fill="none" />
<circle cx="518.789096" cy="449.8761860000001" r="5" fill="black" stroke="none" />
<circle cx="542.789096" cy="481.8761860000001" r="5" fill="black" stroke="none" />
<path d="M494.78909600000003,481.8761860000001 A18.858052773385936,18.858052773385936,0,0,1,517.364628004734,492.64501198770387" stroke="grey" stroke-width="5" fill="none" />
<path d="M517.364628004734,492.6450119877039 L542.789096,481.8761860000001" stroke="grey" stroke-width="5" />
<circle cx="517.364628004734" cy="492.6450119877039" r="2.5" fill="grey" stroke="none" />
<circle cx="494.78909600000003" cy="481.8761860000001" r="5" fill="black" stroke="none" />
<circle cx="542.789096" cy="481.8761860000001" r="5" fill="black" stroke="none" />
<path d="M494.78909600000003,529.8761860000001 A30.327215671799088,30.327215671799088,0,0,0,527.9255140967332,488.1718271556013" stroke="grey" stroke-width="5" fill="none" />
<path d="M527.9255140967332,488.1718271556013 L542.789096,481.8761860000001" stroke="grey" stroke-width="5" />
<circle cx="527.9255140967332" cy="488.1718271556013" r="2.5" fill="grey" stroke="none" />
<circle cx="494.78909600000003" cy="529.8761860000001" r="5" fill="black" stroke="none" />
<circle cx="542.789096" cy="481.8761860000001" r="5" fill="black" stroke="none" />
<path d="M542.789096,481.8761860000001 A46.46912276344166,46.46912276344166,0,0,1,528.9004159758041,536.3888077137641" stroke="grey" stroke-width="5" fill="none" />
<path d="M528.9004159758041,536.3888077137641 L542.789096,553.8761860000001" stroke="grey" stroke-width="5" />
<circle cx="528.9004159758041" cy="536.3888077137641" r="2.5" fill="grey" stroke="none" />
<circle cx="542.789096" cy="481.8761860000001" r="5" fill="black" stroke="none" />
<circle cx="542.789096" cy="553.8761860000001" r="5" fill="black" stroke="none" />
<path d="M542.789096,553.8761860000001 A68.80080053606805,68.80080053606805,0,0,1,495.83288242923487,568.6744878798178" stroke="grey" stroke-width="5" fill="none" />
<path d="M495.83288242923487,568.6744878798178 L494.78909600000003,585.8761860000001" stroke="grey" stroke-width="5" />
<circle cx="495.83288242923487" cy="568.6744878798178" r="2.5" fill="grey" stroke="none" />
<circle cx="542.789096" cy="553.8761860000001" r="5" fill="black" stroke="none" />
<circle cx="494.78909600000003" cy="585.8761860000001" r="5" fill="black" stroke="none" />
<path d="M542.7890960000001,425.8761860000001 A85.58765412373332,85.58765412373332,0,0,1,554.4305411802203,433.95030109658217" stroke="grey" stroke-width="5" fill="none" />
<path d="M554.4305411802203,433.95030109658217 L646.789096,321.8761860000001" stroke="grey" stroke-width="5" />
<circle cx="554.4305411802203" cy="433.95030109658217" r="2.5" fill="grey" stroke="none" />
<circle cx="542.789096" cy="425.8761860000001" r="5" fill="black" stroke="none" />
<circle cx="646.789096" cy="321.8761860000001" r="5" fill="black" stroke="none" />
<path d="M542.7890960000001,425.8761860000001 A85.58765412373332,85.58765412373332,0,0,1,582.1239222565897,475.8979683097582" stroke="grey" stroke-width="5" fill="none" />
<path d="M582.1239222565897,475.8979683097582 L670.789096,449.8761860000001" stroke="grey" stroke-width="5" />
<circle cx="582.1239222565897" cy="475.8979683097582" r="2.5" fill="grey" stroke="none" />
<circle cx="542.789096" cy="425.8761860000001" r="5" fill="black" stroke="none" />
<circle cx="670.789096" cy="449.8761860000001" r="5" fill="black" stroke="none" />
<path d="M670.789096,449.8761860000001 A177.99244939716914,177.99244939716914,0,0,1,674.7449139760865,466.15436391654094" stroke="grey" stroke-width="5" fill="none" />
<path d="M674.7449139760865,466.15436391654094 L758.789096,449.8761860000001" stroke="grey" stroke-width="5" />
<circle cx="674.7449139760865" cy="466.15436391654094" r="2.5" fill="grey" stroke="none" />
<circle cx="670.789096" cy="449.8761860000001" r="5" fill="black" stroke="none" />
<circle cx="758.789096" cy="449.8761860000001" r="5" fill="black" stroke="none" />
<path d="M542.789096,481.8761860000001 A46.46912276344166,46.46912276344166,0,0,1,536.2125766611034,529.1209316809666" stroke="grey" stroke-width="5" fill="none" />
<path d="M536.2125766611034,529.1209316809666 L606.789096,585.8761860000001" stroke="grey" stroke-width="5" />
<circle cx="536.2125766611034" cy="529.1209316809666" r="2.5" fill="grey" stroke="none" />
<circle cx="542.789096" cy="481.8761860000001" r="5" fill="black" stroke="none" />
<circle cx="606.789096" cy="585.8761860000001" r="5" fill="black" stroke="none" />
<circle cx="500" cy="500" r="5" fill="red" stroke="none" />
</svg>