<?xml version="1.0" encoding="UTF-8"?>
<svg xmlns="http://www.w3.org/2000/svg" xmlns:xlink="http://www.w3.org/1999/xlink"
     width="1000" height="1000" viewBox="0 0 1000 1000">
<defs>
</defs>
<rect x="0" y="0" width="1000" height="1000" fill="white" />
<path d="M354.718976,617.892016 L464.6291526809422,528.7025819564152" stroke="grey" stroke-width="5" />
<circle cx="464.6291526809422" cy="528.7025819564152" r="2.5" fill="grey" stroke="none" />
<path d="M464.6291526809422,528.7025819564152 A45.55145498261096,45.55145498261096,0,0,0,474.718976,537.892016" stroke="grey" stroke-width="5" fill="none" />
<circle cx="354.718976" cy="617.892016" r="5" fill="black" stroke="none" />
<circle cx="474.718976" cy="537.892016" r="5" fill="black" stroke="none" />
<path d="M474.718976,537.892016 L482.7411356764754,525.8681437543362" stroke="grey" stroke-width="5" />
<circle cx="482.7411356764754" cy="525.8681437543362" r="2.5" fill="grey" stroke="none" />
<path d="M482.7411356764754,525.8681437543362 A31.097094060905945,31.097094060905945,0,0,1,474.718976,481.892016" stroke="grey" stroke-width="5" fill="none" />
<circle cx="474.718976" cy="537.892016" r="5" fill="black" stroke="none" />
<circle cx="474.718976" cy="481.892016" r="5" fill="black" stroke="none" />
<path d="M474.718976,481.892016 A31.097094060905945,31.097094060905945,0,0,0,469.2035322421761,495.6864361979745" stroke="grey" stroke-width="5" fill="none" />
<path d="M469.2035322421761,495.6864361979745 L370.718976,481.892016" stroke="grey" stroke-width="5" />
<circle cx="469.2035322421761" cy="495.6864361979745" r="2.5" fill="grey" stroke="none" />
<circle cx="474.718976" cy="481.892016" r="5" fill="black" stroke="none" />
<circle cx="370.718976" cy="481.892016" r="5" fill="black" stroke="none" />
<path d="M370.718976,481.892016 A130.5430283509343,130.5430283509343,0,0,1,422.95029674399245,394.6205642490243" stroke="grey" stroke-width="5" fill="none" />
<path d="M422.95029674399245,394.6205642490243 L410.718976,377.892016" stroke="grey" stroke-width="5" />
<circle cx="422.95029674399245" cy="394.6205642490243" r="2.5" fill="grey" stroke="none" />
<circle cx="370.718976" cy="481.892016" r="5" fill="black" stroke="none" />
<circle cx="410.718976" cy="377.892016" r="5" fill="black" stroke="none" />
<path d="M410.718976,377.892016 A151.2661925316851,151.2661925316851,0,0,1,516.2616232089331,349.61043715189703" stroke="grey" stroke-width="5" fill="none" />
<path d="M516.2616232089331,349.61043715189703 L522.718976,289.892016" stroke="grey" stroke-width="5" />
<circle cx="516.2616232089331" cy="349.61043715189703" r="2.5" fill="grey" stroke="none" />
<circle cx="410.718976" cy="377.892016" r="5" fill="black" stroke="none" />
<circle cx="522.718976" cy="289.892016" r="5" fill="black" stroke="none" />
<path d="M522.718976,289.892016 L521.4029852948242,302.06246567287354" stroke="grey" stroke-width="5" />
<circle cx="521.4029852948242" cy="302.06246567287354" r="2.5" fill="grey" stroke="none" />
<path d="M521.4029852948242,302.06246567287354 A199.0913239572052,199.0913239572052,0,0,1,570.718976,313.892016" stroke="grey" stroke-width="5" fill="none" />
<circle cx="522.718976" cy="289.892016" r="5" fill="black" stroke="none" />
<circle cx="570.718976" cy="313.892016" r="5" fill="black" stroke="none" />
<path d="M570.718976,313.892016 L563.7781261308805,332.1579419148278" stroke="grey" stroke-width="5" />
<circle cx="563.7781261308805" cy="332.1579419148278" r="2.5" fill="grey" stroke="none" />
<path d="M563.7781261308805,332.1579419148278 A179.55112317953578,179.55112317953578,0,0,0,522.7189760000001,321.892016" stroke="grey" stroke-width="5" fill="none" />
<circle cx="570.718976" cy="313.892016" r="5" fill="black" stroke="none" />
<circle cx="522.718976" cy="321.892016" r="5" fill="black" stroke="none" />
<path d="M522.718976,289.892016 L519.3023481520813,321.48942554893654" stroke="grey" stroke-width="5" />
<circle cx="519.3023481520813" cy="321.48942554893654" r="2.5" fill="grey" stroke="none" />
<path d="M519.3023481520813,321.48942554893654 A179.55112317953578,179.55112317953578,0,0,1,522.7189760000001,321.892016" stroke="grey" stroke-width="5" fill="none" />
<circle cx="522.718976" cy="289.892016" r="5" fill="black" stroke="none" />
<circle cx="522.718976" cy="321.892016" r="5" fill="black" stroke="none" />
<path d="M522.718976,321.892016 L508.9555713207536,429.7917849154978" stroke="grey" stroke-width="5" />
<circle cx="508.9555713207536" cy="429.7917849154978" r="2.5" fill="grey" stroke="none" />
<path d="M508.9555713207536,429.7917849154978 A70.77708473109662,70.77708473109662,0,0,0,474.718976,433.892016" stroke="grey" stroke-width="5" fill="none" />
<circle cx="522.718976" cy="321.892016" r="5" fill="black" stroke="none" />
<circle cx="474.718976" cy="433.892016" r="5" fill="black" stroke="none" />
<path d="M410.718976,377.892016 L458.2256253379059,442.8659703449527" stroke="grey" stroke-width="5" />
<circle cx="458.2256253379059" cy="442.8659703449527" r="2.5" fill="grey" stroke="none" />
<path d="M458.2256253379059,442.8659703449527 A70.77708473109662,70.77708473109662,0,0,1,474.718976,433.892016" stroke="grey" stroke-width="5" fill="none" />
<circle cx="410.718976" cy="377.892016" r="5" fill="black" stroke="none" />
<circle cx="474.718976" cy="433.892016" r="5" fill="black" stroke="none" />
<path d="M474.718976,433.892016 L488.8923599457239,470.95435331314735" stroke="grey" stroke-width="5" />
<circle cx="488.8923599457239" cy="470.95435331314735" r="2.5" fill="grey" stroke="none" />
<path d="M488.8923599457239,470.95435331314735 A31.097094060905945,31.097094060905945,0,0,0,474.718976,481.892016" stroke="grey" stroke-width="5" fill="none" />
<circle cx="474.718976" cy="433.892016" r="5" fill="black" stroke="none" />
<circle cx="474.718976" cy="481.892016" r="5" fill="black" stroke="none" />
<path d="M570.718976,313.892016 A199.0913239572052,199.0913239572052,0,0,1,587.5560670754875,321.19482559694876" stroke="grey" stroke-width="5" fill="none" />
<path d="M587.5560670754875,321.19482559694876 L610.718976,273.892016" stroke="grey" stroke-width="5" />
<circle cx="587.5560670754875" cy="321.19482559694876" r="2.5" fill="grey" stroke="none" />
<circle cx="570.718976" cy="313.892016" r="5" fill="black" stroke="none" />
<circle cx="610.718976" cy="273.892016" r="5" fill="black" stroke="none" />
<path d="M570.718976,313.892016 L560.4946171227871,340.7990065414156" stroke="grey" stroke-width="5" />
<circle cx="560.4946171227871" cy="340.7990065414156" r="2.5" fill="grey" stroke="none" />
<path d="M560.4946171227871,340.7990065414156 A170.30723713052487,170.30723713052487,0,0,1,618.718976,377.892016" stroke="grey" stroke-width="5" fill="none" />
<circle cx="570.718976" cy="313.892016" r="5" fill="black" stroke="none" />
<circle cx="618.718976" cy="377.892016" r="5" fill="black" stroke="none" />
<path d="M522.718976,321.892016 L517.8547173324392,360.02592242843133" stroke="grey" stroke-width="5" />
<circle cx="517.8547173324392" cy="360.02592242843133" r="2.5" fill="grey" stroke="none" />
<path d="M517.8547173324392,360.02592242843133 A141.10823265505394,141.10823265505394,0,0,1,570.718976,377.892016" stroke="grey" stroke-width="5" fill="none" />
<circle cx="522.718976" cy="321.892016" r="5" fill="black" stroke="none" />
<circle cx="570.718976" cy="377.892016" r="5" fill="black" stroke="none" />
<path d="M474.718976,433.892016 L475.031222898665,434.70851825010647" stroke="grey" stroke-width="5" />
<circle cx="475.031222898665" cy="434.70851825010647" r="2.5" fill="grey" stroke="none" />
<path d="M475.031222898665,434.70851825010647 A69.90291423848386,69.90291423848386,0,0,1,522.718976,433.892016" stroke="grey" stroke-width="5" fill="none" />
<circle cx="474.718976" cy="433.892016" r="5" fill="black" stroke="none" />
<circle cx="522.718976" cy="433.892016" r="5" fill="black" stroke="none" />
<path d="M474.718976,481.892016 A31.097094060905945,31.097094060905945,0,0,1,530.1252007947737,492.2862761193184" stroke="grey" stroke-width="5" fill="none" />
<path d="M530.1252007947737,492.2862761193184 L570.718976,481.892016" stroke="grey" stroke-width="5" />
<circle cx="530.1252007947737" cy="492.2862761193184" r="2.5" fill="grey" stroke="none" />
<circle cx="474.718976" cy="481.892016" r="5" fill="black" stroke="none" />
<circle cx="570.718976" cy="481.892016" r="5" fill="black" stroke="none" />
<path d="M474.718976,537.892016 A45.55145498261096,45.55145498261096,0,0,0,540.1510761292477,521.5133943555217" stroke="grey" stroke-width="5" fill="none" />
<path d="M540.1510761292477,521.5133943555217 L570.718976,537.892016" stroke="grey" stroke-width="5" />
<circle cx="540.1510761292477" cy="521.5133943555217" r="2.5" fill="grey" stroke="none" />
<circle cx="474.718976" cy="537.892016" r="5" fill="black" stroke="none" />
<circle cx="570.718976" cy="537.892016" r="5" fill="black" stroke="none" />
<path d="M618.718976,377.892016 L598.3647269971194,398.8273070151091" stroke="grey" stroke-width="5" />
<circle cx="598.3647269971194" cy="398.8273070151091" r="2.5" fill="grey" stroke="none" />
<path d="M598.3647269971194,398.8273070151091 A141.10823265505394,141.10823265505394,0,0,0,570.718976,377.892016" stroke="grey" stroke-width="5" fill="none" />
<circle cx="618.718976" cy="377.892016" r="5" fill="black" stroke="none" />
<circle cx="570.718976" cy="377.892016" r="5" fill="black" stroke="none" />
<path d="M570.718976,377.892016 L535.0331261425827,439.50952561178974" stroke="grey" stroke-width="5" />
<circle cx="535.0331261425827" cy="439.50952561178974" r="2.5" fill="grey" stroke="none" />
<path d="M535.0331261425827,439.50952561178974 A69.90291423848386,69.90291423848386,0,0,0,522.718976,433.892016" stroke="grey" stroke-width="5" fill="none" />
<circle cx="570.718976" cy="377.892016" r="5" fill="black" stroke="none" />
<circle cx="522.718976" cy="433.892016" r="5" fill="black" stroke="none" />
<path d="M522.718976,433.892016 A69.90291423848386,69.90291423848386,0,0,1,567.7182029758064,482.66038048974787" stroke="grey" stroke-width="5" fill="none" />
<path d="M567.7182029758064,482.66038048974787 L570.718976,481.892016" stroke="grey" stroke-width="5" />
<circle cx="567.7182029758064" cy="482.66038048974787" r="2.5" fill="grey" stroke="none" />
<circle cx="522.718976" cy="433.892016" r="5" fill="black" stroke="none" />
<circle cx="570.718976" cy="481.892016" r="5" fill="black" stroke="none" />
<path d="M570.718976,481.892016 A73.00049760811793,73.00049760811793,0,0,1,564.3458817738186,534.4772410407589" stroke="grey" stroke-width="5" fill="none" />
<path d="M564.3458817738186,534.4772410407589 L570.718976,537.892016" stroke="grey" stroke-width="5" />
<circle cx="564.3458817738186" cy="534.4772410407589" r="2.5" fill="grey" stroke="none" />
<circle cx="570.718976" cy="481.892016" r="5" fill="black" stroke="none" />
<circle cx="570.718976" cy="537.892016" r="5" fill="black" stroke="none" />
<path d="M570.718976,537.892016 A80.23078239075593,80.23078239075593,0,0,1,561.8561985121967,551.0958819148133" stroke="grey" stroke-width="5" fill="none" />
<path d="M561.8561985121967,551.0958819148133 L642.718976,617.892016" stroke="grey" stroke-width="5" />
<circle cx="561.8561985121967" cy="551.0958819148133" r="2.5" fill="grey" stroke="none" />
<circle cx="570.718976" cy="537.892016" r="5" fill="black" stroke="none" />
<circle cx="642.718976" cy="617.892016" r="5" fill="black" stroke="none" />
<path d="M618.718976,377.892016 L595.0619809855722,402.22433477530546" stroke="grey" stroke-width="5" />
<circle cx="595.0619809855722" cy="402.22433477530546" r="2.5" fill="grey" stroke="none" />
<path d="M595.0619809855722,402.22433477530546 A136.3703081283929,136.3703081283929,0,0,0,594.718976,401.892016" stroke="grey" stroke-width="5" fill="none" />
<circle cx="618.718976" cy="377.892016" r="5" fill="black" stroke="none" />
<circle cx="594.718976" cy="401.892016" r="5" fill="black" stroke="none" />
<path d="M594.718976,401.892016 L567.2388561116916,430.35536385460784" stroke="grey" stroke-width="5" />
<circle cx="567.2388561116916" cy="430.35536385460784" r="2.5" fill="grey" stroke="none" />
<path d="M567.2388561116916,430.35536385460784 A96.80619357785342,96.80619357785342,0,0,1,570.718976,433.892016" stroke="grey" stroke-width="5" fill="none" />
<circle cx="594.718976" cy="401.892016" r="5" fill="black" stroke="none" />
<circle cx="570.718976" cy="433.892016" r="5" fill="black" stroke="none" />
<path d="M570.718976,433.892016 L553.328410585473,450.1486883275872" stroke="grey" stroke-width="5" />
<circle cx="553.328410585473" cy="450.1486883275872" r="2.5" fill="grey" stroke="none" />
<path d="M553.328410585473,450.1486883275872 A73.00049760811793,73.00049760811793,0,0,1,570.718976,481.892016" stroke="grey" stroke-width="5" fill="none" />
<circle cx="570.718976" cy="433.892016" r="5" fill="black" stroke="none" />
<circle cx="570.718976" cy="481.892016" r="5" fill="black" stroke="none" />
<path d="M570.718976,377.892016 L568.3444783212584,381.99197814543345" stroke="grey" stroke-width="5" />
<circle cx="568.3444783212584" cy="381.99197814543345" r="2.5" fill="grey" stroke="none" />
<path d="M568.3444783212584,381.99197814543345 A136.3703081283929,136.3703081283929,0,0,1,594.718976,401.892016" stroke="grey" stroke-width="5" fill="none" />
<circle cx="570.718976" cy="377.892016" r="5" fill="black" stroke="none" />
<circle cx="594.718976" cy="401.892016" r="5" fill="black" stroke="none" />
<path d="M522.718976,433.892016 A69.90291423848386,69.90291423848386,0,0,1,551.0655602875839,452.263997113835" stroke="grey" stroke-width="5" fill="none" />
<path d="M551.0655602875839,452.263997113835 L570.718976,433.892016" stroke="grey" stroke-width="5" />
<circle cx="551.0655602875839" cy="452.263997113835" r="2.5" fill="grey" stroke="none" />
<circle cx="522.718976" cy="433.892016" r="5" fill="black" stroke="none" />
<circle cx="570.718976" cy="433.892016" r="5" fill="black" stroke="none" />
<path d="M618.718976,377.892016 L594.7229802141245,402.57301282299954" stroke="grey" stroke-width="5" />
<circle cx="594.7229802141245" cy="402.57301282299954" r="2.5" fill="grey" stroke="none" />
<path d="M594.7229802141245,402.57301282299954 A135.88399762677292,135.88399762677292,0,0,1,618.718976,433.892016" stroke="grey" stroke-width="5" fill="none" />
<circle cx="618.718976" cy="377.892016" r="5" fill="black" stroke="none" />
<circle cx="618.718976" cy="433.892016" r="5" fill="black" stroke="none" />
<path d="M594.718976,401.892016 L594.3811984195012,402.2418791305214" stroke="grey" stroke-width="5" />
<circle cx="594.3811984195012" cy="402.2418791305214" r="2.5" fill="grey" stroke="none" />
<path d="M594.3811984195012,402.2418791305214 A135.88399762677292,135.88399762677292,0,0,1,618.718976,433.892016" stroke="grey" stroke-width="5" fill="none" />
<circle cx="594.718976" cy="401.892016" r="5" fill="black" stroke="none" />
<circle cx="618.718976" cy="433.892016" r="5" fill="black" stroke="none" />
<path d="M570.718976,433.892016 A96.80619357785342,96.80619357785342,0,0,1,584.5775247471535,452.9034882111481" stroke="grey" stroke-width="5" fill="none" />
<path d="M584.5775247471535,452.9034882111481 L618.718976,433.892016" stroke="grey" stroke-width="5" />
<circle cx="584.5775247471535" cy="452.9034882111481" r="2.5" fill="grey" stroke="none" />
<circle cx="570.718976" cy="433.892016" r="5" fill="black" stroke="none" />
<circle cx="618.718976" cy="433.892016" r="5" fill="black" stroke="none" />
<path d="M570.718976,481.892016 A73.00049760811793,73.00049760811793,0,0,0,563.7789914551253,464.48503273266476" stroke="grey" stroke-width="5" fill="none" />
<path d="M563.7789914551253,464.48503273266476 L618.718976,433.892016" stroke="grey" stroke-width="5" />
<circle cx="563.7789914551253" cy="464.48503273266476" r="2.5" fill="grey" stroke="none" />
<circle cx="570.718976" cy="481.892016" r="5" fill="black" stroke="none" />
<circle cx="618.718976" cy="433.892016" r="5" fill="black" stroke="none" />
<path d="M618.718976,433.892016 L603.8499216953518,442.1717639997369" stroke="grey" stroke-width="5" />
<circle cx="603.8499216953518" cy="442.1717639997369" r="2.5" fill="grey" stroke="none" />
<path d="M603.8499216953518,442.1717639997369 A118.86509628580137,118.86509628580137,0,0,1,618.718976,505.892016" stroke="grey" stroke-width="5" fill="none" />
<circle cx="618.718976" cy="433.892016" r="5" fill="black" stroke="none" />
<circle cx="618.718976" cy="505.892016" r="5" fill="black" stroke="none" />
<path d="M618.718976,505.892016 L580.1321550794651,503.9769542810299" stroke="grey" stroke-width="5" />
<circle cx="580.1321550794651" cy="503.9769542810299" r="2.5" fill="grey" stroke="none" />
<path d="M580.1321550794651,503.9769542810299 A80.23078239075593,80.23078239075593,0,0,1,570.718976,537.892016" stroke="grey" stroke-width="5" fill="none" />
<circle cx="618.718976" cy="505.892016" r="5" fill="black" stroke="none" />
<circle cx="570.718976" cy="537.892016" r="5" fill="black" stroke="none" />
<path d="M618.718976,377.892016 A170.30723713052487,170.30723713052487,0,0,1,619.5126857413326,378.66874695311884" stroke="grey" stroke-width="5" fill="none" />
<path d="M619.5126857413326,378.66874695311884 L722.718976,273.892016" stroke="grey" stroke-width="5" />
<circle cx="619.5126857413326" cy="378.66874695311884" r="2.5" fill="grey" stroke="none" />
<circle cx="618.718976" cy="377.892016" r="5" fill="black" stroke="none" />
<circle cx="722.718976" cy="273.892016" r="5" fill="black" stroke="none" />
<path d="M618.718976,377.892016 A170.30723713052487,170.30723713052487,0,0,1,658.254175092976,437.0701097674997" stroke="grey" stroke-width="5" fill="none" />
<path d="M658.254175092976,437.0701097674997 L746.718976,401.892016" stroke="grey" stroke-width="5" />
<circle cx="658.254175092976" cy="437.0701097674997" r="2.5" fill="grey" stroke="none" />
<circle cx="618.718976" cy="377.892016" r="5" fill="black" stroke="none" />
<circle cx="746.718976" cy="401.892016" r="5" fill="black" stroke="none" />
<path d="M746.718976,401.892016 A265.5097543274688,265.5097543274688,0,0,1,754.7905955342129,425.3194665903225" stroke="grey" stroke-width="5" fill="none" />
<path d="M754.7905955342129,425.3194665903225 L834.718976,401.892016" stroke="grey" stroke-width="5" />
<circle cx="754.7905955342129" cy="425.3194665903225" r="2.5" fill="grey" stroke="none" />
<circle cx="746.718976" cy="401.892016" r="5" fill="black" stroke="none" />
<circle cx="834.718976" cy="401.892016" r="5" fill="black" stroke="none" />
<path d="M618.718976,433.892016 A135.88399762677292,135.88399762677292,0,0,1,633.0530795616108,527.5923690574855" stroke="grey" stroke-width="5" fill="none" />
<path d="M633.0530795616108,527.5923690574855 L682.718976,537.892016" stroke="grey" stroke-width="5" />
<circle cx="633.0530795616108" cy="527.5923690574855" r="2.5" fill="grey" stroke="none" />
<circle cx="618.718976" cy="433.892016" r="5" fill="black" stroke="none" />
<circle cx="682.718976" cy="537.892016" r="5" fill="black" stroke="none" />
<circle cx="500" cy="500" r="5" fill="red" stroke="none" />
</svg>