<?xml version="1.0" encoding="UTF-8"?>
<svg xmlns="http://www.w3.org/2000/svg" xmlns:xlink="http://www.w3.org/1999/xlink"
     width="1000" height="1000" viewBox="0 0 1000 1000">
<defs>
</defs>
<rect x="0" y="0" width="1000" height="1000" fill="white" />
<path d="M264.483656,683.782146 L377.5740648900315,595.5335018302031" stroke="grey" stroke-width="5" />
<circle cx="377.5740648900315" cy="595.5335018302031" r="2.5" fill="grey" stroke="none" />
<path d="M377.5740648900314,595.5335018302031 A155.28927702675307,155.28927702675307,0,0,0,384.483656,603.782146" stroke="grey" stroke-width="5" fill="none" />
<circle cx="264.483656" cy="683.782146" r="5" fill="black" stroke="none" />
<circle cx="384.483656" cy="603.782146" r="5" fill="black" stroke="none" />
<path d="M384.483656,603.782146 L407.0087713907742,583.5451411467977" stroke="grey" stroke-width="5" />
<circle cx="407.0087713907742" cy="583.5451411467977" r="2.5" fill="grey" stroke="none" />
<path d="M407.0087713907742,583.5451411467977 A125.0086365316079,125.0086365316079,0,0,1,384.483656,547.782146" stroke="grey" stroke-width="5" fill="none" />
<circle cx="384.483656" cy="603.782146" r="5" fill="black" stroke="none" />
<circle cx="384.483656" cy="547.782146" r="5" fill="black" stroke="none" />
<path d="M384.483656,547.782146 A125.0086365316079,125.0086365316079,0,0,1,377.85158865456674,526.5880577191808" stroke="grey" stroke-width="5" fill="none" />
<path d="M377.85158865456674,526.5880577191808 L280.483656,547.782146" stroke="grey" stroke-width="5" />
<circle cx="377.85158865456674" cy="526.5880577191808" r="2.5" fill="grey" stroke="none" />
<circle cx="384.483656" cy="547.782146" r="5" fill="black" stroke="none" />
<circle cx="280.483656" cy="547.782146" r="5" fill="black" stroke="none" />
<path d="M280.483656,547.782146 L316.1909004614287,540.0097462915132" stroke="grey" stroke-width="5" />
<circle cx="316.1909004614287" cy="540.0097462915132" r="2.5" fill="grey" stroke="none" />
<path d="M316.1909004614287,540.0097462915132 A188.11317038286197,188.11317038286197,0,0,1,320.483656,443.78214599999995" stroke="grey" stroke-width="5" fill="none" />
<circle cx="280.483656" cy="547.782146" r="5" fill="black" stroke="none" />
<circle cx="320.483656" cy="443.782146" r="5" fill="black" stroke="none" />
<path d="M320.483656,443.782146 L348.03770810309214,452.41105211364066" stroke="grey" stroke-width="5" />
<circle cx="348.03770810309214" cy="452.41105211364066" r="2.5" fill="grey" stroke="none" />
<path d="M348.03770810309214,452.41105211364066 A159.23958716189782,159.23958716189782,0,0,1,432.483656,355.782146" stroke="grey" stroke-width="5" fill="none" />
<circle cx="320.483656" cy="443.782146" r="5" fill="black" stroke="none" />
<circle cx="432.483656" cy="355.782146" r="5" fill="black" stroke="none" />
<path d="M432.483656,355.782146 L448.3612649920207,389.6974109539248" stroke="grey" stroke-width="5" />
<circle cx="448.3612649920207" cy="389.6974109539248" r="2.5" fill="grey" stroke="none" />
<path d="M448.3612649920207,389.6974109539248 A121.79170786014807,121.79170786014807,0,0,1,480.48365600000005,379.782146" stroke="grey" stroke-width="5" fill="none" />
<circle cx="432.483656" cy="355.782146" r="5" fill="black" stroke="none" />
<circle cx="480.483656" cy="379.782146" r="5" fill="black" stroke="none" />
<path d="M480.48365600000005,379.782146 A121.79170786014807,121.79170786014807,0,0,0,437.2117943201407,395.6407103751883" stroke="grey" stroke-width="5" fill="none" />
<path d="M437.2117943201407,395.64071037518823 L432.483656,387.782146" stroke="grey" stroke-width="5" />
<circle cx="437.2117943201407" cy="395.64071037518823" r="2.5" fill="grey" stroke="none" />
<circle cx="480.483656" cy="379.782146" r="5" fill="black" stroke="none" />
<circle cx="432.483656" cy="387.782146" r="5" fill="black" stroke="none" />
<path d="M432.483656,355.782146 L444.472714918784,381.39129848530916" stroke="grey" stroke-width="5" />
<circle cx="444.472714918784" cy="381.39129848530916" r="2.5" fill="grey" stroke="none" />
<path d="M444.472714918784,381.39129848530916 A130.9629850892673,130.9629850892673,0,0,0,432.483656,387.782146" stroke="grey" stroke-width="5" fill="none" />
<circle cx="432.483656" cy="355.782146" r="5" fill="black" stroke="none" />
<circle cx="432.483656" cy="387.782146" r="5" fill="black" stroke="none" />
<path d="M432.483656,387.782146 L440.4468744853231,401.0176862620155" stroke="grey" stroke-width="5" />
<circle cx="440.4468744853231" cy="401.0176862620155" r="2.5" fill="grey" stroke="none" />
<path d="M440.44687448532306,401.0176862620155 A115.516549426875,115.516549426875,0,0,0,384.483656,499.78214599999995" stroke="grey" stroke-width="5" fill="none" />
<circle cx="432.483656" cy="387.782146" r="5" fill="black" stroke="none" />
<circle cx="384.483656" cy="499.782146" r="5" fill="black" stroke="none" />
<path d="M320.483656,443.782146 L389.7625903470651,465.4777361040347" stroke="grey" stroke-width="5" />
<circle cx="389.7625903470651" cy="465.4777361040347" r="2.5" fill="grey" stroke="none" />
<path d="M389.7625903470651,465.4777361040347 A115.516549426875,115.516549426875,0,0,0,384.483656,499.78214599999995" stroke="grey" stroke-width="5" fill="none" />
<circle cx="320.483656" cy="443.782146" r="5" fill="black" stroke="none" />
<circle cx="384.483656" cy="499.782146" r="5" fill="black" stroke="none" />
<path d="M384.483656,499.78214599999995 A115.516549426875,115.516549426875,0,0,0,393.25497956364075,544.1539783432127" stroke="grey" stroke-width="5" fill="none" />
<path d="M393.2549795636407,544.1539783432127 L384.483656,547.782146" stroke="grey" stroke-width="5" />
<circle cx="393.2549795636407" cy="544.1539783432127" r="2.5" fill="grey" stroke="none" />
<circle cx="384.483656" cy="499.782146" r="5" fill="black" stroke="none" />
<circle cx="384.483656" cy="547.782146" r="5" fill="black" stroke="none" />
<path d="M480.48365600000005,379.782146 A121.79170786014807,121.79170786014807,0,0,1,515.4452037021994,379.191615414785" stroke="grey" stroke-width="5" fill="none" />
<path d="M515.4452037021994,379.191615414785 L520.483656,339.782146" stroke="grey" stroke-width="5" />
<circle cx="515.4452037021994" cy="379.191615414785" r="2.5" fill="grey" stroke="none" />
<circle cx="480.483656" cy="379.782146" r="5" fill="black" stroke="none" />
<circle cx="520.483656" cy="339.782146" r="5" fill="black" stroke="none" />
<path d="M480.483656,379.782146 L489.90113519869334,437.79245466009303" stroke="grey" stroke-width="5" />
<circle cx="489.90113519869334" cy="437.79245466009303" r="2.5" fill="grey" stroke="none" />
<path d="M489.9011351986934,437.79245466009303 A63.02194671296381,63.02194671296381,0,0,1,528.483656,443.782146" stroke="grey" stroke-width="5" fill="none" />
<circle cx="480.483656" cy="379.782146" r="5" fill="black" stroke="none" />
<circle cx="528.483656" cy="443.782146" r="5" fill="black" stroke="none" />
<path d="M432.483656,387.782146 L469.3208131288701,449.0086057807992" stroke="grey" stroke-width="5" />
<circle cx="469.3208131288701" cy="449.0086057807992" r="2.5" fill="grey" stroke="none" />
<path d="M469.3208131288701,449.00860578079926 A59.50911519667933,59.50911519667933,0,0,1,480.483656,443.782146" stroke="grey" stroke-width="5" fill="none" />
<circle cx="432.483656" cy="387.782146" r="5" fill="black" stroke="none" />
<circle cx="480.483656" cy="443.782146" r="5" fill="black" stroke="none" />
<path d="M384.483656,499.782146 L432.4834245949143,499.87266948114024" stroke="grey" stroke-width="5" />
<circle cx="432.4834245949143" cy="499.87266948114024" r="2.5" fill="grey" stroke="none" />
<path d="M432.4834245949143,499.87266948114024 A67.5166954722434,67.5166954722434,0,0,1,432.483656,499.78214599999995" stroke="grey" stroke-width="5" fill="none" />
<circle cx="384.483656" cy="499.782146" r="5" fill="black" stroke="none" />
<circle cx="432.483656" cy="499.782146" r="5" fill="black" stroke="none" />
<path d="M384.483656,547.782146 L452.3050660160772,519.7285182353085" stroke="grey" stroke-width="5" />
<circle cx="452.3050660160772" cy="519.7285182353085" r="2.5" fill="grey" stroke="none" />
<path d="M452.3050660160772,519.7285182353085 A51.61415658026055,51.61415658026055,0,0,0,480.483656,547.782146" stroke="grey" stroke-width="5" fill="none" />
<circle cx="384.483656" cy="547.782146" r="5" fill="black" stroke="none" />
<circle cx="480.483656" cy="547.782146" r="5" fill="black" stroke="none" />
<path d="M384.483656,603.782146 L421.4455164357917,570.574886634356" stroke="grey" stroke-width="5" />
<circle cx="421.4455164357917" cy="570.574886634356" r="2.5" fill="grey" stroke="none" />
<path d="M421.4455164357917,570.574886634356 A105.60123821003074,105.60123821003074,0,0,0,480.483656,603.782146" stroke="grey" stroke-width="5" fill="none" />
<circle cx="384.483656" cy="603.782146" r="5" fill="black" stroke="none" />
<circle cx="480.483656" cy="603.782146" r="5" fill="black" stroke="none" />
<path d="M528.483656,443.782146 L526.8959823447966,446.91571866173524" stroke="grey" stroke-width="5" />
<circle cx="526.8959823447966" cy="446.91571866173524" r="2.5" fill="grey" stroke="none" />
<path d="M526.8959823447966,446.91571866173524 A59.50911519667933,59.50911519667933,0,0,0,480.483656,443.782146" stroke="grey" stroke-width="5" fill="none" />
<circle cx="528.483656" cy="443.782146" r="5" fill="black" stroke="none" />
<circle cx="480.483656" cy="443.782146" r="5" fill="black" stroke="none" />
<path d="M480.483656,443.782146 A59.50911519667933,59.50911519667933,0,0,0,440.4911945904344,499.8079838076882" stroke="grey" stroke-width="5" fill="none" />
<path d="M440.4911945904344,499.8079838076882 L432.483656,499.782146" stroke="grey" stroke-width="5" />
<circle cx="440.4911945904344" cy="499.8079838076882" r="2.5" fill="grey" stroke="none" />
<circle cx="480.483656" cy="443.782146" r="5" fill="black" stroke="none" />
<circle cx="432.483656" cy="499.782146" r="5" fill="black" stroke="none" />
<path d="M432.483656,499.782146 L448.3861121079991,499.8334582226072" stroke="grey" stroke-width="5" />
<circle cx="448.3861121079991" cy="499.8334582226072" r="2.5" fill="grey" stroke="none" />
<path d="M448.3861121079991,499.8334582226072 A51.61415658026055,51.61415658026055,0,0,0,480.483656,547.782146" stroke="grey" stroke-width="5" fill="none" />
<circle cx="432.483656" cy="499.782146" r="5" fill="black" stroke="none" />
<circle cx="480.483656" cy="547.782146" r="5" fill="black" stroke="none" />
<path d="M480.483656,547.782146 A51.61415658026055,51.61415658026055,0,0,0,490.46110015218983,550.725048538026" stroke="grey" stroke-width="5" fill="none" />
<path d="M490.46110015218983,550.725048538026 L480.483656,603.782146" stroke="grey" stroke-width="5" />
<circle cx="490.46110015218983" cy="550.725048538026" r="2.5" fill="grey" stroke="none" />
<circle cx="480.483656" cy="547.782146" r="5" fill="black" stroke="none" />
<circle cx="480.483656" cy="603.782146" r="5" fill="black" stroke="none" />
<path d="M480.483656,603.782146 A105.60123821003074,105.60123821003074,0,0,0,528.9978507030637,601.541844409556" stroke="grey" stroke-width="5" fill="none" />
<path d="M528.9978507030637,601.541844409556 L552.483656,683.782146" stroke="grey" stroke-width="5" />
<circle cx="528.9978507030637" cy="601.541844409556" r="2.5" fill="grey" stroke="none" />
<circle cx="480.483656" cy="603.782146" r="5" fill="black" stroke="none" />
<circle cx="552.483656" cy="683.782146" r="5" fill="black" stroke="none" />
<path d="M528.483656,443.782146 L514.7016438464544,470.9835399177698" stroke="grey" stroke-width="5" />
<circle cx="514.7016438464544" cy="470.9835399177698" r="2.5" fill="grey" stroke="none" />
<path d="M514.7016438464544,470.9835399177698 A32.52834590771027,32.52834590771027,0,0,0,504.483656,467.782146" stroke="grey" stroke-width="5" fill="none" />
<circle cx="528.483656" cy="443.782146" r="5" fill="black" stroke="none" />
<circle cx="504.483656" cy="467.782146" r="5" fill="black" stroke="none" />
<path d="M504.483656,467.782146 L502.69026973241097,480.6687405413272" stroke="grey" stroke-width="5" />
<circle cx="502.69026973241097" cy="480.6687405413272" r="2.5" fill="grey" stroke="none" />
<path d="M502.69026973241097,480.6687405413272 A19.517559875446832,19.517559875446832,0,0,0,480.483656,499.782146" stroke="grey" stroke-width="5" fill="none" />
<circle cx="504.483656" cy="467.782146" r="5" fill="black" stroke="none" />
<circle cx="480.483656" cy="499.782146" r="5" fill="black" stroke="none" />
<path d="M480.483656,499.782146 A19.517559875446832,19.517559875446832,0,0,0,492.6200205949797,518.0685098298982" stroke="grey" stroke-width="5" fill="none" />
<path d="M492.6200205949797,518.0685098298982 L480.483656,547.782146" stroke="grey" stroke-width="5" />
<circle cx="492.6200205949797" cy="518.0685098298982" r="2.5" fill="grey" stroke="none" />
<circle cx="480.483656" cy="499.782146" r="5" fill="black" stroke="none" />
<circle cx="480.483656" cy="547.782146" r="5" fill="black" stroke="none" />
<path d="M480.483656,443.782146 L489.3321487575858,469.2706941607629" stroke="grey" stroke-width="5" />
<circle cx="489.3321487575858" cy="469.2706941607629" r="2.5" fill="grey" stroke="none" />
<path d="M489.3321487575858,469.2706941607629 A32.52834590771027,32.52834590771027,0,0,1,504.483656,467.782146" stroke="grey" stroke-width="5" fill="none" />
<circle cx="480.483656" cy="443.782146" r="5" fill="black" stroke="none" />
<circle cx="504.483656" cy="467.782146" r="5" fill="black" stroke="none" />
<path d="M432.483656,499.782146 L480.4825417272828,499.9370233027644" stroke="grey" stroke-width="5" />
<circle cx="480.4825417272828" cy="499.9370233027644" r="2.5" fill="grey" stroke="none" />
<path d="M480.4825417272828,499.9370233027644 A19.517559875446832,19.517559875446832,0,0,1,480.483656,499.782146" stroke="grey" stroke-width="5" fill="none" />
<circle cx="432.483656" cy="499.782146" r="5" fill="black" stroke="none" />
<circle cx="480.483656" cy="499.782146" r="5" fill="black" stroke="none" />
<path d="M528.483656,443.782146 L512.8739658369688,474.59080632683884" stroke="grey" stroke-width="5" />
<circle cx="512.8739658369688" cy="474.59080632683884" r="2.5" fill="grey" stroke="none" />
<path d="M512.8739658369688,474.59080632683884 A28.484489103574454,28.484489103574454,0,0,1,528.483656,499.782146" stroke="grey" stroke-width="5" fill="none" />
<circle cx="528.483656" cy="443.782146" r="5" fill="black" stroke="none" />
<circle cx="528.483656" cy="499.782146" r="5" fill="black" stroke="none" />
<path d="M504.483656,467.782146 L503.9262571431861,471.7874030912213" stroke="grey" stroke-width="5" />
<circle cx="503.9262571431861" cy="471.7874030912213" r="2.5" fill="grey" stroke="none" />
<path d="M503.9262571431861,471.7874030912213 A28.484489103574454,28.484489103574454,0,0,1,528.483656,499.782146" stroke="grey" stroke-width="5" fill="none" />
<circle cx="504.483656" cy="467.782146" r="5" fill="black" stroke="none" />
<circle cx="528.483656" cy="499.782146" r="5" fill="black" stroke="none" />
<path d="M480.483656,499.782146 A19.517559875446832,19.517559875446832,0,0,1,519.5169890332303,499.850726531424" stroke="grey" stroke-width="5" fill="none" />
<path d="M519.5169890332303,499.850726531424 L528.483656,499.782146" stroke="grey" stroke-width="5" />
<circle cx="519.5169890332303" cy="499.850726531424" r="2.5" fill="grey" stroke="none" />
<circle cx="480.483656" cy="499.782146" r="5" fill="black" stroke="none" />
<circle cx="528.483656" cy="499.782146" r="5" fill="black" stroke="none" />
<path d="M480.483656,547.782146 L489.2294454691871,526.3697037258752" stroke="grey" stroke-width="5" />
<circle cx="489.2294454691871" cy="526.3697037258752" r="2.5" fill="grey" stroke="none" />
<path d="M489.2294454691871,526.3697037258752 A28.484489103574454,28.484489103574454,0,0,0,528.483656,499.782146" stroke="grey" stroke-width="5" fill="none" />
<circle cx="480.483656" cy="547.782146" r="5" fill="black" stroke="none" />
<circle cx="528.483656" cy="499.782146" r="5" fill="black" stroke="none" />
<path d="M528.483656,499.782146 A28.484489103574454,28.484489103574454,0,0,1,510.5059547498186,526.4762352740418" stroke="grey" stroke-width="5" fill="none" />
<path d="M510.5059547498186,526.4762352740418 L528.483656,571.782146" stroke="grey" stroke-width="5" />
<circle cx="510.5059547498186" cy="526.4762352740418" r="2.5" fill="grey" stroke="none" />
<circle cx="528.483656" cy="499.782146" r="5" fill="black" stroke="none" />
<circle cx="528.483656" cy="571.782146" r="5" fill="black" stroke="none" />
<path d="M528.483656,571.782146 A77.2269068621271,77.2269068621271,0,0,1,485.727564317195,575.8965923027631" stroke="grey" stroke-width="5" fill="none" />
<path d="M485.727564317195,575.8965923027631 L480.483656,603.782146" stroke="grey" stroke-width="5" />
<circle cx="485.727564317195" cy="575.8965923027631" r="2.5" fill="grey" stroke="none" />
<circle cx="528.483656" cy="571.782146" r="5" fill="black" stroke="none" />
<circle cx="480.483656" cy="603.782146" r="5" fill="black" stroke="none" />
<path d="M528.483656,443.782146 A63.02194671296381,63.02194671296381,0,0,1,540.1608871203981,451.43181171595666" stroke="grey" stroke-width="5" fill="none" />
<path d="M540.1608871203981,451.43181171595666 L632.483656,339.782146" stroke="grey" stroke-width="5" />
<circle cx="540.1608871203981" cy="451.43181171595666" r="2.5" fill="grey" stroke="none" />
<circle cx="528.483656" cy="443.782146" r="5" fill="black" stroke="none" />
<circle cx="632.483656" cy="339.782146" r="5" fill="black" stroke="none" />
<path d="M528.483656,443.782146 A63.02194671296381,63.02194671296381,0,0,1,561.7272404484825,487.291201704847" stroke="grey" stroke-width="5" fill="none" />
<path d="M561.7272404484825,487.291201704847 L656.483656,467.782146" stroke="grey" stroke-width="5" />
<circle cx="561.7272404484825" cy="487.291201704847" r="2.5" fill="grey" stroke="none" />
<circle cx="528.483656" cy="443.782146" r="5" fill="black" stroke="none" />
<circle cx="656.483656" cy="467.782146" r="5" fill="black" stroke="none" />
<path d="M656.483656,467.782146 A159.7658433817806,159.7658433817806,0,0,1,658.3964266226217,479.1266498933191" stroke="grey" stroke-width="5" fill="none" />
<path d="M658.3964266226217,479.1266498933191 L744.483656,467.782146" stroke="grey" stroke-width="5" />
<circle cx="658.3964266226217" cy="479.1266498933191" r="2.5" fill="grey" stroke="none" />
<circle cx="656.483656" cy="467.782146" r="5" fill="black" stroke="none" />
<circle cx="744.483656" cy="467.782146" r="5" fill="black" stroke="none" />
<path d="M528.483656,499.782146 A28.484489103574454,28.484489103574454,0,0,1,518.9507042517123,521.2658629699288" stroke="grey" stroke-width="5" fill="none" />
<path d="M518.9507042517123,521.2658629699288 L592.483656,603.782146" stroke="grey" stroke-width="5" />
<circle cx="518.9507042517123" cy="521.2658629699288" r="2.5" fill="grey" stroke="none" />
<circle cx="528.483656" cy="499.782146" r="5" fill="black" stroke="none" />
<circle cx="592.483656" cy="603.782146" r="5" fill="black" stroke="none" />
<circle cx="500" cy="500" r="5" fill="red" stroke="none" />
</svg>