<?xml version="1.0" encoding="UTF-8"?>
<svg xmlns="http://www.w3.org/2000/svg" xmlns:xlink="http://www.w3.org/1999/xlink"
     width="1000" height="1000" viewBox="0 0 1000 1000">
<defs>
</defs>
<rect x="0" y="0" width="1000" height="1000" fill="white" />
<path d="M308.09600000000006,639.2160000000001 L424.6016533842293,554.6974332085894" stroke="grey" stroke-width="5" />
<circle cx="424.6016533842293" cy="554.6974332085894" r="2.5" fill="grey" stroke="none" />
<path d="M424.6016533842293,554.6974332085894 A93.1489123500645,93.1489123500645,0,0,0,428.09600000000006,559.2160000000001" stroke="grey" stroke-width="5" fill="none" />
<circle cx="308.09600000000006" cy="639.2160000000001" r="5" fill="black" stroke="none" />
<circle cx="428.09600000000006" cy="559.2160000000001" r="5" fill="black" stroke="none" />
<path d="M428.09600000000006,559.2160000000001 L444.43999581123967,545.756024811438" stroke="grey" stroke-width="5" />
<circle cx="444.43999581123967" cy="545.756024811438" r="2.5" fill="grey" stroke="none" />
<path d="M444.43999581123967,545.756024811438 A71.97588396122686,71.97588396122686,0,0,1,428.09600000000006,503.21600000000007" stroke="grey" stroke-width="5" fill="none" />
<circle cx="428.09600000000006" cy="559.2160000000001" r="5" fill="black" stroke="none" />
<circle cx="428.09600000000006" cy="503.21600000000007" r="5" fill="black" stroke="none" />
<path d="M428.09600000000006,503.21600000000007 A71.97588396122686,71.97588396122686,0,0,1,428.0361422493331,501.3156935972243" stroke="grey" stroke-width="5" fill="none" />
<path d="M428.0361422493331,501.3156935972243 L-175.90399999999994,3.216000000000065" stroke="grey" stroke-width="5" />
<circle cx="428.0361422493331" cy="501.3156935972243" r="2.5" fill="grey" stroke="none" />
<circle cx="428.09600000000006" cy="503.21600000000007" r="5" fill="black" stroke="none" />
<circle cx="324.09600000000006" cy="503.21600000000007" r="5" fill="black" stroke="none" />
<path d="M324.09600000000006,503.21600000000007 L330.8321951819418,503.0928441666755" stroke="grey" stroke-width="5" />
<circle cx="330.8321951819418" cy="503.0928441666755" r="2.5" fill="grey" stroke="none" />
<path d="M330.8321951819418,503.0928441666755 A169.1960752263479,169.1960752263479,0,0,1,364.096,399.2160000000001" stroke="grey" stroke-width="5" fill="none" />
<circle cx="324.09600000000006" cy="503.21600000000007" r="5" fill="black" stroke="none" />
<circle cx="364.09600000000006" cy="399.21600000000007" r="5" fill="black" stroke="none" />
<path d="M364.096,399.2160000000001 A169.1960752263479,169.1960752263479,0,0,1,478.7459447251043,332.14417791934756" stroke="grey" stroke-width="5" fill="none" />
<path d="M478.7459447251043,332.14417791934756 L-23.90399999999994,-188.78399999999993" stroke="grey" stroke-width="5" />
<circle cx="478.7459447251043" cy="332.14417791934756" r="2.5" fill="grey" stroke="none" />
<circle cx="364.09600000000006" cy="399.21600000000007" r="5" fill="black" stroke="none" />
<circle cx="476.09600000000006" cy="311.21600000000007" r="5" fill="black" stroke="none" />
<path d="M476.09600000000006,311.21600000000007 L479.08004325617685,334.7827512581191" stroke="grey" stroke-width="5" />
<circle cx="479.08004325617685" cy="334.7827512581191" r="2.5" fill="grey" stroke="none" />
<path d="M479.08004325617685,334.7827512581191 A166.5364340677438,166.5364340677438,0,0,1,524.096,335.21600000000007" stroke="grey" stroke-width="5" fill="none" />
<circle cx="476.09600000000006" cy="311.21600000000007" r="5" fill="black" stroke="none" />
<circle cx="524.096" cy="335.21600000000007" r="5" fill="black" stroke="none" />
<path d="M524.096,335.21600000000007 L522.9470753441669,343.07308833361594" stroke="grey" stroke-width="5" />
<circle cx="522.9470753441669" cy="343.07308833361594" r="2.5" fill="grey" stroke="none" />
<path d="M522.9470753441669,343.07308833361594 A158.59578768681084,158.59578768681084,0,0,0,476.09600000000006,343.216" stroke="grey" stroke-width="5" fill="none" />
<circle cx="524.096" cy="335.21600000000007" r="5" fill="black" stroke="none" />
<circle cx="476.09600000000006" cy="343.21600000000007" r="5" fill="black" stroke="none" />
<path d="M476.09600000000006,311.21600000000007 L480.07753056120424,342.6604973839684" stroke="grey" stroke-width="5" />
<circle cx="480.07753056120424" cy="342.6604973839684" r="2.5" fill="grey" stroke="none" />
<path d="M480.07753056120424,342.6604973839684 A158.59578768681084,158.59578768681084,0,0,0,476.09600000000006,343.216" stroke="grey" stroke-width="5" fill="none" />
<circle cx="476.09600000000006" cy="311.21600000000007" r="5" fill="black" stroke="none" />
<circle cx="476.09600000000006" cy="343.21600000000007" r="5" fill="black" stroke="none" />
<path d="M476.09600000000006,343.21600000000007 L487.23226533245446,416.25767603261096" stroke="grey" stroke-width="5" />
<circle cx="487.23226533245446" cy="416.25767603261096" r="2.5" fill="grey" stroke="none" />
<path d="M487.23226533245446,416.25767603261096 A84.71004587414639,84.71004587414639,0,0,0,428.09600000000006,455.21600000000007" stroke="grey" stroke-width="5" fill="none" />
<circle cx="476.09600000000006" cy="343.21600000000007" r="5" fill="black" stroke="none" />
<circle cx="428.09600000000006" cy="455.21600000000007" r="5" fill="black" stroke="none" />
<path d="M364.09600000000006,399.21600000000007 L431.95803118317707,449.5412807184875" stroke="grey" stroke-width="5" />
<circle cx="431.95803118317707" cy="449.5412807184875" r="2.5" fill="grey" stroke="none" />
<path d="M431.95803118317707,449.5412807184875 A84.71004587414639,84.71004587414639,0,0,0,428.09600000000006,455.21600000000007" stroke="grey" stroke-width="5" fill="none" />
<circle cx="364.09600000000006" cy="399.21600000000007" r="5" fill="black" stroke="none" />
<circle cx="428.09600000000006" cy="455.21600000000007" r="5" fill="black" stroke="none" />
<path d="M428.09600000000006,455.21600000000007 L438.9050742808348,461.9482204966748" stroke="grey" stroke-width="5" />
<circle cx="438.9050742808348" cy="461.9482204966748" r="2.5" fill="grey" stroke="none" />
<path d="M438.90507428083475,461.9482204966748 A71.97588396122686,71.97588396122686,0,0,0,428.09600000000006,503.21600000000007" stroke="grey" stroke-width="5" fill="none" />
<circle cx="428.09600000000006" cy="455.21600000000007" r="5" fill="black" stroke="none" />
<circle cx="428.09600000000006" cy="503.21600000000007" r="5" fill="black" stroke="none" />
<path d="M524.096,335.21600000000007 A166.5364340677438,166.5364340677438,0,0,1,549.7450611865484,341.0666405075808" stroke="grey" stroke-width="5" fill="none" />
<path d="M549.7450611865484,341.0666405075808 L64.09600000000006,-204.78399999999993" stroke="grey" stroke-width="5" />
<circle cx="549.7450611865484" cy="341.0666405075808" r="2.5" fill="grey" stroke="none" />
<circle cx="524.096" cy="335.21600000000007" r="5" fill="black" stroke="none" />
<circle cx="564.096" cy="295.21600000000007" r="5" fill="black" stroke="none" />
<path d="M524.096,335.21600000000007 L517.9293319951204,377.38765589791234" stroke="grey" stroke-width="5" />
<circle cx="517.9293319951204" cy="377.38765589791234" r="2.5" fill="grey" stroke="none" />
<path d="M517.9293319951204,377.38765589791234 A123.91629381158879,123.91629381158879,0,0,1,572.096,399.21600000000007" stroke="grey" stroke-width="5" fill="none" />
<circle cx="524.096" cy="335.21600000000007" r="5" fill="black" stroke="none" />
<circle cx="572.096" cy="399.21600000000007" r="5" fill="black" stroke="none" />
<path d="M476.09600000000006,343.21600000000007 L484.3814297174046,397.5593238292151" stroke="grey" stroke-width="5" />
<circle cx="484.3814297174046" cy="397.5593238292151" r="2.5" fill="grey" stroke="none" />
<path d="M484.3814297174046,397.5593238292151 A103.6244752556074,103.6244752556074,0,0,1,524.0960000000001,399.21600000000007" stroke="grey" stroke-width="5" fill="none" />
<circle cx="476.09600000000006" cy="343.21600000000007" r="5" fill="black" stroke="none" />
<circle cx="524.096" cy="399.21600000000007" r="5" fill="black" stroke="none" />
<path d="M428.09600000000006,455.21600000000007 L456.910048387042,473.16226645200953" stroke="grey" stroke-width="5" />
<circle cx="456.910048387042" cy="473.16226645200953" r="2.5" fill="grey" stroke="none" />
<path d="M456.910048387042,473.16226645200953 A50.76423812094486,50.76423812094486,0,0,1,476.09600000000006,455.21600000000007" stroke="grey" stroke-width="5" fill="none" />
<circle cx="428.09600000000006" cy="455.21600000000007" r="5" fill="black" stroke="none" />
<circle cx="476.09600000000006" cy="455.21600000000007" r="5" fill="black" stroke="none" />
<path d="M428.09600000000006,503.21600000000007 L475.71461239396444,501.08619557383474" stroke="grey" stroke-width="5" />
<circle cx="475.71461239396444" cy="501.08619557383474" r="2.5" fill="grey" stroke="none" />
<path d="M475.71461239396444,501.08619557383474 A24.309666225598477,24.309666225598477,0,0,0,524.096,503.21600000000007" stroke="grey" stroke-width="5" fill="none" />
<circle cx="428.09600000000006" cy="503.21600000000007" r="5" fill="black" stroke="none" />
<circle cx="524.096" cy="503.21600000000007" r="5" fill="black" stroke="none" />
<path d="M428.09600000000006,559.2160000000001 L450.6501712049109,540.6416814353861" stroke="grey" stroke-width="5" />
<circle cx="450.6501712049109" cy="540.6416814353861" r="2.5" fill="grey" stroke="none" />
<path d="M450.6501712049109,540.6416814353861 A63.930836628344,63.930836628344,0,0,0,524.0960000000001,559.216" stroke="grey" stroke-width="5" fill="none" />
<circle cx="428.09600000000006" cy="559.2160000000001" r="5" fill="black" stroke="none" />
<circle cx="524.096" cy="559.2160000000001" r="5" fill="black" stroke="none" />
<path d="M572.096,399.21600000000007 L560.2899742901251,415.71980735608133" stroke="grey" stroke-width="5" />
<circle cx="560.2899742901251" cy="415.71980735608133" r="2.5" fill="grey" stroke="none" />
<path d="M560.2899742901251,415.71980735608133 A103.6244752556074,103.6244752556074,0,0,0,524.0960000000001,399.21600000000007" stroke="grey" stroke-width="5" fill="none" />
<circle cx="572.096" cy="399.21600000000007" r="5" fill="black" stroke="none" />
<circle cx="524.096" cy="399.21600000000007" r="5" fill="black" stroke="none" />
<path d="M524.096,399.21600000000007 L511.8043066442076,450.62727254192345" stroke="grey" stroke-width="5" />
<circle cx="511.8043066442076" cy="450.62727254192345" r="2.5" fill="grey" stroke="none" />
<path d="M511.8043066442076,450.62727254192345 A50.76423812094486,50.76423812094486,0,0,0,476.09600000000006,455.21600000000007" stroke="grey" stroke-width="5" fill="none" />
<circle cx="524.096" cy="399.21600000000007" r="5" fill="black" stroke="none" />
<circle cx="476.09600000000006" cy="455.21600000000007" r="5" fill="black" stroke="none" />
<path d="M476.09600000000006,455.21600000000007 L488.55299945461115,478.5541134360486" stroke="grey" stroke-width="5" />
<circle cx="488.55299945461115" cy="478.5541134360486" r="2.5" fill="grey" stroke="none" />
<path d="M488.55299945461115,478.5541134360486 A24.309666225598477,24.309666225598477,0,0,1,524.096,503.21600000000007" stroke="grey" stroke-width="5" fill="none" />
<circle cx="476.09600000000006" cy="455.21600000000007" r="5" fill="black" stroke="none" />
<circle cx="524.096" cy="503.21600000000007" r="5" fill="black" stroke="none" />
<path d="M524.096,503.21600000000007 A24.309666225598477,24.309666225598477,0,0,1,509.16249103351043,522.5168521348088" stroke="grey" stroke-width="5" fill="none" />
<path d="M509.16249103351043,522.5168521348088 L24.09600000000006,59.216000000000065" stroke="grey" stroke-width="5" />
<circle cx="509.16249103351043" cy="522.5168521348088" r="2.5" fill="grey" stroke="none" />
<circle cx="524.096" cy="503.21600000000007" r="5" fill="black" stroke="none" />
<circle cx="524.096" cy="559.2160000000001" r="5" fill="black" stroke="none" />
<path d="M524.0960000000001,559.216 A63.930836628344,63.930836628344,0,0,0,536.3174006189599,552.6136701274676" stroke="grey" stroke-width="5" fill="none" />
<path d="M536.3174006189599,552.6136701274676 L96.09600000000006,139.21600000000007" stroke="grey" stroke-width="5" />
<circle cx="536.3174006189599" cy="552.6136701274676" r="2.5" fill="grey" stroke="none" />
<circle cx="524.096" cy="559.2160000000001" r="5" fill="black" stroke="none" />
<circle cx="596.096" cy="639.2160000000001" r="5" fill="black" stroke="none" />
<path d="M572.096,399.21600000000007 L552.7142570990054,426.3100076638628" stroke="grey" stroke-width="5" />
<circle cx="552.7142570990054" cy="426.3100076638628" r="2.5" fill="grey" stroke="none" />
<path d="M552.7142570990054,426.3100076638628 A90.60357538199028,90.60357538199028,0,0,0,548.0960000000001,423.21600000000007" stroke="grey" stroke-width="5" fill="none" />
<circle cx="572.096" cy="399.21600000000007" r="5" fill="black" stroke="none" />
<circle cx="548.096" cy="423.21600000000007" r="5" fill="black" stroke="none" />
<path d="M548.096,423.21600000000007 L526.995829769618,456.9018672440464" stroke="grey" stroke-width="5" />
<circle cx="526.995829769618" cy="456.9018672440464" r="2.5" fill="grey" stroke="none" />
<path d="M526.995829769618,456.9018672440464 A50.85492967254991,50.85492967254991,0,0,0,524.096,455.21600000000007" stroke="grey" stroke-width="5" fill="none" />
<circle cx="548.096" cy="423.21600000000007" r="5" fill="black" stroke="none" />
<circle cx="524.096" cy="455.21600000000007" r="5" fill="black" stroke="none" />
<path d="M524.096,455.21600000000007 L511.5183664817494,478.59235871021485" stroke="grey" stroke-width="5" />
<circle cx="511.5183664817494" cy="478.59235871021485" r="2.5" fill="grey" stroke="none" />
<path d="M511.5183664817494,478.5923587102148 A24.309666225598477,24.309666225598477,0,0,1,524.096,503.21600000000007" stroke="grey" stroke-width="5" fill="none" />
<circle cx="524.096" cy="455.21600000000007" r="5" fill="black" stroke="none" />
<circle cx="524.096" cy="503.21600000000007" r="5" fill="black" stroke="none" />
<path d="M524.096,399.21600000000007 L521.0682249248476,411.87998087542184" stroke="grey" stroke-width="5" />
<circle cx="521.0682249248476" cy="411.87998087542184" r="2.5" fill="grey" stroke="none" />
<path d="M521.0682249248476,411.87998087542184 A90.60357538199028,90.60357538199028,0,0,1,548.0960000000001,423.21600000000007" stroke="grey" stroke-width="5" fill="none" />
<circle cx="524.096" cy="399.21600000000007" r="5" fill="black" stroke="none" />
<circle cx="548.096" cy="423.21600000000007" r="5" fill="black" stroke="none" />
<path d="M476.09600000000006,455.21600000000007 A50.76423812094486,50.76423812094486,0,0,1,524.0530286766387,455.29586502927515" stroke="grey" stroke-width="5" fill="none" />
<path d="M524.0530286766387,455.29586502927515 L24.09600000000006,-44.783999999999935" stroke="grey" stroke-width="5" />
<circle cx="524.0530286766387" cy="455.29586502927515" r="2.5" fill="grey" stroke="none" />
<circle cx="476.09600000000006" cy="455.21600000000007" r="5" fill="black" stroke="none" />
<circle cx="524.096" cy="455.21600000000007" r="5" fill="black" stroke="none" />
<path d="M572.096,399.21600000000007 L549.3801860661496,430.97075187956597" stroke="grey" stroke-width="5" />
<circle cx="549.3801860661496" cy="430.97075187956597" r="2.5" fill="grey" stroke="none" />
<path d="M549.3801860661496,430.97075187956597 A84.87308096210484,84.87308096210484,0,0,1,572.096,455.21600000000007" stroke="grey" stroke-width="5" fill="none" />
<circle cx="572.096" cy="399.21600000000007" r="5" fill="black" stroke="none" />
<circle cx="572.096" cy="455.21600000000007" r="5" fill="black" stroke="none" />
<path d="M548.096,423.21600000000007 L545.054024465847,428.0724339948107" stroke="grey" stroke-width="5" />
<circle cx="545.054024465847" cy="428.0724339948107" r="2.5" fill="grey" stroke="none" />
<path d="M545.054024465847,428.0724339948107 A84.87308096210484,84.87308096210484,0,0,1,572.096,455.21600000000007" stroke="grey" stroke-width="5" fill="none" />
<circle cx="548.096" cy="423.21600000000007" r="5" fill="black" stroke="none" />
<circle cx="572.096" cy="455.21600000000007" r="5" fill="black" stroke="none" />
<path d="M524.096,455.21600000000007 A50.85492967254991,50.85492967254991,0,0,1,543.1990563805407,473.1659656437787" stroke="grey" stroke-width="5" fill="none" />
<path d="M543.1990563805407,473.1659656437787 L72.09600000000006,-44.783999999999935" stroke="grey" stroke-width="5" />
<circle cx="543.1990563805407" cy="473.1659656437787" r="2.5" fill="grey" stroke="none" />
<circle cx="524.096" cy="455.21600000000007" r="5" fill="black" stroke="none" />
<circle cx="572.096" cy="455.21600000000007" r="5" fill="black" stroke="none" />
<path d="M524.096,503.21600000000007 A24.309666225598477,24.309666225598477,0,0,0,520.6500067669664,487.17279872597896" stroke="grey" stroke-width="5" fill="none" />
<path d="M520.6500067669664,487.17279872597896 L72.09600000000006,-44.783999999999935" stroke="grey" stroke-width="5" />
<circle cx="520.6500067669664" cy="487.17279872597896" r="2.5" fill="grey" stroke="none" />
<circle cx="524.096" cy="503.21600000000007" r="5" fill="black" stroke="none" />
<circle cx="572.096" cy="455.21600000000007" r="5" fill="black" stroke="none" />
<path d="M572.096,455.21600000000007 L565.4607816740352,459.3376103183258" stroke="grey" stroke-width="5" />
<circle cx="565.4607816740352" cy="459.3376103183258" r="2.5" fill="grey" stroke="none" />
<path d="M565.4607816740352,459.3376103183258 A77.06194827539733,77.06194827539733,0,0,1,572.096,527.2160000000001" stroke="grey" stroke-width="5" fill="none" />
<circle cx="572.096" cy="455.21600000000007" r="5" fill="black" stroke="none" />
<circle cx="572.096" cy="527.2160000000001" r="5" fill="black" stroke="none" />
<path d="M572.096,527.2160000000001 L559.8110701936224,522.5784798933315" stroke="grey" stroke-width="5" />
<circle cx="559.8110701936224" cy="522.5784798933315" r="2.5" fill="grey" stroke="none" />
<path d="M559.8110701936224,522.5784798933315 A63.930836628344,63.930836628344,0,0,1,524.0960000000001,559.216" stroke="grey" stroke-width="5" fill="none" />
<circle cx="572.096" cy="527.2160000000001" r="5" fill="black" stroke="none" />
<circle cx="524.096" cy="559.2160000000001" r="5" fill="black" stroke="none" />
<path d="M572.096,399.21600000000007 A123.91629381158879,123.91629381158879,0,0,1,580.7934788735786,406.0443634287724" stroke="grey" stroke-width="5" fill="none" />
<path d="M580.7934788735786,406.0443634287724 L176.09600000000006,-204.78399999999993" stroke="grey" stroke-width="5" />
<circle cx="580.7934788735786" cy="406.0443634287724" r="2.5" fill="grey" stroke="none" />
<circle cx="572.096" cy="399.21600000000007" r="5" fill="black" stroke="none" />
<circle cx="676.096" cy="295.21600000000007" r="5" fill="black" stroke="none" />
<path d="M572.096,399.21600000000007 A123.91629381158879,123.91629381158879,0,0,1,615.6907889215071,455.6053017724043" stroke="grey" stroke-width="5" fill="none" />
<path d="M615.6907889215071,455.6053017724043 L200.09600000000006,-76.78399999999993" stroke="grey" stroke-width="5" />
<circle cx="615.6907889215071" cy="455.6053017724043" r="2.5" fill="grey" stroke="none" />
<circle cx="572.096" cy="399.21600000000007" r="5" fill="black" stroke="none" />
<circle cx="700.096" cy="423.21600000000007" r="5" fill="black" stroke="none" />
<path d="M700.096,423.21600000000007 A214.32263499686638,214.32263499686638,0,0,1,707.0934612622507,444.8049805288493" stroke="grey" stroke-width="5" fill="none" />
<path d="M707.0934612622507,444.8049805288493 L288.09600000000006,-76.78399999999993" stroke="grey" stroke-width="5" />
<circle cx="707.0934612622507" cy="444.8049805288493" r="2.5" fill="grey" stroke="none" />
<circle cx="700.096" cy="423.21600000000007" r="5" fill="black" stroke="none" />
<circle cx="788.096" cy="423.21600000000007" r="5" fill="black" stroke="none" />
<path d="M572.096,455.21600000000007 A84.87308096210484,84.87308096210484,0,0,1,577.825394262149,533.8621895325904" stroke="grey" stroke-width="5" fill="none" />
<path d="M577.825394262149,533.8621895325904 L136.09600000000006,59.216000000000065" stroke="grey" stroke-width="5" />
<circle cx="577.825394262149" cy="533.8621895325904" r="2.5" fill="grey" stroke="none" />
<circle cx="572.096" cy="455.21600000000007" r="5" fill="black" stroke="none" />
<circle cx="636.096" cy="559.2160000000001" r="5" fill="black" stroke="none" />
<circle cx="500" cy="500" r="5" fill="red" stroke="none" />
</svg>