<?xml version="1.0" encoding="UTF-8"?>
<svg xmlns="http://www.w3.org/2000/svg" xmlns:xlink="http://www.w3.org/1999/xlink"
     width="1000" height="1000" viewBox="0 0 1000 1000">
<defs>
</defs>
<rect x="0" y="0" width="1000" height="1000" fill="white" />
<path d="M312.694016,636.134656 L429.1045879281111,551.5270378888954" stroke="grey" stroke-width="5" />
<circle cx="429.1045879281111" cy="551.5270378888954" r="2.5" fill="grey" stroke="none" />
<path d="M429.1045879281111,551.5270378888954 A87.64242743355867,87.64242743355867,0,0,0,432.69401600000003,556.1346560000001" stroke="grey" stroke-width="5" fill="none" />
<circle cx="312.694016" cy="636.134656" r="5" fill="black" stroke="none" />
<circle cx="432.694016" cy="556.134656" r="5" fill="black" stroke="none" />
<path d="M432.694016,556.134656 L448.31151211834464,543.1093242228936" stroke="grey" stroke-width="5" />
<circle cx="448.31151211834464" cy="543.1093242228936" r="2.5" fill="grey" stroke="none" />
<path d="M448.3115121183447,543.1093242228936 A67.30611869991164,67.30611869991164,0,0,1,432.694016,500.134656" stroke="grey" stroke-width="5" fill="none" />
<circle cx="432.694016" cy="556.134656" r="5" fill="black" stroke="none" />
<circle cx="432.694016" cy="500.134656" r="5" fill="black" stroke="none" />
<path d="M432.694016,500.134656 A67.30611869991164,67.30611869991164,0,0,1,432.693902093737,500.05290632415773" stroke="grey" stroke-width="5" fill="none" />
<path d="M432.693902093737,500.05290632415773 L-171.30598400000002,0.13465600000000677" stroke="grey" stroke-width="5" />
<circle cx="432.693902093737" cy="500.05290632415773" r="2.5" fill="grey" stroke="none" />
<circle cx="432.694016" cy="500.134656" r="5" fill="black" stroke="none" />
<circle cx="328.694016" cy="500.134656" r="5" fill="black" stroke="none" />
<path d="M328.694016,500.134656 L332.5806050672653,500.1316009255349" stroke="grey" stroke-width="5" />
<circle cx="332.5806050672653" cy="500.1316009255349" r="2.5" fill="grey" stroke="none" />
<path d="M332.5806050672653,500.1316009255349 A167.4194466555382,167.4194466555382,0,0,1,368.6940159999999,396.134656" stroke="grey" stroke-width="5" fill="none" />
<circle cx="328.694016" cy="500.134656" r="5" fill="black" stroke="none" />
<circle cx="368.694016" cy="396.134656" r="5" fill="black" stroke="none" />
<path d="M368.6940159999999,396.134656 A167.4194466555382,167.4194466555382,0,0,1,483.2384657529665,333.4217238409158" stroke="grey" stroke-width="5" fill="none" />
<path d="M483.2384657529665,333.4217238409158 L-19.305984000000024,-191.865344" stroke="grey" stroke-width="5" />
<circle cx="483.2384657529665" cy="333.4217238409158" r="2.5" fill="grey" stroke="none" />
<circle cx="368.694016" cy="396.134656" r="5" fill="black" stroke="none" />
<circle cx="480.694016" cy="308.134656" r="5" fill="black" stroke="none" />
<path d="M480.694016,308.134656 L482.9500644700779,330.5555549188109" stroke="grey" stroke-width="5" />
<circle cx="482.9500644700779" cy="330.5555549188109" r="2.5" fill="grey" stroke="none" />
<path d="M482.9500644700779,330.5555549188109 A170.3000888738658,170.3000888738658,0,0,1,528.6940159999999,332.134656" stroke="grey" stroke-width="5" fill="none" />
<circle cx="480.694016" cy="308.134656" r="5" fill="black" stroke="none" />
<circle cx="528.6940159999999" cy="332.134656" r="5" fill="black" stroke="none" />
<path d="M528.6940159999999,332.134656 L527.1315610649619,341.2753087115151" stroke="grey" stroke-width="5" />
<circle cx="527.1315610649619" cy="341.2753087115151" r="2.5" fill="grey" stroke="none" />
<path d="M527.1315610649619,341.2753087115151 A161.02685872377498,161.02685872377498,0,0,0,480.694016,340.134656" stroke="grey" stroke-width="5" fill="none" />
<circle cx="528.6940159999999" cy="332.134656" r="5" fill="black" stroke="none" />
<circle cx="480.694016" cy="340.134656" r="5" fill="black" stroke="none" />
<path d="M480.694016,308.134656 L483.8784725364429,339.78219330333985" stroke="grey" stroke-width="5" />
<circle cx="483.8784725364429" cy="339.78219330333985" r="2.5" fill="grey" stroke="none" />
<path d="M483.8784725364429,339.78219330333985 A161.02685872377498,161.02685872377498,0,0,0,480.694016,340.134656" stroke="grey" stroke-width="5" fill="none" />
<circle cx="480.694016" cy="308.134656" r="5" fill="black" stroke="none" />
<circle cx="480.694016" cy="340.134656" r="5" fill="black" stroke="none" />
<path d="M480.694016,340.134656 L490.0979848292176,418.0052639860083" stroke="grey" stroke-width="5" />
<circle cx="490.0979848292176" cy="418.0052639860083" r="2.5" fill="grey" stroke="none" />
<path d="M490.0979848292176,418.0052639860083 A82.59047547052018,82.59047547052018,0,0,0,432.694016,452.134656" stroke="grey" stroke-width="5" fill="none" />
<circle cx="480.694016" cy="340.134656" r="5" fill="black" stroke="none" />
<circle cx="432.694016" cy="452.134656" r="5" fill="black" stroke="none" />
<path d="M368.694016,396.134656 L435.224826820763,448.7616981346332" stroke="grey" stroke-width="5" />
<circle cx="435.224826820763" cy="448.7616981346332" r="2.5" fill="grey" stroke="none" />
<path d="M435.224826820763,448.7616981346332 A82.59047547052018,82.59047547052018,0,0,0,432.694016,452.134656" stroke="grey" stroke-width="5" fill="none" />
<circle cx="368.694016" cy="396.134656" r="5" fill="black" stroke="none" />
<circle cx="432.694016" cy="452.134656" r="5" fill="black" stroke="none" />
<path d="M432.694016,452.134656 L445.14979454337526,460.9927112476059" stroke="grey" stroke-width="5" />
<circle cx="445.14979454337526" cy="460.9927112476059" r="2.5" fill="grey" stroke="none" />
<path d="M445.14979454337526,460.9927112476059 A67.30611869991164,67.30611869991164,0,0,0,432.694016,500.134656" stroke="grey" stroke-width="5" fill="none" />
<circle cx="432.694016" cy="452.134656" r="5" fill="black" stroke="none" />
<circle cx="432.694016" cy="500.134656" r="5" fill="black" stroke="none" />
<path d="M528.6940159999999,332.134656 A170.3000888738658,170.3000888738658,0,0,1,553.4372686907004,338.30096294249466" stroke="grey" stroke-width="5" fill="none" />
<path d="M553.4372686907004,338.30096294249466 L68.69401599999998,-207.865344" stroke="grey" stroke-width="5" />
<circle cx="553.4372686907004" cy="338.30096294249466" r="2.5" fill="grey" stroke="none" />
<circle cx="528.6940159999999" cy="332.134656" r="5" fill="black" stroke="none" />
<circle cx="568.6940159999999" cy="292.134656" r="5" fill="black" stroke="none" />
<path d="M528.6940159999999,332.134656 L521.7542454363665,372.73360781439226" stroke="grey" stroke-width="5" />
<circle cx="521.7542454363665" cy="372.73360781439226" r="2.5" fill="grey" stroke="none" />
<path d="M521.7542454363665,372.73360781439226 A129.11228359240877,129.11228359240877,0,0,1,576.694016,396.134656" stroke="grey" stroke-width="5" fill="none" />
<circle cx="528.6940159999999" cy="332.134656" r="5" fill="black" stroke="none" />
<circle cx="576.6940159999999" cy="396.134656" r="5" fill="black" stroke="none" />
<path d="M480.694016,340.134656 L487.08081563958757,393.02125952364054" stroke="grey" stroke-width="5" />
<circle cx="487.08081563958757" cy="393.02125952364054" r="2.5" fill="grey" stroke="none" />
<path d="M487.08081563958757,393.02125952364054 A107.7560032594314,107.7560032594314,0,0,1,528.6940159999999,396.134656" stroke="grey" stroke-width="5" fill="none" />
<circle cx="480.694016" cy="340.134656" r="5" fill="black" stroke="none" />
<circle cx="528.6940159999999" cy="396.134656" r="5" fill="black" stroke="none" />
<path d="M432.694016,452.134656 L457.93939538455027,470.0881676617864" stroke="grey" stroke-width="5" />
<circle cx="457.93939538455027" cy="470.0881676617864" r="2.5" fill="grey" stroke="none" />
<path d="M457.93939538455027,470.0881676617864 A51.61213204709327,51.61213204709327,0,0,1,480.694016,452.134656" stroke="grey" stroke-width="5" fill="none" />
<circle cx="432.694016" cy="452.134656" r="5" fill="black" stroke="none" />
<circle cx="480.694016" cy="452.134656" r="5" fill="black" stroke="none" />
<path d="M432.694016,500.134656 L471.3057254692494,500.0574073210372" stroke="grey" stroke-width="5" />
<circle cx="471.3057254692494" cy="500.0574073210372" r="2.5" fill="grey" stroke="none" />
<path d="M471.3057254692494,500.0574073210372 A28.69433195679228,28.69433195679228,0,0,0,528.6940159999999,500.134656" stroke="grey" stroke-width="5" fill="none" />
<circle cx="432.694016" cy="500.134656" r="5" fill="black" stroke="none" />
<circle cx="528.6940159999999" cy="500.134656" r="5" fill="black" stroke="none" />
<path d="M432.694016,556.134656 L451.5852616387811,540.3789458488122" stroke="grey" stroke-width="5" />
<circle cx="451.5852616387811" cy="540.3789458488122" r="2.5" fill="grey" stroke="none" />
<path d="M451.58526163878116,540.3789458488122 A63.04320866236578,63.04320866236578,0,0,0,528.6940159999999,556.1346560000001" stroke="grey" stroke-width="5" fill="none" />
<circle cx="432.694016" cy="556.134656" r="5" fill="black" stroke="none" />
<circle cx="528.6940159999999" cy="556.134656" r="5" fill="black" stroke="none" />
<path d="M576.6940159999999,396.134656 L564.0081672179547,413.31487574073077" stroke="grey" stroke-width="5" />
<circle cx="564.0081672179547" cy="413.31487574073077" r="2.5" fill="grey" stroke="none" />
<path d="M564.0081672179547,413.31487574073077 A107.7560032594314,107.7560032594314,0,0,0,528.6940159999999,396.134656" stroke="grey" stroke-width="5" fill="none" />
<circle cx="576.6940159999999" cy="396.134656" r="5" fill="black" stroke="none" />
<circle cx="528.6940159999999" cy="396.134656" r="5" fill="black" stroke="none" />
<path d="M528.6940159999999,396.134656 L513.743636530281,450.25138565376807" stroke="grey" stroke-width="5" />
<circle cx="513.743636530281" cy="450.25138565376807" r="2.5" fill="grey" stroke="none" />
<path d="M513.743636530281,450.25138565376807 A51.61213204709327,51.61213204709327,0,0,0,480.694016,452.134656" stroke="grey" stroke-width="5" fill="none" />
<circle cx="528.6940159999999" cy="396.134656" r="5" fill="black" stroke="none" />
<circle cx="480.694016" cy="452.134656" r="5" fill="black" stroke="none" />
<path d="M480.694016,452.134656 L489.2666260494131,473.38873602995426" stroke="grey" stroke-width="5" />
<circle cx="489.2666260494131" cy="473.38873602995426" r="2.5" fill="grey" stroke="none" />
<path d="M489.2666260494131,473.38873602995426 A28.69433195679228,28.69433195679228,0,0,1,528.6940159999999,500.134656" stroke="grey" stroke-width="5" fill="none" />
<circle cx="480.694016" cy="452.134656" r="5" fill="black" stroke="none" />
<circle cx="528.6940159999999" cy="500.134656" r="5" fill="black" stroke="none" />
<path d="M528.6940159999999,500.134656 A28.69433195679228,28.69433195679228,0,0,1,513.0601794824098,525.5498805933381" stroke="grey" stroke-width="5" fill="none" />
<path d="M513.0601794824098,525.5498805933381 L28.694015999999976,56.13465600000001" stroke="grey" stroke-width="5" />
<circle cx="513.0601794824098" cy="525.5498805933381" r="2.5" fill="grey" stroke="none" />
<circle cx="528.6940159999999" cy="500.134656" r="5" fill="black" stroke="none" />
<circle cx="528.6940159999999" cy="556.134656" r="5" fill="black" stroke="none" />
<path d="M528.6940159999999,556.1346560000001 A63.04320866236578,63.04320866236578,0,0,0,537.4898335130738,550.6848946098204" stroke="grey" stroke-width="5" fill="none" />
<path d="M537.4898335130738,550.6848946098204 L100.69401599999998,136.134656" stroke="grey" stroke-width="5" />
<circle cx="537.4898335130738" cy="550.6848946098204" r="2.5" fill="grey" stroke="none" />
<circle cx="528.6940159999999" cy="556.134656" r="5" fill="black" stroke="none" />
<circle cx="600.6940159999999" cy="636.134656" r="5" fill="black" stroke="none" />
<path d="M576.6940159999999,396.134656 L556.836357088493,423.0275308479979" stroke="grey" stroke-width="5" />
<circle cx="556.836357088493" cy="423.0275308479979" r="2.5" fill="grey" stroke="none" />
<path d="M556.836357088493,423.0275308479979 A95.6824565656975,95.6824565656975,0,0,0,552.694016,420.134656" stroke="grey" stroke-width="5" fill="none" />
<circle cx="576.6940159999999" cy="396.134656" r="5" fill="black" stroke="none" />
<circle cx="552.6940159999999" cy="420.134656" r="5" fill="black" stroke="none" />
<path d="M552.6940159999999,420.134656 L530.7339801678887,453.41824205242557" stroke="grey" stroke-width="5" />
<circle cx="530.7339801678887" cy="453.41824205242557" r="2.5" fill="grey" stroke="none" />
<path d="M530.7339801678887,453.4182420524256 A55.80714748530505,55.80714748530505,0,0,0,528.6940159999999,452.134656" stroke="grey" stroke-width="5" fill="none" />
<circle cx="552.6940159999999" cy="420.134656" r="5" fill="black" stroke="none" />
<circle cx="528.6940159999999" cy="452.134656" r="5" fill="black" stroke="none" />
<path d="M528.6940159999999,452.134656 L514.7535872621748,475.38910100496156" stroke="grey" stroke-width="5" />
<circle cx="514.7535872621748" cy="475.38910100496156" r="2.5" fill="grey" stroke="none" />
<path d="M514.7535872621748,475.38910100496156 A28.69433195679228,28.69433195679228,0,0,1,528.6940159999999,500.134656" stroke="grey" stroke-width="5" fill="none" />
<circle cx="528.6940159999999" cy="452.134656" r="5" fill="black" stroke="none" />
<circle cx="528.6940159999999" cy="500.134656" r="5" fill="black" stroke="none" />
<path d="M528.6940159999999,396.134656 L525.4789882379488,407.77227286321613" stroke="grey" stroke-width="5" />
<circle cx="525.4789882379488" cy="407.77227286321613" r="2.5" fill="grey" stroke="none" />
<path d="M525.4789882379488,407.77227286321613 A95.6824565656975,95.6824565656975,0,0,1,552.694016,420.134656" stroke="grey" stroke-width="5" fill="none" />
<circle cx="528.6940159999999" cy="396.134656" r="5" fill="black" stroke="none" />
<circle cx="552.6940159999999" cy="420.134656" r="5" fill="black" stroke="none" />
<path d="M480.694016,452.134656 A51.61213204709327,51.61213204709327,0,0,1,526.5370908474289,455.7326871856683" stroke="grey" stroke-width="5" fill="none" />
<path d="M526.5370908474289,455.7326871856683 L28.694015999999976,-47.86534399999999" stroke="grey" stroke-width="5" />
<circle cx="526.5370908474289" cy="455.7326871856683" r="2.5" fill="grey" stroke="none" />
<circle cx="480.694016" cy="452.134656" r="5" fill="black" stroke="none" />
<circle cx="528.6940159999999" cy="452.134656" r="5" fill="black" stroke="none" />
<path d="M576.6940159999999,396.134656 L553.7014913943428,427.27302379123745" stroke="grey" stroke-width="5" />
<circle cx="553.7014913943428" cy="427.27302379123745" r="2.5" fill="grey" stroke="none" />
<path d="M553.7014913943428,427.27302379123745 A90.4049956940798,90.4049956940798,0,0,1,576.6940159999999,452.134656" stroke="grey" stroke-width="5" fill="none" />
<circle cx="576.6940159999999" cy="396.134656" r="5" fill="black" stroke="none" />
<circle cx="576.6940159999999" cy="452.134656" r="5" fill="black" stroke="none" />
<path d="M552.6940159999999,420.134656 L549.7876252405042,424.53970832710957" stroke="grey" stroke-width="5" />
<circle cx="549.7876252405042" cy="424.53970832710957" r="2.5" fill="grey" stroke="none" />
<path d="M549.7876252405042,424.53970832710957 A90.4049956940798,90.4049956940798,0,0,1,576.6940159999999,452.134656" stroke="grey" stroke-width="5" fill="none" />
<circle cx="552.6940159999999" cy="420.134656" r="5" fill="black" stroke="none" />
<circle cx="576.6940159999999" cy="452.134656" r="5" fill="black" stroke="none" />
<path d="M528.6940159999999,452.134656 A55.80714748530505,55.80714748530505,0,0,1,547.3433379349481,470.45264709616276" stroke="grey" stroke-width="5" fill="none" />
<path d="M547.3433379349481,470.45264709616276 L76.69401599999998,-47.86534399999999" stroke="grey" stroke-width="5" />
<circle cx="547.3433379349481" cy="470.45264709616276" r="2.5" fill="grey" stroke="none" />
<circle cx="528.6940159999999" cy="452.134656" r="5" fill="black" stroke="none" />
<circle cx="576.6940159999999" cy="452.134656" r="5" fill="black" stroke="none" />
<path d="M528.6940159999999,500.134656 A28.69433195679228,28.69433195679228,0,0,0,524.3424994084442,484.8076529464179" stroke="grey" stroke-width="5" fill="none" />
<path d="M524.3424994084442,484.8076529464179 L76.69401599999998,-47.86534399999999" stroke="grey" stroke-width="5" />
<circle cx="524.3424994084442" cy="484.8076529464179" r="2.5" fill="grey" stroke="none" />
<circle cx="528.6940159999999" cy="500.134656" r="5" fill="black" stroke="none" />
<circle cx="576.6940159999999" cy="452.134656" r="5" fill="black" stroke="none" />
<path d="M576.6940159999999,452.134656 L568.2079449647381,457.4308802753235" stroke="grey" stroke-width="5" />
<circle cx="568.2079449647381" cy="457.4308802753235" r="2.5" fill="grey" stroke="none" />
<path d="M568.2079449647381,457.4308802753235 A80.40182653675592,80.40182653675592,0,0,1,576.6940159999999,524.1346560000001" stroke="grey" stroke-width="5" fill="none" />
<circle cx="576.6940159999999" cy="452.134656" r="5" fill="black" stroke="none" />
<circle cx="576.6940159999999" cy="524.134656" r="5" fill="black" stroke="none" />
<path d="M576.6940159999999,524.134656 L560.1359081268193,518.9240247360158" stroke="grey" stroke-width="5" />
<circle cx="560.1359081268193" cy="518.9240247360158" r="2.5" fill="grey" stroke="none" />
<path d="M560.1359081268193,518.9240247360158 A63.04320866236578,63.04320866236578,0,0,1,528.6940159999999,556.1346560000001" stroke="grey" stroke-width="5" fill="none" />
<circle cx="576.6940159999999" cy="524.134656" r="5" fill="black" stroke="none" />
<circle cx="528.6940159999999" cy="556.134656" r="5" fill="black" stroke="none" />
<path d="M576.694016,396.134656 A129.11228359240877,129.11228359240877,0,0,1,584.705126998083,402.5575901638038" stroke="grey" stroke-width="5" fill="none" />
<path d="M584.705126998083,402.5575901638038 L180.69401599999998,-207.865344" stroke="grey" stroke-width="5" />
<circle cx="584.705126998083" cy="402.5575901638038" r="2.5" fill="grey" stroke="none" />
<circle cx="576.6940159999999" cy="396.134656" r="5" fill="black" stroke="none" />
<circle cx="680.6940159999999" cy="292.134656" r="5" fill="black" stroke="none" />
<path d="M576.694016,396.134656 A129.11228359240877,129.11228359240877,0,0,1,620.2811479130442,453.069975163367" stroke="grey" stroke-width="5" fill="none" />
<path d="M620.2811479130442,453.069975163367 L204.69401599999998,-79.865344" stroke="grey" stroke-width="5" />
<circle cx="620.2811479130442" cy="453.069975163367" r="2.5" fill="grey" stroke="none" />
<circle cx="576.6940159999999" cy="396.134656" r="5" fill="black" stroke="none" />
<circle cx="704.6940159999999" cy="420.134656" r="5" fill="black" stroke="none" />
<path d="M704.6940159999999,420.134656 A219.72281028251615,219.72281028251615,0,0,1,711.9733173569493,442.1603415714043" stroke="grey" stroke-width="5" fill="none" />
<path d="M711.9733173569493,442.1603415714043 L292.694016,-79.865344" stroke="grey" stroke-width="5" />
<circle cx="711.9733173569493" cy="442.1603415714043" r="2.5" fill="grey" stroke="none" />
<circle cx="704.6940159999999" cy="420.134656" r="5" fill="black" stroke="none" />
<circle cx="792.6940159999999" cy="420.134656" r="5" fill="black" stroke="none" />
<path d="M576.6940159999999,452.134656 A90.4049956940798,90.4049956940798,0,0,1,583.9683179728275,533.5020122270396" stroke="grey" stroke-width="5" fill="none" />
<path d="M583.9683179728275,533.5020122270396 L140.69401599999998,56.13465600000001" stroke="grey" stroke-width="5" />
<circle cx="583.9683179728275" cy="533.5020122270396" r="2.5" fill="grey" stroke="none" />
<circle cx="576.6940159999999" cy="452.134656" r="5" fill="black" stroke="none" />
<circle cx="640.6940159999999" cy="556.134656" r="5" fill="black" stroke="none" />
<circle cx="500" cy="500" r="5" fill="red" stroke="none" />
</svg>