<?xml version="1.0" encoding="UTF-8"?>
<svg xmlns="http://www.w3.org/2000/svg" xmlns:xlink="http://www.w3.org/1999/xlink"
     width="1000" height="1000" viewBox="0 0 1000 1000">
<defs>
</defs>
<rect x="0" y="0" width="1000" height="1000" fill="white" />
<path d="M216.87183200000004,725.162462 L329.0922961497971,635.917240751823" stroke="grey" stroke-width="5" />
<circle cx="329.0922961497971" cy="635.917240751823" r="2.5" fill="grey" stroke="none" />
<path d="M329.0922961497971,635.917240751823 A218.36423601161812,218.36423601161812,0,0,0,336.87183200000004,645.162462" stroke="grey" stroke-width="5" fill="none" />
<circle cx="216.87183200000004" cy="725.162462" r="5" fill="black" stroke="none" />
<circle cx="336.87183200000004" cy="645.162462" r="5" fill="black" stroke="none" />
<path d="M336.87183200000004,645.162462 L361.12022992545633,623.5845997241547" stroke="grey" stroke-width="5" />
<circle cx="361.12022992545633" cy="623.5845997241547" r="2.5" fill="grey" stroke="none" />
<path d="M361.12022992545633,623.5845997241547 A185.90520117774452,185.90520117774452,0,0,1,336.87183200000004,589.162462" stroke="grey" stroke-width="5" fill="none" />
<circle cx="336.87183200000004" cy="645.162462" r="5" fill="black" stroke="none" />
<circle cx="336.87183200000004" cy="589.162462" r="5" fill="black" stroke="none" />
<path d="M336.87183200000004,589.162462 A185.90520117774452,185.90520117774452,0,0,1,323.6585683118834,558.8595217031448" stroke="grey" stroke-width="5" fill="none" />
<path d="M323.6585683118834,558.8595217031448 L232.87183200000004,589.162462" stroke="grey" stroke-width="5" />
<circle cx="323.6585683118834" cy="558.8595217031448" r="2.5" fill="grey" stroke="none" />
<circle cx="336.87183200000004" cy="589.162462" r="5" fill="black" stroke="none" />
<circle cx="232.87183200000004" cy="589.162462" r="5" fill="black" stroke="none" />
<path d="M232.87183200000004,589.162462 L284.0970673766802,572.0644219957939" stroke="grey" stroke-width="5" />
<circle cx="284.0970673766802" cy="572.0644219957939" r="2.5" fill="grey" stroke="none" />
<path d="M284.0970673766802,572.0644219957939 A227.61229587378983,227.61229587378983,0,0,1,272.87183200000004,485.16246200000006" stroke="grey" stroke-width="5" fill="none" />
<circle cx="232.87183200000004" cy="589.162462" r="5" fill="black" stroke="none" />
<circle cx="272.87183200000004" cy="485.162462" r="5" fill="black" stroke="none" />
<path d="M272.87183200000004,485.162462 L345.9584803526409,489.936972937036" stroke="grey" stroke-width="5" />
<circle cx="345.9584803526409" cy="489.936972937036" r="2.5" fill="grey" stroke="none" />
<path d="M345.9584803526409,489.93697293703605 A154.3698619839302,154.3698619839302,0,0,1,384.87183200000004,397.162462" stroke="grey" stroke-width="5" fill="none" />
<circle cx="272.87183200000004" cy="485.162462" r="5" fill="black" stroke="none" />
<circle cx="384.87183200000004" cy="397.162462" r="5" fill="black" stroke="none" />
<path d="M384.87183200000004,397.162462 L422.7767932610732,431.0208388142141" stroke="grey" stroke-width="5" />
<circle cx="422.7767932610732" cy="431.0208388142141" r="2.5" fill="grey" stroke="none" />
<path d="M422.7767932610732,431.0208388142141 A103.54490975870162,103.54490975870162,0,0,1,432.87183200000004,421.162462" stroke="grey" stroke-width="5" fill="none" />
<circle cx="384.87183200000004" cy="397.162462" r="5" fill="black" stroke="none" />
<circle cx="432.87183200000004" cy="421.162462" r="5" fill="black" stroke="none" />
<path d="M432.87183200000004,421.162462 A103.54490975870162,103.54490975870162,0,0,0,411.81150426993804,445.73824958770217" stroke="grey" stroke-width="5" fill="none" />
<path d="M411.81150426993804,445.7382495877021 L384.87183200000004,429.162462" stroke="grey" stroke-width="5" />
<circle cx="411.81150426993804" cy="445.7382495877021" r="2.5" fill="grey" stroke="none" />
<circle cx="432.87183200000004" cy="421.162462" r="5" fill="black" stroke="none" />
<circle cx="384.87183200000004" cy="429.162462" r="5" fill="black" stroke="none" />
<path d="M384.87183200000004,397.162462 L399.1867788951609,409.9492015171188" stroke="grey" stroke-width="5" />
<circle cx="399.1867788951609" cy="409.9492015171188" r="2.5" fill="grey" stroke="none" />
<path d="M399.1867788951609,409.9492015171188 A135.17563336984097,135.17563336984097,0,0,0,384.871832,429.16246200000006" stroke="grey" stroke-width="5" fill="none" />
<circle cx="384.87183200000004" cy="397.162462" r="5" fill="black" stroke="none" />
<circle cx="384.87183200000004" cy="429.162462" r="5" fill="black" stroke="none" />
<path d="M384.871832,429.16246200000006 A135.17563336984097,135.17563336984097,0,0,0,368.9326070270207,533.072501511139" stroke="grey" stroke-width="5" fill="none" />
<path d="M368.9326070270207,533.072501511139 L336.87183200000004,541.162462" stroke="grey" stroke-width="5" />
<circle cx="368.9326070270207" cy="533.072501511139" r="2.5" fill="grey" stroke="none" />
<circle cx="384.87183200000004" cy="429.162462" r="5" fill="black" stroke="none" />
<circle cx="336.87183200000004" cy="541.162462" r="5" fill="black" stroke="none" />
<path d="M272.87183200000004,485.162462 L332.1165097596155,489.0327224141819" stroke="grey" stroke-width="5" />
<circle cx="332.1165097596155" cy="489.0327224141819" r="2.5" fill="grey" stroke="none" />
<path d="M332.1165097596155,489.03272241418193 A168.24133699224356,168.24133699224356,0,0,0,336.87183200000004,541.162462" stroke="grey" stroke-width="5" fill="none" />
<circle cx="272.87183200000004" cy="485.162462" r="5" fill="black" stroke="none" />
<circle cx="336.87183200000004" cy="541.162462" r="5" fill="black" stroke="none" />
<path d="M336.87183200000004,541.162462 A168.24133699224356,168.24133699224356,0,0,0,352.3715263933086,580.6906515867611" stroke="grey" stroke-width="5" fill="none" />
<path d="M352.3715263933086,580.6906515867611 L336.87183200000004,589.162462" stroke="grey" stroke-width="5" />
<circle cx="352.3715263933086" cy="580.6906515867611" r="2.5" fill="grey" stroke="none" />
<circle cx="336.87183200000004" cy="541.162462" r="5" fill="black" stroke="none" />
<circle cx="336.87183200000004" cy="589.162462" r="5" fill="black" stroke="none" />
<path d="M432.87183200000004,421.162462 A103.54490975870162,103.54490975870162,0,0,1,476.9556379943014,399.0519652658459" stroke="grey" stroke-width="5" fill="none" />
<path d="M476.9556379943014,399.0519652658459 L472.87183200000004,381.162462" stroke="grey" stroke-width="5" />
<circle cx="476.9556379943014" cy="399.0519652658459" r="2.5" fill="grey" stroke="none" />
<circle cx="432.87183200000004" cy="421.162462" r="5" fill="black" stroke="none" />
<circle cx="472.87183200000004" cy="381.162462" r="5" fill="black" stroke="none" />
<path d="M432.87183200000004,421.162462 L484.30579113245614,481.56820266605627" stroke="grey" stroke-width="5" />
<circle cx="484.30579113245614" cy="481.56820266605627" r="2.5" fill="grey" stroke="none" />
<path d="M484.30579113245614,481.5682026660563 A24.208249522377002,24.208249522377002,0,0,0,480.87183200000004,485.162462" stroke="grey" stroke-width="5" fill="none" />
<circle cx="432.87183200000004" cy="421.162462" r="5" fill="black" stroke="none" />
<circle cx="480.87183200000004" cy="485.162462" r="5" fill="black" stroke="none" />
<path d="M384.87183200000004,429.162462 L441.447449069552,463.9730343704197" stroke="grey" stroke-width="5" />
<circle cx="441.447449069552" cy="463.9730343704197" r="2.5" fill="grey" stroke="none" />
<path d="M441.447449069552,463.9730343704197 A68.74840705745598,68.74840705745598,0,0,0,432.87183200000004,485.162462" stroke="grey" stroke-width="5" fill="none" />
<circle cx="384.87183200000004" cy="429.162462" r="5" fill="black" stroke="none" />
<circle cx="432.87183200000004" cy="485.162462" r="5" fill="black" stroke="none" />
<path d="M336.87183200000004,541.162462 L381.4504135530782,529.913857962514" stroke="grey" stroke-width="5" />
<circle cx="381.4504135530782" cy="529.913857962514" r="2.5" fill="grey" stroke="none" />
<path d="M381.4504135530782,529.9138579625142 A122.26546260059567,122.26546260059567,0,0,0,384.87183200000004,541.162462" stroke="grey" stroke-width="5" fill="none" />
<circle cx="336.87183200000004" cy="541.162462" r="5" fill="black" stroke="none" />
<circle cx="384.87183200000004" cy="541.162462" r="5" fill="black" stroke="none" />
<path d="M336.87183200000004,589.162462 L402.0669947969054,553.5281426992224" stroke="grey" stroke-width="5" />
<circle cx="402.0669947969054" cy="553.5281426992224" r="2.5" fill="grey" stroke="none" />
<path d="M402.0669947969054,553.5281426992224 A111.6070587773805,111.6070587773805,0,0,0,432.87183200000004,589.162462" stroke="grey" stroke-width="5" fill="none" />
<circle cx="336.87183200000004" cy="589.162462" r="5" fill="black" stroke="none" />
<circle cx="432.87183200000004" cy="589.162462" r="5" fill="black" stroke="none" />
<path d="M336.87183200000004,645.162462 L380.5232081418374,606.3185191780761" stroke="grey" stroke-width="5" />
<circle cx="380.5232081418374" cy="606.3185191780761" r="2.5" fill="grey" stroke="none" />
<path d="M380.5232081418374,606.3185191780761 A159.93227101788327,159.93227101788327,0,0,0,432.87183200000004,645.162462" stroke="grey" stroke-width="5" fill="none" />
<circle cx="336.87183200000004" cy="645.162462" r="5" fill="black" stroke="none" />
<circle cx="432.87183200000004" cy="645.162462" r="5" fill="black" stroke="none" />
<path d="M480.87183200000004,485.162462 A24.208249522377002,24.208249522377002,0,0,0,476.36228226254156,494.775285165494" stroke="grey" stroke-width="5" fill="none" />
<path d="M476.36228226254156,494.775285165494 L432.87183200000004,485.162462" stroke="grey" stroke-width="5" />
<circle cx="476.36228226254156" cy="494.775285165494" r="2.5" fill="grey" stroke="none" />
<circle cx="480.87183200000004" cy="485.162462" r="5" fill="black" stroke="none" />
<circle cx="432.87183200000004" cy="485.162462" r="5" fill="black" stroke="none" />
<path d="M432.87183200000004,485.162462 A68.74840705745598,68.74840705745598,0,0,0,435.2648083187753,523.1451599893531" stroke="grey" stroke-width="5" fill="none" />
<path d="M435.2648083187753,523.1451599893531 L384.87183200000004,541.162462" stroke="grey" stroke-width="5" />
<circle cx="435.2648083187753" cy="523.1451599893531" r="2.5" fill="grey" stroke="none" />
<circle cx="432.87183200000004" cy="485.162462" r="5" fill="black" stroke="none" />
<circle cx="384.87183200000004" cy="541.162462" r="5" fill="black" stroke="none" />
<path d="M384.87183200000004,541.162462 L394.9080472963791,537.574153960902" stroke="grey" stroke-width="5" />
<circle cx="394.9080472963791" cy="537.574153960902" r="2.5" fill="grey" stroke="none" />
<path d="M394.9080472963791,537.5741539609021 A111.6070587773805,111.6070587773805,0,0,0,432.87183200000004,589.162462" stroke="grey" stroke-width="5" fill="none" />
<circle cx="384.87183200000004" cy="541.162462" r="5" fill="black" stroke="none" />
<circle cx="432.87183200000004" cy="589.162462" r="5" fill="black" stroke="none" />
<path d="M432.87183200000004,589.162462 A111.6070587773805,111.6070587773805,0,0,0,453.15531165841986,601.300102384538" stroke="grey" stroke-width="5" fill="none" />
<path d="M453.15531165841986,601.300102384538 L432.87183200000004,645.162462" stroke="grey" stroke-width="5" />
<circle cx="453.15531165841986" cy="601.300102384538" r="2.5" fill="grey" stroke="none" />
<circle cx="432.87183200000004" cy="589.162462" r="5" fill="black" stroke="none" />
<circle cx="432.87183200000004" cy="645.162462" r="5" fill="black" stroke="none" />
<path d="M432.87183200000004,645.162462 A159.93227101788327,159.93227101788327,0,0,0,503.45963899605704,659.8948473558627" stroke="grey" stroke-width="5" fill="none" />
<path d="M503.45963899605704,659.8948473558627 L504.87183200000004,725.162462" stroke="grey" stroke-width="5" />
<circle cx="503.45963899605704" cy="659.8948473558627" r="2.5" fill="grey" stroke="none" />
<circle cx="432.87183200000004" cy="645.162462" r="5" fill="black" stroke="none" />
<circle cx="504.87183200000004" cy="725.162462" r="5" fill="black" stroke="none" />
<path d="M480.87183200000004,485.162462 A24.208249522377002,24.208249522377002,0,0,0,476.32023267373427,505.0307021688413" stroke="grey" stroke-width="5" fill="none" />
<path d="M476.32023267373427,505.0307021688413 L456.87183200000004,509.162462" stroke="grey" stroke-width="5" />
<circle cx="476.32023267373427" cy="505.0307021688413" r="2.5" fill="grey" stroke="none" />
<circle cx="480.87183200000004" cy="485.162462" r="5" fill="black" stroke="none" />
<circle cx="456.87183200000004" cy="509.162462" r="5" fill="black" stroke="none" />
<path d="M456.87183200000004,509.162462 A44.090697260733634,44.090697260733634,0,0,0,462.4130546445516,523.0480177842738" stroke="grey" stroke-width="5" fill="none" />
<path d="M462.4130546445516,523.0480177842738 L432.87183200000004,541.162462" stroke="grey" stroke-width="5" />
<circle cx="462.4130546445516" cy="523.0480177842738" r="2.5" fill="grey" stroke="none" />
<circle cx="456.87183200000004" cy="509.162462" r="5" fill="black" stroke="none" />
<circle cx="432.87183200000004" cy="541.162462" r="5" fill="black" stroke="none" />
<path d="M432.87183200000004,541.162462 A78.74350269665214,78.74350269665214,0,0,0,452.6382369015479,562.9078899117095" stroke="grey" stroke-width="5" fill="none" />
<path d="M452.6382369015479,562.9078899117095 L432.87183200000004,589.162462" stroke="grey" stroke-width="5" />
<circle cx="452.6382369015479" cy="562.9078899117095" r="2.5" fill="grey" stroke="none" />
<circle cx="432.87183200000004" cy="541.162462" r="5" fill="black" stroke="none" />
<circle cx="432.87183200000004" cy="589.162462" r="5" fill="black" stroke="none" />
<path d="M432.87183200000004,485.162462 L456.94841728504207,490.48418102973807" stroke="grey" stroke-width="5" />
<circle cx="456.94841728504207" cy="490.48418102973807" r="2.5" fill="grey" stroke="none" />
<path d="M456.94841728504207,490.48418102973807 A44.090697260733634,44.090697260733634,0,0,0,456.87183200000004,509.162462" stroke="grey" stroke-width="5" fill="none" />
<circle cx="432.87183200000004" cy="485.162462" r="5" fill="black" stroke="none" />
<circle cx="456.87183200000004" cy="509.162462" r="5" fill="black" stroke="none" />
<path d="M384.87183200000004,541.162462 L425.85318032956553,526.5101555955022" stroke="grey" stroke-width="5" />
<circle cx="425.85318032956553" cy="526.5101555955022" r="2.5" fill="grey" stroke="none" />
<path d="M425.85318032956553,526.5101555955022 A78.74350269665214,78.74350269665214,0,0,0,432.87183200000004,541.162462" stroke="grey" stroke-width="5" fill="none" />
<circle cx="384.87183200000004" cy="541.162462" r="5" fill="black" stroke="none" />
<circle cx="432.87183200000004" cy="541.162462" r="5" fill="black" stroke="none" />
<path d="M480.87183200000004,485.162462 A24.208249522377002,24.208249522377002,0,0,0,489.79816312946866,521.9536299824136" stroke="grey" stroke-width="5" fill="none" />
<path d="M489.79816312946866,521.9536299824136 L480.87183200000004,541.162462" stroke="grey" stroke-width="5" />
<circle cx="489.79816312946866" cy="521.9536299824136" r="2.5" fill="grey" stroke="none" />
<circle cx="480.87183200000004" cy="485.162462" r="5" fill="black" stroke="none" />
<circle cx="480.87183200000004" cy="541.162462" r="5" fill="black" stroke="none" />
<path d="M456.87183200000004,509.162462 A44.090697260733634,44.090697260733634,0,0,0,481.4193049957533,539.9843389103387" stroke="grey" stroke-width="5" fill="none" />
<path d="M481.4193049957533,539.9843389103387 L480.87183200000004,541.162462" stroke="grey" stroke-width="5" />
<circle cx="481.4193049957533" cy="539.9843389103387" r="2.5" fill="grey" stroke="none" />
<circle cx="456.87183200000004" cy="509.162462" r="5" fill="black" stroke="none" />
<circle cx="480.87183200000004" cy="541.162462" r="5" fill="black" stroke="none" />
<path d="M432.87183200000004,541.162462 L461.3055698292496,523.727118718854" stroke="grey" stroke-width="5" />
<circle cx="461.3055698292496" cy="523.727118718854" r="2.5" fill="grey" stroke="none" />
<path d="M461.3055698292496,523.727118718854 A45.38981261183688,45.38981261183688,0,0,0,480.87183200000004,541.162462" stroke="grey" stroke-width="5" fill="none" />
<circle cx="432.87183200000004" cy="541.162462" r="5" fill="black" stroke="none" />
<circle cx="480.87183200000004" cy="541.162462" r="5" fill="black" stroke="none" />
<path d="M432.87183200000004,589.162462 L472.69944213319394,536.2617515999826" stroke="grey" stroke-width="5" />
<circle cx="472.69944213319394" cy="536.2617515999826" r="2.5" fill="grey" stroke="none" />
<path d="M472.69944213319394,536.2617515999826 A45.38981261183688,45.38981261183688,0,0,0,480.87183200000004,541.162462" stroke="grey" stroke-width="5" fill="none" />
<circle cx="432.87183200000004" cy="589.162462" r="5" fill="black" stroke="none" />
<circle cx="480.87183200000004" cy="541.162462" r="5" fill="black" stroke="none" />
<path d="M480.87183200000004,541.162462 A45.38981261183688,45.38981261183688,0,0,0,492.4349463503033,544.7549444443279" stroke="grey" stroke-width="5" fill="none" />
<path d="M492.4349463503033,544.7549444443279 L480.87183200000004,613.162462" stroke="grey" stroke-width="5" />
<circle cx="492.4349463503033" cy="544.7549444443279" r="2.5" fill="grey" stroke="none" />
<circle cx="480.87183200000004" cy="541.162462" r="5" fill="black" stroke="none" />
<circle cx="480.87183200000004" cy="613.162462" r="5" fill="black" stroke="none" />
<path d="M480.87183200000004,613.162462 A114.76772027420283,114.76772027420283,0,0,1,451.8286912421682,604.1688755314912" stroke="grey" stroke-width="5" fill="none" />
<path d="M451.8286912421682,604.1688755314912 L432.87183200000004,645.162462" stroke="grey" stroke-width="5" />
<circle cx="451.8286912421682" cy="604.1688755314912" r="2.5" fill="grey" stroke="none" />
<circle cx="480.87183200000004" cy="613.162462" r="5" fill="black" stroke="none" />
<circle cx="432.87183200000004" cy="645.162462" r="5" fill="black" stroke="none" />
<path d="M480.87183200000004,485.162462 A24.208249522377002,24.208249522377002,0,0,1,514.0694283929566,480.29998655753934" stroke="grey" stroke-width="5" fill="none" />
<path d="M514.0694283929566,480.29998655753934 L584.871832,381.162462" stroke="grey" stroke-width="5" />
<circle cx="514.0694283929566" cy="480.29998655753934" r="2.5" fill="grey" stroke="none" />
<circle cx="480.87183200000004" cy="485.162462" r="5" fill="black" stroke="none" />
<circle cx="584.871832" cy="381.162462" r="5" fill="black" stroke="none" />
<path d="M480.87183200000004,485.162462 A24.208249522377002,24.208249522377002,0,0,1,524.122973447138,502.03014704057165" stroke="grey" stroke-width="5" fill="none" />
<path d="M524.122973447138,502.03014704057165 L608.871832,509.162462" stroke="grey" stroke-width="5" />
<circle cx="524.122973447138" cy="502.03014704057165" r="2.5" fill="grey" stroke="none" />
<circle cx="480.87183200000004" cy="485.162462" r="5" fill="black" stroke="none" />
<circle cx="608.871832" cy="509.162462" r="5" fill="black" stroke="none" />
<path d="M608.871832,509.162462 A109.256700082593,109.256700082593,0,0,0,609.1385672870869,505.0793349426564" stroke="grey" stroke-width="5" fill="none" />
<path d="M609.1385672870869,505.0793349426564 L696.871832,509.162462" stroke="grey" stroke-width="5" />
<circle cx="609.1385672870869" cy="505.0793349426564" r="2.5" fill="grey" stroke="none" />
<circle cx="608.871832" cy="509.162462" r="5" fill="black" stroke="none" />
<circle cx="696.871832" cy="509.162462" r="5" fill="black" stroke="none" />
<path d="M480.87183200000004,541.162462 A45.38981261183688,45.38981261183688,0,0,0,513.4048328709339,543.3652573454833" stroke="grey" stroke-width="5" fill="none" />
<path d="M513.4048328709339,543.3652573454833 L544.871832,645.162462" stroke="grey" stroke-width="5" />
<circle cx="513.4048328709339" cy="543.3652573454833" r="2.5" fill="grey" stroke="none" />
<circle cx="480.87183200000004" cy="541.162462" r="5" fill="black" stroke="none" />
<circle cx="544.871832" cy="645.162462" r="5" fill="black" stroke="none" />
<circle cx="500" cy="500" r="5" fill="red" stroke="none" />
</svg>