<?xml version="1.0" encoding="UTF-8"?>
<svg xmlns="http://www.w3.org/2000/svg" xmlns:xlink="http://www.w3.org/1999/xlink"
     width="1000" height="1000" viewBox="0 0 1000 1000">
<defs>
</defs>
<rect x="0" y="0" width="1000" height="1000" fill="white" />
<path d="M262.559744,686.389104 L375.35318912160994,597.846960694317" stroke="grey" stroke-width="5" />
<circle cx="375.35318912160994" cy="597.846960694317" r="2.5" fill="grey" stroke="none" />
<path d="M375.35318912160994,597.846960694317 A158.46405011632243,158.46405011632243,0,0,0,382.55974399999997,606.389104" stroke="grey" stroke-width="5" fill="none" />
<circle cx="262.559744" cy="686.389104" r="5" fill="black" stroke="none" />
<circle cx="382.559744" cy="606.389104" r="5" fill="black" stroke="none" />
<path d="M382.559744,606.389104 L405.2899009976711,585.7978594035853" stroke="grey" stroke-width="5" />
<circle cx="405.2899009976711" cy="585.7978594035853" r="2.5" fill="grey" stroke="none" />
<path d="M405.28990099767105,585.7978594035853 A127.79387908373525,127.79387908373525,0,0,1,382.559744,550.389104" stroke="grey" stroke-width="5" fill="none" />
<circle cx="382.559744" cy="606.389104" r="5" fill="black" stroke="none" />
<circle cx="382.559744" cy="550.389104" r="5" fill="black" stroke="none" />
<path d="M382.559744,550.389104 A127.79387908373525,127.79387908373525,0,0,1,375.39150628827787,528.3548730585071" stroke="grey" stroke-width="5" fill="none" />
<path d="M375.39150628827787,528.3548730585071 L278.559744,550.389104" stroke="grey" stroke-width="5" />
<circle cx="375.39150628827787" cy="528.3548730585071" r="2.5" fill="grey" stroke="none" />
<circle cx="382.559744" cy="550.389104" r="5" fill="black" stroke="none" />
<circle cx="278.559744" cy="550.389104" r="5" fill="black" stroke="none" />
<path d="M278.559744,550.389104 L315.5210048755447,541.9785067044976" stroke="grey" stroke-width="5" />
<circle cx="315.5210048755447" cy="541.9785067044976" r="2.5" fill="grey" stroke="none" />
<path d="M315.5210048755447,541.9785067044977 A189.19485898741632,189.19485898741632,0,0,1,318.559744,446.389104" stroke="grey" stroke-width="5" fill="none" />
<circle cx="278.559744" cy="550.389104" r="5" fill="black" stroke="none" />
<circle cx="318.559744" cy="446.389104" r="5" fill="black" stroke="none" />
<path d="M318.559744,446.389104 L348.7445410256346,455.30792967737557" stroke="grey" stroke-width="5" />
<circle cx="348.7445410256346" cy="455.30792967737557" r="2.5" fill="grey" stroke="none" />
<path d="M348.7445410256346,455.30792967737557 A157.7199892824887,157.7199892824887,0,0,1,430.559744,358.389104" stroke="grey" stroke-width="5" fill="none" />
<circle cx="318.559744" cy="446.389104" r="5" fill="black" stroke="none" />
<circle cx="430.559744" cy="358.389104" r="5" fill="black" stroke="none" />
<path d="M430.559744,358.389104 L447.36541645106087,392.66124628123305" stroke="grey" stroke-width="5" />
<circle cx="447.36541645106087" cy="392.66124628123305" r="2.5" fill="grey" stroke="none" />
<path d="M447.36541645106087,392.66124628123305 A119.54918416814209,119.54918416814209,0,0,1,478.559744,382.389104" stroke="grey" stroke-width="5" fill="none" />
<circle cx="430.559744" cy="358.389104" r="5" fill="black" stroke="none" />
<circle cx="478.559744" cy="382.389104" r="5" fill="black" stroke="none" />
<path d="M478.559744,382.389104 A119.54918416814209,119.54918416814209,0,0,0,436.02179478450523,399.01090805105537" stroke="grey" stroke-width="5" fill="none" />
<path d="M436.02179478450523,399.01090805105537 L430.559744,390.389104" stroke="grey" stroke-width="5" />
<circle cx="436.02179478450523" cy="399.01090805105537" r="2.5" fill="grey" stroke="none" />
<circle cx="478.559744" cy="382.389104" r="5" fill="black" stroke="none" />
<circle cx="430.559744" cy="390.389104" r="5" fill="black" stroke="none" />
<path d="M430.559744,358.389104 L442.87181167741585,383.4973486385494" stroke="grey" stroke-width="5" />
<circle cx="442.87181167741585" cy="383.4973486385494" r="2.5" fill="grey" stroke="none" />
<path d="M442.87181167741585,383.4973486385494 A129.75553042266966,129.75553042266966,0,0,0,430.559744,390.389104" stroke="grey" stroke-width="5" fill="none" />
<circle cx="430.559744" cy="358.389104" r="5" fill="black" stroke="none" />
<circle cx="430.559744" cy="390.389104" r="5" fill="black" stroke="none" />
<path d="M430.559744,390.389104 L437.1374098358294,400.77189760395567" stroke="grey" stroke-width="5" />
<circle cx="437.1374098358294" cy="400.77189760395567" r="2.5" fill="grey" stroke="none" />
<path d="M437.1374098358294,400.77189760395567 A117.464554429276,117.464554429276,0,0,0,382.559744,502.389104" stroke="grey" stroke-width="5" fill="none" />
<circle cx="430.559744" cy="390.389104" r="5" fill="black" stroke="none" />
<circle cx="382.559744" cy="502.389104" r="5" fill="black" stroke="none" />
<path d="M318.559744,446.389104 L387.3500107738587,466.71484603282425" stroke="grey" stroke-width="5" />
<circle cx="387.3500107738587" cy="466.71484603282425" r="2.5" fill="grey" stroke="none" />
<path d="M387.3500107738587,466.71484603282425 A117.464554429276,117.464554429276,0,0,0,382.559744,502.389104" stroke="grey" stroke-width="5" fill="none" />
<circle cx="318.559744" cy="446.389104" r="5" fill="black" stroke="none" />
<circle cx="382.559744" cy="502.389104" r="5" fill="black" stroke="none" />
<path d="M382.559744,502.389104 A117.464554429276,117.464554429276,0,0,0,392.05220592716285,546.316253109213" stroke="grey" stroke-width="5" fill="none" />
<path d="M392.05220592716285,546.316253109213 L382.559744,550.389104" stroke="grey" stroke-width="5" />
<circle cx="392.05220592716285" cy="546.316253109213" r="2.5" fill="grey" stroke="none" />
<circle cx="382.559744" cy="502.389104" r="5" fill="black" stroke="none" />
<circle cx="382.559744" cy="550.389104" r="5" fill="black" stroke="none" />
<path d="M478.559744,382.389104 A119.54918416814209,119.54918416814209,0,0,1,513.9811193141259,381.2711672002435" stroke="grey" stroke-width="5" fill="none" />
<path d="M513.9811193141259,381.2711672002435 L518.559744,342.389104" stroke="grey" stroke-width="5" />
<circle cx="513.9811193141259" cy="381.2711672002435" r="2.5" fill="grey" stroke="none" />
<circle cx="478.559744" cy="382.389104" r="5" fill="black" stroke="none" />
<circle cx="518.559744" cy="342.389104" r="5" fill="black" stroke="none" />
<path d="M478.559744,382.389104 L489.2700559971585,441.14070614623176" stroke="grey" stroke-width="5" />
<circle cx="489.2700559971585" cy="441.14070614623176" r="2.5" fill="grey" stroke="none" />
<path d="M489.27005599715847,441.14070614623176 A59.829325345254865,59.829325345254865,0,0,1,526.559744,446.389104" stroke="grey" stroke-width="5" fill="none" />
<circle cx="478.559744" cy="382.389104" r="5" fill="black" stroke="none" />
<circle cx="526.559744" cy="446.389104" r="5" fill="black" stroke="none" />
<path d="M430.559744,390.389104 L469.1001737554063,451.22486816704367" stroke="grey" stroke-width="5" />
<circle cx="469.1001737554063" cy="451.22486816704367" r="2.5" fill="grey" stroke="none" />
<path d="M469.1001737554063,451.22486816704367 A57.73917861615589,57.73917861615589,0,0,1,478.559744,446.389104" stroke="grey" stroke-width="5" fill="none" />
<circle cx="430.559744" cy="390.389104" r="5" fill="black" stroke="none" />
<circle cx="478.559744" cy="446.389104" r="5" fill="black" stroke="none" />
<path d="M382.559744,502.389104 L430.5330301271746,501.4131765481765" stroke="grey" stroke-width="5" />
<circle cx="430.5330301271746" cy="501.4131765481765" r="2.5" fill="grey" stroke="none" />
<path d="M430.5330301271746,501.4131765481765 A69.4813426127356,69.4813426127356,0,0,0,430.559744,502.3891039999999" stroke="grey" stroke-width="5" fill="none" />
<circle cx="382.559744" cy="502.389104" r="5" fill="black" stroke="none" />
<circle cx="430.559744" cy="502.389104" r="5" fill="black" stroke="none" />
<path d="M382.559744,550.389104 L449.67580870411064,521.5921779745138" stroke="grey" stroke-width="5" />
<circle cx="449.67580870411064" cy="521.5921779745138" r="2.5" fill="grey" stroke="none" />
<path d="M449.67580870411064,521.5921779745138 A54.76081061551544,54.76081061551544,0,0,0,478.559744,550.389104" stroke="grey" stroke-width="5" fill="none" />
<circle cx="382.559744" cy="550.389104" r="5" fill="black" stroke="none" />
<circle cx="478.559744" cy="550.389104" r="5" fill="black" stroke="none" />
<path d="M382.559744,606.389104 L419.5681564091353,572.8631907333396" stroke="grey" stroke-width="5" />
<circle cx="419.5681564091353" cy="572.8631907333396" r="2.5" fill="grey" stroke="none" />
<path d="M419.5681564091353,572.8631907333396 A108.527996513657,108.527996513657,0,0,0,478.559744,606.389104" stroke="grey" stroke-width="5" fill="none" />
<circle cx="382.559744" cy="606.389104" r="5" fill="black" stroke="none" />
<circle cx="478.559744" cy="606.389104" r="5" fill="black" stroke="none" />
<path d="M526.559744,446.389104 L525.6318752378678,448.2620089387041" stroke="grey" stroke-width="5" />
<circle cx="525.6318752378678" cy="448.2620089387041" r="2.5" fill="grey" stroke="none" />
<path d="M525.6318752378678,448.2620089387041 A57.73917861615589,57.73917861615589,0,0,0,478.559744,446.389104" stroke="grey" stroke-width="5" fill="none" />
<circle cx="526.559744" cy="446.389104" r="5" fill="black" stroke="none" />
<circle cx="478.559744" cy="446.389104" r="5" fill="black" stroke="none" />
<path d="M478.559744,446.389104 A57.73917861615589,57.73917861615589,0,0,0,442.2949644671852,501.9853517131559" stroke="grey" stroke-width="5" fill="none" />
<path d="M442.2949644671852,501.985351713156 L430.559744,502.389104" stroke="grey" stroke-width="5" />
<circle cx="442.2949644671852" cy="501.985351713156" r="2.5" fill="grey" stroke="none" />
<circle cx="478.559744" cy="446.389104" r="5" fill="black" stroke="none" />
<circle cx="430.559744" cy="502.389104" r="5" fill="black" stroke="none" />
<path d="M430.559744,502.389104 L445.2715712604565,501.882941042374" stroke="grey" stroke-width="5" />
<circle cx="445.2715712604565" cy="501.882941042374" r="2.5" fill="grey" stroke="none" />
<path d="M445.2715712604565,501.88294104237394 A54.76081061551544,54.76081061551544,0,0,0,478.559744,550.389104" stroke="grey" stroke-width="5" fill="none" />
<circle cx="430.559744" cy="502.389104" r="5" fill="black" stroke="none" />
<circle cx="478.559744" cy="550.389104" r="5" fill="black" stroke="none" />
<path d="M478.559744,550.389104 A54.76081061551544,54.76081061551544,0,0,0,489.1817241994657,553.6815730765402" stroke="grey" stroke-width="5" fill="none" />
<path d="M489.1817241994657,553.6815730765402 L478.559744,606.389104" stroke="grey" stroke-width="5" />
<circle cx="489.1817241994657" cy="553.6815730765402" r="2.5" fill="grey" stroke="none" />
<circle cx="478.559744" cy="550.389104" r="5" fill="black" stroke="none" />
<circle cx="478.559744" cy="606.389104" r="5" fill="black" stroke="none" />
<path d="M478.559744,606.389104 A108.527996513657,108.527996513657,0,0,0,528.4124457850179,604.7428229129889" stroke="grey" stroke-width="5" fill="none" />
<path d="M528.4124457850179,604.7428229129889 L550.559744,686.389104" stroke="grey" stroke-width="5" />
<circle cx="528.4124457850179" cy="604.7428229129889" r="2.5" fill="grey" stroke="none" />
<circle cx="478.559744" cy="606.389104" r="5" fill="black" stroke="none" />
<circle cx="550.559744" cy="686.389104" r="5" fill="black" stroke="none" />
<path d="M526.559744,446.389104 L513.1940467160065,473.3677905061523" stroke="grey" stroke-width="5" />
<circle cx="513.1940467160065" cy="473.3677905061523" r="2.5" fill="grey" stroke="none" />
<path d="M513.1940467160065,473.3677905061523 A29.72132990410008,29.72132990410008,0,0,0,502.559744,470.389104" stroke="grey" stroke-width="5" fill="none" />
<circle cx="526.559744" cy="446.389104" r="5" fill="black" stroke="none" />
<circle cx="502.559744" cy="470.389104" r="5" fill="black" stroke="none" />
<path d="M502.559744,470.389104 L501.8579667453176,478.5072022565315" stroke="grey" stroke-width="5" />
<circle cx="501.8579667453176" cy="478.5072022565315" r="2.5" fill="grey" stroke="none" />
<path d="M501.8579667453176,478.5072022565315 A21.57295518162384,21.57295518162384,0,0,0,478.559744,502.389104" stroke="grey" stroke-width="5" fill="none" />
<circle cx="502.559744" cy="470.389104" r="5" fill="black" stroke="none" />
<circle cx="478.559744" cy="502.389104" r="5" fill="black" stroke="none" />
<path d="M478.559744,502.389104 A21.57295518162384,21.57295518162384,0,0,0,491.5536370522701,519.8507266422055" stroke="grey" stroke-width="5" fill="none" />
<path d="M491.5536370522701,519.8507266422055 L478.559744,550.389104" stroke="grey" stroke-width="5" />
<circle cx="491.5536370522701" cy="519.8507266422055" r="2.5" fill="grey" stroke="none" />
<circle cx="478.559744" cy="502.389104" r="5" fill="black" stroke="none" />
<circle cx="478.559744" cy="550.389104" r="5" fill="black" stroke="none" />
<path d="M478.559744,446.389104 L488.9635956541637,472.4037098438294" stroke="grey" stroke-width="5" />
<circle cx="488.9635956541637" cy="472.4037098438294" r="2.5" fill="grey" stroke="none" />
<path d="M488.9635956541637,472.4037098438294 A29.72132990410008,29.72132990410008,0,0,1,502.559744,470.389104" stroke="grey" stroke-width="5" fill="none" />
<circle cx="478.559744" cy="446.389104" r="5" fill="black" stroke="none" />
<circle cx="502.559744" cy="470.389104" r="5" fill="black" stroke="none" />
<path d="M430.559744,502.389104 L478.4398016192925,500.7417823487307" stroke="grey" stroke-width="5" />
<circle cx="478.4398016192925" cy="500.7417823487307" r="2.5" fill="grey" stroke="none" />
<path d="M478.4398016192925,500.7417823487307 A21.57295518162384,21.57295518162384,0,0,0,478.559744,502.389104" stroke="grey" stroke-width="5" fill="none" />
<circle cx="430.559744" cy="502.389104" r="5" fill="black" stroke="none" />
<circle cx="478.559744" cy="502.389104" r="5" fill="black" stroke="none" />
<path d="M526.559744,446.389104 L511.8381438608251,476.1046831115642" stroke="grey" stroke-width="5" />
<circle cx="511.8381438608251" cy="476.1046831115642" r="2.5" fill="grey" stroke="none" />
<path d="M511.8381438608251,476.1046831115642 A26.666979942774795,26.666979942774795,0,0,1,526.559744,502.389104" stroke="grey" stroke-width="5" fill="none" />
<circle cx="526.559744" cy="446.389104" r="5" fill="black" stroke="none" />
<circle cx="526.559744" cy="502.389104" r="5" fill="black" stroke="none" />
<path d="M502.559744,470.389104 L502.29668867869947,473.43210508185706" stroke="grey" stroke-width="5" />
<circle cx="502.29668867869947" cy="473.43210508185706" r="2.5" fill="grey" stroke="none" />
<path d="M502.29668867869947,473.43210508185706 A26.666979942774795,26.666979942774795,0,0,1,526.559744,502.389104" stroke="grey" stroke-width="5" fill="none" />
<circle cx="502.559744" cy="470.389104" r="5" fill="black" stroke="none" />
<circle cx="526.559744" cy="502.389104" r="5" fill="black" stroke="none" />
<path d="M478.559744,502.389104 A21.57295518162384,21.57295518162384,0,0,0,521.4862038437407,501.93272855144596" stroke="grey" stroke-width="5" fill="none" />
<path d="M521.4862038437407,501.93272855144596 L526.559744,502.389104" stroke="grey" stroke-width="5" />
<circle cx="521.4862038437407" cy="501.93272855144596" r="2.5" fill="grey" stroke="none" />
<circle cx="478.559744" cy="502.389104" r="5" fill="black" stroke="none" />
<circle cx="526.559744" cy="502.389104" r="5" fill="black" stroke="none" />
<path d="M478.559744,550.389104 L489.5591962519641,524.5380813504918" stroke="grey" stroke-width="5" />
<circle cx="489.5591962519641" cy="524.5380813504918" r="2.5" fill="grey" stroke="none" />
<path d="M489.5591962519641,524.5380813504918 A26.666979942774795,26.666979942774795,0,0,0,526.559744,502.389104" stroke="grey" stroke-width="5" fill="none" />
<circle cx="478.559744" cy="550.389104" r="5" fill="black" stroke="none" />
<circle cx="526.559744" cy="502.389104" r="5" fill="black" stroke="none" />
<path d="M526.559744,502.389104 A26.666979942774795,26.666979942774795,0,0,1,508.96674252450333,525.1142459127806" stroke="grey" stroke-width="5" fill="none" />
<path d="M508.96674252450333,525.1142459127806 L526.559744,574.389104" stroke="grey" stroke-width="5" />
<circle cx="508.96674252450333" cy="525.1142459127806" r="2.5" fill="grey" stroke="none" />
<circle cx="526.559744" cy="502.389104" r="5" fill="black" stroke="none" />
<circle cx="526.559744" cy="574.389104" r="5" fill="black" stroke="none" />
<path d="M526.559744,574.389104 A78.98834594589476,78.98834594589476,0,0,1,484.39545174978485,577.4316270601041" stroke="grey" stroke-width="5" fill="none" />
<path d="M484.39545174978485,577.4316270601041 L478.559744,606.389104" stroke="grey" stroke-width="5" />
<circle cx="484.39545174978485" cy="577.4316270601041" r="2.5" fill="grey" stroke="none" />
<circle cx="526.559744" cy="574.389104" r="5" fill="black" stroke="none" />
<circle cx="478.559744" cy="606.389104" r="5" fill="black" stroke="none" />
<path d="M526.559744,446.389104 A59.829325345254865,59.829325345254865,0,0,1,538.1666070022395,453.9255137716658" stroke="grey" stroke-width="5" fill="none" />
<path d="M538.1666070022395,453.9255137716658 L630.559744,342.389104" stroke="grey" stroke-width="5" />
<circle cx="538.1666070022395" cy="453.9255137716658" r="2.5" fill="grey" stroke="none" />
<circle cx="526.559744" cy="446.389104" r="5" fill="black" stroke="none" />
<circle cx="630.559744" cy="342.389104" r="5" fill="black" stroke="none" />
<path d="M526.559744,446.389104 A59.829325345254865,59.829325345254865,0,0,1,558.7606745934957,488.742500606899" stroke="grey" stroke-width="5" fill="none" />
<path d="M558.7606745934957,488.742500606899 L654.559744,470.389104" stroke="grey" stroke-width="5" />
<circle cx="558.7606745934957" cy="488.742500606899" r="2.5" fill="grey" stroke="none" />
<circle cx="526.559744" cy="446.389104" r="5" fill="black" stroke="none" />
<circle cx="654.559744" cy="470.389104" r="5" fill="black" stroke="none" />
<path d="M654.559744,470.389104 A157.37064410895815,157.37064410895815,0,0,1,656.2109643151294,480.9302791051964" stroke="grey" stroke-width="5" fill="none" />
<path d="M656.2109643151294,480.9302791051964 L742.559744,470.389104" stroke="grey" stroke-width="5" />
<circle cx="656.2109643151294" cy="480.9302791051964" r="2.5" fill="grey" stroke="none" />
<circle cx="654.559744" cy="470.389104" r="5" fill="black" stroke="none" />
<circle cx="742.559744" cy="470.389104" r="5" fill="black" stroke="none" />
<path d="M526.559744,502.389104 A26.666979942774795,26.666979942774795,0,0,1,517.2851182313872,520.3064646601845" stroke="grey" stroke-width="5" fill="none" />
<path d="M517.2851182313872,520.3064646601845 L590.559744,606.389104" stroke="grey" stroke-width="5" />
<circle cx="517.2851182313872" cy="520.3064646601845" r="2.5" fill="grey" stroke="none" />
<circle cx="526.559744" cy="502.389104" r="5" fill="black" stroke="none" />
<circle cx="590.559744" cy="606.389104" r="5" fill="black" stroke="none" />
<circle cx="500" cy="500" r="5" fill="red" stroke="none" />
</svg>