<?xml version="1.0" encoding="UTF-8"?>
<svg xmlns="http://www.w3.org/2000/svg" xmlns:xlink="http://www.w3.org/1999/xlink"
     width="1000" height="1000" viewBox="0 0 1000 1000">
<defs>
</defs>
<rect x="0" y="0" width="1000" height="1000" fill="white" />
<path d="M228.125,723.78125 L338.52564150222355,632.9101012876525" stroke="grey" stroke-width="5" />
<circle cx="338.52564150222355" cy="632.9101012876525" r="2.5" fill="grey" stroke="none" />
<path d="M338.52564150222355,632.9101012876525 A209.1388617081065,209.1388617081065,0,0,0,348.1249999999999,643.78125" stroke="grey" stroke-width="5" fill="none" />
<circle cx="228.125" cy="723.78125" r="5" fill="black" stroke="none" />
<circle cx="348.125" cy="643.78125" r="5" fill="black" stroke="none" />
<path d="M348.125,643.78125 L372.6126414149735,620.5986084052895" stroke="grey" stroke-width="5" />
<circle cx="372.6126414149735" cy="620.5986084052895" r="2.5" fill="grey" stroke="none" />
<path d="M372.6126414149734,620.5986084052895 A175.41825297431993,175.41825297431993,0,0,1,348.125,587.78125" stroke="grey" stroke-width="5" fill="none" />
<circle cx="348.125" cy="643.78125" r="5" fill="black" stroke="none" />
<circle cx="348.125" cy="587.78125" r="5" fill="black" stroke="none" />
<path d="M348.125,587.78125 A175.41825297431993,175.41825297431993,0,0,1,334.07429767453254,556.9229723781434" stroke="grey" stroke-width="5" fill="none" />
<path d="M334.07429767453254,556.9229723781434 L-255.875,87.78125" stroke="grey" stroke-width="5" />
<circle cx="334.07429767453254" cy="556.9229723781434" r="2.5" fill="grey" stroke="none" />
<circle cx="348.125" cy="587.78125" r="5" fill="black" stroke="none" />
<circle cx="244.125" cy="587.78125" r="5" fill="black" stroke="none" />
<path d="M244.125,587.78125 L295.23134017485984,570.2485546469002" stroke="grey" stroke-width="5" />
<circle cx="295.23134017485984" cy="570.2485546469002" r="2.5" fill="grey" stroke="none" />
<path d="M295.23134017485984,570.2485546469002 A216.48340231196133,216.48340231196133,0,0,1,284.125,483.78124999999994" stroke="grey" stroke-width="5" fill="none" />
<circle cx="244.125" cy="587.78125" r="5" fill="black" stroke="none" />
<circle cx="284.125" cy="483.78125" r="5" fill="black" stroke="none" />
<path d="M284.125,483.78125 L353.2688311668828,488.9760456536787" stroke="grey" stroke-width="5" />
<circle cx="353.2688311668828" cy="488.9760456536787" r="2.5" fill="grey" stroke="none" />
<path d="M353.2688311668829,488.9760456536786 A147.14470250934113,147.14470250934113,0,0,1,396.125,395.78125" stroke="grey" stroke-width="5" fill="none" />
<circle cx="284.125" cy="483.78125" r="5" fill="black" stroke="none" />
<circle cx="396.125" cy="395.78125" r="5" fill="black" stroke="none" />
<path d="M396.125,395.78125 L430.9873600619559,430.7589788828589" stroke="grey" stroke-width="5" />
<circle cx="430.9873600619559" cy="430.7589788828589" r="2.5" fill="grey" stroke="none" />
<path d="M430.9873600619559,430.7589788828589 A97.76023463843823,97.76023463843823,0,0,1,444.125,419.78125" stroke="grey" stroke-width="5" fill="none" />
<circle cx="396.125" cy="395.78125" r="5" fill="black" stroke="none" />
<circle cx="444.125" cy="419.78125" r="5" fill="black" stroke="none" />
<path d="M444.125,419.78125 A97.76023463843823,97.76023463843823,0,0,0,419.73286016447884,444.19453665466625" stroke="grey" stroke-width="5" fill="none" />
<path d="M419.73286016447884,444.19453665466625 L-103.875,-72.21875" stroke="grey" stroke-width="5" />
<circle cx="419.73286016447884" cy="444.19453665466625" r="2.5" fill="grey" stroke="none" />
<circle cx="444.125" cy="419.78125" r="5" fill="black" stroke="none" />
<circle cx="396.125" cy="427.78125" r="5" fill="black" stroke="none" />
<path d="M396.125,395.78125 L410.68962980051367,410.3940780339089" stroke="grey" stroke-width="5" />
<circle cx="410.68962980051367" cy="410.3940780339089" r="2.5" fill="grey" stroke="none" />
<path d="M410.68962980051367,410.3940780339089 A126.51309606741312,126.51309606741312,0,0,0,396.125,427.78125" stroke="grey" stroke-width="5" fill="none" />
<circle cx="396.125" cy="395.78125" r="5" fill="black" stroke="none" />
<circle cx="396.125" cy="427.78125" r="5" fill="black" stroke="none" />
<path d="M396.125,427.78125 A126.51309606741312,126.51309606741312,0,0,0,377.6156267197716,532.0566475690804" stroke="grey" stroke-width="5" fill="none" />
<path d="M377.6156267197716,532.0566475690804 L-151.875,39.78125" stroke="grey" stroke-width="5" />
<circle cx="377.6156267197716" cy="532.0566475690804" r="2.5" fill="grey" stroke="none" />
<circle cx="396.125" cy="427.78125" r="5" fill="black" stroke="none" />
<circle cx="348.125" cy="539.78125" r="5" fill="black" stroke="none" />
<path d="M284.125,483.78125 L343.4426171851819,488.2377994092515" stroke="grey" stroke-width="5" />
<circle cx="343.4426171851819" cy="488.2377994092515" r="2.5" fill="grey" stroke="none" />
<path d="M343.4426171851819,488.23779940925147 A156.99860979181472,156.99860979181472,0,0,0,348.125,539.78125" stroke="grey" stroke-width="5" fill="none" />
<circle cx="284.125" cy="483.78125" r="5" fill="black" stroke="none" />
<circle cx="348.125" cy="539.78125" r="5" fill="black" stroke="none" />
<path d="M348.125,539.78125 A156.99860979181472,156.99860979181472,0,0,0,364.07250409897483,578.563855141148" stroke="grey" stroke-width="5" fill="none" />
<path d="M364.07250409897483,578.563855141148 L-151.875,87.78125" stroke="grey" stroke-width="5" />
<circle cx="364.07250409897483" cy="578.563855141148" r="2.5" fill="grey" stroke="none" />
<circle cx="348.125" cy="539.78125" r="5" fill="black" stroke="none" />
<circle cx="348.125" cy="587.78125" r="5" fill="black" stroke="none" />
<path d="M444.125,419.78125 A97.76023463843823,97.76023463843823,0,0,1,487.20177028608254,403.0811226192116" stroke="grey" stroke-width="5" fill="none" />
<path d="M487.20177028608254,403.0811226192116 L-15.875,-120.21875" stroke="grey" stroke-width="5" />
<circle cx="487.20177028608254" cy="403.0811226192116" r="2.5" fill="grey" stroke="none" />
<circle cx="444.125" cy="419.78125" r="5" fill="black" stroke="none" />
<circle cx="484.125" cy="379.78125" r="5" fill="black" stroke="none" />
<path d="M444.125,419.78125 L489.69520423377503,485.20558683898236" stroke="grey" stroke-width="5" />
<circle cx="489.69520423377503" cy="485.20558683898236" r="2.5" fill="grey" stroke="none" />
<path d="M489.69520423377503,485.20558683898236 A18.02951681444902,18.02951681444902,0,0,1,492.125,483.78125" stroke="grey" stroke-width="5" fill="none" />
<circle cx="444.125" cy="419.78125" r="5" fill="black" stroke="none" />
<circle cx="492.125" cy="483.78125" r="5" fill="black" stroke="none" />
<path d="M396.125,427.78125 L452.22959082530184,466.78778110627934" stroke="grey" stroke-width="5" />
<circle cx="452.22959082530184" cy="466.78778110627934" r="2.5" fill="grey" stroke="none" />
<path d="M452.22959082530184,466.78778110627934 A58.18129834029574,58.18129834029574,0,0,0,444.125,483.78125" stroke="grey" stroke-width="5" fill="none" />
<circle cx="396.125" cy="427.78125" r="5" fill="black" stroke="none" />
<circle cx="444.125" cy="483.78125" r="5" fill="black" stroke="none" />
<path d="M348.125,539.78125 L392.39800351496535,528.1846381739607" stroke="grey" stroke-width="5" />
<circle cx="392.39800351496535" cy="528.1846381739607" r="2.5" fill="grey" stroke="none" />
<path d="M392.39800351496535,528.1846381739607 A111.23202540888347,111.23202540888347,0,0,0,396.125,539.78125" stroke="grey" stroke-width="5" fill="none" />
<circle cx="348.125" cy="539.78125" r="5" fill="black" stroke="none" />
<circle cx="396.125" cy="539.78125" r="5" fill="black" stroke="none" />
<path d="M348.125,587.78125 L409.909939471974,552.0705720212397" stroke="grey" stroke-width="5" />
<circle cx="409.909939471974" cy="552.0705720212397" r="2.5" fill="grey" stroke="none" />
<path d="M409.909939471974,552.0705720212397 A104.05557878635099,104.05557878635099,0,0,0,444.125,587.78125" stroke="grey" stroke-width="5" fill="none" />
<circle cx="348.125" cy="587.78125" r="5" fill="black" stroke="none" />
<circle cx="444.125" cy="587.78125" r="5" fill="black" stroke="none" />
<path d="M348.125,643.78125 L387.98015050082824,606.0500673962323" stroke="grey" stroke-width="5" />
<circle cx="387.98015050082824" cy="606.0500673962323" r="2.5" fill="grey" stroke="none" />
<path d="M387.98015050082824,606.0500673962323 A154.25648601132627,154.25648601132627,0,0,0,444.12500000000006,643.78125" stroke="grey" stroke-width="5" fill="none" />
<circle cx="348.125" cy="643.78125" r="5" fill="black" stroke="none" />
<circle cx="444.125" cy="643.78125" r="5" fill="black" stroke="none" />
<path d="M492.125,483.78125 A18.02951681444902,18.02951681444902,0,0,0,482.6851706519993,494.97405121274477" stroke="grey" stroke-width="5" fill="none" />
<path d="M482.6851706519993,494.97405121274477 L-55.875,-16.21875" stroke="grey" stroke-width="5" />
<circle cx="482.6851706519993" cy="494.97405121274477" r="2.5" fill="grey" stroke="none" />
<circle cx="492.125" cy="483.78125" r="5" fill="black" stroke="none" />
<circle cx="444.125" cy="483.78125" r="5" fill="black" stroke="none" />
<path d="M444.125,483.78125 A58.18129834029574,58.18129834029574,0,0,0,445.6668855675125,520.8080790230315" stroke="grey" stroke-width="5" fill="none" />
<path d="M445.6668855675125,520.8080790230315 L-103.875,39.78125" stroke="grey" stroke-width="5" />
<circle cx="445.6668855675125" cy="520.8080790230315" r="2.5" fill="grey" stroke="none" />
<circle cx="444.125" cy="483.78125" r="5" fill="black" stroke="none" />
<circle cx="396.125" cy="539.78125" r="5" fill="black" stroke="none" />
<path d="M396.125,539.78125 L402.8267874589203,537.2146508919358" stroke="grey" stroke-width="5" />
<circle cx="402.8267874589203" cy="537.2146508919358" r="2.5" fill="grey" stroke="none" />
<path d="M402.8267874589203,537.2146508919358 A104.05557878635099,104.05557878635099,0,0,0,444.125,587.78125" stroke="grey" stroke-width="5" fill="none" />
<circle cx="396.125" cy="539.78125" r="5" fill="black" stroke="none" />
<circle cx="444.125" cy="587.78125" r="5" fill="black" stroke="none" />
<path d="M444.125,587.78125 A104.05557878635099,104.05557878635099,0,0,0,462.30884279147614,596.9893816087351" stroke="grey" stroke-width="5" fill="none" />
<path d="M462.30884279147614,596.9893816087351 L-55.875,143.78125" stroke="grey" stroke-width="5" />
<circle cx="462.30884279147614" cy="596.9893816087351" r="2.5" fill="grey" stroke="none" />
<circle cx="444.125" cy="587.78125" r="5" fill="black" stroke="none" />
<circle cx="444.125" cy="643.78125" r="5" fill="black" stroke="none" />
<path d="M444.12500000000006,643.78125 A154.25648601132627,154.25648601132627,0,0,0,511.08651132856505,653.8575729144461" stroke="grey" stroke-width="5" fill="none" />
<path d="M511.08651132856505,653.8575729144461 L16.125,223.78125" stroke="grey" stroke-width="5" />
<circle cx="511.08651132856505" cy="653.8575729144461" r="2.5" fill="grey" stroke="none" />
<circle cx="444.125" cy="643.78125" r="5" fill="black" stroke="none" />
<circle cx="516.125" cy="723.78125" r="5" fill="black" stroke="none" />
<path d="M492.125,483.78125 A18.02951681444902,18.02951681444902,0,0,0,482.48482582416256,504.2757631076309" stroke="grey" stroke-width="5" fill="none" />
<path d="M482.48482582416256,504.2757631076309 L-31.875,7.78125" stroke="grey" stroke-width="5" />
<circle cx="482.48482582416256" cy="504.2757631076309" r="2.5" fill="grey" stroke="none" />
<circle cx="492.125" cy="483.78125" r="5" fill="black" stroke="none" />
<circle cx="468.125" cy="507.78125" r="5" fill="black" stroke="none" />
<path d="M468.125,507.78125 A32.81102675264064,32.81102675264064,0,0,0,473.2713089730641,519.0299908709673" stroke="grey" stroke-width="5" fill="none" />
<path d="M473.2713089730641,519.0299908709673 L-55.875,39.78125" stroke="grey" stroke-width="5" />
<circle cx="473.2713089730641" cy="519.0299908709673" r="2.5" fill="grey" stroke="none" />
<circle cx="468.125" cy="507.78125" r="5" fill="black" stroke="none" />
<circle cx="444.125" cy="539.78125" r="5" fill="black" stroke="none" />
<path d="M444.125,539.78125 A68.58982050248053,68.58982050248053,0,0,0,463.1691422480579,557.8623486718151" stroke="grey" stroke-width="5" fill="none" />
<path d="M463.1691422480579,557.8623486718151 L-55.875,87.78125" stroke="grey" stroke-width="5" />
<circle cx="463.1691422480579" cy="557.8623486718151" r="2.5" fill="grey" stroke="none" />
<circle cx="444.125" cy="539.78125" r="5" fill="black" stroke="none" />
<circle cx="444.125" cy="587.78125" r="5" fill="black" stroke="none" />
<path d="M444.125,483.78125 L468.48959765248037,490.8535241508039" stroke="grey" stroke-width="5" />
<circle cx="468.48959765248037" cy="490.8535241508039" r="2.5" fill="grey" stroke="none" />
<path d="M468.48959765248037,490.8535241508039 A32.81102675264064,32.81102675264064,0,0,0,468.125,507.78125" stroke="grey" stroke-width="5" fill="none" />
<circle cx="444.125" cy="483.78125" r="5" fill="black" stroke="none" />
<circle cx="468.125" cy="507.78125" r="5" fill="black" stroke="none" />
<path d="M396.125,539.78125 L435.94679609127974,524.5306042646814" stroke="grey" stroke-width="5" />
<circle cx="435.94679609127974" cy="524.5306042646814" r="2.5" fill="grey" stroke="none" />
<path d="M435.9467960912798,524.5306042646814 A68.58982050248053,68.58982050248053,0,0,0,444.125,539.78125" stroke="grey" stroke-width="5" fill="none" />
<circle cx="396.125" cy="539.78125" r="5" fill="black" stroke="none" />
<circle cx="444.125" cy="539.78125" r="5" fill="black" stroke="none" />
<path d="M492.125,483.78125 A18.02951681444902,18.02951681444902,0,0,0,496.4988611877716,517.6863083649474" stroke="grey" stroke-width="5" fill="none" />
<path d="M496.4988611877716,517.6863083649474 L-7.875,39.78125" stroke="grey" stroke-width="5" />
<circle cx="496.4988611877716" cy="517.6863083649474" r="2.5" fill="grey" stroke="none" />
<circle cx="492.125" cy="483.78125" r="5" fill="black" stroke="none" />
<circle cx="492.125" cy="539.78125" r="5" fill="black" stroke="none" />
<path d="M468.125,507.78125 A32.81102675264064,32.81102675264064,0,0,0,493.6284504784581,532.1864386544557" stroke="grey" stroke-width="5" fill="none" />
<path d="M493.6284504784581,532.1864386544557 L-7.875,39.78125" stroke="grey" stroke-width="5" />
<circle cx="493.6284504784581" cy="532.1864386544557" r="2.5" fill="grey" stroke="none" />
<circle cx="468.125" cy="507.78125" r="5" fill="black" stroke="none" />
<circle cx="492.125" cy="539.78125" r="5" fill="black" stroke="none" />
<path d="M444.125,539.78125 L466.96432459239793,523.5203662158151" stroke="grey" stroke-width="5" />
<circle cx="466.96432459239793" cy="523.5203662158151" r="2.5" fill="grey" stroke="none" />
<path d="M466.96432459239793,523.5203662158151 A40.55321783240511,40.55321783240511,0,0,0,492.125,539.78125" stroke="grey" stroke-width="5" fill="none" />
<circle cx="444.125" cy="539.78125" r="5" fill="black" stroke="none" />
<circle cx="492.125" cy="539.78125" r="5" fill="black" stroke="none" />
<path d="M444.125,587.78125 L478.22403111093115,534.2106804303102" stroke="grey" stroke-width="5" />
<circle cx="478.22403111093115" cy="534.2106804303102" r="2.5" fill="grey" stroke="none" />
<path d="M478.22403111093115,534.2106804303102 A40.55321783240511,40.55321783240511,0,0,0,492.125,539.78125" stroke="grey" stroke-width="5" fill="none" />
<circle cx="444.125" cy="587.78125" r="5" fill="black" stroke="none" />
<circle cx="492.125" cy="539.78125" r="5" fill="black" stroke="none" />
<path d="M492.125,539.78125 A40.55321783240511,40.55321783240511,0,0,0,497.1500854531122,540.4529537072133" stroke="grey" stroke-width="5" fill="none" />
<path d="M497.1500854531122,540.4529537072133 L-7.875,111.78125" stroke="grey" stroke-width="5" />
<circle cx="497.1500854531122" cy="540.4529537072133" r="2.5" fill="grey" stroke="none" />
<circle cx="492.125" cy="539.78125" r="5" fill="black" stroke="none" />
<circle cx="492.125" cy="611.78125" r="5" fill="black" stroke="none" />
<path d="M492.12500000000006,611.78125 A112.05830391614224,112.05830391614224,0,0,1,459.41008450785847,604.4486583777087" stroke="grey" stroke-width="5" fill="none" />
<path d="M459.41008450785847,604.4486583777087 L-55.875,143.78125" stroke="grey" stroke-width="5" />
<circle cx="459.41008450785847" cy="604.4486583777087" r="2.5" fill="grey" stroke="none" />
<circle cx="492.125" cy="611.78125" r="5" fill="black" stroke="none" />
<circle cx="444.125" cy="643.78125" r="5" fill="black" stroke="none" />
<path d="M492.125,483.78125 A18.02951681444902,18.02951681444902,0,0,1,511.25937838331396,485.9184562286707" stroke="grey" stroke-width="5" fill="none" />
<path d="M511.25937838331396,485.9184562286707 L96.125,-120.21875" stroke="grey" stroke-width="5" />
<circle cx="511.25937838331396" cy="485.9184562286707" r="2.5" fill="grey" stroke="none" />
<circle cx="492.125" cy="483.78125" r="5" fill="black" stroke="none" />
<circle cx="596.125" cy="379.78125" r="5" fill="black" stroke="none" />
<path d="M492.125,483.78125 A18.02951681444902,18.02951681444902,0,0,1,517.9918098183286,501.1654424153912" stroke="grey" stroke-width="5" fill="none" />
<path d="M517.9918098183286,501.1654424153912 L120.125,7.78125" stroke="grey" stroke-width="5" />
<circle cx="517.9918098183286" cy="501.1654424153912" r="2.5" fill="grey" stroke="none" />
<circle cx="492.125" cy="483.78125" r="5" fill="black" stroke="none" />
<circle cx="620.125" cy="507.78125" r="5" fill="black" stroke="none" />
<path d="M620.125,507.78125 A120.37675637996938,120.37675637996938,0,0,0,620.2927121562043,504.4974302292635" stroke="grey" stroke-width="5" fill="none" />
<path d="M620.2927121562043,504.4974302292635 L208.125,7.78125" stroke="grey" stroke-width="5" />
<circle cx="620.2927121562043" cy="504.4974302292635" r="2.5" fill="grey" stroke="none" />
<circle cx="620.125" cy="507.78125" r="5" fill="black" stroke="none" />
<circle cx="708.125" cy="507.78125" r="5" fill="black" stroke="none" />
<path d="M492.125,539.78125 A40.55321783240511,40.55321783240511,0,0,0,514.7462933975565,537.777113542404" stroke="grey" stroke-width="5" fill="none" />
<path d="M514.7462933975565,537.777113542404 L56.125,143.78125" stroke="grey" stroke-width="5" />
<circle cx="514.7462933975565" cy="537.777113542404" r="2.5" fill="grey" stroke="none" />
<circle cx="492.125" cy="539.78125" r="5" fill="black" stroke="none" />
<circle cx="556.125" cy="643.78125" r="5" fill="black" stroke="none" />
<circle cx="500" cy="500" r="5" fill="red" stroke="none" />
</svg>