<?xml version="1.0" encoding="UTF-8"?>
<svg xmlns="http://www.w3.org/2000/svg" xmlns:xlink="http://www.w3.org/1999/xlink"
     width="1000" height="1000" viewBox="0 0 1000 1000">
<defs>
</defs>
<rect x="0" y="0" width="1000" height="1000" fill="white" />
<path d="M290.75640799999996,653.396278 L406.81078382524504,568.3169256191359" stroke="grey" stroke-width="5" />
<circle cx="406.81078382524504" cy="568.3169256191359" r="2.5" fill="grey" stroke="none" />
<path d="M406.81078382524504,568.3169256191359 A115.54839824643074,115.54839824643074,0,0,0,410.75640799999996,573.396278" stroke="grey" stroke-width="5" fill="none" />
<circle cx="290.75640799999996" cy="653.396278" r="5" fill="black" stroke="none" />
<circle cx="410.75640799999996" cy="573.396278" r="5" fill="black" stroke="none" />
<path d="M410.75640799999996,573.396278 L429.77554560911403,557.7544388494783" stroke="grey" stroke-width="5" />
<circle cx="429.77554560911403" cy="557.7544388494783" r="2.5" fill="grey" stroke="none" />
<path d="M429.77554560911403,557.7544388494783 A90.92331494900387,90.92331494900387,0,0,1,410.75640799999996,517.396278" stroke="grey" stroke-width="5" fill="none" />
<circle cx="410.75640799999996" cy="573.396278" r="5" fill="black" stroke="none" />
<circle cx="410.75640799999996" cy="517.396278" r="5" fill="black" stroke="none" />
<path d="M410.75640799999996,517.396278 A90.92331494900387,90.92331494900387,0,0,1,409.4428846251997,508.1521810769182" stroke="grey" stroke-width="5" fill="none" />
<path d="M409.4428846251997,508.1521810769182 L306.75640799999996,517.396278" stroke="grey" stroke-width="5" />
<circle cx="409.4428846251997" cy="508.1521810769182" r="2.5" fill="grey" stroke="none" />
<circle cx="410.75640799999996" cy="517.396278" r="5" fill="black" stroke="none" />
<circle cx="306.75640799999996" cy="517.396278" r="5" fill="black" stroke="none" />
<path d="M306.75640799999996,517.396278 L324.6867740899695,515.782140993362" stroke="grey" stroke-width="5" />
<circle cx="324.6867740899695" cy="515.782140993362" r="2.5" fill="grey" stroke="none" />
<path d="M324.6867740899695,515.782140993362 A176.0221666532819,176.0221666532819,0,0,1,346.756408,413.39627800000005" stroke="grey" stroke-width="5" fill="none" />
<circle cx="306.75640799999996" cy="517.396278" r="5" fill="black" stroke="none" />
<circle cx="346.75640799999996" cy="413.39627800000005" r="5" fill="black" stroke="none" />
<path d="M346.756408,413.39627800000005 A176.0221666532819,176.0221666532819,0,0,1,459.53493295924267,328.69214407184137" stroke="grey" stroke-width="5" fill="none" />
<path d="M459.5349329592426,328.69214407184137 L458.75640799999996,325.39627800000005" stroke="grey" stroke-width="5" />
<circle cx="459.5349329592426" cy="328.69214407184137" r="2.5" fill="grey" stroke="none" />
<circle cx="346.75640799999996" cy="413.39627800000005" r="5" fill="black" stroke="none" />
<circle cx="458.75640799999996" cy="325.39627800000005" r="5" fill="black" stroke="none" />
<path d="M458.75640799999996,325.39627800000005 L465.3434600641936,353.2823992528722" stroke="grey" stroke-width="5" />
<circle cx="465.3434600641936" cy="353.2823992528722" r="2.5" fill="grey" stroke="none" />
<path d="M465.34346006419366,353.2823992528722 A150.75519934422073,150.75519934422073,0,0,1,506.756408,349.39627800000005" stroke="grey" stroke-width="5" fill="none" />
<circle cx="458.75640799999996" cy="325.39627800000005" r="5" fill="black" stroke="none" />
<circle cx="506.75640799999996" cy="349.39627800000005" r="5" fill="black" stroke="none" />
<path d="M506.75640799999996,349.39627800000005 L506.65301311006635,351.7010019390791" stroke="grey" stroke-width="5" />
<circle cx="506.65301311006635" cy="351.7010019390791" r="2.5" fill="grey" stroke="none" />
<path d="M506.65301311006635,351.7010019390791 A148.4481573119577,148.4481573119577,0,0,0,458.75640799999996,357.39627800000005" stroke="grey" stroke-width="5" fill="none" />
<circle cx="506.75640799999996" cy="349.39627800000005" r="5" fill="black" stroke="none" />
<circle cx="458.75640799999996" cy="357.39627800000005" r="5" fill="black" stroke="none" />
<path d="M458.75640799999996,325.39627800000005 L465.8738171906642,355.5276529706133" stroke="grey" stroke-width="5" />
<circle cx="465.8738171906642" cy="355.5276529706133" r="2.5" fill="grey" stroke="none" />
<path d="M465.8738171906643,355.5276529706133 A148.4481573119577,148.4481573119577,0,0,0,458.75640799999996,357.39627800000005" stroke="grey" stroke-width="5" fill="none" />
<circle cx="458.75640799999996" cy="325.39627800000005" r="5" fill="black" stroke="none" />
<circle cx="458.75640799999996" cy="357.39627800000005" r="5" fill="black" stroke="none" />
<path d="M458.75640799999996,357.39627800000005 L473.7879353570197,409.3692426354719" stroke="grey" stroke-width="5" />
<circle cx="473.7879353570197" cy="409.3692426354719" r="2.5" fill="grey" stroke="none" />
<path d="M473.78793535701965,409.3692426354719 A94.34514567965724,94.34514567965724,0,0,0,410.75640799999996,469.39627800000005" stroke="grey" stroke-width="5" fill="none" />
<circle cx="458.75640799999996" cy="357.39627800000005" r="5" fill="black" stroke="none" />
<circle cx="410.75640799999996" cy="469.39627800000005" r="5" fill="black" stroke="none" />
<path d="M346.75640799999996,413.39627800000005 L417.86381632154286,453.5817509587609" stroke="grey" stroke-width="5" />
<circle cx="417.86381632154286" cy="453.5817509587609" r="2.5" fill="grey" stroke="none" />
<path d="M417.86381632154286,453.5817509587609 A94.34514567965724,94.34514567965724,0,0,0,410.75640799999996,469.39627800000005" stroke="grey" stroke-width="5" fill="none" />
<circle cx="346.75640799999996" cy="413.39627800000005" r="5" fill="black" stroke="none" />
<circle cx="410.75640799999996" cy="469.39627800000005" r="5" fill="black" stroke="none" />
<path d="M410.75640799999996,469.39627800000005 L413.99320903962507,470.5062530353616" stroke="grey" stroke-width="5" />
<circle cx="413.99320903962507" cy="470.5062530353616" r="2.5" fill="grey" stroke="none" />
<path d="M413.99320903962507,470.5062530353616 A90.92331494900387,90.92331494900387,0,0,0,410.75640799999996,517.396278" stroke="grey" stroke-width="5" fill="none" />
<circle cx="410.75640799999996" cy="469.39627800000005" r="5" fill="black" stroke="none" />
<circle cx="410.75640799999996" cy="517.396278" r="5" fill="black" stroke="none" />
<path d="M506.756408,349.39627800000005 A150.75519934422073,150.75519934422073,0,0,1,535.9164318891209,353.5857245700753" stroke="grey" stroke-width="5" fill="none" />
<path d="M535.9164318891209,353.5857245700753 L546.756408,309.39627800000005" stroke="grey" stroke-width="5" />
<circle cx="535.9164318891209" cy="353.5857245700753" r="2.5" fill="grey" stroke="none" />
<circle cx="506.75640799999996" cy="349.39627800000005" r="5" fill="black" stroke="none" />
<circle cx="546.756408" cy="309.39627800000005" r="5" fill="black" stroke="none" />
<path d="M506.75640799999996,349.39627800000005 L504.5920493934401,397.64091655508076" stroke="grey" stroke-width="5" />
<circle cx="504.5920493934401" cy="397.64091655508076" r="2.5" fill="grey" stroke="none" />
<path d="M504.5920493934401,397.64091655508076 A102.46203629303751,102.46203629303751,0,0,1,554.756408,413.39627800000005" stroke="grey" stroke-width="5" fill="none" />
<circle cx="506.75640799999996" cy="349.39627800000005" r="5" fill="black" stroke="none" />
<circle cx="554.756408" cy="413.39627800000005" r="5" fill="black" stroke="none" />
<path d="M458.75640799999996,357.39627800000005 L475.8656358272431,416.55309365055837" stroke="grey" stroke-width="5" />
<circle cx="475.8656358272431" cy="416.55309365055837" r="2.5" fill="grey" stroke="none" />
<path d="M475.8656358272431,416.55309365055837 A86.86687350950153,86.86687350950153,0,0,1,506.756408,413.39627800000005" stroke="grey" stroke-width="5" fill="none" />
<circle cx="458.75640799999996" cy="357.39627800000005" r="5" fill="black" stroke="none" />
<circle cx="506.75640799999996" cy="413.39627800000005" r="5" fill="black" stroke="none" />
<path d="M410.75640799999996,469.39627800000005 L451.4193037589841,483.3405392027868" stroke="grey" stroke-width="5" />
<circle cx="451.4193037589841" cy="483.3405392027868" r="2.5" fill="grey" stroke="none" />
<path d="M451.4193037589841,483.3405392027868 A51.35778111752634,51.35778111752634,0,0,1,458.756408,469.39627800000005" stroke="grey" stroke-width="5" fill="none" />
<circle cx="410.75640799999996" cy="469.39627800000005" r="5" fill="black" stroke="none" />
<circle cx="458.75640799999996" cy="469.39627800000005" r="5" fill="black" stroke="none" />
<path d="M410.75640799999996,517.396278 L481.6825185544223,503.57063170974914" stroke="grey" stroke-width="5" />
<circle cx="481.6825185544223" cy="503.57063170974914" r="2.5" fill="grey" stroke="none" />
<path d="M481.6825185544223,503.57063170974914 A18.662248988687022,18.662248988687022,0,0,0,506.75640799999996,517.396278" stroke="grey" stroke-width="5" fill="none" />
<circle cx="410.75640799999996" cy="517.396278" r="5" fill="black" stroke="none" />
<circle cx="506.75640799999996" cy="517.396278" r="5" fill="black" stroke="none" />
<path d="M410.75640799999996,573.396278 L443.07284470705304,546.8183902282901" stroke="grey" stroke-width="5" />
<circle cx="443.07284470705304" cy="546.8183902282901" r="2.5" fill="grey" stroke="none" />
<path d="M443.07284470705304,546.8183902282901 A73.70659857377598,73.70659857377598,0,0,0,506.756408,573.396278" stroke="grey" stroke-width="5" fill="none" />
<circle cx="410.75640799999996" cy="573.396278" r="5" fill="black" stroke="none" />
<circle cx="506.75640799999996" cy="573.396278" r="5" fill="black" stroke="none" />
<path d="M554.756408,413.39627800000005 L546.4222471039634,426.5777371151345" stroke="grey" stroke-width="5" />
<circle cx="546.4222471039634" cy="426.5777371151345" r="2.5" fill="grey" stroke="none" />
<path d="M546.4222471039634,426.5777371151345 A86.86687350950153,86.86687350950153,0,0,0,506.756408,413.39627800000005" stroke="grey" stroke-width="5" fill="none" />
<circle cx="554.756408" cy="413.39627800000005" r="5" fill="black" stroke="none" />
<circle cx="506.75640799999996" cy="413.39627800000005" r="5" fill="black" stroke="none" />
<path d="M506.75640799999996,413.39627800000005 L503.9945506173507,448.79780037262884" stroke="grey" stroke-width="5" />
<circle cx="503.9945506173507" cy="448.79780037262884" r="2.5" fill="grey" stroke="none" />
<path d="M503.9945506173507,448.79780037262884 A51.35778111752634,51.35778111752634,0,0,0,458.756408,469.39627800000005" stroke="grey" stroke-width="5" fill="none" />
<circle cx="506.75640799999996" cy="413.39627800000005" r="5" fill="black" stroke="none" />
<circle cx="458.75640799999996" cy="469.39627800000005" r="5" fill="black" stroke="none" />
<path d="M458.75640799999996,469.39627800000005 L485.01301718369695,488.87930382666684" stroke="grey" stroke-width="5" />
<circle cx="485.01301718369695" cy="488.87930382666684" r="2.5" fill="grey" stroke="none" />
<path d="M485.01301718369695,488.87930382666684 A18.662248988687022,18.662248988687022,0,0,0,506.75640799999996,517.396278" stroke="grey" stroke-width="5" fill="none" />
<circle cx="458.75640799999996" cy="469.39627800000005" r="5" fill="black" stroke="none" />
<circle cx="506.75640799999996" cy="517.396278" r="5" fill="black" stroke="none" />
<path d="M506.75640799999996,517.396278 A18.662248988687022,18.662248988687022,0,0,1,501.7106985101062,518.5836769215156" stroke="grey" stroke-width="5" fill="none" />
<path d="M501.7106985101062,518.5836769215156 L506.75640799999996,573.396278" stroke="grey" stroke-width="5" />
<circle cx="501.7106985101062" cy="518.5836769215156" r="2.5" fill="grey" stroke="none" />
<circle cx="506.75640799999996" cy="517.396278" r="5" fill="black" stroke="none" />
<circle cx="506.75640799999996" cy="573.396278" r="5" fill="black" stroke="none" />
<path d="M506.756408,573.396278 A73.70659857377598,73.70659857377598,0,0,0,533.6645627658354,565.5695042462644" stroke="grey" stroke-width="5" fill="none" />
<path d="M533.6645627658354,565.5695042462644 L578.756408,653.396278" stroke="grey" stroke-width="5" />
<circle cx="533.6645627658354" cy="565.5695042462644" r="2.5" fill="grey" stroke="none" />
<circle cx="506.75640799999996" cy="573.396278" r="5" fill="black" stroke="none" />
<circle cx="578.756408" cy="653.396278" r="5" fill="black" stroke="none" />
<path d="M554.756408,413.39627800000005 L537.2753339055391,441.0446599234106" stroke="grey" stroke-width="5" />
<circle cx="537.2753339055391" cy="441.0446599234106" r="2.5" fill="grey" stroke="none" />
<path d="M537.2753339055391,441.0446599234106 A69.75086122275295,69.75086122275295,0,0,0,530.756408,437.39627800000005" stroke="grey" stroke-width="5" fill="none" />
<circle cx="554.756408" cy="413.39627800000005" r="5" fill="black" stroke="none" />
<circle cx="530.756408" cy="437.39627800000005" r="5" fill="black" stroke="none" />
<path d="M530.756408,437.39627800000005 L513.8195579267298,471.8707151170616" stroke="grey" stroke-width="5" />
<circle cx="513.8195579267298" cy="471.8707151170616" r="2.5" fill="grey" stroke="none" />
<path d="M513.8195579267298,471.8707151170616 A31.340658086832583,31.340658086832583,0,0,0,506.75640799999996,469.39627800000005" stroke="grey" stroke-width="5" fill="none" />
<circle cx="530.756408" cy="437.39627800000005" r="5" fill="black" stroke="none" />
<circle cx="506.75640799999996" cy="469.39627800000005" r="5" fill="black" stroke="none" />
<path d="M506.75640799999996,469.39627800000005 L504.0232010449752,481.776570282533" stroke="grey" stroke-width="5" />
<circle cx="504.0232010449752" cy="481.776570282533" r="2.5" fill="grey" stroke="none" />
<path d="M504.0232010449752,481.776570282533 A18.662248988687022,18.662248988687022,0,0,1,506.75640799999996,517.396278" stroke="grey" stroke-width="5" fill="none" />
<circle cx="506.75640799999996" cy="469.39627800000005" r="5" fill="black" stroke="none" />
<circle cx="506.75640799999996" cy="517.396278" r="5" fill="black" stroke="none" />
<path d="M506.75640799999996,413.39627800000005 L505.4251437600175,430.46043962966917" stroke="grey" stroke-width="5" />
<circle cx="505.4251437600175" cy="430.46043962966917" r="2.5" fill="grey" stroke="none" />
<path d="M505.4251437600175,430.46043962966917 A69.75086122275295,69.75086122275295,0,0,1,530.756408,437.39627800000005" stroke="grey" stroke-width="5" fill="none" />
<circle cx="506.75640799999996" cy="413.39627800000005" r="5" fill="black" stroke="none" />
<circle cx="530.756408" cy="437.39627800000005" r="5" fill="black" stroke="none" />
<path d="M458.75640799999996,469.39627800000005 L474.83144156506967,481.3243335962745" stroke="grey" stroke-width="5" />
<circle cx="474.83144156506967" cy="481.3243335962745" r="2.5" fill="grey" stroke="none" />
<path d="M474.83144156506967,481.32433359627447 A31.340658086832583,31.340658086832583,0,0,1,506.75640799999996,469.39627800000005" stroke="grey" stroke-width="5" fill="none" />
<circle cx="458.75640799999996" cy="469.39627800000005" r="5" fill="black" stroke="none" />
<circle cx="506.75640799999996" cy="469.39627800000005" r="5" fill="black" stroke="none" />
<path d="M554.756408,413.39627800000005 L533.5224823038385,446.98023767023676" stroke="grey" stroke-width="5" />
<circle cx="533.5224823038385" cy="446.98023767023676" r="2.5" fill="grey" stroke="none" />
<path d="M533.5224823038385,446.98023767023676 A62.72839881039324,62.72839881039324,0,0,1,554.756408,469.39627800000005" stroke="grey" stroke-width="5" fill="none" />
<circle cx="554.756408" cy="413.39627800000005" r="5" fill="black" stroke="none" />
<circle cx="554.756408" cy="469.39627800000005" r="5" fill="black" stroke="none" />
<path d="M530.756408,437.39627800000005 L527.6598767839992,443.69917199889744" stroke="grey" stroke-width="5" />
<circle cx="527.6598767839992" cy="443.69917199889744" r="2.5" fill="grey" stroke="none" />
<path d="M527.6598767839992,443.69917199889744 A62.72839881039324,62.72839881039324,0,0,1,554.756408,469.39627800000005" stroke="grey" stroke-width="5" fill="none" />
<circle cx="530.756408" cy="437.39627800000005" r="5" fill="black" stroke="none" />
<circle cx="554.756408" cy="469.39627800000005" r="5" fill="black" stroke="none" />
<path d="M506.75640799999996,469.39627800000005 A31.340658086832583,31.340658086832583,0,0,1,527.3576544872172,484.7096242598885" stroke="grey" stroke-width="5" fill="none" />
<path d="M527.3576544872172,484.7096242598885 L554.756408,469.39627800000005" stroke="grey" stroke-width="5" />
<circle cx="527.3576544872172" cy="484.7096242598885" r="2.5" fill="grey" stroke="none" />
<circle cx="506.75640799999996" cy="469.39627800000005" r="5" fill="black" stroke="none" />
<circle cx="554.756408" cy="469.39627800000005" r="5" fill="black" stroke="none" />
<path d="M506.75640799999996,517.396278 A18.662248988687022,18.662248988687022,0,0,0,516.2905117809706,490.89512420569025" stroke="grey" stroke-width="5" fill="none" />
<path d="M516.2905117809706,490.89512420569025 L554.756408,469.39627800000005" stroke="grey" stroke-width="5" />
<circle cx="516.2905117809706" cy="490.89512420569025" r="2.5" fill="grey" stroke="none" />
<circle cx="506.75640799999996" cy="517.396278" r="5" fill="black" stroke="none" />
<circle cx="554.756408" cy="469.39627800000005" r="5" fill="black" stroke="none" />
<path d="M554.756408,469.39627800000005 A62.72839881039324,62.72839881039324,0,0,1,550.0380504605512,537.8291623410178" stroke="grey" stroke-width="5" fill="none" />
<path d="M550.0380504605512,537.8291623410178 L554.756408,541.396278" stroke="grey" stroke-width="5" />
<circle cx="550.0380504605512" cy="537.8291623410178" r="2.5" fill="grey" stroke="none" />
<circle cx="554.756408" cy="469.39627800000005" r="5" fill="black" stroke="none" />
<circle cx="554.756408" cy="541.396278" r="5" fill="black" stroke="none" />
<path d="M554.756408,541.396278 A68.6433977110381,68.6433977110381,0,0,1,506.29228332898606,568.3543942978322" stroke="grey" stroke-width="5" fill="none" />
<path d="M506.29228332898606,568.3543942978322 L506.75640799999996,573.396278" stroke="grey" stroke-width="5" />
<circle cx="506.29228332898606" cy="568.3543942978322" r="2.5" fill="grey" stroke="none" />
<circle cx="554.756408" cy="541.396278" r="5" fill="black" stroke="none" />
<circle cx="506.75640799999996" cy="573.396278" r="5" fill="black" stroke="none" />
<path d="M554.756408,413.39627800000005 A102.46203629303751,102.46203629303751,0,0,1,565.5750869954526,421.2702289673432" stroke="grey" stroke-width="5" fill="none" />
<path d="M565.5750869954526,421.2702289673432 L658.756408,309.39627800000005" stroke="grey" stroke-width="5" />
<circle cx="565.5750869954526" cy="421.2702289673432" r="2.5" fill="grey" stroke="none" />
<circle cx="554.756408" cy="413.39627800000005" r="5" fill="black" stroke="none" />
<circle cx="658.756408" cy="309.39627800000005" r="5" fill="black" stroke="none" />
<path d="M554.756408,413.39627800000005 A102.46203629303751,102.46203629303751,0,0,1,596.9325944370913,466.79546692076366" stroke="grey" stroke-width="5" fill="none" />
<path d="M596.9325944370913,466.79546692076366 L682.756408,437.39627800000005" stroke="grey" stroke-width="5" />
<circle cx="596.9325944370913" cy="466.79546692076366" r="2.5" fill="grey" stroke="none" />
<circle cx="554.756408" cy="413.39627800000005" r="5" fill="black" stroke="none" />
<circle cx="682.756408" cy="437.39627800000005" r="5" fill="black" stroke="none" />
<path d="M682.756408,437.39627800000005 A193.18160024525042,193.18160024525042,0,0,1,688.2159319336424,456.4811116908278" stroke="grey" stroke-width="5" fill="none" />
<path d="M688.2159319336424,456.4811116908278 L770.756408,437.39627800000005" stroke="grey" stroke-width="5" />
<circle cx="688.2159319336424" cy="456.4811116908278" r="2.5" fill="grey" stroke="none" />
<circle cx="682.756408" cy="437.39627800000005" r="5" fill="black" stroke="none" />
<circle cx="770.756408" cy="437.39627800000005" r="5" fill="black" stroke="none" />
<path d="M554.756408,469.39627800000005 A62.72839881039324,62.72839881039324,0,0,1,553.3598061225761,532.9785249499859" stroke="grey" stroke-width="5" fill="none" />
<path d="M553.3598061225761,532.9785249499859 L618.756408,573.396278" stroke="grey" stroke-width="5" />
<circle cx="553.3598061225761" cy="532.9785249499859" r="2.5" fill="grey" stroke="none" />
<circle cx="554.756408" cy="469.39627800000005" r="5" fill="black" stroke="none" />
<circle cx="618.756408" cy="573.396278" r="5" fill="black" stroke="none" />
<circle cx="500" cy="500" r="5" fill="red" stroke="none" />
</svg>