<?xml version="1.0" encoding="UTF-8"?>
<svg xmlns="http://www.w3.org/2000/svg" xmlns:xlink="http://www.w3.org/1999/xlink"
     width="1000" height="1000" viewBox="0 0 1000 1000">
<defs>
</defs>
<rect x="0" y="0" width="1000" height="1000" fill="white" />
<path d="M270.574208,675.797328 L384.55915773132307,588.4564522410055" stroke="grey" stroke-width="5" />
<circle cx="384.55915773132307" cy="588.4564522410055" r="2.5" fill="grey" stroke="none" />
<path d="M384.559157731323,588.4564522410054 A145.43428758984876,145.43428758984876,0,0,0,390.574208,595.797328" stroke="grey" stroke-width="5" fill="none" />
<circle cx="270.574208" cy="675.797328" r="5" fill="black" stroke="none" />
<circle cx="390.574208" cy="595.797328" r="5" fill="black" stroke="none" />
<path d="M390.574208,595.797328 L412.39114525182504,576.6975869273606" stroke="grey" stroke-width="5" />
<circle cx="412.39114525182504" cy="576.6975869273606" r="2.5" fill="grey" stroke="none" />
<path d="M412.39114525182504,576.6975869273606 A116.43810059755718,116.43810059755718,0,0,1,390.574208,539.7973279999999" stroke="grey" stroke-width="5" fill="none" />
<circle cx="390.574208" cy="595.797328" r="5" fill="black" stroke="none" />
<circle cx="390.574208" cy="539.797328" r="5" fill="black" stroke="none" />
<path d="M390.574208,539.7973279999999 A116.43810059755718,116.43810059755718,0,0,1,385.5349134612883,521.3442084522262" stroke="grey" stroke-width="5" fill="none" />
<path d="M385.5349134612883,521.3442084522262 L286.574208,539.797328" stroke="grey" stroke-width="5" />
<circle cx="385.5349134612883" cy="521.3442084522262" r="2.5" fill="grey" stroke="none" />
<circle cx="390.574208" cy="539.797328" r="5" fill="black" stroke="none" />
<circle cx="286.574208" cy="539.797328" r="5" fill="black" stroke="none" />
<path d="M286.574208,539.797328 L318.2052304582354,533.899117835477" stroke="grey" stroke-width="5" />
<circle cx="318.2052304582354" cy="533.899117835477" r="2.5" fill="grey" stroke="none" />
<path d="M318.2052304582354,533.899117835477 A184.9283332071288,184.9283332071288,0,0,1,326.574208,435.79732799999994" stroke="grey" stroke-width="5" fill="none" />
<circle cx="286.574208" cy="539.797328" r="5" fill="black" stroke="none" />
<circle cx="326.574208" cy="435.797328" r="5" fill="black" stroke="none" />
<path d="M326.574208,435.797328 L346.07852964954833,443.01787778678397" stroke="grey" stroke-width="5" />
<circle cx="346.07852964954833" cy="443.01787778678397" r="2.5" fill="grey" stroke="none" />
<path d="M346.07852964954833,443.01787778678397 A164.1303789271409,164.1303789271409,0,0,1,438.574208,347.797328" stroke="grey" stroke-width="5" fill="none" />
<circle cx="326.574208" cy="435.797328" r="5" fill="black" stroke="none" />
<circle cx="438.574208" cy="347.797328" r="5" fill="black" stroke="none" />
<path d="M438.574208,347.797328 L451.75777303873724,380.4639613481153" stroke="grey" stroke-width="5" />
<circle cx="451.75777303873724" cy="380.4639613481153" r="2.5" fill="grey" stroke="none" />
<path d="M451.75777303873724,380.4639613481153 A128.90375091038607,128.90375091038607,0,0,1,486.574208,371.797328" stroke="grey" stroke-width="5" fill="none" />
<circle cx="438.574208" cy="347.797328" r="5" fill="black" stroke="none" />
<circle cx="486.574208" cy="371.797328" r="5" fill="black" stroke="none" />
<path d="M486.574208,371.797328 A128.90375091038607,128.90375091038607,0,0,0,441.34290382273,385.21532303126276" stroke="grey" stroke-width="5" fill="none" />
<path d="M441.34290382273,385.21532303126276 L438.574208,379.797328" stroke="grey" stroke-width="5" />
<circle cx="441.34290382273" cy="385.21532303126276" r="2.5" fill="grey" stroke="none" />
<circle cx="486.574208" cy="371.797328" r="5" fill="black" stroke="none" />
<circle cx="438.574208" cy="379.797328" r="5" fill="black" stroke="none" />
<path d="M438.574208,347.797328 L449.48067340422455,374.82169549368297" stroke="grey" stroke-width="5" />
<circle cx="449.48067340422455" cy="374.82169549368297" r="2.5" fill="grey" stroke="none" />
<path d="M449.48067340422455,374.82169549368297 A134.9881857007007,134.9881857007007,0,0,0,438.574208,379.79732799999994" stroke="grey" stroke-width="5" fill="none" />
<circle cx="438.574208" cy="347.797328" r="5" fill="black" stroke="none" />
<circle cx="438.574208" cy="379.797328" r="5" fill="black" stroke="none" />
<path d="M438.574208,379.797328 L450.0665615906652,402.2864415171159" stroke="grey" stroke-width="5" />
<circle cx="450.0665615906652" cy="402.2864415171159" r="2.5" fill="grey" stroke="none" />
<path d="M450.0665615906652,402.2864415171159 A109.73280176304097,109.73280176304097,0,0,0,390.574208,491.79732799999994" stroke="grey" stroke-width="5" fill="none" />
<circle cx="438.574208" cy="379.797328" r="5" fill="black" stroke="none" />
<circle cx="390.574208" cy="491.797328" r="5" fill="black" stroke="none" />
<path d="M326.574208,435.797328 L397.09257784301076,461.90340897442337" stroke="grey" stroke-width="5" />
<circle cx="397.09257784301076" cy="461.90340897442337" r="2.5" fill="grey" stroke="none" />
<path d="M397.09257784301076,461.90340897442337 A109.73280176304097,109.73280176304097,0,0,0,390.574208,491.79732799999994" stroke="grey" stroke-width="5" fill="none" />
<circle cx="326.574208" cy="435.797328" r="5" fill="black" stroke="none" />
<circle cx="390.574208" cy="491.797328" r="5" fill="black" stroke="none" />
<path d="M390.574208,491.79732799999994 A109.73280176304097,109.73280176304097,0,0,0,396.87569034811554,537.5055268139124" stroke="grey" stroke-width="5" fill="none" />
<path d="M396.87569034811554,537.5055268139124 L390.574208,539.797328" stroke="grey" stroke-width="5" />
<circle cx="396.87569034811554" cy="537.5055268139124" r="2.5" fill="grey" stroke="none" />
<circle cx="390.574208" cy="491.797328" r="5" fill="black" stroke="none" />
<circle cx="390.574208" cy="539.797328" r="5" fill="black" stroke="none" />
<path d="M486.574208,371.797328 A128.90375091038607,128.90375091038607,0,0,1,520.115897332866,372.67550246217166" stroke="grey" stroke-width="5" fill="none" />
<path d="M520.115897332866,372.67550246217166 L526.574208,331.797328" stroke="grey" stroke-width="5" />
<circle cx="520.115897332866" cy="372.67550246217166" r="2.5" fill="grey" stroke="none" />
<circle cx="486.574208" cy="371.797328" r="5" fill="black" stroke="none" />
<circle cx="526.574208" cy="331.797328" r="5" fill="black" stroke="none" />
<path d="M486.574208,371.797328 L492.4050949464891,427.4763737255575" stroke="grey" stroke-width="5" />
<circle cx="492.4050949464891" cy="427.4763737255575" r="2.5" fill="grey" stroke="none" />
<path d="M492.4050949464891,427.4763737255575 A72.92022319471363,72.92022319471363,0,0,1,534.574208,435.797328" stroke="grey" stroke-width="5" fill="none" />
<circle cx="486.574208" cy="371.797328" r="5" fill="black" stroke="none" />
<circle cx="534.574208" cy="435.797328" r="5" fill="black" stroke="none" />
<path d="M438.574208,379.797328 L470.1529049794261,441.5929293526915" stroke="grey" stroke-width="5" />
<circle cx="470.1529049794261" cy="441.5929293526915" r="2.5" fill="grey" stroke="none" />
<path d="M470.1529049794261,441.5929293526915 A65.59142461303041,65.59142461303041,0,0,1,486.574208,435.797328" stroke="grey" stroke-width="5" fill="none" />
<circle cx="438.574208" cy="379.797328" r="5" fill="black" stroke="none" />
<circle cx="486.574208" cy="435.797328" r="5" fill="black" stroke="none" />
<path d="M390.574208,491.797328 L438.2023264915719,495.36758165613526" stroke="grey" stroke-width="5" />
<circle cx="438.2023264915719" cy="495.36758165613526" r="2.5" fill="grey" stroke="none" />
<path d="M438.2023264915719,495.36758165613526 A61.97105574997774,61.97105574997774,0,0,1,438.574208,491.79732799999994" stroke="grey" stroke-width="5" fill="none" />
<circle cx="390.574208" cy="491.797328" r="5" fill="black" stroke="none" />
<circle cx="438.574208" cy="491.797328" r="5" fill="black" stroke="none" />
<path d="M390.574208,539.797328 L460.5285003709269,514.3554841018661" stroke="grey" stroke-width="5" />
<circle cx="460.5285003709269" cy="514.3554841018661" r="2.5" fill="grey" stroke="none" />
<path d="M460.5285003709269,514.355484101866 A42.00094292711588,42.00094292711588,0,0,0,486.574208,539.797328" stroke="grey" stroke-width="5" fill="none" />
<circle cx="390.574208" cy="539.797328" r="5" fill="black" stroke="none" />
<circle cx="486.574208" cy="539.797328" r="5" fill="black" stroke="none" />
<path d="M390.574208,595.797328 L427.2169882567802,563.7182324327438" stroke="grey" stroke-width="5" />
<circle cx="427.2169882567802" cy="563.7182324327438" r="2.5" fill="grey" stroke="none" />
<path d="M427.2169882567802,563.7182324327438 A96.7335512775523,96.7335512775523,0,0,0,486.574208,595.797328" stroke="grey" stroke-width="5" fill="none" />
<circle cx="390.574208" cy="595.797328" r="5" fill="black" stroke="none" />
<circle cx="486.574208" cy="595.797328" r="5" fill="black" stroke="none" />
<path d="M534.574208,435.797328 L531.0993501971568,442.2499748910751" stroke="grey" stroke-width="5" />
<circle cx="531.0993501971568" cy="442.2499748910751" r="2.5" fill="grey" stroke="none" />
<path d="M531.0993501971568,442.2499748910751 A65.59142461303041,65.59142461303041,0,0,0,486.574208,435.797328" stroke="grey" stroke-width="5" fill="none" />
<circle cx="534.574208" cy="435.797328" r="5" fill="black" stroke="none" />
<circle cx="486.574208" cy="435.797328" r="5" fill="black" stroke="none" />
<path d="M486.574208,435.797328 L487.3152548610094,439.34104360009394" stroke="grey" stroke-width="5" />
<circle cx="487.3152548610094" cy="439.34104360009394" r="2.5" fill="grey" stroke="none" />
<path d="M487.3152548610094,439.34104360009394 A61.97105574997774,61.97105574997774,0,0,0,438.574208,491.79732799999994" stroke="grey" stroke-width="5" fill="none" />
<circle cx="486.574208" cy="435.797328" r="5" fill="black" stroke="none" />
<circle cx="438.574208" cy="491.797328" r="5" fill="black" stroke="none" />
<path d="M438.574208,491.797328 L458.36861010640735,494.4406311244427" stroke="grey" stroke-width="5" />
<circle cx="458.36861010640735" cy="494.4406311244427" r="2.5" fill="grey" stroke="none" />
<path d="M458.36861010640735,494.4406311244427 A42.00094292711588,42.00094292711588,0,0,0,486.574208,539.797328" stroke="grey" stroke-width="5" fill="none" />
<circle cx="438.574208" cy="491.797328" r="5" fill="black" stroke="none" />
<circle cx="486.574208" cy="539.797328" r="5" fill="black" stroke="none" />
<path d="M486.574208,539.797328 A42.00094292711588,42.00094292711588,0,0,0,494.1706272942945,541.594442184321" stroke="grey" stroke-width="5" fill="none" />
<path d="M494.1706272942945,541.594442184321 L486.574208,595.797328" stroke="grey" stroke-width="5" />
<circle cx="494.1706272942945" cy="541.594442184321" r="2.5" fill="grey" stroke="none" />
<circle cx="486.574208" cy="539.797328" r="5" fill="black" stroke="none" />
<circle cx="486.574208" cy="595.797328" r="5" fill="black" stroke="none" />
<path d="M486.574208,595.797328 A96.7335512775523,96.7335512775523,0,0,0,530.5781350067135,591.7734035670359" stroke="grey" stroke-width="5" fill="none" />
<path d="M530.5781350067135,591.7734035670359 L558.574208,675.797328" stroke="grey" stroke-width="5" />
<circle cx="530.5781350067135" cy="591.7734035670359" r="2.5" fill="grey" stroke="none" />
<circle cx="486.574208" cy="595.797328" r="5" fill="black" stroke="none" />
<circle cx="558.574208" cy="675.797328" r="5" fill="black" stroke="none" />
<path d="M534.574208,435.797328 L519.7099151417688,463.39961809118483" stroke="grey" stroke-width="5" />
<circle cx="519.7099151417688" cy="463.39961809118483" r="2.5" fill="grey" stroke="none" />
<path d="M519.7099151417688,463.39961809118483 A41.570045835515394,41.570045835515394,0,0,0,510.574208,459.797328" stroke="grey" stroke-width="5" fill="none" />
<circle cx="534.574208" cy="435.797328" r="5" fill="black" stroke="none" />
<circle cx="510.574208" cy="459.797328" r="5" fill="black" stroke="none" />
<path d="M510.574208,459.797328 L504.0020847688511,484.7842503875169" stroke="grey" stroke-width="5" />
<circle cx="504.0020847688511" cy="484.7842503875169" r="2.5" fill="grey" stroke="none" />
<path d="M504.0020847688511,484.7842503875169 A15.733267898527902,15.733267898527902,0,0,0,486.574208,491.79732799999994" stroke="grey" stroke-width="5" fill="none" />
<circle cx="510.574208" cy="459.797328" r="5" fill="black" stroke="none" />
<circle cx="486.574208" cy="491.797328" r="5" fill="black" stroke="none" />
<path d="M486.574208,491.79732799999994 A15.733267898527902,15.733267898527902,0,0,0,494.97078952126236,514.9078087164883" stroke="grey" stroke-width="5" fill="none" />
<path d="M494.97078952126236,514.9078087164883 L486.574208,539.797328" stroke="grey" stroke-width="5" />
<circle cx="494.97078952126236" cy="514.9078087164883" r="2.5" fill="grey" stroke="none" />
<circle cx="486.574208" cy="491.797328" r="5" fill="black" stroke="none" />
<circle cx="486.574208" cy="539.797328" r="5" fill="black" stroke="none" />
<path d="M486.574208,435.797328 L491.4911012817486,459.310107479014" stroke="grey" stroke-width="5" />
<circle cx="491.4911012817486" cy="459.310107479014" r="2.5" fill="grey" stroke="none" />
<path d="M491.4911012817486,459.310107479014 A41.570045835515394,41.570045835515394,0,0,1,510.574208,459.797328" stroke="grey" stroke-width="5" fill="none" />
<circle cx="486.574208" cy="435.797328" r="5" fill="black" stroke="none" />
<circle cx="510.574208" cy="459.797328" r="5" fill="black" stroke="none" />
<path d="M438.574208,491.797328 L484.405164157372,497.91749818527495" stroke="grey" stroke-width="5" />
<circle cx="484.405164157372" cy="497.91749818527495" r="2.5" fill="grey" stroke="none" />
<path d="M484.405164157372,497.91749818527495 A15.733267898527902,15.733267898527902,0,0,1,486.574208,491.79732799999994" stroke="grey" stroke-width="5" fill="none" />
<circle cx="438.574208" cy="491.797328" r="5" fill="black" stroke="none" />
<circle cx="486.574208" cy="491.797328" r="5" fill="black" stroke="none" />
<path d="M534.574208,435.797328 L516.8479633288483,468.71412749440043" stroke="grey" stroke-width="5" />
<circle cx="516.8479633288483" cy="468.71412749440043" r="2.5" fill="grey" stroke="none" />
<path d="M516.8479633288483,468.71412749440043 A35.53392304216984,35.53392304216984,0,0,1,534.574208,491.79732799999994" stroke="grey" stroke-width="5" fill="none" />
<circle cx="534.574208" cy="435.797328" r="5" fill="black" stroke="none" />
<circle cx="534.574208" cy="491.797328" r="5" fill="black" stroke="none" />
<path d="M510.574208,459.797328 L509.0387942989199,465.63490310811477" stroke="grey" stroke-width="5" />
<circle cx="509.0387942989199" cy="465.63490310811477" r="2.5" fill="grey" stroke="none" />
<path d="M509.0387942989199,465.63490310811477 A35.53392304216984,35.53392304216984,0,0,1,534.574208,491.79732799999994" stroke="grey" stroke-width="5" fill="none" />
<circle cx="510.574208" cy="459.797328" r="5" fill="black" stroke="none" />
<circle cx="534.574208" cy="491.797328" r="5" fill="black" stroke="none" />
<path d="M486.574208,491.79732799999994 A15.733267898527902,15.733267898527902,0,0,1,515.3083372246255,496.3681230494421" stroke="grey" stroke-width="5" fill="none" />
<path d="M515.3083372246255,496.36812304944215 L534.574208,491.797328" stroke="grey" stroke-width="5" />
<circle cx="515.3083372246255" cy="496.36812304944215" r="2.5" fill="grey" stroke="none" />
<circle cx="486.574208" cy="491.797328" r="5" fill="black" stroke="none" />
<circle cx="534.574208" cy="491.797328" r="5" fill="black" stroke="none" />
<path d="M486.574208,539.797328 L488.64142025249197,533.6696057726601" stroke="grey" stroke-width="5" />
<circle cx="488.64142025249197" cy="533.6696057726601" r="2.5" fill="grey" stroke="none" />
<path d="M488.64142025249197,533.6696057726601 A35.53392304216984,35.53392304216984,0,0,0,534.574208,491.79732799999994" stroke="grey" stroke-width="5" fill="none" />
<circle cx="486.574208" cy="539.797328" r="5" fill="black" stroke="none" />
<circle cx="534.574208" cy="491.797328" r="5" fill="black" stroke="none" />
<path d="M534.574208,491.79732799999994 A35.53392304216984,35.53392304216984,0,0,1,516.9307666336764,531.2411399914095" stroke="grey" stroke-width="5" fill="none" />
<path d="M516.9307666336764,531.2411399914095 L534.574208,563.797328" stroke="grey" stroke-width="5" />
<circle cx="516.9307666336764" cy="531.2411399914095" r="2.5" fill="grey" stroke="none" />
<circle cx="534.574208" cy="491.797328" r="5" fill="black" stroke="none" />
<circle cx="534.574208" cy="563.797328" r="5" fill="black" stroke="none" />
<path d="M534.574208,563.797328 A72.56359223995766,72.56359223995766,0,0,1,489.92879219960406,571.86129481305" stroke="grey" stroke-width="5" fill="none" />
<path d="M489.92879219960406,571.86129481305 L486.574208,595.797328" stroke="grey" stroke-width="5" />
<circle cx="489.92879219960406" cy="571.86129481305" r="2.5" fill="grey" stroke="none" />
<circle cx="534.574208" cy="563.797328" r="5" fill="black" stroke="none" />
<circle cx="486.574208" cy="595.797328" r="5" fill="black" stroke="none" />
<path d="M534.574208,435.797328 A72.92022319471363,72.92022319471363,0,0,1,546.366752266108,443.71960167997906" stroke="grey" stroke-width="5" fill="none" />
<path d="M546.366752266108,443.71960167997906 L638.574208,331.797328" stroke="grey" stroke-width="5" />
<circle cx="546.366752266108" cy="443.71960167997906" r="2.5" fill="grey" stroke="none" />
<circle cx="534.574208" cy="435.797328" r="5" fill="black" stroke="none" />
<circle cx="638.574208" cy="331.797328" r="5" fill="black" stroke="none" />
<path d="M534.574208,435.797328 A72.92022319471363,72.92022319471363,0,0,1,570.7879457812633,482.4949812100705" stroke="grey" stroke-width="5" fill="none" />
<path d="M570.7879457812633,482.4949812100705 L662.574208,459.797328" stroke="grey" stroke-width="5" />
<circle cx="570.7879457812633" cy="482.4949812100705" r="2.5" fill="grey" stroke="none" />
<circle cx="534.574208" cy="435.797328" r="5" fill="black" stroke="none" />
<circle cx="662.574208" cy="459.797328" r="5" fill="black" stroke="none" />
<path d="M662.574208,459.797328 A167.47127497802975,167.47127497802975,0,0,1,665.3565194813998,473.469839658149" stroke="grey" stroke-width="5" fill="none" />
<path d="M665.3565194813998,473.469839658149 L750.574208,459.797328" stroke="grey" stroke-width="5" />
<circle cx="665.3565194813998" cy="473.469839658149" r="2.5" fill="grey" stroke="none" />
<circle cx="662.574208" cy="459.797328" r="5" fill="black" stroke="none" />
<circle cx="750.574208" cy="459.797328" r="5" fill="black" stroke="none" />
<path d="M534.574208,491.79732799999994 A35.53392304216984,35.53392304216984,0,0,1,525.4826429520208,524.7647853805898" stroke="grey" stroke-width="5" fill="none" />
<path d="M525.4826429520208,524.7647853805898 L598.574208,595.797328" stroke="grey" stroke-width="5" />
<circle cx="525.4826429520208" cy="524.7647853805898" r="2.5" fill="grey" stroke="none" />
<circle cx="534.574208" cy="491.797328" r="5" fill="black" stroke="none" />
<circle cx="598.574208" cy="595.797328" r="5" fill="black" stroke="none" />
<circle cx="500" cy="500" r="5" fill="red" stroke="none" />
</svg>