<?xml version="1.0" encoding="UTF-8"?>
<svg xmlns="http://www.w3.org/2000/svg" xmlns:xlink="http://www.w3.org/1999/xlink"
     width="1000" height="1000" viewBox="0 0 1000 1000">
<defs>
</defs>
<rect x="0" y="0" width="1000" height="1000" fill="white" />
<path d="M238.211768,717.054038 L348.19296998420555,625.866348574887" stroke="grey" stroke-width="5" />
<circle cx="348.19296998420555" cy="625.866348574887" r="2.5" fill="grey" stroke="none" />
<path d="M348.19296998420555,625.866348574887 A197.1996756229362,197.1996756229362,0,0,0,358.211768,637.054038" stroke="grey" stroke-width="5" fill="none" />
<circle cx="238.211768" cy="717.054038" r="5" fill="black" stroke="none" />
<circle cx="358.211768" cy="637.054038" r="5" fill="black" stroke="none" />
<path d="M358.211768,637.054038 L382.5710182739915,613.5081233242098" stroke="grey" stroke-width="5" />
<circle cx="382.5710182739915" cy="613.5081233242098" r="2.5" fill="grey" stroke="none" />
<path d="M382.5710182739915,613.5081233242098 A163.32072682238243,163.32072682238243,0,0,1,358.211768,581.0540380000001" stroke="grey" stroke-width="5" fill="none" />
<circle cx="358.211768" cy="637.054038" r="5" fill="black" stroke="none" />
<circle cx="358.211768" cy="581.054038" r="5" fill="black" stroke="none" />
<path d="M358.211768,581.0540380000001 A163.32072682238243,163.32072682238243,0,0,1,344.89543080215316,551.1491194815865" stroke="grey" stroke-width="5" fill="none" />
<path d="M344.8954308021532,551.1491194815866 L-245.788232,81.05403799999999" stroke="grey" stroke-width="5" />
<circle cx="344.8954308021532" cy="551.1491194815866" r="2.5" fill="grey" stroke="none" />
<circle cx="358.211768" cy="581.054038" r="5" fill="black" stroke="none" />
<circle cx="254.211768" cy="581.054038" r="5" fill="black" stroke="none" />
<path d="M254.211768,581.054038 L303.35317327472876,564.8485862657963" stroke="grey" stroke-width="5" />
<circle cx="303.35317327472876" cy="564.8485862657963" r="2.5" fill="grey" stroke="none" />
<path d="M303.35317327472876,564.8485862657963 A207.06354966963949,207.06354966963949,0,0,1,294.211768,477.054038" stroke="grey" stroke-width="5" fill="none" />
<circle cx="254.211768" cy="581.054038" r="5" fill="black" stroke="none" />
<circle cx="294.211768" cy="477.054038" r="5" fill="black" stroke="none" />
<path d="M294.211768,477.054038 L355.61834425553366,483.9010425717171" stroke="grey" stroke-width="5" />
<circle cx="355.61834425553366" cy="483.9010425717171" r="2.5" fill="grey" stroke="none" />
<path d="M355.61834425553366,483.9010425717171 A145.27642253921064,145.27642253921064,0,0,1,406.211768,389.054038" stroke="grey" stroke-width="5" fill="none" />
<circle cx="294.211768" cy="477.054038" r="5" fill="black" stroke="none" />
<circle cx="406.211768" cy="389.054038" r="5" fill="black" stroke="none" />
<path d="M406.211768,389.054038 L436.5611217300513,424.95553836796546" stroke="grey" stroke-width="5" />
<circle cx="436.5611217300513" cy="424.95553836796546" r="2.5" fill="grey" stroke="none" />
<path d="M436.5611217300513,424.95553836796546 A98.26577480380068,98.26577480380068,0,0,1,454.211768,413.054038" stroke="grey" stroke-width="5" fill="none" />
<circle cx="406.211768" cy="389.054038" r="5" fill="black" stroke="none" />
<circle cx="454.211768" cy="413.054038" r="5" fill="black" stroke="none" />
<path d="M454.211768,413.054038 A98.26577480380068,98.26577480380068,0,0,0,424.82213945546675,436.7192621587107" stroke="grey" stroke-width="5" fill="none" />
<path d="M424.82213945546675,436.7192621587107 L-93.788232,-78.94596200000001" stroke="grey" stroke-width="5" />
<circle cx="424.82213945546675" cy="436.7192621587107" r="2.5" fill="grey" stroke="none" />
<circle cx="454.211768" cy="413.054038" r="5" fill="black" stroke="none" />
<circle cx="406.211768" cy="421.054038" r="5" fill="black" stroke="none" />
<path d="M406.211768,389.054038 L420.85674971453597,406.37818997667443" stroke="grey" stroke-width="5" />
<circle cx="420.85674971453597" cy="406.37818997667443" r="2.5" fill="grey" stroke="none" />
<path d="M420.85674971453597,406.37818997667443 A122.59158771217244,122.59158771217244,0,0,0,406.211768,421.054038" stroke="grey" stroke-width="5" fill="none" />
<circle cx="406.211768" cy="389.054038" r="5" fill="black" stroke="none" />
<circle cx="406.211768" cy="421.054038" r="5" fill="black" stroke="none" />
<path d="M406.211768,421.054038 A122.59158771217244,122.59158771217244,0,0,0,380.60969425157884,527.8325757178488" stroke="grey" stroke-width="5" fill="none" />
<path d="M380.6096942515789,527.832575717849 L-141.788232,33.05403799999999" stroke="grey" stroke-width="5" />
<circle cx="380.6096942515789" cy="527.832575717849" r="2.5" fill="grey" stroke="none" />
<circle cx="406.211768" cy="421.054038" r="5" fill="black" stroke="none" />
<circle cx="358.211768" cy="533.054038" r="5" fill="black" stroke="none" />
<path d="M294.211768,477.054038 L355.30661601194436,483.8662840028611" stroke="grey" stroke-width="5" />
<circle cx="355.30661601194436" cy="483.8662840028611" r="2.5" fill="grey" stroke="none" />
<path d="M355.30661601194436,483.8662840028611 A145.59008263542975,145.59008263542975,0,0,0,358.211768,533.0540379999999" stroke="grey" stroke-width="5" fill="none" />
<circle cx="294.211768" cy="477.054038" r="5" fill="black" stroke="none" />
<circle cx="358.211768" cy="533.054038" r="5" fill="black" stroke="none" />
<path d="M358.211768,533.0540379999999 A145.59008263542975,145.59008263542975,0,0,0,373.60477255246667,572.2545406204869" stroke="grey" stroke-width="5" fill="none" />
<path d="M373.60477255246667,572.2545406204869 L-141.788232,81.05403799999999" stroke="grey" stroke-width="5" />
<circle cx="373.60477255246667" cy="572.2545406204869" r="2.5" fill="grey" stroke="none" />
<circle cx="358.211768" cy="533.054038" r="5" fill="black" stroke="none" />
<circle cx="358.211768" cy="581.054038" r="5" fill="black" stroke="none" />
<path d="M454.211768,413.054038 A98.26577480380068,98.26577480380068,0,0,1,495.52412095640676,401.8362133748988" stroke="grey" stroke-width="5" fill="none" />
<path d="M495.52412095640676,401.8362133748988 L-5.788231999999994,-126.94596200000001" stroke="grey" stroke-width="5" />
<circle cx="495.52412095640676" cy="401.8362133748988" r="2.5" fill="grey" stroke="none" />
<circle cx="454.211768" cy="413.054038" r="5" fill="black" stroke="none" />
<circle cx="494.211768" cy="373.054038" r="5" fill="black" stroke="none" />
<path d="M454.211768,413.054038 L489.2584715956574,479.60321943712756" stroke="grey" stroke-width="5" />
<circle cx="489.2584715956574" cy="479.60321943712756" r="2.5" fill="grey" stroke="none" />
<path d="M489.2584715956574,479.60321943712756 A23.05231202702385,23.05231202702385,0,0,1,502.211768,477.054038" stroke="grey" stroke-width="5" fill="none" />
<circle cx="454.211768" cy="413.054038" r="5" fill="black" stroke="none" />
<circle cx="502.211768" cy="477.054038" r="5" fill="black" stroke="none" />
<path d="M406.211768,421.054038 L460.81738701661516,467.01815345397483" stroke="grey" stroke-width="5" />
<circle cx="460.81738701661516" cy="467.01815345397483" r="2.5" fill="grey" stroke="none" />
<path d="M460.81738701661516,467.01815345397483 A51.21600689033915,51.21600689033915,0,0,0,454.211768,477.054038" stroke="grey" stroke-width="5" fill="none" />
<circle cx="406.211768" cy="421.054038" r="5" fill="black" stroke="none" />
<circle cx="454.211768" cy="477.054038" r="5" fill="black" stroke="none" />
<path d="M358.211768,533.054038 L403.154324465338,522.5769134300115" stroke="grey" stroke-width="5" />
<circle cx="403.154324465338" cy="522.5769134300115" r="2.5" fill="grey" stroke="none" />
<path d="M403.154324465338,522.5769134300115 A99.44245516775652,99.44245516775652,0,0,0,406.211768,533.054038" stroke="grey" stroke-width="5" fill="none" />
<circle cx="358.211768" cy="533.054038" r="5" fill="black" stroke="none" />
<circle cx="406.211768" cy="533.054038" r="5" fill="black" stroke="none" />
<path d="M358.211768,581.054038 L419.18048770301795,546.2009274568079" stroke="grey" stroke-width="5" />
<circle cx="419.18048770301795" cy="546.2009274568079" r="2.5" fill="grey" stroke="none" />
<path d="M419.18048770301795,546.200927456808 A93.093067764422,93.093067764422,0,0,0,454.211768,581.054038" stroke="grey" stroke-width="5" fill="none" />
<circle cx="358.211768" cy="581.054038" r="5" fill="black" stroke="none" />
<circle cx="454.211768" cy="581.054038" r="5" fill="black" stroke="none" />
<path d="M358.211768,637.054038 L396.1029774526016,600.42798528088" stroke="grey" stroke-width="5" />
<circle cx="396.1029774526016" cy="600.42798528088" r="2.5" fill="grey" stroke="none" />
<path d="M396.1029774526016,600.42798528088 A144.50042049001541,144.50042049001541,0,0,0,454.211768,637.054038" stroke="grey" stroke-width="5" fill="none" />
<circle cx="358.211768" cy="637.054038" r="5" fill="black" stroke="none" />
<circle cx="454.211768" cy="637.054038" r="5" fill="black" stroke="none" />
<path d="M502.211768,477.054038 A23.05231202702385,23.05231202702385,0,0,0,479.39072810791777,489.6720281821891" stroke="grey" stroke-width="5" fill="none" />
<path d="M479.39072810791777,489.6720281821891 L-45.788231999999994,-22.94596200000001" stroke="grey" stroke-width="5" />
<circle cx="479.39072810791777" cy="489.6720281821891" r="2.5" fill="grey" stroke="none" />
<circle cx="502.211768" cy="477.054038" r="5" fill="black" stroke="none" />
<circle cx="454.211768" cy="477.054038" r="5" fill="black" stroke="none" />
<path d="M454.211768,477.054038 A51.21600689033915,51.21600689033915,0,0,0,451.69609672004344,517.023874109963" stroke="grey" stroke-width="5" fill="none" />
<path d="M451.69609672004344,517.023874109963 L-93.788232,33.05403799999999" stroke="grey" stroke-width="5" />
<circle cx="451.69609672004344" cy="517.023874109963" r="2.5" fill="grey" stroke="none" />
<circle cx="454.211768" cy="477.054038" r="5" fill="black" stroke="none" />
<circle cx="406.211768" cy="533.054038" r="5" fill="black" stroke="none" />
<path d="M406.211768,533.054038 L412.20013401366316,530.9435421141885" stroke="grey" stroke-width="5" />
<circle cx="412.20013401366316" cy="530.9435421141885" r="2.5" fill="grey" stroke="none" />
<path d="M412.20013401366316,530.9435421141885 A93.093067764422,93.093067764422,0,0,0,454.211768,581.054038" stroke="grey" stroke-width="5" fill="none" />
<circle cx="406.211768" cy="533.054038" r="5" fill="black" stroke="none" />
<circle cx="454.211768" cy="581.054038" r="5" fill="black" stroke="none" />
<path d="M454.211768,581.054038 A93.093067764422,93.093067764422,0,0,0,470.5013523840672,588.2958042866268" stroke="grey" stroke-width="5" fill="none" />
<path d="M470.5013523840672,588.2958042866267 L-45.788231999999994,137.054038" stroke="grey" stroke-width="5" />
<circle cx="470.5013523840672" cy="588.2958042866267" r="2.5" fill="grey" stroke="none" />
<circle cx="454.211768" cy="581.054038" r="5" fill="black" stroke="none" />
<circle cx="454.211768" cy="637.054038" r="5" fill="black" stroke="none" />
<path d="M454.211768,637.054038 A144.50042049001541,144.50042049001541,0,0,0,517.3242201505143,643.4581573768735" stroke="grey" stroke-width="5" fill="none" />
<path d="M517.3242201505143,643.4581573768735 L26.211768000000006,217.054038" stroke="grey" stroke-width="5" />
<circle cx="517.3242201505143" cy="643.4581573768735" r="2.5" fill="grey" stroke="none" />
<circle cx="454.211768" cy="637.054038" r="5" fill="black" stroke="none" />
<circle cx="526.211768" cy="717.054038" r="5" fill="black" stroke="none" />
<path d="M502.211768,477.054038 L502.0929298131924,478.2869234195539" stroke="grey" stroke-width="5" />
<circle cx="502.0929298131924" cy="478.2869234195539" r="2.5" fill="grey" stroke="none" />
<path d="M502.0929298131924,478.2869234195539 A21.81371242570296,21.81371242570296,0,0,0,478.211768,501.054038" stroke="grey" stroke-width="5" fill="none" />
<circle cx="502.211768" cy="477.054038" r="5" fill="black" stroke="none" />
<circle cx="478.211768" cy="501.054038" r="5" fill="black" stroke="none" />
<path d="M478.211768,501.054038 A21.81371242570296,21.81371242570296,0,0,0,482.313282608964,512.7678532933651" stroke="grey" stroke-width="5" fill="none" />
<path d="M482.313282608964,512.7678532933651 L-45.788231999999994,33.05403799999999" stroke="grey" stroke-width="5" />
<circle cx="482.313282608964" cy="512.7678532933651" r="2.5" fill="grey" stroke="none" />
<circle cx="478.211768" cy="501.054038" r="5" fill="black" stroke="none" />
<circle cx="454.211768" cy="533.054038" r="5" fill="black" stroke="none" />
<path d="M454.211768,533.054038 A56.47239695454113,56.47239695454113,0,0,0,472.22380489281886,549.1692444843225" stroke="grey" stroke-width="5" fill="none" />
<path d="M472.22380489281886,549.1692444843225 L-45.788231999999994,81.05403799999999" stroke="grey" stroke-width="5" />
<circle cx="472.22380489281886" cy="549.1692444843225" r="2.5" fill="grey" stroke="none" />
<circle cx="454.211768" cy="533.054038" r="5" fill="black" stroke="none" />
<circle cx="454.211768" cy="581.054038" r="5" fill="black" stroke="none" />
<path d="M454.211768,477.054038 L480.49806328189607,490.22694960443073" stroke="grey" stroke-width="5" />
<circle cx="480.49806328189607" cy="490.22694960443073" r="2.5" fill="grey" stroke="none" />
<path d="M480.49806328189607,490.22694960443073 A21.81371242570296,21.81371242570296,0,0,0,478.211768,501.054038" stroke="grey" stroke-width="5" fill="none" />
<circle cx="454.211768" cy="477.054038" r="5" fill="black" stroke="none" />
<circle cx="478.211768" cy="501.054038" r="5" fill="black" stroke="none" />
<path d="M406.211768,533.054038 L446.73858103931923,518.7710646497768" stroke="grey" stroke-width="5" />
<circle cx="446.73858103931923" cy="518.7710646497768" r="2.5" fill="grey" stroke="none" />
<path d="M446.73858103931923,518.7710646497768 A56.47239695454113,56.47239695454113,0,0,0,454.211768,533.054038" stroke="grey" stroke-width="5" fill="none" />
<circle cx="406.211768" cy="533.054038" r="5" fill="black" stroke="none" />
<circle cx="454.211768" cy="533.054038" r="5" fill="black" stroke="none" />
<path d="M502.211768,477.054038 A23.05231202702385,23.05231202702385,0,0,1,501.5390737938478,523.0008769756364" stroke="grey" stroke-width="5" fill="none" />
<path d="M501.5390737938478,523.0008769756364 L2.2117680000000064,33.05403799999999" stroke="grey" stroke-width="5" />
<circle cx="501.5390737938478" cy="523.0008769756364" r="2.5" fill="grey" stroke="none" />
<circle cx="502.211768" cy="477.054038" r="5" fill="black" stroke="none" />
<circle cx="502.211768" cy="533.054038" r="5" fill="black" stroke="none" />
<path d="M478.211768,501.054038 A21.81371242570296,21.81371242570296,0,0,0,501.4563794339403,521.7650409771188" stroke="grey" stroke-width="5" fill="none" />
<path d="M501.4563794339403,521.7650409771188 L2.2117680000000064,33.05403799999999" stroke="grey" stroke-width="5" />
<circle cx="501.4563794339403" cy="521.7650409771188" r="2.5" fill="grey" stroke="none" />
<circle cx="478.211768" cy="501.054038" r="5" fill="black" stroke="none" />
<circle cx="502.211768" cy="533.054038" r="5" fill="black" stroke="none" />
<path d="M454.211768,533.054038 L473.13961276924954,519.3902280441827" stroke="grey" stroke-width="5" />
<circle cx="473.13961276924954" cy="519.3902280441827" r="2.5" fill="grey" stroke="none" />
<path d="M473.13961276924954,519.3902280441825 A33.12795414436677,33.12795414436677,0,0,0,502.211768,533.054038" stroke="grey" stroke-width="5" fill="none" />
<circle cx="454.211768" cy="533.054038" r="5" fill="black" stroke="none" />
<circle cx="502.211768" cy="533.054038" r="5" fill="black" stroke="none" />
<path d="M454.211768,581.054038 L483.7058710549086,528.8437637577346" stroke="grey" stroke-width="5" />
<circle cx="483.7058710549086" cy="528.8437637577346" r="2.5" fill="grey" stroke="none" />
<path d="M483.7058710549086,528.8437637577346 A33.12795414436677,33.12795414436677,0,0,0,502.211768,533.054038" stroke="grey" stroke-width="5" fill="none" />
<circle cx="454.211768" cy="581.054038" r="5" fill="black" stroke="none" />
<circle cx="502.211768" cy="533.054038" r="5" fill="black" stroke="none" />
<path d="M502.211768,533.054038 A33.12795414436677,33.12795414436677,0,0,1,500.69730889671,533.1206145186625" stroke="grey" stroke-width="5" fill="none" />
<path d="M500.69730889671,533.1206145186625 L2.2117680000000064,105.05403799999999" stroke="grey" stroke-width="5" />
<circle cx="500.69730889671" cy="533.1206145186625" r="2.5" fill="grey" stroke="none" />
<circle cx="502.211768" cy="533.054038" r="5" fill="black" stroke="none" />
<circle cx="502.211768" cy="605.054038" r="5" fill="black" stroke="none" />
<path d="M502.211768,605.054038 A105.07731828416286,105.07731828416286,0,0,1,466.70387109450985,599.6624835015676" stroke="grey" stroke-width="5" fill="none" />
<path d="M466.7038710945098,599.6624835015676 L-45.788231999999994,137.054038" stroke="grey" stroke-width="5" />
<circle cx="466.7038710945098" cy="599.6624835015676" r="2.5" fill="grey" stroke="none" />
<circle cx="502.211768" cy="605.054038" r="5" fill="black" stroke="none" />
<circle cx="454.211768" cy="637.054038" r="5" fill="black" stroke="none" />
<path d="M502.211768,477.054038 A23.05231202702385,23.05231202702385,0,0,1,514.7925085629589,482.3197630048108" stroke="grey" stroke-width="5" fill="none" />
<path d="M514.7925085629589,482.3197630048108 L106.211768,-126.94596200000001" stroke="grey" stroke-width="5" />
<circle cx="514.7925085629589" cy="482.3197630048108" r="2.5" fill="grey" stroke="none" />
<circle cx="502.211768" cy="477.054038" r="5" fill="black" stroke="none" />
<circle cx="606.211768" cy="373.054038" r="5" fill="black" stroke="none" />
<path d="M502.211768,477.054038 A23.05231202702385,23.05231202702385,0,0,1,523.0515568040089,500.1865977031399" stroke="grey" stroke-width="5" fill="none" />
<path d="M523.0515568040089,500.1865977031399 L130.211768,1.0540379999999914" stroke="grey" stroke-width="5" />
<circle cx="523.0515568040089" cy="500.1865977031399" r="2.5" fill="grey" stroke="none" />
<circle cx="502.211768" cy="477.054038" r="5" fill="black" stroke="none" />
<circle cx="630.211768" cy="501.054038" r="5" fill="black" stroke="none" />
<path d="M630.211768,501.054038 A130.2160340426296,130.2160340426296,0,0,0,630.2145149541539,500.62898095813625" stroke="grey" stroke-width="5" fill="none" />
<path d="M630.2145149541539,500.62898095813625 L218.211768,1.0540379999999914" stroke="grey" stroke-width="5" />
<circle cx="630.2145149541539" cy="500.62898095813625" r="2.5" fill="grey" stroke="none" />
<circle cx="630.211768" cy="501.054038" r="5" fill="black" stroke="none" />
<circle cx="718.211768" cy="501.054038" r="5" fill="black" stroke="none" />
<path d="M502.211768,533.054038 A33.12795414436677,33.12795414436677,0,0,0,514.4107748354529,529.829363292453" stroke="grey" stroke-width="5" fill="none" />
<path d="M514.4107748354529,529.829363292453 L66.211768,137.054038" stroke="grey" stroke-width="5" />
<circle cx="514.4107748354529" cy="529.829363292453" r="2.5" fill="grey" stroke="none" />
<circle cx="502.211768" cy="533.054038" r="5" fill="black" stroke="none" />
<circle cx="566.211768" cy="637.054038" r="5" fill="black" stroke="none" />
<circle cx="500" cy="500" r="5" fill="red" stroke="none" />
</svg>