<?xml version="1.0" encoding="UTF-8"?>
<svg xmlns="http://www.w3.org/2000/svg" xmlns:xlink="http://www.w3.org/1999/xlink"
     width="1000" height="1000" viewBox="0 0 1000 1000">
<defs>
</defs>
<rect x="0" y="0" width="1000" height="1000" fill="white" />
<path d="M247.971944,706.170554 L358.64976697707124,615.6309988375513" stroke="grey" stroke-width="5" />
<circle cx="358.64976697707124" cy="615.6309988375513" r="2.5" fill="grey" stroke="none" />
<path d="M358.64976697707124,615.6309988375513 A182.62096338538478,182.62096338538478,0,0,0,367.971944,626.1705539999999" stroke="grey" stroke-width="5" fill="none" />
<circle cx="247.971944" cy="706.170554" r="5" fill="black" stroke="none" />
<circle cx="367.971944" cy="626.170554" r="5" fill="black" stroke="none" />
<path d="M367.971944,626.170554 L391.9049047619301,603.2993930537766" stroke="grey" stroke-width="5" />
<circle cx="391.9049047619301" cy="603.2993930537766" r="2.5" fill="grey" stroke="none" />
<path d="M391.9049047619301,603.2993930537766 A149.51693623066936,149.51693623066936,0,0,1,367.971944,570.170554" stroke="grey" stroke-width="5" fill="none" />
<circle cx="367.971944" cy="626.170554" r="5" fill="black" stroke="none" />
<circle cx="367.971944" cy="570.170554" r="5" fill="black" stroke="none" />
<path d="M367.971944,570.170554 A149.51693623066936,149.51693623066936,0,0,1,356.6825891799309,542.6079097778522" stroke="grey" stroke-width="5" fill="none" />
<path d="M356.6825891799309,542.6079097778521 L263.971944,570.170554" stroke="grey" stroke-width="5" />
<circle cx="356.6825891799309" cy="542.6079097778521" r="2.5" fill="grey" stroke="none" />
<circle cx="367.971944" cy="570.170554" r="5" fill="black" stroke="none" />
<circle cx="263.971944" cy="570.170554" r="5" fill="black" stroke="none" />
<path d="M263.971944,570.170554 L309.3225051281535,556.6879449724808" stroke="grey" stroke-width="5" />
<circle cx="309.3225051281535" cy="556.6879449724808" r="2.5" fill="grey" stroke="none" />
<path d="M309.3225051281536,556.6879449724809 A198.9256900347616,198.9256900347616,0,0,1,303.971944,466.1705539999999" stroke="grey" stroke-width="5" fill="none" />
<circle cx="263.971944" cy="570.170554" r="5" fill="black" stroke="none" />
<circle cx="303.971944" cy="466.170554" r="5" fill="black" stroke="none" />
<path d="M303.971944,466.170554 L354.1587320344466,474.8315144276479" stroke="grey" stroke-width="5" />
<circle cx="354.1587320344466" cy="474.8315144276479" r="2.5" fill="grey" stroke="none" />
<path d="M354.1587320344466,474.8315144276479 A147.99705438895077,147.99705438895077,0,0,1,415.971944,378.17055400000004" stroke="grey" stroke-width="5" fill="none" />
<circle cx="303.971944" cy="466.170554" r="5" fill="black" stroke="none" />
<circle cx="415.971944" cy="378.170554" r="5" fill="black" stroke="none" />
<path d="M415.971944,378.170554 L440.8086189004347,414.18041175039303" stroke="grey" stroke-width="5" />
<circle cx="440.8086189004347" cy="414.18041175039303" r="2.5" fill="grey" stroke="none" />
<path d="M440.8086189004347,414.18041175039303 A104.2526801756485,104.2526801756485,0,0,1,463.971944,402.170554" stroke="grey" stroke-width="5" fill="none" />
<circle cx="415.971944" cy="378.170554" r="5" fill="black" stroke="none" />
<circle cx="463.971944" cy="402.170554" r="5" fill="black" stroke="none" />
<path d="M463.971944,402.170554 A104.2526801756485,104.2526801756485,0,0,0,428.78172409735987,423.8647354949004" stroke="grey" stroke-width="5" fill="none" />
<path d="M428.7817240973598,423.8647354949004 L415.971944,410.170554" stroke="grey" stroke-width="5" />
<circle cx="428.7817240973598" cy="423.8647354949004" r="2.5" fill="grey" stroke="none" />
<circle cx="463.971944" cy="402.170554" r="5" fill="black" stroke="none" />
<circle cx="415.971944" cy="410.170554" r="5" fill="black" stroke="none" />
<path d="M415.971944,378.170554 L430.16207395204253,398.74434510050276" stroke="grey" stroke-width="5" />
<circle cx="430.16207395204253" cy="398.74434510050276" r="2.5" fill="grey" stroke="none" />
<path d="M430.16207395204253,398.74434510050276 A123.00424205614233,123.00424205614233,0,0,0,415.971944,410.1705539999999" stroke="grey" stroke-width="5" fill="none" />
<circle cx="415.971944" cy="378.170554" r="5" fill="black" stroke="none" />
<circle cx="415.971944" cy="410.170554" r="5" fill="black" stroke="none" />
<path d="M415.971944,410.1705539999999 A123.00424205614233,123.00424205614233,0,0,0,378.6941682576131,520.370045387622" stroke="grey" stroke-width="5" fill="none" />
<path d="M378.6941682576131,520.370045387622 L367.971944,522.170554" stroke="grey" stroke-width="5" />
<circle cx="378.6941682576131" cy="520.370045387622" r="2.5" fill="grey" stroke="none" />
<circle cx="415.971944" cy="410.170554" r="5" fill="black" stroke="none" />
<circle cx="367.971944" cy="522.170554" r="5" fill="black" stroke="none" />
<path d="M303.971944,466.170554 L368.07351304412157,477.232850962703" stroke="grey" stroke-width="5" />
<circle cx="368.07351304412157" cy="477.232850962703" r="2.5" fill="grey" stroke="none" />
<path d="M368.07351304412157,477.232850962703 A133.87658882644885,133.87658882644885,0,0,0,367.971944,522.170554" stroke="grey" stroke-width="5" fill="none" />
<circle cx="303.971944" cy="466.170554" r="5" fill="black" stroke="none" />
<circle cx="367.971944" cy="522.170554" r="5" fill="black" stroke="none" />
<path d="M367.971944,522.170554 A133.87658882644885,133.87658882644885,0,0,0,381.7828520817315,562.830302990486" stroke="grey" stroke-width="5" fill="none" />
<path d="M381.78285208173145,562.830302990486 L367.971944,570.170554" stroke="grey" stroke-width="5" />
<circle cx="381.78285208173145" cy="562.830302990486" r="2.5" fill="grey" stroke="none" />
<circle cx="367.971944" cy="522.170554" r="5" fill="black" stroke="none" />
<circle cx="367.971944" cy="570.170554" r="5" fill="black" stroke="none" />
<path d="M463.971944,402.170554 A104.2526801756485,104.2526801756485,0,0,1,503.0030881230908,395.79058206893677" stroke="grey" stroke-width="5" fill="none" />
<path d="M503.0030881230908,395.79058206893677 L503.971944,362.170554" stroke="grey" stroke-width="5" />
<circle cx="503.0030881230908" cy="395.79058206893677" r="2.5" fill="grey" stroke="none" />
<circle cx="463.971944" cy="402.170554" r="5" fill="black" stroke="none" />
<circle cx="503.971944" cy="362.170554" r="5" fill="black" stroke="none" />
<path d="M463.971944,402.170554 L487.59859549109495,466.32561765952397" stroke="grey" stroke-width="5" />
<circle cx="487.59859549109495" cy="466.32561765952397" r="2.5" fill="grey" stroke="none" />
<path d="M487.59859549109495,466.32561765952397 A35.88535717818695,35.88535717818695,0,0,1,511.971944,466.170554" stroke="grey" stroke-width="5" fill="none" />
<circle cx="463.971944" cy="402.170554" r="5" fill="black" stroke="none" />
<circle cx="511.971944" cy="466.170554" r="5" fill="black" stroke="none" />
<path d="M415.971944,410.170554 L466.23884726377923,463.9079399074031" stroke="grey" stroke-width="5" />
<circle cx="466.23884726377923" cy="463.9079399074031" r="2.5" fill="grey" stroke="none" />
<path d="M466.23884726377923,463.9079399074031 A49.42117193881639,49.42117193881639,0,0,0,463.971944,466.170554" stroke="grey" stroke-width="5" fill="none" />
<circle cx="415.971944" cy="410.170554" r="5" fill="black" stroke="none" />
<circle cx="463.971944" cy="466.170554" r="5" fill="black" stroke="none" />
<path d="M367.971944,522.170554 L414.2962742158676,514.3916311279952" stroke="grey" stroke-width="5" />
<circle cx="414.2962742158676" cy="514.3916311279952" r="2.5" fill="grey" stroke="none" />
<path d="M414.2962742158676,514.3916311279952 A86.9036688512404,86.9036688512404,0,0,0,415.971944,522.1705539999999" stroke="grey" stroke-width="5" fill="none" />
<circle cx="367.971944" cy="522.170554" r="5" fill="black" stroke="none" />
<circle cx="415.971944" cy="522.170554" r="5" fill="black" stroke="none" />
<path d="M367.971944,570.170554 L430.34724298955234,537.019196488438" stroke="grey" stroke-width="5" />
<circle cx="430.34724298955234" cy="537.019196488438" r="2.5" fill="grey" stroke="none" />
<path d="M430.34724298955234,537.0191964884381 A78.87919540541758,78.87919540541758,0,0,0,463.971944,570.170554" stroke="grey" stroke-width="5" fill="none" />
<circle cx="367.971944" cy="570.170554" r="5" fill="black" stroke="none" />
<circle cx="463.971944" cy="570.170554" r="5" fill="black" stroke="none" />
<path d="M367.971944,626.170554 L405.1374682443329,590.6538999972483" stroke="grey" stroke-width="5" />
<circle cx="405.1374682443329" cy="590.6538999972483" r="2.5" fill="grey" stroke="none" />
<path d="M405.1374682443329,590.6538999972483 A131.21367884411308,131.21367884411308,0,0,0,463.97194399999995,626.170554" stroke="grey" stroke-width="5" fill="none" />
<circle cx="367.971944" cy="626.170554" r="5" fill="black" stroke="none" />
<circle cx="463.971944" cy="626.170554" r="5" fill="black" stroke="none" />
<path d="M511.971944,466.170554 A35.88535717818695,35.88535717818695,0,0,0,473.83955889196005,475.43599827310646" stroke="grey" stroke-width="5" fill="none" />
<path d="M473.83955889196005,475.43599827310646 L463.971944,466.170554" stroke="grey" stroke-width="5" />
<circle cx="473.83955889196005" cy="475.43599827310646" r="2.5" fill="grey" stroke="none" />
<circle cx="511.971944" cy="466.170554" r="5" fill="black" stroke="none" />
<circle cx="463.971944" cy="466.170554" r="5" fill="black" stroke="none" />
<path d="M463.971944,466.170554 A49.42117193881639,49.42117193881639,0,0,0,452.2141578352797,512.6081530929195" stroke="grey" stroke-width="5" fill="none" />
<path d="M452.2141578352797,512.6081530929195 L415.971944,522.170554" stroke="grey" stroke-width="5" />
<circle cx="452.2141578352797" cy="512.6081530929195" r="2.5" fill="grey" stroke="none" />
<circle cx="463.971944" cy="466.170554" r="5" fill="black" stroke="none" />
<circle cx="415.971944" cy="522.170554" r="5" fill="black" stroke="none" />
<path d="M415.971944,522.170554 L423.73089034817235,520.1233789589011" stroke="grey" stroke-width="5" />
<circle cx="423.73089034817235" cy="520.1233789589011" r="2.5" fill="grey" stroke="none" />
<path d="M423.73089034817235,520.1233789589011 A78.87919540541758,78.87919540541758,0,0,0,463.971944,570.170554" stroke="grey" stroke-width="5" fill="none" />
<circle cx="415.971944" cy="522.170554" r="5" fill="black" stroke="none" />
<circle cx="463.971944" cy="570.170554" r="5" fill="black" stroke="none" />
<path d="M463.971944,570.170554 A78.87919540541758,78.87919540541758,0,0,0,478.34170877353745,575.8475173552555" stroke="grey" stroke-width="5" fill="none" />
<path d="M478.34170877353745,575.8475173552555 L463.971944,626.170554" stroke="grey" stroke-width="5" />
<circle cx="478.34170877353745" cy="575.8475173552555" r="2.5" fill="grey" stroke="none" />
<circle cx="463.971944" cy="570.170554" r="5" fill="black" stroke="none" />
<circle cx="463.971944" cy="626.170554" r="5" fill="black" stroke="none" />
<path d="M463.97194399999995,626.170554 A131.21367884411308,131.21367884411308,0,0,0,522.5530138545928,629.2609418265263" stroke="grey" stroke-width="5" fill="none" />
<path d="M522.5530138545928,629.2609418265263 L535.971944,706.170554" stroke="grey" stroke-width="5" />
<circle cx="522.5530138545928" cy="629.2609418265263" r="2.5" fill="grey" stroke="none" />
<circle cx="463.971944" cy="626.170554" r="5" fill="black" stroke="none" />
<circle cx="535.971944" cy="706.170554" r="5" fill="black" stroke="none" />
<path d="M511.971944,466.170554 L505.1822575252801,485.356354731566" stroke="grey" stroke-width="5" />
<circle cx="505.1822575252801" cy="485.356354731566" r="2.5" fill="grey" stroke="none" />
<path d="M505.1822575252801,485.356354731566 A15.533581036131116,15.533581036131116,0,0,0,487.971944,490.170554" stroke="grey" stroke-width="5" fill="none" />
<circle cx="511.971944" cy="466.170554" r="5" fill="black" stroke="none" />
<circle cx="487.971944" cy="490.170554" r="5" fill="black" stroke="none" />
<path d="M487.971944,490.170554 A15.533581036131116,15.533581036131116,0,0,0,486.77060516837133,508.14096138026275" stroke="grey" stroke-width="5" fill="none" />
<path d="M486.77060516837133,508.14096138026275 L463.971944,522.170554" stroke="grey" stroke-width="5" />
<circle cx="486.77060516837133" cy="508.14096138026275" r="2.5" fill="grey" stroke="none" />
<circle cx="487.971944" cy="490.170554" r="5" fill="black" stroke="none" />
<circle cx="463.971944" cy="522.170554" r="5" fill="black" stroke="none" />
<path d="M463.971944,522.1705539999999 A42.303123806712556,42.303123806712556,0,0,0,480.67805705104223,537.632656091263" stroke="grey" stroke-width="5" fill="none" />
<path d="M480.6780570510422,537.6326560912629 L463.971944,570.170554" stroke="grey" stroke-width="5" />
<circle cx="480.6780570510422" cy="537.6326560912629" r="2.5" fill="grey" stroke="none" />
<circle cx="463.971944" cy="522.170554" r="5" fill="black" stroke="none" />
<circle cx="463.971944" cy="570.170554" r="5" fill="black" stroke="none" />
<path d="M463.971944,466.170554 L488.6760126177681,489.36705828224825" stroke="grey" stroke-width="5" />
<circle cx="488.6760126177681" cy="489.36705828224825" r="2.5" fill="grey" stroke="none" />
<path d="M488.6760126177681,489.36705828224825 A15.533581036131116,15.533581036131116,0,0,0,487.971944,490.170554" stroke="grey" stroke-width="5" fill="none" />
<circle cx="463.971944" cy="466.170554" r="5" fill="black" stroke="none" />
<circle cx="487.971944" cy="490.170554" r="5" fill="black" stroke="none" />
<path d="M415.971944,522.170554 L459.0966721751398,510.79222204451287" stroke="grey" stroke-width="5" />
<circle cx="459.0966721751398" cy="510.79222204451287" r="2.5" fill="grey" stroke="none" />
<path d="M459.0966721751398,510.79222204451287 A42.303123806712556,42.303123806712556,0,0,0,463.971944,522.1705539999999" stroke="grey" stroke-width="5" fill="none" />
<circle cx="415.971944" cy="522.170554" r="5" fill="black" stroke="none" />
<circle cx="463.971944" cy="522.170554" r="5" fill="black" stroke="none" />
<path d="M511.971944,466.170554 L508.405947946916,476.2470855068312" stroke="grey" stroke-width="5" />
<circle cx="508.405947946916" cy="476.2470855068312" r="2.5" fill="grey" stroke="none" />
<path d="M508.405947946916,476.2470855068312 A25.196446332886932,25.196446332886932,0,0,1,511.971944,522.170554" stroke="grey" stroke-width="5" fill="none" />
<circle cx="511.971944" cy="466.170554" r="5" fill="black" stroke="none" />
<circle cx="511.971944" cy="522.170554" r="5" fill="black" stroke="none" />
<path d="M487.971944,490.170554 A15.533581036131116,15.533581036131116,0,0,0,507.38069011110093,513.6681217908662" stroke="grey" stroke-width="5" fill="none" />
<path d="M507.38069011110093,513.6681217908662 L511.971944,522.170554" stroke="grey" stroke-width="5" />
<circle cx="507.38069011110093" cy="513.6681217908662" r="2.5" fill="grey" stroke="none" />
<circle cx="487.971944" cy="490.170554" r="5" fill="black" stroke="none" />
<circle cx="511.971944" cy="522.170554" r="5" fill="black" stroke="none" />
<path d="M463.971944,522.170554 L478.5410887472523,513.2051518602683" stroke="grey" stroke-width="5" />
<circle cx="478.5410887472523" cy="513.2051518602683" r="2.5" fill="grey" stroke="none" />
<path d="M478.5410887472523,513.2051518602683 A25.196446332886932,25.196446332886932,0,0,0,511.971944,522.170554" stroke="grey" stroke-width="5" fill="none" />
<circle cx="463.971944" cy="522.170554" r="5" fill="black" stroke="none" />
<circle cx="511.971944" cy="522.170554" r="5" fill="black" stroke="none" />
<path d="M463.971944,570.170554 L488.4915284085175,522.4146378385664" stroke="grey" stroke-width="5" />
<circle cx="488.4915284085175" cy="522.4146378385664" r="2.5" fill="grey" stroke="none" />
<path d="M488.4915284085175,522.4146378385664 A25.196446332886932,25.196446332886932,0,0,0,511.971944,522.170554" stroke="grey" stroke-width="5" fill="none" />
<circle cx="463.971944" cy="570.170554" r="5" fill="black" stroke="none" />
<circle cx="511.971944" cy="522.170554" r="5" fill="black" stroke="none" />
<path d="M511.971944,522.170554 A25.196446332886932,25.196446332886932,0,0,1,503.1776593428752,524.9952673301705" stroke="grey" stroke-width="5" fill="none" />
<path d="M503.1776593428752,524.9952673301705 L511.971944,594.170554" stroke="grey" stroke-width="5" />
<circle cx="503.1776593428752" cy="524.9952673301705" r="2.5" fill="grey" stroke="none" />
<circle cx="511.971944" cy="522.170554" r="5" fill="black" stroke="none" />
<circle cx="511.971944" cy="594.170554" r="5" fill="black" stroke="none" />
<path d="M511.971944,594.170554 A94.92850301045544,94.92850301045544,0,0,1,473.93496278295754,591.2799787394817" stroke="grey" stroke-width="5" fill="none" />
<path d="M473.9349627829576,591.2799787394817 L463.971944,626.170554" stroke="grey" stroke-width="5" />
<circle cx="473.9349627829576" cy="591.2799787394817" r="2.5" fill="grey" stroke="none" />
<circle cx="511.971944" cy="594.170554" r="5" fill="black" stroke="none" />
<circle cx="463.971944" cy="626.170554" r="5" fill="black" stroke="none" />
<path d="M511.971944,466.170554 A35.88535717818695,35.88535717818695,0,0,1,523.1039709793878,472.54156987754646" stroke="grey" stroke-width="5" fill="none" />
<path d="M523.1039709793878,472.54156987754646 L615.971944,362.170554" stroke="grey" stroke-width="5" />
<circle cx="523.1039709793878" cy="472.54156987754646" r="2.5" fill="grey" stroke="none" />
<circle cx="511.971944" cy="466.170554" r="5" fill="black" stroke="none" />
<circle cx="615.971944" cy="362.170554" r="5" fill="black" stroke="none" />
<path d="M511.971944,466.170554 A35.88535717818695,35.88535717818695,0,0,1,535.7971993852549,497.4861630963088" stroke="grey" stroke-width="5" fill="none" />
<path d="M535.7971993852549,497.4861630963088 L639.971944,490.170554" stroke="grey" stroke-width="5" />
<circle cx="535.7971993852549" cy="497.4861630963088" r="2.5" fill="grey" stroke="none" />
<circle cx="511.971944" cy="466.170554" r="5" fill="black" stroke="none" />
<circle cx="639.971944" cy="490.170554" r="5" fill="black" stroke="none" />
<path d="M639.971944,490.170554 A140.3166530238163,140.3166530238163,0,0,1,640.1864054997441,493.95559524292236" stroke="grey" stroke-width="5" fill="none" />
<path d="M640.1864054997441,493.95559524292236 L727.971944,490.170554" stroke="grey" stroke-width="5" />
<circle cx="640.1864054997441" cy="493.95559524292236" r="2.5" fill="grey" stroke="none" />
<circle cx="639.971944" cy="490.170554" r="5" fill="black" stroke="none" />
<circle cx="727.971944" cy="490.170554" r="5" fill="black" stroke="none" />
<path d="M511.971944,522.170554 A25.196446332886932,25.196446332886932,0,0,0,512.9973644916174,521.5853983998" stroke="grey" stroke-width="5" fill="none" />
<path d="M512.9973644916174,521.5853983998 L575.971944,626.170554" stroke="grey" stroke-width="5" />
<circle cx="512.9973644916174" cy="521.5853983998" r="2.5" fill="grey" stroke="none" />
<circle cx="511.971944" cy="522.170554" r="5" fill="black" stroke="none" />
<circle cx="575.971944" cy="626.170554" r="5" fill="black" stroke="none" />
<circle cx="500" cy="500" r="5" fill="red" stroke="none" />
</svg>