<?xml version="1.0" encoding="UTF-8"?>
<svg xmlns="http://www.w3.org/2000/svg" xmlns:xlink="http://www.w3.org/1999/xlink"
     width="1000" height="1000" viewBox="0 0 1000 1000">
<defs>
</defs>
<rect x="0" y="0" width="1000" height="1000" fill="white" />
<path d="M316.284152,633.904582 L432.55486625703406,549.1585921416314" stroke="grey" stroke-width="5" />
<circle cx="432.55486625703406" cy="549.1585921416314" r="2.5" fill="grey" stroke="none" />
<path d="M432.55486625703406,549.1585921416314 A83.45905131831914,83.45905131831914,0,0,0,436.284152,553.904582" stroke="grey" stroke-width="5" fill="none" />
<circle cx="316.284152" cy="633.904582" r="5" fill="black" stroke="none" />
<circle cx="436.284152" cy="553.904582" r="5" fill="black" stroke="none" />
<path d="M436.284152,553.904582 L451.3305744888046,541.175078425718" stroke="grey" stroke-width="5" />
<circle cx="451.3305744888046" cy="541.175078425718" r="2.5" fill="grey" stroke="none" />
<path d="M451.3305744888046,541.175078425718 A63.75029461072182,63.75029461072182,0,0,1,436.284152,497.904582" stroke="grey" stroke-width="5" fill="none" />
<circle cx="436.284152" cy="553.904582" r="5" fill="black" stroke="none" />
<circle cx="436.284152" cy="497.904582" r="5" fill="black" stroke="none" />
<path d="M436.284152,497.904582 A63.75029461072182,63.75029461072182,0,0,0,436.2546804054399,499.2035750247395" stroke="grey" stroke-width="5" fill="none" />
<path d="M436.2546804054399,499.2035750247395 L332.284152,497.904582" stroke="grey" stroke-width="5" />
<circle cx="436.2546804054399" cy="499.2035750247395" r="2.5" fill="grey" stroke="none" />
<circle cx="436.284152" cy="497.904582" r="5" fill="black" stroke="none" />
<circle cx="332.284152" cy="497.904582" r="5" fill="black" stroke="none" />
<path d="M332.284152,497.904582 L333.9780947561407,497.9257458803638" stroke="grey" stroke-width="5" />
<circle cx="333.9780947561407" cy="497.9257458803638" r="2.5" fill="grey" stroke="none" />
<path d="M333.9780947561407,497.9257458803638 A166.0348624565149,166.0348624565149,0,0,1,372.284152,393.904582" stroke="grey" stroke-width="5" fill="none" />
<circle cx="332.284152" cy="497.904582" r="5" fill="black" stroke="none" />
<circle cx="372.284152" cy="393.904582" r="5" fill="black" stroke="none" />
<path d="M372.284152,393.904582 A166.0348624565149,166.0348624565149,0,0,1,486.60006065882243,334.5067458274913" stroke="grey" stroke-width="5" fill="none" />
<path d="M486.60006065882243,334.5067458274913 L484.284152,305.904582" stroke="grey" stroke-width="5" />
<circle cx="486.60006065882243" cy="334.5067458274913" r="2.5" fill="grey" stroke="none" />
<circle cx="372.284152" cy="393.904582" r="5" fill="black" stroke="none" />
<circle cx="484.284152" cy="305.904582" r="5" fill="black" stroke="none" />
<path d="M484.284152,305.904582 L486.0272754905854,327.4326778768998" stroke="grey" stroke-width="5" />
<circle cx="486.0272754905854" cy="327.4326778768998" r="2.5" fill="grey" stroke="none" />
<path d="M486.0272754905854,327.4326778768998 A173.13208164564367,173.13208164564367,0,0,1,532.284152,329.904582" stroke="grey" stroke-width="5" fill="none" />
<circle cx="484.284152" cy="305.904582" r="5" fill="black" stroke="none" />
<circle cx="532.284152" cy="329.904582" r="5" fill="black" stroke="none" />
<path d="M532.284152,329.904582 L530.3678643543277,340.00092116042987" stroke="grey" stroke-width="5" />
<circle cx="530.3678643543277" cy="340.00092116042987" r="2.5" fill="grey" stroke="none" />
<path d="M530.3678643543277,340.00092116042987 A162.85549550123824,162.85549550123824,0,0,0,484.284152,337.904582" stroke="grey" stroke-width="5" fill="none" />
<circle cx="532.284152" cy="329.904582" r="5" fill="black" stroke="none" />
<circle cx="484.284152" cy="337.904582" r="5" fill="black" stroke="none" />
<path d="M484.284152,305.904582 L486.8566533027631,337.6757416386877" stroke="grey" stroke-width="5" />
<circle cx="486.8566533027631" cy="337.6757416386877" r="2.5" fill="grey" stroke="none" />
<path d="M486.8566533027631,337.6757416386877 A162.85549550123824,162.85549550123824,0,0,0,484.284152,337.904582" stroke="grey" stroke-width="5" fill="none" />
<circle cx="484.284152" cy="305.904582" r="5" fill="black" stroke="none" />
<circle cx="484.284152" cy="337.904582" r="5" fill="black" stroke="none" />
<path d="M484.284152,337.904582 L492.17843546039467,419.32730747578455" stroke="grey" stroke-width="5" />
<circle cx="492.17843546039467" cy="419.32730747578455" r="2.5" fill="grey" stroke="none" />
<path d="M492.17843546039467,419.32730747578455 A81.0509727946175,81.0509727946175,0,0,0,436.284152,449.904582" stroke="grey" stroke-width="5" fill="none" />
<circle cx="484.284152" cy="337.904582" r="5" fill="black" stroke="none" />
<circle cx="436.284152" cy="449.904582" r="5" fill="black" stroke="none" />
<path d="M372.284152,393.904582 L437.6546975223315,448.2088477641031" stroke="grey" stroke-width="5" />
<circle cx="437.6546975223315" cy="448.2088477641031" r="2.5" fill="grey" stroke="none" />
<path d="M437.6546975223315,448.2088477641031 A81.0509727946175,81.0509727946175,0,0,0,436.284152,449.904582" stroke="grey" stroke-width="5" fill="none" />
<circle cx="372.284152" cy="393.904582" r="5" fill="black" stroke="none" />
<circle cx="436.284152" cy="449.904582" r="5" fill="black" stroke="none" />
<path d="M436.284152,449.904582 L449.8845733577461,460.59766408677405" stroke="grey" stroke-width="5" />
<circle cx="449.8845733577461" cy="460.59766408677405" r="2.5" fill="grey" stroke="none" />
<path d="M449.8845733577461,460.59766408677405 A63.75029461072182,63.75029461072182,0,0,0,436.284152,497.904582" stroke="grey" stroke-width="5" fill="none" />
<circle cx="436.284152" cy="449.904582" r="5" fill="black" stroke="none" />
<circle cx="436.284152" cy="497.904582" r="5" fill="black" stroke="none" />
<path d="M532.284152,329.904582 A173.13208164564367,173.13208164564367,0,0,1,556.3262325882939,336.28661258967475" stroke="grey" stroke-width="5" fill="none" />
<path d="M556.3262325882939,336.28661258967475 L572.284152,289.904582" stroke="grey" stroke-width="5" />
<circle cx="556.3262325882939" cy="336.28661258967475" r="2.5" fill="grey" stroke="none" />
<circle cx="532.284152" cy="329.904582" r="5" fill="black" stroke="none" />
<circle cx="572.284152" cy="289.904582" r="5" fill="black" stroke="none" />
<path d="M532.284152,329.904582 L524.8096327871735,369.2855596962622" stroke="grey" stroke-width="5" />
<circle cx="524.8096327871735" cy="369.2855596962622" r="2.5" fill="grey" stroke="none" />
<path d="M524.8096327871735,369.2855596962622 A133.04804689642697,133.04804689642697,0,0,1,580.284152,393.904582" stroke="grey" stroke-width="5" fill="none" />
<circle cx="532.284152" cy="329.904582" r="5" fill="black" stroke="none" />
<circle cx="580.284152" cy="393.904582" r="5" fill="black" stroke="none" />
<path d="M484.284152,337.904582 L489.2980837440397,389.6189636785184" stroke="grey" stroke-width="5" />
<circle cx="489.2980837440397" cy="389.6189636785184" r="2.5" fill="grey" stroke="none" />
<path d="M489.2980837440397,389.6189636785184 A110.89862123107675,110.89862123107675,0,0,1,532.284152,393.904582" stroke="grey" stroke-width="5" fill="none" />
<circle cx="484.284152" cy="337.904582" r="5" fill="black" stroke="none" />
<circle cx="532.284152" cy="393.904582" r="5" fill="black" stroke="none" />
<path d="M436.284152,449.904582 L458.72650088400604,467.54946759025563" stroke="grey" stroke-width="5" />
<circle cx="458.72650088400604" cy="467.54946759025563" r="2.5" fill="grey" stroke="none" />
<path d="M458.72650088400604,467.54946759025563 A52.502750241809494,52.502750241809494,0,0,1,484.284152,449.904582" stroke="grey" stroke-width="5" fill="none" />
<circle cx="436.284152" cy="449.904582" r="5" fill="black" stroke="none" />
<circle cx="484.284152" cy="449.904582" r="5" fill="black" stroke="none" />
<path d="M436.284152,497.904582 L467.6653984356732,498.9366145430456" stroke="grey" stroke-width="5" />
<circle cx="467.6653984356732" cy="498.9366145430456" r="2.5" fill="grey" stroke="none" />
<path d="M467.6653984356732,498.9366145430456 A32.35208257521961,32.35208257521961,0,0,1,532.284152,497.904582" stroke="grey" stroke-width="5" fill="none" />
<circle cx="436.284152" cy="497.904582" r="5" fill="black" stroke="none" />
<circle cx="532.284152" cy="497.904582" r="5" fill="black" stroke="none" />
<path d="M436.284152,553.904582 L452.03096636594216,540.5825361845272" stroke="grey" stroke-width="5" />
<circle cx="452.03096636594216" cy="540.5825361845272" r="2.5" fill="grey" stroke="none" />
<path d="M452.03096636594216,540.5825361845272 A62.83287699090205,62.83287699090205,0,0,0,532.284152,553.904582" stroke="grey" stroke-width="5" fill="none" />
<circle cx="436.284152" cy="553.904582" r="5" fill="black" stroke="none" />
<circle cx="532.284152" cy="553.904582" r="5" fill="black" stroke="none" />
<path d="M580.284152,393.904582 L566.9186956982327,411.5670177083168" stroke="grey" stroke-width="5" />
<circle cx="566.9186956982327" cy="411.5670177083168" r="2.5" fill="grey" stroke="none" />
<path d="M566.9186956982327,411.5670177083168 A110.89862123107675,110.89862123107675,0,0,0,532.284152,393.904582" stroke="grey" stroke-width="5" fill="none" />
<circle cx="580.284152" cy="393.904582" r="5" fill="black" stroke="none" />
<circle cx="532.284152" cy="393.904582" r="5" fill="black" stroke="none" />
<path d="M532.284152,393.904582 L515.2842907369675,449.7712309565357" stroke="grey" stroke-width="5" />
<circle cx="515.2842907369675" cy="449.7712309565357" r="2.5" fill="grey" stroke="none" />
<path d="M515.2842907369675,449.7712309565357 A52.502750241809494,52.502750241809494,0,0,0,484.284152,449.904582" stroke="grey" stroke-width="5" fill="none" />
<circle cx="532.284152" cy="393.904582" r="5" fill="black" stroke="none" />
<circle cx="484.284152" cy="449.904582" r="5" fill="black" stroke="none" />
<path d="M484.284152,449.904582 L490.3159280248387,469.1313104111347" stroke="grey" stroke-width="5" />
<circle cx="490.3159280248387" cy="469.1313104111347" r="2.5" fill="grey" stroke="none" />
<path d="M490.31592802483874,469.1313104111347 A32.35208257521961,32.35208257521961,0,0,1,532.284152,497.904582" stroke="grey" stroke-width="5" fill="none" />
<circle cx="484.284152" cy="449.904582" r="5" fill="black" stroke="none" />
<circle cx="532.284152" cy="497.904582" r="5" fill="black" stroke="none" />
<path d="M532.284152,497.904582 A32.35208257521961,32.35208257521961,0,0,1,516.6228191576549,527.7549838804805" stroke="grey" stroke-width="5" fill="none" />
<path d="M516.6228191576549,527.7549838804805 L532.284152,553.904582" stroke="grey" stroke-width="5" />
<circle cx="516.6228191576549" cy="527.7549838804805" r="2.5" fill="grey" stroke="none" />
<circle cx="532.284152" cy="497.904582" r="5" fill="black" stroke="none" />
<circle cx="532.284152" cy="553.904582" r="5" fill="black" stroke="none" />
<path d="M532.284152,553.904582 A62.83287699090205,62.83287699090205,0,0,0,538.6070515194468,549.5728353428428" stroke="grey" stroke-width="5" fill="none" />
<path d="M538.6070515194468,549.5728353428428 L604.284152,633.904582" stroke="grey" stroke-width="5" />
<circle cx="538.6070515194468" cy="549.5728353428428" r="2.5" fill="grey" stroke="none" />
<circle cx="532.284152" cy="553.904582" r="5" fill="black" stroke="none" />
<circle cx="604.284152" cy="633.904582" r="5" fill="black" stroke="none" />
<path d="M580.284152,393.904582 L560.0626862105705,420.62722665721975" stroke="grey" stroke-width="5" />
<circle cx="560.0626862105705" cy="420.62722665721975" r="2.5" fill="grey" stroke="none" />
<path d="M560.0626862105705,420.62722665721975 A99.53674408455316,99.53674408455316,0,0,0,556.284152,417.904582" stroke="grey" stroke-width="5" fill="none" />
<circle cx="580.284152" cy="393.904582" r="5" fill="black" stroke="none" />
<circle cx="556.284152" cy="417.904582" r="5" fill="black" stroke="none" />
<path d="M556.284152,417.904582 L533.6998533014511,450.84578082794417" stroke="grey" stroke-width="5" />
<circle cx="533.6998533014511" cy="450.84578082794417" r="2.5" fill="grey" stroke="none" />
<path d="M533.6998533014511,450.84578082794417 A59.59712555949177,59.59712555949177,0,0,0,532.2841520000001,449.904582" stroke="grey" stroke-width="5" fill="none" />
<circle cx="556.284152" cy="417.904582" r="5" fill="black" stroke="none" />
<circle cx="532.284152" cy="449.904582" r="5" fill="black" stroke="none" />
<path d="M532.284152,449.904582 L517.5253343440587,472.8058847710983" stroke="grey" stroke-width="5" />
<circle cx="517.5253343440587" cy="472.8058847710983" r="2.5" fill="grey" stroke="none" />
<path d="M517.5253343440587,472.8058847710983 A32.35208257521961,32.35208257521961,0,0,1,532.284152,497.904582" stroke="grey" stroke-width="5" fill="none" />
<circle cx="532.284152" cy="449.904582" r="5" fill="black" stroke="none" />
<circle cx="532.284152" cy="497.904582" r="5" fill="black" stroke="none" />
<path d="M532.284152,393.904582 L528.9765493920345,404.77435740156534" stroke="grey" stroke-width="5" />
<circle cx="528.9765493920345" cy="404.77435740156534" r="2.5" fill="grey" stroke="none" />
<path d="M528.9765493920345,404.77435740156534 A99.53674408455316,99.53674408455316,0,0,1,556.284152,417.904582" stroke="grey" stroke-width="5" fill="none" />
<circle cx="532.284152" cy="393.904582" r="5" fill="black" stroke="none" />
<circle cx="556.284152" cy="417.904582" r="5" fill="black" stroke="none" />
<path d="M484.284152,449.904582 A52.502750241809494,52.502750241809494,0,0,1,528.441082574236,455.86788465347126" stroke="grey" stroke-width="5" fill="none" />
<path d="M528.441082574236,455.86788465347126 L532.284152,449.904582" stroke="grey" stroke-width="5" />
<circle cx="528.441082574236" cy="455.86788465347126" r="2.5" fill="grey" stroke="none" />
<circle cx="484.284152" cy="449.904582" r="5" fill="black" stroke="none" />
<circle cx="532.284152" cy="449.904582" r="5" fill="black" stroke="none" />
<path d="M580.284152,393.904582 L557.1026736316048,424.53888000383074" stroke="grey" stroke-width="5" />
<circle cx="557.1026736316048" cy="424.53888000383074" r="2.5" fill="grey" stroke="none" />
<path d="M557.1026736316048,424.53888000383074 A94.63136883166082,94.63136883166082,0,0,1,580.284152,449.904582" stroke="grey" stroke-width="5" fill="none" />
<circle cx="580.284152" cy="393.904582" r="5" fill="black" stroke="none" />
<circle cx="580.284152" cy="449.904582" r="5" fill="black" stroke="none" />
<path d="M556.284152,417.904582 L553.5103533501638,421.9504128691609" stroke="grey" stroke-width="5" />
<circle cx="553.5103533501638" cy="421.9504128691609" r="2.5" fill="grey" stroke="none" />
<path d="M553.5103533501638,421.9504128691609 A94.63136883166082,94.63136883166082,0,0,1,580.284152,449.904582" stroke="grey" stroke-width="5" fill="none" />
<circle cx="556.284152" cy="417.904582" r="5" fill="black" stroke="none" />
<circle cx="580.284152" cy="449.904582" r="5" fill="black" stroke="none" />
<path d="M532.2841520000001,449.904582 A59.59712555949177,59.59712555949177,0,0,1,550.5615077352712,468.45081125464657" stroke="grey" stroke-width="5" fill="none" />
<path d="M550.5615077352712,468.45081125464657 L580.284152,449.904582" stroke="grey" stroke-width="5" />
<circle cx="550.5615077352712" cy="468.45081125464657" r="2.5" fill="grey" stroke="none" />
<circle cx="532.284152" cy="449.904582" r="5" fill="black" stroke="none" />
<circle cx="580.284152" cy="449.904582" r="5" fill="black" stroke="none" />
<path d="M532.284152,497.904582 A32.35208257521961,32.35208257521961,0,0,0,527.4471303443355,482.87363778221174" stroke="grey" stroke-width="5" fill="none" />
<path d="M527.4471303443355,482.87363778221174 L580.284152,449.904582" stroke="grey" stroke-width="5" />
<circle cx="527.4471303443355" cy="482.87363778221174" r="2.5" fill="grey" stroke="none" />
<circle cx="532.284152" cy="497.904582" r="5" fill="black" stroke="none" />
<circle cx="580.284152" cy="449.904582" r="5" fill="black" stroke="none" />
<path d="M580.284152,449.904582 L570.6017956743746,455.9461440676563" stroke="grey" stroke-width="5" />
<circle cx="570.6017956743746" cy="455.9461440676563" r="2.5" fill="grey" stroke="none" />
<path d="M570.6017956743746,455.9461440676563 A83.21872250253442,83.21872250253442,0,0,1,580.284152,521.904582" stroke="grey" stroke-width="5" fill="none" />
<circle cx="580.284152" cy="449.904582" r="5" fill="black" stroke="none" />
<circle cx="580.284152" cy="521.904582" r="5" fill="black" stroke="none" />
<path d="M580.284152,521.904582 L560.6171795869764,516.5386810197815" stroke="grey" stroke-width="5" />
<circle cx="560.6171795869764" cy="516.5386810197815" r="2.5" fill="grey" stroke="none" />
<path d="M560.6171795869764,516.5386810197815 A62.83287699090205,62.83287699090205,0,0,1,532.284152,553.904582" stroke="grey" stroke-width="5" fill="none" />
<circle cx="580.284152" cy="521.904582" r="5" fill="black" stroke="none" />
<circle cx="532.284152" cy="553.904582" r="5" fill="black" stroke="none" />
<path d="M580.284152,393.904582 A133.04804689642697,133.04804689642697,0,0,1,587.7342032152426,399.9775406764043" stroke="grey" stroke-width="5" fill="none" />
<path d="M587.7342032152426,399.9775406764043 L684.284152,289.904582" stroke="grey" stroke-width="5" />
<circle cx="587.7342032152426" cy="399.9775406764043" r="2.5" fill="grey" stroke="none" />
<circle cx="580.284152" cy="393.904582" r="5" fill="black" stroke="none" />
<circle cx="684.284152" cy="289.904582" r="5" fill="black" stroke="none" />
<path d="M580.284152,393.904582 A133.04804689642697,133.04804689642697,0,0,1,623.7800829919041,451.2119498496695" stroke="grey" stroke-width="5" fill="none" />
<path d="M623.7800829919041,451.2119498496695 L708.284152,417.904582" stroke="grey" stroke-width="5" />
<circle cx="623.7800829919041" cy="451.2119498496695" r="2.5" fill="grey" stroke="none" />
<circle cx="580.284152" cy="393.904582" r="5" fill="black" stroke="none" />
<circle cx="708.284152" cy="417.904582" r="5" fill="black" stroke="none" />
<path d="M708.284152,417.904582 A223.87931041289596,223.87931041289596,0,0,1,715.7503142794576,440.219170972049" stroke="grey" stroke-width="5" fill="none" />
<path d="M715.7503142794576,440.219170972049 L796.284152,417.904582" stroke="grey" stroke-width="5" />
<circle cx="715.7503142794576" cy="440.219170972049" r="2.5" fill="grey" stroke="none" />
<circle cx="708.284152" cy="417.904582" r="5" fill="black" stroke="none" />
<circle cx="796.284152" cy="417.904582" r="5" fill="black" stroke="none" />
<path d="M580.284152,449.904582 A94.63136883166082,94.63136883166082,0,0,1,588.6468421875594,533.1184742572445" stroke="grey" stroke-width="5" fill="none" />
<path d="M588.6468421875594,533.1184742572445 L644.284152,553.904582" stroke="grey" stroke-width="5" />
<circle cx="588.6468421875594" cy="533.1184742572445" r="2.5" fill="grey" stroke="none" />
<circle cx="580.284152" cy="449.904582" r="5" fill="black" stroke="none" />
<circle cx="644.284152" cy="553.904582" r="5" fill="black" stroke="none" />
<circle cx="500" cy="500" r="5" fill="red" stroke="none" />
</svg>