<?xml version="1.0" encoding="UTF-8"?>
<svg xmlns="http://www.w3.org/2000/svg" xmlns:xlink="http://www.w3.org/1999/xlink"
     width="1000" height="1000" viewBox="0 0 1000 1000">
<defs>
</defs>
<rect x="0" y="0" width="1000" height="1000" fill="white" />
<path d="M218.20589600000005,725.309986 L330.14920008287766,635.8051173115235" stroke="grey" stroke-width="5" />
<circle cx="330.14920008287766" cy="635.8051173115235" r="2.5" fill="grey" stroke="none" />
<path d="M330.14920008287766,635.8051173115235 A217.46798412751014,217.46798412751014,0,0,0,338.2058960000001,645.3099860000001" stroke="grey" stroke-width="5" fill="none" />
<circle cx="218.20589600000005" cy="725.309986" r="5" fill="black" stroke="none" />
<circle cx="338.20589600000005" cy="645.309986" r="5" fill="black" stroke="none" />
<path d="M338.20589600000005,645.309986 L362.5053997716909,623.4861959756655" stroke="grey" stroke-width="5" />
<circle cx="362.5053997716909" cy="623.4861959756655" r="2.5" fill="grey" stroke="none" />
<path d="M362.5053997716909,623.4861959756655 A184.8069416674682,184.8069416674682,0,0,1,338.20589600000005,589.309986" stroke="grey" stroke-width="5" fill="none" />
<circle cx="338.20589600000005" cy="645.309986" r="5" fill="black" stroke="none" />
<circle cx="338.20589600000005" cy="589.309986" r="5" fill="black" stroke="none" />
<path d="M338.20589600000005,589.309986 A184.8069416674682,184.8069416674682,0,0,1,324.81802150406645,558.8632321465044" stroke="grey" stroke-width="5" fill="none" />
<path d="M324.81802150406645,558.8632321465044 L234.20589600000005,589.309986" stroke="grey" stroke-width="5" />
<circle cx="324.81802150406645" cy="558.8632321465044" r="2.5" fill="grey" stroke="none" />
<circle cx="338.20589600000005" cy="589.309986" r="5" fill="black" stroke="none" />
<circle cx="234.20589600000005" cy="589.309986" r="5" fill="black" stroke="none" />
<path d="M234.20589600000005,589.309986 L285.5130234871028,572.0701798168901" stroke="grey" stroke-width="5" />
<circle cx="285.5130234871028" cy="572.0701798168901" r="2.5" fill="grey" stroke="none" />
<path d="M285.5130234871028,572.0701798168901 A226.2714606672326,226.2714606672326,0,0,1,274.20589600000005,485.30998600000004" stroke="grey" stroke-width="5" fill="none" />
<circle cx="234.20589600000005" cy="589.309986" r="5" fill="black" stroke="none" />
<circle cx="274.20589600000005" cy="485.309986" r="5" fill="black" stroke="none" />
<path d="M274.20589600000005,485.309986 L347.04474069136666,490.0488327161215" stroke="grey" stroke-width="5" />
<circle cx="347.04474069136666" cy="490.0488327161215" r="2.5" fill="grey" stroke="none" />
<path d="M347.04474069136666,490.0488327161215 A153.27862564781495,153.27862564781495,0,0,1,386.20589600000005,397.309986" stroke="grey" stroke-width="5" fill="none" />
<circle cx="274.20589600000005" cy="485.309986" r="5" fill="black" stroke="none" />
<circle cx="386.20589600000005" cy="397.309986" r="5" fill="black" stroke="none" />
<path d="M386.20589600000005,397.309986 L423.85063074304753,431.28132723741453" stroke="grey" stroke-width="5" />
<circle cx="423.85063074304753" cy="431.28132723741453" r="2.5" fill="grey" stroke="none" />
<path d="M423.85063074304753,431.28132723741453 A102.5718403095265,102.5718403095265,0,0,1,434.20589600000005,421.309986" stroke="grey" stroke-width="5" fill="none" />
<circle cx="386.20589600000005" cy="397.309986" r="5" fill="black" stroke="none" />
<circle cx="434.20589600000005" cy="421.309986" r="5" fill="black" stroke="none" />
<path d="M434.20589600000005,421.309986 A102.5718403095265,102.5718403095265,0,0,0,412.87115747832814,445.8747080810023" stroke="grey" stroke-width="5" fill="none" />
<path d="M412.87115747832814,445.8747080810023 L386.20589600000005,429.309986" stroke="grey" stroke-width="5" />
<circle cx="412.87115747832814" cy="445.8747080810023" r="2.5" fill="grey" stroke="none" />
<circle cx="434.20589600000005" cy="421.309986" r="5" fill="black" stroke="none" />
<circle cx="386.20589600000005" cy="429.309986" r="5" fill="black" stroke="none" />
<path d="M386.20589600000005,397.309986 L400.54557143227646,410.25038817493095" stroke="grey" stroke-width="5" />
<circle cx="400.54557143227646" cy="410.25038817493095" r="2.5" fill="grey" stroke="none" />
<path d="M400.54557143227646,410.25038817493095 A133.96333895690643,133.96333895690643,0,0,0,386.20589600000005,429.309986" stroke="grey" stroke-width="5" fill="none" />
<circle cx="386.20589600000005" cy="397.309986" r="5" fill="black" stroke="none" />
<circle cx="386.20589600000005" cy="429.309986" r="5" fill="black" stroke="none" />
<path d="M386.20589600000005,429.309986 A133.96333895690643,133.96333895690643,0,0,0,370.2007123513123,533.1409280252714" stroke="grey" stroke-width="5" fill="none" />
<path d="M370.2007123513123,533.1409280252714 L338.20589600000005,541.309986" stroke="grey" stroke-width="5" />
<circle cx="370.2007123513123" cy="533.1409280252714" r="2.5" fill="grey" stroke="none" />
<circle cx="386.20589600000005" cy="429.309986" r="5" fill="black" stroke="none" />
<circle cx="338.20589600000005" cy="541.309986" r="5" fill="black" stroke="none" />
<path d="M274.20589600000005,485.309986 L333.36771003305364,489.1590142120518" stroke="grey" stroke-width="5" />
<circle cx="333.36771003305364" cy="489.1590142120518" r="2.5" fill="grey" stroke="none" />
<path d="M333.36771003305364,489.1590142120518 A166.9845712408275,166.9845712408275,0,0,0,338.20589600000005,541.309986" stroke="grey" stroke-width="5" fill="none" />
<circle cx="274.20589600000005" cy="485.309986" r="5" fill="black" stroke="none" />
<circle cx="338.20589600000005" cy="541.309986" r="5" fill="black" stroke="none" />
<path d="M338.20589600000005,541.309986 A166.9845712408275,166.9845712408275,0,0,0,353.8089595446744,580.697129583848" stroke="grey" stroke-width="5" fill="none" />
<path d="M353.8089595446744,580.697129583848 L338.20589600000005,589.309986" stroke="grey" stroke-width="5" />
<circle cx="353.8089595446744" cy="580.697129583848" r="2.5" fill="grey" stroke="none" />
<circle cx="338.20589600000005" cy="541.309986" r="5" fill="black" stroke="none" />
<circle cx="338.20589600000005" cy="589.309986" r="5" fill="black" stroke="none" />
<path d="M434.20589600000005,421.309986 A102.5718403095265,102.5718403095265,0,0,1,478.2172103494718,399.7678070701641" stroke="grey" stroke-width="5" fill="none" />
<path d="M478.2172103494718,399.7678070701641 L474.20589600000005,381.309986" stroke="grey" stroke-width="5" />
<circle cx="478.2172103494718" cy="399.7678070701641" r="2.5" fill="grey" stroke="none" />
<circle cx="434.20589600000005" cy="421.309986" r="5" fill="black" stroke="none" />
<circle cx="474.20589600000005" cy="381.309986" r="5" fill="black" stroke="none" />
<path d="M434.20589600000005,421.309986 L485.19907964933276,482.29803950811623" stroke="grey" stroke-width="5" />
<circle cx="485.19907964933276" cy="482.29803950811623" r="2.5" fill="grey" stroke="none" />
<path d="M485.19907964933276,482.29803950811623 A23.074372114599562,23.074372114599562,0,0,0,482.20589600000005,485.30998600000004" stroke="grey" stroke-width="5" fill="none" />
<circle cx="434.20589600000005" cy="421.309986" r="5" fill="black" stroke="none" />
<circle cx="482.20589600000005" cy="485.309986" r="5" fill="black" stroke="none" />
<path d="M386.20589600000005,429.309986 L442.7356248485582,464.4268082539964" stroke="grey" stroke-width="5" />
<circle cx="442.7356248485582" cy="464.4268082539964" r="2.5" fill="grey" stroke="none" />
<path d="M442.7356248485582,464.4268082539964 A67.41409817303058,67.41409817303058,0,0,0,434.20589600000005,485.309986" stroke="grey" stroke-width="5" fill="none" />
<circle cx="386.20589600000005" cy="429.309986" r="5" fill="black" stroke="none" />
<circle cx="434.20589600000005" cy="485.309986" r="5" fill="black" stroke="none" />
<path d="M338.20589600000005,541.309986 L382.70261223778726,529.948887669563" stroke="grey" stroke-width="5" />
<circle cx="382.70261223778726" cy="529.948887669563" r="2.5" fill="grey" stroke="none" />
<path d="M382.70261223778726,529.948887669563 A121.06036943807416,121.06036943807416,0,0,0,386.20589600000005,541.309986" stroke="grey" stroke-width="5" fill="none" />
<circle cx="338.20589600000005" cy="541.309986" r="5" fill="black" stroke="none" />
<circle cx="386.20589600000005" cy="541.309986" r="5" fill="black" stroke="none" />
<path d="M338.20589600000005,589.309986 L402.8847012262943,553.6074291920148" stroke="grey" stroke-width="5" />
<circle cx="402.8847012262943" cy="553.6074291920148" r="2.5" fill="grey" stroke="none" />
<path d="M402.8847012262943,553.6074291920148 A110.92852527859101,110.92852527859101,0,0,0,434.20589600000005,589.309986" stroke="grey" stroke-width="5" fill="none" />
<circle cx="338.20589600000005" cy="589.309986" r="5" fill="black" stroke="none" />
<circle cx="434.20589600000005" cy="589.309986" r="5" fill="black" stroke="none" />
<path d="M338.20589600000005,645.309986 L381.3251125824611,606.583897699969" stroke="grey" stroke-width="5" />
<circle cx="381.3251125824611" cy="606.583897699969" r="2.5" fill="grey" stroke="none" />
<path d="M381.32511258246114,606.5838976999692 A159.5113041526619,159.5113041526619,0,0,0,434.20589600000005,645.309986" stroke="grey" stroke-width="5" fill="none" />
<circle cx="338.20589600000005" cy="645.309986" r="5" fill="black" stroke="none" />
<circle cx="434.20589600000005" cy="645.309986" r="5" fill="black" stroke="none" />
<path d="M482.20589600000005,485.30998600000004 A23.074372114599562,23.074372114599562,0,0,0,477.48011647732744,494.9719293353941" stroke="grey" stroke-width="5" fill="none" />
<path d="M477.48011647732744,494.9719293353941 L434.20589600000005,485.309986" stroke="grey" stroke-width="5" />
<circle cx="477.48011647732744" cy="494.9719293353941" r="2.5" fill="grey" stroke="none" />
<circle cx="482.20589600000005" cy="485.309986" r="5" fill="black" stroke="none" />
<circle cx="434.20589600000005" cy="485.309986" r="5" fill="black" stroke="none" />
<path d="M434.20589600000005,485.309986 A67.41409817303058,67.41409817303058,0,0,0,436.632219658869,523.0040224117693" stroke="grey" stroke-width="5" fill="none" />
<path d="M436.632219658869,523.0040224117693 L386.20589600000005,541.309986" stroke="grey" stroke-width="5" />
<circle cx="436.632219658869" cy="523.0040224117693" r="2.5" fill="grey" stroke="none" />
<circle cx="434.20589600000005" cy="485.309986" r="5" fill="black" stroke="none" />
<circle cx="386.20589600000005" cy="541.309986" r="5" fill="black" stroke="none" />
<path d="M386.20589600000005,541.309986 L395.72960828790764,537.852650272997" stroke="grey" stroke-width="5" />
<circle cx="395.72960828790764" cy="537.852650272997" r="2.5" fill="grey" stroke="none" />
<path d="M395.72960828790764,537.852650272997 A110.92852527859101,110.92852527859101,0,0,0,434.20589600000005,589.309986" stroke="grey" stroke-width="5" fill="none" />
<circle cx="386.20589600000005" cy="541.309986" r="5" fill="black" stroke="none" />
<circle cx="434.20589600000005" cy="589.309986" r="5" fill="black" stroke="none" />
<path d="M434.20589600000005,589.309986 A110.92852527859101,110.92852527859101,0,0,0,454.24497989332974,601.0525400745632" stroke="grey" stroke-width="5" fill="none" />
<path d="M454.24497989332974,601.0525400745632 L434.20589600000005,645.309986" stroke="grey" stroke-width="5" />
<circle cx="454.24497989332974" cy="601.0525400745632" r="2.5" fill="grey" stroke="none" />
<circle cx="434.20589600000005" cy="589.309986" r="5" fill="black" stroke="none" />
<circle cx="434.20589600000005" cy="645.309986" r="5" fill="black" stroke="none" />
<path d="M434.20589600000005,645.309986 A159.5113041526619,159.5113041526619,0,0,0,504.39188378606605,659.4508310084733" stroke="grey" stroke-width="5" fill="none" />
<path d="M504.39188378606605,659.4508310084733 L506.20589600000005,725.309986" stroke="grey" stroke-width="5" />
<circle cx="504.39188378606605" cy="659.4508310084733" r="2.5" fill="grey" stroke="none" />
<circle cx="434.20589600000005" cy="645.309986" r="5" fill="black" stroke="none" />
<circle cx="506.20589600000005" cy="725.309986" r="5" fill="black" stroke="none" />
<path d="M482.20589600000005,485.30998600000004 A23.074372114599562,23.074372114599562,0,0,0,477.4776565271812,505.0170402604907" stroke="grey" stroke-width="5" fill="none" />
<path d="M477.4776565271812,505.0170402604907 L458.20589600000005,509.309986" stroke="grey" stroke-width="5" />
<circle cx="477.4776565271812" cy="505.0170402604907" r="2.5" fill="grey" stroke="none" />
<circle cx="482.20589600000005" cy="485.309986" r="5" fill="black" stroke="none" />
<circle cx="458.20589600000005" cy="509.309986" r="5" fill="black" stroke="none" />
<path d="M458.20589600000005,509.309986 A42.81848862913085,42.81848862913085,0,0,0,463.73680754838074,522.768483517789" stroke="grey" stroke-width="5" fill="none" />
<path d="M463.73680754838074,522.768483517789 L434.20589600000005,541.309986" stroke="grey" stroke-width="5" />
<circle cx="463.73680754838074" cy="522.768483517789" r="2.5" fill="grey" stroke="none" />
<circle cx="458.20589600000005" cy="509.309986" r="5" fill="black" stroke="none" />
<circle cx="434.20589600000005" cy="541.309986" r="5" fill="black" stroke="none" />
<path d="M434.20589600000005,541.309986 A77.68770214443857,77.68770214443857,0,0,0,453.92174608311774,562.5473706917751" stroke="grey" stroke-width="5" fill="none" />
<path d="M453.92174608311774,562.5473706917751 L434.20589600000005,589.309986" stroke="grey" stroke-width="5" />
<circle cx="453.92174608311774" cy="562.5473706917751" r="2.5" fill="grey" stroke="none" />
<circle cx="434.20589600000005" cy="541.309986" r="5" fill="black" stroke="none" />
<circle cx="434.20589600000005" cy="589.309986" r="5" fill="black" stroke="none" />
<path d="M434.20589600000005,485.309986 L458.2104608629936,490.669545177237" stroke="grey" stroke-width="5" />
<circle cx="458.2104608629936" cy="490.669545177237" r="2.5" fill="grey" stroke="none" />
<path d="M458.2104608629936,490.66954517723696 A42.81848862913085,42.81848862913085,0,0,0,458.20589600000005,509.309986" stroke="grey" stroke-width="5" fill="none" />
<circle cx="434.20589600000005" cy="485.309986" r="5" fill="black" stroke="none" />
<circle cx="458.20589600000005" cy="509.309986" r="5" fill="black" stroke="none" />
<path d="M386.20589600000005,541.309986 L426.9752562429823,526.5097314906227" stroke="grey" stroke-width="5" />
<circle cx="426.9752562429823" cy="526.5097314906227" r="2.5" fill="grey" stroke="none" />
<path d="M426.9752562429823,526.5097314906227 A77.68770214443857,77.68770214443857,0,0,0,434.20589600000005,541.309986" stroke="grey" stroke-width="5" fill="none" />
<circle cx="386.20589600000005" cy="541.309986" r="5" fill="black" stroke="none" />
<circle cx="434.20589600000005" cy="541.309986" r="5" fill="black" stroke="none" />
<path d="M482.20589600000005,485.30998600000004 A23.074372114599562,23.074372114599562,0,0,0,490.8716453863631,521.1919746727554" stroke="grey" stroke-width="5" fill="none" />
<path d="M490.8716453863631,521.1919746727554 L482.20589600000005,541.309986" stroke="grey" stroke-width="5" />
<circle cx="490.8716453863631" cy="521.1919746727554" r="2.5" fill="grey" stroke="none" />
<circle cx="482.20589600000005" cy="485.309986" r="5" fill="black" stroke="none" />
<circle cx="482.20589600000005" cy="541.309986" r="5" fill="black" stroke="none" />
<path d="M458.20589600000005,509.309986 A42.81848862913085,42.81848862913085,0,0,0,483.06075908434457,539.3253745778014" stroke="grey" stroke-width="5" fill="none" />
<path d="M483.06075908434457,539.3253745778014 L482.20589600000005,541.309986" stroke="grey" stroke-width="5" />
<circle cx="483.06075908434457" cy="539.3253745778014" r="2.5" fill="grey" stroke="none" />
<circle cx="458.20589600000005" cy="509.309986" r="5" fill="black" stroke="none" />
<circle cx="482.20589600000005" cy="541.309986" r="5" fill="black" stroke="none" />
<path d="M434.20589600000005,541.309986 L461.90673353846927,523.9175276894129" stroke="grey" stroke-width="5" />
<circle cx="461.90673353846927" cy="523.9175276894129" r="2.5" fill="grey" stroke="none" />
<path d="M461.90673353846927,523.9175276894129 A44.979385061192325,44.979385061192325,0,0,0,482.20589600000005,541.309986" stroke="grey" stroke-width="5" fill="none" />
<circle cx="434.20589600000005" cy="541.309986" r="5" fill="black" stroke="none" />
<circle cx="482.20589600000005" cy="541.309986" r="5" fill="black" stroke="none" />
<path d="M434.20589600000005,589.309986 L473.32175532722704,536.2134828711996" stroke="grey" stroke-width="5" />
<circle cx="473.32175532722704" cy="536.2134828711996" r="2.5" fill="grey" stroke="none" />
<path d="M473.32175532722704,536.2134828711996 A44.979385061192325,44.979385061192325,0,0,0,482.20589600000005,541.309986" stroke="grey" stroke-width="5" fill="none" />
<circle cx="434.20589600000005" cy="589.309986" r="5" fill="black" stroke="none" />
<circle cx="482.20589600000005" cy="541.309986" r="5" fill="black" stroke="none" />
<path d="M482.20589600000005,541.309986 A44.979385061192325,44.979385061192325,0,0,0,493.0219948368869,544.4348120782183" stroke="grey" stroke-width="5" fill="none" />
<path d="M493.0219948368869,544.4348120782183 L482.20589600000005,613.309986" stroke="grey" stroke-width="5" />
<circle cx="493.0219948368869" cy="544.4348120782183" r="2.5" fill="grey" stroke="none" />
<circle cx="482.20589600000005" cy="541.309986" r="5" fill="black" stroke="none" />
<circle cx="482.20589600000005" cy="613.309986" r="5" fill="black" stroke="none" />
<path d="M482.20589600000005,613.309986 A114.69866199953255,114.69866199953255,0,0,1,452.6899003406327,604.4870208911315" stroke="grey" stroke-width="5" fill="none" />
<path d="M452.6899003406327,604.4870208911315 L434.20589600000005,645.309986" stroke="grey" stroke-width="5" />
<circle cx="452.6899003406327" cy="604.4870208911315" r="2.5" fill="grey" stroke="none" />
<circle cx="482.20589600000005" cy="613.309986" r="5" fill="black" stroke="none" />
<circle cx="434.20589600000005" cy="645.309986" r="5" fill="black" stroke="none" />
<path d="M482.20589600000005,485.30998600000004 A23.074372114599562,23.074372114599562,0,0,1,513.5599497639323,481.33038803609884" stroke="grey" stroke-width="5" fill="none" />
<path d="M513.5599497639323,481.33038803609884 L586.205896,381.309986" stroke="grey" stroke-width="5" />
<circle cx="513.5599497639323" cy="481.33038803609884" r="2.5" fill="grey" stroke="none" />
<circle cx="482.20589600000005" cy="485.309986" r="5" fill="black" stroke="none" />
<circle cx="586.205896" cy="381.309986" r="5" fill="black" stroke="none" />
<path d="M482.20589600000005,485.30998600000004 A23.074372114599562,23.074372114599562,0,0,1,522.9924744838771,501.94236082931764" stroke="grey" stroke-width="5" fill="none" />
<path d="M522.9924744838771,501.94236082931764 L610.205896,509.309986" stroke="grey" stroke-width="5" />
<circle cx="522.9924744838771" cy="501.94236082931764" r="2.5" fill="grey" stroke="none" />
<circle cx="482.20589600000005" cy="485.309986" r="5" fill="black" stroke="none" />
<circle cx="610.205896" cy="509.309986" r="5" fill="black" stroke="none" />
<path d="M610.205896,509.309986 A110.5984419080261,110.5984419080261,0,0,0,610.4766366551901,505.1892297925734" stroke="grey" stroke-width="5" fill="none" />
<path d="M610.4766366551901,505.1892297925734 L698.205896,509.309986" stroke="grey" stroke-width="5" />
<circle cx="610.4766366551901" cy="505.1892297925734" r="2.5" fill="grey" stroke="none" />
<circle cx="610.205896" cy="509.309986" r="5" fill="black" stroke="none" />
<circle cx="698.205896" cy="509.309986" r="5" fill="black" stroke="none" />
<path d="M482.20589600000005,541.309986 A44.979385061192325,44.979385061192325,0,0,0,513.6301189978001,542.8644950581343" stroke="grey" stroke-width="5" fill="none" />
<path d="M513.6301189978001,542.8644950581343 L546.205896,645.309986" stroke="grey" stroke-width="5" />
<circle cx="513.6301189978001" cy="542.8644950581343" r="2.5" fill="grey" stroke="none" />
<circle cx="482.20589600000005" cy="541.309986" r="5" fill="black" stroke="none" />
<circle cx="546.205896" cy="645.309986" r="5" fill="black" stroke="none" />
<circle cx="500" cy="500" r="5" fill="red" stroke="none" />
</svg>