<?xml version="1.0" encoding="UTF-8"?>
<svg xmlns="http://www.w3.org/2000/svg" xmlns:xlink="http://www.w3.org/1999/xlink"
     width="1000" height="1000" viewBox="0 0 1000 1000">
<defs>
</defs>
<rect x="0" y="0" width="1000" height="1000" fill="white" />
<path d="M333.34399999999994,625.184 L448.0695093144667,539.0076957683959" stroke="grey" stroke-width="5" />
<circle cx="448.0695093144667" cy="539.0076957683959" r="2.5" fill="grey" stroke="none" />
<path d="M448.0695093144667,539.0076957683959 A64.94902764476153,64.94902764476153,0,0,0,453.34399999999994,545.184" stroke="grey" stroke-width="5" fill="none" />
<circle cx="333.34399999999994" cy="625.184" r="5" fill="black" stroke="none" />
<circle cx="453.34399999999994" cy="545.184" r="5" fill="black" stroke="none" />
<path d="M453.34399999999994,545.184 L465.5959467093979,533.318603049609" stroke="grey" stroke-width="5" />
<circle cx="465.5959467093979" cy="533.318603049609" r="2.5" fill="grey" stroke="none" />
<path d="M465.5959467093979,533.318603049609 A47.89330007422758,47.89330007422758,0,0,1,453.34399999999994,489.1839999999999" stroke="grey" stroke-width="5" fill="none" />
<circle cx="453.34399999999994" cy="545.184" r="5" fill="black" stroke="none" />
<circle cx="453.34399999999994" cy="489.1839999999999" r="5" fill="black" stroke="none" />
<path d="M453.34399999999994,489.1839999999999 A47.89330007422758,47.89330007422758,0,0,0,452.22965045008345,496.57043794650133" stroke="grey" stroke-width="5" fill="none" />
<path d="M452.22965045008345,496.57043794650133 L-150.65600000000006,-10.816000000000088" stroke="grey" stroke-width="5" />
<circle cx="452.22965045008345" cy="496.57043794650133" r="2.5" fill="grey" stroke="none" />
<circle cx="453.34399999999994" cy="489.1839999999999" r="5" fill="black" stroke="none" />
<circle cx="349.34399999999994" cy="489.1839999999999" r="5" fill="black" stroke="none" />
<path d="M349.34399999999994,489.184 A151.043755885505,151.043755885505,0,0,1,395.18432924161164,391.24389049129627" stroke="grey" stroke-width="5" fill="none" />
<path d="M395.18432924161164,391.24389049129627 L-110.65600000000006,-114.81600000000009" stroke="grey" stroke-width="5" />
<circle cx="395.18432924161164" cy="391.24389049129627" r="2.5" fill="grey" stroke="none" />
<circle cx="349.34399999999994" cy="489.1839999999999" r="5" fill="black" stroke="none" />
<circle cx="389.34399999999994" cy="385.1839999999999" r="5" fill="black" stroke="none" />
<path d="M389.3439999999999,385.1839999999999 A159.4599140599293,159.4599140599293,0,0,1,501.056669193025,340.5435870144554" stroke="grey" stroke-width="5" fill="none" />
<path d="M501.056669193025,340.5435870144554 L1.3439999999999372,-202.8160000000001" stroke="grey" stroke-width="5" />
<circle cx="501.056669193025" cy="340.5435870144554" r="2.5" fill="grey" stroke="none" />
<circle cx="389.34399999999994" cy="385.1839999999999" r="5" fill="black" stroke="none" />
<circle cx="501.34399999999994" cy="297.1839999999999" r="5" fill="black" stroke="none" />
<path d="M501.34399999999994,297.1839999999999 L501.2292205359611,314.5047676923366" stroke="grey" stroke-width="5" />
<circle cx="501.2292205359611" cy="314.5047676923366" r="2.5" fill="grey" stroke="none" />
<path d="M501.2292205359611,314.5047676923366 A185.49930509842895,185.49930509842895,0,0,1,549.3439999999999,321.1839999999999" stroke="grey" stroke-width="5" fill="none" />
<circle cx="501.34399999999994" cy="297.1839999999999" r="5" fill="black" stroke="none" />
<circle cx="549.3439999999999" cy="321.1839999999999" r="5" fill="black" stroke="none" />
<path d="M549.3439999999999,321.1839999999999 L545.439553510187,335.333187409257" stroke="grey" stroke-width="5" />
<circle cx="545.439553510187" cy="335.333187409257" r="2.5" fill="grey" stroke="none" />
<path d="M545.4395535101871,335.333187409257 A170.8212872917191,170.8212872917191,0,0,0,501.34399999999994,329.18399999999986" stroke="grey" stroke-width="5" fill="none" />
<circle cx="549.3439999999999" cy="321.1839999999999" r="5" fill="black" stroke="none" />
<circle cx="501.34399999999994" cy="329.1839999999999" r="5" fill="black" stroke="none" />
<path d="M501.34399999999994,297.1839999999999 L501.1319559079042,329.1824632310178" stroke="grey" stroke-width="5" />
<circle cx="501.1319559079042" cy="329.1824632310178" r="2.5" fill="grey" stroke="none" />
<path d="M501.1319559079042,329.1824632310178 A170.8212872917191,170.8212872917191,0,0,1,501.34399999999994,329.18399999999986" stroke="grey" stroke-width="5" fill="none" />
<circle cx="501.34399999999994" cy="297.1839999999999" r="5" fill="black" stroke="none" />
<circle cx="501.34399999999994" cy="329.1839999999999" r="5" fill="black" stroke="none" />
<path d="M501.34399999999994,329.1839999999999 L500.5906725450112,424.9283322554735" stroke="grey" stroke-width="5" />
<circle cx="500.5906725450112" cy="424.9283322554735" r="2.5" fill="grey" stroke="none" />
<path d="M500.5906725450112,424.9283322554735 A75.07399144843716,75.07399144843716,0,0,0,453.34399999999994,441.1839999999999" stroke="grey" stroke-width="5" fill="none" />
<circle cx="501.34399999999994" cy="329.1839999999999" r="5" fill="black" stroke="none" />
<circle cx="453.34399999999994" cy="441.1839999999999" r="5" fill="black" stroke="none" />
<path d="M389.34399999999994,385.1839999999999 L447.9029720623321,445.9444371774573" stroke="grey" stroke-width="5" />
<circle cx="447.9029720623321" cy="445.9444371774573" r="2.5" fill="grey" stroke="none" />
<path d="M447.902972062332,445.9444371774573 A75.07399144843716,75.07399144843716,0,0,1,453.34399999999994,441.1839999999999" stroke="grey" stroke-width="5" fill="none" />
<circle cx="389.34399999999994" cy="385.1839999999999" r="5" fill="black" stroke="none" />
<circle cx="453.34399999999994" cy="441.1839999999999" r="5" fill="black" stroke="none" />
<path d="M453.34399999999994,441.1839999999999 L470.23589974168505,462.4784524864315" stroke="grey" stroke-width="5" />
<circle cx="470.23589974168505" cy="462.4784524864315" r="2.5" fill="grey" stroke="none" />
<path d="M470.23589974168505,462.4784524864315 A47.89330007422758,47.89330007422758,0,0,0,453.34399999999994,489.1839999999999" stroke="grey" stroke-width="5" fill="none" />
<circle cx="453.34399999999994" cy="441.1839999999999" r="5" fill="black" stroke="none" />
<circle cx="453.34399999999994" cy="489.1839999999999" r="5" fill="black" stroke="none" />
<path d="M549.3439999999999,321.1839999999999 A185.49930509842895,185.49930509842895,0,0,1,570.1207188525085,328.2645145009119" stroke="grey" stroke-width="5" fill="none" />
<path d="M570.1207188525085,328.26451450091196 L89.34399999999994,-218.8160000000001" stroke="grey" stroke-width="5" />
<circle cx="570.1207188525085" cy="328.26451450091196" r="2.5" fill="grey" stroke="none" />
<circle cx="549.3439999999999" cy="321.1839999999999" r="5" fill="black" stroke="none" />
<circle cx="589.3439999999999" cy="281.1839999999999" r="5" fill="black" stroke="none" />
<path d="M549.3439999999999,321.1839999999999 L540.0413117540753,354.89568736590576" stroke="grey" stroke-width="5" />
<circle cx="540.0413117540753" cy="354.89568736590576" r="2.5" fill="grey" stroke="none" />
<path d="M540.0413117540753,354.8956873659058 A150.52763265261302,150.52763265261302,0,0,1,597.3439999999999,385.1839999999999" stroke="grey" stroke-width="5" fill="none" />
<circle cx="549.3439999999999" cy="321.1839999999999" r="5" fill="black" stroke="none" />
<circle cx="597.3439999999999" cy="385.1839999999999" r="5" fill="black" stroke="none" />
<path d="M501.34399999999994,329.1839999999999 L500.9832493095937,375.0336948902017" stroke="grey" stroke-width="5" />
<circle cx="500.9832493095937" cy="375.0336948902017" r="2.5" fill="grey" stroke="none" />
<path d="M500.9832493095937,375.0336948902017 A124.97017320945032,124.97017320945032,0,0,1,549.3439999999999,385.1839999999999" stroke="grey" stroke-width="5" fill="none" />
<circle cx="501.34399999999994" cy="329.1839999999999" r="5" fill="black" stroke="none" />
<circle cx="549.3439999999999" cy="385.1839999999999" r="5" fill="black" stroke="none" />
<path d="M453.34399999999994,441.1839999999999 L463.438261497065,453.9091389791532" stroke="grey" stroke-width="5" />
<circle cx="463.438261497065" cy="453.9091389791532" r="2.5" fill="grey" stroke="none" />
<path d="M463.438261497065,453.9091389791532 A58.831353817501174,58.831353817501174,0,0,1,501.34399999999994,441.1839999999999" stroke="grey" stroke-width="5" fill="none" />
<circle cx="453.34399999999994" cy="441.1839999999999" r="5" fill="black" stroke="none" />
<circle cx="501.34399999999994" cy="441.1839999999999" r="5" fill="black" stroke="none" />
<path d="M453.34399999999994,489.1839999999999 A47.89330007422758,47.89330007422758,0,0,1,546.7826071142313,489.74544668961715" stroke="grey" stroke-width="5" fill="none" />
<path d="M546.7826071142313,489.74544668961715 L49.34399999999994,-10.816000000000088" stroke="grey" stroke-width="5" />
<circle cx="546.7826071142313" cy="489.74544668961715" r="2.5" fill="grey" stroke="none" />
<circle cx="453.34399999999994" cy="489.1839999999999" r="5" fill="black" stroke="none" />
<circle cx="549.3439999999999" cy="489.1839999999999" r="5" fill="black" stroke="none" />
<path d="M453.34399999999994,545.184 A64.94902764476153,64.94902764476153,0,0,0,547.9006479987031,543.8623313710563" stroke="grey" stroke-width="5" fill="none" />
<path d="M547.9006479987031,543.8623313710563 L49.34399999999994,45.18399999999991" stroke="grey" stroke-width="5" />
<circle cx="547.9006479987031" cy="543.8623313710563" r="2.5" fill="grey" stroke="none" />
<circle cx="453.34399999999994" cy="545.184" r="5" fill="black" stroke="none" />
<circle cx="549.3439999999999" cy="545.184" r="5" fill="black" stroke="none" />
<path d="M597.3439999999999,385.1839999999999 L580.8163679088428,404.67813015880057" stroke="grey" stroke-width="5" />
<circle cx="580.8163679088428" cy="404.67813015880057" r="2.5" fill="grey" stroke="none" />
<path d="M580.816367908843,404.67813015880057 A124.97017320945032,124.97017320945032,0,0,0,549.3439999999999,385.1839999999999" stroke="grey" stroke-width="5" fill="none" />
<circle cx="597.3439999999999" cy="385.1839999999999" r="5" fill="black" stroke="none" />
<circle cx="549.3439999999999" cy="385.1839999999999" r="5" fill="black" stroke="none" />
<path d="M549.3439999999999,385.1839999999999 L523.2293374348244,445.9488568637159" stroke="grey" stroke-width="5" />
<circle cx="523.2293374348244" cy="445.9488568637159" r="2.5" fill="grey" stroke="none" />
<path d="M523.2293374348244,445.94885686371583 A58.831353817501174,58.831353817501174,0,0,0,501.34399999999994,441.1839999999999" stroke="grey" stroke-width="5" fill="none" />
<circle cx="549.3439999999999" cy="385.1839999999999" r="5" fill="black" stroke="none" />
<circle cx="501.34399999999994" cy="441.1839999999999" r="5" fill="black" stroke="none" />
<path d="M501.34399999999994,441.1839999999999 L501.1540247436795,449.4976790742151" stroke="grey" stroke-width="5" />
<circle cx="501.1540247436795" cy="449.4976790742151" r="2.5" fill="grey" stroke="none" />
<path d="M501.1540247436795,449.4976790742151 A50.51550447139962,50.51550447139962,0,0,1,549.3439999999999,489.1839999999999" stroke="grey" stroke-width="5" fill="none" />
<circle cx="501.34399999999994" cy="441.1839999999999" r="5" fill="black" stroke="none" />
<circle cx="549.3439999999999" cy="489.1839999999999" r="5" fill="black" stroke="none" />
<path d="M549.3439999999999,489.1839999999999 A50.51550447139962,50.51550447139962,0,0,1,537.2557601846805,534.1148724907711" stroke="grey" stroke-width="5" fill="none" />
<path d="M537.2557601846805,534.1148724907711 L49.34399999999994,45.18399999999991" stroke="grey" stroke-width="5" />
<circle cx="537.2557601846805" cy="534.1148724907711" r="2.5" fill="grey" stroke="none" />
<circle cx="549.3439999999999" cy="489.1839999999999" r="5" fill="black" stroke="none" />
<circle cx="549.3439999999999" cy="545.184" r="5" fill="black" stroke="none" />
<path d="M549.3439999999999,545.184 A66.90608486527952,66.90608486527952,0,0,1,546.5671856083807,548.0408307225699" stroke="grey" stroke-width="5" fill="none" />
<path d="M546.5671856083807,548.0408307225699 L121.34399999999994,125.18399999999991" stroke="grey" stroke-width="5" />
<circle cx="546.5671856083807" cy="548.0408307225699" r="2.5" fill="grey" stroke="none" />
<circle cx="549.3439999999999" cy="545.184" r="5" fill="black" stroke="none" />
<circle cx="621.3439999999999" cy="625.184" r="5" fill="black" stroke="none" />
<path d="M597.3439999999999,385.1839999999999 L575.4903263363524,410.9601279109689" stroke="grey" stroke-width="5" />
<circle cx="575.4903263363524" cy="410.9601279109689" r="2.5" fill="grey" stroke="none" />
<path d="M575.4903263363524,410.9601279109689 A116.73426314497388,116.73426314497388,0,0,0,573.3439999999999,409.1839999999999" stroke="grey" stroke-width="5" fill="none" />
<circle cx="597.3439999999999" cy="385.1839999999999" r="5" fill="black" stroke="none" />
<circle cx="573.3439999999999" cy="409.1839999999999" r="5" fill="black" stroke="none" />
<path d="M573.3439999999999,409.1839999999999 L548.2366254916177,440.2724506347245" stroke="grey" stroke-width="5" />
<circle cx="548.2366254916177" cy="440.2724506347245" r="2.5" fill="grey" stroke="none" />
<path d="M548.2366254916177,440.2724506347245 A76.77338205393849,76.77338205393849,0,0,1,549.3439999999999,441.1839999999999" stroke="grey" stroke-width="5" fill="none" />
<circle cx="573.3439999999999" cy="409.1839999999999" r="5" fill="black" stroke="none" />
<circle cx="549.3439999999999" cy="441.1839999999999" r="5" fill="black" stroke="none" />
<path d="M549.3439999999999,441.1839999999999 L532.4674644512273,461.30012992129963" stroke="grey" stroke-width="5" />
<circle cx="532.4674644512273" cy="461.30012992129963" r="2.5" fill="grey" stroke="none" />
<path d="M532.4674644512273,461.30012992129963 A50.51550447139962,50.51550447139962,0,0,1,549.3439999999999,489.1839999999999" stroke="grey" stroke-width="5" fill="none" />
<circle cx="549.3439999999999" cy="441.1839999999999" r="5" fill="black" stroke="none" />
<circle cx="549.3439999999999" cy="489.1839999999999" r="5" fill="black" stroke="none" />
<path d="M549.3439999999999,385.1839999999999 L546.0920820760293,392.7507195273713" stroke="grey" stroke-width="5" />
<circle cx="546.0920820760293" cy="392.7507195273713" r="2.5" fill="grey" stroke="none" />
<path d="M546.0920820760293,392.75071952737125 A116.73426314497388,116.73426314497388,0,0,1,573.3439999999999,409.1839999999999" stroke="grey" stroke-width="5" fill="none" />
<circle cx="549.3439999999999" cy="385.1839999999999" r="5" fill="black" stroke="none" />
<circle cx="573.3439999999999" cy="409.1839999999999" r="5" fill="black" stroke="none" />
<path d="M501.34399999999994,441.1839999999999 A58.831353817501174,58.831353817501174,0,0,1,537.8122500938051,454.929367268214" stroke="grey" stroke-width="5" fill="none" />
<path d="M537.8122500938051,454.929367268214 L49.34399999999994,-58.81600000000009" stroke="grey" stroke-width="5" />
<circle cx="537.8122500938051" cy="454.929367268214" r="2.5" fill="grey" stroke="none" />
<circle cx="501.34399999999994" cy="441.1839999999999" r="5" fill="black" stroke="none" />
<circle cx="549.3439999999999" cy="441.1839999999999" r="5" fill="black" stroke="none" />
<path d="M597.3439999999999,385.1839999999999 L573.5493994314799,413.2494263115878" stroke="grey" stroke-width="5" />
<circle cx="573.5493994314799" cy="413.2494263115878" r="2.5" fill="grey" stroke="none" />
<path d="M573.5493994314799,413.2494263115878 A113.73291604456469,113.73291604456469,0,0,1,597.3439999999999,441.1839999999999" stroke="grey" stroke-width="5" fill="none" />
<circle cx="597.3439999999999" cy="385.1839999999999" r="5" fill="black" stroke="none" />
<circle cx="597.3439999999999" cy="441.1839999999999" r="5" fill="black" stroke="none" />
<path d="M573.3439999999999,409.1839999999999 L571.4582571529403,411.51896431062613" stroke="grey" stroke-width="5" />
<circle cx="571.4582571529403" cy="411.51896431062613" r="2.5" fill="grey" stroke="none" />
<path d="M571.4582571529403,411.51896431062613 A113.73291604456469,113.73291604456469,0,0,1,597.3439999999999,441.1839999999999" stroke="grey" stroke-width="5" fill="none" />
<circle cx="573.3439999999999" cy="409.1839999999999" r="5" fill="black" stroke="none" />
<circle cx="597.3439999999999" cy="441.1839999999999" r="5" fill="black" stroke="none" />
<path d="M549.3439999999999,441.1839999999999 A76.77338205393849,76.77338205393849,0,0,1,565.7103357811579,460.29730533669675" stroke="grey" stroke-width="5" fill="none" />
<path d="M565.7103357811579,460.29730533669675 L97.34399999999994,-58.81600000000009" stroke="grey" stroke-width="5" />
<circle cx="565.7103357811579" cy="460.29730533669675" r="2.5" fill="grey" stroke="none" />
<circle cx="549.3439999999999" cy="441.1839999999999" r="5" fill="black" stroke="none" />
<circle cx="597.3439999999999" cy="441.1839999999999" r="5" fill="black" stroke="none" />
<path d="M549.3439999999999,489.1839999999999 A50.51550447139962,50.51550447139962,0,0,0,543.2362190145298,473.876341042503" stroke="grey" stroke-width="5" fill="none" />
<path d="M543.2362190145298,473.876341042503 L97.34399999999994,-58.81600000000009" stroke="grey" stroke-width="5" />
<circle cx="543.2362190145298" cy="473.876341042503" r="2.5" fill="grey" stroke="none" />
<circle cx="549.3439999999999" cy="489.1839999999999" r="5" fill="black" stroke="none" />
<circle cx="597.3439999999999" cy="441.1839999999999" r="5" fill="black" stroke="none" />
<path d="M597.3439999999999,441.1839999999999 L584.077403998044,449.1997802273487" stroke="grey" stroke-width="5" />
<circle cx="584.077403998044" cy="449.1997802273487" r="2.5" fill="grey" stroke="none" />
<path d="M584.077403998044,449.1997802273487 A98.23274500898357,98.23274500898357,0,0,1,597.3439999999999,513.184" stroke="grey" stroke-width="5" fill="none" />
<circle cx="597.3439999999999" cy="441.1839999999999" r="5" fill="black" stroke="none" />
<circle cx="597.3439999999999" cy="513.184" r="5" fill="black" stroke="none" />
<path d="M597.3439999999999,513.184 L566.3007627907593,508.97959048974116" stroke="grey" stroke-width="5" />
<circle cx="566.3007627907593" cy="508.97959048974116" r="2.5" fill="grey" stroke="none" />
<path d="M566.3007627907593,508.97959048974116 A66.90608486527952,66.90608486527952,0,0,1,549.3439999999999,545.184" stroke="grey" stroke-width="5" fill="none" />
<circle cx="597.3439999999999" cy="513.184" r="5" fill="black" stroke="none" />
<circle cx="549.3439999999999" cy="545.184" r="5" fill="black" stroke="none" />
<path d="M597.3439999999999,385.1839999999999 A150.52763265261302,150.52763265261302,0,0,1,601.9248406964509,389.230441722452" stroke="grey" stroke-width="5" fill="none" />
<path d="M601.9248406964509,389.230441722452 L201.34399999999994,-218.8160000000001" stroke="grey" stroke-width="5" />
<circle cx="601.9248406964509" cy="389.230441722452" r="2.5" fill="grey" stroke="none" />
<circle cx="597.3439999999999" cy="385.1839999999999" r="5" fill="black" stroke="none" />
<circle cx="701.3439999999999" cy="281.1839999999999" r="5" fill="black" stroke="none" />
<path d="M597.3439999999999,385.1839999999999 A150.52763265261302,150.52763265261302,0,0,1,639.6159923089524,443.733287961828" stroke="grey" stroke-width="5" fill="none" />
<path d="M639.6159923089524,443.733287961828 L225.34399999999994,-90.81600000000009" stroke="grey" stroke-width="5" />
<circle cx="639.6159923089524" cy="443.733287961828" r="2.5" fill="grey" stroke="none" />
<circle cx="597.3439999999999" cy="385.1839999999999" r="5" fill="black" stroke="none" />
<circle cx="725.3439999999999" cy="409.1839999999999" r="5" fill="black" stroke="none" />
<path d="M725.3439999999999,409.1839999999999 A242.95568359682386,242.95568359682386,0,0,1,733.3524247739451,432.36783277078666" stroke="grey" stroke-width="5" fill="none" />
<path d="M733.3524247739451,432.36783277078666 L313.34399999999994,-90.81600000000009" stroke="grey" stroke-width="5" />
<circle cx="733.3524247739451" cy="432.36783277078666" r="2.5" fill="grey" stroke="none" />
<circle cx="725.3439999999999" cy="409.1839999999999" r="5" fill="black" stroke="none" />
<circle cx="813.3439999999999" cy="409.1839999999999" r="5" fill="black" stroke="none" />
<path d="M597.3439999999999,441.1839999999999 A113.73291604456469,113.73291604456469,0,0,1,609.5193523416901,530.6706317942218" stroke="grey" stroke-width="5" fill="none" />
<path d="M609.5193523416901,530.6706317942218 L161.34399999999994,45.18399999999991" stroke="grey" stroke-width="5" />
<circle cx="609.5193523416901" cy="530.6706317942218" r="2.5" fill="grey" stroke="none" />
<circle cx="597.3439999999999" cy="441.1839999999999" r="5" fill="black" stroke="none" />
<circle cx="661.3439999999999" cy="545.184" r="5" fill="black" stroke="none" />
<circle cx="500" cy="500" r="5" fill="red" stroke="none" />
</svg>