<?xml version="1.0" encoding="UTF-8"?>
<svg xmlns="http://www.w3.org/2000/svg" xmlns:xlink="http://www.w3.org/1999/xlink"
     width="1000" height="1000" viewBox="0 0 1000 1000">
<defs>
</defs>
<rect x="0" y="0" width="1000" height="1000" fill="white" />
<path d="M221.44025599999998,725.336496 L332.77386285946574,635.274936865477" stroke="grey" stroke-width="5" />
<circle cx="332.77386285946574" cy="635.274936865477" r="2.5" fill="grey" stroke="none" />
<path d="M332.77386285946574,635.274936865477 A215.09042165308887,215.09042165308887,0,0,0,341.44025600000003,645.3364960000001" stroke="grey" stroke-width="5" fill="none" />
<circle cx="221.44025599999998" cy="725.336496" r="5" fill="black" stroke="none" />
<circle cx="341.440256" cy="645.336496" r="5" fill="black" stroke="none" />
<path d="M341.440256,645.336496 L365.83740023478117,622.9739759426411" stroke="grey" stroke-width="5" />
<circle cx="365.83740023478117" cy="622.9739759426411" r="2.5" fill="grey" stroke="none" />
<path d="M365.8374002347812,622.9739759426411 A181.99506019368647,181.99506019368647,0,0,1,341.440256,589.336496" stroke="grey" stroke-width="5" fill="none" />
<circle cx="341.440256" cy="645.336496" r="5" fill="black" stroke="none" />
<circle cx="341.440256" cy="589.336496" r="5" fill="black" stroke="none" />
<path d="M341.440256,589.336496 A181.99506019368647,181.99506019368647,0,0,1,327.7052778424874,558.6236356051814" stroke="grey" stroke-width="5" fill="none" />
<path d="M327.7052778424874,558.6236356051814 L-262.559744,89.33649600000001" stroke="grey" stroke-width="5" />
<circle cx="327.7052778424874" cy="558.6236356051814" r="2.5" fill="grey" stroke="none" />
<circle cx="341.440256" cy="589.336496" r="5" fill="black" stroke="none" />
<circle cx="237.44025599999998" cy="589.336496" r="5" fill="black" stroke="none" />
<path d="M237.44025599999998,589.336496 L288.84587657046734,571.8456272685349" stroke="grey" stroke-width="5" />
<circle cx="288.84587657046734" cy="571.8456272685349" r="2.5" fill="grey" stroke="none" />
<path d="M288.84587657046734,571.8456272685349 A223.04227850096842,223.04227850096842,0,0,1,277.440256,485.33649599999995" stroke="grey" stroke-width="5" fill="none" />
<circle cx="237.44025599999998" cy="589.336496" r="5" fill="black" stroke="none" />
<circle cx="277.440256" cy="485.336496" r="5" fill="black" stroke="none" />
<path d="M277.440256,485.336496 L349.4514511465311,490.08100383011293" stroke="grey" stroke-width="5" />
<circle cx="349.4514511465311" cy="490.08100383011293" r="2.5" fill="grey" stroke="none" />
<path d="M349.4514511465311,490.08100383011293 A150.87495500215917,150.87495500215917,0,0,1,389.4402559999999,397.3364960000001" stroke="grey" stroke-width="5" fill="none" />
<circle cx="277.440256" cy="485.336496" r="5" fill="black" stroke="none" />
<circle cx="389.440256" cy="397.336496" r="5" fill="black" stroke="none" />
<path d="M389.440256,397.336496 L426.34937687166234,431.60954639928815" stroke="grey" stroke-width="5" />
<circle cx="426.34937687166234" cy="431.60954639928815" r="2.5" fill="grey" stroke="none" />
<path d="M426.3493768716623,431.60954639928815 A100.50705662242603,100.50705662242603,0,0,1,437.440256,421.336496" stroke="grey" stroke-width="5" fill="none" />
<circle cx="389.440256" cy="397.336496" r="5" fill="black" stroke="none" />
<circle cx="437.440256" cy="421.336496" r="5" fill="black" stroke="none" />
<path d="M437.440256,421.336496 A100.50705662242603,100.50705662242603,0,0,0,415.31285034568344,445.87278767264155" stroke="grey" stroke-width="5" fill="none" />
<path d="M415.31285034568344,445.87278767264155 L-110.55974400000002,-70.66350399999999" stroke="grey" stroke-width="5" />
<circle cx="415.31285034568344" cy="445.87278767264155" r="2.5" fill="grey" stroke="none" />
<circle cx="437.440256" cy="421.336496" r="5" fill="black" stroke="none" />
<circle cx="389.440256" cy="429.336496" r="5" fill="black" stroke="none" />
<path d="M389.440256,397.336496 L403.8485287112925,410.71572165313535" stroke="grey" stroke-width="5" />
<circle cx="403.8485287112925" cy="410.71572165313535" r="2.5" fill="grey" stroke="none" />
<path d="M403.84852871129243,410.71572165313535 A131.21275772920694,131.21275772920694,0,0,0,389.440256,429.336496" stroke="grey" stroke-width="5" fill="none" />
<circle cx="389.440256" cy="397.336496" r="5" fill="black" stroke="none" />
<circle cx="389.440256" cy="429.336496" r="5" fill="black" stroke="none" />
<path d="M389.440256,429.336496 A131.21275772920694,131.21275772920694,0,0,0,373.03100660426674,533.1007931472616" stroke="grey" stroke-width="5" fill="none" />
<path d="M373.03100660426674,533.1007931472616 L-158.55974400000002,41.33649600000001" stroke="grey" stroke-width="5" />
<circle cx="373.03100660426674" cy="533.1007931472616" r="2.5" fill="grey" stroke="none" />
<circle cx="389.440256" cy="429.336496" r="5" fill="black" stroke="none" />
<circle cx="341.440256" cy="541.336496" r="5" fill="black" stroke="none" />
<path d="M277.440256,485.336496 L336.49511113514984,489.2273663296032" stroke="grey" stroke-width="5" />
<circle cx="336.49511113514984" cy="489.2273663296032" r="2.5" fill="grey" stroke="none" />
<path d="M336.49511113514984,489.2273663296032 A163.85938581266427,163.85938581266427,0,0,0,341.440256,541.336496" stroke="grey" stroke-width="5" fill="none" />
<circle cx="277.440256" cy="485.336496" r="5" fill="black" stroke="none" />
<circle cx="341.440256" cy="541.336496" r="5" fill="black" stroke="none" />
<path d="M341.440256,541.336496 A163.85938581266427,163.85938581266427,0,0,0,357.2406182958882,580.4341796400217" stroke="grey" stroke-width="5" fill="none" />
<path d="M357.2406182958882,580.4341796400217 L-158.55974400000002,89.33649600000001" stroke="grey" stroke-width="5" />
<circle cx="357.2406182958882" cy="580.4341796400217" r="2.5" fill="grey" stroke="none" />
<circle cx="341.440256" cy="541.336496" r="5" fill="black" stroke="none" />
<circle cx="341.440256" cy="589.336496" r="5" fill="black" stroke="none" />
<path d="M437.440256,421.336496 A100.50705662242603,100.50705662242603,0,0,1,481.2283030715054,401.2614977563043" stroke="grey" stroke-width="5" fill="none" />
<path d="M481.2283030715054,401.26149775630427 L-22.559744000000023,-118.66350399999999" stroke="grey" stroke-width="5" />
<circle cx="481.2283030715054" cy="401.26149775630427" r="2.5" fill="grey" stroke="none" />
<circle cx="437.440256" cy="421.336496" r="5" fill="black" stroke="none" />
<circle cx="477.440256" cy="381.336496" r="5" fill="black" stroke="none" />
<path d="M437.440256,421.336496 L487.1378185647575,483.82691174727427" stroke="grey" stroke-width="5" />
<circle cx="487.1378185647575" cy="483.82691174727427" r="2.5" fill="grey" stroke="none" />
<path d="M487.1378185647575,483.82691174727427 A20.664087081300067,20.664087081300067,0,0,0,485.440256,485.336496" stroke="grey" stroke-width="5" fill="none" />
<circle cx="437.440256" cy="421.336496" r="5" fill="black" stroke="none" />
<circle cx="485.440256" cy="485.336496" r="5" fill="black" stroke="none" />
<path d="M389.440256,429.336496 L445.8585697493955,465.3958752556508" stroke="grey" stroke-width="5" />
<circle cx="445.8585697493955" cy="465.3958752556508" r="2.5" fill="grey" stroke="none" />
<path d="M445.8585697493955,465.3958752556508 A64.25527152618339,64.25527152618339,0,0,0,437.440256,485.336496" stroke="grey" stroke-width="5" fill="none" />
<circle cx="389.440256" cy="429.336496" r="5" fill="black" stroke="none" />
<circle cx="437.440256" cy="485.336496" r="5" fill="black" stroke="none" />
<path d="M341.440256,541.336496 L385.78296418415295,529.7763601594464" stroke="grey" stroke-width="5" />
<circle cx="385.78296418415295" cy="529.7763601594464" r="2.5" fill="grey" stroke="none" />
<path d="M385.78296418415295,529.7763601594464 A118.03458346986089,118.03458346986089,0,0,0,389.440256,541.336496" stroke="grey" stroke-width="5" fill="none" />
<circle cx="341.440256" cy="541.336496" r="5" fill="black" stroke="none" />
<circle cx="389.440256" cy="541.336496" r="5" fill="black" stroke="none" />
<path d="M341.440256,589.336496 L404.98095751199673,553.5360873763351" stroke="grey" stroke-width="5" />
<circle cx="404.98095751199673" cy="553.5360873763351" r="2.5" fill="grey" stroke="none" />
<path d="M404.98095751199673,553.5360873763352 A109.06296844898161,109.06296844898161,0,0,0,437.440256,589.336496" stroke="grey" stroke-width="5" fill="none" />
<circle cx="341.440256" cy="589.336496" r="5" fill="black" stroke="none" />
<circle cx="437.440256" cy="589.336496" r="5" fill="black" stroke="none" />
<path d="M341.440256,645.336496 L383.3571916322263,606.9152650232061" stroke="grey" stroke-width="5" />
<circle cx="383.3571916322263" cy="606.9152650232061" r="2.5" fill="grey" stroke="none" />
<path d="M383.3571916322264,606.9152650232061 A158.22900694532453,158.22900694532453,0,0,0,437.440256,645.336496" stroke="grey" stroke-width="5" fill="none" />
<circle cx="341.440256" cy="645.336496" r="5" fill="black" stroke="none" />
<circle cx="437.440256" cy="645.336496" r="5" fill="black" stroke="none" />
<path d="M485.440256,485.336496 A20.664087081300067,20.664087081300067,0,0,0,479.8811837987011,495.2843102771806" stroke="grey" stroke-width="5" fill="none" />
<path d="M479.8811837987011,495.2843102771806 L-62.55974400000002,-14.663503999999989" stroke="grey" stroke-width="5" />
<circle cx="479.8811837987011" cy="495.2843102771806" r="2.5" fill="grey" stroke="none" />
<circle cx="485.440256" cy="485.336496" r="5" fill="black" stroke="none" />
<circle cx="437.440256" cy="485.336496" r="5" fill="black" stroke="none" />
<path d="M437.440256,485.336496 A64.25527152618339,64.25527152618339,0,0,0,439.8138565685769,522.5026233527499" stroke="grey" stroke-width="5" fill="none" />
<path d="M439.8138565685769,522.5026233527499 L-110.55974400000002,41.33649600000001" stroke="grey" stroke-width="5" />
<circle cx="439.8138565685769" cy="522.5026233527499" r="2.5" fill="grey" stroke="none" />
<circle cx="437.440256" cy="485.336496" r="5" fill="black" stroke="none" />
<circle cx="389.440256" cy="541.336496" r="5" fill="black" stroke="none" />
<path d="M389.440256,541.336496 L397.8437207373347,538.1945767630942" stroke="grey" stroke-width="5" />
<circle cx="397.8437207373347" cy="538.1945767630942" r="2.5" fill="grey" stroke="none" />
<path d="M397.8437207373347,538.1945767630942 A109.06296844898161,109.06296844898161,0,0,0,437.440256,589.336496" stroke="grey" stroke-width="5" fill="none" />
<circle cx="389.440256" cy="541.336496" r="5" fill="black" stroke="none" />
<circle cx="437.440256" cy="589.336496" r="5" fill="black" stroke="none" />
<path d="M437.440256,589.336496 A109.06296844898161,109.06296844898161,0,0,0,456.87926305190035,600.1765098810912" stroke="grey" stroke-width="5" fill="none" />
<path d="M456.87926305190035,600.1765098810912 L-62.55974400000002,145.336496" stroke="grey" stroke-width="5" />
<circle cx="456.87926305190035" cy="600.1765098810912" r="2.5" fill="grey" stroke="none" />
<circle cx="437.440256" cy="589.336496" r="5" fill="black" stroke="none" />
<circle cx="437.440256" cy="645.336496" r="5" fill="black" stroke="none" />
<path d="M437.440256,645.336496 A158.22900694532453,158.22900694532453,0,0,0,506.62304268394917,658.0903347599408" stroke="grey" stroke-width="5" fill="none" />
<path d="M506.62304268394917,658.0903347599408 L9.440255999999977,225.336496" stroke="grey" stroke-width="5" />
<circle cx="506.62304268394917" cy="658.0903347599408" r="2.5" fill="grey" stroke="none" />
<circle cx="437.440256" cy="645.336496" r="5" fill="black" stroke="none" />
<circle cx="509.440256" cy="725.336496" r="5" fill="black" stroke="none" />
<path d="M485.440256,485.336496 A20.664087081300067,20.664087081300067,0,0,0,479.91625547829375,504.86289017872974" stroke="grey" stroke-width="5" fill="none" />
<path d="M479.91625547829375,504.86289017872974 L-38.55974400000002,9.336496000000011" stroke="grey" stroke-width="5" />
<circle cx="479.91625547829375" cy="504.86289017872974" r="2.5" fill="grey" stroke="none" />
<circle cx="485.440256" cy="485.336496" r="5" fill="black" stroke="none" />
<circle cx="461.440256" cy="509.336496" r="5" fill="black" stroke="none" />
<path d="M461.440256,509.336496 A39.67397150404222,39.67397150404222,0,0,0,466.89918331861355,521.8714414232076" stroke="grey" stroke-width="5" fill="none" />
<path d="M466.89918331861355,521.8714414232077 L-62.55974400000002,41.33649600000001" stroke="grey" stroke-width="5" />
<circle cx="466.89918331861355" cy="521.8714414232077" r="2.5" fill="grey" stroke="none" />
<circle cx="461.440256" cy="509.336496" r="5" fill="black" stroke="none" />
<circle cx="437.440256" cy="541.336496" r="5" fill="black" stroke="none" />
<path d="M437.440256,541.336496 A74.98284784471417,74.98284784471417,0,0,0,456.98899606101753,561.4205259751526" stroke="grey" stroke-width="5" fill="none" />
<path d="M456.98899606101753,561.4205259751526 L-62.55974400000002,89.33649600000001" stroke="grey" stroke-width="5" />
<circle cx="456.98899606101753" cy="561.4205259751526" r="2.5" fill="grey" stroke="none" />
<circle cx="437.440256" cy="541.336496" r="5" fill="black" stroke="none" />
<circle cx="437.440256" cy="589.336496" r="5" fill="black" stroke="none" />
<path d="M437.440256,485.336496 L461.3729202008774,490.9461212126643" stroke="grey" stroke-width="5" />
<circle cx="461.3729202008774" cy="490.9461212126643" r="2.5" fill="grey" stroke="none" />
<path d="M461.3729202008774,490.9461212126643 A39.67397150404222,39.67397150404222,0,0,0,461.440256,509.336496" stroke="grey" stroke-width="5" fill="none" />
<circle cx="437.440256" cy="485.336496" r="5" fill="black" stroke="none" />
<circle cx="461.440256" cy="509.336496" r="5" fill="black" stroke="none" />
<path d="M389.440256,541.336496 L429.7656312379045,526.2594919123264" stroke="grey" stroke-width="5" />
<circle cx="429.7656312379045" cy="526.2594919123264" r="2.5" fill="grey" stroke="none" />
<path d="M429.7656312379045,526.2594919123266 A74.98284784471417,74.98284784471417,0,0,0,437.440256,541.336496" stroke="grey" stroke-width="5" fill="none" />
<circle cx="389.440256" cy="541.336496" r="5" fill="black" stroke="none" />
<circle cx="437.440256" cy="541.336496" r="5" fill="black" stroke="none" />
<path d="M485.440256,485.336496 A20.664087081300067,20.664087081300067,0,0,0,493.1349912791852,519.4904117495421" stroke="grey" stroke-width="5" fill="none" />
<path d="M493.1349912791852,519.4904117495421 L-14.559744000000023,41.33649600000001" stroke="grey" stroke-width="5" />
<circle cx="493.1349912791852" cy="519.4904117495421" r="2.5" fill="grey" stroke="none" />
<circle cx="485.440256" cy="485.336496" r="5" fill="black" stroke="none" />
<circle cx="485.440256" cy="541.336496" r="5" fill="black" stroke="none" />
<path d="M461.440256,509.336496 A39.67397150404222,39.67397150404222,0,0,0,486.8195406217059,537.4205759640428" stroke="grey" stroke-width="5" fill="none" />
<path d="M486.8195406217059,537.4205759640428 L-14.559744000000023,41.33649600000001" stroke="grey" stroke-width="5" />
<circle cx="486.8195406217059" cy="537.4205759640428" r="2.5" fill="grey" stroke="none" />
<circle cx="461.440256" cy="509.336496" r="5" fill="black" stroke="none" />
<circle cx="485.440256" cy="541.336496" r="5" fill="black" stroke="none" />
<path d="M437.440256,541.336496 L463.4353095563887,524.1602040485265" stroke="grey" stroke-width="5" />
<circle cx="463.4353095563887" cy="524.1602040485265" r="2.5" fill="grey" stroke="none" />
<path d="M463.4353095563887,524.1602040485265 A43.82570075770099,43.82570075770099,0,0,0,485.440256,541.336496" stroke="grey" stroke-width="5" fill="none" />
<circle cx="437.440256" cy="541.336496" r="5" fill="black" stroke="none" />
<circle cx="485.440256" cy="541.336496" r="5" fill="black" stroke="none" />
<path d="M437.440256,589.336496 L474.8610856735948,535.8988444576314" stroke="grey" stroke-width="5" />
<circle cx="474.8610856735948" cy="535.8988444576314" r="2.5" fill="grey" stroke="none" />
<path d="M474.8610856735948,535.8988444576314 A43.82570075770099,43.82570075770099,0,0,0,485.440256,541.336496" stroke="grey" stroke-width="5" fill="none" />
<circle cx="437.440256" cy="589.336496" r="5" fill="black" stroke="none" />
<circle cx="485.440256" cy="541.336496" r="5" fill="black" stroke="none" />
<path d="M485.440256,541.336496 A43.82570075770099,43.82570075770099,0,0,0,494.41583228508904,543.4684841906789" stroke="grey" stroke-width="5" fill="none" />
<path d="M494.41583228508904,543.4684841906789 L-14.559744000000023,113.33649600000001" stroke="grey" stroke-width="5" />
<circle cx="494.41583228508904" cy="543.4684841906789" r="2.5" fill="grey" stroke="none" />
<circle cx="485.440256" cy="541.336496" r="5" fill="black" stroke="none" />
<circle cx="485.440256" cy="613.336496" r="5" fill="black" stroke="none" />
<path d="M485.440256,613.336496 A114.26787593590578,114.26787593590578,0,0,1,454.82137438652956,604.9573211290258" stroke="grey" stroke-width="5" fill="none" />
<path d="M454.82137438652956,604.9573211290258 L-62.55974400000002,145.336496" stroke="grey" stroke-width="5" />
<circle cx="454.82137438652956" cy="604.9573211290258" r="2.5" fill="grey" stroke="none" />
<circle cx="485.440256" cy="613.336496" r="5" fill="black" stroke="none" />
<circle cx="437.440256" cy="645.336496" r="5" fill="black" stroke="none" />
<path d="M485.440256,485.336496 A20.664087081300067,20.664087081300067,0,0,1,512.4378110178352,483.49832275227243" stroke="grey" stroke-width="5" fill="none" />
<path d="M512.4378110178352,483.49832275227243 L89.44025599999998,-118.66350399999999" stroke="grey" stroke-width="5" />
<circle cx="512.4378110178352" cy="483.49832275227243" r="2.5" fill="grey" stroke="none" />
<circle cx="485.440256" cy="485.336496" r="5" fill="black" stroke="none" />
<circle cx="589.440256" cy="381.336496" r="5" fill="black" stroke="none" />
<path d="M485.440256,485.336496 A20.664087081300067,20.664087081300067,0,0,1,520.5944532790045,501.6949893930212" stroke="grey" stroke-width="5" fill="none" />
<path d="M520.5944532790045,501.6949893930212 L113.44025599999998,9.336496000000011" stroke="grey" stroke-width="5" />
<circle cx="520.5944532790045" cy="501.6949893930212" r="2.5" fill="grey" stroke="none" />
<circle cx="485.440256" cy="485.336496" r="5" fill="black" stroke="none" />
<circle cx="613.440256" cy="509.336496" r="5" fill="black" stroke="none" />
<path d="M613.440256,509.336496 A113.823819295012,113.823819295012,0,0,0,613.7017575896172,505.26992978468235" stroke="grey" stroke-width="5" fill="none" />
<path d="M613.7017575896172,505.26992978468235 L201.44025599999998,9.336496000000011" stroke="grey" stroke-width="5" />
<circle cx="613.7017575896172" cy="505.26992978468235" r="2.5" fill="grey" stroke="none" />
<circle cx="613.440256" cy="509.336496" r="5" fill="black" stroke="none" />
<circle cx="701.440256" cy="509.336496" r="5" fill="black" stroke="none" />
<path d="M485.440256,541.336496 A43.82570075770099,43.82570075770099,0,0,0,514.1142269835597,541.4907296098793" stroke="grey" stroke-width="5" fill="none" />
<path d="M514.1142269835597,541.4907296098793 L49.44025599999998,145.336496" stroke="grey" stroke-width="5" />
<circle cx="514.1142269835597" cy="541.4907296098793" r="2.5" fill="grey" stroke="none" />
<circle cx="485.440256" cy="541.336496" r="5" fill="black" stroke="none" />
<circle cx="549.440256" cy="645.336496" r="5" fill="black" stroke="none" />
<circle cx="500" cy="500" r="5" fill="red" stroke="none" />
</svg>