<?xml version="1.0" encoding="UTF-8"?>
<svg xmlns="http://www.w3.org/2000/svg" xmlns:xlink="http://www.w3.org/1999/xlink"
     width="1000" height="1000" viewBox="0 0 1000 1000">
<defs>
</defs>
<rect x="0" y="0" width="1000" height="1000" fill="white" />
<path d="M343.618712,621.2325420000001 L456.54135103404326,533.6907474891025" stroke="grey" stroke-width="5" />
<circle cx="456.54135103404326" cy="533.6907474891025" r="2.5" fill="grey" stroke="none" />
<path d="M456.5413510340433,533.6907474891025 A54.98836819110668,54.98836819110668,0,0,0,463.6187120000001,541.2325420000001" stroke="grey" stroke-width="5" fill="none" />
<circle cx="343.618712" cy="621.2325420000001" r="5" fill="black" stroke="none" />
<circle cx="463.618712" cy="541.2325420000001" r="5" fill="black" stroke="none" />
<path d="M463.618712,541.2325420000001 L474.02211532070805,529.4418993937231" stroke="grey" stroke-width="5" />
<circle cx="474.02211532070805" cy="529.4418993937231" r="2.5" fill="grey" stroke="none" />
<path d="M474.02211532070805,529.4418993937231 A39.2641812893215,39.2641812893215,0,0,1,463.618712,485.2325420000001" stroke="grey" stroke-width="5" fill="none" />
<circle cx="463.618712" cy="541.2325420000001" r="5" fill="black" stroke="none" />
<circle cx="463.618712" cy="485.2325420000001" r="5" fill="black" stroke="none" />
<path d="M463.618712,485.2325420000001 A39.2641812893215,39.2641812893215,0,0,0,460.9512820075669,495.8922566452938" stroke="grey" stroke-width="5" fill="none" />
<path d="M460.9512820075669,495.8922566452938 L-140.38128799999998,-14.76745799999992" stroke="grey" stroke-width="5" />
<circle cx="460.9512820075669" cy="495.8922566452938" r="2.5" fill="grey" stroke="none" />
<circle cx="463.618712" cy="485.2325420000001" r="5" fill="black" stroke="none" />
<circle cx="359.618712" cy="485.2325420000001" r="5" fill="black" stroke="none" />
<path d="M359.618712,485.2325420000001 A141.15588488022985,141.15588488022985,0,0,1,408.88190360613964,392.19241053673505" stroke="grey" stroke-width="5" fill="none" />
<path d="M408.8819036061396,392.1924105367351 L-100.38128799999998,-118.76745799999992" stroke="grey" stroke-width="5" />
<circle cx="408.8819036061396" cy="392.1924105367351" r="2.5" fill="grey" stroke="none" />
<circle cx="359.618712" cy="485.2325420000001" r="5" fill="black" stroke="none" />
<circle cx="399.618712" cy="381.2325420000001" r="5" fill="black" stroke="none" />
<path d="M399.6187120000001,381.232542 A155.50598721695795,155.50598721695795,0,0,1,508.7244556169703,344.7389426336784" stroke="grey" stroke-width="5" fill="none" />
<path d="M508.7244556169703,344.7389426336784 L11.618712000000016,-206.76745799999992" stroke="grey" stroke-width="5" />
<circle cx="508.7244556169703" cy="344.7389426336784" r="2.5" fill="grey" stroke="none" />
<circle cx="399.618712" cy="381.2325420000001" r="5" fill="black" stroke="none" />
<circle cx="511.618712" cy="293.2325420000001" r="5" fill="black" stroke="none" />
<path d="M511.618712,293.2325420000001 L510.7856772171683,308.05729060136787" stroke="grey" stroke-width="5" />
<circle cx="510.7856772171683" cy="308.05729060136787" r="2.5" fill="grey" stroke="none" />
<path d="M510.7856772171683,308.05729060136787 A192.2455058624796,192.2455058624796,0,0,1,559.6187120000001,317.2325420000001" stroke="grey" stroke-width="5" fill="none" />
<circle cx="511.618712" cy="293.2325420000001" r="5" fill="black" stroke="none" />
<circle cx="559.618712" cy="317.2325420000001" r="5" fill="black" stroke="none" />
<path d="M559.618712,317.2325420000001 L554.318100994598,333.4821248374177" stroke="grey" stroke-width="5" />
<circle cx="554.318100994598" cy="333.4821248374177" r="2.5" fill="grey" stroke="none" />
<path d="M554.3181009945981,333.4821248374177 A175.15324388751893,175.15324388751893,0,0,0,511.618712,325.2325420000001" stroke="grey" stroke-width="5" fill="none" />
<circle cx="559.618712" cy="317.2325420000001" r="5" fill="black" stroke="none" />
<circle cx="511.618712" cy="325.2325420000001" r="5" fill="black" stroke="none" />
<path d="M511.618712,293.2325420000001 L509.82673869870393,325.1226313931157" stroke="grey" stroke-width="5" />
<circle cx="509.82673869870393" cy="325.1226313931157" r="2.5" fill="grey" stroke="none" />
<path d="M509.82673869870393,325.1226313931157 A175.15324388751893,175.15324388751893,0,0,1,511.618712,325.2325420000001" stroke="grey" stroke-width="5" fill="none" />
<circle cx="511.618712" cy="293.2325420000001" r="5" fill="black" stroke="none" />
<circle cx="511.618712" cy="325.2325420000001" r="5" fill="black" stroke="none" />
<path d="M511.618712,325.2325420000001 L504.8125029129503,427.61083150060676" stroke="grey" stroke-width="5" />
<circle cx="504.8125029129503" cy="427.61083150060676" r="2.5" fill="grey" stroke="none" />
<path d="M504.8125029129503,427.61083150060676 A72.54896208989275,72.54896208989275,0,0,0,463.618712,437.2325420000001" stroke="grey" stroke-width="5" fill="none" />
<circle cx="511.618712" cy="325.2325420000001" r="5" fill="black" stroke="none" />
<circle cx="463.618712" cy="437.2325420000001" r="5" fill="black" stroke="none" />
<path d="M399.618712,381.2325420000001 L453.1686310734379,444.5908420494867" stroke="grey" stroke-width="5" />
<circle cx="453.1686310734379" cy="444.5908420494867" r="2.5" fill="grey" stroke="none" />
<path d="M453.16863107343795,444.5908420494867 A72.54896208989275,72.54896208989275,0,0,1,463.618712,437.2325420000001" stroke="grey" stroke-width="5" fill="none" />
<circle cx="399.618712" cy="381.2325420000001" r="5" fill="black" stroke="none" />
<circle cx="463.618712" cy="437.2325420000001" r="5" fill="black" stroke="none" />
<path d="M463.618712,437.2325420000001 L480.31010442573887,466.029660811299" stroke="grey" stroke-width="5" />
<circle cx="480.31010442573887" cy="466.029660811299" r="2.5" fill="grey" stroke="none" />
<path d="M480.31010442573887,466.029660811299 A39.2641812893215,39.2641812893215,0,0,0,463.618712,485.2325420000001" stroke="grey" stroke-width="5" fill="none" />
<circle cx="463.618712" cy="437.2325420000001" r="5" fill="black" stroke="none" />
<circle cx="463.618712" cy="485.2325420000001" r="5" fill="black" stroke="none" />
<path d="M559.6187120000001,317.2325420000001 A192.2455058624796,192.2455058624796,0,0,1,578.4800100699729,324.5029272502312" stroke="grey" stroke-width="5" fill="none" />
<path d="M578.4800100699729,324.5029272502312 L99.61871200000002,-222.76745799999992" stroke="grey" stroke-width="5" />
<circle cx="578.4800100699729" cy="324.5029272502312" r="2.5" fill="grey" stroke="none" />
<circle cx="559.618712" cy="317.2325420000001" r="5" fill="black" stroke="none" />
<circle cx="599.618712" cy="277.2325420000001" r="5" fill="black" stroke="none" />
<path d="M559.618712,317.2325420000001 L549.7035354116126,347.62856297879426" stroke="grey" stroke-width="5" />
<circle cx="549.7035354116126" cy="347.62856297879426" r="2.5" fill="grey" stroke="none" />
<path d="M549.7035354116126,347.62856297879426 A160.2731925567114,160.2731925567114,0,0,1,607.618712,381.2325420000001" stroke="grey" stroke-width="5" fill="none" />
<circle cx="559.618712" cy="317.2325420000001" r="5" fill="black" stroke="none" />
<circle cx="607.618712" cy="381.2325420000001" r="5" fill="black" stroke="none" />
<path d="M511.618712,325.2325420000001 L508.81528544723955,367.4013927569208" stroke="grey" stroke-width="5" />
<circle cx="508.81528544723955" cy="367.4013927569208" r="2.5" fill="grey" stroke="none" />
<path d="M508.81528544723955,367.4013927569208 A132.89130859586226,132.89130859586226,0,0,1,559.6187120000001,381.2325420000001" stroke="grey" stroke-width="5" fill="none" />
<circle cx="511.618712" cy="325.2325420000001" r="5" fill="black" stroke="none" />
<circle cx="559.618712" cy="381.2325420000001" r="5" fill="black" stroke="none" />
<path d="M463.618712,437.2325420000001 L467.98914621615035,444.7727106192084" stroke="grey" stroke-width="5" />
<circle cx="467.98914621615035" cy="444.7727106192084" r="2.5" fill="grey" stroke="none" />
<path d="M467.98914621615035,444.7727106192084 A63.83375480355748,63.83375480355748,0,0,1,511.618712,437.2325420000001" stroke="grey" stroke-width="5" fill="none" />
<circle cx="463.618712" cy="437.2325420000001" r="5" fill="black" stroke="none" />
<circle cx="511.618712" cy="437.2325420000001" r="5" fill="black" stroke="none" />
<path d="M463.618712,485.2325420000001 A39.2641812893215,39.2641812893215,0,0,1,538.112401650801,490.55962009616496" stroke="grey" stroke-width="5" fill="none" />
<path d="M538.112401650801,490.55962009616496 L59.618712000000016,-14.76745799999992" stroke="grey" stroke-width="5" />
<circle cx="538.112401650801" cy="490.55962009616496" r="2.5" fill="grey" stroke="none" />
<circle cx="463.618712" cy="485.2325420000001" r="5" fill="black" stroke="none" />
<circle cx="559.618712" cy="485.2325420000001" r="5" fill="black" stroke="none" />
<path d="M463.6187120000001,541.2325420000001 A54.98836819110668,54.98836819110668,0,0,0,545.2258951747809,531.2784117557212" stroke="grey" stroke-width="5" fill="none" />
<path d="M545.2258951747809,531.2784117557212 L59.618712000000016,41.23254200000008" stroke="grey" stroke-width="5" />
<circle cx="545.2258951747809" cy="531.2784117557212" r="2.5" fill="grey" stroke="none" />
<circle cx="463.618712" cy="541.2325420000001" r="5" fill="black" stroke="none" />
<circle cx="559.618712" cy="541.2325420000001" r="5" fill="black" stroke="none" />
<path d="M607.618712,381.2325420000001 L589.2325861795055,401.5233760528022" stroke="grey" stroke-width="5" />
<circle cx="589.2325861795055" cy="401.5233760528022" r="2.5" fill="grey" stroke="none" />
<path d="M589.2325861795055,401.5233760528021 A132.89130859586226,132.89130859586226,0,0,0,559.6187120000001,381.2325420000001" stroke="grey" stroke-width="5" fill="none" />
<circle cx="607.618712" cy="381.2325420000001" r="5" fill="black" stroke="none" />
<circle cx="559.618712" cy="381.2325420000001" r="5" fill="black" stroke="none" />
<path d="M559.618712,381.2325420000001 L528.6375857362158,442.9505746258423" stroke="grey" stroke-width="5" />
<circle cx="528.6375857362158" cy="442.9505746258423" r="2.5" fill="grey" stroke="none" />
<path d="M528.6375857362158,442.9505746258423 A63.83375480355748,63.83375480355748,0,0,0,511.618712,437.2325420000001" stroke="grey" stroke-width="5" fill="none" />
<circle cx="559.618712" cy="381.2325420000001" r="5" fill="black" stroke="none" />
<circle cx="511.618712" cy="437.2325420000001" r="5" fill="black" stroke="none" />
<path d="M511.618712,437.2325420000001 L511.17944939859626,439.6055586376947" stroke="grey" stroke-width="5" />
<circle cx="511.17944939859626" cy="439.6055586376947" r="2.5" fill="grey" stroke="none" />
<path d="M511.17944939859626,439.6055586376947 A61.42042523721818,61.42042523721818,0,0,1,559.6187120000001,485.2325420000001" stroke="grey" stroke-width="5" fill="none" />
<circle cx="511.618712" cy="437.2325420000001" r="5" fill="black" stroke="none" />
<circle cx="559.618712" cy="485.2325420000001" r="5" fill="black" stroke="none" />
<path d="M559.6187120000001,485.2325420000001 A61.42042523721818,61.42042523721818,0,0,1,550.5160237473306,534.9370860416241" stroke="grey" stroke-width="5" fill="none" />
<path d="M550.5160237473306,534.9370860416241 L59.618712000000016,41.23254200000008" stroke="grey" stroke-width="5" />
<circle cx="550.5160237473306" cy="534.9370860416241" r="2.5" fill="grey" stroke="none" />
<circle cx="559.618712" cy="485.2325420000001" r="5" fill="black" stroke="none" />
<circle cx="559.618712" cy="541.2325420000001" r="5" fill="black" stroke="none" />
<path d="M559.618712,541.2325420000001 A72.488022047237,72.488022047237,0,0,1,553.3172447008225,549.1099252476863" stroke="grey" stroke-width="5" fill="none" />
<path d="M553.3172447008225,549.1099252476863 L131.61871200000002,121.23254200000008" stroke="grey" stroke-width="5" />
<circle cx="553.3172447008225" cy="549.1099252476863" r="2.5" fill="grey" stroke="none" />
<circle cx="559.618712" cy="541.2325420000001" r="5" fill="black" stroke="none" />
<circle cx="631.618712" cy="621.2325420000001" r="5" fill="black" stroke="none" />
<path d="M607.618712,381.2325420000001 L584.8632393528861,406.34536477645406" stroke="grey" stroke-width="5" />
<circle cx="584.8632393528861" cy="406.34536477645406" r="2.5" fill="grey" stroke="none" />
<path d="M584.8632393528861,406.34536477645406 A126.38417658995408,126.38417658995408,0,0,0,583.618712,405.2325420000001" stroke="grey" stroke-width="5" fill="none" />
<circle cx="607.618712" cy="381.2325420000001" r="5" fill="black" stroke="none" />
<circle cx="583.618712" cy="405.2325420000001" r="5" fill="black" stroke="none" />
<path d="M583.618712,405.2325420000001 L557.2758845262139,435.0876155417126" stroke="grey" stroke-width="5" />
<circle cx="557.2758845262139" cy="435.0876155417126" r="2.5" fill="grey" stroke="none" />
<path d="M557.2758845262139,435.0876155417126 A86.56872763487227,86.56872763487227,0,0,1,559.618712,437.2325420000001" stroke="grey" stroke-width="5" fill="none" />
<circle cx="583.618712" cy="405.2325420000001" r="5" fill="black" stroke="none" />
<circle cx="559.618712" cy="437.2325420000001" r="5" fill="black" stroke="none" />
<path d="M559.618712,437.2325420000001 L542.2994162346931,455.4665516434569" stroke="grey" stroke-width="5" />
<circle cx="542.2994162346931" cy="455.4665516434569" r="2.5" fill="grey" stroke="none" />
<path d="M542.2994162346931,455.4665516434569 A61.42042523721818,61.42042523721818,0,0,1,559.6187120000001,485.2325420000001" stroke="grey" stroke-width="5" fill="none" />
<circle cx="559.618712" cy="437.2325420000001" r="5" fill="black" stroke="none" />
<circle cx="559.618712" cy="485.2325420000001" r="5" fill="black" stroke="none" />
<path d="M559.618712,381.2325420000001 L556.6994328303892,387.0480880682718" stroke="grey" stroke-width="5" />
<circle cx="556.6994328303892" cy="387.0480880682718" r="2.5" fill="grey" stroke="none" />
<path d="M556.6994328303892,387.0480880682718 A126.38417658995408,126.38417658995408,0,0,1,583.618712,405.2325420000001" stroke="grey" stroke-width="5" fill="none" />
<circle cx="559.618712" cy="381.2325420000001" r="5" fill="black" stroke="none" />
<circle cx="583.618712" cy="405.2325420000001" r="5" fill="black" stroke="none" />
<path d="M511.618712,437.2325420000001 A63.83375480355748,63.83375480355748,0,0,1,543.9614436700913,453.7167446827463" stroke="grey" stroke-width="5" fill="none" />
<path d="M543.9614436700913,453.7167446827463 L59.618712000000016,-62.76745799999992" stroke="grey" stroke-width="5" />
<circle cx="543.9614436700913" cy="453.7167446827463" r="2.5" fill="grey" stroke="none" />
<circle cx="511.618712" cy="437.2325420000001" r="5" fill="black" stroke="none" />
<circle cx="559.618712" cy="437.2325420000001" r="5" fill="black" stroke="none" />
<path d="M607.618712,381.2325420000001 L583.655465406532,407.67825790239215" stroke="grey" stroke-width="5" />
<circle cx="583.655465406532" cy="407.67825790239215" r="2.5" fill="grey" stroke="none" />
<path d="M583.655465406532,407.6782579023921 A124.58547650637574,124.58547650637574,0,0,1,607.618712,437.2325420000001" stroke="grey" stroke-width="5" fill="none" />
<circle cx="607.618712" cy="381.2325420000001" r="5" fill="black" stroke="none" />
<circle cx="607.618712" cy="437.2325420000001" r="5" fill="black" stroke="none" />
<path d="M583.618712,405.2325420000001 L582.428650171682,406.58127282393974" stroke="grey" stroke-width="5" />
<circle cx="582.428650171682" cy="406.58127282393974" r="2.5" fill="grey" stroke="none" />
<path d="M582.428650171682,406.58127282393974 A124.58547650637574,124.58547650637574,0,0,1,607.618712,437.2325420000001" stroke="grey" stroke-width="5" fill="none" />
<circle cx="583.618712" cy="405.2325420000001" r="5" fill="black" stroke="none" />
<circle cx="607.618712" cy="437.2325420000001" r="5" fill="black" stroke="none" />
<path d="M559.618712,437.2325420000001 A86.56872763487227,86.56872763487227,0,0,1,574.7793019603452,456.38577522591726" stroke="grey" stroke-width="5" fill="none" />
<path d="M574.7793019603452,456.38577522591726 L107.61871200000002,-62.76745799999992" stroke="grey" stroke-width="5" />
<circle cx="574.7793019603452" cy="456.38577522591726" r="2.5" fill="grey" stroke="none" />
<circle cx="559.618712" cy="437.2325420000001" r="5" fill="black" stroke="none" />
<circle cx="607.618712" cy="437.2325420000001" r="5" fill="black" stroke="none" />
<path d="M559.6187120000001,485.2325420000001 A61.42042523721818,61.42042523721818,0,0,0,553.0558395719861,469.05575136422954" stroke="grey" stroke-width="5" fill="none" />
<path d="M553.0558395719861,469.05575136422954 L107.61871200000002,-62.76745799999992" stroke="grey" stroke-width="5" />
<circle cx="553.0558395719861" cy="469.05575136422954" r="2.5" fill="grey" stroke="none" />
<circle cx="559.618712" cy="485.2325420000001" r="5" fill="black" stroke="none" />
<circle cx="607.618712" cy="437.2325420000001" r="5" fill="black" stroke="none" />
<path d="M607.618712,437.2325420000001 L593.3040454068876,445.58141755769293" stroke="grey" stroke-width="5" />
<circle cx="593.3040454068876" cy="445.58141755769293" r="2.5" fill="grey" stroke="none" />
<path d="M593.3040454068876,445.58141755769293 A108.01401299979884,108.01401299979884,0,0,1,607.618712,509.2325420000001" stroke="grey" stroke-width="5" fill="none" />
<circle cx="607.618712" cy="437.2325420000001" r="5" fill="black" stroke="none" />
<circle cx="607.618712" cy="509.2325420000001" r="5" fill="black" stroke="none" />
<path d="M607.618712,509.2325420000001 L572.2227362126225,506.1959433731001" stroke="grey" stroke-width="5" />
<circle cx="572.2227362126225" cy="506.1959433731001" r="2.5" fill="grey" stroke="none" />
<path d="M572.2227362126225,506.1959433731001 A72.488022047237,72.488022047237,0,0,1,559.618712,541.2325420000001" stroke="grey" stroke-width="5" fill="none" />
<circle cx="607.618712" cy="509.2325420000001" r="5" fill="black" stroke="none" />
<circle cx="559.618712" cy="541.2325420000001" r="5" fill="black" stroke="none" />
<path d="M607.618712,381.2325420000001 A160.2731925567114,160.2731925567114,0,0,1,610.3852310263005,383.7993243410739" stroke="grey" stroke-width="5" fill="none" />
<path d="M610.3852310263005,383.7993243410739 L211.61871200000002,-222.76745799999992" stroke="grey" stroke-width="5" />
<circle cx="610.3852310263005" cy="383.7993243410739" r="2.5" fill="grey" stroke="none" />
<circle cx="607.618712" cy="381.2325420000001" r="5" fill="black" stroke="none" />
<circle cx="711.618712" cy="277.2325420000001" r="5" fill="black" stroke="none" />
<path d="M607.618712,381.2325420000001 A160.2731925567114,160.2731925567114,0,0,1,648.6964995307317,440.1932505512312" stroke="grey" stroke-width="5" fill="none" />
<path d="M648.6964995307317,440.1932505512312 L235.61871200000002,-94.76745799999992" stroke="grey" stroke-width="5" />
<circle cx="648.6964995307317" cy="440.1932505512312" r="2.5" fill="grey" stroke="none" />
<circle cx="607.618712" cy="381.2325420000001" r="5" fill="black" stroke="none" />
<circle cx="735.618712" cy="405.2325420000001" r="5" fill="black" stroke="none" />
<path d="M735.618712,405.2325420000001 A253.9626912369624,253.9626912369624,0,0,1,743.727383930418,428.62766038054144" stroke="grey" stroke-width="5" fill="none" />
<path d="M743.727383930418,428.62766038054144 L323.618712,-94.76745799999992" stroke="grey" stroke-width="5" />
<circle cx="743.727383930418" cy="428.62766038054144" r="2.5" fill="grey" stroke="none" />
<circle cx="735.618712" cy="405.2325420000001" r="5" fill="black" stroke="none" />
<circle cx="823.618712" cy="405.2325420000001" r="5" fill="black" stroke="none" />
<path d="M607.618712,437.2325420000001 A124.58547650637574,124.58547650637574,0,0,1,621.1382757183352,529.1042799654845" stroke="grey" stroke-width="5" fill="none" />
<path d="M621.1382757183352,529.1042799654845 L171.61871200000002,41.23254200000008" stroke="grey" stroke-width="5" />
<circle cx="621.1382757183352" cy="529.1042799654845" r="2.5" fill="grey" stroke="none" />
<circle cx="607.618712" cy="437.2325420000001" r="5" fill="black" stroke="none" />
<circle cx="671.618712" cy="541.2325420000001" r="5" fill="black" stroke="none" />
<circle cx="500" cy="500" r="5" fill="red" stroke="none" />
</svg>