<?xml version="1.0" encoding="UTF-8"?>
<svg xmlns="http://www.w3.org/2000/svg" xmlns:xlink="http://www.w3.org/1999/xlink"
     width="1000" height="1000" viewBox="0 0 1000 1000">
<defs>
</defs>
<rect x="0" y="0" width="1000" height="1000" fill="white" />
<path d="M236.028056,718.9500459999999 L345.99432572292733,627.739141350666" stroke="grey" stroke-width="5" />
<circle cx="345.99432572292733" cy="627.739141350666" r="2.5" fill="grey" stroke="none" />
<path d="M345.99432572292733,627.739141350666 A200.08757068479102,200.08757068479102,0,0,0,356.028056,638.9500459999999" stroke="grey" stroke-width="5" fill="none" />
<circle cx="236.028056" cy="718.9500459999999" r="5" fill="black" stroke="none" />
<circle cx="356.028056" cy="638.9500459999999" r="5" fill="black" stroke="none" />
<path d="M356.028056,638.9500459999999 L380.4415731584243,615.3880988737957" stroke="grey" stroke-width="5" />
<circle cx="380.4415731584243" cy="615.3880988737957" r="2.5" fill="grey" stroke="none" />
<path d="M380.4415731584243,615.3880988737957 A166.15845085502346,166.15845085502346,0,0,1,356.028056,582.9500459999999" stroke="grey" stroke-width="5" fill="none" />
<circle cx="356.028056" cy="638.9500459999999" r="5" fill="black" stroke="none" />
<circle cx="356.028056" cy="582.9500459999999" r="5" fill="black" stroke="none" />
<path d="M356.028056,582.9500459999999 A166.15845085502346,166.15845085502346,0,0,1,342.42414732313694,552.7113028078493" stroke="grey" stroke-width="5" fill="none" />
<path d="M342.4241473231368,552.7113028078492 L252.028056,582.9500459999999" stroke="grey" stroke-width="5" />
<circle cx="342.4241473231368" cy="552.7113028078492" r="2.5" fill="grey" stroke="none" />
<circle cx="356.028056" cy="582.9500459999999" r="5" fill="black" stroke="none" />
<circle cx="252.028056" cy="582.9500459999999" r="5" fill="black" stroke="none" />
<path d="M252.028056,582.9500459999999 L301.7627609607473,566.3130991029333" stroke="grey" stroke-width="5" />
<circle cx="301.7627609607473" cy="566.3130991029333" r="2.5" fill="grey" stroke="none" />
<path d="M301.76276096074736,566.3130991029333 A209.0345188109879,209.0345188109879,0,0,1,292.028056,478.95004599999993" stroke="grey" stroke-width="5" fill="none" />
<circle cx="252.028056" cy="582.9500459999999" r="5" fill="black" stroke="none" />
<circle cx="292.028056" cy="478.950046" r="5" fill="black" stroke="none" />
<path d="M292.028056,478.950046 L355.4714106890807,485.3714876239281" stroke="grey" stroke-width="5" />
<circle cx="355.4714106890807" cy="485.3714876239281" r="2.5" fill="grey" stroke="none" />
<path d="M355.4714106890807,485.37148762392803 A145.2670179446844,145.2670179446844,0,0,1,404.028056,390.950046" stroke="grey" stroke-width="5" fill="none" />
<circle cx="292.028056" cy="478.950046" r="5" fill="black" stroke="none" />
<circle cx="404.028056" cy="390.950046" r="5" fill="black" stroke="none" />
<path d="M404.028056,390.950046 L435.4890983465608,426.69825612987404" stroke="grey" stroke-width="5" />
<circle cx="435.4890983465608" cy="426.69825612987404" r="2.5" fill="grey" stroke="none" />
<path d="M435.4890983465608,426.69825612987404 A97.64631117733661,97.64631117733661,0,0,1,452.02805599999994,414.95004600000004" stroke="grey" stroke-width="5" fill="none" />
<circle cx="404.028056" cy="390.950046" r="5" fill="black" stroke="none" />
<circle cx="452.028056" cy="414.950046" r="5" fill="black" stroke="none" />
<path d="M452.02805599999994,414.95004600000004 A97.64631117733661,97.64631117733661,0,0,0,423.8565791045851,438.86914411784386" stroke="grey" stroke-width="5" fill="none" />
<path d="M423.8565791045851,438.86914411784386 L404.028056,422.950046" stroke="grey" stroke-width="5" />
<circle cx="423.8565791045851" cy="438.86914411784386" r="2.5" fill="grey" stroke="none" />
<circle cx="452.028056" cy="414.950046" r="5" fill="black" stroke="none" />
<circle cx="404.028056" cy="422.950046" r="5" fill="black" stroke="none" />
<path d="M404.028056,390.950046 L418.68980184936515,407.6097346943643" stroke="grey" stroke-width="5" />
<circle cx="418.68980184936515" cy="407.6097346943643" r="2.5" fill="grey" stroke="none" />
<path d="M418.68980184936515,407.6097346943643 A123.07440613929954,123.07440613929954,0,0,0,404.028056,422.950046" stroke="grey" stroke-width="5" fill="none" />
<circle cx="404.028056" cy="390.950046" r="5" fill="black" stroke="none" />
<circle cx="404.028056" cy="422.950046" r="5" fill="black" stroke="none" />
<path d="M404.028056,422.950046 A123.07440613929954,123.07440613929954,0,0,0,380.3992149740087,529.0338021572766" stroke="grey" stroke-width="5" fill="none" />
<path d="M380.3992149740087,529.0338021572766 L356.028056,534.9500459999999" stroke="grey" stroke-width="5" />
<circle cx="380.3992149740087" cy="529.0338021572766" r="2.5" fill="grey" stroke="none" />
<circle cx="404.028056" cy="422.950046" r="5" fill="black" stroke="none" />
<circle cx="356.028056" cy="534.9500459999999" r="5" fill="black" stroke="none" />
<path d="M292.028056,478.950046 L352.59971278012654,485.08082770258125" stroke="grey" stroke-width="5" />
<circle cx="352.59971278012654" cy="485.08082770258125" r="2.5" fill="grey" stroke="none" />
<path d="M352.59971278012654,485.0808277025812 A148.1533879954868,148.1533879954868,0,0,0,356.028056,534.950046" stroke="grey" stroke-width="5" fill="none" />
<circle cx="292.028056" cy="478.950046" r="5" fill="black" stroke="none" />
<circle cx="356.028056" cy="534.9500459999999" r="5" fill="black" stroke="none" />
<path d="M356.028056,534.950046 A148.1533879954868,148.1533879954868,0,0,0,371.62897120106584,573.9615125564944" stroke="grey" stroke-width="5" fill="none" />
<path d="M371.62897120106584,573.9615125564944 L356.028056,582.9500459999999" stroke="grey" stroke-width="5" />
<circle cx="371.62897120106584" cy="573.9615125564944" r="2.5" fill="grey" stroke="none" />
<circle cx="356.028056" cy="534.9500459999999" r="5" fill="black" stroke="none" />
<circle cx="356.028056" cy="582.9500459999999" r="5" fill="black" stroke="none" />
<path d="M452.02805599999994,414.95004600000004 A97.64631117733661,97.64631117733661,0,0,1,493.78765121381304,402.55150689158904" stroke="grey" stroke-width="5" fill="none" />
<path d="M493.78765121381304,402.55150689158904 L492.028056,374.950046" stroke="grey" stroke-width="5" />
<circle cx="493.78765121381304" cy="402.55150689158904" r="2.5" fill="grey" stroke="none" />
<circle cx="452.028056" cy="414.950046" r="5" fill="black" stroke="none" />
<circle cx="492.028056" cy="374.950046" r="5" fill="black" stroke="none" />
<path d="M452.028056,414.950046 L489.6585124492368,481.6654701238711" stroke="grey" stroke-width="5" />
<circle cx="489.6585124492368" cy="481.6654701238711" r="2.5" fill="grey" stroke="none" />
<path d="M489.6585124492368,481.6654701238711 A21.049972696924158,21.049972696924158,0,0,1,500.028056,478.950046" stroke="grey" stroke-width="5" fill="none" />
<circle cx="452.028056" cy="414.950046" r="5" fill="black" stroke="none" />
<circle cx="500.028056" cy="478.950046" r="5" fill="black" stroke="none" />
<path d="M404.028056,422.950046 L459.14917052044683,467.2033888126574" stroke="grey" stroke-width="5" />
<circle cx="459.14917052044683" cy="467.2033888126574" r="2.5" fill="grey" stroke="none" />
<path d="M459.14917052044683,467.2033888126574 A52.38709740519371,52.38709740519371,0,0,0,452.028056,478.950046" stroke="grey" stroke-width="5" fill="none" />
<circle cx="404.028056" cy="422.950046" r="5" fill="black" stroke="none" />
<circle cx="452.028056" cy="478.950046" r="5" fill="black" stroke="none" />
<path d="M356.028056,534.9500459999999 L400.74496125938776,524.0947511948312" stroke="grey" stroke-width="5" />
<circle cx="400.74496125938776" cy="524.0947511948312" r="2.5" fill="grey" stroke="none" />
<path d="M400.74496125938776,524.0947511948312 A102.13774890088999,102.13774890088999,0,0,0,404.028056,534.9500459999999" stroke="grey" stroke-width="5" fill="none" />
<circle cx="356.028056" cy="534.9500459999999" r="5" fill="black" stroke="none" />
<circle cx="404.028056" cy="534.9500459999999" r="5" fill="black" stroke="none" />
<path d="M356.028056,582.9500459999999 L416.9720159152042,547.8369250825777" stroke="grey" stroke-width="5" />
<circle cx="416.9720159152042" cy="547.8369250825777" r="2.5" fill="grey" stroke="none" />
<path d="M416.9720159152042,547.8369250825777 A95.82284457550428,95.82284457550428,0,0,0,452.028056,582.9500459999999" stroke="grey" stroke-width="5" fill="none" />
<circle cx="356.028056" cy="582.9500459999999" r="5" fill="black" stroke="none" />
<circle cx="452.028056" cy="582.9500459999999" r="5" fill="black" stroke="none" />
<path d="M356.028056,638.9500459999999 L394.2283471836137,602.0822225219998" stroke="grey" stroke-width="5" />
<circle cx="394.2283471836137" cy="602.0822225219998" r="2.5" fill="grey" stroke="none" />
<path d="M394.2283471836137,602.0822225219998 A146.99803636287544,146.99803636287544,0,0,0,452.028056,638.9500459999999" stroke="grey" stroke-width="5" fill="none" />
<circle cx="356.028056" cy="638.9500459999999" r="5" fill="black" stroke="none" />
<circle cx="452.028056" cy="638.9500459999999" r="5" fill="black" stroke="none" />
<path d="M500.028056,478.950046 A21.049972696924158,21.049972696924158,0,0,0,480.7241064797329,491.541792179393" stroke="grey" stroke-width="5" fill="none" />
<path d="M480.7241064797329,491.541792179393 L452.028056,478.950046" stroke="grey" stroke-width="5" />
<circle cx="480.7241064797329" cy="491.541792179393" r="2.5" fill="grey" stroke="none" />
<circle cx="500.028056" cy="478.950046" r="5" fill="black" stroke="none" />
<circle cx="452.028056" cy="478.950046" r="5" fill="black" stroke="none" />
<path d="M452.028056,478.950046 A52.38709740519371,52.38709740519371,0,0,0,450.7753829255386,517.9260996430875" stroke="grey" stroke-width="5" fill="none" />
<path d="M450.7753829255386,517.9260996430875 L404.028056,534.9500459999999" stroke="grey" stroke-width="5" />
<circle cx="450.7753829255386" cy="517.9260996430875" r="2.5" fill="grey" stroke="none" />
<circle cx="452.028056" cy="478.950046" r="5" fill="black" stroke="none" />
<circle cx="404.028056" cy="534.9500459999999" r="5" fill="black" stroke="none" />
<path d="M404.028056,534.9500459999999 L409.96174506993793,532.7891779660667" stroke="grey" stroke-width="5" />
<circle cx="409.96174506993793" cy="532.7891779660667" r="2.5" fill="grey" stroke="none" />
<path d="M409.96174506993793,532.7891779660667 A95.82284457550428,95.82284457550428,0,0,0,452.028056,582.9500459999999" stroke="grey" stroke-width="5" fill="none" />
<circle cx="404.028056" cy="534.9500459999999" r="5" fill="black" stroke="none" />
<circle cx="452.028056" cy="582.9500459999999" r="5" fill="black" stroke="none" />
<path d="M452.028056,582.9500459999999 A95.82284457550428,95.82284457550428,0,0,0,468.72877864470763,590.5766430018774" stroke="grey" stroke-width="5" fill="none" />
<path d="M468.72877864470763,590.5766430018774 L452.028056,638.9500459999999" stroke="grey" stroke-width="5" />
<circle cx="468.72877864470763" cy="590.5766430018774" r="2.5" fill="grey" stroke="none" />
<circle cx="452.028056" cy="582.9500459999999" r="5" fill="black" stroke="none" />
<circle cx="452.028056" cy="638.9500459999999" r="5" fill="black" stroke="none" />
<path d="M452.028056,638.9500459999999 A146.99803636287544,146.99803636287544,0,0,0,516.0356131643507,646.1207781425508" stroke="grey" stroke-width="5" fill="none" />
<path d="M516.0356131643507,646.1207781425508 L524.028056,718.9500459999999" stroke="grey" stroke-width="5" />
<circle cx="516.0356131643507" cy="646.1207781425508" r="2.5" fill="grey" stroke="none" />
<circle cx="452.028056" cy="638.9500459999999" r="5" fill="black" stroke="none" />
<circle cx="524.028056" cy="718.9500459999999" r="5" fill="black" stroke="none" />
<path d="M500.028056,478.950046 A21.049972696924158,21.049972696924158,0,0,0,479.1076336438187,502.5710656507285" stroke="grey" stroke-width="5" fill="none" />
<path d="M479.1076336438187,502.5710656507285 L476.028056,502.950046" stroke="grey" stroke-width="5" />
<circle cx="479.1076336438187" cy="502.5710656507285" r="2.5" fill="grey" stroke="none" />
<circle cx="500.028056" cy="478.950046" r="5" fill="black" stroke="none" />
<circle cx="476.028056" cy="502.950046" r="5" fill="black" stroke="none" />
<path d="M476.028056,502.950046 A24.152781838563698,24.152781838563698,0,0,0,480.47865783756174,514.2223089095359" stroke="grey" stroke-width="5" fill="none" />
<path d="M480.47865783756174,514.2223089095359 L452.028056,534.9500459999999" stroke="grey" stroke-width="5" />
<circle cx="480.47865783756174" cy="514.2223089095359" r="2.5" fill="grey" stroke="none" />
<circle cx="476.028056" cy="502.950046" r="5" fill="black" stroke="none" />
<circle cx="452.028056" cy="534.9500459999999" r="5" fill="black" stroke="none" />
<path d="M452.028056,534.9500459999999 A59.353290781061595,59.353290781061595,0,0,0,470.28586706877337,551.3797959385462" stroke="grey" stroke-width="5" fill="none" />
<path d="M470.28586706877337,551.3797959385462 L452.028056,582.9500459999999" stroke="grey" stroke-width="5" />
<circle cx="470.28586706877337" cy="551.3797959385462" r="2.5" fill="grey" stroke="none" />
<circle cx="452.028056" cy="534.9500459999999" r="5" fill="black" stroke="none" />
<circle cx="452.028056" cy="582.9500459999999" r="5" fill="black" stroke="none" />
<path d="M452.028056,478.950046 L477.8828002467469,490.29503500181715" stroke="grey" stroke-width="5" />
<circle cx="477.8828002467469" cy="490.29503500181715" r="2.5" fill="grey" stroke="none" />
<path d="M477.8828002467469,490.29503500181715 A24.152781838563698,24.152781838563698,0,0,0,476.028056,502.950046" stroke="grey" stroke-width="5" fill="none" />
<circle cx="452.028056" cy="478.950046" r="5" fill="black" stroke="none" />
<circle cx="476.028056" cy="502.950046" r="5" fill="black" stroke="none" />
<path d="M404.028056,534.9500459999999 L444.2297215245741,520.3098292783247" stroke="grey" stroke-width="5" />
<circle cx="444.2297215245741" cy="520.3098292783247" r="2.5" fill="grey" stroke="none" />
<path d="M444.2297215245741,520.3098292783247 A59.353290781061595,59.353290781061595,0,0,0,452.028056,534.9500459999999" stroke="grey" stroke-width="5" fill="none" />
<circle cx="404.028056" cy="534.9500459999999" r="5" fill="black" stroke="none" />
<circle cx="452.028056" cy="534.9500459999999" r="5" fill="black" stroke="none" />
<path d="M500.028056,478.950046 A21.049972696924158,21.049972696924158,0,0,1,500.0168977701403,521.0499659146188" stroke="grey" stroke-width="5" fill="none" />
<path d="M500.0168977701403,521.0499659146188 L500.028056,534.9500459999999" stroke="grey" stroke-width="5" />
<circle cx="500.0168977701403" cy="521.0499659146188" r="2.5" fill="grey" stroke="none" />
<circle cx="500.028056" cy="478.950046" r="5" fill="black" stroke="none" />
<circle cx="500.028056" cy="534.9500459999999" r="5" fill="black" stroke="none" />
<path d="M476.028056,502.950046 A24.152781838563698,24.152781838563698,0,0,0,500.01938853611034,524.1527740565327" stroke="grey" stroke-width="5" fill="none" />
<path d="M500.01938853611034,524.1527740565327 L500.028056,534.9500459999999" stroke="grey" stroke-width="5" />
<circle cx="500.01938853611034" cy="524.1527740565327" r="2.5" fill="grey" stroke="none" />
<circle cx="476.028056" cy="502.950046" r="5" fill="black" stroke="none" />
<circle cx="500.028056" cy="534.9500459999999" r="5" fill="black" stroke="none" />
<path d="M452.028056,534.9500459999999 L471.75182424337635,520.5802592054656" stroke="grey" stroke-width="5" />
<circle cx="471.75182424337635" cy="520.5802592054656" r="2.5" fill="grey" stroke="none" />
<path d="M471.75182424337635,520.5802592054656 A34.9500572609152,34.9500572609152,0,0,0,500.028056,534.950046" stroke="grey" stroke-width="5" fill="none" />
<circle cx="452.028056" cy="534.9500459999999" r="5" fill="black" stroke="none" />
<circle cx="500.028056" cy="534.9500459999999" r="5" fill="black" stroke="none" />
<path d="M452.028056,582.9500459999999 L482.50289691205825,530.2548820204474" stroke="grey" stroke-width="5" />
<circle cx="482.50289691205825" cy="530.2548820204474" r="2.5" fill="grey" stroke="none" />
<path d="M482.50289691205825,530.2548820204474 A34.9500572609152,34.9500572609152,0,0,0,500.028056,534.950046" stroke="grey" stroke-width="5" fill="none" />
<circle cx="452.028056" cy="582.9500459999999" r="5" fill="black" stroke="none" />
<circle cx="500.028056" cy="534.9500459999999" r="5" fill="black" stroke="none" />
<path d="M500.028056,534.950046 A34.9500572609152,34.9500572609152,0,0,1,500.00916838102876,534.9500560583533" stroke="grey" stroke-width="5" fill="none" />
<path d="M500.00916838102876,534.9500560583533 L500.028056,606.9500459999999" stroke="grey" stroke-width="5" />
<circle cx="500.00916838102876" cy="534.9500560583533" r="2.5" fill="grey" stroke="none" />
<circle cx="500.028056" cy="534.9500459999999" r="5" fill="black" stroke="none" />
<circle cx="500.028056" cy="606.9500459999999" r="5" fill="black" stroke="none" />
<path d="M500.028056,606.9500459999999 A106.9500496799382,106.9500496799382,0,0,1,465.0974807488044,601.0946451423673" stroke="grey" stroke-width="5" fill="none" />
<path d="M465.0974807488044,601.0946451423673 L452.028056,638.9500459999999" stroke="grey" stroke-width="5" />
<circle cx="465.0974807488044" cy="601.0946451423673" r="2.5" fill="grey" stroke="none" />
<circle cx="500.028056" cy="606.9500459999999" r="5" fill="black" stroke="none" />
<circle cx="452.028056" cy="638.9500459999999" r="5" fill="black" stroke="none" />
<path d="M500.028056,478.950046 A21.049972696924158,21.049972696924158,0,0,1,513.4620940185629,483.81749787033453" stroke="grey" stroke-width="5" fill="none" />
<path d="M513.4620940185629,483.81749787033453 L604.028056,374.950046" stroke="grey" stroke-width="5" />
<circle cx="513.4620940185629" cy="483.81749787033453" r="2.5" fill="grey" stroke="none" />
<circle cx="500.028056" cy="478.950046" r="5" fill="black" stroke="none" />
<circle cx="604.028056" cy="374.950046" r="5" fill="black" stroke="none" />
<path d="M500.028056,478.950046 A21.049972696924158,21.049972696924158,0,0,1,521.0443867614072,500.4849086280584" stroke="grey" stroke-width="5" fill="none" />
<path d="M521.0443867614072,500.4849086280584 L628.028056,502.950046" stroke="grey" stroke-width="5" />
<circle cx="521.0443867614072" cy="500.4849086280584" r="2.5" fill="grey" stroke="none" />
<circle cx="500.028056" cy="478.950046" r="5" fill="black" stroke="none" />
<circle cx="628.028056" cy="502.950046" r="5" fill="black" stroke="none" />
<path d="M628.028056,502.950046 A128.06203924091344,128.06203924091344,0,0,0,628.0501002686705,501.74863252992094" stroke="grey" stroke-width="5" fill="none" />
<path d="M628.0501002686705,501.74863252992094 L716.028056,502.950046" stroke="grey" stroke-width="5" />
<circle cx="628.0501002686705" cy="501.74863252992094" r="2.5" fill="grey" stroke="none" />
<circle cx="628.028056" cy="502.950046" r="5" fill="black" stroke="none" />
<circle cx="716.028056" cy="502.950046" r="5" fill="black" stroke="none" />
<path d="M500.028056,534.950046 A34.9500572609152,34.9500572609152,0,0,0,514.6267569925765,531.7421562345938" stroke="grey" stroke-width="5" fill="none" />
<path d="M514.6267569925765,531.7421562345938 L564.028056,638.9500459999999" stroke="grey" stroke-width="5" />
<circle cx="514.6267569925765" cy="531.7421562345938" r="2.5" fill="grey" stroke="none" />
<circle cx="500.028056" cy="534.9500459999999" r="5" fill="black" stroke="none" />
<circle cx="564.028056" cy="638.9500459999999" r="5" fill="black" stroke="none" />
<circle cx="500" cy="500" r="5" fill="red" stroke="none" />
</svg>