<?xml version="1.0" encoding="UTF-8"?>
<svg xmlns="http://www.w3.org/2000/svg" xmlns:xlink="http://www.w3.org/1999/xlink"
     width="1000" height="1000" viewBox="0 0 1000 1000">
<defs>
</defs>
<rect x="0" y="0" width="1000" height="1000" fill="white" />
<path d="M220.804328,725.369498 L332.2504143451448,635.4091187657906" stroke="grey" stroke-width="5" />
<circle cx="332.2504143451448" cy="635.4091187657906" r="2.5" fill="grey" stroke="none" />
<path d="M332.2504143451448,635.4091187657906 A215.5818937951506,215.5818937951506,0,0,0,340.80432800000005,645.369498" stroke="grey" stroke-width="5" fill="none" />
<circle cx="220.804328" cy="725.369498" r="5" fill="black" stroke="none" />
<circle cx="340.804328" cy="645.369498" r="5" fill="black" stroke="none" />
<path d="M340.804328,645.369498 L365.18515003072196,623.1061549398105" stroke="grey" stroke-width="5" />
<circle cx="365.18515003072196" cy="623.1061549398105" r="2.5" fill="grey" stroke="none" />
<path d="M365.18515003072196,623.1061549398105 A182.56552017372718,182.56552017372718,0,0,1,340.804328,589.369498" stroke="grey" stroke-width="5" fill="none" />
<circle cx="340.804328" cy="645.369498" r="5" fill="black" stroke="none" />
<circle cx="340.804328" cy="589.369498" r="5" fill="black" stroke="none" />
<path d="M340.804328,589.369498 A182.56552017372718,182.56552017372718,0,0,1,327.12852823431615,558.6994327559471" stroke="grey" stroke-width="5" fill="none" />
<path d="M327.12852823431615,558.6994327559472 L-263.195672,89.369498" stroke="grey" stroke-width="5" />
<circle cx="327.12852823431615" cy="558.6994327559472" r="2.5" fill="grey" stroke="none" />
<circle cx="340.804328" cy="589.369498" r="5" fill="black" stroke="none" />
<circle cx="236.804328" cy="589.369498" r="5" fill="black" stroke="none" />
<path d="M236.804328,589.369498 L288.2022302089905,571.9170654285762" stroke="grey" stroke-width="5" />
<circle cx="288.2022302089905" cy="571.9170654285762" r="2.5" fill="grey" stroke="none" />
<path d="M288.20223020899044,571.917065428576 A223.67467355135133,223.67467355135133,0,0,1,276.804328,485.3694979999999" stroke="grey" stroke-width="5" fill="none" />
<circle cx="236.804328" cy="589.369498" r="5" fill="black" stroke="none" />
<circle cx="276.804328" cy="485.369498" r="5" fill="black" stroke="none" />
<path d="M276.804328,485.369498 L349.0048610646487,490.102251256091" stroke="grey" stroke-width="5" />
<circle cx="349.0048610646487" cy="490.102251256091" r="2.5" fill="grey" stroke="none" />
<path d="M349.0048610646487,490.1022512560909 A151.31919049579795,151.31919049579795,0,0,1,388.804328,397.36949799999996" stroke="grey" stroke-width="5" fill="none" />
<circle cx="276.804328" cy="485.369498" r="5" fill="black" stroke="none" />
<circle cx="388.804328" cy="397.369498" r="5" fill="black" stroke="none" />
<path d="M388.804328,397.369498 L425.8703413088159,431.58039384334234" stroke="grey" stroke-width="5" />
<circle cx="425.8703413088159" cy="431.58039384334234" r="2.5" fill="grey" stroke="none" />
<path d="M425.8703413088159,431.58039384334234 A100.87838620984968,100.87838620984968,0,0,1,436.804328,421.369498" stroke="grey" stroke-width="5" fill="none" />
<circle cx="388.804328" cy="397.369498" r="5" fill="black" stroke="none" />
<circle cx="436.804328" cy="421.369498" r="5" fill="black" stroke="none" />
<path d="M436.804328,421.369498 A100.87838620984968,100.87838620984968,0,0,0,414.8475969634803,445.9119508448521" stroke="grey" stroke-width="5" fill="none" />
<path d="M414.8475969634803,445.9119508448521 L-111.195672,-70.630502" stroke="grey" stroke-width="5" />
<circle cx="414.8475969634803" cy="445.9119508448521" r="2.5" fill="grey" stroke="none" />
<circle cx="436.804328" cy="421.369498" r="5" fill="black" stroke="none" />
<circle cx="388.804328" cy="429.369498" r="5" fill="black" stroke="none" />
<path d="M388.804328,397.369498 L403.1983018757358,410.65473417935107" stroke="grey" stroke-width="5" />
<circle cx="403.1983018757358" cy="410.65473417935107" r="2.5" fill="grey" stroke="none" />
<path d="M403.1983018757358,410.65473417935107 A131.73133751808487,131.73133751808487,0,0,0,388.80432799999994,429.369498" stroke="grey" stroke-width="5" fill="none" />
<circle cx="388.804328" cy="397.369498" r="5" fill="black" stroke="none" />
<circle cx="388.804328" cy="429.369498" r="5" fill="black" stroke="none" />
<path d="M388.80432799999994,429.369498 A131.73133751808487,131.73133751808487,0,0,0,372.503278308709,533.1320274398818" stroke="grey" stroke-width="5" fill="none" />
<path d="M372.503278308709,533.1320274398818 L-159.195672,41.36949799999999" stroke="grey" stroke-width="5" />
<circle cx="372.503278308709" cy="533.1320274398818" r="2.5" fill="grey" stroke="none" />
<circle cx="388.804328" cy="429.369498" r="5" fill="black" stroke="none" />
<circle cx="340.804328" cy="541.369498" r="5" fill="black" stroke="none" />
<path d="M276.804328,485.369498 L335.86912047764656,489.2412019480667" stroke="grey" stroke-width="5" />
<circle cx="335.86912047764656" cy="489.2412019480667" r="2.5" fill="grey" stroke="none" />
<path d="M335.86912047764656,489.2412019480666 A164.48312177334057,164.48312177334057,0,0,0,340.80432800000005,541.369498" stroke="grey" stroke-width="5" fill="none" />
<circle cx="276.804328" cy="485.369498" r="5" fill="black" stroke="none" />
<circle cx="340.804328" cy="541.369498" r="5" fill="black" stroke="none" />
<path d="M340.80432800000005,541.369498 A164.48312177334057,164.48312177334057,0,0,0,356.5720346402352,580.5177999020198" stroke="grey" stroke-width="5" fill="none" />
<path d="M356.5720346402352,580.5177999020198 L-159.195672,89.369498" stroke="grey" stroke-width="5" />
<circle cx="356.5720346402352" cy="580.5177999020198" r="2.5" fill="grey" stroke="none" />
<circle cx="340.804328" cy="541.369498" r="5" fill="black" stroke="none" />
<circle cx="340.804328" cy="589.369498" r="5" fill="black" stroke="none" />
<path d="M436.804328,421.369498 A100.87838620984968,100.87838620984968,0,0,1,480.64194947417434,400.99639054992406" stroke="grey" stroke-width="5" fill="none" />
<path d="M480.64194947417434,400.99639054992406 L-23.195672000000002,-118.630502" stroke="grey" stroke-width="5" />
<circle cx="480.64194947417434" cy="400.99639054992406" r="2.5" fill="grey" stroke="none" />
<circle cx="436.804328" cy="421.369498" r="5" fill="black" stroke="none" />
<circle cx="476.804328" cy="381.369498" r="5" fill="black" stroke="none" />
<path d="M436.804328,421.369498 L486.7855310820196,483.5580461161297" stroke="grey" stroke-width="5" />
<circle cx="486.7855310820196" cy="483.5580461161297" r="2.5" fill="grey" stroke="none" />
<path d="M486.7855310820196,483.5580461161297 A21.09407585801256,21.09407585801256,0,0,0,484.804328,485.369498" stroke="grey" stroke-width="5" fill="none" />
<circle cx="436.804328" cy="421.369498" r="5" fill="black" stroke="none" />
<circle cx="484.804328" cy="485.369498" r="5" fill="black" stroke="none" />
<path d="M388.804328,429.369498 L445.24504008156566,465.2201363913796" stroke="grey" stroke-width="5" />
<circle cx="445.24504008156566" cy="465.2201363913796" r="2.5" fill="grey" stroke="none" />
<path d="M445.24504008156566,465.2201363913796 A64.86712995272404,64.86712995272404,0,0,0,436.804328,485.369498" stroke="grey" stroke-width="5" fill="none" />
<circle cx="388.804328" cy="429.369498" r="5" fill="black" stroke="none" />
<circle cx="436.804328" cy="485.369498" r="5" fill="black" stroke="none" />
<path d="M340.804328,541.369498 L385.17189414966145,529.8398884570139" stroke="grey" stroke-width="5" />
<circle cx="385.17189414966145" cy="529.8398884570139" r="2.5" fill="grey" stroke="none" />
<path d="M385.17189414966145,529.8398884570139 A118.64195226100921,118.64195226100921,0,0,0,388.804328,541.369498" stroke="grey" stroke-width="5" fill="none" />
<circle cx="340.804328" cy="541.369498" r="5" fill="black" stroke="none" />
<circle cx="388.804328" cy="541.369498" r="5" fill="black" stroke="none" />
<path d="M340.804328,589.369498 L404.5553072387822,553.5808805080723" stroke="grey" stroke-width="5" />
<circle cx="404.5553072387822" cy="553.5808805080723" r="2.5" fill="grey" stroke="none" />
<path d="M404.5553072387822,553.5808805080723 A109.45592780797021,109.45592780797021,0,0,0,436.804328,589.369498" stroke="grey" stroke-width="5" fill="none" />
<circle cx="340.804328" cy="589.369498" r="5" fill="black" stroke="none" />
<circle cx="436.804328" cy="589.369498" r="5" fill="black" stroke="none" />
<path d="M340.804328,645.369498 L382.947548857216,606.8864237860439" stroke="grey" stroke-width="5" />
<circle cx="382.947548857216" cy="606.8864237860439" r="2.5" fill="grey" stroke="none" />
<path d="M382.947548857216,606.8864237860439 A158.51177845290738,158.51177845290738,0,0,0,436.804328,645.369498" stroke="grey" stroke-width="5" fill="none" />
<circle cx="340.804328" cy="645.369498" r="5" fill="black" stroke="none" />
<circle cx="436.804328" cy="645.369498" r="5" fill="black" stroke="none" />
<path d="M484.804328,485.369498 A21.09407585801256,21.09407585801256,0,0,0,479.4494638496011,495.2423219702532" stroke="grey" stroke-width="5" fill="none" />
<path d="M479.4494638496011,495.2423219702532 L-63.195672,-14.630502000000007" stroke="grey" stroke-width="5" />
<circle cx="479.4494638496011" cy="495.2423219702532" r="2.5" fill="grey" stroke="none" />
<circle cx="484.804328" cy="485.369498" r="5" fill="black" stroke="none" />
<circle cx="436.804328" cy="485.369498" r="5" fill="black" stroke="none" />
<path d="M436.804328,485.369498 A64.86712995272404,64.86712995272404,0,0,0,439.20410134573484,522.6186483929503" stroke="grey" stroke-width="5" fill="none" />
<path d="M439.20410134573484,522.6186483929503 L-111.195672,41.36949799999999" stroke="grey" stroke-width="5" />
<circle cx="439.20410134573484" cy="522.6186483929503" r="2.5" fill="grey" stroke="none" />
<circle cx="436.804328" cy="485.369498" r="5" fill="black" stroke="none" />
<circle cx="388.804328" cy="541.369498" r="5" fill="black" stroke="none" />
<path d="M388.804328,541.369498 L397.41381345264114,538.1664048866811" stroke="grey" stroke-width="5" />
<circle cx="397.41381345264114" cy="538.1664048866811" r="2.5" fill="grey" stroke="none" />
<path d="M397.41381345264114,538.1664048866811 A109.45592780797021,109.45592780797021,0,0,0,436.804328,589.369498" stroke="grey" stroke-width="5" fill="none" />
<circle cx="388.804328" cy="541.369498" r="5" fill="black" stroke="none" />
<circle cx="436.804328" cy="589.369498" r="5" fill="black" stroke="none" />
<path d="M436.804328,589.369498 A109.45592780797021,109.45592780797021,0,0,0,456.3619752442359,600.3808892554698" stroke="grey" stroke-width="5" fill="none" />
<path d="M456.3619752442359,600.3808892554698 L-63.195672,145.369498" stroke="grey" stroke-width="5" />
<circle cx="456.3619752442359" cy="600.3808892554698" r="2.5" fill="grey" stroke="none" />
<circle cx="436.804328" cy="589.369498" r="5" fill="black" stroke="none" />
<circle cx="436.804328" cy="645.369498" r="5" fill="black" stroke="none" />
<path d="M436.804328,645.369498 A158.51177845290738,158.51177845290738,0,0,0,506.1877315584675,658.3909589795577" stroke="grey" stroke-width="5" fill="none" />
<path d="M506.1877315584675,658.3909589795577 L8.804327999999998,225.369498" stroke="grey" stroke-width="5" />
<circle cx="506.1877315584675" cy="658.3909589795577" r="2.5" fill="grey" stroke="none" />
<circle cx="436.804328" cy="645.369498" r="5" fill="black" stroke="none" />
<circle cx="508.804328" cy="725.369498" r="5" fill="black" stroke="none" />
<path d="M484.804328,485.369498 A21.09407585801256,21.09407585801256,0,0,0,479.48394695807247,504.9042434568856" stroke="grey" stroke-width="5" fill="none" />
<path d="M479.48394695807247,504.9042434568856 L-39.195672,9.369497999999993" stroke="grey" stroke-width="5" />
<circle cx="479.48394695807247" cy="504.9042434568856" r="2.5" fill="grey" stroke="none" />
<circle cx="484.804328" cy="485.369498" r="5" fill="black" stroke="none" />
<circle cx="460.804328" cy="509.369498" r="5" fill="black" stroke="none" />
<path d="M460.804328,509.369498 A40.29997762162639,40.29997762162639,0,0,0,466.28218428908644,522.072541765471" stroke="grey" stroke-width="5" fill="none" />
<path d="M466.28218428908644,522.072541765471 L-63.195672,41.36949799999999" stroke="grey" stroke-width="5" />
<circle cx="466.28218428908644" cy="522.072541765471" r="2.5" fill="grey" stroke="none" />
<circle cx="460.804328" cy="509.369498" r="5" fill="black" stroke="none" />
<circle cx="436.804328" cy="541.369498" r="5" fill="black" stroke="none" />
<path d="M436.804328,541.369498 A75.53229987431594,75.53229987431594,0,0,0,456.390535041307,561.6712484900388" stroke="grey" stroke-width="5" fill="none" />
<path d="M456.390535041307,561.6712484900388 L-63.195672,89.369498" stroke="grey" stroke-width="5" />
<circle cx="456.390535041307" cy="561.6712484900388" r="2.5" fill="grey" stroke="none" />
<circle cx="436.804328" cy="541.369498" r="5" fill="black" stroke="none" />
<circle cx="436.804328" cy="589.369498" r="5" fill="black" stroke="none" />
<path d="M436.804328,485.369498 L460.73844843698544,490.9105134815911" stroke="grey" stroke-width="5" />
<circle cx="460.73844843698544" cy="490.9105134815911" r="2.5" fill="grey" stroke="none" />
<path d="M460.73844843698544,490.9105134815911 A40.29997762162639,40.29997762162639,0,0,0,460.804328,509.369498" stroke="grey" stroke-width="5" fill="none" />
<circle cx="436.804328" cy="485.369498" r="5" fill="black" stroke="none" />
<circle cx="460.804328" cy="509.369498" r="5" fill="black" stroke="none" />
<path d="M388.804328,541.369498 L429.20830547568204,526.3375076778202" stroke="grey" stroke-width="5" />
<circle cx="429.20830547568204" cy="526.3375076778202" r="2.5" fill="grey" stroke="none" />
<path d="M429.20830547568204,526.3375076778202 A75.53229987431594,75.53229987431594,0,0,0,436.804328,541.369498" stroke="grey" stroke-width="5" fill="none" />
<circle cx="388.804328" cy="541.369498" r="5" fill="black" stroke="none" />
<circle cx="436.804328" cy="541.369498" r="5" fill="black" stroke="none" />
<path d="M484.804328,485.369498 A21.09407585801256,21.09407585801256,0,0,0,492.72693680769595,519.8005703984593" stroke="grey" stroke-width="5" fill="none" />
<path d="M492.72693680769595,519.8005703984593 L-15.195672000000002,41.36949799999999" stroke="grey" stroke-width="5" />
<circle cx="492.72693680769595" cy="519.8005703984593" r="2.5" fill="grey" stroke="none" />
<circle cx="484.804328" cy="485.369498" r="5" fill="black" stroke="none" />
<circle cx="484.804328" cy="541.369498" r="5" fill="black" stroke="none" />
<path d="M460.804328,509.369498 A40.29997762162639,40.29997762162639,0,0,0,486.1049004534042,537.8287510353406" stroke="grey" stroke-width="5" fill="none" />
<path d="M486.1049004534042,537.8287510353406 L-15.195672000000002,41.36949799999999" stroke="grey" stroke-width="5" />
<circle cx="486.1049004534042" cy="537.8287510353406" r="2.5" fill="grey" stroke="none" />
<circle cx="460.804328" cy="509.369498" r="5" fill="black" stroke="none" />
<circle cx="484.804328" cy="541.369498" r="5" fill="black" stroke="none" />
<path d="M436.804328,541.369498 L463.1262182482878,524.1385175938931" stroke="grey" stroke-width="5" />
<circle cx="463.1262182482878" cy="524.1385175938931" r="2.5" fill="grey" stroke="none" />
<path d="M463.1262182482878,524.1385175938931 A44.072029818282566,44.072029818282566,0,0,0,484.804328,541.369498" stroke="grey" stroke-width="5" fill="none" />
<circle cx="436.804328" cy="541.369498" r="5" fill="black" stroke="none" />
<circle cx="484.804328" cy="541.369498" r="5" fill="black" stroke="none" />
<path d="M436.804328,589.369498 L474.5544933330911,535.9843021714731" stroke="grey" stroke-width="5" />
<circle cx="474.5544933330911" cy="535.9843021714731" r="2.5" fill="grey" stroke="none" />
<path d="M474.5544933330911,535.9843021714731 A44.072029818282566,44.072029818282566,0,0,0,484.804328,541.369498" stroke="grey" stroke-width="5" fill="none" />
<circle cx="436.804328" cy="589.369498" r="5" fill="black" stroke="none" />
<circle cx="484.804328" cy="541.369498" r="5" fill="black" stroke="none" />
<path d="M484.804328,541.369498 A44.072029818282566,44.072029818282566,0,0,0,494.1450911355485,543.6813902536601" stroke="grey" stroke-width="5" fill="none" />
<path d="M494.1450911355485,543.6813902536601 L-15.195672000000002,113.369498" stroke="grey" stroke-width="5" />
<circle cx="494.1450911355485" cy="543.6813902536601" r="2.5" fill="grey" stroke="none" />
<circle cx="484.804328" cy="541.369498" r="5" fill="black" stroke="none" />
<circle cx="484.804328" cy="613.369498" r="5" fill="black" stroke="none" />
<path d="M484.804328,613.369498 A114.3833533531151,114.3833533531151,0,0,1,454.3975031299576,604.8997798068297" stroke="grey" stroke-width="5" fill="none" />
<path d="M454.3975031299576,604.8997798068297 L-63.195672,145.369498" stroke="grey" stroke-width="5" />
<circle cx="454.3975031299576" cy="604.8997798068297" r="2.5" fill="grey" stroke="none" />
<circle cx="484.804328" cy="613.369498" r="5" fill="black" stroke="none" />
<circle cx="436.804328" cy="645.369498" r="5" fill="black" stroke="none" />
<path d="M484.804328,485.369498 A21.09407585801256,21.09407585801256,0,0,1,512.641085089054,483.1132299099299" stroke="grey" stroke-width="5" fill="none" />
<path d="M512.641085089054,483.1132299099299 L88.804328,-118.630502" stroke="grey" stroke-width="5" />
<circle cx="512.641085089054" cy="483.1132299099299" r="2.5" fill="grey" stroke="none" />
<circle cx="484.804328" cy="485.369498" r="5" fill="black" stroke="none" />
<circle cx="588.8043279999999" cy="381.369498" r="5" fill="black" stroke="none" />
<path d="M484.804328,485.369498 A21.09407585801256,21.09407585801256,0,0,1,521.0216870241865,501.7460558297882" stroke="grey" stroke-width="5" fill="none" />
<path d="M521.0216870241865,501.7460558297882 L112.804328,9.369497999999993" stroke="grey" stroke-width="5" />
<circle cx="521.0216870241865" cy="501.7460558297882" r="2.5" fill="grey" stroke="none" />
<circle cx="484.804328" cy="485.369498" r="5" fill="black" stroke="none" />
<circle cx="612.8043279999999" cy="509.369498" r="5" fill="black" stroke="none" />
<path d="M612.804328,509.369498 A113.19277321588861,113.19277321588861,0,0,0,613.0697557494017,505.2758168158333" stroke="grey" stroke-width="5" fill="none" />
<path d="M613.0697557494017,505.2758168158333 L200.804328,9.369497999999993" stroke="grey" stroke-width="5" />
<circle cx="613.0697557494017" cy="505.2758168158333" r="2.5" fill="grey" stroke="none" />
<circle cx="612.8043279999999" cy="509.369498" r="5" fill="black" stroke="none" />
<circle cx="700.8043279999999" cy="509.369498" r="5" fill="black" stroke="none" />
<path d="M484.804328,541.369498 A44.072029818282566,44.072029818282566,0,0,0,514.0267390342157,541.7803112047959" stroke="grey" stroke-width="5" fill="none" />
<path d="M514.0267390342157,541.7803112047959 L48.804328,145.369498" stroke="grey" stroke-width="5" />
<circle cx="514.0267390342157" cy="541.7803112047959" r="2.5" fill="grey" stroke="none" />
<circle cx="484.804328" cy="541.369498" r="5" fill="black" stroke="none" />
<circle cx="548.8043279999999" cy="645.369498" r="5" fill="black" stroke="none" />
<circle cx="500" cy="500" r="5" fill="red" stroke="none" />
</svg>