<?xml version="1.0" encoding="UTF-8"?>
<svg xmlns="http://www.w3.org/2000/svg" xmlns:xlink="http://www.w3.org/1999/xlink"
     width="1000" height="1000" viewBox="0 0 1000 1000">
<defs>
</defs>
<rect x="0" y="0" width="1000" height="1000" fill="white" />
<path d="M292.625,651.65625 L408.78845014734196,566.7042874374547" stroke="grey" stroke-width="5" />
<circle cx="408.78845014734196" cy="566.7042874374547" r="2.5" fill="grey" stroke="none" />
<path d="M408.78845014734196,566.7042874374547 A113.00003888965038,113.00003888965038,0,0,0,412.625,571.65625" stroke="grey" stroke-width="5" fill="none" />
<circle cx="292.625" cy="651.65625" r="5" fill="black" stroke="none" />
<circle cx="412.625" cy="571.65625" r="5" fill="black" stroke="none" />
<path d="M412.625,571.65625 L431.36301976728754,556.289197308158" stroke="grey" stroke-width="5" />
<circle cx="431.36301976728754" cy="556.289197308158" r="2.5" fill="grey" stroke="none" />
<path d="M431.3630197672875,556.2891973081579 A88.76659725968153,88.76659725968153,0,0,1,412.625,515.65625" stroke="grey" stroke-width="5" fill="none" />
<circle cx="412.625" cy="571.65625" r="5" fill="black" stroke="none" />
<circle cx="412.625" cy="515.65625" r="5" fill="black" stroke="none" />
<path d="M412.625,515.65625 A88.76659725968153,88.76659725968153,0,0,1,411.52896661560624,507.2377510982334" stroke="grey" stroke-width="5" fill="none" />
<path d="M411.52896661560624,507.2377510982334 L308.625,515.65625" stroke="grey" stroke-width="5" />
<circle cx="411.52896661560624" cy="507.2377510982334" r="2.5" fill="grey" stroke="none" />
<circle cx="412.625" cy="515.65625" r="5" fill="black" stroke="none" />
<circle cx="308.625" cy="515.65625" r="5" fill="black" stroke="none" />
<path d="M308.625,515.65625 L325.315195961213,514.2908371690778" stroke="grey" stroke-width="5" />
<circle cx="325.315195961213" cy="514.2908371690778" r="2.5" fill="grey" stroke="none" />
<path d="M325.315195961213,514.2908371690778 A175.2683907299388,175.2683907299388,0,0,1,348.625,411.65625" stroke="grey" stroke-width="5" fill="none" />
<circle cx="308.625" cy="515.65625" r="5" fill="black" stroke="none" />
<circle cx="348.625" cy="411.65625" r="5" fill="black" stroke="none" />
<path d="M348.625,411.65625 A175.2683907299388,175.2683907299388,0,0,1,461.80564835921405,328.9438680087659" stroke="grey" stroke-width="5" fill="none" />
<path d="M461.80564835921405,328.9438680087659 L460.625,323.65625" stroke="grey" stroke-width="5" />
<circle cx="461.80564835921405" cy="328.9438680087659" r="2.5" fill="grey" stroke="none" />
<circle cx="348.625" cy="411.65625" r="5" fill="black" stroke="none" />
<circle cx="460.625" cy="323.65625" r="5" fill="black" stroke="none" />
<path d="M460.625,323.65625 L466.74820502024215,351.0794610549416" stroke="grey" stroke-width="5" />
<circle cx="466.74820502024215" cy="351.0794610549416" r="2.5" fill="grey" stroke="none" />
<path d="M466.74820502024215,351.0794610549416 A152.58770851239132,152.58770851239132,0,0,1,508.625,347.65625" stroke="grey" stroke-width="5" fill="none" />
<circle cx="460.625" cy="323.65625" r="5" fill="black" stroke="none" />
<circle cx="508.625" cy="347.65625" r="5" fill="black" stroke="none" />
<path d="M508.625,347.65625 L508.45713060524446,350.62133441823653" stroke="grey" stroke-width="5" />
<circle cx="508.45713060524446" cy="350.62133441823653" r="2.5" fill="grey" stroke="none" />
<path d="M508.45713060524446,350.62133441823653 A149.61787590078433,149.61787590078433,0,0,0,460.62500000000006,355.65625" stroke="grey" stroke-width="5" fill="none" />
<circle cx="508.625" cy="347.65625" r="5" fill="black" stroke="none" />
<circle cx="460.625" cy="355.65625" r="5" fill="black" stroke="none" />
<path d="M460.625,323.65625 L467.3953886373769,353.9779191116809" stroke="grey" stroke-width="5" />
<circle cx="467.3953886373769" cy="353.9779191116809" r="2.5" fill="grey" stroke="none" />
<path d="M467.3953886373769,353.9779191116809 A149.61787590078433,149.61787590078433,0,0,0,460.62500000000006,355.65625" stroke="grey" stroke-width="5" fill="none" />
<circle cx="460.625" cy="323.65625" r="5" fill="black" stroke="none" />
<circle cx="460.625" cy="355.65625" r="5" fill="black" stroke="none" />
<path d="M460.625,355.65625 L475.4806093768431,410.1150275489192" stroke="grey" stroke-width="5" />
<circle cx="475.4806093768431" cy="410.1150275489192" r="2.5" fill="grey" stroke="none" />
<path d="M475.4806093768431,410.1150275489192 A93.1692480868151,93.1692480868151,0,0,0,412.625,467.65625" stroke="grey" stroke-width="5" fill="none" />
<circle cx="460.625" cy="355.65625" r="5" fill="black" stroke="none" />
<circle cx="412.625" cy="467.65625" r="5" fill="black" stroke="none" />
<path d="M348.625,411.65625 L419.532011046573,453.03819059220933" stroke="grey" stroke-width="5" />
<circle cx="419.532011046573" cy="453.03819059220933" r="2.5" fill="grey" stroke="none" />
<path d="M419.532011046573,453.03819059220933 A93.1692480868151,93.1692480868151,0,0,0,412.625,467.65625" stroke="grey" stroke-width="5" fill="none" />
<circle cx="348.625" cy="411.65625" r="5" fill="black" stroke="none" />
<circle cx="412.625" cy="467.65625" r="5" fill="black" stroke="none" />
<path d="M412.625,467.65625 L416.75384748905935,469.18463238597155" stroke="grey" stroke-width="5" />
<circle cx="416.75384748905935" cy="469.18463238597155" r="2.5" fill="grey" stroke="none" />
<path d="M416.75384748905935,469.18463238597155 A88.76659725968153,88.76659725968153,0,0,0,412.625,515.65625" stroke="grey" stroke-width="5" fill="none" />
<circle cx="412.625" cy="467.65625" r="5" fill="black" stroke="none" />
<circle cx="412.625" cy="515.65625" r="5" fill="black" stroke="none" />
<path d="M508.625,347.65625 A152.58770851239132,152.58770851239132,0,0,1,537.398037569007,352.0662459914924" stroke="grey" stroke-width="5" fill="none" />
<path d="M537.398037569007,352.0662459914924 L548.625,307.65625" stroke="grey" stroke-width="5" />
<circle cx="537.398037569007" cy="352.0662459914924" r="2.5" fill="grey" stroke="none" />
<circle cx="508.625" cy="347.65625" r="5" fill="black" stroke="none" />
<circle cx="548.625" cy="307.65625" r="5" fill="black" stroke="none" />
<path d="M508.625,347.65625 L505.9313439291837,395.2344142943102" stroke="grey" stroke-width="5" />
<circle cx="505.9313439291837" cy="395.2344142943102" r="2.5" fill="grey" stroke="none" />
<path d="M505.93134392918364,395.2344142943102 A104.9333540351327,104.9333540351327,0,0,1,556.625,411.65625" stroke="grey" stroke-width="5" fill="none" />
<circle cx="508.625" cy="347.65625" r="5" fill="black" stroke="none" />
<circle cx="556.625" cy="411.65625" r="5" fill="black" stroke="none" />
<path d="M460.625,355.65625 L476.6399980647768,414.365199254924" stroke="grey" stroke-width="5" />
<circle cx="476.6399980647768" cy="414.365199254924" r="2.5" fill="grey" stroke="none" />
<path d="M476.6399980647769,414.365199254924 A88.763780840287,88.763780840287,0,0,1,508.625,411.65625" stroke="grey" stroke-width="5" fill="none" />
<circle cx="460.625" cy="355.65625" r="5" fill="black" stroke="none" />
<circle cx="508.625" cy="411.65625" r="5" fill="black" stroke="none" />
<path d="M412.625,467.65625 L452.2130297425541,482.310617233027" stroke="grey" stroke-width="5" />
<circle cx="452.2130297425541" cy="482.310617233027" r="2.5" fill="grey" stroke="none" />
<path d="M452.2130297425541,482.310617233027 A50.95594949623155,50.95594949623155,0,0,1,460.625,467.65625" stroke="grey" stroke-width="5" fill="none" />
<circle cx="412.625" cy="467.65625" r="5" fill="black" stroke="none" />
<circle cx="460.625" cy="467.65625" r="5" fill="black" stroke="none" />
<path d="M412.625,515.65625 L482.4054152607882,503.15267773760553" stroke="grey" stroke-width="5" />
<circle cx="482.4054152607882" cy="503.15267773760553" r="2.5" fill="grey" stroke="none" />
<path d="M482.4054152607882,503.15267773760553 A17.874808783942278,17.874808783942278,0,0,0,508.625,515.65625" stroke="grey" stroke-width="5" fill="none" />
<circle cx="412.625" cy="515.65625" r="5" fill="black" stroke="none" />
<circle cx="508.625" cy="515.65625" r="5" fill="black" stroke="none" />
<path d="M412.625,571.65625 L444.1933258755759,545.7670614332276" stroke="grey" stroke-width="5" />
<circle cx="444.1933258755759" cy="545.7670614332276" r="2.5" fill="grey" stroke="none" />
<path d="M444.19332587557585,545.7670614332276 A72.17346319155331,72.17346319155331,0,0,0,508.625,571.65625" stroke="grey" stroke-width="5" fill="none" />
<circle cx="412.625" cy="571.65625" r="5" fill="black" stroke="none" />
<circle cx="508.625" cy="571.65625" r="5" fill="black" stroke="none" />
<path d="M556.625,411.65625 L547.899441853335,425.26946902904086" stroke="grey" stroke-width="5" />
<circle cx="547.899441853335" cy="425.26946902904086" r="2.5" fill="grey" stroke="none" />
<path d="M547.899441853335,425.26946902904086 A88.763780840287,88.763780840287,0,0,0,508.625,411.65625" stroke="grey" stroke-width="5" fill="none" />
<circle cx="556.625" cy="411.65625" r="5" fill="black" stroke="none" />
<circle cx="508.625" cy="411.65625" r="5" fill="black" stroke="none" />
<path d="M508.625,411.65625 L504.9512882421692,449.2851744180712" stroke="grey" stroke-width="5" />
<circle cx="504.9512882421692" cy="449.2851744180712" r="2.5" fill="grey" stroke="none" />
<path d="M504.9512882421692,449.2851744180712 A50.95594949623155,50.95594949623155,0,0,0,460.625,467.65625" stroke="grey" stroke-width="5" fill="none" />
<circle cx="508.625" cy="411.65625" r="5" fill="black" stroke="none" />
<circle cx="460.625" cy="467.65625" r="5" fill="black" stroke="none" />
<path d="M460.625,467.65625 L486.1876659580295,488.65415417980995" stroke="grey" stroke-width="5" />
<circle cx="486.1876659580295" cy="488.65415417980995" r="2.5" fill="grey" stroke="none" />
<path d="M486.1876659580295,488.65415417980995 A17.874808783942278,17.874808783942278,0,0,0,508.625,515.65625" stroke="grey" stroke-width="5" fill="none" />
<circle cx="460.625" cy="467.65625" r="5" fill="black" stroke="none" />
<circle cx="508.625" cy="515.65625" r="5" fill="black" stroke="none" />
<path d="M508.625,515.65625 A17.874808783942278,17.874808783942278,0,0,1,502.1361068035813,517.7467134080143" stroke="grey" stroke-width="5" fill="none" />
<path d="M502.1361068035813,517.7467134080143 L508.625,571.65625" stroke="grey" stroke-width="5" />
<circle cx="502.1361068035813" cy="517.7467134080143" r="2.5" fill="grey" stroke="none" />
<circle cx="508.625" cy="515.65625" r="5" fill="black" stroke="none" />
<circle cx="508.625" cy="571.65625" r="5" fill="black" stroke="none" />
<path d="M508.625,571.65625 A72.17346319155331,72.17346319155331,0,0,0,533.8794381968384,563.7274858795568" stroke="grey" stroke-width="5" fill="none" />
<path d="M533.8794381968384,563.7274858795568 L580.625,651.65625" stroke="grey" stroke-width="5" />
<circle cx="533.8794381968384" cy="563.7274858795568" r="2.5" fill="grey" stroke="none" />
<circle cx="508.625" cy="571.65625" r="5" fill="black" stroke="none" />
<circle cx="580.625" cy="651.65625" r="5" fill="black" stroke="none" />
<path d="M556.625,411.65625 L538.9300116349706,439.2631661743588" stroke="grey" stroke-width="5" />
<circle cx="538.9300116349706" cy="439.2631661743588" r="2.5" fill="grey" stroke="none" />
<path d="M538.9300116349706,439.2631661743588 A72.14228156263496,72.14228156263496,0,0,0,532.625,435.65625" stroke="grey" stroke-width="5" fill="none" />
<circle cx="556.625" cy="411.65625" r="5" fill="black" stroke="none" />
<circle cx="532.625" cy="435.65625" r="5" fill="black" stroke="none" />
<path d="M532.625,435.65625 L515.1379923318516,470.14451512329265" stroke="grey" stroke-width="5" />
<circle cx="515.1379923318516" cy="470.14451512329265" r="2.5" fill="grey" stroke="none" />
<path d="M515.1379923318516,470.14451512329265 A33.474001688810674,33.474001688810674,0,0,0,508.625,467.65625" stroke="grey" stroke-width="5" fill="none" />
<circle cx="532.625" cy="435.65625" r="5" fill="black" stroke="none" />
<circle cx="508.625" cy="467.65625" r="5" fill="black" stroke="none" />
<path d="M508.625,467.65625 L504.6056706095297,482.7287352142637" stroke="grey" stroke-width="5" />
<circle cx="504.6056706095297" cy="482.7287352142637" r="2.5" fill="grey" stroke="none" />
<path d="M504.6056706095297,482.7287352142637 A17.874808783942278,17.874808783942278,0,0,1,508.625,515.65625" stroke="grey" stroke-width="5" fill="none" />
<circle cx="508.625" cy="467.65625" r="5" fill="black" stroke="none" />
<circle cx="508.625" cy="515.65625" r="5" fill="black" stroke="none" />
<path d="M508.625,411.65625 L507.009921981549,428.19909622522084" stroke="grey" stroke-width="5" />
<circle cx="507.009921981549" cy="428.19909622522084" r="2.5" fill="grey" stroke="none" />
<path d="M507.009921981549,428.19909622522084 A72.14228156263496,72.14228156263496,0,0,1,532.625,435.65625" stroke="grey" stroke-width="5" fill="none" />
<circle cx="508.625" cy="411.65625" r="5" fill="black" stroke="none" />
<circle cx="532.625" cy="435.65625" r="5" fill="black" stroke="none" />
<path d="M460.625,467.65625 L474.13376005103396,478.75273147049217" stroke="grey" stroke-width="5" />
<circle cx="474.13376005103396" cy="478.75273147049217" r="2.5" fill="grey" stroke="none" />
<path d="M474.13376005103396,478.75273147049217 A33.474001688810674,33.474001688810674,0,0,1,508.625,467.65625" stroke="grey" stroke-width="5" fill="none" />
<circle cx="460.625" cy="467.65625" r="5" fill="black" stroke="none" />
<circle cx="508.625" cy="467.65625" r="5" fill="black" stroke="none" />
<path d="M556.625,411.65625 L535.1898382264079,445.0984146434574" stroke="grey" stroke-width="5" />
<circle cx="535.1898382264079" cy="445.0984146434574" r="2.5" fill="grey" stroke="none" />
<path d="M535.1898382264079,445.0984146434574 A65.21126274703244,65.21126274703244,0,0,1,556.625,467.65625" stroke="grey" stroke-width="5" fill="none" />
<circle cx="556.625" cy="411.65625" r="5" fill="black" stroke="none" />
<circle cx="556.625" cy="467.65625" r="5" fill="black" stroke="none" />
<path d="M532.625,435.65625 L529.4905761370298,441.8380303964133" stroke="grey" stroke-width="5" />
<circle cx="529.4905761370298" cy="441.8380303964133" r="2.5" fill="grey" stroke="none" />
<path d="M529.4905761370298,441.8380303964133 A65.21126274703244,65.21126274703244,0,0,1,556.625,467.65625" stroke="grey" stroke-width="5" fill="none" />
<circle cx="532.625" cy="435.65625" r="5" fill="black" stroke="none" />
<circle cx="556.625" cy="467.65625" r="5" fill="black" stroke="none" />
<path d="M508.625,467.65625 A33.474001688810674,33.474001688810674,0,0,1,529.0665333836855,483.3974271235571" stroke="grey" stroke-width="5" fill="none" />
<path d="M529.0665333836855,483.3974271235571 L556.625,467.65625" stroke="grey" stroke-width="5" />
<circle cx="529.0665333836855" cy="483.3974271235571" r="2.5" fill="grey" stroke="none" />
<circle cx="508.625" cy="467.65625" r="5" fill="black" stroke="none" />
<circle cx="556.625" cy="467.65625" r="5" fill="black" stroke="none" />
<path d="M508.625,515.65625 A17.874808783942278,17.874808783942278,0,0,0,515.5212612783946,491.13437890555275" stroke="grey" stroke-width="5" fill="none" />
<path d="M515.5212612783946,491.13437890555275 L556.625,467.65625" stroke="grey" stroke-width="5" />
<circle cx="515.5212612783946" cy="491.13437890555275" r="2.5" fill="grey" stroke="none" />
<circle cx="508.625" cy="515.65625" r="5" fill="black" stroke="none" />
<circle cx="556.625" cy="467.65625" r="5" fill="black" stroke="none" />
<path d="M556.625,467.65625 A65.21126274703244,65.21126274703244,0,0,1,553.414837356922,537.4080731820828" stroke="grey" stroke-width="5" fill="none" />
<path d="M553.414837356922,537.4080731820828 L556.625,539.65625" stroke="grey" stroke-width="5" />
<circle cx="553.414837356922" cy="537.4080731820828" r="2.5" fill="grey" stroke="none" />
<circle cx="556.625" cy="467.65625" r="5" fill="black" stroke="none" />
<circle cx="556.625" cy="539.65625" r="5" fill="black" stroke="none" />
<path d="M556.625,539.65625 A69.13037529959243,69.13037529959243,0,0,1,508.26133956432847,568.6349696413232" stroke="grey" stroke-width="5" fill="none" />
<path d="M508.26133956432847,568.6349696413232 L508.625,571.65625" stroke="grey" stroke-width="5" />
<circle cx="508.26133956432847" cy="568.6349696413232" r="2.5" fill="grey" stroke="none" />
<circle cx="556.625" cy="539.65625" r="5" fill="black" stroke="none" />
<circle cx="508.625" cy="571.65625" r="5" fill="black" stroke="none" />
<path d="M556.625,411.65625 A104.9333540351327,104.9333540351327,0,0,1,567.2603225331676,419.45772661641115" stroke="grey" stroke-width="5" fill="none" />
<path d="M567.2603225331676,419.45772661641115 L660.625,307.65625" stroke="grey" stroke-width="5" />
<circle cx="567.2603225331676" cy="419.45772661641115" r="2.5" fill="grey" stroke="none" />
<circle cx="556.625" cy="411.65625" r="5" fill="black" stroke="none" />
<circle cx="660.625" cy="307.65625" r="5" fill="black" stroke="none" />
<path d="M556.625,411.65625 A104.9333540351327,104.9333540351327,0,0,1,599.0881556847222,465.4667378884829" stroke="grey" stroke-width="5" fill="none" />
<path d="M599.0881556847222,465.4667378884829 L684.625,435.65625" stroke="grey" stroke-width="5" />
<circle cx="599.0881556847222" cy="465.4667378884829" r="2.5" fill="grey" stroke="none" />
<circle cx="556.625" cy="411.65625" r="5" fill="black" stroke="none" />
<circle cx="684.625" cy="435.65625" r="5" fill="black" stroke="none" />
<path d="M684.625,435.65625 A195.51600647789044,195.51600647789044,0,0,1,690.2879846017188,455.08906920048844" stroke="grey" stroke-width="5" fill="none" />
<path d="M690.2879846017188,455.08906920048844 L772.625,435.65625" stroke="grey" stroke-width="5" />
<circle cx="690.2879846017188" cy="455.08906920048844" r="2.5" fill="grey" stroke="none" />
<circle cx="684.625" cy="435.65625" r="5" fill="black" stroke="none" />
<circle cx="772.625" cy="435.65625" r="5" fill="black" stroke="none" />
<path d="M556.625,467.65625 A65.21126274703244,65.21126274703244,0,0,1,556.0650391529064,533.3049571962731" stroke="grey" stroke-width="5" fill="none" />
<path d="M556.0650391529064,533.3049571962731 L620.625,571.65625" stroke="grey" stroke-width="5" />
<circle cx="556.0650391529064" cy="533.3049571962731" r="2.5" fill="grey" stroke="none" />
<circle cx="556.625" cy="467.65625" r="5" fill="black" stroke="none" />
<circle cx="620.625" cy="571.65625" r="5" fill="black" stroke="none" />
<circle cx="500" cy="500" r="5" fill="red" stroke="none" />
</svg>