<?xml version="1.0" encoding="UTF-8"?>
<svg xmlns="http://www.w3.org/2000/svg" xmlns:xlink="http://www.w3.org/1999/xlink"
     width="1000" height="1000" viewBox="0 0 1000 1000">
<defs>
</defs>
<rect x="0" y="0" width="1000" height="1000" fill="white" />
<path d="M237.667712,717.547792 L347.63983975837516,626.3497402551212" stroke="grey" stroke-width="5" />
<circle cx="347.63983975837516" cy="626.3497402551212" r="2.5" fill="grey" stroke="none" />
<path d="M347.63983975837516,626.3497402551212 A197.93401751945066,197.93401751945066,0,0,0,357.66771200000005,637.547792" stroke="grey" stroke-width="5" fill="none" />
<circle cx="237.667712" cy="717.547792" r="5" fill="black" stroke="none" />
<circle cx="357.667712" cy="637.547792" r="5" fill="black" stroke="none" />
<path d="M357.667712,637.547792 L382.041859491437,613.9929808152779" stroke="grey" stroke-width="5" />
<circle cx="382.041859491437" cy="613.9929808152779" r="2.5" fill="grey" stroke="none" />
<path d="M382.041859491437,613.9929808152779 A164.03817417720245,164.03817417720245,0,0,1,357.66771199999994,581.547792" stroke="grey" stroke-width="5" fill="none" />
<circle cx="357.667712" cy="637.547792" r="5" fill="black" stroke="none" />
<circle cx="357.667712" cy="581.547792" r="5" fill="black" stroke="none" />
<path d="M357.66771199999994,581.547792 A164.03817417720245,164.03817417720245,0,0,1,344.2732836659592,551.5530058018677" stroke="grey" stroke-width="5" fill="none" />
<path d="M344.2732836659592,551.5530058018677 L253.667712,581.547792" stroke="grey" stroke-width="5" />
<circle cx="344.2732836659592" cy="551.5530058018677" r="2.5" fill="grey" stroke="none" />
<circle cx="357.667712" cy="581.547792" r="5" fill="black" stroke="none" />
<circle cx="253.667712" cy="581.547792" r="5" fill="black" stroke="none" />
<path d="M253.667712,581.547792 L302.9658508737182,565.2277455801774" stroke="grey" stroke-width="5" />
<circle cx="302.9658508737182" cy="565.2277455801774" r="2.5" fill="grey" stroke="none" />
<path d="M302.9658508737182,565.2277455801774 A207.550270333214,207.550270333214,0,0,1,293.667712,477.54779199999996" stroke="grey" stroke-width="5" fill="none" />
<circle cx="253.667712" cy="581.547792" r="5" fill="black" stroke="none" />
<circle cx="293.667712" cy="477.54779199999996" r="5" fill="black" stroke="none" />
<path d="M293.667712,477.54779199999996 L355.5999572094229,484.2869973121078" stroke="grey" stroke-width="5" />
<circle cx="355.5999572094229" cy="484.2869973121078" r="2.5" fill="grey" stroke="none" />
<path d="M355.5999572094229,484.2869973121078 A145.25243822872721,145.25243822872721,0,0,1,405.66771199999994,389.547792" stroke="grey" stroke-width="5" fill="none" />
<circle cx="293.667712" cy="477.54779199999996" r="5" fill="black" stroke="none" />
<circle cx="405.667712" cy="389.54779199999996" r="5" fill="black" stroke="none" />
<path d="M405.667712,389.54779199999996 L436.29999194755385,425.4146518845121" stroke="grey" stroke-width="5" />
<circle cx="436.29999194755385" cy="425.4146518845121" r="2.5" fill="grey" stroke="none" />
<path d="M436.29999194755385,425.4146518845122 A98.08498957225927,98.08498957225927,0,0,1,453.667712,413.547792" stroke="grey" stroke-width="5" fill="none" />
<circle cx="405.667712" cy="389.54779199999996" r="5" fill="black" stroke="none" />
<circle cx="453.667712" cy="413.54779199999996" r="5" fill="black" stroke="none" />
<path d="M453.667712,413.547792 A98.08498957225927,98.08498957225927,0,0,0,424.58692763275985,437.28211024337946" stroke="grey" stroke-width="5" fill="none" />
<path d="M424.58692763275985,437.28211024337946 L405.667712,421.54779199999996" stroke="grey" stroke-width="5" />
<circle cx="424.58692763275985" cy="437.28211024337946" r="2.5" fill="grey" stroke="none" />
<circle cx="453.667712" cy="413.54779199999996" r="5" fill="black" stroke="none" />
<circle cx="405.667712" cy="421.54779199999996" r="5" fill="black" stroke="none" />
<path d="M405.667712,389.54779199999996 L420.31928528327677,406.7030911464781" stroke="grey" stroke-width="5" />
<circle cx="420.31928528327677" cy="406.7030911464781" r="2.5" fill="grey" stroke="none" />
<path d="M420.3192852832767,406.70309114647813 A122.69201073986117,122.69201073986117,0,0,0,405.667712,421.547792" stroke="grey" stroke-width="5" fill="none" />
<circle cx="405.667712" cy="389.54779199999996" r="5" fill="black" stroke="none" />
<circle cx="405.667712" cy="421.54779199999996" r="5" fill="black" stroke="none" />
<path d="M405.667712,421.547792 A122.69201073986117,122.69201073986117,0,0,0,380.58031909918384,528.1472789615168" stroke="grey" stroke-width="5" fill="none" />
<path d="M380.58031909918384,528.1472789615168 L357.667712,533.547792" stroke="grey" stroke-width="5" />
<circle cx="380.58031909918384" cy="528.1472789615168" r="2.5" fill="grey" stroke="none" />
<circle cx="405.667712" cy="421.54779199999996" r="5" fill="black" stroke="none" />
<circle cx="357.667712" cy="533.547792" r="5" fill="black" stroke="none" />
<path d="M293.667712,477.54779199999996 L354.6256791006854,484.18098048381955" stroke="grey" stroke-width="5" />
<circle cx="354.6256791006854" cy="484.18098048381955" r="2.5" fill="grey" stroke="none" />
<path d="M354.6256791006854,484.18098048381955 A146.2324675145373,146.2324675145373,0,0,0,357.667712,533.547792" stroke="grey" stroke-width="5" fill="none" />
<circle cx="293.667712" cy="477.54779199999996" r="5" fill="black" stroke="none" />
<circle cx="357.667712" cy="533.547792" r="5" fill="black" stroke="none" />
<path d="M357.667712,533.547792 A146.2324675145373,146.2324675145373,0,0,0,373.11732902643837,572.6960959199674" stroke="grey" stroke-width="5" fill="none" />
<path d="M373.11732902643837,572.6960959199674 L357.667712,581.547792" stroke="grey" stroke-width="5" />
<circle cx="373.11732902643837" cy="572.6960959199674" r="2.5" fill="grey" stroke="none" />
<circle cx="357.667712" cy="533.547792" r="5" fill="black" stroke="none" />
<circle cx="357.667712" cy="581.547792" r="5" fill="black" stroke="none" />
<path d="M453.667712,413.547792 A98.08498957225927,98.08498957225927,0,0,1,495.0943908586088,402.03776146727705" stroke="grey" stroke-width="5" fill="none" />
<path d="M495.0943908586088,402.03776146727705 L493.667712,373.54779199999996" stroke="grey" stroke-width="5" />
<circle cx="495.0943908586088" cy="402.03776146727705" r="2.5" fill="grey" stroke="none" />
<circle cx="453.667712" cy="413.54779199999996" r="5" fill="black" stroke="none" />
<circle cx="493.667712" cy="373.54779199999996" r="5" fill="black" stroke="none" />
<path d="M453.667712,413.54779199999996 L489.3650605815832,480.1560847876027" stroke="grey" stroke-width="5" />
<circle cx="489.3650605815832" cy="480.1560847876027" r="2.5" fill="grey" stroke="none" />
<path d="M489.3650605815832,480.1560847876027 A22.514060215567707,22.514060215567707,0,0,1,501.667712,477.54779199999996" stroke="grey" stroke-width="5" fill="none" />
<circle cx="453.667712" cy="413.54779199999996" r="5" fill="black" stroke="none" />
<circle cx="501.667712" cy="477.54779199999996" r="5" fill="black" stroke="none" />
<path d="M405.667712,421.54779199999996 L460.414955616498,467.0787786291823" stroke="grey" stroke-width="5" />
<circle cx="460.414955616498" cy="467.0787786291823" r="2.5" fill="grey" stroke="none" />
<path d="M460.414955616498,467.0787786291823 A51.485750993747864,51.485750993747864,0,0,0,453.667712,477.54779199999996" stroke="grey" stroke-width="5" fill="none" />
<circle cx="405.667712" cy="421.54779199999996" r="5" fill="black" stroke="none" />
<circle cx="453.667712" cy="477.54779199999996" r="5" fill="black" stroke="none" />
<path d="M357.667712,533.547792 L402.55020999380633,522.9689646074646" stroke="grey" stroke-width="5" />
<circle cx="402.55020999380633" cy="522.9689646074646" r="2.5" fill="grey" stroke="none" />
<path d="M402.55020999380633,522.9689646074646 A100.12010241400179,100.12010241400179,0,0,0,405.667712,533.547792" stroke="grey" stroke-width="5" fill="none" />
<circle cx="357.667712" cy="533.547792" r="5" fill="black" stroke="none" />
<circle cx="405.667712" cy="533.547792" r="5" fill="black" stroke="none" />
<path d="M357.667712,581.547792 L418.6197593977082,546.625955549493" stroke="grey" stroke-width="5" />
<circle cx="418.6197593977082" cy="546.625955549493" r="2.5" fill="grey" stroke="none" />
<path d="M418.6197593977082,546.625955549493 A93.7908486548139,93.7908486548139,0,0,0,453.667712,581.547792" stroke="grey" stroke-width="5" fill="none" />
<circle cx="357.667712" cy="581.547792" r="5" fill="black" stroke="none" />
<circle cx="453.667712" cy="581.547792" r="5" fill="black" stroke="none" />
<path d="M357.667712,637.547792 L395.6302088885654,600.8614034145158" stroke="grey" stroke-width="5" />
<circle cx="395.6302088885654" cy="600.8614034145158" r="2.5" fill="grey" stroke="none" />
<path d="M395.6302088885654,600.8614034145158 A145.14157225064844,145.14157225064844,0,0,0,453.667712,637.547792" stroke="grey" stroke-width="5" fill="none" />
<circle cx="357.667712" cy="637.547792" r="5" fill="black" stroke="none" />
<circle cx="453.667712" cy="637.547792" r="5" fill="black" stroke="none" />
<path d="M501.667712,477.54779199999996 A22.514060215567707,22.514060215567707,0,0,0,479.73948321966407,490.1819366887387" stroke="grey" stroke-width="5" fill="none" />
<path d="M479.73948321966407,490.1819366887387 L453.667712,477.54779199999996" stroke="grey" stroke-width="5" />
<circle cx="479.73948321966407" cy="490.1819366887387" r="2.5" fill="grey" stroke="none" />
<circle cx="501.667712" cy="477.54779199999996" r="5" fill="black" stroke="none" />
<circle cx="453.667712" cy="477.54779199999996" r="5" fill="black" stroke="none" />
<path d="M453.667712,477.54779199999996 A51.485750993747864,51.485750993747864,0,0,0,451.49057408515705,517.2516130492941" stroke="grey" stroke-width="5" fill="none" />
<path d="M451.49057408515705,517.2516130492941 L405.667712,533.547792" stroke="grey" stroke-width="5" />
<circle cx="451.49057408515705" cy="517.2516130492941" r="2.5" fill="grey" stroke="none" />
<circle cx="453.667712" cy="477.54779199999996" r="5" fill="black" stroke="none" />
<circle cx="405.667712" cy="533.547792" r="5" fill="black" stroke="none" />
<path d="M405.667712,533.547792 L411.6310797357615,531.427014219026" stroke="grey" stroke-width="5" />
<circle cx="411.6310797357615" cy="531.427014219026" r="2.5" fill="grey" stroke="none" />
<path d="M411.6310797357615,531.427014219026 A93.7908486548139,93.7908486548139,0,0,0,453.667712,581.547792" stroke="grey" stroke-width="5" fill="none" />
<circle cx="405.667712" cy="533.547792" r="5" fill="black" stroke="none" />
<circle cx="453.667712" cy="581.547792" r="5" fill="black" stroke="none" />
<path d="M453.667712,581.547792 A93.7908486548139,93.7908486548139,0,0,0,470.05995908508675,588.8837287775639" stroke="grey" stroke-width="5" fill="none" />
<path d="M470.05995908508675,588.8837287775639 L453.667712,637.547792" stroke="grey" stroke-width="5" />
<circle cx="470.05995908508675" cy="588.8837287775639" r="2.5" fill="grey" stroke="none" />
<circle cx="453.667712" cy="581.547792" r="5" fill="black" stroke="none" />
<circle cx="453.667712" cy="637.547792" r="5" fill="black" stroke="none" />
<path d="M453.667712,637.547792 A145.14157225064844,145.14157225064844,0,0,0,517.006787286056,644.1417537759169" stroke="grey" stroke-width="5" fill="none" />
<path d="M517.006787286056,644.1417537759169 L525.6677119999999,717.547792" stroke="grey" stroke-width="5" />
<circle cx="517.006787286056" cy="644.1417537759169" r="2.5" fill="grey" stroke="none" />
<circle cx="453.667712" cy="637.547792" r="5" fill="black" stroke="none" />
<circle cx="525.6677119999999" cy="717.547792" r="5" fill="black" stroke="none" />
<path d="M501.667712,477.54779199999996 L501.6582156980741,477.6756395816393" stroke="grey" stroke-width="5" />
<circle cx="501.6582156980741" cy="477.6756395816393" r="2.5" fill="grey" stroke="none" />
<path d="M501.6582156980741,477.6756395816393 A22.385860434439596,22.385860434439596,0,0,0,477.667712,501.54779199999996" stroke="grey" stroke-width="5" fill="none" />
<circle cx="501.667712" cy="477.54779199999996" r="5" fill="black" stroke="none" />
<circle cx="477.667712" cy="501.54779199999996" r="5" fill="black" stroke="none" />
<path d="M477.667712,501.54779199999996 A22.385860434439596,22.385860434439596,0,0,0,481.8681584500006,513.1287116426527" stroke="grey" stroke-width="5" fill="none" />
<path d="M481.8681584500006,513.1287116426527 L453.667712,533.547792" stroke="grey" stroke-width="5" />
<circle cx="481.8681584500006" cy="513.1287116426527" r="2.5" fill="grey" stroke="none" />
<circle cx="477.667712" cy="501.54779199999996" r="5" fill="black" stroke="none" />
<circle cx="453.667712" cy="533.547792" r="5" fill="black" stroke="none" />
<path d="M453.667712,533.547792 A57.202580880500555,57.202580880500555,0,0,0,471.7421636576415,549.7356003747686" stroke="grey" stroke-width="5" fill="none" />
<path d="M471.7421636576415,549.7356003747686 L453.667712,581.547792" stroke="grey" stroke-width="5" />
<circle cx="471.7421636576415" cy="549.7356003747686" r="2.5" fill="grey" stroke="none" />
<circle cx="453.667712" cy="533.547792" r="5" fill="black" stroke="none" />
<circle cx="453.667712" cy="581.547792" r="5" fill="black" stroke="none" />
<path d="M453.667712,477.54779199999996 L479.8548508517976,490.2378428005441" stroke="grey" stroke-width="5" />
<circle cx="479.8548508517976" cy="490.2378428005441" r="2.5" fill="grey" stroke="none" />
<path d="M479.8548508517976,490.2378428005441 A22.385860434439596,22.385860434439596,0,0,0,477.667712,501.54779199999996" stroke="grey" stroke-width="5" fill="none" />
<circle cx="453.667712" cy="477.54779199999996" r="5" fill="black" stroke="none" />
<circle cx="477.667712" cy="501.54779199999996" r="5" fill="black" stroke="none" />
<path d="M405.667712,533.547792 L446.1042267850494,519.1671826034193" stroke="grey" stroke-width="5" />
<circle cx="446.1042267850494" cy="519.1671826034193" r="2.5" fill="grey" stroke="none" />
<path d="M446.1042267850494,519.1671826034193 A57.202580880500555,57.202580880500555,0,0,0,453.667712,533.547792" stroke="grey" stroke-width="5" fill="none" />
<circle cx="405.667712" cy="533.547792" r="5" fill="black" stroke="none" />
<circle cx="453.667712" cy="533.547792" r="5" fill="black" stroke="none" />
<path d="M501.667712,477.54779199999996 A22.514060215567707,22.514060215567707,0,0,1,501.11782797778966,522.486292891499" stroke="grey" stroke-width="5" fill="none" />
<path d="M501.11782797778966,522.486292891499 L501.667712,533.547792" stroke="grey" stroke-width="5" />
<circle cx="501.11782797778966" cy="522.486292891499" r="2.5" fill="grey" stroke="none" />
<circle cx="501.667712" cy="477.54779199999996" r="5" fill="black" stroke="none" />
<circle cx="501.667712" cy="533.547792" r="5" fill="black" stroke="none" />
<path d="M477.667712,501.54779199999996 A22.385860434439596,22.385860434439596,0,0,0,501.11146283082286,522.3582512233382" stroke="grey" stroke-width="5" fill="none" />
<path d="M501.11146283082286,522.3582512233382 L501.667712,533.547792" stroke="grey" stroke-width="5" />
<circle cx="501.11146283082286" cy="522.3582512233382" r="2.5" fill="grey" stroke="none" />
<circle cx="477.667712" cy="501.54779199999996" r="5" fill="black" stroke="none" />
<circle cx="501.667712" cy="533.547792" r="5" fill="black" stroke="none" />
<path d="M453.667712,533.547792 L472.7937913023631,519.699183223952" stroke="grey" stroke-width="5" />
<circle cx="472.7937913023631" cy="519.699183223952" r="2.5" fill="grey" stroke="none" />
<path d="M472.7937913023631,519.699183223952 A33.589218677876495,33.589218677876495,0,0,0,501.667712,533.547792" stroke="grey" stroke-width="5" fill="none" />
<circle cx="453.667712" cy="533.547792" r="5" fill="black" stroke="none" />
<circle cx="501.667712" cy="533.547792" r="5" fill="black" stroke="none" />
<path d="M453.667712,581.547792 L483.4070660858822,529.2046255841763" stroke="grey" stroke-width="5" />
<circle cx="483.4070660858822" cy="529.2046255841763" r="2.5" fill="grey" stroke="none" />
<path d="M483.4070660858822,529.2046255841763 A33.589218677876495,33.589218677876495,0,0,0,501.667712,533.547792" stroke="grey" stroke-width="5" fill="none" />
<circle cx="453.667712" cy="581.547792" r="5" fill="black" stroke="none" />
<circle cx="501.667712" cy="533.547792" r="5" fill="black" stroke="none" />
<path d="M501.667712,533.547792 A33.589218677876495,33.589218677876495,0,0,1,500.53066152091486,533.5850265704886" stroke="grey" stroke-width="5" fill="none" />
<path d="M500.53066152091486,533.5850265704886 L501.667712,605.547792" stroke="grey" stroke-width="5" />
<circle cx="500.53066152091486" cy="533.5850265704886" r="2.5" fill="grey" stroke="none" />
<circle cx="501.667712" cy="533.547792" r="5" fill="black" stroke="none" />
<circle cx="501.667712" cy="605.547792" r="5" fill="black" stroke="none" />
<path d="M501.66771200000005,605.547792 A105.56096655198931,105.56096655198931,0,0,1,466.3026862117839,600.0380362804503" stroke="grey" stroke-width="5" fill="none" />
<path d="M466.3026862117839,600.0380362804503 L453.667712,637.547792" stroke="grey" stroke-width="5" />
<circle cx="466.3026862117839" cy="600.0380362804503" r="2.5" fill="grey" stroke="none" />
<circle cx="501.667712" cy="605.547792" r="5" fill="black" stroke="none" />
<circle cx="453.667712" cy="637.547792" r="5" fill="black" stroke="none" />
<path d="M501.667712,477.54779199999996 A22.514060215567707,22.514060215567707,0,0,1,514.4365897908522,482.72377985203735" stroke="grey" stroke-width="5" fill="none" />
<path d="M514.4365897908522,482.72377985203735 L605.6677119999999,373.54779199999996" stroke="grey" stroke-width="5" />
<circle cx="514.4365897908522" cy="482.72377985203735" r="2.5" fill="grey" stroke="none" />
<circle cx="501.667712" cy="477.54779199999996" r="5" fill="black" stroke="none" />
<circle cx="605.6677119999999" cy="373.54779199999996" r="5" fill="black" stroke="none" />
<path d="M501.667712,477.54779199999996 A22.514060215567707,22.514060215567707,0,0,1,522.5124564572534,500.2687222552742" stroke="grey" stroke-width="5" fill="none" />
<path d="M522.5124564572534,500.2687222552742 L629.6677119999999,501.54779199999996" stroke="grey" stroke-width="5" />
<circle cx="522.5124564572534" cy="500.2687222552742" r="2.5" fill="grey" stroke="none" />
<circle cx="501.667712" cy="477.54779199999996" r="5" fill="black" stroke="none" />
<circle cx="629.6677119999999" cy="501.54779199999996" r="5" fill="black" stroke="none" />
<path d="M629.6677119999999,501.54779199999996 A129.6769493602861,129.6769493602861,0,0,0,629.6736710240724,500.92208379817805" stroke="grey" stroke-width="5" fill="none" />
<path d="M629.6736710240724,500.92208379817805 L717.6677119999999,501.54779199999996" stroke="grey" stroke-width="5" />
<circle cx="629.6736710240724" cy="500.92208379817805" r="2.5" fill="grey" stroke="none" />
<circle cx="629.6677119999999" cy="501.54779199999996" r="5" fill="black" stroke="none" />
<circle cx="717.6677119999999" cy="501.54779199999996" r="5" fill="black" stroke="none" />
<path d="M501.667712,533.547792 A33.589218677876495,33.589218677876495,0,0,0,514.4714423704152,530.3119278025988" stroke="grey" stroke-width="5" fill="none" />
<path d="M514.4714423704152,530.3119278025988 L565.6677119999999,637.547792" stroke="grey" stroke-width="5" />
<circle cx="514.4714423704152" cy="530.3119278025988" r="2.5" fill="grey" stroke="none" />
<circle cx="501.667712" cy="533.547792" r="5" fill="black" stroke="none" />
<circle cx="565.6677119999999" cy="637.547792" r="5" fill="black" stroke="none" />
<circle cx="500" cy="500" r="5" fill="red" stroke="none" />
</svg>