<?xml version="1.0" encoding="UTF-8"?>
<svg xmlns="http://www.w3.org/2000/svg" xmlns:xlink="http://www.w3.org/1999/xlink"
     width="1000" height="1000" viewBox="0 0 1000 1000">
<defs>
</defs>
<rect x="0" y="0" width="1000" height="1000" fill="white" />
<path d="M275.693,669.4892500000001 L390.34842507276056,582.8541382825173" stroke="grey" stroke-width="5" />
<circle cx="390.34842507276056" cy="582.8541382825173" r="2.5" fill="grey" stroke="none" />
<path d="M390.34842507276056,582.8541382825173 A137.4346248751111,137.4346248751111,0,0,0,395.693,589.4892500000001" stroke="grey" stroke-width="5" fill="none" />
<circle cx="275.693" cy="669.4892500000001" r="5" fill="black" stroke="none" />
<circle cx="395.693" cy="589.4892500000001" r="5" fill="black" stroke="none" />
<path d="M395.693,589.4892500000001 L416.85527556346045,571.3332665236522" stroke="grey" stroke-width="5" />
<circle cx="416.85527556346045" cy="571.3332665236522" r="2.5" fill="grey" stroke="none" />
<path d="M416.85527556346045,571.3332665236522 A109.5512670605069,109.5512670605069,0,0,1,395.693,533.4892500000001" stroke="grey" stroke-width="5" fill="none" />
<circle cx="395.693" cy="589.4892500000001" r="5" fill="black" stroke="none" />
<circle cx="395.693" cy="533.4892500000001" r="5" fill="black" stroke="none" />
<path d="M395.693,533.4892500000001 A109.5512670605069,109.5512670605069,0,0,1,391.8376294102836,517.3891259980301" stroke="grey" stroke-width="5" fill="none" />
<path d="M391.8376294102836,517.3891259980301 L-208.30700000000002,33.48925000000003" stroke="grey" stroke-width="5" />
<circle cx="391.8376294102836" cy="517.3891259980301" r="2.5" fill="grey" stroke="none" />
<circle cx="395.693" cy="533.4892500000001" r="5" fill="black" stroke="none" />
<circle cx="291.693" cy="533.4892500000001" r="5" fill="black" stroke="none" />
<path d="M291.693,533.4892500000001 L319.8333236574335,528.965166152387" stroke="grey" stroke-width="5" />
<circle cx="319.8333236574335" cy="528.965166152387" r="2.5" fill="grey" stroke="none" />
<path d="M319.8333236574335,528.965166152387 A182.48016909944627,182.48016909944627,0,0,1,331.693,429.48924999999997" stroke="grey" stroke-width="5" fill="none" />
<circle cx="291.693" cy="533.4892500000001" r="5" fill="black" stroke="none" />
<circle cx="331.693" cy="429.48925" r="5" fill="black" stroke="none" />
<path d="M331.693,429.48925 L344.8506100780546,435.00151600682796" stroke="grey" stroke-width="5" />
<circle cx="344.8506100780546" cy="435.00151600682796" r="2.5" fill="grey" stroke="none" />
<path d="M344.8506100780546,435.00151600682796 A168.21455381316594,168.21455381316594,0,0,1,443.69300000000004,341.48924999999997" stroke="grey" stroke-width="5" fill="none" />
<circle cx="331.693" cy="429.48925" r="5" fill="black" stroke="none" />
<circle cx="443.693" cy="341.48925" r="5" fill="black" stroke="none" />
<path d="M443.693,341.48925 L454.88900278743205,373.00729924499524" stroke="grey" stroke-width="5" />
<circle cx="454.88900278743205" cy="373.00729924499524" r="2.5" fill="grey" stroke="none" />
<path d="M454.8890027874321,373.00729924499524 A134.76701419324573,134.76701419324573,0,0,1,491.69300000000004,365.48925" stroke="grey" stroke-width="5" fill="none" />
<circle cx="443.693" cy="341.48925" r="5" fill="black" stroke="none" />
<circle cx="491.693" cy="365.48925" r="5" fill="black" stroke="none" />
<path d="M491.69300000000004,365.48925 A134.76701419324573,134.76701419324573,0,0,0,445.20092412594715,376.87725881092354" stroke="grey" stroke-width="5" fill="none" />
<path d="M445.20092412594715,376.87725881092354 L-56.307000000000016,-126.51074999999997" stroke="grey" stroke-width="5" />
<circle cx="445.20092412594715" cy="376.87725881092354" r="2.5" fill="grey" stroke="none" />
<circle cx="491.693" cy="365.48925" r="5" fill="black" stroke="none" />
<circle cx="443.693" cy="373.48925" r="5" fill="black" stroke="none" />
<path d="M443.693,341.48925 L453.6476686963479,369.51279948868944" stroke="grey" stroke-width="5" />
<circle cx="453.6476686963479" cy="369.51279948868944" r="2.5" fill="grey" stroke="none" />
<path d="M453.647668696348,369.5127994886894 A138.47544227971434,138.47544227971434,0,0,0,443.693,373.48925" stroke="grey" stroke-width="5" fill="none" />
<circle cx="443.693" cy="341.48925" r="5" fill="black" stroke="none" />
<circle cx="443.693" cy="373.48925" r="5" fill="black" stroke="none" />
<path d="M443.693,373.48925 L457.17814975071775,403.78772814349225" stroke="grey" stroke-width="5" />
<circle cx="457.17814975071775" cy="403.78772814349225" r="2.5" fill="grey" stroke="none" />
<path d="M457.17814975071775,403.78772814349225 A105.31150039080491,105.31150039080491,0,0,0,395.693,485.4892500000001" stroke="grey" stroke-width="5" fill="none" />
<circle cx="443.693" cy="373.48925" r="5" fill="black" stroke="none" />
<circle cx="395.693" cy="485.48925" r="5" fill="black" stroke="none" />
<path d="M331.693,429.48925 L402.8680059660851,459.3073980979587" stroke="grey" stroke-width="5" />
<circle cx="402.8680059660851" cy="459.3073980979587" r="2.5" fill="grey" stroke="none" />
<path d="M402.8680059660851,459.3073980979587 A105.31150039080491,105.31150039080491,0,0,0,395.693,485.4892500000001" stroke="grey" stroke-width="5" fill="none" />
<circle cx="331.693" cy="429.48925" r="5" fill="black" stroke="none" />
<circle cx="395.693" cy="485.48925" r="5" fill="black" stroke="none" />
<path d="M395.693,485.4892500000001 A105.31150039080491,105.31150039080491,0,0,0,399.72980718519074,532.1931754793384" stroke="grey" stroke-width="5" fill="none" />
<path d="M399.72980718519074,532.1931754793384 L-104.30700000000002,33.48925000000003" stroke="grey" stroke-width="5" />
<circle cx="399.72980718519074" cy="532.1931754793384" r="2.5" fill="grey" stroke="none" />
<circle cx="395.693" cy="485.48925" r="5" fill="black" stroke="none" />
<circle cx="395.693" cy="533.4892500000001" r="5" fill="black" stroke="none" />
<path d="M491.69300000000004,365.48925 A134.76701419324573,134.76701419324573,0,0,1,524.0812102742752,367.40194787898037" stroke="grey" stroke-width="5" fill="none" />
<path d="M524.0812102742752,367.40194787898037 L31.692999999999984,-174.51074999999997" stroke="grey" stroke-width="5" />
<circle cx="524.0812102742752" cy="367.40194787898037" r="2.5" fill="grey" stroke="none" />
<circle cx="491.693" cy="365.48925" r="5" fill="black" stroke="none" />
<circle cx="531.693" cy="325.48925" r="5" fill="black" stroke="none" />
<path d="M491.693,365.48925 L495.01239871462116,419.2384748287863" stroke="grey" stroke-width="5" />
<circle cx="495.01239871462116" cy="419.2384748287863" r="2.5" fill="grey" stroke="none" />
<path d="M495.01239871462116,419.2384748287863 A80.91538861404854,80.91538861404854,0,0,1,539.693,429.48925" stroke="grey" stroke-width="5" fill="none" />
<circle cx="491.693" cy="365.48925" r="5" fill="black" stroke="none" />
<circle cx="539.693" cy="429.48925" r="5" fill="black" stroke="none" />
<path d="M443.693,373.48925 L471.13057326144326,435.1360784846491" stroke="grey" stroke-width="5" />
<circle cx="471.13057326144326" cy="435.1360784846491" r="2.5" fill="grey" stroke="none" />
<path d="M471.13057326144326,435.1360784846491 A70.99839515483781,70.99839515483781,0,0,1,491.693,429.48925" stroke="grey" stroke-width="5" fill="none" />
<circle cx="443.693" cy="373.48925" r="5" fill="black" stroke="none" />
<circle cx="491.693" cy="429.48925" r="5" fill="black" stroke="none" />
<path d="M395.693,485.48925 L442.4079130539513,491.9880317174075" stroke="grey" stroke-width="5" />
<circle cx="442.4079130539513" cy="491.9880317174075" r="2.5" fill="grey" stroke="none" />
<path d="M442.4079130539513,491.9880317174075 A58.14671198410536,58.14671198410536,0,0,1,443.693,485.48925" stroke="grey" stroke-width="5" fill="none" />
<circle cx="395.693" cy="485.48925" r="5" fill="black" stroke="none" />
<circle cx="443.693" cy="485.48925" r="5" fill="black" stroke="none" />
<path d="M395.693,533.4892500000001 L467.1475822350544,510.5477372720403" stroke="grey" stroke-width="5" />
<circle cx="467.1475822350544" cy="510.5477372720403" r="2.5" fill="grey" stroke="none" />
<path d="M467.1475822350544,510.5477372720403 A34.50414633870112,34.50414633870112,0,0,0,491.693,533.48925" stroke="grey" stroke-width="5" fill="none" />
<circle cx="395.693" cy="533.4892500000001" r="5" fill="black" stroke="none" />
<circle cx="491.693" cy="533.4892500000001" r="5" fill="black" stroke="none" />
<path d="M395.693,589.4892500000001 L431.78949523257114,558.5205874366882" stroke="grey" stroke-width="5" />
<circle cx="431.78949523257114" cy="558.5205874366882" r="2.5" fill="grey" stroke="none" />
<path d="M431.78949523257114,558.5205874366882 A89.87397907382595,89.87397907382595,0,0,0,491.693,589.4892500000001" stroke="grey" stroke-width="5" fill="none" />
<circle cx="395.693" cy="589.4892500000001" r="5" fill="black" stroke="none" />
<circle cx="491.693" cy="589.4892500000001" r="5" fill="black" stroke="none" />
<path d="M539.693,429.48925 L534.8282242370852,438.13105050953425" stroke="grey" stroke-width="5" />
<circle cx="534.8282242370852" cy="438.13105050953425" r="2.5" fill="grey" stroke="none" />
<path d="M534.8282242370852,438.13105050953425 A70.99839515483781,70.99839515483781,0,0,0,491.693,429.48925" stroke="grey" stroke-width="5" fill="none" />
<circle cx="539.693" cy="429.48925" r="5" fill="black" stroke="none" />
<circle cx="491.693" cy="429.48925" r="5" fill="black" stroke="none" />
<path d="M491.693,429.48925 L493.19668091935665,442.25266271030796" stroke="grey" stroke-width="5" />
<circle cx="493.19668091935665" cy="442.25266271030796" r="2.5" fill="grey" stroke="none" />
<path d="M493.19668091935665,442.25266271030796 A58.14671198410536,58.14671198410536,0,0,0,443.693,485.48925" stroke="grey" stroke-width="5" fill="none" />
<circle cx="491.693" cy="429.48925" r="5" fill="black" stroke="none" />
<circle cx="443.693" cy="485.48925" r="5" fill="black" stroke="none" />
<path d="M443.693,485.48925 L466.58753519159734,491.38934903797883" stroke="grey" stroke-width="5" />
<circle cx="466.58753519159734" cy="491.38934903797883" r="2.5" fill="grey" stroke="none" />
<path d="M466.58753519159734,491.38934903797883 A34.50414633870112,34.50414633870112,0,0,0,491.693,533.48925" stroke="grey" stroke-width="5" fill="none" />
<circle cx="443.693" cy="485.48925" r="5" fill="black" stroke="none" />
<circle cx="491.693" cy="533.4892500000001" r="5" fill="black" stroke="none" />
<path d="M491.693,533.48925 A34.50414633870112,34.50414633870112,0,0,0,496.8108016737509,534.3564423157922" stroke="grey" stroke-width="5" fill="none" />
<path d="M496.8108016737509,534.3564423157922 L-8.307000000000016,89.48925000000003" stroke="grey" stroke-width="5" />
<circle cx="496.8108016737509" cy="534.3564423157922" r="2.5" fill="grey" stroke="none" />
<circle cx="491.693" cy="533.4892500000001" r="5" fill="black" stroke="none" />
<circle cx="491.693" cy="589.4892500000001" r="5" fill="black" stroke="none" />
<path d="M491.693,589.4892500000001 A89.87397907382595,89.87397907382595,0,0,0,531.6153978580187,584.1296543012135" stroke="grey" stroke-width="5" fill="none" />
<path d="M531.6153978580187,584.1296543012135 L63.692999999999984,169.48925000000003" stroke="grey" stroke-width="5" />
<circle cx="531.6153978580187" cy="584.1296543012135" r="2.5" fill="grey" stroke="none" />
<circle cx="491.693" cy="589.4892500000001" r="5" fill="black" stroke="none" />
<circle cx="563.693" cy="669.4892500000001" r="5" fill="black" stroke="none" />
<path d="M539.693,429.48925 L524.0795339992161,457.2250522274651" stroke="grey" stroke-width="5" />
<circle cx="524.0795339992161" cy="457.2250522274651" r="2.5" fill="grey" stroke="none" />
<path d="M524.0795339992161,457.2250522274651 A49.08686295295817,49.08686295295817,0,0,0,515.693,453.48925" stroke="grey" stroke-width="5" fill="none" />
<circle cx="539.693" cy="429.48925" r="5" fill="black" stroke="none" />
<circle cx="515.693" cy="453.48925" r="5" fill="black" stroke="none" />
<path d="M515.693,453.48925 L505.345453001186,484.1572020534689" stroke="grey" stroke-width="5" />
<circle cx="505.345453001186" cy="484.1572020534689" r="2.5" fill="grey" stroke="none" />
<path d="M505.345453001186,484.1572020534689 A16.720290504728066,16.720290504728066,0,0,0,491.693,485.48925" stroke="grey" stroke-width="5" fill="none" />
<circle cx="515.693" cy="453.48925" r="5" fill="black" stroke="none" />
<circle cx="491.693" cy="485.48925" r="5" fill="black" stroke="none" />
<path d="M491.693,485.48925 A16.720290504728066,16.720290504728066,0,0,0,495.97452863028855,516.2284840577959" stroke="grey" stroke-width="5" fill="none" />
<path d="M495.97452863028855,516.2284840577959 L-8.307000000000016,33.48925000000003" stroke="grey" stroke-width="5" />
<circle cx="495.97452863028855" cy="516.2284840577959" r="2.5" fill="grey" stroke="none" />
<circle cx="491.693" cy="485.48925" r="5" fill="black" stroke="none" />
<circle cx="491.693" cy="533.4892500000001" r="5" fill="black" stroke="none" />
<path d="M491.693,429.48925 L494.25670721625545,451.25028510275484" stroke="grey" stroke-width="5" />
<circle cx="494.25670721625545" cy="451.25028510275484" r="2.5" fill="grey" stroke="none" />
<path d="M494.25670721625545,451.25028510275484 A49.08686295295817,49.08686295295817,0,0,1,515.693,453.48925" stroke="grey" stroke-width="5" fill="none" />
<circle cx="491.693" cy="429.48925" r="5" fill="black" stroke="none" />
<circle cx="515.693" cy="453.48925" r="5" fill="black" stroke="none" />
<path d="M443.693,485.48925 L483.80872511403436,495.8273830598056" stroke="grey" stroke-width="5" />
<circle cx="483.80872511403436" cy="495.8273830598056" r="2.5" fill="grey" stroke="none" />
<path d="M483.80872511403436,495.8273830598056 A16.720290504728066,16.720290504728066,0,0,1,491.693,485.48925" stroke="grey" stroke-width="5" fill="none" />
<circle cx="443.693" cy="485.48925" r="5" fill="black" stroke="none" />
<circle cx="491.693" cy="485.48925" r="5" fill="black" stroke="none" />
<path d="M539.693,429.48925 L520.7317141795445,463.17212819425794" stroke="grey" stroke-width="5" />
<circle cx="520.7317141795445" cy="463.17212819425794" r="2.5" fill="grey" stroke="none" />
<path d="M520.7317141795445,463.17212819425794 A42.262230354803776,42.262230354803776,0,0,1,539.693,485.48925" stroke="grey" stroke-width="5" fill="none" />
<circle cx="539.693" cy="429.48925" r="5" fill="black" stroke="none" />
<circle cx="539.693" cy="485.48925" r="5" fill="black" stroke="none" />
<path d="M515.693,453.48925 L513.5111747025579,459.9557210987705" stroke="grey" stroke-width="5" />
<circle cx="513.5111747025579" cy="459.9557210987705" r="2.5" fill="grey" stroke="none" />
<path d="M513.5111747025579,459.9557210987705 A42.262230354803776,42.262230354803776,0,0,1,539.693,485.48925" stroke="grey" stroke-width="5" fill="none" />
<circle cx="515.693" cy="453.48925" r="5" fill="black" stroke="none" />
<circle cx="539.693" cy="485.48925" r="5" fill="black" stroke="none" />
<path d="M491.693,485.48925 A16.720290504728066,16.720290504728066,0,0,1,515.7038207740669,494.25908302982157" stroke="grey" stroke-width="5" fill="none" />
<path d="M515.7038207740669,494.25908302982157 L39.692999999999984,-14.510749999999973" stroke="grey" stroke-width="5" />
<circle cx="515.7038207740669" cy="494.25908302982157" r="2.5" fill="grey" stroke="none" />
<circle cx="491.693" cy="485.48925" r="5" fill="black" stroke="none" />
<circle cx="539.693" cy="485.48925" r="5" fill="black" stroke="none" />
<path d="M491.693,533.48925 A34.50414633870112,34.50414633870112,0,0,0,532.4065499885854,488.15299057146433" stroke="grey" stroke-width="5" fill="none" />
<path d="M532.4065499885854,488.15299057146433 L39.692999999999984,-14.510749999999973" stroke="grey" stroke-width="5" />
<circle cx="532.4065499885854" cy="488.15299057146433" r="2.5" fill="grey" stroke="none" />
<circle cx="491.693" cy="533.4892500000001" r="5" fill="black" stroke="none" />
<circle cx="539.693" cy="485.48925" r="5" fill="black" stroke="none" />
<path d="M539.693,485.48925 A42.262230354803776,42.262230354803776,0,0,1,524.0122047405439,534.7780122787473" stroke="grey" stroke-width="5" fill="none" />
<path d="M524.0122047405439,534.7780122787473 L39.692999999999984,57.48925000000003" stroke="grey" stroke-width="5" />
<circle cx="524.0122047405439" cy="534.7780122787473" r="2.5" fill="grey" stroke="none" />
<circle cx="539.693" cy="485.48925" r="5" fill="black" stroke="none" />
<circle cx="539.693" cy="557.4892500000001" r="5" fill="black" stroke="none" />
<path d="M539.693,557.4892500000001 A69.86091979470713,69.86091979470713,0,0,1,493.54279551528566,569.5618618555102" stroke="grey" stroke-width="5" fill="none" />
<path d="M493.54279551528566,569.5618618555102 L-8.307000000000016,89.48925000000003" stroke="grey" stroke-width="5" />
<circle cx="493.54279551528566" cy="569.5618618555102" r="2.5" fill="grey" stroke="none" />
<circle cx="539.693" cy="557.4892500000001" r="5" fill="black" stroke="none" />
<circle cx="491.693" cy="589.4892500000001" r="5" fill="black" stroke="none" />
<path d="M539.693,429.48925 A80.91538861404854,80.91538861404854,0,0,1,551.4338633565926,437.535147364475" stroke="grey" stroke-width="5" fill="none" />
<path d="M551.4338633565926,437.535147364475 L143.69299999999998,-174.51074999999997" stroke="grey" stroke-width="5" />
<circle cx="551.4338633565926" cy="437.535147364475" r="2.5" fill="grey" stroke="none" />
<circle cx="539.693" cy="429.48925" r="5" fill="black" stroke="none" />
<circle cx="643.693" cy="325.48925" r="5" fill="black" stroke="none" />
<path d="M539.693,429.48925 A80.91538861404854,80.91538861404854,0,0,1,577.9718901443377,478.3739864542303" stroke="grey" stroke-width="5" fill="none" />
<path d="M577.9718901443377,478.3739864542303 L167.69299999999998,-46.51074999999997" stroke="grey" stroke-width="5" />
<circle cx="577.9718901443377" cy="478.3739864542303" r="2.5" fill="grey" stroke="none" />
<circle cx="539.693" cy="429.48925" r="5" fill="black" stroke="none" />
<circle cx="667.693" cy="453.48925" r="5" fill="black" stroke="none" />
<path d="M667.693,453.48925 A174.02353896689522,174.02353896689522,0,0,1,671.2140348289882,468.85603762941355" stroke="grey" stroke-width="5" fill="none" />
<path d="M671.2140348289882,468.85603762941355 L255.69299999999998,-46.51074999999997" stroke="grey" stroke-width="5" />
<circle cx="671.2140348289882" cy="468.85603762941355" r="2.5" fill="grey" stroke="none" />
<circle cx="667.693" cy="453.48925" r="5" fill="black" stroke="none" />
<circle cx="755.693" cy="453.48925" r="5" fill="black" stroke="none" />
<path d="M539.693,485.48925 A42.262230354803776,42.262230354803776,0,0,1,531.9947636100061,527.6121570345804" stroke="grey" stroke-width="5" fill="none" />
<path d="M531.9947636100061,527.6121570345804 L103.69299999999998,89.48925000000003" stroke="grey" stroke-width="5" />
<circle cx="531.9947636100061" cy="527.6121570345804" r="2.5" fill="grey" stroke="none" />
<circle cx="539.693" cy="485.48925" r="5" fill="black" stroke="none" />
<circle cx="603.693" cy="589.4892500000001" r="5" fill="black" stroke="none" />
<circle cx="500" cy="500" r="5" fill="red" stroke="none" />
</svg>