<?xml version="1.0" encoding="UTF-8"?>
<svg xmlns="http://www.w3.org/2000/svg" xmlns:xlink="http://www.w3.org/1999/xlink"
     width="1000" height="1000" viewBox="0 0 1000 1000">
<defs>
</defs>
<rect x="0" y="0" width="1000" height="1000" fill="white" />
<path d="M353.08080800000005,618.329178 L463.52225325592144,529.3792916280058" stroke="grey" stroke-width="5" />
<circle cx="463.52225325592144" cy="529.3792916280058" r="2.5" fill="grey" stroke="none" />
<path d="M463.52225325592144,529.3792916280058 A46.83768551165342,46.83768551165342,0,0,0,473.08080800000005,538.3291780000001" stroke="grey" stroke-width="5" fill="none" />
<circle cx="353.08080800000005" cy="618.329178" r="5" fill="black" stroke="none" />
<circle cx="473.08080800000005" cy="538.329178" r="5" fill="black" stroke="none" />
<path d="M473.08080800000005,538.329178 L481.49303478489276,526.3513393704259" stroke="grey" stroke-width="5" />
<circle cx="481.49303478489276" cy="526.3513393704259" r="2.5" fill="grey" stroke="none" />
<path d="M481.49303478489276,526.3513393704259 A32.20094483223352,32.20094483223352,0,0,1,473.080808,482.329178" stroke="grey" stroke-width="5" fill="none" />
<circle cx="473.08080800000005" cy="538.329178" r="5" fill="black" stroke="none" />
<circle cx="473.08080800000005" cy="482.329178" r="5" fill="black" stroke="none" />
<path d="M473.080808,482.329178 A32.20094483223352,32.20094483223352,0,0,0,468.08842976689664,495.6927348182101" stroke="grey" stroke-width="5" fill="none" />
<path d="M468.08842976689664,495.6927348182101 L-130.91919199999998,-17.670821999999987" stroke="grey" stroke-width="5" />
<circle cx="468.08842976689664" cy="495.6927348182101" r="2.5" fill="grey" stroke="none" />
<circle cx="473.08080800000005" cy="482.329178" r="5" fill="black" stroke="none" />
<circle cx="369.08080800000005" cy="482.329178" r="5" fill="black" stroke="none" />
<path d="M369.08080800000005,482.32917800000007 A132.10636920333758,132.10636920333758,0,0,1,420.9221788138948,394.1756597915824" stroke="grey" stroke-width="5" fill="none" />
<path d="M420.9221788138948,394.1756597915824 L-90.91919199999998,-121.67082199999999" stroke="grey" stroke-width="5" />
<circle cx="420.9221788138948" cy="394.1756597915824" r="2.5" fill="grey" stroke="none" />
<circle cx="369.08080800000005" cy="482.329178" r="5" fill="black" stroke="none" />
<circle cx="409.08080800000005" cy="378.329178" r="5" fill="black" stroke="none" />
<path d="M409.08080800000005,378.329178 A151.88840772122322,151.88840772122322,0,0,1,515.1946189192049,348.8735233124629" stroke="grey" stroke-width="5" fill="none" />
<path d="M515.1946189192049,348.8735233124629 L21.08080800000002,-209.670822" stroke="grey" stroke-width="5" />
<circle cx="515.1946189192049" cy="348.8735233124629" r="2.5" fill="grey" stroke="none" />
<circle cx="409.08080800000005" cy="378.329178" r="5" fill="black" stroke="none" />
<circle cx="521.080808" cy="290.329178" r="5" fill="black" stroke="none" />
<path d="M521.080808,290.329178 L519.8180921589942,302.88821598071274" stroke="grey" stroke-width="5" />
<circle cx="519.8180921589942" cy="302.88821598071274" r="2.5" fill="grey" stroke="none" />
<path d="M519.8180921589942,302.88821598071274 A198.10555816556118,198.10555816556118,0,0,1,569.080808,314.329178" stroke="grey" stroke-width="5" fill="none" />
<circle cx="521.080808" cy="290.329178" r="5" fill="black" stroke="none" />
<circle cx="569.080808" cy="314.329178" r="5" fill="black" stroke="none" />
<path d="M569.080808,314.329178 L562.3896500145548,332.31322942119164" stroke="grey" stroke-width="5" />
<circle cx="562.3896500145548" cy="332.31322942119164" r="2.5" fill="grey" stroke="none" />
<path d="M562.3896500145548,332.31322942119164 A178.9170798333366,178.9170798333366,0,0,0,521.080808,322.329178" stroke="grey" stroke-width="5" fill="none" />
<circle cx="569.080808" cy="314.329178" r="5" fill="black" stroke="none" />
<circle cx="521.080808" cy="322.329178" r="5" fill="black" stroke="none" />
<path d="M521.080808,290.329178 L517.8985143566334,321.9804374797143" stroke="grey" stroke-width="5" />
<circle cx="517.8985143566334" cy="321.9804374797143" r="2.5" fill="grey" stroke="none" />
<path d="M517.8985143566334,321.9804374797143 A178.9170798333366,178.9170798333366,0,0,1,521.080808,322.329178" stroke="grey" stroke-width="5" fill="none" />
<circle cx="521.080808" cy="290.329178" r="5" fill="black" stroke="none" />
<circle cx="521.080808" cy="322.329178" r="5" fill="black" stroke="none" />
<path d="M521.080808,322.329178 L508.3624656979433,429.52043609996394" stroke="grey" stroke-width="5" />
<circle cx="508.3624656979433" cy="429.52043609996394" r="2.5" fill="grey" stroke="none" />
<path d="M508.3624656979433,429.52043609996394 A70.97393718886212,70.97393718886212,0,0,0,473.08080800000005,434.329178" stroke="grey" stroke-width="5" fill="none" />
<circle cx="521.080808" cy="322.329178" r="5" fill="black" stroke="none" />
<circle cx="473.08080800000005" cy="434.329178" r="5" fill="black" stroke="none" />
<path d="M409.08080800000005,378.329178 L457.515566071943,443.14604117652755" stroke="grey" stroke-width="5" />
<circle cx="457.515566071943" cy="443.14604117652755" r="2.5" fill="grey" stroke="none" />
<path d="M457.515566071943,443.14604117652755 A70.97393718886212,70.97393718886212,0,0,1,473.08080800000005,434.329178" stroke="grey" stroke-width="5" fill="none" />
<circle cx="409.08080800000005" cy="378.329178" r="5" fill="black" stroke="none" />
<circle cx="473.08080800000005" cy="434.329178" r="5" fill="black" stroke="none" />
<path d="M473.08080800000005,434.329178 L487.78673621820246,470.2050837241522" stroke="grey" stroke-width="5" />
<circle cx="487.78673621820246" cy="470.2050837241522" r="2.5" fill="grey" stroke="none" />
<path d="M487.78673621820246,470.2050837241522 A32.20094483223352,32.20094483223352,0,0,0,473.080808,482.329178" stroke="grey" stroke-width="5" fill="none" />
<circle cx="473.08080800000005" cy="434.329178" r="5" fill="black" stroke="none" />
<circle cx="473.08080800000005" cy="482.329178" r="5" fill="black" stroke="none" />
<path d="M569.080808,314.329178 A198.10555816556118,198.10555816556118,0,0,1,586.2135444305625,321.6379049999469" stroke="grey" stroke-width="5" fill="none" />
<path d="M586.2135444305625,321.6379049999469 L109.08080800000002,-225.670822" stroke="grey" stroke-width="5" />
<circle cx="586.2135444305625" cy="321.6379049999469" r="2.5" fill="grey" stroke="none" />
<circle cx="569.080808" cy="314.329178" r="5" fill="black" stroke="none" />
<circle cx="609.080808" cy="274.329178" r="5" fill="black" stroke="none" />
<path d="M569.080808,314.329178 L558.8806151968655,341.7445808759548" stroke="grey" stroke-width="5" />
<circle cx="558.8806151968655" cy="341.7445808759548" r="2.5" fill="grey" stroke="none" />
<path d="M558.8806151968655,341.7445808759548 A168.85409242327694,168.85409242327694,0,0,1,617.080808,378.329178" stroke="grey" stroke-width="5" fill="none" />
<circle cx="569.080808" cy="314.329178" r="5" fill="black" stroke="none" />
<circle cx="617.080808" cy="378.329178" r="5" fill="black" stroke="none" />
<path d="M521.080808,322.329178 L516.4852994868759,361.06051007392983" stroke="grey" stroke-width="5" />
<circle cx="516.4852994868759" cy="361.06051007392983" r="2.5" fill="grey" stroke="none" />
<path d="M516.485299486876,361.06051007392983 A139.91406991467494,139.91406991467494,0,0,1,569.080808,378.329178" stroke="grey" stroke-width="5" fill="none" />
<circle cx="521.080808" cy="322.329178" r="5" fill="black" stroke="none" />
<circle cx="569.080808" cy="378.329178" r="5" fill="black" stroke="none" />
<path d="M473.08080800000005,434.329178 L473.84032676486,436.18206502620717" stroke="grey" stroke-width="5" />
<circle cx="473.84032676486" cy="436.18206502620717" r="2.5" fill="grey" stroke="none" />
<path d="M473.84032676486,436.18206502620717 A68.9714239963809,68.9714239963809,0,0,1,521.080808,434.329178" stroke="grey" stroke-width="5" fill="none" />
<circle cx="473.08080800000005" cy="434.329178" r="5" fill="black" stroke="none" />
<circle cx="521.080808" cy="434.329178" r="5" fill="black" stroke="none" />
<path d="M473.080808,482.329178 A32.20094483223352,32.20094483223352,0,0,1,531.1964722323359,492.01996438945025" stroke="grey" stroke-width="5" fill="none" />
<path d="M531.1964722323359,492.01996438945025 L69.08080800000002,-17.670821999999987" stroke="grey" stroke-width="5" />
<circle cx="531.1964722323359" cy="492.01996438945025" r="2.5" fill="grey" stroke="none" />
<circle cx="473.08080800000005" cy="482.329178" r="5" fill="black" stroke="none" />
<circle cx="569.080808" cy="482.329178" r="5" fill="black" stroke="none" />
<path d="M473.08080800000005,538.3291780000001 A46.83768551165342,46.83768551165342,0,0,0,540.9558425913306,522.7241664692615" stroke="grey" stroke-width="5" fill="none" />
<path d="M540.9558425913306,522.7241664692615 L69.08080800000002,38.32917800000001" stroke="grey" stroke-width="5" />
<circle cx="540.9558425913306" cy="522.7241664692615" r="2.5" fill="grey" stroke="none" />
<circle cx="473.08080800000005" cy="538.329178" r="5" fill="black" stroke="none" />
<circle cx="569.080808" cy="538.329178" r="5" fill="black" stroke="none" />
<path d="M617.080808,378.329178 L597.014245382426,399.18242636838073" stroke="grey" stroke-width="5" />
<circle cx="597.014245382426" cy="399.18242636838073" r="2.5" fill="grey" stroke="none" />
<path d="M597.014245382426,399.18242636838073 A139.91406991467494,139.91406991467494,0,0,0,569.080808,378.329178" stroke="grey" stroke-width="5" fill="none" />
<circle cx="617.080808" cy="378.329178" r="5" fill="black" stroke="none" />
<circle cx="569.080808" cy="378.329178" r="5" fill="black" stroke="none" />
<path d="M569.080808,378.329178 L534.0537710144964,440.0216871879444" stroke="grey" stroke-width="5" />
<circle cx="534.0537710144964" cy="440.0216871879444" r="2.5" fill="grey" stroke="none" />
<path d="M534.0537710144964,440.0216871879444 A68.9714239963809,68.9714239963809,0,0,0,521.080808,434.329178" stroke="grey" stroke-width="5" fill="none" />
<circle cx="569.080808" cy="378.329178" r="5" fill="black" stroke="none" />
<circle cx="521.080808" cy="434.329178" r="5" fill="black" stroke="none" />
<path d="M521.080808,434.329178 A68.9714239963809,68.9714239963809,0,0,1,566.819937263888,482.90750714089313" stroke="grey" stroke-width="5" fill="none" />
<path d="M566.819937263888,482.90750714089313 L69.08080800000002,-17.670821999999987" stroke="grey" stroke-width="5" />
<circle cx="566.819937263888" cy="482.90750714089313" r="2.5" fill="grey" stroke="none" />
<circle cx="521.080808" cy="434.329178" r="5" fill="black" stroke="none" />
<circle cx="569.080808" cy="482.329178" r="5" fill="black" stroke="none" />
<path d="M569.080808,482.329178 A71.30509087076848,71.30509087076848,0,0,1,562.3506487513589,534.5949791786788" stroke="grey" stroke-width="5" fill="none" />
<path d="M562.3506487513589,534.5949791786788 L69.08080800000002,38.32917800000001" stroke="grey" stroke-width="5" />
<circle cx="562.3506487513589" cy="534.5949791786788" r="2.5" fill="grey" stroke="none" />
<circle cx="569.080808" cy="482.329178" r="5" fill="black" stroke="none" />
<circle cx="569.080808" cy="538.329178" r="5" fill="black" stroke="none" />
<path d="M569.080808,538.329178 A79.00179694214906,79.00179694214906,0,0,1,560.5298033470759,550.7683644295626" stroke="grey" stroke-width="5" fill="none" />
<path d="M560.5298033470759,550.7683644295626 L141.08080800000002,118.32917800000001" stroke="grey" stroke-width="5" />
<circle cx="560.5298033470759" cy="550.7683644295626" r="2.5" fill="grey" stroke="none" />
<circle cx="569.080808" cy="538.329178" r="5" fill="black" stroke="none" />
<circle cx="641.080808" cy="618.329178" r="5" fill="black" stroke="none" />
<path d="M617.080808,378.329178 L593.55199980975,402.7804051660105" stroke="grey" stroke-width="5" />
<circle cx="593.55199980975" cy="402.7804051660105" r="2.5" fill="grey" stroke="none" />
<path d="M593.55199980975,402.7804051660105 A134.92081488076087,134.92081488076087,0,0,0,593.080808,402.32917800000007" stroke="grey" stroke-width="5" fill="none" />
<circle cx="617.080808" cy="378.329178" r="5" fill="black" stroke="none" />
<circle cx="593.080808" cy="402.329178" r="5" fill="black" stroke="none" />
<path d="M593.080808,402.329178 L565.7565819773868,431.00082012994824" stroke="grey" stroke-width="5" />
<circle cx="565.7565819773868" cy="431.00082012994824" r="2.5" fill="grey" stroke="none" />
<path d="M565.7565819773869,431.00082012994824 A95.31429533962127,95.31429533962127,0,0,1,569.080808,434.329178" stroke="grey" stroke-width="5" fill="none" />
<circle cx="593.080808" cy="402.329178" r="5" fill="black" stroke="none" />
<circle cx="569.080808" cy="434.329178" r="5" fill="black" stroke="none" />
<path d="M569.080808,434.329178 L551.6796905890621,450.8713366281215" stroke="grey" stroke-width="5" />
<circle cx="551.6796905890621" cy="450.8713366281215" r="2.5" fill="grey" stroke="none" />
<path d="M551.6796905890621,450.8713366281215 A71.30509087076848,71.30509087076848,0,0,1,569.080808,482.329178" stroke="grey" stroke-width="5" fill="none" />
<circle cx="569.080808" cy="434.329178" r="5" fill="black" stroke="none" />
<circle cx="569.080808" cy="482.329178" r="5" fill="black" stroke="none" />
<path d="M569.080808,378.329178 L566.6154512813855,382.67136777978743" stroke="grey" stroke-width="5" />
<circle cx="566.6154512813855" cy="382.67136777978743" r="2.5" fill="grey" stroke="none" />
<path d="M566.6154512813855,382.67136777978743 A134.92081488076087,134.92081488076087,0,0,1,593.080808,402.32917800000007" stroke="grey" stroke-width="5" fill="none" />
<circle cx="569.080808" cy="378.329178" r="5" fill="black" stroke="none" />
<circle cx="593.080808" cy="402.329178" r="5" fill="black" stroke="none" />
<path d="M521.080808,434.329178 A68.9714239963809,68.9714239963809,0,0,1,549.988322125275,452.4792152927975" stroke="grey" stroke-width="5" fill="none" />
<path d="M549.988322125275,452.4792152927975 L69.08080800000002,-65.67082199999999" stroke="grey" stroke-width="5" />
<circle cx="549.988322125275" cy="452.4792152927975" r="2.5" fill="grey" stroke="none" />
<circle cx="521.080808" cy="434.329178" r="5" fill="black" stroke="none" />
<circle cx="569.080808" cy="434.329178" r="5" fill="black" stroke="none" />
<path d="M617.080808,378.329178 L593.0804365943991,403.27045545706" stroke="grey" stroke-width="5" />
<circle cx="593.0804365943991" cy="403.27045545706" r="2.5" fill="grey" stroke="none" />
<path d="M593.0804365943991,403.27045545706 A134.24072580289692,134.24072580289692,0,0,1,617.080808,434.329178" stroke="grey" stroke-width="5" fill="none" />
<circle cx="617.080808" cy="378.329178" r="5" fill="black" stroke="none" />
<circle cx="617.080808" cy="434.329178" r="5" fill="black" stroke="none" />
<path d="M593.080808,402.329178 L592.6116198992944,402.82150277084355" stroke="grey" stroke-width="5" />
<circle cx="592.6116198992944" cy="402.82150277084355" r="2.5" fill="grey" stroke="none" />
<path d="M592.6116198992945,402.8215027708436 A134.24072580289692,134.24072580289692,0,0,1,617.080808,434.329178" stroke="grey" stroke-width="5" fill="none" />
<circle cx="593.080808" cy="402.329178" r="5" fill="black" stroke="none" />
<circle cx="617.080808" cy="434.329178" r="5" fill="black" stroke="none" />
<path d="M569.080808,434.329178 A95.31429533962127,95.31429533962127,0,0,1,583.1303216335313,453.37206286790934" stroke="grey" stroke-width="5" fill="none" />
<path d="M583.1303216335313,453.37206286790934 L117.08080800000002,-65.67082199999999" stroke="grey" stroke-width="5" />
<circle cx="583.1303216335313" cy="453.37206286790934" r="2.5" fill="grey" stroke="none" />
<circle cx="569.080808" cy="434.329178" r="5" fill="black" stroke="none" />
<circle cx="617.080808" cy="434.329178" r="5" fill="black" stroke="none" />
<path d="M569.080808,482.329178 A71.30509087076848,71.30509087076848,0,0,0,562.1902005053286,465.11741200547795" stroke="grey" stroke-width="5" fill="none" />
<path d="M562.1902005053286,465.11741200547795 L117.08080800000002,-65.67082199999999" stroke="grey" stroke-width="5" />
<circle cx="562.1902005053286" cy="465.11741200547795" r="2.5" fill="grey" stroke="none" />
<circle cx="569.080808" cy="482.329178" r="5" fill="black" stroke="none" />
<circle cx="617.080808" cy="434.329178" r="5" fill="black" stroke="none" />
<path d="M617.080808,434.329178 L602.2635281166133,442.6402151919031" stroke="grey" stroke-width="5" />
<circle cx="602.2635281166133" cy="442.6402151919031" r="2.5" fill="grey" stroke="none" />
<path d="M602.2635281166133,442.6402151919031 A117.25175519406332,117.25175519406332,0,0,1,617.080808,506.329178" stroke="grey" stroke-width="5" fill="none" />
<circle cx="617.080808" cy="434.329178" r="5" fill="black" stroke="none" />
<circle cx="617.080808" cy="506.329178" r="5" fill="black" stroke="none" />
<path d="M617.080808,506.329178 L578.8866162739291,504.2644686583936" stroke="grey" stroke-width="5" />
<circle cx="578.8866162739291" cy="504.2644686583936" r="2.5" fill="grey" stroke="none" />
<path d="M578.8866162739291,504.2644686583936 A79.00179694214906,79.00179694214906,0,0,1,569.080808,538.329178" stroke="grey" stroke-width="5" fill="none" />
<circle cx="617.080808" cy="506.329178" r="5" fill="black" stroke="none" />
<circle cx="569.080808" cy="538.329178" r="5" fill="black" stroke="none" />
<path d="M617.080808,378.329178 A168.85409242327694,168.85409242327694,0,0,1,618.1649200481182,379.38177501674807" stroke="grey" stroke-width="5" fill="none" />
<path d="M618.1649200481182,379.38177501674807 L221.08080800000002,-225.670822" stroke="grey" stroke-width="5" />
<circle cx="618.1649200481182" cy="379.38177501674807" r="2.5" fill="grey" stroke="none" />
<circle cx="617.080808" cy="378.329178" r="5" fill="black" stroke="none" />
<circle cx="721.080808" cy="274.329178" r="5" fill="black" stroke="none" />
<path d="M617.080808,378.329178 A168.85409242327694,168.85409242327694,0,0,1,656.8567442318885,437.4886704903784" stroke="grey" stroke-width="5" fill="none" />
<path d="M656.8567442318885,437.4886704903784 L245.08080800000002,-97.67082199999999" stroke="grey" stroke-width="5" />
<circle cx="656.8567442318885" cy="437.4886704903784" r="2.5" fill="grey" stroke="none" />
<circle cx="617.080808" cy="378.329178" r="5" fill="black" stroke="none" />
<circle cx="745.080808" cy="402.329178" r="5" fill="black" stroke="none" />
<path d="M745.080808,402.329178 A263.82606376188187,263.82606376188187,0,0,1,753.1660566003217,425.76294924007766" stroke="grey" stroke-width="5" fill="none" />
<path d="M753.1660566003217,425.76294924007766 L333.08080800000005,-97.67082199999999" stroke="grey" stroke-width="5" />
<circle cx="753.1660566003217" cy="425.76294924007766" r="2.5" fill="grey" stroke="none" />
<circle cx="745.080808" cy="402.329178" r="5" fill="black" stroke="none" />
<circle cx="833.080808" cy="402.329178" r="5" fill="black" stroke="none" />
<path d="M617.080808,434.329178 A134.24072580289692,134.24072580289692,0,0,1,631.3309042683602,527.7986698988163" stroke="grey" stroke-width="5" fill="none" />
<path d="M631.3309042683602,527.7986698988163 L181.08080800000002,38.32917800000001" stroke="grey" stroke-width="5" />
<circle cx="631.3309042683602" cy="527.7986698988163" r="2.5" fill="grey" stroke="none" />
<circle cx="617.080808" cy="434.329178" r="5" fill="black" stroke="none" />
<circle cx="681.080808" cy="538.329178" r="5" fill="black" stroke="none" />
<circle cx="500" cy="500" r="5" fill="red" stroke="none" />
</svg>