<?xml version="1.0" encoding="UTF-8"?>
<svg xmlns="http://www.w3.org/2000/svg" xmlns:xlink="http://www.w3.org/1999/xlink"
     width="1000" height="1000" viewBox="0 0 1000 1000">
<defs>
</defs>
<rect x="0" y="0" width="1000" height="1000" fill="white" />
<path d="M226.94760799999995,724.220478 L337.47726067455153,633.4576343774401" stroke="grey" stroke-width="5" />
<circle cx="337.47726067455153" cy="633.4576343774401" r="2.5" fill="grey" stroke="none" />
<path d="M337.47726067455153,633.4576343774401 A210.29641216975185,210.29641216975185,0,0,0,346.94760799999995,644.220478" stroke="grey" stroke-width="5" fill="none" />
<circle cx="226.94760799999995" cy="724.220478" r="5" fill="black" stroke="none" />
<circle cx="346.94760799999995" cy="644.220478" r="5" fill="black" stroke="none" />
<path d="M346.94760799999995,644.220478 L371.429763282241,621.1510696024166" stroke="grey" stroke-width="5" />
<circle cx="371.429763282241" cy="621.1510696024166" r="2.5" fill="grey" stroke="none" />
<path d="M371.429763282241,621.1510696024166 A176.65754282076426,176.65754282076426,0,0,1,346.94760799999995,588.2204779999998" stroke="grey" stroke-width="5" fill="none" />
<circle cx="346.94760799999995" cy="644.220478" r="5" fill="black" stroke="none" />
<circle cx="346.94760799999995" cy="588.220478" r="5" fill="black" stroke="none" />
<path d="M346.94760799999995,588.2204779999998 A176.65754282076426,176.65754282076426,0,0,1,332.9091164514376,557.3456543290852" stroke="grey" stroke-width="5" fill="none" />
<path d="M332.9091164514376,557.3456543290852 L-257.05239200000005,88.22047799999996" stroke="grey" stroke-width="5" />
<circle cx="332.9091164514376" cy="557.3456543290852" r="2.5" fill="grey" stroke="none" />
<circle cx="346.94760799999995" cy="588.220478" r="5" fill="black" stroke="none" />
<circle cx="242.94760799999995" cy="588.220478" r="5" fill="black" stroke="none" />
<path d="M242.94760799999995,588.220478 L294.1599952659693,570.6443673520005" stroke="grey" stroke-width="5" />
<circle cx="294.1599952659693" cy="570.6443673520005" r="2.5" fill="grey" stroke="none" />
<path d="M294.1599952659693,570.6443673520005 A217.62521496249042,217.62521496249042,0,0,1,282.94760799999995,484.22047799999984" stroke="grey" stroke-width="5" fill="none" />
<circle cx="242.94760799999995" cy="588.220478" r="5" fill="black" stroke="none" />
<circle cx="282.94760799999995" cy="484.22047799999996" r="5" fill="black" stroke="none" />
<path d="M282.94760799999995,484.22047799999996 L352.71948251532444,489.2928331984435" stroke="grey" stroke-width="5" />
<circle cx="352.71948251532444" cy="489.2928331984435" r="2.5" fill="grey" stroke="none" />
<path d="M352.71948251532444,489.2928331984434 A147.6692054948159,147.6692054948159,0,0,1,394.94760799999995,396.22047799999996" stroke="grey" stroke-width="5" fill="none" />
<circle cx="282.94760799999995" cy="484.22047799999996" r="5" fill="black" stroke="none" />
<circle cx="394.94760799999995" cy="396.22047799999996" r="5" fill="black" stroke="none" />
<path d="M394.94760799999995,396.22047799999996 L430.2253213285937,431.07074801093404" stroke="grey" stroke-width="5" />
<circle cx="430.2253213285937" cy="431.07074801093404" r="2.5" fill="grey" stroke="none" />
<path d="M430.2253213285937,431.07074801093404 A98.08031180349174,98.08031180349174,0,0,1,442.94760799999995,420.22047799999996" stroke="grey" stroke-width="5" fill="none" />
<circle cx="394.94760799999995" cy="396.22047799999996" r="5" fill="black" stroke="none" />
<circle cx="442.94760799999995" cy="420.22047799999996" r="5" fill="black" stroke="none" />
<path d="M442.94760799999995,420.22047799999996 A98.08031180349174,98.08031180349174,0,0,0,419.0182614087369,444.66731907627747" stroke="grey" stroke-width="5" fill="none" />
<path d="M419.01826140873686,444.6673190762775 L-105.05239200000005,-71.77952200000004" stroke="grey" stroke-width="5" />
<circle cx="419.01826140873686" cy="444.6673190762775" r="2.5" fill="grey" stroke="none" />
<circle cx="442.94760799999995" cy="420.22047799999996" r="5" fill="black" stroke="none" />
<circle cx="394.94760799999995" cy="428.22047799999996" r="5" fill="black" stroke="none" />
<path d="M394.94760799999995,396.22047799999996 L409.48580478792746,410.5825223539548" stroke="grey" stroke-width="5" />
<circle cx="409.48580478792746" cy="410.5825223539548" r="2.5" fill="grey" stroke="none" />
<path d="M409.48580478792746,410.5825223539548 A127.2332694049405,127.2332694049405,0,0,0,394.94760799999995,428.22047799999996" stroke="grey" stroke-width="5" fill="none" />
<circle cx="394.94760799999995" cy="396.22047799999996" r="5" fill="black" stroke="none" />
<circle cx="394.94760799999995" cy="428.22047799999996" r="5" fill="black" stroke="none" />
<path d="M394.94760799999995,428.22047799999996 A127.2332694049405,127.2332694049405,0,0,0,376.94477859573817,532.3375529163584" stroke="grey" stroke-width="5" fill="none" />
<path d="M376.94477859573817,532.3375529163584 L-153.05239200000005,40.22047799999996" stroke="grey" stroke-width="5" />
<circle cx="376.94477859573817" cy="532.3375529163584" r="2.5" fill="grey" stroke="none" />
<circle cx="394.94760799999995" cy="428.22047799999996" r="5" fill="black" stroke="none" />
<circle cx="346.94760799999995" cy="540.220478" r="5" fill="black" stroke="none" />
<path d="M282.94760799999995,484.22047799999996 L342.1676127123276,488.52572134971746" stroke="grey" stroke-width="5" />
<circle cx="342.1676127123276" cy="488.52572134971746" r="2.5" fill="grey" stroke="none" />
<path d="M342.1676127123276,488.5257213497174 A158.24892273715534,158.24892273715534,0,0,0,346.94760799999995,540.220478" stroke="grey" stroke-width="5" fill="none" />
<circle cx="282.94760799999995" cy="484.22047799999996" r="5" fill="black" stroke="none" />
<circle cx="346.94760799999995" cy="540.220478" r="5" fill="black" stroke="none" />
<path d="M346.94760799999995,540.220478 A158.24892273715534,158.24892273715534,0,0,0,362.89645055847586,579.0274526857958" stroke="grey" stroke-width="5" fill="none" />
<path d="M362.89645055847586,579.0274526857959 L-153.05239200000005,88.22047799999996" stroke="grey" stroke-width="5" />
<circle cx="362.89645055847586" cy="579.0274526857959" r="2.5" fill="grey" stroke="none" />
<circle cx="346.94760799999995" cy="540.220478" r="5" fill="black" stroke="none" />
<circle cx="346.94760799999995" cy="588.220478" r="5" fill="black" stroke="none" />
<path d="M442.94760799999995,420.22047799999996 A98.08031180349174,98.08031180349174,0,0,1,486.1761984359734,402.8987637885666" stroke="grey" stroke-width="5" fill="none" />
<path d="M486.1761984359734,402.8987637885666 L-17.052392000000054,-119.77952200000004" stroke="grey" stroke-width="5" />
<circle cx="486.1761984359734" cy="402.8987637885666" r="2.5" fill="grey" stroke="none" />
<circle cx="442.94760799999995" cy="420.22047799999996" r="5" fill="black" stroke="none" />
<circle cx="482.94760799999995" cy="380.22047799999996" r="5" fill="black" stroke="none" />
<path d="M442.94760799999995,420.22047799999996 L489.4180410954935,485.2026603332394" stroke="grey" stroke-width="5" />
<circle cx="489.4180410954935" cy="485.2026603332394" r="2.5" fill="grey" stroke="none" />
<path d="M489.4180410954935,485.2026603332394 A18.19173206349935,18.19173206349935,0,0,1,490.94760799999995,484.22047799999996" stroke="grey" stroke-width="5" fill="none" />
<circle cx="442.94760799999995" cy="420.22047799999996" r="5" fill="black" stroke="none" />
<circle cx="490.94760799999995" cy="484.22047799999996" r="5" fill="black" stroke="none" />
<path d="M394.94760799999995,428.22047799999996 L451.1251575404609,466.605112336985" stroke="grey" stroke-width="5" />
<circle cx="451.1251575404609" cy="466.605112336985" r="2.5" fill="grey" stroke="none" />
<path d="M451.125157540461,466.605112336985 A59.194330365924024,59.194330365924024,0,0,0,442.94760799999995,484.22047799999996" stroke="grey" stroke-width="5" fill="none" />
<circle cx="394.94760799999995" cy="428.22047799999996" r="5" fill="black" stroke="none" />
<circle cx="442.94760799999995" cy="484.22047799999996" r="5" fill="black" stroke="none" />
<path d="M346.94760799999995,540.220478 L391.20523779159356,528.5900617608017" stroke="grey" stroke-width="5" />
<circle cx="391.20523779159356" cy="528.5900617608017" r="2.5" fill="grey" stroke="none" />
<path d="M391.20523779159356,528.5900617608017 A112.48863016087518,112.48863016087518,0,0,0,394.94760799999995,540.220478" stroke="grey" stroke-width="5" fill="none" />
<circle cx="346.94760799999995" cy="540.220478" r="5" fill="black" stroke="none" />
<circle cx="394.94760799999995" cy="540.220478" r="5" fill="black" stroke="none" />
<path d="M346.94760799999995,588.220478 L408.97729230892213,552.4661305611033" stroke="grey" stroke-width="5" />
<circle cx="408.97729230892213" cy="552.4661305611033" r="2.5" fill="grey" stroke="none" />
<path d="M408.9772923089221,552.4661305611032 A105.06106877178695,105.06106877178695,0,0,0,442.94760799999995,588.220478" stroke="grey" stroke-width="5" fill="none" />
<circle cx="346.94760799999995" cy="588.220478" r="5" fill="black" stroke="none" />
<circle cx="442.94760799999995" cy="588.220478" r="5" fill="black" stroke="none" />
<path d="M346.94760799999995,644.220478 L387.1226978112763,606.3636984974935" stroke="grey" stroke-width="5" />
<circle cx="387.1226978112763" cy="606.3636984974935" r="2.5" fill="grey" stroke="none" />
<path d="M387.1226978112763,606.3636984974935 A155.0952020775309,155.0952020775309,0,0,0,442.94760799999995,644.220478" stroke="grey" stroke-width="5" fill="none" />
<circle cx="346.94760799999995" cy="644.220478" r="5" fill="black" stroke="none" />
<circle cx="442.94760799999995" cy="644.220478" r="5" fill="black" stroke="none" />
<path d="M490.94760799999995,484.22047799999996 A18.19173206349935,18.19173206349935,0,0,0,482.4665331556279,495.1506025232555" stroke="grey" stroke-width="5" fill="none" />
<path d="M482.4665331556279,495.1506025232555 L-57.052392000000054,-15.779522000000043" stroke="grey" stroke-width="5" />
<circle cx="482.4665331556279" cy="495.1506025232555" r="2.5" fill="grey" stroke="none" />
<circle cx="490.94760799999995" cy="484.22047799999996" r="5" fill="black" stroke="none" />
<circle cx="442.94760799999995" cy="484.22047799999996" r="5" fill="black" stroke="none" />
<path d="M442.94760799999995,484.22047799999996 A59.194330365924024,59.194330365924024,0,0,0,444.7188041237129,521.1650213786269" stroke="grey" stroke-width="5" fill="none" />
<path d="M444.7188041237129,521.1650213786269 L-105.05239200000005,40.22047799999996" stroke="grey" stroke-width="5" />
<circle cx="444.7188041237129" cy="521.1650213786269" r="2.5" fill="grey" stroke="none" />
<circle cx="442.94760799999995" cy="484.22047799999996" r="5" fill="black" stroke="none" />
<circle cx="394.94760799999995" cy="540.220478" r="5" fill="black" stroke="none" />
<path d="M394.94760799999995,540.220478 L401.88415873881365,537.5647423135023" stroke="grey" stroke-width="5" />
<circle cx="401.88415873881365" cy="537.5647423135023" r="2.5" fill="grey" stroke="none" />
<path d="M401.88415873881365,537.5647423135023 A105.06106877178695,105.06106877178695,0,0,0,442.94760799999995,588.220478" stroke="grey" stroke-width="5" fill="none" />
<circle cx="394.94760799999995" cy="540.220478" r="5" fill="black" stroke="none" />
<circle cx="442.94760799999995" cy="588.220478" r="5" fill="black" stroke="none" />
<path d="M442.94760799999995,588.220478 A105.06106877178695,105.06106877178695,0,0,0,461.3528645682372,597.6945602087912" stroke="grey" stroke-width="5" fill="none" />
<path d="M461.35286456823724,597.6945602087912 L-57.052392000000054,144.22047799999996" stroke="grey" stroke-width="5" />
<circle cx="461.35286456823724" cy="597.6945602087912" r="2.5" fill="grey" stroke="none" />
<circle cx="442.94760799999995" cy="588.220478" r="5" fill="black" stroke="none" />
<circle cx="442.94760799999995" cy="644.220478" r="5" fill="black" stroke="none" />
<path d="M442.94760799999995,644.220478 A155.0952020775309,155.0952020775309,0,0,0,510.31648813077845,654.7517101040168" stroke="grey" stroke-width="5" fill="none" />
<path d="M510.31648813077845,654.7517101040168 L14.947607999999946,224.22047799999996" stroke="grey" stroke-width="5" />
<circle cx="510.31648813077845" cy="654.7517101040168" r="2.5" fill="grey" stroke="none" />
<circle cx="442.94760799999995" cy="644.220478" r="5" fill="black" stroke="none" />
<circle cx="514.947608" cy="724.220478" r="5" fill="black" stroke="none" />
<path d="M490.94760799999995,484.22047799999996 A18.19173206349935,18.19173206349935,0,0,0,482.34608430624553,504.3907147650422" stroke="grey" stroke-width="5" fill="none" />
<path d="M482.34608430624553,504.3907147650422 L-33.052392000000054,8.220477999999957" stroke="grey" stroke-width="5" />
<circle cx="482.34608430624553" cy="504.3907147650422" r="2.5" fill="grey" stroke="none" />
<circle cx="490.94760799999995" cy="484.22047799999996" r="5" fill="black" stroke="none" />
<circle cx="466.94760799999995" cy="508.22047799999996" r="5" fill="black" stroke="none" />
<path d="M466.94760799999995,508.22047799999996 A34.05931407809251,34.05931407809251,0,0,0,472.16273274937737,519.6245618419257" stroke="grey" stroke-width="5" fill="none" />
<path d="M472.16273274937737,519.6245618419257 L-57.052392000000054,40.22047799999996" stroke="grey" stroke-width="5" />
<circle cx="472.16273274937737" cy="519.6245618419257" r="2.5" fill="grey" stroke="none" />
<circle cx="466.94760799999995" cy="508.22047799999996" r="5" fill="black" stroke="none" />
<circle cx="442.94760799999995" cy="540.220478" r="5" fill="black" stroke="none" />
<path d="M442.94760799999995,540.220478 A69.8044574756523,69.8044574756523,0,0,0,462.09336800200424,558.6152670729962" stroke="grey" stroke-width="5" fill="none" />
<path d="M462.09336800200424,558.6152670729962 L-57.052392000000054,88.22047799999996" stroke="grey" stroke-width="5" />
<circle cx="462.09336800200424" cy="558.6152670729962" r="2.5" fill="grey" stroke="none" />
<circle cx="442.94760799999995" cy="540.220478" r="5" fill="black" stroke="none" />
<circle cx="442.94760799999995" cy="588.220478" r="5" fill="black" stroke="none" />
<path d="M442.94760799999995,484.22047799999996 L467.17311732352897,490.92075723337257" stroke="grey" stroke-width="5" />
<circle cx="467.17311732352897" cy="490.92075723337257" r="2.5" fill="grey" stroke="none" />
<path d="M467.17311732352897,490.92075723337257 A34.05931407809251,34.05931407809251,0,0,0,466.94760799999995,508.22047799999996" stroke="grey" stroke-width="5" fill="none" />
<circle cx="442.94760799999995" cy="484.22047799999996" r="5" fill="black" stroke="none" />
<circle cx="466.94760799999995" cy="508.22047799999996" r="5" fill="black" stroke="none" />
<path d="M394.94760799999995,540.220478 L434.8100761864366,524.9586881997423" stroke="grey" stroke-width="5" />
<circle cx="434.8100761864366" cy="524.9586881997423" r="2.5" fill="grey" stroke="none" />
<path d="M434.8100761864366,524.9586881997423 A69.8044574756523,69.8044574756523,0,0,0,442.94760799999995,540.220478" stroke="grey" stroke-width="5" fill="none" />
<circle cx="394.94760799999995" cy="540.220478" r="5" fill="black" stroke="none" />
<circle cx="442.94760799999995" cy="540.220478" r="5" fill="black" stroke="none" />
<path d="M490.94760799999995,484.22047799999996 A18.19173206349935,18.19173206349935,0,0,0,496.00552350269487,517.7477681127128" stroke="grey" stroke-width="5" fill="none" />
<path d="M496.00552350269487,517.7477681127128 L-9.052392000000054,40.22047799999996" stroke="grey" stroke-width="5" />
<circle cx="496.00552350269487" cy="517.7477681127128" r="2.5" fill="grey" stroke="none" />
<circle cx="490.94760799999995" cy="484.22047799999996" r="5" fill="black" stroke="none" />
<circle cx="490.94760799999995" cy="540.220478" r="5" fill="black" stroke="none" />
<path d="M466.94760799999995,508.22047799999996 A34.05931407809251,34.05931407809251,0,0,0,492.52137569284844,533.2281063851468" stroke="grey" stroke-width="5" fill="none" />
<path d="M492.52137569284844,533.2281063851468 L-9.052392000000054,40.22047799999996" stroke="grey" stroke-width="5" />
<circle cx="492.52137569284844" cy="533.2281063851468" r="2.5" fill="grey" stroke="none" />
<circle cx="466.94760799999995" cy="508.22047799999996" r="5" fill="black" stroke="none" />
<circle cx="490.94760799999995" cy="540.220478" r="5" fill="black" stroke="none" />
<path d="M442.94760799999995,540.220478 L466.30478480909557,523.754265400319" stroke="grey" stroke-width="5" />
<circle cx="466.30478480909557" cy="523.754265400319" r="2.5" fill="grey" stroke="none" />
<path d="M466.30478480909557,523.7542654003189 A41.226601260231796,41.226601260231796,0,0,0,490.94760799999995,540.220478" stroke="grey" stroke-width="5" fill="none" />
<circle cx="442.94760799999995" cy="540.220478" r="5" fill="black" stroke="none" />
<circle cx="490.94760799999995" cy="540.220478" r="5" fill="black" stroke="none" />
<path d="M442.94760799999995,588.220478 L477.6122949878265,534.6182511943923" stroke="grey" stroke-width="5" />
<circle cx="477.6122949878265" cy="534.6182511943923" r="2.5" fill="grey" stroke="none" />
<path d="M477.6122949878265,534.6182511943923 A41.226601260231796,41.226601260231796,0,0,0,490.94760799999995,540.220478" stroke="grey" stroke-width="5" fill="none" />
<circle cx="442.94760799999995" cy="588.220478" r="5" fill="black" stroke="none" />
<circle cx="490.94760799999995" cy="540.220478" r="5" fill="black" stroke="none" />
<path d="M490.94760799999995,540.220478 A41.226601260231796,41.226601260231796,0,0,0,496.68517683215623,541.0931210646754" stroke="grey" stroke-width="5" fill="none" />
<path d="M496.68517683215623,541.0931210646754 L-9.052392000000054,112.22047799999996" stroke="grey" stroke-width="5" />
<circle cx="496.68517683215623" cy="541.0931210646754" r="2.5" fill="grey" stroke="none" />
<circle cx="490.94760799999995" cy="540.220478" r="5" fill="black" stroke="none" />
<circle cx="490.94760799999995" cy="612.220478" r="5" fill="black" stroke="none" />
<path d="M490.94760799999995,612.220478 A112.58499670679987,112.58499670679987,0,0,1,458.5851575071669,604.6909370708084" stroke="grey" stroke-width="5" fill="none" />
<path d="M458.5851575071669,604.6909370708084 L-57.052392000000054,144.22047799999996" stroke="grey" stroke-width="5" />
<circle cx="458.5851575071669" cy="604.6909370708084" r="2.5" fill="grey" stroke="none" />
<circle cx="490.94760799999995" cy="612.220478" r="5" fill="black" stroke="none" />
<circle cx="442.94760799999995" cy="644.220478" r="5" fill="black" stroke="none" />
<path d="M490.94760799999995,484.22047799999996 A18.19173206349935,18.19173206349935,0,0,1,511.30059670402505,485.74392657134763" stroke="grey" stroke-width="5" fill="none" />
<path d="M511.30059670402505,485.74392657134763 L94.94760799999995,-119.77952200000004" stroke="grey" stroke-width="5" />
<circle cx="511.30059670402505" cy="485.74392657134763" r="2.5" fill="grey" stroke="none" />
<circle cx="490.94760799999995" cy="484.22047799999996" r="5" fill="black" stroke="none" />
<circle cx="594.947608" cy="380.22047799999996" r="5" fill="black" stroke="none" />
<path d="M490.94760799999995,484.22047799999996 A18.19173206349935,18.19173206349935,0,0,1,518.1484433719758,501.25424026579475" stroke="grey" stroke-width="5" fill="none" />
<path d="M518.1484433719758,501.25424026579475 L118.94760799999995,8.220477999999957" stroke="grey" stroke-width="5" />
<circle cx="518.1484433719758" cy="501.25424026579475" r="2.5" fill="grey" stroke="none" />
<circle cx="490.94760799999995" cy="484.22047799999996" r="5" fill="black" stroke="none" />
<circle cx="618.947608" cy="508.22047799999996" r="5" fill="black" stroke="none" />
<path d="M618.947608,508.22047799999996 A119.2313285486249,119.2313285486249,0,0,0,619.1373734977652,504.7324352635966" stroke="grey" stroke-width="5" fill="none" />
<path d="M619.1373734977652,504.7324352635966 L206.94760799999995,8.220477999999957" stroke="grey" stroke-width="5" />
<circle cx="619.1373734977652" cy="504.7324352635966" r="2.5" fill="grey" stroke="none" />
<circle cx="618.947608" cy="508.22047799999996" r="5" fill="black" stroke="none" />
<circle cx="706.947608" cy="508.22047799999996" r="5" fill="black" stroke="none" />
<path d="M490.94760799999995,540.220478 A41.226601260231796,41.226601260231796,0,0,0,514.6779875097823,538.5251779247393" stroke="grey" stroke-width="5" fill="none" />
<path d="M514.6779875097823,538.5251779247393 L54.947607999999946,144.22047799999996" stroke="grey" stroke-width="5" />
<circle cx="514.6779875097823" cy="538.5251779247393" r="2.5" fill="grey" stroke="none" />
<circle cx="490.94760799999995" cy="540.220478" r="5" fill="black" stroke="none" />
<circle cx="554.947608" cy="644.220478" r="5" fill="black" stroke="none" />
<circle cx="500" cy="500" r="5" fill="red" stroke="none" />
</svg>