<?xml version="1.0" encoding="UTF-8"?>
<svg xmlns="http://www.w3.org/2000/svg" xmlns:xlink="http://www.w3.org/1999/xlink"
     width="1000" height="1000" viewBox="0 0 1000 1000">
<defs>
</defs>
<rect x="0" y="0" width="1000" height="1000" fill="white" />
<path d="M273.454592,672.197872 L387.82755836499734,585.2626231408392" stroke="grey" stroke-width="5" />
<circle cx="387.82755836499734" cy="585.2626231408392" r="2.5" fill="grey" stroke="none" />
<path d="M387.82755836499734,585.2626231408392 A140.89844416179636,140.89844416179636,0,0,0,393.45459200000005,592.1978720000001" stroke="grey" stroke-width="5" fill="none" />
<circle cx="273.454592" cy="672.197872" r="5" fill="black" stroke="none" />
<circle cx="393.454592" cy="592.197872" r="5" fill="black" stroke="none" />
<path d="M393.454592,592.197872 L414.9090654421755,573.6324844025439" stroke="grey" stroke-width="5" />
<circle cx="414.9090654421755" cy="573.6324844025439" r="2.5" fill="grey" stroke="none" />
<path d="M414.9090654421756,573.6324844025439 A112.52648534107358,112.52648534107358,0,0,1,393.454592,536.197872" stroke="grey" stroke-width="5" fill="none" />
<circle cx="393.454592" cy="592.197872" r="5" fill="black" stroke="none" />
<circle cx="393.454592" cy="536.197872" r="5" fill="black" stroke="none" />
<path d="M393.454592,536.197872 A112.52648534107358,112.52648534107358,0,0,1,389.1005600642697,519.066308640012" stroke="grey" stroke-width="5" fill="none" />
<path d="M389.1005600642697,519.066308640012 L-210.545408,36.19787199999999" stroke="grey" stroke-width="5" />
<circle cx="389.1005600642697" cy="519.066308640012" r="2.5" fill="grey" stroke="none" />
<circle cx="393.454592" cy="536.197872" r="5" fill="black" stroke="none" />
<circle cx="289.454592" cy="536.197872" r="5" fill="black" stroke="none" />
<path d="M289.454592,536.197872 L319.1247646155673,531.0968483264928" stroke="grey" stroke-width="5" />
<circle cx="319.1247646155673" cy="531.0968483264928" r="2.5" fill="grey" stroke="none" />
<path d="M319.1247646155673,531.0968483264928 A183.52892074878784,183.52892074878784,0,0,1,329.45459200000005,432.19787199999996" stroke="grey" stroke-width="5" fill="none" />
<circle cx="289.454592" cy="536.197872" r="5" fill="black" stroke="none" />
<circle cx="329.454592" cy="432.19787199999996" r="5" fill="black" stroke="none" />
<path d="M329.454592,432.19787199999996 L345.3357120452672,438.5115789870129" stroke="grey" stroke-width="5" />
<circle cx="345.3357120452672" cy="438.5115789870129" r="2.5" fill="grey" stroke="none" />
<path d="M345.3357120452672,438.5115789870129 A166.43878119961963,166.43878119961963,0,0,1,441.45459199999993,344.19787199999996" stroke="grey" stroke-width="5" fill="none" />
<circle cx="329.454592" cy="432.19787199999996" r="5" fill="black" stroke="none" />
<circle cx="441.454592" cy="344.19787199999996" r="5" fill="black" stroke="none" />
<path d="M441.454592,344.19787199999996 L453.4899966812017,376.22671464932256" stroke="grey" stroke-width="5" />
<circle cx="453.4899966812017" cy="376.22671464932256" r="2.5" fill="grey" stroke="none" />
<path d="M453.4899966812017,376.2267146493226 A132.22332084475434,132.22332084475434,0,0,1,489.45459200000005,368.19787199999996" stroke="grey" stroke-width="5" fill="none" />
<circle cx="441.454592" cy="344.19787199999996" r="5" fill="black" stroke="none" />
<circle cx="489.454592" cy="368.19787199999996" r="5" fill="black" stroke="none" />
<path d="M489.45459200000005,368.19787199999996 A132.22332084475434,132.22332084475434,0,0,0,443.4740610299038,380.46831048310327" stroke="grey" stroke-width="5" fill="none" />
<path d="M443.4740610299038,380.46831048310327 L-58.54540800000001,-123.80212800000001" stroke="grey" stroke-width="5" />
<circle cx="443.4740610299038" cy="380.46831048310327" r="2.5" fill="grey" stroke="none" />
<circle cx="489.454592" cy="368.19787199999996" r="5" fill="black" stroke="none" />
<circle cx="441.454592" cy="376.19787199999996" r="5" fill="black" stroke="none" />
<path d="M441.454592,344.19787199999996 L451.82836110301656,371.8047391625046" stroke="grey" stroke-width="5" />
<circle cx="451.82836110301656" cy="371.8047391625046" r="2.5" fill="grey" stroke="none" />
<path d="M451.82836110301656,371.8047391625046 A136.94718578786075,136.94718578786075,0,0,0,441.454592,376.19787199999996" stroke="grey" stroke-width="5" fill="none" />
<circle cx="441.454592" cy="344.19787199999996" r="5" fill="black" stroke="none" />
<circle cx="441.454592" cy="376.19787199999996" r="5" fill="black" stroke="none" />
<path d="M441.454592,376.19787199999996 L454.17286735833096,403.0923733390518" stroke="grey" stroke-width="5" />
<circle cx="454.17286735833096" cy="403.0923733390518" r="2.5" fill="grey" stroke="none" />
<path d="M454.17286735833096,403.0923733390518 A107.19708107600155,107.19708107600155,0,0,0,393.454592,488.197872" stroke="grey" stroke-width="5" fill="none" />
<circle cx="441.454592" cy="376.19787199999996" r="5" fill="black" stroke="none" />
<circle cx="393.454592" cy="488.19787199999996" r="5" fill="black" stroke="none" />
<path d="M329.454592,432.19787199999996 L400.38643580572295,460.3975755827059" stroke="grey" stroke-width="5" />
<circle cx="400.38643580572295" cy="460.3975755827059" r="2.5" fill="grey" stroke="none" />
<path d="M400.38643580572295,460.3975755827059 A107.19708107600155,107.19708107600155,0,0,0,393.454592,488.197872" stroke="grey" stroke-width="5" fill="none" />
<circle cx="329.454592" cy="432.19787199999996" r="5" fill="black" stroke="none" />
<circle cx="393.454592" cy="488.19787199999996" r="5" fill="black" stroke="none" />
<path d="M393.454592,488.197872 A107.19708107600155,107.19708107600155,0,0,0,398.50072447359446,534.4834925555642" stroke="grey" stroke-width="5" fill="none" />
<path d="M398.50072447359446,534.4834925555642 L-106.54540800000001,36.19787199999999" stroke="grey" stroke-width="5" />
<circle cx="398.50072447359446" cy="534.4834925555642" r="2.5" fill="grey" stroke="none" />
<circle cx="393.454592" cy="488.19787199999996" r="5" fill="black" stroke="none" />
<circle cx="393.454592" cy="536.197872" r="5" fill="black" stroke="none" />
<path d="M489.45459200000005,368.19787199999996 A132.22332084475434,132.22332084475434,0,0,1,522.343019049278,369.6781059262165" stroke="grey" stroke-width="5" fill="none" />
<path d="M522.343019049278,369.6781059262165 L29.45459199999999,-171.802128" stroke="grey" stroke-width="5" />
<circle cx="522.343019049278" cy="369.6781059262165" r="2.5" fill="grey" stroke="none" />
<circle cx="489.454592" cy="368.19787199999996" r="5" fill="black" stroke="none" />
<circle cx="529.454592" cy="328.19787199999996" r="5" fill="black" stroke="none" />
<path d="M489.454592,368.19787199999996 L493.82225400284045,422.7872388940181" stroke="grey" stroke-width="5" />
<circle cx="493.82225400284045" cy="422.7872388940181" r="2.5" fill="grey" stroke="none" />
<path d="M493.82225400284045,422.7872388940181 A77.45950569952566,77.45950569952566,0,0,1,537.4545919999999,432.19787199999996" stroke="grey" stroke-width="5" fill="none" />
<circle cx="489.454592" cy="368.19787199999996" r="5" fill="black" stroke="none" />
<circle cx="537.454592" cy="432.19787199999996" r="5" fill="black" stroke="none" />
<path d="M441.454592,376.19787199999996 L470.66585966809726,437.9690206251498" stroke="grey" stroke-width="5" />
<circle cx="470.66585966809726" cy="437.9690206251498" r="2.5" fill="grey" stroke="none" />
<path d="M470.66585966809726,437.9690206251498 A68.61730241866734,68.61730241866734,0,0,1,489.454592,432.19787199999996" stroke="grey" stroke-width="5" fill="none" />
<circle cx="441.454592" cy="376.19787199999996" r="5" fill="black" stroke="none" />
<circle cx="489.454592" cy="432.19787199999996" r="5" fill="black" stroke="none" />
<path d="M393.454592,488.19787199999996 L440.63991615754605,493.4246316124729" stroke="grey" stroke-width="5" />
<circle cx="440.63991615754605" cy="493.4246316124729" r="2.5" fill="grey" stroke="none" />
<path d="M440.63991615754605,493.4246316124729 A59.72315315867749,59.72315315867749,0,0,1,441.454592,488.19787199999996" stroke="grey" stroke-width="5" fill="none" />
<circle cx="393.454592" cy="488.19787199999996" r="5" fill="black" stroke="none" />
<circle cx="441.454592" cy="488.19787199999996" r="5" fill="black" stroke="none" />
<path d="M393.454592,536.197872 L464.30132259331293,512.1283139235485" stroke="grey" stroke-width="5" />
<circle cx="464.30132259331293" cy="512.1283139235485" r="2.5" fill="grey" stroke="none" />
<path d="M464.30132259331293,512.1283139235485 A37.70267321046145,37.70267321046145,0,0,0,489.454592,536.197872" stroke="grey" stroke-width="5" fill="none" />
<circle cx="393.454592" cy="536.197872" r="5" fill="black" stroke="none" />
<circle cx="489.454592" cy="536.197872" r="5" fill="black" stroke="none" />
<path d="M393.454592,592.197872 L429.82671523253373,560.7236637247698" stroke="grey" stroke-width="5" />
<circle cx="429.82671523253373" cy="560.7236637247698" r="2.5" fill="grey" stroke="none" />
<path d="M429.82671523253373,560.72366372477 A92.79899369721014,92.79899369721014,0,0,0,489.454592,592.197872" stroke="grey" stroke-width="5" fill="none" />
<circle cx="393.454592" cy="592.197872" r="5" fill="black" stroke="none" />
<circle cx="489.454592" cy="592.197872" r="5" fill="black" stroke="none" />
<path d="M537.454592,432.19787199999996 L533.1790532746394,439.93766059323457" stroke="grey" stroke-width="5" />
<circle cx="533.1790532746394" cy="439.93766059323457" r="2.5" fill="grey" stroke="none" />
<path d="M533.1790532746394,439.93766059323457 A68.61730241866734,68.61730241866734,0,0,0,489.454592,432.19787199999996" stroke="grey" stroke-width="5" fill="none" />
<circle cx="537.454592" cy="432.19787199999996" r="5" fill="black" stroke="none" />
<circle cx="489.454592" cy="432.19787199999996" r="5" fill="black" stroke="none" />
<path d="M489.454592,432.19787199999996 L490.82148386915594,440.9863586545392" stroke="grey" stroke-width="5" />
<circle cx="490.82148386915594" cy="440.9863586545392" r="2.5" fill="grey" stroke="none" />
<path d="M490.82148386915594,440.9863586545392 A59.72315315867749,59.72315315867749,0,0,0,441.454592,488.19787199999996" stroke="grey" stroke-width="5" fill="none" />
<circle cx="489.454592" cy="432.19787199999996" r="5" fill="black" stroke="none" />
<circle cx="441.454592" cy="488.19787199999996" r="5" fill="black" stroke="none" />
<path d="M441.454592,488.19787199999996 L463.040826395543,492.5494259489314" stroke="grey" stroke-width="5" />
<circle cx="463.040826395543" cy="492.5494259489314" r="2.5" fill="grey" stroke="none" />
<path d="M463.040826395543,492.5494259489314 A37.70267321046145,37.70267321046145,0,0,0,489.454592,536.197872" stroke="grey" stroke-width="5" fill="none" />
<circle cx="441.454592" cy="488.19787199999996" r="5" fill="black" stroke="none" />
<circle cx="489.454592" cy="536.197872" r="5" fill="black" stroke="none" />
<path d="M489.454592,536.197872 A37.70267321046145,37.70267321046145,0,0,0,495.7155777680923,537.4584475566404" stroke="grey" stroke-width="5" fill="none" />
<path d="M495.7155777680923,537.4584475566404 L-10.545408000000009,92.19787199999999" stroke="grey" stroke-width="5" />
<circle cx="495.7155777680923" cy="537.4584475566404" r="2.5" fill="grey" stroke="none" />
<circle cx="489.454592" cy="536.197872" r="5" fill="black" stroke="none" />
<circle cx="489.454592" cy="592.197872" r="5" fill="black" stroke="none" />
<path d="M489.454592,592.197872 A92.79899369721014,92.79899369721014,0,0,0,531.1915805445915,587.3998771986844" stroke="grey" stroke-width="5" fill="none" />
<path d="M531.1915805445915,587.3998771986844 L61.45459199999999,172.197872" stroke="grey" stroke-width="5" />
<circle cx="531.1915805445915" cy="587.3998771986844" r="2.5" fill="grey" stroke="none" />
<circle cx="489.454592" cy="592.197872" r="5" fill="black" stroke="none" />
<circle cx="561.454592" cy="672.197872" r="5" fill="black" stroke="none" />
<path d="M537.454592,432.19787199999996 L522.1566479517314,459.8909559480922" stroke="grey" stroke-width="5" />
<circle cx="522.1566479517314" cy="459.8909559480922" r="2.5" fill="grey" stroke="none" />
<path d="M522.1566479517314,459.89095594809214 A45.82196485545822,45.82196485545822,0,0,0,513.454592,456.197872" stroke="grey" stroke-width="5" fill="none" />
<circle cx="537.454592" cy="432.19787199999996" r="5" fill="black" stroke="none" />
<circle cx="513.454592" cy="456.19787199999996" r="5" fill="black" stroke="none" />
<path d="M513.454592,456.19787199999996 L504.64726135152387,484.8705975945683" stroke="grey" stroke-width="5" />
<circle cx="504.64726135152387" cy="484.8705975945683" r="2.5" fill="grey" stroke="none" />
<path d="M504.64726135152387,484.8705975945683 A15.827060852061209,15.827060852061209,0,0,0,489.454592,488.197872" stroke="grey" stroke-width="5" fill="none" />
<circle cx="513.454592" cy="456.19787199999996" r="5" fill="black" stroke="none" />
<circle cx="489.454592" cy="488.19787199999996" r="5" fill="black" stroke="none" />
<path d="M489.454592,488.197872 A15.827060852061209,15.827060852061209,0,0,0,495.57318354605417,515.1953661126648" stroke="grey" stroke-width="5" fill="none" />
<path d="M495.57318354605417,515.1953661126648 L-10.545408000000009,36.19787199999999" stroke="grey" stroke-width="5" />
<circle cx="495.57318354605417" cy="515.1953661126648" r="2.5" fill="grey" stroke="none" />
<circle cx="489.454592" cy="488.19787199999996" r="5" fill="black" stroke="none" />
<circle cx="489.454592" cy="536.197872" r="5" fill="black" stroke="none" />
<path d="M489.454592,432.19787199999996 L492.95787945999155,454.7224006652866" stroke="grey" stroke-width="5" />
<circle cx="492.95787945999155" cy="454.7224006652866" r="2.5" fill="grey" stroke="none" />
<path d="M492.95787945999155,454.7224006652866 A45.82196485545822,45.82196485545822,0,0,1,513.454592,456.197872" stroke="grey" stroke-width="5" fill="none" />
<circle cx="489.454592" cy="432.19787199999996" r="5" fill="black" stroke="none" />
<circle cx="513.454592" cy="456.19787199999996" r="5" fill="black" stroke="none" />
<path d="M441.454592,488.19787199999996 L484.485050001247,496.8723520417027" stroke="grey" stroke-width="5" />
<circle cx="484.485050001247" cy="496.8723520417027" r="2.5" fill="grey" stroke="none" />
<path d="M484.485050001247,496.8723520417027 A15.827060852061209,15.827060852061209,0,0,1,489.454592,488.197872" stroke="grey" stroke-width="5" fill="none" />
<circle cx="441.454592" cy="488.19787199999996" r="5" fill="black" stroke="none" />
<circle cx="489.454592" cy="488.19787199999996" r="5" fill="black" stroke="none" />
<path d="M537.454592,432.19787199999996 L518.9885491861069,465.62600274885614" stroke="grey" stroke-width="5" />
<circle cx="518.9885491861069" cy="465.62600274885614" r="2.5" fill="grey" stroke="none" />
<path d="M518.9885491861069,465.62600274885614 A39.27004822017472,39.27004822017472,0,0,1,537.454592,488.19787199999996" stroke="grey" stroke-width="5" fill="none" />
<circle cx="537.454592" cy="432.19787199999996" r="5" fill="black" stroke="none" />
<circle cx="537.454592" cy="488.19787199999996" r="5" fill="black" stroke="none" />
<path d="M513.454592,456.19787199999996 L511.5307686671546,462.46097948588147" stroke="grey" stroke-width="5" />
<circle cx="511.5307686671546" cy="462.46097948588147" r="2.5" fill="grey" stroke="none" />
<path d="M511.5307686671546,462.46097948588147 A39.27004822017472,39.27004822017472,0,0,1,537.454592,488.19787199999996" stroke="grey" stroke-width="5" fill="none" />
<circle cx="513.454592" cy="456.19787199999996" r="5" fill="black" stroke="none" />
<circle cx="537.454592" cy="488.19787199999996" r="5" fill="black" stroke="none" />
<path d="M489.454592,488.197872 A15.827060852061209,15.827060852061209,0,0,1,515.0953750667559,495.2433723281284" stroke="grey" stroke-width="5" fill="none" />
<path d="M515.0953750667559,495.2433723281284 L37.45459199999999,-11.80212800000001" stroke="grey" stroke-width="5" />
<circle cx="515.0953750667559" cy="495.2433723281284" r="2.5" fill="grey" stroke="none" />
<circle cx="489.454592" cy="488.19787199999996" r="5" fill="black" stroke="none" />
<circle cx="537.454592" cy="488.19787199999996" r="5" fill="black" stroke="none" />
<path d="M489.454592,536.197872 A37.70267321046145,37.70267321046145,0,0,0,535.959676812459,488.6689272017895" stroke="grey" stroke-width="5" fill="none" />
<path d="M535.959676812459,488.6689272017895 L37.45459199999999,-11.80212800000001" stroke="grey" stroke-width="5" />
<circle cx="535.959676812459" cy="488.6689272017895" r="2.5" fill="grey" stroke="none" />
<circle cx="489.454592" cy="536.197872" r="5" fill="black" stroke="none" />
<circle cx="537.454592" cy="488.19787199999996" r="5" fill="black" stroke="none" />
<path d="M537.454592,488.19787199999996 A39.27004822017472,39.27004822017472,0,0,1,520.7456971968534,533.3429563031133" stroke="grey" stroke-width="5" fill="none" />
<path d="M520.7456971968534,533.3429563031133 L37.45459199999999,60.19787199999999" stroke="grey" stroke-width="5" />
<circle cx="520.7456971968534" cy="533.3429563031133" r="2.5" fill="grey" stroke="none" />
<circle cx="537.454592" cy="488.19787199999996" r="5" fill="black" stroke="none" />
<circle cx="537.454592" cy="560.197872" r="5" fill="black" stroke="none" />
<path d="M537.454592,560.197872 A70.898732394979,70.898732394979,0,0,1,491.9432740593355,570.439473467168" stroke="grey" stroke-width="5" fill="none" />
<path d="M491.9432740593355,570.439473467168 L-10.545408000000009,92.19787199999999" stroke="grey" stroke-width="5" />
<circle cx="491.9432740593355" cy="570.439473467168" r="2.5" fill="grey" stroke="none" />
<circle cx="537.454592" cy="560.197872" r="5" fill="black" stroke="none" />
<circle cx="489.454592" cy="592.197872" r="5" fill="black" stroke="none" />
<path d="M537.4545919999999,432.19787199999996 A77.45950569952566,77.45950569952566,0,0,1,549.2354481210663,440.2016248420357" stroke="grey" stroke-width="5" fill="none" />
<path d="M549.2354481210663,440.2016248420357 L141.454592,-171.802128" stroke="grey" stroke-width="5" />
<circle cx="549.2354481210663" cy="440.2016248420357" r="2.5" fill="grey" stroke="none" />
<circle cx="537.454592" cy="432.19787199999996" r="5" fill="black" stroke="none" />
<circle cx="641.454592" cy="328.19787199999996" r="5" fill="black" stroke="none" />
<path d="M537.4545919999999,432.19787199999996 A77.45950569952566,77.45950569952566,0,0,1,574.8799130059006,480.1764369639658" stroke="grey" stroke-width="5" fill="none" />
<path d="M574.8799130059006,480.1764369639658 L165.454592,-43.80212800000001" stroke="grey" stroke-width="5" />
<circle cx="574.8799130059006" cy="480.1764369639658" r="2.5" fill="grey" stroke="none" />
<circle cx="537.454592" cy="432.19787199999996" r="5" fill="black" stroke="none" />
<circle cx="665.454592" cy="456.19787199999996" r="5" fill="black" stroke="none" />
<path d="M665.454592,456.19787199999996 A171.15445781870494,171.15445781870494,0,0,1,668.6543960832657,470.8530771263284" stroke="grey" stroke-width="5" fill="none" />
<path d="M668.6543960832657,470.8530771263284 L253.454592,-43.80212800000001" stroke="grey" stroke-width="5" />
<circle cx="668.6543960832657" cy="470.8530771263284" r="2.5" fill="grey" stroke="none" />
<circle cx="665.454592" cy="456.19787199999996" r="5" fill="black" stroke="none" />
<circle cx="753.454592" cy="456.19787199999996" r="5" fill="black" stroke="none" />
<path d="M537.454592,488.19787199999996 A39.27004822017472,39.27004822017472,0,0,1,529.0622690432517,526.4106267489527" stroke="grey" stroke-width="5" fill="none" />
<path d="M529.0622690432517,526.4106267489527 L101.45459199999999,92.19787199999999" stroke="grey" stroke-width="5" />
<circle cx="529.0622690432517" cy="526.4106267489527" r="2.5" fill="grey" stroke="none" />
<circle cx="537.454592" cy="488.19787199999996" r="5" fill="black" stroke="none" />
<circle cx="601.454592" cy="592.197872" r="5" fill="black" stroke="none" />
<circle cx="500" cy="500" r="5" fill="red" stroke="none" />
</svg>