<?xml version="1.0" encoding="UTF-8"?>
<svg xmlns="http://www.w3.org/2000/svg" xmlns:xlink="http://www.w3.org/1999/xlink"
     width="1000" height="1000" viewBox="0 0 1000 1000">
<defs>
</defs>
<rect x="0" y="0" width="1000" height="1000" fill="white" />
<path d="M349.85746400000005,619.2443740000001 L461.2500297646928,530.7755288163498" stroke="grey" stroke-width="5" />
<circle cx="461.2500297646928" cy="530.7755288163498" r="2.5" fill="grey" stroke="none" />
<path d="M461.2500297646928,530.7755288163498 A49.48427393792067,49.48427393792067,0,0,0,469.857464,539.244374" stroke="grey" stroke-width="5" fill="none" />
<circle cx="349.85746400000005" cy="619.2443740000001" r="5" fill="black" stroke="none" />
<circle cx="469.85746400000005" cy="539.2443740000001" r="5" fill="black" stroke="none" />
<path d="M469.85746400000005,539.2443740000001 L478.99307029522384,527.3501806857242" stroke="grey" stroke-width="5" />
<circle cx="478.99307029522384" cy="527.3501806857242" r="2.5" fill="grey" stroke="none" />
<path d="M478.99307029522384,527.3501806857242 A34.486569547624896,34.486569547624896,0,0,1,469.857464,483.24437400000005" stroke="grey" stroke-width="5" fill="none" />
<circle cx="469.85746400000005" cy="539.2443740000001" r="5" fill="black" stroke="none" />
<circle cx="469.85746400000005" cy="483.24437400000005" r="5" fill="black" stroke="none" />
<path d="M469.857464,483.24437400000005 A34.486569547624896,34.486569547624896,0,0,0,465.77935736139983,495.72552967440515" stroke="grey" stroke-width="5" fill="none" />
<path d="M465.77935736139983,495.72552967440515 L365.85746400000005,483.24437400000005" stroke="grey" stroke-width="5" />
<circle cx="465.77935736139983" cy="495.72552967440515" r="2.5" fill="grey" stroke="none" />
<circle cx="469.85746400000005" cy="483.24437400000005" r="5" fill="black" stroke="none" />
<circle cx="365.85746400000005" cy="483.24437400000005" r="5" fill="black" stroke="none" />
<path d="M365.85746400000005,483.24437400000005 A135.18495096408907,135.18495096408907,0,0,1,416.8826771758314,393.3862972516848" stroke="grey" stroke-width="5" fill="none" />
<path d="M416.8826771758314,393.3862972516848 L405.85746400000005,379.24437400000005" stroke="grey" stroke-width="5" />
<circle cx="416.8826771758314" cy="393.3862972516848" r="2.5" fill="grey" stroke="none" />
<circle cx="365.85746400000005" cy="483.24437400000005" r="5" fill="black" stroke="none" />
<circle cx="405.85746400000005" cy="379.24437400000005" r="5" fill="black" stroke="none" />
<path d="M405.85746400000005,379.24437400000005 A153.11674727201842,153.11674727201842,0,0,1,513.050318113326,347.4404133058032" stroke="grey" stroke-width="5" fill="none" />
<path d="M513.050318113326,347.4404133058032 L517.857464,291.24437400000005" stroke="grey" stroke-width="5" />
<circle cx="513.050318113326" cy="347.4404133058032" r="2.5" fill="grey" stroke="none" />
<circle cx="405.85746400000005" cy="379.24437400000005" r="5" fill="black" stroke="none" />
<circle cx="517.857464" cy="291.24437400000005" r="5" fill="black" stroke="none" />
<path d="M517.857464,291.24437400000005 L516.7174457067072,304.5713073466272" stroke="grey" stroke-width="5" />
<circle cx="516.7174457067072" cy="304.5713073466272" r="2.5" fill="grey" stroke="none" />
<path d="M516.7174457067072,304.5713073466272 A196.14241484993283,196.14241484993283,0,0,1,565.857464,315.2443740000001" stroke="grey" stroke-width="5" fill="none" />
<circle cx="517.857464" cy="291.24437400000005" r="5" fill="black" stroke="none" />
<circle cx="565.857464" cy="315.24437400000005" r="5" fill="black" stroke="none" />
<path d="M565.857464,315.24437400000005 L559.6501984003014,332.65815175525324" stroke="grey" stroke-width="5" />
<circle cx="559.6501984003014" cy="332.65815175525324" r="2.5" fill="grey" stroke="none" />
<path d="M559.6501984003014,332.65815175525324 A177.65539773157235,177.65539773157235,0,0,0,517.857464,323.244374" stroke="grey" stroke-width="5" fill="none" />
<circle cx="565.857464" cy="315.24437400000005" r="5" fill="black" stroke="none" />
<circle cx="517.857464" cy="323.24437400000005" r="5" fill="black" stroke="none" />
<path d="M517.857464,291.24437400000005 L515.1417757773265,322.9910539846295" stroke="grey" stroke-width="5" />
<circle cx="515.1417757773265" cy="322.9910539846295" r="2.5" fill="grey" stroke="none" />
<path d="M515.1417757773265,322.9910539846295 A177.65539773157235,177.65539773157235,0,0,1,517.857464,323.244374" stroke="grey" stroke-width="5" fill="none" />
<circle cx="517.857464" cy="291.24437400000005" r="5" fill="black" stroke="none" />
<circle cx="517.857464" cy="323.24437400000005" r="5" fill="black" stroke="none" />
<path d="M517.857464,323.24437400000005 L507.179691714451,428.9344274486682" stroke="grey" stroke-width="5" />
<circle cx="507.179691714451" cy="428.9344274486682" r="2.5" fill="grey" stroke="none" />
<path d="M507.179691714451,428.9344274486682 A71.42733072965252,71.42733072965252,0,0,0,469.857464,435.24437400000005" stroke="grey" stroke-width="5" fill="none" />
<circle cx="517.857464" cy="323.24437400000005" r="5" fill="black" stroke="none" />
<circle cx="469.85746400000005" cy="435.24437400000005" r="5" fill="black" stroke="none" />
<path d="M405.85746400000005,379.24437400000005 L456.08351029914365,443.6687874485402" stroke="grey" stroke-width="5" />
<circle cx="456.08351029914365" cy="443.6687874485402" r="2.5" fill="grey" stroke="none" />
<path d="M456.08351029914365,443.6687874485402 A71.42733072965252,71.42733072965252,0,0,1,469.857464,435.24437400000005" stroke="grey" stroke-width="5" fill="none" />
<circle cx="405.85746400000005" cy="379.24437400000005" r="5" fill="black" stroke="none" />
<circle cx="469.85746400000005" cy="435.24437400000005" r="5" fill="black" stroke="none" />
<path d="M469.85746400000005,435.24437400000005 L485.4465699125693,468.7346653327773" stroke="grey" stroke-width="5" />
<circle cx="485.4465699125693" cy="468.7346653327773" r="2.5" fill="grey" stroke="none" />
<path d="M485.4465699125693,468.73466533277735 A34.486569547624896,34.486569547624896,0,0,0,469.857464,483.24437400000005" stroke="grey" stroke-width="5" fill="none" />
<circle cx="469.85746400000005" cy="435.24437400000005" r="5" fill="black" stroke="none" />
<circle cx="469.85746400000005" cy="483.24437400000005" r="5" fill="black" stroke="none" />
<path d="M565.857464,315.2443740000001 A196.14241484993283,196.14241484993283,0,0,1,583.5750988708322,322.5540934484716" stroke="grey" stroke-width="5" fill="none" />
<path d="M583.5750988708322,322.5540934484716 L605.857464,275.24437400000005" stroke="grey" stroke-width="5" />
<circle cx="583.5750988708322" cy="322.5540934484716" r="2.5" fill="grey" stroke="none" />
<circle cx="565.857464" cy="315.24437400000005" r="5" fill="black" stroke="none" />
<circle cx="605.857464" cy="275.24437400000005" r="5" fill="black" stroke="none" />
<path d="M565.857464,315.24437400000005 L555.726063874247,343.6668649190246" stroke="grey" stroke-width="5" />
<circle cx="555.726063874247" cy="343.6668649190246" r="2.5" fill="grey" stroke="none" />
<path d="M555.726063874247,343.6668649190246 A165.96819972260698,165.96819972260698,0,0,1,613.857464,379.24437400000005" stroke="grey" stroke-width="5" fill="none" />
<circle cx="565.857464" cy="315.24437400000005" r="5" fill="black" stroke="none" />
<circle cx="613.857464" cy="379.24437400000005" r="5" fill="black" stroke="none" />
<path d="M517.857464,323.24437400000005 L513.8258525116854,363.14981703523995" stroke="grey" stroke-width="5" />
<circle cx="513.8258525116854" cy="363.14981703523995" r="2.5" fill="grey" stroke="none" />
<path d="M513.8258525116854,363.14981703523995 A137.5468166667741,137.5468166667741,0,0,1,565.857464,379.24437400000005" stroke="grey" stroke-width="5" fill="none" />
<circle cx="517.857464" cy="323.24437400000005" r="5" fill="black" stroke="none" />
<circle cx="565.857464" cy="379.24437400000005" r="5" fill="black" stroke="none" />
<path d="M469.85746400000005,435.24437400000005 L471.65290354519954,439.10154154869434" stroke="grey" stroke-width="5" />
<circle cx="471.65290354519954" cy="439.10154154869434" r="2.5" fill="grey" stroke="none" />
<path d="M471.6529035451995,439.10154154869434 A67.17276322411611,67.17276322411611,0,0,1,517.857464,435.24437400000005" stroke="grey" stroke-width="5" fill="none" />
<circle cx="469.85746400000005" cy="435.24437400000005" r="5" fill="black" stroke="none" />
<circle cx="517.857464" cy="435.24437400000005" r="5" fill="black" stroke="none" />
<path d="M469.857464,483.24437400000005 A34.486569547624896,34.486569547624896,0,0,1,533.421818582479,491.49673463879714" stroke="grey" stroke-width="5" fill="none" />
<path d="M533.421818582479,491.49673463879714 L565.857464,483.24437400000005" stroke="grey" stroke-width="5" />
<circle cx="533.421818582479" cy="491.49673463879714" r="2.5" fill="grey" stroke="none" />
<circle cx="469.85746400000005" cy="483.24437400000005" r="5" fill="black" stroke="none" />
<circle cx="565.857464" cy="483.24437400000005" r="5" fill="black" stroke="none" />
<path d="M469.857464,539.244374 A49.48427393792067,49.48427393792067,0,0,0,542.5091380033049,525.3311380198197" stroke="grey" stroke-width="5" fill="none" />
<path d="M542.5091380033049,525.3311380198197 L565.857464,539.2443740000001" stroke="grey" stroke-width="5" />
<circle cx="542.5091380033049" cy="525.3311380198197" r="2.5" fill="grey" stroke="none" />
<circle cx="469.85746400000005" cy="539.2443740000001" r="5" fill="black" stroke="none" />
<circle cx="565.857464" cy="539.2443740000001" r="5" fill="black" stroke="none" />
<path d="M613.857464,379.24437400000005 L594.3598337098709,399.9232866376564" stroke="grey" stroke-width="5" />
<circle cx="594.3598337098709" cy="399.9232866376564" r="2.5" fill="grey" stroke="none" />
<path d="M594.3598337098709,399.9232866376564 A137.5468166667741,137.5468166667741,0,0,0,565.857464,379.24437400000005" stroke="grey" stroke-width="5" fill="none" />
<circle cx="613.857464" cy="379.24437400000005" r="5" fill="black" stroke="none" />
<circle cx="565.857464" cy="379.24437400000005" r="5" fill="black" stroke="none" />
<path d="M565.857464,379.24437400000005 L532.1623425610065,441.0274314604525" stroke="grey" stroke-width="5" />
<circle cx="532.1623425610065" cy="441.0274314604525" r="2.5" fill="grey" stroke="none" />
<path d="M532.1623425610065,441.0274314604525 A67.17276322411611,67.17276322411611,0,0,0,517.857464,435.24437400000005" stroke="grey" stroke-width="5" fill="none" />
<circle cx="565.857464" cy="379.24437400000005" r="5" fill="black" stroke="none" />
<circle cx="517.857464" cy="435.24437400000005" r="5" fill="black" stroke="none" />
<path d="M517.857464,435.24437400000005 A67.17276322411611,67.17276322411611,0,0,1,565.0988467571383,483.4373833572772" stroke="grey" stroke-width="5" fill="none" />
<path d="M565.0988467571383,483.4373833572772 L565.857464,483.24437400000005" stroke="grey" stroke-width="5" />
<circle cx="565.0988467571383" cy="483.4373833572772" r="2.5" fill="grey" stroke="none" />
<circle cx="517.857464" cy="435.24437400000005" r="5" fill="black" stroke="none" />
<circle cx="565.857464" cy="483.24437400000005" r="5" fill="black" stroke="none" />
<path d="M565.857464,483.24437400000005 A67.95554846488382,67.95554846488382,0,0,1,558.3767641293072,534.7866350335069" stroke="grey" stroke-width="5" fill="none" />
<path d="M558.3767641293072,534.7866350335069 L565.857464,539.2443740000001" stroke="grey" stroke-width="5" />
<circle cx="558.3767641293072" cy="534.7866350335069" r="2.5" fill="grey" stroke="none" />
<circle cx="565.857464" cy="483.24437400000005" r="5" fill="black" stroke="none" />
<circle cx="565.857464" cy="539.2443740000001" r="5" fill="black" stroke="none" />
<path d="M565.857464,539.2443740000001 A76.66372320180633,76.66372320180633,0,0,1,557.9822253371414,550.1536439365689" stroke="grey" stroke-width="5" fill="none" />
<path d="M557.9822253371414,550.1536439365689 L637.857464,619.2443740000001" stroke="grey" stroke-width="5" />
<circle cx="557.9822253371414" cy="550.1536439365689" r="2.5" fill="grey" stroke="none" />
<circle cx="565.857464" cy="539.2443740000001" r="5" fill="black" stroke="none" />
<circle cx="637.857464" cy="619.2443740000001" r="5" fill="black" stroke="none" />
<path d="M613.857464,379.24437400000005 L590.5858242013945,403.9259480769276" stroke="grey" stroke-width="5" />
<circle cx="590.5858242013945" cy="403.9259480769276" r="2.5" fill="grey" stroke="none" />
<path d="M590.5858242013945,403.9259480769276 A132.045503517398,132.045503517398,0,0,0,589.857464,403.24437400000005" stroke="grey" stroke-width="5" fill="none" />
<circle cx="613.857464" cy="379.24437400000005" r="5" fill="black" stroke="none" />
<circle cx="589.857464" cy="403.24437400000005" r="5" fill="black" stroke="none" />
<path d="M589.857464,403.24437400000005 L562.8517970237507,432.3232072712632" stroke="grey" stroke-width="5" />
<circle cx="562.8517970237507" cy="432.3232072712632" r="2.5" fill="grey" stroke="none" />
<path d="M562.8517970237507,432.3232072712632 A92.36068786644655,92.36068786644655,0,0,1,565.857464,435.24437400000005" stroke="grey" stroke-width="5" fill="none" />
<circle cx="589.857464" cy="403.24437400000005" r="5" fill="black" stroke="none" />
<circle cx="565.857464" cy="435.24437400000005" r="5" fill="black" stroke="none" />
<path d="M565.857464,435.24437400000005 L548.4554650902745,452.35522620424814" stroke="grey" stroke-width="5" />
<circle cx="548.4554650902745" cy="452.35522620424814" r="2.5" fill="grey" stroke="none" />
<path d="M548.4554650902745,452.3552262042482 A67.95554846488382,67.95554846488382,0,0,1,565.857464,483.24437400000005" stroke="grey" stroke-width="5" fill="none" />
<circle cx="565.857464" cy="435.24437400000005" r="5" fill="black" stroke="none" />
<circle cx="565.857464" cy="483.24437400000005" r="5" fill="black" stroke="none" />
<path d="M565.857464,379.24437400000005 L563.2234333370768,384.07410782644206" stroke="grey" stroke-width="5" />
<circle cx="563.2234333370768" cy="384.07410782644206" r="2.5" fill="grey" stroke="none" />
<path d="M563.2234333370768,384.07410782644206 A132.045503517398,132.045503517398,0,0,1,589.857464,403.24437400000005" stroke="grey" stroke-width="5" fill="none" />
<circle cx="565.857464" cy="379.24437400000005" r="5" fill="black" stroke="none" />
<circle cx="589.857464" cy="403.24437400000005" r="5" fill="black" stroke="none" />
<path d="M517.857464,435.24437400000005 A67.17276322411611,67.17276322411611,0,0,1,547.8973028244397,452.90405005409616" stroke="grey" stroke-width="5" fill="none" />
<path d="M547.8973028244397,452.90405005409616 L565.857464,435.24437400000005" stroke="grey" stroke-width="5" />
<circle cx="547.8973028244397" cy="452.90405005409616" r="2.5" fill="grey" stroke="none" />
<circle cx="517.857464" cy="435.24437400000005" r="5" fill="black" stroke="none" />
<circle cx="565.857464" cy="435.24437400000005" r="5" fill="black" stroke="none" />
<path d="M613.857464,379.24437400000005 L589.857624782301,404.6982661456446" stroke="grey" stroke-width="5" />
<circle cx="589.857624782301" cy="404.6982661456446" r="2.5" fill="grey" stroke="none" />
<path d="M589.857624782301,404.6982661456446 A130.98401889987636,130.98401889987636,0,0,1,613.857464,435.24437400000005" stroke="grey" stroke-width="5" fill="none" />
<circle cx="613.857464" cy="379.24437400000005" r="5" fill="black" stroke="none" />
<circle cx="613.857464" cy="435.24437400000005" r="5" fill="black" stroke="none" />
<path d="M589.857464,403.24437400000005 L589.1351197075801,404.0221710920771" stroke="grey" stroke-width="5" />
<circle cx="589.1351197075801" cy="404.0221710920771" r="2.5" fill="grey" stroke="none" />
<path d="M589.1351197075801,404.0221710920771 A130.98401889987636,130.98401889987636,0,0,1,613.857464,435.24437400000005" stroke="grey" stroke-width="5" fill="none" />
<circle cx="589.857464" cy="403.24437400000005" r="5" fill="black" stroke="none" />
<circle cx="613.857464" cy="435.24437400000005" r="5" fill="black" stroke="none" />
<path d="M565.857464,435.24437400000005 A92.36068786644655,92.36068786644655,0,0,1,580.2842498046081,454.3389017162918" stroke="grey" stroke-width="5" fill="none" />
<path d="M580.2842498046081,454.3389017162918 L613.857464,435.24437400000005" stroke="grey" stroke-width="5" />
<circle cx="580.2842498046081" cy="454.3389017162918" r="2.5" fill="grey" stroke="none" />
<circle cx="565.857464" cy="435.24437400000005" r="5" fill="black" stroke="none" />
<circle cx="613.857464" cy="435.24437400000005" r="5" fill="black" stroke="none" />
<path d="M565.857464,483.24437400000005 A67.95554846488382,67.95554846488382,0,0,0,559.0701558703515,466.404267345159" stroke="grey" stroke-width="5" fill="none" />
<path d="M559.0701558703515,466.404267345159 L613.857464,435.24437400000005" stroke="grey" stroke-width="5" />
<circle cx="559.0701558703515" cy="466.404267345159" r="2.5" fill="grey" stroke="none" />
<circle cx="565.857464" cy="483.24437400000005" r="5" fill="black" stroke="none" />
<circle cx="613.857464" cy="435.24437400000005" r="5" fill="black" stroke="none" />
<path d="M613.857464,435.24437400000005 L599.1703888066595,443.59754396217164" stroke="grey" stroke-width="5" />
<circle cx="599.1703888066595" cy="443.59754396217164" r="2.5" fill="grey" stroke="none" />
<path d="M599.1703888066595,443.59754396217164 A114.0876990002129,114.0876990002129,0,0,1,613.857464,507.24437400000005" stroke="grey" stroke-width="5" fill="none" />
<circle cx="613.857464" cy="435.24437400000005" r="5" fill="black" stroke="none" />
<circle cx="613.857464" cy="507.24437400000005" r="5" fill="black" stroke="none" />
<path d="M613.857464,507.24437400000005 L576.509011760675,504.86801546506194" stroke="grey" stroke-width="5" />
<circle cx="576.509011760675" cy="504.86801546506194" r="2.5" fill="grey" stroke="none" />
<path d="M576.509011760675,504.86801546506194 A76.66372320180633,76.66372320180633,0,0,1,565.857464,539.2443740000001" stroke="grey" stroke-width="5" fill="none" />
<circle cx="613.857464" cy="507.24437400000005" r="5" fill="black" stroke="none" />
<circle cx="565.857464" cy="539.2443740000001" r="5" fill="black" stroke="none" />
<path d="M613.857464,379.24437400000005 A165.96819972260698,165.96819972260698,0,0,1,615.5141890515371,380.8282103561044" stroke="grey" stroke-width="5" fill="none" />
<path d="M615.5141890515371,380.8282103561044 L717.857464,275.24437400000005" stroke="grey" stroke-width="5" />
<circle cx="615.5141890515371" cy="380.8282103561044" r="2.5" fill="grey" stroke="none" />
<circle cx="613.857464" cy="379.24437400000005" r="5" fill="black" stroke="none" />
<circle cx="717.857464" cy="275.24437400000005" r="5" fill="black" stroke="none" />
<path d="M613.857464,379.24437400000005 A165.96819972260698,165.96819972260698,0,0,1,654.0948276150775,438.3540153664271" stroke="grey" stroke-width="5" fill="none" />
<path d="M654.0948276150775,438.3540153664271 L741.857464,403.24437400000005" stroke="grey" stroke-width="5" />
<circle cx="654.0948276150775" cy="438.3540153664271" r="2.5" fill="grey" stroke="none" />
<circle cx="613.857464" cy="379.24437400000005" r="5" fill="black" stroke="none" />
<circle cx="741.857464" cy="403.24437400000005" r="5" fill="black" stroke="none" />
<path d="M741.857464,403.24437400000005 A260.49315548621075,260.49315548621075,0,0,1,749.9616765977476,426.6798507393345" stroke="grey" stroke-width="5" fill="none" />
<path d="M749.9616765977476,426.67985073933454 L829.857464,403.24437400000005" stroke="grey" stroke-width="5" />
<circle cx="749.9616765977476" cy="426.67985073933454" r="2.5" fill="grey" stroke="none" />
<circle cx="741.857464" cy="403.24437400000005" r="5" fill="black" stroke="none" />
<circle cx="829.857464" cy="403.24437400000005" r="5" fill="black" stroke="none" />
<path d="M613.857464,435.24437400000005 A130.98401889987636,130.98401889987636,0,0,1,627.9073275091283,528.2228413990471" stroke="grey" stroke-width="5" fill="none" />
<path d="M627.9073275091283,528.2228413990471 L677.857464,539.2443740000001" stroke="grey" stroke-width="5" />
<circle cx="627.9073275091283" cy="528.2228413990471" r="2.5" fill="grey" stroke="none" />
<circle cx="613.857464" cy="435.24437400000005" r="5" fill="black" stroke="none" />
<circle cx="677.857464" cy="539.2443740000001" r="5" fill="black" stroke="none" />
<circle cx="500" cy="500" r="5" fill="red" stroke="none" />
</svg>