<?xml version="1.0" encoding="UTF-8"?>
<svg xmlns="http://www.w3.org/2000/svg" xmlns:xlink="http://www.w3.org/1999/xlink"
     width="1000" height="1000" viewBox="0 0 1000 1000">
<defs>
</defs>
<rect x="0" y="0" width="1000" height="1000" fill="white" />
<path d="M326.48299999999995,628.34175 L442.01887808827905,542.8857037242092" stroke="grey" stroke-width="5" />
<circle cx="442.01887808827905" cy="542.8857037242092" r="2.5" fill="grey" stroke="none" />
<path d="M442.01887808827905,542.8857037242092 A72.11791789883081,72.11791789883081,0,0,0,446.483,548.34175" stroke="grey" stroke-width="5" fill="none" />
<circle cx="326.48299999999995" cy="628.34175" r="5" fill="black" stroke="none" />
<circle cx="446.48299999999995" cy="548.34175" r="5" fill="black" stroke="none" />
<path d="M446.48299999999995,548.34175 L459.8817441575784,536.2387034843206" stroke="grey" stroke-width="5" />
<circle cx="459.8817441575784" cy="536.2387034843206" r="2.5" fill="grey" stroke="none" />
<path d="M459.8817441575784,536.2387034843206 A54.06216867701945,54.06216867701945,0,0,1,446.48299999999995,492.34175" stroke="grey" stroke-width="5" fill="none" />
<circle cx="446.48299999999995" cy="548.34175" r="5" fill="black" stroke="none" />
<circle cx="446.48299999999995" cy="492.34175" r="5" fill="black" stroke="none" />
<path d="M446.48299999999995,492.34175 A54.06216867701945,54.06216867701945,0,0,0,446.00161338985,497.37467610316867" stroke="grey" stroke-width="5" fill="none" />
<path d="M446.00161338985,497.37467610316867 L-157.51700000000002,-7.6582500000000095" stroke="grey" stroke-width="5" />
<circle cx="446.00161338985" cy="497.37467610316867" r="2.5" fill="grey" stroke="none" />
<circle cx="446.48299999999995" cy="492.34175" r="5" fill="black" stroke="none" />
<circle cx="342.48299999999995" cy="492.34175" r="5" fill="black" stroke="none" />
<path d="M342.48299999999995,492.34175 A157.70305666683353,157.70305666683353,0,0,1,385.6736805052996,391.37336075870616" stroke="grey" stroke-width="5" fill="none" />
<path d="M385.6736805052996,391.37336075870616 L-117.51700000000002,-111.65825000000001" stroke="grey" stroke-width="5" />
<circle cx="385.6736805052996" cy="391.37336075870616" r="2.5" fill="grey" stroke="none" />
<circle cx="342.48299999999995" cy="492.34175" r="5" fill="black" stroke="none" />
<circle cx="382.48299999999995" cy="388.34175" r="5" fill="black" stroke="none" />
<path d="M382.483,388.34175 A162.10431851762158,162.10431851762158,0,0,1,495.5224074499957,337.9575325816758" stroke="grey" stroke-width="5" fill="none" />
<path d="M495.5224074499957,337.9575325816758 L-5.517000000000024,-199.65825" stroke="grey" stroke-width="5" />
<circle cx="495.5224074499957" cy="337.9575325816758" r="2.5" fill="grey" stroke="none" />
<circle cx="382.48299999999995" cy="388.34175" r="5" fill="black" stroke="none" />
<circle cx="494.48299999999995" cy="300.34175" r="5" fill="black" stroke="none" />
<path d="M494.48299999999995,300.34175 L495.0081418094886,319.3464436168822" stroke="grey" stroke-width="5" />
<circle cx="495.0081418094886" cy="319.3464436168822" r="2.5" fill="grey" stroke="none" />
<path d="M495.0081418094886,319.3464436168822 A180.72251127643867,180.72251127643867,0,0,1,542.483,324.34175" stroke="grey" stroke-width="5" fill="none" />
<circle cx="494.48299999999995" cy="300.34175" r="5" fill="black" stroke="none" />
<circle cx="542.483" cy="324.34175" r="5" fill="black" stroke="none" />
<path d="M542.483,324.34175 L539.4332759118043,336.95171625274304" stroke="grey" stroke-width="5" />
<circle cx="539.4332759118043" cy="336.95171625274304" r="2.5" fill="grey" stroke="none" />
<path d="M539.4332759118043,336.95171625274304 A167.74899726097473,167.74899726097473,0,0,0,494.483,332.34175" stroke="grey" stroke-width="5" fill="none" />
<circle cx="542.483" cy="324.34175" r="5" fill="black" stroke="none" />
<circle cx="494.48299999999995" cy="332.34175" r="5" fill="black" stroke="none" />
<path d="M494.48299999999995,300.34175 L495.36649197704884,332.31500757234187" stroke="grey" stroke-width="5" />
<circle cx="495.36649197704884" cy="332.31500757234187" r="2.5" fill="grey" stroke="none" />
<path d="M495.36649197704884,332.31500757234187 A167.74899726097473,167.74899726097473,0,0,0,494.483,332.34175" stroke="grey" stroke-width="5" fill="none" />
<circle cx="494.48299999999995" cy="300.34175" r="5" fill="black" stroke="none" />
<circle cx="494.48299999999995" cy="332.34175" r="5" fill="black" stroke="none" />
<path d="M494.48299999999995,332.34175 L497.4605728294828,422.82836407261965" stroke="grey" stroke-width="5" />
<circle cx="497.4605728294828" cy="422.82836407261965" r="2.5" fill="grey" stroke="none" />
<path d="M497.4605728294828,422.82836407261965 A77.21340610323122,77.21340610323122,0,0,0,446.483,444.34175" stroke="grey" stroke-width="5" fill="none" />
<circle cx="494.48299999999995" cy="332.34175" r="5" fill="black" stroke="none" />
<circle cx="446.48299999999995" cy="444.34175" r="5" fill="black" stroke="none" />
<path d="M382.48299999999995,388.34175 L444.0243916509414,446.81502700935806" stroke="grey" stroke-width="5" />
<circle cx="444.0243916509414" cy="446.81502700935806" r="2.5" fill="grey" stroke="none" />
<path d="M444.0243916509414,446.81502700935806 A77.21340610323122,77.21340610323122,0,0,1,446.483,444.34175" stroke="grey" stroke-width="5" fill="none" />
<circle cx="382.48299999999995" cy="388.34175" r="5" fill="black" stroke="none" />
<circle cx="446.48299999999995" cy="444.34175" r="5" fill="black" stroke="none" />
<path d="M446.48299999999995,444.34175 L462.52923906478236,461.03000953299744" stroke="grey" stroke-width="5" />
<circle cx="462.52923906478236" cy="461.03000953299744" r="2.5" fill="grey" stroke="none" />
<path d="M462.52923906478236,461.03000953299744 A54.06216867701945,54.06216867701945,0,0,0,446.48299999999995,492.34175" stroke="grey" stroke-width="5" fill="none" />
<circle cx="446.48299999999995" cy="444.34175" r="5" fill="black" stroke="none" />
<circle cx="446.48299999999995" cy="492.34175" r="5" fill="black" stroke="none" />
<path d="M542.483,324.34175 A180.72251127643867,180.72251127643867,0,0,1,564.5601475875458,331.20244840183017" stroke="grey" stroke-width="5" fill="none" />
<path d="M564.5601475875458,331.20244840183017 L82.48299999999998,-215.65825" stroke="grey" stroke-width="5" />
<circle cx="564.5601475875458" cy="331.20244840183017" r="2.5" fill="grey" stroke="none" />
<circle cx="542.483" cy="324.34175" r="5" fill="black" stroke="none" />
<circle cx="582.483" cy="284.34175" r="5" fill="black" stroke="none" />
<path d="M542.483,324.34175 L533.7841324279301,360.3097337744874" stroke="grey" stroke-width="5" />
<circle cx="533.7841324279301" cy="360.3097337744874" r="2.5" fill="grey" stroke="none" />
<path d="M533.7841324279301,360.3097337744874 A143.71756358240455,143.71756358240455,0,0,1,590.483,388.34175" stroke="grey" stroke-width="5" fill="none" />
<circle cx="542.483" cy="324.34175" r="5" fill="black" stroke="none" />
<circle cx="590.483" cy="388.34175" r="5" fill="black" stroke="none" />
<path d="M494.48299999999995,332.34175 L496.07091793010983,380.5976030552545" stroke="grey" stroke-width="5" />
<circle cx="496.07091793010983" cy="380.5976030552545" r="2.5" fill="grey" stroke="none" />
<path d="M496.07091793010983,380.5976030552545 A119.46702508249923,119.46702508249923,0,0,1,542.483,388.34175" stroke="grey" stroke-width="5" fill="none" />
<circle cx="494.48299999999995" cy="332.34175" r="5" fill="black" stroke="none" />
<circle cx="542.483" cy="388.34175" r="5" fill="black" stroke="none" />
<path d="M446.48299999999995,444.34175 L461.23393449292246,459.68287898220564" stroke="grey" stroke-width="5" />
<circle cx="461.23393449292246" cy="459.68287898220564" r="2.5" fill="grey" stroke="none" />
<path d="M461.23393449292246,459.68287898220564 A55.93101180975096,55.93101180975096,0,0,1,494.483,444.34175" stroke="grey" stroke-width="5" fill="none" />
<circle cx="446.48299999999995" cy="444.34175" r="5" fill="black" stroke="none" />
<circle cx="494.48299999999995" cy="444.34175" r="5" fill="black" stroke="none" />
<path d="M446.48299999999995,492.34175 L457.2675645947006,493.8850146039084" stroke="grey" stroke-width="5" />
<circle cx="457.2675645947006" cy="493.8850146039084" r="2.5" fill="grey" stroke="none" />
<path d="M457.2675645947006,493.8850146039084 A43.16774353684123,43.16774353684123,0,0,1,542.483,492.34175" stroke="grey" stroke-width="5" fill="none" />
<circle cx="446.48299999999995" cy="492.34175" r="5" fill="black" stroke="none" />
<circle cx="542.483" cy="492.34175" r="5" fill="black" stroke="none" />
<path d="M446.48299999999995,548.34175 L452.24273178137344,543.1390010820447" stroke="grey" stroke-width="5" />
<circle cx="452.24273178137344" cy="543.1390010820447" r="2.5" fill="grey" stroke="none" />
<path d="M452.24273178137344,543.1390010820447 A64.35627461298934,64.35627461298934,0,0,0,542.483,548.3417499999999" stroke="grey" stroke-width="5" fill="none" />
<circle cx="446.48299999999995" cy="548.34175" r="5" fill="black" stroke="none" />
<circle cx="542.483" cy="548.34175" r="5" fill="black" stroke="none" />
<path d="M590.483,388.34175 L575.2151272335041,407.18268094094566" stroke="grey" stroke-width="5" />
<circle cx="575.2151272335041" cy="407.18268094094566" r="2.5" fill="grey" stroke="none" />
<path d="M575.2151272335041,407.18268094094566 A119.46702508249923,119.46702508249923,0,0,0,542.483,388.34175" stroke="grey" stroke-width="5" fill="none" />
<circle cx="590.483" cy="388.34175" r="5" fill="black" stroke="none" />
<circle cx="542.483" cy="388.34175" r="5" fill="black" stroke="none" />
<path d="M542.483,388.34175 L519.8893140016904,447.72483122356596" stroke="grey" stroke-width="5" />
<circle cx="519.8893140016904" cy="447.72483122356596" r="2.5" fill="grey" stroke="none" />
<path d="M519.8893140016904,447.72483122356596 A55.93101180975096,55.93101180975096,0,0,0,494.483,444.34175" stroke="grey" stroke-width="5" fill="none" />
<circle cx="542.483" cy="388.34175" r="5" fill="black" stroke="none" />
<circle cx="494.48299999999995" cy="444.34175" r="5" fill="black" stroke="none" />
<path d="M494.48299999999995,444.34175 L495.7419607944365,457.0427749477881" stroke="grey" stroke-width="5" />
<circle cx="495.7419607944365" cy="457.0427749477881" r="2.5" fill="grey" stroke="none" />
<path d="M495.7419607944365,457.0427749477881 A43.16774353684123,43.16774353684123,0,0,1,542.483,492.34175" stroke="grey" stroke-width="5" fill="none" />
<circle cx="494.48299999999995" cy="444.34175" r="5" fill="black" stroke="none" />
<circle cx="542.483" cy="492.34175" r="5" fill="black" stroke="none" />
<path d="M542.483,492.34175 A43.16774353684123,43.16774353684123,0,0,1,528.4959820888308,532.4258089622376" stroke="grey" stroke-width="5" fill="none" />
<path d="M528.4959820888308,532.4258089622376 L42.482999999999976,48.34174999999999" stroke="grey" stroke-width="5" />
<circle cx="528.4959820888308" cy="532.4258089622376" r="2.5" fill="grey" stroke="none" />
<circle cx="542.483" cy="492.34175" r="5" fill="black" stroke="none" />
<circle cx="542.483" cy="548.34175" r="5" fill="black" stroke="none" />
<path d="M542.483,548.3417499999999 A64.35627461298934,64.35627461298934,0,0,0,542.8398334498474,548.0258133929226" stroke="grey" stroke-width="5" fill="none" />
<path d="M542.8398334498474,548.0258133929226 L114.48299999999998,128.34175" stroke="grey" stroke-width="5" />
<circle cx="542.8398334498474" cy="548.0258133929226" r="2.5" fill="grey" stroke="none" />
<circle cx="542.483" cy="548.34175" r="5" fill="black" stroke="none" />
<circle cx="614.483" cy="628.34175" r="5" fill="black" stroke="none" />
<path d="M590.483,388.34175 L569.2661183778324,414.5239043537282" stroke="grey" stroke-width="5" />
<circle cx="569.2661183778324" cy="414.5239043537282" r="2.5" fill="grey" stroke="none" />
<path d="M569.2661183778324,414.5239043537282 A110.0179898110418,110.0179898110418,0,0,0,566.483,412.34175" stroke="grey" stroke-width="5" fill="none" />
<circle cx="590.483" cy="388.34175" r="5" fill="black" stroke="none" />
<circle cx="566.483" cy="412.34175" r="5" fill="black" stroke="none" />
<path d="M566.483,412.34175 L542.3118655964246,444.2115414103186" stroke="grey" stroke-width="5" />
<circle cx="542.3118655964246" cy="444.2115414103186" r="2.5" fill="grey" stroke="none" />
<path d="M542.3118655964246,444.2115414103186 A70.01889803519117,70.01889803519117,0,0,1,542.483,444.34175" stroke="grey" stroke-width="5" fill="none" />
<circle cx="566.483" cy="412.34175" r="5" fill="black" stroke="none" />
<circle cx="542.483" cy="444.34175" r="5" fill="black" stroke="none" />
<path d="M542.483,444.34175 L526.191432600866,465.68582012670583" stroke="grey" stroke-width="5" />
<circle cx="526.191432600866" cy="465.68582012670583" r="2.5" fill="grey" stroke="none" />
<path d="M526.191432600866,465.68582012670583 A43.16774353684123,43.16774353684123,0,0,1,542.483,492.34175" stroke="grey" stroke-width="5" fill="none" />
<circle cx="542.483" cy="444.34175" r="5" fill="black" stroke="none" />
<circle cx="542.483" cy="492.34175" r="5" fill="black" stroke="none" />
<path d="M542.483,388.34175 L539.122881463859,397.17316387232694" stroke="grey" stroke-width="5" />
<circle cx="539.122881463859" cy="397.17316387232694" r="2.5" fill="grey" stroke="none" />
<path d="M539.122881463859,397.17316387232694 A110.0179898110418,110.0179898110418,0,0,1,566.483,412.34175" stroke="grey" stroke-width="5" fill="none" />
<circle cx="542.483" cy="388.34175" r="5" fill="black" stroke="none" />
<circle cx="566.483" cy="412.34175" r="5" fill="black" stroke="none" />
<path d="M494.483,444.34175 A55.93101180975096,55.93101180975096,0,0,1,533.9353694701025,455.5402566247832" stroke="grey" stroke-width="5" fill="none" />
<path d="M533.9353694701025,455.5402566247832 L42.482999999999976,-55.65825000000001" stroke="grey" stroke-width="5" />
<circle cx="533.9353694701025" cy="455.5402566247832" r="2.5" fill="grey" stroke="none" />
<circle cx="494.48299999999995" cy="444.34175" r="5" fill="black" stroke="none" />
<circle cx="542.483" cy="444.34175" r="5" fill="black" stroke="none" />
<path d="M590.483,388.34175 L566.8818377513777,417.4661653558925" stroke="grey" stroke-width="5" />
<circle cx="566.8818377513777" cy="417.4661653558925" r="2.5" fill="grey" stroke="none" />
<path d="M566.8818377513777,417.4661653558925 A106.2309469131406,106.2309469131406,0,0,1,590.483,444.34175" stroke="grey" stroke-width="5" fill="none" />
<circle cx="590.483" cy="388.34175" r="5" fill="black" stroke="none" />
<circle cx="590.483" cy="444.34175" r="5" fill="black" stroke="none" />
<path d="M566.483,412.34175 L564.1945199667473,415.3591251917764" stroke="grey" stroke-width="5" />
<circle cx="564.1945199667473" cy="415.3591251917764" r="2.5" fill="grey" stroke="none" />
<path d="M564.1945199667473,415.3591251917764 A106.2309469131406,106.2309469131406,0,0,1,590.483,444.34175" stroke="grey" stroke-width="5" fill="none" />
<circle cx="566.483" cy="412.34175" r="5" fill="black" stroke="none" />
<circle cx="590.483" cy="444.34175" r="5" fill="black" stroke="none" />
<path d="M542.483,444.34175 A70.01889803519117,70.01889803519117,0,0,1,559.6391177431415,463.31455715297676" stroke="grey" stroke-width="5" fill="none" />
<path d="M559.6391177431415,463.31455715297676 L90.48299999999998,-55.65825000000001" stroke="grey" stroke-width="5" />
<circle cx="559.6391177431415" cy="463.31455715297676" r="2.5" fill="grey" stroke="none" />
<circle cx="542.483" cy="444.34175" r="5" fill="black" stroke="none" />
<circle cx="590.483" cy="444.34175" r="5" fill="black" stroke="none" />
<path d="M542.483,492.34175 A43.16774353684123,43.16774353684123,0,0,0,536.7684469727799,477.38285187579186" stroke="grey" stroke-width="5" fill="none" />
<path d="M536.7684469727799,477.38285187579186 L90.48299999999998,-55.65825000000001" stroke="grey" stroke-width="5" />
<circle cx="536.7684469727799" cy="477.38285187579186" r="2.5" fill="grey" stroke="none" />
<circle cx="542.483" cy="492.34175" r="5" fill="black" stroke="none" />
<circle cx="590.483" cy="444.34175" r="5" fill="black" stroke="none" />
<path d="M590.483,444.34175 L578.3164273324109,451.8256988431622" stroke="grey" stroke-width="5" />
<circle cx="578.3164273324109" cy="451.8256988431622" r="2.5" fill="grey" stroke="none" />
<path d="M578.3164273324109,451.8256988431622 A91.94686553690939,91.94686553690939,0,0,1,590.483,516.3417499999999" stroke="grey" stroke-width="5" fill="none" />
<circle cx="590.483" cy="444.34175" r="5" fill="black" stroke="none" />
<circle cx="590.483" cy="516.34175" r="5" fill="black" stroke="none" />
<path d="M590.483,516.34175 L563.3316727199317,511.4380641962683" stroke="grey" stroke-width="5" />
<circle cx="563.3316727199317" cy="511.4380641962683" r="2.5" fill="grey" stroke="none" />
<path d="M563.3316727199317,511.4380641962683 A64.35627461298934,64.35627461298934,0,0,1,542.483,548.3417499999999" stroke="grey" stroke-width="5" fill="none" />
<circle cx="590.483" cy="516.34175" r="5" fill="black" stroke="none" />
<circle cx="542.483" cy="548.34175" r="5" fill="black" stroke="none" />
<path d="M590.483,388.34175 A143.71756358240455,143.71756358240455,0,0,1,596.2487254295232,393.2717425643296" stroke="grey" stroke-width="5" fill="none" />
<path d="M596.2487254295232,393.2717425643296 L194.48299999999998,-215.65825" stroke="grey" stroke-width="5" />
<circle cx="596.2487254295232" cy="393.2717425643296" r="2.5" fill="grey" stroke="none" />
<circle cx="590.483" cy="388.34175" r="5" fill="black" stroke="none" />
<circle cx="694.483" cy="284.34175" r="5" fill="black" stroke="none" />
<path d="M590.483,388.34175 A143.71756358240455,143.71756358240455,0,0,1,633.382537909378,446.4851734290781" stroke="grey" stroke-width="5" fill="none" />
<path d="M633.382537909378,446.4851734290781 L218.48299999999998,-87.65825000000001" stroke="grey" stroke-width="5" />
<circle cx="633.382537909378" cy="446.4851734290781" r="2.5" fill="grey" stroke="none" />
<circle cx="590.483" cy="388.34175" r="5" fill="black" stroke="none" />
<circle cx="718.483" cy="412.34175" r="5" fill="black" stroke="none" />
<path d="M718.483,412.34175 A235.4119582393012,235.4119582393012,0,0,1,726.336342619717,435.2647693169122" stroke="grey" stroke-width="5" fill="none" />
<path d="M726.336342619717,435.2647693169122 L306.48299999999995,-87.65825000000001" stroke="grey" stroke-width="5" />
<circle cx="726.336342619717" cy="435.2647693169122" r="2.5" fill="grey" stroke="none" />
<circle cx="718.483" cy="412.34175" r="5" fill="black" stroke="none" />
<circle cx="806.483" cy="412.34175" r="5" fill="black" stroke="none" />
<path d="M590.483,444.34175 A106.2309469131406,106.2309469131406,0,0,1,601.3830078823997,531.7253809241081" stroke="grey" stroke-width="5" fill="none" />
<path d="M601.3830078823997,531.7253809241081 L154.48299999999998,48.34174999999999" stroke="grey" stroke-width="5" />
<circle cx="601.3830078823997" cy="531.7253809241081" r="2.5" fill="grey" stroke="none" />
<circle cx="590.483" cy="444.34175" r="5" fill="black" stroke="none" />
<circle cx="654.483" cy="548.34175" r="5" fill="black" stroke="none" />
<circle cx="500" cy="500" r="5" fill="red" stroke="none" />
</svg>