<?xml version="1.0" encoding="UTF-8"?>
<svg xmlns="http://www.w3.org/2000/svg" xmlns:xlink="http://www.w3.org/1999/xlink"
     width="1000" height="1000" viewBox="0 0 1000 1000">
<defs>
</defs>
<rect x="0" y="0" width="1000" height="1000" fill="white" />
<path d="M358.04902400000003,617.0595840000001 L466.76912271798113,527.4037754456031" stroke="grey" stroke-width="5" />
<circle cx="466.76912271798113" cy="527.4037754456031" r="2.5" fill="grey" stroke="none" />
<path d="M466.76912271798113,527.4037754456031 A43.07270729366375,43.07270729366375,0,0,0,478.04902400000003,537.0595840000001" stroke="grey" stroke-width="5" fill="none" />
<circle cx="358.04902400000003" cy="617.0595840000001" r="5" fill="black" stroke="none" />
<circle cx="478.04902400000003" cy="537.0595840000001" r="5" fill="black" stroke="none" />
<path d="M478.04902400000003,537.0595840000001 L485.2244924885574,524.9453218737489" stroke="grey" stroke-width="5" />
<circle cx="485.2244924885574" cy="524.9453218737489" r="2.5" fill="grey" stroke="none" />
<path d="M485.2244924885574,524.9453218737489 A28.99283886765197,28.99283886765197,0,0,1,478.049024,481.05958400000003" stroke="grey" stroke-width="5" fill="none" />
<circle cx="478.04902400000003" cy="537.0595840000001" r="5" fill="black" stroke="none" />
<circle cx="478.04902400000003" cy="481.05958400000003" r="5" fill="black" stroke="none" />
<path d="M478.049024,481.05958400000003 A28.99283886765197,28.99283886765197,0,0,0,471.3295248349118,495.6885548346649" stroke="grey" stroke-width="5" fill="none" />
<path d="M471.3295248349118,495.6885548346649 L-125.950976,-18.94041599999997" stroke="grey" stroke-width="5" />
<circle cx="471.3295248349118" cy="495.6885548346649" r="2.5" fill="grey" stroke="none" />
<circle cx="478.04902400000003" cy="481.05958400000003" r="5" fill="black" stroke="none" />
<circle cx="374.04902400000003" cy="481.05958400000003" r="5" fill="black" stroke="none" />
<path d="M374.04902400000003,481.0595840000001 A127.36713749474639,127.36713749474639,0,0,1,427.0209089634491,395.61398568254253" stroke="grey" stroke-width="5" fill="none" />
<path d="M427.0209089634491,395.61398568254253 L-85.950976,-122.94041599999997" stroke="grey" stroke-width="5" />
<circle cx="427.0209089634491" cy="395.61398568254253" r="2.5" fill="grey" stroke="none" />
<circle cx="374.04902400000003" cy="481.05958400000003" r="5" fill="black" stroke="none" />
<circle cx="414.04902400000003" cy="377.05958400000003" r="5" fill="black" stroke="none" />
<path d="M414.04902400000003,377.05958400000003 A150.00638706936988,150.00638706936988,0,0,1,518.3846327470694,351.1244766915629" stroke="grey" stroke-width="5" fill="none" />
<path d="M518.3846327470694,351.1244766915629 L26.049024000000003,-210.94041599999997" stroke="grey" stroke-width="5" />
<circle cx="518.3846327470694" cy="351.1244766915629" r="2.5" fill="grey" stroke="none" />
<circle cx="414.04902400000003" cy="377.05958400000003" r="5" fill="black" stroke="none" />
<circle cx="526.049024" cy="289.05958400000003" r="5" fill="black" stroke="none" />
<path d="M526.049024,289.05958400000003 L524.6431916912763,300.4437668403399" stroke="grey" stroke-width="5" />
<circle cx="524.6431916912763" cy="300.4437668403399" r="2.5" fill="grey" stroke="none" />
<path d="M524.6431916912763,300.4437668403399 A201.07206939206057,201.07206939206057,0,0,1,574.049024,313.0595840000001" stroke="grey" stroke-width="5" fill="none" />
<circle cx="526.049024" cy="289.05958400000003" r="5" fill="black" stroke="none" />
<circle cx="574.049024" cy="313.05958400000003" r="5" fill="black" stroke="none" />
<path d="M574.049024,313.05958400000003 L566.5931677590692,331.88226108640976" stroke="grey" stroke-width="5" />
<circle cx="566.5931677590692" cy="331.88226108640976" r="2.5" fill="grey" stroke="none" />
<path d="M566.5931677590693,331.8822610864098 A180.82650284072196,180.82650284072196,0,0,0,526.049024,321.05958400000003" stroke="grey" stroke-width="5" fill="none" />
<circle cx="574.049024" cy="313.05958400000003" r="5" fill="black" stroke="none" />
<circle cx="526.049024" cy="321.05958400000003" r="5" fill="black" stroke="none" />
<path d="M526.049024,289.05958400000003 L522.1619153064876,320.53670670704355" stroke="grey" stroke-width="5" />
<circle cx="522.1619153064876" cy="320.53670670704355" r="2.5" fill="grey" stroke="none" />
<path d="M522.1619153064876,320.53670670704355 A180.82650284072196,180.82650284072196,0,0,1,526.049024,321.05958400000003" stroke="grey" stroke-width="5" fill="none" />
<circle cx="526.049024" cy="289.05958400000003" r="5" fill="black" stroke="none" />
<circle cx="526.049024" cy="321.05958400000003" r="5" fill="black" stroke="none" />
<path d="M526.049024,321.05958400000003 L510.1483535267804,430.28719226497105" stroke="grey" stroke-width="5" />
<circle cx="510.1483535267804" cy="430.28719226497105" r="2.5" fill="grey" stroke="none" />
<path d="M510.14835352678045,430.28719226497105 A70.44760209975658,70.44760209975658,0,0,0,478.04902400000003,433.05958400000003" stroke="grey" stroke-width="5" fill="none" />
<circle cx="526.049024" cy="321.05958400000003" r="5" fill="black" stroke="none" />
<circle cx="478.04902400000003" cy="433.05958400000003" r="5" fill="black" stroke="none" />
<path d="M414.04902400000003,377.05958400000003 L459.63478438732346,442.2634083951281" stroke="grey" stroke-width="5" />
<circle cx="459.63478438732346" cy="442.2634083951281" r="2.5" fill="grey" stroke="none" />
<path d="M459.63478438732346,442.2634083951281 A70.44760209975658,70.44760209975658,0,0,1,478.04902400000003,433.05958400000003" stroke="grey" stroke-width="5" fill="none" />
<circle cx="414.04902400000003" cy="377.05958400000003" r="5" fill="black" stroke="none" />
<circle cx="478.04902400000003" cy="433.05958400000003" r="5" fill="black" stroke="none" />
<path d="M478.04902400000003,433.05958400000003 L490.9660358736626,472.4505499552227" stroke="grey" stroke-width="5" />
<circle cx="490.9660358736626" cy="472.4505499552227" r="2.5" fill="grey" stroke="none" />
<path d="M490.9660358736626,472.4505499552227 A28.99283886765197,28.99283886765197,0,0,0,478.049024,481.05958400000003" stroke="grey" stroke-width="5" fill="none" />
<circle cx="478.04902400000003" cy="433.05958400000003" r="5" fill="black" stroke="none" />
<circle cx="478.04902400000003" cy="481.05958400000003" r="5" fill="black" stroke="none" />
<path d="M574.049024,313.0595840000001 A201.07206939206057,201.07206939206057,0,0,1,590.2885587469076,320.3393386157898" stroke="grey" stroke-width="5" fill="none" />
<path d="M590.2885587469076,320.3393386157898 L114.049024,-226.94041599999997" stroke="grey" stroke-width="5" />
<circle cx="590.2885587469076" cy="320.3393386157898" r="2.5" fill="grey" stroke="none" />
<circle cx="574.049024" cy="313.05958400000003" r="5" fill="black" stroke="none" />
<circle cx="614.049024" cy="273.05958400000003" r="5" fill="black" stroke="none" />
<path d="M574.049024,313.05958400000003 L563.7973784206825,338.9403692657472" stroke="grey" stroke-width="5" />
<circle cx="563.7973784206825" cy="338.9403692657472" r="2.5" fill="grey" stroke="none" />
<path d="M563.7973784206825,338.9403692657473 A173.23484102687203,173.23484102687203,0,0,1,622.049024,377.0595840000001" stroke="grey" stroke-width="5" fill="none" />
<circle cx="574.049024" cy="313.05958400000003" r="5" fill="black" stroke="none" />
<circle cx="622.049024" cy="377.05958400000003" r="5" fill="black" stroke="none" />
<path d="M526.049024,321.05958400000003 L520.674628913441,357.97829897900414" stroke="grey" stroke-width="5" />
<circle cx="520.674628913441" cy="357.97829897900414" r="2.5" fill="grey" stroke="none" />
<path d="M520.674628913441,357.97829897900414 A143.51865328801557,143.51865328801557,0,0,1,574.049024,377.05958400000003" stroke="grey" stroke-width="5" fill="none" />
<circle cx="526.049024" cy="321.05958400000003" r="5" fill="black" stroke="none" />
<circle cx="574.049024" cy="377.05958400000003" r="5" fill="black" stroke="none" />
<path d="M478.04902400000003,433.05958400000003 A70.44760209975658,70.44760209975658,0,0,1,525.5476452371294,434.3480201026396" stroke="grey" stroke-width="5" fill="none" />
<path d="M525.5476452371294,434.3480201026396 L26.049024000000003,-66.94041599999997" stroke="grey" stroke-width="5" />
<circle cx="525.5476452371294" cy="434.3480201026396" r="2.5" fill="grey" stroke="none" />
<circle cx="478.04902400000003" cy="433.05958400000003" r="5" fill="black" stroke="none" />
<circle cx="526.049024" cy="433.05958400000003" r="5" fill="black" stroke="none" />
<path d="M478.049024,481.05958400000003 A28.99283886765197,28.99283886765197,0,0,1,528.0885554125155,492.81544987882495" stroke="grey" stroke-width="5" fill="none" />
<path d="M528.0885554125155,492.81544987882495 L74.049024,-18.94041599999997" stroke="grey" stroke-width="5" />
<circle cx="528.0885554125155" cy="492.81544987882495" r="2.5" fill="grey" stroke="none" />
<circle cx="478.04902400000003" cy="481.05958400000003" r="5" fill="black" stroke="none" />
<circle cx="574.049024" cy="481.05958400000003" r="5" fill="black" stroke="none" />
<path d="M478.04902400000003,537.0595840000001 A43.07270729366375,43.07270729366375,0,0,0,538.518100464325,519.2772936437095" stroke="grey" stroke-width="5" fill="none" />
<path d="M538.518100464325,519.2772936437095 L74.049024,37.05958400000003" stroke="grey" stroke-width="5" />
<circle cx="538.518100464325" cy="519.2772936437095" r="2.5" fill="grey" stroke="none" />
<circle cx="478.04902400000003" cy="537.0595840000001" r="5" fill="black" stroke="none" />
<circle cx="574.049024" cy="537.0595840000001" r="5" fill="black" stroke="none" />
<path d="M622.049024,377.05958400000003 L601.1130985878273,398.14841613615454" stroke="grey" stroke-width="5" />
<circle cx="601.1130985878273" cy="398.14841613615454" r="2.5" fill="grey" stroke="none" />
<path d="M601.1130985878273,398.14841613615454 A143.51865328801557,143.51865328801557,0,0,0,574.049024,377.05958400000003" stroke="grey" stroke-width="5" fill="none" />
<circle cx="622.049024" cy="377.05958400000003" r="5" fill="black" stroke="none" />
<circle cx="574.049024" cy="377.05958400000003" r="5" fill="black" stroke="none" />
<path d="M574.049024,377.05958400000003 L537.0610553776648,438.46912059868407" stroke="grey" stroke-width="5" />
<circle cx="537.0610553776648" cy="438.46912059868407" r="2.5" fill="grey" stroke="none" />
<path d="M537.0610553776648,438.46912059868407 A71.83015345664819,71.83015345664819,0,0,0,526.049024,433.05958400000003" stroke="grey" stroke-width="5" fill="none" />
<circle cx="574.049024" cy="377.05958400000003" r="5" fill="black" stroke="none" />
<circle cx="526.049024" cy="433.05958400000003" r="5" fill="black" stroke="none" />
<path d="M526.049024,433.05958400000003 A71.83015345664819,71.83015345664819,0,0,1,569.589778871487,482.20017915193625" stroke="grey" stroke-width="5" fill="none" />
<path d="M569.589778871487,482.20017915193625 L74.049024,-18.94041599999997" stroke="grey" stroke-width="5" />
<circle cx="569.589778871487" cy="482.20017915193625" r="2.5" fill="grey" stroke="none" />
<circle cx="526.049024" cy="433.05958400000003" r="5" fill="black" stroke="none" />
<circle cx="574.049024" cy="481.05958400000003" r="5" fill="black" stroke="none" />
<path d="M574.049024,481.05958400000003 A76.43295960255386,76.43295960255386,0,0,1,568.3507632033603,534.207754722048" stroke="grey" stroke-width="5" fill="none" />
<path d="M568.3507632033603,534.207754722048 L74.049024,37.05958400000003" stroke="grey" stroke-width="5" />
<circle cx="568.3507632033603" cy="534.207754722048" r="2.5" fill="grey" stroke="none" />
<circle cx="574.049024" cy="481.05958400000003" r="5" fill="black" stroke="none" />
<circle cx="574.049024" cy="537.0595840000001" r="5" fill="black" stroke="none" />
<path d="M574.049024,537.059584 A82.80501628286558,82.80501628286558,0,0,1,564.6122712219343,551.7873066411919" stroke="grey" stroke-width="5" fill="none" />
<path d="M564.6122712219343,551.7873066411919 L146.049024,117.05958400000003" stroke="grey" stroke-width="5" />
<circle cx="564.6122712219343" cy="551.7873066411919" r="2.5" fill="grey" stroke="none" />
<circle cx="574.049024" cy="537.0595840000001" r="5" fill="black" stroke="none" />
<circle cx="646.049024" cy="617.0595840000001" r="5" fill="black" stroke="none" />
<path d="M622.049024,377.05958400000003 L598.1367029310634,401.14655006816486" stroke="grey" stroke-width="5" />
<circle cx="598.1367029310634" cy="401.14655006816486" r="2.5" fill="grey" stroke="none" />
<path d="M598.1367029310634,401.14655006816486 A139.2939949373469,139.2939949373469,0,0,0,598.049024,401.05958400000003" stroke="grey" stroke-width="5" fill="none" />
<circle cx="622.049024" cy="377.05958400000003" r="5" fill="black" stroke="none" />
<circle cx="598.049024" cy="401.05958400000003" r="5" fill="black" stroke="none" />
<path d="M598.049024,401.05958400000003 L570.2641476549137,429.0970606819851" stroke="grey" stroke-width="5" />
<circle cx="570.2641476549137" cy="429.0970606819851" r="2.5" fill="grey" stroke="none" />
<path d="M570.2641476549137,429.0970606819851 A99.82122644811386,99.82122644811386,0,0,1,574.049024,433.05958400000003" stroke="grey" stroke-width="5" fill="none" />
<circle cx="598.049024" cy="401.05958400000003" r="5" fill="black" stroke="none" />
<circle cx="574.049024" cy="433.05958400000003" r="5" fill="black" stroke="none" />
<path d="M574.049024,433.05958400000003 L556.6992238163137,448.7438263988308" stroke="grey" stroke-width="5" />
<circle cx="556.6992238163137" cy="448.7438263988308" r="2.5" fill="grey" stroke="none" />
<path d="M556.6992238163137,448.7438263988308 A76.43295960255386,76.43295960255386,0,0,1,574.049024,481.05958400000003" stroke="grey" stroke-width="5" fill="none" />
<circle cx="574.049024" cy="433.05958400000003" r="5" fill="black" stroke="none" />
<circle cx="574.049024" cy="481.05958400000003" r="5" fill="black" stroke="none" />
<path d="M574.049024,377.05958400000003 L571.8692946029253,380.6784951532895" stroke="grey" stroke-width="5" />
<circle cx="571.8692946029253" cy="380.6784951532895" r="2.5" fill="grey" stroke="none" />
<path d="M571.8692946029253,380.6784951532895 A139.2939949373469,139.2939949373469,0,0,1,598.049024,401.05958400000003" stroke="grey" stroke-width="5" fill="none" />
<circle cx="574.049024" cy="377.05958400000003" r="5" fill="black" stroke="none" />
<circle cx="598.049024" cy="401.05958400000003" r="5" fill="black" stroke="none" />
<path d="M526.049024,433.05958400000003 A71.83015345664819,71.83015345664819,0,0,1,553.2847866781096,451.83048210461334" stroke="grey" stroke-width="5" fill="none" />
<path d="M553.2847866781096,451.83048210461334 L74.049024,-66.94041599999997" stroke="grey" stroke-width="5" />
<circle cx="553.2847866781096" cy="451.83048210461334" r="2.5" fill="grey" stroke="none" />
<circle cx="526.049024" cy="433.05958400000003" r="5" fill="black" stroke="none" />
<circle cx="574.049024" cy="433.05958400000003" r="5" fill="black" stroke="none" />
<path d="M622.049024,377.05958400000003 L598.0713501477585,401.21238015924575" stroke="grey" stroke-width="5" />
<circle cx="598.0713501477585" cy="401.21238015924575" r="2.5" fill="grey" stroke="none" />
<path d="M598.0713501477585,401.2123801592458 A139.20123402328596,139.20123402328596,0,0,1,622.049024,433.05958400000003" stroke="grey" stroke-width="5" fill="none" />
<circle cx="622.049024" cy="377.05958400000003" r="5" fill="black" stroke="none" />
<circle cx="622.049024" cy="433.05958400000003" r="5" fill="black" stroke="none" />
<path d="M598.049024,401.05958400000003 L597.9837296052696,401.1254720049342" stroke="grey" stroke-width="5" />
<circle cx="597.9837296052696" cy="401.1254720049342" r="2.5" fill="grey" stroke="none" />
<path d="M597.9837296052696,401.1254720049342 A139.20123402328596,139.20123402328596,0,0,1,622.049024,433.05958400000003" stroke="grey" stroke-width="5" fill="none" />
<circle cx="598.049024" cy="401.05958400000003" r="5" fill="black" stroke="none" />
<circle cx="622.049024" cy="433.05958400000003" r="5" fill="black" stroke="none" />
<path d="M574.049024,433.05958400000003 A99.82122644811386,99.82122644811386,0,0,1,587.5213739875127,451.997017332841" stroke="grey" stroke-width="5" fill="none" />
<path d="M587.5213739875127,451.997017332841 L122.049024,-66.94041599999997" stroke="grey" stroke-width="5" />
<circle cx="587.5213739875127" cy="451.997017332841" r="2.5" fill="grey" stroke="none" />
<circle cx="574.049024" cy="433.05958400000003" r="5" fill="black" stroke="none" />
<circle cx="622.049024" cy="433.05958400000003" r="5" fill="black" stroke="none" />
<path d="M574.049024,481.05958400000003 A76.43295960255386,76.43295960255386,0,0,0,567.0149814861743,463.2441899828973" stroke="grey" stroke-width="5" fill="none" />
<path d="M567.0149814861743,463.2441899828973 L122.049024,-66.94041599999997" stroke="grey" stroke-width="5" />
<circle cx="567.0149814861743" cy="463.2441899828973" r="2.5" fill="grey" stroke="none" />
<circle cx="574.049024" cy="481.05958400000003" r="5" fill="black" stroke="none" />
<circle cx="622.049024" cy="433.05958400000003" r="5" fill="black" stroke="none" />
<path d="M622.049024,433.05958400000003 L607.1022003834479,441.25749134885865" stroke="grey" stroke-width="5" />
<circle cx="607.1022003834479" cy="441.25749134885865" r="2.5" fill="grey" stroke="none" />
<path d="M607.1022003834479,441.25749134885865 A122.15385237316764,122.15385237316764,0,0,1,622.049024,505.05958400000003" stroke="grey" stroke-width="5" fill="none" />
<circle cx="622.049024" cy="433.05958400000003" r="5" fill="black" stroke="none" />
<circle cx="622.049024" cy="505.05958400000003" r="5" fill="black" stroke="none" />
<path d="M622.049024,505.05958400000003 L582.7339557720555,503.42976441074205" stroke="grey" stroke-width="5" />
<circle cx="582.7339557720555" cy="503.42976441074205" r="2.5" fill="grey" stroke="none" />
<path d="M582.7339557720555,503.42976441074205 A82.80501628286558,82.80501628286558,0,0,1,574.049024,537.059584" stroke="grey" stroke-width="5" fill="none" />
<circle cx="622.049024" cy="505.05958400000003" r="5" fill="black" stroke="none" />
<circle cx="574.049024" cy="537.0595840000001" r="5" fill="black" stroke="none" />
<path d="M622.049024,377.0595840000001 A173.23484102687203,173.23484102687203,0,0,1,622.2542475918359,377.26366026575624" stroke="grey" stroke-width="5" fill="none" />
<path d="M622.2542475918359,377.2636602657562 L226.049024,-226.94041599999997" stroke="grey" stroke-width="5" />
<circle cx="622.2542475918359" cy="377.2636602657562" r="2.5" fill="grey" stroke="none" />
<circle cx="622.049024" cy="377.05958400000003" r="5" fill="black" stroke="none" />
<circle cx="726.049024" cy="273.05958400000003" r="5" fill="black" stroke="none" />
<path d="M622.049024,377.0595840000001 A173.23484102687203,173.23484102687203,0,0,1,661.0831274768915,436.26197219972084" stroke="grey" stroke-width="5" fill="none" />
<path d="M661.0831274768915,436.26197219972084 L250.049024,-98.94041599999997" stroke="grey" stroke-width="5" />
<circle cx="661.0831274768915" cy="436.26197219972084" r="2.5" fill="grey" stroke="none" />
<circle cx="622.049024" cy="377.05958400000003" r="5" fill="black" stroke="none" />
<circle cx="750.049024" cy="401.05958400000003" r="5" fill="black" stroke="none" />
<path d="M750.0490239999999,401.05958400000003 A268.9121051972291,268.9121051972291,0,0,1,758.0851633384905,424.46346058926" stroke="grey" stroke-width="5" fill="none" />
<path d="M758.0851633384905,424.46346058926 L338.04902400000003,-98.94041599999997" stroke="grey" stroke-width="5" />
<circle cx="758.0851633384905" cy="424.46346058926" r="2.5" fill="grey" stroke="none" />
<circle cx="750.049024" cy="401.05958400000003" r="5" fill="black" stroke="none" />
<circle cx="838.049024" cy="401.05958400000003" r="5" fill="black" stroke="none" />
<path d="M622.049024,433.05958400000003 A139.20123402328596,139.20123402328596,0,0,1,636.5191968761334,527.1936102402967" stroke="grey" stroke-width="5" fill="none" />
<path d="M636.5191968761334,527.1936102402967 L186.049024,37.05958400000003" stroke="grey" stroke-width="5" />
<circle cx="636.5191968761334" cy="527.1936102402967" r="2.5" fill="grey" stroke="none" />
<circle cx="622.049024" cy="433.05958400000003" r="5" fill="black" stroke="none" />
<circle cx="686.049024" cy="537.0595840000001" r="5" fill="black" stroke="none" />
<circle cx="500" cy="500" r="5" fill="red" stroke="none" />
</svg>