<?xml version="1.0" encoding="UTF-8"?>
<svg xmlns="http://www.w3.org/2000/svg" xmlns:xlink="http://www.w3.org/1999/xlink"
     width="1000" height="1000" viewBox="0 0 1000 1000">
<defs>
</defs>
<rect x="0" y="0" width="1000" height="1000" fill="white" />
<path d="M228.70822399999997,723.536784 L339.05092070575733,632.6175091028044" stroke="grey" stroke-width="5" />
<circle cx="339.05092070575733" cy="632.6175091028044" r="2.5" fill="grey" stroke="none" />
<path d="M339.05092070575733,632.6175091028044 A208.54738033908947,208.54738033908947,0,0,0,348.708224,643.536784" stroke="grey" stroke-width="5" fill="none" />
<circle cx="228.70822399999997" cy="723.536784" r="5" fill="black" stroke="none" />
<circle cx="348.708224" cy="643.536784" r="5" fill="black" stroke="none" />
<path d="M348.708224,643.536784 L373.19697231711723,620.3032925931411" stroke="grey" stroke-width="5" />
<circle cx="373.19697231711723" cy="620.3032925931411" r="2.5" fill="grey" stroke="none" />
<path d="M373.19697231711723,620.3032925931411 A174.79098957983172,174.79098957983172,0,0,1,348.7082239999999,587.5367839999999" stroke="grey" stroke-width="5" fill="none" />
<circle cx="348.708224" cy="643.536784" r="5" fill="black" stroke="none" />
<circle cx="348.708224" cy="587.536784" r="5" fill="black" stroke="none" />
<path d="M348.7082239999999,587.5367839999999 A174.79098957983172,174.79098957983172,0,0,1,334.65879644748145,556.6937072883885" stroke="grey" stroke-width="5" fill="none" />
<path d="M334.65879644748145,556.6937072883885 L244.70822399999997,587.536784" stroke="grey" stroke-width="5" />
<circle cx="334.65879644748145" cy="556.6937072883885" r="2.5" fill="grey" stroke="none" />
<circle cx="348.708224" cy="587.536784" r="5" fill="black" stroke="none" />
<circle cx="244.70822399999997" cy="587.536784" r="5" fill="black" stroke="none" />
<path d="M244.70822399999997,587.536784 L295.7530515788212,570.0340656747355" stroke="grey" stroke-width="5" />
<circle cx="295.7530515788212" cy="570.0340656747355" r="2.5" fill="grey" stroke="none" />
<path d="M295.7530515788212,570.0340656747355 A215.92032394912906,215.92032394912906,0,0,1,284.708224,483.536784" stroke="grey" stroke-width="5" fill="none" />
<circle cx="244.70822399999997" cy="587.536784" r="5" fill="black" stroke="none" />
<circle cx="284.708224" cy="483.536784" r="5" fill="black" stroke="none" />
<path d="M284.708224,483.536784 L353.5203508361351,488.7988006388645" stroke="grey" stroke-width="5" />
<circle cx="353.5203508361351" cy="488.7988006388645" r="2.5" fill="grey" stroke="none" />
<path d="M353.5203508361351,488.7988006388645 A146.90729895514667,146.90729895514667,0,0,1,396.7082239999999,395.53678400000007" stroke="grey" stroke-width="5" fill="none" />
<circle cx="284.708224" cy="483.536784" r="5" fill="black" stroke="none" />
<circle cx="396.708224" cy="395.536784" r="5" fill="black" stroke="none" />
<path d="M396.708224,395.536784 L431.35589985686136,430.5774018216288" stroke="grey" stroke-width="5" />
<circle cx="431.35589985686136" cy="430.5774018216288" r="2.5" fill="grey" stroke="none" />
<path d="M431.3558998568613,430.5774018216289 A97.62945058893261,97.62945058893261,0,0,1,444.708224,419.536784" stroke="grey" stroke-width="5" fill="none" />
<circle cx="396.708224" cy="395.536784" r="5" fill="black" stroke="none" />
<circle cx="444.708224" cy="419.536784" r="5" fill="black" stroke="none" />
<path d="M444.708224,419.536784 A97.62945058893261,97.62945058893261,0,0,0,420.0766689345654,443.9306610195753" stroke="grey" stroke-width="5" fill="none" />
<path d="M420.0766689345654,443.9306610195753 L396.708224,427.536784" stroke="grey" stroke-width="5" />
<circle cx="420.0766689345654" cy="443.9306610195753" r="2.5" fill="grey" stroke="none" />
<circle cx="444.708224" cy="419.536784" r="5" fill="black" stroke="none" />
<circle cx="396.708224" cy="427.536784" r="5" fill="black" stroke="none" />
<path d="M396.708224,395.536784 L411.28534157439407,410.2792217893486" stroke="grey" stroke-width="5" />
<circle cx="411.28534157439407" cy="410.2792217893486" r="2.5" fill="grey" stroke="none" />
<path d="M411.285341574394,410.27922178934864 A126.17491296726476,126.17491296726476,0,0,0,396.708224,427.536784" stroke="grey" stroke-width="5" fill="none" />
<circle cx="396.708224" cy="395.536784" r="5" fill="black" stroke="none" />
<circle cx="396.708224" cy="427.536784" r="5" fill="black" stroke="none" />
<path d="M396.708224,427.536784 A126.17491296726476,126.17491296726476,0,0,0,377.9246564298799,531.9017108402351" stroke="grey" stroke-width="5" fill="none" />
<path d="M377.9246564298799,531.9017108402352 L348.708224,539.536784" stroke="grey" stroke-width="5" />
<circle cx="377.9246564298799" cy="531.9017108402352" r="2.5" fill="grey" stroke="none" />
<circle cx="396.708224" cy="427.536784" r="5" fill="black" stroke="none" />
<circle cx="348.708224" cy="539.536784" r="5" fill="black" stroke="none" />
<path d="M284.708224,483.536784 L344.08270310434045,488.0771101218034" stroke="grey" stroke-width="5" />
<circle cx="344.08270310434045" cy="488.0771101218034" r="2.5" fill="grey" stroke="none" />
<path d="M344.08270310434045,488.0771101218034 A156.37250005770466,156.37250005770466,0,0,0,348.708224,539.5367839999999" stroke="grey" stroke-width="5" fill="none" />
<circle cx="284.708224" cy="483.536784" r="5" fill="black" stroke="none" />
<circle cx="348.708224" cy="539.536784" r="5" fill="black" stroke="none" />
<path d="M348.708224,539.5367839999999 A156.37250005770466,156.37250005770466,0,0,0,364.65049881484265,578.3126509781525" stroke="grey" stroke-width="5" fill="none" />
<path d="M364.65049881484276,578.3126509781526 L348.708224,587.536784" stroke="grey" stroke-width="5" />
<circle cx="364.65049881484276" cy="578.3126509781526" r="2.5" fill="grey" stroke="none" />
<circle cx="348.708224" cy="539.536784" r="5" fill="black" stroke="none" />
<circle cx="348.708224" cy="587.536784" r="5" fill="black" stroke="none" />
<path d="M444.708224,419.536784 A97.62945058893261,97.62945058893261,0,0,1,487.70543765276716,403.1477756631948" stroke="grey" stroke-width="5" fill="none" />
<path d="M487.70543765276716,403.1477756631948 L484.708224,379.536784" stroke="grey" stroke-width="5" />
<circle cx="487.70543765276716" cy="403.1477756631948" r="2.5" fill="grey" stroke="none" />
<circle cx="444.708224" cy="419.536784" r="5" fill="black" stroke="none" />
<circle cx="484.708224" cy="379.536784" r="5" fill="black" stroke="none" />
<path d="M444.708224,419.536784 L489.802558825073,485.16019973919003" stroke="grey" stroke-width="5" />
<circle cx="489.802558825073" cy="485.16019973919003" r="2.5" fill="grey" stroke="none" />
<path d="M489.802558825073,485.16019973919003 A18.005762363666584,18.005762363666584,0,0,1,492.708224,483.536784" stroke="grey" stroke-width="5" fill="none" />
<circle cx="444.708224" cy="419.536784" r="5" fill="black" stroke="none" />
<circle cx="492.708224" cy="483.536784" r="5" fill="black" stroke="none" />
<path d="M396.708224,427.536784 L452.7721025259566,466.86778494458787" stroke="grey" stroke-width="5" />
<circle cx="452.7721025259566" cy="466.86778494458787" r="2.5" fill="grey" stroke="none" />
<path d="M452.7721025259566,466.86778494458787 A57.69070960125932,57.69070960125932,0,0,0,444.708224,483.536784" stroke="grey" stroke-width="5" fill="none" />
<circle cx="396.708224" cy="427.536784" r="5" fill="black" stroke="none" />
<circle cx="444.708224" cy="483.536784" r="5" fill="black" stroke="none" />
<path d="M348.708224,539.536784 L392.9935736638057,527.9637801638737" stroke="grey" stroke-width="5" />
<circle cx="392.9935736638057" cy="527.9637801638737" r="2.5" fill="grey" stroke="none" />
<path d="M392.9935736638057,527.9637801638737 A110.59994700856252,110.59994700856252,0,0,0,396.708224,539.5367839999999" stroke="grey" stroke-width="5" fill="none" />
<circle cx="348.708224" cy="539.536784" r="5" fill="black" stroke="none" />
<circle cx="396.708224" cy="539.536784" r="5" fill="black" stroke="none" />
<path d="M348.708224,587.536784 L410.3828723764909,551.8520923667361" stroke="grey" stroke-width="5" />
<circle cx="410.3828723764909" cy="551.8520923667361" r="2.5" fill="grey" stroke="none" />
<path d="M410.3828723764909,551.852092366736 A103.53680044456095,103.53680044456095,0,0,0,444.708224,587.536784" stroke="grey" stroke-width="5" fill="none" />
<circle cx="348.708224" cy="587.536784" r="5" fill="black" stroke="none" />
<circle cx="444.708224" cy="587.536784" r="5" fill="black" stroke="none" />
<path d="M348.708224,643.536784 L388.4119084509653,605.8682515145173" stroke="grey" stroke-width="5" />
<circle cx="388.4119084509653" cy="605.8682515145173" r="2.5" fill="grey" stroke="none" />
<path d="M388.4119084509653,605.8682515145173 A153.81803813043788,153.81803813043788,0,0,0,444.708224,643.536784" stroke="grey" stroke-width="5" fill="none" />
<circle cx="348.708224" cy="643.536784" r="5" fill="black" stroke="none" />
<circle cx="444.708224" cy="643.536784" r="5" fill="black" stroke="none" />
<path d="M492.708224,483.536784 A18.005762363666584,18.005762363666584,0,0,0,482.74296526768063,494.8616899135655" stroke="grey" stroke-width="5" fill="none" />
<path d="M482.74296526768063,494.8616899135655 L444.708224,483.536784" stroke="grey" stroke-width="5" />
<circle cx="482.74296526768063" cy="494.8616899135655" r="2.5" fill="grey" stroke="none" />
<circle cx="492.708224" cy="483.536784" r="5" fill="black" stroke="none" />
<circle cx="444.708224" cy="483.536784" r="5" fill="black" stroke="none" />
<path d="M444.708224,483.536784 A57.69070960125932,57.69070960125932,0,0,0,446.1213498325366,520.6230218549302" stroke="grey" stroke-width="5" fill="none" />
<path d="M446.1213498325366,520.6230218549302 L396.708224,539.536784" stroke="grey" stroke-width="5" />
<circle cx="446.1213498325366" cy="520.6230218549302" r="2.5" fill="grey" stroke="none" />
<circle cx="444.708224" cy="483.536784" r="5" fill="black" stroke="none" />
<circle cx="396.708224" cy="539.536784" r="5" fill="black" stroke="none" />
<path d="M396.708224,539.536784 L403.3046553046871,537.0118813430425" stroke="grey" stroke-width="5" />
<circle cx="403.3046553046871" cy="537.0118813430425" r="2.5" fill="grey" stroke="none" />
<path d="M403.3046553046871,537.0118813430425 A103.53680044456095,103.53680044456095,0,0,0,444.708224,587.536784" stroke="grey" stroke-width="5" fill="none" />
<circle cx="396.708224" cy="539.536784" r="5" fill="black" stroke="none" />
<circle cx="444.708224" cy="587.536784" r="5" fill="black" stroke="none" />
<path d="M444.708224,587.536784 A103.53680044456095,103.53680044456095,0,0,0,462.7824301524195,596.6163626977196" stroke="grey" stroke-width="5" fill="none" />
<path d="M462.7824301524195,596.6163626977196 L444.708224,643.536784" stroke="grey" stroke-width="5" />
<circle cx="462.7824301524195" cy="596.6163626977196" r="2.5" fill="grey" stroke="none" />
<circle cx="444.708224" cy="587.536784" r="5" fill="black" stroke="none" />
<circle cx="444.708224" cy="643.536784" r="5" fill="black" stroke="none" />
<path d="M444.708224,643.536784 A153.81803813043788,153.81803813043788,0,0,0,511.46512457551745,653.3901553971593" stroke="grey" stroke-width="5" fill="none" />
<path d="M511.46512457551745,653.3901553971593 L516.708224,723.536784" stroke="grey" stroke-width="5" />
<circle cx="511.46512457551745" cy="653.3901553971593" r="2.5" fill="grey" stroke="none" />
<circle cx="444.708224" cy="643.536784" r="5" fill="black" stroke="none" />
<circle cx="516.708224" cy="723.536784" r="5" fill="black" stroke="none" />
<path d="M492.708224,483.536784 A18.005762363666584,18.005762363666584,0,0,0,482.4948278807487,504.2162100721167" stroke="grey" stroke-width="5" fill="none" />
<path d="M482.4948278807487,504.2162100721167 L468.708224,507.536784" stroke="grey" stroke-width="5" />
<circle cx="482.4948278807487" cy="504.2162100721167" r="2.5" fill="grey" stroke="none" />
<circle cx="492.708224" cy="483.536784" r="5" fill="black" stroke="none" />
<circle cx="468.708224" cy="507.536784" r="5" fill="black" stroke="none" />
<path d="M468.708224,507.536784 A32.186617689605626,32.186617689605626,0,0,0,473.81822912152853,518.7214644716714" stroke="grey" stroke-width="5" fill="none" />
<path d="M473.81822912152853,518.7214644716714 L444.708224,539.536784" stroke="grey" stroke-width="5" />
<circle cx="473.81822912152853" cy="518.7214644716714" r="2.5" fill="grey" stroke="none" />
<circle cx="468.708224" cy="507.536784" r="5" fill="black" stroke="none" />
<circle cx="444.708224" cy="539.536784" r="5" fill="black" stroke="none" />
<path d="M444.708224,539.536784 A67.97306659476853,67.97306659476853,0,0,0,463.7003311281244,557.4688769864961" stroke="grey" stroke-width="5" fill="none" />
<path d="M463.7003311281244,557.4688769864961 L444.708224,587.536784" stroke="grey" stroke-width="5" />
<circle cx="463.7003311281244" cy="557.4688769864961" r="2.5" fill="grey" stroke="none" />
<circle cx="444.708224" cy="539.536784" r="5" fill="black" stroke="none" />
<circle cx="444.708224" cy="587.536784" r="5" fill="black" stroke="none" />
<path d="M444.708224,483.536784 L469.15178773511803,490.81489475522363" stroke="grey" stroke-width="5" />
<circle cx="469.15178773511803" cy="490.81489475522363" r="2.5" fill="grey" stroke="none" />
<path d="M469.15178773511803,490.81489475522363 A32.186617689605626,32.186617689605626,0,0,0,468.708224,507.536784" stroke="grey" stroke-width="5" fill="none" />
<circle cx="444.708224" cy="483.536784" r="5" fill="black" stroke="none" />
<circle cx="468.708224" cy="507.536784" r="5" fill="black" stroke="none" />
<path d="M396.708224,539.536784 L436.51842556311215,524.2987137377826" stroke="grey" stroke-width="5" />
<circle cx="436.51842556311215" cy="524.2987137377826" r="2.5" fill="grey" stroke="none" />
<path d="M436.51842556311215,524.2987137377825 A67.97306659476853,67.97306659476853,0,0,0,444.708224,539.536784" stroke="grey" stroke-width="5" fill="none" />
<circle cx="396.708224" cy="539.536784" r="5" fill="black" stroke="none" />
<circle cx="444.708224" cy="539.536784" r="5" fill="black" stroke="none" />
<path d="M492.708224,483.536784 A18.005762363666584,18.005762363666584,0,0,0,496.7342707154609,517.7071310645439" stroke="grey" stroke-width="5" fill="none" />
<path d="M496.7342707154609,517.7071310645439 L492.708224,539.536784" stroke="grey" stroke-width="5" />
<circle cx="496.7342707154609" cy="517.7071310645439" r="2.5" fill="grey" stroke="none" />
<circle cx="492.708224" cy="483.536784" r="5" fill="black" stroke="none" />
<circle cx="492.708224" cy="539.536784" r="5" fill="black" stroke="none" />
<path d="M468.708224,507.536784 A32.186617689605626,32.186617689605626,0,0,0,494.16226995357255,531.652792391855" stroke="grey" stroke-width="5" fill="none" />
<path d="M494.16226995357255,531.652792391855 L492.708224,539.536784" stroke="grey" stroke-width="5" />
<circle cx="494.16226995357255" cy="531.652792391855" r="2.5" fill="grey" stroke="none" />
<circle cx="468.708224" cy="507.536784" r="5" fill="black" stroke="none" />
<circle cx="492.708224" cy="539.536784" r="5" fill="black" stroke="none" />
<path d="M444.708224,539.536784 L467.29694470096786,523.3845560232662" stroke="grey" stroke-width="5" />
<circle cx="467.29694470096786" cy="523.3845560232662" r="2.5" fill="grey" stroke="none" />
<path d="M467.29694470096786,523.3845560232662 A40.203573053857205,40.203573053857205,0,0,0,492.708224,539.536784" stroke="grey" stroke-width="5" fill="none" />
<circle cx="444.708224" cy="539.536784" r="5" fill="black" stroke="none" />
<circle cx="492.708224" cy="539.536784" r="5" fill="black" stroke="none" />
<path d="M444.708224,587.536784 L478.5300787145361,533.99073059369" stroke="grey" stroke-width="5" />
<circle cx="478.5300787145361" cy="533.99073059369" r="2.5" fill="grey" stroke="none" />
<path d="M478.5300787145361,533.99073059369 A40.203573053857205,40.203573053857205,0,0,0,492.708224,539.536784" stroke="grey" stroke-width="5" fill="none" />
<circle cx="444.708224" cy="587.536784" r="5" fill="black" stroke="none" />
<circle cx="492.708224" cy="539.536784" r="5" fill="black" stroke="none" />
<path d="M492.708224,539.536784 A40.203573053857205,40.203573053857205,0,0,0,497.3772689837679,540.1179332507711" stroke="grey" stroke-width="5" fill="none" />
<path d="M497.3772689837679,540.1179332507711 L492.708224,611.536784" stroke="grey" stroke-width="5" />
<circle cx="497.3772689837679" cy="540.1179332507711" r="2.5" fill="grey" stroke="none" />
<circle cx="492.708224" cy="539.536784" r="5" fill="black" stroke="none" />
<circle cx="492.708224" cy="611.536784" r="5" fill="black" stroke="none" />
<path d="M492.708224,611.536784 A111.77488171452849,111.77488171452849,0,0,1,459.82115103467015,604.3038075916601" stroke="grey" stroke-width="5" fill="none" />
<path d="M459.82115103467015,604.3038075916601 L444.708224,643.536784" stroke="grey" stroke-width="5" />
<circle cx="459.82115103467015" cy="604.3038075916601" r="2.5" fill="grey" stroke="none" />
<circle cx="492.708224" cy="611.536784" r="5" fill="black" stroke="none" />
<circle cx="444.708224" cy="643.536784" r="5" fill="black" stroke="none" />
<path d="M492.708224,483.536784 A18.005762363666584,18.005762363666584,0,0,1,511.2720916680251,485.95908023936926" stroke="grey" stroke-width="5" fill="none" />
<path d="M511.2720916680251,485.95908023936926 L596.708224,379.536784" stroke="grey" stroke-width="5" />
<circle cx="511.2720916680251" cy="485.95908023936926" r="2.5" fill="grey" stroke="none" />
<circle cx="492.708224" cy="483.536784" r="5" fill="black" stroke="none" />
<circle cx="596.708224" cy="379.536784" r="5" fill="black" stroke="none" />
<path d="M492.708224,483.536784 A18.005762363666584,18.005762363666584,0,0,1,517.9707668498938,501.1220593226689" stroke="grey" stroke-width="5" fill="none" />
<path d="M517.9707668498938,501.1220593226689 L620.708224,507.536784" stroke="grey" stroke-width="5" />
<circle cx="517.9707668498938" cy="501.1220593226689" r="2.5" fill="grey" stroke="none" />
<circle cx="492.708224" cy="483.536784" r="5" fill="black" stroke="none" />
<circle cx="620.708224" cy="507.536784" r="5" fill="black" stroke="none" />
<path d="M620.708224,507.536784 A120.94328610674023,120.94328610674023,0,0,0,620.8645053260703,504.3646084109721" stroke="grey" stroke-width="5" fill="none" />
<path d="M620.8645053260703,504.3646084109721 L708.708224,507.536784" stroke="grey" stroke-width="5" />
<circle cx="620.8645053260703" cy="504.3646084109721" r="2.5" fill="grey" stroke="none" />
<circle cx="620.708224" cy="507.536784" r="5" fill="black" stroke="none" />
<circle cx="708.708224" cy="507.536784" r="5" fill="black" stroke="none" />
<path d="M492.708224,539.536784 A40.203573053857205,40.203573053857205,0,0,0,514.7724422215118,537.3912053444246" stroke="grey" stroke-width="5" fill="none" />
<path d="M514.7724422215118,537.3912053444246 L556.708224,643.536784" stroke="grey" stroke-width="5" />
<circle cx="514.7724422215118" cy="537.3912053444246" r="2.5" fill="grey" stroke="none" />
<circle cx="492.708224" cy="539.536784" r="5" fill="black" stroke="none" />
<circle cx="556.708224" cy="643.536784" r="5" fill="black" stroke="none" />
<circle cx="500" cy="500" r="5" fill="red" stroke="none" />
</svg>