<?xml version="1.0" encoding="UTF-8"?>
<svg xmlns="http://www.w3.org/2000/svg" xmlns:xlink="http://www.w3.org/1999/xlink"
     width="1000" height="1000" viewBox="0 0 1000 1000">
<defs>
</defs>
<rect x="0" y="0" width="1000" height="1000" fill="white" />
<path d="M305.8753280000001,640.799248 L422.39400518896963,556.2878772549066" stroke="grey" stroke-width="5" />
<circle cx="422.39400518896963" cy="556.2878772549066" r="2.5" fill="grey" stroke="none" />
<path d="M422.39400518896963,556.2878772549064 A95.86978437689892,95.86978437689892,0,0,0,425.8753280000001,560.7992480000001" stroke="grey" stroke-width="5" fill="none" />
<circle cx="305.8753280000001" cy="640.799248" r="5" fill="black" stroke="none" />
<circle cx="425.8753280000001" cy="560.799248" r="5" fill="black" stroke="none" />
<path d="M425.8753280000001,560.799248 L442.56823063030464,547.1072356176755" stroke="grey" stroke-width="5" />
<circle cx="442.56823063030464" cy="547.1072356176755" r="2.5" fill="grey" stroke="none" />
<path d="M442.56823063030464,547.1072356176755 A74.27987466651436,74.27987466651436,0,0,1,425.8753280000001,504.7992480000001" stroke="grey" stroke-width="5" fill="none" />
<circle cx="425.8753280000001" cy="560.799248" r="5" fill="black" stroke="none" />
<circle cx="425.8753280000001" cy="504.7992480000001" r="5" fill="black" stroke="none" />
<path d="M425.8753280000001,504.7992480000001 A74.27987466651436,74.27987466651436,0,0,1,425.74707187435575,502.0006112168512" stroke="grey" stroke-width="5" fill="none" />
<path d="M425.74707187435575,502.0006112168512 L-178.12467199999995,4.799248000000091" stroke="grey" stroke-width="5" />
<circle cx="425.74707187435575" cy="502.0006112168512" r="2.5" fill="grey" stroke="none" />
<circle cx="425.8753280000001" cy="504.7992480000001" r="5" fill="black" stroke="none" />
<circle cx="321.8753280000001" cy="504.7992480000001" r="5" fill="black" stroke="none" />
<path d="M321.8753280000001,504.7992480000001 L330.00518846830425,504.5802035736738" stroke="grey" stroke-width="5" />
<circle cx="330.00518846830425" cy="504.5802035736738" r="2.5" fill="grey" stroke="none" />
<path d="M330.00518846830425,504.5802035736738 A170.05650299965907,170.05650299965907,0,0,1,361.875328,400.79924800000015" stroke="grey" stroke-width="5" fill="none" />
<circle cx="321.8753280000001" cy="504.7992480000001" r="5" fill="black" stroke="none" />
<circle cx="361.8753280000001" cy="400.7992480000001" r="5" fill="black" stroke="none" />
<path d="M361.875328,400.79924800000015 A170.05650299965907,170.05650299965907,0,0,1,476.4956565201204,331.5756548177999" stroke="grey" stroke-width="5" fill="none" />
<path d="M476.4956565201204,331.5756548177999 L-26.124671999999947,-187.2007519999999" stroke="grey" stroke-width="5" />
<circle cx="476.4956565201204" cy="331.5756548177999" r="2.5" fill="grey" stroke="none" />
<circle cx="361.8753280000001" cy="400.7992480000001" r="5" fill="black" stroke="none" />
<circle cx="473.8753280000001" cy="312.7992480000001" r="5" fill="black" stroke="none" />
<path d="M473.8753280000001,312.7992480000001 L477.241491774112,336.9200633682817" stroke="grey" stroke-width="5" />
<circle cx="477.241491774112" cy="336.9200633682817" r="2.5" fill="grey" stroke="none" />
<path d="M477.241491774112,336.9200633682817 A164.66030313488756,164.66030313488756,0,0,1,521.8753280000001,336.7992480000001" stroke="grey" stroke-width="5" fill="none" />
<circle cx="473.8753280000001" cy="312.7992480000001" r="5" fill="black" stroke="none" />
<circle cx="521.8753280000001" cy="336.7992480000001" r="5" fill="black" stroke="none" />
<path d="M521.8753280000001,336.7992480000001 L520.9086824431241,344.0109013201062" stroke="grey" stroke-width="5" />
<circle cx="520.9086824431241" cy="344.0109013201062" r="2.5" fill="grey" stroke="none" />
<path d="M520.9086824431241,344.0109013201062 A157.38415393067072,157.38415393067072,0,0,0,473.875328,344.7992480000001" stroke="grey" stroke-width="5" fill="none" />
<circle cx="521.8753280000001" cy="336.7992480000001" r="5" fill="black" stroke="none" />
<circle cx="473.8753280000001" cy="344.7992480000001" r="5" fill="black" stroke="none" />
<path d="M473.8753280000001,312.7992480000001 L478.2471640482685,344.12637799637133" stroke="grey" stroke-width="5" />
<circle cx="478.2471640482685" cy="344.12637799637133" r="2.5" fill="grey" stroke="none" />
<path d="M478.2471640482685,344.12637799637133 A157.38415393067072,157.38415393067072,0,0,0,473.875328,344.7992480000001" stroke="grey" stroke-width="5" fill="none" />
<circle cx="473.8753280000001" cy="312.7992480000001" r="5" fill="black" stroke="none" />
<circle cx="473.8753280000001" cy="344.7992480000001" r="5" fill="black" stroke="none" />
<path d="M473.8753280000001,344.7992480000001 L485.7586380346521,415.39529811029996" stroke="grey" stroke-width="5" />
<circle cx="485.7586380346521" cy="415.39529811029996" r="2.5" fill="grey" stroke="none" />
<path d="M485.7586380346521,415.39529811029996 A85.79494141540673,85.79494141540673,0,0,0,425.8753280000001,456.7992480000001" stroke="grey" stroke-width="5" fill="none" />
<circle cx="473.8753280000001" cy="344.7992480000001" r="5" fill="black" stroke="none" />
<circle cx="425.8753280000001" cy="456.7992480000001" r="5" fill="black" stroke="none" />
<path d="M361.8753280000001,400.7992480000001 L430.3149368990257,449.9523831427879" stroke="grey" stroke-width="5" />
<circle cx="430.3149368990257" cy="449.9523831427879" r="2.5" fill="grey" stroke="none" />
<path d="M430.3149368990257,449.9523831427879 A85.79494141540673,85.79494141540673,0,0,0,425.8753280000001,456.7992480000001" stroke="grey" stroke-width="5" fill="none" />
<circle cx="361.8753280000001" cy="400.7992480000001" r="5" fill="black" stroke="none" />
<circle cx="425.8753280000001" cy="456.7992480000001" r="5" fill="black" stroke="none" />
<path d="M425.8753280000001,456.7992480000001 L435.824056115414,462.5974866219454" stroke="grey" stroke-width="5" />
<circle cx="435.824056115414" cy="462.5974866219454" r="2.5" fill="grey" stroke="none" />
<path d="M435.824056115414,462.5974866219454 A74.27987466651436,74.27987466651436,0,0,0,425.8753280000001,504.7992480000001" stroke="grey" stroke-width="5" fill="none" />
<circle cx="425.8753280000001" cy="456.7992480000001" r="5" fill="black" stroke="none" />
<circle cx="425.8753280000001" cy="504.7992480000001" r="5" fill="black" stroke="none" />
<path d="M521.8753280000001,336.7992480000001 A164.66030313488756,164.66030313488756,0,0,1,547.9651936165457,342.48061824080077" stroke="grey" stroke-width="5" fill="none" />
<path d="M547.9651936165457,342.48061824080077 L61.87532800000005,-203.2007519999999" stroke="grey" stroke-width="5" />
<circle cx="547.9651936165457" cy="342.48061824080077" r="2.5" fill="grey" stroke="none" />
<circle cx="521.8753280000001" cy="336.7992480000001" r="5" fill="black" stroke="none" />
<circle cx="561.8753280000001" cy="296.7992480000001" r="5" fill="black" stroke="none" />
<path d="M521.8753280000001,336.7992480000001 L516.1201467391036,379.73574292590985" stroke="grey" stroke-width="5" />
<circle cx="516.1201467391036" cy="379.73574292590985" r="2.5" fill="grey" stroke="none" />
<path d="M516.1201467391036,379.73574292590985 A121.33981481967524,121.33981481967524,0,0,1,569.8753280000001,400.7992480000001" stroke="grey" stroke-width="5" fill="none" />
<circle cx="521.8753280000001" cy="336.7992480000001" r="5" fill="black" stroke="none" />
<circle cx="569.8753280000001" cy="400.7992480000001" r="5" fill="black" stroke="none" />
<path d="M473.8753280000001,344.7992480000001 L483.13775615263603,399.8252331926592" stroke="grey" stroke-width="5" />
<circle cx="483.13775615263603" cy="399.8252331926592" r="2.5" fill="grey" stroke="none" />
<path d="M483.13775615263603,399.8252331926592 A101.58404979362199,101.58404979362199,0,0,1,521.8753280000001,400.7992480000001" stroke="grey" stroke-width="5" fill="none" />
<circle cx="473.8753280000001" cy="344.7992480000001" r="5" fill="black" stroke="none" />
<circle cx="521.8753280000001" cy="400.7992480000001" r="5" fill="black" stroke="none" />
<path d="M425.8753280000001,456.7992480000001 L456.38164561614593,474.57869748975094" stroke="grey" stroke-width="5" />
<circle cx="456.38164561614593" cy="474.57869748975094" r="2.5" fill="grey" stroke="none" />
<path d="M456.38164561614593,474.57869748975094 A50.48567579495274,50.48567579495274,0,0,1,473.8753280000001,456.7992480000001" stroke="grey" stroke-width="5" fill="none" />
<circle cx="425.8753280000001" cy="456.7992480000001" r="5" fill="black" stroke="none" />
<circle cx="473.8753280000001" cy="456.7992480000001" r="5" fill="black" stroke="none" />
<path d="M425.8753280000001,504.7992480000001 L477.6511972424085,501.4469871372485" stroke="grey" stroke-width="5" />
<circle cx="477.6511972424085" cy="501.4469871372485" r="2.5" fill="grey" stroke="none" />
<path d="M477.6511972424085,501.4469871372485 A22.395596809933224,22.395596809933224,0,0,0,521.8753280000001,504.7992480000001" stroke="grey" stroke-width="5" fill="none" />
<circle cx="425.8753280000001" cy="504.7992480000001" r="5" fill="black" stroke="none" />
<circle cx="521.8753280000001" cy="504.7992480000001" r="5" fill="black" stroke="none" />
<path d="M425.8753280000001,560.799248 L450.0410435152736,540.9778135023126" stroke="grey" stroke-width="5" />
<circle cx="450.0410435152736" cy="540.9778135023126" r="2.5" fill="grey" stroke="none" />
<path d="M450.0410435152736,540.9778135023126 A64.61484761626465,64.61484761626465,0,0,0,521.8753280000001,560.7992480000001" stroke="grey" stroke-width="5" fill="none" />
<circle cx="425.8753280000001" cy="560.799248" r="5" fill="black" stroke="none" />
<circle cx="521.8753280000001" cy="560.799248" r="5" fill="black" stroke="none" />
<path d="M569.8753280000001,400.7992480000001 L558.4986783558754,416.95047379371215" stroke="grey" stroke-width="5" />
<circle cx="558.4986783558754" cy="416.95047379371215" r="2.5" fill="grey" stroke="none" />
<path d="M558.4986783558754,416.95047379371215 A101.58404979362199,101.58404979362199,0,0,0,521.8753280000001,400.7992480000001" stroke="grey" stroke-width="5" fill="none" />
<circle cx="569.8753280000001" cy="400.7992480000001" r="5" fill="black" stroke="none" />
<circle cx="521.8753280000001" cy="400.7992480000001" r="5" fill="black" stroke="none" />
<path d="M521.8753280000001,400.7992480000001 L510.8716941248152,450.69878574183457" stroke="grey" stroke-width="5" />
<circle cx="510.8716941248152" cy="450.69878574183457" r="2.5" fill="grey" stroke="none" />
<path d="M510.8716941248152,450.69878574183457 A50.48567579495274,50.48567579495274,0,0,0,473.8753280000001,456.7992480000001" stroke="grey" stroke-width="5" fill="none" />
<circle cx="521.8753280000001" cy="400.7992480000001" r="5" fill="black" stroke="none" />
<circle cx="473.8753280000001" cy="456.7992480000001" r="5" fill="black" stroke="none" />
<path d="M473.8753280000001,456.7992480000001 L488.4110173491578,480.8360171782698" stroke="grey" stroke-width="5" />
<circle cx="488.4110173491578" cy="480.8360171782698" r="2.5" fill="grey" stroke="none" />
<path d="M488.4110173491578,480.8360171782698 A22.395596809933224,22.395596809933224,0,0,1,521.8753280000001,504.7992480000001" stroke="grey" stroke-width="5" fill="none" />
<circle cx="473.8753280000001" cy="456.7992480000001" r="5" fill="black" stroke="none" />
<circle cx="521.8753280000001" cy="504.7992480000001" r="5" fill="black" stroke="none" />
<path d="M521.8753280000001,504.7992480000001 A22.395596809933224,22.395596809933224,0,0,1,507.5820193662381,521.0731046313324" stroke="grey" stroke-width="5" fill="none" />
<path d="M507.5820193662381,521.0731046313324 L21.875328000000053,60.79924800000009" stroke="grey" stroke-width="5" />
<circle cx="507.5820193662381" cy="521.0731046313324" r="2.5" fill="grey" stroke="none" />
<circle cx="521.8753280000001" cy="504.7992480000001" r="5" fill="black" stroke="none" />
<circle cx="521.8753280000001" cy="560.799248" r="5" fill="black" stroke="none" />
<path d="M521.8753280000001,560.7992480000001 A64.61484761626465,64.61484761626465,0,0,0,535.8442907014804,553.7611881991169" stroke="grey" stroke-width="5" fill="none" />
<path d="M535.8442907014804,553.7611881991169 L93.87532800000005,140.7992480000001" stroke="grey" stroke-width="5" />
<circle cx="535.8442907014804" cy="553.7611881991169" r="2.5" fill="grey" stroke="none" />
<circle cx="521.8753280000001" cy="560.799248" r="5" fill="black" stroke="none" />
<circle cx="593.8753280000001" cy="640.799248" r="5" fill="black" stroke="none" />
<path d="M569.8753280000001,400.7992480000001 L550.7274421519398,427.9831586835782" stroke="grey" stroke-width="5" />
<circle cx="550.7274421519398" cy="427.9831586835782" r="2.5" fill="grey" stroke="none" />
<path d="M550.7274421519398,427.9831586835782 A88.08915268336436,88.08915268336436,0,0,0,545.8753280000001,424.7992480000001" stroke="grey" stroke-width="5" fill="none" />
<circle cx="569.8753280000001" cy="400.7992480000001" r="5" fill="black" stroke="none" />
<circle cx="545.8753280000001" cy="424.7992480000001" r="5" fill="black" stroke="none" />
<path d="M545.8753280000001,424.7992480000001 L525.2181305697013,458.66138803681747" stroke="grey" stroke-width="5" />
<circle cx="525.2181305697013" cy="458.66138803681747" r="2.5" fill="grey" stroke="none" />
<path d="M525.2181305697013,458.66138803681747 A48.42349583077499,48.42349583077499,0,0,0,521.8753280000001,456.7992480000001" stroke="grey" stroke-width="5" fill="none" />
<circle cx="545.8753280000001" cy="424.7992480000001" r="5" fill="black" stroke="none" />
<circle cx="521.8753280000001" cy="456.7992480000001" r="5" fill="black" stroke="none" />
<path d="M521.8753280000001,456.7992480000001 L510.11721722209256,480.0198930895231" stroke="grey" stroke-width="5" />
<circle cx="510.11721722209256" cy="480.0198930895231" r="2.5" fill="grey" stroke="none" />
<path d="M510.11721722209256,480.0198930895231 A22.395596809933224,22.395596809933224,0,0,1,521.8753280000001,504.7992480000001" stroke="grey" stroke-width="5" fill="none" />
<circle cx="521.8753280000001" cy="456.7992480000001" r="5" fill="black" stroke="none" />
<circle cx="521.8753280000001" cy="504.7992480000001" r="5" fill="black" stroke="none" />
<path d="M521.8753280000001,400.7992480000001 L518.9693078008361,413.9775367591103" stroke="grey" stroke-width="5" />
<circle cx="518.9693078008361" cy="413.9775367591103" r="2.5" fill="grey" stroke="none" />
<path d="M518.9693078008361,413.9775367591103 A88.08915268336436,88.08915268336436,0,0,1,545.8753280000001,424.7992480000001" stroke="grey" stroke-width="5" fill="none" />
<circle cx="521.8753280000001" cy="400.7992480000001" r="5" fill="black" stroke="none" />
<circle cx="545.8753280000001" cy="424.7992480000001" r="5" fill="black" stroke="none" />
<path d="M473.8753280000001,456.7992480000001 L474.94243811234014,458.563861899072" stroke="grey" stroke-width="5" />
<circle cx="474.94243811234014" cy="458.563861899072" r="2.5" fill="grey" stroke="none" />
<path d="M474.94243811234014,458.563861899072 A48.42349583077499,48.42349583077499,0,0,1,521.8753280000001,456.7992480000001" stroke="grey" stroke-width="5" fill="none" />
<circle cx="473.8753280000001" cy="456.7992480000001" r="5" fill="black" stroke="none" />
<circle cx="521.8753280000001" cy="456.7992480000001" r="5" fill="black" stroke="none" />
<path d="M569.8753280000001,400.7992480000001 L547.3081481688821,432.83746912672075" stroke="grey" stroke-width="5" />
<circle cx="547.3081481688821" cy="432.83746912672075" r="2.5" fill="grey" stroke="none" />
<path d="M547.3081481688821,432.83746912672075 A82.15148468818495,82.15148468818495,0,0,1,569.8753280000001,456.7992480000001" stroke="grey" stroke-width="5" fill="none" />
<circle cx="569.8753280000001" cy="400.7992480000001" r="5" fill="black" stroke="none" />
<circle cx="569.8753280000001" cy="456.7992480000001" r="5" fill="black" stroke="none" />
<path d="M545.8753280000001,424.7992480000001 L542.7830917991017,429.86817061716755" stroke="grey" stroke-width="5" />
<circle cx="542.7830917991017" cy="429.86817061716755" r="2.5" fill="grey" stroke="none" />
<path d="M542.7830917991017,429.86817061716755 A82.15148468818495,82.15148468818495,0,0,1,569.8753280000001,456.7992480000001" stroke="grey" stroke-width="5" fill="none" />
<circle cx="545.8753280000001" cy="424.7992480000001" r="5" fill="black" stroke="none" />
<circle cx="569.8753280000001" cy="456.7992480000001" r="5" fill="black" stroke="none" />
<path d="M521.8753280000001,456.7992480000001 A48.42349583077499,48.42349583077499,0,0,1,541.1874193987472,474.5356831675228" stroke="grey" stroke-width="5" fill="none" />
<path d="M541.1874193987472,474.5356831675228 L69.87532800000005,-43.20075199999991" stroke="grey" stroke-width="5" />
<circle cx="541.1874193987472" cy="474.5356831675228" r="2.5" fill="grey" stroke="none" />
<circle cx="521.8753280000001" cy="456.7992480000001" r="5" fill="black" stroke="none" />
<circle cx="569.8753280000001" cy="456.7992480000001" r="5" fill="black" stroke="none" />
<path d="M521.8753280000001,504.7992480000001 A22.395596809933224,22.395596809933224,0,0,0,519.0489518088393,488.2228954552654" stroke="grey" stroke-width="5" fill="none" />
<path d="M519.0489518088393,488.2228954552654 L69.87532800000005,-43.20075199999991" stroke="grey" stroke-width="5" />
<circle cx="519.0489518088393" cy="488.2228954552654" r="2.5" fill="grey" stroke="none" />
<circle cx="521.8753280000001" cy="504.7992480000001" r="5" fill="black" stroke="none" />
<circle cx="569.8753280000001" cy="456.7992480000001" r="5" fill="black" stroke="none" />
<path d="M569.8753280000001,456.7992480000001 L564.2837126629295,460.25629062677933" stroke="grey" stroke-width="5" />
<circle cx="564.2837126629295" cy="460.25629062677933" r="2.5" fill="grey" stroke="none" />
<path d="M564.2837126629295,460.25629062677933 A75.57749763304618,75.57749763304618,0,0,1,569.8753280000001,528.7992480000001" stroke="grey" stroke-width="5" fill="none" />
<circle cx="569.8753280000001" cy="456.7992480000001" r="5" fill="black" stroke="none" />
<circle cx="569.8753280000001" cy="528.799248" r="5" fill="black" stroke="none" />
<path d="M569.8753280000001,528.799248 L559.7397877973979,524.6218660217901" stroke="grey" stroke-width="5" />
<circle cx="559.7397877973979" cy="524.6218660217901" r="2.5" fill="grey" stroke="none" />
<path d="M559.7397877973979,524.6218660217901 A64.61484761626465,64.61484761626465,0,0,1,521.8753280000001,560.7992480000001" stroke="grey" stroke-width="5" fill="none" />
<circle cx="569.8753280000001" cy="528.799248" r="5" fill="black" stroke="none" />
<circle cx="521.8753280000001" cy="560.799248" r="5" fill="black" stroke="none" />
<path d="M569.8753280000001,400.7992480000001 A121.33981481967524,121.33981481967524,0,0,1,578.8892626038587,407.80545077775747" stroke="grey" stroke-width="5" fill="none" />
<path d="M578.8892626038587,407.8054507777575 L173.87532800000005,-203.2007519999999" stroke="grey" stroke-width="5" />
<circle cx="578.8892626038587" cy="407.8054507777575" r="2.5" fill="grey" stroke="none" />
<circle cx="569.8753280000001" cy="400.7992480000001" r="5" fill="black" stroke="none" />
<circle cx="673.8753280000001" cy="296.7992480000001" r="5" fill="black" stroke="none" />
<path d="M569.8753280000001,400.7992480000001 A121.33981481967524,121.33981481967524,0,0,1,613.4249195569713,456.89387185135206" stroke="grey" stroke-width="5" fill="none" />
<path d="M613.4249195569713,456.89387185135206 L197.87532800000005,-75.20075199999991" stroke="grey" stroke-width="5" />
<circle cx="613.4249195569713" cy="456.89387185135206" r="2.5" fill="grey" stroke="none" />
<circle cx="569.8753280000001" cy="400.7992480000001" r="5" fill="black" stroke="none" />
<circle cx="697.8753280000001" cy="424.7992480000001" r="5" fill="black" stroke="none" />
<path d="M697.8753280000001,424.7992480000001 A211.68325047691678,211.68325047691678,0,0,1,704.7186969522115,446.14785379707064" stroke="grey" stroke-width="5" fill="none" />
<path d="M704.7186969522115,446.14785379707064 L285.8753280000001,-75.20075199999991" stroke="grey" stroke-width="5" />
<circle cx="704.7186969522115" cy="446.14785379707064" r="2.5" fill="grey" stroke="none" />
<circle cx="697.8753280000001" cy="424.7992480000001" r="5" fill="black" stroke="none" />
<circle cx="785.8753280000001" cy="424.7992480000001" r="5" fill="black" stroke="none" />
<path d="M569.8753280000001,456.7992480000001 A82.15148468818495,82.15148468818495,0,0,1,574.7991455794297,533.9699022232973" stroke="grey" stroke-width="5" fill="none" />
<path d="M574.7991455794297,533.9699022232973 L133.87532800000005,60.79924800000009" stroke="grey" stroke-width="5" />
<circle cx="574.7991455794297" cy="533.9699022232973" r="2.5" fill="grey" stroke="none" />
<circle cx="569.8753280000001" cy="456.7992480000001" r="5" fill="black" stroke="none" />
<circle cx="633.8753280000001" cy="560.799248" r="5" fill="black" stroke="none" />
<circle cx="500" cy="500" r="5" fill="red" stroke="none" />
</svg>