<?xml version="1.0" encoding="UTF-8"?>
<svg xmlns="http://www.w3.org/2000/svg" xmlns:xlink="http://www.w3.org/1999/xlink"
     width="1000" height="1000" viewBox="0 0 1000 1000">
<defs>
</defs>
<rect x="0" y="0" width="1000" height="1000" fill="white" />
<path d="M276.0,438.44 L281.47012281630555,439.94330696683824" stroke="grey" stroke-width="5" />
<circle cx="281.47012281630555" cy="439.94330696683824" r="2.5" fill="grey" stroke="none" />
<path d="M281.47012281630555,439.94330696683824 A226.63211069925637,226.63211069925637,0,0,0,276.0,534.44" stroke="grey" stroke-width="5" fill="none" />
<circle cx="276.0" cy="438.44" r="5" fill="black" stroke="none" />
<circle cx="276.0" cy="534.44" r="5" fill="black" stroke="none" />
<path d="M276.0,534.44 L318.3428487564334,527.9297870036984" stroke="grey" stroke-width="5" />
<circle cx="318.3428487564334" cy="527.9297870036984" r="2.5" fill="grey" stroke="none" />
<path d="M318.3428487564334,527.9297870036984 A183.79171254439083,183.79171254439083,0,0,0,340.0,590.4399999999999" stroke="grey" stroke-width="5" fill="none" />
<circle cx="276.0" cy="534.44" r="5" fill="black" stroke="none" />
<circle cx="340.0" cy="590.44" r="5" fill="black" stroke="none" />
<path d="M252.0,590.44 L327.33156254848586,562.9682801738505" stroke="grey" stroke-width="5" />
<circle cx="327.33156254848586" cy="562.9682801738505" r="2.5" fill="grey" stroke="none" />
<path d="M327.33156254848586,562.9682801738505 A183.79171254439083,183.79171254439083,0,0,0,340.0,590.4399999999999" stroke="grey" stroke-width="5" fill="none" />
<circle cx="252.0" cy="590.44" r="5" fill="black" stroke="none" />
<circle cx="340.0" cy="590.44" r="5" fill="black" stroke="none" />
<path d="M340.0,590.44 L368.7356401457264,574.1971794076281" stroke="grey" stroke-width="5" />
<circle cx="368.7356401457264" cy="574.1971794076281" r="2.5" fill="grey" stroke="none" />
<path d="M368.7356401457264,574.1971794076281 A150.78313433537585,150.78313433537585,0,0,0,412.0,622.4399999999999" stroke="grey" stroke-width="5" fill="none" />
<circle cx="340.0" cy="590.44" r="5" fill="black" stroke="none" />
<circle cx="412.0" cy="622.44" r="5" fill="black" stroke="none" />
<path d="M412.0,622.4399999999999 A150.78313433537585,150.78313433537585,0,0,0,430.42726956480567,633.7729000201153" stroke="grey" stroke-width="5" fill="none" />
<path d="M430.42726956480567,633.7729000201153 L-72.0,138.44" stroke="grey" stroke-width="5" />
<circle cx="430.42726956480567" cy="633.7729000201153" r="2.5" fill="grey" stroke="none" />
<circle cx="412.0" cy="622.44" r="5" fill="black" stroke="none" />
<circle cx="428.0" cy="638.44" r="5" fill="black" stroke="none" />
<path d="M428.0,638.44 A156.04369131752813,156.04369131752813,0,0,0,464.347299616471,651.9161563342172" stroke="grey" stroke-width="5" fill="none" />
<path d="M464.347299616471,651.9161563342171 L-40.0,170.44" stroke="grey" stroke-width="5" />
<circle cx="464.347299616471" cy="651.9161563342171" r="2.5" fill="grey" stroke="none" />
<circle cx="428.0" cy="638.44" r="5" fill="black" stroke="none" />
<circle cx="460.0" cy="670.44" r="5" fill="black" stroke="none" />
<path d="M428.0,638.44 A156.04369131752813,156.04369131752813,0,0,0,430.77870736064574,639.8500848957085" stroke="grey" stroke-width="5" fill="none" />
<path d="M430.7787073606458,639.8500848957085 L-120.0,242.44" stroke="grey" stroke-width="5" />
<circle cx="430.7787073606458" cy="639.8500848957085" r="2.5" fill="grey" stroke="none" />
<circle cx="428.0" cy="638.44" r="5" fill="black" stroke="none" />
<circle cx="380.0" cy="742.44" r="5" fill="black" stroke="none" />
<path d="M379.9999999999999,742.4399999999999 A270.51276051232776,270.51276051232776,0,0,0,405.64766195241606,753.5247323338582" stroke="grey" stroke-width="5" fill="none" />
<path d="M405.647661952416,753.5247323338582 L-120.0,322.44" stroke="grey" stroke-width="5" />
<circle cx="405.647661952416" cy="753.5247323338582" r="2.5" fill="grey" stroke="none" />
<circle cx="380.0" cy="742.44" r="5" fill="black" stroke="none" />
<circle cx="380.0" cy="822.44" r="5" fill="black" stroke="none" />
<path d="M276.0,838.44 L310.1134049469092,786.8983001328929" stroke="grey" stroke-width="5" />
<circle cx="310.1134049469092" cy="786.8983001328929" r="2.5" fill="grey" stroke="none" />
<path d="M310.1134049469092,786.8983001328929 A344.0458597338442,344.0458597338442,0,0,0,380.00000000000006,822.44" stroke="grey" stroke-width="5" fill="none" />
<circle cx="276.0" cy="838.44" r="5" fill="black" stroke="none" />
<circle cx="380.0" cy="822.44" r="5" fill="black" stroke="none" />
<path d="M380.00000000000006,822.44 A344.0458597338442,344.0458597338442,0,0,0,409.9404803603813,832.0494489112746" stroke="grey" stroke-width="5" fill="none" />
<path d="M409.94048036038123,832.0494489112746 L-120.0,442.44" stroke="grey" stroke-width="5" />
<circle cx="409.94048036038123" cy="832.0494489112746" r="2.5" fill="grey" stroke="none" />
<circle cx="380.0" cy="822.44" r="5" fill="black" stroke="none" />
<circle cx="380.0" cy="942.44" r="5" fill="black" stroke="none" />
<path d="M380.0,742.44 L390.99916942368424,720.2180113743499" stroke="grey" stroke-width="5" />
<circle cx="390.99916942368424" cy="720.2180113743499" r="2.5" fill="grey" stroke="none" />
<path d="M390.9991694236841,720.2180113743499 A245.71762981113096,245.71762981113096,0,0,0,460.0,742.4399999999999" stroke="grey" stroke-width="5" fill="none" />
<circle cx="380.0" cy="742.44" r="5" fill="black" stroke="none" />
<circle cx="460.0" cy="742.44" r="5" fill="black" stroke="none" />
<path d="M460.0,670.44 A175.0708245253903,175.0708245253903,0,0,0,471.50048620280813,672.7355531247799" stroke="grey" stroke-width="5" fill="none" />
<path d="M471.50048620280813,672.7355531247799 L-40.0,242.44" stroke="grey" stroke-width="5" />
<circle cx="471.50048620280813" cy="672.7355531247799" r="2.5" fill="grey" stroke="none" />
<circle cx="460.0" cy="670.44" r="5" fill="black" stroke="none" />
<circle cx="460.0" cy="742.44" r="5" fill="black" stroke="none" />
<path d="M460.0,742.44 L460.19125789224887,741.2807859150798" stroke="grey" stroke-width="5" />
<circle cx="460.19125789224887" cy="741.2807859150798" r="2.5" fill="grey" stroke="none" />
<path d="M460.19125789224887,741.2807859150798 A244.54274391197953,244.54274391197953,0,0,0,532.0,742.44" stroke="grey" stroke-width="5" fill="none" />
<circle cx="460.0" cy="742.44" r="5" fill="black" stroke="none" />
<circle cx="532.0" cy="742.44" r="5" fill="black" stroke="none" />
<path d="M460.0,670.44 L461.058045973781,665.931666105719" stroke="grey" stroke-width="5" />
<circle cx="461.058045973781" cy="665.931666105719" r="2.5" fill="grey" stroke="none" />
<path d="M461.058045973781,665.9316661057192 A170.44,170.44,0,0,0,500.0,670.44" stroke="grey" stroke-width="5" fill="none" />
<circle cx="460.0" cy="670.44" r="5" fill="black" stroke="none" />
<circle cx="500.0" cy="670.44" r="5" fill="black" stroke="none" />
<path d="M532.0,742.44 L530.79493793235,733.3101485099667" stroke="grey" stroke-width="5" />
<circle cx="530.79493793235" cy="733.3101485099667" r="2.5" fill="grey" stroke="none" />
<path d="M530.79493793235,733.3101485099667 A235.3337068929991,235.3337068929991,0,0,0,620.0,702.44" stroke="grey" stroke-width="5" fill="none" />
<circle cx="532.0" cy="742.44" r="5" fill="black" stroke="none" />
<circle cx="620.0" cy="702.44" r="5" fill="black" stroke="none" />
<path d="M500.0,670.44 A170.44,170.44,0,0,0,609.9971164753061,630.1938092503553" stroke="grey" stroke-width="5" fill="none" />
<path d="M609.9971164753061,630.1938092503553 L144.0,170.44" stroke="grey" stroke-width="5" />
<circle cx="609.9971164753061" cy="630.1938092503553" r="2.5" fill="grey" stroke="none" />
<circle cx="500.0" cy="670.44" r="5" fill="black" stroke="none" />
<circle cx="644.0" cy="670.44" r="5" fill="black" stroke="none" />
<path d="M620.0,702.44 L613.7757815585647,691.9397434892986" stroke="grey" stroke-width="5" />
<circle cx="613.7757815585647" cy="691.9397434892986" r="2.5" fill="grey" stroke="none" />
<path d="M613.7757815585647,691.9397434892986 A223.12730357354297,223.12730357354297,0,0,0,644.0,670.44" stroke="grey" stroke-width="5" fill="none" />
<circle cx="620.0" cy="702.44" r="5" fill="black" stroke="none" />
<circle cx="644.0" cy="670.44" r="5" fill="black" stroke="none" />
<path d="M380.0,822.44 L387.5359231762505,802.1909744254149" stroke="grey" stroke-width="5" />
<circle cx="387.5359231762505" cy="802.1909744254149" r="2.5" fill="grey" stroke="none" />
<path d="M387.53592317625055,802.1909744254149 A322.44,322.44,0,0,0,500.0,822.44" stroke="grey" stroke-width="5" fill="none" />
<circle cx="380.0" cy="822.44" r="5" fill="black" stroke="none" />
<circle cx="500.0" cy="822.44" r="5" fill="black" stroke="none" />
<path d="M500.0,822.44 L500.0,745.9493313672554" stroke="grey" stroke-width="5" />
<circle cx="500.0" cy="745.9493313672554" r="2.5" fill="grey" stroke="none" />
<path d="M500.0,745.9493313672554 A245.94933136725538,245.94933136725538,0,0,0,596.0,726.4399999999999" stroke="grey" stroke-width="5" fill="none" />
<circle cx="500.0" cy="822.44" r="5" fill="black" stroke="none" />
<circle cx="596.0" cy="726.44" r="5" fill="black" stroke="none" />
<path d="M596.0,726.44 L591.8564638339802,716.6664340684008" stroke="grey" stroke-width="5" />
<circle cx="591.8564638339802" cy="716.6664340684008" r="2.5" fill="grey" stroke="none" />
<path d="M591.8564638339802,716.6664340684008 A235.3337068929991,235.3337068929991,0,0,0,620.0,702.44" stroke="grey" stroke-width="5" fill="none" />
<circle cx="596.0" cy="726.44" r="5" fill="black" stroke="none" />
<circle cx="620.0" cy="702.44" r="5" fill="black" stroke="none" />
<path d="M620.0,702.44 A235.3337068929991,235.3337068929991,0,0,1,610.1958140927842,707.9395011930839" stroke="grey" stroke-width="5" fill="none" />
<path d="M610.1958140927842,707.9395011930839 L120.0,226.44" stroke="grey" stroke-width="5" />
<circle cx="610.1958140927842" cy="707.9395011930839" r="2.5" fill="grey" stroke="none" />
<circle cx="620.0" cy="702.44" r="5" fill="black" stroke="none" />
<circle cx="620.0" cy="726.44" r="5" fill="black" stroke="none" />
<path d="M620.0,726.44 A256.271484172547,256.271484172547,0,0,1,573.2291519566526,745.5861659452939" stroke="grey" stroke-width="5" fill="none" />
<path d="M573.2291519566526,745.5861659452939 L120.0,402.44" stroke="grey" stroke-width="5" />
<circle cx="573.2291519566526" cy="745.5861659452939" r="2.5" fill="grey" stroke="none" />
<circle cx="620.0" cy="726.44" r="5" fill="black" stroke="none" />
<circle cx="620.0" cy="902.44" r="5" fill="black" stroke="none" />
<path d="M620.0,902.44 A419.94994177877913,419.94994177877913,0,0,0,698.6001625583551,870.0215250925206" stroke="grey" stroke-width="5" fill="none" />
<path d="M698.6001625583551,870.0215250925206 L216.0,402.44" stroke="grey" stroke-width="5" />
<circle cx="698.6001625583551" cy="870.0215250925206" r="2.5" fill="grey" stroke="none" />
<circle cx="620.0" cy="902.44" r="5" fill="black" stroke="none" />
<circle cx="716.0" cy="902.44" r="5" fill="black" stroke="none" />
<path d="M620.0,902.44 A419.94994177877913,419.94994177877913,0,0,1,608.1067252640214,905.796611066048" stroke="grey" stroke-width="5" fill="none" />
<path d="M608.1067252640214,905.796611066048 L120.0,450.44" stroke="grey" stroke-width="5" />
<circle cx="608.1067252640214" cy="905.796611066048" r="2.5" fill="grey" stroke="none" />
<circle cx="620.0" cy="902.44" r="5" fill="black" stroke="none" />
<circle cx="620.0" cy="950.44" r="5" fill="black" stroke="none" />
<path d="M308.0,526.44 L473.8071884144911,503.60696842875444" stroke="grey" stroke-width="5" />
<circle cx="473.8071884144911" cy="503.60696842875444" r="2.5" fill="grey" stroke="none" />
<path d="M473.8071884144911,503.60696842875444 A26.439999999999998,26.439999999999998,0,0,0,500.0,526.44" stroke="grey" stroke-width="5" fill="none" />
<circle cx="308.0" cy="526.44" r="5" fill="black" stroke="none" />
<circle cx="500.0" cy="526.44" r="5" fill="black" stroke="none" />
<path d="M500.0,526.44 A26.439999999999998,26.439999999999998,0,0,1,500.0,526.44" stroke="grey" stroke-width="5" fill="none" />
<path d="M500.0,526.44 L0.0,170.44" stroke="grey" stroke-width="5" />
<circle cx="500.0" cy="526.44" r="2.5" fill="grey" stroke="none" />
<circle cx="500.0" cy="526.44" r="5" fill="black" stroke="none" />
<circle cx="500.0" cy="670.44" r="5" fill="black" stroke="none" />
<path d="M500.0,526.44 L500.0,446.44" stroke="grey" stroke-width="5" />
<circle cx="500.0" cy="526.44" r="5" fill="black" stroke="none" />
<circle cx="500.0" cy="446.44" r="5" fill="black" stroke="none" />
<path d="M500.0,446.44 A53.56,53.56,0,0,1,500.0,446.44" stroke="grey" stroke-width="5" fill="none" />
<path d="M500.0,446.44 L0.0,-109.56" stroke="grey" stroke-width="5" />
<circle cx="500.0" cy="446.44" r="2.5" fill="grey" stroke="none" />
<circle cx="500.0" cy="446.44" r="5" fill="black" stroke="none" />
<circle cx="500.0" cy="390.44" r="5" fill="black" stroke="none" />
<path d="M500.0,446.44 A53.56,53.56,0,0,1,548.9865776278896,521.6561495263295" stroke="grey" stroke-width="5" fill="none" />
<path d="M548.9865776278896,521.6561495263295 L96.0,42.44" stroke="grey" stroke-width="5" />
<circle cx="548.9865776278896" cy="521.6561495263295" r="2.5" fill="grey" stroke="none" />
<circle cx="500.0" cy="446.44" r="5" fill="black" stroke="none" />
<circle cx="596.0" cy="542.44" r="5" fill="black" stroke="none" />
<path d="M500.0,526.44 A26.439999999999998,26.439999999999998,0,0,0,524.1823209947984,510.69060107311714" stroke="grey" stroke-width="5" fill="none" />
<path d="M524.1823209947984,510.69060107311714 L96.0,42.44" stroke="grey" stroke-width="5" />
<circle cx="524.1823209947984" cy="510.69060107311714" r="2.5" fill="grey" stroke="none" />
<circle cx="500.0" cy="526.44" r="5" fill="black" stroke="none" />
<circle cx="596.0" cy="542.44" r="5" fill="black" stroke="none" />
<path d="M596.0,542.4399999999999 A104.96262954023207,104.96262954023207,0,0,1,582.1731739049604,565.3048473728032" stroke="grey" stroke-width="5" fill="none" />
<path d="M582.1731739049604,565.3048473728032 L144.0,114.44" stroke="grey" stroke-width="5" />
<circle cx="582.1731739049604" cy="565.3048473728032" r="2.5" fill="grey" stroke="none" />
<circle cx="596.0" cy="542.44" r="5" fill="black" stroke="none" />
<circle cx="644.0" cy="614.44" r="5" fill="black" stroke="none" />
<path d="M596.0,726.4399999999999 A245.94933136725538,245.94933136725538,0,0,0,615.1666166033478,717.3194055305174" stroke="grey" stroke-width="5" fill="none" />
<path d="M615.1666166033478,717.3194055305174 L120.0,226.44" stroke="grey" stroke-width="5" />
<circle cx="615.1666166033478" cy="717.3194055305174" r="2.5" fill="grey" stroke="none" />
<circle cx="596.0" cy="726.44" r="5" fill="black" stroke="none" />
<circle cx="620.0" cy="726.44" r="5" fill="black" stroke="none" />
<path d="M620.0,726.44 A256.271484172547,256.271484172547,0,0,0,637.5191354181707,716.2488404450735" stroke="grey" stroke-width="5" fill="none" />
<path d="M637.5191354181707,716.2488404450735 L144.0,226.44" stroke="grey" stroke-width="5" />
<circle cx="637.5191354181707" cy="716.2488404450735" r="2.5" fill="grey" stroke="none" />
<circle cx="620.0" cy="726.44" r="5" fill="black" stroke="none" />
<circle cx="644.0" cy="726.44" r="5" fill="black" stroke="none" />
<path d="M644.0,726.44 L619.7334692726159,688.2808804311885" stroke="grey" stroke-width="5" />
<circle cx="619.7334692726159" cy="688.2808804311885" r="2.5" fill="grey" stroke="none" />
<path d="M619.7334692726159,688.2808804311885 A223.12730357354297,223.12730357354297,0,0,0,644.0,670.44" stroke="grey" stroke-width="5" fill="none" />
<circle cx="644.0" cy="726.44" r="5" fill="black" stroke="none" />
<circle cx="644.0" cy="670.44" r="5" fill="black" stroke="none" />
<path d="M644.0,670.44 L636.2753720481443,661.297044526984" stroke="grey" stroke-width="5" />
<circle cx="636.2753720481443" cy="661.297044526984" r="2.5" fill="grey" stroke="none" />
<path d="M636.2753720481443,661.297044526984 A211.15802992072076,211.15802992072076,0,0,0,644.0,654.44" stroke="grey" stroke-width="5" fill="none" />
<circle cx="644.0" cy="670.44" r="5" fill="black" stroke="none" />
<circle cx="644.0" cy="654.44" r="5" fill="black" stroke="none" />
<path d="M644.0,654.44 L636.2229336440813,646.0990963332772" stroke="grey" stroke-width="5" />
<circle cx="636.2229336440813" cy="646.0990963332772" r="2.5" fill="grey" stroke="none" />
<path d="M636.2229336440813,646.0990963332772 A199.75393262712,199.75393262712,0,0,0,644.0,638.44" stroke="grey" stroke-width="5" fill="none" />
<circle cx="644.0" cy="654.44" r="5" fill="black" stroke="none" />
<circle cx="644.0" cy="638.44" r="5" fill="black" stroke="none" />
<path d="M644.0,638.44 L632.5971795738733,627.4774551403266" stroke="grey" stroke-width="5" />
<circle cx="632.5971795738733" cy="627.4774551403266" r="2.5" fill="grey" stroke="none" />
<path d="M632.5971795738733,627.4774551403266 A183.93616718851135,183.93616718851135,0,0,0,644.0,614.4399999999999" stroke="grey" stroke-width="5" fill="none" />
<circle cx="644.0" cy="638.44" r="5" fill="black" stroke="none" />
<circle cx="644.0" cy="614.44" r="5" fill="black" stroke="none" />
<path d="M644.0,614.4399999999999 A183.93616718851135,183.93616718851135,0,0,0,657.999209490192,594.1741121565499" stroke="grey" stroke-width="5" fill="none" />
<path d="M657.999209490192,594.1741121565499 L192.0,114.44" stroke="grey" stroke-width="5" />
<circle cx="657.999209490192" cy="594.1741121565499" r="2.5" fill="grey" stroke="none" />
<circle cx="644.0" cy="614.44" r="5" fill="black" stroke="none" />
<circle cx="692.0" cy="614.44" r="5" fill="black" stroke="none" />
<path d="M692.0,614.4399999999999 A223.51848603639027,223.51848603639027,0,0,1,674.1662993001222,640.0950169995358" stroke="grey" stroke-width="5" fill="none" />
<path d="M674.1662993001222,640.0950169995358 L192.0,154.44" stroke="grey" stroke-width="5" />
<circle cx="674.1662993001222" cy="640.0950169995358" r="2.5" fill="grey" stroke="none" />
<circle cx="692.0" cy="614.44" r="5" fill="black" stroke="none" />
<circle cx="692.0" cy="654.44" r="5" fill="black" stroke="none" />
<path d="M692.0,654.44 L664.5349934627284,632.3478353665821" stroke="grey" stroke-width="5" />
<circle cx="664.5349934627284" cy="632.3478353665821" r="2.5" fill="grey" stroke="none" />
<path d="M664.5349934627284,632.3478353665821 A211.15802992072076,211.15802992072076,0,0,1,644.0,654.44" stroke="grey" stroke-width="5" fill="none" />
<circle cx="692.0" cy="654.44" r="5" fill="black" stroke="none" />
<circle cx="644.0" cy="654.44" r="5" fill="black" stroke="none" />
<path d="M644.0,638.44 A199.75393262712,199.75393262712,0,0,0,669.9207131356872,605.0170693147523" stroke="grey" stroke-width="5" fill="none" />
<path d="M669.9207131356872,605.0170693147523 L224.0,138.44" stroke="grey" stroke-width="5" />
<circle cx="669.9207131356872" cy="605.0170693147523" r="2.5" fill="grey" stroke="none" />
<circle cx="644.0" cy="638.44" r="5" fill="black" stroke="none" />
<circle cx="724.0" cy="638.44" r="5" fill="black" stroke="none" />
<circle cx="500" cy="500" r="5" fill="red" stroke="none" />
</svg>