<?xml version="1.0" encoding="UTF-8"?>
<svg xmlns="http://www.w3.org/2000/svg" xmlns:xlink="http://www.w3.org/1999/xlink"
     width="1000" height="1000" viewBox="0 0 1000 1000">
<defs>
</defs>
<rect x="0" y="0" width="1000" height="1000" fill="white" />
<path d="M156.0,82.48000000000002 L200.586577377374,136.59566217035228" stroke="grey" stroke-width="5" />
<circle cx="200.586577377374" cy="136.59566217035228" r="2.5" fill="grey" stroke="none" />
<path d="M200.586577377374,136.59566217035228 A470.8620927617767,470.8620927617767,0,0,0,156.00000000000006,178.4799999999999" stroke="grey" stroke-width="5" fill="none" />
<circle cx="156.0" cy="82.48000000000002" r="5" fill="black" stroke="none" />
<circle cx="156.0" cy="178.48000000000002" r="5" fill="black" stroke="none" />
<path d="M156.0,178.48000000000002 L218.0881495519646,236.51076117426635" stroke="grey" stroke-width="5" />
<circle cx="218.0881495519646" cy="236.51076117426635" r="2.5" fill="grey" stroke="none" />
<path d="M218.0881495519646,236.51076117426635 A385.87675545438077,385.87675545438077,0,0,1,220.0,234.48000000000008" stroke="grey" stroke-width="5" fill="none" />
<circle cx="156.0" cy="178.48000000000002" r="5" fill="black" stroke="none" />
<circle cx="220.0" cy="234.48000000000002" r="5" fill="black" stroke="none" />
<path d="M132.0,234.48000000000002 L187.07372081557435,274.2168868232372" stroke="grey" stroke-width="5" />
<circle cx="187.07372081557435" cy="274.2168868232372" r="2.5" fill="grey" stroke="none" />
<path d="M187.0737208155743,274.21688682323736 A385.87675545438077,385.87675545438077,0,0,1,220.0,234.48000000000008" stroke="grey" stroke-width="5" fill="none" />
<circle cx="132.0" cy="234.48000000000002" r="5" fill="black" stroke="none" />
<circle cx="220.0" cy="234.48000000000002" r="5" fill="black" stroke="none" />
<path d="M220.0,234.48000000000002 L273.08194647684127,284.81685153046755" stroke="grey" stroke-width="5" />
<circle cx="273.08194647684127" cy="284.81685153046755" r="2.5" fill="grey" stroke="none" />
<path d="M273.08194647684127,284.81685153046755 A312.72286516978573,312.72286516978573,0,0,1,292.00000000000017,266.4799999999999" stroke="grey" stroke-width="5" fill="none" />
<circle cx="220.0" cy="234.48000000000002" r="5" fill="black" stroke="none" />
<circle cx="292.0" cy="266.48" r="5" fill="black" stroke="none" />
<path d="M292.0,266.48 L307.02304395824876,283.34625589004924" stroke="grey" stroke-width="5" />
<circle cx="307.02304395824876" cy="283.34625589004924" r="2.5" fill="grey" stroke="none" />
<path d="M307.0230439582489,283.3462558900492 A290.1360894476935,290.1360894476935,0,0,1,308.0,282.47999999999996" stroke="grey" stroke-width="5" fill="none" />
<circle cx="292.0" cy="266.48" r="5" fill="black" stroke="none" />
<circle cx="308.0" cy="282.48" r="5" fill="black" stroke="none" />
<path d="M308.0,282.48 L337.8790863441707,316.3305149040833" stroke="grey" stroke-width="5" />
<circle cx="337.8790863441707" cy="316.3305149040833" r="2.5" fill="grey" stroke="none" />
<path d="M337.8790863441707,316.3305149040833 A244.9850411759869,244.9850411759869,0,0,1,340.0,314.48" stroke="grey" stroke-width="5" fill="none" />
<circle cx="308.0" cy="282.48" r="5" fill="black" stroke="none" />
<circle cx="340.0" cy="314.48" r="5" fill="black" stroke="none" />
<path d="M308.0,282.48 L324.3074511934259,300.95498324788537" stroke="grey" stroke-width="5" />
<circle cx="324.3074511934259" cy="300.95498324788537" r="2.5" fill="grey" stroke="none" />
<path d="M324.3074511934259,300.95498324788537 A265.49348466582,265.49348466582,0,0,0,259.99999999999994,386.4800000000001" stroke="grey" stroke-width="5" fill="none" />
<circle cx="308.0" cy="282.48" r="5" fill="black" stroke="none" />
<circle cx="260.0" cy="386.48" r="5" fill="black" stroke="none" />
<path d="M260.0,386.48 L280.93970189259835,396.3844789951991" stroke="grey" stroke-width="5" />
<circle cx="280.93970189259835" cy="396.3844789951991" r="2.5" fill="grey" stroke="none" />
<path d="M280.93970189259835,396.3844789951991 A242.32950790194744,242.32950790194744,0,0,0,260.0,466.4799999999999" stroke="grey" stroke-width="5" fill="none" />
<circle cx="260.0" cy="386.48" r="5" fill="black" stroke="none" />
<circle cx="260.0" cy="466.48" r="5" fill="black" stroke="none" />
<path d="M156.0,482.48 L257.98416986848935,487.67407748865094" stroke="grey" stroke-width="5" />
<circle cx="257.98416986848935" cy="487.67407748865094" r="2.5" fill="grey" stroke="none" />
<path d="M257.98416986848935,487.6740774886508 A242.32950790194744,242.32950790194744,0,0,1,260.0,466.4799999999999" stroke="grey" stroke-width="5" fill="none" />
<circle cx="156.0" cy="482.48" r="5" fill="black" stroke="none" />
<circle cx="260.0" cy="466.48" r="5" fill="black" stroke="none" />
<path d="M260.0,466.4799999999999 A242.32950790194744,242.32950790194744,0,0,0,272.0194453131505,582.1489932054948" stroke="grey" stroke-width="5" fill="none" />
<path d="M272.0194453131505,582.1489932054948 L-240.0,86.48000000000002" stroke="grey" stroke-width="5" />
<circle cx="272.0194453131505" cy="582.1489932054948" r="2.5" fill="grey" stroke="none" />
<circle cx="260.0" cy="466.48" r="5" fill="black" stroke="none" />
<circle cx="260.0" cy="586.48" r="5" fill="black" stroke="none" />
<path d="M260.0,386.48 L322.657338757778,416.1169212324291" stroke="grey" stroke-width="5" />
<circle cx="322.657338757778" cy="416.1169212324291" r="2.5" fill="grey" stroke="none" />
<path d="M322.657338757778,416.1169212324291 A196.18050463794816,196.18050463794816,0,0,1,340.0,386.48" stroke="grey" stroke-width="5" fill="none" />
<circle cx="260.0" cy="386.48" r="5" fill="black" stroke="none" />
<circle cx="340.0" cy="386.48" r="5" fill="black" stroke="none" />
<path d="M340.0,314.48 L371.8742965227691,351.43824681815073" stroke="grey" stroke-width="5" />
<circle cx="371.8742965227691" cy="351.43824681815073" r="2.5" fill="grey" stroke="none" />
<path d="M371.8742965227691,351.43824681815073 A196.18050463794816,196.18050463794816,0,0,0,340.0,386.48" stroke="grey" stroke-width="5" fill="none" />
<circle cx="340.0" cy="314.48" r="5" fill="black" stroke="none" />
<circle cx="340.0" cy="386.48" r="5" fill="black" stroke="none" />
<path d="M340.0,386.48 L382.85545530716325,416.8859455404324" stroke="grey" stroke-width="5" />
<circle cx="382.85545530716325" cy="416.8859455404324" r="2.5" fill="grey" stroke="none" />
<path d="M382.85545530716325,416.8859455404324 A143.63422433389613,143.63422433389613,0,0,1,412.0,386.48" stroke="grey" stroke-width="5" fill="none" />
<circle cx="340.0" cy="386.48" r="5" fill="black" stroke="none" />
<circle cx="412.0" cy="386.48" r="5" fill="black" stroke="none" />
<path d="M340.0,314.48 L355.6991328225199,332.68314450771186" stroke="grey" stroke-width="5" />
<circle cx="355.6991328225199" cy="332.68314450771186" r="2.5" fill="grey" stroke="none" />
<path d="M355.6991328225199,332.68314450771186 A220.94721179503486,220.94721179503486,0,0,1,380.0,314.48" stroke="grey" stroke-width="5" fill="none" />
<circle cx="340.0" cy="314.48" r="5" fill="black" stroke="none" />
<circle cx="380.0" cy="314.48" r="5" fill="black" stroke="none" />
<path d="M412.0,386.48 A143.63422433389613,143.63422433389613,0,0,1,500.0,356.3657756661039" stroke="grey" stroke-width="5" fill="none" />
<path d="M500.0,356.3657756661039 L0.0,-153.51999999999998" stroke="grey" stroke-width="5" />
<circle cx="500.0" cy="356.3657756661039" r="2.5" fill="grey" stroke="none" />
<circle cx="412.0" cy="386.48" r="5" fill="black" stroke="none" />
<circle cx="500.0" cy="346.48" r="5" fill="black" stroke="none" />
<path d="M380.0,314.48 L398.40145952340566,342.9286564231852" stroke="grey" stroke-width="5" />
<circle cx="398.40145952340566" cy="342.9286564231852" r="2.5" fill="grey" stroke="none" />
<path d="M398.40145952340566,342.9286564231852 A187.0659520062376,187.0659520062376,0,0,1,524.0,314.48" stroke="grey" stroke-width="5" fill="none" />
<circle cx="380.0" cy="314.48" r="5" fill="black" stroke="none" />
<circle cx="524.0" cy="314.48" r="5" fill="black" stroke="none" />
<path d="M500.0,346.48 A153.51999999999998,153.51999999999998,0,0,1,519.6961550751745,347.7487212689014" stroke="grey" stroke-width="5" fill="none" />
<path d="M519.6961550751745,347.7487212689014 L24.0,-185.51999999999998" stroke="grey" stroke-width="5" />
<circle cx="519.6961550751745" cy="347.7487212689014" r="2.5" fill="grey" stroke="none" />
<circle cx="500.0" cy="346.48" r="5" fill="black" stroke="none" />
<circle cx="524.0" cy="314.48" r="5" fill="black" stroke="none" />
<path d="M260.0,466.48 L376.60401505622815,482.7656941028532" stroke="grey" stroke-width="5" />
<circle cx="376.60401505622815" cy="482.7656941028532" r="2.5" fill="grey" stroke="none" />
<path d="M376.60401505622815,482.76569410285316 A124.5937012854181,124.5937012854181,0,0,1,380.0,466.48" stroke="grey" stroke-width="5" fill="none" />
<circle cx="260.0" cy="466.48" r="5" fill="black" stroke="none" />
<circle cx="380.0" cy="466.48" r="5" fill="black" stroke="none" />
<path d="M380.0,466.48 A124.5937012854181,124.5937012854181,0,0,1,477.2992770714766,377.49176526240205" stroke="grey" stroke-width="5" fill="none" />
<path d="M477.2992770714766,377.49176526240205 L-24.0,-129.51999999999998" stroke="grey" stroke-width="5" />
<circle cx="477.2992770714766" cy="377.49176526240205" r="2.5" fill="grey" stroke="none" />
<circle cx="380.0" cy="466.48" r="5" fill="black" stroke="none" />
<circle cx="476.0" cy="370.48" r="5" fill="black" stroke="none" />
<path d="M476.0,370.48 A131.72482833543566,131.72482833543566,0,0,1,500.0,368.27517166456437" stroke="grey" stroke-width="5" fill="none" />
<path d="M500.0,368.27517166456437 L0.0,-153.51999999999998" stroke="grey" stroke-width="5" />
<circle cx="500.0" cy="368.27517166456437" r="2.5" fill="grey" stroke="none" />
<circle cx="476.0" cy="370.48" r="5" fill="black" stroke="none" />
<circle cx="500.0" cy="346.48" r="5" fill="black" stroke="none" />
<path d="M500.0,346.48 L500.0,370.48" stroke="grey" stroke-width="5" />
<circle cx="500.0" cy="370.48" r="2.5" fill="grey" stroke="none" />
<path d="M500.0,370.48 A129.51999999999998,129.51999999999998,0,0,1,500.0,370.48" stroke="grey" stroke-width="5" fill="none" />
<circle cx="500.0" cy="346.48" r="5" fill="black" stroke="none" />
<circle cx="500.0" cy="370.48" r="5" fill="black" stroke="none" />
<path d="M500.0,370.48 L500.0,546.48" stroke="grey" stroke-width="5" />
<circle cx="500.0" cy="370.48" r="5" fill="black" stroke="none" />
<circle cx="500.0" cy="546.48" r="5" fill="black" stroke="none" />
<path d="M500.0,546.48 A46.48000000000002,46.48000000000002,0,0,0,541.8345506780198,520.2548949532746" stroke="grey" stroke-width="5" fill="none" />
<path d="M541.8345506780198,520.2548949532746 L96.0,46.48000000000002" stroke="grey" stroke-width="5" />
<circle cx="541.8345506780198" cy="520.2548949532746" r="2.5" fill="grey" stroke="none" />
<circle cx="500.0" cy="546.48" r="5" fill="black" stroke="none" />
<circle cx="596.0" cy="546.48" r="5" fill="black" stroke="none" />
<path d="M500.0,546.48 A46.48000000000002,46.48000000000002,0,0,1,500.0,546.48" stroke="grey" stroke-width="5" fill="none" />
<path d="M500.0,546.48 L0.0,94.48000000000002" stroke="grey" stroke-width="5" />
<circle cx="500.0" cy="546.48" r="2.5" fill="grey" stroke="none" />
<circle cx="500.0" cy="546.48" r="5" fill="black" stroke="none" />
<circle cx="500.0" cy="594.48" r="5" fill="black" stroke="none" />
<path d="M188.0,170.48000000000002 L258.88690643959023,245.347478878121" stroke="grey" stroke-width="5" />
<circle cx="258.88690643959023" cy="245.347478878121" r="2.5" fill="grey" stroke="none" />
<path d="M258.8869064395901,245.34747887812105 A350.6899348427325,350.6899348427325,0,0,1,380.00000000000017,170.48000000000002" stroke="grey" stroke-width="5" fill="none" />
<circle cx="188.0" cy="170.48000000000002" r="5" fill="black" stroke="none" />
<circle cx="380.0" cy="170.48000000000002" r="5" fill="black" stroke="none" />
<path d="M380.0,170.48000000000002 L424.3957046349383,292.39060492754066" stroke="grey" stroke-width="5" />
<circle cx="424.3957046349383" cy="292.39060492754066" r="2.5" fill="grey" stroke="none" />
<path d="M424.3957046349384,292.3906049275406 A220.94721179503486,220.94721179503486,0,0,0,380.0,314.48" stroke="grey" stroke-width="5" fill="none" />
<circle cx="380.0" cy="170.48000000000002" r="5" fill="black" stroke="none" />
<circle cx="380.0" cy="314.48" r="5" fill="black" stroke="none" />
<path d="M380.00000000000017,170.48000000000002 A350.6899348427325,350.6899348427325,0,0,1,401.38529766291634,163.46089249097906" stroke="grey" stroke-width="5" fill="none" />
<path d="M401.3852976629163,163.46089249097906 L-120.0,-409.52" stroke="grey" stroke-width="5" />
<circle cx="401.3852976629163" cy="163.46089249097906" r="2.5" fill="grey" stroke="none" />
<circle cx="380.0" cy="170.48000000000002" r="5" fill="black" stroke="none" />
<circle cx="380.0" cy="90.48000000000002" r="5" fill="black" stroke="none" />
<path d="M380.00000000000006,90.48000000000002 A426.7395346109849,426.7395346109849,0,0,1,393.4788570034234,86.76897926861437" stroke="grey" stroke-width="5" fill="none" />
<path d="M393.4788570034235,86.76897926861437 L-120.0,-465.52" stroke="grey" stroke-width="5" />
<circle cx="393.4788570034235" cy="86.76897926861437" r="2.5" fill="grey" stroke="none" />
<circle cx="380.0" cy="90.48000000000002" r="5" fill="black" stroke="none" />
<circle cx="380.0" cy="34.48000000000002" r="5" fill="black" stroke="none" />
<path d="M380.0,90.48000000000002 L411.5796214666727,198.25072152526513" stroke="grey" stroke-width="5" />
<circle cx="411.5796214666727" cy="198.25072152526513" r="2.5" fill="grey" stroke="none" />
<path d="M411.57962146667273,198.25072152526513 A314.43725987866003,314.43725987866003,0,0,1,476.0,186.48000000000002" stroke="grey" stroke-width="5" fill="none" />
<circle cx="380.0" cy="90.48000000000002" r="5" fill="black" stroke="none" />
<circle cx="476.0" cy="186.48000000000002" r="5" fill="black" stroke="none" />
<path d="M380.0,170.48000000000002 L392.40503522759957,204.54422673498846" stroke="grey" stroke-width="5" />
<circle cx="392.40503522759957" cy="204.54422673498846" r="2.5" fill="grey" stroke="none" />
<path d="M392.4050352275997,204.54422673498846 A314.43725987866003,314.43725987866003,0,0,1,476.0,186.48000000000002" stroke="grey" stroke-width="5" fill="none" />
<circle cx="380.0" cy="170.48000000000002" r="5" fill="black" stroke="none" />
<circle cx="476.0" cy="186.48000000000002" r="5" fill="black" stroke="none" />
<path d="M476.0,186.48000000000002 L481.4747512820004,257.9985009138657" stroke="grey" stroke-width="5" />
<circle cx="481.4747512820004" cy="257.9985009138657" r="2.5" fill="grey" stroke="none" />
<path d="M481.4747512820004,257.9985009138657 A242.70951856076843,242.70951856076843,0,0,1,523.9999999999999,258.48" stroke="grey" stroke-width="5" fill="none" />
<circle cx="476.0" cy="186.48000000000002" r="5" fill="black" stroke="none" />
<circle cx="524.0" cy="258.48" r="5" fill="black" stroke="none" />
<path d="M476.0,370.48 L476.4017153084892,372.6479236148134" stroke="grey" stroke-width="5" />
<circle cx="476.4017153084892" cy="372.6479236148134" r="2.5" fill="grey" stroke="none" />
<path d="M476.4017153084892,372.6479236148134 A129.51999999999998,129.51999999999998,0,0,1,500.0,370.48" stroke="grey" stroke-width="5" fill="none" />
<circle cx="476.0" cy="370.48" r="5" fill="black" stroke="none" />
<circle cx="500.0" cy="370.48" r="5" fill="black" stroke="none" />
<path d="M500.0,370.48 A129.51999999999998,129.51999999999998,0,0,1,523.5982846915108,372.6479236148134" stroke="grey" stroke-width="5" fill="none" />
<path d="M523.5982846915108,372.6479236148134 L24.0,-129.51999999999998" stroke="grey" stroke-width="5" />
<circle cx="523.5982846915108" cy="372.6479236148134" r="2.5" fill="grey" stroke="none" />
<circle cx="500.0" cy="370.48" r="5" fill="black" stroke="none" />
<circle cx="524.0" cy="370.48" r="5" fill="black" stroke="none" />
<path d="M524.0,370.48 A131.72482833543566,131.72482833543566,0,0,0,516.89989998792,369.36377309337854" stroke="grey" stroke-width="5" fill="none" />
<path d="M516.89989998792,369.36377309337854 L24.0,-185.51999999999998" stroke="grey" stroke-width="5" />
<circle cx="516.89989998792" cy="369.36377309337854" r="2.5" fill="grey" stroke="none" />
<circle cx="524.0" cy="370.48" r="5" fill="black" stroke="none" />
<circle cx="524.0" cy="314.48" r="5" fill="black" stroke="none" />
<path d="M524.0,314.48 A187.0659520062376,187.0659520062376,0,0,0,522.1222627430061,314.2467338345584" stroke="grey" stroke-width="5" fill="none" />
<path d="M522.1222627430061,314.2467338345584 L24.0,-201.51999999999998" stroke="grey" stroke-width="5" />
<circle cx="522.1222627430061" cy="314.2467338345584" r="2.5" fill="grey" stroke="none" />
<circle cx="524.0" cy="314.48" r="5" fill="black" stroke="none" />
<circle cx="524.0" cy="298.48" r="5" fill="black" stroke="none" />
<path d="M524.0,298.48 A202.94410659095277,202.94410659095277,0,0,0,522.2567095325142,298.28002260364667" stroke="grey" stroke-width="5" fill="none" />
<path d="M522.2567095325142,298.28002260364667 L24.0,-217.51999999999998" stroke="grey" stroke-width="5" />
<circle cx="522.2567095325142" cy="298.28002260364667" r="2.5" fill="grey" stroke="none" />
<circle cx="524.0" cy="298.48" r="5" fill="black" stroke="none" />
<circle cx="524.0" cy="282.48" r="5" fill="black" stroke="none" />
<path d="M523.9999999999999,282.48 A218.84001096691617,218.84001096691617,0,0,0,521.6396962688176,282.23252321479845" stroke="grey" stroke-width="5" fill="none" />
<path d="M521.6396962688176,282.23252321479845 L24.0,-241.51999999999998" stroke="grey" stroke-width="5" />
<circle cx="521.6396962688176" cy="282.23252321479845" r="2.5" fill="grey" stroke="none" />
<circle cx="524.0" cy="282.48" r="5" fill="black" stroke="none" />
<circle cx="524.0" cy="258.48" r="5" fill="black" stroke="none" />
<path d="M523.9999999999999,258.48 A242.70951856076843,242.70951856076843,0,0,1,569.3390746420539,267.40592628404374" stroke="grey" stroke-width="5" fill="none" />
<path d="M569.3390746420539,267.40592628404374 L72.0,-241.51999999999998" stroke="grey" stroke-width="5" />
<circle cx="569.3390746420539" cy="267.40592628404374" r="2.5" fill="grey" stroke="none" />
<circle cx="524.0" cy="258.48" r="5" fill="black" stroke="none" />
<circle cx="572.0" cy="258.48" r="5" fill="black" stroke="none" />
<path d="M572.0,258.48 L561.1359963611067,294.92269665090987" stroke="grey" stroke-width="5" />
<circle cx="561.1359963611067" cy="294.92269665090987" r="2.5" fill="grey" stroke="none" />
<path d="M561.1359963611068,294.92269665090987 A213.99605230003658,213.99605230003658,0,0,1,572.0,298.48" stroke="grey" stroke-width="5" fill="none" />
<circle cx="572.0" cy="258.48" r="5" fill="black" stroke="none" />
<circle cx="572.0" cy="298.48" r="5" fill="black" stroke="none" />
<path d="M572.0,298.48 L568.2815197640265,308.88761301601915" stroke="grey" stroke-width="5" />
<circle cx="568.2815197640265" cy="308.88761301601915" r="2.5" fill="grey" stroke="none" />
<path d="M568.2815197640265,308.88761301601915 A202.94410659095277,202.94410659095277,0,0,0,524.0,298.48" stroke="grey" stroke-width="5" fill="none" />
<circle cx="572.0" cy="298.48" r="5" fill="black" stroke="none" />
<circle cx="524.0" cy="298.48" r="5" fill="black" stroke="none" />
<path d="M523.9999999999999,282.48 A218.84001096691617,218.84001096691617,0,0,1,594.3966007396577,302.5658789145158" stroke="grey" stroke-width="5" fill="none" />
<path d="M594.3966007396577,302.5658789145158 L104.0,-217.51999999999998" stroke="grey" stroke-width="5" />
<circle cx="594.3966007396577" cy="302.5658789145158" r="2.5" fill="grey" stroke="none" />
<circle cx="524.0" cy="282.48" r="5" fill="black" stroke="none" />
<circle cx="604.0" cy="282.48" r="5" fill="black" stroke="none" />
<circle cx="500" cy="500" r="5" fill="red" stroke="none" />
</svg>