<?xml version="1.0" encoding="UTF-8"?>
<svg xmlns="http://www.w3.org/2000/svg" xmlns:xlink="http://www.w3.org/1999/xlink"
     width="1000" height="1000" viewBox="0 0 1000 1000">
<defs>
</defs>
<rect x="0" y="0" width="1000" height="1000" fill="white" />
<path d="M156.0,122.32000000000005 L200.6099981755561,171.29762822948857" stroke="grey" stroke-width="5" />
<circle cx="200.6099981755561" cy="171.29762822948857" r="2.5" fill="grey" stroke="none" />
<path d="M200.6099981755561,171.29762822948857 A444.6117659261842,444.6117659261842,0,0,0,155.99999999999994,218.32000000000005" stroke="grey" stroke-width="5" fill="none" />
<circle cx="156.0" cy="122.32000000000005" r="5" fill="black" stroke="none" />
<circle cx="156.0" cy="218.32000000000005" r="5" fill="black" stroke="none" />
<path d="M156.0,218.32000000000005 L221.75357997125116,272.1614779252967" stroke="grey" stroke-width="5" />
<circle cx="221.75357997125116" cy="272.1614779252967" r="2.5" fill="grey" stroke="none" />
<path d="M221.75357997125116,272.1614779252967 A359.62683770819996,359.62683770819996,0,0,0,219.99999999999994,274.32000000000005" stroke="grey" stroke-width="5" fill="none" />
<circle cx="156.0" cy="218.32000000000005" r="5" fill="black" stroke="none" />
<circle cx="220.0" cy="274.32000000000005" r="5" fill="black" stroke="none" />
<path d="M132.0,274.32000000000005 L193.43056799013635,311.99296354351634" stroke="grey" stroke-width="5" />
<circle cx="193.43056799013635" cy="311.99296354351634" r="2.5" fill="grey" stroke="none" />
<path d="M193.43056799013635,311.99296354351634 A359.62683770819996,359.62683770819996,0,0,1,219.99999999999994,274.32000000000005" stroke="grey" stroke-width="5" fill="none" />
<circle cx="132.0" cy="274.32000000000005" r="5" fill="black" stroke="none" />
<circle cx="220.0" cy="274.32000000000005" r="5" fill="black" stroke="none" />
<path d="M220.0,274.32000000000005 L278.71755879756836,321.6463523908402" stroke="grey" stroke-width="5" />
<circle cx="278.71755879756836" cy="321.6463523908402" r="2.5" fill="grey" stroke="none" />
<path d="M278.71755879756836,321.6463523908402 A284.21108774993274,284.21108774993274,0,0,1,292.0,306.32000000000005" stroke="grey" stroke-width="5" fill="none" />
<circle cx="220.0" cy="274.32000000000005" r="5" fill="black" stroke="none" />
<circle cx="292.0" cy="306.32000000000005" r="5" fill="black" stroke="none" />
<path d="M292.0,306.32000000000005 L308.5484619394556,321.72916398285474" stroke="grey" stroke-width="5" />
<circle cx="308.5484619394556" cy="321.72916398285474" r="2.5" fill="grey" stroke="none" />
<path d="M308.5484619394556,321.72916398285474 A261.5992782864662,261.5992782864662,0,0,0,308.00000000000006,322.32000000000005" stroke="grey" stroke-width="5" fill="none" />
<circle cx="292.0" cy="306.32000000000005" r="5" fill="black" stroke="none" />
<circle cx="308.0" cy="322.32000000000005" r="5" fill="black" stroke="none" />
<path d="M308.0,322.32000000000005 L341.1845536482431,353.0295390219783" stroke="grey" stroke-width="5" />
<circle cx="341.1845536482431" cy="353.0295390219783" r="2.5" fill="grey" stroke="none" />
<path d="M341.1845536482431,353.0295390219783 A216.3854486789719,216.3854486789719,0,0,0,340.0,354.32000000000005" stroke="grey" stroke-width="5" fill="none" />
<circle cx="308.0" cy="322.32000000000005" r="5" fill="black" stroke="none" />
<circle cx="340.0" cy="354.32000000000005" r="5" fill="black" stroke="none" />
<path d="M308.0,322.32000000000005 L315.73875208317133,329.48157015696813" stroke="grey" stroke-width="5" />
<circle cx="315.73875208317133" cy="329.48157015696813" r="2.5" fill="grey" stroke="none" />
<path d="M315.73875208317133,329.48157015696813 A251.05525766253132,251.05525766253132,0,0,0,260.0,426.32" stroke="grey" stroke-width="5" fill="none" />
<circle cx="308.0" cy="322.32000000000005" r="5" fill="black" stroke="none" />
<circle cx="260.0" cy="426.32000000000005" r="5" fill="black" stroke="none" />
<path d="M260.0,426.32000000000005 L270.4889024215406,429.5400930434131" stroke="grey" stroke-width="5" />
<circle cx="270.4889024215406" cy="429.5400930434131" r="2.5" fill="grey" stroke="none" />
<path d="M270.4889024215406,429.540093043413 A240.08319891237704,240.08319891237704,0,0,0,260.0,506.32" stroke="grey" stroke-width="5" fill="none" />
<circle cx="260.0" cy="426.32000000000005" r="5" fill="black" stroke="none" />
<circle cx="260.0" cy="506.32000000000005" r="5" fill="black" stroke="none" />
<path d="M156.0,522.32 L260.4205738193524,515.5448046289305" stroke="grey" stroke-width="5" />
<circle cx="260.4205738193524" cy="515.5448046289305" r="2.5" fill="grey" stroke="none" />
<path d="M260.4205738193524,515.5448046289305 A240.08319891237704,240.08319891237704,0,0,1,260.0,506.32" stroke="grey" stroke-width="5" fill="none" />
<circle cx="156.0" cy="522.32" r="5" fill="black" stroke="none" />
<circle cx="260.0" cy="506.32000000000005" r="5" fill="black" stroke="none" />
<path d="M260.0,506.32 A240.08319891237704,240.08319891237704,0,0,0,287.547538585816,611.8208121909989" stroke="grey" stroke-width="5" fill="none" />
<path d="M287.547538585816,611.8208121909989 L-240.0,126.32000000000005" stroke="grey" stroke-width="5" />
<circle cx="287.547538585816" cy="611.8208121909989" r="2.5" fill="grey" stroke="none" />
<circle cx="260.0" cy="506.32000000000005" r="5" fill="black" stroke="none" />
<circle cx="260.0" cy="626.32" r="5" fill="black" stroke="none" />
<path d="M260.0,426.32000000000005 L331.6070102397065,448.30335214358996" stroke="grey" stroke-width="5" />
<circle cx="331.6070102397065" cy="448.30335214358996" r="2.5" fill="grey" stroke="none" />
<path d="M331.6070102397065,448.3033521435899 A176.14977263681038,176.14977263681038,0,0,1,340.0,426.32000000000005" stroke="grey" stroke-width="5" fill="none" />
<circle cx="260.0" cy="426.32000000000005" r="5" fill="black" stroke="none" />
<circle cx="340.0" cy="426.32000000000005" r="5" fill="black" stroke="none" />
<path d="M340.0,354.32000000000005 L369.7511140700445,381.4083893607755" stroke="grey" stroke-width="5" />
<circle cx="369.7511140700445" cy="381.4083893607755" r="2.5" fill="grey" stroke="none" />
<path d="M369.7511140700445,381.4083893607755 A176.14977263681038,176.14977263681038,0,0,0,340.0,426.32000000000005" stroke="grey" stroke-width="5" fill="none" />
<circle cx="340.0" cy="354.32000000000005" r="5" fill="black" stroke="none" />
<circle cx="340.0" cy="426.32000000000005" r="5" fill="black" stroke="none" />
<path d="M340.0,426.32000000000005 L395.7500164247201,451.99288256358363" stroke="grey" stroke-width="5" />
<circle cx="395.7500164247201" cy="451.99288256358363" r="2.5" fill="grey" stroke="none" />
<path d="M395.7500164247201,451.99288256358363 A114.77256815110478,114.77256815110478,0,0,1,412.00000000000006,426.32" stroke="grey" stroke-width="5" fill="none" />
<circle cx="340.0" cy="426.32000000000005" r="5" fill="black" stroke="none" />
<circle cx="412.0" cy="426.32000000000005" r="5" fill="black" stroke="none" />
<path d="M340.0,354.32000000000005 L360.44187760035913,372.932329555127" stroke="grey" stroke-width="5" />
<circle cx="360.44187760035913" cy="372.932329555127" r="2.5" fill="grey" stroke="none" />
<path d="M360.44187760035913,372.932329555127 A188.7396683265073,188.7396683265073,0,0,1,380.0,354.32000000000005" stroke="grey" stroke-width="5" fill="none" />
<circle cx="340.0" cy="354.32000000000005" r="5" fill="black" stroke="none" />
<circle cx="380.0" cy="354.32000000000005" r="5" fill="black" stroke="none" />
<path d="M412.0,426.32000000000005 L412.83770886062814,427.02139078239867" stroke="grey" stroke-width="5" />
<circle cx="412.83770886062814" cy="427.02139078239867" r="2.5" fill="grey" stroke="none" />
<path d="M412.83770886062814,427.0213907823986 A113.67999999999995,113.67999999999995,0,0,1,500.0,386.32000000000005" stroke="grey" stroke-width="5" fill="none" />
<circle cx="412.0" cy="426.32000000000005" r="5" fill="black" stroke="none" />
<circle cx="500.0" cy="386.32000000000005" r="5" fill="black" stroke="none" />
<path d="M380.0,354.32000000000005 L406.12866781628423,386.04020272896906" stroke="grey" stroke-width="5" />
<circle cx="406.12866781628423" cy="386.04020272896906" r="2.5" fill="grey" stroke="none" />
<path d="M406.12866781628423,386.04020272896906 A147.6437008476826,147.6437008476826,0,0,1,524.0,354.32000000000005" stroke="grey" stroke-width="5" fill="none" />
<circle cx="380.0" cy="354.32000000000005" r="5" fill="black" stroke="none" />
<circle cx="524.0" cy="354.32000000000005" r="5" fill="black" stroke="none" />
<path d="M500.0,386.32000000000005 A113.67999999999995,113.67999999999995,0,0,1,518.4790816291897,387.8319745108182" stroke="grey" stroke-width="5" fill="none" />
<path d="M518.4790816291897,387.8319745108182 L24.0,-145.67999999999995" stroke="grey" stroke-width="5" />
<circle cx="518.4790816291897" cy="387.8319745108182" r="2.5" fill="grey" stroke="none" />
<circle cx="500.0" cy="386.32000000000005" r="5" fill="black" stroke="none" />
<circle cx="524.0" cy="354.32000000000005" r="5" fill="black" stroke="none" />
<path d="M260.0,506.32000000000005 L379.8753312553218,503.1632829436099" stroke="grey" stroke-width="5" />
<circle cx="379.8753312553218" cy="503.1632829436099" r="2.5" fill="grey" stroke="none" />
<path d="M379.8753312553218,503.1632829436099 A120.1663114187999,120.1663114187999,0,0,0,380.0,506.3200000000001" stroke="grey" stroke-width="5" fill="none" />
<circle cx="260.0" cy="506.32000000000005" r="5" fill="black" stroke="none" />
<circle cx="380.0" cy="506.32000000000005" r="5" fill="black" stroke="none" />
<path d="M380.0,506.32000000000005 L407.29259622040917,504.88258993239185" stroke="grey" stroke-width="5" />
<circle cx="407.29259622040917" cy="504.88258993239185" r="2.5" fill="grey" stroke="none" />
<path d="M407.29259622040917,504.88258993239185 A92.83588961172285,92.83588961172285,0,0,1,476.0,410.32000000000005" stroke="grey" stroke-width="5" fill="none" />
<circle cx="380.0" cy="506.32000000000005" r="5" fill="black" stroke="none" />
<circle cx="476.0" cy="410.32000000000005" r="5" fill="black" stroke="none" />
<path d="M476.0,410.32000000000005 A92.83588961172285,92.83588961172285,0,0,1,500.0,407.16411038827715" stroke="grey" stroke-width="5" fill="none" />
<path d="M500.0,407.16411038827715 L0.0,-113.67999999999995" stroke="grey" stroke-width="5" />
<circle cx="500.0" cy="407.16411038827715" r="2.5" fill="grey" stroke="none" />
<circle cx="476.0" cy="410.32000000000005" r="5" fill="black" stroke="none" />
<circle cx="500.0" cy="386.32000000000005" r="5" fill="black" stroke="none" />
<path d="M500.0,386.32000000000005 L500.0,410.32000000000005" stroke="grey" stroke-width="5" />
<circle cx="500.0" cy="410.32000000000005" r="2.5" fill="grey" stroke="none" />
<path d="M500.0,410.32000000000005 A89.67999999999995,89.67999999999995,0,0,1,500.0,410.32000000000005" stroke="grey" stroke-width="5" fill="none" />
<circle cx="500.0" cy="386.32000000000005" r="5" fill="black" stroke="none" />
<circle cx="500.0" cy="410.32000000000005" r="5" fill="black" stroke="none" />
<path d="M500.0,410.32000000000005 L500.0,586.32" stroke="grey" stroke-width="5" />
<circle cx="500.0" cy="410.32000000000005" r="5" fill="black" stroke="none" />
<circle cx="500.0" cy="586.32" r="5" fill="black" stroke="none" />
<path d="M500.0,586.32 A86.32000000000005,86.32000000000005,0,0,0,564.187741028465,557.7154771414282" stroke="grey" stroke-width="5" fill="none" />
<path d="M564.187741028465,557.7154771414282 L96.0,86.32000000000005" stroke="grey" stroke-width="5" />
<circle cx="564.187741028465" cy="557.7154771414282" r="2.5" fill="grey" stroke="none" />
<circle cx="500.0" cy="586.32" r="5" fill="black" stroke="none" />
<circle cx="596.0" cy="586.32" r="5" fill="black" stroke="none" />
<path d="M500.0,586.32 A86.32000000000005,86.32000000000005,0,0,1,500.0,586.32" stroke="grey" stroke-width="5" fill="none" />
<path d="M500.0,586.32 L0.0,134.32000000000005" stroke="grey" stroke-width="5" />
<circle cx="500.0" cy="586.32" r="2.5" fill="grey" stroke="none" />
<circle cx="500.0" cy="586.32" r="5" fill="black" stroke="none" />
<circle cx="500.0" cy="634.32" r="5" fill="black" stroke="none" />
<path d="M188.0,210.32000000000005 L270.2189587889818,286.65714096792385" stroke="grey" stroke-width="5" />
<circle cx="270.2189587889818" cy="286.65714096792385" r="2.5" fill="grey" stroke="none" />
<path d="M270.2189587889817,286.65714096792397 A313.55143501505455,313.55143501505455,0,0,1,380.00000000000006,210.32" stroke="grey" stroke-width="5" fill="none" />
<circle cx="188.0" cy="210.32000000000005" r="5" fill="black" stroke="none" />
<circle cx="380.0" cy="210.32000000000005" r="5" fill="black" stroke="none" />
<path d="M380.0,210.32000000000005 L427.76700193353145,325.6295426675449" stroke="grey" stroke-width="5" />
<circle cx="427.76700193353145" cy="325.6295426675449" r="2.5" fill="grey" stroke="none" />
<path d="M427.76700193353145,325.6295426675449 A188.7396683265073,188.7396683265073,0,0,0,380.0,354.32000000000005" stroke="grey" stroke-width="5" fill="none" />
<circle cx="380.0" cy="210.32000000000005" r="5" fill="black" stroke="none" />
<circle cx="380.0" cy="354.32000000000005" r="5" fill="black" stroke="none" />
<path d="M380.00000000000006,210.32 A313.55143501505455,313.55143501505455,0,0,1,403.192155244555,201.767299590059" stroke="grey" stroke-width="5" fill="none" />
<path d="M403.1921552445549,201.767299590059 L-120.0,-369.67999999999995" stroke="grey" stroke-width="5" />
<circle cx="403.1921552445549" cy="201.767299590059" r="2.5" fill="grey" stroke="none" />
<circle cx="380.0" cy="210.32000000000005" r="5" fill="black" stroke="none" />
<circle cx="380.0" cy="130.32000000000005" r="5" fill="black" stroke="none" />
<path d="M380.00000000000006,130.32000000000005 A388.66862801106026,388.66862801106026,0,0,1,394.5437158892291,125.91140816439173" stroke="grey" stroke-width="5" fill="none" />
<path d="M394.5437158892291,125.91140816439173 L-120.0,-425.67999999999995" stroke="grey" stroke-width="5" />
<circle cx="394.5437158892291" cy="125.91140816439173" r="2.5" fill="grey" stroke="none" />
<circle cx="380.0" cy="130.32000000000005" r="5" fill="black" stroke="none" />
<circle cx="380.0" cy="74.32000000000005" r="5" fill="black" stroke="none" />
<path d="M380.0,130.32000000000005 L415.1780343403369,238.69179779113148" stroke="grey" stroke-width="5" />
<circle cx="415.1780343403369" cy="238.69179779113148" r="2.5" fill="grey" stroke="none" />
<path d="M415.17803434033704,238.69179779113148 A274.73030848452083,274.73030848452083,0,0,1,476.0,226.32000000000005" stroke="grey" stroke-width="5" fill="none" />
<circle cx="380.0" cy="130.32000000000005" r="5" fill="black" stroke="none" />
<circle cx="476.0" cy="226.32000000000005" r="5" fill="black" stroke="none" />
<path d="M380.0,210.32000000000005 L394.85732375436385,246.1855795430344" stroke="grey" stroke-width="5" />
<circle cx="394.85732375436385" cy="246.1855795430344" r="2.5" fill="grey" stroke="none" />
<path d="M394.8573237543639,246.18557954303438 A274.73030848452083,274.73030848452083,0,0,1,476.0,226.32000000000005" stroke="grey" stroke-width="5" fill="none" />
<circle cx="380.0" cy="210.32000000000005" r="5" fill="black" stroke="none" />
<circle cx="476.0" cy="226.32000000000005" r="5" fill="black" stroke="none" />
<path d="M476.0,226.32000000000005 L482.25724835370215,297.6734887267173" stroke="grey" stroke-width="5" />
<circle cx="482.25724835370215" cy="297.6734887267173" r="2.5" fill="grey" stroke="none" />
<path d="M482.2572483537022,297.6734887267173 A203.10298471465154,203.10298471465154,0,0,1,524.0,298.32000000000005" stroke="grey" stroke-width="5" fill="none" />
<circle cx="476.0" cy="226.32000000000005" r="5" fill="black" stroke="none" />
<circle cx="524.0" cy="298.32000000000005" r="5" fill="black" stroke="none" />
<path d="M476.0,410.32000000000005 L476.815862819844,413.3686074034839" stroke="grey" stroke-width="5" />
<circle cx="476.815862819844" cy="413.3686074034839" r="2.5" fill="grey" stroke="none" />
<path d="M476.815862819844,413.3686074034839 A89.67999999999995,89.67999999999995,0,0,1,500.0,410.32000000000005" stroke="grey" stroke-width="5" fill="none" />
<circle cx="476.0" cy="410.32000000000005" r="5" fill="black" stroke="none" />
<circle cx="500.0" cy="410.32000000000005" r="5" fill="black" stroke="none" />
<path d="M500.0,410.32000000000005 A89.67999999999995,89.67999999999995,0,0,1,523.184137180156,413.3686074034839" stroke="grey" stroke-width="5" fill="none" />
<path d="M523.184137180156,413.3686074034839 L24.0,-89.67999999999995" stroke="grey" stroke-width="5" />
<circle cx="523.184137180156" cy="413.3686074034839" r="2.5" fill="grey" stroke="none" />
<circle cx="500.0" cy="410.32000000000005" r="5" fill="black" stroke="none" />
<circle cx="524.0" cy="410.32000000000005" r="5" fill="black" stroke="none" />
<path d="M524.0,410.32000000000005 A92.83588961172285,92.83588961172285,0,0,0,515.090798577177,408.39885263653593" stroke="grey" stroke-width="5" fill="none" />
<path d="M515.090798577177,408.39885263653593 L24.0,-145.67999999999995" stroke="grey" stroke-width="5" />
<circle cx="515.090798577177" cy="408.39885263653593" r="2.5" fill="grey" stroke="none" />
<circle cx="524.0" cy="410.32000000000005" r="5" fill="black" stroke="none" />
<circle cx="524.0" cy="354.32000000000005" r="5" fill="black" stroke="none" />
<path d="M524.0,354.32000000000005 A147.6437008476826,147.6437008476826,0,0,0,521.6788886052273,353.9565537627856" stroke="grey" stroke-width="5" fill="none" />
<path d="M521.6788886052273,353.9565537627856 L24.0,-161.67999999999995" stroke="grey" stroke-width="5" />
<circle cx="521.6788886052273" cy="353.9565537627856" r="2.5" fill="grey" stroke="none" />
<circle cx="524.0" cy="354.32000000000005" r="5" fill="black" stroke="none" />
<circle cx="524.0" cy="338.32000000000005" r="5" fill="black" stroke="none" />
<path d="M524.0,338.32000000000005 A163.45159038687873,163.45159038687873,0,0,0,521.8794142018473,338.0194035256568" stroke="grey" stroke-width="5" fill="none" />
<path d="M521.8794142018473,338.0194035256568 L24.0,-177.67999999999995" stroke="grey" stroke-width="5" />
<circle cx="521.8794142018473" cy="338.0194035256568" r="2.5" fill="grey" stroke="none" />
<circle cx="524.0" cy="338.32000000000005" r="5" fill="black" stroke="none" />
<circle cx="524.0" cy="322.32000000000005" r="5" fill="black" stroke="none" />
<path d="M524.0,322.32000000000005 A179.29356485942262,179.29356485942262,0,0,0,521.1865205362278,321.96260576056505" stroke="grey" stroke-width="5" fill="none" />
<path d="M521.1865205362278,321.96260576056505 L24.0,-201.67999999999995" stroke="grey" stroke-width="5" />
<circle cx="521.1865205362278" cy="321.96260576056505" r="2.5" fill="grey" stroke="none" />
<circle cx="524.0" cy="322.32000000000005" r="5" fill="black" stroke="none" />
<circle cx="524.0" cy="298.32000000000005" r="5" fill="black" stroke="none" />
<path d="M524.0,298.32000000000005 A203.10298471465154,203.10298471465154,0,0,1,568.2868929674853,308.7208253655219" stroke="grey" stroke-width="5" fill="none" />
<path d="M568.2868929674853,308.7208253655218 L72.0,-201.67999999999995" stroke="grey" stroke-width="5" />
<circle cx="568.2868929674853" cy="308.7208253655218" r="2.5" fill="grey" stroke="none" />
<circle cx="524.0" cy="298.32000000000005" r="5" fill="black" stroke="none" />
<circle cx="572.0" cy="298.32000000000005" r="5" fill="black" stroke="none" />
<path d="M572.0,298.32000000000005 L559.5062500786913,333.31638172402114" stroke="grey" stroke-width="5" />
<circle cx="559.5062500786913" cy="333.31638172402114" r="2.5" fill="grey" stroke="none" />
<path d="M559.5062500786914,333.3163817240212 A176.98706845416697,176.98706845416697,0,0,1,572.0,338.32000000000005" stroke="grey" stroke-width="5" fill="none" />
<circle cx="572.0" cy="298.32000000000005" r="5" fill="black" stroke="none" />
<circle cx="572.0" cy="338.32000000000005" r="5" fill="black" stroke="none" />
<path d="M572.0,338.32000000000005 L566.4936405277704,350.6848361037512" stroke="grey" stroke-width="5" />
<circle cx="566.4936405277704" cy="350.6848361037512" r="2.5" fill="grey" stroke="none" />
<path d="M566.4936405277704,350.6848361037512 A163.45159038687873,163.45159038687873,0,0,0,524.0,338.32000000000005" stroke="grey" stroke-width="5" fill="none" />
<circle cx="572.0" cy="338.32000000000005" r="5" fill="black" stroke="none" />
<circle cx="524.0" cy="338.32000000000005" r="5" fill="black" stroke="none" />
<path d="M524.0,322.32000000000005 A179.29356485942262,179.29356485942262,0,0,1,590.5703175126628,345.26409600336626" stroke="grey" stroke-width="5" fill="none" />
<path d="M590.5703175126628,345.26409600336626 L104.0,-177.67999999999995" stroke="grey" stroke-width="5" />
<circle cx="590.5703175126628" cy="345.26409600336626" r="2.5" fill="grey" stroke="none" />
<circle cx="524.0" cy="322.32000000000005" r="5" fill="black" stroke="none" />
<circle cx="604.0" cy="322.32000000000005" r="5" fill="black" stroke="none" />
<circle cx="500" cy="500" r="5" fill="red" stroke="none" />
</svg>