<?xml version="1.0" encoding="UTF-8"?>
<svg xmlns="http://www.w3.org/2000/svg" xmlns:xlink="http://www.w3.org/1999/xlink"
     width="1000" height="1000" viewBox="0 0 1000 1000">
<defs>
</defs>
<rect x="0" y="0" width="1000" height="1000" fill="white" />
<path d="M227.32,268.0 L267.91998684329417,302.543042935471" stroke="grey" stroke-width="5" />
<circle cx="267.91998684329417" cy="302.543042935471" r="2.5" fill="grey" stroke="none" />
<path d="M267.91998684329417,302.543042935471 A304.71360717893776,304.71360717893776,0,0,0,227.32,364.0000000000001" stroke="grey" stroke-width="5" fill="none" />
<circle cx="227.32" cy="268.0" r="5" fill="black" stroke="none" />
<circle cx="227.32" cy="364.0" r="5" fill="black" stroke="none" />
<path d="M227.32,364.0 L300.00569470831215,400.25221681212577" stroke="grey" stroke-width="5" />
<circle cx="300.00569470831215" cy="400.25221681212577" r="2.5" fill="grey" stroke="none" />
<path d="M300.00569470831215,400.2522168121259 A223.48902075941,223.48902075941,0,0,0,291.32,420.00000000000006" stroke="grey" stroke-width="5" fill="none" />
<circle cx="227.32" cy="364.0" r="5" fill="black" stroke="none" />
<circle cx="291.32" cy="420.0" r="5" fill="black" stroke="none" />
<path d="M203.32,420.0 L284.2182488693271,441.81427770509026" stroke="grey" stroke-width="5" />
<circle cx="284.2182488693271" cy="441.81427770509026" r="2.5" fill="grey" stroke="none" />
<path d="M284.2182488693271,441.81427770509026 A223.48902075941,223.48902075941,0,0,1,291.32,420.00000000000006" stroke="grey" stroke-width="5" fill="none" />
<circle cx="203.32" cy="420.0" r="5" fill="black" stroke="none" />
<circle cx="291.32" cy="420.0" r="5" fill="black" stroke="none" />
<path d="M291.32,420.0 L364.73560541323377,448.1447595987096" stroke="grey" stroke-width="5" />
<circle cx="364.73560541323377" cy="448.1447595987096" r="2.5" fill="grey" stroke="none" />
<path d="M364.73560541323377,448.1447595987096 A144.8634612316025,144.8634612316025,0,0,0,363.32,451.99999999999994" stroke="grey" stroke-width="5" fill="none" />
<circle cx="291.32" cy="420.0" r="5" fill="black" stroke="none" />
<circle cx="363.32" cy="452.0" r="5" fill="black" stroke="none" />
<path d="M363.32,452.0 L382.2023550122997,458.63120456972774" stroke="grey" stroke-width="5" />
<circle cx="382.2023550122997" cy="458.63120456972774" r="2.5" fill="grey" stroke="none" />
<path d="M382.2023550122997,458.6312045697277 A124.85056027106967,124.85056027106967,0,0,0,379.32,468.0" stroke="grey" stroke-width="5" fill="none" />
<circle cx="363.32" cy="452.0" r="5" fill="black" stroke="none" />
<circle cx="379.32" cy="468.0" r="5" fill="black" stroke="none" />
<path d="M379.32,468.0 L414.28230376568166,477.2707467724711" stroke="grey" stroke-width="5" />
<circle cx="414.28230376568166" cy="477.2707467724711" r="2.5" fill="grey" stroke="none" />
<path d="M414.28230376568166,477.2707467724711 A88.68,88.68,0,0,0,411.32,500.0" stroke="grey" stroke-width="5" fill="none" />
<circle cx="379.32" cy="468.0" r="5" fill="black" stroke="none" />
<circle cx="411.32" cy="500.0" r="5" fill="black" stroke="none" />
<path d="M379.32,468.0 A124.85056027106967,124.85056027106967,0,0,0,385.1725204587605,549.0133894176503" stroke="grey" stroke-width="5" fill="none" />
<path d="M385.1725204587605,549.0133894176503 L-168.68,72.0" stroke="grey" stroke-width="5" />
<circle cx="385.1725204587605" cy="549.0133894176503" r="2.5" fill="grey" stroke="none" />
<circle cx="379.32" cy="468.0" r="5" fill="black" stroke="none" />
<circle cx="331.32" cy="572.0" r="5" fill="black" stroke="none" />
<path d="M331.32,572.0 A183.40376877261818,183.40376877261818,0,0,0,363.7525849567947,622.774526242395" stroke="grey" stroke-width="5" fill="none" />
<path d="M363.7525849567947,622.774526242395 L-168.68,152.0" stroke="grey" stroke-width="5" />
<circle cx="363.7525849567947" cy="622.774526242395" r="2.5" fill="grey" stroke="none" />
<circle cx="331.32" cy="572.0" r="5" fill="black" stroke="none" />
<circle cx="331.32" cy="652.0" r="5" fill="black" stroke="none" />
<path d="M227.32,668.0 L306.6834931755246,619.1036128301007" stroke="grey" stroke-width="5" />
<circle cx="306.6834931755246" cy="619.1036128301007" r="2.5" fill="grey" stroke="none" />
<path d="M306.6834931755246,619.1036128301007 A227.06153879510285,227.06153879510285,0,0,0,331.31999999999994,652.0" stroke="grey" stroke-width="5" fill="none" />
<circle cx="227.32" cy="668.0" r="5" fill="black" stroke="none" />
<circle cx="331.32" cy="652.0" r="5" fill="black" stroke="none" />
<path d="M331.31999999999994,652.0 A227.06153879510285,227.06153879510285,0,0,0,380.33177050790516,692.9675030937265" stroke="grey" stroke-width="5" fill="none" />
<path d="M380.33177050790516,692.9675030937265 L-168.68,272.0" stroke="grey" stroke-width="5" />
<circle cx="380.33177050790516" cy="692.9675030937265" r="2.5" fill="grey" stroke="none" />
<circle cx="331.32" cy="652.0" r="5" fill="black" stroke="none" />
<circle cx="331.32" cy="772.0" r="5" fill="black" stroke="none" />
<path d="M331.32,572.0 L394.9418665667957,544.8434053070353" stroke="grey" stroke-width="5" />
<circle cx="394.9418665667957" cy="544.8434053070353" r="2.5" fill="grey" stroke="none" />
<path d="M394.9418665667957,544.8434053070353 A114.22846580428191,114.22846580428191,0,0,0,411.32,572.0" stroke="grey" stroke-width="5" fill="none" />
<circle cx="331.32" cy="572.0" r="5" fill="black" stroke="none" />
<circle cx="411.32" cy="572.0" r="5" fill="black" stroke="none" />
<path d="M411.32,500.0 A88.68,88.68,0,0,0,431.154267505664,555.8963998600834" stroke="grey" stroke-width="5" fill="none" />
<path d="M431.154267505664,555.8963998600834 L-88.68,72.0" stroke="grey" stroke-width="5" />
<circle cx="431.154267505664" cy="555.8963998600834" r="2.5" fill="grey" stroke="none" />
<circle cx="411.32" cy="500.0" r="5" fill="black" stroke="none" />
<circle cx="411.32" cy="572.0" r="5" fill="black" stroke="none" />
<path d="M411.32,572.0 L442.6232387373525,546.5846505515406" stroke="grey" stroke-width="5" />
<circle cx="442.6232387373525" cy="546.5846505515406" r="2.5" fill="grey" stroke="none" />
<path d="M442.6232387373525,546.5846505515406 A73.9068494795983,73.9068494795983,0,0,0,483.32,572.0" stroke="grey" stroke-width="5" fill="none" />
<circle cx="411.32" cy="572.0" r="5" fill="black" stroke="none" />
<circle cx="483.32" cy="572.0" r="5" fill="black" stroke="none" />
<path d="M411.32,500.0 L451.32,500.0" stroke="grey" stroke-width="5" />
<circle cx="451.32" cy="500.0" r="2.5" fill="grey" stroke="none" />
<path d="M451.32,500.0 A48.68000000000001,48.68000000000001,0,0,1,451.32,500.0" stroke="grey" stroke-width="5" fill="none" />
<circle cx="411.32" cy="500.0" r="5" fill="black" stroke="none" />
<circle cx="451.32" cy="500.0" r="5" fill="black" stroke="none" />
<path d="M483.32,572.0 A73.9068494795983,73.9068494795983,0,0,0,567.4304632004369,530.2548348627872" stroke="grey" stroke-width="5" fill="none" />
<path d="M567.4304632004369,530.2548348627872 L71.32,32.0" stroke="grey" stroke-width="5" />
<circle cx="567.4304632004369" cy="530.2548348627872" r="2.5" fill="grey" stroke="none" />
<circle cx="483.32" cy="572.0" r="5" fill="black" stroke="none" />
<circle cx="571.3199999999999" cy="532.0" r="5" fill="black" stroke="none" />
<path d="M451.32,500.0 L595.3199999999999,500.0" stroke="grey" stroke-width="5" />
<circle cx="451.32" cy="500.0" r="5" fill="black" stroke="none" />
<circle cx="595.3199999999999" cy="500.0" r="5" fill="black" stroke="none" />
<path d="M571.3199999999999,532.0 A78.16995842393675,78.16995842393675,0,0,0,578.1699584239368,500.0" stroke="grey" stroke-width="5" fill="none" />
<path d="M578.1699584239368,500.0 L95.32,0.0" stroke="grey" stroke-width="5" />
<circle cx="578.1699584239368" cy="500.0" r="2.5" fill="grey" stroke="none" />
<circle cx="571.3199999999999" cy="532.0" r="5" fill="black" stroke="none" />
<circle cx="595.3199999999999" cy="500.0" r="5" fill="black" stroke="none" />
<path d="M331.32,652.0 L381.432300939172,606.8430771712465" stroke="grey" stroke-width="5" />
<circle cx="381.432300939172" cy="606.8430771712465" r="2.5" fill="grey" stroke="none" />
<path d="M381.432300939172,606.8430771712465 A159.6049573164944,159.6049573164944,0,0,0,451.32,652.0" stroke="grey" stroke-width="5" fill="none" />
<circle cx="331.32" cy="652.0" r="5" fill="black" stroke="none" />
<circle cx="451.32" cy="652.0" r="5" fill="black" stroke="none" />
<path d="M451.32,652.0 L477.6385070160976,569.8222459645268" stroke="grey" stroke-width="5" />
<circle cx="477.6385070160976" cy="569.8222459645268" r="2.5" fill="grey" stroke="none" />
<path d="M477.6385070160976,569.8222459645268 A73.31563544019788,73.31563544019788,0,0,0,547.3199999999999,556.0" stroke="grey" stroke-width="5" fill="none" />
<circle cx="451.32" cy="652.0" r="5" fill="black" stroke="none" />
<circle cx="547.3199999999999" cy="556.0" r="5" fill="black" stroke="none" />
<path d="M547.3199999999999,556.0 A73.31563544019788,73.31563544019788,0,0,0,566.8910566798224,530.01281286812" stroke="grey" stroke-width="5" fill="none" />
<path d="M566.8910566798224,530.01281286812 L71.32,32.0" stroke="grey" stroke-width="5" />
<circle cx="566.8910566798224" cy="530.01281286812" r="2.5" fill="grey" stroke="none" />
<circle cx="547.3199999999999" cy="556.0" r="5" fill="black" stroke="none" />
<circle cx="571.3199999999999" cy="532.0" r="5" fill="black" stroke="none" />
<path d="M571.3199999999999,532.0 A78.16995842393675,78.16995842393675,0,0,1,561.4820237934105,548.2752850873666" stroke="grey" stroke-width="5" fill="none" />
<path d="M561.4820237934105,548.2752850873666 L71.32,56.0" stroke="grey" stroke-width="5" />
<circle cx="561.4820237934105" cy="548.2752850873666" r="2.5" fill="grey" stroke="none" />
<circle cx="571.3199999999999" cy="532.0" r="5" fill="black" stroke="none" />
<circle cx="571.3199999999999" cy="556.0" r="5" fill="black" stroke="none" />
<path d="M571.3199999999999,556.0 A90.67823553642846,90.67823553642846,0,0,1,526.645132524382,586.6751366468961" stroke="grey" stroke-width="5" fill="none" />
<path d="M526.645132524382,586.6751366468961 L71.32,232.0" stroke="grey" stroke-width="5" />
<circle cx="526.645132524382" cy="586.6751366468961" r="2.5" fill="grey" stroke="none" />
<circle cx="571.3199999999999" cy="556.0" r="5" fill="black" stroke="none" />
<circle cx="571.3199999999999" cy="732.0" r="5" fill="black" stroke="none" />
<path d="M571.3199999999999,732.0 A242.71494061964952,242.71494061964952,0,0,0,641.9759148176271,696.8587869811706" stroke="grey" stroke-width="5" fill="none" />
<path d="M641.975914817627,696.8587869811706 L167.32,232.0" stroke="grey" stroke-width="5" />
<circle cx="641.975914817627" cy="696.8587869811706" r="2.5" fill="grey" stroke="none" />
<circle cx="571.3199999999999" cy="732.0" r="5" fill="black" stroke="none" />
<circle cx="667.3199999999999" cy="732.0" r="5" fill="black" stroke="none" />
<path d="M571.3199999999999,732.0 A242.71494061964952,242.71494061964952,0,0,1,559.9100397367976,735.2048671663393" stroke="grey" stroke-width="5" fill="none" />
<path d="M559.9100397367976,735.2048671663393 L71.32,280.0" stroke="grey" stroke-width="5" />
<circle cx="559.9100397367976" cy="735.2048671663393" r="2.5" fill="grey" stroke="none" />
<circle cx="571.3199999999999" cy="732.0" r="5" fill="black" stroke="none" />
<circle cx="571.3199999999999" cy="780.0" r="5" fill="black" stroke="none" />
<path d="M259.32,356.0 L369.55870743916387,421.9563481437577" stroke="grey" stroke-width="5" />
<circle cx="369.55870743916387" cy="421.9563481437577" r="2.5" fill="grey" stroke="none" />
<path d="M369.55870743916387,421.9563481437577 A152.00573147088895,152.00573147088895,0,0,1,451.32,356.0" stroke="grey" stroke-width="5" fill="none" />
<circle cx="259.32" cy="356.0" r="5" fill="black" stroke="none" />
<circle cx="451.32" cy="356.0" r="5" fill="black" stroke="none" />
<path d="M451.32,356.0 L484.4101773198346,453.883844167136" stroke="grey" stroke-width="5" />
<circle cx="484.4101773198346" cy="453.883844167136" r="2.5" fill="grey" stroke="none" />
<path d="M484.4101773198346,453.883844167136 A48.68000000000001,48.68000000000001,0,0,0,451.32,500.0" stroke="grey" stroke-width="5" fill="none" />
<circle cx="451.32" cy="356.0" r="5" fill="black" stroke="none" />
<circle cx="451.32" cy="500.0" r="5" fill="black" stroke="none" />
<path d="M451.32,356.0 A152.00573147088895,152.00573147088895,0,0,1,467.7193874690071,351.46143781958875" stroke="grey" stroke-width="5" fill="none" />
<path d="M467.7193874690071,351.46143781958875 L-48.68000000000001,-224.0" stroke="grey" stroke-width="5" />
<circle cx="467.7193874690071" cy="351.46143781958875" r="2.5" fill="grey" stroke="none" />
<circle cx="451.32" cy="356.0" r="5" fill="black" stroke="none" />
<circle cx="451.32" cy="276.0" r="5" fill="black" stroke="none" />
<path d="M451.32,276.0 A229.22858111500844,229.22858111500844,0,0,1,460.73595969361475,274.15917654503085" stroke="grey" stroke-width="5" fill="none" />
<path d="M460.73595969361463,274.15917654503085 L-48.68000000000001,-280.0" stroke="grey" stroke-width="5" />
<circle cx="460.73595969361463" cy="274.15917654503085" r="2.5" fill="grey" stroke="none" />
<circle cx="451.32" cy="276.0" r="5" fill="black" stroke="none" />
<circle cx="451.32" cy="220.0" r="5" fill="black" stroke="none" />
<path d="M451.32,276.0 L471.0193079691073,366.6459528570259" stroke="grey" stroke-width="5" />
<circle cx="471.0193079691073" cy="366.6459528570259" r="2.5" fill="grey" stroke="none" />
<path d="M471.0193079691073,366.6459528570259 A136.46678130592807,136.46678130592807,0,0,1,547.3199999999999,372.0" stroke="grey" stroke-width="5" fill="none" />
<circle cx="451.32" cy="276.0" r="5" fill="black" stroke="none" />
<circle cx="547.3199999999999" cy="372.0" r="5" fill="black" stroke="none" />
<path d="M451.32,356.0 L456.29636560615586,370.7205556139368" stroke="grey" stroke-width="5" />
<circle cx="456.29636560615586" cy="370.7205556139368" r="2.5" fill="grey" stroke="none" />
<path d="M456.29636560615586,370.7205556139368 A136.46678130592807,136.46678130592807,0,0,1,547.3199999999999,372.0" stroke="grey" stroke-width="5" fill="none" />
<circle cx="451.32" cy="356.0" r="5" fill="black" stroke="none" />
<circle cx="547.3199999999999" cy="372.0" r="5" fill="black" stroke="none" />
<path d="M547.3199999999999,372.0 L538.3342696254988,396.30628672730654" stroke="grey" stroke-width="5" />
<circle cx="538.3342696254988" cy="396.30628672730654" r="2.5" fill="grey" stroke="none" />
<path d="M538.3342696254988,396.30628672730654 A110.55271321862706,110.55271321862706,0,0,1,595.3199999999999,444.0" stroke="grey" stroke-width="5" fill="none" />
<circle cx="547.3199999999999" cy="372.0" r="5" fill="black" stroke="none" />
<circle cx="595.3199999999999" cy="444.0" r="5" fill="black" stroke="none" />
<path d="M547.3199999999999,556.0 A73.31563544019788,73.31563544019788,0,0,0,557.6640148395289,545.2774092963211" stroke="grey" stroke-width="5" fill="none" />
<path d="M557.6640148395289,545.2774092963211 L71.32,56.0" stroke="grey" stroke-width="5" />
<circle cx="557.6640148395289" cy="545.2774092963211" r="2.5" fill="grey" stroke="none" />
<circle cx="547.3199999999999" cy="556.0" r="5" fill="black" stroke="none" />
<circle cx="571.3199999999999" cy="556.0" r="5" fill="black" stroke="none" />
<path d="M571.3199999999999,556.0 A90.67823553642846,90.67823553642846,0,0,0,578.1839645512746,545.9326690607572" stroke="grey" stroke-width="5" fill="none" />
<path d="M578.1839645512746,545.9326690607572 L95.32,56.0" stroke="grey" stroke-width="5" />
<circle cx="578.1839645512746" cy="545.9326690607572" r="2.5" fill="grey" stroke="none" />
<circle cx="571.3199999999999" cy="556.0" r="5" fill="black" stroke="none" />
<circle cx="595.3199999999999" cy="556.0" r="5" fill="black" stroke="none" />
<path d="M595.3199999999999,556.0 L582.1861547805877,548.2839348270343" stroke="grey" stroke-width="5" />
<circle cx="582.1861547805877" cy="548.2839348270343" r="2.5" fill="grey" stroke="none" />
<path d="M582.1861547805877,548.2839348270343 A95.32,95.32,0,0,0,595.3199999999999,500.0" stroke="grey" stroke-width="5" fill="none" />
<circle cx="595.3199999999999" cy="556.0" r="5" fill="black" stroke="none" />
<circle cx="595.3199999999999" cy="500.0" r="5" fill="black" stroke="none" />
<path d="M595.3199999999999,500.0 A95.32,95.32,0,0,0,594.0048811150939,484.22075012755454" stroke="grey" stroke-width="5" fill="none" />
<path d="M594.0048811150939,484.22075012755454 L95.32,-16.0" stroke="grey" stroke-width="5" />
<circle cx="594.0048811150939" cy="484.22075012755454" r="2.5" fill="grey" stroke="none" />
<circle cx="595.3199999999999" cy="500.0" r="5" fill="black" stroke="none" />
<circle cx="595.3199999999999" cy="484.0" r="5" fill="black" stroke="none" />
<path d="M595.3199999999999,484.0 A96.65351726657441,96.65351726657441,0,0,0,591.6280016591281,469.23944551938627" stroke="grey" stroke-width="5" fill="none" />
<path d="M591.6280016591281,469.23944551938627 L95.32,-32.0" stroke="grey" stroke-width="5" />
<circle cx="591.6280016591281" cy="469.23944551938627" r="2.5" fill="grey" stroke="none" />
<circle cx="595.3199999999999" cy="484.0" r="5" fill="black" stroke="none" />
<circle cx="595.3199999999999" cy="468.0" r="5" fill="black" stroke="none" />
<path d="M595.3199999999999,468.0 A100.54801042288206,100.54801042288206,0,0,0,586.6938139686857,449.0678390448343" stroke="grey" stroke-width="5" fill="none" />
<path d="M586.6938139686857,449.0678390448342 L95.32,-56.0" stroke="grey" stroke-width="5" />
<circle cx="586.6938139686857" cy="449.0678390448342" r="2.5" fill="grey" stroke="none" />
<circle cx="595.3199999999999" cy="468.0" r="5" fill="black" stroke="none" />
<circle cx="595.3199999999999" cy="444.0" r="5" fill="black" stroke="none" />
<path d="M595.3199999999999,444.0 A110.55271321862706,110.55271321862706,0,0,1,602.9713321145153,459.76559727593593" stroke="grey" stroke-width="5" fill="none" />
<path d="M602.9713321145153,459.76559727593593 L143.32,-56.0" stroke="grey" stroke-width="5" />
<circle cx="602.9713321145153" cy="459.76559727593593" r="2.5" fill="grey" stroke="none" />
<circle cx="595.3199999999999" cy="444.0" r="5" fill="black" stroke="none" />
<circle cx="643.3199999999999" cy="444.0" r="5" fill="black" stroke="none" />
<path d="M643.3199999999999,444.0 L634.3208182486158,447.51628647835275" stroke="grey" stroke-width="5" />
<circle cx="634.3208182486158" cy="447.51628647835275" r="2.5" fill="grey" stroke="none" />
<path d="M634.3208182486158,447.51628647835275 A144.21034082200902,144.21034082200902,0,0,1,643.3199999999999,484.0" stroke="grey" stroke-width="5" fill="none" />
<circle cx="643.3199999999999" cy="444.0" r="5" fill="black" stroke="none" />
<circle cx="643.3199999999999" cy="484.0" r="5" fill="black" stroke="none" />
<path d="M643.3199999999999,484.0 L596.0567877149856,489.27638429081935" stroke="grey" stroke-width="5" />
<circle cx="596.0567877149856" cy="489.27638429081935" r="2.5" fill="grey" stroke="none" />
<path d="M596.0567877149856,489.27638429081935 A96.65351726657441,96.65351726657441,0,0,0,595.3199999999999,484.0" stroke="grey" stroke-width="5" fill="none" />
<circle cx="643.3199999999999" cy="484.0" r="5" fill="black" stroke="none" />
<circle cx="595.3199999999999" cy="484.0" r="5" fill="black" stroke="none" />
<path d="M595.3199999999999,468.0 A100.54801042288206,100.54801042288206,0,0,1,598.9138621484643,481.9459069772367" stroke="grey" stroke-width="5" fill="none" />
<path d="M598.9138621484643,481.9459069772367 L175.32,-32.0" stroke="grey" stroke-width="5" />
<circle cx="598.9138621484643" cy="481.9459069772367" r="2.5" fill="grey" stroke="none" />
<circle cx="595.3199999999999" cy="468.0" r="5" fill="black" stroke="none" />
<circle cx="675.3199999999999" cy="468.0" r="5" fill="black" stroke="none" />
<circle cx="500" cy="500" r="5" fill="red" stroke="none" />
</svg>