<?xml version="1.0" encoding="UTF-8"?>
<svg xmlns="http://www.w3.org/2000/svg" xmlns:xlink="http://www.w3.org/1999/xlink"
     width="1000" height="1000" viewBox="0 0 1000 1000">
<defs>
</defs>
<rect x="0" y="0" width="1000" height="1000" fill="white" />
<path d="M220.68,268.0 L261.01463746174977,301.5014889414505" stroke="grey" stroke-width="5" />
<circle cx="261.01463746174977" cy="301.5014889414505" r="2.5" fill="grey" stroke="none" />
<path d="M261.0146374617499,301.5014889414504 A310.66969984213137,310.66969984213137,0,0,0,220.68,364.0" stroke="grey" stroke-width="5" fill="none" />
<circle cx="220.68" cy="268.0" r="5" fill="black" stroke="none" />
<circle cx="220.68" cy="364.0" r="5" fill="black" stroke="none" />
<path d="M220.68,364.0 L293.47784358396865,399.44503339331135" stroke="grey" stroke-width="5" />
<circle cx="293.47784358396865" cy="399.44503339331135" r="2.5" fill="grey" stroke="none" />
<path d="M293.47784358396865,399.44503339331135 A229.7013330392316,229.7013330392316,0,0,0,284.68,420.0" stroke="grey" stroke-width="5" fill="none" />
<circle cx="220.68" cy="364.0" r="5" fill="black" stroke="none" />
<circle cx="284.68" cy="420.0" r="5" fill="black" stroke="none" />
<path d="M196.68,420.0 L277.8939727916175,441.4200112861974" stroke="grey" stroke-width="5" />
<circle cx="277.8939727916175" cy="441.4200112861974" r="2.5" fill="grey" stroke="none" />
<path d="M277.89397279161744,441.42001128619745 A229.7013330392316,229.7013330392316,0,0,1,284.68,420.0" stroke="grey" stroke-width="5" fill="none" />
<circle cx="196.68" cy="420.0" r="5" fill="black" stroke="none" />
<circle cx="284.68" cy="420.0" r="5" fill="black" stroke="none" />
<path d="M284.68,420.0 L358.31859740533173,447.3596869423488" stroke="grey" stroke-width="5" />
<circle cx="358.31859740533173" cy="447.3596869423488" r="2.5" fill="grey" stroke="none" />
<path d="M358.31859740533173,447.3596869423488 A151.14437601181194,151.14437601181194,0,0,0,356.68,452.0" stroke="grey" stroke-width="5" fill="none" />
<circle cx="284.68" cy="420.0" r="5" fill="black" stroke="none" />
<circle cx="356.68" cy="452.0" r="5" fill="black" stroke="none" />
<path d="M356.68,452.0 L375.5162479180939,458.30853963207164" stroke="grey" stroke-width="5" />
<circle cx="375.5162479180939" cy="458.30853963207164" r="2.5" fill="grey" stroke="none" />
<path d="M375.5162479180939,458.30853963207164 A131.27978671524417,131.27978671524417,0,0,0,372.68,467.99999999999994" stroke="grey" stroke-width="5" fill="none" />
<circle cx="356.68" cy="452.0" r="5" fill="black" stroke="none" />
<circle cx="372.68" cy="468.0" r="5" fill="black" stroke="none" />
<path d="M372.68,468.0 L407.55513317275404,476.76534921087125" stroke="grey" stroke-width="5" />
<circle cx="407.55513317275404" cy="476.76534921087125" r="2.5" fill="grey" stroke="none" />
<path d="M407.55513317275404,476.7653492108712 A95.32,95.32,0,0,0,404.68,500.0" stroke="grey" stroke-width="5" fill="none" />
<circle cx="372.68" cy="468.0" r="5" fill="black" stroke="none" />
<circle cx="404.68" cy="500.0" r="5" fill="black" stroke="none" />
<path d="M372.68,467.99999999999994 A131.27978671524417,131.27978671524417,0,0,0,378.5620307216135,549.8718559664832" stroke="grey" stroke-width="5" fill="none" />
<path d="M378.56203072161344,549.8718559664832 L-175.32,72.0" stroke="grey" stroke-width="5" />
<circle cx="378.56203072161344" cy="549.8718559664832" r="2.5" fill="grey" stroke="none" />
<circle cx="372.68" cy="468.0" r="5" fill="black" stroke="none" />
<circle cx="324.68" cy="572.0" r="5" fill="black" stroke="none" />
<path d="M324.68000000000006,572.0 A189.52863213773267,189.52863213773267,0,0,0,356.79792252349057,624.1542081703708" stroke="grey" stroke-width="5" fill="none" />
<path d="M356.79792252349057,624.1542081703709 L-175.32,152.0" stroke="grey" stroke-width="5" />
<circle cx="356.79792252349057" cy="624.1542081703709" r="2.5" fill="grey" stroke="none" />
<circle cx="324.68" cy="572.0" r="5" fill="black" stroke="none" />
<circle cx="324.68" cy="652.0" r="5" fill="black" stroke="none" />
<path d="M220.68,668.0 L301.158290357683,619.5954719315096" stroke="grey" stroke-width="5" />
<circle cx="301.158290357683" cy="619.5954719315096" r="2.5" fill="grey" stroke="none" />
<path d="M301.158290357683,619.5954719315096 A232.03685569322818,232.03685569322818,0,0,0,324.67999999999995,651.9999999999999" stroke="grey" stroke-width="5" fill="none" />
<circle cx="220.68" cy="668.0" r="5" fill="black" stroke="none" />
<circle cx="324.68" cy="652.0" r="5" fill="black" stroke="none" />
<path d="M324.67999999999995,651.9999999999999 A232.03685569322818,232.03685569322818,0,0,0,374.2895644649246,695.0333017655745" stroke="grey" stroke-width="5" fill="none" />
<path d="M374.2895644649246,695.0333017655745 L-175.32,272.0" stroke="grey" stroke-width="5" />
<circle cx="374.2895644649246" cy="695.0333017655745" r="2.5" fill="grey" stroke="none" />
<circle cx="324.68" cy="652.0" r="5" fill="black" stroke="none" />
<circle cx="324.68" cy="772.0" r="5" fill="black" stroke="none" />
<path d="M324.68,572.0 L389.4987641753847,545.3803843222239" stroke="grey" stroke-width="5" />
<circle cx="389.4987641753847" cy="545.3803843222239" r="2.5" fill="grey" stroke="none" />
<path d="M389.4987641753847,545.380384322224 A119.45669675660716,119.45669675660716,0,0,0,404.68,572.0" stroke="grey" stroke-width="5" fill="none" />
<circle cx="324.68" cy="572.0" r="5" fill="black" stroke="none" />
<circle cx="404.68" cy="572.0" r="5" fill="black" stroke="none" />
<path d="M404.68,500.0 A95.32,95.32,0,0,0,423.9397819737766,557.4521160080579" stroke="grey" stroke-width="5" fill="none" />
<path d="M423.9397819737766,557.4521160080579 L-95.32,72.0" stroke="grey" stroke-width="5" />
<circle cx="423.9397819737766" cy="557.4521160080579" r="2.5" fill="grey" stroke="none" />
<circle cx="404.68" cy="500.0" r="5" fill="black" stroke="none" />
<circle cx="404.68" cy="572.0" r="5" fill="black" stroke="none" />
<path d="M404.68,572.0 L439.60954467366713,545.6159545058326" stroke="grey" stroke-width="5" />
<circle cx="439.60954467366713" cy="545.6159545058326" r="2.5" fill="grey" stroke="none" />
<path d="M439.60954467366713,545.6159545058326 A75.68237839814496,75.68237839814496,0,0,0,476.68,572.0" stroke="grey" stroke-width="5" fill="none" />
<circle cx="404.68" cy="572.0" r="5" fill="black" stroke="none" />
<circle cx="476.68" cy="572.0" r="5" fill="black" stroke="none" />
<path d="M404.68,500.0 L444.68,500.0" stroke="grey" stroke-width="5" />
<circle cx="444.68" cy="500.0" r="2.5" fill="grey" stroke="none" />
<path d="M444.68,500.0 A55.31999999999999,55.31999999999999,0,0,1,444.68,500.0" stroke="grey" stroke-width="5" fill="none" />
<circle cx="404.68" cy="500.0" r="5" fill="black" stroke="none" />
<circle cx="444.68" cy="500.0" r="5" fill="black" stroke="none" />
<path d="M476.68,572.0 L477.7644173633828,568.6518846413569" stroke="grey" stroke-width="5" />
<circle cx="477.7644173633828" cy="568.6518846413569" r="2.5" fill="grey" stroke="none" />
<path d="M477.7644173633828,568.6518846413569 A72.16302654406896,72.16302654406896,0,0,0,564.6800000000001,532.0" stroke="grey" stroke-width="5" fill="none" />
<circle cx="476.68" cy="572.0" r="5" fill="black" stroke="none" />
<circle cx="564.6800000000001" cy="532.0" r="5" fill="black" stroke="none" />
<path d="M444.68,500.0 L588.6800000000001,500.0" stroke="grey" stroke-width="5" />
<circle cx="444.68" cy="500.0" r="5" fill="black" stroke="none" />
<circle cx="588.6800000000001" cy="500.0" r="5" fill="black" stroke="none" />
<path d="M564.6800000000001,532.0 A72.16302654406896,72.16302654406896,0,0,0,572.163026544069,500.0" stroke="grey" stroke-width="5" fill="none" />
<path d="M572.163026544069,500.0 L88.68,0.0" stroke="grey" stroke-width="5" />
<circle cx="572.163026544069" cy="500.0" r="2.5" fill="grey" stroke="none" />
<circle cx="564.6800000000001" cy="532.0" r="5" fill="black" stroke="none" />
<circle cx="588.6800000000001" cy="500.0" r="5" fill="black" stroke="none" />
<path d="M324.68,652.0 L377.783717298021,605.9598161687247" stroke="grey" stroke-width="5" />
<circle cx="377.783717298021" cy="605.9598161687247" r="2.5" fill="grey" stroke="none" />
<path d="M377.7837172980209,605.9598161687246 A161.75383272120632,161.75383272120632,0,0,0,444.67999999999995,652.0" stroke="grey" stroke-width="5" fill="none" />
<circle cx="324.68" cy="652.0" r="5" fill="black" stroke="none" />
<circle cx="444.68" cy="652.0" r="5" fill="black" stroke="none" />
<path d="M444.68,652.0 L476.32802790370556,565.042294986203" stroke="grey" stroke-width="5" />
<circle cx="476.32802790370556" cy="565.042294986203" r="2.5" fill="grey" stroke="none" />
<path d="M476.32802790370556,565.042294986203 A69.21605594080033,69.21605594080033,0,0,0,540.6800000000001,556.0" stroke="grey" stroke-width="5" fill="none" />
<circle cx="444.68" cy="652.0" r="5" fill="black" stroke="none" />
<circle cx="540.6800000000001" cy="556.0" r="5" fill="black" stroke="none" />
<path d="M540.6800000000001,556.0 A69.21605594080033,69.21605594080033,0,0,0,562.038618841977,530.6931942322707" stroke="grey" stroke-width="5" fill="none" />
<path d="M562.038618841977,530.6931942322707 L64.68,32.0" stroke="grey" stroke-width="5" />
<circle cx="562.038618841977" cy="530.6931942322707" r="2.5" fill="grey" stroke="none" />
<circle cx="540.6800000000001" cy="556.0" r="5" fill="black" stroke="none" />
<circle cx="564.6800000000001" cy="532.0" r="5" fill="black" stroke="none" />
<path d="M564.6800000000001,532.0 A72.16302654406896,72.16302654406896,0,0,1,554.5561822935771,547.2347898645689" stroke="grey" stroke-width="5" fill="none" />
<path d="M554.5561822935771,547.2347898645689 L64.68,56.0" stroke="grey" stroke-width="5" />
<circle cx="554.5561822935771" cy="547.2347898645689" r="2.5" fill="grey" stroke="none" />
<circle cx="564.6800000000001" cy="532.0" r="5" fill="black" stroke="none" />
<circle cx="564.6800000000001" cy="556.0" r="5" fill="black" stroke="none" />
<path d="M564.6800000000001,556.0 A85.55409049250656,85.55409049250656,0,0,1,522.975697606828,582.4112839329639" stroke="grey" stroke-width="5" fill="none" />
<path d="M522.975697606828,582.4112839329639 L64.68,232.0" stroke="grey" stroke-width="5" />
<circle cx="522.975697606828" cy="582.4112839329639" r="2.5" fill="grey" stroke="none" />
<circle cx="564.6800000000001" cy="556.0" r="5" fill="black" stroke="none" />
<circle cx="564.6800000000001" cy="732.0" r="5" fill="black" stroke="none" />
<path d="M564.68,732.0 A240.8474670823839,240.8474670823839,0,0,0,637.1300572839365,697.9970954062314" stroke="grey" stroke-width="5" fill="none" />
<path d="M637.1300572839365,697.9970954062314 L160.68,232.0" stroke="grey" stroke-width="5" />
<circle cx="637.1300572839365" cy="697.9970954062314" r="2.5" fill="grey" stroke="none" />
<circle cx="564.6800000000001" cy="732.0" r="5" fill="black" stroke="none" />
<circle cx="660.6800000000001" cy="732.0" r="5" fill="black" stroke="none" />
<path d="M564.68,732.0 A240.8474670823839,240.8474670823839,0,0,1,554.2082573124093,734.6677805732002" stroke="grey" stroke-width="5" fill="none" />
<path d="M554.2082573124093,734.6677805732002 L64.68,280.0" stroke="grey" stroke-width="5" />
<circle cx="554.2082573124093" cy="734.6677805732002" r="2.5" fill="grey" stroke="none" />
<circle cx="564.6800000000001" cy="732.0" r="5" fill="black" stroke="none" />
<circle cx="564.6800000000001" cy="780.0" r="5" fill="black" stroke="none" />
<path d="M252.68,356.0 L366.6897358362636,422.3812144607066" stroke="grey" stroke-width="5" />
<circle cx="366.6897358362636" cy="422.3812144607066" r="2.5" fill="grey" stroke="none" />
<path d="M366.6897358362636,422.3812144607066 A154.2605017494757,154.2605017494757,0,0,1,444.68,356.0" stroke="grey" stroke-width="5" fill="none" />
<circle cx="252.68" cy="356.0" r="5" fill="black" stroke="none" />
<circle cx="444.68" cy="356.0" r="5" fill="black" stroke="none" />
<path d="M444.68,356.0 L480.1614647606292,448.3595611990347" stroke="grey" stroke-width="5" />
<circle cx="480.1614647606292" cy="448.3595611990347" r="2.5" fill="grey" stroke="none" />
<path d="M480.1614647606292,448.3595611990347 A55.31999999999999,55.31999999999999,0,0,0,444.68,500.0" stroke="grey" stroke-width="5" fill="none" />
<circle cx="444.68" cy="356.0" r="5" fill="black" stroke="none" />
<circle cx="444.68" cy="500.0" r="5" fill="black" stroke="none" />
<path d="M444.68,356.0 A154.2605017494757,154.2605017494757,0,0,1,463.0143743712116,350.2389707004953" stroke="grey" stroke-width="5" fill="none" />
<path d="M463.0143743712116,350.2389707004953 L-55.31999999999999,-224.0" stroke="grey" stroke-width="5" />
<circle cx="463.0143743712116" cy="350.2389707004953" r="2.5" fill="grey" stroke="none" />
<circle cx="444.68" cy="356.0" r="5" fill="black" stroke="none" />
<circle cx="444.68" cy="276.0" r="5" fill="black" stroke="none" />
<path d="M444.68,276.0 A230.72993390542112,230.72993390542112,0,0,1,455.27883545346526,273.64558797849384" stroke="grey" stroke-width="5" fill="none" />
<path d="M455.27883545346526,273.64558797849384 L-55.31999999999999,-280.0" stroke="grey" stroke-width="5" />
<circle cx="455.27883545346526" cy="273.64558797849384" r="2.5" fill="grey" stroke="none" />
<circle cx="444.68" cy="276.0" r="5" fill="black" stroke="none" />
<circle cx="444.68" cy="220.0" r="5" fill="black" stroke="none" />
<path d="M444.68,276.0 L467.79800318877176,369.6086897014619" stroke="grey" stroke-width="5" />
<circle cx="467.79800318877176" cy="369.6086897014619" r="2.5" fill="grey" stroke="none" />
<path d="M467.79800318877176,369.6086897014619 A134.3088321742096,134.3088321742096,0,0,1,540.6800000000001,372.0" stroke="grey" stroke-width="5" fill="none" />
<circle cx="444.68" cy="276.0" r="5" fill="black" stroke="none" />
<circle cx="540.6800000000001" cy="372.0" r="5" fill="black" stroke="none" />
<path d="M444.68,356.0 L451.8349511922126,374.62460180185485" stroke="grey" stroke-width="5" />
<circle cx="451.8349511922126" cy="374.62460180185485" r="2.5" fill="grey" stroke="none" />
<path d="M451.8349511922126,374.62460180185485 A134.3088321742096,134.3088321742096,0,0,1,540.6800000000001,372.0" stroke="grey" stroke-width="5" fill="none" />
<circle cx="444.68" cy="356.0" r="5" fill="black" stroke="none" />
<circle cx="540.6800000000001" cy="372.0" r="5" fill="black" stroke="none" />
<path d="M540.6800000000001,372.0 L531.7669504040932,400.0449938120962" stroke="grey" stroke-width="5" />
<circle cx="531.7669504040932" cy="400.0449938120962" r="2.5" fill="grey" stroke="none" />
<path d="M531.7669504040932,400.0449938120962 A104.88156368018166,104.88156368018166,0,0,1,588.6800000000001,444.0" stroke="grey" stroke-width="5" fill="none" />
<circle cx="540.6800000000001" cy="372.0" r="5" fill="black" stroke="none" />
<circle cx="588.6800000000001" cy="444.0" r="5" fill="black" stroke="none" />
<path d="M540.6800000000001,556.0 A69.21605594080033,69.21605594080033,0,0,0,552.3282343658727,545.3058306198033" stroke="grey" stroke-width="5" fill="none" />
<path d="M552.3282343658727,545.3058306198033 L64.68,56.0" stroke="grey" stroke-width="5" />
<circle cx="552.3282343658727" cy="545.3058306198033" r="2.5" fill="grey" stroke="none" />
<circle cx="540.6800000000001" cy="556.0" r="5" fill="black" stroke="none" />
<circle cx="564.6800000000001" cy="556.0" r="5" fill="black" stroke="none" />
<path d="M564.6800000000001,556.0 A85.55409049250656,85.55409049250656,0,0,0,572.3381353086091,545.6803741236142" stroke="grey" stroke-width="5" fill="none" />
<path d="M572.3381353086091,545.6803741236142 L88.68,56.0" stroke="grey" stroke-width="5" />
<circle cx="572.3381353086091" cy="545.6803741236142" r="2.5" fill="grey" stroke="none" />
<circle cx="564.6800000000001" cy="556.0" r="5" fill="black" stroke="none" />
<circle cx="588.6800000000001" cy="556.0" r="5" fill="black" stroke="none" />
<path d="M588.6800000000001,556.0 L574.9811704179044,547.3494084731918" stroke="grey" stroke-width="5" />
<circle cx="574.9811704179044" cy="547.3494084731918" r="2.5" fill="grey" stroke="none" />
<path d="M574.9811704179044,547.3494084731918 A88.68,88.68,0,0,0,588.6800000000001,500.0" stroke="grey" stroke-width="5" fill="none" />
<circle cx="588.6800000000001" cy="556.0" r="5" fill="black" stroke="none" />
<circle cx="588.6800000000001" cy="500.0" r="5" fill="black" stroke="none" />
<path d="M588.6800000000001,500.0 A88.68,88.68,0,0,0,587.2709183773352,484.254232137603" stroke="grey" stroke-width="5" fill="none" />
<path d="M587.2709183773352,484.254232137603 L88.68,-16.0" stroke="grey" stroke-width="5" />
<circle cx="587.2709183773352" cy="484.254232137603" r="2.5" fill="grey" stroke="none" />
<circle cx="588.6800000000001" cy="500.0" r="5" fill="black" stroke="none" />
<circle cx="588.6800000000001" cy="484.0" r="5" fill="black" stroke="none" />
<path d="M588.6800000000001,484.0 A90.11183274132206,90.11183274132206,0,0,0,584.7621580107359,469.41374541786706" stroke="grey" stroke-width="5" fill="none" />
<path d="M584.7621580107359,469.41374541786706 L88.68,-32.0" stroke="grey" stroke-width="5" />
<circle cx="584.7621580107359" cy="469.41374541786706" r="2.5" fill="grey" stroke="none" />
<circle cx="588.6800000000001" cy="484.0" r="5" fill="black" stroke="none" />
<circle cx="588.6800000000001" cy="468.0" r="5" fill="black" stroke="none" />
<path d="M588.6800000000001,468.0 A94.27694521992109,94.27694521992109,0,0,0,579.7135283718352,449.66218325639636" stroke="grey" stroke-width="5" fill="none" />
<path d="M579.7135283718352,449.66218325639636 L88.68,-56.0" stroke="grey" stroke-width="5" />
<circle cx="579.7135283718352" cy="449.66218325639636" r="2.5" fill="grey" stroke="none" />
<circle cx="588.6800000000001" cy="468.0" r="5" fill="black" stroke="none" />
<circle cx="588.6800000000001" cy="444.0" r="5" fill="black" stroke="none" />
<path d="M588.6800000000001,444.0 A104.88156368018166,104.88156368018166,0,0,1,597.0515338952366,460.2364215822853" stroke="grey" stroke-width="5" fill="none" />
<path d="M597.0515338952366,460.2364215822853 L136.68,-56.0" stroke="grey" stroke-width="5" />
<circle cx="597.0515338952366" cy="460.2364215822853" r="2.5" fill="grey" stroke="none" />
<circle cx="588.6800000000001" cy="444.0" r="5" fill="black" stroke="none" />
<circle cx="636.6800000000001" cy="444.0" r="5" fill="black" stroke="none" />
<path d="M636.6800000000001,444.0 L627.3396592142087,447.82688823532567" stroke="grey" stroke-width="5" />
<circle cx="627.3396592142087" cy="447.82688823532567" r="2.5" fill="grey" stroke="none" />
<path d="M627.3396592142087,447.82688823532567 A137.61330749604124,137.61330749604124,0,0,1,636.6800000000001,484.0" stroke="grey" stroke-width="5" fill="none" />
<circle cx="636.6800000000001" cy="444.0" r="5" fill="black" stroke="none" />
<circle cx="636.6800000000001" cy="484.0" r="5" fill="black" stroke="none" />
<path d="M636.6800000000001,484.0 L589.500685094995,489.5228931700328" stroke="grey" stroke-width="5" />
<circle cx="589.500685094995" cy="489.5228931700328" r="2.5" fill="grey" stroke="none" />
<path d="M589.500685094995,489.5228931700328 A90.11183274132206,90.11183274132206,0,0,0,588.6800000000001,484.0" stroke="grey" stroke-width="5" fill="none" />
<circle cx="636.6800000000001" cy="484.0" r="5" fill="black" stroke="none" />
<circle cx="588.6800000000001" cy="484.0" r="5" fill="black" stroke="none" />
<path d="M588.6800000000001,468.0 A94.27694521992109,94.27694521992109,0,0,1,592.6249268340616,482.42828042038195" stroke="grey" stroke-width="5" fill="none" />
<path d="M592.6249268340616,482.42828042038195 L168.68,-32.0" stroke="grey" stroke-width="5" />
<circle cx="592.6249268340616" cy="482.42828042038195" r="2.5" fill="grey" stroke="none" />
<circle cx="588.6800000000001" cy="468.0" r="5" fill="black" stroke="none" />
<circle cx="668.6800000000001" cy="468.0" r="5" fill="black" stroke="none" />
<circle cx="500" cy="500" r="5" fill="red" stroke="none" />
</svg>