<?xml version="1.0" encoding="UTF-8"?>
<svg xmlns="http://www.w3.org/2000/svg" xmlns:xlink="http://www.w3.org/1999/xlink"
     width="1000" height="1000" viewBox="0 0 1000 1000">
<defs>
</defs>
<rect x="0" y="0" width="1000" height="1000" fill="white" />
<path d="M137.68,268.0 L174.08499722963217,291.3107732316038" stroke="grey" stroke-width="5" />
<circle cx="174.08499722963217" cy="291.3107732316038" r="2.5" fill="grey" stroke="none" />
<path d="M174.08499722963222,291.3107732316036 A387.00359481534537,387.00359481534537,0,0,0,137.68,363.9999999999999" stroke="grey" stroke-width="5" fill="none" />
<circle cx="137.68" cy="268.0" r="5" fill="black" stroke="none" />
<circle cx="137.68" cy="364.0" r="5" fill="black" stroke="none" />
<path d="M137.68,364.0 L210.8390050235605,391.46087625083965" stroke="grey" stroke-width="5" />
<circle cx="210.8390050235605" cy="391.46087625083965" r="2.5" fill="grey" stroke="none" />
<path d="M210.8390050235605,391.46087625083965 A308.8605225664167,308.8605225664167,0,0,0,201.68,420.00000000000006" stroke="grey" stroke-width="5" fill="none" />
<circle cx="137.68" cy="364.0" r="5" fill="black" stroke="none" />
<circle cx="201.68" cy="420.0" r="5" fill="black" stroke="none" />
<path d="M113.68,420.0 L197.55626059357462,437.36928154764433" stroke="grey" stroke-width="5" />
<circle cx="197.55626059357462" cy="437.36928154764433" r="2.5" fill="grey" stroke="none" />
<path d="M197.55626059357462,437.36928154764433 A308.8605225664167,308.8605225664167,0,0,1,201.68,420.00000000000006" stroke="grey" stroke-width="5" fill="none" />
<circle cx="113.68" cy="420.0" r="5" fill="black" stroke="none" />
<circle cx="201.68" cy="420.0" r="5" fill="black" stroke="none" />
<path d="M201.68,420.0 L276.5413033470037,440.07543667122656" stroke="grey" stroke-width="5" />
<circle cx="276.5413033470037" cy="440.07543667122656" r="2.5" fill="grey" stroke="none" />
<path d="M276.5413033470037,440.07543667122656 A231.35414930361634,231.35414930361634,0,0,0,273.68,452.0" stroke="grey" stroke-width="5" fill="none" />
<circle cx="201.68" cy="420.0" r="5" fill="black" stroke="none" />
<circle cx="273.68" cy="452.0" r="5" fill="black" stroke="none" />
<path d="M273.68,452.0 L291.88866695399776,455.8618593751851" stroke="grey" stroke-width="5" />
<circle cx="291.88866695399776" cy="455.8618593751851" r="2.5" fill="grey" stroke="none" />
<path d="M291.88866695399776,455.8618593751851 A212.74045783536332,212.74045783536332,0,0,0,289.68,468.00000000000006" stroke="grey" stroke-width="5" fill="none" />
<circle cx="273.68" cy="452.0" r="5" fill="black" stroke="none" />
<circle cx="289.68" cy="468.0" r="5" fill="black" stroke="none" />
<path d="M289.68,468.0 L323.708838546244,473.177457367249" stroke="grey" stroke-width="5" />
<circle cx="323.708838546244" cy="473.177457367249" r="2.5" fill="grey" stroke="none" />
<path d="M323.708838546244,473.177457367249 A178.32,178.32,0,0,0,321.68,500.0" stroke="grey" stroke-width="5" fill="none" />
<circle cx="289.68" cy="468.0" r="5" fill="black" stroke="none" />
<circle cx="321.68" cy="500.0" r="5" fill="black" stroke="none" />
<path d="M289.68,468.00000000000006 A212.74045783536332,212.74045783536332,0,0,0,295.0708462327432,557.1186864015272" stroke="grey" stroke-width="5" fill="none" />
<path d="M295.0708462327432,557.1186864015272 L-258.32,72.0" stroke="grey" stroke-width="5" />
<circle cx="295.0708462327432" cy="557.1186864015272" r="2.5" fill="grey" stroke="none" />
<circle cx="289.68" cy="468.0" r="5" fill="black" stroke="none" />
<circle cx="241.68" cy="572.0" r="5" fill="black" stroke="none" />
<path d="M241.68,572.0 A268.1664080379942,268.1664080379942,0,0,0,268.8766000306447,635.9970455068984" stroke="grey" stroke-width="5" fill="none" />
<path d="M268.8766000306447,635.9970455068984 L-258.32,152.0" stroke="grey" stroke-width="5" />
<circle cx="268.8766000306447" cy="635.9970455068984" r="2.5" fill="grey" stroke="none" />
<circle cx="241.68" cy="572.0" r="5" fill="black" stroke="none" />
<circle cx="241.68" cy="652.0" r="5" fill="black" stroke="none" />
<path d="M137.68,668.0 L228.08651287366087,626.0804422533257" stroke="grey" stroke-width="5" />
<circle cx="228.08651287366087" cy="626.0804422533257" r="2.5" fill="grey" stroke="none" />
<path d="M228.08651287366087,626.0804422533257 A299.72190844180875,299.72190844180875,0,0,0,241.67999999999995,652.0" stroke="grey" stroke-width="5" fill="none" />
<circle cx="137.68" cy="668.0" r="5" fill="black" stroke="none" />
<circle cx="241.68" cy="652.0" r="5" fill="black" stroke="none" />
<path d="M241.67999999999995,652.0 A299.72190844180875,299.72190844180875,0,0,0,293.60029753095876,717.3301295740912" stroke="grey" stroke-width="5" fill="none" />
<path d="M293.60029753095876,717.3301295740912 L-258.32,272.0" stroke="grey" stroke-width="5" />
<circle cx="293.60029753095876" cy="717.3301295740912" r="2.5" fill="grey" stroke="none" />
<circle cx="241.68" cy="652.0" r="5" fill="black" stroke="none" />
<circle cx="241.68" cy="772.0" r="5" fill="black" stroke="none" />
<path d="M241.68,572.0 L314.7539374143091,551.6325352515088" stroke="grey" stroke-width="5" />
<circle cx="314.7539374143091" cy="551.6325352515088" r="2.5" fill="grey" stroke="none" />
<path d="M314.7539374143091,551.6325352515088 A192.30710439294748,192.30710439294748,0,0,0,321.68,572.0" stroke="grey" stroke-width="5" fill="none" />
<circle cx="241.68" cy="572.0" r="5" fill="black" stroke="none" />
<circle cx="321.68" cy="572.0" r="5" fill="black" stroke="none" />
<path d="M321.68,500.0 A178.32,178.32,0,0,0,334.64977801846544,566.7632121055995" stroke="grey" stroke-width="5" fill="none" />
<path d="M334.64977801846544,566.7632121055995 L-178.32,72.0" stroke="grey" stroke-width="5" />
<circle cx="334.64977801846544" cy="566.7632121055995" r="2.5" fill="grey" stroke="none" />
<circle cx="321.68" cy="500.0" r="5" fill="black" stroke="none" />
<circle cx="321.68" cy="572.0" r="5" fill="black" stroke="none" />
<path d="M321.68,572.0 L380.9339468742875,548.0751223926161" stroke="grey" stroke-width="5" />
<circle cx="380.9339468742875" cy="548.0751223926161" r="2.5" fill="grey" stroke="none" />
<path d="M380.9339468742875,548.0751223926161 A128.40538306472982,128.40538306472982,0,0,0,393.67999999999995,572.0" stroke="grey" stroke-width="5" fill="none" />
<circle cx="321.68" cy="572.0" r="5" fill="black" stroke="none" />
<circle cx="393.68" cy="572.0" r="5" fill="black" stroke="none" />
<path d="M321.68,500.0 L361.68,500.0" stroke="grey" stroke-width="5" />
<circle cx="361.68" cy="500.0" r="2.5" fill="grey" stroke="none" />
<path d="M361.68,500.0 A138.32,138.32,0,0,1,361.68,500.0" stroke="grey" stroke-width="5" fill="none" />
<circle cx="321.68" cy="500.0" r="5" fill="black" stroke="none" />
<circle cx="361.68" cy="500.0" r="5" fill="black" stroke="none" />
<path d="M393.68,572.0 L469.46900960108275,520.6756142656325" stroke="grey" stroke-width="5" />
<circle cx="469.46900960108275" cy="520.6756142656325" r="2.5" fill="grey" stroke="none" />
<path d="M469.46900960108275,520.6756142656324 A36.87305791496007,36.87305791496007,0,0,0,481.68,532.0" stroke="grey" stroke-width="5" fill="none" />
<circle cx="393.68" cy="572.0" r="5" fill="black" stroke="none" />
<circle cx="481.68" cy="532.0" r="5" fill="black" stroke="none" />
<path d="M361.68,500.0 L505.68,500.0" stroke="grey" stroke-width="5" />
<circle cx="361.68" cy="500.0" r="5" fill="black" stroke="none" />
<circle cx="505.68" cy="500.0" r="5" fill="black" stroke="none" />
<path d="M481.68,532.0 L497.17795035497227,504.929344358127" stroke="grey" stroke-width="5" />
<circle cx="497.17795035497227" cy="504.929344358127" r="2.5" fill="grey" stroke="none" />
<path d="M497.17795035497227,504.929344358127 A5.680000000000007,5.680000000000007,0,0,0,505.68,500.0" stroke="grey" stroke-width="5" fill="none" />
<circle cx="481.68" cy="532.0" r="5" fill="black" stroke="none" />
<circle cx="505.68" cy="500.0" r="5" fill="black" stroke="none" />
<path d="M241.68,652.0 L322.8736778526858,604.2242217652205" stroke="grey" stroke-width="5" />
<circle cx="322.8736778526858" cy="604.2242217652205" r="2.5" fill="grey" stroke="none" />
<path d="M322.8736778526858,604.2242217652205 A205.515017456146,205.515017456146,0,0,0,361.68,652.0" stroke="grey" stroke-width="5" fill="none" />
<circle cx="241.68" cy="652.0" r="5" fill="black" stroke="none" />
<circle cx="361.68" cy="652.0" r="5" fill="black" stroke="none" />
<path d="M361.68,652.0 L452.75760315514646,551.9147218075314" stroke="grey" stroke-width="5" />
<circle cx="452.75760315514646" cy="551.9147218075314" r="2.5" fill="grey" stroke="none" />
<path d="M452.75760315514646,551.9147218075314 A70.1924668322748,70.1924668322748,0,0,0,457.68,556.0" stroke="grey" stroke-width="5" fill="none" />
<circle cx="361.68" cy="652.0" r="5" fill="black" stroke="none" />
<circle cx="457.68" cy="556.0" r="5" fill="black" stroke="none" />
<path d="M457.68,556.0 L477.768728164379,529.4175619753019" stroke="grey" stroke-width="5" />
<circle cx="477.768728164379" cy="529.4175619753019" r="2.5" fill="grey" stroke="none" />
<path d="M477.768728164379,529.4175619753019 A36.87305791496007,36.87305791496007,0,0,0,481.68,532.0" stroke="grey" stroke-width="5" fill="none" />
<circle cx="457.68" cy="556.0" r="5" fill="black" stroke="none" />
<circle cx="481.68" cy="532.0" r="5" fill="black" stroke="none" />
<path d="M481.68,532.0 A36.87305791496007,36.87305791496007,0,0,0,488.535149818557,535.0453935677297" stroke="grey" stroke-width="5" fill="none" />
<path d="M488.53514981855704,535.0453935677297 L-18.319999999999993,56.0" stroke="grey" stroke-width="5" />
<circle cx="488.53514981855704" cy="535.0453935677297" r="2.5" fill="grey" stroke="none" />
<circle cx="481.68" cy="532.0" r="5" fill="black" stroke="none" />
<circle cx="481.68" cy="556.0" r="5" fill="black" stroke="none" />
<path d="M481.68,556.0 A58.92047521872171,58.92047521872171,0,0,0,495.3617527432435,558.7376290156931" stroke="grey" stroke-width="5" fill="none" />
<path d="M495.3617527432435,558.7376290156931 L-18.319999999999993,232.0" stroke="grey" stroke-width="5" />
<circle cx="495.3617527432435" cy="558.7376290156931" r="2.5" fill="grey" stroke="none" />
<circle cx="481.68" cy="556.0" r="5" fill="black" stroke="none" />
<circle cx="481.68" cy="732.0" r="5" fill="black" stroke="none" />
<path d="M481.68,732.0 A232.72220005835283,232.72220005835283,0,0,0,573.8899322144267,720.6805390544155" stroke="grey" stroke-width="5" fill="none" />
<path d="M573.8899322144267,720.6805390544155 L77.68,232.0" stroke="grey" stroke-width="5" />
<circle cx="573.8899322144267" cy="720.6805390544155" r="2.5" fill="grey" stroke="none" />
<circle cx="481.68" cy="732.0" r="5" fill="black" stroke="none" />
<circle cx="577.6800000000001" cy="732.0" r="5" fill="black" stroke="none" />
<path d="M481.68,732.0 A232.72220005835283,232.72220005835283,0,0,0,484.8058065743193,732.2256637112768" stroke="grey" stroke-width="5" fill="none" />
<path d="M484.8058065743193,732.2256637112768 L-18.319999999999993,280.0" stroke="grey" stroke-width="5" />
<circle cx="484.8058065743193" cy="732.2256637112768" r="2.5" fill="grey" stroke="none" />
<circle cx="481.68" cy="732.0" r="5" fill="black" stroke="none" />
<circle cx="481.68" cy="780.0" r="5" fill="black" stroke="none" />
<path d="M169.68,356.0 L316.9655116511392,420.2077793586947" stroke="grey" stroke-width="5" />
<circle cx="316.9655116511392" cy="420.2077793586947" r="2.5" fill="grey" stroke="none" />
<path d="M316.9655116511392,420.2077793586948 A199.6707850437815,199.6707850437815,0,0,1,361.67999999999995,356.00000000000006" stroke="grey" stroke-width="5" fill="none" />
<circle cx="169.68" cy="356.0" r="5" fill="black" stroke="none" />
<circle cx="361.68" cy="356.0" r="5" fill="black" stroke="none" />
<path d="M361.68,356.0 L404.18016138011944,400.2453964628196" stroke="grey" stroke-width="5" />
<circle cx="404.18016138011944" cy="400.2453964628196" r="2.5" fill="grey" stroke="none" />
<path d="M404.18016138011944,400.2453964628196 A138.32,138.32,0,0,0,361.68,500.0" stroke="grey" stroke-width="5" fill="none" />
<circle cx="361.68" cy="356.0" r="5" fill="black" stroke="none" />
<circle cx="361.68" cy="500.0" r="5" fill="black" stroke="none" />
<path d="M361.67999999999995,356.00000000000006 A199.6707850437815,199.6707850437815,0,0,1,395.092509358902,330.10932689700724" stroke="grey" stroke-width="5" fill="none" />
<path d="M395.092509358902,330.10932689700724 L-138.32,-224.0" stroke="grey" stroke-width="5" />
<circle cx="395.092509358902" cy="330.10932689700724" r="2.5" fill="grey" stroke="none" />
<circle cx="361.68" cy="356.0" r="5" fill="black" stroke="none" />
<circle cx="361.68" cy="276.0" r="5" fill="black" stroke="none" />
<path d="M361.68000000000006,276.0 A263.26492816172833,263.26492816172833,0,0,1,383.39867606241995,263.9649313004453" stroke="grey" stroke-width="5" fill="none" />
<path d="M383.39867606241995,263.9649313004453 L-138.32,-280.0" stroke="grey" stroke-width="5" />
<circle cx="383.39867606241995" cy="263.9649313004453" r="2.5" fill="grey" stroke="none" />
<circle cx="361.68" cy="276.0" r="5" fill="black" stroke="none" />
<circle cx="361.68" cy="220.0" r="5" fill="black" stroke="none" />
<path d="M361.68,276.0 L429.16808671028883,385.292448113828" stroke="grey" stroke-width="5" />
<circle cx="429.16808671028883" cy="385.292448113828" r="2.5" fill="grey" stroke="none" />
<path d="M429.16808671028883,385.292448113828 A134.814622352325,134.814622352325,0,0,1,457.68,372.0" stroke="grey" stroke-width="5" fill="none" />
<circle cx="361.68" cy="276.0" r="5" fill="black" stroke="none" />
<circle cx="457.68" cy="372.0" r="5" fill="black" stroke="none" />
<path d="M361.68,356.0 L406.60847775159107,402.77342970090456" stroke="grey" stroke-width="5" />
<circle cx="406.60847775159107" cy="402.77342970090456" r="2.5" fill="grey" stroke="none" />
<path d="M406.60847775159107,402.7734297009046 A134.814622352325,134.814622352325,0,0,1,457.68,372.0" stroke="grey" stroke-width="5" fill="none" />
<circle cx="361.68" cy="356.0" r="5" fill="black" stroke="none" />
<circle cx="457.68" cy="372.0" r="5" fill="black" stroke="none" />
<path d="M457.68,372.0 L482.3307046108992,446.5578967437405" stroke="grey" stroke-width="5" />
<circle cx="482.3307046108992" cy="446.5578967437405" r="2.5" fill="grey" stroke="none" />
<path d="M482.3307046108992,446.5578967437405 A56.287320064113906,56.287320064113906,0,0,1,505.68,444.0" stroke="grey" stroke-width="5" fill="none" />
<circle cx="457.68" cy="372.0" r="5" fill="black" stroke="none" />
<circle cx="505.68" cy="444.0" r="5" fill="black" stroke="none" />
<path d="M457.68,556.0 L464.47603818776497,547.0071328328252" stroke="grey" stroke-width="5" />
<circle cx="464.47603818776497" cy="547.0071328328252" r="2.5" fill="grey" stroke="none" />
<path d="M464.47603818776497,547.0071328328252 A58.92047521872171,58.92047521872171,0,0,0,481.68,556.0" stroke="grey" stroke-width="5" fill="none" />
<circle cx="457.68" cy="556.0" r="5" fill="black" stroke="none" />
<circle cx="481.68" cy="556.0" r="5" fill="black" stroke="none" />
<path d="M481.68,556.0 L482.4987205254768,553.4973608391539" stroke="grey" stroke-width="5" />
<circle cx="482.4987205254768" cy="553.4973608391539" r="2.5" fill="grey" stroke="none" />
<path d="M482.4987205254768,553.4973608391539 A56.287320064113906,56.287320064113906,0,0,0,505.68,556.0" stroke="grey" stroke-width="5" fill="none" />
<circle cx="481.68" cy="556.0" r="5" fill="black" stroke="none" />
<circle cx="505.68" cy="556.0" r="5" fill="black" stroke="none" />
<path d="M505.68,556.0 L500.5731734956159,505.6510062948048" stroke="grey" stroke-width="5" />
<circle cx="500.5731734956159" cy="505.6510062948048" r="2.5" fill="grey" stroke="none" />
<path d="M500.5731734956159,505.6510062948048 A5.680000000000007,5.680000000000007,0,0,0,505.68,500.0" stroke="grey" stroke-width="5" fill="none" />
<circle cx="505.68" cy="556.0" r="5" fill="black" stroke="none" />
<circle cx="505.68" cy="500.0" r="5" fill="black" stroke="none" />
<path d="M505.68,500.0 A5.680000000000007,5.680000000000007,0,0,0,501.90021469517177,494.6472825488119" stroke="grey" stroke-width="5" fill="none" />
<path d="M501.90021469517177,494.6472825488119 L5.680000000000007,-16.0" stroke="grey" stroke-width="5" />
<circle cx="501.90021469517177" cy="494.6472825488119" r="2.5" fill="grey" stroke="none" />
<circle cx="505.68" cy="500.0" r="5" fill="black" stroke="none" />
<circle cx="505.68" cy="484.0" r="5" fill="black" stroke="none" />
<path d="M505.68,484.0 A16.978292022462096,16.978292022462096,0,0,0,502.9672656192697,483.2830105956635" stroke="grey" stroke-width="5" fill="none" />
<path d="M502.9672656192697,483.2830105956635 L5.680000000000007,-32.0" stroke="grey" stroke-width="5" />
<circle cx="502.9672656192697" cy="483.2830105956635" r="2.5" fill="grey" stroke="none" />
<circle cx="505.68" cy="484.0" r="5" fill="black" stroke="none" />
<circle cx="505.68" cy="468.0" r="5" fill="black" stroke="none" />
<path d="M505.68,468.0 A32.50019076867088,32.50019076867088,0,0,0,503.2796211181449,467.6657072858951" stroke="grey" stroke-width="5" fill="none" />
<path d="M503.2796211181449,467.6657072858951 L5.680000000000007,-56.0" stroke="grey" stroke-width="5" />
<circle cx="503.2796211181449" cy="467.6657072858951" r="2.5" fill="grey" stroke="none" />
<circle cx="505.68" cy="468.0" r="5" fill="black" stroke="none" />
<circle cx="505.68" cy="444.0" r="5" fill="black" stroke="none" />
<path d="M505.68,444.0 A56.287320064113906,56.287320064113906,0,0,1,538.9505414619791,459.3660521261022" stroke="grey" stroke-width="5" fill="none" />
<path d="M538.9505414619791,459.3660521261022 L53.68000000000001,-56.0" stroke="grey" stroke-width="5" />
<circle cx="538.9505414619791" cy="459.3660521261022" r="2.5" fill="grey" stroke="none" />
<circle cx="505.68" cy="444.0" r="5" fill="black" stroke="none" />
<circle cx="553.6800000000001" cy="444.0" r="5" fill="black" stroke="none" />
<path d="M553.6800000000001,444.0 L538.7612460150102,459.5635287473813" stroke="grey" stroke-width="5" />
<circle cx="538.7612460150102" cy="459.5635287473813" r="2.5" fill="grey" stroke="none" />
<path d="M538.7612460150102,459.5635287473813 A56.01376973566411,56.01376973566411,0,0,1,553.6800000000001,484.0" stroke="grey" stroke-width="5" fill="none" />
<circle cx="553.6800000000001" cy="444.0" r="5" fill="black" stroke="none" />
<circle cx="553.6800000000001" cy="484.0" r="5" fill="black" stroke="none" />
<path d="M553.6800000000001,484.0 L516.2709048162042,495.15025191767387" stroke="grey" stroke-width="5" />
<circle cx="516.2709048162042" cy="495.15025191767387" r="2.5" fill="grey" stroke="none" />
<path d="M516.2709048162042,495.15025191767387 A16.978292022462096,16.978292022462096,0,0,0,505.68,484.0" stroke="grey" stroke-width="5" fill="none" />
<circle cx="553.6800000000001" cy="484.0" r="5" fill="black" stroke="none" />
<circle cx="505.68" cy="484.0" r="5" fill="black" stroke="none" />
<path d="M505.68,468.0 A32.50019076867088,32.50019076867088,0,0,1,530.4460373299531,488.62893096920516" stroke="grey" stroke-width="5" fill="none" />
<path d="M530.4460373299531,488.62893096920516 L85.68,-32.0" stroke="grey" stroke-width="5" />
<circle cx="530.4460373299531" cy="488.62893096920516" r="2.5" fill="grey" stroke="none" />
<circle cx="505.68" cy="468.0" r="5" fill="black" stroke="none" />
<circle cx="585.6800000000001" cy="468.0" r="5" fill="black" stroke="none" />
<circle cx="500" cy="500" r="5" fill="red" stroke="none" />
</svg>