<?xml version="1.0" encoding="UTF-8"?>
<svg xmlns="http://www.w3.org/2000/svg" xmlns:xlink="http://www.w3.org/1999/xlink"
     width="1000" height="1000" viewBox="0 0 1000 1000">
<defs>
</defs>
<rect x="0" y="0" width="1000" height="1000" fill="white" />
<path d="M210.71999999999997,268.0 L250.63426083660877,300.01088396741306" stroke="grey" stroke-width="5" />
<circle cx="250.63426083660877" cy="300.01088396741306" r="2.5" fill="grey" stroke="none" />
<path d="M250.63426083660886,300.0108839674129 A319.6543733472139,319.6543733472139,0,0,0,210.72000000000003,363.9999999999999" stroke="grey" stroke-width="5" fill="none" />
<circle cx="210.71999999999997" cy="268.0" r="5" fill="black" stroke="none" />
<circle cx="210.71999999999997" cy="364.0" r="5" fill="black" stroke="none" />
<path d="M210.71999999999997,364.0 L283.6534505207825,398.2884031762528" stroke="grey" stroke-width="5" />
<circle cx="283.6534505207825" cy="398.2884031762528" r="2.5" fill="grey" stroke="none" />
<path d="M283.6534505207825,398.2884031762527 A239.06291724146598,239.06291724146598,0,0,0,274.72,420.0" stroke="grey" stroke-width="5" fill="none" />
<circle cx="210.71999999999997" cy="364.0" r="5" fill="black" stroke="none" />
<circle cx="274.71999999999997" cy="420.0" r="5" fill="black" stroke="none" />
<path d="M186.71999999999997,420.0 L268.37011896788056,440.8503878876099" stroke="grey" stroke-width="5" />
<circle cx="268.37011896788056" cy="440.8503878876099" r="2.5" fill="grey" stroke="none" />
<path d="M268.37011896788056,440.8503878876099 A239.06291724146598,239.06291724146598,0,0,1,274.72,420.0" stroke="grey" stroke-width="5" fill="none" />
<circle cx="186.71999999999997" cy="420.0" r="5" fill="black" stroke="none" />
<circle cx="274.71999999999997" cy="420.0" r="5" fill="black" stroke="none" />
<path d="M274.71999999999997,420.0 L348.6404508730166,446.25016011115645" stroke="grey" stroke-width="5" />
<circle cx="348.6404508730166" cy="446.25016011115645" r="2.5" fill="grey" stroke="none" />
<path d="M348.6404508730166,446.25016011115645 A160.61991906360808,160.61991906360808,0,0,0,346.71999999999997,452.0" stroke="grey" stroke-width="5" fill="none" />
<circle cx="274.71999999999997" cy="420.0" r="5" fill="black" stroke="none" />
<circle cx="346.71999999999997" cy="452.0" r="5" fill="black" stroke="none" />
<path d="M346.71999999999997,452.0 L365.48125112932394,457.87513083381754" stroke="grey" stroke-width="5" />
<circle cx="365.48125112932394" cy="457.87513083381754" r="2.5" fill="grey" stroke="none" />
<path d="M365.48125112932394,457.87513083381754 A140.96027241744395,140.96027241744395,0,0,0,362.71999999999997,468.0" stroke="grey" stroke-width="5" fill="none" />
<circle cx="346.71999999999997" cy="452.0" r="5" fill="black" stroke="none" />
<circle cx="362.71999999999997" cy="468.0" r="5" fill="black" stroke="none" />
<path d="M362.71999999999997,468.0 L397.46871120397,476.0999326815781" stroke="grey" stroke-width="5" />
<circle cx="397.46871120397" cy="476.0999326815781" r="2.5" fill="grey" stroke="none" />
<path d="M397.46871120397,476.0999326815781 A105.28000000000003,105.28000000000003,0,0,0,394.71999999999997,500.0" stroke="grey" stroke-width="5" fill="none" />
<circle cx="362.71999999999997" cy="468.0" r="5" fill="black" stroke="none" />
<circle cx="394.71999999999997" cy="500.0" r="5" fill="black" stroke="none" />
<path d="M362.71999999999997,468.0 A140.96027241744395,140.96027241744395,0,0,0,368.6115958882664,551.0576699916063" stroke="grey" stroke-width="5" fill="none" />
<path d="M368.6115958882664,551.0576699916063 L-185.28000000000003,72.0" stroke="grey" stroke-width="5" />
<circle cx="368.6115958882664" cy="551.0576699916063" r="2.5" fill="grey" stroke="none" />
<circle cx="362.71999999999997" cy="468.0" r="5" fill="black" stroke="none" />
<circle cx="314.71999999999997" cy="572.0" r="5" fill="black" stroke="none" />
<path d="M314.71999999999997,572.0 A198.77796256124574,198.77796256124574,0,0,0,346.32003895998366,626.0759611295471" stroke="grey" stroke-width="5" fill="none" />
<path d="M346.32003895998366,626.0759611295471 L-185.28000000000003,152.0" stroke="grey" stroke-width="5" />
<circle cx="346.32003895998366" cy="626.0759611295471" r="2.5" fill="grey" stroke="none" />
<circle cx="314.71999999999997" cy="572.0" r="5" fill="black" stroke="none" />
<circle cx="314.71999999999997" cy="652.0" r="5" fill="black" stroke="none" />
<path d="M210.71999999999997,668.0 L292.76196028307265,620.3539500568438" stroke="grey" stroke-width="5" />
<circle cx="292.76196028307265" cy="620.3539500568438" r="2.5" fill="grey" stroke="none" />
<path d="M292.76196028307265,620.3539500568438 A239.65115981359241,239.65115981359241,0,0,0,314.71999999999997,652.0" stroke="grey" stroke-width="5" fill="none" />
<circle cx="210.71999999999997" cy="668.0" r="5" fill="black" stroke="none" />
<circle cx="314.71999999999997" cy="652.0" r="5" fill="black" stroke="none" />
<path d="M314.71999999999997,652.0 A239.65115981359241,239.65115981359241,0,0,0,365.0824551670611,698.0654803246945" stroke="grey" stroke-width="5" fill="none" />
<path d="M365.0824551670611,698.0654803246945 L-185.28000000000003,272.0" stroke="grey" stroke-width="5" />
<circle cx="365.0824551670611" cy="698.0654803246945" r="2.5" fill="grey" stroke="none" />
<circle cx="314.71999999999997" cy="652.0" r="5" fill="black" stroke="none" />
<circle cx="314.71999999999997" cy="772.0" r="5" fill="black" stroke="none" />
<path d="M314.71999999999997,572.0 L381.1153548223343,546.1986963125644" stroke="grey" stroke-width="5" />
<circle cx="381.1153548223343" cy="546.1986963125644" r="2.5" fill="grey" stroke="none" />
<path d="M381.1153548223343,546.1986963125644 A127.54559341662889,127.54559341662889,0,0,0,394.71999999999997,572.0" stroke="grey" stroke-width="5" fill="none" />
<circle cx="314.71999999999997" cy="572.0" r="5" fill="black" stroke="none" />
<circle cx="394.71999999999997" cy="572.0" r="5" fill="black" stroke="none" />
<path d="M394.71999999999997,500.0 A105.28000000000003,105.28000000000003,0,0,0,413.0986959008892,559.4309830465043" stroke="grey" stroke-width="5" fill="none" />
<path d="M413.09869590088925,559.4309830465043 L-105.28000000000003,72.0" stroke="grey" stroke-width="5" />
<circle cx="413.09869590088925" cy="559.4309830465043" r="2.5" fill="grey" stroke="none" />
<circle cx="394.71999999999997" cy="500.0" r="5" fill="black" stroke="none" />
<circle cx="394.71999999999997" cy="572.0" r="5" fill="black" stroke="none" />
<path d="M394.71999999999997,572.0 L434.5274081419778,544.7760886567021" stroke="grey" stroke-width="5" />
<circle cx="434.5274081419778" cy="544.7760886567021" r="2.5" fill="grey" stroke="none" />
<path d="M434.5274081419778,544.7760886567021 A79.31934442492576,79.31934442492576,0,0,0,466.7199999999999,572.0" stroke="grey" stroke-width="5" fill="none" />
<circle cx="394.71999999999997" cy="572.0" r="5" fill="black" stroke="none" />
<circle cx="466.71999999999997" cy="572.0" r="5" fill="black" stroke="none" />
<path d="M394.71999999999997,500.0 L434.71999999999997,500.0" stroke="grey" stroke-width="5" />
<circle cx="434.71999999999997" cy="500.0" r="2.5" fill="grey" stroke="none" />
<path d="M434.71999999999997,500.0 A65.28000000000003,65.28000000000003,0,0,1,434.71999999999997,500.0" stroke="grey" stroke-width="5" fill="none" />
<circle cx="394.71999999999997" cy="500.0" r="5" fill="black" stroke="none" />
<circle cx="434.71999999999997" cy="500.0" r="5" fill="black" stroke="none" />
<path d="M466.71999999999997,572.0 L473.4035168972352,557.5404682511738" stroke="grey" stroke-width="5" />
<circle cx="473.4035168972352" cy="557.5404682511738" r="2.5" fill="grey" stroke="none" />
<path d="M473.40351689723514,557.5404682511738 A63.38989193869948,63.38989193869948,0,0,0,554.72,532.0" stroke="grey" stroke-width="5" fill="none" />
<circle cx="466.71999999999997" cy="572.0" r="5" fill="black" stroke="none" />
<circle cx="554.72" cy="532.0" r="5" fill="black" stroke="none" />
<path d="M434.71999999999997,500.0 L578.72,500.0" stroke="grey" stroke-width="5" />
<circle cx="434.71999999999997" cy="500.0" r="5" fill="black" stroke="none" />
<circle cx="578.72" cy="500.0" r="5" fill="black" stroke="none" />
<path d="M554.72,532.0 A63.38989193869948,63.38989193869948,0,0,0,563.3898919386995,500.0" stroke="grey" stroke-width="5" fill="none" />
<path d="M563.3898919386995,500.0 L78.71999999999997,0.0" stroke="grey" stroke-width="5" />
<circle cx="563.3898919386995" cy="500.0" r="2.5" fill="grey" stroke="none" />
<circle cx="554.72" cy="532.0" r="5" fill="black" stroke="none" />
<circle cx="578.72" cy="500.0" r="5" fill="black" stroke="none" />
<path d="M314.71999999999997,652.0 L372.1058943407311,604.9217619829926" stroke="grey" stroke-width="5" />
<circle cx="372.1058943407311" cy="604.9217619829926" r="2.5" fill="grey" stroke="none" />
<path d="M372.1058943407311,604.9217619829926 A165.42514440072284,165.42514440072284,0,0,0,434.71999999999997,652.0" stroke="grey" stroke-width="5" fill="none" />
<circle cx="314.71999999999997" cy="652.0" r="5" fill="black" stroke="none" />
<circle cx="434.71999999999997" cy="652.0" r="5" fill="black" stroke="none" />
<path d="M434.71999999999997,652.0 L474.79459285983717,558.6890607430263" stroke="grey" stroke-width="5" />
<circle cx="474.79459285983717" cy="558.6890607430263" r="2.5" fill="grey" stroke="none" />
<path d="M474.79459285983717,558.6890607430263 A63.87267334314416,63.87267334314416,0,0,0,530.72,556.0" stroke="grey" stroke-width="5" fill="none" />
<circle cx="434.71999999999997" cy="652.0" r="5" fill="black" stroke="none" />
<circle cx="530.72" cy="556.0" r="5" fill="black" stroke="none" />
<path d="M530.72,556.0 L530.4878029747579,555.5767241727357" stroke="grey" stroke-width="5" />
<circle cx="530.4878029747579" cy="555.5767241727357" r="2.5" fill="grey" stroke="none" />
<path d="M530.4878029747579,555.5767241727357 A63.38989193869948,63.38989193869948,0,0,0,554.72,532.0" stroke="grey" stroke-width="5" fill="none" />
<circle cx="530.72" cy="556.0" r="5" fill="black" stroke="none" />
<circle cx="554.72" cy="532.0" r="5" fill="black" stroke="none" />
<path d="M554.72,532.0 A63.38989193869948,63.38989193869948,0,0,1,544.3022722012415,545.3385826620893" stroke="grey" stroke-width="5" fill="none" />
<path d="M544.3022722012415,545.3385826620893 L54.71999999999997,56.0" stroke="grey" stroke-width="5" />
<circle cx="544.3022722012415" cy="545.3385826620893" r="2.5" fill="grey" stroke="none" />
<circle cx="554.72" cy="532.0" r="5" fill="black" stroke="none" />
<circle cx="554.72" cy="556.0" r="5" fill="black" stroke="none" />
<path d="M554.72,556.0 A78.29609441089637,78.29609441089637,0,0,1,517.9738930216176,576.2051019922383" stroke="grey" stroke-width="5" fill="none" />
<path d="M517.9738930216176,576.2051019922383 L54.71999999999997,232.0" stroke="grey" stroke-width="5" />
<circle cx="517.9738930216176" cy="576.2051019922383" r="2.5" fill="grey" stroke="none" />
<circle cx="554.72" cy="556.0" r="5" fill="black" stroke="none" />
<circle cx="554.72" cy="732.0" r="5" fill="black" stroke="none" />
<path d="M554.72,732.0 A238.36584990304294,238.36584990304294,0,0,0,629.8581528434747,699.8878148864526" stroke="grey" stroke-width="5" fill="none" />
<path d="M629.8581528434747,699.8878148864526 L150.71999999999997,232.0" stroke="grey" stroke-width="5" />
<circle cx="629.8581528434747" cy="699.8878148864526" r="2.5" fill="grey" stroke="none" />
<circle cx="554.72" cy="732.0" r="5" fill="black" stroke="none" />
<circle cx="650.72" cy="732.0" r="5" fill="black" stroke="none" />
<path d="M554.72,732.0 A238.36584990304294,238.36584990304294,0,0,1,545.7186276191309,733.9403460043249" stroke="grey" stroke-width="5" fill="none" />
<path d="M545.7186276191309,733.9403460043249 L54.71999999999997,280.0" stroke="grey" stroke-width="5" />
<circle cx="545.7186276191309" cy="733.9403460043249" r="2.5" fill="grey" stroke="none" />
<circle cx="554.72" cy="732.0" r="5" fill="black" stroke="none" />
<circle cx="554.72" cy="780.0" r="5" fill="black" stroke="none" />
<path d="M242.71999999999997,356.0 L362.0340899074349,422.78027420192257" stroke="grey" stroke-width="5" />
<circle cx="362.0340899074349" cy="422.78027420192257" r="2.5" fill="grey" stroke="none" />
<path d="M362.0340899074349,422.7802742019227 A158.10590880798858,158.10590880798858,0,0,1,434.72,356.0" stroke="grey" stroke-width="5" fill="none" />
<circle cx="242.71999999999997" cy="356.0" r="5" fill="black" stroke="none" />
<circle cx="434.71999999999997" cy="356.0" r="5" fill="black" stroke="none" />
<path d="M434.71999999999997,356.0 L473.046684768908,440.5441575784735" stroke="grey" stroke-width="5" />
<circle cx="473.046684768908" cy="440.5441575784735" r="2.5" fill="grey" stroke="none" />
<path d="M473.046684768908,440.5441575784735 A65.28000000000003,65.28000000000003,0,0,0,434.71999999999997,500.0" stroke="grey" stroke-width="5" fill="none" />
<circle cx="434.71999999999997" cy="356.0" r="5" fill="black" stroke="none" />
<circle cx="434.71999999999997" cy="500.0" r="5" fill="black" stroke="none" />
<path d="M434.72,356.0 A158.10590880798858,158.10590880798858,0,0,1,455.7636539660926,348.20861655031797" stroke="grey" stroke-width="5" fill="none" />
<path d="M455.76365396609265,348.20861655031797 L-65.28000000000003,-224.0" stroke="grey" stroke-width="5" />
<circle cx="455.76365396609265" cy="348.20861655031797" r="2.5" fill="grey" stroke="none" />
<circle cx="434.71999999999997" cy="356.0" r="5" fill="black" stroke="none" />
<circle cx="434.71999999999997" cy="276.0" r="5" fill="black" stroke="none" />
<path d="M434.7199999999999,276.0 A233.31840561773092,233.31840561773092,0,0,1,447.0241953938736,272.7753478903895" stroke="grey" stroke-width="5" fill="none" />
<path d="M447.02419539387364,272.77534789038947 L-65.28000000000003,-280.0" stroke="grey" stroke-width="5" />
<circle cx="447.02419539387364" cy="272.77534789038947" r="2.5" fill="grey" stroke="none" />
<circle cx="434.71999999999997" cy="276.0" r="5" fill="black" stroke="none" />
<circle cx="434.71999999999997" cy="220.0" r="5" fill="black" stroke="none" />
<path d="M434.71999999999997,276.0 L463.169990027488,373.62251480020393" stroke="grey" stroke-width="5" />
<circle cx="463.169990027488" cy="373.62251480020393" r="2.5" fill="grey" stroke="none" />
<path d="M463.169990027488,373.622514800204 A131.6347917535482,131.6347917535482,0,0,1,530.72,372.0" stroke="grey" stroke-width="5" fill="none" />
<circle cx="434.71999999999997" cy="276.0" r="5" fill="black" stroke="none" />
<circle cx="530.72" cy="372.0" r="5" fill="black" stroke="none" />
<path d="M434.71999999999997,356.0 L445.64960114104576,380.10941428171856" stroke="grey" stroke-width="5" />
<circle cx="445.64960114104576" cy="380.10941428171856" r="2.5" fill="grey" stroke="none" />
<path d="M445.64960114104576,380.10941428171856 A131.6347917535482,131.6347917535482,0,0,1,530.72,372.0" stroke="grey" stroke-width="5" fill="none" />
<circle cx="434.71999999999997" cy="356.0" r="5" fill="black" stroke="none" />
<circle cx="530.72" cy="372.0" r="5" fill="black" stroke="none" />
<path d="M530.72,372.0 L522.5453713797428,406.0609525844047" stroke="grey" stroke-width="5" />
<circle cx="522.5453713797428" cy="406.0609525844047" r="2.5" fill="grey" stroke="none" />
<path d="M522.5453713797428,406.0609525844047 A96.60661675061391,96.60661675061391,0,0,1,578.72,444.0" stroke="grey" stroke-width="5" fill="none" />
<circle cx="530.72" cy="372.0" r="5" fill="black" stroke="none" />
<circle cx="578.72" cy="444.0" r="5" fill="black" stroke="none" />
<path d="M530.72,556.0 A63.87267334314416,63.87267334314416,0,0,0,544.6396810930896,545.6838841595946" stroke="grey" stroke-width="5" fill="none" />
<path d="M544.6396810930896,545.6838841595946 L54.71999999999997,56.0" stroke="grey" stroke-width="5" />
<circle cx="544.6396810930896" cy="545.6838841595946" r="2.5" fill="grey" stroke="none" />
<circle cx="530.72" cy="556.0" r="5" fill="black" stroke="none" />
<circle cx="554.72" cy="556.0" r="5" fill="black" stroke="none" />
<path d="M554.72,556.0 A78.29609441089637,78.29609441089637,0,0,0,563.7996522322742,545.3859314660488" stroke="grey" stroke-width="5" fill="none" />
<path d="M563.7996522322742,545.3859314660488 L78.71999999999997,56.0" stroke="grey" stroke-width="5" />
<circle cx="563.7996522322742" cy="545.3859314660488" r="2.5" fill="grey" stroke="none" />
<circle cx="554.72" cy="556.0" r="5" fill="black" stroke="none" />
<circle cx="578.72" cy="556.0" r="5" fill="black" stroke="none" />
<path d="M578.72,556.0 L564.1450721330702,545.6316570052329" stroke="grey" stroke-width="5" />
<circle cx="564.1450721330702" cy="545.6316570052329" r="2.5" fill="grey" stroke="none" />
<path d="M564.1450721330702,545.6316570052329 A78.71999999999997,78.71999999999997,0,0,0,578.72,500.0" stroke="grey" stroke-width="5" fill="none" />
<circle cx="578.72" cy="556.0" r="5" fill="black" stroke="none" />
<circle cx="578.72" cy="500.0" r="5" fill="black" stroke="none" />
<path d="M578.72,500.0 A78.71999999999997,78.71999999999997,0,0,0,577.142689548776,484.32059155512684" stroke="grey" stroke-width="5" fill="none" />
<path d="M577.142689548776,484.32059155512684 L78.71999999999997,-16.0" stroke="grey" stroke-width="5" />
<circle cx="577.142689548776" cy="484.32059155512684" r="2.5" fill="grey" stroke="none" />
<circle cx="578.72" cy="500.0" r="5" fill="black" stroke="none" />
<circle cx="578.72" cy="484.0" r="5" fill="black" stroke="none" />
<path d="M578.72,484.0 A80.32956118391283,80.32956118391283,0,0,0,574.4160591050073,469.7495694695092" stroke="grey" stroke-width="5" fill="none" />
<path d="M574.4160591050073,469.7495694695092 L78.71999999999997,-32.0" stroke="grey" stroke-width="5" />
<circle cx="574.4160591050073" cy="469.7495694695092" r="2.5" fill="grey" stroke="none" />
<circle cx="578.72" cy="484.0" r="5" fill="black" stroke="none" />
<circle cx="578.72" cy="468.0" r="5" fill="black" stroke="none" />
<path d="M578.72,468.0 A84.97551647386437,84.97551647386437,0,0,0,569.2423860996053,450.7422050104434" stroke="grey" stroke-width="5" fill="none" />
<path d="M569.2423860996053,450.7422050104434 L78.71999999999997,-56.0" stroke="grey" stroke-width="5" />
<circle cx="569.2423860996053" cy="450.7422050104434" r="2.5" fill="grey" stroke="none" />
<circle cx="578.72" cy="468.0" r="5" fill="black" stroke="none" />
<circle cx="578.72" cy="444.0" r="5" fill="black" stroke="none" />
<path d="M578.72,444.0 A96.60661675061391,96.60661675061391,0,0,1,588.3628597164535,460.9507564384359" stroke="grey" stroke-width="5" fill="none" />
<path d="M588.3628597164535,460.9507564384359 L126.71999999999997,-56.0" stroke="grey" stroke-width="5" />
<circle cx="588.3628597164535" cy="460.9507564384359" r="2.5" fill="grey" stroke="none" />
<circle cx="578.72" cy="444.0" r="5" fill="black" stroke="none" />
<circle cx="626.72" cy="444.0" r="5" fill="black" stroke="none" />
<path d="M626.72,444.0 L616.8268225442744,448.37198498674746" stroke="grey" stroke-width="5" />
<circle cx="616.8268225442744" cy="448.37198498674746" r="2.5" fill="grey" stroke="none" />
<path d="M616.8268225442744,448.37198498674746 A127.72610696329859,127.72610696329859,0,0,1,626.72,484.0" stroke="grey" stroke-width="5" fill="none" />
<circle cx="626.72" cy="444.0" r="5" fill="black" stroke="none" />
<circle cx="626.72" cy="484.0" r="5" fill="black" stroke="none" />
<path d="M626.72,484.0 L579.6967999357439,489.9372727353859" stroke="grey" stroke-width="5" />
<circle cx="579.6967999357439" cy="489.9372727353859" r="2.5" fill="grey" stroke="none" />
<path d="M579.6967999357439,489.9372727353859 A80.32956118391283,80.32956118391283,0,0,0,578.72,484.0" stroke="grey" stroke-width="5" fill="none" />
<circle cx="626.72" cy="484.0" r="5" fill="black" stroke="none" />
<circle cx="578.72" cy="484.0" r="5" fill="black" stroke="none" />
<path d="M578.72,468.0 A84.97551647386437,84.97551647386437,0,0,1,583.2994119300865,483.20576372377286" stroke="grey" stroke-width="5" fill="none" />
<path d="M583.2994119300865,483.20576372377286 L158.71999999999997,-32.0" stroke="grey" stroke-width="5" />
<circle cx="583.2994119300865" cy="483.20576372377286" r="2.5" fill="grey" stroke="none" />
<circle cx="578.72" cy="468.0" r="5" fill="black" stroke="none" />
<circle cx="658.72" cy="468.0" r="5" fill="black" stroke="none" />
<circle cx="500" cy="500" r="5" fill="red" stroke="none" />
</svg>