<?xml version="1.0" encoding="UTF-8"?>
<svg xmlns="http://www.w3.org/2000/svg" xmlns:xlink="http://www.w3.org/1999/xlink"
     width="1000" height="1000" viewBox="0 0 1000 1000">
<defs>
</defs>
<rect x="0" y="0" width="1000" height="1000" fill="white" />
<path d="M160.92000000000002,268.0 L198.48370991901112,293.70125251035336" stroke="grey" stroke-width="5" />
<circle cx="198.48370991901112" cy="293.70125251035336" r="2.5" fill="grey" stroke="none" />
<path d="M198.48370991901112,293.70125251035336 A365.3371681063946,365.3371681063946,0,0,0,160.92000000000002,363.99999999999994" stroke="grey" stroke-width="5" fill="none" />
<circle cx="160.92000000000002" cy="268.0" r="5" fill="black" stroke="none" />
<circle cx="160.92000000000002" cy="364.0" r="5" fill="black" stroke="none" />
<path d="M160.92000000000002,364.0 L234.11251004250613,393.35643908747437" stroke="grey" stroke-width="5" />
<circle cx="234.11251004250613" cy="393.35643908747437" r="2.5" fill="grey" stroke="none" />
<path d="M234.11251004250613,393.35643908747437 A286.47688632767563,286.47688632767563,0,0,0,224.92000000000002,420.00000000000006" stroke="grey" stroke-width="5" fill="none" />
<circle cx="160.92000000000002" cy="364.0" r="5" fill="black" stroke="none" />
<circle cx="224.92000000000002" cy="420.0" r="5" fill="black" stroke="none" />
<path d="M136.92000000000002,420.0 L220.23373969899092,438.3571091107174" stroke="grey" stroke-width="5" />
<circle cx="220.23373969899092" cy="438.3571091107174" r="2.5" fill="grey" stroke="none" />
<path d="M220.23373969899092,438.35710911071726 A286.47688632767563,286.47688632767563,0,0,1,224.92000000000002,420.00000000000006" stroke="grey" stroke-width="5" fill="none" />
<circle cx="136.92000000000002" cy="420.0" r="5" fill="black" stroke="none" />
<circle cx="224.92000000000002" cy="420.0" r="5" fill="black" stroke="none" />
<path d="M224.92000000000002,420.0 L299.6261693500284,441.7263834084712" stroke="grey" stroke-width="5" />
<circle cx="299.6261693500284" cy="441.7263834084712" r="2.5" fill="grey" stroke="none" />
<path d="M299.62616935002836,441.7263834084713 A208.6755529524242,208.6755529524242,0,0,0,296.92,451.99999999999994" stroke="grey" stroke-width="5" fill="none" />
<circle cx="224.92000000000002" cy="420.0" r="5" fill="black" stroke="none" />
<circle cx="296.92" cy="452.0" r="5" fill="black" stroke="none" />
<path d="M296.92,452.0 L315.29226738991747,456.3424701335239" stroke="grey" stroke-width="5" />
<circle cx="315.29226738991747" cy="456.3424701335239" r="2.5" fill="grey" stroke="none" />
<path d="M315.29226738991747,456.3424701335239 A189.7970663629973,189.7970663629973,0,0,0,312.92,468.0" stroke="grey" stroke-width="5" fill="none" />
<circle cx="296.92" cy="452.0" r="5" fill="black" stroke="none" />
<circle cx="312.92" cy="468.0" r="5" fill="black" stroke="none" />
<path d="M312.92,468.0 L347.1400693595956,473.8533366447886" stroke="grey" stroke-width="5" />
<circle cx="347.1400693595956" cy="473.8533366447886" r="2.5" fill="grey" stroke="none" />
<path d="M347.1400693595956,473.8533366447886 A155.07999999999998,155.07999999999998,0,0,0,344.92,500.0" stroke="grey" stroke-width="5" fill="none" />
<circle cx="312.92" cy="468.0" r="5" fill="black" stroke="none" />
<circle cx="344.92" cy="500.0" r="5" fill="black" stroke="none" />
<path d="M312.92,468.0 A189.7970663629973,189.7970663629973,0,0,0,318.52399273644636,555.5822380592814" stroke="grey" stroke-width="5" fill="none" />
<path d="M318.52399273644636,555.5822380592814 L264.92,572.0" stroke="grey" stroke-width="5" />
<circle cx="318.52399273644636" cy="555.5822380592814" r="2.5" fill="grey" stroke="none" />
<circle cx="312.92" cy="468.0" r="5" fill="black" stroke="none" />
<circle cx="264.92" cy="572.0" r="5" fill="black" stroke="none" />
<path d="M264.9200000000001,572.0 A245.85891564065759,245.85891564065759,0,0,0,293.53990460534334,633.4947018035894" stroke="grey" stroke-width="5" fill="none" />
<path d="M293.5399046053434,633.4947018035895 L264.92,652.0" stroke="grey" stroke-width="5" />
<circle cx="293.5399046053434" cy="633.4947018035895" r="2.5" fill="grey" stroke="none" />
<circle cx="264.92" cy="572.0" r="5" fill="black" stroke="none" />
<circle cx="264.92" cy="652.0" r="5" fill="black" stroke="none" />
<path d="M160.92000000000002,668.0 L249.15969020851205,624.2809131914887" stroke="grey" stroke-width="5" />
<circle cx="249.15969020851205" cy="624.2809131914887" r="2.5" fill="grey" stroke="none" />
<path d="M249.159690208512,624.2809131914886 A279.94036222024147,279.94036222024147,0,0,0,264.91999999999996,652.0" stroke="grey" stroke-width="5" fill="none" />
<circle cx="160.92000000000002" cy="668.0" r="5" fill="black" stroke="none" />
<circle cx="264.92" cy="652.0" r="5" fill="black" stroke="none" />
<path d="M264.91999999999996,652.0 A279.94036222024147,279.94036222024147,0,0,0,316.9492014198821,711.799460667824" stroke="grey" stroke-width="5" fill="none" />
<path d="M316.9492014198821,711.799460667824 L264.92,772.0" stroke="grey" stroke-width="5" />
<circle cx="316.9492014198821" cy="711.799460667824" r="2.5" fill="grey" stroke="none" />
<circle cx="264.92" cy="652.0" r="5" fill="black" stroke="none" />
<circle cx="264.92" cy="772.0" r="5" fill="black" stroke="none" />
<path d="M264.92,572.0 L336.51707347019385,550.0713404379192" stroke="grey" stroke-width="5" />
<circle cx="336.51707347019385" cy="550.0713404379192" r="2.5" fill="grey" stroke="none" />
<path d="M336.51707347019385,550.0713404379192 A170.97896478806973,170.97896478806973,0,0,0,344.92,572.0" stroke="grey" stroke-width="5" fill="none" />
<circle cx="264.92" cy="572.0" r="5" fill="black" stroke="none" />
<circle cx="344.92" cy="572.0" r="5" fill="black" stroke="none" />
<path d="M344.92,500.0 A155.07999999999998,155.07999999999998,0,0,0,359.340554378663,565.3048754496792" stroke="grey" stroke-width="5" fill="none" />
<path d="M359.340554378663,565.3048754496792 L344.92,572.0" stroke="grey" stroke-width="5" />
<circle cx="359.340554378663" cy="565.3048754496792" r="2.5" fill="grey" stroke="none" />
<circle cx="344.92" cy="500.0" r="5" fill="black" stroke="none" />
<circle cx="344.92" cy="572.0" r="5" fill="black" stroke="none" />
<path d="M344.92,572.0 L400.2852167266387,546.2952308207507" stroke="grey" stroke-width="5" />
<circle cx="400.2852167266387" cy="546.2952308207507" r="2.5" fill="grey" stroke="none" />
<path d="M400.2852167266387,546.2952308207507 A109.93764778273182,109.93764778273182,0,0,0,416.92,572.0" stroke="grey" stroke-width="5" fill="none" />
<circle cx="344.92" cy="572.0" r="5" fill="black" stroke="none" />
<circle cx="416.92" cy="572.0" r="5" fill="black" stroke="none" />
<path d="M344.92,500.0 L384.92,500.0" stroke="grey" stroke-width="5" />
<circle cx="384.92" cy="500.0" r="2.5" fill="grey" stroke="none" />
<path d="M384.92,500.0 A115.07999999999998,115.07999999999998,0,0,1,384.92,500.0" stroke="grey" stroke-width="5" fill="none" />
<circle cx="344.92" cy="500.0" r="5" fill="black" stroke="none" />
<circle cx="384.92" cy="500.0" r="5" fill="black" stroke="none" />
<path d="M416.92,572.0 L475.53340963636185,521.2035929968939" stroke="grey" stroke-width="5" />
<circle cx="475.53340963636185" cy="521.2035929968939" r="2.5" fill="grey" stroke="none" />
<path d="M475.53340963636185,521.2035929968939 A32.37601581417949,32.37601581417949,0,0,0,504.92,532.0" stroke="grey" stroke-width="5" fill="none" />
<circle cx="416.92" cy="572.0" r="5" fill="black" stroke="none" />
<circle cx="504.92" cy="532.0" r="5" fill="black" stroke="none" />
<path d="M384.92,500.0 L528.9200000000001,500.0" stroke="grey" stroke-width="5" />
<circle cx="384.92" cy="500.0" r="5" fill="black" stroke="none" />
<circle cx="528.9200000000001" cy="500.0" r="5" fill="black" stroke="none" />
<path d="M504.92,532.0 L504.39480882442876,528.5841224353088" stroke="grey" stroke-width="5" />
<circle cx="504.39480882442876" cy="528.5841224353088" r="2.5" fill="grey" stroke="none" />
<path d="M504.39480882442876,528.5841224353088 A28.920000000000016,28.920000000000016,0,0,0,528.9200000000001,500.0" stroke="grey" stroke-width="5" fill="none" />
<circle cx="504.92" cy="532.0" r="5" fill="black" stroke="none" />
<circle cx="528.9200000000001" cy="500.0" r="5" fill="black" stroke="none" />
<path d="M264.92,652.0 L339.9016429123301,603.5177398218727" stroke="grey" stroke-width="5" />
<circle cx="339.9016429123301" cy="603.5177398218727" r="2.5" fill="grey" stroke="none" />
<path d="M339.9016429123301,603.5177398218726 A190.64995777602468,190.64995777602468,0,0,0,384.92,652.0" stroke="grey" stroke-width="5" fill="none" />
<circle cx="264.92" cy="652.0" r="5" fill="black" stroke="none" />
<circle cx="384.92" cy="652.0" r="5" fill="black" stroke="none" />
<path d="M384.92,652.0 L464.2891620723936,547.1675996263136" stroke="grey" stroke-width="5" />
<circle cx="464.2891620723936" cy="547.1675996263136" r="2.5" fill="grey" stroke="none" />
<path d="M464.2891620723936,547.1675996263136 A59.16118998127065,59.16118998127065,0,0,0,480.92,556.0" stroke="grey" stroke-width="5" fill="none" />
<circle cx="384.92" cy="652.0" r="5" fill="black" stroke="none" />
<circle cx="480.92" cy="556.0" r="5" fill="black" stroke="none" />
<path d="M480.92,556.0 L489.558452392014,530.6460516796236" stroke="grey" stroke-width="5" />
<circle cx="489.558452392014" cy="530.6460516796236" r="2.5" fill="grey" stroke="none" />
<path d="M489.558452392014,530.6460516796236 A32.37601581417949,32.37601581417949,0,0,0,504.92,532.0" stroke="grey" stroke-width="5" fill="none" />
<circle cx="480.92" cy="556.0" r="5" fill="black" stroke="none" />
<circle cx="504.92" cy="532.0" r="5" fill="black" stroke="none" />
<path d="M504.92,532.0 A32.37601581417949,32.37601581417949,0,0,1,502.8335493584474,532.2517813156613" stroke="grey" stroke-width="5" fill="none" />
<path d="M502.8335493584474,532.2517813156613 L504.92,556.0" stroke="grey" stroke-width="5" />
<circle cx="502.8335493584474" cy="532.2517813156613" r="2.5" fill="grey" stroke="none" />
<circle cx="504.92" cy="532.0" r="5" fill="black" stroke="none" />
<circle cx="504.92" cy="556.0" r="5" fill="black" stroke="none" />
<path d="M504.92,556.0 A56.2157131058568,56.2157131058568,0,0,1,501.1918928260973,556.2030763525547" stroke="grey" stroke-width="5" fill="none" />
<path d="M501.1918928260973,556.2030763525547 L504.92,732.0" stroke="grey" stroke-width="5" />
<circle cx="501.1918928260973" cy="556.2030763525547" r="2.5" fill="grey" stroke="none" />
<circle cx="504.92" cy="556.0" r="5" fill="black" stroke="none" />
<circle cx="504.92" cy="732.0" r="5" fill="black" stroke="none" />
<path d="M504.92,732.0 A232.05216310131652,232.05216310131652,0,0,0,592.5641596787717,712.7911716753373" stroke="grey" stroke-width="5" fill="none" />
<path d="M592.5641596787717,712.7911716753373 L600.9200000000001,732.0" stroke="grey" stroke-width="5" />
<circle cx="592.5641596787717" cy="712.7911716753373" r="2.5" fill="grey" stroke="none" />
<circle cx="504.92" cy="732.0" r="5" fill="black" stroke="none" />
<circle cx="600.9200000000001" cy="732.0" r="5" fill="black" stroke="none" />
<path d="M504.92,732.0 A232.05216310131652,232.05216310131652,0,0,1,504.07685868189435,732.0163477500839" stroke="grey" stroke-width="5" fill="none" />
<path d="M504.07685868189435,732.0163477500839 L504.92,780.0" stroke="grey" stroke-width="5" />
<circle cx="504.07685868189435" cy="732.0163477500839" r="2.5" fill="grey" stroke="none" />
<circle cx="504.92" cy="732.0" r="5" fill="black" stroke="none" />
<circle cx="504.92" cy="780.0" r="5" fill="black" stroke="none" />
<path d="M192.92000000000002,356.0 L333.10394297177265,421.7369017452627" stroke="grey" stroke-width="5" />
<circle cx="333.10394297177265" cy="421.7369017452627" r="2.5" fill="grey" stroke="none" />
<path d="M333.10394297177265,421.73690174526257 A184.33503844901543,184.33503844901543,0,0,1,384.9200000000001,355.99999999999994" stroke="grey" stroke-width="5" fill="none" />
<circle cx="192.92000000000002" cy="356.0" r="5" fill="black" stroke="none" />
<circle cx="384.92" cy="356.0" r="5" fill="black" stroke="none" />
<path d="M384.92,356.0 L428.15578355895184,410.1010847452995" stroke="grey" stroke-width="5" />
<circle cx="428.15578355895184" cy="410.1010847452995" r="2.5" fill="grey" stroke="none" />
<path d="M428.1557835589519,410.10108474529943 A115.07999999999998,115.07999999999998,0,0,0,384.92,500.0" stroke="grey" stroke-width="5" fill="none" />
<circle cx="384.92" cy="356.0" r="5" fill="black" stroke="none" />
<circle cx="384.92" cy="500.0" r="5" fill="black" stroke="none" />
<path d="M384.9200000000001,355.99999999999994 A184.33503844901543,184.33503844901543,0,0,1,415.764208547846,336.03738890091677" stroke="grey" stroke-width="5" fill="none" />
<path d="M415.764208547846,336.03738890091677 L384.92,276.0" stroke="grey" stroke-width="5" />
<circle cx="415.764208547846" cy="336.03738890091677" r="2.5" fill="grey" stroke="none" />
<circle cx="384.92" cy="356.0" r="5" fill="black" stroke="none" />
<circle cx="384.92" cy="276.0" r="5" fill="black" stroke="none" />
<path d="M384.92,276.0 A251.83209962195048,251.83209962195048,0,0,1,404.26729557695535,267.07371186607133" stroke="grey" stroke-width="5" fill="none" />
<path d="M404.26729557695535,267.07371186607133 L384.92,220.0" stroke="grey" stroke-width="5" />
<circle cx="404.26729557695535" cy="267.07371186607133" r="2.5" fill="grey" stroke="none" />
<circle cx="384.92" cy="276.0" r="5" fill="black" stroke="none" />
<circle cx="384.92" cy="220.0" r="5" fill="black" stroke="none" />
<path d="M384.92,276.0 L440.86142650145155,384.88842141401767" stroke="grey" stroke-width="5" />
<circle cx="440.86142650145155" cy="384.88842141401767" r="2.5" fill="grey" stroke="none" />
<path d="M440.86142650145155,384.88842141401767 A129.414243420112,129.414243420112,0,0,1,480.92,372.0" stroke="grey" stroke-width="5" fill="none" />
<circle cx="384.92" cy="276.0" r="5" fill="black" stroke="none" />
<circle cx="480.92" cy="372.0" r="5" fill="black" stroke="none" />
<path d="M384.92,356.0 L419.20694373627896,398.90337068147517" stroke="grey" stroke-width="5" />
<circle cx="419.20694373627896" cy="398.90337068147517" r="2.5" fill="grey" stroke="none" />
<path d="M419.206943736279,398.90337068147517 A129.414243420112,129.414243420112,0,0,1,480.92,372.0" stroke="grey" stroke-width="5" fill="none" />
<circle cx="384.92" cy="356.0" r="5" fill="black" stroke="none" />
<circle cx="480.92" cy="372.0" r="5" fill="black" stroke="none" />
<path d="M480.92,372.0 L490.7077487816257,437.6620463337573" stroke="grey" stroke-width="5" />
<circle cx="490.7077487816257" cy="437.6620463337573" r="2.5" fill="grey" stroke="none" />
<path d="M490.7077487816257,437.6620463337573 A63.02671179745934,63.02671179745934,0,0,1,528.92,444.0" stroke="grey" stroke-width="5" fill="none" />
<circle cx="480.92" cy="372.0" r="5" fill="black" stroke="none" />
<circle cx="528.9200000000001" cy="444.0" r="5" fill="black" stroke="none" />
<path d="M480.92,556.0 L481.86994199407906,553.2119102899148" stroke="grey" stroke-width="5" />
<circle cx="481.86994199407906" cy="553.2119102899148" r="2.5" fill="grey" stroke="none" />
<path d="M481.86994199407906,553.2119102899148 A56.2157131058568,56.2157131058568,0,0,0,504.92,556.0" stroke="grey" stroke-width="5" fill="none" />
<circle cx="480.92" cy="556.0" r="5" fill="black" stroke="none" />
<circle cx="504.92" cy="556.0" r="5" fill="black" stroke="none" />
<path d="M504.92,556.0 A56.2157131058568,56.2157131058568,0,0,0,525.7947523622344,549.9483448231371" stroke="grey" stroke-width="5" fill="none" />
<path d="M525.7947523622344,549.9483448231371 L528.9200000000001,556.0" stroke="grey" stroke-width="5" />
<circle cx="525.7947523622344" cy="549.9483448231371" r="2.5" fill="grey" stroke="none" />
<circle cx="504.92" cy="556.0" r="5" fill="black" stroke="none" />
<circle cx="528.9200000000001" cy="556.0" r="5" fill="black" stroke="none" />
<path d="M528.9200000000001,556.0 L513.2700306925058,525.6957717420582" stroke="grey" stroke-width="5" />
<circle cx="513.2700306925058" cy="525.6957717420582" r="2.5" fill="grey" stroke="none" />
<path d="M513.2700306925058,525.6957717420582 A28.920000000000016,28.920000000000016,0,0,0,528.9200000000001,500.0" stroke="grey" stroke-width="5" fill="none" />
<circle cx="528.9200000000001" cy="556.0" r="5" fill="black" stroke="none" />
<circle cx="528.9200000000001" cy="500.0" r="5" fill="black" stroke="none" />
<path d="M528.9200000000001,500.0 A28.920000000000016,28.920000000000016,0,0,0,525.3053536229899,485.99980435795857" stroke="grey" stroke-width="5" fill="none" />
<path d="M525.3053536229899,485.99980435795857 L528.9200000000001,484.0" stroke="grey" stroke-width="5" />
<circle cx="525.3053536229899" cy="485.99980435795857" r="2.5" fill="grey" stroke="none" />
<circle cx="528.9200000000001" cy="500.0" r="5" fill="black" stroke="none" />
<circle cx="528.9200000000001" cy="484.0" r="5" fill="black" stroke="none" />
<path d="M528.92,484.0 A33.05096670295743,33.05096670295743,0,0,0,522.1606865876075,475.4791849653028" stroke="grey" stroke-width="5" fill="none" />
<path d="M522.1606865876075,475.4791849653028 L528.9200000000001,468.0" stroke="grey" stroke-width="5" />
<circle cx="522.1606865876075" cy="475.4791849653028" r="2.5" fill="grey" stroke="none" />
<circle cx="528.9200000000001" cy="484.0" r="5" fill="black" stroke="none" />
<circle cx="528.9200000000001" cy="468.0" r="5" fill="black" stroke="none" />
<path d="M528.92,468.0 A43.13196494480631,43.13196494480631,0,0,0,519.7912343930035,461.6767245502006" stroke="grey" stroke-width="5" fill="none" />
<path d="M519.7912343930035,461.6767245502006 L528.9200000000001,444.0" stroke="grey" stroke-width="5" />
<circle cx="519.7912343930035" cy="461.6767245502006" r="2.5" fill="grey" stroke="none" />
<circle cx="528.9200000000001" cy="468.0" r="5" fill="black" stroke="none" />
<circle cx="528.9200000000001" cy="444.0" r="5" fill="black" stroke="none" />
<path d="M528.92,444.0 A63.02671179745934,63.02671179745934,0,0,1,550.9536368467826,462.90426854628413" stroke="grey" stroke-width="5" fill="none" />
<path d="M550.9536368467826,462.90426854628413 L576.9200000000001,444.0" stroke="grey" stroke-width="5" />
<circle cx="550.9536368467826" cy="462.90426854628413" r="2.5" fill="grey" stroke="none" />
<circle cx="528.9200000000001" cy="444.0" r="5" fill="black" stroke="none" />
<circle cx="576.9200000000001" cy="444.0" r="5" fill="black" stroke="none" />
<path d="M576.9200000000001,444.0 L563.5166587568464,453.75802274592564" stroke="grey" stroke-width="5" />
<circle cx="563.5166587568464" cy="453.75802274592564" r="2.5" fill="grey" stroke="none" />
<path d="M563.5166587568464,453.75802274592564 A78.56644576407922,78.56644576407922,0,0,1,576.9200000000001,484.0" stroke="grey" stroke-width="5" fill="none" />
<circle cx="576.9200000000001" cy="444.0" r="5" fill="black" stroke="none" />
<circle cx="576.9200000000001" cy="484.0" r="5" fill="black" stroke="none" />
<path d="M576.9200000000001,484.0 L532.3583475625904,493.2691944747602" stroke="grey" stroke-width="5" />
<circle cx="532.3583475625904" cy="493.2691944747602" r="2.5" fill="grey" stroke="none" />
<path d="M532.3583475625904,493.2691944747602 A33.05096670295743,33.05096670295743,0,0,0,528.92,484.0" stroke="grey" stroke-width="5" fill="none" />
<circle cx="576.9200000000001" cy="484.0" r="5" fill="black" stroke="none" />
<circle cx="528.9200000000001" cy="484.0" r="5" fill="black" stroke="none" />
<path d="M528.92,468.0 A43.13196494480631,43.13196494480631,0,0,1,541.3829473321421,487.841954511306" stroke="grey" stroke-width="5" fill="none" />
<path d="M541.3829473321421,487.841954511306 L608.9200000000001,468.0" stroke="grey" stroke-width="5" />
<circle cx="541.3829473321421" cy="487.841954511306" r="2.5" fill="grey" stroke="none" />
<circle cx="528.9200000000001" cy="468.0" r="5" fill="black" stroke="none" />
<circle cx="608.9200000000001" cy="468.0" r="5" fill="black" stroke="none" />
<circle cx="500" cy="500" r="5" fill="red" stroke="none" />
</svg>