<?xml version="1.0" encoding="UTF-8"?>
<svg xmlns="http://www.w3.org/2000/svg" xmlns:xlink="http://www.w3.org/1999/xlink"
     width="1000" height="1000" viewBox="0 0 1000 1000">
<defs>
</defs>
<rect x="0" y="0" width="1000" height="1000" fill="white" />
<path d="M134.56800000000004,264.57599999999996 L171.19937092427682,288.1752027750086" stroke="grey" stroke-width="5" />
<circle cx="171.19937092427682" cy="288.1752027750086" r="2.5" fill="grey" stroke="none" />
<path d="M171.19937092427682,288.1752027750086 A391.12606458787684,391.12606458787684,0,0,0,134.56800000000004,360.5759999999999" stroke="grey" stroke-width="5" fill="none" />
<circle cx="134.56800000000004" cy="264.57599999999996" r="5" fill="black" stroke="none" />
<circle cx="134.56800000000004" cy="360.57599999999996" r="5" fill="black" stroke="none" />
<path d="M134.56800000000004,360.57599999999996 L207.78301626279398,388.5098712193343" stroke="grey" stroke-width="5" />
<circle cx="207.78301626279398" cy="388.5098712193343" r="2.5" fill="grey" stroke="none" />
<path d="M207.78301626279398,388.5098712193343 A312.7631922077788,312.7631922077788,0,0,0,198.56800000000004,416.576" stroke="grey" stroke-width="5" fill="none" />
<circle cx="134.56800000000004" cy="360.57599999999996" r="5" fill="black" stroke="none" />
<circle cx="198.56800000000004" cy="416.57599999999996" r="5" fill="black" stroke="none" />
<path d="M110.56800000000004,416.57599999999996 L194.17525899259317,434.4863206059032" stroke="grey" stroke-width="5" />
<circle cx="194.17525899259317" cy="434.4863206059032" r="2.5" fill="grey" stroke="none" />
<path d="M194.17525899259317,434.4863206059032 A312.7631922077788,312.7631922077788,0,0,1,198.56800000000004,416.576" stroke="grey" stroke-width="5" fill="none" />
<circle cx="110.56800000000004" cy="416.57599999999996" r="5" fill="black" stroke="none" />
<circle cx="198.56800000000004" cy="416.57599999999996" r="5" fill="black" stroke="none" />
<path d="M198.56800000000004,416.57599999999996 L273.39401974021365,437.2847697086162" stroke="grey" stroke-width="5" />
<circle cx="273.39401974021365" cy="437.2847697086162" r="2.5" fill="grey" stroke="none" />
<path d="M273.39401974021365,437.2847697086162 A235.12437219480245,235.12437219480245,0,0,0,270.56800000000004,448.5759999999999" stroke="grey" stroke-width="5" fill="none" />
<circle cx="198.56800000000004" cy="416.57599999999996" r="5" fill="black" stroke="none" />
<circle cx="270.56800000000004" cy="448.57599999999996" r="5" fill="black" stroke="none" />
<path d="M270.56800000000004,448.57599999999996 L288.8861391166329,452.68175676424266" stroke="grey" stroke-width="5" />
<circle cx="288.8861391166329" cy="452.68175676424266" r="2.5" fill="grey" stroke="none" />
<path d="M288.8861391166329,452.68175676424255 A216.35174693077934,216.35174693077934,0,0,0,286.56800000000004,464.57599999999996" stroke="grey" stroke-width="5" fill="none" />
<circle cx="270.56800000000004" cy="448.57599999999996" r="5" fill="black" stroke="none" />
<circle cx="286.56800000000004" cy="464.57599999999996" r="5" fill="black" stroke="none" />
<path d="M286.56800000000004,464.57599999999996 L320.98462186776214,470.2882381509971" stroke="grey" stroke-width="5" />
<circle cx="320.98462186776214" cy="470.2882381509971" r="2.5" fill="grey" stroke="none" />
<path d="M320.98462186776214,470.2882381509971 A181.46430613208753,181.46430613208753,0,0,0,318.5680000000001,496.57599999999996" stroke="grey" stroke-width="5" fill="none" />
<circle cx="286.56800000000004" cy="464.57599999999996" r="5" fill="black" stroke="none" />
<circle cx="318.56800000000004" cy="496.57599999999996" r="5" fill="black" stroke="none" />
<path d="M286.56800000000004,464.57599999999996 A216.35174693077934,216.35174693077934,0,0,0,290.72808489131626,554.8939336060356" stroke="grey" stroke-width="5" fill="none" />
<path d="M290.72808489131626,554.8939336060356 L238.56800000000004,568.576" stroke="grey" stroke-width="5" />
<circle cx="290.72808489131626" cy="554.8939336060356" r="2.5" fill="grey" stroke="none" />
<circle cx="286.56800000000004" cy="464.57599999999996" r="5" fill="black" stroke="none" />
<circle cx="238.56800000000004" cy="568.576" r="5" fill="black" stroke="none" />
<path d="M238.5680000000001,568.576 A270.27644810452864,270.27644810452864,0,0,0,265.0199183115343,633.5429504304961" stroke="grey" stroke-width="5" fill="none" />
<path d="M265.0199183115343,633.5429504304961 L238.56800000000004,648.576" stroke="grey" stroke-width="5" />
<circle cx="265.0199183115343" cy="633.5429504304961" r="2.5" fill="grey" stroke="none" />
<circle cx="238.56800000000004" cy="568.576" r="5" fill="black" stroke="none" />
<circle cx="238.56800000000004" cy="648.576" r="5" fill="black" stroke="none" />
<path d="M134.56800000000004,664.576 L225.82060605122376,623.4794652315993" stroke="grey" stroke-width="5" />
<circle cx="225.82060605122376" cy="623.4794652315993" r="2.5" fill="grey" stroke="none" />
<path d="M225.8206060512237,623.4794652315991 A300.7017100051145,300.7017100051145,0,0,0,238.56800000000004,648.576" stroke="grey" stroke-width="5" fill="none" />
<circle cx="134.56800000000004" cy="664.576" r="5" fill="black" stroke="none" />
<circle cx="238.56800000000004" cy="648.576" r="5" fill="black" stroke="none" />
<path d="M238.56800000000004,648.576 A300.7017100051145,300.7017100051145,0,0,0,290.2568590689249,715.474669584077" stroke="grey" stroke-width="5" fill="none" />
<path d="M290.2568590689249,715.474669584077 L238.56800000000004,768.576" stroke="grey" stroke-width="5" />
<circle cx="290.2568590689249" cy="715.474669584077" r="2.5" fill="grey" stroke="none" />
<circle cx="238.56800000000004" cy="648.576" r="5" fill="black" stroke="none" />
<circle cx="238.56800000000004" cy="768.576" r="5" fill="black" stroke="none" />
<path d="M238.56800000000004,568.576 L312.38769720817606,549.2124195823469" stroke="grey" stroke-width="5" />
<circle cx="312.38769720817606" cy="549.2124195823469" r="2.5" fill="grey" stroke="none" />
<path d="M312.38769720817606,549.2124195823469 A193.9593730655984,193.9593730655984,0,0,0,318.56800000000004,568.576" stroke="grey" stroke-width="5" fill="none" />
<circle cx="238.56800000000004" cy="568.576" r="5" fill="black" stroke="none" />
<circle cx="318.56800000000004" cy="568.576" r="5" fill="black" stroke="none" />
<path d="M318.5680000000001,496.57599999999996 A181.46430613208753,181.46430613208753,0,0,0,330.256040376961,564.1582619114022" stroke="grey" stroke-width="5" fill="none" />
<path d="M330.256040376961,564.1582619114022 L318.56800000000004,568.576" stroke="grey" stroke-width="5" />
<circle cx="330.256040376961" cy="564.1582619114022" r="2.5" fill="grey" stroke="none" />
<circle cx="318.56800000000004" cy="496.57599999999996" r="5" fill="black" stroke="none" />
<circle cx="318.56800000000004" cy="568.576" r="5" fill="black" stroke="none" />
<path d="M318.56800000000004,568.576 L379.19761826996273,545.6597740724847" stroke="grey" stroke-width="5" />
<circle cx="379.19761826996273" cy="545.6597740724847" r="2.5" fill="grey" stroke="none" />
<path d="M379.19761826996273,545.6597740724847 A129.14344892405492,129.14344892405492,0,0,0,390.56800000000004,568.5759999999999" stroke="grey" stroke-width="5" fill="none" />
<circle cx="318.56800000000004" cy="568.576" r="5" fill="black" stroke="none" />
<circle cx="390.56800000000004" cy="568.576" r="5" fill="black" stroke="none" />
<path d="M318.56800000000004,496.57599999999996 L358.5517459321593,497.3305766241441" stroke="grey" stroke-width="5" />
<circle cx="358.5517459321593" cy="497.3305766241441" r="2.5" fill="grey" stroke="none" />
<path d="M358.5517459321593,497.3305766241441 A141.47344061695816,141.47344061695816,0,0,1,358.5680000000001,496.57599999999996" stroke="grey" stroke-width="5" fill="none" />
<circle cx="318.56800000000004" cy="496.57599999999996" r="5" fill="black" stroke="none" />
<circle cx="358.56800000000004" cy="496.57599999999996" r="5" fill="black" stroke="none" />
<path d="M390.56800000000004,568.576 L469.732022239094,518.9675491897424" stroke="grey" stroke-width="5" />
<circle cx="469.732022239094" cy="518.9675491897424" r="2.5" fill="grey" stroke="none" />
<path d="M469.732022239094,518.9675491897424 A35.71999999999995,35.71999999999995,0,0,0,478.56800000000004,528.576" stroke="grey" stroke-width="5" fill="none" />
<circle cx="390.56800000000004" cy="568.576" r="5" fill="black" stroke="none" />
<circle cx="478.56800000000004" cy="528.576" r="5" fill="black" stroke="none" />
<path d="M358.56800000000004,496.57599999999996 L495.72125370415677,499.89641363116573" stroke="grey" stroke-width="5" />
<circle cx="495.72125370415677" cy="499.89641363116573" r="2.5" fill="grey" stroke="none" />
<path d="M495.72125370415677,499.89641363116573 A4.280000000000053,4.280000000000053,0,0,1,502.56800000000004,496.57599999999996" stroke="grey" stroke-width="5" fill="none" />
<circle cx="358.56800000000004" cy="496.57599999999996" r="5" fill="black" stroke="none" />
<circle cx="502.56800000000004" cy="496.57599999999996" r="5" fill="black" stroke="none" />
<path d="M478.56800000000004,528.576 L502.56800000000004,496.57599999999996" stroke="grey" stroke-width="5" />
<circle cx="478.56800000000004" cy="528.576" r="5" fill="black" stroke="none" />
<circle cx="502.56800000000004" cy="496.57599999999996" r="5" fill="black" stroke="none" />
<path d="M238.56800000000004,648.576 L321.6596731647792,601.3536690224217" stroke="grey" stroke-width="5" />
<circle cx="321.6596731647792" cy="601.3536690224217" r="2.5" fill="grey" stroke="none" />
<path d="M321.6596731647792,601.3536690224217 A205.12883366313957,205.12883366313957,0,0,0,358.568,648.5759999999999" stroke="grey" stroke-width="5" fill="none" />
<circle cx="238.56800000000004" cy="648.576" r="5" fill="black" stroke="none" />
<circle cx="358.56800000000004" cy="648.576" r="5" fill="black" stroke="none" />
<path d="M358.56800000000004,648.576 L452.0908789431973,550.3291021136342" stroke="grey" stroke-width="5" />
<circle cx="452.0908789431973" cy="550.3291021136342" r="2.5" fill="grey" stroke="none" />
<path d="M452.0908789431973,550.3291021136342 A69.48598707653215,69.48598707653215,0,0,0,454.5680000000001,552.576" stroke="grey" stroke-width="5" fill="none" />
<circle cx="358.56800000000004" cy="648.576" r="5" fill="black" stroke="none" />
<circle cx="454.56800000000004" cy="552.576" r="5" fill="black" stroke="none" />
<path d="M454.56800000000004,552.576 L476.6452041875349,527.0272438949676" stroke="grey" stroke-width="5" />
<circle cx="476.6452041875349" cy="527.0272438949676" r="2.5" fill="grey" stroke="none" />
<path d="M476.64520418753494,527.0272438949676 A35.71999999999995,35.71999999999995,0,0,0,478.56800000000004,528.576" stroke="grey" stroke-width="5" fill="none" />
<circle cx="454.56800000000004" cy="552.576" r="5" fill="black" stroke="none" />
<circle cx="478.56800000000004" cy="528.576" r="5" fill="black" stroke="none" />
<path d="M478.56800000000004,528.576 A35.71999999999995,35.71999999999995,0,0,0,486.51640061386263,533.0773479528536" stroke="grey" stroke-width="5" fill="none" />
<path d="M486.51640061386263,533.0773479528536 L478.56800000000004,552.576" stroke="grey" stroke-width="5" />
<circle cx="486.51640061386263" cy="533.0773479528536" r="2.5" fill="grey" stroke="none" />
<circle cx="478.56800000000004" cy="528.576" r="5" fill="black" stroke="none" />
<circle cx="478.56800000000004" cy="552.576" r="5" fill="black" stroke="none" />
<path d="M478.56800000000004,552.5759999999999 A56.77645991077635,56.77645991077635,0,0,0,494.69970953732246,556.528517767683" stroke="grey" stroke-width="5" fill="none" />
<path d="M494.69970953732246,556.528517767683 L478.56800000000004,728.576" stroke="grey" stroke-width="5" />
<circle cx="494.69970953732246" cy="556.528517767683" r="2.5" fill="grey" stroke="none" />
<circle cx="478.56800000000004" cy="552.576" r="5" fill="black" stroke="none" />
<circle cx="478.56800000000004" cy="728.576" r="5" fill="black" stroke="none" />
<path d="M478.56800000000004,728.576 A229.5785669438678,229.5785669438678,0,0,0,571.2020033991552,718.2580883081923" stroke="grey" stroke-width="5" fill="none" />
<path d="M571.2020033991552,718.2580883081923 L574.568,728.576" stroke="grey" stroke-width="5" />
<circle cx="571.2020033991552" cy="718.2580883081923" r="2.5" fill="grey" stroke="none" />
<circle cx="478.56800000000004" cy="728.576" r="5" fill="black" stroke="none" />
<circle cx="574.568" cy="728.576" r="5" fill="black" stroke="none" />
<path d="M478.56800000000004,728.576 A229.5785669438678,229.5785669438678,0,0,0,482.26302598296144,728.892372421448" stroke="grey" stroke-width="5" fill="none" />
<path d="M482.2630259829614,728.892372421448 L478.56800000000004,776.576" stroke="grey" stroke-width="5" />
<circle cx="482.2630259829614" cy="728.892372421448" r="2.5" fill="grey" stroke="none" />
<circle cx="478.56800000000004" cy="728.576" r="5" fill="black" stroke="none" />
<circle cx="478.56800000000004" cy="776.576" r="5" fill="black" stroke="none" />
<path d="M166.56800000000004,352.57599999999996 L313.1525977973314,417.3870791575907" stroke="grey" stroke-width="5" />
<circle cx="313.1525977973314" cy="417.3870791575907" r="2.5" fill="grey" stroke="none" />
<path d="M313.1525977973314,417.3870791575906 A204.29597744449106,204.29597744449106,0,0,1,358.568,352.576" stroke="grey" stroke-width="5" fill="none" />
<circle cx="166.56800000000004" cy="352.57599999999996" r="5" fill="black" stroke="none" />
<circle cx="358.56800000000004" cy="352.57599999999996" r="5" fill="black" stroke="none" />
<path d="M358.56800000000004,352.57599999999996 L402.0593948856668,397.9099795776383" stroke="grey" stroke-width="5" />
<circle cx="402.0593948856668" cy="397.9099795776383" r="2.5" fill="grey" stroke="none" />
<path d="M402.0593948856668,397.9099795776383 A141.47344061695816,141.47344061695816,0,0,0,358.5680000000001,496.57599999999996" stroke="grey" stroke-width="5" fill="none" />
<circle cx="358.56800000000004" cy="352.57599999999996" r="5" fill="black" stroke="none" />
<circle cx="358.56800000000004" cy="496.57599999999996" r="5" fill="black" stroke="none" />
<path d="M358.568,352.576 A204.29597744449106,204.29597744449106,0,0,1,392.1119933007461,326.51505998945686" stroke="grey" stroke-width="5" fill="none" />
<path d="M392.1119933007461,326.51505998945686 L358.56800000000004,272.57599999999996" stroke="grey" stroke-width="5" />
<circle cx="392.1119933007461" cy="326.51505998945686" r="2.5" fill="grey" stroke="none" />
<circle cx="358.56800000000004" cy="352.57599999999996" r="5" fill="black" stroke="none" />
<circle cx="358.56800000000004" cy="272.57599999999996" r="5" fill="black" stroke="none" />
<path d="M358.56800000000004,272.576 A267.81464933793296,267.81464933793296,0,0,1,380.4190774414548,260.3646742234209" stroke="grey" stroke-width="5" fill="none" />
<path d="M380.4190774414548,260.3646742234209 L358.56800000000004,216.57599999999996" stroke="grey" stroke-width="5" />
<circle cx="380.4190774414548" cy="260.3646742234209" r="2.5" fill="grey" stroke="none" />
<circle cx="358.56800000000004" cy="272.57599999999996" r="5" fill="black" stroke="none" />
<circle cx="358.56800000000004" cy="216.57599999999996" r="5" fill="black" stroke="none" />
<path d="M358.56800000000004,272.57599999999996 L426.5654517042345,381.91654850658847" stroke="grey" stroke-width="5" />
<circle cx="426.5654517042345" cy="381.91654850658847" r="2.5" fill="grey" stroke="none" />
<path d="M426.5654517042345,381.91654850658847 A139.05514877198902,139.05514877198902,0,0,1,454.56800000000004,368.57599999999996" stroke="grey" stroke-width="5" fill="none" />
<circle cx="358.56800000000004" cy="272.57599999999996" r="5" fill="black" stroke="none" />
<circle cx="454.56800000000004" cy="368.57599999999996" r="5" fill="black" stroke="none" />
<path d="M358.56800000000004,352.57599999999996 L403.7335534104503,399.65506659017916" stroke="grey" stroke-width="5" />
<circle cx="403.7335534104503" cy="399.65506659017916" r="2.5" fill="grey" stroke="none" />
<path d="M403.7335534104503,399.65506659017916 A139.05514877198902,139.05514877198902,0,0,1,454.56800000000004,368.57599999999996" stroke="grey" stroke-width="5" fill="none" />
<circle cx="358.56800000000004" cy="352.57599999999996" r="5" fill="black" stroke="none" />
<circle cx="454.56800000000004" cy="368.57599999999996" r="5" fill="black" stroke="none" />
<path d="M454.56800000000004,368.57599999999996 L480.5669121818155,443.7846862692137" stroke="grey" stroke-width="5" />
<circle cx="480.5669121818155" cy="443.7846862692137" r="2.5" fill="grey" stroke="none" />
<path d="M480.5669121818155,443.7846862692137 A59.4794620016019,59.4794620016019,0,0,1,502.56800000000004,440.57599999999996" stroke="grey" stroke-width="5" fill="none" />
<circle cx="454.56800000000004" cy="368.57599999999996" r="5" fill="black" stroke="none" />
<circle cx="502.56800000000004" cy="440.57599999999996" r="5" fill="black" stroke="none" />
<path d="M454.56800000000004,552.576 L462.8778659526654,542.9594409154928" stroke="grey" stroke-width="5" />
<circle cx="462.8778659526654" cy="542.9594409154928" r="2.5" fill="grey" stroke="none" />
<path d="M462.8778659526654,542.9594409154928 A56.77645991077635,56.77645991077635,0,0,0,478.56800000000004,552.5759999999999" stroke="grey" stroke-width="5" fill="none" />
<circle cx="454.56800000000004" cy="552.576" r="5" fill="black" stroke="none" />
<circle cx="478.56800000000004" cy="552.576" r="5" fill="black" stroke="none" />
<path d="M478.56800000000004,552.576 L480.1299315900616,548.74434101908" stroke="grey" stroke-width="5" />
<circle cx="480.1299315900616" cy="548.74434101908" r="2.5" fill="grey" stroke="none" />
<path d="M480.1299315900616,548.74434101908 A52.63867779494463,52.63867779494463,0,0,0,502.56800000000004,552.576" stroke="grey" stroke-width="5" fill="none" />
<circle cx="478.56800000000004" cy="552.576" r="5" fill="black" stroke="none" />
<circle cx="502.56800000000004" cy="552.576" r="5" fill="black" stroke="none" />
<path d="M502.56800000000004,552.576 L500.20880159723646,504.2749037290905" stroke="grey" stroke-width="5" />
<circle cx="500.20880159723646" cy="504.2749037290905" r="2.5" fill="grey" stroke="none" />
<path d="M500.20880159723646,504.2749037290905 A4.280000000000053,4.280000000000053,0,0,0,502.56800000000004,496.57599999999996" stroke="grey" stroke-width="5" fill="none" />
<circle cx="502.56800000000004" cy="552.576" r="5" fill="black" stroke="none" />
<circle cx="502.56800000000004" cy="496.57599999999996" r="5" fill="black" stroke="none" />
<path d="M502.56800000000004,496.57599999999996 A4.280000000000053,4.280000000000053,0,0,0,500.5609671438302,495.75692141676075" stroke="grey" stroke-width="5" fill="none" />
<path d="M500.5609671438302,495.75692141676075 L502.56800000000004,480.57599999999996" stroke="grey" stroke-width="5" />
<circle cx="500.5609671438302" cy="495.75692141676075" r="2.5" fill="grey" stroke="none" />
<circle cx="502.56800000000004" cy="496.57599999999996" r="5" fill="black" stroke="none" />
<circle cx="502.56800000000004" cy="480.57599999999996" r="5" fill="black" stroke="none" />
<path d="M502.56800000000004,480.57599999999996 A19.593019164998577,19.593019164998577,0,0,0,501.4166436025449,480.45826208078284" stroke="grey" stroke-width="5" fill="none" />
<path d="M501.4166436025449,480.45826208078284 L502.56800000000004,464.57599999999996" stroke="grey" stroke-width="5" />
<circle cx="501.4166436025449" cy="480.45826208078284" r="2.5" fill="grey" stroke="none" />
<circle cx="502.56800000000004" cy="480.57599999999996" r="5" fill="black" stroke="none" />
<circle cx="502.56800000000004" cy="464.57599999999996" r="5" fill="black" stroke="none" />
<path d="M502.56800000000004,464.57599999999996 A35.516959329312,35.516959329312,0,0,0,501.5334293298621,464.5161586846869" stroke="grey" stroke-width="5" fill="none" />
<path d="M501.5334293298621,464.5161586846869 L502.56800000000004,440.57599999999996" stroke="grey" stroke-width="5" />
<circle cx="501.5334293298621" cy="464.5161586846869" r="2.5" fill="grey" stroke="none" />
<circle cx="502.56800000000004" cy="464.57599999999996" r="5" fill="black" stroke="none" />
<circle cx="502.56800000000004" cy="440.57599999999996" r="5" fill="black" stroke="none" />
<path d="M502.56800000000004,440.57599999999996 A59.4794620016019,59.4794620016019,0,0,1,538.5472641573864,454.70193352933615" stroke="grey" stroke-width="5" fill="none" />
<path d="M538.5472641573864,454.7019335293362 L550.568,440.57599999999996" stroke="grey" stroke-width="5" />
<circle cx="538.5472641573864" cy="454.7019335293362" r="2.5" fill="grey" stroke="none" />
<circle cx="502.56800000000004" cy="440.57599999999996" r="5" fill="black" stroke="none" />
<circle cx="550.568" cy="440.57599999999996" r="5" fill="black" stroke="none" />
<path d="M550.568,440.57599999999996 L535.1064771265801,458.7453073728465" stroke="grey" stroke-width="5" />
<circle cx="535.1064771265801" cy="458.7453073728465" r="2.5" fill="grey" stroke="none" />
<path d="M535.1064771265801,458.7453073728465 A54.170235369619775,54.170235369619775,0,0,1,550.568,480.57599999999996" stroke="grey" stroke-width="5" fill="none" />
<circle cx="550.568" cy="440.57599999999996" r="5" fill="black" stroke="none" />
<circle cx="550.568" cy="480.57599999999996" r="5" fill="black" stroke="none" />
<path d="M550.568,480.57599999999996 L518.2901142366331,492.97446648211593" stroke="grey" stroke-width="5" />
<circle cx="518.2901142366331" cy="492.97446648211593" r="2.5" fill="grey" stroke="none" />
<path d="M518.2901142366331,492.97446648211593 A19.593019164998577,19.593019164998577,0,0,0,502.56800000000004,480.57599999999996" stroke="grey" stroke-width="5" fill="none" />
<circle cx="550.568" cy="480.57599999999996" r="5" fill="black" stroke="none" />
<circle cx="502.56800000000004" cy="480.57599999999996" r="5" fill="black" stroke="none" />
<path d="M502.56800000000004,464.57599999999996 A35.516959329312,35.516959329312,0,0,1,532.6398362127073,485.9965899864482" stroke="grey" stroke-width="5" fill="none" />
<path d="M532.6398362127073,485.9965899864482 L582.568,464.57599999999996" stroke="grey" stroke-width="5" />
<circle cx="532.6398362127073" cy="485.9965899864482" r="2.5" fill="grey" stroke="none" />
<circle cx="502.56800000000004" cy="464.57599999999996" r="5" fill="black" stroke="none" />
<circle cx="582.568" cy="464.57599999999996" r="5" fill="black" stroke="none" />
<circle cx="500" cy="500" r="5" fill="red" stroke="none" />
</svg>