<?xml version="1.0" encoding="UTF-8"?>
<svg xmlns="http://www.w3.org/2000/svg" xmlns:xlink="http://www.w3.org/1999/xlink"
     width="1000" height="1000" viewBox="0 0 1000 1000">
<defs>
</defs>
<rect x="0" y="0" width="1000" height="1000" fill="white" />
<path d="M156.0,128.96000000000004 L200.55667948823333,177.0190417363783" stroke="grey" stroke-width="5" />
<circle cx="200.55667948823333" cy="177.0190417363783" r="2.5" fill="grey" stroke="none" />
<path d="M200.55667948823333,177.0190417363783 A440.43501404861075,440.43501404861075,0,0,0,156.0,224.9600000000001" stroke="grey" stroke-width="5" fill="none" />
<circle cx="156.0" cy="128.96000000000004" r="5" fill="black" stroke="none" />
<circle cx="156.0" cy="224.96000000000004" r="5" fill="black" stroke="none" />
<path d="M156.0,224.96000000000004 L222.34005051314927,278.00118457307144" stroke="grey" stroke-width="5" />
<circle cx="222.34005051314927" cy="278.00118457307144" r="2.5" fill="grey" stroke="none" />
<path d="M222.34005051314927,278.00118457307144 A355.4975690493537,355.4975690493537,0,0,0,219.99999999999994,280.9600000000001" stroke="grey" stroke-width="5" fill="none" />
<circle cx="156.0" cy="224.96000000000004" r="5" fill="black" stroke="none" />
<circle cx="220.0" cy="280.96000000000004" r="5" fill="black" stroke="none" />
<path d="M132.0,280.96000000000004 L194.52068876330998,318.17340126824837" stroke="grey" stroke-width="5" />
<circle cx="194.52068876330998" cy="318.17340126824837" r="2.5" fill="grey" stroke="none" />
<path d="M194.52068876330998,318.17340126824837 A355.4975690493537,355.4975690493537,0,0,1,219.99999999999994,280.9600000000001" stroke="grey" stroke-width="5" fill="none" />
<circle cx="132.0" cy="280.96000000000004" r="5" fill="black" stroke="none" />
<circle cx="220.0" cy="280.96000000000004" r="5" fill="black" stroke="none" />
<path d="M220.0,280.96000000000004 L279.67797608765795,327.64522815085934" stroke="grey" stroke-width="5" />
<circle cx="279.67797608765795" cy="327.64522815085934" r="2.5" fill="grey" stroke="none" />
<path d="M279.67797608765795,327.64522815085934 A279.72837110311133,279.72837110311133,0,0,1,292.0000000000001,312.9599999999999" stroke="grey" stroke-width="5" fill="none" />
<circle cx="220.0" cy="280.96000000000004" r="5" fill="black" stroke="none" />
<circle cx="292.0" cy="312.96000000000004" r="5" fill="black" stroke="none" />
<path d="M292.0,312.96000000000004 L308.7995495153074,328.06667183338016" stroke="grey" stroke-width="5" />
<circle cx="308.7995495153074" cy="328.06667183338016" r="2.5" fill="grey" stroke="none" />
<path d="M308.7995495153074,328.0666718333801 A257.1355315781932,257.1355315781932,0,0,0,308.0,328.96000000000004" stroke="grey" stroke-width="5" fill="none" />
<circle cx="292.0" cy="312.96000000000004" r="5" fill="black" stroke="none" />
<circle cx="308.0" cy="328.96000000000004" r="5" fill="black" stroke="none" />
<path d="M308.0,328.96000000000004 L341.72307694449495,359.00164104472094" stroke="grey" stroke-width="5" />
<circle cx="341.72307694449495" cy="359.00164104472094" r="2.5" fill="grey" stroke="none" />
<path d="M341.72307694449495,359.00164104472094 A211.97198305436498,211.97198305436498,0,0,0,340.0,360.96000000000004" stroke="grey" stroke-width="5" fill="none" />
<circle cx="308.0" cy="328.96000000000004" r="5" fill="black" stroke="none" />
<circle cx="340.0" cy="360.96000000000004" r="5" fill="black" stroke="none" />
<path d="M308.0,328.96000000000004 L313.9347720637686,334.2468927801405" stroke="grey" stroke-width="5" />
<circle cx="313.9347720637686" cy="334.2468927801405" r="2.5" fill="grey" stroke="none" />
<path d="M313.9347720637686,334.2468927801405 A249.1874025708362,249.1874025708362,0,0,0,260.0,432.96000000000004" stroke="grey" stroke-width="5" fill="none" />
<circle cx="308.0" cy="328.96000000000004" r="5" fill="black" stroke="none" />
<circle cx="260.0" cy="432.96000000000004" r="5" fill="black" stroke="none" />
<path d="M260.0,432.96000000000004 L268.5118947748637,435.3376559404453" stroke="grey" stroke-width="5" />
<circle cx="268.5118947748637" cy="435.3376559404453" r="2.5" fill="grey" stroke="none" />
<path d="M268.5118947748637,435.3376559404453 A240.34966527956723,240.34966527956723,0,0,0,260.0,512.9599999999999" stroke="grey" stroke-width="5" fill="none" />
<circle cx="260.0" cy="432.96000000000004" r="5" fill="black" stroke="none" />
<circle cx="260.0" cy="512.96" r="5" fill="black" stroke="none" />
<path d="M156.0,528.96 L260.4975479769161,520.1627645656642" stroke="grey" stroke-width="5" />
<circle cx="260.4975479769161" cy="520.1627645656642" r="2.5" fill="grey" stroke="none" />
<path d="M260.49754797691617,520.1627645656644 A240.34966527956723,240.34966527956723,0,0,1,260.0,512.9599999999999" stroke="grey" stroke-width="5" fill="none" />
<circle cx="156.0" cy="528.96" r="5" fill="black" stroke="none" />
<circle cx="260.0" cy="512.96" r="5" fill="black" stroke="none" />
<path d="M260.0,512.9599999999999 A240.34966527956723,240.34966527956723,0,0,0,289.7579007901342,616.4741229622656" stroke="grey" stroke-width="5" fill="none" />
<path d="M289.7579007901343,616.4741229622657 L260.0,632.96" stroke="grey" stroke-width="5" />
<circle cx="289.7579007901343" cy="616.4741229622657" r="2.5" fill="grey" stroke="none" />
<circle cx="260.0" cy="512.96" r="5" fill="black" stroke="none" />
<circle cx="260.0" cy="632.96" r="5" fill="black" stroke="none" />
<path d="M260.0,432.96000000000004 L332.9187460558352,453.3286363982633" stroke="grey" stroke-width="5" />
<circle cx="332.9187460558352" cy="453.3286363982633" r="2.5" fill="grey" stroke="none" />
<path d="M332.9187460558352,453.3286363982633 A173.47726536926965,173.47726536926965,0,0,1,340.0,432.96" stroke="grey" stroke-width="5" fill="none" />
<circle cx="260.0" cy="432.96000000000004" r="5" fill="black" stroke="none" />
<circle cx="340.0" cy="432.96000000000004" r="5" fill="black" stroke="none" />
<path d="M340.0,360.96000000000004 L369.05645708865023,386.2100612100371" stroke="grey" stroke-width="5" />
<circle cx="369.05645708865023" cy="386.2100612100371" r="2.5" fill="grey" stroke="none" />
<path d="M369.05645708865023,386.2100612100371 A173.47726536926965,173.47726536926965,0,0,0,340.0,432.96" stroke="grey" stroke-width="5" fill="none" />
<circle cx="340.0" cy="360.96000000000004" r="5" fill="black" stroke="none" />
<circle cx="340.0" cy="432.96000000000004" r="5" fill="black" stroke="none" />
<path d="M340.0,432.96000000000004 L397.96737600667166,457.2483305467954" stroke="grey" stroke-width="5" />
<circle cx="397.96737600667166" cy="457.2483305467954" r="2.5" fill="grey" stroke="none" />
<path d="M397.96737600667166,457.2483305467954 A110.6271286800846,110.6271286800846,0,0,1,412.0,432.96000000000004" stroke="grey" stroke-width="5" fill="none" />
<circle cx="340.0" cy="432.96000000000004" r="5" fill="black" stroke="none" />
<circle cx="412.0" cy="432.96000000000004" r="5" fill="black" stroke="none" />
<path d="M340.0,360.96000000000004 L361.3680447576244,379.52883089437563" stroke="grey" stroke-width="5" />
<circle cx="361.3680447576244" cy="379.52883089437563" r="2.5" fill="grey" stroke="none" />
<path d="M361.3680447576244,379.52883089437563 A183.66306542143957,183.66306542143957,0,0,1,380.00000000000006,360.96" stroke="grey" stroke-width="5" fill="none" />
<circle cx="340.0" cy="360.96000000000004" r="5" fill="black" stroke="none" />
<circle cx="380.0" cy="360.96000000000004" r="5" fill="black" stroke="none" />
<path d="M412.0,432.96000000000004 L414.8534350264148,435.13379868375966" stroke="grey" stroke-width="5" />
<circle cx="414.8534350264148" cy="435.13379868375966" r="2.5" fill="grey" stroke="none" />
<path d="M414.8534350264148,435.13379868375966 A107.03999999999996,107.03999999999996,0,0,1,500.0,392.96000000000004" stroke="grey" stroke-width="5" fill="none" />
<circle cx="412.0" cy="432.96000000000004" r="5" fill="black" stroke="none" />
<circle cx="500.0" cy="392.96000000000004" r="5" fill="black" stroke="none" />
<path d="M380.0,360.96000000000004 L407.81196462049564,393.18479634028097" stroke="grey" stroke-width="5" />
<circle cx="407.81196462049564" cy="393.18479634028097" r="2.5" fill="grey" stroke="none" />
<path d="M407.8119646204957,393.18479634028097 A141.09614310816576,141.09614310816576,0,0,1,524.0,360.96000000000004" stroke="grey" stroke-width="5" fill="none" />
<circle cx="380.0" cy="360.96000000000004" r="5" fill="black" stroke="none" />
<circle cx="524.0" cy="360.96000000000004" r="5" fill="black" stroke="none" />
<path d="M500.0,392.96000000000004 A107.03999999999996,107.03999999999996,0,0,1,518.2071596247008,394.51985524090014" stroke="grey" stroke-width="5" fill="none" />
<path d="M518.2071596247008,394.51985524090014 L524.0,360.96000000000004" stroke="grey" stroke-width="5" />
<circle cx="518.2071596247008" cy="394.51985524090014" r="2.5" fill="grey" stroke="none" />
<circle cx="500.0" cy="392.96000000000004" r="5" fill="black" stroke="none" />
<circle cx="524.0" cy="360.96000000000004" r="5" fill="black" stroke="none" />
<path d="M260.0,512.96 L379.4777823967439,506.50819975057584" stroke="grey" stroke-width="5" />
<circle cx="379.4777823967439" cy="506.50819975057584" r="2.5" fill="grey" stroke="none" />
<path d="M379.4777823967439,506.5081997505758 A120.69781108205733,120.69781108205733,0,0,0,380.0,512.9599999999999" stroke="grey" stroke-width="5" fill="none" />
<circle cx="260.0" cy="512.96" r="5" fill="black" stroke="none" />
<circle cx="380.0" cy="512.96" r="5" fill="black" stroke="none" />
<path d="M380.0,512.96 L414.0610847106343,509.2814028512515" stroke="grey" stroke-width="5" />
<circle cx="414.0610847106343" cy="509.2814028512515" r="2.5" fill="grey" stroke="none" />
<path d="M414.0610847106343,509.28140285125147 A86.43865801827324,86.43865801827324,0,0,1,476.0,416.96000000000004" stroke="grey" stroke-width="5" fill="none" />
<circle cx="380.0" cy="512.96" r="5" fill="black" stroke="none" />
<circle cx="476.0" cy="416.96000000000004" r="5" fill="black" stroke="none" />
<path d="M476.0,416.96000000000004 A86.43865801827324,86.43865801827324,0,0,1,500.0,413.56134198172674" stroke="grey" stroke-width="5" fill="none" />
<path d="M500.0,413.56134198172674 L500.0,392.96000000000004" stroke="grey" stroke-width="5" />
<circle cx="500.0" cy="413.56134198172674" r="2.5" fill="grey" stroke="none" />
<circle cx="476.0" cy="416.96000000000004" r="5" fill="black" stroke="none" />
<circle cx="500.0" cy="392.96000000000004" r="5" fill="black" stroke="none" />
<path d="M500.0,392.96000000000004 L500.0,416.96000000000004" stroke="grey" stroke-width="5" />
<circle cx="500.0" cy="416.96000000000004" r="2.5" fill="grey" stroke="none" />
<path d="M500.0,416.96000000000004 A83.03999999999996,83.03999999999996,0,0,1,500.0,416.96000000000004" stroke="grey" stroke-width="5" fill="none" />
<circle cx="500.0" cy="392.96000000000004" r="5" fill="black" stroke="none" />
<circle cx="500.0" cy="416.96000000000004" r="5" fill="black" stroke="none" />
<path d="M500.0,416.96000000000004 L500.0,592.96" stroke="grey" stroke-width="5" />
<circle cx="500.0" cy="416.96000000000004" r="5" fill="black" stroke="none" />
<circle cx="500.0" cy="592.96" r="5" fill="black" stroke="none" />
<path d="M500.0,592.96 A92.96000000000004,92.96000000000004,0,0,0,566.7815153741839,564.6667673873347" stroke="grey" stroke-width="5" fill="none" />
<path d="M566.7815153741839,564.6667673873347 L596.0,592.96" stroke="grey" stroke-width="5" />
<circle cx="566.7815153741839" cy="564.6667673873347" r="2.5" fill="grey" stroke="none" />
<circle cx="500.0" cy="592.96" r="5" fill="black" stroke="none" />
<circle cx="596.0" cy="592.96" r="5" fill="black" stroke="none" />
<path d="M500.0,592.96 A92.96000000000004,92.96000000000004,0,0,1,500.0,592.96" stroke="grey" stroke-width="5" fill="none" />
<path d="M500.0,592.96 L500.0,640.96" stroke="grey" stroke-width="5" />
<circle cx="500.0" cy="592.96" r="2.5" fill="grey" stroke="none" />
<circle cx="500.0" cy="592.96" r="5" fill="black" stroke="none" />
<circle cx="500.0" cy="640.96" r="5" fill="black" stroke="none" />
<path d="M188.0,216.96000000000004 L272.3056040013018,293.4403146042579" stroke="grey" stroke-width="5" />
<circle cx="272.3056040013018" cy="293.4403146042579" r="2.5" fill="grey" stroke="none" />
<path d="M272.3056040013017,293.44031460425794 A307.42745745947934,307.42745745947934,0,0,1,380.0,216.96000000000004" stroke="grey" stroke-width="5" fill="none" />
<circle cx="188.0" cy="216.96000000000004" r="5" fill="black" stroke="none" />
<circle cx="380.0" cy="216.96000000000004" r="5" fill="black" stroke="none" />
<path d="M380.0,216.96000000000004 L428.30969610618564,330.9064698824567" stroke="grey" stroke-width="5" />
<circle cx="428.30969610618564" cy="330.9064698824567" r="2.5" fill="grey" stroke="none" />
<path d="M428.30969610618564,330.9064698824567 A183.66306542143957,183.66306542143957,0,0,0,380.00000000000006,360.96" stroke="grey" stroke-width="5" fill="none" />
<circle cx="380.0" cy="216.96000000000004" r="5" fill="black" stroke="none" />
<circle cx="380.0" cy="360.96000000000004" r="5" fill="black" stroke="none" />
<path d="M380.0,216.96000000000004 A307.42745745947934,307.42745745947934,0,0,1,403.51648390680856,208.10520264606487" stroke="grey" stroke-width="5" fill="none" />
<path d="M403.51648390680856,208.10520264606487 L380.0,136.96000000000004" stroke="grey" stroke-width="5" />
<circle cx="403.51648390680856" cy="208.10520264606487" r="2.5" fill="grey" stroke="none" />
<circle cx="380.0" cy="216.96000000000004" r="5" fill="black" stroke="none" />
<circle cx="380.0" cy="136.96000000000004" r="5" fill="black" stroke="none" />
<path d="M380.0,136.96000000000004 A382.35852494746337,382.35852494746337,0,0,1,394.7356084859632,132.41674483298408" stroke="grey" stroke-width="5" fill="none" />
<path d="M394.7356084859633,132.41674483298402 L380.0,80.96000000000004" stroke="grey" stroke-width="5" />
<circle cx="394.7356084859633" cy="132.41674483298402" r="2.5" fill="grey" stroke="none" />
<circle cx="380.0" cy="136.96000000000004" r="5" fill="black" stroke="none" />
<circle cx="380.0" cy="80.96000000000004" r="5" fill="black" stroke="none" />
<path d="M380.0,136.96000000000004 L415.85395270727906,245.43015825708824" stroke="grey" stroke-width="5" />
<circle cx="415.85395270727906" cy="245.43015825708824" r="2.5" fill="grey" stroke="none" />
<path d="M415.85395270727906,245.43015825708824 A268.11632102503563,268.11632102503563,0,0,1,476.00000000000006,232.96000000000004" stroke="grey" stroke-width="5" fill="none" />
<circle cx="380.0" cy="136.96000000000004" r="5" fill="black" stroke="none" />
<circle cx="476.0" cy="232.96000000000004" r="5" fill="black" stroke="none" />
<path d="M380.0,216.96000000000004 L395.34455123532683,253.1526815137243" stroke="grey" stroke-width="5" />
<circle cx="395.34455123532683" cy="253.1526815137243" r="2.5" fill="grey" stroke="none" />
<path d="M395.34455123532683,253.1526815137243 A268.11632102503563,268.11632102503563,0,0,1,476.00000000000006,232.96000000000004" stroke="grey" stroke-width="5" fill="none" />
<circle cx="380.0" cy="216.96000000000004" r="5" fill="black" stroke="none" />
<circle cx="476.0" cy="232.96000000000004" r="5" fill="black" stroke="none" />
<path d="M476.0,232.96000000000004 L482.4096283245752,304.2777978247731" stroke="grey" stroke-width="5" />
<circle cx="482.4096283245752" cy="304.2777978247731" r="2.5" fill="grey" stroke="none" />
<path d="M482.4096283245752,304.2777978247731 A196.5110724615791,196.5110724615791,0,0,1,524.0,304.96000000000004" stroke="grey" stroke-width="5" fill="none" />
<circle cx="476.0" cy="232.96000000000004" r="5" fill="black" stroke="none" />
<circle cx="524.0" cy="304.96000000000004" r="5" fill="black" stroke="none" />
<path d="M476.0,416.96000000000004 L476.9436494539436,420.22502711064476" stroke="grey" stroke-width="5" />
<circle cx="476.9436494539436" cy="420.22502711064476" r="2.5" fill="grey" stroke="none" />
<path d="M476.9436494539436,420.22502711064476 A83.03999999999996,83.03999999999996,0,0,1,500.0,416.96000000000004" stroke="grey" stroke-width="5" fill="none" />
<circle cx="476.0" cy="416.96000000000004" r="5" fill="black" stroke="none" />
<circle cx="500.0" cy="416.96000000000004" r="5" fill="black" stroke="none" />
<path d="M500.0,416.96000000000004 A83.03999999999996,83.03999999999996,0,0,1,523.0563505460564,420.22502711064476" stroke="grey" stroke-width="5" fill="none" />
<path d="M523.0563505460564,420.22502711064476 L524.0,416.96000000000004" stroke="grey" stroke-width="5" />
<circle cx="523.0563505460564" cy="420.22502711064476" r="2.5" fill="grey" stroke="none" />
<circle cx="500.0" cy="416.96000000000004" r="5" fill="black" stroke="none" />
<circle cx="524.0" cy="416.96000000000004" r="5" fill="black" stroke="none" />
<path d="M524.0,416.96000000000004 A86.43865801827324,86.43865801827324,0,0,0,514.7029376334419,414.8209813102598" stroke="grey" stroke-width="5" fill="none" />
<path d="M514.7029376334419,414.8209813102598 L524.0,360.96000000000004" stroke="grey" stroke-width="5" />
<circle cx="514.7029376334419" cy="414.8209813102598" r="2.5" fill="grey" stroke="none" />
<circle cx="524.0" cy="416.96000000000004" r="5" fill="black" stroke="none" />
<circle cx="524.0" cy="360.96000000000004" r="5" fill="black" stroke="none" />
<path d="M524.0,360.96000000000004 A141.09614310816576,141.09614310816576,0,0,0,521.5844290483494,360.5645883476627" stroke="grey" stroke-width="5" fill="none" />
<path d="M521.5844290483494,360.5645883476627 L524.0,344.96000000000004" stroke="grey" stroke-width="5" />
<circle cx="521.5844290483494" cy="360.5645883476627" r="2.5" fill="grey" stroke="none" />
<circle cx="524.0" cy="360.96000000000004" r="5" fill="black" stroke="none" />
<circle cx="524.0" cy="344.96000000000004" r="5" fill="black" stroke="none" />
<path d="M524.0,344.96000000000004 A156.88658833692568,156.88658833692568,0,0,0,521.8004507027302,344.63545465854247" stroke="grey" stroke-width="5" fill="none" />
<path d="M521.8004507027302,344.63545465854247 L524.0,328.96000000000004" stroke="grey" stroke-width="5" />
<circle cx="521.8004507027302" cy="344.63545465854247" r="2.5" fill="grey" stroke="none" />
<circle cx="524.0" cy="344.96000000000004" r="5" fill="black" stroke="none" />
<circle cx="524.0" cy="328.96000000000004" r="5" fill="black" stroke="none" />
<path d="M524.0,328.96000000000004 A172.7156090224621,172.7156090224621,0,0,0,521.093847611816,328.5773317413083" stroke="grey" stroke-width="5" fill="none" />
<path d="M521.093847611816,328.5773317413083 L524.0,304.96000000000004" stroke="grey" stroke-width="5" />
<circle cx="521.093847611816" cy="328.5773317413083" r="2.5" fill="grey" stroke="none" />
<circle cx="524.0" cy="328.96000000000004" r="5" fill="black" stroke="none" />
<circle cx="524.0" cy="304.96000000000004" r="5" fill="black" stroke="none" />
<path d="M524.0,304.96000000000004 A196.5110724615791,196.5110724615791,0,0,1,568.0540573459957,315.6491202116249" stroke="grey" stroke-width="5" fill="none" />
<path d="M568.0540573459957,315.6491202116249 L572.0,304.96000000000004" stroke="grey" stroke-width="5" />
<circle cx="568.0540573459957" cy="315.6491202116249" r="2.5" fill="grey" stroke="none" />
<circle cx="524.0" cy="304.96000000000004" r="5" fill="black" stroke="none" />
<circle cx="572.0" cy="304.96000000000004" r="5" fill="black" stroke="none" />
<path d="M572.0,304.96000000000004 L559.1994290759296,339.6353243476483" stroke="grey" stroke-width="5" />
<circle cx="559.1994290759296" cy="339.6353243476483" r="2.5" fill="grey" stroke="none" />
<path d="M559.1994290759296,339.6353243476483 A170.94268513159605,170.94268513159605,0,0,1,572.0,344.96000000000004" stroke="grey" stroke-width="5" fill="none" />
<circle cx="572.0" cy="304.96000000000004" r="5" fill="black" stroke="none" />
<circle cx="572.0" cy="344.96000000000004" r="5" fill="black" stroke="none" />
<path d="M572.0,344.96000000000004 L566.0796591065762,357.70846739050603" stroke="grey" stroke-width="5" />
<circle cx="566.0796591065762" cy="357.70846739050603" r="2.5" fill="grey" stroke="none" />
<path d="M566.0796591065762,357.70846739050603 A156.88658833692568,156.88658833692568,0,0,0,524.0,344.96000000000004" stroke="grey" stroke-width="5" fill="none" />
<circle cx="572.0" cy="344.96000000000004" r="5" fill="black" stroke="none" />
<circle cx="524.0" cy="344.96000000000004" r="5" fill="black" stroke="none" />
<path d="M524.0,328.96000000000004 A172.7156090224621,172.7156090224621,0,0,1,589.7328708977553,352.42394001584546" stroke="grey" stroke-width="5" fill="none" />
<path d="M589.7328708977553,352.4239400158455 L604.0,328.96000000000004" stroke="grey" stroke-width="5" />
<circle cx="589.7328708977553" cy="352.4239400158455" r="2.5" fill="grey" stroke="none" />
<circle cx="524.0" cy="328.96000000000004" r="5" fill="black" stroke="none" />
<circle cx="604.0" cy="328.96000000000004" r="5" fill="black" stroke="none" />
<circle cx="500" cy="500" r="5" fill="red" stroke="none" />
</svg>