<?xml version="1.0" encoding="UTF-8"?>
<svg xmlns="http://www.w3.org/2000/svg" xmlns:xlink="http://www.w3.org/1999/xlink"
     width="1000" height="1000" viewBox="0 0 1000 1000">
<defs>
</defs>
<rect x="0" y="0" width="1000" height="1000" fill="white" />
<path d="M276.0,518.1200000000001 A224.73169424894212,224.73169424894212,0,0,0,299.7576402183153,602.016330795919" stroke="grey" stroke-width="5" fill="none" />
<path d="M299.7576402183153,602.016330795919 L-224.0,114.12" stroke="grey" stroke-width="5" />
<circle cx="299.7576402183153" cy="602.016330795919" r="2.5" fill="grey" stroke="none" />
<circle cx="276.0" cy="518.12" r="5" fill="black" stroke="none" />
<circle cx="276.0" cy="614.12" r="5" fill="black" stroke="none" />
<path d="M276.0,614.12 L291.90941173322244,606.0147229151993" stroke="grey" stroke-width="5" />
<circle cx="291.90941173322244" cy="606.0147229151993" r="2.5" fill="grey" stroke="none" />
<path d="M291.90941173322244,606.0147229151993 A233.53974907925203,233.53974907925203,0,0,0,339.9999999999999,670.1199999999999" stroke="grey" stroke-width="5" fill="none" />
<circle cx="276.0" cy="614.12" r="5" fill="black" stroke="none" />
<circle cx="340.0" cy="670.12" r="5" fill="black" stroke="none" />
<path d="M252.0,670.12 L307.415799871456,632.1065488946286" stroke="grey" stroke-width="5" />
<circle cx="307.415799871456" cy="632.1065488946286" r="2.5" fill="grey" stroke="none" />
<path d="M307.415799871456,632.1065488946286 A233.53974907925203,233.53974907925203,0,0,0,339.9999999999999,670.1199999999999" stroke="grey" stroke-width="5" fill="none" />
<circle cx="252.0" cy="670.12" r="5" fill="black" stroke="none" />
<circle cx="340.0" cy="670.12" r="5" fill="black" stroke="none" />
<path d="M340.0,670.12 L348.97054880706685,660.5820639808862" stroke="grey" stroke-width="5" />
<circle cx="348.97054880706685" cy="660.5820639808862" r="2.5" fill="grey" stroke="none" />
<path d="M348.97054880706673,660.5820639808861 A220.4461258448422,220.4461258448422,0,0,0,412.00000000000006,702.12" stroke="grey" stroke-width="5" fill="none" />
<circle cx="340.0" cy="670.12" r="5" fill="black" stroke="none" />
<circle cx="412.0" cy="702.12" r="5" fill="black" stroke="none" />
<path d="M412.00000000000006,702.12 A220.4461258448422,220.4461258448422,0,0,0,430.8994987765479,709.3361295397135" stroke="grey" stroke-width="5" fill="none" />
<path d="M430.8994987765479,709.3361295397135 L-72.0,218.12" stroke="grey" stroke-width="5" />
<circle cx="430.8994987765479" cy="709.3361295397135" r="2.5" fill="grey" stroke="none" />
<circle cx="412.0" cy="702.12" r="5" fill="black" stroke="none" />
<circle cx="428.0" cy="718.12" r="5" fill="black" stroke="none" />
<path d="M428.0,718.12 A229.6961784618978,229.6961784618978,0,0,0,463.72716213134595,726.8140551926938" stroke="grey" stroke-width="5" fill="none" />
<path d="M463.72716213134595,726.8140551926938 L-40.0,250.12" stroke="grey" stroke-width="5" />
<circle cx="463.72716213134595" cy="726.8140551926938" r="2.5" fill="grey" stroke="none" />
<circle cx="428.0" cy="718.12" r="5" fill="black" stroke="none" />
<circle cx="460.0" cy="750.12" r="5" fill="black" stroke="none" />
<path d="M428.0,718.12 A229.6961784618978,229.6961784618978,0,0,1,419.8142130282487,715.2453808278378" stroke="grey" stroke-width="5" fill="none" />
<path d="M419.8142130282487,715.2453808278378 L-120.0,322.12" stroke="grey" stroke-width="5" />
<circle cx="419.8142130282487" cy="715.2453808278378" r="2.5" fill="grey" stroke="none" />
<circle cx="428.0" cy="718.12" r="5" fill="black" stroke="none" />
<circle cx="380.0" cy="822.12" r="5" fill="black" stroke="none" />
<path d="M380.00000000000006,822.12 A343.7459736491469,343.7459736491469,0,0,0,401.7033814095058,829.391968896746" stroke="grey" stroke-width="5" fill="none" />
<path d="M401.7033814095058,829.391968896746 L-120.0,402.12" stroke="grey" stroke-width="5" />
<circle cx="401.7033814095058" cy="829.391968896746" r="2.5" fill="grey" stroke="none" />
<circle cx="380.0" cy="822.12" r="5" fill="black" stroke="none" />
<circle cx="380.0" cy="902.12" r="5" fill="black" stroke="none" />
<path d="M276.0,918.12 L301.83054081309314,869.9045280144173" stroke="grey" stroke-width="5" />
<circle cx="301.83054081309314" cy="869.9045280144173" r="2.5" fill="grey" stroke="none" />
<path d="M301.8305408130933,869.9045280144173 A419.64329423928604,419.64329423928604,0,0,0,380.0,902.12" stroke="grey" stroke-width="5" fill="none" />
<circle cx="276.0" cy="918.12" r="5" fill="black" stroke="none" />
<circle cx="380.0" cy="902.12" r="5" fill="black" stroke="none" />
<path d="M380.0,902.12 A419.64329423928604,419.64329423928604,0,0,0,406.003095175692,908.9805328905643" stroke="grey" stroke-width="5" fill="none" />
<path d="M406.003095175692,908.9805328905643 L-120.0,522.12" stroke="grey" stroke-width="5" />
<circle cx="406.003095175692" cy="908.9805328905643" r="2.5" fill="grey" stroke="none" />
<circle cx="380.0" cy="902.12" r="5" fill="black" stroke="none" />
<circle cx="380.0" cy="1022.12" r="5" fill="black" stroke="none" />
<path d="M380.0,822.12 L386.6858423058876,804.1729706368958" stroke="grey" stroke-width="5" />
<circle cx="386.6858423058876" cy="804.1729706368958" r="2.5" fill="grey" stroke="none" />
<path d="M386.6858423058876,804.1729706368958 A324.59404553996364,324.59404553996364,0,0,0,459.99999999999994,822.12" stroke="grey" stroke-width="5" fill="none" />
<circle cx="380.0" cy="822.12" r="5" fill="black" stroke="none" />
<circle cx="460.0" cy="822.12" r="5" fill="black" stroke="none" />
<path d="M460.0,750.12 A253.29827160878932,253.29827160878932,0,0,0,468.7858387928926,751.3676402008356" stroke="grey" stroke-width="5" fill="none" />
<path d="M468.78583879289266,751.3676402008356 L-40.0,322.12" stroke="grey" stroke-width="5" />
<circle cx="468.78583879289266" cy="751.3676402008356" r="2.5" fill="grey" stroke="none" />
<circle cx="460.0" cy="750.12" r="5" fill="black" stroke="none" />
<circle cx="460.0" cy="822.12" r="5" fill="black" stroke="none" />
<path d="M460.0,822.12 L460.10948790950147,821.2382938647847" stroke="grey" stroke-width="5" />
<circle cx="460.10948790950147" cy="821.2382938647847" r="2.5" fill="grey" stroke="none" />
<path d="M460.1094879095014,821.2382938647847 A323.70556745289383,323.70556745289383,0,0,0,532.0,822.12" stroke="grey" stroke-width="5" fill="none" />
<circle cx="460.0" cy="822.12" r="5" fill="black" stroke="none" />
<circle cx="532.0" cy="822.12" r="5" fill="black" stroke="none" />
<path d="M460.0,750.12 L460.50190182327,746.9816078990932" stroke="grey" stroke-width="5" />
<circle cx="460.50190182327" cy="746.9816078990932" r="2.5" fill="grey" stroke="none" />
<path d="M460.50190182327,746.9816078990932 A250.12,250.12,0,0,0,500.0,750.12" stroke="grey" stroke-width="5" fill="none" />
<circle cx="460.0" cy="750.12" r="5" fill="black" stroke="none" />
<circle cx="500.0" cy="750.12" r="5" fill="black" stroke="none" />
<path d="M532.0,822.12 L530.3071116393238,805.0789625393426" stroke="grey" stroke-width="5" />
<circle cx="530.3071116393238" cy="805.0789625393426" r="2.5" fill="grey" stroke="none" />
<path d="M530.3071116393237,805.0789625393426 A306.5806490957967,306.5806490957967,0,0,0,620.0,782.12" stroke="grey" stroke-width="5" fill="none" />
<circle cx="532.0" cy="822.12" r="5" fill="black" stroke="none" />
<circle cx="620.0" cy="782.12" r="5" fill="black" stroke="none" />
<path d="M500.0,750.12 A250.12,250.12,0,0,0,624.7954643517099,716.7627884975673" stroke="grey" stroke-width="5" fill="none" />
<path d="M624.7954643517099,716.7627884975673 L144.0,250.12" stroke="grey" stroke-width="5" />
<circle cx="624.7954643517099" cy="716.7627884975673" r="2.5" fill="grey" stroke="none" />
<circle cx="500.0" cy="750.12" r="5" fill="black" stroke="none" />
<circle cx="644.0" cy="750.12" r="5" fill="black" stroke="none" />
<path d="M620.0,782.12 L612.9662253318658,765.5835957552163" stroke="grey" stroke-width="5" />
<circle cx="612.9662253318658" cy="765.5835957552163" r="2.5" fill="grey" stroke="none" />
<path d="M612.9662253318658,765.5835957552163 A288.61048906787846,288.61048906787846,0,0,0,644.0,750.12" stroke="grey" stroke-width="5" fill="none" />
<circle cx="620.0" cy="782.12" r="5" fill="black" stroke="none" />
<circle cx="644.0" cy="750.12" r="5" fill="black" stroke="none" />
<path d="M380.0,902.12 L385.010911261018,885.3284363643288" stroke="grey" stroke-width="5" />
<circle cx="385.010911261018" cy="885.3284363643288" r="2.5" fill="grey" stroke="none" />
<path d="M385.010911261018,885.3284363643288 A402.12,402.12,0,0,0,500.0,902.12" stroke="grey" stroke-width="5" fill="none" />
<circle cx="380.0" cy="902.12" r="5" fill="black" stroke="none" />
<circle cx="500.0" cy="902.12" r="5" fill="black" stroke="none" />
<path d="M500.0,902.12 L500.0,820.8199719468848" stroke="grey" stroke-width="5" />
<circle cx="500.0" cy="820.8199719468848" r="2.5" fill="grey" stroke="none" />
<path d="M500.0,820.8199719468848 A320.8199719468849,320.8199719468849,0,0,0,596.0000000000001,806.12" stroke="grey" stroke-width="5" fill="none" />
<circle cx="500.0" cy="902.12" r="5" fill="black" stroke="none" />
<circle cx="596.0" cy="806.12" r="5" fill="black" stroke="none" />
<path d="M596.0,806.12 L591.7391212728777,792.5331229588886" stroke="grey" stroke-width="5" />
<circle cx="591.7391212728777" cy="792.5331229588886" r="2.5" fill="grey" stroke="none" />
<path d="M591.7391212728777,792.5331229588886 A306.5806490957967,306.5806490957967,0,0,0,620.0,782.12" stroke="grey" stroke-width="5" fill="none" />
<circle cx="596.0" cy="806.12" r="5" fill="black" stroke="none" />
<circle cx="620.0" cy="782.12" r="5" fill="black" stroke="none" />
<path d="M620.0,782.12 A306.5806490957967,306.5806490957967,0,0,1,611.89074039335,785.433278743436" stroke="grey" stroke-width="5" fill="none" />
<path d="M611.89074039335,785.433278743436 L120.0,306.12" stroke="grey" stroke-width="5" />
<circle cx="611.89074039335" cy="785.433278743436" r="2.5" fill="grey" stroke="none" />
<circle cx="620.0" cy="782.12" r="5" fill="black" stroke="none" />
<circle cx="620.0" cy="806.12" r="5" fill="black" stroke="none" />
<path d="M620.0,806.12 A328.8000218978095,328.8000218978095,0,0,1,579.4155565488996,819.0652343612956" stroke="grey" stroke-width="5" fill="none" />
<path d="M579.4155565488996,819.0652343612956 L120.0,482.12" stroke="grey" stroke-width="5" />
<circle cx="579.4155565488996" cy="819.0652343612956" r="2.5" fill="grey" stroke="none" />
<circle cx="620.0" cy="806.12" r="5" fill="black" stroke="none" />
<circle cx="620.0" cy="982.12" r="5" fill="black" stroke="none" />
<path d="M620.0,982.12 A496.82964323800167,496.82964323800167,0,0,0,703.1349646336007,953.4047645794051" stroke="grey" stroke-width="5" fill="none" />
<path d="M703.1349646336007,953.4047645794051 L216.0,482.12" stroke="grey" stroke-width="5" />
<circle cx="703.1349646336007" cy="953.4047645794051" r="2.5" fill="grey" stroke="none" />
<circle cx="620.0" cy="982.12" r="5" fill="black" stroke="none" />
<circle cx="716.0" cy="982.12" r="5" fill="black" stroke="none" />
<path d="M620.0,982.12 A496.82964323800167,496.82964323800167,0,0,1,609.6891058646169,984.56990667459" stroke="grey" stroke-width="5" fill="none" />
<path d="M609.689105864617,984.56990667459 L120.0,530.12" stroke="grey" stroke-width="5" />
<circle cx="609.689105864617" cy="984.56990667459" r="2.5" fill="grey" stroke="none" />
<circle cx="620.0" cy="982.12" r="5" fill="black" stroke="none" />
<circle cx="620.0" cy="1030.12" r="5" fill="black" stroke="none" />
<path d="M308.0,606.12 L407.12238632627043,551.3342310575842" stroke="grey" stroke-width="5" />
<circle cx="407.12238632627043" cy="551.3342310575842" r="2.5" fill="grey" stroke="none" />
<path d="M407.12238632627043,551.3342310575842 A106.12,106.12,0,0,0,500.0,606.12" stroke="grey" stroke-width="5" fill="none" />
<circle cx="308.0" cy="606.12" r="5" fill="black" stroke="none" />
<circle cx="500.0" cy="606.12" r="5" fill="black" stroke="none" />
<path d="M500.0,606.12 A106.12,106.12,0,0,1,500.0,606.12" stroke="grey" stroke-width="5" fill="none" />
<path d="M500.0,606.12 L0.0,250.12" stroke="grey" stroke-width="5" />
<circle cx="500.0" cy="606.12" r="2.5" fill="grey" stroke="none" />
<circle cx="500.0" cy="606.12" r="5" fill="black" stroke="none" />
<circle cx="500.0" cy="750.12" r="5" fill="black" stroke="none" />
<path d="M500.0,606.12 L500.0,526.12" stroke="grey" stroke-width="5" />
<circle cx="500.0" cy="526.12" r="2.5" fill="grey" stroke="none" />
<path d="M500.0,526.12 A26.120000000000005,26.120000000000005,0,0,1,500.0,526.12" stroke="grey" stroke-width="5" fill="none" />
<circle cx="500.0" cy="606.12" r="5" fill="black" stroke="none" />
<circle cx="500.0" cy="526.12" r="5" fill="black" stroke="none" />
<path d="M500.0,526.12 L500.0,470.12" stroke="grey" stroke-width="5" />
<circle cx="500.0" cy="526.12" r="5" fill="black" stroke="none" />
<circle cx="500.0" cy="470.12" r="5" fill="black" stroke="none" />
<path d="M500.0,526.12 A26.120000000000005,26.120000000000005,0,0,0,516.1425482994944,520.5346666493151" stroke="grey" stroke-width="5" fill="none" />
<path d="M516.1425482994944,520.5346666493151 L96.0,122.12" stroke="grey" stroke-width="5" />
<circle cx="516.1425482994944" cy="520.5346666493151" r="2.5" fill="grey" stroke="none" />
<circle cx="500.0" cy="526.12" r="5" fill="black" stroke="none" />
<circle cx="596.0" cy="622.12" r="5" fill="black" stroke="none" />
<path d="M500.0,606.12 A106.12,106.12,0,0,0,565.5837375781906,583.4279795109233" stroke="grey" stroke-width="5" fill="none" />
<path d="M565.5837375781906,583.4279795109233 L96.0,122.12" stroke="grey" stroke-width="5" />
<circle cx="565.5837375781906" cy="583.4279795109233" r="2.5" fill="grey" stroke="none" />
<circle cx="500.0" cy="606.12" r="5" fill="black" stroke="none" />
<circle cx="596.0" cy="622.12" r="5" fill="black" stroke="none" />
<path d="M596.0,622.12 A155.3360692176804,155.3360692176804,0,0,1,592.5463565936004,624.7576301524285" stroke="grey" stroke-width="5" fill="none" />
<path d="M592.5463565936004,624.7576301524285 L144.0,194.12" stroke="grey" stroke-width="5" />
<circle cx="592.5463565936004" cy="624.7576301524285" r="2.5" fill="grey" stroke="none" />
<circle cx="596.0" cy="622.12" r="5" fill="black" stroke="none" />
<circle cx="644.0" cy="694.12" r="5" fill="black" stroke="none" />
<path d="M596.0000000000001,806.12 A320.8199719468849,320.8199719468849,0,0,0,617.0875732045766,798.6903992448752" stroke="grey" stroke-width="5" fill="none" />
<path d="M617.0875732045766,798.6903992448752 L120.0,306.12" stroke="grey" stroke-width="5" />
<circle cx="617.0875732045766" cy="798.6903992448752" r="2.5" fill="grey" stroke="none" />
<circle cx="596.0" cy="806.12" r="5" fill="black" stroke="none" />
<circle cx="620.0" cy="806.12" r="5" fill="black" stroke="none" />
<path d="M620.0,806.12 A328.8000218978095,328.8000218978095,0,0,0,639.9571389690499,797.5255512583718" stroke="grey" stroke-width="5" fill="none" />
<path d="M639.9571389690499,797.5255512583718 L144.0,306.12" stroke="grey" stroke-width="5" />
<circle cx="639.9571389690499" cy="797.5255512583718" r="2.5" fill="grey" stroke="none" />
<circle cx="620.0" cy="806.12" r="5" fill="black" stroke="none" />
<circle cx="644.0" cy="806.12" r="5" fill="black" stroke="none" />
<path d="M644.0,806.12 L622.8500475555097,761.1587260950876" stroke="grey" stroke-width="5" />
<circle cx="622.8500475555097" cy="761.1587260950876" r="2.5" fill="grey" stroke="none" />
<path d="M622.8500475555097,761.1587260950876 A288.61048906787846,288.61048906787846,0,0,0,644.0,750.12" stroke="grey" stroke-width="5" fill="none" />
<circle cx="644.0" cy="806.12" r="5" fill="black" stroke="none" />
<circle cx="644.0" cy="750.12" r="5" fill="black" stroke="none" />
<path d="M644.0,750.12 L637.1394389646339,738.2035866238489" stroke="grey" stroke-width="5" />
<circle cx="637.1394389646339" cy="738.2035866238489" r="2.5" fill="grey" stroke="none" />
<path d="M637.1394389646339,738.2035866238489 A274.86028159776015,274.86028159776015,0,0,0,644.0,734.12" stroke="grey" stroke-width="5" fill="none" />
<circle cx="644.0" cy="750.12" r="5" fill="black" stroke="none" />
<circle cx="644.0" cy="734.12" r="5" fill="black" stroke="none" />
<path d="M644.0,734.12 L636.9304603557885,722.6261067951193" stroke="grey" stroke-width="5" />
<circle cx="636.9304603557885" cy="722.6261067951193" r="2.5" fill="grey" stroke="none" />
<path d="M636.9304603557885,722.6261067951193 A261.36628397710365,261.36628397710365,0,0,0,644.0,718.12" stroke="grey" stroke-width="5" fill="none" />
<circle cx="644.0" cy="734.12" r="5" fill="black" stroke="none" />
<circle cx="644.0" cy="718.12" r="5" fill="black" stroke="none" />
<path d="M644.0,718.12 L633.1644826417435,701.7072010681741" stroke="grey" stroke-width="5" />
<circle cx="633.1644826417435" cy="701.7072010681741" r="2.5" fill="grey" stroke="none" />
<path d="M633.1644826417435,701.7072010681741 A241.69934712365279,241.69934712365279,0,0,0,644.0,694.12" stroke="grey" stroke-width="5" fill="none" />
<circle cx="644.0" cy="718.12" r="5" fill="black" stroke="none" />
<circle cx="644.0" cy="694.12" r="5" fill="black" stroke="none" />
<path d="M644.0,694.12 A241.69934712365279,241.69934712365279,0,0,0,669.9663156470627,671.8430270489991" stroke="grey" stroke-width="5" fill="none" />
<path d="M669.9663156470627,671.8430270489991 L192.0,194.12" stroke="grey" stroke-width="5" />
<circle cx="669.9663156470627" cy="671.8430270489991" r="2.5" fill="grey" stroke="none" />
<circle cx="644.0" cy="694.12" r="5" fill="black" stroke="none" />
<circle cx="692.0" cy="694.12" r="5" fill="black" stroke="none" />
<path d="M692.0,694.12 A273.03218564850556,273.03218564850556,0,0,1,673.1357821808504,711.1174443967744" stroke="grey" stroke-width="5" fill="none" />
<path d="M673.1357821808504,711.1174443967744 L192.0,234.12" stroke="grey" stroke-width="5" />
<circle cx="673.1357821808504" cy="711.1174443967744" r="2.5" fill="grey" stroke="none" />
<circle cx="692.0" cy="694.12" r="5" fill="black" stroke="none" />
<circle cx="692.0" cy="734.12" r="5" fill="black" stroke="none" />
<path d="M692.0,734.12 L674.2950184859917,712.5309881663561" stroke="grey" stroke-width="5" />
<circle cx="674.2950184859917" cy="712.5309881663561" r="2.5" fill="grey" stroke="none" />
<path d="M674.2950184859917,712.5309881663561 A274.86028159776015,274.86028159776015,0,0,1,644.0,734.12" stroke="grey" stroke-width="5" fill="none" />
<circle cx="692.0" cy="734.12" r="5" fill="black" stroke="none" />
<circle cx="644.0" cy="734.12" r="5" fill="black" stroke="none" />
<path d="M644.0,718.12 A261.36628397710365,261.36628397710365,0,0,0,687.2552543822426,682.3398039547087" stroke="grey" stroke-width="5" fill="none" />
<path d="M687.2552543822426,682.3398039547087 L224.0,218.12" stroke="grey" stroke-width="5" />
<circle cx="687.2552543822426" cy="682.3398039547087" r="2.5" fill="grey" stroke="none" />
<circle cx="644.0" cy="718.12" r="5" fill="black" stroke="none" />
<circle cx="724.0" cy="718.12" r="5" fill="black" stroke="none" />
<circle cx="500" cy="500" r="5" fill="red" stroke="none" />
</svg>