<?xml version="1.0" encoding="UTF-8"?>
<svg xmlns="http://www.w3.org/2000/svg" xmlns:xlink="http://www.w3.org/1999/xlink"
     width="1000" height="1000" viewBox="0 0 1000 1000">
<defs>
</defs>
<rect x="0" y="0" width="1000" height="1000" fill="white" />
<path d="M136.56,261.91999999999996 L173.57739591171423,286.1691239782658" stroke="grey" stroke-width="5" />
<circle cx="173.57739591171423" cy="286.1691239782658" r="2.5" fill="grey" stroke="none" />
<path d="M173.57739591171423,286.1691239782658 A390.22475574981144,390.22475574981144,0,0,0,136.56000000000006,357.92" stroke="grey" stroke-width="5" fill="none" />
<circle cx="136.56" cy="261.91999999999996" r="5" fill="black" stroke="none" />
<circle cx="136.56" cy="357.91999999999996" r="5" fill="black" stroke="none" />
<path d="M136.56,357.91999999999996 L209.81861580500026,386.5590714659213" stroke="grey" stroke-width="5" />
<circle cx="209.81861580500026" cy="386.5590714659213" r="2.5" fill="grey" stroke="none" />
<path d="M209.81861580500026,386.5590714659213 A311.56713562248507,311.56713562248507,0,0,0,200.55999999999995,413.92" stroke="grey" stroke-width="5" fill="none" />
<circle cx="136.56" cy="357.91999999999996" r="5" fill="black" stroke="none" />
<circle cx="200.56" cy="413.91999999999996" r="5" fill="black" stroke="none" />
<path d="M112.56,413.91999999999996 L195.849238722719,432.42489796936724" stroke="grey" stroke-width="5" />
<circle cx="195.849238722719" cy="432.42489796936724" r="2.5" fill="grey" stroke="none" />
<path d="M195.849238722719,432.42489796936724 A311.56713562248507,311.56713562248507,0,0,1,200.55999999999995,413.92" stroke="grey" stroke-width="5" fill="none" />
<circle cx="112.56" cy="413.91999999999996" r="5" fill="black" stroke="none" />
<circle cx="200.56" cy="413.91999999999996" r="5" fill="black" stroke="none" />
<path d="M200.56,413.91999999999996 L275.3183733452464,435.41078539125965" stroke="grey" stroke-width="5" />
<circle cx="275.3183733452464" cy="435.41078539125965" r="2.5" fill="grey" stroke="none" />
<path d="M275.3183733452463,435.41078539125976 A233.78109418855925,233.78109418855925,0,0,0,272.55999999999995,445.9199999999999" stroke="grey" stroke-width="5" fill="none" />
<circle cx="200.56" cy="413.91999999999996" r="5" fill="black" stroke="none" />
<circle cx="272.56" cy="445.91999999999996" r="5" fill="black" stroke="none" />
<path d="M272.56,445.91999999999996 L290.98567185806496,450.3012009061034" stroke="grey" stroke-width="5" />
<circle cx="290.98567185806496" cy="450.3012009061034" r="2.5" fill="grey" stroke="none" />
<path d="M290.98567185806496,450.3012009061033 A214.84170917212515,214.84170917212515,0,0,0,288.56,461.9199999999999" stroke="grey" stroke-width="5" fill="none" />
<circle cx="272.56" cy="445.91999999999996" r="5" fill="black" stroke="none" />
<circle cx="288.56" cy="461.91999999999996" r="5" fill="black" stroke="none" />
<path d="M288.56,461.91999999999996 L323.29982918240773,468.1765867161657" stroke="grey" stroke-width="5" />
<circle cx="323.29982918240773" cy="468.1765867161657" r="2.5" fill="grey" stroke="none" />
<path d="M323.29982918240773,468.1765867161657 A179.5429753568766,179.5429753568766,0,0,0,320.56,493.91999999999996" stroke="grey" stroke-width="5" fill="none" />
<circle cx="288.56" cy="461.91999999999996" r="5" fill="black" stroke="none" />
<circle cx="320.56" cy="493.91999999999996" r="5" fill="black" stroke="none" />
<path d="M288.56,461.9199999999999 A214.84170917212515,214.84170917212515,0,0,0,291.77464190015235,552.9070906797022" stroke="grey" stroke-width="5" fill="none" />
<path d="M291.7746419001524,552.9070906797023 L-259.44,65.91999999999996" stroke="grey" stroke-width="5" />
<circle cx="291.7746419001524" cy="552.9070906797023" r="2.5" fill="grey" stroke="none" />
<circle cx="288.56" cy="461.91999999999996" r="5" fill="black" stroke="none" />
<circle cx="240.56" cy="565.92" r="5" fill="black" stroke="none" />
<path d="M240.55999999999995,565.9199999999998 A267.683693937453,267.683693937453,0,0,0,266.68767689377955,631.2246923668658" stroke="grey" stroke-width="5" fill="none" />
<path d="M266.68767689377955,631.2246923668658 L-259.44,145.91999999999996" stroke="grey" stroke-width="5" />
<circle cx="266.68767689377955" cy="631.2246923668658" r="2.5" fill="grey" stroke="none" />
<circle cx="240.56" cy="565.92" r="5" fill="black" stroke="none" />
<circle cx="240.56" cy="645.92" r="5" fill="black" stroke="none" />
<path d="M136.56,661.92 L228.10312077269936,621.135655636376" stroke="grey" stroke-width="5" />
<circle cx="228.10312077269936" cy="621.135655636376" r="2.5" fill="grey" stroke="none" />
<path d="M228.10312077269936,621.135655636376 A297.6604777258815,297.6604777258815,0,0,0,240.55999999999995,645.92" stroke="grey" stroke-width="5" fill="none" />
<circle cx="136.56" cy="661.92" r="5" fill="black" stroke="none" />
<circle cx="240.56" cy="645.92" r="5" fill="black" stroke="none" />
<path d="M240.55999999999995,645.92 A297.6604777258815,297.6604777258815,0,0,0,292.13418570094,713.0576523990366" stroke="grey" stroke-width="5" fill="none" />
<path d="M292.13418570094,713.0576523990366 L-259.44,265.91999999999996" stroke="grey" stroke-width="5" />
<circle cx="292.13418570094" cy="713.0576523990366" r="2.5" fill="grey" stroke="none" />
<circle cx="240.56" cy="645.92" r="5" fill="black" stroke="none" />
<circle cx="240.56" cy="765.92" r="5" fill="black" stroke="none" />
<path d="M240.56,565.92 L314.72193314771664,547.0765115899727" stroke="grey" stroke-width="5" />
<circle cx="314.72193314771664" cy="547.0765115899727" r="2.5" fill="grey" stroke="none" />
<path d="M314.72193314771664,547.0765115899726 A191.1652688120936,191.1652688120936,0,0,0,320.55999999999995,565.92" stroke="grey" stroke-width="5" fill="none" />
<circle cx="240.56" cy="565.92" r="5" fill="black" stroke="none" />
<circle cx="320.56" cy="565.92" r="5" fill="black" stroke="none" />
<path d="M320.56,493.91999999999996 A179.5429753568766,179.5429753568766,0,0,0,331.4694311459582,561.9122553436158" stroke="grey" stroke-width="5" fill="none" />
<path d="M331.4694311459582,561.9122553436158 L-179.44,65.91999999999996" stroke="grey" stroke-width="5" />
<circle cx="331.4694311459582" cy="561.9122553436158" r="2.5" fill="grey" stroke="none" />
<circle cx="320.56" cy="493.91999999999996" r="5" fill="black" stroke="none" />
<circle cx="320.56" cy="565.92" r="5" fill="black" stroke="none" />
<path d="M320.56,565.92 L381.68063834570614,543.4664083830309" stroke="grey" stroke-width="5" />
<circle cx="381.68063834570614" cy="543.4664083830309" r="2.5" fill="grey" stroke="none" />
<path d="M381.68063834570614,543.4664083830309 A126.05078341684353,126.05078341684353,0,0,0,392.56,565.92" stroke="grey" stroke-width="5" fill="none" />
<circle cx="320.56" cy="565.92" r="5" fill="black" stroke="none" />
<circle cx="392.56" cy="565.92" r="5" fill="black" stroke="none" />
<path d="M320.56,493.91999999999996 L360.50756049661305,495.2735508683649" stroke="grey" stroke-width="5" />
<circle cx="360.50756049661305" cy="495.2735508683649" r="2.5" fill="grey" stroke="none" />
<path d="M360.50756049661305,495.2735508683649 A139.57249012609898,139.57249012609898,0,0,1,360.56,493.92" stroke="grey" stroke-width="5" fill="none" />
<circle cx="320.56" cy="493.91999999999996" r="5" fill="black" stroke="none" />
<circle cx="360.56" cy="493.91999999999996" r="5" fill="black" stroke="none" />
<path d="M392.56,565.92 L472.3837019839193,516.9440279711471" stroke="grey" stroke-width="5" />
<circle cx="472.3837019839193" cy="516.9440279711471" r="2.5" fill="grey" stroke="none" />
<path d="M472.3837019839193,516.9440279711471 A32.39999999999996,32.39999999999996,0,0,0,480.56,525.92" stroke="grey" stroke-width="5" fill="none" />
<circle cx="392.56" cy="565.92" r="5" fill="black" stroke="none" />
<circle cx="480.56" cy="525.92" r="5" fill="black" stroke="none" />
<path d="M360.56,493.91999999999996 L492.4072143511765,499.66893189368295" stroke="grey" stroke-width="5" />
<circle cx="492.4072143511765" cy="499.66893189368295" r="2.5" fill="grey" stroke="none" />
<path d="M492.4072143511765,499.66893189368295 A7.600000000000034,7.600000000000034,0,0,1,504.56,493.91999999999996" stroke="grey" stroke-width="5" fill="none" />
<circle cx="360.56" cy="493.91999999999996" r="5" fill="black" stroke="none" />
<circle cx="504.56" cy="493.91999999999996" r="5" fill="black" stroke="none" />
<path d="M480.56,525.92 L504.56,493.91999999999996" stroke="grey" stroke-width="5" />
<circle cx="480.56" cy="525.92" r="5" fill="black" stroke="none" />
<circle cx="504.56" cy="493.91999999999996" r="5" fill="black" stroke="none" />
<path d="M240.56,645.92 L324.0838121777619,598.9426847325816" stroke="grey" stroke-width="5" />
<circle cx="324.0838121777619" cy="598.9426847325816" r="2.5" fill="grey" stroke="none" />
<path d="M324.0838121777619,598.9426847325816 A201.83200935431424,201.83200935431424,0,0,0,360.56000000000006,645.92" stroke="grey" stroke-width="5" fill="none" />
<circle cx="240.56" cy="645.92" r="5" fill="black" stroke="none" />
<circle cx="360.56" cy="645.92" r="5" fill="black" stroke="none" />
<path d="M360.56,645.92 L454.28204599836766,547.8425405042899" stroke="grey" stroke-width="5" />
<circle cx="454.28204599836766" cy="547.8425405042899" r="2.5" fill="grey" stroke="none" />
<path d="M454.28204599836766,547.8425405042899 A66.1743152590187,66.1743152590187,0,0,0,456.56,549.92" stroke="grey" stroke-width="5" fill="none" />
<circle cx="360.56" cy="645.92" r="5" fill="black" stroke="none" />
<circle cx="456.56" cy="549.92" r="5" fill="black" stroke="none" />
<path d="M456.56,549.92 L478.731083283734,524.4416280496316" stroke="grey" stroke-width="5" />
<circle cx="478.731083283734" cy="524.4416280496316" r="2.5" fill="grey" stroke="none" />
<path d="M478.731083283734,524.4416280496316 A32.39999999999996,32.39999999999996,0,0,0,480.56,525.92" stroke="grey" stroke-width="5" fill="none" />
<circle cx="456.56" cy="549.92" r="5" fill="black" stroke="none" />
<circle cx="480.56" cy="525.92" r="5" fill="black" stroke="none" />
<path d="M480.56,525.92 A32.39999999999996,32.39999999999996,0,0,0,488.24273314781806,530.1915000648623" stroke="grey" stroke-width="5" fill="none" />
<path d="M488.24273314781806,530.1915000648623 L-19.439999999999998,49.91999999999996" stroke="grey" stroke-width="5" />
<circle cx="488.24273314781806" cy="530.1915000648623" r="2.5" fill="grey" stroke="none" />
<circle cx="480.56" cy="525.92" r="5" fill="black" stroke="none" />
<circle cx="480.56" cy="549.92" r="5" fill="black" stroke="none" />
<path d="M480.56,549.92 A53.57163428531928,53.57163428531928,0,0,0,495.40723124226014,553.3743990611409" stroke="grey" stroke-width="5" fill="none" />
<path d="M495.4072312422602,553.3743990611409 L-19.439999999999998,225.91999999999996" stroke="grey" stroke-width="5" />
<circle cx="495.4072312422602" cy="553.3743990611409" r="2.5" fill="grey" stroke="none" />
<circle cx="480.56" cy="549.92" r="5" fill="black" stroke="none" />
<circle cx="480.56" cy="725.92" r="5" fill="black" stroke="none" />
<path d="M480.55999999999995,725.92 A226.75484559320884,226.75484559320884,0,0,0,572.7775586907445,714.7584386025733" stroke="grey" stroke-width="5" fill="none" />
<path d="M572.7775586907445,714.7584386025733 L76.56,225.91999999999996" stroke="grey" stroke-width="5" />
<circle cx="572.7775586907445" cy="714.7584386025733" r="2.5" fill="grey" stroke="none" />
<circle cx="480.56" cy="725.92" r="5" fill="black" stroke="none" />
<circle cx="576.56" cy="725.92" r="5" fill="black" stroke="none" />
<path d="M480.55999999999995,725.92 A226.75484559320884,226.75484559320884,0,0,0,483.94766789475557,726.1859470302762" stroke="grey" stroke-width="5" fill="none" />
<path d="M483.9476678947555,726.1859470302762 L-19.439999999999998,273.91999999999996" stroke="grey" stroke-width="5" />
<circle cx="483.9476678947555" cy="726.1859470302762" r="2.5" fill="grey" stroke="none" />
<circle cx="480.56" cy="725.92" r="5" fill="black" stroke="none" />
<circle cx="480.56" cy="773.92" r="5" fill="black" stroke="none" />
<path d="M168.56,349.91999999999996 L313.3808706285849,415.4966240162262" stroke="grey" stroke-width="5" />
<circle cx="313.3808706285849" cy="415.4966240162262" r="2.5" fill="grey" stroke="none" />
<path d="M313.38087062858494,415.4966240162261 A204.8597569070119,204.8597569070119,0,0,1,360.56000000000006,349.91999999999996" stroke="grey" stroke-width="5" fill="none" />
<circle cx="168.56" cy="349.91999999999996" r="5" fill="black" stroke="none" />
<circle cx="360.56" cy="349.91999999999996" r="5" fill="black" stroke="none" />
<path d="M360.56,349.91999999999996 L404.9984813170639,397.74936944969124" stroke="grey" stroke-width="5" />
<circle cx="404.9984813170639" cy="397.74936944969124" r="2.5" fill="grey" stroke="none" />
<path d="M404.9984813170639,397.74936944969124 A139.57249012609898,139.57249012609898,0,0,0,360.56,493.92" stroke="grey" stroke-width="5" fill="none" />
<circle cx="360.56" cy="349.91999999999996" r="5" fill="black" stroke="none" />
<circle cx="360.56" cy="493.91999999999996" r="5" fill="black" stroke="none" />
<path d="M360.56000000000006,349.91999999999996 A204.8597569070119,204.8597569070119,0,0,1,393.82218650774956,324.80356190263205" stroke="grey" stroke-width="5" fill="none" />
<path d="M393.82218650774956,324.80356190263205 L-139.44,-230.08000000000004" stroke="grey" stroke-width="5" />
<circle cx="393.82218650774956" cy="324.80356190263205" r="2.5" fill="grey" stroke="none" />
<circle cx="360.56" cy="349.91999999999996" r="5" fill="black" stroke="none" />
<circle cx="360.56" cy="269.91999999999996" r="5" fill="black" stroke="none" />
<path d="M360.56000000000006,269.91999999999996 A269.0359083839925,269.0359083839925,0,0,1,382.1242532586558,258.1619791468462" stroke="grey" stroke-width="5" fill="none" />
<path d="M382.1242532586558,258.1619791468462 L-139.44,-286.08000000000004" stroke="grey" stroke-width="5" />
<circle cx="382.1242532586558" cy="258.1619791468462" r="2.5" fill="grey" stroke="none" />
<circle cx="360.56" cy="269.91999999999996" r="5" fill="black" stroke="none" />
<circle cx="360.56" cy="213.91999999999996" r="5" fill="black" stroke="none" />
<path d="M360.56,269.91999999999996 L426.95075609920775,379.4666520604253" stroke="grey" stroke-width="5" />
<circle cx="426.95075609920775" cy="379.4666520604253" r="2.5" fill="grey" stroke="none" />
<path d="M426.95075609920775,379.4666520604253 A140.9414062651569,140.9414062651569,0,0,1,456.56,365.91999999999996" stroke="grey" stroke-width="5" fill="none" />
<circle cx="360.56" cy="269.91999999999996" r="5" fill="black" stroke="none" />
<circle cx="456.56" cy="365.91999999999996" r="5" fill="black" stroke="none" />
<path d="M360.56,349.91999999999996 L404.0667138029744,396.74650320962695" stroke="grey" stroke-width="5" />
<circle cx="404.0667138029744" cy="396.74650320962695" r="2.5" fill="grey" stroke="none" />
<path d="M404.0667138029744,396.74650320962695 A140.9414062651569,140.9414062651569,0,0,1,456.56,365.91999999999996" stroke="grey" stroke-width="5" fill="none" />
<circle cx="360.56" cy="349.91999999999996" r="5" fill="black" stroke="none" />
<circle cx="456.56" cy="365.91999999999996" r="5" fill="black" stroke="none" />
<path d="M456.56,365.91999999999996 L480.81457702601836,440.78311435655013" stroke="grey" stroke-width="5" />
<circle cx="480.81457702601836" cy="440.78311435655013" r="2.5" fill="grey" stroke="none" />
<path d="M480.81457702601836,440.78311435655013 A62.24724893519396,62.24724893519396,0,0,1,504.56,437.91999999999996" stroke="grey" stroke-width="5" fill="none" />
<circle cx="456.56" cy="365.91999999999996" r="5" fill="black" stroke="none" />
<circle cx="504.56" cy="437.91999999999996" r="5" fill="black" stroke="none" />
<path d="M456.56,549.92 L464.83300530960753,540.4128999756996" stroke="grey" stroke-width="5" />
<circle cx="464.83300530960753" cy="540.4128999756996" r="2.5" fill="grey" stroke="none" />
<path d="M464.83300530960753,540.4128999756996 A53.57163428531928,53.57163428531928,0,0,0,480.56,549.92" stroke="grey" stroke-width="5" fill="none" />
<circle cx="456.56" cy="549.92" r="5" fill="black" stroke="none" />
<circle cx="480.56" cy="549.92" r="5" fill="black" stroke="none" />
<path d="M480.56,549.92 L481.8096805132343,546.7109438672501" stroke="grey" stroke-width="5" />
<circle cx="481.8096805132343" cy="546.7109438672501" r="2.5" fill="grey" stroke="none" />
<path d="M481.8096805132343,546.7109438672501 A50.127836578092975,50.127836578092975,0,0,0,504.56,549.92" stroke="grey" stroke-width="5" fill="none" />
<circle cx="480.56" cy="549.92" r="5" fill="black" stroke="none" />
<circle cx="504.56" cy="549.92" r="5" fill="black" stroke="none" />
<path d="M504.56,549.92 L500.69135239750494,507.56848940426454" stroke="grey" stroke-width="5" />
<circle cx="500.69135239750494" cy="507.56848940426454" r="2.5" fill="grey" stroke="none" />
<path d="M500.69135239750494,507.56848940426454 A7.600000000000034,7.600000000000034,0,0,0,504.56,493.91999999999996" stroke="grey" stroke-width="5" fill="none" />
<circle cx="504.56" cy="549.92" r="5" fill="black" stroke="none" />
<circle cx="504.56" cy="493.91999999999996" r="5" fill="black" stroke="none" />
<path d="M504.56,493.91999999999996 A7.600000000000034,7.600000000000034,0,0,0,501.53712730115086,492.55706780495365" stroke="grey" stroke-width="5" fill="none" />
<path d="M501.53712730115086,492.55706780495365 L4.560000000000002,-22.08000000000004" stroke="grey" stroke-width="5" />
<circle cx="501.53712730115086" cy="492.55706780495365" r="2.5" fill="grey" stroke="none" />
<circle cx="504.56" cy="493.91999999999996" r="5" fill="black" stroke="none" />
<circle cx="504.56" cy="477.91999999999996" r="5" fill="black" stroke="none" />
<path d="M504.56,477.91999999999996 A22.545953073667164,22.545953073667164,0,0,0,502.68067904848607,477.61397847229193" stroke="grey" stroke-width="5" fill="none" />
<path d="M502.68067904848607,477.61397847229193 L4.560000000000002,-38.08000000000004" stroke="grey" stroke-width="5" />
<circle cx="502.68067904848607" cy="477.61397847229193" r="2.5" fill="grey" stroke="none" />
<circle cx="504.56" cy="477.91999999999996" r="5" fill="black" stroke="none" />
<circle cx="504.56" cy="461.91999999999996" r="5" fill="black" stroke="none" />
<path d="M504.56,461.91999999999996 A38.3520534000463,38.3520534000463,0,0,0,502.80952759352124,461.75099276188666" stroke="grey" stroke-width="5" fill="none" />
<path d="M502.8095275935212,461.75099276188666 L4.560000000000002,-62.08000000000004" stroke="grey" stroke-width="5" />
<circle cx="502.8095275935212" cy="461.75099276188666" r="2.5" fill="grey" stroke="none" />
<circle cx="504.56" cy="461.91999999999996" r="5" fill="black" stroke="none" />
<circle cx="504.56" cy="437.91999999999996" r="5" fill="black" stroke="none" />
<path d="M504.56,437.91999999999996 A62.24724893519396,62.24724893519396,0,0,1,540.221847654993,452.4929166205866" stroke="grey" stroke-width="5" fill="none" />
<path d="M540.221847654993,452.4929166205866 L52.56,-62.08000000000004" stroke="grey" stroke-width="5" />
<circle cx="540.221847654993" cy="452.4929166205866" r="2.5" fill="grey" stroke="none" />
<circle cx="504.56" cy="437.91999999999996" r="5" fill="black" stroke="none" />
<circle cx="552.56" cy="437.91999999999996" r="5" fill="black" stroke="none" />
<path d="M552.56,437.91999999999996 L536.8373923824983,456.4903858617677" stroke="grey" stroke-width="5" />
<circle cx="536.8373923824983" cy="456.4903858617677" r="2.5" fill="grey" stroke="none" />
<path d="M536.8373923824983,456.4903858617677 A57.009472897054586,57.009472897054586,0,0,1,552.56,477.91999999999996" stroke="grey" stroke-width="5" fill="none" />
<circle cx="552.56" cy="437.91999999999996" r="5" fill="black" stroke="none" />
<circle cx="552.56" cy="477.91999999999996" r="5" fill="black" stroke="none" />
<path d="M552.56,477.91999999999996 L520.7862874945678,491.2678609611861" stroke="grey" stroke-width="5" />
<circle cx="520.7862874945678" cy="491.2678609611861" r="2.5" fill="grey" stroke="none" />
<path d="M520.7862874945678,491.2678609611861 A22.545953073667164,22.545953073667164,0,0,0,504.56,477.91999999999996" stroke="grey" stroke-width="5" fill="none" />
<circle cx="552.56" cy="477.91999999999996" r="5" fill="black" stroke="none" />
<circle cx="504.56" cy="477.91999999999996" r="5" fill="black" stroke="none" />
<path d="M504.56,461.91999999999996 A38.3520534000463,38.3520534000463,0,0,1,534.9697276975611,484.2520431560652" stroke="grey" stroke-width="5" fill="none" />
<path d="M534.9697276975611,484.2520431560652 L84.56,-38.08000000000004" stroke="grey" stroke-width="5" />
<circle cx="534.9697276975611" cy="484.2520431560652" r="2.5" fill="grey" stroke="none" />
<circle cx="504.56" cy="461.91999999999996" r="5" fill="black" stroke="none" />
<circle cx="584.56" cy="461.91999999999996" r="5" fill="black" stroke="none" />
<circle cx="500" cy="500" r="5" fill="red" stroke="none" />
</svg>