<?xml version="1.0" encoding="UTF-8"?>
<svg xmlns="http://www.w3.org/2000/svg" xmlns:xlink="http://www.w3.org/1999/xlink"
     width="1000" height="1000" viewBox="0 0 1000 1000">
<defs>
</defs>
<rect x="0" y="0" width="1000" height="1000" fill="white" />
<path d="M276.0,345.48 L309.4262206612858,368.53812328831197" stroke="grey" stroke-width="5" />
<circle cx="309.4262206612858" cy="368.53812328831197" r="2.5" fill="grey" stroke="none" />
<path d="M309.4262206612858,368.53812328831197 A231.51801312208949,231.51801312208949,0,0,0,276.0,441.4799999999999" stroke="grey" stroke-width="5" fill="none" />
<circle cx="276.0" cy="345.48" r="5" fill="black" stroke="none" />
<circle cx="276.0" cy="441.48" r="5" fill="black" stroke="none" />
<path d="M276.0,441.48 L345.17643132392016,459.55234268337415" stroke="grey" stroke-width="5" />
<circle cx="345.17643132392016" cy="459.55234268337415" r="2.5" fill="grey" stroke="none" />
<path d="M345.1764313239202,459.5523426833741 A160.01984376945254,160.01984376945254,0,0,0,340.0,497.48" stroke="grey" stroke-width="5" fill="none" />
<circle cx="276.0" cy="441.48" r="5" fill="black" stroke="none" />
<circle cx="340.0" cy="497.48" r="5" fill="black" stroke="none" />
<path d="M252.0,497.48 L339.9884167610011,498.37407584773274" stroke="grey" stroke-width="5" />
<circle cx="339.9884167610011" cy="498.37407584773274" r="2.5" fill="grey" stroke="none" />
<path d="M339.9884167610011,498.37407584773274 A160.01984376945254,160.01984376945254,0,0,1,340.0,497.48" stroke="grey" stroke-width="5" fill="none" />
<circle cx="252.0" cy="497.48" r="5" fill="black" stroke="none" />
<circle cx="340.0" cy="497.48" r="5" fill="black" stroke="none" />
<path d="M340.0,497.48 L407.2048797075095,498.5384768553933" stroke="grey" stroke-width="5" />
<circle cx="407.2048797075095" cy="498.5384768553933" r="2.5" fill="grey" stroke="none" />
<path d="M407.2048797075095,498.5384768553933 A92.80662907357427,92.80662907357427,0,0,0,412.0,529.48" stroke="grey" stroke-width="5" fill="none" />
<circle cx="340.0" cy="497.48" r="5" fill="black" stroke="none" />
<circle cx="412.0" cy="529.48" r="5" fill="black" stroke="none" />
<path d="M412.0,529.48 L419.2494556800636,527.0514323471788" stroke="grey" stroke-width="5" />
<circle cx="419.2494556800636" cy="527.0514323471788" r="2.5" fill="grey" stroke="none" />
<path d="M419.2494556800636,527.0514323471788 A85.16120243397225,85.16120243397225,0,0,0,428.0,545.48" stroke="grey" stroke-width="5" fill="none" />
<circle cx="412.0" cy="529.48" r="5" fill="black" stroke="none" />
<circle cx="428.0" cy="545.48" r="5" fill="black" stroke="none" />
<path d="M428.0,545.48 A85.16120243397225,85.16120243397225,0,0,0,460.9334567088154,575.6718943550246" stroke="grey" stroke-width="5" fill="none" />
<path d="M460.9334567088154,575.6718943550246 L-40.0,77.48000000000002" stroke="grey" stroke-width="5" />
<circle cx="460.9334567088154" cy="575.6718943550246" r="2.5" fill="grey" stroke="none" />
<circle cx="428.0" cy="545.48" r="5" fill="black" stroke="none" />
<circle cx="460.0" cy="577.48" r="5" fill="black" stroke="none" />
<path d="M428.0,545.48 A85.16120243397225,85.16120243397225,0,0,0,446.68760211157644,566.4094769696796" stroke="grey" stroke-width="5" fill="none" />
<path d="M446.68760211157644,566.4094769696796 L-120.0,149.48000000000002" stroke="grey" stroke-width="5" />
<circle cx="446.68760211157644" cy="566.4094769696796" r="2.5" fill="grey" stroke="none" />
<circle cx="428.0" cy="545.48" r="5" fill="black" stroke="none" />
<circle cx="380.0" cy="649.48" r="5" fill="black" stroke="none" />
<path d="M380.0,649.48 A191.68795058636317,191.68795058636317,0,0,0,411.17385392648936,669.8652000079103" stroke="grey" stroke-width="5" fill="none" />
<path d="M411.17385392648936,669.8652000079103 L-120.0,229.48000000000002" stroke="grey" stroke-width="5" />
<circle cx="411.17385392648936" cy="669.8652000079103" r="2.5" fill="grey" stroke="none" />
<circle cx="380.0" cy="649.48" r="5" fill="black" stroke="none" />
<circle cx="380.0" cy="729.48" r="5" fill="black" stroke="none" />
<path d="M276.0,745.48 L325.44709595023335,691.2912807416819" stroke="grey" stroke-width="5" />
<circle cx="325.44709595023335" cy="691.2912807416819" r="2.5" fill="grey" stroke="none" />
<path d="M325.44709595023335,691.2912807416819 A258.9615230106589,258.9615230106589,0,0,0,380.0,729.48" stroke="grey" stroke-width="5" fill="none" />
<circle cx="276.0" cy="745.48" r="5" fill="black" stroke="none" />
<circle cx="380.0" cy="729.48" r="5" fill="black" stroke="none" />
<path d="M380.0,729.48 A258.9615230106589,258.9615230106589,0,0,0,415.9006829818356,744.9252442625674" stroke="grey" stroke-width="5" fill="none" />
<path d="M415.90068298183564,744.9252442625674 L-120.0,349.48" stroke="grey" stroke-width="5" />
<circle cx="415.90068298183564" cy="744.9252442625674" r="2.5" fill="grey" stroke="none" />
<circle cx="380.0" cy="729.48" r="5" fill="black" stroke="none" />
<circle cx="380.0" cy="849.48" r="5" fill="black" stroke="none" />
<path d="M380.0,649.48 L403.13046031690465,620.6671565985758" stroke="grey" stroke-width="5" />
<circle cx="403.13046031690465" cy="620.6671565985758" r="2.5" fill="grey" stroke="none" />
<path d="M403.13046031690465,620.6671565985758 A154.73936280080775,154.73936280080775,0,0,0,460.0,649.48" stroke="grey" stroke-width="5" fill="none" />
<circle cx="380.0" cy="649.48" r="5" fill="black" stroke="none" />
<circle cx="460.0" cy="649.48" r="5" fill="black" stroke="none" />
<path d="M460.0,577.48 A87.1960457819046,87.1960457819046,0,0,0,477.45989276325247,584.2323807437255" stroke="grey" stroke-width="5" fill="none" />
<path d="M477.45989276325247,584.2323807437255 L-40.0,149.48000000000002" stroke="grey" stroke-width="5" />
<circle cx="477.45989276325247" cy="584.2323807437255" r="2.5" fill="grey" stroke="none" />
<circle cx="460.0" cy="577.48" r="5" fill="black" stroke="none" />
<circle cx="460.0" cy="649.48" r="5" fill="black" stroke="none" />
<path d="M460.0,649.48 L460.48404594210666,647.6711203143474" stroke="grey" stroke-width="5" />
<circle cx="460.48404594210666" cy="647.6711203143474" r="2.5" fill="grey" stroke="none" />
<path d="M460.48404594210666,647.6711203143474 A152.8668387846102,152.8668387846102,0,0,0,532.0,649.48" stroke="grey" stroke-width="5" fill="none" />
<circle cx="460.0" cy="649.48" r="5" fill="black" stroke="none" />
<circle cx="532.0" cy="649.48" r="5" fill="black" stroke="none" />
<path d="M460.0,577.48 L464.45710384904675,568.8465898443965" stroke="grey" stroke-width="5" />
<circle cx="464.45710384904675" cy="568.8465898443965" r="2.5" fill="grey" stroke="none" />
<path d="M464.45710384904675,568.8465898443965 A77.48000000000002,77.48000000000002,0,0,0,500.0,577.48" stroke="grey" stroke-width="5" fill="none" />
<circle cx="460.0" cy="577.48" r="5" fill="black" stroke="none" />
<circle cx="500.0" cy="577.48" r="5" fill="black" stroke="none" />
<path d="M532.0,649.48 A152.8668387846102,152.8668387846102,0,0,0,612.9298674054169,603.0296823628753" stroke="grey" stroke-width="5" fill="none" />
<path d="M612.9298674054169,603.0296823628753 L120.0,109.48000000000002" stroke="grey" stroke-width="5" />
<circle cx="612.9298674054169" cy="603.0296823628753" r="2.5" fill="grey" stroke="none" />
<circle cx="532.0" cy="649.48" r="5" fill="black" stroke="none" />
<circle cx="620.0" cy="609.48" r="5" fill="black" stroke="none" />
<path d="M500.0,577.48 A77.48000000000002,77.48000000000002,0,0,0,568.2304604533815,536.7117783050555" stroke="grey" stroke-width="5" fill="none" />
<path d="M568.2304604533815,536.7117783050555 L144.0,77.48000000000002" stroke="grey" stroke-width="5" />
<circle cx="568.2304604533815" cy="536.7117783050555" r="2.5" fill="grey" stroke="none" />
<circle cx="500.0" cy="577.48" r="5" fill="black" stroke="none" />
<circle cx="644.0" cy="577.48" r="5" fill="black" stroke="none" />
<path d="M620.0,609.48 A162.43728143502034,162.43728143502034,0,0,0,643.045566689558,576.9664618549094" stroke="grey" stroke-width="5" fill="none" />
<path d="M643.045566689558,576.9664618549094 L144.0,77.48000000000002" stroke="grey" stroke-width="5" />
<circle cx="643.045566689558" cy="576.9664618549094" r="2.5" fill="grey" stroke="none" />
<circle cx="620.0" cy="609.48" r="5" fill="black" stroke="none" />
<circle cx="644.0" cy="577.48" r="5" fill="black" stroke="none" />
<path d="M380.0,729.48 L393.6614224389368,703.3548064892732" stroke="grey" stroke-width="5" />
<circle cx="393.6614224389368" cy="703.3548064892732" r="2.5" fill="grey" stroke="none" />
<path d="M393.6614224389368,703.3548064892732 A229.48000000000002,229.48000000000002,0,0,0,500.0,729.48" stroke="grey" stroke-width="5" fill="none" />
<circle cx="380.0" cy="729.48" r="5" fill="black" stroke="none" />
<circle cx="500.0" cy="729.48" r="5" fill="black" stroke="none" />
<path d="M500.0,729.48 L500.0,664.4168799120091" stroke="grey" stroke-width="5" />
<circle cx="500.0" cy="664.4168799120091" r="2.5" fill="grey" stroke="none" />
<path d="M500.0,664.4168799120091 A164.41687991200905,164.41687991200905,0,0,0,596.0,633.48" stroke="grey" stroke-width="5" fill="none" />
<circle cx="500.0" cy="729.48" r="5" fill="black" stroke="none" />
<circle cx="596.0" cy="633.48" r="5" fill="black" stroke="none" />
<path d="M596.0,633.48 L594.844148764454,631.8728851779096" stroke="grey" stroke-width="5" />
<circle cx="594.844148764454" cy="631.8728851779096" r="2.5" fill="grey" stroke="none" />
<path d="M594.844148764454,631.8728851779096 A162.43728143502034,162.43728143502034,0,0,0,620.0,609.48" stroke="grey" stroke-width="5" fill="none" />
<circle cx="596.0" cy="633.48" r="5" fill="black" stroke="none" />
<circle cx="620.0" cy="609.48" r="5" fill="black" stroke="none" />
<path d="M620.0,609.48 A162.43728143502034,162.43728143502034,0,0,1,608.5987968771345,620.7980617263327" stroke="grey" stroke-width="5" fill="none" />
<path d="M608.5987968771345,620.7980617263327 L120.0,133.48000000000002" stroke="grey" stroke-width="5" />
<circle cx="608.5987968771345" cy="620.7980617263327" r="2.5" fill="grey" stroke="none" />
<circle cx="620.0" cy="609.48" r="5" fill="black" stroke="none" />
<circle cx="620.0" cy="633.48" r="5" fill="black" stroke="none" />
<path d="M620.0,633.48 A179.4906972519746,179.4906972519746,0,0,1,564.8897354833275,667.3506278115018" stroke="grey" stroke-width="5" fill="none" />
<path d="M564.8897354833275,667.3506278115018 L120.0,309.48" stroke="grey" stroke-width="5" />
<circle cx="564.8897354833275" cy="667.3506278115018" r="2.5" fill="grey" stroke="none" />
<circle cx="620.0" cy="633.48" r="5" fill="black" stroke="none" />
<circle cx="620.0" cy="809.48" r="5" fill="black" stroke="none" />
<path d="M620.0,809.48 A331.9305204406489,331.9305204406489,0,0,0,689.9740582121913,772.1906089606896" stroke="grey" stroke-width="5" fill="none" />
<path d="M689.9740582121913,772.1906089606896 L216.0,309.48" stroke="grey" stroke-width="5" />
<circle cx="689.9740582121913" cy="772.1906089606896" r="2.5" fill="grey" stroke="none" />
<circle cx="620.0" cy="809.48" r="5" fill="black" stroke="none" />
<circle cx="716.0" cy="809.48" r="5" fill="black" stroke="none" />
<path d="M620.0,809.48 A331.9305204406489,331.9305204406489,0,0,1,605.6308871482679,814.67441281469" stroke="grey" stroke-width="5" fill="none" />
<path d="M605.6308871482679,814.67441281469 L120.0,357.48" stroke="grey" stroke-width="5" />
<circle cx="605.6308871482679" cy="814.67441281469" r="2.5" fill="grey" stroke="none" />
<circle cx="620.0" cy="809.48" r="5" fill="black" stroke="none" />
<circle cx="620.0" cy="857.48" r="5" fill="black" stroke="none" />
<path d="M308.0,433.48 L437.1454446851177,478.22351552319805" stroke="grey" stroke-width="5" />
<circle cx="437.1454446851177" cy="478.22351552319805" r="2.5" fill="grey" stroke="none" />
<path d="M437.1454446851177,478.22351552319805 A66.51999999999998,66.51999999999998,0,0,1,500.0,433.48" stroke="grey" stroke-width="5" fill="none" />
<circle cx="308.0" cy="433.48" r="5" fill="black" stroke="none" />
<circle cx="500.0" cy="433.48" r="5" fill="black" stroke="none" />
<path d="M500.0,433.48 L500.0,577.48" stroke="grey" stroke-width="5" />
<circle cx="500.0" cy="433.48" r="5" fill="black" stroke="none" />
<circle cx="500.0" cy="577.48" r="5" fill="black" stroke="none" />
<path d="M500.0,433.48 A66.51999999999998,66.51999999999998,0,0,1,500.0,433.48" stroke="grey" stroke-width="5" fill="none" />
<path d="M500.0,433.48 L0.0,-146.51999999999998" stroke="grey" stroke-width="5" />
<circle cx="500.0" cy="433.48" r="2.5" fill="grey" stroke="none" />
<circle cx="500.0" cy="433.48" r="5" fill="black" stroke="none" />
<circle cx="500.0" cy="353.48" r="5" fill="black" stroke="none" />
<path d="M500.0,353.48 A146.51999999999998,146.51999999999998,0,0,1,500.0,353.48" stroke="grey" stroke-width="5" fill="none" />
<path d="M500.0,353.48 L0.0,-202.51999999999998" stroke="grey" stroke-width="5" />
<circle cx="500.0" cy="353.48" r="2.5" fill="grey" stroke="none" />
<circle cx="500.0" cy="353.48" r="5" fill="black" stroke="none" />
<circle cx="500.0" cy="297.48" r="5" fill="black" stroke="none" />
<path d="M500.0,353.48 L500.0,391.5183407206546" stroke="grey" stroke-width="5" />
<circle cx="500.0" cy="391.5183407206546" r="2.5" fill="grey" stroke="none" />
<path d="M500.0,391.5183407206546 A108.48165927934545,108.48165927934545,0,0,1,596.0,449.48" stroke="grey" stroke-width="5" fill="none" />
<circle cx="500.0" cy="353.48" r="5" fill="black" stroke="none" />
<circle cx="596.0" cy="449.48" r="5" fill="black" stroke="none" />
<path d="M500.0,433.48 A66.51999999999998,66.51999999999998,0,0,1,558.8663562340612,469.0215800318253" stroke="grey" stroke-width="5" fill="none" />
<path d="M558.8663562340612,469.0215800318253 L96.0,-50.51999999999998" stroke="grey" stroke-width="5" />
<circle cx="558.8663562340612" cy="469.0215800318253" r="2.5" fill="grey" stroke="none" />
<circle cx="500.0" cy="433.48" r="5" fill="black" stroke="none" />
<circle cx="596.0" cy="449.48" r="5" fill="black" stroke="none" />
<path d="M596.0,449.48 A108.48165927934545,108.48165927934545,0,0,1,607.2945375345957,516.0047685155772" stroke="grey" stroke-width="5" fill="none" />
<path d="M607.2945375345957,516.0047685155772 L144.0,21.480000000000018" stroke="grey" stroke-width="5" />
<circle cx="607.2945375345957" cy="516.0047685155772" r="2.5" fill="grey" stroke="none" />
<circle cx="596.0" cy="449.48" r="5" fill="black" stroke="none" />
<circle cx="644.0" cy="521.48" r="5" fill="black" stroke="none" />
<path d="M596.0,633.48 A164.41687991200905,164.41687991200905,0,0,0,609.9222739200989,622.2702093571233" stroke="grey" stroke-width="5" fill="none" />
<path d="M609.9222739200989,622.2702093571232 L120.0,133.48000000000002" stroke="grey" stroke-width="5" />
<circle cx="609.9222739200989" cy="622.2702093571232" r="2.5" fill="grey" stroke="none" />
<circle cx="596.0" cy="633.48" r="5" fill="black" stroke="none" />
<circle cx="620.0" cy="633.48" r="5" fill="black" stroke="none" />
<path d="M620.0,633.48 A179.4906972519746,179.4906972519746,0,0,0,631.6363562213065,622.01958908625" stroke="grey" stroke-width="5" fill="none" />
<path d="M631.6363562213065,622.01958908625 L144.0,133.48000000000002" stroke="grey" stroke-width="5" />
<circle cx="631.6363562213065" cy="622.01958908625" r="2.5" fill="grey" stroke="none" />
<circle cx="620.0" cy="633.48" r="5" fill="black" stroke="none" />
<circle cx="644.0" cy="633.48" r="5" fill="black" stroke="none" />
<path d="M644.0,633.48 L619.924442889853,611.1632960898443" stroke="grey" stroke-width="5" />
<circle cx="619.924442889853" cy="611.1632960898443" r="2.5" fill="grey" stroke="none" />
<path d="M619.924442889853,611.1632960898443 A163.52110077907378,163.52110077907378,0,0,0,644.0,577.48" stroke="grey" stroke-width="5" fill="none" />
<circle cx="644.0" cy="633.48" r="5" fill="black" stroke="none" />
<circle cx="644.0" cy="577.48" r="5" fill="black" stroke="none" />
<path d="M644.0,577.48 L637.8832907784299,574.1888706216164" stroke="grey" stroke-width="5" />
<circle cx="637.8832907784299" cy="574.1888706216164" r="2.5" fill="grey" stroke="none" />
<path d="M637.8832907784299,574.1888706216164 A156.5751908828471,156.5751908828471,0,0,0,644.0,561.48" stroke="grey" stroke-width="5" fill="none" />
<circle cx="644.0" cy="577.48" r="5" fill="black" stroke="none" />
<circle cx="644.0" cy="561.48" r="5" fill="black" stroke="none" />
<path d="M644.0,561.48 L638.8830216542434,559.2953345229367" stroke="grey" stroke-width="5" />
<circle cx="638.8830216542434" cy="559.2953345229367" r="2.5" fill="grey" stroke="none" />
<path d="M638.8830216542434,559.2953345229367 A151.01135851319265,151.01135851319265,0,0,0,644.0,545.48" stroke="grey" stroke-width="5" fill="none" />
<circle cx="644.0" cy="561.48" r="5" fill="black" stroke="none" />
<circle cx="644.0" cy="545.48" r="5" fill="black" stroke="none" />
<path d="M644.0,545.48 L638.83343746969,543.8482273341771" stroke="grey" stroke-width="5" />
<circle cx="638.83343746969" cy="543.8482273341771" r="2.5" fill="grey" stroke="none" />
<path d="M638.83343746969,543.8482273341771 A145.59323610662688,145.59323610662688,0,0,0,644.0,521.48" stroke="grey" stroke-width="5" fill="none" />
<circle cx="644.0" cy="545.48" r="5" fill="black" stroke="none" />
<circle cx="644.0" cy="521.48" r="5" fill="black" stroke="none" />
<path d="M644.0,521.48 A145.59323610662688,145.59323610662688,0,0,0,644.6905769866057,516.1872583003766" stroke="grey" stroke-width="5" fill="none" />
<path d="M644.6905769866057,516.1872583003766 L192.0,21.480000000000018" stroke="grey" stroke-width="5" />
<circle cx="644.6905769866057" cy="516.1872583003766" r="2.5" fill="grey" stroke="none" />
<circle cx="644.0" cy="521.48" r="5" fill="black" stroke="none" />
<circle cx="692.0" cy="521.48" r="5" fill="black" stroke="none" />
<path d="M692.0,521.48 A193.19780122972415,193.19780122972415,0,0,1,683.9951208491177,558.9167709885612" stroke="grey" stroke-width="5" fill="none" />
<path d="M683.9951208491177,558.9167709885612 L192.0,61.48000000000002" stroke="grey" stroke-width="5" />
<circle cx="683.9951208491177" cy="558.9167709885612" r="2.5" fill="grey" stroke="none" />
<circle cx="692.0" cy="521.48" r="5" fill="black" stroke="none" />
<circle cx="692.0" cy="561.48" r="5" fill="black" stroke="none" />
<path d="M692.0,561.48 L649.1169722693032,547.7484971620664" stroke="grey" stroke-width="5" />
<circle cx="649.1169722693032" cy="547.7484971620664" r="2.5" fill="grey" stroke="none" />
<path d="M649.1169722693032,547.7484971620664 A156.5751908828471,156.5751908828471,0,0,1,644.0,561.48" stroke="grey" stroke-width="5" fill="none" />
<circle cx="692.0" cy="561.48" r="5" fill="black" stroke="none" />
<circle cx="644.0" cy="561.48" r="5" fill="black" stroke="none" />
<path d="M644.0,545.48 A151.01135851319265,151.01135851319265,0,0,0,647.9917935614392,530.0476195141708" stroke="grey" stroke-width="5" fill="none" />
<path d="M647.9917935614392,530.0476195141708 L224.0,45.48000000000002" stroke="grey" stroke-width="5" />
<circle cx="647.9917935614392" cy="530.0476195141708" r="2.5" fill="grey" stroke="none" />
<circle cx="644.0" cy="545.48" r="5" fill="black" stroke="none" />
<circle cx="724.0" cy="545.48" r="5" fill="black" stroke="none" />
<circle cx="500" cy="500" r="5" fill="red" stroke="none" />
</svg>