<?xml version="1.0" encoding="UTF-8"?>
<svg xmlns="http://www.w3.org/2000/svg" xmlns:xlink="http://www.w3.org/1999/xlink"
     width="1000" height="1000" viewBox="0 0 1000 1000">
<defs>
</defs>
<rect x="0" y="0" width="1000" height="1000" fill="white" />
<path d="M190.79999999999995,268.0 L229.81165970510125,297.2713617450953" stroke="grey" stroke-width="5" />
<circle cx="229.81165970510125" cy="297.2713617450953" r="2.5" fill="grey" stroke="none" />
<path d="M229.81165970510125,297.2713617450953 A337.7878624225566,337.7878624225566,0,0,0,190.79999999999995,364.0" stroke="grey" stroke-width="5" fill="none" />
<circle cx="190.79999999999995" cy="268.0" r="5" fill="black" stroke="none" />
<circle cx="190.79999999999995" cy="364.0" r="5" fill="black" stroke="none" />
<path d="M190.79999999999995,364.0 L263.9078817012013,396.15611873015325" stroke="grey" stroke-width="5" />
<circle cx="263.9078817012013" cy="396.15611873015325" r="2.5" fill="grey" stroke="none" />
<path d="M263.9078817012013,396.15611873015325 A257.9206079397302,257.9206079397302,0,0,0,254.79999999999998,420.0" stroke="grey" stroke-width="5" fill="none" />
<circle cx="190.79999999999995" cy="364.0" r="5" fill="black" stroke="none" />
<circle cx="254.79999999999995" cy="420.0" r="5" fill="black" stroke="none" />
<path d="M166.79999999999995,420.0 L249.206742715365,439.7855324646735" stroke="grey" stroke-width="5" />
<circle cx="249.206742715365" cy="439.7855324646735" r="2.5" fill="grey" stroke="none" />
<path d="M249.206742715365,439.7855324646735 A257.9206079397302,257.9206079397302,0,0,1,254.79999999999998,420.0" stroke="grey" stroke-width="5" fill="none" />
<circle cx="166.79999999999995" cy="420.0" r="5" fill="black" stroke="none" />
<circle cx="254.79999999999995" cy="420.0" r="5" fill="black" stroke="none" />
<path d="M254.79999999999995,420.0 L329.135932071869,444.25315891414976" stroke="grey" stroke-width="5" />
<circle cx="329.135932071869" cy="444.25315891414976" r="2.5" fill="grey" stroke="none" />
<path d="M329.135932071869,444.25315891414976 A179.7282392947753,179.7282392947753,0,0,0,326.79999999999995,452.00000000000006" stroke="grey" stroke-width="5" fill="none" />
<circle cx="254.79999999999995" cy="420.0" r="5" fill="black" stroke="none" />
<circle cx="326.79999999999995" cy="452.0" r="5" fill="black" stroke="none" />
<path d="M326.79999999999995,452.0 L345.40311398167864,457.1555974083175" stroke="grey" stroke-width="5" />
<circle cx="345.40311398167864" cy="457.1555974083175" r="2.5" fill="grey" stroke="none" />
<path d="M345.40311398167864,457.1555974083175 A160.42393836332536,160.42393836332536,0,0,0,342.79999999999995,467.99999999999994" stroke="grey" stroke-width="5" fill="none" />
<circle cx="326.79999999999995" cy="452.0" r="5" fill="black" stroke="none" />
<circle cx="342.79999999999995" cy="468.0" r="5" fill="black" stroke="none" />
<path d="M342.79999999999995,468.0 L377.31606516587425,475.0261710261322" stroke="grey" stroke-width="5" />
<circle cx="377.31606516587425" cy="475.0261710261322" r="2.5" fill="grey" stroke="none" />
<path d="M377.31606516587425,475.02617102613215 A125.20000000000005,125.20000000000005,0,0,0,374.79999999999995,500.0" stroke="grey" stroke-width="5" fill="none" />
<circle cx="342.79999999999995" cy="468.0" r="5" fill="black" stroke="none" />
<circle cx="374.79999999999995" cy="500.0" r="5" fill="black" stroke="none" />
<path d="M342.79999999999995,467.99999999999994 A160.42393836332536,160.42393836332536,0,0,0,348.6239746266798,553.1143948678316" stroke="grey" stroke-width="5" fill="none" />
<path d="M348.6239746266798,553.1143948678316 L-205.20000000000005,72.0" stroke="grey" stroke-width="5" />
<circle cx="348.6239746266798" cy="553.1143948678316" r="2.5" fill="grey" stroke="none" />
<circle cx="342.79999999999995" cy="468.0" r="5" fill="black" stroke="none" />
<circle cx="294.79999999999995" cy="572.0" r="5" fill="black" stroke="none" />
<path d="M294.79999999999995,572.0 A217.465031671761,217.465031671761,0,0,0,325.25440949921347,629.4411781487307" stroke="grey" stroke-width="5" fill="none" />
<path d="M325.25440949921347,629.4411781487307 L-205.20000000000005,152.0" stroke="grey" stroke-width="5" />
<circle cx="325.25440949921347" cy="629.4411781487307" r="2.5" fill="grey" stroke="none" />
<circle cx="294.79999999999995" cy="572.0" r="5" fill="black" stroke="none" />
<circle cx="294.79999999999995" cy="652.0" r="5" fill="black" stroke="none" />
<path d="M190.79999999999995,668.0 L275.6172342103073,621.9156036632224" stroke="grey" stroke-width="5" />
<circle cx="275.6172342103073" cy="621.9156036632224" r="2.5" fill="grey" stroke="none" />
<path d="M275.6172342103073,621.9156036632224 A255.36452376945397,255.36452376945397,0,0,0,294.79999999999995,652.0" stroke="grey" stroke-width="5" fill="none" />
<circle cx="190.79999999999995" cy="668.0" r="5" fill="black" stroke="none" />
<circle cx="294.79999999999995" cy="652.0" r="5" fill="black" stroke="none" />
<path d="M294.79999999999995,652.0 A255.36452376945397,255.36452376945397,0,0,0,346.2062917273505,703.8591064822643" stroke="grey" stroke-width="5" fill="none" />
<path d="M346.2062917273505,703.8591064822643 L-205.20000000000005,272.0" stroke="grey" stroke-width="5" />
<circle cx="346.2062917273505" cy="703.8591064822643" r="2.5" fill="grey" stroke="none" />
<circle cx="294.79999999999995" cy="652.0" r="5" fill="black" stroke="none" />
<circle cx="294.79999999999995" cy="772.0" r="5" fill="black" stroke="none" />
<path d="M294.79999999999995,572.0 L363.719071926641,547.8178694994242" stroke="grey" stroke-width="5" />
<circle cx="363.719071926641" cy="547.8178694994242" r="2.5" fill="grey" stroke="none" />
<path d="M363.719071926641,547.8178694994242 A144.42659034956137,144.42659034956137,0,0,0,374.79999999999995,572.0" stroke="grey" stroke-width="5" fill="none" />
<circle cx="294.79999999999995" cy="572.0" r="5" fill="black" stroke="none" />
<circle cx="374.79999999999995" cy="572.0" r="5" fill="black" stroke="none" />
<path d="M374.79999999999995,500.0 A125.20000000000005,125.20000000000005,0,0,0,391.46707706620305,562.4150994507459" stroke="grey" stroke-width="5" fill="none" />
<path d="M391.46707706620305,562.4150994507459 L-125.20000000000005,72.0" stroke="grey" stroke-width="5" />
<circle cx="391.46707706620305" cy="562.4150994507459" r="2.5" fill="grey" stroke="none" />
<circle cx="374.79999999999995" cy="500.0" r="5" fill="black" stroke="none" />
<circle cx="374.79999999999995" cy="572.0" r="5" fill="black" stroke="none" />
<path d="M374.79999999999995,572.0 L422.3952431724681,544.6289336388362" stroke="grey" stroke-width="5" />
<circle cx="422.3952431724681" cy="544.6289336388362" r="2.5" fill="grey" stroke="none" />
<path d="M422.3952431724681,544.6289336388362 A89.52228772769385,89.52228772769385,0,0,0,446.79999999999995,572.0" stroke="grey" stroke-width="5" fill="none" />
<circle cx="374.79999999999995" cy="572.0" r="5" fill="black" stroke="none" />
<circle cx="446.79999999999995" cy="572.0" r="5" fill="black" stroke="none" />
<path d="M374.79999999999995,500.0 L414.79999999999995,500.0" stroke="grey" stroke-width="5" />
<circle cx="414.79999999999995" cy="500.0" r="2.5" fill="grey" stroke="none" />
<path d="M414.79999999999995,500.0 A85.20000000000005,85.20000000000005,0,0,1,414.79999999999995,500.0" stroke="grey" stroke-width="5" fill="none" />
<circle cx="374.79999999999995" cy="500.0" r="5" fill="black" stroke="none" />
<circle cx="414.79999999999995" cy="500.0" r="5" fill="black" stroke="none" />
<path d="M446.79999999999995,572.0 L471.9053833648029,538.0227894310939" stroke="grey" stroke-width="5" />
<circle cx="471.9053833648029" cy="538.0227894310939" r="2.5" fill="grey" stroke="none" />
<path d="M471.9053833648029,538.0227894310939 A47.27620966194304,47.27620966194304,0,0,0,534.8,532.0" stroke="grey" stroke-width="5" fill="none" />
<circle cx="446.79999999999995" cy="572.0" r="5" fill="black" stroke="none" />
<circle cx="534.8" cy="532.0" r="5" fill="black" stroke="none" />
<path d="M414.79999999999995,500.0 L558.8,500.0" stroke="grey" stroke-width="5" />
<circle cx="414.79999999999995" cy="500.0" r="5" fill="black" stroke="none" />
<circle cx="558.8" cy="500.0" r="5" fill="black" stroke="none" />
<path d="M534.8,532.0 A47.27620966194304,47.27620966194304,0,0,0,547.2762096619431,500.0" stroke="grey" stroke-width="5" fill="none" />
<path d="M547.2762096619431,500.0 L58.799999999999955,0.0" stroke="grey" stroke-width="5" />
<circle cx="547.2762096619431" cy="500.0" r="2.5" fill="grey" stroke="none" />
<circle cx="534.8" cy="532.0" r="5" fill="black" stroke="none" />
<circle cx="558.8" cy="500.0" r="5" fill="black" stroke="none" />
<path d="M294.79999999999995,652.0 L359.9802109392769,603.7183622672023" stroke="grey" stroke-width="5" />
<circle cx="359.9802109392769" cy="603.7183622672023" r="2.5" fill="grey" stroke="none" />
<path d="M359.9802109392769,603.7183622672023 A174.24993543757773,174.24993543757773,0,0,0,414.79999999999995,652.0" stroke="grey" stroke-width="5" fill="none" />
<circle cx="294.79999999999995" cy="652.0" r="5" fill="black" stroke="none" />
<circle cx="414.79999999999995" cy="652.0" r="5" fill="black" stroke="none" />
<path d="M414.79999999999995,652.0 L472.1140805744085,549.7495276137313" stroke="grey" stroke-width="5" />
<circle cx="472.1140805744085" cy="549.7495276137313" r="2.5" fill="grey" stroke="none" />
<path d="M472.1140805744085,549.7495276137313 A57.03192088646497,57.03192088646497,0,0,0,510.79999999999995,556.0" stroke="grey" stroke-width="5" fill="none" />
<circle cx="414.79999999999995" cy="652.0" r="5" fill="black" stroke="none" />
<circle cx="510.79999999999995" cy="556.0" r="5" fill="black" stroke="none" />
<path d="M510.79999999999995,556.0 L508.9525840338679,546.4208061015374" stroke="grey" stroke-width="5" />
<circle cx="508.9525840338679" cy="546.4208061015374" r="2.5" fill="grey" stroke="none" />
<path d="M508.9525840338679,546.4208061015374 A47.27620966194304,47.27620966194304,0,0,0,534.8,532.0" stroke="grey" stroke-width="5" fill="none" />
<circle cx="510.79999999999995" cy="556.0" r="5" fill="black" stroke="none" />
<circle cx="534.8" cy="532.0" r="5" fill="black" stroke="none" />
<path d="M534.8,532.0 A47.27620966194304,47.27620966194304,0,0,1,524.9531326747668,540.1544663731879" stroke="grey" stroke-width="5" fill="none" />
<path d="M524.9531326747668,540.1544663731879 L34.799999999999955,56.0" stroke="grey" stroke-width="5" />
<circle cx="524.9531326747668" cy="540.1544663731879" r="2.5" fill="grey" stroke="none" />
<circle cx="534.8" cy="532.0" r="5" fill="black" stroke="none" />
<circle cx="534.8" cy="556.0" r="5" fill="black" stroke="none" />
<path d="M534.8,556.0 A65.93208627064669,65.93208627064669,0,0,1,509.7803955400237,565.2026369334912" stroke="grey" stroke-width="5" fill="none" />
<path d="M509.7803955400237,565.2026369334912 L34.799999999999955,232.0" stroke="grey" stroke-width="5" />
<circle cx="509.7803955400237" cy="565.2026369334912" r="2.5" fill="grey" stroke="none" />
<circle cx="534.8" cy="556.0" r="5" fill="black" stroke="none" />
<circle cx="534.8" cy="732.0" r="5" fill="black" stroke="none" />
<path d="M534.8,732.0 A234.5954816274175,234.5954816274175,0,0,0,615.2137534252894,704.3546696839996" stroke="grey" stroke-width="5" fill="none" />
<path d="M615.2137534252894,704.3546696839996 L130.79999999999995,232.0" stroke="grey" stroke-width="5" />
<circle cx="615.2137534252894" cy="704.3546696839996" r="2.5" fill="grey" stroke="none" />
<circle cx="534.8" cy="732.0" r="5" fill="black" stroke="none" />
<circle cx="630.8" cy="732.0" r="5" fill="black" stroke="none" />
<path d="M534.8,732.0 A234.5954816274175,234.5954816274175,0,0,1,528.9342505945638,732.804315128674" stroke="grey" stroke-width="5" fill="none" />
<path d="M528.9342505945638,732.804315128674 L34.799999999999955,280.0" stroke="grey" stroke-width="5" />
<circle cx="528.9342505945638" cy="732.804315128674" r="2.5" fill="grey" stroke="none" />
<circle cx="534.8" cy="732.0" r="5" fill="black" stroke="none" />
<circle cx="534.8" cy="780.0" r="5" fill="black" stroke="none" />
<path d="M222.79999999999995,356.0 L351.5218243335977,422.8684801732975" stroke="grey" stroke-width="5" />
<circle cx="351.5218243335977" cy="422.8684801732975" r="2.5" fill="grey" stroke="none" />
<path d="M351.5218243335977,422.8684801732975 A167.31718381565,167.31718381565,0,0,1,414.79999999999995,356.0" stroke="grey" stroke-width="5" fill="none" />
<circle cx="222.79999999999995" cy="356.0" r="5" fill="black" stroke="none" />
<circle cx="414.79999999999995" cy="356.0" r="5" fill="black" stroke="none" />
<path d="M414.79999999999995,356.0 L456.61509574534784,426.6734012597429" stroke="grey" stroke-width="5" />
<circle cx="456.61509574534784" cy="426.6734012597429" r="2.5" fill="grey" stroke="none" />
<path d="M456.61509574534784,426.6734012597429 A85.20000000000005,85.20000000000005,0,0,0,414.79999999999995,500.0" stroke="grey" stroke-width="5" fill="none" />
<circle cx="414.79999999999995" cy="356.0" r="5" fill="black" stroke="none" />
<circle cx="414.79999999999995" cy="500.0" r="5" fill="black" stroke="none" />
<path d="M414.79999999999995,356.0 A167.31718381565,167.31718381565,0,0,1,440.51716255560905,343.61319732930093" stroke="grey" stroke-width="5" fill="none" />
<path d="M440.51716255560905,343.61319732930093 L-85.20000000000005,-224.0" stroke="grey" stroke-width="5" />
<circle cx="440.51716255560905" cy="343.61319732930093" r="2.5" fill="grey" stroke="none" />
<circle cx="414.79999999999995" cy="356.0" r="5" fill="black" stroke="none" />
<circle cx="414.79999999999995" cy="276.0" r="5" fill="black" stroke="none" />
<path d="M414.79999999999995,276.0 A239.65608692457616,239.65608692457616,0,0,1,430.23438013549395,270.723314999276" stroke="grey" stroke-width="5" fill="none" />
<path d="M430.23438013549395,270.723314999276 L-85.20000000000005,-280.0" stroke="grey" stroke-width="5" />
<circle cx="430.23438013549395" cy="270.723314999276" r="2.5" fill="grey" stroke="none" />
<circle cx="414.79999999999995" cy="276.0" r="5" fill="black" stroke="none" />
<circle cx="414.79999999999995" cy="220.0" r="5" fill="black" stroke="none" />
<path d="M414.79999999999995,276.0 L454.3331006303167,379.93679038956515" stroke="grey" stroke-width="5" />
<circle cx="454.3331006303167" cy="379.93679038956515" r="2.5" fill="grey" stroke="none" />
<path d="M454.3331006303167,379.93679038956515 A128.45481695911602,128.45481695911602,0,0,1,510.79999999999995,372.0" stroke="grey" stroke-width="5" fill="none" />
<circle cx="414.79999999999995" cy="276.0" r="5" fill="black" stroke="none" />
<circle cx="510.79999999999995" cy="372.0" r="5" fill="black" stroke="none" />
<path d="M414.79999999999995,356.0 L434.5892026429564,389.44653967823626" stroke="grey" stroke-width="5" />
<circle cx="434.5892026429564" cy="389.44653967823626" r="2.5" fill="grey" stroke="none" />
<path d="M434.5892026429564,389.44653967823626 A128.45481695911602,128.45481695911602,0,0,1,510.79999999999995,372.0" stroke="grey" stroke-width="5" fill="none" />
<circle cx="414.79999999999995" cy="356.0" r="5" fill="black" stroke="none" />
<circle cx="510.79999999999995" cy="372.0" r="5" fill="black" stroke="none" />
<path d="M510.79999999999995,372.0 L506.8269919397348,419.0875029364759" stroke="grey" stroke-width="5" />
<circle cx="506.8269919397348" cy="419.0875029364759" r="2.5" fill="grey" stroke="none" />
<path d="M506.8269919397348,419.0875029364759 A81.19999999999997,81.19999999999997,0,0,1,558.8,444.0" stroke="grey" stroke-width="5" fill="none" />
<circle cx="510.79999999999995" cy="372.0" r="5" fill="black" stroke="none" />
<circle cx="558.8" cy="444.0" r="5" fill="black" stroke="none" />
<path d="M510.79999999999995,556.0 A57.03192088646497,57.03192088646497,0,0,0,530.10235166383,548.4405658958183" stroke="grey" stroke-width="5" fill="none" />
<path d="M530.10235166383,548.4405658958183 L34.799999999999955,56.0" stroke="grey" stroke-width="5" />
<circle cx="530.10235166383" cy="548.4405658958183" r="2.5" fill="grey" stroke="none" />
<circle cx="510.79999999999995" cy="556.0" r="5" fill="black" stroke="none" />
<circle cx="534.8" cy="556.0" r="5" fill="black" stroke="none" />
<path d="M534.8,556.0 A65.93208627064669,65.93208627064669,0,0,0,547.743924540813,545.4704043245839" stroke="grey" stroke-width="5" fill="none" />
<path d="M547.743924540813,545.4704043245839 L58.799999999999955,56.0" stroke="grey" stroke-width="5" />
<circle cx="547.743924540813" cy="545.4704043245839" r="2.5" fill="grey" stroke="none" />
<circle cx="534.8" cy="556.0" r="5" fill="black" stroke="none" />
<circle cx="558.8" cy="556.0" r="5" fill="black" stroke="none" />
<path d="M558.8,556.0 L542.5793103448275,540.551724137931" stroke="grey" stroke-width="5" />
<circle cx="542.5793103448275" cy="540.551724137931" r="2.5" fill="grey" stroke="none" />
<path d="M542.5793103448275,540.551724137931 A58.799999999999955,58.799999999999955,0,0,0,558.8,500.0" stroke="grey" stroke-width="5" fill="none" />
<circle cx="558.8" cy="556.0" r="5" fill="black" stroke="none" />
<circle cx="558.8" cy="500.0" r="5" fill="black" stroke="none" />
<path d="M558.8,500.0 A58.799999999999955,58.799999999999955,0,0,0,556.7370101968759,484.56135776955756" stroke="grey" stroke-width="5" fill="none" />
<path d="M556.7370101968759,484.56135776955756 L58.799999999999955,-16.0" stroke="grey" stroke-width="5" />
<circle cx="556.7370101968759" cy="484.56135776955756" r="2.5" fill="grey" stroke="none" />
<circle cx="558.8" cy="500.0" r="5" fill="black" stroke="none" />
<circle cx="558.8" cy="484.0" r="5" fill="black" stroke="none" />
<path d="M558.8,484.0 A60.93800127998944,60.93800127998944,0,0,0,553.5250077139992,470.8707441012249" stroke="grey" stroke-width="5" fill="none" />
<path d="M553.5250077139992,470.8707441012249 L58.799999999999955,-32.0" stroke="grey" stroke-width="5" />
<circle cx="553.5250077139992" cy="470.8707441012249" r="2.5" fill="grey" stroke="none" />
<circle cx="558.8" cy="484.0" r="5" fill="black" stroke="none" />
<circle cx="558.8" cy="468.0" r="5" fill="black" stroke="none" />
<path d="M558.8,468.0 A66.94355831594251,66.94355831594251,0,0,0,548.4763698149928,453.8320287476258" stroke="grey" stroke-width="5" fill="none" />
<path d="M548.4763698149928,453.8320287476258 L58.799999999999955,-56.0" stroke="grey" stroke-width="5" />
<circle cx="548.4763698149928" cy="453.8320287476258" r="2.5" fill="grey" stroke="none" />
<circle cx="558.8" cy="468.0" r="5" fill="black" stroke="none" />
<circle cx="558.8" cy="444.0" r="5" fill="black" stroke="none" />
<path d="M558.8,444.0 A81.19999999999997,81.19999999999997,0,0,1,571.9136990076522,462.29244246789773" stroke="grey" stroke-width="5" fill="none" />
<path d="M571.9136990076522,462.29244246789773 L106.79999999999995,-56.0" stroke="grey" stroke-width="5" />
<circle cx="571.9136990076522" cy="462.29244246789773" r="2.5" fill="grey" stroke="none" />
<circle cx="558.8" cy="444.0" r="5" fill="black" stroke="none" />
<circle cx="606.8" cy="444.0" r="5" fill="black" stroke="none" />
<path d="M606.8,444.0 L595.6415456557528,449.85087493705845" stroke="grey" stroke-width="5" />
<circle cx="595.6415456557528" cy="449.85087493705845" r="2.5" fill="grey" stroke="none" />
<path d="M595.6415456557528,449.85087493705845 A107.99185154445678,107.99185154445678,0,0,1,606.8,484.0" stroke="grey" stroke-width="5" fill="none" />
<circle cx="606.8" cy="444.0" r="5" fill="black" stroke="none" />
<circle cx="606.8" cy="484.0" r="5" fill="black" stroke="none" />
<path d="M606.8,484.0 L560.2654593251757,490.97146676776396" stroke="grey" stroke-width="5" />
<circle cx="560.2654593251757" cy="490.97146676776396" r="2.5" fill="grey" stroke="none" />
<path d="M560.2654593251757,490.97146676776396 A60.93800127998944,60.93800127998944,0,0,0,558.8,484.0" stroke="grey" stroke-width="5" fill="none" />
<circle cx="606.8" cy="484.0" r="5" fill="black" stroke="none" />
<circle cx="558.8" cy="484.0" r="5" fill="black" stroke="none" />
<path d="M558.8,468.0 A66.94355831594251,66.94355831594251,0,0,1,565.2323807501468,484.960834409188" stroke="grey" stroke-width="5" fill="none" />
<path d="M565.2323807501468,484.960834409188 L138.79999999999995,-32.0" stroke="grey" stroke-width="5" />
<circle cx="565.2323807501468" cy="484.960834409188" r="2.5" fill="grey" stroke="none" />
<circle cx="558.8" cy="468.0" r="5" fill="black" stroke="none" />
<circle cx="638.8" cy="468.0" r="5" fill="black" stroke="none" />
<circle cx="500" cy="500" r="5" fill="red" stroke="none" />
</svg>