<?xml version="1.0" encoding="UTF-8"?>
<svg xmlns="http://www.w3.org/2000/svg" xmlns:xlink="http://www.w3.org/1999/xlink"
     width="1000" height="1000" viewBox="0 0 1000 1000">
<defs>
</defs>
<rect x="0" y="0" width="1000" height="1000" fill="white" />
<path d="M276.0,511.47999999999996 A224.2939820860114,224.2939820860114,0,0,0,297.7797182035465,597.0296244976911" stroke="grey" stroke-width="5" fill="none" />
<path d="M297.7797182035465,597.0296244976911 L276.0,607.48" stroke="grey" stroke-width="5" />
<circle cx="297.7797182035465" cy="597.0296244976911" r="2.5" fill="grey" stroke="none" />
<circle cx="276.0" cy="511.48" r="5" fill="black" stroke="none" />
<circle cx="276.0" cy="607.48" r="5" fill="black" stroke="none" />
<path d="M276.0,607.48 L293.7639147017804,598.9564930707706" stroke="grey" stroke-width="5" />
<circle cx="293.7639147017804" cy="598.9564930707706" r="2.5" fill="grey" stroke="none" />
<path d="M293.7639147017804,598.9564930707706 A228.74813747875632,228.74813747875632,0,0,0,340.0,663.48" stroke="grey" stroke-width="5" fill="none" />
<circle cx="276.0" cy="607.48" r="5" fill="black" stroke="none" />
<circle cx="340.0" cy="663.48" r="5" fill="black" stroke="none" />
<path d="M252.0,663.48 L309.0138735200527,625.8968224070234" stroke="grey" stroke-width="5" />
<circle cx="309.0138735200527" cy="625.8968224070234" r="2.5" fill="grey" stroke="none" />
<path d="M309.0138735200527,625.8968224070234 A228.74813747875632,228.74813747875632,0,0,0,340.0,663.48" stroke="grey" stroke-width="5" fill="none" />
<circle cx="252.0" cy="663.48" r="5" fill="black" stroke="none" />
<circle cx="340.0" cy="663.48" r="5" fill="black" stroke="none" />
<path d="M340.0,663.48 L350.0537668780637,653.2075636923385" stroke="grey" stroke-width="5" />
<circle cx="350.0537668780637" cy="653.2075636923385" r="2.5" fill="grey" stroke="none" />
<path d="M350.0537668780637,653.2075636923385 A214.37450967873954,214.37450967873954,0,0,0,412.00000000000006,695.48" stroke="grey" stroke-width="5" fill="none" />
<circle cx="340.0" cy="663.48" r="5" fill="black" stroke="none" />
<circle cx="412.0" cy="695.48" r="5" fill="black" stroke="none" />
<path d="M412.00000000000006,695.48 A214.37450967873954,214.37450967873954,0,0,0,430.90900148180464,702.9356162031661" stroke="grey" stroke-width="5" fill="none" />
<path d="M430.90900148180464,702.9356162031661 L428.0,711.48" stroke="grey" stroke-width="5" />
<circle cx="430.90900148180464" cy="702.9356162031661" r="2.5" fill="grey" stroke="none" />
<circle cx="412.0" cy="695.48" r="5" fill="black" stroke="none" />
<circle cx="428.0" cy="711.48" r="5" fill="black" stroke="none" />
<path d="M428.0,711.48 A223.40051566636993,223.40051566636993,0,0,0,463.78421637450907,720.4454749283632" stroke="grey" stroke-width="5" fill="none" />
<path d="M463.78421637450907,720.4454749283632 L460.0,743.48" stroke="grey" stroke-width="5" />
<circle cx="463.78421637450907" cy="720.4454749283632" r="2.5" fill="grey" stroke="none" />
<circle cx="428.0" cy="711.48" r="5" fill="black" stroke="none" />
<circle cx="460.0" cy="743.48" r="5" fill="black" stroke="none" />
<path d="M428.0,711.48 A223.40051566636993,223.40051566636993,0,0,1,420.5761591871953,708.8052774968637" stroke="grey" stroke-width="5" fill="none" />
<path d="M420.57615918719523,708.8052774968637 L380.0,815.48" stroke="grey" stroke-width="5" />
<circle cx="420.57615918719523" cy="708.8052774968637" r="2.5" fill="grey" stroke="none" />
<circle cx="428.0" cy="711.48" r="5" fill="black" stroke="none" />
<circle cx="380.0" cy="815.48" r="5" fill="black" stroke="none" />
<path d="M380.0000000000001,815.48 A337.5316731804587,337.5316731804587,0,0,0,401.9954559358821,822.9903090539782" stroke="grey" stroke-width="5" fill="none" />
<path d="M401.99545593588203,822.9903090539782 L380.0,895.48" stroke="grey" stroke-width="5" />
<circle cx="401.99545593588203" cy="822.9903090539782" r="2.5" fill="grey" stroke="none" />
<circle cx="380.0" cy="815.48" r="5" fill="black" stroke="none" />
<circle cx="380.0" cy="895.48" r="5" fill="black" stroke="none" />
<path d="M276.0,911.48 L302.3993160299666,862.9853992856669" stroke="grey" stroke-width="5" />
<circle cx="302.3993160299666" cy="862.9853992856669" r="2.5" fill="grey" stroke="none" />
<path d="M302.3993160299666,862.9853992856669 A413.2849264127595,413.2849264127595,0,0,0,380.0000000000001,895.48" stroke="grey" stroke-width="5" fill="none" />
<circle cx="276.0" cy="911.48" r="5" fill="black" stroke="none" />
<circle cx="380.0" cy="895.48" r="5" fill="black" stroke="none" />
<path d="M380.0000000000001,895.48 A413.2849264127595,413.2849264127595,0,0,0,406.29580383959967,902.5219919730265" stroke="grey" stroke-width="5" fill="none" />
<path d="M406.29580383959967,902.5219919730265 L380.0,1015.48" stroke="grey" stroke-width="5" />
<circle cx="406.29580383959967" cy="902.5219919730265" r="2.5" fill="grey" stroke="none" />
<circle cx="380.0" cy="895.48" r="5" fill="black" stroke="none" />
<circle cx="380.0" cy="1015.48" r="5" fill="black" stroke="none" />
<path d="M380.0,815.48 L386.94191387905073,797.2297084119756" stroke="grey" stroke-width="5" />
<circle cx="386.94191387905073" cy="797.2297084119756" r="2.5" fill="grey" stroke="none" />
<path d="M386.94191387905084,797.2297084119757 A318.00570812487,318.00570812487,0,0,0,459.9999999999999,815.48" stroke="grey" stroke-width="5" fill="none" />
<circle cx="380.0" cy="815.48" r="5" fill="black" stroke="none" />
<circle cx="460.0" cy="815.48" r="5" fill="black" stroke="none" />
<path d="M460.0,743.48 A246.74381532269456,246.74381532269456,0,0,0,468.9635992035958,744.7840930812396" stroke="grey" stroke-width="5" fill="none" />
<path d="M468.96359920359583,744.7840930812396 L460.0,815.48" stroke="grey" stroke-width="5" />
<circle cx="468.96359920359583" cy="744.7840930812396" r="2.5" fill="grey" stroke="none" />
<circle cx="460.0" cy="743.48" r="5" fill="black" stroke="none" />
<circle cx="460.0" cy="815.48" r="5" fill="black" stroke="none" />
<path d="M460.0,815.48 L460.114078127442,814.5802658088651" stroke="grey" stroke-width="5" />
<circle cx="460.114078127442" cy="814.5802658088651" r="2.5" fill="grey" stroke="none" />
<path d="M460.11407812744187,814.5802658088651 A317.0987707324013,317.0987707324013,0,0,0,532.0,815.48" stroke="grey" stroke-width="5" fill="none" />
<circle cx="460.0" cy="815.48" r="5" fill="black" stroke="none" />
<circle cx="532.0" cy="815.48" r="5" fill="black" stroke="none" />
<path d="M460.0,743.48 L460.5291018651756,740.2593569466761" stroke="grey" stroke-width="5" />
<circle cx="460.5291018651756" cy="740.2593569466761" r="2.5" fill="grey" stroke="none" />
<path d="M460.5291018651756,740.2593569466761 A243.48,243.48,0,0,0,500.0,743.48" stroke="grey" stroke-width="5" fill="none" />
<circle cx="460.0" cy="743.48" r="5" fill="black" stroke="none" />
<circle cx="500.0" cy="743.48" r="5" fill="black" stroke="none" />
<path d="M532.0,815.48 L530.323085850444,798.9477226280652" stroke="grey" stroke-width="5" />
<circle cx="530.323085850444" cy="798.9477226280652" r="2.5" fill="grey" stroke="none" />
<path d="M530.323085850444,798.9477226280652 A300.4816639996524,300.4816639996524,0,0,0,620.0,775.48" stroke="grey" stroke-width="5" fill="none" />
<circle cx="532.0" cy="815.48" r="5" fill="black" stroke="none" />
<circle cx="620.0" cy="775.48" r="5" fill="black" stroke="none" />
<path d="M500.0,743.48 A243.48,243.48,0,0,0,623.9454401213666,709.5710816718774" stroke="grey" stroke-width="5" fill="none" />
<path d="M623.9454401213666,709.5710816718774 L644.0,743.48" stroke="grey" stroke-width="5" />
<circle cx="623.9454401213666" cy="709.5710816718774" r="2.5" fill="grey" stroke="none" />
<circle cx="500.0" cy="743.48" r="5" fill="black" stroke="none" />
<circle cx="644.0" cy="743.48" r="5" fill="black" stroke="none" />
<path d="M620.0,775.48 L612.9687963878274,759.338700240989" stroke="grey" stroke-width="5" />
<circle cx="612.9687963878274" cy="759.338700240989" r="2.5" fill="grey" stroke="none" />
<path d="M612.9687963878274,759.338700240989 A282.8754326554358,282.8754326554358,0,0,0,644.0,743.48" stroke="grey" stroke-width="5" fill="none" />
<circle cx="620.0" cy="775.48" r="5" fill="black" stroke="none" />
<circle cx="644.0" cy="743.48" r="5" fill="black" stroke="none" />
<path d="M380.0,895.48 L385.1697776351932,878.4421361736152" stroke="grey" stroke-width="5" />
<circle cx="385.1697776351932" cy="878.4421361736152" r="2.5" fill="grey" stroke="none" />
<path d="M385.16977763519327,878.4421361736152 A395.48,395.48,0,0,0,500.0,895.48" stroke="grey" stroke-width="5" fill="none" />
<circle cx="380.0" cy="895.48" r="5" fill="black" stroke="none" />
<circle cx="500.0" cy="895.48" r="5" fill="black" stroke="none" />
<path d="M500.0,895.48 L500.0,814.490493338034" stroke="grey" stroke-width="5" />
<circle cx="500.0" cy="814.490493338034" r="2.5" fill="grey" stroke="none" />
<path d="M500.0,814.490493338034 A314.490493338034,314.490493338034,0,0,0,596.0,799.48" stroke="grey" stroke-width="5" fill="none" />
<circle cx="500.0" cy="895.48" r="5" fill="black" stroke="none" />
<circle cx="596.0" cy="799.48" r="5" fill="black" stroke="none" />
<path d="M596.0,799.48 L591.7237256929128,786.1398059428491" stroke="grey" stroke-width="5" />
<circle cx="591.7237256929128" cy="786.1398059428491" r="2.5" fill="grey" stroke="none" />
<path d="M591.7237256929128,786.1398059428491 A300.4816639996524,300.4816639996524,0,0,0,620.0,775.48" stroke="grey" stroke-width="5" fill="none" />
<circle cx="596.0" cy="799.48" r="5" fill="black" stroke="none" />
<circle cx="620.0" cy="775.48" r="5" fill="black" stroke="none" />
<path d="M620.0,775.48 A300.4816639996524,300.4816639996524,0,0,1,611.7630707210552,778.9233701628468" stroke="grey" stroke-width="5" fill="none" />
<path d="M611.7630707210552,778.9233701628468 L620.0,799.48" stroke="grey" stroke-width="5" />
<circle cx="611.7630707210552" cy="778.9233701628468" r="2.5" fill="grey" stroke="none" />
<circle cx="620.0" cy="775.48" r="5" fill="black" stroke="none" />
<circle cx="620.0" cy="799.48" r="5" fill="black" stroke="none" />
<path d="M620.0,799.48 A322.62713835013943,322.62713835013943,0,0,1,578.9480758041161,812.8185923611759" stroke="grey" stroke-width="5" fill="none" />
<path d="M578.9480758041161,812.8185923611759 L620.0,975.48" stroke="grey" stroke-width="5" />
<circle cx="578.9480758041161" cy="812.8185923611759" r="2.5" fill="grey" stroke="none" />
<circle cx="620.0" cy="799.48" r="5" fill="black" stroke="none" />
<circle cx="620.0" cy="975.48" r="5" fill="black" stroke="none" />
<path d="M620.0,975.48 A490.3888563171068,490.3888563171068,0,0,0,702.8253017611735,946.4785855620501" stroke="grey" stroke-width="5" fill="none" />
<path d="M702.8253017611735,946.4785855620501 L716.0,975.48" stroke="grey" stroke-width="5" />
<circle cx="702.8253017611735" cy="946.4785855620501" r="2.5" fill="grey" stroke="none" />
<circle cx="620.0" cy="975.48" r="5" fill="black" stroke="none" />
<circle cx="716.0" cy="975.48" r="5" fill="black" stroke="none" />
<path d="M620.0,975.48 A490.3888563171068,490.3888563171068,0,0,1,609.5722644932331,977.9907418076473" stroke="grey" stroke-width="5" fill="none" />
<path d="M609.5722644932331,977.9907418076473 L620.0,1023.48" stroke="grey" stroke-width="5" />
<circle cx="609.5722644932331" cy="977.9907418076473" r="2.5" fill="grey" stroke="none" />
<circle cx="620.0" cy="975.48" r="5" fill="black" stroke="none" />
<circle cx="620.0" cy="1023.48" r="5" fill="black" stroke="none" />
<path d="M308.0,599.48 L411.6719793593895,545.7649556944162" stroke="grey" stroke-width="5" />
<circle cx="411.6719793593895" cy="545.7649556944162" r="2.5" fill="grey" stroke="none" />
<path d="M411.6719793593895,545.7649556944162 A99.47999999999999,99.47999999999999,0,0,0,500.0,599.48" stroke="grey" stroke-width="5" fill="none" />
<circle cx="308.0" cy="599.48" r="5" fill="black" stroke="none" />
<circle cx="500.0" cy="599.48" r="5" fill="black" stroke="none" />
<path d="M500.0,599.48 A99.47999999999999,99.47999999999999,0,0,1,500.0,599.48" stroke="grey" stroke-width="5" fill="none" />
<path d="M500.0,599.48 L500.0,743.48" stroke="grey" stroke-width="5" />
<circle cx="500.0" cy="599.48" r="2.5" fill="grey" stroke="none" />
<circle cx="500.0" cy="599.48" r="5" fill="black" stroke="none" />
<circle cx="500.0" cy="743.48" r="5" fill="black" stroke="none" />
<path d="M500.0,599.48 L500.0,519.48" stroke="grey" stroke-width="5" />
<circle cx="500.0" cy="519.48" r="2.5" fill="grey" stroke="none" />
<path d="M500.0,519.48 A19.479999999999997,19.479999999999997,0,0,1,500.0,519.48" stroke="grey" stroke-width="5" fill="none" />
<circle cx="500.0" cy="599.48" r="5" fill="black" stroke="none" />
<circle cx="500.0" cy="519.48" r="5" fill="black" stroke="none" />
<path d="M500.0,519.48 L500.0,463.48" stroke="grey" stroke-width="5" />
<circle cx="500.0" cy="519.48" r="5" fill="black" stroke="none" />
<circle cx="500.0" cy="463.48" r="5" fill="black" stroke="none" />
<path d="M500.0,519.48 A19.479999999999997,19.479999999999997,0,0,0,512.4529204256909,514.9798255287374" stroke="grey" stroke-width="5" fill="none" />
<path d="M512.4529204256909,514.9798255287374 L596.0,615.48" stroke="grey" stroke-width="5" />
<circle cx="512.4529204256909" cy="514.9798255287374" r="2.5" fill="grey" stroke="none" />
<circle cx="500.0" cy="519.48" r="5" fill="black" stroke="none" />
<circle cx="596.0" cy="615.48" r="5" fill="black" stroke="none" />
<path d="M500.0,599.48 A99.47999999999999,99.47999999999999,0,0,0,563.5942774100477,576.4986162011699" stroke="grey" stroke-width="5" fill="none" />
<path d="M563.5942774100478,576.4986162011699 L596.0,615.48" stroke="grey" stroke-width="5" />
<circle cx="563.5942774100478" cy="576.4986162011699" r="2.5" fill="grey" stroke="none" />
<circle cx="500.0" cy="599.48" r="5" fill="black" stroke="none" />
<circle cx="596.0" cy="615.48" r="5" fill="black" stroke="none" />
<path d="M596.0,615.48 A150.1720027168846,150.1720027168846,0,0,1,591.4755031466216,619.0960231245042" stroke="grey" stroke-width="5" fill="none" />
<path d="M591.4755031466216,619.0960231245042 L644.0,687.48" stroke="grey" stroke-width="5" />
<circle cx="591.4755031466216" cy="619.0960231245042" r="2.5" fill="grey" stroke="none" />
<circle cx="596.0" cy="615.48" r="5" fill="black" stroke="none" />
<circle cx="644.0" cy="687.48" r="5" fill="black" stroke="none" />
<path d="M596.0,799.48 A314.490493338034,314.490493338034,0,0,0,616.9736042465436,791.9271249979573" stroke="grey" stroke-width="5" fill="none" />
<path d="M616.9736042465436,791.9271249979573 L620.0,799.48" stroke="grey" stroke-width="5" />
<circle cx="616.9736042465436" cy="791.9271249979573" r="2.5" fill="grey" stroke="none" />
<circle cx="596.0" cy="799.48" r="5" fill="black" stroke="none" />
<circle cx="620.0" cy="799.48" r="5" fill="black" stroke="none" />
<path d="M620.0,799.48 A322.62713835013943,322.62713835013943,0,0,0,639.8077089446746,790.761199130216" stroke="grey" stroke-width="5" fill="none" />
<path d="M639.8077089446745,790.7611991302161 L644.0,799.48" stroke="grey" stroke-width="5" />
<circle cx="639.8077089446745" cy="790.7611991302161" r="2.5" fill="grey" stroke="none" />
<circle cx="620.0" cy="799.48" r="5" fill="black" stroke="none" />
<circle cx="644.0" cy="799.48" r="5" fill="black" stroke="none" />
<path d="M644.0,799.48 L622.5816475282664,754.9357764011475" stroke="grey" stroke-width="5" />
<circle cx="622.5816475282664" cy="754.9357764011475" r="2.5" fill="grey" stroke="none" />
<path d="M622.5816475282666,754.9357764011475 A282.8754326554358,282.8754326554358,0,0,0,644.0,743.48" stroke="grey" stroke-width="5" fill="none" />
<circle cx="644.0" cy="799.48" r="5" fill="black" stroke="none" />
<circle cx="644.0" cy="743.48" r="5" fill="black" stroke="none" />
<path d="M644.0,743.48 L637.0521306176888,731.7323108527422" stroke="grey" stroke-width="5" />
<circle cx="637.0521306176888" cy="731.7323108527422" r="2.5" fill="grey" stroke="none" />
<path d="M637.0521306176888,731.7323108527422 A269.22694961686136,269.22694961686136,0,0,0,644.0,727.48" stroke="grey" stroke-width="5" fill="none" />
<circle cx="644.0" cy="743.48" r="5" fill="black" stroke="none" />
<circle cx="644.0" cy="727.48" r="5" fill="black" stroke="none" />
<path d="M644.0,727.48 L636.8457350484458,716.1782486723642" stroke="grey" stroke-width="5" />
<circle cx="636.8457350484458" cy="716.1782486723642" r="2.5" fill="grey" stroke="none" />
<path d="M636.8457350484458,716.1782486723642 A255.85110982757138,255.85110982757138,0,0,0,644.0,711.48" stroke="grey" stroke-width="5" fill="none" />
<circle cx="644.0" cy="727.48" r="5" fill="black" stroke="none" />
<circle cx="644.0" cy="711.48" r="5" fill="black" stroke="none" />
<path d="M644.0,711.48 L633.0521340529602,695.4018424272225" stroke="grey" stroke-width="5" />
<circle cx="633.0521340529602" cy="695.4018424272225" r="2.5" fill="grey" stroke="none" />
<path d="M633.0521340529602,695.4018424272225 A236.39955668317145,236.39955668317145,0,0,0,644.0,687.48" stroke="grey" stroke-width="5" fill="none" />
<circle cx="644.0" cy="711.48" r="5" fill="black" stroke="none" />
<circle cx="644.0" cy="687.48" r="5" fill="black" stroke="none" />
<path d="M644.0,687.48 A236.39955668317145,236.39955668317145,0,0,0,669.13877751409,665.1569687934457" stroke="grey" stroke-width="5" fill="none" />
<path d="M669.13877751409,665.1569687934457 L692.0,687.48" stroke="grey" stroke-width="5" />
<circle cx="669.13877751409" cy="665.1569687934457" r="2.5" fill="grey" stroke="none" />
<circle cx="644.0" cy="687.48" r="5" fill="black" stroke="none" />
<circle cx="692.0" cy="687.48" r="5" fill="black" stroke="none" />
<path d="M692.0,687.48 A268.3519152158225,268.3519152158225,0,0,1,673.085919857863,705.0707554649307" stroke="grey" stroke-width="5" fill="none" />
<path d="M673.085919857863,705.0707554649307 L692.0,727.48" stroke="grey" stroke-width="5" />
<circle cx="673.085919857863" cy="705.0707554649307" r="2.5" fill="grey" stroke="none" />
<circle cx="692.0" cy="687.48" r="5" fill="black" stroke="none" />
<circle cx="692.0" cy="727.48" r="5" fill="black" stroke="none" />
<path d="M692.0,727.48 L673.650313572323,705.7394444345418" stroke="grey" stroke-width="5" />
<circle cx="673.650313572323" cy="705.7394444345418" r="2.5" fill="grey" stroke="none" />
<path d="M673.650313572323,705.7394444345418 A269.22694961686136,269.22694961686136,0,0,1,644.0,727.48" stroke="grey" stroke-width="5" fill="none" />
<circle cx="692.0" cy="727.48" r="5" fill="black" stroke="none" />
<circle cx="644.0" cy="727.48" r="5" fill="black" stroke="none" />
<path d="M644.0,711.48 A255.85110982757138,255.85110982757138,0,0,0,686.0384433296526,675.6402231935488" stroke="grey" stroke-width="5" fill="none" />
<path d="M686.0384433296526,675.6402231935488 L724.0,711.48" stroke="grey" stroke-width="5" />
<circle cx="686.0384433296526" cy="675.6402231935488" r="2.5" fill="grey" stroke="none" />
<circle cx="644.0" cy="711.48" r="5" fill="black" stroke="none" />
<circle cx="724.0" cy="711.48" r="5" fill="black" stroke="none" />
<circle cx="500" cy="500" r="5" fill="red" stroke="none" />
</svg>