<?xml version="1.0" encoding="UTF-8"?>
<svg xmlns="http://www.w3.org/2000/svg" xmlns:xlink="http://www.w3.org/1999/xlink"
     width="1000" height="1000" viewBox="0 0 1000 1000">
<defs>
</defs>
<rect x="0" y="0" width="1000" height="1000" fill="white" />
<path d="M156.0,39.32000000000005 L200.04787325725823,98.30829724463297" stroke="grey" stroke-width="5" />
<circle cx="200.04787325725823" cy="98.30829724463297" r="2.5" fill="grey" stroke="none" />
<path d="M200.04787325725823,98.30829724463297 A501.3257448007233,501.3257448007233,0,0,0,156.0000000000001,135.32" stroke="grey" stroke-width="5" fill="none" />
<circle cx="156.0" cy="39.32000000000005" r="5" fill="black" stroke="none" />
<circle cx="156.0" cy="135.32000000000005" r="5" fill="black" stroke="none" />
<path d="M156.0,135.32000000000005 L214.03194670233194,196.84061140525108" stroke="grey" stroke-width="5" />
<circle cx="214.03194670233194" cy="196.84061140525108" r="2.5" fill="grey" stroke="none" />
<path d="M214.03194670233194,196.84061140525108 A416.75333519961174,416.75333519961174,0,0,1,220.0,191.32000000000005" stroke="grey" stroke-width="5" fill="none" />
<circle cx="156.0" cy="135.32000000000005" r="5" fill="black" stroke="none" />
<circle cx="220.0" cy="191.32000000000005" r="5" fill="black" stroke="none" />
<path d="M132.0,191.32000000000005 L180.7020027101974,232.17145162115156" stroke="grey" stroke-width="5" />
<circle cx="180.7020027101974" cy="232.17145162115156" r="2.5" fill="grey" stroke="none" />
<path d="M180.7020027101974,232.17145162115156 A416.75333519961174,416.75333519961174,0,0,1,220.0,191.32000000000005" stroke="grey" stroke-width="5" fill="none" />
<circle cx="132.0" cy="191.32000000000005" r="5" fill="black" stroke="none" />
<circle cx="220.0" cy="191.32000000000005" r="5" fill="black" stroke="none" />
<path d="M220.0,191.32000000000005 L267.43945647399033,243.61861222996907" stroke="grey" stroke-width="5" />
<circle cx="267.43945647399033" cy="243.61861222996907" r="2.5" fill="grey" stroke="none" />
<path d="M267.43945647399033,243.61861222996907 A346.1442219653536,346.1442219653536,0,0,1,292.0,223.32000000000005" stroke="grey" stroke-width="5" fill="none" />
<circle cx="220.0" cy="191.32000000000005" r="5" fill="black" stroke="none" />
<circle cx="292.0" cy="223.32000000000005" r="5" fill="black" stroke="none" />
<path d="M292.0,223.32000000000005 L305.4531012670108,241.21521181998344" stroke="grey" stroke-width="5" />
<circle cx="305.4531012670108" cy="241.21521181998344" r="2.5" fill="grey" stroke="none" />
<path d="M305.4531012670108,241.21521181998344 A323.7561773928028,323.7561773928028,0,0,1,308.0,239.32000000000005" stroke="grey" stroke-width="5" fill="none" />
<circle cx="292.0" cy="223.32000000000005" r="5" fill="black" stroke="none" />
<circle cx="308.0" cy="239.32000000000005" r="5" fill="black" stroke="none" />
<path d="M308.0,239.32000000000005 L334.4852584560705,275.27925611629405" stroke="grey" stroke-width="5" />
<circle cx="334.4852584560705" cy="275.27925611629405" r="2.5" fill="grey" stroke="none" />
<path d="M334.4852584560705,275.27925611629405 A279.09593762718936,279.09593762718936,0,0,1,340.0,271.32000000000005" stroke="grey" stroke-width="5" fill="none" />
<circle cx="308.0" cy="239.32000000000005" r="5" fill="black" stroke="none" />
<circle cx="340.0" cy="271.32000000000005" r="5" fill="black" stroke="none" />
<path d="M308.0,239.32000000000005 L330.02568193259094,269.2244519072282" stroke="grey" stroke-width="5" />
<circle cx="330.02568193259094" cy="269.2244519072282" r="2.5" fill="grey" stroke="none" />
<path d="M330.02568193259094,269.2244519072282 A286.6158097523582,286.6158097523582,0,0,0,260.0,343.32000000000005" stroke="grey" stroke-width="5" fill="none" />
<circle cx="308.0" cy="239.32000000000005" r="5" fill="black" stroke="none" />
<circle cx="260.0" cy="343.32000000000005" r="5" fill="black" stroke="none" />
<path d="M260.0,343.32000000000005 L289.02599332066484,362.2691359728408" stroke="grey" stroke-width="5" />
<circle cx="289.02599332066484" cy="362.2691359728408" r="2.5" fill="grey" stroke="none" />
<path d="M289.02599332066484,362.2691359728408 A251.95202400457114,251.95202400457114,0,0,0,260.0,423.32000000000005" stroke="grey" stroke-width="5" fill="none" />
<circle cx="260.0" cy="343.32000000000005" r="5" fill="black" stroke="none" />
<circle cx="260.0" cy="423.32000000000005" r="5" fill="black" stroke="none" />
<path d="M156.0,439.32000000000005 L251.87859486441138,456.2325381871293" stroke="grey" stroke-width="5" />
<circle cx="251.87859486441138" cy="456.2325381871293" r="2.5" fill="grey" stroke="none" />
<path d="M251.87859486441138,456.2325381871293 A251.95202400457114,251.95202400457114,0,0,1,260.0,423.32000000000005" stroke="grey" stroke-width="5" fill="none" />
<circle cx="156.0" cy="439.32000000000005" r="5" fill="black" stroke="none" />
<circle cx="260.0" cy="423.32000000000005" r="5" fill="black" stroke="none" />
<path d="M260.0,423.32000000000005 L267.690730613685,425.7771884310724" stroke="grey" stroke-width="5" />
<circle cx="267.690730613685" cy="425.7771884310724" r="2.5" fill="grey" stroke="none" />
<path d="M267.690730613685,425.7771884310724 A243.87829423710508,243.87829423710508,0,0,0,260.0,543.32" stroke="grey" stroke-width="5" fill="none" />
<circle cx="260.0" cy="423.32000000000005" r="5" fill="black" stroke="none" />
<circle cx="260.0" cy="543.32" r="5" fill="black" stroke="none" />
<path d="M260.0,343.32000000000005 L312.48301873568283,377.58266406461166" stroke="grey" stroke-width="5" />
<circle cx="312.48301873568283" cy="377.58266406461166" r="2.5" fill="grey" stroke="none" />
<path d="M312.48301873568283,377.58266406461166 A223.9388809474585,223.9388809474585,0,0,1,339.9999999999999,343.32000000000016" stroke="grey" stroke-width="5" fill="none" />
<circle cx="260.0" cy="343.32000000000005" r="5" fill="black" stroke="none" />
<circle cx="340.0" cy="343.32000000000005" r="5" fill="black" stroke="none" />
<path d="M340.0,271.32000000000005 L371.6204139113819,316.51347658284254" stroke="grey" stroke-width="5" />
<circle cx="371.6204139113819" cy="316.51347658284254" r="2.5" fill="grey" stroke="none" />
<path d="M371.6204139113819,316.51347658284254 A223.9388809474585,223.9388809474585,0,0,0,339.9999999999999,343.32000000000016" stroke="grey" stroke-width="5" fill="none" />
<circle cx="340.0" cy="271.32000000000005" r="5" fill="black" stroke="none" />
<circle cx="340.0" cy="343.32000000000005" r="5" fill="black" stroke="none" />
<path d="M340.0,343.32000000000005 L371.6067665667222,374.27092616046275" stroke="grey" stroke-width="5" />
<circle cx="371.6067665667222" cy="374.27092616046275" r="2.5" fill="grey" stroke="none" />
<path d="M371.6067665667221,374.2709261604628 A179.7014813517128,179.7014813517128,0,0,1,412.0,343.32000000000005" stroke="grey" stroke-width="5" fill="none" />
<circle cx="340.0" cy="343.32000000000005" r="5" fill="black" stroke="none" />
<circle cx="412.0" cy="343.32000000000005" r="5" fill="black" stroke="none" />
<path d="M340.0,271.32000000000005 L351.94890764713136,288.3979762546626" stroke="grey" stroke-width="5" />
<circle cx="351.94890764713136" cy="288.3979762546626" r="2.5" fill="grey" stroke="none" />
<path d="M351.94890764713136,288.3979762546626 A258.25286523095923,258.25286523095923,0,0,1,380.0,271.32000000000005" stroke="grey" stroke-width="5" fill="none" />
<circle cx="340.0" cy="271.32000000000005" r="5" fill="black" stroke="none" />
<circle cx="380.0" cy="271.32000000000005" r="5" fill="black" stroke="none" />
<path d="M412.0,343.32000000000005 A179.7014813517128,179.7014813517128,0,0,1,500.0,320.2985186482872" stroke="grey" stroke-width="5" fill="none" />
<path d="M500.0,320.2985186482872 L0.0,-196.67999999999995" stroke="grey" stroke-width="5" />
<circle cx="500.0" cy="320.2985186482872" r="2.5" fill="grey" stroke="none" />
<circle cx="412.0" cy="343.32000000000005" r="5" fill="black" stroke="none" />
<circle cx="500.0" cy="303.32000000000005" r="5" fill="black" stroke="none" />
<path d="M380.0,271.32000000000005 L393.1577610419858,296.39430662567764" stroke="grey" stroke-width="5" />
<circle cx="393.1577610419858" cy="296.39430662567764" r="2.5" fill="grey" stroke="none" />
<path d="M393.1577610419858,296.39430662567764 A229.93595282164983,229.93595282164983,0,0,1,524.0,271.32000000000005" stroke="grey" stroke-width="5" fill="none" />
<circle cx="380.0" cy="271.32000000000005" r="5" fill="black" stroke="none" />
<circle cx="524.0" cy="271.32000000000005" r="5" fill="black" stroke="none" />
<path d="M500.0,303.32000000000005 A196.67999999999995,196.67999999999995,0,0,1,520.5288470205497,304.39430263919496" stroke="grey" stroke-width="5" fill="none" />
<path d="M520.5288470205497,304.39430263919496 L24.0,-228.67999999999995" stroke="grey" stroke-width="5" />
<circle cx="520.5288470205497" cy="304.39430263919496" r="2.5" fill="grey" stroke="none" />
<circle cx="500.0" cy="303.32000000000005" r="5" fill="black" stroke="none" />
<circle cx="524.0" cy="271.32000000000005" r="5" fill="black" stroke="none" />
<path d="M260.0,423.32000000000005 L364.3482303094381,456.6592595838655" stroke="grey" stroke-width="5" />
<circle cx="364.3482303094381" cy="456.6592595838655" r="2.5" fill="grey" stroke="none" />
<path d="M364.3482303094381,456.6592595838655 A142.4072413889125,142.4072413889125,0,0,1,380.0,423.32000000000005" stroke="grey" stroke-width="5" fill="none" />
<circle cx="260.0" cy="423.32000000000005" r="5" fill="black" stroke="none" />
<circle cx="380.0" cy="423.32000000000005" r="5" fill="black" stroke="none" />
<path d="M380.0,423.32000000000005 A142.4072413889125,142.4072413889125,0,0,1,480.39591152668703,358.9485834345131" stroke="grey" stroke-width="5" fill="none" />
<path d="M480.395911526687,358.9485834345131 L-24.0,-172.67999999999995" stroke="grey" stroke-width="5" />
<circle cx="480.395911526687" cy="358.9485834345131" r="2.5" fill="grey" stroke="none" />
<circle cx="380.0" cy="423.32000000000005" r="5" fill="black" stroke="none" />
<circle cx="476.0" cy="327.32000000000005" r="5" fill="black" stroke="none" />
<path d="M476.0,327.32000000000005 A174.33984742450588,174.33984742450588,0,0,1,500.0,325.6601525754941" stroke="grey" stroke-width="5" fill="none" />
<path d="M500.0,325.6601525754941 L0.0,-196.67999999999995" stroke="grey" stroke-width="5" />
<circle cx="500.0" cy="325.6601525754941" r="2.5" fill="grey" stroke="none" />
<circle cx="476.0" cy="327.32000000000005" r="5" fill="black" stroke="none" />
<circle cx="500.0" cy="303.32000000000005" r="5" fill="black" stroke="none" />
<path d="M500.0,303.32000000000005 L500.0,327.32000000000005" stroke="grey" stroke-width="5" />
<circle cx="500.0" cy="327.32000000000005" r="2.5" fill="grey" stroke="none" />
<path d="M500.0,327.32000000000005 A172.67999999999995,172.67999999999995,0,0,1,500.0,327.32000000000005" stroke="grey" stroke-width="5" fill="none" />
<circle cx="500.0" cy="303.32000000000005" r="5" fill="black" stroke="none" />
<circle cx="500.0" cy="327.32000000000005" r="5" fill="black" stroke="none" />
<path d="M500.0,327.32000000000005 L500.0,503.32000000000005" stroke="grey" stroke-width="5" />
<circle cx="500.0" cy="327.32000000000005" r="5" fill="black" stroke="none" />
<circle cx="500.0" cy="503.32000000000005" r="5" fill="black" stroke="none" />
<path d="M500.0,503.32000000000005 A3.32000000000005,3.32000000000005,0,0,0,503.3180164075878,500.1147480674291" stroke="grey" stroke-width="5" fill="none" />
<path d="M503.3180164075878,500.1147480674291 L96.0,3.32000000000005" stroke="grey" stroke-width="5" />
<circle cx="503.3180164075878" cy="500.1147480674291" r="2.5" fill="grey" stroke="none" />
<circle cx="500.0" cy="503.32000000000005" r="5" fill="black" stroke="none" />
<circle cx="596.0" cy="503.32000000000005" r="5" fill="black" stroke="none" />
<path d="M500.0,503.32000000000005 A3.32000000000005,3.32000000000005,0,0,1,500.0,503.32000000000005" stroke="grey" stroke-width="5" fill="none" />
<path d="M500.0,503.32000000000005 L0.0,51.32000000000005" stroke="grey" stroke-width="5" />
<circle cx="500.0" cy="503.32000000000005" r="2.5" fill="grey" stroke="none" />
<circle cx="500.0" cy="503.32000000000005" r="5" fill="black" stroke="none" />
<circle cx="500.0" cy="551.32" r="5" fill="black" stroke="none" />
<path d="M188.0,127.32000000000005 L248.67222034475645,199.7921893528329" stroke="grey" stroke-width="5" />
<circle cx="248.67222034475645" cy="199.7921893528329" r="2.5" fill="grey" stroke="none" />
<path d="M248.67222034475645,199.7921893528329 A391.5231569141217,391.5231569141217,0,0,1,380.0,127.32000000000005" stroke="grey" stroke-width="5" fill="none" />
<circle cx="188.0" cy="127.32000000000005" r="5" fill="black" stroke="none" />
<circle cx="380.0" cy="127.32000000000005" r="5" fill="black" stroke="none" />
<path d="M380.0,127.32000000000005 L420.84671549960797,254.17628276994918" stroke="grey" stroke-width="5" />
<circle cx="420.84671549960797" cy="254.17628276994918" r="2.5" fill="grey" stroke="none" />
<path d="M420.84671549960797,254.17628276994918 A258.25286523095923,258.25286523095923,0,0,0,380.0,271.32000000000005" stroke="grey" stroke-width="5" fill="none" />
<circle cx="380.0" cy="127.32000000000005" r="5" fill="black" stroke="none" />
<circle cx="380.0" cy="271.32000000000005" r="5" fill="black" stroke="none" />
<path d="M380.0,127.32000000000005 A391.5231569141217,391.5231569141217,0,0,1,399.67702767776126,121.54830740974177" stroke="grey" stroke-width="5" fill="none" />
<path d="M399.6770276777613,121.54830740974177 L-120.0,-452.67999999999995" stroke="grey" stroke-width="5" />
<circle cx="399.6770276777613" cy="121.54830740974177" r="2.5" fill="grey" stroke="none" />
<circle cx="380.0" cy="127.32000000000005" r="5" fill="black" stroke="none" />
<circle cx="380.0" cy="47.32000000000005" r="5" fill="black" stroke="none" />
<path d="M379.9999999999999,47.32000000000005 A468.3152596275291,468.3152596275291,0,0,1,392.4736990615425,44.19601032187944" stroke="grey" stroke-width="5" fill="none" />
<path d="M392.4736990615426,44.196010321879385 L-120.0,-508.67999999999995" stroke="grey" stroke-width="5" />
<circle cx="392.4736990615426" cy="44.196010321879385" r="2.5" fill="grey" stroke="none" />
<circle cx="380.0" cy="47.32000000000005" r="5" fill="black" stroke="none" />
<circle cx="380.0" cy="-8.67999999999995" r="5" fill="black" stroke="none" />
<path d="M380.0,47.32000000000005 L408.39849168547505,154.44857680150704" stroke="grey" stroke-width="5" />
<circle cx="408.39849168547505" cy="154.44857680150704" r="2.5" fill="grey" stroke="none" />
<path d="M408.39849168547494,154.4485768015071 A357.4865345715835,357.4865345715835,0,0,1,476.00000000000006,143.32000000000005" stroke="grey" stroke-width="5" fill="none" />
<circle cx="380.0" cy="47.32000000000005" r="5" fill="black" stroke="none" />
<circle cx="476.0" cy="143.32000000000005" r="5" fill="black" stroke="none" />
<path d="M380.0,127.32000000000005 L390.43206412948007,159.71851383145514" stroke="grey" stroke-width="5" />
<circle cx="390.43206412948007" cy="159.71851383145514" r="2.5" fill="grey" stroke="none" />
<path d="M390.43206412948007,159.71851383145514 A357.4865345715835,357.4865345715835,0,0,1,476.00000000000006,143.32000000000005" stroke="grey" stroke-width="5" fill="none" />
<circle cx="380.0" cy="127.32000000000005" r="5" fill="black" stroke="none" />
<circle cx="476.0" cy="143.32000000000005" r="5" fill="black" stroke="none" />
<path d="M476.0,143.32000000000005 L480.8200974267376,214.95468125703218" stroke="grey" stroke-width="5" />
<circle cx="480.8200974267376" cy="214.95468125703218" r="2.5" fill="grey" stroke="none" />
<path d="M480.8200974267376,214.95468125703218 A285.689871014007,285.689871014007,0,0,1,523.9999999999999,215.32000000000005" stroke="grey" stroke-width="5" fill="none" />
<circle cx="476.0" cy="143.32000000000005" r="5" fill="black" stroke="none" />
<circle cx="524.0" cy="215.32000000000005" r="5" fill="black" stroke="none" />
<path d="M476.0,327.32000000000005 L476.2284981820085,328.9640444195513" stroke="grey" stroke-width="5" />
<circle cx="476.2284981820085" cy="328.9640444195513" r="2.5" fill="grey" stroke="none" />
<path d="M476.22849818200854,328.9640444195513 A172.67999999999995,172.67999999999995,0,0,1,500.0,327.32000000000005" stroke="grey" stroke-width="5" fill="none" />
<circle cx="476.0" cy="327.32000000000005" r="5" fill="black" stroke="none" />
<circle cx="500.0" cy="327.32000000000005" r="5" fill="black" stroke="none" />
<path d="M500.0,327.32000000000005 A172.67999999999995,172.67999999999995,0,0,1,523.7715018179915,328.9640444195513" stroke="grey" stroke-width="5" fill="none" />
<path d="M523.7715018179915,328.9640444195513 L24.0,-172.67999999999995" stroke="grey" stroke-width="5" />
<circle cx="523.7715018179915" cy="328.9640444195513" r="2.5" fill="grey" stroke="none" />
<circle cx="500.0" cy="327.32000000000005" r="5" fill="black" stroke="none" />
<circle cx="524.0" cy="327.32000000000005" r="5" fill="black" stroke="none" />
<path d="M524.0,327.32000000000005 A174.33984742450588,174.33984742450588,0,0,0,518.1970513390465,326.6124291577851" stroke="grey" stroke-width="5" fill="none" />
<path d="M518.1970513390465,326.6124291577851 L24.0,-228.67999999999995" stroke="grey" stroke-width="5" />
<circle cx="518.1970513390465" cy="326.6124291577851" r="2.5" fill="grey" stroke="none" />
<circle cx="524.0" cy="327.32000000000005" r="5" fill="black" stroke="none" />
<circle cx="524.0" cy="271.32000000000005" r="5" fill="black" stroke="none" />
<path d="M524.0,271.32000000000005 A229.93595282164983,229.93595282164983,0,0,0,522.4460765557117,271.1622495145193" stroke="grey" stroke-width="5" fill="none" />
<path d="M522.4460765557117,271.1622495145193 L24.0,-244.67999999999995" stroke="grey" stroke-width="5" />
<circle cx="522.4460765557117" cy="271.1622495145193" r="2.5" fill="grey" stroke="none" />
<circle cx="524.0" cy="271.32000000000005" r="5" fill="black" stroke="none" />
<circle cx="524.0" cy="255.32000000000005" r="5" fill="black" stroke="none" />
<path d="M524.0,255.32000000000005 A245.85422998191424,245.85422998191424,0,0,0,522.5397120177507,255.18116130053056" stroke="grey" stroke-width="5" fill="none" />
<path d="M522.5397120177507,255.18116130053056 L24.0,-260.67999999999995" stroke="grey" stroke-width="5" />
<circle cx="522.5397120177507" cy="255.18116130053056" r="2.5" fill="grey" stroke="none" />
<circle cx="524.0" cy="255.32000000000005" r="5" fill="black" stroke="none" />
<circle cx="524.0" cy="239.32000000000005" r="5" fill="black" stroke="none" />
<path d="M524.0,239.32000000000005 A261.7824715293214,261.7824715293214,0,0,0,521.9916068231753,239.1428903991021" stroke="grey" stroke-width="5" fill="none" />
<path d="M521.9916068231753,239.1428903991021 L24.0,-284.67999999999995" stroke="grey" stroke-width="5" />
<circle cx="521.9916068231753" cy="239.1428903991021" r="2.5" fill="grey" stroke="none" />
<circle cx="524.0" cy="239.32000000000005" r="5" fill="black" stroke="none" />
<circle cx="524.0" cy="215.32000000000005" r="5" fill="black" stroke="none" />
<path d="M523.9999999999999,215.32000000000005 A285.689871014007,285.689871014007,0,0,1,570.0497275736749,223.03116047675348" stroke="grey" stroke-width="5" fill="none" />
<path d="M570.0497275736749,223.03116047675343 L72.0,-284.67999999999995" stroke="grey" stroke-width="5" />
<circle cx="570.0497275736749" cy="223.03116047675343" r="2.5" fill="grey" stroke="none" />
<circle cx="524.0" cy="215.32000000000005" r="5" fill="black" stroke="none" />
<circle cx="572.0" cy="215.32000000000005" r="5" fill="black" stroke="none" />
<path d="M572.0,215.32000000000005 L562.5378496082989,252.7322912987428" stroke="grey" stroke-width="5" />
<circle cx="562.5378496082989" cy="252.7322912987428" r="2.5" fill="grey" stroke="none" />
<path d="M562.5378496082989,252.73229129874284 A255.05352849941124,255.05352849941124,0,0,1,572.0,255.32000000000002" stroke="grey" stroke-width="5" fill="none" />
<circle cx="572.0" cy="215.32000000000005" r="5" fill="black" stroke="none" />
<circle cx="572.0" cy="255.32000000000005" r="5" fill="black" stroke="none" />
<path d="M572.0,255.32000000000005 L569.4030961376748,264.1451449588017" stroke="grey" stroke-width="5" />
<circle cx="569.4030961376748" cy="264.1451449588017" r="2.5" fill="grey" stroke="none" />
<path d="M569.4030961376748,264.1451449588017 A245.85422998191424,245.85422998191424,0,0,0,524.0,255.32000000000005" stroke="grey" stroke-width="5" fill="none" />
<circle cx="572.0" cy="255.32000000000005" r="5" fill="black" stroke="none" />
<circle cx="524.0" cy="255.32000000000005" r="5" fill="black" stroke="none" />
<path d="M524.0,239.32000000000005 A261.7824715293214,261.7824715293214,0,0,1,597.0048186688283,256.85369105201755" stroke="grey" stroke-width="5" fill="none" />
<path d="M597.0048186688284,256.8536910520176 L104.0,-260.67999999999995" stroke="grey" stroke-width="5" />
<circle cx="597.0048186688284" cy="256.8536910520176" r="2.5" fill="grey" stroke="none" />
<circle cx="524.0" cy="239.32000000000005" r="5" fill="black" stroke="none" />
<circle cx="604.0" cy="239.32000000000005" r="5" fill="black" stroke="none" />
<circle cx="500" cy="500" r="5" fill="red" stroke="none" />
</svg>