<?xml version="1.0" encoding="UTF-8"?>
<svg xmlns="http://www.w3.org/2000/svg" xmlns:xlink="http://www.w3.org/1999/xlink"
     width="1000" height="1000" viewBox="0 0 1000 1000">
<defs>
</defs>
<rect x="0" y="0" width="1000" height="1000" fill="white" />
<path d="M156.0,172.12 L199.7018411928454,213.77395258811094" stroke="grey" stroke-width="5" />
<circle cx="199.7018411928454" cy="213.77395258811094" r="2.5" fill="grey" stroke="none" />
<path d="M199.7018411928454,213.77395258811094 A414.85459428575695,414.85459428575695,0,0,0,155.9999999999999,268.12000000000023" stroke="grey" stroke-width="5" fill="none" />
<circle cx="156.0" cy="172.12" r="5" fill="black" stroke="none" />
<circle cx="156.0" cy="268.12" r="5" fill="black" stroke="none" />
<path d="M156.0,268.12 L225.8175145020923,315.18187576379415" stroke="grey" stroke-width="5" />
<circle cx="225.8175145020923" cy="315.18187576379415" r="2.5" fill="grey" stroke="none" />
<path d="M225.81751450209225,315.18187576379427 A330.65658076015967,330.65658076015967,0,0,0,220.0,324.12" stroke="grey" stroke-width="5" fill="none" />
<circle cx="156.0" cy="268.12" r="5" fill="black" stroke="none" />
<circle cx="220.0" cy="324.12" r="5" fill="black" stroke="none" />
<path d="M132.0,324.12 L201.66552786510522,357.4155789155291" stroke="grey" stroke-width="5" />
<circle cx="201.66552786510522" cy="357.4155789155291" r="2.5" fill="grey" stroke="none" />
<path d="M201.66552786510522,357.4155789155291 A330.65658076015967,330.65658076015967,0,0,1,220.0,324.12" stroke="grey" stroke-width="5" fill="none" />
<circle cx="132.0" cy="324.12" r="5" fill="black" stroke="none" />
<circle cx="220.0" cy="324.12" r="5" fill="black" stroke="none" />
<path d="M220.0,324.12 L285.83248106497865,365.4722027489587" stroke="grey" stroke-width="5" />
<circle cx="285.83248106497865" cy="365.4722027489587" r="2.5" fill="grey" stroke="none" />
<path d="M285.83248106497865,365.4722027489587 A252.91392686050327,252.91392686050327,0,0,1,292.0,356.12000000000006" stroke="grey" stroke-width="5" fill="none" />
<circle cx="220.0" cy="324.12" r="5" fill="black" stroke="none" />
<circle cx="292.0" cy="356.12" r="5" fill="black" stroke="none" />
<path d="M292.0,356.12 L310.2783094941536,368.76366908662897" stroke="grey" stroke-width="5" />
<circle cx="310.2783094941536" cy="368.76366908662897" r="2.5" fill="grey" stroke="none" />
<path d="M310.2783094941536,368.76366908662897 A230.68873921368595,230.68873921368595,0,0,0,307.99999999999994,372.12" stroke="grey" stroke-width="5" fill="none" />
<circle cx="292.0" cy="356.12" r="5" fill="black" stroke="none" />
<circle cx="308.0" cy="372.12" r="5" fill="black" stroke="none" />
<path d="M308.0,372.12 L344.753931070925,396.59964950703073" stroke="grey" stroke-width="5" />
<circle cx="344.753931070925" cy="396.59964950703073" r="2.5" fill="grey" stroke="none" />
<path d="M344.753931070925,396.59964950703073 A186.52874952671505,186.52874952671505,0,0,0,340.0,404.12000000000006" stroke="grey" stroke-width="5" fill="none" />
<circle cx="308.0" cy="372.12" r="5" fill="black" stroke="none" />
<circle cx="340.0" cy="404.12" r="5" fill="black" stroke="none" />
<path d="M307.99999999999994,372.12 A230.68873921368595,230.68873921368595,0,0,0,270.4447891307782,477.15925651851245" stroke="grey" stroke-width="5" fill="none" />
<path d="M270.4447891307782,477.15925651851245 L-240.0,-23.879999999999995" stroke="grey" stroke-width="5" />
<circle cx="270.4447891307782" cy="477.15925651851245" r="2.5" fill="grey" stroke="none" />
<circle cx="308.0" cy="372.12" r="5" fill="black" stroke="none" />
<circle cx="260.0" cy="476.12" r="5" fill="black" stroke="none" />
<path d="M260.0,476.12 A241.18510401764036,241.18510401764036,0,0,0,265.15001738722987,554.9157542676195" stroke="grey" stroke-width="5" fill="none" />
<path d="M265.15001738722987,554.9157542676195 L-240.0,56.120000000000005" stroke="grey" stroke-width="5" />
<circle cx="265.15001738722987" cy="554.9157542676195" r="2.5" fill="grey" stroke="none" />
<circle cx="260.0" cy="476.12" r="5" fill="black" stroke="none" />
<circle cx="260.0" cy="556.12" r="5" fill="black" stroke="none" />
<path d="M156.0,572.12 L258.7704033396126,550.5740654393812" stroke="grey" stroke-width="5" />
<circle cx="258.7704033396126" cy="550.5740654393812" r="2.5" fill="grey" stroke="none" />
<path d="M258.77040333961264,550.5740654393813 A246.4740440695531,246.4740440695531,0,0,0,260.0,556.12" stroke="grey" stroke-width="5" fill="none" />
<circle cx="156.0" cy="572.12" r="5" fill="black" stroke="none" />
<circle cx="260.0" cy="556.12" r="5" fill="black" stroke="none" />
<path d="M260.0,556.12 A246.4740440695531,246.4740440695531,0,0,0,301.2894904108548,645.8203956201677" stroke="grey" stroke-width="5" fill="none" />
<path d="M301.2894904108548,645.8203956201677 L-240.0,176.12" stroke="grey" stroke-width="5" />
<circle cx="301.2894904108548" cy="645.8203956201677" r="2.5" fill="grey" stroke="none" />
<circle cx="260.0" cy="556.12" r="5" fill="black" stroke="none" />
<circle cx="260.0" cy="676.12" r="5" fill="black" stroke="none" />
<path d="M260.0,476.12 L339.0226653559258,483.98275520291463" stroke="grey" stroke-width="5" />
<circle cx="339.0226653559258" cy="483.98275520291463" r="2.5" fill="grey" stroke="none" />
<path d="M339.0226653559258,483.98275520291463 A161.77223000255637,161.77223000255637,0,0,1,340.0,476.1200000000001" stroke="grey" stroke-width="5" fill="none" />
<circle cx="260.0" cy="476.12" r="5" fill="black" stroke="none" />
<circle cx="340.0" cy="476.12" r="5" fill="black" stroke="none" />
<path d="M340.0,404.12 L361.23556360033433,416.84541148750037" stroke="grey" stroke-width="5" />
<circle cx="361.23556360033433" cy="416.84541148750037" r="2.5" fill="grey" stroke="none" />
<path d="M361.23556360033433,416.84541148750037 A161.77223000255637,161.77223000255637,0,0,0,340.0,476.1200000000001" stroke="grey" stroke-width="5" fill="none" />
<circle cx="340.0" cy="404.12" r="5" fill="black" stroke="none" />
<circle cx="340.0" cy="476.12" r="5" fill="black" stroke="none" />
<path d="M340.0,476.12 L409.81637981877907,486.5400946879528" stroke="grey" stroke-width="5" />
<circle cx="409.81637981877907" cy="486.5400946879528" r="2.5" fill="grey" stroke="none" />
<path d="M409.81637981877907,486.54009468795283 A91.18253341512288,91.18253341512288,0,0,1,412.0,476.12" stroke="grey" stroke-width="5" fill="none" />
<circle cx="340.0" cy="476.12" r="5" fill="black" stroke="none" />
<circle cx="412.0" cy="476.12" r="5" fill="black" stroke="none" />
<path d="M340.0,404.12 L368.2454712082921,421.04609862156906" stroke="grey" stroke-width="5" />
<circle cx="368.2454712082921" cy="421.04609862156906" r="2.5" fill="grey" stroke="none" />
<path d="M368.2454712082921,421.04609862156906 A153.60004687499284,153.60004687499284,0,0,1,380.00000000000006,404.11999999999995" stroke="grey" stroke-width="5" fill="none" />
<circle cx="340.0" cy="404.12" r="5" fill="black" stroke="none" />
<circle cx="380.0" cy="404.12" r="5" fill="black" stroke="none" />
<path d="M412.0,476.12 L438.34959624989244,483.27032225508447" stroke="grey" stroke-width="5" />
<circle cx="438.34959624989244" cy="483.27032225508447" r="2.5" fill="grey" stroke="none" />
<path d="M438.34959624989244,483.27032225508447 A63.879999999999995,63.879999999999995,0,0,1,500.0,436.12" stroke="grey" stroke-width="5" fill="none" />
<circle cx="412.0" cy="476.12" r="5" fill="black" stroke="none" />
<circle cx="500.0" cy="436.12" r="5" fill="black" stroke="none" />
<path d="M380.0,404.12 L422.7827405961713,438.3034097363409" stroke="grey" stroke-width="5" />
<circle cx="422.7827405961713" cy="438.3034097363409" r="2.5" fill="grey" stroke="none" />
<path d="M422.7827405961714,438.3034097363409 A98.83812219988803,98.83812219988803,0,0,1,524.0,404.12" stroke="grey" stroke-width="5" fill="none" />
<circle cx="380.0" cy="404.12" r="5" fill="black" stroke="none" />
<circle cx="524.0" cy="404.12" r="5" fill="black" stroke="none" />
<path d="M500.0,436.12 A63.879999999999995,63.879999999999995,0,0,1,515.5114237894913,438.0318619609819" stroke="grey" stroke-width="5" fill="none" />
<path d="M515.5114237894913,438.0318619609819 L24.0,-95.88" stroke="grey" stroke-width="5" />
<circle cx="515.5114237894913" cy="438.0318619609819" r="2.5" fill="grey" stroke="none" />
<circle cx="500.0" cy="436.12" r="5" fill="black" stroke="none" />
<circle cx="524.0" cy="404.12" r="5" fill="black" stroke="none" />
<path d="M260.0,556.12 L371.00530192263466,530.1632602337572" stroke="grey" stroke-width="5" />
<circle cx="371.00530192263466" cy="530.1632602337572" r="2.5" fill="grey" stroke="none" />
<path d="M371.00530192263466,530.1632602337572 A132.4743537444135,132.4743537444135,0,0,0,379.99999999999994,556.1199999999999" stroke="grey" stroke-width="5" fill="none" />
<circle cx="260.0" cy="556.12" r="5" fill="black" stroke="none" />
<circle cx="380.0" cy="556.12" r="5" fill="black" stroke="none" />
<path d="M380.0,556.12 L457.83809713557093,519.7177165729313" stroke="grey" stroke-width="5" />
<circle cx="457.83809713557093" cy="519.7177165729313" r="2.5" fill="grey" stroke="none" />
<path d="M457.83809713557093,519.7177165729313 A46.54475695499977,46.54475695499977,0,0,1,476.0,460.12" stroke="grey" stroke-width="5" fill="none" />
<circle cx="380.0" cy="556.12" r="5" fill="black" stroke="none" />
<circle cx="476.0" cy="460.12" r="5" fill="black" stroke="none" />
<path d="M476.0,460.12 A46.54475695499977,46.54475695499977,0,0,1,500.0,453.4552430450002" stroke="grey" stroke-width="5" fill="none" />
<path d="M500.0,453.4552430450002 L0.0,-63.879999999999995" stroke="grey" stroke-width="5" />
<circle cx="500.0" cy="453.4552430450002" r="2.5" fill="grey" stroke="none" />
<circle cx="476.0" cy="460.12" r="5" fill="black" stroke="none" />
<circle cx="500.0" cy="436.12" r="5" fill="black" stroke="none" />
<path d="M500.0,436.12 L500.0,460.12" stroke="grey" stroke-width="5" />
<circle cx="500.0" cy="460.12" r="2.5" fill="grey" stroke="none" />
<path d="M500.0,460.12 A39.879999999999995,39.879999999999995,0,0,1,500.0,460.12" stroke="grey" stroke-width="5" fill="none" />
<circle cx="500.0" cy="436.12" r="5" fill="black" stroke="none" />
<circle cx="500.0" cy="460.12" r="5" fill="black" stroke="none" />
<path d="M500.0,460.12 L500.0,636.12" stroke="grey" stroke-width="5" />
<circle cx="500.0" cy="460.12" r="5" fill="black" stroke="none" />
<circle cx="500.0" cy="636.12" r="5" fill="black" stroke="none" />
<path d="M500.0,636.12 A136.12,136.12,0,0,0,578.4519086120466,611.2382687528311" stroke="grey" stroke-width="5" fill="none" />
<path d="M578.4519086120466,611.2382687528311 L96.0,136.12" stroke="grey" stroke-width="5" />
<circle cx="578.4519086120466" cy="611.2382687528311" r="2.5" fill="grey" stroke="none" />
<circle cx="500.0" cy="636.12" r="5" fill="black" stroke="none" />
<circle cx="596.0" cy="636.12" r="5" fill="black" stroke="none" />
<path d="M500.0,636.12 A136.12,136.12,0,0,1,500.0,636.12" stroke="grey" stroke-width="5" fill="none" />
<path d="M500.0,636.12 L0.0,184.12" stroke="grey" stroke-width="5" />
<circle cx="500.0" cy="636.12" r="2.5" fill="grey" stroke="none" />
<circle cx="500.0" cy="636.12" r="5" fill="black" stroke="none" />
<circle cx="500.0" cy="684.12" r="5" fill="black" stroke="none" />
<path d="M188.0,260.12 L287.3622171076237,336.51425846082293" stroke="grey" stroke-width="5" />
<circle cx="287.3622171076237" cy="336.51425846082293" r="2.5" fill="grey" stroke="none" />
<path d="M287.3622171076237,336.51425846082293 A268.22083140576535,268.22083140576535,0,0,1,380.0,260.12" stroke="grey" stroke-width="5" fill="none" />
<circle cx="188.0" cy="260.12" r="5" fill="black" stroke="none" />
<circle cx="380.0" cy="260.12" r="5" fill="black" stroke="none" />
<path d="M380.0,260.12 L431.28048433674735,362.62968818915795" stroke="grey" stroke-width="5" />
<circle cx="431.28048433674735" cy="362.62968818915795" r="2.5" fill="grey" stroke="none" />
<path d="M431.28048433674735,362.62968818915795 A153.60004687499284,153.60004687499284,0,0,0,380.00000000000006,404.11999999999995" stroke="grey" stroke-width="5" fill="none" />
<circle cx="380.0" cy="260.12" r="5" fill="black" stroke="none" />
<circle cx="380.0" cy="404.12" r="5" fill="black" stroke="none" />
<path d="M380.0,260.12 A268.22083140576535,268.22083140576535,0,0,1,405.79040627021254,248.86862631429662" stroke="grey" stroke-width="5" fill="none" />
<path d="M405.7904062702126,248.86862631429662 L-120.0,-319.88" stroke="grey" stroke-width="5" />
<circle cx="405.7904062702126" cy="248.86862631429662" r="2.5" fill="grey" stroke="none" />
<circle cx="380.0" cy="260.12" r="5" fill="black" stroke="none" />
<circle cx="380.0" cy="180.12" r="5" fill="black" stroke="none" />
<path d="M379.99999999999994,180.12 A341.64779290959865,341.64779290959865,0,0,1,396.09525044684926,174.5356894830141" stroke="grey" stroke-width="5" fill="none" />
<path d="M396.09525044684926,174.5356894830141 L-120.0,-375.88" stroke="grey" stroke-width="5" />
<circle cx="396.09525044684926" cy="174.5356894830141" r="2.5" fill="grey" stroke="none" />
<circle cx="380.0" cy="180.12" r="5" fill="black" stroke="none" />
<circle cx="380.0" cy="124.12" r="5" fill="black" stroke="none" />
<path d="M380.0,180.12 L420.914087531325,289.1833193293352" stroke="grey" stroke-width="5" />
<circle cx="420.914087531325" cy="289.1833193293352" r="2.5" fill="grey" stroke="none" />
<path d="M420.91408753132487,289.1833193293352 A225.16272870970454,225.16272870970454,0,0,1,476.0,276.12" stroke="grey" stroke-width="5" fill="none" />
<circle cx="380.0" cy="180.12" r="5" fill="black" stroke="none" />
<circle cx="476.0" cy="276.12" r="5" fill="black" stroke="none" />
<path d="M380.0,260.12 L399.2638740863146,298.62848429854307" stroke="grey" stroke-width="5" />
<circle cx="399.2638740863146" cy="298.62848429854307" r="2.5" fill="grey" stroke="none" />
<path d="M399.2638740863146,298.62848429854307 A225.16272870970454,225.16272870970454,0,0,1,476.0,276.12" stroke="grey" stroke-width="5" fill="none" />
<circle cx="380.0" cy="260.12" r="5" fill="black" stroke="none" />
<circle cx="476.0" cy="276.12" r="5" fill="black" stroke="none" />
<path d="M476.0,276.12 L483.6103025088393,347.11143856995636" stroke="grey" stroke-width="5" />
<circle cx="483.6103025088393" cy="347.11143856995636" r="2.5" fill="grey" stroke="none" />
<path d="M483.6103025088393,347.11143856995636 A153.76454207651383,153.76454207651383,0,0,1,524.0,348.12" stroke="grey" stroke-width="5" fill="none" />
<circle cx="476.0" cy="276.12" r="5" fill="black" stroke="none" />
<circle cx="524.0" cy="348.12" r="5" fill="black" stroke="none" />
<path d="M476.0,460.12 L479.4365668097621,465.8304285155547" stroke="grey" stroke-width="5" />
<circle cx="479.4365668097621" cy="465.8304285155547" r="2.5" fill="grey" stroke="none" />
<path d="M479.4365668097621,465.8304285155547 A39.879999999999995,39.879999999999995,0,0,1,500.0,460.12" stroke="grey" stroke-width="5" fill="none" />
<circle cx="476.0" cy="460.12" r="5" fill="black" stroke="none" />
<circle cx="500.0" cy="460.12" r="5" fill="black" stroke="none" />
<path d="M500.0,460.12 A39.879999999999995,39.879999999999995,0,0,1,520.5634331902379,465.8304285155547" stroke="grey" stroke-width="5" fill="none" />
<path d="M520.5634331902379,465.8304285155547 L24.0,-39.879999999999995" stroke="grey" stroke-width="5" />
<circle cx="520.5634331902379" cy="465.8304285155547" r="2.5" fill="grey" stroke="none" />
<circle cx="500.0" cy="460.12" r="5" fill="black" stroke="none" />
<circle cx="524.0" cy="460.12" r="5" fill="black" stroke="none" />
<path d="M524.0,460.12 A46.54475695499977,46.54475695499977,0,0,0,511.30205776937817,454.84827921133416" stroke="grey" stroke-width="5" fill="none" />
<path d="M511.30205776937817,454.84827921133416 L24.0,-95.88" stroke="grey" stroke-width="5" />
<circle cx="511.30205776937817" cy="454.84827921133416" r="2.5" fill="grey" stroke="none" />
<circle cx="524.0" cy="460.12" r="5" fill="black" stroke="none" />
<circle cx="524.0" cy="404.12" r="5" fill="black" stroke="none" />
<path d="M524.0,404.12 A98.83812219988803,98.83812219988803,0,0,0,520.7306975007095,403.36039848419244" stroke="grey" stroke-width="5" fill="none" />
<path d="M520.7306975007095,403.36039848419244 L24.0,-111.88" stroke="grey" stroke-width="5" />
<circle cx="520.7306975007095" cy="403.36039848419244" r="2.5" fill="grey" stroke="none" />
<circle cx="524.0" cy="404.12" r="5" fill="black" stroke="none" />
<circle cx="524.0" cy="388.12" r="5" fill="black" stroke="none" />
<path d="M524.0,388.12 A114.42523497900277,114.42523497900277,0,0,0,521.1063738289539,387.53820478139056" stroke="grey" stroke-width="5" fill="none" />
<path d="M521.1063738289539,387.53820478139056 L24.0,-127.88" stroke="grey" stroke-width="5" />
<circle cx="521.1063738289539" cy="387.53820478139056" r="2.5" fill="grey" stroke="none" />
<circle cx="524.0" cy="388.12" r="5" fill="black" stroke="none" />
<circle cx="524.0" cy="372.12" r="5" fill="black" stroke="none" />
<path d="M524.0,372.12 A130.11262198572436,130.11262198572436,0,0,0,520.3083421280799,371.48204156613417" stroke="grey" stroke-width="5" fill="none" />
<path d="M520.30834212808,371.48204156613417 L24.0,-151.88" stroke="grey" stroke-width="5" />
<circle cx="520.30834212808" cy="371.48204156613417" r="2.5" fill="grey" stroke="none" />
<circle cx="524.0" cy="372.12" r="5" fill="black" stroke="none" />
<circle cx="524.0" cy="348.12" r="5" fill="black" stroke="none" />
<path d="M524.0,348.12 A153.76454207651383,153.76454207651383,0,0,1,565.8669684765877,361.05728927466475" stroke="grey" stroke-width="5" fill="none" />
<path d="M565.8669684765877,361.05728927466475 L72.0,-151.88" stroke="grey" stroke-width="5" />
<circle cx="565.8669684765877" cy="361.05728927466475" r="2.5" fill="grey" stroke="none" />
<circle cx="524.0" cy="348.12" r="5" fill="black" stroke="none" />
<circle cx="572.0" cy="348.12" r="5" fill="black" stroke="none" />
<path d="M572.0,348.12 L556.9917543814652,379.77906034087596" stroke="grey" stroke-width="5" />
<circle cx="556.9917543814652" cy="379.77906034087596" r="2.5" fill="grey" stroke="none" />
<path d="M556.9917543814652,379.77906034087596 A133.04561022446399,133.04561022446399,0,0,1,572.0,388.12" stroke="grey" stroke-width="5" fill="none" />
<circle cx="572.0" cy="348.12" r="5" fill="black" stroke="none" />
<circle cx="572.0" cy="388.12" r="5" fill="black" stroke="none" />
<path d="M572.0,388.12 L561.9232525191072,403.7781459466984" stroke="grey" stroke-width="5" />
<circle cx="561.9232525191072" cy="403.7781459466984" r="2.5" fill="grey" stroke="none" />
<path d="M561.9232525191072,403.7781459466984 A114.42523497900277,114.42523497900277,0,0,0,524.0,388.12" stroke="grey" stroke-width="5" fill="none" />
<circle cx="572.0" cy="388.12" r="5" fill="black" stroke="none" />
<circle cx="524.0" cy="388.12" r="5" fill="black" stroke="none" />
<path d="M524.0,372.12 A130.11262198572436,130.11262198572436,0,0,1,582.0944104062667,399.05544997352524" stroke="grey" stroke-width="5" fill="none" />
<path d="M582.0944104062667,399.05544997352524 L104.0,-127.88" stroke="grey" stroke-width="5" />
<circle cx="582.0944104062667" cy="399.05544997352524" r="2.5" fill="grey" stroke="none" />
<circle cx="524.0" cy="372.12" r="5" fill="black" stroke="none" />
<circle cx="604.0" cy="372.12" r="5" fill="black" stroke="none" />
<circle cx="500" cy="500" r="5" fill="red" stroke="none" />
</svg>