<?xml version="1.0" encoding="UTF-8"?>
<svg xmlns="http://www.w3.org/2000/svg" xmlns:xlink="http://www.w3.org/1999/xlink"
     width="1000" height="1000" viewBox="0 0 1000 1000">
<defs>
</defs>
<rect x="0" y="0" width="1000" height="1000" fill="white" />
<path d="M276.0,325.55999999999995 L312.74580254206137,354.17579372963024" stroke="grey" stroke-width="5" />
<circle cx="312.74580254206137" cy="354.17579372963024" r="2.5" fill="grey" stroke="none" />
<path d="M312.7458025420615,354.1757937296302 A237.33696214454253,237.33696214454253,0,0,0,275.9999999999999,421.5600000000001" stroke="grey" stroke-width="5" fill="none" />
<circle cx="276.0" cy="325.55999999999995" r="5" fill="black" stroke="none" />
<circle cx="276.0" cy="421.55999999999995" r="5" fill="black" stroke="none" />
<path d="M276.0,421.55999999999995 L347.5131278708567,446.60236495620535" stroke="grey" stroke-width="5" />
<circle cx="347.5131278708567" cy="446.60236495620535" r="2.5" fill="grey" stroke="none" />
<path d="M347.51312787085664,446.6023649562054 A161.56594195559904,161.56594195559904,0,0,0,340.0,477.55999999999995" stroke="grey" stroke-width="5" fill="none" />
<circle cx="276.0" cy="421.55999999999995" r="5" fill="black" stroke="none" />
<circle cx="340.0" cy="477.55999999999995" r="5" fill="black" stroke="none" />
<path d="M252.0,477.55999999999995 L339.09142116508644,485.44036891509893" stroke="grey" stroke-width="5" />
<circle cx="339.09142116508644" cy="485.44036891509893" r="2.5" fill="grey" stroke="none" />
<path d="M339.09142116508644,485.44036891509904 A161.56594195559904,161.56594195559904,0,0,1,340.0,477.55999999999995" stroke="grey" stroke-width="5" fill="none" />
<circle cx="252.0" cy="477.55999999999995" r="5" fill="black" stroke="none" />
<circle cx="340.0" cy="477.55999999999995" r="5" fill="black" stroke="none" />
<path d="M340.0,477.55999999999995 L412.3401800168503,487.70571024736324" stroke="grey" stroke-width="5" />
<circle cx="412.3401800168503" cy="487.70571024736324" r="2.5" fill="grey" stroke="none" />
<path d="M412.3401800168503,487.70571024736324 A88.51775867022391,88.51775867022391,0,0,0,412.0,509.56" stroke="grey" stroke-width="5" fill="none" />
<circle cx="340.0" cy="477.55999999999995" r="5" fill="black" stroke="none" />
<circle cx="412.0" cy="509.55999999999995" r="5" fill="black" stroke="none" />
<path d="M412.0,509.55999999999995 L424.0445788291673,508.2515207544677" stroke="grey" stroke-width="5" />
<circle cx="424.0445788291673" cy="508.2515207544677" r="2.5" fill="grey" stroke="none" />
<path d="M424.0445788291673,508.2515207544677 A76.40231410107941,76.40231410107941,0,0,0,428.0,525.56" stroke="grey" stroke-width="5" fill="none" />
<circle cx="412.0" cy="509.55999999999995" r="5" fill="black" stroke="none" />
<circle cx="428.0" cy="525.56" r="5" fill="black" stroke="none" />
<path d="M428.0,525.56 L433.9449304092015,523.4495497047334" stroke="grey" stroke-width="5" />
<circle cx="433.9449304092015" cy="523.4495497047334" r="2.5" fill="grey" stroke="none" />
<path d="M433.9449304092015,523.4495497047334 A70.09389131728953,70.09389131728953,0,0,0,460.0,557.56" stroke="grey" stroke-width="5" fill="none" />
<circle cx="428.0" cy="525.56" r="5" fill="black" stroke="none" />
<circle cx="460.0" cy="557.56" r="5" fill="black" stroke="none" />
<path d="M428.0,525.56 A76.40231410107941,76.40231410107941,0,0,0,448.08302752285067,556.0530246178288" stroke="grey" stroke-width="5" fill="none" />
<path d="M448.0830275228507,556.0530246178288 L380.0,629.56" stroke="grey" stroke-width="5" />
<circle cx="448.0830275228507" cy="556.0530246178288" r="2.5" fill="grey" stroke="none" />
<circle cx="428.0" cy="525.56" r="5" fill="black" stroke="none" />
<circle cx="380.0" cy="629.56" r="5" fill="black" stroke="none" />
<path d="M379.99999999999994,629.56 A176.59499879668164,176.59499879668164,0,0,0,412.24577390261925,653.2481301747259" stroke="grey" stroke-width="5" fill="none" />
<path d="M412.24577390261925,653.2481301747259 L380.0,709.56" stroke="grey" stroke-width="5" />
<circle cx="412.24577390261925" cy="653.2481301747259" r="2.5" fill="grey" stroke="none" />
<circle cx="380.0" cy="629.56" r="5" fill="black" stroke="none" />
<circle cx="380.0" cy="709.56" r="5" fill="black" stroke="none" />
<path d="M276.0,725.56 L329.8373091878578,671.3477524088696" stroke="grey" stroke-width="5" />
<circle cx="329.8373091878578" cy="671.3477524088696" r="2.5" fill="grey" stroke="none" />
<path d="M329.8373091878578,671.3477524088696 A241.48580413763455,241.48580413763455,0,0,0,380.0,709.56" stroke="grey" stroke-width="5" fill="none" />
<circle cx="276.0" cy="725.56" r="5" fill="black" stroke="none" />
<circle cx="380.0" cy="709.56" r="5" fill="black" stroke="none" />
<path d="M380.0,709.56 A241.48580413763455,241.48580413763455,0,0,0,417.376610596585,726.9113684315787" stroke="grey" stroke-width="5" fill="none" />
<path d="M417.376610596585,726.9113684315787 L380.0,829.56" stroke="grey" stroke-width="5" />
<circle cx="417.376610596585" cy="726.9113684315787" r="2.5" fill="grey" stroke="none" />
<circle cx="380.0" cy="709.56" r="5" fill="black" stroke="none" />
<circle cx="380.0" cy="829.56" r="5" fill="black" stroke="none" />
<path d="M380.0,629.56 L407.8608850830099,599.4795310720436" stroke="grey" stroke-width="5" />
<circle cx="407.8608850830099" cy="599.4795310720436" r="2.5" fill="grey" stroke="none" />
<path d="M407.86088508300986,599.4795310720435 A135.59422406577647,135.59422406577647,0,0,0,460.0,629.56" stroke="grey" stroke-width="5" fill="none" />
<circle cx="380.0" cy="629.56" r="5" fill="black" stroke="none" />
<circle cx="460.0" cy="629.56" r="5" fill="black" stroke="none" />
<path d="M460.0,557.56 A70.09389131728953,70.09389131728953,0,0,0,479.32245512661746,566.9745678448861" stroke="grey" stroke-width="5" fill="none" />
<path d="M479.32245512661746,566.9745678448861 L460.0,629.56" stroke="grey" stroke-width="5" />
<circle cx="479.32245512661746" cy="566.9745678448861" r="2.5" fill="grey" stroke="none" />
<circle cx="460.0" cy="557.56" r="5" fill="black" stroke="none" />
<circle cx="460.0" cy="629.56" r="5" fill="black" stroke="none" />
<path d="M460.0,629.56 L460.6315565190644,627.5143884347502" stroke="grey" stroke-width="5" />
<circle cx="460.6315565190644" cy="627.5143884347502" r="2.5" fill="grey" stroke="none" />
<path d="M460.6315565190644,627.5143884347502 A133.45333866187084,133.45333866187084,0,0,0,532.0,629.56" stroke="grey" stroke-width="5" fill="none" />
<circle cx="460.0" cy="629.56" r="5" fill="black" stroke="none" />
<circle cx="532.0" cy="629.56" r="5" fill="black" stroke="none" />
<path d="M460.0,557.56 L467.1526297551684,547.2673657823127" stroke="grey" stroke-width="5" />
<circle cx="467.1526297551684" cy="547.2673657823127" r="2.5" fill="grey" stroke="none" />
<path d="M467.1526297551684,547.2673657823127 A57.559999999999974,57.559999999999974,0,0,0,500.0,557.56" stroke="grey" stroke-width="5" fill="none" />
<circle cx="460.0" cy="557.56" r="5" fill="black" stroke="none" />
<circle cx="500.0" cy="557.56" r="5" fill="black" stroke="none" />
<path d="M532.0,629.56 A133.45333866187084,133.45333866187084,0,0,0,606.950609002366,579.8208045187658" stroke="grey" stroke-width="5" fill="none" />
<path d="M606.950609002366,579.8208045187658 L620.0,589.56" stroke="grey" stroke-width="5" />
<circle cx="606.950609002366" cy="579.8208045187658" r="2.5" fill="grey" stroke="none" />
<circle cx="532.0" cy="629.56" r="5" fill="black" stroke="none" />
<circle cx="620.0" cy="589.56" r="5" fill="black" stroke="none" />
<path d="M500.0,557.56 A57.559999999999974,57.559999999999974,0,0,0,553.448236357642,521.3644478107352" stroke="grey" stroke-width="5" fill="none" />
<path d="M553.448236357642,521.3644478107352 L644.0,557.56" stroke="grey" stroke-width="5" />
<circle cx="553.448236357642" cy="521.3644478107352" r="2.5" fill="grey" stroke="none" />
<circle cx="500.0" cy="557.56" r="5" fill="black" stroke="none" />
<circle cx="644.0" cy="557.56" r="5" fill="black" stroke="none" />
<path d="M620.0,589.56 A149.73641374094677,149.73641374094677,0,0,0,639.0400839640689,555.577411340082" stroke="grey" stroke-width="5" fill="none" />
<path d="M639.0400839640689,555.577411340082 L644.0,557.56" stroke="grey" stroke-width="5" />
<circle cx="639.0400839640689" cy="555.577411340082" r="2.5" fill="grey" stroke="none" />
<circle cx="620.0" cy="589.56" r="5" fill="black" stroke="none" />
<circle cx="644.0" cy="557.56" r="5" fill="black" stroke="none" />
<path d="M380.0,709.56 L395.86468616736005,681.8549697230669" stroke="grey" stroke-width="5" />
<circle cx="395.86468616736005" cy="681.8549697230669" r="2.5" fill="grey" stroke="none" />
<path d="M395.86468616736005,681.8549697230669 A209.55999999999997,209.55999999999997,0,0,0,500.0,709.56" stroke="grey" stroke-width="5" fill="none" />
<circle cx="380.0" cy="709.56" r="5" fill="black" stroke="none" />
<circle cx="500.0" cy="709.56" r="5" fill="black" stroke="none" />
<path d="M500.0,709.56 L500.0,648.7006173490884" stroke="grey" stroke-width="5" />
<circle cx="500.0" cy="648.7006173490884" r="2.5" fill="grey" stroke="none" />
<path d="M500.0,648.7006173490884 A148.70061734908833,148.70061734908833,0,0,0,596.0,613.56" stroke="grey" stroke-width="5" fill="none" />
<circle cx="500.0" cy="709.56" r="5" fill="black" stroke="none" />
<circle cx="596.0" cy="613.56" r="5" fill="black" stroke="none" />
<path d="M596.0,613.56 A148.70061734908833,148.70061734908833,0,0,0,619.1699042075493,588.9404718402343" stroke="grey" stroke-width="5" fill="none" />
<path d="M619.1699042075493,588.9404718402343 L620.0,589.56" stroke="grey" stroke-width="5" />
<circle cx="619.1699042075493" cy="588.9404718402343" r="2.5" fill="grey" stroke="none" />
<circle cx="596.0" cy="613.56" r="5" fill="black" stroke="none" />
<circle cx="620.0" cy="589.56" r="5" fill="black" stroke="none" />
<path d="M620.0,589.56 A149.73641374094677,149.73641374094677,0,0,1,608.7577399737014,602.9210745951127" stroke="grey" stroke-width="5" fill="none" />
<path d="M608.7577399737014,602.9210745951127 L620.0,613.56" stroke="grey" stroke-width="5" />
<circle cx="608.7577399737014" cy="602.9210745951127" r="2.5" fill="grey" stroke="none" />
<circle cx="620.0" cy="589.56" r="5" fill="black" stroke="none" />
<circle cx="620.0" cy="613.56" r="5" fill="black" stroke="none" />
<path d="M620.0,613.56 A165.2146288922382,165.2146288922382,0,0,1,563.2520391245204,652.6271704074676" stroke="grey" stroke-width="5" fill="none" />
<path d="M563.2520391245204,652.6271704074676 L620.0,789.56" stroke="grey" stroke-width="5" />
<circle cx="563.2520391245204" cy="652.6271704074676" r="2.5" fill="grey" stroke="none" />
<circle cx="620.0" cy="613.56" r="5" fill="black" stroke="none" />
<circle cx="620.0" cy="789.56" r="5" fill="black" stroke="none" />
<path d="M620.0,789.56 A313.44057427206195,313.44057427206195,0,0,0,687.4140113872018,751.2388941540655" stroke="grey" stroke-width="5" fill="none" />
<path d="M687.4140113872019,751.2388941540655 L716.0,789.56" stroke="grey" stroke-width="5" />
<circle cx="687.4140113872019" cy="751.2388941540655" r="2.5" fill="grey" stroke="none" />
<circle cx="620.0" cy="789.56" r="5" fill="black" stroke="none" />
<circle cx="716.0" cy="789.56" r="5" fill="black" stroke="none" />
<path d="M620.0,789.56 A313.44057427206195,313.44057427206195,0,0,1,604.9890524998436,795.3342046820603" stroke="grey" stroke-width="5" fill="none" />
<path d="M604.9890524998436,795.3342046820603 L620.0,837.56" stroke="grey" stroke-width="5" />
<circle cx="604.9890524998436" cy="795.3342046820603" r="2.5" fill="grey" stroke="none" />
<circle cx="620.0" cy="789.56" r="5" fill="black" stroke="none" />
<circle cx="620.0" cy="837.56" r="5" fill="black" stroke="none" />
<path d="M308.0,413.55999999999995 L421.179651313072,464.5144221849059" stroke="grey" stroke-width="5" />
<circle cx="421.179651313072" cy="464.5144221849059" r="2.5" fill="grey" stroke="none" />
<path d="M421.179651313072,464.5144221849059 A86.44000000000003,86.44000000000003,0,0,1,500.0,413.55999999999995" stroke="grey" stroke-width="5" fill="none" />
<circle cx="308.0" cy="413.55999999999995" r="5" fill="black" stroke="none" />
<circle cx="500.0" cy="413.55999999999995" r="5" fill="black" stroke="none" />
<path d="M500.0,413.55999999999995 L500.0,557.56" stroke="grey" stroke-width="5" />
<circle cx="500.0" cy="413.55999999999995" r="5" fill="black" stroke="none" />
<circle cx="500.0" cy="557.56" r="5" fill="black" stroke="none" />
<path d="M500.0,413.55999999999995 A86.44000000000003,86.44000000000003,0,0,1,500.0,413.55999999999995" stroke="grey" stroke-width="5" fill="none" />
<path d="M500.0,413.55999999999995 L500.0,333.55999999999995" stroke="grey" stroke-width="5" />
<circle cx="500.0" cy="413.55999999999995" r="2.5" fill="grey" stroke="none" />
<circle cx="500.0" cy="413.55999999999995" r="5" fill="black" stroke="none" />
<circle cx="500.0" cy="333.55999999999995" r="5" fill="black" stroke="none" />
<path d="M500.0,333.55999999999995 A166.44000000000003,166.44000000000003,0,0,1,500.0,333.55999999999995" stroke="grey" stroke-width="5" fill="none" />
<path d="M500.0,333.55999999999995 L500.0,277.55999999999995" stroke="grey" stroke-width="5" />
<circle cx="500.0" cy="333.55999999999995" r="2.5" fill="grey" stroke="none" />
<circle cx="500.0" cy="333.55999999999995" r="5" fill="black" stroke="none" />
<circle cx="500.0" cy="277.55999999999995" r="5" fill="black" stroke="none" />
<path d="M500.0,333.55999999999995 L500.0,380.92945956282887" stroke="grey" stroke-width="5" />
<circle cx="500.0" cy="380.92945956282887" r="2.5" fill="grey" stroke="none" />
<path d="M500.0,380.92945956282887 A119.07054043717113,119.07054043717113,0,0,1,596.0,429.55999999999995" stroke="grey" stroke-width="5" fill="none" />
<circle cx="500.0" cy="333.55999999999995" r="5" fill="black" stroke="none" />
<circle cx="596.0" cy="429.55999999999995" r="5" fill="black" stroke="none" />
<path d="M500.0,413.55999999999995 A86.44000000000003,86.44000000000003,0,0,1,569.6917975641394,448.8636435373127" stroke="grey" stroke-width="5" fill="none" />
<path d="M569.6917975641394,448.8636435373127 L596.0,429.55999999999995" stroke="grey" stroke-width="5" />
<circle cx="569.6917975641394" cy="448.8636435373127" r="2.5" fill="grey" stroke="none" />
<circle cx="500.0" cy="413.55999999999995" r="5" fill="black" stroke="none" />
<circle cx="596.0" cy="429.55999999999995" r="5" fill="black" stroke="none" />
<path d="M596.0,429.55999999999995 A119.07054043717113,119.07054043717113,0,0,1,619.0635539266605,501.2898551675388" stroke="grey" stroke-width="5" fill="none" />
<path d="M619.0635539266605,501.2898551675388 L644.0,501.55999999999995" stroke="grey" stroke-width="5" />
<circle cx="619.0635539266605" cy="501.2898551675388" r="2.5" fill="grey" stroke="none" />
<circle cx="596.0" cy="429.55999999999995" r="5" fill="black" stroke="none" />
<circle cx="644.0" cy="501.55999999999995" r="5" fill="black" stroke="none" />
<path d="M596.0,613.56 A148.70061734908833,148.70061734908833,0,0,0,608.0054121207962,602.2091216703135" stroke="grey" stroke-width="5" fill="none" />
<path d="M608.0054121207962,602.2091216703135 L620.0,613.56" stroke="grey" stroke-width="5" />
<circle cx="608.0054121207962" cy="602.2091216703135" r="2.5" fill="grey" stroke="none" />
<circle cx="596.0" cy="613.56" r="5" fill="black" stroke="none" />
<circle cx="620.0" cy="613.56" r="5" fill="black" stroke="none" />
<path d="M620.0,613.56 A165.2146288922382,165.2146288922382,0,0,0,629.7285190242334,602.3053515304996" stroke="grey" stroke-width="5" fill="none" />
<path d="M629.7285190242334,602.3053515304996 L644.0,613.56" stroke="grey" stroke-width="5" />
<circle cx="629.7285190242334" cy="602.3053515304996" r="2.5" fill="grey" stroke="none" />
<circle cx="620.0" cy="613.56" r="5" fill="black" stroke="none" />
<circle cx="644.0" cy="613.56" r="5" fill="black" stroke="none" />
<path d="M644.0,613.56 L621.7690335358863,596.0284128356614" stroke="grey" stroke-width="5" />
<circle cx="621.7690335358863" cy="596.0284128356614" r="2.5" fill="grey" stroke="none" />
<path d="M621.7690335358863,596.0284128356614 A155.0778952655729,155.0778952655729,0,0,0,644.0,557.56" stroke="grey" stroke-width="5" fill="none" />
<circle cx="644.0" cy="613.56" r="5" fill="black" stroke="none" />
<circle cx="644.0" cy="557.56" r="5" fill="black" stroke="none" />
<path d="M644.0,557.56 L639.1709945231935,555.6297391996876" stroke="grey" stroke-width="5" />
<circle cx="639.1709945231935" cy="555.6297391996876" r="2.5" fill="grey" stroke="none" />
<path d="M639.1709945231935,555.6297391996876 A149.8773952268987,149.8773952268987,0,0,0,644.0,541.56" stroke="grey" stroke-width="5" fill="none" />
<circle cx="644.0" cy="557.56" r="5" fill="black" stroke="none" />
<circle cx="644.0" cy="541.56" r="5" fill="black" stroke="none" />
<path d="M644.0,541.56 L640.5156767384161,540.554385592004" stroke="grey" stroke-width="5" />
<circle cx="640.5156767384161" cy="540.554385592004" r="2.5" fill="grey" stroke="none" />
<path d="M640.5156767384161,540.554385592004 A146.25085845901896,146.25085845901896,0,0,0,644.0,525.56" stroke="grey" stroke-width="5" fill="none" />
<circle cx="644.0" cy="541.56" r="5" fill="black" stroke="none" />
<circle cx="644.0" cy="525.56" r="5" fill="black" stroke="none" />
<path d="M644.0,525.56 L641.7921028484877,525.1680982556065" stroke="grey" stroke-width="5" />
<circle cx="641.7921028484877" cy="525.1680982556065" r="2.5" fill="grey" stroke="none" />
<path d="M641.7921028484877,525.1680982556065 A144.0084497520892,144.0084497520892,0,0,0,644.0,501.55999999999995" stroke="grey" stroke-width="5" fill="none" />
<circle cx="644.0" cy="525.56" r="5" fill="black" stroke="none" />
<circle cx="644.0" cy="501.55999999999995" r="5" fill="black" stroke="none" />
<path d="M644.0,501.55999999999995 A144.0084497520892,144.0084497520892,0,0,0,644.0036965835177,501.17003003474105" stroke="grey" stroke-width="5" fill="none" />
<path d="M644.0036965835177,501.17003003474105 L692.0,501.55999999999995" stroke="grey" stroke-width="5" />
<circle cx="644.0036965835177" cy="501.17003003474105" r="2.5" fill="grey" stroke="none" />
<circle cx="644.0" cy="501.55999999999995" r="5" fill="black" stroke="none" />
<circle cx="692.0" cy="501.55999999999995" r="5" fill="black" stroke="none" />
<path d="M692.0,501.55999999999995 A192.00633739540993,192.00633739540993,0,0,1,687.6603238059074,540.6206409238204" stroke="grey" stroke-width="5" fill="none" />
<path d="M687.6603238059074,540.6206409238204 L692.0,541.56" stroke="grey" stroke-width="5" />
<circle cx="687.6603238059074" cy="540.6206409238204" r="2.5" fill="grey" stroke="none" />
<circle cx="692.0" cy="501.55999999999995" r="5" fill="black" stroke="none" />
<circle cx="692.0" cy="541.56" r="5" fill="black" stroke="none" />
<path d="M692.0,541.56 L646.484959303943,531.7078901493327" stroke="grey" stroke-width="5" />
<circle cx="646.484959303943" cy="531.7078901493327" r="2.5" fill="grey" stroke="none" />
<path d="M646.484959303943,531.7078901493327 A149.8773952268987,149.8773952268987,0,0,1,644.0,541.56" stroke="grey" stroke-width="5" fill="none" />
<circle cx="692.0" cy="541.56" r="5" fill="black" stroke="none" />
<circle cx="644.0" cy="541.56" r="5" fill="black" stroke="none" />
<path d="M644.0,525.56 A146.25085845901896,146.25085845901896,0,0,0,645.3079312603347,516.5806728705988" stroke="grey" stroke-width="5" fill="none" />
<path d="M645.3079312603347,516.5806728705988 L724.0,525.56" stroke="grey" stroke-width="5" />
<circle cx="645.3079312603347" cy="516.5806728705988" r="2.5" fill="grey" stroke="none" />
<circle cx="644.0" cy="525.56" r="5" fill="black" stroke="none" />
<circle cx="724.0" cy="525.56" r="5" fill="black" stroke="none" />
<circle cx="500" cy="500" r="5" fill="red" stroke="none" />
</svg>