<?xml version="1.0" encoding="UTF-8"?>
<svg xmlns="http://www.w3.org/2000/svg" xmlns:xlink="http://www.w3.org/1999/xlink"
     width="1000" height="1000" viewBox="0 0 1000 1000">
<defs>
</defs>
<rect x="0" y="0" width="1000" height="1000" fill="white" />
<path d="M156.0,85.79999999999995 L200.60837141833883,139.5115913996392" stroke="grey" stroke-width="5" />
<circle cx="200.60837141833883" cy="139.5115913996392" r="2.5" fill="grey" stroke="none" />
<path d="M200.60837141833883,139.5115913996392 A468.6013657683896,468.6013657683896,0,0,0,156.00000000000017,181.79999999999973" stroke="grey" stroke-width="5" fill="none" />
<circle cx="156.0" cy="85.79999999999995" r="5" fill="black" stroke="none" />
<circle cx="156.0" cy="181.79999999999995" r="5" fill="black" stroke="none" />
<path d="M156.0,181.79999999999995 L218.39956979732182,239.5196020625226" stroke="grey" stroke-width="5" />
<circle cx="218.39956979732182" cy="239.5196020625226" r="2.5" fill="grey" stroke="none" />
<path d="M218.39956979732193,239.51960206252244 A383.599843587038,383.599843587038,0,0,1,219.99999999999994,237.8" stroke="grey" stroke-width="5" fill="none" />
<circle cx="156.0" cy="181.79999999999995" r="5" fill="black" stroke="none" />
<circle cx="220.0" cy="237.79999999999995" r="5" fill="black" stroke="none" />
<path d="M132.0,237.79999999999995 L187.5883250948218,277.40668163006046" stroke="grey" stroke-width="5" />
<circle cx="187.5883250948218" cy="277.40668163006046" r="2.5" fill="grey" stroke="none" />
<path d="M187.5883250948217,277.4066816300606 A383.599843587038,383.599843587038,0,0,1,219.99999999999994,237.8" stroke="grey" stroke-width="5" fill="none" />
<circle cx="132.0" cy="237.79999999999995" r="5" fill="black" stroke="none" />
<circle cx="220.0" cy="237.79999999999995" r="5" fill="black" stroke="none" />
<path d="M220.0,237.79999999999995 L273.53890376376063,287.93535916735016" stroke="grey" stroke-width="5" />
<circle cx="273.53890376376063" cy="287.93535916735016" r="2.5" fill="grey" stroke="none" />
<path d="M273.53890376376063,287.93535916735016 A310.2515753384663,310.2515753384663,0,0,1,292.0,269.7999999999999" stroke="grey" stroke-width="5" fill="none" />
<circle cx="220.0" cy="237.79999999999995" r="5" fill="black" stroke="none" />
<circle cx="292.0" cy="269.79999999999995" r="5" fill="black" stroke="none" />
<path d="M292.0,269.79999999999995 L307.1489981709868,286.56586239885155" stroke="grey" stroke-width="5" />
<circle cx="307.1489981709868" cy="286.56586239885155" r="2.5" fill="grey" stroke="none" />
<path d="M307.1489981709868,286.56586239885155 A287.6554188608308,287.6554188608308,0,0,1,308.0,285.79999999999995" stroke="grey" stroke-width="5" fill="none" />
<circle cx="292.0" cy="269.79999999999995" r="5" fill="black" stroke="none" />
<circle cx="308.0" cy="285.79999999999995" r="5" fill="black" stroke="none" />
<path d="M308.0,285.79999999999995 L338.15262427713105,319.43902145917434" stroke="grey" stroke-width="5" />
<circle cx="338.15262427713105" cy="319.43902145917434" r="2.5" fill="grey" stroke="none" />
<path d="M338.15262427713105,319.43902145917434 A242.4805971619173,242.4805971619173,0,0,1,340.00000000000006,317.79999999999995" stroke="grey" stroke-width="5" fill="none" />
<circle cx="308.0" cy="285.79999999999995" r="5" fill="black" stroke="none" />
<circle cx="340.0" cy="317.79999999999995" r="5" fill="black" stroke="none" />
<path d="M308.0,285.79999999999995 L323.7284516228508,303.3470538417429" stroke="grey" stroke-width="5" />
<circle cx="323.7284516228508" cy="303.3470538417429" r="2.5" fill="grey" stroke="none" />
<path d="M323.7284516228508,303.3470538417429 A264.0909691753961,264.0909691753961,0,0,0,260.0,389.7999999999999" stroke="grey" stroke-width="5" fill="none" />
<circle cx="308.0" cy="285.79999999999995" r="5" fill="black" stroke="none" />
<circle cx="260.0" cy="389.79999999999995" r="5" fill="black" stroke="none" />
<path d="M260.0,389.79999999999995 L280.17336535772586,399.0629369267557" stroke="grey" stroke-width="5" />
<circle cx="280.17336535772586" cy="399.0629369267557" r="2.5" fill="grey" stroke="none" />
<path d="M280.17336535772586,399.0629369267557 A241.8926208051829,241.8926208051829,0,0,0,260.0,469.7999999999999" stroke="grey" stroke-width="5" fill="none" />
<circle cx="260.0" cy="389.79999999999995" r="5" fill="black" stroke="none" />
<circle cx="260.0" cy="469.79999999999995" r="5" fill="black" stroke="none" />
<path d="M156.0,485.79999999999995 L258.31320406257487,490.02339388862947" stroke="grey" stroke-width="5" />
<circle cx="258.31320406257487" cy="490.02339388862947" r="2.5" fill="grey" stroke="none" />
<path d="M258.31320406257487,490.02339388862947 A241.8926208051829,241.8926208051829,0,0,1,260.0,469.7999999999999" stroke="grey" stroke-width="5" fill="none" />
<circle cx="156.0" cy="485.79999999999995" r="5" fill="black" stroke="none" />
<circle cx="260.0" cy="469.79999999999995" r="5" fill="black" stroke="none" />
<path d="M260.0,469.7999999999999 A241.8926208051829,241.8926208051829,0,0,0,273.446872431299,584.768628565289" stroke="grey" stroke-width="5" fill="none" />
<path d="M273.446872431299,584.768628565289 L-240.0,89.79999999999995" stroke="grey" stroke-width="5" />
<circle cx="273.446872431299" cy="584.768628565289" r="2.5" fill="grey" stroke="none" />
<circle cx="260.0" cy="469.79999999999995" r="5" fill="black" stroke="none" />
<circle cx="260.0" cy="589.8" r="5" fill="black" stroke="none" />
<path d="M260.0,389.79999999999995 L323.44424302119535,418.93148158723216" stroke="grey" stroke-width="5" />
<circle cx="323.44424302119535" cy="418.93148158723216" r="2.5" fill="grey" stroke="none" />
<path d="M323.44424302119535,418.93148158723216 A194.27825405845093,194.27825405845093,0,0,1,340.0,389.79999999999995" stroke="grey" stroke-width="5" fill="none" />
<circle cx="260.0" cy="389.79999999999995" r="5" fill="black" stroke="none" />
<circle cx="340.0" cy="389.79999999999995" r="5" fill="black" stroke="none" />
<path d="M340.0,317.79999999999995 L371.8061526852998,354.01925637038516" stroke="grey" stroke-width="5" />
<circle cx="371.8061526852998" cy="354.01925637038516" r="2.5" fill="grey" stroke="none" />
<path d="M371.8061526852998,354.0192563703851 A194.27825405845093,194.27825405845093,0,0,0,340.0,389.79999999999995" stroke="grey" stroke-width="5" fill="none" />
<circle cx="340.0" cy="317.79999999999995" r="5" fill="black" stroke="none" />
<circle cx="340.0" cy="389.79999999999995" r="5" fill="black" stroke="none" />
<path d="M340.0,389.79999999999995 L383.8573360561989,420.006740208707" stroke="grey" stroke-width="5" />
<circle cx="383.8573360561989" cy="420.006740208707" r="2.5" fill="grey" stroke="none" />
<path d="M383.8573360561989,420.006740208707 A141.02496232936923,141.02496232936923,0,0,1,412.0,389.79999999999995" stroke="grey" stroke-width="5" fill="none" />
<circle cx="340.0" cy="389.79999999999995" r="5" fill="black" stroke="none" />
<circle cx="412.0" cy="389.79999999999995" r="5" fill="black" stroke="none" />
<path d="M340.0,317.79999999999995 L356.04324449352254,336.06924466699877" stroke="grey" stroke-width="5" />
<circle cx="356.04324449352254" cy="336.06924466699877" r="2.5" fill="grey" stroke="none" />
<path d="M356.0432444935226,336.06924466699877 A218.16700025439232,218.16700025439232,0,0,1,380.0,317.79999999999995" stroke="grey" stroke-width="5" fill="none" />
<circle cx="340.0" cy="317.79999999999995" r="5" fill="black" stroke="none" />
<circle cx="380.0" cy="317.79999999999995" r="5" fill="black" stroke="none" />
<path d="M412.0,389.79999999999995 A141.02496232936923,141.02496232936923,0,0,1,500.0,358.97503767063074" stroke="grey" stroke-width="5" fill="none" />
<path d="M500.0,358.97503767063074 L0.0,-150.20000000000005" stroke="grey" stroke-width="5" />
<circle cx="500.0" cy="358.97503767063074" r="2.5" fill="grey" stroke="none" />
<circle cx="412.0" cy="389.79999999999995" r="5" fill="black" stroke="none" />
<circle cx="500.0" cy="349.79999999999995" r="5" fill="black" stroke="none" />
<path d="M380.0,317.79999999999995 L398.9174993904433,346.523069907823" stroke="grey" stroke-width="5" />
<circle cx="398.9174993904433" cy="346.523069907823" r="2.5" fill="grey" stroke="none" />
<path d="M398.9174993904433,346.523069907823 A183.77388280166477,183.77388280166477,0,0,1,524.0,317.79999999999995" stroke="grey" stroke-width="5" fill="none" />
<circle cx="380.0" cy="317.79999999999995" r="5" fill="black" stroke="none" />
<circle cx="524.0" cy="317.79999999999995" r="5" fill="black" stroke="none" />
<path d="M500.0,349.79999999999995 A150.20000000000005,150.20000000000005,0,0,1,519.6154096819646,351.0863481644188" stroke="grey" stroke-width="5" fill="none" />
<path d="M519.6154096819646,351.0863481644188 L24.0,-182.20000000000005" stroke="grey" stroke-width="5" />
<circle cx="519.6154096819646" cy="351.0863481644188" r="2.5" fill="grey" stroke="none" />
<circle cx="500.0" cy="349.79999999999995" r="5" fill="black" stroke="none" />
<circle cx="524.0" cy="317.79999999999995" r="5" fill="black" stroke="none" />
<path d="M260.0,469.79999999999995 L377.22635513119064,484.5509830206748" stroke="grey" stroke-width="5" />
<circle cx="377.22635513119064" cy="484.5509830206748" r="2.5" fill="grey" stroke="none" />
<path d="M377.22635513119064,484.5509830206748 A123.74182801300456,123.74182801300456,0,0,1,380.0,469.79999999999995" stroke="grey" stroke-width="5" fill="none" />
<circle cx="260.0" cy="469.79999999999995" r="5" fill="black" stroke="none" />
<circle cx="380.0" cy="469.79999999999995" r="5" fill="black" stroke="none" />
<path d="M380.0,469.79999999999995 A123.74182801300456,123.74182801300456,0,0,1,476.8818174915967,378.4368903099787" stroke="grey" stroke-width="5" fill="none" />
<path d="M476.8818174915966,378.4368903099787 L-24.0,-126.20000000000005" stroke="grey" stroke-width="5" />
<circle cx="476.8818174915966" cy="378.4368903099787" r="2.5" fill="grey" stroke="none" />
<circle cx="380.0" cy="469.79999999999995" r="5" fill="black" stroke="none" />
<circle cx="476.0" cy="373.79999999999995" r="5" fill="black" stroke="none" />
<path d="M476.00000000000006,373.79999999999995 A128.46182312266944,128.46182312266944,0,0,1,500.0,371.53817687733056" stroke="grey" stroke-width="5" fill="none" />
<path d="M500.0,371.53817687733056 L0.0,-150.20000000000005" stroke="grey" stroke-width="5" />
<circle cx="500.0" cy="371.53817687733056" r="2.5" fill="grey" stroke="none" />
<circle cx="476.0" cy="373.79999999999995" r="5" fill="black" stroke="none" />
<circle cx="500.0" cy="349.79999999999995" r="5" fill="black" stroke="none" />
<path d="M500.0,349.79999999999995 L500.0,373.79999999999995" stroke="grey" stroke-width="5" />
<circle cx="500.0" cy="373.79999999999995" r="2.5" fill="grey" stroke="none" />
<path d="M500.0,373.79999999999995 A126.20000000000005,126.20000000000005,0,0,1,500.0,373.79999999999995" stroke="grey" stroke-width="5" fill="none" />
<circle cx="500.0" cy="349.79999999999995" r="5" fill="black" stroke="none" />
<circle cx="500.0" cy="373.79999999999995" r="5" fill="black" stroke="none" />
<path d="M500.0,373.79999999999995 L500.0,549.8" stroke="grey" stroke-width="5" />
<circle cx="500.0" cy="373.79999999999995" r="5" fill="black" stroke="none" />
<circle cx="500.0" cy="549.8" r="5" fill="black" stroke="none" />
<path d="M500.0,549.8 A49.799999999999955,49.799999999999955,0,0,0,544.20599328259,522.9318590153435" stroke="grey" stroke-width="5" fill="none" />
<path d="M544.20599328259,522.9318590153435 L96.0,49.799999999999955" stroke="grey" stroke-width="5" />
<circle cx="544.20599328259" cy="522.9318590153435" r="2.5" fill="grey" stroke="none" />
<circle cx="500.0" cy="549.8" r="5" fill="black" stroke="none" />
<circle cx="596.0" cy="549.8" r="5" fill="black" stroke="none" />
<path d="M500.0,549.8 A49.799999999999955,49.799999999999955,0,0,1,500.0,549.8" stroke="grey" stroke-width="5" fill="none" />
<path d="M500.0,549.8 L0.0,97.79999999999995" stroke="grey" stroke-width="5" />
<circle cx="500.0" cy="549.8" r="2.5" fill="grey" stroke="none" />
<circle cx="500.0" cy="549.8" r="5" fill="black" stroke="none" />
<circle cx="500.0" cy="597.8" r="5" fill="black" stroke="none" />
<path d="M188.0,173.79999999999995 L259.757211760906,248.82308486028052" stroke="grey" stroke-width="5" />
<circle cx="259.757211760906" cy="248.82308486028052" r="2.5" fill="grey" stroke="none" />
<path d="M259.757211760906,248.82308486028052 A347.57220832511916,347.57220832511916,0,0,1,380.0,173.79999999999995" stroke="grey" stroke-width="5" fill="none" />
<circle cx="188.0" cy="173.79999999999995" r="5" fill="black" stroke="none" />
<circle cx="380.0" cy="173.79999999999995" r="5" fill="black" stroke="none" />
<path d="M380.0,173.79999999999995 L424.67740687127014,295.24808434506934" stroke="grey" stroke-width="5" />
<circle cx="424.67740687127014" cy="295.24808434506934" r="2.5" fill="grey" stroke="none" />
<path d="M424.67740687127014,295.24808434506934 A218.16700025439232,218.16700025439232,0,0,0,380.0,317.79999999999995" stroke="grey" stroke-width="5" fill="none" />
<circle cx="380.0" cy="173.79999999999995" r="5" fill="black" stroke="none" />
<circle cx="380.0" cy="317.79999999999995" r="5" fill="black" stroke="none" />
<path d="M380.0,173.79999999999995 A347.57220832511916,347.57220832511916,0,0,1,401.52704780309136,166.66905681346446" stroke="grey" stroke-width="5" fill="none" />
<path d="M401.5270478030914,166.66905681346446 L-120.0,-406.20000000000005" stroke="grey" stroke-width="5" />
<circle cx="401.5270478030914" cy="166.66905681346446" r="2.5" fill="grey" stroke="none" />
<circle cx="380.0" cy="173.79999999999995" r="5" fill="black" stroke="none" />
<circle cx="380.0" cy="93.79999999999995" r="5" fill="black" stroke="none" />
<path d="M379.9999999999999,93.79999999999995 A423.55453013750196,423.55453013750196,0,0,1,393.5622493143891,90.03726360925464" stroke="grey" stroke-width="5" fill="none" />
<path d="M393.5622493143889,90.0372636092547 L-120.0,-462.20000000000005" stroke="grey" stroke-width="5" />
<circle cx="393.5622493143889" cy="90.0372636092547" r="2.5" fill="grey" stroke="none" />
<circle cx="380.0" cy="93.79999999999995" r="5" fill="black" stroke="none" />
<circle cx="380.0" cy="37.799999999999955" r="5" fill="black" stroke="none" />
<path d="M380.0,93.79999999999995 L411.8525641824191,201.62092975748874" stroke="grey" stroke-width="5" />
<circle cx="411.8525641824191" cy="201.62092975748874" r="2.5" fill="grey" stroke="none" />
<path d="M411.85256418241903,201.62092975748874 A311.12704800450894,311.12704800450894,0,0,1,476.0,189.79999999999995" stroke="grey" stroke-width="5" fill="none" />
<circle cx="380.0" cy="93.79999999999995" r="5" fill="black" stroke="none" />
<circle cx="476.0" cy="189.79999999999995" r="5" fill="black" stroke="none" />
<path d="M380.0,173.79999999999995 L392.58276448381145,208.00414812182743" stroke="grey" stroke-width="5" />
<circle cx="392.58276448381145" cy="208.00414812182743" r="2.5" fill="grey" stroke="none" />
<path d="M392.58276448381145,208.00414812182743 A311.12704800450894,311.12704800450894,0,0,1,476.0,189.79999999999995" stroke="grey" stroke-width="5" fill="none" />
<circle cx="380.0" cy="173.79999999999995" r="5" fill="black" stroke="none" />
<circle cx="476.0" cy="189.79999999999995" r="5" fill="black" stroke="none" />
<path d="M476.0,189.79999999999995 L481.53248200071164,261.3073298591974" stroke="grey" stroke-width="5" />
<circle cx="481.53248200071164" cy="261.3073298591974" r="2.5" fill="grey" stroke="none" />
<path d="M481.53248200071164,261.3073298591974 A239.4060149620306,239.4060149620306,0,0,1,524.0,261.79999999999995" stroke="grey" stroke-width="5" fill="none" />
<circle cx="476.0" cy="189.79999999999995" r="5" fill="black" stroke="none" />
<circle cx="524.0" cy="261.79999999999995" r="5" fill="black" stroke="none" />
<path d="M476.0,373.79999999999995 L476.42256721588194,376.02199927684586" stroke="grey" stroke-width="5" />
<circle cx="476.42256721588194" cy="376.02199927684586" r="2.5" fill="grey" stroke="none" />
<path d="M476.422567215882,376.02199927684586 A126.20000000000005,126.20000000000005,0,0,1,500.0,373.79999999999995" stroke="grey" stroke-width="5" fill="none" />
<circle cx="476.0" cy="373.79999999999995" r="5" fill="black" stroke="none" />
<circle cx="500.0" cy="373.79999999999995" r="5" fill="black" stroke="none" />
<path d="M500.0,373.79999999999995 A126.20000000000005,126.20000000000005,0,0,1,523.5774327841181,376.02199927684586" stroke="grey" stroke-width="5" fill="none" />
<path d="M523.5774327841181,376.02199927684586 L24.0,-126.20000000000005" stroke="grey" stroke-width="5" />
<circle cx="523.5774327841181" cy="376.02199927684586" r="2.5" fill="grey" stroke="none" />
<circle cx="500.0" cy="373.79999999999995" r="5" fill="black" stroke="none" />
<circle cx="524.0" cy="373.79999999999995" r="5" fill="black" stroke="none" />
<path d="M524.0,373.79999999999995 A128.46182312266944,128.46182312266944,0,0,0,516.7765065848417,372.63835417674295" stroke="grey" stroke-width="5" fill="none" />
<path d="M516.7765065848417,372.63835417674295 L24.0,-182.20000000000005" stroke="grey" stroke-width="5" />
<circle cx="516.7765065848417" cy="372.63835417674295" r="2.5" fill="grey" stroke="none" />
<circle cx="524.0" cy="373.79999999999995" r="5" fill="black" stroke="none" />
<circle cx="524.0" cy="317.79999999999995" r="5" fill="black" stroke="none" />
<path d="M524.0,317.79999999999995 A183.77388280166477,183.77388280166477,0,0,0,522.0917706632792,317.55879393908543" stroke="grey" stroke-width="5" fill="none" />
<path d="M522.0917706632792,317.55879393908543 L24.0,-198.20000000000005" stroke="grey" stroke-width="5" />
<circle cx="522.0917706632792" cy="317.55879393908543" r="2.5" fill="grey" stroke="none" />
<circle cx="524.0" cy="317.79999999999995" r="5" fill="black" stroke="none" />
<circle cx="524.0" cy="301.79999999999995" r="5" fill="black" stroke="none" />
<path d="M524.0,301.79999999999995 A199.64778987006096,199.64778987006096,0,0,0,522.230394841039,301.5937260437273" stroke="grey" stroke-width="5" fill="none" />
<path d="M522.230394841039,301.5937260437273 L24.0,-214.20000000000005" stroke="grey" stroke-width="5" />
<circle cx="522.230394841039" cy="301.5937260437273" r="2.5" fill="grey" stroke="none" />
<circle cx="524.0" cy="301.79999999999995" r="5" fill="black" stroke="none" />
<circle cx="524.0" cy="285.79999999999995" r="5" fill="black" stroke="none" />
<path d="M524.0,285.79999999999995 A215.54034425137218,215.54034425137218,0,0,0,521.6075116694682,285.54544668052904" stroke="grey" stroke-width="5" fill="none" />
<path d="M521.6075116694681,285.54544668052904 L24.0,-238.20000000000005" stroke="grey" stroke-width="5" />
<circle cx="521.6075116694681" cy="285.54544668052904" r="2.5" fill="grey" stroke="none" />
<circle cx="524.0" cy="285.79999999999995" r="5" fill="black" stroke="none" />
<circle cx="524.0" cy="261.79999999999995" r="5" fill="black" stroke="none" />
<path d="M524.0,261.79999999999995 A239.4060149620306,239.4060149620306,0,0,1,569.2692871257625,270.8341084256021" stroke="grey" stroke-width="5" fill="none" />
<path d="M569.2692871257625,270.8341084256021 L72.0,-238.20000000000005" stroke="grey" stroke-width="5" />
<circle cx="569.2692871257625" cy="270.8341084256021" r="2.5" fill="grey" stroke="none" />
<circle cx="524.0" cy="261.79999999999995" r="5" fill="black" stroke="none" />
<circle cx="572.0" cy="261.79999999999995" r="5" fill="black" stroke="none" />
<path d="M572.0,261.79999999999995 L561.013473169191,298.14709293192624" stroke="grey" stroke-width="5" />
<circle cx="561.013473169191" cy="298.14709293192624" r="2.5" fill="grey" stroke="none" />
<path d="M561.013473169191,298.14709293192624 A210.872568154324,210.872568154324,0,0,1,572.0,301.79999999999995" stroke="grey" stroke-width="5" fill="none" />
<circle cx="572.0" cy="261.79999999999995" r="5" fill="black" stroke="none" />
<circle cx="572.0" cy="301.79999999999995" r="5" fill="black" stroke="none" />
<path d="M572.0,301.79999999999995 L568.1674292510372,312.35021558950604" stroke="grey" stroke-width="5" />
<circle cx="568.1674292510372" cy="312.35021558950604" r="2.5" fill="grey" stroke="none" />
<path d="M568.1674292510372,312.35021558950604 A199.64778987006096,199.64778987006096,0,0,0,524.0,301.79999999999995" stroke="grey" stroke-width="5" fill="none" />
<circle cx="572.0" cy="301.79999999999995" r="5" fill="black" stroke="none" />
<circle cx="524.0" cy="301.79999999999995" r="5" fill="black" stroke="none" />
<path d="M524.0,285.79999999999995 A215.54034425137218,215.54034425137218,0,0,1,594.141132921107,306.10547431056625" stroke="grey" stroke-width="5" fill="none" />
<path d="M594.141132921107,306.10547431056625 L104.0,-214.20000000000005" stroke="grey" stroke-width="5" />
<circle cx="594.141132921107" cy="306.10547431056625" r="2.5" fill="grey" stroke="none" />
<circle cx="524.0" cy="285.79999999999995" r="5" fill="black" stroke="none" />
<circle cx="604.0" cy="285.79999999999995" r="5" fill="black" stroke="none" />
<circle cx="500" cy="500" r="5" fill="red" stroke="none" />
</svg>