<?xml version="1.0" encoding="UTF-8"?>
<svg xmlns="http://www.w3.org/2000/svg" xmlns:xlink="http://www.w3.org/1999/xlink"
     width="1000" height="1000" viewBox="0 0 1000 1000">
<defs>
</defs>
<rect x="0" y="0" width="1000" height="1000" fill="white" />
<path d="M156.0,99.07999999999993 L200.6619370750367,151.13192968640607" stroke="grey" stroke-width="5" />
<circle cx="200.6619370750367" cy="151.13192968640607" r="2.5" fill="grey" stroke="none" />
<path d="M200.6619370750367,151.13192968640607 A459.687074432162,459.687074432162,0,0,0,155.9999999999999,195.08000000000015" stroke="grey" stroke-width="5" fill="none" />
<circle cx="156.0" cy="99.07999999999993" r="5" fill="black" stroke="none" />
<circle cx="156.0" cy="195.07999999999993" r="5" fill="black" stroke="none" />
<path d="M156.0,195.07999999999993 L219.63768685684533,251.48814964066653" stroke="grey" stroke-width="5" />
<circle cx="219.63768685684533" cy="251.48814964066653" r="2.5" fill="grey" stroke="none" />
<path d="M219.63768685684528,251.48814964066665 A374.6480567145652,374.6480567145652,0,0,1,219.99999999999994,251.07999999999993" stroke="grey" stroke-width="5" fill="none" />
<circle cx="156.0" cy="195.07999999999993" r="5" fill="black" stroke="none" />
<circle cx="220.0" cy="251.07999999999993" r="5" fill="black" stroke="none" />
<path d="M132.0,251.07999999999993 L189.67694154511378,290.0934355690482" stroke="grey" stroke-width="5" />
<circle cx="189.67694154511378" cy="290.0934355690482" r="2.5" fill="grey" stroke="none" />
<path d="M189.6769415451139,290.093435569048 A374.6480567145652,374.6480567145652,0,0,1,219.99999999999994,251.07999999999993" stroke="grey" stroke-width="5" fill="none" />
<circle cx="132.0" cy="251.07999999999993" r="5" fill="black" stroke="none" />
<circle cx="220.0" cy="251.07999999999993" r="5" fill="black" stroke="none" />
<path d="M220.0,251.07999999999993 L275.3934631342537,300.32478872635147" stroke="grey" stroke-width="5" />
<circle cx="275.3934631342537" cy="300.32478872635147" r="2.5" fill="grey" stroke="none" />
<path d="M275.3934631342537,300.32478872635147 A300.5300091505007,300.5300091505007,0,0,1,292.0,283.0799999999999" stroke="grey" stroke-width="5" fill="none" />
<circle cx="220.0" cy="251.07999999999993" r="5" fill="black" stroke="none" />
<circle cx="292.0" cy="283.0799999999999" r="5" fill="black" stroke="none" />
<path d="M292.0,283.0799999999999 L307.6569444855135,299.40838652787295" stroke="grey" stroke-width="5" />
<circle cx="307.6569444855135" cy="299.40838652787295" r="2.5" fill="grey" stroke="none" />
<path d="M307.6569444855135,299.40838652787295 A277.9079818932879,277.9079818932879,0,0,1,308.0,299.0799999999999" stroke="grey" stroke-width="5" fill="none" />
<circle cx="292.0" cy="283.0799999999999" r="5" fill="black" stroke="none" />
<circle cx="308.0" cy="299.0799999999999" r="5" fill="black" stroke="none" />
<path d="M308.0,299.0799999999999 L339.2558661952371,331.7879616455574" stroke="grey" stroke-width="5" />
<circle cx="339.2558661952371" cy="331.7879616455574" r="2.5" fill="grey" stroke="none" />
<path d="M339.2558661952371,331.7879616455574 A232.6670720149287,232.6670720149287,0,0,1,340.0,331.0799999999999" stroke="grey" stroke-width="5" fill="none" />
<circle cx="308.0" cy="299.0799999999999" r="5" fill="black" stroke="none" />
<circle cx="340.0" cy="331.0799999999999" r="5" fill="black" stroke="none" />
<path d="M308.0,299.0799999999999 L321.1798322533693,312.87214529347364" stroke="grey" stroke-width="5" />
<circle cx="321.1798322533693" cy="312.87214529347364" r="2.5" fill="grey" stroke="none" />
<path d="M321.1798322533693,312.87214529347364 A258.83099968898625,258.83099968898625,0,0,0,260.0,403.08" stroke="grey" stroke-width="5" fill="none" />
<circle cx="308.0" cy="299.0799999999999" r="5" fill="black" stroke="none" />
<circle cx="260.0" cy="403.0799999999999" r="5" fill="black" stroke="none" />
<path d="M260.0,403.0799999999999 L276.90861664306476,409.90826302102425" stroke="grey" stroke-width="5" />
<circle cx="276.90861664306476" cy="409.90826302102425" r="2.5" fill="grey" stroke="none" />
<path d="M276.90861664306476,409.90826302102425 A240.5956907344768,240.5956907344768,0,0,0,260.0,483.08" stroke="grey" stroke-width="5" fill="none" />
<circle cx="260.0" cy="403.0799999999999" r="5" fill="black" stroke="none" />
<circle cx="260.0" cy="483.0799999999999" r="5" fill="black" stroke="none" />
<path d="M156.0,499.0799999999999 L259.4051696930357,499.3565487096442" stroke="grey" stroke-width="5" />
<circle cx="259.4051696930357" cy="499.3565487096442" r="2.5" fill="grey" stroke="none" />
<path d="M259.4051696930357,499.35654870964424 A240.5956907344768,240.5956907344768,0,0,1,260.0,483.08" stroke="grey" stroke-width="5" fill="none" />
<circle cx="156.0" cy="499.0799999999999" r="5" fill="black" stroke="none" />
<circle cx="260.0" cy="483.0799999999999" r="5" fill="black" stroke="none" />
<path d="M260.0,483.08 A240.5956907344768,240.5956907344768,0,0,0,278.9320591851437,594.9486805799808" stroke="grey" stroke-width="5" fill="none" />
<path d="M278.9320591851437,594.9486805799808 L260.0,603.0799999999999" stroke="grey" stroke-width="5" />
<circle cx="278.9320591851437" cy="594.9486805799808" r="2.5" fill="grey" stroke="none" />
<circle cx="260.0" cy="483.0799999999999" r="5" fill="black" stroke="none" />
<circle cx="260.0" cy="603.0799999999999" r="5" fill="black" stroke="none" />
<path d="M260.0,403.0799999999999 L326.5443068950351,429.9528092677783" stroke="grey" stroke-width="5" />
<circle cx="326.5443068950351" cy="429.9528092677783" r="2.5" fill="grey" stroke="none" />
<path d="M326.5443068950351,429.9528092677783 A187.06546020043362,187.06546020043362,0,0,1,340.0,403.0799999999999" stroke="grey" stroke-width="5" fill="none" />
<circle cx="260.0" cy="403.0799999999999" r="5" fill="black" stroke="none" />
<circle cx="340.0" cy="403.0799999999999" r="5" fill="black" stroke="none" />
<path d="M340.0,331.0799999999999 L371.35921996667867,364.187496479821" stroke="grey" stroke-width="5" />
<circle cx="371.35921996667867" cy="364.187496479821" r="2.5" fill="grey" stroke="none" />
<path d="M371.35921996667867,364.187496479821 A187.06546020043362,187.06546020043362,0,0,0,340.0,403.0799999999999" stroke="grey" stroke-width="5" fill="none" />
<circle cx="340.0" cy="331.0799999999999" r="5" fill="black" stroke="none" />
<circle cx="340.0" cy="403.0799999999999" r="5" fill="black" stroke="none" />
<path d="M340.0,403.0799999999999 L388.0304487794935,432.17444434817816" stroke="grey" stroke-width="5" />
<circle cx="388.0304487794935" cy="432.17444434817816" r="2.5" fill="grey" stroke="none" />
<path d="M388.0304487794935,432.17444434817816 A130.91022267187546,130.91022267187546,0,0,1,412.0,403.0799999999999" stroke="grey" stroke-width="5" fill="none" />
<circle cx="340.0" cy="403.0799999999999" r="5" fill="black" stroke="none" />
<circle cx="412.0" cy="403.0799999999999" r="5" fill="black" stroke="none" />
<path d="M340.0,331.0799999999999 L357.5096136011543,349.5657745594186" stroke="grey" stroke-width="5" />
<circle cx="357.5096136011543" cy="349.5657745594186" r="2.5" fill="grey" stroke="none" />
<path d="M357.5096136011543,349.5657745594186 A207.2051312105953,207.2051312105953,0,0,1,379.9999999999999,331.08" stroke="grey" stroke-width="5" fill="none" />
<circle cx="340.0" cy="331.0799999999999" r="5" fill="black" stroke="none" />
<circle cx="380.0" cy="331.0799999999999" r="5" fill="black" stroke="none" />
<path d="M412.0,403.0799999999999 A130.91022267187546,130.91022267187546,0,0,1,500.0,369.08977732812457" stroke="grey" stroke-width="5" fill="none" />
<path d="M500.0,369.08977732812457 L500.0,363.0799999999999" stroke="grey" stroke-width="5" />
<circle cx="500.0" cy="369.08977732812457" r="2.5" fill="grey" stroke="none" />
<circle cx="412.0" cy="403.0799999999999" r="5" fill="black" stroke="none" />
<circle cx="500.0" cy="363.0799999999999" r="5" fill="black" stroke="none" />
<path d="M380.0,331.0799999999999 L401.1898423766979,360.90823478559844" stroke="grey" stroke-width="5" />
<circle cx="401.1898423766979" cy="360.90823478559844" r="2.5" fill="grey" stroke="none" />
<path d="M401.18984237669787,360.90823478559844 A170.61643062729925,170.61643062729925,0,0,1,524.0,331.0799999999999" stroke="grey" stroke-width="5" fill="none" />
<circle cx="380.0" cy="331.0799999999999" r="5" fill="black" stroke="none" />
<circle cx="524.0" cy="331.0799999999999" r="5" fill="black" stroke="none" />
<path d="M500.0,363.0799999999999 A136.92000000000007,136.92000000000007,0,0,1,519.2600442285551,364.44138870468566" stroke="grey" stroke-width="5" fill="none" />
<path d="M519.2600442285552,364.44138870468566 L524.0,331.0799999999999" stroke="grey" stroke-width="5" />
<circle cx="519.2600442285552" cy="364.44138870468566" r="2.5" fill="grey" stroke="none" />
<circle cx="500.0" cy="363.0799999999999" r="5" fill="black" stroke="none" />
<circle cx="524.0" cy="331.0799999999999" r="5" fill="black" stroke="none" />
<path d="M260.0,483.0799999999999 L379.1130573977696,491.4774705465427" stroke="grey" stroke-width="5" />
<circle cx="379.1130573977696" cy="491.4774705465427" r="2.5" fill="grey" stroke="none" />
<path d="M379.1130573977696,491.47747054654275 A121.18698940067785,121.18698940067785,0,0,1,380.0,483.0799999999999" stroke="grey" stroke-width="5" fill="none" />
<circle cx="260.0" cy="483.0799999999999" r="5" fill="black" stroke="none" />
<circle cx="380.0" cy="483.0799999999999" r="5" fill="black" stroke="none" />
<path d="M380.0,483.0799999999999 L385.6884143354122,483.882066421293" stroke="grey" stroke-width="5" />
<circle cx="385.6884143354122" cy="483.882066421293" r="2.5" fill="grey" stroke="none" />
<path d="M385.6884143354122,483.882066421293 A115.44230766924237,115.44230766924237,0,0,1,476.0,387.0799999999999" stroke="grey" stroke-width="5" fill="none" />
<circle cx="380.0" cy="483.0799999999999" r="5" fill="black" stroke="none" />
<circle cx="476.0" cy="387.0799999999999" r="5" fill="black" stroke="none" />
<path d="M476.0,387.0799999999999 A115.44230766924237,115.44230766924237,0,0,1,500.0,384.5576923307576" stroke="grey" stroke-width="5" fill="none" />
<path d="M500.0,384.5576923307576 L500.0,363.0799999999999" stroke="grey" stroke-width="5" />
<circle cx="500.0" cy="384.5576923307576" r="2.5" fill="grey" stroke="none" />
<circle cx="476.0" cy="387.0799999999999" r="5" fill="black" stroke="none" />
<circle cx="500.0" cy="363.0799999999999" r="5" fill="black" stroke="none" />
<path d="M500.0,363.0799999999999 L500.0,387.0799999999999" stroke="grey" stroke-width="5" />
<circle cx="500.0" cy="387.0799999999999" r="2.5" fill="grey" stroke="none" />
<path d="M500.0,387.0799999999999 A112.92000000000007,112.92000000000007,0,0,1,500.0,387.0799999999999" stroke="grey" stroke-width="5" fill="none" />
<circle cx="500.0" cy="363.0799999999999" r="5" fill="black" stroke="none" />
<circle cx="500.0" cy="387.0799999999999" r="5" fill="black" stroke="none" />
<path d="M500.0,387.0799999999999 L500.0,563.0799999999999" stroke="grey" stroke-width="5" />
<circle cx="500.0" cy="387.0799999999999" r="5" fill="black" stroke="none" />
<circle cx="500.0" cy="563.0799999999999" r="5" fill="black" stroke="none" />
<path d="M500.0,563.0799999999999 A63.07999999999993,63.07999999999993,0,0,0,552.7177417841615,534.6399494973427" stroke="grey" stroke-width="5" fill="none" />
<path d="M552.7177417841615,534.6399494973427 L596.0,563.0799999999999" stroke="grey" stroke-width="5" />
<circle cx="552.7177417841615" cy="534.6399494973427" r="2.5" fill="grey" stroke="none" />
<circle cx="500.0" cy="563.0799999999999" r="5" fill="black" stroke="none" />
<circle cx="596.0" cy="563.0799999999999" r="5" fill="black" stroke="none" />
<path d="M500.0,563.0799999999999 A63.07999999999993,63.07999999999993,0,0,1,500.0,563.0799999999999" stroke="grey" stroke-width="5" fill="none" />
<path d="M500.0,563.0799999999999 L500.0,611.0799999999999" stroke="grey" stroke-width="5" />
<circle cx="500.0" cy="563.0799999999999" r="2.5" fill="grey" stroke="none" />
<circle cx="500.0" cy="563.0799999999999" r="5" fill="black" stroke="none" />
<circle cx="500.0" cy="611.0799999999999" r="5" fill="black" stroke="none" />
<path d="M188.0,187.07999999999993 L263.3692561535464,262.6714988319479" stroke="grey" stroke-width="5" />
<circle cx="263.3692561535464" cy="262.6714988319479" r="2.5" fill="grey" stroke="none" />
<path d="M263.3692561535464,262.6714988319479 A335.1401593363589,335.1401593363589,0,0,1,379.99999999999994,187.07999999999993" stroke="grey" stroke-width="5" fill="none" />
<circle cx="188.0" cy="187.07999999999993" r="5" fill="black" stroke="none" />
<circle cx="380.0" cy="187.07999999999993" r="5" fill="black" stroke="none" />
<path d="M380.0,187.07999999999993 L425.80830720344557,306.53279575085156" stroke="grey" stroke-width="5" />
<circle cx="425.80830720344557" cy="306.53279575085156" r="2.5" fill="grey" stroke="none" />
<path d="M425.80830720344557,306.53279575085156 A207.2051312105953,207.2051312105953,0,0,0,379.9999999999999,331.08" stroke="grey" stroke-width="5" fill="none" />
<circle cx="380.0" cy="187.07999999999993" r="5" fill="black" stroke="none" />
<circle cx="380.0" cy="331.0799999999999" r="5" fill="black" stroke="none" />
<path d="M379.99999999999994,187.07999999999993 A335.1401593363589,335.1401593363589,0,0,1,402.1097709550446,179.4747600304678" stroke="grey" stroke-width="5" fill="none" />
<path d="M402.1097709550446,179.4747600304678 L380.0,107.07999999999993" stroke="grey" stroke-width="5" />
<circle cx="402.1097709550446" cy="179.4747600304678" r="2.5" fill="grey" stroke="none" />
<circle cx="380.0" cy="187.07999999999993" r="5" fill="black" stroke="none" />
<circle cx="380.0" cy="107.07999999999993" r="5" fill="black" stroke="none" />
<path d="M380.0,107.07999999999993 A410.8358874295186,410.8358874295186,0,0,1,393.9052325656251,103.09947502800406" stroke="grey" stroke-width="5" fill="none" />
<path d="M393.9052325656253,103.09947502800401 L380.0,51.07999999999993" stroke="grey" stroke-width="5" />
<circle cx="393.9052325656253" cy="103.09947502800401" r="2.5" fill="grey" stroke="none" />
<circle cx="380.0" cy="107.07999999999993" r="5" fill="black" stroke="none" />
<circle cx="380.0" cy="51.07999999999993" r="5" fill="black" stroke="none" />
<path d="M380.0,107.07999999999993 L412.99054784359976,215.10205048922666" stroke="grey" stroke-width="5" />
<circle cx="412.99054784359976" cy="215.10205048922666" r="2.5" fill="grey" stroke="none" />
<path d="M412.99054784359976,215.10205048922666 A297.88837909525785,297.88837909525785,0,0,1,475.9999999999999,203.07999999999993" stroke="grey" stroke-width="5" fill="none" />
<circle cx="380.0" cy="107.07999999999993" r="5" fill="black" stroke="none" />
<circle cx="476.0" cy="203.07999999999993" r="5" fill="black" stroke="none" />
<path d="M380.0,187.07999999999993 L393.33834070433096,221.86194644332704" stroke="grey" stroke-width="5" />
<circle cx="393.33834070433096" cy="221.86194644332704" r="2.5" fill="grey" stroke="none" />
<path d="M393.33834070433096,221.86194644332704 A297.88837909525785,297.88837909525785,0,0,1,475.9999999999999,203.07999999999993" stroke="grey" stroke-width="5" fill="none" />
<circle cx="380.0" cy="187.07999999999993" r="5" fill="black" stroke="none" />
<circle cx="476.0" cy="203.07999999999993" r="5" fill="black" stroke="none" />
<path d="M476.0,203.07999999999993 L481.7759794359722,274.5384922553698" stroke="grey" stroke-width="5" />
<circle cx="481.7759794359722" cy="274.5384922553698" r="2.5" fill="grey" stroke="none" />
<path d="M481.77597943597215,274.5384922553698 A226.19683110070318,226.19683110070318,0,0,1,524.0,275.0799999999999" stroke="grey" stroke-width="5" fill="none" />
<circle cx="476.0" cy="203.07999999999993" r="5" fill="black" stroke="none" />
<circle cx="524.0" cy="275.0799999999999" r="5" fill="black" stroke="none" />
<path d="M476.0,387.0799999999999 L476.524377806404,389.54719757913085" stroke="grey" stroke-width="5" />
<circle cx="476.524377806404" cy="389.54719757913085" r="2.5" fill="grey" stroke="none" />
<path d="M476.52437780640406,389.54719757913085 A112.92000000000007,112.92000000000007,0,0,1,500.0,387.0799999999999" stroke="grey" stroke-width="5" fill="none" />
<circle cx="476.0" cy="387.0799999999999" r="5" fill="black" stroke="none" />
<circle cx="500.0" cy="387.0799999999999" r="5" fill="black" stroke="none" />
<path d="M500.0,387.0799999999999 A112.92000000000007,112.92000000000007,0,0,1,523.475622193596,389.54719757913085" stroke="grey" stroke-width="5" fill="none" />
<path d="M523.475622193596,389.54719757913085 L524.0,387.0799999999999" stroke="grey" stroke-width="5" />
<circle cx="523.475622193596" cy="389.54719757913085" r="2.5" fill="grey" stroke="none" />
<circle cx="500.0" cy="387.0799999999999" r="5" fill="black" stroke="none" />
<circle cx="524.0" cy="387.0799999999999" r="5" fill="black" stroke="none" />
<path d="M524.0,387.0799999999999 A115.44230766924237,115.44230766924237,0,0,0,516.2388544519141,385.70552941594434" stroke="grey" stroke-width="5" fill="none" />
<path d="M516.2388544519141,385.70552941594434 L524.0,331.0799999999999" stroke="grey" stroke-width="5" />
<circle cx="516.2388544519141" cy="385.70552941594434" r="2.5" fill="grey" stroke="none" />
<circle cx="524.0" cy="387.0799999999999" r="5" fill="black" stroke="none" />
<circle cx="524.0" cy="331.0799999999999" r="5" fill="black" stroke="none" />
<path d="M524.0,331.0799999999999 A170.61643062729925,170.61643062729925,0,0,0,521.9594250624801,330.80262989359045" stroke="grey" stroke-width="5" fill="none" />
<path d="M521.9594250624801,330.80262989359045 L524.0,315.0799999999999" stroke="grey" stroke-width="5" />
<circle cx="521.9594250624801" cy="330.80262989359045" r="2.5" fill="grey" stroke="none" />
<circle cx="524.0" cy="331.0799999999999" r="5" fill="black" stroke="none" />
<circle cx="524.0" cy="315.0799999999999" r="5" fill="black" stroke="none" />
<path d="M524.0,315.0799999999999 A186.47092642017958,186.47092642017958,0,0,0,522.1168232421486,314.84532809114546" stroke="grey" stroke-width="5" fill="none" />
<path d="M522.1168232421486,314.84532809114546 L524.0,299.0799999999999" stroke="grey" stroke-width="5" />
<circle cx="522.1168232421486" cy="314.84532809114546" r="2.5" fill="grey" stroke="none" />
<circle cx="524.0" cy="315.0799999999999" r="5" fill="black" stroke="none" />
<circle cx="524.0" cy="299.0799999999999" r="5" fill="black" stroke="none" />
<path d="M524.0,299.0799999999999 A202.34832937289113,202.34832937289113,0,0,0,521.4696195402814,298.7938822083295" stroke="grey" stroke-width="5" fill="none" />
<path d="M521.4696195402814,298.7938822083295 L524.0,275.0799999999999" stroke="grey" stroke-width="5" />
<circle cx="521.4696195402814" cy="298.7938822083295" r="2.5" fill="grey" stroke="none" />
<circle cx="524.0" cy="299.0799999999999" r="5" fill="black" stroke="none" />
<circle cx="524.0" cy="275.0799999999999" r="5" fill="black" stroke="none" />
<path d="M524.0,275.0799999999999 A226.19683110070318,226.19683110070318,0,0,1,568.9615453722428,284.57179465104355" stroke="grey" stroke-width="5" fill="none" />
<path d="M568.9615453722428,284.57179465104355 L572.0,275.0799999999999" stroke="grey" stroke-width="5" />
<circle cx="568.9615453722428" cy="284.57179465104355" r="2.5" fill="grey" stroke="none" />
<circle cx="524.0" cy="275.0799999999999" r="5" fill="black" stroke="none" />
<circle cx="572.0" cy="275.0799999999999" r="5" fill="black" stroke="none" />
<path d="M572.0,275.0799999999999 L560.4999549682756,311.0048628963257" stroke="grey" stroke-width="5" />
<circle cx="560.4999549682756" cy="311.0048628963257" r="2.5" fill="grey" stroke="none" />
<path d="M560.4999549682756,311.0048628963257 A198.4424511035883,198.4424511035883,0,0,1,572.0,315.0799999999999" stroke="grey" stroke-width="5" fill="none" />
<circle cx="572.0" cy="275.0799999999999" r="5" fill="black" stroke="none" />
<circle cx="572.0" cy="315.0799999999999" r="5" fill="black" stroke="none" />
<path d="M572.0,315.0799999999999 L567.6564244575094,326.23574985162986" stroke="grey" stroke-width="5" />
<circle cx="567.6564244575094" cy="326.23574985162986" r="2.5" fill="grey" stroke="none" />
<path d="M567.6564244575094,326.23574985162986 A186.47092642017958,186.47092642017958,0,0,0,524.0,315.0799999999999" stroke="grey" stroke-width="5" fill="none" />
<circle cx="572.0" cy="315.0799999999999" r="5" fill="black" stroke="none" />
<circle cx="524.0" cy="315.0799999999999" r="5" fill="black" stroke="none" />
<path d="M524.0,299.0799999999999 A202.34832937289113,202.34832937289113,0,0,1,593.0169853889761,320.2983393812204" stroke="grey" stroke-width="5" fill="none" />
<path d="M593.0169853889761,320.2983393812204 L604.0,299.0799999999999" stroke="grey" stroke-width="5" />
<circle cx="593.0169853889761" cy="320.2983393812204" r="2.5" fill="grey" stroke="none" />
<circle cx="524.0" cy="299.0799999999999" r="5" fill="black" stroke="none" />
<circle cx="604.0" cy="299.0799999999999" r="5" fill="black" stroke="none" />
<circle cx="500" cy="500" r="5" fill="red" stroke="none" />
</svg>