<?xml version="1.0" encoding="UTF-8"?>
<svg xmlns="http://www.w3.org/2000/svg" xmlns:xlink="http://www.w3.org/1999/xlink"
     width="1000" height="1000" viewBox="0 0 1000 1000">
<defs>
</defs>
<rect x="0" y="0" width="1000" height="1000" fill="white" />
<path d="M276.0,375.36 L302.6679303265463,390.1987983745569" stroke="grey" stroke-width="5" />
<circle cx="302.6679303265463" cy="390.1987983745569" r="2.5" fill="grey" stroke="none" />
<path d="M302.66793032654624,390.19879837455693 A225.82349213489726,225.82349213489726,0,0,0,276.0,471.35999999999996" stroke="grey" stroke-width="5" fill="none" />
<circle cx="276.0" cy="375.36" r="5" fill="black" stroke="none" />
<circle cx="276.0" cy="471.36" r="5" fill="black" stroke="none" />
<path d="M276.0,471.36 L338.9883053515831,479.4135047556667" stroke="grey" stroke-width="5" />
<circle cx="338.9883053515831" cy="479.4135047556667" r="2.5" fill="grey" stroke="none" />
<path d="M338.9883053515831,479.4135047556667 A162.32242482171094,162.32242482171094,0,0,0,340.0,527.36" stroke="grey" stroke-width="5" fill="none" />
<circle cx="276.0" cy="471.36" r="5" fill="black" stroke="none" />
<circle cx="340.0" cy="527.36" r="5" fill="black" stroke="none" />
<path d="M252.0,527.36 L338.6564675036267,517.7998348754064" stroke="grey" stroke-width="5" />
<circle cx="338.6564675036267" cy="517.7998348754064" r="2.5" fill="grey" stroke="none" />
<path d="M338.6564675036267,517.7998348754064 A162.32242482171094,162.32242482171094,0,0,0,340.0,527.36" stroke="grey" stroke-width="5" fill="none" />
<circle cx="252.0" cy="527.36" r="5" fill="black" stroke="none" />
<circle cx="340.0" cy="527.36" r="5" fill="black" stroke="none" />
<path d="M340.0,527.36 L395.3697274686094,517.8917766028678" stroke="grey" stroke-width="5" />
<circle cx="395.3697274686094" cy="517.8917766028678" r="2.5" fill="grey" stroke="none" />
<path d="M395.3697274686094,517.8917766028678 A106.14899716907361,106.14899716907361,0,0,0,412.0,559.36" stroke="grey" stroke-width="5" fill="none" />
<circle cx="340.0" cy="527.36" r="5" fill="black" stroke="none" />
<circle cx="412.0" cy="559.36" r="5" fill="black" stroke="none" />
<path d="M412.0,559.36 L413.59392912848773,558.284822351511" stroke="grey" stroke-width="5" />
<circle cx="413.59392912848773" cy="558.284822351511" r="2.5" fill="grey" stroke="none" />
<path d="M413.59392912848773,558.284822351511 A104.2263383219424,104.2263383219424,0,0,0,428.0,575.36" stroke="grey" stroke-width="5" fill="none" />
<circle cx="412.0" cy="559.36" r="5" fill="black" stroke="none" />
<circle cx="428.0" cy="575.36" r="5" fill="black" stroke="none" />
<path d="M428.0,575.36 A104.2263383219424,104.2263383219424,0,0,0,463.61113866389866,597.6677038260959" stroke="grey" stroke-width="5" fill="none" />
<path d="M463.6111386638987,597.6677038260959 L460.0,607.36" stroke="grey" stroke-width="5" />
<circle cx="463.6111386638987" cy="597.6677038260959" r="2.5" fill="grey" stroke="none" />
<circle cx="428.0" cy="575.36" r="5" fill="black" stroke="none" />
<circle cx="460.0" cy="607.36" r="5" fill="black" stroke="none" />
<path d="M428.0,575.36 A104.2263383219424,104.2263383219424,0,0,0,442.04304463678653,586.626329282883" stroke="grey" stroke-width="5" fill="none" />
<path d="M442.04304463678653,586.626329282883 L380.0,679.36" stroke="grey" stroke-width="5" />
<circle cx="442.04304463678653" cy="586.626329282883" r="2.5" fill="grey" stroke="none" />
<circle cx="428.0" cy="575.36" r="5" fill="black" stroke="none" />
<circle cx="380.0" cy="679.36" r="5" fill="black" stroke="none" />
<path d="M380.0,679.36 A215.8008563467717,215.8008563467717,0,0,0,409.38304014627687,695.8534558971802" stroke="grey" stroke-width="5" fill="none" />
<path d="M409.38304014627687,695.8534558971802 L380.0,759.36" stroke="grey" stroke-width="5" />
<circle cx="409.38304014627687" cy="695.8534558971802" r="2.5" fill="grey" stroke="none" />
<circle cx="380.0" cy="679.36" r="5" fill="black" stroke="none" />
<circle cx="380.0" cy="759.36" r="5" fill="black" stroke="none" />
<path d="M276.0,775.36 L319.66120317867274,721.6879066639317" stroke="grey" stroke-width="5" />
<circle cx="319.66120317867274" cy="721.6879066639317" r="2.5" fill="grey" stroke="none" />
<path d="M319.6612031786726,721.6879066639315 A285.77545310960494,285.77545310960494,0,0,0,379.99999999999994,759.36" stroke="grey" stroke-width="5" fill="none" />
<circle cx="276.0" cy="775.36" r="5" fill="black" stroke="none" />
<circle cx="380.0" cy="759.36" r="5" fill="black" stroke="none" />
<path d="M379.99999999999994,759.36 A285.77545310960494,285.77545310960494,0,0,0,413.8120613431827,772.468803407085" stroke="grey" stroke-width="5" fill="none" />
<path d="M413.8120613431828,772.468803407085 L380.0,879.36" stroke="grey" stroke-width="5" />
<circle cx="413.8120613431828" cy="772.468803407085" r="2.5" fill="grey" stroke="none" />
<circle cx="380.0" cy="759.36" r="5" fill="black" stroke="none" />
<circle cx="380.0" cy="879.36" r="5" fill="black" stroke="none" />
<path d="M380.0,679.36 L397.8134647006884,652.7348080940377" stroke="grey" stroke-width="5" />
<circle cx="397.8134647006884" cy="652.7348080940377" r="2.5" fill="grey" stroke="none" />
<path d="M397.8134647006884,652.7348080940377 A183.7661818725088,183.7661818725088,0,0,0,460.0,679.3599999999999" stroke="grey" stroke-width="5" fill="none" />
<circle cx="380.0" cy="679.36" r="5" fill="black" stroke="none" />
<circle cx="460.0" cy="679.36" r="5" fill="black" stroke="none" />
<path d="M460.0,607.36 A114.56949681306975,114.56949681306975,0,0,0,475.06189753835025,611.8224514380375" stroke="grey" stroke-width="5" fill="none" />
<path d="M475.06189753835025,611.8224514380375 L460.0,679.36" stroke="grey" stroke-width="5" />
<circle cx="475.06189753835025" cy="611.8224514380375" r="2.5" fill="grey" stroke="none" />
<circle cx="460.0" cy="607.36" r="5" fill="black" stroke="none" />
<circle cx="460.0" cy="679.36" r="5" fill="black" stroke="none" />
<path d="M460.0,679.36 L460.342598254093,677.8237894286468" stroke="grey" stroke-width="5" />
<circle cx="460.342598254093" cy="677.8237894286468" r="2.5" fill="grey" stroke="none" />
<path d="M460.342598254093,677.8237894286468 A182.19223254573723,182.19223254573723,0,0,0,532.0,679.36" stroke="grey" stroke-width="5" fill="none" />
<circle cx="460.0" cy="679.36" r="5" fill="black" stroke="none" />
<circle cx="532.0" cy="679.36" r="5" fill="black" stroke="none" />
<path d="M460.0,607.36 L462.51707374601904,600.6041740656849" stroke="grey" stroke-width="5" />
<circle cx="462.51707374601904" cy="600.6041740656849" r="2.5" fill="grey" stroke="none" />
<path d="M462.51707374601904,600.6041740656849 A107.35999999999999,107.35999999999999,0,0,0,500.0,607.36" stroke="grey" stroke-width="5" fill="none" />
<circle cx="460.0" cy="607.36" r="5" fill="black" stroke="none" />
<circle cx="500.0" cy="607.36" r="5" fill="black" stroke="none" />
<path d="M532.0,679.36 A182.19223254573723,182.19223254573723,0,0,0,618.8821185129427,638.0617669663642" stroke="grey" stroke-width="5" fill="none" />
<path d="M618.8821185129427,638.0617669663641 L620.0,639.36" stroke="grey" stroke-width="5" />
<circle cx="618.8821185129427" cy="638.0617669663641" r="2.5" fill="grey" stroke="none" />
<circle cx="532.0" cy="679.36" r="5" fill="black" stroke="none" />
<circle cx="620.0" cy="639.36" r="5" fill="black" stroke="none" />
<path d="M500.0,607.36 A107.35999999999999,107.35999999999999,0,0,0,586.0712697696682,564.170913350497" stroke="grey" stroke-width="5" fill="none" />
<path d="M586.0712697696682,564.170913350497 L644.0,607.36" stroke="grey" stroke-width="5" />
<circle cx="586.0712697696682" cy="564.170913350497" r="2.5" fill="grey" stroke="none" />
<circle cx="500.0" cy="607.36" r="5" fill="black" stroke="none" />
<circle cx="644.0" cy="607.36" r="5" fill="black" stroke="none" />
<path d="M620.0,639.36 L617.2015790830856,636.11010050849" stroke="grey" stroke-width="5" />
<circle cx="617.2015790830856" cy="636.11010050849" r="2.5" fill="grey" stroke="none" />
<path d="M617.2015790830856,636.11010050849 A179.61672973306244,179.61672973306244,0,0,0,644.0,607.36" stroke="grey" stroke-width="5" fill="none" />
<circle cx="620.0" cy="639.36" r="5" fill="black" stroke="none" />
<circle cx="644.0" cy="607.36" r="5" fill="black" stroke="none" />
<path d="M380.0,759.36 L391.09211564065595,735.3862407286623" stroke="grey" stroke-width="5" />
<circle cx="391.09211564065595" cy="735.3862407286623" r="2.5" fill="grey" stroke="none" />
<path d="M391.09211564065595,735.3862407286623 A259.36,259.36,0,0,0,500.0,759.36" stroke="grey" stroke-width="5" fill="none" />
<circle cx="380.0" cy="759.36" r="5" fill="black" stroke="none" />
<circle cx="500.0" cy="759.36" r="5" fill="black" stroke="none" />
<path d="M500.0,759.36 L500.0,689.4795229041914" stroke="grey" stroke-width="5" />
<circle cx="500.0" cy="689.4795229041914" r="2.5" fill="grey" stroke="none" />
<path d="M500.0,689.4795229041914 A189.4795229041914,189.4795229041914,0,0,0,596.0,663.36" stroke="grey" stroke-width="5" fill="none" />
<circle cx="500.0" cy="759.36" r="5" fill="black" stroke="none" />
<circle cx="596.0" cy="663.36" r="5" fill="black" stroke="none" />
<path d="M596.0,663.36 L593.1758832834219,658.5542947206229" stroke="grey" stroke-width="5" />
<circle cx="593.1758832834219" cy="658.5542947206229" r="2.5" fill="grey" stroke="none" />
<path d="M593.1758832834219,658.5542947206229 A183.90543656999375,183.90543656999375,0,0,0,620.0,639.36" stroke="grey" stroke-width="5" fill="none" />
<circle cx="596.0" cy="663.36" r="5" fill="black" stroke="none" />
<circle cx="620.0" cy="639.36" r="5" fill="black" stroke="none" />
<path d="M620.0,639.36 A183.90543656999375,183.90543656999375,0,0,1,608.8745305647528,648.2145276088168" stroke="grey" stroke-width="5" fill="none" />
<path d="M608.8745305647528,648.2145276088168 L620.0,663.36" stroke="grey" stroke-width="5" />
<circle cx="608.8745305647528" cy="648.2145276088168" r="2.5" fill="grey" stroke="none" />
<circle cx="620.0" cy="639.36" r="5" fill="black" stroke="none" />
<circle cx="620.0" cy="663.36" r="5" fill="black" stroke="none" />
<path d="M620.0,663.36 A202.69802564405998,202.69802564405998,0,0,1,567.5750792341063,691.1023240740527" stroke="grey" stroke-width="5" fill="none" />
<path d="M567.5750792341063,691.1023240740526 L620.0,839.36" stroke="grey" stroke-width="5" />
<circle cx="567.5750792341063" cy="691.1023240740526" r="2.5" fill="grey" stroke="none" />
<circle cx="620.0" cy="663.36" r="5" fill="black" stroke="none" />
<circle cx="620.0" cy="839.36" r="5" fill="black" stroke="none" />
<path d="M620.0,839.3600000000001 A359.95167675675583,359.95167675675583,0,0,0,693.2770242828242,803.6596803732373" stroke="grey" stroke-width="5" fill="none" />
<path d="M693.2770242828242,803.6596803732373 L716.0,839.36" stroke="grey" stroke-width="5" />
<circle cx="693.2770242828242" cy="803.6596803732373" r="2.5" fill="grey" stroke="none" />
<circle cx="620.0" cy="839.36" r="5" fill="black" stroke="none" />
<circle cx="716.0" cy="839.36" r="5" fill="black" stroke="none" />
<path d="M620.0,839.3600000000001 A359.95167675675583,359.95167675675583,0,0,1,606.5151671561327,843.8309595799965" stroke="grey" stroke-width="5" fill="none" />
<path d="M606.5151671561326,843.8309595799965 L620.0,887.36" stroke="grey" stroke-width="5" />
<circle cx="606.5151671561326" cy="843.8309595799965" r="2.5" fill="grey" stroke="none" />
<circle cx="620.0" cy="839.36" r="5" fill="black" stroke="none" />
<circle cx="620.0" cy="887.36" r="5" fill="black" stroke="none" />
<path d="M308.0,463.36 L464.00947967975884,493.1318090388873" stroke="grey" stroke-width="5" />
<circle cx="464.00947967975884" cy="493.1318090388873" r="2.5" fill="grey" stroke="none" />
<path d="M464.00947967975884,493.1318090388873 A36.640000000000015,36.640000000000015,0,0,1,500.0,463.36" stroke="grey" stroke-width="5" fill="none" />
<circle cx="308.0" cy="463.36" r="5" fill="black" stroke="none" />
<circle cx="500.0" cy="463.36" r="5" fill="black" stroke="none" />
<path d="M500.0,463.36 L500.0,607.36" stroke="grey" stroke-width="5" />
<circle cx="500.0" cy="463.36" r="5" fill="black" stroke="none" />
<circle cx="500.0" cy="607.36" r="5" fill="black" stroke="none" />
<path d="M500.0,463.36 A36.640000000000015,36.640000000000015,0,0,1,500.0,463.36" stroke="grey" stroke-width="5" fill="none" />
<path d="M500.0,463.36 L500.0,383.36" stroke="grey" stroke-width="5" />
<circle cx="500.0" cy="463.36" r="2.5" fill="grey" stroke="none" />
<circle cx="500.0" cy="463.36" r="5" fill="black" stroke="none" />
<circle cx="500.0" cy="383.36" r="5" fill="black" stroke="none" />
<path d="M500.0,383.36 A116.64000000000001,116.64000000000001,0,0,1,500.0,383.36" stroke="grey" stroke-width="5" fill="none" />
<path d="M500.0,383.36 L500.0,327.36" stroke="grey" stroke-width="5" />
<circle cx="500.0" cy="383.36" r="2.5" fill="grey" stroke="none" />
<circle cx="500.0" cy="383.36" r="5" fill="black" stroke="none" />
<circle cx="500.0" cy="327.36" r="5" fill="black" stroke="none" />
<path d="M500.0,383.36 L500.0,401.8062649656303" stroke="grey" stroke-width="5" />
<circle cx="500.0" cy="401.8062649656303" r="2.5" fill="grey" stroke="none" />
<path d="M500.0,401.8062649656303 A98.1937350343697,98.1937350343697,0,0,1,596.0,479.35999999999996" stroke="grey" stroke-width="5" fill="none" />
<circle cx="500.0" cy="383.36" r="5" fill="black" stroke="none" />
<circle cx="596.0" cy="479.36" r="5" fill="black" stroke="none" />
<path d="M500.0,463.36 A36.640000000000015,36.640000000000015,0,0,1,535.8214299391792,492.29839256307645" stroke="grey" stroke-width="5" fill="none" />
<path d="M535.8214299391792,492.29839256307645 L596.0,479.36" stroke="grey" stroke-width="5" />
<circle cx="535.8214299391792" cy="492.29839256307645" r="2.5" fill="grey" stroke="none" />
<circle cx="500.0" cy="463.36" r="5" fill="black" stroke="none" />
<circle cx="596.0" cy="479.36" r="5" fill="black" stroke="none" />
<path d="M596.0,479.35999999999996 A98.1937350343697,98.1937350343697,0,0,1,592.4870972772496,532.9870646955524" stroke="grey" stroke-width="5" fill="none" />
<path d="M592.4870972772496,532.9870646955524 L644.0,551.36" stroke="grey" stroke-width="5" />
<circle cx="592.4870972772496" cy="532.9870646955524" r="2.5" fill="grey" stroke="none" />
<circle cx="596.0" cy="479.36" r="5" fill="black" stroke="none" />
<circle cx="644.0" cy="551.36" r="5" fill="black" stroke="none" />
<path d="M596.0,663.36 A189.4795229041914,189.4795229041914,0,0,0,612.1744658156185,652.7068394636619" stroke="grey" stroke-width="5" fill="none" />
<path d="M612.1744658156185,652.7068394636619 L620.0,663.36" stroke="grey" stroke-width="5" />
<circle cx="612.1744658156185" cy="652.7068394636619" r="2.5" fill="grey" stroke="none" />
<circle cx="596.0" cy="663.36" r="5" fill="black" stroke="none" />
<circle cx="620.0" cy="663.36" r="5" fill="black" stroke="none" />
<path d="M620.0,663.36 A202.69802564405998,202.69802564405998,0,0,0,634.0354990369985,652.0558272408616" stroke="grey" stroke-width="5" fill="none" />
<path d="M634.0354990369985,652.0558272408616 L644.0,663.36" stroke="grey" stroke-width="5" />
<circle cx="634.0354990369985" cy="652.0558272408616" r="2.5" fill="grey" stroke="none" />
<circle cx="620.0" cy="663.36" r="5" fill="black" stroke="none" />
<circle cx="644.0" cy="663.36" r="5" fill="black" stroke="none" />
<path d="M644.0,663.36 L618.7728293290864,634.7411763833302" stroke="grey" stroke-width="5" />
<circle cx="618.7728293290864" cy="634.7411763833302" r="2.5" fill="grey" stroke="none" />
<path d="M618.7728293290863,634.7411763833302 A179.61672973306244,179.61672973306244,0,0,0,644.0,607.36" stroke="grey" stroke-width="5" fill="none" />
<circle cx="644.0" cy="663.36" r="5" fill="black" stroke="none" />
<circle cx="644.0" cy="607.36" r="5" fill="black" stroke="none" />
<path d="M644.0,607.36 L636.7202023607472,601.9325064267348" stroke="grey" stroke-width="5" />
<circle cx="636.7202023607472" cy="601.9325064267348" r="2.5" fill="grey" stroke="none" />
<path d="M636.7202023607472,601.9325064267348 A170.53635858666618,170.53635858666618,0,0,0,644.0,591.36" stroke="grey" stroke-width="5" fill="none" />
<circle cx="644.0" cy="607.36" r="5" fill="black" stroke="none" />
<circle cx="644.0" cy="591.36" r="5" fill="black" stroke="none" />
<path d="M644.0,591.36 L637.2372097605122,587.0693853036139" stroke="grey" stroke-width="5" />
<circle cx="637.2372097605122" cy="587.0693853036139" r="2.5" fill="grey" stroke="none" />
<path d="M637.2372097605122,587.0693853036139 A162.5273195496683,162.5273195496683,0,0,0,644.0,575.36" stroke="grey" stroke-width="5" fill="none" />
<circle cx="644.0" cy="591.36" r="5" fill="black" stroke="none" />
<circle cx="644.0" cy="575.36" r="5" fill="black" stroke="none" />
<path d="M644.0,575.36 L635.4569341455816,570.8891288695211" stroke="grey" stroke-width="5" />
<circle cx="635.4569341455816" cy="570.8891288695211" r="2.5" fill="grey" stroke="none" />
<path d="M635.4569341455816,570.8891288695211 A152.8850862576203,152.8850862576203,0,0,0,644.0,551.36" stroke="grey" stroke-width="5" fill="none" />
<circle cx="644.0" cy="575.36" r="5" fill="black" stroke="none" />
<circle cx="644.0" cy="551.36" r="5" fill="black" stroke="none" />
<path d="M644.0,551.36 A152.8850862576203,152.8850862576203,0,0,0,647.6922258558833,539.5076704164487" stroke="grey" stroke-width="5" fill="none" />
<path d="M647.6922258558833,539.5076704164487 L692.0,551.36" stroke="grey" stroke-width="5" />
<circle cx="647.6922258558833" cy="539.5076704164487" r="2.5" fill="grey" stroke="none" />
<circle cx="644.0" cy="551.36" r="5" fill="black" stroke="none" />
<circle cx="692.0" cy="551.36" r="5" fill="black" stroke="none" />
<path d="M692.0,551.36 A198.7507222628386,198.7507222628386,0,0,1,679.4690527952511,585.3973576217403" stroke="grey" stroke-width="5" fill="none" />
<path d="M679.4690527952511,585.3973576217403 L692.0,591.36" stroke="grey" stroke-width="5" />
<circle cx="679.4690527952511" cy="585.3973576217403" r="2.5" fill="grey" stroke="none" />
<circle cx="692.0" cy="551.36" r="5" fill="black" stroke="none" />
<circle cx="692.0" cy="591.36" r="5" fill="black" stroke="none" />
<path d="M692.0,591.36 L653.9918868934989,573.2744728468232" stroke="grey" stroke-width="5" />
<circle cx="653.9918868934989" cy="573.2744728468232" r="2.5" fill="grey" stroke="none" />
<path d="M653.9918868934989,573.2744728468232 A170.53635858666618,170.53635858666618,0,0,1,644.0,591.36" stroke="grey" stroke-width="5" fill="none" />
<circle cx="692.0" cy="591.36" r="5" fill="black" stroke="none" />
<circle cx="644.0" cy="591.36" r="5" fill="black" stroke="none" />
<path d="M644.0,575.36 A162.5273195496683,162.5273195496683,0,0,0,654.043316163404,551.8245727949737" stroke="grey" stroke-width="5" fill="none" />
<path d="M654.043316163404,551.8245727949737 L724.0,575.36" stroke="grey" stroke-width="5" />
<circle cx="654.043316163404" cy="551.8245727949737" r="2.5" fill="grey" stroke="none" />
<circle cx="644.0" cy="575.36" r="5" fill="black" stroke="none" />
<circle cx="724.0" cy="575.36" r="5" fill="black" stroke="none" />
<circle cx="500" cy="500" r="5" fill="red" stroke="none" />
</svg>