<?xml version="1.0" encoding="UTF-8"?>
<svg xmlns="http://www.w3.org/2000/svg" xmlns:xlink="http://www.w3.org/1999/xlink"
     width="1000" height="1000" viewBox="0 0 1000 1000">
<defs>
</defs>
<rect x="0" y="0" width="1000" height="1000" fill="white" />
<path d="M142.536,253.952 L180.65797114082494,280.19194235855275" stroke="grey" stroke-width="5" />
<circle cx="180.65797114082494" cy="280.19194235855275" r="2.5" fill="grey" stroke="none" />
<path d="M180.65797114082494,280.19194235855275 A387.6788794866184,387.6788794866184,0,0,0,142.5359999999999,349.9520000000001" stroke="grey" stroke-width="5" fill="none" />
<circle cx="142.536" cy="253.952" r="5" fill="black" stroke="none" />
<circle cx="142.536" cy="349.952" r="5" fill="black" stroke="none" />
<path d="M142.536,349.952 L215.85201866739993,380.72690871530006" stroke="grey" stroke-width="5" />
<circle cx="215.85201866739993" cy="380.72690871530006" r="2.5" fill="grey" stroke="none" />
<path d="M215.85201866739988,380.72690871530017 A308.165776166011,308.165776166011,0,0,0,206.536,405.9519999999999" stroke="grey" stroke-width="5" fill="none" />
<circle cx="142.536" cy="349.952" r="5" fill="black" stroke="none" />
<circle cx="206.536" cy="405.952" r="5" fill="black" stroke="none" />
<path d="M118.536,405.952 L200.79362182047737,426.2321963408664" stroke="grey" stroke-width="5" />
<circle cx="200.79362182047737" cy="426.2321963408664" r="2.5" fill="grey" stroke="none" />
<path d="M200.79362182047737,426.2321963408664 A308.165776166011,308.165776166011,0,0,1,206.536,405.9519999999999" stroke="grey" stroke-width="5" fill="none" />
<circle cx="118.536" cy="405.952" r="5" fill="black" stroke="none" />
<circle cx="206.536" cy="405.952" r="5" fill="black" stroke="none" />
<path d="M206.536,405.952 L280.98044086380605,429.80961379371655" stroke="grey" stroke-width="5" />
<circle cx="280.98044086380605" cy="429.80961379371655" r="2.5" fill="grey" stroke="none" />
<path d="M280.98044086380605,429.8096137937165 A229.9918642039322,229.9918642039322,0,0,0,278.536,437.9520000000001" stroke="grey" stroke-width="5" fill="none" />
<circle cx="206.536" cy="405.952" r="5" fill="black" stroke="none" />
<circle cx="278.536" cy="437.952" r="5" fill="black" stroke="none" />
<path d="M278.536,437.952 L297.24652729586865,443.19416485593166" stroke="grey" stroke-width="5" />
<circle cx="297.24652729586865" cy="443.19416485593166" r="2.5" fill="grey" stroke="none" />
<path d="M297.24652729586865,443.1941648559318 A210.56085486148655,210.56085486148655,0,0,0,294.536,453.952" stroke="grey" stroke-width="5" fill="none" />
<circle cx="278.536" cy="437.952" r="5" fill="black" stroke="none" />
<circle cx="294.536" cy="453.952" r="5" fill="black" stroke="none" />
<path d="M294.536,453.952 L330.1807222345965,461.94059250018836" stroke="grey" stroke-width="5" />
<circle cx="330.1807222345965" cy="461.94059250018836" r="2.5" fill="grey" stroke="none" />
<path d="M330.1807222345965,461.94059250018836 A174.03190971772963,174.03190971772963,0,0,0,326.536,485.952" stroke="grey" stroke-width="5" fill="none" />
<circle cx="294.536" cy="453.952" r="5" fill="black" stroke="none" />
<circle cx="326.536" cy="485.952" r="5" fill="black" stroke="none" />
<path d="M294.536,453.952 A210.56085486148655,210.56085486148655,0,0,0,294.73601580841785,546.931550089443" stroke="grey" stroke-width="5" fill="none" />
<path d="M294.73601580841785,546.931550089443 L-253.464,57.952" stroke="grey" stroke-width="5" />
<circle cx="294.73601580841785" cy="546.931550089443" r="2.5" fill="grey" stroke="none" />
<circle cx="294.536" cy="453.952" r="5" fill="black" stroke="none" />
<circle cx="246.536" cy="557.952" r="5" fill="black" stroke="none" />
<path d="M246.53600000000003,557.952 A260.00467995788074,260.00467995788074,0,0,0,271.6290958660403,624.2946649902472" stroke="grey" stroke-width="5" fill="none" />
<path d="M271.6290958660403,624.2946649902472 L-253.464,137.952" stroke="grey" stroke-width="5" />
<circle cx="271.6290958660403" cy="624.2946649902472" r="2.5" fill="grey" stroke="none" />
<circle cx="246.536" cy="557.952" r="5" fill="black" stroke="none" />
<circle cx="246.536" cy="637.952" r="5" fill="black" stroke="none" />
<path d="M142.536,653.952 L234.96156323189763,614.1463124043901" stroke="grey" stroke-width="5" />
<circle cx="234.96156323189763" cy="614.1463124043901" r="2.5" fill="grey" stroke="none" />
<path d="M234.96156323189763,614.1463124043901 A288.5736536830762,288.5736536830762,0,0,0,246.536,637.952" stroke="grey" stroke-width="5" fill="none" />
<circle cx="142.536" cy="653.952" r="5" fill="black" stroke="none" />
<circle cx="246.536" cy="637.952" r="5" fill="black" stroke="none" />
<path d="M246.536,637.952 A288.5736536830762,288.5736536830762,0,0,0,297.74608963735216,705.8351508926937" stroke="grey" stroke-width="5" fill="none" />
<path d="M297.7460896373522,705.8351508926938 L-253.464,257.952" stroke="grey" stroke-width="5" />
<circle cx="297.7460896373522" cy="705.8351508926938" r="2.5" fill="grey" stroke="none" />
<circle cx="246.536" cy="637.952" r="5" fill="black" stroke="none" />
<circle cx="246.536" cy="757.952" r="5" fill="black" stroke="none" />
<path d="M246.536,557.952 L321.71227087803686,540.763700083941" stroke="grey" stroke-width="5" />
<circle cx="321.71227087803686" cy="540.763700083941" r="2.5" fill="grey" stroke="none" />
<path d="M321.71227087803686,540.763700083941 A182.888473119549,182.888473119549,0,0,0,326.536,557.9519999999999" stroke="grey" stroke-width="5" fill="none" />
<circle cx="246.536" cy="557.952" r="5" fill="black" stroke="none" />
<circle cx="326.536" cy="557.952" r="5" fill="black" stroke="none" />
<path d="M326.536,485.952 A174.03190971772963,174.03190971772963,0,0,0,334.93617354690775,555.1456144825992" stroke="grey" stroke-width="5" fill="none" />
<path d="M334.9361735469078,555.1456144825993 L-173.464,57.952" stroke="grey" stroke-width="5" />
<circle cx="334.9361735469078" cy="555.1456144825993" r="2.5" fill="grey" stroke="none" />
<circle cx="326.536" cy="485.952" r="5" fill="black" stroke="none" />
<circle cx="326.536" cy="557.952" r="5" fill="black" stroke="none" />
<path d="M326.536,557.952 L389.1736390063113,537.0256034238012" stroke="grey" stroke-width="5" />
<circle cx="389.1736390063113" cy="537.0256034238012" r="2.5" fill="grey" stroke="none" />
<path d="M389.1736390063113,537.0256034238012 A116.84766835499971,116.84766835499971,0,0,0,398.536,557.952" stroke="grey" stroke-width="5" fill="none" />
<circle cx="326.536" cy="557.952" r="5" fill="black" stroke="none" />
<circle cx="398.536" cy="557.952" r="5" fill="black" stroke="none" />
<path d="M326.536,485.952 L366.2366447957388,489.1671608292818" stroke="grey" stroke-width="5" />
<circle cx="366.2366447957388" cy="489.1671608292818" r="2.5" fill="grey" stroke="none" />
<path d="M366.2366447957388,489.1671608292818 A134.20128762422513,134.20128762422513,0,0,1,366.536,485.95199999999994" stroke="grey" stroke-width="5" fill="none" />
<circle cx="326.536" cy="485.952" r="5" fill="black" stroke="none" />
<circle cx="366.536" cy="485.952" r="5" fill="black" stroke="none" />
<path d="M398.536,557.952 L480.5143552109007,511.1293866476571" stroke="grey" stroke-width="5" />
<circle cx="480.5143552109007" cy="511.1293866476571" r="2.5" fill="grey" stroke="none" />
<path d="M480.5143552109007,511.1293866476571 A22.439999999999998,22.439999999999998,0,0,0,486.536,517.952" stroke="grey" stroke-width="5" fill="none" />
<circle cx="398.536" cy="557.952" r="5" fill="black" stroke="none" />
<circle cx="486.536" cy="517.952" r="5" fill="black" stroke="none" />
<path d="M366.536,485.952 L482.5364727754151,498.1618441643367" stroke="grey" stroke-width="5" />
<circle cx="482.5364727754151" cy="498.1618441643367" r="2.5" fill="grey" stroke="none" />
<path d="M482.5364727754151,498.1618441643367 A17.560000000000002,17.560000000000002,0,0,1,510.536,485.952" stroke="grey" stroke-width="5" fill="none" />
<circle cx="366.536" cy="485.952" r="5" fill="black" stroke="none" />
<circle cx="510.536" cy="485.952" r="5" fill="black" stroke="none" />
<path d="M486.536,517.952 L510.536,485.952" stroke="grey" stroke-width="5" />
<circle cx="486.536" cy="517.952" r="5" fill="black" stroke="none" />
<circle cx="510.536" cy="485.952" r="5" fill="black" stroke="none" />
<path d="M246.536,637.952 L331.40704646501956,591.7595205869774" stroke="grey" stroke-width="5" />
<circle cx="331.40704646501956" cy="591.7595205869774" r="2.5" fill="grey" stroke="none" />
<path d="M331.40704646501956,591.7595205869774 A191.94632999877857,191.94632999877857,0,0,0,366.53600000000006,637.9520000000001" stroke="grey" stroke-width="5" fill="none" />
<circle cx="246.536" cy="637.952" r="5" fill="black" stroke="none" />
<circle cx="366.536" cy="637.952" r="5" fill="black" stroke="none" />
<path d="M366.536,637.952 L460.89162904178056,540.4234699276831" stroke="grey" stroke-width="5" />
<circle cx="460.89162904178056" cy="540.4234699276831" r="2.5" fill="grey" stroke="none" />
<path d="M460.89162904178056,540.4234699276831 A56.2451917944992,56.2451917944992,0,0,0,462.536,541.952" stroke="grey" stroke-width="5" fill="none" />
<circle cx="366.536" cy="637.952" r="5" fill="black" stroke="none" />
<circle cx="462.536" cy="541.952" r="5" fill="black" stroke="none" />
<path d="M462.536,541.952 L485.05308394944046,516.7374819067124" stroke="grey" stroke-width="5" />
<circle cx="485.05308394944046" cy="516.7374819067124" r="2.5" fill="grey" stroke="none" />
<path d="M485.05308394944046,516.7374819067124 A22.439999999999998,22.439999999999998,0,0,0,486.536,517.952" stroke="grey" stroke-width="5" fill="none" />
<circle cx="462.536" cy="541.952" r="5" fill="black" stroke="none" />
<circle cx="486.536" cy="517.952" r="5" fill="black" stroke="none" />
<path d="M486.536,517.952 A22.439999999999998,22.439999999999998,0,0,0,493.14265079813845,521.366571131647" stroke="grey" stroke-width="5" fill="none" />
<path d="M493.1426507981385,521.366571131647 L-13.463999999999999,41.952" stroke="grey" stroke-width="5" />
<circle cx="493.1426507981385" cy="521.366571131647" r="2.5" fill="grey" stroke="none" />
<circle cx="486.536" cy="517.952" r="5" fill="black" stroke="none" />
<circle cx="486.536" cy="541.952" r="5" fill="black" stroke="none" />
<path d="M486.536,541.952 A44.05961416081625,44.05961416081625,0,0,0,497.28339282941766,543.9757847625343" stroke="grey" stroke-width="5" fill="none" />
<path d="M497.28339282941766,543.9757847625343 L-13.463999999999999,217.952" stroke="grey" stroke-width="5" />
<circle cx="497.28339282941766" cy="543.9757847625343" r="2.5" fill="grey" stroke="none" />
<circle cx="486.536" cy="541.952" r="5" fill="black" stroke="none" />
<circle cx="486.536" cy="717.952" r="5" fill="black" stroke="none" />
<path d="M486.536,717.952 A218.36747376841635,218.36747376841635,0,0,0,577.3339892405592,704.2151015672962" stroke="grey" stroke-width="5" fill="none" />
<path d="M577.3339892405592,704.2151015672962 L82.536,217.952" stroke="grey" stroke-width="5" />
<circle cx="577.3339892405592" cy="704.2151015672962" r="2.5" fill="grey" stroke="none" />
<circle cx="486.536" cy="717.952" r="5" fill="black" stroke="none" />
<circle cx="582.5360000000001" cy="717.952" r="5" fill="black" stroke="none" />
<path d="M486.536,717.952 A218.36747376841635,218.36747376841635,0,0,0,488.9591384309509,718.0881770656381" stroke="grey" stroke-width="5" fill="none" />
<path d="M488.9591384309509,718.0881770656381 L-13.463999999999999,265.952" stroke="grey" stroke-width="5" />
<circle cx="488.9591384309509" cy="718.0881770656381" r="2.5" fill="grey" stroke="none" />
<circle cx="486.536" cy="717.952" r="5" fill="black" stroke="none" />
<circle cx="486.536" cy="765.952" r="5" fill="black" stroke="none" />
<path d="M174.536,341.952 L313.9183572062317,409.63722107431386" stroke="grey" stroke-width="5" />
<circle cx="313.9183572062317" cy="409.63722107431386" r="2.5" fill="grey" stroke="none" />
<path d="M313.9183572062317,409.63722107431386 A206.86181281232166,206.86181281232166,0,0,1,366.53599999999994,341.952" stroke="grey" stroke-width="5" fill="none" />
<circle cx="174.536" cy="341.952" r="5" fill="black" stroke="none" />
<circle cx="366.536" cy="341.952" r="5" fill="black" stroke="none" />
<path d="M366.536,341.952 L413.41543222513656,397.46659947490247" stroke="grey" stroke-width="5" />
<circle cx="413.41543222513656" cy="397.46659947490247" r="2.5" fill="grey" stroke="none" />
<path d="M413.41543222513656,397.46659947490247 A134.20128762422513,134.20128762422513,0,0,0,366.536,485.95199999999994" stroke="grey" stroke-width="5" fill="none" />
<circle cx="366.536" cy="341.952" r="5" fill="black" stroke="none" />
<circle cx="366.536" cy="485.952" r="5" fill="black" stroke="none" />
<path d="M366.53599999999994,341.952 A206.86181281232166,206.86181281232166,0,0,1,398.83597106124193,319.56261792832913" stroke="grey" stroke-width="5" fill="none" />
<path d="M398.83597106124193,319.56261792832913 L-133.464,-238.048" stroke="grey" stroke-width="5" />
<circle cx="398.83597106124193" cy="319.56261792832913" r="2.5" fill="grey" stroke="none" />
<circle cx="366.536" cy="341.952" r="5" fill="black" stroke="none" />
<circle cx="366.536" cy="261.952" r="5" fill="black" stroke="none" />
<path d="M366.53599999999994,261.95200000000006 A272.90930654706517,272.90930654706517,0,0,1,387.2053506538023,251.49073120129242" stroke="grey" stroke-width="5" fill="none" />
<path d="M387.2053506538024,251.49073120129242 L-133.464,-294.048" stroke="grey" stroke-width="5" />
<circle cx="387.2053506538024" cy="251.49073120129242" r="2.5" fill="grey" stroke="none" />
<circle cx="366.536" cy="261.952" r="5" fill="black" stroke="none" />
<circle cx="366.536" cy="205.952" r="5" fill="black" stroke="none" />
<path d="M366.536,261.952 L428.1571684747746,371.86025925405465" stroke="grey" stroke-width="5" />
<circle cx="428.1571684747746" cy="371.86025925405465" r="2.5" fill="grey" stroke="none" />
<path d="M428.1571684747746,371.86025925405465 A146.90536273397237,146.90536273397237,0,0,1,462.53599999999994,357.952" stroke="grey" stroke-width="5" fill="none" />
<circle cx="366.536" cy="261.952" r="5" fill="black" stroke="none" />
<circle cx="462.536" cy="357.952" r="5" fill="black" stroke="none" />
<path d="M366.536,341.952 L405.2189620434428,387.76034371097865" stroke="grey" stroke-width="5" />
<circle cx="405.2189620434428" cy="387.76034371097865" r="2.5" fill="grey" stroke="none" />
<path d="M405.2189620434428,387.76034371097865 A146.90536273397237,146.90536273397237,0,0,1,462.53599999999994,357.952" stroke="grey" stroke-width="5" fill="none" />
<circle cx="366.536" cy="341.952" r="5" fill="black" stroke="none" />
<circle cx="462.536" cy="357.952" r="5" fill="black" stroke="none" />
<path d="M462.536,357.952 L481.93532627836396,431.5062253680611" stroke="grey" stroke-width="5" />
<circle cx="481.93532627836396" cy="431.5062253680611" r="2.5" fill="grey" stroke="none" />
<path d="M481.93532627836396,431.50622536806117 A70.83593438361633,70.83593438361633,0,0,1,510.536,429.952" stroke="grey" stroke-width="5" fill="none" />
<circle cx="462.536" cy="357.952" r="5" fill="black" stroke="none" />
<circle cx="510.536" cy="429.952" r="5" fill="black" stroke="none" />
<path d="M462.536,541.952 L470.6526134544668,532.8630568107573" stroke="grey" stroke-width="5" />
<circle cx="470.6526134544668" cy="532.8630568107573" r="2.5" fill="grey" stroke="none" />
<path d="M470.6526134544668,532.8630568107573 A44.05961416081625,44.05961416081625,0,0,0,486.536,541.952" stroke="grey" stroke-width="5" fill="none" />
<circle cx="462.536" cy="541.952" r="5" fill="black" stroke="none" />
<circle cx="486.536" cy="541.952" r="5" fill="black" stroke="none" />
<path d="M486.536,541.952 L486.781940351886,541.1856831816458" stroke="grey" stroke-width="5" />
<circle cx="486.781940351886" cy="541.1856831816458" r="2.5" fill="grey" stroke="none" />
<path d="M486.78194035188596,541.1856831816458 A43.25479857773008,43.25479857773008,0,0,0,510.536,541.952" stroke="grey" stroke-width="5" fill="none" />
<circle cx="486.536" cy="541.952" r="5" fill="black" stroke="none" />
<circle cx="510.536" cy="541.952" r="5" fill="black" stroke="none" />
<path d="M510.536,541.952 L504.2772632420777,517.0311073967013" stroke="grey" stroke-width="5" />
<circle cx="504.2772632420777" cy="517.0311073967013" r="2.5" fill="grey" stroke="none" />
<path d="M504.2772632420777,517.0311073967013 A17.560000000000002,17.560000000000002,0,0,0,510.536,485.952" stroke="grey" stroke-width="5" fill="none" />
<circle cx="510.536" cy="541.952" r="5" fill="black" stroke="none" />
<circle cx="510.536" cy="485.952" r="5" fill="black" stroke="none" />
<path d="M510.536,485.952 A17.560000000000002,17.560000000000002,0,0,0,505.81038539323106,483.429151452562" stroke="grey" stroke-width="5" fill="none" />
<path d="M505.81038539323106,483.429151452562 L10.536000000000001,-30.048000000000002" stroke="grey" stroke-width="5" />
<circle cx="505.81038539323106" cy="483.429151452562" r="2.5" fill="grey" stroke="none" />
<circle cx="510.536" cy="485.952" r="5" fill="black" stroke="none" />
<circle cx="510.536" cy="469.952" r="5" fill="black" stroke="none" />
<path d="M510.536,469.952 A31.84163312394639,31.84163312394639,0,0,0,507.1019872860568,468.9604868500054" stroke="grey" stroke-width="5" fill="none" />
<path d="M507.1019872860568,468.9604868500054 L10.536000000000001,-46.048" stroke="grey" stroke-width="5" />
<circle cx="507.1019872860568" cy="468.9604868500054" r="2.5" fill="grey" stroke="none" />
<circle cx="510.536" cy="469.952" r="5" fill="black" stroke="none" />
<circle cx="510.536" cy="453.952" r="5" fill="black" stroke="none" />
<path d="M510.536,453.952 A47.237967780165995,47.237967780165995,0,0,0,507.02608404706723,453.28747766429706" stroke="grey" stroke-width="5" fill="none" />
<path d="M507.02608404706723,453.28747766429706 L10.536000000000001,-70.048" stroke="grey" stroke-width="5" />
<circle cx="507.02608404706723" cy="453.28747766429706" r="2.5" fill="grey" stroke="none" />
<circle cx="510.536" cy="453.952" r="5" fill="black" stroke="none" />
<circle cx="510.536" cy="429.952" r="5" fill="black" stroke="none" />
<path d="M510.536,429.952 A70.83593438361633,70.83593438361633,0,0,1,545.4225113014273,445.6444568873449" stroke="grey" stroke-width="5" fill="none" />
<path d="M545.4225113014273,445.6444568873449 L58.536,-70.048" stroke="grey" stroke-width="5" />
<circle cx="545.4225113014273" cy="445.6444568873449" r="2.5" fill="grey" stroke="none" />
<circle cx="510.536" cy="429.952" r="5" fill="black" stroke="none" />
<circle cx="558.5360000000001" cy="429.952" r="5" fill="black" stroke="none" />
<path d="M558.5360000000001,429.952 L542.1918571982909,449.5104685488266" stroke="grey" stroke-width="5" />
<circle cx="542.1918571982909" cy="449.5104685488266" r="2.5" fill="grey" stroke="none" />
<path d="M542.1918571982909,449.5104685488266 A65.79776287990344,65.79776287990344,0,0,1,558.5360000000001,469.952" stroke="grey" stroke-width="5" fill="none" />
<circle cx="558.5360000000001" cy="429.952" r="5" fill="black" stroke="none" />
<circle cx="558.5360000000001" cy="469.952" r="5" fill="black" stroke="none" />
<path d="M558.5360000000001,469.952 L528.3274347783731,485.4588157677232" stroke="grey" stroke-width="5" />
<circle cx="528.3274347783731" cy="485.4588157677232" r="2.5" fill="grey" stroke="none" />
<path d="M528.3274347783731,485.4588157677232 A31.84163312394639,31.84163312394639,0,0,0,510.536,469.952" stroke="grey" stroke-width="5" fill="none" />
<circle cx="558.5360000000001" cy="469.952" r="5" fill="black" stroke="none" />
<circle cx="510.536" cy="469.952" r="5" fill="black" stroke="none" />
<path d="M510.536,453.952 A47.237967780165995,47.237967780165995,0,0,1,542.104826957447,478.5848383876412" stroke="grey" stroke-width="5" fill="none" />
<path d="M542.104826957447,478.5848383876412 L90.536,-46.048" stroke="grey" stroke-width="5" />
<circle cx="542.104826957447" cy="478.5848383876412" r="2.5" fill="grey" stroke="none" />
<circle cx="510.536" cy="453.952" r="5" fill="black" stroke="none" />
<circle cx="590.5360000000001" cy="453.952" r="5" fill="black" stroke="none" />
<circle cx="500" cy="500" r="5" fill="red" stroke="none" />
</svg>