<?xml version="1.0" encoding="UTF-8"?>
<svg xmlns="http://www.w3.org/2000/svg" xmlns:xlink="http://www.w3.org/1999/xlink"
     width="1000" height="1000" viewBox="0 0 1000 1000">
<defs>
</defs>
<rect x="0" y="0" width="1000" height="1000" fill="white" />
<path d="M180.84000000000003,268.0 L219.37806821886704,296.01363525121303" stroke="grey" stroke-width="5" />
<circle cx="219.37806821886704" cy="296.01363525121303" r="2.5" fill="grey" stroke="none" />
<path d="M219.37806821886704,296.01363525121303 A346.92809860257785,346.92809860257785,0,0,0,180.8400000000001,363.99999999999983" stroke="grey" stroke-width="5" fill="none" />
<circle cx="180.84000000000003" cy="268.0" r="5" fill="black" stroke="none" />
<circle cx="180.84000000000003" cy="364.0" r="5" fill="black" stroke="none" />
<path d="M180.84000000000003,364.0 L253.99602615002408,395.1731406078558" stroke="grey" stroke-width="5" />
<circle cx="253.99602615002408" cy="395.1731406078558" r="2.5" fill="grey" stroke="none" />
<path d="M253.99602615002414,395.1731406078557 A267.40722802497316,267.40722802497316,0,0,0,244.84,420.0" stroke="grey" stroke-width="5" fill="none" />
<circle cx="180.84000000000003" cy="364.0" r="5" fill="black" stroke="none" />
<circle cx="244.84000000000003" cy="420.0" r="5" fill="black" stroke="none" />
<path d="M156.84000000000003,420.0 L239.57595922810913,439.288019402753" stroke="grey" stroke-width="5" />
<circle cx="239.57595922810913" cy="439.288019402753" r="2.5" fill="grey" stroke="none" />
<path d="M239.57595922810913,439.288019402753 A267.40722802497316,267.40722802497316,0,0,1,244.84,420.0" stroke="grey" stroke-width="5" fill="none" />
<circle cx="156.84000000000003" cy="420.0" r="5" fill="black" stroke="none" />
<circle cx="244.84000000000003" cy="420.0" r="5" fill="black" stroke="none" />
<path d="M244.84000000000003,420.0 L319.32684214687544,443.3537677212339" stroke="grey" stroke-width="5" />
<circle cx="319.32684214687544" cy="443.3537677212339" r="2.5" fill="grey" stroke="none" />
<path d="M319.32684214687544,443.3537677212339 A189.3451493965451,189.3451493965451,0,0,0,316.84000000000003,452.0" stroke="grey" stroke-width="5" fill="none" />
<circle cx="244.84000000000003" cy="420.0" r="5" fill="black" stroke="none" />
<circle cx="316.84000000000003" cy="452.0" r="5" fill="black" stroke="none" />
<path d="M316.84000000000003,452.0 L335.3642279935037,456.854569467614" stroke="grey" stroke-width="5" />
<circle cx="335.3642279935037" cy="456.854569467614" r="2.5" fill="grey" stroke="none" />
<path d="M335.3642279935037,456.854569467614 A170.19537479026857,170.19537479026857,0,0,0,332.84000000000003,468.00000000000006" stroke="grey" stroke-width="5" fill="none" />
<circle cx="316.84000000000003" cy="452.0" r="5" fill="black" stroke="none" />
<circle cx="332.84000000000003" cy="468.0" r="5" fill="black" stroke="none" />
<path d="M332.84000000000003,468.0 L367.2505311742947,474.58732350788125" stroke="grey" stroke-width="5" />
<circle cx="367.2505311742947" cy="474.58732350788125" r="2.5" fill="grey" stroke="none" />
<path d="M367.2505311742947,474.5873235078813 A135.15999999999997,135.15999999999997,0,0,0,364.84000000000003,500.0" stroke="grey" stroke-width="5" fill="none" />
<circle cx="332.84000000000003" cy="468.0" r="5" fill="black" stroke="none" />
<circle cx="364.84000000000003" cy="500.0" r="5" fill="black" stroke="none" />
<path d="M332.84000000000003,468.00000000000006 A170.19537479026857,170.19537479026857,0,0,0,338.6016122704524,554.0094995190901" stroke="grey" stroke-width="5" fill="none" />
<path d="M338.6016122704524,554.0094995190901 L284.84000000000003,572.0" stroke="grey" stroke-width="5" />
<circle cx="338.6016122704524" cy="554.0094995190901" r="2.5" fill="grey" stroke="none" />
<circle cx="332.84000000000003" cy="468.0" r="5" fill="black" stroke="none" />
<circle cx="284.84000000000003" cy="572.0" r="5" fill="black" stroke="none" />
<path d="M284.84000000000003,572.0 A226.88725305754835,226.88725305754835,0,0,0,314.6900661072848,630.9123905544373" stroke="grey" stroke-width="5" fill="none" />
<path d="M314.6900661072848,630.9123905544373 L284.84000000000003,652.0" stroke="grey" stroke-width="5" />
<circle cx="314.6900661072848" cy="630.9123905544373" r="2.5" fill="grey" stroke="none" />
<circle cx="284.84000000000003" cy="572.0" r="5" fill="black" stroke="none" />
<circle cx="284.84000000000003" cy="652.0" r="5" fill="black" stroke="none" />
<path d="M180.84000000000003,668.0 L266.8881974691112,622.7057990512261" stroke="grey" stroke-width="5" />
<circle cx="266.8881974691112" cy="622.7057990512261" r="2.5" fill="grey" stroke="none" />
<path d="M266.8881974691113,622.7057990512262 A263.4346704593,263.4346704593,0,0,0,284.84000000000003,652.0" stroke="grey" stroke-width="5" fill="none" />
<circle cx="180.84000000000003" cy="668.0" r="5" fill="black" stroke="none" />
<circle cx="284.84000000000003" cy="652.0" r="5" fill="black" stroke="none" />
<path d="M284.84000000000003,652.0 A263.4346704593,263.4346704593,0,0,0,336.56627358424714,706.6089123679345" stroke="grey" stroke-width="5" fill="none" />
<path d="M336.56627358424714,706.6089123679345 L284.84000000000003,772.0" stroke="grey" stroke-width="5" />
<circle cx="336.56627358424714" cy="706.6089123679345" r="2.5" fill="grey" stroke="none" />
<circle cx="284.84000000000003" cy="652.0" r="5" fill="black" stroke="none" />
<circle cx="284.84000000000003" cy="772.0" r="5" fill="black" stroke="none" />
<path d="M284.84000000000003,572.0 L354.774302796077,548.5975562310953" stroke="grey" stroke-width="5" />
<circle cx="354.774302796077" cy="548.5975562310953" r="2.5" fill="grey" stroke="none" />
<path d="M354.774302796077,548.5975562310953 A153.14119498031872,153.14119498031872,0,0,0,364.84000000000003,572.0" stroke="grey" stroke-width="5" fill="none" />
<circle cx="284.84000000000003" cy="572.0" r="5" fill="black" stroke="none" />
<circle cx="364.84000000000003" cy="572.0" r="5" fill="black" stroke="none" />
<path d="M364.84000000000003,500.0 A135.15999999999997,135.15999999999997,0,0,0,380.7099186972664,563.5460628425334" stroke="grey" stroke-width="5" fill="none" />
<path d="M380.70991869726646,563.5460628425335 L364.84000000000003,572.0" stroke="grey" stroke-width="5" />
<circle cx="380.70991869726646" cy="563.5460628425335" r="2.5" fill="grey" stroke="none" />
<circle cx="364.84000000000003" cy="500.0" r="5" fill="black" stroke="none" />
<circle cx="364.84000000000003" cy="572.0" r="5" fill="black" stroke="none" />
<path d="M364.84000000000003,572.0 L415.4689542423712,545.0298556862184" stroke="grey" stroke-width="5" />
<circle cx="415.4689542423712" cy="545.0298556862184" r="2.5" fill="grey" stroke="none" />
<path d="M415.4689542423711,545.0298556862184 A95.77674874414978,95.77674874414978,0,0,0,436.84000000000003,572.0" stroke="grey" stroke-width="5" fill="none" />
<circle cx="364.84000000000003" cy="572.0" r="5" fill="black" stroke="none" />
<circle cx="436.84000000000003" cy="572.0" r="5" fill="black" stroke="none" />
<path d="M364.84000000000003,500.0 L404.84000000000003,500.0" stroke="grey" stroke-width="5" />
<circle cx="404.84000000000003" cy="500.0" r="2.5" fill="grey" stroke="none" />
<path d="M404.84000000000003,500.0 A95.15999999999997,95.15999999999997,0,0,1,404.84000000000003,500.0" stroke="grey" stroke-width="5" fill="none" />
<circle cx="364.84000000000003" cy="500.0" r="5" fill="black" stroke="none" />
<circle cx="404.84000000000003" cy="500.0" r="5" fill="black" stroke="none" />
<path d="M436.84000000000003,572.0 L473.28595156374894,530.4530001173223" stroke="grey" stroke-width="5" />
<circle cx="473.28595156374894" cy="530.4530001173223" r="2.5" fill="grey" stroke="none" />
<path d="M473.28595156374894,530.4530001173223 A40.509574176977,40.509574176977,0,0,0,524.84,532.0" stroke="grey" stroke-width="5" fill="none" />
<circle cx="436.84000000000003" cy="572.0" r="5" fill="black" stroke="none" />
<circle cx="524.84" cy="532.0" r="5" fill="black" stroke="none" />
<path d="M404.84000000000003,500.0 L548.84,500.0" stroke="grey" stroke-width="5" />
<circle cx="404.84000000000003" cy="500.0" r="5" fill="black" stroke="none" />
<circle cx="548.84" cy="500.0" r="5" fill="black" stroke="none" />
<path d="M524.84,532.0 A40.509574176977,40.509574176977,0,0,0,540.509574176977,500.0" stroke="grey" stroke-width="5" fill="none" />
<path d="M540.509574176977,500.0 L548.84,500.0" stroke="grey" stroke-width="5" />
<circle cx="540.509574176977" cy="500.0" r="2.5" fill="grey" stroke="none" />
<circle cx="524.84" cy="532.0" r="5" fill="black" stroke="none" />
<circle cx="548.84" cy="500.0" r="5" fill="black" stroke="none" />
<path d="M284.84000000000003,652.0 L353.53200193867565,603.472465631722" stroke="grey" stroke-width="5" />
<circle cx="353.53200193867565" cy="603.472465631722" r="2.5" fill="grey" stroke="none" />
<path d="M353.53200193867565,603.472465631722 A179.3304926664732,179.3304926664732,0,0,0,404.84000000000003,652.0" stroke="grey" stroke-width="5" fill="none" />
<circle cx="284.84000000000003" cy="652.0" r="5" fill="black" stroke="none" />
<circle cx="404.84000000000003" cy="652.0" r="5" fill="black" stroke="none" />
<path d="M404.84000000000003,652.0 L470.2807961153956,547.4707754356858" stroke="grey" stroke-width="5" />
<circle cx="470.2807961153956" cy="547.4707754356858" r="2.5" fill="grey" stroke="none" />
<path d="M470.2807961153956,547.4707754356858 A56.00629964566486,56.00629964566486,0,0,0,500.84000000000003,556.0" stroke="grey" stroke-width="5" fill="none" />
<circle cx="404.84000000000003" cy="652.0" r="5" fill="black" stroke="none" />
<circle cx="500.84000000000003" cy="556.0" r="5" fill="black" stroke="none" />
<path d="M500.84000000000003,556.0 L500.6075752642818,540.5050176187868" stroke="grey" stroke-width="5" />
<circle cx="500.6075752642818" cy="540.5050176187868" r="2.5" fill="grey" stroke="none" />
<path d="M500.6075752642818,540.5050176187868 A40.509574176977,40.509574176977,0,0,0,524.84,532.0" stroke="grey" stroke-width="5" fill="none" />
<circle cx="500.84000000000003" cy="556.0" r="5" fill="black" stroke="none" />
<circle cx="524.84" cy="532.0" r="5" fill="black" stroke="none" />
<path d="M524.84,532.0 A40.509574176977,40.509574176977,0,0,1,516.425496504703,537.0301048415204" stroke="grey" stroke-width="5" fill="none" />
<path d="M516.425496504703,537.0301048415204 L524.84,556.0" stroke="grey" stroke-width="5" />
<circle cx="516.425496504703" cy="537.0301048415204" r="2.5" fill="grey" stroke="none" />
<circle cx="524.84" cy="532.0" r="5" fill="black" stroke="none" />
<circle cx="524.84" cy="556.0" r="5" fill="black" stroke="none" />
<path d="M524.84,556.0 A61.26194250919572,61.26194250919572,0,0,1,506.521976142701,560.9137868400417" stroke="grey" stroke-width="5" fill="none" />
<path d="M506.521976142701,560.9137868400417 L524.84,732.0" stroke="grey" stroke-width="5" />
<circle cx="506.521976142701" cy="560.9137868400417" r="2.5" fill="grey" stroke="none" />
<circle cx="524.84" cy="556.0" r="5" fill="black" stroke="none" />
<circle cx="524.84" cy="732.0" r="5" fill="black" stroke="none" />
<path d="M524.8400000000001,732.0 A233.3260071230809,233.3260071230809,0,0,0,607.785991076358,706.9376856149872" stroke="grey" stroke-width="5" fill="none" />
<path d="M607.785991076358,706.9376856149872 L620.84,732.0" stroke="grey" stroke-width="5" />
<circle cx="607.785991076358" cy="706.9376856149872" r="2.5" fill="grey" stroke="none" />
<circle cx="524.84" cy="732.0" r="5" fill="black" stroke="none" />
<circle cx="620.84" cy="732.0" r="5" fill="black" stroke="none" />
<path d="M524.8400000000001,732.0 A233.3260071230809,233.3260071230809,0,0,1,520.6183734603668,732.4132274115414" stroke="grey" stroke-width="5" fill="none" />
<path d="M520.6183734603668,732.4132274115414 L524.84,780.0" stroke="grey" stroke-width="5" />
<circle cx="520.6183734603668" cy="732.4132274115414" r="2.5" fill="grey" stroke="none" />
<circle cx="524.84" cy="732.0" r="5" fill="black" stroke="none" />
<circle cx="524.84" cy="780.0" r="5" fill="black" stroke="none" />
<path d="M212.84000000000003,356.0 L345.7105132773425,422.6295929514463" stroke="grey" stroke-width="5" />
<circle cx="345.7105132773425" cy="422.6295929514463" r="2.5" fill="grey" stroke="none" />
<path d="M345.7105132773425,422.6295929514463 A172.60192814681994,172.60192814681994,0,0,1,404.84000000000003,356.0" stroke="grey" stroke-width="5" fill="none" />
<circle cx="212.84000000000003" cy="356.0" r="5" fill="black" stroke="none" />
<circle cx="404.84000000000003" cy="356.0" r="5" fill="black" stroke="none" />
<path d="M404.84000000000003,356.0 L447.535779598608,420.6089981315631" stroke="grey" stroke-width="5" />
<circle cx="447.535779598608" cy="420.6089981315631" r="2.5" fill="grey" stroke="none" />
<path d="M447.535779598608,420.6089981315631 A95.15999999999997,95.15999999999997,0,0,0,404.84000000000003,500.0" stroke="grey" stroke-width="5" fill="none" />
<circle cx="404.84000000000003" cy="356.0" r="5" fill="black" stroke="none" />
<circle cx="404.84000000000003" cy="500.0" r="5" fill="black" stroke="none" />
<path d="M404.84000000000003,356.0 A172.60192814681994,172.60192814681994,0,0,1,432.51240006907443,341.1388988595278" stroke="grey" stroke-width="5" fill="none" />
<path d="M432.51240006907443,341.1388988595278 L404.84000000000003,276.0" stroke="grey" stroke-width="5" />
<circle cx="432.51240006907443" cy="341.1388988595278" r="2.5" fill="grey" stroke="none" />
<circle cx="404.84000000000003" cy="356.0" r="5" fill="black" stroke="none" />
<circle cx="404.84000000000003" cy="276.0" r="5" fill="black" stroke="none" />
<path d="M404.84000000000003,276.0 A243.37507185412395,243.37507185412395,0,0,1,421.68640743158056,269.5690844981351" stroke="grey" stroke-width="5" fill="none" />
<path d="M421.68640743158056,269.5690844981351 L404.84000000000003,220.0" stroke="grey" stroke-width="5" />
<circle cx="421.68640743158056" cy="269.5690844981351" r="2.5" fill="grey" stroke="none" />
<circle cx="404.84000000000003" cy="276.0" r="5" fill="black" stroke="none" />
<circle cx="404.84000000000003" cy="220.0" r="5" fill="black" stroke="none" />
<path d="M404.84000000000003,276.0 L449.95073986366555,382.18753393716975" stroke="grey" stroke-width="5" />
<circle cx="449.95073986366555" cy="382.18753393716975" r="2.5" fill="grey" stroke="none" />
<path d="M449.95073986366555,382.18753393716975 A128.0027562203252,128.0027562203252,0,0,1,500.84000000000003,372.0" stroke="grey" stroke-width="5" fill="none" />
<circle cx="404.84000000000003" cy="276.0" r="5" fill="black" stroke="none" />
<circle cx="500.84000000000003" cy="372.0" r="5" fill="black" stroke="none" />
<path d="M404.84000000000003,356.0 L429.4287009843548,393.2086269624536" stroke="grey" stroke-width="5" />
<circle cx="429.4287009843548" cy="393.2086269624536" r="2.5" fill="grey" stroke="none" />
<path d="M429.4287009843548,393.2086269624536 A128.0027562203252,128.0027562203252,0,0,1,500.84000000000003,372.0" stroke="grey" stroke-width="5" fill="none" />
<circle cx="404.84000000000003" cy="356.0" r="5" fill="black" stroke="none" />
<circle cx="500.84000000000003" cy="372.0" r="5" fill="black" stroke="none" />
<path d="M500.84000000000003,372.0 L500.4876210337679,425.6958424734697" stroke="grey" stroke-width="5" />
<circle cx="500.4876210337679" cy="425.6958424734697" r="2.5" fill="grey" stroke="none" />
<path d="M500.4876210337679,425.6958424734697 A74.3057575158211,74.3057575158211,0,0,1,548.84,444.0" stroke="grey" stroke-width="5" fill="none" />
<circle cx="500.84000000000003" cy="372.0" r="5" fill="black" stroke="none" />
<circle cx="548.84" cy="444.0" r="5" fill="black" stroke="none" />
<path d="M500.84000000000003,556.0 A56.00629964566486,56.00629964566486,0,0,0,522.7089841787092,551.1957775365423" stroke="grey" stroke-width="5" fill="none" />
<path d="M522.7089841787092,551.1957775365423 L524.84,556.0" stroke="grey" stroke-width="5" />
<circle cx="522.7089841787092" cy="551.1957775365423" r="2.5" fill="grey" stroke="none" />
<circle cx="500.84000000000003" cy="556.0" r="5" fill="black" stroke="none" />
<circle cx="524.84" cy="556.0" r="5" fill="black" stroke="none" />
<path d="M524.84,556.0 A61.26194250919572,61.26194250919572,0,0,0,540.2665065558623,546.1696225865742" stroke="grey" stroke-width="5" fill="none" />
<path d="M540.2665065558623,546.1696225865742 L548.84,556.0" stroke="grey" stroke-width="5" />
<circle cx="540.2665065558623" cy="546.1696225865742" r="2.5" fill="grey" stroke="none" />
<circle cx="524.84" cy="556.0" r="5" fill="black" stroke="none" />
<circle cx="548.84" cy="556.0" r="5" fill="black" stroke="none" />
<path d="M548.84,556.0 L532.1017600754843,536.8079149104652" stroke="grey" stroke-width="5" />
<circle cx="532.1017600754843" cy="536.8079149104652" r="2.5" fill="grey" stroke="none" />
<path d="M532.1017600754843,536.8079149104652 A48.84000000000003,48.84000000000003,0,0,0,548.84,500.0" stroke="grey" stroke-width="5" fill="none" />
<circle cx="548.84" cy="556.0" r="5" fill="black" stroke="none" />
<circle cx="548.84" cy="500.0" r="5" fill="black" stroke="none" />
<path d="M548.84,500.0 A48.84000000000003,48.84000000000003,0,0,0,546.4128990263368,484.79511907409113" stroke="grey" stroke-width="5" fill="none" />
<path d="M546.4128990263368,484.79511907409113 L548.84,484.0" stroke="grey" stroke-width="5" />
<circle cx="546.4128990263368" cy="484.79511907409113" r="2.5" fill="grey" stroke="none" />
<circle cx="548.84" cy="500.0" r="5" fill="black" stroke="none" />
<circle cx="548.84" cy="484.0" r="5" fill="black" stroke="none" />
<path d="M548.84,484.0 A51.39402299878852,51.39402299878852,0,0,0,542.9885459958397,471.8338764974024" stroke="grey" stroke-width="5" fill="none" />
<path d="M542.9885459958397,471.8338764974024 L548.84,468.0" stroke="grey" stroke-width="5" />
<circle cx="542.9885459958397" cy="471.8338764974024" r="2.5" fill="grey" stroke="none" />
<circle cx="548.84" cy="484.0" r="5" fill="black" stroke="none" />
<circle cx="548.84" cy="468.0" r="5" fill="black" stroke="none" />
<path d="M548.84,468.0 A58.389601814021674,58.389601814021674,0,0,0,538.3785624147581,455.9950963303347" stroke="grey" stroke-width="5" fill="none" />
<path d="M538.3785624147581,455.9950963303347 L548.84,444.0" stroke="grey" stroke-width="5" />
<circle cx="538.3785624147581" cy="455.9950963303347" r="2.5" fill="grey" stroke="none" />
<circle cx="548.84" cy="468.0" r="5" fill="black" stroke="none" />
<circle cx="548.84" cy="444.0" r="5" fill="black" stroke="none" />
<path d="M548.84,444.0 A74.3057575158211,74.3057575158211,0,0,1,564.3249446688849,462.80259292175185" stroke="grey" stroke-width="5" fill="none" />
<path d="M564.3249446688849,462.80259292175185 L596.84,444.0" stroke="grey" stroke-width="5" />
<circle cx="564.3249446688849" cy="462.80259292175185" r="2.5" fill="grey" stroke="none" />
<circle cx="548.84" cy="444.0" r="5" fill="black" stroke="none" />
<circle cx="596.84" cy="444.0" r="5" fill="black" stroke="none" />
<path d="M596.84,444.0 L584.9688913503313,450.8647468440876" stroke="grey" stroke-width="5" />
<circle cx="584.9688913503313" cy="450.8647468440876" r="2.5" fill="grey" stroke="none" />
<path d="M584.9688913503313,450.8647468440876 A98.1528685265999,98.1528685265999,0,0,1,596.84,484.0" stroke="grey" stroke-width="5" fill="none" />
<circle cx="596.84" cy="444.0" r="5" fill="black" stroke="none" />
<circle cx="596.84" cy="484.0" r="5" fill="black" stroke="none" />
<path d="M596.84,484.0 L550.7065892409847,491.622207477739" stroke="grey" stroke-width="5" />
<circle cx="550.7065892409847" cy="491.622207477739" r="2.5" fill="grey" stroke="none" />
<path d="M550.7065892409847,491.622207477739 A51.39402299878852,51.39402299878852,0,0,0,548.84,484.0" stroke="grey" stroke-width="5" fill="none" />
<circle cx="596.84" cy="484.0" r="5" fill="black" stroke="none" />
<circle cx="548.84" cy="484.0" r="5" fill="black" stroke="none" />
<path d="M548.84,468.0 A58.389601814021674,58.389601814021674,0,0,1,556.6679004366274,485.92538952210435" stroke="grey" stroke-width="5" fill="none" />
<path d="M556.6679004366274,485.92538952210435 L628.84,468.0" stroke="grey" stroke-width="5" />
<circle cx="556.6679004366274" cy="485.92538952210435" r="2.5" fill="grey" stroke="none" />
<circle cx="548.84" cy="468.0" r="5" fill="black" stroke="none" />
<circle cx="628.84" cy="468.0" r="5" fill="black" stroke="none" />
<circle cx="500" cy="500" r="5" fill="red" stroke="none" />
</svg>