<?xml version="1.0" encoding="UTF-8"?>
<svg xmlns="http://www.w3.org/2000/svg" xmlns:xlink="http://www.w3.org/1999/xlink"
     width="1000" height="1000" viewBox="0 0 1000 1000">
<defs>
</defs>
<rect x="0" y="0" width="1000" height="1000" fill="white" />
<path d="M276.0,534.7200000000001 A226.6748296569339,226.6748296569339,0,0,0,304.2233556016208,614.2496560524827" stroke="grey" stroke-width="5" fill="none" />
<path d="M304.2233556016208,614.2496560524827 L276.0,630.72" stroke="grey" stroke-width="5" />
<circle cx="304.2233556016208" cy="614.2496560524827" r="2.5" fill="grey" stroke="none" />
<circle cx="276.0" cy="534.72" r="5" fill="black" stroke="none" />
<circle cx="276.0" cy="630.72" r="5" fill="black" stroke="none" />
<path d="M276.0,630.72 L287.6230855313231,623.9370993720778" stroke="grey" stroke-width="5" />
<circle cx="287.6230855313231" cy="623.9370993720778" r="2.5" fill="grey" stroke="none" />
<path d="M287.6230855313231,623.9370993720778 A245.89501499623776,245.89501499623776,0,0,0,340.0,686.7199999999999" stroke="grey" stroke-width="5" fill="none" />
<circle cx="276.0" cy="630.72" r="5" fill="black" stroke="none" />
<circle cx="340.0" cy="686.72" r="5" fill="black" stroke="none" />
<path d="M252.0,686.72 L303.55807795286665,647.9017567929062" stroke="grey" stroke-width="5" />
<circle cx="303.55807795286665" cy="647.9017567929062" r="2.5" fill="grey" stroke="none" />
<path d="M303.55807795286665,647.9017567929062 A245.89501499623776,245.89501499623776,0,0,0,340.0,686.7199999999999" stroke="grey" stroke-width="5" fill="none" />
<circle cx="252.0" cy="686.72" r="5" fill="black" stroke="none" />
<circle cx="340.0" cy="686.72" r="5" fill="black" stroke="none" />
<path d="M340.0,686.72 L346.5951621658547,679.0234457524477" stroke="grey" stroke-width="5" />
<circle cx="346.5951621658547" cy="679.0234457524477" r="2.5" fill="grey" stroke="none" />
<path d="M346.5951621658546,679.0234457524476 A235.75928062326625,235.75928062326625,0,0,0,412.0,718.72" stroke="grey" stroke-width="5" fill="none" />
<circle cx="340.0" cy="686.72" r="5" fill="black" stroke="none" />
<circle cx="412.0" cy="718.72" r="5" fill="black" stroke="none" />
<path d="M412.0,718.72 A235.75928062326625,235.75928062326625,0,0,0,430.8608945668244,725.3934837121523" stroke="grey" stroke-width="5" fill="none" />
<path d="M430.8608945668244,725.3934837121523 L428.0,734.72" stroke="grey" stroke-width="5" />
<circle cx="430.8608945668244" cy="725.3934837121523" r="2.5" fill="grey" stroke="none" />
<circle cx="412.0" cy="718.72" r="5" fill="black" stroke="none" />
<circle cx="428.0" cy="734.72" r="5" fill="black" stroke="none" />
<path d="M428.0,734.72 A245.51472135087948,245.51472135087948,0,0,0,463.5873573267327,742.7995013453466" stroke="grey" stroke-width="5" fill="none" />
<path d="M463.5873573267327,742.7995013453466 L460.0,766.72" stroke="grey" stroke-width="5" />
<circle cx="463.5873573267327" cy="742.7995013453466" r="2.5" fill="grey" stroke="none" />
<circle cx="428.0" cy="734.72" r="5" fill="black" stroke="none" />
<circle cx="460.0" cy="766.72" r="5" fill="black" stroke="none" />
<path d="M428.0,734.72 A245.51472135087948,245.51472135087948,0,0,1,418.0133528866593,731.4209759185899" stroke="grey" stroke-width="5" fill="none" />
<path d="M418.0133528866593,731.4209759185899 L380.0,838.72" stroke="grey" stroke-width="5" />
<circle cx="418.0133528866593" cy="731.4209759185899" r="2.5" fill="grey" stroke="none" />
<circle cx="428.0" cy="734.72" r="5" fill="black" stroke="none" />
<circle cx="380.0" cy="838.72" r="5" fill="black" stroke="none" />
<path d="M380.0,838.72 A359.3483524381321,359.3483524381321,0,0,0,401.0005055084488,845.442236112519" stroke="grey" stroke-width="5" fill="none" />
<path d="M401.00050550844884,845.442236112519 L380.0,918.72" stroke="grey" stroke-width="5" />
<circle cx="401.00050550844884" cy="845.442236112519" r="2.5" fill="grey" stroke="none" />
<circle cx="380.0" cy="838.72" r="5" fill="black" stroke="none" />
<circle cx="380.0" cy="918.72" r="5" fill="black" stroke="none" />
<path d="M276.0,934.72 L300.48756802721283,887.1966269071877" stroke="grey" stroke-width="5" />
<circle cx="300.48756802721283" cy="887.1966269071877" r="2.5" fill="grey" stroke="none" />
<path d="M300.48756802721283,887.1966269071877 A435.5759846456184,435.5759846456184,0,0,0,379.9999999999999,918.72" stroke="grey" stroke-width="5" fill="none" />
<circle cx="276.0" cy="934.72" r="5" fill="black" stroke="none" />
<circle cx="380.0" cy="918.72" r="5" fill="black" stroke="none" />
<path d="M379.9999999999999,918.72 A435.5759846456184,435.5759846456184,0,0,0,405.296395463757,925.1560486313736" stroke="grey" stroke-width="5" fill="none" />
<path d="M405.296395463757,925.1560486313736 L380.0,1038.72" stroke="grey" stroke-width="5" />
<circle cx="405.296395463757" cy="925.1560486313736" r="2.5" fill="grey" stroke="none" />
<circle cx="380.0" cy="918.72" r="5" fill="black" stroke="none" />
<circle cx="380.0" cy="1038.72" r="5" fill="black" stroke="none" />
<path d="M380.0,838.72 L386.10261221761493,821.4943599137457" stroke="grey" stroke-width="5" />
<circle cx="386.10261221761493" cy="821.4943599137457" r="2.5" fill="grey" stroke="none" />
<path d="M386.10261221761493,821.4943599137457 A341.07365538839264,341.07365538839264,0,0,0,460.0,838.72" stroke="grey" stroke-width="5" fill="none" />
<circle cx="380.0" cy="838.72" r="5" fill="black" stroke="none" />
<circle cx="460.0" cy="838.72" r="5" fill="black" stroke="none" />
<path d="M460.0,766.72 A269.7027222702804,269.7027222702804,0,0,0,468.3701490268241,767.8415780408536" stroke="grey" stroke-width="5" fill="none" />
<path d="M468.3701490268241,767.8415780408536 L460.0,838.72" stroke="grey" stroke-width="5" />
<circle cx="468.3701490268241" cy="767.8415780408536" r="2.5" fill="grey" stroke="none" />
<circle cx="460.0" cy="766.72" r="5" fill="black" stroke="none" />
<circle cx="460.0" cy="838.72" r="5" fill="black" stroke="none" />
<path d="M460.0,838.72 L460.09915045641895,837.880393935044" stroke="grey" stroke-width="5" />
<circle cx="460.09915045641895" cy="837.880393935044" r="2.5" fill="grey" stroke="none" />
<path d="M460.09915045641895,837.880393935044 A340.22821517328634,340.22821517328634,0,0,0,532.0,838.72" stroke="grey" stroke-width="5" fill="none" />
<circle cx="460.0" cy="838.72" r="5" fill="black" stroke="none" />
<circle cx="532.0" cy="838.72" r="5" fill="black" stroke="none" />
<path d="M460.0,766.72 L460.44237184484797,763.770264538554" stroke="grey" stroke-width="5" />
<circle cx="460.44237184484797" cy="763.770264538554" r="2.5" fill="grey" stroke="none" />
<path d="M460.44237184484797,763.770264538554 A266.72,266.72,0,0,0,500.0,766.72" stroke="grey" stroke-width="5" fill="none" />
<circle cx="460.0" cy="766.72" r="5" fill="black" stroke="none" />
<circle cx="500.0" cy="766.72" r="5" fill="black" stroke="none" />
<path d="M532.0,838.72 L530.2781979767766,820.4947255841805" stroke="grey" stroke-width="5" />
<circle cx="530.2781979767766" cy="820.4947255841805" r="2.5" fill="grey" stroke="none" />
<path d="M530.2781979767766,820.4947255841805 A321.9217892594411,321.9217892594411,0,0,0,620.0,798.72" stroke="grey" stroke-width="5" fill="none" />
<circle cx="532.0" cy="838.72" r="5" fill="black" stroke="none" />
<circle cx="620.0" cy="798.72" r="5" fill="black" stroke="none" />
<path d="M500.0,766.72 A266.72,266.72,0,0,0,626.7120971448649,734.6989621560997" stroke="grey" stroke-width="5" fill="none" />
<path d="M626.7120971448649,734.6989621560997 L644.0,766.72" stroke="grey" stroke-width="5" />
<circle cx="626.7120971448649" cy="734.6989621560997" r="2.5" fill="grey" stroke="none" />
<circle cx="500.0" cy="766.72" r="5" fill="black" stroke="none" />
<circle cx="644.0" cy="766.72" r="5" fill="black" stroke="none" />
<path d="M620.0,798.72 L612.9876221705473,781.2638541232159" stroke="grey" stroke-width="5" />
<circle cx="612.9876221705473" cy="781.2638541232159" r="2.5" fill="grey" stroke="none" />
<path d="M612.9876221705473,781.2638541232159 A303.10981244426915,303.10981244426915,0,0,0,644.0,766.72" stroke="grey" stroke-width="5" fill="none" />
<circle cx="620.0" cy="798.72" r="5" fill="black" stroke="none" />
<circle cx="644.0" cy="766.72" r="5" fill="black" stroke="none" />
<path d="M380.0,918.72 L384.6437779601643,902.5163107709998" stroke="grey" stroke-width="5" />
<circle cx="384.6437779601643" cy="902.5163107709998" r="2.5" fill="grey" stroke="none" />
<path d="M384.64377796016424,902.5163107709998 A418.72,418.72,0,0,0,500.0,918.72" stroke="grey" stroke-width="5" fill="none" />
<circle cx="380.0" cy="918.72" r="5" fill="black" stroke="none" />
<circle cx="500.0" cy="918.72" r="5" fill="black" stroke="none" />
<path d="M500.0,918.72 L500.0,836.696002946278" stroke="grey" stroke-width="5" />
<circle cx="500.0" cy="836.696002946278" r="2.5" fill="grey" stroke="none" />
<path d="M500.0,836.696002946278 A336.696002946278,336.696002946278,0,0,0,596.0,822.72" stroke="grey" stroke-width="5" fill="none" />
<circle cx="500.0" cy="918.72" r="5" fill="black" stroke="none" />
<circle cx="596.0" cy="822.72" r="5" fill="black" stroke="none" />
<path d="M596.0,822.72 L591.7875219737531,808.5590530351002" stroke="grey" stroke-width="5" />
<circle cx="591.7875219737531" cy="808.5590530351002" r="2.5" fill="grey" stroke="none" />
<path d="M591.7875219737531,808.5590530351002 A321.9217892594411,321.9217892594411,0,0,0,620.0,798.72" stroke="grey" stroke-width="5" fill="none" />
<circle cx="596.0" cy="822.72" r="5" fill="black" stroke="none" />
<circle cx="620.0" cy="798.72" r="5" fill="black" stroke="none" />
<path d="M620.0,798.72 A321.9217892594411,321.9217892594411,0,0,1,612.1977479474743,801.7371434800743" stroke="grey" stroke-width="5" fill="none" />
<path d="M612.1977479474743,801.7371434800743 L620.0,822.72" stroke="grey" stroke-width="5" />
<circle cx="612.1977479474743" cy="801.7371434800743" r="2.5" fill="grey" stroke="none" />
<circle cx="620.0" cy="798.72" r="5" fill="black" stroke="none" />
<circle cx="620.0" cy="822.72" r="5" fill="black" stroke="none" />
<path d="M620.0,822.72 A344.30828976369423,344.30828976369423,0,0,1,580.547199046202,834.7541592360154" stroke="grey" stroke-width="5" fill="none" />
<path d="M580.547199046202,834.7541592360154 L620.0,998.72" stroke="grey" stroke-width="5" />
<circle cx="580.547199046202" cy="834.7541592360154" r="2.5" fill="grey" stroke="none" />
<circle cx="620.0" cy="822.72" r="5" fill="black" stroke="none" />
<circle cx="620.0" cy="998.72" r="5" fill="black" stroke="none" />
<path d="M620.0,998.72 A512.953836519428,512.953836519428,0,0,0,703.8652605451701,970.7022349031815" stroke="grey" stroke-width="5" fill="none" />
<path d="M703.8652605451701,970.7022349031815 L716.0,998.72" stroke="grey" stroke-width="5" />
<circle cx="703.8652605451701" cy="970.7022349031815" r="2.5" fill="grey" stroke="none" />
<circle cx="620.0" cy="998.72" r="5" fill="black" stroke="none" />
<circle cx="716.0" cy="998.72" r="5" fill="black" stroke="none" />
<path d="M620.0,998.72 A512.953836519428,512.953836519428,0,0,1,609.9708087958256,1001.0270048737813" stroke="grey" stroke-width="5" fill="none" />
<path d="M609.9708087958256,1001.0270048737813 L620.0,1046.72" stroke="grey" stroke-width="5" />
<circle cx="609.9708087958256" cy="1001.0270048737813" r="2.5" fill="grey" stroke="none" />
<circle cx="620.0" cy="998.72" r="5" fill="black" stroke="none" />
<circle cx="620.0" cy="1046.72" r="5" fill="black" stroke="none" />
<path d="M308.0,622.72 L396.59734857441174,566.0915280361885" stroke="grey" stroke-width="5" />
<circle cx="396.59734857441174" cy="566.0915280361885" r="2.5" fill="grey" stroke="none" />
<path d="M396.59734857441174,566.0915280361885 A122.72,122.72,0,0,0,500.0,622.72" stroke="grey" stroke-width="5" fill="none" />
<circle cx="308.0" cy="622.72" r="5" fill="black" stroke="none" />
<circle cx="500.0" cy="622.72" r="5" fill="black" stroke="none" />
<path d="M500.0,622.72 A122.72,122.72,0,0,1,500.0,622.72" stroke="grey" stroke-width="5" fill="none" />
<path d="M500.0,622.72 L500.0,766.72" stroke="grey" stroke-width="5" />
<circle cx="500.0" cy="622.72" r="2.5" fill="grey" stroke="none" />
<circle cx="500.0" cy="622.72" r="5" fill="black" stroke="none" />
<circle cx="500.0" cy="766.72" r="5" fill="black" stroke="none" />
<path d="M500.0,622.72 L500.0,542.72" stroke="grey" stroke-width="5" />
<circle cx="500.0" cy="542.72" r="2.5" fill="grey" stroke="none" />
<path d="M500.0,542.72 A42.72,42.72,0,0,1,500.0,542.72" stroke="grey" stroke-width="5" fill="none" />
<circle cx="500.0" cy="622.72" r="5" fill="black" stroke="none" />
<circle cx="500.0" cy="542.72" r="5" fill="black" stroke="none" />
<path d="M500.0,542.72 L500.0,486.72" stroke="grey" stroke-width="5" />
<circle cx="500.0" cy="542.72" r="5" fill="black" stroke="none" />
<circle cx="500.0" cy="486.72" r="5" fill="black" stroke="none" />
<path d="M500.0,542.72 A42.72,42.72,0,0,0,524.3103292163096,535.1284257175673" stroke="grey" stroke-width="5" fill="none" />
<path d="M524.3103292163096,535.1284257175673 L596.0,638.72" stroke="grey" stroke-width="5" />
<circle cx="524.3103292163096" cy="535.1284257175673" r="2.5" fill="grey" stroke="none" />
<circle cx="500.0" cy="542.72" r="5" fill="black" stroke="none" />
<circle cx="596.0" cy="638.72" r="5" fill="black" stroke="none" />
<path d="M500.0,622.72 A122.72,122.72,0,0,0,569.835290295541,600.9119944770567" stroke="grey" stroke-width="5" fill="none" />
<path d="M569.835290295541,600.9119944770567 L596.0,638.72" stroke="grey" stroke-width="5" />
<circle cx="569.835290295541" cy="600.9119944770567" r="2.5" fill="grey" stroke="none" />
<circle cx="500.0" cy="622.72" r="5" fill="black" stroke="none" />
<circle cx="596.0" cy="638.72" r="5" fill="black" stroke="none" />
<path d="M596.0,638.72 A168.69866152403225,168.69866152403225,0,0,1,595.1817876985455,639.2826826655382" stroke="grey" stroke-width="5" fill="none" />
<path d="M595.1817876985455,639.2826826655382 L644.0,710.72" stroke="grey" stroke-width="5" />
<circle cx="595.1817876985455" cy="639.2826826655382" r="2.5" fill="grey" stroke="none" />
<circle cx="596.0" cy="638.72" r="5" fill="black" stroke="none" />
<circle cx="644.0" cy="710.72" r="5" fill="black" stroke="none" />
<path d="M596.0,822.72 A336.696002946278,336.696002946278,0,0,0,617.3469287692234,815.5850071033649" stroke="grey" stroke-width="5" fill="none" />
<path d="M617.3469287692234,815.5850071033649 L620.0,822.72" stroke="grey" stroke-width="5" />
<circle cx="617.3469287692234" cy="815.5850071033649" r="2.5" fill="grey" stroke="none" />
<circle cx="596.0" cy="822.72" r="5" fill="black" stroke="none" />
<circle cx="620.0" cy="822.72" r="5" fill="black" stroke="none" />
<path d="M620.0,822.72 A344.30828976369423,344.30828976369423,0,0,0,640.299533170138,814.4268426712983" stroke="grey" stroke-width="5" fill="none" />
<path d="M640.299533170138,814.4268426712983 L644.0,822.72" stroke="grey" stroke-width="5" />
<circle cx="640.299533170138" cy="814.4268426712983" r="2.5" fill="grey" stroke="none" />
<circle cx="620.0" cy="822.72" r="5" fill="black" stroke="none" />
<circle cx="644.0" cy="822.72" r="5" fill="black" stroke="none" />
<path d="M644.0,822.72 L623.5118829535171,776.8038532413823" stroke="grey" stroke-width="5" />
<circle cx="623.5118829535171" cy="776.8038532413823" r="2.5" fill="grey" stroke="none" />
<path d="M623.5118829535171,776.8038532413823 A303.10981244426915,303.10981244426915,0,0,0,644.0,766.72" stroke="grey" stroke-width="5" fill="none" />
<circle cx="644.0" cy="822.72" r="5" fill="black" stroke="none" />
<circle cx="644.0" cy="766.72" r="5" fill="black" stroke="none" />
<path d="M644.0,766.72 L637.3588327146199,754.4190823725238" stroke="grey" stroke-width="5" />
<circle cx="637.3588327146199" cy="754.4190823725238" r="2.5" fill="grey" stroke="none" />
<path d="M637.3588327146199,754.4190823725238 A289.1306251506402,289.1306251506402,0,0,0,644.0,750.72" stroke="grey" stroke-width="5" fill="none" />
<circle cx="644.0" cy="766.72" r="5" fill="black" stroke="none" />
<circle cx="644.0" cy="750.72" r="5" fill="black" stroke="none" />
<path d="M644.0,750.72 L637.1473533898301,738.7887808465152" stroke="grey" stroke-width="5" />
<circle cx="637.1473533898301" cy="738.7887808465152" r="2.5" fill="grey" stroke="none" />
<path d="M637.1473533898301,738.7887808465152 A275.3715279399815,275.3715279399815,0,0,0,644.0,734.72" stroke="grey" stroke-width="5" fill="none" />
<circle cx="644.0" cy="750.72" r="5" fill="black" stroke="none" />
<circle cx="644.0" cy="734.72" r="5" fill="black" stroke="none" />
<path d="M644.0,734.72 L633.4638747690117,717.546115873489" stroke="grey" stroke-width="5" />
<circle cx="633.4638747690117" cy="717.546115873489" r="2.5" fill="grey" stroke="none" />
<path d="M633.4638747690117,717.546115873489 A255.2232716662021,255.2232716662021,0,0,0,644.0,710.72" stroke="grey" stroke-width="5" fill="none" />
<circle cx="644.0" cy="734.72" r="5" fill="black" stroke="none" />
<circle cx="644.0" cy="710.72" r="5" fill="black" stroke="none" />
<path d="M644.0,710.72 A255.2232716662021,255.2232716662021,0,0,0,671.8955382864731,688.6553532694041" stroke="grey" stroke-width="5" fill="none" />
<path d="M671.8955382864731,688.6553532694041 L692.0,710.72" stroke="grey" stroke-width="5" />
<circle cx="671.8955382864731" cy="688.6553532694041" r="2.5" fill="grey" stroke="none" />
<circle cx="644.0" cy="710.72" r="5" fill="black" stroke="none" />
<circle cx="692.0" cy="710.72" r="5" fill="black" stroke="none" />
<path d="M692.0,710.72 A285.0735315668573,285.0735315668573,0,0,1,673.3233804496177,726.3314476371258" stroke="grey" stroke-width="5" fill="none" />
<path d="M673.3233804496177,726.3314476371258 L692.0,750.72" stroke="grey" stroke-width="5" />
<circle cx="673.3233804496177" cy="726.3314476371258" r="2.5" fill="grey" stroke="none" />
<circle cx="692.0" cy="710.72" r="5" fill="black" stroke="none" />
<circle cx="692.0" cy="750.72" r="5" fill="black" stroke="none" />
<path d="M692.0,750.72 L675.7900744666903,729.552538907753" stroke="grey" stroke-width="5" />
<circle cx="675.7900744666903" cy="729.552538907753" r="2.5" fill="grey" stroke="none" />
<path d="M675.7900744666903,729.552538907753 A289.1306251506402,289.1306251506402,0,0,1,644.0,750.72" stroke="grey" stroke-width="5" fill="none" />
<circle cx="692.0" cy="750.72" r="5" fill="black" stroke="none" />
<circle cx="644.0" cy="750.72" r="5" fill="black" stroke="none" />
<path d="M644.0,734.72 A275.3715279399815,275.3715279399815,0,0,0,690.114751903994,699.2131007451137" stroke="grey" stroke-width="5" fill="none" />
<path d="M690.1147519039939,699.2131007451137 L724.0,734.72" stroke="grey" stroke-width="5" />
<circle cx="690.1147519039939" cy="699.2131007451137" r="2.5" fill="grey" stroke="none" />
<circle cx="644.0" cy="734.72" r="5" fill="black" stroke="none" />
<circle cx="724.0" cy="734.72" r="5" fill="black" stroke="none" />
<circle cx="500" cy="500" r="5" fill="red" stroke="none" />
</svg>