<?xml version="1.0" encoding="UTF-8"?>
<svg xmlns="http://www.w3.org/2000/svg" xmlns:xlink="http://www.w3.org/1999/xlink"
     width="1000" height="1000" viewBox="0 0 1000 1000">
<defs>
</defs>
<rect x="0" y="0" width="1000" height="1000" fill="white" />
<path d="M276.0,282.4 L317.1815964717266,322.40497942967716" stroke="grey" stroke-width="5" />
<circle cx="317.1815964717266" cy="322.40497942967716" r="2.5" fill="grey" stroke="none" />
<path d="M317.1815964717266,322.40497942967716 A254.87753922227043,254.87753922227043,0,0,0,276.0,378.4" stroke="grey" stroke-width="5" fill="none" />
<circle cx="276.0" cy="282.4" r="5" fill="black" stroke="none" />
<circle cx="276.0" cy="378.4" r="5" fill="black" stroke="none" />
<path d="M276.0,378.4 L348.0234968715473,417.49846973026854" stroke="grey" stroke-width="5" />
<circle cx="348.0234968715473" cy="417.49846973026854" r="2.5" fill="grey" stroke="none" />
<path d="M348.0234968715473,417.49846973026854 A172.92588007582904,172.92588007582904,0,0,0,340.0,434.4" stroke="grey" stroke-width="5" fill="none" />
<circle cx="276.0" cy="378.4" r="5" fill="black" stroke="none" />
<circle cx="340.0" cy="434.4" r="5" fill="black" stroke="none" />
<path d="M252.0,434.4 L332.8238031116945,455.7791995327708" stroke="grey" stroke-width="5" />
<circle cx="332.8238031116945" cy="455.7791995327708" r="2.5" fill="grey" stroke="none" />
<path d="M332.8238031116945,455.7791995327708 A172.92588007582904,172.92588007582904,0,0,1,340.0,434.4" stroke="grey" stroke-width="5" fill="none" />
<circle cx="252.0" cy="434.4" r="5" fill="black" stroke="none" />
<circle cx="340.0" cy="434.4" r="5" fill="black" stroke="none" />
<path d="M340.0,434.4 L412.84461014375086,464.26629015893786" stroke="grey" stroke-width="5" />
<circle cx="412.84461014375086" cy="464.26629015893786" r="2.5" fill="grey" stroke="none" />
<path d="M412.84461014375086,464.26629015893786 A94.19639058902416,94.19639058902416,0,0,0,412.0,466.4" stroke="grey" stroke-width="5" fill="none" />
<circle cx="340.0" cy="434.4" r="5" fill="black" stroke="none" />
<circle cx="412.0" cy="466.4" r="5" fill="black" stroke="none" />
<path d="M412.0,466.4 L430.75582396620666,473.5613146052789" stroke="grey" stroke-width="5" />
<circle cx="430.75582396620666" cy="473.5613146052789" r="2.5" fill="grey" stroke="none" />
<path d="M430.75582396620666,473.5613146052789 A74.11990286016301,74.11990286016301,0,0,0,428.0,482.4" stroke="grey" stroke-width="5" fill="none" />
<circle cx="412.0" cy="466.4" r="5" fill="black" stroke="none" />
<circle cx="428.0" cy="482.4" r="5" fill="black" stroke="none" />
<path d="M428.0,482.4 L458.7028588439737,489.9051432729713" stroke="grey" stroke-width="5" />
<circle cx="458.7028588439737" cy="489.9051432729713" r="2.5" fill="grey" stroke="none" />
<path d="M458.7028588439737,489.9051432729713 A42.513056817876546,42.513056817876546,0,0,0,460.0,514.4" stroke="grey" stroke-width="5" fill="none" />
<circle cx="428.0" cy="482.4" r="5" fill="black" stroke="none" />
<circle cx="460.0" cy="514.4" r="5" fill="black" stroke="none" />
<path d="M428.0,482.4 A74.11990286016301,74.11990286016301,0,0,0,439.84915344392886,543.3086095203712" stroke="grey" stroke-width="5" fill="none" />
<path d="M439.84915344392886,543.3086095203712 L-120.0,86.39999999999998" stroke="grey" stroke-width="5" />
<circle cx="439.84915344392886" cy="543.3086095203712" r="2.5" fill="grey" stroke="none" />
<circle cx="428.0" cy="482.4" r="5" fill="black" stroke="none" />
<circle cx="380.0" cy="586.4" r="5" fill="black" stroke="none" />
<path d="M380.0,586.4 A147.86804928719388,147.86804928719388,0,0,0,413.50888570485233,619.9343451559381" stroke="grey" stroke-width="5" fill="none" />
<path d="M413.50888570485233,619.9343451559381 L-120.0,166.39999999999998" stroke="grey" stroke-width="5" />
<circle cx="413.50888570485233" cy="619.9343451559381" r="2.5" fill="grey" stroke="none" />
<circle cx="380.0" cy="586.4" r="5" fill="black" stroke="none" />
<circle cx="380.0" cy="666.4" r="5" fill="black" stroke="none" />
<path d="M276.0,682.4 L340.91472668088727,629.5408654169918" stroke="grey" stroke-width="5" />
<circle cx="340.91472668088727" cy="629.5408654169918" r="2.5" fill="grey" stroke="none" />
<path d="M340.91472668088727,629.5408654169918 A205.15594068902803,205.15594068902803,0,0,0,380.00000000000006,666.4" stroke="grey" stroke-width="5" fill="none" />
<circle cx="276.0" cy="682.4" r="5" fill="black" stroke="none" />
<circle cx="380.0" cy="666.4" r="5" fill="black" stroke="none" />
<path d="M380.00000000000006,666.4 A205.15594068902803,205.15594068902803,0,0,0,420.7187279510423,689.2179692901791" stroke="grey" stroke-width="5" fill="none" />
<path d="M420.7187279510423,689.2179692901791 L-120.0,286.4" stroke="grey" stroke-width="5" />
<circle cx="420.7187279510423" cy="689.2179692901791" r="2.5" fill="grey" stroke="none" />
<circle cx="380.0" cy="666.4" r="5" fill="black" stroke="none" />
<circle cx="380.0" cy="786.4" r="5" fill="black" stroke="none" />
<path d="M380.0,586.4 L422.7337475876138,555.6317017369181" stroke="grey" stroke-width="5" />
<circle cx="422.7337475876138" cy="555.6317017369181" r="2.5" fill="grey" stroke="none" />
<path d="M422.7337475876138,555.6317017369181 A95.21008349959575,95.21008349959575,0,0,0,460.0,586.4" stroke="grey" stroke-width="5" fill="none" />
<circle cx="380.0" cy="586.4" r="5" fill="black" stroke="none" />
<circle cx="460.0" cy="586.4" r="5" fill="black" stroke="none" />
<path d="M460.0,514.4 A42.513056817876546,42.513056817876546,0,0,0,482.1392628783664,538.5791921827285" stroke="grey" stroke-width="5" fill="none" />
<path d="M482.1392628783664,538.5791921827285 L-40.0,86.39999999999998" stroke="grey" stroke-width="5" />
<circle cx="482.1392628783664" cy="538.5791921827285" r="2.5" fill="grey" stroke="none" />
<circle cx="460.0" cy="514.4" r="5" fill="black" stroke="none" />
<circle cx="460.0" cy="586.4" r="5" fill="black" stroke="none" />
<path d="M460.0,586.4 L461.29168301243044,583.6099646931502" stroke="grey" stroke-width="5" />
<circle cx="461.29168301243044" cy="583.6099646931502" r="2.5" fill="grey" stroke="none" />
<path d="M461.29168301243044,583.6099646931502 A92.13555231288298,92.13555231288298,0,0,0,532.0,586.4" stroke="grey" stroke-width="5" fill="none" />
<circle cx="460.0" cy="586.4" r="5" fill="black" stroke="none" />
<circle cx="532.0" cy="586.4" r="5" fill="black" stroke="none" />
<path d="M460.0,514.4 L486.45122126909035,504.87756034312747" stroke="grey" stroke-width="5" />
<circle cx="486.45122126909035" cy="504.87756034312747" r="2.5" fill="grey" stroke="none" />
<path d="M486.45122126909035,504.87756034312747 A14.399999999999977,14.399999999999977,0,0,0,500.0,514.4" stroke="grey" stroke-width="5" fill="none" />
<circle cx="460.0" cy="514.4" r="5" fill="black" stroke="none" />
<circle cx="500.0" cy="514.4" r="5" fill="black" stroke="none" />
<path d="M532.0,586.4 A92.13555231288298,92.13555231288298,0,0,0,585.9351138844287,533.2282440353124" stroke="grey" stroke-width="5" fill="none" />
<path d="M585.9351138844287,533.2282440353124 L120.0,46.39999999999998" stroke="grey" stroke-width="5" />
<circle cx="585.9351138844287" cy="533.2282440353124" r="2.5" fill="grey" stroke="none" />
<circle cx="532.0" cy="586.4" r="5" fill="black" stroke="none" />
<circle cx="620.0" cy="546.4" r="5" fill="black" stroke="none" />
<path d="M500.0,514.4 A14.399999999999977,14.399999999999977,0,0,0,514.3285355390238,501.43285355390236" stroke="grey" stroke-width="5" fill="none" />
<path d="M514.3285355390238,501.43285355390236 L144.0,14.399999999999977" stroke="grey" stroke-width="5" />
<circle cx="514.3285355390238" cy="501.43285355390236" r="2.5" fill="grey" stroke="none" />
<circle cx="500.0" cy="514.4" r="5" fill="black" stroke="none" />
<circle cx="644.0" cy="514.4" r="5" fill="black" stroke="none" />
<path d="M620.0,546.4 A128.6583071550376,128.6583071550376,0,0,0,628.0198004487223,512.8019800448723" stroke="grey" stroke-width="5" fill="none" />
<path d="M628.0198004487223,512.8019800448723 L144.0,14.399999999999977" stroke="grey" stroke-width="5" />
<circle cx="628.0198004487223" cy="512.8019800448723" r="2.5" fill="grey" stroke="none" />
<circle cx="620.0" cy="546.4" r="5" fill="black" stroke="none" />
<circle cx="644.0" cy="514.4" r="5" fill="black" stroke="none" />
<path d="M380.0,666.4 L402.6691601864596,634.9654312081094" stroke="grey" stroke-width="5" />
<circle cx="402.6691601864596" cy="634.9654312081094" r="2.5" fill="grey" stroke="none" />
<path d="M402.6691601864596,634.9654312081094 A166.39999999999998,166.39999999999998,0,0,0,500.0,666.4" stroke="grey" stroke-width="5" fill="none" />
<circle cx="380.0" cy="666.4" r="5" fill="black" stroke="none" />
<circle cx="500.0" cy="666.4" r="5" fill="black" stroke="none" />
<path d="M500.0,666.4 L500.0,619.0468815215249" stroke="grey" stroke-width="5" />
<circle cx="500.0" cy="619.0468815215249" r="2.5" fill="grey" stroke="none" />
<path d="M500.0,619.0468815215249 A119.04688152152494,119.04688152152494,0,0,0,596.0,570.4" stroke="grey" stroke-width="5" fill="none" />
<circle cx="500.0" cy="666.4" r="5" fill="black" stroke="none" />
<circle cx="596.0" cy="570.4" r="5" fill="black" stroke="none" />
<path d="M596.0,570.4 A119.04688152152494,119.04688152152494,0,0,0,611.0353936599549,542.9336855485159" stroke="grey" stroke-width="5" fill="none" />
<path d="M611.0353936599549,542.9336855485159 L120.0,46.39999999999998" stroke="grey" stroke-width="5" />
<circle cx="611.0353936599549" cy="542.9336855485159" r="2.5" fill="grey" stroke="none" />
<circle cx="596.0" cy="570.4" r="5" fill="black" stroke="none" />
<circle cx="620.0" cy="546.4" r="5" fill="black" stroke="none" />
<path d="M620.0,546.4 A128.6583071550376,128.6583071550376,0,0,1,610.9709942549423,565.1029832962328" stroke="grey" stroke-width="5" fill="none" />
<path d="M610.9709942549423,565.1029832962328 L120.0,70.39999999999998" stroke="grey" stroke-width="5" />
<circle cx="610.9709942549423" cy="565.1029832962328" r="2.5" fill="grey" stroke="none" />
<circle cx="620.0" cy="546.4" r="5" fill="black" stroke="none" />
<circle cx="620.0" cy="570.4" r="5" fill="black" stroke="none" />
<path d="M620.0,570.4 A139.12641733330156,139.12641733330156,0,0,1,560.9162849311263,625.0814383919126" stroke="grey" stroke-width="5" fill="none" />
<path d="M560.9162849311263,625.0814383919126 L120.0,246.39999999999998" stroke="grey" stroke-width="5" />
<circle cx="560.9162849311263" cy="625.0814383919126" r="2.5" fill="grey" stroke="none" />
<circle cx="620.0" cy="570.4" r="5" fill="black" stroke="none" />
<circle cx="620.0" cy="746.4" r="5" fill="black" stroke="none" />
<path d="M620.0,746.4 A274.06743695667313,274.06743695667313,0,0,0,680.6640810151454,706.0908776024621" stroke="grey" stroke-width="5" fill="none" />
<path d="M680.6640810151454,706.0908776024621 L216.0,246.39999999999998" stroke="grey" stroke-width="5" />
<circle cx="680.6640810151454" cy="706.0908776024621" r="2.5" fill="grey" stroke="none" />
<circle cx="620.0" cy="746.4" r="5" fill="black" stroke="none" />
<circle cx="716.0" cy="746.4" r="5" fill="black" stroke="none" />
<path d="M620.0,746.4 A274.06743695667313,274.06743695667313,0,0,1,603.4486028630168,753.7939056906014" stroke="grey" stroke-width="5" fill="none" />
<path d="M603.4486028630168,753.7939056906014 L120.0,294.4" stroke="grey" stroke-width="5" />
<circle cx="603.4486028630168" cy="753.7939056906014" r="2.5" fill="grey" stroke="none" />
<circle cx="620.0" cy="746.4" r="5" fill="black" stroke="none" />
<circle cx="620.0" cy="794.4" r="5" fill="black" stroke="none" />
<path d="M308.0,370.4 L392.58121183979597,427.4923179918623" stroke="grey" stroke-width="5" />
<circle cx="392.58121183979597" cy="427.4923179918623" r="2.5" fill="grey" stroke="none" />
<path d="M392.58121183979597,427.4923179918623 A129.60000000000002,129.60000000000002,0,0,1,500.0,370.4" stroke="grey" stroke-width="5" fill="none" />
<circle cx="308.0" cy="370.4" r="5" fill="black" stroke="none" />
<circle cx="500.0" cy="370.4" r="5" fill="black" stroke="none" />
<path d="M500.0,370.4 L500.0,514.4" stroke="grey" stroke-width="5" />
<circle cx="500.0" cy="370.4" r="5" fill="black" stroke="none" />
<circle cx="500.0" cy="514.4" r="5" fill="black" stroke="none" />
<path d="M500.0,370.4 A129.60000000000002,129.60000000000002,0,0,1,500.0,370.4" stroke="grey" stroke-width="5" fill="none" />
<path d="M500.0,370.4 L0.0,-209.60000000000002" stroke="grey" stroke-width="5" />
<circle cx="500.0" cy="370.4" r="2.5" fill="grey" stroke="none" />
<circle cx="500.0" cy="370.4" r="5" fill="black" stroke="none" />
<circle cx="500.0" cy="290.4" r="5" fill="black" stroke="none" />
<path d="M500.0,290.4 A209.60000000000002,209.60000000000002,0,0,1,500.0,290.4" stroke="grey" stroke-width="5" fill="none" />
<path d="M500.0,290.4 L0.0,-265.6" stroke="grey" stroke-width="5" />
<circle cx="500.0" cy="290.4" r="2.5" fill="grey" stroke="none" />
<circle cx="500.0" cy="290.4" r="5" fill="black" stroke="none" />
<circle cx="500.0" cy="234.39999999999998" r="5" fill="black" stroke="none" />
<path d="M500.0,290.4 L500.0,351.26883312499695" stroke="grey" stroke-width="5" />
<circle cx="500.0" cy="351.26883312499695" r="2.5" fill="grey" stroke="none" />
<path d="M500.0,351.26883312499695 A148.73116687500305,148.73116687500305,0,0,1,596.0,386.4" stroke="grey" stroke-width="5" fill="none" />
<circle cx="500.0" cy="290.4" r="5" fill="black" stroke="none" />
<circle cx="596.0" cy="386.4" r="5" fill="black" stroke="none" />
<path d="M500.0,370.4 A129.60000000000002,129.60000000000002,0,0,1,583.6515994691025,401.012273961562" stroke="grey" stroke-width="5" fill="none" />
<path d="M583.6515994691025,401.012273961562 L96.0,-113.60000000000002" stroke="grey" stroke-width="5" />
<circle cx="583.6515994691025" cy="401.012273961562" r="2.5" fill="grey" stroke="none" />
<circle cx="500.0" cy="370.4" r="5" fill="black" stroke="none" />
<circle cx="596.0" cy="386.4" r="5" fill="black" stroke="none" />
<path d="M596.0,386.4 A148.73116687500305,148.73116687500305,0,0,1,642.8881414473282,458.72120358188295" stroke="grey" stroke-width="5" fill="none" />
<path d="M642.8881414473282,458.72120358188295 L144.0,-41.60000000000002" stroke="grey" stroke-width="5" />
<circle cx="642.8881414473282" cy="458.72120358188295" r="2.5" fill="grey" stroke="none" />
<circle cx="596.0" cy="386.4" r="5" fill="black" stroke="none" />
<circle cx="644.0" cy="458.4" r="5" fill="black" stroke="none" />
<path d="M596.0,570.4 A119.04688152152494,119.04688152152494,0,0,0,602.6809002661175,560.2394614894556" stroke="grey" stroke-width="5" fill="none" />
<path d="M602.6809002661175,560.2394614894556 L120.0,70.39999999999998" stroke="grey" stroke-width="5" />
<circle cx="602.6809002661175" cy="560.2394614894556" r="2.5" fill="grey" stroke="none" />
<circle cx="596.0" cy="570.4" r="5" fill="black" stroke="none" />
<circle cx="620.0" cy="570.4" r="5" fill="black" stroke="none" />
<path d="M620.0,570.4 A139.12641733330156,139.12641733330156,0,0,0,624.9889975229562,561.1057321223341" stroke="grey" stroke-width="5" fill="none" />
<path d="M624.9889975229562,561.1057321223341 L144.0,70.39999999999998" stroke="grey" stroke-width="5" />
<circle cx="624.9889975229562" cy="561.1057321223341" r="2.5" fill="grey" stroke="none" />
<circle cx="620.0" cy="570.4" r="5" fill="black" stroke="none" />
<circle cx="644.0" cy="570.4" r="5" fill="black" stroke="none" />
<path d="M644.0,570.4 L630.0125756556533,563.5617036538749" stroke="grey" stroke-width="5" />
<circle cx="630.0125756556533" cy="563.5617036538749" r="2.5" fill="grey" stroke="none" />
<path d="M630.0125756556533,563.5617036538749 A144.71820894414083,144.71820894414083,0,0,0,644.0,514.4" stroke="grey" stroke-width="5" fill="none" />
<circle cx="644.0" cy="570.4" r="5" fill="black" stroke="none" />
<circle cx="644.0" cy="514.4" r="5" fill="black" stroke="none" />
<path d="M644.0,514.4 L643.2941998922925,514.3294199892292" stroke="grey" stroke-width="5" />
<circle cx="643.2941998922925" cy="514.3294199892292" r="2.5" fill="grey" stroke="none" />
<path d="M643.2941998922925,514.3294199892292 A144.0088886145574,144.0088886145574,0,0,0,644.0,498.4" stroke="grey" stroke-width="5" fill="none" />
<circle cx="644.0" cy="514.4" r="5" fill="black" stroke="none" />
<circle cx="644.0" cy="498.4" r="5" fill="black" stroke="none" />
<path d="M644.0,498.4 A144.0088886145574,144.0088886145574,0,0,0,642.945169536209,482.5289237233522" stroke="grey" stroke-width="5" fill="none" />
<path d="M642.945169536209,482.5289237233522 L144.0,-17.600000000000023" stroke="grey" stroke-width="5" />
<circle cx="642.945169536209" cy="482.5289237233522" r="2.5" fill="grey" stroke="none" />
<circle cx="644.0" cy="498.4" r="5" fill="black" stroke="none" />
<circle cx="644.0" cy="482.4" r="5" fill="black" stroke="none" />
<path d="M644.0,482.4 A145.0715685446325,145.0715685446325,0,0,0,639.3723134278393,459.7368872319575" stroke="grey" stroke-width="5" fill="none" />
<path d="M639.3723134278393,459.7368872319575 L144.0,-41.60000000000002" stroke="grey" stroke-width="5" />
<circle cx="639.3723134278393" cy="459.7368872319575" r="2.5" fill="grey" stroke="none" />
<circle cx="644.0" cy="482.4" r="5" fill="black" stroke="none" />
<circle cx="644.0" cy="458.4" r="5" fill="black" stroke="none" />
<path d="M644.0,458.4 A149.88849188646873,149.88849188646873,0,0,1,646.4894915443647,468.2606101653876" stroke="grey" stroke-width="5" fill="none" />
<path d="M646.4894915443647,468.2606101653876 L192.0,-41.60000000000002" stroke="grey" stroke-width="5" />
<circle cx="646.4894915443647" cy="468.2606101653876" r="2.5" fill="grey" stroke="none" />
<circle cx="644.0" cy="458.4" r="5" fill="black" stroke="none" />
<circle cx="692.0" cy="458.4" r="5" fill="black" stroke="none" />
<path d="M692.0,458.4 L687.652558259633,459.3419457104128" stroke="grey" stroke-width="5" />
<circle cx="687.652558259633" cy="459.3419457104128" r="2.5" fill="grey" stroke="none" />
<path d="M687.652558259633,459.3419457104128 A192.00666655092994,192.00666655092994,0,0,1,692.0,498.4" stroke="grey" stroke-width="5" fill="none" />
<circle cx="692.0" cy="458.4" r="5" fill="black" stroke="none" />
<circle cx="692.0" cy="498.4" r="5" fill="black" stroke="none" />
<path d="M692.0,498.4 L644.0038885663427,498.79996759528046" stroke="grey" stroke-width="5" />
<circle cx="644.0038885663427" cy="498.79996759528046" r="2.5" fill="grey" stroke="none" />
<path d="M644.0038885663427,498.79996759528046 A144.0088886145574,144.0088886145574,0,0,0,644.0,498.4" stroke="grey" stroke-width="5" fill="none" />
<circle cx="692.0" cy="498.4" r="5" fill="black" stroke="none" />
<circle cx="644.0" cy="498.4" r="5" fill="black" stroke="none" />
<path d="M644.0,482.4 A145.0715685446325,145.0715685446325,0,0,1,644.6258338396102,488.6365416268878" stroke="grey" stroke-width="5" fill="none" />
<path d="M644.6258338396102,488.6365416268878 L224.0,-17.600000000000023" stroke="grey" stroke-width="5" />
<circle cx="644.6258338396102" cy="488.6365416268878" r="2.5" fill="grey" stroke="none" />
<circle cx="644.0" cy="482.4" r="5" fill="black" stroke="none" />
<circle cx="724.0" cy="482.4" r="5" fill="black" stroke="none" />
<circle cx="500" cy="500" r="5" fill="red" stroke="none" />
</svg>