<?xml version="1.0" encoding="UTF-8"?>
<svg xmlns="http://www.w3.org/2000/svg" xmlns:xlink="http://www.w3.org/1999/xlink"
     width="1000" height="1000" viewBox="0 0 1000 1000">
<defs>
</defs>
<rect x="0" y="0" width="1000" height="1000" fill="white" />
<path d="M150.96000000000004,268.0 L188.0285041900097,292.63870322049684" stroke="grey" stroke-width="5" />
<circle cx="188.0285041900097" cy="292.63870322049684" r="2.5" fill="grey" stroke="none" />
<path d="M188.0285041900097,292.63870322049684 A374.5996817937783,374.5996817937783,0,0,0,150.96000000000004,364.0" stroke="grey" stroke-width="5" fill="none" />
<circle cx="150.96000000000004" cy="268.0" r="5" fill="black" stroke="none" />
<circle cx="150.96000000000004" cy="364.0" r="5" fill="black" stroke="none" />
<path d="M150.96000000000004,364.0 L224.1466200517254,392.5164460435327" stroke="grey" stroke-width="5" />
<circle cx="224.1466200517254" cy="392.5164460435327" r="2.5" fill="grey" stroke="none" />
<path d="M224.1466200517254,392.5164460435327 A296.0537140452725,296.0537140452725,0,0,0,214.96000000000004,420.0" stroke="grey" stroke-width="5" fill="none" />
<circle cx="150.96000000000004" cy="364.0" r="5" fill="black" stroke="none" />
<circle cx="214.96000000000004" cy="420.0" r="5" fill="black" stroke="none" />
<path d="M126.96000000000004,420.0 L210.52796059046625,437.9215013061261" stroke="grey" stroke-width="5" />
<circle cx="210.52796059046625" cy="437.9215013061261" r="2.5" fill="grey" stroke="none" />
<path d="M210.52796059046625,437.9215013061261 A296.0537140452725,296.0537140452725,0,0,1,214.96000000000004,420.0" stroke="grey" stroke-width="5" fill="none" />
<circle cx="126.96000000000004" cy="420.0" r="5" fill="black" stroke="none" />
<circle cx="214.96000000000004" cy="420.0" r="5" fill="black" stroke="none" />
<path d="M214.96000000000004,420.0 L289.7436377365508,440.9889524941203" stroke="grey" stroke-width="5" />
<circle cx="289.7436377365508" cy="440.9889524941203" r="2.5" fill="grey" stroke="none" />
<path d="M289.7436377365508,440.9889524941203 A218.38049729772112,218.38049729772112,0,0,0,286.96000000000004,452.0" stroke="grey" stroke-width="5" fill="none" />
<circle cx="214.96000000000004" cy="420.0" r="5" fill="black" stroke="none" />
<circle cx="286.96000000000004" cy="452.0" r="5" fill="black" stroke="none" />
<path d="M286.96000000000004,452.0 L305.2602010186612,456.1232146493416" stroke="grey" stroke-width="5" />
<circle cx="305.2602010186612" cy="456.1232146493416" r="2.5" fill="grey" stroke="none" />
<path d="M305.2602010186612,456.1232146493416 A199.62154593129466,199.62154593129466,0,0,0,302.96000000000004,468.0000000000001" stroke="grey" stroke-width="5" fill="none" />
<circle cx="286.96000000000004" cy="452.0" r="5" fill="black" stroke="none" />
<circle cx="302.96000000000004" cy="468.0" r="5" fill="black" stroke="none" />
<path d="M302.96000000000004,468.0 L337.09433043268547,473.543537220087" stroke="grey" stroke-width="5" />
<circle cx="337.09433043268547" cy="473.543537220087" r="2.5" fill="grey" stroke="none" />
<path d="M337.09433043268547,473.54353722008705 A165.03999999999996,165.03999999999996,0,0,0,334.96000000000004,500.0" stroke="grey" stroke-width="5" fill="none" />
<circle cx="302.96000000000004" cy="468.0" r="5" fill="black" stroke="none" />
<circle cx="334.96000000000004" cy="500.0" r="5" fill="black" stroke="none" />
<path d="M302.96000000000004,468.0000000000001 A199.62154593129466,199.62154593129466,0,0,0,308.47504703182676,556.275696268807" stroke="grey" stroke-width="5" fill="none" />
<path d="M308.47504703182676,556.275696268807 L-245.03999999999996,72.0" stroke="grey" stroke-width="5" />
<circle cx="308.47504703182676" cy="556.275696268807" r="2.5" fill="grey" stroke="none" />
<circle cx="302.96000000000004" cy="468.0" r="5" fill="black" stroke="none" />
<circle cx="254.96000000000004" cy="572.0" r="5" fill="black" stroke="none" />
<path d="M254.96,572.0 A255.39890681050298,255.39890681050298,0,0,0,282.96561602845645,634.6279234560668" stroke="grey" stroke-width="5" fill="none" />
<path d="M282.96561602845645,634.6279234560668 L-245.03999999999996,152.0" stroke="grey" stroke-width="5" />
<circle cx="282.96561602845645" cy="634.6279234560668" r="2.5" fill="grey" stroke="none" />
<circle cx="254.96000000000004" cy="572.0" r="5" fill="black" stroke="none" />
<circle cx="254.96000000000004" cy="652.0" r="5" fill="black" stroke="none" />
<path d="M150.96000000000004,668.0 L240.1752925835425,625.0588781972406" stroke="grey" stroke-width="5" />
<circle cx="240.1752925835425" cy="625.0588781972406" r="2.5" fill="grey" stroke="none" />
<path d="M240.1752925835426,625.0588781972407 A288.35499232716603,288.35499232716603,0,0,0,254.96000000000004,652.0" stroke="grey" stroke-width="5" fill="none" />
<circle cx="150.96000000000004" cy="668.0" r="5" fill="black" stroke="none" />
<circle cx="254.96000000000004" cy="652.0" r="5" fill="black" stroke="none" />
<path d="M254.96000000000004,652.0 A288.35499232716603,288.35499232716603,0,0,0,306.99626416062813,714.2385575755353" stroke="grey" stroke-width="5" fill="none" />
<path d="M306.99626416062813,714.2385575755353 L-245.03999999999996,272.0" stroke="grey" stroke-width="5" />
<circle cx="306.99626416062813" cy="714.2385575755353" r="2.5" fill="grey" stroke="none" />
<circle cx="254.96000000000004" cy="652.0" r="5" fill="black" stroke="none" />
<circle cx="254.96000000000004" cy="772.0" r="5" fill="black" stroke="none" />
<path d="M254.96000000000004,572.0 L327.2415890413609,550.7615311337823" stroke="grey" stroke-width="5" />
<circle cx="327.2415890413609" cy="550.7615311337823" r="2.5" fill="grey" stroke="none" />
<path d="M327.2415890413609,550.7615311337823 A180.0616605499349,180.0616605499349,0,0,0,334.96000000000004,571.9999999999999" stroke="grey" stroke-width="5" fill="none" />
<circle cx="254.96000000000004" cy="572.0" r="5" fill="black" stroke="none" />
<circle cx="334.96000000000004" cy="572.0" r="5" fill="black" stroke="none" />
<path d="M334.96000000000004,500.0 A165.03999999999996,165.03999999999996,0,0,0,348.72847714049453,565.9933933948399" stroke="grey" stroke-width="5" fill="none" />
<path d="M348.72847714049453,565.99339339484 L-165.03999999999996,72.0" stroke="grey" stroke-width="5" />
<circle cx="348.72847714049453" cy="565.99339339484" r="2.5" fill="grey" stroke="none" />
<circle cx="334.96000000000004" cy="500.0" r="5" fill="black" stroke="none" />
<circle cx="334.96000000000004" cy="572.0" r="5" fill="black" stroke="none" />
<path d="M334.96000000000004,572.0 L392.1691726046844,547.0420478215143" stroke="grey" stroke-width="5" />
<circle cx="392.1691726046844" cy="547.0420478215143" r="2.5" fill="grey" stroke="none" />
<path d="M392.1691726046844,547.0420478215143 A117.64540620015723,117.64540620015723,0,0,0,406.96000000000004,572.0" stroke="grey" stroke-width="5" fill="none" />
<circle cx="334.96000000000004" cy="572.0" r="5" fill="black" stroke="none" />
<circle cx="406.96000000000004" cy="572.0" r="5" fill="black" stroke="none" />
<path d="M334.96000000000004,500.0 L374.96000000000004,500.0" stroke="grey" stroke-width="5" />
<circle cx="374.96000000000004" cy="500.0" r="2.5" fill="grey" stroke="none" />
<path d="M374.96000000000004,500.0 A125.03999999999996,125.03999999999996,0,0,1,374.96000000000004,500.0" stroke="grey" stroke-width="5" fill="none" />
<circle cx="334.96000000000004" cy="500.0" r="5" fill="black" stroke="none" />
<circle cx="374.96000000000004" cy="500.0" r="5" fill="black" stroke="none" />
<path d="M406.96000000000004,572.0 L474.38079852146683,519.8256933195871" stroke="grey" stroke-width="5" />
<circle cx="474.38079852146683" cy="519.8256933195871" r="2.5" fill="grey" stroke="none" />
<path d="M474.38079852146683,519.8256933195871 A32.39446866364688,32.39446866364688,0,0,0,494.96000000000004,532.0" stroke="grey" stroke-width="5" fill="none" />
<circle cx="406.96000000000004" cy="572.0" r="5" fill="black" stroke="none" />
<circle cx="494.96000000000004" cy="532.0" r="5" fill="black" stroke="none" />
<path d="M374.96000000000004,500.0 L518.96,500.0" stroke="grey" stroke-width="5" />
<circle cx="374.96000000000004" cy="500.0" r="5" fill="black" stroke="none" />
<circle cx="518.96" cy="500.0" r="5" fill="black" stroke="none" />
<path d="M494.96000000000004,532.0 L497.05016306974545,518.7291233666957" stroke="grey" stroke-width="5" />
<circle cx="497.05016306974545" cy="518.7291233666957" r="2.5" fill="grey" stroke="none" />
<path d="M497.05016306974545,518.7291233666957 A18.960000000000036,18.960000000000036,0,0,0,518.96,500.0" stroke="grey" stroke-width="5" fill="none" />
<circle cx="494.96000000000004" cy="532.0" r="5" fill="black" stroke="none" />
<circle cx="518.96" cy="500.0" r="5" fill="black" stroke="none" />
<path d="M254.96000000000004,652.0 L332.74322413301644,603.7505302472312" stroke="grey" stroke-width="5" />
<circle cx="332.74322413301644" cy="603.7505302472312" r="2.5" fill="grey" stroke="none" />
<path d="M332.74322413301644,603.7505302472312 A196.822258903814,196.822258903814,0,0,0,374.96000000000004,652.0" stroke="grey" stroke-width="5" fill="none" />
<circle cx="254.96000000000004" cy="652.0" r="5" fill="black" stroke="none" />
<circle cx="374.96000000000004" cy="652.0" r="5" fill="black" stroke="none" />
<path d="M374.96000000000004,652.0 L459.9244701667873,548.7162550755626" stroke="grey" stroke-width="5" />
<circle cx="459.9244701667873" cy="548.7162550755626" r="2.5" fill="grey" stroke="none" />
<path d="M459.9244701667873,548.7162550755626 A63.081864271754036,63.081864271754036,0,0,0,470.96000000000004,556.0" stroke="grey" stroke-width="5" fill="none" />
<circle cx="374.96000000000004" cy="652.0" r="5" fill="black" stroke="none" />
<circle cx="470.96000000000004" cy="556.0" r="5" fill="black" stroke="none" />
<path d="M470.96000000000004,556.0 L485.0870708903013,528.7577145366091" stroke="grey" stroke-width="5" />
<circle cx="485.0870708903013" cy="528.7577145366091" r="2.5" fill="grey" stroke="none" />
<path d="M485.0870708903013,528.7577145366091 A32.39446866364688,32.39446866364688,0,0,0,494.96000000000004,532.0" stroke="grey" stroke-width="5" fill="none" />
<circle cx="470.96000000000004" cy="556.0" r="5" fill="black" stroke="none" />
<circle cx="494.96000000000004" cy="532.0" r="5" fill="black" stroke="none" />
<path d="M494.96000000000004,532.0 A32.39446866364688,32.39446866364688,0,0,0,497.09623435259897,532.2640627489003" stroke="grey" stroke-width="5" fill="none" />
<path d="M497.09623435259897,532.2640627489003 L-5.039999999999964,56.0" stroke="grey" stroke-width="5" />
<circle cx="497.09623435259897" cy="532.2640627489003" r="2.5" fill="grey" stroke="none" />
<circle cx="494.96000000000004" cy="532.0" r="5" fill="black" stroke="none" />
<circle cx="494.96000000000004" cy="556.0" r="5" fill="black" stroke="none" />
<path d="M494.96000000000004,556.0 A56.2263425806801,56.2263425806801,0,0,0,498.77881930531964,556.2130795963976" stroke="grey" stroke-width="5" fill="none" />
<path d="M498.77881930531964,556.2130795963976 L-5.039999999999964,232.0" stroke="grey" stroke-width="5" />
<circle cx="498.77881930531964" cy="556.2130795963976" r="2.5" fill="grey" stroke="none" />
<circle cx="494.96000000000004" cy="556.0" r="5" fill="black" stroke="none" />
<circle cx="494.96000000000004" cy="732.0" r="5" fill="black" stroke="none" />
<path d="M494.96,732.0 A232.05473837006647,232.05473837006647,0,0,0,584.7038322409845,716.0431956894064" stroke="grey" stroke-width="5" fill="none" />
<path d="M584.7038322409845,716.0431956894064 L90.96000000000004,232.0" stroke="grey" stroke-width="5" />
<circle cx="584.7038322409845" cy="716.0431956894064" r="2.5" fill="grey" stroke="none" />
<circle cx="494.96000000000004" cy="732.0" r="5" fill="black" stroke="none" />
<circle cx="590.96" cy="732.0" r="5" fill="black" stroke="none" />
<path d="M494.96,732.0 A232.05473837006647,232.05473837006647,0,0,0,495.823691216569,732.0171546350516" stroke="grey" stroke-width="5" fill="none" />
<path d="M495.8236912165691,732.0171546350516 L-5.039999999999964,280.0" stroke="grey" stroke-width="5" />
<circle cx="495.8236912165691" cy="732.0171546350516" r="2.5" fill="grey" stroke="none" />
<circle cx="494.96000000000004" cy="732.0" r="5" fill="black" stroke="none" />
<circle cx="494.96000000000004" cy="780.0" r="5" fill="black" stroke="none" />
<path d="M182.96000000000004,356.0 L326.3598434963976,421.13240431327677" stroke="grey" stroke-width="5" />
<circle cx="326.3598434963976" cy="421.13240431327677" r="2.5" fill="grey" stroke="none" />
<path d="M326.3598434963976,421.13240431327677 A190.71182868401212,190.71182868401212,0,0,1,374.9600000000001,356.0" stroke="grey" stroke-width="5" fill="none" />
<circle cx="182.96000000000004" cy="356.0" r="5" fill="black" stroke="none" />
<circle cx="374.96000000000004" cy="356.0" r="5" fill="black" stroke="none" />
<path d="M374.96000000000004,356.0 L418.01766199879813,405.58655892375975" stroke="grey" stroke-width="5" />
<circle cx="418.01766199879813" cy="405.58655892375975" r="2.5" fill="grey" stroke="none" />
<path d="M418.01766199879813,405.58655892375975 A125.03999999999996,125.03999999999996,0,0,0,374.96000000000004,500.0" stroke="grey" stroke-width="5" fill="none" />
<circle cx="374.96000000000004" cy="356.0" r="5" fill="black" stroke="none" />
<circle cx="374.96000000000004" cy="500.0" r="5" fill="black" stroke="none" />
<path d="M374.9600000000001,356.0 A190.71182868401212,190.71182868401212,0,0,1,407.04401755626145,333.47616708735245" stroke="grey" stroke-width="5" fill="none" />
<path d="M407.0440175562614,333.47616708735245 L-125.03999999999996,-224.0" stroke="grey" stroke-width="5" />
<circle cx="407.0440175562614" cy="333.47616708735245" r="2.5" fill="grey" stroke="none" />
<circle cx="374.96000000000004" cy="356.0" r="5" fill="black" stroke="none" />
<circle cx="374.96000000000004" cy="276.0" r="5" fill="black" stroke="none" />
<path d="M374.9600000000001,275.99999999999994 A256.5365502223806,256.5365502223806,0,0,1,395.3947583375917,265.7592157271728" stroke="grey" stroke-width="5" fill="none" />
<path d="M395.3947583375918,265.7592157271728 L-125.03999999999996,-280.0" stroke="grey" stroke-width="5" />
<circle cx="395.3947583375918" cy="265.7592157271728" r="2.5" fill="grey" stroke="none" />
<circle cx="374.96000000000004" cy="276.0" r="5" fill="black" stroke="none" />
<circle cx="374.96000000000004" cy="220.0" r="5" fill="black" stroke="none" />
<path d="M374.96000000000004,276.0 L436.0252503058424,385.3939224928718" stroke="grey" stroke-width="5" />
<circle cx="436.0252503058424" cy="385.3939224928718" r="2.5" fill="grey" stroke="none" />
<path d="M436.0252503058424,385.39392249287175 A131.25289177766712,131.25289177766712,0,0,1,470.96,372.0" stroke="grey" stroke-width="5" fill="none" />
<circle cx="374.96000000000004" cy="276.0" r="5" fill="black" stroke="none" />
<circle cx="470.96000000000004" cy="372.0" r="5" fill="black" stroke="none" />
<path d="M374.96000000000004,356.0 L413.94418636154927,400.895416155335" stroke="grey" stroke-width="5" />
<circle cx="413.94418636154927" cy="400.895416155335" r="2.5" fill="grey" stroke="none" />
<path d="M413.94418636154927,400.895416155335 A131.25289177766712,131.25289177766712,0,0,1,470.96,372.0" stroke="grey" stroke-width="5" fill="none" />
<circle cx="374.96000000000004" cy="356.0" r="5" fill="black" stroke="none" />
<circle cx="470.96000000000004" cy="372.0" r="5" fill="black" stroke="none" />
<path d="M470.96000000000004,372.0 L486.9189910860351,442.34266043431444" stroke="grey" stroke-width="5" />
<circle cx="486.9189910860351" cy="442.34266043431444" r="2.5" fill="grey" stroke="none" />
<path d="M486.9189910860351,442.34266043431444 A59.12259804846199,59.12259804846199,0,0,1,518.96,444.0" stroke="grey" stroke-width="5" fill="none" />
<circle cx="470.96000000000004" cy="372.0" r="5" fill="black" stroke="none" />
<circle cx="518.96" cy="444.0" r="5" fill="black" stroke="none" />
<path d="M470.96000000000004,556.0 L474.1159680774674,549.9141111453797" stroke="grey" stroke-width="5" />
<circle cx="474.1159680774674" cy="549.9141111453797" r="2.5" fill="grey" stroke="none" />
<path d="M474.1159680774674,549.9141111453797 A56.2263425806801,56.2263425806801,0,0,0,494.96000000000004,556.0" stroke="grey" stroke-width="5" fill="none" />
<circle cx="470.96000000000004" cy="556.0" r="5" fill="black" stroke="none" />
<circle cx="494.96000000000004" cy="556.0" r="5" fill="black" stroke="none" />
<path d="M494.96000000000004,556.0 A56.2263425806801,56.2263425806801,0,0,0,518.0312011061467,553.2567121278595" stroke="grey" stroke-width="5" fill="none" />
<path d="M518.0312011061467,553.2567121278595 L18.960000000000036,56.0" stroke="grey" stroke-width="5" />
<circle cx="518.0312011061467" cy="553.2567121278595" r="2.5" fill="grey" stroke="none" />
<circle cx="494.96000000000004" cy="556.0" r="5" fill="black" stroke="none" />
<circle cx="518.96" cy="556.0" r="5" fill="black" stroke="none" />
<path d="M518.96,556.0 L506.0802740722818,517.9586154033639" stroke="grey" stroke-width="5" />
<circle cx="506.0802740722818" cy="517.9586154033639" r="2.5" fill="grey" stroke="none" />
<path d="M506.0802740722818,517.9586154033639 A18.960000000000036,18.960000000000036,0,0,0,518.96,500.0" stroke="grey" stroke-width="5" fill="none" />
<circle cx="518.96" cy="556.0" r="5" fill="black" stroke="none" />
<circle cx="518.96" cy="500.0" r="5" fill="black" stroke="none" />
<path d="M518.96,500.0 A18.960000000000036,18.960000000000036,0,0,0,514.4900248058831,487.77213096549957" stroke="grey" stroke-width="5" fill="none" />
<path d="M514.4900248058831,487.77213096549957 L18.960000000000036,-16.0" stroke="grey" stroke-width="5" />
<circle cx="514.4900248058831" cy="487.77213096549957" r="2.5" fill="grey" stroke="none" />
<circle cx="518.96" cy="500.0" r="5" fill="black" stroke="none" />
<circle cx="518.96" cy="484.0" r="5" fill="black" stroke="none" />
<path d="M518.96,484.0 A24.80890162824629,24.80890162824629,0,0,0,512.6461746780503,478.65624526911347" stroke="grey" stroke-width="5" fill="none" />
<path d="M512.6461746780503,478.65624526911347 L18.960000000000036,-32.0" stroke="grey" stroke-width="5" />
<circle cx="512.6461746780503" cy="478.65624526911347" r="2.5" fill="grey" stroke="none" />
<circle cx="518.96" cy="484.0" r="5" fill="black" stroke="none" />
<circle cx="518.96" cy="468.0" r="5" fill="black" stroke="none" />
<path d="M518.96,468.0 A37.19518248375724,37.19518248375724,0,0,0,511.9281067336381,464.76930500613224" stroke="grey" stroke-width="5" fill="none" />
<path d="M511.9281067336381,464.76930500613224 L18.960000000000036,-56.0" stroke="grey" stroke-width="5" />
<circle cx="511.9281067336381" cy="464.76930500613224" r="2.5" fill="grey" stroke="none" />
<circle cx="518.96" cy="468.0" r="5" fill="black" stroke="none" />
<circle cx="518.96" cy="444.0" r="5" fill="black" stroke="none" />
<path d="M518.96,444.0 A59.12259804846199,59.12259804846199,0,0,1,545.3525471047044,462.07074913585063" stroke="grey" stroke-width="5" fill="none" />
<path d="M545.3525471047044,462.07074913585063 L66.96000000000004,-56.0" stroke="grey" stroke-width="5" />
<circle cx="545.3525471047044" cy="462.07074913585063" r="2.5" fill="grey" stroke="none" />
<circle cx="518.96" cy="444.0" r="5" fill="black" stroke="none" />
<circle cx="566.96" cy="444.0" r="5" fill="black" stroke="none" />
<path d="M566.96,444.0 L552.8105784175518,455.83344696262094" stroke="grey" stroke-width="5" />
<circle cx="552.8105784175518" cy="455.83344696262094" r="2.5" fill="grey" stroke="none" />
<path d="M552.8105784175518,455.83344696262094 A68.84505501486657,68.84505501486657,0,0,1,566.96,484.0" stroke="grey" stroke-width="5" fill="none" />
<circle cx="566.96" cy="444.0" r="5" fill="black" stroke="none" />
<circle cx="566.96" cy="484.0" r="5" fill="black" stroke="none" />
<path d="M566.96,484.0 L524.1296060068315,494.2342637976508" stroke="grey" stroke-width="5" />
<circle cx="524.1296060068315" cy="494.2342637976508" r="2.5" fill="grey" stroke="none" />
<path d="M524.1296060068315,494.2342637976508 A24.80890162824629,24.80890162824629,0,0,0,518.96,484.0" stroke="grey" stroke-width="5" fill="none" />
<circle cx="566.96" cy="484.0" r="5" fill="black" stroke="none" />
<circle cx="518.96" cy="484.0" r="5" fill="black" stroke="none" />
<path d="M518.96,468.0 A37.19518248375724,37.19518248375724,0,0,1,535.3908772176122,488.55590065719895" stroke="grey" stroke-width="5" fill="none" />
<path d="M535.3908772176122,488.55590065719895 L98.96000000000004,-32.0" stroke="grey" stroke-width="5" />
<circle cx="535.3908772176122" cy="488.55590065719895" r="2.5" fill="grey" stroke="none" />
<circle cx="518.96" cy="468.0" r="5" fill="black" stroke="none" />
<circle cx="598.96" cy="468.0" r="5" fill="black" stroke="none" />
<circle cx="500" cy="500" r="5" fill="red" stroke="none" />
</svg>