<?xml version="1.0" encoding="UTF-8"?>
<svg xmlns="http://www.w3.org/2000/svg" xmlns:xlink="http://www.w3.org/1999/xlink"
     width="1000" height="1000" viewBox="0 0 1000 1000">
<defs>
</defs>
<rect x="0" y="0" width="1000" height="1000" fill="white" />
<path d="M187.47999999999996,268.0 L226.33511673296488,296.84419263422456" stroke="grey" stroke-width="5" />
<circle cx="226.33511673296488" cy="296.84419263422456" r="2.5" fill="grey" stroke="none" />
<path d="M226.335116732965,296.8441926342244 A340.8295034177646,340.8295034177646,0,0,0,187.48000000000002,363.99999999999994" stroke="grey" stroke-width="5" fill="none" />
<circle cx="187.47999999999996" cy="268.0" r="5" fill="black" stroke="none" />
<circle cx="187.47999999999996" cy="364.0" r="5" fill="black" stroke="none" />
<path d="M187.47999999999996,364.0 L260.606473215803,395.8226044968296" stroke="grey" stroke-width="5" />
<circle cx="260.606473215803" cy="395.8226044968296" r="2.5" fill="grey" stroke="none" />
<path d="M260.606473215803,395.8226044968296 A261.0788968875118,261.0788968875118,0,0,0,251.48,419.99999999999994" stroke="grey" stroke-width="5" fill="none" />
<circle cx="187.47999999999996" cy="364.0" r="5" fill="black" stroke="none" />
<circle cx="251.47999999999996" cy="420.0" r="5" fill="black" stroke="none" />
<path d="M163.47999999999996,420.0 L245.9997857503834,439.6172080709339" stroke="grey" stroke-width="5" />
<circle cx="245.9997857503834" cy="439.6172080709339" r="2.5" fill="grey" stroke="none" />
<path d="M245.9997857503834,439.6172080709339 A261.0788968875118,261.0788968875118,0,0,1,251.48,419.99999999999994" stroke="grey" stroke-width="5" fill="none" />
<circle cx="163.47999999999996" cy="420.0" r="5" fill="black" stroke="none" />
<circle cx="251.47999999999996" cy="420.0" r="5" fill="black" stroke="none" />
<path d="M251.47999999999996,420.0 L325.8698288683187,443.946508568588" stroke="grey" stroke-width="5" />
<circle cx="325.8698288683187" cy="443.946508568588" r="2.5" fill="grey" stroke="none" />
<path d="M325.8698288683187,443.946508568588 A182.92979637008295,182.92979637008295,0,0,0,323.48,451.99999999999994" stroke="grey" stroke-width="5" fill="none" />
<circle cx="251.47999999999996" cy="420.0" r="5" fill="black" stroke="none" />
<circle cx="323.47999999999996" cy="452.0" r="5" fill="black" stroke="none" />
<path d="M323.47999999999996,452.0 L342.0566815302718,457.05144297220176" stroke="grey" stroke-width="5" />
<circle cx="342.0566815302718" cy="457.05144297220176" r="2.5" fill="grey" stroke="none" />
<path d="M342.0566815302719,457.0514429722017 A163.67855815591733,163.67855815591733,0,0,0,339.48,467.99999999999994" stroke="grey" stroke-width="5" fill="none" />
<circle cx="323.47999999999996" cy="452.0" r="5" fill="black" stroke="none" />
<circle cx="339.47999999999996" cy="468.0" r="5" fill="black" stroke="none" />
<path d="M339.47999999999996,468.0 L373.9600920705313,474.8736789574944" stroke="grey" stroke-width="5" />
<circle cx="373.9600920705313" cy="474.8736789574944" r="2.5" fill="grey" stroke="none" />
<path d="M373.9600920705313,474.87367895749435 A128.52000000000004,128.52000000000004,0,0,0,371.47999999999996,500.0" stroke="grey" stroke-width="5" fill="none" />
<circle cx="339.47999999999996" cy="468.0" r="5" fill="black" stroke="none" />
<circle cx="371.47999999999996" cy="500.0" r="5" fill="black" stroke="none" />
<path d="M339.48,467.99999999999994 A163.67855815591733,163.67855815591733,0,0,0,345.2848043852549,553.4217057560984" stroke="grey" stroke-width="5" fill="none" />
<path d="M345.2848043852549,553.4217057560984 L-208.52000000000004,72.0" stroke="grey" stroke-width="5" />
<circle cx="345.2848043852549" cy="553.4217057560984" r="2.5" fill="grey" stroke="none" />
<circle cx="339.47999999999996" cy="468.0" r="5" fill="black" stroke="none" />
<circle cx="291.47999999999996" cy="572.0" r="5" fill="black" stroke="none" />
<path d="M291.47999999999996,572.0 A220.60052221153063,220.60052221153063,0,0,0,321.7344652876571,629.9461024183584" stroke="grey" stroke-width="5" fill="none" />
<path d="M321.73446528765714,629.9461024183585 L-208.52000000000004,152.0" stroke="grey" stroke-width="5" />
<circle cx="321.73446528765714" cy="629.9461024183585" r="2.5" fill="grey" stroke="none" />
<circle cx="291.47999999999996" cy="572.0" r="5" fill="black" stroke="none" />
<circle cx="291.47999999999996" cy="652.0" r="5" fill="black" stroke="none" />
<path d="M187.47999999999996,668.0 L272.71837751268896,622.1787808072067" stroke="grey" stroke-width="5" />
<circle cx="272.71837751268896" cy="622.1787808072067" r="2.5" fill="grey" stroke="none" />
<path d="M272.71837751268896,622.1787808072067 A258.0399007905561,258.0399007905561,0,0,0,291.47999999999985,651.9999999999999" stroke="grey" stroke-width="5" fill="none" />
<circle cx="187.47999999999996" cy="668.0" r="5" fill="black" stroke="none" />
<circle cx="291.47999999999996" cy="652.0" r="5" fill="black" stroke="none" />
<path d="M291.47999999999985,651.9999999999999 A258.0399007905561,258.0399007905561,0,0,0,343.0067073179569,704.7869538150572" stroke="grey" stroke-width="5" fill="none" />
<path d="M343.0067073179569,704.7869538150572 L-208.52000000000004,272.0" stroke="grey" stroke-width="5" />
<circle cx="343.0067073179569" cy="704.7869538150572" r="2.5" fill="grey" stroke="none" />
<circle cx="291.47999999999996" cy="652.0" r="5" fill="black" stroke="none" />
<circle cx="291.47999999999996" cy="772.0" r="5" fill="black" stroke="none" />
<path d="M291.47999999999996,572.0 L360.75328450009306,548.080584672901" stroke="grey" stroke-width="5" />
<circle cx="360.75328450009306" cy="548.080584672901" r="2.5" fill="grey" stroke="none" />
<path d="M360.75328450009306,548.080584672901 A147.31391787607853,147.31391787607853,0,0,0,371.47999999999996,572.0" stroke="grey" stroke-width="5" fill="none" />
<circle cx="291.47999999999996" cy="572.0" r="5" fill="black" stroke="none" />
<circle cx="371.47999999999996" cy="572.0" r="5" fill="black" stroke="none" />
<path d="M371.47999999999996,500.0 A128.52000000000004,128.52000000000004,0,0,0,387.87623981398315,562.8144314767601" stroke="grey" stroke-width="5" fill="none" />
<path d="M387.87623981398315,562.8144314767601 L-128.52000000000004,72.0" stroke="grey" stroke-width="5" />
<circle cx="387.87623981398315" cy="562.8144314767601" r="2.5" fill="grey" stroke="none" />
<circle cx="371.47999999999996" cy="500.0" r="5" fill="black" stroke="none" />
<circle cx="371.47999999999996" cy="572.0" r="5" fill="black" stroke="none" />
<path d="M371.47999999999996,572.0 L420.14348680598357,544.7375424056114" stroke="grey" stroke-width="5" />
<circle cx="420.14348680598357" cy="544.7375424056114" r="2.5" fill="grey" stroke="none" />
<path d="M420.14348680598357,544.7375424056114 A91.53420344330311,91.53420344330311,0,0,0,443.47999999999996,572.0" stroke="grey" stroke-width="5" fill="none" />
<circle cx="371.47999999999996" cy="572.0" r="5" fill="black" stroke="none" />
<circle cx="443.47999999999996" cy="572.0" r="5" fill="black" stroke="none" />
<path d="M371.47999999999996,500.0 L411.47999999999996,500.0" stroke="grey" stroke-width="5" />
<circle cx="411.47999999999996" cy="500.0" r="2.5" fill="grey" stroke="none" />
<path d="M411.47999999999996,500.0 A88.52000000000004,88.52000000000004,0,0,1,411.47999999999996,500.0" stroke="grey" stroke-width="5" fill="none" />
<circle cx="371.47999999999996" cy="500.0" r="5" fill="black" stroke="none" />
<circle cx="411.47999999999996" cy="500.0" r="5" fill="black" stroke="none" />
<path d="M443.47999999999996,572.0 L472.282424618095,535.3090132253567" stroke="grey" stroke-width="5" />
<circle cx="472.282424618095" cy="535.3090132253567" r="2.5" fill="grey" stroke="none" />
<path d="M472.28242461809504,535.3090132253567 A44.888644443778844,44.888644443778844,0,0,0,531.48,532.0" stroke="grey" stroke-width="5" fill="none" />
<circle cx="443.47999999999996" cy="572.0" r="5" fill="black" stroke="none" />
<circle cx="531.48" cy="532.0" r="5" fill="black" stroke="none" />
<path d="M411.47999999999996,500.0 L555.48,500.0" stroke="grey" stroke-width="5" />
<circle cx="411.47999999999996" cy="500.0" r="5" fill="black" stroke="none" />
<circle cx="555.48" cy="500.0" r="5" fill="black" stroke="none" />
<path d="M531.48,532.0 A44.888644443778844,44.888644443778844,0,0,0,544.8886444437788,500.0" stroke="grey" stroke-width="5" fill="none" />
<path d="M544.8886444437788,500.0 L55.47999999999996,0.0" stroke="grey" stroke-width="5" />
<circle cx="544.8886444437788" cy="500.0" r="2.5" fill="grey" stroke="none" />
<circle cx="531.48" cy="532.0" r="5" fill="black" stroke="none" />
<circle cx="555.48" cy="500.0" r="5" fill="black" stroke="none" />
<path d="M291.47999999999996,652.0 L357.8589452943554,603.6132760179262" stroke="grey" stroke-width="5" />
<circle cx="357.8589452943554" cy="603.6132760179262" r="2.5" fill="grey" stroke="none" />
<path d="M357.85894529435535,603.6132760179262 A175.89710173848803,175.89710173848803,0,0,0,411.4799999999999,652.0" stroke="grey" stroke-width="5" fill="none" />
<circle cx="291.47999999999996" cy="652.0" r="5" fill="black" stroke="none" />
<circle cx="411.47999999999996" cy="652.0" r="5" fill="black" stroke="none" />
<path d="M411.47999999999996,652.0 L471.5677788345597,548.8217082822742" stroke="grey" stroke-width="5" />
<circle cx="471.5677788345597" cy="548.8217082822742" r="2.5" fill="grey" stroke="none" />
<path d="M471.5677788345597,548.8217082822742 A56.497348610355154,56.497348610355154,0,0,0,507.47999999999996,556.0" stroke="grey" stroke-width="5" fill="none" />
<circle cx="411.47999999999996" cy="652.0" r="5" fill="black" stroke="none" />
<circle cx="507.47999999999996" cy="556.0" r="5" fill="black" stroke="none" />
<path d="M507.47999999999996,556.0 L505.9430587221915,544.4934877597226" stroke="grey" stroke-width="5" />
<circle cx="505.9430587221915" cy="544.4934877597226" r="2.5" fill="grey" stroke="none" />
<path d="M505.9430587221915,544.4934877597226 A44.888644443778844,44.888644443778844,0,0,0,531.48,532.0" stroke="grey" stroke-width="5" fill="none" />
<circle cx="507.47999999999996" cy="556.0" r="5" fill="black" stroke="none" />
<circle cx="531.48" cy="532.0" r="5" fill="black" stroke="none" />
<path d="M531.48,532.0 A44.888644443778844,44.888644443778844,0,0,1,521.9965456868772,539.1298144366303" stroke="grey" stroke-width="5" fill="none" />
<path d="M521.9965456868772,539.1298144366303 L31.47999999999996,56.0" stroke="grey" stroke-width="5" />
<circle cx="521.9965456868772" cy="539.1298144366303" r="2.5" fill="grey" stroke="none" />
<circle cx="531.48" cy="532.0" r="5" fill="black" stroke="none" />
<circle cx="531.48" cy="556.0" r="5" fill="black" stroke="none" />
<path d="M531.48,556.0 A64.24165626756519,64.24165626756519,0,0,1,508.63777290414447,563.6583009454102" stroke="grey" stroke-width="5" fill="none" />
<path d="M508.63777290414447,563.6583009454102 L31.47999999999996,232.0" stroke="grey" stroke-width="5" />
<circle cx="508.63777290414447" cy="563.6583009454102" r="2.5" fill="grey" stroke="none" />
<circle cx="531.48" cy="556.0" r="5" fill="black" stroke="none" />
<circle cx="531.48" cy="732.0" r="5" fill="black" stroke="none" />
<path d="M531.4799999999999,732.0 A234.12601393266831,234.12601393266831,0,0,0,612.7482232433636,705.1897379389736" stroke="grey" stroke-width="5" fill="none" />
<path d="M612.7482232433636,705.1897379389736 L127.47999999999996,232.0" stroke="grey" stroke-width="5" />
<circle cx="612.7482232433636" cy="705.1897379389736" r="2.5" fill="grey" stroke="none" />
<circle cx="531.48" cy="732.0" r="5" fill="black" stroke="none" />
<circle cx="627.48" cy="732.0" r="5" fill="black" stroke="none" />
<path d="M531.4799999999999,732.0 A234.12601393266831,234.12601393266831,0,0,1,526.1576536464961,732.6601976181357" stroke="grey" stroke-width="5" fill="none" />
<path d="M526.1576536464961,732.6601976181357 L31.47999999999996,280.0" stroke="grey" stroke-width="5" />
<circle cx="526.1576536464961" cy="732.6601976181357" r="2.5" fill="grey" stroke="none" />
<circle cx="531.48" cy="732.0" r="5" fill="black" stroke="none" />
<circle cx="531.48" cy="780.0" r="5" fill="black" stroke="none" />
<path d="M219.47999999999996,356.0 L349.62371109232936,422.8069813107637" stroke="grey" stroke-width="5" />
<circle cx="349.62371109232936" cy="422.8069813107637" r="2.5" fill="grey" stroke="none" />
<path d="M349.62371109232936,422.8069813107637 A169.03192124566297,169.03192124566297,0,0,1,411.47999999999996,356.0" stroke="grey" stroke-width="5" fill="none" />
<circle cx="219.47999999999996" cy="356.0" r="5" fill="black" stroke="none" />
<circle cx="411.47999999999996" cy="356.0" r="5" fill="black" stroke="none" />
<path d="M411.47999999999996,356.0 L453.64313236071047,424.58891843585985" stroke="grey" stroke-width="5" />
<circle cx="453.64313236071047" cy="424.58891843585985" r="2.5" fill="grey" stroke="none" />
<path d="M453.64313236071047,424.58891843585985 A88.52000000000004,88.52000000000004,0,0,0,411.47999999999996,500.0" stroke="grey" stroke-width="5" fill="none" />
<circle cx="411.47999999999996" cy="356.0" r="5" fill="black" stroke="none" />
<circle cx="411.47999999999996" cy="500.0" r="5" fill="black" stroke="none" />
<path d="M411.47999999999996,356.0 A169.03192124566297,169.03192124566297,0,0,1,437.8770603321796,342.79780291920736" stroke="grey" stroke-width="5" fill="none" />
<path d="M437.8770603321796,342.7978029192074 L-88.52000000000004,-224.0" stroke="grey" stroke-width="5" />
<circle cx="437.8770603321796" cy="342.7978029192074" r="2.5" fill="grey" stroke="none" />
<circle cx="411.47999999999996" cy="356.0" r="5" fill="black" stroke="none" />
<circle cx="411.47999999999996" cy="276.0" r="5" fill="black" stroke="none" />
<path d="M411.48,276.0 A240.85636881760053,240.85636881760053,0,0,1,427.3967995037751,270.3468578971649" stroke="grey" stroke-width="5" fill="none" />
<path d="M427.3967995037751,270.3468578971649 L-88.52000000000004,-280.0" stroke="grey" stroke-width="5" />
<circle cx="427.3967995037751" cy="270.3468578971649" r="2.5" fill="grey" stroke="none" />
<circle cx="411.47999999999996" cy="276.0" r="5" fill="black" stroke="none" />
<circle cx="411.47999999999996" cy="220.0" r="5" fill="black" stroke="none" />
<path d="M411.47999999999996,276.0 L452.87693588409303,380.7550117265798" stroke="grey" stroke-width="5" />
<circle cx="452.87693588409303" cy="380.7550117265798" r="2.5" fill="grey" stroke="none" />
<path d="M452.87693588409303,380.75501172657977 A128.2183699787203,128.2183699787203,0,0,1,507.47999999999996,372.0" stroke="grey" stroke-width="5" fill="none" />
<circle cx="411.47999999999996" cy="276.0" r="5" fill="black" stroke="none" />
<circle cx="507.47999999999996" cy="372.0" r="5" fill="black" stroke="none" />
<path d="M411.47999999999996,356.0 L432.8535697466224,390.7694763162407" stroke="grey" stroke-width="5" />
<circle cx="432.8535697466224" cy="390.7694763162407" r="2.5" fill="grey" stroke="none" />
<path d="M432.8535697466224,390.7694763162407 A128.2183699787203,128.2183699787203,0,0,1,507.47999999999996,372.0" stroke="grey" stroke-width="5" fill="none" />
<circle cx="411.47999999999996" cy="356.0" r="5" fill="black" stroke="none" />
<circle cx="507.47999999999996" cy="372.0" r="5" fill="black" stroke="none" />
<path d="M507.47999999999996,372.0 L504.5987312823094,421.30513313695036" stroke="grey" stroke-width="5" />
<circle cx="504.5987312823094" cy="421.30513313695036" r="2.5" fill="grey" stroke="none" />
<path d="M504.5987312823094,421.30513313695036 A78.82912152244243,78.82912152244243,0,0,1,555.48,444.0" stroke="grey" stroke-width="5" fill="none" />
<circle cx="507.47999999999996" cy="372.0" r="5" fill="black" stroke="none" />
<circle cx="555.48" cy="444.0" r="5" fill="black" stroke="none" />
<path d="M507.47999999999996,556.0 A56.497348610355154,56.497348610355154,0,0,0,527.6850977634575,549.2492209261" stroke="grey" stroke-width="5" fill="none" />
<path d="M527.6850977634575,549.2492209261 L31.47999999999996,56.0" stroke="grey" stroke-width="5" />
<circle cx="527.6850977634575" cy="549.2492209261" r="2.5" fill="grey" stroke="none" />
<circle cx="507.47999999999996" cy="556.0" r="5" fill="black" stroke="none" />
<circle cx="531.48" cy="556.0" r="5" fill="black" stroke="none" />
<path d="M531.48,556.0 A64.24165626756519,64.24165626756519,0,0,0,545.2133300598791,545.6371031606567" stroke="grey" stroke-width="5" fill="none" />
<path d="M545.2133300598791,545.6371031606567 L55.47999999999996,56.0" stroke="grey" stroke-width="5" />
<circle cx="545.2133300598791" cy="545.6371031606567" r="2.5" fill="grey" stroke="none" />
<circle cx="531.48" cy="556.0" r="5" fill="black" stroke="none" />
<circle cx="555.48" cy="556.0" r="5" fill="black" stroke="none" />
<path d="M555.48,556.0 L539.0468692350414,539.412845659018" stroke="grey" stroke-width="5" />
<circle cx="539.0468692350414" cy="539.412845659018" r="2.5" fill="grey" stroke="none" />
<path d="M539.0468692350414,539.412845659018 A55.47999999999996,55.47999999999996,0,0,0,555.48,500.0" stroke="grey" stroke-width="5" fill="none" />
<circle cx="555.48" cy="556.0" r="5" fill="black" stroke="none" />
<circle cx="555.48" cy="500.0" r="5" fill="black" stroke="none" />
<path d="M555.48,500.0 A55.47999999999996,55.47999999999996,0,0,0,553.3074768620041,484.62653875645157" stroke="grey" stroke-width="5" fill="none" />
<path d="M553.3074768620041,484.62653875645157 L55.47999999999996,-16.0" stroke="grey" stroke-width="5" />
<circle cx="553.3074768620041" cy="484.62653875645157" r="2.5" fill="grey" stroke="none" />
<circle cx="555.48" cy="500.0" r="5" fill="black" stroke="none" />
<circle cx="555.48" cy="484.0" r="5" fill="black" stroke="none" />
<path d="M555.48,484.0 A57.74106337780761,57.74106337780761,0,0,0,550.0174783506812,471.15069741849675" stroke="grey" stroke-width="5" fill="none" />
<path d="M550.0174783506812,471.15069741849675 L55.47999999999996,-32.0" stroke="grey" stroke-width="5" />
<circle cx="550.0174783506812" cy="471.15069741849675" r="2.5" fill="grey" stroke="none" />
<circle cx="555.48" cy="484.0" r="5" fill="black" stroke="none" />
<circle cx="555.48" cy="468.0" r="5" fill="black" stroke="none" />
<path d="M555.48,468.0 A64.0470951722246,64.0470951722246,0,0,0,545.0763978023451,454.5011125282746" stroke="grey" stroke-width="5" fill="none" />
<path d="M545.0763978023451,454.5011125282746 L55.47999999999996,-56.0" stroke="grey" stroke-width="5" />
<circle cx="545.0763978023451" cy="454.5011125282746" r="2.5" fill="grey" stroke="none" />
<circle cx="555.48" cy="468.0" r="5" fill="black" stroke="none" />
<circle cx="555.48" cy="444.0" r="5" fill="black" stroke="none" />
<path d="M555.48,444.0 A78.82912152244243,78.82912152244243,0,0,1,569.3283046092959,462.48178335793807" stroke="grey" stroke-width="5" fill="none" />
<path d="M569.3283046092959,462.48178335793807 L103.47999999999996,-56.0" stroke="grey" stroke-width="5" />
<circle cx="569.3283046092959" cy="462.48178335793807" r="2.5" fill="grey" stroke="none" />
<circle cx="555.48" cy="444.0" r="5" fill="black" stroke="none" />
<circle cx="603.48" cy="444.0" r="5" fill="black" stroke="none" />
<path d="M603.48,444.0 L592.0896013691113,450.1641121311342" stroke="grey" stroke-width="5" />
<circle cx="592.0896013691113" cy="450.1641121311342" r="2.5" fill="grey" stroke="none" />
<path d="M592.0896013691113,450.1641121311342 A104.70964807504603,104.70964807504603,0,0,1,603.48,484.0" stroke="grey" stroke-width="5" fill="none" />
<circle cx="603.48" cy="444.0" r="5" fill="black" stroke="none" />
<circle cx="603.48" cy="484.0" r="5" fill="black" stroke="none" />
<path d="M603.48,484.0 L557.0629865363809,491.1769638134703" stroke="grey" stroke-width="5" />
<circle cx="557.0629865363809" cy="491.1769638134703" r="2.5" fill="grey" stroke="none" />
<path d="M557.0629865363809,491.1769638134703 A57.74106337780761,57.74106337780761,0,0,0,555.48,484.0" stroke="grey" stroke-width="5" fill="none" />
<circle cx="603.48" cy="484.0" r="5" fill="black" stroke="none" />
<circle cx="555.48" cy="484.0" r="5" fill="black" stroke="none" />
<path d="M555.48,468.0 A64.0470951722246,64.0470951722246,0,0,1,562.3319687595182,485.27736196999865" stroke="grey" stroke-width="5" fill="none" />
<path d="M562.3319687595182,485.27736196999865 L135.47999999999996,-32.0" stroke="grey" stroke-width="5" />
<circle cx="562.3319687595182" cy="485.27736196999865" r="2.5" fill="grey" stroke="none" />
<circle cx="555.48" cy="468.0" r="5" fill="black" stroke="none" />
<circle cx="635.48" cy="468.0" r="5" fill="black" stroke="none" />
<circle cx="500" cy="500" r="5" fill="red" stroke="none" />
</svg>