<?xml version="1.0" encoding="UTF-8"?>
<svg xmlns="http://www.w3.org/2000/svg" xmlns:xlink="http://www.w3.org/1999/xlink"
     width="1000" height="1000" viewBox="0 0 1000 1000">
<defs>
</defs>
<rect x="0" y="0" width="1000" height="1000" fill="white" />
<path d="M276.0,531.4000000000001 A226.19009704228876,226.19009704228876,0,0,0,303.3855378756467,611.8244753332259" stroke="grey" stroke-width="5" fill="none" />
<path d="M303.3855378756467,611.8244753332259 L276.0,627.4" stroke="grey" stroke-width="5" />
<circle cx="303.3855378756467" cy="611.8244753332259" r="2.5" fill="grey" stroke="none" />
<circle cx="276.0" cy="531.4" r="5" fill="black" stroke="none" />
<circle cx="276.0" cy="627.4" r="5" fill="black" stroke="none" />
<path d="M276.0,627.4 L288.4402126158489,620.324629074736" stroke="grey" stroke-width="5" />
<circle cx="288.4402126158489" cy="620.324629074736" r="2.5" fill="grey" stroke="none" />
<path d="M288.4402126158489,620.324629074736 A243.38356559143432,243.38356559143432,0,0,0,340.0000000000001,683.4000000000001" stroke="grey" stroke-width="5" fill="none" />
<circle cx="276.0" cy="627.4" r="5" fill="black" stroke="none" />
<circle cx="340.0" cy="683.4" r="5" fill="black" stroke="none" />
<path d="M252.0,683.4 L304.31282629307765,644.7138212010062" stroke="grey" stroke-width="5" />
<circle cx="304.31282629307765" cy="644.7138212010062" r="2.5" fill="grey" stroke="none" />
<path d="M304.31282629307765,644.7138212010062 A243.38356559143432,243.38356559143432,0,0,0,340.0000000000001,683.4000000000001" stroke="grey" stroke-width="5" fill="none" />
<circle cx="252.0" cy="683.4" r="5" fill="black" stroke="none" />
<circle cx="340.0" cy="683.4" r="5" fill="black" stroke="none" />
<path d="M340.0,683.4 L347.0348448155436,675.3363091301832" stroke="grey" stroke-width="5" />
<circle cx="347.0348448155436" cy="675.3363091301832" r="2.5" fill="grey" stroke="none" />
<path d="M347.03484481554364,675.3363091301833 A232.6825305002505,232.6825305002505,0,0,0,412.0,715.4" stroke="grey" stroke-width="5" fill="none" />
<circle cx="340.0" cy="683.4" r="5" fill="black" stroke="none" />
<circle cx="412.0" cy="715.4" r="5" fill="black" stroke="none" />
<path d="M412.0,715.4 A232.6825305002505,232.6825305002505,0,0,0,430.8700214456477,722.17606996496" stroke="grey" stroke-width="5" fill="none" />
<path d="M430.87002144564775,722.17606996496 L428.0,731.4" stroke="grey" stroke-width="5" />
<circle cx="430.87002144564775" cy="722.17606996496" r="2.5" fill="grey" stroke="none" />
<circle cx="412.0" cy="715.4" r="5" fill="black" stroke="none" />
<circle cx="428.0" cy="731.4" r="5" fill="black" stroke="none" />
<path d="M428.0,731.4 A242.34264998138482,242.34264998138482,0,0,0,463.6149318724587,739.5956736198593" stroke="grey" stroke-width="5" fill="none" />
<path d="M463.6149318724587,739.5956736198593 L460.0,763.4" stroke="grey" stroke-width="5" />
<circle cx="463.6149318724587" cy="739.5956736198593" r="2.5" fill="grey" stroke="none" />
<circle cx="428.0" cy="731.4" r="5" fill="black" stroke="none" />
<circle cx="460.0" cy="763.4" r="5" fill="black" stroke="none" />
<path d="M428.0,731.4 A242.34264998138482,242.34264998138482,0,0,1,418.36206850387833,728.17801853166" stroke="grey" stroke-width="5" fill="none" />
<path d="M418.3620685038784,728.17801853166 L380.0,835.4" stroke="grey" stroke-width="5" />
<circle cx="418.3620685038784" cy="728.17801853166" r="2.5" fill="grey" stroke="none" />
<circle cx="428.0" cy="731.4" r="5" fill="black" stroke="none" />
<circle cx="380.0" cy="835.4" r="5" fill="black" stroke="none" />
<path d="M379.99999999999994,835.3999999999999 A356.22066194986496,356.22066194986496,0,0,0,401.1380206712682,842.2272184429598" stroke="grey" stroke-width="5" fill="none" />
<path d="M401.1380206712682,842.2272184429598 L380.0,915.4" stroke="grey" stroke-width="5" />
<circle cx="401.1380206712682" cy="842.2272184429598" r="2.5" fill="grey" stroke="none" />
<circle cx="380.0" cy="835.4" r="5" fill="black" stroke="none" />
<circle cx="380.0" cy="915.4" r="5" fill="black" stroke="none" />
<path d="M276.0,931.4 L300.7474963659755,883.7389735165989" stroke="grey" stroke-width="5" />
<circle cx="300.7474963659755" cy="883.7389735165989" r="2.5" fill="grey" stroke="none" />
<path d="M300.7474963659755,883.7389735165989 A432.385429911786,432.385429911786,0,0,0,380.0,915.4" stroke="grey" stroke-width="5" fill="none" />
<circle cx="276.0" cy="931.4" r="5" fill="black" stroke="none" />
<circle cx="380.0" cy="915.4" r="5" fill="black" stroke="none" />
<path d="M380.0,915.4 A432.385429911786,432.385429911786,0,0,0,405.4349400773177,921.9177756883673" stroke="grey" stroke-width="5" fill="none" />
<path d="M405.4349400773177,921.9177756883673 L380.0,1035.4" stroke="grey" stroke-width="5" />
<circle cx="405.4349400773177" cy="921.9177756883673" r="2.5" fill="grey" stroke="none" />
<circle cx="380.0" cy="915.4" r="5" fill="black" stroke="none" />
<circle cx="380.0" cy="1035.4" r="5" fill="black" stroke="none" />
<path d="M380.0,835.4 L386.2131842591072,818.0341499957954" stroke="grey" stroke-width="5" />
<circle cx="386.2131842591072" cy="818.0341499957954" r="2.5" fill="grey" stroke="none" />
<path d="M386.21318425910715,818.0341499957954 A337.77679020323467,337.77679020323467,0,0,0,459.99999999999994,835.4" stroke="grey" stroke-width="5" fill="none" />
<circle cx="380.0" cy="835.4" r="5" fill="black" stroke="none" />
<circle cx="460.0" cy="835.4" r="5" fill="black" stroke="none" />
<path d="M460.0,763.3999999999999 A266.4198941520696,266.4198941520696,0,0,0,468.450183449044,764.5452117797655" stroke="grey" stroke-width="5" fill="none" />
<path d="M468.45018344904406,764.5452117797656 L460.0,835.4" stroke="grey" stroke-width="5" />
<circle cx="468.45018344904406" cy="764.5452117797656" r="2.5" fill="grey" stroke="none" />
<circle cx="460.0" cy="763.4" r="5" fill="black" stroke="none" />
<circle cx="460.0" cy="835.4" r="5" fill="black" stroke="none" />
<path d="M460.0,835.4 L460.1010978792708,834.5522942823146" stroke="grey" stroke-width="5" />
<circle cx="460.1010978792708" cy="834.5522942823146" r="2.5" fill="grey" stroke="none" />
<path d="M460.1010978792707,834.5522942823146 A336.9230772743238,336.9230772743238,0,0,0,531.9999999999999,835.4" stroke="grey" stroke-width="5" fill="none" />
<circle cx="460.0" cy="835.4" r="5" fill="black" stroke="none" />
<circle cx="532.0" cy="835.4" r="5" fill="black" stroke="none" />
<path d="M460.0,763.4 L460.45340370120346,760.414336627575" stroke="grey" stroke-width="5" />
<circle cx="460.45340370120346" cy="760.414336627575" r="2.5" fill="grey" stroke="none" />
<path d="M460.45340370120346,760.414336627575 A263.4,263.4,0,0,0,500.0,763.4" stroke="grey" stroke-width="5" fill="none" />
<circle cx="460.0" cy="763.4" r="5" fill="black" stroke="none" />
<circle cx="500.0" cy="763.4" r="5" fill="black" stroke="none" />
<path d="M532.0,835.4 L530.2828503311686,817.4021250335607" stroke="grey" stroke-width="5" />
<circle cx="530.2828503311686" cy="817.4021250335607" r="2.5" fill="grey" stroke="none" />
<path d="M530.2828503311686,817.4021250335607 A318.84347256922166,318.84347256922166,0,0,0,620.0000000000001,795.4" stroke="grey" stroke-width="5" fill="none" />
<circle cx="532.0" cy="835.4" r="5" fill="black" stroke="none" />
<circle cx="620.0" cy="795.4" r="5" fill="black" stroke="none" />
<path d="M500.0,763.4 A263.4,263.4,0,0,0,626.3509087385344,731.1168705675692" stroke="grey" stroke-width="5" fill="none" />
<path d="M626.3509087385344,731.1168705675692 L644.0,763.4" stroke="grey" stroke-width="5" />
<circle cx="626.3509087385344" cy="731.1168705675692" r="2.5" fill="grey" stroke="none" />
<circle cx="500.0" cy="763.4" r="5" fill="black" stroke="none" />
<circle cx="644.0" cy="763.4" r="5" fill="black" stroke="none" />
<path d="M620.0,795.4 L612.9805302129447,778.1204052075321" stroke="grey" stroke-width="5" />
<circle cx="612.9805302129447" cy="778.1204052075321" r="2.5" fill="grey" stroke="none" />
<path d="M612.9805302129447,778.1204052075321 A300.1925382150595,300.1925382150595,0,0,0,644.0,763.4" stroke="grey" stroke-width="5" fill="none" />
<circle cx="620.0" cy="795.4" r="5" fill="black" stroke="none" />
<circle cx="644.0" cy="763.4" r="5" fill="black" stroke="none" />
<path d="M380.0,915.4 L384.71396917752327,899.0818100304734" stroke="grey" stroke-width="5" />
<circle cx="384.71396917752327" cy="899.0818100304734" r="2.5" fill="grey" stroke="none" />
<path d="M384.71396917752327,899.0818100304734 A415.4,415.4,0,0,0,500.0,915.4" stroke="grey" stroke-width="5" fill="none" />
<circle cx="380.0" cy="915.4" r="5" fill="black" stroke="none" />
<circle cx="500.0" cy="915.4" r="5" fill="black" stroke="none" />
<path d="M500.0,915.4 L500.0,833.5151570768561" stroke="grey" stroke-width="5" />
<circle cx="500.0" cy="833.5151570768561" r="2.5" fill="grey" stroke="none" />
<path d="M500.0,833.5151570768561 A333.5151570768561,333.5151570768561,0,0,0,596.0,819.4" stroke="grey" stroke-width="5" fill="none" />
<circle cx="500.0" cy="915.4" r="5" fill="black" stroke="none" />
<circle cx="596.0" cy="819.4" r="5" fill="black" stroke="none" />
<path d="M596.0,819.4 L591.7768584640119,805.3492561813059" stroke="grey" stroke-width="5" />
<circle cx="591.7768584640119" cy="805.3492561813059" r="2.5" fill="grey" stroke="none" />
<path d="M591.7768584640119,805.3492561813059 A318.84347256922166,318.84347256922166,0,0,0,620.0000000000001,795.4" stroke="grey" stroke-width="5" fill="none" />
<circle cx="596.0" cy="819.4" r="5" fill="black" stroke="none" />
<circle cx="620.0" cy="795.4" r="5" fill="black" stroke="none" />
<path d="M620.0000000000001,795.4 A318.84347256922166,318.84347256922166,0,0,1,612.1377320733901,798.47326353534" stroke="grey" stroke-width="5" fill="none" />
<path d="M612.1377320733901,798.47326353534 L620.0,819.4" stroke="grey" stroke-width="5" />
<circle cx="612.1377320733901" cy="798.47326353534" r="2.5" fill="grey" stroke="none" />
<circle cx="620.0" cy="795.4" r="5" fill="black" stroke="none" />
<circle cx="620.0" cy="819.4" r="5" fill="black" stroke="none" />
<path d="M620.0,819.4 A341.19841734685696,341.19841734685696,0,0,1,580.3250483003441,831.6085743999201" stroke="grey" stroke-width="5" fill="none" />
<path d="M580.3250483003441,831.6085743999201 L620.0,995.4" stroke="grey" stroke-width="5" />
<circle cx="580.3250483003441" cy="831.6085743999201" r="2.5" fill="grey" stroke="none" />
<circle cx="620.0" cy="819.4" r="5" fill="black" stroke="none" />
<circle cx="620.0" cy="995.4" r="5" fill="black" stroke="none" />
<path d="M620.0,995.4 A509.72655414447456,509.72655414447456,0,0,0,703.7240077807971,967.2447845120689" stroke="grey" stroke-width="5" fill="none" />
<path d="M703.7240077807971,967.2447845120689 L716.0,995.4" stroke="grey" stroke-width="5" />
<circle cx="703.7240077807971" cy="967.2447845120689" r="2.5" fill="grey" stroke="none" />
<circle cx="620.0" cy="995.4" r="5" fill="black" stroke="none" />
<circle cx="716.0" cy="995.4" r="5" fill="black" stroke="none" />
<path d="M620.0,995.4 A509.72655414447456,509.72655414447456,0,0,1,609.915623889536,997.734583513115" stroke="grey" stroke-width="5" fill="none" />
<path d="M609.9156238895359,997.734583513115 L620.0,1043.4" stroke="grey" stroke-width="5" />
<circle cx="609.9156238895359" cy="997.734583513115" r="2.5" fill="grey" stroke="none" />
<circle cx="620.0" cy="995.4" r="5" fill="black" stroke="none" />
<circle cx="620.0" cy="1043.4" r="5" fill="black" stroke="none" />
<path d="M308.0,619.4 L398.60685276685155,563.0538634356142" stroke="grey" stroke-width="5" />
<circle cx="398.60685276685155" cy="563.0538634356142" r="2.5" fill="grey" stroke="none" />
<path d="M398.6068527668516,563.0538634356143 A119.4,119.4,0,0,0,500.0,619.4" stroke="grey" stroke-width="5" fill="none" />
<circle cx="308.0" cy="619.4" r="5" fill="black" stroke="none" />
<circle cx="500.0" cy="619.4" r="5" fill="black" stroke="none" />
<path d="M500.0,619.4 A119.4,119.4,0,0,1,500.0,619.4" stroke="grey" stroke-width="5" fill="none" />
<path d="M500.0,619.4 L500.0,763.4" stroke="grey" stroke-width="5" />
<circle cx="500.0" cy="619.4" r="2.5" fill="grey" stroke="none" />
<circle cx="500.0" cy="619.4" r="5" fill="black" stroke="none" />
<circle cx="500.0" cy="763.4" r="5" fill="black" stroke="none" />
<path d="M500.0,619.4 L500.0,539.4" stroke="grey" stroke-width="5" />
<circle cx="500.0" cy="539.4" r="2.5" fill="grey" stroke="none" />
<path d="M500.0,539.4 A39.4,39.4,0,0,1,500.0,539.4" stroke="grey" stroke-width="5" fill="none" />
<circle cx="500.0" cy="619.4" r="5" fill="black" stroke="none" />
<circle cx="500.0" cy="539.4" r="5" fill="black" stroke="none" />
<path d="M500.0,539.4 L500.0,483.4" stroke="grey" stroke-width="5" />
<circle cx="500.0" cy="539.4" r="5" fill="black" stroke="none" />
<circle cx="500.0" cy="483.4" r="5" fill="black" stroke="none" />
<path d="M500.0,539.4 A39.4,39.4,0,0,0,522.7883706294281,532.1410977419225" stroke="grey" stroke-width="5" fill="none" />
<path d="M522.7883706294281,532.1410977419225 L596.0,635.4" stroke="grey" stroke-width="5" />
<circle cx="522.7883706294281" cy="532.1410977419225" r="2.5" fill="grey" stroke="none" />
<circle cx="500.0" cy="539.4" r="5" fill="black" stroke="none" />
<circle cx="596.0" cy="635.4" r="5" fill="black" stroke="none" />
<path d="M500.0,619.4 A119.4,119.4,0,0,0,569.0591739379115,597.4022099082628" stroke="grey" stroke-width="5" fill="none" />
<path d="M569.0591739379115,597.4022099082628 L596.0,635.4" stroke="grey" stroke-width="5" />
<circle cx="569.0591739379115" cy="597.4022099082628" r="2.5" fill="grey" stroke="none" />
<circle cx="500.0" cy="619.4" r="5" fill="black" stroke="none" />
<circle cx="596.0" cy="635.4" r="5" fill="black" stroke="none" />
<path d="M596.0,635.4 A165.97939631171093,165.97939631171093,0,0,1,594.6616324151564,636.3390455757183" stroke="grey" stroke-width="5" fill="none" />
<path d="M594.6616324151564,636.3390455757184 L644.0,707.4" stroke="grey" stroke-width="5" />
<circle cx="594.6616324151564" cy="636.3390455757184" r="2.5" fill="grey" stroke="none" />
<circle cx="596.0" cy="635.4" r="5" fill="black" stroke="none" />
<circle cx="644.0" cy="707.4" r="5" fill="black" stroke="none" />
<path d="M596.0,819.4 A333.5151570768561,333.5151570768561,0,0,0,617.297785729578,812.2076063502266" stroke="grey" stroke-width="5" fill="none" />
<path d="M617.297785729578,812.2076063502266 L620.0,819.4" stroke="grey" stroke-width="5" />
<circle cx="617.297785729578" cy="812.2076063502266" r="2.5" fill="grey" stroke="none" />
<circle cx="596.0" cy="819.4" r="5" fill="black" stroke="none" />
<circle cx="620.0" cy="819.4" r="5" fill="black" stroke="none" />
<path d="M620.0,819.4 A341.19841734685696,341.19841734685696,0,0,0,640.2344045788434,811.0477001561292" stroke="grey" stroke-width="5" fill="none" />
<path d="M640.2344045788435,811.0477001561292 L644.0,819.4" stroke="grey" stroke-width="5" />
<circle cx="640.2344045788435" cy="811.0477001561292" r="2.5" fill="grey" stroke="none" />
<circle cx="620.0" cy="819.4" r="5" fill="black" stroke="none" />
<circle cx="644.0" cy="819.4" r="5" fill="black" stroke="none" />
<path d="M644.0,819.4 L623.3807653122996,773.6653919496421" stroke="grey" stroke-width="5" />
<circle cx="623.3807653122996" cy="773.6653919496421" r="2.5" fill="grey" stroke="none" />
<path d="M623.3807653122994,773.6653919496421 A300.1925382150595,300.1925382150595,0,0,0,644.0,763.4" stroke="grey" stroke-width="5" fill="none" />
<circle cx="644.0" cy="819.4" r="5" fill="black" stroke="none" />
<circle cx="644.0" cy="763.4" r="5" fill="black" stroke="none" />
<path d="M644.0,763.4 L637.3149721202542,751.1719698366317" stroke="grey" stroke-width="5" />
<circle cx="637.3149721202542" cy="751.1719698366317" r="2.5" fill="grey" stroke="none" />
<path d="M637.3149721202542,751.1719698366317 A286.25645844242536,286.25645844242536,0,0,0,644.0,747.4" stroke="grey" stroke-width="5" fill="none" />
<circle cx="644.0" cy="763.4" r="5" fill="black" stroke="none" />
<circle cx="644.0" cy="747.4" r="5" fill="black" stroke="none" />
<path d="M644.0,747.4 L637.103605370403,735.5516108933174" stroke="grey" stroke-width="5" />
<circle cx="637.103605370403" cy="735.5516108933174" r="2.5" fill="grey" stroke="none" />
<path d="M637.103605370403,735.5516108933174 A272.54717022930174,272.54717022930174,0,0,0,644.0,731.4" stroke="grey" stroke-width="5" fill="none" />
<circle cx="644.0" cy="747.4" r="5" fill="black" stroke="none" />
<circle cx="644.0" cy="731.4" r="5" fill="black" stroke="none" />
<path d="M644.0,731.4 L633.4023555275307,714.3701740907683" stroke="grey" stroke-width="5" />
<circle cx="633.4023555275307" cy="714.3701740907683" r="2.5" fill="grey" stroke="none" />
<path d="M633.4023555275307,714.3701740907683 A252.48912847883173,252.48912847883173,0,0,0,644.0,707.4" stroke="grey" stroke-width="5" fill="none" />
<circle cx="644.0" cy="731.4" r="5" fill="black" stroke="none" />
<circle cx="644.0" cy="707.4" r="5" fill="black" stroke="none" />
<path d="M644.0,707.4 A252.48912847883173,252.48912847883173,0,0,0,671.5253265234959,685.2830870884013" stroke="grey" stroke-width="5" fill="none" />
<path d="M671.5253265234959,685.2830870884013 L692.0,707.4" stroke="grey" stroke-width="5" />
<circle cx="671.5253265234959" cy="685.2830870884013" r="2.5" fill="grey" stroke="none" />
<circle cx="644.0" cy="707.4" r="5" fill="black" stroke="none" />
<circle cx="692.0" cy="707.4" r="5" fill="black" stroke="none" />
<path d="M692.0,707.4000000000001 A282.62830714562193,282.62830714562193,0,0,1,673.2794718218406,723.2778194204341" stroke="grey" stroke-width="5" fill="none" />
<path d="M673.2794718218405,723.2778194204341 L692.0,747.4" stroke="grey" stroke-width="5" />
<circle cx="673.2794718218405" cy="723.2778194204341" r="2.5" fill="grey" stroke="none" />
<circle cx="692.0" cy="707.4" r="5" fill="black" stroke="none" />
<circle cx="692.0" cy="747.4" r="5" fill="black" stroke="none" />
<path d="M692.0,747.4 L675.5038921099184,726.1440776458011" stroke="grey" stroke-width="5" />
<circle cx="675.5038921099184" cy="726.1440776458011" r="2.5" fill="grey" stroke="none" />
<path d="M675.5038921099184,726.1440776458011 A286.25645844242536,286.25645844242536,0,0,1,644.0,747.4" stroke="grey" stroke-width="5" fill="none" />
<circle cx="692.0" cy="747.4" r="5" fill="black" stroke="none" />
<circle cx="644.0" cy="747.4" r="5" fill="black" stroke="none" />
<path d="M644.0,731.4 A272.54717022930174,272.54717022930174,0,0,0,689.5633338940586,695.8256940316302" stroke="grey" stroke-width="5" fill="none" />
<path d="M689.5633338940586,695.8256940316302 L724.0,731.4" stroke="grey" stroke-width="5" />
<circle cx="689.5633338940586" cy="695.8256940316302" r="2.5" fill="grey" stroke="none" />
<circle cx="644.0" cy="731.4" r="5" fill="black" stroke="none" />
<circle cx="724.0" cy="731.4" r="5" fill="black" stroke="none" />
<circle cx="500" cy="500" r="5" fill="red" stroke="none" />
</svg>