<?xml version="1.0" encoding="UTF-8"?>
<svg xmlns="http://www.w3.org/2000/svg" xmlns:xlink="http://www.w3.org/1999/xlink"
     width="1000" height="1000" viewBox="0 0 1000 1000">
<defs>
</defs>
<rect x="0" y="0" width="1000" height="1000" fill="white" />
<path d="M276.0,378.68 L301.7793572336575,392.64228401601486" stroke="grey" stroke-width="5" />
<circle cx="301.7793572336575" cy="392.64228401601486" r="2.5" fill="grey" stroke="none" />
<path d="M301.7793572336575,392.64228401601486 A225.4264900139289,225.4264900139289,0,0,0,276.0,474.68" stroke="grey" stroke-width="5" fill="none" />
<circle cx="276.0" cy="378.68" r="5" fill="black" stroke="none" />
<circle cx="276.0" cy="474.68" r="5" fill="black" stroke="none" />
<path d="M276.0,474.68 L338.1160259541007,481.70132936231175" stroke="grey" stroke-width="5" />
<circle cx="338.1160259541007" cy="481.70132936231175" r="2.5" fill="grey" stroke="none" />
<path d="M338.1160259541007,481.70132936231175 A162.91489311907614,162.91489311907614,0,0,0,340.0,530.68" stroke="grey" stroke-width="5" fill="none" />
<circle cx="276.0" cy="474.68" r="5" fill="black" stroke="none" />
<circle cx="340.0" cy="530.6800000000001" r="5" fill="black" stroke="none" />
<path d="M252.0,530.6800000000001 L338.3176096691386,520.001676352221" stroke="grey" stroke-width="5" />
<circle cx="338.3176096691386" cy="520.001676352221" r="2.5" fill="grey" stroke="none" />
<path d="M338.3176096691386,520.001676352221 A162.91489311907614,162.91489311907614,0,0,0,340.0,530.68" stroke="grey" stroke-width="5" fill="none" />
<circle cx="252.0" cy="530.6800000000001" r="5" fill="black" stroke="none" />
<circle cx="340.0" cy="530.6800000000001" r="5" fill="black" stroke="none" />
<path d="M340.0,530.6800000000001 L393.8924248949231,520.3461275263985" stroke="grey" stroke-width="5" />
<circle cx="393.8924248949231" cy="520.3461275263985" r="2.5" fill="grey" stroke="none" />
<path d="M393.8924248949231,520.3461275263985 A108.04065160854964,108.04065160854964,0,0,0,412.0,562.68" stroke="grey" stroke-width="5" fill="none" />
<circle cx="340.0" cy="530.6800000000001" r="5" fill="black" stroke="none" />
<circle cx="412.0" cy="562.6800000000001" r="5" fill="black" stroke="none" />
<path d="M412.0,562.6800000000001 L413.13147561856135,561.8740807753247" stroke="grey" stroke-width="5" />
<circle cx="413.13147561856135" cy="561.8740807753247" r="2.5" fill="grey" stroke="none" />
<path d="M413.13147561856135,561.8740807753246 A106.6514997550433,106.6514997550433,0,0,0,428.0,578.6800000000001" stroke="grey" stroke-width="5" fill="none" />
<circle cx="412.0" cy="562.6800000000001" r="5" fill="black" stroke="none" />
<circle cx="428.0" cy="578.6800000000001" r="5" fill="black" stroke="none" />
<path d="M428.0,578.6800000000001 A106.6514997550433,106.6514997550433,0,0,0,463.7505774027191,600.3021523266762" stroke="grey" stroke-width="5" fill="none" />
<path d="M463.75057740271916,600.3021523266762 L460.0,610.6800000000001" stroke="grey" stroke-width="5" />
<circle cx="463.75057740271916" cy="600.3021523266762" r="2.5" fill="grey" stroke="none" />
<circle cx="428.0" cy="578.6800000000001" r="5" fill="black" stroke="none" />
<circle cx="460.0" cy="610.6800000000001" r="5" fill="black" stroke="none" />
<path d="M428.0,578.6800000000001 A106.6514997550433,106.6514997550433,0,0,0,441.4453241407627,589.1397348830455" stroke="grey" stroke-width="5" fill="none" />
<path d="M441.4453241407627,589.1397348830455 L380.0,682.6800000000001" stroke="grey" stroke-width="5" />
<circle cx="441.4453241407627" cy="589.1397348830455" r="2.5" fill="grey" stroke="none" />
<circle cx="428.0" cy="578.6800000000001" r="5" fill="black" stroke="none" />
<circle cx="380.0" cy="682.6800000000001" r="5" fill="black" stroke="none" />
<path d="M380.0,682.6800000000001 A218.568026938983,218.568026938983,0,0,0,409.17972440636964,698.8055832744569" stroke="grey" stroke-width="5" fill="none" />
<path d="M409.17972440636964,698.8055832744569 L380.0,762.6800000000001" stroke="grey" stroke-width="5" />
<circle cx="409.17972440636964" cy="698.8055832744569" r="2.5" fill="grey" stroke="none" />
<circle cx="380.0" cy="682.6800000000001" r="5" fill="black" stroke="none" />
<circle cx="380.0" cy="762.6800000000001" r="5" fill="black" stroke="none" />
<path d="M276.0,778.6800000000001 L319.073502602364,725.0919477445233" stroke="grey" stroke-width="5" />
<circle cx="319.073502602364" cy="725.0919477445233" r="2.5" fill="grey" stroke="none" />
<path d="M319.0735026023639,725.0919477445232 A288.7919361755103,288.7919361755103,0,0,0,380.0,762.6800000000001" stroke="grey" stroke-width="5" fill="none" />
<circle cx="276.0" cy="778.6800000000001" r="5" fill="black" stroke="none" />
<circle cx="380.0" cy="762.6800000000001" r="5" fill="black" stroke="none" />
<path d="M380.0,762.6800000000001 A288.7919361755103,288.7919361755103,0,0,0,413.5900209656281,775.5614231406121" stroke="grey" stroke-width="5" fill="none" />
<path d="M413.5900209656281,775.5614231406121 L380.0,882.6800000000001" stroke="grey" stroke-width="5" />
<circle cx="413.5900209656281" cy="775.5614231406121" r="2.5" fill="grey" stroke="none" />
<circle cx="380.0" cy="762.6800000000001" r="5" fill="black" stroke="none" />
<circle cx="380.0" cy="882.6800000000001" r="5" fill="black" stroke="none" />
<path d="M380.0,682.6800000000001 L397.3273574654698,656.3019861517332" stroke="grey" stroke-width="5" />
<circle cx="397.3273574654698" cy="656.3019861517332" r="2.5" fill="grey" stroke="none" />
<path d="M397.3273574654698,656.3019861517332 A187.00797416153142,187.00797416153142,0,0,0,460.00000000000006,682.6800000000001" stroke="grey" stroke-width="5" fill="none" />
<circle cx="380.0" cy="682.6800000000001" r="5" fill="black" stroke="none" />
<circle cx="460.0" cy="682.6800000000001" r="5" fill="black" stroke="none" />
<path d="M460.0,610.68 A117.68628807129572,117.68628807129572,0,0,0,474.8275358633334,614.9626437121565" stroke="grey" stroke-width="5" fill="none" />
<path d="M474.82753586333337,614.9626437121565 L460.0,682.6800000000001" stroke="grey" stroke-width="5" />
<circle cx="474.82753586333337" cy="614.9626437121565" r="2.5" fill="grey" stroke="none" />
<circle cx="460.0" cy="610.6800000000001" r="5" fill="black" stroke="none" />
<circle cx="460.0" cy="682.6800000000001" r="5" fill="black" stroke="none" />
<path d="M460.0,682.6800000000001 L460.3307741926069,681.1693542623643" stroke="grey" stroke-width="5" />
<circle cx="460.3307741926069" cy="681.1693542623643" r="2.5" fill="grey" stroke="none" />
<path d="M460.33077419260695,681.1693542623643 A185.46153886992312,185.46153886992312,0,0,0,532.0,682.6800000000001" stroke="grey" stroke-width="5" fill="none" />
<circle cx="460.0" cy="682.6800000000001" r="5" fill="black" stroke="none" />
<circle cx="532.0" cy="682.6800000000001" r="5" fill="black" stroke="none" />
<path d="M460.0,610.6800000000001 L462.3813438884405,604.0908214606851" stroke="grey" stroke-width="5" />
<circle cx="462.3813438884405" cy="604.0908214606851" r="2.5" fill="grey" stroke="none" />
<path d="M462.3813438884405,604.0908214606851 A110.68,110.68,0,0,0,500.0,610.6800000000001" stroke="grey" stroke-width="5" fill="none" />
<circle cx="460.0" cy="610.6800000000001" r="5" fill="black" stroke="none" />
<circle cx="500.0" cy="610.6800000000001" r="5" fill="black" stroke="none" />
<path d="M532.0,682.6800000000001 A185.46153886992312,185.46153886992312,0,0,0,619.374158889895,641.9358749200853" stroke="grey" stroke-width="5" fill="none" />
<path d="M619.374158889895,641.9358749200853 L620.0,642.6800000000001" stroke="grey" stroke-width="5" />
<circle cx="619.374158889895" cy="641.9358749200853" r="2.5" fill="grey" stroke="none" />
<circle cx="532.0" cy="682.6800000000001" r="5" fill="black" stroke="none" />
<circle cx="620.0" cy="642.6800000000001" r="5" fill="black" stroke="none" />
<path d="M500.0,610.6800000000001 A110.68,110.68,0,0,0,587.7538955098928,567.448619132187" stroke="grey" stroke-width="5" fill="none" />
<path d="M587.7538955098928,567.448619132187 L644.0,610.6800000000001" stroke="grey" stroke-width="5" />
<circle cx="587.7538955098928" cy="567.448619132187" r="2.5" fill="grey" stroke="none" />
<circle cx="500.0" cy="610.6800000000001" r="5" fill="black" stroke="none" />
<circle cx="644.0" cy="610.6800000000001" r="5" fill="black" stroke="none" />
<path d="M620.0,642.6800000000001 L616.9019360304669,638.9964019402252" stroke="grey" stroke-width="5" />
<circle cx="616.9019360304669" cy="638.9964019402252" r="2.5" fill="grey" stroke="none" />
<path d="M616.9019360304669,638.9964019402252 A181.62065521300158,181.62065521300158,0,0,0,644.0,610.6800000000001" stroke="grey" stroke-width="5" fill="none" />
<circle cx="620.0" cy="642.6800000000001" r="5" fill="black" stroke="none" />
<circle cx="644.0" cy="610.6800000000001" r="5" fill="black" stroke="none" />
<path d="M380.0,762.6800000000001 L390.8501379316801,738.9290480675523" stroke="grey" stroke-width="5" />
<circle cx="390.8501379316801" cy="738.9290480675523" r="2.5" fill="grey" stroke="none" />
<path d="M390.8501379316801,738.9290480675523 A262.68,262.68,0,0,0,500.0,762.6800000000001" stroke="grey" stroke-width="5" fill="none" />
<circle cx="380.0" cy="762.6800000000001" r="5" fill="black" stroke="none" />
<circle cx="500.0" cy="762.6800000000001" r="5" fill="black" stroke="none" />
<path d="M500.0,762.6800000000001 L500.0,692.3492199100376" stroke="grey" stroke-width="5" />
<circle cx="500.0" cy="692.3492199100376" r="2.5" fill="grey" stroke="none" />
<path d="M500.0,692.3492199100376 A192.3492199100376,192.3492199100376,0,0,0,596.0,666.6800000000001" stroke="grey" stroke-width="5" fill="none" />
<circle cx="500.0" cy="762.6800000000001" r="5" fill="black" stroke="none" />
<circle cx="596.0" cy="666.6800000000001" r="5" fill="black" stroke="none" />
<path d="M596.0,666.6800000000001 L593.0476875167489,661.5540474509551" stroke="grey" stroke-width="5" />
<circle cx="593.0476875167489" cy="661.5540474509551" r="2.5" fill="grey" stroke="none" />
<path d="M593.0476875167487,661.5540474509552 A186.43385529457893,186.43385529457893,0,0,0,620.0,642.6800000000001" stroke="grey" stroke-width="5" fill="none" />
<circle cx="596.0" cy="666.6800000000001" r="5" fill="black" stroke="none" />
<circle cx="620.0" cy="642.6800000000001" r="5" fill="black" stroke="none" />
<path d="M620.0,642.6800000000001 A186.43385529457893,186.43385529457893,0,0,1,608.9284435106173,651.3016080362474" stroke="grey" stroke-width="5" fill="none" />
<path d="M608.9284435106173,651.3016080362474 L620.0,666.6800000000001" stroke="grey" stroke-width="5" />
<circle cx="608.9284435106173" cy="651.3016080362474" r="2.5" fill="grey" stroke="none" />
<circle cx="620.0" cy="642.6800000000001" r="5" fill="black" stroke="none" />
<circle cx="620.0" cy="666.6800000000001" r="5" fill="black" stroke="none" />
<path d="M620.0,666.68 A205.38311128230578,205.38311128230578,0,0,1,567.8796409471023,693.8416279979418" stroke="grey" stroke-width="5" fill="none" />
<path d="M567.8796409471023,693.8416279979418 L620.0,842.6800000000001" stroke="grey" stroke-width="5" />
<circle cx="567.8796409471023" cy="693.8416279979418" r="2.5" fill="grey" stroke="none" />
<circle cx="620.0" cy="666.6800000000001" r="5" fill="black" stroke="none" />
<circle cx="620.0" cy="842.6800000000001" r="5" fill="black" stroke="none" />
<path d="M620.0,842.6800000000001 A363.0834372427363,363.0834372427363,0,0,0,693.6087486059628,807.1566943161636" stroke="grey" stroke-width="5" fill="none" />
<path d="M693.6087486059628,807.1566943161636 L716.0,842.6800000000001" stroke="grey" stroke-width="5" />
<circle cx="693.6087486059628" cy="807.1566943161636" r="2.5" fill="grey" stroke="none" />
<circle cx="620.0" cy="842.6800000000001" r="5" fill="black" stroke="none" />
<circle cx="716.0" cy="842.6800000000001" r="5" fill="black" stroke="none" />
<path d="M620.0,842.6800000000001 A363.0834372427363,363.0834372427363,0,0,1,606.6078837887998,847.0797336550693" stroke="grey" stroke-width="5" fill="none" />
<path d="M606.6078837887998,847.0797336550693 L620.0,890.6800000000001" stroke="grey" stroke-width="5" />
<circle cx="606.6078837887998" cy="847.0797336550693" r="2.5" fill="grey" stroke="none" />
<circle cx="620.0" cy="842.6800000000001" r="5" fill="black" stroke="none" />
<circle cx="620.0" cy="890.6800000000001" r="5" fill="black" stroke="none" />
<path d="M308.0,466.68 L467.17068835579397,494.3027465417451" stroke="grey" stroke-width="5" />
<circle cx="467.17068835579397" cy="494.3027465417451" r="2.5" fill="grey" stroke="none" />
<path d="M467.17068835579397,494.3027465417451 A33.31999999999999,33.31999999999999,0,0,1,500.0,466.68" stroke="grey" stroke-width="5" fill="none" />
<circle cx="308.0" cy="466.68" r="5" fill="black" stroke="none" />
<circle cx="500.0" cy="466.68" r="5" fill="black" stroke="none" />
<path d="M500.0,466.68 L500.0,610.6800000000001" stroke="grey" stroke-width="5" />
<circle cx="500.0" cy="466.68" r="5" fill="black" stroke="none" />
<circle cx="500.0" cy="610.6800000000001" r="5" fill="black" stroke="none" />
<path d="M500.0,466.68 A33.31999999999999,33.31999999999999,0,0,1,500.0,466.68" stroke="grey" stroke-width="5" fill="none" />
<path d="M500.0,466.68 L500.0,386.68" stroke="grey" stroke-width="5" />
<circle cx="500.0" cy="466.68" r="2.5" fill="grey" stroke="none" />
<circle cx="500.0" cy="466.68" r="5" fill="black" stroke="none" />
<circle cx="500.0" cy="386.68" r="5" fill="black" stroke="none" />
<path d="M500.0,386.68 A113.32,113.32,0,0,1,500.0,386.68" stroke="grey" stroke-width="5" fill="none" />
<path d="M500.0,386.68 L500.0,330.68" stroke="grey" stroke-width="5" />
<circle cx="500.0" cy="386.68" r="2.5" fill="grey" stroke="none" />
<circle cx="500.0" cy="386.68" r="5" fill="black" stroke="none" />
<circle cx="500.0" cy="330.68" r="5" fill="black" stroke="none" />
<path d="M500.0,386.68 L500.0,402.4501030241446" stroke="grey" stroke-width="5" />
<circle cx="500.0" cy="402.4501030241446" r="2.5" fill="grey" stroke="none" />
<path d="M500.0,402.4501030241446 A97.54989697585538,97.54989697585538,0,0,1,596.0,482.68" stroke="grey" stroke-width="5" fill="none" />
<circle cx="500.0" cy="386.68" r="5" fill="black" stroke="none" />
<circle cx="596.0" cy="482.68" r="5" fill="black" stroke="none" />
<path d="M500.0,466.68 A33.31999999999999,33.31999999999999,0,0,1,532.7906035696964,494.08402860596726" stroke="grey" stroke-width="5" fill="none" />
<path d="M532.7906035696964,494.08402860596726 L596.0,482.68" stroke="grey" stroke-width="5" />
<circle cx="532.7906035696964" cy="494.08402860596726" r="2.5" fill="grey" stroke="none" />
<circle cx="500.0" cy="466.68" r="5" fill="black" stroke="none" />
<circle cx="596.0" cy="482.68" r="5" fill="black" stroke="none" />
<path d="M596.0,482.68 A97.54989697585538,97.54989697585538,0,0,1,591.1964509441757,534.6293190113023" stroke="grey" stroke-width="5" fill="none" />
<path d="M591.1964509441757,534.6293190113023 L644.0,554.6800000000001" stroke="grey" stroke-width="5" />
<circle cx="591.1964509441757" cy="534.6293190113023" r="2.5" fill="grey" stroke="none" />
<circle cx="596.0" cy="482.68" r="5" fill="black" stroke="none" />
<circle cx="644.0" cy="554.6800000000001" r="5" fill="black" stroke="none" />
<path d="M596.0,666.6800000000001 A192.3492199100376,192.3492199100376,0,0,0,612.3846369114434,656.1022606699948" stroke="grey" stroke-width="5" fill="none" />
<path d="M612.3846369114434,656.1022606699948 L620.0,666.6800000000001" stroke="grey" stroke-width="5" />
<circle cx="612.3846369114434" cy="656.1022606699948" r="2.5" fill="grey" stroke="none" />
<circle cx="596.0" cy="666.6800000000001" r="5" fill="black" stroke="none" />
<circle cx="620.0" cy="666.6800000000001" r="5" fill="black" stroke="none" />
<path d="M620.0,666.68 A205.38311128230578,205.38311128230578,0,0,0,634.26869880629,655.4160188682806" stroke="grey" stroke-width="5" fill="none" />
<path d="M634.26869880629,655.4160188682806 L644.0,666.6800000000001" stroke="grey" stroke-width="5" />
<circle cx="634.26869880629" cy="655.4160188682806" r="2.5" fill="grey" stroke="none" />
<circle cx="620.0" cy="666.6800000000001" r="5" fill="black" stroke="none" />
<circle cx="644.0" cy="666.6800000000001" r="5" fill="black" stroke="none" />
<path d="M644.0,666.6800000000001 L618.7340521795692,637.4346653978513" stroke="grey" stroke-width="5" />
<circle cx="618.7340521795692" cy="637.4346653978513" r="2.5" fill="grey" stroke="none" />
<path d="M618.7340521795692,637.4346653978513 A181.62065521300158,181.62065521300158,0,0,0,644.0,610.6800000000001" stroke="grey" stroke-width="5" fill="none" />
<circle cx="644.0" cy="666.6800000000001" r="5" fill="black" stroke="none" />
<circle cx="644.0" cy="610.6800000000001" r="5" fill="black" stroke="none" />
<path d="M644.0,610.6800000000001 L636.6399484806271,605.0229826238598" stroke="grey" stroke-width="5" />
<circle cx="636.6399484806271" cy="605.0229826238598" r="2.5" fill="grey" stroke="none" />
<path d="M636.6399484806271,605.0229826238598 A172.33775674529363,172.33775674529363,0,0,0,644.0,594.68" stroke="grey" stroke-width="5" fill="none" />
<circle cx="644.0" cy="610.6800000000001" r="5" fill="black" stroke="none" />
<circle cx="644.0" cy="594.6800000000001" r="5" fill="black" stroke="none" />
<path d="M644.0,594.6800000000001 L637.1110167630387,590.150493521698" stroke="grey" stroke-width="5" />
<circle cx="637.1110167630387" cy="590.150493521698" r="2.5" fill="grey" stroke="none" />
<path d="M637.1110167630387,590.150493521698 A164.09309065283645,164.09309065283645,0,0,0,644.0,578.68" stroke="grey" stroke-width="5" fill="none" />
<circle cx="644.0" cy="594.6800000000001" r="5" fill="black" stroke="none" />
<circle cx="644.0" cy="578.6800000000001" r="5" fill="black" stroke="none" />
<path d="M644.0,578.6800000000001 L635.1710125154642,573.8559393383106" stroke="grey" stroke-width="5" />
<circle cx="635.1710125154642" cy="573.8559393383106" r="2.5" fill="grey" stroke="none" />
<path d="M635.1710125154642,573.8559393383106 A154.03214729399835,154.03214729399835,0,0,0,644.0,554.6800000000001" stroke="grey" stroke-width="5" fill="none" />
<circle cx="644.0" cy="578.6800000000001" r="5" fill="black" stroke="none" />
<circle cx="644.0" cy="554.6800000000001" r="5" fill="black" stroke="none" />
<path d="M644.0,554.6800000000001 A154.03214729399835,154.03214729399835,0,0,0,648.1416481271347,542.1895068728735" stroke="grey" stroke-width="5" fill="none" />
<path d="M648.1416481271347,542.1895068728735 L692.0,554.6800000000001" stroke="grey" stroke-width="5" />
<circle cx="648.1416481271347" cy="542.1895068728735" r="2.5" fill="grey" stroke="none" />
<circle cx="644.0" cy="554.6800000000001" r="5" fill="black" stroke="none" />
<circle cx="692.0" cy="554.6800000000001" r="5" fill="black" stroke="none" />
<path d="M692.0,554.68 A199.63442188159837,199.63442188159837,0,0,1,679.0481219758692,588.2931051493505" stroke="grey" stroke-width="5" fill="none" />
<path d="M679.0481219758692,588.2931051493505 L692.0,594.6800000000001" stroke="grey" stroke-width="5" />
<circle cx="679.0481219758692" cy="588.2931051493505" r="2.5" fill="grey" stroke="none" />
<circle cx="692.0" cy="554.6800000000001" r="5" fill="black" stroke="none" />
<circle cx="692.0" cy="594.6800000000001" r="5" fill="black" stroke="none" />
<path d="M692.0,594.6800000000001 L654.566288718886,576.2205011245006" stroke="grey" stroke-width="5" />
<circle cx="654.566288718886" cy="576.2205011245006" r="2.5" fill="grey" stroke="none" />
<path d="M654.566288718886,576.2205011245006 A172.33775674529363,172.33775674529363,0,0,1,644.0,594.68" stroke="grey" stroke-width="5" fill="none" />
<circle cx="692.0" cy="594.6800000000001" r="5" fill="black" stroke="none" />
<circle cx="644.0" cy="594.6800000000001" r="5" fill="black" stroke="none" />
<path d="M644.0,578.68 A164.09309065283645,164.09309065283645,0,0,0,654.8201969302672,554.3805941717563" stroke="grey" stroke-width="5" fill="none" />
<path d="M654.8201969302672,554.3805941717563 L724.0,578.6800000000001" stroke="grey" stroke-width="5" />
<circle cx="654.8201969302672" cy="554.3805941717563" r="2.5" fill="grey" stroke="none" />
<circle cx="644.0" cy="578.6800000000001" r="5" fill="black" stroke="none" />
<circle cx="724.0" cy="578.6800000000001" r="5" fill="black" stroke="none" />
<circle cx="500" cy="500" r="5" fill="red" stroke="none" />
</svg>