<?xml version="1.0" encoding="UTF-8"?>
<svg xmlns="http://www.w3.org/2000/svg" xmlns:xlink="http://www.w3.org/1999/xlink"
     width="1000" height="1000" viewBox="0 0 1000 1000">
<defs>
</defs>
<rect x="0" y="0" width="1000" height="1000" fill="white" />
<path d="M156.0,142.24 L200.39234469459592,188.4080384823797" stroke="grey" stroke-width="5" />
<circle cx="200.39234469459592" cy="188.4080384823797" r="2.5" fill="grey" stroke="none" />
<path d="M200.3923446945961,188.4080384823796 A432.26646596746315,432.26646596746315,0,0,0,156.00000000000017,238.23999999999978" stroke="grey" stroke-width="5" fill="none" />
<circle cx="156.0" cy="142.24" r="5" fill="black" stroke="none" />
<circle cx="156.0" cy="238.24" r="5" fill="black" stroke="none" />
<path d="M156.0,238.24 L223.4794533326633,289.5871561173195" stroke="grey" stroke-width="5" />
<circle cx="223.4794533326633" cy="289.5871561173195" r="2.5" fill="grey" stroke="none" />
<path d="M223.4794533326634,289.5871561173194 A347.47255661418785,347.47255661418785,0,0,0,220.00000000000006,294.24" stroke="grey" stroke-width="5" fill="none" />
<circle cx="156.0" cy="238.24" r="5" fill="black" stroke="none" />
<circle cx="220.0" cy="294.24" r="5" fill="black" stroke="none" />
<path d="M132.0,294.24 L196.71574182246565,330.42454086247426" stroke="grey" stroke-width="5" />
<circle cx="196.71574182246565" cy="330.42454086247426" r="2.5" fill="grey" stroke="none" />
<path d="M196.71574182246565,330.42454086247426 A347.47255661418785,347.47255661418785,0,0,1,220.00000000000006,294.24" stroke="grey" stroke-width="5" fill="none" />
<circle cx="132.0" cy="294.24" r="5" fill="black" stroke="none" />
<circle cx="220.0" cy="294.24" r="5" fill="black" stroke="none" />
<path d="M220.0,294.24 L281.5999423972204,339.5071576701859" stroke="grey" stroke-width="5" />
<circle cx="281.5999423972204" cy="339.5071576701859" r="2.5" fill="grey" stroke="none" />
<path d="M281.5999423972204,339.5071576701859 A271.02866564258477,271.02866564258477,0,0,1,292.0,326.24" stroke="grey" stroke-width="5" fill="none" />
<circle cx="220.0" cy="294.24" r="5" fill="black" stroke="none" />
<circle cx="292.0" cy="326.24" r="5" fill="black" stroke="none" />
<path d="M292.0,326.24 L309.2895955573848,340.68346213486143" stroke="grey" stroke-width="5" />
<circle cx="309.2895955573848" cy="340.68346213486143" r="2.5" fill="grey" stroke="none" />
<path d="M309.2895955573848,340.68346213486143 A248.49993480884456,248.49993480884456,0,0,0,308.0,342.24" stroke="grey" stroke-width="5" fill="none" />
<circle cx="292.0" cy="326.24" r="5" fill="black" stroke="none" />
<circle cx="308.0" cy="342.24" r="5" fill="black" stroke="none" />
<path d="M308.0,342.24 L342.7622535376993,370.80298499014293" stroke="grey" stroke-width="5" />
<circle cx="342.7622535376993" cy="370.80298499014293" r="2.5" fill="grey" stroke="none" />
<path d="M342.7622535376993,370.80298499014293 A203.50817575714248,203.50817575714248,0,0,0,340.0,374.24" stroke="grey" stroke-width="5" fill="none" />
<circle cx="308.0" cy="342.24" r="5" fill="black" stroke="none" />
<circle cx="340.0" cy="374.24" r="5" fill="black" stroke="none" />
<path d="M308.0,342.24 L309.9721582869545,343.860456725781" stroke="grey" stroke-width="5" />
<circle cx="309.9721582869545" cy="343.860456725781" r="2.5" fill="grey" stroke="none" />
<path d="M309.9721582869545,343.860456725781 A245.94742852894396,245.94742852894396,0,0,0,260.0,446.2400000000001" stroke="grey" stroke-width="5" fill="none" />
<circle cx="308.0" cy="342.24" r="5" fill="black" stroke="none" />
<circle cx="260.0" cy="446.24" r="5" fill="black" stroke="none" />
<path d="M260.0,446.24 L264.4080020595551,447.22739246134034" stroke="grey" stroke-width="5" />
<circle cx="264.4080020595551" cy="447.22739246134034" r="2.5" fill="grey" stroke="none" />
<path d="M264.40800205955503,447.22739246134046 A241.43019198103622,241.43019198103622,0,0,0,260.0,526.2400000000001" stroke="grey" stroke-width="5" fill="none" />
<circle cx="260.0" cy="446.24" r="5" fill="black" stroke="none" />
<circle cx="260.0" cy="526.24" r="5" fill="black" stroke="none" />
<path d="M156.0,542.24 L260.3695699435685,529.4243876906502" stroke="grey" stroke-width="5" />
<circle cx="260.3695699435685" cy="529.4243876906502" r="2.5" fill="grey" stroke="none" />
<path d="M260.3695699435685,529.4243876906503 A241.43019198103622,241.43019198103622,0,0,1,260.0,526.2400000000001" stroke="grey" stroke-width="5" fill="none" />
<circle cx="156.0" cy="542.24" r="5" fill="black" stroke="none" />
<circle cx="260.0" cy="526.24" r="5" fill="black" stroke="none" />
<path d="M260.0,526.2400000000001 A241.43019198103622,241.43019198103622,0,0,0,293.82909243164386,625.626806344985" stroke="grey" stroke-width="5" fill="none" />
<path d="M293.82909243164386,625.626806344985 L260.0,646.24" stroke="grey" stroke-width="5" />
<circle cx="293.82909243164386" cy="625.626806344985" r="2.5" fill="grey" stroke="none" />
<circle cx="260.0" cy="526.24" r="5" fill="black" stroke="none" />
<circle cx="260.0" cy="646.24" r="5" fill="black" stroke="none" />
<path d="M260.0,446.24 L335.29141777760265,463.105277582183" stroke="grey" stroke-width="5" />
<circle cx="335.29141777760265" cy="463.105277582183" r="2.5" fill="grey" stroke="none" />
<path d="M335.29141777760265,463.1052775821831 A168.79021772602817,168.79021772602817,0,0,1,340.0,446.2400000000001" stroke="grey" stroke-width="5" fill="none" />
<circle cx="260.0" cy="446.24" r="5" fill="black" stroke="none" />
<circle cx="340.0" cy="446.24" r="5" fill="black" stroke="none" />
<path d="M340.0,374.24 L367.2955779998108,395.6943243078513" stroke="grey" stroke-width="5" />
<circle cx="367.2955779998108" cy="395.6943243078513" r="2.5" fill="grey" stroke="none" />
<path d="M367.2955779998108,395.6943243078513 A168.79021772602817,168.79021772602817,0,0,0,340.0,446.2400000000001" stroke="grey" stroke-width="5" fill="none" />
<circle cx="340.0" cy="374.24" r="5" fill="black" stroke="none" />
<circle cx="340.0" cy="446.24" r="5" fill="black" stroke="none" />
<path d="M340.0,446.24 L402.2484062172563,467.1554644889981" stroke="grey" stroke-width="5" />
<circle cx="402.2484062172563" cy="467.1554644889981" r="2.5" fill="grey" stroke="none" />
<path d="M402.2484062172563,467.1554644889982 A103.12195498534732,103.12195498534732,0,0,1,412.0,446.24000000000007" stroke="grey" stroke-width="5" fill="none" />
<circle cx="340.0" cy="446.24" r="5" fill="black" stroke="none" />
<circle cx="412.0" cy="446.24" r="5" fill="black" stroke="none" />
<path d="M340.0,374.24 L363.3361750288053,392.582233572641" stroke="grey" stroke-width="5" />
<circle cx="363.3361750288053" cy="392.582233572641" r="2.5" fill="grey" stroke="none" />
<path d="M363.3361750288053,392.582233572641 A173.8262856992578,173.8262856992578,0,0,1,380.0,374.24" stroke="grey" stroke-width="5" fill="none" />
<circle cx="340.0" cy="374.24" r="5" fill="black" stroke="none" />
<circle cx="380.0" cy="374.24" r="5" fill="black" stroke="none" />
<path d="M412.0,446.24 L419.9891041517553,451.1206163545269" stroke="grey" stroke-width="5" />
<circle cx="419.9891041517553" cy="451.1206163545269" r="2.5" fill="grey" stroke="none" />
<path d="M419.9891041517553,451.12061635452693 A93.75999999999999,93.75999999999999,0,0,1,500.0,406.24" stroke="grey" stroke-width="5" fill="none" />
<circle cx="412.0" cy="446.24" r="5" fill="black" stroke="none" />
<circle cx="500.0" cy="406.24" r="5" fill="black" stroke="none" />
<path d="M380.0,374.24 L411.6154871077675,407.37303048894034" stroke="grey" stroke-width="5" />
<circle cx="411.6154871077675" cy="407.37303048894034" r="2.5" fill="grey" stroke="none" />
<path d="M411.6154871077675,407.37303048894034 A128.0295965782912,128.0295965782912,0,0,1,524.0,374.24" stroke="grey" stroke-width="5" fill="none" />
<circle cx="380.0" cy="374.24" r="5" fill="black" stroke="none" />
<circle cx="524.0" cy="374.24" r="5" fill="black" stroke="none" />
<path d="M500.0,406.24 A93.75999999999999,93.75999999999999,0,0,1,517.5759360346336,407.9020951785196" stroke="grey" stroke-width="5" fill="none" />
<path d="M517.5759360346336,407.9020951785196 L524.0,374.24" stroke="grey" stroke-width="5" />
<circle cx="517.5759360346336" cy="407.9020951785196" r="2.5" fill="grey" stroke="none" />
<circle cx="500.0" cy="406.24" r="5" fill="black" stroke="none" />
<circle cx="524.0" cy="374.24" r="5" fill="black" stroke="none" />
<path d="M260.0,526.24 L377.89224779093274,513.350447574858" stroke="grey" stroke-width="5" />
<circle cx="377.89224779093274" cy="513.350447574858" r="2.5" fill="grey" stroke="none" />
<path d="M377.89224779093274,513.3504475748581 A122.83540857586627,122.83540857586627,0,0,0,380.0,526.24" stroke="grey" stroke-width="5" fill="none" />
<circle cx="260.0" cy="526.24" r="5" fill="black" stroke="none" />
<circle cx="380.0" cy="526.24" r="5" fill="black" stroke="none" />
<path d="M380.0,526.24 L427.9298877498485,515.7593312120331" stroke="grey" stroke-width="5" />
<circle cx="427.9298877498485" cy="515.7593312120331" r="2.5" fill="grey" stroke="none" />
<path d="M427.9298877498485,515.7593312120331 A73.7730140362992,73.7730140362992,0,0,1,476.0,430.24" stroke="grey" stroke-width="5" fill="none" />
<circle cx="380.0" cy="526.24" r="5" fill="black" stroke="none" />
<circle cx="476.0" cy="430.24" r="5" fill="black" stroke="none" />
<path d="M476.0,430.24 A73.7730140362992,73.7730140362992,0,0,1,500.0,426.2269859637008" stroke="grey" stroke-width="5" fill="none" />
<path d="M500.0,426.2269859637008 L500.0,406.24" stroke="grey" stroke-width="5" />
<circle cx="500.0" cy="426.2269859637008" r="2.5" fill="grey" stroke="none" />
<circle cx="476.0" cy="430.24" r="5" fill="black" stroke="none" />
<circle cx="500.0" cy="406.24" r="5" fill="black" stroke="none" />
<path d="M500.0,406.24 L500.0,430.24" stroke="grey" stroke-width="5" />
<circle cx="500.0" cy="430.24" r="2.5" fill="grey" stroke="none" />
<path d="M500.0,430.24 A69.75999999999999,69.75999999999999,0,0,1,500.0,430.24" stroke="grey" stroke-width="5" fill="none" />
<circle cx="500.0" cy="406.24" r="5" fill="black" stroke="none" />
<circle cx="500.0" cy="430.24" r="5" fill="black" stroke="none" />
<path d="M500.0,430.24 L500.0,606.24" stroke="grey" stroke-width="5" />
<circle cx="500.0" cy="430.24" r="5" fill="black" stroke="none" />
<circle cx="500.0" cy="606.24" r="5" fill="black" stroke="none" />
<path d="M500.0,606.24 A106.24000000000001,106.24000000000001,0,0,0,571.228082015258,578.8257440968855" stroke="grey" stroke-width="5" fill="none" />
<path d="M571.228082015258,578.8257440968855 L596.0,606.24" stroke="grey" stroke-width="5" />
<circle cx="571.228082015258" cy="578.8257440968855" r="2.5" fill="grey" stroke="none" />
<circle cx="500.0" cy="606.24" r="5" fill="black" stroke="none" />
<circle cx="596.0" cy="606.24" r="5" fill="black" stroke="none" />
<path d="M500.0,606.24 A106.24000000000001,106.24000000000001,0,0,1,500.0,606.24" stroke="grey" stroke-width="5" fill="none" />
<path d="M500.0,606.24 L500.0,654.24" stroke="grey" stroke-width="5" />
<circle cx="500.0" cy="606.24" r="2.5" fill="grey" stroke="none" />
<circle cx="500.0" cy="606.24" r="5" fill="black" stroke="none" />
<circle cx="500.0" cy="654.24" r="5" fill="black" stroke="none" />
<path d="M188.0,230.24 L276.6589032184688,306.8958517058146" stroke="grey" stroke-width="5" />
<circle cx="276.6589032184688" cy="306.8958517058146" r="2.5" fill="grey" stroke="none" />
<path d="M276.65890321846894,306.89585170581455 A295.2464353722158,295.2464353722158,0,0,1,380.0,230.24" stroke="grey" stroke-width="5" fill="none" />
<circle cx="188.0" cy="230.24" r="5" fill="black" stroke="none" />
<circle cx="380.0" cy="230.24" r="5" fill="black" stroke="none" />
<path d="M380.0,230.24 L429.350021592593,341.17884854014903" stroke="grey" stroke-width="5" />
<circle cx="429.350021592593" cy="341.17884854014903" r="2.5" fill="grey" stroke="none" />
<path d="M429.350021592593,341.17884854014903 A173.8262856992578,173.8262856992578,0,0,0,380.0,374.24" stroke="grey" stroke-width="5" fill="none" />
<circle cx="380.0" cy="230.24" r="5" fill="black" stroke="none" />
<circle cx="380.0" cy="374.24" r="5" fill="black" stroke="none" />
<path d="M380.0,230.24 A295.2464353722158,295.2464353722158,0,0,1,404.1856110389759,220.73299430826853" stroke="grey" stroke-width="5" fill="none" />
<path d="M404.18561103897594,220.73299430826853 L380.0,150.24" stroke="grey" stroke-width="5" />
<circle cx="404.18561103897594" cy="220.73299430826853" r="2.5" fill="grey" stroke="none" />
<circle cx="380.0" cy="230.24" r="5" fill="black" stroke="none" />
<circle cx="380.0" cy="150.24" r="5" fill="black" stroke="none" />
<path d="M379.9999999999999,150.24 A369.7729811654713,369.7729811654713,0,0,1,395.1327310481207,145.40880791737902" stroke="grey" stroke-width="5" fill="none" />
<path d="M395.1327310481207,145.40880791737902 L380.0,94.24000000000001" stroke="grey" stroke-width="5" />
<circle cx="395.1327310481207" cy="145.40880791737902" r="2.5" fill="grey" stroke="none" />
<circle cx="380.0" cy="150.24" r="5" fill="black" stroke="none" />
<circle cx="380.0" cy="94.24000000000001" r="5" fill="black" stroke="none" />
<path d="M380.0,150.24 L417.2814401430415,258.9029708702516" stroke="grey" stroke-width="5" />
<circle cx="417.2814401430415" cy="258.9029708702516" r="2.5" fill="grey" stroke="none" />
<path d="M417.28144014304144,258.9029708702516 A254.89240396685028,254.89240396685028,0,0,1,476.0,246.24000000000004" stroke="grey" stroke-width="5" fill="none" />
<circle cx="380.0" cy="150.24" r="5" fill="black" stroke="none" />
<circle cx="476.0" cy="246.24" r="5" fill="black" stroke="none" />
<path d="M380.0,230.24 L396.4014978285478,267.1105671185753" stroke="grey" stroke-width="5" />
<circle cx="396.4014978285478" cy="267.1105671185753" r="2.5" fill="grey" stroke="none" />
<path d="M396.4014978285478,267.1105671185753 A254.89240396685028,254.89240396685028,0,0,1,476.0,246.24000000000004" stroke="grey" stroke-width="5" fill="none" />
<circle cx="380.0" cy="230.24" r="5" fill="black" stroke="none" />
<circle cx="476.0" cy="246.24" r="5" fill="black" stroke="none" />
<path d="M476.0,246.24 L482.73740694816473,317.4768494652617" stroke="grey" stroke-width="5" />
<circle cx="482.73740694816473" cy="317.4768494652617" r="2.5" fill="grey" stroke="none" />
<path d="M482.73740694816473,317.4768494652617 A183.3376600701558,183.3376600701558,0,0,1,524.0,318.24" stroke="grey" stroke-width="5" fill="none" />
<circle cx="476.0" cy="246.24" r="5" fill="black" stroke="none" />
<circle cx="524.0" cy="318.24" r="5" fill="black" stroke="none" />
<path d="M476.0,430.24 L477.3055225969728,434.03471901520095" stroke="grey" stroke-width="5" />
<circle cx="477.3055225969728" cy="434.03471901520095" r="2.5" fill="grey" stroke="none" />
<path d="M477.3055225969728,434.03471901520095 A69.75999999999999,69.75999999999999,0,0,1,500.0,430.24" stroke="grey" stroke-width="5" fill="none" />
<circle cx="476.0" cy="430.24" r="5" fill="black" stroke="none" />
<circle cx="500.0" cy="430.24" r="5" fill="black" stroke="none" />
<path d="M500.0,430.24 A69.75999999999999,69.75999999999999,0,0,1,522.6944774030272,434.03471901520095" stroke="grey" stroke-width="5" fill="none" />
<path d="M522.6944774030272,434.03471901520095 L524.0,430.24" stroke="grey" stroke-width="5" />
<circle cx="522.6944774030272" cy="434.03471901520095" r="2.5" fill="grey" stroke="none" />
<circle cx="500.0" cy="430.24" r="5" fill="black" stroke="none" />
<circle cx="524.0" cy="430.24" r="5" fill="black" stroke="none" />
<path d="M524.0,430.24 A73.7730140362992,73.7730140362992,0,0,0,513.8292424891652,427.5347693567745" stroke="grey" stroke-width="5" fill="none" />
<path d="M513.8292424891652,427.5347693567745 L524.0,374.24" stroke="grey" stroke-width="5" />
<circle cx="513.8292424891652" cy="427.5347693567745" r="2.5" fill="grey" stroke="none" />
<circle cx="524.0" cy="430.24" r="5" fill="black" stroke="none" />
<circle cx="524.0" cy="374.24" r="5" fill="black" stroke="none" />
<path d="M524.0,374.24 A128.0295965782912,128.0295965782912,0,0,0,521.37132487361,373.76670774654326" stroke="grey" stroke-width="5" fill="none" />
<path d="M521.3713248736101,373.76670774654326 L524.0,358.24" stroke="grey" stroke-width="5" />
<circle cx="521.3713248736101" cy="373.76670774654326" r="2.5" fill="grey" stroke="none" />
<circle cx="524.0" cy="374.24" r="5" fill="black" stroke="none" />
<circle cx="524.0" cy="358.24" r="5" fill="black" stroke="none" />
<path d="M524.0,358.24 A143.7772499389246,143.7772499389246,0,0,0,521.6240106112718,357.8581702485732" stroke="grey" stroke-width="5" fill="none" />
<path d="M521.6240106112718,357.8581702485732 L524.0,342.24" stroke="grey" stroke-width="5" />
<circle cx="521.6240106112718" cy="357.8581702485732" r="2.5" fill="grey" stroke="none" />
<circle cx="524.0" cy="358.24" r="5" fill="black" stroke="none" />
<circle cx="524.0" cy="342.24" r="5" fill="black" stroke="none" />
<path d="M524.0,342.24 A159.57511585457175,159.57511585457175,0,0,0,520.8893403518089,341.7980624023009" stroke="grey" stroke-width="5" fill="none" />
<path d="M520.8893403518089,341.7980624023009 L524.0,318.24" stroke="grey" stroke-width="5" />
<circle cx="520.8893403518089" cy="341.7980624023009" r="2.5" fill="grey" stroke="none" />
<circle cx="524.0" cy="342.24" r="5" fill="black" stroke="none" />
<circle cx="524.0" cy="318.24" r="5" fill="black" stroke="none" />
<path d="M524.0,318.24 A183.3376600701558,183.3376600701558,0,0,1,567.5203796974321,329.5485525860381" stroke="grey" stroke-width="5" fill="none" />
<path d="M567.5203796974321,329.5485525860381 L572.0,318.24" stroke="grey" stroke-width="5" />
<circle cx="567.5203796974321" cy="329.5485525860381" r="2.5" fill="grey" stroke="none" />
<circle cx="524.0" cy="318.24" r="5" fill="black" stroke="none" />
<circle cx="572.0" cy="318.24" r="5" fill="black" stroke="none" />
<path d="M572.0,318.24 L558.5559251415245,352.1788200871737" stroke="grey" stroke-width="5" />
<circle cx="558.5559251415245" cy="352.1788200871737" r="2.5" fill="grey" stroke="none" />
<path d="M558.5559251415245,352.1788200871737 A158.99653329554076,158.99653329554076,0,0,1,572.0,358.24" stroke="grey" stroke-width="5" fill="none" />
<circle cx="572.0" cy="318.24" r="5" fill="black" stroke="none" />
<circle cx="572.0" cy="358.24" r="5" fill="black" stroke="none" />
<path d="M572.0,358.24 L565.1080987807482,371.8093877339048" stroke="grey" stroke-width="5" />
<circle cx="565.1080987807482" cy="371.8093877339048" r="2.5" fill="grey" stroke="none" />
<path d="M565.1080987807482,371.8093877339048 A143.7772499389246,143.7772499389246,0,0,0,524.0,358.24" stroke="grey" stroke-width="5" fill="none" />
<circle cx="572.0" cy="358.24" r="5" fill="black" stroke="none" />
<circle cx="524.0" cy="358.24" r="5" fill="black" stroke="none" />
<path d="M524.0,342.24 A159.57511585457175,159.57511585457175,0,0,1,587.8291636824079,366.76991478330126" stroke="grey" stroke-width="5" fill="none" />
<path d="M587.8291636824079,366.76991478330126 L604.0,342.24" stroke="grey" stroke-width="5" />
<circle cx="587.8291636824079" cy="366.76991478330126" r="2.5" fill="grey" stroke="none" />
<circle cx="524.0" cy="342.24" r="5" fill="black" stroke="none" />
<circle cx="604.0" cy="342.24" r="5" fill="black" stroke="none" />
<circle cx="500" cy="500" r="5" fill="red" stroke="none" />
</svg>