<?xml version="1.0" encoding="UTF-8"?>
<svg xmlns="http://www.w3.org/2000/svg" xmlns:xlink="http://www.w3.org/1999/xlink"
     width="1000" height="1000" viewBox="0 0 1000 1000">
<defs>
</defs>
<rect x="0" y="0" width="1000" height="1000" fill="white" />
<path d="M132.57600000000002,267.23199999999997 L168.81274311218334,290.1884596235866" stroke="grey" stroke-width="5" />
<circle cx="168.81274311218334" cy="290.1884596235866" r="2.5" fill="grey" stroke="none" />
<path d="M168.81274311218334,290.1884596235866 A392.0534167686847,392.0534167686847,0,0,0,132.57600000000002,363.23199999999997" stroke="grey" stroke-width="5" fill="none" />
<circle cx="132.57600000000002" cy="267.23199999999997" r="5" fill="black" stroke="none" />
<circle cx="132.57600000000002" cy="363.23199999999997" r="5" fill="black" stroke="none" />
<path d="M132.57600000000002,363.23199999999997 L205.73553803683865,390.46452617744717" stroke="grey" stroke-width="5" />
<circle cx="205.73553803683865" cy="390.46452617744717" r="2.5" fill="grey" stroke="none" />
<path d="M205.73553803683865,390.46452617744717 A313.9897985603991,313.9897985603991,0,0,0,196.57600000000002,419.23199999999997" stroke="grey" stroke-width="5" fill="none" />
<circle cx="132.57600000000002" cy="363.23199999999997" r="5" fill="black" stroke="none" />
<circle cx="196.57600000000002" cy="419.23199999999997" r="5" fill="black" stroke="none" />
<path d="M108.57600000000002,419.23199999999997 L192.48855031877548,436.5468526001136" stroke="grey" stroke-width="5" />
<circle cx="192.48855031877548" cy="436.5468526001136" r="2.5" fill="grey" stroke="none" />
<path d="M192.48855031877542,436.5468526001137 A313.9897985603991,313.9897985603991,0,0,1,196.57600000000002,419.23199999999997" stroke="grey" stroke-width="5" fill="none" />
<circle cx="108.57600000000002" cy="419.23199999999997" r="5" fill="black" stroke="none" />
<circle cx="196.57600000000002" cy="419.23199999999997" r="5" fill="black" stroke="none" />
<path d="M196.57600000000002,419.23199999999997 L271.4518505003423,439.1630954084437" stroke="grey" stroke-width="5" />
<circle cx="271.4518505003423" cy="439.1630954084437" r="2.5" fill="grey" stroke="none" />
<path d="M271.4518505003423,439.1630954084437 A236.50662908256925,236.50662908256925,0,0,0,268.576,451.232" stroke="grey" stroke-width="5" fill="none" />
<circle cx="196.57600000000002" cy="419.23199999999997" r="5" fill="black" stroke="none" />
<circle cx="268.576" cy="451.23199999999997" r="5" fill="black" stroke="none" />
<path d="M268.576,451.23199999999997 L286.78089743033087,455.0683196465465" stroke="grey" stroke-width="5" />
<circle cx="286.78089743033087" cy="455.0683196465465" r="2.5" fill="grey" stroke="none" />
<path d="M286.78089743033087,455.0683196465465 A217.9019082064221,217.9019082064221,0,0,0,284.576,467.2319999999999" stroke="grey" stroke-width="5" fill="none" />
<circle cx="268.576" cy="451.23199999999997" r="5" fill="black" stroke="none" />
<circle cx="284.576" cy="467.23199999999997" r="5" fill="black" stroke="none" />
<path d="M284.576,467.23199999999997 L318.6602473478382,472.4165319792314" stroke="grey" stroke-width="5" />
<circle cx="318.6602473478382" cy="472.4165319792314" r="2.5" fill="grey" stroke="none" />
<path d="M318.6602473478382,472.4165319792314 A183.42560780872444,183.42560780872444,0,0,0,316.576,499.2320000000001" stroke="grey" stroke-width="5" fill="none" />
<circle cx="284.576" cy="467.23199999999997" r="5" fill="black" stroke="none" />
<circle cx="316.576" cy="499.23199999999997" r="5" fill="black" stroke="none" />
<path d="M284.576,467.2319999999999 A217.9019082064221,217.9019082064221,0,0,0,289.6527819340025,556.8796048851933" stroke="grey" stroke-width="5" fill="none" />
<path d="M289.6527819340025,556.8796048851932 L-263.424,71.23199999999997" stroke="grey" stroke-width="5" />
<circle cx="289.6527819340025" cy="556.8796048851932" r="2.5" fill="grey" stroke="none" />
<circle cx="284.576" cy="467.23199999999997" r="5" fill="black" stroke="none" />
<circle cx="236.57600000000002" cy="571.232" r="5" fill="black" stroke="none" />
<path d="M236.57600000000002,571.2320000000001 A272.88496037707904,272.88496037707904,0,0,0,263.3424315134331,635.8653630548488" stroke="grey" stroke-width="5" fill="none" />
<path d="M263.34243151343304,635.8653630548488 L-263.424,151.23199999999997" stroke="grey" stroke-width="5" />
<circle cx="263.34243151343304" cy="635.8653630548488" r="2.5" fill="grey" stroke="none" />
<circle cx="236.57600000000002" cy="571.232" r="5" fill="black" stroke="none" />
<circle cx="236.57600000000002" cy="651.232" r="5" fill="black" stroke="none" />
<path d="M132.57600000000002,667.232 L223.53999506821862,625.8299935354023" stroke="grey" stroke-width="5" />
<circle cx="223.53999506821862" cy="625.8299935354023" r="2.5" fill="grey" stroke="none" />
<path d="M223.53999506821856,625.8299935354022 A303.7487804090742,303.7487804090742,0,0,0,236.57600000000008,651.232" stroke="grey" stroke-width="5" fill="none" />
<circle cx="132.57600000000002" cy="667.232" r="5" fill="black" stroke="none" />
<circle cx="236.57600000000002" cy="651.232" r="5" fill="black" stroke="none" />
<path d="M236.57600000000008,651.232 A303.7487804090742,303.7487804090742,0,0,0,288.37638457486855,717.8962298765081" stroke="grey" stroke-width="5" fill="none" />
<path d="M288.37638457486855,717.8962298765081 L-263.424,271.23199999999997" stroke="grey" stroke-width="5" />
<circle cx="288.37638457486855" cy="717.8962298765081" r="2.5" fill="grey" stroke="none" />
<circle cx="236.57600000000002" cy="651.232" r="5" fill="black" stroke="none" />
<circle cx="236.57600000000002" cy="771.232" r="5" fill="black" stroke="none" />
<path d="M236.57600000000002,571.232 L310.05221877289205,551.3634306379424" stroke="grey" stroke-width="5" />
<circle cx="310.05221877289205" cy="551.3634306379424" r="2.5" fill="grey" stroke="none" />
<path d="M310.05221877289205,551.3634306379425 A196.76981882392428,196.76981882392428,0,0,0,316.576,571.2319999999999" stroke="grey" stroke-width="5" fill="none" />
<circle cx="236.57600000000002" cy="571.232" r="5" fill="black" stroke="none" />
<circle cx="316.576" cy="571.232" r="5" fill="black" stroke="none" />
<path d="M316.576,499.2320000000001 A183.42560780872444,183.42560780872444,0,0,0,329.01514628717655,566.4013057161103" stroke="grey" stroke-width="5" fill="none" />
<path d="M329.01514628717655,566.4013057161104 L-183.42399999999998,71.23199999999997" stroke="grey" stroke-width="5" />
<circle cx="329.01514628717655" cy="566.4013057161104" r="2.5" fill="grey" stroke="none" />
<circle cx="316.576" cy="499.23199999999997" r="5" fill="black" stroke="none" />
<circle cx="316.576" cy="571.232" r="5" fill="black" stroke="none" />
<path d="M316.576,571.232 L376.72246054567324,547.8743549939517" stroke="grey" stroke-width="5" />
<circle cx="376.72246054567324" cy="547.8743549939517" r="2.5" fill="grey" stroke="none" />
<path d="M376.72246054567324,547.8743549939517 A132.24713834333048,132.24713834333048,0,0,0,388.576,571.232" stroke="grey" stroke-width="5" fill="none" />
<circle cx="316.576" cy="571.232" r="5" fill="black" stroke="none" />
<circle cx="388.576" cy="571.232" r="5" fill="black" stroke="none" />
<path d="M316.576,499.23199999999997 L356.57520098433554,499.3994774639958" stroke="grey" stroke-width="5" />
<circle cx="356.57520098433554" cy="499.3994774639958" r="2.5" fill="grey" stroke="none" />
<path d="M356.57520098433554,499.3994774639959 A143.42605621016006,143.42605621016006,0,0,1,356.576,499.2319999999999" stroke="grey" stroke-width="5" fill="none" />
<circle cx="316.576" cy="499.23199999999997" r="5" fill="black" stroke="none" />
<circle cx="356.576" cy="499.23199999999997" r="5" fill="black" stroke="none" />
<path d="M388.576,571.232 L467.1070919606074,521.0280336862975" stroke="grey" stroke-width="5" />
<circle cx="467.1070919606074" cy="521.0280336862975" r="2.5" fill="grey" stroke="none" />
<path d="M467.1070919606074,521.0280336862975 A39.039999999999964,39.039999999999964,0,0,0,476.576,531.232" stroke="grey" stroke-width="5" fill="none" />
<circle cx="388.576" cy="571.232" r="5" fill="black" stroke="none" />
<circle cx="476.576" cy="531.232" r="5" fill="black" stroke="none" />
<path d="M356.576,499.23199999999997 L499.04001376292285,499.99485951144806" stroke="grey" stroke-width="5" />
<circle cx="499.04001376292285" cy="499.99485951144806" r="2.5" fill="grey" stroke="none" />
<path d="M499.04001376292285,499.99485951144806 A0.9600000000000364,0.9600000000000364,0,0,1,500.576,499.23199999999997" stroke="grey" stroke-width="5" fill="none" />
<circle cx="356.576" cy="499.23199999999997" r="5" fill="black" stroke="none" />
<circle cx="500.576" cy="499.23199999999997" r="5" fill="black" stroke="none" />
<path d="M476.576,531.232 L500.576,499.23199999999997" stroke="grey" stroke-width="5" />
<circle cx="476.576" cy="531.232" r="5" fill="black" stroke="none" />
<circle cx="500.576" cy="499.23199999999997" r="5" fill="black" stroke="none" />
<path d="M236.57600000000002,651.232 L319.24367147776593,603.7724014329541" stroke="grey" stroke-width="5" />
<circle cx="319.24367147776593" cy="603.7724014329541" r="2.5" fill="grey" stroke="none" />
<path d="M319.24367147776593,603.7724014329541 A208.42639372210033,208.42639372210033,0,0,0,356.576,651.232" stroke="grey" stroke-width="5" fill="none" />
<circle cx="236.57600000000002" cy="651.232" r="5" fill="black" stroke="none" />
<circle cx="356.576" cy="651.232" r="5" fill="black" stroke="none" />
<path d="M356.576,651.232 L449.90538360129545,552.8217664213024" stroke="grey" stroke-width="5" />
<circle cx="449.90538360129545" cy="552.8217664213024" r="2.5" fill="grey" stroke="none" />
<path d="M449.90538360129545,552.8217664213024 A72.79841756521905,72.79841756521905,0,0,0,452.576,555.232" stroke="grey" stroke-width="5" fill="none" />
<circle cx="356.576" cy="651.232" r="5" fill="black" stroke="none" />
<circle cx="452.576" cy="555.232" r="5" fill="black" stroke="none" />
<path d="M452.576,555.232 L474.56767575557086,529.6195625140922" stroke="grey" stroke-width="5" />
<circle cx="474.56767575557086" cy="529.6195625140922" r="2.5" fill="grey" stroke="none" />
<path d="M474.56767575557086,529.6195625140922 A39.039999999999964,39.039999999999964,0,0,0,476.576,531.232" stroke="grey" stroke-width="5" fill="none" />
<circle cx="452.576" cy="555.232" r="5" fill="black" stroke="none" />
<circle cx="476.576" cy="531.232" r="5" fill="black" stroke="none" />
<path d="M476.576,531.232 A39.039999999999964,39.039999999999964,0,0,0,484.75721221817713,535.9413274746261" stroke="grey" stroke-width="5" fill="none" />
<path d="M484.75721221817713,535.9413274746261 L-23.423999999999978,55.23199999999997" stroke="grey" stroke-width="5" />
<circle cx="484.75721221817713" cy="535.9413274746261" r="2.5" fill="grey" stroke="none" />
<circle cx="476.576" cy="531.232" r="5" fill="black" stroke="none" />
<circle cx="476.576" cy="555.232" r="5" fill="black" stroke="none" />
<path d="M476.576,555.232 A59.99381301434337,59.99381301434337,0,0,0,493.9535201571677,559.6883379020577" stroke="grey" stroke-width="5" fill="none" />
<path d="M493.9535201571677,559.6883379020577 L-23.423999999999978,231.23199999999997" stroke="grey" stroke-width="5" />
<circle cx="493.9535201571677" cy="559.6883379020577" r="2.5" fill="grey" stroke="none" />
<circle cx="476.576" cy="555.232" r="5" fill="black" stroke="none" />
<circle cx="476.576" cy="731.232" r="5" fill="black" stroke="none" />
<path d="M476.5760000000001,731.232 A232.41540740665192,232.41540740665192,0,0,0,569.5997305612138,721.7494061002338" stroke="grey" stroke-width="5" fill="none" />
<path d="M569.5997305612137,721.749406100234 L72.57600000000002,231.23199999999997" stroke="grey" stroke-width="5" />
<circle cx="569.5997305612137" cy="721.749406100234" r="2.5" fill="grey" stroke="none" />
<circle cx="476.576" cy="731.232" r="5" fill="black" stroke="none" />
<circle cx="572.576" cy="731.232" r="5" fill="black" stroke="none" />
<path d="M476.5760000000001,731.232 A232.41540740665192,232.41540740665192,0,0,0,480.5715542420648,731.601936726425" stroke="grey" stroke-width="5" fill="none" />
<path d="M480.5715542420648,731.601936726425 L-23.423999999999978,279.23199999999997" stroke="grey" stroke-width="5" />
<circle cx="480.5715542420648" cy="731.601936726425" r="2.5" fill="grey" stroke="none" />
<circle cx="476.576" cy="731.232" r="5" fill="black" stroke="none" />
<circle cx="476.576" cy="779.232" r="5" fill="black" stroke="none" />
<path d="M164.57600000000002,355.23199999999997 L312.8978511321137,419.24726946400324" stroke="grey" stroke-width="5" />
<circle cx="312.8978511321137" cy="419.24726946400324" r="2.5" fill="grey" stroke="none" />
<path d="M312.8978511321137,419.24726946400324 A203.7847334811909,203.7847334811909,0,0,1,356.5759999999999,355.232" stroke="grey" stroke-width="5" fill="none" />
<circle cx="164.57600000000002" cy="355.23199999999997" r="5" fill="black" stroke="none" />
<circle cx="356.576" cy="355.23199999999997" r="5" fill="black" stroke="none" />
<path d="M356.576,355.23199999999997 L399.0565272752159,398.11060450537184" stroke="grey" stroke-width="5" />
<circle cx="399.0565272752159" cy="398.11060450537184" r="2.5" fill="grey" stroke="none" />
<path d="M399.05652727521584,398.11060450537184 A143.42605621016006,143.42605621016006,0,0,0,356.576,499.2319999999999" stroke="grey" stroke-width="5" fill="none" />
<circle cx="356.576" cy="355.23199999999997" r="5" fill="black" stroke="none" />
<circle cx="356.576" cy="499.23199999999997" r="5" fill="black" stroke="none" />
<path d="M356.5759999999999,355.232 A203.7847334811909,203.7847334811909,0,0,1,390.38099227221187,328.2097478179419" stroke="grey" stroke-width="5" fill="none" />
<path d="M390.38099227221187,328.2097478179419 L-143.42399999999998,-224.76800000000003" stroke="grey" stroke-width="5" />
<circle cx="390.38099227221187" cy="328.2097478179419" r="2.5" fill="grey" stroke="none" />
<circle cx="356.576" cy="355.23199999999997" r="5" fill="black" stroke="none" />
<circle cx="356.576" cy="275.23199999999997" r="5" fill="black" stroke="none" />
<path d="M356.5760000000001,275.2319999999999 A266.6291386926793,266.6291386926793,0,0,1,378.70753692064113,262.5568783894922" stroke="grey" stroke-width="5" fill="none" />
<path d="M378.70753692064113,262.5568783894922 L-143.42399999999998,-280.76800000000003" stroke="grey" stroke-width="5" />
<circle cx="378.70753692064113" cy="262.5568783894922" r="2.5" fill="grey" stroke="none" />
<circle cx="356.576" cy="275.23199999999997" r="5" fill="black" stroke="none" />
<circle cx="356.576" cy="219.23199999999997" r="5" fill="black" stroke="none" />
<path d="M356.576,275.23199999999997 L426.18543331836867,384.3209468157566" stroke="grey" stroke-width="5" />
<circle cx="426.18543331836867" cy="384.3209468157566" r="2.5" fill="grey" stroke="none" />
<path d="M426.18543331836867,384.3209468157566 A137.22329831336953,137.22329831336953,0,0,1,452.57599999999996,371.23199999999997" stroke="grey" stroke-width="5" fill="none" />
<circle cx="356.576" cy="275.23199999999997" r="5" fill="black" stroke="none" />
<circle cx="452.576" cy="371.23199999999997" r="5" fill="black" stroke="none" />
<path d="M356.576,355.23199999999997 L403.42203755359697,402.51702317993585" stroke="grey" stroke-width="5" />
<circle cx="403.42203755359697" cy="402.51702317993585" r="2.5" fill="grey" stroke="none" />
<path d="M403.4220375535969,402.5170231799359 A137.22329831336953,137.22329831336953,0,0,1,452.57599999999996,371.23199999999997" stroke="grey" stroke-width="5" fill="none" />
<circle cx="356.576" cy="355.23199999999997" r="5" fill="black" stroke="none" />
<circle cx="452.576" cy="371.23199999999997" r="5" fill="black" stroke="none" />
<path d="M452.576,371.23199999999997 L480.3801231686062,446.7271360529496" stroke="grey" stroke-width="5" />
<circle cx="480.3801231686062" cy="446.7271360529496" r="2.5" fill="grey" stroke="none" />
<path d="M480.3801231686062,446.7271360529496 A56.77092213448715,56.77092213448715,0,0,1,500.576,443.23199999999997" stroke="grey" stroke-width="5" fill="none" />
<circle cx="452.576" cy="371.23199999999997" r="5" fill="black" stroke="none" />
<circle cx="500.576" cy="443.23199999999997" r="5" fill="black" stroke="none" />
<path d="M452.576,555.232 L460.9174665665872,545.5171745654997" stroke="grey" stroke-width="5" />
<circle cx="460.9174665665872" cy="545.5171745654997" r="2.5" fill="grey" stroke="none" />
<path d="M460.9174665665872,545.5171745654997 A59.99381301434337,59.99381301434337,0,0,0,476.576,555.232" stroke="grey" stroke-width="5" fill="none" />
<circle cx="452.576" cy="555.232" r="5" fill="black" stroke="none" />
<circle cx="476.576" cy="555.232" r="5" fill="black" stroke="none" />
<path d="M476.576,555.232 L478.4340308690587,550.8509053551978" stroke="grey" stroke-width="5" />
<circle cx="478.4340308690587" cy="550.8509053551978" r="2.5" fill="grey" stroke="none" />
<path d="M478.4340308690587,550.8509053551978 A55.235003394586634,55.235003394586634,0,0,0,500.576,555.232" stroke="grey" stroke-width="5" fill="none" />
<circle cx="476.576" cy="555.232" r="5" fill="black" stroke="none" />
<circle cx="500.576" cy="555.232" r="5" fill="black" stroke="none" />
<path d="M500.576,555.232 L500.01001104310706,500.95994780015167" stroke="grey" stroke-width="5" />
<circle cx="500.01001104310706" cy="500.95994780015167" r="2.5" fill="grey" stroke="none" />
<path d="M500.01001104310706,500.95994780015167 A0.9600000000000364,0.9600000000000364,0,0,0,500.576,499.23199999999997" stroke="grey" stroke-width="5" fill="none" />
<circle cx="500.576" cy="555.232" r="5" fill="black" stroke="none" />
<circle cx="500.576" cy="499.23199999999997" r="5" fill="black" stroke="none" />
<path d="M500.576,499.23199999999997 A0.9600000000000364,0.9600000000000364,0,0,0,500.032957659931,499.04056589978677" stroke="grey" stroke-width="5" fill="none" />
<path d="M500.032957659931,499.04056589978677 L0.5760000000000218,-16.76800000000003" stroke="grey" stroke-width="5" />
<circle cx="500.032957659931" cy="499.04056589978677" r="2.5" fill="grey" stroke="none" />
<circle cx="500.576" cy="499.23199999999997" r="5" fill="black" stroke="none" />
<circle cx="500.576" cy="483.23199999999997" r="5" fill="black" stroke="none" />
<path d="M500.576,483.23199999999997 A16.777890213015493,16.777890213015493,0,0,0,500.29487829762616,483.2247012906002" stroke="grey" stroke-width="5" fill="none" />
<path d="M500.29487829762616,483.2247012906002 L0.5760000000000218,-32.76800000000003" stroke="grey" stroke-width="5" />
<circle cx="500.29487829762616" cy="483.2247012906002" r="2.5" fill="grey" stroke="none" />
<circle cx="500.576" cy="483.23199999999997" r="5" fill="black" stroke="none" />
<circle cx="500.576" cy="467.23199999999997" r="5" fill="black" stroke="none" />
<path d="M500.576,467.23199999999997 A32.77306210899436,32.77306210899436,0,0,0,500.33251677205567,467.22862479851807" stroke="grey" stroke-width="5" fill="none" />
<path d="M500.3325167720556,467.22862479851807 L0.5760000000000218,-56.76800000000003" stroke="grey" stroke-width="5" />
<circle cx="500.3325167720556" cy="467.22862479851807" r="2.5" fill="grey" stroke="none" />
<circle cx="500.576" cy="467.23199999999997" r="5" fill="black" stroke="none" />
<circle cx="500.576" cy="443.23199999999997" r="5" fill="black" stroke="none" />
<path d="M500.576,443.23199999999997 A56.77092213448715,56.77092213448715,0,0,1,536.9099702547275,456.8654234309048" stroke="grey" stroke-width="5" fill="none" />
<path d="M536.9099702547275,456.8654234309048 L48.57600000000002,-56.76800000000003" stroke="grey" stroke-width="5" />
<circle cx="536.9099702547275" cy="456.8654234309048" r="2.5" fill="grey" stroke="none" />
<circle cx="500.576" cy="443.23199999999997" r="5" fill="black" stroke="none" />
<circle cx="548.576" cy="443.23199999999997" r="5" fill="black" stroke="none" />
<path d="M548.576,443.23199999999997 L533.4106539372673,460.9548747795045" stroke="grey" stroke-width="5" />
<circle cx="533.4106539372673" cy="460.9548747795045" r="2.5" fill="grey" stroke="none" />
<path d="M533.4106539372673,460.9548747795045 A51.388652443900526,51.388652443900526,0,0,1,548.576,483.23199999999997" stroke="grey" stroke-width="5" fill="none" />
<circle cx="548.576" cy="443.23199999999997" r="5" fill="black" stroke="none" />
<circle cx="548.576" cy="483.23199999999997" r="5" fill="black" stroke="none" />
<path d="M548.576,483.23199999999997 L515.859586819817,494.52541271832405" stroke="grey" stroke-width="5" />
<circle cx="515.859586819817" cy="494.52541271832405" r="2.5" fill="grey" stroke="none" />
<path d="M515.859586819817,494.52541271832405 A16.777890213015493,16.777890213015493,0,0,0,500.576,483.23199999999997" stroke="grey" stroke-width="5" fill="none" />
<circle cx="548.576" cy="483.23199999999997" r="5" fill="black" stroke="none" />
<circle cx="500.576" cy="483.23199999999997" r="5" fill="black" stroke="none" />
<path d="M500.576,467.23199999999997 A32.77306210899436,32.77306210899436,0,0,1,530.3586777550155,487.65397695745196" stroke="grey" stroke-width="5" fill="none" />
<path d="M530.3586777550155,487.65397695745196 L80.57600000000002,-32.76800000000003" stroke="grey" stroke-width="5" />
<circle cx="530.3586777550155" cy="487.65397695745196" r="2.5" fill="grey" stroke="none" />
<circle cx="500.576" cy="467.23199999999997" r="5" fill="black" stroke="none" />
<circle cx="580.576" cy="467.23199999999997" r="5" fill="black" stroke="none" />
<circle cx="500" cy="500" r="5" fill="red" stroke="none" />
</svg>