<?xml version="1.0" encoding="UTF-8"?>
<svg xmlns="http://www.w3.org/2000/svg" xmlns:xlink="http://www.w3.org/1999/xlink"
     width="1000" height="1000" viewBox="0 0 1000 1000">
<defs>
</defs>
<rect x="0" y="0" width="1000" height="1000" fill="white" />
<path d="M276.0,372.03999999999996 L303.52880080287423,387.76582745864187" stroke="grey" stroke-width="5" />
<circle cx="303.52880080287423" cy="387.76582745864187" r="2.5" fill="grey" stroke="none" />
<path d="M303.52880080287423,387.76582745864187 A226.26851659035555,226.26851659035555,0,0,0,276.0,468.04" stroke="grey" stroke-width="5" fill="none" />
<circle cx="276.0" cy="372.03999999999996" r="5" fill="black" stroke="none" />
<circle cx="276.0" cy="468.03999999999996" r="5" fill="black" stroke="none" />
<path d="M276.0,468.03999999999996 L339.8262033024174,477.1466315068985" stroke="grey" stroke-width="5" />
<circle cx="339.8262033024174" cy="477.1466315068985" r="2.5" fill="grey" stroke="none" />
<path d="M339.8262033024174,477.1466315068985 A161.79592578306784,161.79592578306784,0,0,0,340.0,524.04" stroke="grey" stroke-width="5" fill="none" />
<circle cx="276.0" cy="468.03999999999996" r="5" fill="black" stroke="none" />
<circle cx="340.0" cy="524.04" r="5" fill="black" stroke="none" />
<path d="M252.0,524.04 L338.9589154606655,515.6105954529257" stroke="grey" stroke-width="5" />
<circle cx="338.9589154606655" cy="515.6105954529257" r="2.5" fill="grey" stroke="none" />
<path d="M338.9589154606655,515.6105954529257 A161.79592578306784,161.79592578306784,0,0,0,340.0,524.04" stroke="grey" stroke-width="5" fill="none" />
<circle cx="252.0" cy="524.04" r="5" fill="black" stroke="none" />
<circle cx="340.0" cy="524.04" r="5" fill="black" stroke="none" />
<path d="M340.0,524.04 L396.8293240207555,515.5013940658815" stroke="grey" stroke-width="5" />
<circle cx="396.8293240207555" cy="515.5013940658815" r="2.5" fill="grey" stroke="none" />
<path d="M396.8293240207555,515.5013940658814 A104.32871896079237,104.32871896079237,0,0,0,412.0,556.04" stroke="grey" stroke-width="5" fill="none" />
<circle cx="340.0" cy="524.04" r="5" fill="black" stroke="none" />
<circle cx="412.0" cy="556.04" r="5" fill="black" stroke="none" />
<path d="M412.0,556.04 L414.0893650190922,554.7094543673871" stroke="grey" stroke-width="5" />
<circle cx="414.0893650190922" cy="554.7094543673871" r="2.5" fill="grey" stroke="none" />
<path d="M414.0893650190922,554.7094543673871 A101.85166468939032,101.85166468939032,0,0,0,428.0,572.04" stroke="grey" stroke-width="5" fill="none" />
<circle cx="412.0" cy="556.04" r="5" fill="black" stroke="none" />
<circle cx="428.0" cy="572.04" r="5" fill="black" stroke="none" />
<path d="M428.0,572.04 A101.85166468939032,101.85166468939032,0,0,0,463.4496297451862,595.0675130327706" stroke="grey" stroke-width="5" fill="none" />
<path d="M463.4496297451862,595.0675130327706 L460.0,604.04" stroke="grey" stroke-width="5" />
<circle cx="463.4496297451862" cy="595.0675130327706" r="2.5" fill="grey" stroke="none" />
<circle cx="428.0" cy="572.04" r="5" fill="black" stroke="none" />
<circle cx="460.0" cy="604.04" r="5" fill="black" stroke="none" />
<path d="M428.0,572.04 A101.85166468939032,101.85166468939032,0,0,0,442.6321074696431,584.1586983420336" stroke="grey" stroke-width="5" fill="none" />
<path d="M442.6321074696431,584.1586983420336 L380.0,676.04" stroke="grey" stroke-width="5" />
<circle cx="442.6321074696431" cy="584.1586983420336" r="2.5" fill="grey" stroke="none" />
<circle cx="428.0" cy="572.04" r="5" fill="black" stroke="none" />
<circle cx="380.0" cy="676.04" r="5" fill="black" stroke="none" />
<path d="M380.0,676.04 A213.04948157646382,213.04948157646382,0,0,0,409.5861651051968,692.9129857205452" stroke="grey" stroke-width="5" fill="none" />
<path d="M409.5861651051968,692.9129857205452 L380.0,756.04" stroke="grey" stroke-width="5" />
<circle cx="409.5861651051968" cy="692.9129857205452" r="2.5" fill="grey" stroke="none" />
<circle cx="380.0" cy="676.04" r="5" fill="black" stroke="none" />
<circle cx="380.0" cy="756.04" r="5" fill="black" stroke="none" />
<path d="M276.0,772.04 L320.2594990443894,718.2884191069836" stroke="grey" stroke-width="5" />
<circle cx="320.2594990443894" cy="718.2884191069836" r="2.5" fill="grey" stroke="none" />
<path d="M320.2594990443894,718.2884191069836 A282.76577162025814,282.76577162025814,0,0,0,380.00000000000006,756.04" stroke="grey" stroke-width="5" fill="none" />
<circle cx="276.0" cy="772.04" r="5" fill="black" stroke="none" />
<circle cx="380.0" cy="756.04" r="5" fill="black" stroke="none" />
<path d="M380.00000000000006,756.04 A282.76577162025814,282.76577162025814,0,0,0,414.03614540941777,769.3820656686878" stroke="grey" stroke-width="5" fill="none" />
<path d="M414.03614540941777,769.3820656686878 L380.0,876.04" stroke="grey" stroke-width="5" />
<circle cx="414.03614540941777" cy="769.3820656686878" r="2.5" fill="grey" stroke="none" />
<circle cx="380.0" cy="756.04" r="5" fill="black" stroke="none" />
<circle cx="380.0" cy="876.04" r="5" fill="black" stroke="none" />
<path d="M380.0,676.04 L398.3181385137793,649.1672908002857" stroke="grey" stroke-width="5" />
<circle cx="398.3181385137793" cy="649.1672908002857" r="2.5" fill="grey" stroke="none" />
<path d="M398.3181385137793,649.1672908002857 A180.5272322947427,180.5272322947427,0,0,0,460.00000000000006,676.04" stroke="grey" stroke-width="5" fill="none" />
<circle cx="380.0" cy="676.04" r="5" fill="black" stroke="none" />
<circle cx="460.0" cy="676.04" r="5" fill="black" stroke="none" />
<path d="M460.0,604.04 A111.46444096661499,111.46444096661499,0,0,0,475.3024649966096,608.6938515499212" stroke="grey" stroke-width="5" fill="none" />
<path d="M475.3024649966096,608.6938515499212 L460.0,676.04" stroke="grey" stroke-width="5" />
<circle cx="475.3024649966096" cy="608.6938515499212" r="2.5" fill="grey" stroke="none" />
<circle cx="460.0" cy="604.04" r="5" fill="black" stroke="none" />
<circle cx="460.0" cy="676.04" r="5" fill="black" stroke="none" />
<path d="M460.0,676.04 L460.3550576020935,674.4773914931866" stroke="grey" stroke-width="5" />
<circle cx="460.3550576020935" cy="674.4773914931866" r="2.5" fill="grey" stroke="none" />
<path d="M460.35505760209355,674.4773914931866 A178.92479313946404,178.92479313946404,0,0,0,532.0,676.04" stroke="grey" stroke-width="5" fill="none" />
<circle cx="460.0" cy="676.04" r="5" fill="black" stroke="none" />
<circle cx="532.0" cy="676.04" r="5" fill="black" stroke="none" />
<path d="M460.0,604.04 L462.6643262738253,597.1100873617804" stroke="grey" stroke-width="5" />
<circle cx="462.6643262738253" cy="597.1100873617804" r="2.5" fill="grey" stroke="none" />
<path d="M462.6643262738253,597.1100873617804 A104.03999999999999,104.03999999999999,0,0,0,500.0,604.04" stroke="grey" stroke-width="5" fill="none" />
<circle cx="460.0" cy="604.04" r="5" fill="black" stroke="none" />
<circle cx="500.0" cy="604.04" r="5" fill="black" stroke="none" />
<path d="M532.0,676.04 A178.92479313946404,178.92479313946404,0,0,0,618.3609399853578,634.181852296734" stroke="grey" stroke-width="5" fill="none" />
<path d="M618.3609399853578,634.181852296734 L620.0,636.04" stroke="grey" stroke-width="5" />
<circle cx="618.3609399853578" cy="634.181852296734" r="2.5" fill="grey" stroke="none" />
<circle cx="532.0" cy="676.04" r="5" fill="black" stroke="none" />
<circle cx="620.0" cy="636.04" r="5" fill="black" stroke="none" />
<path d="M500.0,604.04 A104.03999999999999,104.03999999999999,0,0,0,584.3319467011576,560.9298314915864" stroke="grey" stroke-width="5" fill="none" />
<path d="M584.3319467011576,560.9298314915864 L644.0,604.04" stroke="grey" stroke-width="5" />
<circle cx="584.3319467011576" cy="560.9298314915864" r="2.5" fill="grey" stroke="none" />
<circle cx="500.0" cy="604.04" r="5" fill="black" stroke="none" />
<circle cx="644.0" cy="604.04" r="5" fill="black" stroke="none" />
<path d="M620.0,636.04 L617.5191365132495,633.2275277605204" stroke="grey" stroke-width="5" />
<circle cx="617.5191365132495" cy="633.2275277605204" r="2.5" fill="grey" stroke="none" />
<path d="M617.5191365132495,633.2275277605204 A177.6522490710433,177.6522490710433,0,0,0,644.0,604.04" stroke="grey" stroke-width="5" fill="none" />
<circle cx="620.0" cy="636.04" r="5" fill="black" stroke="none" />
<circle cx="644.0" cy="604.04" r="5" fill="black" stroke="none" />
<path d="M380.0,756.04 L391.34186990191296,731.8402302526185" stroke="grey" stroke-width="5" />
<circle cx="391.34186990191296" cy="731.8402302526185" r="2.5" fill="grey" stroke="none" />
<path d="M391.34186990191296,731.8402302526185 A256.03999999999996,256.03999999999996,0,0,0,500.0,756.04" stroke="grey" stroke-width="5" fill="none" />
<circle cx="380.0" cy="756.04" r="5" fill="black" stroke="none" />
<circle cx="500.0" cy="756.04" r="5" fill="black" stroke="none" />
<path d="M500.0,756.04 L500.0,686.6247614867866" stroke="grey" stroke-width="5" />
<circle cx="500.0" cy="686.6247614867866" r="2.5" fill="grey" stroke="none" />
<path d="M500.0,686.6247614867866 A186.62476148678664,186.62476148678664,0,0,0,596.0,660.04" stroke="grey" stroke-width="5" fill="none" />
<circle cx="500.0" cy="756.04" r="5" fill="black" stroke="none" />
<circle cx="596.0" cy="660.04" r="5" fill="black" stroke="none" />
<path d="M596.0,660.04 L593.3136831513705,655.5616859535972" stroke="grey" stroke-width="5" />
<circle cx="593.3136831513705" cy="655.5616859535972" r="2.5" fill="grey" stroke="none" />
<path d="M593.3136831513706,655.5616859535972 A181.4025402247719,181.4025402247719,0,0,0,620.0,636.04" stroke="grey" stroke-width="5" fill="none" />
<circle cx="596.0" cy="660.04" r="5" fill="black" stroke="none" />
<circle cx="620.0" cy="636.04" r="5" fill="black" stroke="none" />
<path d="M620.0,636.04 A181.4025402247719,181.4025402247719,0,0,1,608.8241114936159,645.1350900286524" stroke="grey" stroke-width="5" fill="none" />
<path d="M608.8241114936159,645.1350900286524 L620.0,660.04" stroke="grey" stroke-width="5" />
<circle cx="608.8241114936159" cy="645.1350900286524" r="2.5" fill="grey" stroke="none" />
<circle cx="620.0" cy="636.04" r="5" fill="black" stroke="none" />
<circle cx="620.0" cy="660.04" r="5" fill="black" stroke="none" />
<path d="M620.0,660.04 A200.03200143976963,200.03200143976963,0,0,1,567.2709400882345,688.3810558937527" stroke="grey" stroke-width="5" fill="none" />
<path d="M567.2709400882345,688.3810558937527 L620.0,836.04" stroke="grey" stroke-width="5" />
<circle cx="567.2709400882345" cy="688.3810558937527" r="2.5" fill="grey" stroke="none" />
<circle cx="620.0" cy="660.04" r="5" fill="black" stroke="none" />
<circle cx="620.0" cy="836.04" r="5" fill="black" stroke="none" />
<path d="M620.0,836.04 A356.8233198657285,356.8233198657285,0,0,0,692.9386663376496,800.1625436856656" stroke="grey" stroke-width="5" fill="none" />
<path d="M692.9386663376496,800.1625436856656 L716.0,836.04" stroke="grey" stroke-width="5" />
<circle cx="692.9386663376496" cy="800.1625436856656" r="2.5" fill="grey" stroke="none" />
<circle cx="620.0" cy="836.04" r="5" fill="black" stroke="none" />
<circle cx="716.0" cy="836.04" r="5" fill="black" stroke="none" />
<path d="M620.0,836.04 A356.8233198657285,356.8233198657285,0,0,1,606.421373936885,840.5838703893443" stroke="grey" stroke-width="5" fill="none" />
<path d="M606.421373936885,840.5838703893443 L620.0,884.04" stroke="grey" stroke-width="5" />
<circle cx="606.421373936885" cy="840.5838703893443" r="2.5" fill="grey" stroke="none" />
<circle cx="620.0" cy="836.04" r="5" fill="black" stroke="none" />
<circle cx="620.0" cy="884.04" r="5" fill="black" stroke="none" />
<path d="M308.0,460.03999999999996 L460.87831584924004,491.8577994861231" stroke="grey" stroke-width="5" />
<circle cx="460.87831584924004" cy="491.8577994861231" r="2.5" fill="grey" stroke="none" />
<path d="M460.87831584924004,491.8577994861231 A39.96000000000001,39.96000000000001,0,0,1,500.0,460.03999999999996" stroke="grey" stroke-width="5" fill="none" />
<circle cx="308.0" cy="460.03999999999996" r="5" fill="black" stroke="none" />
<circle cx="500.0" cy="460.03999999999996" r="5" fill="black" stroke="none" />
<path d="M500.0,460.03999999999996 L500.0,604.04" stroke="grey" stroke-width="5" />
<circle cx="500.0" cy="460.03999999999996" r="5" fill="black" stroke="none" />
<circle cx="500.0" cy="604.04" r="5" fill="black" stroke="none" />
<path d="M500.0,460.03999999999996 A39.96000000000001,39.96000000000001,0,0,1,500.0,460.03999999999996" stroke="grey" stroke-width="5" fill="none" />
<path d="M500.0,460.03999999999996 L500.0,380.03999999999996" stroke="grey" stroke-width="5" />
<circle cx="500.0" cy="460.03999999999996" r="2.5" fill="grey" stroke="none" />
<circle cx="500.0" cy="460.03999999999996" r="5" fill="black" stroke="none" />
<circle cx="500.0" cy="380.03999999999996" r="5" fill="black" stroke="none" />
<path d="M500.0,380.03999999999996 A119.96000000000001,119.96000000000001,0,0,1,500.0,380.03999999999996" stroke="grey" stroke-width="5" fill="none" />
<path d="M500.0,380.03999999999996 L500.0,324.03999999999996" stroke="grey" stroke-width="5" />
<circle cx="500.0" cy="380.03999999999996" r="2.5" fill="grey" stroke="none" />
<circle cx="500.0" cy="380.03999999999996" r="5" fill="black" stroke="none" />
<circle cx="500.0" cy="324.03999999999996" r="5" fill="black" stroke="none" />
<path d="M500.0,380.03999999999996 L500.0,401.0551588004711" stroke="grey" stroke-width="5" />
<circle cx="500.0" cy="401.0551588004711" r="2.5" fill="grey" stroke="none" />
<path d="M500.0,401.0551588004711 A98.94484119952895,98.94484119952895,0,0,1,596.0,476.03999999999996" stroke="grey" stroke-width="5" fill="none" />
<circle cx="500.0" cy="380.03999999999996" r="5" fill="black" stroke="none" />
<circle cx="596.0" cy="476.03999999999996" r="5" fill="black" stroke="none" />
<path d="M500.0,460.03999999999996 A39.96000000000001,39.96000000000001,0,0,1,538.7706923725727,490.32348136201205" stroke="grey" stroke-width="5" fill="none" />
<path d="M538.7706923725727,490.32348136201205 L596.0,476.03999999999996" stroke="grey" stroke-width="5" />
<circle cx="538.7706923725727" cy="490.32348136201205" r="2.5" fill="grey" stroke="none" />
<circle cx="500.0" cy="460.03999999999996" r="5" fill="black" stroke="none" />
<circle cx="596.0" cy="476.03999999999996" r="5" fill="black" stroke="none" />
<path d="M596.0,476.03999999999996 A98.94484119952895,98.94484119952895,0,0,1,593.8594937169123,531.3125699872255" stroke="grey" stroke-width="5" fill="none" />
<path d="M593.8594937169123,531.3125699872255 L644.0,548.04" stroke="grey" stroke-width="5" />
<circle cx="593.8594937169123" cy="531.3125699872255" r="2.5" fill="grey" stroke="none" />
<circle cx="596.0" cy="476.03999999999996" r="5" fill="black" stroke="none" />
<circle cx="644.0" cy="548.04" r="5" fill="black" stroke="none" />
<path d="M596.0,660.04 A186.62476148678664,186.62476148678664,0,0,0,611.9569429752349,649.3132429479716" stroke="grey" stroke-width="5" fill="none" />
<path d="M611.9569429752349,649.3132429479716 L620.0,660.04" stroke="grey" stroke-width="5" />
<circle cx="611.9569429752349" cy="649.3132429479716" r="2.5" fill="grey" stroke="none" />
<circle cx="596.0" cy="660.04" r="5" fill="black" stroke="none" />
<circle cx="620.0" cy="660.04" r="5" fill="black" stroke="none" />
<path d="M620.0,660.04 A200.03200143976963,200.03200143976963,0,0,0,633.7958730324774,648.6992466674839" stroke="grey" stroke-width="5" fill="none" />
<path d="M633.7958730324774,648.6992466674839 L644.0,660.04" stroke="grey" stroke-width="5" />
<circle cx="633.7958730324774" cy="648.6992466674839" r="2.5" fill="grey" stroke="none" />
<circle cx="620.0" cy="660.04" r="5" fill="black" stroke="none" />
<circle cx="644.0" cy="660.04" r="5" fill="black" stroke="none" />
<path d="M644.0,660.04 L618.8266756796928,632.0626470540142" stroke="grey" stroke-width="5" />
<circle cx="618.8266756796928" cy="632.0626470540142" r="2.5" fill="grey" stroke="none" />
<path d="M618.8266756796928,632.0626470540142 A177.6522490710433,177.6522490710433,0,0,0,644.0,604.04" stroke="grey" stroke-width="5" fill="none" />
<circle cx="644.0" cy="660.04" r="5" fill="black" stroke="none" />
<circle cx="644.0" cy="604.04" r="5" fill="black" stroke="none" />
<path d="M644.0,604.04 L636.8092483968168,598.8446819667001" stroke="grey" stroke-width="5" />
<circle cx="636.8092483968168" cy="598.8446819667001" r="2.5" fill="grey" stroke="none" />
<path d="M636.8092483968168,598.8446819667001 A168.78104632926056,168.78104632926056,0,0,0,644.0,588.04" stroke="grey" stroke-width="5" fill="none" />
<circle cx="644.0" cy="604.04" r="5" fill="black" stroke="none" />
<circle cx="644.0" cy="588.04" r="5" fill="black" stroke="none" />
<path d="M644.0,588.04 L637.3740109903446,583.9889439415967" stroke="grey" stroke-width="5" />
<circle cx="637.3740109903446" cy="583.9889439415967" r="2.5" fill="grey" stroke="none" />
<path d="M637.3740109903446,583.9889439415967 A161.0147868985951,161.0147868985951,0,0,0,644.0,572.04" stroke="grey" stroke-width="5" fill="none" />
<circle cx="644.0" cy="588.04" r="5" fill="black" stroke="none" />
<circle cx="644.0" cy="572.04" r="5" fill="black" stroke="none" />
<path d="M644.0,572.04 L635.7607320610742,567.9180773449986" stroke="grey" stroke-width="5" />
<circle cx="635.7607320610742" cy="567.9180773449986" r="2.5" fill="grey" stroke="none" />
<path d="M635.7607320610742,567.9180773449986 A151.80198154174406,151.80198154174406,0,0,0,644.0,548.04" stroke="grey" stroke-width="5" fill="none" />
<circle cx="644.0" cy="572.04" r="5" fill="black" stroke="none" />
<circle cx="644.0" cy="548.04" r="5" fill="black" stroke="none" />
<path d="M644.0,548.04 A151.80198154174406,151.80198154174406,0,0,0,647.262332327402,536.8462627344187" stroke="grey" stroke-width="5" fill="none" />
<path d="M647.262332327402,536.8462627344187 L692.0,548.04" stroke="grey" stroke-width="5" />
<circle cx="647.262332327402" cy="536.8462627344187" r="2.5" fill="grey" stroke="none" />
<circle cx="644.0" cy="548.04" r="5" fill="black" stroke="none" />
<circle cx="692.0" cy="548.04" r="5" fill="black" stroke="none" />
<path d="M692.0,548.04 A197.91877525894304,197.91877525894304,0,0,1,679.9067973364148,582.4947626953019" stroke="grey" stroke-width="5" fill="none" />
<path d="M679.9067973364148,582.4947626953019 L692.0,588.04" stroke="grey" stroke-width="5" />
<circle cx="679.9067973364148" cy="582.4947626953019" r="2.5" fill="grey" stroke="none" />
<circle cx="692.0" cy="548.04" r="5" fill="black" stroke="none" />
<circle cx="692.0" cy="588.04" r="5" fill="black" stroke="none" />
<path d="M692.0,588.04 L653.420803339446,570.3498308646085" stroke="grey" stroke-width="5" />
<circle cx="653.420803339446" cy="570.3498308646085" r="2.5" fill="grey" stroke="none" />
<path d="M653.420803339446,570.3498308646085 A168.78104632926056,168.78104632926056,0,0,1,644.0,588.04" stroke="grey" stroke-width="5" fill="none" />
<circle cx="692.0" cy="588.04" r="5" fill="black" stroke="none" />
<circle cx="644.0" cy="588.04" r="5" fill="black" stroke="none" />
<path d="M644.0,572.04 A161.0147868985951,161.0147868985951,0,0,0,653.2826996646908,549.2968110885907" stroke="grey" stroke-width="5" fill="none" />
<path d="M653.2826996646908,549.2968110885907 L724.0,572.04" stroke="grey" stroke-width="5" />
<circle cx="653.2826996646908" cy="549.2968110885907" r="2.5" fill="grey" stroke="none" />
<circle cx="644.0" cy="572.04" r="5" fill="black" stroke="none" />
<circle cx="724.0" cy="572.04" r="5" fill="black" stroke="none" />
<circle cx="500" cy="500" r="5" fill="red" stroke="none" />
</svg>