<?xml version="1.0" encoding="UTF-8"?>
<svg xmlns="http://www.w3.org/2000/svg" xmlns:xlink="http://www.w3.org/1999/xlink"
     width="1000" height="1000" viewBox="0 0 1000 1000">
<defs>
</defs>
<rect x="0" y="0" width="1000" height="1000" fill="white" />
<path d="M156.0,225.24 L197.088552476364,258.0582868558307" stroke="grey" stroke-width="5" />
<circle cx="197.088552476364" cy="258.0582868558307" r="2.5" fill="grey" stroke="none" />
<path d="M197.08855247636387,258.05828685583083 A387.67400944608085,387.67400944608085,0,0,0,156.0,321.24000000000007" stroke="grey" stroke-width="5" fill="none" />
<circle cx="156.0" cy="225.24" r="5" fill="black" stroke="none" />
<circle cx="156.0" cy="321.24" r="5" fill="black" stroke="none" />
<path d="M156.0,321.24 L228.71366468092077,359.0257404022134" stroke="grey" stroke-width="5" />
<circle cx="228.71366468092077" cy="359.0257404022134" r="2.5" fill="grey" stroke="none" />
<path d="M228.71366468092077,359.0257404022134 A305.7286666310505,305.7286666310505,0,0,0,220.0,377.23999999999995" stroke="grey" stroke-width="5" fill="none" />
<circle cx="156.0" cy="321.24" r="5" fill="black" stroke="none" />
<circle cx="220.0" cy="377.24" r="5" fill="black" stroke="none" />
<path d="M132.0,377.24 L209.98239434364336,403.25390959137405" stroke="grey" stroke-width="5" />
<circle cx="209.98239434364336" cy="403.25390959137405" r="2.5" fill="grey" stroke="none" />
<path d="M209.98239434364336,403.25390959137405 A305.7286666310505,305.7286666310505,0,0,1,220.0,377.23999999999995" stroke="grey" stroke-width="5" fill="none" />
<circle cx="132.0" cy="377.24" r="5" fill="black" stroke="none" />
<circle cx="220.0" cy="377.24" r="5" fill="black" stroke="none" />
<path d="M220.0,377.24 L292.1589670502759,408.87655283961374" stroke="grey" stroke-width="5" />
<circle cx="292.1589670502759" cy="408.87655283961374" r="2.5" fill="grey" stroke="none" />
<path d="M292.1589670502759,408.87655283961374 A226.93914955335495,226.93914955335495,0,0,0,292.0,409.23999999999995" stroke="grey" stroke-width="5" fill="none" />
<circle cx="220.0" cy="377.24" r="5" fill="black" stroke="none" />
<circle cx="292.0" cy="409.24" r="5" fill="black" stroke="none" />
<path d="M292.0,409.24 L311.15373516194427,417.5976586697022" stroke="grey" stroke-width="5" />
<circle cx="311.15373516194427" cy="417.5976586697022" r="2.5" fill="grey" stroke="none" />
<path d="M311.15373516194427,417.5976586697022 A206.0413977820962,206.0413977820962,0,0,0,308.0,425.24" stroke="grey" stroke-width="5" fill="none" />
<circle cx="292.0" cy="409.24" r="5" fill="black" stroke="none" />
<circle cx="308.0" cy="425.24" r="5" fill="black" stroke="none" />
<path d="M308.0,425.24 L345.6711508019947,439.9082043435267" stroke="grey" stroke-width="5" />
<circle cx="345.6711508019947" cy="439.9082043435267" r="2.5" fill="grey" stroke="none" />
<path d="M345.6711508019947,439.9082043435267 A165.61526982739244,165.61526982739244,0,0,0,340.0,457.24" stroke="grey" stroke-width="5" fill="none" />
<circle cx="308.0" cy="425.24" r="5" fill="black" stroke="none" />
<circle cx="340.0" cy="457.24" r="5" fill="black" stroke="none" />
<path d="M308.0,425.24 A206.0413977820962,206.0413977820962,0,0,0,295.4709599717915,524.9184547101034" stroke="grey" stroke-width="5" fill="none" />
<path d="M295.4709599717915,524.9184547101034 L-240.0,29.24000000000001" stroke="grey" stroke-width="5" />
<circle cx="295.4709599717915" cy="524.9184547101034" r="2.5" fill="grey" stroke="none" />
<circle cx="308.0" cy="425.24" r="5" fill="black" stroke="none" />
<circle cx="260.0" cy="529.24" r="5" fill="black" stroke="none" />
<path d="M260.0,529.24 A241.77464217737972,241.77464217737972,0,0,0,279.9479960060589,600.1603371512422" stroke="grey" stroke-width="5" fill="none" />
<path d="M279.9479960060589,600.1603371512422 L-240.0,109.24000000000001" stroke="grey" stroke-width="5" />
<circle cx="279.9479960060589" cy="600.1603371512422" r="2.5" fill="grey" stroke="none" />
<circle cx="260.0" cy="529.24" r="5" fill="black" stroke="none" />
<circle cx="260.0" cy="609.24" r="5" fill="black" stroke="none" />
<path d="M156.0,625.24 L252.2186669373251,590.2096923045622" stroke="grey" stroke-width="5" />
<circle cx="252.2186669373251" cy="590.2096923045622" r="2.5" fill="grey" stroke="none" />
<path d="M252.2186669373251,590.2096923045622 A263.6918231572606,263.6918231572606,0,0,0,260.0,609.24" stroke="grey" stroke-width="5" fill="none" />
<circle cx="156.0" cy="625.24" r="5" fill="black" stroke="none" />
<circle cx="260.0" cy="609.24" r="5" fill="black" stroke="none" />
<path d="M260.0,609.24 A263.6918231572606,263.6918231572606,0,0,0,309.31623134845825,682.1347796903308" stroke="grey" stroke-width="5" fill="none" />
<path d="M309.31623134845836,682.1347796903308 L-240.0,229.24" stroke="grey" stroke-width="5" />
<circle cx="309.31623134845836" cy="682.1347796903308" r="2.5" fill="grey" stroke="none" />
<circle cx="260.0" cy="609.24" r="5" fill="black" stroke="none" />
<circle cx="260.0" cy="729.24" r="5" fill="black" stroke="none" />
<path d="M260.0,529.24 L338.5439989814895,519.6707227907552" stroke="grey" stroke-width="5" />
<circle cx="338.5439989814895" cy="519.6707227907552" r="2.5" fill="grey" stroke="none" />
<path d="M338.5439989814895,519.6707227907552 A162.6498619735043,162.6498619735043,0,0,0,340.0,529.2399999999999" stroke="grey" stroke-width="5" fill="none" />
<circle cx="260.0" cy="529.24" r="5" fill="black" stroke="none" />
<circle cx="340.0" cy="529.24" r="5" fill="black" stroke="none" />
<path d="M340.0,457.24 L342.86486419468804,458.0056349560304" stroke="grey" stroke-width="5" />
<circle cx="342.86486419468804" cy="458.0056349560304" r="2.5" fill="grey" stroke="none" />
<path d="M342.86486419468804,458.0056349560304 A162.6498619735043,162.6498619735043,0,0,0,340.0,529.2399999999999" stroke="grey" stroke-width="5" fill="none" />
<circle cx="340.0" cy="457.24" r="5" fill="black" stroke="none" />
<circle cx="340.0" cy="529.24" r="5" fill="black" stroke="none" />
<path d="M340.0,529.24 L408.78007887165325,516.6704405862054" stroke="grey" stroke-width="5" />
<circle cx="408.78007887165325" cy="516.6704405862054" r="2.5" fill="grey" stroke="none" />
<path d="M408.78007887165325,516.6704405862054 A92.73067237974715,92.73067237974715,0,0,0,412.0,529.24" stroke="grey" stroke-width="5" fill="none" />
<circle cx="340.0" cy="529.24" r="5" fill="black" stroke="none" />
<circle cx="412.0" cy="529.24" r="5" fill="black" stroke="none" />
<path d="M340.0,457.24 L376.9284434137599,467.10912650232734" stroke="grey" stroke-width="5" />
<circle cx="376.9284434137599" cy="467.10912650232734" r="2.5" fill="grey" stroke="none" />
<path d="M376.9284434137599,467.10912650232734 A127.39080657567091,127.39080657567091,0,0,1,380.0,457.24" stroke="grey" stroke-width="5" fill="none" />
<circle cx="340.0" cy="457.24" r="5" fill="black" stroke="none" />
<circle cx="380.0" cy="457.24" r="5" fill="black" stroke="none" />
<path d="M412.0,529.24 L489.78892338748096,503.39286227443245" stroke="grey" stroke-width="5" />
<circle cx="489.78892338748096" cy="503.39286227443245" r="2.5" fill="grey" stroke="none" />
<path d="M489.78892338748096,503.39286227443245 A10.759999999999991,10.759999999999991,0,0,1,500.0,489.24" stroke="grey" stroke-width="5" fill="none" />
<circle cx="412.0" cy="529.24" r="5" fill="black" stroke="none" />
<circle cx="500.0" cy="489.24" r="5" fill="black" stroke="none" />
<path d="M380.0,457.24 L453.80998451629966,483.54095781597476" stroke="grey" stroke-width="5" />
<circle cx="453.80998451629966" cy="483.54095781597476" r="2.5" fill="grey" stroke="none" />
<path d="M453.80998451629966,483.54095781597476 A49.034861068427624,49.034861068427624,0,0,1,524.0,457.24" stroke="grey" stroke-width="5" fill="none" />
<circle cx="380.0" cy="457.24" r="5" fill="black" stroke="none" />
<circle cx="524.0" cy="457.24" r="5" fill="black" stroke="none" />
<path d="M500.0,489.24 A10.759999999999991,10.759999999999991,0,0,1,505.2664572586354,490.61692865086457" stroke="grey" stroke-width="5" fill="none" />
<path d="M505.2664572586354,490.61692865086457 L24.0,-42.75999999999999" stroke="grey" stroke-width="5" />
<circle cx="505.2664572586354" cy="490.61692865086457" r="2.5" fill="grey" stroke="none" />
<circle cx="500.0" cy="489.24" r="5" fill="black" stroke="none" />
<circle cx="524.0" cy="457.24" r="5" fill="black" stroke="none" />
<path d="M260.0,609.24 L352.30429639049174,567.2261610929279" stroke="grey" stroke-width="5" />
<circle cx="352.30429639049174" cy="567.2261610929279" r="2.5" fill="grey" stroke="none" />
<path d="M352.30429639049174,567.2261610929279 A162.27562232202345,162.27562232202345,0,0,0,380.0,609.24" stroke="grey" stroke-width="5" fill="none" />
<circle cx="260.0" cy="609.24" r="5" fill="black" stroke="none" />
<circle cx="380.0" cy="609.24" r="5" fill="black" stroke="none" />
<path d="M380.0,609.24 L479.73092342187863,518.4516160449499" stroke="grey" stroke-width="5" />
<circle cx="479.73092342187863" cy="518.4516160449499" r="2.5" fill="grey" stroke="none" />
<path d="M479.73092342187863,518.4516160449499 A27.409808463395002,27.409808463395002,0,0,1,476.0,513.24" stroke="grey" stroke-width="5" fill="none" />
<circle cx="380.0" cy="609.24" r="5" fill="black" stroke="none" />
<circle cx="476.0" cy="513.24" r="5" fill="black" stroke="none" />
<path d="M476.0,513.24 L490.5785551057436,505.19749709999815" stroke="grey" stroke-width="5" />
<circle cx="490.5785551057436" cy="505.19749709999815" r="2.5" fill="grey" stroke="none" />
<path d="M490.5785551057436,505.19749709999815 A10.759999999999991,10.759999999999991,0,0,1,500.0,489.24" stroke="grey" stroke-width="5" fill="none" />
<circle cx="476.0" cy="513.24" r="5" fill="black" stroke="none" />
<circle cx="500.0" cy="489.24" r="5" fill="black" stroke="none" />
<path d="M500.0,489.24 L500.0,513.24" stroke="grey" stroke-width="5" />
<circle cx="500.0" cy="489.24" r="5" fill="black" stroke="none" />
<circle cx="500.0" cy="513.24" r="5" fill="black" stroke="none" />
<path d="M500.0,513.24 A13.240000000000009,13.240000000000009,0,0,1,500.0,513.24" stroke="grey" stroke-width="5" fill="none" />
<path d="M500.0,513.24 L0.0,189.24" stroke="grey" stroke-width="5" />
<circle cx="500.0" cy="513.24" r="2.5" fill="grey" stroke="none" />
<circle cx="500.0" cy="513.24" r="5" fill="black" stroke="none" />
<circle cx="500.0" cy="689.24" r="5" fill="black" stroke="none" />
<path d="M500.0,689.24 A189.24,189.24,0,0,0,585.6138280784876,668.7662585997189" stroke="grey" stroke-width="5" fill="none" />
<path d="M585.6138280784876,668.7662585997189 L96.0,189.24" stroke="grey" stroke-width="5" />
<circle cx="585.6138280784876" cy="668.7662585997189" r="2.5" fill="grey" stroke="none" />
<circle cx="500.0" cy="689.24" r="5" fill="black" stroke="none" />
<circle cx="596.0" cy="689.24" r="5" fill="black" stroke="none" />
<path d="M500.0,689.24 A189.24,189.24,0,0,1,500.0,689.24" stroke="grey" stroke-width="5" fill="none" />
<path d="M500.0,689.24 L0.0,237.24" stroke="grey" stroke-width="5" />
<circle cx="500.0" cy="689.24" r="2.5" fill="grey" stroke="none" />
<circle cx="500.0" cy="689.24" r="5" fill="black" stroke="none" />
<circle cx="500.0" cy="737.24" r="5" fill="black" stroke="none" />
<path d="M188.0,313.24 L309.52724807437573,385.9849642640078" stroke="grey" stroke-width="5" />
<circle cx="309.52724807437573" cy="385.9849642640078" r="2.5" fill="grey" stroke="none" />
<path d="M309.52724807437573,385.9849642640078 A221.98940875636387,221.98940875636387,0,0,1,380.0,313.24" stroke="grey" stroke-width="5" fill="none" />
<circle cx="188.0" cy="313.24" r="5" fill="black" stroke="none" />
<circle cx="380.0" cy="313.24" r="5" fill="black" stroke="none" />
<path d="M380.0,313.24 L431.1368192080818,392.825936294178" stroke="grey" stroke-width="5" />
<circle cx="431.1368192080818" cy="392.825936294178" r="2.5" fill="grey" stroke="none" />
<path d="M431.1368192080818,392.825936294178 A127.39080657567091,127.39080657567091,0,0,0,380.0,457.24" stroke="grey" stroke-width="5" fill="none" />
<circle cx="380.0" cy="313.24" r="5" fill="black" stroke="none" />
<circle cx="380.0" cy="457.24" r="5" fill="black" stroke="none" />
<path d="M380.0,313.24 A221.98940875636387,221.98940875636387,0,0,1,408.9298955773112,297.5511578683628" stroke="grey" stroke-width="5" fill="none" />
<path d="M408.9298955773112,297.5511578683628 L-120.0,-266.76" stroke="grey" stroke-width="5" />
<circle cx="408.9298955773112" cy="297.5511578683628" r="2.5" fill="grey" stroke="none" />
<circle cx="380.0" cy="313.24" r="5" fill="black" stroke="none" />
<circle cx="380.0" cy="233.24" r="5" fill="black" stroke="none" />
<path d="M379.99999999999994,233.24 A292.5079445074954,292.5079445074954,0,0,1,398.0648081871508,225.82831242070665" stroke="grey" stroke-width="5" fill="none" />
<path d="M398.0648081871508,225.82831242070665 L-120.0,-322.76" stroke="grey" stroke-width="5" />
<circle cx="398.0648081871508" cy="225.82831242070665" r="2.5" fill="grey" stroke="none" />
<circle cx="380.0" cy="233.24" r="5" fill="black" stroke="none" />
<circle cx="380.0" cy="177.24" r="5" fill="black" stroke="none" />
<path d="M380.0,233.24 L429.25799121000404,342.74051445983895" stroke="grey" stroke-width="5" />
<circle cx="429.25799121000404" cy="342.74051445983895" r="2.5" fill="grey" stroke="none" />
<path d="M429.257991210004,342.74051445983895 A172.43832984577412,172.43832984577412,0,0,1,476.0,329.24" stroke="grey" stroke-width="5" fill="none" />
<circle cx="380.0" cy="233.24" r="5" fill="black" stroke="none" />
<circle cx="476.0" cy="329.24" r="5" fill="black" stroke="none" />
<path d="M380.0,313.24 L406.78564487640364,354.9273919759762" stroke="grey" stroke-width="5" />
<circle cx="406.78564487640364" cy="354.9273919759762" r="2.5" fill="grey" stroke="none" />
<path d="M406.78564487640364,354.9273919759762 A172.43832984577412,172.43832984577412,0,0,1,476.0,329.24" stroke="grey" stroke-width="5" fill="none" />
<circle cx="380.0" cy="313.24" r="5" fill="black" stroke="none" />
<circle cx="476.0" cy="329.24" r="5" fill="black" stroke="none" />
<path d="M476.0,329.24 L485.8545139648209,399.3548668597008" stroke="grey" stroke-width="5" />
<circle cx="485.8545139648209" cy="399.3548668597008" r="2.5" fill="grey" stroke="none" />
<path d="M485.8545139648209,399.3548668597008 A101.6343327817918,101.6343327817918,0,0,1,524.0,401.24" stroke="grey" stroke-width="5" fill="none" />
<circle cx="476.0" cy="329.24" r="5" fill="black" stroke="none" />
<circle cx="524.0" cy="401.24" r="5" fill="black" stroke="none" />
<path d="M476.0,513.24 L488.40706966543166,506.3954332345702" stroke="grey" stroke-width="5" />
<circle cx="488.40706966543166" cy="506.3954332345702" r="2.5" fill="grey" stroke="none" />
<path d="M488.40706966543166,506.3954332345702 A13.240000000000009,13.240000000000009,0,0,0,500.0,513.24" stroke="grey" stroke-width="5" fill="none" />
<circle cx="476.0" cy="513.24" r="5" fill="black" stroke="none" />
<circle cx="500.0" cy="513.24" r="5" fill="black" stroke="none" />
<path d="M500.0,513.24 A13.240000000000009,13.240000000000009,0,0,0,511.59293033456834,506.3954332345702" stroke="grey" stroke-width="5" fill="none" />
<path d="M511.59293033456834,506.3954332345702 L24.0,13.240000000000009" stroke="grey" stroke-width="5" />
<circle cx="511.59293033456834" cy="506.3954332345702" r="2.5" fill="grey" stroke="none" />
<circle cx="500.0" cy="513.24" r="5" fill="black" stroke="none" />
<circle cx="524.0" cy="513.24" r="5" fill="black" stroke="none" />
<path d="M524.0,513.24 A27.409808463395002,27.409808463395002,0,0,0,513.4156677267522,476.0977520001699" stroke="grey" stroke-width="5" fill="none" />
<path d="M513.4156677267522,476.0977520001699 L24.0,-42.75999999999999" stroke="grey" stroke-width="5" />
<circle cx="513.4156677267522" cy="476.0977520001699" r="2.5" fill="grey" stroke="none" />
<circle cx="524.0" cy="513.24" r="5" fill="black" stroke="none" />
<circle cx="524.0" cy="457.24" r="5" fill="black" stroke="none" />
<path d="M524.0,457.24 A49.034861068427624,49.034861068427624,0,0,0,518.5409379273298,454.60560364125433" stroke="grey" stroke-width="5" fill="none" />
<path d="M518.5409379273298,454.60560364125433 L24.0,-58.75999999999999" stroke="grey" stroke-width="5" />
<circle cx="518.5409379273298" cy="454.60560364125433" r="2.5" fill="grey" stroke="none" />
<circle cx="524.0" cy="457.24" r="5" fill="black" stroke="none" />
<circle cx="524.0" cy="441.24" r="5" fill="black" stroke="none" />
<path d="M524.0,441.24 A63.47233728168516,63.47233728168516,0,0,0,519.4011361475523,439.56546090037466" stroke="grey" stroke-width="5" fill="none" />
<path d="M519.4011361475523,439.56546090037466 L24.0,-74.75999999999999" stroke="grey" stroke-width="5" />
<circle cx="519.4011361475523" cy="439.56546090037466" r="2.5" fill="grey" stroke="none" />
<circle cx="524.0" cy="441.24" r="5" fill="black" stroke="none" />
<circle cx="524.0" cy="425.24" r="5" fill="black" stroke="none" />
<path d="M524.0,425.24 A78.51788076610319,78.51788076610319,0,0,0,518.5412654051887,423.70269285764834" stroke="grey" stroke-width="5" fill="none" />
<path d="M518.5412654051887,423.70269285764834 L24.0,-98.75999999999999" stroke="grey" stroke-width="5" />
<circle cx="518.5412654051887" cy="423.70269285764834" r="2.5" fill="grey" stroke="none" />
<circle cx="524.0" cy="425.24" r="5" fill="black" stroke="none" />
<circle cx="524.0" cy="401.24" r="5" fill="black" stroke="none" />
<path d="M524.0,401.24 A101.6343327817918,101.6343327817918,0,0,1,559.8733324754171,417.87374562121954" stroke="grey" stroke-width="5" fill="none" />
<path d="M559.8733324754171,417.87374562121954 L72.0,-98.75999999999999" stroke="grey" stroke-width="5" />
<circle cx="559.8733324754171" cy="417.87374562121954" r="2.5" fill="grey" stroke="none" />
<circle cx="524.0" cy="401.24" r="5" fill="black" stroke="none" />
<circle cx="572.0" cy="401.24" r="5" fill="black" stroke="none" />
<path d="M572.0,401.24 L554.7479489039354,424.9040634201019" stroke="grey" stroke-width="5" />
<circle cx="554.7479489039354" cy="424.9040634201019" r="2.5" fill="grey" stroke="none" />
<path d="M554.7479489039354,424.9040634201019 A92.93404973420667,92.93404973420667,0,0,1,572.0,441.24" stroke="grey" stroke-width="5" fill="none" />
<circle cx="572.0" cy="401.24" r="5" fill="black" stroke="none" />
<circle cx="572.0" cy="441.24" r="5" fill="black" stroke="none" />
<path d="M572.0,441.24 L549.1747459338278,459.8679434573372" stroke="grey" stroke-width="5" />
<circle cx="549.1747459338278" cy="459.8679434573372" r="2.5" fill="grey" stroke="none" />
<path d="M549.1747459338278,459.8679434573372 A63.47233728168516,63.47233728168516,0,0,0,524.0,441.24" stroke="grey" stroke-width="5" fill="none" />
<circle cx="572.0" cy="441.24" r="5" fill="black" stroke="none" />
<circle cx="524.0" cy="441.24" r="5" fill="black" stroke="none" />
<path d="M524.0,425.24 A78.51788076610319,78.51788076610319,0,0,1,563.7548207122196,454.17009234186986" stroke="grey" stroke-width="5" fill="none" />
<path d="M563.7548207122196,454.17009234186986 L104.0,-74.75999999999999" stroke="grey" stroke-width="5" />
<circle cx="563.7548207122196" cy="454.17009234186986" r="2.5" fill="grey" stroke="none" />
<circle cx="524.0" cy="425.24" r="5" fill="black" stroke="none" />
<circle cx="604.0" cy="425.24" r="5" fill="black" stroke="none" />
<circle cx="500" cy="500" r="5" fill="red" stroke="none" />
</svg>