<?xml version="1.0" encoding="UTF-8"?>
<svg xmlns="http://www.w3.org/2000/svg" xmlns:xlink="http://www.w3.org/1999/xlink"
     width="1000" height="1000" viewBox="0 0 1000 1000">
<defs>
</defs>
<rect x="0" y="0" width="1000" height="1000" fill="white" />
<path d="M276.0,455.0400000000001 A228.4675066612318,228.4675066612318,0,0,0,277.24199606957643,550.7570023241465" stroke="grey" stroke-width="5" fill="none" />
<path d="M277.2419960695765,550.7570023241465 L276.0,551.04" stroke="grey" stroke-width="5" />
<circle cx="277.2419960695765" cy="550.7570023241465" r="2.5" fill="grey" stroke="none" />
<circle cx="276.0" cy="455.03999999999996" r="5" fill="black" stroke="none" />
<circle cx="276.0" cy="551.04" r="5" fill="black" stroke="none" />
<path d="M276.0,551.04 L312.3073374498328,542.7671138239309" stroke="grey" stroke-width="5" />
<circle cx="312.3073374498328" cy="542.7671138239309" r="2.5" fill="grey" stroke="none" />
<path d="M312.30733744983274,542.7671138239309 A192.50340672310193,192.50340672310193,0,0,0,340.0,607.04" stroke="grey" stroke-width="5" fill="none" />
<circle cx="276.0" cy="551.04" r="5" fill="black" stroke="none" />
<circle cx="340.0" cy="607.04" r="5" fill="black" stroke="none" />
<path d="M252.0,607.04 L323.2566672009072,576.2847029952213" stroke="grey" stroke-width="5" />
<circle cx="323.2566672009072" cy="576.2847029952213" r="2.5" fill="grey" stroke="none" />
<path d="M323.2566672009072,576.2847029952213 A192.50340672310193,192.50340672310193,0,0,0,340.0,607.04" stroke="grey" stroke-width="5" fill="none" />
<circle cx="252.0" cy="607.04" r="5" fill="black" stroke="none" />
<circle cx="340.0" cy="607.04" r="5" fill="black" stroke="none" />
<path d="M340.0,607.04 L363.235056314419,591.4957473256536" stroke="grey" stroke-width="5" />
<circle cx="363.235056314419" cy="591.4957473256536" r="2.5" fill="grey" stroke="none" />
<path d="M363.235056314419,591.4957473256536 A164.54823487354702,164.54823487354702,0,0,0,412.0,639.04" stroke="grey" stroke-width="5" fill="none" />
<circle cx="340.0" cy="607.04" r="5" fill="black" stroke="none" />
<circle cx="412.0" cy="639.04" r="5" fill="black" stroke="none" />
<path d="M412.0,639.04 A164.54823487354702,164.54823487354702,0,0,0,430.6933028355387,649.2404212274732" stroke="grey" stroke-width="5" fill="none" />
<path d="M430.6933028355387,649.2404212274732 L428.0,655.04" stroke="grey" stroke-width="5" />
<circle cx="430.6933028355387" cy="649.2404212274732" r="2.5" fill="grey" stroke="none" />
<circle cx="412.0" cy="639.04" r="5" fill="black" stroke="none" />
<circle cx="428.0" cy="655.04" r="5" fill="black" stroke="none" />
<path d="M428.0,655.04 A170.94268513159608,170.94268513159608,0,0,0,464.2508972145388,667.1628046248163" stroke="grey" stroke-width="5" fill="none" />
<path d="M464.25089721453884,667.1628046248163 L460.0,687.04" stroke="grey" stroke-width="5" />
<circle cx="464.25089721453884" cy="667.1628046248163" r="2.5" fill="grey" stroke="none" />
<circle cx="428.0" cy="655.04" r="5" fill="black" stroke="none" />
<circle cx="460.0" cy="687.04" r="5" fill="black" stroke="none" />
<path d="M428.0,655.04 A170.94268513159608,170.94268513159608,0,0,0,428.1464257730198,655.1079155646412" stroke="grey" stroke-width="5" fill="none" />
<path d="M428.1464257730198,655.1079155646412 L380.0,759.04" stroke="grey" stroke-width="5" />
<circle cx="428.1464257730198" cy="655.1079155646412" r="2.5" fill="grey" stroke="none" />
<circle cx="428.0" cy="655.04" r="5" fill="black" stroke="none" />
<circle cx="380.0" cy="759.04" r="5" fill="black" stroke="none" />
<path d="M380.0,759.04 A285.485063707368,285.485063707368,0,0,0,404.74570342258323,769.1251392633945" stroke="grey" stroke-width="5" fill="none" />
<path d="M404.7457034225833,769.1251392633945 L380.0,839.04" stroke="grey" stroke-width="5" />
<circle cx="404.7457034225833" cy="769.1251392633945" r="2.5" fill="grey" stroke="none" />
<circle cx="380.0" cy="759.04" r="5" fill="black" stroke="none" />
<circle cx="380.0" cy="839.04" r="5" fill="black" stroke="none" />
<path d="M276.0,855.04 L308.09384760066666,804.1712515529432" stroke="grey" stroke-width="5" />
<circle cx="308.09384760066666" cy="804.1712515529432" r="2.5" fill="grey" stroke="none" />
<path d="M308.09384760066666,804.1712515529432 A359.6499987487835,359.6499987487835,0,0,0,379.9999999999999,839.04" stroke="grey" stroke-width="5" fill="none" />
<circle cx="276.0" cy="855.04" r="5" fill="black" stroke="none" />
<circle cx="380.0" cy="839.04" r="5" fill="black" stroke="none" />
<path d="M379.9999999999999,839.04 A359.6499987487835,359.6499987487835,0,0,0,409.0387401554465,847.9571393253651" stroke="grey" stroke-width="5" fill="none" />
<path d="M409.03874015544653,847.9571393253652 L380.0,959.04" stroke="grey" stroke-width="5" />
<circle cx="409.03874015544653" cy="847.9571393253652" r="2.5" fill="grey" stroke="none" />
<circle cx="380.0" cy="839.04" r="5" fill="black" stroke="none" />
<circle cx="380.0" cy="959.04" r="5" fill="black" stroke="none" />
<path d="M380.0,759.04 L389.8253537299323,737.830336414986" stroke="grey" stroke-width="5" />
<circle cx="389.8253537299323" cy="737.830336414986" r="2.5" fill="grey" stroke="none" />
<path d="M389.8253537299323,737.830336414986 A262.1101325778917,262.1101325778917,0,0,0,459.99999999999994,759.04" stroke="grey" stroke-width="5" fill="none" />
<circle cx="380.0" cy="759.04" r="5" fill="black" stroke="none" />
<circle cx="460.0" cy="759.04" r="5" fill="black" stroke="none" />
<path d="M459.99999999999994,687.04 A191.26934307410582,191.26934307410582,0,0,0,470.810843336281,689.0289785542441" stroke="grey" stroke-width="5" fill="none" />
<path d="M470.81084333628104,689.0289785542441 L460.0,759.04" stroke="grey" stroke-width="5" />
<circle cx="470.81084333628104" cy="689.0289785542441" r="2.5" fill="grey" stroke="none" />
<circle cx="460.0" cy="687.04" r="5" fill="black" stroke="none" />
<circle cx="460.0" cy="759.04" r="5" fill="black" stroke="none" />
<path d="M460.0,759.04 L460.1680343316856,757.951809668004" stroke="grey" stroke-width="5" />
<circle cx="460.1680343316856" cy="757.951809668004" r="2.5" fill="grey" stroke="none" />
<path d="M460.16803433168553,757.951809668004 A261.009045053998,261.009045053998,0,0,0,532.0,759.04" stroke="grey" stroke-width="5" fill="none" />
<circle cx="460.0" cy="759.04" r="5" fill="black" stroke="none" />
<circle cx="532.0" cy="759.04" r="5" fill="black" stroke="none" />
<path d="M460.0,687.04 L460.88447902965135,682.9041760573504" stroke="grey" stroke-width="5" />
<circle cx="460.88447902965135" cy="682.9041760573504" r="2.5" fill="grey" stroke="none" />
<path d="M460.8844790296513,682.9041760573504 A187.04,187.04,0,0,0,500.0,687.04" stroke="grey" stroke-width="5" fill="none" />
<circle cx="460.0" cy="687.04" r="5" fill="black" stroke="none" />
<circle cx="500.0" cy="687.04" r="5" fill="black" stroke="none" />
<path d="M532.0,759.04 L530.6204775366244,747.8727656589749" stroke="grey" stroke-width="5" />
<circle cx="530.6204775366244" cy="747.8727656589749" r="2.5" fill="grey" stroke="none" />
<path d="M530.6204775366244,747.8727656589749 A249.75692502911707,249.75692502911707,0,0,0,620.0,719.04" stroke="grey" stroke-width="5" fill="none" />
<circle cx="532.0" cy="759.04" r="5" fill="black" stroke="none" />
<circle cx="620.0" cy="719.04" r="5" fill="black" stroke="none" />
<path d="M500.0,687.04 A187.04,187.04,0,0,0,614.1015598791813,648.2052483319588" stroke="grey" stroke-width="5" fill="none" />
<path d="M614.1015598791813,648.2052483319588 L644.0,687.04" stroke="grey" stroke-width="5" />
<circle cx="614.1015598791813" cy="648.2052483319588" r="2.5" fill="grey" stroke="none" />
<circle cx="500.0" cy="687.04" r="5" fill="black" stroke="none" />
<circle cx="644.0" cy="687.04" r="5" fill="black" stroke="none" />
<path d="M620.0,719.04 L613.4146381479609,707.0195194994112" stroke="grey" stroke-width="5" />
<circle cx="613.4146381479609" cy="707.0195194994112" r="2.5" fill="grey" stroke="none" />
<path d="M613.4146381479609,707.0195194994112 A236.05076064270582,236.05076064270582,0,0,0,644.0,687.04" stroke="grey" stroke-width="5" fill="none" />
<circle cx="620.0" cy="719.04" r="5" fill="black" stroke="none" />
<circle cx="644.0" cy="687.04" r="5" fill="black" stroke="none" />
<path d="M380.0,839.04 L386.87668527306613,819.6110718751636" stroke="grey" stroke-width="5" />
<circle cx="386.87668527306613" cy="819.6110718751636" r="2.5" fill="grey" stroke="none" />
<path d="M386.8766852730661,819.6110718751636 A339.03999999999996,339.03999999999996,0,0,0,500.0,839.04" stroke="grey" stroke-width="5" fill="none" />
<circle cx="380.0" cy="839.04" r="5" fill="black" stroke="none" />
<circle cx="500.0" cy="839.04" r="5" fill="black" stroke="none" />
<path d="M500.0,839.04 L500.0,761.312918930542" stroke="grey" stroke-width="5" />
<circle cx="500.0" cy="761.312918930542" r="2.5" fill="grey" stroke="none" />
<path d="M500.0,761.312918930542 A261.31291893054197,261.31291893054197,0,0,0,596.0,743.04" stroke="grey" stroke-width="5" fill="none" />
<circle cx="500.0" cy="839.04" r="5" fill="black" stroke="none" />
<circle cx="596.0" cy="743.04" r="5" fill="black" stroke="none" />
<path d="M596.0,743.04 L591.754609381438,732.292086084007" stroke="grey" stroke-width="5" />
<circle cx="591.754609381438" cy="732.292086084007" r="2.5" fill="grey" stroke="none" />
<path d="M591.754609381438,732.292086084007 A249.75692502911707,249.75692502911707,0,0,0,620.0,719.04" stroke="grey" stroke-width="5" fill="none" />
<circle cx="596.0" cy="743.04" r="5" fill="black" stroke="none" />
<circle cx="620.0" cy="719.04" r="5" fill="black" stroke="none" />
<path d="M620.0,719.04 A249.75692502911707,249.75692502911707,0,0,1,610.5728162218114,723.9468104545754" stroke="grey" stroke-width="5" fill="none" />
<path d="M610.5728162218114,723.9468104545754 L620.0,743.04" stroke="grey" stroke-width="5" />
<circle cx="610.5728162218114" cy="723.9468104545754" r="2.5" fill="grey" stroke="none" />
<circle cx="620.0" cy="719.04" r="5" fill="black" stroke="none" />
<circle cx="620.0" cy="743.04" r="5" fill="black" stroke="none" />
<path d="M620.0,743.04 A271.0506255296231,271.0506255296231,0,0,1,574.6210096134123,760.5765655700355" stroke="grey" stroke-width="5" fill="none" />
<path d="M574.6210096134123,760.5765655700355 L620.0,919.04" stroke="grey" stroke-width="5" />
<circle cx="574.6210096134123" cy="760.5765655700355" r="2.5" fill="grey" stroke="none" />
<circle cx="620.0" cy="743.04" r="5" fill="black" stroke="none" />
<circle cx="620.0" cy="919.04" r="5" fill="black" stroke="none" />
<path d="M620.0,919.04 A435.8836101529857,435.8836101529857,0,0,0,699.7114183024753,887.4401515068021" stroke="grey" stroke-width="5" fill="none" />
<path d="M699.7114183024753,887.4401515068021 L716.0,919.04" stroke="grey" stroke-width="5" />
<circle cx="699.7114183024753" cy="887.4401515068021" r="2.5" fill="grey" stroke="none" />
<circle cx="620.0" cy="919.04" r="5" fill="black" stroke="none" />
<circle cx="716.0" cy="919.04" r="5" fill="black" stroke="none" />
<path d="M620.0,919.04 A435.8836101529857,435.8836101529857,0,0,1,608.4715103302309,922.1711182052588" stroke="grey" stroke-width="5" fill="none" />
<path d="M608.4715103302309,922.1711182052588 L620.0,967.04" stroke="grey" stroke-width="5" />
<circle cx="608.4715103302309" cy="922.1711182052588" r="2.5" fill="grey" stroke="none" />
<circle cx="620.0" cy="919.04" r="5" fill="black" stroke="none" />
<circle cx="620.0" cy="967.04" r="5" fill="black" stroke="none" />
<path d="M308.0,543.04 L458.0022741784736,509.41449020499215" stroke="grey" stroke-width="5" />
<circle cx="458.0022741784736" cy="509.41449020499215" r="2.5" fill="grey" stroke="none" />
<path d="M458.0022741784736,509.4144902049922 A43.03999999999999,43.03999999999999,0,0,0,500.0,543.04" stroke="grey" stroke-width="5" fill="none" />
<circle cx="308.0" cy="543.04" r="5" fill="black" stroke="none" />
<circle cx="500.0" cy="543.04" r="5" fill="black" stroke="none" />
<path d="M500.0,543.04 A43.03999999999999,43.03999999999999,0,0,1,500.0,543.04" stroke="grey" stroke-width="5" fill="none" />
<path d="M500.0,543.04 L500.0,687.04" stroke="grey" stroke-width="5" />
<circle cx="500.0" cy="543.04" r="2.5" fill="grey" stroke="none" />
<circle cx="500.0" cy="543.04" r="5" fill="black" stroke="none" />
<circle cx="500.0" cy="687.04" r="5" fill="black" stroke="none" />
<path d="M500.0,543.04 L500.0,463.03999999999996" stroke="grey" stroke-width="5" />
<circle cx="500.0" cy="543.04" r="5" fill="black" stroke="none" />
<circle cx="500.0" cy="463.03999999999996" r="5" fill="black" stroke="none" />
<path d="M500.0,463.03999999999996 A36.96000000000001,36.96000000000001,0,0,1,500.0,463.03999999999996" stroke="grey" stroke-width="5" fill="none" />
<path d="M500.0,463.03999999999996 L500.0,407.03999999999996" stroke="grey" stroke-width="5" />
<circle cx="500.0" cy="463.03999999999996" r="2.5" fill="grey" stroke="none" />
<circle cx="500.0" cy="463.03999999999996" r="5" fill="black" stroke="none" />
<circle cx="500.0" cy="407.03999999999996" r="5" fill="black" stroke="none" />
<path d="M500.0,463.03999999999996 A36.96000000000001,36.96000000000001,0,0,1,531.482694914623,519.3618573724932" stroke="grey" stroke-width="5" fill="none" />
<path d="M531.482694914623,519.3618573724932 L596.0,559.04" stroke="grey" stroke-width="5" />
<circle cx="531.482694914623" cy="519.3618573724932" r="2.5" fill="grey" stroke="none" />
<circle cx="500.0" cy="463.03999999999996" r="5" fill="black" stroke="none" />
<circle cx="596.0" cy="559.04" r="5" fill="black" stroke="none" />
<path d="M500.0,543.04 A43.03999999999999,43.03999999999999,0,0,0,536.6616663724399,522.5469248190504" stroke="grey" stroke-width="5" fill="none" />
<path d="M536.6616663724399,522.5469248190504 L596.0,559.04" stroke="grey" stroke-width="5" />
<circle cx="536.6616663724399" cy="522.5469248190504" r="2.5" fill="grey" stroke="none" />
<circle cx="500.0" cy="543.04" r="5" fill="black" stroke="none" />
<circle cx="596.0" cy="559.04" r="5" fill="black" stroke="none" />
<path d="M596.0,559.04 A112.70191480183466,112.70191480183466,0,0,1,583.3549356242753,575.8529914180905" stroke="grey" stroke-width="5" fill="none" />
<path d="M583.3549356242753,575.8529914180905 L644.0,631.04" stroke="grey" stroke-width="5" />
<circle cx="583.3549356242753" cy="575.8529914180905" r="2.5" fill="grey" stroke="none" />
<circle cx="596.0" cy="559.04" r="5" fill="black" stroke="none" />
<circle cx="644.0" cy="631.04" r="5" fill="black" stroke="none" />
<path d="M596.0,743.04 A261.31291893054197,261.31291893054197,0,0,0,615.6889057547589,734.3085971219718" stroke="grey" stroke-width="5" fill="none" />
<path d="M615.6889057547589,734.3085971219718 L620.0,743.04" stroke="grey" stroke-width="5" />
<circle cx="615.6889057547589" cy="734.3085971219718" r="2.5" fill="grey" stroke="none" />
<circle cx="596.0" cy="743.04" r="5" fill="black" stroke="none" />
<circle cx="620.0" cy="743.04" r="5" fill="black" stroke="none" />
<path d="M620.0,743.04 A271.0506255296231,271.0506255296231,0,0,0,638.1654240918382,733.1925324394468" stroke="grey" stroke-width="5" fill="none" />
<path d="M638.1654240918382,733.1925324394468 L644.0,743.04" stroke="grey" stroke-width="5" />
<circle cx="638.1654240918382" cy="733.1925324394468" r="2.5" fill="grey" stroke="none" />
<circle cx="620.0" cy="743.04" r="5" fill="black" stroke="none" />
<circle cx="644.0" cy="743.04" r="5" fill="black" stroke="none" />
<path d="M644.0,743.04 L620.3245828622374,703.0811570752652" stroke="grey" stroke-width="5" />
<circle cx="620.3245828622374" cy="703.0811570752652" r="2.5" fill="grey" stroke="none" />
<path d="M620.3245828622374,703.0811570752652 A236.05076064270582,236.05076064270582,0,0,0,644.0,687.04" stroke="grey" stroke-width="5" fill="none" />
<circle cx="644.0" cy="743.04" r="5" fill="black" stroke="none" />
<circle cx="644.0" cy="687.04" r="5" fill="black" stroke="none" />
<path d="M644.0,687.04 L636.3959945801594,677.1632418491181" stroke="grey" stroke-width="5" />
<circle cx="636.3959945801594" cy="677.1632418491181" r="2.5" fill="grey" stroke="none" />
<path d="M636.3959945801594,677.1632418491181 A223.5859602032292,223.5859602032292,0,0,0,644.0,671.04" stroke="grey" stroke-width="5" fill="none" />
<circle cx="644.0" cy="687.04" r="5" fill="black" stroke="none" />
<circle cx="644.0" cy="671.04" r="5" fill="black" stroke="none" />
<path d="M644.0,671.04 L636.2787082300867,661.8688212199585" stroke="grey" stroke-width="5" />
<circle cx="636.2787082300867" cy="661.8688212199585" r="2.5" fill="grey" stroke="none" />
<path d="M636.2787082300867,661.8688212199586 A211.59726274221978,211.59726274221978,0,0,0,644.0,655.04" stroke="grey" stroke-width="5" fill="none" />
<circle cx="644.0" cy="671.04" r="5" fill="black" stroke="none" />
<circle cx="644.0" cy="655.04" r="5" fill="black" stroke="none" />
<path d="M644.0,655.04 L632.499705570958,642.6580163313981" stroke="grey" stroke-width="5" />
<circle cx="632.499705570958" cy="642.6580163313981" r="2.5" fill="grey" stroke="none" />
<path d="M632.499705570958,642.6580163313981 A194.69843759003305,194.69843759003305,0,0,0,644.0,631.04" stroke="grey" stroke-width="5" fill="none" />
<circle cx="644.0" cy="655.04" r="5" fill="black" stroke="none" />
<circle cx="644.0" cy="631.04" r="5" fill="black" stroke="none" />
<path d="M644.0,631.04 A194.69843759003305,194.69843759003305,0,0,0,660.8141212245359,609.7556377357457" stroke="grey" stroke-width="5" fill="none" />
<path d="M660.8141212245359,609.7556377357457 L692.0,631.04" stroke="grey" stroke-width="5" />
<circle cx="660.8141212245359" cy="609.7556377357457" r="2.5" fill="grey" stroke="none" />
<circle cx="644.0" cy="631.04" r="5" fill="black" stroke="none" />
<circle cx="692.0" cy="631.04" r="5" fill="black" stroke="none" />
<path d="M692.0,631.04 A232.45533248346874,232.45533248346874,0,0,1,673.5715930151562,654.6233607776683" stroke="grey" stroke-width="5" fill="none" />
<path d="M673.5715930151562,654.6233607776683 L692.0,671.04" stroke="grey" stroke-width="5" />
<circle cx="673.5715930151562" cy="654.6233607776683" r="2.5" fill="grey" stroke="none" />
<circle cx="692.0" cy="631.04" r="5" fill="black" stroke="none" />
<circle cx="692.0" cy="671.04" r="5" fill="black" stroke="none" />
<path d="M692.0,671.04 L666.9489397110633,648.7236804592723" stroke="grey" stroke-width="5" />
<circle cx="666.9489397110633" cy="648.7236804592723" r="2.5" fill="grey" stroke="none" />
<path d="M666.9489397110633,648.7236804592723 A223.5859602032292,223.5859602032292,0,0,1,644.0,671.04" stroke="grey" stroke-width="5" fill="none" />
<circle cx="692.0" cy="671.04" r="5" fill="black" stroke="none" />
<circle cx="644.0" cy="671.04" r="5" fill="black" stroke="none" />
<path d="M644.0,655.04 A211.59726274221978,211.59726274221978,0,0,0,673.9870379768422,620.4238855711144" stroke="grey" stroke-width="5" fill="none" />
<path d="M673.9870379768422,620.4238855711144 L724.0,655.04" stroke="grey" stroke-width="5" />
<circle cx="673.9870379768422" cy="620.4238855711144" r="2.5" fill="grey" stroke="none" />
<circle cx="644.0" cy="655.04" r="5" fill="black" stroke="none" />
<circle cx="724.0" cy="655.04" r="5" fill="black" stroke="none" />
<circle cx="500" cy="500" r="5" fill="red" stroke="none" />
</svg>