<?xml version="1.0" encoding="UTF-8"?>
<svg xmlns="http://www.w3.org/2000/svg" xmlns:xlink="http://www.w3.org/1999/xlink"
     width="1000" height="1000" viewBox="0 0 1000 1000">
<defs>
</defs>
<rect x="0" y="0" width="1000" height="1000" fill="white" />
<path d="M276.0,411.88 L291.42075059422166,417.94641313554826" stroke="grey" stroke-width="5" />
<circle cx="291.42075059422166" cy="417.94641313554826" r="2.5" fill="grey" stroke="none" />
<path d="M291.42075059422166,417.94641313554826 A224.1385607163569,224.1385607163569,0,0,0,276.0,507.87999999999994" stroke="grey" stroke-width="5" fill="none" />
<circle cx="276.0" cy="411.88" r="5" fill="black" stroke="none" />
<circle cx="276.0" cy="507.88" r="5" fill="black" stroke="none" />
<path d="M276.0,507.88 L327.825759641491,506.0568438126118" stroke="grey" stroke-width="5" />
<circle cx="327.825759641491" cy="506.0568438126118" r="2.5" fill="grey" stroke="none" />
<path d="M327.825759641491,506.0568438126118 A172.2807429749477,172.2807429749477,0,0,0,340.0,563.8800000000001" stroke="grey" stroke-width="5" fill="none" />
<circle cx="276.0" cy="507.88" r="5" fill="black" stroke="none" />
<circle cx="340.0" cy="563.88" r="5" fill="black" stroke="none" />
<path d="M252.0,563.88 L333.16494852693495,542.9734801939492" stroke="grey" stroke-width="5" />
<circle cx="333.16494852693495" cy="542.9734801939492" r="2.5" fill="grey" stroke="none" />
<path d="M333.16494852693495,542.9734801939491 A172.2807429749477,172.2807429749477,0,0,0,340.0,563.8800000000001" stroke="grey" stroke-width="5" fill="none" />
<circle cx="252.0" cy="563.88" r="5" fill="black" stroke="none" />
<circle cx="340.0" cy="563.88" r="5" fill="black" stroke="none" />
<path d="M340.0,563.88 L379.1348314051731,548.2554185614846" stroke="grey" stroke-width="5" />
<circle cx="379.1348314051731" cy="548.2554185614846" r="2.5" fill="grey" stroke="none" />
<path d="M379.13483140517314,548.2554185614847 A130.14213153318184,130.14213153318184,0,0,0,412.00000000000006,595.8800000000001" stroke="grey" stroke-width="5" fill="none" />
<circle cx="340.0" cy="563.88" r="5" fill="black" stroke="none" />
<circle cx="412.0" cy="595.88" r="5" fill="black" stroke="none" />
<path d="M412.00000000000006,595.8800000000001 A130.14213153318184,130.14213153318184,0,0,0,429.57126917167443,609.4384222926815" stroke="grey" stroke-width="5" fill="none" />
<path d="M429.57126917167443,609.4384222926815 L428.0,611.88" stroke="grey" stroke-width="5" />
<circle cx="429.57126917167443" cy="609.4384222926815" r="2.5" fill="grey" stroke="none" />
<circle cx="412.0" cy="595.88" r="5" fill="black" stroke="none" />
<circle cx="428.0" cy="611.88" r="5" fill="black" stroke="none" />
<path d="M428.0,611.88 A133.04561022446399,133.04561022446399,0,0,0,464.36358992773245,628.1841670299464" stroke="grey" stroke-width="5" fill="none" />
<path d="M464.36358992773245,628.1841670299464 L460.0,643.88" stroke="grey" stroke-width="5" />
<circle cx="464.36358992773245" cy="628.1841670299464" r="2.5" fill="grey" stroke="none" />
<circle cx="428.0" cy="611.88" r="5" fill="black" stroke="none" />
<circle cx="460.0" cy="643.88" r="5" fill="black" stroke="none" />
<path d="M428.0,611.88 A133.04561022446399,133.04561022446399,0,0,0,435.35990011686346,616.2875396897626" stroke="grey" stroke-width="5" fill="none" />
<path d="M435.35990011686346,616.2875396897626 L380.0,715.88" stroke="grey" stroke-width="5" />
<circle cx="435.35990011686346" cy="616.2875396897626" r="2.5" fill="grey" stroke="none" />
<circle cx="428.0" cy="611.88" r="5" fill="black" stroke="none" />
<circle cx="380.0" cy="715.88" r="5" fill="black" stroke="none" />
<path d="M380.00000000000006,715.88 A246.9902313857777,246.9902313857777,0,0,0,407.1721883344194,728.8824409634333" stroke="grey" stroke-width="5" fill="none" />
<path d="M407.1721883344194,728.8824409634333 L380.0,795.88" stroke="grey" stroke-width="5" />
<circle cx="407.1721883344194" cy="728.8824409634333" r="2.5" fill="grey" stroke="none" />
<circle cx="380.0" cy="715.88" r="5" fill="black" stroke="none" />
<circle cx="380.0" cy="795.88" r="5" fill="black" stroke="none" />
<path d="M276.0,811.88 L313.74166942563966,759.3314649086228" stroke="grey" stroke-width="5" />
<circle cx="313.74166942563966" cy="759.3314649086228" r="2.5" fill="grey" stroke="none" />
<path d="M313.74166942563954,759.3314649086228 A319.28823091369964,319.28823091369964,0,0,0,380.0,795.88" stroke="grey" stroke-width="5" fill="none" />
<circle cx="276.0" cy="811.88" r="5" fill="black" stroke="none" />
<circle cx="380.0" cy="795.88" r="5" fill="black" stroke="none" />
<path d="M380.0,795.88 A319.28823091369964,319.28823091369964,0,0,0,411.4822937422887,806.772863987142" stroke="grey" stroke-width="5" fill="none" />
<path d="M411.48229374228856,806.7728639871419 L380.0,915.88" stroke="grey" stroke-width="5" />
<circle cx="411.48229374228856" cy="806.7728639871419" r="2.5" fill="grey" stroke="none" />
<circle cx="380.0" cy="795.88" r="5" fill="black" stroke="none" />
<circle cx="380.0" cy="915.88" r="5" fill="black" stroke="none" />
<path d="M380.0,715.88 L393.329631945936,691.8999921292612" stroke="grey" stroke-width="5" />
<circle cx="393.329631945936" cy="691.8999921292612" r="2.5" fill="grey" stroke="none" />
<path d="M393.329631945936,691.8999921292612 A219.5544907306612,219.5544907306612,0,0,0,460.00000000000006,715.88" stroke="grey" stroke-width="5" fill="none" />
<circle cx="380.0" cy="715.88" r="5" fill="black" stroke="none" />
<circle cx="460.0" cy="715.88" r="5" fill="black" stroke="none" />
<path d="M460.0,643.88 A149.33671484266688,149.33671484266688,0,0,0,472.7927742501308,646.8373973720443" stroke="grey" stroke-width="5" fill="none" />
<path d="M472.7927742501307,646.8373973720443 L460.0,715.88" stroke="grey" stroke-width="5" />
<circle cx="472.7927742501307" cy="646.8373973720443" r="2.5" fill="grey" stroke="none" />
<circle cx="460.0" cy="643.88" r="5" fill="black" stroke="none" />
<circle cx="460.0" cy="715.88" r="5" fill="black" stroke="none" />
<path d="M460.0,715.88 L460.2397016631136,714.5863301241759" stroke="grey" stroke-width="5" />
<circle cx="460.2397016631136" cy="714.5863301241759" r="2.5" fill="grey" stroke="none" />
<path d="M460.23970166311364,714.5863301241759 A218.2388013163562,218.2388013163562,0,0,0,532.0,715.88" stroke="grey" stroke-width="5" fill="none" />
<circle cx="460.0" cy="715.88" r="5" fill="black" stroke="none" />
<circle cx="532.0" cy="715.88" r="5" fill="black" stroke="none" />
<path d="M460.0,643.88 L461.4615869509158,638.6226717375558" stroke="grey" stroke-width="5" />
<circle cx="461.4615869509158" cy="638.6226717375558" r="2.5" fill="grey" stroke="none" />
<path d="M461.4615869509158,638.6226717375558 A143.88,143.88,0,0,0,500.0,643.88" stroke="grey" stroke-width="5" fill="none" />
<circle cx="460.0" cy="643.88" r="5" fill="black" stroke="none" />
<circle cx="500.0" cy="643.88" r="5" fill="black" stroke="none" />
<path d="M532.0,715.88 L531.2197161578456,710.6160101298653" stroke="grey" stroke-width="5" />
<circle cx="531.2197161578456" cy="710.6160101298653" r="2.5" fill="grey" stroke="none" />
<path d="M531.2197161578456,710.6160101298653 A212.9172947414089,212.9172947414089,0,0,0,620.0,675.88" stroke="grey" stroke-width="5" fill="none" />
<circle cx="532.0" cy="715.88" r="5" fill="black" stroke="none" />
<circle cx="620.0" cy="675.88" r="5" fill="black" stroke="none" />
<path d="M500.0,643.88 A143.88,143.88,0,0,0,601.7809235564368,601.6961061201398" stroke="grey" stroke-width="5" fill="none" />
<path d="M601.7809235564368,601.6961061201398 L644.0,643.88" stroke="grey" stroke-width="5" />
<circle cx="601.7809235564368" cy="601.6961061201398" r="2.5" fill="grey" stroke="none" />
<circle cx="500.0" cy="643.88" r="5" fill="black" stroke="none" />
<circle cx="644.0" cy="643.88" r="5" fill="black" stroke="none" />
<path d="M620.0,675.88 L614.727317816197,668.1520054792727" stroke="grey" stroke-width="5" />
<circle cx="614.727317816197" cy="668.1520054792727" r="2.5" fill="grey" stroke="none" />
<path d="M614.727317816197,668.1520054792727 A203.56191785302084,203.56191785302084,0,0,0,644.0,643.88" stroke="grey" stroke-width="5" fill="none" />
<circle cx="620.0" cy="675.88" r="5" fill="black" stroke="none" />
<circle cx="644.0" cy="643.88" r="5" fill="black" stroke="none" />
<path d="M380.0,795.88 L388.797655026637,774.1879152559886" stroke="grey" stroke-width="5" />
<circle cx="388.797655026637" cy="774.1879152559886" r="2.5" fill="grey" stroke="none" />
<path d="M388.797655026637,774.1879152559886 A295.88,295.88,0,0,0,500.0,795.88" stroke="grey" stroke-width="5" fill="none" />
<circle cx="380.0" cy="795.88" r="5" fill="black" stroke="none" />
<circle cx="500.0" cy="795.88" r="5" fill="black" stroke="none" />
<path d="M500.0,795.88 L500.0,721.7386172952289" stroke="grey" stroke-width="5" />
<circle cx="500.0" cy="721.7386172952289" r="2.5" fill="grey" stroke="none" />
<path d="M500.0,721.7386172952289 A221.73861729522892,221.73861729522892,0,0,0,596.0,699.88" stroke="grey" stroke-width="5" fill="none" />
<circle cx="500.0" cy="795.88" r="5" fill="black" stroke="none" />
<circle cx="596.0" cy="699.88" r="5" fill="black" stroke="none" />
<path d="M596.0,699.88 L592.1808773974666,691.9282684813085" stroke="grey" stroke-width="5" />
<circle cx="592.1808773974666" cy="691.9282684813085" r="2.5" fill="grey" stroke="none" />
<path d="M592.1808773974666,691.9282684813085 A212.9172947414089,212.9172947414089,0,0,0,620.0,675.88" stroke="grey" stroke-width="5" fill="none" />
<circle cx="596.0" cy="699.88" r="5" fill="black" stroke="none" />
<circle cx="620.0" cy="675.88" r="5" fill="black" stroke="none" />
<path d="M620.0,675.88 A212.9172947414089,212.9172947414089,0,0,1,609.5933905855694,682.5460575853634" stroke="grey" stroke-width="5" fill="none" />
<path d="M609.5933905855694,682.5460575853634 L620.0,699.88" stroke="grey" stroke-width="5" />
<circle cx="609.5933905855694" cy="682.5460575853634" r="2.5" fill="grey" stroke="none" />
<circle cx="620.0" cy="675.88" r="5" fill="black" stroke="none" />
<circle cx="620.0" cy="699.88" r="5" fill="black" stroke="none" />
<path d="M620.0,699.88 A233.13518481773616,233.13518481773616,0,0,1,570.902998623861,722.091826022807" stroke="grey" stroke-width="5" fill="none" />
<path d="M570.902998623861,722.091826022807 L620.0,875.88" stroke="grey" stroke-width="5" />
<circle cx="570.902998623861" cy="722.091826022807" r="2.5" fill="grey" stroke="none" />
<circle cx="620.0" cy="699.88" r="5" fill="black" stroke="none" />
<circle cx="620.0" cy="875.88" r="5" fill="black" stroke="none" />
<path d="M620.0,875.8799999999999 A394.57036685488686,394.57036685488686,0,0,0,696.5923234055081,842.1070487113999" stroke="grey" stroke-width="5" fill="none" />
<path d="M696.5923234055081,842.1070487113999 L716.0,875.88" stroke="grey" stroke-width="5" />
<circle cx="696.5923234055081" cy="842.1070487113999" r="2.5" fill="grey" stroke="none" />
<circle cx="620.0" cy="875.88" r="5" fill="black" stroke="none" />
<circle cx="716.0" cy="875.88" r="5" fill="black" stroke="none" />
<path d="M620.0,875.8799999999999 A394.57036685488686,394.57036685488686,0,0,1,607.4785375735693,879.6500208890378" stroke="grey" stroke-width="5" fill="none" />
<path d="M607.4785375735693,879.6500208890378 L620.0,923.88" stroke="grey" stroke-width="5" />
<circle cx="607.4785375735693" cy="879.6500208890378" r="2.5" fill="grey" stroke="none" />
<circle cx="620.0" cy="875.88" r="5" fill="black" stroke="none" />
<circle cx="620.0" cy="923.88" r="5" fill="black" stroke="none" />
<path d="M308.0,499.88 L499.8800000234375,499.9999250000146" stroke="grey" stroke-width="5" />
<circle cx="499.8800000234375" cy="499.9999250000146" r="2.5" fill="grey" stroke="none" />
<path d="M499.8800000234375,499.9999250000146 A0.12000000000000455,0.12000000000000455,0,0,1,500.0,499.88" stroke="grey" stroke-width="5" fill="none" />
<circle cx="308.0" cy="499.88" r="5" fill="black" stroke="none" />
<circle cx="500.0" cy="499.88" r="5" fill="black" stroke="none" />
<path d="M500.0,499.88 L500.0,643.88" stroke="grey" stroke-width="5" />
<circle cx="500.0" cy="499.88" r="5" fill="black" stroke="none" />
<circle cx="500.0" cy="643.88" r="5" fill="black" stroke="none" />
<path d="M500.0,499.88 A0.12000000000000455,0.12000000000000455,0,0,1,500.0,499.88" stroke="grey" stroke-width="5" fill="none" />
<path d="M500.0,499.88 L500.0,419.88" stroke="grey" stroke-width="5" />
<circle cx="500.0" cy="499.88" r="2.5" fill="grey" stroke="none" />
<circle cx="500.0" cy="499.88" r="5" fill="black" stroke="none" />
<circle cx="500.0" cy="419.88" r="5" fill="black" stroke="none" />
<path d="M500.0,419.88 A80.12,80.12,0,0,1,500.0,419.88" stroke="grey" stroke-width="5" fill="none" />
<path d="M500.0,419.88 L500.0,363.88" stroke="grey" stroke-width="5" />
<circle cx="500.0" cy="419.88" r="2.5" fill="grey" stroke="none" />
<circle cx="500.0" cy="419.88" r="5" fill="black" stroke="none" />
<circle cx="500.0" cy="363.88" r="5" fill="black" stroke="none" />
<path d="M500.0,419.88 A80.12,80.12,0,0,1,579.0458455105313,513.0755002782004" stroke="grey" stroke-width="5" fill="none" />
<path d="M579.0458455105313,513.0755002782004 L596.0,515.88" stroke="grey" stroke-width="5" />
<circle cx="579.0458455105313" cy="513.0755002782004" r="2.5" fill="grey" stroke="none" />
<circle cx="500.0" cy="419.88" r="5" fill="black" stroke="none" />
<circle cx="596.0" cy="515.88" r="5" fill="black" stroke="none" />
<path d="M500.0,499.88 A0.12000000000000455,0.12000000000000455,0,0,1,500.11839118149356,500.0195838746054" stroke="grey" stroke-width="5" fill="none" />
<path d="M500.11839118149356,500.0195838746054 L596.0,515.88" stroke="grey" stroke-width="5" />
<circle cx="500.11839118149356" cy="500.0195838746054" r="2.5" fill="grey" stroke="none" />
<circle cx="500.0" cy="499.88" r="5" fill="black" stroke="none" />
<circle cx="596.0" cy="515.88" r="5" fill="black" stroke="none" />
<path d="M596.0,515.88 A97.3045446009589,97.3045446009589,0,0,1,583.0589820962973,550.6890510182126" stroke="grey" stroke-width="5" fill="none" />
<path d="M583.0589820962973,550.6890510182126 L644.0,587.88" stroke="grey" stroke-width="5" />
<circle cx="583.0589820962973" cy="550.6890510182126" r="2.5" fill="grey" stroke="none" />
<circle cx="596.0" cy="515.88" r="5" fill="black" stroke="none" />
<circle cx="644.0" cy="587.88" r="5" fill="black" stroke="none" />
<path d="M596.0,699.88 A221.73861729522892,221.73861729522892,0,0,0,614.133926615281,690.109077098853" stroke="grey" stroke-width="5" fill="none" />
<path d="M614.133926615281,690.109077098853 L620.0,699.88" stroke="grey" stroke-width="5" />
<circle cx="614.133926615281" cy="690.109077098853" r="2.5" fill="grey" stroke="none" />
<circle cx="596.0" cy="699.88" r="5" fill="black" stroke="none" />
<circle cx="620.0" cy="699.88" r="5" fill="black" stroke="none" />
<path d="M620.0,699.88 A233.13518481773616,233.13518481773616,0,0,0,636.2758345086445,689.1584291776935" stroke="grey" stroke-width="5" fill="none" />
<path d="M636.2758345086445,689.1584291776935 L644.0,699.88" stroke="grey" stroke-width="5" />
<circle cx="636.2758345086445" cy="689.1584291776935" r="2.5" fill="grey" stroke="none" />
<circle cx="620.0" cy="699.88" r="5" fill="black" stroke="none" />
<circle cx="644.0" cy="699.88" r="5" fill="black" stroke="none" />
<path d="M644.0,699.88 L618.9892047023618,665.1636266382505" stroke="grey" stroke-width="5" />
<circle cx="618.9892047023618" cy="665.1636266382505" r="2.5" fill="grey" stroke="none" />
<path d="M618.9892047023618,665.1636266382505 A203.56191785302084,203.56191785302084,0,0,0,644.0,643.88" stroke="grey" stroke-width="5" fill="none" />
<circle cx="644.0" cy="699.88" r="5" fill="black" stroke="none" />
<circle cx="644.0" cy="643.88" r="5" fill="black" stroke="none" />
<path d="M644.0,643.88 L636.2354855086517,636.1219559373944" stroke="grey" stroke-width="5" />
<circle cx="636.2354855086517" cy="636.1219559373944" r="2.5" fill="grey" stroke="none" />
<path d="M636.2354855086517,636.1219559373944 A192.58581048457333,192.58581048457333,0,0,0,644.0,627.88" stroke="grey" stroke-width="5" fill="none" />
<circle cx="644.0" cy="643.88" r="5" fill="black" stroke="none" />
<circle cx="644.0" cy="627.88" r="5" fill="black" stroke="none" />
<path d="M644.0,627.88 L636.3497984456749,621.0861960085617" stroke="grey" stroke-width="5" />
<circle cx="636.3497984456749" cy="621.0861960085617" r="2.5" fill="grey" stroke="none" />
<path d="M636.3497984456749,621.0861960085617 A182.35441974353128,182.35441974353128,0,0,0,644.0,611.88" stroke="grey" stroke-width="5" fill="none" />
<circle cx="644.0" cy="627.88" r="5" fill="black" stroke="none" />
<circle cx="644.0" cy="611.88" r="5" fill="black" stroke="none" />
<path d="M644.0,611.88 L633.2156383990207,603.5011501672391" stroke="grey" stroke-width="5" />
<circle cx="633.2156383990207" cy="603.5011501672391" r="2.5" fill="grey" stroke="none" />
<path d="M633.2156383990206,603.5011501672391 A168.69764195151038,168.69764195151038,0,0,0,644.0,587.88" stroke="grey" stroke-width="5" fill="none" />
<circle cx="644.0" cy="611.88" r="5" fill="black" stroke="none" />
<circle cx="644.0" cy="587.88" r="5" fill="black" stroke="none" />
<path d="M644.0,587.88 A168.69764195151038,168.69764195151038,0,0,0,653.3933841755713,570.2094302153605" stroke="grey" stroke-width="5" fill="none" />
<path d="M653.3933841755713,570.2094302153605 L692.0,587.88" stroke="grey" stroke-width="5" />
<circle cx="653.3933841755713" cy="570.2094302153605" r="2.5" fill="grey" stroke="none" />
<circle cx="644.0" cy="587.88" r="5" fill="black" stroke="none" />
<circle cx="692.0" cy="587.88" r="5" fill="black" stroke="none" />
<path d="M692.0,587.88 A211.1560901323947,211.1560901323947,0,0,1,675.7431656335247,617.0522709438288" stroke="grey" stroke-width="5" fill="none" />
<path d="M675.7431656335247,617.0522709438288 L692.0,627.88" stroke="grey" stroke-width="5" />
<circle cx="675.7431656335247" cy="617.0522709438288" r="2.5" fill="grey" stroke="none" />
<circle cx="692.0" cy="587.88" r="5" fill="black" stroke="none" />
<circle cx="692.0" cy="627.88" r="5" fill="black" stroke="none" />
<path d="M692.0,627.88 L660.2873020116814,606.7580217773636" stroke="grey" stroke-width="5" />
<circle cx="660.2873020116814" cy="606.7580217773636" r="2.5" fill="grey" stroke="none" />
<path d="M660.2873020116814,606.7580217773636 A192.58581048457333,192.58581048457333,0,0,1,644.0,627.88" stroke="grey" stroke-width="5" fill="none" />
<circle cx="692.0" cy="627.88" r="5" fill="black" stroke="none" />
<circle cx="644.0" cy="627.88" r="5" fill="black" stroke="none" />
<path d="M644.0,611.88 A182.35441974353128,182.35441974353128,0,0,0,663.1376945097776,581.4814520614015" stroke="grey" stroke-width="5" fill="none" />
<path d="M663.1376945097776,581.4814520614015 L724.0,611.88" stroke="grey" stroke-width="5" />
<circle cx="663.1376945097776" cy="581.4814520614015" r="2.5" fill="grey" stroke="none" />
<circle cx="644.0" cy="611.88" r="5" fill="black" stroke="none" />
<circle cx="724.0" cy="611.88" r="5" fill="black" stroke="none" />
<circle cx="500" cy="500" r="5" fill="red" stroke="none" />
</svg>