<?xml version="1.0" encoding="UTF-8"?>
<svg xmlns="http://www.w3.org/2000/svg" xmlns:xlink="http://www.w3.org/1999/xlink"
     width="1000" height="1000" viewBox="0 0 1000 1000">
<defs>
</defs>
<rect x="0" y="0" width="1000" height="1000" fill="white" />
<path d="M276.0,398.6 L295.8753506942844,407.59714535893056" stroke="grey" stroke-width="5" />
<circle cx="295.8753506942844" cy="407.59714535893056" r="2.5" fill="grey" stroke="none" />
<path d="M295.8753506942844,407.59714535893056 A224.06507983173103,224.06507983173103,0,0,0,276.0,494.6" stroke="grey" stroke-width="5" fill="none" />
<circle cx="276.0" cy="398.6" r="5" fill="black" stroke="none" />
<circle cx="276.0" cy="494.6" r="5" fill="black" stroke="none" />
<path d="M276.0,494.6 L332.23825230396494,495.9557435823277" stroke="grey" stroke-width="5" />
<circle cx="332.23825230396494" cy="495.9557435823277" r="2.5" fill="grey" stroke="none" />
<path d="M332.23825230396494,495.9557435823277 A167.81048834920898,167.81048834920898,0,0,0,340.0,550.6" stroke="grey" stroke-width="5" fill="none" />
<circle cx="276.0" cy="494.6" r="5" fill="black" stroke="none" />
<circle cx="340.0" cy="550.6" r="5" fill="black" stroke="none" />
<path d="M252.0,550.6 L335.5770120402527,533.5475935111419" stroke="grey" stroke-width="5" />
<circle cx="335.5770120402527" cy="533.5475935111419" r="2.5" fill="grey" stroke="none" />
<path d="M335.5770120402527,533.5475935111419 A167.81048834920898,167.81048834920898,0,0,0,340.0,550.6" stroke="grey" stroke-width="5" fill="none" />
<circle cx="252.0" cy="550.6" r="5" fill="black" stroke="none" />
<circle cx="340.0" cy="550.6" r="5" fill="black" stroke="none" />
<path d="M340.0,550.6 L384.9246342624398,536.3925844145034" stroke="grey" stroke-width="5" />
<circle cx="384.9246342624398" cy="536.3925844145034" r="2.5" fill="grey" stroke="none" />
<path d="M384.9246342624398,536.3925844145034 A120.69283325864879,120.69283325864879,0,0,0,412.0,582.6" stroke="grey" stroke-width="5" fill="none" />
<circle cx="340.0" cy="550.6" r="5" fill="black" stroke="none" />
<circle cx="412.0" cy="582.6" r="5" fill="black" stroke="none" />
<path d="M412.0,582.6 A120.69283325864879,120.69283325864879,0,0,0,428.8239302506887,597.4716732955845" stroke="grey" stroke-width="5" fill="none" />
<path d="M428.8239302506887,597.4716732955845 L428.0,598.6" stroke="grey" stroke-width="5" />
<circle cx="428.8239302506887" cy="597.4716732955845" r="2.5" fill="grey" stroke="none" />
<circle cx="412.0" cy="582.6" r="5" fill="black" stroke="none" />
<circle cx="428.0" cy="598.6" r="5" fill="black" stroke="none" />
<path d="M428.0,598.6 A122.08996682774551,122.08996682774551,0,0,0,464.2458456766089,616.7373138658721" stroke="grey" stroke-width="5" fill="none" />
<path d="M464.2458456766089,616.7373138658721 L460.0,630.6" stroke="grey" stroke-width="5" />
<circle cx="464.2458456766089" cy="616.7373138658721" r="2.5" fill="grey" stroke="none" />
<circle cx="428.0" cy="598.6" r="5" fill="black" stroke="none" />
<circle cx="460.0" cy="630.6" r="5" fill="black" stroke="none" />
<path d="M428.0,598.6 A122.08996682774551,122.08996682774551,0,0,0,437.78098448285874,605.0464378647736" stroke="grey" stroke-width="5" fill="none" />
<path d="M437.78098448285874,605.0464378647736 L380.0,702.6" stroke="grey" stroke-width="5" />
<circle cx="437.78098448285874" cy="605.0464378647736" r="2.5" fill="grey" stroke="none" />
<circle cx="428.0" cy="598.6" r="5" fill="black" stroke="none" />
<circle cx="380.0" cy="702.6" r="5" fill="black" stroke="none" />
<path d="M380.00000000000006,702.6 A235.4713570691773,235.4713570691773,0,0,0,407.96579674883054,716.7405486565041" stroke="grey" stroke-width="5" fill="none" />
<path d="M407.96579674883054,716.7405486565041 L380.0,782.6" stroke="grey" stroke-width="5" />
<circle cx="407.96579674883054" cy="716.7405486565041" r="2.5" fill="grey" stroke="none" />
<circle cx="380.0" cy="702.6" r="5" fill="black" stroke="none" />
<circle cx="380.0" cy="782.6" r="5" fill="black" stroke="none" />
<path d="M276.0,798.6 L315.76023532793613,745.5981862994565" stroke="grey" stroke-width="5" />
<circle cx="315.76023532793613" cy="745.5981862994565" r="2.5" fill="grey" stroke="none" />
<path d="M315.76023532793613,745.5981862994565 A307.0224096055531,307.0224096055531,0,0,0,380.0,782.6000000000001" stroke="grey" stroke-width="5" fill="none" />
<circle cx="276.0" cy="798.6" r="5" fill="black" stroke="none" />
<circle cx="380.0" cy="782.6" r="5" fill="black" stroke="none" />
<path d="M380.0,782.6000000000001 A307.0224096055531,307.0224096055531,0,0,0,412.30087571554503,794.2305619743465" stroke="grey" stroke-width="5" fill="none" />
<path d="M412.30087571554503,794.2305619743465 L380.0,902.6" stroke="grey" stroke-width="5" />
<circle cx="412.30087571554503" cy="794.2305619743465" r="2.5" fill="grey" stroke="none" />
<circle cx="380.0" cy="782.6" r="5" fill="black" stroke="none" />
<circle cx="380.0" cy="902.6" r="5" fill="black" stroke="none" />
<path d="M380.0,702.6 L394.75870574910175,677.6823851269332" stroke="grey" stroke-width="5" />
<circle cx="394.75870574910175" cy="677.6823851269332" r="2.5" fill="grey" stroke="none" />
<path d="M394.75870574910175,677.6823851269332 A206.51091980813024,206.51091980813024,0,0,0,459.99999999999994,702.6" stroke="grey" stroke-width="5" fill="none" />
<circle cx="380.0" cy="702.6" r="5" fill="black" stroke="none" />
<circle cx="460.0" cy="702.6" r="5" fill="black" stroke="none" />
<path d="M460.00000000000006,630.6 A136.588286467032,136.588286467032,0,0,0,473.5436195637622,634.0015669095442" stroke="grey" stroke-width="5" fill="none" />
<path d="M473.54361956376226,634.0015669095442 L460.0,702.6" stroke="grey" stroke-width="5" />
<circle cx="473.54361956376226" cy="634.0015669095442" r="2.5" fill="grey" stroke="none" />
<circle cx="460.0" cy="630.6" r="5" fill="black" stroke="none" />
<circle cx="460.0" cy="702.6" r="5" fill="black" stroke="none" />
<path d="M460.0,702.6 L460.2710443436289,701.2271603995198" stroke="grey" stroke-width="5" />
<circle cx="460.2710443436289" cy="701.2271603995198" r="2.5" fill="grey" stroke="none" />
<path d="M460.2710443436288,701.2271603995198 A205.1115793903406,205.1115793903406,0,0,0,532.0,702.6" stroke="grey" stroke-width="5" fill="none" />
<circle cx="460.0" cy="702.6" r="5" fill="black" stroke="none" />
<circle cx="532.0" cy="702.6" r="5" fill="black" stroke="none" />
<path d="M460.0,630.6 L461.7536749664042,624.8742512346903" stroke="grey" stroke-width="5" />
<circle cx="461.7536749664042" cy="624.8742512346903" r="2.5" fill="grey" stroke="none" />
<path d="M461.7536749664042,624.8742512346903 A130.6,130.6,0,0,0,500.0,630.6" stroke="grey" stroke-width="5" fill="none" />
<circle cx="460.0" cy="630.6" r="5" fill="black" stroke="none" />
<circle cx="500.0" cy="630.6" r="5" fill="black" stroke="none" />
<path d="M532.0,702.6 L531.5279746781542,699.6114896810643" stroke="grey" stroke-width="5" />
<circle cx="531.5279746781542" cy="699.6114896810643" r="2.5" fill="grey" stroke="none" />
<path d="M531.5279746781542,699.6114896810643 A202.08602128796537,202.08602128796537,0,0,0,620.0,662.5999999999999" stroke="grey" stroke-width="5" fill="none" />
<circle cx="532.0" cy="702.6" r="5" fill="black" stroke="none" />
<circle cx="620.0" cy="662.6" r="5" fill="black" stroke="none" />
<path d="M500.0,630.6 A130.6,130.6,0,0,0,596.7394608341577,587.7373165620903" stroke="grey" stroke-width="5" fill="none" />
<path d="M596.7394608341579,587.7373165620903 L644.0,630.6" stroke="grey" stroke-width="5" />
<circle cx="596.7394608341579" cy="587.7373165620903" r="2.5" fill="grey" stroke="none" />
<circle cx="500.0" cy="630.6" r="5" fill="black" stroke="none" />
<circle cx="644.0" cy="630.6" r="5" fill="black" stroke="none" />
<path d="M620.0,662.6 L615.4375176039098,656.4178363532977" stroke="grey" stroke-width="5" />
<circle cx="615.4375176039098" cy="656.4178363532977" r="2.5" fill="grey" stroke="none" />
<path d="M615.4375176039098,656.4178363532977 A194.40257199944656,194.40257199944656,0,0,0,644.0,630.6" stroke="grey" stroke-width="5" fill="none" />
<circle cx="620.0" cy="662.6" r="5" fill="black" stroke="none" />
<circle cx="644.0" cy="630.6" r="5" fill="black" stroke="none" />
<path d="M380.0,782.6 L389.5455219585814,760.120295787541" stroke="grey" stroke-width="5" />
<circle cx="389.5455219585814" cy="760.120295787541" r="2.5" fill="grey" stroke="none" />
<path d="M389.5455219585814,760.120295787541 A282.6,282.6,0,0,0,500.0,782.6" stroke="grey" stroke-width="5" fill="none" />
<circle cx="380.0" cy="782.6" r="5" fill="black" stroke="none" />
<circle cx="500.0" cy="782.6" r="5" fill="black" stroke="none" />
<path d="M500.0,782.6 L500.0,709.8465153391878" stroke="grey" stroke-width="5" />
<circle cx="500.0" cy="709.8465153391878" r="2.5" fill="grey" stroke="none" />
<path d="M500.0,709.8465153391878 A209.84651533918785,209.84651533918785,0,0,0,596.0,686.6" stroke="grey" stroke-width="5" fill="none" />
<circle cx="500.0" cy="782.6" r="5" fill="black" stroke="none" />
<circle cx="596.0" cy="686.6" r="5" fill="black" stroke="none" />
<path d="M596.0,686.6 L592.449750772782,679.6992030645948" stroke="grey" stroke-width="5" />
<circle cx="592.449750772782" cy="679.6992030645948" r="2.5" fill="grey" stroke="none" />
<path d="M592.449750772782,679.6992030645948 A202.08602128796537,202.08602128796537,0,0,0,620.0,662.5999999999999" stroke="grey" stroke-width="5" fill="none" />
<circle cx="596.0" cy="686.6" r="5" fill="black" stroke="none" />
<circle cx="620.0" cy="662.6" r="5" fill="black" stroke="none" />
<path d="M620.0,662.5999999999999 A202.08602128796537,202.08602128796537,0,0,1,609.307171417949,669.9726515549107" stroke="grey" stroke-width="5" fill="none" />
<path d="M609.307171417949,669.9726515549107 L620.0,686.6" stroke="grey" stroke-width="5" />
<circle cx="609.307171417949" cy="669.9726515549107" r="2.5" fill="grey" stroke="none" />
<circle cx="620.0" cy="662.6" r="5" fill="black" stroke="none" />
<circle cx="620.0" cy="686.6" r="5" fill="black" stroke="none" />
<path d="M620.0,686.6 A221.8548173919151,221.8548173919151,0,0,1,569.7034185109663,710.6204962673032" stroke="grey" stroke-width="5" fill="none" />
<path d="M569.7034185109663,710.6204962673032 L620.0,862.6" stroke="grey" stroke-width="5" />
<circle cx="569.7034185109663" cy="710.6204962673032" r="2.5" fill="grey" stroke="none" />
<circle cx="620.0" cy="686.6" r="5" fill="black" stroke="none" />
<circle cx="620.0" cy="862.6" r="5" fill="black" stroke="none" />
<path d="M620.0,862.6 A381.9407807501053,381.9407807501053,0,0,0,695.4678995592199,828.132686945246" stroke="grey" stroke-width="5" fill="none" />
<path d="M695.4678995592199,828.132686945246 L716.0,862.6" stroke="grey" stroke-width="5" />
<circle cx="695.4678995592199" cy="828.132686945246" r="2.5" fill="grey" stroke="none" />
<circle cx="620.0" cy="862.6" r="5" fill="black" stroke="none" />
<circle cx="716.0" cy="862.6" r="5" fill="black" stroke="none" />
<path d="M620.0,862.6 A381.9407807501053,381.9407807501053,0,0,1,607.1422589148067,866.6050959201639" stroke="grey" stroke-width="5" fill="none" />
<path d="M607.1422589148067,866.6050959201639 L620.0,910.6" stroke="grey" stroke-width="5" />
<circle cx="607.1422589148067" cy="866.6050959201639" r="2.5" fill="grey" stroke="none" />
<circle cx="620.0" cy="862.6" r="5" fill="black" stroke="none" />
<circle cx="620.0" cy="910.6" r="5" fill="black" stroke="none" />
<path d="M308.0,486.6 L486.6325161356645,499.06706102196824" stroke="grey" stroke-width="5" />
<circle cx="486.6325161356645" cy="499.06706102196824" r="2.5" fill="grey" stroke="none" />
<path d="M486.6325161356645,499.06706102196824 A13.400000000000006,13.400000000000006,0,0,1,500.0,486.6" stroke="grey" stroke-width="5" fill="none" />
<circle cx="308.0" cy="486.6" r="5" fill="black" stroke="none" />
<circle cx="500.0" cy="486.6" r="5" fill="black" stroke="none" />
<path d="M500.0,486.6 L500.0,630.6" stroke="grey" stroke-width="5" />
<circle cx="500.0" cy="486.6" r="5" fill="black" stroke="none" />
<circle cx="500.0" cy="630.6" r="5" fill="black" stroke="none" />
<path d="M500.0,486.6 A13.400000000000006,13.400000000000006,0,0,1,500.0,486.6" stroke="grey" stroke-width="5" fill="none" />
<path d="M500.0,486.6 L500.0,406.6" stroke="grey" stroke-width="5" />
<circle cx="500.0" cy="486.6" r="2.5" fill="grey" stroke="none" />
<circle cx="500.0" cy="486.6" r="5" fill="black" stroke="none" />
<circle cx="500.0" cy="406.6" r="5" fill="black" stroke="none" />
<path d="M500.0,406.6 A93.4,93.4,0,0,1,500.0,406.6" stroke="grey" stroke-width="5" fill="none" />
<path d="M500.0,406.6 L500.0,350.6" stroke="grey" stroke-width="5" />
<circle cx="500.0" cy="406.6" r="2.5" fill="grey" stroke="none" />
<circle cx="500.0" cy="406.6" r="5" fill="black" stroke="none" />
<circle cx="500.0" cy="350.6" r="5" fill="black" stroke="none" />
<path d="M500.0,406.6 A93.4,93.4,0,0,1,593.3657640587691,502.528656109925" stroke="grey" stroke-width="5" fill="none" />
<path d="M593.3657640587691,502.528656109925 L596.0,502.6" stroke="grey" stroke-width="5" />
<circle cx="593.3657640587691" cy="502.528656109925" r="2.5" fill="grey" stroke="none" />
<circle cx="500.0" cy="406.6" r="5" fill="black" stroke="none" />
<circle cx="596.0" cy="502.6" r="5" fill="black" stroke="none" />
<path d="M500.0,486.6 A13.400000000000006,13.400000000000006,0,0,1,513.3950882054337,500.36278363889716" stroke="grey" stroke-width="5" fill="none" />
<path d="M513.3950882054337,500.36278363889716 L596.0,502.6" stroke="grey" stroke-width="5" />
<circle cx="513.3950882054337" cy="500.36278363889716" r="2.5" fill="grey" stroke="none" />
<circle cx="500.0" cy="486.6" r="5" fill="black" stroke="none" />
<circle cx="596.0" cy="502.6" r="5" fill="black" stroke="none" />
<path d="M596.0,502.6 A96.0352018793109,96.0352018793109,0,0,1,585.2718124749965,544.1755361849634" stroke="grey" stroke-width="5" fill="none" />
<path d="M585.2718124749965,544.1755361849634 L644.0,574.6" stroke="grey" stroke-width="5" />
<circle cx="585.2718124749965" cy="544.1755361849634" r="2.5" fill="grey" stroke="none" />
<circle cx="596.0" cy="502.6" r="5" fill="black" stroke="none" />
<circle cx="644.0" cy="574.6" r="5" fill="black" stroke="none" />
<path d="M596.0,686.6 A209.84651533918785,209.84651533918785,0,0,0,613.5047782001429,676.4999301012223" stroke="grey" stroke-width="5" fill="none" />
<path d="M613.5047782001429,676.4999301012223 L620.0,686.6" stroke="grey" stroke-width="5" />
<circle cx="613.5047782001429" cy="676.4999301012223" r="2.5" fill="grey" stroke="none" />
<circle cx="596.0" cy="686.6" r="5" fill="black" stroke="none" />
<circle cx="620.0" cy="686.6" r="5" fill="black" stroke="none" />
<path d="M620.0,686.6 A221.8548173919151,221.8548173919151,0,0,0,635.5400341640504,675.6372942709152" stroke="grey" stroke-width="5" fill="none" />
<path d="M635.5400341640503,675.6372942709152 L644.0,686.6" stroke="grey" stroke-width="5" />
<circle cx="635.5400341640503" cy="675.6372942709152" r="2.5" fill="grey" stroke="none" />
<circle cx="620.0" cy="686.6" r="5" fill="black" stroke="none" />
<circle cx="644.0" cy="686.6" r="5" fill="black" stroke="none" />
<path d="M644.0,686.6 L618.7683529262163,653.9039906668886" stroke="grey" stroke-width="5" />
<circle cx="618.7683529262163" cy="653.9039906668886" r="2.5" fill="grey" stroke="none" />
<path d="M618.7683529262164,653.9039906668886 A194.40257199944656,194.40257199944656,0,0,0,644.0,630.6" stroke="grey" stroke-width="5" fill="none" />
<circle cx="644.0" cy="686.6" r="5" fill="black" stroke="none" />
<circle cx="644.0" cy="630.6" r="5" fill="black" stroke="none" />
<path d="M644.0,630.6 L636.3209796677716,623.6355551709095" stroke="grey" stroke-width="5" />
<circle cx="636.3209796677716" cy="623.6355551709095" r="2.5" fill="grey" stroke="none" />
<path d="M636.3209796677716,623.6355551709095 A184.03575739513232,184.03575739513232,0,0,0,644.0,614.6" stroke="grey" stroke-width="5" fill="none" />
<circle cx="644.0" cy="630.6" r="5" fill="black" stroke="none" />
<circle cx="644.0" cy="614.6" r="5" fill="black" stroke="none" />
<path d="M644.0,614.6 L636.555968023845,608.6757912189767" stroke="grey" stroke-width="5" />
<circle cx="636.555968023845" cy="608.6757912189767" r="2.5" fill="grey" stroke="none" />
<path d="M636.555968023845,608.6757912189767 A174.522090292318,174.522090292318,0,0,0,644.0,598.6" stroke="grey" stroke-width="5" fill="none" />
<circle cx="644.0" cy="614.6" r="5" fill="black" stroke="none" />
<circle cx="644.0" cy="598.6" r="5" fill="black" stroke="none" />
<path d="M644.0,598.6 L633.8133790829263,591.6249942887259" stroke="grey" stroke-width="5" />
<circle cx="633.8133790829263" cy="591.6249942887259" r="2.5" fill="grey" stroke="none" />
<path d="M633.8133790829263,591.6249942887259 A162.17632379604615,162.17632379604615,0,0,0,644.0,574.6" stroke="grey" stroke-width="5" fill="none" />
<circle cx="644.0" cy="598.6" r="5" fill="black" stroke="none" />
<circle cx="644.0" cy="574.6" r="5" fill="black" stroke="none" />
<path d="M644.0,574.6 A162.17632379604615,162.17632379604615,0,0,0,651.1668152069833,558.7346063252132" stroke="grey" stroke-width="5" fill="none" />
<path d="M651.1668152069833,558.7346063252132 L692.0,574.6" stroke="grey" stroke-width="5" />
<circle cx="651.1668152069833" cy="558.7346063252132" r="2.5" fill="grey" stroke="none" />
<circle cx="644.0" cy="574.6" r="5" fill="black" stroke="none" />
<circle cx="692.0" cy="574.6" r="5" fill="black" stroke="none" />
<path d="M692.0,574.6 A205.98339738920706,205.98339738920706,0,0,1,676.8726887143607,605.570886076384" stroke="grey" stroke-width="5" fill="none" />
<path d="M676.8726887143607,605.570886076384 L692.0,614.6" stroke="grey" stroke-width="5" />
<circle cx="676.8726887143607" cy="605.570886076384" r="2.5" fill="grey" stroke="none" />
<circle cx="692.0" cy="574.6" r="5" fill="black" stroke="none" />
<circle cx="692.0" cy="614.6" r="5" fill="black" stroke="none" />
<path d="M692.0,614.6 L658.0268101343901,594.322252298964" stroke="grey" stroke-width="5" />
<circle cx="658.0268101343901" cy="594.322252298964" r="2.5" fill="grey" stroke="none" />
<path d="M658.0268101343901,594.322252298964 A184.03575739513232,184.03575739513232,0,0,1,644.0,614.6" stroke="grey" stroke-width="5" fill="none" />
<circle cx="692.0" cy="614.6" r="5" fill="black" stroke="none" />
<circle cx="644.0" cy="614.6" r="5" fill="black" stroke="none" />
<path d="M644.0,598.6 A174.522090292318,174.522090292318,0,0,0,659.7321762139554,570.3106811370358" stroke="grey" stroke-width="5" fill="none" />
<path d="M659.7321762139554,570.3106811370358 L724.0,598.6" stroke="grey" stroke-width="5" />
<circle cx="659.7321762139554" cy="570.3106811370358" r="2.5" fill="grey" stroke="none" />
<circle cx="644.0" cy="598.6" r="5" fill="black" stroke="none" />
<circle cx="724.0" cy="598.6" r="5" fill="black" stroke="none" />
<circle cx="500" cy="500" r="5" fill="red" stroke="none" />
</svg>