<?xml version="1.0" encoding="UTF-8"?>
<svg xmlns="http://www.w3.org/2000/svg" xmlns:xlink="http://www.w3.org/1999/xlink"
     width="1000" height="1000" viewBox="0 0 1000 1000">
<defs>
</defs>
<rect x="0" y="0" width="1000" height="1000" fill="white" />
<path d="M146.52000000000004,248.64 L185.33198063900267,276.23924027786506" stroke="grey" stroke-width="5" />
<circle cx="185.33198063900267" cy="276.23924027786506" r="2.5" fill="grey" stroke="none" />
<path d="M185.33198063900267,276.23924027786506 A386.1150605713276,386.1150605713276,0,0,0,146.52000000000004,344.64" stroke="grey" stroke-width="5" fill="none" />
<circle cx="146.52000000000004" cy="248.64" r="5" fill="black" stroke="none" />
<circle cx="146.52000000000004" cy="344.64" r="5" fill="black" stroke="none" />
<path d="M146.52000000000004,344.64 L219.8111373625798,376.85260354376595" stroke="grey" stroke-width="5" />
<circle cx="219.8111373625798" cy="376.85260354376595" r="2.5" fill="grey" stroke="none" />
<path d="M219.8111373625798,376.85260354376595 A306.05731489379565,306.05731489379565,0,0,0,210.52000000000004,400.63999999999993" stroke="grey" stroke-width="5" fill="none" />
<circle cx="146.52000000000004" cy="344.64" r="5" fill="black" stroke="none" />
<circle cx="210.52000000000004" cy="400.64" r="5" fill="black" stroke="none" />
<path d="M122.52000000000004,400.64 L204.02423317898285,422.0934825915644" stroke="grey" stroke-width="5" />
<circle cx="204.02423317898285" cy="422.0934825915644" r="2.5" fill="grey" stroke="none" />
<path d="M204.02423317898285,422.0934825915644 A306.05731489379565,306.05731489379565,0,0,1,210.52000000000004,400.63999999999993" stroke="grey" stroke-width="5" fill="none" />
<circle cx="122.52000000000004" cy="400.64" r="5" fill="black" stroke="none" />
<circle cx="210.52000000000004" cy="400.64" r="5" fill="black" stroke="none" />
<path d="M210.52000000000004,400.64 L284.65885571869234,426.0871352224998" stroke="grey" stroke-width="5" />
<circle cx="284.65885571869234" cy="426.0871352224998" r="2.5" fill="grey" stroke="none" />
<path d="M284.65885571869234,426.0871352224998 A227.67283544595298,227.67283544595298,0,0,0,282.52000000000004,432.64" stroke="grey" stroke-width="5" fill="none" />
<circle cx="210.52000000000004" cy="400.64" r="5" fill="black" stroke="none" />
<circle cx="282.52000000000004" cy="432.64" r="5" fill="black" stroke="none" />
<path d="M282.52000000000004,432.64 L301.3854902568323,438.4832013228813" stroke="grey" stroke-width="5" />
<circle cx="301.3854902568323" cy="438.4832013228813" r="2.5" fill="grey" stroke="none" />
<path d="M301.3854902568323,438.4832013228813 A207.92315888327587,207.92315888327587,0,0,0,298.52000000000004,448.64" stroke="grey" stroke-width="5" fill="none" />
<circle cx="282.52000000000004" cy="432.64" r="5" fill="black" stroke="none" />
<circle cx="298.52000000000004" cy="448.64" r="5" fill="black" stroke="none" />
<path d="M298.52000000000004,448.64 L334.70385053729126,457.86375701605755" stroke="grey" stroke-width="5" />
<circle cx="334.70385053729126" cy="457.86375701605755" r="2.5" fill="grey" stroke="none" />
<path d="M334.70385053729126,457.86375701605755 A170.58217960853938,170.58217960853938,0,0,0,330.52000000000004,480.64" stroke="grey" stroke-width="5" fill="none" />
<circle cx="298.52000000000004" cy="448.64" r="5" fill="black" stroke="none" />
<circle cx="330.52000000000004" cy="480.64" r="5" fill="black" stroke="none" />
<path d="M298.52000000000004,448.64 A207.92315888327587,207.92315888327587,0,0,0,296.5562393684048,542.9264051613244" stroke="grey" stroke-width="5" fill="none" />
<path d="M296.55623936840476,542.9264051613243 L250.52000000000004,552.64" stroke="grey" stroke-width="5" />
<circle cx="296.55623936840476" cy="542.9264051613243" r="2.5" fill="grey" stroke="none" />
<circle cx="298.52000000000004" cy="448.64" r="5" fill="black" stroke="none" />
<circle cx="250.52000000000004" cy="552.64" r="5" fill="black" stroke="none" />
<path d="M250.52000000000007,552.6400000000001 A254.97301818035567,254.97301818035567,0,0,0,274.86812178192736,619.6949347717058" stroke="grey" stroke-width="5" fill="none" />
<path d="M274.86812178192736,619.6949347717058 L250.52000000000004,632.64" stroke="grey" stroke-width="5" />
<circle cx="274.86812178192736" cy="619.6949347717058" r="2.5" fill="grey" stroke="none" />
<circle cx="250.52000000000004" cy="552.64" r="5" fill="black" stroke="none" />
<circle cx="250.52000000000004" cy="632.64" r="5" fill="black" stroke="none" />
<path d="M146.52000000000004,648.64 L239.54231840829908,609.5236782612607" stroke="grey" stroke-width="5" />
<circle cx="239.54231840829908" cy="609.5236782612607" r="2.5" fill="grey" stroke="none" />
<path d="M239.54231840829914,609.5236782612608 A282.54847371734286,282.54847371734286,0,0,0,250.52000000000004,632.64" stroke="grey" stroke-width="5" fill="none" />
<circle cx="146.52000000000004" cy="648.64" r="5" fill="black" stroke="none" />
<circle cx="250.52000000000004" cy="632.64" r="5" fill="black" stroke="none" />
<path d="M250.52000000000004,632.64 A282.54847371734286,282.54847371734286,0,0,0,301.46934355894496,701.0453144270807" stroke="grey" stroke-width="5" fill="none" />
<path d="M301.46934355894507,701.0453144270808 L250.52000000000004,752.64" stroke="grey" stroke-width="5" />
<circle cx="301.46934355894507" cy="701.0453144270808" r="2.5" fill="grey" stroke="none" />
<circle cx="250.52000000000004" cy="632.64" r="5" fill="black" stroke="none" />
<circle cx="250.52000000000004" cy="752.64" r="5" fill="black" stroke="none" />
<path d="M250.52000000000004,552.64 L326.35653005246866,536.6385772728798" stroke="grey" stroke-width="5" />
<circle cx="326.35653005246866" cy="536.6385772728798" r="2.5" fill="grey" stroke="none" />
<path d="M326.3565300524687,536.6385772728798 A177.46672927622234,177.46672927622234,0,0,0,330.52000000000004,552.64" stroke="grey" stroke-width="5" fill="none" />
<circle cx="250.52000000000004" cy="552.64" r="5" fill="black" stroke="none" />
<circle cx="330.52000000000004" cy="552.64" r="5" fill="black" stroke="none" />
<path d="M330.52000000000004,480.64 A170.58217960853938,170.58217960853938,0,0,0,337.09471675078225,550.5979119084188" stroke="grey" stroke-width="5" fill="none" />
<path d="M337.09471675078225,550.5979119084188 L330.52000000000004,552.64" stroke="grey" stroke-width="5" />
<circle cx="337.09471675078225" cy="550.5979119084188" r="2.5" fill="grey" stroke="none" />
<circle cx="330.52000000000004" cy="480.64" r="5" fill="black" stroke="none" />
<circle cx="330.52000000000004" cy="552.64" r="5" fill="black" stroke="none" />
<path d="M330.52000000000004,552.64 L394.20076222686214,532.8609386144558" stroke="grey" stroke-width="5" />
<circle cx="394.20076222686214" cy="532.8609386144558" r="2.5" fill="grey" stroke="none" />
<path d="M394.20076222686214,532.8609386144558 A110.78501703750372,110.78501703750372,0,0,0,402.52000000000004,552.64" stroke="grey" stroke-width="5" fill="none" />
<circle cx="330.52000000000004" cy="552.64" r="5" fill="black" stroke="none" />
<circle cx="402.52000000000004" cy="552.64" r="5" fill="black" stroke="none" />
<path d="M330.52000000000004,480.64 L369.92654246957636,485.1414790076174" stroke="grey" stroke-width="5" />
<circle cx="369.92654246957636" cy="485.1414790076174" r="2.5" fill="grey" stroke="none" />
<path d="M369.92654246957636,485.1414790076174 A130.91936449586055,130.91936449586055,0,0,1,370.52000000000004,480.64" stroke="grey" stroke-width="5" fill="none" />
<circle cx="330.52000000000004" cy="480.64" r="5" fill="black" stroke="none" />
<circle cx="370.52000000000004" cy="480.64" r="5" fill="black" stroke="none" />
<path d="M402.52000000000004,552.64 L486.09754241876766,507.50744118871637" stroke="grey" stroke-width="5" />
<circle cx="486.09754241876766" cy="507.50744118871637" r="2.5" fill="grey" stroke="none" />
<path d="M486.09754241876766,507.50744118871637 A15.799999999999965,15.799999999999965,0,0,0,490.52000000000004,512.64" stroke="grey" stroke-width="5" fill="none" />
<circle cx="402.52000000000004" cy="552.64" r="5" fill="black" stroke="none" />
<circle cx="490.52000000000004" cy="512.64" r="5" fill="black" stroke="none" />
<path d="M370.52000000000004,480.64 L476.06606163980365,496.4213697354541" stroke="grey" stroke-width="5" />
<circle cx="476.06606163980365" cy="496.4213697354541" r="2.5" fill="grey" stroke="none" />
<path d="M476.06606163980365,496.4213697354541 A24.200000000000035,24.200000000000035,0,0,1,514.5200000000001,480.64" stroke="grey" stroke-width="5" fill="none" />
<circle cx="370.52000000000004" cy="480.64" r="5" fill="black" stroke="none" />
<circle cx="514.52" cy="480.64" r="5" fill="black" stroke="none" />
<path d="M490.52000000000004,512.64 L514.52,480.64" stroke="grey" stroke-width="5" />
<circle cx="490.52000000000004" cy="512.64" r="5" fill="black" stroke="none" />
<circle cx="514.52" cy="480.64" r="5" fill="black" stroke="none" />
<path d="M250.52000000000004,632.64 L336.33361565751784,587.015829802737" stroke="grey" stroke-width="5" />
<circle cx="336.33361565751784" cy="587.015829802737" r="2.5" fill="grey" stroke="none" />
<path d="M336.33361565751784,587.015829802737 A185.3602977986386,185.3602977986386,0,0,0,370.52,632.64" stroke="grey" stroke-width="5" fill="none" />
<circle cx="250.52000000000004" cy="632.64" r="5" fill="black" stroke="none" />
<circle cx="370.52000000000004" cy="632.64" r="5" fill="black" stroke="none" />
<path d="M370.52000000000004,632.64 L465.33003200400265,535.5160994361221" stroke="grey" stroke-width="5" />
<circle cx="465.33003200400265" cy="535.5160994361221" r="2.5" fill="grey" stroke="none" />
<path d="M465.33003200400265,535.5160994361221 A49.63265054377004,49.63265054377004,0,0,0,466.52000000000004,536.64" stroke="grey" stroke-width="5" fill="none" />
<circle cx="370.52000000000004" cy="632.64" r="5" fill="black" stroke="none" />
<circle cx="466.52000000000004" cy="536.64" r="5" fill="black" stroke="none" />
<path d="M466.52000000000004,536.64 L489.34201590677696,511.66393480214134" stroke="grey" stroke-width="5" />
<circle cx="489.34201590677696" cy="511.66393480214134" r="2.5" fill="grey" stroke="none" />
<path d="M489.34201590677696,511.66393480214134 A15.799999999999965,15.799999999999965,0,0,0,490.52000000000004,512.64" stroke="grey" stroke-width="5" fill="none" />
<circle cx="466.52000000000004" cy="536.64" r="5" fill="black" stroke="none" />
<circle cx="490.52000000000004" cy="512.64" r="5" fill="black" stroke="none" />
<path d="M490.52000000000004,512.64 A15.799999999999965,15.799999999999965,0,0,0,496.0423322489428,515.2963023627359" stroke="grey" stroke-width="5" fill="none" />
<path d="M496.0423322489428,515.2963023627359 L490.52000000000004,536.64" stroke="grey" stroke-width="5" />
<circle cx="496.0423322489428" cy="515.2963023627359" r="2.5" fill="grey" stroke="none" />
<circle cx="490.52000000000004" cy="512.64" r="5" fill="black" stroke="none" />
<circle cx="490.52000000000004" cy="536.64" r="5" fill="black" stroke="none" />
<path d="M490.52000000000004,536.64 A37.846532205738455,37.846532205738455,0,0,0,498.3143853596075,537.8089764908294" stroke="grey" stroke-width="5" fill="none" />
<path d="M498.3143853596075,537.8089764908294 L490.52000000000004,712.64" stroke="grey" stroke-width="5" />
<circle cx="498.3143853596075" cy="537.8089764908294" r="2.5" fill="grey" stroke="none" />
<circle cx="490.52000000000004" cy="536.64" r="5" fill="black" stroke="none" />
<circle cx="490.52000000000004" cy="712.64" r="5" fill="black" stroke="none" />
<path d="M490.52000000000004,712.64 A212.85121564134886,212.85121564134886,0,0,0,580.219738117898,697.1558612273443" stroke="grey" stroke-width="5" fill="none" />
<path d="M580.219738117898,697.1558612273443 L586.52,712.64" stroke="grey" stroke-width="5" />
<circle cx="580.219738117898" cy="697.1558612273443" r="2.5" fill="grey" stroke="none" />
<circle cx="490.52000000000004" cy="712.64" r="5" fill="black" stroke="none" />
<circle cx="586.52" cy="712.64" r="5" fill="black" stroke="none" />
<path d="M490.52000000000004,712.64 A212.85121564134886,212.85121564134886,0,0,0,492.26328986090414,712.7105623052687" stroke="grey" stroke-width="5" fill="none" />
<path d="M492.26328986090414,712.7105623052687 L490.52000000000004,760.64" stroke="grey" stroke-width="5" />
<circle cx="492.26328986090414" cy="712.7105623052687" r="2.5" fill="grey" stroke="none" />
<circle cx="490.52000000000004" cy="712.64" r="5" fill="black" stroke="none" />
<circle cx="490.52000000000004" cy="760.64" r="5" fill="black" stroke="none" />
<path d="M178.52000000000004,336.64 L314.1660553310287,405.56851685603095" stroke="grey" stroke-width="5" />
<circle cx="314.1660553310287" cy="405.56851685603095" r="2.5" fill="grey" stroke="none" />
<path d="M314.1660553310287,405.56851685603095 A208.45037778809612,208.45037778809612,0,0,1,370.52000000000004,336.64" stroke="grey" stroke-width="5" fill="none" />
<circle cx="178.52000000000004" cy="336.64" r="5" fill="black" stroke="none" />
<circle cx="370.52000000000004" cy="336.64" r="5" fill="black" stroke="none" />
<path d="M370.52000000000004,336.64 L418.67877863883604,397.4001025520563" stroke="grey" stroke-width="5" />
<circle cx="418.67877863883604" cy="397.4001025520563" r="2.5" fill="grey" stroke="none" />
<path d="M418.67877863883604,397.4001025520563 A130.91936449586055,130.91936449586055,0,0,0,370.52000000000004,480.64" stroke="grey" stroke-width="5" fill="none" />
<circle cx="370.52000000000004" cy="336.64" r="5" fill="black" stroke="none" />
<circle cx="370.52000000000004" cy="480.64" r="5" fill="black" stroke="none" />
<path d="M370.52000000000004,336.64 A208.45037778809612,208.45037778809612,0,0,1,402.0894352900288,315.9753241595722" stroke="grey" stroke-width="5" fill="none" />
<path d="M402.0894352900288,315.9753241595722 L370.52000000000004,256.64" stroke="grey" stroke-width="5" />
<circle cx="402.0894352900288" cy="315.9753241595722" r="2.5" fill="grey" stroke="none" />
<circle cx="370.52000000000004" cy="336.64" r="5" fill="black" stroke="none" />
<circle cx="370.52000000000004" cy="256.64" r="5" fill="black" stroke="none" />
<path d="M370.52,256.64 A275.6613139343278,275.6613139343278,0,0,1,390.5677071886091,246.99064584477907" stroke="grey" stroke-width="5" fill="none" />
<path d="M390.56770718860906,246.99064584477907 L370.52000000000004,200.64" stroke="grey" stroke-width="5" />
<circle cx="390.56770718860906" cy="246.99064584477907" r="2.5" fill="grey" stroke="none" />
<circle cx="370.52000000000004" cy="256.64" r="5" fill="black" stroke="none" />
<circle cx="370.52000000000004" cy="200.64" r="5" fill="black" stroke="none" />
<path d="M370.52000000000004,256.64 L429.0200408712548,366.5918840471777" stroke="grey" stroke-width="5" />
<circle cx="429.0200408712548" cy="366.5918840471777" r="2.5" fill="grey" stroke="none" />
<path d="M429.0200408712548,366.5918840471777 A151.11545255201403,151.11545255201403,0,0,1,466.52000000000004,352.64" stroke="grey" stroke-width="5" fill="none" />
<circle cx="370.52000000000004" cy="256.64" r="5" fill="black" stroke="none" />
<circle cx="466.52000000000004" cy="352.64" r="5" fill="black" stroke="none" />
<path d="M370.52000000000004,336.64 L406.1338770211999,381.57267647654623" stroke="grey" stroke-width="5" />
<circle cx="406.1338770211999" cy="381.57267647654623" r="2.5" fill="grey" stroke="none" />
<path d="M406.1338770211999,381.57267647654623 A151.11545255201403,151.11545255201403,0,0,1,466.52000000000004,352.64" stroke="grey" stroke-width="5" fill="none" />
<circle cx="370.52000000000004" cy="336.64" r="5" fill="black" stroke="none" />
<circle cx="466.52000000000004" cy="352.64" r="5" fill="black" stroke="none" />
<path d="M466.52000000000004,352.64 L482.9967184591612,425.16118375573427" stroke="grey" stroke-width="5" />
<circle cx="482.9967184591612" cy="425.16118375573427" r="2.5" fill="grey" stroke="none" />
<path d="M482.9967184591612,425.16118375573427 A76.74607481819511,76.74607481819511,0,0,1,514.5200000000001,424.64" stroke="grey" stroke-width="5" fill="none" />
<circle cx="466.52000000000004" cy="352.64" r="5" fill="black" stroke="none" />
<circle cx="514.52" cy="424.64" r="5" fill="black" stroke="none" />
<path d="M466.52000000000004,536.64 L474.4703963144042,527.9392078566377" stroke="grey" stroke-width="5" />
<circle cx="474.4703963144042" cy="527.9392078566377" r="2.5" fill="grey" stroke="none" />
<path d="M474.4703963144042,527.9392078566377 A37.846532205738455,37.846532205738455,0,0,0,490.52000000000004,536.64" stroke="grey" stroke-width="5" fill="none" />
<circle cx="466.52000000000004" cy="536.64" r="5" fill="black" stroke="none" />
<circle cx="490.52000000000004" cy="536.64" r="5" fill="black" stroke="none" />
<path d="M490.52000000000004,536.64 A37.846532205738455,37.846532205738455,0,0,0,513.9431930855178,535.1844762157967" stroke="grey" stroke-width="5" fill="none" />
<path d="M513.9431930855178,535.1844762157967 L514.52,536.64" stroke="grey" stroke-width="5" />
<circle cx="513.9431930855178" cy="535.1844762157967" r="2.5" fill="grey" stroke="none" />
<circle cx="490.52000000000004" cy="536.64" r="5" fill="black" stroke="none" />
<circle cx="514.52" cy="536.64" r="5" fill="black" stroke="none" />
<path d="M514.52,536.64 L508.9156192920198,522.4978161749038" stroke="grey" stroke-width="5" />
<circle cx="508.9156192920198" cy="522.4978161749038" r="2.5" fill="grey" stroke="none" />
<path d="M508.9156192920198,522.4978161749038 A24.200000000000035,24.200000000000035,0,0,0,514.5200000000001,480.64" stroke="grey" stroke-width="5" fill="none" />
<circle cx="514.52" cy="536.64" r="5" fill="black" stroke="none" />
<circle cx="514.52" cy="480.64" r="5" fill="black" stroke="none" />
<path d="M514.5200000000001,480.64 A24.200000000000035,24.200000000000035,0,0,0,509.19248849534546,477.613884766156" stroke="grey" stroke-width="5" fill="none" />
<path d="M509.19248849534546,477.613884766156 L514.52,464.64" stroke="grey" stroke-width="5" />
<circle cx="509.19248849534546" cy="477.613884766156" r="2.5" fill="grey" stroke="none" />
<circle cx="514.52" cy="480.64" r="5" fill="black" stroke="none" />
<circle cx="514.52" cy="464.64" r="5" fill="black" stroke="none" />
<path d="M514.5200000000001,464.64 A38.22512262897272,38.22512262897272,0,0,0,510.3990500980616,463.216583124212" stroke="grey" stroke-width="5" fill="none" />
<path d="M510.3990500980616,463.216583124212 L514.52,448.64" stroke="grey" stroke-width="5" />
<circle cx="510.3990500980616" cy="463.216583124212" r="2.5" fill="grey" stroke="none" />
<circle cx="514.52" cy="464.64" r="5" fill="black" stroke="none" />
<circle cx="514.52" cy="448.64" r="5" fill="black" stroke="none" />
<path d="M514.5200000000001,448.64 A53.37302689561463,53.37302689561463,0,0,0,510.09792816584013,447.59091827977204" stroke="grey" stroke-width="5" fill="none" />
<path d="M510.09792816584013,447.59091827977204 L514.52,424.64" stroke="grey" stroke-width="5" />
<circle cx="510.09792816584013" cy="447.59091827977204" r="2.5" fill="grey" stroke="none" />
<circle cx="514.52" cy="448.64" r="5" fill="black" stroke="none" />
<circle cx="514.52" cy="424.64" r="5" fill="black" stroke="none" />
<path d="M514.5200000000001,424.64 A76.74607481819511,76.74607481819511,0,0,1,549.0020046433774,440.9342439231459" stroke="grey" stroke-width="5" fill="none" />
<path d="M549.0020046433774,440.9342439231459 L562.52,424.64" stroke="grey" stroke-width="5" />
<circle cx="549.0020046433774" cy="440.9342439231459" r="2.5" fill="grey" stroke="none" />
<circle cx="514.52" cy="424.64" r="5" fill="black" stroke="none" />
<circle cx="562.52" cy="424.64" r="5" fill="black" stroke="none" />
<path d="M562.52,424.64 L545.8610301285484,444.7202938181797" stroke="grey" stroke-width="5" />
<circle cx="545.8610301285484" cy="444.7202938181797" r="2.5" fill="grey" stroke="none" />
<path d="M545.8610301285484,444.7202938181797 A71.82673596927543,71.82673596927543,0,0,1,562.52,464.64" stroke="grey" stroke-width="5" fill="none" />
<circle cx="562.52" cy="424.64" r="5" fill="black" stroke="none" />
<circle cx="562.52" cy="464.64" r="5" fill="black" stroke="none" />
<path d="M562.52,464.64 L533.2722159028033,481.1819329122981" stroke="grey" stroke-width="5" />
<circle cx="533.2722159028033" cy="481.1819329122981" r="2.5" fill="grey" stroke="none" />
<path d="M533.2722159028033,481.1819329122981 A38.22512262897272,38.22512262897272,0,0,0,514.5200000000001,464.64" stroke="grey" stroke-width="5" fill="none" />
<circle cx="562.52" cy="464.64" r="5" fill="black" stroke="none" />
<circle cx="514.52" cy="464.64" r="5" fill="black" stroke="none" />
<path d="M514.5200000000001,448.64 A53.37302689561463,53.37302689561463,0,0,1,546.8968405853556,474.51733249615046" stroke="grey" stroke-width="5" fill="none" />
<path d="M546.8968405853556,474.51733249615046 L594.52,448.64" stroke="grey" stroke-width="5" />
<circle cx="546.8968405853556" cy="474.51733249615046" r="2.5" fill="grey" stroke="none" />
<circle cx="514.52" cy="448.64" r="5" fill="black" stroke="none" />
<circle cx="594.52" cy="448.64" r="5" fill="black" stroke="none" />
<circle cx="500" cy="500" r="5" fill="red" stroke="none" />
</svg>