<?xml version="1.0" encoding="UTF-8"?>
<svg xmlns="http://www.w3.org/2000/svg" xmlns:xlink="http://www.w3.org/1999/xlink"
     width="1000" height="1000" viewBox="0 0 1000 1000">
<defs>
</defs>
<rect x="0" y="0" width="1000" height="1000" fill="white" />
<path d="M156.0,55.92000000000007 L200.30604479944077,113.11601271667354" stroke="grey" stroke-width="5" />
<circle cx="200.30604479944077" cy="113.11601271667354" r="2.5" fill="grey" stroke="none" />
<path d="M200.30604479944077,113.11601271667354 A489.38296496711035,489.38296496711035,0,0,0,155.99999999999994,151.92000000000013" stroke="grey" stroke-width="5" fill="none" />
<circle cx="156.0" cy="55.92000000000007" r="5" fill="black" stroke="none" />
<circle cx="156.0" cy="151.92000000000007" r="5" fill="black" stroke="none" />
<path d="M156.0,151.92000000000007 L215.58783879221,212.21457827555957" stroke="grey" stroke-width="5" />
<circle cx="215.58783879221" cy="212.21457827555957" r="2.5" fill="grey" stroke="none" />
<path d="M215.58783879221,212.21457827555957 A404.6118218737559,404.6118218737559,0,0,1,219.99999999999994,207.92000000000007" stroke="grey" stroke-width="5" fill="none" />
<circle cx="156.0" cy="151.92000000000007" r="5" fill="black" stroke="none" />
<circle cx="220.0" cy="207.92000000000007" r="5" fill="black" stroke="none" />
<path d="M132.0,207.92000000000007 L183.07897260625322,248.46115847509364" stroke="grey" stroke-width="5" />
<circle cx="183.07897260625322" cy="248.46115847509364" r="2.5" fill="grey" stroke="none" />
<path d="M183.07897260625327,248.4611584750935 A404.6118218737559,404.6118218737559,0,0,1,219.99999999999994,207.92000000000007" stroke="grey" stroke-width="5" fill="none" />
<circle cx="132.0" cy="207.92000000000007" r="5" fill="black" stroke="none" />
<circle cx="220.0" cy="207.92000000000007" r="5" fill="black" stroke="none" />
<path d="M220.0,207.92000000000007 L269.5396516679261,259.59693378274244" stroke="grey" stroke-width="5" />
<circle cx="269.5396516679261" cy="259.59693378274244" r="2.5" fill="grey" stroke="none" />
<path d="M269.5396516679261,259.59693378274244 A333.02493360107434,333.02493360107434,0,0,1,292.0000000000001,239.9199999999999" stroke="grey" stroke-width="5" fill="none" />
<circle cx="220.0" cy="207.92000000000007" r="5" fill="black" stroke="none" />
<circle cx="292.0" cy="239.92000000000007" r="5" fill="black" stroke="none" />
<path d="M292.0,239.92000000000007 L306.0396146545646,257.47491816999593" stroke="grey" stroke-width="5" />
<circle cx="306.0396146545646" cy="257.47491816999593" r="2.5" fill="grey" stroke="none" />
<path d="M306.03961465456473,257.4749181699958 A310.5463675524155,310.5463675524155,0,0,1,308.0000000000001,255.92000000000004" stroke="grey" stroke-width="5" fill="none" />
<circle cx="292.0" cy="239.92000000000007" r="5" fill="black" stroke="none" />
<circle cx="308.0" cy="255.92000000000007" r="5" fill="black" stroke="none" />
<path d="M308.0,255.92000000000007 L335.74854617877133,291.1953393297632" stroke="grey" stroke-width="5" />
<circle cx="335.74854617877133" cy="291.1953393297632" r="2.5" fill="grey" stroke="none" />
<path d="M335.74854617877145,291.1953393297631 A265.6650643197181,265.6650643197181,0,0,1,340.0,287.9200000000001" stroke="grey" stroke-width="5" fill="none" />
<circle cx="308.0" cy="255.92000000000007" r="5" fill="black" stroke="none" />
<circle cx="340.0" cy="287.9200000000001" r="5" fill="black" stroke="none" />
<path d="M308.0,255.92000000000007 L328.190790159357,281.58754199008274" stroke="grey" stroke-width="5" />
<circle cx="328.190790159357" cy="281.58754199008274" r="2.5" fill="grey" stroke="none" />
<path d="M328.1907901593571,281.5875419900826 A277.889198062825,277.889198062825,0,0,0,259.9999999999999,359.9200000000002" stroke="grey" stroke-width="5" fill="none" />
<circle cx="308.0" cy="255.92000000000007" r="5" fill="black" stroke="none" />
<circle cx="260.0" cy="359.9200000000001" r="5" fill="black" stroke="none" />
<path d="M260.0,359.9200000000001 L286.32713675656174,375.28627215357994" stroke="grey" stroke-width="5" />
<circle cx="286.32713675656174" cy="375.28627215357994" r="2.5" fill="grey" stroke="none" />
<path d="M286.3271367565617,375.28627215358 A247.4057525604447,247.4057525604447,0,0,0,260.0,439.91999999999996" stroke="grey" stroke-width="5" fill="none" />
<circle cx="260.0" cy="359.9200000000001" r="5" fill="black" stroke="none" />
<circle cx="260.0" cy="439.9200000000001" r="5" fill="black" stroke="none" />
<path d="M156.0,455.9200000000001 L254.60074051886207,468.5546530292775" stroke="grey" stroke-width="5" />
<circle cx="254.60074051886207" cy="468.5546530292775" r="2.5" fill="grey" stroke="none" />
<path d="M254.60074051886207,468.5546530292775 A247.4057525604447,247.4057525604447,0,0,1,260.0,439.91999999999996" stroke="grey" stroke-width="5" fill="none" />
<circle cx="156.0" cy="455.9200000000001" r="5" fill="black" stroke="none" />
<circle cx="260.0" cy="439.9200000000001" r="5" fill="black" stroke="none" />
<path d="M260.0,439.9200000000001 L260.0376441026398,439.9294235736942" stroke="grey" stroke-width="5" />
<circle cx="260.0376441026398" cy="439.9294235736942" r="2.5" fill="grey" stroke="none" />
<path d="M260.03764410263983,439.92942357369407 A247.3669468623486,247.3669468623486,0,0,0,260.0,559.9200000000001" stroke="grey" stroke-width="5" fill="none" />
<circle cx="260.0" cy="439.9200000000001" r="5" fill="black" stroke="none" />
<circle cx="260.0" cy="559.9200000000001" r="5" fill="black" stroke="none" />
<path d="M260.0,359.9200000000001 L316.3392258827742,392.80332817357925" stroke="grey" stroke-width="5" />
<circle cx="316.3392258827742" cy="392.80332817357925" r="2.5" fill="grey" stroke="none" />
<path d="M316.33922588277414,392.8033281735793 A212.655605145973,212.655605145973,0,0,1,340.0000000000001,359.91999999999996" stroke="grey" stroke-width="5" fill="none" />
<circle cx="260.0" cy="359.9200000000001" r="5" fill="black" stroke="none" />
<circle cx="340.0" cy="359.9200000000001" r="5" fill="black" stroke="none" />
<path d="M340.0,287.9200000000001 L371.92558829486154,330.23736728483897" stroke="grey" stroke-width="5" />
<circle cx="371.92558829486154" cy="330.23736728483897" r="2.5" fill="grey" stroke="none" />
<path d="M371.92558829486154,330.23736728483897 A212.655605145973,212.655605145973,0,0,0,340.0000000000001,359.91999999999996" stroke="grey" stroke-width="5" fill="none" />
<circle cx="340.0" cy="287.9200000000001" r="5" fill="black" stroke="none" />
<circle cx="340.0" cy="359.9200000000001" r="5" fill="black" stroke="none" />
<path d="M340.0,359.9200000000001 L375.53362694020166,391.02969038614657" stroke="grey" stroke-width="5" />
<circle cx="375.53362694020166" cy="391.02969038614657" r="2.5" fill="grey" stroke="none" />
<path d="M375.53362694020166,391.0296903861465 A165.4279492709741,165.4279492709741,0,0,1,411.99999999999994,359.9200000000001" stroke="grey" stroke-width="5" fill="none" />
<circle cx="340.0" cy="359.9200000000001" r="5" fill="black" stroke="none" />
<circle cx="412.0" cy="359.9200000000001" r="5" fill="black" stroke="none" />
<path d="M340.0,287.9200000000001 L353.2432623664329,305.4739442667068" stroke="grey" stroke-width="5" />
<circle cx="353.2432623664329" cy="305.4739442667068" r="2.5" fill="grey" stroke="none" />
<path d="M353.2432623664329,305.4739442667068 A243.67586339233512,243.67586339233512,0,0,1,380.0,287.9200000000001" stroke="grey" stroke-width="5" fill="none" />
<circle cx="340.0" cy="287.9200000000001" r="5" fill="black" stroke="none" />
<circle cx="380.0" cy="287.9200000000001" r="5" fill="black" stroke="none" />
<path d="M411.99999999999994,359.9200000000001 A165.4279492709741,165.4279492709741,0,0,1,500.0,334.57205072902593" stroke="grey" stroke-width="5" fill="none" />
<path d="M500.0,334.57205072902593 L500.0,319.9200000000001" stroke="grey" stroke-width="5" />
<circle cx="500.0" cy="334.57205072902593" r="2.5" fill="grey" stroke="none" />
<circle cx="412.0" cy="359.9200000000001" r="5" fill="black" stroke="none" />
<circle cx="500.0" cy="319.9200000000001" r="5" fill="black" stroke="none" />
<path d="M380.0,287.9200000000001 L394.8930000179528,314.2408953650619" stroke="grey" stroke-width="5" />
<circle cx="394.8930000179528" cy="314.2408953650619" r="2.5" fill="grey" stroke="none" />
<path d="M394.8930000179528,314.2408953650619 A213.43365807669596,213.43365807669596,0,0,1,524.0,287.9200000000001" stroke="grey" stroke-width="5" fill="none" />
<circle cx="380.0" cy="287.9200000000001" r="5" fill="black" stroke="none" />
<circle cx="524.0" cy="287.9200000000001" r="5" fill="black" stroke="none" />
<path d="M500.0,319.9200000000001 A180.07999999999993,180.07999999999993,0,0,1,520.2494772330939,321.06211951689386" stroke="grey" stroke-width="5" fill="none" />
<path d="M520.2494772330939,321.06211951689386 L524.0,287.9200000000001" stroke="grey" stroke-width="5" />
<circle cx="520.2494772330939" cy="321.06211951689386" r="2.5" fill="grey" stroke="none" />
<circle cx="500.0" cy="319.9200000000001" r="5" fill="black" stroke="none" />
<circle cx="524.0" cy="287.9200000000001" r="5" fill="black" stroke="none" />
<path d="M260.0,439.9200000000001 L369.8172147496541,467.4109094256634" stroke="grey" stroke-width="5" />
<circle cx="369.8172147496541" cy="467.4109094256634" r="2.5" fill="grey" stroke="none" />
<path d="M369.8172147496541,467.41090942566336 A134.19987481365246,134.19987481365246,0,0,1,380.0,439.92" stroke="grey" stroke-width="5" fill="none" />
<circle cx="260.0" cy="439.9200000000001" r="5" fill="black" stroke="none" />
<circle cx="380.0" cy="439.9200000000001" r="5" fill="black" stroke="none" />
<path d="M380.0,439.92 A134.19987481365246,134.19987481365246,0,0,1,479.60416253705023,367.3590703659503" stroke="grey" stroke-width="5" fill="none" />
<path d="M479.6041625370503,367.3590703659503 L476.0,343.9200000000001" stroke="grey" stroke-width="5" />
<circle cx="479.6041625370503" cy="367.3590703659503" r="2.5" fill="grey" stroke="none" />
<circle cx="380.0" cy="439.9200000000001" r="5" fill="black" stroke="none" />
<circle cx="476.0" cy="343.9200000000001" r="5" fill="black" stroke="none" />
<path d="M475.99999999999994,343.9200000000001 A157.91442745993785,157.91442745993785,0,0,1,500.0,342.0855725400621" stroke="grey" stroke-width="5" fill="none" />
<path d="M500.0,342.0855725400621 L500.0,319.9200000000001" stroke="grey" stroke-width="5" />
<circle cx="500.0" cy="342.0855725400621" r="2.5" fill="grey" stroke="none" />
<circle cx="476.0" cy="343.9200000000001" r="5" fill="black" stroke="none" />
<circle cx="500.0" cy="319.9200000000001" r="5" fill="black" stroke="none" />
<path d="M500.0,319.9200000000001 L500.0,343.9200000000001" stroke="grey" stroke-width="5" />
<circle cx="500.0" cy="343.9200000000001" r="2.5" fill="grey" stroke="none" />
<path d="M500.0,343.9200000000001 A156.07999999999993,156.07999999999993,0,0,1,500.0,343.9200000000001" stroke="grey" stroke-width="5" fill="none" />
<circle cx="500.0" cy="319.9200000000001" r="5" fill="black" stroke="none" />
<circle cx="500.0" cy="343.9200000000001" r="5" fill="black" stroke="none" />
<path d="M500.0,343.9200000000001 L500.0,519.9200000000001" stroke="grey" stroke-width="5" />
<circle cx="500.0" cy="343.9200000000001" r="5" fill="black" stroke="none" />
<circle cx="500.0" cy="519.9200000000001" r="5" fill="black" stroke="none" />
<path d="M500.0,519.9200000000001 A19.920000000000073,19.920000000000073,0,0,0,519.5045290853802,504.0471897852164" stroke="grey" stroke-width="5" fill="none" />
<path d="M519.5045290853802,504.0471897852164 L596.0,519.9200000000001" stroke="grey" stroke-width="5" />
<circle cx="519.5045290853802" cy="504.0471897852164" r="2.5" fill="grey" stroke="none" />
<circle cx="500.0" cy="519.9200000000001" r="5" fill="black" stroke="none" />
<circle cx="596.0" cy="519.9200000000001" r="5" fill="black" stroke="none" />
<path d="M500.0,519.9200000000001 A19.920000000000073,19.920000000000073,0,0,1,500.0,519.9200000000001" stroke="grey" stroke-width="5" fill="none" />
<path d="M500.0,519.9200000000001 L500.0,567.9200000000001" stroke="grey" stroke-width="5" />
<circle cx="500.0" cy="519.9200000000001" r="2.5" fill="grey" stroke="none" />
<circle cx="500.0" cy="519.9200000000001" r="5" fill="black" stroke="none" />
<circle cx="500.0" cy="567.9200000000001" r="5" fill="black" stroke="none" />
<path d="M188.0,143.92000000000007 L252.36935975208738,217.38359493757468" stroke="grey" stroke-width="5" />
<circle cx="252.36935975208738" cy="217.38359493757468" r="2.5" fill="grey" stroke="none" />
<path d="M252.36935975208738,217.38359493757468 A375.75652542570697,375.75652542570697,0,0,1,380.00000000000006,143.92000000000007" stroke="grey" stroke-width="5" fill="none" />
<circle cx="188.0" cy="143.92000000000007" r="5" fill="black" stroke="none" />
<circle cx="380.0" cy="143.92000000000007" r="5" fill="black" stroke="none" />
<path d="M380.0,143.92000000000007 L422.18071642547784,269.08424587320144" stroke="grey" stroke-width="5" />
<circle cx="422.18071642547784" cy="269.08424587320144" r="2.5" fill="grey" stroke="none" />
<path d="M422.18071642547795,269.08424587320144 A243.67586339233512,243.67586339233512,0,0,0,380.0,287.9200000000001" stroke="grey" stroke-width="5" fill="none" />
<circle cx="380.0" cy="143.92000000000007" r="5" fill="black" stroke="none" />
<circle cx="380.0" cy="287.9200000000001" r="5" fill="black" stroke="none" />
<path d="M380.00000000000006,143.92000000000007 A375.75652542570697,375.75652542570697,0,0,1,400.3054772406322,137.71010429245774" stroke="grey" stroke-width="5" fill="none" />
<path d="M400.3054772406323,137.71010429245774 L380.0,63.92000000000007" stroke="grey" stroke-width="5" />
<circle cx="400.3054772406323" cy="137.71010429245774" r="2.5" fill="grey" stroke="none" />
<circle cx="380.0" cy="143.92000000000007" r="5" fill="black" stroke="none" />
<circle cx="380.0" cy="63.92000000000007" r="5" fill="black" stroke="none" />
<path d="M379.9999999999999,63.92000000000007 A452.28947190930717,452.28947190930717,0,0,1,392.8436599506734,60.58756823772836" stroke="grey" stroke-width="5" fill="none" />
<path d="M392.84365995067344,60.587568237728306 L380.0,7.920000000000073" stroke="grey" stroke-width="5" />
<circle cx="392.84365995067344" cy="60.587568237728306" r="2.5" fill="grey" stroke="none" />
<circle cx="380.0" cy="63.92000000000007" r="5" fill="black" stroke="none" />
<circle cx="380.0" cy="7.920000000000073" r="5" fill="black" stroke="none" />
<path d="M380.0,63.92000000000007 L409.5466521494333,171.29253391104072" stroke="grey" stroke-width="5" />
<circle cx="409.5466521494333" cy="171.29253391104072" r="2.5" fill="grey" stroke="none" />
<path d="M409.54665214943327,171.29253391104072 A340.9258077646806,340.9258077646806,0,0,1,476.0,159.92000000000007" stroke="grey" stroke-width="5" fill="none" />
<circle cx="380.0" cy="63.92000000000007" r="5" fill="black" stroke="none" />
<circle cx="476.0" cy="159.92000000000007" r="5" fill="black" stroke="none" />
<path d="M380.0,143.92000000000007 L391.12338931330027,176.9268038889998" stroke="grey" stroke-width="5" />
<circle cx="391.12338931330027" cy="176.9268038889998" r="2.5" fill="grey" stroke="none" />
<path d="M391.1233893133003,176.9268038889998 A340.9258077646806,340.9258077646806,0,0,1,476.0,159.92000000000007" stroke="grey" stroke-width="5" fill="none" />
<circle cx="380.0" cy="143.92000000000007" r="5" fill="black" stroke="none" />
<circle cx="476.0" cy="159.92000000000007" r="5" fill="black" stroke="none" />
<path d="M476.0,159.92000000000007 L481.0526168892921,231.51558132126922" stroke="grey" stroke-width="5" />
<circle cx="481.0526168892921" cy="231.51558132126922" r="2.5" fill="grey" stroke="none" />
<path d="M481.0526168892921,231.51558132126922 A269.1521621685398,269.1521621685398,0,0,1,524.0,231.92000000000013" stroke="grey" stroke-width="5" fill="none" />
<circle cx="476.0" cy="159.92000000000007" r="5" fill="black" stroke="none" />
<circle cx="524.0" cy="231.92000000000007" r="5" fill="black" stroke="none" />
<path d="M476.0,343.9200000000001 L476.2787982057541,345.733117664754" stroke="grey" stroke-width="5" />
<circle cx="476.2787982057541" cy="345.733117664754" r="2.5" fill="grey" stroke="none" />
<path d="M476.278798205754,345.733117664754 A156.07999999999993,156.07999999999993,0,0,1,500.0,343.9200000000001" stroke="grey" stroke-width="5" fill="none" />
<circle cx="476.0" cy="343.9200000000001" r="5" fill="black" stroke="none" />
<circle cx="500.0" cy="343.9200000000001" r="5" fill="black" stroke="none" />
<path d="M500.0,343.9200000000001 A156.07999999999993,156.07999999999993,0,0,1,523.7212017942459,345.733117664754" stroke="grey" stroke-width="5" fill="none" />
<path d="M523.7212017942459,345.733117664754 L524.0,343.9200000000001" stroke="grey" stroke-width="5" />
<circle cx="523.7212017942459" cy="345.733117664754" r="2.5" fill="grey" stroke="none" />
<circle cx="500.0" cy="343.9200000000001" r="5" fill="black" stroke="none" />
<circle cx="524.0" cy="343.9200000000001" r="5" fill="black" stroke="none" />
<path d="M524.0,343.9200000000001 A157.91442745993785,157.91442745993785,0,0,0,517.757022454615,343.0871115760523" stroke="grey" stroke-width="5" fill="none" />
<path d="M517.757022454615,343.0871115760523 L524.0,287.9200000000001" stroke="grey" stroke-width="5" />
<circle cx="517.757022454615" cy="343.0871115760523" r="2.5" fill="grey" stroke="none" />
<circle cx="524.0" cy="343.9200000000001" r="5" fill="black" stroke="none" />
<circle cx="524.0" cy="287.9200000000001" r="5" fill="black" stroke="none" />
<path d="M524.0,287.9200000000001 A213.43365807669596,213.43365807669596,0,0,0,522.3355053554807,287.73824743841567" stroke="grey" stroke-width="5" fill="none" />
<path d="M522.3355053554807,287.73824743841567 L524.0,271.9200000000001" stroke="grey" stroke-width="5" />
<circle cx="522.3355053554807" cy="287.73824743841567" r="2.5" fill="grey" stroke="none" />
<circle cx="524.0" cy="287.9200000000001" r="5" fill="black" stroke="none" />
<circle cx="524.0" cy="271.9200000000001" r="5" fill="black" stroke="none" />
<path d="M524.0,271.9200000000001 A229.33923868365824,229.33923868365824,0,0,0,522.4423336529221,271.76146674978196" stroke="grey" stroke-width="5" fill="none" />
<path d="M522.4423336529221,271.76146674978196 L524.0,255.92000000000007" stroke="grey" stroke-width="5" />
<circle cx="522.4423336529221" cy="271.76146674978196" r="2.5" fill="grey" stroke="none" />
<circle cx="524.0" cy="271.9200000000001" r="5" fill="black" stroke="none" />
<circle cx="524.0" cy="255.92000000000007" r="5" fill="black" stroke="none" />
<path d="M524.0,255.92000000000007 A245.2571026494441,245.2571026494441,0,0,0,521.8693040255082,255.71987403507453" stroke="grey" stroke-width="5" fill="none" />
<path d="M521.8693040255081,255.71987403507453 L524.0,231.92000000000007" stroke="grey" stroke-width="5" />
<circle cx="521.8693040255081" cy="255.71987403507453" r="2.5" fill="grey" stroke="none" />
<circle cx="524.0" cy="255.92000000000007" r="5" fill="black" stroke="none" />
<circle cx="524.0" cy="231.92000000000007" r="5" fill="black" stroke="none" />
<path d="M524.0,231.92000000000013 A269.1521621685398,269.1521621685398,0,0,1,569.8138437662352,240.05978837705072" stroke="grey" stroke-width="5" fill="none" />
<path d="M569.8138437662353,240.05978837705078 L572.0,231.92000000000007" stroke="grey" stroke-width="5" />
<circle cx="569.8138437662353" cy="240.05978837705078" r="2.5" fill="grey" stroke="none" />
<circle cx="524.0" cy="231.92000000000007" r="5" fill="black" stroke="none" />
<circle cx="572.0" cy="231.92000000000007" r="5" fill="black" stroke="none" />
<path d="M572.0,231.92000000000007 L562.038133380159,269.01135004787454" stroke="grey" stroke-width="5" />
<circle cx="562.038133380159" cy="269.01135004787454" r="2.5" fill="grey" stroke="none" />
<path d="M562.038133380159,269.01135004787454 A239.17459396850654,239.17459396850654,0,0,1,572.0,271.9200000000001" stroke="grey" stroke-width="5" fill="none" />
<circle cx="572.0" cy="231.92000000000007" r="5" fill="black" stroke="none" />
<circle cx="572.0" cy="271.9200000000001" r="5" fill="black" stroke="none" />
<path d="M572.0,271.9200000000001 L569.0392106922429,281.29912257379476" stroke="grey" stroke-width="5" />
<circle cx="569.0392106922429" cy="281.29912257379476" r="2.5" fill="grey" stroke="none" />
<path d="M569.0392106922429,281.29912257379476 A229.33923868365824,229.33923868365824,0,0,0,524.0,271.9200000000001" stroke="grey" stroke-width="5" fill="none" />
<circle cx="572.0" cy="271.9200000000001" r="5" fill="black" stroke="none" />
<circle cx="524.0" cy="271.9200000000001" r="5" fill="black" stroke="none" />
<path d="M524.0,255.92000000000007 A245.2571026494441,245.2571026494441,0,0,1,596.1382521364509,274.3709174859141" stroke="grey" stroke-width="5" fill="none" />
<path d="M596.1382521364509,274.3709174859141 L604.0,255.92000000000007" stroke="grey" stroke-width="5" />
<circle cx="596.1382521364509" cy="274.3709174859141" r="2.5" fill="grey" stroke="none" />
<circle cx="524.0" cy="255.92000000000007" r="5" fill="black" stroke="none" />
<circle cx="604.0" cy="255.92000000000007" r="5" fill="black" stroke="none" />
<circle cx="500" cy="500" r="5" fill="red" stroke="none" />
</svg>