<?xml version="1.0" encoding="UTF-8"?>
<svg xmlns="http://www.w3.org/2000/svg" xmlns:xlink="http://www.w3.org/1999/xlink"
     width="1000" height="1000" viewBox="0 0 1000 1000">
<defs>
</defs>
<rect x="0" y="0" width="1000" height="1000" fill="white" />
<path d="M276.0,471.6400000000001 A225.78815203637234,225.78815203637234,0,0,0,283.8513801081345,565.2691636137757" stroke="grey" stroke-width="5" fill="none" />
<path d="M283.8513801081345,565.2691636137758 L276.0,567.64" stroke="grey" stroke-width="5" />
<circle cx="283.8513801081345" cy="565.2691636137758" r="2.5" fill="grey" stroke="none" />
<circle cx="276.0" cy="471.64" r="5" fill="black" stroke="none" />
<circle cx="276.0" cy="567.64" r="5" fill="black" stroke="none" />
<path d="M276.0,567.64 L306.42773037403265,558.4519121316984" stroke="grey" stroke-width="5" />
<circle cx="306.42773037403265" cy="558.4519121316984" r="2.5" fill="grey" stroke="none" />
<path d="M306.4277303740326,558.4519121316982 A202.20496927622725,202.20496927622725,0,0,0,340.00000000000006,623.6400000000001" stroke="grey" stroke-width="5" fill="none" />
<circle cx="276.0" cy="567.64" r="5" fill="black" stroke="none" />
<circle cx="340.0" cy="623.64" r="5" fill="black" stroke="none" />
<path d="M252.0,623.64 L319.03742437361115,590.2186002034142" stroke="grey" stroke-width="5" />
<circle cx="319.03742437361115" cy="590.2186002034142" r="2.5" fill="grey" stroke="none" />
<path d="M319.0374243736111,590.2186002034141 A202.20496927622725,202.20496927622725,0,0,0,340.00000000000006,623.6400000000001" stroke="grey" stroke-width="5" fill="none" />
<circle cx="252.0" cy="623.64" r="5" fill="black" stroke="none" />
<circle cx="340.0" cy="623.64" r="5" fill="black" stroke="none" />
<path d="M340.0,623.64 L358.5234051980159,609.3260386332332" stroke="grey" stroke-width="5" />
<circle cx="358.5234051980159" cy="609.3260386332332" r="2.5" fill="grey" stroke="none" />
<path d="M358.52340519801595,609.3260386332333 A178.7954406577528,178.7954406577528,0,0,0,412.0,655.64" stroke="grey" stroke-width="5" fill="none" />
<circle cx="340.0" cy="623.64" r="5" fill="black" stroke="none" />
<circle cx="412.0" cy="655.64" r="5" fill="black" stroke="none" />
<path d="M412.0,655.64 A178.7954406577528,178.7954406577528,0,0,0,430.83711412991084,664.8766351491959" stroke="grey" stroke-width="5" fill="none" />
<path d="M430.8371141299109,664.8766351491959 L428.0,671.64" stroke="grey" stroke-width="5" />
<circle cx="430.8371141299109" cy="664.8766351491959" r="2.5" fill="grey" stroke="none" />
<circle cx="412.0" cy="655.64" r="5" fill="black" stroke="none" />
<circle cx="428.0" cy="671.64" r="5" fill="black" stroke="none" />
<path d="M428.0,671.64 A186.1297654863402,186.1297654863402,0,0,0,464.12497858800214,682.639734008481" stroke="grey" stroke-width="5" fill="none" />
<path d="M464.12497858800214,682.639734008481 L460.0,703.64" stroke="grey" stroke-width="5" />
<circle cx="464.12497858800214" cy="682.639734008481" r="2.5" fill="grey" stroke="none" />
<circle cx="428.0" cy="671.64" r="5" fill="black" stroke="none" />
<circle cx="460.0" cy="703.64" r="5" fill="black" stroke="none" />
<path d="M428.0,671.64 A186.1297654863402,186.1297654863402,0,0,1,425.70370935354515,670.6585796149069" stroke="grey" stroke-width="5" fill="none" />
<path d="M425.70370935354515,670.6585796149069 L380.0,775.64" stroke="grey" stroke-width="5" />
<circle cx="425.70370935354515" cy="670.6585796149069" r="2.5" fill="grey" stroke="none" />
<circle cx="428.0" cy="671.64" r="5" fill="black" stroke="none" />
<circle cx="380.0" cy="775.64" r="5" fill="black" stroke="none" />
<path d="M380.0,775.64 A300.628357943824,300.628357943824,0,0,0,403.88596437287686,784.8499635869173" stroke="grey" stroke-width="5" fill="none" />
<path d="M403.88596437287686,784.8499635869173 L380.0,855.64" stroke="grey" stroke-width="5" />
<circle cx="403.88596437287686" cy="784.8499635869173" r="2.5" fill="grey" stroke="none" />
<circle cx="380.0" cy="775.64" r="5" fill="black" stroke="none" />
<circle cx="380.0" cy="855.64" r="5" fill="black" stroke="none" />
<path d="M276.0,871.64 L306.2435681173876,821.4626801109555" stroke="grey" stroke-width="5" />
<circle cx="306.2435681173876" cy="821.4626801109555" r="2.5" fill="grey" stroke="none" />
<path d="M306.2435681173876,821.4626801109555 A375.3395923693635,375.3395923693635,0,0,0,380.0,855.6399999999999" stroke="grey" stroke-width="5" fill="none" />
<circle cx="276.0" cy="871.64" r="5" fill="black" stroke="none" />
<circle cx="380.0" cy="855.64" r="5" fill="black" stroke="none" />
<path d="M380.0,855.6399999999999 A375.3395923693635,375.3395923693635,0,0,0,408.18203529694256,863.935806094685" stroke="grey" stroke-width="5" fill="none" />
<path d="M408.1820352969427,863.935806094685 L380.0,975.64" stroke="grey" stroke-width="5" />
<circle cx="408.1820352969427" cy="863.935806094685" r="2.5" fill="grey" stroke="none" />
<circle cx="380.0" cy="855.64" r="5" fill="black" stroke="none" />
<circle cx="380.0" cy="975.64" r="5" fill="black" stroke="none" />
<path d="M380.0,775.64 L388.8219792334989,755.3759137006532" stroke="grey" stroke-width="5" />
<circle cx="388.8219792334989" cy="755.3759137006532" r="2.5" fill="grey" stroke="none" />
<path d="M388.8219792334989,755.3759137006532 A278.5272151873134,278.5272151873134,0,0,0,460.00000000000006,775.64" stroke="grey" stroke-width="5" fill="none" />
<circle cx="380.0" cy="775.64" r="5" fill="black" stroke="none" />
<circle cx="460.0" cy="775.64" r="5" fill="black" stroke="none" />
<path d="M460.0,703.64 A207.5313219733349,207.5313219733349,0,0,0,470.1959003419085,705.3800507439088" stroke="grey" stroke-width="5" fill="none" />
<path d="M470.1959003419085,705.3800507439088 L460.0,775.64" stroke="grey" stroke-width="5" />
<circle cx="470.1959003419085" cy="705.3800507439088" r="2.5" fill="grey" stroke="none" />
<circle cx="460.0" cy="703.64" r="5" fill="black" stroke="none" />
<circle cx="460.0" cy="775.64" r="5" fill="black" stroke="none" />
<path d="M460.0,775.64 L460.1487735071223,774.6148017624203" stroke="grey" stroke-width="5" />
<circle cx="460.1487735071223" cy="774.6148017624203" r="2.5" fill="grey" stroke="none" />
<path d="M460.1487735071223,774.6148017624203 A277.49127842150284,277.49127842150284,0,0,0,532.0,775.6400000000001" stroke="grey" stroke-width="5" fill="none" />
<circle cx="460.0" cy="775.64" r="5" fill="black" stroke="none" />
<circle cx="532.0" cy="775.64" r="5" fill="black" stroke="none" />
<path d="M460.0,703.64 L460.75002114116245,699.8216423703419" stroke="grey" stroke-width="5" />
<circle cx="460.75002114116245" cy="699.8216423703419" r="2.5" fill="grey" stroke="none" />
<path d="M460.75002114116245,699.8216423703419 A203.64000000000001,203.64000000000001,0,0,0,500.0,703.64" stroke="grey" stroke-width="5" fill="none" />
<circle cx="460.0" cy="703.64" r="5" fill="black" stroke="none" />
<circle cx="500.0" cy="703.64" r="5" fill="black" stroke="none" />
<path d="M532.0,775.64 L530.4944380341014,762.6714656162416" stroke="grey" stroke-width="5" />
<circle cx="530.4944380341014" cy="762.6714656162416" r="2.5" fill="grey" stroke="none" />
<path d="M530.4944380341014,762.6714656162416 A264.43564358837864,264.43564358837864,0,0,0,620.0,735.6400000000001" stroke="grey" stroke-width="5" fill="none" />
<circle cx="532.0" cy="775.64" r="5" fill="black" stroke="none" />
<circle cx="620.0" cy="735.64" r="5" fill="black" stroke="none" />
<path d="M500.0,703.64 A203.64000000000001,203.64000000000001,0,0,0,617.5742079985569,666.2695258112925" stroke="grey" stroke-width="5" fill="none" />
<path d="M617.5742079985569,666.2695258112925 L644.0,703.64" stroke="grey" stroke-width="5" />
<circle cx="617.5742079985569" cy="666.2695258112925" r="2.5" fill="grey" stroke="none" />
<circle cx="500.0" cy="703.64" r="5" fill="black" stroke="none" />
<circle cx="644.0" cy="703.64" r="5" fill="black" stroke="none" />
<path d="M620.0,735.64 L613.1813241888681,722.2503935988739" stroke="grey" stroke-width="5" />
<circle cx="613.1813241888681" cy="722.2503935988739" r="2.5" fill="grey" stroke="none" />
<path d="M613.1813241888681,722.2503935988739 A249.40980253390202,249.40980253390202,0,0,0,644.0,703.64" stroke="grey" stroke-width="5" fill="none" />
<circle cx="620.0" cy="735.64" r="5" fill="black" stroke="none" />
<circle cx="644.0" cy="703.64" r="5" fill="black" stroke="none" />
<path d="M380.0,855.64 L386.29816606716327,836.974335165617" stroke="grey" stroke-width="5" />
<circle cx="386.29816606716327" cy="836.974335165617" r="2.5" fill="grey" stroke="none" />
<path d="M386.29816606716327,836.974335165617 A355.64,355.64,0,0,0,500.0,855.64" stroke="grey" stroke-width="5" fill="none" />
<circle cx="380.0" cy="855.64" r="5" fill="black" stroke="none" />
<circle cx="500.0" cy="855.64" r="5" fill="black" stroke="none" />
<path d="M500.0,855.64 L500.0,776.8193085751064" stroke="grey" stroke-width="5" />
<circle cx="500.0" cy="776.8193085751064" r="2.5" fill="grey" stroke="none" />
<path d="M500.0,776.8193085751064 A276.81930857510645,276.81930857510645,0,0,0,596.0000000000001,759.64" stroke="grey" stroke-width="5" fill="none" />
<circle cx="500.0" cy="855.64" r="5" fill="black" stroke="none" />
<circle cx="596.0" cy="759.64" r="5" fill="black" stroke="none" />
<path d="M596.0,759.64 L591.7053868646474,748.024860891011" stroke="grey" stroke-width="5" />
<circle cx="591.7053868646474" cy="748.024860891011" r="2.5" fill="grey" stroke="none" />
<path d="M591.7053868646475,748.024860891011 A264.43564358837864,264.43564358837864,0,0,0,620.0,735.6400000000001" stroke="grey" stroke-width="5" fill="none" />
<circle cx="596.0" cy="759.64" r="5" fill="black" stroke="none" />
<circle cx="620.0" cy="735.64" r="5" fill="black" stroke="none" />
<path d="M620.0,735.6400000000001 A264.43564358837864,264.43564358837864,0,0,1,610.9405380100937,740.0383440745061" stroke="grey" stroke-width="5" fill="none" />
<path d="M610.9405380100937,740.0383440745061 L620.0,759.64" stroke="grey" stroke-width="5" />
<circle cx="610.9405380100937" cy="740.0383440745061" r="2.5" fill="grey" stroke="none" />
<circle cx="620.0" cy="735.64" r="5" fill="black" stroke="none" />
<circle cx="620.0" cy="759.64" r="5" fill="black" stroke="none" />
<path d="M620.0,759.64 A286.0295956714969,286.0295956714969,0,0,1,575.9597048525767,775.759048516471" stroke="grey" stroke-width="5" fill="none" />
<path d="M575.9597048525767,775.759048516471 L620.0,935.64" stroke="grey" stroke-width="5" />
<circle cx="575.9597048525767" cy="775.759048516471" r="2.5" fill="grey" stroke="none" />
<circle cx="620.0" cy="759.64" r="5" fill="black" stroke="none" />
<circle cx="620.0" cy="935.64" r="5" fill="black" stroke="none" />
<path d="M620.0,935.64 A451.86525602219075,451.86525602219075,0,0,0,700.7261107277391,904.8348281362603" stroke="grey" stroke-width="5" fill="none" />
<path d="M700.7261107277391,904.8348281362603 L716.0,935.64" stroke="grey" stroke-width="5" />
<circle cx="700.7261107277391" cy="904.8348281362603" r="2.5" fill="grey" stroke="none" />
<circle cx="620.0" cy="935.64" r="5" fill="black" stroke="none" />
<circle cx="716.0" cy="935.64" r="5" fill="black" stroke="none" />
<path d="M620.0,935.64 A451.86525602219075,451.86525602219075,0,0,1,608.816598504362,938.5671641720803" stroke="grey" stroke-width="5" fill="none" />
<path d="M608.816598504362,938.5671641720803 L620.0,983.64" stroke="grey" stroke-width="5" />
<circle cx="608.816598504362" cy="938.5671641720803" r="2.5" fill="grey" stroke="none" />
<circle cx="620.0" cy="935.64" r="5" fill="black" stroke="none" />
<circle cx="620.0" cy="983.64" r="5" fill="black" stroke="none" />
<path d="M308.0,559.64 L443.04449395439514,517.691804065416" stroke="grey" stroke-width="5" />
<circle cx="443.04449395439514" cy="517.691804065416" r="2.5" fill="grey" stroke="none" />
<path d="M443.04449395439514,517.691804065416 A59.640000000000015,59.640000000000015,0,0,0,500.0,559.64" stroke="grey" stroke-width="5" fill="none" />
<circle cx="308.0" cy="559.64" r="5" fill="black" stroke="none" />
<circle cx="500.0" cy="559.64" r="5" fill="black" stroke="none" />
<path d="M500.0,559.64 A59.640000000000015,59.640000000000015,0,0,1,500.0,559.64" stroke="grey" stroke-width="5" fill="none" />
<path d="M500.0,559.64 L500.0,703.64" stroke="grey" stroke-width="5" />
<circle cx="500.0" cy="559.64" r="2.5" fill="grey" stroke="none" />
<circle cx="500.0" cy="559.64" r="5" fill="black" stroke="none" />
<circle cx="500.0" cy="703.64" r="5" fill="black" stroke="none" />
<path d="M500.0,559.64 L500.0,479.64" stroke="grey" stroke-width="5" />
<circle cx="500.0" cy="559.64" r="5" fill="black" stroke="none" />
<circle cx="500.0" cy="479.64" r="5" fill="black" stroke="none" />
<path d="M500.0,479.64 A20.359999999999985,20.359999999999985,0,0,1,500.0,479.64" stroke="grey" stroke-width="5" fill="none" />
<path d="M500.0,479.64 L500.0,423.64" stroke="grey" stroke-width="5" />
<circle cx="500.0" cy="479.64" r="2.5" fill="grey" stroke="none" />
<circle cx="500.0" cy="479.64" r="5" fill="black" stroke="none" />
<circle cx="500.0" cy="423.64" r="5" fill="black" stroke="none" />
<path d="M500.0,479.64 A20.359999999999985,20.359999999999985,0,0,1,515.9923159661121,512.6006122882992" stroke="grey" stroke-width="5" fill="none" />
<path d="M515.9923159661121,512.6006122882992 L596.0,575.64" stroke="grey" stroke-width="5" />
<circle cx="515.9923159661121" cy="512.6006122882992" r="2.5" fill="grey" stroke="none" />
<circle cx="500.0" cy="479.64" r="5" fill="black" stroke="none" />
<circle cx="596.0" cy="575.64" r="5" fill="black" stroke="none" />
<path d="M500.0,559.64 A59.640000000000015,59.640000000000015,0,0,0,546.8458607180219,536.9106344240747" stroke="grey" stroke-width="5" fill="none" />
<path d="M546.8458607180219,536.9106344240747 L596.0,575.64" stroke="grey" stroke-width="5" />
<circle cx="546.8458607180219" cy="536.9106344240747" r="2.5" fill="grey" stroke="none" />
<circle cx="500.0" cy="559.64" r="5" fill="black" stroke="none" />
<circle cx="596.0" cy="575.64" r="5" fill="black" stroke="none" />
<path d="M596.0,575.64 A122.21869578751036,122.21869578751036,0,0,1,585.3363809923881,587.4934950674734" stroke="grey" stroke-width="5" fill="none" />
<path d="M585.3363809923881,587.4934950674734 L644.0,647.64" stroke="grey" stroke-width="5" />
<circle cx="585.3363809923881" cy="587.4934950674734" r="2.5" fill="grey" stroke="none" />
<circle cx="596.0" cy="575.64" r="5" fill="black" stroke="none" />
<circle cx="644.0" cy="647.64" r="5" fill="black" stroke="none" />
<path d="M596.0000000000001,759.64 A276.81930857510645,276.81930857510645,0,0,0,616.1359437334722,751.2794702579894" stroke="grey" stroke-width="5" fill="none" />
<path d="M616.1359437334722,751.2794702579894 L620.0,759.64" stroke="grey" stroke-width="5" />
<circle cx="616.1359437334722" cy="751.2794702579894" r="2.5" fill="grey" stroke="none" />
<circle cx="596.0" cy="759.64" r="5" fill="black" stroke="none" />
<circle cx="620.0" cy="759.64" r="5" fill="black" stroke="none" />
<path d="M620.0,759.64 A286.0295956714969,286.0295956714969,0,0,0,638.7282611567587,750.1347619912557" stroke="grey" stroke-width="5" fill="none" />
<path d="M638.7282611567587,750.1347619912557 L644.0,759.64" stroke="grey" stroke-width="5" />
<circle cx="638.7282611567587" cy="750.1347619912557" r="2.5" fill="grey" stroke="none" />
<circle cx="620.0" cy="759.64" r="5" fill="black" stroke="none" />
<circle cx="644.0" cy="759.64" r="5" fill="black" stroke="none" />
<path d="M644.0,759.64 L620.9671612468973,718.1105121260027" stroke="grey" stroke-width="5" />
<circle cx="620.9671612468973" cy="718.1105121260027" r="2.5" fill="grey" stroke="none" />
<path d="M620.9671612468973,718.1105121260027 A249.40980253390202,249.40980253390202,0,0,0,644.0,703.64" stroke="grey" stroke-width="5" fill="none" />
<circle cx="644.0" cy="759.64" r="5" fill="black" stroke="none" />
<circle cx="644.0" cy="703.64" r="5" fill="black" stroke="none" />
<path d="M644.0,703.64 L636.5616383339909,693.1209168773188" stroke="grey" stroke-width="5" />
<circle cx="636.5616383339909" cy="693.1209168773188" r="2.5" fill="grey" stroke="none" />
<path d="M636.5616383339909,693.1209168773188 A236.526467017964,236.526467017964,0,0,0,644.0,687.6400000000001" stroke="grey" stroke-width="5" fill="none" />
<circle cx="644.0" cy="703.64" r="5" fill="black" stroke="none" />
<circle cx="644.0" cy="687.64" r="5" fill="black" stroke="none" />
<path d="M644.0,687.64 L636.4013144268436,677.7384905489787" stroke="grey" stroke-width="5" />
<circle cx="636.4013144268436" cy="677.7384905489787" r="2.5" fill="grey" stroke="none" />
<path d="M636.4013144268436,677.7384905489787 A224.04528470824823,224.04528470824823,0,0,0,644.0,671.64" stroke="grey" stroke-width="5" fill="none" />
<circle cx="644.0" cy="687.64" r="5" fill="black" stroke="none" />
<circle cx="644.0" cy="671.64" r="5" fill="black" stroke="none" />
<path d="M644.0,671.64 L632.5539274585217,657.9969174234768" stroke="grey" stroke-width="5" />
<circle cx="632.5539274585217" cy="657.9969174234768" r="2.5" fill="grey" stroke="none" />
<path d="M632.5539274585217,657.9969174234768 A206.2366834488957,206.2366834488957,0,0,0,644.0,647.64" stroke="grey" stroke-width="5" fill="none" />
<circle cx="644.0" cy="671.64" r="5" fill="black" stroke="none" />
<circle cx="644.0" cy="647.64" r="5" fill="black" stroke="none" />
<path d="M644.0,647.64 A206.2366834488957,206.2366834488957,0,0,0,663.4896654662533,625.7167406741544" stroke="grey" stroke-width="5" fill="none" />
<path d="M663.4896654662533,625.7167406741544 L692.0,647.64" stroke="grey" stroke-width="5" />
<circle cx="663.4896654662533" cy="625.7167406741544" r="2.5" fill="grey" stroke="none" />
<circle cx="644.0" cy="647.64" r="5" fill="black" stroke="none" />
<circle cx="692.0" cy="647.64" r="5" fill="black" stroke="none" />
<path d="M692.0,647.64 A242.2015061885454,242.2015061885454,0,0,1,673.2177777336813,669.2842906976456" stroke="grey" stroke-width="5" fill="none" />
<path d="M673.2177777336813,669.2842906976456 L692.0,687.64" stroke="grey" stroke-width="5" />
<circle cx="673.2177777336813" cy="669.2842906976456" r="2.5" fill="grey" stroke="none" />
<circle cx="692.0" cy="647.64" r="5" fill="black" stroke="none" />
<circle cx="692.0" cy="687.64" r="5" fill="black" stroke="none" />
<path d="M692.0,687.64 L669.1591007702339,665.3177795235765" stroke="grey" stroke-width="5" />
<circle cx="669.1591007702339" cy="665.3177795235765" r="2.5" fill="grey" stroke="none" />
<path d="M669.1591007702339,665.3177795235765 A236.526467017964,236.526467017964,0,0,1,644.0,687.6400000000001" stroke="grey" stroke-width="5" fill="none" />
<circle cx="692.0" cy="687.64" r="5" fill="black" stroke="none" />
<circle cx="644.0" cy="687.64" r="5" fill="black" stroke="none" />
<path d="M644.0,671.64 A224.04528470824823,224.04528470824823,0,0,0,677.8395365101197,636.2695448508794" stroke="grey" stroke-width="5" fill="none" />
<path d="M677.8395365101197,636.2695448508792 L724.0,671.64" stroke="grey" stroke-width="5" />
<circle cx="677.8395365101197" cy="636.2695448508792" r="2.5" fill="grey" stroke="none" />
<circle cx="644.0" cy="671.64" r="5" fill="black" stroke="none" />
<circle cx="724.0" cy="671.64" r="5" fill="black" stroke="none" />
<circle cx="500" cy="500" r="5" fill="red" stroke="none" />
</svg>