<?xml version="1.0" encoding="UTF-8"?>
<svg xmlns="http://www.w3.org/2000/svg" xmlns:xlink="http://www.w3.org/1999/xlink"
     width="1000" height="1000" viewBox="0 0 1000 1000">
<defs>
</defs>
<rect x="0" y="0" width="1000" height="1000" fill="white" />
<path d="M276.0,481.5999999999999 A224.75444378254238,224.75444378254238,0,0,0,287.62822204097444,573.5716516500911" stroke="grey" stroke-width="5" fill="none" />
<path d="M287.62822204097444,573.5716516500911 L-224.0,77.6" stroke="grey" stroke-width="5" />
<circle cx="287.62822204097444" cy="573.5716516500911" r="2.5" fill="grey" stroke="none" />
<circle cx="276.0" cy="481.6" r="5" fill="black" stroke="none" />
<circle cx="276.0" cy="577.6" r="5" fill="black" stroke="none" />
<path d="M276.0,577.6 L303.0399215852294,568.2325985936884" stroke="grey" stroke-width="5" />
<circle cx="303.0399215852294" cy="568.2325985936884" r="2.5" fill="grey" stroke="none" />
<path d="M303.0399215852294,568.2325985936884 A208.44414119854747,208.44414119854747,0,0,0,340.00000000000006,633.6" stroke="grey" stroke-width="5" fill="none" />
<circle cx="276.0" cy="577.6" r="5" fill="black" stroke="none" />
<circle cx="340.0" cy="633.6" r="5" fill="black" stroke="none" />
<path d="M252.0,633.6 L316.48996926323184,598.8586294614204" stroke="grey" stroke-width="5" />
<circle cx="316.48996926323184" cy="598.8586294614204" r="2.5" fill="grey" stroke="none" />
<path d="M316.4899692632318,598.8586294614203 A208.44414119854747,208.44414119854747,0,0,0,340.00000000000006,633.6" stroke="grey" stroke-width="5" fill="none" />
<circle cx="252.0" cy="633.6" r="5" fill="black" stroke="none" />
<circle cx="340.0" cy="633.6" r="5" fill="black" stroke="none" />
<path d="M340.0,633.6 L356.0538102932644,620.1950684051242" stroke="grey" stroke-width="5" />
<circle cx="356.0538102932644" cy="620.1950684051242" r="2.5" fill="grey" stroke="none" />
<path d="M356.0538102932644,620.1950684051243 A187.5296243263981,187.5296243263981,0,0,0,412.0,665.6" stroke="grey" stroke-width="5" fill="none" />
<circle cx="340.0" cy="633.6" r="5" fill="black" stroke="none" />
<circle cx="412.0" cy="665.6" r="5" fill="black" stroke="none" />
<path d="M412.0,665.6 A187.5296243263981,187.5296243263981,0,0,0,430.88319885313854,674.3279317815284" stroke="grey" stroke-width="5" fill="none" />
<path d="M430.88319885313854,674.3279317815284 L-72.0,181.6" stroke="grey" stroke-width="5" />
<circle cx="430.88319885313854" cy="674.3279317815284" r="2.5" fill="grey" stroke="none" />
<circle cx="412.0" cy="665.6" r="5" fill="black" stroke="none" />
<circle cx="428.0" cy="681.6" r="5" fill="black" stroke="none" />
<path d="M428.0,681.6 A195.35239952455152,195.35239952455152,0,0,0,464.04221411621313,692.0145766194216" stroke="grey" stroke-width="5" fill="none" />
<path d="M464.04221411621313,692.0145766194216 L-40.0,213.6" stroke="grey" stroke-width="5" />
<circle cx="464.04221411621313" cy="692.0145766194216" r="2.5" fill="grey" stroke="none" />
<circle cx="428.0" cy="681.6" r="5" fill="black" stroke="none" />
<circle cx="460.0" cy="713.6" r="5" fill="black" stroke="none" />
<path d="M428.0,681.6 A195.35239952455152,195.35239952455152,0,0,1,424.3274755771696,680.1006081263363" stroke="grey" stroke-width="5" fill="none" />
<path d="M424.32747557716965,680.1006081263363 L-120.0,285.6" stroke="grey" stroke-width="5" />
<circle cx="424.32747557716965" cy="680.1006081263363" r="2.5" fill="grey" stroke="none" />
<circle cx="428.0" cy="681.6" r="5" fill="black" stroke="none" />
<circle cx="380.0" cy="785.6" r="5" fill="black" stroke="none" />
<path d="M379.99999999999994,785.6 A309.7859906451549,309.7859906451549,0,0,0,403.39063675924706,794.3365266734937" stroke="grey" stroke-width="5" fill="none" />
<path d="M403.3906367592471,794.3365266734937 L-120.0,365.6" stroke="grey" stroke-width="5" />
<circle cx="403.3906367592471" cy="794.3365266734937" r="2.5" fill="grey" stroke="none" />
<circle cx="380.0" cy="785.6" r="5" fill="black" stroke="none" />
<circle cx="380.0" cy="865.6" r="5" fill="black" stroke="none" />
<path d="M276.0,881.6 L305.207824443087,831.8423847880267" stroke="grey" stroke-width="5" />
<circle cx="305.207824443087" cy="831.8423847880267" r="2.5" fill="grey" stroke="none" />
<path d="M305.207824443087,831.8423847880267 A384.7900206606195,384.7900206606195,0,0,0,379.9999999999999,865.5999999999999" stroke="grey" stroke-width="5" fill="none" />
<circle cx="276.0" cy="881.6" r="5" fill="black" stroke="none" />
<circle cx="380.0" cy="865.6" r="5" fill="black" stroke="none" />
<path d="M379.9999999999999,865.5999999999999 A384.7900206606195,384.7900206606195,0,0,0,407.688670460892,873.5531802015909" stroke="grey" stroke-width="5" fill="none" />
<path d="M407.6886704608919,873.5531802015907 L-120.0,485.6" stroke="grey" stroke-width="5" />
<circle cx="407.6886704608919" cy="873.5531802015907" r="2.5" fill="grey" stroke="none" />
<circle cx="380.0" cy="865.6" r="5" fill="black" stroke="none" />
<circle cx="380.0" cy="985.6" r="5" fill="black" stroke="none" />
<path d="M380.0,785.6 L388.28900243050145,765.8721742154066" stroke="grey" stroke-width="5" />
<circle cx="388.28900243050145" cy="765.8721742154066" r="2.5" fill="grey" stroke="none" />
<path d="M388.2890024305014,765.8721742154066 A288.38751706688004,288.38751706688004,0,0,0,460.0,785.6" stroke="grey" stroke-width="5" fill="none" />
<circle cx="380.0" cy="785.6" r="5" fill="black" stroke="none" />
<circle cx="460.0" cy="785.6" r="5" fill="black" stroke="none" />
<path d="M459.99999999999994,713.6 A217.31304608789597,217.31304608789597,0,0,0,469.85818966117057,715.2125258192423" stroke="grey" stroke-width="5" fill="none" />
<path d="M469.85818966117057,715.2125258192423 L-40.0,285.6" stroke="grey" stroke-width="5" />
<circle cx="469.85818966117057" cy="715.2125258192423" r="2.5" fill="grey" stroke="none" />
<circle cx="460.0" cy="713.6" r="5" fill="black" stroke="none" />
<circle cx="460.0" cy="785.6" r="5" fill="black" stroke="none" />
<path d="M460.0,785.6 L460.13875654654663,784.6092782576573" stroke="grey" stroke-width="5" />
<circle cx="460.13875654654663" cy="784.6092782576573" r="2.5" fill="grey" stroke="none" />
<path d="M460.13875654654663,784.6092782576573 A287.3871256684962,287.3871256684962,0,0,0,532.0,785.6" stroke="grey" stroke-width="5" fill="none" />
<circle cx="460.0" cy="785.6" r="5" fill="black" stroke="none" />
<circle cx="532.0" cy="785.6" r="5" fill="black" stroke="none" />
<path d="M460.0,713.6 L460.6834465127131,709.950395622112" stroke="grey" stroke-width="5" />
<circle cx="460.6834465127131" cy="709.950395622112" r="2.5" fill="grey" stroke="none" />
<path d="M460.68344651271303,709.950395622112 A213.6,213.6,0,0,0,500.0,713.6" stroke="grey" stroke-width="5" fill="none" />
<circle cx="460.0" cy="713.6" r="5" fill="black" stroke="none" />
<circle cx="500.0" cy="713.6" r="5" fill="black" stroke="none" />
<path d="M532.0,785.6 L530.4368175671783,771.6485967870666" stroke="grey" stroke-width="5" />
<circle cx="530.4368175671783" cy="771.6485967870666" r="2.5" fill="grey" stroke="none" />
<path d="M530.4368175671783,771.6485967870666 A273.3484223477428,273.3484223477428,0,0,0,620.0,745.5999999999999" stroke="grey" stroke-width="5" fill="none" />
<circle cx="532.0" cy="785.6" r="5" fill="black" stroke="none" />
<circle cx="620.0" cy="745.6" r="5" fill="black" stroke="none" />
<path d="M500.0,713.6 A213.6,213.6,0,0,0,619.4008477824848,677.1112575440192" stroke="grey" stroke-width="5" fill="none" />
<path d="M619.4008477824848,677.1112575440192 L144.0,213.6" stroke="grey" stroke-width="5" />
<circle cx="619.4008477824848" cy="677.1112575440192" r="2.5" fill="grey" stroke="none" />
<circle cx="500.0" cy="713.6" r="5" fill="black" stroke="none" />
<circle cx="644.0" cy="713.6" r="5" fill="black" stroke="none" />
<path d="M620.0,745.6 L613.0891668118114,731.4558280748408" stroke="grey" stroke-width="5" />
<circle cx="613.0891668118114" cy="731.4558280748408" r="2.5" fill="grey" stroke="none" />
<path d="M613.0891668118114,731.4558280748408 A257.6062111052449,257.6062111052449,0,0,0,644.0,713.6" stroke="grey" stroke-width="5" fill="none" />
<circle cx="620.0" cy="745.6" r="5" fill="black" stroke="none" />
<circle cx="644.0" cy="713.6" r="5" fill="black" stroke="none" />
<path d="M380.0,865.6 L385.9845691302514,847.3670127165008" stroke="grey" stroke-width="5" />
<circle cx="385.9845691302514" cy="847.3670127165008" r="2.5" fill="grey" stroke="none" />
<path d="M385.9845691302513,847.3670127165008 A365.6,365.6,0,0,0,500.0,865.6" stroke="grey" stroke-width="5" fill="none" />
<circle cx="380.0" cy="865.6" r="5" fill="black" stroke="none" />
<circle cx="500.0" cy="865.6" r="5" fill="black" stroke="none" />
<path d="M500.0,865.6 L500.0,786.1820399675703" stroke="grey" stroke-width="5" />
<circle cx="500.0" cy="786.1820399675703" r="2.5" fill="grey" stroke="none" />
<path d="M500.0,786.1820399675703 A286.18203996757035,286.18203996757035,0,0,0,596.0,769.6000000000001" stroke="grey" stroke-width="5" fill="none" />
<circle cx="500.0" cy="865.6" r="5" fill="black" stroke="none" />
<circle cx="596.0" cy="769.6" r="5" fill="black" stroke="none" />
<path d="M596.0,769.6 L591.6949524448039,757.5099914491575" stroke="grey" stroke-width="5" />
<circle cx="591.6949524448039" cy="757.5099914491575" r="2.5" fill="grey" stroke="none" />
<path d="M591.6949524448039,757.5099914491575 A273.3484223477428,273.3484223477428,0,0,0,620.0,745.5999999999999" stroke="grey" stroke-width="5" fill="none" />
<circle cx="596.0" cy="769.6" r="5" fill="black" stroke="none" />
<circle cx="620.0" cy="745.6" r="5" fill="black" stroke="none" />
<path d="M620.0,745.5999999999999 A273.3484223477428,273.3484223477428,0,0,1,611.1548032247438,749.7277912449242" stroke="grey" stroke-width="5" fill="none" />
<path d="M611.1548032247438,749.7277912449242 L120.0,269.6" stroke="grey" stroke-width="5" />
<circle cx="611.1548032247438" cy="749.7277912449242" r="2.5" fill="grey" stroke="none" />
<circle cx="620.0" cy="745.6" r="5" fill="black" stroke="none" />
<circle cx="620.0" cy="769.6" r="5" fill="black" stroke="none" />
<path d="M620.0,769.6 A295.1002541510258,295.1002541510258,0,0,1,576.7365841458048,784.9485157947552" stroke="grey" stroke-width="5" fill="none" />
<path d="M576.7365841458048,784.9485157947552 L120.0,445.6" stroke="grey" stroke-width="5" />
<circle cx="576.7365841458048" cy="784.9485157947552" r="2.5" fill="grey" stroke="none" />
<circle cx="620.0" cy="769.6" r="5" fill="black" stroke="none" />
<circle cx="620.0" cy="945.6" r="5" fill="black" stroke="none" />
<path d="M620.0,945.6 A461.47519976700806,461.47519976700806,0,0,0,701.2928192155041,915.2596307519843" stroke="grey" stroke-width="5" fill="none" />
<path d="M701.2928192155041,915.2596307519843 L216.0,445.6" stroke="grey" stroke-width="5" />
<circle cx="701.2928192155041" cy="915.2596307519843" r="2.5" fill="grey" stroke="none" />
<circle cx="620.0" cy="945.6" r="5" fill="black" stroke="none" />
<circle cx="716.0" cy="945.6" r="5" fill="black" stroke="none" />
<path d="M620.0,945.6 A461.47519976700806,461.47519976700806,0,0,1,609.0147562458175,948.4140306911293" stroke="grey" stroke-width="5" fill="none" />
<path d="M609.0147562458175,948.4140306911293 L120.0,493.6" stroke="grey" stroke-width="5" />
<circle cx="609.0147562458175" cy="948.4140306911293" r="2.5" fill="grey" stroke="none" />
<circle cx="620.0" cy="945.6" r="5" fill="black" stroke="none" />
<circle cx="620.0" cy="993.6" r="5" fill="black" stroke="none" />
<path d="M308.0,569.6 L434.56652986469123,523.7196329240494" stroke="grey" stroke-width="5" />
<circle cx="434.56652986469123" cy="523.7196329240494" r="2.5" fill="grey" stroke="none" />
<path d="M434.56652986469123,523.7196329240494 A69.6,69.6,0,0,0,500.0,569.6" stroke="grey" stroke-width="5" fill="none" />
<circle cx="308.0" cy="569.6" r="5" fill="black" stroke="none" />
<circle cx="500.0" cy="569.6" r="5" fill="black" stroke="none" />
<path d="M500.0,569.6 A69.6,69.6,0,0,1,500.0,569.6" stroke="grey" stroke-width="5" fill="none" />
<path d="M500.0,569.6 L0.0,213.6" stroke="grey" stroke-width="5" />
<circle cx="500.0" cy="569.6" r="2.5" fill="grey" stroke="none" />
<circle cx="500.0" cy="569.6" r="5" fill="black" stroke="none" />
<circle cx="500.0" cy="713.6" r="5" fill="black" stroke="none" />
<path d="M500.0,569.6 L500.0,489.6" stroke="grey" stroke-width="5" />
<circle cx="500.0" cy="569.6" r="5" fill="black" stroke="none" />
<circle cx="500.0" cy="489.6" r="5" fill="black" stroke="none" />
<path d="M500.0,489.6 A10.400000000000006,10.400000000000006,0,0,1,500.0,489.6" stroke="grey" stroke-width="5" fill="none" />
<path d="M500.0,489.6 L0.0,-66.4" stroke="grey" stroke-width="5" />
<circle cx="500.0" cy="489.6" r="2.5" fill="grey" stroke="none" />
<circle cx="500.0" cy="489.6" r="5" fill="black" stroke="none" />
<circle cx="500.0" cy="433.6" r="5" fill="black" stroke="none" />
<path d="M500.0,489.6 A10.400000000000006,10.400000000000006,0,0,1,507.7623409048101,506.92142064012234" stroke="grey" stroke-width="5" fill="none" />
<path d="M507.7623409048101,506.92142064012234 L96.0,85.6" stroke="grey" stroke-width="5" />
<circle cx="507.7623409048101" cy="506.92142064012234" r="2.5" fill="grey" stroke="none" />
<circle cx="500.0" cy="489.6" r="5" fill="black" stroke="none" />
<circle cx="596.0" cy="585.6" r="5" fill="black" stroke="none" />
<path d="M500.0,569.6 A69.6,69.6,0,0,0,551.9479737475754,546.320276591588" stroke="grey" stroke-width="5" fill="none" />
<path d="M551.9479737475754,546.320276591588 L96.0,85.6" stroke="grey" stroke-width="5" />
<circle cx="551.9479737475754" cy="546.320276591588" r="2.5" fill="grey" stroke="none" />
<circle cx="500.0" cy="569.6" r="5" fill="black" stroke="none" />
<circle cx="596.0" cy="585.6" r="5" fill="black" stroke="none" />
<path d="M596.0,585.6 A128.62099362079272,128.62099362079272,0,0,1,586.7594763094294,594.9534268497644" stroke="grey" stroke-width="5" fill="none" />
<path d="M586.7594763094294,594.9534268497644 L144.0,157.6" stroke="grey" stroke-width="5" />
<circle cx="586.7594763094294" cy="594.9534268497644" r="2.5" fill="grey" stroke="none" />
<circle cx="596.0" cy="585.6" r="5" fill="black" stroke="none" />
<circle cx="644.0" cy="657.6" r="5" fill="black" stroke="none" />
<path d="M596.0,769.6000000000001 A286.18203996757035,286.18203996757035,0,0,0,616.3734843092783,761.4524280815119" stroke="grey" stroke-width="5" fill="none" />
<path d="M616.3734843092783,761.4524280815119 L120.0,269.6" stroke="grey" stroke-width="5" />
<circle cx="616.3734843092783" cy="761.4524280815119" r="2.5" fill="grey" stroke="none" />
<circle cx="596.0" cy="769.6" r="5" fill="black" stroke="none" />
<circle cx="620.0" cy="769.6" r="5" fill="black" stroke="none" />
<path d="M620.0,769.6 A295.1002541510258,295.1002541510258,0,0,0,639.0310402548577,760.2970031438168" stroke="grey" stroke-width="5" fill="none" />
<path d="M639.0310402548577,760.2970031438168 L144.0,269.6" stroke="grey" stroke-width="5" />
<circle cx="639.0310402548577" cy="760.2970031438168" r="2.5" fill="grey" stroke="none" />
<circle cx="620.0" cy="769.6" r="5" fill="black" stroke="none" />
<circle cx="644.0" cy="769.6" r="5" fill="black" stroke="none" />
<path d="M644.0,769.6 L621.366413624792,727.2248966197495" stroke="grey" stroke-width="5" />
<circle cx="621.366413624792" cy="727.2248966197495" r="2.5" fill="grey" stroke="none" />
<path d="M621.366413624792,727.2248966197495 A257.6062111052449,257.6062111052449,0,0,0,644.0,713.6" stroke="grey" stroke-width="5" fill="none" />
<circle cx="644.0" cy="769.6" r="5" fill="black" stroke="none" />
<circle cx="644.0" cy="713.6" r="5" fill="black" stroke="none" />
<path d="M644.0,713.6 L636.6754493562439,702.7352498784285" stroke="grey" stroke-width="5" />
<circle cx="636.6754493562439" cy="702.7352498784285" r="2.5" fill="grey" stroke="none" />
<path d="M636.6754493562439,702.7352498784285 A244.5030879150609,244.5030879150609,0,0,0,644.0,697.6" stroke="grey" stroke-width="5" fill="none" />
<circle cx="644.0" cy="713.6" r="5" fill="black" stroke="none" />
<circle cx="644.0" cy="697.6" r="5" fill="black" stroke="none" />
<path d="M644.0,697.6 L636.4973296015039,687.3046689531748" stroke="grey" stroke-width="5" />
<circle cx="636.4973296015039" cy="687.3046689531748" r="2.5" fill="grey" stroke="none" />
<path d="M636.4973296015039,687.3046689531748 A231.76401791477468,231.76401791477468,0,0,0,644.0,681.6" stroke="grey" stroke-width="5" fill="none" />
<circle cx="644.0" cy="697.6" r="5" fill="black" stroke="none" />
<circle cx="644.0" cy="681.6" r="5" fill="black" stroke="none" />
<path d="M644.0,681.6 L632.6398161590332,667.2735459338919" stroke="grey" stroke-width="5" />
<circle cx="632.6398161590332" cy="667.2735459338919" r="2.5" fill="grey" stroke="none" />
<path d="M632.6398161590332,667.2735459338919 A213.4801161701014,213.4801161701014,0,0,0,644.0,657.6" stroke="grey" stroke-width="5" fill="none" />
<circle cx="644.0" cy="681.6" r="5" fill="black" stroke="none" />
<circle cx="644.0" cy="657.6" r="5" fill="black" stroke="none" />
<path d="M644.0,657.6 A213.4801161701014,213.4801161701014,0,0,0,665.0098551605221,635.4455894442618" stroke="grey" stroke-width="5" fill="none" />
<path d="M665.0098551605221,635.4455894442618 L192.0,157.6" stroke="grey" stroke-width="5" />
<circle cx="665.0098551605221" cy="635.4455894442618" r="2.5" fill="grey" stroke="none" />
<circle cx="644.0" cy="657.6" r="5" fill="black" stroke="none" />
<circle cx="692.0" cy="657.6" r="5" fill="black" stroke="none" />
<path d="M692.0,657.6 A248.39838968882225,248.39838968882225,0,0,1,673.1016452309182,678.1504432168199" stroke="grey" stroke-width="5" fill="none" />
<path d="M673.1016452309182,678.1504432168199 L192.0,197.6" stroke="grey" stroke-width="5" />
<circle cx="673.1016452309182" cy="678.1504432168199" r="2.5" fill="grey" stroke="none" />
<circle cx="692.0" cy="657.6" r="5" fill="black" stroke="none" />
<circle cx="692.0" cy="697.6" r="5" fill="black" stroke="none" />
<path d="M692.0,697.6 L670.3871222158788,675.356746613842" stroke="grey" stroke-width="5" />
<circle cx="670.3871222158788" cy="675.356746613842" r="2.5" fill="grey" stroke="none" />
<path d="M670.3871222158788,675.356746613842 A244.5030879150609,244.5030879150609,0,0,1,644.0,697.6" stroke="grey" stroke-width="5" fill="none" />
<circle cx="692.0" cy="697.6" r="5" fill="black" stroke="none" />
<circle cx="644.0" cy="697.6" r="5" fill="black" stroke="none" />
<path d="M644.0,681.6 A231.76401791477468,231.76401791477468,0,0,0,680.032534146298,645.9549473257487" stroke="grey" stroke-width="5" fill="none" />
<path d="M680.032534146298,645.9549473257487 L224.0,181.6" stroke="grey" stroke-width="5" />
<circle cx="680.032534146298" cy="645.9549473257487" r="2.5" fill="grey" stroke="none" />
<circle cx="644.0" cy="681.6" r="5" fill="black" stroke="none" />
<circle cx="724.0" cy="681.6" r="5" fill="black" stroke="none" />
<circle cx="500" cy="500" r="5" fill="red" stroke="none" />
</svg>