<?xml version="1.0" encoding="UTF-8"?>
<svg xmlns="http://www.w3.org/2000/svg" xmlns:xlink="http://www.w3.org/1999/xlink"
     width="1000" height="1000" viewBox="0 0 1000 1000">
<defs>
</defs>
<rect x="0" y="0" width="1000" height="1000" fill="white" />
<path d="M156.0,202.0 L198.4799937257166,238.79952944844052" stroke="grey" stroke-width="5" />
<circle cx="198.4799937257166" cy="238.79952944844052" r="2.5" fill="grey" stroke="none" />
<path d="M198.47999372571672,238.7995294484404 A398.9235515734813,398.9235515734813,0,0,0,156.0,298.0" stroke="grey" stroke-width="5" fill="none" />
<circle cx="156.0" cy="202.0" r="5" fill="black" stroke="none" />
<circle cx="156.0" cy="298.0" r="5" fill="black" stroke="none" />
<path d="M156.0,298.0 L227.69777489495294,340.1016003743619" stroke="grey" stroke-width="5" />
<circle cx="227.69777489495294" cy="340.1016003743619" r="2.5" fill="grey" stroke="none" />
<path d="M227.69777489495294,340.1016003743619 A315.77840331472953,315.77840331472953,0,0,0,220.0,354.0" stroke="grey" stroke-width="5" fill="none" />
<circle cx="156.0" cy="298.0" r="5" fill="black" stroke="none" />
<circle cx="220.0" cy="354.0" r="5" fill="black" stroke="none" />
<path d="M132.0,354.0 L206.47822711103254,383.5484270603554" stroke="grey" stroke-width="5" />
<circle cx="206.47822711103254" cy="383.5484270603554" r="2.5" fill="grey" stroke="none" />
<path d="M206.47822711103254,383.5484270603554 A315.77840331472953,315.77840331472953,0,0,1,220.0,354.0" stroke="grey" stroke-width="5" fill="none" />
<circle cx="132.0" cy="354.0" r="5" fill="black" stroke="none" />
<circle cx="220.0" cy="354.0" r="5" fill="black" stroke="none" />
<path d="M220.0,354.0 L289.6824709278386,390.33443126951585" stroke="grey" stroke-width="5" />
<circle cx="289.6824709278386" cy="390.33443126951585" r="2.5" fill="grey" stroke="none" />
<path d="M289.6824709278386,390.33443126951585 A237.19190542680835,237.19190542680835,0,0,1,292.0,386.0" stroke="grey" stroke-width="5" fill="none" />
<circle cx="220.0" cy="354.0" r="5" fill="black" stroke="none" />
<circle cx="292.0" cy="386.0" r="5" fill="black" stroke="none" />
<path d="M292.0,386.0 L310.9657661769792,396.3946987700751" stroke="grey" stroke-width="5" />
<circle cx="310.9657661769792" cy="396.3946987700751" r="2.5" fill="grey" stroke="none" />
<path d="M310.9657661769792,396.3946987700751 A215.56437553547664,215.56437553547664,0,0,0,308.0,401.99999999999994" stroke="grey" stroke-width="5" fill="none" />
<circle cx="292.0" cy="386.0" r="5" fill="black" stroke="none" />
<circle cx="308.0" cy="402.0" r="5" fill="black" stroke="none" />
<path d="M308.0,402.0 L345.8419708783541,421.31517263582657" stroke="grey" stroke-width="5" />
<circle cx="345.8419708783541" cy="421.31517263582657" r="2.5" fill="grey" stroke="none" />
<path d="M345.8419708783541,421.3151726358265 A173.07801709055948,173.07801709055948,0,0,0,340.0,434.00000000000006" stroke="grey" stroke-width="5" fill="none" />
<circle cx="308.0" cy="402.0" r="5" fill="black" stroke="none" />
<circle cx="340.0" cy="434.0" r="5" fill="black" stroke="none" />
<path d="M308.0,401.99999999999994 A215.56437553547664,215.56437553547664,0,0,0,284.5029567715026,505.3874260807124" stroke="grey" stroke-width="5" fill="none" />
<path d="M284.5029567715026,505.3874260807124 L-240.0,6.0" stroke="grey" stroke-width="5" />
<circle cx="284.5029567715026" cy="505.3874260807124" r="2.5" fill="grey" stroke="none" />
<circle cx="308.0" cy="402.0" r="5" fill="black" stroke="none" />
<circle cx="260.0" cy="506.0" r="5" fill="black" stroke="none" />
<path d="M260.0,505.99999999999994 A240.0749882849107,240.0749882849107,0,0,0,273.9966674845689,580.9845274846961" stroke="grey" stroke-width="5" fill="none" />
<path d="M273.99666748456895,580.9845274846962 L-240.0,86.0" stroke="grey" stroke-width="5" />
<circle cx="273.99666748456895" cy="580.9845274846962" r="2.5" fill="grey" stroke="none" />
<circle cx="260.0" cy="506.0" r="5" fill="black" stroke="none" />
<circle cx="260.0" cy="586.0" r="5" fill="black" stroke="none" />
<path d="M156.0,602.0 L255.5753481979049,572.4747514064351" stroke="grey" stroke-width="5" />
<circle cx="255.5753481979049" cy="572.4747514064351" r="2.5" fill="grey" stroke="none" />
<path d="M255.5753481979049,572.4747514064351 A254.94313091354314,254.94313091354314,0,0,0,260.0,585.9999999999999" stroke="grey" stroke-width="5" fill="none" />
<circle cx="156.0" cy="602.0" r="5" fill="black" stroke="none" />
<circle cx="260.0" cy="586.0" r="5" fill="black" stroke="none" />
<path d="M260.0,585.9999999999999 A254.94313091354314,254.94313091354314,0,0,0,306.5465862807809,666.0475134423297" stroke="grey" stroke-width="5" fill="none" />
<path d="M306.5465862807809,666.0475134423297 L-240.0,206.0" stroke="grey" stroke-width="5" />
<circle cx="306.5465862807809" cy="666.0475134423297" r="2.5" fill="grey" stroke="none" />
<circle cx="260.0" cy="586.0" r="5" fill="black" stroke="none" />
<circle cx="260.0" cy="706.0" r="5" fill="black" stroke="none" />
<path d="M260.0,506.0 L339.93755122513085,504.0015612193717" stroke="grey" stroke-width="5" />
<circle cx="339.93755122513085" cy="504.0015612193717" r="2.5" fill="grey" stroke="none" />
<path d="M339.93755122513085,504.0015612193717 A160.11246047700348,160.11246047700348,0,0,0,340.0,506.00000000000006" stroke="grey" stroke-width="5" fill="none" />
<circle cx="260.0" cy="506.0" r="5" fill="black" stroke="none" />
<circle cx="340.0" cy="506.0" r="5" fill="black" stroke="none" />
<path d="M340.0,434.0 L351.9858610182917,438.9441676700453" stroke="grey" stroke-width="5" />
<circle cx="351.9858610182917" cy="438.9441676700453" r="2.5" fill="grey" stroke="none" />
<path d="M351.98586101829164,438.9441676700454 A160.11246047700348,160.11246047700348,0,0,0,340.0,506.00000000000006" stroke="grey" stroke-width="5" fill="none" />
<circle cx="340.0" cy="434.0" r="5" fill="black" stroke="none" />
<circle cx="340.0" cy="506.0" r="5" fill="black" stroke="none" />
<path d="M340.0,506.0 L411.85764503572204,503.3053383111604" stroke="grey" stroke-width="5" />
<circle cx="411.85764503572204" cy="503.3053383111604" r="2.5" fill="grey" stroke="none" />
<path d="M411.85764503572204,503.3053383111605 A88.20430828479978,88.20430828479978,0,0,0,412.0,506.0" stroke="grey" stroke-width="5" fill="none" />
<circle cx="340.0" cy="506.0" r="5" fill="black" stroke="none" />
<circle cx="412.0" cy="506.0" r="5" fill="black" stroke="none" />
<path d="M340.0,434.0 L373.39577947255793,447.7757590324301" stroke="grey" stroke-width="5" />
<circle cx="373.39577947255793" cy="447.7757590324301" r="2.5" fill="grey" stroke="none" />
<path d="M373.3957794725579,447.7757590324302 A136.95254652615992,136.95254652615992,0,0,1,380.0,434.0" stroke="grey" stroke-width="5" fill="none" />
<circle cx="340.0" cy="434.0" r="5" fill="black" stroke="none" />
<circle cx="380.0" cy="434.0" r="5" fill="black" stroke="none" />
<path d="M412.0,506.0 L466.0787544488276,502.31281219667085" stroke="grey" stroke-width="5" />
<circle cx="466.0787544488276" cy="502.31281219667085" r="2.5" fill="grey" stroke="none" />
<path d="M466.0787544488276,502.31281219667085 A34.0,34.0,0,0,1,500.0,466.0" stroke="grey" stroke-width="5" fill="none" />
<circle cx="412.0" cy="506.0" r="5" fill="black" stroke="none" />
<circle cx="500.0" cy="466.0" r="5" fill="black" stroke="none" />
<path d="M380.0,434.0 L438.464934391648,466.1557139154064" stroke="grey" stroke-width="5" />
<circle cx="438.464934391648" cy="466.1557139154064" r="2.5" fill="grey" stroke="none" />
<path d="M438.464934391648,466.1557139154064 A70.22819946431775,70.22819946431775,0,0,1,524.0,434.0" stroke="grey" stroke-width="5" fill="none" />
<circle cx="380.0" cy="434.0" r="5" fill="black" stroke="none" />
<circle cx="524.0" cy="434.0" r="5" fill="black" stroke="none" />
<path d="M500.0,466.0 A34.0,34.0,0,0,1,511.619264144948,468.04702360139316" stroke="grey" stroke-width="5" fill="none" />
<path d="M511.6192641449479,468.04702360139316 L24.0,-66.0" stroke="grey" stroke-width="5" />
<circle cx="511.6192641449479" cy="468.04702360139316" r="2.5" fill="grey" stroke="none" />
<circle cx="500.0" cy="466.0" r="5" fill="black" stroke="none" />
<circle cx="524.0" cy="434.0" r="5" fill="black" stroke="none" />
<path d="M260.0,586.0 L361.01871386674,549.8016275310848" stroke="grey" stroke-width="5" />
<circle cx="361.01871386674" cy="549.8016275310848" r="2.5" fill="grey" stroke="none" />
<path d="M361.01871386674,549.8016275310848 A147.63468427168462,147.63468427168462,0,0,0,380.0,586.0" stroke="grey" stroke-width="5" fill="none" />
<circle cx="260.0" cy="586.0" r="5" fill="black" stroke="none" />
<circle cx="380.0" cy="586.0" r="5" fill="black" stroke="none" />
<path d="M380.0,586.0 L478.8667546830769,515.1454924771282" stroke="grey" stroke-width="5" />
<circle cx="478.8667546830769" cy="515.1454924771282" r="2.5" fill="grey" stroke="none" />
<path d="M478.8667546830769,515.1454924771282 A26.0,26.0,0,0,1,476.0,490.0" stroke="grey" stroke-width="5" fill="none" />
<circle cx="380.0" cy="586.0" r="5" fill="black" stroke="none" />
<circle cx="476.0" cy="490.0" r="5" fill="black" stroke="none" />
<path d="M476.0,490.0 A26.0,26.0,0,0,1,500.0,474.0" stroke="grey" stroke-width="5" fill="none" />
<path d="M500.0,474.0 L0.0,-34.0" stroke="grey" stroke-width="5" />
<circle cx="500.0" cy="474.0" r="2.5" fill="grey" stroke="none" />
<circle cx="476.0" cy="490.0" r="5" fill="black" stroke="none" />
<circle cx="500.0" cy="466.0" r="5" fill="black" stroke="none" />
<path d="M500.0,466.0 L500.0,490.0" stroke="grey" stroke-width="5" />
<circle cx="500.0" cy="490.0" r="2.5" fill="grey" stroke="none" />
<path d="M500.0,490.0 A10.0,10.0,0,0,1,500.0,490.0" stroke="grey" stroke-width="5" fill="none" />
<circle cx="500.0" cy="466.0" r="5" fill="black" stroke="none" />
<circle cx="500.0" cy="490.0" r="5" fill="black" stroke="none" />
<path d="M500.0,490.0 L500.0,666.0" stroke="grey" stroke-width="5" />
<circle cx="500.0" cy="490.0" r="5" fill="black" stroke="none" />
<circle cx="500.0" cy="666.0" r="5" fill="black" stroke="none" />
<path d="M500.0,666.0 A166.0,166.0,0,0,0,583.1037641389015,643.7002588235172" stroke="grey" stroke-width="5" fill="none" />
<path d="M583.1037641389015,643.7002588235172 L96.0,166.0" stroke="grey" stroke-width="5" />
<circle cx="583.1037641389015" cy="643.7002588235172" r="2.5" fill="grey" stroke="none" />
<circle cx="500.0" cy="666.0" r="5" fill="black" stroke="none" />
<circle cx="596.0" cy="666.0" r="5" fill="black" stroke="none" />
<path d="M500.0,666.0 A166.0,166.0,0,0,1,500.0,666.0" stroke="grey" stroke-width="5" fill="none" />
<path d="M500.0,666.0 L0.0,214.0" stroke="grey" stroke-width="5" />
<circle cx="500.0" cy="666.0" r="2.5" fill="grey" stroke="none" />
<circle cx="500.0" cy="666.0" r="5" fill="black" stroke="none" />
<circle cx="500.0" cy="714.0" r="5" fill="black" stroke="none" />
<path d="M188.0,290.0 L299.34949261585484,364.9467738760561" stroke="grey" stroke-width="5" />
<circle cx="299.34949261585484" cy="364.9467738760561" r="2.5" fill="grey" stroke="none" />
<path d="M299.34949261585484,364.9467738760561 A241.8677324489565,241.8677324489565,0,0,1,380.0,290.0" stroke="grey" stroke-width="5" fill="none" />
<circle cx="188.0" cy="290.0" r="5" fill="black" stroke="none" />
<circle cx="380.0" cy="290.0" r="5" fill="black" stroke="none" />
<path d="M380.0,290.0 L432.05250896124613,381.09189068218075" stroke="grey" stroke-width="5" />
<circle cx="432.05250896124613" cy="381.09189068218075" r="2.5" fill="grey" stroke="none" />
<path d="M432.05250896124613,381.09189068218075 A136.95254652615992,136.95254652615992,0,0,0,380.0,434.0" stroke="grey" stroke-width="5" fill="none" />
<circle cx="380.0" cy="290.0" r="5" fill="black" stroke="none" />
<circle cx="380.0" cy="434.0" r="5" fill="black" stroke="none" />
<path d="M380.0,290.0 A241.8677324489565,241.8677324489565,0,0,1,407.52143889549654,276.5101439974498" stroke="grey" stroke-width="5" fill="none" />
<path d="M407.5214388954965,276.5101439974498 L-120.0,-290.0" stroke="grey" stroke-width="5" />
<circle cx="407.5214388954965" cy="276.5101439974498" r="2.5" fill="grey" stroke="none" />
<circle cx="380.0" cy="290.0" r="5" fill="black" stroke="none" />
<circle cx="380.0" cy="210.0" r="5" fill="black" stroke="none" />
<path d="M380.00000000000006,210.0 A313.8470965295043,313.8470965295043,0,0,1,397.16071104195845,203.48005017098018" stroke="grey" stroke-width="5" fill="none" />
<path d="M397.16071104195845,203.48005017098018 L-120.0,-346.0" stroke="grey" stroke-width="5" />
<circle cx="397.16071104195845" cy="203.48005017098018" r="2.5" fill="grey" stroke="none" />
<circle cx="380.0" cy="210.0" r="5" fill="black" stroke="none" />
<circle cx="380.0" cy="154.0" r="5" fill="black" stroke="none" />
<path d="M380.0,210.0 L425.25829248244594,319.3742068325777" stroke="grey" stroke-width="5" />
<circle cx="425.25829248244594" cy="319.3742068325777" r="2.5" fill="grey" stroke="none" />
<path d="M425.258292482446,319.3742068325777 A195.47889911701466,195.47889911701466,0,0,1,476.00000000000006,306.0" stroke="grey" stroke-width="5" fill="none" />
<circle cx="380.0" cy="210.0" r="5" fill="black" stroke="none" />
<circle cx="476.0" cy="306.0" r="5" fill="black" stroke="none" />
<path d="M380.0,290.0 L403.01530652092174,330.276786411613" stroke="grey" stroke-width="5" />
<circle cx="403.01530652092174" cy="330.276786411613" r="2.5" fill="grey" stroke="none" />
<path d="M403.01530652092174,330.276786411613 A195.47889911701466,195.47889911701466,0,0,1,476.00000000000006,306.0" stroke="grey" stroke-width="5" fill="none" />
<circle cx="380.0" cy="290.0" r="5" fill="black" stroke="none" />
<circle cx="476.0" cy="306.0" r="5" fill="black" stroke="none" />
<path d="M476.0,306.0 L484.73432184438155,376.60243490875087" stroke="grey" stroke-width="5" />
<circle cx="484.73432184438155" cy="376.60243490875087" r="2.5" fill="grey" stroke="none" />
<path d="M484.73432184438155,376.60243490875087 A124.33824833895642,124.33824833895642,0,0,1,524.0,378.0" stroke="grey" stroke-width="5" fill="none" />
<circle cx="476.0" cy="306.0" r="5" fill="black" stroke="none" />
<circle cx="524.0" cy="378.0" r="5" fill="black" stroke="none" />
<path d="M476.0,490.0 L490.7692307692308,496.15384615384613" stroke="grey" stroke-width="5" />
<circle cx="490.7692307692308" cy="496.15384615384613" r="2.5" fill="grey" stroke="none" />
<path d="M490.7692307692308,496.15384615384613 A10.0,10.0,0,0,1,500.0,490.0" stroke="grey" stroke-width="5" fill="none" />
<circle cx="476.0" cy="490.0" r="5" fill="black" stroke="none" />
<circle cx="500.0" cy="490.0" r="5" fill="black" stroke="none" />
<path d="M500.0,490.0 A10.0,10.0,0,0,1,509.2307692307692,496.15384615384613" stroke="grey" stroke-width="5" fill="none" />
<path d="M509.2307692307692,496.15384615384613 L24.0,-10.0" stroke="grey" stroke-width="5" />
<circle cx="509.2307692307692" cy="496.15384615384613" r="2.5" fill="grey" stroke="none" />
<circle cx="500.0" cy="490.0" r="5" fill="black" stroke="none" />
<circle cx="524.0" cy="490.0" r="5" fill="black" stroke="none" />
<path d="M524.0,490.0 A26.0,26.0,0,0,0,508.8853196402543,475.5653709893006" stroke="grey" stroke-width="5" fill="none" />
<path d="M508.8853196402543,475.5653709893006 L24.0,-66.0" stroke="grey" stroke-width="5" />
<circle cx="508.8853196402543" cy="475.5653709893006" r="2.5" fill="grey" stroke="none" />
<circle cx="524.0" cy="490.0" r="5" fill="black" stroke="none" />
<circle cx="524.0" cy="434.0" r="5" fill="black" stroke="none" />
<path d="M524.0,434.0 A70.22819946431775,70.22819946431775,0,0,0,519.7270136739738,432.59936994725604" stroke="grey" stroke-width="5" fill="none" />
<path d="M519.7270136739738,432.59936994725604 L24.0,-82.0" stroke="grey" stroke-width="5" />
<circle cx="519.7270136739738" cy="432.59936994725604" r="2.5" fill="grey" stroke="none" />
<circle cx="524.0" cy="434.0" r="5" fill="black" stroke="none" />
<circle cx="524.0" cy="418.0" r="5" fill="black" stroke="none" />
<path d="M524.0,418.0 A85.44003745317531,85.44003745317531,0,0,0,520.3235131471031,417.0123213159958" stroke="grey" stroke-width="5" fill="none" />
<path d="M520.3235131471031,417.0123213159958 L24.0,-98.0" stroke="grey" stroke-width="5" />
<circle cx="520.3235131471031" cy="417.0123213159958" r="2.5" fill="grey" stroke="none" />
<circle cx="524.0" cy="418.0" r="5" fill="black" stroke="none" />
<circle cx="524.0" cy="402.0" r="5" fill="black" stroke="none" />
<path d="M524.0,402.0 A100.89598604503551,100.89598604503551,0,0,0,519.475130922543,401.00141781040594" stroke="grey" stroke-width="5" fill="none" />
<path d="M519.475130922543,401.00141781040594 L24.0,-122.0" stroke="grey" stroke-width="5" />
<circle cx="519.475130922543" cy="401.00141781040594" r="2.5" fill="grey" stroke="none" />
<circle cx="524.0" cy="402.0" r="5" fill="black" stroke="none" />
<circle cx="524.0" cy="378.0" r="5" fill="black" stroke="none" />
<path d="M524.0,378.0 A124.33824833895642,124.33824833895642,0,0,1,563.1953604138417,392.9189726321015" stroke="grey" stroke-width="5" fill="none" />
<path d="M563.1953604138417,392.9189726321015 L72.0,-122.0" stroke="grey" stroke-width="5" />
<circle cx="563.1953604138417" cy="392.9189726321015" r="2.5" fill="grey" stroke="none" />
<circle cx="524.0" cy="378.0" r="5" fill="black" stroke="none" />
<circle cx="572.0" cy="378.0" r="5" fill="black" stroke="none" />
<path d="M572.0,378.0 L555.4625538306412,406.0217837869689" stroke="grey" stroke-width="5" />
<circle cx="555.4625538306412" cy="406.0217837869689" r="2.5" fill="grey" stroke="none" />
<path d="M555.4625538306412,406.0217837869689 A109.12378292562992,109.12378292562992,0,0,1,572.0,418.0" stroke="grey" stroke-width="5" fill="none" />
<circle cx="572.0" cy="378.0" r="5" fill="black" stroke="none" />
<circle cx="572.0" cy="418.0" r="5" fill="black" stroke="none" />
<path d="M572.0,418.0 L556.3734369511468,435.79691902786067" stroke="grey" stroke-width="5" />
<circle cx="556.3734369511468" cy="435.79691902786067" r="2.5" fill="grey" stroke="none" />
<path d="M556.3734369511468,435.79691902786067 A85.44003745317531,85.44003745317531,0,0,0,524.0,418.0" stroke="grey" stroke-width="5" fill="none" />
<circle cx="572.0" cy="418.0" r="5" fill="black" stroke="none" />
<circle cx="524.0" cy="418.0" r="5" fill="black" stroke="none" />
<path d="M524.0,402.0 A100.89598604503551,100.89598604503551,0,0,1,573.4309859417406,430.80541709335984" stroke="grey" stroke-width="5" fill="none" />
<path d="M573.4309859417406,430.80541709335984 L104.0,-98.0" stroke="grey" stroke-width="5" />
<circle cx="573.4309859417406" cy="430.80541709335984" r="2.5" fill="grey" stroke="none" />
<circle cx="524.0" cy="402.0" r="5" fill="black" stroke="none" />
<circle cx="604.0" cy="402.0" r="5" fill="black" stroke="none" />
<circle cx="500" cy="500" r="5" fill="red" stroke="none" />
</svg>