<?xml version="1.0" encoding="UTF-8"?>
<svg xmlns="http://www.w3.org/2000/svg" xmlns:xlink="http://www.w3.org/1999/xlink"
     width="1000" height="1000" viewBox="0 0 1000 1000">
<defs>
</defs>
<rect x="0" y="0" width="1000" height="1000" fill="white" />
<path d="M266.7765907295959,684.0 L379.30212580396454,595.2237552891684" stroke="grey" stroke-width="5" />
<circle cx="379.30212580396454" cy="595.2237552891684" r="2.5" fill="grey" stroke="none" />
<path d="M379.30212580396454,595.2237552891684 A153.7385456117412,153.7385456117412,0,0,0,386.7765907295959,604.0" stroke="grey" stroke-width="5" fill="none" />
<circle cx="266.7765907295959" cy="684.0" r="5" fill="black" stroke="none" />
<circle cx="386.7765907295959" cy="604.0" r="5" fill="black" stroke="none" />
<path d="M386.7765907295959,604.0 L409.4308701960429,583.1911842286634" stroke="grey" stroke-width="5" />
<circle cx="409.4308701960429" cy="583.1911842286634" r="2.5" fill="grey" stroke="none" />
<path d="M409.4308701960429,583.1911842286634 A122.97780452916464,122.97780452916464,0,0,1,386.7765907295959,548.0" stroke="grey" stroke-width="5" fill="none" />
<circle cx="386.7765907295959" cy="604.0" r="5" fill="black" stroke="none" />
<circle cx="386.7765907295959" cy="548.0" r="5" fill="black" stroke="none" />
<path d="M386.7765907295959,548.0 A122.97780452916464,122.97780452916464,0,0,1,379.91891804842504,526.5343958693725" stroke="grey" stroke-width="5" fill="none" />
<path d="M379.91891804842504,526.5343958693724 L-217.2234092704041,48.0" stroke="grey" stroke-width="5" />
<circle cx="379.91891804842504" cy="526.5343958693724" r="2.5" fill="grey" stroke="none" />
<circle cx="386.7765907295959" cy="548.0" r="5" fill="black" stroke="none" />
<circle cx="282.7765907295959" cy="548.0" r="5" fill="black" stroke="none" />
<path d="M282.7765907295959,548.0 L318.51738467288635,540.1023331921728" stroke="grey" stroke-width="5" />
<circle cx="318.51738467288635" cy="540.1023331921728" r="2.5" fill="grey" stroke="none" />
<path d="M318.51738467288635,540.1023331921729 A185.86053048838838,185.86053048838838,0,0,1,322.7765907295959,443.99999999999994" stroke="grey" stroke-width="5" fill="none" />
<circle cx="282.7765907295959" cy="548.0" r="5" fill="black" stroke="none" />
<circle cx="322.7765907295959" cy="444.0" r="5" fill="black" stroke="none" />
<path d="M322.7765907295959,444.0 L349.26369969390447,452.3695382461474" stroke="grey" stroke-width="5" />
<circle cx="349.26369969390447" cy="452.3695382461474" r="2.5" fill="grey" stroke="none" />
<path d="M349.26369969390447,452.36953824614733 A158.0825515888918,158.0825515888918,0,0,1,434.7765907295959,356.0" stroke="grey" stroke-width="5" fill="none" />
<circle cx="322.7765907295959" cy="444.0" r="5" fill="black" stroke="none" />
<circle cx="434.7765907295959" cy="356.0" r="5" fill="black" stroke="none" />
<path d="M434.7765907295959,356.0 L449.9817292722689,389.56984822837904" stroke="grey" stroke-width="5" />
<circle cx="449.9817292722689" cy="389.56984822837904" r="2.5" fill="grey" stroke="none" />
<path d="M449.9817292722689,389.56984822837904 A121.22972336393349,121.22972336393349,0,0,1,482.7765907295959,380.0" stroke="grey" stroke-width="5" fill="none" />
<circle cx="434.7765907295959" cy="356.0" r="5" fill="black" stroke="none" />
<circle cx="482.7765907295959" cy="380.0" r="5" fill="black" stroke="none" />
<path d="M482.7765907295959,380.0 A121.22972336393349,121.22972336393349,0,0,0,438.9925857890945,395.239600811209" stroke="grey" stroke-width="5" fill="none" />
<path d="M438.99258578909445,395.239600811209 L-65.22340927040409,-112.0" stroke="grey" stroke-width="5" />
<circle cx="438.99258578909445" cy="395.239600811209" r="2.5" fill="grey" stroke="none" />
<circle cx="482.7765907295959" cy="380.0" r="5" fill="black" stroke="none" />
<circle cx="434.7765907295959" cy="388.0" r="5" fill="black" stroke="none" />
<path d="M434.7765907295959,356.0 L446.5251529692025,381.9384319438055" stroke="grey" stroke-width="5" />
<circle cx="446.5251529692025" cy="381.9384319438055" r="2.5" fill="grey" stroke="none" />
<path d="M446.5251529692025,381.9384319438055 A129.60745779797796,129.60745779797796,0,0,0,434.77659072959597,387.99999999999994" stroke="grey" stroke-width="5" fill="none" />
<circle cx="434.7765907295959" cy="356.0" r="5" fill="black" stroke="none" />
<circle cx="434.7765907295959" cy="388.0" r="5" fill="black" stroke="none" />
<path d="M434.7765907295959,388.0 L443.0216679865374,402.1582395509103" stroke="grey" stroke-width="5" />
<circle cx="443.0216679865374" cy="402.1582395509103" r="2.5" fill="grey" stroke="none" />
<path d="M443.0216679865374,402.1582395509103 A113.22340927040409,113.22340927040409,0,0,0,386.7765907295959,500.0" stroke="grey" stroke-width="5" fill="none" />
<circle cx="434.7765907295959" cy="388.0" r="5" fill="black" stroke="none" />
<circle cx="386.7765907295959" cy="500.0" r="5" fill="black" stroke="none" />
<path d="M322.7765907295959,444.0 L392.0381936531011,465.88565144798855" stroke="grey" stroke-width="5" />
<circle cx="392.0381936531011" cy="465.88565144798855" r="2.5" fill="grey" stroke="none" />
<path d="M392.0381936531011,465.8856514479885 A113.22340927040409,113.22340927040409,0,0,0,386.7765907295959,500.0" stroke="grey" stroke-width="5" fill="none" />
<circle cx="322.7765907295959" cy="444.0" r="5" fill="black" stroke="none" />
<circle cx="386.7765907295959" cy="500.0" r="5" fill="black" stroke="none" />
<path d="M386.7765907295959,500.0 A113.22340927040409,113.22340927040409,0,0,0,395.7572835529583,544.1927197008183" stroke="grey" stroke-width="5" fill="none" />
<path d="M395.7572835529583,544.1927197008183 L-113.22340927040409,48.0" stroke="grey" stroke-width="5" />
<circle cx="395.7572835529583" cy="544.1927197008183" r="2.5" fill="grey" stroke="none" />
<circle cx="386.7765907295959" cy="500.0" r="5" fill="black" stroke="none" />
<circle cx="386.7765907295959" cy="548.0" r="5" fill="black" stroke="none" />
<path d="M482.7765907295959,380.0 A121.22972336393349,121.22972336393349,0,0,1,517.0852542503471,379.98025198286393" stroke="grey" stroke-width="5" fill="none" />
<path d="M517.0852542503471,379.98025198286393 L22.77659072959591,-160.0" stroke="grey" stroke-width="5" />
<circle cx="517.0852542503471" cy="379.98025198286393" r="2.5" fill="grey" stroke="none" />
<circle cx="482.7765907295959" cy="380.0" r="5" fill="black" stroke="none" />
<circle cx="522.7765907295959" cy="340.0" r="5" fill="black" stroke="none" />
<path d="M482.7765907295959,380.0 L490.9215803106764,436.74827407191526" stroke="grey" stroke-width="5" />
<circle cx="490.9215803106764" cy="436.74827407191526" r="2.5" fill="grey" stroke="none" />
<path d="M490.9215803106764,436.74827407191526 A63.89991030460879,63.89991030460879,0,0,1,530.7765907295959,444.0" stroke="grey" stroke-width="5" fill="none" />
<circle cx="482.7765907295959" cy="380.0" r="5" fill="black" stroke="none" />
<circle cx="530.7765907295959" cy="444.0" r="5" fill="black" stroke="none" />
<path d="M434.7765907295959,388.0 L470.5158914247115,449.3706293894893" stroke="grey" stroke-width="5" />
<circle cx="470.5158914247115" cy="449.3706293894893" r="2.5" fill="grey" stroke="none" />
<path d="M470.5158914247116,449.3706293894893 A58.588785845892396,58.588785845892396,0,0,1,482.7765907295959,444.0" stroke="grey" stroke-width="5" fill="none" />
<circle cx="434.7765907295959" cy="388.0" r="5" fill="black" stroke="none" />
<circle cx="482.7765907295959" cy="444.0" r="5" fill="black" stroke="none" />
<path d="M386.7765907295959,500.0 L434.7765907295959,500.0" stroke="grey" stroke-width="5" />
<circle cx="434.7765907295959" cy="500.0" r="2.5" fill="grey" stroke="none" />
<path d="M434.7765907295959,500.0 A65.22340927040409,65.22340927040409,0,0,1,434.7765907295959,500.0" stroke="grey" stroke-width="5" fill="none" />
<circle cx="386.7765907295959" cy="500.0" r="5" fill="black" stroke="none" />
<circle cx="434.7765907295959" cy="500.0" r="5" fill="black" stroke="none" />
<path d="M386.7765907295959,548.0 L453.04843229614346,519.9046757583744" stroke="grey" stroke-width="5" />
<circle cx="453.04843229614346" cy="519.9046757583744" r="2.5" fill="grey" stroke="none" />
<path d="M453.04843229614346,519.9046757583744 A50.99652759645348,50.99652759645348,0,0,0,482.7765907295959,548.0" stroke="grey" stroke-width="5" fill="none" />
<circle cx="386.7765907295959" cy="548.0" r="5" fill="black" stroke="none" />
<circle cx="482.7765907295959" cy="548.0" r="5" fill="black" stroke="none" />
<path d="M386.7765907295959,604.0 L422.3641707711162,571.3114566310312" stroke="grey" stroke-width="5" />
<circle cx="422.3641707711162" cy="571.3114566310312" r="2.5" fill="grey" stroke="none" />
<path d="M422.3641707711162,571.3114566310312 A105.41653488374507,105.41653488374507,0,0,0,482.7765907295959,604.0" stroke="grey" stroke-width="5" fill="none" />
<circle cx="386.7765907295959" cy="604.0" r="5" fill="black" stroke="none" />
<circle cx="482.7765907295959" cy="604.0" r="5" fill="black" stroke="none" />
<path d="M530.7765907295959,444.0 L528.2185542159191,448.65451310135353" stroke="grey" stroke-width="5" />
<circle cx="528.2185542159191" cy="448.65451310135353" r="2.5" fill="grey" stroke="none" />
<path d="M528.2185542159191,448.6545131013536 A58.588785845892396,58.588785845892396,0,0,0,482.7765907295959,444.0" stroke="grey" stroke-width="5" fill="none" />
<circle cx="530.7765907295959" cy="444.0" r="5" fill="black" stroke="none" />
<circle cx="482.7765907295959" cy="444.0" r="5" fill="black" stroke="none" />
<path d="M482.7765907295959,444.0 A58.588785845892396,58.588785845892396,0,0,0,441.4112141541076,500.0" stroke="grey" stroke-width="5" fill="none" />
<path d="M441.4112141541076,500.0 L-65.22340927040409,0.0" stroke="grey" stroke-width="5" />
<circle cx="441.4112141541076" cy="500.0" r="2.5" fill="grey" stroke="none" />
<circle cx="482.7765907295959" cy="444.0" r="5" fill="black" stroke="none" />
<circle cx="434.7765907295959" cy="500.0" r="5" fill="black" stroke="none" />
<path d="M434.7765907295959,500.0 L449.00347240354654,500.0" stroke="grey" stroke-width="5" />
<circle cx="449.00347240354654" cy="500.0" r="2.5" fill="grey" stroke="none" />
<path d="M449.00347240354654,500.0 A50.99652759645348,50.99652759645348,0,0,0,482.7765907295959,548.0" stroke="grey" stroke-width="5" fill="none" />
<circle cx="434.7765907295959" cy="500.0" r="5" fill="black" stroke="none" />
<circle cx="482.7765907295959" cy="548.0" r="5" fill="black" stroke="none" />
<path d="M482.7765907295959,548.0 A50.99652759645348,50.99652759645348,0,0,0,491.6679668219809,550.3112616619403" stroke="grey" stroke-width="5" fill="none" />
<path d="M491.6679668219809,550.3112616619403 L-17.22340927040409,104.0" stroke="grey" stroke-width="5" />
<circle cx="491.6679668219809" cy="550.3112616619403" r="2.5" fill="grey" stroke="none" />
<circle cx="482.7765907295959" cy="548.0" r="5" fill="black" stroke="none" />
<circle cx="482.7765907295959" cy="604.0" r="5" fill="black" stroke="none" />
<path d="M482.7765907295959,604.0 A105.41653488374507,105.41653488374507,0,0,0,530.0778533451648,601.0344919571658" stroke="grey" stroke-width="5" fill="none" />
<path d="M530.0778533451648,601.0344919571658 L54.77659072959591,184.0" stroke="grey" stroke-width="5" />
<circle cx="530.0778533451648" cy="601.0344919571658" r="2.5" fill="grey" stroke="none" />
<circle cx="482.7765907295959" cy="604.0" r="5" fill="black" stroke="none" />
<circle cx="554.7765907295959" cy="684.0" r="5" fill="black" stroke="none" />
<path d="M530.7765907295959,444.0 L515.7542000706133,471.33421269088296" stroke="grey" stroke-width="5" />
<circle cx="515.7542000706133" cy="471.33421269088296" r="2.5" fill="grey" stroke="none" />
<path d="M515.7542000706133,471.33421269088296 A32.709664961849505,32.709664961849505,0,0,0,506.7765907295959,468.0" stroke="grey" stroke-width="5" fill="none" />
<circle cx="530.7765907295959" cy="444.0" r="5" fill="black" stroke="none" />
<circle cx="506.7765907295959" cy="468.0" r="5" fill="black" stroke="none" />
<path d="M506.7765907295959,468.0 L503.5682418554267,483.15026774820967" stroke="grey" stroke-width="5" />
<circle cx="503.5682418554267" cy="483.15026774820967" r="2.5" fill="grey" stroke="none" />
<path d="M503.5682418554267,483.15026774820967 A17.22340927040409,17.22340927040409,0,0,0,482.7765907295959,500.0" stroke="grey" stroke-width="5" fill="none" />
<circle cx="506.7765907295959" cy="468.0" r="5" fill="black" stroke="none" />
<circle cx="482.7765907295959" cy="500.0" r="5" fill="black" stroke="none" />
<path d="M482.7765907295959,500.0 A17.22340927040409,17.22340927040409,0,0,0,494.1830191019423,516.211371321621" stroke="grey" stroke-width="5" fill="none" />
<path d="M494.1830191019423,516.211371321621 L-17.22340927040409,48.0" stroke="grey" stroke-width="5" />
<circle cx="494.1830191019423" cy="516.211371321621" r="2.5" fill="grey" stroke="none" />
<circle cx="482.7765907295959" cy="500.0" r="5" fill="black" stroke="none" />
<circle cx="482.7765907295959" cy="548.0" r="5" fill="black" stroke="none" />
<path d="M482.7765907295959,444.0 L490.3843041189216,468.7356341078368" stroke="grey" stroke-width="5" />
<circle cx="490.3843041189216" cy="468.7356341078368" r="2.5" fill="grey" stroke="none" />
<path d="M490.38430411892165,468.7356341078368 A32.709664961849505,32.709664961849505,0,0,1,506.7765907295959,468.0" stroke="grey" stroke-width="5" fill="none" />
<circle cx="482.7765907295959" cy="444.0" r="5" fill="black" stroke="none" />
<circle cx="506.7765907295959" cy="468.0" r="5" fill="black" stroke="none" />
<path d="M434.7765907295959,500.0 L482.7765907295959,500.0" stroke="grey" stroke-width="5" />
<circle cx="482.7765907295959" cy="500.0" r="2.5" fill="grey" stroke="none" />
<path d="M482.7765907295959,500.0 A17.22340927040409,17.22340927040409,0,0,1,482.7765907295959,500.0" stroke="grey" stroke-width="5" fill="none" />
<circle cx="434.7765907295959" cy="500.0" r="5" fill="black" stroke="none" />
<circle cx="482.7765907295959" cy="500.0" r="5" fill="black" stroke="none" />
<path d="M530.7765907295959,444.0 L514.823159100252,473.02830203295196" stroke="grey" stroke-width="5" />
<circle cx="514.823159100252" cy="473.02830203295196" r="2.5" fill="grey" stroke="none" />
<path d="M514.823159100252,473.02830203295196 A30.77659072959591,30.77659072959591,0,0,1,530.7765907295959,500.0" stroke="grey" stroke-width="5" fill="none" />
<circle cx="530.7765907295959" cy="444.0" r="5" fill="black" stroke="none" />
<circle cx="530.7765907295959" cy="500.0" r="5" fill="black" stroke="none" />
<path d="M506.7765907295959,468.0 L506.3761080912935,469.8911344859161" stroke="grey" stroke-width="5" />
<circle cx="506.3761080912935" cy="469.8911344859161" r="2.5" fill="grey" stroke="none" />
<path d="M506.3761080912935,469.8911344859161 A30.77659072959591,30.77659072959591,0,0,1,530.7765907295959,500.0" stroke="grey" stroke-width="5" fill="none" />
<circle cx="506.7765907295959" cy="468.0" r="5" fill="black" stroke="none" />
<circle cx="530.7765907295959" cy="500.0" r="5" fill="black" stroke="none" />
<path d="M482.7765907295959,500.0 L530.7765907295959,500.0" stroke="grey" stroke-width="5" />
<circle cx="482.7765907295959" cy="500.0" r="5" fill="black" stroke="none" />
<circle cx="530.7765907295959" cy="500.0" r="5" fill="black" stroke="none" />
<path d="M482.7765907295959,548.0 L489.60560957643673,528.9681753767749" stroke="grey" stroke-width="5" />
<circle cx="489.60560957643673" cy="528.9681753767749" r="2.5" fill="grey" stroke="none" />
<path d="M489.60560957643673,528.9681753767749 A30.77659072959591,30.77659072959591,0,0,0,530.7765907295959,500.0" stroke="grey" stroke-width="5" fill="none" />
<circle cx="482.7765907295959" cy="548.0" r="5" fill="black" stroke="none" />
<circle cx="530.7765907295959" cy="500.0" r="5" fill="black" stroke="none" />
<path d="M530.7765907295959,500.0 A30.77659072959591,30.77659072959591,0,0,1,512.0967395141928,528.2996012350495" stroke="grey" stroke-width="5" fill="none" />
<path d="M512.0967395141929,528.2996012350495 L30.77659072959591,72.0" stroke="grey" stroke-width="5" />
<circle cx="512.0967395141929" cy="528.2996012350495" r="2.5" fill="grey" stroke="none" />
<circle cx="530.7765907295959" cy="500.0" r="5" fill="black" stroke="none" />
<circle cx="530.7765907295959" cy="572.0" r="5" fill="black" stroke="none" />
<path d="M530.7765907295959,572.0 A78.30197019831013,78.30197019831013,0,0,1,487.20668554613593,577.2497873280024" stroke="grey" stroke-width="5" fill="none" />
<path d="M487.20668554613593,577.2497873280024 L-17.22340927040409,104.0" stroke="grey" stroke-width="5" />
<circle cx="487.20668554613593" cy="577.2497873280024" r="2.5" fill="grey" stroke="none" />
<circle cx="530.7765907295959" cy="572.0" r="5" fill="black" stroke="none" />
<circle cx="482.7765907295959" cy="604.0" r="5" fill="black" stroke="none" />
<path d="M530.7765907295959,444.0 A63.89991030460879,63.89991030460879,0,0,1,541.167319606423,451.1282255963663" stroke="grey" stroke-width="5" fill="none" />
<path d="M541.167319606423,451.1282255963663 L134.7765907295959,-160.0" stroke="grey" stroke-width="5" />
<circle cx="541.167319606423" cy="451.1282255963663" r="2.5" fill="grey" stroke="none" />
<circle cx="530.7765907295959" cy="444.0" r="5" fill="black" stroke="none" />
<circle cx="634.7765907295959" cy="340.0" r="5" fill="black" stroke="none" />
<path d="M530.7765907295959,444.0 A63.89991030460879,63.89991030460879,0,0,1,562.6403846973312,487.3753914156757" stroke="grey" stroke-width="5" fill="none" />
<path d="M562.6403846973312,487.3753914156757 L158.7765907295959,-32.0" stroke="grey" stroke-width="5" />
<circle cx="562.6403846973312" cy="487.3753914156757" r="2.5" fill="grey" stroke="none" />
<circle cx="530.7765907295959" cy="444.0" r="5" fill="black" stroke="none" />
<circle cx="658.7765907295959" cy="468.0" r="5" fill="black" stroke="none" />
<path d="M658.7765907295959,468.0 A161.96915065441814,161.96915065441814,0,0,1,660.6243460923054,479.171528953547" stroke="grey" stroke-width="5" fill="none" />
<path d="M660.6243460923054,479.171528953547 L246.7765907295959,-32.0" stroke="grey" stroke-width="5" />
<circle cx="660.6243460923054" cy="479.171528953547" r="2.5" fill="grey" stroke="none" />
<circle cx="658.7765907295959" cy="468.0" r="5" fill="black" stroke="none" />
<circle cx="746.7765907295959" cy="468.0" r="5" fill="black" stroke="none" />
<path d="M530.7765907295959,500.0 A30.77659072959591,30.77659072959591,0,0,1,520.7302398678446,522.7476524493997" stroke="grey" stroke-width="5" fill="none" />
<path d="M520.7302398678446,522.7476524493997 L94.77659072959591,104.0" stroke="grey" stroke-width="5" />
<circle cx="520.7302398678446" cy="522.7476524493997" r="2.5" fill="grey" stroke="none" />
<circle cx="530.7765907295959" cy="500.0" r="5" fill="black" stroke="none" />
<circle cx="594.7765907295959" cy="604.0" r="5" fill="black" stroke="none" />
<circle cx="500" cy="500" r="5" fill="red" stroke="none" />
</svg>