<?xml version="1.0" encoding="UTF-8"?>
<svg xmlns="http://www.w3.org/2000/svg" xmlns:xlink="http://www.w3.org/1999/xlink"
     width="1000" height="1000" viewBox="0 0 1000 1000">
<defs>
</defs>
<rect x="0" y="0" width="1000" height="1000" fill="white" />
<path d="M296.3093451783923,801.948442470268 L367.34711775610094,696.642949662157" stroke="grey" stroke-width="5" />
<circle cx="367.34711775610094" cy="696.642949662157" r="2.5" fill="grey" stroke="none" />
<path d="M367.34711775610094,696.642949662157 A237.20294437347806,237.20294437347806,0,0,0,416.3093451783923,721.948442470268" stroke="grey" stroke-width="5" fill="none" />
<circle cx="296.3093451783923" cy="801.948442470268" r="5" fill="black" stroke="none" />
<circle cx="416.3093451783923" cy="721.948442470268" r="5" fill="black" stroke="none" />
<path d="M416.3093451783923,721.948442470268 L434.42519807268576,673.905021822174" stroke="grey" stroke-width="5" />
<circle cx="434.42519807268576" cy="673.905021822174" r="2.5" fill="grey" stroke="none" />
<path d="M434.42519807268576,673.905021822174 A185.85750257328144,185.85750257328144,0,0,1,416.3093451783923,665.948442470268" stroke="grey" stroke-width="5" fill="none" />
<circle cx="416.3093451783923" cy="721.948442470268" r="5" fill="black" stroke="none" />
<circle cx="416.3093451783923" cy="665.948442470268" r="5" fill="black" stroke="none" />
<path d="M416.3093451783923,665.948442470268 A185.85750257328144,185.85750257328144,0,0,1,360.7618606361634,623.108699161652" stroke="grey" stroke-width="5" fill="none" />
<path d="M360.7618606361634,623.108699161652 L-187.6906548216077,165.94844247026793" stroke="grey" stroke-width="5" />
<circle cx="360.7618606361634" cy="623.108699161652" r="2.5" fill="grey" stroke="none" />
<circle cx="416.3093451783923" cy="665.948442470268" r="5" fill="black" stroke="none" />
<circle cx="312.3093451783923" cy="665.948442470268" r="5" fill="black" stroke="none" />
<path d="M312.3093451783923,665.948442470268 L380.01609954599587,606.0848843048386" stroke="grey" stroke-width="5" />
<circle cx="380.01609954599587" cy="606.0848843048386" r="2.5" fill="grey" stroke="none" />
<path d="M380.01609954599587,606.0848843048386 A160.15660787531488,160.15660787531488,0,0,1,352.30934517839233,561.948442470268" stroke="grey" stroke-width="5" fill="none" />
<circle cx="312.3093451783923" cy="665.948442470268" r="5" fill="black" stroke="none" />
<circle cx="352.3093451783923" cy="561.948442470268" r="5" fill="black" stroke="none" />
<path d="M352.3093451783923,561.948442470268 L459.25217827704387,517.0915627183201" stroke="grey" stroke-width="5" />
<circle cx="459.25217827704387" cy="517.0915627183201" r="2.5" fill="grey" stroke="none" />
<path d="M459.25217827704387,517.0915627183202 A44.18717564316696,44.18717564316696,0,0,1,464.3093451783923,473.948442470268" stroke="grey" stroke-width="5" fill="none" />
<circle cx="352.3093451783923" cy="561.948442470268" r="5" fill="black" stroke="none" />
<circle cx="464.3093451783923" cy="473.94844247026793" r="5" fill="black" stroke="none" />
<path d="M464.3093451783923,473.94844247026793 L489.92041074556647,492.6426399109111" stroke="grey" stroke-width="5" />
<circle cx="489.92041074556647" cy="492.6426399109111" r="2.5" fill="grey" stroke="none" />
<path d="M489.92041074556647,492.6426399109111 A12.479137270605296,12.479137270605296,0,0,1,512.3093451783923,497.94844247026793" stroke="grey" stroke-width="5" fill="none" />
<circle cx="464.3093451783923" cy="473.94844247026793" r="5" fill="black" stroke="none" />
<circle cx="512.3093451783923" cy="497.94844247026793" r="5" fill="black" stroke="none" />
<path d="M512.3093451783923,497.94844247026793 L464.3093451783923,505.94844247026793" stroke="grey" stroke-width="5" />
<circle cx="512.3093451783923" cy="497.94844247026793" r="5" fill="black" stroke="none" />
<circle cx="464.3093451783923" cy="505.94844247026793" r="5" fill="black" stroke="none" />
<path d="M464.3093451783923,473.94844247026793 L470.77446967243475,478.66750866659504" stroke="grey" stroke-width="5" />
<circle cx="470.77446967243475" cy="478.66750866659504" r="2.5" fill="grey" stroke="none" />
<path d="M470.77446967243475,478.66750866659504 A36.18296297178046,36.18296297178046,0,0,0,464.3093451783923,505.948442470268" stroke="grey" stroke-width="5" fill="none" />
<circle cx="464.3093451783923" cy="473.94844247026793" r="5" fill="black" stroke="none" />
<circle cx="464.3093451783923" cy="505.94844247026793" r="5" fill="black" stroke="none" />
<path d="M464.3093451783923,505.948442470268 A36.18296297178046,36.18296297178046,0,0,0,479.061663059452,529.5091995076335" stroke="grey" stroke-width="5" fill="none" />
<path d="M479.061663059452,529.5091995076335 L-83.6906548216077,117.94844247026795" stroke="grey" stroke-width="5" />
<circle cx="479.061663059452" cy="529.5091995076335" r="2.5" fill="grey" stroke="none" />
<circle cx="464.3093451783923" cy="505.94844247026793" r="5" fill="black" stroke="none" />
<circle cx="416.3093451783923" cy="617.948442470268" r="5" fill="black" stroke="none" />
<path d="M352.3093451783923,561.948442470268 L366.6334048877833,555.9402546812728" stroke="grey" stroke-width="5" />
<circle cx="366.6334048877833" cy="555.9402546812728" r="2.5" fill="grey" stroke="none" />
<path d="M366.63340488778334,555.9402546812728 A144.62351394441913,144.62351394441913,0,0,0,416.3093451783923,617.948442470268" stroke="grey" stroke-width="5" fill="none" />
<circle cx="352.3093451783923" cy="561.948442470268" r="5" fill="black" stroke="none" />
<circle cx="416.3093451783923" cy="617.948442470268" r="5" fill="black" stroke="none" />
<path d="M416.3093451783923,617.948442470268 A144.62351394441913,144.62351394441913,0,0,0,434.876793150505,629.1314396855757" stroke="grey" stroke-width="5" fill="none" />
<path d="M434.876793150505,629.1314396855757 L-83.6906548216077,165.94844247026793" stroke="grey" stroke-width="5" />
<circle cx="434.876793150505" cy="629.1314396855757" r="2.5" fill="grey" stroke="none" />
<circle cx="416.3093451783923" cy="617.948442470268" r="5" fill="black" stroke="none" />
<circle cx="416.3093451783923" cy="665.948442470268" r="5" fill="black" stroke="none" />
<path d="M512.3093451783923,497.94844247026793 A12.479137270605296,12.479137270605296,0,0,0,509.7260316154067,492.18122925040524" stroke="grey" stroke-width="5" fill="none" />
<path d="M509.7260316154067,492.18122925040524 L52.309345178392306,-42.05155752973205" stroke="grey" stroke-width="5" />
<circle cx="509.7260316154067" cy="492.18122925040524" r="2.5" fill="grey" stroke="none" />
<circle cx="512.3093451783923" cy="497.94844247026793" r="5" fill="black" stroke="none" />
<circle cx="552.3093451783923" cy="457.94844247026793" r="5" fill="black" stroke="none" />
<path d="M512.3093451783923,497.94844247026793 A12.479137270605296,12.479137270605296,0,0,1,508.7049967369381,508.9415825684555" stroke="grey" stroke-width="5" fill="none" />
<path d="M508.7049967369381,508.9415825684555 L60.309345178392306,61.94844247026795" stroke="grey" stroke-width="5" />
<circle cx="508.7049967369381" cy="508.9415825684555" r="2.5" fill="grey" stroke="none" />
<circle cx="512.3093451783923" cy="497.94844247026793" r="5" fill="black" stroke="none" />
<circle cx="560.3093451783923" cy="561.948442470268" r="5" fill="black" stroke="none" />
<path d="M464.3093451783923,505.948442470268 A36.18296297178046,36.18296297178046,0,0,0,507.0518003863954,535.4891380668462" stroke="grey" stroke-width="5" fill="none" />
<path d="M507.0518003863954,535.4891380668462 L12.309345178392306,61.94844247026795" stroke="grey" stroke-width="5" />
<circle cx="507.0518003863954" cy="535.4891380668462" r="2.5" fill="grey" stroke="none" />
<circle cx="464.3093451783923" cy="505.94844247026793" r="5" fill="black" stroke="none" />
<circle cx="512.3093451783923" cy="561.948442470268" r="5" fill="black" stroke="none" />
<path d="M416.3093451783923,617.948442470268 L428.68927320748116,600.5009361502667" stroke="grey" stroke-width="5" />
<circle cx="428.68927320748116" cy="600.5009361502667" r="2.5" fill="grey" stroke="none" />
<path d="M428.68927320748116,600.5009361502667 A123.23010152863324,123.23010152863324,0,0,0,464.3093451783923,617.948442470268" stroke="grey" stroke-width="5" fill="none" />
<circle cx="416.3093451783923" cy="617.948442470268" r="5" fill="black" stroke="none" />
<circle cx="464.3093451783923" cy="617.948442470268" r="5" fill="black" stroke="none" />
<path d="M416.3093451783923,665.948442470268 L425.06900028140456,648.5791062639713" stroke="grey" stroke-width="5" />
<circle cx="425.06900028140456" cy="648.5791062639713" r="2.5" fill="grey" stroke="none" />
<path d="M425.06900028140456,648.5791062639713 A166.40434350409438,166.40434350409438,0,0,0,512.3093451783923,665.948442470268" stroke="grey" stroke-width="5" fill="none" />
<circle cx="416.3093451783923" cy="665.948442470268" r="5" fill="black" stroke="none" />
<circle cx="512.3093451783923" cy="665.948442470268" r="5" fill="black" stroke="none" />
<path d="M416.3093451783923,721.948442470268 L421.57114401894853,707.994100020174" stroke="grey" stroke-width="5" />
<circle cx="421.57114401894853" cy="707.994100020174" r="2.5" fill="grey" stroke="none" />
<path d="M421.57114401894853,707.994100020174 A222.28952088143663,222.28952088143663,0,0,0,512.3093451783923,721.948442470268" stroke="grey" stroke-width="5" fill="none" />
<circle cx="416.3093451783923" cy="721.948442470268" r="5" fill="black" stroke="none" />
<circle cx="512.3093451783923" cy="721.948442470268" r="5" fill="black" stroke="none" />
<path d="M560.3093451783923,561.948442470268 L544.0578315802395,545.2552425654769" stroke="grey" stroke-width="5" />
<circle cx="544.0578315802395" cy="545.2552425654769" r="2.5" fill="grey" stroke="none" />
<path d="M544.0578315802395,545.2552425654769 A63.159555913677124,63.159555913677124,0,0,1,512.3093451783923,561.948442470268" stroke="grey" stroke-width="5" fill="none" />
<circle cx="560.3093451783923" cy="561.948442470268" r="5" fill="black" stroke="none" />
<circle cx="512.3093451783923" cy="561.948442470268" r="5" fill="black" stroke="none" />
<path d="M512.3093451783923,561.948442470268 A63.159555913677124,63.159555913677124,0,0,1,481.70734357240383,560.4525286818908" stroke="grey" stroke-width="5" fill="none" />
<path d="M481.70734357240383,560.4525286818908 L-35.690654821607694,117.94844247026795" stroke="grey" stroke-width="5" />
<circle cx="481.70734357240383" cy="560.4525286818908" r="2.5" fill="grey" stroke="none" />
<circle cx="512.3093451783923" cy="561.948442470268" r="5" fill="black" stroke="none" />
<circle cx="464.3093451783923" cy="617.948442470268" r="5" fill="black" stroke="none" />
<path d="M464.3093451783923,617.948442470268 A123.23010152863324,123.23010152863324,0,0,0,509.1156385953769,622.8924857579003" stroke="grey" stroke-width="5" fill="none" />
<path d="M509.1156385953769,622.8924857579003 L12.309345178392306,165.94844247026793" stroke="grey" stroke-width="5" />
<circle cx="509.1156385953769" cy="622.8924857579003" r="2.5" fill="grey" stroke="none" />
<circle cx="464.3093451783923" cy="617.948442470268" r="5" fill="black" stroke="none" />
<circle cx="512.3093451783923" cy="665.948442470268" r="5" fill="black" stroke="none" />
<path d="M512.3093451783923,665.948442470268 A166.40434350409438,166.40434350409438,0,0,1,509.214687652632,666.1490146479752" stroke="grey" stroke-width="5" fill="none" />
<path d="M509.214687652632,666.1490146479752 L12.309345178392306,221.94844247026793" stroke="grey" stroke-width="5" />
<circle cx="509.214687652632" cy="666.1490146479752" r="2.5" fill="grey" stroke="none" />
<circle cx="512.3093451783923" cy="665.948442470268" r="5" fill="black" stroke="none" />
<circle cx="512.3093451783923" cy="721.948442470268" r="5" fill="black" stroke="none" />
<path d="M512.3093451783923,721.948442470268 A222.28952088143663,222.28952088143663,0,0,0,559.7805742556118,714.1002429596191" stroke="grey" stroke-width="5" fill="none" />
<path d="M559.7805742556118,714.1002429596191 L84.3093451783923,301.94844247026793" stroke="grey" stroke-width="5" />
<circle cx="559.7805742556118" cy="714.1002429596191" r="2.5" fill="grey" stroke="none" />
<circle cx="512.3093451783923" cy="721.948442470268" r="5" fill="black" stroke="none" />
<circle cx="584.3093451783923" cy="801.948442470268" r="5" fill="black" stroke="none" />
<path d="M560.3093451783923,561.948442470268 A86.45707975833193,86.45707975833193,0,0,1,533.64511651037,579.6419033884939" stroke="grey" stroke-width="5" fill="none" />
<path d="M533.64511651037,579.6419033884939 L36.309345178392306,85.94844247026795" stroke="grey" stroke-width="5" />
<circle cx="533.64511651037" cy="579.6419033884939" r="2.5" fill="grey" stroke="none" />
<circle cx="560.3093451783923" cy="561.948442470268" r="5" fill="black" stroke="none" />
<circle cx="536.3093451783923" cy="585.948442470268" r="5" fill="black" stroke="none" />
<path d="M536.3093451783923,585.948442470268 A93.30328670710693,93.30328670710693,0,0,1,509.68472786980766,592.7992960988195" stroke="grey" stroke-width="5" fill="none" />
<path d="M509.6847278698076,592.7992960988195 L12.309345178392306,117.94844247026795" stroke="grey" stroke-width="5" />
<circle cx="509.6847278698076" cy="592.7992960988195" r="2.5" fill="grey" stroke="none" />
<circle cx="536.3093451783923" cy="585.948442470268" r="5" fill="black" stroke="none" />
<circle cx="512.3093451783923" cy="617.948442470268" r="5" fill="black" stroke="none" />
<path d="M512.3093451783924,617.948442470268 A118.5890174505334,118.5890174505334,0,0,1,508.7723260067973,618.2641169430245" stroke="grey" stroke-width="5" fill="none" />
<path d="M508.7723260067973,618.2641169430245 L12.309345178392306,165.94844247026793" stroke="grey" stroke-width="5" />
<circle cx="508.7723260067973" cy="618.2641169430245" r="2.5" fill="grey" stroke="none" />
<circle cx="512.3093451783923" cy="617.948442470268" r="5" fill="black" stroke="none" />
<circle cx="512.3093451783923" cy="665.948442470268" r="5" fill="black" stroke="none" />
<path d="M512.3093451783923,561.948442470268 A63.159555913677124,63.159555913677124,0,0,0,524.5787924297097,558.1808599619338" stroke="grey" stroke-width="5" fill="none" />
<path d="M524.5787924297097,558.1808599619338 L36.309345178392306,85.94844247026795" stroke="grey" stroke-width="5" />
<circle cx="524.5787924297097" cy="558.1808599619338" r="2.5" fill="grey" stroke="none" />
<circle cx="512.3093451783923" cy="561.948442470268" r="5" fill="black" stroke="none" />
<circle cx="536.3093451783923" cy="585.948442470268" r="5" fill="black" stroke="none" />
<path d="M464.3093451783923,617.948442470268 L465.65352430163216,613.5062758925001" stroke="grey" stroke-width="5" />
<circle cx="465.65352430163216" cy="613.5062758925001" r="2.5" fill="grey" stroke="none" />
<path d="M465.65352430163216,613.5062758925001 A118.5890174505334,118.5890174505334,0,0,0,512.3093451783924,617.948442470268" stroke="grey" stroke-width="5" fill="none" />
<circle cx="464.3093451783923" cy="617.948442470268" r="5" fill="black" stroke="none" />
<circle cx="512.3093451783923" cy="617.948442470268" r="5" fill="black" stroke="none" />
<path d="M560.3093451783923,561.948442470268 A86.45707975833193,86.45707975833193,0,0,1,539.3602948024433,576.977878857522" stroke="grey" stroke-width="5" fill="none" />
<path d="M539.3602948024433,576.977878857522 L60.309345178392306,117.94844247026795" stroke="grey" stroke-width="5" />
<circle cx="539.3602948024433" cy="576.977878857522" r="2.5" fill="grey" stroke="none" />
<circle cx="560.3093451783923" cy="561.948442470268" r="5" fill="black" stroke="none" />
<circle cx="560.3093451783923" cy="617.948442470268" r="5" fill="black" stroke="none" />
<path d="M536.3093451783923,585.948442470268 A93.30328670710693,93.30328670710693,0,0,0,542.4770866780831,583.0734639803302" stroke="grey" stroke-width="5" fill="none" />
<path d="M542.4770866780831,583.0734639803302 L60.309345178392306,117.94844247026795" stroke="grey" stroke-width="5" />
<circle cx="542.4770866780831" cy="583.0734639803302" r="2.5" fill="grey" stroke="none" />
<circle cx="536.3093451783923" cy="585.948442470268" r="5" fill="black" stroke="none" />
<circle cx="560.3093451783923" cy="617.948442470268" r="5" fill="black" stroke="none" />
<path d="M512.3093451783924,617.948442470268 A118.5890174505334,118.5890174505334,0,0,0,553.9886230281245,605.586853553887" stroke="grey" stroke-width="5" fill="none" />
<path d="M553.9886230281245,605.586853553887 L60.309345178392306,117.94844247026795" stroke="grey" stroke-width="5" />
<circle cx="553.9886230281245" cy="605.586853553887" r="2.5" fill="grey" stroke="none" />
<circle cx="512.3093451783923" cy="617.948442470268" r="5" fill="black" stroke="none" />
<circle cx="560.3093451783923" cy="617.948442470268" r="5" fill="black" stroke="none" />
<path d="M512.3093451783923,665.948442470268 L509.7993467417335,632.1098974355966" stroke="grey" stroke-width="5" />
<circle cx="509.7993467417335" cy="632.1098974355966" r="2.5" fill="grey" stroke="none" />
<path d="M509.7993467417335,632.1098974355966 A132.47283569475132,132.47283569475132,0,0,0,560.3093451783923,617.948442470268" stroke="grey" stroke-width="5" fill="none" />
<circle cx="512.3093451783923" cy="665.948442470268" r="5" fill="black" stroke="none" />
<circle cx="560.3093451783923" cy="617.948442470268" r="5" fill="black" stroke="none" />
<path d="M560.3093451783923,617.948442470268 A132.47283569475132,132.47283569475132,0,0,1,540.0884988925733,626.2614923622746" stroke="grey" stroke-width="5" fill="none" />
<path d="M540.0884988925733,626.2614923622746 L60.309345178392306,189.94844247026793" stroke="grey" stroke-width="5" />
<circle cx="540.0884988925733" cy="626.2614923622746" r="2.5" fill="grey" stroke="none" />
<circle cx="560.3093451783923" cy="617.948442470268" r="5" fill="black" stroke="none" />
<circle cx="560.3093451783923" cy="689.948442470268" r="5" fill="black" stroke="none" />
<path d="M560.3093451783923,689.948442470268 A199.29281952124404,199.29281952124404,0,0,1,511.0358963271619,698.9870269765928" stroke="grey" stroke-width="5" fill="none" />
<path d="M511.03589632716194,698.9870269765928 L12.309345178392306,221.94844247026793" stroke="grey" stroke-width="5" />
<circle cx="511.03589632716194" cy="698.9870269765928" r="2.5" fill="grey" stroke="none" />
<circle cx="560.3093451783923" cy="689.948442470268" r="5" fill="black" stroke="none" />
<circle cx="512.3093451783923" cy="721.948442470268" r="5" fill="black" stroke="none" />
<path d="M560.3093451783923,561.948442470268 A86.45707975833193,86.45707975833193,0,0,0,583.7575347702145,478.56400201635404" stroke="grey" stroke-width="5" fill="none" />
<path d="M583.7575347702145,478.56400201635404 L164.3093451783923,-42.05155752973205" stroke="grey" stroke-width="5" />
<circle cx="583.7575347702145" cy="478.56400201635404" r="2.5" fill="grey" stroke="none" />
<circle cx="560.3093451783923" cy="561.948442470268" r="5" fill="black" stroke="none" />
<circle cx="664.3093451783923" cy="457.94844247026793" r="5" fill="black" stroke="none" />
<path d="M560.3093451783923,561.948442470268 A86.45707975833193,86.45707975833193,0,0,0,578.6519451347002,535.8984424016793" stroke="grey" stroke-width="5" fill="none" />
<path d="M578.6519451347002,535.8984424016792 L188.3093451783923,85.94844247026795" stroke="grey" stroke-width="5" />
<circle cx="578.6519451347002" cy="535.8984424016792" r="2.5" fill="grey" stroke="none" />
<circle cx="560.3093451783923" cy="561.948442470268" r="5" fill="black" stroke="none" />
<circle cx="688.3093451783923" cy="585.948442470268" r="5" fill="black" stroke="none" />
<path d="M688.3093451783923,585.948442470268 A206.99648365269363,206.99648365269363,0,0,0,697.654929948065,561.4822975481997" stroke="grey" stroke-width="5" fill="none" />
<path d="M697.654929948065,561.4822975481997 L276.3093451783923,85.94844247026795" stroke="grey" stroke-width="5" />
<circle cx="697.654929948065" cy="561.4822975481997" r="2.5" fill="grey" stroke="none" />
<circle cx="688.3093451783923" cy="585.948442470268" r="5" fill="black" stroke="none" />
<circle cx="776.3093451783923" cy="585.948442470268" r="5" fill="black" stroke="none" />
<path d="M560.3093451783923,617.948442470268 A132.47283569475132,132.47283569475132,0,0,0,564.733895579909,615.5793016074159" stroke="grey" stroke-width="5" fill="none" />
<path d="M564.733895579909,615.5793016074159 L124.3093451783923,221.94844247026793" stroke="grey" stroke-width="5" />
<circle cx="564.733895579909" cy="615.5793016074159" r="2.5" fill="grey" stroke="none" />
<circle cx="560.3093451783923" cy="617.948442470268" r="5" fill="black" stroke="none" />
<circle cx="624.3093451783923" cy="721.948442470268" r="5" fill="black" stroke="none" />
<circle cx="500" cy="500" r="5" fill="red" stroke="none" />
</svg>