<?xml version="1.0" encoding="UTF-8"?>
<svg xmlns="http://www.w3.org/2000/svg" xmlns:xlink="http://www.w3.org/1999/xlink"
     width="1000" height="1000" viewBox="0 0 1000 1000">
<defs>
</defs>
<rect x="0" y="0" width="1000" height="1000" fill="white" />
<path d="M340.75624762123414,684.0 L427.25748373739043,584.0511655395086" stroke="grey" stroke-width="5" />
<circle cx="427.25748373739043" cy="584.0511655395086" r="2.5" fill="grey" stroke="none" />
<path d="M427.25748373739043,584.0511655395086 A111.15787017015884,111.15787017015884,0,0,0,460.75624762123414,604.0" stroke="grey" stroke-width="5" fill="none" />
<circle cx="340.75624762123414" cy="684.0" r="5" fill="black" stroke="none" />
<circle cx="460.75624762123414" cy="604.0" r="5" fill="black" stroke="none" />
<path d="M460.75624762123414,604.0 L478.1109923909357,558.0081325906654" stroke="grey" stroke-width="5" />
<circle cx="478.1109923909357" cy="558.0081325906654" r="2.5" fill="grey" stroke="none" />
<path d="M478.1109923909357,558.0081325906654 A62.000581455062914,62.000581455062914,0,0,1,460.75624762123414,548.0" stroke="grey" stroke-width="5" fill="none" />
<circle cx="460.75624762123414" cy="604.0" r="5" fill="black" stroke="none" />
<circle cx="460.75624762123414" cy="548.0" r="5" fill="black" stroke="none" />
<path d="M460.75624762123414,548.0 A62.000581455062914,62.000581455062914,0,0,1,441.2121943038294,519.6993909092434" stroke="grey" stroke-width="5" fill="none" />
<path d="M441.2121943038294,519.6993909092434 L-143.24375237876586,48.0" stroke="grey" stroke-width="5" />
<circle cx="441.2121943038294" cy="519.6993909092434" r="2.5" fill="grey" stroke="none" />
<circle cx="460.75624762123414" cy="548.0" r="5" fill="black" stroke="none" />
<circle cx="356.75624762123414" cy="548.0" r="5" fill="black" stroke="none" />
<path d="M356.75624762123414,548.0 L388.6329725230975,537.3183278859967" stroke="grey" stroke-width="5" />
<circle cx="388.6329725230975" cy="537.3183278859967" r="2.5" fill="grey" stroke="none" />
<path d="M388.6329725230975,537.3183278859967 A117.45327754153104,117.45327754153104,0,0,1,396.75624762123414,444.0" stroke="grey" stroke-width="5" fill="none" />
<circle cx="356.75624762123414" cy="548.0" r="5" fill="black" stroke="none" />
<circle cx="396.75624762123414" cy="444.0" r="5" fill="black" stroke="none" />
<path d="M396.75624762123414,444.0 A117.45327754153104,117.45327754153104,0,0,1,507.12884638205986,382.7632653367175" stroke="grey" stroke-width="5" fill="none" />
<path d="M507.12884638205986,382.7632653367175 L8.756247621234138,-144.0" stroke="grey" stroke-width="5" />
<circle cx="507.12884638205986" cy="382.7632653367175" r="2.5" fill="grey" stroke="none" />
<circle cx="396.75624762123414" cy="444.0" r="5" fill="black" stroke="none" />
<circle cx="508.75624762123414" cy="356.0" r="5" fill="black" stroke="none" />
<path d="M508.75624762123414,356.0 L508.0569884134003,367.4995978053305" stroke="grey" stroke-width="5" />
<circle cx="508.0569884134003" cy="367.4995978053305" r="2.5" fill="grey" stroke="none" />
<path d="M508.0569884134003,367.4995978053305 A132.74513792995526,132.74513792995526,0,0,1,556.7562476212341,380.0" stroke="grey" stroke-width="5" fill="none" />
<circle cx="508.75624762123414" cy="356.0" r="5" fill="black" stroke="none" />
<circle cx="556.7562476212341" cy="380.0" r="5" fill="black" stroke="none" />
<path d="M556.7562476212341,380.0 L548.0326214465596,398.44440365309316" stroke="grey" stroke-width="5" />
<circle cx="548.0326214465596" cy="398.44440365309316" r="2.5" fill="grey" stroke="none" />
<path d="M548.0326214465596,398.44440365309316 A112.34176370524173,112.34176370524173,0,0,0,508.75624762123414,388.0" stroke="grey" stroke-width="5" fill="none" />
<circle cx="556.7562476212341" cy="380.0" r="5" fill="black" stroke="none" />
<circle cx="508.75624762123414" cy="388.0" r="5" fill="black" stroke="none" />
<path d="M508.75624762123414,356.0 L506.8186021923582,387.86535532429446" stroke="grey" stroke-width="5" />
<circle cx="506.8186021923582" cy="387.86535532429446" r="2.5" fill="grey" stroke="none" />
<path d="M506.8186021923582,387.86535532429446 A112.34176370524173,112.34176370524173,0,0,1,508.75624762123414,388.0" stroke="grey" stroke-width="5" fill="none" />
<circle cx="508.75624762123414" cy="356.0" r="5" fill="black" stroke="none" />
<circle cx="508.75624762123414" cy="388.0" r="5" fill="black" stroke="none" />
<path d="M508.75624762123414,388.0 L503.0587735324903,460.87563412344133" stroke="grey" stroke-width="5" />
<circle cx="503.0587735324903" cy="460.87563412344133" r="2.5" fill="grey" stroke="none" />
<path d="M503.0587735324903,460.87563412344133 A39.24375237876586,39.24375237876586,0,0,0,460.75624762123414,500.0" stroke="grey" stroke-width="5" fill="none" />
<circle cx="508.75624762123414" cy="388.0" r="5" fill="black" stroke="none" />
<circle cx="460.75624762123414" cy="500.0" r="5" fill="black" stroke="none" />
<path d="M396.75624762123414,444.0 L465.50396602109083,481.28915446881587" stroke="grey" stroke-width="5" />
<circle cx="465.50396602109083" cy="481.28915446881587" r="2.5" fill="grey" stroke="none" />
<path d="M465.50396602109083,481.28915446881587 A39.24375237876586,39.24375237876586,0,0,0,460.75624762123414,500.0" stroke="grey" stroke-width="5" fill="none" />
<circle cx="396.75624762123414" cy="444.0" r="5" fill="black" stroke="none" />
<circle cx="460.75624762123414" cy="500.0" r="5" fill="black" stroke="none" />
<path d="M460.75624762123414,500.0 A39.24375237876586,39.24375237876586,0,0,0,475.16036036077963,530.3819749746385" stroke="grey" stroke-width="5" fill="none" />
<path d="M475.16036036077963,530.3819749746385 L-39.24375237876586,48.0" stroke="grey" stroke-width="5" />
<circle cx="475.16036036077963" cy="530.3819749746385" r="2.5" fill="grey" stroke="none" />
<circle cx="460.75624762123414" cy="500.0" r="5" fill="black" stroke="none" />
<circle cx="460.75624762123414" cy="548.0" r="5" fill="black" stroke="none" />
<path d="M556.7562476212341,380.0 A132.74513792995526,132.74513792995526,0,0,1,568.691171896036,386.4095314403886" stroke="grey" stroke-width="5" fill="none" />
<path d="M568.691171896036,386.4095314403886 L96.75624762123414,-160.0" stroke="grey" stroke-width="5" />
<circle cx="568.691171896036" cy="386.4095314403886" r="2.5" fill="grey" stroke="none" />
<circle cx="556.7562476212341" cy="380.0" r="5" fill="black" stroke="none" />
<circle cx="596.7562476212341" cy="340.0" r="5" fill="black" stroke="none" />
<path d="M556.7562476212341,380.0 L550.7874701089518,392.61981423179765" stroke="grey" stroke-width="5" />
<circle cx="550.7874701089518" cy="392.61981423179765" r="2.5" fill="grey" stroke="none" />
<path d="M550.7874701089518,392.61981423179765 A118.78497975620202,118.78497975620202,0,0,1,604.7562476212341,444.0" stroke="grey" stroke-width="5" fill="none" />
<circle cx="556.7562476212341" cy="380.0" r="5" fill="black" stroke="none" />
<circle cx="604.7562476212341" cy="444.0" r="5" fill="black" stroke="none" />
<path d="M508.75624762123414,388.0 L506.2145857004041,420.5100599533804" stroke="grey" stroke-width="5" />
<circle cx="506.2145857004041" cy="420.5100599533804" r="2.5" fill="grey" stroke="none" />
<path d="M506.2145857004041,420.5100599533804 A79.73250055054618,79.73250055054618,0,0,1,556.7562476212341,444.0" stroke="grey" stroke-width="5" fill="none" />
<circle cx="508.75624762123414" cy="388.0" r="5" fill="black" stroke="none" />
<circle cx="556.7562476212341" cy="444.0" r="5" fill="black" stroke="none" />
<path d="M460.75624762123414,500.0 L508.75624762123414,500.0" stroke="grey" stroke-width="5" />
<circle cx="460.75624762123414" cy="500.0" r="5" fill="black" stroke="none" />
<circle cx="508.75624762123414" cy="500.0" r="5" fill="black" stroke="none" />
<path d="M460.75624762123414,548.0 A62.000581455062914,62.000581455062914,0,0,0,547.3404759590754,540.0368759612197" stroke="grey" stroke-width="5" fill="none" />
<path d="M547.3404759590754,540.0368759612197 L56.75624762123414,48.0" stroke="grey" stroke-width="5" />
<circle cx="547.3404759590754" cy="540.0368759612197" r="2.5" fill="grey" stroke="none" />
<circle cx="460.75624762123414" cy="548.0" r="5" fill="black" stroke="none" />
<circle cx="556.7562476212341" cy="548.0" r="5" fill="black" stroke="none" />
<path d="M460.75624762123414,604.0 A111.15787017015884,111.15787017015884,0,0,0,553.2491328272372,597.5735720055034" stroke="grey" stroke-width="5" fill="none" />
<path d="M553.2491328272372,597.5735720055034 L56.75624762123414,104.0" stroke="grey" stroke-width="5" />
<circle cx="553.2491328272372" cy="597.5735720055034" r="2.5" fill="grey" stroke="none" />
<circle cx="460.75624762123414" cy="604.0" r="5" fill="black" stroke="none" />
<circle cx="556.7562476212341" cy="604.0" r="5" fill="black" stroke="none" />
<path d="M604.7562476212341,444.0 L570.3159405193829,462.4109038028652" stroke="grey" stroke-width="5" />
<circle cx="570.3159405193829" cy="462.4109038028652" r="2.5" fill="grey" stroke="none" />
<path d="M570.3159405193829,462.4109038028652 A79.73250055054618,79.73250055054618,0,0,0,556.7562476212341,444.0" stroke="grey" stroke-width="5" fill="none" />
<circle cx="604.7562476212341" cy="444.0" r="5" fill="black" stroke="none" />
<circle cx="556.7562476212341" cy="444.0" r="5" fill="black" stroke="none" />
<path d="M556.7562476212341,444.0 L506.2329884901647,493.8500628551308" stroke="grey" stroke-width="5" />
<circle cx="506.2329884901647" cy="493.8500628551308" r="2.5" fill="grey" stroke="none" />
<path d="M506.2329884901647,493.8500628551308 A8.756247621234138,8.756247621234138,0,0,1,508.75624762123414,500.0" stroke="grey" stroke-width="5" fill="none" />
<circle cx="556.7562476212341" cy="444.0" r="5" fill="black" stroke="none" />
<circle cx="508.75624762123414" cy="500.0" r="5" fill="black" stroke="none" />
<path d="M508.75624762123414,500.0 A8.756247621234138,8.756247621234138,0,0,1,506.6858232661122,505.6543469701355" stroke="grey" stroke-width="5" fill="none" />
<path d="M506.6858232661122,505.6543469701355 L56.75624762123414,48.0" stroke="grey" stroke-width="5" />
<circle cx="506.6858232661122" cy="505.6543469701355" r="2.5" fill="grey" stroke="none" />
<circle cx="508.75624762123414" cy="500.0" r="5" fill="black" stroke="none" />
<circle cx="556.7562476212341" cy="548.0" r="5" fill="black" stroke="none" />
<path d="M556.7562476212341,548.0 A74.3321709897057,74.3321709897057,0,0,1,535.6081277943587,565.2482404285622" stroke="grey" stroke-width="5" fill="none" />
<path d="M535.6081277943587,565.2482404285622 L56.75624762123414,104.0" stroke="grey" stroke-width="5" />
<circle cx="535.6081277943587" cy="565.2482404285622" r="2.5" fill="grey" stroke="none" />
<circle cx="556.7562476212341" cy="548.0" r="5" fill="black" stroke="none" />
<circle cx="556.7562476212341" cy="604.0" r="5" fill="black" stroke="none" />
<path d="M556.7562476212341,604.0 A118.47899241655816,118.47899241655816,0,0,0,567.9277483537342,597.0726153332371" stroke="grey" stroke-width="5" fill="none" />
<path d="M567.9277483537342,597.0726153332371 L128.75624762123414,184.0" stroke="grey" stroke-width="5" />
<circle cx="567.9277483537342" cy="597.0726153332371" r="2.5" fill="grey" stroke="none" />
<circle cx="556.7562476212341" cy="604.0" r="5" fill="black" stroke="none" />
<circle cx="628.7562476212341" cy="684.0" r="5" fill="black" stroke="none" />
<path d="M604.7562476212341,444.0 L576.6062980383201,459.04824019988706" stroke="grey" stroke-width="5" />
<circle cx="576.6062980383201" cy="459.04824019988706" r="2.5" fill="grey" stroke="none" />
<path d="M576.6062980383201,459.04824019988706 A86.86524926495107,86.86524926495107,0,0,1,580.7562476212341,468.0" stroke="grey" stroke-width="5" fill="none" />
<circle cx="604.7562476212341" cy="444.0" r="5" fill="black" stroke="none" />
<circle cx="580.7562476212341" cy="468.0" r="5" fill="black" stroke="none" />
<path d="M580.7562476212341,468.0 L552.7647318776741,479.09175488186503" stroke="grey" stroke-width="5" />
<circle cx="552.7647318776741" cy="479.09175488186503" r="2.5" fill="grey" stroke="none" />
<path d="M552.7647318776741,479.09175488186503 A56.75624762123414,56.75624762123414,0,0,1,556.7562476212341,500.0" stroke="grey" stroke-width="5" fill="none" />
<circle cx="580.7562476212341" cy="468.0" r="5" fill="black" stroke="none" />
<circle cx="556.7562476212341" cy="500.0" r="5" fill="black" stroke="none" />
<path d="M556.7562476212341,500.0 A56.75624762123414,56.75624762123414,0,0,1,543.3361706129767,536.6503473468645" stroke="grey" stroke-width="5" fill="none" />
<path d="M543.3361706129767,536.6503473468645 L56.75624762123414,48.0" stroke="grey" stroke-width="5" />
<circle cx="543.3361706129767" cy="536.6503473468645" r="2.5" fill="grey" stroke="none" />
<circle cx="556.7562476212341" cy="500.0" r="5" fill="black" stroke="none" />
<circle cx="556.7562476212341" cy="548.0" r="5" fill="black" stroke="none" />
<path d="M556.7562476212341,444.0 A79.73250055054618,79.73250055054618,0,0,1,574.1251261281777,470.62760955379025" stroke="grey" stroke-width="5" fill="none" />
<path d="M574.1251261281777,470.62760955379025 L80.75624762123414,-32.0" stroke="grey" stroke-width="5" />
<circle cx="574.1251261281777" cy="470.62760955379025" r="2.5" fill="grey" stroke="none" />
<circle cx="556.7562476212341" cy="444.0" r="5" fill="black" stroke="none" />
<circle cx="580.7562476212341" cy="468.0" r="5" fill="black" stroke="none" />
<path d="M508.75624762123414,500.0 A8.756247621234138,8.756247621234138,0,0,1,508.75624762123414,500.0" stroke="grey" stroke-width="5" fill="none" />
<path d="M508.75624762123414,500.0 L56.75624762123414,0.0" stroke="grey" stroke-width="5" />
<circle cx="508.75624762123414" cy="500.0" r="2.5" fill="grey" stroke="none" />
<circle cx="508.75624762123414" cy="500.0" r="5" fill="black" stroke="none" />
<circle cx="556.7562476212341" cy="500.0" r="5" fill="black" stroke="none" />
<path d="M604.7562476212341,444.0 L592.3843354454783,450.61370655760186" stroke="grey" stroke-width="5" />
<circle cx="592.3843354454783" cy="450.61370655760186" r="2.5" fill="grey" stroke="none" />
<path d="M592.3843354454783,450.61370655760186 A104.75624762123414,104.75624762123414,0,0,1,604.7562476212341,500.0" stroke="grey" stroke-width="5" fill="none" />
<circle cx="604.7562476212341" cy="444.0" r="5" fill="black" stroke="none" />
<circle cx="604.7562476212341" cy="500.0" r="5" fill="black" stroke="none" />
<path d="M580.7562476212341,468.0 A86.86524926495107,86.86524926495107,0,0,1,586.8652492649511,500.0" stroke="grey" stroke-width="5" fill="none" />
<path d="M586.8652492649511,500.0 L104.75624762123414,0.0" stroke="grey" stroke-width="5" />
<circle cx="586.8652492649511" cy="500.0" r="2.5" fill="grey" stroke="none" />
<circle cx="580.7562476212341" cy="468.0" r="5" fill="black" stroke="none" />
<circle cx="604.7562476212341" cy="500.0" r="5" fill="black" stroke="none" />
<path d="M556.7562476212341,500.0 A56.75624762123414,56.75624762123414,0,0,1,556.7562476212341,500.0" stroke="grey" stroke-width="5" fill="none" />
<path d="M556.7562476212341,500.0 L104.75624762123414,0.0" stroke="grey" stroke-width="5" />
<circle cx="556.7562476212341" cy="500.0" r="2.5" fill="grey" stroke="none" />
<circle cx="556.7562476212341" cy="500.0" r="5" fill="black" stroke="none" />
<circle cx="604.7562476212341" cy="500.0" r="5" fill="black" stroke="none" />
<path d="M556.7562476212341,548.0 A74.3321709897057,74.3321709897057,0,0,0,574.3321709897057,500.0" stroke="grey" stroke-width="5" fill="none" />
<path d="M574.3321709897057,500.0 L104.75624762123414,0.0" stroke="grey" stroke-width="5" />
<circle cx="574.3321709897057" cy="500.0" r="2.5" fill="grey" stroke="none" />
<circle cx="556.7562476212341" cy="548.0" r="5" fill="black" stroke="none" />
<circle cx="604.7562476212341" cy="500.0" r="5" fill="black" stroke="none" />
<path d="M604.7562476212341,500.0 A104.75624762123414,104.75624762123414,0,0,1,586.3312031108462,559.3362855689093" stroke="grey" stroke-width="5" fill="none" />
<path d="M586.3312031108461,559.3362855689093 L104.75624762123414,72.0" stroke="grey" stroke-width="5" />
<circle cx="586.3312031108461" cy="559.3362855689093" r="2.5" fill="grey" stroke="none" />
<circle cx="604.7562476212341" cy="500.0" r="5" fill="black" stroke="none" />
<circle cx="604.7562476212341" cy="572.0" r="5" fill="black" stroke="none" />
<path d="M604.7562476212341,572.0 L597.6403239992435,567.1091556597578" stroke="grey" stroke-width="5" />
<circle cx="597.6403239992435" cy="567.1091556597578" r="2.5" fill="grey" stroke="none" />
<path d="M597.6403239992435,567.1091556597578 A118.47899241655816,118.47899241655816,0,0,1,556.7562476212341,604.0" stroke="grey" stroke-width="5" fill="none" />
<circle cx="604.7562476212341" cy="572.0" r="5" fill="black" stroke="none" />
<circle cx="556.7562476212341" cy="604.0" r="5" fill="black" stroke="none" />
<path d="M604.7562476212341,444.0 A118.78497975620202,118.78497975620202,0,0,0,594.2786452838556,427.74068600434776" stroke="grey" stroke-width="5" fill="none" />
<path d="M594.2786452838556,427.74068600434776 L208.75624762123414,-160.0" stroke="grey" stroke-width="5" />
<circle cx="594.2786452838556" cy="427.74068600434776" r="2.5" fill="grey" stroke="none" />
<circle cx="604.7562476212341" cy="444.0" r="5" fill="black" stroke="none" />
<circle cx="708.7562476212341" cy="340.0" r="5" fill="black" stroke="none" />
<path d="M604.7562476212341,444.0 A118.78497975620202,118.78497975620202,0,0,1,617.6780377428761,483.82128408471345" stroke="grey" stroke-width="5" fill="none" />
<path d="M617.6780377428761,483.82128408471345 L232.75624762123414,-32.0" stroke="grey" stroke-width="5" />
<circle cx="617.6780377428761" cy="483.82128408471345" r="2.5" fill="grey" stroke="none" />
<circle cx="604.7562476212341" cy="444.0" r="5" fill="black" stroke="none" />
<circle cx="732.7562476212341" cy="468.0" r="5" fill="black" stroke="none" />
<path d="M732.7562476212341,468.0 A234.94567628862052,234.94567628862052,0,0,1,733.7851365991511,476.6766059066543" stroke="grey" stroke-width="5" fill="none" />
<path d="M733.7851365991511,476.6766059066543 L320.75624762123414,-32.0" stroke="grey" stroke-width="5" />
<circle cx="733.7851365991511" cy="476.6766059066543" r="2.5" fill="grey" stroke="none" />
<circle cx="732.7562476212341" cy="468.0" r="5" fill="black" stroke="none" />
<circle cx="820.7562476212341" cy="468.0" r="5" fill="black" stroke="none" />
<path d="M604.7562476212341,500.0 A104.75624762123414,104.75624762123414,0,0,1,589.1811286897442,554.9599645315079" stroke="grey" stroke-width="5" fill="none" />
<path d="M589.1811286897442,554.9599645315079 L168.75624762123414,104.0" stroke="grey" stroke-width="5" />
<circle cx="589.1811286897442" cy="554.9599645315079" r="2.5" fill="grey" stroke="none" />
<circle cx="604.7562476212341" cy="500.0" r="5" fill="black" stroke="none" />
<circle cx="668.7562476212341" cy="604.0" r="5" fill="black" stroke="none" />
<circle cx="500" cy="500" r="5" fill="red" stroke="none" />
</svg>