<?xml version="1.0" encoding="UTF-8"?>
<svg xmlns="http://www.w3.org/2000/svg" xmlns:xlink="http://www.w3.org/1999/xlink"
     width="1000" height="1000" viewBox="0 0 1000 1000">
<defs>
</defs>
<rect x="0" y="0" width="1000" height="1000" fill="white" />
<path d="M361.45985443346274,727.2603396552537 L422.7434680357081,626.7311047133237" stroke="grey" stroke-width="5" />
<circle cx="422.7434680357081" cy="626.7311047133237" r="2.5" fill="grey" stroke="none" />
<path d="M422.7434680357081,626.7311047133237 A148.42285751530682,148.42285751530682,0,0,0,481.45985443346274,647.2603396552537" stroke="grey" stroke-width="5" fill="none" />
<circle cx="361.45985443346274" cy="727.2603396552537" r="5" fill="black" stroke="none" />
<circle cx="481.45985443346274" cy="647.2603396552537" r="5" fill="black" stroke="none" />
<path d="M481.45985443346274,647.2603396552537 L488.3674036638391,592.3951800371675" stroke="grey" stroke-width="5" />
<circle cx="488.3674036638391" cy="592.3951800371675" r="2.5" fill="grey" stroke="none" />
<path d="M488.3674036638392,592.3951800371675 A93.12457565874142,93.12457565874142,0,0,1,481.45985443346274,591.2603396552537" stroke="grey" stroke-width="5" fill="none" />
<circle cx="481.45985443346274" cy="647.2603396552537" r="5" fill="black" stroke="none" />
<circle cx="481.45985443346274" cy="591.2603396552537" r="5" fill="black" stroke="none" />
<path d="M481.45985443346274,591.2603396552537 A93.12457565874142,93.12457565874142,0,0,1,425.3121311363387,555.6229164663737" stroke="grey" stroke-width="5" fill="none" />
<path d="M425.3121311363387,555.6229164663737 L-122.54014556653729,91.26033965525366" stroke="grey" stroke-width="5" />
<circle cx="425.3121311363387" cy="555.6229164663737" r="2.5" fill="grey" stroke="none" />
<circle cx="481.45985443346274" cy="591.2603396552537" r="5" fill="black" stroke="none" />
<circle cx="377.45985443346274" cy="591.2603396552537" r="5" fill="black" stroke="none" />
<path d="M377.45985443346274,591.2603396552537 L433.01719943472176,549.8846570026981" stroke="grey" stroke-width="5" />
<circle cx="433.01719943472176" cy="549.8846570026981" r="2.5" fill="grey" stroke="none" />
<path d="M433.01719943472176,549.8846570026981 A83.51751059415426,83.51751059415426,0,0,1,417.4598544334627,487.2603396552537" stroke="grey" stroke-width="5" fill="none" />
<circle cx="377.45985443346274" cy="591.2603396552537" r="5" fill="black" stroke="none" />
<circle cx="417.45985443346274" cy="487.2603396552537" r="5" fill="black" stroke="none" />
<path d="M417.4598544334627,487.2603396552537 A83.51751059415426,83.51751059415426,0,0,1,523.4416962630702,419.8397763716029" stroke="grey" stroke-width="5" fill="none" />
<path d="M523.4416962630702,419.8397763716029 L29.45985443346271,-100.73966034474634" stroke="grey" stroke-width="5" />
<circle cx="523.4416962630702" cy="419.8397763716029" r="2.5" fill="grey" stroke="none" />
<circle cx="417.45985443346274" cy="487.2603396552537" r="5" fill="black" stroke="none" />
<circle cx="529.4598544334627" cy="399.2603396552537" r="5" fill="black" stroke="none" />
<path d="M529.4598544334627,399.2603396552537 A104.95885950988449,104.95885950988449,0,0,1,574.5629416499204,426.130317977358" stroke="grey" stroke-width="5" fill="none" />
<path d="M574.5629416499204,426.130317977358 L77.45985443346271,-76.73966034474634" stroke="grey" stroke-width="5" />
<circle cx="574.5629416499204" cy="426.130317977358" r="2.5" fill="grey" stroke="none" />
<circle cx="529.4598544334627" cy="399.2603396552537" r="5" fill="black" stroke="none" />
<circle cx="577.4598544334627" cy="423.2603396552537" r="5" fill="black" stroke="none" />
<path d="M577.4598544334627,423.2603396552537 L553.1284650899554,447.3655044221255" stroke="grey" stroke-width="5" />
<circle cx="553.1284650899554" cy="447.3655044221255" r="2.5" fill="grey" stroke="none" />
<path d="M553.1284650899554,447.3655044221255 A74.78652236567699,74.78652236567699,0,0,0,529.4598544334627,431.2603396552537" stroke="grey" stroke-width="5" fill="none" />
<circle cx="577.4598544334627" cy="423.2603396552537" r="5" fill="black" stroke="none" />
<circle cx="529.4598544334627" cy="431.2603396552537" r="5" fill="black" stroke="none" />
<path d="M529.4598544334627,399.2603396552537 L520.9910823418414,428.21979110040195" stroke="grey" stroke-width="5" />
<circle cx="520.9910823418414" cy="428.21979110040195" r="2.5" fill="grey" stroke="none" />
<path d="M520.9910823418414,428.21979110040195 A74.78652236567699,74.78652236567699,0,0,1,529.4598544334627,431.2603396552537" stroke="grey" stroke-width="5" fill="none" />
<circle cx="529.4598544334627" cy="399.2603396552537" r="5" fill="black" stroke="none" />
<circle cx="529.4598544334627" cy="431.2603396552537" r="5" fill="black" stroke="none" />
<path d="M529.4598544334627,431.2603396552537 L481.45985443346274,543.2603396552537" stroke="grey" stroke-width="5" />
<circle cx="529.4598544334627" cy="431.2603396552537" r="5" fill="black" stroke="none" />
<circle cx="481.45985443346274" cy="543.2603396552537" r="5" fill="black" stroke="none" />
<path d="M417.45985443346274,487.2603396552537 L453.4849415165702,492.82063240950777" stroke="grey" stroke-width="5" />
<circle cx="453.4849415165702" cy="492.82063240950777" r="2.5" fill="grey" stroke="none" />
<path d="M453.4849415165702,492.8206324095078 A47.065847328145544,47.065847328145544,0,0,0,481.45985443346274,543.2603396552537" stroke="grey" stroke-width="5" fill="none" />
<circle cx="417.45985443346274" cy="487.2603396552537" r="5" fill="black" stroke="none" />
<circle cx="481.45985443346274" cy="543.2603396552537" r="5" fill="black" stroke="none" />
<path d="M481.45985443346274,543.2603396552537 A47.065847328145544,47.065847328145544,0,0,0,490.62967369780085,546.1236487033129" stroke="grey" stroke-width="5" fill="none" />
<path d="M490.62967369780085,546.1236487033129 L-18.54014556653729,91.26033965525366" stroke="grey" stroke-width="5" />
<circle cx="490.62967369780085" cy="546.1236487033129" r="2.5" fill="grey" stroke="none" />
<circle cx="481.45985443346274" cy="543.2603396552537" r="5" fill="black" stroke="none" />
<circle cx="481.45985443346274" cy="591.2603396552537" r="5" fill="black" stroke="none" />
<path d="M577.4598544334627,423.2603396552537 A109.03671179323167,109.03671179323167,0,0,0,577.3373270479691,423.13685952450464" stroke="grey" stroke-width="5" fill="none" />
<path d="M577.3373270479691,423.13685952450464 L117.45985443346271,-116.73966034474634" stroke="grey" stroke-width="5" />
<circle cx="577.3373270479691" cy="423.13685952450464" r="2.5" fill="grey" stroke="none" />
<circle cx="577.4598544334627" cy="423.2603396552537" r="5" fill="black" stroke="none" />
<circle cx="617.4598544334627" cy="383.2603396552537" r="5" fill="black" stroke="none" />
<path d="M577.4598544334627,423.2603396552537 A109.03671179323167,109.03671179323167,0,0,1,608.4788763429043,488.98465134182607" stroke="grey" stroke-width="5" fill="none" />
<path d="M608.4788763429043,488.98465134182607 L125.45985443346271,-12.73966034474634" stroke="grey" stroke-width="5" />
<circle cx="608.4788763429043" cy="488.98465134182607" r="2.5" fill="grey" stroke="none" />
<circle cx="577.4598544334627" cy="423.2603396552537" r="5" fill="black" stroke="none" />
<circle cx="625.4598544334627" cy="487.2603396552537" r="5" fill="black" stroke="none" />
<path d="M529.4598544334627,431.2603396552537 A74.78652236567699,74.78652236567699,0,0,1,573.7951143460605,487.8630717970418" stroke="grey" stroke-width="5" fill="none" />
<path d="M573.7951143460605,487.8630717970418 L77.45985443346271,-12.73966034474634" stroke="grey" stroke-width="5" />
<circle cx="573.7951143460605" cy="487.8630717970418" r="2.5" fill="grey" stroke="none" />
<circle cx="529.4598544334627" cy="431.2603396552537" r="5" fill="black" stroke="none" />
<circle cx="577.4598544334627" cy="487.2603396552537" r="5" fill="black" stroke="none" />
<path d="M481.45985443346274,543.2603396552537 A47.065847328145544,47.065847328145544,0,0,0,526.4919244535488,538.90208122278" stroke="grey" stroke-width="5" fill="none" />
<path d="M526.4919244535488,538.90208122278 L29.45985443346271,43.26033965525366" stroke="grey" stroke-width="5" />
<circle cx="526.4919244535488" cy="538.90208122278" r="2.5" fill="grey" stroke="none" />
<circle cx="481.45985443346274" cy="543.2603396552537" r="5" fill="black" stroke="none" />
<circle cx="529.4598544334627" cy="543.2603396552537" r="5" fill="black" stroke="none" />
<path d="M481.45985443346274,591.2603396552537 A93.12457565874142,93.12457565874142,0,0,0,560.2616394853721,570.9980379880719" stroke="grey" stroke-width="5" fill="none" />
<path d="M560.2616394853721,570.9980379880719 L77.45985443346271,91.26033965525366" stroke="grey" stroke-width="5" />
<circle cx="560.2616394853721" cy="570.9980379880719" r="2.5" fill="grey" stroke="none" />
<circle cx="481.45985443346274" cy="591.2603396552537" r="5" fill="black" stroke="none" />
<circle cx="577.4598544334627" cy="591.2603396552537" r="5" fill="black" stroke="none" />
<path d="M481.45985443346274,647.2603396552537 A148.42285751530682,148.42285751530682,0,0,0,569.0955705625547,631.3588472910908" stroke="grey" stroke-width="5" fill="none" />
<path d="M569.0955705625547,631.3588472910908 L77.45985443346271,147.26033965525366" stroke="grey" stroke-width="5" />
<circle cx="569.0955705625547" cy="631.3588472910908" r="2.5" fill="grey" stroke="none" />
<circle cx="481.45985443346274" cy="647.2603396552537" r="5" fill="black" stroke="none" />
<circle cx="577.4598544334627" cy="647.2603396552537" r="5" fill="black" stroke="none" />
<path d="M625.4598544334627,487.2603396552537 L578.098885622084,492.0695486167951" stroke="grey" stroke-width="5" />
<circle cx="578.098885622084" cy="492.0695486167951" r="2.5" fill="grey" stroke="none" />
<path d="M578.098885622084,492.0695486167951 A78.50049677901876,78.50049677901876,0,0,0,577.4598544334627,487.2603396552537" stroke="grey" stroke-width="5" fill="none" />
<circle cx="625.4598544334627" cy="487.2603396552537" r="5" fill="black" stroke="none" />
<circle cx="577.4598544334627" cy="487.2603396552537" r="5" fill="black" stroke="none" />
<path d="M577.4598544334627,487.2603396552537 L551.644876327282,491.5060751434646" stroke="grey" stroke-width="5" />
<circle cx="551.644876327282" cy="491.5060751434646" r="2.5" fill="grey" stroke="none" />
<path d="M551.644876327282,491.5060751434646 A52.338704706256586,52.338704706256586,0,0,1,529.4598544334627,543.2603396552537" stroke="grey" stroke-width="5" fill="none" />
<circle cx="577.4598544334627" cy="487.2603396552537" r="5" fill="black" stroke="none" />
<circle cx="529.4598544334627" cy="543.2603396552537" r="5" fill="black" stroke="none" />
<path d="M529.4598544334627,543.2603396552537 A52.338704706256586,52.338704706256586,0,0,0,533.8687841724809,539.902950630331" stroke="grey" stroke-width="5" fill="none" />
<path d="M533.8687841724809,539.902950630331 L77.45985443346271,91.26033965525366" stroke="grey" stroke-width="5" />
<circle cx="533.8687841724809" cy="539.902950630331" r="2.5" fill="grey" stroke="none" />
<circle cx="529.4598544334627" cy="543.2603396552537" r="5" fill="black" stroke="none" />
<circle cx="577.4598544334627" cy="591.2603396552537" r="5" fill="black" stroke="none" />
<path d="M577.4598544334627,591.2603396552537 A119.70162339269045,119.70162339269045,0,0,1,555.7249207031944,605.9396613901904" stroke="grey" stroke-width="5" fill="none" />
<path d="M555.7249207031944,605.9396613901904 L77.45985443346271,147.26033965525366" stroke="grey" stroke-width="5" />
<circle cx="555.7249207031944" cy="605.9396613901904" r="2.5" fill="grey" stroke="none" />
<circle cx="577.4598544334627" cy="591.2603396552537" r="5" fill="black" stroke="none" />
<circle cx="577.4598544334627" cy="647.2603396552537" r="5" fill="black" stroke="none" />
<path d="M577.4598544334627,647.2603396552537 A166.3900137755686,166.3900137755686,0,0,0,591.4278435608009,639.0200924544924" stroke="grey" stroke-width="5" fill="none" />
<path d="M591.4278435608007,639.0200924544924 L149.4598544334627,227.26033965525366" stroke="grey" stroke-width="5" />
<circle cx="591.4278435608007" cy="639.0200924544924" r="2.5" fill="grey" stroke="none" />
<circle cx="577.4598544334627" cy="647.2603396552537" r="5" fill="black" stroke="none" />
<circle cx="649.4598544334627" cy="727.2603396552537" r="5" fill="black" stroke="none" />
<path d="M625.4598544334627,487.2603396552537 L601.5605373636204,489.687165218826" stroke="grey" stroke-width="5" />
<circle cx="601.5605373636204" cy="489.687165218826" r="2.5" fill="grey" stroke="none" />
<path d="M601.5605373636204,489.687165218826 A102.08279635085984,102.08279635085984,0,0,1,601.4598544334627,511.2603396552537" stroke="grey" stroke-width="5" fill="none" />
<circle cx="625.4598544334627" cy="487.2603396552537" r="5" fill="black" stroke="none" />
<circle cx="601.4598544334627" cy="511.2603396552537" r="5" fill="black" stroke="none" />
<path d="M601.4598544334627,511.2603396552537 L588.1799892221247,509.7864976741998" stroke="grey" stroke-width="5" />
<circle cx="588.1799892221247" cy="509.7864976741998" r="2.5" fill="grey" stroke="none" />
<path d="M588.1799892221247,509.7864976741998 A88.72139559283964,88.72139559283964,0,0,1,577.4598544334627,543.2603396552537" stroke="grey" stroke-width="5" fill="none" />
<circle cx="601.4598544334627" cy="511.2603396552537" r="5" fill="black" stroke="none" />
<circle cx="577.4598544334627" cy="543.2603396552537" r="5" fill="black" stroke="none" />
<path d="M577.4598544334627,543.2603396552537 A88.72139559283964,88.72139559283964,0,0,1,557.4123073102338,567.6410600542039" stroke="grey" stroke-width="5" fill="none" />
<path d="M557.4123073102338,567.6410600542039 L77.45985443346271,91.26033965525366" stroke="grey" stroke-width="5" />
<circle cx="557.4123073102338" cy="567.6410600542039" r="2.5" fill="grey" stroke="none" />
<circle cx="577.4598544334627" cy="543.2603396552537" r="5" fill="black" stroke="none" />
<circle cx="577.4598544334627" cy="591.2603396552537" r="5" fill="black" stroke="none" />
<path d="M577.4598544334627,487.2603396552537 A78.50049677901876,78.50049677901876,0,0,1,578.0214616063138,508.65907173819744" stroke="grey" stroke-width="5" fill="none" />
<path d="M578.0214616063138,508.65907173819744 L101.45985443346271,11.26033965525366" stroke="grey" stroke-width="5" />
<circle cx="578.0214616063138" cy="508.65907173819744" r="2.5" fill="grey" stroke="none" />
<circle cx="577.4598544334627" cy="487.2603396552537" r="5" fill="black" stroke="none" />
<circle cx="601.4598544334627" cy="511.2603396552537" r="5" fill="black" stroke="none" />
<path d="M529.4598544334627,543.2603396552537 A52.338704706256586,52.338704706256586,0,0,0,545.6952736224747,525.5202268582373" stroke="grey" stroke-width="5" fill="none" />
<path d="M545.6952736224747,525.5202268582373 L77.45985443346271,43.26033965525366" stroke="grey" stroke-width="5" />
<circle cx="545.6952736224747" cy="525.5202268582373" r="2.5" fill="grey" stroke="none" />
<circle cx="529.4598544334627" cy="543.2603396552537" r="5" fill="black" stroke="none" />
<circle cx="577.4598544334627" cy="543.2603396552537" r="5" fill="black" stroke="none" />
<path d="M625.4598544334627,487.2603396552537 A126.10501187567905,126.10501187567905,0,0,1,619.2167627903208,541.1076329890393" stroke="grey" stroke-width="5" fill="none" />
<path d="M619.2167627903208,541.1076329890393 L125.45985443346271,43.26033965525366" stroke="grey" stroke-width="5" />
<circle cx="619.2167627903208" cy="541.1076329890393" r="2.5" fill="grey" stroke="none" />
<circle cx="625.4598544334627" cy="487.2603396552537" r="5" fill="black" stroke="none" />
<circle cx="625.4598544334627" cy="543.2603396552537" r="5" fill="black" stroke="none" />
<path d="M601.4598544334627,511.2603396552537 A102.08279635085984,102.08279635085984,0,0,1,596.5067156056484,533.2768861797738" stroke="grey" stroke-width="5" fill="none" />
<path d="M596.5067156056484,533.2768861797738 L125.45985443346271,43.26033965525366" stroke="grey" stroke-width="5" />
<circle cx="596.5067156056484" cy="533.2768861797738" r="2.5" fill="grey" stroke="none" />
<circle cx="601.4598544334627" cy="511.2603396552537" r="5" fill="black" stroke="none" />
<circle cx="625.4598544334627" cy="543.2603396552537" r="5" fill="black" stroke="none" />
<path d="M577.4598544334627,543.2603396552537 A88.72139559283964,88.72139559283964,0,0,0,583.8751562328483,528.9213451080069" stroke="grey" stroke-width="5" fill="none" />
<path d="M583.8751562328483,528.9213451080069 L125.45985443346271,43.26033965525366" stroke="grey" stroke-width="5" />
<circle cx="583.8751562328483" cy="528.9213451080069" r="2.5" fill="grey" stroke="none" />
<circle cx="577.4598544334627" cy="543.2603396552537" r="5" fill="black" stroke="none" />
<circle cx="625.4598544334627" cy="543.2603396552537" r="5" fill="black" stroke="none" />
<path d="M577.4598544334627,591.2603396552537 A119.70162339269045,119.70162339269045,0,0,0,613.1631473592123,539.0202604117745" stroke="grey" stroke-width="5" fill="none" />
<path d="M613.1631473592123,539.0202604117745 L125.45985443346271,43.26033965525366" stroke="grey" stroke-width="5" />
<circle cx="613.1631473592123" cy="539.0202604117745" r="2.5" fill="grey" stroke="none" />
<circle cx="577.4598544334627" cy="591.2603396552537" r="5" fill="black" stroke="none" />
<circle cx="625.4598544334627" cy="543.2603396552537" r="5" fill="black" stroke="none" />
<path d="M625.4598544334627,543.2603396552537 A132.70882435450014,132.70882435450014,0,0,1,597.7276739074616,589.7827033130012" stroke="grey" stroke-width="5" fill="none" />
<path d="M597.7276739074616,589.7827033130012 L125.45985443346271,115.26033965525366" stroke="grey" stroke-width="5" />
<circle cx="597.7276739074616" cy="589.7827033130012" r="2.5" fill="grey" stroke="none" />
<circle cx="625.4598544334627" cy="543.2603396552537" r="5" fill="black" stroke="none" />
<circle cx="625.4598544334627" cy="615.2603396552537" r="5" fill="black" stroke="none" />
<path d="M625.4598544334627,615.2603396552537 L622.5307291117256,612.5693435513543" stroke="grey" stroke-width="5" />
<circle cx="622.5307291117256" cy="612.5693435513543" r="2.5" fill="grey" stroke="none" />
<path d="M622.5307291117256,612.5693435513543 A166.3900137755686,166.3900137755686,0,0,1,577.4598544334627,647.2603396552537" stroke="grey" stroke-width="5" fill="none" />
<circle cx="625.4598544334627" cy="615.2603396552537" r="5" fill="black" stroke="none" />
<circle cx="577.4598544334627" cy="647.2603396552537" r="5" fill="black" stroke="none" />
<path d="M625.4598544334627,487.2603396552537 A126.10501187567905,126.10501187567905,0,0,0,612.3952349203041,442.8179644698197" stroke="grey" stroke-width="5" fill="none" />
<path d="M612.3952349203041,442.8179644698197 L229.4598544334627,-116.73966034474634" stroke="grey" stroke-width="5" />
<circle cx="612.3952349203041" cy="442.8179644698197" r="2.5" fill="grey" stroke="none" />
<circle cx="625.4598544334627" cy="487.2603396552537" r="5" fill="black" stroke="none" />
<circle cx="729.4598544334627" cy="383.2603396552537" r="5" fill="black" stroke="none" />
<path d="M625.4598544334627,487.2603396552537 A126.10501187567905,126.10501187567905,0,0,1,625.9807480639267,505.596886403938" stroke="grey" stroke-width="5" fill="none" />
<path d="M625.9807480639267,505.596886403938 L253.4598544334627,11.26033965525366" stroke="grey" stroke-width="5" />
<circle cx="625.9807480639267" cy="505.596886403938" r="2.5" fill="grey" stroke="none" />
<circle cx="625.4598544334627" cy="487.2603396552537" r="5" fill="black" stroke="none" />
<circle cx="753.4598544334627" cy="511.2603396552537" r="5" fill="black" stroke="none" />
<path d="M753.4598544334626,511.2603396552537 A253.70985999480544,253.70985999480544,0,0,0,753.5720194473673,508.36205787876105" stroke="grey" stroke-width="5" fill="none" />
<path d="M753.5720194473673,508.36205787876105 L341.45985443346274,11.26033965525366" stroke="grey" stroke-width="5" />
<circle cx="753.5720194473673" cy="508.36205787876105" r="2.5" fill="grey" stroke="none" />
<circle cx="753.4598544334627" cy="511.2603396552537" r="5" fill="black" stroke="none" />
<circle cx="841.4598544334627" cy="511.2603396552537" r="5" fill="black" stroke="none" />
<path d="M625.4598544334627,543.2603396552537 A132.70882435450014,132.70882435450014,0,0,1,604.7800839136057,581.4417956371991" stroke="grey" stroke-width="5" fill="none" />
<path d="M604.7800839136057,581.4417956371991 L189.4598544334627,147.26033965525366" stroke="grey" stroke-width="5" />
<circle cx="604.7800839136057" cy="581.4417956371991" r="2.5" fill="grey" stroke="none" />
<circle cx="625.4598544334627" cy="543.2603396552537" r="5" fill="black" stroke="none" />
<circle cx="689.4598544334627" cy="647.2603396552537" r="5" fill="black" stroke="none" />
<circle cx="500" cy="500" r="5" fill="red" stroke="none" />
</svg>