<?xml version="1.0" encoding="UTF-8"?>
<svg xmlns="http://www.w3.org/2000/svg" xmlns:xlink="http://www.w3.org/1999/xlink"
     width="1000" height="1000" viewBox="0 0 1000 1000">
<defs>
</defs>
<rect x="0" y="0" width="1000" height="1000" fill="white" />
<path d="M360.4884539484,729.5269407870667 L421.6769663766344,628.858483828174" stroke="grey" stroke-width="5" />
<circle cx="421.6769663766344" cy="628.858483828174" r="2.5" fill="grey" stroke="none" />
<path d="M421.6769663766344,628.858483828174 A150.7945836244215,150.7945836244215,0,0,0,480.4884539484,649.5269407870667" stroke="grey" stroke-width="5" fill="none" />
<circle cx="360.4884539484" cy="729.5269407870667" r="5" fill="black" stroke="none" />
<circle cx="480.4884539484" cy="649.5269407870667" r="5" fill="black" stroke="none" />
<path d="M480.4884539484,649.5269407870667 L487.6378645768047,594.7373563600429" stroke="grey" stroke-width="5" />
<circle cx="487.6378645768047" cy="594.7373563600429" r="2.5" fill="grey" stroke="none" />
<path d="M487.6378645768047,594.7373563600429 A95.54051016354886,95.54051016354886,0,0,1,480.4884539484,593.5269407870667" stroke="grey" stroke-width="5" fill="none" />
<circle cx="480.4884539484" cy="649.5269407870667" r="5" fill="black" stroke="none" />
<circle cx="480.4884539484" cy="593.5269407870667" r="5" fill="black" stroke="none" />
<path d="M480.4884539484,593.5269407870667 A95.54051016354886,95.54051016354886,0,0,1,423.83282221954784,557.6762525765344" stroke="grey" stroke-width="5" fill="none" />
<path d="M423.83282221954784,557.6762525765344 L-123.51154605160002,93.52694078706668" stroke="grey" stroke-width="5" />
<circle cx="423.83282221954784" cy="557.6762525765344" r="2.5" fill="grey" stroke="none" />
<circle cx="480.4884539484" cy="593.5269407870667" r="5" fill="black" stroke="none" />
<circle cx="376.4884539484" cy="593.5269407870667" r="5" fill="black" stroke="none" />
<path d="M376.4884539484,593.5269407870667 L432.90110105037775,550.8094583021164" stroke="grey" stroke-width="5" />
<circle cx="432.90110105037775" cy="550.8094583021164" r="2.5" fill="grey" stroke="none" />
<path d="M432.90110105037775,550.8094583021164 A84.1656895249253,84.1656895249253,0,0,1,416.4884539484,489.5269407870667" stroke="grey" stroke-width="5" fill="none" />
<circle cx="376.4884539484" cy="593.5269407870667" r="5" fill="black" stroke="none" />
<circle cx="416.4884539484" cy="489.5269407870667" r="5" fill="black" stroke="none" />
<path d="M416.4884539484,489.5269407870667 A84.1656895249253,84.1656895249253,0,0,1,523.3901426750124,419.1497401435921" stroke="grey" stroke-width="5" fill="none" />
<path d="M523.3901426750124,419.1497401435921 L28.48845394839998,-98.47305921293332" stroke="grey" stroke-width="5" />
<circle cx="523.3901426750124" cy="419.1497401435921" r="2.5" fill="grey" stroke="none" />
<circle cx="416.4884539484" cy="489.5269407870667" r="5" fill="black" stroke="none" />
<circle cx="528.4884539484" cy="401.5269407870667" r="5" fill="black" stroke="none" />
<path d="M528.4884539484,401.5269407870667 A102.51114768221053,102.51114768221053,0,0,1,573.4475031666559,428.48776553827975" stroke="grey" stroke-width="5" fill="none" />
<path d="M573.4475031666559,428.48776553827975 L76.48845394839998,-74.47305921293332" stroke="grey" stroke-width="5" />
<circle cx="573.4475031666559" cy="428.48776553827975" r="2.5" fill="grey" stroke="none" />
<circle cx="528.4884539484" cy="401.5269407870667" r="5" fill="black" stroke="none" />
<circle cx="576.4884539484" cy="425.5269407870667" r="5" fill="black" stroke="none" />
<path d="M576.4884539484,425.5269407870667 L551.8164390466983,449.54887261897863" stroke="grey" stroke-width="5" />
<circle cx="551.8164390466983" cy="449.54887261897863" r="2.5" fill="grey" stroke="none" />
<path d="M551.8164390466983,449.54887261897863 A72.32053380262238,72.32053380262238,0,0,0,528.4884539484,433.5269407870667" stroke="grey" stroke-width="5" fill="none" />
<circle cx="576.4884539484" cy="425.5269407870667" r="5" fill="black" stroke="none" />
<circle cx="528.4884539484" cy="433.5269407870667" r="5" fill="black" stroke="none" />
<path d="M528.4884539484,401.5269407870667 L520.0983038756599,430.52829503446833" stroke="grey" stroke-width="5" />
<circle cx="520.0983038756599" cy="430.52829503446833" r="2.5" fill="grey" stroke="none" />
<path d="M520.0983038756599,430.52829503446833 A72.32053380262238,72.32053380262238,0,0,1,528.4884539484,433.5269407870667" stroke="grey" stroke-width="5" fill="none" />
<circle cx="528.4884539484" cy="401.5269407870667" r="5" fill="black" stroke="none" />
<circle cx="528.4884539484" cy="433.5269407870667" r="5" fill="black" stroke="none" />
<path d="M528.4884539484,433.5269407870667 L480.4884539484,545.5269407870667" stroke="grey" stroke-width="5" />
<circle cx="528.4884539484" cy="433.5269407870667" r="5" fill="black" stroke="none" />
<circle cx="480.4884539484" cy="545.5269407870667" r="5" fill="black" stroke="none" />
<path d="M416.4884539484,489.5269407870667 L450.85313008903404,493.83656388794617" stroke="grey" stroke-width="5" />
<circle cx="450.85313008903404" cy="493.83656388794617" r="2.5" fill="grey" stroke="none" />
<path d="M450.85313008903404,493.83656388794617 A49.53183589120015,49.53183589120015,0,0,0,480.4884539484,545.5269407870667" stroke="grey" stroke-width="5" fill="none" />
<circle cx="416.4884539484" cy="489.5269407870667" r="5" fill="black" stroke="none" />
<circle cx="480.4884539484" cy="545.5269407870667" r="5" fill="black" stroke="none" />
<path d="M480.4884539484,545.5269407870667 A49.53183589120015,49.53183589120015,0,0,0,489.88447209087474,548.4879249078829" stroke="grey" stroke-width="5" fill="none" />
<path d="M489.88447209087474,548.4879249078829 L-19.51154605160002,93.52694078706668" stroke="grey" stroke-width="5" />
<circle cx="489.88447209087474" cy="548.4879249078829" r="2.5" fill="grey" stroke="none" />
<circle cx="480.4884539484" cy="545.5269407870667" r="5" fill="black" stroke="none" />
<circle cx="480.4884539484" cy="593.5269407870667" r="5" fill="black" stroke="none" />
<path d="M576.4884539484,425.5269407870667 A106.7554220447354,106.7554220447354,0,0,0,576.1432957547767,425.17407770331073" stroke="grey" stroke-width="5" fill="none" />
<path d="M576.1432957547767,425.17407770331073 L116.48845394839998,-114.47305921293332" stroke="grey" stroke-width="5" />
<circle cx="576.1432957547767" cy="425.17407770331073" r="2.5" fill="grey" stroke="none" />
<circle cx="576.4884539484" cy="425.5269407870667" r="5" fill="black" stroke="none" />
<circle cx="616.4884539484" cy="385.5269407870667" r="5" fill="black" stroke="none" />
<path d="M576.4884539484,425.5269407870667 A106.7554220447354,106.7554220447354,0,0,1,606.3796270213214,491.05041393392304" stroke="grey" stroke-width="5" fill="none" />
<path d="M606.3796270213214,491.05041393392304 L124.48845394839998,-10.473059212933322" stroke="grey" stroke-width="5" />
<circle cx="606.3796270213214" cy="491.05041393392304" r="2.5" fill="grey" stroke="none" />
<circle cx="576.4884539484" cy="425.5269407870667" r="5" fill="black" stroke="none" />
<circle cx="624.4884539484" cy="489.5269407870667" r="5" fill="black" stroke="none" />
<path d="M528.4884539484,433.5269407870667 A72.32053380262238,72.32053380262238,0,0,1,571.6519863857391,490.18916637211186" stroke="grey" stroke-width="5" fill="none" />
<path d="M571.6519863857391,490.18916637211186 L76.48845394839998,-10.473059212933322" stroke="grey" stroke-width="5" />
<circle cx="571.6519863857391" cy="490.18916637211186" r="2.5" fill="grey" stroke="none" />
<circle cx="528.4884539484" cy="433.5269407870667" r="5" fill="black" stroke="none" />
<circle cx="576.4884539484" cy="489.5269407870667" r="5" fill="black" stroke="none" />
<path d="M480.4884539484,545.5269407870667 A49.53183589120015,49.53183589120015,0,0,0,526.2744429376825,541.9887653434494" stroke="grey" stroke-width="5" fill="none" />
<path d="M526.2744429376825,541.9887653434494 L28.48845394839998,45.52694078706668" stroke="grey" stroke-width="5" />
<circle cx="526.2744429376825" cy="541.9887653434494" r="2.5" fill="grey" stroke="none" />
<circle cx="480.4884539484" cy="545.5269407870667" r="5" fill="black" stroke="none" />
<circle cx="528.4884539484" cy="545.5269407870667" r="5" fill="black" stroke="none" />
<path d="M480.4884539484,593.5269407870667 A95.54051016354886,95.54051016354886,0,0,0,560.4839501769089,573.9572907380224" stroke="grey" stroke-width="5" fill="none" />
<path d="M560.4839501769089,573.9572907380224 L76.48845394839998,93.52694078706668" stroke="grey" stroke-width="5" />
<circle cx="560.4839501769089" cy="573.9572907380224" r="2.5" fill="grey" stroke="none" />
<circle cx="480.4884539484" cy="593.5269407870667" r="5" fill="black" stroke="none" />
<circle cx="576.4884539484" cy="593.5269407870667" r="5" fill="black" stroke="none" />
<path d="M480.4884539484,649.5269407870667 A150.7945836244215,150.7945836244215,0,0,0,568.6735343329103,634.249588947934" stroke="grey" stroke-width="5" fill="none" />
<path d="M568.6735343329103,634.249588947934 L76.48845394839998,149.52694078706668" stroke="grey" stroke-width="5" />
<circle cx="568.6735343329103" cy="634.249588947934" r="2.5" fill="grey" stroke="none" />
<circle cx="480.4884539484" cy="649.5269407870667" r="5" fill="black" stroke="none" />
<circle cx="576.4884539484" cy="649.5269407870667" r="5" fill="black" stroke="none" />
<path d="M624.4884539484,489.5269407870667 L576.9303649125058,493.52794382573666" stroke="grey" stroke-width="5" />
<circle cx="576.9303649125058" cy="493.52794382573666" r="2.5" fill="grey" stroke="none" />
<path d="M576.9303649125058,493.52794382573666 A77.20212792853648,77.20212792853648,0,0,0,576.4884539484,489.5269407870667" stroke="grey" stroke-width="5" fill="none" />
<circle cx="624.4884539484" cy="489.5269407870667" r="5" fill="black" stroke="none" />
<circle cx="576.4884539484" cy="489.5269407870667" r="5" fill="black" stroke="none" />
<path d="M576.4884539484,489.5269407870667 L553.2091597667677,492.71442090745194" stroke="grey" stroke-width="5" />
<circle cx="553.2091597667677" cy="492.71442090745194" r="2.5" fill="grey" stroke="none" />
<path d="M553.2091597667677,492.71442090745194 A53.70562676106836,53.70562676106836,0,0,1,528.4884539484,545.5269407870667" stroke="grey" stroke-width="5" fill="none" />
<circle cx="576.4884539484" cy="489.5269407870667" r="5" fill="black" stroke="none" />
<circle cx="528.4884539484" cy="545.5269407870667" r="5" fill="black" stroke="none" />
<path d="M528.4884539484,545.5269407870667 A53.70562676106836,53.70562676106836,0,0,0,533.9994882555635,541.57317818208" stroke="grey" stroke-width="5" fill="none" />
<path d="M533.9994882555635,541.57317818208 L76.48845394839998,93.52694078706668" stroke="grey" stroke-width="5" />
<circle cx="533.9994882555635" cy="541.57317818208" r="2.5" fill="grey" stroke="none" />
<circle cx="528.4884539484" cy="545.5269407870667" r="5" fill="black" stroke="none" />
<circle cx="576.4884539484" cy="593.5269407870667" r="5" fill="black" stroke="none" />
<path d="M576.4884539484,593.5269407870667 A120.82124084946314,120.82124084946314,0,0,1,555.0233399117704,607.5648841646648" stroke="grey" stroke-width="5" fill="none" />
<path d="M555.0233399117704,607.5648841646648 L76.48845394839998,149.52694078706668" stroke="grey" stroke-width="5" />
<circle cx="555.0233399117704" cy="607.5648841646648" r="2.5" fill="grey" stroke="none" />
<circle cx="576.4884539484" cy="593.5269407870667" r="5" fill="black" stroke="none" />
<circle cx="576.4884539484" cy="649.5269407870667" r="5" fill="black" stroke="none" />
<path d="M576.4884539484,649.5269407870667 A167.95472487713897,167.95472487713897,0,0,0,591.229069060016,641.017894492147" stroke="grey" stroke-width="5" fill="none" />
<path d="M591.229069060016,641.017894492147 L148.48845394839998,229.52694078706668" stroke="grey" stroke-width="5" />
<circle cx="591.229069060016" cy="641.017894492147" r="2.5" fill="grey" stroke="none" />
<circle cx="576.4884539484" cy="649.5269407870667" r="5" fill="black" stroke="none" />
<circle cx="648.4884539484" cy="729.5269407870667" r="5" fill="black" stroke="none" />
<path d="M624.4884539484,489.5269407870667 L601.0378851758059,491.4998080493924" stroke="grey" stroke-width="5" />
<circle cx="601.0378851758059" cy="491.4998080493924" r="2.5" fill="grey" stroke="none" />
<path d="M601.0378851758059,491.4998080493924 A101.39481004467886,101.39481004467886,0,0,1,600.4884539484,513.5269407870667" stroke="grey" stroke-width="5" fill="none" />
<circle cx="624.4884539484" cy="489.5269407870667" r="5" fill="black" stroke="none" />
<circle cx="600.4884539484" cy="513.5269407870667" r="5" fill="black" stroke="none" />
<path d="M600.4884539484,513.5269407870667 L588.2166094936483,511.8750046017139" stroke="grey" stroke-width="5" />
<circle cx="588.2166094936483" cy="511.8750046017139" r="2.5" fill="grey" stroke="none" />
<path d="M588.2166094936483,511.8750046017139 A89.01227962952966,89.01227962952966,0,0,1,576.4884539484,545.5269407870667" stroke="grey" stroke-width="5" fill="none" />
<circle cx="600.4884539484" cy="513.5269407870667" r="5" fill="black" stroke="none" />
<circle cx="576.4884539484" cy="545.5269407870667" r="5" fill="black" stroke="none" />
<path d="M576.4884539484,545.5269407870667 A89.01227962952966,89.01227962952966,0,0,1,556.3511151136769,568.903829721509" stroke="grey" stroke-width="5" fill="none" />
<path d="M556.3511151136769,568.903829721509 L76.48845394839998,93.52694078706668" stroke="grey" stroke-width="5" />
<circle cx="556.3511151136769" cy="568.903829721509" r="2.5" fill="grey" stroke="none" />
<circle cx="576.4884539484" cy="545.5269407870667" r="5" fill="black" stroke="none" />
<circle cx="576.4884539484" cy="593.5269407870667" r="5" fill="black" stroke="none" />
<path d="M576.4884539484,489.5269407870667 A77.20212792853648,77.20212792853648,0,0,1,576.5120273280926,510.29942866567524" stroke="grey" stroke-width="5" fill="none" />
<path d="M576.5120273280926,510.29942866567524 L100.48845394839998,13.526940787066678" stroke="grey" stroke-width="5" />
<circle cx="576.5120273280926" cy="510.29942866567524" r="2.5" fill="grey" stroke="none" />
<circle cx="576.4884539484" cy="489.5269407870667" r="5" fill="black" stroke="none" />
<circle cx="600.4884539484" cy="513.5269407870667" r="5" fill="black" stroke="none" />
<path d="M528.4884539484,545.5269407870667 A53.70562676106836,53.70562676106836,0,0,0,546.1493669904974,527.4687144252434" stroke="grey" stroke-width="5" fill="none" />
<path d="M546.1493669904974,527.4687144252434 L76.48845394839998,45.52694078706668" stroke="grey" stroke-width="5" />
<circle cx="546.1493669904974" cy="527.4687144252434" r="2.5" fill="grey" stroke="none" />
<circle cx="528.4884539484" cy="545.5269407870667" r="5" fill="black" stroke="none" />
<circle cx="576.4884539484" cy="545.5269407870667" r="5" fill="black" stroke="none" />
<path d="M624.4884539484,489.5269407870667 A124.92821993345022,124.92821993345022,0,0,1,617.3283023021783,542.9083862971935" stroke="grey" stroke-width="5" fill="none" />
<path d="M617.3283023021783,542.9083862971935 L124.48845394839998,45.52694078706668" stroke="grey" stroke-width="5" />
<circle cx="617.3283023021783" cy="542.9083862971935" r="2.5" fill="grey" stroke="none" />
<circle cx="624.4884539484" cy="489.5269407870667" r="5" fill="black" stroke="none" />
<circle cx="624.4884539484" cy="545.5269407870667" r="5" fill="black" stroke="none" />
<path d="M600.4884539484,513.5269407870667 A101.39481004467886,101.39481004467886,0,0,1,595.2265303318284,534.8254996368736" stroke="grey" stroke-width="5" fill="none" />
<path d="M595.2265303318284,534.8254996368736 L124.48845394839998,45.52694078706668" stroke="grey" stroke-width="5" />
<circle cx="595.2265303318284" cy="534.8254996368736" r="2.5" fill="grey" stroke="none" />
<circle cx="600.4884539484" cy="513.5269407870667" r="5" fill="black" stroke="none" />
<circle cx="624.4884539484" cy="545.5269407870667" r="5" fill="black" stroke="none" />
<path d="M576.4884539484,545.5269407870667 A89.01227962952966,89.01227962952966,0,0,0,583.5972821716571,530.5725422292278" stroke="grey" stroke-width="5" fill="none" />
<path d="M583.5972821716571,530.5725422292278 L124.48845394839998,45.52694078706668" stroke="grey" stroke-width="5" />
<circle cx="583.5972821716571" cy="530.5725422292278" r="2.5" fill="grey" stroke="none" />
<circle cx="576.4884539484" cy="545.5269407870667" r="5" fill="black" stroke="none" />
<circle cx="624.4884539484" cy="545.5269407870667" r="5" fill="black" stroke="none" />
<path d="M576.4884539484,593.5269407870667 A120.82124084946314,120.82124084946314,0,0,0,613.4711683113837,541.4977855126463" stroke="grey" stroke-width="5" fill="none" />
<path d="M613.4711683113837,541.4977855126463 L124.48845394839998,45.52694078706668" stroke="grey" stroke-width="5" />
<circle cx="613.4711683113837" cy="541.4977855126463" r="2.5" fill="grey" stroke="none" />
<circle cx="576.4884539484" cy="593.5269407870667" r="5" fill="black" stroke="none" />
<circle cx="624.4884539484" cy="545.5269407870667" r="5" fill="black" stroke="none" />
<path d="M624.4884539484,545.5269407870667 A132.55216898976786,132.55216898976786,0,0,1,596.3847491698568,590.9948220029896" stroke="grey" stroke-width="5" fill="none" />
<path d="M596.3847491698568,590.9948220029896 L124.48845394839998,117.52694078706668" stroke="grey" stroke-width="5" />
<circle cx="596.3847491698568" cy="590.9948220029896" r="2.5" fill="grey" stroke="none" />
<circle cx="624.4884539484" cy="545.5269407870667" r="5" fill="black" stroke="none" />
<circle cx="624.4884539484" cy="617.5269407870667" r="5" fill="black" stroke="none" />
<path d="M624.4884539484,617.5269407870667 L622.1275679798568,615.2980778152042" stroke="grey" stroke-width="5" />
<circle cx="622.1275679798568" cy="615.2980778152042" r="2.5" fill="grey" stroke="none" />
<path d="M622.1275679798568,615.2980778152042 A167.95472487713897,167.95472487713897,0,0,1,576.4884539484,649.5269407870667" stroke="grey" stroke-width="5" fill="none" />
<circle cx="624.4884539484" cy="617.5269407870667" r="5" fill="black" stroke="none" />
<circle cx="576.4884539484" cy="649.5269407870667" r="5" fill="black" stroke="none" />
<path d="M624.4884539484,489.5269407870667 A124.92821993345022,124.92821993345022,0,0,0,611.6944160074303,444.04092952434235" stroke="grey" stroke-width="5" fill="none" />
<path d="M611.6944160074303,444.04092952434235 L228.48845394839998,-114.47305921293332" stroke="grey" stroke-width="5" />
<circle cx="611.6944160074303" cy="444.04092952434235" r="2.5" fill="grey" stroke="none" />
<circle cx="624.4884539484" cy="489.5269407870667" r="5" fill="black" stroke="none" />
<circle cx="728.4884539484" cy="385.5269407870667" r="5" fill="black" stroke="none" />
<path d="M624.4884539484,489.5269407870667 A124.92821993345022,124.92821993345022,0,0,1,624.749318828431,506.68338144826197" stroke="grey" stroke-width="5" fill="none" />
<path d="M624.749318828431,506.68338144826197 L252.48845394839998,13.526940787066678" stroke="grey" stroke-width="5" />
<circle cx="624.749318828431" cy="506.68338144826197" r="2.5" fill="grey" stroke="none" />
<circle cx="624.4884539484" cy="489.5269407870667" r="5" fill="black" stroke="none" />
<circle cx="752.4884539484" cy="513.5269407870667" r="5" fill="black" stroke="none" />
<path d="M752.4884539484,513.5269407870667 A252.85054380861058,252.85054380861058,0,0,0,752.6512404690513,510.03733997429975" stroke="grey" stroke-width="5" fill="none" />
<path d="M752.6512404690513,510.03733997429975 L340.4884539484,13.526940787066678" stroke="grey" stroke-width="5" />
<circle cx="752.6512404690513" cy="510.03733997429975" r="2.5" fill="grey" stroke="none" />
<circle cx="752.4884539484" cy="513.5269407870667" r="5" fill="black" stroke="none" />
<circle cx="840.4884539484" cy="513.5269407870667" r="5" fill="black" stroke="none" />
<path d="M624.4884539484,545.5269407870667 A132.55216898976786,132.55216898976786,0,0,1,603.8446335394656,582.3794245485248" stroke="grey" stroke-width="5" fill="none" />
<path d="M603.8446335394656,582.3794245485248 L188.48845394839998,149.52694078706668" stroke="grey" stroke-width="5" />
<circle cx="603.8446335394656" cy="582.3794245485248" r="2.5" fill="grey" stroke="none" />
<circle cx="624.4884539484" cy="545.5269407870667" r="5" fill="black" stroke="none" />
<circle cx="688.4884539484" cy="649.5269407870667" r="5" fill="black" stroke="none" />
<circle cx="500" cy="500" r="5" fill="red" stroke="none" />
</svg>