<?xml version="1.0" encoding="UTF-8"?>
<svg xmlns="http://www.w3.org/2000/svg" xmlns:xlink="http://www.w3.org/1999/xlink"
     width="1000" height="1000" viewBox="0 0 1000 1000">
<defs>
</defs>
<rect x="0" y="0" width="1000" height="1000" fill="white" />
<path d="M244.0,844.0 L322.7048885020065,738.2403060754289" stroke="grey" stroke-width="5" />
<circle cx="322.7048885020065" cy="738.2403060754289" r="2.5" fill="grey" stroke="none" />
<path d="M322.7048885020065,738.2403060754289 A296.97137909232936,296.97137909232936,0,0,0,363.99999999999994,764.0" stroke="grey" stroke-width="5" fill="none" />
<circle cx="244.0" cy="844.0" r="5" fill="black" stroke="none" />
<circle cx="364.0" cy="764.0" r="5" fill="black" stroke="none" />
<path d="M364.0,764.0 L386.1906465157917,720.9240391164043" stroke="grey" stroke-width="5" />
<circle cx="386.1906465157917" cy="720.9240391164043" r="2.5" fill="grey" stroke="none" />
<path d="M386.1906465157917,720.9240391164043 A248.51559307214507,248.51559307214507,0,0,1,363.9999999999999,707.9999999999999" stroke="grey" stroke-width="5" fill="none" />
<circle cx="364.0" cy="764.0" r="5" fill="black" stroke="none" />
<circle cx="364.0" cy="708.0" r="5" fill="black" stroke="none" />
<path d="M363.9999999999999,707.9999999999999 A248.51559307214507,248.51559307214507,0,0,1,312.1994794123432,662.7604511759693" stroke="grey" stroke-width="5" fill="none" />
<path d="M312.1994794123432,662.7604511759693 L260.0,708.0" stroke="grey" stroke-width="5" />
<circle cx="312.1994794123432" cy="662.7604511759693" r="2.5" fill="grey" stroke="none" />
<circle cx="364.0" cy="708.0" r="5" fill="black" stroke="none" />
<circle cx="260.0" cy="708.0" r="5" fill="black" stroke="none" />
<path d="M260.0,708.0 L329.6495103027246,647.637091070972" stroke="grey" stroke-width="5" />
<circle cx="329.6495103027246" cy="647.637091070972" r="2.5" fill="grey" stroke="none" />
<path d="M329.6495103027246,647.637091070972 A225.42404485768594,225.42404485768594,0,0,1,300.0,604.0" stroke="grey" stroke-width="5" fill="none" />
<circle cx="260.0" cy="708.0" r="5" fill="black" stroke="none" />
<circle cx="300.0" cy="604.0" r="5" fill="black" stroke="none" />
<path d="M300.0,604.0 L420.64491686638104,541.2646432294819" stroke="grey" stroke-width="5" />
<circle cx="420.64491686638104" cy="541.2646432294819" r="2.5" fill="grey" stroke="none" />
<path d="M420.64491686638104,541.2646432294819 A89.44271909999159,89.44271909999159,0,0,1,412.0,516.0" stroke="grey" stroke-width="5" fill="none" />
<circle cx="300.0" cy="604.0" r="5" fill="black" stroke="none" />
<circle cx="412.0" cy="516.0" r="5" fill="black" stroke="none" />
<path d="M412.0,516.0 L444.34391318103656,510.1192885125388" stroke="grey" stroke-width="5" />
<circle cx="444.34391318103656" cy="510.1192885125388" r="2.5" fill="grey" stroke="none" />
<path d="M444.34391318103656,510.1192885125388 A56.568542494923804,56.568542494923804,0,0,0,460.0,540.0" stroke="grey" stroke-width="5" fill="none" />
<circle cx="412.0" cy="516.0" r="5" fill="black" stroke="none" />
<circle cx="460.0" cy="540.0" r="5" fill="black" stroke="none" />
<path d="M460.0,540.0 A56.568542494923804,56.568542494923804,0,0,1,450.33872697748717,527.0879671031888" stroke="grey" stroke-width="5" fill="none" />
<path d="M450.33872697748717,527.0879671031888 L412.0,548.0" stroke="grey" stroke-width="5" />
<circle cx="450.33872697748717" cy="527.0879671031888" r="2.5" fill="grey" stroke="none" />
<circle cx="460.0" cy="540.0" r="5" fill="black" stroke="none" />
<circle cx="412.0" cy="548.0" r="5" fill="black" stroke="none" />
<path d="M412.0,516.0 A89.44271909999159,89.44271909999159,0,0,0,421.4786328726925,542.8298366148949" stroke="grey" stroke-width="5" fill="none" />
<path d="M421.4786328726925,542.8298366148949 L412.0,548.0" stroke="grey" stroke-width="5" />
<circle cx="421.4786328726925" cy="542.8298366148949" r="2.5" fill="grey" stroke="none" />
<circle cx="412.0" cy="516.0" r="5" fill="black" stroke="none" />
<circle cx="412.0" cy="548.0" r="5" fill="black" stroke="none" />
<path d="M412.0,548.0 A100.23971268913334,100.23971268913334,0,0,0,435.0799084460519,576.3765782987625" stroke="grey" stroke-width="5" fill="none" />
<path d="M435.0799084460519,576.3765782987625 L364.0,660.0" stroke="grey" stroke-width="5" />
<circle cx="435.0799084460519" cy="576.3765782987625" r="2.5" fill="grey" stroke="none" />
<circle cx="412.0" cy="548.0" r="5" fill="black" stroke="none" />
<circle cx="364.0" cy="660.0" r="5" fill="black" stroke="none" />
<path d="M300.0,604.0 L313.69292161616784,596.8796807595928" stroke="grey" stroke-width="5" />
<circle cx="313.69292161616784" cy="596.8796807595928" r="2.5" fill="grey" stroke="none" />
<path d="M313.69292161616784,596.8796807595928 A209.990475974507,209.990475974507,0,0,0,364.0,660.0" stroke="grey" stroke-width="5" fill="none" />
<circle cx="300.0" cy="604.0" r="5" fill="black" stroke="none" />
<circle cx="364.0" cy="660.0" r="5" fill="black" stroke="none" />
<path d="M364.0,660.0 A209.990475974507,209.990475974507,0,0,0,385.08284579051633,675.7556476145041" stroke="grey" stroke-width="5" fill="none" />
<path d="M385.08284579051644,675.7556476145043 L364.0,708.0" stroke="grey" stroke-width="5" />
<circle cx="385.08284579051644" cy="675.7556476145043" r="2.5" fill="grey" stroke="none" />
<circle cx="364.0" cy="660.0" r="5" fill="black" stroke="none" />
<circle cx="364.0" cy="708.0" r="5" fill="black" stroke="none" />
<path d="M460.0,540.0 L500.0,500.0" stroke="grey" stroke-width="5" />
<circle cx="500.0" cy="500.0" r="2.5" fill="grey" stroke="none" />
<path d="M500.0,500.0 A0.0,0.0,0,0,0,500.0,500.0" stroke="grey" stroke-width="5" fill="none" />
<circle cx="460.0" cy="540.0" r="5" fill="black" stroke="none" />
<circle cx="500.0" cy="500.0" r="5" fill="black" stroke="none" />
<path d="M460.0,540.0 A56.568542494923804,56.568542494923804,0,0,0,504.33860915637314,556.4019190328506" stroke="grey" stroke-width="5" fill="none" />
<path d="M504.33860915637314,556.4019190328506 L508.0,604.0" stroke="grey" stroke-width="5" />
<circle cx="504.33860915637314" cy="556.4019190328506" r="2.5" fill="grey" stroke="none" />
<circle cx="460.0" cy="540.0" r="5" fill="black" stroke="none" />
<circle cx="508.0" cy="604.0" r="5" fill="black" stroke="none" />
<path d="M412.0,548.0 A100.23971268913334,100.23971268913334,0,0,0,464.01604022866934,593.5582954054597" stroke="grey" stroke-width="5" fill="none" />
<path d="M464.01604022866934,593.5582954054597 L460.0,604.0" stroke="grey" stroke-width="5" />
<circle cx="464.01604022866934" cy="593.5582954054597" r="2.5" fill="grey" stroke="none" />
<circle cx="412.0" cy="548.0" r="5" fill="black" stroke="none" />
<circle cx="460.0" cy="604.0" r="5" fill="black" stroke="none" />
<path d="M364.0,660.0 L381.7371994856954,639.1327064874172" stroke="grey" stroke-width="5" />
<circle cx="381.7371994856954" cy="639.1327064874172" r="2.5" fill="grey" stroke="none" />
<path d="M381.7371994856954,639.1327064874172 A182.60339536821323,182.60339536821323,0,0,0,412.0,660.0" stroke="grey" stroke-width="5" fill="none" />
<circle cx="364.0" cy="660.0" r="5" fill="black" stroke="none" />
<circle cx="412.0" cy="660.0" r="5" fill="black" stroke="none" />
<path d="M364.0,708.0 L384.0864356335071,677.2795690311067" stroke="grey" stroke-width="5" />
<circle cx="384.0864356335071" cy="677.2795690311067" r="2.5" fill="grey" stroke="none" />
<path d="M384.08643563350705,677.2795690311066 A211.81123671797963,211.81123671797963,0,0,0,460.00000000000006,708.0" stroke="grey" stroke-width="5" fill="none" />
<circle cx="364.0" cy="708.0" r="5" fill="black" stroke="none" />
<circle cx="460.0" cy="708.0" r="5" fill="black" stroke="none" />
<path d="M364.0,764.0 L377.71958752804846,737.3678595043764" stroke="grey" stroke-width="5" />
<circle cx="377.71958752804846" cy="737.3678595043764" r="2.5" fill="grey" stroke="none" />
<path d="M377.71958752804846,737.3678595043764 A267.0131082924582,267.0131082924582,0,0,0,459.99999999999994,764.0" stroke="grey" stroke-width="5" fill="none" />
<circle cx="364.0" cy="764.0" r="5" fill="black" stroke="none" />
<circle cx="460.0" cy="764.0" r="5" fill="black" stroke="none" />
<path d="M508.0,604.0 A104.30723848324239,104.30723848324239,0,0,1,462.555883564035,597.3547027335089" stroke="grey" stroke-width="5" fill="none" />
<path d="M462.555883564035,597.3547027335089 L460.0,604.0" stroke="grey" stroke-width="5" />
<circle cx="462.555883564035" cy="597.3547027335089" r="2.5" fill="grey" stroke="none" />
<circle cx="508.0" cy="604.0" r="5" fill="black" stroke="none" />
<circle cx="460.0" cy="604.0" r="5" fill="black" stroke="none" />
<path d="M460.0,604.0 A111.42710621747295,111.42710621747295,0,0,1,446.30118828094623,597.6342031255523" stroke="grey" stroke-width="5" fill="none" />
<path d="M446.30118828094623,597.6342031255523 L412.0,660.0" stroke="grey" stroke-width="5" />
<circle cx="446.30118828094623" cy="597.6342031255523" r="2.5" fill="grey" stroke="none" />
<circle cx="460.0" cy="604.0" r="5" fill="black" stroke="none" />
<circle cx="412.0" cy="660.0" r="5" fill="black" stroke="none" />
<path d="M412.0,660.0 A182.60339536821323,182.60339536821323,0,0,0,465.51582471304977,679.3177114921415" stroke="grey" stroke-width="5" fill="none" />
<path d="M465.5158247130497,679.3177114921415 L460.0,708.0" stroke="grey" stroke-width="5" />
<circle cx="465.5158247130497" cy="679.3177114921415" r="2.5" fill="grey" stroke="none" />
<circle cx="412.0" cy="660.0" r="5" fill="black" stroke="none" />
<circle cx="460.0" cy="708.0" r="5" fill="black" stroke="none" />
<path d="M460.00000000000006,708.0 A211.81123671797963,211.81123671797963,0,0,0,468.2695373163501,709.4210537120887" stroke="grey" stroke-width="5" fill="none" />
<path d="M468.2695373163502,709.4210537120887 L460.0,764.0" stroke="grey" stroke-width="5" />
<circle cx="468.2695373163502" cy="709.4210537120887" r="2.5" fill="grey" stroke="none" />
<circle cx="460.0" cy="708.0" r="5" fill="black" stroke="none" />
<circle cx="460.0" cy="764.0" r="5" fill="black" stroke="none" />
<path d="M459.99999999999994,764.0 A267.0131082924582,267.0131082924582,0,0,0,524.7316536383843,765.8652766126313" stroke="grey" stroke-width="5" fill="none" />
<path d="M524.7316536383843,765.8652766126313 L532.0,844.0" stroke="grey" stroke-width="5" />
<circle cx="524.7316536383843" cy="765.8652766126313" r="2.5" fill="grey" stroke="none" />
<circle cx="460.0" cy="764.0" r="5" fill="black" stroke="none" />
<circle cx="532.0" cy="844.0" r="5" fill="black" stroke="none" />
<path d="M508.0,604.0 A104.30723848324239,104.30723848324239,0,0,1,487.0622793589977,603.501765128018" stroke="grey" stroke-width="5" fill="none" />
<path d="M487.0622793589978,603.501765128018 L484.0,628.0" stroke="grey" stroke-width="5" />
<circle cx="487.0622793589978" cy="603.501765128018" r="2.5" fill="grey" stroke="none" />
<circle cx="508.0" cy="604.0" r="5" fill="black" stroke="none" />
<circle cx="484.0" cy="628.0" r="5" fill="black" stroke="none" />
<path d="M484.0,628.0 A128.9961239727768,128.9961239727768,0,0,1,468.71384444499824,625.1446222200068" stroke="grey" stroke-width="5" fill="none" />
<path d="M468.7138444449983,625.1446222200068 L460.0,660.0" stroke="grey" stroke-width="5" />
<circle cx="468.7138444449983" cy="625.1446222200068" r="2.5" fill="grey" stroke="none" />
<circle cx="484.0" cy="628.0" r="5" fill="black" stroke="none" />
<circle cx="460.0" cy="660.0" r="5" fill="black" stroke="none" />
<path d="M459.99999999999994,660.0 A164.92422502470643,164.92422502470643,0,0,0,468.8544899543176,661.9566522375487" stroke="grey" stroke-width="5" fill="none" />
<path d="M468.85448995431756,661.9566522375487 L460.0,708.0" stroke="grey" stroke-width="5" />
<circle cx="468.85448995431756" cy="661.9566522375487" r="2.5" fill="grey" stroke="none" />
<circle cx="460.0" cy="660.0" r="5" fill="black" stroke="none" />
<circle cx="460.0" cy="708.0" r="5" fill="black" stroke="none" />
<path d="M460.0,604.0 A111.42710621747295,111.42710621747295,0,0,0,486.1791684542722,610.5666523658224" stroke="grey" stroke-width="5" fill="none" />
<path d="M486.1791684542722,610.5666523658224 L484.0,628.0" stroke="grey" stroke-width="5" />
<circle cx="486.1791684542722" cy="610.5666523658224" r="2.5" fill="grey" stroke="none" />
<circle cx="460.0" cy="604.0" r="5" fill="black" stroke="none" />
<circle cx="484.0" cy="628.0" r="5" fill="black" stroke="none" />
<path d="M412.0,660.0 L420.5199236689518,644.509229692815" stroke="grey" stroke-width="5" />
<circle cx="420.5199236689518" cy="644.509229692815" r="2.5" fill="grey" stroke="none" />
<path d="M420.5199236689518,644.509229692815 A164.92422502470643,164.92422502470643,0,0,0,459.99999999999994,660.0" stroke="grey" stroke-width="5" fill="none" />
<circle cx="412.0" cy="660.0" r="5" fill="black" stroke="none" />
<circle cx="460.0" cy="660.0" r="5" fill="black" stroke="none" />
<path d="M508.0,604.0 A104.30723848324239,104.30723848324239,0,0,1,505.2088549198514,604.1770983970275" stroke="grey" stroke-width="5" fill="none" />
<path d="M505.2088549198514,604.1770983970275 L508.0,660.0" stroke="grey" stroke-width="5" />
<circle cx="505.2088549198514" cy="604.1770983970275" r="2.5" fill="grey" stroke="none" />
<circle cx="508.0" cy="604.0" r="5" fill="black" stroke="none" />
<circle cx="508.0" cy="660.0" r="5" fill="black" stroke="none" />
<path d="M484.0,628.0 A128.9961239727768,128.9961239727768,0,0,0,506.44175902619935,628.8351805239872" stroke="grey" stroke-width="5" fill="none" />
<path d="M506.44175902619935,628.8351805239872 L508.0,660.0" stroke="grey" stroke-width="5" />
<circle cx="506.44175902619935" cy="628.8351805239872" r="2.5" fill="grey" stroke="none" />
<circle cx="484.0" cy="628.0" r="5" fill="black" stroke="none" />
<circle cx="508.0" cy="660.0" r="5" fill="black" stroke="none" />
<path d="M460.0,660.0 L461.1458231482955,655.416707406818" stroke="grey" stroke-width="5" />
<circle cx="461.1458231482955" cy="655.416707406818" r="2.5" fill="grey" stroke="none" />
<path d="M461.14582314829545,655.416707406818 A160.1998751560063,160.1998751560063,0,0,0,508.0,660.0" stroke="grey" stroke-width="5" fill="none" />
<circle cx="460.0" cy="660.0" r="5" fill="black" stroke="none" />
<circle cx="508.0" cy="660.0" r="5" fill="black" stroke="none" />
<path d="M460.0,708.0 L469.74667111371286,657.317310208693" stroke="grey" stroke-width="5" />
<circle cx="469.74667111371286" cy="657.317310208693" r="2.5" fill="grey" stroke="none" />
<path d="M469.7466711137129,657.317310208693 A160.1998751560063,160.1998751560063,0,0,0,508.0,660.0" stroke="grey" stroke-width="5" fill="none" />
<circle cx="460.0" cy="708.0" r="5" fill="black" stroke="none" />
<circle cx="508.0" cy="660.0" r="5" fill="black" stroke="none" />
<path d="M508.0,660.0 A160.1998751560063,160.1998751560063,0,0,1,505.5208522871244,660.1047163266085" stroke="grey" stroke-width="5" fill="none" />
<path d="M505.52085228712446,660.1047163266085 L508.0,732.0" stroke="grey" stroke-width="5" />
<circle cx="505.52085228712446" cy="660.1047163266085" r="2.5" fill="grey" stroke="none" />
<circle cx="508.0" cy="660.0" r="5" fill="black" stroke="none" />
<circle cx="508.0" cy="732.0" r="5" fill="black" stroke="none" />
<path d="M507.99999999999994,732.0 A232.13789005675054,232.13789005675054,0,0,1,465.2244953004342,729.5183310171335" stroke="grey" stroke-width="5" fill="none" />
<path d="M465.2244953004343,729.5183310171335 L460.0,764.0" stroke="grey" stroke-width="5" />
<circle cx="465.2244953004343" cy="729.5183310171335" r="2.5" fill="grey" stroke="none" />
<circle cx="508.0" cy="732.0" r="5" fill="black" stroke="none" />
<circle cx="460.0" cy="764.0" r="5" fill="black" stroke="none" />
<path d="M508.0,604.0 A104.30723848324239,104.30723848324239,0,0,0,604.3072384832424,500.0" stroke="grey" stroke-width="5" fill="none" />
<path d="M604.3072384832424,500.0 L612.0,500.0" stroke="grey" stroke-width="5" />
<circle cx="604.3072384832424" cy="500.0" r="2.5" fill="grey" stroke="none" />
<circle cx="508.0" cy="604.0" r="5" fill="black" stroke="none" />
<circle cx="612.0" cy="500.0" r="5" fill="black" stroke="none" />
<path d="M508.0,604.0 A104.30723848324239,104.30723848324239,0,0,0,575.9565303013036,571.4884991071092" stroke="grey" stroke-width="5" fill="none" />
<path d="M575.9565303013036,571.4884991071092 L636.0,628.0" stroke="grey" stroke-width="5" />
<circle cx="575.9565303013036" cy="571.4884991071092" r="2.5" fill="grey" stroke="none" />
<circle cx="508.0" cy="604.0" r="5" fill="black" stroke="none" />
<circle cx="636.0" cy="628.0" r="5" fill="black" stroke="none" />
<path d="M636.0,628.0 A186.76188047886004,186.76188047886004,0,0,0,662.1547219360382,592.6598411063075" stroke="grey" stroke-width="5" fill="none" />
<path d="M662.1547219360382,592.6598411063075 L724.0,628.0" stroke="grey" stroke-width="5" />
<circle cx="662.1547219360382" cy="592.6598411063075" r="2.5" fill="grey" stroke="none" />
<circle cx="636.0" cy="628.0" r="5" fill="black" stroke="none" />
<circle cx="724.0" cy="628.0" r="5" fill="black" stroke="none" />
<path d="M508.0,660.0 A160.1998751560063,160.1998751560063,0,0,0,542.1513755592681,654.5550437173163" stroke="grey" stroke-width="5" fill="none" />
<path d="M542.1513755592681,654.5550437173163 L572.0,764.0" stroke="grey" stroke-width="5" />
<circle cx="542.1513755592681" cy="654.5550437173163" r="2.5" fill="grey" stroke="none" />
<circle cx="508.0" cy="660.0" r="5" fill="black" stroke="none" />
<circle cx="572.0" cy="764.0" r="5" fill="black" stroke="none" />
<circle cx="500" cy="500" r="5" fill="red" stroke="none" />
</svg>