<?xml version="1.0" encoding="UTF-8"?>
<svg xmlns="http://www.w3.org/2000/svg" xmlns:xlink="http://www.w3.org/1999/xlink"
     width="1000" height="1000" viewBox="0 0 1000 1000">
<defs>
</defs>
<rect x="0" y="0" width="1000" height="1000" fill="white" />
<path d="M368.25965782890177,711.3941317325625 L430.22896759969586,611.9564938976037" stroke="grey" stroke-width="5" />
<circle cx="430.22896759969586" cy="611.9564938976037" r="2.5" fill="grey" stroke="none" />
<path d="M430.22896759969586,611.9564938976037 A131.9176011305863,131.9176011305863,0,0,0,488.25965782890177,631.3941317325625" stroke="grey" stroke-width="5" fill="none" />
<circle cx="368.25965782890177" cy="711.3941317325625" r="5" fill="black" stroke="none" />
<circle cx="488.25965782890177" cy="631.3941317325625" r="5" fill="black" stroke="none" />
<path d="M488.25965782890177,631.3941317325625 L493.20924221838857,575.9999759391603" stroke="grey" stroke-width="5" />
<circle cx="493.20924221838857" cy="575.9999759391603" r="2.5" fill="grey" stroke="none" />
<path d="M493.20924221838857,575.9999759391603 A76.302757053736,76.302757053736,0,0,1,488.25965782890177,575.3941317325625" stroke="grey" stroke-width="5" fill="none" />
<circle cx="488.25965782890177" cy="631.3941317325625" r="5" fill="black" stroke="none" />
<circle cx="488.25965782890177" cy="575.3941317325625" r="5" fill="black" stroke="none" />
<path d="M488.25965782890177,575.3941317325625 A76.302757053736,76.302757053736,0,0,1,436.0655920798469,541.647355473078" stroke="grey" stroke-width="5" fill="none" />
<path d="M436.0655920798469,541.647355473078 L384.25965782890177,575.3941317325625" stroke="grey" stroke-width="5" />
<circle cx="436.0655920798469" cy="541.647355473078" r="2.5" fill="grey" stroke="none" />
<circle cx="488.25965782890177" cy="575.3941317325625" r="5" fill="black" stroke="none" />
<circle cx="384.25965782890177" cy="575.3941317325625" r="5" fill="black" stroke="none" />
<path d="M384.25965782890177,575.3941317325625 L432.1613352833913,544.190617793787" stroke="grey" stroke-width="5" />
<circle cx="432.1613352833913" cy="544.190617793787" r="2.5" fill="grey" stroke="none" />
<path d="M432.1613352833913,544.190617793787 A80.96230685651828,80.96230685651828,0,0,1,424.25965782890177,471.3941317325625" stroke="grey" stroke-width="5" fill="none" />
<circle cx="384.25965782890177" cy="575.3941317325625" r="5" fill="black" stroke="none" />
<circle cx="424.25965782890177" cy="471.3941317325625" r="5" fill="black" stroke="none" />
<path d="M424.25965782890177,471.3941317325625 A80.96230685651828,80.96230685651828,0,0,1,524.0404793693405,422.6892602336432" stroke="grey" stroke-width="5" fill="none" />
<path d="M524.0404793693405,422.6892602336432 L536.2596578289017,383.3941317325625" stroke="grey" stroke-width="5" />
<circle cx="524.0404793693405" cy="422.6892602336432" r="2.5" fill="grey" stroke="none" />
<circle cx="424.25965782890177" cy="471.3941317325625" r="5" fill="black" stroke="none" />
<circle cx="536.2596578289017" cy="383.3941317325625" r="5" fill="black" stroke="none" />
<path d="M536.2596578289017,383.3941317325625 A122.11343619877388,122.11343619877388,0,0,1,582.1810967293716,409.67858149569565" stroke="grey" stroke-width="5" fill="none" />
<path d="M582.1810967293716,409.67858149569565 L584.2596578289017,407.3941317325625" stroke="grey" stroke-width="5" />
<circle cx="582.1810967293716" cy="409.67858149569565" r="2.5" fill="grey" stroke="none" />
<circle cx="536.2596578289017" cy="383.3941317325625" r="5" fill="black" stroke="none" />
<circle cx="584.2596578289017" cy="407.3941317325625" r="5" fill="black" stroke="none" />
<path d="M584.2596578289017,407.3941317325625 L561.947662570979,431.91620726525184" stroke="grey" stroke-width="5" />
<circle cx="561.947662570979" cy="431.91620726525184" r="2.5" fill="grey" stroke="none" />
<path d="M561.947662570979,431.91620726525184 A92.04844230705928,92.04844230705928,0,0,0,536.2596578289018,415.3941317325625" stroke="grey" stroke-width="5" fill="none" />
<circle cx="584.2596578289017" cy="407.3941317325625" r="5" fill="black" stroke="none" />
<circle cx="536.2596578289017" cy="415.3941317325625" r="5" fill="black" stroke="none" />
<path d="M536.2596578289017,383.3941317325625 L527.3323323430553,412.10313236613723" stroke="grey" stroke-width="5" />
<circle cx="527.3323323430553" cy="412.10313236613723" r="2.5" fill="grey" stroke="none" />
<path d="M527.3323323430553,412.10313236613723 A92.04844230705928,92.04844230705928,0,0,1,536.2596578289018,415.3941317325625" stroke="grey" stroke-width="5" fill="none" />
<circle cx="536.2596578289017" cy="383.3941317325625" r="5" fill="black" stroke="none" />
<circle cx="536.2596578289017" cy="415.3941317325625" r="5" fill="black" stroke="none" />
<path d="M536.2596578289017,415.3941317325625 L488.25965782890177,527.3941317325625" stroke="grey" stroke-width="5" />
<circle cx="536.2596578289017" cy="415.3941317325625" r="5" fill="black" stroke="none" />
<circle cx="488.25965782890177" cy="527.3941317325625" r="5" fill="black" stroke="none" />
<path d="M424.25965782890177,471.3941317325625 L472.1183876057717,489.4695784522427" stroke="grey" stroke-width="5" />
<circle cx="472.1183876057717" cy="489.4695784522427" r="2.5" fill="grey" stroke="none" />
<path d="M472.1183876057717,489.4695784522427 A29.803927386763256,29.803927386763256,0,0,0,488.25965782890177,527.3941317325625" stroke="grey" stroke-width="5" fill="none" />
<circle cx="424.25965782890177" cy="471.3941317325625" r="5" fill="black" stroke="none" />
<circle cx="488.25965782890177" cy="527.3941317325625" r="5" fill="black" stroke="none" />
<path d="M488.25965782890177,527.3941317325625 A29.803927386763256,29.803927386763256,0,0,0,495.4142115033046,529.4490174970072" stroke="grey" stroke-width="5" fill="none" />
<path d="M495.4142115033046,529.4490174970072 L488.25965782890177,575.3941317325625" stroke="grey" stroke-width="5" />
<circle cx="495.4142115033046" cy="529.4490174970072" r="2.5" fill="grey" stroke="none" />
<circle cx="488.25965782890177" cy="527.3941317325625" r="5" fill="black" stroke="none" />
<circle cx="488.25965782890177" cy="575.3941317325625" r="5" fill="black" stroke="none" />
<path d="M584.2596578289018,407.3941317325625 A125.2019839100387,125.2019839100387,0,0,1,585.609390460561,408.6404408943389" stroke="grey" stroke-width="5" fill="none" />
<path d="M585.609390460561,408.6404408943389 L624.2596578289017,367.3941317325625" stroke="grey" stroke-width="5" />
<circle cx="585.609390460561" cy="408.6404408943389" r="2.5" fill="grey" stroke="none" />
<circle cx="584.2596578289017" cy="407.3941317325625" r="5" fill="black" stroke="none" />
<circle cx="624.2596578289017" cy="367.3941317325625" r="5" fill="black" stroke="none" />
<path d="M584.2596578289018,407.3941317325625 A125.2019839100387,125.2019839100387,0,0,1,622.3724368317545,473.5325959174716" stroke="grey" stroke-width="5" fill="none" />
<path d="M622.3724368317545,473.5325959174716 L632.2596578289017,471.3941317325625" stroke="grey" stroke-width="5" />
<circle cx="622.3724368317545" cy="473.5325959174716" r="2.5" fill="grey" stroke="none" />
<circle cx="584.2596578289017" cy="407.3941317325625" r="5" fill="black" stroke="none" />
<circle cx="632.2596578289017" cy="471.3941317325625" r="5" fill="black" stroke="none" />
<path d="M536.2596578289017,415.3941317325625 L535.0521460632285,418.2116591858003" stroke="grey" stroke-width="5" />
<circle cx="535.0521460632285" cy="418.2116591858003" r="2.5" fill="grey" stroke="none" />
<path d="M535.0521460632285,418.2116591858003 A88.98306376371626,88.98306376371626,0,0,1,584.2596578289017,471.3941317325625" stroke="grey" stroke-width="5" fill="none" />
<circle cx="536.2596578289017" cy="415.3941317325625" r="5" fill="black" stroke="none" />
<circle cx="584.2596578289017" cy="471.3941317325625" r="5" fill="black" stroke="none" />
<path d="M488.25965782890177,527.3941317325625 A29.803927386763256,29.803927386763256,0,0,0,523.7802277472786,517.9659359890605" stroke="grey" stroke-width="5" fill="none" />
<path d="M523.7802277472786,517.9659359890605 L536.2596578289017,527.3941317325625" stroke="grey" stroke-width="5" />
<circle cx="523.7802277472786" cy="517.9659359890605" r="2.5" fill="grey" stroke="none" />
<circle cx="488.25965782890177" cy="527.3941317325625" r="5" fill="black" stroke="none" />
<circle cx="536.2596578289017" cy="527.3941317325625" r="5" fill="black" stroke="none" />
<path d="M488.25965782890177,575.3941317325625 A76.302757053736,76.302757053736,0,0,0,556.8626551336,550.8797522120414" stroke="grey" stroke-width="5" fill="none" />
<path d="M556.8626551336,550.8797522120414 L584.2596578289017,575.3941317325625" stroke="grey" stroke-width="5" />
<circle cx="556.8626551336" cy="550.8797522120414" r="2.5" fill="grey" stroke="none" />
<circle cx="488.25965782890177" cy="575.3941317325625" r="5" fill="black" stroke="none" />
<circle cx="584.2596578289017" cy="575.3941317325625" r="5" fill="black" stroke="none" />
<path d="M488.25965782890177,631.3941317325625 A131.9176011305863,131.9176011305863,0,0,0,571.2110157033604,611.0461378461413" stroke="grey" stroke-width="5" fill="none" />
<path d="M571.2110157033604,611.0461378461413 L584.2596578289017,631.3941317325625" stroke="grey" stroke-width="5" />
<circle cx="571.2110157033604" cy="611.0461378461413" r="2.5" fill="grey" stroke="none" />
<circle cx="488.25965782890177" cy="631.3941317325625" r="5" fill="black" stroke="none" />
<circle cx="584.2596578289017" cy="631.3941317325625" r="5" fill="black" stroke="none" />
<path d="M632.2596578289017,471.3941317325625 L586.9720591436112,481.1891902062198" stroke="grey" stroke-width="5" />
<circle cx="586.9720591436112" cy="481.1891902062198" r="2.5" fill="grey" stroke="none" />
<path d="M586.9720591436112,481.1891902062198 A88.98306376371626,88.98306376371626,0,0,0,584.2596578289017,471.3941317325625" stroke="grey" stroke-width="5" fill="none" />
<circle cx="632.2596578289017" cy="471.3941317325625" r="5" fill="black" stroke="none" />
<circle cx="584.2596578289017" cy="471.3941317325625" r="5" fill="black" stroke="none" />
<path d="M584.2596578289017,471.3941317325625 L543.0321975335014,485.39071477834256" stroke="grey" stroke-width="5" />
<circle cx="543.0321975335014" cy="485.39071477834256" r="2.5" fill="grey" stroke="none" />
<path d="M543.0321975335014,485.3907147783425 A45.444485245737205,45.444485245737205,0,0,1,536.2596578289017,527.3941317325625" stroke="grey" stroke-width="5" fill="none" />
<circle cx="584.2596578289017" cy="471.3941317325625" r="5" fill="black" stroke="none" />
<circle cx="536.2596578289017" cy="527.3941317325625" r="5" fill="black" stroke="none" />
<path d="M536.2596578289017,527.3941317325625 A45.444485245737205,45.444485245737205,0,0,1,533.8663266182176,530.303022302045" stroke="grey" stroke-width="5" fill="none" />
<path d="M533.8663266182176,530.303022302045 L584.2596578289017,575.3941317325625" stroke="grey" stroke-width="5" />
<circle cx="533.8663266182176" cy="530.303022302045" r="2.5" fill="grey" stroke="none" />
<circle cx="536.2596578289017" cy="527.3941317325625" r="5" fill="black" stroke="none" />
<circle cx="584.2596578289017" cy="575.3941317325625" r="5" fill="black" stroke="none" />
<path d="M584.2596578289018,575.3941317325625 A113.0661975886277,113.0661975886277,0,0,1,561.0347573257698,595.1773262670001" stroke="grey" stroke-width="5" fill="none" />
<path d="M561.0347573257698,595.1773262670001 L584.2596578289017,631.3941317325625" stroke="grey" stroke-width="5" />
<circle cx="561.0347573257698" cy="595.1773262670001" r="2.5" fill="grey" stroke="none" />
<circle cx="584.2596578289017" cy="575.3941317325625" r="5" fill="black" stroke="none" />
<circle cx="584.2596578289017" cy="631.3941317325625" r="5" fill="black" stroke="none" />
<path d="M584.2596578289018,631.3941317325625 A156.09006307640985,156.09006307640985,0,0,0,592.7830774743724,625.5205494155528" stroke="grey" stroke-width="5" fill="none" />
<path d="M592.7830774743724,625.5205494155528 L656.2596578289017,711.3941317325625" stroke="grey" stroke-width="5" />
<circle cx="592.7830774743724" cy="625.5205494155528" r="2.5" fill="grey" stroke="none" />
<circle cx="584.2596578289017" cy="631.3941317325625" r="5" fill="black" stroke="none" />
<circle cx="656.2596578289017" cy="711.3941317325625" r="5" fill="black" stroke="none" />
<path d="M632.2596578289017,471.3941317325625 L605.9087248502556,477.0934608392987" stroke="grey" stroke-width="5" />
<circle cx="605.9087248502556" cy="477.0934608392987" r="2.5" fill="grey" stroke="none" />
<path d="M605.9087248502556,477.0934608392987 A108.35759103878176,108.35759103878176,0,0,1,608.2596578289017,495.3941317325625" stroke="grey" stroke-width="5" fill="none" />
<circle cx="632.2596578289017" cy="471.3941317325625" r="5" fill="black" stroke="none" />
<circle cx="608.2596578289017" cy="495.3941317325625" r="5" fill="black" stroke="none" />
<path d="M608.2596578289017,495.3941317325625 L588.5208730543117,496.23391124280954" stroke="grey" stroke-width="5" />
<circle cx="588.5208730543117" cy="496.23391124280954" r="2.5" fill="grey" stroke="none" />
<path d="M588.5208730543117,496.23391124280954 A88.60095028172438,88.60095028172438,0,0,1,584.2596578289017,527.3941317325625" stroke="grey" stroke-width="5" fill="none" />
<circle cx="608.2596578289017" cy="495.3941317325625" r="5" fill="black" stroke="none" />
<circle cx="584.2596578289017" cy="527.3941317325625" r="5" fill="black" stroke="none" />
<path d="M584.2596578289017,527.3941317325625 A88.60095028172438,88.60095028172438,0,0,1,566.0275653844445,559.0803605289228" stroke="grey" stroke-width="5" fill="none" />
<path d="M566.0275653844445,559.0803605289228 L584.2596578289017,575.3941317325625" stroke="grey" stroke-width="5" />
<circle cx="566.0275653844445" cy="559.0803605289228" r="2.5" fill="grey" stroke="none" />
<circle cx="584.2596578289017" cy="527.3941317325625" r="5" fill="black" stroke="none" />
<circle cx="584.2596578289017" cy="575.3941317325625" r="5" fill="black" stroke="none" />
<path d="M584.2596578289017,471.3941317325625 A88.98306376371626,88.98306376371626,0,0,1,588.9026411834817,496.2176690548429" stroke="grey" stroke-width="5" fill="none" />
<path d="M588.9026411834817,496.2176690548429 L608.2596578289017,495.3941317325625" stroke="grey" stroke-width="5" />
<circle cx="588.9026411834817" cy="496.2176690548429" r="2.5" fill="grey" stroke="none" />
<circle cx="584.2596578289017" cy="471.3941317325625" r="5" fill="black" stroke="none" />
<circle cx="608.2596578289017" cy="495.3941317325625" r="5" fill="black" stroke="none" />
<path d="M536.2596578289017,527.3941317325625 A45.444485245737205,45.444485245737205,0,0,0,543.2177845140587,514.0507772363815" stroke="grey" stroke-width="5" fill="none" />
<path d="M543.2177845140587,514.0507772363815 L584.2596578289017,527.3941317325625" stroke="grey" stroke-width="5" />
<circle cx="543.2177845140587" cy="514.0507772363815" r="2.5" fill="grey" stroke="none" />
<circle cx="536.2596578289017" cy="527.3941317325625" r="5" fill="black" stroke="none" />
<circle cx="584.2596578289017" cy="527.3941317325625" r="5" fill="black" stroke="none" />
<path d="M632.2596578289017,471.3941317325625 L632.0143640404377,471.4471852631312" stroke="grey" stroke-width="5" />
<circle cx="632.0143640404377" cy="471.4471852631312" r="2.5" fill="grey" stroke="none" />
<path d="M632.0143640404377,471.44718526313113 A135.06685582480688,135.06685582480688,0,0,1,632.2596578289017,527.3941317325625" stroke="grey" stroke-width="5" fill="none" />
<circle cx="632.2596578289017" cy="471.3941317325625" r="5" fill="black" stroke="none" />
<circle cx="632.2596578289017" cy="527.3941317325625" r="5" fill="black" stroke="none" />
<path d="M608.2596578289017,495.3941317325625 A108.35759103878176,108.35759103878176,0,0,1,606.105512166081,521.9769839537076" stroke="grey" stroke-width="5" fill="none" />
<path d="M606.105512166081,521.9769839537076 L632.2596578289017,527.3941317325625" stroke="grey" stroke-width="5" />
<circle cx="606.105512166081" cy="521.9769839537076" r="2.5" fill="grey" stroke="none" />
<circle cx="608.2596578289017" cy="495.3941317325625" r="5" fill="black" stroke="none" />
<circle cx="632.2596578289017" cy="527.3941317325625" r="5" fill="black" stroke="none" />
<path d="M584.2596578289017,527.3941317325625 A88.60095028172438,88.60095028172438,0,0,0,586.7594888177161,517.9699607933126" stroke="grey" stroke-width="5" fill="none" />
<path d="M586.7594888177161,517.9699607933126 L632.2596578289017,527.3941317325625" stroke="grey" stroke-width="5" />
<circle cx="586.7594888177161" cy="517.9699607933126" r="2.5" fill="grey" stroke="none" />
<circle cx="584.2596578289017" cy="527.3941317325625" r="5" fill="black" stroke="none" />
<circle cx="632.2596578289017" cy="527.3941317325625" r="5" fill="black" stroke="none" />
<path d="M584.2596578289018,575.3941317325625 A113.0661975886277,113.0661975886277,0,0,0,610.7162561367655,522.9319790730921" stroke="grey" stroke-width="5" fill="none" />
<path d="M610.7162561367655,522.9319790730921 L632.2596578289017,527.3941317325625" stroke="grey" stroke-width="5" />
<circle cx="610.7162561367655" cy="522.9319790730921" r="2.5" fill="grey" stroke="none" />
<circle cx="584.2596578289017" cy="575.3941317325625" r="5" fill="black" stroke="none" />
<circle cx="632.2596578289017" cy="527.3941317325625" r="5" fill="black" stroke="none" />
<path d="M632.2596578289017,527.3941317325625 A135.06685582480688,135.06685582480688,0,0,1,607.9753007968911,581.1442540185074" stroke="grey" stroke-width="5" fill="none" />
<path d="M607.9753007968911,581.1442540185074 L632.2596578289017,599.3941317325625" stroke="grey" stroke-width="5" />
<circle cx="607.9753007968911" cy="581.1442540185074" r="2.5" fill="grey" stroke="none" />
<circle cx="632.2596578289017" cy="527.3941317325625" r="5" fill="black" stroke="none" />
<circle cx="632.2596578289017" cy="599.3941317325625" r="5" fill="black" stroke="none" />
<path d="M632.2596578289017,599.3941317325625 L624.7816972503007,593.7743878814034" stroke="grey" stroke-width="5" />
<circle cx="624.7816972503007" cy="593.7743878814034" r="2.5" fill="grey" stroke="none" />
<path d="M624.7816972503007,593.7743878814034 A156.09006307640985,156.09006307640985,0,0,1,584.2596578289018,631.3941317325625" stroke="grey" stroke-width="5" fill="none" />
<circle cx="632.2596578289017" cy="599.3941317325625" r="5" fill="black" stroke="none" />
<circle cx="584.2596578289017" cy="631.3941317325625" r="5" fill="black" stroke="none" />
<path d="M632.2596578289017,471.3941317325625 A135.31782139966694,135.31782139966694,0,0,0,618.001583062134,433.7690466384302" stroke="grey" stroke-width="5" fill="none" />
<path d="M618.001583062134,433.7690466384302 L736.2596578289017,367.3941317325625" stroke="grey" stroke-width="5" />
<circle cx="618.001583062134" cy="433.7690466384302" r="2.5" fill="grey" stroke="none" />
<circle cx="632.2596578289017" cy="471.3941317325625" r="5" fill="black" stroke="none" />
<circle cx="736.2596578289017" cy="367.3941317325625" r="5" fill="black" stroke="none" />
<path d="M632.2596578289017,471.3941317325625 A135.31782139966694,135.31782139966694,0,0,1,635.296636211813,497.6056278233152" stroke="grey" stroke-width="5" fill="none" />
<path d="M635.296636211813,497.6056278233152 L760.2596578289017,495.3941317325625" stroke="grey" stroke-width="5" />
<circle cx="635.296636211813" cy="497.6056278233152" r="2.5" fill="grey" stroke="none" />
<circle cx="632.2596578289017" cy="471.3941317325625" r="5" fill="black" stroke="none" />
<circle cx="760.2596578289017" cy="495.3941317325625" r="5" fill="black" stroke="none" />
<path d="M760.2596578289018,495.3941317325625 A260.30041013358783,260.30041013358783,0,0,1,760.2776484398105,496.55772773353743" stroke="grey" stroke-width="5" fill="none" />
<path d="M760.2776484398105,496.55772773353743 L848.2596578289017,495.3941317325625" stroke="grey" stroke-width="5" />
<circle cx="760.2776484398105" cy="496.55772773353743" r="2.5" fill="grey" stroke="none" />
<circle cx="760.2596578289017" cy="495.3941317325625" r="5" fill="black" stroke="none" />
<circle cx="848.2596578289017" cy="495.3941317325625" r="5" fill="black" stroke="none" />
<path d="M632.2596578289017,527.3941317325625 A135.06685582480688,135.06685582480688,0,0,1,612.2358839513934,575.1409468668618" stroke="grey" stroke-width="5" fill="none" />
<path d="M612.2358839513934,575.1409468668618 L696.2596578289017,631.3941317325625" stroke="grey" stroke-width="5" />
<circle cx="612.2358839513934" cy="575.1409468668618" r="2.5" fill="grey" stroke="none" />
<circle cx="632.2596578289017" cy="527.3941317325625" r="5" fill="black" stroke="none" />
<circle cx="696.2596578289017" cy="631.3941317325625" r="5" fill="black" stroke="none" />
<circle cx="500" cy="500" r="5" fill="red" stroke="none" />
</svg>