<?xml version="1.0" encoding="UTF-8"?>
<svg xmlns="http://www.w3.org/2000/svg" xmlns:xlink="http://www.w3.org/1999/xlink"
     width="1000" height="1000" viewBox="0 0 1000 1000">
<defs>
</defs>
<rect x="0" y="0" width="1000" height="1000" fill="white" />
<path d="M178.46209128807305,590.5008983431187 L305.7369385981016,554.6777878919013" stroke="grey" stroke-width="5" />
<circle cx="305.7369385981016" cy="554.6777878919013" r="2.5" fill="grey" stroke="none" />
<path d="M305.7369385981016,554.6777878919012 A201.8112918396528,201.8112918396528,0,0,1,298.46209128807305,510.50089834311876" stroke="grey" stroke-width="5" fill="none" />
<circle cx="178.46209128807305" cy="590.5008983431187" r="5" fill="black" stroke="none" />
<circle cx="298.46209128807305" cy="510.50089834311876" r="5" fill="black" stroke="none" />
<path d="M298.46209128807305,510.50089834311876 A201.8112918396528,201.8112918396528,0,0,1,303.1430065083135,455.55765951928726" stroke="grey" stroke-width="5" fill="none" />
<path d="M303.1430065083135,455.55765951928726 L298.46209128807305,454.50089834311876" stroke="grey" stroke-width="5" />
<circle cx="303.1430065083135" cy="455.55765951928726" r="2.5" fill="grey" stroke="none" />
<circle cx="298.46209128807305" cy="510.50089834311876" r="5" fill="black" stroke="none" />
<circle cx="298.46209128807305" cy="454.50089834311876" r="5" fill="black" stroke="none" />
<path d="M298.46209128807305,454.50089834311876 A206.61001161502367,206.61001161502367,0,0,0,295.64342914026383,469.56829209508874" stroke="grey" stroke-width="5" fill="none" />
<path d="M295.64342914026383,469.56829209508885 L194.46209128807305,454.50089834311876" stroke="grey" stroke-width="5" />
<circle cx="295.64342914026383" cy="469.56829209508885" r="2.5" fill="grey" stroke="none" />
<circle cx="298.46209128807305" cy="454.50089834311876" r="5" fill="black" stroke="none" />
<circle cx="194.46209128807305" cy="454.50089834311876" r="5" fill="black" stroke="none" />
<path d="M194.46209128807305,454.50089834311876 L198.59362662565024,455.11614489997294" stroke="grey" stroke-width="5" />
<circle cx="198.59362662565024" cy="455.11614489997294" r="2.5" fill="grey" stroke="none" />
<path d="M198.59362662565024,455.1161448999728 A304.7299827048828,304.7299827048828,0,0,1,234.46209128807305,350.5008983431187" stroke="grey" stroke-width="5" fill="none" />
<circle cx="194.46209128807305" cy="454.50089834311876" r="5" fill="black" stroke="none" />
<circle cx="234.46209128807305" cy="350.50089834311876" r="5" fill="black" stroke="none" />
<path d="M234.46209128807305,350.50089834311876 L253.56563850320765,361.2562860050017" stroke="grey" stroke-width="5" />
<circle cx="253.56563850320765" cy="361.2562860050017" r="2.5" fill="grey" stroke="none" />
<path d="M253.5656385032077,361.2562860050016 A282.80684698121723,282.80684698121723,0,0,1,346.4620912880731,262.5008983431187" stroke="grey" stroke-width="5" fill="none" />
<circle cx="234.46209128807305" cy="350.50089834311876" r="5" fill="black" stroke="none" />
<circle cx="346.46209128807305" cy="262.50089834311876" r="5" fill="black" stroke="none" />
<path d="M346.46209128807305,262.50089834311876 L370.7012702052119,299.99511241712935" stroke="grey" stroke-width="5" />
<circle cx="370.7012702052119" cy="299.99511241712935" r="2.5" fill="grey" stroke="none" />
<path d="M370.7012702052119,299.99511241712935 A238.15985510489028,238.15985510489028,0,0,1,394.46209128807317,286.5008983431187" stroke="grey" stroke-width="5" fill="none" />
<circle cx="346.46209128807305" cy="262.50089834311876" r="5" fill="black" stroke="none" />
<circle cx="394.46209128807305" cy="286.50089834311876" r="5" fill="black" stroke="none" />
<path d="M394.46209128807317,286.5008983431187 A238.15985510489028,238.15985510489028,0,0,0,357.4527675725001,309.211103282076" stroke="grey" stroke-width="5" fill="none" />
<path d="M357.4527675725001,309.211103282076 L346.46209128807305,294.50089834311876" stroke="grey" stroke-width="5" />
<circle cx="357.4527675725001" cy="309.211103282076" r="2.5" fill="grey" stroke="none" />
<circle cx="394.46209128807305" cy="286.50089834311876" r="5" fill="black" stroke="none" />
<circle cx="346.46209128807305" cy="294.50089834311876" r="5" fill="black" stroke="none" />
<path d="M346.46209128807305,262.50089834311876 L360.7320799307891,284.57433617831623" stroke="grey" stroke-width="5" />
<circle cx="360.7320799307891" cy="284.57433617831623" r="2.5" fill="grey" stroke="none" />
<path d="M360.7320799307891,284.57433617831623 A256.52245553443703,256.52245553443703,0,0,0,346.462091288073,294.5008983431188" stroke="grey" stroke-width="5" fill="none" />
<circle cx="346.46209128807305" cy="262.50089834311876" r="5" fill="black" stroke="none" />
<circle cx="346.46209128807305" cy="294.50089834311876" r="5" fill="black" stroke="none" />
<path d="M346.46209128807305,294.50089834311876 L367.02313343574895,322.0203280782488" stroke="grey" stroke-width="5" />
<circle cx="367.02313343574895" cy="322.0203280782488" r="2.5" fill="grey" stroke="none" />
<path d="M367.02313343574895,322.0203280782488 A222.1702290105963,222.1702290105963,0,0,0,298.4620912880731,406.50089834311876" stroke="grey" stroke-width="5" fill="none" />
<circle cx="346.46209128807305" cy="294.50089834311876" r="5" fill="black" stroke="none" />
<circle cx="298.46209128807305" cy="406.50089834311876" r="5" fill="black" stroke="none" />
<path d="M234.46209128807305,350.50089834311876 L306.4036316155432,391.0043266594013" stroke="grey" stroke-width="5" />
<circle cx="306.4036316155432" cy="391.0043266594013" r="2.5" fill="grey" stroke="none" />
<path d="M306.40363161554325,391.00432665940116 A222.1702290105963,222.1702290105963,0,0,0,298.4620912880731,406.50089834311876" stroke="grey" stroke-width="5" fill="none" />
<circle cx="234.46209128807305" cy="350.50089834311876" r="5" fill="black" stroke="none" />
<circle cx="298.46209128807305" cy="406.50089834311876" r="5" fill="black" stroke="none" />
<path d="M298.46209128807305,406.50089834311876 L312.57727533848464,413.0493290421861" stroke="grey" stroke-width="5" />
<circle cx="312.57727533848464" cy="413.0493290421861" r="2.5" fill="grey" stroke="none" />
<path d="M312.57727533848464,413.0493290421861 A206.61001161502367,206.61001161502367,0,0,0,298.46209128807305,454.50089834311876" stroke="grey" stroke-width="5" fill="none" />
<circle cx="298.46209128807305" cy="406.50089834311876" r="5" fill="black" stroke="none" />
<circle cx="298.46209128807305" cy="454.50089834311876" r="5" fill="black" stroke="none" />
<path d="M394.46209128807317,286.5008983431187 A238.15985510489028,238.15985510489028,0,0,1,440.38779366800264,269.42137688021967" stroke="grey" stroke-width="5" fill="none" />
<path d="M440.3877936680027,269.42137688021967 L434.46209128807305,246.50089834311876" stroke="grey" stroke-width="5" />
<circle cx="440.3877936680027" cy="269.42137688021967" r="2.5" fill="grey" stroke="none" />
<circle cx="394.46209128807305" cy="286.50089834311876" r="5" fill="black" stroke="none" />
<circle cx="434.46209128807305" cy="246.50089834311876" r="5" fill="black" stroke="none" />
<path d="M394.46209128807305,286.50089834311876 L429.0139083718215,356.39788605138017" stroke="grey" stroke-width="5" />
<circle cx="429.0139083718215" cy="356.39788605138017" r="2.5" fill="grey" stroke="none" />
<path d="M429.01390837182157,356.39788605138017 A160.18923913658043,160.18923913658043,0,0,1,442.46209128807305,350.50089834311876" stroke="grey" stroke-width="5" fill="none" />
<circle cx="394.46209128807305" cy="286.50089834311876" r="5" fill="black" stroke="none" />
<circle cx="442.46209128807305" cy="350.50089834311876" r="5" fill="black" stroke="none" />
<path d="M346.46209128807305,294.50089834311876 L390.46917987654086,353.40112205550827" stroke="grey" stroke-width="5" />
<circle cx="390.46917987654086" cy="353.40112205550827" r="2.5" fill="grey" stroke="none" />
<path d="M390.46917987654086,353.40112205550827 A182.9979004565395,182.9979004565395,0,0,1,394.462091288073,350.5008983431188" stroke="grey" stroke-width="5" fill="none" />
<circle cx="346.46209128807305" cy="294.50089834311876" r="5" fill="black" stroke="none" />
<circle cx="394.46209128807305" cy="350.50089834311876" r="5" fill="black" stroke="none" />
<path d="M298.46209128807305,406.50089834311876 L336.92796429564146,424.34629821672814" stroke="grey" stroke-width="5" />
<circle cx="336.92796429564146" cy="424.34629821672814" r="2.5" fill="grey" stroke="none" />
<path d="M336.92796429564146,424.34629821672814 A179.76643575004712,179.76643575004712,0,0,1,346.46209128807305,406.5008983431188" stroke="grey" stroke-width="5" fill="none" />
<circle cx="298.46209128807305" cy="406.50089834311876" r="5" fill="black" stroke="none" />
<circle cx="346.46209128807305" cy="406.50089834311876" r="5" fill="black" stroke="none" />
<path d="M298.46209128807305,454.50089834311876 L387.89349978393165,474.6908902532131" stroke="grey" stroke-width="5" />
<circle cx="387.89349978393165" cy="474.6908902532131" r="2.5" fill="grey" stroke="none" />
<path d="M387.89349978393165,474.6908902532131 A114.92788359171259,114.92788359171259,0,0,1,394.46209128807305,454.50089834311876" stroke="grey" stroke-width="5" fill="none" />
<circle cx="298.46209128807305" cy="454.50089834311876" r="5" fill="black" stroke="none" />
<circle cx="394.46209128807305" cy="454.50089834311876" r="5" fill="black" stroke="none" />
<path d="M298.46209128807305,510.50089834311876 L394.0846369475464,505.51859681137256" stroke="grey" stroke-width="5" />
<circle cx="394.0846369475464" cy="505.51859681137256" r="2.5" fill="grey" stroke="none" />
<path d="M394.0846369475464,505.51859681137256 A106.05903564194585,106.05903564194585,0,0,0,394.46209128807305,510.50089834311876" stroke="grey" stroke-width="5" fill="none" />
<circle cx="298.46209128807305" cy="510.50089834311876" r="5" fill="black" stroke="none" />
<circle cx="394.46209128807305" cy="510.50089834311876" r="5" fill="black" stroke="none" />
<path d="M442.46209128807305,350.50089834311876 A160.18923913658043,160.18923913658043,0,0,0,407.6162226208463,369.13430544135895" stroke="grey" stroke-width="5" fill="none" />
<path d="M407.6162226208463,369.13430544135895 L394.46209128807305,350.50089834311876" stroke="grey" stroke-width="5" />
<circle cx="407.6162226208463" cy="369.13430544135895" r="2.5" fill="grey" stroke="none" />
<circle cx="442.46209128807305" cy="350.50089834311876" r="5" fill="black" stroke="none" />
<circle cx="394.46209128807305" cy="350.50089834311876" r="5" fill="black" stroke="none" />
<path d="M394.46209128807305,350.50089834311876 L396.32573030441574,353.14082519173996" stroke="grey" stroke-width="5" />
<circle cx="396.32573030441574" cy="353.14082519173996" r="2.5" fill="grey" stroke="none" />
<path d="M396.32573030441574,353.14082519173996 A179.76643575004712,179.76643575004712,0,0,0,346.46209128807305,406.5008983431188" stroke="grey" stroke-width="5" fill="none" />
<circle cx="394.46209128807305" cy="350.50089834311876" r="5" fill="black" stroke="none" />
<circle cx="346.46209128807305" cy="406.50089834311876" r="5" fill="black" stroke="none" />
<path d="M346.46209128807305,406.50089834311876 L401.8404808120322,440.22435931203063" stroke="grey" stroke-width="5" />
<circle cx="401.8404808120322" cy="440.22435931203063" r="2.5" fill="grey" stroke="none" />
<path d="M401.8404808120322,440.22435931203063 A114.92788359171259,114.92788359171259,0,0,0,394.46209128807305,454.50089834311876" stroke="grey" stroke-width="5" fill="none" />
<circle cx="346.46209128807305" cy="406.50089834311876" r="5" fill="black" stroke="none" />
<circle cx="394.46209128807305" cy="454.50089834311876" r="5" fill="black" stroke="none" />
<path d="M394.46209128807305,454.50089834311876 L402.60632605556975,458.0120098491776" stroke="grey" stroke-width="5" />
<circle cx="402.60632605556975" cy="458.0120098491776" r="2.5" fill="grey" stroke="none" />
<path d="M402.60632605556975,458.0120098491776 A106.05903564194585,106.05903564194585,0,0,0,394.46209128807305,510.50089834311876" stroke="grey" stroke-width="5" fill="none" />
<circle cx="394.46209128807305" cy="454.50089834311876" r="5" fill="black" stroke="none" />
<circle cx="394.46209128807305" cy="510.50089834311876" r="5" fill="black" stroke="none" />
<path d="M394.46209128807305,510.50089834311876 L403.9589291976863,509.55597409090404" stroke="grey" stroke-width="5" />
<circle cx="403.9589291976863" cy="509.55597409090404" r="2.5" fill="grey" stroke="none" />
<path d="M403.9589291976863,509.55597409090404 A96.5153040801357,96.5153040801357,0,0,0,466.46209128807305,590.5008983431187" stroke="grey" stroke-width="5" fill="none" />
<circle cx="394.46209128807305" cy="510.50089834311876" r="5" fill="black" stroke="none" />
<circle cx="466.46209128807305" cy="590.5008983431187" r="5" fill="black" stroke="none" />
<path d="M442.46209128807305,350.50089834311876 L446.24365081813755,360.32641625405176" stroke="grey" stroke-width="5" />
<circle cx="446.24365081813755" cy="360.32641625405176" r="2.5" fill="grey" stroke="none" />
<path d="M446.24365081813755,360.32641625405176 A149.66113414577194,149.66113414577194,0,0,0,418.46209128807305,374.50089834311876" stroke="grey" stroke-width="5" fill="none" />
<circle cx="442.46209128807305" cy="350.50089834311876" r="5" fill="black" stroke="none" />
<circle cx="418.46209128807305" cy="374.50089834311876" r="5" fill="black" stroke="none" />
<path d="M418.46209128807305,374.50089834311876 L423.1821133816409,381.7657220539671" stroke="grey" stroke-width="5" />
<circle cx="423.1821133816409" cy="381.7657220539671" r="2.5" fill="grey" stroke="none" />
<path d="M423.1821133816409,381.7657220539671 A140.99763184511588,140.99763184511588,0,0,0,394.46209128807305,406.50089834311876" stroke="grey" stroke-width="5" fill="none" />
<circle cx="418.46209128807305" cy="374.50089834311876" r="5" fill="black" stroke="none" />
<circle cx="394.46209128807305" cy="406.50089834311876" r="5" fill="black" stroke="none" />
<path d="M394.46209128807305,406.50089834311876 L413.9755162676707,423.78840885103864" stroke="grey" stroke-width="5" />
<circle cx="413.9755162676707" cy="423.78840885103864" r="2.5" fill="grey" stroke="none" />
<path d="M413.9755162676707,423.78840885103864 A114.92788359171259,114.92788359171259,0,0,0,394.46209128807305,454.50089834311876" stroke="grey" stroke-width="5" fill="none" />
<circle cx="394.46209128807305" cy="406.50089834311876" r="5" fill="black" stroke="none" />
<circle cx="394.46209128807305" cy="454.50089834311876" r="5" fill="black" stroke="none" />
<path d="M394.46209128807305,350.50089834311876 L413.6879544858434,377.73518137681265" stroke="grey" stroke-width="5" />
<circle cx="413.6879544858434" cy="377.73518137681265" r="2.5" fill="grey" stroke="none" />
<path d="M413.6879544858434,377.73518137681265 A149.66113414577194,149.66113414577194,0,0,1,418.46209128807305,374.50089834311876" stroke="grey" stroke-width="5" fill="none" />
<circle cx="394.46209128807305" cy="350.50089834311876" r="5" fill="black" stroke="none" />
<circle cx="418.46209128807305" cy="374.50089834311876" r="5" fill="black" stroke="none" />
<path d="M346.46209128807305,406.50089834311876 L379.5743964299653,426.66510932220814" stroke="grey" stroke-width="5" />
<circle cx="379.5743964299653" cy="426.66510932220814" r="2.5" fill="grey" stroke="none" />
<path d="M379.5743964299653,426.66510932220814 A140.99763184511588,140.99763184511588,0,0,1,394.46209128807305,406.50089834311876" stroke="grey" stroke-width="5" fill="none" />
<circle cx="346.46209128807305" cy="406.50089834311876" r="5" fill="black" stroke="none" />
<circle cx="394.46209128807305" cy="406.50089834311876" r="5" fill="black" stroke="none" />
<path d="M442.46209128807305,350.50089834311876 L460.56673106603114,397.54166578180605" stroke="grey" stroke-width="5" />
<circle cx="460.56673106603114" cy="397.54166578180605" r="2.5" fill="grey" stroke="none" />
<path d="M460.56673106603114,397.54166578180605 A109.7847573645169,109.7847573645169,0,0,0,442.46209128807305,406.50089834311876" stroke="grey" stroke-width="5" fill="none" />
<circle cx="442.46209128807305" cy="350.50089834311876" r="5" fill="black" stroke="none" />
<circle cx="442.46209128807305" cy="406.50089834311876" r="5" fill="black" stroke="none" />
<path d="M418.46209128807305,374.50089834311876 L440.1874135523386,407.939435956394" stroke="grey" stroke-width="5" />
<circle cx="440.1874135523386" cy="407.939435956394" r="2.5" fill="grey" stroke="none" />
<path d="M440.1874135523386,407.939435956394 A109.7847573645169,109.7847573645169,0,0,1,442.46209128807305,406.50089834311876" stroke="grey" stroke-width="5" fill="none" />
<circle cx="418.46209128807305" cy="374.50089834311876" r="5" fill="black" stroke="none" />
<circle cx="442.46209128807305" cy="406.50089834311876" r="5" fill="black" stroke="none" />
<path d="M394.46209128807305,406.50089834311876 L417.8251893377542,427.198946146296" stroke="grey" stroke-width="5" />
<circle cx="417.8251893377542" cy="427.198946146296" r="2.5" fill="grey" stroke="none" />
<path d="M417.8251893377542,427.198946146296 A109.7847573645169,109.7847573645169,0,0,1,442.46209128807305,406.50089834311876" stroke="grey" stroke-width="5" fill="none" />
<circle cx="394.46209128807305" cy="406.50089834311876" r="5" fill="black" stroke="none" />
<circle cx="442.46209128807305" cy="406.50089834311876" r="5" fill="black" stroke="none" />
<path d="M394.46209128807305,454.50089834311876 L399.18500768830893,456.53702409199855" stroke="grey" stroke-width="5" />
<circle cx="399.18500768830893" cy="456.53702409199855" r="2.5" fill="grey" stroke="none" />
<path d="M399.18500768830893,456.53702409199855 A109.7847573645169,109.7847573645169,0,0,1,442.46209128807305,406.50089834311876" stroke="grey" stroke-width="5" fill="none" />
<circle cx="394.46209128807305" cy="454.50089834311876" r="5" fill="black" stroke="none" />
<circle cx="442.46209128807305" cy="406.50089834311876" r="5" fill="black" stroke="none" />
<path d="M442.46209128807305,406.50089834311876 L467.80820434115077,447.68833205437005" stroke="grey" stroke-width="5" />
<circle cx="467.80820434115077" cy="447.68833205437005" r="2.5" fill="grey" stroke="none" />
<path d="M467.80820434115077,447.68833205437005 A61.423304298897435,61.423304298897435,0,0,0,442.46209128807305,478.50089834311876" stroke="grey" stroke-width="5" fill="none" />
<circle cx="442.46209128807305" cy="406.50089834311876" r="5" fill="black" stroke="none" />
<circle cx="442.46209128807305" cy="478.50089834311876" r="5" fill="black" stroke="none" />
<path d="M442.46209128807305,478.50089834311876 A61.423304298897435,61.423304298897435,0,0,0,438.87850249961963,506.08151743448514" stroke="grey" stroke-width="5" fill="none" />
<path d="M438.87850249961963,506.08151743448514 L394.46209128807305,510.50089834311876" stroke="grey" stroke-width="5" />
<circle cx="438.87850249961963" cy="506.08151743448514" r="2.5" fill="grey" stroke="none" />
<circle cx="442.46209128807305" cy="478.50089834311876" r="5" fill="black" stroke="none" />
<circle cx="394.46209128807305" cy="510.50089834311876" r="5" fill="black" stroke="none" />
<path d="M442.46209128807305,350.50089834311876 A160.18923913658043,160.18923913658043,0,0,1,528.8789204988831,342.43540916190676" stroke="grey" stroke-width="5" fill="none" />
<path d="M528.8789204988832,342.43540916190676 L546.462091288073,246.50089834311876" stroke="grey" stroke-width="5" />
<circle cx="528.8789204988832" cy="342.43540916190676" r="2.5" fill="grey" stroke="none" />
<circle cx="442.46209128807305" cy="350.50089834311876" r="5" fill="black" stroke="none" />
<circle cx="546.462091288073" cy="246.50089834311876" r="5" fill="black" stroke="none" />
<path d="M442.46209128807305,350.50089834311876 L448.3033408682344,365.6780499695341" stroke="grey" stroke-width="5" />
<circle cx="448.3033408682344" cy="365.6780499695341" r="2.5" fill="grey" stroke="none" />
<path d="M448.3033408682344,365.6780499695341 A143.92682455113413,143.92682455113413,0,0,1,570.462091288073,374.50089834311876" stroke="grey" stroke-width="5" fill="none" />
<circle cx="442.46209128807305" cy="350.50089834311876" r="5" fill="black" stroke="none" />
<circle cx="570.462091288073" cy="374.50089834311876" r="5" fill="black" stroke="none" />
<path d="M570.462091288073,374.50089834311876 A143.92682455113413,143.92682455113413,0,0,1,612.8279168661411,410.64233664077767" stroke="grey" stroke-width="5" fill="none" />
<path d="M612.8279168661411,410.64233664077767 L658.462091288073,374.50089834311876" stroke="grey" stroke-width="5" />
<circle cx="612.8279168661411" cy="410.64233664077767" r="2.5" fill="grey" stroke="none" />
<circle cx="570.462091288073" cy="374.50089834311876" r="5" fill="black" stroke="none" />
<circle cx="658.462091288073" cy="374.50089834311876" r="5" fill="black" stroke="none" />
<path d="M442.46209128807305,406.50089834311876 L506.46209128807305,510.50089834311876" stroke="grey" stroke-width="5" />
<circle cx="442.46209128807305" cy="406.50089834311876" r="5" fill="black" stroke="none" />
<circle cx="506.46209128807305" cy="510.50089834311876" r="5" fill="black" stroke="none" />
<circle cx="500" cy="500" r="5" fill="red" stroke="none" />
</svg>