<?xml version="1.0" encoding="UTF-8"?>
<svg xmlns="http://www.w3.org/2000/svg" xmlns:xlink="http://www.w3.org/1999/xlink"
     width="1000" height="1000" viewBox="0 0 1000 1000">
<defs>
</defs>
<rect x="0" y="0" width="1000" height="1000" fill="white" />
<path d="M372.14525976915263,702.3277272053105 L434.5181381903668,603.6238175385131" stroke="grey" stroke-width="5" />
<circle cx="434.5181381903668" cy="603.6238175385131" r="2.5" fill="grey" stroke="none" />
<path d="M434.5181381903668,603.6238175385131 A122.57964670903137,122.57964670903137,0,0,0,492.14525976915263,622.3277272053105" stroke="grey" stroke-width="5" fill="none" />
<circle cx="372.14525976915263" cy="702.3277272053105" r="5" fill="black" stroke="none" />
<circle cx="492.14525976915263" cy="622.3277272053105" r="5" fill="black" stroke="none" />
<path d="M492.14525976915263,622.3277272053105 L495.72010903577683,566.6539336697433" stroke="grey" stroke-width="5" />
<circle cx="495.72010903577683" cy="566.6539336697433" r="2.5" fill="grey" stroke="none" />
<path d="M495.72010903577683,566.6539336697433 A66.7911995723701,66.7911995723701,0,0,1,492.14525976915263,566.3277272053105" stroke="grey" stroke-width="5" fill="none" />
<circle cx="492.14525976915263" cy="622.3277272053105" r="5" fill="black" stroke="none" />
<circle cx="492.14525976915263" cy="566.3277272053105" r="5" fill="black" stroke="none" />
<path d="M492.14525976915263,566.3277272053105 A66.7911995723701,66.7911995723701,0,0,1,442.5498834086089,534.0668232148485" stroke="grey" stroke-width="5" fill="none" />
<path d="M442.5498834086089,534.0668232148485 L-111.85474023084734,66.32772720531045" stroke="grey" stroke-width="5" />
<circle cx="442.5498834086089" cy="534.0668232148485" r="2.5" fill="grey" stroke="none" />
<circle cx="492.14525976915263" cy="566.3277272053105" r="5" fill="black" stroke="none" />
<circle cx="388.14525976915263" cy="566.3277272053105" r="5" fill="black" stroke="none" />
<path d="M388.14525976915263,566.3277272053105 L430.21523290594394,541.3810356659716" stroke="grey" stroke-width="5" />
<circle cx="430.21523290594394" cy="541.3810356659716" r="2.5" fill="grey" stroke="none" />
<path d="M430.21523290594394,541.3810356659716 A81.13139855296504,81.13139855296504,0,0,1,428.1452597691527,462.3277272053104" stroke="grey" stroke-width="5" fill="none" />
<circle cx="388.14525976915263" cy="566.3277272053105" r="5" fill="black" stroke="none" />
<circle cx="428.14525976915263" cy="462.32772720531045" r="5" fill="black" stroke="none" />
<path d="M428.1452597691527,462.3277272053104 A81.13139855296504,81.13139855296504,0,0,1,524.6879028432614,422.71603475259735" stroke="grey" stroke-width="5" fill="none" />
<path d="M524.6879028432614,422.71603475259735 L40.14525976915266,-125.67227279468955" stroke="grey" stroke-width="5" />
<circle cx="524.6879028432614" cy="422.71603475259735" r="2.5" fill="grey" stroke="none" />
<circle cx="428.14525976915263" cy="462.32772720531045" r="5" fill="black" stroke="none" />
<circle cx="540.1452597691526" cy="374.32772720531045" r="5" fill="black" stroke="none" />
<path d="M540.1452597691526,374.32772720531045 A131.92862476095024,131.92862476095024,0,0,1,586.420483313919,400.3171925801432" stroke="grey" stroke-width="5" fill="none" />
<path d="M586.420483313919,400.3171925801432 L88.14525976915266,-101.67227279468955" stroke="grey" stroke-width="5" />
<circle cx="586.420483313919" cy="400.3171925801432" r="2.5" fill="grey" stroke="none" />
<circle cx="540.1452597691526" cy="374.32772720531045" r="5" fill="black" stroke="none" />
<circle cx="588.1452597691526" cy="398.32772720531045" r="5" fill="black" stroke="none" />
<path d="M588.1452597691526,398.32772720531045 L566.7582079498751,422.9968945835513" stroke="grey" stroke-width="5" />
<circle cx="566.7582079498751" cy="422.9968945835513" r="2.5" fill="grey" stroke="none" />
<path d="M566.7582079498751,422.9968945835513 A101.91239655927772,101.91239655927772,0,0,0,540.1452597691526,406.32772720531045" stroke="grey" stroke-width="5" fill="none" />
<circle cx="588.1452597691526" cy="398.32772720531045" r="5" fill="black" stroke="none" />
<circle cx="540.1452597691526" cy="406.32772720531045" r="5" fill="black" stroke="none" />
<path d="M540.1452597691526,374.32772720531045 L531.011462758612,402.92051838814393" stroke="grey" stroke-width="5" />
<circle cx="531.011462758612" cy="402.92051838814393" r="2.5" fill="grey" stroke="none" />
<path d="M531.011462758612,402.92051838814393 A101.91239655927772,101.91239655927772,0,0,1,540.1452597691526,406.32772720531045" stroke="grey" stroke-width="5" fill="none" />
<circle cx="540.1452597691526" cy="374.32772720531045" r="5" fill="black" stroke="none" />
<circle cx="540.1452597691526" cy="406.32772720531045" r="5" fill="black" stroke="none" />
<path d="M540.1452597691526,406.32772720531045 L492.14525976915263,518.3277272053105" stroke="grey" stroke-width="5" />
<circle cx="540.1452597691526" cy="406.32772720531045" r="5" fill="black" stroke="none" />
<circle cx="492.14525976915263" cy="518.3277272053105" r="5" fill="black" stroke="none" />
<path d="M428.14525976915263,462.32772720531045 L482.3399865483962,490.74114189030087" stroke="grey" stroke-width="5" />
<circle cx="482.3399865483962" cy="490.74114189030087" r="2.5" fill="grey" stroke="none" />
<path d="M482.3399865483962,490.74114189030087 A19.939973134544807,19.939973134544807,0,0,0,492.14525976915263,518.3277272053105" stroke="grey" stroke-width="5" fill="none" />
<circle cx="428.14525976915263" cy="462.32772720531045" r="5" fill="black" stroke="none" />
<circle cx="492.14525976915263" cy="518.3277272053105" r="5" fill="black" stroke="none" />
<path d="M492.14525976915263,518.3277272053105 A19.939973134544807,19.939973134544807,0,0,0,497.65503074978886,519.8016072030008" stroke="grey" stroke-width="5" fill="none" />
<path d="M497.65503074978886,519.8016072030008 L-7.854740230847341,66.32772720531045" stroke="grey" stroke-width="5" />
<circle cx="497.65503074978886" cy="519.8016072030008" r="2.5" fill="grey" stroke="none" />
<circle cx="492.14525976915263" cy="518.3277272053105" r="5" fill="black" stroke="none" />
<circle cx="492.14525976915263" cy="566.3277272053105" r="5" fill="black" stroke="none" />
<path d="M588.1452597691526,398.32772720531045 A134.56165083339744,134.56165083339744,0,0,1,590.265873306339,400.20566152705294" stroke="grey" stroke-width="5" fill="none" />
<path d="M590.265873306339,400.20566152705294 L128.14525976915266,-141.67227279468955" stroke="grey" stroke-width="5" />
<circle cx="590.265873306339" cy="400.20566152705294" r="2.5" fill="grey" stroke="none" />
<circle cx="588.1452597691526" cy="398.32772720531045" r="5" fill="black" stroke="none" />
<circle cx="628.1452597691526" cy="358.32772720531045" r="5" fill="black" stroke="none" />
<path d="M588.1452597691526,398.32772720531045 A134.56165083339744,134.56165083339744,0,0,1,629.6883255182302,464.11440262045585" stroke="grey" stroke-width="5" fill="none" />
<path d="M629.6883255182302,464.11440262045585 L136.14525976915266,-37.67227279468955" stroke="grey" stroke-width="5" />
<circle cx="629.6883255182302" cy="464.11440262045585" r="2.5" fill="grey" stroke="none" />
<circle cx="588.1452597691526" cy="398.32772720531045" r="5" fill="black" stroke="none" />
<circle cx="636.1452597691526" cy="462.32772720531045" r="5" fill="black" stroke="none" />
<path d="M540.1452597691526,406.32772720531045 L537.7603793941892,411.8924480802252" stroke="grey" stroke-width="5" />
<circle cx="537.7603793941892" cy="411.8924480802252" r="2.5" fill="grey" stroke="none" />
<path d="M537.7603793941892,411.8924480802252 A95.85816061916121,95.85816061916121,0,0,1,588.1452597691526,462.32772720531045" stroke="grey" stroke-width="5" fill="none" />
<circle cx="540.1452597691526" cy="406.32772720531045" r="5" fill="black" stroke="none" />
<circle cx="588.1452597691526" cy="462.32772720531045" r="5" fill="black" stroke="none" />
<path d="M492.14525976915263,518.3277272053105 A19.939973134544807,19.939973134544807,0,0,0,518.1390616001344,508.2811214743474" stroke="grey" stroke-width="5" fill="none" />
<path d="M518.1390616001344,508.2811214743474 L40.14525976915266,18.327727205310453" stroke="grey" stroke-width="5" />
<circle cx="518.1390616001344" cy="508.2811214743474" r="2.5" fill="grey" stroke="none" />
<circle cx="492.14525976915263" cy="518.3277272053105" r="5" fill="black" stroke="none" />
<circle cx="540.1452597691526" cy="518.3277272053105" r="5" fill="black" stroke="none" />
<path d="M492.14525976915263,566.3277272053105 A66.7911995723701,66.7911995723701,0,0,0,553.3693086440417,540.1594476452701" stroke="grey" stroke-width="5" fill="none" />
<path d="M553.3693086440417,540.1594476452701 L88.14525976915266,66.32772720531045" stroke="grey" stroke-width="5" />
<circle cx="553.3693086440417" cy="540.1594476452701" r="2.5" fill="grey" stroke="none" />
<circle cx="492.14525976915263" cy="566.3277272053105" r="5" fill="black" stroke="none" />
<circle cx="588.1452597691526" cy="566.3277272053105" r="5" fill="black" stroke="none" />
<path d="M492.14525976915263,622.3277272053105 A122.57964670903137,122.57964670903137,0,0,0,571.660964692113,599.4508719253214" stroke="grey" stroke-width="5" fill="none" />
<path d="M571.660964692113,599.4508719253214 L88.14525976915266,122.32772720531045" stroke="grey" stroke-width="5" />
<circle cx="571.660964692113" cy="599.4508719253214" r="2.5" fill="grey" stroke="none" />
<circle cx="492.14525976915263" cy="622.3277272053105" r="5" fill="black" stroke="none" />
<circle cx="588.1452597691526" cy="622.3277272053105" r="5" fill="black" stroke="none" />
<path d="M636.1452597691526,462.32772720531045 L592.3865325741908,474.43604967523834" stroke="grey" stroke-width="5" />
<circle cx="592.3865325741908" cy="474.43604967523834" r="2.5" fill="grey" stroke="none" />
<path d="M592.3865325741908,474.43604967523834 A95.85816061916121,95.85816061916121,0,0,0,588.1452597691526,462.32772720531045" stroke="grey" stroke-width="5" fill="none" />
<circle cx="636.1452597691526" cy="462.32772720531045" r="5" fill="black" stroke="none" />
<circle cx="588.1452597691526" cy="462.32772720531045" r="5" fill="black" stroke="none" />
<path d="M588.1452597691526,462.32772720531045 L540.5801732073915,482.6564995199027" stroke="grey" stroke-width="5" />
<circle cx="540.5801732073915" cy="482.6564995199027" r="2.5" fill="grey" stroke="none" />
<path d="M540.5801732073915,482.6564995199027 A44.13102612046341,44.13102612046341,0,0,1,540.1452597691526,518.3277272053105" stroke="grey" stroke-width="5" fill="none" />
<circle cx="588.1452597691526" cy="462.32772720531045" r="5" fill="black" stroke="none" />
<circle cx="540.1452597691526" cy="518.3277272053105" r="5" fill="black" stroke="none" />
<path d="M540.1452597691526,518.3277272053105 A44.13102612046341,44.13102612046341,0,0,1,535.2627646887718,526.534598036325" stroke="grey" stroke-width="5" fill="none" />
<path d="M535.2627646887718,526.534598036325 L88.14525976915266,66.32772720531045" stroke="grey" stroke-width="5" />
<circle cx="535.2627646887718" cy="526.534598036325" r="2.5" fill="grey" stroke="none" />
<circle cx="540.1452597691526" cy="518.3277272053105" r="5" fill="black" stroke="none" />
<circle cx="588.1452597691526" cy="566.3277272053105" r="5" fill="black" stroke="none" />
<path d="M588.1452597691526,566.3277272053105 A110.31298298928138,110.31298298928138,0,0,1,564.489782694847,589.4987270522039" stroke="grey" stroke-width="5" fill="none" />
<path d="M564.489782694847,589.4987270522039 L88.14525976915266,122.32772720531045" stroke="grey" stroke-width="5" />
<circle cx="564.489782694847" cy="589.4987270522039" r="2.5" fill="grey" stroke="none" />
<circle cx="588.1452597691526" cy="566.3277272053105" r="5" fill="black" stroke="none" />
<circle cx="588.1452597691526" cy="622.3277272053105" r="5" fill="black" stroke="none" />
<path d="M588.1452597691527,622.3277272053105 A150.7768538701755,150.7768538701755,0,0,0,593.5765526897821,618.2247370463757" stroke="grey" stroke-width="5" fill="none" />
<path d="M593.5765526897821,618.2247370463757 L160.14525976915266,202.32772720531045" stroke="grey" stroke-width="5" />
<circle cx="593.5765526897821" cy="618.2247370463757" r="2.5" fill="grey" stroke="none" />
<circle cx="588.1452597691526" cy="622.3277272053105" r="5" fill="black" stroke="none" />
<circle cx="660.1452597691526" cy="702.3277272053105" r="5" fill="black" stroke="none" />
<path d="M636.1452597691526,462.32772720531045 L608.88405925463,469.8710774786523" stroke="grey" stroke-width="5" />
<circle cx="608.88405925463" cy="469.8710774786523" r="2.5" fill="grey" stroke="none" />
<path d="M608.88405925463,469.8710774786523 A112.97561830794793,112.97561830794793,0,0,1,612.1452597691526,486.32772720531045" stroke="grey" stroke-width="5" fill="none" />
<circle cx="636.1452597691526" cy="462.32772720531045" r="5" fill="black" stroke="none" />
<circle cx="612.1452597691526" cy="486.32772720531045" r="5" fill="black" stroke="none" />
<path d="M612.1452597691526,486.32772720531045 L589.3687937177795,489.1045370124693" stroke="grey" stroke-width="5" />
<circle cx="589.3687937177795" cy="489.1045370124693" r="2.5" fill="grey" stroke="none" />
<path d="M589.3687937177795,489.1045370124693 A90.03050818630138,90.03050818630138,0,0,1,588.1452597691526,518.3277272053105" stroke="grey" stroke-width="5" fill="none" />
<circle cx="612.1452597691526" cy="486.32772720531045" r="5" fill="black" stroke="none" />
<circle cx="588.1452597691526" cy="518.3277272053105" r="5" fill="black" stroke="none" />
<path d="M588.1452597691526,518.3277272053105 A90.03050818630138,90.03050818630138,0,0,1,571.938608821787,554.132513012695" stroke="grey" stroke-width="5" fill="none" />
<path d="M571.938608821787,554.132513012695 L88.14525976915266,66.32772720531045" stroke="grey" stroke-width="5" />
<circle cx="571.938608821787" cy="554.132513012695" r="2.5" fill="grey" stroke="none" />
<circle cx="588.1452597691526" cy="518.3277272053105" r="5" fill="black" stroke="none" />
<circle cx="588.1452597691526" cy="566.3277272053105" r="5" fill="black" stroke="none" />
<path d="M588.1452597691526,462.32772720531045 A95.85816061916121,95.85816061916121,0,0,1,595.1536135374505,488.3992763995332" stroke="grey" stroke-width="5" fill="none" />
<path d="M595.1536135374505,488.3992763995332 L112.14525976915266,-13.672272794689547" stroke="grey" stroke-width="5" />
<circle cx="595.1536135374505" cy="488.3992763995332" r="2.5" fill="grey" stroke="none" />
<circle cx="588.1452597691526" cy="462.32772720531045" r="5" fill="black" stroke="none" />
<circle cx="612.1452597691526" cy="486.32772720531045" r="5" fill="black" stroke="none" />
<path d="M540.1452597691526,518.3277272053105 A44.13102612046341,44.13102612046341,0,0,0,543.2069177396844,508.98385918640577" stroke="grey" stroke-width="5" fill="none" />
<path d="M543.2069177396844,508.98385918640577 L88.14525976915266,18.327727205310453" stroke="grey" stroke-width="5" />
<circle cx="543.2069177396844" cy="508.98385918640577" r="2.5" fill="grey" stroke="none" />
<circle cx="540.1452597691526" cy="518.3277272053105" r="5" fill="black" stroke="none" />
<circle cx="588.1452597691526" cy="518.3277272053105" r="5" fill="black" stroke="none" />
<path d="M636.1452597691526,462.32772720531045 L632.3981955221838,463.3645640862301" stroke="grey" stroke-width="5" />
<circle cx="632.3981955221838" cy="463.3645640862301" r="2.5" fill="grey" stroke="none" />
<path d="M632.3981955221838,463.3645640862301 A137.37335018890067,137.37335018890067,0,0,1,636.1452597691526,518.3277272053105" stroke="grey" stroke-width="5" fill="none" />
<circle cx="636.1452597691526" cy="462.32772720531045" r="5" fill="black" stroke="none" />
<circle cx="636.1452597691526" cy="518.3277272053105" r="5" fill="black" stroke="none" />
<path d="M612.1452597691526,486.32772720531045 A112.97561830794793,112.97561830794793,0,0,1,611.9656387571958,515.0726928501933" stroke="grey" stroke-width="5" fill="none" />
<path d="M611.9656387571958,515.0726928501933 L136.14525976915266,18.327727205310453" stroke="grey" stroke-width="5" />
<circle cx="611.9656387571958" cy="515.0726928501933" r="2.5" fill="grey" stroke="none" />
<circle cx="612.1452597691526" cy="486.32772720531045" r="5" fill="black" stroke="none" />
<circle cx="636.1452597691526" cy="518.3277272053105" r="5" fill="black" stroke="none" />
<path d="M588.1452597691526,518.3277272053105 A90.03050818630138,90.03050818630138,0,0,0,589.2256533550214,512.0114606794187" stroke="grey" stroke-width="5" fill="none" />
<path d="M589.2256533550214,512.0114606794187 L136.14525976915266,18.327727205310453" stroke="grey" stroke-width="5" />
<circle cx="589.2256533550214" cy="512.0114606794187" r="2.5" fill="grey" stroke="none" />
<circle cx="588.1452597691526" cy="518.3277272053105" r="5" fill="black" stroke="none" />
<circle cx="636.1452597691526" cy="518.3277272053105" r="5" fill="black" stroke="none" />
<path d="M588.1452597691526,566.3277272053105 A110.31298298928138,110.31298298928138,0,0,0,609.3268068685369,514.7174561634514" stroke="grey" stroke-width="5" fill="none" />
<path d="M609.3268068685369,514.7174561634514 L136.14525976915266,18.327727205310453" stroke="grey" stroke-width="5" />
<circle cx="609.3268068685369" cy="514.7174561634514" r="2.5" fill="grey" stroke="none" />
<circle cx="588.1452597691526" cy="566.3277272053105" r="5" fill="black" stroke="none" />
<circle cx="636.1452597691526" cy="518.3277272053105" r="5" fill="black" stroke="none" />
<path d="M636.1452597691526,518.3277272053105 A137.37335018890067,137.37335018890067,0,0,1,614.4703633343485,575.9471741424563" stroke="grey" stroke-width="5" fill="none" />
<path d="M614.4703633343485,575.9471741424563 L136.14525976915266,90.32772720531045" stroke="grey" stroke-width="5" />
<circle cx="614.4703633343485" cy="575.9471741424563" r="2.5" fill="grey" stroke="none" />
<circle cx="636.1452597691526" cy="518.3277272053105" r="5" fill="black" stroke="none" />
<circle cx="636.1452597691526" cy="590.3277272053105" r="5" fill="black" stroke="none" />
<path d="M636.1452597691526,590.3277272053105 L625.6392249384296,583.3573321301669" stroke="grey" stroke-width="5" />
<circle cx="625.6392249384296" cy="583.3573321301669" r="2.5" fill="grey" stroke="none" />
<path d="M625.6392249384296,583.3573321301669 A150.7768538701755,150.7768538701755,0,0,1,588.1452597691527,622.3277272053105" stroke="grey" stroke-width="5" fill="none" />
<circle cx="636.1452597691526" cy="590.3277272053105" r="5" fill="black" stroke="none" />
<circle cx="588.1452597691526" cy="622.3277272053105" r="5" fill="black" stroke="none" />
<path d="M636.1452597691526,462.32772720531045 A141.2612186522811,141.2612186522811,0,0,0,621.6669227752644,428.2233199602726" stroke="grey" stroke-width="5" fill="none" />
<path d="M621.6669227752644,428.2233199602726 L240.14525976915266,-141.67227279468955" stroke="grey" stroke-width="5" />
<circle cx="621.6669227752644" cy="428.2233199602726" r="2.5" fill="grey" stroke="none" />
<circle cx="636.1452597691526" cy="462.32772720531045" r="5" fill="black" stroke="none" />
<circle cx="740.1452597691526" cy="358.32772720531045" r="5" fill="black" stroke="none" />
<path d="M636.1452597691526,462.32772720531045 A141.2612186522811,141.2612186522811,0,0,1,641.072368579192,492.69803323863033" stroke="grey" stroke-width="5" fill="none" />
<path d="M641.072368579192,492.69803323863033 L264.14525976915263,-13.672272794689547" stroke="grey" stroke-width="5" />
<circle cx="641.072368579192" cy="492.69803323863033" r="2.5" fill="grey" stroke="none" />
<circle cx="636.1452597691526" cy="462.32772720531045" r="5" fill="black" stroke="none" />
<circle cx="764.1452597691526" cy="486.32772720531045" r="5" fill="black" stroke="none" />
<path d="M764.1452597691526,486.32772720531045 A264.49886446237446,264.49886446237446,0,0,1,764.2997325384838,489.73838794479724" stroke="grey" stroke-width="5" fill="none" />
<path d="M764.2997325384838,489.73838794479724 L352.14525976915263,-13.672272794689547" stroke="grey" stroke-width="5" />
<circle cx="764.2997325384838" cy="489.73838794479724" r="2.5" fill="grey" stroke="none" />
<circle cx="764.1452597691526" cy="486.32772720531045" r="5" fill="black" stroke="none" />
<circle cx="852.1452597691526" cy="486.32772720531045" r="5" fill="black" stroke="none" />
<path d="M636.1452597691526,518.3277272053105 A137.37335018890067,137.37335018890067,0,0,1,617.2138231121152,571.6404705007171" stroke="grey" stroke-width="5" fill="none" />
<path d="M617.2138231121152,571.6404705007171 L200.14525976915266,122.32772720531045" stroke="grey" stroke-width="5" />
<circle cx="617.2138231121152" cy="571.6404705007171" r="2.5" fill="grey" stroke="none" />
<circle cx="636.1452597691526" cy="518.3277272053105" r="5" fill="black" stroke="none" />
<circle cx="700.1452597691526" cy="622.3277272053105" r="5" fill="black" stroke="none" />
<circle cx="500" cy="500" r="5" fill="red" stroke="none" />
</svg>