<?xml version="1.0" encoding="UTF-8"?>
<svg xmlns="http://www.w3.org/2000/svg" xmlns:xlink="http://www.w3.org/1999/xlink"
     width="1000" height="1000" viewBox="0 0 1000 1000">
<defs>
</defs>
<rect x="0" y="0" width="1000" height="1000" fill="white" />
<path d="M191.38627386421916,611.5026950293561 L320.15216934503974,564.9793451001217" stroke="grey" stroke-width="5" />
<circle cx="320.15216934503974" cy="564.9793451001217" r="2.5" fill="grey" stroke="none" />
<path d="M320.1521693450398,564.9793451001217 A191.22645601729891,191.22645601729891,0,0,1,311.3862738642192,531.5026950293563" stroke="grey" stroke-width="5" fill="none" />
<circle cx="191.38627386421916" cy="611.5026950293561" r="5" fill="black" stroke="none" />
<circle cx="311.38627386421916" cy="531.5026950293561" r="5" fill="black" stroke="none" />
<path d="M311.38627386421916,531.5026950293561 L312.4007391775368,531.33325671732" stroke="grey" stroke-width="5" />
<circle cx="312.4007391775368" cy="531.33325671732" r="2.5" fill="grey" stroke="none" />
<path d="M312.4007391775368,531.3332567173201 A190.19793804783495,190.19793804783495,0,0,1,311.38627386421916,475.50269502935623" stroke="grey" stroke-width="5" fill="none" />
<circle cx="311.38627386421916" cy="531.5026950293561" r="5" fill="black" stroke="none" />
<circle cx="311.38627386421916" cy="475.5026950293562" r="5" fill="black" stroke="none" />
<path d="M311.38627386421916,475.50269502935623 A190.19793804783495,190.19793804783495,0,0,0,310.46511367446215,484.13234411724596" stroke="grey" stroke-width="5" fill="none" />
<path d="M310.46511367446215,484.13234411724596 L207.38627386421916,475.5026950293562" stroke="grey" stroke-width="5" />
<circle cx="310.46511367446215" cy="484.13234411724596" r="2.5" fill="grey" stroke="none" />
<circle cx="311.38627386421916" cy="475.5026950293562" r="5" fill="black" stroke="none" />
<circle cx="207.38627386421916" cy="475.5026950293562" r="5" fill="black" stroke="none" />
<path d="M207.38627386421916,475.5026950293562 L217.57092533798874,476.35534304579573" stroke="grey" stroke-width="5" />
<circle cx="217.57092533798874" cy="476.35534304579573" r="2.5" fill="grey" stroke="none" />
<path d="M217.57092533798874,476.35534304579573 A283.4170990200167,283.4170990200167,0,0,1,247.38627386421913,371.5026950293562" stroke="grey" stroke-width="5" fill="none" />
<circle cx="207.38627386421916" cy="475.5026950293562" r="5" fill="black" stroke="none" />
<circle cx="247.38627386421916" cy="371.5026950293562" r="5" fill="black" stroke="none" />
<path d="M247.38627386421916,371.5026950293562 L269.90395524949054,382.9567890584342" stroke="grey" stroke-width="5" />
<circle cx="269.90395524949054" cy="382.9567890584342" r="2.5" fill="grey" stroke="none" />
<path d="M269.90395524949054,382.9567890584342 A258.1536423088784,258.1536423088784,0,0,1,359.38627386421916,283.50269502935623" stroke="grey" stroke-width="5" fill="none" />
<circle cx="247.38627386421916" cy="371.5026950293562" r="5" fill="black" stroke="none" />
<circle cx="359.38627386421916" cy="283.5026950293562" r="5" fill="black" stroke="none" />
<path d="M359.38627386421916,283.5026950293562 L383.64456851312445,320.8522167225687" stroke="grey" stroke-width="5" />
<circle cx="383.64456851312445" cy="320.8522167225687" r="2.5" fill="grey" stroke="none" />
<path d="M383.64456851312445,320.8522167225687 A213.6176834667825,213.6176834667825,0,0,1,407.3862738642191,307.5026950293562" stroke="grey" stroke-width="5" fill="none" />
<circle cx="359.38627386421916" cy="283.5026950293562" r="5" fill="black" stroke="none" />
<circle cx="407.38627386421916" cy="307.5026950293562" r="5" fill="black" stroke="none" />
<path d="M407.3862738642191,307.5026950293562 A213.6176834667825,213.6176834667825,0,0,0,370.51261283853046,330.1014089057529" stroke="grey" stroke-width="5" fill="none" />
<path d="M370.51261283853046,330.1014089057529 L359.38627386421916,315.5026950293562" stroke="grey" stroke-width="5" />
<circle cx="370.51261283853046" cy="330.1014089057529" r="2.5" fill="grey" stroke="none" />
<circle cx="407.38627386421916" cy="307.5026950293562" r="5" fill="black" stroke="none" />
<circle cx="359.38627386421916" cy="315.5026950293562" r="5" fill="black" stroke="none" />
<path d="M359.38627386421916,283.5026950293562 L373.6466065447447,305.458756348273" stroke="grey" stroke-width="5" />
<circle cx="373.6466065447447" cy="305.458756348273" r="2.5" fill="grey" stroke="none" />
<path d="M373.6466065447447,305.458756348273 A231.97300601410316,231.97300601410316,0,0,0,359.3862738642191,315.5026950293562" stroke="grey" stroke-width="5" fill="none" />
<circle cx="359.38627386421916" cy="283.5026950293562" r="5" fill="black" stroke="none" />
<circle cx="359.38627386421916" cy="315.5026950293562" r="5" fill="black" stroke="none" />
<path d="M359.38627386421916,315.5026950293562 L377.51433672336213,339.28827296518784" stroke="grey" stroke-width="5" />
<circle cx="377.51433672336213" cy="339.28827296518784" r="2.5" fill="grey" stroke="none" />
<path d="M377.51433672336213,339.28827296518784 A202.06681299716158,202.06681299716158,0,0,0,311.38627386421916,427.5026950293562" stroke="grey" stroke-width="5" fill="none" />
<circle cx="359.38627386421916" cy="315.5026950293562" r="5" fill="black" stroke="none" />
<circle cx="311.38627386421916" cy="427.5026950293562" r="5" fill="black" stroke="none" />
<path d="M247.38627386421916,371.5026950293562 L319.8949508124423,408.3857643595861" stroke="grey" stroke-width="5" />
<circle cx="319.8949508124423" cy="408.3857643595861" r="2.5" fill="grey" stroke="none" />
<path d="M319.8949508124423,408.3857643595861 A202.06681299716158,202.06681299716158,0,0,0,311.38627386421916,427.5026950293562" stroke="grey" stroke-width="5" fill="none" />
<circle cx="247.38627386421916" cy="371.5026950293562" r="5" fill="black" stroke="none" />
<circle cx="311.38627386421916" cy="427.5026950293562" r="5" fill="black" stroke="none" />
<path d="M311.38627386421916,427.5026950293562 L322.4649497537804,431.76099669748737" stroke="grey" stroke-width="5" />
<circle cx="322.4649497537804" cy="431.76099669748737" r="2.5" fill="grey" stroke="none" />
<path d="M322.4649497537804,431.76099669748737 A190.19793804783495,190.19793804783495,0,0,0,311.38627386421916,475.50269502935623" stroke="grey" stroke-width="5" fill="none" />
<circle cx="311.38627386421916" cy="427.5026950293562" r="5" fill="black" stroke="none" />
<circle cx="311.38627386421916" cy="475.5026950293562" r="5" fill="black" stroke="none" />
<path d="M407.3862738642191,307.5026950293562 A213.6176834667825,213.6176834667825,0,0,1,452.8508993107119,291.6505891683256" stroke="grey" stroke-width="5" fill="none" />
<path d="M452.85089931071195,291.6505891683256 L447.38627386421916,267.5026950293562" stroke="grey" stroke-width="5" />
<circle cx="452.85089931071195" cy="291.6505891683256" r="2.5" fill="grey" stroke="none" />
<circle cx="407.38627386421916" cy="307.5026950293562" r="5" fill="black" stroke="none" />
<circle cx="447.38627386421916" cy="267.5026950293562" r="5" fill="black" stroke="none" />
<path d="M407.38627386421916,307.5026950293562 L441.0278701183982,377.426634860323" stroke="grey" stroke-width="5" />
<circle cx="441.0278701183982" cy="377.426634860323" r="2.5" fill="grey" stroke="none" />
<path d="M441.0278701183982,377.426634860323 A136.02184362975345,136.02184362975345,0,0,1,455.38627386421916,371.5026950293562" stroke="grey" stroke-width="5" fill="none" />
<circle cx="407.38627386421916" cy="307.5026950293562" r="5" fill="black" stroke="none" />
<circle cx="455.38627386421916" cy="371.5026950293562" r="5" fill="black" stroke="none" />
<path d="M359.38627386421916,315.5026950293562 L403.98684795256634,374.0224849928034" stroke="grey" stroke-width="5" />
<circle cx="403.98684795256634" cy="374.0224849928034" r="2.5" fill="grey" stroke="none" />
<path d="M403.98684795256634,374.0224849928034 A158.39463265361002,158.39463265361002,0,0,1,407.38627386421916,371.5026950293562" stroke="grey" stroke-width="5" fill="none" />
<circle cx="359.38627386421916" cy="315.5026950293562" r="5" fill="black" stroke="none" />
<circle cx="407.38627386421916" cy="371.5026950293562" r="5" fill="black" stroke="none" />
<path d="M311.38627386421916,427.5026950293562 L352.3300719259291,443.2402294895968" stroke="grey" stroke-width="5" />
<circle cx="352.3300719259291" cy="443.2402294895968" r="2.5" fill="grey" stroke="none" />
<path d="M352.3300719259291,443.2402294895968 A158.20265233489266,158.20265233489266,0,0,1,359.3862738642191,427.5026950293562" stroke="grey" stroke-width="5" fill="none" />
<circle cx="311.38627386421916" cy="427.5026950293562" r="5" fill="black" stroke="none" />
<circle cx="359.38627386421916" cy="427.5026950293562" r="5" fill="black" stroke="none" />
<path d="M311.38627386421916,475.5026950293562 L404.9990825713386,487.6612031668072" stroke="grey" stroke-width="5" />
<circle cx="404.9990825713386" cy="487.6612031668072" r="2.5" fill="grey" stroke="none" />
<path d="M404.9990825713386,487.6612031668072 A95.79885291368653,95.79885291368653,0,0,1,407.38627386421916,475.5026950293562" stroke="grey" stroke-width="5" fill="none" />
<circle cx="311.38627386421916" cy="475.5026950293562" r="5" fill="black" stroke="none" />
<circle cx="407.38627386421916" cy="475.5026950293562" r="5" fill="black" stroke="none" />
<path d="M311.38627386421916,531.5026950293561 L403.5116275785984,516.1157081859576" stroke="grey" stroke-width="5" />
<circle cx="403.5116275785984" cy="516.1157081859576" r="2.5" fill="grey" stroke="none" />
<path d="M403.5116275785984,516.1157081859576 A97.82495623748592,97.82495623748592,0,0,0,407.38627386421916,531.5026950293561" stroke="grey" stroke-width="5" fill="none" />
<circle cx="311.38627386421916" cy="531.5026950293561" r="5" fill="black" stroke="none" />
<circle cx="407.38627386421916" cy="531.5026950293561" r="5" fill="black" stroke="none" />
<path d="M455.38627386421916,371.5026950293562 A136.02184362975345,136.02184362975345,0,0,0,420.46769790514816,389.65257199222845" stroke="grey" stroke-width="5" fill="none" />
<path d="M420.46769790514816,389.65257199222845 L407.38627386421916,371.5026950293562" stroke="grey" stroke-width="5" />
<circle cx="420.46769790514816" cy="389.65257199222845" r="2.5" fill="grey" stroke="none" />
<circle cx="455.38627386421916" cy="371.5026950293562" r="5" fill="black" stroke="none" />
<circle cx="407.38627386421916" cy="371.5026950293562" r="5" fill="black" stroke="none" />
<path d="M407.38627386421916,371.5026950293562 L407.49852522250876,371.65843864988994" stroke="grey" stroke-width="5" />
<circle cx="407.49852522250876" cy="371.65843864988994" r="2.5" fill="grey" stroke="none" />
<path d="M407.49852522250876,371.65843864988994 A158.20265233489266,158.20265233489266,0,0,0,359.3862738642191,427.5026950293562" stroke="grey" stroke-width="5" fill="none" />
<circle cx="407.38627386421916" cy="371.5026950293562" r="5" fill="black" stroke="none" />
<circle cx="359.38627386421916" cy="427.5026950293562" r="5" fill="black" stroke="none" />
<path d="M359.38627386421916,427.5026950293562 L414.85203649296824,456.09960671949125" stroke="grey" stroke-width="5" />
<circle cx="414.85203649296824" cy="456.09960671949125" r="2.5" fill="grey" stroke="none" />
<path d="M414.85203649296824,456.09960671949125 A95.79885291368653,95.79885291368653,0,0,0,407.38627386421916,475.5026950293562" stroke="grey" stroke-width="5" fill="none" />
<circle cx="359.38627386421916" cy="427.5026950293562" r="5" fill="black" stroke="none" />
<circle cx="407.38627386421916" cy="475.5026950293562" r="5" fill="black" stroke="none" />
<path d="M407.38627386421916,475.5026950293562 A95.79885291368653,95.79885291368653,0,0,0,409.30444470293247,530.850226400056" stroke="grey" stroke-width="5" fill="none" />
<path d="M409.30444470293247,530.850226400056 L407.38627386421916,531.5026950293561" stroke="grey" stroke-width="5" />
<circle cx="409.30444470293247" cy="530.850226400056" r="2.5" fill="grey" stroke="none" />
<circle cx="407.38627386421916" cy="475.5026950293562" r="5" fill="black" stroke="none" />
<circle cx="407.38627386421916" cy="531.5026950293561" r="5" fill="black" stroke="none" />
<path d="M407.38627386421916,531.5026950293561 A97.82495623748592,97.82495623748592,0,0,0,482.21625491165224,596.1949087711959" stroke="grey" stroke-width="5" fill="none" />
<path d="M482.21625491165224,596.1949087711959 L479.38627386421916,611.5026950293561" stroke="grey" stroke-width="5" />
<circle cx="482.21625491165224" cy="596.1949087711959" r="2.5" fill="grey" stroke="none" />
<circle cx="407.38627386421916" cy="531.5026950293561" r="5" fill="black" stroke="none" />
<circle cx="479.38627386421916" cy="611.5026950293561" r="5" fill="black" stroke="none" />
<path d="M455.38627386421916,371.5026950293562 L458.9980026781401,381.90526524869165" stroke="grey" stroke-width="5" />
<circle cx="458.9980026781401" cy="381.90526524869165" r="2.5" fill="grey" stroke="none" />
<path d="M458.9980026781401,381.90526524869165 A125.01012023177834,125.01012023177834,0,0,0,431.3862738642192,395.5026950293562" stroke="grey" stroke-width="5" fill="none" />
<circle cx="455.38627386421916" cy="371.5026950293562" r="5" fill="black" stroke="none" />
<circle cx="431.38627386421916" cy="395.5026950293562" r="5" fill="black" stroke="none" />
<path d="M431.38627386421916,395.5026950293562 L435.44549497809726,401.6848059650133" stroke="grey" stroke-width="5" />
<circle cx="435.44549497809726" cy="401.6848059650133" r="2.5" fill="grey" stroke="none" />
<path d="M435.44549497809726,401.6848059650133 A117.61446125693878,117.61446125693878,0,0,0,407.3862738642191,427.50269502935623" stroke="grey" stroke-width="5" fill="none" />
<circle cx="431.38627386421916" cy="395.5026950293562" r="5" fill="black" stroke="none" />
<circle cx="407.38627386421916" cy="427.5026950293562" r="5" fill="black" stroke="none" />
<path d="M407.38627386421916,427.5026950293562 L424.56464423632525,440.94978983622525" stroke="grey" stroke-width="5" />
<circle cx="424.56464423632525" cy="440.94978983622525" r="2.5" fill="grey" stroke="none" />
<path d="M424.56464423632525,440.94978983622525 A95.79885291368653,95.79885291368653,0,0,0,407.38627386421916,475.5026950293562" stroke="grey" stroke-width="5" fill="none" />
<circle cx="407.38627386421916" cy="427.5026950293562" r="5" fill="black" stroke="none" />
<circle cx="407.38627386421916" cy="475.5026950293562" r="5" fill="black" stroke="none" />
<path d="M407.38627386421916,371.5026950293562 L426.9062793013581,398.5858089082568" stroke="grey" stroke-width="5" />
<circle cx="426.9062793013581" cy="398.5858089082568" r="2.5" fill="grey" stroke="none" />
<path d="M426.9062793013581,398.5858089082568 A125.01012023177834,125.01012023177834,0,0,1,431.3862738642192,395.5026950293562" stroke="grey" stroke-width="5" fill="none" />
<circle cx="407.38627386421916" cy="371.5026950293562" r="5" fill="black" stroke="none" />
<circle cx="431.38627386421916" cy="395.5026950293562" r="5" fill="black" stroke="none" />
<path d="M359.38627386421916,427.5026950293562 L395.4618813230669,446.1024746370726" stroke="grey" stroke-width="5" />
<circle cx="395.4618813230669" cy="446.1024746370726" r="2.5" fill="grey" stroke="none" />
<path d="M395.4618813230669,446.1024746370726 A117.61446125693878,117.61446125693878,0,0,1,407.3862738642191,427.50269502935623" stroke="grey" stroke-width="5" fill="none" />
<circle cx="359.38627386421916" cy="427.5026950293562" r="5" fill="black" stroke="none" />
<circle cx="407.38627386421916" cy="427.5026950293562" r="5" fill="black" stroke="none" />
<path d="M455.38627386421916,371.5026950293562 L472.0799423567574,419.5841174336624" stroke="grey" stroke-width="5" />
<circle cx="472.0799423567574" cy="419.5841174336624" r="2.5" fill="grey" stroke="none" />
<path d="M472.0799423567574,419.5841174336624 A85.12487173397086,85.12487173397086,0,0,0,455.38627386421916,427.5026950293562" stroke="grey" stroke-width="5" fill="none" />
<circle cx="455.38627386421916" cy="371.5026950293562" r="5" fill="black" stroke="none" />
<circle cx="455.38627386421916" cy="427.5026950293562" r="5" fill="black" stroke="none" />
<path d="M431.38627386421916,395.5026950293562 L453.2779056154095,428.8432035288096" stroke="grey" stroke-width="5" />
<circle cx="453.2779056154095" cy="428.8432035288096" r="2.5" fill="grey" stroke="none" />
<path d="M453.27790561540957,428.84320352880957 A85.12487173397086,85.12487173397086,0,0,1,455.38627386421916,427.5026950293562" stroke="grey" stroke-width="5" fill="none" />
<circle cx="431.38627386421916" cy="395.5026950293562" r="5" fill="black" stroke="none" />
<circle cx="455.38627386421916" cy="427.5026950293562" r="5" fill="black" stroke="none" />
<path d="M407.38627386421916,427.5026950293562 L432.96970904886626,447.5292092423665" stroke="grey" stroke-width="5" />
<circle cx="432.96970904886626" cy="447.5292092423665" r="2.5" fill="grey" stroke="none" />
<path d="M432.96970904886626,447.52920924236656 A85.12487173397086,85.12487173397086,0,0,1,455.38627386421916,427.5026950293562" stroke="grey" stroke-width="5" fill="none" />
<circle cx="407.38627386421916" cy="427.5026950293562" r="5" fill="black" stroke="none" />
<circle cx="455.38627386421916" cy="427.5026950293562" r="5" fill="black" stroke="none" />
<path d="M407.38627386421916,475.5026950293562 L417.7053657916282,478.2322034134075" stroke="grey" stroke-width="5" />
<circle cx="417.7053657916282" cy="478.2322034134075" r="2.5" fill="grey" stroke="none" />
<path d="M417.7053657916282,478.2322034134075 A85.12487173397086,85.12487173397086,0,0,1,455.38627386421916,427.5026950293562" stroke="grey" stroke-width="5" fill="none" />
<circle cx="407.38627386421916" cy="475.5026950293562" r="5" fill="black" stroke="none" />
<circle cx="455.38627386421916" cy="427.5026950293562" r="5" fill="black" stroke="none" />
<path d="M455.38627386421916,427.5026950293562 L476.6166083842676,462.0019886244349" stroke="grey" stroke-width="5" />
<circle cx="476.6166083842676" cy="462.0019886244349" r="2.5" fill="grey" stroke="none" />
<path d="M476.6166083842676,462.0019886244349 A44.61649775534024,44.61649775534024,0,0,0,455.38627386421916,499.5026950293562" stroke="grey" stroke-width="5" fill="none" />
<circle cx="455.38627386421916" cy="427.5026950293562" r="5" fill="black" stroke="none" />
<circle cx="455.38627386421916" cy="499.5026950293562" r="5" fill="black" stroke="none" />
<path d="M455.38627386421916,499.5026950293562 A44.61649775534024,44.61649775534024,0,0,0,457.7602662635553,514.3679074964497" stroke="grey" stroke-width="5" fill="none" />
<path d="M457.7602662635553,514.3679074964497 L407.38627386421916,531.5026950293561" stroke="grey" stroke-width="5" />
<circle cx="457.7602662635553" cy="514.3679074964497" r="2.5" fill="grey" stroke="none" />
<circle cx="455.38627386421916" cy="499.5026950293562" r="5" fill="black" stroke="none" />
<circle cx="407.38627386421916" cy="531.5026950293561" r="5" fill="black" stroke="none" />
<path d="M455.38627386421916,371.5026950293562 A136.02184362975345,136.02184362975345,0,0,1,533.6629671341349,368.2094594131913" stroke="grey" stroke-width="5" fill="none" />
<path d="M533.6629671341349,368.2094594131913 L559.3862738642192,267.5026950293562" stroke="grey" stroke-width="5" />
<circle cx="533.6629671341349" cy="368.2094594131913" r="2.5" fill="grey" stroke="none" />
<circle cx="455.38627386421916" cy="371.5026950293562" r="5" fill="black" stroke="none" />
<circle cx="559.3862738642192" cy="267.5026950293562" r="5" fill="black" stroke="none" />
<path d="M455.38627386421916,371.5026950293562 L456.15116590067584,373.70575166217486" stroke="grey" stroke-width="5" />
<circle cx="456.15116590067584" cy="373.70575166217486" r="2.5" fill="grey" stroke="none" />
<path d="M456.15116590067584,373.70575166217486 A133.68978051850598,133.68978051850598,0,0,1,583.3862738642192,395.5026950293562" stroke="grey" stroke-width="5" fill="none" />
<circle cx="455.38627386421916" cy="371.5026950293562" r="5" fill="black" stroke="none" />
<circle cx="583.3862738642192" cy="395.5026950293562" r="5" fill="black" stroke="none" />
<path d="M583.3862738642192,395.5026950293562 A133.68978051850598,133.68978051850598,0,0,1,614.1457536416576,430.4032734917489" stroke="grey" stroke-width="5" fill="none" />
<path d="M614.1457536416576,430.4032734917489 L671.3862738642192,395.5026950293562" stroke="grey" stroke-width="5" />
<circle cx="614.1457536416576" cy="430.4032734917489" r="2.5" fill="grey" stroke="none" />
<circle cx="583.3862738642192" cy="395.5026950293562" r="5" fill="black" stroke="none" />
<circle cx="671.3862738642192" cy="395.5026950293562" r="5" fill="black" stroke="none" />
<path d="M455.38627386421916,427.5026950293562 L519.3862738642192,531.5026950293561" stroke="grey" stroke-width="5" />
<circle cx="455.38627386421916" cy="427.5026950293562" r="5" fill="black" stroke="none" />
<circle cx="519.3862738642192" cy="531.5026950293561" r="5" fill="black" stroke="none" />
<circle cx="500" cy="500" r="5" fill="red" stroke="none" />
</svg>