<?xml version="1.0" encoding="UTF-8"?>
<svg xmlns="http://www.w3.org/2000/svg" xmlns:xlink="http://www.w3.org/1999/xlink"
     width="1000" height="1000" viewBox="0 0 1000 1000">
<defs>
</defs>
<rect x="0" y="0" width="1000" height="1000" fill="white" />
<path d="M318.5623505537427,684.0 L415.18849042498323,586.0092588800069" stroke="grey" stroke-width="5" />
<circle cx="415.18849042498323" cy="586.0092588800069" r="2.5" fill="grey" stroke="none" />
<path d="M415.18849042498323,586.0092588800069 A120.79149295161973,120.79149295161973,0,0,0,438.5623505537427,604.0" stroke="grey" stroke-width="5" fill="none" />
<circle cx="318.5623505537427" cy="684.0" r="5" fill="black" stroke="none" />
<circle cx="438.5623505537427" cy="604.0" r="5" fill="black" stroke="none" />
<path d="M438.5623505537427,604.0 L460.3448605620416,567.1271531173286" stroke="grey" stroke-width="5" />
<circle cx="460.3448605620416" cy="567.1271531173286" r="2.5" fill="grey" stroke="none" />
<path d="M460.3448605620416,567.1271531173286 A77.96527925609708,77.96527925609708,0,0,1,438.5623505537427,548.0" stroke="grey" stroke-width="5" fill="none" />
<circle cx="438.5623505537427" cy="604.0" r="5" fill="black" stroke="none" />
<circle cx="438.5623505537427" cy="548.0" r="5" fill="black" stroke="none" />
<path d="M438.5623505537427,548.0 A77.96527925609708,77.96527925609708,0,0,1,425.1226691583419,521.7248727386395" stroke="grey" stroke-width="5" fill="none" />
<path d="M425.1226691583419,521.7248727386395 L-165.4376494462573,48.0" stroke="grey" stroke-width="5" />
<circle cx="425.1226691583419" cy="521.7248727386395" r="2.5" fill="grey" stroke="none" />
<circle cx="438.5623505537427" cy="548.0" r="5" fill="black" stroke="none" />
<circle cx="334.5623505537427" cy="548.0" r="5" fill="black" stroke="none" />
<path d="M334.5623505537427,548.0 L368.0704700049142,538.2779703468966" stroke="grey" stroke-width="5" />
<circle cx="368.0704700049142" cy="538.2779703468966" r="2.5" fill="grey" stroke="none" />
<path d="M368.0704700049142,538.2779703468966 A137.37031665757394,137.37031665757394,0,0,1,374.5623505537427,444.0" stroke="grey" stroke-width="5" fill="none" />
<circle cx="334.5623505537427" cy="548.0" r="5" fill="black" stroke="none" />
<circle cx="374.5623505537427" cy="444.0" r="5" fill="black" stroke="none" />
<path d="M374.5623505537427,444.0 A137.37031665757394,137.37031665757394,0,0,1,487.2364651631691,363.22391993820287" stroke="grey" stroke-width="5" fill="none" />
<path d="M487.2364651631691,363.22391993820287 L-13.437649446257296,-144.0" stroke="grey" stroke-width="5" />
<circle cx="487.2364651631691" cy="363.22391993820287" r="2.5" fill="grey" stroke="none" />
<circle cx="374.5623505537427" cy="444.0" r="5" fill="black" stroke="none" />
<circle cx="486.5623505537427" cy="356.0" r="5" fill="black" stroke="none" />
<path d="M486.5623505537427,356.0 L488.3971526949892,375.66203311049196" stroke="grey" stroke-width="5" />
<circle cx="488.3971526949892" cy="375.66203311049196" r="2.5" fill="grey" stroke="none" />
<path d="M488.3971526949892,375.66203311049196 A124.87816492806017,124.87816492806017,0,0,1,534.5623505537427,380.0" stroke="grey" stroke-width="5" fill="none" />
<circle cx="486.5623505537427" cy="356.0" r="5" fill="black" stroke="none" />
<circle cx="534.5623505537427" cy="380.0" r="5" fill="black" stroke="none" />
<path d="M534.5623505537427,380.0 L531.220390251929,391.6032396463909" stroke="grey" stroke-width="5" />
<circle cx="531.220390251929" cy="391.6032396463909" r="2.5" fill="grey" stroke="none" />
<path d="M531.220390251929,391.6032396463909 A112.80323764254508,112.80323764254508,0,0,0,486.56235055374265,388.0" stroke="grey" stroke-width="5" fill="none" />
<circle cx="534.5623505537427" cy="380.0" r="5" fill="black" stroke="none" />
<circle cx="486.5623505537427" cy="388.0" r="5" fill="black" stroke="none" />
<path d="M486.5623505537427,356.0 L489.5190745104935,387.6847266685251" stroke="grey" stroke-width="5" />
<circle cx="489.5190745104935" cy="387.6847266685251" r="2.5" fill="grey" stroke="none" />
<path d="M489.51907451049357,387.6847266685251 A112.80323764254508,112.80323764254508,0,0,0,486.56235055374265,388.0" stroke="grey" stroke-width="5" fill="none" />
<circle cx="486.5623505537427" cy="356.0" r="5" fill="black" stroke="none" />
<circle cx="486.5623505537427" cy="388.0" r="5" fill="black" stroke="none" />
<path d="M486.5623505537427,388.0 L492.6812597464891,438.99982942169066" stroke="grey" stroke-width="5" />
<circle cx="492.6812597464891" cy="438.99982942169066" r="2.5" fill="grey" stroke="none" />
<path d="M492.6812597464891,438.99982942169066 A61.437649446257296,61.437649446257296,0,0,0,438.5623505537427,500.0" stroke="grey" stroke-width="5" fill="none" />
<circle cx="486.5623505537427" cy="388.0" r="5" fill="black" stroke="none" />
<circle cx="438.5623505537427" cy="500.0" r="5" fill="black" stroke="none" />
<path d="M374.5623505537427,444.0 L443.89912958232406,474.95449924915994" stroke="grey" stroke-width="5" />
<circle cx="443.89912958232406" cy="474.95449924915994" r="2.5" fill="grey" stroke="none" />
<path d="M443.89912958232406,474.95449924915994 A61.437649446257296,61.437649446257296,0,0,0,438.5623505537427,500.0" stroke="grey" stroke-width="5" fill="none" />
<circle cx="374.5623505537427" cy="444.0" r="5" fill="black" stroke="none" />
<circle cx="438.5623505537427" cy="500.0" r="5" fill="black" stroke="none" />
<path d="M438.5623505537427,500.0 A61.437649446257296,61.437649446257296,0,0,0,451.58633682202816,537.8246214412134" stroke="grey" stroke-width="5" fill="none" />
<path d="M451.58633682202816,537.8246214412133 L-61.437649446257296,48.0" stroke="grey" stroke-width="5" />
<circle cx="451.58633682202816" cy="537.8246214412133" r="2.5" fill="grey" stroke="none" />
<circle cx="438.5623505537427" cy="500.0" r="5" fill="black" stroke="none" />
<circle cx="438.5623505537427" cy="548.0" r="5" fill="black" stroke="none" />
<path d="M534.5623505537427,380.0 A124.87816492806017,124.87816492806017,0,0,1,552.7485530776063,386.80924850492977" stroke="grey" stroke-width="5" fill="none" />
<path d="M552.7485530776063,386.80924850492977 L74.5623505537427,-160.0" stroke="grey" stroke-width="5" />
<circle cx="552.7485530776063" cy="386.80924850492977" r="2.5" fill="grey" stroke="none" />
<circle cx="534.5623505537427" cy="380.0" r="5" fill="black" stroke="none" />
<circle cx="574.5623505537427" cy="340.0" r="5" fill="black" stroke="none" />
<path d="M534.5623505537427,380.0 L527.6111036437513,404.1346325071816" stroke="grey" stroke-width="5" />
<circle cx="527.6111036437513" cy="404.1346325071816" r="2.5" fill="grey" stroke="none" />
<path d="M527.6111036437513,404.1346325071816 A99.7624264388106,99.7624264388106,0,0,1,582.5623505537427,444.0" stroke="grey" stroke-width="5" fill="none" />
<circle cx="534.5623505537427" cy="380.0" r="5" fill="black" stroke="none" />
<circle cx="582.5623505537427" cy="444.0" r="5" fill="black" stroke="none" />
<path d="M486.5623505537427,388.0 L492.1607669477216,434.6616307140141" stroke="grey" stroke-width="5" />
<circle cx="492.1607669477216" cy="434.6616307140141" r="2.5" fill="grey" stroke="none" />
<path d="M492.1607669477216,434.6616307140141 A65.8069606941378,65.8069606941378,0,0,1,534.5623505537427,444.0" stroke="grey" stroke-width="5" fill="none" />
<circle cx="486.5623505537427" cy="388.0" r="5" fill="black" stroke="none" />
<circle cx="534.5623505537427" cy="444.0" r="5" fill="black" stroke="none" />
<path d="M438.5623505537427,500.0 L486.5623505537427,500.0" stroke="grey" stroke-width="5" />
<circle cx="486.5623505537427" cy="500.0" r="2.5" fill="grey" stroke="none" />
<path d="M486.5623505537427,500.0 A13.437649446257296,13.437649446257296,0,0,1,486.5623505537427,500.0" stroke="grey" stroke-width="5" fill="none" />
<circle cx="438.5623505537427" cy="500.0" r="5" fill="black" stroke="none" />
<circle cx="486.5623505537427" cy="500.0" r="5" fill="black" stroke="none" />
<path d="M438.5623505537427,548.0 L453.39014279137086,536.4153441119399" stroke="grey" stroke-width="5" />
<circle cx="453.39014279137086" cy="536.4153441119399" r="2.5" fill="grey" stroke="none" />
<path d="M453.3901427913709,536.41534411194 A59.1485931852973,59.1485931852973,0,0,0,534.5623505537427,548.0" stroke="grey" stroke-width="5" fill="none" />
<circle cx="438.5623505537427" cy="548.0" r="5" fill="black" stroke="none" />
<circle cx="534.5623505537427" cy="548.0" r="5" fill="black" stroke="none" />
<path d="M438.5623505537427,604.0 L444.25835255531314,594.3579610629226" stroke="grey" stroke-width="5" />
<circle cx="444.25835255531314" cy="594.3579610629226" r="2.5" fill="grey" stroke="none" />
<path d="M444.25835255531314,594.3579610629226 A109.59268258328107,109.59268258328107,0,0,0,534.5623505537427,604.0" stroke="grey" stroke-width="5" fill="none" />
<circle cx="438.5623505537427" cy="604.0" r="5" fill="black" stroke="none" />
<circle cx="534.5623505537427" cy="604.0" r="5" fill="black" stroke="none" />
<path d="M582.5623505537427,444.0 L554.4611588917018,463.0603431530203" stroke="grey" stroke-width="5" />
<circle cx="554.4611588917018" cy="463.0603431530203" r="2.5" fill="grey" stroke="none" />
<path d="M554.4611588917018,463.0603431530203 A65.8069606941378,65.8069606941378,0,0,0,534.5623505537427,444.0" stroke="grey" stroke-width="5" fill="none" />
<circle cx="582.5623505537427" cy="444.0" r="5" fill="black" stroke="none" />
<circle cx="534.5623505537427" cy="444.0" r="5" fill="black" stroke="none" />
<path d="M534.5623505537427,444.0 L507.05756269368663,488.564912266835" stroke="grey" stroke-width="5" />
<circle cx="507.05756269368663" cy="488.564912266835" r="2.5" fill="grey" stroke="none" />
<path d="M507.05756269368663,488.564912266835 A13.437649446257296,13.437649446257296,0,0,0,486.5623505537427,500.0" stroke="grey" stroke-width="5" fill="none" />
<circle cx="534.5623505537427" cy="444.0" r="5" fill="black" stroke="none" />
<circle cx="486.5623505537427" cy="500.0" r="5" fill="black" stroke="none" />
<path d="M486.5623505537427,500.0 A13.437649446257296,13.437649446257296,0,0,0,507.85203376392894,510.9048607698869" stroke="grey" stroke-width="5" fill="none" />
<path d="M507.85203376392894,510.9048607698869 L34.562350553742704,48.0" stroke="grey" stroke-width="5" />
<circle cx="507.85203376392894" cy="510.9048607698869" r="2.5" fill="grey" stroke="none" />
<circle cx="486.5623505537427" cy="500.0" r="5" fill="black" stroke="none" />
<circle cx="534.5623505537427" cy="548.0" r="5" fill="black" stroke="none" />
<path d="M534.5623505537427,548.0 A59.1485931852973,59.1485931852973,0,0,1,518.6537491759768,556.1301498080982" stroke="grey" stroke-width="5" fill="none" />
<path d="M518.6537491759767,556.1301498080982 L34.562350553742704,104.0" stroke="grey" stroke-width="5" />
<circle cx="518.6537491759767" cy="556.1301498080982" r="2.5" fill="grey" stroke="none" />
<circle cx="534.5623505537427" cy="548.0" r="5" fill="black" stroke="none" />
<circle cx="534.5623505537427" cy="604.0" r="5" fill="black" stroke="none" />
<path d="M534.5623505537427,604.0 A109.59268258328107,109.59268258328107,0,0,0,554.9238187428406,594.8363338099032" stroke="grey" stroke-width="5" fill="none" />
<path d="M554.9238187428406,594.8363338099032 L106.5623505537427,184.0" stroke="grey" stroke-width="5" />
<circle cx="554.9238187428406" cy="594.8363338099032" r="2.5" fill="grey" stroke="none" />
<circle cx="534.5623505537427" cy="604.0" r="5" fill="black" stroke="none" />
<circle cx="606.5623505537427" cy="684.0" r="5" fill="black" stroke="none" />
<path d="M582.5623505537427,444.0 L555.2291243997743,462.5394511463899" stroke="grey" stroke-width="5" />
<circle cx="555.2291243997743" cy="462.5394511463899" r="2.5" fill="grey" stroke="none" />
<path d="M555.2291243997743,462.5394511463899 A66.73491516724546,66.73491516724546,0,0,1,558.5623505537427,468.0" stroke="grey" stroke-width="5" fill="none" />
<circle cx="582.5623505537427" cy="444.0" r="5" fill="black" stroke="none" />
<circle cx="558.5623505537427" cy="468.0" r="5" fill="black" stroke="none" />
<path d="M558.5623505537427,468.0 L530.3297379492745,483.4270379313735" stroke="grey" stroke-width="5" />
<circle cx="530.3297379492745" cy="483.4270379313735" r="2.5" fill="grey" stroke="none" />
<path d="M530.3297379492745,483.4270379313735 A34.562350553742704,34.562350553742704,0,0,1,534.5623505537427,500.0" stroke="grey" stroke-width="5" fill="none" />
<circle cx="558.5623505537427" cy="468.0" r="5" fill="black" stroke="none" />
<circle cx="534.5623505537427" cy="500.0" r="5" fill="black" stroke="none" />
<path d="M534.5623505537427,500.0 A34.562350553742704,34.562350553742704,0,0,1,520.1958493257407,528.0478830896697" stroke="grey" stroke-width="5" fill="none" />
<path d="M520.1958493257407,528.0478830896697 L34.562350553742704,48.0" stroke="grey" stroke-width="5" />
<circle cx="520.1958493257407" cy="528.0478830896697" r="2.5" fill="grey" stroke="none" />
<circle cx="534.5623505537427" cy="500.0" r="5" fill="black" stroke="none" />
<circle cx="534.5623505537427" cy="548.0" r="5" fill="black" stroke="none" />
<path d="M534.5623505537427,444.0 A65.8069606941378,65.8069606941378,0,0,1,557.7480362624028,468.44496262661045" stroke="grey" stroke-width="5" fill="none" />
<path d="M557.7480362624028,468.4449626266105 L58.562350553742704,-32.0" stroke="grey" stroke-width="5" />
<circle cx="557.7480362624028" cy="468.4449626266105" r="2.5" fill="grey" stroke="none" />
<circle cx="534.5623505537427" cy="444.0" r="5" fill="black" stroke="none" />
<circle cx="558.5623505537427" cy="468.0" r="5" fill="black" stroke="none" />
<path d="M486.5623505537427,500.0 L534.5623505537427,500.0" stroke="grey" stroke-width="5" />
<circle cx="486.5623505537427" cy="500.0" r="5" fill="black" stroke="none" />
<circle cx="534.5623505537427" cy="500.0" r="5" fill="black" stroke="none" />
<path d="M582.5623505537427,444.0 L568.3277459489223,453.654980175874" stroke="grey" stroke-width="5" />
<circle cx="568.3277459489223" cy="453.654980175874" r="2.5" fill="grey" stroke="none" />
<path d="M568.3277459489223,453.654980175874 A82.5623505537427,82.5623505537427,0,0,1,582.5623505537427,500.0" stroke="grey" stroke-width="5" fill="none" />
<circle cx="582.5623505537427" cy="444.0" r="5" fill="black" stroke="none" />
<circle cx="582.5623505537427" cy="500.0" r="5" fill="black" stroke="none" />
<path d="M558.5623505537427,468.0 A66.73491516724546,66.73491516724546,0,0,1,566.7349151672455,500.0" stroke="grey" stroke-width="5" fill="none" />
<path d="M566.7349151672455,500.0 L82.5623505537427,0.0" stroke="grey" stroke-width="5" />
<circle cx="566.7349151672455" cy="500.0" r="2.5" fill="grey" stroke="none" />
<circle cx="558.5623505537427" cy="468.0" r="5" fill="black" stroke="none" />
<circle cx="582.5623505537427" cy="500.0" r="5" fill="black" stroke="none" />
<path d="M534.5623505537427,500.0 A34.562350553742704,34.562350553742704,0,0,1,534.5623505537427,500.0" stroke="grey" stroke-width="5" fill="none" />
<path d="M534.5623505537427,500.0 L82.5623505537427,0.0" stroke="grey" stroke-width="5" />
<circle cx="534.5623505537427" cy="500.0" r="2.5" fill="grey" stroke="none" />
<circle cx="534.5623505537427" cy="500.0" r="5" fill="black" stroke="none" />
<circle cx="582.5623505537427" cy="500.0" r="5" fill="black" stroke="none" />
<path d="M534.5623505537427,548.0 A59.1485931852973,59.1485931852973,0,0,0,559.1485931852973,500.0" stroke="grey" stroke-width="5" fill="none" />
<path d="M559.1485931852973,500.0 L82.5623505537427,0.0" stroke="grey" stroke-width="5" />
<circle cx="559.1485931852973" cy="500.0" r="2.5" fill="grey" stroke="none" />
<circle cx="534.5623505537427" cy="548.0" r="5" fill="black" stroke="none" />
<circle cx="582.5623505537427" cy="500.0" r="5" fill="black" stroke="none" />
<path d="M582.5623505537427,500.0 A82.5623505537427,82.5623505537427,0,0,1,562.2248232934227,554.2642893168372" stroke="grey" stroke-width="5" fill="none" />
<path d="M562.2248232934227,554.2642893168372 L82.5623505537427,72.0" stroke="grey" stroke-width="5" />
<circle cx="562.2248232934227" cy="554.2642893168372" r="2.5" fill="grey" stroke="none" />
<circle cx="582.5623505537427" cy="500.0" r="5" fill="black" stroke="none" />
<circle cx="582.5623505537427" cy="572.0" r="5" fill="black" stroke="none" />
<path d="M582.5623505537427,572.0 A109.54698411621882,109.54698411621882,0,0,1,534.5479385838818,603.9566335957616" stroke="grey" stroke-width="5" fill="none" />
<path d="M534.5479385838818,603.9566335957617 L34.562350553742704,104.0" stroke="grey" stroke-width="5" />
<circle cx="534.5479385838818" cy="603.9566335957617" r="2.5" fill="grey" stroke="none" />
<circle cx="582.5623505537427" cy="572.0" r="5" fill="black" stroke="none" />
<circle cx="534.5623505537427" cy="604.0" r="5" fill="black" stroke="none" />
<path d="M582.5623505537427,444.0 A99.7624264388106,99.7624264388106,0,0,0,575.727344608335,435.0545536043552" stroke="grey" stroke-width="5" fill="none" />
<path d="M575.727344608335,435.0545536043552 L186.5623505537427,-160.0" stroke="grey" stroke-width="5" />
<circle cx="575.727344608335" cy="435.0545536043552" r="2.5" fill="grey" stroke="none" />
<circle cx="582.5623505537427" cy="444.0" r="5" fill="black" stroke="none" />
<circle cx="686.5623505537427" cy="340.0" r="5" fill="black" stroke="none" />
<path d="M582.5623505537427,444.0 A99.7624264388106,99.7624264388106,0,0,1,598.629944905325,485.010814000365" stroke="grey" stroke-width="5" fill="none" />
<path d="M598.629944905325,485.010814000365 L210.5623505537427,-32.0" stroke="grey" stroke-width="5" />
<circle cx="598.629944905325" cy="485.010814000365" r="2.5" fill="grey" stroke="none" />
<circle cx="582.5623505537427" cy="444.0" r="5" fill="black" stroke="none" />
<circle cx="710.5623505537427" cy="468.0" r="5" fill="black" stroke="none" />
<path d="M710.5623505537427,468.0 A212.98005416169192,212.98005416169192,0,0,1,711.7671775712695,477.3027320098727" stroke="grey" stroke-width="5" fill="none" />
<path d="M711.7671775712695,477.3027320098727 L298.5623505537427,-32.0" stroke="grey" stroke-width="5" />
<circle cx="711.7671775712695" cy="477.3027320098727" r="2.5" fill="grey" stroke="none" />
<circle cx="710.5623505537427" cy="468.0" r="5" fill="black" stroke="none" />
<circle cx="798.5623505537427" cy="468.0" r="5" fill="black" stroke="none" />
<path d="M582.5623505537427,500.0 A82.5623505537427,82.5623505537427,0,0,1,567.3327866178245,547.7790495430542" stroke="grey" stroke-width="5" fill="none" />
<path d="M567.3327866178245,547.7790495430542 L146.5623505537427,104.0" stroke="grey" stroke-width="5" />
<circle cx="567.3327866178245" cy="547.7790495430542" r="2.5" fill="grey" stroke="none" />
<circle cx="582.5623505537427" cy="500.0" r="5" fill="black" stroke="none" />
<circle cx="646.5623505537427" cy="604.0" r="5" fill="black" stroke="none" />
<circle cx="500" cy="500" r="5" fill="red" stroke="none" />
</svg>