<?xml version="1.0" encoding="UTF-8"?>
<svg xmlns="http://www.w3.org/2000/svg" xmlns:xlink="http://www.w3.org/1999/xlink"
     width="1000" height="1000" viewBox="0 0 1000 1000">
<defs>
</defs>
<rect x="0" y="0" width="1000" height="1000" fill="white" />
<path d="M289.0120367738824,803.1646605376862 L362.3332067310756,697.8108419576372" stroke="grey" stroke-width="5" />
<circle cx="362.3332067310756" cy="697.8108419576372" r="2.5" fill="grey" stroke="none" />
<path d="M362.3332067310756,697.8108419576372 A241.00057088093808,241.00057088093808,0,0,0,409.0120367738824,723.1646605376862" stroke="grey" stroke-width="5" fill="none" />
<circle cx="289.0120367738824" cy="803.1646605376862" r="5" fill="black" stroke="none" />
<circle cx="409.0120367738824" cy="723.1646605376862" r="5" fill="black" stroke="none" />
<path d="M409.0120367738824,723.1646605376862 L428.1449857238782,676.2375956148277" stroke="grey" stroke-width="5" />
<circle cx="428.1449857238782" cy="676.2375956148277" r="2.5" fill="grey" stroke="none" />
<path d="M428.1449857238782,676.2375956148277 A190.32297072270916,190.32297072270916,0,0,1,409.01203677388236,667.1646605376862" stroke="grey" stroke-width="5" fill="none" />
<circle cx="409.0120367738824" cy="723.1646605376862" r="5" fill="black" stroke="none" />
<circle cx="409.0120367738824" cy="667.1646605376862" r="5" fill="black" stroke="none" />
<path d="M409.01203677388236,667.1646605376862 A190.32297072270916,190.32297072270916,0,0,1,355.5077897324909,623.8742683398257" stroke="grey" stroke-width="5" fill="none" />
<path d="M355.5077897324909,623.8742683398257 L305.0120367738824,667.1646605376862" stroke="grey" stroke-width="5" />
<circle cx="355.5077897324909" cy="623.8742683398257" r="2.5" fill="grey" stroke="none" />
<circle cx="409.0120367738824" cy="667.1646605376862" r="5" fill="black" stroke="none" />
<circle cx="305.0120367738824" cy="667.1646605376862" r="5" fill="black" stroke="none" />
<path d="M305.0120367738824,667.1646605376862 L372.93736210866484,608.9317636776204" stroke="grey" stroke-width="5" />
<circle cx="372.93736210866484" cy="608.9317636776204" r="2.5" fill="grey" stroke="none" />
<path d="M372.93736210866484,608.9317636776204 A167.36499958420674,167.36499958420674,0,0,1,345.0120367738824,563.1646605376862" stroke="grey" stroke-width="5" fill="none" />
<circle cx="305.0120367738824" cy="667.1646605376862" r="5" fill="black" stroke="none" />
<circle cx="345.0120367738824" cy="563.1646605376862" r="5" fill="black" stroke="none" />
<path d="M345.0120367738824,563.1646605376862 L454.02512397069984,518.7368578643506" stroke="grey" stroke-width="5" />
<circle cx="454.02512397069984" cy="518.7368578643506" r="2.5" fill="grey" stroke="none" />
<path d="M454.02512397069984,518.7368578643506 A49.64633993093948,49.64633993093948,0,0,1,457.0120367738824,475.16466053768625" stroke="grey" stroke-width="5" fill="none" />
<circle cx="345.0120367738824" cy="563.1646605376862" r="5" fill="black" stroke="none" />
<circle cx="457.0120367738824" cy="475.16466053768625" r="5" fill="black" stroke="none" />
<path d="M457.0120367738824,475.16466053768625 L495.60029566343775,497.4581686934646" stroke="grey" stroke-width="5" />
<circle cx="495.60029566343775" cy="497.4581686934646" r="2.5" fill="grey" stroke="none" />
<path d="M495.60029566343775,497.4581686934646 A5.081171581441454,5.081171581441454,0,0,1,505.0120367738824,499.16466053768625" stroke="grey" stroke-width="5" fill="none" />
<circle cx="457.0120367738824" cy="475.16466053768625" r="5" fill="black" stroke="none" />
<circle cx="505.0120367738824" cy="499.16466053768625" r="5" fill="black" stroke="none" />
<path d="M505.0120367738824,499.16466053768625 L457.0120367738824,507.16466053768625" stroke="grey" stroke-width="5" />
<circle cx="505.0120367738824" cy="499.16466053768625" r="5" fill="black" stroke="none" />
<circle cx="457.0120367738824" cy="507.16466053768625" r="5" fill="black" stroke="none" />
<path d="M457.0120367738824,475.16466053768625 L462.26397834678653,478.19885294901843" stroke="grey" stroke-width="5" />
<circle cx="462.26397834678653" cy="478.19885294901843" r="2.5" fill="grey" stroke="none" />
<path d="M462.26397834678653,478.19885294901843 A43.5809286609443,43.5809286609443,0,0,0,457.0120367738824,507.16466053768625" stroke="grey" stroke-width="5" fill="none" />
<circle cx="457.0120367738824" cy="475.16466053768625" r="5" fill="black" stroke="none" />
<circle cx="457.0120367738824" cy="507.16466053768625" r="5" fill="black" stroke="none" />
<path d="M457.0120367738824,507.16466053768625 A43.5809286609443,43.5809286609443,0,0,0,473.55207034392186,534.6381922140498" stroke="grey" stroke-width="5" fill="none" />
<path d="M473.55207034392186,534.6381922140498 L409.0120367738824,619.1646605376862" stroke="grey" stroke-width="5" />
<circle cx="473.55207034392186" cy="534.6381922140498" r="2.5" fill="grey" stroke="none" />
<circle cx="457.0120367738824" cy="507.16466053768625" r="5" fill="black" stroke="none" />
<circle cx="409.0120367738824" cy="619.1646605376862" r="5" fill="black" stroke="none" />
<path d="M345.0120367738824,563.1646605376862 L361.15761256624205,556.5846023648976" stroke="grey" stroke-width="5" />
<circle cx="361.15761256624205" cy="556.5846023648976" r="2.5" fill="grey" stroke="none" />
<path d="M361.15761256624205,556.5846023648976 A149.93006960946602,149.93006960946602,0,0,0,409.0120367738824,619.1646605376862" stroke="grey" stroke-width="5" fill="none" />
<circle cx="345.0120367738824" cy="563.1646605376862" r="5" fill="black" stroke="none" />
<circle cx="409.0120367738824" cy="619.1646605376862" r="5" fill="black" stroke="none" />
<path d="M409.0120367738824,619.1646605376862 A149.93006960946602,149.93006960946602,0,0,0,428.3227263198261,631.6867275425916" stroke="grey" stroke-width="5" fill="none" />
<path d="M428.32272631982613,631.6867275425917 L409.0120367738824,667.1646605376862" stroke="grey" stroke-width="5" />
<circle cx="428.32272631982613" cy="631.6867275425917" r="2.5" fill="grey" stroke="none" />
<circle cx="409.0120367738824" cy="619.1646605376862" r="5" fill="black" stroke="none" />
<circle cx="409.0120367738824" cy="667.1646605376862" r="5" fill="black" stroke="none" />
<path d="M505.0120367738824,499.16466053768625 A5.081171581441454,5.081171581441454,0,0,0,503.76328492387836,496.5859128274518" stroke="grey" stroke-width="5" fill="none" />
<path d="M503.76328492387836,496.5859128274518 L545.0120367738824,459.16466053768625" stroke="grey" stroke-width="5" />
<circle cx="503.76328492387836" cy="496.5859128274518" r="2.5" fill="grey" stroke="none" />
<circle cx="505.0120367738824" cy="499.16466053768625" r="5" fill="black" stroke="none" />
<circle cx="545.0120367738824" cy="459.16466053768625" r="5" fill="black" stroke="none" />
<path d="M505.0120367738824,499.16466053768625 A5.081171581441454,5.081171581441454,0,0,1,503.26649716605505,503.89208182136537" stroke="grey" stroke-width="5" fill="none" />
<path d="M503.26649716605505,503.89208182136537 L553.0120367738824,563.1646605376862" stroke="grey" stroke-width="5" />
<circle cx="503.26649716605505" cy="503.89208182136537" r="2.5" fill="grey" stroke="none" />
<circle cx="505.0120367738824" cy="499.16466053768625" r="5" fill="black" stroke="none" />
<circle cx="553.0120367738824" cy="563.1646605376862" r="5" fill="black" stroke="none" />
<path d="M457.0120367738824,507.16466053768625 A43.5809286609443,43.5809286609443,0,0,0,503.44725683334053,543.4443755079446" stroke="grey" stroke-width="5" fill="none" />
<path d="M503.44725683334053,543.4443755079446 L505.0120367738824,563.1646605376862" stroke="grey" stroke-width="5" />
<circle cx="503.44725683334053" cy="543.4443755079446" r="2.5" fill="grey" stroke="none" />
<circle cx="457.0120367738824" cy="507.16466053768625" r="5" fill="black" stroke="none" />
<circle cx="505.0120367738824" cy="563.1646605376862" r="5" fill="black" stroke="none" />
<path d="M409.0120367738824,619.1646605376862 L423.1209316313673,600.6865936962968" stroke="grey" stroke-width="5" />
<circle cx="423.1209316313673" cy="600.6865936962968" r="2.5" fill="grey" stroke="none" />
<path d="M423.1209316313673,600.6865936962968 A126.6814165668826,126.6814165668826,0,0,0,457.0120367738824,619.1646605376862" stroke="grey" stroke-width="5" fill="none" />
<circle cx="409.0120367738824" cy="619.1646605376862" r="5" fill="black" stroke="none" />
<circle cx="457.0120367738824" cy="619.1646605376862" r="5" fill="black" stroke="none" />
<path d="M409.0120367738824,667.1646605376862 L420.0474490409619,646.8902101586251" stroke="grey" stroke-width="5" />
<circle cx="420.0474490409619" cy="646.8902101586251" r="2.5" fill="grey" stroke="none" />
<path d="M420.04744904096185,646.890210158625 A167.23978069018935,167.23978069018935,0,0,0,505.0120367738824,667.1646605376862" stroke="grey" stroke-width="5" fill="none" />
<circle cx="409.0120367738824" cy="667.1646605376862" r="5" fill="black" stroke="none" />
<circle cx="505.0120367738824" cy="667.1646605376862" r="5" fill="black" stroke="none" />
<path d="M409.0120367738824,723.1646605376862 L415.7246049956513,706.7008563658711" stroke="grey" stroke-width="5" />
<circle cx="415.7246049956513" cy="706.7008563658711" r="2.5" fill="grey" stroke="none" />
<path d="M415.7246049956513,706.7008563658711 A223.22093590325144,223.22093590325144,0,0,0,505.01203677388247,723.1646605376862" stroke="grey" stroke-width="5" fill="none" />
<circle cx="409.0120367738824" cy="723.1646605376862" r="5" fill="black" stroke="none" />
<circle cx="505.0120367738824" cy="723.1646605376862" r="5" fill="black" stroke="none" />
<path d="M553.0120367738824,563.1646605376862 L540.7338550161106,548.535017348203" stroke="grey" stroke-width="5" />
<circle cx="540.7338550161106" cy="548.535017348203" r="2.5" fill="grey" stroke="none" />
<path d="M540.7338550161106,548.535017348203 A63.363197942211606,63.363197942211606,0,0,1,505.0120367738824,563.1646605376862" stroke="grey" stroke-width="5" fill="none" />
<circle cx="553.0120367738824" cy="563.1646605376862" r="5" fill="black" stroke="none" />
<circle cx="505.0120367738824" cy="563.1646605376862" r="5" fill="black" stroke="none" />
<path d="M505.0120367738824,563.1646605376862 A63.363197942211606,63.363197942211606,0,0,1,478.4983867654265,559.6034854834405" stroke="grey" stroke-width="5" fill="none" />
<path d="M478.4983867654265,559.6034854834405 L457.0120367738824,619.1646605376862" stroke="grey" stroke-width="5" />
<circle cx="478.4983867654265" cy="559.6034854834405" r="2.5" fill="grey" stroke="none" />
<circle cx="505.0120367738824" cy="563.1646605376862" r="5" fill="black" stroke="none" />
<circle cx="457.0120367738824" cy="619.1646605376862" r="5" fill="black" stroke="none" />
<path d="M457.0120367738824,619.1646605376862 A126.6814165668826,126.6814165668826,0,0,0,503.79653642082286,626.624514271911" stroke="grey" stroke-width="5" fill="none" />
<path d="M503.79653642082286,626.624514271911 L505.0120367738824,667.1646605376862" stroke="grey" stroke-width="5" />
<circle cx="503.79653642082286" cy="626.624514271911" r="2.5" fill="grey" stroke="none" />
<circle cx="457.0120367738824" cy="619.1646605376862" r="5" fill="black" stroke="none" />
<circle cx="505.0120367738824" cy="667.1646605376862" r="5" fill="black" stroke="none" />
<path d="M505.0120367738824,667.1646605376862 A167.23978069018935,167.23978069018935,0,0,1,503.7550775758711,667.1976185168372" stroke="grey" stroke-width="5" fill="none" />
<path d="M503.7550775758711,667.1976185168372 L505.0120367738824,723.1646605376862" stroke="grey" stroke-width="5" />
<circle cx="503.7550775758711" cy="667.1976185168372" r="2.5" fill="grey" stroke="none" />
<circle cx="505.0120367738824" cy="667.1646605376862" r="5" fill="black" stroke="none" />
<circle cx="505.0120367738824" cy="723.1646605376862" r="5" fill="black" stroke="none" />
<path d="M505.01203677388247,723.1646605376862 A223.22093590325144,223.22093590325144,0,0,0,554.9586498781653,716.3495621190225" stroke="grey" stroke-width="5" fill="none" />
<path d="M554.9586498781653,716.3495621190224 L577.0120367738824,803.1646605376862" stroke="grey" stroke-width="5" />
<circle cx="554.9586498781653" cy="716.3495621190224" r="2.5" fill="grey" stroke="none" />
<circle cx="505.0120367738824" cy="723.1646605376862" r="5" fill="black" stroke="none" />
<circle cx="577.0120367738824" cy="803.1646605376862" r="5" fill="black" stroke="none" />
<path d="M553.0120367738824,563.1646605376862 A82.4624180081848,82.4624180081848,0,0,1,526.0422862335255,578.242250168868" stroke="grey" stroke-width="5" fill="none" />
<path d="M526.0422862335255,578.242250168868 L529.0120367738824,587.1646605376862" stroke="grey" stroke-width="5" />
<circle cx="526.0422862335255" cy="578.242250168868" r="2.5" fill="grey" stroke="none" />
<circle cx="553.0120367738824" cy="563.1646605376862" r="5" fill="black" stroke="none" />
<circle cx="529.0120367738824" cy="587.1646605376862" r="5" fill="black" stroke="none" />
<path d="M529.0120367738824,587.1646605376862 A91.866078203106,91.866078203106,0,0,1,503.86045190378877,591.7849292395964" stroke="grey" stroke-width="5" fill="none" />
<path d="M503.86045190378877,591.7849292395964 L505.0120367738824,619.1646605376862" stroke="grey" stroke-width="5" />
<circle cx="503.86045190378877" cy="591.7849292395964" r="2.5" fill="grey" stroke="none" />
<circle cx="529.0120367738824" cy="587.1646605376862" r="5" fill="black" stroke="none" />
<circle cx="505.0120367738824" cy="619.1646605376862" r="5" fill="black" stroke="none" />
<path d="M505.0120367738824,619.1646605376862 A119.27001649067024,119.27001649067024,0,0,1,503.5744229405574,619.2164432212552" stroke="grey" stroke-width="5" fill="none" />
<path d="M503.5744229405574,619.2164432212552 L505.0120367738824,667.1646605376862" stroke="grey" stroke-width="5" />
<circle cx="503.5744229405574" cy="619.2164432212552" r="2.5" fill="grey" stroke="none" />
<circle cx="505.0120367738824" cy="619.1646605376862" r="5" fill="black" stroke="none" />
<circle cx="505.0120367738824" cy="667.1646605376862" r="5" fill="black" stroke="none" />
<path d="M505.0120367738824,563.1646605376862 A63.363197942211606,63.363197942211606,0,0,0,520.0106009178487,560.1204682647307" stroke="grey" stroke-width="5" fill="none" />
<path d="M520.0106009178487,560.1204682647307 L529.0120367738824,587.1646605376862" stroke="grey" stroke-width="5" />
<circle cx="520.0106009178487" cy="560.1204682647307" r="2.5" fill="grey" stroke="none" />
<circle cx="505.0120367738824" cy="563.1646605376862" r="5" fill="black" stroke="none" />
<circle cx="529.0120367738824" cy="587.1646605376862" r="5" fill="black" stroke="none" />
<path d="M457.0120367738824,619.1646605376862 L459.52701491798973,612.1930225648464" stroke="grey" stroke-width="5" />
<circle cx="459.52701491798973" cy="612.1930225648464" r="2.5" fill="grey" stroke="none" />
<path d="M459.52701491798973,612.1930225648464 A119.27001649067024,119.27001649067024,0,0,0,505.0120367738824,619.1646605376862" stroke="grey" stroke-width="5" fill="none" />
<circle cx="457.0120367738824" cy="619.1646605376862" r="5" fill="black" stroke="none" />
<circle cx="505.0120367738824" cy="619.1646605376862" r="5" fill="black" stroke="none" />
<path d="M553.0120367738824,563.1646605376862 A82.4624180081848,82.4624180081848,0,0,1,533.517538250367,575.3433806873024" stroke="grey" stroke-width="5" fill="none" />
<path d="M533.517538250367,575.3433806873024 L553.0120367738824,619.1646605376862" stroke="grey" stroke-width="5" />
<circle cx="533.517538250367" cy="575.3433806873024" r="2.5" fill="grey" stroke="none" />
<circle cx="553.0120367738824" cy="563.1646605376862" r="5" fill="black" stroke="none" />
<circle cx="553.0120367738824" cy="619.1646605376862" r="5" fill="black" stroke="none" />
<path d="M529.0120367738824,587.1646605376862 A91.866078203106,91.866078203106,0,0,0,537.339734444583,583.935216423306" stroke="grey" stroke-width="5" fill="none" />
<path d="M537.339734444583,583.935216423306 L553.0120367738824,619.1646605376862" stroke="grey" stroke-width="5" />
<circle cx="537.339734444583" cy="583.935216423306" r="2.5" fill="grey" stroke="none" />
<circle cx="529.0120367738824" cy="587.1646605376862" r="5" fill="black" stroke="none" />
<circle cx="553.0120367738824" cy="619.1646605376862" r="5" fill="black" stroke="none" />
<path d="M505.0120367738824,619.1646605376862 A119.27001649067024,119.27001649067024,0,0,0,548.4782939478098,608.9733538512718" stroke="grey" stroke-width="5" fill="none" />
<path d="M548.4782939478098,608.9733538512719 L553.0120367738824,619.1646605376862" stroke="grey" stroke-width="5" />
<circle cx="548.4782939478098" cy="608.9733538512719" r="2.5" fill="grey" stroke="none" />
<circle cx="505.0120367738824" cy="619.1646605376862" r="5" fill="black" stroke="none" />
<circle cx="553.0120367738824" cy="619.1646605376862" r="5" fill="black" stroke="none" />
<path d="M505.0120367738824,667.1646605376862 L503.90870686526705,630.3656947767274" stroke="grey" stroke-width="5" />
<circle cx="503.90870686526705" cy="630.3656947767274" r="2.5" fill="grey" stroke="none" />
<path d="M503.90870686526705,630.3656947767274 A130.42427827662095,130.42427827662095,0,0,0,553.0120367738824,619.1646605376862" stroke="grey" stroke-width="5" fill="none" />
<circle cx="505.0120367738824" cy="667.1646605376862" r="5" fill="black" stroke="none" />
<circle cx="553.0120367738824" cy="619.1646605376862" r="5" fill="black" stroke="none" />
<path d="M553.0120367738824,619.1646605376862 A130.42427827662095,130.42427827662095,0,0,1,534.8527755381419,625.6812492031543" stroke="grey" stroke-width="5" fill="none" />
<path d="M534.8527755381419,625.6812492031543 L553.0120367738824,691.1646605376862" stroke="grey" stroke-width="5" />
<circle cx="534.8527755381419" cy="625.6812492031543" r="2.5" fill="grey" stroke="none" />
<circle cx="553.0120367738824" cy="619.1646605376862" r="5" fill="black" stroke="none" />
<circle cx="553.0120367738824" cy="691.1646605376862" r="5" fill="black" stroke="none" />
<path d="M553.0120367738824,691.1646605376862 A198.37893910746746,198.37893910746746,0,0,1,504.4542530652293,698.3289265614958" stroke="grey" stroke-width="5" fill="none" />
<path d="M504.45425306522924,698.3289265614958 L505.0120367738824,723.1646605376862" stroke="grey" stroke-width="5" />
<circle cx="504.45425306522924" cy="698.3289265614958" r="2.5" fill="grey" stroke="none" />
<circle cx="553.0120367738824" cy="691.1646605376862" r="5" fill="black" stroke="none" />
<circle cx="505.0120367738824" cy="723.1646605376862" r="5" fill="black" stroke="none" />
<path d="M553.0120367738824,563.1646605376862 A82.4624180081848,82.4624180081848,0,0,0,579.8074724725296,479.2438510001731" stroke="grey" stroke-width="5" fill="none" />
<path d="M579.8074724725296,479.2438510001731 L657.0120367738824,459.16466053768625" stroke="grey" stroke-width="5" />
<circle cx="579.8074724725296" cy="479.2438510001731" r="2.5" fill="grey" stroke="none" />
<circle cx="553.0120367738824" cy="563.1646605376862" r="5" fill="black" stroke="none" />
<circle cx="657.0120367738824" cy="459.16466053768625" r="5" fill="black" stroke="none" />
<path d="M553.0120367738824,563.1646605376862 A82.4624180081848,82.4624180081848,0,0,0,574.2970568817111,535.7770558105665" stroke="grey" stroke-width="5" fill="none" />
<path d="M574.2970568817111,535.7770558105665 L681.0120367738824,587.1646605376862" stroke="grey" stroke-width="5" />
<circle cx="574.2970568817111" cy="535.7770558105665" r="2.5" fill="grey" stroke="none" />
<circle cx="553.0120367738824" cy="563.1646605376862" r="5" fill="black" stroke="none" />
<circle cx="681.0120367738824" cy="587.1646605376862" r="5" fill="black" stroke="none" />
<path d="M681.0120367738824,587.1646605376862 A200.90553875809258,200.90553875809258,0,0,0,691.1231231919776,561.9272741610962" stroke="grey" stroke-width="5" fill="none" />
<path d="M691.1231231919776,561.9272741610962 L769.0120367738824,587.1646605376862" stroke="grey" stroke-width="5" />
<circle cx="691.1231231919776" cy="561.9272741610962" r="2.5" fill="grey" stroke="none" />
<circle cx="681.0120367738824" cy="587.1646605376862" r="5" fill="black" stroke="none" />
<circle cx="769.0120367738824" cy="587.1646605376862" r="5" fill="black" stroke="none" />
<path d="M553.0120367738824,619.1646605376862 A130.42427827662095,130.42427827662095,0,0,0,560.564992991181,615.5091943870948" stroke="grey" stroke-width="5" fill="none" />
<path d="M560.564992991181,615.5091943870948 L617.0120367738824,723.1646605376862" stroke="grey" stroke-width="5" />
<circle cx="560.564992991181" cy="615.5091943870948" r="2.5" fill="grey" stroke="none" />
<circle cx="553.0120367738824" cy="619.1646605376862" r="5" fill="black" stroke="none" />
<circle cx="617.0120367738824" cy="723.1646605376862" r="5" fill="black" stroke="none" />
<circle cx="500" cy="500" r="5" fill="red" stroke="none" />
</svg>