<?xml version="1.0" encoding="UTF-8"?>
<svg xmlns="http://www.w3.org/2000/svg" xmlns:xlink="http://www.w3.org/1999/xlink"
     width="1000" height="1000" viewBox="0 0 1000 1000">
<defs>
</defs>
<rect x="0" y="0" width="1000" height="1000" fill="white" />
<path d="M181.0469278033023,594.7012576803663 L308.7562440525657,556.782723825184" stroke="grey" stroke-width="5" />
<circle cx="308.7562440525657" cy="556.782723825184" r="2.5" fill="grey" stroke="none" />
<path d="M308.7562440525657,556.782723825184 A199.4954934676193,199.4954934676193,0,0,1,301.0469278033023,514.7012576803663" stroke="grey" stroke-width="5" fill="none" />
<circle cx="181.0469278033023" cy="594.7012576803663" r="5" fill="black" stroke="none" />
<circle cx="301.0469278033023" cy="514.7012576803663" r="5" fill="black" stroke="none" />
<path d="M301.0469278033023,514.7012576803663 A199.4954934676193,199.4954934676193,0,0,1,304.66850043355566,459.45302488454803" stroke="grey" stroke-width="5" fill="none" />
<path d="M304.66850043355566,459.453024884548 L-198.9530721966977,-41.29874231963373" stroke="grey" stroke-width="5" />
<circle cx="304.66850043355566" cy="459.453024884548" r="2.5" fill="grey" stroke="none" />
<circle cx="301.0469278033023" cy="514.7012576803663" r="5" fill="black" stroke="none" />
<circle cx="301.0469278033023" cy="458.70125768036627" r="5" fill="black" stroke="none" />
<path d="M301.0469278033023,458.7012576803663 A203.19426924420853,203.19426924420853,0,0,0,298.66782807100174,472.55427902130873" stroke="grey" stroke-width="5" fill="none" />
<path d="M298.66782807100174,472.55427902130873 L-302.9530721966977,-41.29874231963373" stroke="grey" stroke-width="5" />
<circle cx="298.66782807100174" cy="472.55427902130873" r="2.5" fill="grey" stroke="none" />
<circle cx="301.0469278033023" cy="458.70125768036627" r="5" fill="black" stroke="none" />
<circle cx="197.0469278033023" cy="458.70125768036627" r="5" fill="black" stroke="none" />
<path d="M197.0469278033023,458.70125768036627 L202.32671010686357,459.421000732574" stroke="grey" stroke-width="5" />
<circle cx="202.32671010686357" cy="459.421000732574" r="2.5" fill="grey" stroke="none" />
<path d="M202.32671010686357,459.421000732574 A300.4264347512532,300.4264347512532,0,0,1,237.04692780330225,354.70125768036644" stroke="grey" stroke-width="5" fill="none" />
<circle cx="197.0469278033023" cy="458.70125768036627" r="5" fill="black" stroke="none" />
<circle cx="237.0469278033023" cy="354.70125768036627" r="5" fill="black" stroke="none" />
<path d="M237.0469278033023,354.70125768036627 L256.7844614285651,365.6075338013653" stroke="grey" stroke-width="5" />
<circle cx="256.7844614285651" cy="365.6075338013653" r="2.5" fill="grey" stroke="none" />
<path d="M256.7844614285651,365.60753380136543 A277.87611119623847,277.87611119623847,0,0,1,349.0469278033023,266.70125768036627" stroke="grey" stroke-width="5" fill="none" />
<circle cx="237.0469278033023" cy="354.70125768036627" r="5" fill="black" stroke="none" />
<circle cx="349.0469278033023" cy="266.70125768036627" r="5" fill="black" stroke="none" />
<path d="M349.0469278033023,266.70125768036627 L373.2898681091982,304.1688454623869" stroke="grey" stroke-width="5" />
<circle cx="373.2898681091982" cy="304.1688454623869" r="2.5" fill="grey" stroke="none" />
<path d="M373.2898681091982,304.1688454623869 A233.24943432154103,233.24943432154103,0,0,1,397.0469278033023,290.70125768036627" stroke="grey" stroke-width="5" fill="none" />
<circle cx="349.0469278033023" cy="266.70125768036627" r="5" fill="black" stroke="none" />
<circle cx="397.0469278033023" cy="290.70125768036627" r="5" fill="black" stroke="none" />
<path d="M397.0469278033023,290.70125768036627 A233.24943432154103,233.24943432154103,0,0,0,360.0627897585458,313.39111542812884" stroke="grey" stroke-width="5" fill="none" />
<path d="M360.0627897585458,313.39111542812884 L-150.9530721966977,-201.29874231963373" stroke="grey" stroke-width="5" />
<circle cx="360.0627897585458" cy="313.39111542812884" r="2.5" fill="grey" stroke="none" />
<circle cx="397.0469278033023" cy="290.70125768036627" r="5" fill="black" stroke="none" />
<circle cx="349.0469278033023" cy="298.70125768036627" r="5" fill="black" stroke="none" />
<path d="M349.0469278033023,266.70125768036627 L363.3152422121166,288.75301030889136" stroke="grey" stroke-width="5" />
<circle cx="363.3152422121166" cy="288.75301030889136" r="2.5" fill="grey" stroke="none" />
<path d="M363.3152422121166,288.75301030889136 A251.6108377337664,251.6108377337664,0,0,0,349.0469278033023,298.7012576803662" stroke="grey" stroke-width="5" fill="none" />
<circle cx="349.0469278033023" cy="266.70125768036627" r="5" fill="black" stroke="none" />
<circle cx="349.0469278033023" cy="298.70125768036627" r="5" fill="black" stroke="none" />
<path d="M349.0469278033023,298.70125768036627 L369.1667989859194,325.5314818404709" stroke="grey" stroke-width="5" />
<circle cx="369.1667989859194" cy="325.5314818404709" r="2.5" fill="grey" stroke="none" />
<path d="M369.1667989859194,325.5314818404709 A218.07473562146706,218.07473562146706,0,0,0,301.0469278033023,410.70125768036615" stroke="grey" stroke-width="5" fill="none" />
<circle cx="349.0469278033023" cy="298.70125768036627" r="5" fill="black" stroke="none" />
<circle cx="301.0469278033023" cy="410.70125768036627" r="5" fill="black" stroke="none" />
<path d="M237.0469278033023,354.70125768036627 L309.12657786713567,394.5299708938026" stroke="grey" stroke-width="5" />
<circle cx="309.12657786713567" cy="394.5299708938026" r="2.5" fill="grey" stroke="none" />
<path d="M309.1265778671356,394.52997089380267 A218.07473562146706,218.07473562146706,0,0,0,301.0469278033023,410.70125768036615" stroke="grey" stroke-width="5" fill="none" />
<circle cx="237.0469278033023" cy="354.70125768036627" r="5" fill="black" stroke="none" />
<circle cx="301.0469278033023" cy="410.70125768036627" r="5" fill="black" stroke="none" />
<path d="M301.0469278033023,410.70125768036627 L314.62261548229185,416.7946133771276" stroke="grey" stroke-width="5" />
<circle cx="314.62261548229185" cy="416.7946133771276" r="2.5" fill="grey" stroke="none" />
<path d="M314.62261548229185,416.79461337712746 A203.19426924420853,203.19426924420853,0,0,0,301.0469278033023,458.7012576803663" stroke="grey" stroke-width="5" fill="none" />
<circle cx="301.0469278033023" cy="410.70125768036627" r="5" fill="black" stroke="none" />
<circle cx="301.0469278033023" cy="458.70125768036627" r="5" fill="black" stroke="none" />
<path d="M397.0469278033023,290.70125768036627 A233.24943432154103,233.24943432154103,0,0,1,442.8923547600093,273.84957336661455" stroke="grey" stroke-width="5" fill="none" />
<path d="M442.8923547600093,273.84957336661455 L-62.95307219669769,-249.29874231963373" stroke="grey" stroke-width="5" />
<circle cx="442.8923547600093" cy="273.84957336661455" r="2.5" fill="grey" stroke="none" />
<circle cx="397.0469278033023" cy="290.70125768036627" r="5" fill="black" stroke="none" />
<circle cx="437.0469278033023" cy="250.70125768036627" r="5" fill="black" stroke="none" />
<path d="M397.0469278033023,290.70125768036627 L431.4335834673174,360.6077075753847" stroke="grey" stroke-width="5" />
<circle cx="431.4335834673174" cy="360.6077075753847" r="2.5" fill="grey" stroke="none" />
<path d="M431.4335834673174,360.6077075753847 A155.34337663229414,155.34337663229414,0,0,1,445.0469278033023,354.70125768036627" stroke="grey" stroke-width="5" fill="none" />
<circle cx="397.0469278033023" cy="290.70125768036627" r="5" fill="black" stroke="none" />
<circle cx="445.0469278033023" cy="354.70125768036627" r="5" fill="black" stroke="none" />
<path d="M349.0469278033023,298.70125768036627 L393.16390898755435,357.53207641161396" stroke="grey" stroke-width="5" />
<circle cx="393.16390898755435" cy="357.53207641161396" r="2.5" fill="grey" stroke="none" />
<path d="M393.16390898755435,357.53207641161396 A178.07599387454158,178.07599387454158,0,0,1,397.0469278033023,354.70125768036627" stroke="grey" stroke-width="5" fill="none" />
<circle cx="349.0469278033023" cy="298.70125768036627" r="5" fill="black" stroke="none" />
<circle cx="397.0469278033023" cy="354.70125768036627" r="5" fill="black" stroke="none" />
<path d="M301.0469278033023,410.70125768036627 L339.99034331937355,428.18074663129784" stroke="grey" stroke-width="5" />
<circle cx="339.99034331937355" cy="428.18074663129784" r="2.5" fill="grey" stroke="none" />
<path d="M339.9903433193736,428.1807466312978 A175.38841291684514,175.38841291684514,0,0,1,349.0469278033023,410.70125768036627" stroke="grey" stroke-width="5" fill="none" />
<circle cx="301.0469278033023" cy="410.70125768036627" r="5" fill="black" stroke="none" />
<circle cx="349.0469278033023" cy="410.70125768036627" r="5" fill="black" stroke="none" />
<path d="M301.0469278033023,458.70125768036627 L391.3877994444637,477.4542446920509" stroke="grey" stroke-width="5" />
<circle cx="391.3877994444637" cy="477.4542446920509" r="2.5" fill="grey" stroke="none" />
<path d="M391.38779944446367,477.45424469205096 A110.92754929196784,110.92754929196784,0,0,1,397.0469278033023,458.7012576803663" stroke="grey" stroke-width="5" fill="none" />
<circle cx="301.0469278033023" cy="458.70125768036627" r="5" fill="black" stroke="none" />
<circle cx="397.0469278033023" cy="458.70125768036627" r="5" fill="black" stroke="none" />
<path d="M301.0469278033023,514.7012576803663 L396.2853516513173,507.66379605887715" stroke="grey" stroke-width="5" />
<circle cx="396.2853516513173" cy="507.66379605887715" r="2.5" fill="grey" stroke="none" />
<path d="M396.2853516513173,507.6637960588772 A103.99741367997079,103.99741367997079,0,0,0,397.0469278033023,514.7012576803662" stroke="grey" stroke-width="5" fill="none" />
<circle cx="301.0469278033023" cy="514.7012576803663" r="5" fill="black" stroke="none" />
<circle cx="397.0469278033023" cy="514.7012576803663" r="5" fill="black" stroke="none" />
<path d="M445.0469278033023,354.70125768036627 A155.34337663229414,155.34337663229414,0,0,0,410.1895908497871,373.2496348257957" stroke="grey" stroke-width="5" fill="none" />
<path d="M410.1895908497871,373.2496348257957 L-102.95307219669769,-145.29874231963373" stroke="grey" stroke-width="5" />
<circle cx="410.1895908497871" cy="373.2496348257957" r="2.5" fill="grey" stroke="none" />
<circle cx="445.0469278033023" cy="354.70125768036627" r="5" fill="black" stroke="none" />
<circle cx="397.0469278033023" cy="354.70125768036627" r="5" fill="black" stroke="none" />
<path d="M397.0469278033023,354.70125768036627 L398.60072913469975,356.894153671224" stroke="grey" stroke-width="5" />
<circle cx="398.60072913469975" cy="356.894153671224" r="2.5" fill="grey" stroke="none" />
<path d="M398.60072913469975,356.894153671224 A175.38841291684514,175.38841291684514,0,0,0,349.0469278033023,410.70125768036627" stroke="grey" stroke-width="5" fill="none" />
<circle cx="397.0469278033023" cy="354.70125768036627" r="5" fill="black" stroke="none" />
<circle cx="349.0469278033023" cy="410.70125768036627" r="5" fill="black" stroke="none" />
<path d="M349.0469278033023,410.70125768036627 L404.527020466214,443.52140785338895" stroke="grey" stroke-width="5" />
<circle cx="404.527020466214" cy="443.52140785338895" r="2.5" fill="grey" stroke="none" />
<path d="M404.527020466214,443.52140785338895 A110.92754929196784,110.92754929196784,0,0,0,397.0469278033023,458.7012576803663" stroke="grey" stroke-width="5" fill="none" />
<circle cx="349.0469278033023" cy="410.70125768036627" r="5" fill="black" stroke="none" />
<circle cx="397.0469278033023" cy="458.70125768036627" r="5" fill="black" stroke="none" />
<path d="M397.0469278033023,458.70125768036627 L403.47886248994104,461.28137314047325" stroke="grey" stroke-width="5" />
<circle cx="403.47886248994104" cy="461.28137314047325" r="2.5" fill="grey" stroke="none" />
<path d="M403.47886248994104,461.2813731404733 A103.99741367997079,103.99741367997079,0,0,0,397.0469278033023,514.7012576803662" stroke="grey" stroke-width="5" fill="none" />
<circle cx="397.0469278033023" cy="458.70125768036627" r="5" fill="black" stroke="none" />
<circle cx="397.0469278033023" cy="514.7012576803663" r="5" fill="black" stroke="none" />
<path d="M397.0469278033023,514.7012576803663 L401.3690730633766,514.0840738523896" stroke="grey" stroke-width="5" />
<circle cx="401.3690730633766" cy="514.0840738523896" r="2.5" fill="grey" stroke="none" />
<path d="M401.36907306337656,514.0840738523895 A99.63142518631915,99.63142518631915,0,0,0,469.0469278033023,594.7012576803662" stroke="grey" stroke-width="5" fill="none" />
<circle cx="397.0469278033023" cy="514.7012576803663" r="5" fill="black" stroke="none" />
<circle cx="469.0469278033023" cy="594.7012576803663" r="5" fill="black" stroke="none" />
<path d="M445.0469278033023,354.70125768036627 L448.80118995516796,364.6277194267044" stroke="grey" stroke-width="5" />
<circle cx="448.80118995516796" cy="364.6277194267044" r="2.5" fill="grey" stroke="none" />
<path d="M448.80118995516796,364.6277194267044 A144.73068955001168,144.73068955001168,0,0,0,421.0469278033023,378.70125768036627" stroke="grey" stroke-width="5" fill="none" />
<circle cx="445.0469278033023" cy="354.70125768036627" r="5" fill="black" stroke="none" />
<circle cx="421.0469278033023" cy="378.70125768036627" r="5" fill="black" stroke="none" />
<path d="M421.0469278033023,378.70125768036627 L425.65419777499625,385.7795896254639" stroke="grey" stroke-width="5" />
<circle cx="425.65419777499625" cy="385.7795896254639" r="2.5" fill="grey" stroke="none" />
<path d="M425.65419777499625,385.7795896254639 A136.28499717359497,136.28499717359497,0,0,0,397.0469278033023,410.70125768036627" stroke="grey" stroke-width="5" fill="none" />
<circle cx="421.0469278033023" cy="378.70125768036627" r="5" fill="black" stroke="none" />
<circle cx="397.0469278033023" cy="410.70125768036627" r="5" fill="black" stroke="none" />
<path d="M397.0469278033023,410.70125768036627 L416.2025738144024,427.3163528942632" stroke="grey" stroke-width="5" />
<circle cx="416.2025738144024" cy="427.3163528942632" r="2.5" fill="grey" stroke="none" />
<path d="M416.2025738144024,427.3163528942632 A110.92754929196784,110.92754929196784,0,0,0,397.0469278033023,458.7012576803663" stroke="grey" stroke-width="5" fill="none" />
<circle cx="397.0469278033023" cy="410.70125768036627" r="5" fill="black" stroke="none" />
<circle cx="397.0469278033023" cy="458.70125768036627" r="5" fill="black" stroke="none" />
<path d="M397.0469278033023,354.70125768036627 L416.32522269780003,381.908915912127" stroke="grey" stroke-width="5" />
<circle cx="416.32522269780003" cy="381.908915912127" r="2.5" fill="grey" stroke="none" />
<path d="M416.32522269780003,381.908915912127 A144.73068955001168,144.73068955001168,0,0,1,421.0469278033023,378.70125768036627" stroke="grey" stroke-width="5" fill="none" />
<circle cx="397.0469278033023" cy="354.70125768036627" r="5" fill="black" stroke="none" />
<circle cx="421.0469278033023" cy="378.70125768036627" r="5" fill="black" stroke="none" />
<path d="M349.0469278033023,410.70125768036627 L382.7024050475541,430.6107020284919" stroke="grey" stroke-width="5" />
<circle cx="382.7024050475541" cy="430.6107020284919" r="2.5" fill="grey" stroke="none" />
<path d="M382.7024050475541,430.6107020284919 A136.28499717359497,136.28499717359497,0,0,1,397.0469278033023,410.70125768036627" stroke="grey" stroke-width="5" fill="none" />
<circle cx="349.0469278033023" cy="410.70125768036627" r="5" fill="black" stroke="none" />
<circle cx="397.0469278033023" cy="410.70125768036627" r="5" fill="black" stroke="none" />
<path d="M445.0469278033023,354.70125768036627 L462.9080909184522,401.9270893446615" stroke="grey" stroke-width="5" />
<circle cx="462.9080909184522" cy="401.9270893446615" r="2.5" fill="grey" stroke="none" />
<path d="M462.9080909184522,401.9270893446615 A104.85278023840766,104.85278023840766,0,0,0,445.0469278033023,410.70125768036627" stroke="grey" stroke-width="5" fill="none" />
<circle cx="445.0469278033023" cy="354.70125768036627" r="5" fill="black" stroke="none" />
<circle cx="445.0469278033023" cy="410.70125768036627" r="5" fill="black" stroke="none" />
<path d="M421.0469278033023,378.70125768036627 L442.8010109402066,412.12292008571603" stroke="grey" stroke-width="5" />
<circle cx="442.8010109402066" cy="412.12292008571603" r="2.5" fill="grey" stroke="none" />
<path d="M442.8010109402066,412.12292008571603 A104.85278023840766,104.85278023840766,0,0,1,445.0469278033023,410.70125768036627" stroke="grey" stroke-width="5" fill="none" />
<circle cx="421.0469278033023" cy="378.70125768036627" r="5" fill="black" stroke="none" />
<circle cx="445.0469278033023" cy="410.70125768036627" r="5" fill="black" stroke="none" />
<path d="M397.0469278033023,410.70125768036627 L420.79160525527925,431.2967560759442" stroke="grey" stroke-width="5" />
<circle cx="420.79160525527925" cy="431.2967560759442" r="2.5" fill="grey" stroke="none" />
<path d="M420.79160525527925,431.2967560759442 A104.85278023840766,104.85278023840766,0,0,1,445.0469278033023,410.70125768036627" stroke="grey" stroke-width="5" fill="none" />
<circle cx="397.0469278033023" cy="410.70125768036627" r="5" fill="black" stroke="none" />
<circle cx="445.0469278033023" cy="410.70125768036627" r="5" fill="black" stroke="none" />
<path d="M397.0469278033023,458.70125768036627 L402.6849874281779,460.96291696514805" stroke="grey" stroke-width="5" />
<circle cx="402.6849874281779" cy="460.96291696514805" r="2.5" fill="grey" stroke="none" />
<path d="M402.6849874281779,460.9629169651481 A104.85278023840766,104.85278023840766,0,0,1,445.0469278033023,410.70125768036627" stroke="grey" stroke-width="5" fill="none" />
<circle cx="397.0469278033023" cy="458.70125768036627" r="5" fill="black" stroke="none" />
<circle cx="445.0469278033023" cy="410.70125768036627" r="5" fill="black" stroke="none" />
<path d="M445.0469278033023,410.70125768036627 L469.80595344042183,450.93467434068555" stroke="grey" stroke-width="5" />
<circle cx="469.80595344042183" cy="450.93467434068555" r="2.5" fill="grey" stroke="none" />
<path d="M469.80595344042183,450.93467434068555 A57.611514731835996,57.611514731835996,0,0,0,445.0469278033023,482.70125768036627" stroke="grey" stroke-width="5" fill="none" />
<circle cx="445.0469278033023" cy="410.70125768036627" r="5" fill="black" stroke="none" />
<circle cx="445.0469278033023" cy="482.70125768036627" r="5" fill="black" stroke="none" />
<path d="M445.0469278033023,482.70125768036627 A57.611514731835996,57.611514731835996,0,0,0,442.96701979724185,508.1440652556541" stroke="grey" stroke-width="5" fill="none" />
<path d="M442.96701979724185,508.14406525565414 L-102.95307219669769,14.701257680366268" stroke="grey" stroke-width="5" />
<circle cx="442.96701979724185" cy="508.14406525565414" r="2.5" fill="grey" stroke="none" />
<circle cx="445.0469278033023" cy="482.70125768036627" r="5" fill="black" stroke="none" />
<circle cx="397.0469278033023" cy="514.7012576803663" r="5" fill="black" stroke="none" />
<path d="M445.0469278033023,354.70125768036627 A155.34337663229414,155.34337663229414,0,0,1,529.9873471000177,347.57846714644995" stroke="grey" stroke-width="5" fill="none" />
<path d="M529.9873471000177,347.57846714644995 L49.04692780330231,-249.29874231963373" stroke="grey" stroke-width="5" />
<circle cx="529.9873471000177" cy="347.57846714644995" r="2.5" fill="grey" stroke="none" />
<circle cx="445.0469278033023" cy="354.70125768036627" r="5" fill="black" stroke="none" />
<circle cx="549.0469278033023" cy="250.70125768036627" r="5" fill="black" stroke="none" />
<path d="M445.0469278033023,354.70125768036627 L449.9103291758098,367.5603404317648" stroke="grey" stroke-width="5" />
<circle cx="449.9103291758098" cy="367.5603404317648" r="2.5" fill="grey" stroke="none" />
<path d="M449.9103291758098,367.5603404317648 A141.5953337854951,141.5953337854951,0,0,1,573.0469278033023,378.70125768036627" stroke="grey" stroke-width="5" fill="none" />
<circle cx="445.0469278033023" cy="354.70125768036627" r="5" fill="black" stroke="none" />
<circle cx="573.0469278033023" cy="378.70125768036627" r="5" fill="black" stroke="none" />
<path d="M573.0469278033023,378.70125768036627 A141.5953337854951,141.5953337854951,0,0,1,613.1029138096733,414.8121520544897" stroke="grey" stroke-width="5" fill="none" />
<path d="M613.1029138096733,414.8121520544897 L161.0469278033023,-121.29874231963373" stroke="grey" stroke-width="5" />
<circle cx="613.1029138096733" cy="414.8121520544897" r="2.5" fill="grey" stroke="none" />
<circle cx="573.0469278033023" cy="378.70125768036627" r="5" fill="black" stroke="none" />
<circle cx="661.0469278033023" cy="378.70125768036627" r="5" fill="black" stroke="none" />
<path d="M445.0469278033023,410.70125768036627 L509.0469278033023,514.7012576803663" stroke="grey" stroke-width="5" />
<circle cx="445.0469278033023" cy="410.70125768036627" r="5" fill="black" stroke="none" />
<circle cx="509.0469278033023" cy="514.7012576803663" r="5" fill="black" stroke="none" />
<circle cx="500" cy="500" r="5" fill="red" stroke="none" />
</svg>