<?xml version="1.0" encoding="UTF-8"?>
<svg xmlns="http://www.w3.org/2000/svg" xmlns:xlink="http://www.w3.org/1999/xlink"
     width="1000" height="1000" viewBox="0 0 1000 1000">
<defs>
</defs>
<rect x="0" y="0" width="1000" height="1000" fill="white" />
<path d="M333.28924036664375,792.9917724778312 L392.16301183416044,689.521962294859" stroke="grey" stroke-width="5" />
<circle cx="392.16301183416044" cy="689.521962294859" r="2.5" fill="grey" stroke="none" />
<path d="M392.16301183416044,689.521962294859 A218.05364066846806,218.05364066846806,0,0,0,453.2892403666438,712.9917724778312" stroke="grey" stroke-width="5" fill="none" />
<circle cx="333.28924036664375" cy="792.9917724778312" r="5" fill="black" stroke="none" />
<circle cx="453.28924036664375" cy="712.9917724778312" r="5" fill="black" stroke="none" />
<path d="M453.28924036664375,712.9917724778312 L464.9126749999239,659.991222620478" stroke="grey" stroke-width="5" />
<circle cx="464.9126749999239" cy="659.991222620478" r="2.5" fill="grey" stroke="none" />
<path d="M464.9126749999239,659.991222620478 A163.79350320222196,163.79350320222196,0,0,1,453.2892403666438,656.9917724778312" stroke="grey" stroke-width="5" fill="none" />
<circle cx="453.28924036664375" cy="712.9917724778312" r="5" fill="black" stroke="none" />
<circle cx="453.28924036664375" cy="656.9917724778312" r="5" fill="black" stroke="none" />
<path d="M453.2892403666438,656.9917724778312 A163.79350320222196,163.79350320222196,0,0,1,386.56831139090826,618.1590610598541" stroke="grey" stroke-width="5" fill="none" />
<path d="M386.5683113909082,618.1590610598541 L349.28924036664375,656.9917724778312" stroke="grey" stroke-width="5" />
<circle cx="386.5683113909082" cy="618.1590610598541" r="2.5" fill="grey" stroke="none" />
<circle cx="453.28924036664375" cy="656.9917724778312" r="5" fill="black" stroke="none" />
<circle cx="349.28924036664375" cy="656.9917724778312" r="5" fill="black" stroke="none" />
<path d="M349.28924036664375,656.9917724778312 L414.999340128305,588.5431424239812" stroke="grey" stroke-width="5" />
<circle cx="414.999340128305" cy="588.5431424239812" r="2.5" fill="grey" stroke="none" />
<path d="M414.999340128305,588.5431424239812 A122.73956268838911,122.73956268838911,0,0,1,389.28924036664375,552.9917724778312" stroke="grey" stroke-width="5" fill="none" />
<circle cx="349.28924036664375" cy="656.9917724778312" r="5" fill="black" stroke="none" />
<circle cx="389.28924036664375" cy="552.9917724778312" r="5" fill="black" stroke="none" />
<path d="M389.28924036664375,552.9917724778312 L468.4012662139769,515.1247531578854" stroke="grey" stroke-width="5" />
<circle cx="468.4012662139769" cy="515.1247531578854" r="2.5" fill="grey" stroke="none" />
<path d="M468.4012662139769,515.1247531578854 A35.03195876577447,35.03195876577447,0,0,1,501.28924036664375,464.9917724778312" stroke="grey" stroke-width="5" fill="none" />
<circle cx="389.28924036664375" cy="552.9917724778312" r="5" fill="black" stroke="none" />
<circle cx="501.28924036664375" cy="464.9917724778312" r="5" fill="black" stroke="none" />
<path d="M501.28924036664375,464.9917724778312 A35.03195876577447,35.03195876577447,0,0,1,534.1896371982314,492.36410822364303" stroke="grey" stroke-width="5" fill="none" />
<path d="M534.1896371982314,492.36410822364303 L549.2892403666438,488.9917724778312" stroke="grey" stroke-width="5" />
<circle cx="534.1896371982314" cy="492.36410822364303" r="2.5" fill="grey" stroke="none" />
<circle cx="501.28924036664375" cy="464.9917724778312" r="5" fill="black" stroke="none" />
<circle cx="549.2892403666438" cy="488.9917724778312" r="5" fill="black" stroke="none" />
<path d="M549.2892403666438,488.9917724778312 L503.19416030599774,499.2866182734985" stroke="grey" stroke-width="5" />
<circle cx="503.19416030599774" cy="499.2866182734985" r="2.5" fill="grey" stroke="none" />
<path d="M503.19416030599774,499.2866182734985 A3.272854037093279,3.272854037093279,0,0,0,501.2892403666438,496.99177247783115" stroke="grey" stroke-width="5" fill="none" />
<circle cx="549.2892403666438" cy="488.9917724778312" r="5" fill="black" stroke="none" />
<circle cx="501.28924036664375" cy="496.9917724778312" r="5" fill="black" stroke="none" />
<path d="M501.28924036664375,464.9917724778312 L500.1204470342913,496.7293630497947" stroke="grey" stroke-width="5" />
<circle cx="500.1204470342913" cy="496.7293630497947" r="2.5" fill="grey" stroke="none" />
<path d="M500.1204470342913,496.7293630497947 A3.272854037093279,3.272854037093279,0,0,1,501.2892403666438,496.99177247783115" stroke="grey" stroke-width="5" fill="none" />
<circle cx="501.28924036664375" cy="464.9917724778312" r="5" fill="black" stroke="none" />
<circle cx="501.28924036664375" cy="496.9917724778312" r="5" fill="black" stroke="none" />
<path d="M501.28924036664375,496.9917724778312 L453.28924036664375,608.9917724778312" stroke="grey" stroke-width="5" />
<circle cx="501.28924036664375" cy="496.9917724778312" r="5" fill="black" stroke="none" />
<circle cx="453.28924036664375" cy="608.9917724778312" r="5" fill="black" stroke="none" />
<path d="M389.28924036664375,552.9917724778312 L393.04159174298707,551.1957072078377" stroke="grey" stroke-width="5" />
<circle cx="393.04159174298707" cy="551.1957072078377" r="2.5" fill="grey" stroke="none" />
<path d="M393.04159174298707,551.1957072078377 A118.57951565672926,118.57951565672926,0,0,0,453.28924036664375,608.9917724778312" stroke="grey" stroke-width="5" fill="none" />
<circle cx="389.28924036664375" cy="552.9917724778312" r="5" fill="black" stroke="none" />
<circle cx="453.28924036664375" cy="608.9917724778312" r="5" fill="black" stroke="none" />
<path d="M453.28924036664375,608.9917724778312 A118.57951565672926,118.57951565672926,0,0,0,466.18340077601965,613.6553524930049" stroke="grey" stroke-width="5" fill="none" />
<path d="M466.18340077601965,613.6553524930049 L453.28924036664375,656.9917724778312" stroke="grey" stroke-width="5" />
<circle cx="466.18340077601965" cy="613.6553524930049" r="2.5" fill="grey" stroke="none" />
<circle cx="453.28924036664375" cy="608.9917724778312" r="5" fill="black" stroke="none" />
<circle cx="453.28924036664375" cy="656.9917724778312" r="5" fill="black" stroke="none" />
<path d="M549.2892403666438,488.9917724778312 A50.50356709283634,50.50356709283634,0,0,0,543.8523787111756,474.94846969799534" stroke="grey" stroke-width="5" fill="none" />
<path d="M543.8523787111756,474.94846969799534 L589.2892403666438,448.9917724778312" stroke="grey" stroke-width="5" />
<circle cx="543.8523787111756" cy="474.94846969799534" r="2.5" fill="grey" stroke="none" />
<circle cx="549.2892403666438" cy="488.9917724778312" r="5" fill="black" stroke="none" />
<circle cx="589.2892403666438" cy="448.9917724778312" r="5" fill="black" stroke="none" />
<path d="M549.2892403666438,488.9917724778312 A50.50356709283634,50.50356709283634,0,0,1,544.3512395507391,524.1573558034312" stroke="grey" stroke-width="5" fill="none" />
<path d="M544.3512395507391,524.1573558034312 L597.2892403666438,552.9917724778312" stroke="grey" stroke-width="5" />
<circle cx="544.3512395507391" cy="524.1573558034312" r="2.5" fill="grey" stroke="none" />
<circle cx="549.2892403666438" cy="488.9917724778312" r="5" fill="black" stroke="none" />
<circle cx="597.2892403666438" cy="552.9917724778312" r="5" fill="black" stroke="none" />
<path d="M501.2892403666438,496.99177247783115 A3.272854037093279,3.272854037093279,0,0,1,502.22902209766414,502.39646281762157" stroke="grey" stroke-width="5" fill="none" />
<path d="M502.22902209766414,502.39646281762157 L549.2892403666438,552.9917724778312" stroke="grey" stroke-width="5" />
<circle cx="502.22902209766414" cy="502.39646281762157" r="2.5" fill="grey" stroke="none" />
<circle cx="501.28924036664375" cy="496.9917724778312" r="5" fill="black" stroke="none" />
<circle cx="549.2892403666438" cy="552.9917724778312" r="5" fill="black" stroke="none" />
<path d="M453.28924036664375,608.9917724778312 L457.06303387577987,600.1862542898469" stroke="grey" stroke-width="5" />
<circle cx="457.06303387577987" cy="600.1862542898469" r="2.5" fill="grey" stroke="none" />
<path d="M457.06303387577987,600.1862542898469 A108.99939728540842,108.99939728540842,0,0,0,501.28924036664375,608.9917724778312" stroke="grey" stroke-width="5" fill="none" />
<circle cx="453.28924036664375" cy="608.9917724778312" r="5" fill="black" stroke="none" />
<circle cx="501.28924036664375" cy="608.9917724778312" r="5" fill="black" stroke="none" />
<path d="M453.2892403666438,656.9917724778312 A163.79350320222196,163.79350320222196,0,0,0,549.0634157675931,656.2724957389257" stroke="grey" stroke-width="5" fill="none" />
<path d="M549.0634157675931,656.2724957389257 L549.2892403666438,656.9917724778312" stroke="grey" stroke-width="5" />
<circle cx="549.0634157675931" cy="656.2724957389257" r="2.5" fill="grey" stroke="none" />
<circle cx="453.28924036664375" cy="656.9917724778312" r="5" fill="black" stroke="none" />
<circle cx="549.2892403666438" cy="656.9917724778312" r="5" fill="black" stroke="none" />
<path d="M453.2892403666438,712.9917724778312 A218.05364066846806,218.05364066846806,0,0,0,549.1614380041569,712.43950485288" stroke="grey" stroke-width="5" fill="none" />
<path d="M549.1614380041569,712.43950485288 L549.2892403666438,712.9917724778312" stroke="grey" stroke-width="5" />
<circle cx="549.1614380041569" cy="712.43950485288" r="2.5" fill="grey" stroke="none" />
<circle cx="453.28924036664375" cy="712.9917724778312" r="5" fill="black" stroke="none" />
<circle cx="549.2892403666438" cy="712.9917724778312" r="5" fill="black" stroke="none" />
<path d="M597.2892403666438,552.9917724778312 L563.5547619932634,534.6171835111215" stroke="grey" stroke-width="5" />
<circle cx="563.5547619932634" cy="534.6171835111215" r="2.5" fill="grey" stroke="none" />
<path d="M563.5547619932634,534.6171835111215 A72.37096908473046,72.37096908473046,0,0,1,549.2892403666438,552.9917724778312" stroke="grey" stroke-width="5" fill="none" />
<circle cx="597.2892403666438" cy="552.9917724778312" r="5" fill="black" stroke="none" />
<circle cx="549.2892403666438" cy="552.9917724778312" r="5" fill="black" stroke="none" />
<path d="M549.2892403666438,552.9917724778312 A72.37096908473046,72.37096908473046,0,0,1,500.85600083157203,572.3659065364302" stroke="grey" stroke-width="5" fill="none" />
<path d="M500.85600083157203,572.3659065364302 L501.28924036664375,608.9917724778312" stroke="grey" stroke-width="5" />
<circle cx="500.85600083157203" cy="572.3659065364302" r="2.5" fill="grey" stroke="none" />
<circle cx="549.2892403666438" cy="552.9917724778312" r="5" fill="black" stroke="none" />
<circle cx="501.28924036664375" cy="608.9917724778312" r="5" fill="black" stroke="none" />
<path d="M501.28924036664375,608.9917724778312 A108.99939728540842,108.99939728540842,0,0,0,532.6501518245719,603.9944046303199" stroke="grey" stroke-width="5" fill="none" />
<path d="M532.6501518245719,603.9944046303199 L549.2892403666438,656.9917724778312" stroke="grey" stroke-width="5" />
<circle cx="532.6501518245719" cy="603.9944046303199" r="2.5" fill="grey" stroke="none" />
<circle cx="501.28924036664375" cy="608.9917724778312" r="5" fill="black" stroke="none" />
<circle cx="549.2892403666438" cy="656.9917724778312" r="5" fill="black" stroke="none" />
<path d="M549.2892403666438,656.9917724778312 A164.5473969458402,164.5473969458402,0,0,1,537.0981499272353,660.3108639912725" stroke="grey" stroke-width="5" fill="none" />
<path d="M537.0981499272353,660.3108639912725 L549.2892403666438,712.9917724778312" stroke="grey" stroke-width="5" />
<circle cx="537.0981499272353" cy="660.3108639912725" r="2.5" fill="grey" stroke="none" />
<circle cx="549.2892403666438" cy="656.9917724778312" r="5" fill="black" stroke="none" />
<circle cx="549.2892403666438" cy="712.9917724778312" r="5" fill="black" stroke="none" />
<path d="M549.2892403666438,712.9917724778312 A218.62050306219905,218.62050306219905,0,0,0,583.6201171873113,701.9965355166996" stroke="grey" stroke-width="5" fill="none" />
<path d="M583.6201171873113,701.9965355166996 L621.2892403666438,792.9917724778312" stroke="grey" stroke-width="5" />
<circle cx="583.6201171873113" cy="701.9965355166996" r="2.5" fill="grey" stroke="none" />
<circle cx="549.2892403666438" cy="712.9917724778312" r="5" fill="black" stroke="none" />
<circle cx="621.2892403666438" cy="792.9917724778312" r="5" fill="black" stroke="none" />
<path d="M597.2892403666438,552.9917724778312 L593.3479086977758,550.8449970454275" stroke="grey" stroke-width="5" />
<circle cx="593.3479086977758" cy="550.8449970454275" r="2.5" fill="grey" stroke="none" />
<path d="M593.3479086977758,550.8449970454275 A106.29696977241548,106.29696977241548,0,0,1,573.2892403666438,576.9917724778312" stroke="grey" stroke-width="5" fill="none" />
<circle cx="597.2892403666438" cy="552.9917724778312" r="5" fill="black" stroke="none" />
<circle cx="573.2892403666438" cy="576.9917724778312" r="5" fill="black" stroke="none" />
<path d="M573.2892403666438,576.9917724778312 A106.29696977241548,106.29696977241548,0,0,1,543.799978375895,596.8535372460342" stroke="grey" stroke-width="5" fill="none" />
<path d="M543.799978375895,596.8535372460343 L549.2892403666438,608.9917724778312" stroke="grey" stroke-width="5" />
<circle cx="543.799978375895" cy="596.8535372460343" r="2.5" fill="grey" stroke="none" />
<circle cx="573.2892403666438" cy="576.9917724778312" r="5" fill="black" stroke="none" />
<circle cx="549.2892403666438" cy="608.9917724778312" r="5" fill="black" stroke="none" />
<path d="M549.2892403666438,608.9917724778312 A119.618709589178,119.618709589178,0,0,1,535.8311066520813,614.12610341139" stroke="grey" stroke-width="5" fill="none" />
<path d="M535.8311066520813,614.12610341139 L549.2892403666438,656.9917724778312" stroke="grey" stroke-width="5" />
<circle cx="535.8311066520813" cy="614.12610341139" r="2.5" fill="grey" stroke="none" />
<circle cx="549.2892403666438" cy="608.9917724778312" r="5" fill="black" stroke="none" />
<circle cx="549.2892403666438" cy="656.9917724778312" r="5" fill="black" stroke="none" />
<path d="M549.2892403666438,552.9917724778312 A72.37096908473046,72.37096908473046,0,0,0,549.8980672748601,552.4188901875702" stroke="grey" stroke-width="5" fill="none" />
<path d="M549.8980672748601,552.4188901875702 L573.2892403666438,576.9917724778312" stroke="grey" stroke-width="5" />
<circle cx="549.8980672748601" cy="552.4188901875702" r="2.5" fill="grey" stroke="none" />
<circle cx="549.2892403666438" cy="552.9917724778312" r="5" fill="black" stroke="none" />
<circle cx="573.2892403666438" cy="576.9917724778312" r="5" fill="black" stroke="none" />
<path d="M501.28924036664375,608.9917724778312 A108.99939728540842,108.99939728540842,0,0,0,544.9135215642374,599.3158808513577" stroke="grey" stroke-width="5" fill="none" />
<path d="M544.9135215642374,599.3158808513577 L549.2892403666438,608.9917724778312" stroke="grey" stroke-width="5" />
<circle cx="544.9135215642374" cy="599.3158808513577" r="2.5" fill="grey" stroke="none" />
<circle cx="501.28924036664375" cy="608.9917724778312" r="5" fill="black" stroke="none" />
<circle cx="549.2892403666438" cy="608.9917724778312" r="5" fill="black" stroke="none" />
<path d="M597.2892403666438,552.9917724778312 A110.78503618025682,110.78503618025682,0,0,1,573.7740987444838,582.6480888823206" stroke="grey" stroke-width="5" fill="none" />
<path d="M573.7740987444838,582.6480888823206 L597.2892403666438,608.9917724778312" stroke="grey" stroke-width="5" />
<circle cx="573.7740987444838" cy="582.6480888823206" r="2.5" fill="grey" stroke="none" />
<circle cx="597.2892403666438" cy="552.9917724778312" r="5" fill="black" stroke="none" />
<circle cx="597.2892403666438" cy="608.9917724778312" r="5" fill="black" stroke="none" />
<path d="M573.2892403666438,576.9917724778312 A106.29696977241548,106.29696977241548,0,0,1,570.7854003989314,579.2998920122894" stroke="grey" stroke-width="5" fill="none" />
<path d="M570.7854003989314,579.2998920122894 L597.2892403666438,608.9917724778312" stroke="grey" stroke-width="5" />
<circle cx="570.7854003989314" cy="579.2998920122894" r="2.5" fill="grey" stroke="none" />
<circle cx="573.2892403666438" cy="576.9917724778312" r="5" fill="black" stroke="none" />
<circle cx="597.2892403666438" cy="608.9917724778312" r="5" fill="black" stroke="none" />
<path d="M549.2892403666438,608.9917724778312 A119.618709589178,119.618709589178,0,0,0,579.6566287035471,589.2382047520306" stroke="grey" stroke-width="5" fill="none" />
<path d="M579.6566287035471,589.2382047520306 L597.2892403666438,608.9917724778312" stroke="grey" stroke-width="5" />
<circle cx="579.6566287035471" cy="589.2382047520306" r="2.5" fill="grey" stroke="none" />
<circle cx="549.2892403666438" cy="608.9917724778312" r="5" fill="black" stroke="none" />
<circle cx="597.2892403666438" cy="608.9917724778312" r="5" fill="black" stroke="none" />
<path d="M549.2892403666438,656.9917724778312 L543.7625996029876,639.3888002493977" stroke="grey" stroke-width="5" />
<circle cx="543.7625996029876" cy="639.3888002493977" r="2.5" fill="grey" stroke="none" />
<path d="M543.7625996029876,639.3888002493977 A146.09723734204528,146.09723734204528,0,0,0,597.2892403666438,608.9917724778312" stroke="grey" stroke-width="5" fill="none" />
<circle cx="549.2892403666438" cy="656.9917724778312" r="5" fill="black" stroke="none" />
<circle cx="597.2892403666438" cy="608.9917724778312" r="5" fill="black" stroke="none" />
<path d="M597.2892403666438,608.9917724778312 A146.09723734204528,146.09723734204528,0,0,1,569.1721303672082,628.6841837190564" stroke="grey" stroke-width="5" fill="none" />
<path d="M569.1721303672082,628.6841837190564 L597.2892403666438,680.9917724778312" stroke="grey" stroke-width="5" />
<circle cx="569.1721303672082" cy="628.6841837190564" r="2.5" fill="grey" stroke="none" />
<circle cx="597.2892403666438" cy="608.9917724778312" r="5" fill="black" stroke="none" />
<circle cx="597.2892403666438" cy="680.9917724778312" r="5" fill="black" stroke="none" />
<path d="M597.2892403666438,680.9917724778312 A205.48288978838505,205.48288978838505,0,0,1,546.3272904606333,700.1924078339679" stroke="grey" stroke-width="5" fill="none" />
<path d="M546.3272904606333,700.1924078339679 L549.2892403666438,712.9917724778312" stroke="grey" stroke-width="5" />
<circle cx="546.3272904606333" cy="700.1924078339679" r="2.5" fill="grey" stroke="none" />
<circle cx="597.2892403666438" cy="680.9917724778312" r="5" fill="black" stroke="none" />
<circle cx="549.2892403666438" cy="712.9917724778312" r="5" fill="black" stroke="none" />
<path d="M597.2892403666438,552.9917724778312 A110.78503618025682,110.78503618025682,0,0,0,607.3906150540556,472.7863997278482" stroke="grey" stroke-width="5" fill="none" />
<path d="M607.3906150540556,472.7863997278482 L701.2892403666438,448.9917724778312" stroke="grey" stroke-width="5" />
<circle cx="607.3906150540556" cy="472.7863997278482" r="2.5" fill="grey" stroke="none" />
<circle cx="597.2892403666438" cy="552.9917724778312" r="5" fill="black" stroke="none" />
<circle cx="701.2892403666438" cy="448.9917724778312" r="5" fill="black" stroke="none" />
<path d="M597.2892403666438,552.9917724778312 A110.78503618025682,110.78503618025682,0,0,0,604.8323296453162,535.8260645703176" stroke="grey" stroke-width="5" fill="none" />
<path d="M604.8323296453162,535.8260645703176 L725.2892403666438,576.9917724778312" stroke="grey" stroke-width="5" />
<circle cx="604.8323296453162" cy="535.8260645703176" r="2.5" fill="grey" stroke="none" />
<circle cx="597.2892403666438" cy="552.9917724778312" r="5" fill="black" stroke="none" />
<circle cx="725.2892403666438" cy="576.9917724778312" r="5" fill="black" stroke="none" />
<path d="M725.2892403666438,576.9917724778312 A238.08186586604518,238.08186586604518,0,0,0,731.202526759621,556.8187158797544" stroke="grey" stroke-width="5" fill="none" />
<path d="M731.202526759621,556.8187158797544 L813.2892403666438,576.9917724778312" stroke="grey" stroke-width="5" />
<circle cx="731.202526759621" cy="556.8187158797544" r="2.5" fill="grey" stroke="none" />
<circle cx="725.2892403666438" cy="576.9917724778312" r="5" fill="black" stroke="none" />
<circle cx="813.2892403666438" cy="576.9917724778312" r="5" fill="black" stroke="none" />
<path d="M597.2892403666438,608.9917724778312 A146.09723734204528,146.09723734204528,0,0,1,588.198256022584,616.4708993420787" stroke="grey" stroke-width="5" fill="none" />
<path d="M588.198256022584,616.4708993420787 L661.2892403666438,712.9917724778312" stroke="grey" stroke-width="5" />
<circle cx="588.198256022584" cy="616.4708993420787" r="2.5" fill="grey" stroke="none" />
<circle cx="597.2892403666438" cy="608.9917724778312" r="5" fill="black" stroke="none" />
<circle cx="661.2892403666438" cy="712.9917724778312" r="5" fill="black" stroke="none" />
<circle cx="500" cy="500" r="5" fill="red" stroke="none" />
</svg>