<?xml version="1.0" encoding="UTF-8"?>
<svg xmlns="http://www.w3.org/2000/svg" xmlns:xlink="http://www.w3.org/1999/xlink"
     width="1000" height="1000" viewBox="0 0 1000 1000">
<defs>
</defs>
<rect x="0" y="0" width="1000" height="1000" fill="white" />
<path d="M245.7437172352644,842.2562827647356 L324.30493381965107,736.5044418848502" stroke="grey" stroke-width="5" />
<circle cx="324.30493381965107" cy="736.5044418848502" r="2.5" fill="grey" stroke="none" />
<path d="M324.30493381965107,736.5044418848502 A294.62367065696134,294.62367065696134,0,0,0,365.7437172352644,762.2562827647357" stroke="grey" stroke-width="5" fill="none" />
<circle cx="245.7437172352644" cy="842.2562827647356" r="5" fill="black" stroke="none" />
<circle cx="365.7437172352644" cy="762.2562827647356" r="5" fill="black" stroke="none" />
<path d="M365.7437172352644,762.2562827647356 L387.8542355402675,719.0655864244163" stroke="grey" stroke-width="5" />
<circle cx="387.8542355402675" cy="719.0655864244163" r="2.5" fill="grey" stroke="none" />
<path d="M387.8542355402675,719.0655864244163 A246.10242510331184,246.10242510331184,0,0,1,365.7437172352644,706.2562827647356" stroke="grey" stroke-width="5" fill="none" />
<circle cx="365.7437172352644" cy="762.2562827647356" r="5" fill="black" stroke="none" />
<circle cx="365.7437172352644" cy="706.2562827647356" r="5" fill="black" stroke="none" />
<path d="M365.7437172352644,706.2562827647356 A246.10242510331184,246.10242510331184,0,0,1,313.93325069215996,661.0762814437452" stroke="grey" stroke-width="5" fill="none" />
<path d="M313.93325069215985,661.0762814437451 L-238.2562827647356,206.2562827647356" stroke="grey" stroke-width="5" />
<circle cx="313.93325069215985" cy="661.0762814437451" r="2.5" fill="grey" stroke="none" />
<circle cx="365.7437172352644" cy="706.2562827647356" r="5" fill="black" stroke="none" />
<circle cx="261.7437172352644" cy="706.2562827647356" r="5" fill="black" stroke="none" />
<path d="M261.7437172352644,706.2562827647356 L331.3441698669672,646.0038081102338" stroke="grey" stroke-width="5" />
<circle cx="331.3441698669672" cy="646.0038081102338" r="2.5" fill="grey" stroke="none" />
<path d="M331.34416986696726,646.0038081102338 A223.07375690688576,223.07375690688576,0,0,1,301.7437172352644,602.2562827647356" stroke="grey" stroke-width="5" fill="none" />
<circle cx="261.7437172352644" cy="706.2562827647356" r="5" fill="black" stroke="none" />
<circle cx="301.7437172352644" cy="602.2562827647356" r="5" fill="black" stroke="none" />
<path d="M301.7437172352644,602.2562827647356 L422.29992675827515,540.0760094431657" stroke="grey" stroke-width="5" />
<circle cx="422.29992675827515" cy="540.0760094431657" r="2.5" fill="grey" stroke="none" />
<path d="M422.29992675827515,540.0760094431657 A87.42647147550976,87.42647147550976,0,0,1,413.7437172352644,514.2562827647356" stroke="grey" stroke-width="5" fill="none" />
<circle cx="301.7437172352644" cy="602.2562827647356" r="5" fill="black" stroke="none" />
<circle cx="413.7437172352644" cy="514.2562827647356" r="5" fill="black" stroke="none" />
<path d="M413.7437172352644,514.2562827647356 L446.6215997113767,508.82228567766396" stroke="grey" stroke-width="5" />
<circle cx="446.6215997113767" cy="508.82228567766396" r="2.5" fill="grey" stroke="none" />
<path d="M446.6215997113767,508.8222856776639 A54.10255393186918,54.10255393186918,0,0,0,461.7437172352644,538.2562827647356" stroke="grey" stroke-width="5" fill="none" />
<circle cx="413.7437172352644" cy="514.2562827647356" r="5" fill="black" stroke="none" />
<circle cx="461.7437172352644" cy="538.2562827647356" r="5" fill="black" stroke="none" />
<path d="M461.7437172352644,538.2562827647356 A54.10255393186918,54.10255393186918,0,0,1,452.32062980725334,525.5688091231061" stroke="grey" stroke-width="5" fill="none" />
<path d="M452.32062980725334,525.5688091231061 L-86.2562827647356,46.256282764735616" stroke="grey" stroke-width="5" />
<circle cx="452.32062980725334" cy="525.5688091231061" r="2.5" fill="grey" stroke="none" />
<circle cx="461.7437172352644" cy="538.2562827647356" r="5" fill="black" stroke="none" />
<circle cx="413.7437172352644" cy="546.2562827647356" r="5" fill="black" stroke="none" />
<path d="M413.7437172352644,514.2562827647356 A87.42647147550976,87.42647147550976,0,0,0,422.9530069250389,541.3176569128141" stroke="grey" stroke-width="5" fill="none" />
<path d="M422.9530069250389,541.3176569128141 L-86.2562827647356,46.256282764735616" stroke="grey" stroke-width="5" />
<circle cx="422.9530069250389" cy="541.3176569128141" r="2.5" fill="grey" stroke="none" />
<circle cx="413.7437172352644" cy="514.2562827647356" r="5" fill="black" stroke="none" />
<circle cx="413.7437172352644" cy="546.2562827647356" r="5" fill="black" stroke="none" />
<path d="M413.7437172352644,546.2562827647356 A97.87640170950914,97.87640170950914,0,0,0,436.68214657945356,574.6367164994241" stroke="grey" stroke-width="5" fill="none" />
<path d="M436.68214657945356,574.636716499424 L-134.2562827647356,158.2562827647356" stroke="grey" stroke-width="5" />
<circle cx="436.68214657945356" cy="574.636716499424" r="2.5" fill="grey" stroke="none" />
<circle cx="413.7437172352644" cy="546.2562827647356" r="5" fill="black" stroke="none" />
<circle cx="365.7437172352644" cy="658.2562827647356" r="5" fill="black" stroke="none" />
<path d="M301.7437172352644,602.2562827647356 L315.55584054747646,595.1322896821508" stroke="grey" stroke-width="5" />
<circle cx="315.55584054747646" cy="595.1322896821508" r="2.5" fill="grey" stroke="none" />
<path d="M315.55584054747646,595.1322896821508 A207.53264922974552,207.53264922974552,0,0,0,365.74371723526446,658.2562827647357" stroke="grey" stroke-width="5" fill="none" />
<circle cx="301.7437172352644" cy="602.2562827647356" r="5" fill="black" stroke="none" />
<circle cx="365.7437172352644" cy="658.2562827647356" r="5" fill="black" stroke="none" />
<path d="M365.74371723526446,658.2562827647357 A207.53264922974552,207.53264922974552,0,0,0,386.78469126743903,673.9312920808314" stroke="grey" stroke-width="5" fill="none" />
<path d="M386.78469126743903,673.9312920808314 L-134.2562827647356,206.2562827647356" stroke="grey" stroke-width="5" />
<circle cx="386.78469126743903" cy="673.9312920808314" r="2.5" fill="grey" stroke="none" />
<circle cx="365.7437172352644" cy="658.2562827647356" r="5" fill="black" stroke="none" />
<circle cx="365.7437172352644" cy="706.2562827647356" r="5" fill="black" stroke="none" />
<path d="M461.7437172352644,538.2562827647356 L501.7437172352644,498.2562827647356" stroke="grey" stroke-width="5" />
<circle cx="461.7437172352644" cy="538.2562827647356" r="5" fill="black" stroke="none" />
<circle cx="501.7437172352644" cy="498.2562827647356" r="5" fill="black" stroke="none" />
<path d="M461.7437172352644,538.2562827647356 A54.10255393186918,54.10255393186918,0,0,0,505.13203621809464,553.8585976999678" stroke="grey" stroke-width="5" fill="none" />
<path d="M505.13203621809464,553.8585976999678 L9.743717235264398,102.25628276473562" stroke="grey" stroke-width="5" />
<circle cx="505.13203621809464" cy="553.8585976999678" r="2.5" fill="grey" stroke="none" />
<circle cx="461.7437172352644" cy="538.2562827647356" r="5" fill="black" stroke="none" />
<circle cx="509.7437172352644" cy="602.2562827647356" r="5" fill="black" stroke="none" />
<path d="M413.7437172352644,546.2562827647356 A97.87640170950914,97.87640170950914,0,0,0,465.7039084385283,591.6709774967429" stroke="grey" stroke-width="5" fill="none" />
<path d="M465.7039084385283,591.6709774967429 L-38.2562827647356,102.25628276473562" stroke="grey" stroke-width="5" />
<circle cx="465.7039084385283" cy="591.6709774967429" r="2.5" fill="grey" stroke="none" />
<circle cx="413.7437172352644" cy="546.2562827647356" r="5" fill="black" stroke="none" />
<circle cx="461.7437172352644" cy="602.2562827647356" r="5" fill="black" stroke="none" />
<path d="M365.7437172352644,658.2562827647356 L383.40204239330114,637.4413097756582" stroke="grey" stroke-width="5" />
<circle cx="383.40204239330114" cy="637.4413097756582" r="2.5" fill="grey" stroke="none" />
<path d="M383.4020423933012,637.4413097756583 A180.23650393552904,180.23650393552904,0,0,0,413.7437172352644,658.2562827647356" stroke="grey" stroke-width="5" fill="none" />
<circle cx="365.7437172352644" cy="658.2562827647356" r="5" fill="black" stroke="none" />
<circle cx="413.7437172352644" cy="658.2562827647356" r="5" fill="black" stroke="none" />
<path d="M365.7437172352644,706.2562827647356 L385.56188076174686,675.8098808830531" stroke="grey" stroke-width="5" />
<circle cx="385.56188076174686" cy="675.8098808830531" r="2.5" fill="grey" stroke="none" />
<path d="M385.56188076174686,675.8098808830531 A209.77415796732916,209.77415796732916,0,0,0,461.7437172352644,706.2562827647356" stroke="grey" stroke-width="5" fill="none" />
<circle cx="365.7437172352644" cy="706.2562827647356" r="5" fill="black" stroke="none" />
<circle cx="461.7437172352644" cy="706.2562827647356" r="5" fill="black" stroke="none" />
<path d="M365.7437172352644,762.2562827647356 L379.228319107914,735.9154554391308" stroke="grey" stroke-width="5" />
<circle cx="379.228319107914" cy="735.9154554391308" r="2.5" fill="grey" stroke="none" />
<path d="M379.228319107914,735.9154554391308 A265.03188679959317,265.03188679959317,0,0,0,461.7437172352644,762.2562827647356" stroke="grey" stroke-width="5" fill="none" />
<circle cx="365.7437172352644" cy="762.2562827647356" r="5" fill="black" stroke="none" />
<circle cx="461.7437172352644" cy="762.2562827647356" r="5" fill="black" stroke="none" />
<path d="M509.7437172352644,602.2562827647356 A102.71945964822028,102.71945964822028,0,0,1,464.0068910206167,596.2069825762173" stroke="grey" stroke-width="5" fill="none" />
<path d="M464.0068910206167,596.2069825762173 L-38.2562827647356,102.25628276473562" stroke="grey" stroke-width="5" />
<circle cx="464.0068910206167" cy="596.2069825762173" r="2.5" fill="grey" stroke="none" />
<circle cx="509.7437172352644" cy="602.2562827647356" r="5" fill="black" stroke="none" />
<circle cx="461.7437172352644" cy="602.2562827647356" r="5" fill="black" stroke="none" />
<path d="M461.7437172352644,602.2562827647356 A109.1782512034195,109.1782512034195,0,0,1,447.7502620061357,595.8637335774562" stroke="grey" stroke-width="5" fill="none" />
<path d="M447.7502620061357,595.8637335774562 L-86.2562827647356,158.2562827647356" stroke="grey" stroke-width="5" />
<circle cx="447.7502620061357" cy="595.8637335774562" r="2.5" fill="grey" stroke="none" />
<circle cx="461.7437172352644" cy="602.2562827647356" r="5" fill="black" stroke="none" />
<circle cx="413.7437172352644" cy="658.2562827647356" r="5" fill="black" stroke="none" />
<path d="M413.7437172352644,658.2562827647356 A180.23650393552904,180.23650393552904,0,0,0,467.1304667557819,677.2139699211358" stroke="grey" stroke-width="5" fill="none" />
<path d="M467.1304667557819,677.2139699211358 L-38.2562827647356,206.2562827647356" stroke="grey" stroke-width="5" />
<circle cx="467.1304667557819" cy="677.2139699211358" r="2.5" fill="grey" stroke="none" />
<circle cx="413.7437172352644" cy="658.2562827647356" r="5" fill="black" stroke="none" />
<circle cx="461.7437172352644" cy="706.2562827647356" r="5" fill="black" stroke="none" />
<path d="M461.7437172352644,706.2562827647356 A209.77415796732916,209.77415796732916,0,0,0,469.71994728317054,707.5772525070317" stroke="grey" stroke-width="5" fill="none" />
<path d="M469.71994728317054,707.5772525070317 L-38.2562827647356,262.2562827647356" stroke="grey" stroke-width="5" />
<circle cx="469.71994728317054" cy="707.5772525070317" r="2.5" fill="grey" stroke="none" />
<circle cx="461.7437172352644" cy="706.2562827647356" r="5" fill="black" stroke="none" />
<circle cx="461.7437172352644" cy="762.2562827647356" r="5" fill="black" stroke="none" />
<path d="M461.7437172352644,762.2562827647356 A265.03188679959317,265.03188679959317,0,0,0,526.0039344445371,763.7530974490282" stroke="grey" stroke-width="5" fill="none" />
<path d="M526.0039344445371,763.7530974490282 L33.7437172352644,342.2562827647356" stroke="grey" stroke-width="5" />
<circle cx="526.0039344445371" cy="763.7530974490282" r="2.5" fill="grey" stroke="none" />
<circle cx="461.7437172352644" cy="762.2562827647356" r="5" fill="black" stroke="none" />
<circle cx="533.7437172352644" cy="842.2562827647356" r="5" fill="black" stroke="none" />
<path d="M509.7437172352644,602.2562827647356 A102.71945964822028,102.71945964822028,0,0,1,488.4746287174307,602.0708244662562" stroke="grey" stroke-width="5" fill="none" />
<path d="M488.4746287174306,602.0708244662562 L-14.256282764735602,126.25628276473562" stroke="grey" stroke-width="5" />
<circle cx="488.4746287174306" cy="602.0708244662562" r="2.5" fill="grey" stroke="none" />
<circle cx="509.7437172352644" cy="602.2562827647356" r="5" fill="black" stroke="none" />
<circle cx="485.7437172352644" cy="626.2562827647356" r="5" fill="black" stroke="none" />
<path d="M485.7437172352644,626.2562827647356 A127.0586106324045,127.0586106324045,0,0,1,470.14524425483233,623.5013526048738" stroke="grey" stroke-width="5" fill="none" />
<path d="M470.14524425483233,623.5013526048738 L-38.2562827647356,158.2562827647356" stroke="grey" stroke-width="5" />
<circle cx="470.14524425483233" cy="623.5013526048738" r="2.5" fill="grey" stroke="none" />
<circle cx="485.7437172352644" cy="626.2562827647356" r="5" fill="black" stroke="none" />
<circle cx="461.7437172352644" cy="658.2562827647356" r="5" fill="black" stroke="none" />
<path d="M461.74371723526434,658.2562827647356 A162.81460071347212,162.81460071347212,0,0,0,470.3076801095196,660.084228907812" stroke="grey" stroke-width="5" fill="none" />
<path d="M470.3076801095196,660.084228907812 L-38.2562827647356,206.2562827647356" stroke="grey" stroke-width="5" />
<circle cx="470.3076801095196" cy="660.084228907812" r="2.5" fill="grey" stroke="none" />
<circle cx="461.7437172352644" cy="658.2562827647356" r="5" fill="black" stroke="none" />
<circle cx="461.7437172352644" cy="706.2562827647356" r="5" fill="black" stroke="none" />
<path d="M461.7437172352644,602.2562827647356 A109.1782512034195,109.1782512034195,0,0,0,487.7499367168562,608.4888311550823" stroke="grey" stroke-width="5" fill="none" />
<path d="M487.7499367168562,608.4888311550823 L-14.256282764735602,126.25628276473562" stroke="grey" stroke-width="5" />
<circle cx="487.7499367168562" cy="608.4888311550823" r="2.5" fill="grey" stroke="none" />
<circle cx="461.7437172352644" cy="602.2562827647356" r="5" fill="black" stroke="none" />
<circle cx="485.7437172352644" cy="626.2562827647356" r="5" fill="black" stroke="none" />
<path d="M413.7437172352644,658.2562827647356 L422.0813657016324,642.9590173251223" stroke="grey" stroke-width="5" />
<circle cx="422.0813657016324" cy="642.9590173251223" r="2.5" fill="grey" stroke="none" />
<path d="M422.0813657016324,642.9590173251223 A162.81460071347212,162.81460071347212,0,0,0,461.74371723526434,658.2562827647356" stroke="grey" stroke-width="5" fill="none" />
<circle cx="413.7437172352644" cy="658.2562827647356" r="5" fill="black" stroke="none" />
<circle cx="461.7437172352644" cy="658.2562827647356" r="5" fill="black" stroke="none" />
<path d="M509.7437172352644,602.2562827647356 A102.71945964822028,102.71945964822028,0,0,1,506.31240476276946,602.525318514664" stroke="grey" stroke-width="5" fill="none" />
<path d="M506.31240476276946,602.525318514664 L9.743717235264398,158.2562827647356" stroke="grey" stroke-width="5" />
<circle cx="506.31240476276946" cy="602.525318514664" r="2.5" fill="grey" stroke="none" />
<circle cx="509.7437172352644" cy="602.2562827647356" r="5" fill="black" stroke="none" />
<circle cx="509.7437172352644" cy="658.2562827647356" r="5" fill="black" stroke="none" />
<path d="M485.7437172352644,626.2562827647356 A127.0586106324045,127.0586106324045,0,0,0,507.80811524567594,626.8184681824663" stroke="grey" stroke-width="5" fill="none" />
<path d="M507.8081152456759,626.8184681824663 L9.743717235264398,158.2562827647356" stroke="grey" stroke-width="5" />
<circle cx="507.8081152456759" cy="626.8184681824663" r="2.5" fill="grey" stroke="none" />
<circle cx="485.7437172352644" cy="626.2562827647356" r="5" fill="black" stroke="none" />
<circle cx="509.7437172352644" cy="658.2562827647356" r="5" fill="black" stroke="none" />
<path d="M461.7437172352644,658.2562827647356 L462.74436417035514,654.1168668867934" stroke="grey" stroke-width="5" />
<circle cx="462.74436417035514" cy="654.1168668867934" r="2.5" fill="grey" stroke="none" />
<path d="M462.74436417035514,654.1168668867934 A158.55595561212053,158.55595561212053,0,0,0,509.74371723526446,658.2562827647356" stroke="grey" stroke-width="5" fill="none" />
<circle cx="461.7437172352644" cy="658.2562827647356" r="5" fill="black" stroke="none" />
<circle cx="509.7437172352644" cy="658.2562827647356" r="5" fill="black" stroke="none" />
<path d="M461.7437172352644,706.2562827647356 L471.08432453879834,655.8970005250108" stroke="grey" stroke-width="5" />
<circle cx="471.08432453879834" cy="655.8970005250108" r="2.5" fill="grey" stroke="none" />
<path d="M471.08432453879834,655.8970005250108 A158.55595561212053,158.55595561212053,0,0,0,509.74371723526446,658.2562827647356" stroke="grey" stroke-width="5" fill="none" />
<circle cx="461.7437172352644" cy="706.2562827647356" r="5" fill="black" stroke="none" />
<circle cx="509.7437172352644" cy="658.2562827647356" r="5" fill="black" stroke="none" />
<path d="M509.74371723526446,658.2562827647356 A158.55595561212053,158.55595561212053,0,0,1,506.7035868668034,658.4141817615833" stroke="grey" stroke-width="5" fill="none" />
<path d="M506.7035868668034,658.4141817615833 L9.743717235264398,230.2562827647356" stroke="grey" stroke-width="5" />
<circle cx="506.7035868668034" cy="658.4141817615833" r="2.5" fill="grey" stroke="none" />
<circle cx="509.7437172352644" cy="658.2562827647356" r="5" fill="black" stroke="none" />
<circle cx="509.7437172352644" cy="730.2562827647356" r="5" fill="black" stroke="none" />
<path d="M509.7437172352644,730.2562827647356 A230.46235219270557,230.46235219270557,0,0,1,466.73368997754966,728.0487851221419" stroke="grey" stroke-width="5" fill="none" />
<path d="M466.73368997754966,728.0487851221419 L-38.2562827647356,262.2562827647356" stroke="grey" stroke-width="5" />
<circle cx="466.73368997754966" cy="728.0487851221419" r="2.5" fill="grey" stroke="none" />
<circle cx="509.7437172352644" cy="730.2562827647356" r="5" fill="black" stroke="none" />
<circle cx="461.7437172352644" cy="762.2562827647356" r="5" fill="black" stroke="none" />
<path d="M509.7437172352644,602.2562827647356 A102.71945964822028,102.71945964822028,0,0,0,602.707391421093,498.425472167051" stroke="grey" stroke-width="5" fill="none" />
<path d="M602.707391421093,498.425472167051 L113.7437172352644,-1.7437172352643842" stroke="grey" stroke-width="5" />
<circle cx="602.707391421093" cy="498.425472167051" r="2.5" fill="grey" stroke="none" />
<circle cx="509.7437172352644" cy="602.2562827647356" r="5" fill="black" stroke="none" />
<circle cx="613.7437172352644" cy="498.2562827647356" r="5" fill="black" stroke="none" />
<path d="M509.7437172352644,602.2562827647356 A102.71945964822028,102.71945964822028,0,0,0,575.7224822539241,569.4074424808067" stroke="grey" stroke-width="5" fill="none" />
<path d="M575.7224822539241,569.4074424808067 L137.7437172352644,126.25628276473562" stroke="grey" stroke-width="5" />
<circle cx="575.7224822539241" cy="569.4074424808067" r="2.5" fill="grey" stroke="none" />
<circle cx="509.7437172352644" cy="602.2562827647356" r="5" fill="black" stroke="none" />
<circle cx="637.7437172352644" cy="626.2562827647356" r="5" fill="black" stroke="none" />
<path d="M637.7437172352644,626.2562827647356 A186.85283132818017,186.85283132818017,0,0,0,663.0795321070386,591.2088086925089" stroke="grey" stroke-width="5" fill="none" />
<path d="M663.0795321070386,591.2088086925089 L225.7437172352644,126.25628276473562" stroke="grey" stroke-width="5" />
<circle cx="663.0795321070386" cy="591.2088086925089" r="2.5" fill="grey" stroke="none" />
<circle cx="637.7437172352644" cy="626.2562827647356" r="5" fill="black" stroke="none" />
<circle cx="725.7437172352644" cy="626.2562827647356" r="5" fill="black" stroke="none" />
<path d="M509.74371723526446,658.2562827647356 A158.55595561212053,158.55595561212053,0,0,0,542.9197682942632,652.636445679397" stroke="grey" stroke-width="5" fill="none" />
<path d="M542.9197682942632,652.636445679397 L73.7437172352644,262.2562827647356" stroke="grey" stroke-width="5" />
<circle cx="542.9197682942632" cy="652.636445679397" r="2.5" fill="grey" stroke="none" />
<circle cx="509.7437172352644" cy="658.2562827647356" r="5" fill="black" stroke="none" />
<circle cx="573.7437172352644" cy="762.2562827647356" r="5" fill="black" stroke="none" />
<circle cx="500" cy="500" r="5" fill="red" stroke="none" />
</svg>