<?xml version="1.0" encoding="UTF-8"?>
<svg xmlns="http://www.w3.org/2000/svg" xmlns:xlink="http://www.w3.org/1999/xlink"
     width="1000" height="1000" viewBox="0 0 1000 1000">
<defs>
</defs>
<rect x="0" y="0" width="1000" height="1000" fill="white" />
<path d="M197.84836515229227,622.0035933724749 L326.66513897384596,569.989612707435" stroke="grey" stroke-width="5" />
<circle cx="326.66513897384596" cy="569.989612707435" r="2.5" fill="grey" stroke="none" />
<path d="M326.66513897384596,569.989612707435 A186.93185906605882,186.93185906605882,0,0,1,317.8483651522922,542.0035933724749" stroke="grey" stroke-width="5" fill="none" />
<circle cx="197.84836515229227" cy="622.0035933724749" r="5" fill="black" stroke="none" />
<circle cx="317.8483651522923" cy="542.0035933724749" r="5" fill="black" stroke="none" />
<path d="M317.8483651522923,542.0035933724749 L321.98313445429244,541.0501285924557" stroke="grey" stroke-width="5" />
<circle cx="321.98313445429244" cy="541.0501285924557" r="2.5" fill="grey" stroke="none" />
<path d="M321.98313445429244,541.0501285924557 A182.68858058503736,182.68858058503736,0,0,1,317.8483651522922,486.00359337247494" stroke="grey" stroke-width="5" fill="none" />
<circle cx="317.8483651522923" cy="542.0035933724749" r="5" fill="black" stroke="none" />
<circle cx="317.8483651522923" cy="486.00359337247494" r="5" fill="black" stroke="none" />
<path d="M317.8483651522922,486.00359337247494 A182.68858058503736,182.68858058503736,0,0,0,317.5295635954833,491.07490534947044" stroke="grey" stroke-width="5" fill="none" />
<path d="M317.5295635954833,491.07490534947044 L213.84836515229227,486.00359337247494" stroke="grey" stroke-width="5" />
<circle cx="317.5295635954833" cy="491.07490534947044" r="2.5" fill="grey" stroke="none" />
<circle cx="317.8483651522923" cy="486.00359337247494" r="5" fill="black" stroke="none" />
<circle cx="213.84836515229227" cy="486.00359337247494" r="5" fill="black" stroke="none" />
<path d="M213.84836515229227,486.00359337247494 L227.35382779058193,486.66418001171934" stroke="grey" stroke-width="5" />
<circle cx="227.35382779058193" cy="486.66418001171934" r="2.5" fill="grey" stroke="none" />
<path d="M227.35382779058193,486.66418001171934 A272.9721218645001,272.9721218645001,0,0,1,253.84836515229225,382.00359337247494" stroke="grey" stroke-width="5" fill="none" />
<circle cx="213.84836515229227" cy="486.00359337247494" r="5" fill="black" stroke="none" />
<circle cx="253.84836515229227" cy="382.00359337247494" r="5" fill="black" stroke="none" />
<path d="M253.84836515229227,382.00359337247494 L278.32589249128466,393.7372561243598" stroke="grey" stroke-width="5" />
<circle cx="278.32589249128466" cy="393.7372561243598" r="2.5" fill="grey" stroke="none" />
<path d="M278.32589249128466,393.7372561243598 A245.82754254917282,245.82754254917282,0,0,1,365.8483651522923,294.00359337247494" stroke="grey" stroke-width="5" fill="none" />
<circle cx="253.84836515229227" cy="382.00359337247494" r="5" fill="black" stroke="none" />
<circle cx="365.8483651522923" cy="294.00359337247494" r="5" fill="black" stroke="none" />
<path d="M365.8483651522923,294.00359337247494 L390.11637177660043,331.26830629450217" stroke="grey" stroke-width="5" />
<circle cx="390.11637177660043" cy="331.26830629450217" r="2.5" fill="grey" stroke="none" />
<path d="M390.11637177660043,331.26830629450217 A201.3573843003137,201.3573843003137,0,0,1,413.8483651522922,318.00359337247494" stroke="grey" stroke-width="5" fill="none" />
<circle cx="365.8483651522923" cy="294.00359337247494" r="5" fill="black" stroke="none" />
<circle cx="413.8483651522923" cy="318.00359337247494" r="5" fill="black" stroke="none" />
<path d="M413.8483651522922,318.00359337247494 A201.3573843003137,201.3573843003137,0,0,0,377.0528303725103,340.5359297745931" stroke="grey" stroke-width="5" fill="none" />
<path d="M377.0528303725103,340.5359297745931 L365.8483651522923,326.00359337247494" stroke="grey" stroke-width="5" />
<circle cx="377.0528303725103" cy="340.5359297745931" r="2.5" fill="grey" stroke="none" />
<circle cx="413.8483651522923" cy="318.00359337247494" r="5" fill="black" stroke="none" />
<circle cx="365.8483651522923" cy="326.00359337247494" r="5" fill="black" stroke="none" />
<path d="M365.8483651522923,294.00359337247494 L380.10241786102233,315.8913895309867" stroke="grey" stroke-width="5" />
<circle cx="380.10241786102233" cy="315.8913895309867" r="2.5" fill="grey" stroke="none" />
<path d="M380.10241786102233,315.8913895309867 A219.70755711081893,219.70755711081893,0,0,0,365.84836515229233,326.00359337247494" stroke="grey" stroke-width="5" fill="none" />
<circle cx="365.8483651522923" cy="294.00359337247494" r="5" fill="black" stroke="none" />
<circle cx="365.8483651522923" cy="326.00359337247494" r="5" fill="black" stroke="none" />
<path d="M365.8483651522923,326.00359337247494 L382.5141823899985,347.6193740237049" stroke="grey" stroke-width="5" />
<circle cx="382.5141823899985" cy="347.6193740237049" r="2.5" fill="grey" stroke="none" />
<path d="M382.5141823899985,347.6193740237049 A192.413025838736,192.413025838736,0,0,0,317.8483651522922,438.00359337247505" stroke="grey" stroke-width="5" fill="none" />
<circle cx="365.8483651522923" cy="326.00359337247494" r="5" fill="black" stroke="none" />
<circle cx="317.8483651522923" cy="438.00359337247494" r="5" fill="black" stroke="none" />
<path d="M253.84836515229227,382.00359337247494 L326.4922419450973,416.82650417843774" stroke="grey" stroke-width="5" />
<circle cx="326.4922419450973" cy="416.82650417843774" r="2.5" fill="grey" stroke="none" />
<path d="M326.4922419450973,416.82650417843774 A192.413025838736,192.413025838736,0,0,0,317.8483651522922,438.00359337247505" stroke="grey" stroke-width="5" fill="none" />
<circle cx="253.84836515229227" cy="382.00359337247494" r="5" fill="black" stroke="none" />
<circle cx="317.8483651522923" cy="438.00359337247494" r="5" fill="black" stroke="none" />
<path d="M317.8483651522923,438.00359337247494 L327.0542055221267,441.13685661984306" stroke="grey" stroke-width="5" />
<circle cx="327.0542055221267" cy="441.13685661984306" r="2.5" fill="grey" stroke="none" />
<path d="M327.0542055221267,441.1368566198432 A182.68858058503736,182.68858058503736,0,0,0,317.8483651522922,486.00359337247494" stroke="grey" stroke-width="5" fill="none" />
<circle cx="317.8483651522923" cy="438.00359337247494" r="5" fill="black" stroke="none" />
<circle cx="317.8483651522923" cy="486.00359337247494" r="5" fill="black" stroke="none" />
<path d="M413.8483651522922,318.00359337247494 A201.3573843003137,201.3573843003137,0,0,1,459.0153901711952,302.8577722317087" stroke="grey" stroke-width="5" fill="none" />
<path d="M459.0153901711952,302.8577722317087 L453.8483651522923,278.00359337247494" stroke="grey" stroke-width="5" />
<circle cx="459.0153901711952" cy="302.8577722317087" r="2.5" fill="grey" stroke="none" />
<circle cx="413.8483651522923" cy="318.00359337247494" r="5" fill="black" stroke="none" />
<circle cx="453.8483651522923" cy="278.00359337247494" r="5" fill="black" stroke="none" />
<path d="M413.8483651522923,318.00359337247494 L446.9414027858102,387.913049465054" stroke="grey" stroke-width="5" />
<circle cx="446.9414027858102" cy="387.913049465054" r="2.5" fill="grey" stroke="none" />
<path d="M446.9414027858102,387.913049465054 A124.01088346819026,124.01088346819026,0,0,1,461.8483651522923,382.00359337247494" stroke="grey" stroke-width="5" fill="none" />
<circle cx="413.8483651522923" cy="318.00359337247494" r="5" fill="black" stroke="none" />
<circle cx="461.8483651522923" cy="382.00359337247494" r="5" fill="black" stroke="none" />
<path d="M365.8483651522923,326.00359337247494 L410.79244017250085,384.29664035316796" stroke="grey" stroke-width="5" />
<circle cx="410.79244017250085" cy="384.29664035316796" r="2.5" fill="grey" stroke="none" />
<path d="M410.79244017250085,384.29664035316796 A146.10015798739235,146.10015798739235,0,0,1,413.8483651522923,382.00359337247494" stroke="grey" stroke-width="5" fill="none" />
<circle cx="365.8483651522923" cy="326.00359337247494" r="5" fill="black" stroke="none" />
<circle cx="413.8483651522923" cy="382.00359337247494" r="5" fill="black" stroke="none" />
<path d="M317.8483651522923,438.00359337247494 L360.0969880228762,452.3831667709107" stroke="grey" stroke-width="5" />
<circle cx="360.0969880228762" cy="452.3831667709107" r="2.5" fill="grey" stroke="none" />
<path d="M360.0969880228762,452.38316677091075 A147.78435494678774,147.78435494678774,0,0,1,365.8483651522922,438.00359337247494" stroke="grey" stroke-width="5" fill="none" />
<circle cx="317.8483651522923" cy="438.00359337247494" r="5" fill="black" stroke="none" />
<circle cx="365.8483651522923" cy="438.00359337247494" r="5" fill="black" stroke="none" />
<path d="M317.8483651522923,486.00359337247494 L412.9753554047708,493.31308602643594" stroke="grey" stroke-width="5" />
<circle cx="412.9753554047708" cy="493.31308602643594" r="2.5" fill="grey" stroke="none" />
<path d="M412.9753554047708,493.31308602643594 A87.281175435576,87.281175435576,0,0,1,413.8483651522923,486.00359337247494" stroke="grey" stroke-width="5" fill="none" />
<circle cx="317.8483651522923" cy="486.00359337247494" r="5" fill="black" stroke="none" />
<circle cx="413.8483651522923" cy="486.00359337247494" r="5" fill="black" stroke="none" />
<path d="M317.8483651522923,542.0035933724749 L406.6052278082043,521.536540352981" stroke="grey" stroke-width="5" />
<circle cx="406.6052278082043" cy="521.536540352981" r="2.5" fill="grey" stroke="none" />
<path d="M406.6052278082043,521.536540352981 A95.84574087111534,95.84574087111534,0,0,0,413.8483651522923,542.0035933724749" stroke="grey" stroke-width="5" fill="none" />
<circle cx="317.8483651522923" cy="542.0035933724749" r="5" fill="black" stroke="none" />
<circle cx="413.8483651522923" cy="542.0035933724749" r="5" fill="black" stroke="none" />
<path d="M461.8483651522923,382.00359337247494 A124.01088346819026,124.01088346819026,0,0,0,426.87386176122334,399.84378638923897" stroke="grey" stroke-width="5" fill="none" />
<path d="M426.87386176122334,399.84378638923897 L413.8483651522923,382.00359337247494" stroke="grey" stroke-width="5" />
<circle cx="426.87386176122334" cy="399.84378638923897" r="2.5" fill="grey" stroke="none" />
<circle cx="461.8483651522923" cy="382.00359337247494" r="5" fill="black" stroke="none" />
<circle cx="413.8483651522923" cy="382.00359337247494" r="5" fill="black" stroke="none" />
<path d="M413.8483651522923,382.00359337247494 A146.10015798739235,146.10015798739235,0,0,0,367.3771993485086,438.71012390862757" stroke="grey" stroke-width="5" fill="none" />
<path d="M367.3771993485086,438.71012390862757 L365.8483651522923,438.00359337247494" stroke="grey" stroke-width="5" />
<circle cx="367.3771993485086" cy="438.71012390862757" r="2.5" fill="grey" stroke="none" />
<circle cx="413.8483651522923" cy="382.00359337247494" r="5" fill="black" stroke="none" />
<circle cx="365.8483651522923" cy="438.00359337247494" r="5" fill="black" stroke="none" />
<path d="M365.8483651522923,438.00359337247494 L420.77028464665216,463.38503324536157" stroke="grey" stroke-width="5" />
<circle cx="420.77028464665216" cy="463.38503324536157" r="2.5" fill="grey" stroke="none" />
<path d="M420.77028464665216,463.38503324536157 A87.281175435576,87.281175435576,0,0,0,413.8483651522923,486.00359337247494" stroke="grey" stroke-width="5" fill="none" />
<circle cx="365.8483651522923" cy="438.00359337247494" r="5" fill="black" stroke="none" />
<circle cx="413.8483651522923" cy="486.00359337247494" r="5" fill="black" stroke="none" />
<path d="M413.8483651522923,486.00359337247494 A87.281175435576,87.281175435576,0,0,0,421.54668651040123,538.2502442857367" stroke="grey" stroke-width="5" fill="none" />
<path d="M421.54668651040123,538.2502442857367 L413.8483651522923,542.0035933724749" stroke="grey" stroke-width="5" />
<circle cx="421.54668651040123" cy="538.2502442857367" r="2.5" fill="grey" stroke="none" />
<circle cx="413.8483651522923" cy="486.00359337247494" r="5" fill="black" stroke="none" />
<circle cx="413.8483651522923" cy="542.0035933724749" r="5" fill="black" stroke="none" />
<path d="M413.8483651522923,542.0035933724749 A95.84574087111534,95.84574087111534,0,0,0,488.9565522651758,595.2073962739303" stroke="grey" stroke-width="5" fill="none" />
<path d="M488.9565522651758,595.2073962739303 L485.8483651522923,622.0035933724749" stroke="grey" stroke-width="5" />
<circle cx="488.9565522651758" cy="595.2073962739303" r="2.5" fill="grey" stroke="none" />
<circle cx="413.8483651522923" cy="542.0035933724749" r="5" fill="black" stroke="none" />
<circle cx="485.8483651522923" cy="622.0035933724749" r="5" fill="black" stroke="none" />
<path d="M461.8483651522923,382.00359337247494 L465.3324156625891,392.7791588853252" stroke="grey" stroke-width="5" />
<circle cx="465.3324156625891" cy="392.7791588853252" r="2.5" fill="grey" stroke="none" />
<path d="M465.3324156625891,392.7791588853252 A112.68606911739283,112.68606911739283,0,0,0,437.8483651522923,406.00359337247494" stroke="grey" stroke-width="5" fill="none" />
<circle cx="461.8483651522923" cy="382.00359337247494" r="5" fill="black" stroke="none" />
<circle cx="437.8483651522923" cy="406.00359337247494" r="5" fill="black" stroke="none" />
<path d="M437.8483651522923,406.00359337247494 L441.4589347494556,411.46411856772585" stroke="grey" stroke-width="5" />
<circle cx="441.4589347494556" cy="411.46411856772585" r="2.5" fill="grey" stroke="none" />
<path d="M441.4589347494556,411.46411856772585 A106.13980696071668,106.13980696071668,0,0,0,413.8483651522923,438.00359337247494" stroke="grey" stroke-width="5" fill="none" />
<circle cx="437.8483651522923" cy="406.00359337247494" r="5" fill="black" stroke="none" />
<circle cx="413.8483651522923" cy="438.00359337247494" r="5" fill="black" stroke="none" />
<path d="M413.8483651522923,438.00359337247494 L429.1555527514058,449.01894587734625" stroke="grey" stroke-width="5" />
<circle cx="429.1555527514058" cy="449.01894587734625" r="2.5" fill="grey" stroke="none" />
<path d="M429.1555527514058,449.01894587734625 A87.281175435576,87.281175435576,0,0,0,413.8483651522923,486.00359337247494" stroke="grey" stroke-width="5" fill="none" />
<circle cx="413.8483651522923" cy="438.00359337247494" r="5" fill="black" stroke="none" />
<circle cx="413.8483651522923" cy="486.00359337247494" r="5" fill="black" stroke="none" />
<path d="M413.8483651522923,382.00359337247494 L433.5518235383227,408.9901652674414" stroke="grey" stroke-width="5" />
<circle cx="433.5518235383227" cy="408.9901652674414" r="2.5" fill="grey" stroke="none" />
<path d="M433.5518235383227,408.9901652674414 A112.68606911739283,112.68606911739283,0,0,1,437.8483651522923,406.00359337247494" stroke="grey" stroke-width="5" fill="none" />
<circle cx="413.8483651522923" cy="382.00359337247494" r="5" fill="black" stroke="none" />
<circle cx="437.8483651522923" cy="406.00359337247494" r="5" fill="black" stroke="none" />
<path d="M365.8483651522923,438.00359337247494 L403.6513125403079,455.47372633542335" stroke="grey" stroke-width="5" />
<circle cx="403.6513125403079" cy="455.47372633542335" r="2.5" fill="grey" stroke="none" />
<path d="M403.6513125403079,455.47372633542335 A106.13980696071668,106.13980696071668,0,0,1,413.8483651522923,438.00359337247494" stroke="grey" stroke-width="5" fill="none" />
<circle cx="365.8483651522923" cy="438.00359337247494" r="5" fill="black" stroke="none" />
<circle cx="413.8483651522923" cy="438.00359337247494" r="5" fill="black" stroke="none" />
<path d="M461.8483651522923,382.00359337247494 L477.6048241154303,430.73559519220964" stroke="grey" stroke-width="5" />
<circle cx="477.6048241154303" cy="430.73559519220964" r="2.5" fill="grey" stroke="none" />
<path d="M477.6048241154303,430.73559519220964 A72.79492891869776,72.79492891869776,0,0,0,461.8483651522923,438.00359337247494" stroke="grey" stroke-width="5" fill="none" />
<circle cx="461.8483651522923" cy="382.00359337247494" r="5" fill="black" stroke="none" />
<circle cx="461.8483651522923" cy="438.00359337247494" r="5" fill="black" stroke="none" />
<path d="M437.8483651522923,406.00359337247494 L459.850193760806,439.2785479815128" stroke="grey" stroke-width="5" />
<circle cx="459.850193760806" cy="439.2785479815128" r="2.5" fill="grey" stroke="none" />
<path d="M459.850193760806,439.2785479815128 A72.79492891869776,72.79492891869776,0,0,1,461.8483651522923,438.00359337247494" stroke="grey" stroke-width="5" fill="none" />
<circle cx="437.8483651522923" cy="406.00359337247494" r="5" fill="black" stroke="none" />
<circle cx="461.8483651522923" cy="438.00359337247494" r="5" fill="black" stroke="none" />
<path d="M413.8483651522923,438.00359337247494 L440.91375974247256,457.48038230995013" stroke="grey" stroke-width="5" />
<circle cx="440.91375974247256" cy="457.48038230995013" r="2.5" fill="grey" stroke="none" />
<path d="M440.91375974247256,457.48038230995013 A72.79492891869776,72.79492891869776,0,0,1,461.8483651522923,438.00359337247494" stroke="grey" stroke-width="5" fill="none" />
<circle cx="413.8483651522923" cy="438.00359337247494" r="5" fill="black" stroke="none" />
<circle cx="461.8483651522923" cy="438.00359337247494" r="5" fill="black" stroke="none" />
<path d="M413.8483651522923,486.00359337247494 L428.1471393611382,488.32660742155196" stroke="grey" stroke-width="5" />
<circle cx="428.1471393611382" cy="488.32660742155196" r="2.5" fill="grey" stroke="none" />
<path d="M428.1471393611382,488.32660742155196 A72.79492891869776,72.79492891869776,0,0,1,461.8483651522923,438.00359337247494" stroke="grey" stroke-width="5" fill="none" />
<circle cx="413.8483651522923" cy="486.00359337247494" r="5" fill="black" stroke="none" />
<circle cx="461.8483651522923" cy="438.00359337247494" r="5" fill="black" stroke="none" />
<path d="M461.8483651522923,438.00359337247494 L479.32889643106415,466.40945670047927" stroke="grey" stroke-width="5" />
<circle cx="479.32889643106415" cy="466.40945670047927" r="2.5" fill="grey" stroke="none" />
<path d="M479.32889643106415,466.40945670047927 A39.44133772978106,39.44133772978106,0,0,0,461.8483651522923,510.00359337247494" stroke="grey" stroke-width="5" fill="none" />
<circle cx="461.8483651522923" cy="438.00359337247494" r="5" fill="black" stroke="none" />
<circle cx="461.8483651522923" cy="510.00359337247494" r="5" fill="black" stroke="none" />
<path d="M461.8483651522923,510.00359337247494 A39.44133772978106,39.44133772978106,0,0,0,464.5478693667729,517.2848359980433" stroke="grey" stroke-width="5" fill="none" />
<path d="M464.5478693667729,517.2848359980433 L413.8483651522923,542.0035933724749" stroke="grey" stroke-width="5" />
<circle cx="464.5478693667729" cy="517.2848359980433" r="2.5" fill="grey" stroke="none" />
<circle cx="461.8483651522923" cy="510.00359337247494" r="5" fill="black" stroke="none" />
<circle cx="413.8483651522923" cy="542.0035933724749" r="5" fill="black" stroke="none" />
<path d="M461.8483651522923,382.00359337247494 A124.01088346819026,124.01088346819026,0,0,1,535.2653197354286,381.10905651598586" stroke="grey" stroke-width="5" fill="none" />
<path d="M535.2653197354286,381.10905651598586 L565.8483651522922,278.00359337247494" stroke="grey" stroke-width="5" />
<circle cx="535.2653197354286" cy="381.10905651598586" r="2.5" fill="grey" stroke="none" />
<circle cx="461.8483651522923" cy="382.00359337247494" r="5" fill="black" stroke="none" />
<circle cx="565.8483651522922" cy="278.00359337247494" r="5" fill="black" stroke="none" />
<path d="M461.8483651522923,382.00359337247494 A124.01088346819026,124.01088346819026,0,0,1,585.6886258252499,410.35537594065454" stroke="grey" stroke-width="5" fill="none" />
<path d="M585.6886258252499,410.35537594065454 L589.8483651522922,406.00359337247494" stroke="grey" stroke-width="5" />
<circle cx="585.6886258252499" cy="410.35537594065454" r="2.5" fill="grey" stroke="none" />
<circle cx="461.8483651522923" cy="382.00359337247494" r="5" fill="black" stroke="none" />
<circle cx="589.8483651522922" cy="406.00359337247494" r="5" fill="black" stroke="none" />
<path d="M589.8483651522922,406.00359337247494 A130.03097007800366,130.03097007800366,0,0,1,614.9621683064132,439.2402021257921" stroke="grey" stroke-width="5" fill="none" />
<path d="M614.9621683064132,439.2402021257921 L677.8483651522922,406.00359337247494" stroke="grey" stroke-width="5" />
<circle cx="614.9621683064132" cy="439.2402021257921" r="2.5" fill="grey" stroke="none" />
<circle cx="589.8483651522922" cy="406.00359337247494" r="5" fill="black" stroke="none" />
<circle cx="677.8483651522922" cy="406.00359337247494" r="5" fill="black" stroke="none" />
<path d="M461.8483651522923,438.00359337247494 L525.8483651522922,542.0035933724749" stroke="grey" stroke-width="5" />
<circle cx="461.8483651522923" cy="438.00359337247494" r="5" fill="black" stroke="none" />
<circle cx="525.8483651522922" cy="542.0035933724749" r="5" fill="black" stroke="none" />
<circle cx="500" cy="500" r="5" fill="red" stroke="none" />
</svg>