<?xml version="1.0" encoding="UTF-8"?>
<svg xmlns="http://www.w3.org/2000/svg" xmlns:xlink="http://www.w3.org/1999/xlink"
     width="1000" height="1000" viewBox="0 0 1000 1000">
<defs>
</defs>
<rect x="0" y="0" width="1000" height="1000" fill="white" />
<path d="M247.04868222515898,684.0 L363.4977607232644,599.2934618718854" stroke="grey" stroke-width="5" />
<circle cx="363.4977607232644" cy="599.2934618718854" r="2.5" fill="grey" stroke="none" />
<path d="M363.49776072326426,599.2934618718854 A168.795891235737,168.795891235737,0,0,0,367.04868222515904,604.0" stroke="grey" stroke-width="5" fill="none" />
<circle cx="247.04868222515898" cy="684.0" r="5" fill="black" stroke="none" />
<circle cx="367.048682225159" cy="604.0" r="5" fill="black" stroke="none" />
<path d="M367.048682225159,604.0 L388.66567199141457,587.0902997178415" stroke="grey" stroke-width="5" />
<circle cx="388.66567199141457" cy="587.0902997178415" r="2.5" fill="grey" stroke="none" />
<path d="M388.66567199141457,587.0902997178415 A141.35081498904333,141.35081498904333,0,0,1,367.0486822251589,548.0" stroke="grey" stroke-width="5" fill="none" />
<circle cx="367.048682225159" cy="604.0" r="5" fill="black" stroke="none" />
<circle cx="367.048682225159" cy="548.0" r="5" fill="black" stroke="none" />
<path d="M367.0486822251589,548.0 A141.35081498904333,141.35081498904333,0,0,1,361.4631021335894,528.0638705031662" stroke="grey" stroke-width="5" fill="none" />
<path d="M361.4631021335894,528.0638705031661 L-236.95131777484102,48.0" stroke="grey" stroke-width="5" />
<circle cx="361.4631021335894" cy="528.0638705031661" r="2.5" fill="grey" stroke="none" />
<circle cx="367.048682225159" cy="548.0" r="5" fill="black" stroke="none" />
<circle cx="263.048682225159" cy="548.0" r="5" fill="black" stroke="none" />
<path d="M263.048682225159,548.0 L299.31822545448426,540.6527605275362" stroke="grey" stroke-width="5" />
<circle cx="299.31822545448426" cy="540.6527605275362" r="2.5" fill="grey" stroke="none" />
<path d="M299.31822545448426,540.6527605275363 A204.75795851015513,204.75795851015513,0,0,1,303.048682225159,444.0" stroke="grey" stroke-width="5" fill="none" />
<circle cx="263.048682225159" cy="548.0" r="5" fill="black" stroke="none" />
<circle cx="303.048682225159" cy="444.0" r="5" fill="black" stroke="none" />
<path d="M303.048682225159,444.0 L339.18365517550603,454.2744094737808" stroke="grey" stroke-width="5" />
<circle cx="339.18365517550603" cy="454.2744094737808" r="2.5" fill="grey" stroke="none" />
<path d="M339.18365517550603,454.2744094737808 A167.19068871107032,167.19068871107032,0,0,1,415.048682225159,356.0" stroke="grey" stroke-width="5" fill="none" />
<circle cx="303.048682225159" cy="444.0" r="5" fill="black" stroke="none" />
<circle cx="415.048682225159" cy="356.0" r="5" fill="black" stroke="none" />
<path d="M415.048682225159,356.0 L436.2014910553268,391.8558825375428" stroke="grey" stroke-width="5" />
<circle cx="436.2014910553268" cy="391.8558825375428" r="2.5" fill="grey" stroke="none" />
<path d="M436.2014910553268,391.8558825375428 A125.56034360138268,125.56034360138268,0,0,1,463.048682225159,380.0" stroke="grey" stroke-width="5" fill="none" />
<circle cx="415.048682225159" cy="356.0" r="5" fill="black" stroke="none" />
<circle cx="463.048682225159" cy="380.0" r="5" fill="black" stroke="none" />
<path d="M463.048682225159,380.0 A125.56034360138268,125.56034360138268,0,0,0,424.1210761118268,399.96106360586344" stroke="grey" stroke-width="5" fill="none" />
<path d="M424.1210761118268,399.96106360586344 L-84.95131777484102,-112.0" stroke="grey" stroke-width="5" />
<circle cx="424.1210761118268" cy="399.96106360586344" r="2.5" fill="grey" stroke="none" />
<circle cx="463.048682225159" cy="380.0" r="5" fill="black" stroke="none" />
<circle cx="415.048682225159" cy="388.0" r="5" fill="black" stroke="none" />
<path d="M415.048682225159,356.0 L428.5734808929636,378.92573039685857" stroke="grey" stroke-width="5" />
<circle cx="428.5734808929636" cy="378.92573039685857" r="2.5" fill="grey" stroke="none" />
<path d="M428.5734808929636,378.92573039685857 A140.5728508342988,140.5728508342988,0,0,0,415.048682225159,388.0" stroke="grey" stroke-width="5" fill="none" />
<circle cx="415.048682225159" cy="356.0" r="5" fill="black" stroke="none" />
<circle cx="415.048682225159" cy="388.0" r="5" fill="black" stroke="none" />
<path d="M415.048682225159,388.0 L419.65454511420756,394.072379535544" stroke="grey" stroke-width="5" />
<circle cx="419.65454511420756" cy="394.072379535544" r="2.5" fill="grey" stroke="none" />
<path d="M419.65454511420756,394.072379535544 A132.95131777484102,132.95131777484102,0,0,0,367.048682225159,500.0" stroke="grey" stroke-width="5" fill="none" />
<circle cx="415.048682225159" cy="388.0" r="5" fill="black" stroke="none" />
<circle cx="367.048682225159" cy="500.0" r="5" fill="black" stroke="none" />
<path d="M303.048682225159,444.0 L372.1176093658019,463.63865976412416" stroke="grey" stroke-width="5" />
<circle cx="372.1176093658019" cy="463.63865976412416" r="2.5" fill="grey" stroke="none" />
<path d="M372.1176093658019,463.63865976412416 A132.95131777484102,132.95131777484102,0,0,0,367.048682225159,500.0" stroke="grey" stroke-width="5" fill="none" />
<circle cx="303.048682225159" cy="444.0" r="5" fill="black" stroke="none" />
<circle cx="367.048682225159" cy="500.0" r="5" fill="black" stroke="none" />
<path d="M367.048682225159,500.0 A132.95131777484102,132.95131777484102,0,0,0,374.949055656758,545.1476933733069" stroke="grey" stroke-width="5" fill="none" />
<path d="M374.949055656758,545.147693373307 L-132.95131777484102,48.0" stroke="grey" stroke-width="5" />
<circle cx="374.949055656758" cy="545.147693373307" r="2.5" fill="grey" stroke="none" />
<circle cx="367.048682225159" cy="500.0" r="5" fill="black" stroke="none" />
<circle cx="367.048682225159" cy="548.0" r="5" fill="black" stroke="none" />
<path d="M463.048682225159,380.0 A125.56034360138268,125.56034360138268,0,0,1,502.39202573229227,374.4624434752957" stroke="grey" stroke-width="5" fill="none" />
<path d="M502.39202573229227,374.4624434752957 L3.0486822251589842,-160.0" stroke="grey" stroke-width="5" />
<circle cx="502.39202573229227" cy="374.4624434752957" r="2.5" fill="grey" stroke="none" />
<circle cx="463.048682225159" cy="380.0" r="5" fill="black" stroke="none" />
<circle cx="503.048682225159" cy="340.0" r="5" fill="black" stroke="none" />
<path d="M463.048682225159,380.0 L483.2019888114967,445.4481879400559" stroke="grey" stroke-width="5" />
<circle cx="483.2019888114967" cy="445.4481879400559" r="2.5" fill="grey" stroke="none" />
<path d="M483.2019888114967,445.4481879400559 A57.079535552705266,57.079535552705266,0,0,1,511.048682225159,444.0" stroke="grey" stroke-width="5" fill="none" />
<circle cx="463.048682225159" cy="380.0" r="5" fill="black" stroke="none" />
<circle cx="511.048682225159" cy="444.0" r="5" fill="black" stroke="none" />
<path d="M415.048682225159,388.0 L459.4545182093568,446.5447496342791" stroke="grey" stroke-width="5" />
<circle cx="459.4545182093568" cy="446.5447496342791" r="2.5" fill="grey" stroke="none" />
<path d="M459.4545182093568,446.5447496342791 A67.09247264259443,67.09247264259443,0,0,1,463.048682225159,444.0" stroke="grey" stroke-width="5" fill="none" />
<circle cx="415.048682225159" cy="388.0" r="5" fill="black" stroke="none" />
<circle cx="463.048682225159" cy="444.0" r="5" fill="black" stroke="none" />
<path d="M367.048682225159,500.0 L415.048682225159,500.0" stroke="grey" stroke-width="5" />
<circle cx="415.048682225159" cy="500.0" r="2.5" fill="grey" stroke="none" />
<path d="M415.048682225159,500.0 A84.95131777484102,84.95131777484102,0,0,1,415.048682225159,500.0" stroke="grey" stroke-width="5" fill="none" />
<circle cx="367.048682225159" cy="500.0" r="5" fill="black" stroke="none" />
<circle cx="415.048682225159" cy="500.0" r="5" fill="black" stroke="none" />
<path d="M367.048682225159,548.0 L443.0240138235179,520.5702913084526" stroke="grey" stroke-width="5" />
<circle cx="443.0240138235179" cy="520.5702913084526" r="2.5" fill="grey" stroke="none" />
<path d="M443.0240138235179,520.5702913084526 A60.575571687746226,60.575571687746226,0,0,0,463.048682225159,548.0" stroke="grey" stroke-width="5" fill="none" />
<circle cx="367.048682225159" cy="548.0" r="5" fill="black" stroke="none" />
<circle cx="463.048682225159" cy="548.0" r="5" fill="black" stroke="none" />
<path d="M367.048682225159,604.0 L413.06805923156554,568.0017467388205" stroke="grey" stroke-width="5" />
<circle cx="413.06805923156554" cy="568.0017467388205" r="2.5" fill="grey" stroke="none" />
<path d="M413.0680592315656,568.0017467388205 A110.36937929198153,110.36937929198153,0,0,0,463.048682225159,604.0" stroke="grey" stroke-width="5" fill="none" />
<circle cx="367.048682225159" cy="604.0" r="5" fill="black" stroke="none" />
<circle cx="463.048682225159" cy="604.0" r="5" fill="black" stroke="none" />
<path d="M511.048682225159,444.0 A57.079535552705266,57.079535552705266,0,0,0,468.56332799233695,452.3574871360131" stroke="grey" stroke-width="5" fill="none" />
<path d="M468.56332799233695,452.3574871360131 L-36.951317774841016,-56.0" stroke="grey" stroke-width="5" />
<circle cx="468.56332799233695" cy="452.3574871360131" r="2.5" fill="grey" stroke="none" />
<circle cx="511.048682225159" cy="444.0" r="5" fill="black" stroke="none" />
<circle cx="463.048682225159" cy="444.0" r="5" fill="black" stroke="none" />
<path d="M463.048682225159,444.0 A67.09247264259443,67.09247264259443,0,0,0,432.90752735740557,500.0" stroke="grey" stroke-width="5" fill="none" />
<path d="M432.90752735740557,500.0 L-84.95131777484102,0.0" stroke="grey" stroke-width="5" />
<circle cx="432.90752735740557" cy="500.0" r="2.5" fill="grey" stroke="none" />
<circle cx="463.048682225159" cy="444.0" r="5" fill="black" stroke="none" />
<circle cx="415.048682225159" cy="500.0" r="5" fill="black" stroke="none" />
<path d="M415.048682225159,500.0 L439.4244283122538,500.0" stroke="grey" stroke-width="5" />
<circle cx="439.4244283122538" cy="500.0" r="2.5" fill="grey" stroke="none" />
<path d="M439.4244283122538,500.0 A60.575571687746226,60.575571687746226,0,0,0,463.048682225159,548.0" stroke="grey" stroke-width="5" fill="none" />
<circle cx="415.048682225159" cy="500.0" r="5" fill="black" stroke="none" />
<circle cx="463.048682225159" cy="548.0" r="5" fill="black" stroke="none" />
<path d="M463.048682225159,548.0 A60.575571687746226,60.575571687746226,0,0,0,479.7194909205293,557.0797760750232" stroke="grey" stroke-width="5" fill="none" />
<path d="M479.7194909205293,557.0797760750232 L-36.951317774841016,104.0" stroke="grey" stroke-width="5" />
<circle cx="479.7194909205293" cy="557.0797760750232" r="2.5" fill="grey" stroke="none" />
<circle cx="463.048682225159" cy="548.0" r="5" fill="black" stroke="none" />
<circle cx="463.048682225159" cy="604.0" r="5" fill="black" stroke="none" />
<path d="M463.048682225159,604.0 A110.36937929198153,110.36937929198153,0,0,0,520.6520517380671,608.41998267988" stroke="grey" stroke-width="5" fill="none" />
<path d="M520.6520517380671,608.41998267988 L35.048682225158984,184.0" stroke="grey" stroke-width="5" />
<circle cx="520.6520517380671" cy="608.41998267988" r="2.5" fill="grey" stroke="none" />
<circle cx="463.048682225159" cy="604.0" r="5" fill="black" stroke="none" />
<circle cx="535.0486822251589" cy="684.0" r="5" fill="black" stroke="none" />
<path d="M511.048682225159,444.0 L506.6822111810962,466.1313613229562" stroke="grey" stroke-width="5" />
<circle cx="506.6822111810962" cy="466.1313613229562" r="2.5" fill="grey" stroke="none" />
<path d="M506.6822111810962,466.1313613229562 A34.52153866942945,34.52153866942945,0,0,0,487.048682225159,468.0" stroke="grey" stroke-width="5" fill="none" />
<circle cx="511.048682225159" cy="444.0" r="5" fill="black" stroke="none" />
<circle cx="487.048682225159" cy="468.0" r="5" fill="black" stroke="none" />
<path d="M487.048682225159,468.0 A34.52153866942945,34.52153866942945,0,0,0,465.47846133057055,500.0" stroke="grey" stroke-width="5" fill="none" />
<path d="M465.47846133057055,500.0 L-36.951317774841016,0.0" stroke="grey" stroke-width="5" />
<circle cx="465.47846133057055" cy="500.0" r="2.5" fill="grey" stroke="none" />
<circle cx="487.048682225159" cy="468.0" r="5" fill="black" stroke="none" />
<circle cx="463.048682225159" cy="500.0" r="5" fill="black" stroke="none" />
<path d="M463.048682225159,500.0 A36.951317774841016,36.951317774841016,0,0,0,477.4595625389122,529.2801735712081" stroke="grey" stroke-width="5" fill="none" />
<path d="M477.4595625389122,529.2801735712081 L-36.951317774841016,48.0" stroke="grey" stroke-width="5" />
<circle cx="477.4595625389122" cy="529.2801735712081" r="2.5" fill="grey" stroke="none" />
<circle cx="463.048682225159" cy="500.0" r="5" fill="black" stroke="none" />
<circle cx="463.048682225159" cy="548.0" r="5" fill="black" stroke="none" />
<path d="M463.048682225159,444.0 L480.98719133149507,471.1859454668432" stroke="grey" stroke-width="5" />
<circle cx="480.98719133149507" cy="471.1859454668432" r="2.5" fill="grey" stroke="none" />
<path d="M480.98719133149507,471.1859454668432 A34.52153866942945,34.52153866942945,0,0,1,487.048682225159,468.0" stroke="grey" stroke-width="5" fill="none" />
<circle cx="463.048682225159" cy="444.0" r="5" fill="black" stroke="none" />
<circle cx="487.048682225159" cy="468.0" r="5" fill="black" stroke="none" />
<path d="M415.048682225159,500.0 L463.048682225159,500.0" stroke="grey" stroke-width="5" />
<circle cx="463.048682225159" cy="500.0" r="2.5" fill="grey" stroke="none" />
<path d="M463.048682225159,500.0 A36.951317774841016,36.951317774841016,0,0,1,463.048682225159,500.0" stroke="grey" stroke-width="5" fill="none" />
<circle cx="415.048682225159" cy="500.0" r="5" fill="black" stroke="none" />
<circle cx="463.048682225159" cy="500.0" r="5" fill="black" stroke="none" />
<path d="M511.048682225159,444.0 L502.13865403301725,489.16027962355105" stroke="grey" stroke-width="5" />
<circle cx="502.13865403301725" cy="489.16027962355105" r="2.5" fill="grey" stroke="none" />
<path d="M502.13865403301725,489.16027962355105 A11.048682225158984,11.048682225158984,0,0,1,511.048682225159,500.0" stroke="grey" stroke-width="5" fill="none" />
<circle cx="511.048682225159" cy="444.0" r="5" fill="black" stroke="none" />
<circle cx="511.048682225159" cy="500.0" r="5" fill="black" stroke="none" />
<path d="M487.048682225159,468.0 L495.85490682030377,489.7583408842034" stroke="grey" stroke-width="5" />
<circle cx="495.85490682030377" cy="489.7583408842034" r="2.5" fill="grey" stroke="none" />
<path d="M495.85490682030377,489.7583408842034 A11.048682225158984,11.048682225158984,0,0,1,511.048682225159,500.0" stroke="grey" stroke-width="5" fill="none" />
<circle cx="487.048682225159" cy="468.0" r="5" fill="black" stroke="none" />
<circle cx="511.048682225159" cy="500.0" r="5" fill="black" stroke="none" />
<path d="M463.048682225159,500.0 L511.048682225159,500.0" stroke="grey" stroke-width="5" />
<circle cx="463.048682225159" cy="500.0" r="5" fill="black" stroke="none" />
<circle cx="511.048682225159" cy="500.0" r="5" fill="black" stroke="none" />
<path d="M463.048682225159,548.0 L493.26026388987964,508.75496065545036" stroke="grey" stroke-width="5" />
<circle cx="493.26026388987964" cy="508.75496065545036" r="2.5" fill="grey" stroke="none" />
<path d="M493.26026388987964,508.75496065545036 A11.048682225158984,11.048682225158984,0,0,0,511.048682225159,500.0" stroke="grey" stroke-width="5" fill="none" />
<circle cx="463.048682225159" cy="548.0" r="5" fill="black" stroke="none" />
<circle cx="511.048682225159" cy="500.0" r="5" fill="black" stroke="none" />
<path d="M511.048682225159,500.0 A11.048682225158984,11.048682225158984,0,0,1,501.67584689827453,510.9208477732312" stroke="grey" stroke-width="5" fill="none" />
<path d="M501.67584689827453,510.9208477732312 L11.048682225158984,72.0" stroke="grey" stroke-width="5" />
<circle cx="501.67584689827453" cy="510.9208477732312" r="2.5" fill="grey" stroke="none" />
<circle cx="511.048682225159" cy="500.0" r="5" fill="black" stroke="none" />
<circle cx="511.048682225159" cy="572.0" r="5" fill="black" stroke="none" />
<path d="M511.048682225159,572.0 A72.84279908757313,72.84279908757313,0,0,1,475.6124621343289,568.6390659592845" stroke="grey" stroke-width="5" fill="none" />
<path d="M475.6124621343289,568.6390659592845 L-36.951317774841016,104.0" stroke="grey" stroke-width="5" />
<circle cx="475.6124621343289" cy="568.6390659592845" r="2.5" fill="grey" stroke="none" />
<circle cx="511.048682225159" cy="572.0" r="5" fill="black" stroke="none" />
<circle cx="463.048682225159" cy="604.0" r="5" fill="black" stroke="none" />
<path d="M511.048682225159,444.0 A57.079535552705266,57.079535552705266,0,0,1,533.3229712789127,453.6572231727823" stroke="grey" stroke-width="5" fill="none" />
<path d="M533.3229712789127,453.6572231727823 L115.04868222515898,-160.0" stroke="grey" stroke-width="5" />
<circle cx="533.3229712789127" cy="453.6572231727823" r="2.5" fill="grey" stroke="none" />
<circle cx="511.048682225159" cy="444.0" r="5" fill="black" stroke="none" />
<circle cx="615.0486822251589" cy="340.0" r="5" fill="black" stroke="none" />
<path d="M511.048682225159,444.0 A57.079535552705266,57.079535552705266,0,0,1,555.6255138143046,487.1986097705306" stroke="grey" stroke-width="5" fill="none" />
<path d="M555.6255138143046,487.1986097705306 L139.04868222515898,-32.0" stroke="grey" stroke-width="5" />
<circle cx="555.6255138143046" cy="487.1986097705306" r="2.5" fill="grey" stroke="none" />
<circle cx="511.048682225159" cy="444.0" r="5" fill="black" stroke="none" />
<circle cx="639.0486822251589" cy="468.0" r="5" fill="black" stroke="none" />
<path d="M639.0486822251589,468.0 A142.68334180468736,142.68334180468736,0,0,1,641.2869947150936,480.08716110318824" stroke="grey" stroke-width="5" fill="none" />
<path d="M641.2869947150936,480.08716110318824 L227.04868222515898,-32.0" stroke="grey" stroke-width="5" />
<circle cx="641.2869947150936" cy="480.08716110318824" r="2.5" fill="grey" stroke="none" />
<circle cx="639.0486822251589" cy="468.0" r="5" fill="black" stroke="none" />
<circle cx="727.0486822251589" cy="468.0" r="5" fill="black" stroke="none" />
<path d="M511.048682225159,500.0 A11.048682225158984,11.048682225158984,0,0,1,506.4653640259982,508.95948921110306" stroke="grey" stroke-width="5" fill="none" />
<path d="M506.4653640259982,508.95948921110306 L75.04868222515898,104.0" stroke="grey" stroke-width="5" />
<circle cx="506.4653640259982" cy="508.95948921110306" r="2.5" fill="grey" stroke="none" />
<circle cx="511.048682225159" cy="500.0" r="5" fill="black" stroke="none" />
<circle cx="575.0486822251589" cy="604.0" r="5" fill="black" stroke="none" />
<circle cx="500" cy="500" r="5" fill="red" stroke="none" />
</svg>