<?xml version="1.0" encoding="UTF-8"?>
<svg xmlns="http://www.w3.org/2000/svg" xmlns:xlink="http://www.w3.org/1999/xlink"
     width="1000" height="1000" viewBox="0 0 1000 1000">
<defs>
</defs>
<rect x="0" y="0" width="1000" height="1000" fill="white" />
<path d="M279.1065335448689,684.0 L388.6668065996783,592.738404238046" stroke="grey" stroke-width="5" />
<circle cx="388.6668065996783" cy="592.738404238046" r="2.5" fill="grey" stroke="none" />
<path d="M388.6668065996783,592.738404238046 A144.8982110770615,144.8982110770615,0,0,0,399.1065335448689,604.0" stroke="grey" stroke-width="5" fill="none" />
<circle cx="279.1065335448689" cy="684.0" r="5" fill="black" stroke="none" />
<circle cx="399.1065335448689" cy="604.0" r="5" fill="black" stroke="none" />
<path d="M399.1065335448689,604.0 L422.2020674128638,580.1933492161294" stroke="grey" stroke-width="5" />
<circle cx="422.2020674128638" cy="580.1933492161294" r="2.5" fill="grey" stroke="none" />
<path d="M422.2020674128638,580.1933492161294 A111.72954655476171,111.72954655476171,0,0,1,399.10653354486897,548.0000000000001" stroke="grey" stroke-width="5" fill="none" />
<circle cx="399.1065335448689" cy="604.0" r="5" fill="black" stroke="none" />
<circle cx="399.1065335448689" cy="548.0" r="5" fill="black" stroke="none" />
<path d="M399.10653354486897,548.0000000000001 A111.72954655476171,111.72954655476171,0,0,1,391.21570766304546,525.4846878356528" stroke="grey" stroke-width="5" fill="none" />
<path d="M391.2157076630454,525.4846878356528 L295.1065335448689,548.0" stroke="grey" stroke-width="5" />
<circle cx="391.2157076630454" cy="525.4846878356528" r="2.5" fill="grey" stroke="none" />
<circle cx="399.1065335448689" cy="548.0" r="5" fill="black" stroke="none" />
<circle cx="295.1065335448689" cy="548.0" r="5" fill="black" stroke="none" />
<path d="M295.1065335448689,548.0 L330.4473102422065,539.7207839233679" stroke="grey" stroke-width="5" />
<circle cx="330.4473102422065" cy="539.7207839233679" r="2.5" fill="grey" stroke="none" />
<path d="M330.4473102422065,539.7207839233679 A174.14320336892118,174.14320336892118,0,0,1,335.1065335448689,444.0" stroke="grey" stroke-width="5" fill="none" />
<circle cx="295.1065335448689" cy="548.0" r="5" fill="black" stroke="none" />
<circle cx="335.1065335448689" cy="444.0" r="5" fill="black" stroke="none" />
<path d="M335.1065335448689,444.0 L354.74128470897404,450.6682209357827" stroke="grey" stroke-width="5" />
<circle cx="354.74128470897404" cy="450.6682209357827" r="2.5" fill="grey" stroke="none" />
<path d="M354.74128470897404,450.6682209357827 A153.40703632376213,153.40703632376213,0,0,1,447.10653354486897,356.0" stroke="grey" stroke-width="5" fill="none" />
<circle cx="335.1065335448689" cy="444.0" r="5" fill="black" stroke="none" />
<circle cx="447.1065335448689" cy="356.0" r="5" fill="black" stroke="none" />
<path d="M447.1065335448689,356.0 L458.5906136813042,387.2648735368763" stroke="grey" stroke-width="5" />
<circle cx="458.5906136813042" cy="387.2648735368763" r="2.5" fill="grey" stroke="none" />
<path d="M458.5906136813042,387.2648735368762 A120.09973361314127,120.09973361314127,0,0,1,495.1065335448689,380.0" stroke="grey" stroke-width="5" fill="none" />
<circle cx="447.1065335448689" cy="356.0" r="5" fill="black" stroke="none" />
<circle cx="495.1065335448689" cy="380.0" r="5" fill="black" stroke="none" />
<path d="M495.1065335448689,380.0 A120.09973361314127,120.09973361314127,0,0,0,448.7130272603733,391.40169227307325" stroke="grey" stroke-width="5" fill="none" />
<path d="M448.7130272603732,391.40169227307325 L447.1065335448689,388.0" stroke="grey" stroke-width="5" />
<circle cx="448.7130272603732" cy="391.40169227307325" r="2.5" fill="grey" stroke="none" />
<circle cx="495.1065335448689" cy="380.0" r="5" fill="black" stroke="none" />
<circle cx="447.1065335448689" cy="388.0" r="5" fill="black" stroke="none" />
<path d="M447.1065335448689,356.0 L457.2935217429361,383.7336011200183" stroke="grey" stroke-width="5" />
<circle cx="457.2935217429361" cy="383.7336011200183" r="2.5" fill="grey" stroke="none" />
<path d="M457.29352174293615,383.7336011200183 A123.8616921959331,123.8616921959331,0,0,0,447.10653354486897,388.0" stroke="grey" stroke-width="5" fill="none" />
<circle cx="447.1065335448689" cy="356.0" r="5" fill="black" stroke="none" />
<circle cx="447.1065335448689" cy="388.0" r="5" fill="black" stroke="none" />
<path d="M447.1065335448689,388.0 L456.91480482081136,408.7686592792593" stroke="grey" stroke-width="5" />
<circle cx="456.91480482081136" cy="408.7686592792593" r="2.5" fill="grey" stroke="none" />
<path d="M456.91480482081136,408.7686592792593 A100.89346645513109,100.89346645513109,0,0,0,399.1065335448689,500.0" stroke="grey" stroke-width="5" fill="none" />
<circle cx="447.1065335448689" cy="388.0" r="5" fill="black" stroke="none" />
<circle cx="399.1065335448689" cy="500.0" r="5" fill="black" stroke="none" />
<path d="M335.1065335448689,444.0 L404.46555992646825,467.5552418229164" stroke="grey" stroke-width="5" />
<circle cx="404.46555992646825" cy="467.5552418229164" r="2.5" fill="grey" stroke="none" />
<path d="M404.46555992646825,467.5552418229164 A100.89346645513109,100.89346645513109,0,0,0,399.1065335448689,500.0" stroke="grey" stroke-width="5" fill="none" />
<circle cx="335.1065335448689" cy="444.0" r="5" fill="black" stroke="none" />
<circle cx="399.1065335448689" cy="500.0" r="5" fill="black" stroke="none" />
<path d="M399.1065335448689,500.0 A100.89346645513109,100.89346645513109,0,0,0,408.89167738326574,543.3447242844816" stroke="grey" stroke-width="5" fill="none" />
<path d="M408.8916773832657,543.3447242844816 L399.1065335448689,548.0" stroke="grey" stroke-width="5" />
<circle cx="408.8916773832657" cy="543.3447242844816" r="2.5" fill="grey" stroke="none" />
<circle cx="399.1065335448689" cy="500.0" r="5" fill="black" stroke="none" />
<circle cx="399.1065335448689" cy="548.0" r="5" fill="black" stroke="none" />
<path d="M495.1065335448689,380.0 A120.09973361314127,120.09973361314127,0,0,1,525.7394745752296,382.6908977847899" stroke="grey" stroke-width="5" fill="none" />
<path d="M525.7394745752296,382.6908977847899 L535.1065335448689,340.0" stroke="grey" stroke-width="5" />
<circle cx="525.7394745752296" cy="382.6908977847899" r="2.5" fill="grey" stroke="none" />
<circle cx="495.1065335448689" cy="380.0" r="5" fill="black" stroke="none" />
<circle cx="535.1065335448689" cy="340.0" r="5" fill="black" stroke="none" />
<path d="M495.1065335448689,380.0 L497.1205710098204,429.38922091532044" stroke="grey" stroke-width="5" />
<circle cx="497.1205710098204" cy="429.38922091532044" r="2.5" fill="grey" stroke="none" />
<path d="M497.1205710098204,429.38922091532044 A70.66946465238652,70.66946465238652,0,0,1,543.1065335448689,444.0" stroke="grey" stroke-width="5" fill="none" />
<circle cx="495.1065335448689" cy="380.0" r="5" fill="black" stroke="none" />
<circle cx="543.1065335448689" cy="444.0" r="5" fill="black" stroke="none" />
<path d="M447.1065335448689,388.0 L475.9948263153514,449.16991392573345" stroke="grey" stroke-width="5" />
<circle cx="475.9948263153514" cy="449.16991392573345" r="2.5" fill="grey" stroke="none" />
<path d="M475.9948263153514,449.16991392573345 A56.21339710378206,56.21339710378206,0,0,1,495.1065335448689,444.0" stroke="grey" stroke-width="5" fill="none" />
<circle cx="447.1065335448689" cy="388.0" r="5" fill="black" stroke="none" />
<circle cx="495.1065335448689" cy="444.0" r="5" fill="black" stroke="none" />
<path d="M399.1065335448689,500.0 L447.1065335448689,500.0" stroke="grey" stroke-width="5" />
<circle cx="447.1065335448689" cy="500.0" r="2.5" fill="grey" stroke="none" />
<path d="M447.1065335448689,500.0 A52.89346645513109,52.89346645513109,0,0,1,447.1065335448689,500.0" stroke="grey" stroke-width="5" fill="none" />
<circle cx="399.1065335448689" cy="500.0" r="5" fill="black" stroke="none" />
<circle cx="447.1065335448689" cy="500.0" r="5" fill="black" stroke="none" />
<path d="M399.1065335448689,548.0 L456.4306119947986,520.7281075547119" stroke="grey" stroke-width="5" />
<circle cx="456.4306119947986" cy="520.7281075547119" r="2.5" fill="grey" stroke="none" />
<path d="M456.4306119947986,520.7281075547119 A48.2487928755476,48.2487928755476,0,0,0,495.1065335448689,548.0" stroke="grey" stroke-width="5" fill="none" />
<circle cx="399.1065335448689" cy="548.0" r="5" fill="black" stroke="none" />
<circle cx="495.1065335448689" cy="548.0" r="5" fill="black" stroke="none" />
<path d="M399.1065335448689,604.0 L427.50407766592093,574.7280888212637" stroke="grey" stroke-width="5" />
<circle cx="427.50407766592093" cy="574.7280888212637" r="2.5" fill="grey" stroke="none" />
<path d="M427.50407766592093,574.7280888212637 A104.1150614173929,104.1150614173929,0,0,0,495.1065335448689,604.0" stroke="grey" stroke-width="5" fill="none" />
<circle cx="399.1065335448689" cy="604.0" r="5" fill="black" stroke="none" />
<circle cx="495.1065335448689" cy="604.0" r="5" fill="black" stroke="none" />
<path d="M543.1065335448689,444.0 L534.2887087067156,455.45529807964255" stroke="grey" stroke-width="5" />
<circle cx="534.2887087067156" cy="455.45529807964255" r="2.5" fill="grey" stroke="none" />
<path d="M534.2887087067156,455.45529807964255 A56.21339710378206,56.21339710378206,0,0,0,495.1065335448689,444.0" stroke="grey" stroke-width="5" fill="none" />
<circle cx="543.1065335448689" cy="444.0" r="5" fill="black" stroke="none" />
<circle cx="495.1065335448689" cy="444.0" r="5" fill="black" stroke="none" />
<path d="M495.1065335448689,444.0 L495.3955388371935,447.307327539398" stroke="grey" stroke-width="5" />
<circle cx="495.3955388371935" cy="447.307327539398" r="2.5" fill="grey" stroke="none" />
<path d="M495.3955388371935,447.307327539398 A52.89346645513109,52.89346645513109,0,0,0,447.1065335448689,500.0" stroke="grey" stroke-width="5" fill="none" />
<circle cx="495.1065335448689" cy="444.0" r="5" fill="black" stroke="none" />
<circle cx="447.1065335448689" cy="500.0" r="5" fill="black" stroke="none" />
<path d="M447.1065335448689,500.0 L451.7512071244524,500.0" stroke="grey" stroke-width="5" />
<circle cx="451.7512071244524" cy="500.0" r="2.5" fill="grey" stroke="none" />
<path d="M451.7512071244524,500.0 A48.2487928755476,48.2487928755476,0,0,0,495.1065335448689,548.0" stroke="grey" stroke-width="5" fill="none" />
<circle cx="447.1065335448689" cy="500.0" r="5" fill="black" stroke="none" />
<circle cx="495.1065335448689" cy="548.0" r="5" fill="black" stroke="none" />
<path d="M495.1065335448689,548.0 A48.2487928755476,48.2487928755476,0,0,0,497.7322795931462,548.1954713443477" stroke="grey" stroke-width="5" fill="none" />
<path d="M497.7322795931462,548.1954713443477 L495.1065335448689,604.0" stroke="grey" stroke-width="5" />
<circle cx="497.7322795931462" cy="548.1954713443477" r="2.5" fill="grey" stroke="none" />
<circle cx="495.1065335448689" cy="548.0" r="5" fill="black" stroke="none" />
<circle cx="495.1065335448689" cy="604.0" r="5" fill="black" stroke="none" />
<path d="M495.1065335448689,604.0 A104.1150614173929,104.1150614173929,0,0,0,535.6732849531363,597.8128966680766" stroke="grey" stroke-width="5" fill="none" />
<path d="M535.6732849531363,597.8128966680766 L567.1065335448689,684.0" stroke="grey" stroke-width="5" />
<circle cx="535.6732849531363" cy="597.8128966680766" r="2.5" fill="grey" stroke="none" />
<circle cx="495.1065335448689" cy="604.0" r="5" fill="black" stroke="none" />
<circle cx="567.1065335448689" cy="684.0" r="5" fill="black" stroke="none" />
<path d="M543.1065335448689,444.0 L522.7337846928302,470.4663808915799" stroke="grey" stroke-width="5" />
<circle cx="522.7337846928302" cy="470.4663808915799" r="2.5" fill="grey" stroke="none" />
<path d="M522.7337846928302,470.4663808915799 A37.27009020784899,37.27009020784899,0,0,0,519.1065335448689,468.0" stroke="grey" stroke-width="5" fill="none" />
<circle cx="543.1065335448689" cy="444.0" r="5" fill="black" stroke="none" />
<circle cx="519.1065335448689" cy="468.0" r="5" fill="black" stroke="none" />
<path d="M519.1065335448689,468.0 L502.5086384404823,495.7984827594751" stroke="grey" stroke-width="5" />
<circle cx="502.5086384404823" cy="495.7984827594751" r="2.5" fill="grey" stroke="none" />
<path d="M502.5086384404823,495.7984827594751 A4.89346645513109,4.89346645513109,0,0,0,495.1065335448689,500.0" stroke="grey" stroke-width="5" fill="none" />
<circle cx="519.1065335448689" cy="468.0" r="5" fill="black" stroke="none" />
<circle cx="495.1065335448689" cy="500.0" r="5" fill="black" stroke="none" />
<path d="M495.1065335448689,500.0 A4.89346645513109,4.89346645513109,0,0,0,499.50369713892616,504.8682335007252" stroke="grey" stroke-width="5" fill="none" />
<path d="M499.50369713892616,504.8682335007252 L495.1065335448689,548.0" stroke="grey" stroke-width="5" />
<circle cx="499.50369713892616" cy="504.8682335007252" r="2.5" fill="grey" stroke="none" />
<circle cx="495.1065335448689" cy="500.0" r="5" fill="black" stroke="none" />
<circle cx="495.1065335448689" cy="548.0" r="5" fill="black" stroke="none" />
<path d="M495.1065335448689,444.0 L496.7555788191362,462.8713943797728" stroke="grey" stroke-width="5" />
<circle cx="496.7555788191362" cy="462.8713943797728" r="2.5" fill="grey" stroke="none" />
<path d="M496.7555788191362,462.8713943797728 A37.27009020784899,37.27009020784899,0,0,1,519.1065335448689,468.0" stroke="grey" stroke-width="5" fill="none" />
<circle cx="495.1065335448689" cy="444.0" r="5" fill="black" stroke="none" />
<circle cx="519.1065335448689" cy="468.0" r="5" fill="black" stroke="none" />
<path d="M447.1065335448689,500.0 L495.1065335448689,500.0" stroke="grey" stroke-width="5" />
<circle cx="495.1065335448689" cy="500.0" r="2.5" fill="grey" stroke="none" />
<path d="M495.1065335448689,500.0 A4.89346645513109,4.89346645513109,0,0,1,495.1065335448689,500.0" stroke="grey" stroke-width="5" fill="none" />
<circle cx="447.1065335448689" cy="500.0" r="5" fill="black" stroke="none" />
<circle cx="495.1065335448689" cy="500.0" r="5" fill="black" stroke="none" />
<path d="M543.1065335448689,444.0 L526.293863175489,465.84145797075684" stroke="grey" stroke-width="5" />
<circle cx="526.293863175489" cy="465.84145797075684" r="2.5" fill="grey" stroke="none" />
<path d="M526.293863175489,465.84145797075684 A43.10653354486891,43.10653354486891,0,0,1,543.1065335448689,500.0" stroke="grey" stroke-width="5" fill="none" />
<circle cx="543.1065335448689" cy="444.0" r="5" fill="black" stroke="none" />
<circle cx="543.1065335448689" cy="500.0" r="5" fill="black" stroke="none" />
<path d="M519.1065335448689,468.0 A37.27009020784899,37.27009020784899,0,0,1,537.270090207849,500.0" stroke="grey" stroke-width="5" fill="none" />
<path d="M537.270090207849,500.0 L543.1065335448689,500.0" stroke="grey" stroke-width="5" />
<circle cx="537.270090207849" cy="500.0" r="2.5" fill="grey" stroke="none" />
<circle cx="519.1065335448689" cy="468.0" r="5" fill="black" stroke="none" />
<circle cx="543.1065335448689" cy="500.0" r="5" fill="black" stroke="none" />
<path d="M495.1065335448689,500.0 L543.1065335448689,500.0" stroke="grey" stroke-width="5" />
<circle cx="495.1065335448689" cy="500.0" r="5" fill="black" stroke="none" />
<circle cx="543.1065335448689" cy="500.0" r="5" fill="black" stroke="none" />
<path d="M495.1065335448689,548.0 L495.62806936034866,542.8842565137486" stroke="grey" stroke-width="5" />
<circle cx="495.62806936034866" cy="542.8842565137486" r="2.5" fill="grey" stroke="none" />
<path d="M495.62806936034866,542.8842565137486 A43.10653354486891,43.10653354486891,0,0,0,543.1065335448689,500.0" stroke="grey" stroke-width="5" fill="none" />
<circle cx="495.1065335448689" cy="548.0" r="5" fill="black" stroke="none" />
<circle cx="543.1065335448689" cy="500.0" r="5" fill="black" stroke="none" />
<path d="M543.1065335448689,500.0 A43.10653354486891,43.10653354486891,0,0,1,522.1428158317071,536.9847122646372" stroke="grey" stroke-width="5" fill="none" />
<path d="M522.1428158317071,536.9847122646372 L543.1065335448689,572.0" stroke="grey" stroke-width="5" />
<circle cx="522.1428158317071" cy="536.9847122646372" r="2.5" fill="grey" stroke="none" />
<circle cx="543.1065335448689" cy="500.0" r="5" fill="black" stroke="none" />
<circle cx="543.1065335448689" cy="572.0" r="5" fill="black" stroke="none" />
<path d="M543.1065335448689,572.0 A83.91765746405764,83.91765746405764,0,0,1,496.0558228924509,583.8249169471655" stroke="grey" stroke-width="5" fill="none" />
<path d="M496.0558228924509,583.8249169471655 L495.1065335448689,604.0" stroke="grey" stroke-width="5" />
<circle cx="496.0558228924509" cy="583.8249169471655" r="2.5" fill="grey" stroke="none" />
<circle cx="543.1065335448689" cy="572.0" r="5" fill="black" stroke="none" />
<circle cx="495.1065335448689" cy="604.0" r="5" fill="black" stroke="none" />
<path d="M543.1065335448689,444.0 A70.66946465238652,70.66946465238652,0,0,1,547.8307611057704,447.9770096371073" stroke="grey" stroke-width="5" fill="none" />
<path d="M547.8307611057704,447.9770096371073 L647.1065335448689,340.0" stroke="grey" stroke-width="5" />
<circle cx="547.8307611057704" cy="447.9770096371073" r="2.5" fill="grey" stroke="none" />
<circle cx="543.1065335448689" cy="444.0" r="5" fill="black" stroke="none" />
<circle cx="647.1065335448689" cy="340.0" r="5" fill="black" stroke="none" />
<path d="M543.1065335448689,444.0 A70.66946465238652,70.66946465238652,0,0,1,569.4651085624739,487.008775013163" stroke="grey" stroke-width="5" fill="none" />
<path d="M569.4651085624739,487.008775013163 L671.1065335448689,468.0" stroke="grey" stroke-width="5" />
<circle cx="569.4651085624739" cy="487.008775013163" r="2.5" fill="grey" stroke="none" />
<circle cx="543.1065335448689" cy="444.0" r="5" fill="black" stroke="none" />
<circle cx="671.1065335448689" cy="468.0" r="5" fill="black" stroke="none" />
<path d="M671.1065335448689,468.0 A174.07310482019142,174.07310482019142,0,0,1,672.760568823143,478.6638409819054" stroke="grey" stroke-width="5" fill="none" />
<path d="M672.760568823143,478.6638409819054 L759.1065335448689,468.0" stroke="grey" stroke-width="5" />
<circle cx="672.760568823143" cy="478.6638409819054" r="2.5" fill="grey" stroke="none" />
<circle cx="671.1065335448689" cy="468.0" r="5" fill="black" stroke="none" />
<circle cx="759.1065335448689" cy="468.0" r="5" fill="black" stroke="none" />
<path d="M543.1065335448689,500.0 A43.10653354486891,43.10653354486891,0,0,1,530.9261152510039,530.0291296866314" stroke="grey" stroke-width="5" fill="none" />
<path d="M530.9261152510039,530.0291296866314 L607.1065335448689,604.0" stroke="grey" stroke-width="5" />
<circle cx="530.9261152510039" cy="530.0291296866314" r="2.5" fill="grey" stroke="none" />
<circle cx="543.1065335448689" cy="500.0" r="5" fill="black" stroke="none" />
<circle cx="607.1065335448689" cy="604.0" r="5" fill="black" stroke="none" />
<circle cx="500" cy="500" r="5" fill="red" stroke="none" />
</svg>