<?xml version="1.0" encoding="UTF-8"?>
<svg xmlns="http://www.w3.org/2000/svg" xmlns:xlink="http://www.w3.org/1999/xlink"
     width="1000" height="1000" viewBox="0 0 1000 1000">
<defs>
</defs>
<rect x="0" y="0" width="1000" height="1000" fill="white" />
<path d="M214.64980250128224,649.3059290645837 L341.1441654527006,583.1193325686095" stroke="grey" stroke-width="5" />
<circle cx="341.1441654527006" cy="583.1193325686095" r="2.5" fill="grey" stroke="none" />
<path d="M341.1441654527006,583.1193325686095 A179.287477578246,179.287477578246,0,0,1,334.6498025012823,569.3059290645838" stroke="grey" stroke-width="5" fill="none" />
<circle cx="214.64980250128224" cy="649.3059290645837" r="5" fill="black" stroke="none" />
<circle cx="334.64980250128224" cy="569.3059290645837" r="5" fill="black" stroke="none" />
<path d="M334.64980250128224,569.3059290645837 L347.01068246353043,564.1249115466212" stroke="grey" stroke-width="5" />
<circle cx="347.01068246353043" cy="564.1249115466212" r="2.5" fill="grey" stroke="none" />
<path d="M347.0106824635305,564.1249115466213 A165.88470562754333,165.88470562754333,0,0,1,334.64980250128224,513.3059290645837" stroke="grey" stroke-width="5" fill="none" />
<circle cx="334.64980250128224" cy="569.3059290645837" r="5" fill="black" stroke="none" />
<circle cx="334.64980250128224" cy="513.3059290645837" r="5" fill="black" stroke="none" />
<path d="M334.64980250128224,513.3059290645837 A165.88470562754333,165.88470562754333,0,0,1,334.3173347492816,508.1847416914097" stroke="grey" stroke-width="5" fill="none" />
<path d="M334.3173347492816,508.1847416914098 L230.64980250128224,513.3059290645837" stroke="grey" stroke-width="5" />
<circle cx="334.3173347492816" cy="508.1847416914098" r="2.5" fill="grey" stroke="none" />
<circle cx="334.64980250128224" cy="513.3059290645837" r="5" fill="black" stroke="none" />
<circle cx="230.64980250128224" cy="513.3059290645837" r="5" fill="black" stroke="none" />
<path d="M230.64980250128224,513.3059290645837 L253.66922906794923,512.1687668874334" stroke="grey" stroke-width="5" />
<circle cx="253.66922906794923" cy="512.1687668874334" r="2.5" fill="grey" stroke="none" />
<path d="M253.6692290679492,512.1687668874333 A246.6311569845529,246.6311569845529,0,0,1,270.64980250128224,409.3059290645836" stroke="grey" stroke-width="5" fill="none" />
<circle cx="230.64980250128224" cy="513.3059290645837" r="5" fill="black" stroke="none" />
<circle cx="270.64980250128224" cy="409.30592906458367" r="5" fill="black" stroke="none" />
<path d="M270.64980250128224,409.30592906458367 L301.19750925192807,421.3856914243822" stroke="grey" stroke-width="5" />
<circle cx="301.19750925192807" cy="421.3856914243822" r="2.5" fill="grey" stroke="none" />
<path d="M301.19750925192807,421.3856914243822 A213.78175750156905,213.78175750156905,0,0,1,382.64980250128224,321.30592906458367" stroke="grey" stroke-width="5" fill="none" />
<circle cx="270.64980250128224" cy="409.30592906458367" r="5" fill="black" stroke="none" />
<circle cx="382.64980250128224" cy="321.30592906458367" r="5" fill="black" stroke="none" />
<path d="M382.64980250128224,321.30592906458367 L406.9418663157778,358.29647417621464" stroke="grey" stroke-width="5" />
<circle cx="406.9418663157778" cy="358.29647417621464" r="2.5" fill="grey" stroke="none" />
<path d="M406.9418663157778,358.29647417621464 A169.5278899641082,169.5278899641082,0,0,1,430.64980250128224,345.30592906458367" stroke="grey" stroke-width="5" fill="none" />
<circle cx="382.64980250128224" cy="321.30592906458367" r="5" fill="black" stroke="none" />
<circle cx="430.64980250128224" cy="345.30592906458367" r="5" fill="black" stroke="none" />
<path d="M430.64980250128224,345.30592906458367 A169.5278899641082,169.5278899641082,0,0,0,394.0995506571953,367.618731292245" stroke="grey" stroke-width="5" fill="none" />
<path d="M394.0995506571952,367.61873129224506 L382.64980250128224,353.30592906458367" stroke="grey" stroke-width="5" />
<circle cx="394.0995506571952" cy="367.61873129224506" r="2.5" fill="grey" stroke="none" />
<circle cx="430.64980250128224" cy="345.30592906458367" r="5" fill="black" stroke="none" />
<circle cx="382.64980250128224" cy="353.30592906458367" r="5" fill="black" stroke="none" />
<path d="M382.64980250128224,321.30592906458367 L396.880604053381,342.97576785668576" stroke="grey" stroke-width="5" />
<circle cx="396.880604053381" cy="342.97576785668576" r="2.5" fill="grey" stroke="none" />
<path d="M396.880604053381,342.97576785668576 A187.856911772213,187.856911772213,0,0,0,382.64980250128235,353.3059290645836" stroke="grey" stroke-width="5" fill="none" />
<circle cx="382.64980250128224" cy="321.30592906458367" r="5" fill="black" stroke="none" />
<circle cx="382.64980250128224" cy="353.30592906458367" r="5" fill="black" stroke="none" />
<path d="M382.64980250128224,353.30592906458367 L394.46005834652124,368.06938533184587" stroke="grey" stroke-width="5" />
<circle cx="394.46005834652124" cy="368.06938533184587" r="2.5" fill="grey" stroke="none" />
<path d="M394.4600583465213,368.0693853318458 A168.95078091247956,168.95078091247956,0,0,0,334.64980250128224,465.30592906458367" stroke="grey" stroke-width="5" fill="none" />
<circle cx="382.64980250128224" cy="353.30592906458367" r="5" fill="black" stroke="none" />
<circle cx="334.64980250128224" cy="465.30592906458367" r="5" fill="black" stroke="none" />
<path d="M270.64980250128224,409.30592906458367 L342.88726759585074,437.87145835094094" stroke="grey" stroke-width="5" />
<circle cx="342.88726759585074" cy="437.87145835094094" r="2.5" fill="grey" stroke="none" />
<path d="M342.88726759585074,437.87145835094094 A168.95078091247956,168.95078091247956,0,0,0,334.64980250128224,465.30592906458367" stroke="grey" stroke-width="5" fill="none" />
<circle cx="270.64980250128224" cy="409.30592906458367" r="5" fill="black" stroke="none" />
<circle cx="334.64980250128224" cy="465.30592906458367" r="5" fill="black" stroke="none" />
<path d="M334.64980250128224,465.30592906458367 L337.6505353251972,465.9355481338439" stroke="grey" stroke-width="5" />
<circle cx="337.6505353251972" cy="465.9355481338439" r="2.5" fill="grey" stroke="none" />
<path d="M337.6505353251972,465.9355481338439 A165.88470562754333,165.88470562754333,0,0,0,334.64980250128224,513.3059290645837" stroke="grey" stroke-width="5" fill="none" />
<circle cx="334.64980250128224" cy="465.30592906458367" r="5" fill="black" stroke="none" />
<circle cx="334.64980250128224" cy="513.3059290645837" r="5" fill="black" stroke="none" />
<path d="M430.64980250128224,345.30592906458367 A169.5278899641082,169.5278899641082,0,0,1,474.7291481802782,332.36620411149653" stroke="grey" stroke-width="5" fill="none" />
<path d="M474.7291481802782,332.36620411149653 L470.64980250128224,305.30592906458367" stroke="grey" stroke-width="5" />
<circle cx="474.7291481802782" cy="332.36620411149653" r="2.5" fill="grey" stroke="none" />
<circle cx="430.64980250128224" cy="345.30592906458367" r="5" fill="black" stroke="none" />
<circle cx="470.64980250128224" cy="305.30592906458367" r="5" fill="black" stroke="none" />
<path d="M430.64980250128224,345.30592906458367 L461.88485616457143,414.97952454568855" stroke="grey" stroke-width="5" />
<circle cx="461.88485616457143" cy="414.97952454568855" r="2.5" fill="grey" stroke="none" />
<path d="M461.88485616457143,414.97952454568855 A93.17320127629287,93.17320127629287,0,0,1,478.64980250128224,409.30592906458367" stroke="grey" stroke-width="5" fill="none" />
<circle cx="430.64980250128224" cy="345.30592906458367" r="5" fill="black" stroke="none" />
<circle cx="478.64980250128224" cy="409.30592906458367" r="5" fill="black" stroke="none" />
<path d="M382.64980250128224,353.30592906458367 L428.68023475196844,410.84644998142164" stroke="grey" stroke-width="5" />
<circle cx="428.68023475196844" cy="410.84644998142164" r="2.5" fill="grey" stroke="none" />
<path d="M428.68023475196844,410.8464499814216 A114.17033062906269,114.17033062906269,0,0,1,430.64980250128224,409.30592906458367" stroke="grey" stroke-width="5" fill="none" />
<circle cx="382.64980250128224" cy="353.30592906458367" r="5" fill="black" stroke="none" />
<circle cx="430.64980250128224" cy="409.30592906458367" r="5" fill="black" stroke="none" />
<path d="M334.64980250128224,465.30592906458367 L380.23655850609134,474.87102285020575" stroke="grey" stroke-width="5" />
<circle cx="380.23655850609134" cy="474.87102285020575" r="2.5" fill="grey" stroke="none" />
<path d="M380.23655850609134,474.87102285020575 A122.37135045042105,122.37135045042105,0,0,1,382.64980250128224,465.3059290645837" stroke="grey" stroke-width="5" fill="none" />
<circle cx="334.64980250128224" cy="465.30592906458367" r="5" fill="black" stroke="none" />
<circle cx="382.64980250128224" cy="465.30592906458367" r="5" fill="black" stroke="none" />
<path d="M334.64980250128224,513.3059290645837 L429.6123962446068,505.6641750464347" stroke="grey" stroke-width="5" />
<circle cx="429.6123962446068" cy="505.6641750464347" r="2.5" fill="grey" stroke="none" />
<path d="M429.6123962446068,505.6641750464347 A70.61513748045026,70.61513748045026,0,0,0,430.64980250128224,513.3059290645837" stroke="grey" stroke-width="5" fill="none" />
<circle cx="334.64980250128224" cy="513.3059290645837" r="5" fill="black" stroke="none" />
<circle cx="430.64980250128224" cy="513.3059290645837" r="5" fill="black" stroke="none" />
<path d="M334.64980250128224,569.3059290645837 L409.5770130653644,537.9004634593692" stroke="grey" stroke-width="5" />
<circle cx="409.5770130653644" cy="537.9004634593692" r="2.5" fill="grey" stroke="none" />
<path d="M409.57701306536444,537.9004634593692 A98.04469234291197,98.04469234291197,0,0,0,430.64980250128224,569.3059290645837" stroke="grey" stroke-width="5" fill="none" />
<circle cx="334.64980250128224" cy="569.3059290645837" r="5" fill="black" stroke="none" />
<circle cx="430.64980250128224" cy="569.3059290645837" r="5" fill="black" stroke="none" />
<path d="M478.64980250128224,409.30592906458367 A93.17320127629287,93.17320127629287,0,0,0,443.4040361055602,425.98552636860916" stroke="grey" stroke-width="5" fill="none" />
<path d="M443.4040361055602,425.98552636860916 L430.64980250128224,409.30592906458367" stroke="grey" stroke-width="5" />
<circle cx="443.4040361055602" cy="425.98552636860916" r="2.5" fill="grey" stroke="none" />
<circle cx="478.64980250128224" cy="409.30592906458367" r="5" fill="black" stroke="none" />
<circle cx="430.64980250128224" cy="409.30592906458367" r="5" fill="black" stroke="none" />
<path d="M430.64980250128224,409.30592906458367 A114.17033062906269,114.17033062906269,0,0,0,390.5143172932246,467.6310383518285" stroke="grey" stroke-width="5" fill="none" />
<path d="M390.5143172932246,467.63103835182847 L382.64980250128224,465.30592906458367" stroke="grey" stroke-width="5" />
<circle cx="390.5143172932246" cy="467.63103835182847" r="2.5" fill="grey" stroke="none" />
<circle cx="430.64980250128224" cy="409.30592906458367" r="5" fill="black" stroke="none" />
<circle cx="382.64980250128224" cy="465.30592906458367" r="5" fill="black" stroke="none" />
<path d="M382.64980250128224,465.30592906458367 L432.28234959221675,479.9795738149224" stroke="grey" stroke-width="5" />
<circle cx="432.28234959221675" cy="479.9795738149224" r="2.5" fill="grey" stroke="none" />
<path d="M432.28234959221675,479.97957381492245 A70.61513748045026,70.61513748045026,0,0,0,430.64980250128224,513.3059290645837" stroke="grey" stroke-width="5" fill="none" />
<circle cx="382.64980250128224" cy="465.30592906458367" r="5" fill="black" stroke="none" />
<circle cx="430.64980250128224" cy="513.3059290645837" r="5" fill="black" stroke="none" />
<path d="M430.64980250128224,513.3059290645837 A70.61513748045026,70.61513748045026,0,0,0,450.0516181585798,549.9164982025641" stroke="grey" stroke-width="5" fill="none" />
<path d="M450.0516181585798,549.9164982025641 L430.64980250128224,569.3059290645837" stroke="grey" stroke-width="5" />
<circle cx="450.0516181585798" cy="549.9164982025641" r="2.5" fill="grey" stroke="none" />
<circle cx="430.64980250128224" cy="513.3059290645837" r="5" fill="black" stroke="none" />
<circle cx="430.64980250128224" cy="569.3059290645837" r="5" fill="black" stroke="none" />
<path d="M430.64980250128224,569.3059290645837 A98.04469234291197,98.04469234291197,0,0,0,501.7397712702463,598.0292552891406" stroke="grey" stroke-width="5" fill="none" />
<path d="M501.73977127024637,598.0292552891406 L502.64980250128224,649.3059290645837" stroke="grey" stroke-width="5" />
<circle cx="501.73977127024637" cy="598.0292552891406" r="2.5" fill="grey" stroke="none" />
<circle cx="430.64980250128224" cy="569.3059290645837" r="5" fill="black" stroke="none" />
<circle cx="502.64980250128224" cy="649.3059290645837" r="5" fill="black" stroke="none" />
<path d="M478.64980250128224,409.30592906458367 L481.51898437743415,421.494002950924" stroke="grey" stroke-width="5" />
<circle cx="481.51898437743415" cy="421.494002950924" r="2.5" fill="grey" stroke="none" />
<path d="M481.5189843774341,421.494002950924 A80.65196532702134,80.65196532702134,0,0,0,454.64980250128224,433.30592906458367" stroke="grey" stroke-width="5" fill="none" />
<circle cx="478.64980250128224" cy="409.30592906458367" r="5" fill="black" stroke="none" />
<circle cx="454.64980250128224" cy="433.30592906458367" r="5" fill="black" stroke="none" />
<path d="M454.64980250128224,433.30592906458367 L456.39719098622214,435.87571834873415" stroke="grey" stroke-width="5" />
<circle cx="456.39719098622214" cy="435.87571834873415" r="2.5" fill="grey" stroke="none" />
<path d="M456.39719098622214,435.87571834873415 A77.54436440633748,77.54436440633748,0,0,0,430.64980250128224,465.30592906458367" stroke="grey" stroke-width="5" fill="none" />
<circle cx="454.64980250128224" cy="433.30592906458367" r="5" fill="black" stroke="none" />
<circle cx="430.64980250128224" cy="465.30592906458367" r="5" fill="black" stroke="none" />
<path d="M430.64980250128224,465.30592906458367 L436.8468131996437,468.40612973467495" stroke="grey" stroke-width="5" />
<circle cx="436.8468131996437" cy="468.40612973467495" r="2.5" fill="grey" stroke="none" />
<path d="M436.8468131996437,468.40612973467495 A70.61513748045026,70.61513748045026,0,0,0,430.64980250128224,513.3059290645837" stroke="grey" stroke-width="5" fill="none" />
<circle cx="430.64980250128224" cy="465.30592906458367" r="5" fill="black" stroke="none" />
<circle cx="430.64980250128224" cy="513.3059290645837" r="5" fill="black" stroke="none" />
<path d="M430.64980250128224,409.30592906458367 L451.00977904442647,435.9320847706503" stroke="grey" stroke-width="5" />
<circle cx="451.00977904442647" cy="435.9320847706503" r="2.5" fill="grey" stroke="none" />
<path d="M451.00977904442647,435.9320847706503 A80.65196532702134,80.65196532702134,0,0,1,454.64980250128224,433.30592906458367" stroke="grey" stroke-width="5" fill="none" />
<circle cx="430.64980250128224" cy="409.30592906458367" r="5" fill="black" stroke="none" />
<circle cx="454.64980250128224" cy="433.30592906458367" r="5" fill="black" stroke="none" />
<path d="M382.64980250128224,465.30592906458367 L425.6374433680614,478.0150364488685" stroke="grey" stroke-width="5" />
<circle cx="425.6374433680614" cy="478.0150364488685" r="2.5" fill="grey" stroke="none" />
<path d="M425.6374433680614,478.01503644886856 A77.54436440633748,77.54436440633748,0,0,1,430.64980250128224,465.30592906458367" stroke="grey" stroke-width="5" fill="none" />
<circle cx="382.64980250128224" cy="465.30592906458367" r="5" fill="black" stroke="none" />
<circle cx="430.64980250128224" cy="465.30592906458367" r="5" fill="black" stroke="none" />
<path d="M478.64980250128224,409.30592906458367 L490.6652917325458,460.3468448560839" stroke="grey" stroke-width="5" />
<circle cx="490.6652917325458" cy="460.3468448560839" r="2.5" fill="grey" stroke="none" />
<path d="M490.6652917325458,460.3468448560839 A40.73707759898782,40.73707759898782,0,0,0,478.64980250128224,465.30592906458367" stroke="grey" stroke-width="5" fill="none" />
<circle cx="478.64980250128224" cy="409.30592906458367" r="5" fill="black" stroke="none" />
<circle cx="478.64980250128224" cy="465.30592906458367" r="5" fill="black" stroke="none" />
<path d="M454.64980250128224,433.30592906458367 L477.0937446205576,466.31301503847936" stroke="grey" stroke-width="5" />
<circle cx="477.0937446205576" cy="466.31301503847936" r="2.5" fill="grey" stroke="none" />
<path d="M477.0937446205576,466.31301503847936 A40.73707759898782,40.73707759898782,0,0,1,478.64980250128224,465.30592906458367" stroke="grey" stroke-width="5" fill="none" />
<circle cx="454.64980250128224" cy="433.30592906458367" r="5" fill="black" stroke="none" />
<circle cx="478.64980250128224" cy="465.30592906458367" r="5" fill="black" stroke="none" />
<path d="M430.64980250128224,465.30592906458367 L463.5676377175966,481.77385202985386" stroke="grey" stroke-width="5" />
<circle cx="463.5676377175966" cy="481.77385202985386" r="2.5" fill="grey" stroke="none" />
<path d="M463.5676377175966,481.77385202985386 A40.73707759898782,40.73707759898782,0,0,1,478.64980250128224,465.30592906458367" stroke="grey" stroke-width="5" fill="none" />
<circle cx="430.64980250128224" cy="465.30592906458367" r="5" fill="black" stroke="none" />
<circle cx="478.64980250128224" cy="465.30592906458367" r="5" fill="black" stroke="none" />
<path d="M430.64980250128224,513.3059290645837 L459.9926520316904,507.676040636197" stroke="grey" stroke-width="5" />
<circle cx="459.9926520316904" cy="507.676040636197" r="2.5" fill="grey" stroke="none" />
<path d="M459.9926520316904,507.676040636197 A40.73707759898782,40.73707759898782,0,0,1,478.64980250128224,465.30592906458367" stroke="grey" stroke-width="5" fill="none" />
<circle cx="430.64980250128224" cy="513.3059290645837" r="5" fill="black" stroke="none" />
<circle cx="478.64980250128224" cy="465.30592906458367" r="5" fill="black" stroke="none" />
<path d="M478.64980250128224,465.30592906458367 A40.73707759898782,40.73707759898782,0,0,0,479.76551728002556,535.3564025370372" stroke="grey" stroke-width="5" fill="none" />
<path d="M479.76551728002556,535.3564025370372 L478.64980250128224,537.3059290645837" stroke="grey" stroke-width="5" />
<circle cx="479.76551728002556" cy="535.3564025370372" r="2.5" fill="grey" stroke="none" />
<circle cx="478.64980250128224" cy="465.30592906458367" r="5" fill="black" stroke="none" />
<circle cx="478.64980250128224" cy="537.3059290645837" r="5" fill="black" stroke="none" />
<path d="M478.64980250128224,537.3059290645837 A42.98329066749081,42.98329066749081,0,0,1,469.5965214872666,530.3840710065614" stroke="grey" stroke-width="5" fill="none" />
<path d="M469.5965214872666,530.3840710065614 L430.64980250128224,569.3059290645837" stroke="grey" stroke-width="5" />
<circle cx="469.5965214872666" cy="530.3840710065614" r="2.5" fill="grey" stroke="none" />
<circle cx="478.64980250128224" cy="537.3059290645837" r="5" fill="black" stroke="none" />
<circle cx="430.64980250128224" cy="569.3059290645837" r="5" fill="black" stroke="none" />
<path d="M478.64980250128224,409.30592906458367 A93.17320127629287,93.17320127629287,0,0,1,536.4083099490927,414.23473661951834" stroke="grey" stroke-width="5" fill="none" />
<path d="M536.4083099490927,414.23473661951834 L582.6498025012822,305.30592906458367" stroke="grey" stroke-width="5" />
<circle cx="536.4083099490927" cy="414.23473661951834" r="2.5" fill="grey" stroke="none" />
<circle cx="478.64980250128224" cy="409.30592906458367" r="5" fill="black" stroke="none" />
<circle cx="582.6498025012822" cy="305.30592906458367" r="5" fill="black" stroke="none" />
<path d="M478.64980250128224,409.30592906458367 A93.17320127629287,93.17320127629287,0,0,1,578.9980820256308,450.59809242200976" stroke="grey" stroke-width="5" fill="none" />
<path d="M578.9980820256308,450.59809242200976 L606.6498025012822,433.30592906458367" stroke="grey" stroke-width="5" />
<circle cx="578.9980820256308" cy="450.59809242200976" r="2.5" fill="grey" stroke="none" />
<circle cx="478.64980250128224" cy="409.30592906458367" r="5" fill="black" stroke="none" />
<circle cx="606.6498025012822" cy="433.30592906458367" r="5" fill="black" stroke="none" />
<path d="M606.6498025012822,433.30592906458367 A125.78664265930963,125.78664265930963,0,0,1,618.9954278858212,459.22785738066756" stroke="grey" stroke-width="5" fill="none" />
<path d="M618.9954278858212,459.22785738066756 L694.6498025012822,433.30592906458367" stroke="grey" stroke-width="5" />
<circle cx="618.9954278858212" cy="459.22785738066756" r="2.5" fill="grey" stroke="none" />
<circle cx="606.6498025012822" cy="433.30592906458367" r="5" fill="black" stroke="none" />
<circle cx="694.6498025012822" cy="433.30592906458367" r="5" fill="black" stroke="none" />
<path d="M478.64980250128224,465.30592906458367 L542.6498025012822,569.3059290645837" stroke="grey" stroke-width="5" />
<circle cx="478.64980250128224" cy="465.30592906458367" r="5" fill="black" stroke="none" />
<circle cx="542.6498025012822" cy="569.3059290645837" r="5" fill="black" stroke="none" />
<circle cx="500" cy="500" r="5" fill="red" stroke="none" />
</svg>