<?xml version="1.0" encoding="UTF-8"?>
<svg xmlns="http://www.w3.org/2000/svg" xmlns:xlink="http://www.w3.org/1999/xlink"
     width="1000" height="1000" viewBox="0 0 1000 1000">
<defs>
</defs>
<rect x="0" y="0" width="1000" height="1000" fill="white" />
<path d="M347.8602476425846,758.9927555006359 L407.88966569633277,656.8026036702614" stroke="grey" stroke-width="5" />
<circle cx="407.88966569633277" cy="656.8026036702614" r="2.5" fill="grey" stroke="none" />
<path d="M407.88966569633277,656.8026036702614 A181.8553551680742,181.8553551680742,0,0,0,467.8602476425847,678.9927555006359" stroke="grey" stroke-width="5" fill="none" />
<circle cx="347.8602476425846" cy="758.9927555006359" r="5" fill="black" stroke="none" />
<circle cx="467.8602476425846" cy="678.9927555006359" r="5" fill="black" stroke="none" />
<path d="M467.8602476425846,678.9927555006359 L477.5332863541091,625.1216542617174" stroke="grey" stroke-width="5" />
<circle cx="477.5332863541091" cy="625.1216542617174" r="2.5" fill="grey" stroke="none" />
<path d="M477.5332863541092,625.1216542617174 A127.12270287889253,127.12270287889253,0,0,1,467.8602476425846,622.9927555006359" stroke="grey" stroke-width="5" fill="none" />
<circle cx="467.8602476425846" cy="678.9927555006359" r="5" fill="black" stroke="none" />
<circle cx="467.8602476425846" cy="622.9927555006359" r="5" fill="black" stroke="none" />
<path d="M467.8602476425846,622.9927555006359 A127.12270287889253,127.12270287889253,0,0,1,405.67149436051113,585.2192150342639" stroke="grey" stroke-width="5" fill="none" />
<path d="M405.67149436051113,585.2192150342639 L-136.13975235741538,122.9927555006359" stroke="grey" stroke-width="5" />
<circle cx="405.67149436051113" cy="585.2192150342639" r="2.5" fill="grey" stroke="none" />
<circle cx="467.8602476425846" cy="622.9927555006359" r="5" fill="black" stroke="none" />
<circle cx="363.8602476425846" cy="622.9927555006359" r="5" fill="black" stroke="none" />
<path d="M363.8602476425846,622.9927555006359 L427.28293497565176,565.6947882186768" stroke="grey" stroke-width="5" />
<circle cx="427.28293497565176" cy="565.6947882186768" r="2.5" fill="grey" stroke="none" />
<path d="M427.28293497565176,565.6947882186769 A97.99784051116683,97.99784051116683,0,0,1,403.8602476425846,518.9927555006359" stroke="grey" stroke-width="5" fill="none" />
<circle cx="363.8602476425846" cy="622.9927555006359" r="5" fill="black" stroke="none" />
<circle cx="403.8602476425846" cy="518.9927555006359" r="5" fill="black" stroke="none" />
<path d="M403.8602476425846,518.9927555006359 L430.53611811455335,513.7228408896934" stroke="grey" stroke-width="5" />
<circle cx="430.53611811455335" cy="513.7228408896934" r="2.5" fill="grey" stroke="none" />
<path d="M430.5361181145533,513.7228408896934 A70.8064068335566,70.8064068335566,0,0,1,515.8602476425846,430.9927555006359" stroke="grey" stroke-width="5" fill="none" />
<circle cx="403.8602476425846" cy="518.9927555006359" r="5" fill="black" stroke="none" />
<circle cx="515.8602476425847" cy="430.9927555006359" r="5" fill="black" stroke="none" />
<path d="M515.8602476425846,430.9927555006359 A70.8064068335566,70.8064068335566,0,0,1,557.8766788032241,459.20983820346424" stroke="grey" stroke-width="5" fill="none" />
<path d="M557.8766788032241,459.20983820346424 L63.860247642584625,-45.007244499364106" stroke="grey" stroke-width="5" />
<circle cx="557.8766788032241" cy="459.20983820346424" r="2.5" fill="grey" stroke="none" />
<circle cx="515.8602476425847" cy="430.9927555006359" r="5" fill="black" stroke="none" />
<circle cx="563.8602476425847" cy="454.9927555006359" r="5" fill="black" stroke="none" />
<path d="M563.8602476425847,454.9927555006359 L532.9104447751098,476.8054699244784" stroke="grey" stroke-width="5" />
<circle cx="532.9104447751098" cy="476.8054699244784" r="2.5" fill="grey" stroke="none" />
<path d="M532.9104447751098,476.8054699244784 A40.26268248291246,40.26268248291246,0,0,0,515.8602476425847,462.9927555006359" stroke="grey" stroke-width="5" fill="none" />
<circle cx="563.8602476425847" cy="454.9927555006359" r="5" fill="black" stroke="none" />
<circle cx="515.8602476425847" cy="462.9927555006359" r="5" fill="black" stroke="none" />
<path d="M515.8602476425847,430.9927555006359 L509.0186205386023,460.7603760937936" stroke="grey" stroke-width="5" />
<circle cx="509.0186205386023" cy="460.7603760937936" r="2.5" fill="grey" stroke="none" />
<path d="M509.0186205386023,460.7603760937936 A40.26268248291246,40.26268248291246,0,0,1,515.8602476425847,462.9927555006359" stroke="grey" stroke-width="5" fill="none" />
<circle cx="515.8602476425847" cy="430.9927555006359" r="5" fill="black" stroke="none" />
<circle cx="515.8602476425847" cy="462.9927555006359" r="5" fill="black" stroke="none" />
<path d="M515.8602476425847,462.9927555006359 L467.8602476425846,574.9927555006359" stroke="grey" stroke-width="5" />
<circle cx="515.8602476425847" cy="462.9927555006359" r="5" fill="black" stroke="none" />
<circle cx="467.8602476425846" cy="574.9927555006359" r="5" fill="black" stroke="none" />
<path d="M403.8602476425846,518.9927555006359 L419.95729413565954,515.8127257956628" stroke="grey" stroke-width="5" />
<circle cx="419.95729413565954" cy="515.8127257956628" r="2.5" fill="grey" stroke="none" />
<path d="M419.95729413565954,515.8127257956628 A81.58968721091007,81.58968721091007,0,0,0,467.8602476425846,574.9927555006359" stroke="grey" stroke-width="5" fill="none" />
<circle cx="403.8602476425846" cy="518.9927555006359" r="5" fill="black" stroke="none" />
<circle cx="467.8602476425846" cy="574.9927555006359" r="5" fill="black" stroke="none" />
<path d="M467.8602476425846,574.9927555006359 A81.58968721091007,81.58968721091007,0,0,0,479.372116211407,578.9390110755033" stroke="grey" stroke-width="5" fill="none" />
<path d="M479.372116211407,578.9390110755033 L-32.139752357415375,122.9927555006359" stroke="grey" stroke-width="5" />
<circle cx="479.372116211407" cy="578.9390110755033" r="2.5" fill="grey" stroke="none" />
<circle cx="467.8602476425846" cy="574.9927555006359" r="5" fill="black" stroke="none" />
<circle cx="467.8602476425846" cy="622.9927555006359" r="5" fill="black" stroke="none" />
<path d="M563.8602476425847,454.9927555006359 A78.12671301416549,78.12671301416549,0,0,0,560.4579866246646,450.51651649601" stroke="grey" stroke-width="5" fill="none" />
<path d="M560.4579866246646,450.51651649601 L103.86024764258462,-85.0072444993641" stroke="grey" stroke-width="5" />
<circle cx="560.4579866246646" cy="450.51651649601" r="2.5" fill="grey" stroke="none" />
<circle cx="563.8602476425847" cy="454.9927555006359" r="5" fill="black" stroke="none" />
<circle cx="603.8602476425847" cy="414.9927555006359" r="5" fill="black" stroke="none" />
<path d="M563.8602476425847,454.9927555006359 A78.12671301416549,78.12671301416549,0,0,1,577.024347274129,513.0779667147517" stroke="grey" stroke-width="5" fill="none" />
<path d="M577.024347274129,513.0779667147517 L111.86024764258462,18.992755500635894" stroke="grey" stroke-width="5" />
<circle cx="577.024347274129" cy="513.0779667147517" r="2.5" fill="grey" stroke="none" />
<circle cx="563.8602476425847" cy="454.9927555006359" r="5" fill="black" stroke="none" />
<circle cx="611.8602476425847" cy="518.9927555006359" r="5" fill="black" stroke="none" />
<path d="M515.8602476425847,462.9927555006359 A40.26268248291246,40.26268248291246,0,0,1,538.5920436026935,511.47770757981" stroke="grey" stroke-width="5" fill="none" />
<path d="M538.5920436026935,511.47770757981 L63.860247642584625,18.992755500635894" stroke="grey" stroke-width="5" />
<circle cx="538.5920436026935" cy="511.47770757981" r="2.5" fill="grey" stroke="none" />
<circle cx="515.8602476425847" cy="462.9927555006359" r="5" fill="black" stroke="none" />
<circle cx="563.8602476425847" cy="518.9927555006359" r="5" fill="black" stroke="none" />
<path d="M467.8602476425846,574.9927555006359 L469.8054733505876,570.4538955152956" stroke="grey" stroke-width="5" />
<circle cx="469.8054733505876" cy="570.4538955152956" r="2.5" fill="grey" stroke="none" />
<path d="M469.8054733505876,570.4538955152956 A76.65155466696201,76.65155466696201,0,0,0,515.8602476425846,574.9927555006359" stroke="grey" stroke-width="5" fill="none" />
<circle cx="467.8602476425846" cy="574.9927555006359" r="5" fill="black" stroke="none" />
<circle cx="515.8602476425847" cy="574.9927555006359" r="5" fill="black" stroke="none" />
<path d="M467.8602476425846,622.9927555006359 A127.12270287889253,127.12270287889253,0,0,0,558.5790889834176,612.821416057006" stroke="grey" stroke-width="5" fill="none" />
<path d="M558.5790889834176,612.821416057006 L63.860247642584625,122.9927555006359" stroke="grey" stroke-width="5" />
<circle cx="558.5790889834176" cy="612.821416057006" r="2.5" fill="grey" stroke="none" />
<circle cx="467.8602476425846" cy="622.9927555006359" r="5" fill="black" stroke="none" />
<circle cx="563.8602476425847" cy="622.9927555006359" r="5" fill="black" stroke="none" />
<path d="M467.8602476425847,678.9927555006359 A181.8553551680742,181.8553551680742,0,0,0,561.1087833799596,671.2807251185245" stroke="grey" stroke-width="5" fill="none" />
<path d="M561.1087833799597,671.2807251185245 L63.860247642584625,178.9927555006359" stroke="grey" stroke-width="5" />
<circle cx="561.1087833799597" cy="671.2807251185245" r="2.5" fill="grey" stroke="none" />
<circle cx="467.8602476425846" cy="678.9927555006359" r="5" fill="black" stroke="none" />
<circle cx="563.8602476425847" cy="678.9927555006359" r="5" fill="black" stroke="none" />
<path d="M611.8602476425847,518.9927555006359 L565.6846668551955,511.1526019655129" stroke="grey" stroke-width="5" />
<circle cx="565.6846668551955" cy="511.1526019655129" r="2.5" fill="grey" stroke="none" />
<path d="M565.6846668551955,511.1526019655129 A66.62474007813591,66.62474007813591,0,0,1,563.8602476425847,518.9927555006359" stroke="grey" stroke-width="5" fill="none" />
<circle cx="611.8602476425847" cy="518.9927555006359" r="5" fill="black" stroke="none" />
<circle cx="563.8602476425847" cy="518.9927555006359" r="5" fill="black" stroke="none" />
<path d="M563.8602476425847,518.9927555006359 A66.62474007813591,66.62474007813591,0,0,1,513.7855635329666,565.1829289657784" stroke="grey" stroke-width="5" fill="none" />
<path d="M513.7855635329666,565.1829289657784 L15.860247642584625,74.9927555006359" stroke="grey" stroke-width="5" />
<circle cx="513.7855635329666" cy="565.1829289657784" r="2.5" fill="grey" stroke="none" />
<circle cx="563.8602476425847" cy="518.9927555006359" r="5" fill="black" stroke="none" />
<circle cx="515.8602476425847" cy="574.9927555006359" r="5" fill="black" stroke="none" />
<path d="M515.8602476425846,574.9927555006359 A76.65155466696201,76.65155466696201,0,0,0,535.3216077055172,568.0282651694118" stroke="grey" stroke-width="5" fill="none" />
<path d="M535.3216077055172,568.0282651694118 L63.860247642584625,122.9927555006359" stroke="grey" stroke-width="5" />
<circle cx="535.3216077055172" cy="568.0282651694118" r="2.5" fill="grey" stroke="none" />
<circle cx="515.8602476425847" cy="574.9927555006359" r="5" fill="black" stroke="none" />
<circle cx="563.8602476425847" cy="622.9927555006359" r="5" fill="black" stroke="none" />
<path d="M563.8602476425847,622.9927555006359 A138.5833652882316,138.5833652882316,0,0,1,546.5681136617476,630.5249398567108" stroke="grey" stroke-width="5" fill="none" />
<path d="M546.5681136617477,630.5249398567108 L63.860247642584625,178.9927555006359" stroke="grey" stroke-width="5" />
<circle cx="546.5681136617477" cy="630.5249398567108" r="2.5" fill="grey" stroke="none" />
<circle cx="563.8602476425847" cy="622.9927555006359" r="5" fill="black" stroke="none" />
<circle cx="563.8602476425847" cy="678.9927555006359" r="5" fill="black" stroke="none" />
<path d="M563.8602476425846,678.9927555006359 A190.04351541339855,190.04351541339855,0,0,0,588.2821460390406,668.2937920465997" stroke="grey" stroke-width="5" fill="none" />
<path d="M588.2821460390406,668.2937920465997 L135.86024764258462,258.9927555006359" stroke="grey" stroke-width="5" />
<circle cx="588.2821460390406" cy="668.2937920465997" r="2.5" fill="grey" stroke="none" />
<circle cx="563.8602476425847" cy="678.9927555006359" r="5" fill="black" stroke="none" />
<circle cx="635.8602476425847" cy="758.9927555006359" r="5" fill="black" stroke="none" />
<path d="M611.8602476425847,518.9927555006359 L596.434963687164,516.3736959788898" stroke="grey" stroke-width="5" />
<circle cx="596.434963687164" cy="516.3736959788898" r="2.5" fill="grey" stroke="none" />
<path d="M596.434963687164,516.3736959788898 A97.81513247628791,97.81513247628791,0,0,1,587.8602476425847,542.9927555006359" stroke="grey" stroke-width="5" fill="none" />
<circle cx="611.8602476425847" cy="518.9927555006359" r="5" fill="black" stroke="none" />
<circle cx="587.8602476425847" cy="542.9927555006359" r="5" fill="black" stroke="none" />
<path d="M587.8602476425847,542.9927555006359 A97.81513247628791,97.81513247628791,0,0,1,563.4169005313772,574.4721214169917" stroke="grey" stroke-width="5" fill="none" />
<path d="M563.4169005313772,574.4721214169917 L63.860247642584625,74.9927555006359" stroke="grey" stroke-width="5" />
<circle cx="563.4169005313772" cy="574.4721214169917" r="2.5" fill="grey" stroke="none" />
<circle cx="587.8602476425847" cy="542.9927555006359" r="5" fill="black" stroke="none" />
<circle cx="563.8602476425847" cy="574.9927555006359" r="5" fill="black" stroke="none" />
<path d="M563.8602476425847,574.9927555006359 A98.49895738813883,98.49895738813883,0,0,1,545.3890537169477,587.417838049396" stroke="grey" stroke-width="5" fill="none" />
<path d="M545.3890537169477,587.417838049396 L63.860247642584625,122.9927555006359" stroke="grey" stroke-width="5" />
<circle cx="545.3890537169477" cy="587.417838049396" r="2.5" fill="grey" stroke="none" />
<circle cx="563.8602476425847" cy="574.9927555006359" r="5" fill="black" stroke="none" />
<circle cx="563.8602476425847" cy="622.9927555006359" r="5" fill="black" stroke="none" />
<path d="M563.8602476425847,518.9927555006359 A66.62474007813591,66.62474007813591,0,0,1,559.8441776256541,529.2836199058166" stroke="grey" stroke-width="5" fill="none" />
<path d="M559.8441776256541,529.2836199058166 L87.86024764258462,42.992755500635894" stroke="grey" stroke-width="5" />
<circle cx="559.8441776256541" cy="529.2836199058166" r="2.5" fill="grey" stroke="none" />
<circle cx="563.8602476425847" cy="518.9927555006359" r="5" fill="black" stroke="none" />
<circle cx="587.8602476425847" cy="542.9927555006359" r="5" fill="black" stroke="none" />
<path d="M515.8602476425846,574.9927555006359 A76.65155466696201,76.65155466696201,0,0,0,549.6958281896572,558.3591080586942" stroke="grey" stroke-width="5" fill="none" />
<path d="M549.6958281896572,558.3591080586942 L63.860247642584625,74.9927555006359" stroke="grey" stroke-width="5" />
<circle cx="549.6958281896572" cy="558.3591080586942" r="2.5" fill="grey" stroke="none" />
<circle cx="515.8602476425847" cy="574.9927555006359" r="5" fill="black" stroke="none" />
<circle cx="563.8602476425847" cy="574.9927555006359" r="5" fill="black" stroke="none" />
<path d="M611.8602476425847,518.9927555006359 A113.46118175026777,113.46118175026777,0,0,1,594.2420667863587,563.1812678885349" stroke="grey" stroke-width="5" fill="none" />
<path d="M594.2420667863587,563.1812678885349 L111.86024764258462,74.9927555006359" stroke="grey" stroke-width="5" />
<circle cx="594.2420667863587" cy="563.1812678885349" r="2.5" fill="grey" stroke="none" />
<circle cx="611.8602476425847" cy="518.9927555006359" r="5" fill="black" stroke="none" />
<circle cx="611.8602476425847" cy="574.9927555006359" r="5" fill="black" stroke="none" />
<path d="M587.8602476425847,542.9927555006359 A97.81513247628791,97.81513247628791,0,0,1,581.2462915099603,554.4687089734308" stroke="grey" stroke-width="5" fill="none" />
<path d="M581.2462915099603,554.4687089734308 L111.86024764258462,74.9927555006359" stroke="grey" stroke-width="5" />
<circle cx="581.2462915099603" cy="554.4687089734308" r="2.5" fill="grey" stroke="none" />
<circle cx="587.8602476425847" cy="542.9927555006359" r="5" fill="black" stroke="none" />
<circle cx="611.8602476425847" cy="574.9927555006359" r="5" fill="black" stroke="none" />
<path d="M563.8602476425847,574.9927555006359 A98.49895738813883,98.49895738813883,0,0,0,581.8142837696803,554.8494993395985" stroke="grey" stroke-width="5" fill="none" />
<path d="M581.8142837696803,554.8494993395985 L111.86024764258462,74.9927555006359" stroke="grey" stroke-width="5" />
<circle cx="581.8142837696803" cy="554.8494993395985" r="2.5" fill="grey" stroke="none" />
<circle cx="563.8602476425847" cy="574.9927555006359" r="5" fill="black" stroke="none" />
<circle cx="611.8602476425847" cy="574.9927555006359" r="5" fill="black" stroke="none" />
<path d="M563.8602476425847,622.9927555006359 L562.057999594955,619.5216845033196" stroke="grey" stroke-width="5" />
<circle cx="562.057999594955" cy="619.5216845033196" r="2.5" fill="grey" stroke="none" />
<path d="M562.057999594955,619.5216845033196 A134.67229997381983,134.67229997381983,0,0,0,611.8602476425847,574.9927555006359" stroke="grey" stroke-width="5" fill="none" />
<circle cx="563.8602476425847" cy="622.9927555006359" r="5" fill="black" stroke="none" />
<circle cx="611.8602476425847" cy="574.9927555006359" r="5" fill="black" stroke="none" />
<path d="M611.8602476425847,574.9927555006359 A134.67229997381983,134.67229997381983,0,0,1,581.555298661453,607.1697795112024" stroke="grey" stroke-width="5" fill="none" />
<path d="M581.555298661453,607.1697795112024 L111.86024764258462,146.9927555006359" stroke="grey" stroke-width="5" />
<circle cx="581.555298661453" cy="607.1697795112024" r="2.5" fill="grey" stroke="none" />
<circle cx="611.8602476425847" cy="574.9927555006359" r="5" fill="black" stroke="none" />
<circle cx="611.8602476425847" cy="646.9927555006359" r="5" fill="black" stroke="none" />
<path d="M611.8602476425847,646.9927555006359 A184.71487534124068,184.71487534124068,0,0,1,562.0696668176299,673.9739682638713" stroke="grey" stroke-width="5" fill="none" />
<path d="M562.06966681763,673.9739682638713 L63.860247642584625,178.9927555006359" stroke="grey" stroke-width="5" />
<circle cx="562.06966681763" cy="673.9739682638713" r="2.5" fill="grey" stroke="none" />
<circle cx="611.8602476425847" cy="646.9927555006359" r="5" fill="black" stroke="none" />
<circle cx="563.8602476425847" cy="678.9927555006359" r="5" fill="black" stroke="none" />
<path d="M611.8602476425847,518.9927555006359 A113.46118175026777,113.46118175026777,0,0,0,605.5700067519266,458.425808022699" stroke="grey" stroke-width="5" fill="none" />
<path d="M605.5700067519266,458.425808022699 L215.86024764258462,-85.0072444993641" stroke="grey" stroke-width="5" />
<circle cx="605.5700067519266" cy="458.425808022699" r="2.5" fill="grey" stroke="none" />
<circle cx="611.8602476425847" cy="518.9927555006359" r="5" fill="black" stroke="none" />
<circle cx="715.8602476425847" cy="414.9927555006359" r="5" fill="black" stroke="none" />
<path d="M611.8602476425847,518.9927555006359 A113.46118175026777,113.46118175026777,0,0,1,611.6813547181955,520.0178613362139" stroke="grey" stroke-width="5" fill="none" />
<path d="M611.6813547181955,520.0178613362139 L239.86024764258462,42.992755500635894" stroke="grey" stroke-width="5" />
<circle cx="611.6813547181955" cy="520.0178613362139" r="2.5" fill="grey" stroke="none" />
<circle cx="611.8602476425847" cy="518.9927555006359" r="5" fill="black" stroke="none" />
<circle cx="739.8602476425847" cy="542.9927555006359" r="5" fill="black" stroke="none" />
<path d="M739.8602476425846,542.9927555006359 A243.6828172536986,243.6828172536986,0,0,0,741.6143402224621,531.6832135927496" stroke="grey" stroke-width="5" fill="none" />
<path d="M741.6143402224621,531.6832135927496 L327.8602476425846,42.992755500635894" stroke="grey" stroke-width="5" />
<circle cx="741.6143402224621" cy="531.6832135927496" r="2.5" fill="grey" stroke="none" />
<circle cx="739.8602476425847" cy="542.9927555006359" r="5" fill="black" stroke="none" />
<circle cx="827.8602476425847" cy="542.9927555006359" r="5" fill="black" stroke="none" />
<path d="M611.8602476425847,574.9927555006359 A134.67229997381983,134.67229997381983,0,0,1,594.3833850956887,596.0645876383043" stroke="grey" stroke-width="5" fill="none" />
<path d="M594.3833850956887,596.0645876383043 L175.86024764258462,178.9927555006359" stroke="grey" stroke-width="5" />
<circle cx="594.3833850956887" cy="596.0645876383043" r="2.5" fill="grey" stroke="none" />
<circle cx="611.8602476425847" cy="574.9927555006359" r="5" fill="black" stroke="none" />
<circle cx="675.8602476425847" cy="678.9927555006359" r="5" fill="black" stroke="none" />
<circle cx="500" cy="500" r="5" fill="red" stroke="none" />
</svg>