<?xml version="1.0" encoding="UTF-8"?>
<svg xmlns="http://www.w3.org/2000/svg" xmlns:xlink="http://www.w3.org/1999/xlink"
     width="1000" height="1000" viewBox="0 0 1000 1000">
<defs>
</defs>
<rect x="0" y="0" width="1000" height="1000" fill="white" />
<path d="M293.87690904355566,802.3538484927408 L365.6844392046871,697.0222090619869" stroke="grey" stroke-width="5" />
<circle cx="365.6844392046871" cy="697.0222090619869" r="2.5" fill="grey" stroke="none" />
<path d="M365.6844392046871,697.0222090619869 A238.45003823741501,238.45003823741501,0,0,0,413.87690904355566,722.3538484927408" stroke="grey" stroke-width="5" fill="none" />
<circle cx="293.87690904355566" cy="802.3538484927408" r="5" fill="black" stroke="none" />
<circle cx="413.87690904355566" cy="722.3538484927408" r="5" fill="black" stroke="none" />
<path d="M413.87690904355566,722.3538484927408 L432.34205809210505,674.6802581891429" stroke="grey" stroke-width="5" />
<circle cx="432.34205809210505" cy="674.6802581891429" r="2.5" fill="grey" stroke="none" />
<path d="M432.342058092105,674.6802581891429 A187.32535787831213,187.32535787831213,0,0,1,413.87690904355566,666.3538484927407" stroke="grey" stroke-width="5" fill="none" />
<circle cx="413.87690904355566" cy="722.3538484927408" r="5" fill="black" stroke="none" />
<circle cx="413.87690904355566" cy="666.3538484927408" r="5" fill="black" stroke="none" />
<path d="M413.87690904355566,666.3538484927407 A187.32535787831213,187.32535787831213,0,0,1,359.0218843287637,623.3529918811264" stroke="grey" stroke-width="5" fill="none" />
<path d="M359.0218843287637,623.3529918811264 L-190.12309095644432,166.35384849274072" stroke="grey" stroke-width="5" />
<circle cx="359.0218843287637" cy="623.3529918811264" r="2.5" fill="grey" stroke="none" />
<circle cx="413.87690904355566" cy="666.3538484927408" r="5" fill="black" stroke="none" />
<circle cx="309.87690904355566" cy="666.3538484927408" r="5" fill="black" stroke="none" />
<path d="M309.87690904355566,666.3538484927408 L377.66177491571807,607.0434656735295" stroke="grey" stroke-width="5" />
<circle cx="377.66177491571807" cy="607.0434656735295" r="2.5" fill="grey" stroke="none" />
<path d="M377.66177491571807,607.0434656735295 A162.55751246919507,162.55751246919507,0,0,1,349.8769090435557,562.3538484927408" stroke="grey" stroke-width="5" fill="none" />
<circle cx="309.87690904355566" cy="666.3538484927408" r="5" fill="black" stroke="none" />
<circle cx="349.87690904355566" cy="562.3538484927408" r="5" fill="black" stroke="none" />
<path d="M349.87690904355566,562.3538484927408 L457.5679165035384,517.6242288159209" stroke="grey" stroke-width="5" />
<circle cx="457.5679165035384" cy="517.6242288159209" r="2.5" fill="grey" stroke="none" />
<path d="M457.56791650353847,517.624228815921 A45.94665549533092,45.94665549533092,0,0,1,461.8769090435557,474.3538484927407" stroke="grey" stroke-width="5" fill="none" />
<circle cx="349.87690904355566" cy="562.3538484927408" r="5" fill="black" stroke="none" />
<circle cx="461.87690904355566" cy="474.3538484927407" r="5" fill="black" stroke="none" />
<path d="M461.87690904355566,474.3538484927407 L491.69183970360695,494.41093750894106" stroke="grey" stroke-width="5" />
<circle cx="491.69183970360695" cy="494.41093750894106" r="2.5" fill="grey" stroke="none" />
<path d="M491.69183970360695,494.41093750894106 A10.01314870755069,10.01314870755069,0,0,1,509.87690904355566,498.3538484927407" stroke="grey" stroke-width="5" fill="none" />
<circle cx="461.87690904355566" cy="474.3538484927407" r="5" fill="black" stroke="none" />
<circle cx="509.87690904355566" cy="498.3538484927407" r="5" fill="black" stroke="none" />
<path d="M509.87690904355566,498.3538484927407 L461.87690904355566,506.3538484927407" stroke="grey" stroke-width="5" />
<circle cx="509.87690904355566" cy="498.3538484927407" r="5" fill="black" stroke="none" />
<circle cx="461.87690904355566" cy="506.3538484927407" r="5" fill="black" stroke="none" />
<path d="M461.87690904355566,474.3538484927407 L467.93199681566693,478.4272248769048" stroke="grey" stroke-width="5" />
<circle cx="467.93199681566693" cy="478.4272248769048" r="2.5" fill="grey" stroke="none" />
<path d="M467.931996815667,478.4272248769048 A38.648951534835064,38.648951534835064,0,0,0,461.8769090435557,506.3538484927407" stroke="grey" stroke-width="5" fill="none" />
<circle cx="461.87690904355566" cy="474.3538484927407" r="5" fill="black" stroke="none" />
<circle cx="461.87690904355566" cy="506.3538484927407" r="5" fill="black" stroke="none" />
<path d="M461.8769090435557,506.3538484927407 A38.648951534835064,38.648951534835064,0,0,0,477.2595669018318,531.2508265050665" stroke="grey" stroke-width="5" fill="none" />
<path d="M477.2595669018318,531.2508265050665 L-86.12309095644432,118.35384849274072" stroke="grey" stroke-width="5" />
<circle cx="477.2595669018318" cy="531.2508265050665" r="2.5" fill="grey" stroke="none" />
<circle cx="461.87690904355566" cy="506.3538484927407" r="5" fill="black" stroke="none" />
<circle cx="413.87690904355566" cy="618.3538484927408" r="5" fill="black" stroke="none" />
<path d="M349.87690904355566,562.3538484927408 L364.8241695532622,556.1454816701166" stroke="grey" stroke-width="5" />
<circle cx="364.8241695532622" cy="556.1454816701166" r="2.5" fill="grey" stroke="none" />
<path d="M364.8241695532622,556.1454816701166 A146.3721976638139,146.3721976638139,0,0,0,413.8769090435557,618.3538484927408" stroke="grey" stroke-width="5" fill="none" />
<circle cx="349.87690904355566" cy="562.3538484927408" r="5" fill="black" stroke="none" />
<circle cx="413.87690904355566" cy="618.3538484927408" r="5" fill="black" stroke="none" />
<path d="M413.8769090435557,618.3538484927408 A146.3721976638139,146.3721976638139,0,0,0,432.7051807845243,629.9854897890186" stroke="grey" stroke-width="5" fill="none" />
<path d="M432.7051807845243,629.9854897890186 L-86.12309095644432,166.35384849274072" stroke="grey" stroke-width="5" />
<circle cx="432.7051807845243" cy="629.9854897890186" r="2.5" fill="grey" stroke="none" />
<circle cx="413.87690904355566" cy="618.3538484927408" r="5" fill="black" stroke="none" />
<circle cx="413.87690904355566" cy="666.3538484927408" r="5" fill="black" stroke="none" />
<path d="M509.87690904355566,498.3538484927407 A10.01314870755069,10.01314870755069,0,0,0,507.6860911244262,493.5822784209237" stroke="grey" stroke-width="5" fill="none" />
<path d="M507.6860911244262,493.5822784209237 L49.876909043555685,-41.646151507259276" stroke="grey" stroke-width="5" />
<circle cx="507.6860911244262" cy="493.5822784209237" r="2.5" fill="grey" stroke="none" />
<circle cx="509.87690904355566" cy="498.3538484927407" r="5" fill="black" stroke="none" />
<circle cx="549.8769090435557" cy="458.3538484927407" r="5" fill="black" stroke="none" />
<path d="M509.87690904355566,498.3538484927407 A10.01314870755069,10.01314870755069,0,0,1,506.81199837414664,507.33892534300134" stroke="grey" stroke-width="5" fill="none" />
<path d="M506.81199837414664,507.33892534300134 L57.876909043555685,62.353848492740724" stroke="grey" stroke-width="5" />
<circle cx="506.81199837414664" cy="507.33892534300134" r="2.5" fill="grey" stroke="none" />
<circle cx="509.87690904355566" cy="498.3538484927407" r="5" fill="black" stroke="none" />
<circle cx="557.8769090435557" cy="562.3538484927408" r="5" fill="black" stroke="none" />
<path d="M461.8769090435557,506.3538484927407 A38.648951534835064,38.648951534835064,0,0,0,506.04664298156064,538.1730214077373" stroke="grey" stroke-width="5" fill="none" />
<path d="M506.04664298156064,538.1730214077373 L9.876909043555685,62.353848492740724" stroke="grey" stroke-width="5" />
<circle cx="506.04664298156064" cy="538.1730214077373" r="2.5" fill="grey" stroke="none" />
<circle cx="461.87690904355566" cy="506.3538484927407" r="5" fill="black" stroke="none" />
<circle cx="509.87690904355566" cy="562.3538484927408" r="5" fill="black" stroke="none" />
<path d="M413.87690904355566,618.3538484927408 L426.8389627249954,600.5408680187383" stroke="grey" stroke-width="5" />
<circle cx="426.8389627249954" cy="600.5408680187383" r="2.5" fill="grey" stroke="none" />
<path d="M426.8389627249954,600.5408680187383 A124.34228370556797,124.34228370556797,0,0,0,461.87690904355566,618.3538484927408" stroke="grey" stroke-width="5" fill="none" />
<circle cx="413.87690904355566" cy="618.3538484927408" r="5" fill="black" stroke="none" />
<circle cx="461.87690904355566" cy="618.3538484927408" r="5" fill="black" stroke="none" />
<path d="M413.87690904355566,666.3538484927408 L423.3839040715844,647.9903040245821" stroke="grey" stroke-width="5" />
<circle cx="423.3839040715844" cy="647.9903040245821" r="2.5" fill="grey" stroke="none" />
<path d="M423.3839040715844,647.9903040245821 A166.64680087118506,166.64680087118506,0,0,0,509.8769090435557,666.3538484927408" stroke="grey" stroke-width="5" fill="none" />
<circle cx="413.87690904355566" cy="666.3538484927408" r="5" fill="black" stroke="none" />
<circle cx="509.87690904355566" cy="666.3538484927408" r="5" fill="black" stroke="none" />
<path d="M413.87690904355566,722.3538484927408 L419.61132006003146,707.54866274996" stroke="grey" stroke-width="5" />
<circle cx="419.61132006003146" cy="707.54866274996" r="2.5" fill="grey" stroke="none" />
<path d="M419.6113200600314,707.54866274996 A222.57310545478617,222.57310545478617,0,0,0,509.87690904355566,722.3538484927408" stroke="grey" stroke-width="5" fill="none" />
<circle cx="413.87690904355566" cy="722.3538484927408" r="5" fill="black" stroke="none" />
<circle cx="509.87690904355566" cy="722.3538484927408" r="5" fill="black" stroke="none" />
<path d="M557.8769090435557,562.3538484927408 L542.9485310121148,546.2707190133431" stroke="grey" stroke-width="5" />
<circle cx="542.9485310121148" cy="546.2707190133431" r="2.5" fill="grey" stroke="none" />
<path d="M542.9485310121148,546.2707190133431 A63.13125813818648,63.13125813818648,0,0,1,509.8769090435557,562.3538484927408" stroke="grey" stroke-width="5" fill="none" />
<circle cx="557.8769090435557" cy="562.3538484927408" r="5" fill="black" stroke="none" />
<circle cx="509.87690904355566" cy="562.3538484927408" r="5" fill="black" stroke="none" />
<path d="M509.8769090435557,562.3538484927408 A63.13125813818648,63.13125813818648,0,0,1,480.64408482398596,560.0908004756908" stroke="grey" stroke-width="5" fill="none" />
<path d="M480.64408482398596,560.0908004756908 L-38.123090956444315,118.35384849274072" stroke="grey" stroke-width="5" />
<circle cx="480.64408482398596" cy="560.0908004756908" r="2.5" fill="grey" stroke="none" />
<circle cx="509.87690904355566" cy="562.3538484927408" r="5" fill="black" stroke="none" />
<circle cx="461.87690904355566" cy="618.3538484927408" r="5" fill="black" stroke="none" />
<path d="M461.87690904355566,618.3538484927408 A124.34228370556797,124.34228370556797,0,0,0,507.36958297433625,624.1236994449501" stroke="grey" stroke-width="5" fill="none" />
<path d="M507.36958297433625,624.1236994449501 L9.876909043555685,166.35384849274072" stroke="grey" stroke-width="5" />
<circle cx="507.36958297433625" cy="624.1236994449501" r="2.5" fill="grey" stroke="none" />
<circle cx="461.87690904355566" cy="618.3538484927408" r="5" fill="black" stroke="none" />
<circle cx="509.87690904355566" cy="666.3538484927408" r="5" fill="black" stroke="none" />
<path d="M509.8769090435557,666.3538484927408 A166.64680087118506,166.64680087118506,0,0,1,507.39512211612913,666.4826369609995" stroke="grey" stroke-width="5" fill="none" />
<path d="M507.39512211612913,666.4826369609995 L9.876909043555685,222.35384849274072" stroke="grey" stroke-width="5" />
<circle cx="507.39512211612913" cy="666.4826369609995" r="2.5" fill="grey" stroke="none" />
<circle cx="509.87690904355566" cy="666.3538484927408" r="5" fill="black" stroke="none" />
<circle cx="509.87690904355566" cy="722.3538484927408" r="5" fill="black" stroke="none" />
<path d="M509.87690904355566,722.3538484927408 A222.57310545478617,222.57310545478617,0,0,0,558.1770427355196,714.8353298932391" stroke="grey" stroke-width="5" fill="none" />
<path d="M558.1770427355196,714.8353298932391 L81.87690904355568,302.3538484927407" stroke="grey" stroke-width="5" />
<circle cx="558.1770427355196" cy="714.8353298932391" r="2.5" fill="grey" stroke="none" />
<circle cx="509.87690904355566" cy="722.3538484927408" r="5" fill="black" stroke="none" />
<circle cx="581.8769090435557" cy="802.3538484927408" r="5" fill="black" stroke="none" />
<path d="M557.8769090435557,562.3538484927408 A85.0749024230512,85.0749024230512,0,0,1,531.0698448209581,579.1985086039709" stroke="grey" stroke-width="5" fill="none" />
<path d="M531.0698448209581,579.1985086039709 L33.876909043555685,86.35384849274072" stroke="grey" stroke-width="5" />
<circle cx="531.0698448209581" cy="579.1985086039709" r="2.5" fill="grey" stroke="none" />
<circle cx="557.8769090435557" cy="562.3538484927408" r="5" fill="black" stroke="none" />
<circle cx="533.8769090435557" cy="586.3538484927408" r="5" fill="black" stroke="none" />
<path d="M533.8769090435557,586.3538484927408 A92.76115628781567,92.76115628781567,0,0,1,507.71432243609235,592.4398255364243" stroke="grey" stroke-width="5" fill="none" />
<path d="M507.7143224360923,592.4398255364243 L9.876909043555685,118.35384849274072" stroke="grey" stroke-width="5" />
<circle cx="507.7143224360923" cy="592.4398255364243" r="2.5" fill="grey" stroke="none" />
<circle cx="533.8769090435557" cy="586.3538484927408" r="5" fill="black" stroke="none" />
<circle cx="509.87690904355566" cy="618.3538484927408" r="5" fill="black" stroke="none" />
<path d="M509.8769090435557,618.3538484927408 A118.76525916823194,118.76525916823194,0,0,1,507.03904099092597,618.556478891815" stroke="grey" stroke-width="5" fill="none" />
<path d="M507.03904099092597,618.556478891815 L9.876909043555685,166.35384849274072" stroke="grey" stroke-width="5" />
<circle cx="507.03904099092597" cy="618.556478891815" r="2.5" fill="grey" stroke="none" />
<circle cx="509.87690904355566" cy="618.3538484927408" r="5" fill="black" stroke="none" />
<circle cx="509.87690904355566" cy="666.3538484927408" r="5" fill="black" stroke="none" />
<path d="M509.8769090435557,562.3538484927408 A63.13125813818648,63.13125813818648,0,0,0,523.0558994232103,558.7705815514628" stroke="grey" stroke-width="5" fill="none" />
<path d="M523.0558994232103,558.7705815514628 L33.876909043555685,86.35384849274072" stroke="grey" stroke-width="5" />
<circle cx="523.0558994232103" cy="558.7705815514628" r="2.5" fill="grey" stroke="none" />
<circle cx="509.87690904355566" cy="562.3538484927408" r="5" fill="black" stroke="none" />
<circle cx="533.8769090435557" cy="586.3538484927408" r="5" fill="black" stroke="none" />
<path d="M461.87690904355566,618.3538484927408 L463.5868134088851,613.0454184280723" stroke="grey" stroke-width="5" />
<circle cx="463.5868134088851" cy="613.0454184280723" r="2.5" fill="grey" stroke="none" />
<path d="M463.5868134088851,613.0454184280723 A118.76525916823194,118.76525916823194,0,0,0,509.8769090435557,618.3538484927408" stroke="grey" stroke-width="5" fill="none" />
<circle cx="461.87690904355566" cy="618.3538484927408" r="5" fill="black" stroke="none" />
<circle cx="509.87690904355566" cy="618.3538484927408" r="5" fill="black" stroke="none" />
<path d="M557.8769090435557,562.3538484927408 A85.0749024230512,85.0749024230512,0,0,1,537.3735909202275,576.426132468019" stroke="grey" stroke-width="5" fill="none" />
<path d="M537.3735909202275,576.426132468019 L57.876909043555685,118.35384849274072" stroke="grey" stroke-width="5" />
<circle cx="537.3735909202275" cy="576.426132468019" r="2.5" fill="grey" stroke="none" />
<circle cx="557.8769090435557" cy="562.3538484927408" r="5" fill="black" stroke="none" />
<circle cx="557.8769090435557" cy="618.3538484927408" r="5" fill="black" stroke="none" />
<path d="M533.8769090435557,586.3538484927408 A92.76115628781567,92.76115628781567,0,0,0,540.7501790733617,583.3309967619584" stroke="grey" stroke-width="5" fill="none" />
<path d="M540.7501790733617,583.3309967619584 L57.876909043555685,118.35384849274072" stroke="grey" stroke-width="5" />
<circle cx="540.7501790733617" cy="583.3309967619584" r="2.5" fill="grey" stroke="none" />
<circle cx="533.8769090435557" cy="586.3538484927408" r="5" fill="black" stroke="none" />
<circle cx="557.8769090435557" cy="618.3538484927408" r="5" fill="black" stroke="none" />
<path d="M509.8769090435557,618.3538484927408 A118.76525916823194,118.76525916823194,0,0,0,552.1738384090773,606.6915056176488" stroke="grey" stroke-width="5" fill="none" />
<path d="M552.1738384090773,606.6915056176488 L57.876909043555685,118.35384849274072" stroke="grey" stroke-width="5" />
<circle cx="552.1738384090773" cy="606.6915056176488" r="2.5" fill="grey" stroke="none" />
<circle cx="509.87690904355566" cy="618.3538484927408" r="5" fill="black" stroke="none" />
<circle cx="557.8769090435557" cy="618.3538484927408" r="5" fill="black" stroke="none" />
<path d="M509.87690904355566,666.3538484927408 L507.8084715943537,631.5157702514753" stroke="grey" stroke-width="5" />
<circle cx="507.8084715943537" cy="631.5157702514753" r="2.5" fill="grey" stroke="none" />
<path d="M507.8084715943537,631.5157702514753 A131.74737209325522,131.74737209325522,0,0,0,557.8769090435557,618.3538484927408" stroke="grey" stroke-width="5" fill="none" />
<circle cx="509.87690904355566" cy="666.3538484927408" r="5" fill="black" stroke="none" />
<circle cx="557.8769090435557" cy="618.3538484927408" r="5" fill="black" stroke="none" />
<path d="M557.8769090435557,618.3538484927408 A131.74737209325522,131.74737209325522,0,0,1,538.3253096929723,626.0497548209294" stroke="grey" stroke-width="5" fill="none" />
<path d="M538.3253096929723,626.0497548209294 L57.876909043555685,190.35384849274072" stroke="grey" stroke-width="5" />
<circle cx="538.3253096929723" cy="626.0497548209294" r="2.5" fill="grey" stroke="none" />
<circle cx="557.8769090435557" cy="618.3538484927408" r="5" fill="black" stroke="none" />
<circle cx="557.8769090435557" cy="690.3538484927408" r="5" fill="black" stroke="none" />
<path d="M557.8769090435557,690.3538484927408 A198.95809668478765,198.95809668478765,0,0,1,508.8289688928018,698.7621028886624" stroke="grey" stroke-width="5" fill="none" />
<path d="M508.8289688928018,698.7621028886624 L9.876909043555685,222.35384849274072" stroke="grey" stroke-width="5" />
<circle cx="508.8289688928018" cy="698.7621028886624" r="2.5" fill="grey" stroke="none" />
<circle cx="557.8769090435557" cy="690.3538484927408" r="5" fill="black" stroke="none" />
<circle cx="509.87690904355566" cy="722.3538484927408" r="5" fill="black" stroke="none" />
<path d="M557.8769090435557,562.3538484927408 A85.0749024230512,85.0749024230512,0,0,0,582.3919047919672,478.80299438498236" stroke="grey" stroke-width="5" fill="none" />
<path d="M582.3919047919672,478.80299438498236 L161.87690904355568,-41.646151507259276" stroke="grey" stroke-width="5" />
<circle cx="582.3919047919672" cy="478.80299438498236" r="2.5" fill="grey" stroke="none" />
<circle cx="557.8769090435557" cy="562.3538484927408" r="5" fill="black" stroke="none" />
<circle cx="661.8769090435557" cy="458.3538484927407" r="5" fill="black" stroke="none" />
<path d="M557.8769090435557,562.3538484927408 A85.0749024230512,85.0749024230512,0,0,0,577.1551588835302,535.8443925872497" stroke="grey" stroke-width="5" fill="none" />
<path d="M577.1551588835302,535.8443925872497 L185.87690904355568,86.35384849274072" stroke="grey" stroke-width="5" />
<circle cx="577.1551588835302" cy="535.8443925872497" r="2.5" fill="grey" stroke="none" />
<circle cx="557.8769090435557" cy="562.3538484927408" r="5" fill="black" stroke="none" />
<circle cx="685.8769090435557" cy="586.3538484927408" r="5" fill="black" stroke="none" />
<path d="M685.8769090435557,586.3538484927407 A204.95661117683784,204.95661117683784,0,0,0,695.4704323876056,561.6321549785176" stroke="grey" stroke-width="5" fill="none" />
<path d="M695.4704323876056,561.6321549785176 L273.87690904355566,86.35384849274072" stroke="grey" stroke-width="5" />
<circle cx="695.4704323876056" cy="561.6321549785176" r="2.5" fill="grey" stroke="none" />
<circle cx="685.8769090435557" cy="586.3538484927408" r="5" fill="black" stroke="none" />
<circle cx="773.8769090435557" cy="586.3538484927408" r="5" fill="black" stroke="none" />
<path d="M557.8769090435557,618.3538484927408 A131.74737209325522,131.74737209325522,0,0,0,563.3248349614973,615.5306683551072" stroke="grey" stroke-width="5" fill="none" />
<path d="M563.3248349614973,615.5306683551072 L121.87690904355568,222.35384849274072" stroke="grey" stroke-width="5" />
<circle cx="563.3248349614973" cy="615.5306683551072" r="2.5" fill="grey" stroke="none" />
<circle cx="557.8769090435557" cy="618.3538484927408" r="5" fill="black" stroke="none" />
<circle cx="621.8769090435557" cy="722.3538484927408" r="5" fill="black" stroke="none" />
<circle cx="500" cy="500" r="5" fill="red" stroke="none" />
</svg>