<?xml version="1.0" encoding="UTF-8"?>
<svg xmlns="http://www.w3.org/2000/svg" xmlns:xlink="http://www.w3.org/1999/xlink"
     width="1000" height="1000" viewBox="0 0 1000 1000">
<defs>
</defs>
<rect x="0" y="0" width="1000" height="1000" fill="white" />
<path d="M370.2024587990272,706.8609294689365 L432.37285085662984,607.7787360199015" stroke="grey" stroke-width="5" />
<circle cx="432.37285085662984" cy="607.7787360199015" r="2.5" fill="grey" stroke="none" />
<path d="M432.37285085662984,607.7787360199015 A127.23870181398132,127.23870181398132,0,0,0,490.2024587990272,626.8609294689365" stroke="grey" stroke-width="5" fill="none" />
<circle cx="370.2024587990272" cy="706.8609294689365" r="5" fill="black" stroke="none" />
<circle cx="490.2024587990272" cy="626.8609294689365" r="5" fill="black" stroke="none" />
<path d="M490.2024587990272,626.8609294689365 L494.49171067229713,571.3226604065544" stroke="grey" stroke-width="5" />
<circle cx="494.49171067229713" cy="571.3226604065544" r="2.5" fill="grey" stroke="none" />
<path d="M494.49171067229713,571.3226604065544 A71.53504832448469,71.53504832448469,0,0,1,490.2024587990272,570.8609294689365" stroke="grey" stroke-width="5" fill="none" />
<circle cx="490.2024587990272" cy="626.8609294689365" r="5" fill="black" stroke="none" />
<circle cx="490.2024587990272" cy="570.8609294689365" r="5" fill="black" stroke="none" />
<path d="M490.2024587990272,570.8609294689365 A71.53504832448469,71.53504832448469,0,0,1,439.27552089496396,537.8127065443404" stroke="grey" stroke-width="5" fill="none" />
<path d="M439.27552089496396,537.8127065443404 L386.2024587990272,570.8609294689365" stroke="grey" stroke-width="5" />
<circle cx="439.27552089496396" cy="537.8127065443404" r="2.5" fill="grey" stroke="none" />
<circle cx="490.2024587990272" cy="570.8609294689365" r="5" fill="black" stroke="none" />
<circle cx="386.2024587990272" cy="570.8609294689365" r="5" fill="black" stroke="none" />
<path d="M386.2024587990272,570.8609294689365 L431.32863242438737,542.7611781674357" stroke="grey" stroke-width="5" />
<circle cx="431.32863242438737" cy="542.7611781674357" r="2.5" fill="grey" stroke="none" />
<path d="M431.32863242438737,542.7611781674357 A80.8966938939539,80.8966938939539,0,0,1,426.2024587990272,466.8609294689365" stroke="grey" stroke-width="5" fill="none" />
<circle cx="386.2024587990272" cy="570.8609294689365" r="5" fill="black" stroke="none" />
<circle cx="426.2024587990272" cy="466.86092946893655" r="5" fill="black" stroke="none" />
<path d="M426.2024587990272,466.8609294689365 A80.8966938939539,80.8966938939539,0,0,1,524.3304245089892,422.84881383812393" stroke="grey" stroke-width="5" fill="none" />
<path d="M524.3304245089892,422.84881383812393 L538.2024587990272,378.86092946893655" stroke="grey" stroke-width="5" />
<circle cx="524.3304245089892" cy="422.84881383812393" r="2.5" fill="grey" stroke="none" />
<circle cx="426.2024587990272" cy="466.86092946893655" r="5" fill="black" stroke="none" />
<circle cx="538.2024587990272" cy="378.86092946893655" r="5" fill="black" stroke="none" />
<path d="M538.2024587990272,378.86092946893655 A127.02008607862513,127.02008607862513,0,0,1,584.3091864527305,404.9944036011559" stroke="grey" stroke-width="5" fill="none" />
<path d="M584.3091864527305,404.9944036011559 L586.2024587990272,402.86092946893655" stroke="grey" stroke-width="5" />
<circle cx="584.3091864527305" cy="404.9944036011559" r="2.5" fill="grey" stroke="none" />
<circle cx="538.2024587990272" cy="378.86092946893655" r="5" fill="black" stroke="none" />
<circle cx="586.2024587990272" cy="402.86092946893655" r="5" fill="black" stroke="none" />
<path d="M586.2024587990272,402.86092946893655 L564.3704512937732,427.4627905577471" stroke="grey" stroke-width="5" />
<circle cx="564.3704512937732" cy="427.4627905577471" r="2.5" fill="grey" stroke="none" />
<path d="M564.3704512937732,427.4627905577471 A96.98041943316845,96.98041943316845,0,0,0,538.2024587990272,410.86092946893655" stroke="grey" stroke-width="5" fill="none" />
<circle cx="586.2024587990272" cy="402.86092946893655" r="5" fill="black" stroke="none" />
<circle cx="538.2024587990272" cy="410.86092946893655" r="5" fill="black" stroke="none" />
<path d="M538.2024587990272,378.86092946893655 L529.1677528498499,407.5097629632005" stroke="grey" stroke-width="5" />
<circle cx="529.1677528498499" cy="407.5097629632005" r="2.5" fill="grey" stroke="none" />
<path d="M529.1677528498499,407.5097629632005 A96.98041943316845,96.98041943316845,0,0,1,538.2024587990272,410.86092946893655" stroke="grey" stroke-width="5" fill="none" />
<circle cx="538.2024587990272" cy="378.86092946893655" r="5" fill="black" stroke="none" />
<circle cx="538.2024587990272" cy="410.86092946893655" r="5" fill="black" stroke="none" />
<path d="M538.2024587990272,410.86092946893655 L490.2024587990272,522.8609294689365" stroke="grey" stroke-width="5" />
<circle cx="538.2024587990272" cy="410.86092946893655" r="5" fill="black" stroke="none" />
<circle cx="490.2024587990272" cy="522.8609294689365" r="5" fill="black" stroke="none" />
<path d="M426.2024587990272,466.86092946893655 L477.31070720250597,489.8112855512564" stroke="grey" stroke-width="5" />
<circle cx="477.31070720250597" cy="489.8112855512564" r="2.5" fill="grey" stroke="none" />
<path d="M477.31070720250597,489.8112855512564 A24.87195026065409,24.87195026065409,0,0,0,490.20245879902717,522.8609294689365" stroke="grey" stroke-width="5" fill="none" />
<circle cx="426.2024587990272" cy="466.86092946893655" r="5" fill="black" stroke="none" />
<circle cx="490.2024587990272" cy="522.8609294689365" r="5" fill="black" stroke="none" />
<path d="M490.20245879902717,522.8609294689365 A24.87195026065409,24.87195026065409,0,0,0,496.5935025818121,524.6375665419362" stroke="grey" stroke-width="5" fill="none" />
<path d="M496.5935025818121,524.6375665419362 L490.2024587990272,570.8609294689365" stroke="grey" stroke-width="5" />
<circle cx="496.5935025818121" cy="524.6375665419362" r="2.5" fill="grey" stroke="none" />
<circle cx="490.2024587990272" cy="522.8609294689365" r="5" fill="black" stroke="none" />
<circle cx="490.2024587990272" cy="570.8609294689365" r="5" fill="black" stroke="none" />
<path d="M586.2024587990272,402.86092946893655 A129.87248718122288,129.87248718122288,0,0,1,587.9440406804744,404.43479380324675" stroke="grey" stroke-width="5" fill="none" />
<path d="M587.9440406804744,404.43479380324675 L626.2024587990272,362.86092946893655" stroke="grey" stroke-width="5" />
<circle cx="587.9440406804744" cy="404.43479380324675" r="2.5" fill="grey" stroke="none" />
<circle cx="586.2024587990272" cy="402.86092946893655" r="5" fill="black" stroke="none" />
<circle cx="626.2024587990272" cy="362.86092946893655" r="5" fill="black" stroke="none" />
<path d="M586.2024587990272,402.86092946893655 A129.87248718122288,129.87248718122288,0,0,1,626.0852708365771,468.86533435696" stroke="grey" stroke-width="5" fill="none" />
<path d="M626.0852708365771,468.86533435696 L634.2024587990272,466.86092946893655" stroke="grey" stroke-width="5" />
<circle cx="626.0852708365771" cy="468.86533435696" r="2.5" fill="grey" stroke="none" />
<circle cx="586.2024587990272" cy="402.86092946893655" r="5" fill="black" stroke="none" />
<circle cx="634.2024587990272" cy="466.86092946893655" r="5" fill="black" stroke="none" />
<path d="M538.2024587990272,410.86092946893655 L536.3795976091817,415.11427224524255" stroke="grey" stroke-width="5" />
<circle cx="536.3795976091817" cy="415.11427224524255" r="2.5" fill="grey" stroke="none" />
<path d="M536.3795976091817,415.11427224524255 A92.35292035805244,92.35292035805244,0,0,1,586.2024587990272,466.86092946893655" stroke="grey" stroke-width="5" fill="none" />
<circle cx="538.2024587990272" cy="410.86092946893655" r="5" fill="black" stroke="none" />
<circle cx="586.2024587990272" cy="466.86092946893655" r="5" fill="black" stroke="none" />
<path d="M490.20245879902717,522.8609294689365 A24.87195026065409,24.87195026065409,0,0,0,521.3424296493405,512.7716328803878" stroke="grey" stroke-width="5" fill="none" />
<path d="M521.3424296493405,512.7716328803878 L538.2024587990272,522.8609294689365" stroke="grey" stroke-width="5" />
<circle cx="521.3424296493405" cy="512.7716328803878" r="2.5" fill="grey" stroke="none" />
<circle cx="490.2024587990272" cy="522.8609294689365" r="5" fill="black" stroke="none" />
<circle cx="538.2024587990272" cy="522.8609294689365" r="5" fill="black" stroke="none" />
<path d="M490.2024587990272,570.8609294689365 A71.53504832448469,71.53504832448469,0,0,0,555.2607295662441,545.4259276910532" stroke="grey" stroke-width="5" fill="none" />
<path d="M555.2607295662441,545.4259276910532 L586.2024587990272,570.8609294689365" stroke="grey" stroke-width="5" />
<circle cx="555.2607295662441" cy="545.4259276910532" r="2.5" fill="grey" stroke="none" />
<circle cx="490.2024587990272" cy="570.8609294689365" r="5" fill="black" stroke="none" />
<circle cx="586.2024587990272" cy="570.8609294689365" r="5" fill="black" stroke="none" />
<path d="M490.2024587990272,626.8609294689365 A127.23870181398132,127.23870181398132,0,0,0,571.5118699828674,605.2413402179044" stroke="grey" stroke-width="5" fill="none" />
<path d="M571.5118699828674,605.2413402179044 L586.2024587990272,626.8609294689365" stroke="grey" stroke-width="5" />
<circle cx="571.5118699828674" cy="605.2413402179044" r="2.5" fill="grey" stroke="none" />
<circle cx="490.2024587990272" cy="626.8609294689365" r="5" fill="black" stroke="none" />
<circle cx="586.2024587990272" cy="626.8609294689365" r="5" fill="black" stroke="none" />
<path d="M634.2024587990272,466.86092946893655 L589.6598134726215,477.8599966866424" stroke="grey" stroke-width="5" />
<circle cx="589.6598134726215" cy="477.8599966866424" r="2.5" fill="grey" stroke="none" />
<path d="M589.6598134726215,477.8599966866424 A92.35292035805244,92.35292035805244,0,0,0,586.2024587990272,466.86092946893655" stroke="grey" stroke-width="5" fill="none" />
<circle cx="634.2024587990272" cy="466.86092946893655" r="5" fill="black" stroke="none" />
<circle cx="586.2024587990272" cy="466.86092946893655" r="5" fill="black" stroke="none" />
<path d="M586.2024587990272,466.86092946893655 L541.555290099294,484.02477482980044" stroke="grey" stroke-width="5" />
<circle cx="541.555290099294" cy="484.02477482980044" r="2.5" fill="grey" stroke="none" />
<path d="M541.555290099294,484.02477482980044 A44.520219613958126,44.520219613958126,0,0,1,538.2024587990272,522.8609294689365" stroke="grey" stroke-width="5" fill="none" />
<circle cx="586.2024587990272" cy="466.86092946893655" r="5" fill="black" stroke="none" />
<circle cx="538.2024587990272" cy="522.8609294689365" r="5" fill="black" stroke="none" />
<path d="M538.2024587990272,522.8609294689365 A44.520219613958126,44.520219613958126,0,0,1,534.3918103634616,528.2710688584418" stroke="grey" stroke-width="5" fill="none" />
<path d="M534.3918103634616,528.2710688584418 L586.2024587990272,570.8609294689365" stroke="grey" stroke-width="5" />
<circle cx="534.3918103634616" cy="528.2710688584418" r="2.5" fill="grey" stroke="none" />
<circle cx="538.2024587990272" cy="522.8609294689365" r="5" fill="black" stroke="none" />
<circle cx="586.2024587990272" cy="570.8609294689365" r="5" fill="black" stroke="none" />
<path d="M586.2024587990272,570.8609294689365 A111.58913579824687,111.58913579824687,0,0,1,562.7163563989452,592.2973123565365" stroke="grey" stroke-width="5" fill="none" />
<path d="M562.7163563989452,592.2973123565365 L586.2024587990272,626.8609294689365" stroke="grey" stroke-width="5" />
<circle cx="562.7163563989452" cy="592.2973123565365" r="2.5" fill="grey" stroke="none" />
<circle cx="586.2024587990272" cy="570.8609294689365" r="5" fill="black" stroke="none" />
<circle cx="586.2024587990272" cy="626.8609294689365" r="5" fill="black" stroke="none" />
<path d="M586.2024587990272,626.8609294689365 A153.37717994773692,153.37717994773692,0,0,0,593.1744433790175,621.8321896287296" stroke="grey" stroke-width="5" fill="none" />
<path d="M593.1744433790175,621.8321896287296 L658.2024587990272,706.8609294689365" stroke="grey" stroke-width="5" />
<circle cx="593.1744433790175" cy="621.8321896287296" r="2.5" fill="grey" stroke="none" />
<circle cx="586.2024587990272" cy="626.8609294689365" r="5" fill="black" stroke="none" />
<circle cx="658.2024587990272" cy="706.8609294689365" r="5" fill="black" stroke="none" />
<path d="M634.2024587990272,466.86092946893655 L607.356110650839,473.4901897130919" stroke="grey" stroke-width="5" />
<circle cx="607.356110650839" cy="473.4901897130919" r="2.5" fill="grey" stroke="none" />
<path d="M607.356110650839,473.4901897130919 A110.5807602412058,110.5807602412058,0,0,1,610.2024587990272,490.86092946893655" stroke="grey" stroke-width="5" fill="none" />
<circle cx="634.2024587990272" cy="466.86092946893655" r="5" fill="black" stroke="none" />
<circle cx="610.2024587990272" cy="490.86092946893655" r="5" fill="black" stroke="none" />
<path d="M610.2024587990272,490.86092946893655 L588.8772223986223,492.62942757395905" stroke="grey" stroke-width="5" />
<circle cx="588.8772223986223" cy="492.62942757395905" r="2.5" fill="grey" stroke="none" />
<path d="M588.8772223986223,492.62942757395905 A89.18231887084835,89.18231887084835,0,0,1,586.2024587990272,522.8609294689365" stroke="grey" stroke-width="5" fill="none" />
<circle cx="610.2024587990272" cy="490.86092946893655" r="5" fill="black" stroke="none" />
<circle cx="586.2024587990272" cy="522.8609294689365" r="5" fill="black" stroke="none" />
<path d="M586.2024587990272,522.8609294689365 A89.18231887084835,89.18231887084835,0,0,1,568.8932225621447,556.6322336146516" stroke="grey" stroke-width="5" fill="none" />
<path d="M568.8932225621447,556.6322336146516 L586.2024587990272,570.8609294689365" stroke="grey" stroke-width="5" />
<circle cx="568.8932225621447" cy="556.6322336146516" r="2.5" fill="grey" stroke="none" />
<circle cx="586.2024587990272" cy="522.8609294689365" r="5" fill="black" stroke="none" />
<circle cx="586.2024587990272" cy="570.8609294689365" r="5" fill="black" stroke="none" />
<path d="M586.2024587990272,466.86092946893655 A92.35292035805244,92.35292035805244,0,0,1,592.0369771244859,492.3673896701298" stroke="grey" stroke-width="5" fill="none" />
<path d="M592.0369771244859,492.3673896701298 L610.2024587990272,490.86092946893655" stroke="grey" stroke-width="5" />
<circle cx="592.0369771244859" cy="492.3673896701298" r="2.5" fill="grey" stroke="none" />
<circle cx="586.2024587990272" cy="466.86092946893655" r="5" fill="black" stroke="none" />
<circle cx="610.2024587990272" cy="490.86092946893655" r="5" fill="black" stroke="none" />
<path d="M538.2024587990272,522.8609294689365 A44.520219613958126,44.520219613958126,0,0,0,543.032659899252,511.4122800732528" stroke="grey" stroke-width="5" fill="none" />
<path d="M543.032659899252,511.4122800732528 L586.2024587990272,522.8609294689365" stroke="grey" stroke-width="5" />
<circle cx="543.032659899252" cy="511.4122800732528" r="2.5" fill="grey" stroke="none" />
<circle cx="538.2024587990272" cy="522.8609294689365" r="5" fill="black" stroke="none" />
<circle cx="586.2024587990272" cy="522.8609294689365" r="5" fill="black" stroke="none" />
<path d="M634.2024587990272,466.86092946893655 L632.1658177355107,467.3638441878942" stroke="grey" stroke-width="5" />
<circle cx="632.1658177355107" cy="467.3638441878942" r="2.5" fill="grey" stroke="none" />
<path d="M632.1658177355107,467.3638441878942 A136.13567513289192,136.13567513289192,0,0,1,634.2024587990272,522.8609294689365" stroke="grey" stroke-width="5" fill="none" />
<circle cx="634.2024587990272" cy="466.86092946893655" r="5" fill="black" stroke="none" />
<circle cx="634.2024587990272" cy="522.8609294689365" r="5" fill="black" stroke="none" />
<path d="M610.2024587990272,490.86092946893655 A110.5807602412058,110.5807602412058,0,0,1,609.0104405457931,518.5695553941158" stroke="grey" stroke-width="5" fill="none" />
<path d="M609.0104405457931,518.5695553941158 L634.2024587990272,522.8609294689365" stroke="grey" stroke-width="5" />
<circle cx="609.0104405457931" cy="518.5695553941158" r="2.5" fill="grey" stroke="none" />
<circle cx="610.2024587990272" cy="490.86092946893655" r="5" fill="black" stroke="none" />
<circle cx="634.2024587990272" cy="522.8609294689365" r="5" fill="black" stroke="none" />
<path d="M586.2024587990272,522.8609294689365 A89.18231887084835,89.18231887084835,0,0,0,587.915871149744,514.9761677061686" stroke="grey" stroke-width="5" fill="none" />
<path d="M587.915871149744,514.9761677061686 L634.2024587990272,522.8609294689365" stroke="grey" stroke-width="5" />
<circle cx="587.915871149744" cy="514.9761677061686" r="2.5" fill="grey" stroke="none" />
<circle cx="586.2024587990272" cy="522.8609294689365" r="5" fill="black" stroke="none" />
<circle cx="634.2024587990272" cy="522.8609294689365" r="5" fill="black" stroke="none" />
<path d="M586.2024587990272,570.8609294689365 A111.58913579824687,111.58913579824687,0,0,0,610.0044965051561,518.7388894240474" stroke="grey" stroke-width="5" fill="none" />
<path d="M610.0044965051561,518.7388894240474 L634.2024587990272,522.8609294689365" stroke="grey" stroke-width="5" />
<circle cx="610.0044965051561" cy="518.7388894240474" r="2.5" fill="grey" stroke="none" />
<circle cx="586.2024587990272" cy="570.8609294689365" r="5" fill="black" stroke="none" />
<circle cx="634.2024587990272" cy="522.8609294689365" r="5" fill="black" stroke="none" />
<path d="M634.2024587990272,522.8609294689365 A136.13567513289192,136.13567513289192,0,0,1,611.1677989371947,578.5788936251188" stroke="grey" stroke-width="5" fill="none" />
<path d="M611.1677989371947,578.5788936251188 L634.2024587990272,594.8609294689365" stroke="grey" stroke-width="5" />
<circle cx="611.1677989371947" cy="578.5788936251188" r="2.5" fill="grey" stroke="none" />
<circle cx="634.2024587990272" cy="522.8609294689365" r="5" fill="black" stroke="none" />
<circle cx="634.2024587990272" cy="594.8609294689365" r="5" fill="black" stroke="none" />
<path d="M634.2024587990272,594.8609294689365 L625.2471366182275,588.5308652259512" stroke="grey" stroke-width="5" />
<circle cx="625.2471366182275" cy="588.5308652259512" r="2.5" fill="grey" stroke="none" />
<path d="M625.2471366182275,588.5308652259512 A153.37717994773692,153.37717994773692,0,0,1,586.2024587990272,626.8609294689365" stroke="grey" stroke-width="5" fill="none" />
<circle cx="634.2024587990272" cy="594.8609294689365" r="5" fill="black" stroke="none" />
<circle cx="586.2024587990272" cy="626.8609294689365" r="5" fill="black" stroke="none" />
<path d="M634.2024587990272,466.86092946893655 A138.23349067200536,138.23349067200536,0,0,0,619.797943482992,431.0293491359314" stroke="grey" stroke-width="5" fill="none" />
<path d="M619.797943482992,431.0293491359314 L738.2024587990272,362.86092946893655" stroke="grey" stroke-width="5" />
<circle cx="619.797943482992" cy="431.0293491359314" r="2.5" fill="grey" stroke="none" />
<circle cx="634.2024587990272" cy="466.86092946893655" r="5" fill="black" stroke="none" />
<circle cx="738.2024587990272" cy="362.86092946893655" r="5" fill="black" stroke="none" />
<path d="M634.2024587990272,466.86092946893655 A138.23349067200536,138.23349067200536,0,0,1,638.1495991007922,495.1847937055846" stroke="grey" stroke-width="5" fill="none" />
<path d="M638.1495991007922,495.1847937055846 L762.2024587990272,490.86092946893655" stroke="grey" stroke-width="5" />
<circle cx="638.1495991007922" cy="495.1847937055846" r="2.5" fill="grey" stroke="none" />
<circle cx="634.2024587990272" cy="466.86092946893655" r="5" fill="black" stroke="none" />
<circle cx="762.2024587990272" cy="490.86092946893655" r="5" fill="black" stroke="none" />
<path d="M762.2024587990272,490.86092946893655 A262.361681673272,262.361681673272,0,0,1,762.272389307376,493.1555995567519" stroke="grey" stroke-width="5" fill="none" />
<path d="M762.272389307376,493.1555995567519 L850.2024587990272,490.86092946893655" stroke="grey" stroke-width="5" />
<circle cx="762.272389307376" cy="493.1555995567519" r="2.5" fill="grey" stroke="none" />
<circle cx="762.2024587990272" cy="490.86092946893655" r="5" fill="black" stroke="none" />
<circle cx="850.2024587990272" cy="490.86092946893655" r="5" fill="black" stroke="none" />
<path d="M634.2024587990272,522.8609294689365 A136.13567513289192,136.13567513289192,0,0,1,614.6602029976794,573.3890992751597" stroke="grey" stroke-width="5" fill="none" />
<path d="M614.6602029976793,573.3890992751597 L698.2024587990272,626.8609294689365" stroke="grey" stroke-width="5" />
<circle cx="614.6602029976793" cy="573.3890992751597" r="2.5" fill="grey" stroke="none" />
<circle cx="634.2024587990272" cy="522.8609294689365" r="5" fill="black" stroke="none" />
<circle cx="698.2024587990272" cy="626.8609294689365" r="5" fill="black" stroke="none" />
<circle cx="500" cy="500" r="5" fill="red" stroke="none" />
</svg>