<?xml version="1.0" encoding="UTF-8"?>
<svg xmlns="http://www.w3.org/2000/svg" xmlns:xlink="http://www.w3.org/1999/xlink"
     width="1000" height="1000" viewBox="0 0 1000 1000">
<defs>
</defs>
<rect x="0" y="0" width="1000" height="1000" fill="white" />
<path d="M364.3740558886509,720.4605362598146 L425.94752681938564,620.3726031603541" stroke="grey" stroke-width="5" />
<circle cx="425.94752681938564" cy="620.3726031603541" r="2.5" fill="grey" stroke="none" />
<path d="M425.94752681938564,620.3726031603541 A141.3270404974423,141.3270404974423,0,0,0,484.37405588865084,640.4605362598146" stroke="grey" stroke-width="5" fill="none" />
<circle cx="364.3740558886509" cy="720.4605362598146" r="5" fill="black" stroke="none" />
<circle cx="484.3740558886509" cy="640.4605362598146" r="5" fill="black" stroke="none" />
<path d="M484.3740558886509,640.4605362598146 L490.5030743586475,585.3672110240758" stroke="grey" stroke-width="5" />
<circle cx="490.5030743586475" cy="585.3672110240758" r="2.5" fill="grey" stroke="none" />
<path d="M490.5030743586475,585.3672110240758 A85.8938432873187,85.8938432873187,0,0,1,484.3740558886509,584.4605362598146" stroke="grey" stroke-width="5" fill="none" />
<circle cx="484.3740558886509" cy="640.4605362598146" r="5" fill="black" stroke="none" />
<circle cx="484.3740558886509" cy="584.4605362598146" r="5" fill="black" stroke="none" />
<path d="M484.3740558886509,584.4605362598146 A85.8938432873187,85.8938432873187,0,0,1,429.83265658325365,549.540854176153" stroke="grey" stroke-width="5" fill="none" />
<path d="M429.83265658325365,549.540854176153 L380.3740558886509,584.4605362598146" stroke="grey" stroke-width="5" />
<circle cx="429.83265658325365" cy="549.540854176153" r="2.5" fill="grey" stroke="none" />
<circle cx="484.3740558886509" cy="584.4605362598146" r="5" fill="black" stroke="none" />
<circle cx="380.3740558886509" cy="584.4605362598146" r="5" fill="black" stroke="none" />
<path d="M380.3740558886509,584.4605362598146 L433.02312362858095,547.288261232629" stroke="grey" stroke-width="5" />
<circle cx="433.02312362858095" cy="547.288261232629" r="2.5" fill="grey" stroke="none" />
<path d="M433.02312362858095,547.288261232629 A81.98830171968261,81.98830171968261,0,0,1,420.3740558886509,480.46053625981466" stroke="grey" stroke-width="5" fill="none" />
<circle cx="380.3740558886509" cy="584.4605362598146" r="5" fill="black" stroke="none" />
<circle cx="420.3740558886509" cy="480.4605362598146" r="5" fill="black" stroke="none" />
<path d="M420.3740558886509,480.46053625981466 A81.98830171968261,81.98830171968261,0,0,1,523.6343126800035,421.4920329965071" stroke="grey" stroke-width="5" fill="none" />
<path d="M523.6343126800035,421.4920329965071 L532.3740558886509,392.4605362598146" stroke="grey" stroke-width="5" />
<circle cx="523.6343126800035" cy="421.4920329965071" r="2.5" fill="grey" stroke="none" />
<circle cx="420.3740558886509" cy="480.4605362598146" r="5" fill="black" stroke="none" />
<circle cx="532.3740558886509" cy="392.4605362598146" r="5" fill="black" stroke="none" />
<path d="M532.3740558886509,392.4605362598146 A112.30679301007638,112.30679301007638,0,0,1,577.8647989174625,419.0686164349622" stroke="grey" stroke-width="5" fill="none" />
<path d="M577.8647989174625,419.0686164349622 L580.3740558886509,416.4605362598146" stroke="grey" stroke-width="5" />
<circle cx="577.8647989174625" cy="419.0686164349622" r="2.5" fill="grey" stroke="none" />
<circle cx="532.3740558886509" cy="392.4605362598146" r="5" fill="black" stroke="none" />
<circle cx="580.3740558886509" cy="416.4605362598146" r="5" fill="black" stroke="none" />
<path d="M580.3740558886509,416.4605362598146 L556.980334537294,440.7755831362238" stroke="grey" stroke-width="5" />
<circle cx="556.980334537294" cy="440.7755831362238" r="2.5" fill="grey" stroke="none" />
<path d="M556.980334537294,440.7755831362238 A82.18448805484084,82.18448805484084,0,0,0,532.3740558886509,424.4605362598146" stroke="grey" stroke-width="5" fill="none" />
<circle cx="580.3740558886509" cy="416.4605362598146" r="5" fill="black" stroke="none" />
<circle cx="532.3740558886509" cy="424.4605362598146" r="5" fill="black" stroke="none" />
<path d="M532.3740558886509,392.4605362598146 L523.6908662259536,421.3041746069066" stroke="grey" stroke-width="5" />
<circle cx="523.6908662259536" cy="421.3041746069066" r="2.5" fill="grey" stroke="none" />
<path d="M523.6908662259536,421.3041746069066 A82.18448805484084,82.18448805484084,0,0,1,532.3740558886509,424.4605362598146" stroke="grey" stroke-width="5" fill="none" />
<circle cx="532.3740558886509" cy="392.4605362598146" r="5" fill="black" stroke="none" />
<circle cx="532.3740558886509" cy="424.4605362598146" r="5" fill="black" stroke="none" />
<path d="M532.3740558886509,424.4605362598146 L484.3740558886509,536.4605362598146" stroke="grey" stroke-width="5" />
<circle cx="532.3740558886509" cy="424.4605362598146" r="5" fill="black" stroke="none" />
<circle cx="484.3740558886509" cy="536.4605362598146" r="5" fill="black" stroke="none" />
<path d="M420.3740558886509,480.4605362598146 L461.47508290633493,490.54634479947066" stroke="grey" stroke-width="5" />
<circle cx="461.47508290633493" cy="490.54634479947066" r="2.5" fill="grey" stroke="none" />
<path d="M461.47508290633493,490.54634479947066 A39.6678816389817,39.6678816389817,0,0,0,484.3740558886509,536.4605362598146" stroke="grey" stroke-width="5" fill="none" />
<circle cx="420.3740558886509" cy="480.4605362598146" r="5" fill="black" stroke="none" />
<circle cx="484.3740558886509" cy="536.4605362598146" r="5" fill="black" stroke="none" />
<path d="M484.3740558886509,536.4605362598146 A39.6678816389817,39.6678816389817,0,0,0,492.78355609920817,539.0059453308209" stroke="grey" stroke-width="5" fill="none" />
<path d="M492.78355609920817,539.0059453308209 L484.3740558886509,584.4605362598146" stroke="grey" stroke-width="5" />
<circle cx="492.78355609920817" cy="539.0059453308209" r="2.5" fill="grey" stroke="none" />
<circle cx="484.3740558886509" cy="536.4605362598146" r="5" fill="black" stroke="none" />
<circle cx="484.3740558886509" cy="584.4605362598146" r="5" fill="black" stroke="none" />
<path d="M580.3740558886509,416.4605362598146 A115.92597147313336,115.92597147313336,0,0,1,580.9014292886254,416.97115199494056" stroke="grey" stroke-width="5" fill="none" />
<path d="M580.9014292886255,416.97115199494056 L620.3740558886509,376.4605362598146" stroke="grey" stroke-width="5" />
<circle cx="580.9014292886255" cy="416.97115199494056" r="2.5" fill="grey" stroke="none" />
<circle cx="580.3740558886509" cy="416.4605362598146" r="5" fill="black" stroke="none" />
<circle cx="620.3740558886509" cy="376.4605362598146" r="5" fill="black" stroke="none" />
<path d="M580.3740558886509,416.4605362598146 A115.92597147313336,115.92597147313336,0,0,1,614.606030606241,482.5561297106669" stroke="grey" stroke-width="5" fill="none" />
<path d="M614.606030606241,482.5561297106669 L628.3740558886509,480.4605362598146" stroke="grey" stroke-width="5" />
<circle cx="614.606030606241" cy="482.5561297106669" r="2.5" fill="grey" stroke="none" />
<circle cx="580.3740558886509" cy="416.4605362598146" r="5" fill="black" stroke="none" />
<circle cx="628.3740558886509" cy="480.4605362598146" r="5" fill="black" stroke="none" />
<path d="M532.3740558886509,424.4605362598146 A82.18448805484084,82.18448805484084,0,0,1,579.8585098219082,480.5858689130711" stroke="grey" stroke-width="5" fill="none" />
<path d="M579.8585098219082,480.5858689130711 L580.3740558886509,480.4605362598146" stroke="grey" stroke-width="5" />
<circle cx="579.8585098219082" cy="480.5858689130711" r="2.5" fill="grey" stroke="none" />
<circle cx="532.3740558886509" cy="424.4605362598146" r="5" fill="black" stroke="none" />
<circle cx="580.3740558886509" cy="480.4605362598146" r="5" fill="black" stroke="none" />
<path d="M484.3740558886509,536.4605362598146 A39.6678816389817,39.6678816389817,0,0,0,526.3378552568502,529.6624040528321" stroke="grey" stroke-width="5" fill="none" />
<path d="M526.3378552568502,529.6624040528321 L532.3740558886509,536.4605362598146" stroke="grey" stroke-width="5" />
<circle cx="526.3378552568502" cy="529.6624040528321" r="2.5" fill="grey" stroke="none" />
<circle cx="484.3740558886509" cy="536.4605362598146" r="5" fill="black" stroke="none" />
<circle cx="532.3740558886509" cy="536.4605362598146" r="5" fill="black" stroke="none" />
<path d="M484.3740558886509,584.4605362598146 A85.8938432873187,85.8938432873187,0,0,0,559.2121920932294,562.222733965818" stroke="grey" stroke-width="5" fill="none" />
<path d="M559.2121920932294,562.222733965818 L580.3740558886509,584.4605362598146" stroke="grey" stroke-width="5" />
<circle cx="559.2121920932294" cy="562.222733965818" r="2.5" fill="grey" stroke="none" />
<circle cx="484.3740558886509" cy="584.4605362598146" r="5" fill="black" stroke="none" />
<circle cx="580.3740558886509" cy="584.4605362598146" r="5" fill="black" stroke="none" />
<path d="M484.37405588865084,640.4605362598146 A141.3270404974423,141.3270404974423,0,0,0,570.1908397696321,622.6644952225358" stroke="grey" stroke-width="5" fill="none" />
<path d="M570.1908397696321,622.6644952225358 L580.3740558886509,640.4605362598146" stroke="grey" stroke-width="5" />
<circle cx="570.1908397696321" cy="622.6644952225358" r="2.5" fill="grey" stroke="none" />
<circle cx="484.3740558886509" cy="640.4605362598146" r="5" fill="black" stroke="none" />
<circle cx="580.3740558886509" cy="640.4605362598146" r="5" fill="black" stroke="none" />
<path d="M628.3740558886509,480.4605362598146 L581.7732509471828,487.5535172528516" stroke="grey" stroke-width="5" />
<circle cx="581.7732509471828" cy="487.5535172528516" r="2.5" fill="grey" stroke="none" />
<path d="M581.7732509471828,487.5535172528516 A82.71505004076343,82.71505004076343,0,0,0,580.3740558886509,480.4605362598146" stroke="grey" stroke-width="5" fill="none" />
<circle cx="628.3740558886509" cy="480.4605362598146" r="5" fill="black" stroke="none" />
<circle cx="580.3740558886509" cy="480.4605362598146" r="5" fill="black" stroke="none" />
<path d="M580.3740558886509,480.4605362598146 L547.3791278417862,488.4818211514829" stroke="grey" stroke-width="5" />
<circle cx="547.3791278417862" cy="488.4818211514829" r="2.5" fill="grey" stroke="none" />
<path d="M547.3791278417862,488.4818211514829 A48.75910375545009,48.75910375545009,0,0,1,532.3740558886509,536.4605362598146" stroke="grey" stroke-width="5" fill="none" />
<circle cx="580.3740558886509" cy="480.4605362598146" r="5" fill="black" stroke="none" />
<circle cx="532.3740558886509" cy="536.4605362598146" r="5" fill="black" stroke="none" />
<path d="M532.3740558886509,536.4605362598146 A48.75910375545009,48.75910375545009,0,0,0,533.6128098052828,535.3217951982714" stroke="grey" stroke-width="5" fill="none" />
<path d="M533.6128098052828,535.3217951982714 L580.3740558886509,584.4605362598146" stroke="grey" stroke-width="5" />
<circle cx="533.6128098052828" cy="535.3217951982714" r="2.5" fill="grey" stroke="none" />
<circle cx="532.3740558886509" cy="536.4605362598146" r="5" fill="black" stroke="none" />
<circle cx="580.3740558886509" cy="584.4605362598146" r="5" fill="black" stroke="none" />
<path d="M580.3740558886509,584.4605362598146 A116.5914707227224,116.5914707227224,0,0,1,557.9057851292971,601.1953116198923" stroke="grey" stroke-width="5" fill="none" />
<path d="M557.9057851292971,601.1953116198923 L580.3740558886509,640.4605362598146" stroke="grey" stroke-width="5" />
<circle cx="557.9057851292971" cy="601.1953116198923" r="2.5" fill="grey" stroke="none" />
<circle cx="580.3740558886509" cy="584.4605362598146" r="5" fill="black" stroke="none" />
<circle cx="580.3740558886509" cy="640.4605362598146" r="5" fill="black" stroke="none" />
<path d="M580.3740558886509,640.4605362598146 A161.8306247481813,161.8306247481813,0,0,0,592.0125186465061,633.1271854983536" stroke="grey" stroke-width="5" fill="none" />
<path d="M592.0125186465061,633.1271854983536 L652.3740558886509,720.4605362598146" stroke="grey" stroke-width="5" />
<circle cx="592.0125186465061" cy="633.1271854983536" r="2.5" fill="grey" stroke="none" />
<circle cx="580.3740558886509" cy="640.4605362598146" r="5" fill="black" stroke="none" />
<circle cx="652.3740558886509" cy="720.4605362598146" r="5" fill="black" stroke="none" />
<path d="M628.3740558886509,480.4605362598146 L603.279830562193,484.28005962425254" stroke="grey" stroke-width="5" />
<circle cx="603.279830562193" cy="484.28005962425254" r="2.5" fill="grey" stroke="none" />
<path d="M603.279830562193,484.28005962425254 A104.46932528916008,104.46932528916008,0,0,1,604.3740558886509,504.4605362598146" stroke="grey" stroke-width="5" fill="none" />
<circle cx="628.3740558886509" cy="480.4605362598146" r="5" fill="black" stroke="none" />
<circle cx="604.3740558886509" cy="504.4605362598146" r="5" fill="black" stroke="none" />
<path d="M604.3740558886509,504.4605362598146 L588.1768633948957,503.7683320160448" stroke="grey" stroke-width="5" />
<circle cx="588.1768633948957" cy="503.7683320160448" r="2.5" fill="grey" stroke="none" />
<path d="M588.1768633948957,503.7683320160448 A88.25734850053696,88.25734850053696,0,0,1,580.3740558886509,536.4605362598146" stroke="grey" stroke-width="5" fill="none" />
<circle cx="604.3740558886509" cy="504.4605362598146" r="5" fill="black" stroke="none" />
<circle cx="580.3740558886509" cy="536.4605362598146" r="5" fill="black" stroke="none" />
<path d="M580.3740558886509,536.4605362598146 A88.25734850053696,88.25734850053696,0,0,1,560.84150939168,563.9348910946703" stroke="grey" stroke-width="5" fill="none" />
<path d="M560.84150939168,563.9348910946703 L580.3740558886509,584.4605362598146" stroke="grey" stroke-width="5" />
<circle cx="560.84150939168" cy="563.9348910946703" r="2.5" fill="grey" stroke="none" />
<circle cx="580.3740558886509" cy="536.4605362598146" r="5" fill="black" stroke="none" />
<circle cx="580.3740558886509" cy="584.4605362598146" r="5" fill="black" stroke="none" />
<path d="M580.3740558886509,480.4605362598146 A82.71505004076343,82.71505004076343,0,0,1,582.6396191598933,503.5316919958847" stroke="grey" stroke-width="5" fill="none" />
<path d="M582.6396191598933,503.5316919958847 L604.3740558886509,504.4605362598146" stroke="grey" stroke-width="5" />
<circle cx="582.6396191598933" cy="503.5316919958847" r="2.5" fill="grey" stroke="none" />
<circle cx="580.3740558886509" cy="480.4605362598146" r="5" fill="black" stroke="none" />
<circle cx="604.3740558886509" cy="504.4605362598146" r="5" fill="black" stroke="none" />
<path d="M532.3740558886509,536.4605362598146 A48.75910375545009,48.75910375545009,0,0,0,544.4038598134096,520.1431733524244" stroke="grey" stroke-width="5" fill="none" />
<path d="M544.4038598134096,520.1431733524244 L580.3740558886509,536.4605362598146" stroke="grey" stroke-width="5" />
<circle cx="544.4038598134096" cy="520.1431733524244" r="2.5" fill="grey" stroke="none" />
<circle cx="532.3740558886509" cy="536.4605362598146" r="5" fill="black" stroke="none" />
<circle cx="580.3740558886509" cy="536.4605362598146" r="5" fill="black" stroke="none" />
<path d="M628.3740558886509,480.4605362598146 A129.852565891308,129.852565891308,0,0,1,624.9121697919933,535.4772984655361" stroke="grey" stroke-width="5" fill="none" />
<path d="M624.9121697919933,535.4772984655361 L628.3740558886509,536.4605362598146" stroke="grey" stroke-width="5" />
<circle cx="624.9121697919933" cy="535.4772984655361" r="2.5" fill="grey" stroke="none" />
<circle cx="628.3740558886509" cy="480.4605362598146" r="5" fill="black" stroke="none" />
<circle cx="628.3740558886509" cy="536.4605362598146" r="5" fill="black" stroke="none" />
<path d="M604.3740558886509,504.4605362598146 A104.46932528916008,104.46932528916008,0,0,1,600.4946649225053,528.5422887744786" stroke="grey" stroke-width="5" fill="none" />
<path d="M600.4946649225053,528.5422887744786 L628.3740558886509,536.4605362598146" stroke="grey" stroke-width="5" />
<circle cx="600.4946649225053" cy="528.5422887744786" r="2.5" fill="grey" stroke="none" />
<circle cx="604.3740558886509" cy="504.4605362598146" r="5" fill="black" stroke="none" />
<circle cx="628.3740558886509" cy="536.4605362598146" r="5" fill="black" stroke="none" />
<path d="M580.3740558886509,536.4605362598146 A88.25734850053696,88.25734850053696,0,0,0,584.8994921711296,524.1129797708525" stroke="grey" stroke-width="5" fill="none" />
<path d="M584.8994921711296,524.1129797708525 L628.3740558886509,536.4605362598146" stroke="grey" stroke-width="5" />
<circle cx="584.8994921711296" cy="524.1129797708525" r="2.5" fill="grey" stroke="none" />
<circle cx="580.3740558886509" cy="536.4605362598146" r="5" fill="black" stroke="none" />
<circle cx="628.3740558886509" cy="536.4605362598146" r="5" fill="black" stroke="none" />
<path d="M580.3740558886509,584.4605362598146 A116.5914707227224,116.5914707227224,0,0,0,612.155608841841,531.8542061681565" stroke="grey" stroke-width="5" fill="none" />
<path d="M612.155608841841,531.8542061681565 L628.3740558886509,536.4605362598146" stroke="grey" stroke-width="5" />
<circle cx="612.155608841841" cy="531.8542061681565" r="2.5" fill="grey" stroke="none" />
<circle cx="580.3740558886509" cy="584.4605362598146" r="5" fill="black" stroke="none" />
<circle cx="628.3740558886509" cy="536.4605362598146" r="5" fill="black" stroke="none" />
<path d="M628.3740558886509,536.4605362598146 A133.45137290285072,133.45137290285072,0,0,1,601.9390047243077,586.1261182538335" stroke="grey" stroke-width="5" fill="none" />
<path d="M601.9390047243076,586.1261182538335 L628.3740558886509,608.4605362598146" stroke="grey" stroke-width="5" />
<circle cx="601.9390047243076" cy="586.1261182538335" r="2.5" fill="grey" stroke="none" />
<circle cx="628.3740558886509" cy="536.4605362598146" r="5" fill="black" stroke="none" />
<circle cx="628.3740558886509" cy="608.4605362598146" r="5" fill="black" stroke="none" />
<path d="M628.3740558886509,608.4605362598146 L623.6169584613551,604.4413648280713" stroke="grey" stroke-width="5" />
<circle cx="623.6169584613551" cy="604.4413648280713" r="2.5" fill="grey" stroke="none" />
<path d="M623.6169584613551,604.4413648280712 A161.8306247481813,161.8306247481813,0,0,1,580.3740558886509,640.4605362598146" stroke="grey" stroke-width="5" fill="none" />
<circle cx="628.3740558886509" cy="608.4605362598146" r="5" fill="black" stroke="none" />
<circle cx="580.3740558886509" cy="640.4605362598146" r="5" fill="black" stroke="none" />
<path d="M628.3740558886509,480.4605362598146 A129.852565891308,129.852565891308,0,0,0,614.6562855262033,439.0440728239639" stroke="grey" stroke-width="5" fill="none" />
<path d="M614.6562855262033,439.0440728239639 L732.3740558886509,376.4605362598146" stroke="grey" stroke-width="5" />
<circle cx="614.6562855262033" cy="439.0440728239639" r="2.5" fill="grey" stroke="none" />
<circle cx="628.3740558886509" cy="480.4605362598146" r="5" fill="black" stroke="none" />
<circle cx="732.3740558886509" cy="376.4605362598146" r="5" fill="black" stroke="none" />
<path d="M628.3740558886509,480.4605362598146 A129.852565891308,129.852565891308,0,0,1,629.8329165518708,502.2589042014791" stroke="grey" stroke-width="5" fill="none" />
<path d="M629.8329165518708,502.2589042014791 L756.3740558886509,504.4605362598146" stroke="grey" stroke-width="5" />
<circle cx="629.8329165518708" cy="502.2589042014791" r="2.5" fill="grey" stroke="none" />
<circle cx="628.3740558886509" cy="480.4605362598146" r="5" fill="black" stroke="none" />
<circle cx="756.3740558886509" cy="504.4605362598146" r="5" fill="black" stroke="none" />
<path d="M756.3740558886509,504.4605362598146 A256.41285637916485,256.41285637916485,0,0,0,756.3913499426599,503.3209322641071" stroke="grey" stroke-width="5" fill="none" />
<path d="M756.3913499426599,503.3209322641071 L844.3740558886509,504.4605362598146" stroke="grey" stroke-width="5" />
<circle cx="756.3913499426599" cy="503.3209322641071" r="2.5" fill="grey" stroke="none" />
<circle cx="756.3740558886509" cy="504.4605362598146" r="5" fill="black" stroke="none" />
<circle cx="844.3740558886509" cy="504.4605362598146" r="5" fill="black" stroke="none" />
<path d="M628.3740558886509,536.4605362598146 A133.45137290285072,133.45137290285072,0,0,1,607.779606657395,578.694506278602" stroke="grey" stroke-width="5" fill="none" />
<path d="M607.779606657395,578.694506278602 L692.3740558886509,640.4605362598146" stroke="grey" stroke-width="5" />
<circle cx="607.779606657395" cy="578.694506278602" r="2.5" fill="grey" stroke="none" />
<circle cx="628.3740558886509" cy="536.4605362598146" r="5" fill="black" stroke="none" />
<circle cx="692.3740558886509" cy="640.4605362598146" r="5" fill="black" stroke="none" />
<circle cx="500" cy="500" r="5" fill="red" stroke="none" />
</svg>