<?xml version="1.0" encoding="UTF-8"?>
<svg xmlns="http://www.w3.org/2000/svg" xmlns:xlink="http://www.w3.org/1999/xlink"
     width="1000" height="1000" viewBox="0 0 1000 1000">
<defs>
</defs>
<rect x="0" y="0" width="1000" height="1000" fill="white" />
<path d="M353.68865055296095,745.3931487097577 L414.23471500816834,643.8453914455453" stroke="grey" stroke-width="5" />
<circle cx="414.23471500816834" cy="643.8453914455453" r="2.5" fill="grey" stroke="none" />
<path d="M414.2347150081683,643.8453914455453 A167.47292542334196,167.47292542334196,0,0,0,473.688650552961,665.3931487097578" stroke="grey" stroke-width="5" fill="none" />
<circle cx="353.68865055296095" cy="745.3931487097577" r="5" fill="black" stroke="none" />
<circle cx="473.68865055296095" cy="665.3931487097577" r="5" fill="black" stroke="none" />
<path d="M473.68865055296095,665.3931487097577 L482.32331771165286,611.1156289530695" stroke="grey" stroke-width="5" />
<circle cx="482.32331771165286" cy="611.1156289530695" r="2.5" fill="grey" stroke="none" />
<path d="M482.32331771165286,611.1156289530695 A112.51287968210299,112.51287968210299,0,0,1,473.68865055296095,609.3931487097578" stroke="grey" stroke-width="5" fill="none" />
<circle cx="473.68865055296095" cy="665.3931487097577" r="5" fill="black" stroke="none" />
<circle cx="473.68865055296095" cy="609.3931487097577" r="5" fill="black" stroke="none" />
<path d="M473.68865055296095,609.3931487097578 A112.51287968210299,112.51287968210299,0,0,1,413.8260729472993,572.3408763471607" stroke="grey" stroke-width="5" fill="none" />
<path d="M413.8260729472993,572.3408763471607 L369.68865055296095,609.3931487097577" stroke="grey" stroke-width="5" />
<circle cx="413.8260729472993" cy="572.3408763471607" r="2.5" fill="grey" stroke="none" />
<circle cx="473.68865055296095" cy="609.3931487097577" r="5" fill="black" stroke="none" />
<circle cx="369.68865055296095" cy="609.3931487097577" r="5" fill="black" stroke="none" />
<path d="M369.68865055296095,609.3931487097577 L430.7070614464858,558.1697048176253" stroke="grey" stroke-width="5" />
<circle cx="430.7070614464858" cy="558.1697048176253" r="2.5" fill="grey" stroke="none" />
<path d="M430.70706144648574,558.1697048176253 A90.47223823886951,90.47223823886951,0,0,1,409.68865055296095,505.3931487097578" stroke="grey" stroke-width="5" fill="none" />
<circle cx="369.68865055296095" cy="609.3931487097577" r="5" fill="black" stroke="none" />
<circle cx="409.68865055296095" cy="505.3931487097578" r="5" fill="black" stroke="none" />
<path d="M409.68865055296095,505.3931487097578 L414.7452680695061,505.09118123388606" stroke="grey" stroke-width="5" />
<circle cx="414.7452680695061" cy="505.09118123388606" r="2.5" fill="grey" stroke="none" />
<path d="M414.7452680695061,505.09118123388606 A85.4066124073344,85.4066124073344,0,0,1,521.6886505529609,417.3931487097578" stroke="grey" stroke-width="5" fill="none" />
<circle cx="409.68865055296095" cy="505.3931487097578" r="5" fill="black" stroke="none" />
<circle cx="521.688650552961" cy="417.3931487097578" r="5" fill="black" stroke="none" />
<path d="M521.6886505529609,417.3931487097578 A85.4066124073344,85.4066124073344,0,0,1,565.3646582902458,445.02954530389934" stroke="grey" stroke-width="5" fill="none" />
<path d="M565.3646582902458,445.02954530389934 L569.688650552961,441.3931487097578" stroke="grey" stroke-width="5" />
<circle cx="565.3646582902458" cy="445.02954530389934" r="2.5" fill="grey" stroke="none" />
<circle cx="521.688650552961" cy="417.3931487097578" r="5" fill="black" stroke="none" />
<circle cx="569.688650552961" cy="441.3931487097578" r="5" fill="black" stroke="none" />
<path d="M569.688650552961,441.3931487097578 L542.1382768796657,464.56249752121664" stroke="grey" stroke-width="5" />
<circle cx="542.1382768796657" cy="464.56249752121664" r="2.5" fill="grey" stroke="none" />
<path d="M542.1382768796657,464.56249752121664 A55.058613861240126,55.058613861240126,0,0,0,521.688650552961,449.3931487097578" stroke="grey" stroke-width="5" fill="none" />
<circle cx="569.688650552961" cy="441.3931487097578" r="5" fill="black" stroke="none" />
<circle cx="521.688650552961" cy="449.3931487097578" r="5" fill="black" stroke="none" />
<path d="M521.688650552961,417.3931487097578 L513.9819037695997,446.746292830463" stroke="grey" stroke-width="5" />
<circle cx="513.9819037695997" cy="446.746292830463" r="2.5" fill="grey" stroke="none" />
<path d="M513.9819037695997,446.746292830463 A55.058613861240126,55.058613861240126,0,0,1,521.688650552961,449.3931487097578" stroke="grey" stroke-width="5" fill="none" />
<circle cx="521.688650552961" cy="417.3931487097578" r="5" fill="black" stroke="none" />
<circle cx="521.688650552961" cy="449.3931487097578" r="5" fill="black" stroke="none" />
<path d="M521.688650552961,449.3931487097578 L473.68865055296095,561.3931487097577" stroke="grey" stroke-width="5" />
<circle cx="521.688650552961" cy="449.3931487097578" r="5" fill="black" stroke="none" />
<circle cx="473.68865055296095" cy="561.3931487097577" r="5" fill="black" stroke="none" />
<path d="M409.68865055296095,505.3931487097578 L433.32502498777654,503.9816485708829" stroke="grey" stroke-width="5" />
<circle cx="433.32502498777654" cy="503.9816485708829" r="2.5" fill="grey" stroke="none" />
<path d="M433.32502498777654,503.9816485708829 A66.7937558325824,66.7937558325824,0,0,0,473.68865055296095,561.3931487097577" stroke="grey" stroke-width="5" fill="none" />
<circle cx="409.68865055296095" cy="505.3931487097578" r="5" fill="black" stroke="none" />
<circle cx="473.68865055296095" cy="561.3931487097577" r="5" fill="black" stroke="none" />
<path d="M473.68865055296095,561.3931487097577 A66.7937558325824,66.7937558325824,0,0,0,484.3801540271942,564.94171409817" stroke="grey" stroke-width="5" fill="none" />
<path d="M484.3801540271942,564.94171409817 L473.68865055296095,609.3931487097577" stroke="grey" stroke-width="5" />
<circle cx="484.3801540271942" cy="564.94171409817" r="2.5" fill="grey" stroke="none" />
<circle cx="473.68865055296095" cy="561.3931487097577" r="5" fill="black" stroke="none" />
<circle cx="473.68865055296095" cy="609.3931487097577" r="5" fill="black" stroke="none" />
<path d="M569.688650552961,441.3931487097578 A91.05641676482372,91.05641676482372,0,0,0,567.7163580039783,439.1249978010159" stroke="grey" stroke-width="5" fill="none" />
<path d="M567.7163580039783,439.1249978010159 L609.688650552961,401.3931487097578" stroke="grey" stroke-width="5" />
<circle cx="567.7163580039783" cy="439.1249978010159" r="2.5" fill="grey" stroke="none" />
<circle cx="569.688650552961" cy="441.3931487097578" r="5" fill="black" stroke="none" />
<circle cx="609.688650552961" cy="401.3931487097578" r="5" fill="black" stroke="none" />
<path d="M569.688650552961,441.3931487097578 A91.05641676482372,91.05641676482372,0,0,1,590.9609586540903,504.16833717184034" stroke="grey" stroke-width="5" fill="none" />
<path d="M590.9609586540903,504.16833717184034 L617.688650552961,505.3931487097578" stroke="grey" stroke-width="5" />
<circle cx="590.9609586540903" cy="504.16833717184034" r="2.5" fill="grey" stroke="none" />
<circle cx="569.688650552961" cy="441.3931487097578" r="5" fill="black" stroke="none" />
<circle cx="617.688650552961" cy="505.3931487097578" r="5" fill="black" stroke="none" />
<path d="M521.688650552961,449.3931487097578 A55.058613861240126,55.058613861240126,0,0,1,554.8944753375627,504.2482393688283" stroke="grey" stroke-width="5" fill="none" />
<path d="M554.8944753375627,504.2482393688283 L569.688650552961,505.3931487097578" stroke="grey" stroke-width="5" />
<circle cx="554.8944753375627" cy="504.2482393688283" r="2.5" fill="grey" stroke="none" />
<circle cx="521.688650552961" cy="449.3931487097578" r="5" fill="black" stroke="none" />
<circle cx="569.688650552961" cy="505.3931487097578" r="5" fill="black" stroke="none" />
<path d="M473.68865055296095,561.3931487097577 L474.3512968527875,559.8469740101625" stroke="grey" stroke-width="5" />
<circle cx="474.3512968527875" cy="559.8469740101625" r="2.5" fill="grey" stroke="none" />
<path d="M474.3512968527875,559.8469740101624 A65.11156787627593,65.11156787627593,0,0,0,521.6886505529609,561.3931487097577" stroke="grey" stroke-width="5" fill="none" />
<circle cx="473.68865055296095" cy="561.3931487097577" r="5" fill="black" stroke="none" />
<circle cx="521.688650552961" cy="561.3931487097577" r="5" fill="black" stroke="none" />
<path d="M473.68865055296095,609.3931487097578 A112.51287968210299,112.51287968210299,0,0,0,560.4516013662299,594.8933716685092" stroke="grey" stroke-width="5" fill="none" />
<path d="M560.4516013662299,594.8933716685092 L569.688650552961,609.3931487097577" stroke="grey" stroke-width="5" />
<circle cx="560.4516013662299" cy="594.8933716685092" r="2.5" fill="grey" stroke="none" />
<circle cx="473.68865055296095" cy="609.3931487097577" r="5" fill="black" stroke="none" />
<circle cx="569.688650552961" cy="609.3931487097577" r="5" fill="black" stroke="none" />
<path d="M473.688650552961,665.3931487097578 A167.47292542334196,167.47292542334196,0,0,0,565.0282175504032,654.3324712174003" stroke="grey" stroke-width="5" fill="none" />
<path d="M565.0282175504032,654.3324712174003 L569.688650552961,665.3931487097577" stroke="grey" stroke-width="5" />
<circle cx="565.0282175504032" cy="654.3324712174003" r="2.5" fill="grey" stroke="none" />
<circle cx="473.68865055296095" cy="665.3931487097577" r="5" fill="black" stroke="none" />
<circle cx="569.688650552961" cy="665.3931487097577" r="5" fill="black" stroke="none" />
<path d="M617.688650552961,505.3931487097578 L569.8237488824875,503.1997126267208" stroke="grey" stroke-width="5" />
<circle cx="569.8237488824875" cy="503.1997126267208" r="2.5" fill="grey" stroke="none" />
<path d="M569.8237488824875,503.1997126267208 A69.89702474997249,69.89702474997249,0,0,1,569.688650552961,505.3931487097578" stroke="grey" stroke-width="5" fill="none" />
<circle cx="617.688650552961" cy="505.3931487097578" r="5" fill="black" stroke="none" />
<circle cx="569.688650552961" cy="505.3931487097578" r="5" fill="black" stroke="none" />
<path d="M569.688650552961,505.3931487097578 L564.9174598906941,505.0239100954348" stroke="grey" stroke-width="5" />
<circle cx="564.9174598906941" cy="505.0239100954348" r="2.5" fill="grey" stroke="none" />
<path d="M564.9174598906941,505.0239100954348 A65.11156787627593,65.11156787627593,0,0,1,521.6886505529609,561.3931487097577" stroke="grey" stroke-width="5" fill="none" />
<circle cx="569.688650552961" cy="505.3931487097578" r="5" fill="black" stroke="none" />
<circle cx="521.688650552961" cy="561.3931487097577" r="5" fill="black" stroke="none" />
<path d="M521.6886505529609,561.3931487097577 A65.11156787627593,65.11156787627593,0,0,0,534.9835374999557,554.9151015231337" stroke="grey" stroke-width="5" fill="none" />
<path d="M534.9835374999557,554.9151015231337 L569.688650552961,609.3931487097577" stroke="grey" stroke-width="5" />
<circle cx="534.9835374999557" cy="554.9151015231337" r="2.5" fill="grey" stroke="none" />
<circle cx="521.688650552961" cy="561.3931487097577" r="5" fill="black" stroke="none" />
<circle cx="569.688650552961" cy="609.3931487097577" r="5" fill="black" stroke="none" />
<path d="M569.688650552961,609.3931487097577 A129.70493051741667,129.70493051741667,0,0,1,550.3632477770698,619.5278723724026" stroke="grey" stroke-width="5" fill="none" />
<path d="M550.3632477770698,619.5278723724026 L569.688650552961,665.3931487097577" stroke="grey" stroke-width="5" />
<circle cx="550.3632477770698" cy="619.5278723724026" r="2.5" fill="grey" stroke="none" />
<circle cx="569.688650552961" cy="609.3931487097577" r="5" fill="black" stroke="none" />
<circle cx="569.688650552961" cy="665.3931487097577" r="5" fill="black" stroke="none" />
<path d="M569.688650552961,665.3931487097577 A179.47535110989685,179.47535110989685,0,0,0,589.7428296813525,655.4272375640915" stroke="grey" stroke-width="5" fill="none" />
<path d="M589.7428296813525,655.4272375640915 L641.688650552961,745.3931487097577" stroke="grey" stroke-width="5" />
<circle cx="589.7428296813525" cy="655.4272375640915" r="2.5" fill="grey" stroke="none" />
<circle cx="569.688650552961" cy="665.3931487097577" r="5" fill="black" stroke="none" />
<circle cx="641.688650552961" cy="745.3931487097577" r="5" fill="black" stroke="none" />
<path d="M617.688650552961,505.3931487097578 L598.0883063416481,504.49495189470906" stroke="grey" stroke-width="5" />
<circle cx="598.0883063416481" cy="504.49495189470906" r="2.5" fill="grey" stroke="none" />
<path d="M598.0883063416481,504.49495189470906 A98.191244179452,98.191244179452,0,0,1,593.688650552961,529.3931487097577" stroke="grey" stroke-width="5" fill="none" />
<circle cx="617.688650552961" cy="505.3931487097578" r="5" fill="black" stroke="none" />
<circle cx="593.688650552961" cy="529.3931487097577" r="5" fill="black" stroke="none" />
<path d="M593.688650552961,529.3931487097577 L588.6154711023304,527.8015288375153" stroke="grey" stroke-width="5" />
<circle cx="588.6154711023304" cy="527.8015288375153" r="2.5" fill="grey" stroke="none" />
<path d="M588.6154711023304,527.8015288375153 A92.87425221443853,92.87425221443853,0,0,1,569.688650552961,561.3931487097578" stroke="grey" stroke-width="5" fill="none" />
<circle cx="593.688650552961" cy="529.3931487097577" r="5" fill="black" stroke="none" />
<circle cx="569.688650552961" cy="561.3931487097577" r="5" fill="black" stroke="none" />
<path d="M569.688650552961,561.3931487097578 A92.87425221443853,92.87425221443853,0,0,1,549.9000406701615,578.3301517010364" stroke="grey" stroke-width="5" fill="none" />
<path d="M549.9000406701615,578.3301517010364 L569.688650552961,609.3931487097577" stroke="grey" stroke-width="5" />
<circle cx="549.9000406701615" cy="578.3301517010364" r="2.5" fill="grey" stroke="none" />
<circle cx="569.688650552961" cy="561.3931487097577" r="5" fill="black" stroke="none" />
<circle cx="569.688650552961" cy="609.3931487097577" r="5" fill="black" stroke="none" />
<path d="M569.688650552961,505.3931487097578 A69.89702474997249,69.89702474997249,0,0,1,566.6918723885792,520.9233894530435" stroke="grey" stroke-width="5" fill="none" />
<path d="M566.6918723885792,520.9233894530435 L593.688650552961,529.3931487097577" stroke="grey" stroke-width="5" />
<circle cx="566.6918723885792" cy="520.9233894530435" r="2.5" fill="grey" stroke="none" />
<circle cx="569.688650552961" cy="505.3931487097578" r="5" fill="black" stroke="none" />
<circle cx="593.688650552961" cy="529.3931487097577" r="5" fill="black" stroke="none" />
<path d="M521.6886505529609,561.3931487097577 A65.11156787627593,65.11156787627593,0,0,0,548.8567842270043,543.04103746778" stroke="grey" stroke-width="5" fill="none" />
<path d="M548.8567842270043,543.04103746778 L569.688650552961,561.3931487097577" stroke="grey" stroke-width="5" />
<circle cx="548.8567842270043" cy="543.04103746778" r="2.5" fill="grey" stroke="none" />
<circle cx="521.688650552961" cy="561.3931487097577" r="5" fill="black" stroke="none" />
<circle cx="569.688650552961" cy="561.3931487097577" r="5" fill="black" stroke="none" />
<path d="M617.6886505529609,505.3931487097578 A117.81215778510517,117.81215778510517,0,0,1,604.4539771125899,554.4891841317619" stroke="grey" stroke-width="5" fill="none" />
<path d="M604.45397711259,554.4891841317619 L617.688650552961,561.3931487097577" stroke="grey" stroke-width="5" />
<circle cx="604.45397711259" cy="554.4891841317619" r="2.5" fill="grey" stroke="none" />
<circle cx="617.688650552961" cy="505.3931487097578" r="5" fill="black" stroke="none" />
<circle cx="617.688650552961" cy="561.3931487097577" r="5" fill="black" stroke="none" />
<path d="M593.688650552961,529.3931487097577 A98.191244179452,98.191244179452,0,0,1,587.0577889837607,545.414334859907" stroke="grey" stroke-width="5" fill="none" />
<path d="M587.0577889837607,545.414334859907 L617.688650552961,561.3931487097577" stroke="grey" stroke-width="5" />
<circle cx="587.0577889837607" cy="545.414334859907" r="2.5" fill="grey" stroke="none" />
<circle cx="593.688650552961" cy="529.3931487097577" r="5" fill="black" stroke="none" />
<circle cx="617.688650552961" cy="561.3931487097577" r="5" fill="black" stroke="none" />
<path d="M569.688650552961,561.3931487097578 A92.87425221443853,92.87425221443853,0,0,0,582.3436663714376,542.9551781849466" stroke="grey" stroke-width="5" fill="none" />
<path d="M582.3436663714376,542.9551781849466 L617.688650552961,561.3931487097577" stroke="grey" stroke-width="5" />
<circle cx="582.3436663714376" cy="542.9551781849466" r="2.5" fill="grey" stroke="none" />
<circle cx="569.688650552961" cy="561.3931487097577" r="5" fill="black" stroke="none" />
<circle cx="617.688650552961" cy="561.3931487097577" r="5" fill="black" stroke="none" />
<path d="M569.688650552961,609.3931487097577 A129.70493051741667,129.70493051741667,0,0,0,614.9982828458914,559.9896986408854" stroke="grey" stroke-width="5" fill="none" />
<path d="M614.9982828458914,559.9896986408854 L617.688650552961,561.3931487097577" stroke="grey" stroke-width="5" />
<circle cx="614.9982828458914" cy="559.9896986408854" r="2.5" fill="grey" stroke="none" />
<circle cx="569.688650552961" cy="609.3931487097577" r="5" fill="black" stroke="none" />
<circle cx="617.688650552961" cy="561.3931487097577" r="5" fill="black" stroke="none" />
<path d="M617.6886505529609,561.3931487097578 A132.73935805734254,132.73935805734254,0,0,1,587.8185379433455,599.5371366424039" stroke="grey" stroke-width="5" fill="none" />
<path d="M587.8185379433455,599.5371366424039 L617.688650552961,633.3931487097577" stroke="grey" stroke-width="5" />
<circle cx="587.8185379433455" cy="599.5371366424039" r="2.5" fill="grey" stroke="none" />
<circle cx="617.688650552961" cy="561.3931487097577" r="5" fill="black" stroke="none" />
<circle cx="617.688650552961" cy="633.3931487097577" r="5" fill="black" stroke="none" />
<path d="M617.6886505529609,633.3931487097578 A177.88859039207802,177.88859039207802,0,0,1,569.0725257620556,663.930890245038" stroke="grey" stroke-width="5" fill="none" />
<path d="M569.0725257620556,663.930890245038 L569.688650552961,665.3931487097577" stroke="grey" stroke-width="5" />
<circle cx="569.0725257620556" cy="663.930890245038" r="2.5" fill="grey" stroke="none" />
<circle cx="617.688650552961" cy="633.3931487097577" r="5" fill="black" stroke="none" />
<circle cx="569.688650552961" cy="665.3931487097577" r="5" fill="black" stroke="none" />
<path d="M617.6886505529609,505.3931487097578 A117.81215778510517,117.81215778510517,0,0,0,607.6439480171143,452.1200983995236" stroke="grey" stroke-width="5" fill="none" />
<path d="M607.6439480171143,452.1200983995236 L721.688650552961,401.3931487097578" stroke="grey" stroke-width="5" />
<circle cx="607.6439480171143" cy="452.1200983995236" r="2.5" fill="grey" stroke="none" />
<circle cx="617.688650552961" cy="505.3931487097578" r="5" fill="black" stroke="none" />
<circle cx="721.688650552961" cy="401.3931487097578" r="5" fill="black" stroke="none" />
<path d="M617.6886505529609,505.3931487097578 A117.81215778510517,117.81215778510517,0,0,1,616.9779955863072,513.994751537359" stroke="grey" stroke-width="5" fill="none" />
<path d="M616.9779955863072,513.994751537359 L745.688650552961,529.3931487097577" stroke="grey" stroke-width="5" />
<circle cx="616.9779955863072" cy="513.994751537359" r="2.5" fill="grey" stroke="none" />
<circle cx="617.688650552961" cy="505.3931487097578" r="5" fill="black" stroke="none" />
<circle cx="745.688650552961" cy="529.3931487097577" r="5" fill="black" stroke="none" />
<path d="M745.688650552961,529.3931487097577 A247.4406397534748,247.4406397534748,0,0,0,746.4862362143973,521.7118759776589" stroke="grey" stroke-width="5" fill="none" />
<path d="M746.4862362143973,521.7118759776589 L833.688650552961,529.3931487097577" stroke="grey" stroke-width="5" />
<circle cx="746.4862362143973" cy="521.7118759776589" r="2.5" fill="grey" stroke="none" />
<circle cx="745.688650552961" cy="529.3931487097577" r="5" fill="black" stroke="none" />
<circle cx="833.688650552961" cy="529.3931487097577" r="5" fill="black" stroke="none" />
<path d="M617.6886505529609,561.3931487097578 A132.73935805734254,132.73935805734254,0,0,1,598.159545288966,589.3556984536456" stroke="grey" stroke-width="5" fill="none" />
<path d="M598.159545288966,589.3556984536456 L681.688650552961,665.3931487097577" stroke="grey" stroke-width="5" />
<circle cx="598.159545288966" cy="589.3556984536456" r="2.5" fill="grey" stroke="none" />
<circle cx="617.688650552961" cy="561.3931487097577" r="5" fill="black" stroke="none" />
<circle cx="681.688650552961" cy="665.3931487097577" r="5" fill="black" stroke="none" />
<circle cx="500" cy="500" r="5" fill="red" stroke="none" />
</svg>