<?xml version="1.0" encoding="UTF-8"?>
<svg xmlns="http://www.w3.org/2000/svg" xmlns:xlink="http://www.w3.org/1999/xlink"
     width="1000" height="1000" viewBox="0 0 1000 1000">
<defs>
</defs>
<rect x="0" y="0" width="1000" height="1000" fill="white" />
<path d="M301.1742174480655,801.1376304253224 L370.64668630677136,695.9159917455247" stroke="grey" stroke-width="5" />
<circle cx="370.64668630677136" cy="695.9159917455247" r="2.5" fill="grey" stroke="none" />
<path d="M370.64668630677136,695.9159917455247 A234.76659810341704,234.76659810341704,0,0,0,421.17421744806563,721.1376304253224" stroke="grey" stroke-width="5" fill="none" />
<circle cx="301.1742174480655" cy="801.1376304253224" r="5" fill="black" stroke="none" />
<circle cx="421.1742174480655" cy="721.1376304253224" r="5" fill="black" stroke="none" />
<path d="M421.1742174480655,721.1376304253224 L438.5601328482316,672.36323187324" stroke="grey" stroke-width="5" />
<circle cx="438.5601328482316" cy="672.36323187324" r="2.5" fill="grey" stroke="none" />
<path d="M438.56013284823166,672.36323187324 A182.98617701185853,182.98617701185853,0,0,1,421.17421744806563,665.1376304253224" stroke="grey" stroke-width="5" fill="none" />
<circle cx="421.1742174480655" cy="721.1376304253224" r="5" fill="black" stroke="none" />
<circle cx="421.1742174480655" cy="665.1376304253224" r="5" fill="black" stroke="none" />
<path d="M421.17421744806563,665.1376304253224 A182.98617701185853,182.98617701185853,0,0,1,364.20719818110445,622.6550282360629" stroke="grey" stroke-width="5" fill="none" />
<path d="M364.20719818110445,622.6550282360629 L317.1742174480655,665.1376304253224" stroke="grey" stroke-width="5" />
<circle cx="364.20719818110445" cy="622.6550282360629" r="2.5" fill="grey" stroke="none" />
<circle cx="421.1742174480655" cy="665.1376304253224" r="5" fill="black" stroke="none" />
<circle cx="317.1742174480655" cy="665.1376304253224" r="5" fill="black" stroke="none" />
<path d="M317.1742174480655,665.1376304253224 L384.70771764395914,604.1379068578331" stroke="grey" stroke-width="5" />
<circle cx="384.70771764395914" cy="604.1379068578331" r="2.5" fill="grey" stroke="none" />
<path d="M384.7077176439591,604.1379068578331 A155.36091534100774,155.36091534100774,0,0,1,357.1742174480655,561.1376304253224" stroke="grey" stroke-width="5" fill="none" />
<circle cx="317.1742174480655" cy="665.1376304253224" r="5" fill="black" stroke="none" />
<circle cx="357.1742174480655" cy="561.1376304253224" r="5" fill="black" stroke="none" />
<path d="M357.1742174480655,561.1376304253224 L462.41114908376244,516.090185079811" stroke="grey" stroke-width="5" />
<circle cx="462.41114908376244" cy="516.090185079811" r="2.5" fill="grey" stroke="none" />
<path d="M462.41114908376244,516.090185079811 A40.88784378156557,40.88784378156557,0,0,1,469.1742174480656,473.1376304253224" stroke="grey" stroke-width="5" fill="none" />
<circle cx="357.1742174480655" cy="561.1376304253224" r="5" fill="black" stroke="none" />
<circle cx="469.1742174480655" cy="473.1376304253224" r="5" fill="black" stroke="none" />
<path d="M469.1742174480655,473.1376304253224 L486.87357471704206,488.56129973177013" stroke="grey" stroke-width="5" />
<circle cx="486.87357471704206" cy="488.56129973177013" r="2.5" fill="grey" stroke="none" />
<path d="M486.87357471704206,488.56129973177013 A17.411114396714503,17.411114396714503,0,0,1,517.1742174480655,497.1376304253224" stroke="grey" stroke-width="5" fill="none" />
<circle cx="469.1742174480655" cy="473.1376304253224" r="5" fill="black" stroke="none" />
<circle cx="517.1742174480655" cy="497.1376304253224" r="5" fill="black" stroke="none" />
<path d="M517.1742174480655,497.1376304253224 L469.1742174480655,505.1376304253224" stroke="grey" stroke-width="5" />
<circle cx="517.1742174480655" cy="497.1376304253224" r="5" fill="black" stroke="none" />
<circle cx="469.1742174480655" cy="505.1376304253224" r="5" fill="black" stroke="none" />
<path d="M469.1742174480655,473.1376304253224 L476.43954767195214,479.46882364733744" stroke="grey" stroke-width="5" />
<circle cx="476.43954767195214" cy="479.46882364733744" r="2.5" fill="grey" stroke="none" />
<path d="M476.43954767195214,479.46882364733744 A31.250985845671256,31.250985845671256,0,0,0,469.1742174480655,505.1376304253224" stroke="grey" stroke-width="5" fill="none" />
<circle cx="469.1742174480655" cy="473.1376304253224" r="5" fill="black" stroke="none" />
<circle cx="469.1742174480655" cy="505.1376304253224" r="5" fill="black" stroke="none" />
<path d="M469.1742174480655,505.1376304253224 A31.250985845671256,31.250985845671256,0,0,0,482.5527553459524,525.927162789402" stroke="grey" stroke-width="5" fill="none" />
<path d="M482.5527553459524,525.927162789402 L421.1742174480655,617.1376304253224" stroke="grey" stroke-width="5" />
<circle cx="482.5527553459524" cy="525.927162789402" r="2.5" fill="grey" stroke="none" />
<circle cx="469.1742174480655" cy="505.1376304253224" r="5" fill="black" stroke="none" />
<circle cx="421.1742174480655" cy="617.1376304253224" r="5" fill="black" stroke="none" />
<path d="M357.1742174480655,561.1376304253224 L370.2014015344771,555.561248122862" stroke="grey" stroke-width="5" />
<circle cx="370.2014015344771" cy="555.561248122862" r="2.5" fill="grey" stroke="none" />
<path d="M370.2014015344771,555.561248122862 A141.1903978908774,141.1903978908774,0,0,0,421.1742174480655,617.1376304253224" stroke="grey" stroke-width="5" fill="none" />
<circle cx="357.1742174480655" cy="561.1376304253224" r="5" fill="black" stroke="none" />
<circle cx="421.1742174480655" cy="617.1376304253224" r="5" fill="black" stroke="none" />
<path d="M421.1742174480655,617.1376304253224 A141.1903978908774,141.1903978908774,0,0,0,439.17877413305297,627.4186287032869" stroke="grey" stroke-width="5" fill="none" />
<path d="M439.1787741330529,627.4186287032869 L421.1742174480655,665.1376304253224" stroke="grey" stroke-width="5" />
<circle cx="439.1787741330529" cy="627.4186287032869" r="2.5" fill="grey" stroke="none" />
<circle cx="421.1742174480655" cy="617.1376304253224" r="5" fill="black" stroke="none" />
<circle cx="421.1742174480655" cy="665.1376304253224" r="5" fill="black" stroke="none" />
<path d="M517.1742174480655,497.1376304253224 A17.411114396714503,17.411114396714503,0,0,0,513.9310307697962,489.55618430713804" stroke="grey" stroke-width="5" fill="none" />
<path d="M513.9310307697962,489.55618430713804 L557.1742174480655,457.1376304253224" stroke="grey" stroke-width="5" />
<circle cx="513.9310307697962" cy="489.55618430713804" r="2.5" fill="grey" stroke="none" />
<circle cx="517.1742174480655" cy="497.1376304253224" r="5" fill="black" stroke="none" />
<circle cx="557.1742174480655" cy="457.1376304253224" r="5" fill="black" stroke="none" />
<path d="M517.1742174480655,497.1376304253224 A17.411114396714503,17.411114396714503,0,0,1,512.6984774084935,511.9119929500255" stroke="grey" stroke-width="5" fill="none" />
<path d="M512.6984774084935,511.9119929500255 L565.1742174480655,561.1376304253224" stroke="grey" stroke-width="5" />
<circle cx="512.6984774084935" cy="511.9119929500255" r="2.5" fill="grey" stroke="none" />
<circle cx="517.1742174480655" cy="497.1376304253224" r="5" fill="black" stroke="none" />
<circle cx="565.1742174480655" cy="561.1376304253224" r="5" fill="black" stroke="none" />
<path d="M469.1742174480655,505.1376304253224 A31.250985845671256,31.250985845671256,0,0,0,508.4516070620289,530.0864496808016" stroke="grey" stroke-width="5" fill="none" />
<path d="M508.4516070620289,530.0864496808016 L517.1742174480655,561.1376304253224" stroke="grey" stroke-width="5" />
<circle cx="508.4516070620289" cy="530.0864496808016" r="2.5" fill="grey" stroke="none" />
<circle cx="469.1742174480655" cy="505.1376304253224" r="5" fill="black" stroke="none" />
<circle cx="517.1742174480655" cy="561.1376304253224" r="5" fill="black" stroke="none" />
<path d="M421.1742174480655,617.1376304253224 L432.3761804490433,600.4911556354001" stroke="grey" stroke-width="5" />
<circle cx="432.3761804490433" cy="600.4911556354001" r="2.5" fill="grey" stroke="none" />
<path d="M432.3761804490433,600.4911556354001 A121.12577484416174,121.12577484416174,0,0,0,469.1742174480656,617.1376304253224" stroke="grey" stroke-width="5" fill="none" />
<circle cx="421.1742174480655" cy="617.1376304253224" r="5" fill="black" stroke="none" />
<circle cx="469.1742174480655" cy="617.1376304253224" r="5" fill="black" stroke="none" />
<path d="M421.1742174480655,665.1376304253224 L428.47924613661326,649.8338162574012" stroke="grey" stroke-width="5" />
<circle cx="428.47924613661326" cy="649.8338162574012" r="2.5" fill="grey" stroke="none" />
<path d="M428.4792461366133,649.8338162574012 A166.0282829142186,166.0282829142186,0,0,0,517.1742174480655,665.1376304253224" stroke="grey" stroke-width="5" fill="none" />
<circle cx="421.1742174480655" cy="665.1376304253224" r="5" fill="black" stroke="none" />
<circle cx="517.1742174480655" cy="665.1376304253224" r="5" fill="black" stroke="none" />
<path d="M421.1742174480655,721.1376304253224 L425.5267279832045,708.9271095147595" stroke="grey" stroke-width="5" />
<circle cx="425.5267279832045" cy="708.9271095147595" r="2.5" fill="grey" stroke="none" />
<path d="M425.5267279832046,708.9271095147595 A221.80352868040654,221.80352868040654,0,0,0,517.1742174480656,721.1376304253224" stroke="grey" stroke-width="5" fill="none" />
<circle cx="421.1742174480655" cy="721.1376304253224" r="5" fill="black" stroke="none" />
<circle cx="517.1742174480655" cy="721.1376304253224" r="5" fill="black" stroke="none" />
<path d="M565.1742174480655,561.1376304253224 L546.3155114124419,543.4469446748642" stroke="grey" stroke-width="5" />
<circle cx="546.3155114124419" cy="543.4469446748642" r="2.5" fill="grey" stroke="none" />
<path d="M546.3155114124419,543.4469446748642 A63.50404395766264,63.50404395766264,0,0,1,517.1742174480655,561.1376304253224" stroke="grey" stroke-width="5" fill="none" />
<circle cx="565.1742174480655" cy="561.1376304253224" r="5" fill="black" stroke="none" />
<circle cx="517.1742174480655" cy="561.1376304253224" r="5" fill="black" stroke="none" />
<path d="M517.1742174480655,561.1376304253224 A63.50404395766264,63.50404395766264,0,0,1,483.8386020421668,561.4131322684757" stroke="grey" stroke-width="5" fill="none" />
<path d="M483.8386020421668,561.4131322684757 L469.1742174480655,617.1376304253224" stroke="grey" stroke-width="5" />
<circle cx="483.8386020421668" cy="561.4131322684757" r="2.5" fill="grey" stroke="none" />
<circle cx="517.1742174480655" cy="561.1376304253224" r="5" fill="black" stroke="none" />
<circle cx="469.1742174480655" cy="617.1376304253224" r="5" fill="black" stroke="none" />
<path d="M469.1742174480656,617.1376304253224 A121.12577484416174,121.12577484416174,0,0,0,512.5294338965962,620.4760001736005" stroke="grey" stroke-width="5" fill="none" />
<path d="M512.5294338965962,620.4760001736005 L517.1742174480655,665.1376304253224" stroke="grey" stroke-width="5" />
<circle cx="512.5294338965962" cy="620.4760001736005" r="2.5" fill="grey" stroke="none" />
<circle cx="469.1742174480655" cy="617.1376304253224" r="5" fill="black" stroke="none" />
<circle cx="517.1742174480655" cy="665.1376304253224" r="5" fill="black" stroke="none" />
<path d="M517.1742174480655,665.1376304253224 A166.0282829142186,166.0282829142186,0,0,1,512.8555476563508,665.5298330268569" stroke="grey" stroke-width="5" fill="none" />
<path d="M512.8555476563508,665.5298330268569 L517.1742174480655,721.1376304253224" stroke="grey" stroke-width="5" />
<circle cx="512.8555476563508" cy="665.5298330268569" r="2.5" fill="grey" stroke="none" />
<circle cx="517.1742174480655" cy="665.1376304253224" r="5" fill="black" stroke="none" />
<circle cx="517.1742174480655" cy="721.1376304253224" r="5" fill="black" stroke="none" />
<path d="M517.1742174480656,721.1376304253224 A221.80352868040654,221.80352868040654,0,0,0,562.9781968954037,712.6747564965897" stroke="grey" stroke-width="5" fill="none" />
<path d="M562.9781968954037,712.6747564965897 L589.1742174480655,801.1376304253224" stroke="grey" stroke-width="5" />
<circle cx="562.9781968954037" cy="712.6747564965897" r="2.5" fill="grey" stroke="none" />
<circle cx="517.1742174480655" cy="721.1376304253224" r="5" fill="black" stroke="none" />
<circle cx="589.1742174480655" cy="801.1376304253224" r="5" fill="black" stroke="none" />
<path d="M565.1742174480655,561.1376304253224 A89.36156038247677,89.36156038247677,0,0,1,538.9060106758009,580.4475655771231" stroke="grey" stroke-width="5" fill="none" />
<path d="M538.9060106758009,580.4475655771231 L541.1742174480655,585.1376304253224" stroke="grey" stroke-width="5" />
<circle cx="538.9060106758009" cy="580.4475655771231" r="2.5" fill="grey" stroke="none" />
<circle cx="565.1742174480655" cy="561.1376304253224" r="5" fill="black" stroke="none" />
<circle cx="541.1742174480655" cy="585.1376304253224" r="5" fill="black" stroke="none" />
<path d="M541.1742174480655,585.1376304253224 A94.5713080003622,94.5713080003622,0,0,1,513.71897130607,593.5709470038782" stroke="grey" stroke-width="5" fill="none" />
<path d="M513.71897130607,593.5709470038782 L517.1742174480655,617.1376304253224" stroke="grey" stroke-width="5" />
<circle cx="513.71897130607" cy="593.5709470038782" r="2.5" fill="grey" stroke="none" />
<circle cx="541.1742174480655" cy="585.1376304253224" r="5" fill="black" stroke="none" />
<circle cx="517.1742174480655" cy="617.1376304253224" r="5" fill="black" stroke="none" />
<path d="M517.1742174480655,617.1376304253224 A118.38994132363128,118.38994132363128,0,0,1,512.2464351269975,617.7548429292532" stroke="grey" stroke-width="5" fill="none" />
<path d="M512.2464351269975,617.7548429292532 L517.1742174480655,665.1376304253224" stroke="grey" stroke-width="5" />
<circle cx="512.2464351269975" cy="617.7548429292532" r="2.5" fill="grey" stroke="none" />
<circle cx="517.1742174480655" cy="617.1376304253224" r="5" fill="black" stroke="none" />
<circle cx="517.1742174480655" cy="665.1376304253224" r="5" fill="black" stroke="none" />
<path d="M517.1742174480655,561.1376304253224 A63.50404395766264,63.50404395766264,0,0,0,527.6482304203121,557.1693882563219" stroke="grey" stroke-width="5" fill="none" />
<path d="M527.6482304203121,557.1693882563219 L541.1742174480655,585.1376304253224" stroke="grey" stroke-width="5" />
<circle cx="527.6482304203121" cy="557.1693882563219" r="2.5" fill="grey" stroke="none" />
<circle cx="517.1742174480655" cy="561.1376304253224" r="5" fill="black" stroke="none" />
<circle cx="541.1742174480655" cy="585.1376304253224" r="5" fill="black" stroke="none" />
<path d="M469.1742174480655,617.1376304253224 L469.87047065520227,614.4918759915909" stroke="grey" stroke-width="5" />
<circle cx="469.87047065520227" cy="614.4918759915909" r="2.5" fill="grey" stroke="none" />
<path d="M469.87047065520227,614.4918759915909 A118.38994132363128,118.38994132363128,0,0,0,517.1742174480655,617.1376304253224" stroke="grey" stroke-width="5" fill="none" />
<circle cx="469.1742174480655" cy="617.1376304253224" r="5" fill="black" stroke="none" />
<circle cx="517.1742174480655" cy="617.1376304253224" r="5" fill="black" stroke="none" />
<path d="M565.1742174480655,561.1376304253224 A89.36156038247677,89.36156038247677,0,0,1,543.4475994247734,578.0883767164837" stroke="grey" stroke-width="5" fill="none" />
<path d="M543.4475994247734,578.0883767164837 L565.1742174480655,617.1376304253224" stroke="grey" stroke-width="5" />
<circle cx="543.4475994247734" cy="578.0883767164837" r="2.5" fill="grey" stroke="none" />
<circle cx="565.1742174480655" cy="561.1376304253224" r="5" fill="black" stroke="none" />
<circle cx="565.1742174480655" cy="617.1376304253224" r="5" fill="black" stroke="none" />
<path d="M541.1742174480655,585.1376304253224 A94.5713080003622,94.5713080003622,0,0,0,545.9805792276915,582.6409016818268" stroke="grey" stroke-width="5" fill="none" />
<path d="M545.9805792276915,582.6409016818268 L565.1742174480655,617.1376304253224" stroke="grey" stroke-width="5" />
<circle cx="545.9805792276915" cy="582.6409016818268" r="2.5" fill="grey" stroke="none" />
<circle cx="541.1742174480655" cy="585.1376304253224" r="5" fill="black" stroke="none" />
<circle cx="565.1742174480655" cy="617.1376304253224" r="5" fill="black" stroke="none" />
<path d="M517.1742174480655,617.1376304253224 A118.38994132363128,118.38994132363128,0,0,0,557.5612010861912,603.4547550194186" stroke="grey" stroke-width="5" fill="none" />
<path d="M557.5612010861912,603.4547550194186 L565.1742174480655,617.1376304253224" stroke="grey" stroke-width="5" />
<circle cx="557.5612010861912" cy="603.4547550194186" r="2.5" fill="grey" stroke="none" />
<circle cx="517.1742174480655" cy="617.1376304253224" r="5" fill="black" stroke="none" />
<circle cx="565.1742174480655" cy="617.1376304253224" r="5" fill="black" stroke="none" />
<path d="M517.1742174480655,665.1376304253224 L513.8661426598,633.3290409826952" stroke="grey" stroke-width="5" />
<circle cx="513.8661426598" cy="633.3290409826952" r="2.5" fill="grey" stroke="none" />
<path d="M513.8661426598001,633.3290409826952 A134.04813718074246,134.04813718074246,0,0,0,565.1742174480655,617.1376304253224" stroke="grey" stroke-width="5" fill="none" />
<circle cx="517.1742174480655" cy="665.1376304253224" r="5" fill="black" stroke="none" />
<circle cx="565.1742174480655" cy="617.1376304253224" r="5" fill="black" stroke="none" />
<path d="M565.1742174480655,617.1376304253224 A134.04813718074246,134.04813718074246,0,0,1,543.671101837966,626.7349121035129" stroke="grey" stroke-width="5" fill="none" />
<path d="M543.671101837966,626.7349121035129 L565.1742174480655,689.1376304253224" stroke="grey" stroke-width="5" />
<circle cx="543.671101837966" cy="626.7349121035129" r="2.5" fill="grey" stroke="none" />
<circle cx="565.1742174480655" cy="617.1376304253224" r="5" fill="black" stroke="none" />
<circle cx="565.1742174480655" cy="689.1376304253224" r="5" fill="black" stroke="none" />
<path d="M565.1742174480655,689.1376304253224 A200.05179794961498,200.05179794961498,0,0,1,515.4899838578027,699.4512027112361" stroke="grey" stroke-width="5" fill="none" />
<path d="M515.4899838578026,699.4512027112361 L517.1742174480655,721.1376304253224" stroke="grey" stroke-width="5" />
<circle cx="515.4899838578026" cy="699.4512027112361" r="2.5" fill="grey" stroke="none" />
<circle cx="565.1742174480655" cy="689.1376304253224" r="5" fill="black" stroke="none" />
<circle cx="517.1742174480655" cy="721.1376304253224" r="5" fill="black" stroke="none" />
<path d="M565.1742174480655,561.1376304253224 A89.36156038247677,89.36156038247677,0,0,0,586.62448294738,478.0526213845453" stroke="grey" stroke-width="5" fill="none" />
<path d="M586.62448294738,478.0526213845453 L669.1742174480655,457.1376304253224" stroke="grey" stroke-width="5" />
<circle cx="586.62448294738" cy="478.0526213845453" r="2.5" fill="grey" stroke="none" />
<circle cx="565.1742174480655" cy="561.1376304253224" r="5" fill="black" stroke="none" />
<circle cx="669.1742174480655" cy="457.1376304253224" r="5" fill="black" stroke="none" />
<path d="M565.1742174480655,561.1376304253224 A89.36156038247677,89.36156038247677,0,0,0,581.7719658903884,536.0393405657235" stroke="grey" stroke-width="5" fill="none" />
<path d="M581.7719658903884,536.0393405657235 L693.1742174480655,585.1376304253224" stroke="grey" stroke-width="5" />
<circle cx="581.7719658903884" cy="536.0393405657235" r="2.5" fill="grey" stroke="none" />
<circle cx="565.1742174480655" cy="561.1376304253224" r="5" fill="black" stroke="none" />
<circle cx="693.1742174480655" cy="585.1376304253224" r="5" fill="black" stroke="none" />
<path d="M693.1742174480655,585.1376304253224 A211.10351584261048,211.10351584261048,0,0,0,702.0445097319637,561.1776960033777" stroke="grey" stroke-width="5" fill="none" />
<path d="M702.0445097319637,561.1776960033777 L781.1742174480655,585.1376304253224" stroke="grey" stroke-width="5" />
<circle cx="702.0445097319637" cy="561.1776960033777" r="2.5" fill="grey" stroke="none" />
<circle cx="693.1742174480655" cy="585.1376304253224" r="5" fill="black" stroke="none" />
<circle cx="781.1742174480655" cy="585.1376304253224" r="5" fill="black" stroke="none" />
<path d="M565.1742174480655,617.1376304253224 A134.04813718074246,134.04813718074246,0,0,0,567.612188102254,615.7475490092665" stroke="grey" stroke-width="5" fill="none" />
<path d="M567.612188102254,615.7475490092665 L629.1742174480655,721.1376304253224" stroke="grey" stroke-width="5" />
<circle cx="567.612188102254" cy="615.7475490092665" r="2.5" fill="grey" stroke="none" />
<circle cx="565.1742174480655" cy="617.1376304253224" r="5" fill="black" stroke="none" />
<circle cx="629.1742174480655" cy="721.1376304253224" r="5" fill="black" stroke="none" />
<circle cx="500" cy="500" r="5" fill="red" stroke="none" />
</svg>