<?xml version="1.0" encoding="UTF-8"?>
<svg xmlns="http://www.w3.org/2000/svg" xmlns:xlink="http://www.w3.org/1999/xlink"
     width="1000" height="1000" viewBox="0 0 1000 1000">
<defs>
</defs>
<rect x="0" y="0" width="1000" height="1000" fill="white" />
<path d="M345.91744667245916,763.525957764262 L405.7817133516141,661.1406592876451" stroke="grey" stroke-width="5" />
<circle cx="405.7817133516141" cy="661.1406592876451" r="2.5" fill="grey" stroke="none" />
<path d="M405.7817133516141,661.1406592876451 A186.66386263713267,186.66386263713267,0,0,0,465.9174466724592,683.525957764262" stroke="grey" stroke-width="5" fill="none" />
<circle cx="345.91744667245916" cy="763.525957764262" r="5" fill="black" stroke="none" />
<circle cx="465.91744667245916" cy="683.525957764262" r="5" fill="black" stroke="none" />
<path d="M465.91744667245916,683.525957764262 L475.89806468666995,629.7828457815941" stroke="grey" stroke-width="5" />
<circle cx="475.89806468666995" cy="629.7828457815941" r="2.5" fill="grey" stroke="none" />
<path d="M475.89806468666995,629.7828457815941 A132.0018573544213,132.0018573544213,0,0,1,465.91744667245916,627.525957764262" stroke="grey" stroke-width="5" fill="none" />
<circle cx="465.91744667245916" cy="683.525957764262" r="5" fill="black" stroke="none" />
<circle cx="465.91744667245916" cy="627.525957764262" r="5" fill="black" stroke="none" />
<path d="M465.91744667245916,627.525957764262 A132.0018573544213,132.0018573544213,0,0,1,403.0273836037749,589.5589303994167" stroke="grey" stroke-width="5" fill="none" />
<path d="M403.0273836037749,589.5589303994167 L361.91744667245916,627.525957764262" stroke="grey" stroke-width="5" />
<circle cx="403.0273836037749" cy="589.5589303994167" r="2.5" fill="grey" stroke="none" />
<circle cx="465.91744667245916" cy="627.525957764262" r="5" fill="black" stroke="none" />
<circle cx="361.91744667245916" cy="627.525957764262" r="5" fill="black" stroke="none" />
<path d="M361.91744667245916,627.525957764262 L425.90180353540666,568.4332904124174" stroke="grey" stroke-width="5" />
<circle cx="425.90180353540666" cy="568.4332904124174" r="2.5" fill="grey" stroke="none" />
<path d="M425.90180353540666,568.4332904124174 A100.8645525245402,100.8645525245402,0,0,1,401.91744667245916,523.525957764262" stroke="grey" stroke-width="5" fill="none" />
<circle cx="361.91744667245916" cy="627.525957764262" r="5" fill="black" stroke="none" />
<circle cx="401.91744667245916" cy="523.525957764262" r="5" fill="black" stroke="none" />
<path d="M401.91744667245916,523.525957764262 L435.8601932496911,515.3844933010323" stroke="grey" stroke-width="5" />
<circle cx="435.8601932496911" cy="515.3844933010323" r="2.5" fill="grey" stroke="none" />
<path d="M435.8601932496911,515.3844933010322 A65.95905884786772,65.95905884786772,0,0,1,513.9174466724592,435.525957764262" stroke="grey" stroke-width="5" fill="none" />
<circle cx="401.91744667245916" cy="523.525957764262" r="5" fill="black" stroke="none" />
<circle cx="513.9174466724592" cy="435.525957764262" r="5" fill="black" stroke="none" />
<path d="M513.9174466724592,435.525957764262 A65.95905884786772,65.95905884786772,0,0,1,555.2099923375289,463.9104697982022" stroke="grey" stroke-width="5" fill="none" />
<path d="M555.2099923375289,463.9104697982022 L561.9174466724592,459.525957764262" stroke="grey" stroke-width="5" />
<circle cx="555.2099923375289" cy="463.9104697982022" r="2.5" fill="grey" stroke="none" />
<circle cx="513.9174466724592" cy="435.525957764262" r="5" fill="black" stroke="none" />
<circle cx="561.9174466724592" cy="459.525957764262" r="5" fill="black" stroke="none" />
<path d="M561.9174466724592,459.525957764262 L529.573010987431,480.6687878769455" stroke="grey" stroke-width="5" />
<circle cx="529.573010987431" cy="480.6687878769455" r="2.5" fill="grey" stroke="none" />
<path d="M529.573010987431,480.6687878769455 A35.33070535680321,35.33070535680321,0,0,0,513.9174466724592,467.52595776426193" stroke="grey" stroke-width="5" fill="none" />
<circle cx="561.9174466724592" cy="459.525957764262" r="5" fill="black" stroke="none" />
<circle cx="513.9174466724592" cy="467.525957764262" r="5" fill="black" stroke="none" />
<path d="M513.9174466724592,435.525957764262 L507.4548244970838,465.4647378361345" stroke="grey" stroke-width="5" />
<circle cx="507.4548244970838" cy="465.4647378361345" r="2.5" fill="grey" stroke="none" />
<path d="M507.4548244970838,465.4647378361345 A35.33070535680321,35.33070535680321,0,0,1,513.9174466724592,467.52595776426193" stroke="grey" stroke-width="5" fill="none" />
<circle cx="513.9174466724592" cy="435.525957764262" r="5" fill="black" stroke="none" />
<circle cx="513.9174466724592" cy="467.525957764262" r="5" fill="black" stroke="none" />
<path d="M513.9174466724592,467.525957764262 L465.91744667245916,579.525957764262" stroke="grey" stroke-width="5" />
<circle cx="513.9174466724592" cy="467.525957764262" r="5" fill="black" stroke="none" />
<circle cx="465.91744667245916" cy="579.525957764262" r="5" fill="black" stroke="none" />
<path d="M401.91744667245916,523.525957764262 L415.8647359858302,520.1805785079067" stroke="grey" stroke-width="5" />
<circle cx="415.8647359858302" cy="520.1805785079067" r="2.5" fill="grey" stroke="none" />
<path d="M415.8647359858302,520.1805785079067 A86.52166433701933,86.52166433701933,0,0,0,465.91744667245916,579.525957764262" stroke="grey" stroke-width="5" fill="none" />
<circle cx="401.91744667245916" cy="523.525957764262" r="5" fill="black" stroke="none" />
<circle cx="465.91744667245916" cy="579.525957764262" r="5" fill="black" stroke="none" />
<path d="M465.91744667245916,579.525957764262 A86.52166433701933,86.52166433701933,0,0,0,477.66032010567557,583.5879004513629" stroke="grey" stroke-width="5" fill="none" />
<path d="M477.66032010567557,583.5879004513629 L465.91744667245916,627.525957764262" stroke="grey" stroke-width="5" />
<circle cx="477.66032010567557" cy="583.5879004513629" r="2.5" fill="grey" stroke="none" />
<circle cx="465.91744667245916" cy="579.525957764262" r="5" fill="black" stroke="none" />
<circle cx="465.91744667245916" cy="627.525957764262" r="5" fill="black" stroke="none" />
<path d="M561.9174466724592,459.525957764262 A73.97241578681293,73.97241578681293,0,0,0,558.0561002149196,454.1588882642192" stroke="grey" stroke-width="5" fill="none" />
<path d="M558.0561002149196,454.1588882642192 L601.9174466724592,419.525957764262" stroke="grey" stroke-width="5" />
<circle cx="558.0561002149196" cy="454.1588882642192" r="2.5" fill="grey" stroke="none" />
<circle cx="561.9174466724592" cy="459.525957764262" r="5" fill="black" stroke="none" />
<circle cx="601.9174466724592" cy="419.525957764262" r="5" fill="black" stroke="none" />
<path d="M561.9174466724592,459.525957764262 A73.97241578681293,73.97241578681293,0,0,1,572.3341501820777,515.4818931262868" stroke="grey" stroke-width="5" fill="none" />
<path d="M572.3341501820777,515.4818931262868 L609.9174466724592,523.525957764262" stroke="grey" stroke-width="5" />
<circle cx="572.3341501820777" cy="515.4818931262868" r="2.5" fill="grey" stroke="none" />
<circle cx="561.9174466724592" cy="459.525957764262" r="5" fill="black" stroke="none" />
<circle cx="609.9174466724592" cy="523.525957764262" r="5" fill="black" stroke="none" />
<path d="M513.9174466724592,467.52595776426193 A35.33070535680321,35.33070535680321,0,0,1,533.0270364884516,512.5488486244647" stroke="grey" stroke-width="5" fill="none" />
<path d="M533.0270364884516,512.5488486244647 L561.9174466724592,523.525957764262" stroke="grey" stroke-width="5" />
<circle cx="533.0270364884516" cy="512.5488486244647" r="2.5" fill="grey" stroke="none" />
<circle cx="513.9174466724592" cy="467.525957764262" r="5" fill="black" stroke="none" />
<circle cx="561.9174466724592" cy="523.525957764262" r="5" fill="black" stroke="none" />
<path d="M465.91744667245916,579.525957764262 L468.19708874694686,574.2067929237907" stroke="grey" stroke-width="5" />
<circle cx="468.19708874694686" cy="574.2067929237907" r="2.5" fill="grey" stroke="none" />
<path d="M468.19708874694686,574.2067929237907 A80.73458540305958,80.73458540305958,0,0,0,513.9174466724592,579.525957764262" stroke="grey" stroke-width="5" fill="none" />
<circle cx="465.91744667245916" cy="579.525957764262" r="5" fill="black" stroke="none" />
<circle cx="513.9174466724592" cy="579.525957764262" r="5" fill="black" stroke="none" />
<path d="M465.91744667245916,627.525957764262 A132.0018573544213,132.0018573544213,0,0,0,557.6542534916243,618.7454310672226" stroke="grey" stroke-width="5" fill="none" />
<path d="M557.6542534916243,618.7454310672226 L561.9174466724592,627.525957764262" stroke="grey" stroke-width="5" />
<circle cx="557.6542534916243" cy="618.7454310672226" r="2.5" fill="grey" stroke="none" />
<circle cx="465.91744667245916" cy="627.525957764262" r="5" fill="black" stroke="none" />
<circle cx="561.9174466724592" cy="627.525957764262" r="5" fill="black" stroke="none" />
<path d="M465.9174466724592,683.525957764262 A186.66386263713267,186.66386263713267,0,0,0,559.6715945819574,676.8691561993239" stroke="grey" stroke-width="5" fill="none" />
<path d="M559.6715945819575,676.8691561993239 L561.9174466724592,683.525957764262" stroke="grey" stroke-width="5" />
<circle cx="559.6715945819575" cy="676.8691561993239" r="2.5" fill="grey" stroke="none" />
<circle cx="465.91744667245916" cy="683.525957764262" r="5" fill="black" stroke="none" />
<circle cx="561.9174466724592" cy="683.525957764262" r="5" fill="black" stroke="none" />
<path d="M609.9174466724592,523.525957764262 L564.7693176724786,513.8627695430682" stroke="grey" stroke-width="5" />
<circle cx="564.7693176724786" cy="513.8627695430682" r="2.5" fill="grey" stroke="none" />
<path d="M564.7693176724786,513.8627695430682 A66.23625058200881,66.23625058200881,0,0,1,561.9174466724592,523.525957764262" stroke="grey" stroke-width="5" fill="none" />
<circle cx="609.9174466724592" cy="523.525957764262" r="5" fill="black" stroke="none" />
<circle cx="561.9174466724592" cy="523.525957764262" r="5" fill="black" stroke="none" />
<path d="M561.9174466724592,523.525957764262 A66.23625058200881,66.23625058200881,0,0,1,511.41814850050395,565.2446685636696" stroke="grey" stroke-width="5" fill="none" />
<path d="M511.41814850050395,565.2446685636696 L513.9174466724592,579.525957764262" stroke="grey" stroke-width="5" />
<circle cx="511.41814850050395" cy="565.2446685636696" r="2.5" fill="grey" stroke="none" />
<circle cx="561.9174466724592" cy="523.525957764262" r="5" fill="black" stroke="none" />
<circle cx="513.9174466724592" cy="579.525957764262" r="5" fill="black" stroke="none" />
<path d="M513.9174466724592,579.525957764262 A80.73458540305958,80.73458540305958,0,0,0,535.262323922242,572.6267291829034" stroke="grey" stroke-width="5" fill="none" />
<path d="M535.262323922242,572.6267291829034 L561.9174466724592,627.525957764262" stroke="grey" stroke-width="5" />
<circle cx="535.262323922242" cy="572.6267291829034" r="2.5" fill="grey" stroke="none" />
<circle cx="513.9174466724592" cy="579.525957764262" r="5" fill="black" stroke="none" />
<circle cx="561.9174466724592" cy="627.525957764262" r="5" fill="black" stroke="none" />
<path d="M561.9174466724592,627.525957764262 A141.7626188602946,141.7626188602946,0,0,1,545.3178317431071,634.3239897867562" stroke="grey" stroke-width="5" fill="none" />
<path d="M545.3178317431073,634.3239897867562 L561.9174466724592,683.525957764262" stroke="grey" stroke-width="5" />
<circle cx="545.3178317431073" cy="634.3239897867562" r="2.5" fill="grey" stroke="none" />
<circle cx="561.9174466724592" cy="627.525957764262" r="5" fill="black" stroke="none" />
<circle cx="561.9174466724592" cy="683.525957764262" r="5" fill="black" stroke="none" />
<path d="M561.9174466724592,683.525957764262 A193.68930630193938,193.68930630193938,0,0,0,587.7480044689122,672.6726240243377" stroke="grey" stroke-width="5" fill="none" />
<path d="M587.7480044689122,672.6726240243377 L633.9174466724592,763.525957764262" stroke="grey" stroke-width="5" />
<circle cx="587.7480044689122" cy="672.6726240243377" r="2.5" fill="grey" stroke="none" />
<circle cx="561.9174466724592" cy="683.525957764262" r="5" fill="black" stroke="none" />
<circle cx="633.9174466724592" cy="763.525957764262" r="5" fill="black" stroke="none" />
<path d="M609.9174466724592,523.525957764262 L596.0116444853302,520.5496575968515" stroke="grey" stroke-width="5" />
<circle cx="596.0116444853302" cy="520.5496575968515" r="2.5" fill="grey" stroke="none" />
<path d="M596.0116444853302,520.5496575968515 A98.18617165428783,98.18617165428783,0,0,1,585.9174466724592,547.525957764262" stroke="grey" stroke-width="5" fill="none" />
<circle cx="609.9174466724592" cy="523.525957764262" r="5" fill="black" stroke="none" />
<circle cx="585.9174466724592" cy="547.525957764262" r="5" fill="black" stroke="none" />
<path d="M585.9174466724592,547.525957764262 A98.18617165428783,98.18617165428783,0,0,1,560.3192724030038,577.473283658933" stroke="grey" stroke-width="5" fill="none" />
<path d="M560.3192724030038,577.473283658933 L561.9174466724592,579.525957764262" stroke="grey" stroke-width="5" />
<circle cx="560.3192724030038" cy="577.473283658933" r="2.5" fill="grey" stroke="none" />
<circle cx="585.9174466724592" cy="547.525957764262" r="5" fill="black" stroke="none" />
<circle cx="561.9174466724592" cy="579.525957764262" r="5" fill="black" stroke="none" />
<path d="M561.9174466724592,579.525957764262 A100.78763892839241,100.78763892839241,0,0,1,544.0208660700728,590.6659335759617" stroke="grey" stroke-width="5" fill="none" />
<path d="M544.0208660700728,590.6659335759617 L561.9174466724592,627.525957764262" stroke="grey" stroke-width="5" />
<circle cx="544.0208660700728" cy="590.6659335759617" r="2.5" fill="grey" stroke="none" />
<circle cx="561.9174466724592" cy="579.525957764262" r="5" fill="black" stroke="none" />
<circle cx="561.9174466724592" cy="627.525957764262" r="5" fill="black" stroke="none" />
<path d="M561.9174466724592,523.525957764262 A66.23625058200881,66.23625058200881,0,0,1,557.9597863047435,532.0609429473172" stroke="grey" stroke-width="5" fill="none" />
<path d="M557.9597863047435,532.0609429473172 L585.9174466724592,547.525957764262" stroke="grey" stroke-width="5" />
<circle cx="557.9597863047435" cy="532.0609429473172" r="2.5" fill="grey" stroke="none" />
<circle cx="561.9174466724592" cy="523.525957764262" r="5" fill="black" stroke="none" />
<circle cx="585.9174466724592" cy="547.525957764262" r="5" fill="black" stroke="none" />
<path d="M513.9174466724592,579.525957764262 A80.73458540305958,80.73458540305958,0,0,0,549.5981396078605,563.703201078463" stroke="grey" stroke-width="5" fill="none" />
<path d="M549.5981396078605,563.703201078463 L561.9174466724592,579.525957764262" stroke="grey" stroke-width="5" />
<circle cx="549.5981396078605" cy="563.703201078463" r="2.5" fill="grey" stroke="none" />
<circle cx="513.9174466724592" cy="579.525957764262" r="5" fill="black" stroke="none" />
<circle cx="561.9174466724592" cy="579.525957764262" r="5" fill="black" stroke="none" />
<path d="M609.9174466724592,523.525957764262 A112.4069204796517,112.4069204796517,0,0,1,591.07042035621,565.8900167541483" stroke="grey" stroke-width="5" fill="none" />
<path d="M591.07042035621,565.8900167541483 L609.9174466724592,579.525957764262" stroke="grey" stroke-width="5" />
<circle cx="591.07042035621" cy="565.8900167541483" r="2.5" fill="grey" stroke="none" />
<circle cx="609.9174466724592" cy="523.525957764262" r="5" fill="black" stroke="none" />
<circle cx="609.9174466724592" cy="579.525957764262" r="5" fill="black" stroke="none" />
<path d="M585.9174466724592,547.525957764262 A98.18617165428783,98.18617165428783,0,0,1,579.5489805037553,557.5541832097236" stroke="grey" stroke-width="5" fill="none" />
<path d="M579.5489805037553,557.5541832097236 L609.9174466724592,579.525957764262" stroke="grey" stroke-width="5" />
<circle cx="579.5489805037553" cy="557.5541832097236" r="2.5" fill="grey" stroke="none" />
<circle cx="585.9174466724592" cy="547.525957764262" r="5" fill="black" stroke="none" />
<circle cx="609.9174466724592" cy="579.525957764262" r="5" fill="black" stroke="none" />
<path d="M561.9174466724592,579.525957764262 A100.78763892839241,100.78763892839241,0,0,0,581.6566507182285,559.0790957466447" stroke="grey" stroke-width="5" fill="none" />
<path d="M581.6566507182285,559.0790957466447 L609.9174466724592,579.525957764262" stroke="grey" stroke-width="5" />
<circle cx="581.6566507182285" cy="559.0790957466447" r="2.5" fill="grey" stroke="none" />
<circle cx="561.9174466724592" cy="579.525957764262" r="5" fill="black" stroke="none" />
<circle cx="609.9174466724592" cy="579.525957764262" r="5" fill="black" stroke="none" />
<path d="M561.9174466724592,627.525957764262 L559.2561800682886,622.0447793436108" stroke="grey" stroke-width="5" />
<circle cx="559.2561800682886" cy="622.0447793436108" r="2.5" fill="grey" stroke="none" />
<path d="M559.2561800682886,622.0447793436108 A135.66953615796024,135.66953615796024,0,0,0,609.9174466724592,579.525957764262" stroke="grey" stroke-width="5" fill="none" />
<circle cx="561.9174466724592" cy="627.525957764262" r="5" fill="black" stroke="none" />
<circle cx="609.9174466724592" cy="579.525957764262" r="5" fill="black" stroke="none" />
<path d="M609.9174466724592,579.525957764262 A135.66953615796024,135.66953615796024,0,0,1,579.6626539658847,609.81841650847" stroke="grey" stroke-width="5" fill="none" />
<path d="M579.6626539658847,609.81841650847 L609.9174466724592,651.525957764262" stroke="grey" stroke-width="5" />
<circle cx="579.6626539658847" cy="609.81841650847" r="2.5" fill="grey" stroke="none" />
<circle cx="609.9174466724592" cy="579.525957764262" r="5" fill="black" stroke="none" />
<circle cx="609.9174466724592" cy="651.525957764262" r="5" fill="black" stroke="none" />
<path d="M609.9174466724592,651.525957764262 A187.19498112761946,187.19498112761946,0,0,1,559.8413793854623,677.3724056120765" stroke="grey" stroke-width="5" fill="none" />
<path d="M559.8413793854623,677.3724056120765 L561.9174466724592,683.525957764262" stroke="grey" stroke-width="5" />
<circle cx="559.8413793854623" cy="677.3724056120765" r="2.5" fill="grey" stroke="none" />
<circle cx="609.9174466724592" cy="651.525957764262" r="5" fill="black" stroke="none" />
<circle cx="561.9174466724592" cy="683.525957764262" r="5" fill="black" stroke="none" />
<path d="M609.9174466724592,523.525957764262 A112.4069204796517,112.4069204796517,0,0,0,605.2085900972921,460.42136508848876" stroke="grey" stroke-width="5" fill="none" />
<path d="M605.2085900972921,460.42136508848876 L713.9174466724592,419.525957764262" stroke="grey" stroke-width="5" />
<circle cx="605.2085900972921" cy="460.42136508848876" r="2.5" fill="grey" stroke="none" />
<circle cx="609.9174466724592" cy="523.525957764262" r="5" fill="black" stroke="none" />
<circle cx="713.9174466724592" cy="419.525957764262" r="5" fill="black" stroke="none" />
<path d="M609.9174466724592,523.525957764262 A112.4069204796517,112.4069204796517,0,0,0,610.2291769922725,522.0191805325495" stroke="grey" stroke-width="5" fill="none" />
<path d="M610.2291769922725,522.0191805325495 L737.9174466724592,547.525957764262" stroke="grey" stroke-width="5" />
<circle cx="610.2291769922725" cy="522.0191805325495" r="2.5" fill="grey" stroke="none" />
<circle cx="609.9174466724592" cy="523.525957764262" r="5" fill="black" stroke="none" />
<circle cx="737.9174466724592" cy="547.525957764262" r="5" fill="black" stroke="none" />
<path d="M737.9174466724592,547.525957764262 A242.61786433103575,242.61786433103575,0,0,0,740.078764560557,535.0087831783612" stroke="grey" stroke-width="5" fill="none" />
<path d="M740.078764560557,535.0087831783612 L825.9174466724592,547.525957764262" stroke="grey" stroke-width="5" />
<circle cx="740.078764560557" cy="535.0087831783612" r="2.5" fill="grey" stroke="none" />
<circle cx="737.9174466724592" cy="547.525957764262" r="5" fill="black" stroke="none" />
<circle cx="825.9174466724592" cy="547.525957764262" r="5" fill="black" stroke="none" />
<path d="M609.9174466724592,579.525957764262 A135.66953615796024,135.66953615796024,0,0,1,593.3203474648541,598.4760670942691" stroke="grey" stroke-width="5" fill="none" />
<path d="M593.3203474648541,598.4760670942691 L673.9174466724592,683.525957764262" stroke="grey" stroke-width="5" />
<circle cx="593.3203474648541" cy="598.4760670942691" r="2.5" fill="grey" stroke="none" />
<circle cx="609.9174466724592" cy="579.525957764262" r="5" fill="black" stroke="none" />
<circle cx="673.9174466724592" cy="683.525957764262" r="5" fill="black" stroke="none" />
<circle cx="500" cy="500" r="5" fill="red" stroke="none" />
</svg>