<?xml version="1.0" encoding="UTF-8"?>
<svg xmlns="http://www.w3.org/2000/svg" xmlns:xlink="http://www.w3.org/1999/xlink"
     width="1000" height="1000" viewBox="0 0 1000 1000">
<defs>
</defs>
<rect x="0" y="0" width="1000" height="1000" fill="white" />
<path d="M348.8316481276473,756.7261543688229 L408.9449620758428,654.636929176255" stroke="grey" stroke-width="5" />
<circle cx="408.9449620758428" cy="654.636929176255" r="2.5" fill="grey" stroke="none" />
<path d="M408.9449620758428,654.636929176255 A179.45361460954697,179.45361460954697,0,0,0,468.8316481276473,676.7261543688229" stroke="grey" stroke-width="5" fill="none" />
<circle cx="348.8316481276473" cy="756.7261543688229" r="5" fill="black" stroke="none" />
<circle cx="468.8316481276473" cy="676.7261543688229" r="5" fill="black" stroke="none" />
<path d="M468.8316481276473,676.7261543688229 L478.34417477280846,622.7896402016595" stroke="grey" stroke-width="5" />
<circle cx="478.34417477280846" cy="622.7896402016595" r="2.5" fill="grey" stroke="none" />
<path d="M478.34417477280846,622.7896402016595 A124.6846843326142,124.6846843326142,0,0,1,468.8316481276473,620.7261543688229" stroke="grey" stroke-width="5" fill="none" />
<circle cx="468.8316481276473" cy="676.7261543688229" r="5" fill="black" stroke="none" />
<circle cx="468.8316481276473" cy="620.7261543688229" r="5" fill="black" stroke="none" />
<path d="M468.8316481276473,620.7261543688229 A124.6846843326142,124.6846843326142,0,0,1,407.0067141668793,583.05732536678" stroke="grey" stroke-width="5" fill="none" />
<path d="M407.0067141668793,583.05732536678 L364.8316481276473,620.7261543688229" stroke="grey" stroke-width="5" />
<circle cx="407.0067141668793" cy="583.05732536678" r="2.5" fill="grey" stroke="none" />
<circle cx="468.8316481276473" cy="620.7261543688229" r="5" fill="black" stroke="none" />
<circle cx="364.8316481276473" cy="620.7261543688229" r="5" fill="black" stroke="none" />
<path d="M364.8316481276473,620.7261543688229 L427.93290218913967,564.36701679579" stroke="grey" stroke-width="5" />
<circle cx="427.93290218913967" cy="564.36701679579" r="2.5" fill="grey" stroke="none" />
<path d="M427.93290218913967,564.36701679579 A96.6270119483658,96.6270119483658,0,0,1,404.8316481276473,516.7261543688229" stroke="grey" stroke-width="5" fill="none" />
<circle cx="364.8316481276473" cy="620.7261543688229" r="5" fill="black" stroke="none" />
<circle cx="404.8316481276473" cy="516.7261543688229" r="5" fill="black" stroke="none" />
<path d="M404.8316481276473,516.7261543688229 L427.8712103382934,512.676874681367" stroke="grey" stroke-width="5" />
<circle cx="427.8712103382934" cy="512.676874681367" r="2.5" fill="grey" stroke="none" />
<path d="M427.8712103382934,512.676874681367 A73.2343187976088,73.2343187976088,0,0,1,516.8316481276473,428.7261543688229" stroke="grey" stroke-width="5" fill="none" />
<circle cx="404.8316481276473" cy="516.7261543688229" r="5" fill="black" stroke="none" />
<circle cx="516.8316481276473" cy="428.7261543688229" r="5" fill="black" stroke="none" />
<path d="M516.8316481276473,428.7261543688229 A73.2343187976088,73.2343187976088,0,0,1,559.1735469758744,456.8519202276186" stroke="grey" stroke-width="5" fill="none" />
<path d="M559.1735469758744,456.85192022761856 L564.8316481276473,452.7261543688229" stroke="grey" stroke-width="5" />
<circle cx="559.1735469758744" cy="456.85192022761856" r="2.5" fill="grey" stroke="none" />
<circle cx="516.8316481276473" cy="428.7261543688229" r="5" fill="black" stroke="none" />
<circle cx="564.8316481276473" cy="452.7261543688229" r="5" fill="black" stroke="none" />
<path d="M564.8316481276473,452.7261543688229 L534.5248930401435,474.8251893766584" stroke="grey" stroke-width="5" />
<circle cx="534.5248930401435" cy="474.8251893766584" r="2.5" fill="grey" stroke="none" />
<path d="M534.5248930401435,474.8251893766584 A42.72867104596704,42.72867104596704,0,0,0,516.8316481276473,460.7261543688229" stroke="grey" stroke-width="5" fill="none" />
<circle cx="564.8316481276473" cy="452.7261543688229" r="5" fill="black" stroke="none" />
<circle cx="516.8316481276473" cy="460.7261543688229" r="5" fill="black" stroke="none" />
<path d="M516.8316481276473,428.7261543688229 L509.820449863066,458.41516990726706" stroke="grey" stroke-width="5" />
<circle cx="509.820449863066" cy="458.41516990726706" r="2.5" fill="grey" stroke="none" />
<path d="M509.820449863066,458.41516990726706 A42.72867104596704,42.72867104596704,0,0,1,516.8316481276473,460.7261543688229" stroke="grey" stroke-width="5" fill="none" />
<circle cx="516.8316481276473" cy="428.7261543688229" r="5" fill="black" stroke="none" />
<circle cx="516.8316481276473" cy="460.7261543688229" r="5" fill="black" stroke="none" />
<path d="M516.8316481276473,460.7261543688229 L468.8316481276473,572.7261543688229" stroke="grey" stroke-width="5" />
<circle cx="516.8316481276473" cy="460.7261543688229" r="5" fill="black" stroke="none" />
<circle cx="468.8316481276473" cy="572.7261543688229" r="5" fill="black" stroke="none" />
<path d="M404.8316481276473,516.7261543688229 L422.070735268261,513.6963274671419" stroke="grey" stroke-width="5" />
<circle cx="422.070735268261" cy="513.6963274671419" r="2.5" fill="grey" stroke="none" />
<path d="M422.070735268261,513.6963274671419 A79.12369864785549,79.12369864785549,0,0,0,468.8316481276473,572.7261543688229" stroke="grey" stroke-width="5" fill="none" />
<circle cx="404.8316481276473" cy="516.7261543688229" r="5" fill="black" stroke="none" />
<circle cx="468.8316481276473" cy="572.7261543688229" r="5" fill="black" stroke="none" />
<path d="M468.8316481276473,572.7261543688229 A79.12369864785549,79.12369864785549,0,0,0,480.2208643820316,576.6116536952615" stroke="grey" stroke-width="5" fill="none" />
<path d="M480.2208643820316,576.6116536952615 L468.8316481276473,620.7261543688229" stroke="grey" stroke-width="5" />
<circle cx="480.2208643820316" cy="576.6116536952615" r="2.5" fill="grey" stroke="none" />
<circle cx="468.8316481276473" cy="572.7261543688229" r="5" fill="black" stroke="none" />
<circle cx="468.8316481276473" cy="620.7261543688229" r="5" fill="black" stroke="none" />
<path d="M564.8316481276473,452.7261543688229 A80.23689350733514,80.23689350733514,0,0,0,561.6645206181919,448.6634050930914" stroke="grey" stroke-width="5" fill="none" />
<path d="M561.6645206181919,448.6634050930914 L604.8316481276473,412.7261543688229" stroke="grey" stroke-width="5" />
<circle cx="561.6645206181919" cy="448.6634050930914" r="2.5" fill="grey" stroke="none" />
<circle cx="564.8316481276473" cy="452.7261543688229" r="5" fill="black" stroke="none" />
<circle cx="604.8316481276473" cy="412.7261543688229" r="5" fill="black" stroke="none" />
<path d="M564.8316481276473,452.7261543688229 A80.23689350733514,80.23689350733514,0,0,1,579.369556638715,511.7657366399746" stroke="grey" stroke-width="5" fill="none" />
<path d="M579.369556638715,511.7657366399746 L612.8316481276473,516.7261543688229" stroke="grey" stroke-width="5" />
<circle cx="579.369556638715" cy="511.7657366399746" r="2.5" fill="grey" stroke="none" />
<circle cx="564.8316481276473" cy="452.7261543688229" r="5" fill="black" stroke="none" />
<circle cx="612.8316481276473" cy="516.7261543688229" r="5" fill="black" stroke="none" />
<path d="M516.8316481276473,460.7261543688229 A42.72867104596704,42.72867104596704,0,0,1,541.3739124293149,510.6742072139266" stroke="grey" stroke-width="5" fill="none" />
<path d="M541.3739124293149,510.6742072139266 L564.8316481276473,516.7261543688229" stroke="grey" stroke-width="5" />
<circle cx="541.3739124293149" cy="510.6742072139266" r="2.5" fill="grey" stroke="none" />
<circle cx="516.8316481276473" cy="460.7261543688229" r="5" fill="black" stroke="none" />
<circle cx="564.8316481276473" cy="516.7261543688229" r="5" fill="black" stroke="none" />
<path d="M468.8316481276473,572.7261543688229 L470.59451693994015,568.6127938068064" stroke="grey" stroke-width="5" />
<circle cx="470.59451693994015" cy="568.6127938068064" r="2.5" fill="grey" stroke="none" />
<path d="M470.59451693994015,568.6127938068064 A74.64849568458023,74.64849568458023,0,0,0,516.8316481276473,572.7261543688229" stroke="grey" stroke-width="5" fill="none" />
<circle cx="468.8316481276473" cy="572.7261543688229" r="5" fill="black" stroke="none" />
<circle cx="516.8316481276473" cy="572.7261543688229" r="5" fill="black" stroke="none" />
<path d="M468.8316481276473,620.7261543688229 A124.6846843326142,124.6846843326142,0,0,0,558.9896906216519,609.8475621371974" stroke="grey" stroke-width="5" fill="none" />
<path d="M558.9896906216519,609.8475621371974 L564.8316481276473,620.7261543688229" stroke="grey" stroke-width="5" />
<circle cx="558.9896906216519" cy="609.8475621371974" r="2.5" fill="grey" stroke="none" />
<circle cx="468.8316481276473" cy="620.7261543688229" r="5" fill="black" stroke="none" />
<circle cx="564.8316481276473" cy="620.7261543688229" r="5" fill="black" stroke="none" />
<path d="M468.8316481276473,676.7261543688229 A179.45361460954697,179.45361460954697,0,0,0,561.8046798830785,668.4748685738678" stroke="grey" stroke-width="5" fill="none" />
<path d="M561.8046798830785,668.4748685738678 L564.8316481276473,676.7261543688229" stroke="grey" stroke-width="5" />
<circle cx="561.8046798830785" cy="668.4748685738678" r="2.5" fill="grey" stroke="none" />
<circle cx="468.8316481276473" cy="676.7261543688229" r="5" fill="black" stroke="none" />
<circle cx="564.8316481276473" cy="676.7261543688229" r="5" fill="black" stroke="none" />
<path d="M612.8316481276473,516.7261543688229 L566.2307549056853,509.8180417365075" stroke="grey" stroke-width="5" />
<circle cx="566.2307549056853" cy="509.8180417365075" r="2.5" fill="grey" stroke="none" />
<path d="M566.2307549056853,509.8180417365075 A66.95451320797405,66.95451320797405,0,0,1,564.8316481276473,516.7261543688229" stroke="grey" stroke-width="5" fill="none" />
<circle cx="612.8316481276473" cy="516.7261543688229" r="5" fill="black" stroke="none" />
<circle cx="564.8316481276473" cy="516.7261543688229" r="5" fill="black" stroke="none" />
<path d="M564.8316481276473,516.7261543688229 A66.95451320797405,66.95451320797405,0,0,1,515.0968187173706,565.230306633739" stroke="grey" stroke-width="5" fill="none" />
<path d="M515.0968187173706,565.230306633739 L516.8316481276473,572.7261543688229" stroke="grey" stroke-width="5" />
<circle cx="515.0968187173706" cy="565.230306633739" r="2.5" fill="grey" stroke="none" />
<circle cx="564.8316481276473" cy="516.7261543688229" r="5" fill="black" stroke="none" />
<circle cx="516.8316481276473" cy="572.7261543688229" r="5" fill="black" stroke="none" />
<path d="M516.8316481276473,572.7261543688229 A74.64849568458023,74.64849568458023,0,0,0,535.3170214078432,565.765537379761" stroke="grey" stroke-width="5" fill="none" />
<path d="M535.3170214078432,565.765537379761 L564.8316481276473,620.7261543688229" stroke="grey" stroke-width="5" />
<circle cx="535.3170214078432" cy="565.765537379761" r="2.5" fill="grey" stroke="none" />
<circle cx="516.8316481276473" cy="572.7261543688229" r="5" fill="black" stroke="none" />
<circle cx="564.8316481276473" cy="620.7261543688229" r="5" fill="black" stroke="none" />
<path d="M564.8316481276473,620.7261543688229 A137.03264920314405,137.03264920314405,0,0,1,547.1946972812881,628.6491643818937" stroke="grey" stroke-width="5" fill="none" />
<path d="M547.1946972812881,628.6491643818937 L564.8316481276473,676.7261543688229" stroke="grey" stroke-width="5" />
<circle cx="547.1946972812881" cy="628.6491643818937" r="2.5" fill="grey" stroke="none" />
<circle cx="564.8316481276473" cy="620.7261543688229" r="5" fill="black" stroke="none" />
<circle cx="564.8316481276473" cy="676.7261543688229" r="5" fill="black" stroke="none" />
<path d="M564.8316481276473,676.7261543688229 A188.24259942143834,188.24259942143834,0,0,0,588.539929753437,666.1203090419607" stroke="grey" stroke-width="5" fill="none" />
<path d="M588.539929753437,666.1203090419607 L636.8316481276473,756.7261543688229" stroke="grey" stroke-width="5" />
<circle cx="588.539929753437" cy="666.1203090419607" r="2.5" fill="grey" stroke="none" />
<circle cx="564.8316481276473" cy="676.7261543688229" r="5" fill="black" stroke="none" />
<circle cx="636.8316481276473" cy="756.7261543688229" r="5" fill="black" stroke="none" />
<path d="M612.8316481276473,516.7261543688229 L596.6661203612726,514.3297778436126" stroke="grey" stroke-width="5" />
<circle cx="596.6661203612726" cy="514.3297778436126" r="2.5" fill="grey" stroke="none" />
<path d="M596.6661203612726,514.3297778436126 A97.72247110438491,97.72247110438491,0,0,1,588.8316481276473,540.7261543688229" stroke="grey" stroke-width="5" fill="none" />
<circle cx="612.8316481276473" cy="516.7261543688229" r="5" fill="black" stroke="none" />
<circle cx="588.8316481276473" cy="540.7261543688229" r="5" fill="black" stroke="none" />
<path d="M588.8316481276473,540.7261543688229 L588.5640658089617,540.6034773832345" stroke="grey" stroke-width="5" />
<circle cx="588.5640658089617" cy="540.6034773832345" r="2.5" fill="grey" stroke="none" />
<path d="M588.5640658089617,540.6034773832345 A97.42810748559646,97.42810748559646,0,0,1,564.8316481276473,572.7261543688229" stroke="grey" stroke-width="5" fill="none" />
<circle cx="588.8316481276473" cy="540.7261543688229" r="5" fill="black" stroke="none" />
<circle cx="564.8316481276473" cy="572.7261543688229" r="5" fill="black" stroke="none" />
<path d="M564.8316481276473,572.7261543688229 A97.42810748559646,97.42810748559646,0,0,1,546.0943054007881,585.8344402780365" stroke="grey" stroke-width="5" fill="none" />
<path d="M546.0943054007881,585.8344402780365 L564.8316481276473,620.7261543688229" stroke="grey" stroke-width="5" />
<circle cx="546.0943054007881" cy="585.8344402780365" r="2.5" fill="grey" stroke="none" />
<circle cx="564.8316481276473" cy="572.7261543688229" r="5" fill="black" stroke="none" />
<circle cx="564.8316481276473" cy="620.7261543688229" r="5" fill="black" stroke="none" />
<path d="M564.8316481276473,516.7261543688229 A66.95451320797405,66.95451320797405,0,0,1,560.8629692908142,527.90350888369" stroke="grey" stroke-width="5" fill="none" />
<path d="M560.8629692908142,527.90350888369 L588.8316481276473,540.7261543688229" stroke="grey" stroke-width="5" />
<circle cx="560.8629692908142" cy="527.90350888369" r="2.5" fill="grey" stroke="none" />
<circle cx="564.8316481276473" cy="516.7261543688229" r="5" fill="black" stroke="none" />
<circle cx="588.8316481276473" cy="540.7261543688229" r="5" fill="black" stroke="none" />
<path d="M516.8316481276473,572.7261543688229 A74.64849568458023,74.64849568458023,0,0,0,549.6733964189582,555.7220925322786" stroke="grey" stroke-width="5" fill="none" />
<path d="M549.6733964189582,555.7220925322786 L564.8316481276473,572.7261543688229" stroke="grey" stroke-width="5" />
<circle cx="549.6733964189582" cy="555.7220925322786" r="2.5" fill="grey" stroke="none" />
<circle cx="516.8316481276473" cy="572.7261543688229" r="5" fill="black" stroke="none" />
<circle cx="564.8316481276473" cy="572.7261543688229" r="5" fill="black" stroke="none" />
<path d="M612.8316481276473,516.7261543688229 A114.06465297878619,114.06465297878619,0,0,1,595.8746355837402,561.7964344509935" stroke="grey" stroke-width="5" fill="none" />
<path d="M595.8746355837402,561.7964344509935 L612.8316481276473,572.7261543688229" stroke="grey" stroke-width="5" />
<circle cx="595.8746355837402" cy="561.7964344509935" r="2.5" fill="grey" stroke="none" />
<circle cx="612.8316481276473" cy="516.7261543688229" r="5" fill="black" stroke="none" />
<circle cx="612.8316481276473" cy="572.7261543688229" r="5" fill="black" stroke="none" />
<path d="M588.8316481276473,540.7261543688229 A97.72247110438491,97.72247110438491,0,0,1,582.1385596747307,552.9427839587988" stroke="grey" stroke-width="5" fill="none" />
<path d="M582.1385596747307,552.9427839587988 L612.8316481276473,572.7261543688229" stroke="grey" stroke-width="5" />
<circle cx="582.1385596747307" cy="552.9427839587988" r="2.5" fill="grey" stroke="none" />
<circle cx="588.8316481276473" cy="540.7261543688229" r="5" fill="black" stroke="none" />
<circle cx="612.8316481276473" cy="572.7261543688229" r="5" fill="black" stroke="none" />
<path d="M564.8316481276473,572.7261543688229 A97.42810748559646,97.42810748559646,0,0,0,581.8911385504522,552.7833075425895" stroke="grey" stroke-width="5" fill="none" />
<path d="M581.8911385504522,552.7833075425895 L612.8316481276473,572.7261543688229" stroke="grey" stroke-width="5" />
<circle cx="581.8911385504522" cy="552.7833075425895" r="2.5" fill="grey" stroke="none" />
<circle cx="564.8316481276473" cy="572.7261543688229" r="5" fill="black" stroke="none" />
<circle cx="612.8316481276473" cy="572.7261543688229" r="5" fill="black" stroke="none" />
<path d="M564.8316481276473,620.7261543688229 L563.5098807970027,618.2648273563598" stroke="grey" stroke-width="5" />
<circle cx="563.5098807970027" cy="618.2648273563598" r="2.5" fill="grey" stroke="none" />
<path d="M563.5098807970026,618.2648273563599 A134.2388704827297,134.2388704827297,0,0,0,612.8316481276473,572.7261543688229" stroke="grey" stroke-width="5" fill="none" />
<circle cx="564.8316481276473" cy="620.7261543688229" r="5" fill="black" stroke="none" />
<circle cx="612.8316481276473" cy="572.7261543688229" r="5" fill="black" stroke="none" />
<path d="M612.8316481276473,572.7261543688229 A134.2388704827297,134.2388704827297,0,0,1,582.536270381074,605.8670790192178" stroke="grey" stroke-width="5" fill="none" />
<path d="M582.536270381074,605.8670790192178 L612.8316481276473,644.7261543688229" stroke="grey" stroke-width="5" />
<circle cx="582.536270381074" cy="605.8670790192178" r="2.5" fill="grey" stroke="none" />
<circle cx="612.8316481276473" cy="572.7261543688229" r="5" fill="black" stroke="none" />
<circle cx="612.8316481276473" cy="644.7261543688229" r="5" fill="black" stroke="none" />
<path d="M612.8316481276473,644.7261543688229 A183.5119630367175,183.5119630367175,0,0,1,563.2023944175057,672.2849323576604" stroke="grey" stroke-width="5" fill="none" />
<path d="M563.2023944175057,672.2849323576604 L564.8316481276473,676.7261543688229" stroke="grey" stroke-width="5" />
<circle cx="563.2023944175057" cy="672.2849323576604" r="2.5" fill="grey" stroke="none" />
<circle cx="612.8316481276473" cy="644.7261543688229" r="5" fill="black" stroke="none" />
<circle cx="564.8316481276473" cy="676.7261543688229" r="5" fill="black" stroke="none" />
<path d="M612.8316481276473,516.7261543688229 A114.06465297878619,114.06465297878619,0,0,0,605.8150571726496,457.40987515022033" stroke="grey" stroke-width="5" fill="none" />
<path d="M605.8150571726496,457.40987515022033 L716.8316481276473,412.7261543688229" stroke="grey" stroke-width="5" />
<circle cx="605.8150571726496" cy="457.40987515022033" r="2.5" fill="grey" stroke="none" />
<circle cx="612.8316481276473" cy="516.7261543688229" r="5" fill="black" stroke="none" />
<circle cx="716.8316481276473" cy="412.7261543688229" r="5" fill="black" stroke="none" />
<path d="M612.8316481276473,516.7261543688229 A114.06465297878619,114.06465297878619,0,0,1,612.4678693713046,519.0190277945557" stroke="grey" stroke-width="5" fill="none" />
<path d="M612.4678693713046,519.0190277945557 L740.8316481276473,540.7261543688229" stroke="grey" stroke-width="5" />
<circle cx="612.4678693713046" cy="519.0190277945557" r="2.5" fill="grey" stroke="none" />
<circle cx="612.8316481276473" cy="516.7261543688229" r="5" fill="black" stroke="none" />
<circle cx="740.8316481276473" cy="540.7261543688229" r="5" fill="black" stroke="none" />
<path d="M740.8316481276473,540.7261543688229 A244.25090048872312,244.25090048872312,0,0,0,742.398886379991,530.0213635814948" stroke="grey" stroke-width="5" fill="none" />
<path d="M742.398886379991,530.0213635814948 L828.8316481276473,540.7261543688229" stroke="grey" stroke-width="5" />
<circle cx="742.398886379991" cy="530.0213635814948" r="2.5" fill="grey" stroke="none" />
<circle cx="740.8316481276473" cy="540.7261543688229" r="5" fill="black" stroke="none" />
<circle cx="828.8316481276473" cy="540.7261543688229" r="5" fill="black" stroke="none" />
<path d="M612.8316481276473,572.7261543688229 A134.2388704827297,134.2388704827297,0,0,1,594.9495337631458,594.8928890204124" stroke="grey" stroke-width="5" fill="none" />
<path d="M594.9495337631458,594.8928890204124 L676.8316481276473,676.7261543688229" stroke="grey" stroke-width="5" />
<circle cx="594.9495337631458" cy="594.8928890204124" r="2.5" fill="grey" stroke="none" />
<circle cx="612.8316481276473" cy="572.7261543688229" r="5" fill="black" stroke="none" />
<circle cx="676.8316481276473" cy="676.7261543688229" r="5" fill="black" stroke="none" />
<circle cx="500" cy="500" r="5" fill="red" stroke="none" />
</svg>