<?xml version="1.0" encoding="UTF-8"?>
<svg xmlns="http://www.w3.org/2000/svg" xmlns:xlink="http://www.w3.org/1999/xlink"
     width="1000" height="1000" viewBox="0 0 1000 1000">
<defs>
</defs>
<rect x="0" y="0" width="1000" height="1000" fill="white" />
<path d="M359.5170534633373,731.7935419188798 L420.6112641365404,630.9895380750094" stroke="grey" stroke-width="5" />
<circle cx="420.6112641365404" cy="630.9895380750094" r="2.5" fill="grey" stroke="none" />
<path d="M420.61126413654034,630.9895380750094 A153.16928695760936,153.16928695760936,0,0,0,479.5170534633373,651.7935419188798" stroke="grey" stroke-width="5" fill="none" />
<circle cx="359.5170534633373" cy="731.7935419188798" r="5" fill="black" stroke="none" />
<circle cx="479.5170534633373" cy="651.7935419188798" r="5" fill="black" stroke="none" />
<path d="M479.5170534633373,651.7935419188798 L486.9001954987842,597.0790857714362" stroke="grey" stroke-width="5" />
<circle cx="486.9001954987842" cy="597.0790857714362" r="2.5" fill="grey" stroke="none" />
<path d="M486.9001954987842,597.0790857714362 A97.95893921530568,97.95893921530568,0,0,1,479.5170534633373,595.7935419188798" stroke="grey" stroke-width="5" fill="none" />
<circle cx="479.5170534633373" cy="651.7935419188798" r="5" fill="black" stroke="none" />
<circle cx="479.5170534633373" cy="595.7935419188798" r="5" fill="black" stroke="none" />
<path d="M479.5170534633373,595.7935419188798 A97.95893921530568,97.95893921530568,0,0,1,422.3666770160172,559.7412833361701" stroke="grey" stroke-width="5" fill="none" />
<path d="M422.3666770160172,559.7412833361701 L-124.48294653666272,95.79354191887973" stroke="grey" stroke-width="5" />
<circle cx="422.3666770160172" cy="559.7412833361701" r="2.5" fill="grey" stroke="none" />
<circle cx="479.5170534633373" cy="595.7935419188798" r="5" fill="black" stroke="none" />
<circle cx="375.5170534633373" cy="595.7935419188798" r="5" fill="black" stroke="none" />
<path d="M375.5170534633373,595.7935419188798 L432.73138570376454,551.7653140666422" stroke="grey" stroke-width="5" />
<circle cx="432.73138570376454" cy="551.7653140666422" r="2.5" fill="grey" stroke="none" />
<path d="M432.73138570376454,551.7653140666422 A84.88058794420428,84.88058794420428,0,0,1,415.5170534633373,491.79354191887967" stroke="grey" stroke-width="5" fill="none" />
<circle cx="375.5170534633373" cy="595.7935419188798" r="5" fill="black" stroke="none" />
<circle cx="415.5170534633373" cy="491.7935419188797" r="5" fill="black" stroke="none" />
<path d="M415.5170534633373,491.79354191887967 A84.88058794420428,84.88058794420428,0,0,1,523.3416203194273,418.3918939650141" stroke="grey" stroke-width="5" fill="none" />
<path d="M523.3416203194273,418.3918939650141 L27.517053463337277,-96.20645808112027" stroke="grey" stroke-width="5" />
<circle cx="523.3416203194273" cy="418.3918939650141" r="2.5" fill="grey" stroke="none" />
<circle cx="415.5170534633373" cy="491.7935419188797" r="5" fill="black" stroke="none" />
<circle cx="527.5170534633373" cy="403.7935419188797" r="5" fill="black" stroke="none" />
<path d="M527.5170534633373,403.7935419188797 A100.06433334519606,100.06433334519606,0,0,1,572.3237080840868,430.8468940915427" stroke="grey" stroke-width="5" fill="none" />
<path d="M572.3237080840868,430.8468940915427 L75.51705346333728,-72.20645808112027" stroke="grey" stroke-width="5" />
<circle cx="572.3237080840868" cy="430.8468940915427" r="2.5" fill="grey" stroke="none" />
<circle cx="527.5170534633373" cy="403.7935419188797" r="5" fill="black" stroke="none" />
<circle cx="575.5170534633373" cy="427.7935419188797" r="5" fill="black" stroke="none" />
<path d="M575.5170534633373,427.7935419188797 L550.4889161738035,451.7244696122201" stroke="grey" stroke-width="5" />
<circle cx="550.4889161738035" cy="451.7244696122201" r="2.5" fill="grey" stroke="none" />
<path d="M550.4889161738035,451.7244696122201 A69.85454523956774,69.85454523956774,0,0,0,527.5170534633373,435.7935419188797" stroke="grey" stroke-width="5" fill="none" />
<circle cx="575.5170534633373" cy="427.7935419188797" r="5" fill="black" stroke="none" />
<circle cx="527.5170534633373" cy="435.7935419188797" r="5" fill="black" stroke="none" />
<path d="M527.5170534633373,403.7935419188797 L519.209554411193,432.8386233765996" stroke="grey" stroke-width="5" />
<circle cx="519.209554411193" cy="432.8386233765996" r="2.5" fill="grey" stroke="none" />
<path d="M519.209554411193,432.8386233765996 A69.85454523956774,69.85454523956774,0,0,1,527.5170534633373,435.7935419188797" stroke="grey" stroke-width="5" fill="none" />
<circle cx="527.5170534633373" cy="403.7935419188797" r="5" fill="black" stroke="none" />
<circle cx="527.5170534633373" cy="435.7935419188797" r="5" fill="black" stroke="none" />
<path d="M527.5170534633373,435.7935419188797 L479.5170534633373,547.7935419188798" stroke="grey" stroke-width="5" />
<circle cx="527.5170534633373" cy="435.7935419188797" r="5" fill="black" stroke="none" />
<circle cx="479.5170534633373" cy="547.7935419188798" r="5" fill="black" stroke="none" />
<path d="M415.5170534633373,491.7935419188797 L448.245770560882,494.97272607284725" stroke="grey" stroke-width="5" />
<circle cx="448.245770560882" cy="494.97272607284725" r="2.5" fill="grey" stroke="none" />
<path d="M448.245770560882,494.97272607284725 A51.99782445425478,51.99782445425478,0,0,0,479.5170534633373,547.7935419188798" stroke="grey" stroke-width="5" fill="none" />
<circle cx="415.5170534633373" cy="491.7935419188797" r="5" fill="black" stroke="none" />
<circle cx="479.5170534633373" cy="547.7935419188798" r="5" fill="black" stroke="none" />
<path d="M479.5170534633373,547.7935419188798 A51.99782445425478,51.99782445425478,0,0,0,489.12739698029657,550.8484046116635" stroke="grey" stroke-width="5" fill="none" />
<path d="M489.1273969802966,550.8484046116635 L-20.482946536662723,95.79354191887973" stroke="grey" stroke-width="5" />
<circle cx="489.1273969802966" cy="550.8484046116635" r="2.5" fill="grey" stroke="none" />
<circle cx="479.5170534633373" cy="547.7935419188798" r="5" fill="black" stroke="none" />
<circle cx="479.5170534633373" cy="595.7935419188798" r="5" fill="black" stroke="none" />
<path d="M575.5170534633373,427.7935419188797 A104.48252462687299,104.48252462687299,0,0,0,574.9464381577053,427.201446718507" stroke="grey" stroke-width="5" fill="none" />
<path d="M574.9464381577053,427.201446718507 L115.51705346333728,-112.20645808112027" stroke="grey" stroke-width="5" />
<circle cx="574.9464381577053" cy="427.201446718507" r="2.5" fill="grey" stroke="none" />
<circle cx="575.5170534633373" cy="427.7935419188797" r="5" fill="black" stroke="none" />
<circle cx="615.5170534633373" cy="387.7935419188797" r="5" fill="black" stroke="none" />
<path d="M575.5170534633373,427.7935419188797 A104.48252462687299,104.48252462687299,0,0,1,604.2526789114063,493.0734646322753" stroke="grey" stroke-width="5" fill="none" />
<path d="M604.2526789114063,493.0734646322753 L123.51705346333728,-8.206458081120275" stroke="grey" stroke-width="5" />
<circle cx="604.2526789114063" cy="493.0734646322753" r="2.5" fill="grey" stroke="none" />
<circle cx="575.5170534633373" cy="427.7935419188797" r="5" fill="black" stroke="none" />
<circle cx="623.5170534633373" cy="491.7935419188797" r="5" fill="black" stroke="none" />
<path d="M527.5170534633373,435.7935419188797 A69.85454523956774,69.85454523956774,0,0,1,569.4456987572395,492.4533176331877" stroke="grey" stroke-width="5" fill="none" />
<path d="M569.4456987572395,492.4533176331877 L75.51705346333728,-8.206458081120275" stroke="grey" stroke-width="5" />
<circle cx="569.4456987572395" cy="492.4533176331877" r="2.5" fill="grey" stroke="none" />
<circle cx="527.5170534633373" cy="435.7935419188797" r="5" fill="black" stroke="none" />
<circle cx="575.5170534633373" cy="491.7935419188797" r="5" fill="black" stroke="none" />
<path d="M479.5170534633373,547.7935419188798 A51.99782445425478,51.99782445425478,0,0,0,525.9447537781077,545.0626619205841" stroke="grey" stroke-width="5" fill="none" />
<path d="M525.9447537781077,545.0626619205841 L27.517053463337277,47.793541918879725" stroke="grey" stroke-width="5" />
<circle cx="525.9447537781077" cy="545.0626619205841" r="2.5" fill="grey" stroke="none" />
<circle cx="479.5170534633373" cy="547.7935419188798" r="5" fill="black" stroke="none" />
<circle cx="527.5170534633373" cy="547.7935419188798" r="5" fill="black" stroke="none" />
<path d="M479.5170534633373,595.7935419188798 A97.95893921530568,97.95893921530568,0,0,0,560.6455459310642,576.9290031841771" stroke="grey" stroke-width="5" fill="none" />
<path d="M560.6455459310642,576.9290031841771 L75.51705346333728,95.79354191887973" stroke="grey" stroke-width="5" />
<circle cx="560.6455459310642" cy="576.9290031841771" r="2.5" fill="grey" stroke="none" />
<circle cx="479.5170534633373" cy="595.7935419188798" r="5" fill="black" stroke="none" />
<circle cx="575.5170534633373" cy="595.7935419188798" r="5" fill="black" stroke="none" />
<path d="M479.5170534633373,651.7935419188798 A153.16928695760936,153.16928695760936,0,0,0,568.2248097938175,637.1357203492216" stroke="grey" stroke-width="5" fill="none" />
<path d="M568.2248097938175,637.1357203492216 L75.51705346333728,151.79354191887973" stroke="grey" stroke-width="5" />
<circle cx="568.2248097938175" cy="637.1357203492216" r="2.5" fill="grey" stroke="none" />
<circle cx="479.5170534633373" cy="651.7935419188798" r="5" fill="black" stroke="none" />
<circle cx="575.5170534633373" cy="651.7935419188798" r="5" fill="black" stroke="none" />
<path d="M623.5170534633373,491.7935419188797 L575.7945396280389,494.9642199615785" stroke="grey" stroke-width="5" />
<circle cx="575.7945396280389" cy="494.9642199615785" r="2.5" fill="grey" stroke="none" />
<path d="M575.7945396280389,494.9642199615785 A75.96164372906713,75.96164372906713,0,0,0,575.5170534633373,491.7935419188797" stroke="grey" stroke-width="5" fill="none" />
<circle cx="623.5170534633373" cy="491.7935419188797" r="5" fill="black" stroke="none" />
<circle cx="575.5170534633373" cy="491.7935419188797" r="5" fill="black" stroke="none" />
<path d="M575.5170534633373,491.7935419188797 L554.8262106093292,494.0420212590714" stroke="grey" stroke-width="5" />
<circle cx="554.8262106093292" cy="494.0420212590714" r="2.5" fill="grey" stroke="none" />
<path d="M554.8262106093292,494.0420212590714 A55.14898802748674,55.14898802748674,0,0,1,527.5170534633373,547.7935419188798" stroke="grey" stroke-width="5" fill="none" />
<circle cx="575.5170534633373" cy="491.7935419188797" r="5" fill="black" stroke="none" />
<circle cx="527.5170534633373" cy="547.7935419188798" r="5" fill="black" stroke="none" />
<path d="M527.5170534633373,547.7935419188798 A55.14898802748674,55.14898802748674,0,0,0,534.1422693351307,543.3095408091943" stroke="grey" stroke-width="5" fill="none" />
<path d="M534.1422693351307,543.3095408091943 L75.51705346333728,95.79354191887973" stroke="grey" stroke-width="5" />
<circle cx="534.1422693351307" cy="543.3095408091943" r="2.5" fill="grey" stroke="none" />
<circle cx="527.5170534633373" cy="547.7935419188798" r="5" fill="black" stroke="none" />
<circle cx="575.5170534633373" cy="595.7935419188798" r="5" fill="black" stroke="none" />
<path d="M575.5170534633372,595.7935419188798 A121.98044120738663,121.98044120738663,0,0,1,554.3326443913204,609.2116833978629" stroke="grey" stroke-width="5" fill="none" />
<path d="M554.3326443913204,609.2116833978629 L75.51705346333728,151.79354191887973" stroke="grey" stroke-width="5" />
<circle cx="554.3326443913204" cy="609.2116833978629" r="2.5" fill="grey" stroke="none" />
<circle cx="575.5170534633373" cy="595.7935419188798" r="5" fill="black" stroke="none" />
<circle cx="575.5170534633373" cy="651.7935419188798" r="5" fill="black" stroke="none" />
<path d="M575.5170534633373,651.7935419188798 A169.54086449013772,169.54086449013772,0,0,0,591.0276371992228,643.0317237468315" stroke="grey" stroke-width="5" fill="none" />
<path d="M591.0276371992228,643.0317237468314 L147.51705346333728,231.79354191887973" stroke="grey" stroke-width="5" />
<circle cx="591.0276371992228" cy="643.0317237468314" r="2.5" fill="grey" stroke="none" />
<circle cx="575.5170534633373" cy="651.7935419188798" r="5" fill="black" stroke="none" />
<circle cx="647.5170534633373" cy="731.7935419188798" r="5" fill="black" stroke="none" />
<path d="M623.5170534633373,491.7935419188797 L600.5408302989874,493.32007940478786" stroke="grey" stroke-width="5" />
<circle cx="600.5408302989874" cy="493.32007940478786" r="2.5" fill="grey" stroke="none" />
<path d="M600.5408302989874,493.32007940478786 A100.76249250771906,100.76249250771906,0,0,1,599.5170534633373,515.7935419188797" stroke="grey" stroke-width="5" fill="none" />
<circle cx="623.5170534633373" cy="491.7935419188797" r="5" fill="black" stroke="none" />
<circle cx="599.5170534633373" cy="515.7935419188798" r="5" fill="black" stroke="none" />
<path d="M599.5170534633373,515.7935419188798 L588.2656562454173,514.0079242038953" stroke="grey" stroke-width="5" />
<circle cx="588.2656562454173" cy="514.0079242038953" r="2.5" fill="grey" stroke="none" />
<path d="M588.2656562454173,514.0079242038953 A89.37028596203693,89.37028596203693,0,0,1,575.5170534633373,547.7935419188798" stroke="grey" stroke-width="5" fill="none" />
<circle cx="599.5170534633373" cy="515.7935419188798" r="5" fill="black" stroke="none" />
<circle cx="575.5170534633373" cy="547.7935419188798" r="5" fill="black" stroke="none" />
<path d="M575.5170534633373,547.7935419188798 A89.37028596203693,89.37028596203693,0,0,1,555.3283837656769,570.1841717398889" stroke="grey" stroke-width="5" fill="none" />
<path d="M555.328383765677,570.1841717398889 L75.51705346333728,95.79354191887973" stroke="grey" stroke-width="5" />
<circle cx="555.328383765677" cy="570.1841717398889" r="2.5" fill="grey" stroke="none" />
<circle cx="575.5170534633373" cy="547.7935419188798" r="5" fill="black" stroke="none" />
<circle cx="575.5170534633373" cy="595.7935419188798" r="5" fill="black" stroke="none" />
<path d="M575.5170534633373,491.7935419188797 A75.96164372906713,75.96164372906713,0,0,1,575.0227467782166,511.9062497820816" stroke="grey" stroke-width="5" fill="none" />
<path d="M575.0227467782166,511.9062497820816 L99.51705346333728,15.793541918879725" stroke="grey" stroke-width="5" />
<circle cx="575.0227467782166" cy="511.9062497820816" r="2.5" fill="grey" stroke="none" />
<circle cx="575.5170534633373" cy="491.7935419188797" r="5" fill="black" stroke="none" />
<circle cx="599.5170534633373" cy="515.7935419188798" r="5" fill="black" stroke="none" />
<path d="M527.5170534633373,547.7935419188798 A55.14898802748674,55.14898802748674,0,0,0,546.6003776589655,529.4926377677152" stroke="grey" stroke-width="5" fill="none" />
<path d="M546.6003776589655,529.4926377677152 L75.51705346333728,47.793541918879725" stroke="grey" stroke-width="5" />
<circle cx="546.6003776589655" cy="529.4926377677152" r="2.5" fill="grey" stroke="none" />
<circle cx="527.5170534633373" cy="547.7935419188798" r="5" fill="black" stroke="none" />
<circle cx="575.5170534633373" cy="547.7935419188798" r="5" fill="black" stroke="none" />
<path d="M623.5170534633373,491.7935419188797 A123.78937131475425,123.78937131475425,0,0,1,615.4481568350122,544.6713726440157" stroke="grey" stroke-width="5" fill="none" />
<path d="M615.4481568350122,544.6713726440157 L123.51705346333728,47.793541918879725" stroke="grey" stroke-width="5" />
<circle cx="615.4481568350122" cy="544.6713726440157" r="2.5" fill="grey" stroke="none" />
<circle cx="623.5170534633373" cy="491.7935419188797" r="5" fill="black" stroke="none" />
<circle cx="623.5170534633373" cy="547.7935419188798" r="5" fill="black" stroke="none" />
<path d="M599.5170534633373,515.7935419188797 A100.76249250771906,100.76249250771906,0,0,1,593.9728824418983,536.3617554847027" stroke="grey" stroke-width="5" fill="none" />
<path d="M593.9728824418983,536.3617554847027 L123.51705346333728,47.793541918879725" stroke="grey" stroke-width="5" />
<circle cx="593.9728824418983" cy="536.3617554847027" r="2.5" fill="grey" stroke="none" />
<circle cx="599.5170534633373" cy="515.7935419188798" r="5" fill="black" stroke="none" />
<circle cx="623.5170534633373" cy="547.7935419188798" r="5" fill="black" stroke="none" />
<path d="M575.5170534633373,547.7935419188798 A89.37028596203693,89.37028596203693,0,0,0,583.348309152495,532.2506957189512" stroke="grey" stroke-width="5" fill="none" />
<path d="M583.348309152495,532.2506957189512 L123.51705346333728,47.793541918879725" stroke="grey" stroke-width="5" />
<circle cx="583.348309152495" cy="532.2506957189512" r="2.5" fill="grey" stroke="none" />
<circle cx="575.5170534633373" cy="547.7935419188798" r="5" fill="black" stroke="none" />
<circle cx="623.5170534633373" cy="547.7935419188798" r="5" fill="black" stroke="none" />
<path d="M575.5170534633372,595.7935419188798 A121.98044120738663,121.98044120738663,0,0,0,613.7611166269483,544.0185913102473" stroke="grey" stroke-width="5" fill="none" />
<path d="M613.7611166269483,544.0185913102473 L123.51705346333728,47.793541918879725" stroke="grey" stroke-width="5" />
<circle cx="613.7611166269483" cy="544.0185913102473" r="2.5" fill="grey" stroke="none" />
<circle cx="575.5170534633373" cy="595.7935419188798" r="5" fill="black" stroke="none" />
<circle cx="623.5170534633373" cy="547.7935419188798" r="5" fill="black" stroke="none" />
<path d="M623.5170534633373,547.7935419188798 A132.44125167566423,132.44125167566423,0,0,1,595.0721523974976,592.2061331144714" stroke="grey" stroke-width="5" fill="none" />
<path d="M595.0721523974976,592.2061331144714 L123.51705346333728,119.79354191887973" stroke="grey" stroke-width="5" />
<circle cx="595.0721523974976" cy="592.2061331144714" r="2.5" fill="grey" stroke="none" />
<circle cx="623.5170534633373" cy="547.7935419188798" r="5" fill="black" stroke="none" />
<circle cx="623.5170534633373" cy="619.7935419188798" r="5" fill="black" stroke="none" />
<path d="M623.5170534633373,619.7935419188798 L621.7038853263241,618.0350330560389" stroke="grey" stroke-width="5" />
<circle cx="621.7038853263241" cy="618.0350330560389" r="2.5" fill="grey" stroke="none" />
<path d="M621.7038853263241,618.0350330560389 A169.54086449013772,169.54086449013772,0,0,1,575.5170534633373,651.7935419188798" stroke="grey" stroke-width="5" fill="none" />
<circle cx="623.5170534633373" cy="619.7935419188798" r="5" fill="black" stroke="none" />
<circle cx="575.5170534633373" cy="651.7935419188798" r="5" fill="black" stroke="none" />
<path d="M623.5170534633373,491.7935419188797 A123.78937131475425,123.78937131475425,0,0,0,611.0218680357517,445.24643145552756" stroke="grey" stroke-width="5" fill="none" />
<path d="M611.0218680357517,445.24643145552756 L227.51705346333728,-112.20645808112027" stroke="grey" stroke-width="5" />
<circle cx="611.0218680357517" cy="445.24643145552756" r="2.5" fill="grey" stroke="none" />
<circle cx="623.5170534633373" cy="491.7935419188797" r="5" fill="black" stroke="none" />
<circle cx="727.5170534633373" cy="387.7935419188797" r="5" fill="black" stroke="none" />
<path d="M623.5170534633373,491.7935419188797 A123.78937131475425,123.78937131475425,0,0,1,623.5460413636993,507.75784208792686" stroke="grey" stroke-width="5" fill="none" />
<path d="M623.5460413636993,507.75784208792686 L251.51705346333728,15.793541918879725" stroke="grey" stroke-width="5" />
<circle cx="623.5460413636993" cy="507.75784208792686" r="2.5" fill="grey" stroke="none" />
<circle cx="623.5170534633373" cy="491.7935419188797" r="5" fill="black" stroke="none" />
<circle cx="751.5170534633373" cy="515.7935419188798" r="5" fill="black" stroke="none" />
<path d="M751.5170534633373,515.7935419188798 A252.01242856101894,252.01242856101894,0,0,0,751.7402062445931,511.71036759253906" stroke="grey" stroke-width="5" fill="none" />
<path d="M751.7402062445931,511.71036759253906 L339.5170534633373,15.793541918879725" stroke="grey" stroke-width="5" />
<circle cx="751.7402062445931" cy="511.71036759253906" r="2.5" fill="grey" stroke="none" />
<circle cx="751.5170534633373" cy="515.7935419188798" r="5" fill="black" stroke="none" />
<circle cx="839.5170534633373" cy="515.7935419188798" r="5" fill="black" stroke="none" />
<path d="M623.5170534633373,547.7935419188798 A132.44125167566423,132.44125167566423,0,0,1,602.9408882970704,583.3298185647054" stroke="grey" stroke-width="5" fill="none" />
<path d="M602.9408882970704,583.3298185647054 L187.51705346333728,151.79354191887973" stroke="grey" stroke-width="5" />
<circle cx="602.9408882970704" cy="583.3298185647054" r="2.5" fill="grey" stroke="none" />
<circle cx="623.5170534633373" cy="547.7935419188798" r="5" fill="black" stroke="none" />
<circle cx="687.5170534633373" cy="651.7935419188798" r="5" fill="black" stroke="none" />
<circle cx="500" cy="500" r="5" fill="red" stroke="none" />
</svg>