<?xml version="1.0" encoding="UTF-8"?>
<svg xmlns="http://www.w3.org/2000/svg" xmlns:xlink="http://www.w3.org/1999/xlink"
     width="1000" height="1000" viewBox="0 0 1000 1000">
<defs>
</defs>
<rect x="0" y="0" width="1000" height="1000" fill="white" />
<path d="M377.97366267952896,688.7281204144324 L440.9543866431752,591.3210039098782" stroke="grey" stroke-width="5" />
<circle cx="440.9543866431752" cy="591.3210039098782" r="2.5" fill="grey" stroke="none" />
<path d="M440.9543866431752,591.3210039098782 A108.74700093240104,108.74700093240104,0,0,0,497.97366267952896,608.7281204144324" stroke="grey" stroke-width="5" fill="none" />
<circle cx="377.97366267952896" cy="688.7281204144324" r="5" fill="black" stroke="none" />
<circle cx="497.97366267952896" cy="608.7281204144324" r="5" fill="black" stroke="none" />
<path d="M497.97366267952896,608.7281204144324 L499.01676528405886,552.7578806896996" stroke="grey" stroke-width="5" />
<circle cx="499.01676528405886" cy="552.7578806896996" r="2.5" fill="grey" stroke="none" />
<path d="M499.01676528405886,552.7578806896996 A52.767042037385515,52.767042037385515,0,0,1,497.973662679529,552.7281204144324" stroke="grey" stroke-width="5" fill="none" />
<circle cx="497.97366267952896" cy="608.7281204144324" r="5" fill="black" stroke="none" />
<circle cx="497.97366267952896" cy="552.7281204144324" r="5" fill="black" stroke="none" />
<path d="M497.973662679529,552.7281204144324 A52.767042037385515,52.767042037385515,0,0,1,452.75302344510663,523.4964663682981" stroke="grey" stroke-width="5" fill="none" />
<path d="M452.75302344510663,523.4964663682981 L393.97366267952896,552.7281204144324" stroke="grey" stroke-width="5" />
<circle cx="452.75302344510663" cy="523.4964663682981" r="2.5" fill="grey" stroke="none" />
<circle cx="497.97366267952896" cy="552.7281204144324" r="5" fill="black" stroke="none" />
<circle cx="393.97366267952896" cy="552.7281204144324" r="5" fill="black" stroke="none" />
<path d="M393.97366267952896,552.7281204144324 L425.14918901695,537.2241716009005" stroke="grey" stroke-width="5" />
<circle cx="425.14918901695" cy="537.2241716009005" r="2.5" fill="grey" stroke="none" />
<path d="M425.14918901695,537.2241716009005 A83.59594999875037,83.59594999875037,0,0,1,433.97366267952896,448.7281204144324" stroke="grey" stroke-width="5" fill="none" />
<circle cx="393.97366267952896" cy="552.7281204144324" r="5" fill="black" stroke="none" />
<circle cx="433.97366267952896" cy="448.72812041443234" r="5" fill="black" stroke="none" />
<path d="M433.97366267952896,448.7281204144324 A83.59594999875037,83.59594999875037,0,0,1,526.2042524058489,420.6172562073839" stroke="grey" stroke-width="5" fill="none" />
<path d="M526.2042524058489,420.6172562073839 L545.973662679529,360.72812041443234" stroke="grey" stroke-width="5" />
<circle cx="526.2042524058489" cy="420.6172562073839" r="2.5" fill="grey" stroke="none" />
<circle cx="433.97366267952896" cy="448.72812041443234" r="5" fill="black" stroke="none" />
<circle cx="545.973662679529" cy="360.72812041443234" r="5" fill="black" stroke="none" />
<path d="M545.973662679529,360.7281204144324 A146.6636768374091,146.6636768374091,0,0,1,592.6721759291873,386.32457648190746" stroke="grey" stroke-width="5" fill="none" />
<path d="M592.6721759291873,386.3245764819074 L593.973662679529,384.72812041443234" stroke="grey" stroke-width="5" />
<circle cx="592.6721759291873" cy="386.3245764819074" r="2.5" fill="grey" stroke="none" />
<circle cx="545.973662679529" cy="360.72812041443234" r="5" fill="black" stroke="none" />
<circle cx="593.973662679529" cy="384.72812041443234" r="5" fill="black" stroke="none" />
<path d="M593.973662679529,384.72812041443234 L573.7443307863148,409.5422336840543" stroke="grey" stroke-width="5" />
<circle cx="573.7443307863148" cy="409.5422336840543" r="2.5" fill="grey" stroke="none" />
<path d="M573.7443307863148,409.5422336840543 A116.7083279376054,116.7083279376054,0,0,0,545.973662679529,392.72812041443234" stroke="grey" stroke-width="5" fill="none" />
<circle cx="593.973662679529" cy="384.72812041443234" r="5" fill="black" stroke="none" />
<circle cx="545.973662679529" cy="392.72812041443234" r="5" fill="black" stroke="none" />
<path d="M545.973662679529,360.72812041443234 L536.583763725244,389.17373036284596" stroke="grey" stroke-width="5" />
<circle cx="536.583763725244" cy="389.17373036284596" r="2.5" fill="grey" stroke="none" />
<path d="M536.583763725244,389.17373036284596 A116.7083279376054,116.7083279376054,0,0,1,545.973662679529,392.72812041443234" stroke="grey" stroke-width="5" fill="none" />
<circle cx="545.973662679529" cy="360.72812041443234" r="5" fill="black" stroke="none" />
<circle cx="545.973662679529" cy="392.72812041443234" r="5" fill="black" stroke="none" />
<path d="M545.973662679529,392.72812041443234 L497.97366267952896,504.72812041443234" stroke="grey" stroke-width="5" />
<circle cx="545.973662679529" cy="392.72812041443234" r="5" fill="black" stroke="none" />
<circle cx="497.97366267952896" cy="504.72812041443234" r="5" fill="black" stroke="none" />
<path d="M433.97366267952896,448.72812041443234 L495.93709699821994,496.8450063727748" stroke="grey" stroke-width="5" />
<circle cx="495.93709699821994" cy="496.8450063727748" r="2.5" fill="grey" stroke="none" />
<path d="M495.9370969982199,496.8450063727748 A5.144041756217137,5.144041756217137,0,0,0,497.97366267952896,504.72812041443234" stroke="grey" stroke-width="5" fill="none" />
<circle cx="433.97366267952896" cy="448.72812041443234" r="5" fill="black" stroke="none" />
<circle cx="497.97366267952896" cy="504.72812041443234" r="5" fill="black" stroke="none" />
<path d="M497.97366267952896,504.72812041443234 A5.144041756217137,5.144041756217137,0,0,0,499.8024607143736,505.1402474473842" stroke="grey" stroke-width="5" fill="none" />
<path d="M499.8024607143736,505.1402474473842 L497.97366267952896,552.7281204144324" stroke="grey" stroke-width="5" />
<circle cx="499.8024607143736" cy="505.1402474473842" r="2.5" fill="grey" stroke="none" />
<circle cx="497.97366267952896" cy="504.72812041443234" r="5" fill="black" stroke="none" />
<circle cx="497.97366267952896" cy="552.7281204144324" r="5" fill="black" stroke="none" />
<path d="M593.973662679529,384.72812041443234 A148.72341947586975,148.72341947586975,0,0,1,597.1567416472137,387.39794383275193" stroke="grey" stroke-width="5" fill="none" />
<path d="M597.1567416472137,387.39794383275193 L633.973662679529,344.72812041443234" stroke="grey" stroke-width="5" />
<circle cx="597.1567416472137" cy="387.39794383275193" r="2.5" fill="grey" stroke="none" />
<circle cx="593.973662679529" cy="384.72812041443234" r="5" fill="black" stroke="none" />
<circle cx="633.973662679529" cy="344.72812041443234" r="5" fill="black" stroke="none" />
<path d="M593.973662679529,384.72812041443234 A148.72341947586975,148.72341947586975,0,0,1,639.8812551066685,449.4837652790844" stroke="grey" stroke-width="5" fill="none" />
<path d="M639.8812551066685,449.4837652790844 L641.973662679529,448.72812041443234" stroke="grey" stroke-width="5" />
<circle cx="639.8812551066685" cy="449.4837652790844" r="2.5" fill="grey" stroke="none" />
<circle cx="593.973662679529" cy="384.72812041443234" r="5" fill="black" stroke="none" />
<circle cx="641.973662679529" cy="448.72812041443234" r="5" fill="black" stroke="none" />
<path d="M545.973662679529,392.72812041443234 L542.1693413354859,401.6048702171996" stroke="grey" stroke-width="5" />
<circle cx="542.1693413354859" cy="401.6048702171996" r="2.5" fill="grey" stroke="none" />
<path d="M542.1693413354859,401.6048702171996 A107.05071187826286,107.05071187826286,0,0,1,593.973662679529,448.72812041443234" stroke="grey" stroke-width="5" fill="none" />
<circle cx="545.973662679529" cy="392.72812041443234" r="5" fill="black" stroke="none" />
<circle cx="593.973662679529" cy="448.72812041443234" r="5" fill="black" stroke="none" />
<path d="M497.97366267952896,504.72812041443234 A5.144041756217137,5.144041756217137,0,0,0,505.1170516368263,500.5262586206027" stroke="grey" stroke-width="5" fill="none" />
<path d="M505.1170516368263,500.5262586206027 L545.973662679529,504.72812041443234" stroke="grey" stroke-width="5" />
<circle cx="505.1170516368263" cy="500.5262586206027" r="2.5" fill="grey" stroke="none" />
<circle cx="497.97366267952896" cy="504.72812041443234" r="5" fill="black" stroke="none" />
<circle cx="545.973662679529" cy="504.72812041443234" r="5" fill="black" stroke="none" />
<path d="M497.973662679529,552.7281204144324 A52.767042037385515,52.767042037385515,0,0,0,546.0180706599816,525.8204937618967" stroke="grey" stroke-width="5" fill="none" />
<path d="M546.0180706599816,525.8204937618967 L593.973662679529,552.7281204144324" stroke="grey" stroke-width="5" />
<circle cx="546.0180706599816" cy="525.8204937618967" r="2.5" fill="grey" stroke="none" />
<circle cx="497.97366267952896" cy="552.7281204144324" r="5" fill="black" stroke="none" />
<circle cx="593.973662679529" cy="552.7281204144324" r="5" fill="black" stroke="none" />
<path d="M497.97366267952896,608.7281204144324 A108.74700093240104,108.74700093240104,0,0,0,571.110447402824,582.2752361404198" stroke="grey" stroke-width="5" fill="none" />
<path d="M571.110447402824,582.2752361404198 L593.973662679529,608.7281204144324" stroke="grey" stroke-width="5" />
<circle cx="571.110447402824" cy="582.2752361404198" r="2.5" fill="grey" stroke="none" />
<circle cx="497.97366267952896" cy="608.7281204144324" r="5" fill="black" stroke="none" />
<circle cx="593.973662679529" cy="608.7281204144324" r="5" fill="black" stroke="none" />
<path d="M641.973662679529,448.72812041443234 L600.6861460714554,463.6385519688724" stroke="grey" stroke-width="5" />
<circle cx="600.6861460714554" cy="463.6385519688724" r="2.5" fill="grey" stroke="none" />
<path d="M600.6861460714554,463.6385519688724 A107.05071187826286,107.05071187826286,0,0,0,593.973662679529,448.72812041443234" stroke="grey" stroke-width="5" fill="none" />
<circle cx="641.973662679529" cy="448.72812041443234" r="5" fill="black" stroke="none" />
<circle cx="593.973662679529" cy="448.72812041443234" r="5" fill="black" stroke="none" />
<path d="M593.973662679529,448.72812041443234 L540.5705023405773,477.86479901474354" stroke="grey" stroke-width="5" />
<circle cx="540.5705023405773" cy="477.86479901474354" r="2.5" fill="grey" stroke="none" />
<path d="M540.5705023405773,477.86479901474354 A46.21615283452841,46.21615283452841,0,0,1,545.973662679529,504.72812041443234" stroke="grey" stroke-width="5" fill="none" />
<circle cx="593.973662679529" cy="448.72812041443234" r="5" fill="black" stroke="none" />
<circle cx="545.973662679529" cy="504.72812041443234" r="5" fill="black" stroke="none" />
<path d="M545.973662679529,504.72812041443234 A46.21615283452841,46.21615283452841,0,0,1,540.3050484669012,522.6149475105566" stroke="grey" stroke-width="5" fill="none" />
<path d="M540.3050484669012,522.6149475105566 L593.973662679529,552.7281204144324" stroke="grey" stroke-width="5" />
<circle cx="540.3050484669012" cy="522.6149475105566" r="2.5" fill="grey" stroke="none" />
<circle cx="545.973662679529" cy="504.72812041443234" r="5" fill="black" stroke="none" />
<circle cx="593.973662679529" cy="552.7281204144324" r="5" fill="black" stroke="none" />
<path d="M593.973662679529,552.7281204144324 A107.75576068055376,107.75576068055376,0,0,1,570.4622682605195,581.5252887846916" stroke="grey" stroke-width="5" fill="none" />
<path d="M570.4622682605195,581.5252887846916 L593.973662679529,608.7281204144324" stroke="grey" stroke-width="5" />
<circle cx="570.4622682605195" cy="581.5252887846916" r="2.5" fill="grey" stroke="none" />
<circle cx="593.973662679529" cy="552.7281204144324" r="5" fill="black" stroke="none" />
<circle cx="593.973662679529" cy="608.7281204144324" r="5" fill="black" stroke="none" />
<path d="M593.973662679529,608.7281204144323 A143.71100669837782,143.71100669837782,0,0,0,594.9049869536162,607.9161567958901" stroke="grey" stroke-width="5" fill="none" />
<path d="M594.9049869536162,607.9161567958901 L665.973662679529,688.7281204144324" stroke="grey" stroke-width="5" />
<circle cx="594.9049869536162" cy="607.9161567958901" r="2.5" fill="grey" stroke="none" />
<circle cx="593.973662679529" cy="608.7281204144324" r="5" fill="black" stroke="none" />
<circle cx="665.973662679529" cy="688.7281204144324" r="5" fill="black" stroke="none" />
<path d="M641.973662679529,448.72812041443234 L613.8859005701084,458.8716380889251" stroke="grey" stroke-width="5" />
<circle cx="613.8859005701084" cy="458.8716380889251" r="2.5" fill="grey" stroke="none" />
<path d="M613.8859005701084,458.8716380889251 A121.08484835912788,121.08484835912788,0,0,1,617.973662679529,472.72812041443234" stroke="grey" stroke-width="5" fill="none" />
<circle cx="641.973662679529" cy="448.72812041443234" r="5" fill="black" stroke="none" />
<circle cx="617.973662679529" cy="472.72812041443234" r="5" fill="black" stroke="none" />
<path d="M617.973662679529,472.72812041443234 L591.6748930159214,478.80758648528564" stroke="grey" stroke-width="5" />
<circle cx="591.6748930159214" cy="478.80758648528564" r="2.5" fill="grey" stroke="none" />
<path d="M591.6748930159214,478.80758648528564 A94.09253105352875,94.09253105352875,0,0,1,593.973662679529,504.72812041443234" stroke="grey" stroke-width="5" fill="none" />
<circle cx="617.973662679529" cy="472.72812041443234" r="5" fill="black" stroke="none" />
<circle cx="593.973662679529" cy="504.72812041443234" r="5" fill="black" stroke="none" />
<path d="M593.973662679529,504.72812041443234 A94.09253105352875,94.09253105352875,0,0,1,582.0579773929724,546.0422930166789" stroke="grey" stroke-width="5" fill="none" />
<path d="M582.0579773929724,546.0422930166789 L593.973662679529,552.7281204144324" stroke="grey" stroke-width="5" />
<circle cx="582.0579773929724" cy="546.0422930166789" r="2.5" fill="grey" stroke="none" />
<circle cx="593.973662679529" cy="504.72812041443234" r="5" fill="black" stroke="none" />
<circle cx="593.973662679529" cy="552.7281204144324" r="5" fill="black" stroke="none" />
<path d="M593.973662679529,448.72812041443234 A107.05071187826286,107.05071187826286,0,0,1,604.3001229623094,475.88902192589484" stroke="grey" stroke-width="5" fill="none" />
<path d="M604.3001229623094,475.88902192589484 L617.973662679529,472.72812041443234" stroke="grey" stroke-width="5" />
<circle cx="604.3001229623094" cy="475.88902192589484" r="2.5" fill="grey" stroke="none" />
<circle cx="593.973662679529" cy="448.72812041443234" r="5" fill="black" stroke="none" />
<circle cx="617.973662679529" cy="472.72812041443234" r="5" fill="black" stroke="none" />
<path d="M545.973662679529,504.72812041443234 A46.21615283452841,46.21615283452841,0,0,0,546.157767340181,502.32234730266896" stroke="grey" stroke-width="5" fill="none" />
<path d="M546.157767340181,502.32234730266896 L593.973662679529,504.72812041443234" stroke="grey" stroke-width="5" />
<circle cx="546.157767340181" cy="502.32234730266896" r="2.5" fill="grey" stroke="none" />
<circle cx="545.973662679529" cy="504.72812041443234" r="5" fill="black" stroke="none" />
<circle cx="593.973662679529" cy="504.72812041443234" r="5" fill="black" stroke="none" />
<path d="M641.973662679529,448.72812041443234 L633.6068251547409,451.74969130290947" stroke="grey" stroke-width="5" />
<circle cx="633.6068251547409" cy="451.74969130290947" r="2.5" fill="grey" stroke="none" />
<path d="M633.6068251547409,451.74969130290947 A142.05237068523022,142.05237068523022,0,0,1,641.973662679529,504.72812041443234" stroke="grey" stroke-width="5" fill="none" />
<circle cx="641.973662679529" cy="448.72812041443234" r="5" fill="black" stroke="none" />
<circle cx="641.973662679529" cy="504.72812041443234" r="5" fill="black" stroke="none" />
<path d="M617.973662679529,472.72812041443234 A121.08484835912788,121.08484835912788,0,0,1,621.0177579833107,504.03023012318346" stroke="grey" stroke-width="5" fill="none" />
<path d="M621.0177579833107,504.03023012318346 L641.973662679529,504.72812041443234" stroke="grey" stroke-width="5" />
<circle cx="621.0177579833107" cy="504.03023012318346" r="2.5" fill="grey" stroke="none" />
<circle cx="617.973662679529" cy="472.72812041443234" r="5" fill="black" stroke="none" />
<circle cx="641.973662679529" cy="504.72812041443234" r="5" fill="black" stroke="none" />
<path d="M593.973662679529,504.72812041443234 A94.09253105352875,94.09253105352875,0,0,0,594.040396510227,503.1318084645387" stroke="grey" stroke-width="5" fill="none" />
<path d="M594.040396510227,503.1318084645387 L641.973662679529,504.72812041443234" stroke="grey" stroke-width="5" />
<circle cx="594.040396510227" cy="503.1318084645387" r="2.5" fill="grey" stroke="none" />
<circle cx="593.973662679529" cy="504.72812041443234" r="5" fill="black" stroke="none" />
<circle cx="641.973662679529" cy="504.72812041443234" r="5" fill="black" stroke="none" />
<path d="M593.973662679529,552.7281204144324 A107.75576068055376,107.75576068055376,0,0,0,607.6960556507463,503.5865801421601" stroke="grey" stroke-width="5" fill="none" />
<path d="M607.6960556507463,503.5865801421601 L641.973662679529,504.72812041443234" stroke="grey" stroke-width="5" />
<circle cx="607.6960556507463" cy="503.5865801421601" r="2.5" fill="grey" stroke="none" />
<circle cx="593.973662679529" cy="552.7281204144324" r="5" fill="black" stroke="none" />
<circle cx="641.973662679529" cy="504.72812041443234" r="5" fill="black" stroke="none" />
<path d="M641.973662679529,504.72812041443234 A142.05237068523022,142.05237068523022,0,0,1,624.9696976463642,567.5385126240602" stroke="grey" stroke-width="5" fill="none" />
<path d="M624.9696976463642,567.5385126240602 L641.973662679529,576.7281204144324" stroke="grey" stroke-width="5" />
<circle cx="624.9696976463642" cy="567.5385126240602" r="2.5" fill="grey" stroke="none" />
<circle cx="641.973662679529" cy="504.72812041443234" r="5" fill="black" stroke="none" />
<circle cx="641.973662679529" cy="576.7281204144324" r="5" fill="black" stroke="none" />
<path d="M641.973662679529,576.7281204144324 L626.4288724568131,568.3271077652207" stroke="grey" stroke-width="5" />
<circle cx="626.4288724568131" cy="568.3271077652207" r="2.5" fill="grey" stroke="none" />
<path d="M626.4288724568131,568.3271077652207 A143.71100669837782,143.71100669837782,0,0,1,593.973662679529,608.7281204144323" stroke="grey" stroke-width="5" fill="none" />
<circle cx="641.973662679529" cy="576.7281204144324" r="5" fill="black" stroke="none" />
<circle cx="593.973662679529" cy="608.7281204144324" r="5" fill="black" stroke="none" />
<path d="M641.973662679529,448.72812041443234 A150.94809217369271,150.94809217369271,0,0,0,627.643654936499,419.4244212845505" stroke="grey" stroke-width="5" fill="none" />
<path d="M627.643654936499,419.4244212845505 L745.973662679529,344.72812041443234" stroke="grey" stroke-width="5" />
<circle cx="627.643654936499" cy="419.4244212845505" r="2.5" fill="grey" stroke="none" />
<circle cx="641.973662679529" cy="448.72812041443234" r="5" fill="black" stroke="none" />
<circle cx="745.973662679529" cy="344.72812041443234" r="5" fill="black" stroke="none" />
<path d="M641.973662679529,448.72812041443234 A150.94809217369271,150.94809217369271,0,0,1,650.1837696865799,484.828913894979" stroke="grey" stroke-width="5" fill="none" />
<path d="M650.1837696865799,484.828913894979 L769.973662679529,472.72812041443234" stroke="grey" stroke-width="5" />
<circle cx="650.1837696865799" cy="484.828913894979" r="2.5" fill="grey" stroke="none" />
<circle cx="641.973662679529" cy="448.72812041443234" r="5" fill="black" stroke="none" />
<circle cx="769.973662679529" cy="472.72812041443234" r="5" fill="black" stroke="none" />
<path d="M769.973662679529,472.72812041443234 A271.3476256699693,271.3476256699693,0,0,1,770.5635850833972,479.38737320114063" stroke="grey" stroke-width="5" fill="none" />
<path d="M770.5635850833972,479.38737320114063 L857.973662679529,472.72812041443234" stroke="grey" stroke-width="5" />
<circle cx="770.5635850833972" cy="479.38737320114063" r="2.5" fill="grey" stroke="none" />
<circle cx="769.973662679529" cy="472.72812041443234" r="5" fill="black" stroke="none" />
<circle cx="857.973662679529" cy="472.72812041443234" r="5" fill="black" stroke="none" />
<path d="M641.973662679529,504.72812041443234 A142.05237068523022,142.05237068523022,0,0,1,625.6239658403061,566.3136126586967" stroke="grey" stroke-width="5" fill="none" />
<path d="M625.6239658403061,566.3136126586967 L705.973662679529,608.7281204144324" stroke="grey" stroke-width="5" />
<circle cx="625.6239658403061" cy="566.3136126586967" r="2.5" fill="grey" stroke="none" />
<circle cx="641.973662679529" cy="504.72812041443234" r="5" fill="black" stroke="none" />
<circle cx="705.973662679529" cy="608.7281204144324" r="5" fill="black" stroke="none" />
<circle cx="500" cy="500" r="5" fill="red" stroke="none" />
</svg>