<?xml version="1.0" encoding="UTF-8"?>
<svg xmlns="http://www.w3.org/2000/svg" xmlns:xlink="http://www.w3.org/1999/xlink"
     width="1000" height="1000" viewBox="0 0 1000 1000">
<defs>
</defs>
<rect x="0" y="0" width="1000" height="1000" fill="white" />
<path d="M237.18472797294055,684.0 L355.27408124582894,601.3242831947213" stroke="grey" stroke-width="5" />
<circle cx="355.27408124582894" cy="601.3242831947213" r="2.5" fill="grey" stroke="none" />
<path d="M355.27408124582894,601.3242831947213 A176.66975384644365,176.66975384644365,0,0,0,357.18472797294055,604.0" stroke="grey" stroke-width="5" fill="none" />
<circle cx="237.18472797294055" cy="684.0" r="5" fill="black" stroke="none" />
<circle cx="357.18472797294055" cy="604.0" r="5" fill="black" stroke="none" />
<path d="M357.18472797294055,604.0 L378.2056035315742,588.6923159752573" stroke="grey" stroke-width="5" />
<circle cx="378.2056035315742" cy="588.6923159752573" r="2.5" fill="grey" stroke="none" />
<path d="M378.2056035315742,588.6923159752573 A150.6658618405742,150.6658618405742,0,0,1,357.18472797294055,548.0" stroke="grey" stroke-width="5" fill="none" />
<circle cx="357.18472797294055" cy="604.0" r="5" fill="black" stroke="none" />
<circle cx="357.18472797294055" cy="548.0" r="5" fill="black" stroke="none" />
<path d="M357.18472797294055,548.0 A150.6658618405742,150.6658618405742,0,0,1,352.10498543783433,528.7622424685521" stroke="grey" stroke-width="5" fill="none" />
<path d="M352.10498543783433,528.7622424685521 L253.18472797294055,548.0" stroke="grey" stroke-width="5" />
<circle cx="352.10498543783433" cy="528.7622424685521" r="2.5" fill="grey" stroke="none" />
<circle cx="357.18472797294055" cy="548.0" r="5" fill="black" stroke="none" />
<circle cx="253.18472797294055" cy="548.0" r="5" fill="black" stroke="none" />
<path d="M253.18472797294055,548.0 L289.67761680247156,540.9029567358965" stroke="grey" stroke-width="5" />
<circle cx="289.67761680247156" cy="540.9029567358965" r="2.5" fill="grey" stroke="none" />
<path d="M289.67761680247156,540.9029567358965 A214.26282165514996,214.26282165514996,0,0,1,293.18472797294055,444.0" stroke="grey" stroke-width="5" fill="none" />
<circle cx="253.18472797294055" cy="548.0" r="5" fill="black" stroke="none" />
<circle cx="293.18472797294055" cy="444.0" r="5" fill="black" stroke="none" />
<path d="M293.18472797294055,444.0 L333.5807526668538,454.9381544248974" stroke="grey" stroke-width="5" />
<circle cx="333.5807526668538" cy="454.9381544248974" r="2.5" fill="grey" stroke="none" />
<path d="M333.5807526668538,454.9381544248974 A172.41211039125204,172.41211039125204,0,0,1,405.18472797294055,356.0" stroke="grey" stroke-width="5" fill="none" />
<circle cx="293.18472797294055" cy="444.0" r="5" fill="black" stroke="none" />
<circle cx="405.18472797294055" cy="356.0" r="5" fill="black" stroke="none" />
<path d="M405.18472797294055,356.0 L429.16374801380425,392.4179610738123" stroke="grey" stroke-width="5" />
<circle cx="429.16374801380425" cy="392.4179610738123" r="2.5" fill="grey" stroke="none" />
<path d="M429.16374801380425,392.4179610738123 A128.80865535734614,128.80865535734614,0,0,1,453.18472797294055,380.0" stroke="grey" stroke-width="5" fill="none" />
<circle cx="405.18472797294055" cy="356.0" r="5" fill="black" stroke="none" />
<circle cx="453.18472797294055" cy="380.0" r="5" fill="black" stroke="none" />
<path d="M453.18472797294055,380.0 A128.80865535734614,128.80865535734614,0,0,0,416.7734992893318,401.6891701061133" stroke="grey" stroke-width="5" fill="none" />
<path d="M416.7734992893318,401.6891701061133 L405.18472797294055,388.0" stroke="grey" stroke-width="5" />
<circle cx="416.7734992893318" cy="401.6891701061133" r="2.5" fill="grey" stroke="none" />
<circle cx="453.18472797294055" cy="380.0" r="5" fill="black" stroke="none" />
<circle cx="405.18472797294055" cy="388.0" r="5" fill="black" stroke="none" />
<path d="M405.18472797294055,356.0 L419.3002415805335,377.43783291486307" stroke="grey" stroke-width="5" />
<circle cx="419.3002415805335" cy="377.43783291486307" r="2.5" fill="grey" stroke="none" />
<path d="M419.3002415805335,377.43783291486307 A146.74445750884522,146.74445750884522,0,0,0,405.18472797294055,388.0" stroke="grey" stroke-width="5" fill="none" />
<circle cx="405.18472797294055" cy="356.0" r="5" fill="black" stroke="none" />
<circle cx="405.18472797294055" cy="388.0" r="5" fill="black" stroke="none" />
<path d="M405.18472797294055,388.0 L407.7234731945639,390.9988783319702" stroke="grey" stroke-width="5" />
<circle cx="407.7234731945639" cy="390.9988783319702" r="2.5" fill="grey" stroke="none" />
<path d="M407.7234731945639,390.9988783319702 A142.81527202705945,142.81527202705945,0,0,0,357.18472797294055,500.0" stroke="grey" stroke-width="5" fill="none" />
<circle cx="405.18472797294055" cy="388.0" r="5" fill="black" stroke="none" />
<circle cx="357.18472797294055" cy="500.0" r="5" fill="black" stroke="none" />
<path d="M293.18472797294055,444.0 L362.1488361549127,462.67362124826616" stroke="grey" stroke-width="5" />
<circle cx="362.1488361549127" cy="462.67362124826616" r="2.5" fill="grey" stroke="none" />
<path d="M362.1488361549127,462.67362124826616 A142.81527202705945,142.81527202705945,0,0,0,357.18472797294055,500.0" stroke="grey" stroke-width="5" fill="none" />
<circle cx="293.18472797294055" cy="444.0" r="5" fill="black" stroke="none" />
<circle cx="357.18472797294055" cy="500.0" r="5" fill="black" stroke="none" />
<path d="M357.18472797294055,500.0 A142.81527202705945,142.81527202705945,0,0,0,364.6262552445686,545.4989137788397" stroke="grey" stroke-width="5" fill="none" />
<path d="M364.6262552445686,545.4989137788397 L357.18472797294055,548.0" stroke="grey" stroke-width="5" />
<circle cx="364.6262552445686" cy="545.4989137788397" r="2.5" fill="grey" stroke="none" />
<circle cx="357.18472797294055" cy="500.0" r="5" fill="black" stroke="none" />
<circle cx="357.18472797294055" cy="548.0" r="5" fill="black" stroke="none" />
<path d="M453.18472797294055,380.0 A128.80865535734614,128.80865535734614,0,0,1,494.51830800100447,371.30803930394205" stroke="grey" stroke-width="5" fill="none" />
<path d="M494.5183080010045,371.30803930394205 L493.18472797294055,340.0" stroke="grey" stroke-width="5" />
<circle cx="494.5183080010045" cy="371.30803930394205" r="2.5" fill="grey" stroke="none" />
<circle cx="453.18472797294055" cy="380.0" r="5" fill="black" stroke="none" />
<circle cx="493.18472797294055" cy="340.0" r="5" fill="black" stroke="none" />
<path d="M453.18472797294055,380.0 L479.6423474177182,447.8179191512164" stroke="grey" stroke-width="5" />
<circle cx="479.6423474177182" cy="447.8179191512164" r="2.5" fill="grey" stroke="none" />
<path d="M479.6423474177182,447.8179191512164 A56.01253056566779,56.01253056566779,0,0,1,501.18472797294055,444.0" stroke="grey" stroke-width="5" fill="none" />
<circle cx="453.18472797294055" cy="380.0" r="5" fill="black" stroke="none" />
<circle cx="501.18472797294055" cy="444.0" r="5" fill="black" stroke="none" />
<path d="M405.18472797294055,388.0 L452.83875796550717,444.29105148424037" stroke="grey" stroke-width="5" />
<circle cx="452.83875796550717" cy="444.29105148424037" r="2.5" fill="grey" stroke="none" />
<path d="M452.83875796550717,444.29105148424037 A72.99088775297623,72.99088775297623,0,0,1,453.18472797294055,444.0" stroke="grey" stroke-width="5" fill="none" />
<circle cx="405.18472797294055" cy="388.0" r="5" fill="black" stroke="none" />
<circle cx="453.18472797294055" cy="444.0" r="5" fill="black" stroke="none" />
<path d="M357.18472797294055,500.0 L405.18472797294055,500.0" stroke="grey" stroke-width="5" />
<circle cx="405.18472797294055" cy="500.0" r="2.5" fill="grey" stroke="none" />
<path d="M405.18472797294055,500.0 A94.81527202705945,94.81527202705945,0,0,1,405.18472797294055,500.0" stroke="grey" stroke-width="5" fill="none" />
<circle cx="357.18472797294055" cy="500.0" r="5" fill="black" stroke="none" />
<circle cx="405.18472797294055" cy="500.0" r="5" fill="black" stroke="none" />
<path d="M357.18472797294055,548.0 L436.4439366999809,521.361098117174" stroke="grey" stroke-width="5" />
<circle cx="436.4439366999809" cy="521.361098117174" r="2.5" fill="grey" stroke="none" />
<path d="M436.4439366999809,521.361098117174 A67.04975536843945,67.04975536843945,0,0,0,453.18472797294055,548.0" stroke="grey" stroke-width="5" fill="none" />
<circle cx="357.18472797294055" cy="548.0" r="5" fill="black" stroke="none" />
<circle cx="453.18472797294055" cy="548.0" r="5" fill="black" stroke="none" />
<path d="M357.18472797294055,604.0 L407.80397486185063,567.1383842797345" stroke="grey" stroke-width="5" />
<circle cx="407.80397486185063" cy="567.1383842797345" r="2.5" fill="grey" stroke="none" />
<path d="M407.80397486185063,567.1383842797345 A114.05117138796767,114.05117138796767,0,0,0,453.18472797294055,604.0" stroke="grey" stroke-width="5" fill="none" />
<circle cx="357.18472797294055" cy="604.0" r="5" fill="black" stroke="none" />
<circle cx="453.18472797294055" cy="604.0" r="5" fill="black" stroke="none" />
<path d="M501.18472797294055,444.0 A56.01253056566779,56.01253056566779,0,0,0,464.0743942691833,457.0261191740404" stroke="grey" stroke-width="5" fill="none" />
<path d="M464.0743942691833,457.0261191740404 L453.18472797294055,444.0" stroke="grey" stroke-width="5" />
<circle cx="464.0743942691833" cy="457.0261191740404" r="2.5" fill="grey" stroke="none" />
<circle cx="501.18472797294055" cy="444.0" r="5" fill="black" stroke="none" />
<circle cx="453.18472797294055" cy="444.0" r="5" fill="black" stroke="none" />
<path d="M453.18472797294055,444.0 A72.99088775297623,72.99088775297623,0,0,0,427.0091122470238,500.0" stroke="grey" stroke-width="5" fill="none" />
<path d="M427.0091122470238,500.0 L405.18472797294055,500.0" stroke="grey" stroke-width="5" />
<circle cx="427.0091122470238" cy="500.0" r="2.5" fill="grey" stroke="none" />
<circle cx="453.18472797294055" cy="444.0" r="5" fill="black" stroke="none" />
<circle cx="405.18472797294055" cy="500.0" r="5" fill="black" stroke="none" />
<path d="M405.18472797294055,500.0 L432.95024463156057,500.0" stroke="grey" stroke-width="5" />
<circle cx="432.95024463156057" cy="500.0" r="2.5" fill="grey" stroke="none" />
<path d="M432.95024463156057,500.0 A67.04975536843945,67.04975536843945,0,0,0,453.18472797294055,548.0" stroke="grey" stroke-width="5" fill="none" />
<circle cx="405.18472797294055" cy="500.0" r="5" fill="black" stroke="none" />
<circle cx="453.18472797294055" cy="548.0" r="5" fill="black" stroke="none" />
<path d="M453.18472797294055,548.0 A67.04975536843945,67.04975536843945,0,0,0,472.4776826163099,561.1407535184103" stroke="grey" stroke-width="5" fill="none" />
<path d="M472.4776826163099,561.1407535184103 L453.18472797294055,604.0" stroke="grey" stroke-width="5" />
<circle cx="472.4776826163099" cy="561.1407535184103" r="2.5" fill="grey" stroke="none" />
<circle cx="453.18472797294055" cy="548.0" r="5" fill="black" stroke="none" />
<circle cx="453.18472797294055" cy="604.0" r="5" fill="black" stroke="none" />
<path d="M453.18472797294055,604.0 A114.05117138796767,114.05117138796767,0,0,0,515.4663813435768,612.997613882341" stroke="grey" stroke-width="5" fill="none" />
<path d="M515.4663813435768,612.997613882341 L525.1847279729405,684.0" stroke="grey" stroke-width="5" />
<circle cx="515.4663813435768" cy="612.997613882341" r="2.5" fill="grey" stroke="none" />
<circle cx="453.18472797294055" cy="604.0" r="5" fill="black" stroke="none" />
<circle cx="525.1847279729405" cy="684.0" r="5" fill="black" stroke="none" />
<path d="M501.18472797294055,444.0 L500.831251718585,460.70819858737616" stroke="grey" stroke-width="5" />
<circle cx="500.831251718585" cy="460.70819858737616" r="2.5" fill="grey" stroke="none" />
<path d="M500.831251718585,460.70819858737616 A39.3005933500847,39.3005933500847,0,0,0,477.18472797294055,468.0" stroke="grey" stroke-width="5" fill="none" />
<circle cx="501.18472797294055" cy="444.0" r="5" fill="black" stroke="none" />
<circle cx="477.18472797294055" cy="468.0" r="5" fill="black" stroke="none" />
<path d="M477.18472797294055,468.0 A39.3005933500847,39.3005933500847,0,0,0,460.6994066499153,500.0" stroke="grey" stroke-width="5" fill="none" />
<path d="M460.6994066499153,500.0 L453.18472797294055,500.0" stroke="grey" stroke-width="5" />
<circle cx="460.6994066499153" cy="500.0" r="2.5" fill="grey" stroke="none" />
<circle cx="477.18472797294055" cy="468.0" r="5" fill="black" stroke="none" />
<circle cx="453.18472797294055" cy="500.0" r="5" fill="black" stroke="none" />
<path d="M453.18472797294055,500.0 A46.81527202705945,46.81527202705945,0,0,0,467.3127861104889,533.5144109766072" stroke="grey" stroke-width="5" fill="none" />
<path d="M467.3127861104889,533.5144109766072 L453.18472797294055,548.0" stroke="grey" stroke-width="5" />
<circle cx="467.3127861104889" cy="533.5144109766072" r="2.5" fill="grey" stroke="none" />
<circle cx="453.18472797294055" cy="500.0" r="5" fill="black" stroke="none" />
<circle cx="453.18472797294055" cy="548.0" r="5" fill="black" stroke="none" />
<path d="M453.18472797294055,444.0 L474.793182749938,469.8478358688684" stroke="grey" stroke-width="5" />
<circle cx="474.793182749938" cy="469.8478358688684" r="2.5" fill="grey" stroke="none" />
<path d="M474.793182749938,469.8478358688684 A39.3005933500847,39.3005933500847,0,0,1,477.18472797294055,468.0" stroke="grey" stroke-width="5" fill="none" />
<circle cx="453.18472797294055" cy="444.0" r="5" fill="black" stroke="none" />
<circle cx="477.18472797294055" cy="468.0" r="5" fill="black" stroke="none" />
<path d="M405.18472797294055,500.0 L453.18472797294055,500.0" stroke="grey" stroke-width="5" />
<circle cx="453.18472797294055" cy="500.0" r="2.5" fill="grey" stroke="none" />
<path d="M453.18472797294055,500.0 A46.81527202705945,46.81527202705945,0,0,1,453.18472797294055,500.0" stroke="grey" stroke-width="5" fill="none" />
<circle cx="405.18472797294055" cy="500.0" r="5" fill="black" stroke="none" />
<circle cx="453.18472797294055" cy="500.0" r="5" fill="black" stroke="none" />
<path d="M501.18472797294055,444.0 L500.02505832812216,498.8155370626062" stroke="grey" stroke-width="5" />
<circle cx="500.02505832812216" cy="498.8155370626062" r="2.5" fill="grey" stroke="none" />
<path d="M500.02505832812216,498.8155370626062 A1.18472797294055,1.18472797294055,0,0,1,501.18472797294055,500.0" stroke="grey" stroke-width="5" fill="none" />
<circle cx="501.18472797294055" cy="444.0" r="5" fill="black" stroke="none" />
<circle cx="501.18472797294055" cy="500.0" r="5" fill="black" stroke="none" />
<path d="M477.18472797294055,468.0 L499.3122268984611,499.03535056592176" stroke="grey" stroke-width="5" />
<circle cx="499.3122268984611" cy="499.03535056592176" r="2.5" fill="grey" stroke="none" />
<path d="M499.3122268984611,499.03535056592176 A1.18472797294055,1.18472797294055,0,0,1,501.18472797294055,500.0" stroke="grey" stroke-width="5" fill="none" />
<circle cx="477.18472797294055" cy="468.0" r="5" fill="black" stroke="none" />
<circle cx="501.18472797294055" cy="500.0" r="5" fill="black" stroke="none" />
<path d="M453.18472797294055,500.0 L501.18472797294055,500.0" stroke="grey" stroke-width="5" />
<circle cx="453.18472797294055" cy="500.0" r="5" fill="black" stroke="none" />
<circle cx="501.18472797294055" cy="500.0" r="5" fill="black" stroke="none" />
<path d="M453.18472797294055,548.0 L499.17280291290393,500.84813050232117" stroke="grey" stroke-width="5" />
<circle cx="499.17280291290393" cy="500.84813050232117" r="2.5" fill="grey" stroke="none" />
<path d="M499.17280291290393,500.84813050232117 A1.18472797294055,1.18472797294055,0,0,0,501.18472797294055,500.0" stroke="grey" stroke-width="5" fill="none" />
<circle cx="453.18472797294055" cy="548.0" r="5" fill="black" stroke="none" />
<circle cx="501.18472797294055" cy="500.0" r="5" fill="black" stroke="none" />
<path d="M501.18472797294055,500.0 A1.18472797294055,1.18472797294055,0,0,1,500.01949153329275,501.18456762153863" stroke="grey" stroke-width="5" fill="none" />
<path d="M500.01949153329275,501.18456762153863 L501.18472797294055,572.0" stroke="grey" stroke-width="5" />
<circle cx="500.01949153329275" cy="501.18456762153863" r="2.5" fill="grey" stroke="none" />
<circle cx="501.18472797294055" cy="500.0" r="5" fill="black" stroke="none" />
<circle cx="501.18472797294055" cy="572.0" r="5" fill="black" stroke="none" />
<path d="M501.18472797294055,572.0 A72.00974642622947,72.00974642622947,0,0,1,470.44172517899136,565.6636274506336" stroke="grey" stroke-width="5" fill="none" />
<path d="M470.44172517899136,565.6636274506335 L453.18472797294055,604.0" stroke="grey" stroke-width="5" />
<circle cx="470.44172517899136" cy="565.6636274506335" r="2.5" fill="grey" stroke="none" />
<circle cx="501.18472797294055" cy="572.0" r="5" fill="black" stroke="none" />
<circle cx="453.18472797294055" cy="604.0" r="5" fill="black" stroke="none" />
<path d="M501.18472797294055,444.0 A56.01253056566779,56.01253056566779,0,0,1,530.7693969467701,453.1956434516832" stroke="grey" stroke-width="5" fill="none" />
<path d="M530.7693969467701,453.1956434516832 L605.1847279729405,340.0" stroke="grey" stroke-width="5" />
<circle cx="530.7693969467701" cy="453.1956434516832" r="2.5" fill="grey" stroke="none" />
<circle cx="501.18472797294055" cy="444.0" r="5" fill="black" stroke="none" />
<circle cx="605.1847279729405" cy="340.0" r="5" fill="black" stroke="none" />
<path d="M501.18472797294055,444.0 A56.01253056566779,56.01253056566779,0,0,1,554.3693398321024,486.53231769786515" stroke="grey" stroke-width="5" fill="none" />
<path d="M554.3693398321024,486.53231769786515 L629.1847279729405,468.0" stroke="grey" stroke-width="5" />
<circle cx="554.3693398321024" cy="486.53231769786515" r="2.5" fill="grey" stroke="none" />
<circle cx="501.18472797294055" cy="444.0" r="5" fill="black" stroke="none" />
<circle cx="629.1847279729405" cy="468.0" r="5" fill="black" stroke="none" />
<path d="M629.1847279729405,468.0 A133.0890451594069,133.0890451594069,0,0,1,631.6675283336937,480.6001050534127" stroke="grey" stroke-width="5" fill="none" />
<path d="M631.6675283336937,480.6001050534127 L717.1847279729405,468.0" stroke="grey" stroke-width="5" />
<circle cx="631.6675283336937" cy="480.6001050534127" r="2.5" fill="grey" stroke="none" />
<circle cx="629.1847279729405" cy="468.0" r="5" fill="black" stroke="none" />
<circle cx="717.1847279729405" cy="468.0" r="5" fill="black" stroke="none" />
<path d="M501.18472797294055,500.0 A1.18472797294055,1.18472797294055,0,0,1,500.6291862591482,501.0038451181168" stroke="grey" stroke-width="5" fill="none" />
<path d="M500.6291862591482,501.0038451181168 L565.1847279729405,604.0" stroke="grey" stroke-width="5" />
<circle cx="500.6291862591482" cy="501.0038451181168" r="2.5" fill="grey" stroke="none" />
<circle cx="501.18472797294055" cy="500.0" r="5" fill="black" stroke="none" />
<circle cx="565.1847279729405" cy="604.0" r="5" fill="black" stroke="none" />
<circle cx="500" cy="500" r="5" fill="red" stroke="none" />
</svg>