<?xml version="1.0" encoding="UTF-8"?>
<svg xmlns="http://www.w3.org/2000/svg" xmlns:xlink="http://www.w3.org/1999/xlink"
     width="1000" height="1000" viewBox="0 0 1000 1000">
<defs>
</defs>
<rect x="0" y="0" width="1000" height="1000" fill="white" />
<path d="M223.69673030458455,664.0071867449499 L347.40858159089316,590.5747126419707" stroke="grey" stroke-width="5" />
<circle cx="347.40858159089316" cy="590.5747126419707" r="2.5" fill="grey" stroke="none" />
<path d="M347.40858159089316,590.5747126419707 A177.44835739526772,177.44835739526772,0,0,1,343.69673030458455,584.0071867449499" stroke="grey" stroke-width="5" fill="none" />
<circle cx="223.69673030458455" cy="664.0071867449499" r="5" fill="black" stroke="none" />
<circle cx="343.69673030458455" cy="584.0071867449499" r="5" fill="black" stroke="none" />
<path d="M343.69673030458455,584.0071867449499 L360.12936293513116,575.175258655438" stroke="grey" stroke-width="5" />
<circle cx="360.12936293513116" cy="575.175258655438" r="2.5" fill="grey" stroke="none" />
<path d="M360.12936293513116,575.175258655438 A158.7926781273125,158.7926781273125,0,0,1,343.69673030458455,528.0071867449499" stroke="grey" stroke-width="5" fill="none" />
<circle cx="343.69673030458455" cy="584.0071867449499" r="5" fill="black" stroke="none" />
<circle cx="343.69673030458455" cy="528.0071867449499" r="5" fill="black" stroke="none" />
<path d="M343.69673030458455,528.0071867449499 A158.7926781273125,158.7926781273125,0,0,1,342.1185546594529,516.9871670393896" stroke="grey" stroke-width="5" fill="none" />
<path d="M342.1185546594529,516.9871670393896 L239.69673030458455,528.0071867449499" stroke="grey" stroke-width="5" />
<circle cx="342.1185546594529" cy="516.9871670393896" r="2.5" fill="grey" stroke="none" />
<circle cx="343.69673030458455" cy="528.0071867449499" r="5" fill="black" stroke="none" />
<circle cx="239.69673030458455" cy="528.0071867449499" r="5" fill="black" stroke="none" />
<path d="M239.69673030458455,528.0071867449499 L268.2956019542193,524.9301069221593" stroke="grey" stroke-width="5" />
<circle cx="268.2956019542193" cy="524.9301069221593" r="2.5" fill="grey" stroke="none" />
<path d="M268.2956019542193,524.9301069221593 A233.04170936746038,233.04170936746038,0,0,1,279.69673030458455,424.0071867449499" stroke="grey" stroke-width="5" fill="none" />
<circle cx="239.69673030458455" cy="528.0071867449499" r="5" fill="black" stroke="none" />
<circle cx="279.69673030458455" cy="424.0071867449499" r="5" fill="black" stroke="none" />
<path d="M279.69673030458455,424.0071867449499 L314.21457389309205,435.91399160270396" stroke="grey" stroke-width="5" />
<circle cx="314.21457389309205" cy="435.91399160270396" r="2.5" fill="grey" stroke="none" />
<path d="M314.21457389309205,435.91399160270396 A196.5279649974111,196.5279649974111,0,0,1,391.69673030458455,336.0071867449499" stroke="grey" stroke-width="5" fill="none" />
<circle cx="279.69673030458455" cy="424.0071867449499" r="5" fill="black" stroke="none" />
<circle cx="391.69673030458455" cy="336.0071867449499" r="5" fill="black" stroke="none" />
<path d="M391.69673030458455,336.0071867449499 L415.99916254088885,372.80593014928195" stroke="grey" stroke-width="5" />
<circle cx="415.99916254088885" cy="372.80593014928195" r="2.5" fill="grey" stroke="none" />
<path d="M415.99916254088885,372.80593014928195 A152.4285803221343,152.4285803221343,0,0,1,439.69673030458455,360.0071867449499" stroke="grey" stroke-width="5" fill="none" />
<circle cx="391.69673030458455" cy="336.0071867449499" r="5" fill="black" stroke="none" />
<circle cx="439.69673030458455" cy="360.0071867449499" r="5" fill="black" stroke="none" />
<path d="M439.69673030458455,360.0071867449499 A152.4285803221343,152.4285803221343,0,0,0,403.3112328463608,382.1621690401139" stroke="grey" stroke-width="5" fill="none" />
<path d="M403.3112328463608,382.1621690401139 L391.69673030458455,368.0071867449499" stroke="grey" stroke-width="5" />
<circle cx="403.3112328463608" cy="382.1621690401139" r="2.5" fill="grey" stroke="none" />
<circle cx="439.69673030458455" cy="360.0071867449499" r="5" fill="black" stroke="none" />
<circle cx="391.69673030458455" cy="368.0071867449499" r="5" fill="black" stroke="none" />
<path d="M391.69673030458455,336.0071867449499 L405.9087666355413,357.52705245677197" stroke="grey" stroke-width="5" />
<circle cx="405.9087666355413" cy="357.52705245677197" r="2.5" fill="grey" stroke="none" />
<path d="M405.9087666355413,357.52705245677197 A170.73869209321134,170.73869209321134,0,0,0,391.69673030458455,368.0071867449499" stroke="grey" stroke-width="5" fill="none" />
<circle cx="391.69673030458455" cy="336.0071867449499" r="5" fill="black" stroke="none" />
<circle cx="391.69673030458455" cy="368.0071867449499" r="5" fill="black" stroke="none" />
<path d="M391.69673030458455,368.0071867449499 L400.0456517116697,378.18229620624" stroke="grey" stroke-width="5" />
<circle cx="400.0456517116697" cy="378.18229620624" r="2.5" fill="grey" stroke="none" />
<path d="M400.0456517116697,378.18229620624 A157.57672638854092,157.57672638854092,0,0,0,343.69673030458455,480.0071867449499" stroke="grey" stroke-width="5" fill="none" />
<circle cx="391.69673030458455" cy="368.0071867449499" r="5" fill="black" stroke="none" />
<circle cx="343.69673030458455" cy="480.0071867449499" r="5" fill="black" stroke="none" />
<path d="M279.69673030458455,424.0071867449499 L351.0366743124198,448.61564149057625" stroke="grey" stroke-width="5" />
<circle cx="351.0366743124198" cy="448.61564149057625" r="2.5" fill="grey" stroke="none" />
<path d="M351.0366743124198,448.61564149057625 A157.57672638854092,157.57672638854092,0,0,0,343.69673030458455,480.0071867449499" stroke="grey" stroke-width="5" fill="none" />
<circle cx="279.69673030458455" cy="424.0071867449499" r="5" fill="black" stroke="none" />
<circle cx="343.69673030458455" cy="480.0071867449499" r="5" fill="black" stroke="none" />
<path d="M343.69673030458455,480.0071867449499 A157.57672638854092,157.57672638854092,0,0,0,344.8936194483614,527.7927222757927" stroke="grey" stroke-width="5" fill="none" />
<path d="M344.8936194483614,527.7927222757927 L343.69673030458455,528.0071867449499" stroke="grey" stroke-width="5" />
<circle cx="344.8936194483614" cy="527.7927222757927" r="2.5" fill="grey" stroke="none" />
<circle cx="343.69673030458455" cy="480.0071867449499" r="5" fill="black" stroke="none" />
<circle cx="343.69673030458455" cy="528.0071867449499" r="5" fill="black" stroke="none" />
<path d="M439.69673030458455,360.0071867449499 A152.4285803221343,152.4285803221343,0,0,1,482.91434294392604,348.53200858932746" stroke="grey" stroke-width="5" fill="none" />
<path d="M482.914342943926,348.53200858932746 L479.69673030458455,320.0071867449499" stroke="grey" stroke-width="5" />
<circle cx="482.914342943926" cy="348.53200858932746" r="2.5" fill="grey" stroke="none" />
<circle cx="439.69673030458455" cy="360.0071867449499" r="5" fill="black" stroke="none" />
<circle cx="479.69673030458455" cy="320.0071867449499" r="5" fill="black" stroke="none" />
<path d="M439.69673030458455,360.0071867449499 L469.5445185002883,429.29821955399024" stroke="grey" stroke-width="5" />
<circle cx="469.5445185002883" cy="429.29821955399024" r="2.5" fill="grey" stroke="none" />
<path d="M469.5445185002883,429.29821955399024 A76.98232337111585,76.98232337111585,0,0,1,487.69673030458455,424.0071867449499" stroke="grey" stroke-width="5" fill="none" />
<circle cx="439.69673030458455" cy="360.0071867449499" r="5" fill="black" stroke="none" />
<circle cx="487.69673030458455" cy="424.0071867449499" r="5" fill="black" stroke="none" />
<path d="M391.69673030458455,368.0071867449499 L438.4629674957626,425.0027624978935" stroke="grey" stroke-width="5" />
<circle cx="438.4629674957626" cy="425.0027624978935" r="2.5" fill="grey" stroke="none" />
<path d="M438.4629674957626,425.0027624978935 A97.01232912560617,97.01232912560617,0,0,1,439.69673030458455,424.0071867449499" stroke="grey" stroke-width="5" fill="none" />
<circle cx="391.69673030458455" cy="368.0071867449499" r="5" fill="black" stroke="none" />
<circle cx="439.69673030458455" cy="424.0071867449499" r="5" fill="black" stroke="none" />
<path d="M343.69673030458455,480.0071867449499 L390.7568909578159,486.02667056973587" stroke="grey" stroke-width="5" />
<circle cx="390.7568909578159" cy="486.02667056973587" r="2.5" fill="grey" stroke="none" />
<path d="M390.7568909578159,486.02667056973587 A110.13315036159278,110.13315036159278,0,0,1,391.69673030458455,480.0071867449498" stroke="grey" stroke-width="5" fill="none" />
<circle cx="343.69673030458455" cy="480.0071867449499" r="5" fill="black" stroke="none" />
<circle cx="391.69673030458455" cy="480.0071867449499" r="5" fill="black" stroke="none" />
<path d="M343.69673030458455,528.0071867449499 L434.55261642194546,511.727183298282" stroke="grey" stroke-width="5" />
<circle cx="434.55261642194546" cy="511.727183298282" r="2.5" fill="grey" stroke="none" />
<path d="M434.55261642194546,511.727183298282 A66.48974992677073,66.48974992677073,0,0,0,439.69673030458455,528.0071867449499" stroke="grey" stroke-width="5" fill="none" />
<circle cx="343.69673030458455" cy="528.0071867449499" r="5" fill="black" stroke="none" />
<circle cx="439.69673030458455" cy="528.0071867449499" r="5" fill="black" stroke="none" />
<path d="M343.69673030458455,584.0071867449499 L408.91226344544384,548.9562663009208" stroke="grey" stroke-width="5" />
<circle cx="408.91226344544384" cy="548.9562663009208" r="2.5" fill="grey" stroke="none" />
<path d="M408.91226344544384,548.9562663009208 A103.41030780709869,103.41030780709869,0,0,0,439.69673030458455,584.0071867449499" stroke="grey" stroke-width="5" fill="none" />
<circle cx="343.69673030458455" cy="584.0071867449499" r="5" fill="black" stroke="none" />
<circle cx="439.69673030458455" cy="584.0071867449499" r="5" fill="black" stroke="none" />
<path d="M487.69673030458455,424.0071867449499 A76.98232337111585,76.98232337111585,0,0,0,452.14746568946396,439.6973211899005" stroke="grey" stroke-width="5" fill="none" />
<path d="M452.14746568946396,439.69732118990055 L439.69673030458455,424.0071867449499" stroke="grey" stroke-width="5" />
<circle cx="452.14746568946396" cy="439.69732118990055" r="2.5" fill="grey" stroke="none" />
<circle cx="487.69673030458455" cy="424.0071867449499" r="5" fill="black" stroke="none" />
<circle cx="439.69673030458455" cy="424.0071867449499" r="5" fill="black" stroke="none" />
<path d="M439.69673030458455,424.0071867449499 A97.01232912560617,97.01232912560617,0,0,0,404.5995469068594,482.3890502244082" stroke="grey" stroke-width="5" fill="none" />
<path d="M404.5995469068594,482.38905022440827 L391.69673030458455,480.0071867449499" stroke="grey" stroke-width="5" />
<circle cx="404.5995469068594" cy="482.38905022440827" r="2.5" fill="grey" stroke="none" />
<circle cx="439.69673030458455" cy="424.0071867449499" r="5" fill="black" stroke="none" />
<circle cx="391.69673030458455" cy="480.0071867449499" r="5" fill="black" stroke="none" />
<path d="M391.69673030458455,480.0071867449499 L434.6149883603889,487.92990893934797" stroke="grey" stroke-width="5" />
<circle cx="434.6149883603889" cy="487.92990893934797" r="2.5" fill="grey" stroke="none" />
<path d="M434.6149883603889,487.9299089393479 A66.48974992677073,66.48974992677073,0,0,0,439.69673030458455,528.0071867449499" stroke="grey" stroke-width="5" fill="none" />
<circle cx="391.69673030458455" cy="480.0071867449499" r="5" fill="black" stroke="none" />
<circle cx="439.69673030458455" cy="528.0071867449499" r="5" fill="black" stroke="none" />
<path d="M439.69673030458455,528.0071867449499 A66.48974992677073,66.48974992677073,0,0,0,461.2267925041458,554.0141206149647" stroke="grey" stroke-width="5" fill="none" />
<path d="M461.2267925041458,554.0141206149647 L439.69673030458455,584.0071867449499" stroke="grey" stroke-width="5" />
<circle cx="461.2267925041458" cy="554.0141206149647" r="2.5" fill="grey" stroke="none" />
<circle cx="439.69673030458455" cy="528.0071867449499" r="5" fill="black" stroke="none" />
<circle cx="439.69673030458455" cy="584.0071867449499" r="5" fill="black" stroke="none" />
<path d="M439.69673030458455,584.0071867449499 A103.41030780709869,103.41030780709869,0,0,0,507.3563731115506,603.148318141415" stroke="grey" stroke-width="5" fill="none" />
<path d="M507.3563731115506,603.148318141415 L511.69673030458455,664.0071867449499" stroke="grey" stroke-width="5" />
<circle cx="507.3563731115506" cy="603.148318141415" r="2.5" fill="grey" stroke="none" />
<circle cx="439.69673030458455" cy="584.0071867449499" r="5" fill="black" stroke="none" />
<circle cx="511.69673030458455" cy="664.0071867449499" r="5" fill="black" stroke="none" />
<path d="M487.69673030458455,424.0071867449499 L489.86540756907254,437.40231588140364" stroke="grey" stroke-width="5" />
<circle cx="489.86540756907254" cy="437.40231588140364" r="2.5" fill="grey" stroke="none" />
<path d="M489.8654075690725,437.40231588140364 A63.41277490184912,63.41277490184912,0,0,0,463.69673030458455,448.0071867449499" stroke="grey" stroke-width="5" fill="none" />
<circle cx="487.69673030458455" cy="424.0071867449499" r="5" fill="black" stroke="none" />
<circle cx="463.69673030458455" cy="448.0071867449499" r="5" fill="black" stroke="none" />
<path d="M463.69673030458455,448.0071867449499 A63.41277490184912,63.41277490184912,0,0,0,439.8090156918391,480.04441359500277" stroke="grey" stroke-width="5" fill="none" />
<path d="M439.8090156918391,480.04441359500277 L439.69673030458455,480.0071867449499" stroke="grey" stroke-width="5" />
<circle cx="439.8090156918391" cy="480.04441359500277" r="2.5" fill="grey" stroke="none" />
<circle cx="463.69673030458455" cy="448.0071867449499" r="5" fill="black" stroke="none" />
<circle cx="439.69673030458455" cy="480.0071867449499" r="5" fill="black" stroke="none" />
<path d="M439.69673030458455,480.0071867449499 A63.531070491605284,63.531070491605284,0,0,0,442.3801220171051,526.7609151384183" stroke="grey" stroke-width="5" fill="none" />
<path d="M442.3801220171051,526.7609151384183 L439.69673030458455,528.0071867449499" stroke="grey" stroke-width="5" />
<circle cx="442.3801220171051" cy="526.7609151384183" r="2.5" fill="grey" stroke="none" />
<circle cx="439.69673030458455" cy="480.0071867449499" r="5" fill="black" stroke="none" />
<circle cx="439.69673030458455" cy="528.0071867449499" r="5" fill="black" stroke="none" />
<path d="M439.69673030458455,424.0071867449499 L460.582353794539,450.326775941422" stroke="grey" stroke-width="5" />
<circle cx="460.582353794539" cy="450.326775941422" r="2.5" fill="grey" stroke="none" />
<path d="M460.5823537945391,450.32677594142194 A63.41277490184912,63.41277490184912,0,0,1,463.69673030458455,448.0071867449499" stroke="grey" stroke-width="5" fill="none" />
<circle cx="439.69673030458455" cy="424.0071867449499" r="5" fill="black" stroke="none" />
<circle cx="463.69673030458455" cy="448.0071867449499" r="5" fill="black" stroke="none" />
<path d="M391.69673030458455,480.0071867449499 L437.52450884315857,488.4670072175195" stroke="grey" stroke-width="5" />
<circle cx="437.52450884315857" cy="488.4670072175195" r="2.5" fill="grey" stroke="none" />
<path d="M437.52450884315857,488.4670072175195 A63.531070491605284,63.531070491605284,0,0,1,439.69673030458455,480.0071867449499" stroke="grey" stroke-width="5" fill="none" />
<circle cx="391.69673030458455" cy="480.0071867449499" r="5" fill="black" stroke="none" />
<circle cx="439.69673030458455" cy="480.0071867449499" r="5" fill="black" stroke="none" />
<path d="M487.69673030458455,424.0071867449499 L496.2482140944023,476.82658571621363" stroke="grey" stroke-width="5" />
<circle cx="496.2482140944023" cy="476.82658571621363" r="2.5" fill="grey" stroke="none" />
<path d="M496.2482140944023,476.82658571621363 A23.475157657605543,23.475157657605543,0,0,0,487.69673030458455,480.0071867449499" stroke="grey" stroke-width="5" fill="none" />
<circle cx="487.69673030458455" cy="424.0071867449499" r="5" fill="black" stroke="none" />
<circle cx="487.69673030458455" cy="480.0071867449499" r="5" fill="black" stroke="none" />
<path d="M463.69673030458455,448.0071867449499 L486.56067360393024,480.7524668315823" stroke="grey" stroke-width="5" />
<circle cx="486.56067360393024" cy="480.7524668315823" r="2.5" fill="grey" stroke="none" />
<path d="M486.56067360393024,480.7524668315823 A23.475157657605543,23.475157657605543,0,0,1,487.69673030458455,480.0071867449499" stroke="grey" stroke-width="5" fill="none" />
<circle cx="463.69673030458455" cy="448.0071867449499" r="5" fill="black" stroke="none" />
<circle cx="487.69673030458455" cy="480.0071867449499" r="5" fill="black" stroke="none" />
<path d="M439.69673030458455,480.0071867449499 L477.71753643666307,492.61252109322817" stroke="grey" stroke-width="5" />
<circle cx="477.71753643666307" cy="492.61252109322817" r="2.5" fill="grey" stroke="none" />
<path d="M477.71753643666307,492.61252109322817 A23.475157657605543,23.475157657605543,0,0,1,487.69673030458455,480.0071867449499" stroke="grey" stroke-width="5" fill="none" />
<circle cx="439.69673030458455" cy="480.0071867449499" r="5" fill="black" stroke="none" />
<circle cx="487.69673030458455" cy="480.0071867449499" r="5" fill="black" stroke="none" />
<path d="M439.69673030458455,528.0071867449499 L478.7090677145259,509.8883380537273" stroke="grey" stroke-width="5" />
<circle cx="478.7090677145259" cy="509.8883380537273" r="2.5" fill="grey" stroke="none" />
<path d="M478.7090677145259,509.8883380537273 A23.475157657605543,23.475157657605543,0,0,1,487.69673030458455,480.0071867449499" stroke="grey" stroke-width="5" fill="none" />
<circle cx="439.69673030458455" cy="528.0071867449499" r="5" fill="black" stroke="none" />
<circle cx="487.69673030458455" cy="480.0071867449499" r="5" fill="black" stroke="none" />
<path d="M487.69673030458455,480.0071867449499 A23.475157657605543,23.475157657605543,0,0,0,494.59568076746706,522.8446133843913" stroke="grey" stroke-width="5" fill="none" />
<path d="M494.59568076746706,522.8446133843913 L487.69673030458455,552.0071867449499" stroke="grey" stroke-width="5" />
<circle cx="494.59568076746706" cy="522.8446133843913" r="2.5" fill="grey" stroke="none" />
<circle cx="487.69673030458455" cy="480.0071867449499" r="5" fill="black" stroke="none" />
<circle cx="487.69673030458455" cy="552.0071867449499" r="5" fill="black" stroke="none" />
<path d="M487.69673030458455,552.0071867449499 A53.4426600977367,53.4426600977367,0,0,1,468.8351459979601,543.4150871628027" stroke="grey" stroke-width="5" fill="none" />
<path d="M468.8351459979601,543.4150871628027 L439.69673030458455,584.0071867449499" stroke="grey" stroke-width="5" />
<circle cx="468.8351459979601" cy="543.4150871628027" r="2.5" fill="grey" stroke="none" />
<circle cx="487.69673030458455" cy="552.0071867449499" r="5" fill="black" stroke="none" />
<circle cx="439.69673030458455" cy="584.0071867449499" r="5" fill="black" stroke="none" />
<path d="M487.69673030458455,424.0071867449499 A76.98232337111585,76.98232337111585,0,0,1,534.9449506235796,431.40606048978793" stroke="grey" stroke-width="5" fill="none" />
<path d="M534.9449506235795,431.40606048978793 L591.6967303045845,320.0071867449499" stroke="grey" stroke-width="5" />
<circle cx="534.9449506235795" cy="431.40606048978793" r="2.5" fill="grey" stroke="none" />
<circle cx="487.69673030458455" cy="424.0071867449499" r="5" fill="black" stroke="none" />
<circle cx="591.6967303045845" cy="320.0071867449499" r="5" fill="black" stroke="none" />
<path d="M487.69673030458455,424.0071867449499 A76.98232337111585,76.98232337111585,0,0,1,570.2178879583004,468.444868526805" stroke="grey" stroke-width="5" fill="none" />
<path d="M570.2178879583004,468.444868526805 L615.6967303045845,448.0071867449499" stroke="grey" stroke-width="5" />
<circle cx="570.2178879583004" cy="468.444868526805" r="2.5" fill="grey" stroke="none" />
<circle cx="487.69673030458455" cy="424.0071867449499" r="5" fill="black" stroke="none" />
<circle cx="615.6967303045845" cy="448.0071867449499" r="5" fill="black" stroke="none" />
<path d="M615.6967303045845,448.0071867449499 A126.84236687064102,126.84236687064102,0,0,1,622.901964872405,468.62974236879114" stroke="grey" stroke-width="5" fill="none" />
<path d="M622.901964872405,468.62974236879114 L703.6967303045845,448.0071867449499" stroke="grey" stroke-width="5" />
<circle cx="622.901964872405" cy="468.62974236879114" r="2.5" fill="grey" stroke="none" />
<circle cx="615.6967303045845" cy="448.0071867449499" r="5" fill="black" stroke="none" />
<circle cx="703.6967303045845" cy="448.0071867449499" r="5" fill="black" stroke="none" />
<path d="M487.69673030458455,480.0071867449499 L551.6967303045845,584.0071867449499" stroke="grey" stroke-width="5" />
<circle cx="487.69673030458455" cy="480.0071867449499" r="5" fill="black" stroke="none" />
<circle cx="551.6967303045845" cy="584.0071867449499" r="5" fill="black" stroke="none" />
<circle cx="500" cy="500" r="5" fill="red" stroke="none" />
</svg>