<?xml version="1.0" encoding="UTF-8"?>
<svg xmlns="http://www.w3.org/2000/svg" xmlns:xlink="http://www.w3.org/1999/xlink"
     width="1000" height="1000" viewBox="0 0 1000 1000">
<defs>
</defs>
<rect x="0" y="0" width="1000" height="1000" fill="white" />
<path d="M371.17385928408993,704.5943283371234 L433.4453593674872,605.6982839217035" stroke="grey" stroke-width="5" />
<circle cx="433.4453593674872" cy="605.6982839217035" r="2.5" fill="grey" stroke="none" />
<path d="M433.4453593674872,605.6982839217035 A124.90655472678758,124.90655472678758,0,0,0,491.17385928409,624.5943283371234" stroke="grey" stroke-width="5" fill="none" />
<circle cx="371.17385928408993" cy="704.5943283371234" r="5" fill="black" stroke="none" />
<circle cx="491.17385928408993" cy="624.5943283371234" r="5" fill="black" stroke="none" />
<path d="M491.17385928408993,624.5943283371234 L495.1130312722563,568.9869565687037" stroke="grey" stroke-width="5" />
<circle cx="495.1130312722563" cy="568.9869565687037" r="2.5" fill="grey" stroke="none" />
<path d="M495.1130312722563,568.9869565687037 A69.1598340075954,69.1598340075954,0,0,1,491.17385928408993,568.5943283371234" stroke="grey" stroke-width="5" fill="none" />
<circle cx="491.17385928408993" cy="624.5943283371234" r="5" fill="black" stroke="none" />
<circle cx="491.17385928408993" cy="568.5943283371234" r="5" fill="black" stroke="none" />
<path d="M491.17385928408993,568.5943283371234 A69.1598340075954,69.1598340075954,0,0,1,440.9045972261973,535.9279280081691" stroke="grey" stroke-width="5" fill="none" />
<path d="M440.9045972261973,535.9279280081691 L387.17385928408993,568.5943283371234" stroke="grey" stroke-width="5" />
<circle cx="440.9045972261973" cy="535.9279280081691" r="2.5" fill="grey" stroke="none" />
<circle cx="491.17385928408993" cy="568.5943283371234" r="5" fill="black" stroke="none" />
<circle cx="387.17385928408993" cy="568.5943283371234" r="5" fill="black" stroke="none" />
<path d="M387.17385928408993,568.5943283371234 L430.80746427910594,542.0666299813255" stroke="grey" stroke-width="5" />
<circle cx="430.80746427910594" cy="542.0666299813255" r="2.5" fill="grey" stroke="none" />
<path d="M430.80746427910594,542.0666299813255 A80.97659141673567,80.97659141673567,0,0,1,427.17385928409,464.5943283371235" stroke="grey" stroke-width="5" fill="none" />
<circle cx="387.17385928408993" cy="568.5943283371234" r="5" fill="black" stroke="none" />
<circle cx="427.17385928408993" cy="464.5943283371235" r="5" fill="black" stroke="none" />
<path d="M427.17385928409,464.5943283371235 A80.97659141673567,80.97659141673567,0,0,1,524.5003811204506,422.8187867261364" stroke="grey" stroke-width="5" fill="none" />
<path d="M524.5003811204506,422.8187867261364 L539.17385928409,376.5943283371235" stroke="grey" stroke-width="5" />
<circle cx="524.5003811204506" cy="422.8187867261364" r="2.5" fill="grey" stroke="none" />
<circle cx="427.17385928408993" cy="464.5943283371235" r="5" fill="black" stroke="none" />
<circle cx="539.17385928409" cy="376.5943283371235" r="5" fill="black" stroke="none" />
<path d="M539.1738592840899,376.59432833712344 A129.47413274386264,129.47413274386264,0,0,1,585.3668021704865,402.65494292486966" stroke="grey" stroke-width="5" fill="none" />
<path d="M585.3668021704865,402.65494292486966 L587.17385928409,400.5943283371235" stroke="grey" stroke-width="5" />
<circle cx="585.3668021704865" cy="402.65494292486966" r="2.5" fill="grey" stroke="none" />
<circle cx="539.17385928409" cy="376.5943283371235" r="5" fill="black" stroke="none" />
<circle cx="587.17385928409" cy="400.5943283371235" r="5" fill="black" stroke="none" />
<path d="M587.17385928409,400.5943283371235 L565.5684781049941,425.2312716281321" stroke="grey" stroke-width="5" />
<circle cx="565.5684781049941" cy="425.2312716281321" r="2.5" fill="grey" stroke="none" />
<path d="M565.5684781049941,425.2312716281321 A99.44640799622309,99.44640799622309,0,0,0,539.17385928409,408.5943283371235" stroke="grey" stroke-width="5" fill="none" />
<circle cx="587.17385928409" cy="400.5943283371235" r="5" fill="black" stroke="none" />
<circle cx="539.17385928409" cy="408.5943283371235" r="5" fill="black" stroke="none" />
<path d="M539.17385928409,376.5943283371235 L530.0886324595745,405.2146516593208" stroke="grey" stroke-width="5" />
<circle cx="530.0886324595745" cy="405.2146516593208" r="2.5" fill="grey" stroke="none" />
<path d="M530.0886324595745,405.21465165932074 A99.44640799622309,99.44640799622309,0,0,1,539.17385928409,408.5943283371235" stroke="grey" stroke-width="5" fill="none" />
<circle cx="539.17385928409" cy="376.5943283371235" r="5" fill="black" stroke="none" />
<circle cx="539.17385928409" cy="408.5943283371235" r="5" fill="black" stroke="none" />
<path d="M539.17385928409,408.5943283371235 L491.17385928408993,520.5943283371234" stroke="grey" stroke-width="5" />
<circle cx="539.17385928409" cy="408.5943283371235" r="5" fill="black" stroke="none" />
<circle cx="491.17385928408993" cy="520.5943283371234" r="5" fill="black" stroke="none" />
<path d="M427.17385928408993,464.5943283371235 L479.84924172632645,490.2033648332567" stroke="grey" stroke-width="5" />
<circle cx="479.84924172632645" cy="490.2033648332567" r="2.5" fill="grey" stroke="none" />
<path d="M479.84924172632645,490.2033648332567 A22.405961697599448,22.405961697599448,0,0,0,491.17385928408993,520.5943283371234" stroke="grey" stroke-width="5" fill="none" />
<circle cx="427.17385928408993" cy="464.5943283371235" r="5" fill="black" stroke="none" />
<circle cx="491.17385928408993" cy="520.5943283371234" r="5" fill="black" stroke="none" />
<path d="M491.17385928408993,520.5943283371234 A22.405961697599448,22.405961697599448,0,0,0,497.1405632524135,522.2227527790966" stroke="grey" stroke-width="5" fill="none" />
<path d="M497.1405632524135,522.2227527790966 L491.17385928408993,568.5943283371234" stroke="grey" stroke-width="5" />
<circle cx="497.1405632524135" cy="522.2227527790966" r="2.5" fill="grey" stroke="none" />
<circle cx="491.17385928408993" cy="520.5943283371234" r="5" fill="black" stroke="none" />
<circle cx="491.17385928408993" cy="568.5943283371234" r="5" fill="black" stroke="none" />
<path d="M587.17385928409,400.5943283371235 A132.21486036459714,132.21486036459714,0,0,1,589.1065492729538,402.3230212491368" stroke="grey" stroke-width="5" fill="none" />
<path d="M589.1065492729538,402.3230212491368 L627.17385928409,360.5943283371235" stroke="grey" stroke-width="5" />
<circle cx="589.1065492729538" cy="402.3230212491368" r="2.5" fill="grey" stroke="none" />
<circle cx="587.17385928409" cy="400.5943283371235" r="5" fill="black" stroke="none" />
<circle cx="627.17385928409" cy="360.5943283371235" r="5" fill="black" stroke="none" />
<path d="M587.17385928409,400.5943283371235 A132.21486036459714,132.21486036459714,0,0,1,627.900289031199,466.49947213899935" stroke="grey" stroke-width="5" fill="none" />
<path d="M627.900289031199,466.49947213899935 L635.17385928409,464.5943283371235" stroke="grey" stroke-width="5" />
<circle cx="627.900289031199" cy="466.49947213899935" r="2.5" fill="grey" stroke="none" />
<circle cx="587.17385928409" cy="400.5943283371235" r="5" fill="black" stroke="none" />
<circle cx="635.17385928409" cy="464.5943283371235" r="5" fill="black" stroke="none" />
<path d="M539.17385928409,408.5943283371235 L537.0636893495125,413.5180581844709" stroke="grey" stroke-width="5" />
<circle cx="537.0636893495125" cy="413.5180581844709" r="2.5" fill="grey" stroke="none" />
<path d="M537.0636893495125,413.5180581844709 A94.08954951737057,94.08954951737057,0,0,1,587.17385928409,464.5943283371235" stroke="grey" stroke-width="5" fill="none" />
<circle cx="539.17385928409" cy="408.5943283371235" r="5" fill="black" stroke="none" />
<circle cx="587.17385928409" cy="464.5943283371235" r="5" fill="black" stroke="none" />
<path d="M491.17385928408993,520.5943283371234 A22.405961697599448,22.405961697599448,0,0,0,519.8323434203015,510.4261821417774" stroke="grey" stroke-width="5" fill="none" />
<path d="M519.8323434203015,510.4261821417774 L539.17385928409,520.5943283371234" stroke="grey" stroke-width="5" />
<circle cx="519.8323434203015" cy="510.4261821417774" r="2.5" fill="grey" stroke="none" />
<circle cx="491.17385928408993" cy="520.5943283371234" r="5" fill="black" stroke="none" />
<circle cx="539.17385928409" cy="520.5943283371234" r="5" fill="black" stroke="none" />
<path d="M491.17385928408993,568.5943283371234 A69.1598340075954,69.1598340075954,0,0,0,554.351166820581,542.7671989403037" stroke="grey" stroke-width="5" fill="none" />
<path d="M554.351166820581,542.7671989403037 L587.17385928409,568.5943283371234" stroke="grey" stroke-width="5" />
<circle cx="554.351166820581" cy="542.7671989403037" r="2.5" fill="grey" stroke="none" />
<circle cx="491.17385928408993" cy="568.5943283371234" r="5" fill="black" stroke="none" />
<circle cx="587.17385928409" cy="568.5943283371234" r="5" fill="black" stroke="none" />
<path d="M491.17385928409,624.5943283371234 A124.90655472678758,124.90655472678758,0,0,0,571.605955835686,602.3437076843211" stroke="grey" stroke-width="5" fill="none" />
<path d="M571.6059558356861,602.3437076843211 L587.17385928409,624.5943283371234" stroke="grey" stroke-width="5" />
<circle cx="571.6059558356861" cy="602.3437076843211" r="2.5" fill="grey" stroke="none" />
<circle cx="491.17385928408993" cy="624.5943283371234" r="5" fill="black" stroke="none" />
<circle cx="587.17385928409" cy="624.5943283371234" r="5" fill="black" stroke="none" />
<path d="M635.17385928409,464.5943283371235 L591.019122547206,476.15964221916096" stroke="grey" stroke-width="5" />
<circle cx="591.019122547206" cy="476.15964221916096" r="2.5" fill="grey" stroke="none" />
<path d="M591.019122547206,476.15964221916096 A94.08954951737057,94.08954951737057,0,0,0,587.17385928409,464.5943283371235" stroke="grey" stroke-width="5" fill="none" />
<circle cx="635.17385928409" cy="464.5943283371235" r="5" fill="black" stroke="none" />
<circle cx="587.17385928409" cy="464.5943283371235" r="5" fill="black" stroke="none" />
<path d="M587.17385928409,464.5943283371235 L541.004431771771,483.3460459367421" stroke="grey" stroke-width="5" />
<circle cx="541.004431771771" cy="483.3460459367421" r="2.5" fill="grey" stroke="none" />
<path d="M541.004431771771,483.3460459367421 A44.257401763625104,44.257401763625104,0,0,1,539.17385928409,520.5943283371234" stroke="grey" stroke-width="5" fill="none" />
<circle cx="587.17385928409" cy="464.5943283371235" r="5" fill="black" stroke="none" />
<circle cx="539.17385928409" cy="520.5943283371234" r="5" fill="black" stroke="none" />
<path d="M539.17385928409,520.5943283371234 A44.257401763625104,44.257401763625104,0,0,1,534.7809022508078,527.3679821961116" stroke="grey" stroke-width="5" fill="none" />
<path d="M534.7809022508078,527.3679821961116 L587.17385928409,568.5943283371234" stroke="grey" stroke-width="5" />
<circle cx="534.7809022508078" cy="527.3679821961116" r="2.5" fill="grey" stroke="none" />
<circle cx="539.17385928409" cy="520.5943283371234" r="5" fill="black" stroke="none" />
<circle cx="587.17385928409" cy="568.5943283371234" r="5" fill="black" stroke="none" />
<path d="M587.17385928409,568.5943283371234 A110.92548680309416,110.92548680309416,0,0,1,563.5909422563785,590.8881493124893" stroke="grey" stroke-width="5" fill="none" />
<path d="M563.5909422563786,590.8881493124893 L587.17385928409,624.5943283371234" stroke="grey" stroke-width="5" />
<circle cx="563.5909422563786" cy="590.8881493124893" r="2.5" fill="grey" stroke="none" />
<circle cx="587.17385928409" cy="568.5943283371234" r="5" fill="black" stroke="none" />
<circle cx="587.17385928409" cy="624.5943283371234" r="5" fill="black" stroke="none" />
<path d="M587.1738592840899,624.5943283371234 A152.0625805261151,152.0625805261151,0,0,0,593.3738179590863,620.0181591093808" stroke="grey" stroke-width="5" fill="none" />
<path d="M593.3738179590863,620.0181591093808 L659.17385928409,704.5943283371234" stroke="grey" stroke-width="5" />
<circle cx="593.3738179590863" cy="620.0181591093808" r="2.5" fill="grey" stroke="none" />
<circle cx="587.17385928409" cy="624.5943283371234" r="5" fill="black" stroke="none" />
<circle cx="659.17385928409" cy="704.5943283371234" r="5" fill="black" stroke="none" />
<path d="M635.17385928409,464.5943283371235 L608.1104170361135,471.68297221674567" stroke="grey" stroke-width="5" />
<circle cx="608.1104170361135" cy="471.68297221674567" r="2.5" fill="grey" stroke="none" />
<path d="M608.1104170361135,471.68297221674567 A111.75739946061725,111.75739946061725,0,0,1,611.17385928409,488.5943283371235" stroke="grey" stroke-width="5" fill="none" />
<circle cx="635.17385928409" cy="464.5943283371235" r="5" fill="black" stroke="none" />
<circle cx="611.17385928409" cy="488.5943283371235" r="5" fill="black" stroke="none" />
<path d="M611.17385928409,488.5943283371235 L589.1057717376915,490.8583620083721" stroke="grey" stroke-width="5" />
<circle cx="589.1057717376915" cy="490.8583620083721" r="2.5" fill="grey" stroke="none" />
<path d="M589.1057717376915,490.8583620083721 A89.57347878775033,89.57347878775033,0,0,1,587.1738592840899,520.5943283371234" stroke="grey" stroke-width="5" fill="none" />
<circle cx="611.17385928409" cy="488.5943283371235" r="5" fill="black" stroke="none" />
<circle cx="587.17385928409" cy="520.5943283371234" r="5" fill="black" stroke="none" />
<path d="M587.1738592840899,520.5943283371234 A89.57347878775033,89.57347878775033,0,0,1,570.3937937120863,555.390630154926" stroke="grey" stroke-width="5" fill="none" />
<path d="M570.3937937120863,555.390630154926 L587.17385928409,568.5943283371234" stroke="grey" stroke-width="5" />
<circle cx="570.3937937120863" cy="555.390630154926" r="2.5" fill="grey" stroke="none" />
<circle cx="587.17385928409" cy="520.5943283371234" r="5" fill="black" stroke="none" />
<circle cx="587.17385928409" cy="568.5943283371234" r="5" fill="black" stroke="none" />
<path d="M587.17385928409,464.5943283371235 A94.08954951737057,94.08954951737057,0,0,1,593.5982618478316,490.39746348892754" stroke="grey" stroke-width="5" fill="none" />
<path d="M593.5982618478316,490.39746348892754 L611.17385928409,488.5943283371235" stroke="grey" stroke-width="5" />
<circle cx="593.5982618478316" cy="490.39746348892754" r="2.5" fill="grey" stroke="none" />
<circle cx="587.17385928409" cy="464.5943283371235" r="5" fill="black" stroke="none" />
<circle cx="611.17385928409" cy="488.5943283371235" r="5" fill="black" stroke="none" />
<path d="M539.17385928409,520.5943283371234 A44.257401763625104,44.257401763625104,0,0,0,543.0717726478354,510.17546125932904" stroke="grey" stroke-width="5" fill="none" />
<path d="M543.0717726478354,510.17546125932904 L587.17385928409,520.5943283371234" stroke="grey" stroke-width="5" />
<circle cx="543.0717726478354" cy="510.17546125932904" r="2.5" fill="grey" stroke="none" />
<circle cx="539.17385928409" cy="520.5943283371234" r="5" fill="black" stroke="none" />
<circle cx="587.17385928409" cy="520.5943283371234" r="5" fill="black" stroke="none" />
<path d="M635.17385928409,464.5943283371235 L632.2716435860469,465.354496735392" stroke="grey" stroke-width="5" />
<circle cx="632.2716435860469" cy="465.354496735392" r="2.5" fill="grey" stroke="none" />
<path d="M632.2716435860469,465.354496735392 A136.73367761240166,136.73367761240166,0,0,1,635.17385928409,520.5943283371236" stroke="grey" stroke-width="5" fill="none" />
<circle cx="635.17385928409" cy="464.5943283371235" r="5" fill="black" stroke="none" />
<circle cx="635.17385928409" cy="520.5943283371234" r="5" fill="black" stroke="none" />
<path d="M611.17385928409,488.5943283371235 A111.75739946061725,111.75739946061725,0,0,1,610.4825033044758,516.8324923221861" stroke="grey" stroke-width="5" fill="none" />
<path d="M610.4825033044758,516.8324923221861 L635.17385928409,520.5943283371234" stroke="grey" stroke-width="5" />
<circle cx="610.4825033044758" cy="516.8324923221861" r="2.5" fill="grey" stroke="none" />
<circle cx="611.17385928409" cy="488.5943283371235" r="5" fill="black" stroke="none" />
<circle cx="635.17385928409" cy="520.5943283371234" r="5" fill="black" stroke="none" />
<path d="M587.1738592840899,520.5943283371234 A89.57347878775033,89.57347878775033,0,0,0,588.5516503956271,513.4912310168565" stroke="grey" stroke-width="5" fill="none" />
<path d="M588.5516503956271,513.4912310168565 L635.17385928409,520.5943283371234" stroke="grey" stroke-width="5" />
<circle cx="588.5516503956271" cy="513.4912310168565" r="2.5" fill="grey" stroke="none" />
<circle cx="587.17385928409" cy="520.5943283371234" r="5" fill="black" stroke="none" />
<circle cx="635.17385928409" cy="520.5943283371234" r="5" fill="black" stroke="none" />
<path d="M587.17385928409,568.5943283371234 A110.92548680309416,110.92548680309416,0,0,0,609.660080866432,516.7071926687576" stroke="grey" stroke-width="5" fill="none" />
<path d="M609.660080866432,516.7071926687576 L635.17385928409,520.5943283371234" stroke="grey" stroke-width="5" />
<circle cx="609.660080866432" cy="516.7071926687576" r="2.5" fill="grey" stroke="none" />
<circle cx="587.17385928409" cy="568.5943283371234" r="5" fill="black" stroke="none" />
<circle cx="635.17385928409" cy="520.5943283371234" r="5" fill="black" stroke="none" />
<path d="M635.17385928409,520.5943283371236 A136.73367761240166,136.73367761240166,0,0,1,612.8056853470791,577.272090348249" stroke="grey" stroke-width="5" fill="none" />
<path d="M612.8056853470792,577.272090348249 L635.17385928409,592.5943283371234" stroke="grey" stroke-width="5" />
<circle cx="612.8056853470792" cy="577.272090348249" r="2.5" fill="grey" stroke="none" />
<circle cx="635.17385928409" cy="520.5943283371234" r="5" fill="black" stroke="none" />
<circle cx="635.17385928409" cy="592.5943283371234" r="5" fill="black" stroke="none" />
<path d="M635.17385928409,592.5943283371234 L625.4520752416157,585.9348893862862" stroke="grey" stroke-width="5" />
<circle cx="625.4520752416157" cy="585.9348893862862" r="2.5" fill="grey" stroke="none" />
<path d="M625.4520752416156,585.9348893862862 A152.0625805261151,152.0625805261151,0,0,1,587.1738592840899,624.5943283371234" stroke="grey" stroke-width="5" fill="none" />
<circle cx="635.17385928409" cy="592.5943283371234" r="5" fill="black" stroke="none" />
<circle cx="587.17385928409" cy="624.5943283371234" r="5" fill="black" stroke="none" />
<path d="M635.17385928409,464.5943283371235 A139.7337962686707,139.7337962686707,0,0,0,620.7237930087393,429.63452820283646" stroke="grey" stroke-width="5" fill="none" />
<path d="M620.7237930087393,429.63452820283646 L739.17385928409,360.5943283371235" stroke="grey" stroke-width="5" />
<circle cx="620.7237930087393" cy="429.63452820283646" r="2.5" fill="grey" stroke="none" />
<circle cx="635.17385928409" cy="464.5943283371235" r="5" fill="black" stroke="none" />
<circle cx="739.17385928409" cy="360.5943283371235" r="5" fill="black" stroke="none" />
<path d="M635.17385928409,464.5943283371235 A139.7337962686707,139.7337962686707,0,0,1,639.6027524827704,493.94976703847516" stroke="grey" stroke-width="5" fill="none" />
<path d="M639.6027524827704,493.94976703847516 L763.17385928409,488.5943283371235" stroke="grey" stroke-width="5" />
<circle cx="639.6027524827704" cy="493.94976703847516" r="2.5" fill="grey" stroke="none" />
<circle cx="635.17385928409" cy="464.5943283371235" r="5" fill="black" stroke="none" />
<circle cx="763.17385928409" cy="488.5943283371235" r="5" fill="black" stroke="none" />
<path d="M763.17385928409,488.5943283371235 A263.42089810142875,263.42089810142875,0,0,1,763.2820710261265,491.448939670601" stroke="grey" stroke-width="5" fill="none" />
<path d="M763.2820710261265,491.448939670601 L851.17385928409,488.5943283371235" stroke="grey" stroke-width="5" />
<circle cx="763.2820710261265" cy="491.448939670601" r="2.5" fill="grey" stroke="none" />
<circle cx="763.17385928409" cy="488.5943283371235" r="5" fill="black" stroke="none" />
<circle cx="851.17385928409" cy="488.5943283371235" r="5" fill="black" stroke="none" />
<path d="M635.17385928409,520.5943283371236 A136.73367761240166,136.73367761240166,0,0,1,615.9209697039205,572.5150148335842" stroke="grey" stroke-width="5" fill="none" />
<path d="M615.9209697039205,572.5150148335842 L699.17385928409,624.5943283371234" stroke="grey" stroke-width="5" />
<circle cx="615.9209697039205" cy="572.5150148335842" r="2.5" fill="grey" stroke="none" />
<circle cx="635.17385928409" cy="520.5943283371234" r="5" fill="black" stroke="none" />
<circle cx="699.17385928409" cy="624.5943283371234" r="5" fill="black" stroke="none" />
<circle cx="500" cy="500" r="5" fill="red" stroke="none" />
</svg>