<?xml version="1.0" encoding="UTF-8"?>
<svg xmlns="http://www.w3.org/2000/svg" xmlns:xlink="http://www.w3.org/1999/xlink"
     width="1000" height="1000" viewBox="0 0 1000 1000">
<defs>
</defs>
<rect x="0" y="0" width="1000" height="1000" fill="white" />
<path d="M264.3106021665413,684.0 L377.3786874855838,595.7290472547918" stroke="grey" stroke-width="5" />
<circle cx="377.3786874855838" cy="595.7290472547918" r="2.5" fill="grey" stroke="none" />
<path d="M377.3786874855837,595.7290472547917 A155.56361004768527,155.56361004768527,0,0,0,384.3106021665413,604.0" stroke="grey" stroke-width="5" fill="none" />
<circle cx="264.3106021665413" cy="684.0" r="5" fill="black" stroke="none" />
<circle cx="384.3106021665413" cy="604.0" r="5" fill="black" stroke="none" />
<path d="M384.3106021665413,604.0 L406.8527909129149,583.7355014934235" stroke="grey" stroke-width="5" />
<circle cx="406.8527909129149" cy="583.7355014934235" r="2.5" fill="grey" stroke="none" />
<path d="M406.8527909129149,583.7355014934235 A125.2518932833683,125.2518932833683,0,0,1,384.3106021665413,548.0" stroke="grey" stroke-width="5" fill="none" />
<circle cx="384.3106021665413" cy="604.0" r="5" fill="black" stroke="none" />
<circle cx="384.3106021665413" cy="548.0" r="5" fill="black" stroke="none" />
<path d="M384.3106021665413,548.0 A125.2518932833683,125.2518932833683,0,0,1,377.63479270588044,526.7356094924995" stroke="grey" stroke-width="5" fill="none" />
<path d="M377.63479270588044,526.7356094924995 L-219.6893978334587,48.0" stroke="grey" stroke-width="5" />
<circle cx="377.63479270588044" cy="526.7356094924995" r="2.5" fill="grey" stroke="none" />
<circle cx="384.3106021665413" cy="548.0" r="5" fill="black" stroke="none" />
<circle cx="280.3106021665413" cy="548.0" r="5" fill="black" stroke="none" />
<path d="M280.3106021665413,548.0 L316.1243736712252,540.1750387174897" stroke="grey" stroke-width="5" />
<circle cx="316.1243736712252" cy="540.1750387174897" r="2.5" fill="grey" stroke="none" />
<path d="M316.1243736712252,540.1750387174897 A188.2133887207576,188.2133887207576,0,0,1,320.31060216654123,444.0000000000001" stroke="grey" stroke-width="5" fill="none" />
<circle cx="280.3106021665413" cy="548.0" r="5" fill="black" stroke="none" />
<circle cx="320.3106021665413" cy="444.0" r="5" fill="black" stroke="none" />
<path d="M320.3106021665413,444.0 L348.09034069805716,452.65752446455815" stroke="grey" stroke-width="5" />
<circle cx="348.09034069805716" cy="452.65752446455815" r="2.5" fill="grey" stroke="none" />
<path d="M348.09034069805716,452.65752446455826 A159.1158526956263,159.1158526956263,0,0,1,432.3106021665413,356.0" stroke="grey" stroke-width="5" fill="none" />
<circle cx="320.3106021665413" cy="444.0" r="5" fill="black" stroke="none" />
<circle cx="432.3106021665413" cy="356.0" r="5" fill="black" stroke="none" />
<path d="M432.3106021665413,356.0 L448.26825712292776,389.94774347636167" stroke="grey" stroke-width="5" />
<circle cx="448.26825712292776" cy="389.94774347636167" r="2.5" fill="grey" stroke="none" />
<path d="M448.26825712292776,389.94774347636167 A121.60457387386467,121.60457387386467,0,0,1,480.3106021665413,380.0" stroke="grey" stroke-width="5" fill="none" />
<circle cx="432.3106021665413" cy="356.0" r="5" fill="black" stroke="none" />
<circle cx="480.3106021665413" cy="380.0" r="5" fill="black" stroke="none" />
<path d="M480.3106021665413,380.0 A121.60457387386467,121.60457387386467,0,0,0,437.10089948922166,395.9261053770965" stroke="grey" stroke-width="5" fill="none" />
<path d="M437.10089948922166,395.9261053770965 L-67.68939783345871,-112.0" stroke="grey" stroke-width="5" />
<circle cx="437.10089948922166" cy="395.9261053770965" r="2.5" fill="grey" stroke="none" />
<circle cx="480.3106021665413" cy="380.0" r="5" fill="black" stroke="none" />
<circle cx="432.3106021665413" cy="388.0" r="5" fill="black" stroke="none" />
<path d="M432.3106021665413,356.0 L444.32844832774214,381.56633538786633" stroke="grey" stroke-width="5" />
<circle cx="444.32844832774214" cy="381.56633538786633" r="2.5" fill="grey" stroke="none" />
<path d="M444.32844832774214,381.56633538786633 A130.8657884210241,130.8657884210241,0,0,0,432.3106021665413,388.0" stroke="grey" stroke-width="5" fill="none" />
<circle cx="432.3106021665413" cy="356.0" r="5" fill="black" stroke="none" />
<circle cx="432.3106021665413" cy="388.0" r="5" fill="black" stroke="none" />
<path d="M432.3106021665413,388.0 L440.16048220434527,400.98854166788675" stroke="grey" stroke-width="5" />
<circle cx="440.16048220434527" cy="400.98854166788675" r="2.5" fill="grey" stroke="none" />
<path d="M440.16048220434527,400.98854166788675 A115.68939783345871,115.68939783345871,0,0,0,384.3106021665413,500.0" stroke="grey" stroke-width="5" fill="none" />
<circle cx="432.3106021665413" cy="388.0" r="5" fill="black" stroke="none" />
<circle cx="384.3106021665413" cy="500.0" r="5" fill="black" stroke="none" />
<path d="M320.3106021665413,444.0 L389.5500560629512,465.57839841943627" stroke="grey" stroke-width="5" />
<circle cx="389.5500560629512" cy="465.57839841943627" r="2.5" fill="grey" stroke="none" />
<path d="M389.5500560629512,465.5783984194363 A115.68939783345871,115.68939783345871,0,0,0,384.3106021665413,500.0" stroke="grey" stroke-width="5" fill="none" />
<circle cx="320.3106021665413" cy="444.0" r="5" fill="black" stroke="none" />
<circle cx="384.3106021665413" cy="500.0" r="5" fill="black" stroke="none" />
<path d="M384.3106021665413,500.0 A115.68939783345871,115.68939783345871,0,0,0,393.14303823904356,544.3353864794904" stroke="grey" stroke-width="5" fill="none" />
<path d="M393.14303823904356,544.3353864794904 L-115.68939783345871,48.0" stroke="grey" stroke-width="5" />
<circle cx="393.14303823904356" cy="544.3353864794904" r="2.5" fill="grey" stroke="none" />
<circle cx="384.3106021665413" cy="500.0" r="5" fill="black" stroke="none" />
<circle cx="384.3106021665413" cy="548.0" r="5" fill="black" stroke="none" />
<path d="M480.3106021665413,380.0 A121.60457387386467,121.60457387386467,0,0,1,515.313747835618,379.36351499537415" stroke="grey" stroke-width="5" fill="none" />
<path d="M515.313747835618,379.36351499537415 L20.310602166541287,-160.0" stroke="grey" stroke-width="5" />
<circle cx="515.313747835618" cy="379.36351499537415" r="2.5" fill="grey" stroke="none" />
<circle cx="480.3106021665413" cy="380.0" r="5" fill="black" stroke="none" />
<circle cx="520.3106021665412" cy="340.0" r="5" fill="black" stroke="none" />
<path d="M480.3106021665413,380.0 L489.8400337184373,438.07855557087123" stroke="grey" stroke-width="5" />
<circle cx="489.8400337184373" cy="438.07855557087123" r="2.5" fill="grey" stroke="none" />
<path d="M489.8400337184373,438.07855557087123 A62.749423862153286,62.749423862153286,0,0,1,528.3106021665412,444.0" stroke="grey" stroke-width="5" fill="none" />
<circle cx="480.3106021665413" cy="380.0" r="5" fill="black" stroke="none" />
<circle cx="528.3106021665412" cy="444.0" r="5" fill="black" stroke="none" />
<path d="M432.3106021665413,388.0 L469.2961888483023,449.19696497447137" stroke="grey" stroke-width="5" />
<circle cx="469.2961888483023" cy="449.19696497447137" r="2.5" fill="grey" stroke="none" />
<path d="M469.2961888483023,449.19696497447137 A59.36052886425633,59.36052886425633,0,0,1,480.3106021665413,444.0" stroke="grey" stroke-width="5" fill="none" />
<circle cx="432.3106021665413" cy="388.0" r="5" fill="black" stroke="none" />
<circle cx="480.3106021665413" cy="444.0" r="5" fill="black" stroke="none" />
<path d="M384.3106021665413,500.0 L432.3106021665413,500.0" stroke="grey" stroke-width="5" />
<circle cx="432.3106021665413" cy="500.0" r="2.5" fill="grey" stroke="none" />
<path d="M432.3106021665413,500.0 A67.68939783345871,67.68939783345871,0,0,1,432.3106021665413,500.0" stroke="grey" stroke-width="5" fill="none" />
<circle cx="384.3106021665413" cy="500.0" r="5" fill="black" stroke="none" />
<circle cx="432.3106021665413" cy="500.0" r="5" fill="black" stroke="none" />
<path d="M384.3106021665413,548.0 L452.0796081252784,519.8823647893636" stroke="grey" stroke-width="5" />
<circle cx="452.0796081252784" cy="519.8823647893636" r="2.5" fill="grey" stroke="none" />
<path d="M452.0796081252784,519.8823647893636 A51.88132985038268,51.88132985038268,0,0,0,480.3106021665413,548.0" stroke="grey" stroke-width="5" fill="none" />
<circle cx="384.3106021665413" cy="548.0" r="5" fill="black" stroke="none" />
<circle cx="480.3106021665413" cy="548.0" r="5" fill="black" stroke="none" />
<path d="M384.3106021665413,604.0 L421.28350500103227,570.7628843541704" stroke="grey" stroke-width="5" />
<circle cx="421.28350500103227" cy="570.7628843541704" r="2.5" fill="grey" stroke="none" />
<path d="M421.28350500103227,570.7628843541704 A105.847401418477,105.847401418477,0,0,0,480.31060216654123,604.0" stroke="grey" stroke-width="5" fill="none" />
<circle cx="384.3106021665413" cy="604.0" r="5" fill="black" stroke="none" />
<circle cx="480.3106021665413" cy="604.0" r="5" fill="black" stroke="none" />
<path d="M528.3106021665412,444.0 L526.781637402173,447.02438027636924" stroke="grey" stroke-width="5" />
<circle cx="526.781637402173" cy="447.02438027636924" r="2.5" fill="grey" stroke="none" />
<path d="M526.781637402173,447.02438027636924 A59.36052886425633,59.36052886425633,0,0,0,480.3106021665413,444.0" stroke="grey" stroke-width="5" fill="none" />
<circle cx="528.3106021665412" cy="444.0" r="5" fill="black" stroke="none" />
<circle cx="480.3106021665413" cy="444.0" r="5" fill="black" stroke="none" />
<path d="M480.3106021665413,444.0 A59.36052886425633,59.36052886425633,0,0,0,440.6394711357437,500.0" stroke="grey" stroke-width="5" fill="none" />
<path d="M440.6394711357437,500.0 L-67.68939783345871,0.0" stroke="grey" stroke-width="5" />
<circle cx="440.6394711357437" cy="500.0" r="2.5" fill="grey" stroke="none" />
<circle cx="480.3106021665413" cy="444.0" r="5" fill="black" stroke="none" />
<circle cx="432.3106021665413" cy="500.0" r="5" fill="black" stroke="none" />
<path d="M432.3106021665413,500.0 L448.11867014961734,500.0" stroke="grey" stroke-width="5" />
<circle cx="448.11867014961734" cy="500.0" r="2.5" fill="grey" stroke="none" />
<path d="M448.11867014961734,500.0 A51.88132985038268,51.88132985038268,0,0,0,480.3106021665413,548.0" stroke="grey" stroke-width="5" fill="none" />
<circle cx="432.3106021665413" cy="500.0" r="5" fill="black" stroke="none" />
<circle cx="480.3106021665413" cy="548.0" r="5" fill="black" stroke="none" />
<path d="M480.3106021665413,548.0 A51.88132985038268,51.88132985038268,0,0,0,490.34919960373475,550.975822099851" stroke="grey" stroke-width="5" fill="none" />
<path d="M490.3491996037348,550.975822099851 L-19.689397833458713,104.0" stroke="grey" stroke-width="5" />
<circle cx="490.3491996037348" cy="550.975822099851" r="2.5" fill="grey" stroke="none" />
<circle cx="480.3106021665413" cy="548.0" r="5" fill="black" stroke="none" />
<circle cx="480.3106021665413" cy="604.0" r="5" fill="black" stroke="none" />
<path d="M480.31060216654123,604.0 A105.847401418477,105.847401418477,0,0,0,528.9450615787651,601.8128469165149" stroke="grey" stroke-width="5" fill="none" />
<path d="M528.9450615787651,601.8128469165149 L52.31060216654129,184.0" stroke="grey" stroke-width="5" />
<circle cx="528.9450615787651" cy="601.8128469165149" r="2.5" fill="grey" stroke="none" />
<circle cx="480.3106021665413" cy="604.0" r="5" fill="black" stroke="none" />
<circle cx="552.3106021665412" cy="684.0" r="5" fill="black" stroke="none" />
<path d="M528.3106021665412,444.0 L514.5678119903893,471.18402969097065" stroke="grey" stroke-width="5" />
<circle cx="514.5678119903893" cy="471.18402969097065" r="2.5" fill="grey" stroke="none" />
<path d="M514.5678119903893,471.18402969097065 A32.28902740929479,32.28902740929479,0,0,0,504.3106021665413,468.0" stroke="grey" stroke-width="5" fill="none" />
<circle cx="528.3106021665412" cy="444.0" r="5" fill="black" stroke="none" />
<circle cx="504.3106021665413" cy="468.0" r="5" fill="black" stroke="none" />
<path d="M504.3106021665413,468.0 L502.62854498164194,480.4868470429893" stroke="grey" stroke-width="5" />
<circle cx="502.62854498164194" cy="480.4868470429893" r="2.5" fill="grey" stroke="none" />
<path d="M502.62854498164194,480.4868470429893 A19.689397833458713,19.689397833458713,0,0,0,480.3106021665413,500.0" stroke="grey" stroke-width="5" fill="none" />
<circle cx="504.3106021665413" cy="468.0" r="5" fill="black" stroke="none" />
<circle cx="480.3106021665413" cy="500.0" r="5" fill="black" stroke="none" />
<path d="M480.3106021665413,500.0 A19.689397833458713,19.689397833458713,0,0,0,492.52770913617303,518.216400750164" stroke="grey" stroke-width="5" fill="none" />
<path d="M492.52770913617303,518.216400750164 L-19.689397833458713,48.0" stroke="grey" stroke-width="5" />
<circle cx="492.52770913617303" cy="518.216400750164" r="2.5" fill="grey" stroke="none" />
<circle cx="480.3106021665413" cy="500.0" r="5" fill="black" stroke="none" />
<circle cx="480.3106021665413" cy="548.0" r="5" fill="black" stroke="none" />
<path d="M480.3106021665413,444.0 L489.2899959201699,469.5389247785274" stroke="grey" stroke-width="5" />
<circle cx="489.2899959201699" cy="469.5389247785274" r="2.5" fill="grey" stroke="none" />
<path d="M489.2899959201699,469.5389247785274 A32.28902740929479,32.28902740929479,0,0,1,504.3106021665413,468.0" stroke="grey" stroke-width="5" fill="none" />
<circle cx="480.3106021665413" cy="444.0" r="5" fill="black" stroke="none" />
<circle cx="504.3106021665413" cy="468.0" r="5" fill="black" stroke="none" />
<path d="M432.3106021665413,500.0 L480.3106021665413,500.0" stroke="grey" stroke-width="5" />
<circle cx="480.3106021665413" cy="500.0" r="2.5" fill="grey" stroke="none" />
<path d="M480.3106021665413,500.0 A19.689397833458713,19.689397833458713,0,0,1,480.3106021665413,500.0" stroke="grey" stroke-width="5" fill="none" />
<circle cx="432.3106021665413" cy="500.0" r="5" fill="black" stroke="none" />
<circle cx="480.3106021665413" cy="500.0" r="5" fill="black" stroke="none" />
<path d="M528.3106021665412,444.0 L512.7728693859066,474.73452943872326" stroke="grey" stroke-width="5" />
<circle cx="512.7728693859066" cy="474.73452943872326" r="2.5" fill="grey" stroke="none" />
<path d="M512.7728693859066,474.73452943872326 A28.310602166541287,28.310602166541287,0,0,1,528.3106021665412,500.0" stroke="grey" stroke-width="5" fill="none" />
<circle cx="528.3106021665412" cy="444.0" r="5" fill="black" stroke="none" />
<circle cx="528.3106021665412" cy="500.0" r="5" fill="black" stroke="none" />
<path d="M504.3106021665413,468.0 L503.7794803011023,471.9428133326637" stroke="grey" stroke-width="5" />
<circle cx="503.7794803011023" cy="471.9428133326637" r="2.5" fill="grey" stroke="none" />
<path d="M503.7794803011023,471.9428133326637 A28.310602166541287,28.310602166541287,0,0,1,528.3106021665412,500.0" stroke="grey" stroke-width="5" fill="none" />
<circle cx="504.3106021665413" cy="468.0" r="5" fill="black" stroke="none" />
<circle cx="528.3106021665412" cy="500.0" r="5" fill="black" stroke="none" />
<path d="M480.3106021665413,500.0 L528.3106021665412,500.0" stroke="grey" stroke-width="5" />
<circle cx="480.3106021665413" cy="500.0" r="5" fill="black" stroke="none" />
<circle cx="528.3106021665412" cy="500.0" r="5" fill="black" stroke="none" />
<path d="M480.3106021665413,548.0 L489.255890113663,526.1926382363916" stroke="grey" stroke-width="5" />
<circle cx="489.255890113663" cy="526.1926382363916" r="2.5" fill="grey" stroke="none" />
<path d="M489.255890113663,526.1926382363916 A28.310602166541287,28.310602166541287,0,0,0,528.3106021665412,500.0" stroke="grey" stroke-width="5" fill="none" />
<circle cx="480.3106021665413" cy="548.0" r="5" fill="black" stroke="none" />
<circle cx="528.3106021665412" cy="500.0" r="5" fill="black" stroke="none" />
<path d="M528.3106021665412,500.0 A28.310602166541287,28.310602166541287,0,0,1,510.3597279767628,526.347034582276" stroke="grey" stroke-width="5" fill="none" />
<path d="M510.3597279767628,526.347034582276 L28.310602166541287,72.0" stroke="grey" stroke-width="5" />
<circle cx="510.3597279767628" cy="526.347034582276" r="2.5" fill="grey" stroke="none" />
<circle cx="528.3106021665412" cy="500.0" r="5" fill="black" stroke="none" />
<circle cx="528.3106021665412" cy="572.0" r="5" fill="black" stroke="none" />
<path d="M528.3106021665412,572.0 A77.36594984249965,77.36594984249965,0,0,1,485.6086314373469,576.0156477702193" stroke="grey" stroke-width="5" fill="none" />
<path d="M485.60863143734696,576.0156477702193 L-19.689397833458713,104.0" stroke="grey" stroke-width="5" />
<circle cx="485.60863143734696" cy="576.0156477702193" r="2.5" fill="grey" stroke="none" />
<circle cx="528.3106021665412" cy="572.0" r="5" fill="black" stroke="none" />
<circle cx="480.3106021665413" cy="604.0" r="5" fill="black" stroke="none" />
<path d="M528.3106021665412,444.0 A62.749423862153286,62.749423862153286,0,0,1,539.9884937243106,451.64288506648745" stroke="grey" stroke-width="5" fill="none" />
<path d="M539.9884937243106,451.64288506648745 L132.3106021665413,-160.0" stroke="grey" stroke-width="5" />
<circle cx="539.9884937243106" cy="451.64288506648745" r="2.5" fill="grey" stroke="none" />
<circle cx="528.3106021665412" cy="444.0" r="5" fill="black" stroke="none" />
<circle cx="632.3106021665412" cy="340.0" r="5" fill="black" stroke="none" />
<path d="M528.3106021665412,444.0 A62.749423862153286,62.749423862153286,0,0,1,561.4744328099823,487.41491733348005" stroke="grey" stroke-width="5" fill="none" />
<path d="M561.4744328099823,487.41491733348005 L156.3106021665413,-32.0" stroke="grey" stroke-width="5" />
<circle cx="561.4744328099823" cy="487.41491733348005" r="2.5" fill="grey" stroke="none" />
<circle cx="528.3106021665412" cy="444.0" r="5" fill="black" stroke="none" />
<circle cx="656.3106021665412" cy="468.0" r="5" fill="black" stroke="none" />
<path d="M656.3106021665412,468.0 A159.55251282780458,159.55251282780458,0,0,1,658.2012358143071,479.27867435484086" stroke="grey" stroke-width="5" fill="none" />
<path d="M658.2012358143071,479.27867435484086 L244.3106021665413,-32.0" stroke="grey" stroke-width="5" />
<circle cx="658.2012358143071" cy="479.27867435484086" r="2.5" fill="grey" stroke="none" />
<circle cx="656.3106021665412" cy="468.0" r="5" fill="black" stroke="none" />
<circle cx="744.3106021665412" cy="468.0" r="5" fill="black" stroke="none" />
<path d="M528.3106021665412,500.0 A28.310602166541287,28.310602166541287,0,0,1,518.793313804731,521.1731327693631" stroke="grey" stroke-width="5" fill="none" />
<path d="M518.793313804731,521.1731327693631 L92.31060216654129,104.0" stroke="grey" stroke-width="5" />
<circle cx="518.793313804731" cy="521.1731327693631" r="2.5" fill="grey" stroke="none" />
<circle cx="528.3106021665412" cy="500.0" r="5" fill="black" stroke="none" />
<circle cx="592.3106021665412" cy="604.0" r="5" fill="black" stroke="none" />
<circle cx="500" cy="500" r="5" fill="red" stroke="none" />
</svg>