<?xml version="1.0" encoding="UTF-8"?>
<svg xmlns="http://www.w3.org/2000/svg" xmlns:xlink="http://www.w3.org/1999/xlink"
     width="1000" height="1000" viewBox="0 0 1000 1000">
<defs>
</defs>
<rect x="0" y="0" width="1000" height="1000" fill="white" />
<path d="M232.74365810788686,678.7084444253161 L352.6320363775619,598.5417197236196" stroke="grey" stroke-width="5" />
<circle cx="352.6320363775619" cy="598.5417197236196" r="2.5" fill="grey" stroke="none" />
<path d="M352.6320363775619,598.5417197236196 A177.27884032876747,177.27884032876747,0,0,0,352.74365810788686,598.7084444253161" stroke="grey" stroke-width="5" fill="none" />
<circle cx="232.74365810788686" cy="678.7084444253161" r="5" fill="black" stroke="none" />
<circle cx="352.74365810788686" cy="598.7084444253161" r="5" fill="black" stroke="none" />
<path d="M352.74365810788686,598.7084444253161 L372.641180684624,585.3707947442838" stroke="grey" stroke-width="5" />
<circle cx="372.641180684624" cy="585.3707947442838" r="2.5" fill="grey" stroke="none" />
<path d="M372.641180684624,585.3707947442838 A153.32462767826058,153.32462767826058,0,0,1,352.74365810788686,542.7084444253161" stroke="grey" stroke-width="5" fill="none" />
<circle cx="352.74365810788686" cy="598.7084444253161" r="5" fill="black" stroke="none" />
<circle cx="352.74365810788686" cy="542.7084444253161" r="5" fill="black" stroke="none" />
<path d="M352.74365810788686,542.7084444253161 A153.32462767826058,153.32462767826058,0,0,1,348.84350910631395,525.6935150064025" stroke="grey" stroke-width="5" fill="none" />
<path d="M348.84350910631395,525.6935150064024 L-251.25634189211314,42.70844442531612" stroke="grey" stroke-width="5" />
<circle cx="348.84350910631395" cy="525.6935150064024" r="2.5" fill="grey" stroke="none" />
<circle cx="352.74365810788686" cy="542.7084444253161" r="5" fill="black" stroke="none" />
<circle cx="248.74365810788686" cy="542.7084444253161" r="5" fill="black" stroke="none" />
<path d="M248.74365810788686,542.7084444253161 L283.142583415789,536.8613299654791" stroke="grey" stroke-width="5" />
<circle cx="283.142583415789" cy="536.8613299654791" r="2.5" fill="grey" stroke="none" />
<path d="M283.142583415789,536.8613299654792 A219.9679448792527,219.9679448792527,0,0,1,288.74365810788686,438.7084444253161" stroke="grey" stroke-width="5" fill="none" />
<circle cx="248.74365810788686" cy="542.7084444253161" r="5" fill="black" stroke="none" />
<circle cx="288.74365810788686" cy="438.7084444253161" r="5" fill="black" stroke="none" />
<path d="M288.74365810788686,438.7084444253161 L327.8242929200909,450.0468633292532" stroke="grey" stroke-width="5" />
<circle cx="327.8242929200909" cy="450.0468633292532" r="2.5" fill="grey" stroke="none" />
<path d="M327.8242929200909,450.0468633292532 A179.27573726445243,179.27573726445243,0,0,1,400.74365810788686,350.7084444253161" stroke="grey" stroke-width="5" fill="none" />
<circle cx="288.74365810788686" cy="438.7084444253161" r="5" fill="black" stroke="none" />
<circle cx="400.74365810788686" cy="350.7084444253161" r="5" fill="black" stroke="none" />
<path d="M400.74365810788686,350.7084444253161 L425.051844463304,387.2704099886258" stroke="grey" stroke-width="5" />
<circle cx="425.051844463304" cy="387.2704099886258" r="2.5" fill="grey" stroke="none" />
<path d="M425.051844463304,387.2704099886258 A135.3705524938319,135.3705524938319,0,0,1,448.74365810788686,374.7084444253161" stroke="grey" stroke-width="5" fill="none" />
<circle cx="400.74365810788686" cy="350.7084444253161" r="5" fill="black" stroke="none" />
<circle cx="448.74365810788686" cy="374.7084444253161" r="5" fill="black" stroke="none" />
<path d="M448.74365810788686,374.7084444253161 A135.3705524938319,135.3705524938319,0,0,0,412.5534920993276,396.66416527427214" stroke="grey" stroke-width="5" fill="none" />
<path d="M412.5534920993276,396.66416527427214 L-99.25634189211314,-117.29155557468388" stroke="grey" stroke-width="5" />
<circle cx="412.5534920993276" cy="396.66416527427214" r="2.5" fill="grey" stroke="none" />
<circle cx="448.74365810788686" cy="374.7084444253161" r="5" fill="black" stroke="none" />
<circle cx="400.74365810788686" cy="382.7084444253161" r="5" fill="black" stroke="none" />
<path d="M400.74365810788686,350.7084444253161 L414.9299391282339,372.04604281927334" stroke="grey" stroke-width="5" />
<circle cx="414.9299391282339" cy="372.04604281927334" r="2.5" fill="grey" stroke="none" />
<path d="M414.9299391282339,372.04604281927334 A153.65262905311192,153.65262905311192,0,0,0,400.74365810788686,382.7084444253161" stroke="grey" stroke-width="5" fill="none" />
<circle cx="400.74365810788686" cy="350.7084444253161" r="5" fill="black" stroke="none" />
<circle cx="400.74365810788686" cy="382.7084444253161" r="5" fill="black" stroke="none" />
<path d="M400.74365810788686,382.7084444253161 L404.8141279420461,387.5185324223865" stroke="grey" stroke-width="5" />
<circle cx="404.8141279420461" cy="387.5185324223865" r="2.5" fill="grey" stroke="none" />
<path d="M404.8141279420461,387.5185324223865 A147.35138542900395,147.35138542900395,0,0,0,352.74365810788686,494.70844442531615" stroke="grey" stroke-width="5" fill="none" />
<circle cx="400.74365810788686" cy="382.7084444253161" r="5" fill="black" stroke="none" />
<circle cx="352.74365810788686" cy="494.7084444253161" r="5" fill="black" stroke="none" />
<path d="M288.74365810788686,438.7084444253161 L358.48431381420676,458.94221935843393" stroke="grey" stroke-width="5" />
<circle cx="358.48431381420676" cy="458.94221935843393" r="2.5" fill="grey" stroke="none" />
<path d="M358.48431381420676,458.94221935843393 A147.35138542900395,147.35138542900395,0,0,0,352.74365810788686,494.70844442531615" stroke="grey" stroke-width="5" fill="none" />
<circle cx="288.74365810788686" cy="438.7084444253161" r="5" fill="black" stroke="none" />
<circle cx="352.74365810788686" cy="494.7084444253161" r="5" fill="black" stroke="none" />
<path d="M352.74365810788686,494.70844442531615 A147.35138542900395,147.35138542900395,0,0,0,358.4804912323521,541.0446028852822" stroke="grey" stroke-width="5" fill="none" />
<path d="M358.4804912323521,541.0446028852822 L-147.25634189211314,42.70844442531612" stroke="grey" stroke-width="5" />
<circle cx="358.4804912323521" cy="541.0446028852822" r="2.5" fill="grey" stroke="none" />
<circle cx="352.74365810788686" cy="494.7084444253161" r="5" fill="black" stroke="none" />
<circle cx="352.74365810788686" cy="542.7084444253161" r="5" fill="black" stroke="none" />
<path d="M448.74365810788686,374.7084444253161 A135.3705524938319,135.3705524938319,0,0,1,490.80257836526863,364.9422570980905" stroke="grey" stroke-width="5" fill="none" />
<path d="M490.8025783652686,364.9422570980905 L-11.256341892113142,-165.29155557468388" stroke="grey" stroke-width="5" />
<circle cx="490.8025783652686" cy="364.9422570980905" r="2.5" fill="grey" stroke="none" />
<circle cx="448.74365810788686" cy="374.7084444253161" r="5" fill="black" stroke="none" />
<circle cx="488.74365810788686" cy="334.7084444253161" r="5" fill="black" stroke="none" />
<path d="M448.74365810788686,374.7084444253161 L476.7600002060832,443.1918935638439" stroke="grey" stroke-width="5" />
<circle cx="476.7600002060832" cy="443.1918935638439" r="2.5" fill="grey" stroke="none" />
<path d="M476.7600002060832,443.1918935638439 A61.377997257021136,61.377997257021136,0,0,1,496.74365810788686,438.7084444253161" stroke="grey" stroke-width="5" fill="none" />
<circle cx="448.74365810788686" cy="374.7084444253161" r="5" fill="black" stroke="none" />
<circle cx="496.74365810788686" cy="438.7084444253161" r="5" fill="black" stroke="none" />
<path d="M400.74365810788686,382.7084444253161 L448.3868699590441,439.00858932356846" stroke="grey" stroke-width="5" />
<circle cx="448.3868699590441" cy="439.00858932356846" r="2.5" fill="grey" stroke="none" />
<path d="M448.3868699590441,439.00858932356846 A79.89910743510065,79.89910743510065,0,0,1,448.74365810788686,438.7084444253161" stroke="grey" stroke-width="5" fill="none" />
<circle cx="400.74365810788686" cy="382.7084444253161" r="5" fill="black" stroke="none" />
<circle cx="448.74365810788686" cy="438.7084444253161" r="5" fill="black" stroke="none" />
<path d="M352.74365810788686,494.7084444253161 L400.66681897574955,496.43053031844937" stroke="grey" stroke-width="5" />
<circle cx="400.66681897574955" cy="496.43053031844937" r="2.5" fill="grey" stroke="none" />
<path d="M400.66681897574955,496.43053031844937 A99.39729355573029,99.39729355573029,0,0,1,400.74365810788686,494.7084444253161" stroke="grey" stroke-width="5" fill="none" />
<circle cx="352.74365810788686" cy="494.7084444253161" r="5" fill="black" stroke="none" />
<circle cx="400.74365810788686" cy="494.7084444253161" r="5" fill="black" stroke="none" />
<path d="M352.74365810788686,542.7084444253161 L435.92305398785055,518.5841007086054" stroke="grey" stroke-width="5" />
<circle cx="435.92305398785055" cy="518.5841007086054" r="2.5" fill="grey" stroke="none" />
<path d="M435.92305398785055,518.5841007086054 A66.71749252925733,66.71749252925733,0,0,0,448.74365810788686,542.7084444253161" stroke="grey" stroke-width="5" fill="none" />
<circle cx="352.74365810788686" cy="542.7084444253161" r="5" fill="black" stroke="none" />
<circle cx="448.74365810788686" cy="542.7084444253161" r="5" fill="black" stroke="none" />
<path d="M352.74365810788686,598.7084444253161 L407.61276835747253,561.928741424777" stroke="grey" stroke-width="5" />
<circle cx="407.61276835747253" cy="561.928741424777" r="2.5" fill="grey" stroke="none" />
<path d="M407.61276835747253,561.928741424777 A111.22306228937825,111.22306228937825,0,0,0,448.74365810788686,598.7084444253161" stroke="grey" stroke-width="5" fill="none" />
<circle cx="352.74365810788686" cy="598.7084444253161" r="5" fill="black" stroke="none" />
<circle cx="448.74365810788686" cy="598.7084444253161" r="5" fill="black" stroke="none" />
<path d="M496.74365810788686,438.7084444253161 A61.377997257021136,61.377997257021136,0,0,0,460.6251970384718,452.91620831938314" stroke="grey" stroke-width="5" fill="none" />
<path d="M460.6251970384718,452.91620831938314 L-51.25634189211314,-61.29155557468388" stroke="grey" stroke-width="5" />
<circle cx="460.6251970384718" cy="452.91620831938314" r="2.5" fill="grey" stroke="none" />
<circle cx="496.74365810788686" cy="438.7084444253161" r="5" fill="black" stroke="none" />
<circle cx="448.74365810788686" cy="438.7084444253161" r="5" fill="black" stroke="none" />
<path d="M448.74365810788686,438.7084444253161 A79.89910743510065,79.89910743510065,0,0,0,420.21419456449746,495.7464579543766" stroke="grey" stroke-width="5" fill="none" />
<path d="M420.21419456449746,495.7464579543766 L-99.25634189211314,-5.291555574683883" stroke="grey" stroke-width="5" />
<circle cx="420.21419456449746" cy="495.7464579543766" r="2.5" fill="grey" stroke="none" />
<circle cx="448.74365810788686" cy="438.7084444253161" r="5" fill="black" stroke="none" />
<circle cx="400.74365810788686" cy="494.7084444253161" r="5" fill="black" stroke="none" />
<path d="M400.74365810788686,494.7084444253161 L433.37711710474736,496.44819987654716" stroke="grey" stroke-width="5" />
<circle cx="433.37711710474736" cy="496.44819987654716" r="2.5" fill="grey" stroke="none" />
<path d="M433.37711710474736,496.44819987654716 A66.71749252925733,66.71749252925733,0,0,0,448.74365810788686,542.7084444253161" stroke="grey" stroke-width="5" fill="none" />
<circle cx="400.74365810788686" cy="494.7084444253161" r="5" fill="black" stroke="none" />
<circle cx="448.74365810788686" cy="542.7084444253161" r="5" fill="black" stroke="none" />
<path d="M448.74365810788686,542.7084444253161 A66.71749252925733,66.71749252925733,0,0,0,469.2537272677602,559.210560903155" stroke="grey" stroke-width="5" fill="none" />
<path d="M469.2537272677602,559.210560903155 L-51.25634189211314,98.70844442531612" stroke="grey" stroke-width="5" />
<circle cx="469.2537272677602" cy="559.210560903155" r="2.5" fill="grey" stroke="none" />
<circle cx="448.74365810788686" cy="542.7084444253161" r="5" fill="black" stroke="none" />
<circle cx="448.74365810788686" cy="598.7084444253161" r="5" fill="black" stroke="none" />
<path d="M448.74365810788686,598.7084444253161 A111.22306228937825,111.22306228937825,0,0,0,512.824159774455,610.4812676932437" stroke="grey" stroke-width="5" fill="none" />
<path d="M512.824159774455,610.4812676932437 L20.74365810788686,178.70844442531612" stroke="grey" stroke-width="5" />
<circle cx="512.824159774455" cy="610.4812676932437" r="2.5" fill="grey" stroke="none" />
<circle cx="448.74365810788686" cy="598.7084444253161" r="5" fill="black" stroke="none" />
<circle cx="520.7436581078869" cy="678.7084444253161" r="5" fill="black" stroke="none" />
<path d="M496.74365810788686,438.7084444253161 L497.54941056415686,453.87448751573123" stroke="grey" stroke-width="5" />
<circle cx="497.54941056415686" cy="453.87448751573123" r="2.5" fill="grey" stroke="none" />
<path d="M497.54941056415686,453.87448751573123 A46.19056495129171,46.19056495129171,0,0,0,472.74365810788686,462.70844442531615" stroke="grey" stroke-width="5" fill="none" />
<circle cx="496.74365810788686" cy="438.7084444253161" r="5" fill="black" stroke="none" />
<circle cx="472.74365810788686" cy="462.7084444253161" r="5" fill="black" stroke="none" />
<path d="M472.74365810788686,462.70844442531615 A46.19056495129171,46.19056495129171,0,0,0,454.05363193974324,495.25663067104017" stroke="grey" stroke-width="5" fill="none" />
<path d="M454.05363193974324,495.25663067104017 L-51.25634189211314,-5.291555574683883" stroke="grey" stroke-width="5" />
<circle cx="454.05363193974324" cy="495.25663067104017" r="2.5" fill="grey" stroke="none" />
<circle cx="472.74365810788686" cy="462.7084444253161" r="5" fill="black" stroke="none" />
<circle cx="448.74365810788686" cy="494.7084444253161" r="5" fill="black" stroke="none" />
<path d="M448.74365810788686,494.70844442531615 A51.52876036313275,51.52876036313275,0,0,0,460.412544621768,532.9855501884939" stroke="grey" stroke-width="5" fill="none" />
<path d="M460.412544621768,532.9855501884939 L-51.25634189211314,42.70844442531612" stroke="grey" stroke-width="5" />
<circle cx="460.412544621768" cy="532.9855501884939" r="2.5" fill="grey" stroke="none" />
<circle cx="448.74365810788686" cy="494.7084444253161" r="5" fill="black" stroke="none" />
<circle cx="448.74365810788686" cy="542.7084444253161" r="5" fill="black" stroke="none" />
<path d="M448.74365810788686,438.7084444253161 L470.3681372003266,464.56666826925766" stroke="grey" stroke-width="5" />
<circle cx="470.3681372003266" cy="464.56666826925766" r="2.5" fill="grey" stroke="none" />
<path d="M470.3681372003266,464.56666826925766 A46.19056495129171,46.19056495129171,0,0,1,472.74365810788686,462.70844442531615" stroke="grey" stroke-width="5" fill="none" />
<circle cx="448.74365810788686" cy="438.7084444253161" r="5" fill="black" stroke="none" />
<circle cx="472.74365810788686" cy="462.7084444253161" r="5" fill="black" stroke="none" />
<path d="M400.74365810788686,494.7084444253161 L448.54431068576093,497.2567935262422" stroke="grey" stroke-width="5" />
<circle cx="448.54431068576093" cy="497.2567935262422" r="2.5" fill="grey" stroke="none" />
<path d="M448.54431068576093,497.2567935262422 A51.52876036313275,51.52876036313275,0,0,1,448.74365810788686,494.70844442531615" stroke="grey" stroke-width="5" fill="none" />
<circle cx="400.74365810788686" cy="494.7084444253161" r="5" fill="black" stroke="none" />
<circle cx="448.74365810788686" cy="494.7084444253161" r="5" fill="black" stroke="none" />
<path d="M496.74365810788686,438.7084444253161 L499.67036353147415,493.7955126950797" stroke="grey" stroke-width="5" />
<circle cx="499.67036353147415" cy="493.7955126950797" r="2.5" fill="grey" stroke="none" />
<path d="M499.67036353147415,493.7955126950797 A6.213237716223247,6.213237716223247,0,0,0,496.74365810788686,494.7084444253161" stroke="grey" stroke-width="5" fill="none" />
<circle cx="496.74365810788686" cy="438.7084444253161" r="5" fill="black" stroke="none" />
<circle cx="496.74365810788686" cy="494.7084444253161" r="5" fill="black" stroke="none" />
<path d="M472.74365810788686,462.7084444253161 L496.3336639933083,494.98379593673315" stroke="grey" stroke-width="5" />
<circle cx="496.3336639933083" cy="494.98379593673315" r="2.5" fill="grey" stroke="none" />
<path d="M496.3336639933083,494.98379593673315 A6.213237716223247,6.213237716223247,0,0,1,496.74365810788686,494.7084444253161" stroke="grey" stroke-width="5" fill="none" />
<circle cx="472.74365810788686" cy="462.7084444253161" r="5" fill="black" stroke="none" />
<circle cx="496.74365810788686" cy="494.7084444253161" r="5" fill="black" stroke="none" />
<path d="M448.74365810788686,494.7084444253161 L493.8196099732381,499.3619545193321" stroke="grey" stroke-width="5" />
<circle cx="493.8196099732381" cy="499.3619545193321" r="2.5" fill="grey" stroke="none" />
<path d="M493.8196099732381,499.3619545193321 A6.213237716223247,6.213237716223247,0,0,1,496.74365810788686,494.7084444253161" stroke="grey" stroke-width="5" fill="none" />
<circle cx="448.74365810788686" cy="494.7084444253161" r="5" fill="black" stroke="none" />
<circle cx="496.74365810788686" cy="494.7084444253161" r="5" fill="black" stroke="none" />
<path d="M448.74365810788686,542.7084444253161 L495.2266216165115,503.97733349448396" stroke="grey" stroke-width="5" />
<circle cx="495.2266216165115" cy="503.97733349448396" r="2.5" fill="grey" stroke="none" />
<path d="M495.2266216165115,503.97733349448396 A6.213237716223247,6.213237716223247,0,0,1,496.74365810788686,494.7084444253161" stroke="grey" stroke-width="5" fill="none" />
<circle cx="448.74365810788686" cy="542.7084444253161" r="5" fill="black" stroke="none" />
<circle cx="496.74365810788686" cy="494.7084444253161" r="5" fill="black" stroke="none" />
<path d="M496.74365810788686,494.7084444253161 A6.213237716223247,6.213237716223247,0,0,0,499.6970643833914,506.20584828452075" stroke="grey" stroke-width="5" fill="none" />
<path d="M499.6970643833914,506.20584828452075 L-3.2563418921131415,66.70844442531612" stroke="grey" stroke-width="5" />
<circle cx="499.6970643833914" cy="506.20584828452075" r="2.5" fill="grey" stroke="none" />
<circle cx="496.74365810788686" cy="494.7084444253161" r="5" fill="black" stroke="none" />
<circle cx="496.74365810788686" cy="566.7084444253161" r="5" fill="black" stroke="none" />
<path d="M496.74365810788686,566.7084444253161 A66.78787554761583,66.78787554761583,0,0,1,469.2212917640245,559.2730245515488" stroke="grey" stroke-width="5" fill="none" />
<path d="M469.2212917640245,559.2730245515488 L-51.25634189211314,98.70844442531612" stroke="grey" stroke-width="5" />
<circle cx="469.2212917640245" cy="559.2730245515488" r="2.5" fill="grey" stroke="none" />
<circle cx="496.74365810788686" cy="566.7084444253161" r="5" fill="black" stroke="none" />
<circle cx="448.74365810788686" cy="598.7084444253161" r="5" fill="black" stroke="none" />
<path d="M496.74365810788686,438.7084444253161 A61.377997257021136,61.377997257021136,0,0,1,531.9436989941136,447.58951782461486" stroke="grey" stroke-width="5" fill="none" />
<path d="M531.9436989941136,447.58951782461486 L100.74365810788686,-165.29155557468388" stroke="grey" stroke-width="5" />
<circle cx="531.9436989941136" cy="447.58951782461486" r="2.5" fill="grey" stroke="none" />
<circle cx="496.74365810788686" cy="438.7084444253161" r="5" fill="black" stroke="none" />
<circle cx="600.7436581078869" cy="334.7084444253161" r="5" fill="black" stroke="none" />
<path d="M496.74365810788686,438.7084444253161 A61.377997257021136,61.377997257021136,0,0,1,558.806498909604,482.42006162474854" stroke="grey" stroke-width="5" fill="none" />
<path d="M558.806498909604,482.42006162474854 L124.74365810788686,-37.29155557468388" stroke="grey" stroke-width="5" />
<circle cx="558.806498909604" cy="482.42006162474854" r="2.5" fill="grey" stroke="none" />
<circle cx="496.74365810788686" cy="438.7084444253161" r="5" fill="black" stroke="none" />
<circle cx="624.7436581078869" cy="462.7084444253161" r="5" fill="black" stroke="none" />
<path d="M624.7436581078869,462.70844442531615 A130.19846525714925,130.19846525714925,0,0,1,628.2431637651049,477.5204247630524" stroke="grey" stroke-width="5" fill="none" />
<path d="M628.2431637651049,477.5204247630524 L212.74365810788686,-37.29155557468388" stroke="grey" stroke-width="5" />
<circle cx="628.2431637651049" cy="477.5204247630524" r="2.5" fill="grey" stroke="none" />
<circle cx="624.7436581078869" cy="462.7084444253161" r="5" fill="black" stroke="none" />
<circle cx="712.7436581078869" cy="462.7084444253161" r="5" fill="black" stroke="none" />
<path d="M496.74365810788686,494.7084444253161 L560.7436581078869,598.7084444253161" stroke="grey" stroke-width="5" />
<circle cx="496.74365810788686" cy="494.7084444253161" r="5" fill="black" stroke="none" />
<circle cx="560.7436581078869" cy="598.7084444253161" r="5" fill="black" stroke="none" />
<circle cx="500" cy="500" r="5" fill="red" stroke="none" />
</svg>