<?xml version="1.0" encoding="UTF-8"?>
<svg xmlns="http://www.w3.org/2000/svg" xmlns:xlink="http://www.w3.org/1999/xlink"
     width="1000" height="1000" viewBox="0 0 1000 1000">
<defs>
</defs>
<rect x="0" y="0" width="1000" height="1000" fill="white" />
<path d="M213.35738424366764,647.2057493959599 L340.1614233437407,582.0853430917257" stroke="grey" stroke-width="5" />
<circle cx="340.1614233437407" cy="582.0853430917257" r="2.5" fill="grey" stroke="none" />
<path d="M340.1614233437407,582.0853430917257 A179.6840953951829,179.6840953951829,0,0,1,333.35738424366764,567.2057493959599" stroke="grey" stroke-width="5" fill="none" />
<circle cx="213.35738424366764" cy="647.2057493959599" r="5" fill="black" stroke="none" />
<circle cx="333.35738424366764" cy="567.2057493959599" r="5" fill="black" stroke="none" />
<path d="M333.35738424366764,567.2057493959599 L345.10329130513526,562.4687108970234" stroke="grey" stroke-width="5" />
<circle cx="345.10329130513526" cy="562.4687108970234" r="2.5" fill="grey" stroke="none" />
<path d="M345.10329130513526,562.4687108970234 A167.01895163614722,167.01895163614722,0,0,1,333.35738424366764,511.20574939595986" stroke="grey" stroke-width="5" fill="none" />
<circle cx="333.35738424366764" cy="567.2057493959599" r="5" fill="black" stroke="none" />
<circle cx="333.35738424366764" cy="511.2057493959599" r="5" fill="black" stroke="none" />
<path d="M333.35738424366764,511.20574939595986 A167.01895163614722,167.01895163614722,0,0,1,333.1240257180758,506.90937139660775" stroke="grey" stroke-width="5" fill="none" />
<path d="M333.1240257180758,506.90937139660775 L229.35738424366764,511.2057493959599" stroke="grey" stroke-width="5" />
<circle cx="333.1240257180758" cy="506.90937139660775" r="2.5" fill="grey" stroke="none" />
<circle cx="333.35738424366764" cy="511.2057493959599" r="5" fill="black" stroke="none" />
<circle cx="229.35738424366764" cy="511.2057493959599" r="5" fill="black" stroke="none" />
<path d="M229.35738424366764,511.2057493959599 L251.60311100892955,510.28468218499654" stroke="grey" stroke-width="5" />
<circle cx="251.60311100892955" cy="510.28468218499654" r="2.5" fill="grey" stroke="none" />
<path d="M251.60311100892955,510.28468218499654 A248.6097124974979,248.6097124974979,0,0,1,269.35738424366764,407.20574939595997" stroke="grey" stroke-width="5" fill="none" />
<circle cx="229.35738424366764" cy="511.2057493959599" r="5" fill="black" stroke="none" />
<circle cx="269.35738424366764" cy="407.2057493959599" r="5" fill="black" stroke="none" />
<path d="M269.35738424366764,407.2057493959599 L299.3815207915006,419.2853351301633" stroke="grey" stroke-width="5" />
<circle cx="299.3815207915006" cy="419.2853351301633" r="2.5" fill="grey" stroke="none" />
<path d="M299.3815207915006,419.2853351301633 A216.2466908994937,216.2466908994937,0,0,1,381.35738424366764,319.20574939595997" stroke="grey" stroke-width="5" fill="none" />
<circle cx="269.35738424366764" cy="407.2057493959599" r="5" fill="black" stroke="none" />
<circle cx="381.35738424366764" cy="319.2057493959599" r="5" fill="black" stroke="none" />
<path d="M381.35738424366764,319.2057493959599 L405.64774813115923,356.22076384032994" stroke="grey" stroke-width="5" />
<circle cx="405.64774813115923" cy="356.22076384032994" r="2.5" fill="grey" stroke="none" />
<path d="M405.64774813115923,356.22076384032994 A171.9733007864283,171.9733007864283,0,0,1,429.35738424366764,343.2057493959599" stroke="grey" stroke-width="5" fill="none" />
<circle cx="381.35738424366764" cy="319.2057493959599" r="5" fill="black" stroke="none" />
<circle cx="429.35738424366764" cy="343.2057493959599" r="5" fill="black" stroke="none" />
<path d="M429.35738424366764,343.2057493959599 A171.9733007864283,171.9733007864283,0,0,0,392.78570284538534,365.53844166818044" stroke="grey" stroke-width="5" fill="none" />
<path d="M392.7857028453854,365.5384416681803 L381.35738424366764,351.2057493959599" stroke="grey" stroke-width="5" />
<circle cx="392.7857028453854" cy="365.5384416681803" r="2.5" fill="grey" stroke="none" />
<circle cx="429.35738424366764" cy="343.2057493959599" r="5" fill="black" stroke="none" />
<circle cx="381.35738424366764" cy="351.2057493959599" r="5" fill="black" stroke="none" />
<path d="M381.35738424366764,319.2057493959599 L395.5904365247452,340.8948701605466" stroke="grey" stroke-width="5" />
<circle cx="395.5904365247452" cy="340.8948701605466" r="2.5" fill="grey" stroke="none" />
<path d="M395.5904365247452,340.8948701605466 A190.304490977808,190.304490977808,0,0,0,381.3573842436676,351.20574939595997" stroke="grey" stroke-width="5" fill="none" />
<circle cx="381.35738424366764" cy="319.2057493959599" r="5" fill="black" stroke="none" />
<circle cx="381.35738424366764" cy="351.2057493959599" r="5" fill="black" stroke="none" />
<path d="M381.35738424366764,351.2057493959599 L393.6067580596794,366.5681584738712" stroke="grey" stroke-width="5" />
<circle cx="393.6067580596794" cy="366.5681584738712" r="2.5" fill="grey" stroke="none" />
<path d="M393.60675805967935,366.5681584738713 A170.65631621368584,170.65631621368584,0,0,0,333.35738424366764,463.20574939595997" stroke="grey" stroke-width="5" fill="none" />
<circle cx="381.35738424366764" cy="351.2057493959599" r="5" fill="black" stroke="none" />
<circle cx="333.35738424366764" cy="463.2057493959599" r="5" fill="black" stroke="none" />
<path d="M269.35738424366764,407.2057493959599 L341.67706574512675,436.302066340009" stroke="grey" stroke-width="5" />
<circle cx="341.67706574512675" cy="436.302066340009" r="2.5" fill="grey" stroke="none" />
<path d="M341.67706574512675,436.302066340009 A170.65631621368584,170.65631621368584,0,0,0,333.35738424366764,463.20574939595997" stroke="grey" stroke-width="5" fill="none" />
<circle cx="269.35738424366764" cy="407.2057493959599" r="5" fill="black" stroke="none" />
<circle cx="333.35738424366764" cy="463.2057493959599" r="5" fill="black" stroke="none" />
<path d="M333.35738424366764,463.2057493959599 L336.9092009071745,463.9899811593869" stroke="grey" stroke-width="5" />
<circle cx="336.9092009071745" cy="463.9899811593869" r="2.5" fill="grey" stroke="none" />
<path d="M336.90920090717447,463.98998115938696 A167.01895163614722,167.01895163614722,0,0,0,333.35738424366764,511.20574939595986" stroke="grey" stroke-width="5" fill="none" />
<circle cx="333.35738424366764" cy="463.2057493959599" r="5" fill="black" stroke="none" />
<circle cx="333.35738424366764" cy="511.2057493959599" r="5" fill="black" stroke="none" />
<path d="M429.35738424366764,343.2057493959599 A171.9733007864283,171.9733007864283,0,0,1,473.5410579817632,330.07430867977934" stroke="grey" stroke-width="5" fill="none" />
<path d="M473.5410579817632,330.07430867977934 L469.35738424366764,303.2057493959599" stroke="grey" stroke-width="5" />
<circle cx="473.5410579817632" cy="330.07430867977934" r="2.5" fill="grey" stroke="none" />
<circle cx="429.35738424366764" cy="343.2057493959599" r="5" fill="black" stroke="none" />
<circle cx="469.35738424366764" cy="303.2057493959599" r="5" fill="black" stroke="none" />
<path d="M429.35738424366764,343.2057493959599 L460.76392511762583,412.913885025918" stroke="grey" stroke-width="5" />
<circle cx="460.76392511762583" cy="412.913885025918" r="2.5" fill="grey" stroke="none" />
<path d="M460.76392511762583,412.913885025918 A95.51681000459712,95.51681000459712,0,0,1,477.35738424366764,407.2057493959599" stroke="grey" stroke-width="5" fill="none" />
<circle cx="429.35738424366764" cy="343.2057493959599" r="5" fill="black" stroke="none" />
<circle cx="477.35738424366764" cy="407.2057493959599" r="5" fill="black" stroke="none" />
<path d="M381.35738424366764,351.2057493959599 L427.2924476543076,408.8146725730471" stroke="grey" stroke-width="5" />
<circle cx="427.2924476543076" cy="408.8146725730471" r="2.5" fill="grey" stroke="none" />
<path d="M427.2924476543075,408.8146725730472 A116.6239774062873,116.6239774062873,0,0,1,429.35738424366764,407.2057493959599" stroke="grey" stroke-width="5" fill="none" />
<circle cx="381.35738424366764" cy="351.2057493959599" r="5" fill="black" stroke="none" />
<circle cx="429.35738424366764" cy="407.2057493959599" r="5" fill="black" stroke="none" />
<path d="M333.35738424366764,463.2057493959599 L378.7043901990073,473.2182488619032" stroke="grey" stroke-width="5" />
<circle cx="378.7043901990073" cy="473.2182488619032" r="2.5" fill="grey" stroke="none" />
<path d="M378.7043901990073,473.21824886190325 A124.21709685473103,124.21709685473103,0,0,1,381.35738424366764,463.2057493959599" stroke="grey" stroke-width="5" fill="none" />
<circle cx="333.35738424366764" cy="463.2057493959599" r="5" fill="black" stroke="none" />
<circle cx="381.35738424366764" cy="463.2057493959599" r="5" fill="black" stroke="none" />
<path d="M333.35738424366764,511.2057493959599 L428.6353104882593,504.79886146025444" stroke="grey" stroke-width="5" />
<circle cx="428.6353104882593" cy="504.79886146025444" r="2.5" fill="grey" stroke="none" />
<path d="M428.6353104882593,504.79886146025444 A71.52585532813902,71.52585532813902,0,0,0,429.35738424366764,511.2057493959599" stroke="grey" stroke-width="5" fill="none" />
<circle cx="333.35738424366764" cy="511.2057493959599" r="5" fill="black" stroke="none" />
<circle cx="429.35738424366764" cy="511.2057493959599" r="5" fill="black" stroke="none" />
<path d="M333.35738424366764,567.2057493959599 L409.57302587015704,536.4685379812531" stroke="grey" stroke-width="5" />
<circle cx="409.57302587015704" cy="536.4685379812531" r="2.5" fill="grey" stroke="none" />
<path d="M409.57302587015704,536.4685379812531 A97.5038046066377,97.5038046066377,0,0,0,429.35738424366764,567.2057493959599" stroke="grey" stroke-width="5" fill="none" />
<circle cx="333.35738424366764" cy="567.2057493959599" r="5" fill="black" stroke="none" />
<circle cx="429.35738424366764" cy="567.2057493959599" r="5" fill="black" stroke="none" />
<path d="M477.35738424366764,407.2057493959599 A95.51681000459712,95.51681000459712,0,0,0,442.14262403417575,424.00009842240866" stroke="grey" stroke-width="5" fill="none" />
<path d="M442.14262403417575,424.00009842240866 L429.35738424366764,407.2057493959599" stroke="grey" stroke-width="5" />
<circle cx="442.14262403417575" cy="424.00009842240866" r="2.5" fill="grey" stroke="none" />
<circle cx="477.35738424366764" cy="407.2057493959599" r="5" fill="black" stroke="none" />
<circle cx="429.35738424366764" cy="407.2057493959599" r="5" fill="black" stroke="none" />
<path d="M429.35738424366764,407.2057493959599 A116.6239774062873,116.6239774062873,0,0,0,388.6097478548313,465.4549014605842" stroke="grey" stroke-width="5" fill="none" />
<path d="M388.6097478548313,465.4549014605842 L381.35738424366764,463.2057493959599" stroke="grey" stroke-width="5" />
<circle cx="388.6097478548313" cy="465.4549014605842" r="2.5" fill="grey" stroke="none" />
<circle cx="429.35738424366764" cy="407.2057493959599" r="5" fill="black" stroke="none" />
<circle cx="381.35738424366764" cy="463.2057493959599" r="5" fill="black" stroke="none" />
<path d="M381.35738424366764,463.2057493959599 L431.68400497828725,478.8133814728449" stroke="grey" stroke-width="5" />
<circle cx="431.68400497828725" cy="478.8133814728449" r="2.5" fill="grey" stroke="none" />
<path d="M431.68400497828725,478.8133814728449 A71.52585532813902,71.52585532813902,0,0,0,429.35738424366764,511.2057493959599" stroke="grey" stroke-width="5" fill="none" />
<circle cx="381.35738424366764" cy="463.2057493959599" r="5" fill="black" stroke="none" />
<circle cx="429.35738424366764" cy="511.2057493959599" r="5" fill="black" stroke="none" />
<path d="M429.35738424366764,511.2057493959599 A71.52585532813902,71.52585532813902,0,0,0,448.17870405187483,549.3001142663858" stroke="grey" stroke-width="5" fill="none" />
<path d="M448.17870405187483,549.3001142663858 L429.35738424366764,567.2057493959599" stroke="grey" stroke-width="5" />
<circle cx="448.17870405187483" cy="549.3001142663858" r="2.5" fill="grey" stroke="none" />
<circle cx="429.35738424366764" cy="511.2057493959599" r="5" fill="black" stroke="none" />
<circle cx="429.35738424366764" cy="567.2057493959599" r="5" fill="black" stroke="none" />
<path d="M429.35738424366764,567.2057493959599 A97.5038046066377,97.5038046066377,0,0,0,500.8990443805059,597.4996596505407" stroke="grey" stroke-width="5" fill="none" />
<path d="M500.8990443805059,597.4996596505407 L501.35738424366764,647.2057493959599" stroke="grey" stroke-width="5" />
<circle cx="500.8990443805059" cy="597.4996596505407" r="2.5" fill="grey" stroke="none" />
<circle cx="429.35738424366764" cy="567.2057493959599" r="5" fill="black" stroke="none" />
<circle cx="501.35738424366764" cy="647.2057493959599" r="5" fill="black" stroke="none" />
<path d="M477.35738424366764,407.2057493959599 L480.2971664406929,419.25360150137607" stroke="grey" stroke-width="5" />
<circle cx="480.2971664406929" cy="419.25360150137607" r="2.5" fill="grey" stroke="none" />
<path d="M480.2971664406929,419.25360150137607 A83.11547702302101,83.11547702302101,0,0,0,453.35738424366764,431.2057493959599" stroke="grey" stroke-width="5" fill="none" />
<circle cx="477.35738424366764" cy="407.2057493959599" r="5" fill="black" stroke="none" />
<circle cx="453.35738424366764" cy="431.2057493959599" r="5" fill="black" stroke="none" />
<path d="M453.35738424366764,431.2057493959599 L455.30187625884645,434.07372471896923" stroke="grey" stroke-width="5" />
<circle cx="455.30187625884645" cy="434.07372471896923" r="2.5" fill="grey" stroke="none" />
<path d="M455.3018762588465,434.07372471896923 A79.65046163337486,79.65046163337486,0,0,0,429.35738424366764,463.2057493959599" stroke="grey" stroke-width="5" fill="none" />
<circle cx="453.35738424366764" cy="431.2057493959599" r="5" fill="black" stroke="none" />
<circle cx="429.35738424366764" cy="463.2057493959599" r="5" fill="black" stroke="none" />
<path d="M429.35738424366764,463.2057493959599 L436.56316095384,466.9588827027071" stroke="grey" stroke-width="5" />
<circle cx="436.56316095384" cy="466.9588827027071" r="2.5" fill="grey" stroke="none" />
<path d="M436.56316095384,466.9588827027071 A71.52585532813902,71.52585532813902,0,0,0,429.35738424366764,511.2057493959599" stroke="grey" stroke-width="5" fill="none" />
<circle cx="429.35738424366764" cy="463.2057493959599" r="5" fill="black" stroke="none" />
<circle cx="429.35738424366764" cy="511.2057493959599" r="5" fill="black" stroke="none" />
<path d="M429.35738424366764,407.2057493959599 L449.6544806880767,433.86747240595525" stroke="grey" stroke-width="5" />
<circle cx="449.6544806880767" cy="433.86747240595525" r="2.5" fill="grey" stroke="none" />
<path d="M449.6544806880767,433.86747240595525 A83.11547702302101,83.11547702302101,0,0,1,453.35738424366764,431.2057493959599" stroke="grey" stroke-width="5" fill="none" />
<circle cx="429.35738424366764" cy="407.2057493959599" r="5" fill="black" stroke="none" />
<circle cx="453.35738424366764" cy="431.2057493959599" r="5" fill="black" stroke="none" />
<path d="M381.35738424366764,463.2057493959599 L423.9240060051116,476.40679809564995" stroke="grey" stroke-width="5" />
<circle cx="423.9240060051116" cy="476.40679809564995" r="2.5" fill="grey" stroke="none" />
<path d="M423.9240060051116,476.40679809564995 A79.65046163337486,79.65046163337486,0,0,1,429.35738424366764,463.2057493959599" stroke="grey" stroke-width="5" fill="none" />
<circle cx="381.35738424366764" cy="463.2057493959599" r="5" fill="black" stroke="none" />
<circle cx="429.35738424366764" cy="463.2057493959599" r="5" fill="black" stroke="none" />
<path d="M477.35738424366764,407.2057493959599 L489.7585521694511,458.02837062805446" stroke="grey" stroke-width="5" />
<circle cx="489.7585521694511" cy="458.02837062805446" r="2.5" fill="grey" stroke="none" />
<path d="M489.7585521694511,458.02837062805446 A43.20306616204242,43.20306616204242,0,0,0,477.35738424366764,463.2057493959599" stroke="grey" stroke-width="5" fill="none" />
<circle cx="477.35738424366764" cy="407.2057493959599" r="5" fill="black" stroke="none" />
<circle cx="477.35738424366764" cy="463.2057493959599" r="5" fill="black" stroke="none" />
<path d="M453.35738424366764,431.2057493959599 L475.7553696776184,464.24104550839235" stroke="grey" stroke-width="5" />
<circle cx="475.7553696776184" cy="464.24104550839235" r="2.5" fill="grey" stroke="none" />
<path d="M475.7553696776184,464.24104550839235 A43.20306616204242,43.20306616204242,0,0,1,477.35738424366764,463.2057493959599" stroke="grey" stroke-width="5" fill="none" />
<circle cx="453.35738424366764" cy="431.2057493959599" r="5" fill="black" stroke="none" />
<circle cx="477.35738424366764" cy="463.2057493959599" r="5" fill="black" stroke="none" />
<path d="M429.35738424366764,463.2057493959599 L461.6828636043744,480.0424955407536" stroke="grey" stroke-width="5" />
<circle cx="461.6828636043744" cy="480.0424955407536" r="2.5" fill="grey" stroke="none" />
<path d="M461.6828636043744,480.0424955407536 A43.20306616204242,43.20306616204242,0,0,1,477.35738424366764,463.2057493959599" stroke="grey" stroke-width="5" fill="none" />
<circle cx="429.35738424366764" cy="463.2057493959599" r="5" fill="black" stroke="none" />
<circle cx="477.35738424366764" cy="463.2057493959599" r="5" fill="black" stroke="none" />
<path d="M429.35738424366764,511.2057493959599 L457.3304284390726,506.7684997310121" stroke="grey" stroke-width="5" />
<circle cx="457.3304284390726" cy="506.7684997310121" r="2.5" fill="grey" stroke="none" />
<path d="M457.3304284390726,506.7684997310121 A43.20306616204242,43.20306616204242,0,0,1,477.35738424366764,463.2057493959599" stroke="grey" stroke-width="5" fill="none" />
<circle cx="429.35738424366764" cy="511.2057493959599" r="5" fill="black" stroke="none" />
<circle cx="477.35738424366764" cy="463.2057493959599" r="5" fill="black" stroke="none" />
<path d="M477.35738424366764,463.2057493959599 L478.0620753165123,464.35087238933244" stroke="grey" stroke-width="5" />
<circle cx="478.0620753165123" cy="464.35087238933244" r="2.5" fill="grey" stroke="none" />
<path d="M478.0620753165123,464.35087238933244 A41.85848586392062,41.85848586392062,0,0,0,477.35738424366764,535.2057493959599" stroke="grey" stroke-width="5" fill="none" />
<circle cx="477.35738424366764" cy="463.2057493959599" r="5" fill="black" stroke="none" />
<circle cx="477.35738424366764" cy="535.2057493959599" r="5" fill="black" stroke="none" />
<path d="M477.35738424366764,535.2057493959599 A41.85848586392062,41.85848586392062,0,0,1,469.67305075985195,528.8514988970335" stroke="grey" stroke-width="5" fill="none" />
<path d="M469.67305075985195,528.8514988970335 L429.35738424366764,567.2057493959599" stroke="grey" stroke-width="5" />
<circle cx="469.67305075985195" cy="528.8514988970335" r="2.5" fill="grey" stroke="none" />
<circle cx="477.35738424366764" cy="535.2057493959599" r="5" fill="black" stroke="none" />
<circle cx="429.35738424366764" cy="567.2057493959599" r="5" fill="black" stroke="none" />
<path d="M477.35738424366764,407.2057493959599 A95.51681000459712,95.51681000459712,0,0,1,536.4924062764875,411.7290235830254" stroke="grey" stroke-width="5" fill="none" />
<path d="M536.4924062764875,411.7290235830254 L581.3573842436676,303.2057493959599" stroke="grey" stroke-width="5" />
<circle cx="536.4924062764875" cy="411.7290235830254" r="2.5" fill="grey" stroke="none" />
<circle cx="477.35738424366764" cy="407.2057493959599" r="5" fill="black" stroke="none" />
<circle cx="581.3573842436676" cy="303.2057493959599" r="5" fill="black" stroke="none" />
<path d="M477.35738424366764,407.2057493959599 A95.51681000459712,95.51681000459712,0,0,1,579.9770814594987,447.7780943025342" stroke="grey" stroke-width="5" fill="none" />
<path d="M579.9770814594987,447.7780943025342 L605.3573842436676,431.2057493959599" stroke="grey" stroke-width="5" />
<circle cx="579.9770814594987" cy="447.7780943025342" r="2.5" fill="grey" stroke="none" />
<circle cx="477.35738424366764" cy="407.2057493959599" r="5" fill="black" stroke="none" />
<circle cx="605.3573842436676" cy="431.2057493959599" r="5" fill="black" stroke="none" />
<path d="M605.3573842436676,431.2057493959599 A125.82856325508646,125.82856325508646,0,0,1,618.5488175181436,457.8217449876219" stroke="grey" stroke-width="5" fill="none" />
<path d="M618.5488175181436,457.8217449876219 L693.3573842436676,431.2057493959599" stroke="grey" stroke-width="5" />
<circle cx="618.5488175181436" cy="457.8217449876219" r="2.5" fill="grey" stroke="none" />
<circle cx="605.3573842436676" cy="431.2057493959599" r="5" fill="black" stroke="none" />
<circle cx="693.3573842436676" cy="431.2057493959599" r="5" fill="black" stroke="none" />
<path d="M477.35738424366764,463.2057493959599 L541.3573842436676,567.2057493959599" stroke="grey" stroke-width="5" />
<circle cx="477.35738424366764" cy="463.2057493959599" r="5" fill="black" stroke="none" />
<circle cx="541.3573842436676" cy="567.2057493959599" r="5" fill="black" stroke="none" />
<circle cx="500" cy="500" r="5" fill="red" stroke="none" />
</svg>