<?xml version="1.0" encoding="UTF-8"?>
<svg xmlns="http://www.w3.org/2000/svg" xmlns:xlink="http://www.w3.org/1999/xlink"
     width="1000" height="1000" viewBox="0 0 1000 1000">
<defs>
</defs>
<rect x="0" y="0" width="1000" height="1000" fill="white" />
<path d="M351.7458495828355,749.9263509733838 L412.1161589651021,648.1542853105443" stroke="grey" stroke-width="5" />
<circle cx="412.1161589651021" cy="648.1542853105443" r="2.5" fill="grey" stroke="none" />
<path d="M412.1161589651021,648.1542853105443 A172.2592864577274,172.2592864577274,0,0,0,471.7458495828355,669.9263509733838" stroke="grey" stroke-width="5" fill="none" />
<circle cx="351.7458495828355" cy="749.9263509733838" r="5" fill="black" stroke="none" />
<circle cx="471.7458495828355" cy="669.9263509733838" r="5" fill="black" stroke="none" />
<path d="M471.7458495828355,669.9263509733838 L480.7475952374269,615.7879759420832" stroke="grey" stroke-width="5" />
<circle cx="480.7475952374269" cy="615.7879759420832" r="2.5" fill="grey" stroke="none" />
<path d="M480.7475952374269,615.7879759420832 A117.37764038310873,117.37764038310873,0,0,1,471.7458495828355,613.9263509733838" stroke="grey" stroke-width="5" fill="none" />
<circle cx="471.7458495828355" cy="669.9263509733838" r="5" fill="black" stroke="none" />
<circle cx="471.7458495828355" cy="613.9263509733838" r="5" fill="black" stroke="none" />
<path d="M471.7458495828355,613.9263509733838 A117.37764038310873,117.37764038310873,0,0,1,411.0684638551894,576.6073909021227" stroke="grey" stroke-width="5" fill="none" />
<path d="M411.0684638551894,576.6073909021227 L-132.2541504171645,113.92635097338385" stroke="grey" stroke-width="5" />
<circle cx="411.0684638551894" cy="576.6073909021227" r="2.5" fill="grey" stroke="none" />
<circle cx="471.7458495828355" cy="613.9263509733838" r="5" fill="black" stroke="none" />
<circle cx="367.7458495828355" cy="613.9263509733838" r="5" fill="black" stroke="none" />
<path d="M367.7458495828355,613.9263509733838 L429.69991155015055,560.5578919446752" stroke="grey" stroke-width="5" />
<circle cx="429.69991155015055" cy="560.5578919446752" r="2.5" fill="grey" stroke="none" />
<path d="M429.69991155015055,560.5578919446752 A92.78664081019214,92.78664081019214,0,0,1,407.7458495828355,509.9263509733839" stroke="grey" stroke-width="5" fill="none" />
<circle cx="367.7458495828355" cy="613.9263509733838" r="5" fill="black" stroke="none" />
<circle cx="407.7458495828355" cy="509.9263509733838" r="5" fill="black" stroke="none" />
<path d="M407.7458495828355,509.9263509733838 L419.93022296017534,508.615338233173" stroke="grey" stroke-width="5" />
<circle cx="419.93022296017534" cy="508.615338233173" r="2.5" fill="grey" stroke="none" />
<path d="M419.93022296017534,508.615338233173 A80.53193930409975,80.53193930409975,0,0,1,519.7458495828355,421.9263509733838" stroke="grey" stroke-width="5" fill="none" />
<circle cx="407.7458495828355" cy="509.9263509733838" r="5" fill="black" stroke="none" />
<circle cx="519.7458495828355" cy="421.9263509733838" r="5" fill="black" stroke="none" />
<path d="M519.7458495828355,421.9263509733838 A80.53193930409975,80.53193930409975,0,0,1,562.9405989952033,449.7618248121589" stroke="grey" stroke-width="5" fill="none" />
<path d="M562.9405989952033,449.7618248121589 L67.74584958283549,-54.07364902661615" stroke="grey" stroke-width="5" />
<circle cx="562.9405989952033" cy="449.7618248121589" r="2.5" fill="grey" stroke="none" />
<circle cx="519.7458495828355" cy="421.9263509733838" r="5" fill="black" stroke="none" />
<circle cx="567.7458495828355" cy="445.9263509733838" r="5" fill="black" stroke="none" />
<path d="M567.7458495828355,445.9263509733838 L539.1770093827045,468.7295403582989" stroke="grey" stroke-width="5" />
<circle cx="539.1770093827045" cy="468.7295403582989" r="2.5" fill="grey" stroke="none" />
<path d="M539.1770093827045,468.7295403582989 A50.12663673513087,50.12663673513087,0,0,0,519.7458495828355,453.9263509733838" stroke="grey" stroke-width="5" fill="none" />
<circle cx="567.7458495828355" cy="445.9263509733838" r="5" fill="black" stroke="none" />
<circle cx="519.7458495828355" cy="453.9263509733838" r="5" fill="black" stroke="none" />
<path d="M519.7458495828355,421.9263509733838 L512.2906891056942,451.40351173507554" stroke="grey" stroke-width="5" />
<circle cx="512.2906891056942" cy="451.40351173507554" r="2.5" fill="grey" stroke="none" />
<path d="M512.2906891056942,451.40351173507554 A50.12663673513087,50.12663673513087,0,0,1,519.7458495828355,453.9263509733838" stroke="grey" stroke-width="5" fill="none" />
<circle cx="519.7458495828355" cy="421.9263509733838" r="5" fill="black" stroke="none" />
<circle cx="519.7458495828355" cy="453.9263509733838" r="5" fill="black" stroke="none" />
<path d="M519.7458495828355,453.9263509733838 L471.7458495828355,565.9263509733838" stroke="grey" stroke-width="5" />
<circle cx="519.7458495828355" cy="453.9263509733838" r="5" fill="black" stroke="none" />
<circle cx="471.7458495828355" cy="565.9263509733838" r="5" fill="black" stroke="none" />
<path d="M407.7458495828355,509.9263509733838 L428.68589163941726,507.6732468484081" stroke="grey" stroke-width="5" />
<circle cx="428.68589163941726" cy="507.6732468484081" r="2.5" fill="grey" stroke="none" />
<path d="M428.68589163941726,507.6732468484081 A71.72573295869165,71.72573295869165,0,0,0,471.7458495828355,565.9263509733838" stroke="grey" stroke-width="5" fill="none" />
<circle cx="407.7458495828355" cy="509.9263509733838" r="5" fill="black" stroke="none" />
<circle cx="471.7458495828355" cy="565.9263509733838" r="5" fill="black" stroke="none" />
<path d="M471.7458495828355,565.9263509733838 A71.72573295869165,71.72573295869165,0,0,0,482.7347896824149,569.6167600592781" stroke="grey" stroke-width="5" fill="none" />
<path d="M482.7347896824148,569.6167600592781 L-28.25415041716451,113.92635097338385" stroke="grey" stroke-width="5" />
<circle cx="482.7347896824148" cy="569.6167600592781" r="2.5" fill="grey" stroke="none" />
<circle cx="471.7458495828355" cy="565.9263509733838" r="5" fill="black" stroke="none" />
<circle cx="471.7458495828355" cy="613.9263509733838" r="5" fill="black" stroke="none" />
<path d="M567.7458495828355,445.9263509733838 A86.68021489794448,86.68021489794448,0,0,0,565.2947285456277,442.9907193616107" stroke="grey" stroke-width="5" fill="none" />
<path d="M565.2947285456277,442.9907193616107 L107.74584958283549,-94.07364902661615" stroke="grey" stroke-width="5" />
<circle cx="565.2947285456277" cy="442.9907193616107" r="2.5" fill="grey" stroke="none" />
<circle cx="567.7458495828355" cy="445.9263509733838" r="5" fill="black" stroke="none" />
<circle cx="607.7458495828355" cy="405.9263509733838" r="5" fill="black" stroke="none" />
<path d="M567.7458495828355,445.9263509733838 A86.68021489794448,86.68021489794448,0,0,1,586.3632064594881,507.40649882128315" stroke="grey" stroke-width="5" fill="none" />
<path d="M586.3632064594881,507.40649882128315 L115.74584958283549,9.926350973383848" stroke="grey" stroke-width="5" />
<circle cx="586.3632064594881" cy="507.40649882128315" r="2.5" fill="grey" stroke="none" />
<circle cx="567.7458495828355" cy="445.9263509733838" r="5" fill="black" stroke="none" />
<circle cx="615.7458495828355" cy="509.9263509733838" r="5" fill="black" stroke="none" />
<path d="M519.7458495828355,453.9263509733838 A50.12663673513087,50.12663673513087,0,0,1,549.5970618410583,507.26712922067634" stroke="grey" stroke-width="5" fill="none" />
<path d="M549.5970618410583,507.26712922067634 L67.74584958283549,9.926350973383848" stroke="grey" stroke-width="5" />
<circle cx="549.5970618410583" cy="507.26712922067634" r="2.5" fill="grey" stroke="none" />
<circle cx="519.7458495828355" cy="453.9263509733838" r="5" fill="black" stroke="none" />
<circle cx="567.7458495828355" cy="509.9263509733838" r="5" fill="black" stroke="none" />
<path d="M471.7458495828355,565.9263509733838 L472.89050269620986,563.2554937088436" stroke="grey" stroke-width="5" />
<circle cx="472.89050269620986" cy="563.2554937088436" r="2.5" fill="grey" stroke="none" />
<path d="M472.89050269620986,563.2554937088436 A68.81992682656495,68.81992682656495,0,0,0,519.7458495828355,565.9263509733838" stroke="grey" stroke-width="5" fill="none" />
<circle cx="471.7458495828355" cy="565.9263509733838" r="5" fill="black" stroke="none" />
<circle cx="519.7458495828355" cy="565.9263509733838" r="5" fill="black" stroke="none" />
<path d="M471.7458495828355,613.9263509733838 A117.37764038310873,117.37764038310873,0,0,0,559.9926556434322,600.8880157935271" stroke="grey" stroke-width="5" fill="none" />
<path d="M559.9926556434322,600.8880157935271 L67.74584958283549,113.92635097338385" stroke="grey" stroke-width="5" />
<circle cx="559.9926556434322" cy="600.8880157935271" r="2.5" fill="grey" stroke="none" />
<circle cx="471.7458495828355" cy="613.9263509733838" r="5" fill="black" stroke="none" />
<circle cx="567.7458495828355" cy="613.9263509733838" r="5" fill="black" stroke="none" />
<path d="M471.7458495828355,669.9263509733838 A172.2592864577274,172.2592864577274,0,0,0,563.7930541677051,660.0115871144387" stroke="grey" stroke-width="5" fill="none" />
<path d="M563.7930541677051,660.0115871144387 L67.74584958283549,169.92635097338385" stroke="grey" stroke-width="5" />
<circle cx="563.7930541677051" cy="660.0115871144387" r="2.5" fill="grey" stroke="none" />
<circle cx="471.7458495828355" cy="669.9263509733838" r="5" fill="black" stroke="none" />
<circle cx="567.7458495828355" cy="669.9263509733838" r="5" fill="black" stroke="none" />
<path d="M615.7458495828355,509.9263509733838 L568.2188021666811,505.8504367606347" stroke="grey" stroke-width="5" />
<circle cx="568.2188021666811" cy="505.8504367606347" r="2.5" fill="grey" stroke="none" />
<path d="M568.2188021666811,505.8504367606347 A68.46920898730296,68.46920898730296,0,0,1,567.7458495828355,509.9263509733838" stroke="grey" stroke-width="5" fill="none" />
<circle cx="615.7458495828355" cy="509.9263509733838" r="5" fill="black" stroke="none" />
<circle cx="567.7458495828355" cy="509.9263509733838" r="5" fill="black" stroke="none" />
<path d="M567.7458495828355,509.9263509733838 A68.46920898730296,68.46920898730296,0,0,1,519.6452214360265,565.5903792798642" stroke="grey" stroke-width="5" fill="none" />
<path d="M519.6452214360265,565.5903792798642 L19.74584958283549,65.92635097338385" stroke="grey" stroke-width="5" />
<circle cx="519.6452214360265" cy="565.5903792798642" r="2.5" fill="grey" stroke="none" />
<circle cx="567.7458495828355" cy="509.9263509733838" r="5" fill="black" stroke="none" />
<circle cx="519.7458495828355" cy="565.9263509733838" r="5" fill="black" stroke="none" />
<path d="M519.7458495828355,565.9263509733838 A68.81992682656495,68.81992682656495,0,0,0,535.1744178707008,559.1518609670995" stroke="grey" stroke-width="5" fill="none" />
<path d="M535.1744178707008,559.1518609670995 L67.74584958283549,113.92635097338385" stroke="grey" stroke-width="5" />
<circle cx="535.1744178707008" cy="559.1518609670995" r="2.5" fill="grey" stroke="none" />
<circle cx="519.7458495828355" cy="565.9263509733838" r="5" fill="black" stroke="none" />
<circle cx="567.7458495828355" cy="613.9263509733838" r="5" fill="black" stroke="none" />
<path d="M567.7458495828355,613.9263509733838 A132.54702403981315,132.54702403981315,0,0,1,549.0863491787128,623.1228813264062" stroke="grey" stroke-width="5" fill="none" />
<path d="M549.0863491787128,623.1228813264062 L67.74584958283549,169.92635097338385" stroke="grey" stroke-width="5" />
<circle cx="549.0863491787128" cy="623.1228813264062" r="2.5" fill="grey" stroke="none" />
<circle cx="567.7458495828355" cy="613.9263509733838" r="5" fill="black" stroke="none" />
<circle cx="567.7458495828355" cy="669.9263509733838" r="5" fill="black" stroke="none" />
<path d="M567.7458495828355,669.9263509733838 A182.93295189995104,182.93295189995104,0,0,0,589.278091926235,659.6680531378789" stroke="grey" stroke-width="5" fill="none" />
<path d="M589.278091926235,659.6680531378789 L139.7458495828355,249.92635097338385" stroke="grey" stroke-width="5" />
<circle cx="589.278091926235" cy="659.6680531378789" r="2.5" fill="grey" stroke="none" />
<circle cx="567.7458495828355" cy="669.9263509733838" r="5" fill="black" stroke="none" />
<circle cx="639.7458495828355" cy="749.9263509733838" r="5" fill="black" stroke="none" />
<path d="M615.7458495828355,509.9263509733838 L597.4599378222837,508.35815324830116" stroke="grey" stroke-width="5" />
<circle cx="597.4599378222837" cy="508.35815324830116" r="2.5" fill="grey" stroke="none" />
<path d="M597.4599378222837,508.35815324830116 A97.81767839222876,97.81767839222876,0,0,1,591.7458495828355,533.9263509733838" stroke="grey" stroke-width="5" fill="none" />
<circle cx="615.7458495828355" cy="509.9263509733838" r="5" fill="black" stroke="none" />
<circle cx="591.7458495828355" cy="533.9263509733838" r="5" fill="black" stroke="none" />
<path d="M591.7458495828355,533.9263509733838 L588.6615672669062,532.7858258724991" stroke="grey" stroke-width="5" />
<circle cx="588.6615672669062" cy="532.7858258724991" r="2.5" fill="grey" stroke="none" />
<path d="M588.6615672669062,532.7858258724991 A94.52927529800469,94.52927529800469,0,0,1,567.7458495828355,565.9263509733838" stroke="grey" stroke-width="5" fill="none" />
<circle cx="591.7458495828355" cy="533.9263509733838" r="5" fill="black" stroke="none" />
<circle cx="567.7458495828355" cy="565.9263509733838" r="5" fill="black" stroke="none" />
<path d="M567.7458495828355,565.9263509733838 A94.52927529800469,94.52927529800469,0,0,1,548.314672561713,581.2494695590095" stroke="grey" stroke-width="5" fill="none" />
<path d="M548.314672561713,581.2494695590095 L67.74584958283549,113.92635097338385" stroke="grey" stroke-width="5" />
<circle cx="548.314672561713" cy="581.2494695590095" r="2.5" fill="grey" stroke="none" />
<circle cx="567.7458495828355" cy="565.9263509733838" r="5" fill="black" stroke="none" />
<circle cx="567.7458495828355" cy="613.9263509733838" r="5" fill="black" stroke="none" />
<path d="M567.7458495828355,509.9263509733838 A68.46920898730296,68.46920898730296,0,0,1,564.2191253365903,523.7473476487431" stroke="grey" stroke-width="5" fill="none" />
<path d="M564.2191253365903,523.7473476487431 L91.74584958283549,33.92635097338385" stroke="grey" stroke-width="5" />
<circle cx="564.2191253365903" cy="523.7473476487431" r="2.5" fill="grey" stroke="none" />
<circle cx="567.7458495828355" cy="509.9263509733838" r="5" fill="black" stroke="none" />
<circle cx="591.7458495828355" cy="533.9263509733838" r="5" fill="black" stroke="none" />
<path d="M519.7458495828355,565.9263509733838 A68.81992682656495,68.81992682656495,0,0,0,549.3208521529058,547.996206843093" stroke="grey" stroke-width="5" fill="none" />
<path d="M549.3208521529058,547.996206843093 L67.74584958283549,65.92635097338385" stroke="grey" stroke-width="5" />
<circle cx="549.3208521529058" cy="547.996206843093" r="2.5" fill="grey" stroke="none" />
<circle cx="519.7458495828355" cy="565.9263509733838" r="5" fill="black" stroke="none" />
<circle cx="567.7458495828355" cy="565.9263509733838" r="5" fill="black" stroke="none" />
<path d="M615.7458495828355,509.9263509733838 A116.17071119391142,116.17071119391142,0,0,1,600.9447720377531,557.495974968212" stroke="grey" stroke-width="5" fill="none" />
<path d="M600.9447720377531,557.495974968212 L115.74584958283549,65.92635097338385" stroke="grey" stroke-width="5" />
<circle cx="600.9447720377531" cy="557.495974968212" r="2.5" fill="grey" stroke="none" />
<circle cx="615.7458495828355" cy="509.9263509733838" r="5" fill="black" stroke="none" />
<circle cx="615.7458495828355" cy="565.9263509733838" r="5" fill="black" stroke="none" />
<path d="M591.7458495828355,533.9263509733838 A97.81767839222876,97.81767839222876,0,0,1,584.9971834129848,548.4125708665107" stroke="grey" stroke-width="5" fill="none" />
<path d="M584.9971834129848,548.4125708665107 L115.74584958283549,65.92635097338385" stroke="grey" stroke-width="5" />
<circle cx="584.9971834129848" cy="548.4125708665107" r="2.5" fill="grey" stroke="none" />
<circle cx="591.7458495828355" cy="533.9263509733838" r="5" fill="black" stroke="none" />
<circle cx="615.7458495828355" cy="565.9263509733838" r="5" fill="black" stroke="none" />
<path d="M567.7458495828355,565.9263509733838 A94.52927529800469,94.52927529800469,0,0,0,582.1397755749574,546.7850527076927" stroke="grey" stroke-width="5" fill="none" />
<path d="M582.1397755749574,546.7850527076927 L115.74584958283549,65.92635097338385" stroke="grey" stroke-width="5" />
<circle cx="582.1397755749574" cy="546.7850527076927" r="2.5" fill="grey" stroke="none" />
<circle cx="567.7458495828355" cy="565.9263509733838" r="5" fill="black" stroke="none" />
<circle cx="615.7458495828355" cy="565.9263509733838" r="5" fill="black" stroke="none" />
<path d="M567.7458495828355,613.9263509733838 A132.54702403981315,132.54702403981315,0,0,0,615.1747199313243,565.6010477854722" stroke="grey" stroke-width="5" fill="none" />
<path d="M615.1747199313243,565.6010477854722 L115.74584958283549,65.92635097338385" stroke="grey" stroke-width="5" />
<circle cx="615.1747199313243" cy="565.6010477854722" r="2.5" fill="grey" stroke="none" />
<circle cx="567.7458495828355" cy="613.9263509733838" r="5" fill="black" stroke="none" />
<circle cx="615.7458495828355" cy="565.9263509733838" r="5" fill="black" stroke="none" />
<path d="M615.7458495828355,565.9263509733838 A133.20429966152807,133.20429966152807,0,0,1,585.6272390714736,602.0360788021319" stroke="grey" stroke-width="5" fill="none" />
<path d="M585.6272390714736,602.0360788021319 L115.74584958283549,137.92635097338385" stroke="grey" stroke-width="5" />
<circle cx="585.6272390714736" cy="602.0360788021319" r="2.5" fill="grey" stroke="none" />
<circle cx="615.7458495828355" cy="565.9263509733838" r="5" fill="black" stroke="none" />
<circle cx="615.7458495828355" cy="637.9263509733838" r="5" fill="black" stroke="none" />
<path d="M615.7458495828355,637.9263509733838 A180.05771293806174,180.05771293806174,0,0,1,566.6810577877882,667.2555425712019" stroke="grey" stroke-width="5" fill="none" />
<path d="M566.6810577877882,667.2555425712019 L67.74584958283549,169.92635097338385" stroke="grey" stroke-width="5" />
<circle cx="566.6810577877882" cy="667.2555425712019" r="2.5" fill="grey" stroke="none" />
<circle cx="615.7458495828355" cy="637.9263509733838" r="5" fill="black" stroke="none" />
<circle cx="567.7458495828355" cy="669.9263509733838" r="5" fill="black" stroke="none" />
<path d="M615.7458495828355,509.9263509733838 A116.17071119391142,116.17071119391142,0,0,0,606.7958730518916,454.28046764911704" stroke="grey" stroke-width="5" fill="none" />
<path d="M606.7958730518916,454.28046764911704 L219.7458495828355,-94.07364902661615" stroke="grey" stroke-width="5" />
<circle cx="606.7958730518916" cy="454.28046764911704" r="2.5" fill="grey" stroke="none" />
<circle cx="615.7458495828355" cy="509.9263509733838" r="5" fill="black" stroke="none" />
<circle cx="719.7458495828355" cy="405.9263509733838" r="5" fill="black" stroke="none" />
<path d="M615.7458495828355,509.9263509733838 A116.17071119391142,116.17071119391142,0,0,1,615.061506723797,516.0151119180853" stroke="grey" stroke-width="5" fill="none" />
<path d="M615.061506723797,516.0151119180853 L243.7458495828355,33.92635097338385" stroke="grey" stroke-width="5" />
<circle cx="615.061506723797" cy="516.0151119180853" r="2.5" fill="grey" stroke="none" />
<circle cx="615.7458495828355" cy="509.9263509733838" r="5" fill="black" stroke="none" />
<circle cx="743.7458495828355" cy="533.9263509733838" r="5" fill="black" stroke="none" />
<path d="M743.7458495828355,533.9263509733838 A246.0955840303265,246.0955840303265,0,0,0,744.8187135490646,525.0366526398516" stroke="grey" stroke-width="5" fill="none" />
<path d="M744.8187135490646,525.0366526398516 L331.7458495828355,33.92635097338385" stroke="grey" stroke-width="5" />
<circle cx="744.8187135490646" cy="525.0366526398516" r="2.5" fill="grey" stroke="none" />
<circle cx="743.7458495828355" cy="533.9263509733838" r="5" fill="black" stroke="none" />
<circle cx="831.7458495828355" cy="533.9263509733838" r="5" fill="black" stroke="none" />
<path d="M615.7458495828355,565.9263509733838 A133.20429966152807,133.20429966152807,0,0,1,596.7965394274928,591.5085537159232" stroke="grey" stroke-width="5" fill="none" />
<path d="M596.7965394274928,591.5085537159231 L179.7458495828355,169.92635097338385" stroke="grey" stroke-width="5" />
<circle cx="596.7965394274928" cy="591.5085537159231" r="2.5" fill="grey" stroke="none" />
<circle cx="615.7458495828355" cy="565.9263509733838" r="5" fill="black" stroke="none" />
<circle cx="679.7458495828355" cy="669.9263509733838" r="5" fill="black" stroke="none" />
<circle cx="500" cy="500" r="5" fill="red" stroke="none" />
</svg>