<?xml version="1.0" encoding="UTF-8"?>
<svg xmlns="http://www.w3.org/2000/svg" xmlns:xlink="http://www.w3.org/1999/xlink"
     width="1000" height="1000" viewBox="0 0 1000 1000">
<defs>
</defs>
<rect x="0" y="0" width="1000" height="1000" fill="white" />
<path d="M349.8030486127101,754.4595532370099 L410.0011422176185,652.4735950471756" stroke="grey" stroke-width="5" />
<circle cx="410.0011422176185" cy="652.4735950471756" r="2.5" fill="grey" stroke="none" />
<path d="M410.0011422176185,652.4735950471756 A177.053640427819,177.053640427819,0,0,0,469.80304861271003,674.4595532370098" stroke="grey" stroke-width="5" fill="none" />
<circle cx="349.8030486127101" cy="754.4595532370099" r="5" fill="black" stroke="none" />
<circle cx="469.8030486127101" cy="674.4595532370099" r="5" fill="black" stroke="none" />
<path d="M469.8030486127101,674.4595532370099 L479.150327002598,620.4566841736055" stroke="grey" stroke-width="5" />
<circle cx="479.150327002598" cy="620.4566841736055" r="2.5" fill="grey" stroke="none" />
<path d="M479.150327002598,620.4566841736055 A122.24778781719661,122.24778781719661,0,0,1,469.80304861271003,618.4595532370099" stroke="grey" stroke-width="5" fill="none" />
<circle cx="469.8030486127101" cy="674.4595532370099" r="5" fill="black" stroke="none" />
<circle cx="469.8030486127101" cy="618.4595532370099" r="5" fill="black" stroke="none" />
<path d="M469.80304861271003,618.4595532370099 A122.24778781719661,122.24778781719661,0,0,1,408.3510858415601,580.9011629074467" stroke="grey" stroke-width="5" fill="none" />
<path d="M408.3510858415601,580.9011629074467 L-134.19695138728994,118.45955323700986" stroke="grey" stroke-width="5" />
<circle cx="408.3510858415601" cy="580.9011629074467" r="2.5" fill="grey" stroke="none" />
<circle cx="469.8030486127101" cy="618.4595532370099" r="5" fill="black" stroke="none" />
<circle cx="365.8030486127101" cy="618.4595532370099" r="5" fill="black" stroke="none" />
<path d="M365.8030486127101,618.4595532370099 L428.55357303629364,563.067839701334" stroke="grey" stroke-width="5" />
<circle cx="428.55357303629364" cy="563.067839701334" r="2.5" fill="grey" stroke="none" />
<path d="M428.55357303629364,563.067839701334 A95.30028504927667,95.30028504927667,0,0,1,405.8030486127101,514.4595532370099" stroke="grey" stroke-width="5" fill="none" />
<circle cx="365.8030486127101" cy="618.4595532370099" r="5" fill="black" stroke="none" />
<circle cx="405.8030486127101" cy="514.4595532370099" r="5" fill="black" stroke="none" />
<path d="M405.8030486127101,514.4595532370099 L425.2113101616351,511.4803189096624" stroke="grey" stroke-width="5" />
<circle cx="425.2113101616351" cy="511.4803189096624" r="2.5" fill="grey" stroke="none" />
<path d="M425.2113101616351,511.4803189096624 A75.66469354994247,75.66469354994247,0,0,1,517.8030486127101,426.45955323700986" stroke="grey" stroke-width="5" fill="none" />
<circle cx="405.8030486127101" cy="514.4595532370099" r="5" fill="black" stroke="none" />
<circle cx="517.8030486127101" cy="426.45955323700986" r="5" fill="black" stroke="none" />
<path d="M517.8030486127101,426.45955323700986 A75.66469354994247,75.66469354994247,0,0,1,560.4486858566447,454.4906358184232" stroke="grey" stroke-width="5" fill="none" />
<path d="M560.4486858566447,454.4906358184232 L65.80304861271006,-49.54044676299014" stroke="grey" stroke-width="5" />
<circle cx="560.4486858566447" cy="454.4906358184232" r="2.5" fill="grey" stroke="none" />
<circle cx="517.8030486127101" cy="426.45955323700986" r="5" fill="black" stroke="none" />
<circle cx="565.8030486127101" cy="450.45955323700986" r="5" fill="black" stroke="none" />
<path d="M565.8030486127101,450.45955323700986 L536.1061104318161,472.81717368151646" stroke="grey" stroke-width="5" />
<circle cx="536.1061104318161" cy="472.81717368151646" r="2.5" fill="grey" stroke="none" />
<path d="M536.1061104318161,472.81717368151646 A45.19465960902168,45.19465960902168,0,0,0,517.8030486127101,458.45955323700986" stroke="grey" stroke-width="5" fill="none" />
<circle cx="565.8030486127101" cy="450.45955323700986" r="5" fill="black" stroke="none" />
<circle cx="517.8030486127101" cy="458.45955323700986" r="5" fill="black" stroke="none" />
<path d="M517.8030486127101,426.45955323700986 L510.633793441894,456.0741568753602" stroke="grey" stroke-width="5" />
<circle cx="510.633793441894" cy="456.0741568753602" r="2.5" fill="grey" stroke="none" />
<path d="M510.633793441894,456.0741568753602 A45.19465960902168,45.19465960902168,0,0,1,517.8030486127101,458.45955323700986" stroke="grey" stroke-width="5" fill="none" />
<circle cx="517.8030486127101" cy="426.45955323700986" r="5" fill="black" stroke="none" />
<circle cx="517.8030486127101" cy="458.45955323700986" r="5" fill="black" stroke="none" />
<path d="M517.8030486127101,458.45955323700986 L469.8030486127101,570.4595532370099" stroke="grey" stroke-width="5" />
<circle cx="517.8030486127101" cy="458.45955323700986" r="5" fill="black" stroke="none" />
<circle cx="469.8030486127101" cy="570.4595532370099" r="5" fill="black" stroke="none" />
<path d="M405.8030486127101,514.4595532370099 L424.22979021956496,511.6309855676225" stroke="grey" stroke-width="5" />
<circle cx="424.22979021956496" cy="511.6309855676225" r="2.5" fill="grey" stroke="none" />
<path d="M424.22979021956496,511.6309855676225 A76.65771008480085,76.65771008480085,0,0,0,469.80304861271003,570.4595532370099" stroke="grey" stroke-width="5" fill="none" />
<circle cx="405.8030486127101" cy="514.4595532370099" r="5" fill="black" stroke="none" />
<circle cx="469.8030486127101" cy="570.4595532370099" r="5" fill="black" stroke="none" />
<path d="M469.80304861271003,570.4595532370099 A76.65771008480085,76.65771008480085,0,0,0,481.06444962134464,574.2822283409887" stroke="grey" stroke-width="5" fill="none" />
<path d="M481.06444962134464,574.2822283409887 L-30.196951387289943,118.45955323700986" stroke="grey" stroke-width="5" />
<circle cx="481.06444962134464" cy="574.2822283409887" r="2.5" fill="grey" stroke="none" />
<circle cx="469.8030486127101" cy="570.4595532370099" r="5" fill="black" stroke="none" />
<circle cx="469.8030486127101" cy="618.4595532370099" r="5" fill="black" stroke="none" />
<path d="M565.8030486127101,450.45955323700986 A82.36684449584884,82.36684449584884,0,0,0,562.873385317003,446.79065410115425" stroke="grey" stroke-width="5" fill="none" />
<path d="M562.873385317003,446.7906541011543 L105.80304861271006,-89.54044676299014" stroke="grey" stroke-width="5" />
<circle cx="562.873385317003" cy="446.7906541011543" r="2.5" fill="grey" stroke="none" />
<circle cx="565.8030486127101" cy="450.45955323700986" r="5" fill="black" stroke="none" />
<circle cx="605.8030486127101" cy="410.45955323700986" r="5" fill="black" stroke="none" />
<path d="M565.8030486127101,450.45955323700986 A82.36684449584884,82.36684449584884,0,0,1,581.7099364591245,510.3818763260394" stroke="grey" stroke-width="5" fill="none" />
<path d="M581.7099364591245,510.3818763260394 L113.80304861271006,14.459553237009857" stroke="grey" stroke-width="5" />
<circle cx="581.7099364591245" cy="510.3818763260394" r="2.5" fill="grey" stroke="none" />
<circle cx="565.8030486127101" cy="450.45955323700986" r="5" fill="black" stroke="none" />
<circle cx="613.8030486127101" cy="514.4595532370099" r="5" fill="black" stroke="none" />
<path d="M517.8030486127101,458.45955323700986 A45.19465960902168,45.19465960902168,0,0,1,544.1415224244931,509.6996523248672" stroke="grey" stroke-width="5" fill="none" />
<path d="M544.1415224244931,509.6996523248672 L65.80304861271006,14.459553237009857" stroke="grey" stroke-width="5" />
<circle cx="544.1415224244931" cy="509.6996523248672" r="2.5" fill="grey" stroke="none" />
<circle cx="517.8030486127101" cy="458.45955323700986" r="5" fill="black" stroke="none" />
<circle cx="565.8030486127101" cy="514.4595532370099" r="5" fill="black" stroke="none" />
<path d="M469.8030486127101,570.4595532370099 L471.37234438146186,566.7978631099223" stroke="grey" stroke-width="5" />
<circle cx="471.37234438146186" cy="566.7978631099223" r="2.5" fill="grey" stroke="none" />
<path d="M471.37234438146186,566.7978631099223 A72.67390991453222,72.67390991453222,0,0,0,517.8030486127101,570.4595532370099" stroke="grey" stroke-width="5" fill="none" />
<circle cx="469.8030486127101" cy="570.4595532370099" r="5" fill="black" stroke="none" />
<circle cx="517.8030486127101" cy="570.4595532370099" r="5" fill="black" stroke="none" />
<path d="M469.80304861271003,618.4595532370099 A122.24778781719661,122.24778781719661,0,0,0,559.3633869955316,606.8667858158796" stroke="grey" stroke-width="5" fill="none" />
<path d="M559.3633869955316,606.8667858158796 L65.80304861271006,118.45955323700986" stroke="grey" stroke-width="5" />
<circle cx="559.3633869955316" cy="606.8667858158796" r="2.5" fill="grey" stroke="none" />
<circle cx="469.8030486127101" cy="618.4595532370099" r="5" fill="black" stroke="none" />
<circle cx="565.8030486127101" cy="618.4595532370099" r="5" fill="black" stroke="none" />
<path d="M469.80304861271003,674.4595532370098 A177.053640427819,177.053640427819,0,0,0,562.4845156143374,665.6613319310968" stroke="grey" stroke-width="5" fill="none" />
<path d="M562.4845156143374,665.6613319310968 L65.80304861271006,174.45955323700986" stroke="grey" stroke-width="5" />
<circle cx="562.4845156143374" cy="665.6613319310968" r="2.5" fill="grey" stroke="none" />
<circle cx="469.8030486127101" cy="674.4595532370099" r="5" fill="black" stroke="none" />
<circle cx="565.8030486127101" cy="674.4595532370099" r="5" fill="black" stroke="none" />
<path d="M613.8030486127101,514.4595532370099 L566.8356646333704,508.4919856073981" stroke="grey" stroke-width="5" />
<circle cx="566.8356646333704" cy="508.4919856073981" r="2.5" fill="grey" stroke="none" />
<path d="M566.8356646333704,508.4919856073981 A67.37299077924777,67.37299077924777,0,0,1,565.8030486127101,514.4595532370099" stroke="grey" stroke-width="5" fill="none" />
<circle cx="613.8030486127101" cy="514.4595532370099" r="5" fill="black" stroke="none" />
<circle cx="565.8030486127101" cy="514.4595532370099" r="5" fill="black" stroke="none" />
<path d="M565.8030486127101,514.4595532370099 A67.37299077924777,67.37299077924777,0,0,1,516.5044736334844,565.3201518416961" stroke="grey" stroke-width="5" fill="none" />
<path d="M516.5044736334844,565.3201518416961 L17.803048612710057,70.45955323700986" stroke="grey" stroke-width="5" />
<circle cx="516.5044736334844" cy="565.3201518416961" r="2.5" fill="grey" stroke="none" />
<circle cx="565.8030486127101" cy="514.4595532370099" r="5" fill="black" stroke="none" />
<circle cx="517.8030486127101" cy="570.4595532370099" r="5" fill="black" stroke="none" />
<path d="M517.8030486127101,570.4595532370099 A72.67390991453222,72.67390991453222,0,0,0,535.2903681593484,563.530206181337" stroke="grey" stroke-width="5" fill="none" />
<path d="M535.2903681593484,563.530206181337 L65.80304861271006,118.45955323700986" stroke="grey" stroke-width="5" />
<circle cx="535.2903681593484" cy="563.530206181337" r="2.5" fill="grey" stroke="none" />
<circle cx="517.8030486127101" cy="570.4595532370099" r="5" fill="black" stroke="none" />
<circle cx="565.8030486127101" cy="618.4595532370099" r="5" fill="black" stroke="none" />
<path d="M565.80304861271,618.4595532370099 A135.5090659691766,135.5090659691766,0,0,1,547.8228989134352,626.7898943108402" stroke="grey" stroke-width="5" fill="none" />
<path d="M547.8228989134352,626.7898943108402 L65.80304861271006,174.45955323700986" stroke="grey" stroke-width="5" />
<circle cx="547.8228989134352" cy="626.7898943108402" r="2.5" fill="grey" stroke="none" />
<circle cx="565.8030486127101" cy="618.4595532370099" r="5" fill="black" stroke="none" />
<circle cx="565.8030486127101" cy="674.4595532370099" r="5" fill="black" stroke="none" />
<path d="M565.80304861271,674.4595532370099 A186.45690365975662,186.45690365975662,0,0,0,588.7917294722399,663.9579388127099" stroke="grey" stroke-width="5" fill="none" />
<path d="M588.7917294722399,663.9579388127099 L137.80304861271006,254.45955323700986" stroke="grey" stroke-width="5" />
<circle cx="588.7917294722399" cy="663.9579388127099" r="2.5" fill="grey" stroke="none" />
<circle cx="565.8030486127101" cy="674.4595532370099" r="5" fill="black" stroke="none" />
<circle cx="637.8030486127101" cy="754.4595532370099" r="5" fill="black" stroke="none" />
<path d="M613.8030486127101,514.4595532370099 L596.9128572053085,512.3135244195416" stroke="grey" stroke-width="5" />
<circle cx="596.9128572053085" cy="512.3135244195416" r="2.5" fill="grey" stroke="none" />
<path d="M596.9128572053085,512.3135244195416 A97.69198930990791,97.69198930990791,0,0,1,589.8030486127101,538.4595532370099" stroke="grey" stroke-width="5" fill="none" />
<circle cx="613.8030486127101" cy="514.4595532370099" r="5" fill="black" stroke="none" />
<circle cx="589.8030486127101" cy="538.4595532370099" r="5" fill="black" stroke="none" />
<path d="M589.8030486127101,538.4595532370099 L588.623162153474,537.9542484974312" stroke="grey" stroke-width="5" />
<circle cx="588.623162153474" cy="537.9542484974312" r="2.5" fill="grey" stroke="none" />
<path d="M588.623162153474,537.9542484974312 A96.40845320347023,96.40845320347023,0,0,1,565.8030486127101,570.4595532370098" stroke="grey" stroke-width="5" fill="none" />
<circle cx="589.8030486127101" cy="538.4595532370099" r="5" fill="black" stroke="none" />
<circle cx="565.8030486127101" cy="570.4595532370099" r="5" fill="black" stroke="none" />
<path d="M565.8030486127101,570.4595532370098 A96.40845320347023,96.40845320347023,0,0,1,546.8158354383991,584.2785109104951" stroke="grey" stroke-width="5" fill="none" />
<path d="M546.8158354383991,584.2785109104951 L65.80304861271006,118.45955323700986" stroke="grey" stroke-width="5" />
<circle cx="546.8158354383991" cy="584.2785109104951" r="2.5" fill="grey" stroke="none" />
<circle cx="565.8030486127101" cy="570.4595532370099" r="5" fill="black" stroke="none" />
<circle cx="565.8030486127101" cy="618.4595532370099" r="5" fill="black" stroke="none" />
<path d="M565.8030486127101,514.4595532370099 A67.37299077924777,67.37299077924777,0,0,1,561.9324062174546,526.5235168606425" stroke="grey" stroke-width="5" fill="none" />
<path d="M561.9324062174546,526.5235168606425 L89.80304861271006,38.45955323700986" stroke="grey" stroke-width="5" />
<circle cx="561.9324062174546" cy="526.5235168606425" r="2.5" fill="grey" stroke="none" />
<circle cx="565.8030486127101" cy="514.4595532370099" r="5" fill="black" stroke="none" />
<circle cx="589.8030486127101" cy="538.4595532370099" r="5" fill="black" stroke="none" />
<path d="M517.8030486127101,570.4595532370099 A72.67390991453222,72.67390991453222,0,0,0,549.6031693080782,553.1133013176517" stroke="grey" stroke-width="5" fill="none" />
<path d="M549.6031693080782,553.1133013176517 L65.80304861271006,70.45955323700986" stroke="grey" stroke-width="5" />
<circle cx="549.6031693080782" cy="553.1133013176517" r="2.5" fill="grey" stroke="none" />
<circle cx="517.8030486127101" cy="570.4595532370099" r="5" fill="black" stroke="none" />
<circle cx="565.8030486127101" cy="570.4595532370099" r="5" fill="black" stroke="none" />
<path d="M613.8030486127101,514.4595532370099 A114.71796961836786,114.71796961836786,0,0,1,597.5368373306974,560.3885578308164" stroke="grey" stroke-width="5" fill="none" />
<path d="M597.5368373306974,560.3885578308164 L113.80304861271006,70.45955323700986" stroke="grey" stroke-width="5" />
<circle cx="597.5368373306974" cy="560.3885578308164" r="2.5" fill="grey" stroke="none" />
<circle cx="613.8030486127101" cy="514.4595532370099" r="5" fill="black" stroke="none" />
<circle cx="613.8030486127101" cy="570.4595532370099" r="5" fill="black" stroke="none" />
<path d="M589.8030486127101,538.4595532370099 A97.69198930990791,97.69198930990791,0,0,1,583.0608116717144,551.4259306164034" stroke="grey" stroke-width="5" fill="none" />
<path d="M583.0608116717144,551.4259306164034 L113.80304861271006,70.45955323700986" stroke="grey" stroke-width="5" />
<circle cx="583.0608116717144" cy="551.4259306164034" r="2.5" fill="grey" stroke="none" />
<circle cx="589.8030486127101" cy="538.4595532370099" r="5" fill="black" stroke="none" />
<circle cx="613.8030486127101" cy="570.4595532370099" r="5" fill="black" stroke="none" />
<path d="M565.8030486127101,570.4595532370098 A96.40845320347023,96.40845320347023,0,0,0,581.9695087761161,550.7502658129781" stroke="grey" stroke-width="5" fill="none" />
<path d="M581.9695087761161,550.7502658129781 L113.80304861271006,70.45955323700986" stroke="grey" stroke-width="5" />
<circle cx="581.9695087761161" cy="550.7502658129781" r="2.5" fill="grey" stroke="none" />
<circle cx="565.8030486127101" cy="570.4595532370099" r="5" fill="black" stroke="none" />
<circle cx="613.8030486127101" cy="570.4595532370099" r="5" fill="black" stroke="none" />
<path d="M565.8030486127101,618.4595532370099 L564.9971541343816,617.0087709120018" stroke="grey" stroke-width="5" />
<circle cx="564.9971541343816" cy="617.0087709120018" r="2.5" fill="grey" stroke="none" />
<path d="M564.9971541343815,617.0087709120019 A133.84947708491757,133.84947708491757,0,0,0,613.8030486127101,570.4595532370099" stroke="grey" stroke-width="5" fill="none" />
<circle cx="565.8030486127101" cy="618.4595532370099" r="5" fill="black" stroke="none" />
<circle cx="613.8030486127101" cy="570.4595532370099" r="5" fill="black" stroke="none" />
<path d="M613.8030486127101,570.4595532370099 A133.84947708491757,133.84947708491757,0,0,1,583.5414100441562,604.5777955578526" stroke="grey" stroke-width="5" fill="none" />
<path d="M583.5414100441562,604.5777955578526 L113.80304861271006,142.45955323700986" stroke="grey" stroke-width="5" />
<circle cx="583.5414100441562" cy="604.5777955578526" r="2.5" fill="grey" stroke="none" />
<circle cx="613.8030486127101" cy="570.4595532370099" r="5" fill="black" stroke="none" />
<circle cx="613.8030486127101" cy="642.4595532370099" r="5" fill="black" stroke="none" />
<path d="M613.8030486127101,642.4595532370099 A182.33446789358095,182.33446789358095,0,0,1,564.348187806808,670.6023707573112" stroke="grey" stroke-width="5" fill="none" />
<path d="M564.348187806808,670.6023707573112 L65.80304861271006,174.45955323700986" stroke="grey" stroke-width="5" />
<circle cx="564.348187806808" cy="670.6023707573112" r="2.5" fill="grey" stroke="none" />
<circle cx="613.8030486127101" cy="642.4595532370099" r="5" fill="black" stroke="none" />
<circle cx="565.8030486127101" cy="674.4595532370099" r="5" fill="black" stroke="none" />
<path d="M613.8030486127101,514.4595532370099 A114.71796961836786,114.71796961836786,0,0,0,606.1017308364346,456.38079245477337" stroke="grey" stroke-width="5" fill="none" />
<path d="M606.1017308364346,456.38079245477337 L217.80304861271006,-89.54044676299014" stroke="grey" stroke-width="5" />
<circle cx="606.1017308364346" cy="456.38079245477337" r="2.5" fill="grey" stroke="none" />
<circle cx="613.8030486127101" cy="514.4595532370099" r="5" fill="black" stroke="none" />
<circle cx="717.8030486127101" cy="410.45955323700986" r="5" fill="black" stroke="none" />
<path d="M613.8030486127101,514.4595532370099 A114.71796961836786,114.71796961836786,0,0,1,613.2938700597957,518.0197547218293" stroke="grey" stroke-width="5" fill="none" />
<path d="M613.2938700597957,518.0197547218293 L241.80304861271006,38.45955323700986" stroke="grey" stroke-width="5" />
<circle cx="613.2938700597957" cy="518.0197547218293" r="2.5" fill="grey" stroke="none" />
<circle cx="613.8030486127101" cy="514.4595532370099" r="5" fill="black" stroke="none" />
<circle cx="741.8030486127101" cy="538.4595532370099" r="5" fill="black" stroke="none" />
<path d="M741.8030486127101,538.4595532370099 A244.84250356829594,244.84250356829594,0,0,0,743.1945160162063,528.3598119393299" stroke="grey" stroke-width="5" fill="none" />
<path d="M743.1945160162063,528.3598119393299 L329.8030486127101,38.45955323700986" stroke="grey" stroke-width="5" />
<circle cx="743.1945160162063" cy="528.3598119393299" r="2.5" fill="grey" stroke="none" />
<circle cx="741.8030486127101" cy="538.4595532370099" r="5" fill="black" stroke="none" />
<circle cx="829.8030486127101" cy="538.4595532370099" r="5" fill="black" stroke="none" />
<path d="M613.8030486127101,570.4595532370099 A133.84947708491757,133.84947708491757,0,0,1,595.5398994183156,593.7433204822829" stroke="grey" stroke-width="5" fill="none" />
<path d="M595.5398994183156,593.7433204822829 L177.80304861271006,174.45955323700986" stroke="grey" stroke-width="5" />
<circle cx="595.5398994183156" cy="593.7433204822829" r="2.5" fill="grey" stroke="none" />
<circle cx="613.8030486127101" cy="570.4595532370099" r="5" fill="black" stroke="none" />
<circle cx="677.8030486127101" cy="674.4595532370099" r="5" fill="black" stroke="none" />
<circle cx="500" cy="500" r="5" fill="red" stroke="none" />
</svg>