<?xml version="1.0" encoding="UTF-8"?>
<svg xmlns="http://www.w3.org/2000/svg" xmlns:xlink="http://www.w3.org/1999/xlink"
     width="1000" height="1000" viewBox="0 0 1000 1000">
<defs>
</defs>
<rect x="0" y="0" width="1000" height="1000" fill="white" />
<path d="M318.2012703919219,798.299788268013 L381.9286058545267,693.7344224023598" stroke="grey" stroke-width="5" />
<circle cx="381.9286058545267" cy="693.7344224023598" r="2.5" fill="grey" stroke="none" />
<path d="M381.9286058545267,693.7344224023598 A226.87855901127293,226.87855901127293,0,0,0,438.2012703919219,718.299788268013" stroke="grey" stroke-width="5" fill="none" />
<circle cx="318.2012703919219" cy="798.299788268013" r="5" fill="black" stroke="none" />
<circle cx="438.2012703919219" cy="718.299788268013" r="5" fill="black" stroke="none" />
<path d="M438.2012703919219,718.299788268013 L452.69533715988354,667.1004881099906" stroke="grey" stroke-width="5" />
<circle cx="452.69533715988354" cy="667.1004881099906" r="2.5" fill="grey" stroke="none" />
<path d="M452.69533715988354,667.1004881099906 A173.66722273651467,173.66722273651467,0,0,1,438.201270391922,662.299788268013" stroke="grey" stroke-width="5" fill="none" />
<circle cx="438.2012703919219" cy="718.299788268013" r="5" fill="black" stroke="none" />
<circle cx="438.2012703919219" cy="662.299788268013" r="5" fill="black" stroke="none" />
<path d="M438.201270391922,662.299788268013 A173.66722273651467,173.66722273651467,0,0,1,375.8961962176054,621.4847732835482" stroke="grey" stroke-width="5" fill="none" />
<path d="M375.8961962176054,621.4847732835482 L-165.79872960807808,162.299788268013" stroke="grey" stroke-width="5" />
<circle cx="375.8961962176054" cy="621.4847732835482" r="2.5" fill="grey" stroke="none" />
<circle cx="438.2012703919219" cy="662.299788268013" r="5" fill="black" stroke="none" />
<circle cx="334.2012703919219" cy="662.299788268013" r="5" fill="black" stroke="none" />
<path d="M334.2012703919219,662.299788268013 L400.91881091463836,596.9902245204757" stroke="grey" stroke-width="5" />
<circle cx="400.91881091463836" cy="596.9902245204757" r="2.5" fill="grey" stroke="none" />
<path d="M400.91881091463836,596.9902245204757 A138.65130970568396,138.65130970568396,0,0,1,374.20127039192187,558.2997882680129" stroke="grey" stroke-width="5" fill="none" />
<circle cx="334.2012703919219" cy="662.299788268013" r="5" fill="black" stroke="none" />
<circle cx="374.2012703919219" cy="558.299788268013" r="5" fill="black" stroke="none" />
<path d="M374.2012703919219,558.299788268013 L470.286593038824,513.7702927521982" stroke="grey" stroke-width="5" />
<circle cx="470.286593038824" cy="513.7702927521982" r="2.5" fill="grey" stroke="none" />
<path d="M470.286593038824,513.7702927521982 A32.74916053461077,32.74916053461077,0,0,1,486.2012703919219,470.299788268013" stroke="grey" stroke-width="5" fill="none" />
<circle cx="374.2012703919219" cy="558.299788268013" r="5" fill="black" stroke="none" />
<circle cx="486.2012703919219" cy="470.299788268013" r="5" fill="black" stroke="none" />
<path d="M486.2012703919219,470.299788268013 A32.74916053461077,32.74916053461077,0,0,1,532.3035729619435,494.6160711730094" stroke="grey" stroke-width="5" fill="none" />
<path d="M532.3035729619435,494.6160711730094 L34.20127039192192,-5.7002117319869825" stroke="grey" stroke-width="5" />
<circle cx="532.3035729619435" cy="494.6160711730094" r="2.5" fill="grey" stroke="none" />
<circle cx="486.2012703919219" cy="470.299788268013" r="5" fill="black" stroke="none" />
<circle cx="534.201270391922" cy="494.299788268013" r="5" fill="black" stroke="none" />
<path d="M534.201270391922,494.299788268013 L486.2012703919219,502.299788268013" stroke="grey" stroke-width="5" />
<circle cx="534.201270391922" cy="494.299788268013" r="5" fill="black" stroke="none" />
<circle cx="486.2012703919219" cy="502.299788268013" r="5" fill="black" stroke="none" />
<path d="M486.2012703919219,470.299788268013 L494.1057622628567,487.3133169672851" stroke="grey" stroke-width="5" />
<circle cx="494.1057622628567" cy="487.3133169672851" r="2.5" fill="grey" stroke="none" />
<path d="M494.1057622628567,487.3133169672851 A13.989065904288996,13.989065904288996,0,0,0,486.2012703919219,502.299788268013" stroke="grey" stroke-width="5" fill="none" />
<circle cx="486.2012703919219" cy="470.299788268013" r="5" fill="black" stroke="none" />
<circle cx="486.2012703919219" cy="502.299788268013" r="5" fill="black" stroke="none" />
<path d="M486.2012703919219,502.299788268013 A13.989065904288996,13.989065904288996,0,0,0,493.34670612783225,512.305594074449" stroke="grey" stroke-width="5" fill="none" />
<path d="M493.34670612783225,512.305594074449 L-61.79872960807808,114.29978826801302" stroke="grey" stroke-width="5" />
<circle cx="493.34670612783225" cy="512.305594074449" r="2.5" fill="grey" stroke="none" />
<circle cx="486.2012703919219" cy="502.299788268013" r="5" fill="black" stroke="none" />
<circle cx="438.2012703919219" cy="614.299788268013" r="5" fill="black" stroke="none" />
<path d="M374.2012703919219,558.299788268013 L382.1081354979633,554.6354542720968" stroke="grey" stroke-width="5" />
<circle cx="382.1081354979633" cy="554.6354542720968" r="2.5" fill="grey" stroke="none" />
<path d="M382.1081354979633,554.6354542720967 A129.9366175459595,129.9366175459595,0,0,0,438.2012703919219,614.299788268013" stroke="grey" stroke-width="5" fill="none" />
<circle cx="374.2012703919219" cy="558.299788268013" r="5" fill="black" stroke="none" />
<circle cx="438.2012703919219" cy="614.299788268013" r="5" fill="black" stroke="none" />
<path d="M438.2012703919219,614.299788268013 A129.9366175459595,129.9366175459595,0,0,0,453.76261699023155,621.4315815251243" stroke="grey" stroke-width="5" fill="none" />
<path d="M453.7626169902315,621.4315815251243 L-61.79872960807808,162.299788268013" stroke="grey" stroke-width="5" />
<circle cx="453.7626169902315" cy="621.4315815251243" r="2.5" fill="grey" stroke="none" />
<circle cx="438.2012703919219" cy="614.299788268013" r="5" fill="black" stroke="none" />
<circle cx="438.2012703919219" cy="662.299788268013" r="5" fill="black" stroke="none" />
<path d="M534.201270391922,494.299788268013 A34.67303433809676,34.67303433809676,0,0,0,529.5228467949983,481.81701819475427" stroke="grey" stroke-width="5" fill="none" />
<path d="M529.5228467949983,481.81701819475427 L74.20127039192192,-45.70021173198698" stroke="grey" stroke-width="5" />
<circle cx="529.5228467949983" cy="481.81701819475427" r="2.5" fill="grey" stroke="none" />
<circle cx="534.201270391922" cy="494.299788268013" r="5" fill="black" stroke="none" />
<circle cx="574.201270391922" cy="454.299788268013" r="5" fill="black" stroke="none" />
<path d="M534.201270391922,494.299788268013 A34.67303433809676,34.67303433809676,0,0,1,528.2820488645091,520.0585398829616" stroke="grey" stroke-width="5" fill="none" />
<path d="M528.2820488645091,520.0585398829616 L82.20127039192192,58.29978826801302" stroke="grey" stroke-width="5" />
<circle cx="528.2820488645091" cy="520.0585398829616" r="2.5" fill="grey" stroke="none" />
<circle cx="534.201270391922" cy="494.299788268013" r="5" fill="black" stroke="none" />
<circle cx="582.201270391922" cy="558.299788268013" r="5" fill="black" stroke="none" />
<path d="M486.2012703919219,502.299788268013 A13.989065904288996,13.989065904288996,0,0,0,507.0784758852471,512.066032654378" stroke="grey" stroke-width="5" fill="none" />
<path d="M507.0784758852471,512.066032654378 L34.20127039192192,58.29978826801302" stroke="grey" stroke-width="5" />
<circle cx="507.0784758852471" cy="512.066032654378" r="2.5" fill="grey" stroke="none" />
<circle cx="486.2012703919219" cy="502.299788268013" r="5" fill="black" stroke="none" />
<circle cx="534.201270391922" cy="558.299788268013" r="5" fill="black" stroke="none" />
<path d="M438.2012703919219,614.299788268013 L445.24354266251197,601.2747595245593" stroke="grey" stroke-width="5" />
<circle cx="445.24354266251197" cy="601.2747595245593" r="2.5" fill="grey" stroke="none" />
<path d="M445.24354266251197,601.2747595245593 A115.12969441855327,115.12969441855327,0,0,0,486.2012703919219,614.299788268013" stroke="grey" stroke-width="5" fill="none" />
<circle cx="438.2012703919219" cy="614.299788268013" r="5" fill="black" stroke="none" />
<circle cx="486.2012703919219" cy="614.299788268013" r="5" fill="black" stroke="none" />
<path d="M438.2012703919219,662.299788268013 L440.97792582163765,655.0075576478357" stroke="grey" stroke-width="5" />
<circle cx="440.97792582163765" cy="655.0075576478357" r="2.5" fill="grey" stroke="none" />
<path d="M440.97792582163765,655.0075576478357 A165.86424620231813,165.86424620231813,0,0,0,534.201270391922,662.299788268013" stroke="grey" stroke-width="5" fill="none" />
<circle cx="438.2012703919219" cy="662.299788268013" r="5" fill="black" stroke="none" />
<circle cx="534.201270391922" cy="662.299788268013" r="5" fill="black" stroke="none" />
<path d="M438.2012703919219,718.299788268013 L439.81266646989616,712.607641764864" stroke="grey" stroke-width="5" />
<circle cx="439.81266646989616" cy="712.607641764864" r="2.5" fill="grey" stroke="none" />
<path d="M439.81266646989616,712.607641764864 A220.9627218656592,220.9627218656592,0,0,0,534.2012703919219,718.299788268013" stroke="grey" stroke-width="5" fill="none" />
<circle cx="438.2012703919219" cy="718.299788268013" r="5" fill="black" stroke="none" />
<circle cx="534.201270391922" cy="718.299788268013" r="5" fill="black" stroke="none" />
<path d="M582.201270391922,558.299788268013 L555.1328211567665,539.1019723263739" stroke="grey" stroke-width="5" />
<circle cx="555.1328211567665" cy="539.1019723263739" r="2.5" fill="grey" stroke="none" />
<path d="M555.1328211567665,539.1019723263739 A67.59136193713293,67.59136193713293,0,0,1,534.201270391922,558.299788268013" stroke="grey" stroke-width="5" fill="none" />
<circle cx="582.201270391922" cy="558.299788268013" r="5" fill="black" stroke="none" />
<circle cx="534.201270391922" cy="558.299788268013" r="5" fill="black" stroke="none" />
<path d="M534.201270391922,558.299788268013 A67.59136193713293,67.59136193713293,0,0,1,491.8989194584196,567.1041332748985" stroke="grey" stroke-width="5" fill="none" />
<path d="M491.89891945841964,567.1041332748985 L-13.798729608078077,114.29978826801302" stroke="grey" stroke-width="5" />
<circle cx="491.89891945841964" cy="567.1041332748985" r="2.5" fill="grey" stroke="none" />
<circle cx="534.201270391922" cy="558.299788268013" r="5" fill="black" stroke="none" />
<circle cx="486.2012703919219" cy="614.299788268013" r="5" fill="black" stroke="none" />
<path d="M486.2012703919219,614.299788268013 A115.12969441855327,115.12969441855327,0,0,0,523.7397865971989,612.6555327945721" stroke="grey" stroke-width="5" fill="none" />
<path d="M523.7397865971989,612.6555327945721 L34.20127039192192,162.299788268013" stroke="grey" stroke-width="5" />
<circle cx="523.7397865971989" cy="612.6555327945721" r="2.5" fill="grey" stroke="none" />
<circle cx="486.2012703919219" cy="614.299788268013" r="5" fill="black" stroke="none" />
<circle cx="534.201270391922" cy="662.299788268013" r="5" fill="black" stroke="none" />
<path d="M534.201270391922,662.299788268013 A165.86424620231813,165.86424620231813,0,0,1,525.6729636783109,663.8653322220272" stroke="grey" stroke-width="5" fill="none" />
<path d="M525.6729636783109,663.8653322220272 L34.20127039192192,218.299788268013" stroke="grey" stroke-width="5" />
<circle cx="525.6729636783109" cy="663.8653322220272" r="2.5" fill="grey" stroke="none" />
<circle cx="534.201270391922" cy="662.299788268013" r="5" fill="black" stroke="none" />
<circle cx="534.201270391922" cy="718.299788268013" r="5" fill="black" stroke="none" />
<path d="M534.2012703919219,718.299788268013 A220.9627218656592,220.9627218656592,0,0,0,574.1108307158232,708.1636597124755" stroke="grey" stroke-width="5" fill="none" />
<path d="M574.1108307158232,708.1636597124755 L106.20127039192192,298.299788268013" stroke="grey" stroke-width="5" />
<circle cx="574.1108307158232" cy="708.1636597124755" r="2.5" fill="grey" stroke="none" />
<circle cx="534.201270391922" cy="718.299788268013" r="5" fill="black" stroke="none" />
<circle cx="606.201270391922" cy="798.299788268013" r="5" fill="black" stroke="none" />
<path d="M582.201270391922,558.299788268013 A100.77655563741504,100.77655563741504,0,0,1,558.1877251086124,582.280634494549" stroke="grey" stroke-width="5" fill="none" />
<path d="M558.1877251086124,582.280634494549 L58.20127039192192,82.29978826801302" stroke="grey" stroke-width="5" />
<circle cx="558.1877251086124" cy="582.280634494549" r="2.5" fill="grey" stroke="none" />
<circle cx="582.201270391922" cy="558.299788268013" r="5" fill="black" stroke="none" />
<circle cx="558.201270391922" cy="582.299788268013" r="5" fill="black" stroke="none" />
<path d="M558.2012703919219,582.299788268013 A100.80001500095811,100.80001500095811,0,0,1,528.895937120463,596.569497472668" stroke="grey" stroke-width="5" fill="none" />
<path d="M528.895937120463,596.569497472668 L34.20127039192192,114.29978826801302" stroke="grey" stroke-width="5" />
<circle cx="528.895937120463" cy="596.569497472668" r="2.5" fill="grey" stroke="none" />
<circle cx="558.201270391922" cy="582.299788268013" r="5" fill="black" stroke="none" />
<circle cx="534.201270391922" cy="614.299788268013" r="5" fill="black" stroke="none" />
<path d="M534.2012703919219,614.299788268013 A119.30703455594713,119.30703455594713,0,0,1,524.6011557157958,616.7431010037901" stroke="grey" stroke-width="5" fill="none" />
<path d="M524.6011557157958,616.7431010037901 L34.20127039192192,162.299788268013" stroke="grey" stroke-width="5" />
<circle cx="524.6011557157958" cy="616.7431010037901" r="2.5" fill="grey" stroke="none" />
<circle cx="534.201270391922" cy="614.299788268013" r="5" fill="black" stroke="none" />
<circle cx="534.201270391922" cy="662.299788268013" r="5" fill="black" stroke="none" />
<path d="M534.201270391922,558.299788268013 A67.59136193713293,67.59136193713293,0,0,0,539.0268109803748,555.1860510746928" stroke="grey" stroke-width="5" fill="none" />
<path d="M539.0268109803748,555.1860510746928 L58.20127039192192,82.29978826801302" stroke="grey" stroke-width="5" />
<circle cx="539.0268109803748" cy="555.1860510746928" r="2.5" fill="grey" stroke="none" />
<circle cx="534.201270391922" cy="558.299788268013" r="5" fill="black" stroke="none" />
<circle cx="558.201270391922" cy="582.299788268013" r="5" fill="black" stroke="none" />
<path d="M486.2012703919219,614.299788268013 A115.12969441855327,115.12969441855327,0,0,0,533.0037690032586,610.2977686469178" stroke="grey" stroke-width="5" fill="none" />
<path d="M533.0037690032588,610.2977686469178 L34.20127039192192,114.29978826801302" stroke="grey" stroke-width="5" />
<circle cx="533.0037690032588" cy="610.2977686469178" r="2.5" fill="grey" stroke="none" />
<circle cx="486.2012703919219" cy="614.299788268013" r="5" fill="black" stroke="none" />
<circle cx="534.201270391922" cy="614.299788268013" r="5" fill="black" stroke="none" />
<path d="M582.201270391922,558.299788268013 A100.77655563741504,100.77655563741504,0,0,1,558.839623689568,581.8157249568262" stroke="grey" stroke-width="5" fill="none" />
<path d="M558.839623689568,581.8157249568262 L82.20127039192192,114.29978826801302" stroke="grey" stroke-width="5" />
<circle cx="558.839623689568" cy="581.8157249568262" r="2.5" fill="grey" stroke="none" />
<circle cx="582.201270391922" cy="558.299788268013" r="5" fill="black" stroke="none" />
<circle cx="582.201270391922" cy="614.299788268013" r="5" fill="black" stroke="none" />
<path d="M558.2012703919219,582.299788268013 A100.80001500095811,100.80001500095811,0,0,0,558.8533207256905,581.8347705058943" stroke="grey" stroke-width="5" fill="none" />
<path d="M558.8533207256905,581.8347705058943 L82.20127039192192,114.29978826801302" stroke="grey" stroke-width="5" />
<circle cx="558.8533207256905" cy="581.8347705058943" r="2.5" fill="grey" stroke="none" />
<circle cx="558.201270391922" cy="582.299788268013" r="5" fill="black" stroke="none" />
<circle cx="582.201270391922" cy="614.299788268013" r="5" fill="black" stroke="none" />
<path d="M534.2012703919219,614.299788268013 A119.30703455594713,119.30703455594713,0,0,0,569.658870283754,596.8597454328943" stroke="grey" stroke-width="5" fill="none" />
<path d="M569.658870283754,596.8597454328943 L82.20127039192192,114.29978826801302" stroke="grey" stroke-width="5" />
<circle cx="569.658870283754" cy="596.8597454328943" r="2.5" fill="grey" stroke="none" />
<circle cx="534.201270391922" cy="614.299788268013" r="5" fill="black" stroke="none" />
<circle cx="582.201270391922" cy="614.299788268013" r="5" fill="black" stroke="none" />
<path d="M534.201270391922,662.299788268013 L529.0307069969743,637.7632334965112" stroke="grey" stroke-width="5" />
<circle cx="529.0307069969743" cy="637.7632334965112" r="2.5" fill="grey" stroke="none" />
<path d="M529.0307069969743,637.7632334965112 A140.78881508187524,140.78881508187524,0,0,0,582.201270391922,614.299788268013" stroke="grey" stroke-width="5" fill="none" />
<circle cx="534.201270391922" cy="662.299788268013" r="5" fill="black" stroke="none" />
<circle cx="582.201270391922" cy="614.299788268013" r="5" fill="black" stroke="none" />
<path d="M582.201270391922,614.299788268013 A140.78881508187524,140.78881508187524,0,0,1,556.8339222929977,628.8075918917514" stroke="grey" stroke-width="5" fill="none" />
<path d="M556.8339222929977,628.8075918917514 L82.20127039192192,186.299788268013" stroke="grey" stroke-width="5" />
<circle cx="556.8339222929977" cy="628.8075918917514" r="2.5" fill="grey" stroke="none" />
<circle cx="582.201270391922" cy="614.299788268013" r="5" fill="black" stroke="none" />
<circle cx="582.201270391922" cy="686.299788268013" r="5" fill="black" stroke="none" />
<path d="M582.201270391922,686.299788268013 A203.6287306908147,203.6287306908147,0,0,1,531.5182634388193,701.1746977941151" stroke="grey" stroke-width="5" fill="none" />
<path d="M531.5182634388193,701.1746977941151 L34.20127039192192,218.299788268013" stroke="grey" stroke-width="5" />
<circle cx="531.5182634388193" cy="701.1746977941151" r="2.5" fill="grey" stroke="none" />
<circle cx="582.201270391922" cy="686.299788268013" r="5" fill="black" stroke="none" />
<circle cx="534.201270391922" cy="718.299788268013" r="5" fill="black" stroke="none" />
<path d="M582.201270391922,558.299788268013 A100.77655563741504,100.77655563741504,0,0,0,597.8718530170779,475.9788727753148" stroke="grey" stroke-width="5" fill="none" />
<path d="M597.8718530170779,475.9788727753148 L186.20127039192192,-45.70021173198698" stroke="grey" stroke-width="5" />
<circle cx="597.8718530170779" cy="475.9788727753148" r="2.5" fill="grey" stroke="none" />
<circle cx="582.201270391922" cy="558.299788268013" r="5" fill="black" stroke="none" />
<circle cx="686.201270391922" cy="454.299788268013" r="5" fill="black" stroke="none" />
<path d="M582.201270391922,558.299788268013 A100.77655563741504,100.77655563741504,0,0,0,593.8403000625145,536.7411520004237" stroke="grey" stroke-width="5" fill="none" />
<path d="M593.8403000625145,536.7411520004237 L210.20127039192192,82.29978826801302" stroke="grey" stroke-width="5" />
<circle cx="593.8403000625145" cy="536.7411520004237" r="2.5" fill="grey" stroke="none" />
<circle cx="582.201270391922" cy="558.299788268013" r="5" fill="black" stroke="none" />
<circle cx="710.201270391922" cy="582.299788268013" r="5" fill="black" stroke="none" />
<path d="M710.201270391922,582.299788268013 A225.7384088349558,225.7384088349558,0,0,0,717.6031678415034,560.0557288581215" stroke="grey" stroke-width="5" fill="none" />
<path d="M717.6031678415034,560.0557288581215 L298.2012703919219,82.29978826801302" stroke="grey" stroke-width="5" />
<circle cx="717.6031678415034" cy="560.0557288581215" r="2.5" fill="grey" stroke="none" />
<circle cx="710.201270391922" cy="582.299788268013" r="5" fill="black" stroke="none" />
<circle cx="798.201270391922" cy="582.299788268013" r="5" fill="black" stroke="none" />
<path d="M582.201270391922,614.299788268013 A140.78881508187524,140.78881508187524,0,0,1,578.3432517088202,616.9778840800554" stroke="grey" stroke-width="5" fill="none" />
<path d="M578.3432517088202,616.9778840800554 L146.20127039192192,218.299788268013" stroke="grey" stroke-width="5" />
<circle cx="578.3432517088202" cy="616.9778840800554" r="2.5" fill="grey" stroke="none" />
<circle cx="582.201270391922" cy="614.299788268013" r="5" fill="black" stroke="none" />
<circle cx="646.201270391922" cy="718.299788268013" r="5" fill="black" stroke="none" />
<circle cx="500" cy="500" r="5" fill="red" stroke="none" />
</svg>