<?xml version="1.0" encoding="UTF-8"?>
<svg xmlns="http://www.w3.org/2000/svg" xmlns:xlink="http://www.w3.org/1999/xlink"
     width="1000" height="1000" viewBox="0 0 1000 1000">
<defs>
</defs>
<rect x="0" y="0" width="1000" height="1000" fill="white" />
<path d="M259.6934551173795,828.3065448826205 L337.03234294011577,722.6462389656533" stroke="grey" stroke-width="5" />
<circle cx="337.03234294011577" cy="722.6462389656533" r="2.5" fill="grey" stroke="none" />
<path d="M337.03234294011577,722.6462389656533 A275.9163006658701,275.9163006658701,0,0,0,379.6934551173795,748.3065448826205" stroke="grey" stroke-width="5" fill="none" />
<circle cx="259.6934551173795" cy="828.3065448826205" r="5" fill="black" stroke="none" />
<circle cx="379.6934551173795" cy="748.3065448826205" r="5" fill="black" stroke="none" />
<path d="M379.6934551173795,748.3065448826205 L401.0928520997628,704.1392858822768" stroke="grey" stroke-width="5" />
<circle cx="401.0928520997628" cy="704.1392858822768" r="2.5" fill="grey" stroke="none" />
<path d="M401.0928520997628,704.1392858822768 A226.83798611847473,226.83798611847473,0,0,1,379.6934551173795,692.3065448826205" stroke="grey" stroke-width="5" fill="none" />
<circle cx="379.6934551173795" cy="748.3065448826205" r="5" fill="black" stroke="none" />
<circle cx="379.6934551173795" cy="692.3065448826205" r="5" fill="black" stroke="none" />
<path d="M379.6934551173795,692.3065448826205 A226.83798611847473,226.83798611847473,0,0,1,327.78837541880654,647.6435853851816" stroke="grey" stroke-width="5" fill="none" />
<path d="M327.78837541880654,647.6435853851816 L-224.30654488262053,192.30654488262053" stroke="grey" stroke-width="5" />
<circle cx="327.78837541880654" cy="647.6435853851816" r="2.5" fill="grey" stroke="none" />
<circle cx="379.6934551173795" cy="692.3065448826205" r="5" fill="black" stroke="none" />
<circle cx="275.6934551173795" cy="692.3065448826205" r="5" fill="black" stroke="none" />
<path d="M275.6934551173795,692.3065448826205 L344.84597252570256,633.0194576525579" stroke="grey" stroke-width="5" />
<circle cx="344.84597252570256" cy="633.0194576525579" r="2.5" fill="grey" stroke="none" />
<path d="M344.84597252570256,633.0194576525579 A204.3696365795949,204.3696365795949,0,0,1,315.6934551173795,588.3065448826205" stroke="grey" stroke-width="5" fill="none" />
<circle cx="275.6934551173795" cy="692.3065448826205" r="5" fill="black" stroke="none" />
<circle cx="315.6934551173795" cy="588.3065448826205" r="5" fill="black" stroke="none" />
<path d="M315.6934551173795,588.3065448826205 L434.791246660514,531.2433815477382" stroke="grey" stroke-width="5" />
<circle cx="434.791246660514" cy="531.2433815477382" r="2.5" fill="grey" stroke="none" />
<path d="M434.791246660514,531.2433815477382 A72.30719468094084,72.30719468094084,0,0,1,427.6934551173795,500.3065448826205" stroke="grey" stroke-width="5" fill="none" />
<circle cx="315.6934551173795" cy="588.3065448826205" r="5" fill="black" stroke="none" />
<circle cx="427.6934551173795" cy="500.3065448826205" r="5" fill="black" stroke="none" />
<path d="M427.6934551173795,500.3065448826205 L465.6256634849375,500.14573061082194" stroke="grey" stroke-width="5" />
<circle cx="465.6256634849375" cy="500.14573061082194" r="2.5" fill="grey" stroke="none" />
<path d="M465.6256634849375,500.14573061082194 A34.3746454274323,34.3746454274323,0,0,0,475.6934551173795,524.3065448826205" stroke="grey" stroke-width="5" fill="none" />
<circle cx="427.6934551173795" cy="500.3065448826205" r="5" fill="black" stroke="none" />
<circle cx="475.6934551173795" cy="524.3065448826205" r="5" fill="black" stroke="none" />
<path d="M475.6934551173795,524.3065448826205 A34.3746454274323,34.3746454274323,0,0,1,468.6155466869226,514.0225653323832" stroke="grey" stroke-width="5" fill="none" />
<path d="M468.6155466869226,514.0225653323832 L-72.30654488262053,32.30654488262053" stroke="grey" stroke-width="5" />
<circle cx="468.6155466869226" cy="514.0225653323832" r="2.5" fill="grey" stroke="none" />
<circle cx="475.6934551173795" cy="524.3065448826205" r="5" fill="black" stroke="none" />
<circle cx="427.6934551173795" cy="532.3065448826205" r="5" fill="black" stroke="none" />
<path d="M427.6934551173795,500.3065448826205 A72.30719468094084,72.30719468094084,0,0,0,433.9826855682246,529.4965184020687" stroke="grey" stroke-width="5" fill="none" />
<path d="M433.9826855682246,529.4965184020687 L-72.30654488262053,32.30654488262053" stroke="grey" stroke-width="5" />
<circle cx="433.9826855682246" cy="529.4965184020687" r="2.5" fill="grey" stroke="none" />
<circle cx="427.6934551173795" cy="500.3065448826205" r="5" fill="black" stroke="none" />
<circle cx="427.6934551173795" cy="532.3065448826205" r="5" fill="black" stroke="none" />
<path d="M427.6934551173795,532.3065448826205 A79.19563924304919,79.19563924304919,0,0,0,449.28747846186667,560.8291824238955" stroke="grey" stroke-width="5" fill="none" />
<path d="M449.28747846186667,560.8291824238955 L-120.30654488262053,144.30654488262053" stroke="grey" stroke-width="5" />
<circle cx="449.28747846186667" cy="560.8291824238955" r="2.5" fill="grey" stroke="none" />
<circle cx="427.6934551173795" cy="532.3065448826205" r="5" fill="black" stroke="none" />
<circle cx="379.6934551173795" cy="644.3065448826205" r="5" fill="black" stroke="none" />
<path d="M315.6934551173795,588.3065448826205 L330.56633588511005,581.1805216918222" stroke="grey" stroke-width="5" />
<circle cx="330.56633588511005" cy="581.1805216918222" r="2.5" fill="grey" stroke="none" />
<path d="M330.56633588511005,581.1805216918222 A187.8777358750998,187.8777358750998,0,0,0,379.6934551173795,644.3065448826205" stroke="grey" stroke-width="5" fill="none" />
<circle cx="315.6934551173795" cy="588.3065448826205" r="5" fill="black" stroke="none" />
<circle cx="379.6934551173795" cy="644.3065448826205" r="5" fill="black" stroke="none" />
<path d="M379.6934551173795,644.3065448826205 A187.8777358750998,187.8777358750998,0,0,0,400.3565423486982,659.2771954325132" stroke="grey" stroke-width="5" fill="none" />
<path d="M400.3565423486982,659.2771954325132 L-120.30654488262053,192.30654488262053" stroke="grey" stroke-width="5" />
<circle cx="400.3565423486982" cy="659.2771954325132" r="2.5" fill="grey" stroke="none" />
<circle cx="379.6934551173795" cy="644.3065448826205" r="5" fill="black" stroke="none" />
<circle cx="379.6934551173795" cy="692.3065448826205" r="5" fill="black" stroke="none" />
<path d="M475.6934551173795,524.3065448826205 L515.6934551173795,484.3065448826205" stroke="grey" stroke-width="5" />
<circle cx="475.6934551173795" cy="524.3065448826205" r="5" fill="black" stroke="none" />
<circle cx="515.6934551173795" cy="484.3065448826205" r="5" fill="black" stroke="none" />
<path d="M475.6934551173795,524.3065448826205 A34.3746454274323,34.3746454274323,0,0,0,508.90796297372356,533.2003681292913" stroke="grey" stroke-width="5" fill="none" />
<path d="M508.90796297372356,533.2003681292913 L23.69345511737947,88.30654488262053" stroke="grey" stroke-width="5" />
<circle cx="508.90796297372356" cy="533.2003681292913" r="2.5" fill="grey" stroke="none" />
<circle cx="475.6934551173795" cy="524.3065448826205" r="5" fill="black" stroke="none" />
<circle cx="523.6934551173795" cy="588.3065448826205" r="5" fill="black" stroke="none" />
<path d="M427.6934551173795,532.3065448826205 A79.19563924304919,79.19563924304919,0,0,0,478.98288114980835,576.355942731081" stroke="grey" stroke-width="5" fill="none" />
<path d="M478.98288114980835,576.3559427310809 L-24.30654488262053,88.30654488262053" stroke="grey" stroke-width="5" />
<circle cx="478.98288114980835" cy="576.3559427310809" r="2.5" fill="grey" stroke="none" />
<circle cx="427.6934551173795" cy="532.3065448826205" r="5" fill="black" stroke="none" />
<circle cx="475.6934551173795" cy="588.3065448826205" r="5" fill="black" stroke="none" />
<path d="M379.6934551173795,644.3065448826205 L396.64307023346055,623.9756443744368" stroke="grey" stroke-width="5" />
<circle cx="396.64307023346055" cy="623.9756443744368" r="2.5" fill="grey" stroke="none" />
<path d="M396.64307023346055,623.9756443744368 A161.40822571610838,161.40822571610838,0,0,0,427.6934551173795,644.3065448826205" stroke="grey" stroke-width="5" fill="none" />
<circle cx="379.6934551173795" cy="644.3065448826205" r="5" fill="black" stroke="none" />
<circle cx="427.6934551173795" cy="644.3065448826205" r="5" fill="black" stroke="none" />
<path d="M379.6934551173795,692.3065448826205 L397.1961961050385,664.3289178250392" stroke="grey" stroke-width="5" />
<circle cx="397.1961961050385" cy="664.3289178250392" r="2.5" fill="grey" stroke="none" />
<path d="M397.1961961050385,664.3289178250392 A193.83656860567407,193.83656860567407,0,0,0,475.6934551173795,692.3065448826205" stroke="grey" stroke-width="5" fill="none" />
<circle cx="379.6934551173795" cy="692.3065448826205" r="5" fill="black" stroke="none" />
<circle cx="475.6934551173795" cy="692.3065448826205" r="5" fill="black" stroke="none" />
<path d="M379.6934551173795,748.3065448826205 L391.214521018302,724.5276551304944" stroke="grey" stroke-width="5" />
<circle cx="391.214521018302" cy="724.5276551304944" r="2.5" fill="grey" stroke="none" />
<path d="M391.214521018302,724.5276551304944 A249.49338339057348,249.49338339057348,0,0,0,475.6934551173795,748.3065448826205" stroke="grey" stroke-width="5" fill="none" />
<circle cx="379.6934551173795" cy="748.3065448826205" r="5" fill="black" stroke="none" />
<circle cx="475.6934551173795" cy="748.3065448826205" r="5" fill="black" stroke="none" />
<path d="M523.6934551173795,588.3065448826205 A91.42989491684627,91.42989491684627,0,0,1,475.73612655577443,588.1515180242981" stroke="grey" stroke-width="5" fill="none" />
<path d="M475.7361265557744,588.1515180242981 L-24.30654488262053,88.30654488262053" stroke="grey" stroke-width="5" />
<circle cx="475.7361265557744" cy="588.1515180242981" r="2.5" fill="grey" stroke="none" />
<circle cx="523.6934551173795" cy="588.3065448826205" r="5" fill="black" stroke="none" />
<circle cx="475.6934551173795" cy="588.3065448826205" r="5" fill="black" stroke="none" />
<path d="M475.69345511737953,588.3065448826205 A91.5906872626094,91.5906872626094,0,0,1,458.96983496347923,581.8863819588641" stroke="grey" stroke-width="5" fill="none" />
<path d="M458.96983496347923,581.8863819588641 L-72.30654488262053,144.30654488262053" stroke="grey" stroke-width="5" />
<circle cx="458.96983496347923" cy="581.8863819588641" r="2.5" fill="grey" stroke="none" />
<circle cx="475.6934551173795" cy="588.3065448826205" r="5" fill="black" stroke="none" />
<circle cx="427.6934551173795" cy="644.3065448826205" r="5" fill="black" stroke="none" />
<path d="M427.6934551173795,644.3065448826205 A161.40822571610838,161.40822571610838,0,0,0,479.75987549194633,660.134170896535" stroke="grey" stroke-width="5" fill="none" />
<path d="M479.75987549194633,660.134170896535 L-24.30654488262053,192.30654488262053" stroke="grey" stroke-width="5" />
<circle cx="479.75987549194633" cy="660.134170896535" r="2.5" fill="grey" stroke="none" />
<circle cx="427.6934551173795" cy="644.3065448826205" r="5" fill="black" stroke="none" />
<circle cx="475.6934551173795" cy="692.3065448826205" r="5" fill="black" stroke="none" />
<path d="M475.6934551173795,692.3065448826205 A193.83656860567407,193.83656860567407,0,0,0,481.11574266748676,692.9144892272782" stroke="grey" stroke-width="5" fill="none" />
<path d="M481.11574266748676,692.9144892272782 L-24.30654488262053,248.30654488262053" stroke="grey" stroke-width="5" />
<circle cx="481.11574266748676" cy="692.9144892272782" r="2.5" fill="grey" stroke="none" />
<circle cx="475.6934551173795" cy="692.3065448826205" r="5" fill="black" stroke="none" />
<circle cx="475.6934551173795" cy="748.3065448826205" r="5" fill="black" stroke="none" />
<path d="M475.6934551173795,748.3065448826205 A249.49338339057348,249.49338339057348,0,0,0,535.8676855699476,746.9017162506796" stroke="grey" stroke-width="5" fill="none" />
<path d="M535.8676855699476,746.9017162506796 L47.69345511737947,328.3065448826205" stroke="grey" stroke-width="5" />
<circle cx="535.8676855699476" cy="746.9017162506796" r="2.5" fill="grey" stroke="none" />
<circle cx="475.6934551173795" cy="748.3065448826205" r="5" fill="black" stroke="none" />
<circle cx="547.6934551173795" cy="828.3065448826205" r="5" fill="black" stroke="none" />
<path d="M523.6934551173795,588.3065448826205 A91.42989491684627,91.42989491684627,0,0,1,499.7504396379748,591.4295543253452" stroke="grey" stroke-width="5" fill="none" />
<path d="M499.75043963797475,591.4295543253452 L-0.30654488262052837,112.30654488262053" stroke="grey" stroke-width="5" />
<circle cx="499.75043963797475" cy="591.4295543253452" r="2.5" fill="grey" stroke="none" />
<circle cx="523.6934551173795" cy="588.3065448826205" r="5" fill="black" stroke="none" />
<circle cx="499.6934551173795" cy="612.3065448826205" r="5" fill="black" stroke="none" />
<path d="M499.6934551173795,612.3065448826205 A112.3069632446587,112.3069632446587,0,0,1,481.3461286282152,610.7469506401058" stroke="grey" stroke-width="5" fill="none" />
<path d="M481.3461286282152,610.7469506401058 L-24.30654488262053,144.30654488262053" stroke="grey" stroke-width="5" />
<circle cx="481.3461286282152" cy="610.7469506401058" r="2.5" fill="grey" stroke="none" />
<circle cx="499.6934551173795" cy="612.3065448826205" r="5" fill="black" stroke="none" />
<circle cx="475.6934551173795" cy="644.3065448826205" r="5" fill="black" stroke="none" />
<path d="M475.6934551173795,644.3065448826205 A146.33928734311445,146.33928734311445,0,0,0,481.64947676549,645.1841772271011" stroke="grey" stroke-width="5" fill="none" />
<path d="M481.64947676549,645.1841772271011 L-24.30654488262053,192.30654488262053" stroke="grey" stroke-width="5" />
<circle cx="481.64947676549" cy="645.1841772271011" r="2.5" fill="grey" stroke="none" />
<circle cx="475.6934551173795" cy="644.3065448826205" r="5" fill="black" stroke="none" />
<circle cx="475.6934551173795" cy="692.3065448826205" r="5" fill="black" stroke="none" />
<path d="M475.69345511737953,588.3065448826205 A91.5906872626094,91.5906872626094,0,0,0,499.750000750934,591.5903460721303" stroke="grey" stroke-width="5" fill="none" />
<path d="M499.75000075093396,591.5903460721303 L-0.30654488262052837,112.30654488262053" stroke="grey" stroke-width="5" />
<circle cx="499.75000075093396" cy="591.5903460721303" r="2.5" fill="grey" stroke="none" />
<circle cx="475.6934551173795" cy="588.3065448826205" r="5" fill="black" stroke="none" />
<circle cx="499.6934551173795" cy="612.3065448826205" r="5" fill="black" stroke="none" />
<path d="M427.6934551173795,644.3065448826205 L434.44393430743474,630.834205279058" stroke="grey" stroke-width="5" />
<circle cx="434.44393430743474" cy="630.834205279058" r="2.5" fill="grey" stroke="none" />
<path d="M434.44393430743474,630.834205279058 A146.33928734311445,146.33928734311445,0,0,0,475.6934551173795,644.3065448826205" stroke="grey" stroke-width="5" fill="none" />
<circle cx="427.6934551173795" cy="644.3065448826205" r="5" fill="black" stroke="none" />
<circle cx="475.6934551173795" cy="644.3065448826205" r="5" fill="black" stroke="none" />
<path d="M523.6934551173795,588.3065448826205 A91.42989491684627,91.42989491684627,0,0,1,514.8133841729406,590.2218894384862" stroke="grey" stroke-width="5" fill="none" />
<path d="M514.8133841729406,590.2218894384862 L23.69345511737947,144.30654488262053" stroke="grey" stroke-width="5" />
<circle cx="514.8133841729406" cy="590.2218894384862" r="2.5" fill="grey" stroke="none" />
<circle cx="523.6934551173795" cy="588.3065448826205" r="5" fill="black" stroke="none" />
<circle cx="523.6934551173795" cy="644.3065448826205" r="5" fill="black" stroke="none" />
<path d="M499.6934551173795,612.3065448826205 A112.3069632446587,112.3069632446587,0,0,0,518.1958668261896,610.8231222429719" stroke="grey" stroke-width="5" fill="none" />
<path d="M518.1958668261896,610.8231222429719 L23.69345511737947,144.30654488262053" stroke="grey" stroke-width="5" />
<circle cx="518.1958668261896" cy="610.8231222429719" r="2.5" fill="grey" stroke="none" />
<circle cx="499.6934551173795" cy="612.3065448826205" r="5" fill="black" stroke="none" />
<circle cx="523.6934551173795" cy="644.3065448826205" r="5" fill="black" stroke="none" />
<path d="M475.6934551173795,644.3065448826205 L475.7101616353549,644.2073592559633" stroke="grey" stroke-width="5" />
<circle cx="475.7101616353549" cy="644.2073592559633" r="2.5" fill="grey" stroke="none" />
<path d="M475.7101616353549,644.2073592559633 A146.23870455990456,146.23870455990456,0,0,0,523.6934551173795,644.3065448826205" stroke="grey" stroke-width="5" fill="none" />
<circle cx="475.6934551173795" cy="644.3065448826205" r="5" fill="black" stroke="none" />
<circle cx="523.6934551173795" cy="644.3065448826205" r="5" fill="black" stroke="none" />
<path d="M475.6934551173795,692.3065448826205 L481.6620895554919,645.084388380998" stroke="grey" stroke-width="5" />
<circle cx="481.6620895554919" cy="645.084388380998" r="2.5" fill="grey" stroke="none" />
<path d="M481.6620895554919,645.084388380998 A146.23870455990456,146.23870455990456,0,0,0,523.6934551173795,644.3065448826205" stroke="grey" stroke-width="5" fill="none" />
<circle cx="475.6934551173795" cy="692.3065448826205" r="5" fill="black" stroke="none" />
<circle cx="523.6934551173795" cy="644.3065448826205" r="5" fill="black" stroke="none" />
<path d="M523.6934551173795,644.3065448826205 A146.23870455990456,146.23870455990456,0,0,1,515.9232307793358,645.3692176250084" stroke="grey" stroke-width="5" fill="none" />
<path d="M515.9232307793358,645.3692176250084 L23.69345511737947,216.30654488262053" stroke="grey" stroke-width="5" />
<circle cx="515.9232307793358" cy="645.3692176250084" r="2.5" fill="grey" stroke="none" />
<circle cx="523.6934551173795" cy="644.3065448826205" r="5" fill="black" stroke="none" />
<circle cx="523.6934551173795" cy="716.3065448826205" r="5" fill="black" stroke="none" />
<path d="M523.6934551173795,716.3065448826205 A217.6003243895937,217.6003243895937,0,0,1,478.80059190600446,716.5652009694093" stroke="grey" stroke-width="5" fill="none" />
<path d="M478.80059190600446,716.5652009694093 L-24.30654488262053,248.30654488262053" stroke="grey" stroke-width="5" />
<circle cx="478.80059190600446" cy="716.5652009694093" r="2.5" fill="grey" stroke="none" />
<circle cx="523.6934551173795" cy="716.3065448826205" r="5" fill="black" stroke="none" />
<circle cx="475.6934551173795" cy="748.3065448826205" r="5" fill="black" stroke="none" />
<path d="M523.6934551173795,588.3065448826205 A91.42989491684627,91.42989491684627,0,0,0,590.747128666594,488.84722800043943" stroke="grey" stroke-width="5" fill="none" />
<path d="M590.747128666594,488.84722800043943 L127.69345511737947,-15.693455117379472" stroke="grey" stroke-width="5" />
<circle cx="590.747128666594" cy="488.84722800043943" r="2.5" fill="grey" stroke="none" />
<circle cx="523.6934551173795" cy="588.3065448826205" r="5" fill="black" stroke="none" />
<circle cx="627.6934551173795" cy="484.3065448826205" r="5" fill="black" stroke="none" />
<path d="M523.6934551173795,588.3065448826205 A91.42989491684627,91.42989491684627,0,0,0,573.4828122715121,554.4031431552926" stroke="grey" stroke-width="5" fill="none" />
<path d="M573.4828122715121,554.4031431552926 L151.69345511737947,112.30654488262053" stroke="grey" stroke-width="5" />
<circle cx="573.4828122715121" cy="554.4031431552926" r="2.5" fill="grey" stroke="none" />
<circle cx="523.6934551173795" cy="588.3065448826205" r="5" fill="black" stroke="none" />
<circle cx="651.6934551173795" cy="612.3065448826205" r="5" fill="black" stroke="none" />
<path d="M651.6934551173795,612.3065448826205 A188.74232262245923,188.74232262245923,0,0,0,670.9120563853346,580.0795437740294" stroke="grey" stroke-width="5" fill="none" />
<path d="M670.9120563853346,580.0795437740294 L239.69345511737947,112.30654488262053" stroke="grey" stroke-width="5" />
<circle cx="670.9120563853346" cy="580.0795437740294" r="2.5" fill="grey" stroke="none" />
<circle cx="651.6934551173795" cy="612.3065448826205" r="5" fill="black" stroke="none" />
<circle cx="739.6934551173795" cy="612.3065448826205" r="5" fill="black" stroke="none" />
<path d="M523.6934551173795,644.3065448826205 A146.23870455990456,146.23870455990456,0,0,0,548.698762037466,637.8919478699801" stroke="grey" stroke-width="5" fill="none" />
<path d="M548.698762037466,637.8919478699801 L87.69345511737947,248.30654488262053" stroke="grey" stroke-width="5" />
<circle cx="548.698762037466" cy="637.8919478699801" r="2.5" fill="grey" stroke="none" />
<circle cx="523.6934551173795" cy="644.3065448826205" r="5" fill="black" stroke="none" />
<circle cx="587.6934551173795" cy="748.3065448826205" r="5" fill="black" stroke="none" />
<circle cx="500" cy="500" r="5" fill="red" stroke="none" />
</svg>