<?xml version="1.0" encoding="UTF-8"?>
<svg xmlns="http://www.w3.org/2000/svg" xmlns:xlink="http://www.w3.org/1999/xlink"
     width="1000" height="1000" viewBox="0 0 1000 1000">
<defs>
</defs>
<rect x="0" y="0" width="1000" height="1000" fill="white" />
<path d="M345.6882247473434,684.0 L429.62790718962464,583.9110628849185" stroke="grey" stroke-width="5" />
<circle cx="429.62790718962464" cy="583.9110628849185" r="2.5" fill="grey" stroke="none" />
<path d="M429.62790718962464,583.9110628849185 A109.5139165630963,109.5139165630963,0,0,0,465.6882247473434,604.0" stroke="grey" stroke-width="5" fill="none" />
<circle cx="345.6882247473434" cy="684.0" r="5" fill="black" stroke="none" />
<circle cx="465.6882247473434" cy="604.0" r="5" fill="black" stroke="none" />
<path d="M465.6882247473434,604.0 L481.5139351199845,556.0318063803112" stroke="grey" stroke-width="5" />
<circle cx="481.5139351199845" cy="556.0318063803112" r="2.5" fill="grey" stroke="none" />
<path d="M481.5139351199845,556.0318063803112 A59.002524700124646,59.002524700124646,0,0,1,465.6882247473434,548.0" stroke="grey" stroke-width="5" fill="none" />
<circle cx="465.6882247473434" cy="604.0" r="5" fill="black" stroke="none" />
<circle cx="465.6882247473434" cy="548.0" r="5" fill="black" stroke="none" />
<path d="M465.6882247473434,548.0 A59.002524700124646,59.002524700124646,0,0,1,444.2587572890088,519.3445543247497" stroke="grey" stroke-width="5" fill="none" />
<path d="M444.2587572890088,519.3445543247497 L361.6882247473434,548.0" stroke="grey" stroke-width="5" />
<circle cx="444.2587572890088" cy="519.3445543247497" r="2.5" fill="grey" stroke="none" />
<circle cx="465.6882247473434" cy="548.0" r="5" fill="black" stroke="none" />
<circle cx="361.6882247473434" cy="548.0" r="5" fill="black" stroke="none" />
<path d="M361.6882247473434,548.0 L393.1113775017303,537.0948451102206" stroke="grey" stroke-width="5" />
<circle cx="393.1113775017303" cy="537.0948451102206" r="2.5" fill="grey" stroke="none" />
<path d="M393.1113775017303,537.0948451102206 A113.1424109400576,113.1424109400576,0,0,1,401.6882247473434,444.0" stroke="grey" stroke-width="5" fill="none" />
<circle cx="361.6882247473434" cy="548.0" r="5" fill="black" stroke="none" />
<circle cx="401.6882247473434" cy="444.0" r="5" fill="black" stroke="none" />
<path d="M401.6882247473434,444.0 A113.1424109400576,113.1424109400576,0,0,1,510.70672787327845,387.36532003163313" stroke="grey" stroke-width="5" fill="none" />
<path d="M510.7067278732785,387.36532003163313 L513.6882247473434,356.0" stroke="grey" stroke-width="5" />
<circle cx="510.7067278732785" cy="387.36532003163313" r="2.5" fill="grey" stroke="none" />
<circle cx="401.6882247473434" cy="444.0" r="5" fill="black" stroke="none" />
<circle cx="513.6882247473434" cy="356.0" r="5" fill="black" stroke="none" />
<path d="M513.6882247473434,356.0 L512.768265087853,365.6779672610444" stroke="grey" stroke-width="5" />
<circle cx="512.768265087853" cy="365.6779672610444" r="2.5" fill="grey" stroke="none" />
<path d="M512.768265087853,365.6779672610444 A134.92752525885425,134.92752525885425,0,0,1,561.6882247473434,380.0" stroke="grey" stroke-width="5" fill="none" />
<circle cx="513.6882247473434" cy="356.0" r="5" fill="black" stroke="none" />
<circle cx="561.6882247473434" cy="380.0" r="5" fill="black" stroke="none" />
<path d="M561.6882247473434,380.0 L551.5868779026241,399.64980555577614" stroke="grey" stroke-width="5" />
<circle cx="551.5868779026241" cy="399.64980555577614" r="2.5" fill="grey" stroke="none" />
<path d="M551.5868779026241,399.64980555577614 A112.83336163003291,112.83336163003291,0,0,0,513.6882247473434,388.0" stroke="grey" stroke-width="5" fill="none" />
<circle cx="561.6882247473434" cy="380.0" r="5" fill="black" stroke="none" />
<circle cx="513.6882247473434" cy="388.0" r="5" fill="black" stroke="none" />
<path d="M513.6882247473434,356.0 L510.67748236901207,387.67298247085336" stroke="grey" stroke-width="5" />
<circle cx="510.67748236901207" cy="387.67298247085336" r="2.5" fill="grey" stroke="none" />
<path d="M510.67748236901207,387.67298247085336 A112.83336163003291,112.83336163003291,0,0,1,513.6882247473434,388.0" stroke="grey" stroke-width="5" fill="none" />
<circle cx="513.6882247473434" cy="356.0" r="5" fill="black" stroke="none" />
<circle cx="513.6882247473434" cy="388.0" r="5" fill="black" stroke="none" />
<path d="M513.6882247473434,388.0 L504.1624860267718,465.94164374098847" stroke="grey" stroke-width="5" />
<circle cx="504.1624860267718" cy="465.94164374098847" r="2.5" fill="grey" stroke="none" />
<path d="M504.1624860267718,465.94164374098847 A34.311775252656616,34.311775252656616,0,0,0,465.6882247473434,500.0" stroke="grey" stroke-width="5" fill="none" />
<circle cx="513.6882247473434" cy="388.0" r="5" fill="black" stroke="none" />
<circle cx="465.6882247473434" cy="500.0" r="5" fill="black" stroke="none" />
<path d="M401.6882247473434,444.0 L470.18579055252786,483.0173371931525" stroke="grey" stroke-width="5" />
<circle cx="470.18579055252786" cy="483.0173371931525" r="2.5" fill="grey" stroke="none" />
<path d="M470.18579055252786,483.0173371931525 A34.311775252656616,34.311775252656616,0,0,0,465.6882247473434,500.0" stroke="grey" stroke-width="5" fill="none" />
<circle cx="401.6882247473434" cy="444.0" r="5" fill="black" stroke="none" />
<circle cx="465.6882247473434" cy="500.0" r="5" fill="black" stroke="none" />
<path d="M465.6882247473434,500.0 A34.311775252656616,34.311775252656616,0,0,0,480.0466517835917,527.9134701523042" stroke="grey" stroke-width="5" fill="none" />
<path d="M480.0466517835917,527.9134701523042 L465.6882247473434,548.0" stroke="grey" stroke-width="5" />
<circle cx="480.0466517835917" cy="527.9134701523042" r="2.5" fill="grey" stroke="none" />
<circle cx="465.6882247473434" cy="500.0" r="5" fill="black" stroke="none" />
<circle cx="465.6882247473434" cy="548.0" r="5" fill="black" stroke="none" />
<path d="M561.6882247473434,380.0 A134.92752525885425,134.92752525885425,0,0,1,572.3734362309074,386.1249684934861" stroke="grey" stroke-width="5" fill="none" />
<path d="M572.3734362309074,386.1249684934861 L601.6882247473434,340.0" stroke="grey" stroke-width="5" />
<circle cx="572.3734362309074" cy="386.1249684934861" r="2.5" fill="grey" stroke="none" />
<circle cx="561.6882247473434" cy="380.0" r="5" fill="black" stroke="none" />
<circle cx="601.6882247473434" cy="340.0" r="5" fill="black" stroke="none" />
<path d="M561.6882247473434,380.0 L556.3065365498454,390.4688145321862" stroke="grey" stroke-width="5" />
<circle cx="556.3065365498454" cy="390.4688145321862" r="2.5" fill="grey" stroke="none" />
<path d="M556.3065365498454,390.4688145321862 A123.15643161533917,123.15643161533917,0,0,1,609.6882247473434,444.0" stroke="grey" stroke-width="5" fill="none" />
<circle cx="561.6882247473434" cy="380.0" r="5" fill="black" stroke="none" />
<circle cx="609.6882247473434" cy="444.0" r="5" fill="black" stroke="none" />
<path d="M513.6882247473434,388.0 L510.10727996480756,417.30006067600925" stroke="grey" stroke-width="5" />
<circle cx="510.10727996480756" cy="417.30006067600925" r="2.5" fill="grey" stroke="none" />
<path d="M510.10727996480756,417.30006067600925 A83.31528714755024,83.31528714755024,0,0,1,561.6882247473434,444.0" stroke="grey" stroke-width="5" fill="none" />
<circle cx="513.6882247473434" cy="388.0" r="5" fill="black" stroke="none" />
<circle cx="561.6882247473434" cy="444.0" r="5" fill="black" stroke="none" />
<path d="M465.6882247473434,500.0 L513.6882247473434,500.0" stroke="grey" stroke-width="5" />
<circle cx="465.6882247473434" cy="500.0" r="5" fill="black" stroke="none" />
<circle cx="513.6882247473434" cy="500.0" r="5" fill="black" stroke="none" />
<path d="M465.6882247473434,548.0 A59.002524700124646,59.002524700124646,0,0,0,546.5663576913112,536.2335790718179" stroke="grey" stroke-width="5" fill="none" />
<path d="M546.5663576913112,536.2335790718179 L561.6882247473434,548.0" stroke="grey" stroke-width="5" />
<circle cx="546.5663576913112" cy="536.2335790718179" r="2.5" fill="grey" stroke="none" />
<circle cx="465.6882247473434" cy="548.0" r="5" fill="black" stroke="none" />
<circle cx="561.6882247473434" cy="548.0" r="5" fill="black" stroke="none" />
<path d="M465.6882247473434,604.0 A109.5139165630963,109.5139165630963,0,0,0,555.8697275619745,594.1906123939087" stroke="grey" stroke-width="5" fill="none" />
<path d="M555.8697275619745,594.1906123939087 L561.6882247473434,604.0" stroke="grey" stroke-width="5" />
<circle cx="555.8697275619745" cy="594.1906123939087" r="2.5" fill="grey" stroke="none" />
<circle cx="465.6882247473434" cy="604.0" r="5" fill="black" stroke="none" />
<circle cx="561.6882247473434" cy="604.0" r="5" fill="black" stroke="none" />
<path d="M609.6882247473434,444.0 L574.2040494488614,462.1160176608941" stroke="grey" stroke-width="5" />
<circle cx="574.2040494488614" cy="462.1160176608941" r="2.5" fill="grey" stroke="none" />
<path d="M574.2040494488614,462.1160176608941 A83.31528714755024,83.31528714755024,0,0,0,561.6882247473434,444.0" stroke="grey" stroke-width="5" fill="none" />
<circle cx="609.6882247473434" cy="444.0" r="5" fill="black" stroke="none" />
<circle cx="561.6882247473434" cy="444.0" r="5" fill="black" stroke="none" />
<path d="M561.6882247473434,444.0 L510.13502219719703,490.79952056705156" stroke="grey" stroke-width="5" />
<circle cx="510.13502219719703" cy="490.79952056705156" r="2.5" fill="grey" stroke="none" />
<path d="M510.13502219719703,490.79952056705156 A13.688224747343384,13.688224747343384,0,0,1,513.6882247473434,500.0" stroke="grey" stroke-width="5" fill="none" />
<circle cx="561.6882247473434" cy="444.0" r="5" fill="black" stroke="none" />
<circle cx="513.6882247473434" cy="500.0" r="5" fill="black" stroke="none" />
<path d="M513.6882247473434,500.0 A13.688224747343384,13.688224747343384,0,0,1,510.8031100869571,508.40596866416183" stroke="grey" stroke-width="5" fill="none" />
<path d="M510.8031100869571,508.40596866416183 L561.6882247473434,548.0" stroke="grey" stroke-width="5" />
<circle cx="510.8031100869571" cy="508.40596866416183" r="2.5" fill="grey" stroke="none" />
<circle cx="513.6882247473434" cy="500.0" r="5" fill="black" stroke="none" />
<circle cx="561.6882247473434" cy="548.0" r="5" fill="black" stroke="none" />
<path d="M561.6882247473434,548.0 A78.16288807662335,78.16288807662335,0,0,1,539.8756559837036,567.2262532969678" stroke="grey" stroke-width="5" fill="none" />
<path d="M539.8756559837036,567.2262532969678 L561.6882247473434,604.0" stroke="grey" stroke-width="5" />
<circle cx="539.8756559837036" cy="567.2262532969678" r="2.5" fill="grey" stroke="none" />
<circle cx="561.6882247473434" cy="548.0" r="5" fill="black" stroke="none" />
<circle cx="561.6882247473434" cy="604.0" r="5" fill="black" stroke="none" />
<path d="M561.6882247473434,604.0 A120.91913443487242,120.91913443487242,0,0,0,571.0760148709167,597.8245223987727" stroke="grey" stroke-width="5" fill="none" />
<path d="M571.0760148709167,597.8245223987727 L633.6882247473434,684.0" stroke="grey" stroke-width="5" />
<circle cx="571.0760148709167" cy="597.8245223987727" r="2.5" fill="grey" stroke="none" />
<circle cx="561.6882247473434" cy="604.0" r="5" fill="black" stroke="none" />
<circle cx="633.6882247473434" cy="684.0" r="5" fill="black" stroke="none" />
<path d="M609.6882247473434,444.0 L581.4655676563663,458.40873713413794" stroke="grey" stroke-width="5" />
<circle cx="581.4655676563663" cy="458.40873713413794" r="2.5" fill="grey" stroke="none" />
<path d="M581.4655676563663,458.40873713413794 A91.46842001669883,91.46842001669883,0,0,1,585.6882247473434,468.0" stroke="grey" stroke-width="5" fill="none" />
<circle cx="609.6882247473434" cy="444.0" r="5" fill="black" stroke="none" />
<circle cx="585.6882247473434" cy="468.0" r="5" fill="black" stroke="none" />
<path d="M585.6882247473434,468.0 L557.7899395818794,478.4185274922798" stroke="grey" stroke-width="5" />
<circle cx="557.7899395818794" cy="478.4185274922798" r="2.5" fill="grey" stroke="none" />
<path d="M557.7899395818794,478.4185274922798 A61.688224747343384,61.688224747343384,0,0,1,561.6882247473434,500.0" stroke="grey" stroke-width="5" fill="none" />
<circle cx="585.6882247473434" cy="468.0" r="5" fill="black" stroke="none" />
<circle cx="561.6882247473434" cy="500.0" r="5" fill="black" stroke="none" />
<path d="M561.6882247473434,500.0 A61.688224747343384,61.688224747343384,0,0,1,548.6859834138711,537.882873326914" stroke="grey" stroke-width="5" fill="none" />
<path d="M548.6859834138711,537.882873326914 L561.6882247473434,548.0" stroke="grey" stroke-width="5" />
<circle cx="548.6859834138711" cy="537.882873326914" r="2.5" fill="grey" stroke="none" />
<circle cx="561.6882247473434" cy="500.0" r="5" fill="black" stroke="none" />
<circle cx="561.6882247473434" cy="548.0" r="5" fill="black" stroke="none" />
<path d="M561.6882247473434,444.0 A83.31528714755024,83.31528714755024,0,0,1,578.0503156027554,470.8523533233123" stroke="grey" stroke-width="5" fill="none" />
<path d="M578.0503156027554,470.8523533233123 L585.6882247473434,468.0" stroke="grey" stroke-width="5" />
<circle cx="578.0503156027554" cy="470.8523533233123" r="2.5" fill="grey" stroke="none" />
<circle cx="561.6882247473434" cy="444.0" r="5" fill="black" stroke="none" />
<circle cx="585.6882247473434" cy="468.0" r="5" fill="black" stroke="none" />
<path d="M513.6882247473434,500.0 A13.688224747343384,13.688224747343384,0,0,1,513.6882247473434,500.0" stroke="grey" stroke-width="5" fill="none" />
<path d="M513.6882247473434,500.0 L561.6882247473434,500.0" stroke="grey" stroke-width="5" />
<circle cx="513.6882247473434" cy="500.0" r="2.5" fill="grey" stroke="none" />
<circle cx="513.6882247473434" cy="500.0" r="5" fill="black" stroke="none" />
<circle cx="561.6882247473434" cy="500.0" r="5" fill="black" stroke="none" />
<path d="M609.6882247473434,444.0 L597.6928812439317,450.1240779284955" stroke="grey" stroke-width="5" />
<circle cx="597.6928812439317" cy="450.1240779284955" r="2.5" fill="grey" stroke="none" />
<path d="M597.6928812439317,450.1240779284955 A109.68822474734338,109.68822474734338,0,0,1,609.6882247473434,500.0" stroke="grey" stroke-width="5" fill="none" />
<circle cx="609.6882247473434" cy="444.0" r="5" fill="black" stroke="none" />
<circle cx="609.6882247473434" cy="500.0" r="5" fill="black" stroke="none" />
<path d="M585.6882247473434,468.0 A91.46842001669883,91.46842001669883,0,0,1,591.4684200166988,500.0" stroke="grey" stroke-width="5" fill="none" />
<path d="M591.4684200166988,500.0 L609.6882247473434,500.0" stroke="grey" stroke-width="5" />
<circle cx="591.4684200166988" cy="500.0" r="2.5" fill="grey" stroke="none" />
<circle cx="585.6882247473434" cy="468.0" r="5" fill="black" stroke="none" />
<circle cx="609.6882247473434" cy="500.0" r="5" fill="black" stroke="none" />
<path d="M561.6882247473434,500.0 A61.688224747343384,61.688224747343384,0,0,1,561.6882247473434,500.0" stroke="grey" stroke-width="5" fill="none" />
<path d="M561.6882247473434,500.0 L609.6882247473434,500.0" stroke="grey" stroke-width="5" />
<circle cx="561.6882247473434" cy="500.0" r="2.5" fill="grey" stroke="none" />
<circle cx="561.6882247473434" cy="500.0" r="5" fill="black" stroke="none" />
<circle cx="609.6882247473434" cy="500.0" r="5" fill="black" stroke="none" />
<path d="M561.6882247473434,548.0 A78.16288807662335,78.16288807662335,0,0,0,578.1628880766234,500.0" stroke="grey" stroke-width="5" fill="none" />
<path d="M578.1628880766234,500.0 L609.6882247473434,500.0" stroke="grey" stroke-width="5" />
<circle cx="578.1628880766234" cy="500.0" r="2.5" fill="grey" stroke="none" />
<circle cx="561.6882247473434" cy="548.0" r="5" fill="black" stroke="none" />
<circle cx="609.6882247473434" cy="500.0" r="5" fill="black" stroke="none" />
<path d="M609.6882247473434,500.0 A109.68822474734338,109.68822474734338,0,0,1,591.6980522941593,560.1911443127752" stroke="grey" stroke-width="5" fill="none" />
<path d="M591.6980522941593,560.1911443127752 L609.6882247473434,572.0" stroke="grey" stroke-width="5" />
<circle cx="591.6980522941593" cy="560.1911443127752" r="2.5" fill="grey" stroke="none" />
<circle cx="609.6882247473434" cy="500.0" r="5" fill="black" stroke="none" />
<circle cx="609.6882247473434" cy="572.0" r="5" fill="black" stroke="none" />
<path d="M609.6882247473434,572.0 L601.0869593186844,566.3540784592883" stroke="grey" stroke-width="5" />
<circle cx="601.0869593186844" cy="566.3540784592883" r="2.5" fill="grey" stroke="none" />
<path d="M601.0869593186844,566.3540784592883 A120.91913443487242,120.91913443487242,0,0,1,561.6882247473434,604.0" stroke="grey" stroke-width="5" fill="none" />
<circle cx="609.6882247473434" cy="572.0" r="5" fill="black" stroke="none" />
<circle cx="561.6882247473434" cy="604.0" r="5" fill="black" stroke="none" />
<path d="M609.6882247473434,444.0 A123.15643161533917,123.15643161533917,0,0,0,598.5840558422188,426.1847537298561" stroke="grey" stroke-width="5" fill="none" />
<path d="M598.5840558422188,426.1847537298561 L713.6882247473434,340.0" stroke="grey" stroke-width="5" />
<circle cx="598.5840558422188" cy="426.1847537298561" r="2.5" fill="grey" stroke="none" />
<circle cx="609.6882247473434" cy="444.0" r="5" fill="black" stroke="none" />
<circle cx="713.6882247473434" cy="340.0" r="5" fill="black" stroke="none" />
<path d="M609.6882247473434,444.0 A123.15643161533917,123.15643161533917,0,0,1,622.0552563938625,483.56768321714156" stroke="grey" stroke-width="5" fill="none" />
<path d="M622.0552563938625,483.56768321714156 L737.6882247473434,468.0" stroke="grey" stroke-width="5" />
<circle cx="622.0552563938625" cy="483.56768321714156" r="2.5" fill="grey" stroke="none" />
<circle cx="609.6882247473434" cy="444.0" r="5" fill="black" stroke="none" />
<circle cx="737.6882247473434" cy="468.0" r="5" fill="black" stroke="none" />
<path d="M737.6882247473434,468.0 A239.83263369179687,239.83263369179687,0,0,1,738.6833069134851,476.5485355598696" stroke="grey" stroke-width="5" fill="none" />
<path d="M738.6833069134851,476.5485355598696 L825.6882247473434,468.0" stroke="grey" stroke-width="5" />
<circle cx="738.6833069134851" cy="476.5485355598696" r="2.5" fill="grey" stroke="none" />
<circle cx="737.6882247473434" cy="468.0" r="5" fill="black" stroke="none" />
<circle cx="825.6882247473434" cy="468.0" r="5" fill="black" stroke="none" />
<path d="M609.6882247473434,500.0 A109.68822474734338,109.68822474734338,0,0,1,594.1077380601349,556.3492704959766" stroke="grey" stroke-width="5" fill="none" />
<path d="M594.1077380601349,556.3492704959766 L673.6882247473434,604.0" stroke="grey" stroke-width="5" />
<circle cx="594.1077380601349" cy="556.3492704959766" r="2.5" fill="grey" stroke="none" />
<circle cx="609.6882247473434" cy="500.0" r="5" fill="black" stroke="none" />
<circle cx="673.6882247473434" cy="604.0" r="5" fill="black" stroke="none" />
<circle cx="500" cy="500" r="5" fill="red" stroke="none" />
</svg>