<?xml version="1.0" encoding="UTF-8"?>
<svg xmlns="http://www.w3.org/2000/svg" xmlns:xlink="http://www.w3.org/1999/xlink"
     width="1000" height="1000" viewBox="0 0 1000 1000">
<defs>
</defs>
<rect x="0" y="0" width="1000" height="1000" fill="white" />
<path d="M270.15575852896575,817.8442414710343 L346.4835168809938,712.2930286091619" stroke="grey" stroke-width="5" />
<circle cx="346.4835168809938" cy="712.2930286091619" r="2.5" fill="grey" stroke="none" />
<path d="M346.4835168809938,712.2930286091619 A261.9840464327523,261.9840464327523,0,0,0,390.1557585289658,737.8442414710343" stroke="grey" stroke-width="5" fill="none" />
<circle cx="270.15575852896575" cy="817.8442414710343" r="5" fill="black" stroke="none" />
<circle cx="390.15575852896575" cy="737.8442414710343" r="5" fill="black" stroke="none" />
<path d="M390.15575852896575,737.8442414710343 L410.92620392450124,692.8702786673549" stroke="grey" stroke-width="5" />
<circle cx="410.92620392450124" cy="692.8702786673549" r="2.5" fill="grey" stroke="none" />
<path d="M410.92620392450124,692.8702786673549 A212.44548839766563,212.44548839766563,0,0,1,390.15575852896575,681.8442414710343" stroke="grey" stroke-width="5" fill="none" />
<circle cx="390.15575852896575" cy="737.8442414710343" r="5" fill="black" stroke="none" />
<circle cx="390.15575852896575" cy="681.8442414710343" r="5" fill="black" stroke="none" />
<path d="M390.15575852896575,681.8442414710343 A212.44548839766563,212.44548839766563,0,0,1,338.1580541762902,637.623653899023" stroke="grey" stroke-width="5" fill="none" />
<path d="M338.1580541762902,637.623653899023 L286.15575852896575,681.8442414710343" stroke="grey" stroke-width="5" />
<circle cx="338.1580541762902" cy="637.623653899023" r="2.5" fill="grey" stroke="none" />
<circle cx="390.15575852896575" cy="681.8442414710343" r="5" fill="black" stroke="none" />
<circle cx="286.15575852896575" cy="681.8442414710343" r="5" fill="black" stroke="none" />
<path d="M286.15575852896575,681.8442414710343 L354.89363185700273,623.3924152741524" stroke="grey" stroke-width="5" />
<circle cx="354.89363185700273" cy="623.3924152741524" r="2.5" fill="grey" stroke="none" />
<path d="M354.89363185700273,623.3924152741524 A190.47715407061273,190.47715407061273,0,0,1,326.15575852896575,577.8442414710341" stroke="grey" stroke-width="5" fill="none" />
<circle cx="286.15575852896575" cy="681.8442414710343" r="5" fill="black" stroke="none" />
<circle cx="326.15575852896575" cy="577.8442414710343" r="5" fill="black" stroke="none" />
<path d="M326.15575852896575,577.8442414710343 L442.8001562196055,525.61303390707" stroke="grey" stroke-width="5" />
<circle cx="442.8001562196055" cy="525.61303390707" r="2.5" fill="grey" stroke="none" />
<path d="M442.8001562196055,525.61303390707 A62.672558862920624,62.672558862920624,0,0,1,438.15575852896575,489.84424147103425" stroke="grey" stroke-width="5" fill="none" />
<circle cx="326.15575852896575" cy="577.8442414710343" r="5" fill="black" stroke="none" />
<circle cx="438.15575852896575" cy="489.84424147103425" r="5" fill="black" stroke="none" />
<path d="M438.15575852896575,489.84424147103425 L480.6800497488299,496.827372365228" stroke="grey" stroke-width="5" />
<circle cx="480.6800497488299" cy="496.827372365228" r="2.5" fill="grey" stroke="none" />
<path d="M480.68004974882984,496.82737236522803 A19.578714049104647,19.578714049104647,0,0,0,486.1557585289658,513.8442414710343" stroke="grey" stroke-width="5" fill="none" />
<circle cx="438.15575852896575" cy="489.84424147103425" r="5" fill="black" stroke="none" />
<circle cx="486.15575852896575" cy="513.8442414710343" r="5" fill="black" stroke="none" />
<path d="M486.1557585289658,513.8442414710343 A19.578714049104647,19.578714049104647,0,0,1,481.5390421849839,506.52066563847603" stroke="grey" stroke-width="5" fill="none" />
<path d="M481.5390421849839,506.52066563847603 L438.15575852896575,521.8442414710343" stroke="grey" stroke-width="5" />
<circle cx="481.5390421849839" cy="506.52066563847603" r="2.5" fill="grey" stroke="none" />
<circle cx="486.15575852896575" cy="513.8442414710343" r="5" fill="black" stroke="none" />
<circle cx="438.15575852896575" cy="521.8442414710343" r="5" fill="black" stroke="none" />
<path d="M438.15575852896575,489.84424147103425 A62.672558862920624,62.672558862920624,0,0,0,440.9054413673096,520.873015460967" stroke="grey" stroke-width="5" fill="none" />
<path d="M440.9054413673096,520.873015460967 L438.15575852896575,521.8442414710343" stroke="grey" stroke-width="5" />
<circle cx="440.9054413673096" cy="520.873015460967" r="2.5" fill="grey" stroke="none" />
<circle cx="438.15575852896575" cy="489.84424147103425" r="5" fill="black" stroke="none" />
<circle cx="438.15575852896575" cy="521.8442414710343" r="5" fill="black" stroke="none" />
<path d="M438.15575852896575,521.8442414710343 A65.58872684061218,65.58872684061218,0,0,0,458.3907006491272,550.7005650471659" stroke="grey" stroke-width="5" fill="none" />
<path d="M458.3907006491272,550.7005650471659 L390.15575852896575,633.8442414710343" stroke="grey" stroke-width="5" />
<circle cx="458.3907006491272" cy="550.7005650471659" r="2.5" fill="grey" stroke="none" />
<circle cx="438.15575852896575" cy="521.8442414710343" r="5" fill="black" stroke="none" />
<circle cx="390.15575852896575" cy="633.8442414710343" r="5" fill="black" stroke="none" />
<path d="M326.15575852896575,577.8442414710343 L341.9721949779974,570.7619332638059" stroke="grey" stroke-width="5" />
<circle cx="341.9721949779974" cy="570.7619332638059" r="2.5" fill="grey" stroke="none" />
<path d="M341.9721949779974,570.7619332638059 A173.14744687492043,173.14744687492043,0,0,0,390.15575852896575,633.8442414710343" stroke="grey" stroke-width="5" fill="none" />
<circle cx="326.15575852896575" cy="577.8442414710343" r="5" fill="black" stroke="none" />
<circle cx="390.15575852896575" cy="633.8442414710343" r="5" fill="black" stroke="none" />
<path d="M390.15575852896575,633.8442414710343 A173.14744687492043,173.14744687492043,0,0,0,410.4746817262568,648.2068006107964" stroke="grey" stroke-width="5" fill="none" />
<path d="M410.4746817262568,648.2068006107964 L390.15575852896575,681.8442414710343" stroke="grey" stroke-width="5" />
<circle cx="410.4746817262568" cy="648.2068006107964" r="2.5" fill="grey" stroke="none" />
<circle cx="390.15575852896575" cy="633.8442414710343" r="5" fill="black" stroke="none" />
<circle cx="390.15575852896575" cy="681.8442414710343" r="5" fill="black" stroke="none" />
<path d="M486.15575852896575,513.8442414710343 L526.1557585289657,473.84424147103425" stroke="grey" stroke-width="5" />
<circle cx="486.15575852896575" cy="513.8442414710343" r="5" fill="black" stroke="none" />
<circle cx="526.1557585289657" cy="473.84424147103425" r="5" fill="black" stroke="none" />
<path d="M486.1557585289658,513.8442414710343 A19.578714049104647,19.578714049104647,0,0,0,507.8666322674427,517.9288075617269" stroke="grey" stroke-width="5" fill="none" />
<path d="M507.8666322674427,517.9288075617269 L534.1557585289657,577.8442414710343" stroke="grey" stroke-width="5" />
<circle cx="507.8666322674427" cy="517.9288075617269" r="2.5" fill="grey" stroke="none" />
<circle cx="486.15575852896575" cy="513.8442414710343" r="5" fill="black" stroke="none" />
<circle cx="534.1557585289657" cy="577.8442414710343" r="5" fill="black" stroke="none" />
<path d="M438.15575852896575,521.8442414710343 A65.58872684061218,65.58872684061218,0,0,0,488.5155525206453,564.5754485440588" stroke="grey" stroke-width="5" fill="none" />
<path d="M488.5155525206453,564.5754485440588 L486.15575852896575,577.8442414710343" stroke="grey" stroke-width="5" />
<circle cx="488.5155525206453" cy="564.5754485440588" r="2.5" fill="grey" stroke="none" />
<circle cx="438.15575852896575" cy="521.8442414710343" r="5" fill="black" stroke="none" />
<circle cx="486.15575852896575" cy="577.8442414710343" r="5" fill="black" stroke="none" />
<path d="M390.15575852896575,633.8442414710343 L406.46354737564286,613.9733442895114" stroke="grey" stroke-width="5" />
<circle cx="406.46354737564286" cy="613.9733442895114" r="2.5" fill="grey" stroke="none" />
<path d="M406.46354737564286,613.9733442895114 A147.44148391170006,147.44148391170006,0,0,0,438.1557585289658,633.8442414710343" stroke="grey" stroke-width="5" fill="none" />
<circle cx="390.15575852896575" cy="633.8442414710343" r="5" fill="black" stroke="none" />
<circle cx="438.15575852896575" cy="633.8442414710343" r="5" fill="black" stroke="none" />
<path d="M390.15575852896575,681.8442414710343 L405.70594389519533,656.1013201782357" stroke="grey" stroke-width="5" />
<circle cx="405.70594389519533" cy="656.1013201782357" r="2.5" fill="grey" stroke="none" />
<path d="M405.70594389519533,656.1013201782357 A182.37047781393815,182.37047781393815,0,0,0,486.15575852896575,681.8442414710343" stroke="grey" stroke-width="5" fill="none" />
<circle cx="390.15575852896575" cy="681.8442414710343" r="5" fill="black" stroke="none" />
<circle cx="486.15575852896575" cy="681.8442414710343" r="5" fill="black" stroke="none" />
<path d="M390.15575852896575,737.8442414710343 L400.1082648061335,716.2942150470012" stroke="grey" stroke-width="5" />
<circle cx="400.1082648061335" cy="716.2942150470012" r="2.5" fill="grey" stroke="none" />
<path d="M400.1082648061335,716.2942150470012 A238.246817865087,238.246817865087,0,0,0,486.15575852896586,737.8442414710343" stroke="grey" stroke-width="5" fill="none" />
<circle cx="390.15575852896575" cy="737.8442414710343" r="5" fill="black" stroke="none" />
<circle cx="486.15575852896575" cy="737.8442414710343" r="5" fill="black" stroke="none" />
<path d="M534.1557585289657,577.8442414710343 L531.7682247194406,572.4028234966297" stroke="grey" stroke-width="5" />
<circle cx="531.7682247194406" cy="572.4028234966297" r="2.5" fill="grey" stroke="none" />
<path d="M531.7682247194406,572.4028234966297 A79.06572552066406,79.06572552066406,0,0,1,486.15575852896575,577.8442414710343" stroke="grey" stroke-width="5" fill="none" />
<circle cx="534.1557585289657" cy="577.8442414710343" r="5" fill="black" stroke="none" />
<circle cx="486.15575852896575" cy="577.8442414710343" r="5" fill="black" stroke="none" />
<path d="M486.15575852896575,577.8442414710343 A79.06572552066406,79.06572552066406,0,0,1,466.83592913300544,571.7741830718953" stroke="grey" stroke-width="5" fill="none" />
<path d="M466.83592913300544,571.7741830718953 L438.15575852896575,633.8442414710343" stroke="grey" stroke-width="5" />
<circle cx="466.83592913300544" cy="571.7741830718953" r="2.5" fill="grey" stroke="none" />
<circle cx="486.15575852896575" cy="577.8442414710343" r="5" fill="black" stroke="none" />
<circle cx="438.15575852896575" cy="633.8442414710343" r="5" fill="black" stroke="none" />
<path d="M438.1557585289658,633.8442414710343 A147.44148391170006,147.44148391170006,0,0,0,488.8073139326656,647.0160363929126" stroke="grey" stroke-width="5" fill="none" />
<path d="M488.8073139326656,647.0160363929126 L486.15575852896575,681.8442414710343" stroke="grey" stroke-width="5" />
<circle cx="488.8073139326656" cy="647.0160363929126" r="2.5" fill="grey" stroke="none" />
<circle cx="438.15575852896575" cy="633.8442414710343" r="5" fill="black" stroke="none" />
<circle cx="486.15575852896575" cy="681.8442414710343" r="5" fill="black" stroke="none" />
<path d="M486.15575852896575,681.8442414710343 A182.37047781393815,182.37047781393815,0,0,0,489.402666719042,682.0623181919213" stroke="grey" stroke-width="5" fill="none" />
<path d="M489.4026667190419,682.0623181919213 L486.15575852896575,737.8442414710343" stroke="grey" stroke-width="5" />
<circle cx="489.4026667190419" cy="682.0623181919213" r="2.5" fill="grey" stroke="none" />
<circle cx="486.15575852896575" cy="681.8442414710343" r="5" fill="black" stroke="none" />
<circle cx="486.15575852896575" cy="737.8442414710343" r="5" fill="black" stroke="none" />
<path d="M486.15575852896586,737.8442414710343 A238.246817865087,238.246817865087,0,0,0,542.8800133922646,734.3562473550026" stroke="grey" stroke-width="5" fill="none" />
<path d="M542.8800133922646,734.3562473550026 L558.1557585289657,817.8442414710343" stroke="grey" stroke-width="5" />
<circle cx="542.8800133922646" cy="734.3562473550026" r="2.5" fill="grey" stroke="none" />
<circle cx="486.15575852896575" cy="737.8442414710343" r="5" fill="black" stroke="none" />
<circle cx="558.1557585289657" cy="817.8442414710343" r="5" fill="black" stroke="none" />
<path d="M534.1557585289657,577.8442414710343 A85.00789240352746,85.00789240352746,0,0,1,508.43502815244574,584.5883684140861" stroke="grey" stroke-width="5" fill="none" />
<path d="M508.43502815244574,584.5883684140861 L510.15575852896575,601.8442414710343" stroke="grey" stroke-width="5" />
<circle cx="508.43502815244574" cy="584.5883684140861" r="2.5" fill="grey" stroke="none" />
<circle cx="534.1557585289657" cy="577.8442414710343" r="5" fill="black" stroke="none" />
<circle cx="510.15575852896575" cy="601.8442414710343" r="5" fill="black" stroke="none" />
<path d="M510.15575852896575,601.8442414710343 A102.34934759005056,102.34934759005056,0,0,1,489.46962934730516,601.8061896253163" stroke="grey" stroke-width="5" fill="none" />
<path d="M489.46962934730516,601.8061896253163 L486.15575852896575,633.8442414710343" stroke="grey" stroke-width="5" />
<circle cx="489.46962934730516" cy="601.8061896253163" r="2.5" fill="grey" stroke="none" />
<circle cx="510.15575852896575" cy="601.8442414710343" r="5" fill="black" stroke="none" />
<circle cx="486.15575852896575" cy="633.8442414710343" r="5" fill="black" stroke="none" />
<path d="M486.15575852896575,633.8442414710343 A134.55832934777698,134.55832934777698,0,0,0,489.7853094110433,634.1700566185939" stroke="grey" stroke-width="5" fill="none" />
<path d="M489.7853094110433,634.1700566185939 L486.15575852896575,681.8442414710343" stroke="grey" stroke-width="5" />
<circle cx="489.7853094110433" cy="634.1700566185939" r="2.5" fill="grey" stroke="none" />
<circle cx="486.15575852896575" cy="633.8442414710343" r="5" fill="black" stroke="none" />
<circle cx="486.15575852896575" cy="681.8442414710343" r="5" fill="black" stroke="none" />
<path d="M486.15575852896575,577.8442414710343 A79.06572552066406,79.06572552066406,0,0,0,507.8454082533244,578.6755268266293" stroke="grey" stroke-width="5" fill="none" />
<path d="M507.8454082533244,578.6755268266293 L510.15575852896575,601.8442414710343" stroke="grey" stroke-width="5" />
<circle cx="507.8454082533244" cy="578.6755268266293" r="2.5" fill="grey" stroke="none" />
<circle cx="486.15575852896575" cy="577.8442414710343" r="5" fill="black" stroke="none" />
<circle cx="510.15575852896575" cy="601.8442414710343" r="5" fill="black" stroke="none" />
<path d="M438.15575852896575,633.8442414710343 L443.5595899380221,622.1491879174831" stroke="grey" stroke-width="5" />
<circle cx="443.5595899380221" cy="622.1491879174831" r="2.5" fill="grey" stroke="none" />
<path d="M443.5595899380221,622.1491879174831 A134.55832934777698,134.55832934777698,0,0,0,486.15575852896575,633.8442414710343" stroke="grey" stroke-width="5" fill="none" />
<circle cx="438.15575852896575" cy="633.8442414710343" r="5" fill="black" stroke="none" />
<circle cx="486.15575852896575" cy="633.8442414710343" r="5" fill="black" stroke="none" />
<path d="M534.1557585289657,577.8442414710343 A85.00789240352746,85.00789240352746,0,0,1,521.019568285133,582.3681948326921" stroke="grey" stroke-width="5" fill="none" />
<path d="M521.019568285133,582.3681948326921 L534.1557585289657,633.8442414710343" stroke="grey" stroke-width="5" />
<circle cx="521.019568285133" cy="582.3681948326921" r="2.5" fill="grey" stroke="none" />
<circle cx="534.1557585289657" cy="577.8442414710343" r="5" fill="black" stroke="none" />
<circle cx="534.1557585289657" cy="633.8442414710343" r="5" fill="black" stroke="none" />
<path d="M510.15575852896575,601.8442414710343 A102.34934759005056,102.34934759005056,0,0,0,525.3075219227363,599.1711565236546" stroke="grey" stroke-width="5" fill="none" />
<path d="M525.3075219227363,599.1711565236546 L534.1557585289657,633.8442414710343" stroke="grey" stroke-width="5" />
<circle cx="525.3075219227363" cy="599.1711565236546" r="2.5" fill="grey" stroke="none" />
<circle cx="510.15575852896575" cy="601.8442414710343" r="5" fill="black" stroke="none" />
<circle cx="534.1557585289657" cy="633.8442414710343" r="5" fill="black" stroke="none" />
<path d="M486.15575852896575,633.8442414710343 A134.55832934777698,134.55832934777698,0,0,0,533.2717105681548,630.3799726673301" stroke="grey" stroke-width="5" fill="none" />
<path d="M533.2717105681548,630.3799726673301 L534.1557585289657,633.8442414710343" stroke="grey" stroke-width="5" />
<circle cx="533.2717105681548" cy="630.3799726673301" r="2.5" fill="grey" stroke="none" />
<circle cx="486.15575852896575" cy="633.8442414710343" r="5" fill="black" stroke="none" />
<circle cx="534.1557585289657" cy="633.8442414710343" r="5" fill="black" stroke="none" />
<path d="M486.15575852896575,681.8442414710343 L489.513899368359,637.7350300729216" stroke="grey" stroke-width="5" />
<circle cx="489.513899368359" cy="637.7350300729216" r="2.5" fill="grey" stroke="none" />
<path d="M489.513899368359,637.7350300729216 A138.1336194257051,138.1336194257051,0,0,0,534.1557585289657,633.8442414710343" stroke="grey" stroke-width="5" fill="none" />
<circle cx="486.15575852896575" cy="681.8442414710343" r="5" fill="black" stroke="none" />
<circle cx="534.1557585289657" cy="633.8442414710343" r="5" fill="black" stroke="none" />
<path d="M534.1557585289657,633.8442414710343 A138.1336194257051,138.1336194257051,0,0,1,522.6113637441973,636.270404142914" stroke="grey" stroke-width="5" fill="none" />
<path d="M522.6113637441973,636.270404142914 L534.1557585289657,705.8442414710343" stroke="grey" stroke-width="5" />
<circle cx="522.6113637441973" cy="636.270404142914" r="2.5" fill="grey" stroke="none" />
<circle cx="534.1557585289657" cy="633.8442414710343" r="5" fill="black" stroke="none" />
<circle cx="534.1557585289657" cy="705.8442414710343" r="5" fill="black" stroke="none" />
<path d="M534.1557585289657,705.8442414710343 A208.65873475000865,208.65873475000865,0,0,1,487.8750871268493,708.306154674539" stroke="grey" stroke-width="5" fill="none" />
<path d="M487.8750871268493,708.306154674539 L486.15575852896575,737.8442414710343" stroke="grey" stroke-width="5" />
<circle cx="487.8750871268493" cy="708.306154674539" r="2.5" fill="grey" stroke="none" />
<circle cx="534.1557585289657" cy="705.8442414710343" r="5" fill="black" stroke="none" />
<circle cx="486.15575852896575" cy="737.8442414710343" r="5" fill="black" stroke="none" />
<path d="M534.1557585289657,577.8442414710343 A85.00789240352746,85.00789240352746,0,0,0,583.5242172403794,484.1871284937992" stroke="grey" stroke-width="5" fill="none" />
<path d="M583.5242172403794,484.1871284937992 L638.1557585289657,473.84424147103425" stroke="grey" stroke-width="5" />
<circle cx="583.5242172403794" cy="484.1871284937992" r="2.5" fill="grey" stroke="none" />
<circle cx="534.1557585289657" cy="577.8442414710343" r="5" fill="black" stroke="none" />
<circle cx="638.1557585289657" cy="473.84424147103425" r="5" fill="black" stroke="none" />
<path d="M534.1557585289657,577.8442414710343 A85.00789240352746,85.00789240352746,0,0,0,571.9872325684908,545.2126101659674" stroke="grey" stroke-width="5" fill="none" />
<path d="M571.9872325684908,545.2126101659674 L662.1557585289657,601.8442414710343" stroke="grey" stroke-width="5" />
<circle cx="571.9872325684908" cy="545.2126101659674" r="2.5" fill="grey" stroke="none" />
<circle cx="534.1557585289657" cy="577.8442414710343" r="5" fill="black" stroke="none" />
<circle cx="662.1557585289657" cy="601.8442414710343" r="5" fill="black" stroke="none" />
<path d="M662.1557585289657,601.8442414710343 A191.48561184829157,191.48561184829157,0,0,0,677.3509617089857,572.2037113022071" stroke="grey" stroke-width="5" fill="none" />
<path d="M677.3509617089857,572.2037113022071 L750.1557585289657,601.8442414710343" stroke="grey" stroke-width="5" />
<circle cx="677.3509617089857" cy="572.2037113022071" r="2.5" fill="grey" stroke="none" />
<circle cx="662.1557585289657" cy="601.8442414710343" r="5" fill="black" stroke="none" />
<circle cx="750.1557585289657" cy="601.8442414710343" r="5" fill="black" stroke="none" />
<path d="M534.1557585289657,633.8442414710343 A138.1336194257051,138.1336194257051,0,0,0,552.6952694482148,627.6875302973065" stroke="grey" stroke-width="5" fill="none" />
<path d="M552.6952694482148,627.6875302973065 L598.1557585289657,737.8442414710343" stroke="grey" stroke-width="5" />
<circle cx="552.6952694482148" cy="627.6875302973065" r="2.5" fill="grey" stroke="none" />
<circle cx="534.1557585289657" cy="633.8442414710343" r="5" fill="black" stroke="none" />
<circle cx="598.1557585289657" cy="737.8442414710343" r="5" fill="black" stroke="none" />
<circle cx="500" cy="500" r="5" fill="red" stroke="none" />
</svg>