<?xml version="1.0" encoding="UTF-8"?>
<svg xmlns="http://www.w3.org/2000/svg" xmlns:xlink="http://www.w3.org/1999/xlink"
     width="1000" height="1000" viewBox="0 0 1000 1000">
<defs>
</defs>
<rect x="0" y="0" width="1000" height="1000" fill="white" />
<path d="M340.08904376208284,777.12556455514 L399.4786519635697,674.203419076511" stroke="grey" stroke-width="5" />
<circle cx="399.4786519635697" cy="674.203419076511" r="2.5" fill="grey" stroke="none" />
<path d="M399.4786519635697,674.203419076511 A201.12526601351612,201.12526601351612,0,0,0,460.0890437620828,697.12556455514" stroke="grey" stroke-width="5" fill="none" />
<circle cx="340.08904376208284" cy="777.12556455514" r="5" fill="black" stroke="none" />
<circle cx="460.08904376208284" cy="697.12556455514" r="5" fill="black" stroke="none" />
<path d="M460.08904376208284,697.12556455514 L470.8969346086311,643.7439424242206" stroke="grey" stroke-width="5" />
<circle cx="470.8969346086311" cy="643.7439424242206" r="2.5" fill="grey" stroke="none" />
<path d="M470.89693460863106,643.7439424242206 A146.66052433709604,146.66052433709604,0,0,1,460.0890437620829,641.12556455514" stroke="grey" stroke-width="5" fill="none" />
<circle cx="460.08904376208284" cy="697.12556455514" r="5" fill="black" stroke="none" />
<circle cx="460.08904376208284" cy="641.12556455514" r="5" fill="black" stroke="none" />
<path d="M460.0890437620829,641.12556455514 A146.66052433709604,146.66052433709604,0,0,1,395.2869410338551,602.686341257173" stroke="grey" stroke-width="5" fill="none" />
<path d="M395.2869410338551,602.6863412571731 L356.08904376208284,641.12556455514" stroke="grey" stroke-width="5" />
<circle cx="395.2869410338551" cy="602.6863412571731" r="2.5" fill="grey" stroke="none" />
<circle cx="460.08904376208284" cy="641.12556455514" r="5" fill="black" stroke="none" />
<circle cx="356.08904376208284" cy="641.12556455514" r="5" fill="black" stroke="none" />
<path d="M356.08904376208284,641.12556455514 L421.2163194636526,577.2588250684862" stroke="grey" stroke-width="5" />
<circle cx="421.2163194636526" cy="577.2588250684862" r="2.5" fill="grey" stroke="none" />
<path d="M421.21631946365255,577.2588250684862 A110.34398202809342,110.34398202809342,0,0,1,396.08904376208284,537.12556455514" stroke="grey" stroke-width="5" fill="none" />
<circle cx="356.08904376208284" cy="641.12556455514" r="5" fill="black" stroke="none" />
<circle cx="396.08904376208284" cy="537.12556455514" r="5" fill="black" stroke="none" />
<path d="M396.08904376208284,537.12556455514 L451.48972263416834,517.3318723947586" stroke="grey" stroke-width="5" />
<circle cx="451.48972263416834" cy="517.3318723947586" r="2.5" fill="grey" stroke="none" />
<path d="M451.48972263416834,517.3318723947586 A51.51350124790699,51.51350124790699,0,0,1,508.08904376208284,449.12556455514004" stroke="grey" stroke-width="5" fill="none" />
<circle cx="396.08904376208284" cy="537.12556455514" r="5" fill="black" stroke="none" />
<circle cx="508.08904376208284" cy="449.12556455514004" r="5" fill="black" stroke="none" />
<path d="M508.08904376208284,449.12556455514004 A51.51350124790699,51.51350124790699,0,0,1,546.4562061387244,477.7410305266739" stroke="grey" stroke-width="5" fill="none" />
<path d="M546.4562061387244,477.7410305266739 L556.0890437620828,473.12556455514004" stroke="grey" stroke-width="5" />
<circle cx="546.4562061387244" cy="477.7410305266739" r="2.5" fill="grey" stroke="none" />
<circle cx="508.08904376208284" cy="449.12556455514004" r="5" fill="black" stroke="none" />
<circle cx="556.0890437620828" cy="473.12556455514004" r="5" fill="black" stroke="none" />
<path d="M556.0890437620828,473.12556455514004 L518.518789634687,491.1269299104939" stroke="grey" stroke-width="5" />
<circle cx="518.518789634687" cy="491.1269299104939" r="2.5" fill="grey" stroke="none" />
<path d="M518.518789634687,491.1269299104939 A20.534773978475563,20.534773978475563,0,0,0,508.08904376208284,481.12556455514004" stroke="grey" stroke-width="5" fill="none" />
<circle cx="556.0890437620828" cy="473.12556455514004" r="5" fill="black" stroke="none" />
<circle cx="508.08904376208284" cy="481.12556455514004" r="5" fill="black" stroke="none" />
<path d="M508.08904376208284,449.12556455514004 L503.2245271886488,479.7199761647886" stroke="grey" stroke-width="5" />
<circle cx="503.2245271886488" cy="479.7199761647886" r="2.5" fill="grey" stroke="none" />
<path d="M503.2245271886488,479.7199761647886 A20.534773978475563,20.534773978475563,0,0,1,508.08904376208284,481.12556455514004" stroke="grey" stroke-width="5" fill="none" />
<circle cx="508.08904376208284" cy="449.12556455514004" r="5" fill="black" stroke="none" />
<circle cx="508.08904376208284" cy="481.12556455514004" r="5" fill="black" stroke="none" />
<path d="M508.08904376208284,481.12556455514004 L460.08904376208284,593.12556455514" stroke="grey" stroke-width="5" />
<circle cx="508.08904376208284" cy="481.12556455514004" r="5" fill="black" stroke="none" />
<circle cx="460.08904376208284" cy="593.12556455514" r="5" fill="black" stroke="none" />
<path d="M396.08904376208284,537.12556455514 L404.5891940728767,534.0886097380827" stroke="grey" stroke-width="5" />
<circle cx="404.5891940728767" cy="534.0886097380827" r="2.5" fill="grey" stroke="none" />
<path d="M404.5891940728767,534.0886097380827 A101.31759571534697,101.31759571534697,0,0,0,460.08904376208284,593.12556455514" stroke="grey" stroke-width="5" fill="none" />
<circle cx="396.08904376208284" cy="537.12556455514" r="5" fill="black" stroke="none" />
<circle cx="460.08904376208284" cy="593.12556455514" r="5" fill="black" stroke="none" />
<path d="M460.08904376208284,593.12556455514 A101.31759571534697,101.31759571534697,0,0,0,472.4282853412424,597.4938754605362" stroke="grey" stroke-width="5" fill="none" />
<path d="M472.4282853412423,597.4938754605362 L460.08904376208284,641.12556455514" stroke="grey" stroke-width="5" />
<circle cx="472.4282853412423" cy="597.4938754605362" r="2.5" fill="grey" stroke="none" />
<circle cx="460.08904376208284" cy="593.12556455514" r="5" fill="black" stroke="none" />
<circle cx="460.08904376208284" cy="641.12556455514" r="5" fill="black" stroke="none" />
<path d="M556.0890437620828,473.12556455514004 A62.19498460989269,62.19498460989269,0,0,0,551.0487427958767,464.4719551679914" stroke="grey" stroke-width="5" fill="none" />
<path d="M551.0487427958767,464.4719551679914 L596.0890437620828,433.12556455514004" stroke="grey" stroke-width="5" />
<circle cx="551.0487427958767" cy="464.4719551679914" r="2.5" fill="grey" stroke="none" />
<circle cx="556.0890437620828" cy="473.12556455514004" r="5" fill="black" stroke="none" />
<circle cx="596.0890437620828" cy="433.12556455514004" r="5" fill="black" stroke="none" />
<path d="M556.0890437620828,473.12556455514004 A62.19498460989269,62.19498460989269,0,0,1,558.5803700355086,520.8939311075649" stroke="grey" stroke-width="5" fill="none" />
<path d="M558.5803700355086,520.8939311075649 L604.0890437620828,537.12556455514" stroke="grey" stroke-width="5" />
<circle cx="558.5803700355086" cy="520.8939311075649" r="2.5" fill="grey" stroke="none" />
<circle cx="556.0890437620828" cy="473.12556455514004" r="5" fill="black" stroke="none" />
<circle cx="604.0890437620828" cy="537.12556455514" r="5" fill="black" stroke="none" />
<path d="M508.08904376208284,481.12556455514004 A20.534773978475563,20.534773978475563,0,0,1,517.1235112601489,511.33412124827635" stroke="grey" stroke-width="5" fill="none" />
<path d="M517.1235112601489,511.33412124827635 L556.0890437620828,537.12556455514" stroke="grey" stroke-width="5" />
<circle cx="517.1235112601489" cy="511.33412124827635" r="2.5" fill="grey" stroke="none" />
<circle cx="508.08904376208284" cy="481.12556455514004" r="5" fill="black" stroke="none" />
<circle cx="556.0890437620828" cy="537.12556455514" r="5" fill="black" stroke="none" />
<path d="M460.08904376208284,593.12556455514 L463.1779136217635,585.9182015492186" stroke="grey" stroke-width="5" />
<circle cx="463.1779136217635" cy="585.9182015492186" r="2.5" fill="grey" stroke="none" />
<path d="M463.1779136217635,585.9182015492186 A93.47621838039045,93.47621838039045,0,0,0,508.08904376208284,593.12556455514" stroke="grey" stroke-width="5" fill="none" />
<circle cx="460.08904376208284" cy="593.12556455514" r="5" fill="black" stroke="none" />
<circle cx="508.08904376208284" cy="593.12556455514" r="5" fill="black" stroke="none" />
<path d="M460.0890437620829,641.12556455514 A146.66052433709604,146.66052433709604,0,0,0,554.1675215158623,636.2908251191566" stroke="grey" stroke-width="5" fill="none" />
<path d="M554.1675215158623,636.2908251191566 L556.0890437620828,641.12556455514" stroke="grey" stroke-width="5" />
<circle cx="554.1675215158623" cy="636.2908251191566" r="2.5" fill="grey" stroke="none" />
<circle cx="460.08904376208284" cy="641.12556455514" r="5" fill="black" stroke="none" />
<circle cx="556.0890437620828" cy="641.12556455514" r="5" fill="black" stroke="none" />
<path d="M460.0890437620828,697.12556455514 A201.12526601351612,201.12526601351612,0,0,0,555.0423437001524,693.4469256126907" stroke="grey" stroke-width="5" fill="none" />
<path d="M555.0423437001524,693.4469256126907 L556.0890437620828,697.12556455514" stroke="grey" stroke-width="5" />
<circle cx="555.0423437001524" cy="693.4469256126907" r="2.5" fill="grey" stroke="none" />
<circle cx="460.08904376208284" cy="697.12556455514" r="5" fill="black" stroke="none" />
<circle cx="556.0890437620828" cy="697.12556455514" r="5" fill="black" stroke="none" />
<path d="M604.0890437620828,537.12556455514 L563.3536856389038,522.5964353305931" stroke="grey" stroke-width="5" />
<circle cx="563.3536856389038" cy="522.5964353305931" r="2.5" fill="grey" stroke="none" />
<path d="M563.3536856389038,522.5964353305931 A67.26283055062963,67.26283055062963,0,0,1,556.0890437620828,537.12556455514" stroke="grey" stroke-width="5" fill="none" />
<circle cx="604.0890437620828" cy="537.12556455514" r="5" fill="black" stroke="none" />
<circle cx="556.0890437620828" cy="537.12556455514" r="5" fill="black" stroke="none" />
<path d="M556.0890437620828,537.12556455514 A67.26283055062963,67.26283055062963,0,0,1,505.820646035032,567.0105100220673" stroke="grey" stroke-width="5" fill="none" />
<path d="M505.820646035032,567.0105100220673 L508.08904376208284,593.12556455514" stroke="grey" stroke-width="5" />
<circle cx="505.820646035032" cy="567.0105100220673" r="2.5" fill="grey" stroke="none" />
<circle cx="556.0890437620828" cy="537.12556455514" r="5" fill="black" stroke="none" />
<circle cx="508.08904376208284" cy="593.12556455514" r="5" fill="black" stroke="none" />
<path d="M508.08904376208284,593.12556455514 A93.47621838039045,93.47621838039045,0,0,0,534.524457710946,586.8669397553726" stroke="grey" stroke-width="5" fill="none" />
<path d="M534.524457710946,586.8669397553726 L556.0890437620828,641.12556455514" stroke="grey" stroke-width="5" />
<circle cx="534.524457710946" cy="586.8669397553726" r="2.5" fill="grey" stroke="none" />
<circle cx="508.08904376208284" cy="593.12556455514" r="5" fill="black" stroke="none" />
<circle cx="556.0890437620828" cy="641.12556455514" r="5" fill="black" stroke="none" />
<path d="M556.0890437620828,641.12556455514 A151.86311534125673,151.86311534125673,0,0,1,541.5606748752671,646.0654514423729" stroke="grey" stroke-width="5" fill="none" />
<path d="M541.5606748752671,646.0654514423729 L556.0890437620828,697.12556455514" stroke="grey" stroke-width="5" />
<circle cx="541.5606748752671" cy="646.0654514423729" r="2.5" fill="grey" stroke="none" />
<circle cx="556.0890437620828" cy="641.12556455514" r="5" fill="black" stroke="none" />
<circle cx="556.0890437620828" cy="697.12556455514" r="5" fill="black" stroke="none" />
<path d="M556.0890437620828,697.12556455514 A204.94991834916044,204.94991834916044,0,0,0,585.9882753596409,686.0389355269539" stroke="grey" stroke-width="5" fill="none" />
<path d="M585.9882753596409,686.0389355269539 L628.0890437620828,777.12556455514" stroke="grey" stroke-width="5" />
<circle cx="585.9882753596409" cy="686.0389355269539" r="2.5" fill="grey" stroke="none" />
<circle cx="556.0890437620828" cy="697.12556455514" r="5" fill="black" stroke="none" />
<circle cx="628.0890437620828" cy="777.12556455514" r="5" fill="black" stroke="none" />
<path d="M604.0890437620828,537.12556455514 L594.894792381839,533.8462398460608" stroke="grey" stroke-width="5" />
<circle cx="594.894792381839" cy="533.8462398460608" r="2.5" fill="grey" stroke="none" />
<path d="M594.894792381839,533.8462398460608 A100.75013435678095,100.75013435678095,0,0,1,580.0890437620828,561.12556455514" stroke="grey" stroke-width="5" fill="none" />
<circle cx="604.0890437620828" cy="537.12556455514" r="5" fill="black" stroke="none" />
<circle cx="580.0890437620828" cy="561.12556455514" r="5" fill="black" stroke="none" />
<path d="M580.0890437620828,561.12556455514 A100.75013435678095,100.75013435678095,0,0,1,551.981070215138,586.3050283135248" stroke="grey" stroke-width="5" fill="none" />
<path d="M551.9810702151378,586.3050283135248 L556.0890437620828,593.12556455514" stroke="grey" stroke-width="5" />
<circle cx="551.9810702151378" cy="586.3050283135248" r="2.5" fill="grey" stroke="none" />
<circle cx="580.0890437620828" cy="561.12556455514" r="5" fill="black" stroke="none" />
<circle cx="556.0890437620828" cy="593.12556455514" r="5" fill="black" stroke="none" />
<path d="M556.0890437620828,593.12556455514 A108.71224219865212,108.71224219865212,0,0,1,540.151722796232,601.0256935653151" stroke="grey" stroke-width="5" fill="none" />
<path d="M540.151722796232,601.0256935653151 L556.0890437620828,641.12556455514" stroke="grey" stroke-width="5" />
<circle cx="540.151722796232" cy="601.0256935653151" r="2.5" fill="grey" stroke="none" />
<circle cx="556.0890437620828" cy="593.12556455514" r="5" fill="black" stroke="none" />
<circle cx="556.0890437620828" cy="641.12556455514" r="5" fill="black" stroke="none" />
<path d="M556.0890437620828,537.12556455514 A67.26283055062963,67.26283055062963,0,0,1,553.4690679463929,540.8086650924375" stroke="grey" stroke-width="5" fill="none" />
<path d="M553.4690679463929,540.8086650924375 L580.0890437620828,561.12556455514" stroke="grey" stroke-width="5" />
<circle cx="553.4690679463929" cy="540.8086650924375" r="2.5" fill="grey" stroke="none" />
<circle cx="556.0890437620828" cy="537.12556455514" r="5" fill="black" stroke="none" />
<circle cx="580.0890437620828" cy="561.12556455514" r="5" fill="black" stroke="none" />
<path d="M508.08904376208284,593.12556455514 A93.47621838039045,93.47621838039045,0,0,0,548.2281626927638,580.0740140493704" stroke="grey" stroke-width="5" fill="none" />
<path d="M548.2281626927637,580.0740140493704 L556.0890437620828,593.12556455514" stroke="grey" stroke-width="5" />
<circle cx="548.2281626927637" cy="580.0740140493704" r="2.5" fill="grey" stroke="none" />
<circle cx="508.08904376208284" cy="593.12556455514" r="5" fill="black" stroke="none" />
<circle cx="556.0890437620828" cy="593.12556455514" r="5" fill="black" stroke="none" />
<path d="M604.0890437620828,537.12556455514 A110.51170333879877,110.51170333879877,0,0,1,582.3605361272378,573.6856747521297" stroke="grey" stroke-width="5" fill="none" />
<path d="M582.3605361272378,573.6856747521297 L604.0890437620828,593.12556455514" stroke="grey" stroke-width="5" />
<circle cx="582.3605361272378" cy="573.6856747521297" r="2.5" fill="grey" stroke="none" />
<circle cx="604.0890437620828" cy="537.12556455514" r="5" fill="black" stroke="none" />
<circle cx="604.0890437620828" cy="593.12556455514" r="5" fill="black" stroke="none" />
<path d="M580.0890437620828,561.12556455514 A100.75013435678095,100.75013435678095,0,0,1,575.0855776340431,567.1769722767519" stroke="grey" stroke-width="5" fill="none" />
<path d="M575.0855776340431,567.1769722767519 L604.0890437620828,593.12556455514" stroke="grey" stroke-width="5" />
<circle cx="575.0855776340431" cy="567.1769722767519" r="2.5" fill="grey" stroke="none" />
<circle cx="580.0890437620828" cy="561.12556455514" r="5" fill="black" stroke="none" />
<circle cx="604.0890437620828" cy="593.12556455514" r="5" fill="black" stroke="none" />
<path d="M556.0890437620828,593.12556455514 A108.71224219865212,108.71224219865212,0,0,0,581.019460207086,572.4858515271138" stroke="grey" stroke-width="5" fill="none" />
<path d="M581.019460207086,572.4858515271138 L604.0890437620828,593.12556455514" stroke="grey" stroke-width="5" />
<circle cx="581.019460207086" cy="572.4858515271138" r="2.5" fill="grey" stroke="none" />
<circle cx="556.0890437620828" cy="593.12556455514" r="5" fill="black" stroke="none" />
<circle cx="604.0890437620828" cy="593.12556455514" r="5" fill="black" stroke="none" />
<path d="M556.0890437620828,641.12556455514 L551.5845751203176,629.791877306227" stroke="grey" stroke-width="5" />
<circle cx="551.5845751203176" cy="629.791877306227" r="2.5" fill="grey" stroke="none" />
<path d="M551.5845751203176,629.791877306227 A139.66710351768003,139.66710351768003,0,0,0,604.0890437620828,593.12556455514" stroke="grey" stroke-width="5" fill="none" />
<circle cx="556.0890437620828" cy="641.12556455514" r="5" fill="black" stroke="none" />
<circle cx="604.0890437620828" cy="593.12556455514" r="5" fill="black" stroke="none" />
<path d="M604.0890437620828,593.12556455514 A139.66710351768003,139.66710351768003,0,0,1,574.4785248041003,618.1518055216397" stroke="grey" stroke-width="5" fill="none" />
<path d="M574.4785248041003,618.1518055216397 L604.0890437620828,665.12556455514" stroke="grey" stroke-width="5" />
<circle cx="574.4785248041003" cy="618.1518055216397" r="2.5" fill="grey" stroke="none" />
<circle cx="604.0890437620828" cy="593.12556455514" r="5" fill="black" stroke="none" />
<circle cx="604.0890437620828" cy="665.12556455514" r="5" fill="black" stroke="none" />
<path d="M604.0890437620828,665.12556455514 A195.19472610948924,195.19472610948924,0,0,1,553.419321281363,687.7427953738759" stroke="grey" stroke-width="5" fill="none" />
<path d="M553.419321281363,687.7427953738759 L556.0890437620828,697.12556455514" stroke="grey" stroke-width="5" />
<circle cx="553.419321281363" cy="687.7427953738759" r="2.5" fill="grey" stroke="none" />
<circle cx="604.0890437620828" cy="665.12556455514" r="5" fill="black" stroke="none" />
<circle cx="556.0890437620828" cy="697.12556455514" r="5" fill="black" stroke="none" />
<path d="M604.0890437620828,537.12556455514 A110.51170333879877,110.51170333879877,0,0,0,605.211966503503,466.1875957774604" stroke="grey" stroke-width="5" fill="none" />
<path d="M605.211966503503,466.1875957774604 L708.0890437620828,433.12556455514004" stroke="grey" stroke-width="5" />
<circle cx="605.211966503503" cy="466.1875957774604" r="2.5" fill="grey" stroke="none" />
<circle cx="604.0890437620828" cy="537.12556455514" r="5" fill="black" stroke="none" />
<circle cx="708.0890437620828" cy="433.12556455514004" r="5" fill="black" stroke="none" />
<path d="M604.0890437620828,537.12556455514 A110.51170333879877,110.51170333879877,0,0,0,606.8674425914967,528.1458041063999" stroke="grey" stroke-width="5" fill="none" />
<path d="M606.8674425914967,528.1458041063999 L732.0890437620828,561.12556455514" stroke="grey" stroke-width="5" />
<circle cx="606.8674425914967" cy="528.1458041063999" r="2.5" fill="grey" stroke="none" />
<circle cx="604.0890437620828" cy="537.12556455514" r="5" fill="black" stroke="none" />
<circle cx="732.0890437620828" cy="561.12556455514" r="5" fill="black" stroke="none" />
<path d="M732.0890437620828,561.12556455514 A240.00345596799767,240.00345596799767,0,0,0,735.7434763723318,545.0185764376265" stroke="grey" stroke-width="5" fill="none" />
<path d="M735.7434763723318,545.0185764376265 L820.0890437620828,561.12556455514" stroke="grey" stroke-width="5" />
<circle cx="735.7434763723318" cy="545.0185764376265" r="2.5" fill="grey" stroke="none" />
<circle cx="732.0890437620828" cy="561.12556455514" r="5" fill="black" stroke="none" />
<circle cx="820.0890437620828" cy="561.12556455514" r="5" fill="black" stroke="none" />
<path d="M604.0890437620828,593.12556455514 A139.66710351768003,139.66710351768003,0,0,1,590.6216781477405,606.2761085790485" stroke="grey" stroke-width="5" fill="none" />
<path d="M590.6216781477405,606.2761085790485 L668.0890437620828,697.12556455514" stroke="grey" stroke-width="5" />
<circle cx="590.6216781477405" cy="606.2761085790485" r="2.5" fill="grey" stroke="none" />
<circle cx="604.0890437620828" cy="593.12556455514" r="5" fill="black" stroke="none" />
<circle cx="668.0890437620828" cy="697.12556455514" r="5" fill="black" stroke="none" />
<circle cx="500" cy="500" r="5" fill="red" stroke="none" />
</svg>