<?xml version="1.0" encoding="UTF-8"?>
<svg xmlns="http://www.w3.org/2000/svg" xmlns:xlink="http://www.w3.org/1999/xlink"
     width="1000" height="1000" viewBox="0 0 1000 1000">
<defs>
</defs>
<rect x="0" y="0" width="1000" height="1000" fill="white" />
<path d="M296.3684534862512,684.0 L400.98077404284294,589.4730599852649" stroke="grey" stroke-width="5" />
<circle cx="400.98077404284294" cy="589.4730599852649" r="2.5" fill="grey" stroke="none" />
<path d="M400.9807740428429,589.4730599852649 A133.45499455727136,133.45499455727136,0,0,0,416.3684534862512,604.0" stroke="grey" stroke-width="5" fill="none" />
<circle cx="296.3684534862512" cy="684.0" r="5" fill="black" stroke="none" />
<circle cx="416.3684534862512" cy="604.0" r="5" fill="black" stroke="none" />
<path d="M416.3684534862512,604.0 L439.57236902317266,575.1447735162579" stroke="grey" stroke-width="5" />
<circle cx="439.57236902317266" cy="575.1447735162579" r="2.5" fill="grey" stroke="none" />
<path d="M439.57236902317266,575.1447735162579 A96.42735904441916,96.42735904441916,0,0,1,416.3684534862512,548.0" stroke="grey" stroke-width="5" fill="none" />
<circle cx="416.3684534862512" cy="604.0" r="5" fill="black" stroke="none" />
<circle cx="416.3684534862512" cy="548.0" r="5" fill="black" stroke="none" />
<path d="M416.3684534862512,548.0 A96.42735904441916,96.42735904441916,0,0,1,406.58106108516307,523.898481631838" stroke="grey" stroke-width="5" fill="none" />
<path d="M406.58106108516307,523.898481631838 L-187.6315465137488,48.0" stroke="grey" stroke-width="5" />
<circle cx="406.58106108516307" cy="523.898481631838" r="2.5" fill="grey" stroke="none" />
<circle cx="416.3684534862512" cy="548.0" r="5" fill="black" stroke="none" />
<circle cx="312.3684534862512" cy="548.0" r="5" fill="black" stroke="none" />
<path d="M312.3684534862512,548.0 L347.0303942355451,539.1327642559072" stroke="grey" stroke-width="5" />
<circle cx="347.0303942355451" cy="539.1327642559072" r="2.5" fill="grey" stroke="none" />
<path d="M347.0303942355451,539.1327642559072 A157.89576791681648,157.89576791681648,0,0,1,352.36845348625116,444.0" stroke="grey" stroke-width="5" fill="none" />
<circle cx="312.3684534862512" cy="548.0" r="5" fill="black" stroke="none" />
<circle cx="352.3684534862512" cy="444.0" r="5" fill="black" stroke="none" />
<path d="M352.3684534862512,444.0 L361.30035266415274,447.3880723041529" stroke="grey" stroke-width="5" />
<circle cx="361.30035266415274" cy="447.3880723041529" r="2.5" fill="grey" stroke="none" />
<path d="M361.30035266415274,447.3880723041529 A148.34287009142517,148.34287009142517,0,0,1,464.3684534862512,356.0" stroke="grey" stroke-width="5" fill="none" />
<circle cx="352.3684534862512" cy="444.0" r="5" fill="black" stroke="none" />
<circle cx="464.3684534862512" cy="356.0" r="5" fill="black" stroke="none" />
<path d="M464.3684534862512,356.0 L471.0236325004028,382.89599166480315" stroke="grey" stroke-width="5" />
<circle cx="471.0236325004028" cy="382.89599166480315" r="2.5" fill="grey" stroke="none" />
<path d="M471.0236325004028,382.89599166480315 A120.63572705314773,120.63572705314773,0,0,1,512.3684534862512,380.0" stroke="grey" stroke-width="5" fill="none" />
<circle cx="464.3684534862512" cy="356.0" r="5" fill="black" stroke="none" />
<circle cx="512.3684534862512" cy="380.0" r="5" fill="black" stroke="none" />
<path d="M512.3684534862512,380.0 L512.0501652847317,383.0880646658687" stroke="grey" stroke-width="5" />
<circle cx="512.0501652847317" cy="383.0880646658687" r="2.5" fill="grey" stroke="none" />
<path d="M512.0501652847317,383.0880646658687 A117.5313026685293,117.5313026685293,0,0,0,464.3684534862512,388.0" stroke="grey" stroke-width="5" fill="none" />
<circle cx="512.3684534862512" cy="380.0" r="5" fill="black" stroke="none" />
<circle cx="464.3684534862512" cy="388.0" r="5" fill="black" stroke="none" />
<path d="M464.3684534862512,356.0 L471.7693066389089,385.90953125123247" stroke="grey" stroke-width="5" />
<circle cx="471.7693066389089" cy="385.90953125123247" r="2.5" fill="grey" stroke="none" />
<path d="M471.7693066389089,385.90953125123247 A117.5313026685293,117.5313026685293,0,0,0,464.3684534862512,388.0" stroke="grey" stroke-width="5" fill="none" />
<circle cx="464.3684534862512" cy="356.0" r="5" fill="black" stroke="none" />
<circle cx="464.3684534862512" cy="388.0" r="5" fill="black" stroke="none" />
<path d="M464.3684534862512,388.0 L474.6457218463273,420.30435299473675" stroke="grey" stroke-width="5" />
<circle cx="474.6457218463273" cy="420.30435299473675" r="2.5" fill="grey" stroke="none" />
<path d="M474.6457218463273,420.30435299473675 A83.63154651374879,83.63154651374879,0,0,0,416.3684534862512,500.0" stroke="grey" stroke-width="5" fill="none" />
<circle cx="464.3684534862512" cy="388.0" r="5" fill="black" stroke="none" />
<circle cx="416.3684534862512" cy="500.0" r="5" fill="black" stroke="none" />
<path d="M352.3684534862512,444.0 L421.8050318127223,470.33887186110496" stroke="grey" stroke-width="5" />
<circle cx="421.8050318127223" cy="470.33887186110496" r="2.5" fill="grey" stroke="none" />
<path d="M421.8050318127223,470.33887186110496 A83.63154651374879,83.63154651374879,0,0,0,416.3684534862512,500.0" stroke="grey" stroke-width="5" fill="none" />
<circle cx="352.3684534862512" cy="444.0" r="5" fill="black" stroke="none" />
<circle cx="416.3684534862512" cy="500.0" r="5" fill="black" stroke="none" />
<path d="M416.3684534862512,500.0 A83.63154651374879,83.63154651374879,0,0,0,427.4662747005293,541.6304487900654" stroke="grey" stroke-width="5" fill="none" />
<path d="M427.4662747005293,541.6304487900654 L-83.63154651374879,48.0" stroke="grey" stroke-width="5" />
<circle cx="427.4662747005293" cy="541.6304487900654" r="2.5" fill="grey" stroke="none" />
<circle cx="416.3684534862512" cy="500.0" r="5" fill="black" stroke="none" />
<circle cx="416.3684534862512" cy="548.0" r="5" fill="black" stroke="none" />
<path d="M512.3684534862512,380.0 A120.63572705314773,120.63572705314773,0,0,1,537.5255410306602,385.3491717779684" stroke="grey" stroke-width="5" fill="none" />
<path d="M537.5255410306602,385.3491717779684 L52.36845348625121,-160.0" stroke="grey" stroke-width="5" />
<circle cx="537.5255410306602" cy="385.3491717779684" r="2.5" fill="grey" stroke="none" />
<circle cx="512.3684534862512" cy="380.0" r="5" fill="black" stroke="none" />
<circle cx="552.3684534862512" cy="340.0" r="5" fill="black" stroke="none" />
<path d="M512.3684534862512,380.0 L508.4423920494735,418.0910493730712" stroke="grey" stroke-width="5" />
<circle cx="508.4423920494735" cy="418.0910493730712" r="2.5" fill="grey" stroke="none" />
<path d="M508.4423920494734,418.0910493730712 A82.34288175866617,82.34288175866617,0,0,1,560.3684534862513,444.0" stroke="grey" stroke-width="5" fill="none" />
<circle cx="512.3684534862512" cy="380.0" r="5" fill="black" stroke="none" />
<circle cx="560.3684534862512" cy="444.0" r="5" fill="black" stroke="none" />
<path d="M464.3684534862512,388.0 L482.6135206406639,445.3493917954343" stroke="grey" stroke-width="5" />
<circle cx="482.6135206406639" cy="445.3493917954343" r="2.5" fill="grey" stroke="none" />
<path d="M482.6135206406639,445.3493917954343 A57.34961762419659,57.34961762419659,0,0,1,512.3684534862513,444.0" stroke="grey" stroke-width="5" fill="none" />
<circle cx="464.3684534862512" cy="388.0" r="5" fill="black" stroke="none" />
<circle cx="512.3684534862512" cy="444.0" r="5" fill="black" stroke="none" />
<path d="M416.3684534862512,500.0 L464.3684534862512,500.0" stroke="grey" stroke-width="5" />
<circle cx="464.3684534862512" cy="500.0" r="2.5" fill="grey" stroke="none" />
<path d="M464.3684534862512,500.0 A35.63154651374879,35.63154651374879,0,0,1,464.3684534862512,500.0" stroke="grey" stroke-width="5" fill="none" />
<circle cx="416.3684534862512" cy="500.0" r="5" fill="black" stroke="none" />
<circle cx="464.3684534862512" cy="500.0" r="5" fill="black" stroke="none" />
<path d="M416.3684534862512,548.0 L457.009693050628,524.6741190327099" stroke="grey" stroke-width="5" />
<circle cx="457.009693050628" cy="524.6741190327099" r="2.5" fill="grey" stroke="none" />
<path d="M457.009693050628,524.6741190327099 A49.5679194806637,49.5679194806637,0,0,0,512.3684534862512,548.0" stroke="grey" stroke-width="5" fill="none" />
<circle cx="416.3684534862512" cy="548.0" r="5" fill="black" stroke="none" />
<circle cx="512.3684534862512" cy="548.0" r="5" fill="black" stroke="none" />
<path d="M416.3684534862512,604.0 L434.3675840093026,581.6171833186223" stroke="grey" stroke-width="5" />
<circle cx="434.3675840093026" cy="581.6171833186223" r="2.5" fill="grey" stroke="none" />
<path d="M434.3675840093026,581.6171833186223 A104.73289188044775,104.73289188044775,0,0,0,512.3684534862513,604.0" stroke="grey" stroke-width="5" fill="none" />
<circle cx="416.3684534862512" cy="604.0" r="5" fill="black" stroke="none" />
<circle cx="512.3684534862512" cy="604.0" r="5" fill="black" stroke="none" />
<path d="M560.3684534862512,444.0 L542.045015307425,460.9974958568048" stroke="grey" stroke-width="5" />
<circle cx="542.045015307425" cy="460.9974958568048" r="2.5" fill="grey" stroke="none" />
<path d="M542.045015307425,460.9974958568048 A57.34961762419659,57.34961762419659,0,0,0,512.3684534862513,444.0" stroke="grey" stroke-width="5" fill="none" />
<circle cx="560.3684534862512" cy="444.0" r="5" fill="black" stroke="none" />
<circle cx="512.3684534862512" cy="444.0" r="5" fill="black" stroke="none" />
<path d="M512.3684534862512,444.0 L507.68456955696524,465.20697630723066" stroke="grey" stroke-width="5" />
<circle cx="507.68456955696524" cy="465.20697630723066" r="2.5" fill="grey" stroke="none" />
<path d="M507.68456955696524,465.2069763072307 A35.63154651374879,35.63154651374879,0,0,0,464.3684534862512,500.0" stroke="grey" stroke-width="5" fill="none" />
<circle cx="512.3684534862512" cy="444.0" r="5" fill="black" stroke="none" />
<circle cx="464.3684534862512" cy="500.0" r="5" fill="black" stroke="none" />
<path d="M464.3684534862512,500.0 A35.63154651374879,35.63154651374879,0,0,0,508.8909748546218,534.5044587422542" stroke="grey" stroke-width="5" fill="none" />
<path d="M508.8909748546218,534.5044587422542 L12.368453486251212,48.0" stroke="grey" stroke-width="5" />
<circle cx="508.8909748546218" cy="534.5044587422542" r="2.5" fill="grey" stroke="none" />
<circle cx="464.3684534862512" cy="500.0" r="5" fill="black" stroke="none" />
<circle cx="512.3684534862512" cy="548.0" r="5" fill="black" stroke="none" />
<path d="M512.3684534862512,548.0 A49.5679194806637,49.5679194806637,0,0,1,505.8537341564736,549.2210568564602" stroke="grey" stroke-width="5" fill="none" />
<path d="M505.8537341564736,549.2210568564602 L12.368453486251212,104.0" stroke="grey" stroke-width="5" />
<circle cx="505.8537341564736" cy="549.2210568564602" r="2.5" fill="grey" stroke="none" />
<circle cx="512.3684534862512" cy="548.0" r="5" fill="black" stroke="none" />
<circle cx="512.3684534862512" cy="604.0" r="5" fill="black" stroke="none" />
<path d="M512.3684534862513,604.0 A104.73289188044775,104.73289188044775,0,0,0,543.6524689139301,595.2021039649856" stroke="grey" stroke-width="5" fill="none" />
<path d="M543.6524689139301,595.2021039649856 L84.36845348625121,184.0" stroke="grey" stroke-width="5" />
<circle cx="543.6524689139301" cy="595.2021039649856" r="2.5" fill="grey" stroke="none" />
<circle cx="512.3684534862512" cy="604.0" r="5" fill="black" stroke="none" />
<circle cx="584.3684534862512" cy="684.0" r="5" fill="black" stroke="none" />
<path d="M560.3684534862512,444.0 L535.5148088574493,467.0551557781729" stroke="grey" stroke-width="5" />
<circle cx="535.5148088574493" cy="467.0551557781729" r="2.5" fill="grey" stroke="none" />
<path d="M535.5148088574493,467.0551557781729 A48.44238236277834,48.44238236277834,0,0,1,536.3684534862512,468.0" stroke="grey" stroke-width="5" fill="none" />
<circle cx="560.3684534862512" cy="444.0" r="5" fill="black" stroke="none" />
<circle cx="536.3684534862512" cy="468.0" r="5" fill="black" stroke="none" />
<path d="M536.3684534862512,468.0 L509.2857019694642,491.82966459832596" stroke="grey" stroke-width="5" />
<circle cx="509.2857019694642" cy="491.82966459832596" r="2.5" fill="grey" stroke="none" />
<path d="M509.2857019694642,491.82966459832596 A12.368453486251212,12.368453486251212,0,0,1,512.3684534862512,500.0" stroke="grey" stroke-width="5" fill="none" />
<circle cx="536.3684534862512" cy="468.0" r="5" fill="black" stroke="none" />
<circle cx="512.3684534862512" cy="500.0" r="5" fill="black" stroke="none" />
<path d="M512.3684534862512,500.0 A12.368453486251212,12.368453486251212,0,0,1,503.08624294189383,511.9772177965156" stroke="grey" stroke-width="5" fill="none" />
<path d="M503.08624294189383,511.9772177965156 L12.368453486251212,48.0" stroke="grey" stroke-width="5" />
<circle cx="503.08624294189383" cy="511.9772177965156" r="2.5" fill="grey" stroke="none" />
<circle cx="512.3684534862512" cy="500.0" r="5" fill="black" stroke="none" />
<circle cx="512.3684534862512" cy="548.0" r="5" fill="black" stroke="none" />
<path d="M512.3684534862512,444.0 L510.4474515757613,452.6976198848965" stroke="grey" stroke-width="5" />
<circle cx="510.4474515757613" cy="452.6976198848965" r="2.5" fill="grey" stroke="none" />
<path d="M510.4474515757613,452.6976198848965 A48.44238236277834,48.44238236277834,0,0,1,536.3684534862512,468.0" stroke="grey" stroke-width="5" fill="none" />
<circle cx="512.3684534862512" cy="444.0" r="5" fill="black" stroke="none" />
<circle cx="536.3684534862512" cy="468.0" r="5" fill="black" stroke="none" />
<path d="M464.3684534862512,500.0 L512.3684534862512,500.0" stroke="grey" stroke-width="5" />
<circle cx="464.3684534862512" cy="500.0" r="5" fill="black" stroke="none" />
<circle cx="512.3684534862512" cy="500.0" r="5" fill="black" stroke="none" />
<path d="M560.3684534862512,444.0 L544.258229715626,458.94443668927977" stroke="grey" stroke-width="5" />
<circle cx="544.258229715626" cy="458.94443668927977" r="2.5" fill="grey" stroke="none" />
<path d="M544.258229715626,458.94443668927977 A60.36845348625121,60.36845348625121,0,0,1,560.3684534862512,500.0" stroke="grey" stroke-width="5" fill="none" />
<circle cx="560.3684534862512" cy="444.0" r="5" fill="black" stroke="none" />
<circle cx="560.3684534862512" cy="500.0" r="5" fill="black" stroke="none" />
<path d="M536.3684534862512,468.0 A48.44238236277834,48.44238236277834,0,0,1,548.4423823627783,500.0" stroke="grey" stroke-width="5" fill="none" />
<path d="M548.4423823627783,500.0 L60.36845348625121,0.0" stroke="grey" stroke-width="5" />
<circle cx="548.4423823627783" cy="500.0" r="2.5" fill="grey" stroke="none" />
<circle cx="536.3684534862512" cy="468.0" r="5" fill="black" stroke="none" />
<circle cx="560.3684534862512" cy="500.0" r="5" fill="black" stroke="none" />
<path d="M512.3684534862512,500.0 A12.368453486251212,12.368453486251212,0,0,1,512.3684534862512,500.0" stroke="grey" stroke-width="5" fill="none" />
<path d="M512.3684534862512,500.0 L60.36845348625121,0.0" stroke="grey" stroke-width="5" />
<circle cx="512.3684534862512" cy="500.0" r="2.5" fill="grey" stroke="none" />
<circle cx="512.3684534862512" cy="500.0" r="5" fill="black" stroke="none" />
<circle cx="560.3684534862512" cy="500.0" r="5" fill="black" stroke="none" />
<path d="M512.3684534862512,548.0 A49.5679194806637,49.5679194806637,0,0,0,549.5679194806637,500.0" stroke="grey" stroke-width="5" fill="none" />
<path d="M549.5679194806637,500.0 L60.36845348625121,0.0" stroke="grey" stroke-width="5" />
<circle cx="549.5679194806637" cy="500.0" r="2.5" fill="grey" stroke="none" />
<circle cx="512.3684534862512" cy="548.0" r="5" fill="black" stroke="none" />
<circle cx="560.3684534862512" cy="500.0" r="5" fill="black" stroke="none" />
<path d="M560.3684534862512,500.0 A60.36845348625121,60.36845348625121,0,0,1,538.7864761826489,546.2596956502578" stroke="grey" stroke-width="5" fill="none" />
<path d="M538.7864761826489,546.2596956502578 L60.36845348625121,72.0" stroke="grey" stroke-width="5" />
<circle cx="538.7864761826489" cy="546.2596956502578" r="2.5" fill="grey" stroke="none" />
<circle cx="560.3684534862512" cy="500.0" r="5" fill="black" stroke="none" />
<circle cx="560.3684534862512" cy="572.0" r="5" fill="black" stroke="none" />
<path d="M560.3684534862513,572.0 A93.95930063767864,93.95930063767864,0,0,1,511.09614390161585,593.301799376198" stroke="grey" stroke-width="5" fill="none" />
<path d="M511.09614390161585,593.301799376198 L12.368453486251212,104.0" stroke="grey" stroke-width="5" />
<circle cx="511.09614390161585" cy="593.301799376198" r="2.5" fill="grey" stroke="none" />
<circle cx="560.3684534862512" cy="572.0" r="5" fill="black" stroke="none" />
<circle cx="512.3684534862512" cy="604.0" r="5" fill="black" stroke="none" />
<path d="M560.3684534862513,444.0 A82.34288175866617,82.34288175866617,0,0,0,559.0040112277331,442.5641502599708" stroke="grey" stroke-width="5" fill="none" />
<path d="M559.0040112277331,442.5641502599708 L164.3684534862512,-160.0" stroke="grey" stroke-width="5" />
<circle cx="559.0040112277331" cy="442.5641502599708" r="2.5" fill="grey" stroke="none" />
<circle cx="560.3684534862512" cy="444.0" r="5" fill="black" stroke="none" />
<circle cx="664.3684534862512" cy="340.0" r="5" fill="black" stroke="none" />
<path d="M560.3684534862513,444.0 A82.34288175866617,82.34288175866617,0,0,1,581.1798227531286,486.2091858800034" stroke="grey" stroke-width="5" fill="none" />
<path d="M581.1798227531286,486.2091858800034 L188.3684534862512,-32.0" stroke="grey" stroke-width="5" />
<circle cx="581.1798227531286" cy="486.2091858800034" r="2.5" fill="grey" stroke="none" />
<circle cx="560.3684534862512" cy="444.0" r="5" fill="black" stroke="none" />
<circle cx="688.3684534862512" cy="468.0" r="5" fill="black" stroke="none" />
<path d="M688.3684534862512,468.0 A191.06719830677895,191.06719830677895,0,0,1,689.7991409059429,478.02364042503746" stroke="grey" stroke-width="5" fill="none" />
<path d="M689.7991409059429,478.02364042503746 L276.3684534862512,-32.0" stroke="grey" stroke-width="5" />
<circle cx="689.7991409059429" cy="478.02364042503746" r="2.5" fill="grey" stroke="none" />
<circle cx="688.3684534862512" cy="468.0" r="5" fill="black" stroke="none" />
<circle cx="776.3684534862512" cy="468.0" r="5" fill="black" stroke="none" />
<path d="M560.3684534862512,500.0 A60.36845348625121,60.36845348625121,0,0,1,546.3104056123609,538.7259152033918" stroke="grey" stroke-width="5" fill="none" />
<path d="M546.3104056123609,538.7259152033918 L124.36845348625121,104.0" stroke="grey" stroke-width="5" />
<circle cx="546.3104056123609" cy="538.7259152033918" r="2.5" fill="grey" stroke="none" />
<circle cx="560.3684534862512" cy="500.0" r="5" fill="black" stroke="none" />
<circle cx="624.3684534862512" cy="604.0" r="5" fill="black" stroke="none" />
<circle cx="500" cy="500" r="5" fill="red" stroke="none" />
</svg>