<?xml version="1.0" encoding="UTF-8"?>
<svg xmlns="http://www.w3.org/2000/svg" xmlns:xlink="http://www.w3.org/1999/xlink"
     width="1000" height="1000" viewBox="0 0 1000 1000">
<defs>
</defs>
<rect x="0" y="0" width="1000" height="1000" fill="white" />
<path d="M308.47152585257544,799.921412357904 L375.53204756084153,694.9088993426351" stroke="grey" stroke-width="5" />
<circle cx="375.53204756084153" cy="694.9088993426351" r="2.5" fill="grey" stroke="none" />
<path d="M375.5320475608416,694.9088993426351 A231.26121643577437,231.26121643577437,0,0,0,428.4715258525754,719.921412357904" stroke="grey" stroke-width="5" fill="none" />
<circle cx="308.47152585257544" cy="799.921412357904" r="5" fill="black" stroke="none" />
<circle cx="428.47152585257544" cy="719.921412357904" r="5" fill="black" stroke="none" />
<path d="M428.47152585257544,719.921412357904 L444.6828407677625,670.0781112834457" stroke="grey" stroke-width="5" />
<circle cx="444.6828407677625" cy="670.0781112834457" r="2.5" fill="grey" stroke="none" />
<path d="M444.6828407677625,670.0781112834457 A178.84784606829578,178.84784606829578,0,0,1,428.47152585257544,663.921412357904" stroke="grey" stroke-width="5" fill="none" />
<circle cx="428.47152585257544" cy="719.921412357904" r="5" fill="black" stroke="none" />
<circle cx="428.47152585257544" cy="663.921412357904" r="5" fill="black" stroke="none" />
<path d="M428.47152585257544,663.921412357904 A178.84784606829578,178.84784606829578,0,0,1,369.28757287667486,622.0688880870069" stroke="grey" stroke-width="5" fill="none" />
<path d="M369.28757287667486,622.0688880870069 L-175.52847414742456,163.9214123579041" stroke="grey" stroke-width="5" />
<circle cx="369.28757287667486" cy="622.0688880870069" r="2.5" fill="grey" stroke="none" />
<circle cx="428.47152585257544" cy="663.921412357904" r="5" fill="black" stroke="none" />
<circle cx="324.47152585257544" cy="663.921412357904" r="5" fill="black" stroke="none" />
<path d="M324.47152585257544,663.921412357904 L391.69838708551407,601.1400197934327" stroke="grey" stroke-width="5" />
<circle cx="391.69838708551407" cy="601.1400197934327" r="2.5" fill="grey" stroke="none" />
<path d="M391.698387085514,601.1400197934327 A148.18415220156004,148.18415220156004,0,0,1,364.47152585257544,559.921412357904" stroke="grey" stroke-width="5" fill="none" />
<circle cx="324.47152585257544" cy="663.921412357904" r="5" fill="black" stroke="none" />
<circle cx="364.47152585257544" cy="559.921412357904" r="5" fill="black" stroke="none" />
<path d="M364.47152585257544,559.921412357904 L466.4954006640784,514.8134399455442" stroke="grey" stroke-width="5" />
<circle cx="466.4954006640784" cy="514.8134399455442" r="2.5" fill="grey" stroke="none" />
<path d="M466.4954006640784,514.8134399455442 A36.63326602530666,36.63326602530666,0,0,1,476.47152585257544,471.9214123579041" stroke="grey" stroke-width="5" fill="none" />
<circle cx="364.47152585257544" cy="559.921412357904" r="5" fill="black" stroke="none" />
<circle cx="476.47152585257544" cy="471.9214123579041" r="5" fill="black" stroke="none" />
<path d="M476.47152585257544,471.9214123579041 L484.0658542697576,480.9843891879613" stroke="grey" stroke-width="5" />
<circle cx="484.0658542697576" cy="480.9843891879613" r="2.5" fill="grey" stroke="none" />
<path d="M484.0658542697576,480.9843891879613 A24.809080085878346,24.809080085878346,0,0,1,524.4715258525755,495.9214123579041" stroke="grey" stroke-width="5" fill="none" />
<circle cx="476.47152585257544" cy="471.9214123579041" r="5" fill="black" stroke="none" />
<circle cx="524.4715258525755" cy="495.9214123579041" r="5" fill="black" stroke="none" />
<path d="M524.4715258525755,495.9214123579041 L476.47152585257544,503.9214123579041" stroke="grey" stroke-width="5" />
<circle cx="524.4715258525755" cy="495.9214123579041" r="5" fill="black" stroke="none" />
<circle cx="476.47152585257544" cy="503.9214123579041" r="5" fill="black" stroke="none" />
<path d="M476.47152585257544,471.9214123579041 L484.67990356899435,481.71718796433555" stroke="grey" stroke-width="5" />
<circle cx="484.67990356899435" cy="481.71718796433555" r="2.5" fill="grey" stroke="none" />
<path d="M484.67990356899435,481.71718796433555 A23.853020156507412,23.853020156507412,0,0,0,476.47152585257544,503.9214123579041" stroke="grey" stroke-width="5" fill="none" />
<circle cx="476.47152585257544" cy="471.9214123579041" r="5" fill="black" stroke="none" />
<circle cx="476.47152585257544" cy="503.9214123579041" r="5" fill="black" stroke="none" />
<path d="M476.47152585257544,503.9214123579041 A23.853020156507412,23.853020156507412,0,0,0,487.47428774013713,520.2995838127256" stroke="grey" stroke-width="5" fill="none" />
<path d="M487.47428774013713,520.2995838127256 L-71.52847414742456,115.92141235790409" stroke="grey" stroke-width="5" />
<circle cx="487.47428774013713" cy="520.2995838127256" r="2.5" fill="grey" stroke="none" />
<circle cx="476.47152585257544" cy="503.9214123579041" r="5" fill="black" stroke="none" />
<circle cx="428.47152585257544" cy="615.921412357904" r="5" fill="black" stroke="none" />
<path d="M364.47152585257544,559.921412357904 L375.41989457403537,555.0807932855506" stroke="grey" stroke-width="5" />
<circle cx="375.41989457403537" cy="555.0807932855506" r="2.5" fill="grey" stroke="none" />
<path d="M375.41989457403537,555.0807932855506 A136.213422455021,136.213422455021,0,0,0,428.47152585257544,615.921412357904" stroke="grey" stroke-width="5" fill="none" />
<circle cx="364.47152585257544" cy="559.921412357904" r="5" fill="black" stroke="none" />
<circle cx="428.47152585257544" cy="615.921412357904" r="5" fill="black" stroke="none" />
<path d="M428.47152585257544,615.921412357904 A136.213422455021,136.213422455021,0,0,0,445.5227531066512,624.8452082694051" stroke="grey" stroke-width="5" fill="none" />
<path d="M445.5227531066512,624.8452082694051 L-71.52847414742456,163.9214123579041" stroke="grey" stroke-width="5" />
<circle cx="445.5227531066512" cy="624.8452082694051" r="2.5" fill="grey" stroke="none" />
<circle cx="428.47152585257544" cy="615.921412357904" r="5" fill="black" stroke="none" />
<circle cx="428.47152585257544" cy="663.921412357904" r="5" fill="black" stroke="none" />
<path d="M524.4715258525755,495.9214123579041 A24.809080085878346,24.809080085878346,0,0,0,520.4800733911683,485.9979626982397" stroke="grey" stroke-width="5" fill="none" />
<path d="M520.4800733911683,485.9979626982397 L64.47152585257544,-44.07858764209591" stroke="grey" stroke-width="5" />
<circle cx="520.4800733911683" cy="485.9979626982397" r="2.5" fill="grey" stroke="none" />
<circle cx="524.4715258525755" cy="495.9214123579041" r="5" fill="black" stroke="none" />
<circle cx="564.4715258525755" cy="455.9214123579041" r="5" fill="black" stroke="none" />
<path d="M524.4715258525755,495.9214123579041 A24.809080085878346,24.809080085878346,0,0,1,519.1199026501636,515.8088512345392" stroke="grey" stroke-width="5" fill="none" />
<path d="M519.1199026501636,515.8088512345392 L72.47152585257544,59.92141235790409" stroke="grey" stroke-width="5" />
<circle cx="519.1199026501636" cy="515.8088512345392" r="2.5" fill="grey" stroke="none" />
<circle cx="524.4715258525755" cy="495.9214123579041" r="5" fill="black" stroke="none" />
<circle cx="572.4715258525755" cy="559.921412357904" r="5" fill="black" stroke="none" />
<path d="M476.47152585257544,503.9214123579041 A23.853020156507412,23.853020156507412,0,0,0,509.01834595394575,522.0824818994989" stroke="grey" stroke-width="5" fill="none" />
<path d="M509.01834595394575,522.0824818994989 L24.47152585257544,59.92141235790409" stroke="grey" stroke-width="5" />
<circle cx="509.01834595394575" cy="522.0824818994989" r="2.5" fill="grey" stroke="none" />
<circle cx="476.47152585257544" cy="503.9214123579041" r="5" fill="black" stroke="none" />
<circle cx="524.4715258525755" cy="559.921412357904" r="5" fill="black" stroke="none" />
<path d="M428.47152585257544,615.921412357904 L437.8860616132397,600.663904140675" stroke="grey" stroke-width="5" />
<circle cx="437.8860616132397" cy="600.663904140675" r="2.5" fill="grey" stroke="none" />
<path d="M437.8860616132397,600.663904140675 A118.28509178572448,118.28509178572448,0,0,0,476.4715258525754,615.921412357904" stroke="grey" stroke-width="5" fill="none" />
<circle cx="428.47152585257544" cy="615.921412357904" r="5" fill="black" stroke="none" />
<circle cx="476.47152585257544" cy="615.921412357904" r="5" fill="black" stroke="none" />
<path d="M428.47152585257544,663.921412357904 L433.7146821324206,651.905699834329" stroke="grey" stroke-width="5" />
<circle cx="433.7146821324206" cy="651.905699834329" r="2.5" fill="grey" stroke="none" />
<path d="M433.7146821324206,651.905699834329 A165.7380010949912,165.7380010949912,0,0,0,524.4715258525755,663.921412357904" stroke="grey" stroke-width="5" fill="none" />
<circle cx="428.47152585257544" cy="663.921412357904" r="5" fill="black" stroke="none" />
<circle cx="524.4715258525755" cy="663.921412357904" r="5" fill="black" stroke="none" />
<path d="M428.47152585257544,719.921412357904 L431.55907735962626,710.4284279729878" stroke="grey" stroke-width="5" />
<circle cx="431.55907735962626" cy="710.4284279729878" r="2.5" fill="grey" stroke="none" />
<path d="M431.5590773596262,710.4284279729878 A221.27874545705595,221.27874545705595,0,0,0,524.4715258525754,719.921412357904" stroke="grey" stroke-width="5" fill="none" />
<circle cx="428.47152585257544" cy="719.921412357904" r="5" fill="black" stroke="none" />
<circle cx="524.4715258525755" cy="719.921412357904" r="5" fill="black" stroke="none" />
<path d="M572.4715258525755,559.921412357904 L549.8829982241724,541.2446084317266" stroke="grey" stroke-width="5" />
<circle cx="549.8829982241724" cy="541.2446084317266" r="2.5" fill="grey" stroke="none" />
<path d="M549.8829982241724,541.2446084317266 A64.72581584282464,64.72581584282464,0,0,1,524.4715258525755,559.921412357904" stroke="grey" stroke-width="5" fill="none" />
<circle cx="572.4715258525755" cy="559.921412357904" r="5" fill="black" stroke="none" />
<circle cx="524.4715258525755" cy="559.921412357904" r="5" fill="black" stroke="none" />
<path d="M524.4715258525755,559.921412357904 A64.72581584282464,64.72581584282464,0,0,1,487.12517645513924,563.4324061912201" stroke="grey" stroke-width="5" fill="none" />
<path d="M487.12517645513924,563.4324061912201 L-23.52847414742456,115.92141235790409" stroke="grey" stroke-width="5" />
<circle cx="487.12517645513924" cy="563.4324061912201" r="2.5" fill="grey" stroke="none" />
<circle cx="524.4715258525755" cy="559.921412357904" r="5" fill="black" stroke="none" />
<circle cx="476.47152585257544" cy="615.921412357904" r="5" fill="black" stroke="none" />
<path d="M476.4715258525754,615.921412357904 A118.28509178572448,118.28509178572448,0,0,0,517.4650150387031,616.9886156361171" stroke="grey" stroke-width="5" fill="none" />
<path d="M517.4650150387031,616.9886156361171 L24.47152585257544,163.9214123579041" stroke="grey" stroke-width="5" />
<circle cx="517.4650150387031" cy="616.9886156361171" r="2.5" fill="grey" stroke="none" />
<circle cx="476.47152585257544" cy="615.921412357904" r="5" fill="black" stroke="none" />
<circle cx="524.4715258525755" cy="663.921412357904" r="5" fill="black" stroke="none" />
<path d="M524.4715258525755,663.921412357904 A165.7380010949912,165.7380010949912,0,0,1,518.3291972763709,664.7213572496511" stroke="grey" stroke-width="5" fill="none" />
<path d="M518.3291972763709,664.7213572496511 L24.47152585257544,219.9214123579041" stroke="grey" stroke-width="5" />
<circle cx="518.3291972763709" cy="664.7213572496511" r="2.5" fill="grey" stroke="none" />
<circle cx="524.4715258525755" cy="663.921412357904" r="5" fill="black" stroke="none" />
<circle cx="524.4715258525755" cy="719.921412357904" r="5" fill="black" stroke="none" />
<path d="M524.4715258525754,719.921412357904 A221.27874545705595,221.27874545705595,0,0,0,567.7567502778179,710.6497234340411" stroke="grey" stroke-width="5" fill="none" />
<path d="M567.7567502778179,710.6497234340411 L96.47152585257544,299.9214123579041" stroke="grey" stroke-width="5" />
<circle cx="567.7567502778179" cy="710.6497234340411" r="2.5" fill="grey" stroke="none" />
<circle cx="524.4715258525755" cy="719.921412357904" r="5" fill="black" stroke="none" />
<circle cx="596.4715258525755" cy="799.921412357904" r="5" fill="black" stroke="none" />
<path d="M572.4715258525755,559.921412357904 A94.03561941289317,94.03561941289317,0,0,1,547.0319820660874,581.4290512120933" stroke="grey" stroke-width="5" fill="none" />
<path d="M547.0319820660874,581.4290512120933 L48.47152585257544,83.92141235790409" stroke="grey" stroke-width="5" />
<circle cx="547.0319820660874" cy="581.4290512120933" r="2.5" fill="grey" stroke="none" />
<circle cx="572.4715258525755" cy="559.921412357904" r="5" fill="black" stroke="none" />
<circle cx="548.4715258525755" cy="583.921412357904" r="5" fill="black" stroke="none" />
<path d="M548.4715258525755,583.921412357904 A96.91383941740347,96.91383941740347,0,0,1,520.0177578558944,594.8239507774541" stroke="grey" stroke-width="5" fill="none" />
<path d="M520.0177578558944,594.8239507774541 L24.47152585257544,115.92141235790409" stroke="grey" stroke-width="5" />
<circle cx="520.0177578558944" cy="594.8239507774541" r="2.5" fill="grey" stroke="none" />
<circle cx="548.4715258525755" cy="583.921412357904" r="5" fill="black" stroke="none" />
<circle cx="524.4715258525755" cy="615.921412357904" r="5" fill="black" stroke="none" />
<path d="M524.4715258525755,615.921412357904 A118.47628210154346,118.47628210154346,0,0,1,517.4932446464298,617.177710390435" stroke="grey" stroke-width="5" fill="none" />
<path d="M517.4932446464298,617.177710390435 L24.47152585257544,163.9214123579041" stroke="grey" stroke-width="5" />
<circle cx="517.4932446464298" cy="617.177710390435" r="2.5" fill="grey" stroke="none" />
<circle cx="524.4715258525755" cy="615.921412357904" r="5" fill="black" stroke="none" />
<circle cx="524.4715258525755" cy="663.921412357904" r="5" fill="black" stroke="none" />
<path d="M524.4715258525755,559.921412357904 A64.72581584282464,64.72581584282464,0,0,0,532.3726629221865,556.0485676163605" stroke="grey" stroke-width="5" fill="none" />
<path d="M532.3726629221865,556.0485676163605 L48.47152585257544,83.92141235790409" stroke="grey" stroke-width="5" />
<circle cx="532.3726629221865" cy="556.0485676163605" r="2.5" fill="grey" stroke="none" />
<circle cx="524.4715258525755" cy="559.921412357904" r="5" fill="black" stroke="none" />
<circle cx="548.4715258525755" cy="583.921412357904" r="5" fill="black" stroke="none" />
<path d="M476.4715258525754,615.921412357904 A118.28509178572448,118.28509178572448,0,0,0,524.4320350897549,615.7343449462182" stroke="grey" stroke-width="5" fill="none" />
<path d="M524.4320350897549,615.7343449462182 L24.47152585257544,115.92141235790409" stroke="grey" stroke-width="5" />
<circle cx="524.4320350897549" cy="615.7343449462182" r="2.5" fill="grey" stroke="none" />
<circle cx="476.47152585257544" cy="615.921412357904" r="5" fill="black" stroke="none" />
<circle cx="524.4715258525755" cy="615.921412357904" r="5" fill="black" stroke="none" />
<path d="M572.4715258525755,559.921412357904 A94.03561941289317,94.03561941289317,0,0,1,549.848988877489,579.7356634528018" stroke="grey" stroke-width="5" fill="none" />
<path d="M549.848988877489,579.7356634528018 L72.47152585257544,115.92141235790409" stroke="grey" stroke-width="5" />
<circle cx="549.848988877489" cy="579.7356634528018" r="2.5" fill="grey" stroke="none" />
<circle cx="572.4715258525755" cy="559.921412357904" r="5" fill="black" stroke="none" />
<circle cx="572.4715258525755" cy="615.921412357904" r="5" fill="black" stroke="none" />
<path d="M548.4715258525755,583.921412357904 A96.91383941740347,96.91383941740347,0,0,0,551.3747549423864,582.1761937864733" stroke="grey" stroke-width="5" fill="none" />
<path d="M551.3747549423864,582.1761937864733 L72.47152585257544,115.92141235790409" stroke="grey" stroke-width="5" />
<circle cx="551.3747549423864" cy="582.1761937864733" r="2.5" fill="grey" stroke="none" />
<circle cx="548.4715258525755" cy="583.921412357904" r="5" fill="black" stroke="none" />
<circle cx="572.4715258525755" cy="615.921412357904" r="5" fill="black" stroke="none" />
<path d="M524.4715258525755,615.921412357904 A118.47628210154346,118.47628210154346,0,0,0,562.8051679310397,600.459645140516" stroke="grey" stroke-width="5" fill="none" />
<path d="M562.8051679310397,600.459645140516 L72.47152585257544,115.92141235790409" stroke="grey" stroke-width="5" />
<circle cx="562.8051679310397" cy="600.459645140516" r="2.5" fill="grey" stroke="none" />
<circle cx="524.4715258525755" cy="615.921412357904" r="5" fill="black" stroke="none" />
<circle cx="572.4715258525755" cy="615.921412357904" r="5" fill="black" stroke="none" />
<path d="M524.4715258525755,663.921412357904 L520.1856339757132,635.2125588969097" stroke="grey" stroke-width="5" />
<circle cx="520.1856339757132" cy="635.2125588969097" r="2.5" fill="grey" stroke="none" />
<path d="M520.1856339757132,635.2125588969097 A136.71099408040212,136.71099408040212,0,0,0,572.4715258525755,615.921412357904" stroke="grey" stroke-width="5" fill="none" />
<circle cx="524.4715258525755" cy="663.921412357904" r="5" fill="black" stroke="none" />
<circle cx="572.4715258525755" cy="615.921412357904" r="5" fill="black" stroke="none" />
<path d="M572.4715258525755,615.921412357904 A136.71099408040212,136.71099408040212,0,0,1,549.1911133945886,627.5544207993297" stroke="grey" stroke-width="5" fill="none" />
<path d="M549.1911133945886,627.5544207993297 L72.47152585257544,187.9214123579041" stroke="grey" stroke-width="5" />
<circle cx="549.1911133945886" cy="627.5544207993297" r="2.5" fill="grey" stroke="none" />
<circle cx="572.4715258525755" cy="615.921412357904" r="5" fill="black" stroke="none" />
<circle cx="572.4715258525755" cy="687.921412357904" r="5" fill="black" stroke="none" />
<path d="M572.4715258525754,687.921412357904 A201.41146760298912,201.41146760298912,0,0,1,522.274375816218,700.1760012188969" stroke="grey" stroke-width="5" fill="none" />
<path d="M522.274375816218,700.1760012188969 L24.47152585257544,219.9214123579041" stroke="grey" stroke-width="5" />
<circle cx="522.274375816218" cy="700.1760012188969" r="2.5" fill="grey" stroke="none" />
<circle cx="572.4715258525755" cy="687.921412357904" r="5" fill="black" stroke="none" />
<circle cx="524.4715258525755" cy="719.921412357904" r="5" fill="black" stroke="none" />
<path d="M572.4715258525755,559.921412357904 A94.03561941289317,94.03561941289317,0,0,0,591.2327287344197,477.21213204272306" stroke="grey" stroke-width="5" fill="none" />
<path d="M591.2327287344197,477.21213204272306 L176.47152585257544,-44.07858764209591" stroke="grey" stroke-width="5" />
<circle cx="591.2327287344197" cy="477.21213204272306" r="2.5" fill="grey" stroke="none" />
<circle cx="572.4715258525755" cy="559.921412357904" r="5" fill="black" stroke="none" />
<circle cx="676.4715258525755" cy="455.9214123579041" r="5" fill="black" stroke="none" />
<path d="M572.4715258525755,559.921412357904 A94.03561941289317,94.03561941289317,0,0,0,586.7418320510146,536.3118753412717" stroke="grey" stroke-width="5" fill="none" />
<path d="M586.7418320510146,536.3118753412717 L200.47152585257544,83.92141235790409" stroke="grey" stroke-width="5" />
<circle cx="586.7418320510146" cy="536.3118753412717" r="2.5" fill="grey" stroke="none" />
<circle cx="572.4715258525755" cy="559.921412357904" r="5" fill="black" stroke="none" />
<circle cx="700.4715258525755" cy="583.921412357904" r="5" fill="black" stroke="none" />
<path d="M700.4715258525755,583.9214123579042 A217.3284061732502,217.3284061732502,0,0,0,708.6772433032554,560.7078599290004" stroke="grey" stroke-width="5" fill="none" />
<path d="M708.6772433032554,560.7078599290004 L288.47152585257544,83.92141235790409" stroke="grey" stroke-width="5" />
<circle cx="708.6772433032554" cy="560.7078599290004" r="2.5" fill="grey" stroke="none" />
<circle cx="700.4715258525755" cy="583.921412357904" r="5" fill="black" stroke="none" />
<circle cx="788.4715258525755" cy="583.921412357904" r="5" fill="black" stroke="none" />
<path d="M572.4715258525755,615.921412357904 A136.71099408040212,136.71099408040212,0,0,1,572.0843202851659,616.162587227891" stroke="grey" stroke-width="5" fill="none" />
<path d="M572.0843202851657,616.162587227891 L136.47152585257544,219.9214123579041" stroke="grey" stroke-width="5" />
<circle cx="572.0843202851657" cy="616.162587227891" r="2.5" fill="grey" stroke="none" />
<circle cx="572.4715258525755" cy="615.921412357904" r="5" fill="black" stroke="none" />
<circle cx="636.4715258525755" cy="719.921412357904" r="5" fill="black" stroke="none" />
<circle cx="500" cy="500" r="5" fill="red" stroke="none" />
</svg>