<?xml version="1.0" encoding="UTF-8"?>
<svg xmlns="http://www.w3.org/2000/svg" xmlns:xlink="http://www.w3.org/1999/xlink"
     width="1000" height="1000" viewBox="0 0 1000 1000">
<defs>
</defs>
<rect x="0" y="0" width="1000" height="1000" fill="white" />
<path d="M376.03086170940355,693.2613226780584 L438.80991135915207,595.3921082987389" stroke="grey" stroke-width="5" />
<circle cx="438.80991135915207" cy="595.3921082987389" r="2.5" fill="grey" stroke="none" />
<path d="M438.80991135915207,595.3921082987389 A113.33084872863678,113.33084872863678,0,0,0,496.03086170940355,613.2613226780584" stroke="grey" stroke-width="5" fill="none" />
<circle cx="376.03086170940355" cy="693.2613226780584" r="5" fill="black" stroke="none" />
<circle cx="496.03086170940355" cy="613.2613226780584" r="5" fill="black" stroke="none" />
<path d="M496.03086170940355,613.2613226780584 L497.98974892921274,557.3635077749174" stroke="grey" stroke-width="5" />
<circle cx="497.98974892921274" cy="557.3635077749174" r="2.5" fill="grey" stroke="none" />
<path d="M497.98974892921274,557.3635077749174 A57.39872066179357,57.39872066179357,0,0,1,496.03086170940355,557.2613226780584" stroke="grey" stroke-width="5" fill="none" />
<circle cx="496.03086170940355" cy="613.2613226780584" r="5" fill="black" stroke="none" />
<circle cx="496.03086170940355" cy="557.2613226780584" r="5" fill="black" stroke="none" />
<path d="M496.03086170940355,557.2613226780584 A57.39872066179357,57.39872066179357,0,0,1,449.29137009795676,526.8932702932949" stroke="grey" stroke-width="5" fill="none" />
<path d="M449.29137009795676,526.8932702932948 L392.03086170940355,557.2613226780584" stroke="grey" stroke-width="5" />
<circle cx="449.29137009795676" cy="526.8932702932948" r="2.5" fill="grey" stroke="none" />
<circle cx="496.03086170940355" cy="557.2613226780584" r="5" fill="black" stroke="none" />
<circle cx="392.03086170940355" cy="557.2613226780584" r="5" fill="black" stroke="none" />
<path d="M392.03086170940355,557.2613226780584 L427.126163019725,538.6485653232187" stroke="grey" stroke-width="5" />
<circle cx="427.126163019725" cy="538.6485653232187" r="2.5" fill="grey" stroke="none" />
<path d="M427.126163019725,538.6485653232187 A82.4882277526363,82.4882277526363,0,0,1,432.03086170940355,453.2613226780585" stroke="grey" stroke-width="5" fill="none" />
<circle cx="392.03086170940355" cy="557.2613226780584" r="5" fill="black" stroke="none" />
<circle cx="432.03086170940355" cy="453.26132267805843" r="5" fill="black" stroke="none" />
<path d="M432.03086170940355,453.2613226780585 A82.4882277526363,82.4882277526363,0,0,1,525.6226652246028,421.5921767643131" stroke="grey" stroke-width="5" fill="none" />
<path d="M525.6226652246028,421.5921767643131 L544.0308617094036,365.26132267805843" stroke="grey" stroke-width="5" />
<circle cx="525.6226652246028" cy="421.5921767643131" r="2.5" fill="grey" stroke="none" />
<circle cx="432.03086170940355" cy="453.26132267805843" r="5" fill="black" stroke="none" />
<circle cx="544.0308617094036" cy="365.26132267805843" r="5" fill="black" stroke="none" />
<path d="M544.0308617094036,365.2613226780584 A141.75058359435036,141.75058359435036,0,0,1,590.6003873545455,390.9825804719942" stroke="grey" stroke-width="5" fill="none" />
<path d="M590.6003873545455,390.9825804719942 L592.0308617094036,389.26132267805843" stroke="grey" stroke-width="5" />
<circle cx="590.6003873545455" cy="390.9825804719942" r="2.5" fill="grey" stroke="none" />
<circle cx="544.0308617094036" cy="365.26132267805843" r="5" fill="black" stroke="none" />
<circle cx="592.0308617094036" cy="389.26132267805843" r="5" fill="black" stroke="none" />
<path d="M592.0308617094036,389.26132267805843 L571.442250351361,414.03513819316584" stroke="grey" stroke-width="5" />
<circle cx="571.442250351361" cy="414.03513819316584" r="2.5" fill="grey" stroke="none" />
<path d="M571.442250351361,414.03513819316584 A111.77635081149613,111.77635081149613,0,0,0,544.0308617094036,397.26132267805843" stroke="grey" stroke-width="5" fill="none" />
<circle cx="592.0308617094036" cy="389.26132267805843" r="5" fill="black" stroke="none" />
<circle cx="544.0308617094036" cy="397.26132267805843" r="5" fill="black" stroke="none" />
<path d="M544.0308617094036,365.26132267805843 L534.7202030507825,393.75283485736156" stroke="grey" stroke-width="5" />
<circle cx="534.7202030507825" cy="393.75283485736156" r="2.5" fill="grey" stroke="none" />
<path d="M534.7202030507825,393.75283485736156 A111.77635081149613,111.77635081149613,0,0,1,544.0308617094036,397.26132267805843" stroke="grey" stroke-width="5" fill="none" />
<circle cx="544.0308617094036" cy="365.26132267805843" r="5" fill="black" stroke="none" />
<circle cx="544.0308617094036" cy="397.26132267805843" r="5" fill="black" stroke="none" />
<path d="M544.0308617094036,397.26132267805843 L496.03086170940355,509.26132267805843" stroke="grey" stroke-width="5" />
<circle cx="544.0308617094036" cy="397.26132267805843" r="5" fill="black" stroke="none" />
<circle cx="496.03086170940355" cy="509.26132267805843" r="5" fill="black" stroke="none" />
<path d="M432.03086170940355,453.26132267805843 L491.6975023043865,494.2908241810809" stroke="grey" stroke-width="5" />
<circle cx="491.6975023043865" cy="494.2908241810809" r="2.5" fill="grey" stroke="none" />
<path d="M491.6975023043865,494.2908241810809 A10.076018882326409,10.076018882326409,0,0,0,496.03086170940355,509.26132267805843" stroke="grey" stroke-width="5" fill="none" />
<circle cx="432.03086170940355" cy="453.26132267805843" r="5" fill="black" stroke="none" />
<circle cx="496.03086170940355" cy="509.26132267805843" r="5" fill="black" stroke="none" />
<path d="M496.03086170940355,509.26132267805843 A10.076018882326409,10.076018882326409,0,0,0,499.30324035272037,510.05189944791135" stroke="grey" stroke-width="5" fill="none" />
<path d="M499.30324035272037,510.05189944791135 L496.03086170940355,557.2613226780584" stroke="grey" stroke-width="5" />
<circle cx="499.30324035272037" cy="510.05189944791135" r="2.5" fill="grey" stroke="none" />
<circle cx="496.03086170940355" cy="509.26132267805843" r="5" fill="black" stroke="none" />
<circle cx="496.03086170940355" cy="557.2613226780584" r="5" fill="black" stroke="none" />
<path d="M592.0308617094036,389.26132267805843 A143.98865983815688,143.98865983815688,0,0,1,594.8719292804719,391.68540635450097" stroke="grey" stroke-width="5" fill="none" />
<path d="M594.8719292804719,391.68540635450097 L632.0308617094036,349.26132267805843" stroke="grey" stroke-width="5" />
<circle cx="594.8719292804719" cy="391.68540635450097" r="2.5" fill="grey" stroke="none" />
<circle cx="592.0308617094036" cy="389.26132267805843" r="5" fill="black" stroke="none" />
<circle cx="632.0308617094036" cy="349.26132267805843" r="5" fill="black" stroke="none" />
<path d="M592.0308617094036,389.26132267805843 A143.98865983815688,143.98865983815688,0,0,1,636.5815650444557,454.4126086291883" stroke="grey" stroke-width="5" fill="none" />
<path d="M636.5815650444557,454.4126086291883 L640.0308617094036,453.26132267805843" stroke="grey" stroke-width="5" />
<circle cx="636.5815650444557" cy="454.4126086291883" r="2.5" fill="grey" stroke="none" />
<circle cx="592.0308617094036" cy="389.26132267805843" r="5" fill="black" stroke="none" />
<circle cx="640.0308617094036" cy="453.26132267805843" r="5" fill="black" stroke="none" />
<path d="M544.0308617094036,397.26132267805843 L540.6599971129423,405.12667340313476" stroke="grey" stroke-width="5" />
<circle cx="540.6599971129423" cy="405.12667340313476" r="2.5" fill="grey" stroke="none" />
<path d="M540.6599971129423,405.12667340313476 A103.21910416574993,103.21910416574993,0,0,1,592.0308617094036,453.26132267805843" stroke="grey" stroke-width="5" fill="none" />
<circle cx="544.0308617094036" cy="397.26132267805843" r="5" fill="black" stroke="none" />
<circle cx="592.0308617094036" cy="453.26132267805843" r="5" fill="black" stroke="none" />
<path d="M496.03086170940355,509.26132267805843 A10.076018882326409,10.076018882326409,0,0,0,509.8602621106493,502.07397869475386" stroke="grey" stroke-width="5" fill="none" />
<path d="M509.8602621106493,502.07397869475386 L544.0308617094036,509.26132267805843" stroke="grey" stroke-width="5" />
<circle cx="509.8602621106493" cy="502.07397869475386" r="2.5" fill="grey" stroke="none" />
<circle cx="496.03086170940355" cy="509.26132267805843" r="5" fill="black" stroke="none" />
<circle cx="544.0308617094036" cy="509.26132267805843" r="5" fill="black" stroke="none" />
<path d="M496.03086170940355,557.2613226780584 A57.39872066179357,57.39872066179357,0,0,0,548.7353149955707,530.3229649917865" stroke="grey" stroke-width="5" fill="none" />
<path d="M548.7353149955707,530.3229649917865 L592.0308617094036,557.2613226780584" stroke="grey" stroke-width="5" />
<circle cx="548.7353149955707" cy="530.3229649917865" r="2.5" fill="grey" stroke="none" />
<circle cx="496.03086170940355" cy="557.2613226780584" r="5" fill="black" stroke="none" />
<circle cx="592.0308617094036" cy="557.2613226780584" r="5" fill="black" stroke="none" />
<path d="M496.03086170940355,613.2613226780584 A113.33084872863678,113.33084872863678,0,0,0,571.4684213062001,587.9553638475371" stroke="grey" stroke-width="5" fill="none" />
<path d="M571.4684213062001,587.9553638475371 L592.0308617094036,613.2613226780584" stroke="grey" stroke-width="5" />
<circle cx="571.4684213062001" cy="587.9553638475371" r="2.5" fill="grey" stroke="none" />
<circle cx="496.03086170940355" cy="613.2613226780584" r="5" fill="black" stroke="none" />
<circle cx="592.0308617094036" cy="613.2613226780584" r="5" fill="black" stroke="none" />
<path d="M640.0308617094036,453.26132267805843 L597.9092853929661,467.32041465044824" stroke="grey" stroke-width="5" />
<circle cx="597.9092853929661" cy="467.32041465044824" r="2.5" fill="grey" stroke="none" />
<path d="M597.9092853929661,467.32041465044824 A103.21910416574993,103.21910416574993,0,0,0,592.0308617094036,453.26132267805843" stroke="grey" stroke-width="5" fill="none" />
<circle cx="640.0308617094036" cy="453.26132267805843" r="5" fill="black" stroke="none" />
<circle cx="592.0308617094036" cy="453.26132267805843" r="5" fill="black" stroke="none" />
<path d="M592.0308617094036,453.26132267805843 L540.1172450056725,479.6261065631877" stroke="grey" stroke-width="5" />
<circle cx="540.1172450056725" cy="479.6261065631877" r="2.5" fill="grey" stroke="none" />
<path d="M540.1172450056725,479.6261065631877 A44.99432053737159,44.99432053737159,0,0,1,544.0308617094036,509.26132267805843" stroke="grey" stroke-width="5" fill="none" />
<circle cx="592.0308617094036" cy="453.26132267805843" r="5" fill="black" stroke="none" />
<circle cx="544.0308617094036" cy="509.26132267805843" r="5" fill="black" stroke="none" />
<path d="M544.0308617094036,509.26132267805843 A44.99432053737159,44.99432053737159,0,0,1,538.2031578250852,523.7698887841607" stroke="grey" stroke-width="5" fill="none" />
<path d="M538.2031578250852,523.7698887841607 L592.0308617094036,557.2613226780584" stroke="grey" stroke-width="5" />
<circle cx="538.2031578250852" cy="523.7698887841607" r="2.5" fill="grey" stroke="none" />
<circle cx="544.0308617094036" cy="509.26132267805843" r="5" fill="black" stroke="none" />
<circle cx="592.0308617094036" cy="557.2613226780584" r="5" fill="black" stroke="none" />
<path d="M592.0308617094036,557.2613226780585 A108.39067571436249,108.39067571436249,0,0,1,568.3530615407839,584.1213264268813" stroke="grey" stroke-width="5" fill="none" />
<path d="M568.3530615407838,584.1213264268813 L592.0308617094036,613.2613226780584" stroke="grey" stroke-width="5" />
<circle cx="568.3530615407838" cy="584.1213264268813" r="2.5" fill="grey" stroke="none" />
<circle cx="592.0308617094036" cy="557.2613226780584" r="5" fill="black" stroke="none" />
<circle cx="592.0308617094036" cy="613.2613226780584" r="5" fill="black" stroke="none" />
<path d="M592.0308617094036,613.2613226780584 A145.93768095237994,145.93768095237994,0,0,0,594.4356453968776,611.2641703345413" stroke="grey" stroke-width="5" fill="none" />
<path d="M594.4356453968776,611.2641703345413 L664.0308617094036,693.2613226780584" stroke="grey" stroke-width="5" />
<circle cx="594.4356453968776" cy="611.2641703345413" r="2.5" fill="grey" stroke="none" />
<circle cx="592.0308617094036" cy="613.2613226780584" r="5" fill="black" stroke="none" />
<circle cx="664.0308617094036" cy="693.2613226780584" r="5" fill="black" stroke="none" />
<path d="M640.0308617094036,453.26132267805843 L612.1555105446821,462.56539341946007" stroke="grey" stroke-width="5" />
<circle cx="612.1555105446821" cy="462.56539341946007" r="2.5" fill="grey" stroke="none" />
<path d="M612.1555105446821,462.56539341946007 A118.23793095017399,118.23793095017399,0,0,1,616.0308617094036,477.26132267805843" stroke="grey" stroke-width="5" fill="none" />
<circle cx="640.0308617094036" cy="453.26132267805843" r="5" fill="black" stroke="none" />
<circle cx="616.0308617094036" cy="477.26132267805843" r="5" fill="black" stroke="none" />
<path d="M616.0308617094036,477.26132267805843 L590.7691284986623,482.2118883431712" stroke="grey" stroke-width="5" />
<circle cx="590.7691284986623" cy="482.2118883431712" r="2.5" fill="grey" stroke="none" />
<path d="M590.7691284986623,482.2118883431712 A92.49568424917176,92.49568424917176,0,0,1,592.0308617094036,509.26132267805843" stroke="grey" stroke-width="5" fill="none" />
<circle cx="616.0308617094036" cy="477.26132267805843" r="5" fill="black" stroke="none" />
<circle cx="592.0308617094036" cy="509.26132267805843" r="5" fill="black" stroke="none" />
<path d="M592.0308617094036,509.26132267805843 A92.49568424917176,92.49568424917176,0,0,1,578.5349613308501,548.8642144466105" stroke="grey" stroke-width="5" fill="none" />
<path d="M578.5349613308501,548.8642144466105 L592.0308617094036,557.2613226780584" stroke="grey" stroke-width="5" />
<circle cx="578.5349613308501" cy="548.8642144466105" r="2.5" fill="grey" stroke="none" />
<circle cx="592.0308617094036" cy="509.26132267805843" r="5" fill="black" stroke="none" />
<circle cx="592.0308617094036" cy="557.2613226780584" r="5" fill="black" stroke="none" />
<path d="M592.0308617094036,453.26132267805843 A103.21910416574993,103.21910416574993,0,0,1,601.292381429371,480.1496365487491" stroke="grey" stroke-width="5" fill="none" />
<path d="M601.292381429371,480.1496365487491 L616.0308617094036,477.26132267805843" stroke="grey" stroke-width="5" />
<circle cx="601.292381429371" cy="480.1496365487491" r="2.5" fill="grey" stroke="none" />
<circle cx="592.0308617094036" cy="453.26132267805843" r="5" fill="black" stroke="none" />
<circle cx="616.0308617094036" cy="477.26132267805843" r="5" fill="black" stroke="none" />
<path d="M544.0308617094036,509.26132267805843 A44.99432053737159,44.99432053737159,0,0,0,544.7682086434265,504.5051498841182" stroke="grey" stroke-width="5" fill="none" />
<path d="M544.7682086434265,504.5051498841182 L592.0308617094036,509.26132267805843" stroke="grey" stroke-width="5" />
<circle cx="544.7682086434265" cy="504.5051498841182" r="2.5" fill="grey" stroke="none" />
<circle cx="544.0308617094036" cy="509.26132267805843" r="5" fill="black" stroke="none" />
<circle cx="592.0308617094036" cy="509.26132267805843" r="5" fill="black" stroke="none" />
<path d="M640.0308617094036,453.26132267805843 L633.1175544498849,455.5688057091964" stroke="grey" stroke-width="5" />
<circle cx="633.1175544498849" cy="455.5688057091964" r="2.5" fill="grey" stroke="none" />
<path d="M633.1175544498849,455.5688057091964 A140.33678893584968,140.33678893584968,0,0,1,640.0308617094036,509.26132267805843" stroke="grey" stroke-width="5" fill="none" />
<circle cx="640.0308617094036" cy="453.26132267805843" r="5" fill="black" stroke="none" />
<circle cx="640.0308617094036" cy="509.26132267805843" r="5" fill="black" stroke="none" />
<path d="M616.0308617094036,477.26132267805843 A118.23793095017399,118.23793095017399,0,0,1,617.9801781360288,507.8029406231898" stroke="grey" stroke-width="5" fill="none" />
<path d="M617.9801781360288,507.8029406231898 L640.0308617094036,509.26132267805843" stroke="grey" stroke-width="5" />
<circle cx="617.9801781360288" cy="507.8029406231898" r="2.5" fill="grey" stroke="none" />
<circle cx="616.0308617094036" cy="477.26132267805843" r="5" fill="black" stroke="none" />
<circle cx="640.0308617094036" cy="509.26132267805843" r="5" fill="black" stroke="none" />
<path d="M592.0308617094036,509.26132267805843 A92.49568424917176,92.49568424917176,0,0,0,592.2940482536843,506.10411841866335" stroke="grey" stroke-width="5" fill="none" />
<path d="M592.2940482536843,506.10411841866335 L640.0308617094036,509.26132267805843" stroke="grey" stroke-width="5" />
<circle cx="592.2940482536843" cy="506.10411841866335" r="2.5" fill="grey" stroke="none" />
<circle cx="592.0308617094036" cy="509.26132267805843" r="5" fill="black" stroke="none" />
<circle cx="640.0308617094036" cy="509.26132267805843" r="5" fill="black" stroke="none" />
<path d="M592.0308617094036,557.2613226780585 A108.39067571436249,108.39067571436249,0,0,0,608.1543894273143,507.15308530781886" stroke="grey" stroke-width="5" fill="none" />
<path d="M608.1543894273143,507.15308530781886 L640.0308617094036,509.26132267805843" stroke="grey" stroke-width="5" />
<circle cx="608.1543894273143" cy="507.15308530781886" r="2.5" fill="grey" stroke="none" />
<circle cx="592.0308617094036" cy="557.2613226780584" r="5" fill="black" stroke="none" />
<circle cx="640.0308617094036" cy="509.26132267805843" r="5" fill="black" stroke="none" />
<path d="M640.0308617094036,509.26132267805843 A140.33678893584968,140.33678893584968,0,0,1,621.3793607057002,570.4376683565033" stroke="grey" stroke-width="5" fill="none" />
<path d="M621.3793607057002,570.4376683565033 L640.0308617094036,581.2613226780584" stroke="grey" stroke-width="5" />
<circle cx="621.3793607057002" cy="570.4376683565033" r="2.5" fill="grey" stroke="none" />
<circle cx="640.0308617094036" cy="509.26132267805843" r="5" fill="black" stroke="none" />
<circle cx="640.0308617094036" cy="581.2613226780584" r="5" fill="black" stroke="none" />
<path d="M640.0308617094036,581.2613226780584 L626.2236549032741,573.2488611830777" stroke="grey" stroke-width="5" />
<circle cx="626.2236549032741" cy="573.2488611830777" r="2.5" fill="grey" stroke="none" />
<path d="M626.2236549032741,573.2488611830777 A145.93768095237994,145.93768095237994,0,0,1,592.0308617094036,613.2613226780584" stroke="grey" stroke-width="5" fill="none" />
<circle cx="640.0308617094036" cy="581.2613226780584" r="5" fill="black" stroke="none" />
<circle cx="592.0308617094036" cy="613.2613226780584" r="5" fill="black" stroke="none" />
<path d="M640.0308617094036,453.26132267805843 A147.625018844648,147.625018844648,0,0,0,625.595910196875,422.4189873055193" stroke="grey" stroke-width="5" fill="none" />
<path d="M625.595910196875,422.4189873055193 L744.0308617094036,349.26132267805843" stroke="grey" stroke-width="5" />
<circle cx="625.595910196875" cy="422.4189873055193" r="2.5" fill="grey" stroke="none" />
<circle cx="640.0308617094036" cy="453.26132267805843" r="5" fill="black" stroke="none" />
<circle cx="744.0308617094036" cy="349.26132267805843" r="5" fill="black" stroke="none" />
<path d="M640.0308617094036,453.26132267805843 A147.625018844648,147.625018844648,0,0,1,647.0966293221966,487.5209042422546" stroke="grey" stroke-width="5" fill="none" />
<path d="M647.0966293221966,487.5209042422546 L768.0308617094036,477.26132267805843" stroke="grey" stroke-width="5" />
<circle cx="647.0966293221966" cy="487.5209042422546" r="2.5" fill="grey" stroke="none" />
<circle cx="640.0308617094036" cy="453.26132267805843" r="5" fill="black" stroke="none" />
<circle cx="768.0308617094036" cy="477.26132267805843" r="5" fill="black" stroke="none" />
<path d="M768.0308617094036,477.26132267805843 A268.99366214659557,268.99366214659557,0,0,1,768.446720471492,482.85507237876203" stroke="grey" stroke-width="5" fill="none" />
<path d="M768.446720471492,482.85507237876203 L856.0308617094036,477.26132267805843" stroke="grey" stroke-width="5" />
<circle cx="768.446720471492" cy="482.85507237876203" r="2.5" fill="grey" stroke="none" />
<circle cx="768.0308617094036" cy="477.26132267805843" r="5" fill="black" stroke="none" />
<circle cx="856.0308617094036" cy="477.26132267805843" r="5" fill="black" stroke="none" />
<path d="M640.0308617094036,509.26132267805843 A140.33678893584968,140.33678893584968,0,0,1,622.6991799390026,568.1125948053771" stroke="grey" stroke-width="5" fill="none" />
<path d="M622.6991799390026,568.1125948053771 L704.0308617094036,613.2613226780584" stroke="grey" stroke-width="5" />
<circle cx="622.6991799390026" cy="568.1125948053771" r="2.5" fill="grey" stroke="none" />
<circle cx="640.0308617094036" cy="509.26132267805843" r="5" fill="black" stroke="none" />
<circle cx="704.0308617094036" cy="613.2613226780584" r="5" fill="black" stroke="none" />
<circle cx="500" cy="500" r="5" fill="red" stroke="none" />
</svg>