<?xml version="1.0" encoding="UTF-8"?>
<svg xmlns="http://www.w3.org/2000/svg" xmlns:xlink="http://www.w3.org/1999/xlink"
     width="1000" height="1000" viewBox="0 0 1000 1000">
<defs>
</defs>
<rect x="0" y="0" width="1000" height="1000" fill="white" />
<path d="M259.37862504043204,684.0 L373.4849989467106,596.7443569704346" stroke="grey" stroke-width="5" />
<circle cx="373.4849989467106" cy="596.7443569704346" r="2.5" fill="grey" stroke="none" />
<path d="M373.4849989467106,596.7443569704346 A159.26555213584854,159.26555213584854,0,0,0,379.37862504043204,604.0" stroke="grey" stroke-width="5" fill="none" />
<circle cx="259.37862504043204" cy="684.0" r="5" fill="black" stroke="none" />
<circle cx="379.37862504043204" cy="604.0" r="5" fill="black" stroke="none" />
<path d="M379.37862504043204,604.0 L401.678683906627,584.7728429321779" stroke="grey" stroke-width="5" />
<circle cx="401.678683906627" cy="584.7728429321779" r="2.5" fill="grey" stroke="none" />
<path d="M401.678683906627,584.7728429321779 A129.82109265114312,129.82109265114312,0,0,1,379.37862504043204,548.0" stroke="grey" stroke-width="5" fill="none" />
<circle cx="379.37862504043204" cy="604.0" r="5" fill="black" stroke="none" />
<circle cx="379.37862504043204" cy="548.0" r="5" fill="black" stroke="none" />
<path d="M379.37862504043204,548.0 A129.82109265114312,129.82109265114312,0,0,1,373.04522416266633,527.1293381642281" stroke="grey" stroke-width="5" fill="none" />
<path d="M373.04522416266633,527.1293381642282 L275.37862504043204,548.0" stroke="grey" stroke-width="5" />
<circle cx="373.04522416266633" cy="527.1293381642282" r="2.5" fill="grey" stroke="none" />
<circle cx="379.37862504043204" cy="548.0" r="5" fill="black" stroke="none" />
<circle cx="275.37862504043204" cy="548.0" r="5" fill="black" stroke="none" />
<path d="M275.37862504043204,548.0 L311.33206099395704,540.3170048884268" stroke="grey" stroke-width="5" />
<circle cx="311.33206099395704" cy="540.3170048884268" r="2.5" fill="grey" stroke="none" />
<path d="M311.33206099395704,540.3170048884268 A192.92758250691213,192.92758250691213,0,0,1,315.378625040432,444.00000000000006" stroke="grey" stroke-width="5" fill="none" />
<circle cx="275.37862504043204" cy="548.0" r="5" fill="black" stroke="none" />
<circle cx="315.37862504043204" cy="444.0" r="5" fill="black" stroke="none" />
<path d="M315.37862504043204,444.0 L345.66774559422976,453.18740179128304" stroke="grey" stroke-width="5" />
<circle cx="345.66774559422976" cy="453.18740179128304" r="2.5" fill="grey" stroke="none" />
<path d="M345.6677455942297,453.1874017912831 A161.27573934419945,161.27573934419945,0,0,1,427.37862504043204,356.0" stroke="grey" stroke-width="5" fill="none" />
<circle cx="315.37862504043204" cy="444.0" r="5" fill="black" stroke="none" />
<circle cx="427.37862504043204" cy="356.0" r="5" fill="black" stroke="none" />
<path d="M427.37862504043204,356.0 L444.8391479333176,390.6222485869397" stroke="grey" stroke-width="5" />
<circle cx="444.8391479333176" cy="390.6222485869397" r="2.5" fill="grey" stroke="none" />
<path d="M444.8391479333176,390.6222485869397 A122.49984532602333,122.49984532602333,0,0,1,475.3786250404321,380.0" stroke="grey" stroke-width="5" fill="none" />
<circle cx="427.37862504043204" cy="356.0" r="5" fill="black" stroke="none" />
<circle cx="475.37862504043204" cy="380.0" r="5" fill="black" stroke="none" />
<path d="M475.3786250404321,380.0 A122.49984532602333,122.49984532602333,0,0,0,433.3542919186787,397.2159462794012" stroke="grey" stroke-width="5" fill="none" />
<path d="M433.3542919186787,397.2159462794012 L427.37862504043204,388.0" stroke="grey" stroke-width="5" />
<circle cx="433.3542919186787" cy="397.2159462794012" r="2.5" fill="grey" stroke="none" />
<circle cx="475.37862504043204" cy="380.0" r="5" fill="black" stroke="none" />
<circle cx="427.37862504043204" cy="388.0" r="5" fill="black" stroke="none" />
<path d="M427.37862504043204,356.0 L439.89324989786525,380.8150903294478" stroke="grey" stroke-width="5" />
<circle cx="439.89324989786525" cy="380.8150903294478" r="2.5" fill="grey" stroke="none" />
<path d="M439.89324989786525,380.8150903294478 A133.48357240131898,133.48357240131898,0,0,0,427.37862504043204,388.0" stroke="grey" stroke-width="5" fill="none" />
<circle cx="427.37862504043204" cy="356.0" r="5" fill="black" stroke="none" />
<circle cx="427.37862504043204" cy="388.0" r="5" fill="black" stroke="none" />
<path d="M427.37862504043204,388.0 L434.3762686187228,398.7920854046747" stroke="grey" stroke-width="5" />
<circle cx="434.3762686187228" cy="398.7920854046747" r="2.5" fill="grey" stroke="none" />
<path d="M434.3762686187228,398.7920854046747 A120.62137495956796,120.62137495956796,0,0,0,379.37862504043204,500.0" stroke="grey" stroke-width="5" fill="none" />
<circle cx="427.37862504043204" cy="388.0" r="5" fill="black" stroke="none" />
<circle cx="379.37862504043204" cy="500.0" r="5" fill="black" stroke="none" />
<path d="M315.37862504043204,444.0 L384.57179732840336,464.987914584511" stroke="grey" stroke-width="5" />
<circle cx="384.57179732840336" cy="464.987914584511" r="2.5" fill="grey" stroke="none" />
<path d="M384.57179732840336,464.98791458451103 A120.62137495956796,120.62137495956796,0,0,0,379.37862504043204,500.0" stroke="grey" stroke-width="5" fill="none" />
<circle cx="315.37862504043204" cy="444.0" r="5" fill="black" stroke="none" />
<circle cx="379.37862504043204" cy="500.0" r="5" fill="black" stroke="none" />
<path d="M379.37862504043204,500.0 A120.62137495956796,120.62137495956796,0,0,0,387.92640856725546,544.5984999804134" stroke="grey" stroke-width="5" fill="none" />
<path d="M387.92640856725546,544.5984999804134 L379.37862504043204,548.0" stroke="grey" stroke-width="5" />
<circle cx="387.92640856725546" cy="544.5984999804134" r="2.5" fill="grey" stroke="none" />
<circle cx="379.37862504043204" cy="500.0" r="5" fill="black" stroke="none" />
<circle cx="379.37862504043204" cy="548.0" r="5" fill="black" stroke="none" />
<path d="M475.3786250404321,380.0 A122.49984532602333,122.49984532602333,0,0,1,511.7202315118913,378.0621130320551" stroke="grey" stroke-width="5" fill="none" />
<path d="M511.7202315118913,378.0621130320551 L515.3786250404321,340.0" stroke="grey" stroke-width="5" />
<circle cx="511.7202315118913" cy="378.0621130320551" r="2.5" fill="grey" stroke="none" />
<circle cx="475.37862504043204" cy="380.0" r="5" fill="black" stroke="none" />
<circle cx="515.3786250404321" cy="340.0" r="5" fill="black" stroke="none" />
<path d="M475.37862504043204,380.0 L487.8030376305054,440.5542750255475" stroke="grey" stroke-width="5" />
<circle cx="487.8030376305054" cy="440.5542750255475" r="2.5" fill="grey" stroke="none" />
<path d="M487.80303763050546,440.55427502554744 A60.68410095553131,60.68410095553131,0,0,1,523.378625040432,444.0" stroke="grey" stroke-width="5" fill="none" />
<circle cx="475.37862504043204" cy="380.0" r="5" fill="black" stroke="none" />
<circle cx="523.3786250404321" cy="444.0" r="5" fill="black" stroke="none" />
<path d="M427.37862504043204,388.0 L466.7186567884915,448.67199303560074" stroke="grey" stroke-width="5" />
<circle cx="466.7186567884915" cy="448.67199303560074" r="2.5" fill="grey" stroke="none" />
<path d="M466.7186567884915,448.67199303560074 A61.17362262364099,61.17362262364099,0,0,1,475.37862504043204,444.0" stroke="grey" stroke-width="5" fill="none" />
<circle cx="427.37862504043204" cy="388.0" r="5" fill="black" stroke="none" />
<circle cx="475.37862504043204" cy="444.0" r="5" fill="black" stroke="none" />
<path d="M379.37862504043204,500.0 L427.37862504043204,500.0" stroke="grey" stroke-width="5" />
<circle cx="427.37862504043204" cy="500.0" r="2.5" fill="grey" stroke="none" />
<path d="M427.37862504043204,500.0 A72.62137495956796,72.62137495956796,0,0,1,427.37862504043204,500.0" stroke="grey" stroke-width="5" fill="none" />
<circle cx="379.37862504043204" cy="500.0" r="5" fill="black" stroke="none" />
<circle cx="427.37862504043204" cy="500.0" r="5" fill="black" stroke="none" />
<path d="M379.37862504043204,548.0 L449.8765061286032,519.9461140832917" stroke="grey" stroke-width="5" />
<circle cx="449.8765061286032" cy="519.9461140832917" r="2.5" fill="grey" stroke="none" />
<path d="M449.8765061286032,519.9461140832917 A53.94638175911004,53.94638175911004,0,0,0,475.37862504043204,548.0" stroke="grey" stroke-width="5" fill="none" />
<circle cx="379.37862504043204" cy="548.0" r="5" fill="black" stroke="none" />
<circle cx="475.37862504043204" cy="548.0" r="5" fill="black" stroke="none" />
<path d="M379.37862504043204,604.0 L419.05732863176524,569.7889393577061" stroke="grey" stroke-width="5" />
<circle cx="419.05732863176524" cy="569.7889393577061" r="2.5" fill="grey" stroke="none" />
<path d="M419.05732863176524,569.7889393577061 A106.87474961327226,106.87474961327226,0,0,0,475.37862504043204,604.0" stroke="grey" stroke-width="5" fill="none" />
<circle cx="379.37862504043204" cy="604.0" r="5" fill="black" stroke="none" />
<circle cx="475.37862504043204" cy="604.0" r="5" fill="black" stroke="none" />
<path d="M523.378625040432,444.0 A60.68410095553131,60.68410095553131,0,0,0,475.5756494444879,444.4481214654034" stroke="grey" stroke-width="5" fill="none" />
<path d="M475.5756494444879,444.4481214654034 L475.37862504043204,444.0" stroke="grey" stroke-width="5" />
<circle cx="475.5756494444879" cy="444.4481214654034" r="2.5" fill="grey" stroke="none" />
<circle cx="523.3786250404321" cy="444.0" r="5" fill="black" stroke="none" />
<circle cx="475.37862504043204" cy="444.0" r="5" fill="black" stroke="none" />
<path d="M475.37862504043204,444.0 A61.17362262364099,61.17362262364099,0,0,0,438.826377376359,500.0" stroke="grey" stroke-width="5" fill="none" />
<path d="M438.826377376359,500.0 L427.37862504043204,500.0" stroke="grey" stroke-width="5" />
<circle cx="438.826377376359" cy="500.0" r="2.5" fill="grey" stroke="none" />
<circle cx="475.37862504043204" cy="444.0" r="5" fill="black" stroke="none" />
<circle cx="427.37862504043204" cy="500.0" r="5" fill="black" stroke="none" />
<path d="M427.37862504043204,500.0 L446.05361824088993,500.0" stroke="grey" stroke-width="5" />
<circle cx="446.05361824088993" cy="500.0" r="2.5" fill="grey" stroke="none" />
<path d="M446.05361824088993,500.0 A53.94638175911004,53.94638175911004,0,0,0,475.37862504043204,548.0" stroke="grey" stroke-width="5" fill="none" />
<circle cx="427.37862504043204" cy="500.0" r="5" fill="black" stroke="none" />
<circle cx="475.37862504043204" cy="548.0" r="5" fill="black" stroke="none" />
<path d="M475.37862504043204,548.0 A53.94638175911004,53.94638175911004,0,0,0,487.5720495457601,552.4953155282126" stroke="grey" stroke-width="5" fill="none" />
<path d="M487.5720495457601,552.4953155282126 L475.37862504043204,604.0" stroke="grey" stroke-width="5" />
<circle cx="487.5720495457601" cy="552.4953155282126" r="2.5" fill="grey" stroke="none" />
<circle cx="475.37862504043204" cy="548.0" r="5" fill="black" stroke="none" />
<circle cx="475.37862504043204" cy="604.0" r="5" fill="black" stroke="none" />
<path d="M475.37862504043204,604.0 A106.87474961327226,106.87474961327226,0,0,0,526.650143178202,603.4987051777991" stroke="grey" stroke-width="5" fill="none" />
<path d="M526.650143178202,603.4987051777991 L547.3786250404321,684.0" stroke="grey" stroke-width="5" />
<circle cx="526.650143178202" cy="603.4987051777991" r="2.5" fill="grey" stroke="none" />
<circle cx="475.37862504043204" cy="604.0" r="5" fill="black" stroke="none" />
<circle cx="547.3786250404321" cy="684.0" r="5" fill="black" stroke="none" />
<path d="M523.3786250404321,444.0 L512.3303635973708,470.46445801416525" stroke="grey" stroke-width="5" />
<circle cx="512.3303635973708" cy="470.46445801416525" r="2.5" fill="grey" stroke="none" />
<path d="M512.3303635973708,470.4644580141652 A32.006032350798776,32.006032350798776,0,0,0,499.37862504043204,468.0" stroke="grey" stroke-width="5" fill="none" />
<circle cx="523.3786250404321" cy="444.0" r="5" fill="black" stroke="none" />
<circle cx="499.37862504043204" cy="468.0" r="5" fill="black" stroke="none" />
<path d="M499.37862504043204,468.0 L499.5219930511122,475.3832655647331" stroke="grey" stroke-width="5" />
<circle cx="499.5219930511122" cy="475.3832655647331" r="2.5" fill="grey" stroke="none" />
<path d="M499.5219930511122,475.3832655647331 A24.62137495956796,24.62137495956796,0,0,0,475.37862504043204,500.0" stroke="grey" stroke-width="5" fill="none" />
<circle cx="499.37862504043204" cy="468.0" r="5" fill="black" stroke="none" />
<circle cx="475.37862504043204" cy="500.0" r="5" fill="black" stroke="none" />
<path d="M475.37862504043204,500.0 A24.62137495956796,24.62137495956796,0,0,0,488.7626920447307,521.9074191729213" stroke="grey" stroke-width="5" fill="none" />
<path d="M488.7626920447307,521.9074191729213 L475.37862504043204,548.0" stroke="grey" stroke-width="5" />
<circle cx="488.7626920447307" cy="521.9074191729213" r="2.5" fill="grey" stroke="none" />
<circle cx="475.37862504043204" cy="500.0" r="5" fill="black" stroke="none" />
<circle cx="475.37862504043204" cy="548.0" r="5" fill="black" stroke="none" />
<path d="M475.37862504043204,444.0 L487.11809944090936,470.7008064133827" stroke="grey" stroke-width="5" />
<circle cx="487.11809944090936" cy="470.7008064133827" r="2.5" fill="grey" stroke="none" />
<path d="M487.1180994409094,470.7008064133827 A32.006032350798776,32.006032350798776,0,0,1,499.37862504043204,468.0" stroke="grey" stroke-width="5" fill="none" />
<circle cx="475.37862504043204" cy="444.0" r="5" fill="black" stroke="none" />
<circle cx="499.37862504043204" cy="468.0" r="5" fill="black" stroke="none" />
<path d="M427.37862504043204,500.0 L475.37862504043204,500.0" stroke="grey" stroke-width="5" />
<circle cx="475.37862504043204" cy="500.0" r="2.5" fill="grey" stroke="none" />
<path d="M475.37862504043204,500.0 A24.62137495956796,24.62137495956796,0,0,1,475.37862504043204,500.0" stroke="grey" stroke-width="5" fill="none" />
<circle cx="427.37862504043204" cy="500.0" r="5" fill="black" stroke="none" />
<circle cx="475.37862504043204" cy="500.0" r="5" fill="black" stroke="none" />
<path d="M523.3786250404321,444.0 L509.00664424742206,478.4259306531778" stroke="grey" stroke-width="5" />
<circle cx="509.00664424742206" cy="478.4259306531778" r="2.5" fill="grey" stroke="none" />
<path d="M509.00664424742206,478.4259306531778 A23.37862504043204,23.37862504043204,0,0,1,523.3786250404321,500.0" stroke="grey" stroke-width="5" fill="none" />
<circle cx="523.3786250404321" cy="444.0" r="5" fill="black" stroke="none" />
<circle cx="523.3786250404321" cy="500.0" r="5" fill="black" stroke="none" />
<path d="M499.37862504043204,468.0 L499.54612018040746,476.62578125604017" stroke="grey" stroke-width="5" />
<circle cx="499.54612018040746" cy="476.62578125604017" r="2.5" fill="grey" stroke="none" />
<path d="M499.54612018040746,476.62578125604017 A23.37862504043204,23.37862504043204,0,0,1,523.3786250404321,500.0" stroke="grey" stroke-width="5" fill="none" />
<circle cx="499.37862504043204" cy="468.0" r="5" fill="black" stroke="none" />
<circle cx="523.3786250404321" cy="500.0" r="5" fill="black" stroke="none" />
<path d="M475.37862504043204,500.0 L523.3786250404321,500.0" stroke="grey" stroke-width="5" />
<circle cx="475.37862504043204" cy="500.0" r="5" fill="black" stroke="none" />
<circle cx="523.3786250404321" cy="500.0" r="5" fill="black" stroke="none" />
<path d="M475.37862504043204,548.0 L489.3298887823479,520.8016546309194" stroke="grey" stroke-width="5" />
<circle cx="489.3298887823479" cy="520.8016546309194" r="2.5" fill="grey" stroke="none" />
<path d="M489.3298887823479,520.8016546309194 A23.37862504043204,23.37862504043204,0,0,0,523.3786250404321,500.0" stroke="grey" stroke-width="5" fill="none" />
<circle cx="475.37862504043204" cy="548.0" r="5" fill="black" stroke="none" />
<circle cx="523.3786250404321" cy="500.0" r="5" fill="black" stroke="none" />
<path d="M523.3786250404321,500.0 A23.37862504043204,23.37862504043204,0,0,1,507.22003653117343,522.2358085364494" stroke="grey" stroke-width="5" fill="none" />
<path d="M507.22003653117343,522.2358085364494 L523.3786250404321,572.0" stroke="grey" stroke-width="5" />
<circle cx="507.22003653117343" cy="522.2358085364494" r="2.5" fill="grey" stroke="none" />
<circle cx="523.3786250404321" cy="500.0" r="5" fill="black" stroke="none" />
<circle cx="523.3786250404321" cy="572.0" r="5" fill="black" stroke="none" />
<path d="M523.3786250404321,572.0 A75.70046306847215,75.70046306847215,0,0,1,482.5604317898648,573.6642489232406" stroke="grey" stroke-width="5" fill="none" />
<path d="M482.5604317898648,573.6642489232406 L475.37862504043204,604.0" stroke="grey" stroke-width="5" />
<circle cx="482.5604317898648" cy="573.6642489232406" r="2.5" fill="grey" stroke="none" />
<circle cx="523.3786250404321" cy="572.0" r="5" fill="black" stroke="none" />
<circle cx="475.37862504043204" cy="604.0" r="5" fill="black" stroke="none" />
<path d="M523.378625040432,444.0 A60.68410095553131,60.68410095553131,0,0,1,537.7965250380834,452.5238712211426" stroke="grey" stroke-width="5" fill="none" />
<path d="M537.7965250380834,452.5238712211426 L627.3786250404321,340.0" stroke="grey" stroke-width="5" />
<circle cx="537.7965250380834" cy="452.5238712211426" r="2.5" fill="grey" stroke="none" />
<circle cx="523.3786250404321" cy="444.0" r="5" fill="black" stroke="none" />
<circle cx="627.3786250404321" cy="340.0" r="5" fill="black" stroke="none" />
<path d="M523.378625040432,444.0 A60.68410095553131,60.68410095553131,0,0,1,559.3720505388852,487.44931381998697" stroke="grey" stroke-width="5" fill="none" />
<path d="M559.3720505388852,487.44931381998697 L651.3786250404321,468.0" stroke="grey" stroke-width="5" />
<circle cx="559.3720505388852" cy="487.44931381998697" r="2.5" fill="grey" stroke="none" />
<circle cx="523.3786250404321" cy="444.0" r="5" fill="black" stroke="none" />
<circle cx="651.3786250404321" cy="468.0" r="5" fill="black" stroke="none" />
<path d="M651.378625040432,468.0 A154.7239093325001,154.7239093325001,0,0,1,653.3596934556126,479.4989624083992" stroke="grey" stroke-width="5" fill="none" />
<path d="M653.3596934556126,479.4989624083992 L739.3786250404321,468.0" stroke="grey" stroke-width="5" />
<circle cx="653.3596934556126" cy="479.4989624083992" r="2.5" fill="grey" stroke="none" />
<circle cx="651.3786250404321" cy="468.0" r="5" fill="black" stroke="none" />
<circle cx="739.3786250404321" cy="468.0" r="5" fill="black" stroke="none" />
<path d="M523.3786250404321,500.0 A23.37862504043204,23.37862504043204,0,0,1,515.0388259758791,517.8995480962045" stroke="grey" stroke-width="5" fill="none" />
<path d="M515.0388259758791,517.8995480962045 L587.3786250404321,604.0" stroke="grey" stroke-width="5" />
<circle cx="515.0388259758791" cy="517.8995480962045" r="2.5" fill="grey" stroke="none" />
<circle cx="523.3786250404321" cy="500.0" r="5" fill="black" stroke="none" />
<circle cx="587.3786250404321" cy="604.0" r="5" fill="black" stroke="none" />
<circle cx="500" cy="500" r="5" fill="red" stroke="none" />
</svg>