<?xml version="1.0" encoding="UTF-8"?>
<svg xmlns="http://www.w3.org/2000/svg" xmlns:xlink="http://www.w3.org/1999/xlink"
     width="1000" height="1000" viewBox="0 0 1000 1000">
<defs>
</defs>
<rect x="0" y="0" width="1000" height="1000" fill="white" />
<path d="M284.03851067097816,684.0 L392.2858192633451,591.7728865323262" stroke="grey" stroke-width="5" />
<circle cx="392.2858192633451" cy="591.7728865323262" r="2.5" fill="grey" stroke="none" />
<path d="M392.2858192633451,591.7728865323262 A141.5083299111539,141.5083299111539,0,0,0,404.0385106709781,604.0" stroke="grey" stroke-width="5" fill="none" />
<circle cx="284.03851067097816" cy="684.0" r="5" fill="black" stroke="none" />
<circle cx="404.03851067097816" cy="604.0" r="5" fill="black" stroke="none" />
<path d="M404.03851067097816,604.0 L427.2384700758669,578.8566243085733" stroke="grey" stroke-width="5" />
<circle cx="427.2384700758669" cy="578.8566243085733" r="2.5" fill="grey" stroke="none" />
<path d="M427.2384700758669,578.8566243085733 A107.29681931093751,107.29681931093751,0,0,1,404.03851067097816,548.0" stroke="grey" stroke-width="5" fill="none" />
<circle cx="404.03851067097816" cy="604.0" r="5" fill="black" stroke="none" />
<circle cx="404.03851067097816" cy="548.0" r="5" fill="black" stroke="none" />
<path d="M404.03851067097816,548.0 A107.29681931093751,107.29681931093751,0,0,1,395.667029811541,525.0447352930332" stroke="grey" stroke-width="5" fill="none" />
<path d="M395.667029811541,525.0447352930332 L-199.96148932902184,48.0" stroke="grey" stroke-width="5" />
<circle cx="395.667029811541" cy="525.0447352930332" r="2.5" fill="grey" stroke="none" />
<circle cx="404.03851067097816" cy="548.0" r="5" fill="black" stroke="none" />
<circle cx="300.03851067097816" cy="548.0" r="5" fill="black" stroke="none" />
<path d="M300.03851067097816,548.0 L335.2009330568679,539.5593933602606" stroke="grey" stroke-width="5" />
<circle cx="335.2009330568679" cy="539.5593933602606" r="2.5" fill="grey" stroke="none" />
<path d="M335.2009330568679,539.5593933602606 A169.4806126622121,169.4806126622121,0,0,1,340.0385106709781,444.00000000000006" stroke="grey" stroke-width="5" fill="none" />
<circle cx="300.03851067097816" cy="548.0" r="5" fill="black" stroke="none" />
<circle cx="340.03851067097816" cy="444.0" r="5" fill="black" stroke="none" />
<path d="M340.03851067097816,444.0 L356.7476290693404,449.8495993894108" stroke="grey" stroke-width="5" />
<circle cx="356.7476290693404" cy="449.8495993894108" r="2.5" fill="grey" stroke="none" />
<path d="M356.7476290693404,449.84959938941086 A151.77715394175064,151.77715394175064,0,0,1,452.03851067097816,356.0" stroke="grey" stroke-width="5" fill="none" />
<circle cx="340.03851067097816" cy="444.0" r="5" fill="black" stroke="none" />
<circle cx="452.03851067097816" cy="356.0" r="5" fill="black" stroke="none" />
<path d="M452.03851067097816,356.0 L462.0800702451714,386.1488673290395" stroke="grey" stroke-width="5" />
<circle cx="462.0800702451714" cy="386.1488673290395" r="2.5" fill="grey" stroke="none" />
<path d="M462.0800702451714,386.1488673290395 A120.00000617946559,120.00000617946559,0,0,1,500.03851067097816,380.0" stroke="grey" stroke-width="5" fill="none" />
<circle cx="452.03851067097816" cy="356.0" r="5" fill="black" stroke="none" />
<circle cx="500.03851067097816" cy="380.0" r="5" fill="black" stroke="none" />
<path d="M500.03851067097816,380.0 A120.00000617946559,120.00000617946559,0,0,0,452.7617280109185,389.6888621101326" stroke="grey" stroke-width="5" fill="none" />
<path d="M452.7617280109185,389.6888621101326 L-47.961489329021845,-112.0" stroke="grey" stroke-width="5" />
<circle cx="452.7617280109185" cy="389.6888621101326" r="2.5" fill="grey" stroke="none" />
<circle cx="500.03851067097816" cy="380.0" r="5" fill="black" stroke="none" />
<circle cx="452.03851067097816" cy="388.0" r="5" fill="black" stroke="none" />
<path d="M452.03851067097816,356.0 L461.499516605649,384.40580794408754" stroke="grey" stroke-width="5" />
<circle cx="461.499516605649" cy="384.40580794408754" r="2.5" fill="grey" stroke="none" />
<path d="M461.499516605649,384.40580794408754 A121.83720473918414,121.83720473918414,0,0,0,452.03851067097816,388.0" stroke="grey" stroke-width="5" fill="none" />
<circle cx="452.03851067097816" cy="356.0" r="5" fill="black" stroke="none" />
<circle cx="452.03851067097816" cy="388.0" r="5" fill="black" stroke="none" />
<path d="M452.03851067097816,388.0 L462.2245441669204,411.7864955301796" stroke="grey" stroke-width="5" />
<circle cx="462.2245441669204" cy="411.7864955301796" r="2.5" fill="grey" stroke="none" />
<path d="M462.2245441669204,411.7864955301796 A95.96148932902184,95.96148932902184,0,0,0,404.03851067097816,500.0" stroke="grey" stroke-width="5" fill="none" />
<circle cx="452.03851067097816" cy="388.0" r="5" fill="black" stroke="none" />
<circle cx="404.03851067097816" cy="500.0" r="5" fill="black" stroke="none" />
<path d="M340.03851067097816,444.0 L409.42832628357684,468.29228241500573" stroke="grey" stroke-width="5" />
<circle cx="409.42832628357684" cy="468.29228241500573" r="2.5" fill="grey" stroke="none" />
<path d="M409.42832628357684,468.2922824150058 A95.96148932902184,95.96148932902184,0,0,0,404.03851067097816,500.0" stroke="grey" stroke-width="5" fill="none" />
<circle cx="340.03851067097816" cy="444.0" r="5" fill="black" stroke="none" />
<circle cx="404.03851067097816" cy="500.0" r="5" fill="black" stroke="none" />
<path d="M404.03851067097816,500.0 A95.96148932902184,95.96148932902184,0,0,0,414.176324206236,542.9290590100793" stroke="grey" stroke-width="5" fill="none" />
<path d="M414.176324206236,542.9290590100793 L-95.96148932902184,48.0" stroke="grey" stroke-width="5" />
<circle cx="414.176324206236" cy="542.9290590100793" r="2.5" fill="grey" stroke="none" />
<circle cx="404.03851067097816" cy="500.0" r="5" fill="black" stroke="none" />
<circle cx="404.03851067097816" cy="548.0" r="5" fill="black" stroke="none" />
<path d="M500.03851067097816,380.0 A120.00000617946559,120.00000617946559,0,0,1,529.1306466202956,383.58948969034094" stroke="grey" stroke-width="5" fill="none" />
<path d="M529.1306466202956,383.58948969034094 L40.038510670978155,-160.0" stroke="grey" stroke-width="5" />
<circle cx="529.1306466202956" cy="383.58948969034094" r="2.5" fill="grey" stroke="none" />
<circle cx="500.03851067097816" cy="380.0" r="5" fill="black" stroke="none" />
<circle cx="540.0385106709782" cy="340.0" r="5" fill="black" stroke="none" />
<path d="M500.03851067097816,380.0 L500.02367809993694,426.21857993482865" stroke="grey" stroke-width="5" />
<circle cx="500.02367809993694" cy="426.21857993482865" r="2.5" fill="grey" stroke="none" />
<path d="M500.02367809993694,426.21857993482865 A73.78142386458588,73.78142386458588,0,0,1,548.0385106709782,444.0" stroke="grey" stroke-width="5" fill="none" />
<circle cx="500.03851067097816" cy="380.0" r="5" fill="black" stroke="none" />
<circle cx="548.0385106709782" cy="444.0" r="5" fill="black" stroke="none" />
<path d="M452.03851067097816,388.0 L477.9554689943277,448.521459463076" stroke="grey" stroke-width="5" />
<circle cx="477.9554689943277" cy="448.521459463076" r="2.5" fill="grey" stroke="none" />
<path d="M477.9554689943277,448.521459463076 A56.00001324171075,56.00001324171075,0,0,1,500.03851067097816,444.0" stroke="grey" stroke-width="5" fill="none" />
<circle cx="452.03851067097816" cy="388.0" r="5" fill="black" stroke="none" />
<circle cx="500.03851067097816" cy="444.0" r="5" fill="black" stroke="none" />
<path d="M404.03851067097816,500.0 L452.03851067097816,500.0" stroke="grey" stroke-width="5" />
<circle cx="452.03851067097816" cy="500.0" r="2.5" fill="grey" stroke="none" />
<path d="M452.03851067097816,500.0 A47.961489329021845,47.961489329021845,0,0,1,452.03851067097816,500.0" stroke="grey" stroke-width="5" fill="none" />
<circle cx="404.03851067097816" cy="500.0" r="5" fill="black" stroke="none" />
<circle cx="452.03851067097816" cy="500.0" r="5" fill="black" stroke="none" />
<path d="M404.03851067097816,548.0 L457.0709271733266,521.473150428243" stroke="grey" stroke-width="5" />
<circle cx="457.0709271733266" cy="521.473150428243" r="2.5" fill="grey" stroke="none" />
<path d="M457.0709271733266,521.473150428243 A48.00001544866188,48.00001544866188,0,0,0,500.03851067097816,548.0" stroke="grey" stroke-width="5" fill="none" />
<circle cx="404.03851067097816" cy="548.0" r="5" fill="black" stroke="none" />
<circle cx="500.03851067097816" cy="548.0" r="5" fill="black" stroke="none" />
<path d="M404.03851067097816,604.0 L429.47414770067405,576.4336682393658" stroke="grey" stroke-width="5" />
<circle cx="429.47414770067405" cy="576.4336682393658" r="2.5" fill="grey" stroke="none" />
<path d="M429.47414770067405,576.4336682393658 A104.00000713015254,104.00000713015254,0,0,0,500.03851067097816,604.0" stroke="grey" stroke-width="5" fill="none" />
<circle cx="404.03851067097816" cy="604.0" r="5" fill="black" stroke="none" />
<circle cx="500.03851067097816" cy="604.0" r="5" fill="black" stroke="none" />
<path d="M548.0385106709782,444.0 L536.4611726472533,457.49606639075665" stroke="grey" stroke-width="5" />
<circle cx="536.4611726472533" cy="457.49606639075665" r="2.5" fill="grey" stroke="none" />
<path d="M536.4611726472533,457.49606639075665 A56.00001324171075,56.00001324171075,0,0,0,500.03851067097816,444.0" stroke="grey" stroke-width="5" fill="none" />
<circle cx="548.0385106709782" cy="444.0" r="5" fill="black" stroke="none" />
<circle cx="500.03851067097816" cy="444.0" r="5" fill="black" stroke="none" />
<path d="M500.03851067097816,444.0 L500.032982655329,452.03852201190705" stroke="grey" stroke-width="5" />
<circle cx="500.032982655329" cy="452.03852201190705" r="2.5" fill="grey" stroke="none" />
<path d="M500.032982655329,452.03852201190705 A47.961489329021845,47.961489329021845,0,0,0,452.03851067097816,500.0" stroke="grey" stroke-width="5" fill="none" />
<circle cx="500.03851067097816" cy="444.0" r="5" fill="black" stroke="none" />
<circle cx="452.03851067097816" cy="500.0" r="5" fill="black" stroke="none" />
<path d="M452.03851067097816,500.0 A47.961489329021845,47.961489329021845,0,0,0,500.0384797612648,547.9614738927595" stroke="grey" stroke-width="5" fill="none" />
<path d="M500.03847976126485,547.9614738927595 L0.038510670978155304,48.0" stroke="grey" stroke-width="5" />
<circle cx="500.03847976126485" cy="547.9614738927595" r="2.5" fill="grey" stroke="none" />
<circle cx="452.03851067097816" cy="500.0" r="5" fill="black" stroke="none" />
<circle cx="500.03851067097816" cy="548.0" r="5" fill="black" stroke="none" />
<path d="M500.03851067097816,548.0 A48.00001544866188,48.00001544866188,0,0,1,500.01777416033804,548.0000121578214" stroke="grey" stroke-width="5" fill="none" />
<path d="M500.01777416033804,548.0000121578214 L0.038510670978155304,104.0" stroke="grey" stroke-width="5" />
<circle cx="500.01777416033804" cy="548.0000121578214" r="2.5" fill="grey" stroke="none" />
<circle cx="500.03851067097816" cy="548.0" r="5" fill="black" stroke="none" />
<circle cx="500.03851067097816" cy="604.0" r="5" fill="black" stroke="none" />
<path d="M500.03851067097816,604.0 A104.00000713015254,104.00000713015254,0,0,0,537.9151116223837,596.8423760227616" stroke="grey" stroke-width="5" fill="none" />
<path d="M537.9151116223837,596.8423760227616 L72.03851067097816,184.0" stroke="grey" stroke-width="5" />
<circle cx="537.9151116223837" cy="596.8423760227616" r="2.5" fill="grey" stroke="none" />
<circle cx="500.03851067097816" cy="604.0" r="5" fill="black" stroke="none" />
<circle cx="572.0385106709782" cy="684.0" r="5" fill="black" stroke="none" />
<path d="M548.0385106709782,444.0 L526.0587407090763,469.62250787283693" stroke="grey" stroke-width="5" />
<circle cx="526.0587407090763" cy="469.62250787283693" r="2.5" fill="grey" stroke="none" />
<path d="M526.0587407090763,469.62250787283693 A40.02311826030964,40.02311826030964,0,0,0,524.0385106709782,468.0" stroke="grey" stroke-width="5" fill="none" />
<circle cx="548.0385106709782" cy="444.0" r="5" fill="black" stroke="none" />
<circle cx="524.0385106709782" cy="468.0" r="5" fill="black" stroke="none" />
<path d="M524.0385106709782,468.0 L500.0231301111831,499.96920925892664" stroke="grey" stroke-width="5" />
<circle cx="500.0231301111831" cy="499.96920925892664" r="2.5" fill="grey" stroke="none" />
<path d="M500.0231301111831,499.96920925892664 A0.038510670978155304,0.038510670978155304,0,0,1,500.03851067097816,500.0" stroke="grey" stroke-width="5" fill="none" />
<circle cx="524.0385106709782" cy="468.0" r="5" fill="black" stroke="none" />
<circle cx="500.03851067097816" cy="500.0" r="5" fill="black" stroke="none" />
<path d="M500.03851067097816,500.0 A0.038510670978155304,0.038510670978155304,0,0,1,500.00003089731877,500.0385106585836" stroke="grey" stroke-width="5" fill="none" />
<path d="M500.00003089731877,500.0385106585836 L0.038510670978155304,48.0" stroke="grey" stroke-width="5" />
<circle cx="500.00003089731877" cy="500.0385106585836" r="2.5" fill="grey" stroke="none" />
<circle cx="500.03851067097816" cy="500.0" r="5" fill="black" stroke="none" />
<circle cx="500.03851067097816" cy="548.0" r="5" fill="black" stroke="none" />
<path d="M500.03851067097816,444.0 L500.02752351382827,459.9768912035195" stroke="grey" stroke-width="5" />
<circle cx="500.02752351382827" cy="459.9768912035195" r="2.5" fill="grey" stroke="none" />
<path d="M500.02752351382827,459.9768912035195 A40.02311826030964,40.02311826030964,0,0,1,524.0385106709782,468.0" stroke="grey" stroke-width="5" fill="none" />
<circle cx="500.03851067097816" cy="444.0" r="5" fill="black" stroke="none" />
<circle cx="524.0385106709782" cy="468.0" r="5" fill="black" stroke="none" />
<path d="M452.03851067097816,500.0 L500.03851067097816,500.0" stroke="grey" stroke-width="5" />
<circle cx="452.03851067097816" cy="500.0" r="5" fill="black" stroke="none" />
<circle cx="500.03851067097816" cy="500.0" r="5" fill="black" stroke="none" />
<path d="M548.0385106709782,444.0 L531.277500305783,463.5388359743215" stroke="grey" stroke-width="5" />
<circle cx="531.277500305783" cy="463.5388359743215" r="2.5" fill="grey" stroke="none" />
<path d="M531.277500305783,463.5388359743215 A48.038510670978155,48.038510670978155,0,0,1,548.0385106709782,500.0" stroke="grey" stroke-width="5" fill="none" />
<circle cx="548.0385106709782" cy="444.0" r="5" fill="black" stroke="none" />
<circle cx="548.0385106709782" cy="500.0" r="5" fill="black" stroke="none" />
<path d="M524.0385106709782,468.0 A40.02311826030964,40.02311826030964,0,0,1,540.0231182603096,500.0" stroke="grey" stroke-width="5" fill="none" />
<path d="M540.0231182603096,500.0 L48.038510670978155,0.0" stroke="grey" stroke-width="5" />
<circle cx="540.0231182603096" cy="500.0" r="2.5" fill="grey" stroke="none" />
<circle cx="524.0385106709782" cy="468.0" r="5" fill="black" stroke="none" />
<circle cx="548.0385106709782" cy="500.0" r="5" fill="black" stroke="none" />
<path d="M500.03851067097816,500.0 A0.038510670978155304,0.038510670978155304,0,0,1,500.03851067097816,500.0" stroke="grey" stroke-width="5" fill="none" />
<path d="M500.03851067097816,500.0 L48.038510670978155,0.0" stroke="grey" stroke-width="5" />
<circle cx="500.03851067097816" cy="500.0" r="2.5" fill="grey" stroke="none" />
<circle cx="500.03851067097816" cy="500.0" r="5" fill="black" stroke="none" />
<circle cx="548.0385106709782" cy="500.0" r="5" fill="black" stroke="none" />
<path d="M500.03851067097816,548.0 A48.00001544866188,48.00001544866188,0,0,0,548.0000154486619,500.0" stroke="grey" stroke-width="5" fill="none" />
<path d="M548.0000154486619,500.0 L48.038510670978155,0.0" stroke="grey" stroke-width="5" />
<circle cx="548.0000154486619" cy="500.0" r="2.5" fill="grey" stroke="none" />
<circle cx="500.03851067097816" cy="548.0" r="5" fill="black" stroke="none" />
<circle cx="548.0385106709782" cy="500.0" r="5" fill="black" stroke="none" />
<path d="M548.0385106709782,500.0 A48.038510670978155,48.038510670978155,0,0,1,526.6617666725534,539.9605894023599" stroke="grey" stroke-width="5" fill="none" />
<path d="M526.6617666725534,539.9605894023599 L48.038510670978155,72.0" stroke="grey" stroke-width="5" />
<circle cx="526.6617666725534" cy="539.9605894023599" r="2.5" fill="grey" stroke="none" />
<circle cx="548.0385106709782" cy="500.0" r="5" fill="black" stroke="none" />
<circle cx="548.0385106709782" cy="572.0" r="5" fill="black" stroke="none" />
<path d="M548.0385106709782,572.0 A86.55459841906541,86.55459841906541,0,0,1,500.03205072531574,586.5545924849554" stroke="grey" stroke-width="5" fill="none" />
<path d="M500.03205072531574,586.5545924849554 L0.038510670978155304,104.0" stroke="grey" stroke-width="5" />
<circle cx="500.03205072531574" cy="586.5545924849554" r="2.5" fill="grey" stroke="none" />
<circle cx="548.0385106709782" cy="572.0" r="5" fill="black" stroke="none" />
<circle cx="500.03851067097816" cy="604.0" r="5" fill="black" stroke="none" />
<path d="M548.0385106709782,444.0 A73.78142386458588,73.78142386458588,0,0,1,550.8236821550724,446.5149381632043" stroke="grey" stroke-width="5" fill="none" />
<path d="M550.8236821550724,446.5149381632043 L152.03851067097816,-160.0" stroke="grey" stroke-width="5" />
<circle cx="550.8236821550724" cy="446.5149381632043" r="2.5" fill="grey" stroke="none" />
<circle cx="548.0385106709782" cy="444.0" r="5" fill="black" stroke="none" />
<circle cx="652.0385106709782" cy="340.0" r="5" fill="black" stroke="none" />
<path d="M548.0385106709782,444.0 A73.78142386458588,73.78142386458588,0,0,1,572.5918309833514,486.80437261930206" stroke="grey" stroke-width="5" fill="none" />
<path d="M572.5918309833514,486.80437261930206 L176.03851067097816,-32.0" stroke="grey" stroke-width="5" />
<circle cx="572.5918309833514" cy="486.80437261930206" r="2.5" fill="grey" stroke="none" />
<circle cx="548.0385106709782" cy="444.0" r="5" fill="black" stroke="none" />
<circle cx="676.0385106709782" cy="468.0" r="5" fill="black" stroke="none" />
<path d="M676.0385106709782,468.0 A178.92332782299823,178.92332782299823,0,0,1,677.623607018533,478.4730060393504" stroke="grey" stroke-width="5" fill="none" />
<path d="M677.623607018533,478.4730060393504 L264.03851067097816,-32.0" stroke="grey" stroke-width="5" />
<circle cx="677.623607018533" cy="478.4730060393504" r="2.5" fill="grey" stroke="none" />
<circle cx="676.0385106709782" cy="468.0" r="5" fill="black" stroke="none" />
<circle cx="764.0385106709782" cy="468.0" r="5" fill="black" stroke="none" />
<path d="M548.0385106709782,500.0 A48.038510670978155,48.038510670978155,0,0,1,535.2079108012398,532.6818225394121" stroke="grey" stroke-width="5" fill="none" />
<path d="M535.2079108012398,532.6818225394121 L112.03851067097816,104.0" stroke="grey" stroke-width="5" />
<circle cx="535.2079108012398" cy="532.6818225394121" r="2.5" fill="grey" stroke="none" />
<circle cx="548.0385106709782" cy="500.0" r="5" fill="black" stroke="none" />
<circle cx="612.0385106709782" cy="604.0" r="5" fill="black" stroke="none" />
<circle cx="500" cy="500" r="5" fill="red" stroke="none" />
</svg>