<?xml version="1.0" encoding="UTF-8"?>
<svg xmlns="http://www.w3.org/2000/svg" xmlns:xlink="http://www.w3.org/1999/xlink"
     width="1000" height="1000" viewBox="0 0 1000 1000">
<defs>
</defs>
<rect x="0" y="0" width="1000" height="1000" fill="white" />
<path d="M278.8743447052877,809.1256552947123 L354.2888740135484,703.6988753939912" stroke="grey" stroke-width="5" />
<circle cx="354.2888740135484" cy="703.6988753939912" r="2.5" fill="grey" stroke="none" />
<path d="M354.2888740135484,703.6988753939912 A250.4495240023752,250.4495240023752,0,0,0,398.8743447052876,729.1256552947123" stroke="grey" stroke-width="5" fill="none" />
<circle cx="278.8743447052877" cy="809.1256552947123" r="5" fill="black" stroke="none" />
<circle cx="398.8743447052877" cy="729.1256552947123" r="5" fill="black" stroke="none" />
<path d="M398.8743447052877,729.1256552947123 L419.04416202770176,683.4258514446956" stroke="grey" stroke-width="5" />
<circle cx="419.04416202770176" cy="683.4258514446956" r="2.5" fill="grey" stroke="none" />
<path d="M419.0441620277017,683.4258514446956 A200.4966101459287,200.4966101459287,0,0,1,398.8743447052878,673.1256552947124" stroke="grey" stroke-width="5" fill="none" />
<circle cx="398.8743447052877" cy="729.1256552947123" r="5" fill="black" stroke="none" />
<circle cx="398.8743447052877" cy="673.1256552947123" r="5" fill="black" stroke="none" />
<path d="M398.8743447052878,673.1256552947124 A200.4966101459287,200.4966101459287,0,0,1,346.780882813433,629.3166377871678" stroke="grey" stroke-width="5" fill="none" />
<path d="M346.78088281343287,629.3166377871678 L-205.12565529471232,173.12565529471232" stroke="grey" stroke-width="5" />
<circle cx="346.78088281343287" cy="629.3166377871678" r="2.5" fill="grey" stroke="none" />
<circle cx="398.8743447052877" cy="673.1256552947123" r="5" fill="black" stroke="none" />
<circle cx="294.8743447052877" cy="673.1256552947123" r="5" fill="black" stroke="none" />
<path d="M294.8743447052877,673.1256552947123 L363.20035720982315,615.4586332368071" stroke="grey" stroke-width="5" />
<circle cx="363.20035720982315" cy="615.4586332368071" r="2.5" fill="grey" stroke="none" />
<path d="M363.2003572098232,615.4586332368073 A179.01072106561534,179.01072106561534,0,0,1,334.87434470528774,569.1256552947124" stroke="grey" stroke-width="5" fill="none" />
<circle cx="294.8743447052877" cy="673.1256552947123" r="5" fill="black" stroke="none" />
<circle cx="334.8743447052877" cy="569.1256552947123" r="5" fill="black" stroke="none" />
<path d="M334.8743447052877,569.1256552947123 L447.9941951955083,521.7709073119088" stroke="grey" stroke-width="5" />
<circle cx="447.9941951955083" cy="521.7709073119088" r="2.5" fill="grey" stroke="none" />
<path d="M447.9941951955083,521.7709073119088 A56.378862515544036,56.378862515544036,0,0,1,446.8743447052877,481.1256552947123" stroke="grey" stroke-width="5" fill="none" />
<circle cx="334.8743447052877" cy="569.1256552947123" r="5" fill="black" stroke="none" />
<circle cx="446.8743447052877" cy="481.1256552947123" r="5" fill="black" stroke="none" />
<path d="M446.8743447052877,481.1256552947123 L493.1695017477057,497.5732783377921" stroke="grey" stroke-width="5" />
<circle cx="493.1695017477057" cy="497.5732783377921" r="2.5" fill="grey" stroke="none" />
<path d="M493.1695017477057,497.5732783377921 A7.248771233831612,7.248771233831612,0,0,0,494.8743447052877,505.1256552947123" stroke="grey" stroke-width="5" fill="none" />
<circle cx="446.8743447052877" cy="481.1256552947123" r="5" fill="black" stroke="none" />
<circle cx="494.8743447052877" cy="505.1256552947123" r="5" fill="black" stroke="none" />
<path d="M494.8743447052877,505.1256552947123 A7.248771233831612,7.248771233831612,0,0,1,492.9628311277073,501.7386600194574" stroke="grey" stroke-width="5" fill="none" />
<path d="M492.9628311277073,501.7386600194574 L-53.12565529471232,13.125655294712303" stroke="grey" stroke-width="5" />
<circle cx="492.9628311277073" cy="501.7386600194574" r="2.5" fill="grey" stroke="none" />
<circle cx="494.8743447052877" cy="505.1256552947123" r="5" fill="black" stroke="none" />
<circle cx="446.8743447052877" cy="513.1256552947123" r="5" fill="black" stroke="none" />
<path d="M446.8743447052877,481.1256552947123 L448.43456193423714,481.67996521580335" stroke="grey" stroke-width="5" />
<circle cx="448.43456193423714" cy="481.67996521580335" r="2.5" fill="grey" stroke="none" />
<path d="M448.43456193423714,481.67996521580335 A54.72310368946743,54.72310368946743,0,0,0,446.8743447052877,513.1256552947123" stroke="grey" stroke-width="5" fill="none" />
<circle cx="446.8743447052877" cy="481.1256552947123" r="5" fill="black" stroke="none" />
<circle cx="446.8743447052877" cy="513.1256552947123" r="5" fill="black" stroke="none" />
<path d="M446.8743447052877,513.1256552947123 A54.72310368946743,54.72310368946743,0,0,0,465.6025531247024,542.5609413179418" stroke="grey" stroke-width="5" fill="none" />
<path d="M465.6025531247024,542.5609413179418 L-101.12565529471232,125.1256552947123" stroke="grey" stroke-width="5" />
<circle cx="465.6025531247024" cy="542.5609413179418" r="2.5" fill="grey" stroke="none" />
<circle cx="446.8743447052877" cy="513.1256552947123" r="5" fill="black" stroke="none" />
<circle cx="398.8743447052877" cy="625.1256552947123" r="5" fill="black" stroke="none" />
<path d="M334.8743447052877,569.1256552947123 L351.5974466065636,562.12495406859" stroke="grey" stroke-width="5" />
<circle cx="351.5974466065636" cy="562.12495406859" r="2.5" fill="grey" stroke="none" />
<path d="M351.59744660656366,562.12495406859 A160.8814090307396,160.8814090307396,0,0,0,398.8743447052877,625.1256552947123" stroke="grey" stroke-width="5" fill="none" />
<circle cx="334.8743447052877" cy="569.1256552947123" r="5" fill="black" stroke="none" />
<circle cx="398.8743447052877" cy="625.1256552947123" r="5" fill="black" stroke="none" />
<path d="M398.8743447052877,625.1256552947123 A160.8814090307396,160.8814090307396,0,0,0,418.8552968495137,638.918554996572" stroke="grey" stroke-width="5" fill="none" />
<path d="M418.8552968495136,638.918554996572 L-101.12565529471232,173.12565529471232" stroke="grey" stroke-width="5" />
<circle cx="418.8552968495136" cy="638.918554996572" r="2.5" fill="grey" stroke="none" />
<circle cx="398.8743447052877" cy="625.1256552947123" r="5" fill="black" stroke="none" />
<circle cx="398.8743447052877" cy="673.1256552947123" r="5" fill="black" stroke="none" />
<path d="M494.8743447052877,505.1256552947123 L534.8743447052877,465.1256552947123" stroke="grey" stroke-width="5" />
<circle cx="494.8743447052877" cy="505.1256552947123" r="5" fill="black" stroke="none" />
<circle cx="534.8743447052877" cy="465.1256552947123" r="5" fill="black" stroke="none" />
<path d="M494.8743447052877,505.1256552947123 A7.248771233831612,7.248771233831612,0,0,0,503.8207232057926,506.16009404028404" stroke="grey" stroke-width="5" fill="none" />
<path d="M503.8207232057926,506.16009404028404 L42.87434470528768,69.1256552947123" stroke="grey" stroke-width="5" />
<circle cx="503.8207232057926" cy="506.16009404028404" r="2.5" fill="grey" stroke="none" />
<circle cx="494.8743447052877" cy="505.1256552947123" r="5" fill="black" stroke="none" />
<circle cx="542.8743447052877" cy="569.1256552947123" r="5" fill="black" stroke="none" />
<path d="M446.8743447052877,513.1256552947123 A54.72310368946743,54.72310368946743,0,0,0,495.9534006473613,554.5732820259825" stroke="grey" stroke-width="5" fill="none" />
<path d="M495.9534006473613,554.5732820259825 L-5.125655294712317,69.1256552947123" stroke="grey" stroke-width="5" />
<circle cx="495.9534006473613" cy="554.5732820259825" r="2.5" fill="grey" stroke="none" />
<circle cx="446.8743447052877" cy="513.1256552947123" r="5" fill="black" stroke="none" />
<circle cx="494.8743447052877" cy="569.1256552947123" r="5" fill="black" stroke="none" />
<path d="M398.8743447052877,625.1256552947123 L414.5539566340211,605.7248245991593" stroke="grey" stroke-width="5" />
<circle cx="414.5539566340211" cy="605.7248245991593" r="2.5" fill="grey" stroke="none" />
<path d="M414.5539566340211,605.7248245991593 A135.93662075917496,135.93662075917496,0,0,0,446.87434470528774,625.1256552947123" stroke="grey" stroke-width="5" fill="none" />
<circle cx="398.8743447052877" cy="625.1256552947123" r="5" fill="black" stroke="none" />
<circle cx="446.8743447052877" cy="625.1256552947123" r="5" fill="black" stroke="none" />
<path d="M398.8743447052877,673.1256552947123 L412.6413323962095,649.5567720229151" stroke="grey" stroke-width="5" />
<circle cx="412.6413323962095" cy="649.5567720229151" r="2.5" fill="grey" stroke="none" />
<path d="M412.6413323962096,649.5567720229152 A173.20151518801376,173.20151518801376,0,0,0,494.8743447052877,673.1256552947123" stroke="grey" stroke-width="5" fill="none" />
<circle cx="398.8743447052877" cy="673.1256552947123" r="5" fill="black" stroke="none" />
<circle cx="494.8743447052877" cy="673.1256552947123" r="5" fill="black" stroke="none" />
<path d="M398.8743447052877,729.1256552947123 L407.4612774257866,709.6697953467888" stroke="grey" stroke-width="5" />
<circle cx="407.4612774257866" cy="709.6697953467888" r="2.5" fill="grey" stroke="none" />
<path d="M407.46127742578653,709.6697953467888 A229.18297985764897,229.18297985764897,0,0,0,494.87434470528774,729.1256552947123" stroke="grey" stroke-width="5" fill="none" />
<circle cx="398.8743447052877" cy="729.1256552947123" r="5" fill="black" stroke="none" />
<circle cx="494.8743447052877" cy="729.1256552947123" r="5" fill="black" stroke="none" />
<path d="M542.8743447052877,569.1256552947123 L536.5351665581557,558.905094573317" stroke="grey" stroke-width="5" />
<circle cx="536.5351665581557" cy="558.905094573317" r="2.5" fill="grey" stroke="none" />
<path d="M536.5351665581557,558.905094573317 A69.31542802380721,69.31542802380721,0,0,1,494.8743447052877,569.1256552947123" stroke="grey" stroke-width="5" fill="none" />
<circle cx="542.8743447052877" cy="569.1256552947123" r="5" fill="black" stroke="none" />
<circle cx="494.8743447052877" cy="569.1256552947123" r="5" fill="black" stroke="none" />
<path d="M494.8743447052877,569.1256552947123 A69.31542802380721,69.31542802380721,0,0,1,472.9107026845841,563.8028097585099" stroke="grey" stroke-width="5" fill="none" />
<path d="M472.9107026845841,563.8028097585099 L-53.12565529471232,125.1256552947123" stroke="grey" stroke-width="5" />
<circle cx="472.9107026845841" cy="563.8028097585099" r="2.5" fill="grey" stroke="none" />
<circle cx="494.8743447052877" cy="569.1256552947123" r="5" fill="black" stroke="none" />
<circle cx="446.8743447052877" cy="625.1256552947123" r="5" fill="black" stroke="none" />
<path d="M446.87434470528774,625.1256552947123 A135.93662075917496,135.93662075917496,0,0,0,495.9771468558851,635.8770823796443" stroke="grey" stroke-width="5" fill="none" />
<path d="M495.9771468558851,635.8770823796443 L-5.125655294712317,173.12565529471232" stroke="grey" stroke-width="5" />
<circle cx="495.9771468558851" cy="635.8770823796443" r="2.5" fill="grey" stroke="none" />
<circle cx="446.8743447052877" cy="625.1256552947123" r="5" fill="black" stroke="none" />
<circle cx="494.8743447052877" cy="673.1256552947123" r="5" fill="black" stroke="none" />
<path d="M494.8743447052877,673.1256552947123 A173.20151518801376,173.20151518801376,0,0,0,496.1263647766207,673.158193030477" stroke="grey" stroke-width="5" fill="none" />
<path d="M496.1263647766206,673.158193030477 L-5.125655294712317,229.12565529471232" stroke="grey" stroke-width="5" />
<circle cx="496.1263647766206" cy="673.158193030477" r="2.5" fill="grey" stroke="none" />
<circle cx="494.8743447052877" cy="673.1256552947123" r="5" fill="black" stroke="none" />
<circle cx="494.8743447052877" cy="729.1256552947123" r="5" fill="black" stroke="none" />
<path d="M494.87434470528774,729.1256552947123 A229.18297985764897,229.18297985764897,0,0,0,548.4590531855674,724.0012464715094" stroke="grey" stroke-width="5" fill="none" />
<path d="M548.4590531855674,724.0012464715094 L66.87434470528768,309.1256552947123" stroke="grey" stroke-width="5" />
<circle cx="548.4590531855674" cy="724.0012464715094" r="2.5" fill="grey" stroke="none" />
<circle cx="494.8743447052877" cy="729.1256552947123" r="5" fill="black" stroke="none" />
<circle cx="566.8743447052877" cy="809.1256552947123" r="5" fill="black" stroke="none" />
<path d="M542.8743447052877,569.1256552947123 A81.34227470283344,81.34227470283344,0,0,1,516.1576167328493,579.7213715094363" stroke="grey" stroke-width="5" fill="none" />
<path d="M516.1576167328493,579.7213715094363 L18.874344705287683,93.1256552947123" stroke="grey" stroke-width="5" />
<circle cx="516.1576167328493" cy="579.7213715094363" r="2.5" fill="grey" stroke="none" />
<circle cx="542.8743447052877" cy="569.1256552947123" r="5" fill="black" stroke="none" />
<circle cx="518.8743447052877" cy="593.1256552947123" r="5" fill="black" stroke="none" />
<path d="M518.8743447052877,593.1256552947123 A95.01909577618385,95.01909577618385,0,0,1,496.110893421201,594.9394723607749" stroke="grey" stroke-width="5" fill="none" />
<path d="M496.110893421201,594.9394723607749 L-5.125655294712317,125.1256552947123" stroke="grey" stroke-width="5" />
<circle cx="496.110893421201" cy="594.9394723607749" r="2.5" fill="grey" stroke="none" />
<circle cx="518.8743447052877" cy="593.1256552947123" r="5" fill="black" stroke="none" />
<circle cx="494.8743447052877" cy="625.1256552947123" r="5" fill="black" stroke="none" />
<path d="M494.8743447052877,625.1256552947123 A125.23059512408051,125.23059512408051,0,0,0,496.2939766302799,625.1757458372606" stroke="grey" stroke-width="5" fill="none" />
<path d="M496.2939766302799,625.1757458372606 L-5.125655294712317,173.12565529471232" stroke="grey" stroke-width="5" />
<circle cx="496.2939766302799" cy="625.1757458372606" r="2.5" fill="grey" stroke="none" />
<circle cx="494.8743447052877" cy="625.1256552947123" r="5" fill="black" stroke="none" />
<circle cx="494.8743447052877" cy="673.1256552947123" r="5" fill="black" stroke="none" />
<path d="M494.8743447052877,569.1256552947123 A69.31542802380721,69.31542802380721,0,0,0,513.7686353593339,567.9341831662477" stroke="grey" stroke-width="5" fill="none" />
<path d="M513.7686353593339,567.9341831662477 L18.874344705287683,93.1256552947123" stroke="grey" stroke-width="5" />
<circle cx="513.7686353593339" cy="567.9341831662477" r="2.5" fill="grey" stroke="none" />
<circle cx="494.8743447052877" cy="569.1256552947123" r="5" fill="black" stroke="none" />
<circle cx="518.8743447052877" cy="593.1256552947123" r="5" fill="black" stroke="none" />
<path d="M446.8743447052877,625.1256552947123 L451.0583874179133,615.271074051543" stroke="grey" stroke-width="5" />
<circle cx="451.0583874179133" cy="615.271074051543" r="2.5" fill="grey" stroke="none" />
<path d="M451.05838741791337,615.271074051543 A125.23059512408051,125.23059512408051,0,0,0,494.8743447052877,625.1256552947123" stroke="grey" stroke-width="5" fill="none" />
<circle cx="446.8743447052877" cy="625.1256552947123" r="5" fill="black" stroke="none" />
<circle cx="494.8743447052877" cy="625.1256552947123" r="5" fill="black" stroke="none" />
<path d="M542.8743447052877,569.1256552947123 A81.34227470283344,81.34227470283344,0,0,1,526.3670361842758,576.9502765211946" stroke="grey" stroke-width="5" fill="none" />
<path d="M526.3670361842758,576.9502765211946 L42.87434470528768,125.1256552947123" stroke="grey" stroke-width="5" />
<circle cx="526.3670361842758" cy="576.9502765211946" r="2.5" fill="grey" stroke="none" />
<circle cx="542.8743447052877" cy="569.1256552947123" r="5" fill="black" stroke="none" />
<circle cx="542.8743447052877" cy="625.1256552947123" r="5" fill="black" stroke="none" />
<path d="M518.8743447052877,593.1256552947123 A95.01909577618385,95.01909577618385,0,0,0,530.8003672835638,589.888630745613" stroke="grey" stroke-width="5" fill="none" />
<path d="M530.8003672835638,589.888630745613 L42.87434470528768,125.1256552947123" stroke="grey" stroke-width="5" />
<circle cx="530.8003672835638" cy="589.888630745613" r="2.5" fill="grey" stroke="none" />
<circle cx="518.8743447052877" cy="593.1256552947123" r="5" fill="black" stroke="none" />
<circle cx="542.8743447052877" cy="625.1256552947123" r="5" fill="black" stroke="none" />
<path d="M494.8743447052877,625.1256552947123 A125.23059512408051,125.23059512408051,0,0,0,540.5934017099721,618.468889134423" stroke="grey" stroke-width="5" fill="none" />
<path d="M540.5934017099721,618.468889134423 L42.87434470528768,125.1256552947123" stroke="grey" stroke-width="5" />
<circle cx="540.5934017099721" cy="618.468889134423" r="2.5" fill="grey" stroke="none" />
<circle cx="494.8743447052877" cy="625.1256552947123" r="5" fill="black" stroke="none" />
<circle cx="542.8743447052877" cy="625.1256552947123" r="5" fill="black" stroke="none" />
<path d="M494.8743447052877,673.1256552947123 L496.0857351996642,632.2093702349113" stroke="grey" stroke-width="5" />
<circle cx="496.0857351996642" cy="632.2093702349113" r="2.5" fill="grey" stroke="none" />
<path d="M496.0857351996642,632.2093702349113 A132.26730150282418,132.26730150282418,0,0,0,542.8743447052877,625.1256552947123" stroke="grey" stroke-width="5" fill="none" />
<circle cx="494.8743447052877" cy="673.1256552947123" r="5" fill="black" stroke="none" />
<circle cx="542.8743447052877" cy="625.1256552947123" r="5" fill="black" stroke="none" />
<path d="M542.8743447052877,625.1256552947123 A132.26730150282418,132.26730150282418,0,0,1,528.1106063114413,629.2456299440803" stroke="grey" stroke-width="5" fill="none" />
<path d="M528.1106063114413,629.2456299440803 L42.87434470528768,197.12565529471232" stroke="grey" stroke-width="5" />
<circle cx="528.1106063114413" cy="629.2456299440803" r="2.5" fill="grey" stroke="none" />
<circle cx="542.8743447052877" cy="625.1256552947123" r="5" fill="black" stroke="none" />
<circle cx="542.8743447052877" cy="697.1256552947123" r="5" fill="black" stroke="none" />
<path d="M542.8743447052877,697.1256552947123 A201.7343139113363,201.7343139113363,0,0,1,495.48823147832775,701.6838549663419" stroke="grey" stroke-width="5" fill="none" />
<path d="M495.4882314783277,701.6838549663419 L-5.125655294712317,229.12565529471232" stroke="grey" stroke-width="5" />
<circle cx="495.4882314783277" cy="701.6838549663419" r="2.5" fill="grey" stroke="none" />
<circle cx="542.8743447052877" cy="697.1256552947123" r="5" fill="black" stroke="none" />
<circle cx="494.8743447052877" cy="729.1256552947123" r="5" fill="black" stroke="none" />
<path d="M542.8743447052877,569.1256552947123 A81.34227470283344,81.34227470283344,0,0,0,579.1418790115681,481.20828266630394" stroke="grey" stroke-width="5" fill="none" />
<path d="M579.1418790115681,481.20828266630394 L146.87434470528768,-34.8743447052877" stroke="grey" stroke-width="5" />
<circle cx="579.1418790115681" cy="481.20828266630394" r="2.5" fill="grey" stroke="none" />
<circle cx="542.8743447052877" cy="569.1256552947123" r="5" fill="black" stroke="none" />
<circle cx="646.8743447052877" cy="465.1256552947123" r="5" fill="black" stroke="none" />
<path d="M542.8743447052877,569.1256552947123 A81.34227470283344,81.34227470283344,0,0,0,571.423817801257,538.9256201559342" stroke="grey" stroke-width="5" fill="none" />
<path d="M571.423817801257,538.9256201559342 L170.87434470528768,93.1256552947123" stroke="grey" stroke-width="5" />
<circle cx="571.423817801257" cy="538.9256201559342" r="2.5" fill="grey" stroke="none" />
<circle cx="542.8743447052877" cy="569.1256552947123" r="5" fill="black" stroke="none" />
<circle cx="670.8743447052877" cy="593.1256552947123" r="5" fill="black" stroke="none" />
<path d="M670.8743447052877,593.1256552947123 A194.60326141288346,194.60326141288346,0,0,0,683.1153331192062,565.8726356628699" stroke="grey" stroke-width="5" fill="none" />
<path d="M683.1153331192062,565.8726356628699 L258.8743447052877,93.1256552947123" stroke="grey" stroke-width="5" />
<circle cx="683.1153331192062" cy="565.8726356628699" r="2.5" fill="grey" stroke="none" />
<circle cx="670.8743447052877" cy="593.1256552947123" r="5" fill="black" stroke="none" />
<circle cx="758.8743447052877" cy="593.1256552947123" r="5" fill="black" stroke="none" />
<path d="M542.8743447052877,625.1256552947123 A132.26730150282418,132.26730150282418,0,0,0,555.9120255509996,619.8686132631198" stroke="grey" stroke-width="5" fill="none" />
<path d="M555.9120255509996,619.8686132631198 L106.87434470528768,229.12565529471232" stroke="grey" stroke-width="5" />
<circle cx="555.9120255509996" cy="619.8686132631198" r="2.5" fill="grey" stroke="none" />
<circle cx="542.8743447052877" cy="625.1256552947123" r="5" fill="black" stroke="none" />
<circle cx="606.8743447052877" cy="729.1256552947123" r="5" fill="black" stroke="none" />
<circle cx="500" cy="500" r="5" fill="red" stroke="none" />
</svg>