<?xml version="1.0" encoding="UTF-8"?>
<svg xmlns="http://www.w3.org/2000/svg" xmlns:xlink="http://www.w3.org/1999/xlink"
     width="1000" height="1000" viewBox="0 0 1000 1000">
<defs>
</defs>
<rect x="0" y="0" width="1000" height="1000" fill="white" />
<path d="M338.14624279195743,781.658766818766 L397.38440100383116,678.5722096798736" stroke="grey" stroke-width="5" />
<circle cx="397.38440100383116" cy="678.5722096798736" r="2.5" fill="grey" stroke="none" />
<path d="M397.38440100383116,678.5722096798736 A205.9562944590314,205.9562944590314,0,0,0,458.1462427919574,701.658766818766" stroke="grey" stroke-width="5" fill="none" />
<circle cx="338.14624279195743" cy="781.658766818766" r="5" fill="black" stroke="none" />
<circle cx="458.14624279195743" cy="701.658766818766" r="5" fill="black" stroke="none" />
<path d="M458.14624279195743,701.658766818766 L469.20196643463976,648.390344942319" stroke="grey" stroke-width="5" />
<circle cx="469.20196643463976" cy="648.390344942319" r="2.5" fill="grey" stroke="none" />
<path d="M469.20196643463976,648.390344942319 A151.55267514495893,151.55267514495893,0,0,1,458.14624279195743,645.658766818766" stroke="grey" stroke-width="5" fill="none" />
<circle cx="458.14624279195743" cy="701.658766818766" r="5" fill="black" stroke="none" />
<circle cx="458.14624279195743" cy="645.658766818766" r="5" fill="black" stroke="none" />
<path d="M458.14624279195743,645.658766818766 A151.55267514495893,151.55267514495893,0,0,1,392.76441859804936,607.0922192550844" stroke="grey" stroke-width="5" fill="none" />
<path d="M392.76441859804936,607.0922192550844 L354.14624279195743,645.658766818766" stroke="grey" stroke-width="5" />
<circle cx="392.76441859804936" cy="607.0922192550844" r="2.5" fill="grey" stroke="none" />
<circle cx="458.14624279195743" cy="645.658766818766" r="5" fill="black" stroke="none" />
<circle cx="354.14624279195743" cy="645.658766818766" r="5" fill="black" stroke="none" />
<path d="M354.14624279195743,645.658766818766 L419.50844045990885,580.3839512012412" stroke="grey" stroke-width="5" />
<circle cx="419.50844045990885" cy="580.3839512012412" r="2.5" fill="grey" stroke="none" />
<path d="M419.50844045990885,580.3839512012412 A113.75619002023387,113.75619002023387,0,0,1,394.14624279195743,541.658766818766" stroke="grey" stroke-width="5" fill="none" />
<circle cx="354.14624279195743" cy="645.658766818766" r="5" fill="black" stroke="none" />
<circle cx="394.14624279195743" cy="541.658766818766" r="5" fill="black" stroke="none" />
<path d="M394.14624279195743,541.658766818766 L456.50038626747545,517.11928147839" stroke="grey" stroke-width="5" />
<circle cx="456.50038626747545" cy="517.11928147839" r="2.5" fill="grey" stroke="none" />
<path d="M456.50038626747545,517.11928147839 A46.74704475381501,46.74704475381501,0,0,1,506.14624279195743,453.6587668187661" stroke="grey" stroke-width="5" fill="none" />
<circle cx="394.14624279195743" cy="541.658766818766" r="5" fill="black" stroke="none" />
<circle cx="506.14624279195743" cy="453.6587668187661" r="5" fill="black" stroke="none" />
<path d="M506.14624279195743,453.6587668187661 A46.74704475381501,46.74704475381501,0,0,1,543.2131103208109,482.16987690405324" stroke="grey" stroke-width="5" fill="none" />
<path d="M543.2131103208109,482.16987690405324 L554.1462427919574,477.6587668187661" stroke="grey" stroke-width="5" />
<circle cx="543.2131103208109" cy="482.16987690405324" r="2.5" fill="grey" stroke="none" />
<circle cx="506.14624279195743" cy="453.6587668187661" r="5" fill="black" stroke="none" />
<circle cx="554.1462427919574" cy="477.6587668187661" r="5" fill="black" stroke="none" />
<path d="M554.1462427919574,477.6587668187661 L514.4232728559698,494.04882618818294" stroke="grey" stroke-width="5" />
<circle cx="514.4232728559698" cy="494.04882618818294" r="2.5" fill="grey" stroke="none" />
<path d="M514.4232728559698,494.04882618818294 A15.602796852366344,15.602796852366344,0,0,0,506.14624279195743,485.6587668187661" stroke="grey" stroke-width="5" fill="none" />
<circle cx="554.1462427919574" cy="477.6587668187661" r="5" fill="black" stroke="none" />
<circle cx="506.14624279195743" cy="485.6587668187661" r="5" fill="black" stroke="none" />
<path d="M506.14624279195743,453.6587668187661 L502.05143615373476,484.53265118634215" stroke="grey" stroke-width="5" />
<circle cx="502.05143615373476" cy="484.53265118634215" r="2.5" fill="grey" stroke="none" />
<path d="M502.05143615373476,484.53265118634215 A15.602796852366344,15.602796852366344,0,0,1,506.14624279195743,485.6587668187661" stroke="grey" stroke-width="5" fill="none" />
<circle cx="506.14624279195743" cy="453.6587668187661" r="5" fill="black" stroke="none" />
<circle cx="506.14624279195743" cy="485.6587668187661" r="5" fill="black" stroke="none" />
<path d="M506.14624279195743,485.6587668187661 L458.14624279195743,597.658766818766" stroke="grey" stroke-width="5" />
<circle cx="506.14624279195743" cy="485.6587668187661" r="5" fill="black" stroke="none" />
<circle cx="458.14624279195743" cy="597.658766818766" r="5" fill="black" stroke="none" />
<path d="M394.14624279195743,541.658766818766 L401.13138911370675,538.9097611198865" stroke="grey" stroke-width="5" />
<circle cx="401.13138911370675" cy="538.9097611198865" r="2.5" fill="grey" stroke="none" />
<path d="M401.13138911370675,538.9097611198865 A106.24957284145619,106.24957284145619,0,0,0,458.1462427919574,597.658766818766" stroke="grey" stroke-width="5" fill="none" />
<circle cx="394.14624279195743" cy="541.658766818766" r="5" fill="black" stroke="none" />
<circle cx="458.14624279195743" cy="597.658766818766" r="5" fill="black" stroke="none" />
<path d="M458.1462427919574,597.658766818766 A106.24957284145619,106.24957284145619,0,0,0,470.65743761427456,602.117509574175" stroke="grey" stroke-width="5" fill="none" />
<path d="M470.65743761427456,602.117509574175 L458.14624279195743,645.658766818766" stroke="grey" stroke-width="5" />
<circle cx="470.65743761427456" cy="602.117509574175" r="2.5" fill="grey" stroke="none" />
<circle cx="458.14624279195743" cy="597.658766818766" r="5" fill="black" stroke="none" />
<circle cx="458.14624279195743" cy="645.658766818766" r="5" fill="black" stroke="none" />
<path d="M554.1462427919574,477.6587668187661 A58.57428026483865,58.57428026483865,0,0,0,548.8377681113552,467.66087950414607" stroke="grey" stroke-width="5" fill="none" />
<path d="M548.8377681113552,467.66087950414607 L594.1462427919574,437.6587668187661" stroke="grey" stroke-width="5" />
<circle cx="548.8377681113552" cy="467.66087950414607" r="2.5" fill="grey" stroke="none" />
<circle cx="554.1462427919574" cy="477.6587668187661" r="5" fill="black" stroke="none" />
<circle cx="594.1462427919574" cy="437.6587668187661" r="5" fill="black" stroke="none" />
<path d="M554.1462427919574,477.6587668187661 A58.57428026483865,58.57428026483865,0,0,1,554.2370950071934,522.1197611588493" stroke="grey" stroke-width="5" fill="none" />
<path d="M554.2370950071934,522.1197611588493 L602.1462427919574,541.658766818766" stroke="grey" stroke-width="5" />
<circle cx="554.2370950071934" cy="522.1197611588493" r="2.5" fill="grey" stroke="none" />
<circle cx="554.1462427919574" cy="477.6587668187661" r="5" fill="black" stroke="none" />
<circle cx="602.1462427919574" cy="541.658766818766" r="5" fill="black" stroke="none" />
<path d="M506.14624279195743,485.6587668187661 A15.602796852366344,15.602796852366344,0,0,1,512.3662889287605,509.51431383477706" stroke="grey" stroke-width="5" fill="none" />
<path d="M512.3662889287605,509.51431383477706 L554.1462427919574,541.658766818766" stroke="grey" stroke-width="5" />
<circle cx="512.3662889287605" cy="509.51431383477706" r="2.5" fill="grey" stroke="none" />
<circle cx="506.14624279195743" cy="485.6587668187661" r="5" fill="black" stroke="none" />
<circle cx="554.1462427919574" cy="541.658766818766" r="5" fill="black" stroke="none" />
<path d="M458.14624279195743,597.658766818766 L461.4542145661816,589.940166012243" stroke="grey" stroke-width="5" />
<circle cx="461.4542145661816" cy="589.940166012243" r="2.5" fill="grey" stroke="none" />
<path d="M461.4542145661815,589.940166012243 A97.85198535042512,97.85198535042512,0,0,0,506.14624279195743,597.658766818766" stroke="grey" stroke-width="5" fill="none" />
<circle cx="458.14624279195743" cy="597.658766818766" r="5" fill="black" stroke="none" />
<circle cx="506.14624279195743" cy="597.658766818766" r="5" fill="black" stroke="none" />
<path d="M458.14624279195743,645.658766818766 A151.55267514495893,151.55267514495893,0,0,0,552.8066630014068,642.055164236466" stroke="grey" stroke-width="5" fill="none" />
<path d="M552.8066630014067,642.055164236466 L554.1462427919574,645.658766818766" stroke="grey" stroke-width="5" />
<circle cx="552.8066630014067" cy="642.055164236466" r="2.5" fill="grey" stroke="none" />
<circle cx="458.14624279195743" cy="645.658766818766" r="5" fill="black" stroke="none" />
<circle cx="554.1462427919574" cy="645.658766818766" r="5" fill="black" stroke="none" />
<path d="M458.1462427919574,701.658766818766 A205.9562944590314,205.9562944590314,0,0,0,553.4084217433652,698.9108737957231" stroke="grey" stroke-width="5" fill="none" />
<path d="M553.4084217433654,698.9108737957231 L554.1462427919574,701.658766818766" stroke="grey" stroke-width="5" />
<circle cx="553.4084217433654" cy="698.9108737957231" r="2.5" fill="grey" stroke="none" />
<circle cx="458.14624279195743" cy="701.658766818766" r="5" fill="black" stroke="none" />
<circle cx="554.1462427919574" cy="701.658766818766" r="5" fill="black" stroke="none" />
<path d="M602.1462427919574,541.658766818766 L563.25878561551,525.7991182755704" stroke="grey" stroke-width="5" />
<circle cx="563.25878561551" cy="525.7991182755704" r="2.5" fill="grey" stroke="none" />
<path d="M563.25878561551,525.7991182755704 A68.31740965043922,68.31740965043922,0,0,1,554.1462427919574,541.658766818766" stroke="grey" stroke-width="5" fill="none" />
<circle cx="602.1462427919574" cy="541.658766818766" r="5" fill="black" stroke="none" />
<circle cx="554.1462427919574" cy="541.658766818766" r="5" fill="black" stroke="none" />
<path d="M554.1462427919574,541.658766818766 A68.31740965043922,68.31740965043922,0,0,1,504.2911279227038,568.1825100923758" stroke="grey" stroke-width="5" fill="none" />
<path d="M504.2911279227038,568.1825100923758 L506.14624279195743,597.658766818766" stroke="grey" stroke-width="5" />
<circle cx="504.2911279227038" cy="568.1825100923758" r="2.5" fill="grey" stroke="none" />
<circle cx="554.1462427919574" cy="541.658766818766" r="5" fill="black" stroke="none" />
<circle cx="506.14624279195743" cy="597.658766818766" r="5" fill="black" stroke="none" />
<path d="M506.14624279195743,597.658766818766 A97.85198535042512,97.85198535042512,0,0,0,534.0953190662987,591.7197920559521" stroke="grey" stroke-width="5" fill="none" />
<path d="M534.0953190662987,591.7197920559521 L554.1462427919574,645.658766818766" stroke="grey" stroke-width="5" />
<circle cx="534.0953190662987" cy="591.7197920559521" r="2.5" fill="grey" stroke="none" />
<circle cx="506.14624279195743" cy="597.658766818766" r="5" fill="black" stroke="none" />
<circle cx="554.1462427919574" cy="645.658766818766" r="5" fill="black" stroke="none" />
<path d="M554.1462427919574,645.658766818766 A155.3972070522803,155.3972070522803,0,0,1,540.2974795880306,650.0813282807076" stroke="grey" stroke-width="5" fill="none" />
<path d="M540.2974795880307,650.0813282807076 L554.1462427919574,701.658766818766" stroke="grey" stroke-width="5" />
<circle cx="540.2974795880307" cy="650.0813282807076" r="2.5" fill="grey" stroke="none" />
<circle cx="554.1462427919574" cy="645.658766818766" r="5" fill="black" stroke="none" />
<circle cx="554.1462427919574" cy="701.658766818766" r="5" fill="black" stroke="none" />
<path d="M554.1462427919573,701.658766818766 A208.80151781859985,208.80151781859985,0,0,0,585.3469365330849,690.5622582458778" stroke="grey" stroke-width="5" fill="none" />
<path d="M585.3469365330849,690.5622582458778 L626.1462427919574,781.658766818766" stroke="grey" stroke-width="5" />
<circle cx="585.3469365330849" cy="690.5622582458778" r="2.5" fill="grey" stroke="none" />
<circle cx="554.1462427919574" cy="701.658766818766" r="5" fill="black" stroke="none" />
<circle cx="626.1462427919574" cy="781.658766818766" r="5" fill="black" stroke="none" />
<path d="M602.1462427919574,541.658766818766 L594.5104296565067,538.5446184155861" stroke="grey" stroke-width="5" />
<circle cx="594.5104296565067" cy="538.5446184155861" r="2.5" fill="grey" stroke="none" />
<path d="M594.5104296565067,538.5446184155861 A102.06815822116441,102.06815822116441,0,0,1,578.1462427919574,565.658766818766" stroke="grey" stroke-width="5" fill="none" />
<circle cx="602.1462427919574" cy="541.658766818766" r="5" fill="black" stroke="none" />
<circle cx="578.1462427919574" cy="565.658766818766" r="5" fill="black" stroke="none" />
<path d="M578.1462427919574,565.658766818766 A102.06815822116441,102.06815822116441,0,0,1,549.4927875811651,589.2657431499135" stroke="grey" stroke-width="5" fill="none" />
<path d="M549.4927875811651,589.2657431499134 L554.1462427919574,597.658766818766" stroke="grey" stroke-width="5" />
<circle cx="549.4927875811651" cy="589.2657431499134" r="2.5" fill="grey" stroke="none" />
<circle cx="578.1462427919574" cy="565.658766818766" r="5" fill="black" stroke="none" />
<circle cx="554.1462427919574" cy="597.658766818766" r="5" fill="black" stroke="none" />
<path d="M554.1462427919574,597.6587668187661 A111.66490202855921,111.66490202855921,0,0,1,538.9082597510544,604.6670801550908" stroke="grey" stroke-width="5" fill="none" />
<path d="M538.9082597510544,604.6670801550908 L554.1462427919574,645.658766818766" stroke="grey" stroke-width="5" />
<circle cx="538.9082597510544" cy="604.6670801550908" r="2.5" fill="grey" stroke="none" />
<circle cx="554.1462427919574" cy="597.658766818766" r="5" fill="black" stroke="none" />
<circle cx="554.1462427919574" cy="645.658766818766" r="5" fill="black" stroke="none" />
<path d="M554.1462427919574,541.658766818766 A68.31740965043922,68.31740965043922,0,0,1,552.3057236899746,543.9474655766854" stroke="grey" stroke-width="5" fill="none" />
<path d="M552.3057236899746,543.9474655766854 L578.1462427919574,565.658766818766" stroke="grey" stroke-width="5" />
<circle cx="552.3057236899746" cy="543.9474655766854" r="2.5" fill="grey" stroke="none" />
<circle cx="554.1462427919574" cy="541.658766818766" r="5" fill="black" stroke="none" />
<circle cx="578.1462427919574" cy="565.658766818766" r="5" fill="black" stroke="none" />
<path d="M506.14624279195743,597.658766818766 A97.85198535042512,97.85198535042512,0,0,0,547.44836793126,585.5784050895995" stroke="grey" stroke-width="5" fill="none" />
<path d="M547.44836793126,585.5784050895995 L554.1462427919574,597.658766818766" stroke="grey" stroke-width="5" />
<circle cx="547.44836793126" cy="585.5784050895995" r="2.5" fill="grey" stroke="none" />
<circle cx="506.14624279195743" cy="597.658766818766" r="5" fill="black" stroke="none" />
<circle cx="554.1462427919574" cy="597.658766818766" r="5" fill="black" stroke="none" />
<path d="M602.1462427919574,541.658766818766 A110.31458547886511,110.31458547886511,0,0,1,579.7360015204093,576.2330494661674" stroke="grey" stroke-width="5" fill="none" />
<path d="M579.7360015204093,576.2330494661674 L602.1462427919574,597.658766818766" stroke="grey" stroke-width="5" />
<circle cx="579.7360015204093" cy="576.2330494661674" r="2.5" fill="grey" stroke="none" />
<circle cx="602.1462427919574" cy="541.658766818766" r="5" fill="black" stroke="none" />
<circle cx="602.1462427919574" cy="597.658766818766" r="5" fill="black" stroke="none" />
<path d="M578.1462427919574,565.658766818766 A102.06815822116441,102.06815822116441,0,0,1,573.7754376157936,570.5343443101217" stroke="grey" stroke-width="5" fill="none" />
<path d="M573.7754376157936,570.5343443101217 L602.1462427919574,597.658766818766" stroke="grey" stroke-width="5" />
<circle cx="573.7754376157936" cy="570.5343443101217" r="2.5" fill="grey" stroke="none" />
<circle cx="578.1462427919574" cy="565.658766818766" r="5" fill="black" stroke="none" />
<circle cx="602.1462427919574" cy="597.658766818766" r="5" fill="black" stroke="none" />
<path d="M554.1462427919574,597.6587668187661 A111.66490202855921,111.66490202855921,0,0,0,580.7120179011268,577.1661876172194" stroke="grey" stroke-width="5" fill="none" />
<path d="M580.7120179011268,577.1661876172194 L602.1462427919574,597.658766818766" stroke="grey" stroke-width="5" />
<circle cx="580.7120179011268" cy="577.1661876172194" r="2.5" fill="grey" stroke="none" />
<circle cx="554.1462427919574" cy="597.658766818766" r="5" fill="black" stroke="none" />
<circle cx="602.1462427919574" cy="597.658766818766" r="5" fill="black" stroke="none" />
<path d="M554.1462427919574,645.658766818766 L549.2409017949761,632.4629127095322" stroke="grey" stroke-width="5" />
<circle cx="549.2409017949761" cy="632.4629127095322" r="2.5" fill="grey" stroke="none" />
<path d="M549.2409017949761,632.4629127095322 A141.31910576095376,141.31910576095376,0,0,0,602.1462427919574,597.658766818766" stroke="grey" stroke-width="5" fill="none" />
<circle cx="554.1462427919574" cy="645.658766818766" r="5" fill="black" stroke="none" />
<circle cx="602.1462427919574" cy="597.658766818766" r="5" fill="black" stroke="none" />
<path d="M602.1462427919574,597.658766818766 A141.31910576095376,141.31910576095376,0,0,1,572.8921603166584,621.0694949912909" stroke="grey" stroke-width="5" fill="none" />
<path d="M572.8921603166584,621.0694949912909 L602.1462427919574,669.658766818766" stroke="grey" stroke-width="5" />
<circle cx="572.8921603166584" cy="621.0694949912909" r="2.5" fill="grey" stroke="none" />
<circle cx="602.1462427919574" cy="597.658766818766" r="5" fill="black" stroke="none" />
<circle cx="602.1462427919574" cy="669.658766818766" r="5" fill="black" stroke="none" />
<path d="M602.1462427919574,669.658766818766 A198.03522937845668,198.03522937845668,0,0,1,551.3543374747044,691.2607751147948" stroke="grey" stroke-width="5" fill="none" />
<path d="M551.3543374747045,691.2607751147948 L554.1462427919574,701.658766818766" stroke="grey" stroke-width="5" />
<circle cx="551.3543374747045" cy="691.2607751147948" r="2.5" fill="grey" stroke="none" />
<circle cx="602.1462427919574" cy="669.658766818766" r="5" fill="black" stroke="none" />
<circle cx="554.1462427919574" cy="701.658766818766" r="5" fill="black" stroke="none" />
<path d="M602.1462427919574,541.658766818766 A110.31458547886511,110.31458547886511,0,0,0,605.5918345254211,468.06769267763553" stroke="grey" stroke-width="5" fill="none" />
<path d="M605.5918345254211,468.06769267763553 L706.1462427919574,437.6587668187661" stroke="grey" stroke-width="5" />
<circle cx="605.5918345254211" cy="468.06769267763553" r="2.5" fill="grey" stroke="none" />
<circle cx="602.1462427919574" cy="541.658766818766" r="5" fill="black" stroke="none" />
<circle cx="706.1462427919574" cy="437.6587668187661" r="5" fill="black" stroke="none" />
<path d="M602.1462427919574,541.658766818766 A110.31458547886511,110.31458547886511,0,0,0,606.0819547606854,530.2642799935127" stroke="grey" stroke-width="5" fill="none" />
<path d="M606.0819547606854,530.2642799935127 L730.1462427919574,565.658766818766" stroke="grey" stroke-width="5" />
<circle cx="606.0819547606854" cy="530.2642799935127" r="2.5" fill="grey" stroke="none" />
<circle cx="602.1462427919574" cy="541.658766818766" r="5" fill="black" stroke="none" />
<circle cx="730.1462427919574" cy="565.658766818766" r="5" fill="black" stroke="none" />
<path d="M730.1462427919574,565.658766818766 A239.32899266786652,239.32899266786652,0,0,0,734.3894397285064,548.3731048742226" stroke="grey" stroke-width="5" fill="none" />
<path d="M734.3894397285064,548.3731048742226 L818.1462427919574,565.658766818766" stroke="grey" stroke-width="5" />
<circle cx="734.3894397285064" cy="548.3731048742226" r="2.5" fill="grey" stroke="none" />
<circle cx="730.1462427919574" cy="565.658766818766" r="5" fill="black" stroke="none" />
<circle cx="818.1462427919574" cy="565.658766818766" r="5" fill="black" stroke="none" />
<path d="M602.1462427919574,597.658766818766 A141.31910576095376,141.31910576095376,0,0,1,589.8615296070051,609.0687634007326" stroke="grey" stroke-width="5" fill="none" />
<path d="M589.8615296070051,609.0687634007326 L666.1462427919574,701.658766818766" stroke="grey" stroke-width="5" />
<circle cx="589.8615296070051" cy="609.0687634007326" r="2.5" fill="grey" stroke="none" />
<circle cx="602.1462427919574" cy="597.658766818766" r="5" fill="black" stroke="none" />
<circle cx="666.1462427919574" cy="701.658766818766" r="5" fill="black" stroke="none" />
<circle cx="500" cy="500" r="5" fill="red" stroke="none" />
</svg>