<?xml version="1.0" encoding="UTF-8"?>
<svg xmlns="http://www.w3.org/2000/svg" xmlns:xlink="http://www.w3.org/1999/xlink"
     width="1000" height="1000" viewBox="0 0 1000 1000">
<defs>
</defs>
<rect x="0" y="0" width="1000" height="1000" fill="white" />
<path d="M288.97048779708734,684.0 L395.8263160393121,590.8306977951779" stroke="grey" stroke-width="5" />
<circle cx="395.8263160393121" cy="590.8306977951779" r="2.5" fill="grey" stroke="none" />
<path d="M395.8263160393121,590.8306977951779 A138.21133127171672,138.21133127171672,0,0,0,408.97048779708734,604.0" stroke="grey" stroke-width="5" fill="none" />
<circle cx="288.97048779708734" cy="684.0" r="5" fill="black" stroke="none" />
<circle cx="408.97048779708734" cy="604.0" r="5" fill="black" stroke="none" />
<path d="M408.97048779708734,604.0 L432.22115327080894,577.436425717882" stroke="grey" stroke-width="5" />
<circle cx="432.22115327080894" cy="577.436425717882" r="2.5" fill="grey" stroke="none" />
<path d="M432.2211532708089,577.4364257178819 A102.90953353261409,102.90953353261409,0,0,1,408.97048779708734,548.0" stroke="grey" stroke-width="5" fill="none" />
<circle cx="408.97048779708734" cy="604.0" r="5" fill="black" stroke="none" />
<circle cx="408.97048779708734" cy="548.0" r="5" fill="black" stroke="none" />
<path d="M408.97048779708734,548.0 A102.90953353261409,102.90953353261409,0,0,1,400.0724479409153,524.5938291321042" stroke="grey" stroke-width="5" fill="none" />
<path d="M400.07244794091525,524.5938291321042 L-195.02951220291266,48.0" stroke="grey" stroke-width="5" />
<circle cx="400.07244794091525" cy="524.5938291321042" r="2.5" fill="grey" stroke="none" />
<circle cx="408.97048779708734" cy="548.0" r="5" fill="black" stroke="none" />
<circle cx="304.97048779708734" cy="548.0" r="5" fill="black" stroke="none" />
<path d="M304.97048779708734,548.0 L339.94263820866564,539.3927733254584" stroke="grey" stroke-width="5" />
<circle cx="339.94263820866564" cy="539.3927733254584" r="2.5" fill="grey" stroke="none" />
<path d="M339.9426382086657,539.3927733254584 A164.83370302784877,164.83370302784877,0,0,1,344.97048779708734,444.0" stroke="grey" stroke-width="5" fill="none" />
<circle cx="304.97048779708734" cy="548.0" r="5" fill="black" stroke="none" />
<circle cx="344.97048779708734" cy="444.0" r="5" fill="black" stroke="none" />
<path d="M344.97048779708734,444.0 L358.64771863053534,448.9405104601671" stroke="grey" stroke-width="5" />
<circle cx="358.64771863053534" cy="448.9405104601671" r="2.5" fill="grey" stroke="none" />
<path d="M358.64771863053534,448.9405104601671 A150.29151313504235,150.29151313504235,0,0,1,456.97048779708734,356.0" stroke="grey" stroke-width="5" fill="none" />
<circle cx="344.97048779708734" cy="444.0" r="5" fill="black" stroke="none" />
<circle cx="456.97048779708734" cy="356.0" r="5" fill="black" stroke="none" />
<path d="M456.97048779708734,356.0 L465.61370004883474,384.9248587895305" stroke="grey" stroke-width="5" />
<circle cx="465.61370004883474" cy="384.9248587895305" r="2.5" fill="grey" stroke="none" />
<path d="M465.6137000488348,384.9248587895305 A120.10289650520922,120.10289650520922,0,0,1,504.9704877970874,380.0" stroke="grey" stroke-width="5" fill="none" />
<circle cx="456.97048779708734" cy="356.0" r="5" fill="black" stroke="none" />
<circle cx="504.97048779708734" cy="380.0" r="5" fill="black" stroke="none" />
<path d="M504.97048779708734,380.0 L504.96546007845757,380.1213816953588" stroke="grey" stroke-width="5" />
<circle cx="504.96546007845757" cy="380.1213816953588" r="2.5" fill="grey" stroke="none" />
<path d="M504.9654600784576,380.1213816953588 A119.98141072858165,119.98141072858165,0,0,0,456.97048779708734,388.0" stroke="grey" stroke-width="5" fill="none" />
<circle cx="504.97048779708734" cy="380.0" r="5" fill="black" stroke="none" />
<circle cx="456.97048779708734" cy="388.0" r="5" fill="black" stroke="none" />
<path d="M456.97048779708734,356.0 L465.64848227704465,385.0412589206454" stroke="grey" stroke-width="5" />
<circle cx="465.64848227704465" cy="385.0412589206454" r="2.5" fill="grey" stroke="none" />
<path d="M465.6484822770447,385.0412589206454 A119.98141072858165,119.98141072858165,0,0,0,456.97048779708734,388.0" stroke="grey" stroke-width="5" fill="none" />
<circle cx="456.97048779708734" cy="356.0" r="5" fill="black" stroke="none" />
<circle cx="456.97048779708734" cy="388.0" r="5" fill="black" stroke="none" />
<path d="M456.97048779708734,388.0 L467.3536468493337,415.0259585646169" stroke="grey" stroke-width="5" />
<circle cx="467.3536468493337" cy="415.0259585646169" r="2.5" fill="grey" stroke="none" />
<path d="M467.3536468493337,415.0259585646169 A91.02951220291266,91.02951220291266,0,0,0,408.97048779708734,500.0" stroke="grey" stroke-width="5" fill="none" />
<circle cx="456.97048779708734" cy="388.0" r="5" fill="black" stroke="none" />
<circle cx="408.97048779708734" cy="500.0" r="5" fill="black" stroke="none" />
<path d="M344.97048779708734,444.0 L414.384858110587,469.0739661263215" stroke="grey" stroke-width="5" />
<circle cx="414.384858110587" cy="469.0739661263215" r="2.5" fill="grey" stroke="none" />
<path d="M414.384858110587,469.0739661263215 A91.02951220291266,91.02951220291266,0,0,0,408.97048779708734,500.0" stroke="grey" stroke-width="5" fill="none" />
<circle cx="344.97048779708734" cy="444.0" r="5" fill="black" stroke="none" />
<circle cx="408.97048779708734" cy="500.0" r="5" fill="black" stroke="none" />
<path d="M408.97048779708734,500.0 A91.02951220291266,91.02951220291266,0,0,0,419.4790627510316,542.4588124710044" stroke="grey" stroke-width="5" fill="none" />
<path d="M419.4790627510316,542.4588124710044 L-91.02951220291266,48.0" stroke="grey" stroke-width="5" />
<circle cx="419.4790627510316" cy="542.4588124710044" r="2.5" fill="grey" stroke="none" />
<circle cx="408.97048779708734" cy="500.0" r="5" fill="black" stroke="none" />
<circle cx="408.97048779708734" cy="548.0" r="5" fill="black" stroke="none" />
<path d="M504.9704877970874,380.0 A120.10289650520922,120.10289650520922,0,0,1,532.4975640897927,384.3772769860059" stroke="grey" stroke-width="5" fill="none" />
<path d="M532.4975640897927,384.3772769860059 L44.970487797087344,-160.0" stroke="grey" stroke-width="5" />
<circle cx="532.4975640897927" cy="384.3772769860059" r="2.5" fill="grey" stroke="none" />
<circle cx="504.97048779708734" cy="380.0" r="5" fill="black" stroke="none" />
<circle cx="544.9704877970873" cy="340.0" r="5" fill="black" stroke="none" />
<path d="M504.97048779708734,380.0 L503.1901213060942,422.98249742095123" stroke="grey" stroke-width="5" />
<circle cx="503.1901213060942" cy="422.98249742095123" r="2.5" fill="grey" stroke="none" />
<path d="M503.1901213060942,422.98249742095123 A77.08354284450981,77.08354284450981,0,0,1,552.9704877970873,444.0" stroke="grey" stroke-width="5" fill="none" />
<circle cx="504.97048779708734" cy="380.0" r="5" fill="black" stroke="none" />
<circle cx="552.9704877970873" cy="444.0" r="5" fill="black" stroke="none" />
<path d="M456.97048779708734,388.0 L479.83749482031027,447.51972624099625" stroke="grey" stroke-width="5" />
<circle cx="479.83749482031027" cy="447.51972624099625" r="2.5" fill="grey" stroke="none" />
<path d="M479.83749482031027,447.51972624099625 A56.22015429488783,56.22015429488783,0,0,1,504.97048779708734,444.0" stroke="grey" stroke-width="5" fill="none" />
<circle cx="456.97048779708734" cy="388.0" r="5" fill="black" stroke="none" />
<circle cx="504.97048779708734" cy="444.0" r="5" fill="black" stroke="none" />
<path d="M408.97048779708734,500.0 L456.97048779708734,500.0" stroke="grey" stroke-width="5" />
<circle cx="456.97048779708734" cy="500.0" r="2.5" fill="grey" stroke="none" />
<path d="M456.97048779708734,500.0 A43.029512202912656,43.029512202912656,0,0,1,456.97048779708734,500.0" stroke="grey" stroke-width="5" fill="none" />
<circle cx="408.97048779708734" cy="500.0" r="5" fill="black" stroke="none" />
<circle cx="456.97048779708734" cy="500.0" r="5" fill="black" stroke="none" />
<path d="M408.97048779708734,548.0 L457.3141520042291,522.5083124605763" stroke="grey" stroke-width="5" />
<circle cx="457.3141520042291" cy="522.5083124605763" r="2.5" fill="grey" stroke="none" />
<path d="M457.3141520042291,522.5083124605763 A48.25666533175489,48.25666533175489,0,0,0,504.97048779708734,548.0" stroke="grey" stroke-width="5" fill="none" />
<circle cx="408.97048779708734" cy="548.0" r="5" fill="black" stroke="none" />
<circle cx="504.97048779708734" cy="548.0" r="5" fill="black" stroke="none" />
<path d="M408.97048779708734,604.0 L431.42475884444394,578.3462956967228" stroke="grey" stroke-width="5" />
<circle cx="431.42475884444394" cy="578.3462956967228" r="2.5" fill="grey" stroke="none" />
<path d="M431.4247588444439,578.3462956967228 A104.11870988895797,104.11870988895797,0,0,0,504.97048779708734,604.0" stroke="grey" stroke-width="5" fill="none" />
<circle cx="408.97048779708734" cy="604.0" r="5" fill="black" stroke="none" />
<circle cx="504.97048779708734" cy="604.0" r="5" fill="black" stroke="none" />
<path d="M552.9704877970873,444.0 L538.6335252264528,459.15692864734547" stroke="grey" stroke-width="5" />
<circle cx="538.6335252264528" cy="459.15692864734547" r="2.5" fill="grey" stroke="none" />
<path d="M538.6335252264528,459.15692864734547 A56.22015429488783,56.22015429488783,0,0,0,504.97048779708734,444.0" stroke="grey" stroke-width="5" fill="none" />
<circle cx="552.9704877970873" cy="444.0" r="5" fill="black" stroke="none" />
<circle cx="504.97048779708734" cy="444.0" r="5" fill="black" stroke="none" />
<path d="M504.97048779708734,444.0 L503.80428812410156,457.13898843599895" stroke="grey" stroke-width="5" />
<circle cx="503.80428812410156" cy="457.13898843599895" r="2.5" fill="grey" stroke="none" />
<path d="M503.80428812410156,457.13898843599895 A43.029512202912656,43.029512202912656,0,0,0,456.97048779708734,500.0" stroke="grey" stroke-width="5" fill="none" />
<circle cx="504.97048779708734" cy="444.0" r="5" fill="black" stroke="none" />
<circle cx="456.97048779708734" cy="500.0" r="5" fill="black" stroke="none" />
<path d="M456.97048779708734,500.0 A43.029512202912656,43.029512202912656,0,0,0,504.43208547148527,542.8006488127699" stroke="grey" stroke-width="5" fill="none" />
<path d="M504.43208547148527,542.8006488127699 L4.970487797087344,48.0" stroke="grey" stroke-width="5" />
<circle cx="504.43208547148527" cy="542.8006488127699" r="2.5" fill="grey" stroke="none" />
<circle cx="456.97048779708734" cy="500.0" r="5" fill="black" stroke="none" />
<circle cx="504.97048779708734" cy="548.0" r="5" fill="black" stroke="none" />
<path d="M504.97048779708734,548.0 A48.25666533175489,48.25666533175489,0,0,1,502.30370858816275,548.2016459851925" stroke="grey" stroke-width="5" fill="none" />
<path d="M502.30370858816275,548.2016459851925 L4.970487797087344,104.0" stroke="grey" stroke-width="5" />
<circle cx="502.30370858816275" cy="548.2016459851925" r="2.5" fill="grey" stroke="none" />
<circle cx="504.97048779708734" cy="548.0" r="5" fill="black" stroke="none" />
<circle cx="504.97048779708734" cy="604.0" r="5" fill="black" stroke="none" />
<path d="M504.97048779708734,604.0 A104.11870988895797,104.11870988895797,0,0,0,540.1807592274694,596.0531745276809" stroke="grey" stroke-width="5" fill="none" />
<path d="M540.1807592274694,596.0531745276809 L76.97048779708734,184.0" stroke="grey" stroke-width="5" />
<circle cx="540.1807592274694" cy="596.0531745276809" r="2.5" fill="grey" stroke="none" />
<circle cx="504.97048779708734" cy="604.0" r="5" fill="black" stroke="none" />
<circle cx="576.9704877970873" cy="684.0" r="5" fill="black" stroke="none" />
<path d="M552.9704877970873,444.0 L529.6628198562995,468.64069067447576" stroke="grey" stroke-width="5" />
<circle cx="529.6628198562995" cy="468.64069067447576" r="2.5" fill="grey" stroke="none" />
<path d="M529.6628198562995,468.64069067447576 A43.165833285147954,43.165833285147954,0,0,0,528.9704877970873,468.0" stroke="grey" stroke-width="5" fill="none" />
<circle cx="552.9704877970873" cy="444.0" r="5" fill="black" stroke="none" />
<circle cx="528.9704877970873" cy="468.0" r="5" fill="black" stroke="none" />
<path d="M528.9704877970873,468.0 L503.33591280677615,496.31524292706007" stroke="grey" stroke-width="5" />
<circle cx="503.33591280677615" cy="496.31524292706007" r="2.5" fill="grey" stroke="none" />
<path d="M503.33591280677615,496.31524292706007 A4.970487797087344,4.970487797087344,0,0,1,504.97048779708734,500.0" stroke="grey" stroke-width="5" fill="none" />
<circle cx="528.9704877970873" cy="468.0" r="5" fill="black" stroke="none" />
<circle cx="504.97048779708734" cy="500.0" r="5" fill="black" stroke="none" />
<path d="M504.97048779708734,500.0 A4.970487797087344,4.970487797087344,0,0,1,500.5119655237499,504.94405099523516" stroke="grey" stroke-width="5" fill="none" />
<path d="M500.5119655237499,504.94405099523516 L4.970487797087344,48.0" stroke="grey" stroke-width="5" />
<circle cx="500.5119655237499" cy="504.94405099523516" r="2.5" fill="grey" stroke="none" />
<circle cx="504.97048779708734" cy="500.0" r="5" fill="black" stroke="none" />
<circle cx="504.97048779708734" cy="548.0" r="5" fill="black" stroke="none" />
<path d="M504.97048779708734,444.0 L503.81634042606044,457.00320117783644" stroke="grey" stroke-width="5" />
<circle cx="503.81634042606044" cy="457.00320117783644" r="2.5" fill="grey" stroke="none" />
<path d="M503.8163404260604,457.00320117783644 A43.165833285147954,43.165833285147954,0,0,1,528.9704877970873,468.0" stroke="grey" stroke-width="5" fill="none" />
<circle cx="504.97048779708734" cy="444.0" r="5" fill="black" stroke="none" />
<circle cx="528.9704877970873" cy="468.0" r="5" fill="black" stroke="none" />
<path d="M456.97048779708734,500.0 L504.97048779708734,500.0" stroke="grey" stroke-width="5" />
<circle cx="456.97048779708734" cy="500.0" r="5" fill="black" stroke="none" />
<circle cx="504.97048779708734" cy="500.0" r="5" fill="black" stroke="none" />
<path d="M552.9704877970873,444.0 L536.4004101773227,461.5177610268835" stroke="grey" stroke-width="5" />
<circle cx="536.4004101773227" cy="461.5177610268835" r="2.5" fill="grey" stroke="none" />
<path d="M536.4004101773227,461.5177610268835 A52.970487797087344,52.970487797087344,0,0,1,552.9704877970873,500.0" stroke="grey" stroke-width="5" fill="none" />
<circle cx="552.9704877970873" cy="444.0" r="5" fill="black" stroke="none" />
<circle cx="552.9704877970873" cy="500.0" r="5" fill="black" stroke="none" />
<path d="M528.9704877970873,468.0 A43.165833285147954,43.165833285147954,0,0,1,543.165833285148,500.0" stroke="grey" stroke-width="5" fill="none" />
<path d="M543.165833285148,500.0 L52.970487797087344,0.0" stroke="grey" stroke-width="5" />
<circle cx="543.165833285148" cy="500.0" r="2.5" fill="grey" stroke="none" />
<circle cx="528.9704877970873" cy="468.0" r="5" fill="black" stroke="none" />
<circle cx="552.9704877970873" cy="500.0" r="5" fill="black" stroke="none" />
<path d="M504.97048779708734,500.0 A4.970487797087344,4.970487797087344,0,0,1,504.97048779708734,500.0" stroke="grey" stroke-width="5" fill="none" />
<path d="M504.97048779708734,500.0 L52.970487797087344,0.0" stroke="grey" stroke-width="5" />
<circle cx="504.97048779708734" cy="500.0" r="2.5" fill="grey" stroke="none" />
<circle cx="504.97048779708734" cy="500.0" r="5" fill="black" stroke="none" />
<circle cx="552.9704877970873" cy="500.0" r="5" fill="black" stroke="none" />
<path d="M504.97048779708734,548.0 A48.25666533175489,48.25666533175489,0,0,0,548.2566653317549,500.0" stroke="grey" stroke-width="5" fill="none" />
<path d="M548.2566653317549,500.0 L52.970487797087344,0.0" stroke="grey" stroke-width="5" />
<circle cx="548.2566653317549" cy="500.0" r="2.5" fill="grey" stroke="none" />
<circle cx="504.97048779708734" cy="548.0" r="5" fill="black" stroke="none" />
<circle cx="552.9704877970873" cy="500.0" r="5" fill="black" stroke="none" />
<path d="M552.9704877970873,500.0 A52.970487797087344,52.970487797087344,0,0,1,531.3904844329296,542.667435645084" stroke="grey" stroke-width="5" fill="none" />
<path d="M531.3904844329296,542.667435645084 L52.970487797087344,72.0" stroke="grey" stroke-width="5" />
<circle cx="531.3904844329296" cy="542.667435645084" r="2.5" fill="grey" stroke="none" />
<circle cx="552.9704877970873" cy="500.0" r="5" fill="black" stroke="none" />
<circle cx="552.9704877970873" cy="572.0" r="5" fill="black" stroke="none" />
<path d="M552.9704877970873,572.0 A89.38608715824505,89.38608715824505,0,0,1,504.2671721146303,589.284174519371" stroke="grey" stroke-width="5" fill="none" />
<path d="M504.2671721146303,589.284174519371 L4.970487797087344,104.0" stroke="grey" stroke-width="5" />
<circle cx="504.2671721146303" cy="589.284174519371" r="2.5" fill="grey" stroke="none" />
<circle cx="552.9704877970873" cy="572.0" r="5" fill="black" stroke="none" />
<circle cx="504.97048779708734" cy="604.0" r="5" fill="black" stroke="none" />
<path d="M552.9704877970873,444.0 A77.08354284450981,77.08354284450981,0,0,1,553.9828748524832,444.9752619259072" stroke="grey" stroke-width="5" fill="none" />
<path d="M553.9828748524832,444.9752619259072 L156.97048779708734,-160.0" stroke="grey" stroke-width="5" />
<circle cx="553.9828748524832" cy="444.9752619259072" r="2.5" fill="grey" stroke="none" />
<circle cx="552.9704877970873" cy="444.0" r="5" fill="black" stroke="none" />
<circle cx="656.9704877970873" cy="340.0" r="5" fill="black" stroke="none" />
<path d="M552.9704877970873,444.0 A77.08354284450981,77.08354284450981,0,0,1,575.9060047951896,486.57796537427936" stroke="grey" stroke-width="5" fill="none" />
<path d="M575.9060047951896,486.57796537427936 L180.97048779708734,-32.0" stroke="grey" stroke-width="5" />
<circle cx="575.9060047951896" cy="486.57796537427936" r="2.5" fill="grey" stroke="none" />
<circle cx="552.9704877970873" cy="444.0" r="5" fill="black" stroke="none" />
<circle cx="680.9704877970873" cy="468.0" r="5" fill="black" stroke="none" />
<path d="M680.9704877970873,468.0 A183.77790251691235,183.77790251691235,0,0,1,682.4909181903125,478.2886612210946" stroke="grey" stroke-width="5" fill="none" />
<path d="M682.4909181903125,478.2886612210946 L268.97048779708734,-32.0" stroke="grey" stroke-width="5" />
<circle cx="682.4909181903125" cy="478.2886612210946" r="2.5" fill="grey" stroke="none" />
<circle cx="680.9704877970873" cy="468.0" r="5" fill="black" stroke="none" />
<circle cx="768.9704877970873" cy="468.0" r="5" fill="black" stroke="none" />
<path d="M552.9704877970873,500.0 A52.970487797087344,52.970487797087344,0,0,1,539.586227479855,535.1966357962597" stroke="grey" stroke-width="5" fill="none" />
<path d="M539.586227479855,535.1966357962597 L116.97048779708734,104.0" stroke="grey" stroke-width="5" />
<circle cx="539.586227479855" cy="535.1966357962597" r="2.5" fill="grey" stroke="none" />
<circle cx="552.9704877970873" cy="500.0" r="5" fill="black" stroke="none" />
<circle cx="616.9704877970873" cy="604.0" r="5" fill="black" stroke="none" />
<circle cx="500" cy="500" r="5" fill="red" stroke="none" />
</svg>