<?xml version="1.0" encoding="UTF-8"?>
<svg xmlns="http://www.w3.org/2000/svg" xmlns:xlink="http://www.w3.org/1999/xlink"
     width="1000" height="1000" viewBox="0 0 1000 1000">
<defs>
</defs>
<rect x="0" y="0" width="1000" height="1000" fill="white" />
<path d="M313.3363981222487,799.1106003129586 L378.7468531319159,694.2965912192162" stroke="grey" stroke-width="5" />
<circle cx="378.7468531319159" cy="694.2965912192162" r="2.5" fill="grey" stroke="none" />
<path d="M378.7468531319159,694.2965912192162 A229.02727126877357,229.02727126877357,0,0,0,433.3363981222487,719.1106003129586" stroke="grey" stroke-width="5" fill="none" />
<circle cx="313.3363981222487" cy="799.1106003129586" r="5" fill="black" stroke="none" />
<circle cx="433.3363981222487" cy="719.1106003129586" r="5" fill="black" stroke="none" />
<path d="M433.3363981222487,719.1106003129586 L448.7107780779525,668.5779329105682" stroke="grey" stroke-width="5" />
<circle cx="448.7107780779525" cy="668.5779329105682" r="2.5" fill="grey" stroke="none" />
<path d="M448.7107780779525,668.5779329105682 A176.20755871916802,176.20755871916802,0,0,1,433.3363981222487,663.1106003129586" stroke="grey" stroke-width="5" fill="none" />
<circle cx="433.3363981222487" cy="719.1106003129586" r="5" fill="black" stroke="none" />
<circle cx="433.3363981222487" cy="663.1106003129586" r="5" fill="black" stroke="none" />
<path d="M433.3363981222487,663.1106003129586 A176.20755871916802,176.20755871916802,0,0,1,372.6155238013809,621.7468643266532" stroke="grey" stroke-width="5" fill="none" />
<path d="M372.6155238013809,621.7468643266532 L329.3363981222487,663.1106003129586" stroke="grey" stroke-width="5" />
<circle cx="372.6155238013809" cy="621.7468643266532" r="2.5" fill="grey" stroke="none" />
<circle cx="433.3363981222487" cy="663.1106003129586" r="5" fill="black" stroke="none" />
<circle cx="329.3363981222487" cy="663.1106003129586" r="5" fill="black" stroke="none" />
<path d="M329.3363981222487,663.1106003129586 L396.32408739804407,599.0875626462647" stroke="grey" stroke-width="5" />
<circle cx="396.32408739804407" cy="599.0875626462647" r="2.5" fill="grey" stroke="none" />
<path d="M396.32408739804407,599.0875626462647 A143.4121331165039,143.4121331165039,0,0,1,369.33639812224874,559.1106003129586" stroke="grey" stroke-width="5" fill="none" />
<circle cx="329.3363981222487" cy="663.1106003129586" r="5" fill="black" stroke="none" />
<circle cx="369.3363981222487" cy="559.1106003129586" r="5" fill="black" stroke="none" />
<path d="M369.3363981222487,559.1106003129586 L468.6636950433992,514.1761574834561" stroke="grey" stroke-width="5" />
<circle cx="468.6636950433992" cy="514.1761574834561" r="2.5" fill="grey" stroke="none" />
<path d="M468.6636950433992,514.1761574834561 A34.393712351661506,34.393712351661506,0,0,1,481.3363981222487,471.1106003129585" stroke="grey" stroke-width="5" fill="none" />
<circle cx="369.3363981222487" cy="559.1106003129586" r="5" fill="black" stroke="none" />
<circle cx="481.3363981222487" cy="471.1106003129586" r="5" fill="black" stroke="none" />
<path d="M481.3363981222487,471.1106003129586 L483.86114166587936,475.01865224296535" stroke="grey" stroke-width="5" />
<circle cx="483.86114166587936" cy="475.01865224296535" r="2.5" fill="grey" stroke="none" />
<path d="M483.86114166587936,475.01865224296535 A29.741057211987556,29.741057211987556,0,0,1,529.3363981222487,495.1106003129586" stroke="grey" stroke-width="5" fill="none" />
<circle cx="481.3363981222487" cy="471.1106003129586" r="5" fill="black" stroke="none" />
<circle cx="529.3363981222487" cy="495.1106003129586" r="5" fill="black" stroke="none" />
<path d="M529.3363981222487,495.1106003129586 L481.3363981222487,503.1106003129586" stroke="grey" stroke-width="5" />
<circle cx="529.3363981222487" cy="495.1106003129586" r="5" fill="black" stroke="none" />
<circle cx="481.3363981222487" cy="503.1106003129586" r="5" fill="black" stroke="none" />
<path d="M481.3363981222487,471.1106003129586 L489.7325763901118,484.10704930564214" stroke="grey" stroke-width="5" />
<circle cx="489.7325763901118" cy="484.10704930564214" r="2.5" fill="grey" stroke="none" />
<path d="M489.7325763901118,484.10704930564214 A18.921043030398202,18.921043030398202,0,0,0,481.3363981222487,503.1106003129586" stroke="grey" stroke-width="5" fill="none" />
<circle cx="481.3363981222487" cy="471.1106003129586" r="5" fill="black" stroke="none" />
<circle cx="481.3363981222487" cy="503.1106003129586" r="5" fill="black" stroke="none" />
<path d="M481.3363981222487,503.1106003129586 A18.921043030398202,18.921043030398202,0,0,0,490.51767423664205,516.3734958843778" stroke="grey" stroke-width="5" fill="none" />
<path d="M490.51767423664205,516.3734958843779 L433.3363981222487,615.1106003129586" stroke="grey" stroke-width="5" />
<circle cx="490.51767423664205" cy="516.3734958843779" r="2.5" fill="grey" stroke="none" />
<circle cx="481.3363981222487" cy="503.1106003129586" r="5" fill="black" stroke="none" />
<circle cx="433.3363981222487" cy="615.1106003129586" r="5" fill="black" stroke="none" />
<path d="M369.3363981222487,559.1106003129586 L378.80416157327465,554.8275010169906" stroke="grey" stroke-width="5" />
<circle cx="378.80416157327465" cy="554.8275010169906" r="2.5" fill="grey" stroke="none" />
<path d="M378.80416157327465,554.8275010169906 A133.02062291135545,133.02062291135545,0,0,0,433.3363981222486,615.1106003129586" stroke="grey" stroke-width="5" fill="none" />
<circle cx="369.3363981222487" cy="559.1106003129586" r="5" fill="black" stroke="none" />
<circle cx="433.3363981222487" cy="615.1106003129586" r="5" fill="black" stroke="none" />
<path d="M433.3363981222486,615.1106003129586 A133.02062291135545,133.02062291135545,0,0,0,449.6750655207366,623.1336147824097" stroke="grey" stroke-width="5" fill="none" />
<path d="M449.6750655207366,623.1336147824097 L433.3363981222487,663.1106003129586" stroke="grey" stroke-width="5" />
<circle cx="449.6750655207366" cy="623.1336147824097" r="2.5" fill="grey" stroke="none" />
<circle cx="433.3363981222487" cy="615.1106003129586" r="5" fill="black" stroke="none" />
<circle cx="433.3363981222487" cy="663.1106003129586" r="5" fill="black" stroke="none" />
<path d="M529.3363981222487,495.1106003129586 A29.741057211987556,29.741057211987556,0,0,0,524.9656516157152,483.83687148199783" stroke="grey" stroke-width="5" fill="none" />
<path d="M524.9656516157152,483.83687148199783 L569.3363981222487,455.1106003129586" stroke="grey" stroke-width="5" />
<circle cx="524.9656516157152" cy="483.83687148199783" r="2.5" fill="grey" stroke="none" />
<circle cx="529.3363981222487" cy="495.1106003129586" r="5" fill="black" stroke="none" />
<circle cx="569.3363981222487" cy="455.1106003129586" r="5" fill="black" stroke="none" />
<path d="M529.3363981222487,495.1106003129586 A29.741057211987556,29.741057211987556,0,0,1,523.6293163882037,518.0606171299013" stroke="grey" stroke-width="5" fill="none" />
<path d="M523.6293163882037,518.0606171299013 L577.3363981222487,559.1106003129586" stroke="grey" stroke-width="5" />
<circle cx="523.6293163882037" cy="518.0606171299013" r="2.5" fill="grey" stroke="none" />
<circle cx="529.3363981222487" cy="495.1106003129586" r="5" fill="black" stroke="none" />
<circle cx="577.3363981222487" cy="559.1106003129586" r="5" fill="black" stroke="none" />
<path d="M481.3363981222487,503.1106003129586 A18.921043030398202,18.921043030398202,0,0,0,508.41149857267385,516.9485268126787" stroke="grey" stroke-width="5" fill="none" />
<path d="M508.41149857267385,516.9485268126787 L529.3363981222487,559.1106003129586" stroke="grey" stroke-width="5" />
<circle cx="508.41149857267385" cy="516.9485268126787" r="2.5" fill="grey" stroke="none" />
<circle cx="481.3363981222487" cy="503.1106003129586" r="5" fill="black" stroke="none" />
<circle cx="529.3363981222487" cy="559.1106003129586" r="5" fill="black" stroke="none" />
<path d="M433.3363981222487,615.1106003129586 L441.5587122129523,600.9128149505917" stroke="grey" stroke-width="5" />
<circle cx="441.5587122129523" cy="600.9128149505917" r="2.5" fill="grey" stroke="none" />
<path d="M441.55871221295223,600.9128149505917 A116.61380852823947,116.61380852823947,0,0,0,481.3363981222487,615.1106003129586" stroke="grey" stroke-width="5" fill="none" />
<circle cx="433.3363981222487" cy="615.1106003129586" r="5" fill="black" stroke="none" />
<circle cx="481.3363981222487" cy="615.1106003129586" r="5" fill="black" stroke="none" />
<path d="M433.3363981222487,663.1106003129586 L437.30115866802356,653.409737255718" stroke="grey" stroke-width="5" />
<circle cx="437.30115866802356" cy="653.409737255718" r="2.5" fill="grey" stroke="none" />
<path d="M437.30115866802356,653.409737255718 A165.7277652936912,165.7277652936912,0,0,0,529.3363981222487,663.1106003129586" stroke="grey" stroke-width="5" fill="none" />
<circle cx="433.3363981222487" cy="663.1106003129586" r="5" fill="black" stroke="none" />
<circle cx="529.3363981222487" cy="663.1106003129586" r="5" fill="black" stroke="none" />
<path d="M433.3363981222487,719.1106003129586 L435.65377120406384,711.4938350497082" stroke="grey" stroke-width="5" />
<circle cx="435.65377120406384" cy="711.4938350497082" r="2.5" fill="grey" stroke="none" />
<path d="M435.65377120406384,711.4938350497082 A221.06578076285837,221.06578076285837,0,0,0,529.3363981222486,719.1106003129586" stroke="grey" stroke-width="5" fill="none" />
<circle cx="433.3363981222487" cy="719.1106003129586" r="5" fill="black" stroke="none" />
<circle cx="529.3363981222487" cy="719.1106003129586" r="5" fill="black" stroke="none" />
<path d="M577.3363981222487,559.1106003129586 L552.4292015153574,540.0732598200779" stroke="grey" stroke-width="5" />
<circle cx="552.4292015153574" cy="540.0732598200779" r="2.5" fill="grey" stroke="none" />
<path d="M552.4292015153574,540.0732598200779 A65.99005473664506,65.99005473664506,0,0,1,529.3363981222487,559.1106003129586" stroke="grey" stroke-width="5" fill="none" />
<circle cx="577.3363981222487" cy="559.1106003129586" r="5" fill="black" stroke="none" />
<circle cx="529.3363981222487" cy="559.1106003129586" r="5" fill="black" stroke="none" />
<path d="M529.3363981222487,559.1106003129586 A65.99005473664506,65.99005473664506,0,0,1,489.4385396974878,565.1394111151143" stroke="grey" stroke-width="5" fill="none" />
<path d="M489.4385396974878,565.1394111151143 L481.3363981222487,615.1106003129586" stroke="grey" stroke-width="5" />
<circle cx="489.4385396974878" cy="565.1394111151143" r="2.5" fill="grey" stroke="none" />
<circle cx="529.3363981222487" cy="559.1106003129586" r="5" fill="black" stroke="none" />
<circle cx="481.3363981222487" cy="615.1106003129586" r="5" fill="black" stroke="none" />
<path d="M481.3363981222487,615.1106003129586 A116.61380852823947,116.61380852823947,0,0,0,520.6424620972449,614.77224881488" stroke="grey" stroke-width="5" fill="none" />
<path d="M520.6424620972449,614.77224881488 L529.3363981222487,663.1106003129586" stroke="grey" stroke-width="5" />
<circle cx="520.6424620972449" cy="614.77224881488" r="2.5" fill="grey" stroke="none" />
<circle cx="481.3363981222487" cy="615.1106003129586" r="5" fill="black" stroke="none" />
<circle cx="529.3363981222487" cy="663.1106003129586" r="5" fill="black" stroke="none" />
<path d="M529.3363981222487,663.1106003129586 A165.7277652936912,165.7277652936912,0,0,1,521.9928009020163,664.2620129479883" stroke="grey" stroke-width="5" fill="none" />
<path d="M521.9928009020163,664.2620129479883 L529.3363981222487,719.1106003129586" stroke="grey" stroke-width="5" />
<circle cx="521.9928009020163" cy="664.2620129479883" r="2.5" fill="grey" stroke="none" />
<circle cx="529.3363981222487" cy="663.1106003129586" r="5" fill="black" stroke="none" />
<circle cx="529.3363981222487" cy="719.1106003129586" r="5" fill="black" stroke="none" />
<path d="M529.3363981222486,719.1106003129586 A221.06578076285837,221.06578076285837,0,0,0,570.9349947496113,709.3759918046115" stroke="grey" stroke-width="5" fill="none" />
<path d="M570.9349947496113,709.3759918046117 L601.3363981222487,799.1106003129586" stroke="grey" stroke-width="5" />
<circle cx="570.9349947496113" cy="709.3759918046117" r="2.5" fill="grey" stroke="none" />
<circle cx="529.3363981222487" cy="719.1106003129586" r="5" fill="black" stroke="none" />
<circle cx="601.3363981222487" cy="799.1106003129586" r="5" fill="black" stroke="none" />
<path d="M577.3363981222487,559.1106003129586 A97.33951686689885,97.33951686689885,0,0,1,552.5730089714734,581.9210612209502" stroke="grey" stroke-width="5" fill="none" />
<path d="M552.5730089714734,581.9210612209502 L553.3363981222487,583.1106003129586" stroke="grey" stroke-width="5" />
<circle cx="552.5730089714734" cy="581.9210612209502" r="2.5" fill="grey" stroke="none" />
<circle cx="577.3363981222487" cy="559.1106003129586" r="5" fill="black" stroke="none" />
<circle cx="553.3363981222487" cy="583.1106003129586" r="5" fill="black" stroke="none" />
<path d="M553.3363981222487,583.1106003129586 A98.75294045766616,98.75294045766616,0,0,1,524.3880335327284,595.6941328893358" stroke="grey" stroke-width="5" fill="none" />
<path d="M524.3880335327284,595.6941328893358 L529.3363981222487,615.1106003129586" stroke="grey" stroke-width="5" />
<circle cx="524.3880335327284" cy="595.6941328893358" r="2.5" fill="grey" stroke="none" />
<circle cx="553.3363981222487" cy="583.1106003129586" r="5" fill="black" stroke="none" />
<circle cx="529.3363981222487" cy="615.1106003129586" r="5" fill="black" stroke="none" />
<path d="M529.3363981222487,615.1106003129586 A118.79004402388598,118.79004402388598,0,0,1,521.0276897070839,616.9141173031699" stroke="grey" stroke-width="5" fill="none" />
<path d="M521.0276897070839,616.9141173031699 L529.3363981222487,663.1106003129586" stroke="grey" stroke-width="5" />
<circle cx="521.0276897070839" cy="616.9141173031699" r="2.5" fill="grey" stroke="none" />
<circle cx="529.3363981222487" cy="615.1106003129586" r="5" fill="black" stroke="none" />
<circle cx="529.3363981222487" cy="663.1106003129586" r="5" fill="black" stroke="none" />
<path d="M529.3363981222487,559.1106003129586 A65.99005473664506,65.99005473664506,0,0,0,535.6411851154094,555.5373140124235" stroke="grey" stroke-width="5" fill="none" />
<path d="M535.6411851154094,555.5373140124235 L553.3363981222487,583.1106003129586" stroke="grey" stroke-width="5" />
<circle cx="535.6411851154094" cy="555.5373140124235" r="2.5" fill="grey" stroke="none" />
<circle cx="529.3363981222487" cy="559.1106003129586" r="5" fill="black" stroke="none" />
<circle cx="553.3363981222487" cy="583.1106003129586" r="5" fill="black" stroke="none" />
<path d="M481.3363981222487,615.1106003129586 A116.61380852823947,116.61380852823947,0,0,0,528.7989548421097,613.0017722846108" stroke="grey" stroke-width="5" fill="none" />
<path d="M528.7989548421097,613.0017722846108 L529.3363981222487,615.1106003129586" stroke="grey" stroke-width="5" />
<circle cx="528.7989548421097" cy="613.0017722846108" r="2.5" fill="grey" stroke="none" />
<circle cx="481.3363981222487" cy="615.1106003129586" r="5" fill="black" stroke="none" />
<circle cx="529.3363981222487" cy="615.1106003129586" r="5" fill="black" stroke="none" />
<path d="M577.3363981222487,559.1106003129586 A97.33951686689885,97.33951686689885,0,0,1,554.2835235091337,580.7977760790147" stroke="grey" stroke-width="5" fill="none" />
<path d="M554.2835235091337,580.7977760790147 L577.3363981222487,615.1106003129586" stroke="grey" stroke-width="5" />
<circle cx="554.2835235091337" cy="580.7977760790147" r="2.5" fill="grey" stroke="none" />
<circle cx="577.3363981222487" cy="559.1106003129586" r="5" fill="black" stroke="none" />
<circle cx="577.3363981222487" cy="615.1106003129586" r="5" fill="black" stroke="none" />
<path d="M553.3363981222487,583.1106003129586 A98.75294045766616,98.75294045766616,0,0,0,555.0717502765082,581.9710044498497" stroke="grey" stroke-width="5" fill="none" />
<path d="M555.0717502765082,581.9710044498497 L577.3363981222487,615.1106003129586" stroke="grey" stroke-width="5" />
<circle cx="555.0717502765082" cy="581.9710044498497" r="2.5" fill="grey" stroke="none" />
<circle cx="553.3363981222487" cy="583.1106003129586" r="5" fill="black" stroke="none" />
<circle cx="577.3363981222487" cy="615.1106003129586" r="5" fill="black" stroke="none" />
<path d="M529.3363981222487,615.1106003129586 A118.79004402388598,118.79004402388598,0,0,0,566.24588199096,598.6030307771347" stroke="grey" stroke-width="5" fill="none" />
<path d="M566.24588199096,598.6030307771347 L577.3363981222487,615.1106003129586" stroke="grey" stroke-width="5" />
<circle cx="566.24588199096" cy="598.6030307771347" r="2.5" fill="grey" stroke="none" />
<circle cx="529.3363981222487" cy="615.1106003129586" r="5" fill="black" stroke="none" />
<circle cx="577.3363981222487" cy="615.1106003129586" r="5" fill="black" stroke="none" />
<path d="M529.3363981222487,663.1106003129586 L524.5480282532892,636.4872268302363" stroke="grey" stroke-width="5" />
<circle cx="524.5480282532892" cy="636.4872268302363" r="2.5" fill="grey" stroke="none" />
<path d="M524.5480282532892,636.4872268302363 A138.67721074110426,138.67721074110426,0,0,0,577.3363981222486,615.1106003129586" stroke="grey" stroke-width="5" fill="none" />
<circle cx="529.3363981222487" cy="663.1106003129586" r="5" fill="black" stroke="none" />
<circle cx="577.3363981222487" cy="615.1106003129586" r="5" fill="black" stroke="none" />
<path d="M577.3363981222486,615.1106003129586 A138.67721074110426,138.67721074110426,0,0,1,552.9716155821263,628.16152590209" stroke="grey" stroke-width="5" fill="none" />
<path d="M552.9716155821263,628.16152590209 L577.3363981222487,687.1106003129586" stroke="grey" stroke-width="5" />
<circle cx="552.9716155821263" cy="628.16152590209" r="2.5" fill="grey" stroke="none" />
<circle cx="577.3363981222487" cy="615.1106003129586" r="5" fill="black" stroke="none" />
<circle cx="577.3363981222487" cy="687.1106003129586" r="5" fill="black" stroke="none" />
<path d="M577.3363981222487,687.1106003129586 A202.4630712599181,202.4630712599181,0,0,1,526.8677370284894,700.6724194575992" stroke="grey" stroke-width="5" fill="none" />
<path d="M526.8677370284894,700.6724194575992 L529.3363981222487,719.1106003129586" stroke="grey" stroke-width="5" />
<circle cx="526.8677370284894" cy="700.6724194575992" r="2.5" fill="grey" stroke="none" />
<circle cx="577.3363981222487" cy="687.1106003129586" r="5" fill="black" stroke="none" />
<circle cx="529.3363981222487" cy="719.1106003129586" r="5" fill="black" stroke="none" />
<path d="M577.3363981222487,559.1106003129586 A97.33951686689885,97.33951686689885,0,0,0,594.487471866854,476.6098481387621" stroke="grey" stroke-width="5" fill="none" />
<path d="M594.487471866854,476.6098481387621 L681.3363981222487,455.1106003129586" stroke="grey" stroke-width="5" />
<circle cx="594.487471866854" cy="476.6098481387621" r="2.5" fill="grey" stroke="none" />
<circle cx="577.3363981222487" cy="559.1106003129586" r="5" fill="black" stroke="none" />
<circle cx="681.3363981222487" cy="455.1106003129586" r="5" fill="black" stroke="none" />
<path d="M577.3363981222487,559.1106003129586 A97.33951686689885,97.33951686689885,0,0,0,590.2288225980996,536.5204205403219" stroke="grey" stroke-width="5" fill="none" />
<path d="M590.2288225980996,536.5204205403219 L705.3363981222487,583.1106003129586" stroke="grey" stroke-width="5" />
<circle cx="590.2288225980996" cy="536.5204205403219" r="2.5" fill="grey" stroke="none" />
<circle cx="577.3363981222487" cy="559.1106003129586" r="5" fill="black" stroke="none" />
<circle cx="705.3363981222487" cy="583.1106003129586" r="5" fill="black" stroke="none" />
<path d="M705.3363981222487,583.1106003129586 A221.51841521236776,221.51841521236776,0,0,0,713.1290504609526,560.3855622463823" stroke="grey" stroke-width="5" fill="none" />
<path d="M713.1290504609526,560.3855622463822 L793.3363981222487,583.1106003129586" stroke="grey" stroke-width="5" />
<circle cx="713.1290504609526" cy="560.3855622463822" r="2.5" fill="grey" stroke="none" />
<circle cx="705.3363981222487" cy="583.1106003129586" r="5" fill="black" stroke="none" />
<circle cx="793.3363981222487" cy="583.1106003129586" r="5" fill="black" stroke="none" />
<path d="M577.3363981222486,615.1106003129586 A138.67721074110426,138.67721074110426,0,0,1,575.1711483260843,616.5361198867994" stroke="grey" stroke-width="5" fill="none" />
<path d="M575.1711483260843,616.5361198867994 L641.3363981222487,719.1106003129586" stroke="grey" stroke-width="5" />
<circle cx="575.1711483260843" cy="616.5361198867994" r="2.5" fill="grey" stroke="none" />
<circle cx="577.3363981222487" cy="615.1106003129586" r="5" fill="black" stroke="none" />
<circle cx="641.3363981222487" cy="719.1106003129586" r="5" fill="black" stroke="none" />
<circle cx="500" cy="500" r="5" fill="red" stroke="none" />
</svg>