<?xml version="1.0" encoding="UTF-8"?>
<svg xmlns="http://www.w3.org/2000/svg" xmlns:xlink="http://www.w3.org/1999/xlink"
     width="1000" height="1000" viewBox="0 0 1000 1000">
<defs>
</defs>
<rect x="0" y="0" width="1000" height="1000" fill="white" />
<path d="M277.13062747002334,810.8693725299767 L352.73332071780067,705.4149462680117" stroke="grey" stroke-width="5" />
<circle cx="352.73332071780067" cy="705.4149462680117" r="2.5" fill="grey" stroke="none" />
<path d="M352.73332071780067,705.4149462680117 A252.75042033020694,252.75042033020694,0,0,0,397.13062747002334,730.8693725299768" stroke="grey" stroke-width="5" fill="none" />
<circle cx="277.13062747002334" cy="810.8693725299767" r="5" fill="black" stroke="none" />
<circle cx="397.13062747002334" cy="730.8693725299767" r="5" fill="black" stroke="none" />
<path d="M397.13062747002334,730.8693725299767 L417.4267647256162,685.3188227624494" stroke="grey" stroke-width="5" />
<circle cx="417.4267647256162" cy="685.3188227624494" r="2.5" fill="grey" stroke="none" />
<path d="M417.4267647256162,685.3188227624494 A202.88273769283302,202.88273769283302,0,0,1,397.13062747002334,674.8693725299767" stroke="grey" stroke-width="5" fill="none" />
<circle cx="397.13062747002334" cy="730.8693725299767" r="5" fill="black" stroke="none" />
<circle cx="397.13062747002334" cy="674.8693725299767" r="5" fill="black" stroke="none" />
<path d="M397.13062747002334,674.8693725299767 A202.88273769283302,202.88273769283302,0,0,1,345.0578773426482,630.9745924985951" stroke="grey" stroke-width="5" fill="none" />
<path d="M345.0578773426483,630.9745924985951 L-206.8693725299767,174.8693725299767" stroke="grey" stroke-width="5" />
<circle cx="345.0578773426483" cy="630.9745924985951" r="2.5" fill="grey" stroke="none" />
<circle cx="397.13062747002334" cy="674.8693725299767" r="5" fill="black" stroke="none" />
<circle cx="293.13062747002334" cy="674.8693725299767" r="5" fill="black" stroke="none" />
<path d="M293.13062747002334,674.8693725299767 L361.54453933470575,617.0382025806186" stroke="grey" stroke-width="5" />
<circle cx="361.54453933470575" cy="617.0382025806186" r="2.5" fill="grey" stroke="none" />
<path d="M361.54453933470575,617.0382025806185 A181.2949405012196,181.2949405012196,0,0,1,333.13062747002334,570.8693725299767" stroke="grey" stroke-width="5" fill="none" />
<circle cx="293.13062747002334" cy="674.8693725299767" r="5" fill="black" stroke="none" />
<circle cx="333.13062747002334" cy="570.8693725299767" r="5" fill="black" stroke="none" />
<path d="M333.13062747002334,570.8693725299767 L447.09241194684046,522.4698367984115" stroke="grey" stroke-width="5" />
<circle cx="447.09241194684046" cy="522.4698367984115" r="2.5" fill="grey" stroke="none" />
<path d="M447.09241194684046,522.4698367984115 A57.481357320004875,57.481357320004875,0,0,1,445.13062747002334,482.86937252997666" stroke="grey" stroke-width="5" fill="none" />
<circle cx="333.13062747002334" cy="570.8693725299767" r="5" fill="black" stroke="none" />
<circle cx="445.13062747002334" cy="482.86937252997666" r="5" fill="black" stroke="none" />
<path d="M445.13062747002334,482.86937252997666 L490.72668428187797,497.10480164699766" stroke="grey" stroke-width="5" />
<circle cx="490.72668428187797" cy="497.10480164699766" r="2.5" fill="grey" stroke="none" />
<path d="M490.72668428187797,497.10480164699766 A9.714759796886211,9.714759796886211,0,0,0,493.13062747002334,506.8693725299767" stroke="grey" stroke-width="5" fill="none" />
<circle cx="445.13062747002334" cy="482.86937252997666" r="5" fill="black" stroke="none" />
<circle cx="493.13062747002334" cy="506.86937252997666" r="5" fill="black" stroke="none" />
<path d="M493.13062747002334,506.8693725299767 A9.714759796886211,9.714759796886211,0,0,1,490.62344227167046,502.54100827989595" stroke="grey" stroke-width="5" fill="none" />
<path d="M490.62344227167046,502.5410082798959 L-54.86937252997669,14.869372529976687" stroke="grey" stroke-width="5" />
<circle cx="490.62344227167046" cy="502.5410082798959" r="2.5" fill="grey" stroke="none" />
<circle cx="493.13062747002334" cy="506.86937252997666" r="5" fill="black" stroke="none" />
<circle cx="445.13062747002334" cy="514.8693725299767" r="5" fill="black" stroke="none" />
<path d="M445.13062747002334,482.86937252997666 L445.73477501360486,483.05799190047105" stroke="grey" stroke-width="5" />
<circle cx="445.73477501360486" cy="483.05799190047105" r="2.5" fill="grey" stroke="none" />
<path d="M445.73477501360486,483.05799190047105 A56.84845012195659,56.84845012195659,0,0,0,445.13062747002334,514.8693725299768" stroke="grey" stroke-width="5" fill="none" />
<circle cx="445.13062747002334" cy="482.86937252997666" r="5" fill="black" stroke="none" />
<circle cx="445.13062747002334" cy="514.8693725299767" r="5" fill="black" stroke="none" />
<path d="M445.13062747002334,514.8693725299768 A56.84845012195659,56.84845012195659,0,0,0,464.19624890939457,544.1569664844694" stroke="grey" stroke-width="5" fill="none" />
<path d="M464.19624890939457,544.1569664844694 L-102.86937252997669,126.86937252997669" stroke="grey" stroke-width="5" />
<circle cx="464.19624890939457" cy="544.1569664844694" r="2.5" fill="grey" stroke="none" />
<circle cx="445.13062747002334" cy="514.8693725299767" r="5" fill="black" stroke="none" />
<circle cx="397.13062747002334" cy="626.8693725299767" r="5" fill="black" stroke="none" />
<path d="M333.13062747002334,570.8693725299767 L349.66256397974206,563.8482640462212" stroke="grey" stroke-width="5" />
<circle cx="349.66256397974206" cy="563.8482640462212" r="2.5" fill="grey" stroke="none" />
<path d="M349.66256397974206,563.8482640462212 A163.33384673992444,163.33384673992444,0,0,0,397.13062747002334,626.8693725299767" stroke="grey" stroke-width="5" fill="none" />
<circle cx="333.13062747002334" cy="570.8693725299767" r="5" fill="black" stroke="none" />
<circle cx="397.13062747002334" cy="626.8693725299767" r="5" fill="black" stroke="none" />
<path d="M397.13062747002334,626.8693725299767 A163.33384673992444,163.33384673992444,0,0,0,417.18344045375653,640.7812592491794" stroke="grey" stroke-width="5" fill="none" />
<path d="M417.18344045375653,640.7812592491794 L-102.86937252997669,174.8693725299767" stroke="grey" stroke-width="5" />
<circle cx="417.18344045375653" cy="640.7812592491794" r="2.5" fill="grey" stroke="none" />
<circle cx="397.13062747002334" cy="626.8693725299767" r="5" fill="black" stroke="none" />
<circle cx="397.13062747002334" cy="674.8693725299767" r="5" fill="black" stroke="none" />
<path d="M493.13062747002334,506.86937252997666 L533.1306274700233,466.86937252997666" stroke="grey" stroke-width="5" />
<circle cx="493.13062747002334" cy="506.86937252997666" r="5" fill="black" stroke="none" />
<circle cx="533.1306274700233" cy="466.86937252997666" r="5" fill="black" stroke="none" />
<path d="M493.13062747002334,506.8693725299767 A9.714759796886211,9.714759796886211,0,0,0,504.876411860194,508.4022119278768" stroke="grey" stroke-width="5" fill="none" />
<path d="M504.876411860194,508.4022119278768 L41.13062747002331,70.86937252997669" stroke="grey" stroke-width="5" />
<circle cx="504.876411860194" cy="508.4022119278768" r="2.5" fill="grey" stroke="none" />
<circle cx="493.13062747002334" cy="506.86937252997666" r="5" fill="black" stroke="none" />
<circle cx="541.1306274700233" cy="570.8693725299767" r="5" fill="black" stroke="none" />
<path d="M445.13062747002334,514.8693725299768 A56.84845012195659,56.84845012195659,0,0,0,494.5153812773626,556.5832593505878" stroke="grey" stroke-width="5" fill="none" />
<path d="M494.5153812773626,556.5832593505878 L-6.869372529976687,70.86937252997669" stroke="grey" stroke-width="5" />
<circle cx="494.5153812773626" cy="556.5832593505878" r="2.5" fill="grey" stroke="none" />
<circle cx="445.13062747002334" cy="514.8693725299767" r="5" fill="black" stroke="none" />
<circle cx="493.13062747002334" cy="570.8693725299767" r="5" fill="black" stroke="none" />
<path d="M397.13062747002334,626.8693725299767 L412.94367948921234,607.3670470261075" stroke="grey" stroke-width="5" />
<circle cx="412.94367948921234" cy="607.3670470261075" r="2.5" fill="grey" stroke="none" />
<path d="M412.94367948921234,607.3670470261075 A138.22621215957327,138.22621215957327,0,0,0,445.13062747002334,626.8693725299767" stroke="grey" stroke-width="5" fill="none" />
<circle cx="397.13062747002334" cy="626.8693725299767" r="5" fill="black" stroke="none" />
<circle cx="445.13062747002334" cy="626.8693725299767" r="5" fill="black" stroke="none" />
<path d="M397.13062747002334,674.8693725299767 L411.2660985050318,650.8402481218611" stroke="grey" stroke-width="5" />
<circle cx="411.2660985050318" cy="650.8402481218611" r="2.5" fill="grey" stroke="none" />
<path d="M411.2660985050318,650.8402481218611 A175.0042448856123,175.0042448856123,0,0,0,493.1306274700233,674.8693725299767" stroke="grey" stroke-width="5" fill="none" />
<circle cx="397.13062747002334" cy="674.8693725299767" r="5" fill="black" stroke="none" />
<circle cx="493.13062747002334" cy="674.8693725299767" r="5" fill="black" stroke="none" />
<path d="M397.13062747002334,730.8693725299767 L405.9946247961073,710.975934371947" stroke="grey" stroke-width="5" />
<circle cx="405.9946247961073" cy="710.975934371947" r="2.5" fill="grey" stroke="none" />
<path d="M405.9946247961073,710.975934371947 A230.97154684363343,230.97154684363343,0,0,0,493.1306274700233,730.8693725299767" stroke="grey" stroke-width="5" fill="none" />
<circle cx="397.13062747002334" cy="730.8693725299767" r="5" fill="black" stroke="none" />
<circle cx="493.13062747002334" cy="730.8693725299767" r="5" fill="black" stroke="none" />
<path d="M541.1306274700233,570.8693725299767 L535.7402485196991,561.5815790435611" stroke="grey" stroke-width="5" />
<circle cx="535.7402485196991" cy="561.5815790435611" r="2.5" fill="grey" stroke="none" />
<path d="M535.7402485196991,561.5815790435611 A71.20151853540915,71.20151853540915,0,0,1,493.1306274700233,570.8693725299767" stroke="grey" stroke-width="5" fill="none" />
<circle cx="541.1306274700233" cy="570.8693725299767" r="5" fill="black" stroke="none" />
<circle cx="493.13062747002334" cy="570.8693725299767" r="5" fill="black" stroke="none" />
<path d="M493.1306274700233,570.8693725299767 A71.20151853540915,71.20151853540915,0,0,1,471.7363111946577,565.3515121237679" stroke="grey" stroke-width="5" fill="none" />
<path d="M471.7363111946577,565.3515121237679 L-54.86937252997669,126.86937252997669" stroke="grey" stroke-width="5" />
<circle cx="471.7363111946577" cy="565.3515121237679" r="2.5" fill="grey" stroke="none" />
<circle cx="493.13062747002334" cy="570.8693725299767" r="5" fill="black" stroke="none" />
<circle cx="445.13062747002334" cy="626.8693725299767" r="5" fill="black" stroke="none" />
<path d="M445.13062747002334,626.8693725299767 A138.22621215957327,138.22621215957327,0,0,0,494.57426106805383,638.1196839158913" stroke="grey" stroke-width="5" fill="none" />
<path d="M494.5742610680539,638.1196839158913 L-6.869372529976687,174.8693725299767" stroke="grey" stroke-width="5" />
<circle cx="494.5742610680539" cy="638.1196839158913" r="2.5" fill="grey" stroke="none" />
<circle cx="445.13062747002334" cy="626.8693725299767" r="5" fill="black" stroke="none" />
<circle cx="493.13062747002334" cy="674.8693725299767" r="5" fill="black" stroke="none" />
<path d="M493.1306274700233,674.8693725299767 A175.0042448856123,175.0042448856123,0,0,0,494.79516256926485,674.9268286893208" stroke="grey" stroke-width="5" fill="none" />
<path d="M494.79516256926485,674.9268286893208 L-6.869372529976687,230.8693725299767" stroke="grey" stroke-width="5" />
<circle cx="494.79516256926485" cy="674.9268286893208" r="2.5" fill="grey" stroke="none" />
<circle cx="493.13062747002334" cy="674.8693725299767" r="5" fill="black" stroke="none" />
<circle cx="493.13062747002334" cy="730.8693725299767" r="5" fill="black" stroke="none" />
<path d="M493.1306274700233,730.8693725299767 A230.97154684363343,230.97154684363343,0,0,0,547.3628042614989,726.0633102116035" stroke="grey" stroke-width="5" fill="none" />
<path d="M547.3628042614989,726.0633102116035 L65.13062747002331,310.86937252997666" stroke="grey" stroke-width="5" />
<circle cx="547.3628042614989" cy="726.0633102116035" r="2.5" fill="grey" stroke="none" />
<circle cx="493.13062747002334" cy="730.8693725299767" r="5" fill="black" stroke="none" />
<circle cx="565.1306274700233" cy="810.8693725299767" r="5" fill="black" stroke="none" />
<path d="M541.1306274700233,570.8693725299767 A81.94020062747254,81.94020062747254,0,0,1,514.5605235644188,580.6361434618525" stroke="grey" stroke-width="5" fill="none" />
<path d="M514.5605235644188,580.6361434618525 L17.130627470023313,94.86937252997669" stroke="grey" stroke-width="5" />
<circle cx="514.5605235644188" cy="580.6361434618525" r="2.5" fill="grey" stroke="none" />
<circle cx="541.1306274700233" cy="570.8693725299767" r="5" fill="black" stroke="none" />
<circle cx="517.1306274700233" cy="594.8693725299767" r="5" fill="black" stroke="none" />
<path d="M517.1306274700233,594.8693725299767 A96.40361114475024,96.40361114475024,0,0,1,494.7878380834173,596.262607537421" stroke="grey" stroke-width="5" fill="none" />
<path d="M494.78783808341734,596.262607537421 L-6.869372529976687,126.86937252997669" stroke="grey" stroke-width="5" />
<circle cx="494.78783808341734" cy="596.262607537421" r="2.5" fill="grey" stroke="none" />
<circle cx="517.1306274700233" cy="594.8693725299767" r="5" fill="black" stroke="none" />
<circle cx="493.13062747002334" cy="626.8693725299767" r="5" fill="black" stroke="none" />
<path d="M493.1306274700233,626.8693725299767 A127.05520833521781,127.05520833521781,0,0,0,495.0127520706775,626.957289366137" stroke="grey" stroke-width="5" fill="none" />
<path d="M495.01275207067755,626.957289366137 L-6.869372529976687,174.8693725299767" stroke="grey" stroke-width="5" />
<circle cx="495.01275207067755" cy="626.957289366137" r="2.5" fill="grey" stroke="none" />
<circle cx="493.13062747002334" cy="626.8693725299767" r="5" fill="black" stroke="none" />
<circle cx="493.13062747002334" cy="674.8693725299767" r="5" fill="black" stroke="none" />
<path d="M493.1306274700233,570.8693725299767 A71.20151853540915,71.20151853540915,0,0,0,512.6522925318495,570.068364726435" stroke="grey" stroke-width="5" fill="none" />
<path d="M512.6522925318495,570.068364726435 L17.130627470023313,94.86937252997669" stroke="grey" stroke-width="5" />
<circle cx="512.6522925318495" cy="570.068364726435" r="2.5" fill="grey" stroke="none" />
<circle cx="493.13062747002334" cy="570.8693725299767" r="5" fill="black" stroke="none" />
<circle cx="517.1306274700233" cy="594.8693725299767" r="5" fill="black" stroke="none" />
<path d="M445.13062747002334,626.8693725299767 L449.56499603728713,616.6161924450748" stroke="grey" stroke-width="5" />
<circle cx="449.56499603728713" cy="616.6161924450748" r="2.5" fill="grey" stroke="none" />
<path d="M449.5649960372872,616.6161924450748 A127.05520833521781,127.05520833521781,0,0,0,493.1306274700233,626.8693725299767" stroke="grey" stroke-width="5" fill="none" />
<circle cx="445.13062747002334" cy="626.8693725299767" r="5" fill="black" stroke="none" />
<circle cx="493.13062747002334" cy="626.8693725299767" r="5" fill="black" stroke="none" />
<path d="M541.1306274700233,570.8693725299767 A81.94020062747254,81.94020062747254,0,0,1,525.2699331601558,577.9463081675567" stroke="grey" stroke-width="5" fill="none" />
<path d="M525.2699331601557,577.9463081675567 L41.13062747002331,126.86937252997669" stroke="grey" stroke-width="5" />
<circle cx="525.2699331601557" cy="577.9463081675567" r="2.5" fill="grey" stroke="none" />
<circle cx="541.1306274700233" cy="570.8693725299767" r="5" fill="black" stroke="none" />
<circle cx="541.1306274700233" cy="626.8693725299767" r="5" fill="black" stroke="none" />
<path d="M517.1306274700233,594.8693725299767 A96.40361114475024,96.40361114475024,0,0,0,529.7303739967743,591.7047496248703" stroke="grey" stroke-width="5" fill="none" />
<path d="M529.7303739967743,591.7047496248703 L41.13062747002331,126.86937252997669" stroke="grey" stroke-width="5" />
<circle cx="529.7303739967743" cy="591.7047496248703" r="2.5" fill="grey" stroke="none" />
<circle cx="517.1306274700233" cy="594.8693725299767" r="5" fill="black" stroke="none" />
<circle cx="541.1306274700233" cy="626.8693725299767" r="5" fill="black" stroke="none" />
<path d="M493.1306274700233,626.8693725299767 A127.05520833521781,127.05520833521781,0,0,0,539.183167696616,620.8623404306092" stroke="grey" stroke-width="5" fill="none" />
<path d="M539.183167696616,620.8623404306092 L41.13062747002331,126.86937252997669" stroke="grey" stroke-width="5" />
<circle cx="539.183167696616" cy="620.8623404306092" r="2.5" fill="grey" stroke="none" />
<circle cx="493.13062747002334" cy="626.8693725299767" r="5" fill="black" stroke="none" />
<circle cx="541.1306274700233" cy="626.8693725299767" r="5" fill="black" stroke="none" />
<path d="M493.13062747002334,674.8693725299767 L494.76487867775626,633.2672491911243" stroke="grey" stroke-width="5" />
<circle cx="494.76487867775626" cy="633.2672491911243" r="2.5" fill="grey" stroke="none" />
<path d="M494.7648786777562,633.2672491911243 A133.37003487375955,133.37003487375955,0,0,0,541.1306274700233,626.8693725299767" stroke="grey" stroke-width="5" fill="none" />
<circle cx="493.13062747002334" cy="674.8693725299767" r="5" fill="black" stroke="none" />
<circle cx="541.1306274700233" cy="626.8693725299767" r="5" fill="black" stroke="none" />
<path d="M541.1306274700233,626.8693725299767 A133.37003487375955,133.37003487375955,0,0,1,527.0122208327688,630.6059191917027" stroke="grey" stroke-width="5" fill="none" />
<path d="M527.0122208327688,630.6059191917027 L41.13062747002331,198.8693725299767" stroke="grey" stroke-width="5" />
<circle cx="527.0122208327688" cy="630.6059191917027" r="2.5" fill="grey" stroke="none" />
<circle cx="541.1306274700233" cy="626.8693725299767" r="5" fill="black" stroke="none" />
<circle cx="541.1306274700233" cy="698.8693725299767" r="5" fill="black" stroke="none" />
<path d="M541.1306274700233,698.8693725299767 A203.0782013081278,203.0782013081278,0,0,1,493.9602092267774,702.9883661049573" stroke="grey" stroke-width="5" fill="none" />
<path d="M493.9602092267774,702.9883661049573 L-6.869372529976687,230.8693725299767" stroke="grey" stroke-width="5" />
<circle cx="493.9602092267774" cy="702.9883661049573" r="2.5" fill="grey" stroke="none" />
<circle cx="541.1306274700233" cy="698.8693725299767" r="5" fill="black" stroke="none" />
<circle cx="493.13062747002334" cy="730.8693725299767" r="5" fill="black" stroke="none" />
<path d="M541.1306274700233,570.8693725299767 A81.94020062747254,81.94020062747254,0,0,0,579.8851308473343,481.76370793240204" stroke="grey" stroke-width="5" fill="none" />
<path d="M579.8851308473343,481.76370793240204 L145.1306274700233,-33.13062747002331" stroke="grey" stroke-width="5" />
<circle cx="579.8851308473343" cy="481.76370793240204" r="2.5" fill="grey" stroke="none" />
<circle cx="541.1306274700233" cy="570.8693725299767" r="5" fill="black" stroke="none" />
<circle cx="645.1306274700233" cy="466.86937252997666" r="5" fill="black" stroke="none" />
<path d="M541.1306274700233,570.8693725299767 A81.94020062747254,81.94020062747254,0,0,0,571.4651595107396,540.0864996597983" stroke="grey" stroke-width="5" fill="none" />
<path d="M571.4651595107396,540.0864996597983 L169.1306274700233,94.86937252997669" stroke="grey" stroke-width="5" />
<circle cx="571.4651595107396" cy="540.0864996597983" r="2.5" fill="grey" stroke="none" />
<circle cx="541.1306274700233" cy="570.8693725299767" r="5" fill="black" stroke="none" />
<circle cx="669.1306274700233" cy="594.8693725299767" r="5" fill="black" stroke="none" />
<path d="M669.1306274700233,594.8693725299767 A193.92103287842528,193.92103287842528,0,0,0,681.9329935011267,567.1249049783631" stroke="grey" stroke-width="5" fill="none" />
<path d="M681.9329935011267,567.1249049783631 L257.13062747002334,94.86937252997669" stroke="grey" stroke-width="5" />
<circle cx="681.9329935011267" cy="567.1249049783631" r="2.5" fill="grey" stroke="none" />
<circle cx="669.1306274700233" cy="594.8693725299767" r="5" fill="black" stroke="none" />
<circle cx="757.1306274700233" cy="594.8693725299767" r="5" fill="black" stroke="none" />
<path d="M541.1306274700233,626.8693725299767 A133.37003487375955,133.37003487375955,0,0,0,555.2716883612179,621.3779496775599" stroke="grey" stroke-width="5" fill="none" />
<path d="M555.2716883612179,621.3779496775599 L105.13062747002331,230.8693725299767" stroke="grey" stroke-width="5" />
<circle cx="555.2716883612179" cy="621.3779496775599" r="2.5" fill="grey" stroke="none" />
<circle cx="541.1306274700233" cy="626.8693725299767" r="5" fill="black" stroke="none" />
<circle cx="605.1306274700233" cy="730.8693725299767" r="5" fill="black" stroke="none" />
<circle cx="500" cy="500" r="5" fill="red" stroke="none" />
</svg>