<?xml version="1.0" encoding="UTF-8"?>
<svg xmlns="http://www.w3.org/2000/svg" xmlns:xlink="http://www.w3.org/1999/xlink"
     width="1000" height="1000" viewBox="0 0 1000 1000">
<defs>
</defs>
<rect x="0" y="0" width="1000" height="1000" fill="white" />
<path d="M256.9126364773775,684.0 L371.51562821641244,597.2536131273644" stroke="grey" stroke-width="5" />
<circle cx="371.51562821641244" cy="597.2536131273644" r="2.5" fill="grey" stroke="none" />
<path d="M371.51562821641244,597.2536131273644 A161.1412394731722,161.1412394731722,0,0,0,376.9126364773775,604.0" stroke="grey" stroke-width="5" fill="none" />
<circle cx="256.9126364773775" cy="684.0" r="5" fill="black" stroke="none" />
<circle cx="376.9126364773775" cy="604.0" r="5" fill="black" stroke="none" />
<path d="M376.9126364773775,604.0 L399.083898680405,585.2668725438166" stroke="grey" stroke-width="5" />
<circle cx="399.083898680405" cy="585.2668725438166" r="2.5" fill="grey" stroke="none" />
<path d="M399.083898680405,585.2668725438166 A132.1154762279962,132.1154762279962,0,0,1,376.9126364773775,548.0" stroke="grey" stroke-width="5" fill="none" />
<circle cx="376.9126364773775" cy="604.0" r="5" fill="black" stroke="none" />
<circle cx="376.9126364773775" cy="548.0" r="5" fill="black" stroke="none" />
<path d="M376.9126364773775,548.0 A132.1154762279962,132.1154762279962,0,0,1,370.7405183749953,527.321886263311" stroke="grey" stroke-width="5" fill="none" />
<path d="M370.7405183749953,527.321886263311 L-227.08736352262252,48.0" stroke="grey" stroke-width="5" />
<circle cx="370.7405183749953" cy="527.321886263311" r="2.5" fill="grey" stroke="none" />
<circle cx="376.9126364773775" cy="548.0" r="5" fill="black" stroke="none" />
<circle cx="272.9126364773775" cy="548.0" r="5" fill="black" stroke="none" />
<path d="M272.9126364773775,548.0 L308.932923039829,540.3863057451656" stroke="grey" stroke-width="5" />
<circle cx="308.932923039829" cy="540.3863057451656" r="2.5" fill="grey" stroke="none" />
<path d="M308.932923039829,540.3863057451657 A195.28871342155418,195.28871342155418,0,0,1,312.9126364773775,444.0" stroke="grey" stroke-width="5" fill="none" />
<circle cx="272.9126364773775" cy="548.0" r="5" fill="black" stroke="none" />
<circle cx="312.9126364773775" cy="444.0" r="5" fill="black" stroke="none" />
<path d="M312.9126364773775,444.0 L344.4191159311964,453.43068957835044" stroke="grey" stroke-width="5" />
<circle cx="344.4191159311964" cy="453.43068957835044" r="2.5" fill="grey" stroke="none" />
<path d="M344.4191159311964,453.43068957835044 A162.4010842352306,162.4010842352306,0,0,1,424.9126364773774,356.0" stroke="grey" stroke-width="5" fill="none" />
<circle cx="312.9126364773775" cy="444.0" r="5" fill="black" stroke="none" />
<circle cx="424.9126364773775" cy="356.0" r="5" fill="black" stroke="none" />
<path d="M424.9126364773775,356.0 L443.1211438572867,390.91965811154046" stroke="grey" stroke-width="5" />
<circle cx="443.1211438572867" cy="390.91965811154046" r="2.5" fill="grey" stroke="none" />
<path d="M443.1211438572867,390.91965811154046 A123.01920688496858,123.01920688496858,0,0,1,472.9126364773775,380.0" stroke="grey" stroke-width="5" fill="none" />
<circle cx="424.9126364773775" cy="356.0" r="5" fill="black" stroke="none" />
<circle cx="472.9126364773775" cy="380.0" r="5" fill="black" stroke="none" />
<path d="M472.9126364773775,380.0 A123.01920688496858,123.01920688496858,0,0,0,431.49573482947824,397.81932219811057" stroke="grey" stroke-width="5" fill="none" />
<path d="M431.49573482947824,397.81932219811057 L-75.08736352262252,-112.0" stroke="grey" stroke-width="5" />
<circle cx="431.49573482947824" cy="397.81932219811057" r="2.5" fill="grey" stroke="none" />
<circle cx="472.9126364773775" cy="380.0" r="5" fill="black" stroke="none" />
<circle cx="424.9126364773775" cy="388.0" r="5" fill="black" stroke="none" />
<path d="M424.9126364773775,356.0 L437.65521990042924,380.43729446388966" stroke="grey" stroke-width="5" />
<circle cx="437.65521990042924" cy="380.43729446388966" r="2.5" fill="grey" stroke="none" />
<path d="M437.65521990042924,380.43729446388966 A134.84106259140225,134.84106259140225,0,0,0,424.9126364773775,388.0" stroke="grey" stroke-width="5" fill="none" />
<circle cx="424.9126364773775" cy="356.0" r="5" fill="black" stroke="none" />
<circle cx="424.9126364773775" cy="388.0" r="5" fill="black" stroke="none" />
<path d="M424.9126364773775,388.0 L431.4577812407891,397.7627107826371" stroke="grey" stroke-width="5" />
<circle cx="431.4577812407891" cy="397.7627107826371" r="2.5" fill="grey" stroke="none" />
<path d="M431.4577812407891,397.7627107826371 A123.08736352262252,123.08736352262252,0,0,0,376.9126364773775,500.0" stroke="grey" stroke-width="5" fill="none" />
<circle cx="424.9126364773775" cy="388.0" r="5" fill="black" stroke="none" />
<circle cx="376.9126364773775" cy="500.0" r="5" fill="black" stroke="none" />
<path d="M312.9126364773775,444.0 L382.0818166040699,464.70409253817076" stroke="grey" stroke-width="5" />
<circle cx="382.0818166040699" cy="464.70409253817076" r="2.5" fill="grey" stroke="none" />
<path d="M382.0818166040699,464.70409253817076 A123.08736352262252,123.08736352262252,0,0,0,376.9126364773775,500.0" stroke="grey" stroke-width="5" fill="none" />
<circle cx="312.9126364773775" cy="444.0" r="5" fill="black" stroke="none" />
<circle cx="376.9126364773775" cy="500.0" r="5" fill="black" stroke="none" />
<path d="M376.9126364773775,500.0 A123.08736352262252,123.08736352262252,0,0,0,385.3238129891422,544.7199194051263" stroke="grey" stroke-width="5" fill="none" />
<path d="M385.3238129891422,544.7199194051263 L-123.08736352262252,48.0" stroke="grey" stroke-width="5" />
<circle cx="385.3238129891422" cy="544.7199194051263" r="2.5" fill="grey" stroke="none" />
<circle cx="376.9126364773775" cy="500.0" r="5" fill="black" stroke="none" />
<circle cx="376.9126364773775" cy="548.0" r="5" fill="black" stroke="none" />
<path d="M472.9126364773775,380.0 A123.01920688496858,123.01920688496858,0,0,1,509.8959648054337,377.37946687778464" stroke="grey" stroke-width="5" fill="none" />
<path d="M509.8959648054337,377.37946687778464 L12.912636477377475,-160.0" stroke="grey" stroke-width="5" />
<circle cx="509.8959648054337" cy="377.37946687778464" r="2.5" fill="grey" stroke="none" />
<circle cx="472.9126364773775" cy="380.0" r="5" fill="black" stroke="none" />
<circle cx="512.9126364773774" cy="340.0" r="5" fill="black" stroke="none" />
<path d="M472.9126364773775,380.0 L486.83772729810823,441.68968408801084" stroke="grey" stroke-width="5" />
<circle cx="486.83772729810823" cy="441.68968408801084" r="2.5" fill="grey" stroke="none" />
<path d="M486.83772729810823,441.68968408801084 A59.777406805873895,59.777406805873895,0,0,1,520.9126364773774,444.0" stroke="grey" stroke-width="5" fill="none" />
<circle cx="472.9126364773775" cy="380.0" r="5" fill="black" stroke="none" />
<circle cx="520.9126364773774" cy="444.0" r="5" fill="black" stroke="none" />
<path d="M424.9126364773775,388.0 L465.35945184727194,448.3303020496033" stroke="grey" stroke-width="5" />
<circle cx="465.35945184727194" cy="448.3303020496033" r="2.5" fill="grey" stroke="none" />
<path d="M465.35945184727194,448.3303020496033 A62.207115851859754,62.207115851859754,0,0,1,472.9126364773775,444.0" stroke="grey" stroke-width="5" fill="none" />
<circle cx="424.9126364773775" cy="388.0" r="5" fill="black" stroke="none" />
<circle cx="472.9126364773775" cy="444.0" r="5" fill="black" stroke="none" />
<path d="M376.9126364773775,500.0 L424.9126364773775,500.0" stroke="grey" stroke-width="5" />
<circle cx="424.9126364773775" cy="500.0" r="2.5" fill="grey" stroke="none" />
<path d="M424.9126364773775,500.0 A75.08736352262252,75.08736352262252,0,0,1,424.9126364773775,500.0" stroke="grey" stroke-width="5" fill="none" />
<circle cx="376.9126364773775" cy="500.0" r="5" fill="black" stroke="none" />
<circle cx="424.9126364773775" cy="500.0" r="5" fill="black" stroke="none" />
<path d="M376.9126364773775,548.0 L448.65075986829817,520.0245050002121" stroke="grey" stroke-width="5" />
<circle cx="448.65075986829817" cy="520.0245050002121" r="2.5" fill="grey" stroke="none" />
<path d="M448.65075986829817,520.0245050002121 A55.11556279860255,55.11556279860255,0,0,0,472.9126364773775,548.0" stroke="grey" stroke-width="5" fill="none" />
<circle cx="376.9126364773775" cy="548.0" r="5" fill="black" stroke="none" />
<circle cx="472.9126364773775" cy="548.0" r="5" fill="black" stroke="none" />
<path d="M376.9126364773775,604.0 L417.909557562636,569.3605401005826" stroke="grey" stroke-width="5" />
<circle cx="417.909557562636" cy="569.3605401005826" r="2.5" fill="grey" stroke="none" />
<path d="M417.909557562636,569.3605401005826 A107.46964809938991,107.46964809938991,0,0,0,472.9126364773775,604.0" stroke="grey" stroke-width="5" fill="none" />
<circle cx="376.9126364773775" cy="604.0" r="5" fill="black" stroke="none" />
<circle cx="472.9126364773775" cy="604.0" r="5" fill="black" stroke="none" />
<path d="M520.9126364773774,444.0 A59.777406805873895,59.777406805873895,0,0,0,473.9706249611959,446.1872691686789" stroke="grey" stroke-width="5" fill="none" />
<path d="M473.9706249611959,446.1872691686789 L-27.087363522622525,-56.0" stroke="grey" stroke-width="5" />
<circle cx="473.9706249611959" cy="446.1872691686789" r="2.5" fill="grey" stroke="none" />
<circle cx="520.9126364773774" cy="444.0" r="5" fill="black" stroke="none" />
<circle cx="472.9126364773775" cy="444.0" r="5" fill="black" stroke="none" />
<path d="M472.9126364773775,444.0 A62.207115851859754,62.207115851859754,0,0,0,437.7928841481403,500.0" stroke="grey" stroke-width="5" fill="none" />
<path d="M437.7928841481403,500.0 L-75.08736352262252,0.0" stroke="grey" stroke-width="5" />
<circle cx="437.7928841481403" cy="500.0" r="2.5" fill="grey" stroke="none" />
<circle cx="472.9126364773775" cy="444.0" r="5" fill="black" stroke="none" />
<circle cx="424.9126364773775" cy="500.0" r="5" fill="black" stroke="none" />
<path d="M424.9126364773775,500.0 L444.8844372013975,500.0" stroke="grey" stroke-width="5" />
<circle cx="444.8844372013975" cy="500.0" r="2.5" fill="grey" stroke="none" />
<path d="M444.8844372013975,500.0 A55.11556279860255,55.11556279860255,0,0,0,472.9126364773775,548.0" stroke="grey" stroke-width="5" fill="none" />
<circle cx="424.9126364773775" cy="500.0" r="5" fill="black" stroke="none" />
<circle cx="472.9126364773775" cy="548.0" r="5" fill="black" stroke="none" />
<path d="M472.9126364773775,548.0 A55.11556279860255,55.11556279860255,0,0,0,486.10830767865747,553.3361617203175" stroke="grey" stroke-width="5" fill="none" />
<path d="M486.10830767865747,553.3361617203175 L-27.087363522622525,104.0" stroke="grey" stroke-width="5" />
<circle cx="486.10830767865747" cy="553.3361617203175" r="2.5" fill="grey" stroke="none" />
<circle cx="472.9126364773775" cy="548.0" r="5" fill="black" stroke="none" />
<circle cx="472.9126364773775" cy="604.0" r="5" fill="black" stroke="none" />
<path d="M472.9126364773775,604.0 A107.46964809938991,107.46964809938991,0,0,0,525.4841205481624,604.4044293241117" stroke="grey" stroke-width="5" fill="none" />
<path d="M525.4841205481624,604.4044293241117 L44.912636477377475,184.0" stroke="grey" stroke-width="5" />
<circle cx="525.4841205481624" cy="604.4044293241117" r="2.5" fill="grey" stroke="none" />
<circle cx="472.9126364773775" cy="604.0" r="5" fill="black" stroke="none" />
<circle cx="544.9126364773774" cy="684.0" r="5" fill="black" stroke="none" />
<path d="M520.9126364773774,444.0 L511.24692092834255,469.8829187477865" stroke="grey" stroke-width="5" />
<circle cx="511.24692092834255" cy="469.8829187477865" r="2.5" fill="grey" stroke="none" />
<path d="M511.24692092834255,469.8829187477865 A32.14858960391295,32.14858960391295,0,0,0,496.9126364773775,468.0" stroke="grey" stroke-width="5" fill="none" />
<circle cx="520.9126364773774" cy="444.0" r="5" fill="black" stroke="none" />
<circle cx="496.9126364773775" cy="468.0" r="5" fill="black" stroke="none" />
<path d="M496.9126364773775,468.0 L497.3986871867753,473.0378332796777" stroke="grey" stroke-width="5" />
<circle cx="497.3986871867753" cy="473.0378332796777" r="2.5" fill="grey" stroke="none" />
<path d="M497.3986871867753,473.0378332796777 A27.087363522622525,27.087363522622525,0,0,0,472.9126364773775,500.0" stroke="grey" stroke-width="5" fill="none" />
<circle cx="496.9126364773775" cy="468.0" r="5" fill="black" stroke="none" />
<circle cx="472.9126364773775" cy="500.0" r="5" fill="black" stroke="none" />
<path d="M472.9126364773775,500.0 A27.087363522622525,27.087363522622525,0,0,0,486.68751210456105,523.5903142971961" stroke="grey" stroke-width="5" fill="none" />
<path d="M486.68751210456105,523.5903142971961 L-27.087363522622525,48.0" stroke="grey" stroke-width="5" />
<circle cx="486.68751210456105" cy="523.5903142971961" r="2.5" fill="grey" stroke="none" />
<circle cx="472.9126364773775" cy="500.0" r="5" fill="black" stroke="none" />
<circle cx="472.9126364773775" cy="548.0" r="5" fill="black" stroke="none" />
<path d="M472.9126364773775,444.0 L486.00127137521423,471.0592430919572" stroke="grey" stroke-width="5" />
<circle cx="486.00127137521423" cy="471.0592430919572" r="2.5" fill="grey" stroke="none" />
<path d="M486.00127137521423,471.0592430919572 A32.14858960391295,32.14858960391295,0,0,1,496.9126364773775,468.0" stroke="grey" stroke-width="5" fill="none" />
<circle cx="472.9126364773775" cy="444.0" r="5" fill="black" stroke="none" />
<circle cx="496.9126364773775" cy="468.0" r="5" fill="black" stroke="none" />
<path d="M424.9126364773775,500.0 L472.9126364773775,500.0" stroke="grey" stroke-width="5" />
<circle cx="472.9126364773775" cy="500.0" r="2.5" fill="grey" stroke="none" />
<path d="M472.9126364773775,500.0 A27.087363522622525,27.087363522622525,0,0,1,472.9126364773775,500.0" stroke="grey" stroke-width="5" fill="none" />
<circle cx="424.9126364773775" cy="500.0" r="5" fill="black" stroke="none" />
<circle cx="472.9126364773775" cy="500.0" r="5" fill="black" stroke="none" />
<path d="M520.9126364773774,444.0 L507.3161146962294,480.4088583745981" stroke="grey" stroke-width="5" />
<circle cx="507.3161146962294" cy="480.4088583745981" r="2.5" fill="grey" stroke="none" />
<path d="M507.3161146962294,480.4088583745981 A20.912636477377475,20.912636477377475,0,0,1,520.9126364773774,500.0" stroke="grey" stroke-width="5" fill="none" />
<circle cx="520.9126364773774" cy="444.0" r="5" fill="black" stroke="none" />
<circle cx="520.9126364773774" cy="500.0" r="5" fill="black" stroke="none" />
<path d="M496.9126364773775,468.0 L497.9916720510108,479.1840209626295" stroke="grey" stroke-width="5" />
<circle cx="497.9916720510108" cy="479.1840209626295" r="2.5" fill="grey" stroke="none" />
<path d="M497.9916720510109,479.1840209626295 A20.912636477377475,20.912636477377475,0,0,1,520.9126364773774,500.0" stroke="grey" stroke-width="5" fill="none" />
<circle cx="496.9126364773775" cy="468.0" r="5" fill="black" stroke="none" />
<circle cx="520.9126364773774" cy="500.0" r="5" fill="black" stroke="none" />
<path d="M472.9126364773775,500.0 L520.9126364773774,500.0" stroke="grey" stroke-width="5" />
<circle cx="472.9126364773775" cy="500.0" r="5" fill="black" stroke="none" />
<circle cx="520.9126364773774" cy="500.0" r="5" fill="black" stroke="none" />
<path d="M472.9126364773775,548.0 L489.7221735982429,518.2127606059676" stroke="grey" stroke-width="5" />
<circle cx="489.7221735982429" cy="518.2127606059676" r="2.5" fill="grey" stroke="none" />
<path d="M489.7221735982429,518.2127606059676 A20.912636477377475,20.912636477377475,0,0,0,520.9126364773774,500.0" stroke="grey" stroke-width="5" fill="none" />
<circle cx="472.9126364773775" cy="548.0" r="5" fill="black" stroke="none" />
<circle cx="520.9126364773774" cy="500.0" r="5" fill="black" stroke="none" />
<path d="M520.9126364773774,500.0 A20.912636477377475,20.912636477377475,0,0,1,505.83307704396583,520.0826685635674" stroke="grey" stroke-width="5" fill="none" />
<path d="M505.83307704396583,520.0826685635674 L20.912636477377475,72.0" stroke="grey" stroke-width="5" />
<circle cx="505.83307704396583" cy="520.0826685635674" r="2.5" fill="grey" stroke="none" />
<circle cx="520.9126364773774" cy="500.0" r="5" fill="black" stroke="none" />
<circle cx="520.9126364773774" cy="572.0" r="5" fill="black" stroke="none" />
<path d="M520.9126364773775,572.0 A74.97558512232457,74.97558512232457,0,0,1,481.1026558154212,572.5550049769449" stroke="grey" stroke-width="5" fill="none" />
<path d="M481.1026558154212,572.5550049769449 L-27.087363522622525,104.0" stroke="grey" stroke-width="5" />
<circle cx="481.1026558154212" cy="572.5550049769449" r="2.5" fill="grey" stroke="none" />
<circle cx="520.9126364773774" cy="572.0" r="5" fill="black" stroke="none" />
<circle cx="472.9126364773775" cy="604.0" r="5" fill="black" stroke="none" />
<path d="M520.9126364773774,444.0 A59.777406805873895,59.777406805873895,0,0,1,536.7856257438698,452.8814675200206" stroke="grey" stroke-width="5" fill="none" />
<path d="M536.7856257438699,452.8814675200206 L124.91263647737748,-160.0" stroke="grey" stroke-width="5" />
<circle cx="536.7856257438699" cy="452.8814675200206" r="2.5" fill="grey" stroke="none" />
<circle cx="520.9126364773774" cy="444.0" r="5" fill="black" stroke="none" />
<circle cx="624.9126364773774" cy="340.0" r="5" fill="black" stroke="none" />
<path d="M520.9126364773774,444.0 A59.777406805873895,59.777406805873895,0,0,1,558.4432341855959,487.4410692189767" stroke="grey" stroke-width="5" fill="none" />
<path d="M558.4432341855959,487.4410692189767 L148.91263647737748,-32.0" stroke="grey" stroke-width="5" />
<circle cx="558.4432341855959" cy="487.4410692189767" r="2.5" fill="grey" stroke="none" />
<circle cx="520.9126364773774" cy="444.0" r="5" fill="black" stroke="none" />
<circle cx="648.9126364773774" cy="468.0" r="5" fill="black" stroke="none" />
<path d="M648.9126364773774,468.0 A152.3120917808024,152.3120917808024,0,0,1,650.9414167081878,479.6122089286561" stroke="grey" stroke-width="5" fill="none" />
<path d="M650.9414167081878,479.6122089286561 L236.91263647737748,-32.0" stroke="grey" stroke-width="5" />
<circle cx="650.9414167081878" cy="479.6122089286561" r="2.5" fill="grey" stroke="none" />
<circle cx="648.9126364773774" cy="468.0" r="5" fill="black" stroke="none" />
<circle cx="736.9126364773774" cy="468.0" r="5" fill="black" stroke="none" />
<path d="M520.9126364773774,500.0 A20.912636477377475,20.912636477377475,0,0,1,513.2260315167435,516.1990880839955" stroke="grey" stroke-width="5" fill="none" />
<path d="M513.2260315167435,516.1990880839955 L84.91263647737748,104.0" stroke="grey" stroke-width="5" />
<circle cx="513.2260315167435" cy="516.1990880839955" r="2.5" fill="grey" stroke="none" />
<circle cx="520.9126364773774" cy="500.0" r="5" fill="black" stroke="none" />
<circle cx="584.9126364773774" cy="604.0" r="5" fill="black" stroke="none" />
<circle cx="500" cy="500" r="5" fill="red" stroke="none" />
</svg>