<?xml version="1.0" encoding="UTF-8"?>
<svg xmlns="http://www.w3.org/2000/svg" xmlns:xlink="http://www.w3.org/1999/xlink"
     width="1000" height="1000" viewBox="0 0 1000 1000">
<defs>
</defs>
<rect x="0" y="0" width="1000" height="1000" fill="white" />
<path d="M365.3454563737136,718.1939351280016 L427.0169635556169,618.2615565025883" stroke="grey" stroke-width="5" />
<circle cx="427.0169635556169" cy="618.2615565025883" r="2.5" fill="grey" stroke="none" />
<path d="M427.0169635556169,618.2615565025883 A138.96877115041724,138.96877115041724,0,0,0,485.3454563737136,638.1939351280016" stroke="grey" stroke-width="5" fill="none" />
<circle cx="365.3454563737136" cy="718.1939351280016" r="5" fill="black" stroke="none" />
<circle cx="485.3454563737136" cy="638.1939351280016" r="5" fill="black" stroke="none" />
<path d="M485.3454563737136,638.1939351280016 L491.19579555428504,583.02460240675" stroke="grey" stroke-width="5" />
<circle cx="491.19579555428504" cy="583.02460240675" r="2.5" fill="grey" stroke="none" />
<path d="M491.195795554285,583.02460240675 A83.4901109157298,83.4901109157298,0,0,1,485.3454563737136,582.1939351280016" stroke="grey" stroke-width="5" fill="none" />
<circle cx="485.3454563737136" cy="638.1939351280016" r="5" fill="black" stroke="none" />
<circle cx="485.3454563737136" cy="582.1939351280016" r="5" fill="black" stroke="none" />
<path d="M485.3454563737136,582.1939351280016 A83.4901109157298,83.4901109157298,0,0,1,431.3682093358002,547.5423593329814" stroke="grey" stroke-width="5" fill="none" />
<path d="M431.3682093358002,547.5423593329814 L381.3454563737136,582.1939351280016" stroke="grey" stroke-width="5" />
<circle cx="431.3682093358002" cy="547.5423593329814" r="2.5" fill="grey" stroke="none" />
<circle cx="485.3454563737136" cy="582.1939351280016" r="5" fill="black" stroke="none" />
<circle cx="381.3454563737136" cy="582.1939351280016" r="5" fill="black" stroke="none" />
<path d="M381.3454563737136,582.1939351280016 L432.9044116531279,546.4782069646438" stroke="grey" stroke-width="5" />
<circle cx="432.9044116531279" cy="546.4782069646438" r="2.5" fill="grey" stroke="none" />
<path d="M432.9044116531279,546.4782069646438 A81.62133114732443,81.62133114732443,0,0,1,421.3454563737136,478.1939351280016" stroke="grey" stroke-width="5" fill="none" />
<circle cx="381.3454563737136" cy="582.1939351280016" r="5" fill="black" stroke="none" />
<circle cx="421.3454563737136" cy="478.1939351280016" r="5" fill="black" stroke="none" />
<path d="M421.3454563737136,478.1939351280016 A81.62133114732443,81.62133114732443,0,0,1,523.7169662817726,421.9004019943095" stroke="grey" stroke-width="5" fill="none" />
<path d="M523.7169662817726,421.9004019943095 L533.3454563737137,390.1939351280016" stroke="grey" stroke-width="5" />
<circle cx="523.7169662817726" cy="421.9004019943095" r="2.5" fill="grey" stroke="none" />
<circle cx="421.3454563737136" cy="478.1939351280016" r="5" fill="black" stroke="none" />
<circle cx="533.3454563737137" cy="390.1939351280016" r="5" fill="black" stroke="none" />
<path d="M533.3454563737135,390.19393512800156 A114.75753283965616,114.75753283965616,0,0,1,578.9522629259519,416.71836023278524" stroke="grey" stroke-width="5" fill="none" />
<path d="M578.9522629259519,416.71836023278524 L581.3454563737137,414.1939351280016" stroke="grey" stroke-width="5" />
<circle cx="578.9522629259519" cy="416.71836023278524" r="2.5" fill="grey" stroke="none" />
<circle cx="533.3454563737137" cy="390.1939351280016" r="5" fill="black" stroke="none" />
<circle cx="581.3454563737137" cy="414.1939351280016" r="5" fill="black" stroke="none" />
<path d="M581.3454563737137,414.1939351280016 L558.2388495235556,438.5676013995097" stroke="grey" stroke-width="5" />
<circle cx="558.2388495235556" cy="438.5676013995097" r="2.5" fill="grey" stroke="none" />
<path d="M558.2388495235556,438.5676013995097 A84.65047661789545,84.65047661789545,0,0,0,533.3454563737137,422.19393512800156" stroke="grey" stroke-width="5" fill="none" />
<circle cx="581.3454563737137" cy="414.1939351280016" r="5" fill="black" stroke="none" />
<circle cx="533.3454563737137" cy="422.1939351280016" r="5" fill="black" stroke="none" />
<path d="M533.3454563737137,390.1939351280016 L524.5971545852253,419.00195571529275" stroke="grey" stroke-width="5" />
<circle cx="524.5971545852253" cy="419.00195571529275" r="2.5" fill="grey" stroke="none" />
<path d="M524.5971545852253,419.00195571529275 A84.65047661789545,84.65047661789545,0,0,1,533.3454563737137,422.19393512800156" stroke="grey" stroke-width="5" fill="none" />
<circle cx="533.3454563737137" cy="390.1939351280016" r="5" fill="black" stroke="none" />
<circle cx="533.3454563737137" cy="422.1939351280016" r="5" fill="black" stroke="none" />
<path d="M533.3454563737137,422.1939351280016 L485.3454563737136,534.1939351280016" stroke="grey" stroke-width="5" />
<circle cx="533.3454563737137" cy="422.1939351280016" r="5" fill="black" stroke="none" />
<circle cx="485.3454563737136" cy="534.1939351280016" r="5" fill="black" stroke="none" />
<path d="M421.3454563737136,478.1939351280016 L464.1503283419941,490.0610920898782" stroke="grey" stroke-width="5" />
<circle cx="464.1503283419941" cy="490.0610920898782" r="2.5" fill="grey" stroke="none" />
<path d="M464.1503283419941,490.0610920898782 A37.20189307592709,37.20189307592709,0,0,0,485.3454563737136,534.1939351280016" stroke="grey" stroke-width="5" fill="none" />
<circle cx="421.3454563737136" cy="478.1939351280016" r="5" fill="black" stroke="none" />
<circle cx="485.3454563737136" cy="534.1939351280016" r="5" fill="black" stroke="none" />
<path d="M485.3454563737136,534.1939351280016 A37.20189307592709,37.20189307592709,0,0,0,493.4701636028261,536.6243373326926" stroke="grey" stroke-width="5" fill="none" />
<path d="M493.4701636028261,536.6243373326926 L485.3454563737136,582.1939351280016" stroke="grey" stroke-width="5" />
<circle cx="493.4701636028261" cy="536.6243373326926" r="2.5" fill="grey" stroke="none" />
<circle cx="485.3454563737136" cy="534.1939351280016" r="5" fill="black" stroke="none" />
<circle cx="485.3454563737136" cy="582.1939351280016" r="5" fill="black" stroke="none" />
<path d="M581.3454563737137,414.1939351280016 A118.23605220686854,118.23605220686854,0,0,1,582.0832284224206,414.8994262462463" stroke="grey" stroke-width="5" fill="none" />
<path d="M582.0832284224206,414.8994262462463 L621.3454563737137,374.1939351280016" stroke="grey" stroke-width="5" />
<circle cx="582.0832284224206" cy="414.8994262462463" r="2.5" fill="grey" stroke="none" />
<circle cx="581.3454563737137" cy="414.1939351280016" r="5" fill="black" stroke="none" />
<circle cx="621.3454563737137" cy="374.1939351280016" r="5" fill="black" stroke="none" />
<path d="M581.3454563737137,414.1939351280016 A118.23605220686854,118.23605220686854,0,0,1,616.590797883628,480.3442148382637" stroke="grey" stroke-width="5" fill="none" />
<path d="M616.590797883628,480.3442148382637 L629.3454563737137,478.1939351280016" stroke="grey" stroke-width="5" />
<circle cx="616.590797883628" cy="480.3442148382637" r="2.5" fill="grey" stroke="none" />
<circle cx="581.3454563737137" cy="414.1939351280016" r="5" fill="black" stroke="none" />
<circle cx="629.3454563737137" cy="478.1939351280016" r="5" fill="black" stroke="none" />
<path d="M533.3454563737137,422.1939351280016 L533.1748995374738,422.59190107922774" stroke="grey" stroke-width="5" />
<circle cx="533.1748995374738" cy="422.59190107922774" r="2.5" fill="grey" stroke="none" />
<path d="M533.1748995374738,422.59190107922774 A84.21750256241006,84.21750256241006,0,0,1,581.3454563737135,478.1939351280016" stroke="grey" stroke-width="5" fill="none" />
<circle cx="533.3454563737137" cy="422.1939351280016" r="5" fill="black" stroke="none" />
<circle cx="581.3454563737137" cy="478.1939351280016" r="5" fill="black" stroke="none" />
<path d="M485.3454563737136,534.1939351280016 A37.20189307592709,37.20189307592709,0,0,0,525.9731899839621,526.6340806203203" stroke="grey" stroke-width="5" fill="none" />
<path d="M525.9731899839621,526.6340806203203 L533.3454563737137,534.1939351280016" stroke="grey" stroke-width="5" />
<circle cx="525.9731899839621" cy="526.6340806203203" r="2.5" fill="grey" stroke="none" />
<circle cx="485.3454563737136" cy="534.1939351280016" r="5" fill="black" stroke="none" />
<circle cx="533.3454563737137" cy="534.1939351280016" r="5" fill="black" stroke="none" />
<path d="M485.3454563737136,582.1939351280016 A83.4901109157298,83.4901109157298,0,0,0,558.7293390653513,559.3419190258275" stroke="grey" stroke-width="5" fill="none" />
<path d="M558.7293390653513,559.3419190258275 L581.3454563737137,582.1939351280016" stroke="grey" stroke-width="5" />
<circle cx="558.7293390653513" cy="559.3419190258275" r="2.5" fill="grey" stroke="none" />
<circle cx="485.3454563737136" cy="582.1939351280016" r="5" fill="black" stroke="none" />
<circle cx="581.3454563737137" cy="582.1939351280016" r="5" fill="black" stroke="none" />
<path d="M485.3454563737136,638.1939351280016 A138.96877115041724,138.96877115041724,0,0,0,570.495311513499,619.7611389795194" stroke="grey" stroke-width="5" fill="none" />
<path d="M570.495311513499,619.7611389795194 L581.3454563737137,638.1939351280016" stroke="grey" stroke-width="5" />
<circle cx="570.495311513499" cy="619.7611389795194" r="2.5" fill="grey" stroke="none" />
<circle cx="485.3454563737136" cy="638.1939351280016" r="5" fill="black" stroke="none" />
<circle cx="581.3454563737137" cy="638.1939351280016" r="5" fill="black" stroke="none" />
<path d="M629.3454563737137,478.1939351280016 L583.0456162587225,485.99952293460836" stroke="grey" stroke-width="5" />
<circle cx="583.0456162587225" cy="485.99952293460836" r="2.5" fill="grey" stroke="none" />
<path d="M583.0456162587225,485.99952293460836 A84.21750256241006,84.21750256241006,0,0,0,581.3454563737135,478.1939351280016" stroke="grey" stroke-width="5" fill="none" />
<circle cx="629.3454563737137" cy="478.1939351280016" r="5" fill="black" stroke="none" />
<circle cx="581.3454563737137" cy="478.1939351280016" r="5" fill="black" stroke="none" />
<path d="M581.3454563737137,478.1939351280016 L546.1325387488484,487.6333703502038" stroke="grey" stroke-width="5" />
<circle cx="546.1325387488484" cy="487.6333703502038" r="2.5" fill="grey" stroke="none" />
<path d="M546.1325387488484,487.6333703502038 A47.761330177343446,47.761330177343446,0,0,1,533.3454563737137,534.1939351280016" stroke="grey" stroke-width="5" fill="none" />
<circle cx="581.3454563737137" cy="478.1939351280016" r="5" fill="black" stroke="none" />
<circle cx="533.3454563737137" cy="534.1939351280016" r="5" fill="black" stroke="none" />
<path d="M533.3454563737137,534.1939351280016 A47.761330177343446,47.761330177343446,0,0,0,533.5966897568096,533.9471220826434" stroke="grey" stroke-width="5" fill="none" />
<path d="M533.5966897568096,533.9471220826435 L581.3454563737137,582.1939351280016" stroke="grey" stroke-width="5" />
<circle cx="533.5966897568096" cy="533.9471220826435" r="2.5" fill="grey" stroke="none" />
<circle cx="533.3454563737137" cy="534.1939351280016" r="5" fill="black" stroke="none" />
<circle cx="581.3454563737137" cy="582.1939351280016" r="5" fill="black" stroke="none" />
<path d="M581.3454563737137,582.1939351280016 A115.64136908768366,115.64136908768366,0,0,1,558.661915696585,599.6579444463945" stroke="grey" stroke-width="5" fill="none" />
<path d="M558.661915696585,599.6579444463945 L581.3454563737137,638.1939351280016" stroke="grey" stroke-width="5" />
<circle cx="558.661915696585" cy="599.6579444463945" r="2.5" fill="grey" stroke="none" />
<circle cx="581.3454563737137" cy="582.1939351280016" r="5" fill="black" stroke="none" />
<circle cx="581.3454563737137" cy="638.1939351280016" r="5" fill="black" stroke="none" />
<path d="M581.3454563737137,638.1939351280016 A160.35787158356166,160.35787158356166,0,0,0,592.2050850353571,631.1978249531318" stroke="grey" stroke-width="5" fill="none" />
<path d="M592.2050850353571,631.1978249531318 L653.3454563737137,718.1939351280016" stroke="grey" stroke-width="5" />
<circle cx="592.2050850353571" cy="631.1978249531318" r="2.5" fill="grey" stroke="none" />
<circle cx="581.3454563737137" cy="638.1939351280016" r="5" fill="black" stroke="none" />
<circle cx="653.3454563737137" cy="718.1939351280016" r="5" fill="black" stroke="none" />
<path d="M629.3454563737137,478.1939351280016 L603.9020998734499,482.48337441687084" stroke="grey" stroke-width="5" />
<circle cx="603.9020998734499" cy="482.48337441687084" r="2.5" fill="grey" stroke="none" />
<path d="M603.9020998734499,482.48337441687084 A105.36829945449378,105.36829945449378,0,0,1,605.3454563737135,502.1939351280016" stroke="grey" stroke-width="5" fill="none" />
<circle cx="629.3454563737137" cy="478.1939351280016" r="5" fill="black" stroke="none" />
<circle cx="605.3454563737137" cy="502.1939351280016" r="5" fill="black" stroke="none" />
<path d="M605.3454563737137,502.1939351280016 L588.2209318023249,501.8372980474785" stroke="grey" stroke-width="5" />
<circle cx="588.2209318023249" cy="501.8372980474785" r="2.5" fill="grey" stroke="none" />
<path d="M588.2209318023249,501.8372980474785 A88.24006160574528,88.24006160574528,0,0,1,581.3454563737137,534.1939351280016" stroke="grey" stroke-width="5" fill="none" />
<circle cx="605.3454563737137" cy="502.1939351280016" r="5" fill="black" stroke="none" />
<circle cx="581.3454563737137" cy="534.1939351280016" r="5" fill="black" stroke="none" />
<path d="M581.3454563737137,534.1939351280016 A88.24006160574528,88.24006160574528,0,0,1,562.0705906406329,562.718021729872" stroke="grey" stroke-width="5" fill="none" />
<path d="M562.0705906406329,562.718021729872 L581.3454563737137,582.1939351280016" stroke="grey" stroke-width="5" />
<circle cx="562.0705906406329" cy="562.718021729872" r="2.5" fill="grey" stroke="none" />
<circle cx="581.3454563737137" cy="534.1939351280016" r="5" fill="black" stroke="none" />
<circle cx="581.3454563737137" cy="582.1939351280016" r="5" fill="black" stroke="none" />
<path d="M581.3454563737135,478.1939351280016 A84.21750256241006,84.21750256241006,0,0,1,584.1992448205266,501.7535419876832" stroke="grey" stroke-width="5" fill="none" />
<path d="M584.1992448205266,501.7535419876832 L605.3454563737137,502.1939351280016" stroke="grey" stroke-width="5" />
<circle cx="584.1992448205266" cy="501.7535419876832" r="2.5" fill="grey" stroke="none" />
<circle cx="581.3454563737137" cy="478.1939351280016" r="5" fill="black" stroke="none" />
<circle cx="605.3454563737137" cy="502.1939351280016" r="5" fill="black" stroke="none" />
<path d="M533.3454563737137,534.1939351280016 A47.761330177343446,47.761330177343446,0,0,0,544.0295159544478,518.508008675334" stroke="grey" stroke-width="5" fill="none" />
<path d="M544.0295159544478,518.508008675334 L581.3454563737137,534.1939351280016" stroke="grey" stroke-width="5" />
<circle cx="544.0295159544478" cy="518.508008675334" r="2.5" fill="grey" stroke="none" />
<circle cx="533.3454563737137" cy="534.1939351280016" r="5" fill="black" stroke="none" />
<circle cx="581.3454563737137" cy="534.1939351280016" r="5" fill="black" stroke="none" />
<path d="M629.3454563737137,478.1939351280016 A131.17069623100295,131.17069623100295,0,0,1,626.8142003719252,533.5247689590142" stroke="grey" stroke-width="5" fill="none" />
<path d="M626.8142003719252,533.5247689590142 L629.3454563737137,534.1939351280016" stroke="grey" stroke-width="5" />
<circle cx="626.8142003719252" cy="533.5247689590142" r="2.5" fill="grey" stroke="none" />
<circle cx="629.3454563737137" cy="478.1939351280016" r="5" fill="black" stroke="none" />
<circle cx="629.3454563737137" cy="534.1939351280016" r="5" fill="black" stroke="none" />
<path d="M605.3454563737135,502.1939351280016 A105.36829945449378,105.36829945449378,0,0,1,601.8687635562992,526.9301604422011" stroke="grey" stroke-width="5" fill="none" />
<path d="M601.8687635562992,526.9301604422011 L629.3454563737137,534.1939351280016" stroke="grey" stroke-width="5" />
<circle cx="601.8687635562992" cy="526.9301604422011" r="2.5" fill="grey" stroke="none" />
<circle cx="605.3454563737137" cy="502.1939351280016" r="5" fill="black" stroke="none" />
<circle cx="629.3454563737137" cy="534.1939351280016" r="5" fill="black" stroke="none" />
<path d="M581.3454563737137,534.1939351280016 A88.24006160574528,88.24006160574528,0,0,0,585.3093958851547,522.5525042045374" stroke="grey" stroke-width="5" fill="none" />
<path d="M585.3093958851547,522.5525042045374 L629.3454563737137,534.1939351280016" stroke="grey" stroke-width="5" />
<circle cx="585.3093958851547" cy="522.5525042045374" r="2.5" fill="grey" stroke="none" />
<circle cx="581.3454563737137" cy="534.1939351280016" r="5" fill="black" stroke="none" />
<circle cx="629.3454563737137" cy="534.1939351280016" r="5" fill="black" stroke="none" />
<path d="M581.3454563737137,582.1939351280016 A115.64136908768366,115.64136908768366,0,0,0,611.8006397171437,529.5557642992244" stroke="grey" stroke-width="5" fill="none" />
<path d="M611.8006397171437,529.5557642992244 L629.3454563737137,534.1939351280016" stroke="grey" stroke-width="5" />
<circle cx="611.8006397171437" cy="529.5557642992244" r="2.5" fill="grey" stroke="none" />
<circle cx="581.3454563737137" cy="582.1939351280016" r="5" fill="black" stroke="none" />
<circle cx="629.3454563737137" cy="534.1939351280016" r="5" fill="black" stroke="none" />
<path d="M629.3454563737137,534.1939351280016 A133.7889094210063,133.7889094210063,0,0,1,603.4034198323251,584.8952592966307" stroke="grey" stroke-width="5" fill="none" />
<path d="M603.4034198323251,584.8952592966307 L629.3454563737137,606.1939351280016" stroke="grey" stroke-width="5" />
<circle cx="603.4034198323251" cy="584.8952592966307" r="2.5" fill="grey" stroke="none" />
<circle cx="629.3454563737137" cy="534.1939351280016" r="5" fill="black" stroke="none" />
<circle cx="629.3454563737137" cy="606.1939351280016" r="5" fill="black" stroke="none" />
<path d="M629.3454563737137,606.1939351280016 L623.9381678984641,601.754496297619" stroke="grey" stroke-width="5" />
<circle cx="623.9381678984641" cy="601.754496297619" r="2.5" fill="grey" stroke="none" />
<path d="M623.9381678984641,601.754496297619 A160.35787158356166,160.35787158356166,0,0,1,581.3454563737137,638.1939351280016" stroke="grey" stroke-width="5" fill="none" />
<circle cx="629.3454563737137" cy="606.1939351280016" r="5" fill="black" stroke="none" />
<circle cx="581.3454563737137" cy="638.1939351280016" r="5" fill="black" stroke="none" />
<path d="M629.3454563737137,478.1939351280016 A131.17069623100295,131.17069623100295,0,0,0,615.4592514676433,437.7512024191828" stroke="grey" stroke-width="5" fill="none" />
<path d="M615.4592514676433,437.7512024191828 L733.3454563737137,374.1939351280016" stroke="grey" stroke-width="5" />
<circle cx="615.4592514676433" cy="437.7512024191828" r="2.5" fill="grey" stroke="none" />
<circle cx="629.3454563737137" cy="478.1939351280016" r="5" fill="black" stroke="none" />
<circle cx="733.3454563737137" cy="374.1939351280016" r="5" fill="black" stroke="none" />
<path d="M629.3454563737137,478.1939351280016 A131.17069623100295,131.17069623100295,0,0,1,631.165929751723,501.11822273816017" stroke="grey" stroke-width="5" fill="none" />
<path d="M631.165929751723,501.11822273816017 L757.3454563737137,502.1939351280016" stroke="grey" stroke-width="5" />
<circle cx="631.165929751723" cy="501.11822273816017" r="2.5" fill="grey" stroke="none" />
<circle cx="629.3454563737137" cy="478.1939351280016" r="5" fill="black" stroke="none" />
<circle cx="757.3454563737137" cy="502.1939351280016" r="5" fill="black" stroke="none" />
<path d="M757.3454563737137,502.1939351280016 A257.3548081298284,257.3548081298284,0,0,0,757.349614999569,501.6349089009419" stroke="grey" stroke-width="5" fill="none" />
<path d="M757.349614999569,501.6349089009419 L845.3454563737137,502.1939351280016" stroke="grey" stroke-width="5" />
<circle cx="757.349614999569" cy="501.6349089009419" r="2.5" fill="grey" stroke="none" />
<circle cx="757.3454563737137" cy="502.1939351280016" r="5" fill="black" stroke="none" />
<circle cx="845.3454563737137" cy="502.1939351280016" r="5" fill="black" stroke="none" />
<path d="M629.3454563737137,534.1939351280016 A133.7889094210063,133.7889094210063,0,0,1,608.8445348870972,577.7967834121289" stroke="grey" stroke-width="5" fill="none" />
<path d="M608.8445348870972,577.7967834121289 L693.3454563737137,638.1939351280016" stroke="grey" stroke-width="5" />
<circle cx="608.8445348870972" cy="577.7967834121289" r="2.5" fill="grey" stroke="none" />
<circle cx="629.3454563737137" cy="534.1939351280016" r="5" fill="black" stroke="none" />
<circle cx="693.3454563737137" cy="638.1939351280016" r="5" fill="black" stroke="none" />
<circle cx="500" cy="500" r="5" fill="red" stroke="none" />
</svg>