<?xml version="1.0" encoding="UTF-8"?>
<svg xmlns="http://www.w3.org/2000/svg" xmlns:xlink="http://www.w3.org/1999/xlink"
     width="1000" height="1000" viewBox="0 0 1000 1000">
<defs>
</defs>
<rect x="0" y="0" width="1000" height="1000" fill="white" />
<path d="M184.92418257614617,601.0017966862374 L313.16202926153096,559.8934278361642" stroke="grey" stroke-width="5" />
<circle cx="313.16202926153096" cy="559.8934278361642" r="2.5" fill="grey" stroke="none" />
<path d="M313.16202926153096,559.8934278361643 A196.20308358340043,196.20308358340043,0,0,1,304.92418257614617,521.0017966862374" stroke="grey" stroke-width="5" fill="none" />
<circle cx="184.92418257614617" cy="601.0017966862374" r="5" fill="black" stroke="none" />
<circle cx="304.92418257614617" cy="521.0017966862374" r="5" fill="black" stroke="none" />
<path d="M304.92418257614617,521.0017966862374 A196.20308358340043,196.20308358340043,0,0,1,306.8803028374742,465.3527407218243" stroke="grey" stroke-width="5" fill="none" />
<path d="M306.8803028374742,465.3527407218243 L304.92418257614617,465.00179668623747" stroke="grey" stroke-width="5" />
<circle cx="306.8803028374742" cy="465.3527407218243" r="2.5" fill="grey" stroke="none" />
<circle cx="304.92418257614617" cy="521.0017966862374" r="5" fill="black" stroke="none" />
<circle cx="304.92418257614617" cy="465.00179668623747" r="5" fill="black" stroke="none" />
<path d="M304.92418257614617,465.00179668623747 A198.19043563899902,198.19043563899902,0,0,0,303.1527899173719,476.9647083486688" stroke="grey" stroke-width="5" fill="none" />
<path d="M303.1527899173719,476.9647083486688 L200.92418257614617,465.00179668623747" stroke="grey" stroke-width="5" />
<circle cx="303.1527899173719" cy="476.9647083486688" r="2.5" fill="grey" stroke="none" />
<circle cx="304.92418257614617" cy="465.00179668623747" r="5" fill="black" stroke="none" />
<circle cx="200.92418257614617" cy="465.00179668623747" r="5" fill="black" stroke="none" />
<path d="M200.92418257614617,465.00179668623747 L207.98449645116165,465.82800290573454" stroke="grey" stroke-width="5" />
<circle cx="207.98449645116165" cy="465.82800290573454" r="2.5" fill="grey" stroke="none" />
<path d="M207.98449645116165,465.82800290573454 A294.0081286262203,294.0081286262203,0,0,1,240.92418257614617,361.0017966862375" stroke="grey" stroke-width="5" fill="none" />
<circle cx="200.92418257614617" cy="465.00179668623747" r="5" fill="black" stroke="none" />
<circle cx="240.92418257614617" cy="361.00179668623747" r="5" fill="black" stroke="none" />
<path d="M240.92418257614617,361.00179668623747 L261.656756362828,372.1251448052327" stroke="grey" stroke-width="5" />
<circle cx="261.656756362828" cy="372.1251448052327" r="2.5" fill="grey" stroke="none" />
<path d="M261.656756362828,372.1251448052327 A270.48009238864705,270.48009238864705,0,0,1,352.9241825761462,273.0017966862375" stroke="grey" stroke-width="5" fill="none" />
<circle cx="240.92418257614617" cy="361.00179668623747" r="5" fill="black" stroke="none" />
<circle cx="352.92418257614617" cy="273.00179668623747" r="5" fill="black" stroke="none" />
<path d="M352.92418257614617,273.00179668623747 L377.17283103435443,310.4273893445964" stroke="grey" stroke-width="5" />
<circle cx="377.17283103435443" cy="310.4273893445964" r="2.5" fill="grey" stroke="none" />
<path d="M377.17283103435443,310.4273893445964 A225.885564272754,225.885564272754,0,0,1,400.92418257614617,297.00179668623747" stroke="grey" stroke-width="5" fill="none" />
<circle cx="352.92418257614617" cy="273.00179668623747" r="5" fill="black" stroke="none" />
<circle cx="400.92418257614617" cy="297.00179668623747" r="5" fill="black" stroke="none" />
<path d="M400.92418257614617,297.00179668623747 A225.885564272754,225.885564272754,0,0,0,363.9795661084305,319.65940637014177" stroke="grey" stroke-width="5" fill="none" />
<path d="M363.9795661084305,319.65940637014177 L352.92418257614617,305.00179668623747" stroke="grey" stroke-width="5" />
<circle cx="363.9795661084305" cy="319.65940637014177" r="2.5" fill="grey" stroke="none" />
<circle cx="400.92418257614617" cy="297.00179668623747" r="5" fill="black" stroke="none" />
<circle cx="352.92418257614617" cy="305.00179668623747" r="5" fill="black" stroke="none" />
<path d="M352.92418257614617,273.00179668623747 L367.1897614156942,295.0194255699579" stroke="grey" stroke-width="5" />
<circle cx="367.1897614156942" cy="295.0194255699579" r="2.5" fill="grey" stroke="none" />
<path d="M367.1897614156942,295.0194255699579 A244.24494952094764,244.24494952094764,0,0,0,352.9241825761461,305.00179668623747" stroke="grey" stroke-width="5" fill="none" />
<circle cx="352.92418257614617" cy="273.00179668623747" r="5" fill="black" stroke="none" />
<circle cx="352.92418257614617" cy="305.00179668623747" r="5" fill="black" stroke="none" />
<path d="M352.92418257614617,305.00179668623747 L372.3419979897542,330.7466076568936" stroke="grey" stroke-width="5" />
<circle cx="372.3419979897542" cy="330.7466076568936" r="2.5" fill="grey" stroke="none" />
<path d="M372.3419979897542,330.7466076568936 A211.99829314618884,211.99829314618884,0,0,0,304.92418257614617,417.00179668623747" stroke="grey" stroke-width="5" fill="none" />
<circle cx="352.92418257614617" cy="305.00179668623747" r="5" fill="black" stroke="none" />
<circle cx="304.92418257614617" cy="417.00179668623747" r="5" fill="black" stroke="none" />
<path d="M240.92418257614617,361.00179668623747 L313.1900932605288,399.7735811231016" stroke="grey" stroke-width="5" />
<circle cx="313.1900932605288" cy="399.7735811231016" r="2.5" fill="grey" stroke="none" />
<path d="M313.1900932605288,399.7735811231016 A211.99829314618884,211.99829314618884,0,0,0,304.92418257614617,417.00179668623747" stroke="grey" stroke-width="5" fill="none" />
<circle cx="240.92418257614617" cy="361.00179668623747" r="5" fill="black" stroke="none" />
<circle cx="304.92418257614617" cy="417.00179668623747" r="5" fill="black" stroke="none" />
<path d="M304.92418257614617,417.00179668623747 L317.62984661764733,422.40762966584043" stroke="grey" stroke-width="5" />
<circle cx="317.62984661764733" cy="422.40762966584043" r="2.5" fill="grey" stroke="none" />
<path d="M317.62984661764733,422.40762966584043 A198.19043563899902,198.19043563899902,0,0,0,304.92418257614617,465.00179668623747" stroke="grey" stroke-width="5" fill="none" />
<circle cx="304.92418257614617" cy="417.00179668623747" r="5" fill="black" stroke="none" />
<circle cx="304.92418257614617" cy="465.00179668623747" r="5" fill="black" stroke="none" />
<path d="M400.92418257614617,297.00179668623747 A225.885564272754,225.885564272754,0,0,1,446.638755660402,280.50770913457984" stroke="grey" stroke-width="5" fill="none" />
<path d="M446.638755660402,280.50770913457984 L440.92418257614617,257.00179668623747" stroke="grey" stroke-width="5" />
<circle cx="446.638755660402" cy="280.50770913457984" r="2.5" fill="grey" stroke="none" />
<circle cx="400.92418257614617" cy="297.00179668623747" r="5" fill="black" stroke="none" />
<circle cx="440.92418257614617" cy="257.00179668623747" r="5" fill="black" stroke="none" />
<path d="M400.92418257614617,297.00179668623747 L435.0482325053416,366.9191691140728" stroke="grey" stroke-width="5" />
<circle cx="435.0482325053416" cy="366.9191691140728" r="2.5" fill="grey" stroke="none" />
<path d="M435.0482325053416,366.9191691140728 A148.08524453830273,148.08524453830273,0,0,1,448.92418257614617,361.0017966862374" stroke="grey" stroke-width="5" fill="none" />
<circle cx="400.92418257614617" cy="297.00179668623747" r="5" fill="black" stroke="none" />
<circle cx="448.92418257614617" cy="361.00179668623747" r="5" fill="black" stroke="none" />
<path d="M352.92418257614617,305.00179668623747 L397.21387246560164,363.7225986851038" stroke="grey" stroke-width="5" />
<circle cx="397.21387246560164" cy="363.7225986851038" r="2.5" fill="grey" stroke="none" />
<path d="M397.21387246560164,363.7225986851038 A170.694224045979,170.694224045979,0,0,1,400.9241825761461,361.0017966862375" stroke="grey" stroke-width="5" fill="none" />
<circle cx="352.92418257614617" cy="305.00179668623747" r="5" fill="black" stroke="none" />
<circle cx="400.92418257614617" cy="361.00179668623747" r="5" fill="black" stroke="none" />
<path d="M304.92418257614617,417.00179668623747 L344.60186043102067,433.8833149446567" stroke="grey" stroke-width="5" />
<circle cx="344.60186043102067" cy="433.8833149446567" r="2.5" fill="grey" stroke="none" />
<path d="M344.60186043102067,433.8833149446567 A168.8786482187948,168.8786482187948,0,0,1,352.9241825761462,417.0017966862374" stroke="grey" stroke-width="5" fill="none" />
<circle cx="304.92418257614617" cy="417.00179668623747" r="5" fill="black" stroke="none" />
<circle cx="352.92418257614617" cy="417.00179668623747" r="5" fill="black" stroke="none" />
<path d="M304.92418257614617,465.00179668623747 L396.57564509900965,481.44482156619694" stroke="grey" stroke-width="5" />
<circle cx="396.57564509900965" cy="481.44482156619694" r="2.5" fill="grey" stroke="none" />
<path d="M396.57564509900965,481.44482156619694 A105.07564814644864,105.07564814644864,0,0,1,400.92418257614617,465.0017966862375" stroke="grey" stroke-width="5" fill="none" />
<circle cx="304.92418257614617" cy="465.00179668623747" r="5" fill="black" stroke="none" />
<circle cx="400.92418257614617" cy="465.00179668623747" r="5" fill="black" stroke="none" />
<path d="M304.92418257614617,521.0017966862374 L399.30457140500704,510.840835868398" stroke="grey" stroke-width="5" />
<circle cx="399.30457140500704" cy="510.840835868398" r="2.5" fill="grey" stroke="none" />
<path d="M399.30457140500704,510.840835868398 A101.27730773601199,101.27730773601199,0,0,0,400.92418257614617,521.0017966862375" stroke="grey" stroke-width="5" fill="none" />
<circle cx="304.92418257614617" cy="521.0017966862374" r="5" fill="black" stroke="none" />
<circle cx="400.92418257614617" cy="521.0017966862374" r="5" fill="black" stroke="none" />
<path d="M448.92418257614617,361.0017966862374 A148.08524453830273,148.08524453830273,0,0,0,414.047081949934,379.41253991957717" stroke="grey" stroke-width="5" fill="none" />
<path d="M414.04708194993407,379.41253991957717 L400.92418257614617,361.00179668623747" stroke="grey" stroke-width="5" />
<circle cx="414.04708194993407" cy="379.41253991957717" r="2.5" fill="grey" stroke="none" />
<circle cx="448.92418257614617" cy="361.00179668623747" r="5" fill="black" stroke="none" />
<circle cx="400.92418257614617" cy="361.00179668623747" r="5" fill="black" stroke="none" />
<path d="M400.92418257614617,361.00179668623747 L401.97799479608875,362.4802402561296" stroke="grey" stroke-width="5" />
<circle cx="401.97799479608875" cy="362.4802402561296" r="2.5" fill="grey" stroke="none" />
<path d="M401.9779947960887,362.4802402561296 A168.8786482187948,168.8786482187948,0,0,0,352.9241825761462,417.0017966862374" stroke="grey" stroke-width="5" fill="none" />
<circle cx="400.92418257614617" cy="361.00179668623747" r="5" fill="black" stroke="none" />
<circle cx="352.92418257614617" cy="417.00179668623747" r="5" fill="black" stroke="none" />
<path d="M352.92418257614617,417.00179668623747 L408.4899896731867,448.3588357665825" stroke="grey" stroke-width="5" />
<circle cx="408.4899896731867" cy="448.3588357665825" r="2.5" fill="grey" stroke="none" />
<path d="M408.4899896731867,448.35883576658244 A105.07564814644864,105.07564814644864,0,0,0,400.92418257614617,465.0017966862375" stroke="grey" stroke-width="5" fill="none" />
<circle cx="352.92418257614617" cy="417.00179668623747" r="5" fill="black" stroke="none" />
<circle cx="400.92418257614617" cy="465.00179668623747" r="5" fill="black" stroke="none" />
<path d="M400.92418257614617,465.00179668623747 L404.5056373437967,466.2669336830996" stroke="grey" stroke-width="5" />
<circle cx="404.5056373437967" cy="466.2669336830996" r="2.5" fill="grey" stroke="none" />
<path d="M404.5056373437967,466.26693368309964 A101.27730773601199,101.27730773601199,0,0,0,400.92418257614617,521.0017966862375" stroke="grey" stroke-width="5" fill="none" />
<circle cx="400.92418257614617" cy="465.00179668623747" r="5" fill="black" stroke="none" />
<circle cx="400.92418257614617" cy="521.0017966862374" r="5" fill="black" stroke="none" />
<path d="M400.92418257614617,521.0017966862375 A101.27730773601199,101.27730773601199,0,0,0,473.77623775869745,597.8233477047606" stroke="grey" stroke-width="5" fill="none" />
<path d="M473.77623775869745,597.8233477047606 L472.92418257614617,601.0017966862374" stroke="grey" stroke-width="5" />
<circle cx="473.77623775869745" cy="597.8233477047606" r="2.5" fill="grey" stroke="none" />
<circle cx="400.92418257614617" cy="521.0017966862374" r="5" fill="black" stroke="none" />
<circle cx="472.92418257614617" cy="601.0017966862374" r="5" fill="black" stroke="none" />
<path d="M448.92418257614617,361.00179668623747 L452.63195124772824,371.09215274214023" stroke="grey" stroke-width="5" />
<circle cx="452.63195124772824" cy="371.09215274214023" r="2.5" fill="grey" stroke="none" />
<path d="M452.6319512477283,371.09215274214023 A137.33522901008794,137.33522901008794,0,0,0,424.9241825761461,385.00179668623747" stroke="grey" stroke-width="5" fill="none" />
<circle cx="448.92418257614617" cy="361.00179668623747" r="5" fill="black" stroke="none" />
<circle cx="424.92418257614617" cy="385.00179668623747" r="5" fill="black" stroke="none" />
<path d="M424.92418257614617,385.00179668623747 L429.3458452403513,391.77472676533876" stroke="grey" stroke-width="5" />
<circle cx="429.3458452403513" cy="391.77472676533876" r="2.5" fill="grey" stroke="none" />
<path d="M429.34584524035125,391.77472676533876 A129.24673826258626,129.24673826258626,0,0,0,400.92418257614617,417.00179668623747" stroke="grey" stroke-width="5" fill="none" />
<circle cx="424.92418257614617" cy="385.00179668623747" r="5" fill="black" stroke="none" />
<circle cx="400.92418257614617" cy="417.00179668623747" r="5" fill="black" stroke="none" />
<path d="M400.92418257614617,417.00179668623747 L419.45285527979763,432.523712973971" stroke="grey" stroke-width="5" />
<circle cx="419.45285527979763" cy="432.523712973971" r="2.5" fill="grey" stroke="none" />
<path d="M419.45285527979763,432.523712973971 A105.07564814644864,105.07564814644864,0,0,0,400.92418257614617,465.0017966862375" stroke="grey" stroke-width="5" fill="none" />
<circle cx="400.92418257614617" cy="417.00179668623747" r="5" fill="black" stroke="none" />
<circle cx="400.92418257614617" cy="465.00179668623747" r="5" fill="black" stroke="none" />
<path d="M400.92418257614617,361.00179668623747 L420.28669891254503,388.1663970132678" stroke="grey" stroke-width="5" />
<circle cx="420.28669891254503" cy="388.1663970132678" r="2.5" fill="grey" stroke="none" />
<path d="M420.286698912545,388.1663970132678 A137.33522901008794,137.33522901008794,0,0,1,424.9241825761461,385.00179668623747" stroke="grey" stroke-width="5" fill="none" />
<circle cx="400.92418257614617" cy="361.00179668623747" r="5" fill="black" stroke="none" />
<circle cx="424.92418257614617" cy="385.00179668623747" r="5" fill="black" stroke="none" />
<path d="M352.92418257614617,417.00179668623747 L387.439472782201,436.4795539690675" stroke="grey" stroke-width="5" />
<circle cx="387.439472782201" cy="436.4795539690675" r="2.5" fill="grey" stroke="none" />
<path d="M387.439472782201,436.47955396906747 A129.24673826258626,129.24673826258626,0,0,1,400.92418257614617,417.00179668623747" stroke="grey" stroke-width="5" fill="none" />
<circle cx="352.92418257614617" cy="417.00179668623747" r="5" fill="black" stroke="none" />
<circle cx="400.92418257614617" cy="417.00179668623747" r="5" fill="black" stroke="none" />
<path d="M448.92418257614617,361.00179668623747 L466.38703382965855,408.52536207199836" stroke="grey" stroke-width="5" />
<circle cx="466.38703382965855" cy="408.52536207199836" r="2.5" fill="grey" stroke="none" />
<path d="M466.38703382965855,408.52536207199836 A97.45481454924386,97.45481454924386,0,0,0,448.92418257614617,417.00179668623747" stroke="grey" stroke-width="5" fill="none" />
<circle cx="448.92418257614617" cy="361.00179668623747" r="5" fill="black" stroke="none" />
<circle cx="448.92418257614617" cy="417.00179668623747" r="5" fill="black" stroke="none" />
<path d="M424.92418257614617,385.00179668623747 L446.72525092860815,418.3958212454304" stroke="grey" stroke-width="5" />
<circle cx="446.72525092860815" cy="418.3958212454304" r="2.5" fill="grey" stroke="none" />
<path d="M446.72525092860815,418.3958212454304 A97.45481454924386,97.45481454924386,0,0,1,448.92418257614617,417.00179668623747" stroke="grey" stroke-width="5" fill="none" />
<circle cx="424.92418257614617" cy="385.00179668623747" r="5" fill="black" stroke="none" />
<circle cx="448.92418257614617" cy="417.00179668623747" r="5" fill="black" stroke="none" />
<path d="M400.92418257614617,417.00179668623747 L425.2947072928074,437.4175733902864" stroke="grey" stroke-width="5" />
<circle cx="425.2947072928074" cy="437.4175733902864" r="2.5" fill="grey" stroke="none" />
<path d="M425.2947072928074,437.4175733902864 A97.45481454924386,97.45481454924386,0,0,1,448.92418257614617,417.00179668623747" stroke="grey" stroke-width="5" fill="none" />
<circle cx="400.92418257614617" cy="417.00179668623747" r="5" fill="black" stroke="none" />
<circle cx="448.92418257614617" cy="417.00179668623747" r="5" fill="black" stroke="none" />
<path d="M400.92418257614617,465.00179668623747 L408.10986576167267,467.5401153962357" stroke="grey" stroke-width="5" />
<circle cx="408.10986576167267" cy="467.5401153962357" r="2.5" fill="grey" stroke="none" />
<path d="M408.1098657616726,467.54011539623576 A97.45481454924386,97.45481454924386,0,0,1,448.92418257614617,417.00179668623747" stroke="grey" stroke-width="5" fill="none" />
<circle cx="400.92418257614617" cy="465.00179668623747" r="5" fill="black" stroke="none" />
<circle cx="448.92418257614617" cy="417.00179668623747" r="5" fill="black" stroke="none" />
<path d="M448.92418257614617,417.00179668623747 L472.6177296086955,455.50381061413015" stroke="grey" stroke-width="5" />
<circle cx="472.6177296086955" cy="455.50381061413015" r="2.5" fill="grey" stroke="none" />
<path d="M472.6177296086955,455.50381061413015 A52.24652717306393,52.24652717306393,0,0,0,448.92418257614617,489.00179668623747" stroke="grey" stroke-width="5" fill="none" />
<circle cx="448.92418257614617" cy="417.00179668623747" r="5" fill="black" stroke="none" />
<circle cx="448.92418257614617" cy="489.00179668623747" r="5" fill="black" stroke="none" />
<path d="M448.92418257614617,489.00179668623747 A52.24652717306393,52.24652717306393,0,0,0,448.88916872946953,510.83432178223774" stroke="grey" stroke-width="5" fill="none" />
<path d="M448.88916872946953,510.83432178223774 L400.92418257614617,521.0017966862374" stroke="grey" stroke-width="5" />
<circle cx="448.88916872946953" cy="510.83432178223774" r="2.5" fill="grey" stroke="none" />
<circle cx="448.92418257614617" cy="489.00179668623747" r="5" fill="black" stroke="none" />
<circle cx="400.92418257614617" cy="521.0017966862374" r="5" fill="black" stroke="none" />
<path d="M448.92418257614617,361.0017966862374 A148.08524453830273,148.08524453830273,0,0,1,531.5136906856355,355.3067833333607" stroke="grey" stroke-width="5" fill="none" />
<path d="M531.5136906856355,355.3067833333607 L552.9241825761462,257.00179668623747" stroke="grey" stroke-width="5" />
<circle cx="531.5136906856355" cy="355.3067833333607" r="2.5" fill="grey" stroke="none" />
<circle cx="448.92418257614617" cy="361.00179668623747" r="5" fill="black" stroke="none" />
<circle cx="552.9241825761462" cy="257.00179668623747" r="5" fill="black" stroke="none" />
<path d="M448.92418257614617,361.00179668623747 L452.2804599290187,370.1356010069898" stroke="grey" stroke-width="5" />
<circle cx="452.2804599290187" cy="370.1356010069898" r="2.5" fill="grey" stroke="none" />
<path d="M452.2804599290187,370.1356010069898 A138.35431554672132,138.35431554672132,0,0,1,576.9241825761461,385.00179668623747" stroke="grey" stroke-width="5" fill="none" />
<circle cx="448.92418257614617" cy="361.00179668623747" r="5" fill="black" stroke="none" />
<circle cx="576.9241825761462" cy="385.00179668623747" r="5" fill="black" stroke="none" />
<path d="M576.9241825761461,385.00179668623747 A138.35431554672132,138.35431554672132,0,0,1,613.4891468160602,420.8663776554841" stroke="grey" stroke-width="5" fill="none" />
<path d="M613.4891468160602,420.8663776554841 L664.9241825761462,385.00179668623747" stroke="grey" stroke-width="5" />
<circle cx="613.4891468160602" cy="420.8663776554841" r="2.5" fill="grey" stroke="none" />
<circle cx="576.9241825761462" cy="385.00179668623747" r="5" fill="black" stroke="none" />
<circle cx="664.9241825761462" cy="385.00179668623747" r="5" fill="black" stroke="none" />
<path d="M448.92418257614617,417.00179668623747 L512.9241825761462,521.0017966862374" stroke="grey" stroke-width="5" />
<circle cx="448.92418257614617" cy="417.00179668623747" r="5" fill="black" stroke="none" />
<circle cx="512.9241825761462" cy="521.0017966862374" r="5" fill="black" stroke="none" />
<circle cx="500" cy="500" r="5" fill="red" stroke="none" />
</svg>