<?xml version="1.0" encoding="UTF-8"?>
<svg xmlns="http://www.w3.org/2000/svg" xmlns:xlink="http://www.w3.org/1999/xlink"
     width="1000" height="1000" viewBox="0 0 1000 1000">
<defs>
</defs>
<rect x="0" y="0" width="1000" height="1000" fill="white" />
<path d="M333.3582819320703,684.0 L423.4874897722848,584.4824576050082" stroke="grey" stroke-width="5" />
<circle cx="423.4874897722848" cy="584.4824576050082" r="2.5" fill="grey" stroke="none" />
<path d="M423.4874897722848,584.4824576050082 A113.98004151748778,113.98004151748778,0,0,0,453.3582819320703,604.0" stroke="grey" stroke-width="5" fill="none" />
<circle cx="333.3582819320703" cy="684.0" r="5" fill="black" stroke="none" />
<circle cx="453.3582819320703" cy="604.0" r="5" fill="black" stroke="none" />
<path d="M453.3582819320703,604.0 L472.6121419214936,561.0684459782614" stroke="grey" stroke-width="5" />
<circle cx="472.6121419214936" cy="561.0684459782614" r="2.5" fill="grey" stroke="none" />
<path d="M472.6121419214936,561.0684459782614 A66.9286923847182,66.9286923847182,0,0,1,453.3582819320704,548.0" stroke="grey" stroke-width="5" fill="none" />
<circle cx="453.3582819320703" cy="604.0" r="5" fill="black" stroke="none" />
<circle cx="453.3582819320703" cy="548.0" r="5" fill="black" stroke="none" />
<path d="M453.3582819320704,548.0 A66.9286923847182,66.9286923847182,0,0,1,436.23031270514446,520.319371216762" stroke="grey" stroke-width="5" fill="none" />
<path d="M436.23031270514446,520.319371216762 L-150.64171806792967,48.0" stroke="grey" stroke-width="5" />
<circle cx="436.23031270514446" cy="520.319371216762" r="2.5" fill="grey" stroke="none" />
<circle cx="453.3582819320703" cy="548.0" r="5" fill="black" stroke="none" />
<circle cx="349.3582819320703" cy="548.0" r="5" fill="black" stroke="none" />
<path d="M349.3582819320703,548.0 L381.84663825218513,537.6480130247697" stroke="grey" stroke-width="5" />
<circle cx="381.84663825218513" cy="537.6480130247697" r="2.5" fill="grey" stroke="none" />
<path d="M381.84663825218513,537.6480130247697 A124.00641022553324,124.00641022553324,0,0,1,389.3582819320703,443.99999999999994" stroke="grey" stroke-width="5" fill="none" />
<circle cx="349.3582819320703" cy="548.0" r="5" fill="black" stroke="none" />
<circle cx="389.3582819320703" cy="444.0" r="5" fill="black" stroke="none" />
<path d="M389.3582819320703,443.99999999999994 A124.00641022553324,124.00641022553324,0,0,1,501.16964009663263,375.99910597472456" stroke="grey" stroke-width="5" fill="none" />
<path d="M501.16964009663263,375.99910597472456 L1.3582819320703265,-144.0" stroke="grey" stroke-width="5" />
<circle cx="501.16964009663263" cy="375.99910597472456" r="2.5" fill="grey" stroke="none" />
<circle cx="389.3582819320703" cy="444.0" r="5" fill="black" stroke="none" />
<circle cx="501.3582819320703" cy="356.0" r="5" fill="black" stroke="none" />
<path d="M501.3582819320703,356.0 L501.2238569721877,370.25123442052575" stroke="grey" stroke-width="5" />
<circle cx="501.2238569721877" cy="370.25123442052575" r="2.5" fill="grey" stroke="none" />
<path d="M501.2238569721877,370.25123442052575 A129.75453747474785,129.75453747474785,0,0,1,549.3582819320703,380.0" stroke="grey" stroke-width="5" fill="none" />
<circle cx="501.3582819320703" cy="356.0" r="5" fill="black" stroke="none" />
<circle cx="549.3582819320703" cy="380.0" r="5" fill="black" stroke="none" />
<path d="M549.3582819320703,380.0 L542.6076359127841,396.41219042893795" stroke="grey" stroke-width="5" />
<circle cx="542.6076359127841" cy="396.41219042893795" r="2.5" fill="grey" stroke="none" />
<path d="M542.6076359127841,396.41219042893795 A112.0082359909618,112.0082359909618,0,0,0,501.3582819320703,388.0" stroke="grey" stroke-width="5" fill="none" />
<circle cx="549.3582819320703" cy="380.0" r="5" fill="black" stroke="none" />
<circle cx="501.3582819320703" cy="388.0" r="5" fill="black" stroke="none" />
<path d="M501.3582819320703,356.0 L501.05647219147664,387.9967464922754" stroke="grey" stroke-width="5" />
<circle cx="501.05647219147664" cy="387.9967464922754" r="2.5" fill="grey" stroke="none" />
<path d="M501.05647219147664,387.9967464922754 A112.0082359909618,112.0082359909618,0,0,1,501.3582819320703,388.0" stroke="grey" stroke-width="5" fill="none" />
<circle cx="501.3582819320703" cy="356.0" r="5" fill="black" stroke="none" />
<circle cx="501.3582819320703" cy="388.0" r="5" fill="black" stroke="none" />
<path d="M501.3582819320703,388.0 L500.5656066482245,453.36171150816403" stroke="grey" stroke-width="5" />
<circle cx="500.5656066482245" cy="453.36171150816403" r="2.5" fill="grey" stroke="none" />
<path d="M500.5656066482245,453.36171150816403 A46.64171806792967,46.64171806792967,0,0,0,453.3582819320703,500.0" stroke="grey" stroke-width="5" fill="none" />
<circle cx="501.3582819320703" cy="388.0" r="5" fill="black" stroke="none" />
<circle cx="453.3582819320703" cy="500.0" r="5" fill="black" stroke="none" />
<path d="M389.3582819320703,444.0 L458.38505597178255,478.93708714691707" stroke="grey" stroke-width="5" />
<circle cx="458.38505597178255" cy="478.93708714691707" r="2.5" fill="grey" stroke="none" />
<path d="M458.38505597178255,478.937087146917 A46.64171806792967,46.64171806792967,0,0,0,453.3582819320703,500.0" stroke="grey" stroke-width="5" fill="none" />
<circle cx="389.3582819320703" cy="444.0" r="5" fill="black" stroke="none" />
<circle cx="453.3582819320703" cy="500.0" r="5" fill="black" stroke="none" />
<path d="M453.3582819320703,500.0 A46.64171806792967,46.64171806792967,0,0,0,467.496005273443,533.4505633905349" stroke="grey" stroke-width="5" fill="none" />
<path d="M467.49600527344296,533.4505633905349 L-46.64171806792967,48.0" stroke="grey" stroke-width="5" />
<circle cx="467.49600527344296" cy="533.4505633905349" r="2.5" fill="grey" stroke="none" />
<circle cx="453.3582819320703" cy="500.0" r="5" fill="black" stroke="none" />
<circle cx="453.3582819320703" cy="548.0" r="5" fill="black" stroke="none" />
<path d="M549.3582819320703,380.0 A129.75453747474785,129.75453747474785,0,0,1,563.2681765432035,386.71550047696826" stroke="grey" stroke-width="5" fill="none" />
<path d="M563.2681765432035,386.71550047696826 L89.35828193207033,-160.0" stroke="grey" stroke-width="5" />
<circle cx="563.2681765432035" cy="386.71550047696826" r="2.5" fill="grey" stroke="none" />
<circle cx="549.3582819320703" cy="380.0" r="5" fill="black" stroke="none" />
<circle cx="589.3582819320703" cy="340.0" r="5" fill="black" stroke="none" />
<path d="M549.3582819320703,380.0 L542.7242872075562,396.12858745847956" stroke="grey" stroke-width="5" />
<circle cx="542.7242872075562" cy="396.12858745847956" r="2.5" fill="grey" stroke="none" />
<path d="M542.7242872075562,396.12858745847956 A112.31489242644757,112.31489242644757,0,0,1,597.3582819320703,444.0" stroke="grey" stroke-width="5" fill="none" />
<circle cx="549.3582819320703" cy="380.0" r="5" fill="black" stroke="none" />
<circle cx="597.3582819320703" cy="444.0" r="5" fill="black" stroke="none" />
<path d="M501.3582819320703,388.0 L500.90522152564176,425.3580508743558" stroke="grey" stroke-width="5" />
<circle cx="500.90522152564176" cy="425.3580508743558" r="2.5" fill="grey" stroke="none" />
<path d="M500.90522152564176,425.3580508743558 A74.64743796866534,74.64743796866534,0,0,1,549.3582819320703,444.0" stroke="grey" stroke-width="5" fill="none" />
<circle cx="501.3582819320703" cy="388.0" r="5" fill="black" stroke="none" />
<circle cx="549.3582819320703" cy="444.0" r="5" fill="black" stroke="none" />
<path d="M453.3582819320703,500.0 L501.3582819320703,500.0" stroke="grey" stroke-width="5" />
<circle cx="453.3582819320703" cy="500.0" r="5" fill="black" stroke="none" />
<circle cx="501.3582819320703" cy="500.0" r="5" fill="black" stroke="none" />
<path d="M453.3582819320704,548.0 A66.9286923847182,66.9286923847182,0,0,0,547.9813219581247,546.6609323468683" stroke="grey" stroke-width="5" fill="none" />
<path d="M547.9813219581247,546.6609323468683 L49.35828193207033,48.0" stroke="grey" stroke-width="5" />
<circle cx="547.9813219581247" cy="546.6609323468683" r="2.5" fill="grey" stroke="none" />
<circle cx="453.3582819320703" cy="548.0" r="5" fill="black" stroke="none" />
<circle cx="549.3582819320703" cy="548.0" r="5" fill="black" stroke="none" />
<path d="M453.3582819320703,604.0 A113.98004151748778,113.98004151748778,0,0,0,548.870209300628,602.9716102002928" stroke="grey" stroke-width="5" fill="none" />
<path d="M548.870209300628,602.9716102002928 L49.35828193207033,104.0" stroke="grey" stroke-width="5" />
<circle cx="548.870209300628" cy="602.9716102002928" r="2.5" fill="grey" stroke="none" />
<circle cx="453.3582819320703" cy="604.0" r="5" fill="black" stroke="none" />
<circle cx="549.3582819320703" cy="604.0" r="5" fill="black" stroke="none" />
<path d="M597.3582819320703,444.0 L564.7068803989587,462.78092391903584" stroke="grey" stroke-width="5" />
<circle cx="564.7068803989587" cy="462.78092391903584" r="2.5" fill="grey" stroke="none" />
<path d="M564.7068803989587,462.78092391903584 A74.64743796866534,74.64743796866534,0,0,0,549.3582819320703,444.0" stroke="grey" stroke-width="5" fill="none" />
<circle cx="597.3582819320703" cy="444.0" r="5" fill="black" stroke="none" />
<circle cx="549.3582819320703" cy="444.0" r="5" fill="black" stroke="none" />
<path d="M549.3582819320703,444.0 L500.8981214140867,498.98102613745607" stroke="grey" stroke-width="5" />
<circle cx="500.8981214140867" cy="498.98102613745607" r="2.5" fill="grey" stroke="none" />
<path d="M500.8981214140867,498.98102613745607 A1.3582819320703265,1.3582819320703265,0,0,1,501.3582819320703,500.0" stroke="grey" stroke-width="5" fill="none" />
<circle cx="549.3582819320703" cy="444.0" r="5" fill="black" stroke="none" />
<circle cx="501.3582819320703" cy="500.0" r="5" fill="black" stroke="none" />
<path d="M501.3582819320703,500.0 A1.3582819320703265,1.3582819320703265,0,0,1,500.97375520677963,500.9469586074683" stroke="grey" stroke-width="5" fill="none" />
<path d="M500.97375520677963,500.9469586074683 L49.35828193207033,48.0" stroke="grey" stroke-width="5" />
<circle cx="500.97375520677963" cy="500.9469586074683" r="2.5" fill="grey" stroke="none" />
<circle cx="501.3582819320703" cy="500.0" r="5" fill="black" stroke="none" />
<circle cx="549.3582819320703" cy="548.0" r="5" fill="black" stroke="none" />
<path d="M549.3582819320703,548.0 A68.84940083461684,68.84940083461684,0,0,1,529.5199456344671,562.1997813904827" stroke="grey" stroke-width="5" fill="none" />
<path d="M529.5199456344671,562.1997813904827 L49.35828193207033,104.0" stroke="grey" stroke-width="5" />
<circle cx="529.5199456344671" cy="562.1997813904827" r="2.5" fill="grey" stroke="none" />
<circle cx="549.3582819320703" cy="548.0" r="5" fill="black" stroke="none" />
<circle cx="549.3582819320703" cy="604.0" r="5" fill="black" stroke="none" />
<path d="M549.3582819320703,604.0 A115.11837383878274,115.11837383878274,0,0,0,563.3823270169586,596.0984943544959" stroke="grey" stroke-width="5" fill="none" />
<path d="M563.3823270169586,596.0984943544959 L121.35828193207033,184.0" stroke="grey" stroke-width="5" />
<circle cx="563.3823270169586" cy="596.0984943544959" r="2.5" fill="grey" stroke="none" />
<circle cx="549.3582819320703" cy="604.0" r="5" fill="black" stroke="none" />
<circle cx="621.3582819320703" cy="684.0" r="5" fill="black" stroke="none" />
<path d="M597.3582819320703,444.0 L569.3761117619184,460.0952052401854" stroke="grey" stroke-width="5" />
<circle cx="569.3761117619184" cy="460.0952052401854" r="2.5" fill="grey" stroke="none" />
<path d="M569.3761117619184,460.0952052401854 A80.03397733478648,80.03397733478648,0,0,1,573.3582819320703,468.0" stroke="grey" stroke-width="5" fill="none" />
<circle cx="597.3582819320703" cy="444.0" r="5" fill="black" stroke="none" />
<circle cx="573.3582819320703" cy="468.0" r="5" fill="black" stroke="none" />
<path d="M573.3582819320703,468.0 L545.2412697985665,480.26506898164934" stroke="grey" stroke-width="5" />
<circle cx="545.2412697985665" cy="480.26506898164934" r="2.5" fill="grey" stroke="none" />
<path d="M545.2412697985665,480.26506898164934 A49.35828193207033,49.35828193207033,0,0,1,549.3582819320703,500.0" stroke="grey" stroke-width="5" fill="none" />
<circle cx="573.3582819320703" cy="468.0" r="5" fill="black" stroke="none" />
<circle cx="549.3582819320703" cy="500.0" r="5" fill="black" stroke="none" />
<path d="M549.3582819320703,500.0 A49.35828193207033,49.35828193207033,0,0,1,535.3850573244324,534.4113021176528" stroke="grey" stroke-width="5" fill="none" />
<path d="M535.3850573244324,534.4113021176528 L49.35828193207033,48.0" stroke="grey" stroke-width="5" />
<circle cx="535.3850573244324" cy="534.4113021176528" r="2.5" fill="grey" stroke="none" />
<circle cx="549.3582819320703" cy="500.0" r="5" fill="black" stroke="none" />
<circle cx="549.3582819320703" cy="548.0" r="5" fill="black" stroke="none" />
<path d="M549.3582819320703,444.0 A74.64743796866534,74.64743796866534,0,0,1,568.4210379437429,470.1537010336853" stroke="grey" stroke-width="5" fill="none" />
<path d="M568.4210379437429,470.1537010336853 L73.35828193207033,-32.0" stroke="grey" stroke-width="5" />
<circle cx="568.4210379437429" cy="470.1537010336853" r="2.5" fill="grey" stroke="none" />
<circle cx="549.3582819320703" cy="444.0" r="5" fill="black" stroke="none" />
<circle cx="573.3582819320703" cy="468.0" r="5" fill="black" stroke="none" />
<path d="M501.3582819320703,500.0 A1.3582819320703265,1.3582819320703265,0,0,1,501.3582819320703,500.0" stroke="grey" stroke-width="5" fill="none" />
<path d="M501.3582819320703,500.0 L49.35828193207033,0.0" stroke="grey" stroke-width="5" />
<circle cx="501.3582819320703" cy="500.0" r="2.5" fill="grey" stroke="none" />
<circle cx="501.3582819320703" cy="500.0" r="5" fill="black" stroke="none" />
<circle cx="549.3582819320703" cy="500.0" r="5" fill="black" stroke="none" />
<path d="M597.3582819320703,444.0 L584.3933948204761,451.4573386448608" stroke="grey" stroke-width="5" />
<circle cx="584.3933948204761" cy="451.4573386448608" r="2.5" fill="grey" stroke="none" />
<path d="M584.3933948204761,451.4573386448608 A97.35828193207033,97.35828193207033,0,0,1,597.3582819320703,500.0" stroke="grey" stroke-width="5" fill="none" />
<circle cx="597.3582819320703" cy="444.0" r="5" fill="black" stroke="none" />
<circle cx="597.3582819320703" cy="500.0" r="5" fill="black" stroke="none" />
<path d="M573.3582819320703,468.0 A80.03397733478648,80.03397733478648,0,0,1,580.0339773347865,500.0" stroke="grey" stroke-width="5" fill="none" />
<path d="M580.0339773347865,500.0 L97.35828193207033,0.0" stroke="grey" stroke-width="5" />
<circle cx="580.0339773347865" cy="500.0" r="2.5" fill="grey" stroke="none" />
<circle cx="573.3582819320703" cy="468.0" r="5" fill="black" stroke="none" />
<circle cx="597.3582819320703" cy="500.0" r="5" fill="black" stroke="none" />
<path d="M549.3582819320703,500.0 A49.35828193207033,49.35828193207033,0,0,1,549.3582819320703,500.0" stroke="grey" stroke-width="5" fill="none" />
<path d="M549.3582819320703,500.0 L97.35828193207033,0.0" stroke="grey" stroke-width="5" />
<circle cx="549.3582819320703" cy="500.0" r="2.5" fill="grey" stroke="none" />
<circle cx="549.3582819320703" cy="500.0" r="5" fill="black" stroke="none" />
<circle cx="597.3582819320703" cy="500.0" r="5" fill="black" stroke="none" />
<path d="M549.3582819320703,548.0 A68.84940083461684,68.84940083461684,0,0,0,568.8494008346169,500.0" stroke="grey" stroke-width="5" fill="none" />
<path d="M568.8494008346169,500.0 L97.35828193207033,0.0" stroke="grey" stroke-width="5" />
<circle cx="568.8494008346169" cy="500.0" r="2.5" fill="grey" stroke="none" />
<circle cx="549.3582819320703" cy="548.0" r="5" fill="black" stroke="none" />
<circle cx="597.3582819320703" cy="500.0" r="5" fill="black" stroke="none" />
<path d="M597.3582819320703,500.0 A97.35828193207033,97.35828193207033,0,0,1,578.278012442067,557.8894448831917" stroke="grey" stroke-width="5" fill="none" />
<path d="M578.278012442067,557.8894448831917 L97.35828193207033,72.0" stroke="grey" stroke-width="5" />
<circle cx="578.278012442067" cy="557.8894448831917" r="2.5" fill="grey" stroke="none" />
<circle cx="597.3582819320703" cy="500.0" r="5" fill="black" stroke="none" />
<circle cx="597.3582819320703" cy="572.0" r="5" fill="black" stroke="none" />
<path d="M597.3582819320703,572.0 L592.5574827414288,568.4496339205393" stroke="grey" stroke-width="5" />
<circle cx="592.5574827414288" cy="568.4496339205393" r="2.5" fill="grey" stroke="none" />
<path d="M592.5574827414288,568.4496339205393 A115.11837383878274,115.11837383878274,0,0,1,549.3582819320703,604.0" stroke="grey" stroke-width="5" fill="none" />
<circle cx="597.3582819320703" cy="572.0" r="5" fill="black" stroke="none" />
<circle cx="549.3582819320703" cy="604.0" r="5" fill="black" stroke="none" />
<path d="M597.3582819320703,444.0 A112.31489242644757,112.31489242644757,0,0,0,587.9341994935272,430.12717538128976" stroke="grey" stroke-width="5" fill="none" />
<path d="M587.9341994935272,430.12717538128976 L201.35828193207033,-160.0" stroke="grey" stroke-width="5" />
<circle cx="587.9341994935272" cy="430.12717538128976" r="2.5" fill="grey" stroke="none" />
<circle cx="597.3582819320703" cy="444.0" r="5" fill="black" stroke="none" />
<circle cx="701.3582819320703" cy="340.0" r="5" fill="black" stroke="none" />
<path d="M597.3582819320703,444.0 A112.31489242644757,112.31489242644757,0,0,1,611.1994357450029,484.21011238933437" stroke="grey" stroke-width="5" fill="none" />
<path d="M611.1994357450029,484.21011238933437 L225.35828193207033,-32.0" stroke="grey" stroke-width="5" />
<circle cx="611.1994357450029" cy="484.21011238933437" r="2.5" fill="grey" stroke="none" />
<circle cx="597.3582819320703" cy="444.0" r="5" fill="black" stroke="none" />
<circle cx="725.3582819320703" cy="468.0" r="5" fill="black" stroke="none" />
<path d="M725.3582819320703,468.0 A227.61888154407248,227.61888154407248,0,0,1,726.4412341570901,476.875927936707" stroke="grey" stroke-width="5" fill="none" />
<path d="M726.4412341570901,476.875927936707 L313.3582819320703,-32.0" stroke="grey" stroke-width="5" />
<circle cx="726.4412341570901" cy="476.875927936707" r="2.5" fill="grey" stroke="none" />
<circle cx="725.3582819320703" cy="468.0" r="5" fill="black" stroke="none" />
<circle cx="813.3582819320703" cy="468.0" r="5" fill="black" stroke="none" />
<path d="M597.3582819320703,500.0 A97.35828193207033,97.35828193207033,0,0,1,581.8334222408034,552.7439670969379" stroke="grey" stroke-width="5" fill="none" />
<path d="M581.8334222408034,552.7439670969379 L161.35828193207033,104.0" stroke="grey" stroke-width="5" />
<circle cx="581.8334222408034" cy="552.7439670969379" r="2.5" fill="grey" stroke="none" />
<circle cx="597.3582819320703" cy="500.0" r="5" fill="black" stroke="none" />
<circle cx="661.3582819320703" cy="604.0" r="5" fill="black" stroke="none" />
<circle cx="500" cy="500" r="5" fill="red" stroke="none" />
</svg>