<?xml version="1.0" encoding="UTF-8"?>
<svg xmlns="http://www.w3.org/2000/svg" xmlns:xlink="http://www.w3.org/1999/xlink"
     width="1000" height="1000" viewBox="0 0 1000 1000">
<defs>
</defs>
<rect x="0" y="0" width="1000" height="1000" fill="white" />
<path d="M250.97486894105754,837.0251310589424 L329.09332019667625,731.3013386023696" stroke="grey" stroke-width="5" />
<circle cx="329.09332019667625" cy="731.3013386023696" r="2.5" fill="grey" stroke="none" />
<path d="M329.09332019667613,731.3013386023695 A287.592424171159,287.592424171159,0,0,0,370.97486894105754,757.0251310589424" stroke="grey" stroke-width="5" fill="none" />
<circle cx="250.97486894105754" cy="837.0251310589424" r="5" fill="black" stroke="none" />
<circle cx="370.97486894105754" cy="757.0251310589424" r="5" fill="black" stroke="none" />
<path d="M370.97486894105754,757.0251310589424 L392.83391224180315,713.4807190278427" stroke="grey" stroke-width="5" />
<circle cx="392.83391224180315" cy="713.4807190278427" r="2.5" fill="grey" stroke="none" />
<path d="M392.83391224180315,713.4807190278427 A238.86939477890897,238.86939477890897,0,0,1,370.9748689410576,701.0251310589425" stroke="grey" stroke-width="5" fill="none" />
<circle cx="370.97486894105754" cy="757.0251310589424" r="5" fill="black" stroke="none" />
<circle cx="370.97486894105754" cy="701.0251310589424" r="5" fill="black" stroke="none" />
<path d="M370.9748689410576,701.0251310589425 A238.86939477890897,238.86939477890897,0,0,1,319.13222732994547,656.0302424897678" stroke="grey" stroke-width="5" fill="none" />
<path d="M319.13222732994547,656.0302424897678 L-233.02513105894246,201.02513105894246" stroke="grey" stroke-width="5" />
<circle cx="319.13222732994547" cy="656.0302424897678" r="2.5" fill="grey" stroke="none" />
<circle cx="370.97486894105754" cy="701.0251310589424" r="5" fill="black" stroke="none" />
<circle cx="266.97486894105754" cy="701.0251310589424" r="5" fill="black" stroke="none" />
<path d="M266.97486894105754,701.0251310589424 L336.41948431814143,641.1169450015982" stroke="grey" stroke-width="5" />
<circle cx="336.41948431814143" cy="641.1169450015982" r="2.5" fill="grey" stroke="none" />
<path d="M336.41948431814143,641.1169450015982 A216.03836991915782,216.03836991915782,0,0,1,306.97486894105754,597.0251310589424" stroke="grey" stroke-width="5" fill="none" />
<circle cx="266.97486894105754" cy="701.0251310589424" r="5" fill="black" stroke="none" />
<circle cx="306.97486894105754" cy="597.0251310589424" r="5" fill="black" stroke="none" />
<path d="M306.97486894105754,597.0251310589424 L427.15826513277216,536.61429386568" stroke="grey" stroke-width="5" />
<circle cx="427.15826513277216" cy="536.61429386568" r="2.5" fill="grey" stroke="none" />
<path d="M427.15826513277216,536.61429386568 A81.52622187830055,81.52622187830055,0,0,1,418.97486894105754,509.02513105894246" stroke="grey" stroke-width="5" fill="none" />
<circle cx="306.97486894105754" cy="597.0251310589424" r="5" fill="black" stroke="none" />
<circle cx="418.97486894105754" cy="509.02513105894246" r="5" fill="black" stroke="none" />
<path d="M418.97486894105754,509.02513105894246 L453.58247572090204,505.17030006092494" stroke="grey" stroke-width="5" />
<circle cx="453.58247572090204" cy="505.17030006092494" r="2.5" fill="grey" stroke="none" />
<path d="M453.58247572090204,505.17030006092494 A46.70458824270536,46.70458824270536,0,0,0,466.97486894105754,533.0251310589424" stroke="grey" stroke-width="5" fill="none" />
<circle cx="418.97486894105754" cy="509.02513105894246" r="5" fill="black" stroke="none" />
<circle cx="466.97486894105754" cy="533.0251310589424" r="5" fill="black" stroke="none" />
<path d="M466.97486894105754,533.0251310589424 A46.70458824270536,46.70458824270536,0,0,1,458.3321151039977,521.0975337708974" stroke="grey" stroke-width="5" fill="none" />
<path d="M458.3321151039977,521.0975337708974 L-81.02513105894246,41.02513105894246" stroke="grey" stroke-width="5" />
<circle cx="458.3321151039977" cy="521.0975337708974" r="2.5" fill="grey" stroke="none" />
<circle cx="466.97486894105754" cy="533.0251310589424" r="5" fill="black" stroke="none" />
<circle cx="418.97486894105754" cy="541.0251310589424" r="5" fill="black" stroke="none" />
<path d="M418.97486894105754,509.02513105894246 A81.52622187830055,81.52622187830055,0,0,0,427.2657064959449,536.8272643868081" stroke="grey" stroke-width="5" fill="none" />
<path d="M427.2657064959449,536.8272643868081 L-81.02513105894246,41.02513105894246" stroke="grey" stroke-width="5" />
<circle cx="427.2657064959449" cy="536.8272643868081" r="2.5" fill="grey" stroke="none" />
<circle cx="418.97486894105754" cy="509.02513105894246" r="5" fill="black" stroke="none" />
<circle cx="418.97486894105754" cy="541.0251310589424" r="5" fill="black" stroke="none" />
<path d="M418.97486894105754,541.0251310589424 A90.81923387434078,90.81923387434078,0,0,0,441.4571259059463,569.4324501535845" stroke="grey" stroke-width="5" fill="none" />
<path d="M441.4571259059463,569.4324501535845 L-129.02513105894246,153.02513105894246" stroke="grey" stroke-width="5" />
<circle cx="441.4571259059463" cy="569.4324501535845" r="2.5" fill="grey" stroke="none" />
<circle cx="418.97486894105754" cy="541.0251310589424" r="5" fill="black" stroke="none" />
<circle cx="370.97486894105754" cy="653.0251310589424" r="5" fill="black" stroke="none" />
<path d="M306.97486894105754,597.0251310589424 L321.1614799196001,589.8941539580643" stroke="grey" stroke-width="5" />
<circle cx="321.1614799196001" cy="589.8941539580643" r="2.5" fill="grey" stroke="none" />
<path d="M321.1614799196001,589.8941539580643 A200.1603736516891,200.1603736516891,0,0,0,370.97486894105754,653.0251310589424" stroke="grey" stroke-width="5" fill="none" />
<circle cx="306.97486894105754" cy="597.0251310589424" r="5" fill="black" stroke="none" />
<circle cx="370.97486894105754" cy="653.0251310589424" r="5" fill="black" stroke="none" />
<path d="M370.97486894105754,653.0251310589424 A200.1603736516891,200.1603736516891,0,0,0,391.8835187441252,668.4488102101997" stroke="grey" stroke-width="5" fill="none" />
<path d="M391.8835187441252,668.4488102101997 L-129.02513105894246,201.02513105894246" stroke="grey" stroke-width="5" />
<circle cx="391.8835187441252" cy="668.4488102101997" r="2.5" fill="grey" stroke="none" />
<circle cx="370.97486894105754" cy="653.0251310589424" r="5" fill="black" stroke="none" />
<circle cx="370.97486894105754" cy="701.0251310589424" r="5" fill="black" stroke="none" />
<path d="M466.97486894105754,533.0251310589424 L506.97486894105754,493.02513105894246" stroke="grey" stroke-width="5" />
<circle cx="466.97486894105754" cy="533.0251310589424" r="5" fill="black" stroke="none" />
<circle cx="506.97486894105754" cy="493.02513105894246" r="5" fill="black" stroke="none" />
<path d="M466.97486894105754,533.0251310589424 A46.70458824270536,46.70458824270536,0,0,0,507.1240400292174,546.1580612307619" stroke="grey" stroke-width="5" fill="none" />
<path d="M507.1240400292174,546.1580612307619 L14.974868941057537,97.02513105894246" stroke="grey" stroke-width="5" />
<circle cx="507.1240400292174" cy="546.1580612307619" r="2.5" fill="grey" stroke="none" />
<circle cx="466.97486894105754" cy="533.0251310589424" r="5" fill="black" stroke="none" />
<circle cx="514.9748689410576" cy="597.0251310589424" r="5" fill="black" stroke="none" />
<path d="M418.97486894105754,541.0251310589424 A90.81923387434078,90.81923387434078,0,0,0,470.73598164352,585.9752898870007" stroke="grey" stroke-width="5" fill="none" />
<path d="M470.73598164352,585.9752898870007 L-33.02513105894246,97.02513105894246" stroke="grey" stroke-width="5" />
<circle cx="470.73598164352" cy="585.9752898870007" r="2.5" fill="grey" stroke="none" />
<circle cx="418.97486894105754" cy="541.0251310589424" r="5" fill="black" stroke="none" />
<circle cx="466.97486894105754" cy="597.0251310589424" r="5" fill="black" stroke="none" />
<path d="M370.97486894105754,653.0251310589424 L388.3844287522878,632.3772142544638" stroke="grey" stroke-width="5" />
<circle cx="388.3844287522878" cy="632.3772142544638" r="2.5" fill="grey" stroke="none" />
<path d="M388.3844287522878,632.3772142544638 A173.15242591059854,173.15242591059854,0,0,0,418.9748689410576,653.0251310589424" stroke="grey" stroke-width="5" fill="none" />
<circle cx="370.97486894105754" cy="653.0251310589424" r="5" fill="black" stroke="none" />
<circle cx="418.97486894105754" cy="653.0251310589424" r="5" fill="black" stroke="none" />
<path d="M370.97486894105754,701.0251310589424 L389.9608896340614,671.4443256237957" stroke="grey" stroke-width="5" />
<circle cx="389.9608896340614" cy="671.4443256237957" r="2.5" fill="grey" stroke="none" />
<path d="M389.9608896340614,671.4443256237957 A203.71981395712425,203.71981395712425,0,0,0,466.9748689410576,701.0251310589424" stroke="grey" stroke-width="5" fill="none" />
<circle cx="370.97486894105754" cy="701.0251310589424" r="5" fill="black" stroke="none" />
<circle cx="466.97486894105754" cy="701.0251310589424" r="5" fill="black" stroke="none" />
<path d="M370.97486894105754,757.0251310589424 L383.74056448412927,731.59516603517" stroke="grey" stroke-width="5" />
<circle cx="383.74056448412927" cy="731.59516603517" r="2.5" fill="grey" stroke="none" />
<path d="M383.74056448412927,731.59516603517 A259.13814323122494,259.13814323122494,0,0,0,466.9748689410576,757.0251310589424" stroke="grey" stroke-width="5" fill="none" />
<circle cx="370.97486894105754" cy="757.0251310589424" r="5" fill="black" stroke="none" />
<circle cx="466.97486894105754" cy="757.0251310589424" r="5" fill="black" stroke="none" />
<path d="M514.9748689410575,597.0251310589425 A98.17394133275292,98.17394133275292,0,0,1,468.3661279805029,592.9377259128977" stroke="grey" stroke-width="5" fill="none" />
<path d="M468.3661279805029,592.9377259128977 L-33.02513105894246,97.02513105894246" stroke="grey" stroke-width="5" />
<circle cx="468.3661279805029" cy="592.9377259128977" r="2.5" fill="grey" stroke="none" />
<circle cx="514.9748689410576" cy="597.0251310589424" r="5" fill="black" stroke="none" />
<circle cx="466.97486894105754" cy="597.0251310589424" r="5" fill="black" stroke="none" />
<path d="M466.97486894105754,597.0251310589424 A102.49163545609606,102.49163545609606,0,0,1,452.0399546722884,590.5779740921" stroke="grey" stroke-width="5" fill="none" />
<path d="M452.0399546722884,590.5779740921 L-81.02513105894246,153.02513105894246" stroke="grey" stroke-width="5" />
<circle cx="452.0399546722884" cy="590.5779740921" r="2.5" fill="grey" stroke="none" />
<circle cx="466.97486894105754" cy="597.0251310589424" r="5" fill="black" stroke="none" />
<circle cx="418.97486894105754" cy="653.0251310589424" r="5" fill="black" stroke="none" />
<path d="M418.9748689410576,653.0251310589424 A173.15242591059854,173.15242591059854,0,0,0,471.93016502521033,670.8620699956939" stroke="grey" stroke-width="5" fill="none" />
<path d="M471.9301650252103,670.8620699956939 L-33.02513105894246,201.02513105894246" stroke="grey" stroke-width="5" />
<circle cx="471.9301650252103" cy="670.8620699956939" r="2.5" fill="grey" stroke="none" />
<circle cx="418.97486894105754" cy="653.0251310589424" r="5" fill="black" stroke="none" />
<circle cx="466.97486894105754" cy="701.0251310589424" r="5" fill="black" stroke="none" />
<path d="M466.9748689410576,701.0251310589424 A203.71981395712425,203.71981395712425,0,0,0,474.0375018847217,702.0586827887867" stroke="grey" stroke-width="5" fill="none" />
<path d="M474.0375018847217,702.0586827887867 L-33.02513105894246,257.02513105894246" stroke="grey" stroke-width="5" />
<circle cx="474.0375018847217" cy="702.0586827887867" r="2.5" fill="grey" stroke="none" />
<circle cx="466.97486894105754" cy="701.0251310589424" r="5" fill="black" stroke="none" />
<circle cx="466.97486894105754" cy="757.0251310589424" r="5" fill="black" stroke="none" />
<path d="M466.9748689410576,757.0251310589424 A259.13814323122494,259.13814323122494,0,0,0,529.7693224661675,757.4225411987695" stroke="grey" stroke-width="5" fill="none" />
<path d="M529.7693224661675,757.4225411987695 L38.97486894105754,337.02513105894246" stroke="grey" stroke-width="5" />
<circle cx="529.7693224661675" cy="757.4225411987695" r="2.5" fill="grey" stroke="none" />
<circle cx="466.97486894105754" cy="757.0251310589424" r="5" fill="black" stroke="none" />
<circle cx="538.9748689410576" cy="837.0251310589424" r="5" fill="black" stroke="none" />
<path d="M514.9748689410575,597.0251310589425 A98.17394133275292,98.17394133275292,0,0,1,492.69920820372863,597.9021000589585" stroke="grey" stroke-width="5" fill="none" />
<path d="M492.69920820372863,597.9021000589585 L-9.025131058942463,121.02513105894246" stroke="grey" stroke-width="5" />
<circle cx="492.69920820372863" cy="597.9021000589585" r="2.5" fill="grey" stroke="none" />
<circle cx="514.9748689410576" cy="597.0251310589424" r="5" fill="black" stroke="none" />
<circle cx="490.97486894105754" cy="621.0251310589424" r="5" fill="black" stroke="none" />
<path d="M490.97486894105754,621.0251310589424 A121.36117722923294,121.36117722923294,0,0,1,474.3978667508645,618.6299545290261" stroke="grey" stroke-width="5" fill="none" />
<path d="M474.39786675086447,618.6299545290261 L-33.02513105894246,153.02513105894246" stroke="grey" stroke-width="5" />
<circle cx="474.39786675086447" cy="618.6299545290261" r="2.5" fill="grey" stroke="none" />
<circle cx="490.97486894105754" cy="621.0251310589424" r="5" fill="black" stroke="none" />
<circle cx="466.97486894105754" cy="653.0251310589424" r="5" fill="black" stroke="none" />
<path d="M466.97486894105754,653.0251310589424 A156.54823543261944,156.54823543261944,0,0,0,474.62187947365527,654.4775097404705" stroke="grey" stroke-width="5" fill="none" />
<path d="M474.6218794736552,654.4775097404705 L-33.02513105894246,201.02513105894246" stroke="grey" stroke-width="5" />
<circle cx="474.6218794736552" cy="654.4775097404705" r="2.5" fill="grey" stroke="none" />
<circle cx="466.97486894105754" cy="653.0251310589424" r="5" fill="black" stroke="none" />
<circle cx="466.97486894105754" cy="701.0251310589424" r="5" fill="black" stroke="none" />
<path d="M466.97486894105754,597.0251310589424 A102.49163545609606,102.49163545609606,0,0,0,492.3781190694168,602.207838591496" stroke="grey" stroke-width="5" fill="none" />
<path d="M492.3781190694168,602.207838591496 L-9.025131058942463,121.02513105894246" stroke="grey" stroke-width="5" />
<circle cx="492.3781190694168" cy="602.207838591496" r="2.5" fill="grey" stroke="none" />
<circle cx="466.97486894105754" cy="597.0251310589424" r="5" fill="black" stroke="none" />
<circle cx="490.97486894105754" cy="621.0251310589424" r="5" fill="black" stroke="none" />
<path d="M418.97486894105754,653.0251310589424 L426.74465156195214,638.3510171349926" stroke="grey" stroke-width="5" />
<circle cx="426.74465156195214" cy="638.3510171349926" r="2.5" fill="grey" stroke="none" />
<path d="M426.74465156195214,638.3510171349926 A156.54823543261944,156.54823543261944,0,0,0,466.97486894105754,653.0251310589424" stroke="grey" stroke-width="5" fill="none" />
<circle cx="418.97486894105754" cy="653.0251310589424" r="5" fill="black" stroke="none" />
<circle cx="466.97486894105754" cy="653.0251310589424" r="5" fill="black" stroke="none" />
<path d="M514.9748689410575,597.0251310589425 A98.17394133275292,98.17394133275292,0,0,1,509.56151938928105,597.7072162318384" stroke="grey" stroke-width="5" fill="none" />
<path d="M509.56151938928105,597.7072162318384 L14.974868941057537,153.02513105894246" stroke="grey" stroke-width="5" />
<circle cx="509.56151938928105" cy="597.7072162318384" r="2.5" fill="grey" stroke="none" />
<circle cx="514.9748689410576" cy="597.0251310589424" r="5" fill="black" stroke="none" />
<circle cx="514.9748689410576" cy="653.0251310589424" r="5" fill="black" stroke="none" />
<path d="M490.97486894105754,621.0251310589424 A121.36117722923294,121.36117722923294,0,0,0,511.8198091411061,620.7842185483398" stroke="grey" stroke-width="5" fill="none" />
<path d="M511.819809141106,620.7842185483398 L14.974868941057537,153.02513105894246" stroke="grey" stroke-width="5" />
<circle cx="511.819809141106" cy="620.7842185483398" r="2.5" fill="grey" stroke="none" />
<circle cx="490.97486894105754" cy="621.0251310589424" r="5" fill="black" stroke="none" />
<circle cx="514.9748689410576" cy="653.0251310589424" r="5" fill="black" stroke="none" />
<path d="M466.97486894105754,653.0251310589424 L467.5638933386855,650.2958296828764" stroke="grey" stroke-width="5" />
<circle cx="467.5638933386855" cy="650.2958296828764" r="2.5" fill="grey" stroke="none" />
<path d="M467.5638933386855,650.2958296828765 A153.75609723002327,153.75609723002327,0,0,0,514.9748689410576,653.0251310589424" stroke="grey" stroke-width="5" fill="none" />
<circle cx="466.97486894105754" cy="653.0251310589424" r="5" fill="black" stroke="none" />
<circle cx="514.9748689410576" cy="653.0251310589424" r="5" fill="black" stroke="none" />
<path d="M466.97486894105754,701.0251310589424 L475.0745145329766,651.7223042589374" stroke="grey" stroke-width="5" />
<circle cx="475.0745145329766" cy="651.7223042589374" r="2.5" fill="grey" stroke="none" />
<path d="M475.0745145329766,651.7223042589374 A153.75609723002327,153.75609723002327,0,0,0,514.9748689410576,653.0251310589424" stroke="grey" stroke-width="5" fill="none" />
<circle cx="466.97486894105754" cy="701.0251310589424" r="5" fill="black" stroke="none" />
<circle cx="514.9748689410576" cy="653.0251310589424" r="5" fill="black" stroke="none" />
<path d="M514.9748689410576,653.0251310589424 A153.75609723002327,153.75609723002327,0,0,1,510.20950823849677,653.4167636763872" stroke="grey" stroke-width="5" fill="none" />
<path d="M510.20950823849677,653.4167636763872 L14.974868941057537,225.02513105894246" stroke="grey" stroke-width="5" />
<circle cx="510.20950823849677" cy="653.4167636763872" r="2.5" fill="grey" stroke="none" />
<circle cx="514.9748689410576" cy="653.0251310589424" r="5" fill="black" stroke="none" />
<circle cx="514.9748689410576" cy="725.0251310589424" r="5" fill="black" stroke="none" />
<path d="M514.9748689410575,725.0251310589425 A225.52285096614065,225.52285096614065,0,0,1,471.25887521970293,723.6839378548658" stroke="grey" stroke-width="5" fill="none" />
<path d="M471.25887521970293,723.6839378548658 L-33.02513105894246,257.02513105894246" stroke="grey" stroke-width="5" />
<circle cx="471.25887521970293" cy="723.6839378548658" r="2.5" fill="grey" stroke="none" />
<circle cx="514.9748689410576" cy="725.0251310589424" r="5" fill="black" stroke="none" />
<circle cx="466.97486894105754" cy="757.0251310589424" r="5" fill="black" stroke="none" />
<path d="M514.9748689410575,597.0251310589425 A98.17394133275292,98.17394133275292,0,0,0,598.0056699873481,494.25444457534184" stroke="grey" stroke-width="5" fill="none" />
<path d="M598.0056699873481,494.25444457534184 L118.97486894105754,-6.974868941057537" stroke="grey" stroke-width="5" />
<circle cx="598.0056699873481" cy="494.25444457534184" r="2.5" fill="grey" stroke="none" />
<circle cx="514.9748689410576" cy="597.0251310589424" r="5" fill="black" stroke="none" />
<circle cx="618.9748689410576" cy="493.02513105894246" r="5" fill="black" stroke="none" />
<path d="M514.9748689410575,597.0251310589425 A98.17394133275292,98.17394133275292,0,0,0,574.9326488083649,563.4288648753001" stroke="grey" stroke-width="5" fill="none" />
<path d="M574.9326488083649,563.4288648753001 L142.97486894105754,121.02513105894246" stroke="grey" stroke-width="5" />
<circle cx="574.9326488083649" cy="563.4288648753001" r="2.5" fill="grey" stroke="none" />
<circle cx="514.9748689410576" cy="597.0251310589424" r="5" fill="black" stroke="none" />
<circle cx="642.9748689410576" cy="621.0251310589424" r="5" fill="black" stroke="none" />
<path d="M642.9748689410576,621.0251310589425 A187.32030188035353,187.32030188035353,0,0,0,665.9229219028304,586.9395162384404" stroke="grey" stroke-width="5" fill="none" />
<path d="M665.9229219028304,586.9395162384404 L230.97486894105754,121.02513105894246" stroke="grey" stroke-width="5" />
<circle cx="665.9229219028304" cy="586.9395162384404" r="2.5" fill="grey" stroke="none" />
<circle cx="642.9748689410576" cy="621.0251310589424" r="5" fill="black" stroke="none" />
<circle cx="730.9748689410576" cy="621.0251310589424" r="5" fill="black" stroke="none" />
<path d="M514.9748689410576,653.0251310589424 A153.75609723002327,153.75609723002327,0,0,0,545.1601391996421,646.9744850743738" stroke="grey" stroke-width="5" fill="none" />
<path d="M545.1601391996421,646.9744850743738 L78.97486894105754,257.02513105894246" stroke="grey" stroke-width="5" />
<circle cx="545.1601391996421" cy="646.9744850743738" r="2.5" fill="grey" stroke="none" />
<circle cx="514.9748689410576" cy="653.0251310589424" r="5" fill="black" stroke="none" />
<circle cx="578.9748689410576" cy="757.0251310589424" r="5" fill="black" stroke="none" />
<circle cx="500" cy="500" r="5" fill="red" stroke="none" />
</svg>