<?xml version="1.0" encoding="UTF-8"?>
<svg xmlns="http://www.w3.org/2000/svg" xmlns:xlink="http://www.w3.org/1999/xlink"
     width="1000" height="1000" viewBox="0 0 1000 1000">
<defs>
</defs>
<rect x="0" y="0" width="1000" height="1000" fill="white" />
<path d="M226.28156681981375,668.2075460821973 L349.00417822835504,592.7911078321624" stroke="grey" stroke-width="5" />
<circle cx="349.00417822835504" cy="592.7911078321624" r="2.5" fill="grey" stroke="none" />
<path d="M349.00417822835504,592.7911078321624 A177.22846240154078,177.22846240154078,0,0,1,346.28156681981375,588.2075460821974" stroke="grey" stroke-width="5" fill="none" />
<circle cx="226.28156681981375" cy="668.2075460821973" r="5" fill="black" stroke="none" />
<circle cx="346.28156681981375" cy="588.2075460821973" r="5" fill="black" stroke="none" />
<path d="M346.28156681981375,588.2075460821973 L363.77781146040644,578.1677559706793" stroke="grey" stroke-width="5" />
<circle cx="363.77781146040644" cy="578.1677559706793" r="2.5" fill="grey" stroke="none" />
<path d="M363.77781146040644,578.1677559706793 A157.05630431156925,157.05630431156925,0,0,1,346.28156681981375,532.2075460821973" stroke="grey" stroke-width="5" fill="none" />
<circle cx="346.28156681981375" cy="588.2075460821973" r="5" fill="black" stroke="none" />
<circle cx="346.28156681981375" cy="532.2075460821973" r="5" fill="black" stroke="none" />
<path d="M346.28156681981375,532.2075460821973 A157.05630431156925,157.05630431156925,0,0,1,344.15596370852484,519.4761155364621" stroke="grey" stroke-width="5" fill="none" />
<path d="M344.15596370852484,519.4761155364622 L-257.71843318018625,32.207546082197325" stroke="grey" stroke-width="5" />
<circle cx="344.15596370852484" cy="519.4761155364622" r="2.5" fill="grey" stroke="none" />
<circle cx="346.28156681981375" cy="532.2075460821973" r="5" fill="black" stroke="none" />
<circle cx="242.28156681981375" cy="532.2075460821973" r="5" fill="black" stroke="none" />
<path d="M242.28156681981375,532.2075460821973 L272.5197029520257,528.4286306553871" stroke="grey" stroke-width="5" />
<circle cx="272.5197029520257" cy="528.4286306553871" r="2.5" fill="grey" stroke="none" />
<path d="M272.5197029520257,528.428630655387 A229.2498038951725,229.2498038951725,0,0,1,282.28156681981375,428.2075460821973" stroke="grey" stroke-width="5" fill="none" />
<circle cx="242.28156681981375" cy="532.2075460821973" r="5" fill="black" stroke="none" />
<circle cx="282.28156681981375" cy="428.2075460821973" r="5" fill="black" stroke="none" />
<path d="M282.28156681981375,428.2075460821973 L318.0389178413019,439.99849982890333" stroke="grey" stroke-width="5" />
<circle cx="318.0389178413019" cy="439.99849982890333" r="2.5" fill="grey" stroke="none" />
<path d="M318.0389178413019,439.99849982890333 A191.59857891734634,191.59857891734634,0,0,1,394.2815668198137,340.2075460821974" stroke="grey" stroke-width="5" fill="none" />
<circle cx="282.28156681981375" cy="428.2075460821973" r="5" fill="black" stroke="none" />
<circle cx="394.28156681981375" cy="340.2075460821973" r="5" fill="black" stroke="none" />
<path d="M394.28156681981375,340.2075460821973 L418.58626040320104,376.9438702272057" stroke="grey" stroke-width="5" />
<circle cx="418.58626040320104" cy="376.9438702272057" r="2.5" fill="grey" stroke="none" />
<path d="M418.586260403201,376.9438702272057 A147.550018874259,147.550018874259,0,0,1,442.28156681981375,364.2075460821974" stroke="grey" stroke-width="5" fill="none" />
<circle cx="394.28156681981375" cy="340.2075460821973" r="5" fill="black" stroke="none" />
<circle cx="442.28156681981375" cy="364.2075460821973" r="5" fill="black" stroke="none" />
<path d="M442.28156681981375,364.2075460821974 A147.550018874259,147.550018874259,0,0,0,405.9484368334018,386.3104598667337" stroke="grey" stroke-width="5" fill="none" />
<path d="M405.9484368334018,386.3104598667337 L-105.71843318018625,-127.79245391780267" stroke="grey" stroke-width="5" />
<circle cx="405.9484368334018" cy="386.3104598667337" r="2.5" fill="grey" stroke="none" />
<circle cx="442.28156681981375" cy="364.2075460821973" r="5" fill="black" stroke="none" />
<circle cx="394.28156681981375" cy="372.2075460821973" r="5" fill="black" stroke="none" />
<path d="M394.28156681981375,340.2075460821973 L408.4870819821742,361.6790535447725" stroke="grey" stroke-width="5" />
<circle cx="408.4870819821742" cy="361.6790535447725" r="2.5" fill="grey" stroke="none" />
<path d="M408.4870819821741,361.67905354477256 A165.85324353900114,165.85324353900114,0,0,0,394.28156681981375,372.20754608219727" stroke="grey" stroke-width="5" fill="none" />
<circle cx="394.28156681981375" cy="340.2075460821973" r="5" fill="black" stroke="none" />
<circle cx="394.28156681981375" cy="372.2075460821973" r="5" fill="black" stroke="none" />
<path d="M394.28156681981375,372.2075460821973 L401.500819216028,380.93417919065223" stroke="grey" stroke-width="5" />
<circle cx="401.500819216028" cy="380.93417919065223" r="2.5" fill="grey" stroke="none" />
<path d="M401.500819216028,380.93417919065223 A154.527532498637,154.527532498637,0,0,0,346.28156681981375,484.2075460821974" stroke="grey" stroke-width="5" fill="none" />
<circle cx="394.28156681981375" cy="372.2075460821973" r="5" fill="black" stroke="none" />
<circle cx="346.28156681981375" cy="484.2075460821973" r="5" fill="black" stroke="none" />
<path d="M282.28156681981375,428.2075460821973 L353.24527355239314,451.6077633767007" stroke="grey" stroke-width="5" />
<circle cx="353.24527355239314" cy="451.6077633767007" r="2.5" fill="grey" stroke="none" />
<path d="M353.24527355239314,451.6077633767007 A154.527532498637,154.527532498637,0,0,0,346.28156681981375,484.2075460821974" stroke="grey" stroke-width="5" fill="none" />
<circle cx="282.28156681981375" cy="428.2075460821973" r="5" fill="black" stroke="none" />
<circle cx="346.28156681981375" cy="484.2075460821973" r="5" fill="black" stroke="none" />
<path d="M346.28156681981375,484.2075460821974 A154.527532498637,154.527532498637,0,0,0,348.75659539417154,531.6889706894209" stroke="grey" stroke-width="5" fill="none" />
<path d="M348.75659539417154,531.6889706894209 L-153.71843318018625,32.207546082197325" stroke="grey" stroke-width="5" />
<circle cx="348.75659539417154" cy="531.6889706894209" r="2.5" fill="grey" stroke="none" />
<circle cx="346.28156681981375" cy="484.2075460821973" r="5" fill="black" stroke="none" />
<circle cx="346.28156681981375" cy="532.2075460821973" r="5" fill="black" stroke="none" />
<path d="M442.28156681981375,364.2075460821974 A147.550018874259,147.550018874259,0,0,1,485.203142509247,353.19379754863036" stroke="grey" stroke-width="5" fill="none" />
<path d="M485.203142509247,353.19379754863036 L-17.718433180186253,-175.79245391780267" stroke="grey" stroke-width="5" />
<circle cx="485.203142509247" cy="353.19379754863036" r="2.5" fill="grey" stroke="none" />
<circle cx="442.28156681981375" cy="364.2075460821973" r="5" fill="black" stroke="none" />
<circle cx="482.28156681981375" cy="324.2075460821973" r="5" fill="black" stroke="none" />
<path d="M442.28156681981375,364.2075460821973 L471.66017375179194,433.32572736625514" stroke="grey" stroke-width="5" />
<circle cx="471.66017375179194" cy="433.32572736625514" r="2.5" fill="grey" stroke="none" />
<path d="M471.66017375179194,433.32572736625514 A72.44725241869125,72.44725241869125,0,0,1,490.28156681981375,428.2075460821973" stroke="grey" stroke-width="5" fill="none" />
<circle cx="442.28156681981375" cy="364.2075460821973" r="5" fill="black" stroke="none" />
<circle cx="490.28156681981375" cy="428.2075460821973" r="5" fill="black" stroke="none" />
<path d="M394.28156681981375,372.2075460821973 L441.2825265024589,429.0223114325283" stroke="grey" stroke-width="5" />
<circle cx="441.2825265024589" cy="429.0223114325283" r="2.5" fill="grey" stroke="none" />
<path d="M441.2825265024589,429.0223114325283 A92.1171752080764,92.1171752080764,0,0,1,442.28156681981375,428.2075460821973" stroke="grey" stroke-width="5" fill="none" />
<circle cx="394.28156681981375" cy="372.2075460821973" r="5" fill="black" stroke="none" />
<circle cx="442.28156681981375" cy="428.2075460821973" r="5" fill="black" stroke="none" />
<path d="M346.28156681981375,484.2075460821973 L393.6681980412036,489.0758704230166" stroke="grey" stroke-width="5" />
<circle cx="393.6681980412036" cy="489.0758704230166" r="2.5" fill="grey" stroke="none" />
<path d="M393.6681980412036,489.0758704230167 A106.8914810207971,106.8914810207971,0,0,1,394.28156681981375,484.2075460821973" stroke="grey" stroke-width="5" fill="none" />
<circle cx="346.28156681981375" cy="484.2075460821973" r="5" fill="black" stroke="none" />
<circle cx="394.28156681981375" cy="484.2075460821973" r="5" fill="black" stroke="none" />
<path d="M346.28156681981375,532.2075460821973 L435.3082571735831,513.5544075301442" stroke="grey" stroke-width="5" />
<circle cx="435.3082571735831" cy="513.5544075301442" r="2.5" fill="grey" stroke="none" />
<path d="M435.3082571735831,513.5544075301442 A66.09647156552678,66.09647156552678,0,0,0,442.28156681981375,532.2075460821973" stroke="grey" stroke-width="5" fill="none" />
<circle cx="346.28156681981375" cy="532.2075460821973" r="5" fill="black" stroke="none" />
<circle cx="442.28156681981375" cy="532.2075460821973" r="5" fill="black" stroke="none" />
<path d="M346.28156681981375,588.2075460821973 L408.57007251394043,552.4648174924157" stroke="grey" stroke-width="5" />
<circle cx="408.57007251394043" cy="552.4648174924157" r="2.5" fill="grey" stroke="none" />
<path d="M408.57007251394043,552.4648174924157 A105.41341809569876,105.41341809569876,0,0,0,442.28156681981375,588.2075460821973" stroke="grey" stroke-width="5" fill="none" />
<circle cx="346.28156681981375" cy="588.2075460821973" r="5" fill="black" stroke="none" />
<circle cx="442.28156681981375" cy="588.2075460821973" r="5" fill="black" stroke="none" />
<path d="M490.28156681981375,428.2075460821973 A72.44725241869125,72.44725241869125,0,0,0,454.60627306068653,443.53749972258925" stroke="grey" stroke-width="5" fill="none" />
<path d="M454.60627306068653,443.53749972258925 L-57.71843318018625,-71.79245391780267" stroke="grey" stroke-width="5" />
<circle cx="454.60627306068653" cy="443.53749972258925" r="2.5" fill="grey" stroke="none" />
<circle cx="490.28156681981375" cy="428.2075460821973" r="5" fill="black" stroke="none" />
<circle cx="442.28156681981375" cy="428.2075460821973" r="5" fill="black" stroke="none" />
<path d="M442.28156681981375,428.2075460821973 A92.1171752080764,92.1171752080764,0,0,0,408.8937365355824,486.39034438835535" stroke="grey" stroke-width="5" fill="none" />
<path d="M408.8937365355824,486.39034438835535 L-105.71843318018625,-15.792453917802675" stroke="grey" stroke-width="5" />
<circle cx="408.8937365355824" cy="486.39034438835535" r="2.5" fill="grey" stroke="none" />
<circle cx="442.28156681981375" cy="428.2075460821973" r="5" fill="black" stroke="none" />
<circle cx="394.28156681981375" cy="484.2075460821973" r="5" fill="black" stroke="none" />
<path d="M394.28156681981375,484.2075460821973 L434.6288839305473,490.2347177589873" stroke="grey" stroke-width="5" />
<circle cx="434.6288839305473" cy="490.2347177589873" r="2.5" fill="grey" stroke="none" />
<path d="M434.6288839305473,490.2347177589873 A66.09647156552678,66.09647156552678,0,0,0,442.28156681981375,532.2075460821973" stroke="grey" stroke-width="5" fill="none" />
<circle cx="394.28156681981375" cy="484.2075460821973" r="5" fill="black" stroke="none" />
<circle cx="442.28156681981375" cy="532.2075460821973" r="5" fill="black" stroke="none" />
<path d="M442.28156681981375,532.2075460821973 A66.09647156552678,66.09647156552678,0,0,0,463.8093058130651,555.3080211875299" stroke="grey" stroke-width="5" fill="none" />
<path d="M463.8093058130651,555.3080211875299 L-57.71843318018625,88.20754608219733" stroke="grey" stroke-width="5" />
<circle cx="463.8093058130651" cy="555.3080211875299" r="2.5" fill="grey" stroke="none" />
<circle cx="442.28156681981375" cy="532.2075460821973" r="5" fill="black" stroke="none" />
<circle cx="442.28156681981375" cy="588.2075460821973" r="5" fill="black" stroke="none" />
<path d="M442.28156681981375,588.2075460821973 A105.41341809569876,105.41341809569876,0,0,0,508.9179807188168,605.035509874125" stroke="grey" stroke-width="5" fill="none" />
<path d="M508.9179807188168,605.035509874125 L14.281566819813747,168.20754608219733" stroke="grey" stroke-width="5" />
<circle cx="508.9179807188168" cy="605.035509874125" r="2.5" fill="grey" stroke="none" />
<circle cx="442.28156681981375" cy="588.2075460821973" r="5" fill="black" stroke="none" />
<circle cx="514.2815668198137" cy="668.2075460821973" r="5" fill="black" stroke="none" />
<path d="M490.28156681981375,428.2075460821973 L492.1538946976361,442.038892184533" stroke="grey" stroke-width="5" />
<circle cx="492.1538946976361" cy="442.038892184533" r="2.5" fill="grey" stroke="none" />
<path d="M492.1538946976361,442.038892184533 A58.48975455250242,58.48975455250242,0,0,0,466.28156681981375,452.2075460821973" stroke="grey" stroke-width="5" fill="none" />
<circle cx="490.28156681981375" cy="428.2075460821973" r="5" fill="black" stroke="none" />
<circle cx="466.28156681981375" cy="452.2075460821973" r="5" fill="black" stroke="none" />
<path d="M466.28156681981375,452.2075460821973 A58.48975455250242,58.48975455250242,0,0,0,443.58388970600424,484.5638772061219" stroke="grey" stroke-width="5" fill="none" />
<path d="M443.58388970600424,484.5638772061219 L-57.71843318018625,-15.792453917802675" stroke="grey" stroke-width="5" />
<circle cx="443.58388970600424" cy="484.5638772061219" r="2.5" fill="grey" stroke="none" />
<circle cx="466.28156681981375" cy="452.2075460821973" r="5" fill="black" stroke="none" />
<circle cx="442.28156681981375" cy="484.2075460821973" r="5" fill="black" stroke="none" />
<path d="M442.28156681981375,484.20754608219727 A59.839945935148926,59.839945935148926,0,0,0,447.745048424563,529.1588608380074" stroke="grey" stroke-width="5" fill="none" />
<path d="M447.745048424563,529.1588608380074 L-57.71843318018625,32.207546082197325" stroke="grey" stroke-width="5" />
<circle cx="447.745048424563" cy="529.1588608380074" r="2.5" fill="grey" stroke="none" />
<circle cx="442.28156681981375" cy="484.2075460821973" r="5" fill="black" stroke="none" />
<circle cx="442.28156681981375" cy="532.2075460821973" r="5" fill="black" stroke="none" />
<path d="M442.28156681981375,428.2075460821973 L463.35170957817087,454.41541711533114" stroke="grey" stroke-width="5" />
<circle cx="463.35170957817087" cy="454.41541711533114" r="2.5" fill="grey" stroke="none" />
<path d="M463.35170957817087,454.41541711533114 A58.48975455250242,58.48975455250242,0,0,1,466.28156681981375,452.2075460821973" stroke="grey" stroke-width="5" fill="none" />
<circle cx="442.28156681981375" cy="428.2075460821973" r="5" fill="black" stroke="none" />
<circle cx="466.28156681981375" cy="452.2075460821973" r="5" fill="black" stroke="none" />
<path d="M394.28156681981375,484.2075460821973 L440.8167492354217,491.159074796234" stroke="grey" stroke-width="5" />
<circle cx="440.8167492354217" cy="491.159074796234" r="2.5" fill="grey" stroke="none" />
<path d="M440.8167492354217,491.159074796234 A59.839945935148926,59.839945935148926,0,0,1,442.28156681981375,484.20754608219727" stroke="grey" stroke-width="5" fill="none" />
<circle cx="394.28156681981375" cy="484.2075460821973" r="5" fill="black" stroke="none" />
<circle cx="442.28156681981375" cy="484.2075460821973" r="5" fill="black" stroke="none" />
<path d="M490.28156681981375,428.2075460821973 L497.5125259422953,481.62441791300444" stroke="grey" stroke-width="5" />
<circle cx="497.5125259422953" cy="481.62441791300444" r="2.5" fill="grey" stroke="none" />
<path d="M497.5125259422953,481.62441791300444 A18.543180531496375,18.543180531496375,0,0,0,490.28156681981375,484.2075460821973" stroke="grey" stroke-width="5" fill="none" />
<circle cx="490.28156681981375" cy="428.2075460821973" r="5" fill="black" stroke="none" />
<circle cx="490.28156681981375" cy="484.2075460821973" r="5" fill="black" stroke="none" />
<path d="M466.28156681981375,452.2075460821973 L489.31014502483254,484.84821644711246" stroke="grey" stroke-width="5" />
<circle cx="489.31014502483254" cy="484.84821644711246" r="2.5" fill="grey" stroke="none" />
<path d="M489.31014502483254,484.84821644711246 A18.543180531496375,18.543180531496375,0,0,1,490.28156681981375,484.2075460821973" stroke="grey" stroke-width="5" fill="none" />
<circle cx="466.28156681981375" cy="452.2075460821973" r="5" fill="black" stroke="none" />
<circle cx="490.28156681981375" cy="484.2075460821973" r="5" fill="black" stroke="none" />
<path d="M442.28156681981375,484.2075460821973 L482.11423306406033,495.10624016354365" stroke="grey" stroke-width="5" />
<circle cx="482.11423306406033" cy="495.10624016354365" r="2.5" fill="grey" stroke="none" />
<path d="M482.11423306406033,495.10624016354365 A18.543180531496375,18.543180531496375,0,0,1,490.28156681981375,484.2075460821973" stroke="grey" stroke-width="5" fill="none" />
<circle cx="442.28156681981375" cy="484.2075460821973" r="5" fill="black" stroke="none" />
<circle cx="490.28156681981375" cy="484.2075460821973" r="5" fill="black" stroke="none" />
<path d="M442.28156681981375,532.2075460821973 L483.8072547428762,509.03573711777625" stroke="grey" stroke-width="5" />
<circle cx="483.8072547428762" cy="509.03573711777625" r="2.5" fill="grey" stroke="none" />
<path d="M483.8072547428762,509.03573711777625 A18.543180531496375,18.543180531496375,0,0,1,490.28156681981375,484.2075460821973" stroke="grey" stroke-width="5" fill="none" />
<circle cx="442.28156681981375" cy="532.2075460821973" r="5" fill="black" stroke="none" />
<circle cx="490.28156681981375" cy="484.2075460821973" r="5" fill="black" stroke="none" />
<path d="M490.28156681981375,484.2075460821973 A18.543180531496375,18.543180531496375,0,0,0,496.84071132093777,518.2720671864465" stroke="grey" stroke-width="5" fill="none" />
<path d="M496.84071132093777,518.2720671864465 L-9.718433180186253,56.207546082197325" stroke="grey" stroke-width="5" />
<circle cx="496.84071132093777" cy="518.2720671864465" r="2.5" fill="grey" stroke="none" />
<circle cx="490.28156681981375" cy="484.2075460821973" r="5" fill="black" stroke="none" />
<circle cx="490.28156681981375" cy="556.2075460821973" r="5" fill="black" stroke="none" />
<path d="M490.28156681981375,556.2075460821973 A57.041530309591806,57.041530309591806,0,0,1,468.76728015136734,547.7310526902237" stroke="grey" stroke-width="5" fill="none" />
<path d="M468.76728015136734,547.7310526902237 L-57.71843318018625,88.20754608219733" stroke="grey" stroke-width="5" />
<circle cx="468.76728015136734" cy="547.7310526902237" r="2.5" fill="grey" stroke="none" />
<circle cx="490.28156681981375" cy="556.2075460821973" r="5" fill="black" stroke="none" />
<circle cx="442.28156681981375" cy="588.2075460821973" r="5" fill="black" stroke="none" />
<path d="M490.28156681981375,428.2075460821973 A72.44725241869125,72.44725241869125,0,0,1,534.2413455864241,436.1553867938051" stroke="grey" stroke-width="5" fill="none" />
<path d="M534.2413455864241,436.1553867938051 L94.28156681981375,-175.79245391780267" stroke="grey" stroke-width="5" />
<circle cx="534.2413455864241" cy="436.1553867938051" r="2.5" fill="grey" stroke="none" />
<circle cx="490.28156681981375" cy="428.2075460821973" r="5" fill="black" stroke="none" />
<circle cx="594.2815668198137" cy="324.2075460821973" r="5" fill="black" stroke="none" />
<path d="M490.28156681981375,428.2075460821973 A72.44725241869125,72.44725241869125,0,0,1,567.1712128620718,472.85902460013983" stroke="grey" stroke-width="5" fill="none" />
<path d="M567.1712128620718,472.85902460013983 L118.28156681981375,-47.792453917802675" stroke="grey" stroke-width="5" />
<circle cx="567.1712128620718" cy="472.85902460013983" r="2.5" fill="grey" stroke="none" />
<circle cx="490.28156681981375" cy="428.2075460821973" r="5" fill="black" stroke="none" />
<circle cx="618.2815668198137" cy="452.2075460821973" r="5" fill="black" stroke="none" />
<path d="M618.2815668198137,452.2075460821973 A127.57212744496879,127.57212744496879,0,0,1,624.28016004926,471.2060853830936" stroke="grey" stroke-width="5" fill="none" />
<path d="M624.28016004926,471.2060853830936 L206.28156681981375,-47.792453917802675" stroke="grey" stroke-width="5" />
<circle cx="624.28016004926" cy="471.2060853830936" r="2.5" fill="grey" stroke="none" />
<circle cx="618.2815668198137" cy="452.2075460821973" r="5" fill="black" stroke="none" />
<circle cx="706.2815668198137" cy="452.2075460821973" r="5" fill="black" stroke="none" />
<path d="M490.28156681981375,484.2075460821973 L554.2815668198137,588.2075460821973" stroke="grey" stroke-width="5" />
<circle cx="490.28156681981375" cy="484.2075460821973" r="5" fill="black" stroke="none" />
<circle cx="554.2815668198137" cy="588.2075460821973" r="5" fill="black" stroke="none" />
<circle cx="500" cy="500" r="5" fill="red" stroke="none" />
</svg>