<?xml version="1.0" encoding="UTF-8"?>
<svg xmlns="http://www.w3.org/2000/svg" xmlns:xlink="http://www.w3.org/1999/xlink"
     width="1000" height="1000" viewBox="0 0 1000 1000">
<defs>
</defs>
<rect x="0" y="0" width="1000" height="1000" fill="white" />
<path d="M313.63037342763346,684.0 L412.2056764791071,586.6780484832474" stroke="grey" stroke-width="5" />
<circle cx="412.2056764791071" cy="586.6780484832474" r="2.5" fill="grey" stroke="none" />
<path d="M412.20567647910707,586.6780484832473 A123.37312240255324,123.37312240255324,0,0,0,433.63037342763346,604.0" stroke="grey" stroke-width="5" fill="none" />
<circle cx="313.63037342763346" cy="684.0" r="5" fill="black" stroke="none" />
<circle cx="433.63037342763346" cy="604.0" r="5" fill="black" stroke="none" />
<path d="M433.63037342763346,604.0 L455.9368681790989,569.0461276646944" stroke="grey" stroke-width="5" />
<circle cx="455.9368681790989" cy="569.0461276646944" r="2.5" fill="grey" stroke="none" />
<path d="M455.9368681790989,569.0461276646944 A81.90804192114095,81.90804192114095,0,0,1,433.63037342763346,548.0" stroke="grey" stroke-width="5" fill="none" />
<circle cx="433.63037342763346" cy="604.0" r="5" fill="black" stroke="none" />
<circle cx="433.63037342763346" cy="548.0" r="5" fill="black" stroke="none" />
<path d="M433.63037342763346,548.0 A81.90804192114095,81.90804192114095,0,0,1,421.1612305151162,522.212063331999" stroke="grey" stroke-width="5" fill="none" />
<path d="M421.1612305151162,522.212063331999 L-170.36962657236654,48.0" stroke="grey" stroke-width="5" />
<circle cx="421.1612305151162" cy="522.212063331999" r="2.5" fill="grey" stroke="none" />
<circle cx="433.63037342763346" cy="548.0" r="5" fill="black" stroke="none" />
<circle cx="329.63037342763346" cy="548.0" r="5" fill="black" stroke="none" />
<path d="M329.63037342763346,548.0 L363.4287332129154,538.4776379315216" stroke="grey" stroke-width="5" />
<circle cx="363.4287332129154" cy="538.4776379315216" r="2.5" fill="grey" stroke="none" />
<path d="M363.4287332129154,538.4776379315216 A141.88812329655468,141.88812329655468,0,0,1,369.63037342763346,444.0" stroke="grey" stroke-width="5" fill="none" />
<circle cx="329.63037342763346" cy="548.0" r="5" fill="black" stroke="none" />
<circle cx="369.63037342763346" cy="444.0" r="5" fill="black" stroke="none" />
<path d="M369.63037342763346,444.0 A141.88812329655468,141.88812329655468,0,0,1,482.0452806105062,359.25246863883245" stroke="grey" stroke-width="5" fill="none" />
<path d="M482.04528061050627,359.25246863883245 L-18.369626572366542,-144.0" stroke="grey" stroke-width="5" />
<circle cx="482.04528061050627" cy="359.25246863883245" r="2.5" fill="grey" stroke="none" />
<circle cx="369.63037342763346" cy="444.0" r="5" fill="black" stroke="none" />
<circle cx="481.63037342763346" cy="356.0" r="5" fill="black" stroke="none" />
<path d="M481.63037342763346,356.0 L484.3589736359807,377.3895709014072" stroke="grey" stroke-width="5" />
<circle cx="484.3589736359807" cy="377.3895709014072" r="2.5" fill="grey" stroke="none" />
<path d="M484.3589736359807,377.3895709014072 A123.60404131524587,123.60404131524587,0,0,1,529.6303734276335,380.0" stroke="grey" stroke-width="5" fill="none" />
<circle cx="481.63037342763346" cy="356.0" r="5" fill="black" stroke="none" />
<circle cx="529.6303734276335" cy="380.0" r="5" fill="black" stroke="none" />
<path d="M529.6303734276335,380.0 L527.2073795663655,389.8128788036464" stroke="grey" stroke-width="5" />
<circle cx="527.2073795663655" cy="389.8128788036464" r="2.5" fill="grey" stroke="none" />
<path d="M527.2073795663655,389.8128788036464 A113.49644567301742,113.49644567301742,0,0,0,481.63037342763346,388.0" stroke="grey" stroke-width="5" fill="none" />
<circle cx="529.6303734276335" cy="380.0" r="5" fill="black" stroke="none" />
<circle cx="481.63037342763346" cy="388.0" r="5" fill="black" stroke="none" />
<path d="M481.63037342763346,356.0 L485.63800276993703,387.415914908137" stroke="grey" stroke-width="5" />
<circle cx="485.63800276993703" cy="387.415914908137" r="2.5" fill="grey" stroke="none" />
<path d="M485.63800276993703,387.415914908137 A113.49644567301742,113.49644567301742,0,0,0,481.63037342763346,388.0" stroke="grey" stroke-width="5" fill="none" />
<circle cx="481.63037342763346" cy="356.0" r="5" fill="black" stroke="none" />
<circle cx="481.63037342763346" cy="388.0" r="5" fill="black" stroke="none" />
<path d="M481.63037342763346,388.0 L489.2579432893057,434.505454051657" stroke="grey" stroke-width="5" />
<circle cx="489.2579432893057" cy="434.505454051657" r="2.5" fill="grey" stroke="none" />
<path d="M489.2579432893057,434.505454051657 A66.36962657236654,66.36962657236654,0,0,0,433.63037342763346,500.0" stroke="grey" stroke-width="5" fill="none" />
<circle cx="481.63037342763346" cy="388.0" r="5" fill="black" stroke="none" />
<circle cx="433.63037342763346" cy="500.0" r="5" fill="black" stroke="none" />
<path d="M369.63037342763346,444.0 L439.018268541741,473.8054249947023" stroke="grey" stroke-width="5" />
<circle cx="439.018268541741" cy="473.8054249947023" r="2.5" fill="grey" stroke="none" />
<path d="M439.018268541741,473.8054249947023 A66.36962657236654,66.36962657236654,0,0,0,433.63037342763346,500.0" stroke="grey" stroke-width="5" fill="none" />
<circle cx="369.63037342763346" cy="444.0" r="5" fill="black" stroke="none" />
<circle cx="433.63037342763346" cy="500.0" r="5" fill="black" stroke="none" />
<path d="M433.63037342763346,500.0 A66.36962657236654,66.36962657236654,0,0,0,446.22106415879966,538.8941305487531" stroke="grey" stroke-width="5" fill="none" />
<path d="M446.2210641587997,538.8941305487531 L-66.36962657236654,48.0" stroke="grey" stroke-width="5" />
<circle cx="446.2210641587997" cy="538.8941305487531" r="2.5" fill="grey" stroke="none" />
<circle cx="433.63037342763346" cy="500.0" r="5" fill="black" stroke="none" />
<circle cx="433.63037342763346" cy="548.0" r="5" fill="black" stroke="none" />
<path d="M529.6303734276335,380.0 A123.60404131524587,123.60404131524587,0,0,1,549.3229718069845,386.6633180228554" stroke="grey" stroke-width="5" fill="none" />
<path d="M549.3229718069845,386.6633180228554 L69.63037342763346,-160.0" stroke="grey" stroke-width="5" />
<circle cx="549.3229718069845" cy="386.6633180228554" r="2.5" fill="grey" stroke="none" />
<circle cx="529.6303734276335" cy="380.0" r="5" fill="black" stroke="none" />
<circle cx="569.6303734276335" cy="340.0" r="5" fill="black" stroke="none" />
<path d="M529.6303734276335,380.0 L522.9462041319522,407.0702060991815" stroke="grey" stroke-width="5" />
<circle cx="522.9462041319522" cy="407.0702060991815" r="2.5" fill="grey" stroke="none" />
<path d="M522.9462041319522,407.0702060991815 A95.72081737278374,95.72081737278374,0,0,1,577.6303734276335,444.0" stroke="grey" stroke-width="5" fill="none" />
<circle cx="529.6303734276335" cy="380.0" r="5" fill="black" stroke="none" />
<circle cx="577.6303734276335" cy="444.0" r="5" fill="black" stroke="none" />
<path d="M481.63037342763346,388.0 L489.7457350541652,437.47953071288066" stroke="grey" stroke-width="5" />
<circle cx="489.7457350541652" cy="437.47953071288066" r="2.5" fill="grey" stroke="none" />
<path d="M489.7457350541652,437.47953071288066 A63.355812909795475,63.355812909795475,0,0,1,529.6303734276335,444.0" stroke="grey" stroke-width="5" fill="none" />
<circle cx="481.63037342763346" cy="388.0" r="5" fill="black" stroke="none" />
<circle cx="529.6303734276335" cy="444.0" r="5" fill="black" stroke="none" />
<path d="M433.63037342763346,500.0 L481.63037342763346,500.0" stroke="grey" stroke-width="5" />
<circle cx="481.63037342763346" cy="500.0" r="2.5" fill="grey" stroke="none" />
<path d="M481.63037342763346,500.0 A18.369626572366542,18.369626572366542,0,0,1,481.63037342763346,500.0" stroke="grey" stroke-width="5" fill="none" />
<circle cx="433.63037342763346" cy="500.0" r="5" fill="black" stroke="none" />
<circle cx="481.63037342763346" cy="500.0" r="5" fill="black" stroke="none" />
<path d="M433.63037342763346,548.0 L454.29222067955465,533.056889434042" stroke="grey" stroke-width="5" />
<circle cx="454.29222067955465" cy="533.056889434042" r="2.5" fill="grey" stroke="none" />
<path d="M454.29222067955465,533.056889434042 A56.408855948875676,56.408855948875676,0,0,0,529.6303734276335,548.0" stroke="grey" stroke-width="5" fill="none" />
<circle cx="433.63037342763346" cy="548.0" r="5" fill="black" stroke="none" />
<circle cx="529.6303734276335" cy="548.0" r="5" fill="black" stroke="none" />
<path d="M433.63037342763346,604.0 L441.825909554715,591.1577436662668" stroke="grey" stroke-width="5" />
<circle cx="441.825909554715" cy="591.1577436662668" r="2.5" fill="grey" stroke="none" />
<path d="M441.825909554715,591.1577436662668 A108.13861026229719,108.13861026229719,0,0,0,529.6303734276335,604.0" stroke="grey" stroke-width="5" fill="none" />
<circle cx="433.63037342763346" cy="604.0" r="5" fill="black" stroke="none" />
<circle cx="529.6303734276335" cy="604.0" r="5" fill="black" stroke="none" />
<path d="M577.6303734276335,444.0 L551.382087512315,462.9346507862424" stroke="grey" stroke-width="5" />
<circle cx="551.382087512315" cy="462.9346507862424" r="2.5" fill="grey" stroke="none" />
<path d="M551.382087512315,462.9346507862424 A63.355812909795475,63.355812909795475,0,0,0,529.6303734276335,444.0" stroke="grey" stroke-width="5" fill="none" />
<circle cx="577.6303734276335" cy="444.0" r="5" fill="black" stroke="none" />
<circle cx="529.6303734276335" cy="444.0" r="5" fill="black" stroke="none" />
<path d="M529.6303734276335,444.0 L508.5911437335728,483.76314594026024" stroke="grey" stroke-width="5" />
<circle cx="508.5911437335728" cy="483.76314594026024" r="2.5" fill="grey" stroke="none" />
<path d="M508.5911437335728,483.76314594026024 A18.369626572366542,18.369626572366542,0,0,0,481.63037342763346,500.0" stroke="grey" stroke-width="5" fill="none" />
<circle cx="529.6303734276335" cy="444.0" r="5" fill="black" stroke="none" />
<circle cx="481.63037342763346" cy="500.0" r="5" fill="black" stroke="none" />
<path d="M481.63037342763346,500.0 A18.369626572366542,18.369626572366542,0,0,0,509.6491745118658,515.6312703145891" stroke="grey" stroke-width="5" fill="none" />
<path d="M509.6491745118658,515.6312703145891 L29.630373427633458,48.0" stroke="grey" stroke-width="5" />
<circle cx="509.6491745118658" cy="515.6312703145891" r="2.5" fill="grey" stroke="none" />
<circle cx="481.63037342763346" cy="500.0" r="5" fill="black" stroke="none" />
<circle cx="529.6303734276335" cy="548.0" r="5" fill="black" stroke="none" />
<path d="M529.6303734276335,548.0 A56.408855948875676,56.408855948875676,0,0,1,515.4562321666299,554.2500130568855" stroke="grey" stroke-width="5" fill="none" />
<path d="M515.4562321666299,554.2500130568855 L29.630373427633458,104.0" stroke="grey" stroke-width="5" />
<circle cx="515.4562321666299" cy="554.2500130568855" r="2.5" fill="grey" stroke="none" />
<circle cx="529.6303734276335" cy="548.0" r="5" fill="black" stroke="none" />
<circle cx="529.6303734276335" cy="604.0" r="5" fill="black" stroke="none" />
<path d="M529.6303734276335,604.0 A108.13861026229719,108.13861026229719,0,0,0,552.2839256961967,594.659126043164" stroke="grey" stroke-width="5" fill="none" />
<path d="M552.2839256961967,594.659126043164 L101.63037342763346,184.0" stroke="grey" stroke-width="5" />
<circle cx="552.2839256961967" cy="594.659126043164" r="2.5" fill="grey" stroke="none" />
<circle cx="529.6303734276335" cy="604.0" r="5" fill="black" stroke="none" />
<circle cx="601.6303734276335" cy="684.0" r="5" fill="black" stroke="none" />
<path d="M577.6303734276335,444.0 L550.6488582480523,463.4635782792551" stroke="grey" stroke-width="5" />
<circle cx="550.6488582480523" cy="463.4635782792551" r="2.5" fill="grey" stroke="none" />
<path d="M550.6488582480523,463.4635782792551 A62.45171698190061,62.45171698190061,0,0,1,553.6303734276335,468.0" stroke="grey" stroke-width="5" fill="none" />
<circle cx="577.6303734276335" cy="444.0" r="5" fill="black" stroke="none" />
<circle cx="553.6303734276335" cy="468.0" r="5" fill="black" stroke="none" />
<path d="M553.6303734276335,468.0 L525.4450649000531,484.81751990967575" stroke="grey" stroke-width="5" />
<circle cx="525.4450649000531" cy="484.81751990967575" r="2.5" fill="grey" stroke="none" />
<path d="M525.4450649000531,484.81751990967575 A29.630373427633458,29.630373427633458,0,0,1,529.6303734276335,500.0" stroke="grey" stroke-width="5" fill="none" />
<circle cx="553.6303734276335" cy="468.0" r="5" fill="black" stroke="none" />
<circle cx="529.6303734276335" cy="500.0" r="5" fill="black" stroke="none" />
<path d="M529.6303734276335,500.0 A29.630373427633458,29.630373427633458,0,0,1,515.5642055612104,525.2133800730762" stroke="grey" stroke-width="5" fill="none" />
<path d="M515.5642055612104,525.2133800730762 L29.630373427633458,48.0" stroke="grey" stroke-width="5" />
<circle cx="515.5642055612104" cy="525.2133800730762" r="2.5" fill="grey" stroke="none" />
<circle cx="529.6303734276335" cy="500.0" r="5" fill="black" stroke="none" />
<circle cx="529.6303734276335" cy="548.0" r="5" fill="black" stroke="none" />
<path d="M529.6303734276335,444.0 L529.2075440339664,444.7991274933872" stroke="grey" stroke-width="5" />
<circle cx="529.2075440339664" cy="444.7991274933872" r="2.5" fill="grey" stroke="none" />
<path d="M529.2075440339665,444.7991274933872 A62.45171698190061,62.45171698190061,0,0,1,553.6303734276335,468.0" stroke="grey" stroke-width="5" fill="none" />
<circle cx="529.6303734276335" cy="444.0" r="5" fill="black" stroke="none" />
<circle cx="553.6303734276335" cy="468.0" r="5" fill="black" stroke="none" />
<path d="M481.63037342763346,500.0 L529.6303734276335,500.0" stroke="grey" stroke-width="5" />
<circle cx="481.63037342763346" cy="500.0" r="5" fill="black" stroke="none" />
<circle cx="529.6303734276335" cy="500.0" r="5" fill="black" stroke="none" />
<path d="M577.6303734276335,444.0 L562.9588739829056,454.58353750765673" stroke="grey" stroke-width="5" />
<circle cx="562.9588739829056" cy="454.58353750765673" r="2.5" fill="grey" stroke="none" />
<path d="M562.9588739829056,454.58353750765673 A77.63037342763346,77.63037342763346,0,0,1,577.6303734276335,500.0" stroke="grey" stroke-width="5" fill="none" />
<circle cx="577.6303734276335" cy="444.0" r="5" fill="black" stroke="none" />
<circle cx="577.6303734276335" cy="500.0" r="5" fill="black" stroke="none" />
<path d="M553.6303734276335,468.0 A62.45171698190061,62.45171698190061,0,0,1,562.4517169819006,500.0" stroke="grey" stroke-width="5" fill="none" />
<path d="M562.4517169819006,500.0 L77.63037342763346,0.0" stroke="grey" stroke-width="5" />
<circle cx="562.4517169819006" cy="500.0" r="2.5" fill="grey" stroke="none" />
<circle cx="553.6303734276335" cy="468.0" r="5" fill="black" stroke="none" />
<circle cx="577.6303734276335" cy="500.0" r="5" fill="black" stroke="none" />
<path d="M529.6303734276335,500.0 A29.630373427633458,29.630373427633458,0,0,1,529.6303734276335,500.0" stroke="grey" stroke-width="5" fill="none" />
<path d="M529.6303734276335,500.0 L77.63037342763346,0.0" stroke="grey" stroke-width="5" />
<circle cx="529.6303734276335" cy="500.0" r="2.5" fill="grey" stroke="none" />
<circle cx="529.6303734276335" cy="500.0" r="5" fill="black" stroke="none" />
<circle cx="577.6303734276335" cy="500.0" r="5" fill="black" stroke="none" />
<path d="M529.6303734276335,548.0 A56.408855948875676,56.408855948875676,0,0,0,556.4088559488757,500.0" stroke="grey" stroke-width="5" fill="none" />
<path d="M556.4088559488757,500.0 L77.63037342763346,0.0" stroke="grey" stroke-width="5" />
<circle cx="556.4088559488757" cy="500.0" r="2.5" fill="grey" stroke="none" />
<circle cx="529.6303734276335" cy="548.0" r="5" fill="black" stroke="none" />
<circle cx="577.6303734276335" cy="500.0" r="5" fill="black" stroke="none" />
<path d="M577.6303734276335,500.0 A77.63037342763346,77.63037342763346,0,0,1,556.9182246751321,552.7900613595496" stroke="grey" stroke-width="5" fill="none" />
<path d="M556.9182246751321,552.7900613595496 L77.63037342763346,72.0" stroke="grey" stroke-width="5" />
<circle cx="556.9182246751321" cy="552.7900613595496" r="2.5" fill="grey" stroke="none" />
<circle cx="577.6303734276335" cy="500.0" r="5" fill="black" stroke="none" />
<circle cx="577.6303734276335" cy="572.0" r="5" fill="black" stroke="none" />
<path d="M577.6303734276335,572.0 A105.87953002593947,105.87953002593947,0,0,1,529.0113772074684,601.8273778069523" stroke="grey" stroke-width="5" fill="none" />
<path d="M529.0113772074684,601.8273778069523 L29.630373427633458,104.0" stroke="grey" stroke-width="5" />
<circle cx="529.0113772074684" cy="601.8273778069523" r="2.5" fill="grey" stroke="none" />
<circle cx="577.6303734276335" cy="572.0" r="5" fill="black" stroke="none" />
<circle cx="529.6303734276335" cy="604.0" r="5" fill="black" stroke="none" />
<path d="M577.6303734276335,444.0 A95.72081737278374,95.72081737278374,0,0,0,571.8264885844401,436.72733278782124" stroke="grey" stroke-width="5" fill="none" />
<path d="M571.8264885844401,436.72733278782124 L181.63037342763346,-160.0" stroke="grey" stroke-width="5" />
<circle cx="571.8264885844401" cy="436.72733278782124" r="2.5" fill="grey" stroke="none" />
<circle cx="577.6303734276335" cy="444.0" r="5" fill="black" stroke="none" />
<circle cx="681.6303734276335" cy="340.0" r="5" fill="black" stroke="none" />
<path d="M577.6303734276335,444.0 A95.72081737278374,95.72081737278374,0,0,1,594.5824040098281,485.2811776885692" stroke="grey" stroke-width="5" fill="none" />
<path d="M594.5824040098281,485.2811776885692 L205.63037342763346,-32.0" stroke="grey" stroke-width="5" />
<circle cx="594.5824040098281" cy="485.2811776885692" r="2.5" fill="grey" stroke="none" />
<circle cx="577.6303734276335" cy="444.0" r="5" fill="black" stroke="none" />
<circle cx="705.6303734276335" cy="468.0" r="5" fill="black" stroke="none" />
<path d="M705.6303734276335,468.0 A208.1053831018986,208.1053831018986,0,0,1,706.8804744216848,477.4540518264011" stroke="grey" stroke-width="5" fill="none" />
<path d="M706.8804744216848,477.4540518264011 L293.63037342763346,-32.0" stroke="grey" stroke-width="5" />
<circle cx="706.8804744216848" cy="477.4540518264011" r="2.5" fill="grey" stroke="none" />
<circle cx="705.6303734276335" cy="468.0" r="5" fill="black" stroke="none" />
<circle cx="793.6303734276335" cy="468.0" r="5" fill="black" stroke="none" />
<path d="M577.6303734276335,500.0 A77.63037342763346,77.63037342763346,0,0,1,562.5724915372783,545.9473413956788" stroke="grey" stroke-width="5" fill="none" />
<path d="M562.5724915372783,545.9473413956788 L141.63037342763346,104.0" stroke="grey" stroke-width="5" />
<circle cx="562.5724915372783" cy="545.9473413956788" r="2.5" fill="grey" stroke="none" />
<circle cx="577.6303734276335" cy="500.0" r="5" fill="black" stroke="none" />
<circle cx="641.6303734276335" cy="604.0" r="5" fill="black" stroke="none" />
<circle cx="500" cy="500" r="5" fill="red" stroke="none" />
</svg>