<?xml version="1.0" encoding="UTF-8"?>
<svg xmlns="http://www.w3.org/2000/svg" xmlns:xlink="http://www.w3.org/1999/xlink"
     width="1000" height="1000" viewBox="0 0 1000 1000">
<defs>
</defs>
<rect x="0" y="0" width="1000" height="1000" fill="white" />
<path d="M222.4043120469699,661.9070070763262 L346.57887525182696,589.4824963364105" stroke="grey" stroke-width="5" />
<circle cx="346.57887525182696" cy="589.4824963364105" r="2.5" fill="grey" stroke="none" />
<path d="M346.57887525182696,589.4824963364105 A177.60956806881262,177.60956806881262,0,0,1,342.40431204696984,581.9070070763261" stroke="grey" stroke-width="5" fill="none" />
<circle cx="222.4043120469699" cy="661.9070070763262" r="5" fill="black" stroke="none" />
<circle cx="342.4043120469699" cy="581.9070070763262" r="5" fill="black" stroke="none" />
<path d="M342.4043120469699,581.9070070763262 L358.28606776836034,573.6528023125251" stroke="grey" stroke-width="5" />
<circle cx="358.28606776836034" cy="573.6528023125251" r="2.5" fill="grey" stroke="none" />
<path d="M358.28606776836034,573.652802312525 A159.71090719497417,159.71090719497417,0,0,1,342.4043120469699,525.9070070763261" stroke="grey" stroke-width="5" fill="none" />
<circle cx="342.4043120469699" cy="581.9070070763262" r="5" fill="black" stroke="none" />
<circle cx="342.4043120469699" cy="525.9070070763262" r="5" fill="black" stroke="none" />
<path d="M342.4043120469699,525.9070070763261 A159.71090719497417,159.71090719497417,0,0,1,341.06658772546126,515.7398964359093" stroke="grey" stroke-width="5" fill="none" />
<path d="M341.06658772546126,515.7398964359093 L-261.5956879530301,25.907007076326124" stroke="grey" stroke-width="5" />
<circle cx="341.06658772546126" cy="515.7398964359093" r="2.5" fill="grey" stroke="none" />
<circle cx="342.4043120469699" cy="525.9070070763262" r="5" fill="black" stroke="none" />
<circle cx="238.4043120469699" cy="525.9070070763262" r="5" fill="black" stroke="none" />
<path d="M238.4043120469699,525.9070070763262 L266.19024969394127,523.1552396872104" stroke="grey" stroke-width="5" />
<circle cx="266.19024969394127" cy="523.1552396872104" r="2.5" fill="grey" stroke="none" />
<path d="M266.19024969394127,523.1552396872104 A234.95353681771567,234.95353681771567,0,0,1,278.40431204696984,421.9070070763261" stroke="grey" stroke-width="5" fill="none" />
<circle cx="238.4043120469699" cy="525.9070070763262" r="5" fill="black" stroke="none" />
<circle cx="278.4043120469699" cy="421.9070070763261" r="5" fill="black" stroke="none" />
<path d="M278.4043120469699,421.9070070763261 L312.3206561487204,433.8595357757848" stroke="grey" stroke-width="5" />
<circle cx="312.3206561487204" cy="433.8595357757848" r="2.5" fill="grey" stroke="none" />
<path d="M312.3206561487204,433.8595357757848 A198.99270618854734,198.99270618854734,0,0,1,390.40431204696995,333.9070070763261" stroke="grey" stroke-width="5" fill="none" />
<circle cx="278.4043120469699" cy="421.9070070763261" r="5" fill="black" stroke="none" />
<circle cx="390.4043120469699" cy="333.9070070763261" r="5" fill="black" stroke="none" />
<path d="M390.4043120469699,333.9070070763261 L414.7054725522978,370.73557720746413" stroke="grey" stroke-width="5" />
<circle cx="414.7054725522978" cy="370.73557720746413" r="2.5" fill="grey" stroke="none" />
<path d="M414.7054725522978,370.73557720746413 A154.8691299530487,154.8691299530487,0,0,1,438.4043120469699,357.9070070763261" stroke="grey" stroke-width="5" fill="none" />
<circle cx="390.4043120469699" cy="333.9070070763261" r="5" fill="black" stroke="none" />
<circle cx="438.4043120469699" cy="357.9070070763261" r="5" fill="black" stroke="none" />
<path d="M438.4043120469699,357.9070070763261 A154.8691299530487,154.8691299530487,0,0,0,401.99357265835255,380.08674963899665" stroke="grey" stroke-width="5" fill="none" />
<path d="M401.9935726583525,380.0867496389967 L-109.59568795303011,-134.09299292367388" stroke="grey" stroke-width="5" />
<circle cx="401.9935726583525" cy="380.0867496389967" r="2.5" fill="grey" stroke="none" />
<circle cx="438.4043120469699" cy="357.9070070763261" r="5" fill="black" stroke="none" />
<circle cx="390.4043120469699" cy="365.9070070763261" r="5" fill="black" stroke="none" />
<path d="M390.4043120469699,333.9070070763261 L404.61939417837374,355.4500584495934" stroke="grey" stroke-width="5" />
<circle cx="404.61939417837374" cy="355.4500584495934" r="2.5" fill="grey" stroke="none" />
<path d="M404.61939417837374,355.4500584495934 A173.1824054837165,173.1824054837165,0,0,0,390.40431204696995,365.90700707632607" stroke="grey" stroke-width="5" fill="none" />
<circle cx="390.4043120469699" cy="333.9070070763261" r="5" fill="black" stroke="none" />
<circle cx="390.4043120469699" cy="365.9070070763261" r="5" fill="black" stroke="none" />
<path d="M390.4043120469699,365.9070070763261 L399.2928862040726,376.78239399903737" stroke="grey" stroke-width="5" />
<circle cx="399.2928862040726" cy="376.78239399903737" r="2.5" fill="grey" stroke="none" />
<path d="M399.2928862040726,376.7823939990373 A159.1367374232435,159.1367374232435,0,0,0,342.4043120469699,477.9070070763261" stroke="grey" stroke-width="5" fill="none" />
<circle cx="390.4043120469699" cy="365.9070070763261" r="5" fill="black" stroke="none" />
<circle cx="342.4043120469699" cy="477.9070070763261" r="5" fill="black" stroke="none" />
<path d="M278.4043120469699,421.9070070763261 L349.9106875106831,447.1067161711572" stroke="grey" stroke-width="5" />
<circle cx="349.9106875106831" cy="447.1067161711572" r="2.5" fill="grey" stroke="none" />
<path d="M349.9106875106831,447.1067161711572 A159.1367374232435,159.1367374232435,0,0,0,342.4043120469699,477.9070070763261" stroke="grey" stroke-width="5" fill="none" />
<circle cx="278.4043120469699" cy="421.9070070763261" r="5" fill="black" stroke="none" />
<circle cx="342.4043120469699" cy="477.9070070763261" r="5" fill="black" stroke="none" />
<path d="M342.4043120469699,477.9070070763261 A159.1367374232435,159.1367374232435,0,0,0,342.97087748552985,525.8138699161879" stroke="grey" stroke-width="5" fill="none" />
<path d="M342.97087748552985,525.8138699161879 L-157.5956879530301,25.907007076326124" stroke="grey" stroke-width="5" />
<circle cx="342.97087748552985" cy="525.8138699161879" r="2.5" fill="grey" stroke="none" />
<circle cx="342.4043120469699" cy="477.9070070763261" r="5" fill="black" stroke="none" />
<circle cx="342.4043120469699" cy="525.9070070763262" r="5" fill="black" stroke="none" />
<path d="M438.4043120469699,357.9070070763261 A154.8691299530487,154.8691299530487,0,0,1,481.7608029019823,346.2086507581329" stroke="grey" stroke-width="5" fill="none" />
<path d="M481.7608029019823,346.2086507581329 L-21.595687953030108,-182.09299292367388" stroke="grey" stroke-width="5" />
<circle cx="481.7608029019823" cy="346.2086507581329" r="2.5" fill="grey" stroke="none" />
<circle cx="438.4043120469699" cy="357.9070070763261" r="5" fill="black" stroke="none" />
<circle cx="478.4043120469699" cy="317.9070070763261" r="5" fill="black" stroke="none" />
<path d="M438.4043120469699,357.9070070763261 L468.47309315569845,427.2716532600673" stroke="grey" stroke-width="5" />
<circle cx="468.47309315569845" cy="427.2716532600673" r="2.5" fill="grey" stroke="none" />
<path d="M468.47309315569845,427.2716532600673 A79.26763699450834,79.26763699450834,0,0,1,486.40431204696984,421.9070070763261" stroke="grey" stroke-width="5" fill="none" />
<circle cx="438.4043120469699" cy="357.9070070763261" r="5" fill="black" stroke="none" />
<circle cx="486.4043120469699" cy="421.9070070763261" r="5" fill="black" stroke="none" />
<path d="M390.4043120469699,365.9070070763261 L437.05754156455237,422.98836942197636" stroke="grey" stroke-width="5" />
<circle cx="437.05754156455237" cy="422.98836942197636" r="2.5" fill="grey" stroke="none" />
<path d="M437.0575415645524,422.98836942197636 A99.46127044324356,99.46127044324356,0,0,1,438.4043120469699,421.9070070763261" stroke="grey" stroke-width="5" fill="none" />
<circle cx="390.4043120469699" cy="365.9070070763261" r="5" fill="black" stroke="none" />
<circle cx="438.4043120469699" cy="421.9070070763261" r="5" fill="black" stroke="none" />
<path d="M342.4043120469699,477.9070070763261 L389.2823167807278,484.47873147000075" stroke="grey" stroke-width="5" />
<circle cx="389.2823167807278" cy="484.47873147000075" r="2.5" fill="grey" stroke="none" />
<path d="M389.2823167807278,484.47873147000075 A111.80033610961755,111.80033610961755,0,0,1,390.4043120469699,477.9070070763261" stroke="grey" stroke-width="5" fill="none" />
<circle cx="342.4043120469699" cy="477.9070070763261" r="5" fill="black" stroke="none" />
<circle cx="390.4043120469699" cy="477.9070070763261" r="5" fill="black" stroke="none" />
<path d="M342.4043120469699,525.9070070763262 L434.0628306905884,510.83934931265986" stroke="grey" stroke-width="5" />
<circle cx="434.0628306905884" cy="510.83934931265986" r="2.5" fill="grey" stroke="none" />
<path d="M434.0628306905884,510.83934931265986 A66.8221654098389,66.8221654098389,0,0,0,438.4043120469699,525.9070070763261" stroke="grey" stroke-width="5" fill="none" />
<circle cx="342.4043120469699" cy="525.9070070763262" r="5" fill="black" stroke="none" />
<circle cx="438.4043120469699" cy="525.9070070763262" r="5" fill="black" stroke="none" />
<path d="M342.4043120469699,581.9070070763262 L409.06517347870135,547.2614420870726" stroke="grey" stroke-width="5" />
<circle cx="409.06517347870135" cy="547.2614420870726" r="2.5" fill="grey" stroke="none" />
<path d="M409.06517347870135,547.2614420870725 A102.4831038884381,102.4831038884381,0,0,0,438.4043120469699,581.9070070763261" stroke="grey" stroke-width="5" fill="none" />
<circle cx="342.4043120469699" cy="581.9070070763262" r="5" fill="black" stroke="none" />
<circle cx="438.4043120469699" cy="581.9070070763262" r="5" fill="black" stroke="none" />
<path d="M486.40431204696984,421.9070070763261 A79.26763699450834,79.26763699450834,0,0,0,450.9100918243954,437.7622366243463" stroke="grey" stroke-width="5" fill="none" />
<path d="M450.9100918243954,437.7622366243463 L-61.59568795303011,-78.09299292367388" stroke="grey" stroke-width="5" />
<circle cx="450.9100918243954" cy="437.7622366243463" r="2.5" fill="grey" stroke="none" />
<circle cx="486.4043120469699" cy="421.9070070763261" r="5" fill="black" stroke="none" />
<circle cx="438.4043120469699" cy="421.9070070763261" r="5" fill="black" stroke="none" />
<path d="M438.4043120469699,421.9070070763261 A99.46127044324356,99.46127044324356,0,0,0,402.5000573502574,480.34534402537304" stroke="grey" stroke-width="5" fill="none" />
<path d="M402.5000573502574,480.34534402537304 L-109.59568795303011,-22.092992923673876" stroke="grey" stroke-width="5" />
<circle cx="402.5000573502574" cy="480.34534402537304" r="2.5" fill="grey" stroke="none" />
<circle cx="438.4043120469699" cy="421.9070070763261" r="5" fill="black" stroke="none" />
<circle cx="390.4043120469699" cy="477.9070070763261" r="5" fill="black" stroke="none" />
<path d="M390.4043120469699,477.9070070763261 L434.49553513486734,486.79519508692124" stroke="grey" stroke-width="5" />
<circle cx="434.49553513486734" cy="486.79519508692124" r="2.5" fill="grey" stroke="none" />
<path d="M434.49553513486734,486.79519508692124 A66.8221654098389,66.8221654098389,0,0,0,438.4043120469699,525.9070070763261" stroke="grey" stroke-width="5" fill="none" />
<circle cx="390.4043120469699" cy="477.9070070763261" r="5" fill="black" stroke="none" />
<circle cx="438.4043120469699" cy="525.9070070763262" r="5" fill="black" stroke="none" />
<path d="M438.4043120469699,525.9070070763261 A66.8221654098389,66.8221654098389,0,0,0,459.8376991644322,553.4059114860257" stroke="grey" stroke-width="5" fill="none" />
<path d="M459.8376991644322,553.4059114860258 L-61.59568795303011,81.90700707632612" stroke="grey" stroke-width="5" />
<circle cx="459.8376991644322" cy="553.4059114860258" r="2.5" fill="grey" stroke="none" />
<circle cx="438.4043120469699" cy="525.9070070763262" r="5" fill="black" stroke="none" />
<circle cx="438.4043120469699" cy="581.9070070763262" r="5" fill="black" stroke="none" />
<path d="M438.4043120469699,581.9070070763261 A102.4831038884381,102.4831038884381,0,0,0,506.5721147209374,602.2721559893172" stroke="grey" stroke-width="5" fill="none" />
<path d="M506.5721147209374,602.2721559893172 L10.404312046969892,161.90700707632612" stroke="grey" stroke-width="5" />
<circle cx="506.5721147209374" cy="602.2721559893172" r="2.5" fill="grey" stroke="none" />
<circle cx="438.4043120469699" cy="581.9070070763262" r="5" fill="black" stroke="none" />
<circle cx="510.4043120469699" cy="661.9070070763262" r="5" fill="black" stroke="none" />
<path d="M486.4043120469699,421.9070070763261 L488.70140337723507,435.10139176794087" stroke="grey" stroke-width="5" />
<circle cx="488.70140337723507" cy="435.10139176794087" r="2.5" fill="grey" stroke="none" />
<path d="M488.70140337723507,435.10139176794087 A65.8747875602058,65.8747875602058,0,0,0,462.4043120469699,445.9070070763261" stroke="grey" stroke-width="5" fill="none" />
<circle cx="486.4043120469699" cy="421.9070070763261" r="5" fill="black" stroke="none" />
<circle cx="462.4043120469699" cy="445.9070070763261" r="5" fill="black" stroke="none" />
<path d="M462.4043120469699,445.9070070763261 L462.65360490372433,446.26569174125865" stroke="grey" stroke-width="5" />
<circle cx="462.65360490372433" cy="446.26569174125865" r="2.5" fill="grey" stroke="none" />
<path d="M462.65360490372433,446.26569174125865 A65.43797911559129,65.43797911559129,0,0,0,438.4043120469699,477.9070070763261" stroke="grey" stroke-width="5" fill="none" />
<circle cx="462.4043120469699" cy="445.9070070763261" r="5" fill="black" stroke="none" />
<circle cx="438.4043120469699" cy="477.9070070763261" r="5" fill="black" stroke="none" />
<path d="M438.4043120469699,477.9070070763261 A65.43797911559129,65.43797911559129,0,0,0,439.6802345874385,525.3703569408495" stroke="grey" stroke-width="5" fill="none" />
<path d="M439.6802345874385,525.3703569408495 L-61.59568795303011,25.907007076326124" stroke="grey" stroke-width="5" />
<circle cx="439.6802345874385" cy="525.3703569408495" r="2.5" fill="grey" stroke="none" />
<circle cx="438.4043120469699" cy="477.9070070763261" r="5" fill="black" stroke="none" />
<circle cx="438.4043120469699" cy="525.9070070763262" r="5" fill="black" stroke="none" />
<path d="M438.4043120469699,421.9070070763261 L459.2041923409172,448.27776383850596" stroke="grey" stroke-width="5" />
<circle cx="459.2041923409172" cy="448.27776383850596" r="2.5" fill="grey" stroke="none" />
<path d="M459.2041923409172,448.27776383850596 A65.8747875602058,65.8747875602058,0,0,1,462.4043120469699,445.9070070763261" stroke="grey" stroke-width="5" fill="none" />
<circle cx="438.4043120469699" cy="421.9070070763261" r="5" fill="black" stroke="none" />
<circle cx="462.4043120469699" cy="445.9070070763261" r="5" fill="black" stroke="none" />
<path d="M390.4043120469699,477.9070070763261 L435.8524259497973,487.0687257315328" stroke="grey" stroke-width="5" />
<circle cx="435.8524259497973" cy="487.0687257315328" r="2.5" fill="grey" stroke="none" />
<path d="M435.8524259497973,487.0687257315328 A65.43797911559129,65.43797911559129,0,0,1,438.4043120469699,477.9070070763261" stroke="grey" stroke-width="5" fill="none" />
<circle cx="390.4043120469699" cy="477.9070070763261" r="5" fill="black" stroke="none" />
<circle cx="438.4043120469699" cy="477.9070070763261" r="5" fill="black" stroke="none" />
<path d="M486.4043120469699,421.9070070763261 L495.550671843738,474.4432680845229" stroke="grey" stroke-width="5" />
<circle cx="495.550671843738" cy="474.4432680845229" r="2.5" fill="grey" stroke="none" />
<path d="M495.550671843738,474.4432680845229 A25.94114622066018,25.94114622066018,0,0,0,486.4043120469699,477.9070070763261" stroke="grey" stroke-width="5" fill="none" />
<circle cx="486.4043120469699" cy="421.9070070763261" r="5" fill="black" stroke="none" />
<circle cx="486.4043120469699" cy="477.9070070763261" r="5" fill="black" stroke="none" />
<path d="M462.4043120469699,445.9070070763261 L485.19501504935374,478.6984627819303" stroke="grey" stroke-width="5" />
<circle cx="485.19501504935374" cy="478.6984627819303" r="2.5" fill="grey" stroke="none" />
<path d="M485.19501504935374,478.6984627819303 A25.94114622066018,25.94114622066018,0,0,1,486.4043120469699,477.9070070763261" stroke="grey" stroke-width="5" fill="none" />
<circle cx="462.4043120469699" cy="445.9070070763261" r="5" fill="black" stroke="none" />
<circle cx="486.4043120469699" cy="477.9070070763261" r="5" fill="black" stroke="none" />
<path d="M438.4043120469699,477.9070070763261 L475.58202790875913,491.241820611962" stroke="grey" stroke-width="5" />
<circle cx="475.58202790875913" cy="491.241820611962" r="2.5" fill="grey" stroke="none" />
<path d="M475.58202790875913,491.241820611962 A25.94114622066018,25.94114622066018,0,0,1,486.4043120469699,477.9070070763261" stroke="grey" stroke-width="5" fill="none" />
<circle cx="438.4043120469699" cy="477.9070070763261" r="5" fill="black" stroke="none" />
<circle cx="486.4043120469699" cy="477.9070070763261" r="5" fill="black" stroke="none" />
<path d="M438.4043120469699,525.9070070763262 L476.0878334613736,510.0574031772951" stroke="grey" stroke-width="5" />
<circle cx="476.0878334613736" cy="510.0574031772951" r="2.5" fill="grey" stroke="none" />
<path d="M476.0878334613736,510.0574031772951 A25.94114622066018,25.94114622066018,0,0,1,486.4043120469699,477.9070070763261" stroke="grey" stroke-width="5" fill="none" />
<circle cx="438.4043120469699" cy="525.9070070763262" r="5" fill="black" stroke="none" />
<circle cx="486.4043120469699" cy="477.9070070763261" r="5" fill="black" stroke="none" />
<path d="M486.4043120469699,477.9070070763261 A25.94114622066018,25.94114622066018,0,0,0,493.1815816410855,525.0290279140938" stroke="grey" stroke-width="5" fill="none" />
<path d="M493.1815816410855,525.0290279140938 L-13.595687953030108,49.907007076326124" stroke="grey" stroke-width="5" />
<circle cx="493.1815816410855" cy="525.0290279140938" r="2.5" fill="grey" stroke="none" />
<circle cx="486.4043120469699" cy="477.9070070763261" r="5" fill="black" stroke="none" />
<circle cx="486.4043120469699" cy="549.9070070763262" r="5" fill="black" stroke="none" />
<path d="M486.4043120469699,549.9070070763262 A51.72573910764962,51.72573910764962,0,0,1,468.9111437463588,541.3404777799321" stroke="grey" stroke-width="5" fill="none" />
<path d="M468.9111437463588,541.3404777799321 L-61.59568795303011,81.90700707632612" stroke="grey" stroke-width="5" />
<circle cx="468.9111437463588" cy="541.3404777799321" r="2.5" fill="grey" stroke="none" />
<circle cx="486.4043120469699" cy="549.9070070763262" r="5" fill="black" stroke="none" />
<circle cx="438.4043120469699" cy="581.9070070763262" r="5" fill="black" stroke="none" />
<path d="M486.40431204696984,421.9070070763261 A79.26763699450834,79.26763699450834,0,0,1,535.2491106298163,429.00099666544526" stroke="grey" stroke-width="5" fill="none" />
<path d="M535.2491106298163,429.00099666544526 L90.40431204696989,-182.09299292367388" stroke="grey" stroke-width="5" />
<circle cx="535.2491106298163" cy="429.00099666544526" r="2.5" fill="grey" stroke="none" />
<circle cx="486.4043120469699" cy="421.9070070763261" r="5" fill="black" stroke="none" />
<circle cx="590.4043120469698" cy="317.9070070763261" r="5" fill="black" stroke="none" />
<path d="M486.40431204696984,421.9070070763261 A79.26763699450834,79.26763699450834,0,0,1,571.6610207718309,466.117019366172" stroke="grey" stroke-width="5" fill="none" />
<path d="M571.6610207718309,466.117019366172 L114.40431204696989,-54.092992923673876" stroke="grey" stroke-width="5" />
<circle cx="571.6610207718309" cy="466.117019366172" r="2.5" fill="grey" stroke="none" />
<circle cx="486.4043120469699" cy="421.9070070763261" r="5" fill="black" stroke="none" />
<circle cx="614.4043120469698" cy="445.9070070763261" r="5" fill="black" stroke="none" />
<path d="M614.4043120469698,445.9070070763261 A126.5480086701529,126.5480086701529,0,0,1,622.257267799212,467.3264790900512" stroke="grey" stroke-width="5" fill="none" />
<path d="M622.257267799212,467.3264790900512 L202.4043120469699,-54.092992923673876" stroke="grey" stroke-width="5" />
<circle cx="622.257267799212" cy="467.3264790900512" r="2.5" fill="grey" stroke="none" />
<circle cx="614.4043120469698" cy="445.9070070763261" r="5" fill="black" stroke="none" />
<circle cx="702.4043120469698" cy="445.9070070763261" r="5" fill="black" stroke="none" />
<path d="M486.4043120469699,477.9070070763261 L550.4043120469698,581.9070070763262" stroke="grey" stroke-width="5" />
<circle cx="486.4043120469699" cy="477.9070070763261" r="5" fill="black" stroke="none" />
<circle cx="550.4043120469698" cy="581.9070070763262" r="5" fill="black" stroke="none" />
<circle cx="500" cy="500" r="5" fill="red" stroke="none" />
</svg>