<?xml version="1.0" encoding="UTF-8"?>
<svg xmlns="http://www.w3.org/2000/svg" xmlns:xlink="http://www.w3.org/1999/xlink"
     width="1000" height="1000" viewBox="0 0 1000 1000">
<defs>
</defs>
<rect x="0" y="0" width="1000" height="1000" fill="white" />
<path d="M308.69839630152427,684.0 L409.119969613757,587.411319444166" stroke="grey" stroke-width="5" />
<circle cx="409.119969613757" cy="587.411319444166" r="2.5" fill="grey" stroke="none" />
<path d="M409.119969613757,587.411319444166 A126.09487971354939,126.09487971354939,0,0,0,428.69839630152427,604.0" stroke="grey" stroke-width="5" fill="none" />
<circle cx="308.69839630152427" cy="684.0" r="5" fill="black" stroke="none" />
<circle cx="428.69839630152427" cy="604.0" r="5" fill="black" stroke="none" />
<path d="M428.69839630152427,604.0 L451.39701979880823,570.8919530379651" stroke="grey" stroke-width="5" />
<circle cx="451.39701979880823" cy="570.8919530379651" r="2.5" fill="grey" stroke="none" />
<path d="M451.39701979880823,570.8919530379651 A85.95300279789234,85.95300279789234,0,0,1,428.6983963015242,548.0" stroke="grey" stroke-width="5" fill="none" />
<circle cx="428.69839630152427" cy="604.0" r="5" fill="black" stroke="none" />
<circle cx="428.69839630152427" cy="548.0" r="5" fill="black" stroke="none" />
<path d="M428.6983963015242,548.0 A85.95300279789234,85.95300279789234,0,0,1,417.0985602756069,522.6995590617377" stroke="grey" stroke-width="5" fill="none" />
<path d="M417.0985602756069,522.6995590617375 L324.69839630152427,548.0" stroke="grey" stroke-width="5" />
<circle cx="417.0985602756069" cy="522.6995590617375" r="2.5" fill="grey" stroke="none" />
<circle cx="428.69839630152427" cy="548.0" r="5" fill="black" stroke="none" />
<circle cx="324.69839630152427" cy="548.0" r="5" fill="black" stroke="none" />
<path d="M324.69839630152427,548.0 L358.7660936174204,538.6717940015216" stroke="grey" stroke-width="5" />
<circle cx="358.7660936174204" cy="538.6717940015216" r="2.5" fill="grey" stroke="none" />
<path d="M358.7660936174204,538.6717940015217 A146.43266016630096,146.43266016630096,0,0,1,364.69839630152427,443.99999999999994" stroke="grey" stroke-width="5" fill="none" />
<circle cx="324.69839630152427" cy="548.0" r="5" fill="black" stroke="none" />
<circle cx="364.69839630152427" cy="444.0" r="5" fill="black" stroke="none" />
<path d="M364.69839630152427,444.0 L365.2154107193419,444.2139871709304" stroke="grey" stroke-width="5" />
<circle cx="365.2154107193419" cy="444.2139871709304" r="2.5" fill="grey" stroke="none" />
<path d="M365.2154107193419,444.2139871709304 A145.87311176128662,145.87311176128662,0,0,1,476.69839630152427,356.0" stroke="grey" stroke-width="5" fill="none" />
<circle cx="364.69839630152427" cy="444.0" r="5" fill="black" stroke="none" />
<circle cx="476.69839630152427" cy="356.0" r="5" fill="black" stroke="none" />
<path d="M476.69839630152427,356.0 L480.4295385308217,379.0578327556904" stroke="grey" stroke-width="5" />
<circle cx="480.4295385308217" cy="379.0578327556904" r="2.5" fill="grey" stroke="none" />
<path d="M480.4295385308217,379.0578327556904 A122.51534916028746,122.51534916028746,0,0,1,524.6983963015242,380.0" stroke="grey" stroke-width="5" fill="none" />
<circle cx="476.69839630152427" cy="356.0" r="5" fill="black" stroke="none" />
<circle cx="524.6983963015243" cy="380.0" r="5" fill="black" stroke="none" />
<path d="M524.6983963015243,380.0 L523.0620398835429,387.95042592079744" stroke="grey" stroke-width="5" />
<circle cx="523.0620398835429" cy="387.95042592079744" r="2.5" fill="grey" stroke="none" />
<path d="M523.0620398835429,387.95042592079744 A114.3982724297916,114.3982724297916,0,0,0,476.6983963015242,388.0" stroke="grey" stroke-width="5" fill="none" />
<circle cx="524.6983963015243" cy="380.0" r="5" fill="black" stroke="none" />
<circle cx="476.69839630152427" cy="388.0" r="5" fill="black" stroke="none" />
<path d="M476.69839630152427,356.0 L481.72615106537603,387.0706806004953" stroke="grey" stroke-width="5" />
<circle cx="481.72615106537603" cy="387.0706806004953" r="2.5" fill="grey" stroke="none" />
<path d="M481.72615106537603,387.0706806004953 A114.3982724297916,114.3982724297916,0,0,0,476.6983963015242,388.0" stroke="grey" stroke-width="5" fill="none" />
<circle cx="476.69839630152427" cy="356.0" r="5" fill="black" stroke="none" />
<circle cx="476.69839630152427" cy="388.0" r="5" fill="black" stroke="none" />
<path d="M476.69839630152427,388.0 L485.4766887894456,430.193179978917" stroke="grey" stroke-width="5" />
<circle cx="485.4766887894456" cy="430.193179978917" r="2.5" fill="grey" stroke="none" />
<path d="M485.4766887894455,430.193179978917 A71.30160369847573,71.30160369847573,0,0,0,428.69839630152427,500.0" stroke="grey" stroke-width="5" fill="none" />
<circle cx="476.69839630152427" cy="388.0" r="5" fill="black" stroke="none" />
<circle cx="428.69839630152427" cy="500.0" r="5" fill="black" stroke="none" />
<path d="M364.69839630152427,444.0 L434.11837689951983,472.7322456439705" stroke="grey" stroke-width="5" />
<circle cx="434.11837689951983" cy="472.7322456439705" r="2.5" fill="grey" stroke="none" />
<path d="M434.11837689951983,472.7322456439705 A71.30160369847573,71.30160369847573,0,0,0,428.69839630152427,500.0" stroke="grey" stroke-width="5" fill="none" />
<circle cx="364.69839630152427" cy="444.0" r="5" fill="black" stroke="none" />
<circle cx="428.69839630152427" cy="500.0" r="5" fill="black" stroke="none" />
<path d="M428.69839630152427,500.0 A71.30160369847573,71.30160369847573,0,0,0,440.8523434378589,539.8180036312908" stroke="grey" stroke-width="5" fill="none" />
<path d="M440.8523434378589,539.8180036312909 L428.69839630152427,548.0" stroke="grey" stroke-width="5" />
<circle cx="440.8523434378589" cy="539.8180036312909" r="2.5" fill="grey" stroke="none" />
<circle cx="428.69839630152427" cy="500.0" r="5" fill="black" stroke="none" />
<circle cx="428.69839630152427" cy="548.0" r="5" fill="black" stroke="none" />
<path d="M524.6983963015242,380.0 A122.51534916028746,122.51534916028746,0,0,1,545.9281319975387,386.41911485164496" stroke="grey" stroke-width="5" fill="none" />
<path d="M545.9281319975387,386.41911485164496 L564.6983963015243,340.0" stroke="grey" stroke-width="5" />
<circle cx="545.9281319975387" cy="386.41911485164496" r="2.5" fill="grey" stroke="none" />
<circle cx="524.6983963015243" cy="380.0" r="5" fill="black" stroke="none" />
<circle cx="564.6983963015243" cy="340.0" r="5" fill="black" stroke="none" />
<path d="M524.6983963015243,380.0 L518.4995665033271,410.1177277545652" stroke="grey" stroke-width="5" />
<circle cx="518.4995665033271" cy="410.1177277545652" r="2.5" fill="grey" stroke="none" />
<path d="M518.4995665033271,410.1177277545652 A91.76631639557881,91.76631639557881,0,0,1,572.6983963015243,444.0" stroke="grey" stroke-width="5" fill="none" />
<circle cx="524.6983963015243" cy="380.0" r="5" fill="black" stroke="none" />
<circle cx="572.6983963015243" cy="444.0" r="5" fill="black" stroke="none" />
<path d="M476.69839630152427,388.0 L487.5333187053329,440.07844597004896" stroke="grey" stroke-width="5" />
<circle cx="487.5333187053329" cy="440.07844597004896" r="2.5" fill="grey" stroke="none" />
<path d="M487.5333187053328,440.07844597004896 A61.204663056560875,61.204663056560875,0,0,1,524.6983963015243,444.0" stroke="grey" stroke-width="5" fill="none" />
<circle cx="476.69839630152427" cy="388.0" r="5" fill="black" stroke="none" />
<circle cx="524.6983963015243" cy="444.0" r="5" fill="black" stroke="none" />
<path d="M428.69839630152427,500.0 L476.69839630152427,500.0" stroke="grey" stroke-width="5" />
<circle cx="476.69839630152427" cy="500.0" r="2.5" fill="grey" stroke="none" />
<path d="M476.69839630152427,500.0 A23.30160369847573,23.30160369847573,0,0,1,476.69839630152427,500.0" stroke="grey" stroke-width="5" fill="none" />
<circle cx="428.69839630152427" cy="500.0" r="5" fill="black" stroke="none" />
<circle cx="476.69839630152427" cy="500.0" r="5" fill="black" stroke="none" />
<path d="M428.69839630152427,548.0 L455.22002760601845,530.1457269320447" stroke="grey" stroke-width="5" />
<circle cx="455.22002760601845" cy="530.1457269320447" r="2.5" fill="grey" stroke="none" />
<path d="M455.22002760601845,530.1457269320446 A53.98157815280272,53.98157815280272,0,0,0,524.6983963015243,548.0" stroke="grey" stroke-width="5" fill="none" />
<circle cx="428.69839630152427" cy="548.0" r="5" fill="black" stroke="none" />
<circle cx="524.6983963015243" cy="548.0" r="5" fill="black" stroke="none" />
<path d="M428.69839630152427,604.0 L439.55656169929625,588.1623590102724" stroke="grey" stroke-width="5" />
<circle cx="439.55656169929625" cy="588.1623590102724" r="2.5" fill="grey" stroke="none" />
<path d="M439.55656169929625,588.1623590102724 A106.89251975637559,106.89251975637559,0,0,0,524.6983963015242,604.0" stroke="grey" stroke-width="5" fill="none" />
<circle cx="428.69839630152427" cy="604.0" r="5" fill="black" stroke="none" />
<circle cx="524.6983963015243" cy="604.0" r="5" fill="black" stroke="none" />
<path d="M572.6983963015243,444.0 L548.4870813731551,462.6501175399415" stroke="grey" stroke-width="5" />
<circle cx="548.4870813731551" cy="462.6501175399415" r="2.5" fill="grey" stroke="none" />
<path d="M548.4870813731551,462.6501175399415 A61.204663056560875,61.204663056560875,0,0,0,524.6983963015243,444.0" stroke="grey" stroke-width="5" fill="none" />
<circle cx="572.6983963015243" cy="444.0" r="5" fill="black" stroke="none" />
<circle cx="524.6983963015243" cy="444.0" r="5" fill="black" stroke="none" />
<path d="M524.6983963015243,444.0 L509.40307835816645,478.67989558395647" stroke="grey" stroke-width="5" />
<circle cx="509.40307835816645" cy="478.67989558395647" r="2.5" fill="grey" stroke="none" />
<path d="M509.40307835816645,478.67989558395647 A23.30160369847573,23.30160369847573,0,0,0,476.69839630152427,500.0" stroke="grey" stroke-width="5" fill="none" />
<circle cx="524.6983963015243" cy="444.0" r="5" fill="black" stroke="none" />
<circle cx="476.69839630152427" cy="500.0" r="5" fill="black" stroke="none" />
<path d="M476.69839630152427,500.0 A23.30160369847573,23.30160369847573,0,0,0,510.66127116508056,520.7196050171194" stroke="grey" stroke-width="5" fill="none" />
<path d="M510.66127116508056,520.7196050171194 L524.6983963015243,548.0" stroke="grey" stroke-width="5" />
<circle cx="510.66127116508056" cy="520.7196050171194" r="2.5" fill="grey" stroke="none" />
<circle cx="476.69839630152427" cy="500.0" r="5" fill="black" stroke="none" />
<circle cx="524.6983963015243" cy="548.0" r="5" fill="black" stroke="none" />
<path d="M524.6983963015243,548.0 A53.98157815280272,53.98157815280272,0,0,1,512.4728878432123,552.5208325211796" stroke="grey" stroke-width="5" fill="none" />
<path d="M512.4728878432123,552.5208325211796 L524.6983963015243,604.0" stroke="grey" stroke-width="5" />
<circle cx="512.4728878432123" cy="552.5208325211796" r="2.5" fill="grey" stroke="none" />
<circle cx="524.6983963015243" cy="548.0" r="5" fill="black" stroke="none" />
<circle cx="524.6983963015243" cy="604.0" r="5" fill="black" stroke="none" />
<path d="M524.6983963015242,604.0 A106.89251975637559,106.89251975637559,0,0,0,549.7269292543793,594.6215793928484" stroke="grey" stroke-width="5" fill="none" />
<path d="M549.7269292543793,594.6215793928484 L596.6983963015243,684.0" stroke="grey" stroke-width="5" />
<circle cx="549.7269292543793" cy="594.6215793928484" r="2.5" fill="grey" stroke="none" />
<circle cx="524.6983963015243" cy="604.0" r="5" fill="black" stroke="none" />
<circle cx="596.6983963015243" cy="684.0" r="5" fill="black" stroke="none" />
<path d="M572.6983963015243,444.0 L546.1631632798311,464.44024524353455" stroke="grey" stroke-width="5" />
<circle cx="546.1631632798311" cy="464.44024524353455" r="2.5" fill="grey" stroke="none" />
<path d="M546.1631632798311,464.44024524353455 A58.27120903448214,58.27120903448214,0,0,1,548.6983963015243,468.0" stroke="grey" stroke-width="5" fill="none" />
<circle cx="572.6983963015243" cy="444.0" r="5" fill="black" stroke="none" />
<circle cx="548.6983963015243" cy="468.0" r="5" fill="black" stroke="none" />
<path d="M548.6983963015243,468.0 L520.6409359104251,486.4367207280514" stroke="grey" stroke-width="5" />
<circle cx="520.6409359104251" cy="486.4367207280514" r="2.5" fill="grey" stroke="none" />
<path d="M520.6409359104251,486.4367207280514 A24.69839630152427,24.69839630152427,0,0,1,524.6983963015243,500.0" stroke="grey" stroke-width="5" fill="none" />
<circle cx="548.6983963015243" cy="468.0" r="5" fill="black" stroke="none" />
<circle cx="524.6983963015243" cy="500.0" r="5" fill="black" stroke="none" />
<path d="M524.6983963015243,500.0 A24.69839630152427,24.69839630152427,0,0,1,511.3003509853014,521.9616221503819" stroke="grey" stroke-width="5" fill="none" />
<path d="M511.3003509853014,521.9616221503819 L524.6983963015243,548.0" stroke="grey" stroke-width="5" />
<circle cx="511.3003509853014" cy="521.9616221503819" r="2.5" fill="grey" stroke="none" />
<circle cx="524.6983963015243" cy="500.0" r="5" fill="black" stroke="none" />
<circle cx="524.6983963015243" cy="548.0" r="5" fill="black" stroke="none" />
<path d="M524.6983963015243,444.0 L523.5146366604877,446.68400179059233" stroke="grey" stroke-width="5" />
<circle cx="523.5146366604877" cy="446.68400179059233" r="2.5" fill="grey" stroke="none" />
<path d="M523.5146366604877,446.68400179059233 A58.27120903448214,58.27120903448214,0,0,1,548.6983963015243,468.0" stroke="grey" stroke-width="5" fill="none" />
<circle cx="524.6983963015243" cy="444.0" r="5" fill="black" stroke="none" />
<circle cx="548.6983963015243" cy="468.0" r="5" fill="black" stroke="none" />
<path d="M476.69839630152427,500.0 L524.6983963015243,500.0" stroke="grey" stroke-width="5" />
<circle cx="476.69839630152427" cy="500.0" r="5" fill="black" stroke="none" />
<circle cx="524.6983963015243" cy="500.0" r="5" fill="black" stroke="none" />
<path d="M572.6983963015243,444.0 L557.5925571865725,455.636116248407" stroke="grey" stroke-width="5" />
<circle cx="557.5925571865725" cy="455.636116248407" r="2.5" fill="grey" stroke="none" />
<path d="M557.5925571865725,455.636116248407 A72.69839630152427,72.69839630152427,0,0,1,572.6983963015243,500.0" stroke="grey" stroke-width="5" fill="none" />
<circle cx="572.6983963015243" cy="444.0" r="5" fill="black" stroke="none" />
<circle cx="572.6983963015243" cy="500.0" r="5" fill="black" stroke="none" />
<path d="M548.6983963015243,468.0 A58.27120903448214,58.27120903448214,0,0,1,558.2712090344821,500.0" stroke="grey" stroke-width="5" fill="none" />
<path d="M558.2712090344821,500.0 L572.6983963015243,500.0" stroke="grey" stroke-width="5" />
<circle cx="558.2712090344821" cy="500.0" r="2.5" fill="grey" stroke="none" />
<circle cx="548.6983963015243" cy="468.0" r="5" fill="black" stroke="none" />
<circle cx="572.6983963015243" cy="500.0" r="5" fill="black" stroke="none" />
<path d="M524.6983963015243,500.0 A24.69839630152427,24.69839630152427,0,0,1,524.6983963015243,500.0" stroke="grey" stroke-width="5" fill="none" />
<path d="M524.6983963015243,500.0 L572.6983963015243,500.0" stroke="grey" stroke-width="5" />
<circle cx="524.6983963015243" cy="500.0" r="2.5" fill="grey" stroke="none" />
<circle cx="524.6983963015243" cy="500.0" r="5" fill="black" stroke="none" />
<circle cx="572.6983963015243" cy="500.0" r="5" fill="black" stroke="none" />
<path d="M524.6983963015243,548.0 A53.98157815280272,53.98157815280272,0,0,0,553.9815781528027,500.0" stroke="grey" stroke-width="5" fill="none" />
<path d="M553.9815781528027,500.0 L572.6983963015243,500.0" stroke="grey" stroke-width="5" />
<circle cx="553.9815781528027" cy="500.0" r="2.5" fill="grey" stroke="none" />
<circle cx="524.6983963015243" cy="548.0" r="5" fill="black" stroke="none" />
<circle cx="572.6983963015243" cy="500.0" r="5" fill="black" stroke="none" />
<path d="M572.6983963015243,500.0 A72.69839630152427,72.69839630152427,0,0,1,551.6530395197213,551.1568209839859" stroke="grey" stroke-width="5" fill="none" />
<path d="M551.6530395197213,551.1568209839859 L572.6983963015243,572.0" stroke="grey" stroke-width="5" />
<circle cx="551.6530395197213" cy="551.1568209839859" r="2.5" fill="grey" stroke="none" />
<circle cx="572.6983963015243" cy="500.0" r="5" fill="black" stroke="none" />
<circle cx="572.6983963015243" cy="572.0" r="5" fill="black" stroke="none" />
<path d="M572.6983963015243,572.0 A102.31840902209865,102.31840902209865,0,0,1,523.6415103763004,599.5496650518763" stroke="grey" stroke-width="5" fill="none" />
<path d="M523.6415103763004,599.5496650518763 L524.6983963015243,604.0" stroke="grey" stroke-width="5" />
<circle cx="523.6415103763004" cy="599.5496650518763" r="2.5" fill="grey" stroke="none" />
<circle cx="572.6983963015243" cy="572.0" r="5" fill="black" stroke="none" />
<circle cx="524.6983963015243" cy="604.0" r="5" fill="black" stroke="none" />
<path d="M572.6983963015243,444.0 A91.76631639557881,91.76631639557881,0,0,0,568.02309900035,438.4052370148074" stroke="grey" stroke-width="5" fill="none" />
<path d="M568.02309900035,438.4052370148074 L676.6983963015243,340.0" stroke="grey" stroke-width="5" />
<circle cx="568.02309900035" cy="438.4052370148074" r="2.5" fill="grey" stroke="none" />
<circle cx="572.6983963015243" cy="444.0" r="5" fill="black" stroke="none" />
<circle cx="676.6983963015243" cy="340.0" r="5" fill="black" stroke="none" />
<path d="M572.6983963015243,444.0 A91.76631639557881,91.76631639557881,0,0,1,590.6216474945907,485.55099206936274" stroke="grey" stroke-width="5" fill="none" />
<path d="M590.6216474945907,485.55099206936274 L700.6983963015243,468.0" stroke="grey" stroke-width="5" />
<circle cx="590.6216474945907" cy="485.55099206936274" r="2.5" fill="grey" stroke="none" />
<circle cx="572.6983963015243" cy="444.0" r="5" fill="black" stroke="none" />
<circle cx="700.6983963015243" cy="468.0" r="5" fill="black" stroke="none" />
<path d="M700.6983963015243,468.0 A203.2334772570791,203.2334772570791,0,0,1,701.9963994580736,477.6102504708502" stroke="grey" stroke-width="5" fill="none" />
<path d="M701.9963994580736,477.6102504708502 L788.6983963015243,468.0" stroke="grey" stroke-width="5" />
<circle cx="701.9963994580736" cy="477.6102504708502" r="2.5" fill="grey" stroke="none" />
<circle cx="700.6983963015243" cy="468.0" r="5" fill="black" stroke="none" />
<circle cx="788.6983963015243" cy="468.0" r="5" fill="black" stroke="none" />
<path d="M572.6983963015243,500.0 A72.69839630152427,72.69839630152427,0,0,1,557.857437819729,544.017879478113" stroke="grey" stroke-width="5" fill="none" />
<path d="M557.857437819729,544.017879478113 L636.6983963015243,604.0" stroke="grey" stroke-width="5" />
<circle cx="557.857437819729" cy="544.017879478113" r="2.5" fill="grey" stroke="none" />
<circle cx="572.6983963015243" cy="500.0" r="5" fill="black" stroke="none" />
<circle cx="636.6983963015243" cy="604.0" r="5" fill="black" stroke="none" />
<circle cx="500" cy="500" r="5" fill="red" stroke="none" />
</svg>