<?xml version="1.0" encoding="UTF-8"?>
<svg xmlns="http://www.w3.org/2000/svg" xmlns:xlink="http://www.w3.org/1999/xlink"
     width="1000" height="1000" viewBox="0 0 1000 1000">
<defs>
</defs>
<rect x="0" y="0" width="1000" height="1000" fill="white" />
<path d="M268.4120412937014,819.5879587062987 L344.9144648476097,714.0157453828722" stroke="grey" stroke-width="5" />
<circle cx="344.9144648476097" cy="714.0157453828722" r="2.5" fill="grey" stroke="none" />
<path d="M344.9144648476097,714.0157453828722 A264.29956958967915,264.29956958967915,0,0,0,388.4120412937013,739.5879587062987" stroke="grey" stroke-width="5" fill="none" />
<circle cx="268.4120412937014" cy="819.5879587062987" r="5" fill="black" stroke="none" />
<circle cx="388.4120412937014" cy="739.5879587062987" r="5" fill="black" stroke="none" />
<path d="M388.4120412937014,739.5879587062987 L409.2938166238661,694.7531756031706" stroke="grey" stroke-width="5" />
<circle cx="409.2938166238661" cy="694.7531756031706" r="2.5" fill="grey" stroke="none" />
<path d="M409.29381662386606,694.7531756031705 A214.84043173989434,214.84043173989434,0,0,1,388.41204129370135,683.5879587062987" stroke="grey" stroke-width="5" fill="none" />
<circle cx="388.4120412937014" cy="739.5879587062987" r="5" fill="black" stroke="none" />
<circle cx="388.4120412937014" cy="683.5879587062987" r="5" fill="black" stroke="none" />
<path d="M388.41204129370135,683.5879587062987 A214.84043173989434,214.84043173989434,0,0,1,336.4313154121429,639.2899728350262" stroke="grey" stroke-width="5" fill="none" />
<path d="M336.4313154121429,639.2899728350262 L284.4120412937014,683.5879587062987" stroke="grey" stroke-width="5" />
<circle cx="336.4313154121429" cy="639.2899728350262" r="2.5" fill="grey" stroke="none" />
<circle cx="388.4120412937014" cy="683.5879587062987" r="5" fill="black" stroke="none" />
<circle cx="284.4120412937014" cy="683.5879587062987" r="5" fill="black" stroke="none" />
<path d="M284.4120412937014,683.5879587062987 L353.2245566641336,624.989374137325" stroke="grey" stroke-width="5" />
<circle cx="353.2245566641336" cy="624.989374137325" r="2.5" fill="grey" stroke="none" />
<path d="M353.2245566641336,624.989374137325 A192.78323167143017,192.78323167143017,0,0,1,324.41204129370135,579.5879587062987" stroke="grey" stroke-width="5" fill="none" />
<circle cx="284.4120412937014" cy="683.5879587062987" r="5" fill="black" stroke="none" />
<circle cx="324.4120412937014" cy="579.5879587062987" r="5" fill="black" stroke="none" />
<path d="M324.4120412937014,579.5879587062987 L441.5791737316908,526.4801433018952" stroke="grey" stroke-width="5" />
<circle cx="441.5791737316908" cy="526.4801433018952" r="2.5" fill="grey" stroke="none" />
<path d="M441.5791737316908,526.4801433018952 A64.14195920893648,64.14195920893648,0,0,1,436.4120412937014,491.5879587062986" stroke="grey" stroke-width="5" fill="none" />
<circle cx="324.4120412937014" cy="579.5879587062987" r="5" fill="black" stroke="none" />
<circle cx="436.4120412937014" cy="491.5879587062986" r="5" fill="black" stroke="none" />
<path d="M436.4120412937014,491.5879587062986 L478.1456996842199,497.108897966824" stroke="grey" stroke-width="5" />
<circle cx="478.1456996842199" cy="497.108897966824" r="2.5" fill="grey" stroke="none" />
<path d="M478.1456996842199,497.108897966824 A22.044702612159245,22.044702612159245,0,0,0,484.4120412937014,515.5879587062987" stroke="grey" stroke-width="5" fill="none" />
<circle cx="436.4120412937014" cy="491.5879587062986" r="5" fill="black" stroke="none" />
<circle cx="484.4120412937014" cy="515.5879587062987" r="5" fill="black" stroke="none" />
<path d="M484.4120412937014,515.5879587062987 A22.044702612159245,22.044702612159245,0,0,1,479.33151253578393,507.6669771879198" stroke="grey" stroke-width="5" fill="none" />
<path d="M479.33151253578393,507.6669771879198 L436.4120412937014,523.5879587062987" stroke="grey" stroke-width="5" />
<circle cx="479.33151253578393" cy="507.6669771879198" r="2.5" fill="grey" stroke="none" />
<circle cx="484.4120412937014" cy="515.5879587062987" r="5" fill="black" stroke="none" />
<circle cx="436.4120412937014" cy="523.5879587062987" r="5" fill="black" stroke="none" />
<path d="M436.4120412937014,491.5879587062986 A64.14195920893648,64.14195920893648,0,0,0,439.8623196164626,522.3080776681537" stroke="grey" stroke-width="5" fill="none" />
<path d="M439.8623196164626,522.3080776681537 L436.4120412937014,523.5879587062987" stroke="grey" stroke-width="5" />
<circle cx="439.8623196164626" cy="522.3080776681537" r="2.5" fill="grey" stroke="none" />
<circle cx="436.4120412937014" cy="491.5879587062986" r="5" fill="black" stroke="none" />
<circle cx="436.4120412937014" cy="523.5879587062987" r="5" fill="black" stroke="none" />
<path d="M436.4120412937014,523.5879587062987 A67.82197496655478,67.82197496655478,0,0,0,456.90181523911224,552.3676117335932" stroke="grey" stroke-width="5" fill="none" />
<path d="M456.90181523911224,552.3676117335932 L388.4120412937014,635.5879587062987" stroke="grey" stroke-width="5" />
<circle cx="456.90181523911224" cy="552.3676117335932" r="2.5" fill="grey" stroke="none" />
<circle cx="436.4120412937014" cy="523.5879587062987" r="5" fill="black" stroke="none" />
<circle cx="388.4120412937014" cy="635.5879587062987" r="5" fill="black" stroke="none" />
<path d="M324.4120412937014,579.5879587062987 L340.06104267274236,572.4948067343391" stroke="grey" stroke-width="5" />
<circle cx="340.06104267274236" cy="572.4948067343391" r="2.5" fill="grey" stroke="none" />
<path d="M340.06104267274236,572.4948067343391 A175.60172856318792,175.60172856318792,0,0,0,388.41204129370135,635.5879587062985" stroke="grey" stroke-width="5" fill="none" />
<circle cx="324.4120412937014" cy="579.5879587062987" r="5" fill="black" stroke="none" />
<circle cx="388.4120412937014" cy="635.5879587062987" r="5" fill="black" stroke="none" />
<path d="M388.41204129370135,635.5879587062985 A175.60172856318792,175.60172856318792,0,0,0,408.7925942199407,650.0572430949308" stroke="grey" stroke-width="5" fill="none" />
<path d="M408.7925942199407,650.0572430949308 L388.4120412937014,683.5879587062987" stroke="grey" stroke-width="5" />
<circle cx="408.7925942199407" cy="650.0572430949308" r="2.5" fill="grey" stroke="none" />
<circle cx="388.4120412937014" cy="635.5879587062987" r="5" fill="black" stroke="none" />
<circle cx="388.4120412937014" cy="683.5879587062987" r="5" fill="black" stroke="none" />
<path d="M484.4120412937014,515.5879587062987 L524.4120412937013,475.5879587062986" stroke="grey" stroke-width="5" />
<circle cx="484.4120412937014" cy="515.5879587062987" r="5" fill="black" stroke="none" />
<circle cx="524.4120412937013" cy="475.5879587062986" r="5" fill="black" stroke="none" />
<path d="M484.4120412937014,515.5879587062987 A22.044702612159245,22.044702612159245,0,0,0,508.3146072857061,520.41656726639" stroke="grey" stroke-width="5" fill="none" />
<path d="M508.3146072857061,520.41656726639 L532.4120412937013,579.5879587062987" stroke="grey" stroke-width="5" />
<circle cx="508.3146072857061" cy="520.41656726639" r="2.5" fill="grey" stroke="none" />
<circle cx="484.4120412937014" cy="515.5879587062987" r="5" fill="black" stroke="none" />
<circle cx="532.4120412937013" cy="579.5879587062987" r="5" fill="black" stroke="none" />
<path d="M436.4120412937014,523.5879587062987 A67.82197496655478,67.82197496655478,0,0,0,486.96418337305477,566.5574020919735" stroke="grey" stroke-width="5" fill="none" />
<path d="M486.9641833730548,566.5574020919735 L484.4120412937014,579.5879587062987" stroke="grey" stroke-width="5" />
<circle cx="486.9641833730548" cy="566.5574020919735" r="2.5" fill="grey" stroke="none" />
<circle cx="436.4120412937014" cy="523.5879587062987" r="5" fill="black" stroke="none" />
<circle cx="484.4120412937014" cy="579.5879587062987" r="5" fill="black" stroke="none" />
<path d="M388.4120412937014,635.5879587062987 L404.83457265846505,615.6333190627939" stroke="grey" stroke-width="5" />
<circle cx="404.83457265846505" cy="615.6333190627939" r="2.5" fill="grey" stroke="none" />
<path d="M404.83457265846505,615.6333190627939 A149.75821526238508,149.75821526238508,0,0,0,436.4120412937014,635.5879587062987" stroke="grey" stroke-width="5" fill="none" />
<circle cx="388.4120412937014" cy="635.5879587062987" r="5" fill="black" stroke="none" />
<circle cx="436.4120412937014" cy="635.5879587062987" r="5" fill="black" stroke="none" />
<path d="M388.4120412937014,683.5879587062987 L404.3014489100321,657.4462141744146" stroke="grey" stroke-width="5" />
<circle cx="404.3014489100321" cy="657.4462141744146" r="2.5" fill="grey" stroke="none" />
<path d="M404.3014489100321,657.4462141744146 A184.24853605544567,184.24853605544567,0,0,0,484.41204129370146,683.5879587062987" stroke="grey" stroke-width="5" fill="none" />
<circle cx="388.4120412937014" cy="683.5879587062987" r="5" fill="black" stroke="none" />
<circle cx="484.4120412937014" cy="683.5879587062987" r="5" fill="black" stroke="none" />
<path d="M388.4120412937014,739.5879587062987 L398.6314791678956,717.6460369452923" stroke="grey" stroke-width="5" />
<circle cx="398.6314791678956" cy="717.6460369452923" r="2.5" fill="grey" stroke="none" />
<path d="M398.63147916789546,717.6460369452923 A240.09451141931652,240.09451141931652,0,0,0,484.4120412937014,739.5879587062987" stroke="grey" stroke-width="5" fill="none" />
<circle cx="388.4120412937014" cy="739.5879587062987" r="5" fill="black" stroke="none" />
<circle cx="484.4120412937014" cy="739.5879587062987" r="5" fill="black" stroke="none" />
<path d="M532.4120412937013,579.5879587062987 L530.588553012182,575.1103724680266" stroke="grey" stroke-width="5" />
<circle cx="530.588553012182" cy="575.1103724680266" r="2.5" fill="grey" stroke="none" />
<path d="M530.588553012182,575.1103724680266 A81.10010867850156,81.10010867850156,0,0,1,484.4120412937014,579.5879587062987" stroke="grey" stroke-width="5" fill="none" />
<circle cx="532.4120412937013" cy="579.5879587062987" r="5" fill="black" stroke="none" />
<circle cx="484.4120412937014" cy="579.5879587062987" r="5" fill="black" stroke="none" />
<path d="M484.4120412937014,579.5879587062987 A81.10010867850156,81.10010867850156,0,0,1,465.5645578261631,573.4263437054924" stroke="grey" stroke-width="5" fill="none" />
<path d="M465.5645578261631,573.4263437054924 L436.4120412937014,635.5879587062987" stroke="grey" stroke-width="5" />
<circle cx="465.5645578261631" cy="573.4263437054924" r="2.5" fill="grey" stroke="none" />
<circle cx="484.4120412937014" cy="579.5879587062987" r="5" fill="black" stroke="none" />
<circle cx="436.4120412937014" cy="635.5879587062987" r="5" fill="black" stroke="none" />
<path d="M436.4120412937014,635.5879587062987 A149.75821526238508,149.75821526238508,0,0,0,487.3300221243737,649.2212943892594" stroke="grey" stroke-width="5" fill="none" />
<path d="M487.33002212437367,649.2212943892594 L484.4120412937014,683.5879587062987" stroke="grey" stroke-width="5" />
<circle cx="487.33002212437367" cy="649.2212943892594" r="2.5" fill="grey" stroke="none" />
<circle cx="436.4120412937014" cy="635.5879587062987" r="5" fill="black" stroke="none" />
<circle cx="484.4120412937014" cy="683.5879587062987" r="5" fill="black" stroke="none" />
<path d="M484.41204129370146,683.5879587062987 A184.24853605544567,184.24853605544567,0,0,0,488.03779996989476,683.8598074866136" stroke="grey" stroke-width="5" fill="none" />
<path d="M488.03779996989476,683.8598074866136 L484.4120412937014,739.5879587062987" stroke="grey" stroke-width="5" />
<circle cx="488.03779996989476" cy="683.8598074866136" r="2.5" fill="grey" stroke="none" />
<circle cx="484.4120412937014" cy="683.5879587062987" r="5" fill="black" stroke="none" />
<circle cx="484.4120412937014" cy="739.5879587062987" r="5" fill="black" stroke="none" />
<path d="M484.4120412937014,739.5879587062987 A240.09451141931652,240.09451141931652,0,0,0,541.7350688090612,736.4393335407271" stroke="grey" stroke-width="5" fill="none" />
<path d="M541.7350688090611,736.4393335407271 L556.4120412937013,819.5879587062987" stroke="grey" stroke-width="5" />
<circle cx="541.7350688090611" cy="736.4393335407271" r="2.5" fill="grey" stroke="none" />
<circle cx="484.4120412937014" cy="739.5879587062987" r="5" fill="black" stroke="none" />
<circle cx="556.4120412937013" cy="819.5879587062987" r="5" fill="black" stroke="none" />
<path d="M532.4120412937015,579.5879587062987 A85.93476358180139,85.93476358180139,0,0,1,506.95558597518124,585.6528074005864" stroke="grey" stroke-width="5" fill="none" />
<path d="M506.9555859751813,585.6528074005864 L508.4120412937014,603.5879587062987" stroke="grey" stroke-width="5" />
<circle cx="506.9555859751813" cy="585.6528074005864" r="2.5" fill="grey" stroke="none" />
<circle cx="532.4120412937013" cy="579.5879587062987" r="5" fill="black" stroke="none" />
<circle cx="508.4120412937014" cy="603.5879587062987" r="5" fill="black" stroke="none" />
<path d="M508.4120412937014,603.5879587062987 A103.92895471265341,103.92895471265341,0,0,1,488.129925965893,603.2488690983566" stroke="grey" stroke-width="5" fill="none" />
<path d="M488.129925965893,603.2488690983566 L484.4120412937014,635.5879587062987" stroke="grey" stroke-width="5" />
<circle cx="488.129925965893" cy="603.2488690983566" r="2.5" fill="grey" stroke="none" />
<circle cx="508.4120412937014" cy="603.5879587062987" r="5" fill="black" stroke="none" />
<circle cx="484.4120412937014" cy="635.5879587062987" r="5" fill="black" stroke="none" />
<path d="M484.4120412937014,635.5879587062987 A136.48105730382588,136.48105730382588,0,0,0,488.45330806425625,635.9917383818268" stroke="grey" stroke-width="5" fill="none" />
<path d="M488.45330806425625,635.9917383818268 L484.4120412937014,683.5879587062987" stroke="grey" stroke-width="5" />
<circle cx="488.45330806425625" cy="635.9917383818268" r="2.5" fill="grey" stroke="none" />
<circle cx="484.4120412937014" cy="635.5879587062987" r="5" fill="black" stroke="none" />
<circle cx="484.4120412937014" cy="683.5879587062987" r="5" fill="black" stroke="none" />
<path d="M484.4120412937014,579.5879587062987 A81.10010867850156,81.10010867850156,0,0,0,506.5642675326952,580.834015237547" stroke="grey" stroke-width="5" fill="none" />
<path d="M506.5642675326953,580.834015237547 L508.4120412937014,603.5879587062987" stroke="grey" stroke-width="5" />
<circle cx="506.5642675326953" cy="580.834015237547" r="2.5" fill="grey" stroke="none" />
<circle cx="484.4120412937014" cy="579.5879587062987" r="5" fill="black" stroke="none" />
<circle cx="508.4120412937014" cy="603.5879587062987" r="5" fill="black" stroke="none" />
<path d="M436.4120412937014,635.5879587062987 L442.0495775752781,623.5670973340658" stroke="grey" stroke-width="5" />
<circle cx="442.0495775752781" cy="623.5670973340658" r="2.5" fill="grey" stroke="none" />
<path d="M442.0495775752781,623.5670973340658 A136.48105730382588,136.48105730382588,0,0,0,484.4120412937014,635.5879587062987" stroke="grey" stroke-width="5" fill="none" />
<circle cx="436.4120412937014" cy="635.5879587062987" r="5" fill="black" stroke="none" />
<circle cx="484.4120412937014" cy="635.5879587062987" r="5" fill="black" stroke="none" />
<path d="M532.4120412937015,579.5879587062987 A85.93476358180139,85.93476358180139,0,0,1,519.9796131983215,583.5798938041055" stroke="grey" stroke-width="5" fill="none" />
<path d="M519.9796131983215,583.5798938041055 L532.4120412937013,635.5879587062987" stroke="grey" stroke-width="5" />
<circle cx="519.9796131983215" cy="583.5798938041055" r="2.5" fill="grey" stroke="none" />
<circle cx="532.4120412937013" cy="579.5879587062987" r="5" fill="black" stroke="none" />
<circle cx="532.4120412937013" cy="635.5879587062987" r="5" fill="black" stroke="none" />
<path d="M508.4120412937014,603.5879587062987 A103.92895471265341,103.92895471265341,0,0,0,524.1632167090111,601.0809902303006" stroke="grey" stroke-width="5" fill="none" />
<path d="M524.1632167090111,601.0809902303006 L532.4120412937013,635.5879587062987" stroke="grey" stroke-width="5" />
<circle cx="524.1632167090111" cy="601.0809902303006" r="2.5" fill="grey" stroke="none" />
<circle cx="508.4120412937014" cy="603.5879587062987" r="5" fill="black" stroke="none" />
<circle cx="532.4120412937013" cy="635.5879587062987" r="5" fill="black" stroke="none" />
<path d="M484.4120412937014,635.5879587062987 A136.48105730382588,136.48105730382588,0,0,0,531.7314974775339,632.7410677620286" stroke="grey" stroke-width="5" fill="none" />
<path d="M531.7314974775339,632.7410677620286 L532.4120412937013,635.5879587062987" stroke="grey" stroke-width="5" />
<circle cx="531.7314974775339" cy="632.7410677620286" r="2.5" fill="grey" stroke="none" />
<circle cx="484.4120412937014" cy="635.5879587062987" r="5" fill="black" stroke="none" />
<circle cx="532.4120412937013" cy="635.5879587062987" r="5" fill="black" stroke="none" />
<path d="M484.4120412937014,683.5879587062987 L488.20566674825386,638.9083462939225" stroke="grey" stroke-width="5" />
<circle cx="488.20566674825386" cy="638.9083462939225" r="2.5" fill="grey" stroke="none" />
<path d="M488.2056667482539,638.9083462939225 A139.40815961401088,139.40815961401088,0,0,0,532.4120412937013,635.5879587062987" stroke="grey" stroke-width="5" fill="none" />
<circle cx="484.4120412937014" cy="683.5879587062987" r="5" fill="black" stroke="none" />
<circle cx="532.4120412937013" cy="635.5879587062987" r="5" fill="black" stroke="none" />
<path d="M532.4120412937013,635.5879587062987 A139.40815961401088,139.40815961401088,0,0,1,521.5061254223899,637.7393245819144" stroke="grey" stroke-width="5" fill="none" />
<path d="M521.5061254223899,637.7393245819144 L532.4120412937013,707.5879587062987" stroke="grey" stroke-width="5" />
<circle cx="521.5061254223899" cy="637.7393245819144" r="2.5" fill="grey" stroke="none" />
<circle cx="532.4120412937013" cy="635.5879587062987" r="5" fill="black" stroke="none" />
<circle cx="532.4120412937013" cy="707.5879587062987" r="5" fill="black" stroke="none" />
<path d="M532.4120412937013,707.5879587062987 A210.1030723732343,210.1030723732343,0,0,1,486.3592133078768,709.6597957623076" stroke="grey" stroke-width="5" fill="none" />
<path d="M486.3592133078768,709.6597957623076 L484.4120412937014,739.5879587062987" stroke="grey" stroke-width="5" />
<circle cx="486.3592133078768" cy="709.6597957623076" r="2.5" fill="grey" stroke="none" />
<circle cx="532.4120412937013" cy="707.5879587062987" r="5" fill="black" stroke="none" />
<circle cx="484.4120412937014" cy="739.5879587062987" r="5" fill="black" stroke="none" />
<path d="M532.4120412937015,579.5879587062987 A85.93476358180139,85.93476358180139,0,0,0,584.5908844831939,484.86177506406244" stroke="grey" stroke-width="5" fill="none" />
<path d="M584.5908844831939,484.86177506406244 L636.4120412937013,475.5879587062986" stroke="grey" stroke-width="5" />
<circle cx="584.5908844831939" cy="484.86177506406244" r="2.5" fill="grey" stroke="none" />
<circle cx="532.4120412937013" cy="579.5879587062987" r="5" fill="black" stroke="none" />
<circle cx="636.4120412937013" cy="475.5879587062986" r="5" fill="black" stroke="none" />
<path d="M532.4120412937015,579.5879587062987 A85.93476358180139,85.93476358180139,0,0,0,572.1909407323095,546.6181474111131" stroke="grey" stroke-width="5" fill="none" />
<path d="M572.1909407323095,546.6181474111131 L660.4120412937013,603.5879587062987" stroke="grey" stroke-width="5" />
<circle cx="572.1909407323095" cy="546.6181474111131" r="2.5" fill="grey" stroke="none" />
<circle cx="532.4120412937013" cy="579.5879587062987" r="5" fill="black" stroke="none" />
<circle cx="660.4120412937013" cy="603.5879587062987" r="5" fill="black" stroke="none" />
<path d="M660.4120412937013,603.5879587062987 A190.9515335915111,190.9515335915111,0,0,0,676.2420552742548,573.4930345927864" stroke="grey" stroke-width="5" fill="none" />
<path d="M676.2420552742548,573.4930345927864 L748.4120412937013,603.5879587062987" stroke="grey" stroke-width="5" />
<circle cx="676.2420552742548" cy="573.4930345927864" r="2.5" fill="grey" stroke="none" />
<circle cx="660.4120412937013" cy="603.5879587062987" r="5" fill="black" stroke="none" />
<circle cx="748.4120412937013" cy="603.5879587062987" r="5" fill="black" stroke="none" />
<path d="M532.4120412937013,635.5879587062987 A139.40815961401088,139.40815961401088,0,0,0,552.0432171309002,629.3295732523367" stroke="grey" stroke-width="5" fill="none" />
<path d="M552.0432171309002,629.3295732523367 L596.4120412937013,739.5879587062987" stroke="grey" stroke-width="5" />
<circle cx="552.0432171309002" cy="629.3295732523367" r="2.5" fill="grey" stroke="none" />
<circle cx="532.4120412937013" cy="635.5879587062987" r="5" fill="black" stroke="none" />
<circle cx="596.4120412937013" cy="739.5879587062987" r="5" fill="black" stroke="none" />
<circle cx="500" cy="500" r="5" fill="red" stroke="none" />
</svg>