<?xml version="1.0" encoding="UTF-8"?>
<svg xmlns="http://www.w3.org/2000/svg" xmlns:xlink="http://www.w3.org/1999/xlink"
     width="1000" height="1000" viewBox="0 0 1000 1000">
<defs>
</defs>
<rect x="0" y="0" width="1000" height="1000" fill="white" />
<path d="M362.43125491852544,724.9937385234407 L423.8107467100319,624.6075547383015" stroke="grey" stroke-width="5" />
<circle cx="423.8107467100319" cy="624.6075547383015" r="2.5" fill="grey" stroke="none" />
<path d="M423.8107467100319,624.6075547383015 A146.054253668771,146.054253668771,0,0,0,482.43125491852544,644.9937385234406" stroke="grey" stroke-width="5" fill="none" />
<circle cx="362.43125491852544" cy="724.9937385234407" r="5" fill="black" stroke="none" />
<circle cx="482.43125491852544" cy="644.9937385234407" r="5" fill="black" stroke="none" />
<path d="M482.43125491852544,644.9937385234407 L489.0884087191013,590.0526705647032" stroke="grey" stroke-width="5" />
<circle cx="489.0884087191013" cy="590.0526705647032" r="2.5" fill="grey" stroke="none" />
<path d="M489.0884087191013,590.0526705647032 A90.71133501451932,90.71133501451932,0,0,1,482.43125491852544,588.9937385234407" stroke="grey" stroke-width="5" fill="none" />
<circle cx="482.43125491852544" cy="644.9937385234407" r="5" fill="black" stroke="none" />
<circle cx="482.43125491852544" cy="588.9937385234407" r="5" fill="black" stroke="none" />
<path d="M482.43125491852544,588.9937385234407 A90.71133501451932,90.71133501451932,0,0,1,426.8049671692426,553.5820256151325" stroke="grey" stroke-width="5" fill="none" />
<path d="M426.8049671692426,553.5820256151325 L378.43125491852544,588.9937385234407" stroke="grey" stroke-width="5" />
<circle cx="426.8049671692426" cy="553.5820256151325" r="2.5" fill="grey" stroke="none" />
<circle cx="482.43125491852544" cy="588.9937385234407" r="5" fill="black" stroke="none" />
<circle cx="378.43125491852544" cy="588.9937385234407" r="5" fill="black" stroke="none" />
<path d="M378.43125491852544,588.9937385234407 L433.0775863314359,548.9901888794383" stroke="grey" stroke-width="5" />
<circle cx="433.0775863314359" cy="548.9901888794383" r="2.5" fill="grey" stroke="none" />
<path d="M433.0775863314359,548.9901888794383 A82.93761545685679,82.93761545685679,0,0,1,418.43125491852544,484.99373852344064" stroke="grey" stroke-width="5" fill="none" />
<circle cx="378.43125491852544" cy="588.9937385234407" r="5" fill="black" stroke="none" />
<circle cx="418.43125491852544" cy="484.99373852344064" r="5" fill="black" stroke="none" />
<path d="M418.43125491852544,484.99373852344064 A82.93761545685679,82.93761545685679,0,0,1,523.4983394327039,420.4608517673537" stroke="grey" stroke-width="5" fill="none" />
<path d="M523.4983394327039,420.4608517673537 L530.4312549185254,396.99373852344064" stroke="grey" stroke-width="5" />
<circle cx="523.4983394327039" cy="420.4608517673537" r="2.5" fill="grey" stroke="none" />
<circle cx="418.43125491852544" cy="484.99373852344064" r="5" fill="black" stroke="none" />
<circle cx="530.4312549185254" cy="396.99373852344064" r="5" fill="black" stroke="none" />
<path d="M530.4312549185254,396.99373852344064 A107.40740746938079,107.40740746938079,0,0,1,575.6706159497286,423.77461668786265" stroke="grey" stroke-width="5" fill="none" />
<path d="M575.6706159497286,423.7746166878626 L578.4312549185254,420.99373852344064" stroke="grey" stroke-width="5" />
<circle cx="575.6706159497286" cy="423.7746166878626" r="2.5" fill="grey" stroke="none" />
<circle cx="530.4312549185254" cy="396.99373852344064" r="5" fill="black" stroke="none" />
<circle cx="578.4312549185254" cy="420.99373852344064" r="5" fill="black" stroke="none" />
<path d="M578.4312549185254,420.99373852344064 L554.4259024900749,445.1750824630383" stroke="grey" stroke-width="5" />
<circle cx="554.4259024900749" cy="445.1750824630383" r="2.5" fill="grey" stroke="none" />
<path d="M554.4259024900749,445.1750824630383 A77.25251092873161,77.25251092873161,0,0,0,530.4312549185255,428.99373852344064" stroke="grey" stroke-width="5" fill="none" />
<circle cx="578.4312549185254" cy="420.99373852344064" r="5" fill="black" stroke="none" />
<circle cx="530.4312549185254" cy="428.99373852344064" r="5" fill="black" stroke="none" />
<path d="M530.4312549185254,396.99373852344064 L521.8876044823871,425.91300239032233" stroke="grey" stroke-width="5" />
<circle cx="521.8876044823871" cy="425.91300239032233" r="2.5" fill="grey" stroke="none" />
<path d="M521.8876044823871,425.91300239032233 A77.25251092873161,77.25251092873161,0,0,1,530.4312549185255,428.99373852344064" stroke="grey" stroke-width="5" fill="none" />
<circle cx="530.4312549185254" cy="396.99373852344064" r="5" fill="black" stroke="none" />
<circle cx="530.4312549185254" cy="428.99373852344064" r="5" fill="black" stroke="none" />
<path d="M530.4312549185254,428.99373852344064 L482.43125491852544,540.9937385234407" stroke="grey" stroke-width="5" />
<circle cx="530.4312549185254" cy="428.99373852344064" r="5" fill="black" stroke="none" />
<circle cx="482.43125491852544" cy="540.9937385234407" r="5" fill="black" stroke="none" />
<path d="M418.43125491852544,484.99373852344064 L456.1362538549002,491.9303546556059" stroke="grey" stroke-width="5" />
<circle cx="456.1362538549002" cy="491.9303546556059" r="2.5" fill="grey" stroke="none" />
<path d="M456.1362538549002,491.9303546556059 A44.59985876509093,44.59985876509093,0,0,0,482.43125491852544,540.9937385234407" stroke="grey" stroke-width="5" fill="none" />
<circle cx="418.43125491852544" cy="484.99373852344064" r="5" fill="black" stroke="none" />
<circle cx="482.43125491852544" cy="540.9937385234407" r="5" fill="black" stroke="none" />
<path d="M482.43125491852544,540.9937385234407 A44.59985876509093,44.59985876509093,0,0,0,491.3620106110418,543.755371569469" stroke="grey" stroke-width="5" fill="none" />
<path d="M491.3620106110418,543.755371569469 L482.43125491852544,588.9937385234407" stroke="grey" stroke-width="5" />
<circle cx="491.3620106110418" cy="543.755371569469" r="2.5" fill="grey" stroke="none" />
<circle cx="482.43125491852544" cy="540.9937385234407" r="5" fill="black" stroke="none" />
<circle cx="482.43125491852544" cy="588.9937385234407" r="5" fill="black" stroke="none" />
<path d="M578.4312549185254,420.99373852344064 A111.32587794667144,111.32587794667144,0,0,1,578.5284170889627,421.09031231782063" stroke="grey" stroke-width="5" fill="none" />
<path d="M578.5284170889628,421.09031231782063 L618.4312549185254,380.99373852344064" stroke="grey" stroke-width="5" />
<circle cx="578.5284170889628" cy="421.09031231782063" r="2.5" fill="grey" stroke="none" />
<circle cx="578.4312549185254" cy="420.99373852344064" r="5" fill="black" stroke="none" />
<circle cx="618.4312549185254" cy="380.99373852344064" r="5" fill="black" stroke="none" />
<path d="M578.4312549185254,420.99373852344064 A111.32587794667144,111.32587794667144,0,0,1,610.5499113900494,486.8787122488138" stroke="grey" stroke-width="5" fill="none" />
<path d="M610.5499113900494,486.8787122488138 L626.4312549185254,484.99373852344064" stroke="grey" stroke-width="5" />
<circle cx="610.5499113900494" cy="486.8787122488138" r="2.5" fill="grey" stroke="none" />
<circle cx="578.4312549185254" cy="420.99373852344064" r="5" fill="black" stroke="none" />
<circle cx="626.4312549185254" cy="484.99373852344064" r="5" fill="black" stroke="none" />
<path d="M530.4312549185255,428.99373852344064 A77.25251092873161,77.25251092873161,0,0,1,575.8761856504402,485.48260023510693" stroke="grey" stroke-width="5" fill="none" />
<path d="M575.8761856504402,485.48260023510693 L578.4312549185254,484.99373852344064" stroke="grey" stroke-width="5" />
<circle cx="575.8761856504402" cy="485.48260023510693" r="2.5" fill="grey" stroke="none" />
<circle cx="530.4312549185254" cy="428.99373852344064" r="5" fill="black" stroke="none" />
<circle cx="578.4312549185254" cy="484.99373852344064" r="5" fill="black" stroke="none" />
<path d="M482.43125491852544,540.9937385234407 A44.59985876509093,44.59985876509093,0,0,0,526.5840100550074,535.8111408818726" stroke="grey" stroke-width="5" fill="none" />
<path d="M526.5840100550074,535.8111408818726 L530.4312549185254,540.9937385234407" stroke="grey" stroke-width="5" />
<circle cx="526.5840100550074" cy="535.8111408818726" r="2.5" fill="grey" stroke="none" />
<circle cx="482.43125491852544" cy="540.9937385234407" r="5" fill="black" stroke="none" />
<circle cx="530.4312549185254" cy="540.9937385234407" r="5" fill="black" stroke="none" />
<path d="M482.43125491852544,588.9937385234407 A90.71133501451932,90.71133501451932,0,0,0,559.976743589611,568.053923681904" stroke="grey" stroke-width="5" fill="none" />
<path d="M559.976743589611,568.053923681904 L578.4312549185254,588.9937385234407" stroke="grey" stroke-width="5" />
<circle cx="559.976743589611" cy="568.053923681904" r="2.5" fill="grey" stroke="none" />
<circle cx="482.43125491852544" cy="588.9937385234407" r="5" fill="black" stroke="none" />
<circle cx="578.4312549185254" cy="588.9937385234407" r="5" fill="black" stroke="none" />
<path d="M482.43125491852544,644.9937385234406 A146.054253668771,146.054253668771,0,0,0,569.4898583485531,628.4640206495178" stroke="grey" stroke-width="5" fill="none" />
<path d="M569.4898583485531,628.4640206495178 L578.4312549185254,644.9937385234407" stroke="grey" stroke-width="5" />
<circle cx="569.4898583485531" cy="628.4640206495178" r="2.5" fill="grey" stroke="none" />
<circle cx="482.43125491852544" cy="644.9937385234407" r="5" fill="black" stroke="none" />
<circle cx="578.4312549185254" cy="644.9937385234407" r="5" fill="black" stroke="none" />
<path d="M626.4312549185254,484.99373852344064 L579.297326902019,490.5881150776307" stroke="grey" stroke-width="5" />
<circle cx="579.297326902019" cy="490.5881150776307" r="2.5" fill="grey" stroke="none" />
<path d="M579.297326902019,490.5881150776307 A79.85392683893254,79.85392683893254,0,0,0,578.4312549185254,484.99373852344064" stroke="grey" stroke-width="5" fill="none" />
<circle cx="626.4312549185254" cy="484.99373852344064" r="5" fill="black" stroke="none" />
<circle cx="578.4312549185254" cy="484.99373852344064" r="5" fill="black" stroke="none" />
<path d="M578.4312549185254,484.99373852344064 L550.144781042773,490.4057929865542" stroke="grey" stroke-width="5" />
<circle cx="550.144781042773" cy="490.4057929865542" r="2.5" fill="grey" stroke="none" />
<path d="M550.144781042773,490.4057929865542 A51.05436194924485,51.05436194924485,0,0,1,530.4312549185254,540.9937385234407" stroke="grey" stroke-width="5" fill="none" />
<circle cx="578.4312549185254" cy="484.99373852344064" r="5" fill="black" stroke="none" />
<circle cx="530.4312549185254" cy="540.9937385234407" r="5" fill="black" stroke="none" />
<path d="M530.4312549185254,540.9937385234407 A51.05436194924485,51.05436194924485,0,0,0,533.7562486019077,538.3022656558421" stroke="grey" stroke-width="5" fill="none" />
<path d="M533.7562486019077,538.3022656558421 L578.4312549185254,588.9937385234407" stroke="grey" stroke-width="5" />
<circle cx="533.7562486019077" cy="538.3022656558421" r="2.5" fill="grey" stroke="none" />
<circle cx="530.4312549185254" cy="540.9937385234407" r="5" fill="black" stroke="none" />
<circle cx="578.4312549185254" cy="588.9937385234407" r="5" fill="black" stroke="none" />
<path d="M578.4312549185254,588.9937385234407 A118.62270964900964,118.62270964900964,0,0,1,556.4384472438938,604.3362301272739" stroke="grey" stroke-width="5" fill="none" />
<path d="M556.4384472438938,604.3362301272739 L578.4312549185254,644.9937385234407" stroke="grey" stroke-width="5" />
<circle cx="556.4384472438938" cy="604.3362301272739" r="2.5" fill="grey" stroke="none" />
<circle cx="578.4312549185254" cy="588.9937385234407" r="5" fill="black" stroke="none" />
<circle cx="578.4312549185254" cy="644.9937385234407" r="5" fill="black" stroke="none" />
<path d="M578.4312549185254,644.9937385234407 A164.84734137710137,164.84734137710137,0,0,0,591.6243778802476,637.0387512244481" stroke="grey" stroke-width="5" fill="none" />
<path d="M591.6243778802476,637.0387512244481 L650.4312549185254,724.9937385234407" stroke="grey" stroke-width="5" />
<circle cx="591.6243778802476" cy="637.0387512244481" r="2.5" fill="grey" stroke="none" />
<circle cx="578.4312549185254" cy="644.9937385234407" r="5" fill="black" stroke="none" />
<circle cx="650.4312549185254" cy="724.9937385234407" r="5" fill="black" stroke="none" />
<path d="M626.4312549185254,484.99373852344064 L602.1086181801372,487.8806184087256" stroke="grey" stroke-width="5" />
<circle cx="602.1086181801372" cy="487.8806184087256" r="2.5" fill="grey" stroke="none" />
<path d="M602.1086181801372,487.8806184087256 A102.82533402237,102.82533402237,0,0,1,602.4312549185254,508.99373852344064" stroke="grey" stroke-width="5" fill="none" />
<circle cx="626.4312549185254" cy="484.99373852344064" r="5" fill="black" stroke="none" />
<circle cx="602.4312549185254" cy="508.99373852344064" r="5" fill="black" stroke="none" />
<path d="M602.4312549185254,508.99373852344064 L588.1591251362877,507.74060730352" stroke="grey" stroke-width="5" />
<circle cx="588.1591251362877" cy="507.74060730352" r="2.5" fill="grey" stroke="none" />
<path d="M588.1591251362877,507.74060730352 A88.49829572496265,88.49829572496265,0,0,1,578.4312549185254,540.9937385234407" stroke="grey" stroke-width="5" fill="none" />
<circle cx="602.4312549185254" cy="508.99373852344064" r="5" fill="black" stroke="none" />
<circle cx="578.4312549185254" cy="540.9937385234407" r="5" fill="black" stroke="none" />
<path d="M578.4312549185254,540.9937385234407 A88.49829572496265,88.49829572496265,0,0,1,558.5135208291673,566.393645979096" stroke="grey" stroke-width="5" fill="none" />
<path d="M558.5135208291673,566.393645979096 L578.4312549185254,588.9937385234407" stroke="grey" stroke-width="5" />
<circle cx="558.5135208291673" cy="566.393645979096" r="2.5" fill="grey" stroke="none" />
<circle cx="578.4312549185254" cy="540.9937385234407" r="5" fill="black" stroke="none" />
<circle cx="578.4312549185254" cy="588.9937385234407" r="5" fill="black" stroke="none" />
<path d="M578.4312549185254,484.99373852344064 A79.85392683893254,79.85392683893254,0,0,1,579.5478858790236,506.98451743325313" stroke="grey" stroke-width="5" fill="none" />
<path d="M579.5478858790236,506.98451743325313 L602.4312549185254,508.99373852344064" stroke="grey" stroke-width="5" />
<circle cx="579.5478858790236" cy="506.98451743325313" r="2.5" fill="grey" stroke="none" />
<circle cx="578.4312549185254" cy="484.99373852344064" r="5" fill="black" stroke="none" />
<circle cx="602.4312549185254" cy="508.99373852344064" r="5" fill="black" stroke="none" />
<path d="M530.4312549185254,540.9937385234407 A51.05436194924485,51.05436194924485,0,0,0,545.246720786448,523.6491465410005" stroke="grey" stroke-width="5" fill="none" />
<path d="M545.246720786448,523.6491465410005 L578.4312549185254,540.9937385234407" stroke="grey" stroke-width="5" />
<circle cx="545.246720786448" cy="523.6491465410005" r="2.5" fill="grey" stroke="none" />
<circle cx="530.4312549185254" cy="540.9937385234407" r="5" fill="black" stroke="none" />
<circle cx="578.4312549185254" cy="540.9937385234407" r="5" fill="black" stroke="none" />
<path d="M626.4312549185254,484.99373852344064 A127.31869502856222,127.31869502856222,0,0,1,621.1115377931505,539.2688873938935" stroke="grey" stroke-width="5" fill="none" />
<path d="M621.1115377931505,539.2688873938935 L626.4312549185254,540.9937385234407" stroke="grey" stroke-width="5" />
<circle cx="621.1115377931505" cy="539.2688873938935" r="2.5" fill="grey" stroke="none" />
<circle cx="626.4312549185254" cy="484.99373852344064" r="5" fill="black" stroke="none" />
<circle cx="626.4312549185254" cy="540.9937385234407" r="5" fill="black" stroke="none" />
<path d="M602.4312549185254,508.99373852344064 A102.82533402237,102.82533402237,0,0,1,597.8122994800557,531.7144034664988" stroke="grey" stroke-width="5" fill="none" />
<path d="M597.8122994800557,531.7144034664988 L626.4312549185254,540.9937385234407" stroke="grey" stroke-width="5" />
<circle cx="597.8122994800557" cy="531.7144034664988" r="2.5" fill="grey" stroke="none" />
<circle cx="602.4312549185254" cy="508.99373852344064" r="5" fill="black" stroke="none" />
<circle cx="626.4312549185254" cy="540.9937385234407" r="5" fill="black" stroke="none" />
<path d="M578.4312549185254,540.9937385234407 A88.49829572496265,88.49829572496265,0,0,0,584.1837460313174,527.2955170377408" stroke="grey" stroke-width="5" fill="none" />
<path d="M584.1837460313174,527.2955170377408 L626.4312549185254,540.9937385234407" stroke="grey" stroke-width="5" />
<circle cx="584.1837460313174" cy="527.2955170377408" r="2.5" fill="grey" stroke="none" />
<circle cx="578.4312549185254" cy="540.9937385234407" r="5" fill="black" stroke="none" />
<circle cx="626.4312549185254" cy="540.9937385234407" r="5" fill="black" stroke="none" />
<path d="M578.4312549185254,588.9937385234407 A118.62270964900964,118.62270964900964,0,0,0,612.8395070304406,536.5867858331447" stroke="grey" stroke-width="5" fill="none" />
<path d="M612.8395070304406,536.5867858331447 L626.4312549185254,540.9937385234407" stroke="grey" stroke-width="5" />
<circle cx="612.8395070304406" cy="536.5867858331447" r="2.5" fill="grey" stroke="none" />
<circle cx="578.4312549185254" cy="588.9937385234407" r="5" fill="black" stroke="none" />
<circle cx="626.4312549185254" cy="540.9937385234407" r="5" fill="black" stroke="none" />
<path d="M626.4312549185254,540.9937385234406 A132.91105604275884,132.91105604275884,0,0,1,599.1010258864097,588.5682532664076" stroke="grey" stroke-width="5" fill="none" />
<path d="M599.1010258864097,588.5682532664076 L626.4312549185254,612.9937385234407" stroke="grey" stroke-width="5" />
<circle cx="599.1010258864097" cy="588.5682532664076" r="2.5" fill="grey" stroke="none" />
<circle cx="626.4312549185254" cy="540.9937385234407" r="5" fill="black" stroke="none" />
<circle cx="626.4312549185254" cy="612.9937385234407" r="5" fill="black" stroke="none" />
<path d="M626.4312549185254,612.9937385234407 L622.9133311517916,609.8497108975196" stroke="grey" stroke-width="5" />
<circle cx="622.9133311517916" cy="609.8497108975196" r="2.5" fill="grey" stroke="none" />
<path d="M622.9133311517916,609.8497108975196 A164.84734137710137,164.84734137710137,0,0,1,578.4312549185254,644.9937385234407" stroke="grey" stroke-width="5" fill="none" />
<circle cx="626.4312549185254" cy="612.9937385234407" r="5" fill="black" stroke="none" />
<circle cx="578.4312549185254" cy="644.9937385234407" r="5" fill="black" stroke="none" />
<path d="M626.4312549185254,484.99373852344064 A127.31869502856222,127.31869502856222,0,0,0,613.1232127762532,441.57749718683255" stroke="grey" stroke-width="5" fill="none" />
<path d="M613.1232127762532,441.57749718683255 L730.4312549185254,380.99373852344064" stroke="grey" stroke-width="5" />
<circle cx="613.1232127762532" cy="441.57749718683255" r="2.5" fill="grey" stroke="none" />
<circle cx="626.4312549185254" cy="484.99373852344064" r="5" fill="black" stroke="none" />
<circle cx="730.4312549185254" cy="380.99373852344064" r="5" fill="black" stroke="none" />
<path d="M626.4312549185254,484.99373852344064 A127.31869502856222,127.31869502856222,0,0,1,627.239226527993,504.4977034511112" stroke="grey" stroke-width="5" fill="none" />
<path d="M627.239226527993,504.4977034511112 L754.4312549185254,508.99373852344064" stroke="grey" stroke-width="5" />
<circle cx="627.239226527993" cy="504.4977034511112" r="2.5" fill="grey" stroke="none" />
<circle cx="626.4312549185254" cy="484.99373852344064" r="5" fill="black" stroke="none" />
<circle cx="754.4312549185254" cy="508.99373852344064" r="5" fill="black" stroke="none" />
<path d="M754.4312549185255,508.99373852344064 A254.59016244160674,254.59016244160674,0,0,0,754.5023975693236,506.6843431621679" stroke="grey" stroke-width="5" fill="none" />
<path d="M754.5023975693236,506.6843431621679 L842.4312549185254,508.99373852344064" stroke="grey" stroke-width="5" />
<circle cx="754.5023975693236" cy="506.6843431621679" r="2.5" fill="grey" stroke="none" />
<circle cx="754.4312549185254" cy="508.99373852344064" r="5" fill="black" stroke="none" />
<circle cx="842.4312549185254" cy="508.99373852344064" r="5" fill="black" stroke="none" />
<path d="M626.4312549185254,540.9937385234406 A132.91105604275884,132.91105604275884,0,0,1,605.7475615513551,580.5158496467852" stroke="grey" stroke-width="5" fill="none" />
<path d="M605.7475615513551,580.5158496467852 L690.4312549185254,644.9937385234407" stroke="grey" stroke-width="5" />
<circle cx="605.7475615513551" cy="580.5158496467852" r="2.5" fill="grey" stroke="none" />
<circle cx="626.4312549185254" cy="540.9937385234407" r="5" fill="black" stroke="none" />
<circle cx="690.4312549185254" cy="644.9937385234407" r="5" fill="black" stroke="none" />
<circle cx="500" cy="500" r="5" fill="red" stroke="none" />
</svg>