<?xml version="1.0" encoding="UTF-8"?>
<svg xmlns="http://www.w3.org/2000/svg" xmlns:xlink="http://www.w3.org/1999/xlink"
     width="1000" height="1000" viewBox="0 0 1000 1000">
<defs>
</defs>
<rect x="0" y="0" width="1000" height="1000" fill="white" />
<path d="M251.98065935126823,684.0 L367.53395745316357,598.2735933611657" stroke="grey" stroke-width="5" />
<circle cx="367.53395745316357" cy="598.2735933611657" r="2.5" fill="grey" stroke="none" />
<path d="M367.53395745316357,598.2735933611657 A164.93923602386434,164.93923602386434,0,0,0,371.9806593512682,604.0" stroke="grey" stroke-width="5" fill="none" />
<circle cx="251.98065935126823" cy="684.0" r="5" fill="black" stroke="none" />
<circle cx="371.98065935126823" cy="604.0" r="5" fill="black" stroke="none" />
<path d="M371.98065935126823,604.0 L393.881635511686,586.2081451978951" stroke="grey" stroke-width="5" />
<circle cx="393.881635511686" cy="586.2081451978951" r="2.5" fill="grey" stroke="none" />
<path d="M393.88163551168594,586.208145197895 A136.72216930745367,136.72216930745367,0,0,1,371.98065935126823,548.0" stroke="grey" stroke-width="5" fill="none" />
<circle cx="371.98065935126823" cy="604.0" r="5" fill="black" stroke="none" />
<circle cx="371.98065935126823" cy="548.0" r="5" fill="black" stroke="none" />
<path d="M371.98065935126823,548.0 A136.72216930745367,136.72216930745367,0,0,1,366.11293301673925,527.698463400627" stroke="grey" stroke-width="5" fill="none" />
<path d="M366.11293301673925,527.698463400627 L267.98065935126823,548.0" stroke="grey" stroke-width="5" />
<circle cx="366.11293301673925" cy="527.698463400627" r="2.5" fill="grey" stroke="none" />
<circle cx="371.98065935126823" cy="548.0" r="5" fill="black" stroke="none" />
<circle cx="267.98065935126823" cy="548.0" r="5" fill="black" stroke="none" />
<path d="M267.98065935126823,548.0 L304.12906387939904,540.5216431850085" stroke="grey" stroke-width="5" />
<circle cx="304.12906387939904" cy="540.5216431850085" r="2.5" fill="grey" stroke="none" />
<path d="M304.12906387939904,540.5216431850084 A200.01856709609157,200.01856709609157,0,0,1,307.9806593512683,443.99999999999994" stroke="grey" stroke-width="5" fill="none" />
<circle cx="267.98065935126823" cy="548.0" r="5" fill="black" stroke="none" />
<circle cx="307.98065935126823" cy="444.0" r="5" fill="black" stroke="none" />
<path d="M307.98065935126823,444.0 L341.84885445414204,453.877228613291" stroke="grey" stroke-width="5" />
<circle cx="341.84885445414204" cy="453.877228613291" r="2.5" fill="grey" stroke="none" />
<path d="M341.84885445414204,453.877228613291 A164.7394757726811,164.7394757726811,0,0,1,419.98065935126823,356.0" stroke="grey" stroke-width="5" fill="none" />
<circle cx="307.98065935126823" cy="444.0" r="5" fill="black" stroke="none" />
<circle cx="419.98065935126823" cy="356.0" r="5" fill="black" stroke="none" />
<path d="M419.98065935126823,356.0 L439.6727917350853,391.4372710432299" stroke="grey" stroke-width="5" />
<circle cx="439.6727917350853" cy="391.4372710432299" r="2.5" fill="grey" stroke="none" />
<path d="M439.6727917350853,391.4372710432299 A124.19838233881924,124.19838233881924,0,0,1,467.98065935126823,380.0" stroke="grey" stroke-width="5" fill="none" />
<circle cx="419.98065935126823" cy="356.0" r="5" fill="black" stroke="none" />
<circle cx="467.98065935126823" cy="380.0" r="5" fill="black" stroke="none" />
<path d="M467.98065935126823,380.0 A124.19838233881924,124.19838233881924,0,0,0,427.7996017904159,398.94387364460766" stroke="grey" stroke-width="5" fill="none" />
<path d="M427.7996017904159,398.94387364460766 L419.98065935126823,388.0" stroke="grey" stroke-width="5" />
<circle cx="427.7996017904159" cy="398.94387364460766" r="2.5" fill="grey" stroke="none" />
<circle cx="467.98065935126823" cy="380.0" r="5" fill="black" stroke="none" />
<circle cx="419.98065935126823" cy="388.0" r="5" fill="black" stroke="none" />
<path d="M419.98065935126823,356.0 L433.13965645280325,379.6804698371515" stroke="grey" stroke-width="5" />
<circle cx="433.13965645280325" cy="379.6804698371515" r="2.5" fill="grey" stroke="none" />
<path d="M433.13965645280325,379.6804698371515 A137.64844669613157,137.64844669613157,0,0,0,419.9806593512683,388.0" stroke="grey" stroke-width="5" fill="none" />
<circle cx="419.98065935126823" cy="356.0" r="5" fill="black" stroke="none" />
<circle cx="419.98065935126823" cy="388.0" r="5" fill="black" stroke="none" />
<path d="M419.98065935126823,388.0 L425.5783594012413,395.8348859227562" stroke="grey" stroke-width="5" />
<circle cx="425.5783594012413" cy="395.8348859227562" r="2.5" fill="grey" stroke="none" />
<path d="M425.5783594012413,395.8348859227562 A128.01934064873177,128.01934064873177,0,0,0,371.98065935126823,500.0" stroke="grey" stroke-width="5" fill="none" />
<circle cx="419.98065935126823" cy="388.0" r="5" fill="black" stroke="none" />
<circle cx="371.98065935126823" cy="500.0" r="5" fill="black" stroke="none" />
<path d="M307.98065935126823,444.0 L377.1004625293349,464.1579120358118" stroke="grey" stroke-width="5" />
<circle cx="377.1004625293349" cy="464.1579120358118" r="2.5" fill="grey" stroke="none" />
<path d="M377.1004625293349,464.1579120358118 A128.01934064873177,128.01934064873177,0,0,0,371.98065935126823,500.0" stroke="grey" stroke-width="5" fill="none" />
<circle cx="307.98065935126823" cy="444.0" r="5" fill="black" stroke="none" />
<circle cx="371.98065935126823" cy="500.0" r="5" fill="black" stroke="none" />
<path d="M371.98065935126823,500.0 A128.01934064873177,128.01934064873177,0,0,0,380.12952352093384,544.9446375980235" stroke="grey" stroke-width="5" fill="none" />
<path d="M380.12952352093384,544.9446375980235 L371.98065935126823,548.0" stroke="grey" stroke-width="5" />
<circle cx="380.12952352093384" cy="544.9446375980235" r="2.5" fill="grey" stroke="none" />
<circle cx="371.98065935126823" cy="500.0" r="5" fill="black" stroke="none" />
<circle cx="371.98065935126823" cy="548.0" r="5" fill="black" stroke="none" />
<path d="M467.98065935126823,380.0 A124.19838233881924,124.19838233881924,0,0,1,506.18721424736304,375.95582820850973" stroke="grey" stroke-width="5" fill="none" />
<path d="M506.187214247363,375.95582820850973 L507.98065935126823,340.0" stroke="grey" stroke-width="5" />
<circle cx="506.187214247363" cy="375.95582820850973" r="2.5" fill="grey" stroke="none" />
<circle cx="467.98065935126823" cy="380.0" r="5" fill="black" stroke="none" />
<circle cx="507.98065935126823" cy="340.0" r="5" fill="black" stroke="none" />
<path d="M467.98065935126823,380.0 L484.98640255917786,443.73301709540294" stroke="grey" stroke-width="5" />
<circle cx="484.98640255917786" cy="443.73301709540294" r="2.5" fill="grey" stroke="none" />
<path d="M484.9864025591778,443.73301709540294 A58.23556879864124,58.23556879864124,0,0,1,515.9806593512683,444.0" stroke="grey" stroke-width="5" fill="none" />
<circle cx="467.98065935126823" cy="380.0" r="5" fill="black" stroke="none" />
<circle cx="515.9806593512683" cy="444.0" r="5" fill="black" stroke="none" />
<path d="M419.98065935126823,388.0 L462.49968285466514,447.5122453368519" stroke="grey" stroke-width="5" />
<circle cx="462.49968285466514" cy="447.5122453368519" r="2.5" fill="grey" stroke="none" />
<path d="M462.49968285466514,447.5122453368519 A64.50765982098193,64.50765982098193,0,0,1,467.9806593512683,444.0" stroke="grey" stroke-width="5" fill="none" />
<circle cx="419.98065935126823" cy="388.0" r="5" fill="black" stroke="none" />
<circle cx="467.98065935126823" cy="444.0" r="5" fill="black" stroke="none" />
<path d="M371.98065935126823,500.0 L419.98065935126823,500.0" stroke="grey" stroke-width="5" />
<circle cx="419.98065935126823" cy="500.0" r="2.5" fill="grey" stroke="none" />
<path d="M419.98065935126823,500.0 A80.01934064873177,80.01934064873177,0,0,1,419.98065935126823,500.0" stroke="grey" stroke-width="5" fill="none" />
<circle cx="371.98065935126823" cy="500.0" r="5" fill="black" stroke="none" />
<circle cx="419.98065935126823" cy="500.0" r="5" fill="black" stroke="none" />
<path d="M371.98065935126823,548.0 L445.973220721659,520.2569814234241" stroke="grey" stroke-width="5" />
<circle cx="445.973220721659" cy="520.2569814234241" r="2.5" fill="grey" stroke="none" />
<path d="M445.973220721659,520.2569814234241 A57.699550913152926,57.699550913152926,0,0,0,467.98065935126823,548.0" stroke="grey" stroke-width="5" fill="none" />
<circle cx="371.98065935126823" cy="548.0" r="5" fill="black" stroke="none" />
<circle cx="467.98065935126823" cy="548.0" r="5" fill="black" stroke="none" />
<path d="M371.98065935126823,604.0 L415.54017723310744,568.6132386188309" stroke="grey" stroke-width="5" />
<circle cx="415.54017723310744" cy="568.6132386188309" r="2.5" fill="grey" stroke="none" />
<path d="M415.5401772331074,568.6132386188308 A108.81745345108719,108.81745345108719,0,0,0,467.98065935126823,604.0" stroke="grey" stroke-width="5" fill="none" />
<circle cx="371.98065935126823" cy="604.0" r="5" fill="black" stroke="none" />
<circle cx="467.98065935126823" cy="604.0" r="5" fill="black" stroke="none" />
<path d="M515.9806593512683,444.0 A58.23556879864124,58.23556879864124,0,0,0,471.0939054305944,449.4448897731806" stroke="grey" stroke-width="5" fill="none" />
<path d="M471.0939054305944,449.44488977318065 L467.98065935126823,444.0" stroke="grey" stroke-width="5" />
<circle cx="471.0939054305944" cy="449.44488977318065" r="2.5" fill="grey" stroke="none" />
<circle cx="515.9806593512683" cy="444.0" r="5" fill="black" stroke="none" />
<circle cx="467.98065935126823" cy="444.0" r="5" fill="black" stroke="none" />
<path d="M467.9806593512683,444.0 A64.50765982098193,64.50765982098193,0,0,0,435.4923401790181,500.0" stroke="grey" stroke-width="5" fill="none" />
<path d="M435.4923401790181,500.0 L419.98065935126823,500.0" stroke="grey" stroke-width="5" />
<circle cx="435.4923401790181" cy="500.0" r="2.5" fill="grey" stroke="none" />
<circle cx="467.98065935126823" cy="444.0" r="5" fill="black" stroke="none" />
<circle cx="419.98065935126823" cy="500.0" r="5" fill="black" stroke="none" />
<path d="M419.98065935126823,500.0 L442.3004490868471,500.0" stroke="grey" stroke-width="5" />
<circle cx="442.3004490868471" cy="500.0" r="2.5" fill="grey" stroke="none" />
<path d="M442.3004490868471,500.0 A57.699550913152926,57.699550913152926,0,0,0,467.98065935126823,548.0" stroke="grey" stroke-width="5" fill="none" />
<circle cx="419.98065935126823" cy="500.0" r="5" fill="black" stroke="none" />
<circle cx="467.98065935126823" cy="548.0" r="5" fill="black" stroke="none" />
<path d="M467.98065935126823,548.0 A57.699550913152926,57.699550913152926,0,0,0,483.0220105564451,555.1451362318933" stroke="grey" stroke-width="5" fill="none" />
<path d="M483.0220105564451,555.1451362318933 L467.98065935126823,604.0" stroke="grey" stroke-width="5" />
<circle cx="483.0220105564451" cy="555.1451362318933" r="2.5" fill="grey" stroke="none" />
<circle cx="467.98065935126823" cy="548.0" r="5" fill="black" stroke="none" />
<circle cx="467.98065935126823" cy="604.0" r="5" fill="black" stroke="none" />
<path d="M467.98065935126823,604.0 A108.81745345108719,108.81745345108719,0,0,0,523.1053799745148,606.3361631422388" stroke="grey" stroke-width="5" fill="none" />
<path d="M523.1053799745149,606.3361631422388 L539.9806593512683,684.0" stroke="grey" stroke-width="5" />
<circle cx="523.1053799745149" cy="606.3361631422388" r="2.5" fill="grey" stroke="none" />
<circle cx="467.98065935126823" cy="604.0" r="5" fill="black" stroke="none" />
<circle cx="539.9806593512683" cy="684.0" r="5" fill="black" stroke="none" />
<path d="M515.9806593512683,444.0 L509.0527941933644,468.27687370808184" stroke="grey" stroke-width="5" />
<circle cx="509.0527941933644" cy="468.27687370808184" r="2.5" fill="grey" stroke="none" />
<path d="M509.0527941933644,468.27687370808184 A32.98954113716045,32.98954113716045,0,0,0,491.98065935126823,468.0" stroke="grey" stroke-width="5" fill="none" />
<circle cx="515.9806593512683" cy="444.0" r="5" fill="black" stroke="none" />
<circle cx="491.98065935126823" cy="468.0" r="5" fill="black" stroke="none" />
<path d="M491.98065935126823,468.0 L492.2165028321438,468.94109874098086" stroke="grey" stroke-width="5" />
<circle cx="492.2165028321438" cy="468.94109874098086" r="2.5" fill="grey" stroke="none" />
<path d="M492.2165028321438,468.94109874098086 A32.01934064873177,32.01934064873177,0,0,0,467.98065935126823,500.0" stroke="grey" stroke-width="5" fill="none" />
<circle cx="491.98065935126823" cy="468.0" r="5" fill="black" stroke="none" />
<circle cx="467.98065935126823" cy="500.0" r="5" fill="black" stroke="none" />
<path d="M467.98065935126823,500.0 A32.01934064873177,32.01934064873177,0,0,0,482.23143578495655,526.6367471984738" stroke="grey" stroke-width="5" fill="none" />
<path d="M482.23143578495655,526.6367471984738 L467.98065935126823,548.0" stroke="grey" stroke-width="5" />
<circle cx="482.23143578495655" cy="526.6367471984738" r="2.5" fill="grey" stroke="none" />
<circle cx="467.98065935126823" cy="500.0" r="5" fill="black" stroke="none" />
<circle cx="467.98065935126823" cy="548.0" r="5" fill="black" stroke="none" />
<path d="M467.98065935126823,444.0 L483.6251484172967,471.36131881379936" stroke="grey" stroke-width="5" />
<circle cx="483.6251484172967" cy="471.36131881379936" r="2.5" fill="grey" stroke="none" />
<path d="M483.6251484172967,471.36131881379936 A32.98954113716045,32.98954113716045,0,0,1,491.98065935126823,468.0" stroke="grey" stroke-width="5" fill="none" />
<circle cx="467.98065935126823" cy="444.0" r="5" fill="black" stroke="none" />
<circle cx="491.98065935126823" cy="468.0" r="5" fill="black" stroke="none" />
<path d="M419.98065935126823,500.0 L467.98065935126823,500.0" stroke="grey" stroke-width="5" />
<circle cx="467.98065935126823" cy="500.0" r="2.5" fill="grey" stroke="none" />
<path d="M467.98065935126823,500.0 A32.01934064873177,32.01934064873177,0,0,1,467.98065935126823,500.0" stroke="grey" stroke-width="5" fill="none" />
<circle cx="419.98065935126823" cy="500.0" r="5" fill="black" stroke="none" />
<circle cx="467.98065935126823" cy="500.0" r="5" fill="black" stroke="none" />
<path d="M515.9806593512683,444.0 L504.3853177460033,484.63281217763426" stroke="grey" stroke-width="5" />
<circle cx="504.3853177460033" cy="484.63281217763426" r="2.5" fill="grey" stroke="none" />
<path d="M504.3853177460033,484.63281217763426 A15.98065935126823,15.98065935126823,0,0,1,515.9806593512683,500.0" stroke="grey" stroke-width="5" fill="none" />
<circle cx="515.9806593512683" cy="444.0" r="5" fill="black" stroke="none" />
<circle cx="515.9806593512683" cy="500.0" r="5" fill="black" stroke="none" />
<path d="M491.98065935126823,468.0 L496.11530361709686,484.4986901419933" stroke="grey" stroke-width="5" />
<circle cx="496.11530361709686" cy="484.4986901419933" r="2.5" fill="grey" stroke="none" />
<path d="M496.11530361709686,484.4986901419933 A15.98065935126823,15.98065935126823,0,0,1,515.9806593512683,500.0" stroke="grey" stroke-width="5" fill="none" />
<circle cx="491.98065935126823" cy="468.0" r="5" fill="black" stroke="none" />
<circle cx="515.9806593512683" cy="500.0" r="5" fill="black" stroke="none" />
<path d="M467.98065935126823,500.0 L515.9806593512683,500.0" stroke="grey" stroke-width="5" />
<circle cx="467.98065935126823" cy="500.0" r="5" fill="black" stroke="none" />
<circle cx="515.9806593512683" cy="500.0" r="5" fill="black" stroke="none" />
<path d="M467.98065935126823,548.0 L491.1318170165696,513.2942394996356" stroke="grey" stroke-width="5" />
<circle cx="491.1318170165696" cy="513.2942394996356" r="2.5" fill="grey" stroke="none" />
<path d="M491.1318170165696,513.2942394996356 A15.98065935126823,15.98065935126823,0,0,0,515.9806593512683,500.0" stroke="grey" stroke-width="5" fill="none" />
<circle cx="467.98065935126823" cy="548.0" r="5" fill="black" stroke="none" />
<circle cx="515.9806593512683" cy="500.0" r="5" fill="black" stroke="none" />
<path d="M515.9806593512683,500.0 A15.98065935126823,15.98065935126823,0,0,1,503.46269810467203,515.600999812101" stroke="grey" stroke-width="5" fill="none" />
<path d="M503.46269810467203,515.600999812101 L515.9806593512683,572.0" stroke="grey" stroke-width="5" />
<circle cx="503.46269810467203" cy="515.600999812101" r="2.5" fill="grey" stroke="none" />
<circle cx="515.9806593512683" cy="500.0" r="5" fill="black" stroke="none" />
<circle cx="515.9806593512683" cy="572.0" r="5" fill="black" stroke="none" />
<path d="M515.9806593512683,572.0 A73.7521624991517,73.7521624991517,0,0,1,478.2985583677306,570.487083244964" stroke="grey" stroke-width="5" fill="none" />
<path d="M478.2985583677306,570.487083244964 L467.98065935126823,604.0" stroke="grey" stroke-width="5" />
<circle cx="478.2985583677306" cy="570.487083244964" r="2.5" fill="grey" stroke="none" />
<circle cx="515.9806593512683" cy="572.0" r="5" fill="black" stroke="none" />
<circle cx="467.98065935126823" cy="604.0" r="5" fill="black" stroke="none" />
<path d="M515.9806593512683,444.0 A58.23556879864124,58.23556879864124,0,0,1,534.9377367617114,453.40884179084367" stroke="grey" stroke-width="5" fill="none" />
<path d="M534.9377367617114,453.40884179084367 L619.9806593512683,340.0" stroke="grey" stroke-width="5" />
<circle cx="534.9377367617114" cy="453.40884179084367" r="2.5" fill="grey" stroke="none" />
<circle cx="515.9806593512683" cy="444.0" r="5" fill="black" stroke="none" />
<circle cx="619.9806593512683" cy="340.0" r="5" fill="black" stroke="none" />
<path d="M515.9806593512683,444.0 A58.23556879864124,58.23556879864124,0,0,1,556.8484493233066,487.3653142960844" stroke="grey" stroke-width="5" fill="none" />
<path d="M556.8484493233066,487.3653142960844 L643.9806593512683,468.0" stroke="grey" stroke-width="5" />
<circle cx="556.8484493233066" cy="487.3653142960844" r="2.5" fill="grey" stroke="none" />
<circle cx="515.9806593512683" cy="444.0" r="5" fill="black" stroke="none" />
<circle cx="643.9806593512683" cy="468.0" r="5" fill="black" stroke="none" />
<path d="M643.9806593512683,468.0 A147.49383128533188,147.49383128533188,0,0,1,646.1102782695033,479.84517796570117" stroke="grey" stroke-width="5" fill="none" />
<path d="M646.1102782695033,479.84517796570117 L731.9806593512683,468.0" stroke="grey" stroke-width="5" />
<circle cx="646.1102782695033" cy="479.84517796570117" r="2.5" fill="grey" stroke="none" />
<circle cx="643.9806593512683" cy="468.0" r="5" fill="black" stroke="none" />
<circle cx="731.9806593512683" cy="468.0" r="5" fill="black" stroke="none" />
<path d="M515.9806593512683,500.0 A15.98065935126823,15.98065935126823,0,0,1,509.7420998667702,512.6677923683313" stroke="grey" stroke-width="5" fill="none" />
<path d="M509.7420998667702,512.6677923683313 L579.9806593512683,604.0" stroke="grey" stroke-width="5" />
<circle cx="509.7420998667702" cy="512.6677923683313" r="2.5" fill="grey" stroke="none" />
<circle cx="515.9806593512683" cy="500.0" r="5" fill="black" stroke="none" />
<circle cx="579.9806593512683" cy="604.0" r="5" fill="black" stroke="none" />
<circle cx="500" cy="500" r="5" fill="red" stroke="none" />
</svg>