<?xml version="1.0" encoding="UTF-8"?>
<svg xmlns="http://www.w3.org/2000/svg" xmlns:xlink="http://www.w3.org/1999/xlink"
     width="1000" height="1000" viewBox="0 0 1000 1000">
<defs>
</defs>
<rect x="0" y="0" width="1000" height="1000" fill="white" />
<path d="M239.65071653599517,684.0 L357.3479956154641,600.8182871007732" stroke="grey" stroke-width="5" />
<circle cx="357.3479956154641" cy="600.8182871007732" r="2.5" fill="grey" stroke="none" />
<path d="M357.3479956154641,600.8182871007732 A174.68234418183076,174.68234418183076,0,0,0,359.6507165359951,604.0" stroke="grey" stroke-width="5" fill="none" />
<circle cx="239.65071653599517" cy="684.0" r="5" fill="black" stroke="none" />
<circle cx="359.6507165359952" cy="604.0" r="5" fill="black" stroke="none" />
<path d="M359.6507165359952,604.0 L380.8232624516546,588.3109653225033" stroke="grey" stroke-width="5" />
<circle cx="380.8232624516546" cy="588.3109653225033" r="2.5" fill="grey" stroke="none" />
<path d="M380.8232624516546,588.3109653225033 A148.33044653360813,148.33044653360813,0,0,1,359.6507165359952,548.0" stroke="grey" stroke-width="5" fill="none" />
<circle cx="359.6507165359952" cy="604.0" r="5" fill="black" stroke="none" />
<circle cx="359.6507165359952" cy="548.0" r="5" fill="black" stroke="none" />
<path d="M359.6507165359952,548.0 A148.33044653360813,148.33044653360813,0,0,1,354.4512419182106,528.591613975226" stroke="grey" stroke-width="5" fill="none" />
<path d="M354.4512419182106,528.591613975226 L255.65071653599517,548.0" stroke="grey" stroke-width="5" />
<circle cx="354.4512419182106" cy="528.591613975226" r="2.5" fill="grey" stroke="none" />
<circle cx="359.6507165359952" cy="548.0" r="5" fill="black" stroke="none" />
<circle cx="255.65071653599517" cy="548.0" r="5" fill="black" stroke="none" />
<path d="M255.65071653599517,548.0 L292.08999128117404,540.8418648789439" stroke="grey" stroke-width="5" />
<circle cx="292.08999128117404" cy="540.8418648789439" r="2.5" fill="grey" stroke="none" />
<path d="M292.08999128117404,540.8418648789439 A211.88352850623428,211.88352850623428,0,0,1,295.6507165359951,444.0" stroke="grey" stroke-width="5" fill="none" />
<circle cx="255.65071653599517" cy="548.0" r="5" fill="black" stroke="none" />
<circle cx="295.6507165359952" cy="444.0" r="5" fill="black" stroke="none" />
<path d="M295.6507165359952,444.0 L335.01454390343866,454.7872868219043" stroke="grey" stroke-width="5" />
<circle cx="335.01454390343866" cy="454.7872868219043" r="2.5" fill="grey" stroke="none" />
<path d="M335.01454390343866,454.7872868219043 A171.0683785984865,171.0683785984865,0,0,1,407.6507165359952,356.0" stroke="grey" stroke-width="5" fill="none" />
<circle cx="295.6507165359952" cy="444.0" r="5" fill="black" stroke="none" />
<circle cx="407.6507165359952" cy="356.0" r="5" fill="black" stroke="none" />
<path d="M407.6507165359952,356.0 L430.936837609015,392.3099886510959" stroke="grey" stroke-width="5" />
<circle cx="430.936837609015" cy="392.3099886510959" r="2.5" fill="grey" stroke="none" />
<path d="M430.936837609015,392.3099886510959 A127.93302522715021,127.93302522715021,0,0,1,455.6507165359952,380.0" stroke="grey" stroke-width="5" fill="none" />
<circle cx="407.6507165359952" cy="356.0" r="5" fill="black" stroke="none" />
<circle cx="455.6507165359952" cy="380.0" r="5" fill="black" stroke="none" />
<path d="M455.6507165359952,380.0 A127.93302522715021,127.93302522715021,0,0,0,418.6122016245343,401.29394537635903" stroke="grey" stroke-width="5" fill="none" />
<path d="M418.6122016245343,401.29394537635903 L407.6507165359952,388.0" stroke="grey" stroke-width="5" />
<circle cx="418.6122016245343" cy="401.29394537635903" r="2.5" fill="grey" stroke="none" />
<circle cx="455.6507165359952" cy="380.0" r="5" fill="black" stroke="none" />
<circle cx="407.6507165359952" cy="388.0" r="5" fill="black" stroke="none" />
<path d="M407.6507165359952,356.0 L421.6352612077993,377.8060645107734" stroke="grey" stroke-width="5" />
<circle cx="421.6352612077993" cy="377.8060645107734" r="2.5" fill="grey" stroke="none" />
<path d="M421.6352612077993,377.8060645107734 A145.1633223521531,145.1633223521531,0,0,0,407.65071653599523,388.0" stroke="grey" stroke-width="5" fill="none" />
<circle cx="407.6507165359952" cy="356.0" r="5" fill="black" stroke="none" />
<circle cx="407.6507165359952" cy="388.0" r="5" fill="black" stroke="none" />
<path d="M407.6507165359952,388.0 L410.7132879533802,391.71424645520733" stroke="grey" stroke-width="5" />
<circle cx="410.7132879533802" cy="391.71424645520733" r="2.5" fill="grey" stroke="none" />
<path d="M410.7132879533802,391.71424645520733 A140.34928346400483,140.34928346400483,0,0,0,359.6507165359952,500.0" stroke="grey" stroke-width="5" fill="none" />
<circle cx="407.6507165359952" cy="388.0" r="5" fill="black" stroke="none" />
<circle cx="359.6507165359952" cy="500.0" r="5" fill="black" stroke="none" />
<path d="M295.6507165359952,444.0 L364.6413163271819,462.90622527671843" stroke="grey" stroke-width="5" />
<circle cx="364.6413163271819" cy="462.90622527671843" r="2.5" fill="grey" stroke="none" />
<path d="M364.6413163271819,462.90622527671843 A140.34928346400483,140.34928346400483,0,0,0,359.6507165359952,500.0" stroke="grey" stroke-width="5" fill="none" />
<circle cx="295.6507165359952" cy="444.0" r="5" fill="black" stroke="none" />
<circle cx="359.6507165359952" cy="500.0" r="5" fill="black" stroke="none" />
<path d="M359.6507165359952,500.0 A140.34928346400483,140.34928346400483,0,0,0,367.2024400304323,545.4172812373072" stroke="grey" stroke-width="5" fill="none" />
<path d="M367.2024400304323,545.4172812373072 L359.6507165359952,548.0" stroke="grey" stroke-width="5" />
<circle cx="367.2024400304323" cy="545.4172812373072" r="2.5" fill="grey" stroke="none" />
<circle cx="359.6507165359952" cy="500.0" r="5" fill="black" stroke="none" />
<circle cx="359.6507165359952" cy="548.0" r="5" fill="black" stroke="none" />
<path d="M455.6507165359952,380.0 A127.93302522715021,127.93302522715021,0,0,1,496.5236779244851,372.1142145170233" stroke="grey" stroke-width="5" fill="none" />
<path d="M496.5236779244851,372.1142145170233 L495.6507165359952,340.0" stroke="grey" stroke-width="5" />
<circle cx="496.5236779244851" cy="372.1142145170233" r="2.5" fill="grey" stroke="none" />
<circle cx="455.6507165359952" cy="380.0" r="5" fill="black" stroke="none" />
<circle cx="495.6507165359952" cy="340.0" r="5" fill="black" stroke="none" />
<path d="M455.6507165359952,380.0 L480.5458228431114,447.3610151848026" stroke="grey" stroke-width="5" />
<circle cx="480.5458228431114" cy="447.3610151848026" r="2.5" fill="grey" stroke="none" />
<path d="M480.5458228431114,447.3610151848026 A56.1188714357852,56.1188714357852,0,0,1,503.6507165359952,444.0" stroke="grey" stroke-width="5" fill="none" />
<circle cx="455.6507165359952" cy="380.0" r="5" fill="black" stroke="none" />
<circle cx="503.6507165359952" cy="444.0" r="5" fill="black" stroke="none" />
<path d="M407.6507165359952,388.0 L454.5552820328448,444.88524197044524" stroke="grey" stroke-width="5" />
<circle cx="454.5552820328448" cy="444.88524197044524" r="2.5" fill="grey" stroke="none" />
<path d="M454.5552820328448,444.88524197044524 A71.43429809111764,71.43429809111764,0,0,1,455.6507165359952,444.0" stroke="grey" stroke-width="5" fill="none" />
<circle cx="407.6507165359952" cy="388.0" r="5" fill="black" stroke="none" />
<circle cx="455.6507165359952" cy="444.0" r="5" fill="black" stroke="none" />
<path d="M359.6507165359952,500.0 L407.6507165359952,500.0" stroke="grey" stroke-width="5" />
<circle cx="407.6507165359952" cy="500.0" r="2.5" fill="grey" stroke="none" />
<path d="M407.6507165359952,500.0 A92.34928346400483,92.34928346400483,0,0,1,407.6507165359952,500.0" stroke="grey" stroke-width="5" fill="none" />
<circle cx="359.6507165359952" cy="500.0" r="5" fill="black" stroke="none" />
<circle cx="407.6507165359952" cy="500.0" r="5" fill="black" stroke="none" />
<path d="M359.6507165359952,548.0 L438.1645522879464,521.1479632593906" stroke="grey" stroke-width="5" />
<circle cx="438.1645522879464" cy="521.1479632593906" r="2.5" fill="grey" stroke="none" />
<path d="M438.1645522879464,521.1479632593906 A65.35180903211977,65.35180903211977,0,0,0,455.6507165359952,548.0" stroke="grey" stroke-width="5" fill="none" />
<circle cx="359.6507165359952" cy="548.0" r="5" fill="black" stroke="none" />
<circle cx="455.6507165359952" cy="548.0" r="5" fill="black" stroke="none" />
<path d="M359.6507165359952,604.0 L409.160405551342,567.3129038459492" stroke="grey" stroke-width="5" />
<circle cx="409.160405551342" cy="567.3129038459492" r="2.5" fill="grey" stroke="none" />
<path d="M409.160405551342,567.3129038459492 A113.06130612977479,113.06130612977479,0,0,0,455.6507165359951,604.0" stroke="grey" stroke-width="5" fill="none" />
<circle cx="359.6507165359952" cy="604.0" r="5" fill="black" stroke="none" />
<circle cx="455.6507165359952" cy="604.0" r="5" fill="black" stroke="none" />
<path d="M503.6507165359952,444.0 A56.1188714357852,56.1188714357852,0,0,0,465.15914898735247,456.00633191082284" stroke="grey" stroke-width="5" fill="none" />
<path d="M465.15914898735247,456.00633191082284 L455.6507165359952,444.0" stroke="grey" stroke-width="5" />
<circle cx="465.15914898735247" cy="456.00633191082284" r="2.5" fill="grey" stroke="none" />
<circle cx="503.6507165359952" cy="444.0" r="5" fill="black" stroke="none" />
<circle cx="455.6507165359952" cy="444.0" r="5" fill="black" stroke="none" />
<path d="M455.6507165359952,444.0 A71.43429809111764,71.43429809111764,0,0,0,428.5657019088824,500.0" stroke="grey" stroke-width="5" fill="none" />
<path d="M428.5657019088824,500.0 L407.6507165359952,500.0" stroke="grey" stroke-width="5" />
<circle cx="428.5657019088824" cy="500.0" r="2.5" fill="grey" stroke="none" />
<circle cx="455.6507165359952" cy="444.0" r="5" fill="black" stroke="none" />
<circle cx="407.6507165359952" cy="500.0" r="5" fill="black" stroke="none" />
<path d="M407.6507165359952,500.0 L434.6481909678802,500.0" stroke="grey" stroke-width="5" />
<circle cx="434.6481909678802" cy="500.0" r="2.5" fill="grey" stroke="none" />
<path d="M434.6481909678802,500.0 A65.35180903211977,65.35180903211977,0,0,0,455.6507165359952,548.0" stroke="grey" stroke-width="5" fill="none" />
<circle cx="407.6507165359952" cy="500.0" r="5" fill="black" stroke="none" />
<circle cx="455.6507165359952" cy="548.0" r="5" fill="black" stroke="none" />
<path d="M455.6507165359952,548.0 A65.35180903211977,65.35180903211977,0,0,0,474.3651829006447,560.1141838175755" stroke="grey" stroke-width="5" fill="none" />
<path d="M474.36518290064475,560.1141838175755 L455.6507165359952,604.0" stroke="grey" stroke-width="5" />
<circle cx="474.36518290064475" cy="560.1141838175755" r="2.5" fill="grey" stroke="none" />
<circle cx="455.6507165359952" cy="548.0" r="5" fill="black" stroke="none" />
<circle cx="455.6507165359952" cy="604.0" r="5" fill="black" stroke="none" />
<path d="M455.6507165359951,604.0 A113.06130612977479,113.06130612977479,0,0,0,516.8017040540259,611.8059107768976" stroke="grey" stroke-width="5" fill="none" />
<path d="M516.8017040540259,611.8059107768976 L527.6507165359951,684.0" stroke="grey" stroke-width="5" />
<circle cx="516.8017040540259" cy="611.8059107768976" r="2.5" fill="grey" stroke="none" />
<circle cx="455.6507165359952" cy="604.0" r="5" fill="black" stroke="none" />
<circle cx="527.6507165359951" cy="684.0" r="5" fill="black" stroke="none" />
<path d="M503.6507165359952,444.0 L502.46696348579826,462.15812598908246" stroke="grey" stroke-width="5" />
<circle cx="502.46696348579826" cy="462.15812598908246" r="2.5" fill="grey" stroke="none" />
<path d="M502.46696348579826,462.15812598908246 A37.92220111621186,37.92220111621186,0,0,0,479.6507165359952,468.0" stroke="grey" stroke-width="5" fill="none" />
<circle cx="503.6507165359952" cy="444.0" r="5" fill="black" stroke="none" />
<circle cx="479.6507165359952" cy="468.0" r="5" fill="black" stroke="none" />
<path d="M479.6507165359952,468.0 A37.92220111621186,37.92220111621186,0,0,0,462.07779888378815,500.0" stroke="grey" stroke-width="5" fill="none" />
<path d="M462.07779888378815,500.0 L455.6507165359952,500.0" stroke="grey" stroke-width="5" />
<circle cx="462.07779888378815" cy="500.0" r="2.5" fill="grey" stroke="none" />
<circle cx="479.6507165359952" cy="468.0" r="5" fill="black" stroke="none" />
<circle cx="455.6507165359952" cy="500.0" r="5" fill="black" stroke="none" />
<path d="M455.6507165359952,500.0 A44.34928346400483,44.34928346400483,0,0,0,469.9035271876872,532.5739354089795" stroke="grey" stroke-width="5" fill="none" />
<path d="M469.9035271876872,532.5739354089795 L455.6507165359952,548.0" stroke="grey" stroke-width="5" />
<circle cx="469.9035271876872" cy="532.5739354089795" r="2.5" fill="grey" stroke="none" />
<circle cx="455.6507165359952" cy="500.0" r="5" fill="black" stroke="none" />
<circle cx="455.6507165359952" cy="548.0" r="5" fill="black" stroke="none" />
<path d="M455.6507165359952,444.0 L476.45637331332574,470.27137776591485" stroke="grey" stroke-width="5" />
<circle cx="476.45637331332574" cy="470.27137776591485" r="2.5" fill="grey" stroke="none" />
<path d="M476.45637331332574,470.27137776591485 A37.92220111621186,37.92220111621186,0,0,1,479.6507165359952,468.0" stroke="grey" stroke-width="5" fill="none" />
<circle cx="455.6507165359952" cy="444.0" r="5" fill="black" stroke="none" />
<circle cx="479.6507165359952" cy="468.0" r="5" fill="black" stroke="none" />
<path d="M407.6507165359952,500.0 L455.6507165359952,500.0" stroke="grey" stroke-width="5" />
<circle cx="455.6507165359952" cy="500.0" r="2.5" fill="grey" stroke="none" />
<path d="M455.6507165359952,500.0 A44.34928346400483,44.34928346400483,0,0,1,455.6507165359952,500.0" stroke="grey" stroke-width="5" fill="none" />
<circle cx="407.6507165359952" cy="500.0" r="5" fill="black" stroke="none" />
<circle cx="455.6507165359952" cy="500.0" r="5" fill="black" stroke="none" />
<path d="M503.6507165359952,444.0 L500.2374910771582,496.35701644054507" stroke="grey" stroke-width="5" />
<circle cx="500.2374910771582" cy="496.35701644054507" r="2.5" fill="grey" stroke="none" />
<path d="M500.2374910771582,496.35701644054507 A3.6507165359951728,3.6507165359951728,0,0,1,503.6507165359952,500.0" stroke="grey" stroke-width="5" fill="none" />
<circle cx="503.6507165359952" cy="444.0" r="5" fill="black" stroke="none" />
<circle cx="503.6507165359952" cy="500.0" r="5" fill="black" stroke="none" />
<path d="M479.6507165359952,468.0 L498.04100333179406,496.91940536906486" stroke="grey" stroke-width="5" />
<circle cx="498.04100333179406" cy="496.91940536906486" r="2.5" fill="grey" stroke="none" />
<path d="M498.04100333179406,496.91940536906486 A3.6507165359951728,3.6507165359951728,0,0,1,503.6507165359952,500.0" stroke="grey" stroke-width="5" fill="none" />
<circle cx="479.6507165359952" cy="468.0" r="5" fill="black" stroke="none" />
<circle cx="503.6507165359952" cy="500.0" r="5" fill="black" stroke="none" />
<path d="M455.6507165359952,500.0 L503.6507165359952,500.0" stroke="grey" stroke-width="5" />
<circle cx="455.6507165359952" cy="500.0" r="5" fill="black" stroke="none" />
<circle cx="503.6507165359952" cy="500.0" r="5" fill="black" stroke="none" />
<path d="M455.6507165359952,548.0 L497.52253740333333,502.6814008108275" stroke="grey" stroke-width="5" />
<circle cx="497.52253740333333" cy="502.6814008108275" r="2.5" fill="grey" stroke="none" />
<path d="M497.52253740333333,502.6814008108275 A3.6507165359951728,3.6507165359951728,0,0,0,503.6507165359952,500.0" stroke="grey" stroke-width="5" fill="none" />
<circle cx="455.6507165359952" cy="548.0" r="5" fill="black" stroke="none" />
<circle cx="503.6507165359952" cy="500.0" r="5" fill="black" stroke="none" />
<path d="M503.6507165359952,500.0 A3.6507165359951728,3.6507165359951728,0,0,1,500.1848698863822,503.6460326865372" stroke="grey" stroke-width="5" fill="none" />
<path d="M500.1848698863822,503.6460326865372 L503.6507165359952,572.0" stroke="grey" stroke-width="5" />
<circle cx="500.1848698863822" cy="503.6460326865372" r="2.5" fill="grey" stroke="none" />
<circle cx="503.6507165359952" cy="500.0" r="5" fill="black" stroke="none" />
<circle cx="503.6507165359952" cy="572.0" r="5" fill="black" stroke="none" />
<path d="M503.6507165359952,572.0 A72.0924942780189,72.0924942780189,0,0,1,471.72109031985605,566.3146363823888" stroke="grey" stroke-width="5" fill="none" />
<path d="M471.72109031985605,566.3146363823888 L455.6507165359952,604.0" stroke="grey" stroke-width="5" />
<circle cx="471.72109031985605" cy="566.3146363823888" r="2.5" fill="grey" stroke="none" />
<circle cx="503.6507165359952" cy="572.0" r="5" fill="black" stroke="none" />
<circle cx="455.6507165359952" cy="604.0" r="5" fill="black" stroke="none" />
<path d="M503.6507165359952,444.0 A56.1188714357852,56.1188714357852,0,0,1,531.3271214428333,453.4388660647943" stroke="grey" stroke-width="5" fill="none" />
<path d="M531.3271214428333,453.4388660647943 L607.6507165359951,340.0" stroke="grey" stroke-width="5" />
<circle cx="531.3271214428333" cy="453.4388660647943" r="2.5" fill="grey" stroke="none" />
<circle cx="503.6507165359952" cy="444.0" r="5" fill="black" stroke="none" />
<circle cx="607.6507165359951" cy="340.0" r="5" fill="black" stroke="none" />
<path d="M503.6507165359952,444.0 A56.1188714357852,56.1188714357852,0,0,1,554.5310904451809,486.7452685396613" stroke="grey" stroke-width="5" fill="none" />
<path d="M554.5310904451809,486.7452685396613 L631.6507165359951,468.0" stroke="grey" stroke-width="5" />
<circle cx="554.5310904451809" cy="486.7452685396613" r="2.5" fill="grey" stroke="none" />
<circle cx="503.6507165359952" cy="444.0" r="5" fill="black" stroke="none" />
<circle cx="631.6507165359951" cy="468.0" r="5" fill="black" stroke="none" />
<path d="M631.6507165359951,468.0 A135.48398859068533,135.48398859068533,0,0,1,634.0686973345865,480.4680886893273" stroke="grey" stroke-width="5" fill="none" />
<path d="M634.0686973345865,480.4680886893273 L719.6507165359951,468.0" stroke="grey" stroke-width="5" />
<circle cx="634.0686973345865" cy="480.4680886893273" r="2.5" fill="grey" stroke="none" />
<circle cx="631.6507165359951" cy="468.0" r="5" fill="black" stroke="none" />
<circle cx="719.6507165359951" cy="468.0" r="5" fill="black" stroke="none" />
<path d="M503.6507165359952,500.0 A3.6507165359951728,3.6507165359951728,0,0,1,501.9906469720603,503.0602378761815" stroke="grey" stroke-width="5" fill="none" />
<path d="M501.9906469720603,503.0602378761815 L567.6507165359951,604.0" stroke="grey" stroke-width="5" />
<circle cx="501.9906469720603" cy="503.0602378761815" r="2.5" fill="grey" stroke="none" />
<circle cx="503.6507165359952" cy="500.0" r="5" fill="black" stroke="none" />
<circle cx="567.6507165359951" cy="604.0" r="5" fill="black" stroke="none" />
<circle cx="500" cy="500" r="5" fill="red" stroke="none" />
</svg>