<?xml version="1.0" encoding="UTF-8"?>
<svg xmlns="http://www.w3.org/2000/svg" xmlns:xlink="http://www.w3.org/1999/xlink"
     width="1000" height="1000" viewBox="0 0 1000 1000">
<defs>
</defs>
<rect x="0" y="0" width="1000" height="1000" fill="white" />
<path d="M335.23204133676927,788.4585702142051 L394.2491678886206,685.1375357035257" stroke="grey" stroke-width="5" />
<circle cx="394.2491678886206" cy="685.1375357035257" r="2.5" fill="grey" stroke="none" />
<path d="M394.2491678886206,685.1375357035257 A213.21150442371402,213.21150442371402,0,0,0,455.2320413367692,708.4585702142051" stroke="grey" stroke-width="5" fill="none" />
<circle cx="335.23204133676927" cy="788.4585702142051" r="5" fill="black" stroke="none" />
<circle cx="455.23204133676927" cy="708.4585702142051" r="5" fill="black" stroke="none" />
<path d="M455.23204133676927,708.4585702142051 L466.63675341111093,655.3534020602106" stroke="grey" stroke-width="5" />
<circle cx="466.63675341111093" cy="655.3534020602106" r="2.5" fill="grey" stroke="none" />
<path d="M466.63675341111093,655.3534020602106 A158.8955183591798,158.8955183591798,0,0,1,455.23204133676927,652.4585702142051" stroke="grey" stroke-width="5" fill="none" />
<circle cx="455.23204133676927" cy="708.4585702142051" r="5" fill="black" stroke="none" />
<circle cx="455.23204133676927" cy="652.4585702142051" r="5" fill="black" stroke="none" />
<path d="M455.23204133676927,652.4585702142051 A158.8955183591798,158.8955183591798,0,0,1,389.0288111056201,613.7241442702485" stroke="grey" stroke-width="5" fill="none" />
<path d="M389.02881110562015,613.7241442702485 L351.23204133676927,652.4585702142051" stroke="grey" stroke-width="5" />
<circle cx="389.02881110562015" cy="613.7241442702485" r="2.5" fill="grey" stroke="none" />
<circle cx="455.23204133676927" cy="652.4585702142051" r="5" fill="black" stroke="none" />
<circle cx="351.23204133676927" cy="652.4585702142051" r="5" fill="black" stroke="none" />
<path d="M351.23204133676927,652.4585702142051 L416.8395508997412,585.2234801238168" stroke="grey" stroke-width="5" />
<circle cx="416.8395508997412" cy="585.2234801238168" r="2.5" fill="grey" stroke="none" />
<path d="M416.83955089974114,585.2234801238167 A119.07435432943285,119.07435432943285,0,0,1,391.2320413367692,548.4585702142051" stroke="grey" stroke-width="5" fill="none" />
<circle cx="351.23204133676927" cy="652.4585702142051" r="5" fill="black" stroke="none" />
<circle cx="391.23204133676927" cy="548.4585702142051" r="5" fill="black" stroke="none" />
<path d="M391.23204133676927,548.4585702142051 L463.76059381663623,516.1454699586202" stroke="grey" stroke-width="5" />
<circle cx="463.76059381663623" cy="516.1454699586202" r="2.5" fill="grey" stroke="none" />
<path d="M463.76059381663623,516.1454699586202 A39.67330035058254,39.67330035058254,0,0,1,503.23204133676927,460.4585702142051" stroke="grey" stroke-width="5" fill="none" />
<circle cx="391.23204133676927" cy="548.4585702142051" r="5" fill="black" stroke="none" />
<circle cx="503.23204133676927" cy="460.4585702142051" r="5" fill="black" stroke="none" />
<path d="M503.23204133676927,460.4585702142051 A39.67330035058254,39.67330035058254,0,0,1,537.9649072604242,488.4832045509646" stroke="grey" stroke-width="5" fill="none" />
<path d="M537.9649072604242,488.4832045509646 L551.2320413367693,484.4585702142051" stroke="grey" stroke-width="5" />
<circle cx="537.9649072604242" cy="488.4832045509646" r="2.5" fill="grey" stroke="none" />
<circle cx="503.23204133676927" cy="460.4585702142051" r="5" fill="black" stroke="none" />
<circle cx="551.2320413367693" cy="484.4585702142051" r="5" fill="black" stroke="none" />
<path d="M551.2320413367693,484.4585702142051 L507.85151856401706,497.6182127182397" stroke="grey" stroke-width="5" />
<circle cx="507.85151856401706" cy="497.6182127182397" r="2.5" fill="grey" stroke="none" />
<path d="M507.85151856401706,497.6182127182397 A8.204831163202535,8.204831163202535,0,0,0,503.2320413367692,492.4585702142051" stroke="grey" stroke-width="5" fill="none" />
<circle cx="551.2320413367693" cy="484.4585702142051" r="5" fill="black" stroke="none" />
<circle cx="503.23204133676927" cy="492.4585702142051" r="5" fill="black" stroke="none" />
<path d="M503.23204133676927,460.4585702142051 L500.6684181362868,491.822440974732" stroke="grey" stroke-width="5" />
<circle cx="500.6684181362868" cy="491.822440974732" r="2.5" fill="grey" stroke="none" />
<path d="M500.6684181362868,491.822440974732 A8.204831163202535,8.204831163202535,0,0,1,503.2320413367692,492.4585702142051" stroke="grey" stroke-width="5" fill="none" />
<circle cx="503.23204133676927" cy="460.4585702142051" r="5" fill="black" stroke="none" />
<circle cx="503.23204133676927" cy="492.4585702142051" r="5" fill="black" stroke="none" />
<path d="M503.23204133676927,492.4585702142051 L455.23204133676927,604.4585702142051" stroke="grey" stroke-width="5" />
<circle cx="503.23204133676927" cy="492.4585702142051" r="5" fill="black" stroke="none" />
<circle cx="455.23204133676927" cy="604.4585702142051" r="5" fill="black" stroke="none" />
<path d="M391.23204133676927,548.4585702142051 L396.18914297130937,546.2500700219741" stroke="grey" stroke-width="5" />
<circle cx="396.18914297130937" cy="546.2500700219741" r="2.5" fill="grey" stroke="none" />
<path d="M396.18914297130937,546.2500700219741 A113.64753853062,113.64753853062,0,0,0,455.2320413367692,604.4585702142051" stroke="grey" stroke-width="5" fill="none" />
<circle cx="391.23204133676927" cy="548.4585702142051" r="5" fill="black" stroke="none" />
<circle cx="455.23204133676927" cy="604.4585702142051" r="5" fill="black" stroke="none" />
<path d="M455.2320413367692,604.4585702142051 A113.64753853062,113.64753853062,0,0,0,467.9804165677226,609.0436118756719" stroke="grey" stroke-width="5" fill="none" />
<path d="M467.9804165677226,609.0436118756719 L455.23204133676927,652.4585702142051" stroke="grey" stroke-width="5" />
<circle cx="467.9804165677226" cy="609.0436118756719" r="2.5" fill="grey" stroke="none" />
<circle cx="455.23204133676927" cy="604.4585702142051" r="5" fill="black" stroke="none" />
<circle cx="455.23204133676927" cy="652.4585702142051" r="5" fill="black" stroke="none" />
<path d="M551.2320413367693,484.4585702142051 A53.5374457676048,53.5374457676048,0,0,0,545.729631204501,472.16011980594106" stroke="grey" stroke-width="5" fill="none" />
<path d="M545.729631204501,472.16011980594106 L591.2320413367693,444.4585702142051" stroke="grey" stroke-width="5" />
<circle cx="545.729631204501" cy="472.16011980594106" r="2.5" fill="grey" stroke="none" />
<circle cx="551.2320413367693" cy="484.4585702142051" r="5" fill="black" stroke="none" />
<circle cx="591.2320413367693" cy="444.4585702142051" r="5" fill="black" stroke="none" />
<path d="M551.2320413367693,484.4585702142051 A53.5374457676048,53.5374457676048,0,0,1,548.1076958338078,523.4927159111297" stroke="grey" stroke-width="5" fill="none" />
<path d="M548.1076958338078,523.4927159111297 L599.2320413367693,548.4585702142051" stroke="grey" stroke-width="5" />
<circle cx="548.1076958338078" cy="523.4927159111297" r="2.5" fill="grey" stroke="none" />
<circle cx="551.2320413367693" cy="484.4585702142051" r="5" fill="black" stroke="none" />
<circle cx="599.2320413367693" cy="548.4585702142051" r="5" fill="black" stroke="none" />
<path d="M503.2320413367692,492.4585702142051 A8.204831163202535,8.204831163202535,0,0,1,505.96079300684914,505.6381026193355" stroke="grey" stroke-width="5" fill="none" />
<path d="M505.96079300684914,505.6381026193355 L551.2320413367693,548.4585702142051" stroke="grey" stroke-width="5" />
<circle cx="505.96079300684914" cy="505.6381026193355" r="2.5" fill="grey" stroke="none" />
<circle cx="503.23204133676927" cy="492.4585702142051" r="5" fill="black" stroke="none" />
<circle cx="551.2320413367693" cy="548.4585702142051" r="5" fill="black" stroke="none" />
<path d="M455.23204133676927,604.4585702142051 L458.8320615959317,596.0585229428261" stroke="grey" stroke-width="5" />
<circle cx="458.8320615959317" cy="596.0585229428261" r="2.5" fill="grey" stroke="none" />
<path d="M458.8320615959317,596.058522942826 A104.50855937385514,104.50855937385514,0,0,0,503.2320413367692,604.4585702142051" stroke="grey" stroke-width="5" fill="none" />
<circle cx="455.23204133676927" cy="604.4585702142051" r="5" fill="black" stroke="none" />
<circle cx="503.23204133676927" cy="604.4585702142051" r="5" fill="black" stroke="none" />
<path d="M455.23204133676927,652.4585702142051 A158.8955183591798,158.8955183591798,0,0,0,550.6138120374716,650.6188161740356" stroke="grey" stroke-width="5" fill="none" />
<path d="M550.6138120374716,650.6188161740356 L551.2320413367693,652.4585702142051" stroke="grey" stroke-width="5" />
<circle cx="550.6138120374716" cy="650.6188161740356" r="2.5" fill="grey" stroke="none" />
<circle cx="455.23204133676927" cy="652.4585702142051" r="5" fill="black" stroke="none" />
<circle cx="551.2320413367693" cy="652.4585702142051" r="5" fill="black" stroke="none" />
<path d="M455.2320413367692,708.4585702142051 A213.21150442371402,213.21150442371402,0,0,0,550.8859029436682,707.0501642120358" stroke="grey" stroke-width="5" fill="none" />
<path d="M550.8859029436682,707.0501642120358 L551.2320413367693,708.4585702142051" stroke="grey" stroke-width="5" />
<circle cx="550.8859029436682" cy="707.0501642120358" r="2.5" fill="grey" stroke="none" />
<circle cx="455.23204133676927" cy="708.4585702142051" r="5" fill="black" stroke="none" />
<circle cx="551.2320413367693" cy="708.4585702142051" r="5" fill="black" stroke="none" />
<path d="M599.2320413367693,548.4585702142051 L563.3671503904291,530.9444556929708" stroke="grey" stroke-width="5" />
<circle cx="563.3671503904291" cy="530.9444556929708" r="2.5" fill="grey" stroke="none" />
<path d="M563.3671503904291,530.9444556929708 A70.51918240264473,70.51918240264473,0,0,1,551.2320413367693,548.4585702142051" stroke="grey" stroke-width="5" fill="none" />
<circle cx="599.2320413367693" cy="548.4585702142051" r="5" fill="black" stroke="none" />
<circle cx="551.2320413367693" cy="548.4585702142051" r="5" fill="black" stroke="none" />
<path d="M551.2320413367693,548.4585702142051 A70.51918240264473,70.51918240264473,0,0,1,502.18088273272605,570.4854512452291" stroke="grey" stroke-width="5" fill="none" />
<path d="M502.18088273272605,570.4854512452291 L503.23204133676927,604.4585702142051" stroke="grey" stroke-width="5" />
<circle cx="502.18088273272605" cy="570.4854512452291" r="2.5" fill="grey" stroke="none" />
<circle cx="551.2320413367693" cy="548.4585702142051" r="5" fill="black" stroke="none" />
<circle cx="503.23204133676927" cy="604.4585702142051" r="5" fill="black" stroke="none" />
<path d="M503.2320413367692,604.4585702142051 A104.50855937385514,104.50855937385514,0,0,0,533.2896524400284,599.0648172805094" stroke="grey" stroke-width="5" fill="none" />
<path d="M533.2896524400284,599.0648172805094 L551.2320413367693,652.4585702142051" stroke="grey" stroke-width="5" />
<circle cx="533.2896524400284" cy="599.0648172805094" r="2.5" fill="grey" stroke="none" />
<circle cx="503.23204133676927" cy="604.4585702142051" r="5" fill="black" stroke="none" />
<circle cx="551.2320413367693" cy="652.4585702142051" r="5" fill="black" stroke="none" />
<path d="M551.2320413367693,652.4585702142051 A160.83636930524185,160.83636930524185,0,0,1,538.3858455499375,656.1885544869037" stroke="grey" stroke-width="5" fill="none" />
<path d="M538.3858455499375,656.1885544869037 L551.2320413367693,708.4585702142051" stroke="grey" stroke-width="5" />
<circle cx="538.3858455499375" cy="656.1885544869037" r="2.5" fill="grey" stroke="none" />
<circle cx="551.2320413367693" cy="652.4585702142051" r="5" fill="black" stroke="none" />
<circle cx="551.2320413367693" cy="708.4585702142051" r="5" fill="black" stroke="none" />
<path d="M551.2320413367693,708.4585702142051 A214.66182137325472,214.66182137325472,0,0,0,584.3321318502599,697.402606601011" stroke="grey" stroke-width="5" fill="none" />
<path d="M584.3321318502599,697.402606601011 L623.2320413367693,788.4585702142051" stroke="grey" stroke-width="5" />
<circle cx="584.3321318502599" cy="697.402606601011" r="2.5" fill="grey" stroke="none" />
<circle cx="551.2320413367693" cy="708.4585702142051" r="5" fill="black" stroke="none" />
<circle cx="623.2320413367693" cy="788.4585702142051" r="5" fill="black" stroke="none" />
<path d="M599.2320413367693,548.4585702142051 L593.8580145450641,545.8342398959859" stroke="grey" stroke-width="5" />
<circle cx="593.8580145450641" cy="545.8342398959859" r="2.5" fill="grey" stroke="none" />
<path d="M593.8580145450641,545.8342398959859 A104.4514453762333,104.4514453762333,0,0,1,575.2320413367693,572.4585702142051" stroke="grey" stroke-width="5" fill="none" />
<circle cx="599.2320413367693" cy="548.4585702142051" r="5" fill="black" stroke="none" />
<circle cx="575.2320413367693" cy="572.4585702142051" r="5" fill="black" stroke="none" />
<path d="M575.2320413367693,572.4585702142051 A104.4514453762333,104.4514453762333,0,0,1,545.9944986578208,593.779584848729" stroke="grey" stroke-width="5" fill="none" />
<path d="M545.9944986578208,593.779584848729 L551.2320413367693,604.4585702142051" stroke="grey" stroke-width="5" />
<circle cx="545.9944986578208" cy="593.779584848729" r="2.5" fill="grey" stroke="none" />
<circle cx="575.2320413367693" cy="572.4585702142051" r="5" fill="black" stroke="none" />
<circle cx="551.2320413367693" cy="604.4585702142051" r="5" fill="black" stroke="none" />
<path d="M551.2320413367693,604.4585702142051 A116.3456700987555,116.3456700987555,0,0,1,537.0601885978988,610.2853452269005" stroke="grey" stroke-width="5" fill="none" />
<path d="M537.0601885978988,610.2853452269005 L551.2320413367693,652.4585702142051" stroke="grey" stroke-width="5" />
<circle cx="537.0601885978988" cy="610.2853452269005" r="2.5" fill="grey" stroke="none" />
<circle cx="551.2320413367693" cy="604.4585702142051" r="5" fill="black" stroke="none" />
<circle cx="551.2320413367693" cy="652.4585702142051" r="5" fill="black" stroke="none" />
<path d="M551.2320413367693,548.4585702142051 A70.51918240264473,70.51918240264473,0,0,1,550.7920405164455,548.9195636418932" stroke="grey" stroke-width="5" fill="none" />
<path d="M550.7920405164455,548.9195636418932 L575.2320413367693,572.4585702142051" stroke="grey" stroke-width="5" />
<circle cx="550.7920405164455" cy="548.9195636418932" r="2.5" fill="grey" stroke="none" />
<circle cx="551.2320413367693" cy="548.4585702142051" r="5" fill="black" stroke="none" />
<circle cx="575.2320413367693" cy="572.4585702142051" r="5" fill="black" stroke="none" />
<path d="M503.2320413367692,604.4585702142051 A104.50855937385514,104.50855937385514,0,0,0,546.0196484264765,593.8308634783998" stroke="grey" stroke-width="5" fill="none" />
<path d="M546.0196484264765,593.8308634783998 L551.2320413367693,604.4585702142051" stroke="grey" stroke-width="5" />
<circle cx="546.0196484264765" cy="593.8308634783998" r="2.5" fill="grey" stroke="none" />
<circle cx="503.23204133676927" cy="604.4585702142051" r="5" fill="black" stroke="none" />
<circle cx="551.2320413367693" cy="604.4585702142051" r="5" fill="black" stroke="none" />
<path d="M599.2320413367693,548.4585702142051 A110.43202006242268,110.43202006242268,0,0,1,576.0585438822544,580.064529959143" stroke="grey" stroke-width="5" fill="none" />
<path d="M576.0585438822544,580.064529959143 L599.2320413367693,604.4585702142051" stroke="grey" stroke-width="5" />
<circle cx="576.0585438822544" cy="580.064529959143" r="2.5" fill="grey" stroke="none" />
<circle cx="599.2320413367693" cy="548.4585702142051" r="5" fill="black" stroke="none" />
<circle cx="599.2320413367693" cy="604.4585702142051" r="5" fill="black" stroke="none" />
<path d="M575.2320413367693,572.4585702142051 A104.4514453762333,104.4514453762333,0,0,1,571.9395048394704,575.7285420738843" stroke="grey" stroke-width="5" fill="none" />
<path d="M571.9395048394704,575.7285420738843 L599.2320413367693,604.4585702142051" stroke="grey" stroke-width="5" />
<circle cx="571.9395048394704" cy="575.7285420738843" r="2.5" fill="grey" stroke="none" />
<circle cx="575.2320413367693" cy="572.4585702142051" r="5" fill="black" stroke="none" />
<circle cx="599.2320413367693" cy="604.4585702142051" r="5" fill="black" stroke="none" />
<path d="M551.2320413367693,604.4585702142051 A116.3456700987555,116.3456700987555,0,0,0,580.1314894875097,584.3519966760808" stroke="grey" stroke-width="5" fill="none" />
<path d="M580.1314894875097,584.3519966760808 L599.2320413367693,604.4585702142051" stroke="grey" stroke-width="5" />
<circle cx="580.1314894875097" cy="584.3519966760808" r="2.5" fill="grey" stroke="none" />
<circle cx="551.2320413367693" cy="604.4585702142051" r="5" fill="black" stroke="none" />
<circle cx="599.2320413367693" cy="604.4585702142051" r="5" fill="black" stroke="none" />
<path d="M551.2320413367693,652.4585702142051 L545.8940447808396,636.5735244207771" stroke="grey" stroke-width="5" />
<circle cx="545.8940447808396" cy="636.5735244207771" r="2.5" fill="grey" stroke="none" />
<path d="M545.8940447808396,636.5735244207771 A144.07841933842244,144.07841933842244,0,0,0,599.2320413367693,604.4585702142051" stroke="grey" stroke-width="5" fill="none" />
<circle cx="551.2320413367693" cy="652.4585702142051" r="5" fill="black" stroke="none" />
<circle cx="599.2320413367693" cy="604.4585702142051" r="5" fill="black" stroke="none" />
<path d="M599.2320413367693,604.4585702142051 A144.07841933842244,144.07841933842244,0,0,1,570.6220593817884,625.5831025565678" stroke="grey" stroke-width="5" fill="none" />
<path d="M570.6220593817884,625.5831025565678 L599.2320413367693,676.4585702142051" stroke="grey" stroke-width="5" />
<circle cx="570.6220593817884" cy="625.5831025565678" r="2.5" fill="grey" stroke="none" />
<circle cx="599.2320413367693" cy="604.4585702142051" r="5" fill="black" stroke="none" />
<circle cx="599.2320413367693" cy="676.4585702142051" r="5" fill="black" stroke="none" />
<path d="M599.2320413367693,676.4585702142051 A202.4465979706842,202.4465979706842,0,0,1,548.3167076910614,696.5963397110952" stroke="grey" stroke-width="5" fill="none" />
<path d="M548.3167076910614,696.5963397110952 L551.2320413367693,708.4585702142051" stroke="grey" stroke-width="5" />
<circle cx="548.3167076910614" cy="696.5963397110952" r="2.5" fill="grey" stroke="none" />
<circle cx="599.2320413367693" cy="676.4585702142051" r="5" fill="black" stroke="none" />
<circle cx="551.2320413367693" cy="708.4585702142051" r="5" fill="black" stroke="none" />
<path d="M599.2320413367693,548.4585702142051 A110.43202006242268,110.43202006242268,0,0,0,606.5255669272531,470.88755170215586" stroke="grey" stroke-width="5" fill="none" />
<path d="M606.5255669272531,470.88755170215586 L703.2320413367693,444.4585702142051" stroke="grey" stroke-width="5" />
<circle cx="606.5255669272531" cy="470.88755170215586" r="2.5" fill="grey" stroke="none" />
<circle cx="599.2320413367693" cy="548.4585702142051" r="5" fill="black" stroke="none" />
<circle cx="703.2320413367693" cy="444.4585702142051" r="5" fill="black" stroke="none" />
<path d="M599.2320413367693,548.4585702142051 A110.43202006242268,110.43202006242268,0,0,0,605.2124322169705,533.5495925766128" stroke="grey" stroke-width="5" fill="none" />
<path d="M605.2124322169705,533.5495925766128 L727.2320413367693,572.4585702142051" stroke="grey" stroke-width="5" />
<circle cx="605.2124322169705" cy="533.5495925766128" r="2.5" fill="grey" stroke="none" />
<circle cx="599.2320413367693" cy="548.4585702142051" r="5" fill="black" stroke="none" />
<circle cx="727.2320413367693" cy="572.4585702142051" r="5" fill="black" stroke="none" />
<path d="M727.2320413367693,572.4585702142051 A238.50502092736352,238.50502092736352,0,0,0,732.4435191015062,553.4289756150143" stroke="grey" stroke-width="5" fill="none" />
<path d="M732.4435191015062,553.4289756150143 L815.2320413367693,572.4585702142051" stroke="grey" stroke-width="5" />
<circle cx="732.4435191015062" cy="553.4289756150143" r="2.5" fill="grey" stroke="none" />
<circle cx="727.2320413367693" cy="572.4585702142051" r="5" fill="black" stroke="none" />
<circle cx="815.2320413367693" cy="572.4585702142051" r="5" fill="black" stroke="none" />
<path d="M599.2320413367693,604.4585702142051 A144.07841933842244,144.07841933842244,0,0,1,588.827276266715,613.4385556594185" stroke="grey" stroke-width="5" fill="none" />
<path d="M588.827276266715,613.4385556594185 L663.2320413367693,708.4585702142051" stroke="grey" stroke-width="5" />
<circle cx="588.827276266715" cy="613.4385556594185" r="2.5" fill="grey" stroke="none" />
<circle cx="599.2320413367693" cy="604.4585702142051" r="5" fill="black" stroke="none" />
<circle cx="663.2320413367693" cy="708.4585702142051" r="5" fill="black" stroke="none" />
<circle cx="500" cy="500" r="5" fill="red" stroke="none" />
</svg>