<?xml version="1.0" encoding="UTF-8"?>
<svg xmlns="http://www.w3.org/2000/svg" xmlns:xlink="http://www.w3.org/1999/xlink"
     width="1000" height="1000" viewBox="0 0 1000 1000">
<defs>
</defs>
<rect x="0" y="0" width="1000" height="1000" fill="white" />
<path d="M203.01803818275073,630.40431204697 L331.50815295354175,573.984504867462" stroke="grey" stroke-width="5" />
<circle cx="331.50815295354175" cy="573.984504867462" r="2.5" fill="grey" stroke="none" />
<path d="M331.50815295354175,573.984504867462 A184.0195899397958,184.0195899397958,0,0,1,323.01803818275073,550.40431204697" stroke="grey" stroke-width="5" fill="none" />
<circle cx="203.01803818275073" cy="630.40431204697" r="5" fill="black" stroke="none" />
<circle cx="323.01803818275073" cy="550.40431204697" r="5" fill="black" stroke="none" />
<path d="M323.01803818275073,550.40431204697 L329.7014640119638,548.500878060933" stroke="grey" stroke-width="5" />
<circle cx="329.7014640119638" cy="548.500878060933" r="2.5" fill="grey" stroke="none" />
<path d="M329.7014640119638,548.500878060933 A177.07039993276675,177.07039993276675,0,0,1,323.01803818275073,494.40431204696995" stroke="grey" stroke-width="5" fill="none" />
<circle cx="323.01803818275073" cy="550.40431204697" r="5" fill="black" stroke="none" />
<circle cx="323.01803818275073" cy="494.40431204696995" r="5" fill="black" stroke="none" />
<path d="M323.01803818275073,494.40431204696995 A177.07039993276675,177.07039993276675,0,0,0,322.9647024753026,496.47438477825" stroke="grey" stroke-width="5" fill="none" />
<path d="M322.9647024753026,496.4743847782501 L-280.98196181724927,-5.595687953030051" stroke="grey" stroke-width="5" />
<circle cx="322.9647024753026" cy="496.4743847782501" r="2.5" fill="grey" stroke="none" />
<circle cx="323.01803818275073" cy="494.40431204696995" r="5" fill="black" stroke="none" />
<circle cx="219.01803818275073" cy="494.40431204696995" r="5" fill="black" stroke="none" />
<path d="M219.01803818275073,494.40431204696995 L235.31955719910997,494.72895286371835" stroke="grey" stroke-width="5" />
<circle cx="235.31955719910997" cy="494.72895286371835" r="2.5" fill="grey" stroke="none" />
<path d="M235.31955719910997,494.72895286371823 A264.73292341374565,264.73292341374565,0,0,1,259.01803818275073,390.40431204697006" stroke="grey" stroke-width="5" fill="none" />
<circle cx="219.01803818275073" cy="494.40431204696995" r="5" fill="black" stroke="none" />
<circle cx="259.01803818275073" cy="390.40431204696995" r="5" fill="black" stroke="none" />
<path d="M259.01803818275073,390.40431204696995 L285.20322198351704,402.3130176246839" stroke="grey" stroke-width="5" />
<circle cx="285.20322198351704" cy="402.3130176246839" r="2.5" fill="grey" stroke="none" />
<path d="M285.203221983517,402.313017624684 A235.96695186372514,235.96695186372514,0,0,1,371.01803818275073,302.40431204696995" stroke="grey" stroke-width="5" fill="none" />
<circle cx="259.01803818275073" cy="390.40431204696995" r="5" fill="black" stroke="none" />
<circle cx="371.01803818275073" cy="302.40431204696995" r="5" fill="black" stroke="none" />
<path d="M371.01803818275073,302.40431204696995 L395.29374950562004,339.59382143114203" stroke="grey" stroke-width="5" />
<circle cx="395.29374950562004" cy="339.59382143114203" r="2.5" fill="grey" stroke="none" />
<path d="M395.29374950562004,339.59382143114203 A191.55558205298064,191.55558205298064,0,0,1,419.01803818275073,326.40431204696995" stroke="grey" stroke-width="5" fill="none" />
<circle cx="371.01803818275073" cy="302.40431204696995" r="5" fill="black" stroke="none" />
<circle cx="419.01803818275073" cy="326.40431204696995" r="5" fill="black" stroke="none" />
<path d="M419.01803818275073,326.40431204696995 A191.55558205298064,191.55558205298064,0,0,0,382.29090267356645,348.8771710751404" stroke="grey" stroke-width="5" fill="none" />
<path d="M382.29090267356645,348.8771710751404 L-128.98196181724927,-165.59568795303005" stroke="grey" stroke-width="5" />
<circle cx="382.29090267356645" cy="348.8771710751404" r="2.5" fill="grey" stroke="none" />
<circle cx="419.01803818275073" cy="326.40431204696995" r="5" fill="black" stroke="none" />
<circle cx="371.01803818275073" cy="334.40431204696995" r="5" fill="black" stroke="none" />
<path d="M371.01803818275073,302.40431204696995 L385.26615265903814,324.2319067145447" stroke="grey" stroke-width="5" />
<circle cx="385.26615265903814" cy="324.2319067145447" r="2.5" fill="grey" stroke="none" />
<path d="M385.26615265903814,324.2319067145447 A209.90063921499535,209.90063921499535,0,0,0,371.01803818275073,334.40431204696995" stroke="grey" stroke-width="5" fill="none" />
<circle cx="371.01803818275073" cy="302.40431204696995" r="5" fill="black" stroke="none" />
<circle cx="371.01803818275073" cy="334.40431204696995" r="5" fill="black" stroke="none" />
<path d="M371.01803818275073,334.40431204696995 L386.3688934114586,354.11276892303283" stroke="grey" stroke-width="5" />
<circle cx="386.3688934114586" cy="354.11276892303283" r="2.5" fill="grey" stroke="none" />
<path d="M386.3688934114586,354.11276892303283 A184.91920553539282,184.91920553539282,0,0,0,323.01803818275073,446.40431204696995" stroke="grey" stroke-width="5" fill="none" />
<circle cx="371.01803818275073" cy="334.40431204696995" r="5" fill="black" stroke="none" />
<circle cx="323.01803818275073" cy="446.40431204696995" r="5" fill="black" stroke="none" />
<path d="M259.01803818275073,390.40431204696995 L331.67113348436544,423.44606297908297" stroke="grey" stroke-width="5" />
<circle cx="331.67113348436544" cy="423.44606297908297" r="2.5" fill="grey" stroke="none" />
<path d="M331.67113348436544,423.446062979083 A184.91920553539282,184.91920553539282,0,0,0,323.01803818275073,446.40431204696995" stroke="grey" stroke-width="5" fill="none" />
<circle cx="259.01803818275073" cy="390.40431204696995" r="5" fill="black" stroke="none" />
<circle cx="323.01803818275073" cy="446.40431204696995" r="5" fill="black" stroke="none" />
<path d="M323.01803818275073,446.40431204696995 L330.52995134208516,448.6791549150453" stroke="grey" stroke-width="5" />
<circle cx="330.52995134208516" cy="448.6791549150453" r="2.5" fill="grey" stroke="none" />
<path d="M330.52995134208516,448.6791549150453 A177.07039993276675,177.07039993276675,0,0,0,323.01803818275073,494.40431204696995" stroke="grey" stroke-width="5" fill="none" />
<circle cx="323.01803818275073" cy="446.40431204696995" r="5" fill="black" stroke="none" />
<circle cx="323.01803818275073" cy="494.40431204696995" r="5" fill="black" stroke="none" />
<path d="M419.01803818275073,326.40431204696995 A191.55558205298064,191.55558205298064,0,0,1,463.90518080485975,311.8758254691164" stroke="grey" stroke-width="5" fill="none" />
<path d="M463.90518080485975,311.8758254691164 L-40.98196181724927,-213.59568795303005" stroke="grey" stroke-width="5" />
<circle cx="463.90518080485975" cy="311.8758254691164" r="2.5" fill="grey" stroke="none" />
<circle cx="419.01803818275073" cy="326.40431204696995" r="5" fill="black" stroke="none" />
<circle cx="459.01803818275073" cy="286.40431204696995" r="5" fill="black" stroke="none" />
<path d="M419.01803818275073,326.40431204696995 L451.61475319729107,396.2797391294576" stroke="grey" stroke-width="5" />
<circle cx="451.61475319729107" cy="396.2797391294576" r="2.5" fill="grey" stroke="none" />
<path d="M451.61475319729107,396.2797391294576 A114.450970389999,114.450970389999,0,0,1,467.01803818275073,390.40431204696995" stroke="grey" stroke-width="5" fill="none" />
<circle cx="419.01803818275073" cy="326.40431204696995" r="5" fill="black" stroke="none" />
<circle cx="467.01803818275073" cy="390.40431204696995" r="5" fill="black" stroke="none" />
<path d="M371.01803818275073,334.40431204696995 L416.26386697720017,392.49393977986017" stroke="grey" stroke-width="5" />
<circle cx="416.26386697720017" cy="392.49393977986017" r="2.5" fill="grey" stroke="none" />
<path d="M416.26386697720017,392.49393977986017 A136.2691929882479,136.2691929882479,0,0,1,419.01803818275073,390.40431204696995" stroke="grey" stroke-width="5" fill="none" />
<circle cx="371.01803818275073" cy="334.40431204696995" r="5" fill="black" stroke="none" />
<circle cx="419.01803818275073" cy="390.40431204696995" r="5" fill="black" stroke="none" />
<path d="M323.01803818275073,446.40431204696995 L366.32113281405566,459.5178470277634" stroke="grey" stroke-width="5" />
<circle cx="366.32113281405566" cy="459.5178470277634" r="2.5" fill="grey" stroke="none" />
<path d="M366.32113281405566,459.5178470277634 A139.67406431182891,139.67406431182891,0,0,1,371.01803818275073,446.40431204696995" stroke="grey" stroke-width="5" fill="none" />
<circle cx="323.01803818275073" cy="446.40431204696995" r="5" fill="black" stroke="none" />
<circle cx="371.01803818275073" cy="446.40431204696995" r="5" fill="black" stroke="none" />
<path d="M323.01803818275073,494.40431204696995 L418.86548611722503,497.43474748925206" stroke="grey" stroke-width="5" />
<circle cx="418.86548611722503" cy="497.43474748925206" r="2.5" fill="grey" stroke="none" />
<path d="M418.86548611722503,497.43474748925206 A81.17505690443403,81.17505690443403,0,0,1,419.01803818275073,494.40431204696995" stroke="grey" stroke-width="5" fill="none" />
<circle cx="323.01803818275073" cy="494.40431204696995" r="5" fill="black" stroke="none" />
<circle cx="419.01803818275073" cy="494.40431204696995" r="5" fill="black" stroke="none" />
<path d="M323.01803818275073,550.40431204697 L408.26100664614296,526.1271872026002" stroke="grey" stroke-width="5" />
<circle cx="408.26100664614296" cy="526.1271872026002" r="2.5" fill="grey" stroke="none" />
<path d="M408.26100664614296,526.1271872026002 A95.3869635364222,95.3869635364222,0,0,0,419.01803818275073,550.40431204697" stroke="grey" stroke-width="5" fill="none" />
<circle cx="323.01803818275073" cy="550.40431204697" r="5" fill="black" stroke="none" />
<circle cx="419.01803818275073" cy="550.40431204697" r="5" fill="black" stroke="none" />
<path d="M467.01803818275073,390.40431204696995 A114.450970389999,114.450970389999,0,0,0,431.9841564272759,407.9518080226279" stroke="grey" stroke-width="5" fill="none" />
<path d="M431.9841564272759,407.9518080226279 L-80.98196181724927,-109.59568795303005" stroke="grey" stroke-width="5" />
<circle cx="431.9841564272759" cy="407.9518080226279" r="2.5" fill="grey" stroke="none" />
<circle cx="467.01803818275073" cy="390.40431204696995" r="5" fill="black" stroke="none" />
<circle cx="419.01803818275073" cy="390.40431204696995" r="5" fill="black" stroke="none" />
<path d="M419.01803818275073,390.40431204696995 A136.2691929882479,136.2691929882479,0,0,0,374.162265317649,447.7108281985402" stroke="grey" stroke-width="5" fill="none" />
<path d="M374.162265317649,447.7108281985402 L-128.98196181724927,-53.59568795303005" stroke="grey" stroke-width="5" />
<circle cx="374.162265317649" cy="447.7108281985402" r="2.5" fill="grey" stroke="none" />
<circle cx="419.01803818275073" cy="390.40431204696995" r="5" fill="black" stroke="none" />
<circle cx="371.01803818275073" cy="446.40431204696995" r="5" fill="black" stroke="none" />
<path d="M371.01803818275073,446.40431204696995 L425.0389244291931,468.85153273905945" stroke="grey" stroke-width="5" />
<circle cx="425.0389244291931" cy="468.85153273905945" r="2.5" fill="grey" stroke="none" />
<path d="M425.0389244291931,468.85153273905945 A81.17505690443403,81.17505690443403,0,0,0,419.01803818275073,494.40431204696995" stroke="grey" stroke-width="5" fill="none" />
<circle cx="371.01803818275073" cy="446.40431204696995" r="5" fill="black" stroke="none" />
<circle cx="419.01803818275073" cy="494.40431204696995" r="5" fill="black" stroke="none" />
<path d="M419.01803818275073,494.40431204696995 A81.17505690443403,81.17505690443403,0,0,0,431.08371296211953,542.8944663604825" stroke="grey" stroke-width="5" fill="none" />
<path d="M431.08371296211953,542.8944663604825 L-80.98196181724927,50.40431204696995" stroke="grey" stroke-width="5" />
<circle cx="431.08371296211953" cy="542.8944663604825" r="2.5" fill="grey" stroke="none" />
<circle cx="419.01803818275073" cy="494.40431204696995" r="5" fill="black" stroke="none" />
<circle cx="419.01803818275073" cy="550.40431204697" r="5" fill="black" stroke="none" />
<path d="M419.01803818275073,550.40431204697 A95.3869635364222,95.3869635364222,0,0,0,493.44548543431017,595.1615003638914" stroke="grey" stroke-width="5" fill="none" />
<path d="M493.44548543431017,595.1615003638914 L-8.981961817249271,130.40431204696995" stroke="grey" stroke-width="5" />
<circle cx="493.44548543431017" cy="595.1615003638914" r="2.5" fill="grey" stroke="none" />
<circle cx="419.01803818275073" cy="550.40431204697" r="5" fill="black" stroke="none" />
<circle cx="491.01803818275073" cy="630.40431204697" r="5" fill="black" stroke="none" />
<path d="M467.01803818275073,390.40431204696995 L470.3675376816594,401.53435652143907" stroke="grey" stroke-width="5" />
<circle cx="470.3675376816594" cy="401.53435652143907" r="2.5" fill="grey" stroke="none" />
<path d="M470.3675376816594,401.53435652143907 A102.82784529831862,102.82784529831862,0,0,0,443.01803818275073,414.40431204696995" stroke="grey" stroke-width="5" fill="none" />
<circle cx="467.01803818275073" cy="390.40431204696995" r="5" fill="black" stroke="none" />
<circle cx="443.01803818275073" cy="414.40431204696995" r="5" fill="black" stroke="none" />
<path d="M443.01803818275073,414.40431204696995 L446.1859386622028,419.16298676187506" stroke="grey" stroke-width="5" />
<circle cx="446.1859386622028" cy="419.16298676187506" r="2.5" fill="grey" stroke="none" />
<path d="M446.1859386622028,419.16298676187506 A97.11115233035281,97.11115233035281,0,0,0,419.01803818275073,446.40431204696995" stroke="grey" stroke-width="5" fill="none" />
<circle cx="443.01803818275073" cy="414.40431204696995" r="5" fill="black" stroke="none" />
<circle cx="419.01803818275073" cy="446.40431204696995" r="5" fill="black" stroke="none" />
<path d="M419.01803818275073,446.40431204696995 L432.3073076469586,455.1994501659344" stroke="grey" stroke-width="5" />
<circle cx="432.3073076469586" cy="455.1994501659344" r="2.5" fill="grey" stroke="none" />
<path d="M432.3073076469586,455.1994501659344 A81.17505690443403,81.17505690443403,0,0,0,419.01803818275073,494.40431204696995" stroke="grey" stroke-width="5" fill="none" />
<circle cx="419.01803818275073" cy="446.40431204696995" r="5" fill="black" stroke="none" />
<circle cx="419.01803818275073" cy="494.40431204696995" r="5" fill="black" stroke="none" />
<path d="M419.01803818275073,390.40431204696995 L438.8915391726389,417.29980783573825" stroke="grey" stroke-width="5" />
<circle cx="438.8915391726389" cy="417.29980783573825" r="2.5" fill="grey" stroke="none" />
<path d="M438.8915391726389,417.29980783573825 A102.82784529831862,102.82784529831862,0,0,1,443.01803818275073,414.40431204696995" stroke="grey" stroke-width="5" fill="none" />
<circle cx="419.01803818275073" cy="390.40431204696995" r="5" fill="black" stroke="none" />
<circle cx="443.01803818275073" cy="414.40431204696995" r="5" fill="black" stroke="none" />
<path d="M371.01803818275073,446.40431204696995 L410.32274314049687,462.7365392229374" stroke="grey" stroke-width="5" />
<circle cx="410.32274314049687" cy="462.7365392229374" r="2.5" fill="grey" stroke="none" />
<path d="M410.32274314049687,462.7365392229374 A97.11115233035281,97.11115233035281,0,0,1,419.01803818275073,446.40431204696995" stroke="grey" stroke-width="5" fill="none" />
<circle cx="371.01803818275073" cy="446.40431204696995" r="5" fill="black" stroke="none" />
<circle cx="419.01803818275073" cy="446.40431204696995" r="5" fill="black" stroke="none" />
<path d="M467.01803818275073,390.40431204696995 L481.8648369996392,439.738706988454" stroke="grey" stroke-width="5" />
<circle cx="481.8648369996392" cy="439.738706988454" r="2.5" fill="grey" stroke="none" />
<path d="M481.8648369996392,439.738706988454 A62.9309746664793,62.9309746664793,0,0,0,467.01803818275073,446.40431204696995" stroke="grey" stroke-width="5" fill="none" />
<circle cx="467.01803818275073" cy="390.40431204696995" r="5" fill="black" stroke="none" />
<circle cx="467.01803818275073" cy="446.40431204696995" r="5" fill="black" stroke="none" />
<path d="M443.01803818275073,414.40431204696995 L465.12685464560406,447.6151614914751" stroke="grey" stroke-width="5" />
<circle cx="465.12685464560406" cy="447.6151614914751" r="2.5" fill="grey" stroke="none" />
<path d="M465.12685464560406,447.6151614914751 A62.9309746664793,62.9309746664793,0,0,1,467.01803818275073,446.40431204696995" stroke="grey" stroke-width="5" fill="none" />
<circle cx="443.01803818275073" cy="414.40431204696995" r="5" fill="black" stroke="none" />
<circle cx="467.01803818275073" cy="446.40431204696995" r="5" fill="black" stroke="none" />
<path d="M419.01803818275073,446.40431204696995 L447.52123041206846,465.2683672279887" stroke="grey" stroke-width="5" />
<circle cx="447.52123041206846" cy="465.2683672279887" r="2.5" fill="grey" stroke="none" />
<path d="M447.52123041206846,465.2683672279887 A62.9309746664793,62.9309746664793,0,0,1,467.01803818275073,446.40431204696995" stroke="grey" stroke-width="5" fill="none" />
<circle cx="419.01803818275073" cy="446.40431204696995" r="5" fill="black" stroke="none" />
<circle cx="467.01803818275073" cy="446.40431204696995" r="5" fill="black" stroke="none" />
<path d="M419.01803818275073,494.40431204696995 L437.21872232793305,495.66194210090634" stroke="grey" stroke-width="5" />
<circle cx="437.21872232793305" cy="495.66194210090634" r="2.5" fill="grey" stroke="none" />
<path d="M437.21872232793305,495.66194210090634 A62.9309746664793,62.9309746664793,0,0,1,467.01803818275073,446.40431204696995" stroke="grey" stroke-width="5" fill="none" />
<circle cx="419.01803818275073" cy="494.40431204696995" r="5" fill="black" stroke="none" />
<circle cx="467.01803818275073" cy="446.40431204696995" r="5" fill="black" stroke="none" />
<path d="M467.01803818275073,446.40431204696995 L480.205148232578,467.8333658779393" stroke="grey" stroke-width="5" />
<circle cx="480.205148232578" cy="467.8333658779393" r="2.5" fill="grey" stroke="none" />
<path d="M480.205148232578,467.8333658779393 A37.769412323158164,37.769412323158164,0,0,0,467.01803818275073,518.40431204697" stroke="grey" stroke-width="5" fill="none" />
<circle cx="467.01803818275073" cy="446.40431204696995" r="5" fill="black" stroke="none" />
<circle cx="467.01803818275073" cy="518.40431204697" r="5" fill="black" stroke="none" />
<path d="M467.01803818275073,518.40431204697 A37.769412323158164,37.769412323158164,0,0,0,467.93439068383765,519.9580862414203" stroke="grey" stroke-width="5" fill="none" />
<path d="M467.93439068383765,519.9580862414203 L-80.98196181724927,50.40431204696995" stroke="grey" stroke-width="5" />
<circle cx="467.93439068383765" cy="519.9580862414203" r="2.5" fill="grey" stroke="none" />
<circle cx="467.01803818275073" cy="518.40431204697" r="5" fill="black" stroke="none" />
<circle cx="419.01803818275073" cy="550.40431204697" r="5" fill="black" stroke="none" />
<path d="M467.01803818275073,390.40431204696995 A114.450970389999,114.450970389999,0,0,1,536.1099534067536,391.3947704381851" stroke="grey" stroke-width="5" fill="none" />
<path d="M536.1099534067536,391.3947704381851 L71.01803818275073,-213.59568795303005" stroke="grey" stroke-width="5" />
<circle cx="536.1099534067536" cy="391.3947704381851" r="2.5" fill="grey" stroke="none" />
<circle cx="467.01803818275073" cy="390.40431204696995" r="5" fill="black" stroke="none" />
<circle cx="571.0180381827507" cy="286.40431204696995" r="5" fill="black" stroke="none" />
<path d="M467.01803818275073,390.40431204696995 A114.450970389999,114.450970389999,0,0,1,585.035370611186,423.39706031599917" stroke="grey" stroke-width="5" fill="none" />
<path d="M585.0353706111861,423.39706031599917 L95.01803818275073,-85.59568795303005" stroke="grey" stroke-width="5" />
<circle cx="585.0353706111861" cy="423.39706031599917" r="2.5" fill="grey" stroke="none" />
<circle cx="467.01803818275073" cy="390.40431204696995" r="5" fill="black" stroke="none" />
<circle cx="595.0180381827507" cy="414.40431204696995" r="5" fill="black" stroke="none" />
<path d="M595.0180381827507,414.40431204696995 A127.88686162484076,127.88686162484076,0,0,1,615.8434530080341,445.8211870614853" stroke="grey" stroke-width="5" fill="none" />
<path d="M615.8434530080341,445.8211870614853 L183.01803818275073,-85.59568795303005" stroke="grey" stroke-width="5" />
<circle cx="615.8434530080341" cy="445.8211870614853" r="2.5" fill="grey" stroke="none" />
<circle cx="595.0180381827507" cy="414.40431204696995" r="5" fill="black" stroke="none" />
<circle cx="683.0180381827507" cy="414.40431204696995" r="5" fill="black" stroke="none" />
<path d="M467.01803818275073,446.40431204696995 L531.0180381827507,550.40431204697" stroke="grey" stroke-width="5" />
<circle cx="467.01803818275073" cy="446.40431204696995" r="5" fill="black" stroke="none" />
<circle cx="531.0180381827507" cy="550.40431204697" r="5" fill="black" stroke="none" />
<circle cx="500" cy="500" r="5" fill="red" stroke="none" />
</svg>