<?xml version="1.0" encoding="UTF-8"?>
<svg xmlns="http://www.w3.org/2000/svg" xmlns:xlink="http://www.w3.org/1999/xlink"
     width="1000" height="1000" viewBox="0 0 1000 1000">
<defs>
</defs>
<rect x="0" y="0" width="1000" height="1000" fill="white" />
<path d="M378.9450631645917,686.4615192826193 L442.02570624718163,589.2980920487787" stroke="grey" stroke-width="5" />
<circle cx="442.02570624718163" cy="589.2980920487787" r="2.5" fill="grey" stroke="none" />
<path d="M442.02570624718163,589.2980920487787 A106.46674588663933,106.46674588663933,0,0,0,498.9450631645918,606.4615192826193" stroke="grey" stroke-width="5" fill="none" />
<circle cx="378.9450631645917" cy="686.4615192826193" r="5" fill="black" stroke="none" />
<circle cx="498.9450631645917" cy="606.4615192826193" r="5" fill="black" stroke="none" />
<path d="M498.9450631645917,606.4615192826193 L499.4998875313032,550.4700674415591" stroke="grey" stroke-width="5" />
<circle cx="499.4998875313032" cy="550.4700674415591" r="2.5" fill="grey" stroke="none" />
<path d="M499.4998875313032,550.4700674415591 A50.47254521060797,50.47254521060797,0,0,1,498.9450631645917,550.4615192826193" stroke="grey" stroke-width="5" fill="none" />
<circle cx="498.9450631645917" cy="606.4615192826193" r="5" fill="black" stroke="none" />
<circle cx="498.9450631645917" cy="550.4615192826193" r="5" fill="black" stroke="none" />
<path d="M498.9450631645917,550.4615192826193 A50.47254521060797,50.47254521060797,0,0,1,454.50377687044346,521.8534093674756" stroke="grey" stroke-width="5" fill="none" />
<path d="M454.50377687044346,521.8534093674756 L394.9450631645917,550.4615192826193" stroke="grey" stroke-width="5" />
<circle cx="454.50377687044346" cy="521.8534093674756" r="2.5" fill="grey" stroke="none" />
<circle cx="498.9450631645917" cy="550.4615192826193" r="5" fill="black" stroke="none" />
<circle cx="394.9450631645917" cy="550.4615192826193" r="5" fill="black" stroke="none" />
<path d="M394.9450631645917,550.4615192826193 L424.05418402144517,536.4794018527688" stroke="grey" stroke-width="5" />
<circle cx="424.05418402144517" cy="536.4794018527688" r="2.5" fill="grey" stroke="none" />
<path d="M424.0541840214452,536.4794018527689 A84.25267784577711,84.25267784577711,0,0,1,434.9450631645917,446.4615192826193" stroke="grey" stroke-width="5" fill="none" />
<circle cx="394.9450631645917" cy="550.4615192826193" r="5" fill="black" stroke="none" />
<circle cx="434.9450631645917" cy="446.46151928261935" r="5" fill="black" stroke="none" />
<path d="M434.9450631645917,446.4615192826193 A84.25267784577711,84.25267784577711,0,0,1,526.5237993277618,420.03124489274" stroke="grey" stroke-width="5" fill="none" />
<path d="M526.5237993277618,420.03124489274 L546.9450631645917,358.46151928261935" stroke="grey" stroke-width="5" />
<circle cx="526.5237993277618" cy="420.03124489274" r="2.5" fill="grey" stroke="none" />
<circle cx="434.9450631645917" cy="446.46151928261935" r="5" fill="black" stroke="none" />
<circle cx="546.9450631645917" cy="358.46151928261935" r="5" fill="black" stroke="none" />
<path d="M546.9450631645917,358.46151928261935 A149.12069098321615,149.12069098321615,0,0,1,593.7041177650293,383.9977638440131" stroke="grey" stroke-width="5" fill="none" />
<path d="M593.7041177650293,383.9977638440131 L594.9450631645917,382.46151928261935" stroke="grey" stroke-width="5" />
<circle cx="593.7041177650293" cy="383.9977638440131" r="2.5" fill="grey" stroke="none" />
<circle cx="546.9450631645917" cy="358.46151928261935" r="5" fill="black" stroke="none" />
<circle cx="594.9450631645917" cy="382.46151928261935" r="5" fill="black" stroke="none" />
<path d="M594.9450631645917,382.46151928261935 L574.8864836550523,407.2932997071891" stroke="grey" stroke-width="5" />
<circle cx="574.8864836550523" cy="407.2932997071891" r="2.5" fill="grey" stroke="none" />
<path d="M574.8864836550523,407.2932997071891 A119.17431650065998,119.17431650065998,0,0,0,546.9450631645917,390.46151928261935" stroke="grey" stroke-width="5" fill="none" />
<circle cx="594.9450631645917" cy="382.46151928261935" r="5" fill="black" stroke="none" />
<circle cx="546.9450631645917" cy="390.46151928261935" r="5" fill="black" stroke="none" />
<path d="M546.9450631645917,358.46151928261935 L537.5175690162957,386.8852364697386" stroke="grey" stroke-width="5" />
<circle cx="537.5175690162957" cy="386.8852364697386" r="2.5" fill="grey" stroke="none" />
<path d="M537.5175690162957,386.8852364697386 A119.17431650065998,119.17431650065998,0,0,1,546.9450631645917,390.46151928261935" stroke="grey" stroke-width="5" fill="none" />
<circle cx="546.9450631645917" cy="358.46151928261935" r="5" fill="black" stroke="none" />
<circle cx="546.9450631645917" cy="390.46151928261935" r="5" fill="black" stroke="none" />
<path d="M546.9450631645917,390.46151928261935 L498.9450631645917,502.46151928261935" stroke="grey" stroke-width="5" />
<circle cx="546.9450631645917" cy="390.46151928261935" r="5" fill="black" stroke="none" />
<circle cx="498.9450631645917" cy="502.46151928261935" r="5" fill="black" stroke="none" />
<path d="M434.9450631645917,446.46151928261935 L497.9321656500704,498.2982273927874" stroke="grey" stroke-width="5" />
<circle cx="497.9321656500704" cy="498.2982273927874" r="2.5" fill="grey" stroke="none" />
<path d="M497.9321656500704,498.2982273927874 A2.6780531931625484,2.6780531931625484,0,0,0,498.9450631645917,502.46151928261935" stroke="grey" stroke-width="5" fill="none" />
<circle cx="434.9450631645917" cy="446.46151928261935" r="5" fill="black" stroke="none" />
<circle cx="498.9450631645917" cy="502.46151928261935" r="5" fill="black" stroke="none" />
<path d="M498.9450631645917,502.46151928261935 A2.6780531931625484,2.6780531931625484,0,0,0,499.9440254707017,502.6774681618047" stroke="grey" stroke-width="5" fill="none" />
<path d="M499.9440254707017,502.6774681618047 L498.9450631645917,550.4615192826193" stroke="grey" stroke-width="5" />
<circle cx="499.9440254707017" cy="502.6774681618047" r="2.5" fill="grey" stroke="none" />
<circle cx="498.9450631645917" cy="502.46151928261935" r="5" fill="black" stroke="none" />
<circle cx="498.9450631645917" cy="550.4615192826193" r="5" fill="black" stroke="none" />
<path d="M594.9450631645917,382.46151928261935 A151.09553093549252,151.09553093549252,0,0,1,598.2947448825666,385.24808238138456" stroke="grey" stroke-width="5" fill="none" />
<path d="M598.2947448825666,385.24808238138456 L634.9450631645917,342.46151928261935" stroke="grey" stroke-width="5" />
<circle cx="598.2947448825666" cy="385.24808238138456" r="2.5" fill="grey" stroke="none" />
<circle cx="594.9450631645917" cy="382.46151928261935" r="5" fill="black" stroke="none" />
<circle cx="634.9450631645917" cy="342.46151928261935" r="5" fill="black" stroke="none" />
<path d="M594.9450631645917,382.46151928261935 A151.09553093549252,151.09553093549252,0,0,1,641.496594710944,447.0040270031277" stroke="grey" stroke-width="5" fill="none" />
<path d="M641.496594710944,447.0040270031277 L642.9450631645917,446.46151928261935" stroke="grey" stroke-width="5" />
<circle cx="641.496594710944" cy="447.0040270031277" r="2.5" fill="grey" stroke="none" />
<circle cx="594.9450631645917" cy="382.46151928261935" r="5" fill="black" stroke="none" />
<circle cx="642.9450631645917" cy="446.46151928261935" r="5" fill="black" stroke="none" />
<path d="M546.9450631645917,390.46151928261935 L542.9370841708887,399.8134702679264" stroke="grey" stroke-width="5" />
<circle cx="542.9370841708887" cy="399.8134702679264" r="2.5" fill="grey" stroke="none" />
<path d="M542.9370841708887,399.8134702679264 A108.99969695762302,108.99969695762302,0,0,1,594.9450631645917,446.46151928261935" stroke="grey" stroke-width="5" fill="none" />
<circle cx="546.9450631645917" cy="390.46151928261935" r="5" fill="black" stroke="none" />
<circle cx="594.9450631645917" cy="446.46151928261935" r="5" fill="black" stroke="none" />
<path d="M498.9450631645917,502.46151928261935 A2.6780531931625484,2.6780531931625484,0,0,0,502.674379342954,500.14022851132694" stroke="grey" stroke-width="5" fill="none" />
<path d="M502.674379342954,500.14022851132694 L546.9450631645917,502.46151928261935" stroke="grey" stroke-width="5" />
<circle cx="502.674379342954" cy="500.14022851132694" r="2.5" fill="grey" stroke="none" />
<circle cx="498.9450631645917" cy="502.46151928261935" r="5" fill="black" stroke="none" />
<circle cx="546.9450631645917" cy="502.46151928261935" r="5" fill="black" stroke="none" />
<path d="M498.9450631645917,550.4615192826193 A50.47254521060797,50.47254521060797,0,0,0,544.5688274678345,523.6874953969234" stroke="grey" stroke-width="5" fill="none" />
<path d="M544.5688274678345,523.6874953969234 L594.9450631645917,550.4615192826193" stroke="grey" stroke-width="5" />
<circle cx="544.5688274678345" cy="523.6874953969234" r="2.5" fill="grey" stroke="none" />
<circle cx="498.9450631645917" cy="550.4615192826193" r="5" fill="black" stroke="none" />
<circle cx="594.9450631645917" cy="550.4615192826193" r="5" fill="black" stroke="none" />
<path d="M498.9450631645918,606.4615192826193 A106.46674588663933,106.46674588663933,0,0,0,570.8628942169197,579.458279637127" stroke="grey" stroke-width="5" fill="none" />
<path d="M570.8628942169197,579.458279637127 L594.9450631645917,606.4615192826193" stroke="grey" stroke-width="5" />
<circle cx="570.8628942169197" cy="579.458279637127" r="2.5" fill="grey" stroke="none" />
<circle cx="498.9450631645917" cy="606.4615192826193" r="5" fill="black" stroke="none" />
<circle cx="594.9450631645917" cy="606.4615192826193" r="5" fill="black" stroke="none" />
<path d="M642.9450631645917,446.46151928261935 L602.0750636934001,461.7689222118711" stroke="grey" stroke-width="5" />
<circle cx="602.0750636934001" cy="461.7689222118711" r="2.5" fill="grey" stroke="none" />
<path d="M602.0750636934001,461.7689222118711 A108.99969695762302,108.99969695762302,0,0,0,594.9450631645917,446.46151928261935" stroke="grey" stroke-width="5" fill="none" />
<circle cx="642.9450631645917" cy="446.46151928261935" r="5" fill="black" stroke="none" />
<circle cx="594.9450631645917" cy="446.46151928261935" r="5" fill="black" stroke="none" />
<path d="M594.9450631645917,446.46151928261935 L540.948049054728,476.9098438437977" stroke="grey" stroke-width="5" />
<circle cx="540.948049054728" cy="476.9098438437977" r="2.5" fill="grey" stroke="none" />
<path d="M540.948049054728,476.9098438437977 A47.00955256866643,47.00955256866643,0,0,1,546.9450631645917,502.46151928261935" stroke="grey" stroke-width="5" fill="none" />
<circle cx="594.9450631645917" cy="446.46151928261935" r="5" fill="black" stroke="none" />
<circle cx="546.9450631645917" cy="502.46151928261935" r="5" fill="black" stroke="none" />
<path d="M546.9450631645917,502.46151928261935 A47.00955256866643,47.00955256866643,0,0,1,541.5108972418661,522.0622628685601" stroke="grey" stroke-width="5" fill="none" />
<path d="M541.5108972418661,522.0622628685601 L594.9450631645917,550.4615192826193" stroke="grey" stroke-width="5" />
<circle cx="541.5108972418661" cy="522.0622628685601" r="2.5" fill="grey" stroke="none" />
<circle cx="546.9450631645917" cy="502.46151928261935" r="5" fill="black" stroke="none" />
<circle cx="594.9450631645917" cy="550.4615192826193" r="5" fill="black" stroke="none" />
<path d="M594.9450631645917,550.4615192826194 A107.52176499499288,107.52176499499288,0,0,1,571.5651013413085,580.2456616749262" stroke="grey" stroke-width="5" fill="none" />
<path d="M571.5651013413085,580.2456616749262 L594.9450631645917,606.4615192826193" stroke="grey" stroke-width="5" />
<circle cx="571.5651013413085" cy="580.2456616749262" r="2.5" fill="grey" stroke="none" />
<circle cx="594.9450631645917" cy="550.4615192826193" r="5" fill="black" stroke="none" />
<circle cx="594.9450631645917" cy="606.4615192826193" r="5" fill="black" stroke="none" />
<path d="M594.9450631645917,606.4615192826194 A142.64858957344038,142.64858957344038,0,0,0,595.1525008000524,606.2761577155849" stroke="grey" stroke-width="5" fill="none" />
<path d="M595.1525008000524,606.2761577155849 L666.9450631645917,686.4615192826193" stroke="grey" stroke-width="5" />
<circle cx="595.1525008000524" cy="606.2761577155849" r="2.5" fill="grey" stroke="none" />
<circle cx="594.9450631645917" cy="606.4615192826193" r="5" fill="black" stroke="none" />
<circle cx="666.9450631645917" cy="686.4615192826193" r="5" fill="black" stroke="none" />
<path d="M642.9450631645917,446.46151928261935 L614.7719708958629,457.01343708786436" stroke="grey" stroke-width="5" />
<circle cx="614.7719708958629" cy="457.01343708786436" r="2.5" fill="grey" stroke="none" />
<path d="M614.7719708958629,457.01343708786436 A122.55794504771929,122.55794504771929,0,0,1,618.9450631645917,470.46151928261935" stroke="grey" stroke-width="5" fill="none" />
<circle cx="642.9450631645917" cy="446.46151928261935" r="5" fill="black" stroke="none" />
<circle cx="618.9450631645917" cy="470.46151928261935" r="5" fill="black" stroke="none" />
<path d="M618.9450631645917,470.46151928261935 L592.1771430803354,477.1089888809083" stroke="grey" stroke-width="5" />
<circle cx="592.1771430803354" cy="477.1089888809083" r="2.5" fill="grey" stroke="none" />
<path d="M592.1771430803354,477.1089888809083 A94.97696613656923,94.97696613656923,0,0,1,594.9450631645917,502.46151928261935" stroke="grey" stroke-width="5" fill="none" />
<circle cx="618.9450631645917" cy="470.46151928261935" r="5" fill="black" stroke="none" />
<circle cx="594.9450631645917" cy="502.46151928261935" r="5" fill="black" stroke="none" />
<path d="M594.9450631645917,502.46151928261935 A94.97696613656923,94.97696613656923,0,0,1,583.8676155421908,544.5740637565647" stroke="grey" stroke-width="5" fill="none" />
<path d="M583.8676155421908,544.5740637565647 L594.9450631645917,550.4615192826193" stroke="grey" stroke-width="5" />
<circle cx="583.8676155421908" cy="544.5740637565647" r="2.5" fill="grey" stroke="none" />
<circle cx="594.9450631645917" cy="502.46151928261935" r="5" fill="black" stroke="none" />
<circle cx="594.9450631645917" cy="550.4615192826193" r="5" fill="black" stroke="none" />
<path d="M594.9450631645917,446.46151928261935 A108.99969695762302,108.99969695762302,0,0,1,605.7864982518903,473.7292800925353" stroke="grey" stroke-width="5" fill="none" />
<path d="M605.7864982518903,473.7292800925353 L618.9450631645917,470.46151928261935" stroke="grey" stroke-width="5" />
<circle cx="605.7864982518903" cy="473.7292800925353" r="2.5" fill="grey" stroke="none" />
<circle cx="594.9450631645917" cy="446.46151928261935" r="5" fill="black" stroke="none" />
<circle cx="618.9450631645917" cy="470.46151928261935" r="5" fill="black" stroke="none" />
<path d="M546.9450631645917,502.46151928261935 A47.00955256866643,47.00955256866643,0,0,0,546.9937619564867,501.21834719324147" stroke="grey" stroke-width="5" fill="none" />
<path d="M546.9937619564867,501.21834719324147 L594.9450631645917,502.46151928261935" stroke="grey" stroke-width="5" />
<circle cx="546.9937619564867" cy="501.21834719324147" r="2.5" fill="grey" stroke="none" />
<circle cx="546.9450631645917" cy="502.46151928261935" r="5" fill="black" stroke="none" />
<circle cx="594.9450631645917" cy="502.46151928261935" r="5" fill="black" stroke="none" />
<path d="M642.9450631645917,446.46151928261935 L633.8837632135768,449.85532821845663" stroke="grey" stroke-width="5" />
<circle cx="633.8837632135768" cy="449.85532821845663" r="2.5" fill="grey" stroke="none" />
<path d="M633.8837632135768,449.85532821845663 A142.96625532029515,142.96625532029515,0,0,1,642.9450631645917,502.46151928261935" stroke="grey" stroke-width="5" fill="none" />
<circle cx="642.9450631645917" cy="446.46151928261935" r="5" fill="black" stroke="none" />
<circle cx="642.9450631645917" cy="502.46151928261935" r="5" fill="black" stroke="none" />
<path d="M618.9450631645917,470.46151928261935 A122.55794504771929,122.55794504771929,0,0,1,622.5397780540583,502.11013951716996" stroke="grey" stroke-width="5" fill="none" />
<path d="M622.5397780540583,502.11013951716996 L642.9450631645917,502.46151928261935" stroke="grey" stroke-width="5" />
<circle cx="622.5397780540583" cy="502.11013951716996" r="2.5" fill="grey" stroke="none" />
<circle cx="618.9450631645917" cy="470.46151928261935" r="5" fill="black" stroke="none" />
<circle cx="642.9450631645917" cy="502.46151928261935" r="5" fill="black" stroke="none" />
<path d="M594.9450631645917,502.46151928261935 A94.97696613656923,94.97696613656923,0,0,0,594.9628875230524,501.6352644407317" stroke="grey" stroke-width="5" fill="none" />
<path d="M594.9628875230524,501.6352644407317 L642.9450631645917,502.46151928261935" stroke="grey" stroke-width="5" />
<circle cx="594.9628875230524" cy="501.6352644407317" r="2.5" fill="grey" stroke="none" />
<circle cx="594.9450631645917" cy="502.46151928261935" r="5" fill="black" stroke="none" />
<circle cx="642.9450631645917" cy="502.46151928261935" r="5" fill="black" stroke="none" />
<path d="M594.9450631645917,550.4615192826194 A107.52176499499288,107.52176499499288,0,0,0,607.5058268424534,501.8512543204233" stroke="grey" stroke-width="5" fill="none" />
<path d="M607.5058268424534,501.8512543204233 L642.9450631645917,502.46151928261935" stroke="grey" stroke-width="5" />
<circle cx="607.5058268424534" cy="501.8512543204233" r="2.5" fill="grey" stroke="none" />
<circle cx="594.9450631645917" cy="550.4615192826193" r="5" fill="black" stroke="none" />
<circle cx="642.9450631645917" cy="502.46151928261935" r="5" fill="black" stroke="none" />
<path d="M642.9450631645917,502.46151928261935 A142.96625532029515,142.96625532029515,0,0,1,626.7948002073593,566.0486850791418" stroke="grey" stroke-width="5" fill="none" />
<path d="M626.7948002073593,566.0486850791418 L642.9450631645917,574.4615192826193" stroke="grey" stroke-width="5" />
<circle cx="626.7948002073593" cy="566.0486850791418" r="2.5" fill="grey" stroke="none" />
<circle cx="642.9450631645917" cy="502.46151928261935" r="5" fill="black" stroke="none" />
<circle cx="642.9450631645917" cy="574.4615192826193" r="5" fill="black" stroke="none" />
<path d="M642.9450631645917,574.4615192826193 L626.5130668373768,565.9019273367121" stroke="grey" stroke-width="5" />
<circle cx="626.5130668373768" cy="565.9019273367121" r="2.5" fill="grey" stroke="none" />
<path d="M626.5130668373768,565.9019273367121 A142.64858957344038,142.64858957344038,0,0,1,594.9450631645917,606.4615192826194" stroke="grey" stroke-width="5" fill="none" />
<circle cx="642.9450631645917" cy="574.4615192826193" r="5" fill="black" stroke="none" />
<circle cx="594.9450631645917" cy="606.4615192826193" r="5" fill="black" stroke="none" />
<path d="M642.9450631645917,446.46151928261935 A152.6422615157888,152.6422615157888,0,0,0,628.6858798040676,417.9049067257518" stroke="grey" stroke-width="5" fill="none" />
<path d="M628.6858798040676,417.9049067257518 L746.9450631645917,342.46151928261935" stroke="grey" stroke-width="5" />
<circle cx="628.6858798040676" cy="417.9049067257518" r="2.5" fill="grey" stroke="none" />
<circle cx="642.9450631645917" cy="446.46151928261935" r="5" fill="black" stroke="none" />
<circle cx="746.9450631645917" cy="342.46151928261935" r="5" fill="black" stroke="none" />
<path d="M642.9450631645917,446.46151928261935 A152.6422615157888,152.6422615157888,0,0,1,651.7431610396217,483.4569326194351" stroke="grey" stroke-width="5" fill="none" />
<path d="M651.7431610396217,483.4569326194351 L770.9450631645917,470.46151928261935" stroke="grey" stroke-width="5" />
<circle cx="651.7431610396217" cy="483.4569326194351" r="2.5" fill="grey" stroke="none" />
<circle cx="642.9450631645917" cy="446.46151928261935" r="5" fill="black" stroke="none" />
<circle cx="770.9450631645917" cy="470.46151928261935" r="5" fill="black" stroke="none" />
<path d="M770.9450631645917,470.46151928261935 A272.55045238699506,272.55045238699506,0,0,1,771.6322503142674,477.6467075006196" stroke="grey" stroke-width="5" fill="none" />
<path d="M771.6322503142674,477.6467075006196 L858.9450631645917,470.46151928261935" stroke="grey" stroke-width="5" />
<circle cx="771.6322503142674" cy="477.6467075006196" r="2.5" fill="grey" stroke="none" />
<circle cx="770.9450631645917" cy="470.46151928261935" r="5" fill="black" stroke="none" />
<circle cx="858.9450631645917" cy="470.46151928261935" r="5" fill="black" stroke="none" />
<path d="M642.9450631645917,502.46151928261935 A142.96625532029515,142.96625532029515,0,0,1,627.1299934405565,565.4011844549613" stroke="grey" stroke-width="5" fill="none" />
<path d="M627.1299934405565,565.4011844549614 L706.9450631645917,606.4615192826193" stroke="grey" stroke-width="5" />
<circle cx="627.1299934405565" cy="565.4011844549614" r="2.5" fill="grey" stroke="none" />
<circle cx="642.9450631645917" cy="502.46151928261935" r="5" fill="black" stroke="none" />
<circle cx="706.9450631645917" cy="606.4615192826193" r="5" fill="black" stroke="none" />
<circle cx="500" cy="500" r="5" fill="red" stroke="none" />
</svg>