<?xml version="1.0" encoding="UTF-8"?>
<svg xmlns="http://www.w3.org/2000/svg" xmlns:xlink="http://www.w3.org/1999/xlink"
     width="1000" height="1000" viewBox="0 0 1000 1000">
<defs>
</defs>
<rect x="0" y="0" width="1000" height="1000" fill="white" />
<path d="M266.668324058437,821.3316759415629 L343.3428852381147,715.739646284517" stroke="grey" stroke-width="5" />
<circle cx="343.3428852381147" cy="715.739646284517" r="2.5" fill="grey" stroke="none" />
<path d="M343.3428852381147,715.739646284517 A266.61779120022544,266.61779120022544,0,0,0,386.668324058437,741.3316759415629" stroke="grey" stroke-width="5" fill="none" />
<circle cx="266.668324058437" cy="821.3316759415629" r="5" fill="black" stroke="none" />
<circle cx="386.668324058437" cy="741.3316759415629" r="5" fill="black" stroke="none" />
<path d="M386.668324058437,741.3316759415629 L407.65871554434165,696.6341426713864" stroke="grey" stroke-width="5" />
<circle cx="407.65871554434165" cy="696.6341426713864" r="2.5" fill="grey" stroke="none" />
<path d="M407.65871554434165,696.6341426713864 A217.23696480809144,217.23696480809144,0,0,1,386.668324058437,685.3316759415629" stroke="grey" stroke-width="5" fill="none" />
<circle cx="386.668324058437" cy="741.3316759415629" r="5" fill="black" stroke="none" />
<circle cx="386.668324058437" cy="685.3316759415629" r="5" fill="black" stroke="none" />
<path d="M386.668324058437,685.3316759415629 A217.23696480809144,217.23696480809144,0,0,1,334.7039244844241,640.9578174425986" stroke="grey" stroke-width="5" fill="none" />
<path d="M334.7039244844241,640.9578174425986 L-217.331675941563,185.331675941563" stroke="grey" stroke-width="5" />
<circle cx="334.7039244844241" cy="640.9578174425986" r="2.5" fill="grey" stroke="none" />
<circle cx="386.668324058437" cy="685.3316759415629" r="5" fill="black" stroke="none" />
<circle cx="282.668324058437" cy="685.3316759415629" r="5" fill="black" stroke="none" />
<path d="M282.668324058437,685.3316759415629 L351.55314710323233,626.5894808771739" stroke="grey" stroke-width="5" />
<circle cx="351.55314710323233" cy="626.5894808771739" r="2.5" fill="grey" stroke="none" />
<path d="M351.55314710323233,626.5894808771739 A195.09322080407338,195.09322080407338,0,0,1,322.66832405843695,581.3316759415629" stroke="grey" stroke-width="5" fill="none" />
<circle cx="282.668324058437" cy="685.3316759415629" r="5" fill="black" stroke="none" />
<circle cx="322.668324058437" cy="581.3316759415629" r="5" fill="black" stroke="none" />
<path d="M322.668324058437,581.3316759415629 L440.30767652451715,527.3773801737867" stroke="grey" stroke-width="5" />
<circle cx="440.30767652451715" cy="527.3773801737867" r="2.5" fill="grey" stroke="none" />
<path d="M440.30767652451715,527.3773801737867 A65.67110800863443,65.67110800863443,0,0,1,434.668324058437,493.331675941563" stroke="grey" stroke-width="5" fill="none" />
<circle cx="322.668324058437" cy="581.3316759415629" r="5" fill="black" stroke="none" />
<circle cx="434.668324058437" cy="493.331675941563" r="5" fill="black" stroke="none" />
<path d="M434.668324058437,493.331675941563 L475.61599641729424,497.51115465219334" stroke="grey" stroke-width="5" />
<circle cx="475.61599641729424" cy="497.51115465219334" r="2.5" fill="grey" stroke="none" />
<path d="M475.61599641729424,497.51115465219334 A24.510691175213864,24.510691175213864,0,0,0,482.668324058437,517.3316759415629" stroke="grey" stroke-width="5" fill="none" />
<circle cx="434.668324058437" cy="493.331675941563" r="5" fill="black" stroke="none" />
<circle cx="482.668324058437" cy="517.3316759415629" r="5" fill="black" stroke="none" />
<path d="M482.668324058437,517.3316759415629 A24.510691175213864,24.510691175213864,0,0,1,477.1470602496656,508.86098903364035" stroke="grey" stroke-width="5" fill="none" />
<path d="M477.1470602496656,508.86098903364035 L-65.33167594156299,25.33167594156299" stroke="grey" stroke-width="5" />
<circle cx="477.1470602496656" cy="508.86098903364035" r="2.5" fill="grey" stroke="none" />
<circle cx="482.668324058437" cy="517.3316759415629" r="5" fill="black" stroke="none" />
<circle cx="434.668324058437" cy="525.3316759415629" r="5" fill="black" stroke="none" />
<path d="M434.668324058437,493.331675941563 A65.67110800863443,65.67110800863443,0,0,0,438.7704792194246,523.7411080630794" stroke="grey" stroke-width="5" fill="none" />
<path d="M438.7704792194246,523.7411080630794 L-65.33167594156299,25.33167594156299" stroke="grey" stroke-width="5" />
<circle cx="438.7704792194246" cy="523.7411080630794" r="2.5" fill="grey" stroke="none" />
<circle cx="434.668324058437" cy="493.331675941563" r="5" fill="black" stroke="none" />
<circle cx="434.668324058437" cy="525.3316759415629" r="5" fill="black" stroke="none" />
<path d="M434.668324058437,525.331675941563 A70.07083335698071,70.07083335698071,0,0,0,455.40037912889045,554.0443845879944" stroke="grey" stroke-width="5" fill="none" />
<path d="M455.40037912889045,554.0443845879944 L-113.33167594156299,137.331675941563" stroke="grey" stroke-width="5" />
<circle cx="455.40037912889045" cy="554.0443845879944" r="2.5" fill="grey" stroke="none" />
<circle cx="434.668324058437" cy="525.3316759415629" r="5" fill="black" stroke="none" />
<circle cx="386.668324058437" cy="637.3316759415629" r="5" fill="black" stroke="none" />
<path d="M322.668324058437,581.3316759415629 L338.15415038084456,574.2292324471676" stroke="grey" stroke-width="5" />
<circle cx="338.15415038084456" cy="574.2292324471676" r="2.5" fill="grey" stroke="none" />
<path d="M338.1541503808445,574.2292324471675 A178.0563337504227,178.0563337504227,0,0,0,386.66832405843707,637.3316759415629" stroke="grey" stroke-width="5" fill="none" />
<circle cx="322.668324058437" cy="581.3316759415629" r="5" fill="black" stroke="none" />
<circle cx="386.668324058437" cy="637.3316759415629" r="5" fill="black" stroke="none" />
<path d="M386.66832405843707,637.3316759415629 A178.0563337504227,178.0563337504227,0,0,0,407.1087062288302,651.9054493102869" stroke="grey" stroke-width="5" fill="none" />
<path d="M407.1087062288302,651.9054493102869 L-113.33167594156299,185.331675941563" stroke="grey" stroke-width="5" />
<circle cx="407.1087062288302" cy="651.9054493102869" r="2.5" fill="grey" stroke="none" />
<circle cx="386.668324058437" cy="637.3316759415629" r="5" fill="black" stroke="none" />
<circle cx="386.668324058437" cy="685.3316759415629" r="5" fill="black" stroke="none" />
<path d="M482.668324058437,517.3316759415629 L522.6683240584371,477.331675941563" stroke="grey" stroke-width="5" />
<circle cx="482.668324058437" cy="517.3316759415629" r="5" fill="black" stroke="none" />
<circle cx="522.6683240584371" cy="477.331675941563" r="5" fill="black" stroke="none" />
<path d="M482.668324058437,517.3316759415629 A24.510691175213864,24.510691175213864,0,0,0,508.64803078223156,522.9343747566024" stroke="grey" stroke-width="5" fill="none" />
<path d="M508.64803078223156,522.9343747566024 L30.66832405843701,81.33167594156299" stroke="grey" stroke-width="5" />
<circle cx="508.64803078223156" cy="522.9343747566024" r="2.5" fill="grey" stroke="none" />
<circle cx="482.668324058437" cy="517.3316759415629" r="5" fill="black" stroke="none" />
<circle cx="530.6683240584371" cy="581.3316759415629" r="5" fill="black" stroke="none" />
<path d="M434.668324058437,525.331675941563 A70.07083335698071,70.07083335698071,0,0,0,485.3959074934958,568.5320521318546" stroke="grey" stroke-width="5" fill="none" />
<path d="M485.3959074934958,568.5320521318546 L-17.33167594156299,81.33167594156299" stroke="grey" stroke-width="5" />
<circle cx="485.3959074934958" cy="568.5320521318546" r="2.5" fill="grey" stroke="none" />
<circle cx="434.668324058437" cy="525.3316759415629" r="5" fill="black" stroke="none" />
<circle cx="482.668324058437" cy="581.3316759415629" r="5" fill="black" stroke="none" />
<path d="M386.668324058437,637.3316759415629 L403.2023169988695,617.2963156448851" stroke="grey" stroke-width="5" />
<circle cx="403.2023169988695" cy="617.2963156448851" r="2.5" fill="grey" stroke="none" />
<path d="M403.2023169988695,617.2963156448851 A152.0796406434861,152.0796406434861,0,0,0,434.66832405843695,637.3316759415629" stroke="grey" stroke-width="5" fill="none" />
<circle cx="386.668324058437" cy="637.3316759415629" r="5" fill="black" stroke="none" />
<circle cx="434.668324058437" cy="637.3316759415629" r="5" fill="black" stroke="none" />
<path d="M386.668324058437,685.3316759415629 L402.8913244673628,658.8021480791392" stroke="grey" stroke-width="5" />
<circle cx="402.8913244673628" cy="658.8021480791392" r="2.5" fill="grey" stroke="none" />
<path d="M402.8913244673628,658.8021480791392 A186.1403156176863,186.1403156176863,0,0,0,482.668324058437,685.3316759415629" stroke="grey" stroke-width="5" fill="none" />
<circle cx="386.668324058437" cy="685.3316759415629" r="5" fill="black" stroke="none" />
<circle cx="482.668324058437" cy="685.3316759415629" r="5" fill="black" stroke="none" />
<path d="M386.668324058437,741.3316759415629 L397.15253146790934,719.0063081745536" stroke="grey" stroke-width="5" />
<circle cx="397.15253146790934" cy="719.0063081745536" r="2.5" fill="grey" stroke="none" />
<path d="M397.15253146790934,719.0063081745536 A241.95322854573965,241.95322854573965,0,0,0,482.66832405843707,741.3316759415629" stroke="grey" stroke-width="5" fill="none" />
<circle cx="386.668324058437" cy="741.3316759415629" r="5" fill="black" stroke="none" />
<circle cx="482.668324058437" cy="741.3316759415629" r="5" fill="black" stroke="none" />
<path d="M530.6683240584371,581.3316759415629 L529.340326092929,577.8098564911114" stroke="grey" stroke-width="5" />
<circle cx="529.340326092929" cy="577.8098564911114" r="2.5" fill="grey" stroke="none" />
<path d="M529.340326092929,577.8098564911114 A83.1578529208563,83.1578529208563,0,0,1,482.668324058437,581.3316759415629" stroke="grey" stroke-width="5" fill="none" />
<circle cx="530.6683240584371" cy="581.3316759415629" r="5" fill="black" stroke="none" />
<circle cx="482.668324058437" cy="581.3316759415629" r="5" fill="black" stroke="none" />
<path d="M482.668324058437,581.3316759415629 A83.1578529208563,83.1578529208563,0,0,1,464.2763365560711,575.0935974138386" stroke="grey" stroke-width="5" fill="none" />
<path d="M464.2763365560711,575.0935974138386 L-65.33167594156299,137.331675941563" stroke="grey" stroke-width="5" />
<circle cx="464.2763365560711" cy="575.0935974138386" r="2.5" fill="grey" stroke="none" />
<circle cx="482.668324058437" cy="581.3316759415629" r="5" fill="black" stroke="none" />
<circle cx="434.668324058437" cy="637.3316759415629" r="5" fill="black" stroke="none" />
<path d="M434.66832405843695,637.3316759415629 A152.0796406434861,152.0796406434861,0,0,0,485.8397411641016,651.418968983256" stroke="grey" stroke-width="5" fill="none" />
<path d="M485.8397411641016,651.418968983256 L-17.33167594156299,185.331675941563" stroke="grey" stroke-width="5" />
<circle cx="485.8397411641016" cy="651.418968983256" r="2.5" fill="grey" stroke="none" />
<circle cx="434.668324058437" cy="637.3316759415629" r="5" fill="black" stroke="none" />
<circle cx="482.668324058437" cy="685.3316759415629" r="5" fill="black" stroke="none" />
<path d="M482.668324058437,685.3316759415629 A186.1403156176863,186.1403156176863,0,0,0,486.6663336160604,685.662140564558" stroke="grey" stroke-width="5" fill="none" />
<path d="M486.66633361606034,685.662140564558 L-17.33167594156299,241.331675941563" stroke="grey" stroke-width="5" />
<circle cx="486.66633361606034" cy="685.662140564558" r="2.5" fill="grey" stroke="none" />
<circle cx="482.668324058437" cy="685.3316759415629" r="5" fill="black" stroke="none" />
<circle cx="482.668324058437" cy="741.3316759415629" r="5" fill="black" stroke="none" />
<path d="M482.66832405843707,741.3316759415629 A241.95322854573965,241.95322854573965,0,0,0,540.5805276952937,738.5258593437584" stroke="grey" stroke-width="5" fill="none" />
<path d="M540.5805276952938,738.5258593437584 L54.66832405843701,321.331675941563" stroke="grey" stroke-width="5" />
<circle cx="540.5805276952938" cy="738.5258593437584" r="2.5" fill="grey" stroke="none" />
<circle cx="482.668324058437" cy="741.3316759415629" r="5" fill="black" stroke="none" />
<circle cx="554.6683240584371" cy="821.3316759415629" r="5" fill="black" stroke="none" />
<path d="M530.6683240584371,581.3316759415629 A86.92173267955904,86.92173267955904,0,0,1,505.49183544041654,586.7480683099751" stroke="grey" stroke-width="5" fill="none" />
<path d="M505.49183544041654,586.7480683099751 L6.668324058437008,105.33167594156299" stroke="grey" stroke-width="5" />
<circle cx="505.49183544041654" cy="586.7480683099751" r="2.5" fill="grey" stroke="none" />
<circle cx="530.6683240584371" cy="581.3316759415629" r="5" fill="black" stroke="none" />
<circle cx="506.668324058437" cy="605.3316759415629" r="5" fill="black" stroke="none" />
<path d="M506.668324058437,605.331675941563 A105.54254356612205,105.54254356612205,0,0,1,486.78503246245805,604.7119531638508" stroke="grey" stroke-width="5" fill="none" />
<path d="M486.78503246245805,604.7119531638508 L-17.33167594156299,137.331675941563" stroke="grey" stroke-width="5" />
<circle cx="486.78503246245805" cy="604.7119531638508" r="2.5" fill="grey" stroke="none" />
<circle cx="506.668324058437" cy="605.3316759415629" r="5" fill="black" stroke="none" />
<circle cx="482.668324058437" cy="637.3316759415629" r="5" fill="black" stroke="none" />
<path d="M482.668324058437,637.3316759415629 A138.42101071680491,138.42101071680491,0,0,0,487.11150728800345,637.8196755310164" stroke="grey" stroke-width="5" fill="none" />
<path d="M487.11150728800345,637.8196755310164 L-17.33167594156299,185.331675941563" stroke="grey" stroke-width="5" />
<circle cx="487.11150728800345" cy="637.8196755310164" r="2.5" fill="grey" stroke="none" />
<circle cx="482.668324058437" cy="637.3316759415629" r="5" fill="black" stroke="none" />
<circle cx="482.668324058437" cy="685.3316759415629" r="5" fill="black" stroke="none" />
<path d="M482.668324058437,581.3316759415629 A83.1578529208563,83.1578529208563,0,0,0,505.25402830501906,582.9917085555951" stroke="grey" stroke-width="5" fill="none" />
<path d="M505.25402830501906,582.9917085555951 L6.668324058437008,105.33167594156299" stroke="grey" stroke-width="5" />
<circle cx="505.25402830501906" cy="582.9917085555951" r="2.5" fill="grey" stroke="none" />
<circle cx="482.668324058437" cy="581.3316759415629" r="5" fill="black" stroke="none" />
<circle cx="506.668324058437" cy="605.3316759415629" r="5" fill="black" stroke="none" />
<path d="M434.668324058437,637.3316759415629 L440.53591540991545,624.9975953837716" stroke="grey" stroke-width="5" />
<circle cx="440.53591540991545" cy="624.9975953837716" r="2.5" fill="grey" stroke="none" />
<path d="M440.53591540991545,624.9975953837716 A138.42101071680491,138.42101071680491,0,0,0,482.668324058437,637.3316759415629" stroke="grey" stroke-width="5" fill="none" />
<circle cx="434.668324058437" cy="637.3316759415629" r="5" fill="black" stroke="none" />
<circle cx="482.668324058437" cy="637.3316759415629" r="5" fill="black" stroke="none" />
<path d="M530.6683240584371,581.3316759415629 A86.92173267955904,86.92173267955904,0,0,1,518.944360634735,584.8321802864799" stroke="grey" stroke-width="5" fill="none" />
<path d="M518.944360634735,584.8321802864799 L30.66832405843701,137.331675941563" stroke="grey" stroke-width="5" />
<circle cx="518.944360634735" cy="584.8321802864799" r="2.5" fill="grey" stroke="none" />
<circle cx="530.6683240584371" cy="581.3316759415629" r="5" fill="black" stroke="none" />
<circle cx="530.6683240584371" cy="637.3316759415629" r="5" fill="black" stroke="none" />
<path d="M506.668324058437,605.331675941563 A105.54254356612205,105.54254356612205,0,0,0,523.0027168808847,603.00535674665" stroke="grey" stroke-width="5" fill="none" />
<path d="M523.0027168808847,603.00535674665 L30.66832405843701,137.331675941563" stroke="grey" stroke-width="5" />
<circle cx="523.0027168808847" cy="603.00535674665" r="2.5" fill="grey" stroke="none" />
<circle cx="506.668324058437" cy="605.3316759415629" r="5" fill="black" stroke="none" />
<circle cx="530.6683240584371" cy="637.3316759415629" r="5" fill="black" stroke="none" />
<path d="M482.668324058437,637.3316759415629 A138.42101071680491,138.42101071680491,0,0,0,530.1684914187213,635.0934429695992" stroke="grey" stroke-width="5" fill="none" />
<path d="M530.1684914187213,635.0934429695992 L30.66832405843701,137.331675941563" stroke="grey" stroke-width="5" />
<circle cx="530.1684914187213" cy="635.0934429695992" r="2.5" fill="grey" stroke="none" />
<circle cx="482.668324058437" cy="637.3316759415629" r="5" fill="black" stroke="none" />
<circle cx="530.6683240584371" cy="637.3316759415629" r="5" fill="black" stroke="none" />
<path d="M482.668324058437,685.3316759415629 L486.8979702819669,640.1030768211018" stroke="grey" stroke-width="5" />
<circle cx="486.8979702819669" cy="640.1030768211018" r="2.5" fill="grey" stroke="none" />
<path d="M486.8979702819669,640.1030768211018 A140.7143749496539,140.7143749496539,0,0,0,530.668324058437,637.331675941563" stroke="grey" stroke-width="5" fill="none" />
<circle cx="482.668324058437" cy="685.3316759415629" r="5" fill="black" stroke="none" />
<circle cx="530.6683240584371" cy="637.3316759415629" r="5" fill="black" stroke="none" />
<path d="M530.668324058437,637.331675941563 A140.7143749496539,140.7143749496539,0,0,1,520.3977390445854,639.228113394317" stroke="grey" stroke-width="5" fill="none" />
<path d="M520.3977390445855,639.228113394317 L30.66832405843701,209.331675941563" stroke="grey" stroke-width="5" />
<circle cx="520.3977390445855" cy="639.228113394317" r="2.5" fill="grey" stroke="none" />
<circle cx="530.6683240584371" cy="637.3316759415629" r="5" fill="black" stroke="none" />
<circle cx="530.6683240584371" cy="709.3316759415629" r="5" fill="black" stroke="none" />
<path d="M530.668324058437,709.331675941563 A211.566293754598,211.566293754598,0,0,1,484.8450113042446,711.0228020160106" stroke="grey" stroke-width="5" fill="none" />
<path d="M484.84501130424457,711.0228020160106 L-17.33167594156299,241.331675941563" stroke="grey" stroke-width="5" />
<circle cx="484.84501130424457" cy="711.0228020160106" r="2.5" fill="grey" stroke="none" />
<circle cx="530.6683240584371" cy="709.3316759415629" r="5" fill="black" stroke="none" />
<circle cx="482.668324058437" cy="741.3316759415629" r="5" fill="black" stroke="none" />
<path d="M530.6683240584371,581.3316759415629 A86.92173267955904,86.92173267955904,0,0,0,585.7158777808454,485.5716976648017" stroke="grey" stroke-width="5" fill="none" />
<path d="M585.7158777808454,485.5716976648017 L134.668324058437,-22.66832405843701" stroke="grey" stroke-width="5" />
<circle cx="585.7158777808454" cy="485.5716976648017" r="2.5" fill="grey" stroke="none" />
<circle cx="530.6683240584371" cy="581.3316759415629" r="5" fill="black" stroke="none" />
<circle cx="634.6683240584371" cy="477.331675941563" r="5" fill="black" stroke="none" />
<path d="M530.6683240584371,581.3316759415629 A86.92173267955904,86.92173267955904,0,0,0,572.4173190286242,548.074104429757" stroke="grey" stroke-width="5" fill="none" />
<path d="M572.4173190286242,548.074104429757 L158.668324058437,105.33167594156299" stroke="grey" stroke-width="5" />
<circle cx="572.4173190286242" cy="548.074104429757" r="2.5" fill="grey" stroke="none" />
<circle cx="530.6683240584371" cy="581.3316759415629" r="5" fill="black" stroke="none" />
<circle cx="658.6683240584371" cy="605.3316759415629" r="5" fill="black" stroke="none" />
<path d="M658.6683240584371,605.3316759415629 A190.44789055322093,190.44789055322093,0,0,0,675.1476281318598,574.791091554779" stroke="grey" stroke-width="5" fill="none" />
<path d="M675.1476281318598,574.791091554779 L246.668324058437,105.33167594156299" stroke="grey" stroke-width="5" />
<circle cx="675.1476281318598" cy="574.791091554779" r="2.5" fill="grey" stroke="none" />
<circle cx="658.6683240584371" cy="605.3316759415629" r="5" fill="black" stroke="none" />
<circle cx="746.6683240584371" cy="605.3316759415629" r="5" fill="black" stroke="none" />
<path d="M530.668324058437,637.331675941563 A140.7143749496539,140.7143749496539,0,0,0,551.3864481381288,630.9960620217996" stroke="grey" stroke-width="5" fill="none" />
<path d="M551.3864481381288,630.9960620217996 L94.66832405843701,241.331675941563" stroke="grey" stroke-width="5" />
<circle cx="551.3864481381288" cy="630.9960620217996" r="2.5" fill="grey" stroke="none" />
<circle cx="530.6683240584371" cy="637.3316759415629" r="5" fill="black" stroke="none" />
<circle cx="594.6683240584371" cy="741.3316759415629" r="5" fill="black" stroke="none" />
<circle cx="500" cy="500" r="5" fill="red" stroke="none" />
</svg>