<?xml version="1.0" encoding="UTF-8"?>
<svg xmlns="http://www.w3.org/2000/svg" xmlns:xlink="http://www.w3.org/1999/xlink"
     width="1000" height="1000" viewBox="0 0 1000 1000">
<defs>
</defs>
<rect x="0" y="0" width="1000" height="1000" fill="white" />
<path d="M379.9164636496544,684.1949181508063 L443.0961459113214,587.2842444925167" stroke="grey" stroke-width="5" />
<circle cx="443.0961459113214" cy="587.2842444925167" r="2.5" fill="grey" stroke="none" />
<path d="M443.0961459113214,587.2842444925167 A104.19495163766359,104.19495163766359,0,0,0,499.9164636496544,604.1949181508063" stroke="grey" stroke-width="5" fill="none" />
<circle cx="379.9164636496544" cy="684.1949181508063" r="5" fill="black" stroke="none" />
<circle cx="499.9164636496544" cy="604.1949181508063" r="5" fill="black" stroke="none" />
<path d="M499.9164636496544,604.1949181508063 L499.96136056927895,548.1949750583932" stroke="grey" stroke-width="5" />
<circle cx="499.96136056927895" cy="548.1949750583932" r="2.5" fill="grey" stroke="none" />
<path d="M499.96136056927895,548.1949750583932 A48.194990547615504,48.194990547615504,0,0,1,499.9164636496544,548.1949181508063" stroke="grey" stroke-width="5" fill="none" />
<circle cx="499.9164636496544" cy="604.1949181508063" r="5" fill="black" stroke="none" />
<circle cx="499.9164636496544" cy="548.1949181508063" r="5" fill="black" stroke="none" />
<path d="M499.9164636496544,548.1949181508063 A48.194990547615504,48.194990547615504,0,0,1,456.26593797012646,520.2506526376786" stroke="grey" stroke-width="5" fill="none" />
<path d="M456.26593797012646,520.2506526376786 L-104.08353635034558,48.1949181508063" stroke="grey" stroke-width="5" />
<circle cx="456.26593797012646" cy="520.2506526376786" r="2.5" fill="grey" stroke="none" />
<circle cx="499.9164636496544" cy="548.1949181508063" r="5" fill="black" stroke="none" />
<circle cx="395.9164636496544" cy="548.1949181508063" r="5" fill="black" stroke="none" />
<path d="M395.9164636496544,548.1949181508063 L422.88945250127927,535.7053253144235" stroke="grey" stroke-width="5" />
<circle cx="422.88945250127927" cy="535.7053253144235" r="2.5" fill="grey" stroke="none" />
<path d="M422.88945250127927,535.7053253144235 A84.97591889094976,84.97591889094976,0,0,1,435.9164636496544,444.1949181508063" stroke="grey" stroke-width="5" fill="none" />
<circle cx="395.9164636496544" cy="548.1949181508063" r="5" fill="black" stroke="none" />
<circle cx="435.9164636496544" cy="444.1949181508063" r="5" fill="black" stroke="none" />
<path d="M435.9164636496544,444.1949181508063 A84.97591889094976,84.97591889094976,0,0,1,526.8623785765167,419.3816434763573" stroke="grey" stroke-width="5" fill="none" />
<path d="M526.8623785765167,419.3816434763573 L47.91646364965442,-143.8050818491937" stroke="grey" stroke-width="5" />
<circle cx="526.8623785765167" cy="419.3816434763573" r="2.5" fill="grey" stroke="none" />
<circle cx="435.9164636496544" cy="444.1949181508063" r="5" fill="black" stroke="none" />
<circle cx="547.9164636496544" cy="356.1949181508063" r="5" fill="black" stroke="none" />
<path d="M547.9164636496545,356.1949181508063 A151.57799660353726,151.57799660353726,0,0,1,594.733618197213,381.6723589451449" stroke="grey" stroke-width="5" fill="none" />
<path d="M594.733618197213,381.6723589451449 L95.91646364965442,-119.8050818491937" stroke="grey" stroke-width="5" />
<circle cx="594.733618197213" cy="381.6723589451449" r="2.5" fill="grey" stroke="none" />
<circle cx="547.9164636496544" cy="356.1949181508063" r="5" fill="black" stroke="none" />
<circle cx="595.9164636496544" cy="380.1949181508063" r="5" fill="black" stroke="none" />
<path d="M595.9164636496544,380.1949181508063 L576.0230803646176,405.0428777401693" stroke="grey" stroke-width="5" />
<circle cx="576.0230803646176" cy="405.0428777401693" r="2.5" fill="grey" stroke="none" />
<path d="M576.0230803646176,405.0428777401693 A121.64030506371462,121.64030506371462,0,0,0,547.9164636496544,388.1949181508063" stroke="grey" stroke-width="5" fill="none" />
<circle cx="595.9164636496544" cy="380.1949181508063" r="5" fill="black" stroke="none" />
<circle cx="547.9164636496544" cy="388.1949181508063" r="5" fill="black" stroke="none" />
<path d="M547.9164636496544,356.1949181508063 L538.4526341983751,384.5974058385189" stroke="grey" stroke-width="5" />
<circle cx="538.4526341983751" cy="384.5974058385189" r="2.5" fill="grey" stroke="none" />
<path d="M538.4526341983751,384.5974058385189 A121.64030506371462,121.64030506371462,0,0,1,547.9164636496544,388.1949181508063" stroke="grey" stroke-width="5" fill="none" />
<circle cx="547.9164636496544" cy="356.1949181508063" r="5" fill="black" stroke="none" />
<circle cx="547.9164636496544" cy="388.1949181508063" r="5" fill="black" stroke="none" />
<path d="M547.9164636496544,388.1949181508063 L499.9164636496544,500.1949181508063" stroke="grey" stroke-width="5" />
<circle cx="547.9164636496544" cy="388.1949181508063" r="5" fill="black" stroke="none" />
<circle cx="499.9164636496544" cy="500.1949181508063" r="5" fill="black" stroke="none" />
<path d="M435.9164636496544,444.1949181508063 L499.8400740867588,499.8607336737873" stroke="grey" stroke-width="5" />
<circle cx="499.8400740867588" cy="499.8607336737873" r="2.5" fill="grey" stroke="none" />
<path d="M499.8400740867588,499.8607336737873 A0.21206463010791823,0.21206463010791823,0,0,0,499.9164636496544,500.1949181508063" stroke="grey" stroke-width="5" fill="none" />
<circle cx="435.9164636496544" cy="444.1949181508063" r="5" fill="black" stroke="none" />
<circle cx="499.9164636496544" cy="500.1949181508063" r="5" fill="black" stroke="none" />
<path d="M499.9164636496544,500.1949181508063 A0.21206463010791823,0.21206463010791823,0,0,0,499.9996324284944,500.21206431155196" stroke="grey" stroke-width="5" fill="none" />
<path d="M499.9996324284944,500.21206431155196 L-0.08353635034558238,48.1949181508063" stroke="grey" stroke-width="5" />
<circle cx="499.9996324284944" cy="500.21206431155196" r="2.5" fill="grey" stroke="none" />
<circle cx="499.9164636496544" cy="500.1949181508063" r="5" fill="black" stroke="none" />
<circle cx="499.9164636496544" cy="548.1949181508063" r="5" fill="black" stroke="none" />
<path d="M595.9164636496544,380.1949181508063 A153.47060186220511,153.47060186220511,0,0,1,599.4298752615539,383.09437335431926" stroke="grey" stroke-width="5" fill="none" />
<path d="M599.4298752615539,383.09437335431926 L135.91646364965442,-159.8050818491937" stroke="grey" stroke-width="5" />
<circle cx="599.4298752615539" cy="383.09437335431926" r="2.5" fill="grey" stroke="none" />
<circle cx="595.9164636496544" cy="380.1949181508063" r="5" fill="black" stroke="none" />
<circle cx="635.9164636496544" cy="340.1949181508063" r="5" fill="black" stroke="none" />
<path d="M595.9164636496544,380.1949181508063 A153.47060186220511,153.47060186220511,0,0,1,643.0898036354653,444.5154640326561" stroke="grey" stroke-width="5" fill="none" />
<path d="M643.0898036354653,444.5154640326561 L143.91646364965442,-55.8050818491937" stroke="grey" stroke-width="5" />
<circle cx="643.0898036354653" cy="444.5154640326561" r="2.5" fill="grey" stroke="none" />
<circle cx="595.9164636496544" cy="380.1949181508063" r="5" fill="black" stroke="none" />
<circle cx="643.9164636496544" cy="444.1949181508063" r="5" fill="black" stroke="none" />
<path d="M547.9164636496544,388.1949181508063 L543.7129303905836,398.0031624219717" stroke="grey" stroke-width="5" />
<circle cx="543.7129303905836" cy="398.0031624219717" r="2.5" fill="grey" stroke="none" />
<path d="M543.7129303905836,398.0031624219717 A110.96925321570244,110.96925321570244,0,0,1,595.9164636496544,444.1949181508063" stroke="grey" stroke-width="5" fill="none" />
<circle cx="547.9164636496544" cy="388.1949181508063" r="5" fill="black" stroke="none" />
<circle cx="595.9164636496544" cy="444.1949181508063" r="5" fill="black" stroke="none" />
<path d="M499.9164636496544,500.1949181508063 A0.21206463010791823,0.21206463010791823,0,0,0,500.21206287554924,500.00086264512043" stroke="grey" stroke-width="5" fill="none" />
<path d="M500.21206287554924,500.00086264512043 L47.91646364965442,0.19491815080630204" stroke="grey" stroke-width="5" />
<circle cx="500.21206287554924" cy="500.00086264512043" r="2.5" fill="grey" stroke="none" />
<circle cx="499.9164636496544" cy="500.1949181508063" r="5" fill="black" stroke="none" />
<circle cx="547.9164636496544" cy="500.1949181508063" r="5" fill="black" stroke="none" />
<path d="M499.9164636496544,548.1949181508063 A48.194990547615504,48.194990547615504,0,0,0,543.0643194663523,521.638426532091" stroke="grey" stroke-width="5" fill="none" />
<path d="M543.0643194663523,521.638426532091 L95.91646364965442,48.1949181508063" stroke="grey" stroke-width="5" />
<circle cx="543.0643194663523" cy="521.638426532091" r="2.5" fill="grey" stroke="none" />
<circle cx="499.9164636496544" cy="548.1949181508063" r="5" fill="black" stroke="none" />
<circle cx="595.9164636496544" cy="548.1949181508063" r="5" fill="black" stroke="none" />
<path d="M499.9164636496544,604.1949181508063 A104.19495163766359,104.19495163766359,0,0,0,570.5686373835704,576.6593462312404" stroke="grey" stroke-width="5" fill="none" />
<path d="M570.5686373835704,576.6593462312404 L95.91646364965442,104.1949181508063" stroke="grey" stroke-width="5" />
<circle cx="570.5686373835704" cy="576.6593462312404" r="2.5" fill="grey" stroke="none" />
<circle cx="499.9164636496544" cy="604.1949181508063" r="5" fill="black" stroke="none" />
<circle cx="595.9164636496544" cy="604.1949181508063" r="5" fill="black" stroke="none" />
<path d="M643.9164636496544,444.1949181508063 L603.4632591489137,459.8810622581378" stroke="grey" stroke-width="5" />
<circle cx="603.4632591489137" cy="459.8810622581378" r="2.5" fill="grey" stroke="none" />
<path d="M603.4632591489137,459.8810622581378 A110.96925321570244,110.96925321570244,0,0,0,595.9164636496544,444.1949181508063" stroke="grey" stroke-width="5" fill="none" />
<circle cx="643.9164636496544" cy="444.1949181508063" r="5" fill="black" stroke="none" />
<circle cx="595.9164636496544" cy="444.1949181508063" r="5" fill="black" stroke="none" />
<path d="M595.9164636496544,444.1949181508063 L541.417019910773,475.90319640523256" stroke="grey" stroke-width="5" />
<circle cx="541.417019910773" cy="475.90319640523256" r="2.5" fill="grey" stroke="none" />
<path d="M541.417019910773,475.90319640523256 A47.91686009928204,47.91686009928204,0,0,1,547.9164636496544,500.1949181508063" stroke="grey" stroke-width="5" fill="none" />
<circle cx="595.9164636496544" cy="444.1949181508063" r="5" fill="black" stroke="none" />
<circle cx="547.9164636496544" cy="500.1949181508063" r="5" fill="black" stroke="none" />
<path d="M547.9164636496544,500.1949181508063 A47.91686009928204,47.91686009928204,0,0,1,542.8157978182669,521.5135524486185" stroke="grey" stroke-width="5" fill="none" />
<path d="M542.8157978182669,521.5135524486185 L95.91646364965442,48.1949181508063" stroke="grey" stroke-width="5" />
<circle cx="542.8157978182669" cy="521.5135524486185" r="2.5" fill="grey" stroke="none" />
<circle cx="547.9164636496544" cy="500.1949181508063" r="5" fill="black" stroke="none" />
<circle cx="595.9164636496544" cy="548.1949181508063" r="5" fill="black" stroke="none" />
<path d="M595.9164636496544,548.1949181508063 A107.34392453519852,107.34392453519852,0,0,1,572.7013580484794,578.9761398938008" stroke="grey" stroke-width="5" fill="none" />
<path d="M572.7013580484794,578.9761398938008 L95.91646364965442,104.1949181508063" stroke="grey" stroke-width="5" />
<circle cx="572.7013580484794" cy="578.9761398938008" r="2.5" fill="grey" stroke="none" />
<circle cx="595.9164636496544" cy="548.1949181508063" r="5" fill="black" stroke="none" />
<circle cx="595.9164636496544" cy="604.1949181508063" r="5" fill="black" stroke="none" />
<path d="M595.9164636496545,604.1949181508063 A141.62114590522384,141.62114590522384,0,0,1,595.4097380198202,604.6591174169646" stroke="grey" stroke-width="5" fill="none" />
<path d="M595.4097380198202,604.6591174169646 L167.91646364965442,184.1949181508063" stroke="grey" stroke-width="5" />
<circle cx="595.4097380198202" cy="604.6591174169646" r="2.5" fill="grey" stroke="none" />
<circle cx="595.9164636496544" cy="604.1949181508063" r="5" fill="black" stroke="none" />
<circle cx="667.9164636496544" cy="684.1949181508063" r="5" fill="black" stroke="none" />
<path d="M643.9164636496544,444.1949181508063 L615.6709407918972,455.147408748321" stroke="grey" stroke-width="5" />
<circle cx="615.6709407918972" cy="455.147408748321" r="2.5" fill="grey" stroke="none" />
<path d="M615.6709407918972,455.147408748321 A124.0625708490389,124.0625708490389,0,0,1,619.9164636496544,468.1949181508063" stroke="grey" stroke-width="5" fill="none" />
<circle cx="643.9164636496544" cy="444.1949181508063" r="5" fill="black" stroke="none" />
<circle cx="619.9164636496544" cy="468.1949181508063" r="5" fill="black" stroke="none" />
<path d="M619.9164636496544,468.1949181508063 L592.7111762856587,475.41049443623336" stroke="grey" stroke-width="5" />
<circle cx="592.7111762856587" cy="475.41049443623336" r="2.5" fill="grey" stroke="none" />
<path d="M592.7111762856587,475.41049443623336 A95.9166617024435,95.9166617024435,0,0,1,595.9164636496544,500.1949181508063" stroke="grey" stroke-width="5" fill="none" />
<circle cx="619.9164636496544" cy="468.1949181508063" r="5" fill="black" stroke="none" />
<circle cx="595.9164636496544" cy="500.1949181508063" r="5" fill="black" stroke="none" />
<path d="M595.9164636496544,500.1949181508063 A95.9166617024435,95.9166617024435,0,0,1,585.7057074763641,543.064343697738" stroke="grey" stroke-width="5" fill="none" />
<path d="M585.7057074763641,543.064343697738 L95.91646364965442,48.1949181508063" stroke="grey" stroke-width="5" />
<circle cx="585.7057074763641" cy="543.064343697738" r="2.5" fill="grey" stroke="none" />
<circle cx="595.9164636496544" cy="500.1949181508063" r="5" fill="black" stroke="none" />
<circle cx="595.9164636496544" cy="548.1949181508063" r="5" fill="black" stroke="none" />
<path d="M595.9164636496544,444.1949181508063 A110.96925321570244,110.96925321570244,0,0,1,607.2607179458039,471.55156339969835" stroke="grey" stroke-width="5" fill="none" />
<path d="M607.2607179458039,471.55156339969835 L119.91646364965442,-31.805081849193698" stroke="grey" stroke-width="5" />
<circle cx="607.2607179458039" cy="471.55156339969835" r="2.5" fill="grey" stroke="none" />
<circle cx="595.9164636496544" cy="444.1949181508063" r="5" fill="black" stroke="none" />
<circle cx="619.9164636496544" cy="468.1949181508063" r="5" fill="black" stroke="none" />
<path d="M547.9164636496544,500.1949181508063 A47.91686009928204,47.91686009928204,0,0,0,547.916761158518,500.0973748001361" stroke="grey" stroke-width="5" fill="none" />
<path d="M547.916761158518,500.0973748001361 L95.91646364965442,0.19491815080630204" stroke="grey" stroke-width="5" />
<circle cx="547.916761158518" cy="500.0973748001361" r="2.5" fill="grey" stroke="none" />
<circle cx="547.9164636496544" cy="500.1949181508063" r="5" fill="black" stroke="none" />
<circle cx="595.9164636496544" cy="500.1949181508063" r="5" fill="black" stroke="none" />
<path d="M643.9164636496544,444.1949181508063 L634.1820333085464,447.9695431531496" stroke="grey" stroke-width="5" />
<circle cx="634.1820333085464" cy="447.9695431531496" r="2.5" fill="grey" stroke="none" />
<path d="M634.1820333085464,447.9695431531496 A143.91659564660296,143.91659564660296,0,0,1,643.9164636496544,500.1949181508063" stroke="grey" stroke-width="5" fill="none" />
<circle cx="643.9164636496544" cy="444.1949181508063" r="5" fill="black" stroke="none" />
<circle cx="643.9164636496544" cy="500.1949181508063" r="5" fill="black" stroke="none" />
<path d="M619.9164636496544,468.1949181508063 A124.0625708490389,124.0625708490389,0,0,1,624.0624570617393,500.16802820262336" stroke="grey" stroke-width="5" fill="none" />
<path d="M624.0624570617393,500.16802820262336 L143.91646364965442,0.19491815080630204" stroke="grey" stroke-width="5" />
<circle cx="624.0624570617393" cy="500.16802820262336" r="2.5" fill="grey" stroke="none" />
<circle cx="619.9164636496544" cy="468.1949181508063" r="5" fill="black" stroke="none" />
<circle cx="643.9164636496544" cy="500.1949181508063" r="5" fill="black" stroke="none" />
<path d="M595.9164636496544,500.1949181508063 A95.9166617024435,95.9166617024435,0,0,0,595.9165737299161,500.12990786953065" stroke="grey" stroke-width="5" fill="none" />
<path d="M595.9165737299161,500.12990786953065 L143.91646364965442,0.19491815080630204" stroke="grey" stroke-width="5" />
<circle cx="595.9165737299161" cy="500.12990786953065" r="2.5" fill="grey" stroke="none" />
<circle cx="595.9164636496544" cy="500.1949181508063" r="5" fill="black" stroke="none" />
<circle cx="643.9164636496544" cy="500.1949181508063" r="5" fill="black" stroke="none" />
<path d="M595.9164636496544,548.1949181508063 A107.34392453519852,107.34392453519852,0,0,0,607.3438260818518,500.1453847568912" stroke="grey" stroke-width="5" fill="none" />
<path d="M607.3438260818518,500.1453847568912 L143.91646364965442,0.19491815080630204" stroke="grey" stroke-width="5" />
<circle cx="607.3438260818518" cy="500.1453847568912" r="2.5" fill="grey" stroke="none" />
<circle cx="595.9164636496544" cy="548.1949181508063" r="5" fill="black" stroke="none" />
<circle cx="643.9164636496544" cy="500.1949181508063" r="5" fill="black" stroke="none" />
<path d="M643.9164636496544,500.1949181508063 A143.91659564660296,143.91659564660296,0,0,1,628.6381813077217,564.5306501776446" stroke="grey" stroke-width="5" fill="none" />
<path d="M628.6381813077217,564.5306501776446 L143.91646364965442,72.1949181508063" stroke="grey" stroke-width="5" />
<circle cx="628.6381813077217" cy="564.5306501776446" r="2.5" fill="grey" stroke="none" />
<circle cx="643.9164636496544" cy="500.1949181508063" r="5" fill="black" stroke="none" />
<circle cx="643.9164636496544" cy="572.1949181508063" r="5" fill="black" stroke="none" />
<path d="M643.9164636496544,572.1949181508063 L626.5864201561491,563.5013952567942" stroke="grey" stroke-width="5" />
<circle cx="626.5864201561491" cy="563.5013952567942" r="2.5" fill="grey" stroke="none" />
<path d="M626.5864201561491,563.5013952567942 A141.62114590522384,141.62114590522384,0,0,1,595.9164636496545,604.1949181508063" stroke="grey" stroke-width="5" fill="none" />
<circle cx="643.9164636496544" cy="572.1949181508063" r="5" fill="black" stroke="none" />
<circle cx="595.9164636496544" cy="604.1949181508063" r="5" fill="black" stroke="none" />
<path d="M643.9164636496544,444.1949181508063 A154.35723394003116,154.35723394003116,0,0,0,629.7394754405284,416.370913062296" stroke="grey" stroke-width="5" fill="none" />
<path d="M629.7394754405284,416.370913062296 L247.91646364965442,-159.8050818491937" stroke="grey" stroke-width="5" />
<circle cx="629.7394754405284" cy="416.370913062296" r="2.5" fill="grey" stroke="none" />
<circle cx="643.9164636496544" cy="444.1949181508063" r="5" fill="black" stroke="none" />
<circle cx="747.9164636496544" cy="340.1949181508063" r="5" fill="black" stroke="none" />
<path d="M643.9164636496544,444.1949181508063 A154.35723394003116,154.35723394003116,0,0,1,653.3120553811717,482.06764531864167" stroke="grey" stroke-width="5" fill="none" />
<path d="M653.3120553811717,482.06764531864167 L271.9164636496544,-31.805081849193698" stroke="grey" stroke-width="5" />
<circle cx="653.3120553811717" cy="482.06764531864167" r="2.5" fill="grey" stroke="none" />
<circle cx="643.9164636496544" cy="444.1949181508063" r="5" fill="black" stroke="none" />
<circle cx="771.9164636496544" cy="468.1949181508063" r="5" fill="black" stroke="none" />
<path d="M771.9164636496544,468.1949181508063 A273.77020735494165,273.77020735494165,0,0,1,772.707505749669,475.9013954146301" stroke="grey" stroke-width="5" fill="none" />
<path d="M772.707505749669,475.9013954146301 L359.9164636496544,-31.805081849193698" stroke="grey" stroke-width="5" />
<circle cx="772.707505749669" cy="475.9013954146301" r="2.5" fill="grey" stroke="none" />
<circle cx="771.9164636496544" cy="468.1949181508063" r="5" fill="black" stroke="none" />
<circle cx="859.9164636496544" cy="468.1949181508063" r="5" fill="black" stroke="none" />
<path d="M643.9164636496544,500.1949181508063 A143.91659564660296,143.91659564660296,0,0,1,628.6642759166989,564.4786057955612" stroke="grey" stroke-width="5" fill="none" />
<path d="M628.6642759166989,564.4786057955612 L207.91646364965442,104.1949181508063" stroke="grey" stroke-width="5" />
<circle cx="628.6642759166989" cy="564.4786057955612" r="2.5" fill="grey" stroke="none" />
<circle cx="643.9164636496544" cy="500.1949181508063" r="5" fill="black" stroke="none" />
<circle cx="707.9164636496544" cy="604.1949181508063" r="5" fill="black" stroke="none" />
<circle cx="500" cy="500" r="5" fill="red" stroke="none" />
</svg>