<?xml version="1.0" encoding="UTF-8"?>
<svg xmlns="http://www.w3.org/2000/svg" xmlns:xlink="http://www.w3.org/1999/xlink"
     width="1000" height="1000" viewBox="0 0 1000 1000">
<defs>
</defs>
<rect x="0" y="0" width="1000" height="1000" fill="white" />
<path d="M264.9246068231726,823.0753931768274 L341.7688317430186,717.4646874205132" stroke="grey" stroke-width="5" />
<circle cx="341.7688317430186" cy="717.4646874205132" r="2.5" fill="grey" stroke="none" />
<path d="M341.7688317430186,717.4646874205132 A268.9386414832771,268.9386414832771,0,0,0,384.92460682317255,743.0753931768274" stroke="grey" stroke-width="5" fill="none" />
<circle cx="264.9246068231726" cy="823.0753931768274" r="5" fill="black" stroke="none" />
<circle cx="384.9246068231726" cy="743.0753931768274" r="5" fill="black" stroke="none" />
<path d="M384.9246068231726,743.0753931768274 L406.02098704186994,698.5132085541957" stroke="grey" stroke-width="5" />
<circle cx="406.02098704186994" cy="698.5132085541957" r="2.5" fill="grey" stroke="none" />
<path d="M406.02098704186994,698.5132085541957 A219.6350355636959,219.6350355636959,0,0,1,384.9246068231726,687.0753931768274" stroke="grey" stroke-width="5" fill="none" />
<circle cx="384.9246068231726" cy="743.0753931768274" r="5" fill="black" stroke="none" />
<circle cx="384.9246068231726" cy="687.0753931768274" r="5" fill="black" stroke="none" />
<path d="M384.9246068231726,687.0753931768274 A219.6350355636959,219.6350355636959,0,0,1,332.9759092254428,642.6271430969522" stroke="grey" stroke-width="5" fill="none" />
<path d="M332.9759092254428,642.6271430969521 L-219.0753931768274,187.0753931768274" stroke="grey" stroke-width="5" />
<circle cx="332.9759092254428" cy="642.6271430969521" r="2.5" fill="grey" stroke="none" />
<circle cx="384.9246068231726" cy="687.0753931768274" r="5" fill="black" stroke="none" />
<circle cx="280.9246068231726" cy="687.0753931768274" r="5" fill="black" stroke="none" />
<path d="M280.9246068231726,687.0753931768274 L349.8794968830583,628.1926360476142" stroke="grey" stroke-width="5" />
<circle cx="349.8794968830583" cy="628.1926360476142" r="2.5" fill="grey" stroke="none" />
<path d="M349.8794968830583,628.1926360476143 A197.4069841543601,197.4069841543601,0,0,1,320.92460682317267,583.0753931768274" stroke="grey" stroke-width="5" fill="none" />
<circle cx="280.9246068231726" cy="687.0753931768274" r="5" fill="black" stroke="none" />
<circle cx="320.9246068231726" cy="583.0753931768274" r="5" fill="black" stroke="none" />
<path d="M320.9246068231726,583.0753931768274 L438.98958457569034,528.3035215466552" stroke="grey" stroke-width="5" />
<circle cx="438.98958457569034" cy="528.3035215466552" r="2.5" fill="grey" stroke="none" />
<path d="M438.98958457569034,528.3035215466552 A67.25593001504642,67.25593001504642,0,0,1,432.9246068231726,495.0753931768274" stroke="grey" stroke-width="5" fill="none" />
<circle cx="320.9246068231726" cy="583.0753931768274" r="5" fill="black" stroke="none" />
<circle cx="432.9246068231726" cy="495.0753931768274" r="5" fill="black" stroke="none" />
<path d="M432.9246068231726,495.0753931768274 L473.0957344631931,498.02471631756634" stroke="grey" stroke-width="5" />
<circle cx="473.0957344631931" cy="498.02471631756634" r="2.5" fill="grey" stroke="none" />
<path d="M473.0957344631931,498.02471631756634 A26.976679738268494,26.976679738268494,0,0,0,480.9246068231726,519.0753931768274" stroke="grey" stroke-width="5" fill="none" />
<circle cx="432.9246068231726" cy="495.0753931768274" r="5" fill="black" stroke="none" />
<circle cx="480.9246068231726" cy="519.0753931768274" r="5" fill="black" stroke="none" />
<path d="M480.9246068231726,519.0753931768274 A26.976679738268494,26.976679738268494,0,0,1,474.98444367792706,510.0976824865066" stroke="grey" stroke-width="5" fill="none" />
<path d="M474.98444367792706,510.0976824865066 L-67.07539317682739,27.07539317682739" stroke="grey" stroke-width="5" />
<circle cx="474.98444367792706" cy="510.0976824865066" r="2.5" fill="grey" stroke="none" />
<circle cx="480.9246068231726" cy="519.0753931768274" r="5" fill="black" stroke="none" />
<circle cx="432.9246068231726" cy="527.0753931768274" r="5" fill="black" stroke="none" />
<path d="M432.9246068231726,495.0753931768274 A67.25593001504642,67.25593001504642,0,0,0,437.6333736542784,525.1746706123827" stroke="grey" stroke-width="5" fill="none" />
<path d="M437.6333736542784,525.1746706123827 L-67.07539317682739,27.07539317682739" stroke="grey" stroke-width="5" />
<circle cx="437.6333736542784" cy="525.1746706123827" r="2.5" fill="grey" stroke="none" />
<circle cx="432.9246068231726" cy="495.0753931768274" r="5" fill="black" stroke="none" />
<circle cx="432.9246068231726" cy="527.0753931768274" r="5" fill="black" stroke="none" />
<path d="M432.9246068231726,527.0753931768273 A72.33384605774654,72.33384605774654,0,0,0,453.88738480208303,555.7298125343573" stroke="grey" stroke-width="5" fill="none" />
<path d="M453.88738480208303,555.7298125343573 L-115.07539317682739,139.0753931768274" stroke="grey" stroke-width="5" />
<circle cx="453.88738480208303" cy="555.7298125343573" r="2.5" fill="grey" stroke="none" />
<circle cx="432.9246068231726" cy="527.0753931768274" r="5" fill="black" stroke="none" />
<circle cx="384.9246068231726" cy="639.0753931768274" r="5" fill="black" stroke="none" />
<path d="M320.9246068231726,583.0753931768274 L336.25137140451943,575.9651086696379" stroke="grey" stroke-width="5" />
<circle cx="336.25137140451943" cy="575.9651086696379" r="2.5" fill="grey" stroke="none" />
<path d="M336.25137140451943,575.965108669638 A180.51124923973725,180.51124923973725,0,0,0,384.9246068231726,639.0753931768274" stroke="grey" stroke-width="5" fill="none" />
<circle cx="320.9246068231726" cy="583.0753931768274" r="5" fill="black" stroke="none" />
<circle cx="384.9246068231726" cy="639.0753931768274" r="5" fill="black" stroke="none" />
<path d="M384.9246068231726,639.0753931768274 A180.51124923973725,180.51124923973725,0,0,0,405.4230900557808,653.7514852204479" stroke="grey" stroke-width="5" fill="none" />
<path d="M405.4230900557808,653.7514852204479 L-115.07539317682739,187.0753931768274" stroke="grey" stroke-width="5" />
<circle cx="405.4230900557808" cy="653.7514852204479" r="2.5" fill="grey" stroke="none" />
<circle cx="384.9246068231726" cy="639.0753931768274" r="5" fill="black" stroke="none" />
<circle cx="384.9246068231726" cy="687.0753931768274" r="5" fill="black" stroke="none" />
<path d="M480.9246068231726,519.0753931768274 L520.9246068231726,479.0753931768274" stroke="grey" stroke-width="5" />
<circle cx="480.9246068231726" cy="519.0753931768274" r="5" fill="black" stroke="none" />
<circle cx="520.9246068231726" cy="479.0753931768274" r="5" fill="black" stroke="none" />
<path d="M480.9246068231726,519.0753931768274 A26.976679738268494,26.976679738268494,0,0,0,508.87027901516365,525.476644203942" stroke="grey" stroke-width="5" fill="none" />
<path d="M508.87027901516365,525.476644203942 L28.92460682317261,83.07539317682739" stroke="grey" stroke-width="5" />
<circle cx="508.87027901516365" cy="525.476644203942" r="2.5" fill="grey" stroke="none" />
<circle cx="480.9246068231726" cy="519.0753931768274" r="5" fill="black" stroke="none" />
<circle cx="528.9246068231726" cy="583.0753931768274" r="5" fill="black" stroke="none" />
<path d="M432.9246068231726,527.0753931768273 A72.33384605774654,72.33384605774654,0,0,0,483.8122852540327,570.4992423846453" stroke="grey" stroke-width="5" fill="none" />
<path d="M483.81228525403264,570.4992423846453 L-19.07539317682739,83.07539317682739" stroke="grey" stroke-width="5" />
<circle cx="483.81228525403264" cy="570.4992423846453" r="2.5" fill="grey" stroke="none" />
<circle cx="432.9246068231726" cy="527.0753931768274" r="5" fill="black" stroke="none" />
<circle cx="480.9246068231726" cy="583.0753931768274" r="5" fill="black" stroke="none" />
<path d="M384.9246068231726,639.0753931768274 L401.5669147582282,618.962183431968" stroke="grey" stroke-width="5" />
<circle cx="401.5669147582282" cy="618.962183431968" r="2.5" fill="grey" stroke="none" />
<path d="M401.5669147582282,618.962183431968 A154.40554833656435,154.40554833656435,0,0,0,432.9246068231726,639.0753931768274" stroke="grey" stroke-width="5" fill="none" />
<circle cx="384.9246068231726" cy="639.0753931768274" r="5" fill="black" stroke="none" />
<circle cx="432.9246068231726" cy="639.0753931768274" r="5" fill="black" stroke="none" />
<path d="M384.9246068231726,687.0753931768274 L401.47565228517266,660.1687430945342" stroke="grey" stroke-width="5" />
<circle cx="401.47565228517266" cy="660.1687430945342" r="2.5" fill="grey" stroke="none" />
<path d="M401.47565228517266,660.1687430945342 A188.04540238228404,188.04540238228404,0,0,0,480.9246068231726,687.0753931768274" stroke="grey" stroke-width="5" fill="none" />
<circle cx="384.9246068231726" cy="687.0753931768274" r="5" fill="black" stroke="none" />
<circle cx="480.9246068231726" cy="687.0753931768274" r="5" fill="black" stroke="none" />
<path d="M384.9246068231726,743.0753931768274 L395.671388516596,720.374813031945" stroke="grey" stroke-width="5" />
<circle cx="395.671388516596" cy="720.374813031945" r="2.5" fill="grey" stroke="none" />
<path d="M395.671388516596,720.374813031945 A243.8227171387436,243.8227171387436,0,0,0,480.9246068231726,743.0753931768274" stroke="grey" stroke-width="5" fill="none" />
<circle cx="384.9246068231726" cy="743.0753931768274" r="5" fill="black" stroke="none" />
<circle cx="480.9246068231726" cy="743.0753931768274" r="5" fill="black" stroke="none" />
<path d="M528.9246068231726,583.0753931768274 L528.0271086890116,580.4976568284403" stroke="grey" stroke-width="5" />
<circle cx="528.0271086890116" cy="580.4976568284403" r="2.5" fill="grey" stroke="none" />
<path d="M528.0271086890116,580.4976568284403 A85.2372663588821,85.2372663588821,0,0,1,480.9246068231726,583.0753931768274" stroke="grey" stroke-width="5" fill="none" />
<circle cx="528.9246068231726" cy="583.0753931768274" r="5" fill="black" stroke="none" />
<circle cx="480.9246068231726" cy="583.0753931768274" r="5" fill="black" stroke="none" />
<path d="M480.9246068231726,583.0753931768274 A85.2372663588821,85.2372663588821,0,0,1,462.9720355522608,576.7744842066163" stroke="grey" stroke-width="5" fill="none" />
<path d="M462.9720355522608,576.7744842066163 L-67.07539317682739,139.0753931768274" stroke="grey" stroke-width="5" />
<circle cx="462.9720355522608" cy="576.7744842066163" r="2.5" fill="grey" stroke="none" />
<circle cx="480.9246068231726" cy="583.0753931768274" r="5" fill="black" stroke="none" />
<circle cx="432.9246068231726" cy="639.0753931768274" r="5" fill="black" stroke="none" />
<path d="M432.9246068231726,639.0753931768274 A154.40554833656435,154.40554833656435,0,0,0,484.33704570337807,653.6090662031934" stroke="grey" stroke-width="5" fill="none" />
<path d="M484.33704570337807,653.6090662031934 L-19.07539317682739,187.0753931768274" stroke="grey" stroke-width="5" />
<circle cx="484.33704570337807" cy="653.6090662031934" r="2.5" fill="grey" stroke="none" />
<circle cx="432.9246068231726" cy="639.0753931768274" r="5" fill="black" stroke="none" />
<circle cx="480.9246068231726" cy="687.0753931768274" r="5" fill="black" stroke="none" />
<path d="M480.9246068231726,687.0753931768274 A188.04540238228404,188.04540238228404,0,0,0,485.2883274059503,687.4690375678091" stroke="grey" stroke-width="5" fill="none" />
<path d="M485.2883274059503,687.4690375678091 L-19.07539317682739,243.0753931768274" stroke="grey" stroke-width="5" />
<circle cx="485.2883274059503" cy="687.4690375678091" r="2.5" fill="grey" stroke="none" />
<circle cx="480.9246068231726" cy="687.0753931768274" r="5" fill="black" stroke="none" />
<circle cx="480.9246068231726" cy="743.0753931768274" r="5" fill="black" stroke="none" />
<path d="M480.9246068231726,743.0753931768274 A243.8227171387436,243.8227171387436,0,0,0,539.4164508234015,740.6155871871274" stroke="grey" stroke-width="5" fill="none" />
<path d="M539.4164508234015,740.6155871871274 L52.92460682317261,323.0753931768274" stroke="grey" stroke-width="5" />
<circle cx="539.4164508234015" cy="740.6155871871274" r="2.5" fill="grey" stroke="none" />
<circle cx="480.9246068231726" cy="743.0753931768274" r="5" fill="black" stroke="none" />
<circle cx="552.9246068231726" cy="823.0753931768274" r="5" fill="black" stroke="none" />
<path d="M528.9246068231726,583.0753931768274 A87.96677686126498,87.96677686126498,0,0,1,504.04149202782014,587.8738878936664" stroke="grey" stroke-width="5" fill="none" />
<path d="M504.04149202782014,587.8738878936664 L4.92460682317261,107.07539317682739" stroke="grey" stroke-width="5" />
<circle cx="504.04149202782014" cy="587.8738878936664" r="2.5" fill="grey" stroke="none" />
<circle cx="528.9246068231726" cy="583.0753931768274" r="5" fill="black" stroke="none" />
<circle cx="504.9246068231726" cy="607.0753931768274" r="5" fill="black" stroke="none" />
<path d="M504.9246068231726,607.0753931768274 A107.18857950516468,107.18857950516468,0,0,1,485.43452721560976,606.1943434411749" stroke="grey" stroke-width="5" fill="none" />
<path d="M485.43452721560976,606.1943434411749 L-19.07539317682739,139.0753931768274" stroke="grey" stroke-width="5" />
<circle cx="485.43452721560976" cy="606.1943434411749" r="2.5" fill="grey" stroke="none" />
<circle cx="504.9246068231726" cy="607.0753931768274" r="5" fill="black" stroke="none" />
<circle cx="480.9246068231726" cy="639.0753931768274" r="5" fill="black" stroke="none" />
<path d="M480.9246068231726,639.0753931768274 A140.37747544438773,140.37747544438773,0,0,0,485.76005845743344,639.6533554090412" stroke="grey" stroke-width="5" fill="none" />
<path d="M485.76005845743344,639.6533554090412 L-19.07539317682739,187.0753931768274" stroke="grey" stroke-width="5" />
<circle cx="485.76005845743344" cy="639.6533554090412" r="2.5" fill="grey" stroke="none" />
<circle cx="480.9246068231726" cy="639.0753931768274" r="5" fill="black" stroke="none" />
<circle cx="480.9246068231726" cy="687.0753931768274" r="5" fill="black" stroke="none" />
<path d="M480.9246068231726,583.0753931768274 A85.2372663588821,85.2372663588821,0,0,0,503.91608905946276,585.1472596318482" stroke="grey" stroke-width="5" fill="none" />
<path d="M503.91608905946276,585.1472596318482 L4.92460682317261,107.07539317682739" stroke="grey" stroke-width="5" />
<circle cx="503.91608905946276" cy="585.1472596318482" r="2.5" fill="grey" stroke="none" />
<circle cx="480.9246068231726" cy="583.0753931768274" r="5" fill="black" stroke="none" />
<circle cx="504.9246068231726" cy="607.0753931768274" r="5" fill="black" stroke="none" />
<path d="M432.9246068231726,639.0753931768274 L439.0185491386711,626.440097528383" stroke="grey" stroke-width="5" />
<circle cx="439.0185491386711" cy="626.440097528383" r="2.5" fill="grey" stroke="none" />
<path d="M439.0185491386711,626.440097528383 A140.37747544438773,140.37747544438773,0,0,0,480.9246068231726,639.0753931768274" stroke="grey" stroke-width="5" fill="none" />
<circle cx="432.9246068231726" cy="639.0753931768274" r="5" fill="black" stroke="none" />
<circle cx="480.9246068231726" cy="639.0753931768274" r="5" fill="black" stroke="none" />
<path d="M528.9246068231726,583.0753931768274 A87.96677686126498,87.96677686126498,0,0,1,517.9118585521709,586.1238593803517" stroke="grey" stroke-width="5" fill="none" />
<path d="M517.9118585521709,586.1238593803517 L28.92460682317261,139.0753931768274" stroke="grey" stroke-width="5" />
<circle cx="517.9118585521709" cy="586.1238593803517" r="2.5" fill="grey" stroke="none" />
<circle cx="528.9246068231726" cy="583.0753931768274" r="5" fill="black" stroke="none" />
<circle cx="528.9246068231726" cy="639.0753931768274" r="5" fill="black" stroke="none" />
<path d="M504.9246068231726,607.0753931768274 A107.18857950516468,107.18857950516468,0,0,0,521.8258158706058,604.9429623077099" stroke="grey" stroke-width="5" fill="none" />
<path d="M521.8258158706058,604.9429623077099 L28.92460682317261,139.0753931768274" stroke="grey" stroke-width="5" />
<circle cx="521.8258158706058" cy="604.9429623077099" r="2.5" fill="grey" stroke="none" />
<circle cx="504.9246068231726" cy="607.0753931768274" r="5" fill="black" stroke="none" />
<circle cx="528.9246068231726" cy="639.0753931768274" r="5" fill="black" stroke="none" />
<path d="M480.9246068231726,639.0753931768274 A140.37747544438773,140.37747544438773,0,0,0,528.5837627998611,637.4365457814658" stroke="grey" stroke-width="5" fill="none" />
<path d="M528.5837627998611,637.4365457814658 L28.92460682317261,139.0753931768274" stroke="grey" stroke-width="5" />
<circle cx="528.5837627998611" cy="637.4365457814658" r="2.5" fill="grey" stroke="none" />
<circle cx="480.9246068231726" cy="639.0753931768274" r="5" fill="black" stroke="none" />
<circle cx="528.9246068231726" cy="639.0753931768274" r="5" fill="black" stroke="none" />
<path d="M480.9246068231726,687.0753931768274 L485.59025579705343,641.318636913784" stroke="grey" stroke-width="5" />
<circle cx="485.59025579705343" cy="641.318636913784" r="2.5" fill="grey" stroke="none" />
<path d="M485.59025579705343,641.318636913784 A142.0513916410686,142.0513916410686,0,0,0,528.9246068231727,639.0753931768274" stroke="grey" stroke-width="5" fill="none" />
<circle cx="480.9246068231726" cy="687.0753931768274" r="5" fill="black" stroke="none" />
<circle cx="528.9246068231726" cy="639.0753931768274" r="5" fill="black" stroke="none" />
<path d="M528.9246068231727,639.0753931768274 A142.0513916410686,142.0513916410686,0,0,1,519.2857030466438,640.7361343975347" stroke="grey" stroke-width="5" fill="none" />
<path d="M519.2857030466438,640.7361343975347 L28.92460682317261,211.0753931768274" stroke="grey" stroke-width="5" />
<circle cx="519.2857030466438" cy="640.7361343975347" r="2.5" fill="grey" stroke="none" />
<circle cx="528.9246068231726" cy="639.0753931768274" r="5" fill="black" stroke="none" />
<circle cx="528.9246068231726" cy="711.0753931768274" r="5" fill="black" stroke="none" />
<path d="M528.9246068231726,711.0753931768274 A213.04800981146806,213.04800981146806,0,0,1,483.332256319735,712.3950112531751" stroke="grey" stroke-width="5" fill="none" />
<path d="M483.332256319735,712.3950112531751 L-19.07539317682739,243.0753931768274" stroke="grey" stroke-width="5" />
<circle cx="483.332256319735" cy="712.3950112531751" r="2.5" fill="grey" stroke="none" />
<circle cx="528.9246068231726" cy="711.0753931768274" r="5" fill="black" stroke="none" />
<circle cx="480.9246068231726" cy="743.0753931768274" r="5" fill="black" stroke="none" />
<path d="M528.9246068231726,583.0753931768274 A87.96677686126498,87.96677686126498,0,0,0,586.8967088805115,486.3209716319024" stroke="grey" stroke-width="5" fill="none" />
<path d="M586.8967088805115,486.3209716319024 L132.9246068231726,-20.92460682317261" stroke="grey" stroke-width="5" />
<circle cx="586.8967088805115" cy="486.3209716319024" r="2.5" fill="grey" stroke="none" />
<circle cx="528.9246068231726" cy="583.0753931768274" r="5" fill="black" stroke="none" />
<circle cx="632.9246068231726" cy="479.0753931768274" r="5" fill="black" stroke="none" />
<path d="M528.9246068231726,583.0753931768274 A87.96677686126498,87.96677686126498,0,0,0,572.6630205928833,549.5806340185137" stroke="grey" stroke-width="5" fill="none" />
<path d="M572.6630205928833,549.5806340185137 L156.9246068231726,107.07539317682739" stroke="grey" stroke-width="5" />
<circle cx="572.6630205928833" cy="549.5806340185137" r="2.5" fill="grey" stroke="none" />
<circle cx="528.9246068231726" cy="583.0753931768274" r="5" fill="black" stroke="none" />
<circle cx="656.9246068231726" cy="607.0753931768274" r="5" fill="black" stroke="none" />
<path d="M656.9246068231726,607.0753931768274 A189.97492479424616,189.97492479424616,0,0,0,674.0675635664031,576.0983269503063" stroke="grey" stroke-width="5" fill="none" />
<path d="M674.0675635664031,576.0983269503063 L244.9246068231726,107.07539317682739" stroke="grey" stroke-width="5" />
<circle cx="674.0675635664031" cy="576.0983269503063" r="2.5" fill="grey" stroke="none" />
<circle cx="656.9246068231726" cy="607.0753931768274" r="5" fill="black" stroke="none" />
<circle cx="744.9246068231726" cy="607.0753931768274" r="5" fill="black" stroke="none" />
<path d="M528.9246068231727,639.0753931768274 A142.0513916410686,142.0513916410686,0,0,0,550.7242614411164,632.6862734740016" stroke="grey" stroke-width="5" fill="none" />
<path d="M550.7242614411164,632.6862734740016 L92.92460682317261,243.0753931768274" stroke="grey" stroke-width="5" />
<circle cx="550.7242614411164" cy="632.6862734740016" r="2.5" fill="grey" stroke="none" />
<circle cx="528.9246068231726" cy="639.0753931768274" r="5" fill="black" stroke="none" />
<circle cx="592.9246068231726" cy="743.0753931768274" r="5" fill="black" stroke="none" />
<circle cx="500" cy="500" r="5" fill="red" stroke="none" />
</svg>