<?xml version="1.0" encoding="UTF-8"?>
<svg xmlns="http://www.w3.org/2000/svg" xmlns:xlink="http://www.w3.org/1999/xlink"
     width="1000" height="1000" viewBox="0 0 1000 1000">
<defs>
</defs>
<rect x="0" y="0" width="1000" height="1000" fill="white" />
<path d="M306.23240773846965,684.0 L407.5396980876693,587.7994888273505" stroke="grey" stroke-width="5" />
<circle cx="407.5396980876693" cy="587.7994888273505" r="2.5" fill="grey" stroke="none" />
<path d="M407.5396980876693,587.7994888273505 A127.50552014741712,127.50552014741712,0,0,0,426.23240773846965,604.0" stroke="grey" stroke-width="5" fill="none" />
<circle cx="306.23240773846965" cy="684.0" r="5" fill="black" stroke="none" />
<circle cx="426.23240773846965" cy="604.0" r="5" fill="black" stroke="none" />
<path d="M426.23240773846965,604.0 L449.0826525827642,571.784966393082" stroke="grey" stroke-width="5" />
<circle cx="449.0826525827642" cy="571.784966393082" r="2.5" fill="grey" stroke="none" />
<path d="M449.0826525827642,571.784966393082 A88.00941806456507,88.00941806456507,0,0,1,426.23240773846965,548.0" stroke="grey" stroke-width="5" fill="none" />
<circle cx="426.23240773846965" cy="604.0" r="5" fill="black" stroke="none" />
<circle cx="426.23240773846965" cy="548.0" r="5" fill="black" stroke="none" />
<path d="M426.23240773846965,548.0 A88.00941806456507,88.00941806456507,0,0,1,415.0334790558462,522.9422750988227" stroke="grey" stroke-width="5" fill="none" />
<path d="M415.0334790558462,522.9422750988227 L322.23240773846965,548.0" stroke="grey" stroke-width="5" />
<circle cx="415.0334790558462" cy="522.9422750988227" r="2.5" fill="grey" stroke="none" />
<circle cx="426.23240773846965" cy="548.0" r="5" fill="black" stroke="none" />
<circle cx="322.23240773846965" cy="548.0" r="5" fill="black" stroke="none" />
<path d="M322.23240773846965,548.0 L356.42755763929836,538.7667805230494" stroke="grey" stroke-width="5" />
<circle cx="356.42755763929836" cy="538.7667805230494" r="2.5" fill="grey" stroke="none" />
<path d="M356.42755763929836,538.7667805230494 A148.71418721002806,148.71418721002806,0,0,1,362.23240773846965,444.0" stroke="grey" stroke-width="5" fill="none" />
<circle cx="322.23240773846965" cy="548.0" r="5" fill="black" stroke="none" />
<circle cx="362.23240773846965" cy="444.0" r="5" fill="black" stroke="none" />
<path d="M362.23240773846965,444.0 L364.4806728424066,444.9138785381504" stroke="grey" stroke-width="5" />
<circle cx="364.4806728424066" cy="444.9138785381504" r="2.5" fill="grey" stroke="none" />
<path d="M364.4806728424066,444.9138785381504 A146.28728178128296,146.28728178128296,0,0,1,474.2324077384696,356.0" stroke="grey" stroke-width="5" fill="none" />
<circle cx="362.23240773846965" cy="444.0" r="5" fill="black" stroke="none" />
<circle cx="474.23240773846965" cy="356.0" r="5" fill="black" stroke="none" />
<path d="M474.23240773846965,356.0 L478.50304111480955,379.86607176763926" stroke="grey" stroke-width="5" />
<circle cx="478.50304111480955" cy="379.86607176763926" r="2.5" fill="grey" stroke="none" />
<path d="M478.50304111480955,379.86607176763926 A122.04212368624846,122.04212368624846,0,0,1,522.2324077384696,380.0" stroke="grey" stroke-width="5" fill="none" />
<circle cx="474.23240773846965" cy="356.0" r="5" fill="black" stroke="none" />
<circle cx="522.2324077384696" cy="380.0" r="5" fill="black" stroke="none" />
<path d="M522.2324077384696,380.0 L520.9360506245794,386.99712129683803" stroke="grey" stroke-width="5" />
<circle cx="520.9360506245794" cy="386.99712129683803" r="2.5" fill="grey" stroke="none" />
<path d="M520.9360506245794,386.99712129683803 A114.92592749661183,114.92592749661183,0,0,0,474.23240773846965,388.0" stroke="grey" stroke-width="5" fill="none" />
<circle cx="522.2324077384696" cy="380.0" r="5" fill="black" stroke="none" />
<circle cx="474.23240773846965" cy="388.0" r="5" fill="black" stroke="none" />
<path d="M474.23240773846965,356.0 L479.7565146884164,386.87100233186817" stroke="grey" stroke-width="5" />
<circle cx="479.7565146884164" cy="386.87100233186817" r="2.5" fill="grey" stroke="none" />
<path d="M479.75651468841636,386.87100233186817 A114.92592749661183,114.92592749661183,0,0,0,474.23240773846965,388.0" stroke="grey" stroke-width="5" fill="none" />
<circle cx="474.23240773846965" cy="356.0" r="5" fill="black" stroke="none" />
<circle cx="474.23240773846965" cy="388.0" r="5" fill="black" stroke="none" />
<path d="M474.23240773846965,388.0 L483.46053600858716,428.11047504023867" stroke="grey" stroke-width="5" />
<circle cx="483.46053600858716" cy="428.11047504023867" r="2.5" fill="grey" stroke="none" />
<path d="M483.46053600858716,428.11047504023867 A73.76759226153035,73.76759226153035,0,0,0,426.23240773846965,500.0" stroke="grey" stroke-width="5" fill="none" />
<circle cx="474.23240773846965" cy="388.0" r="5" fill="black" stroke="none" />
<circle cx="426.23240773846965" cy="500.0" r="5" fill="black" stroke="none" />
<path d="M362.23240773846965,444.0 L431.6623130350805,472.22198336187296" stroke="grey" stroke-width="5" />
<circle cx="431.6623130350805" cy="472.22198336187296" r="2.5" fill="grey" stroke="none" />
<path d="M431.6623130350805,472.22198336187296 A73.76759226153035,73.76759226153035,0,0,0,426.23240773846965,500.0" stroke="grey" stroke-width="5" fill="none" />
<circle cx="362.23240773846965" cy="444.0" r="5" fill="black" stroke="none" />
<circle cx="426.23240773846965" cy="500.0" r="5" fill="black" stroke="none" />
<path d="M426.23240773846965,500.0 A73.76759226153035,73.76759226153035,0,0,0,438.16959834831187,540.232562678188" stroke="grey" stroke-width="5" fill="none" />
<path d="M438.16959834831187,540.232562678188 L426.23240773846965,548.0" stroke="grey" stroke-width="5" />
<circle cx="438.16959834831187" cy="540.232562678188" r="2.5" fill="grey" stroke="none" />
<circle cx="426.23240773846965" cy="500.0" r="5" fill="black" stroke="none" />
<circle cx="426.23240773846965" cy="548.0" r="5" fill="black" stroke="none" />
<path d="M522.2324077384696,380.0 A122.04212368624846,122.04212368624846,0,0,1,544.2400008894128,386.2586166993107" stroke="grey" stroke-width="5" fill="none" />
<path d="M544.2400008894128,386.2586166993107 L562.2324077384696,340.0" stroke="grey" stroke-width="5" />
<circle cx="544.2400008894128" cy="386.2586166993107" r="2.5" fill="grey" stroke="none" />
<circle cx="522.2324077384696" cy="380.0" r="5" fill="black" stroke="none" />
<circle cx="562.2324077384696" cy="340.0" r="5" fill="black" stroke="none" />
<path d="M522.2324077384696,380.0 L516.3634772027458,411.6777054726392" stroke="grey" stroke-width="5" />
<circle cx="516.3634772027458" cy="411.6777054726392" r="2.5" fill="grey" stroke="none" />
<path d="M516.3634772027458,411.6777054726392 A89.82533660801194,89.82533660801194,0,0,1,570.2324077384696,444.0" stroke="grey" stroke-width="5" fill="none" />
<circle cx="522.2324077384696" cy="380.0" r="5" fill="black" stroke="none" />
<circle cx="570.2324077384696" cy="444.0" r="5" fill="black" stroke="none" />
<path d="M474.23240773846965,388.0 L486.4909166540571,441.2821609644741" stroke="grey" stroke-width="5" />
<circle cx="486.4909166540571" cy="441.2821609644741" r="2.5" fill="grey" stroke="none" />
<path d="M486.4909166540571,441.2821609644741 A60.2518045692373,60.2518045692373,0,0,1,522.2324077384696,444.0" stroke="grey" stroke-width="5" fill="none" />
<circle cx="474.23240773846965" cy="388.0" r="5" fill="black" stroke="none" />
<circle cx="522.2324077384696" cy="444.0" r="5" fill="black" stroke="none" />
<path d="M426.23240773846965,500.0 L474.23240773846965,500.0" stroke="grey" stroke-width="5" />
<circle cx="474.23240773846965" cy="500.0" r="2.5" fill="grey" stroke="none" />
<path d="M474.23240773846965,500.0 A25.767592261530353,25.767592261530353,0,0,1,474.23240773846965,500.0" stroke="grey" stroke-width="5" fill="none" />
<circle cx="426.23240773846965" cy="500.0" r="5" fill="black" stroke="none" />
<circle cx="474.23240773846965" cy="500.0" r="5" fill="black" stroke="none" />
<path d="M426.23240773846965,548.0 L455.66139349049894,528.8507872794695" stroke="grey" stroke-width="5" />
<circle cx="455.66139349049894" cy="528.8507872794695" r="2.5" fill="grey" stroke="none" />
<path d="M455.66139349049894,528.8507872794695 A52.8987708160555,52.8987708160555,0,0,0,522.2324077384696,548.0" stroke="grey" stroke-width="5" fill="none" />
<circle cx="426.23240773846965" cy="548.0" r="5" fill="black" stroke="none" />
<circle cx="522.2324077384696" cy="548.0" r="5" fill="black" stroke="none" />
<path d="M426.23240773846965,604.0 L438.47192911900544,586.7443165141837" stroke="grey" stroke-width="5" />
<circle cx="438.47192911900544" cy="586.7443165141837" r="2.5" fill="grey" stroke="none" />
<path d="M438.47192911900544,586.7443165141837 A106.34979997089589,106.34979997089589,0,0,0,522.2324077384696,604.0" stroke="grey" stroke-width="5" fill="none" />
<circle cx="426.23240773846965" cy="604.0" r="5" fill="black" stroke="none" />
<circle cx="522.2324077384696" cy="604.0" r="5" fill="black" stroke="none" />
<path d="M570.2324077384696,444.0 L547.1095290625142,462.43708976453377" stroke="grey" stroke-width="5" />
<circle cx="547.1095290625142" cy="462.43708976453377" r="2.5" fill="grey" stroke="none" />
<path d="M547.1095290625142,462.43708976453377 A60.2518045692373,60.2518045692373,0,0,0,522.2324077384696,444.0" stroke="grey" stroke-width="5" fill="none" />
<circle cx="570.2324077384696" cy="444.0" r="5" fill="black" stroke="none" />
<circle cx="522.2324077384696" cy="444.0" r="5" fill="black" stroke="none" />
<path d="M522.2324077384696,444.0 L509.5080242275344,476.0507560402192" stroke="grey" stroke-width="5" />
<circle cx="509.5080242275344" cy="476.0507560402192" r="2.5" fill="grey" stroke="none" />
<path d="M509.5080242275344,476.0507560402192 A25.767592261530353,25.767592261530353,0,0,0,474.23240773846965,500.0" stroke="grey" stroke-width="5" fill="none" />
<circle cx="522.2324077384696" cy="444.0" r="5" fill="black" stroke="none" />
<circle cx="474.23240773846965" cy="500.0" r="5" fill="black" stroke="none" />
<path d="M474.23240773846965,500.0 A25.767592261530353,25.767592261530353,0,0,0,510.8296583977165,523.3813453407893" stroke="grey" stroke-width="5" fill="none" />
<path d="M510.8296583977165,523.3813453407893 L522.2324077384696,548.0" stroke="grey" stroke-width="5" />
<circle cx="510.8296583977165" cy="523.3813453407893" r="2.5" fill="grey" stroke="none" />
<circle cx="474.23240773846965" cy="500.0" r="5" fill="black" stroke="none" />
<circle cx="522.2324077384696" cy="548.0" r="5" fill="black" stroke="none" />
<path d="M522.2324077384696,548.0 A52.8987708160555,52.8987708160555,0,0,1,511.05847911296735,551.7299719075666" stroke="grey" stroke-width="5" fill="none" />
<path d="M511.05847911296735,551.7299719075666 L522.2324077384696,604.0" stroke="grey" stroke-width="5" />
<circle cx="511.05847911296735" cy="551.7299719075666" r="2.5" fill="grey" stroke="none" />
<circle cx="522.2324077384696" cy="548.0" r="5" fill="black" stroke="none" />
<circle cx="522.2324077384696" cy="604.0" r="5" fill="black" stroke="none" />
<path d="M522.2324077384696,604.0 A106.34979997089589,106.34979997089589,0,0,0,548.4776230299433,594.6583330680204" stroke="grey" stroke-width="5" fill="none" />
<path d="M548.4776230299433,594.6583330680204 L594.2324077384696,684.0" stroke="grey" stroke-width="5" />
<circle cx="548.4776230299433" cy="594.6583330680204" r="2.5" fill="grey" stroke="none" />
<circle cx="522.2324077384696" cy="604.0" r="5" fill="black" stroke="none" />
<circle cx="594.2324077384696" cy="684.0" r="5" fill="black" stroke="none" />
<path d="M570.2324077384696,444.0 L543.9623468711713,464.9465039849815" stroke="grey" stroke-width="5" />
<circle cx="543.9623468711713" cy="464.9465039849815" r="2.5" fill="grey" stroke="none" />
<path d="M543.9623468711713,464.9465039849815 A56.226644264939985,56.226644264939985,0,0,1,546.2324077384696,468.0" stroke="grey" stroke-width="5" fill="none" />
<circle cx="570.2324077384696" cy="444.0" r="5" fill="black" stroke="none" />
<circle cx="546.2324077384696" cy="468.0" r="5" fill="black" stroke="none" />
<path d="M546.2324077384696,468.0 L518.2806168322899,487.3469765636602" stroke="grey" stroke-width="5" />
<circle cx="518.2806168322899" cy="487.3469765636602" r="2.5" fill="grey" stroke="none" />
<path d="M518.2806168322899,487.3469765636602 A22.232407738469647,22.232407738469647,0,0,1,522.2324077384696,500.0" stroke="grey" stroke-width="5" fill="none" />
<circle cx="546.2324077384696" cy="468.0" r="5" fill="black" stroke="none" />
<circle cx="522.2324077384696" cy="500.0" r="5" fill="black" stroke="none" />
<path d="M522.2324077384696,500.0 A22.232407738469647,22.232407738469647,0,0,1,509.3438835387749,520.1735419364913" stroke="grey" stroke-width="5" fill="none" />
<path d="M509.34388353877483,520.1735419364913 L522.2324077384696,548.0" stroke="grey" stroke-width="5" />
<circle cx="509.34388353877483" cy="520.1735419364913" r="2.5" fill="grey" stroke="none" />
<circle cx="522.2324077384696" cy="500.0" r="5" fill="black" stroke="none" />
<circle cx="522.2324077384696" cy="548.0" r="5" fill="black" stroke="none" />
<path d="M522.2324077384696,444.0 L520.7471575333077,447.74111578320657" stroke="grey" stroke-width="5" />
<circle cx="520.7471575333077" cy="447.74111578320657" r="2.5" fill="grey" stroke="none" />
<path d="M520.7471575333077,447.74111578320657 A56.226644264939985,56.226644264939985,0,0,1,546.2324077384696,468.0" stroke="grey" stroke-width="5" fill="none" />
<circle cx="522.2324077384696" cy="444.0" r="5" fill="black" stroke="none" />
<circle cx="546.2324077384696" cy="468.0" r="5" fill="black" stroke="none" />
<path d="M474.23240773846965,500.0 L522.2324077384696,500.0" stroke="grey" stroke-width="5" />
<circle cx="474.23240773846965" cy="500.0" r="5" fill="black" stroke="none" />
<circle cx="522.2324077384696" cy="500.0" r="5" fill="black" stroke="none" />
<path d="M570.2324077384696,444.0 L554.913137907492,456.2148611753324" stroke="grey" stroke-width="5" />
<circle cx="554.913137907492" cy="456.2148611753324" r="2.5" fill="grey" stroke="none" />
<path d="M554.913137907492,456.2148611753324 A70.23240773846965,70.23240773846965,0,0,1,570.2324077384696,500.0" stroke="grey" stroke-width="5" fill="none" />
<circle cx="570.2324077384696" cy="444.0" r="5" fill="black" stroke="none" />
<circle cx="570.2324077384696" cy="500.0" r="5" fill="black" stroke="none" />
<path d="M546.2324077384696,468.0 A56.226644264939985,56.226644264939985,0,0,1,556.22664426494,500.0" stroke="grey" stroke-width="5" fill="none" />
<path d="M556.22664426494,500.0 L570.2324077384696,500.0" stroke="grey" stroke-width="5" />
<circle cx="556.22664426494" cy="500.0" r="2.5" fill="grey" stroke="none" />
<circle cx="546.2324077384696" cy="468.0" r="5" fill="black" stroke="none" />
<circle cx="570.2324077384696" cy="500.0" r="5" fill="black" stroke="none" />
<path d="M522.2324077384696,500.0 A22.232407738469647,22.232407738469647,0,0,1,522.2324077384696,500.0" stroke="grey" stroke-width="5" fill="none" />
<path d="M522.2324077384696,500.0 L570.2324077384696,500.0" stroke="grey" stroke-width="5" />
<circle cx="522.2324077384696" cy="500.0" r="2.5" fill="grey" stroke="none" />
<circle cx="522.2324077384696" cy="500.0" r="5" fill="black" stroke="none" />
<circle cx="570.2324077384696" cy="500.0" r="5" fill="black" stroke="none" />
<path d="M522.2324077384696,548.0 A52.8987708160555,52.8987708160555,0,0,0,552.8987708160555,500.0" stroke="grey" stroke-width="5" fill="none" />
<path d="M552.8987708160555,500.0 L570.2324077384696,500.0" stroke="grey" stroke-width="5" />
<circle cx="552.8987708160555" cy="500.0" r="2.5" fill="grey" stroke="none" />
<circle cx="522.2324077384696" cy="548.0" r="5" fill="black" stroke="none" />
<circle cx="570.2324077384696" cy="500.0" r="5" fill="black" stroke="none" />
<path d="M570.2324077384696,500.0 A70.23240773846965,70.23240773846965,0,0,1,549.0408530974627,550.2751014341666" stroke="grey" stroke-width="5" fill="none" />
<path d="M549.0408530974627,550.2751014341666 L570.2324077384696,572.0" stroke="grey" stroke-width="5" />
<circle cx="549.0408530974627" cy="550.2751014341666" r="2.5" fill="grey" stroke="none" />
<circle cx="570.2324077384696" cy="500.0" r="5" fill="black" stroke="none" />
<circle cx="570.2324077384696" cy="572.0" r="5" fill="black" stroke="none" />
<path d="M570.2324077384696,572.0 A100.58126613213143,100.58126613213143,0,0,1,521.0264967128574,598.3589219782672" stroke="grey" stroke-width="5" fill="none" />
<path d="M521.0264967128574,598.3589219782672 L522.2324077384696,604.0" stroke="grey" stroke-width="5" />
<circle cx="521.0264967128574" cy="598.3589219782672" r="2.5" fill="grey" stroke="none" />
<circle cx="570.2324077384696" cy="572.0" r="5" fill="black" stroke="none" />
<circle cx="522.2324077384696" cy="604.0" r="5" fill="black" stroke="none" />
<path d="M570.2324077384696,444.0 A89.82533660801194,89.82533660801194,0,0,0,566.1608146951949,439.24362012421466" stroke="grey" stroke-width="5" fill="none" />
<path d="M566.1608146951949,439.24362012421466 L674.2324077384696,340.0" stroke="grey" stroke-width="5" />
<circle cx="566.1608146951949" cy="439.24362012421466" r="2.5" fill="grey" stroke="none" />
<circle cx="570.2324077384696" cy="444.0" r="5" fill="black" stroke="none" />
<circle cx="674.2324077384696" cy="340.0" r="5" fill="black" stroke="none" />
<path d="M570.2324077384696,444.0 A89.82533660801194,89.82533660801194,0,0,1,588.677364316064,485.6851072411034" stroke="grey" stroke-width="5" fill="none" />
<path d="M588.677364316064,485.6851072411034 L698.2324077384696,468.0" stroke="grey" stroke-width="5" />
<circle cx="588.677364316064" cy="485.6851072411034" r="2.5" fill="grey" stroke="none" />
<circle cx="570.2324077384696" cy="444.0" r="5" fill="black" stroke="none" />
<circle cx="698.2324077384696" cy="468.0" r="5" fill="black" stroke="none" />
<path d="M698.2324077384696,468.0 A200.7986241929732,200.7986241929732,0,0,1,699.5554122896219,477.69025092678334" stroke="grey" stroke-width="5" fill="none" />
<path d="M699.5554122896219,477.69025092678334 L786.2324077384696,468.0" stroke="grey" stroke-width="5" />
<circle cx="699.5554122896219" cy="477.69025092678334" r="2.5" fill="grey" stroke="none" />
<circle cx="698.2324077384696" cy="468.0" r="5" fill="black" stroke="none" />
<circle cx="786.2324077384696" cy="468.0" r="5" fill="black" stroke="none" />
<path d="M570.2324077384696,500.0 A70.23240773846965,70.23240773846965,0,0,1,555.5187827174135,543.0146005714255" stroke="grey" stroke-width="5" fill="none" />
<path d="M555.5187827174135,543.0146005714255 L634.2324077384696,604.0" stroke="grey" stroke-width="5" />
<circle cx="555.5187827174135" cy="543.0146005714255" r="2.5" fill="grey" stroke="none" />
<circle cx="570.2324077384696" cy="500.0" r="5" fill="black" stroke="none" />
<circle cx="634.2324077384696" cy="604.0" r="5" fill="black" stroke="none" />
<circle cx="500" cy="500" r="5" fill="red" stroke="none" />
</svg>