<?xml version="1.0" encoding="UTF-8"?>
<svg xmlns="http://www.w3.org/2000/svg" xmlns:xlink="http://www.w3.org/1999/xlink"
     width="1000" height="1000" viewBox="0 0 1000 1000">
<defs>
</defs>
<rect x="0" y="0" width="1000" height="1000" fill="white" />
<path d="M201.72561992513613,628.3041323783461 L330.32895715284207,572.9847998905232" stroke="grey" stroke-width="5" />
<circle cx="330.32895715284207" cy="572.9847998905232" r="2.5" fill="grey" stroke="none" />
<path d="M330.32895715284207,572.9847998905233 A184.70258199576372,184.70258199576372,0,0,1,321.7256199251361,548.3041323783461" stroke="grey" stroke-width="5" fill="none" />
<circle cx="201.72561992513613" cy="628.3041323783461" r="5" fill="black" stroke="none" />
<circle cx="321.72561992513613" cy="548.3041323783461" r="5" fill="black" stroke="none" />
<path d="M321.72561992513613,548.3041323783461 L327.7698467822404,546.6664257482196" stroke="grey" stroke-width="5" />
<circle cx="327.7698467822404" cy="546.6664257482196" r="2.5" fill="grey" stroke="none" />
<path d="M327.7698467822404,546.6664257482195 A178.44041293812072,178.44041293812072,0,0,1,321.72561992513613,492.3041323783462" stroke="grey" stroke-width="5" fill="none" />
<circle cx="321.72561992513613" cy="548.3041323783461" r="5" fill="black" stroke="none" />
<circle cx="321.72561992513613" cy="492.3041323783462" r="5" fill="black" stroke="none" />
<path d="M321.72561992513613,492.3041323783462 A178.44041293812072,178.44041293812072,0,0,0,321.62586873251996,495.1368462805658" stroke="grey" stroke-width="5" fill="none" />
<path d="M321.62586873251996,495.1368462805659 L-282.27438007486387,-7.695867621653804" stroke="grey" stroke-width="5" />
<circle cx="321.62586873251996" cy="495.1368462805659" r="2.5" fill="grey" stroke="none" />
<circle cx="321.72561992513613" cy="492.3041323783462" r="5" fill="black" stroke="none" />
<circle cx="217.72561992513613" cy="492.3041323783462" r="5" fill="black" stroke="none" />
<path d="M217.72561992513613,492.3041323783462 L233.31670915362548,492.7292044615725" stroke="grey" stroke-width="5" />
<circle cx="233.31670915362548" cy="492.7292044615725" r="2.5" fill="grey" stroke="none" />
<path d="M233.31670915362548,492.7292044615724 A266.78238713305944,266.78238713305944,0,0,1,257.72561992513613,388.3041323783462" stroke="grey" stroke-width="5" fill="none" />
<circle cx="217.72561992513613" cy="492.3041323783462" r="5" fill="black" stroke="none" />
<circle cx="257.72561992513613" cy="388.3041323783462" r="5" fill="black" stroke="none" />
<path d="M257.72561992513613,388.3041323783462 L283.4715274665357,400.17377984026473" stroke="grey" stroke-width="5" />
<circle cx="283.4715274665357" cy="400.17377984026473" r="2.5" fill="grey" stroke="none" />
<path d="M283.4715274665357,400.17377984026473 A238.43207344871865,238.43207344871865,0,0,1,369.72561992513613,300.3041323783462" stroke="grey" stroke-width="5" fill="none" />
<circle cx="257.72561992513613" cy="388.3041323783462" r="5" fill="black" stroke="none" />
<circle cx="369.72561992513613" cy="300.3041323783462" r="5" fill="black" stroke="none" />
<path d="M369.72561992513613,300.3041323783462 L393.9994174486884,337.51311432976684" stroke="grey" stroke-width="5" />
<circle cx="393.9994174486884" cy="337.51311432976684" r="2.5" fill="grey" stroke="none" />
<path d="M393.9994174486884,337.51311432976684 A194.0054419752932,194.0054419752932,0,0,1,417.72561992513613,324.30413237834614" stroke="grey" stroke-width="5" fill="none" />
<circle cx="369.72561992513613" cy="300.3041323783462" r="5" fill="black" stroke="none" />
<circle cx="417.72561992513613" cy="324.3041323783462" r="5" fill="black" stroke="none" />
<path d="M417.72561992513613,324.30413237834614 A194.0054419752932,194.0054419752932,0,0,0,380.9808536930636,346.7924468950799" stroke="grey" stroke-width="5" fill="none" />
<path d="M380.9808536930636,346.7924468950799 L-130.27438007486387,-167.6958676216538" stroke="grey" stroke-width="5" />
<circle cx="380.9808536930636" cy="346.7924468950799" r="2.5" fill="grey" stroke="none" />
<circle cx="417.72561992513613" cy="324.3041323783462" r="5" fill="black" stroke="none" />
<circle cx="369.72561992513613" cy="332.3041323783462" r="5" fill="black" stroke="none" />
<path d="M369.72561992513613,300.3041323783462 L383.97530474773913,322.1472850561754" stroke="grey" stroke-width="5" />
<circle cx="383.97530474773913" cy="322.1472850561754" r="2.5" fill="grey" stroke="none" />
<path d="M383.97530474773913,322.1472850561754 A212.35187336416254,212.35187336416254,0,0,0,369.72561992513613,332.3041323783462" stroke="grey" stroke-width="5" fill="none" />
<circle cx="369.72561992513613" cy="300.3041323783462" r="5" fill="black" stroke="none" />
<circle cx="369.72561992513613" cy="332.3041323783462" r="5" fill="black" stroke="none" />
<path d="M369.72561992513613,332.3041323783462 L385.4184442945692,352.50474125135725" stroke="grey" stroke-width="5" />
<circle cx="385.4184442945692" cy="352.50474125135725" r="2.5" fill="grey" stroke="none" />
<path d="M385.4184442945692,352.50474125135725 A186.77201145033965,186.77201145033965,0,0,0,321.72561992513613,444.3041323783462" stroke="grey" stroke-width="5" fill="none" />
<circle cx="369.72561992513613" cy="332.3041323783462" r="5" fill="black" stroke="none" />
<circle cx="321.72561992513613" cy="444.3041323783462" r="5" fill="black" stroke="none" />
<path d="M257.72561992513613,388.3041323783462 L330.3858295304268,421.802701855343" stroke="grey" stroke-width="5" />
<circle cx="330.3858295304268" cy="421.802701855343" r="2.5" fill="grey" stroke="none" />
<path d="M330.3858295304268,421.802701855343 A186.77201145033965,186.77201145033965,0,0,0,321.72561992513613,444.3041323783462" stroke="grey" stroke-width="5" fill="none" />
<circle cx="257.72561992513613" cy="388.3041323783462" r="5" fill="black" stroke="none" />
<circle cx="321.72561992513613" cy="444.3041323783462" r="5" fill="black" stroke="none" />
<path d="M321.72561992513613,444.3041323783462 L329.6781527926928,446.78863529829624" stroke="grey" stroke-width="5" />
<circle cx="329.6781527926928" cy="446.78863529829624" r="2.5" fill="grey" stroke="none" />
<path d="M329.6781527926928,446.78863529829624 A178.44041293812072,178.44041293812072,0,0,0,321.72561992513613,492.3041323783462" stroke="grey" stroke-width="5" fill="none" />
<circle cx="321.72561992513613" cy="444.3041323783462" r="5" fill="black" stroke="none" />
<circle cx="321.72561992513613" cy="492.3041323783462" r="5" fill="black" stroke="none" />
<path d="M417.72561992513613,324.30413237834614 A194.0054419752932,194.0054419752932,0,0,1,462.6866352529019,309.6166385230083" stroke="grey" stroke-width="5" fill="none" />
<path d="M462.68663525290197,309.6166385230083 L-42.27438007486387,-215.6958676216538" stroke="grey" stroke-width="5" />
<circle cx="462.68663525290197" cy="309.6166385230083" r="2.5" fill="grey" stroke="none" />
<circle cx="417.72561992513613" cy="324.3041323783462" r="5" fill="black" stroke="none" />
<circle cx="457.72561992513613" cy="284.3041323783462" r="5" fill="black" stroke="none" />
<path d="M417.72561992513613,324.3041323783462 L450.4517674745396,394.1903944489294" stroke="grey" stroke-width="5" />
<circle cx="450.4517674745396" cy="394.1903944489294" r="2.5" fill="grey" stroke="none" />
<path d="M450.4517674745396,394.1903944489294 A116.83621002613118,116.83621002613118,0,0,1,465.72561992513613,388.3041323783462" stroke="grey" stroke-width="5" fill="none" />
<circle cx="417.72561992513613" cy="324.3041323783462" r="5" fill="black" stroke="none" />
<circle cx="465.72561992513613" cy="388.3041323783462" r="5" fill="black" stroke="none" />
<path d="M369.72561992513613,332.3041323783462 L414.8935779509608,390.4466459369318" stroke="grey" stroke-width="5" />
<circle cx="414.8935779509608" cy="390.4466459369318" r="2.5" fill="grey" stroke="none" />
<path d="M414.8935779509608,390.4466459369318 A138.72649516389134,138.72649516389134,0,0,1,417.72561992513613,388.3041323783462" stroke="grey" stroke-width="5" fill="none" />
<circle cx="369.72561992513613" cy="332.3041323783462" r="5" fill="black" stroke="none" />
<circle cx="417.72561992513613" cy="388.3041323783462" r="5" fill="black" stroke="none" />
<path d="M321.72561992513613,444.3041323783462 L364.7653186966898,457.7504467856641" stroke="grey" stroke-width="5" />
<circle cx="364.7653186966898" cy="457.7504467856641" r="2.5" fill="grey" stroke="none" />
<path d="M364.7653186966898,457.7504467856641 A141.68078124438358,141.68078124438358,0,0,1,369.72561992513613,444.3041323783462" stroke="grey" stroke-width="5" fill="none" />
<circle cx="321.72561992513613" cy="444.3041323783462" r="5" fill="black" stroke="none" />
<circle cx="369.72561992513613" cy="444.3041323783462" r="5" fill="black" stroke="none" />
<path d="M321.72561992513613,492.3041323783462 L417.4433594719985,496.4361397497209" stroke="grey" stroke-width="5" />
<circle cx="417.4433594719985" cy="496.4361397497209" r="2.5" fill="grey" stroke="none" />
<path d="M417.4433594719985,496.4361397497209 A82.63352827486659,82.63352827486659,0,0,1,417.72561992513613,492.3041323783462" stroke="grey" stroke-width="5" fill="none" />
<circle cx="321.72561992513613" cy="492.3041323783462" r="5" fill="black" stroke="none" />
<circle cx="417.72561992513613" cy="492.3041323783462" r="5" fill="black" stroke="none" />
<path d="M321.72561992513613,548.3041323783461 L407.91412065252746,524.9510249555141" stroke="grey" stroke-width="5" />
<circle cx="407.91412065252746" cy="524.9510249555141" r="2.5" fill="grey" stroke="none" />
<path d="M407.91412065252746,524.9510249555141 A95.40630388778276,95.40630388778276,0,0,0,417.72561992513613,548.3041323783463" stroke="grey" stroke-width="5" fill="none" />
<circle cx="321.72561992513613" cy="548.3041323783461" r="5" fill="black" stroke="none" />
<circle cx="417.72561992513613" cy="548.3041323783461" r="5" fill="black" stroke="none" />
<path d="M465.72561992513613,388.3041323783462 A116.83621002613118,116.83621002613118,0,0,0,430.70806885995216,405.92913175614297" stroke="grey" stroke-width="5" fill="none" />
<path d="M430.70806885995216,405.92913175614297 L-82.27438007486387,-111.6958676216538" stroke="grey" stroke-width="5" />
<circle cx="430.70806885995216" cy="405.92913175614297" r="2.5" fill="grey" stroke="none" />
<circle cx="465.72561992513613" cy="388.3041323783462" r="5" fill="black" stroke="none" />
<circle cx="417.72561992513613" cy="388.3041323783462" r="5" fill="black" stroke="none" />
<path d="M417.72561992513613,388.3041323783462 A138.72649516389134,138.72649516389134,0,0,0,372.44206307515003,445.4654862684816" stroke="grey" stroke-width="5" fill="none" />
<path d="M372.44206307515003,445.4654862684816 L-130.27438007486387,-55.695867621653804" stroke="grey" stroke-width="5" />
<circle cx="372.44206307515003" cy="445.4654862684816" r="2.5" fill="grey" stroke="none" />
<circle cx="417.72561992513613" cy="388.3041323783462" r="5" fill="black" stroke="none" />
<circle cx="369.72561992513613" cy="444.3041323783462" r="5" fill="black" stroke="none" />
<path d="M369.72561992513613,444.3041323783462 L424.01911130883377,467.5160878456153" stroke="grey" stroke-width="5" />
<circle cx="424.01911130883377" cy="467.5160878456153" r="2.5" fill="grey" stroke="none" />
<path d="M424.01911130883377,467.5160878456153 A82.63352827486659,82.63352827486659,0,0,0,417.72561992513613,492.3041323783462" stroke="grey" stroke-width="5" fill="none" />
<circle cx="369.72561992513613" cy="444.3041323783462" r="5" fill="black" stroke="none" />
<circle cx="417.72561992513613" cy="492.3041323783462" r="5" fill="black" stroke="none" />
<path d="M417.72561992513613,492.3041323783462 A82.63352827486659,82.63352827486659,0,0,0,428.7403239076325,541.8372866993552" stroke="grey" stroke-width="5" fill="none" />
<path d="M428.7403239076325,541.8372866993551 L-82.27438007486387,48.304132378346196" stroke="grey" stroke-width="5" />
<circle cx="428.7403239076325" cy="541.8372866993551" r="2.5" fill="grey" stroke="none" />
<circle cx="417.72561992513613" cy="492.3041323783462" r="5" fill="black" stroke="none" />
<circle cx="417.72561992513613" cy="548.3041323783461" r="5" fill="black" stroke="none" />
<path d="M417.72561992513613,548.3041323783463 A95.40630388778276,95.40630388778276,0,0,0,492.3844015812191,595.101868973495" stroke="grey" stroke-width="5" fill="none" />
<path d="M492.3844015812191,595.101868973495 L-10.27438007486387,128.3041323783462" stroke="grey" stroke-width="5" />
<circle cx="492.3844015812191" cy="595.101868973495" r="2.5" fill="grey" stroke="none" />
<circle cx="417.72561992513613" cy="548.3041323783461" r="5" fill="black" stroke="none" />
<circle cx="489.72561992513613" cy="628.3041323783461" r="5" fill="black" stroke="none" />
<path d="M465.72561992513613,388.3041323783462 L469.11207296273733,399.3401543098488" stroke="grey" stroke-width="5" />
<circle cx="469.11207296273733" cy="399.3401543098488" r="2.5" fill="grey" stroke="none" />
<path d="M469.11207296273733,399.3401543098488 A105.29230062556482,105.29230062556482,0,0,0,441.7256199251362,412.30413237834614" stroke="grey" stroke-width="5" fill="none" />
<circle cx="465.72561992513613" cy="388.3041323783462" r="5" fill="black" stroke="none" />
<circle cx="441.72561992513613" cy="412.3041323783462" r="5" fill="black" stroke="none" />
<path d="M441.72561992513613,412.3041323783462 L445.0125101024534,417.25050307343764" stroke="grey" stroke-width="5" />
<circle cx="445.0125101024534" cy="417.25050307343764" r="2.5" fill="grey" stroke="none" />
<path d="M445.01251010245346,417.2505030734376 A99.35342614541253,99.35342614541253,0,0,0,417.72561992513613,444.3041323783462" stroke="grey" stroke-width="5" fill="none" />
<circle cx="441.72561992513613" cy="412.3041323783462" r="5" fill="black" stroke="none" />
<circle cx="417.72561992513613" cy="444.3041323783462" r="5" fill="black" stroke="none" />
<path d="M417.72561992513613,444.3041323783462 L431.57133502106916,453.67702725046223" stroke="grey" stroke-width="5" />
<circle cx="431.57133502106916" cy="453.67702725046223" r="2.5" fill="grey" stroke="none" />
<path d="M431.57133502106916,453.67702725046223 A82.63352827486659,82.63352827486659,0,0,0,417.72561992513613,492.3041323783462" stroke="grey" stroke-width="5" fill="none" />
<circle cx="417.72561992513613" cy="444.3041323783462" r="5" fill="black" stroke="none" />
<circle cx="417.72561992513613" cy="492.3041323783462" r="5" fill="black" stroke="none" />
<path d="M417.72561992513613,388.3041323783462 L437.55440335755435,415.22372955246675" stroke="grey" stroke-width="5" />
<circle cx="437.55440335755435" cy="415.22372955246675" r="2.5" fill="grey" stroke="none" />
<path d="M437.55440335755435,415.22372955246675 A105.29230062556482,105.29230062556482,0,0,1,441.7256199251362,412.30413237834614" stroke="grey" stroke-width="5" fill="none" />
<circle cx="417.72561992513613" cy="388.3041323783462" r="5" fill="black" stroke="none" />
<circle cx="441.72561992513613" cy="412.3041323783462" r="5" fill="black" stroke="none" />
<path d="M369.72561992513613,444.3041323783462 L408.6452948259666,460.94335998325806" stroke="grey" stroke-width="5" />
<circle cx="408.6452948259666" cy="460.94335998325806" r="2.5" fill="grey" stroke="none" />
<path d="M408.6452948259666,460.94335998325806 A99.35342614541253,99.35342614541253,0,0,1,417.72561992513613,444.3041323783462" stroke="grey" stroke-width="5" fill="none" />
<circle cx="369.72561992513613" cy="444.3041323783462" r="5" fill="black" stroke="none" />
<circle cx="417.72561992513613" cy="444.3041323783462" r="5" fill="black" stroke="none" />
<path d="M465.72561992513613,388.3041323783462 L480.815533361022,437.48025080486207" stroke="grey" stroke-width="5" />
<circle cx="480.815533361022" cy="437.48025080486207" r="2.5" fill="grey" stroke="none" />
<path d="M480.815533361022,437.48025080486207 A65.39696322953391,65.39696322953391,0,0,0,465.72561992513613,444.3041323783462" stroke="grey" stroke-width="5" fill="none" />
<circle cx="465.72561992513613" cy="388.3041323783462" r="5" fill="black" stroke="none" />
<circle cx="465.72561992513613" cy="444.3041323783462" r="5" fill="black" stroke="none" />
<path d="M441.72561992513613,412.3041323783462 L463.8058294069181,445.5321671559819" stroke="grey" stroke-width="5" />
<circle cx="463.8058294069181" cy="445.5321671559819" r="2.5" fill="grey" stroke="none" />
<path d="M463.8058294069182,445.5321671559819 A65.39696322953391,65.39696322953391,0,0,1,465.72561992513613,444.3041323783462" stroke="grey" stroke-width="5" fill="none" />
<circle cx="441.72561992513613" cy="412.3041323783462" r="5" fill="black" stroke="none" />
<circle cx="465.72561992513613" cy="444.3041323783462" r="5" fill="black" stroke="none" />
<path d="M417.72561992513613,444.3041323783462 L445.8449012053823,463.3395570922799" stroke="grey" stroke-width="5" />
<circle cx="445.8449012053823" cy="463.3395570922799" r="2.5" fill="grey" stroke="none" />
<path d="M445.8449012053823,463.3395570922799 A65.39696322953391,65.39696322953391,0,0,1,465.72561992513613,444.3041323783462" stroke="grey" stroke-width="5" fill="none" />
<circle cx="417.72561992513613" cy="444.3041323783462" r="5" fill="black" stroke="none" />
<circle cx="465.72561992513613" cy="444.3041323783462" r="5" fill="black" stroke="none" />
<path d="M417.72561992513613,492.3041323783462 L434.8872700849556,493.90941688707085" stroke="grey" stroke-width="5" />
<circle cx="434.8872700849556" cy="493.90941688707085" r="2.5" fill="grey" stroke="none" />
<path d="M434.8872700849556,493.90941688707085 A65.39696322953391,65.39696322953391,0,0,1,465.72561992513613,444.3041323783462" stroke="grey" stroke-width="5" fill="none" />
<circle cx="417.72561992513613" cy="492.3041323783462" r="5" fill="black" stroke="none" />
<circle cx="465.72561992513613" cy="444.3041323783462" r="5" fill="black" stroke="none" />
<path d="M465.72561992513613,444.3041323783462 L480.1080490347923,467.67557968153744" stroke="grey" stroke-width="5" />
<circle cx="480.1080490347923" cy="467.67557968153744" r="2.5" fill="grey" stroke="none" />
<path d="M480.1080490347923,467.67557968153744 A37.95468168917851,37.95468168917851,0,0,0,465.72561992513613,516.3041323783461" stroke="grey" stroke-width="5" fill="none" />
<circle cx="465.72561992513613" cy="444.3041323783462" r="5" fill="black" stroke="none" />
<circle cx="465.72561992513613" cy="516.3041323783461" r="5" fill="black" stroke="none" />
<path d="M465.72561992513613,516.3041323783461 A37.95468168917851,37.95468168917851,0,0,0,467.26948032083,519.2164237999251" stroke="grey" stroke-width="5" fill="none" />
<path d="M467.26948032083,519.2164237999251 L-82.27438007486387,48.304132378346196" stroke="grey" stroke-width="5" />
<circle cx="467.26948032083" cy="519.2164237999251" r="2.5" fill="grey" stroke="none" />
<circle cx="465.72561992513613" cy="516.3041323783461" r="5" fill="black" stroke="none" />
<circle cx="417.72561992513613" cy="548.3041323783461" r="5" fill="black" stroke="none" />
<path d="M465.72561992513613,388.3041323783462 A116.83621002613118,116.83621002613118,0,0,1,535.9373358029277,388.82802570495636" stroke="grey" stroke-width="5" fill="none" />
<path d="M535.9373358029277,388.82802570495636 L69.72561992513613,-215.6958676216538" stroke="grey" stroke-width="5" />
<circle cx="535.9373358029277" cy="388.82802570495636" r="2.5" fill="grey" stroke="none" />
<circle cx="465.72561992513613" cy="388.3041323783462" r="5" fill="black" stroke="none" />
<circle cx="569.7256199251361" cy="284.3041323783462" r="5" fill="black" stroke="none" />
<path d="M465.72561992513613,388.3041323783462 A116.83621002613118,116.83621002613118,0,0,1,585.3143957314533,420.1742281324682" stroke="grey" stroke-width="5" fill="none" />
<path d="M585.3143957314533,420.1742281324682 L93.72561992513613,-87.6958676216538" stroke="grey" stroke-width="5" />
<circle cx="585.3143957314533" cy="420.1742281324682" r="2.5" fill="grey" stroke="none" />
<circle cx="465.72561992513613" cy="388.3041323783462" r="5" fill="black" stroke="none" />
<circle cx="593.7256199251361" cy="412.3041323783462" r="5" fill="black" stroke="none" />
<path d="M593.7256199251361,412.3041323783462 A128.355198680325,128.355198680325,0,0,1,615.5988863068261,444.21510497556534" stroke="grey" stroke-width="5" fill="none" />
<path d="M615.5988863068261,444.21510497556534 L181.72561992513613,-87.6958676216538" stroke="grey" stroke-width="5" />
<circle cx="615.5988863068261" cy="444.21510497556534" r="2.5" fill="grey" stroke="none" />
<circle cx="593.7256199251361" cy="412.3041323783462" r="5" fill="black" stroke="none" />
<circle cx="681.7256199251361" cy="412.3041323783462" r="5" fill="black" stroke="none" />
<path d="M465.72561992513613,444.3041323783462 L529.7256199251361,548.3041323783461" stroke="grey" stroke-width="5" />
<circle cx="465.72561992513613" cy="444.3041323783462" r="5" fill="black" stroke="none" />
<circle cx="529.7256199251361" cy="548.3041323783461" r="5" fill="black" stroke="none" />
<circle cx="500" cy="500" r="5" fill="red" stroke="none" />
</svg>