<?xml version="1.0" encoding="UTF-8"?>
<svg xmlns="http://www.w3.org/2000/svg" xmlns:xlink="http://www.w3.org/1999/xlink"
     width="1000" height="1000" viewBox="0 0 1000 1000">
<defs>
</defs>
<rect x="0" y="0" width="1000" height="1000" fill="white" />
<path d="M330.3634510661051,796.2727581556492 L389.7434275026283,692.5647452973952" stroke="grey" stroke-width="5" />
<circle cx="389.7434275026283" cy="692.5647452973952" r="2.5" fill="grey" stroke="none" />
<path d="M389.74342750262826,692.5647452973951 A221.8956802425835,221.8956802425835,0,0,0,450.3634510661051,716.2727581556492" stroke="grey" stroke-width="5" fill="none" />
<circle cx="330.3634510661051" cy="796.2727581556492" r="5" fill="black" stroke="none" />
<circle cx="450.3634510661051" cy="716.2727581556492" r="5" fill="black" stroke="none" />
<path d="M450.3634510661051,716.2727581556492 L462.46808230644433,663.5313399661677" stroke="grey" stroke-width="5" />
<circle cx="462.46808230644433" cy="663.5313399661677" r="2.5" fill="grey" stroke="none" />
<path d="M462.46808230644433,663.5313399661677 A167.78302654585224,167.78302654585224,0,0,1,450.3634510661051,660.2727581556492" stroke="grey" stroke-width="5" fill="none" />
<circle cx="450.3634510661051" cy="716.2727581556492" r="5" fill="black" stroke="none" />
<circle cx="450.3634510661051" cy="660.2727581556492" r="5" fill="black" stroke="none" />
<path d="M450.3634510661051,660.2727581556492 A167.78302654585224,167.78302654585224,0,0,1,383.89354994922013,621.1215763334177" stroke="grey" stroke-width="5" fill="none" />
<path d="M383.89354994922013,621.1215763334177 L-153.63654893389491,160.27275815564917" stroke="grey" stroke-width="5" />
<circle cx="383.89354994922013" cy="621.1215763334177" r="2.5" fill="grey" stroke="none" />
<circle cx="450.3634510661051" cy="660.2727581556492" r="5" fill="black" stroke="none" />
<circle cx="346.3634510661051" cy="660.2727581556492" r="5" fill="black" stroke="none" />
<path d="M346.3634510661051,660.2727581556492 L412.249451465809,591.5408640771883" stroke="grey" stroke-width="5" />
<circle cx="412.249451465809" cy="591.5408640771883" r="2.5" fill="grey" stroke="none" />
<path d="M412.249451465809,591.5408640771883 A126.806500480258,126.806500480258,0,0,1,386.3634510661051,556.2727581556491" stroke="grey" stroke-width="5" fill="none" />
<circle cx="346.3634510661051" cy="660.2727581556492" r="5" fill="black" stroke="none" />
<circle cx="386.3634510661051" cy="556.2727581556492" r="5" fill="black" stroke="none" />
<path d="M386.3634510661051,556.2727581556492 L471.53010727401545,514.0982756262563" stroke="grey" stroke-width="5" />
<circle cx="471.53010727401545" cy="514.0982756262563" r="2.5" fill="grey" stroke="none" />
<path d="M471.53010727401545,514.0982756262562 A31.769421893748078,31.769421893748078,0,0,1,498.3634510661051,468.27275815564917" stroke="grey" stroke-width="5" fill="none" />
<circle cx="386.3634510661051" cy="556.2727581556492" r="5" fill="black" stroke="none" />
<circle cx="498.3634510661051" cy="468.27275815564917" r="5" fill="black" stroke="none" />
<path d="M498.3634510661051,468.27275815564917 A31.769421893748078,31.769421893748078,0,0,1,531.337164719653,494.7771392133912" stroke="grey" stroke-width="5" fill="none" />
<path d="M531.337164719653,494.7771392133912 L46.363451066105085,-7.727241844350843" stroke="grey" stroke-width="5" />
<circle cx="531.337164719653" cy="494.7771392133912" r="2.5" fill="grey" stroke="none" />
<circle cx="498.3634510661051" cy="468.27275815564917" r="5" fill="black" stroke="none" />
<circle cx="546.3634510661051" cy="492.27275815564917" r="5" fill="black" stroke="none" />
<path d="M546.3634510661051,492.27275815564917 L498.3634510661051,500.27275815564917" stroke="grey" stroke-width="5" />
<circle cx="546.3634510661051" cy="492.27275815564917" r="5" fill="black" stroke="none" />
<circle cx="498.3634510661051" cy="500.27275815564917" r="5" fill="black" stroke="none" />
<path d="M498.3634510661051,468.27275815564917 L499.91453303331707,498.34307971763525" stroke="grey" stroke-width="5" />
<circle cx="499.91453303331707" cy="498.34307971763525" r="2.5" fill="grey" stroke="none" />
<path d="M499.91453303331707,498.34307971763525 A1.659123089015915,1.659123089015915,0,0,0,498.3634510661051,500.27275815564917" stroke="grey" stroke-width="5" fill="none" />
<circle cx="498.3634510661051" cy="468.27275815564917" r="5" fill="black" stroke="none" />
<circle cx="498.3634510661051" cy="500.27275815564917" r="5" fill="black" stroke="none" />
<path d="M498.3634510661051,500.27275815564917 A1.659123089015915,1.659123089015915,0,0,0,499.3291297130218,501.51743944938687" stroke="grey" stroke-width="5" fill="none" />
<path d="M499.3291297130218,501.51743944938687 L-49.636548933894915,112.27275815564916" stroke="grey" stroke-width="5" />
<circle cx="499.3291297130218" cy="501.51743944938687" r="2.5" fill="grey" stroke="none" />
<circle cx="498.3634510661051" cy="500.27275815564917" r="5" fill="black" stroke="none" />
<circle cx="450.3634510661051" cy="612.2727581556492" r="5" fill="black" stroke="none" />
<path d="M386.3634510661051,556.2727581556492 L389.9935506304564,554.4751347960688" stroke="grey" stroke-width="5" />
<circle cx="389.9935506304564" cy="554.4751347960688" r="2.5" fill="grey" stroke="none" />
<path d="M389.99355063045635,554.4751347960687 A122.7556891306624,122.7556891306624,0,0,0,450.3634510661051,612.2727581556492" stroke="grey" stroke-width="5" fill="none" />
<circle cx="386.3634510661051" cy="556.2727581556492" r="5" fill="black" stroke="none" />
<circle cx="450.3634510661051" cy="612.2727581556492" r="5" fill="black" stroke="none" />
<path d="M450.3634510661051,612.2727581556492 A122.7556891306624,122.7556891306624,0,0,0,463.68423614779084,617.2609249058457" stroke="grey" stroke-width="5" fill="none" />
<path d="M463.6842361477908,617.2609249058457 L-49.636548933894915,160.27275815564917" stroke="grey" stroke-width="5" />
<circle cx="463.6842361477908" cy="617.2609249058457" r="2.5" fill="grey" stroke="none" />
<circle cx="450.3634510661051" cy="612.2727581556492" r="5" fill="black" stroke="none" />
<circle cx="450.3634510661051" cy="660.2727581556492" r="5" fill="black" stroke="none" />
<path d="M546.3634510661051,492.27275815564917 A47.00297715336984,47.00297715336984,0,0,0,541.1389434717032,477.2652866454795" stroke="grey" stroke-width="5" fill="none" />
<path d="M541.1389434717032,477.2652866454795 L86.36345106610509,-47.72724184435084" stroke="grey" stroke-width="5" />
<circle cx="541.1389434717032" cy="477.2652866454795" r="2.5" fill="grey" stroke="none" />
<circle cx="546.3634510661051" cy="492.27275815564917" r="5" fill="black" stroke="none" />
<circle cx="586.3634510661051" cy="452.27275815564917" r="5" fill="black" stroke="none" />
<path d="M546.3634510661051,492.27275815564917 A47.00297715336984,47.00297715336984,0,0,1,540.3697483927589,524.0741204613076" stroke="grey" stroke-width="5" fill="none" />
<path d="M540.3697483927589,524.0741204613076 L94.36345106610509,56.27275815564916" stroke="grey" stroke-width="5" />
<circle cx="540.3697483927589" cy="524.0741204613076" r="2.5" fill="grey" stroke="none" />
<circle cx="546.3634510661051" cy="492.27275815564917" r="5" fill="black" stroke="none" />
<circle cx="594.3634510661051" cy="556.2727581556492" r="5" fill="black" stroke="none" />
<path d="M498.3634510661051,500.27275815564917 A1.659123089015915,1.659123089015915,0,0,0,501.055003733772,501.280490744298" stroke="grey" stroke-width="5" fill="none" />
<path d="M501.055003733772,501.280490744298 L46.363451066105085,56.27275815564916" stroke="grey" stroke-width="5" />
<circle cx="501.055003733772" cy="501.280490744298" r="2.5" fill="grey" stroke="none" />
<circle cx="498.3634510661051" cy="500.27275815564917" r="5" fill="black" stroke="none" />
<circle cx="546.3634510661051" cy="556.2727581556492" r="5" fill="black" stroke="none" />
<path d="M450.3634510661051,612.2727581556492 L454.59742592954956,602.6959433671417" stroke="grey" stroke-width="5" />
<circle cx="454.59742592954956" cy="602.6959433671417" r="2.5" fill="grey" stroke="none" />
<path d="M454.59742592954956,602.6959433671417 A112.28468513688729,112.28468513688729,0,0,0,498.3634510661051,612.2727581556492" stroke="grey" stroke-width="5" fill="none" />
<circle cx="450.3634510661051" cy="612.2727581556492" r="5" fill="black" stroke="none" />
<circle cx="498.3634510661051" cy="612.2727581556492" r="5" fill="black" stroke="none" />
<path d="M450.3634510661051,660.2727581556492 L450.6412449886467,659.375782053948" stroke="grey" stroke-width="5" />
<circle cx="450.6412449886467" cy="659.375782053948" r="2.5" fill="grey" stroke="none" />
<path d="M450.64124498864675,659.375782053948 A166.84401877675546,166.84401877675546,0,0,0,546.3634510661051,660.2727581556492" stroke="grey" stroke-width="5" fill="none" />
<circle cx="450.3634510661051" cy="660.2727581556492" r="5" fill="black" stroke="none" />
<circle cx="546.3634510661051" cy="660.2727581556492" r="5" fill="black" stroke="none" />
<path d="M450.3634510661051,716.2727581556492 L450.5220859350648,715.5815658510577" stroke="grey" stroke-width="5" />
<circle cx="450.5220859350648" cy="715.5815658510577" r="2.5" fill="grey" stroke="none" />
<path d="M450.5220859350648,715.5815658510577 A221.1865174801824,221.1865174801824,0,0,0,546.3634510661051,716.2727581556492" stroke="grey" stroke-width="5" fill="none" />
<circle cx="450.3634510661051" cy="716.2727581556492" r="5" fill="black" stroke="none" />
<circle cx="546.3634510661051" cy="716.2727581556492" r="5" fill="black" stroke="none" />
<path d="M594.3634510661051,556.2727581556492 L562.6225922988552,537.3443950141739" stroke="grey" stroke-width="5" />
<circle cx="562.6225922988552" cy="537.3443950141739" r="2.5" fill="grey" stroke="none" />
<path d="M562.6225922988552,537.3443950141739 A72.91222740530768,72.91222740530768,0,0,1,546.3634510661051,556.2727581556492" stroke="grey" stroke-width="5" fill="none" />
<circle cx="594.3634510661051" cy="556.2727581556492" r="5" fill="black" stroke="none" />
<circle cx="546.3634510661051" cy="556.2727581556492" r="5" fill="black" stroke="none" />
<path d="M546.3634510661051,556.2727581556492 A72.91222740530768,72.91222740530768,0,0,1,498.93730451412324,572.9044826022899" stroke="grey" stroke-width="5" fill="none" />
<path d="M498.93730451412324,572.9044826022899 L-1.6365489338949146,112.27275815564916" stroke="grey" stroke-width="5" />
<circle cx="498.93730451412324" cy="572.9044826022899" r="2.5" fill="grey" stroke="none" />
<circle cx="546.3634510661051" cy="556.2727581556492" r="5" fill="black" stroke="none" />
<circle cx="498.3634510661051" cy="612.2727581556492" r="5" fill="black" stroke="none" />
<path d="M498.3634510661051,612.2727581556492 A112.28468513688729,112.28468513688729,0,0,0,531.2022303405603,607.8622794959597" stroke="grey" stroke-width="5" fill="none" />
<path d="M531.2022303405603,607.8622794959597 L46.363451066105085,160.27275815564917" stroke="grey" stroke-width="5" />
<circle cx="531.2022303405603" cy="607.8622794959597" r="2.5" fill="grey" stroke="none" />
<circle cx="498.3634510661051" cy="612.2727581556492" r="5" fill="black" stroke="none" />
<circle cx="546.3634510661051" cy="660.2727581556492" r="5" fill="black" stroke="none" />
<path d="M546.3634510661051,660.2727581556492 A166.84401877675546,166.84401877675546,0,0,1,534.9725859801626,663.1375028356094" stroke="grey" stroke-width="5" fill="none" />
<path d="M534.9725859801626,663.1375028356094 L46.363451066105085,216.27275815564917" stroke="grey" stroke-width="5" />
<circle cx="534.9725859801626" cy="663.1375028356094" r="2.5" fill="grey" stroke="none" />
<circle cx="546.3634510661051" cy="660.2727581556492" r="5" fill="black" stroke="none" />
<circle cx="546.3634510661051" cy="716.2727581556492" r="5" fill="black" stroke="none" />
<path d="M546.3634510661051,716.2727581556492 A221.1865174801824,221.1865174801824,0,0,0,582.0595525871931,705.4013275132386" stroke="grey" stroke-width="5" fill="none" />
<path d="M582.0595525871931,705.4013275132386 L118.36345106610509,296.27275815564917" stroke="grey" stroke-width="5" />
<circle cx="582.0595525871931" cy="705.4013275132386" r="2.5" fill="grey" stroke="none" />
<circle cx="546.3634510661051" cy="716.2727581556492" r="5" fill="black" stroke="none" />
<circle cx="618.3634510661051" cy="796.2727581556492" r="5" fill="black" stroke="none" />
<path d="M594.3634510661051,556.2727581556492 L591.68171176829,554.6735281016663" stroke="grey" stroke-width="5" />
<circle cx="591.68171176829" cy="554.6735281016663" r="2.5" fill="grey" stroke="none" />
<path d="M591.68171176829,554.6735281016663 A106.7461050710868,106.7461050710868,0,0,1,570.3634510661051,580.2727581556492" stroke="grey" stroke-width="5" fill="none" />
<circle cx="594.3634510661051" cy="556.2727581556492" r="5" fill="black" stroke="none" />
<circle cx="570.3634510661051" cy="580.2727581556492" r="5" fill="black" stroke="none" />
<path d="M570.3634510661051,580.2727581556492 A106.7461050710868,106.7461050710868,0,0,1,540.7438426078122,598.6644324840382" stroke="grey" stroke-width="5" fill="none" />
<path d="M540.7438426078122,598.6644324840382 L46.363451066105085,112.27275815564916" stroke="grey" stroke-width="5" />
<circle cx="540.7438426078122" cy="598.6644324840382" r="2.5" fill="grey" stroke="none" />
<circle cx="570.3634510661051" cy="580.2727581556492" r="5" fill="black" stroke="none" />
<circle cx="546.3634510661051" cy="612.2727581556492" r="5" fill="black" stroke="none" />
<path d="M546.3634510661051,612.2727581556492 A121.46909820458866,121.46909820458866,0,0,1,533.7544410158799,616.6849584579842" stroke="grey" stroke-width="5" fill="none" />
<path d="M533.7544410158799,616.6849584579842 L46.363451066105085,160.27275815564917" stroke="grey" stroke-width="5" />
<circle cx="533.7544410158799" cy="616.6849584579842" r="2.5" fill="grey" stroke="none" />
<circle cx="546.3634510661051" cy="612.2727581556492" r="5" fill="black" stroke="none" />
<circle cx="546.3634510661051" cy="660.2727581556492" r="5" fill="black" stroke="none" />
<path d="M546.3634510661051,556.2727581556492 A72.91222740530768,72.91222740530768,0,0,0,548.0612940559993,554.8297813133162" stroke="grey" stroke-width="5" fill="none" />
<path d="M548.0612940559993,554.8297813133162 L70.36345106610509,80.27275815564916" stroke="grey" stroke-width="5" />
<circle cx="548.0612940559993" cy="554.8297813133162" r="2.5" fill="grey" stroke="none" />
<circle cx="546.3634510661051" cy="556.2727581556492" r="5" fill="black" stroke="none" />
<circle cx="570.3634510661051" cy="580.2727581556492" r="5" fill="black" stroke="none" />
<path d="M498.3634510661051,612.2727581556492 A112.28468513688729,112.28468513688729,0,0,0,542.85785917377,603.7836905459197" stroke="grey" stroke-width="5" fill="none" />
<path d="M542.85785917377,603.7836905459197 L46.363451066105085,112.27275815564916" stroke="grey" stroke-width="5" />
<circle cx="542.85785917377" cy="603.7836905459197" r="2.5" fill="grey" stroke="none" />
<circle cx="498.3634510661051" cy="612.2727581556492" r="5" fill="black" stroke="none" />
<circle cx="546.3634510661051" cy="612.2727581556492" r="5" fill="black" stroke="none" />
<path d="M594.3634510661051,556.2727581556492 A109.86848596185071,109.86848596185071,0,0,1,570.6904024027714,584.1067845996008" stroke="grey" stroke-width="5" fill="none" />
<path d="M570.6904024027714,584.1067845996008 L94.36345106610509,112.27275815564916" stroke="grey" stroke-width="5" />
<circle cx="570.6904024027714" cy="584.1067845996008" r="2.5" fill="grey" stroke="none" />
<circle cx="594.3634510661051" cy="556.2727581556492" r="5" fill="black" stroke="none" />
<circle cx="594.3634510661051" cy="612.2727581556492" r="5" fill="black" stroke="none" />
<path d="M570.3634510661051,580.2727581556492 A106.7461050710868,106.7461050710868,0,0,1,568.6814335916469,581.7165321562516" stroke="grey" stroke-width="5" fill="none" />
<path d="M568.6814335916469,581.7165321562516 L94.36345106610509,112.27275815564916" stroke="grey" stroke-width="5" />
<circle cx="568.6814335916469" cy="581.7165321562516" r="2.5" fill="grey" stroke="none" />
<circle cx="570.3634510661051" cy="580.2727581556492" r="5" fill="black" stroke="none" />
<circle cx="594.3634510661051" cy="612.2727581556492" r="5" fill="black" stroke="none" />
<path d="M546.3634510661051,612.2727581556492 A121.46909820458866,121.46909820458866,0,0,0,578.1543438631315,592.98731286557" stroke="grey" stroke-width="5" fill="none" />
<path d="M578.1543438631315,592.98731286557 L94.36345106610509,112.27275815564916" stroke="grey" stroke-width="5" />
<circle cx="578.1543438631315" cy="592.98731286557" r="2.5" fill="grey" stroke="none" />
<circle cx="546.3634510661051" cy="612.2727581556492" r="5" fill="black" stroke="none" />
<circle cx="594.3634510661051" cy="612.2727581556492" r="5" fill="black" stroke="none" />
<path d="M546.3634510661051,660.2727581556492 L540.7550672889507,640.8852639961157" stroke="grey" stroke-width="5" />
<circle cx="540.7550672889507" cy="640.8852639961157" r="2.5" fill="grey" stroke="none" />
<path d="M540.7550672889507,640.8852639961157 A146.6616279774028,146.6616279774028,0,0,0,594.3634510661051,612.2727581556492" stroke="grey" stroke-width="5" fill="none" />
<circle cx="546.3634510661051" cy="660.2727581556492" r="5" fill="black" stroke="none" />
<circle cx="594.3634510661051" cy="612.2727581556492" r="5" fill="black" stroke="none" />
<path d="M594.3634510661051,612.2727581556492 A146.6616279774028,146.6616279774028,0,0,1,566.8481852391344,630.5410021840512" stroke="grey" stroke-width="5" fill="none" />
<path d="M566.8481852391343,630.5410021840513 L94.36345106610509,184.27275815564917" stroke="grey" stroke-width="5" />
<circle cx="566.8481852391343" cy="630.5410021840513" r="2.5" fill="grey" stroke="none" />
<circle cx="594.3634510661051" cy="612.2727581556492" r="5" fill="black" stroke="none" />
<circle cx="594.3634510661051" cy="684.2727581556492" r="5" fill="black" stroke="none" />
<path d="M594.3634510661051,684.2727581556492 A207.02876683059185,207.02876683059185,0,0,1,543.3958100592014,702.4295283912436" stroke="grey" stroke-width="5" fill="none" />
<path d="M543.3958100592014,702.4295283912436 L46.363451066105085,216.27275815564917" stroke="grey" stroke-width="5" />
<circle cx="543.3958100592014" cy="702.4295283912436" r="2.5" fill="grey" stroke="none" />
<circle cx="594.3634510661051" cy="684.2727581556492" r="5" fill="black" stroke="none" />
<circle cx="546.3634510661051" cy="716.2727581556492" r="5" fill="black" stroke="none" />
<path d="M594.3634510661051,556.2727581556492 A109.86848596185071,109.86848596185071,0,0,0,606.8200371736707,474.2985629630363" stroke="grey" stroke-width="5" fill="none" />
<path d="M606.8200371736707,474.2985629630363 L198.36345106610509,-47.72724184435084" stroke="grey" stroke-width="5" />
<circle cx="606.8200371736707" cy="474.2985629630363" r="2.5" fill="grey" stroke="none" />
<circle cx="594.3634510661051" cy="556.2727581556492" r="5" fill="black" stroke="none" />
<circle cx="698.3634510661051" cy="452.27275815564917" r="5" fill="black" stroke="none" />
<path d="M594.3634510661051,556.2727581556492 A109.86848596185071,109.86848596185071,0,0,0,603.3409669460874,537.3058810135489" stroke="grey" stroke-width="5" fill="none" />
<path d="M603.3409669460874,537.3058810135489 L222.36345106610509,80.27275815564916" stroke="grey" stroke-width="5" />
<circle cx="603.3409669460874" cy="537.3058810135489" r="2.5" fill="grey" stroke="none" />
<circle cx="594.3634510661051" cy="556.2727581556492" r="5" fill="black" stroke="none" />
<circle cx="722.3634510661051" cy="580.2727581556492" r="5" fill="black" stroke="none" />
<path d="M722.3634510661051,580.2727581556492 A236.40901013274313,236.40901013274313,0,0,0,728.8775181346924,559.197143211873" stroke="grey" stroke-width="5" fill="none" />
<path d="M728.8775181346924,559.197143211873 L310.3634510661051,80.27275815564916" stroke="grey" stroke-width="5" />
<circle cx="728.8775181346924" cy="559.197143211873" r="2.5" fill="grey" stroke="none" />
<circle cx="722.3634510661051" cy="580.2727581556492" r="5" fill="black" stroke="none" />
<circle cx="810.3634510661051" cy="580.2727581556492" r="5" fill="black" stroke="none" />
<path d="M594.3634510661051,612.2727581556492 A146.6616279774028,146.6616279774028,0,0,1,586.6461644967611,618.330365075843" stroke="grey" stroke-width="5" fill="none" />
<path d="M586.6461644967611,618.330365075843 L158.36345106610509,216.27275815564917" stroke="grey" stroke-width="5" />
<circle cx="586.6461644967611" cy="618.330365075843" r="2.5" fill="grey" stroke="none" />
<circle cx="594.3634510661051" cy="612.2727581556492" r="5" fill="black" stroke="none" />
<circle cx="658.3634510661051" cy="716.2727581556492" r="5" fill="black" stroke="none" />
<circle cx="500" cy="500" r="5" fill="red" stroke="none" />
</svg>