<?xml version="1.0" encoding="UTF-8"?>
<svg xmlns="http://www.w3.org/2000/svg" xmlns:xlink="http://www.w3.org/1999/xlink"
     width="1000" height="1000" viewBox="0 0 1000 1000">
<defs>
</defs>
<rect x="0" y="0" width="1000" height="1000" fill="white" />
<path d="M327.93101493126846,796.678164178122 L388.19594583631726,692.7704840224593" stroke="grey" stroke-width="5" />
<circle cx="388.19594583631726" cy="692.7704840224593" r="2.5" fill="grey" stroke="none" />
<path d="M388.19594583631726,692.7704840224593 A222.84659754568602,222.84659754568602,0,0,0,447.93101493126846,716.678164178122" stroke="grey" stroke-width="5" fill="none" />
<circle cx="327.93101493126846" cy="796.678164178122" r="5" fill="black" stroke="none" />
<circle cx="447.93101493126846" cy="716.678164178122" r="5" fill="black" stroke="none" />
<path d="M447.93101493126846,716.678164178122 L460.53485271861314,664.2289676025448" stroke="grey" stroke-width="5" />
<circle cx="460.53485271861314" cy="664.2289676025448" r="2.5" fill="grey" stroke="none" />
<path d="M460.53485271861314,664.2289676025448 A168.90426770730008,168.90426770730008,0,0,1,447.93101493126846,660.678164178122" stroke="grey" stroke-width="5" fill="none" />
<circle cx="447.93101493126846" cy="716.678164178122" r="5" fill="black" stroke="none" />
<circle cx="447.93101493126846" cy="660.678164178122" r="5" fill="black" stroke="none" />
<path d="M447.93101493126846,660.678164178122 A168.90426770730008,168.90426770730008,0,0,1,382.3170527749862,621.1584730102436" stroke="grey" stroke-width="5" fill="none" />
<path d="M382.3170527749862,621.1584730102436 L343.93101493126846,660.678164178122" stroke="grey" stroke-width="5" />
<circle cx="382.3170527749862" cy="621.1584730102436" r="2.5" fill="grey" stroke="none" />
<circle cx="447.93101493126846" cy="660.678164178122" r="5" fill="black" stroke="none" />
<circle cx="343.93101493126846" cy="660.678164178122" r="5" fill="black" stroke="none" />
<path d="M343.93101493126846,660.678164178122 L410.0028996743207,592.6549810990061" stroke="grey" stroke-width="5" />
<circle cx="410.0028996743207" cy="592.6549810990061" r="2.5" fill="grey" stroke="none" />
<path d="M410.0028996743207,592.6549810990061 A129.16819883193995,129.16819883193995,0,0,1,383.93101493126846,556.678164178122" stroke="grey" stroke-width="5" fill="none" />
<circle cx="343.93101493126846" cy="660.678164178122" r="5" fill="black" stroke="none" />
<circle cx="383.93101493126846" cy="556.678164178122" r="5" fill="black" stroke="none" />
<path d="M383.93101493126846,556.678164178122 L471.618074269608,513.859304837428" stroke="grey" stroke-width="5" />
<circle cx="471.618074269608" cy="513.859304837428" r="2.5" fill="grey" stroke="none" />
<path d="M471.618074269608,513.859304837428 A31.58502871206934,31.58502871206934,0,0,1,495.93101493126846,468.67816417812196" stroke="grey" stroke-width="5" fill="none" />
<circle cx="383.93101493126846" cy="556.678164178122" r="5" fill="black" stroke="none" />
<circle cx="495.93101493126846" cy="468.67816417812196" r="5" fill="black" stroke="none" />
<path d="M495.93101493126846,468.67816417812196 A31.58502871206934,31.58502871206934,0,0,1,531.155280405649,494.80745326572514" stroke="grey" stroke-width="5" fill="none" />
<path d="M531.155280405649,494.80745326572514 L543.9310149312685,492.67816417812196" stroke="grey" stroke-width="5" />
<circle cx="531.155280405649" cy="494.80745326572514" r="2.5" fill="grey" stroke="none" />
<circle cx="495.93101493126846" cy="468.67816417812196" r="5" fill="black" stroke="none" />
<circle cx="543.9310149312685" cy="492.67816417812196" r="5" fill="black" stroke="none" />
<path d="M543.9310149312685,492.67816417812196 L495.93101493126846,500.67816417812196" stroke="grey" stroke-width="5" />
<circle cx="543.9310149312685" cy="492.67816417812196" r="5" fill="black" stroke="none" />
<circle cx="495.93101493126846" cy="500.67816417812196" r="5" fill="black" stroke="none" />
<path d="M495.93101493126846,468.67816417812196 L499.46857677819014,495.90926223018766" stroke="grey" stroke-width="5" />
<circle cx="499.46857677819014" cy="495.90926223018766" r="2.5" fill="grey" stroke="none" />
<path d="M499.46857677819014,495.90926223018766 A4.125111652070548,4.125111652070548,0,0,0,495.93101493126846,500.6781641781219" stroke="grey" stroke-width="5" fill="none" />
<circle cx="495.93101493126846" cy="468.67816417812196" r="5" fill="black" stroke="none" />
<circle cx="495.93101493126846" cy="500.67816417812196" r="5" fill="black" stroke="none" />
<path d="M495.93101493126846,500.6781641781219 A4.125111652070548,4.125111652070548,0,0,0,498.26959382114245,503.7446282323109" stroke="grey" stroke-width="5" fill="none" />
<path d="M498.26959382114245,503.7446282323109 L447.93101493126846,612.678164178122" stroke="grey" stroke-width="5" />
<circle cx="498.26959382114245" cy="503.7446282323109" r="2.5" fill="grey" stroke="none" />
<circle cx="495.93101493126846" cy="500.67816417812196" r="5" fill="black" stroke="none" />
<circle cx="447.93101493126846" cy="612.678164178122" r="5" fill="black" stroke="none" />
<path d="M383.93101493126846,556.678164178122 L388.46084594344654,554.4661821774579" stroke="grey" stroke-width="5" />
<circle cx="388.46084594344654" cy="554.4661821774579" r="2.5" fill="grey" stroke="none" />
<path d="M388.46084594344654,554.4661821774579 A124.12714404448202,124.12714404448202,0,0,0,447.9310149312684,612.678164178122" stroke="grey" stroke-width="5" fill="none" />
<circle cx="383.93101493126846" cy="556.678164178122" r="5" fill="black" stroke="none" />
<circle cx="447.93101493126846" cy="612.678164178122" r="5" fill="black" stroke="none" />
<path d="M447.9310149312684,612.678164178122 A124.12714404448202,124.12714404448202,0,0,0,461.7346885451309,618.0818098942485" stroke="grey" stroke-width="5" fill="none" />
<path d="M461.7346885451309,618.0818098942485 L447.93101493126846,660.678164178122" stroke="grey" stroke-width="5" />
<circle cx="461.7346885451309" cy="618.0818098942485" r="2.5" fill="grey" stroke="none" />
<circle cx="447.93101493126846" cy="612.678164178122" r="5" fill="black" stroke="none" />
<circle cx="447.93101493126846" cy="660.678164178122" r="5" fill="black" stroke="none" />
<path d="M543.9310149312685,492.6781641781219 A44.53698859031521,44.53698859031521,0,0,0,538.7954777136621,478.1264026355376" stroke="grey" stroke-width="5" fill="none" />
<path d="M538.7954777136621,478.1264026355376 L583.9310149312685,452.67816417812196" stroke="grey" stroke-width="5" />
<circle cx="538.7954777136621" cy="478.1264026355376" r="2.5" fill="grey" stroke="none" />
<circle cx="543.9310149312685" cy="492.67816417812196" r="5" fill="black" stroke="none" />
<circle cx="583.9310149312685" cy="452.67816417812196" r="5" fill="black" stroke="none" />
<path d="M543.9310149312685,492.6781641781219 A44.53698859031521,44.53698859031521,0,0,1,537.9109137871723,523.3731890959591" stroke="grey" stroke-width="5" fill="none" />
<path d="M537.9109137871723,523.3731890959591 L591.9310149312685,556.678164178122" stroke="grey" stroke-width="5" />
<circle cx="537.9109137871723" cy="523.3731890959591" r="2.5" fill="grey" stroke="none" />
<circle cx="543.9310149312685" cy="492.67816417812196" r="5" fill="black" stroke="none" />
<circle cx="591.9310149312685" cy="556.678164178122" r="5" fill="black" stroke="none" />
<path d="M495.93101493126846,500.6781641781219 A4.125111652070548,4.125111652070548,0,0,0,502.52712193525474,503.2603988814871" stroke="grey" stroke-width="5" fill="none" />
<path d="M502.52712193525474,503.2603988814871 L543.9310149312685,556.678164178122" stroke="grey" stroke-width="5" />
<circle cx="502.52712193525474" cy="503.2603988814871" r="2.5" fill="grey" stroke="none" />
<circle cx="495.93101493126846" cy="500.67816417812196" r="5" fill="black" stroke="none" />
<circle cx="543.9310149312685" cy="556.678164178122" r="5" fill="black" stroke="none" />
<path d="M447.93101493126846,612.678164178122 L452.7028363669384,602.3518618995705" stroke="grey" stroke-width="5" />
<circle cx="452.7028363669384" cy="602.3518618995705" r="2.5" fill="grey" stroke="none" />
<path d="M452.7028363669384,602.3518618995705 A112.751608955444,112.751608955444,0,0,0,495.9310149312684,612.678164178122" stroke="grey" stroke-width="5" fill="none" />
<circle cx="447.93101493126846" cy="612.678164178122" r="5" fill="black" stroke="none" />
<circle cx="495.93101493126846" cy="612.678164178122" r="5" fill="black" stroke="none" />
<path d="M447.93101493126846,660.678164178122 L448.6489074780926,658.4628404811341" stroke="grey" stroke-width="5" />
<circle cx="448.6489074780926" cy="658.4628404811341" r="2.5" fill="grey" stroke="none" />
<path d="M448.6489074780926,658.4628404811341 A166.57552796417258,166.57552796417258,0,0,0,543.9310149312685,660.678164178122" stroke="grey" stroke-width="5" fill="none" />
<circle cx="447.93101493126846" cy="660.678164178122" r="5" fill="black" stroke="none" />
<circle cx="543.9310149312685" cy="660.678164178122" r="5" fill="black" stroke="none" />
<path d="M447.93101493126846,716.678164178122 L448.34220502022,714.9670512481378" stroke="grey" stroke-width="5" />
<circle cx="448.34220502022" cy="714.9670512481378" r="2.5" fill="grey" stroke="none" />
<path d="M448.34220502022,714.9670512481378 A221.08677234174934,221.08677234174934,0,0,0,543.9310149312685,716.678164178122" stroke="grey" stroke-width="5" fill="none" />
<circle cx="447.93101493126846" cy="716.678164178122" r="5" fill="black" stroke="none" />
<circle cx="543.9310149312685" cy="716.678164178122" r="5" fill="black" stroke="none" />
<path d="M591.9310149312685,556.678164178122 L561.0413530071406,537.6337825703332" stroke="grey" stroke-width="5" />
<circle cx="561.0413530071406" cy="537.6337825703332" r="2.5" fill="grey" stroke="none" />
<path d="M561.0413530071406,537.6337825703332 A71.71016920558391,71.71016920558391,0,0,1,543.9310149312685,556.678164178122" stroke="grey" stroke-width="5" fill="none" />
<circle cx="591.9310149312685" cy="556.678164178122" r="5" fill="black" stroke="none" />
<circle cx="543.9310149312685" cy="556.678164178122" r="5" fill="black" stroke="none" />
<path d="M543.9310149312685,556.678164178122 A71.71016920558391,71.71016920558391,0,0,1,497.412120230683,571.6634582321634" stroke="grey" stroke-width="5" fill="none" />
<path d="M497.412120230683,571.6634582321634 L495.93101493126846,612.678164178122" stroke="grey" stroke-width="5" />
<circle cx="497.412120230683" cy="571.6634582321634" r="2.5" fill="grey" stroke="none" />
<circle cx="543.9310149312685" cy="556.678164178122" r="5" fill="black" stroke="none" />
<circle cx="495.93101493126846" cy="612.678164178122" r="5" fill="black" stroke="none" />
<path d="M495.9310149312684,612.678164178122 A112.751608955444,112.751608955444,0,0,0,529.7360163109404,608.7598025742823" stroke="grey" stroke-width="5" fill="none" />
<path d="M529.7360163109404,608.7598025742823 L543.9310149312685,660.678164178122" stroke="grey" stroke-width="5" />
<circle cx="529.7360163109404" cy="608.7598025742823" r="2.5" fill="grey" stroke="none" />
<circle cx="495.93101493126846" cy="612.678164178122" r="5" fill="black" stroke="none" />
<circle cx="543.9310149312685" cy="660.678164178122" r="5" fill="black" stroke="none" />
<path d="M543.9310149312685,660.678164178122 A166.57552796417258,166.57552796417258,0,0,1,533.0993660483057,663.2539080198177" stroke="grey" stroke-width="5" fill="none" />
<path d="M533.0993660483057,663.2539080198177 L543.9310149312685,716.678164178122" stroke="grey" stroke-width="5" />
<circle cx="533.0993660483057" cy="663.2539080198177" r="2.5" fill="grey" stroke="none" />
<circle cx="543.9310149312685" cy="660.678164178122" r="5" fill="black" stroke="none" />
<circle cx="543.9310149312685" cy="716.678164178122" r="5" fill="black" stroke="none" />
<path d="M543.9310149312685,716.678164178122 A221.08677234174934,221.08677234174934,0,0,0,580.4672930263013,705.9232275813291" stroke="grey" stroke-width="5" fill="none" />
<path d="M580.4672930263013,705.9232275813291 L615.9310149312685,796.678164178122" stroke="grey" stroke-width="5" />
<circle cx="580.4672930263013" cy="705.9232275813291" r="2.5" fill="grey" stroke="none" />
<circle cx="543.9310149312685" cy="716.678164178122" r="5" fill="black" stroke="none" />
<circle cx="615.9310149312685" cy="796.678164178122" r="5" fill="black" stroke="none" />
<path d="M591.9310149312685,556.678164178122 L589.7771615598332,555.3502504692058" stroke="grey" stroke-width="5" />
<circle cx="589.7771615598332" cy="555.3502504692058" r="2.5" fill="grey" stroke="none" />
<path d="M589.7771615598332,555.3502504692058 A105.46842638792053,105.46842638792053,0,0,1,567.9310149312685,580.678164178122" stroke="grey" stroke-width="5" fill="none" />
<circle cx="591.9310149312685" cy="556.678164178122" r="5" fill="black" stroke="none" />
<circle cx="567.9310149312685" cy="580.678164178122" r="5" fill="black" stroke="none" />
<path d="M567.9310149312685,580.678164178122 A105.46842638792053,105.46842638792053,0,0,1,538.3112589581413,598.2641155345452" stroke="grey" stroke-width="5" fill="none" />
<path d="M538.3112589581413,598.2641155345452 L543.9310149312685,612.678164178122" stroke="grey" stroke-width="5" />
<circle cx="538.3112589581413" cy="598.2641155345452" r="2.5" fill="grey" stroke="none" />
<circle cx="567.9310149312685" cy="580.678164178122" r="5" fill="black" stroke="none" />
<circle cx="543.9310149312685" cy="612.678164178122" r="5" fill="black" stroke="none" />
<path d="M543.9310149312685,612.678164178122 A120.93925233538998,120.93925233538998,0,0,1,531.8953460034369,616.6575743737378" stroke="grey" stroke-width="5" fill="none" />
<path d="M531.8953460034369,616.6575743737378 L543.9310149312685,660.678164178122" stroke="grey" stroke-width="5" />
<circle cx="531.8953460034369" cy="616.6575743737378" r="2.5" fill="grey" stroke="none" />
<circle cx="543.9310149312685" cy="612.678164178122" r="5" fill="black" stroke="none" />
<circle cx="543.9310149312685" cy="660.678164178122" r="5" fill="black" stroke="none" />
<path d="M543.9310149312685,556.678164178122 A71.71016920558391,71.71016920558391,0,0,0,546.1877050967951,554.8547560871888" stroke="grey" stroke-width="5" fill="none" />
<path d="M546.187705096795,554.8547560871888 L567.9310149312685,580.678164178122" stroke="grey" stroke-width="5" />
<circle cx="546.187705096795" cy="554.8547560871888" r="2.5" fill="grey" stroke="none" />
<circle cx="543.9310149312685" cy="556.678164178122" r="5" fill="black" stroke="none" />
<circle cx="567.9310149312685" cy="580.678164178122" r="5" fill="black" stroke="none" />
<path d="M495.9310149312684,612.678164178122 A112.751608955444,112.751608955444,0,0,0,540.9568648796474,605.0498002914411" stroke="grey" stroke-width="5" fill="none" />
<path d="M540.9568648796474,605.0498002914411 L543.9310149312685,612.678164178122" stroke="grey" stroke-width="5" />
<circle cx="540.9568648796474" cy="605.0498002914411" r="2.5" fill="grey" stroke="none" />
<circle cx="495.93101493126846" cy="612.678164178122" r="5" fill="black" stroke="none" />
<circle cx="543.9310149312685" cy="612.678164178122" r="5" fill="black" stroke="none" />
<path d="M591.9310149312685,556.678164178122 A107.99873055223956,107.99873055223956,0,0,1,568.2730553008865,583.681035610091" stroke="grey" stroke-width="5" fill="none" />
<path d="M568.2730553008865,583.681035610091 L591.9310149312685,612.678164178122" stroke="grey" stroke-width="5" />
<circle cx="568.2730553008865" cy="583.681035610091" r="2.5" fill="grey" stroke="none" />
<circle cx="591.9310149312685" cy="556.678164178122" r="5" fill="black" stroke="none" />
<circle cx="591.9310149312685" cy="612.678164178122" r="5" fill="black" stroke="none" />
<path d="M567.9310149312685,580.678164178122 A105.46842638792053,105.46842638792053,0,0,1,566.6734846832018,581.7204711497864" stroke="grey" stroke-width="5" fill="none" />
<path d="M566.6734846832018,581.7204711497864 L591.9310149312685,612.678164178122" stroke="grey" stroke-width="5" />
<circle cx="566.6734846832018" cy="581.7204711497864" r="2.5" fill="grey" stroke="none" />
<circle cx="567.9310149312685" cy="580.678164178122" r="5" fill="black" stroke="none" />
<circle cx="591.9310149312685" cy="612.678164178122" r="5" fill="black" stroke="none" />
<path d="M543.9310149312685,612.678164178122 A120.93925233538998,120.93925233538998,0,0,0,576.453604783327,593.7077855414263" stroke="grey" stroke-width="5" fill="none" />
<path d="M576.453604783327,593.7077855414263 L591.9310149312685,612.678164178122" stroke="grey" stroke-width="5" />
<circle cx="576.453604783327" cy="593.7077855414263" r="2.5" fill="grey" stroke="none" />
<circle cx="543.9310149312685" cy="612.678164178122" r="5" fill="black" stroke="none" />
<circle cx="591.9310149312685" cy="612.678164178122" r="5" fill="black" stroke="none" />
<path d="M543.9310149312685,660.678164178122 L538.352299253774,640.2739510058581" stroke="grey" stroke-width="5" />
<circle cx="538.352299253774" cy="640.2739510058581" r="2.5" fill="grey" stroke="none" />
<path d="M538.352299253774,640.2739510058581 A145.42241982873514,145.42241982873514,0,0,0,591.9310149312685,612.678164178122" stroke="grey" stroke-width="5" fill="none" />
<circle cx="543.9310149312685" cy="660.678164178122" r="5" fill="black" stroke="none" />
<circle cx="591.9310149312685" cy="612.678164178122" r="5" fill="black" stroke="none" />
<path d="M591.9310149312685,612.678164178122 A145.42241982873514,145.42241982873514,0,0,1,564.804655401303,630.1846259247353" stroke="grey" stroke-width="5" fill="none" />
<path d="M564.804655401303,630.1846259247353 L591.9310149312685,684.678164178122" stroke="grey" stroke-width="5" />
<circle cx="564.804655401303" cy="630.1846259247353" r="2.5" fill="grey" stroke="none" />
<circle cx="591.9310149312685" cy="612.678164178122" r="5" fill="black" stroke="none" />
<circle cx="591.9310149312685" cy="684.678164178122" r="5" fill="black" stroke="none" />
<path d="M591.9310149312685,684.678164178122 A206.2942942267053,206.2942942267053,0,0,1,540.9916777196422,702.1806573048556" stroke="grey" stroke-width="5" fill="none" />
<path d="M540.9916777196421,702.1806573048556 L543.9310149312685,716.678164178122" stroke="grey" stroke-width="5" />
<circle cx="540.9916777196421" cy="702.1806573048556" r="2.5" fill="grey" stroke="none" />
<circle cx="591.9310149312685" cy="684.678164178122" r="5" fill="black" stroke="none" />
<circle cx="543.9310149312685" cy="716.678164178122" r="5" fill="black" stroke="none" />
<path d="M591.9310149312685,556.678164178122 A107.99873055223956,107.99873055223956,0,0,0,604.9802042210089,474.64487186759834" stroke="grey" stroke-width="5" fill="none" />
<path d="M604.9802042210089,474.64487186759834 L695.9310149312685,452.67816417812196" stroke="grey" stroke-width="5" />
<circle cx="604.9802042210089" cy="474.64487186759834" r="2.5" fill="grey" stroke="none" />
<circle cx="591.9310149312685" cy="556.678164178122" r="5" fill="black" stroke="none" />
<circle cx="695.9310149312685" cy="452.67816417812196" r="5" fill="black" stroke="none" />
<path d="M591.9310149312685,556.678164178122 A107.99873055223956,107.99873055223956,0,0,0,601.3919669056825,537.1940162914983" stroke="grey" stroke-width="5" fill="none" />
<path d="M601.3919669056825,537.1940162914983 L719.9310149312685,580.678164178122" stroke="grey" stroke-width="5" />
<circle cx="601.3919669056825" cy="537.1940162914983" r="2.5" fill="grey" stroke="none" />
<circle cx="591.9310149312685" cy="556.678164178122" r="5" fill="black" stroke="none" />
<circle cx="719.9310149312685" cy="580.678164178122" r="5" fill="black" stroke="none" />
<path d="M719.9310149312685,580.678164178122 A234.2618566985454,234.2618566985454,0,0,0,726.61307963495,559.3728022095439" stroke="grey" stroke-width="5" fill="none" />
<path d="M726.61307963495,559.3728022095439 L807.9310149312685,580.678164178122" stroke="grey" stroke-width="5" />
<circle cx="726.61307963495" cy="559.3728022095439" r="2.5" fill="grey" stroke="none" />
<circle cx="719.9310149312685" cy="580.678164178122" r="5" fill="black" stroke="none" />
<circle cx="807.9310149312685" cy="580.678164178122" r="5" fill="black" stroke="none" />
<path d="M591.9310149312685,612.678164178122 A145.42241982873514,145.42241982873514,0,0,1,584.9432854280907,618.0352424046599" stroke="grey" stroke-width="5" fill="none" />
<path d="M584.9432854280907,618.0352424046599 L655.9310149312685,716.678164178122" stroke="grey" stroke-width="5" />
<circle cx="584.9432854280907" cy="618.0352424046599" r="2.5" fill="grey" stroke="none" />
<circle cx="591.9310149312685" cy="612.678164178122" r="5" fill="black" stroke="none" />
<circle cx="655.9310149312685" cy="716.678164178122" r="5" fill="black" stroke="none" />
<circle cx="500" cy="500" r="5" fill="red" stroke="none" />
</svg>