<?xml version="1.0" encoding="UTF-8"?>
<svg xmlns="http://www.w3.org/2000/svg" xmlns:xlink="http://www.w3.org/1999/xlink"
     width="1000" height="1000" viewBox="0 0 1000 1000">
<defs>
</defs>
<rect x="0" y="0" width="1000" height="1000" fill="white" />
<path d="M316.0963619906881,684.0 L413.7101690482,586.3350451736428" stroke="grey" stroke-width="5" />
<circle cx="413.7101690482" cy="586.3350451736428" r="2.5" fill="grey" stroke="none" />
<path d="M413.71016904819993,586.3350451736428 A122.06422469677663,122.06422469677663,0,0,0,436.0963619906881,604.0" stroke="grey" stroke-width="5" fill="none" />
<circle cx="316.0963619906881" cy="684.0" r="5" fill="black" stroke="none" />
<circle cx="436.0963619906881" cy="604.0" r="5" fill="black" stroke="none" />
<path d="M436.0963619906881,604.0 L458.1583704445654,568.0951759449299" stroke="grey" stroke-width="5" />
<circle cx="458.1583704445654" cy="568.0951759449299" r="2.5" fill="grey" stroke="none" />
<path d="M458.1583704445654,568.0951759449299 A79.92293132027363,79.92293132027363,0,0,1,436.0963619906881,548.0" stroke="grey" stroke-width="5" fill="none" />
<circle cx="436.0963619906881" cy="604.0" r="5" fill="black" stroke="none" />
<circle cx="436.0963619906881" cy="548.0" r="5" fill="black" stroke="none" />
<path d="M436.0963619906881,548.0 A79.92293132027363,79.92293132027363,0,0,1,423.15551690623573,521.9681671715542" stroke="grey" stroke-width="5" fill="none" />
<path d="M423.15551690623573,521.9681671715542 L-167.90363800931192,48.0" stroke="grey" stroke-width="5" />
<circle cx="423.15551690623573" cy="521.9681671715542" r="2.5" fill="grey" stroke="none" />
<circle cx="436.0963619906881" cy="548.0" r="5" fill="black" stroke="none" />
<circle cx="332.0963619906881" cy="548.0" r="5" fill="black" stroke="none" />
<path d="M332.0963619906881,548.0 L365.75234656130124,538.3784856686676" stroke="grey" stroke-width="5" />
<circle cx="365.75234656130124" cy="538.3784856686676" r="2.5" fill="grey" stroke="none" />
<path d="M365.75234656130124,538.3784856686676 A139.62571617011352,139.62571617011352,0,0,1,372.0963619906881,444.0" stroke="grey" stroke-width="5" fill="none" />
<circle cx="332.0963619906881" cy="548.0" r="5" fill="black" stroke="none" />
<circle cx="372.0963619906881" cy="444.0" r="5" fill="black" stroke="none" />
<path d="M372.0963619906881,444.0 A139.62571617011352,139.62571617011352,0,0,1,484.67266002452294,361.2181090152853" stroke="grey" stroke-width="5" fill="none" />
<path d="M484.67266002452294,361.2181090152853 L-15.90363800931192,-144.0" stroke="grey" stroke-width="5" />
<circle cx="484.67266002452294" cy="361.2181090152853" r="2.5" fill="grey" stroke="none" />
<circle cx="372.0963619906881" cy="444.0" r="5" fill="black" stroke="none" />
<circle cx="484.0963619906881" cy="356.0" r="5" fill="black" stroke="none" />
<path d="M484.0963619906881,356.0 L486.3640053199939,376.53244919362766" stroke="grey" stroke-width="5" />
<circle cx="486.3640053199939" cy="376.53244919362766" r="2.5" fill="grey" stroke="none" />
<path d="M486.3640053199939,376.53244919362766 A124.21826135088708,124.21826135088708,0,0,1,532.096361990688,380.0" stroke="grey" stroke-width="5" fill="none" />
<circle cx="484.0963619906881" cy="356.0" r="5" fill="black" stroke="none" />
<circle cx="532.0963619906881" cy="380.0" r="5" fill="black" stroke="none" />
<path d="M532.0963619906881,380.0 L529.2296212175015,390.71800264722185" stroke="grey" stroke-width="5" />
<circle cx="529.2296212175015" cy="390.71800264722185" r="2.5" fill="grey" stroke="none" />
<path d="M529.2296212175015,390.71800264722185 A113.12349756761957,113.12349756761957,0,0,0,484.0963619906881,388.0" stroke="grey" stroke-width="5" fill="none" />
<circle cx="532.0963619906881" cy="380.0" r="5" fill="black" stroke="none" />
<circle cx="484.0963619906881" cy="388.0" r="5" fill="black" stroke="none" />
<path d="M484.0963619906881,356.0 L487.581927212309,387.5601619968668" stroke="grey" stroke-width="5" />
<circle cx="487.581927212309" cy="387.5601619968668" r="2.5" fill="grey" stroke="none" />
<path d="M487.581927212309,387.5601619968668 A113.12349756761957,113.12349756761957,0,0,0,484.0963619906881,388.0" stroke="grey" stroke-width="5" fill="none" />
<circle cx="484.0963619906881" cy="356.0" r="5" fill="black" stroke="none" />
<circle cx="484.0963619906881" cy="388.0" r="5" fill="black" stroke="none" />
<path d="M484.0963619906881,388.0 L491.01601039367876,436.7310274970528" stroke="grey" stroke-width="5" />
<circle cx="491.01601039367876" cy="436.7310274970528" r="2.5" fill="grey" stroke="none" />
<path d="M491.01601039367876,436.7310274970528 A63.90363800931192,63.90363800931192,0,0,0,436.0963619906881,500.0" stroke="grey" stroke-width="5" fill="none" />
<circle cx="484.0963619906881" cy="388.0" r="5" fill="black" stroke="none" />
<circle cx="436.0963619906881" cy="500.0" r="5" fill="black" stroke="none" />
<path d="M372.0963619906881,444.0 L441.4613009149195,474.3700241855056" stroke="grey" stroke-width="5" />
<circle cx="441.4613009149195" cy="474.3700241855056" r="2.5" fill="grey" stroke="none" />
<path d="M441.4613009149195,474.3700241855056 A63.90363800931192,63.90363800931192,0,0,0,436.0963619906881,500.0" stroke="grey" stroke-width="5" fill="none" />
<circle cx="372.0963619906881" cy="444.0" r="5" fill="black" stroke="none" />
<circle cx="436.0963619906881" cy="500.0" r="5" fill="black" stroke="none" />
<path d="M436.0963619906881,500.0 A63.90363800931192,63.90363800931192,0,0,0,448.9048401583177,538.3791556913139" stroke="grey" stroke-width="5" fill="none" />
<path d="M448.9048401583177,538.3791556913139 L-63.90363800931192,48.0" stroke="grey" stroke-width="5" />
<circle cx="448.9048401583177" cy="538.3791556913139" r="2.5" fill="grey" stroke="none" />
<circle cx="436.0963619906881" cy="500.0" r="5" fill="black" stroke="none" />
<circle cx="436.0963619906881" cy="548.0" r="5" fill="black" stroke="none" />
<path d="M532.096361990688,380.0 A124.21826135088708,124.21826135088708,0,0,1,551.0315015817441,386.7482348952135" stroke="grey" stroke-width="5" fill="none" />
<path d="M551.0315015817441,386.7482348952135 L72.09636199068808,-160.0" stroke="grey" stroke-width="5" />
<circle cx="551.0315015817441" cy="386.7482348952135" r="2.5" fill="grey" stroke="none" />
<circle cx="532.0963619906881" cy="380.0" r="5" fill="black" stroke="none" />
<circle cx="572.0963619906881" cy="340.0" r="5" fill="black" stroke="none" />
<path d="M532.0963619906881,380.0 L525.2525068876489,405.58740497140974" stroke="grey" stroke-width="5" />
<circle cx="525.2525068876489" cy="405.58740497140974" r="2.5" fill="grey" stroke="none" />
<path d="M525.2525068876489,405.58740497140974 A97.7314033673074,97.7314033673074,0,0,1,580.0963619906881,444.0" stroke="grey" stroke-width="5" fill="none" />
<circle cx="532.0963619906881" cy="380.0" r="5" fill="black" stroke="none" />
<circle cx="580.0963619906881" cy="444.0" r="5" fill="black" stroke="none" />
<path d="M484.0963619906881,388.0 L490.925713484991,436.09511930000326" stroke="grey" stroke-width="5" />
<circle cx="490.925713484991" cy="436.09511930000326" r="2.5" fill="grey" stroke="none" />
<path d="M490.925713484991,436.09511930000326 A64.54592514665265,64.54592514665265,0,0,1,532.0963619906881,444.0" stroke="grey" stroke-width="5" fill="none" />
<circle cx="484.0963619906881" cy="388.0" r="5" fill="black" stroke="none" />
<circle cx="532.0963619906881" cy="444.0" r="5" fill="black" stroke="none" />
<path d="M436.0963619906881,500.0 L484.0963619906881,500.0" stroke="grey" stroke-width="5" />
<circle cx="484.0963619906881" cy="500.0" r="2.5" fill="grey" stroke="none" />
<path d="M484.0963619906881,500.0 A15.90363800931192,15.90363800931192,0,0,1,484.0963619906881,500.0" stroke="grey" stroke-width="5" fill="none" />
<circle cx="436.0963619906881" cy="500.0" r="5" fill="black" stroke="none" />
<circle cx="484.0963619906881" cy="500.0" r="5" fill="black" stroke="none" />
<path d="M436.0963619906881,548.0 L453.8312125068066,534.6788049743014" stroke="grey" stroke-width="5" />
<circle cx="453.8312125068066" cy="534.6788049743014" r="2.5" fill="grey" stroke="none" />
<path d="M453.8312125068066,534.6788049743014 A57.74232808813034,57.74232808813034,0,0,0,532.096361990688,548.0" stroke="grey" stroke-width="5" fill="none" />
<circle cx="436.0963619906881" cy="548.0" r="5" fill="black" stroke="none" />
<circle cx="532.0963619906881" cy="548.0" r="5" fill="black" stroke="none" />
<path d="M436.0963619906881,604.0 L443.0194962067283,592.7329425851582" stroke="grey" stroke-width="5" />
<circle cx="443.0194962067283" cy="592.7329425851582" r="2.5" fill="grey" stroke="none" />
<path d="M443.0194962067283,592.7329425851582 A108.84014173565416,108.84014173565416,0,0,0,532.0963619906881,604.0" stroke="grey" stroke-width="5" fill="none" />
<circle cx="436.0963619906881" cy="604.0" r="5" fill="black" stroke="none" />
<circle cx="532.0963619906881" cy="604.0" r="5" fill="black" stroke="none" />
<path d="M580.0963619906881,444.0 L552.8990028531562,463.01524705802314" stroke="grey" stroke-width="5" />
<circle cx="552.8990028531562" cy="463.01524705802314" r="2.5" fill="grey" stroke="none" />
<path d="M552.8990028531562,463.01524705802314 A64.54592514665265,64.54592514665265,0,0,0,532.0963619906881,444.0" stroke="grey" stroke-width="5" fill="none" />
<circle cx="580.0963619906881" cy="444.0" r="5" fill="black" stroke="none" />
<circle cx="532.0963619906881" cy="444.0" r="5" fill="black" stroke="none" />
<path d="M532.0963619906881,444.0 L507.90830592877813,486.2020146663332" stroke="grey" stroke-width="5" />
<circle cx="507.90830592877813" cy="486.2020146663332" r="2.5" fill="grey" stroke="none" />
<path d="M507.90830592877813,486.2020146663332 A15.90363800931192,15.90363800931192,0,0,0,484.0963619906881,500.0" stroke="grey" stroke-width="5" fill="none" />
<circle cx="532.0963619906881" cy="444.0" r="5" fill="black" stroke="none" />
<circle cx="484.0963619906881" cy="500.0" r="5" fill="black" stroke="none" />
<path d="M484.0963619906881,500.0 A15.90363800931192,15.90363800931192,0,0,0,508.84011676385234,513.22036450075" stroke="grey" stroke-width="5" fill="none" />
<path d="M508.84011676385234,513.22036450075 L32.09636199068808,48.0" stroke="grey" stroke-width="5" />
<circle cx="508.84011676385234" cy="513.22036450075" r="2.5" fill="grey" stroke="none" />
<circle cx="484.0963619906881" cy="500.0" r="5" fill="black" stroke="none" />
<circle cx="532.0963619906881" cy="548.0" r="5" fill="black" stroke="none" />
<path d="M532.096361990688,548.0 A57.74232808813034,57.74232808813034,0,0,1,517.0278964630803,555.1745158119209" stroke="grey" stroke-width="5" fill="none" />
<path d="M517.0278964630803,555.1745158119209 L32.09636199068808,104.0" stroke="grey" stroke-width="5" />
<circle cx="517.0278964630803" cy="555.1745158119209" r="2.5" fill="grey" stroke="none" />
<circle cx="532.0963619906881" cy="548.0" r="5" fill="black" stroke="none" />
<circle cx="532.0963619906881" cy="604.0" r="5" fill="black" stroke="none" />
<path d="M532.0963619906881,604.0 A108.84014173565416,108.84014173565416,0,0,0,553.5931766586738,594.7309235079521" stroke="grey" stroke-width="5" fill="none" />
<path d="M553.5931766586738,594.7309235079522 L104.09636199068808,184.0" stroke="grey" stroke-width="5" />
<circle cx="553.5931766586738" cy="594.7309235079522" r="2.5" fill="grey" stroke="none" />
<circle cx="532.0963619906881" cy="604.0" r="5" fill="black" stroke="none" />
<circle cx="604.0963619906881" cy="684.0" r="5" fill="black" stroke="none" />
<path d="M580.0963619906881,444.0 L552.9283594926824,462.99472213313754" stroke="grey" stroke-width="5" />
<circle cx="552.9283594926824" cy="462.99472213313754" r="2.5" fill="grey" stroke="none" />
<path d="M552.9283594926824,462.99472213313754 A64.58174532010044,64.58174532010044,0,0,1,556.0963619906881,468.0" stroke="grey" stroke-width="5" fill="none" />
<circle cx="580.0963619906881" cy="444.0" r="5" fill="black" stroke="none" />
<circle cx="556.0963619906881" cy="468.0" r="5" fill="black" stroke="none" />
<path d="M556.0963619906881,468.0 L527.8792270461204,484.0963792692306" stroke="grey" stroke-width="5" />
<circle cx="527.8792270461204" cy="484.0963792692306" r="2.5" fill="grey" stroke="none" />
<path d="M527.8792270461204,484.0963792692306 A32.09636199068808,32.09636199068808,0,0,1,532.0963619906881,500.0" stroke="grey" stroke-width="5" fill="none" />
<circle cx="556.0963619906881" cy="468.0" r="5" fill="black" stroke="none" />
<circle cx="532.0963619906881" cy="500.0" r="5" fill="black" stroke="none" />
<path d="M532.0963619906881,500.0 A32.09636199068808,32.09636199068808,0,0,1,517.840923411764,526.6810401756164" stroke="grey" stroke-width="5" fill="none" />
<path d="M517.840923411764,526.6810401756164 L32.09636199068808,48.0" stroke="grey" stroke-width="5" />
<circle cx="517.840923411764" cy="526.6810401756164" r="2.5" fill="grey" stroke="none" />
<circle cx="532.0963619906881" cy="500.0" r="5" fill="black" stroke="none" />
<circle cx="532.0963619906881" cy="548.0" r="5" fill="black" stroke="none" />
<path d="M532.0963619906881,444.0 A64.54592514665265,64.54592514665265,0,0,1,556.0652482230694,468.0177487546155" stroke="grey" stroke-width="5" fill="none" />
<path d="M556.0652482230694,468.0177487546155 L56.09636199068808,-32.0" stroke="grey" stroke-width="5" />
<circle cx="556.0652482230694" cy="468.0177487546155" r="2.5" fill="grey" stroke="none" />
<circle cx="532.0963619906881" cy="444.0" r="5" fill="black" stroke="none" />
<circle cx="556.0963619906881" cy="468.0" r="5" fill="black" stroke="none" />
<path d="M484.0963619906881,500.0 L532.0963619906881,500.0" stroke="grey" stroke-width="5" />
<circle cx="484.0963619906881" cy="500.0" r="5" fill="black" stroke="none" />
<circle cx="532.0963619906881" cy="500.0" r="5" fill="black" stroke="none" />
<path d="M580.0963619906881,444.0 L565.6434573034014,454.1048617237091" stroke="grey" stroke-width="5" />
<circle cx="565.6434573034014" cy="454.1048617237091" r="2.5" fill="grey" stroke="none" />
<path d="M565.6434573034014,454.1048617237091 A80.09636199068808,80.09636199068808,0,0,1,580.0963619906881,500.0" stroke="grey" stroke-width="5" fill="none" />
<circle cx="580.0963619906881" cy="444.0" r="5" fill="black" stroke="none" />
<circle cx="580.0963619906881" cy="500.0" r="5" fill="black" stroke="none" />
<path d="M556.0963619906881,468.0 A64.58174532010044,64.58174532010044,0,0,1,564.5817453201005,500.0" stroke="grey" stroke-width="5" fill="none" />
<path d="M564.5817453201005,500.0 L80.09636199068808,0.0" stroke="grey" stroke-width="5" />
<circle cx="564.5817453201005" cy="500.0" r="2.5" fill="grey" stroke="none" />
<circle cx="556.0963619906881" cy="468.0" r="5" fill="black" stroke="none" />
<circle cx="580.0963619906881" cy="500.0" r="5" fill="black" stroke="none" />
<path d="M532.0963619906881,500.0 A32.09636199068808,32.09636199068808,0,0,1,532.0963619906881,500.0" stroke="grey" stroke-width="5" fill="none" />
<path d="M532.0963619906881,500.0 L80.09636199068808,0.0" stroke="grey" stroke-width="5" />
<circle cx="532.0963619906881" cy="500.0" r="2.5" fill="grey" stroke="none" />
<circle cx="532.0963619906881" cy="500.0" r="5" fill="black" stroke="none" />
<circle cx="580.0963619906881" cy="500.0" r="5" fill="black" stroke="none" />
<path d="M532.096361990688,548.0 A57.74232808813034,57.74232808813034,0,0,0,557.7423280881303,500.0" stroke="grey" stroke-width="5" fill="none" />
<path d="M557.7423280881303,500.0 L80.09636199068808,0.0" stroke="grey" stroke-width="5" />
<circle cx="557.7423280881303" cy="500.0" r="2.5" fill="grey" stroke="none" />
<circle cx="532.0963619906881" cy="548.0" r="5" fill="black" stroke="none" />
<circle cx="580.0963619906881" cy="500.0" r="5" fill="black" stroke="none" />
<path d="M580.0963619906881,500.0 A80.09636199068808,80.09636199068808,0,0,1,559.5672169127454,553.5459977347821" stroke="grey" stroke-width="5" fill="none" />
<path d="M559.5672169127454,553.5459977347821 L80.09636199068808,72.0" stroke="grey" stroke-width="5" />
<circle cx="559.5672169127454" cy="553.5459977347821" r="2.5" fill="grey" stroke="none" />
<circle cx="580.0963619906881" cy="500.0" r="5" fill="black" stroke="none" />
<circle cx="580.0963619906881" cy="572.0" r="5" fill="black" stroke="none" />
<path d="M580.0963619906881,572.0 A107.7006369718552,107.7006369718552,0,0,1,531.7603282736627,602.9111692290614" stroke="grey" stroke-width="5" fill="none" />
<path d="M531.7603282736627,602.9111692290614 L32.09636199068808,104.0" stroke="grey" stroke-width="5" />
<circle cx="531.7603282736627" cy="602.9111692290614" r="2.5" fill="grey" stroke="none" />
<circle cx="580.0963619906881" cy="572.0" r="5" fill="black" stroke="none" />
<circle cx="532.0963619906881" cy="604.0" r="5" fill="black" stroke="none" />
<path d="M580.0963619906881,444.0 A97.7314033673074,97.7314033673074,0,0,0,573.7652790067185,435.8898540229059" stroke="grey" stroke-width="5" fill="none" />
<path d="M573.7652790067185,435.8898540229059 L184.09636199068808,-160.0" stroke="grey" stroke-width="5" />
<circle cx="573.7652790067185" cy="435.8898540229059" r="2.5" fill="grey" stroke="none" />
<circle cx="580.0963619906881" cy="444.0" r="5" fill="black" stroke="none" />
<circle cx="684.0963619906881" cy="340.0" r="5" fill="black" stroke="none" />
<path d="M580.0963619906881,444.0 A97.7314033673074,97.7314033673074,0,0,1,596.5959870491355,485.1459604771435" stroke="grey" stroke-width="5" fill="none" />
<path d="M596.5959870491355,485.1459604771435 L208.09636199068808,-32.0" stroke="grey" stroke-width="5" />
<circle cx="596.5959870491355" cy="485.1459604771435" r="2.5" fill="grey" stroke="none" />
<circle cx="580.0963619906881" cy="444.0" r="5" fill="black" stroke="none" />
<circle cx="708.0963619906881" cy="468.0" r="5" fill="black" stroke="none" />
<path d="M708.0963619906881,468.0 A210.54238498164565,210.54238498164565,0,0,1,709.3235098084472,477.3777959687294" stroke="grey" stroke-width="5" fill="none" />
<path d="M709.3235098084472,477.3777959687294 L296.0963619906881,-32.0" stroke="grey" stroke-width="5" />
<circle cx="709.3235098084472" cy="477.3777959687294" r="2.5" fill="grey" stroke="none" />
<circle cx="708.0963619906881" cy="468.0" r="5" fill="black" stroke="none" />
<circle cx="796.0963619906881" cy="468.0" r="5" fill="black" stroke="none" />
<path d="M580.0963619906881,500.0 A80.09636199068808,80.09636199068808,0,0,1,564.9473422656372,546.8750459922283" stroke="grey" stroke-width="5" fill="none" />
<path d="M564.9473422656372,546.8750459922283 L144.09636199068808,104.0" stroke="grey" stroke-width="5" />
<circle cx="564.9473422656372" cy="546.8750459922283" r="2.5" fill="grey" stroke="none" />
<circle cx="580.0963619906881" cy="500.0" r="5" fill="black" stroke="none" />
<circle cx="644.0963619906881" cy="604.0" r="5" fill="black" stroke="none" />
<circle cx="500" cy="500" r="5" fill="red" stroke="none" />
</svg>