<?xml version="1.0" encoding="UTF-8"?>
<svg xmlns="http://www.w3.org/2000/svg" xmlns:xlink="http://www.w3.org/1999/xlink"
     width="1000" height="1000" viewBox="0 0 1000 1000">
<defs>
</defs>
<rect x="0" y="0" width="1000" height="1000" fill="white" />
<path d="M365.41613325178025,684.0 L438.001164250784,584.7633973780639" stroke="grey" stroke-width="5" />
<circle cx="438.001164250784" cy="584.7633973780639" r="2.5" fill="grey" stroke="none" />
<path d="M438.001164250784,584.7633973780639 A105.0175660036445,105.0175660036445,0,0,0,485.4161332517803,604.0" stroke="grey" stroke-width="5" fill="none" />
<circle cx="365.41613325178025" cy="684.0" r="5" fill="black" stroke="none" />
<circle cx="485.41613325178025" cy="604.0" r="5" fill="black" stroke="none" />
<path d="M485.41613325178025,604.0 L493.0333253478431,549.6805254966251" stroke="grey" stroke-width="5" />
<circle cx="493.0333253478431" cy="549.6805254966251" r="2.5" fill="grey" stroke="none" />
<path d="M493.0333253478432,549.6805254966251 A50.16661409074594,50.16661409074594,0,0,1,485.4161332517803,548.0" stroke="grey" stroke-width="5" fill="none" />
<circle cx="485.41613325178025" cy="604.0" r="5" fill="black" stroke="none" />
<circle cx="485.41613325178025" cy="548.0" r="5" fill="black" stroke="none" />
<path d="M485.4161332517803,548.0 A50.16661409074594,50.16661409074594,0,0,1,453.49845809235694,518.8227460680301" stroke="grey" stroke-width="5" fill="none" />
<path d="M453.49845809235694,518.8227460680301 L381.41613325178025,548.0" stroke="grey" stroke-width="5" />
<circle cx="453.49845809235694" cy="518.8227460680301" r="2.5" fill="grey" stroke="none" />
<circle cx="485.41613325178025" cy="548.0" r="5" fill="black" stroke="none" />
<circle cx="381.41613325178025" cy="548.0" r="5" fill="black" stroke="none" />
<path d="M381.41613325178025,548.0 L410.5540630697617,536.2056415462257" stroke="grey" stroke-width="5" />
<circle cx="410.5540630697617" cy="536.2056415462257" r="2.5" fill="grey" stroke="none" />
<path d="M410.5540630697617,536.2056415462257 A96.49572069839134,96.49572069839134,0,0,1,421.4161332517803,444.0" stroke="grey" stroke-width="5" fill="none" />
<circle cx="381.41613325178025" cy="548.0" r="5" fill="black" stroke="none" />
<circle cx="421.41613325178025" cy="444.0" r="5" fill="black" stroke="none" />
<path d="M421.4161332517803,444.0 A96.49572069839134,96.49572069839134,0,0,1,521.8128449736456,406.0020005145979" stroke="grey" stroke-width="5" fill="none" />
<path d="M521.8128449736456,406.0020005145979 L533.4161332517803,356.0" stroke="grey" stroke-width="5" />
<circle cx="521.8128449736456" cy="406.0020005145979" r="2.5" fill="grey" stroke="none" />
<circle cx="421.41613325178025" cy="444.0" r="5" fill="black" stroke="none" />
<circle cx="533.4161332517803" cy="356.0" r="5" fill="black" stroke="none" />
<path d="M533.4161332517803,356.0 L532.780026622732,358.74117157400525" stroke="grey" stroke-width="5" />
<circle cx="532.780026622732" cy="358.74117157400525" r="2.5" fill="grey" stroke="none" />
<path d="M532.780026622732,358.74117157400525 A145.01236758867032,145.01236758867032,0,0,1,581.4161332517803,380.0" stroke="grey" stroke-width="5" fill="none" />
<circle cx="533.4161332517803" cy="356.0" r="5" fill="black" stroke="none" />
<circle cx="581.4161332517803" cy="380.0" r="5" fill="black" stroke="none" />
<path d="M581.4161332517803,380.0 L565.6207092246692,403.2810231528882" stroke="grey" stroke-width="5" />
<circle cx="565.6207092246692" cy="403.2810231528882" r="2.5" fill="grey" stroke="none" />
<path d="M565.6207092246692,403.2810231528882 A116.87873186127892,116.87873186127892,0,0,0,533.4161332517803,388.0" stroke="grey" stroke-width="5" fill="none" />
<circle cx="581.4161332517803" cy="380.0" r="5" fill="black" stroke="none" />
<circle cx="533.4161332517803" cy="388.0" r="5" fill="black" stroke="none" />
<path d="M533.4161332517803,356.0 L526.420421966431,386.146588700134" stroke="grey" stroke-width="5" />
<circle cx="526.420421966431" cy="386.146588700134" r="2.5" fill="grey" stroke="none" />
<path d="M526.420421966431,386.146588700134 A116.87873186127892,116.87873186127892,0,0,1,533.4161332517803,388.0" stroke="grey" stroke-width="5" fill="none" />
<circle cx="533.4161332517803" cy="356.0" r="5" fill="black" stroke="none" />
<circle cx="533.4161332517803" cy="388.0" r="5" fill="black" stroke="none" />
<path d="M533.4161332517803,388.0 L504.1695903679305,486.02489050155634" stroke="grey" stroke-width="5" />
<circle cx="504.1695903679305" cy="486.02489050155634" r="2.5" fill="grey" stroke="none" />
<path d="M504.1695903679305,486.02489050155634 A14.58386674821972,14.58386674821972,0,0,0,485.41613325178025,500.0" stroke="grey" stroke-width="5" fill="none" />
<circle cx="533.4161332517803" cy="388.0" r="5" fill="black" stroke="none" />
<circle cx="485.41613325178025" cy="500.0" r="5" fill="black" stroke="none" />
<path d="M421.41613325178025,444.0 L488.12323869990024,491.5364481244408" stroke="grey" stroke-width="5" />
<circle cx="488.12323869990024" cy="491.5364481244408" r="2.5" fill="grey" stroke="none" />
<path d="M488.12323869990024,491.5364481244408 A14.58386674821972,14.58386674821972,0,0,0,485.41613325178025,500.0" stroke="grey" stroke-width="5" fill="none" />
<circle cx="421.41613325178025" cy="444.0" r="5" fill="black" stroke="none" />
<circle cx="485.41613325178025" cy="500.0" r="5" fill="black" stroke="none" />
<path d="M485.41613325178025,500.0 A14.58386674821972,14.58386674821972,0,0,0,495.7603443408579,513.954013373282" stroke="grey" stroke-width="5" fill="none" />
<path d="M495.7603443408579,513.954013373282 L485.41613325178025,548.0" stroke="grey" stroke-width="5" />
<circle cx="495.7603443408579" cy="513.954013373282" r="2.5" fill="grey" stroke="none" />
<circle cx="485.41613325178025" cy="500.0" r="5" fill="black" stroke="none" />
<circle cx="485.41613325178025" cy="548.0" r="5" fill="black" stroke="none" />
<path d="M581.4161332517803,380.0 A145.01236758867032,145.01236758867032,0,0,1,587.6603879449751,384.48271497733293" stroke="grey" stroke-width="5" fill="none" />
<path d="M587.6603879449751,384.48271497733293 L621.4161332517803,340.0" stroke="grey" stroke-width="5" />
<circle cx="587.6603879449751" cy="384.48271497733293" r="2.5" fill="grey" stroke="none" />
<circle cx="581.4161332517803" cy="380.0" r="5" fill="black" stroke="none" />
<circle cx="621.4161332517803" cy="340.0" r="5" fill="black" stroke="none" />
<path d="M581.4161332517803,380.0 L579.170457529813,383.3099224425546" stroke="grey" stroke-width="5" />
<circle cx="579.170457529813" cy="383.3099224425546" r="2.5" fill="grey" stroke="none" />
<path d="M579.170457529813,383.3099224425546 A141.0125368392561,141.0125368392561,0,0,1,629.4161332517803,444.0" stroke="grey" stroke-width="5" fill="none" />
<circle cx="581.4161332517803" cy="380.0" r="5" fill="black" stroke="none" />
<circle cx="629.4161332517803" cy="444.0" r="5" fill="black" stroke="none" />
<path d="M533.4161332517803,388.0 L528.2518985043837,405.3088336508117" stroke="grey" stroke-width="5" />
<circle cx="528.2518985043837" cy="405.3088336508117" r="2.5" fill="grey" stroke="none" />
<path d="M528.2518985043837,405.3088336508117 A98.81592358355834,98.81592358355834,0,0,1,581.4161332517803,444.0" stroke="grey" stroke-width="5" fill="none" />
<circle cx="533.4161332517803" cy="388.0" r="5" fill="black" stroke="none" />
<circle cx="581.4161332517803" cy="444.0" r="5" fill="black" stroke="none" />
<path d="M485.41613325178025,500.0 L533.4161332517803,500.0" stroke="grey" stroke-width="5" />
<circle cx="485.41613325178025" cy="500.0" r="5" fill="black" stroke="none" />
<circle cx="533.4161332517803" cy="500.0" r="5" fill="black" stroke="none" />
<path d="M485.4161332517803,548.0 A50.16661409074594,50.16661409074594,0,0,0,543.2152113159407,525.4781215996867" stroke="grey" stroke-width="5" fill="none" />
<path d="M543.2152113159407,525.4781215996867 L581.4161332517803,548.0" stroke="grey" stroke-width="5" />
<circle cx="543.2152113159407" cy="525.4781215996867" r="2.5" fill="grey" stroke="none" />
<circle cx="485.41613325178025" cy="548.0" r="5" fill="black" stroke="none" />
<circle cx="581.4161332517803" cy="548.0" r="5" fill="black" stroke="none" />
<path d="M485.4161332517803,604.0 A105.0175660036445,105.0175660036445,0,0,0,564.7354360620217,582.6922758617136" stroke="grey" stroke-width="5" fill="none" />
<path d="M564.7354360620216,582.6922758617136 L581.4161332517803,604.0" stroke="grey" stroke-width="5" />
<circle cx="564.7354360620216" cy="582.6922758617136" r="2.5" fill="grey" stroke="none" />
<circle cx="485.41613325178025" cy="604.0" r="5" fill="black" stroke="none" />
<circle cx="581.4161332517803" cy="604.0" r="5" fill="black" stroke="none" />
<path d="M629.4161332517803,444.0 L590.6896295927597,460.7574486303493" stroke="grey" stroke-width="5" />
<circle cx="590.6896295927597" cy="460.7574486303493" r="2.5" fill="grey" stroke="none" />
<path d="M590.6896295927597,460.7574486303493 A98.81592358355834,98.81592358355834,0,0,0,581.4161332517803,444.0" stroke="grey" stroke-width="5" fill="none" />
<circle cx="629.4161332517803" cy="444.0" r="5" fill="black" stroke="none" />
<circle cx="581.4161332517803" cy="444.0" r="5" fill="black" stroke="none" />
<path d="M581.4161332517803,444.0 L527.5321249746318,481.06273367452434" stroke="grey" stroke-width="5" />
<circle cx="527.5321249746318" cy="481.06273367452434" r="2.5" fill="grey" stroke="none" />
<path d="M527.5321249746318,481.06273367452434 A33.41613325178028,33.41613325178028,0,0,1,533.4161332517803,500.0" stroke="grey" stroke-width="5" fill="none" />
<circle cx="581.4161332517803" cy="444.0" r="5" fill="black" stroke="none" />
<circle cx="533.4161332517803" cy="500.0" r="5" fill="black" stroke="none" />
<path d="M533.4161332517803,500.0 A33.41613325178028,33.41613325178028,0,0,1,528.785782856007,516.9710537936672" stroke="grey" stroke-width="5" fill="none" />
<path d="M528.785782856007,516.9710537936672 L581.4161332517803,548.0" stroke="grey" stroke-width="5" />
<circle cx="528.785782856007" cy="516.9710537936672" r="2.5" fill="grey" stroke="none" />
<circle cx="533.4161332517803" cy="500.0" r="5" fill="black" stroke="none" />
<circle cx="581.4161332517803" cy="548.0" r="5" fill="black" stroke="none" />
<path d="M581.4161332517803,548.0 A94.51236296734753,94.51236296734753,0,0,1,558.2597679871097,574.4203345044874" stroke="grey" stroke-width="5" fill="none" />
<path d="M558.2597679871096,574.4203345044874 L581.4161332517803,604.0" stroke="grey" stroke-width="5" />
<circle cx="558.2597679871096" cy="574.4203345044874" r="2.5" fill="grey" stroke="none" />
<circle cx="581.4161332517803" cy="548.0" r="5" fill="black" stroke="none" />
<circle cx="581.4161332517803" cy="604.0" r="5" fill="black" stroke="none" />
<path d="M581.4161332517803,604.0 A132.0779571074282,132.0779571074282,0,0,0,584.5811851779931,601.442643240196" stroke="grey" stroke-width="5" fill="none" />
<path d="M584.5811851779931,601.442643240196 L653.4161332517803,684.0" stroke="grey" stroke-width="5" />
<circle cx="584.5811851779931" cy="601.442643240196" r="2.5" fill="grey" stroke="none" />
<circle cx="581.4161332517803" cy="604.0" r="5" fill="black" stroke="none" />
<circle cx="653.4161332517803" cy="684.0" r="5" fill="black" stroke="none" />
<path d="M629.4161332517803,444.0 L601.1063699720107,456.2499931332579" stroke="grey" stroke-width="5" />
<circle cx="601.1063699720107" cy="456.2499931332579" r="2.5" fill="grey" stroke="none" />
<path d="M601.1063699720107,456.2499931332579 A110.16606169668178,110.16606169668178,0,0,1,605.4161332517803,468.0" stroke="grey" stroke-width="5" fill="none" />
<circle cx="629.4161332517803" cy="444.0" r="5" fill="black" stroke="none" />
<circle cx="605.4161332517803" cy="468.0" r="5" fill="black" stroke="none" />
<path d="M605.4161332517803,468.0 L577.9057889474584,476.3510084327954" stroke="grey" stroke-width="5" />
<circle cx="577.9057889474584" cy="476.3510084327954" r="2.5" fill="grey" stroke="none" />
<path d="M577.9057889474584,476.3510084327954 A81.41613325178028,81.41613325178028,0,0,1,581.4161332517803,500.0" stroke="grey" stroke-width="5" fill="none" />
<circle cx="605.4161332517803" cy="468.0" r="5" fill="black" stroke="none" />
<circle cx="581.4161332517803" cy="500.0" r="5" fill="black" stroke="none" />
<path d="M581.4161332517803,500.0 A81.41613325178028,81.41613325178028,0,0,1,570.1345998085109,541.3488169525039" stroke="grey" stroke-width="5" fill="none" />
<path d="M570.1345998085109,541.3488169525039 L581.4161332517803,548.0" stroke="grey" stroke-width="5" />
<circle cx="570.1345998085109" cy="541.3488169525039" r="2.5" fill="grey" stroke="none" />
<circle cx="581.4161332517803" cy="500.0" r="5" fill="black" stroke="none" />
<circle cx="581.4161332517803" cy="548.0" r="5" fill="black" stroke="none" />
<path d="M581.4161332517803,444.0 A98.81592358355834,98.81592358355834,0,0,1,594.5553685722423,471.2968812175564" stroke="grey" stroke-width="5" fill="none" />
<path d="M594.5553685722423,471.2968812175564 L605.4161332517803,468.0" stroke="grey" stroke-width="5" />
<circle cx="594.5553685722423" cy="471.2968812175564" r="2.5" fill="grey" stroke="none" />
<circle cx="581.4161332517803" cy="444.0" r="5" fill="black" stroke="none" />
<circle cx="605.4161332517803" cy="468.0" r="5" fill="black" stroke="none" />
<path d="M533.4161332517803,500.0 A33.41613325178028,33.41613325178028,0,0,1,533.4161332517803,500.0" stroke="grey" stroke-width="5" fill="none" />
<path d="M533.4161332517803,500.0 L581.4161332517803,500.0" stroke="grey" stroke-width="5" />
<circle cx="533.4161332517803" cy="500.0" r="2.5" fill="grey" stroke="none" />
<circle cx="533.4161332517803" cy="500.0" r="5" fill="black" stroke="none" />
<circle cx="581.4161332517803" cy="500.0" r="5" fill="black" stroke="none" />
<path d="M629.4161332517803,444.0 L618.7733794544428,448.60525436570873" stroke="grey" stroke-width="5" />
<circle cx="618.7733794544428" cy="448.60525436570873" r="2.5" fill="grey" stroke="none" />
<path d="M618.7733794544428,448.60525436570873 A129.41613325178028,129.41613325178028,0,0,1,629.4161332517803,500.0" stroke="grey" stroke-width="5" fill="none" />
<circle cx="629.4161332517803" cy="444.0" r="5" fill="black" stroke="none" />
<circle cx="629.4161332517803" cy="500.0" r="5" fill="black" stroke="none" />
<path d="M605.4161332517803,468.0 A110.16606169668178,110.16606169668178,0,0,1,610.1660616966818,500.0" stroke="grey" stroke-width="5" fill="none" />
<path d="M610.1660616966818,500.0 L629.4161332517803,500.0" stroke="grey" stroke-width="5" />
<circle cx="610.1660616966818" cy="500.0" r="2.5" fill="grey" stroke="none" />
<circle cx="605.4161332517803" cy="468.0" r="5" fill="black" stroke="none" />
<circle cx="629.4161332517803" cy="500.0" r="5" fill="black" stroke="none" />
<path d="M581.4161332517803,500.0 A81.41613325178028,81.41613325178028,0,0,1,581.4161332517803,500.0" stroke="grey" stroke-width="5" fill="none" />
<path d="M581.4161332517803,500.0 L629.4161332517803,500.0" stroke="grey" stroke-width="5" />
<circle cx="581.4161332517803" cy="500.0" r="2.5" fill="grey" stroke="none" />
<circle cx="581.4161332517803" cy="500.0" r="5" fill="black" stroke="none" />
<circle cx="629.4161332517803" cy="500.0" r="5" fill="black" stroke="none" />
<path d="M581.4161332517803,548.0 A94.51236296734753,94.51236296734753,0,0,0,594.5123629673475,500.0" stroke="grey" stroke-width="5" fill="none" />
<path d="M594.5123629673475,500.0 L629.4161332517803,500.0" stroke="grey" stroke-width="5" />
<circle cx="594.5123629673475" cy="500.0" r="2.5" fill="grey" stroke="none" />
<circle cx="581.4161332517803" cy="548.0" r="5" fill="black" stroke="none" />
<circle cx="629.4161332517803" cy="500.0" r="5" fill="black" stroke="none" />
<path d="M629.4161332517803,500.0 A129.41613325178028,129.41613325178028,0,0,1,613.0921390160047,562.9182297798279" stroke="grey" stroke-width="5" fill="none" />
<path d="M613.0921390160047,562.9182297798279 L629.4161332517803,572.0" stroke="grey" stroke-width="5" />
<circle cx="613.0921390160047" cy="562.9182297798279" r="2.5" fill="grey" stroke="none" />
<circle cx="629.4161332517803" cy="500.0" r="5" fill="black" stroke="none" />
<circle cx="629.4161332517803" cy="572.0" r="5" fill="black" stroke="none" />
<path d="M629.4161332517803,572.0 L615.4182118629919,564.2123284426063" stroke="grey" stroke-width="5" />
<circle cx="615.4182118629919" cy="564.2123284426063" r="2.5" fill="grey" stroke="none" />
<path d="M615.4182118629919,564.2123284426063 A132.0779571074282,132.0779571074282,0,0,1,581.4161332517803,604.0" stroke="grey" stroke-width="5" fill="none" />
<circle cx="629.4161332517803" cy="572.0" r="5" fill="black" stroke="none" />
<circle cx="581.4161332517803" cy="604.0" r="5" fill="black" stroke="none" />
<path d="M629.4161332517803,444.0 A141.0125368392561,141.0125368392561,0,0,0,616.3103015154915,420.2726564645604" stroke="grey" stroke-width="5" fill="none" />
<path d="M616.3103015154915,420.2726564645604 L733.4161332517803,340.0" stroke="grey" stroke-width="5" />
<circle cx="616.3103015154915" cy="420.2726564645604" r="2.5" fill="grey" stroke="none" />
<circle cx="629.4161332517803" cy="444.0" r="5" fill="black" stroke="none" />
<circle cx="733.4161332517803" cy="340.0" r="5" fill="black" stroke="none" />
<path d="M629.4161332517803,444.0 A141.0125368392561,141.0125368392561,0,0,1,639.9354321373343,482.6043000031595" stroke="grey" stroke-width="5" fill="none" />
<path d="M639.9354321373343,482.6043000031595 L757.4161332517803,468.0" stroke="grey" stroke-width="5" />
<circle cx="639.9354321373343" cy="482.6043000031595" r="2.5" fill="grey" stroke="none" />
<circle cx="629.4161332517803" cy="444.0" r="5" fill="black" stroke="none" />
<circle cx="757.4161332517803" cy="468.0" r="5" fill="black" stroke="none" />
<path d="M757.4161332517803,468.0 A259.39750511193876,259.39750511193876,0,0,1,758.2914775462864,476.0713919072899" stroke="grey" stroke-width="5" fill="none" />
<path d="M758.2914775462864,476.0713919072899 L845.4161332517803,468.0" stroke="grey" stroke-width="5" />
<circle cx="758.2914775462864" cy="476.0713919072899" r="2.5" fill="grey" stroke="none" />
<circle cx="757.4161332517803" cy="468.0" r="5" fill="black" stroke="none" />
<circle cx="845.4161332517803" cy="468.0" r="5" fill="black" stroke="none" />
<path d="M629.4161332517803,500.0 A129.41613325178028,129.41613325178028,0,0,1,613.983343809019,561.2889295057234" stroke="grey" stroke-width="5" fill="none" />
<path d="M613.983343809019,561.2889295057234 L693.4161332517803,604.0" stroke="grey" stroke-width="5" />
<circle cx="613.983343809019" cy="561.2889295057234" r="2.5" fill="grey" stroke="none" />
<circle cx="629.4161332517803" cy="500.0" r="5" fill="black" stroke="none" />
<circle cx="693.4161332517803" cy="604.0" r="5" fill="black" stroke="none" />
<circle cx="500" cy="500" r="5" fill="red" stroke="none" />
</svg>