<?xml version="1.0" encoding="UTF-8"?>
<svg xmlns="http://www.w3.org/2000/svg" xmlns:xlink="http://www.w3.org/1999/xlink"
     width="1000" height="1000" viewBox="0 0 1000 1000">
<defs>
</defs>
<rect x="0" y="0" width="1000" height="1000" fill="white" />
<path d="M271.70856785570504,684.0 L383.09991873643605,594.2199834240836" stroke="grey" stroke-width="5" />
<circle cx="383.09991873643605" cy="594.2199834240836" r="2.5" fill="grey" stroke="none" />
<path d="M383.0999187364361,594.2199834240836 A150.14337906102432,150.14337906102432,0,0,0,391.70856785570504,604.0" stroke="grey" stroke-width="5" fill="none" />
<circle cx="271.70856785570504" cy="684.0" r="5" fill="black" stroke="none" />
<circle cx="391.70856785570504" cy="604.0" r="5" fill="black" stroke="none" />
<path d="M391.70856785570504,604.0 L414.56560381779866,582.0487551693815" stroke="grey" stroke-width="5" />
<circle cx="414.56560381779866" cy="582.0487551693815" r="2.5" fill="grey" stroke="none" />
<path d="M414.56560381779866,582.0487551693815 A118.4526668161694,118.4526668161694,0,0,1,391.70856785570504,548.0" stroke="grey" stroke-width="5" fill="none" />
<circle cx="391.70856785570504" cy="604.0" r="5" fill="black" stroke="none" />
<circle cx="391.70856785570504" cy="548.0" r="5" fill="black" stroke="none" />
<path d="M391.70856785570504,548.0 A118.4526668161694,118.4526668161694,0,0,1,384.4638094866882,526.12322639978" stroke="grey" stroke-width="5" fill="none" />
<path d="M384.4638094866882,526.12322639978 L287.70856785570504,548.0" stroke="grey" stroke-width="5" />
<circle cx="384.4638094866882" cy="526.12322639978" r="2.5" fill="grey" stroke="none" />
<circle cx="391.70856785570504" cy="548.0" r="5" fill="black" stroke="none" />
<circle cx="287.70856785570504" cy="548.0" r="5" fill="black" stroke="none" />
<path d="M287.70856785570504,548.0 L323.2966744643559,539.9533770159214" stroke="grey" stroke-width="5" />
<circle cx="323.2966744643559" cy="539.9533770159214" r="2.5" fill="grey" stroke="none" />
<path d="M323.2966744643559,539.9533770159214 A181.1638418402861,181.1638418402861,0,0,1,327.70856785570504,444.0" stroke="grey" stroke-width="5" fill="none" />
<circle cx="287.70856785570504" cy="548.0" r="5" fill="black" stroke="none" />
<circle cx="327.70856785570504" cy="444.0" r="5" fill="black" stroke="none" />
<path d="M327.70856785570504,444.0 L351.5332027661799,451.7437370992959" stroke="grey" stroke-width="5" />
<circle cx="351.5332027661799" cy="451.7437370992959" r="2.5" fill="grey" stroke="none" />
<path d="M351.5332027661799,451.7437370992959 A156.11232107047195,156.11232107047195,0,0,1,439.70856785570504,356.0" stroke="grey" stroke-width="5" fill="none" />
<circle cx="327.70856785570504" cy="444.0" r="5" fill="black" stroke="none" />
<circle cx="439.70856785570504" cy="356.0" r="5" fill="black" stroke="none" />
<path d="M439.70856785570504,356.0 L453.4128628659965,388.73132535248135" stroke="grey" stroke-width="5" />
<circle cx="453.4128628659965" cy="388.73132535248135" r="2.5" fill="grey" stroke="none" />
<path d="M453.4128628659965,388.73132535248135 A120.62785459485636,120.62785459485636,0,0,1,487.70856785570504,380.0" stroke="grey" stroke-width="5" fill="none" />
<circle cx="439.70856785570504" cy="356.0" r="5" fill="black" stroke="none" />
<circle cx="487.70856785570504" cy="380.0" r="5" fill="black" stroke="none" />
<path d="M487.70856785570504,380.0 A120.62785459485636,120.62785459485636,0,0,0,442.82231019996823,393.7842238964044" stroke="grey" stroke-width="5" fill="none" />
<path d="M442.8223101999682,393.7842238964044 L439.70856785570504,388.0" stroke="grey" stroke-width="5" />
<circle cx="442.8223101999682" cy="393.7842238964044" r="2.5" fill="grey" stroke="none" />
<circle cx="487.70856785570504" cy="380.0" r="5" fill="black" stroke="none" />
<circle cx="439.70856785570504" cy="388.0" r="5" fill="black" stroke="none" />
<path d="M439.70856785570504,356.0 L450.87585337681526,382.67193426739715" stroke="grey" stroke-width="5" />
<circle cx="450.87585337681526" cy="382.67193426739715" r="2.5" fill="grey" stroke="none" />
<path d="M450.87585337681526,382.6719342673972 A127.19692130712176,127.19692130712176,0,0,0,439.70856785570504,388.0" stroke="grey" stroke-width="5" fill="none" />
<circle cx="439.70856785570504" cy="356.0" r="5" fill="black" stroke="none" />
<circle cx="439.70856785570504" cy="388.0" r="5" fill="black" stroke="none" />
<path d="M439.70856785570504,388.0 L448.66978331046505,404.64674556960404" stroke="grey" stroke-width="5" />
<circle cx="448.66978331046505" cy="404.64674556960404" r="2.5" fill="grey" stroke="none" />
<path d="M448.6697833104651,404.64674556960404 A108.29143214429496,108.29143214429496,0,0,0,391.70856785570504,500.0" stroke="grey" stroke-width="5" fill="none" />
<circle cx="439.70856785570504" cy="388.0" r="5" fill="black" stroke="none" />
<circle cx="391.70856785570504" cy="500.0" r="5" fill="black" stroke="none" />
<path d="M327.70856785570504,444.0 L397.0120872710023,466.52576949970614" stroke="grey" stroke-width="5" />
<circle cx="397.0120872710023" cy="466.52576949970614" r="2.5" fill="grey" stroke="none" />
<path d="M397.0120872710023,466.52576949970614 A108.29143214429496,108.29143214429496,0,0,0,391.70856785570504,500.0" stroke="grey" stroke-width="5" fill="none" />
<circle cx="327.70856785570504" cy="444.0" r="5" fill="black" stroke="none" />
<circle cx="391.70856785570504" cy="500.0" r="5" fill="black" stroke="none" />
<path d="M391.70856785570504,500.0 A108.29143214429496,108.29143214429496,0,0,0,400.99814051411767,543.8824121283237" stroke="grey" stroke-width="5" fill="none" />
<path d="M400.99814051411767,543.8824121283237 L391.70856785570504,548.0" stroke="grey" stroke-width="5" />
<circle cx="400.99814051411767" cy="543.8824121283237" r="2.5" fill="grey" stroke="none" />
<circle cx="391.70856785570504" cy="500.0" r="5" fill="black" stroke="none" />
<circle cx="391.70856785570504" cy="548.0" r="5" fill="black" stroke="none" />
<path d="M487.70856785570504,380.0 A120.62785459485636,120.62785459485636,0,0,1,520.583774988607,381.14131284850816" stroke="grey" stroke-width="5" fill="none" />
<path d="M520.583774988607,381.14131284850816 L527.708567855705,340.0" stroke="grey" stroke-width="5" />
<circle cx="520.583774988607" cy="381.14131284850816" r="2.5" fill="grey" stroke="none" />
<circle cx="487.70856785570504" cy="380.0" r="5" fill="black" stroke="none" />
<circle cx="527.708567855705" cy="340.0" r="5" fill="black" stroke="none" />
<path d="M487.70856785570504,380.0 L493.23249749310855,433.9295623737461" stroke="grey" stroke-width="5" />
<circle cx="493.23249749310855" cy="433.9295623737461" r="2.5" fill="grey" stroke="none" />
<path d="M493.23249749310855,433.9295623737461 A66.41612619165237,66.41612619165237,0,0,1,535.708567855705,444.0" stroke="grey" stroke-width="5" fill="none" />
<circle cx="487.70856785570504" cy="380.0" r="5" fill="black" stroke="none" />
<circle cx="535.708567855705" cy="444.0" r="5" fill="black" stroke="none" />
<path d="M439.70856785570504,388.0 L472.824090263367,449.51684207436915" stroke="grey" stroke-width="5" />
<circle cx="472.824090263367" cy="449.51684207436915" r="2.5" fill="grey" stroke="none" />
<path d="M472.824090263367,449.51684207436915 A57.33305594644164,57.33305594644164,0,0,1,487.70856785570504,444.0" stroke="grey" stroke-width="5" fill="none" />
<circle cx="439.70856785570504" cy="388.0" r="5" fill="black" stroke="none" />
<circle cx="487.70856785570504" cy="444.0" r="5" fill="black" stroke="none" />
<path d="M391.70856785570504,500.0 L439.70856785570504,500.0" stroke="grey" stroke-width="5" />
<circle cx="439.70856785570504" cy="500.0" r="2.5" fill="grey" stroke="none" />
<path d="M439.70856785570504,500.0 A60.29143214429496,60.29143214429496,0,0,1,439.70856785570504,500.0" stroke="grey" stroke-width="5" fill="none" />
<circle cx="391.70856785570504" cy="500.0" r="5" fill="black" stroke="none" />
<circle cx="439.70856785570504" cy="500.0" r="5" fill="black" stroke="none" />
<path d="M391.70856785570504,548.0 L454.7016881667416,520.0784025563462" stroke="grey" stroke-width="5" />
<circle cx="454.7016881667416" cy="520.0784025563462" r="2.5" fill="grey" stroke="none" />
<path d="M454.7016881667416,520.0784025563462 A49.54875683766251,49.54875683766251,0,0,0,487.70856785570504,548.0" stroke="grey" stroke-width="5" fill="none" />
<circle cx="391.70856785570504" cy="548.0" r="5" fill="black" stroke="none" />
<circle cx="487.70856785570504" cy="548.0" r="5" fill="black" stroke="none" />
<path d="M391.70856785570504,604.0 L424.46757927759535,572.5391806127658" stroke="grey" stroke-width="5" />
<circle cx="424.46757927759535" cy="572.5391806127658" r="2.5" fill="grey" stroke="none" />
<path d="M424.46757927759535,572.5391806127658 A104.72382395690967,104.72382395690967,0,0,0,487.70856785570504,604.0" stroke="grey" stroke-width="5" fill="none" />
<circle cx="391.70856785570504" cy="604.0" r="5" fill="black" stroke="none" />
<circle cx="487.70856785570504" cy="604.0" r="5" fill="black" stroke="none" />
<path d="M535.708567855705,444.0 L530.8250636709938,451.65856069750316" stroke="grey" stroke-width="5" />
<circle cx="530.8250636709938" cy="451.65856069750316" r="2.5" fill="grey" stroke="none" />
<path d="M530.8250636709938,451.65856069750316 A57.33305594644164,57.33305594644164,0,0,0,487.70856785570504,444.0" stroke="grey" stroke-width="5" fill="none" />
<circle cx="535.708567855705" cy="444.0" r="5" fill="black" stroke="none" />
<circle cx="487.70856785570504" cy="444.0" r="5" fill="black" stroke="none" />
<path d="M487.70856785570504,444.0 A57.33305594644164,57.33305594644164,0,0,0,442.6669440535584,500.0" stroke="grey" stroke-width="5" fill="none" />
<path d="M442.6669440535584,500.0 L439.70856785570504,500.0" stroke="grey" stroke-width="5" />
<circle cx="442.6669440535584" cy="500.0" r="2.5" fill="grey" stroke="none" />
<circle cx="487.70856785570504" cy="444.0" r="5" fill="black" stroke="none" />
<circle cx="439.70856785570504" cy="500.0" r="5" fill="black" stroke="none" />
<path d="M439.70856785570504,500.0 L450.4512431623375,500.0" stroke="grey" stroke-width="5" />
<circle cx="450.4512431623375" cy="500.0" r="2.5" fill="grey" stroke="none" />
<path d="M450.4512431623375,500.0 A49.54875683766251,49.54875683766251,0,0,0,487.70856785570504,548.0" stroke="grey" stroke-width="5" fill="none" />
<circle cx="439.70856785570504" cy="500.0" r="5" fill="black" stroke="none" />
<circle cx="487.70856785570504" cy="548.0" r="5" fill="black" stroke="none" />
<path d="M487.70856785570504,548.0 A49.54875683766251,49.54875683766251,0,0,0,494.18446386416434,549.2062886591805" stroke="grey" stroke-width="5" fill="none" />
<path d="M494.18446386416434,549.2062886591805 L487.70856785570504,604.0" stroke="grey" stroke-width="5" />
<circle cx="494.18446386416434" cy="549.2062886591805" r="2.5" fill="grey" stroke="none" />
<circle cx="487.70856785570504" cy="548.0" r="5" fill="black" stroke="none" />
<circle cx="487.70856785570504" cy="604.0" r="5" fill="black" stroke="none" />
<path d="M487.70856785570504,604.0 A104.72382395690967,104.72382395690967,0,0,0,532.3239030741357,599.6104642806753" stroke="grey" stroke-width="5" fill="none" />
<path d="M532.3239030741357,599.6104642806753 L559.708567855705,684.0" stroke="grey" stroke-width="5" />
<circle cx="532.3239030741357" cy="599.6104642806753" r="2.5" fill="grey" stroke="none" />
<circle cx="487.70856785570504" cy="604.0" r="5" fill="black" stroke="none" />
<circle cx="559.708567855705" cy="684.0" r="5" fill="black" stroke="none" />
<path d="M535.708567855705,444.0 L518.3202728984975,471.2692122948877" stroke="grey" stroke-width="5" />
<circle cx="518.3202728984975" cy="471.2692122948877" r="2.5" fill="grey" stroke="none" />
<path d="M518.3202728984975,471.2692122948877 A34.07477896086267,34.07477896086267,0,0,0,511.70856785570504,468.0" stroke="grey" stroke-width="5" fill="none" />
<circle cx="535.708567855705" cy="444.0" r="5" fill="black" stroke="none" />
<circle cx="511.70856785570504" cy="468.0" r="5" fill="black" stroke="none" />
<path d="M511.70856785570504,468.0 L504.2235069953225,488.4569807754527" stroke="grey" stroke-width="5" />
<circle cx="504.2235069953225" cy="488.4569807754527" r="2.5" fill="grey" stroke="none" />
<path d="M504.2235069953225,488.4569807754527 A12.291432144294959,12.291432144294959,0,0,0,487.70856785570504,500.0" stroke="grey" stroke-width="5" fill="none" />
<circle cx="511.70856785570504" cy="468.0" r="5" fill="black" stroke="none" />
<circle cx="487.70856785570504" cy="500.0" r="5" fill="black" stroke="none" />
<path d="M487.70856785570504,500.0 A12.291432144294959,12.291432144294959,0,0,0,496.95089617176893,511.9072360353893" stroke="grey" stroke-width="5" fill="none" />
<path d="M496.95089617176893,511.9072360353893 L487.70856785570504,548.0" stroke="grey" stroke-width="5" />
<circle cx="496.95089617176893" cy="511.9072360353893" r="2.5" fill="grey" stroke="none" />
<circle cx="487.70856785570504" cy="500.0" r="5" fill="black" stroke="none" />
<circle cx="487.70856785570504" cy="548.0" r="5" fill="black" stroke="none" />
<path d="M487.70856785570504,444.0 L492.6948280269493,466.7174967336319" stroke="grey" stroke-width="5" />
<circle cx="492.6948280269493" cy="466.7174967336319" r="2.5" fill="grey" stroke="none" />
<path d="M492.6948280269493,466.7174967336319 A34.07477896086267,34.07477896086267,0,0,1,511.70856785570504,468.0" stroke="grey" stroke-width="5" fill="none" />
<circle cx="487.70856785570504" cy="444.0" r="5" fill="black" stroke="none" />
<circle cx="511.70856785570504" cy="468.0" r="5" fill="black" stroke="none" />
<path d="M439.70856785570504,500.0 L487.70856785570504,500.0" stroke="grey" stroke-width="5" />
<circle cx="487.70856785570504" cy="500.0" r="2.5" fill="grey" stroke="none" />
<path d="M487.70856785570504,500.0 A12.291432144294959,12.291432144294959,0,0,1,487.70856785570504,500.0" stroke="grey" stroke-width="5" fill="none" />
<circle cx="439.70856785570504" cy="500.0" r="5" fill="black" stroke="none" />
<circle cx="487.70856785570504" cy="500.0" r="5" fill="black" stroke="none" />
<path d="M535.708567855705,444.0 L519.1986779630299,469.8916526063392" stroke="grey" stroke-width="5" />
<circle cx="519.1986779630299" cy="469.8916526063392" r="2.5" fill="grey" stroke="none" />
<path d="M519.1986779630299,469.8916526063392 A35.70856785570504,35.70856785570504,0,0,1,535.708567855705,500.0" stroke="grey" stroke-width="5" fill="none" />
<circle cx="535.708567855705" cy="444.0" r="5" fill="black" stroke="none" />
<circle cx="535.708567855705" cy="500.0" r="5" fill="black" stroke="none" />
<path d="M511.70856785570504,468.0 A34.07477896086267,34.07477896086267,0,0,1,534.0747789608627,500.0" stroke="grey" stroke-width="5" fill="none" />
<path d="M534.0747789608627,500.0 L535.708567855705,500.0" stroke="grey" stroke-width="5" />
<circle cx="534.0747789608627" cy="500.0" r="2.5" fill="grey" stroke="none" />
<circle cx="511.70856785570504" cy="468.0" r="5" fill="black" stroke="none" />
<circle cx="535.708567855705" cy="500.0" r="5" fill="black" stroke="none" />
<path d="M487.70856785570504,500.0 L535.708567855705,500.0" stroke="grey" stroke-width="5" />
<circle cx="487.70856785570504" cy="500.0" r="5" fill="black" stroke="none" />
<circle cx="535.708567855705" cy="500.0" r="5" fill="black" stroke="none" />
<path d="M487.70856785570504,548.0 L491.14186779284177,534.5924169740421" stroke="grey" stroke-width="5" />
<circle cx="491.14186779284177" cy="534.5924169740421" r="2.5" fill="grey" stroke="none" />
<path d="M491.14186779284177,534.5924169740421 A35.70856785570504,35.70856785570504,0,0,0,535.708567855705,500.0" stroke="grey" stroke-width="5" fill="none" />
<circle cx="487.70856785570504" cy="548.0" r="5" fill="black" stroke="none" />
<circle cx="535.708567855705" cy="500.0" r="5" fill="black" stroke="none" />
<path d="M535.708567855705,500.0 A35.70856785570504,35.70856785570504,0,0,1,515.8656839868684,531.9903405723403" stroke="grey" stroke-width="5" fill="none" />
<path d="M515.8656839868684,531.9903405723403 L535.708567855705,572.0" stroke="grey" stroke-width="5" />
<circle cx="515.8656839868684" cy="531.9903405723403" r="2.5" fill="grey" stroke="none" />
<circle cx="535.708567855705" cy="500.0" r="5" fill="black" stroke="none" />
<circle cx="535.708567855705" cy="572.0" r="5" fill="black" stroke="none" />
<path d="M535.708567855705,572.0 A80.36853749014904,80.36853749014904,0,0,1,490.5671471135082,579.8130509674157" stroke="grey" stroke-width="5" fill="none" />
<path d="M490.5671471135082,579.8130509674157 L487.70856785570504,604.0" stroke="grey" stroke-width="5" />
<circle cx="490.5671471135082" cy="579.8130509674157" r="2.5" fill="grey" stroke="none" />
<circle cx="535.708567855705" cy="572.0" r="5" fill="black" stroke="none" />
<circle cx="487.70856785570504" cy="604.0" r="5" fill="black" stroke="none" />
<path d="M535.708567855705,444.0 A66.41612619165237,66.41612619165237,0,0,1,543.6836916513762,449.97163902332017" stroke="grey" stroke-width="5" fill="none" />
<path d="M543.6836916513762,449.97163902332017 L639.708567855705,340.0" stroke="grey" stroke-width="5" />
<circle cx="543.6836916513762" cy="449.97163902332017" r="2.5" fill="grey" stroke="none" />
<circle cx="535.708567855705" cy="444.0" r="5" fill="black" stroke="none" />
<circle cx="639.708567855705" cy="340.0" r="5" fill="black" stroke="none" />
<path d="M535.708567855705,444.0 A66.41612619165237,66.41612619165237,0,0,1,565.1825435603504,487.25881350468046" stroke="grey" stroke-width="5" fill="none" />
<path d="M565.1825435603504,487.25881350468046 L663.708567855705,468.0" stroke="grey" stroke-width="5" />
<circle cx="565.1825435603504" cy="487.25881350468046" r="2.5" fill="grey" stroke="none" />
<circle cx="535.708567855705" cy="444.0" r="5" fill="black" stroke="none" />
<circle cx="663.708567855705" cy="468.0" r="5" fill="black" stroke="none" />
<path d="M663.708567855705,468.0 A166.80676002298583,166.80676002298583,0,0,1,665.4748901245667,478.96298672271786" stroke="grey" stroke-width="5" fill="none" />
<path d="M665.4748901245667,478.96298672271786 L751.708567855705,468.0" stroke="grey" stroke-width="5" />
<circle cx="665.4748901245667" cy="478.96298672271786" r="2.5" fill="grey" stroke="none" />
<circle cx="663.708567855705" cy="468.0" r="5" fill="black" stroke="none" />
<circle cx="751.708567855705" cy="468.0" r="5" fill="black" stroke="none" />
<path d="M535.708567855705,500.0 A35.70856785570504,35.70856785570504,0,0,1,524.7123624459907,525.7759764246376" stroke="grey" stroke-width="5" fill="none" />
<path d="M524.7123624459907,525.7759764246376 L599.708567855705,604.0" stroke="grey" stroke-width="5" />
<circle cx="524.7123624459907" cy="525.7759764246376" r="2.5" fill="grey" stroke="none" />
<circle cx="535.708567855705" cy="500.0" r="5" fill="black" stroke="none" />
<circle cx="599.708567855705" cy="604.0" r="5" fill="black" stroke="none" />
<circle cx="500" cy="500" r="5" fill="red" stroke="none" />
</svg>