<?xml version="1.0" encoding="UTF-8"?>
<svg xmlns="http://www.w3.org/2000/svg" xmlns:xlink="http://www.w3.org/1999/xlink"
     width="1000" height="1000" viewBox="0 0 1000 1000">
<defs>
</defs>
<rect x="0" y="0" width="1000" height="1000" fill="white" />
<path d="M372.8140989409441,684.0 L440.723643050901,585.7551787408407" stroke="grey" stroke-width="5" />
<circle cx="440.723643050901" cy="585.7551787408407" r="2.5" fill="grey" stroke="none" />
<path d="M440.723643050901,585.7551787408407 A104.24796004733398,104.24796004733398,0,0,0,492.8140989409441,604.0" stroke="grey" stroke-width="5" fill="none" />
<circle cx="372.8140989409441" cy="684.0" r="5" fill="black" stroke="none" />
<circle cx="492.8140989409441" cy="604.0" r="5" fill="black" stroke="none" />
<path d="M492.8140989409441,604.0 L496.6544473607271,548.4194635613447" stroke="grey" stroke-width="5" />
<circle cx="496.6544473607271" cy="548.4194635613447" r="2.5" fill="grey" stroke="none" />
<path d="M496.65444736072703,548.4194635613447 A48.53490675823474,48.53490675823474,0,0,1,492.8140989409441,548.0" stroke="grey" stroke-width="5" fill="none" />
<circle cx="492.8140989409441" cy="604.0" r="5" fill="black" stroke="none" />
<circle cx="492.8140989409441" cy="548.0" r="5" fill="black" stroke="none" />
<path d="M492.8140989409441,548.0 A48.53490675823474,48.53490675823474,0,0,1,455.4401654700558,519.2368999762053" stroke="grey" stroke-width="5" fill="none" />
<path d="M455.4401654700558,519.2368999762053 L388.8140989409441,548.0" stroke="grey" stroke-width="5" />
<circle cx="455.4401654700558" cy="519.2368999762053" r="2.5" fill="grey" stroke="none" />
<circle cx="492.8140989409441" cy="548.0" r="5" fill="black" stroke="none" />
<circle cx="388.8140989409441" cy="548.0" r="5" fill="black" stroke="none" />
<path d="M388.8140989409441,548.0 L416.8452284906695,535.8986975365503" stroke="grey" stroke-width="5" />
<circle cx="416.8452284906695" cy="535.8986975365503" r="2.5" fill="grey" stroke="none" />
<path d="M416.84522849066946,535.8986975365503 A90.57280226199084,90.57280226199084,0,0,1,428.8140989409441,444.0" stroke="grey" stroke-width="5" fill="none" />
<circle cx="388.8140989409441" cy="548.0" r="5" fill="black" stroke="none" />
<circle cx="428.8140989409441" cy="444.0" r="5" fill="black" stroke="none" />
<path d="M428.8140989409441,444.0 A90.57280226199084,90.57280226199084,0,0,1,524.6982766144022,412.85972434133475" stroke="grey" stroke-width="5" fill="none" />
<path d="M524.6982766144022,412.85972434133475 L540.8140989409442,356.0" stroke="grey" stroke-width="5" />
<circle cx="524.6982766144022" cy="412.85972434133475" r="2.5" fill="grey" stroke="none" />
<circle cx="428.8140989409441" cy="444.0" r="5" fill="black" stroke="none" />
<circle cx="540.8140989409442" cy="356.0" r="5" fill="black" stroke="none" />
<path d="M540.8140989409442,356.0 L540.71025766854,356.3663720041407" stroke="grey" stroke-width="5" />
<circle cx="540.71025766854" cy="356.3663720041407" r="2.5" fill="grey" stroke="none" />
<path d="M540.7102576685401,356.36637200414077 A149.29147387138963,149.29147387138963,0,0,1,588.8140989409442,380.0" stroke="grey" stroke-width="5" fill="none" />
<circle cx="540.8140989409442" cy="356.0" r="5" fill="black" stroke="none" />
<circle cx="588.8140989409442" cy="380.0" r="5" fill="black" stroke="none" />
<path d="M588.8140989409442,380.0 L570.9154313018637,404.1835490344595" stroke="grey" stroke-width="5" />
<circle cx="570.9154313018637" cy="404.1835490344595" r="2.5" fill="grey" stroke="none" />
<path d="M570.9154313018637,404.1835490344595 A119.204826548094,119.204826548094,0,0,0,540.8140989409441,388.0" stroke="grey" stroke-width="5" fill="none" />
<circle cx="588.8140989409442" cy="380.0" r="5" fill="black" stroke="none" />
<circle cx="540.8140989409442" cy="388.0" r="5" fill="black" stroke="none" />
<path d="M540.8140989409442,356.0 L532.5059367307682,385.31279605110046" stroke="grey" stroke-width="5" />
<circle cx="532.5059367307682" cy="385.31279605110046" r="2.5" fill="grey" stroke="none" />
<path d="M532.5059367307682,385.3127960511005 A119.204826548094,119.204826548094,0,0,1,540.8140989409441,388.0" stroke="grey" stroke-width="5" fill="none" />
<circle cx="540.8140989409442" cy="356.0" r="5" fill="black" stroke="none" />
<circle cx="540.8140989409442" cy="388.0" r="5" fill="black" stroke="none" />
<path d="M540.8140989409442,388.0 L502.4603540418375,493.2484200353285" stroke="grey" stroke-width="5" />
<circle cx="502.4603540418375" cy="493.2484200353285" r="2.5" fill="grey" stroke="none" />
<path d="M502.4603540418375,493.2484200353285 A7.18590105905588,7.18590105905588,0,0,0,492.8140989409441,500.0" stroke="grey" stroke-width="5" fill="none" />
<circle cx="540.8140989409442" cy="388.0" r="5" fill="black" stroke="none" />
<circle cx="492.8140989409441" cy="500.0" r="5" fill="black" stroke="none" />
<path d="M428.8140989409441,444.0 L494.3522246299673,495.55704969640755" stroke="grey" stroke-width="5" />
<circle cx="494.3522246299673" cy="495.55704969640755" r="2.5" fill="grey" stroke="none" />
<path d="M494.3522246299673,495.55704969640755 A7.18590105905588,7.18590105905588,0,0,0,492.8140989409441,500.0" stroke="grey" stroke-width="5" fill="none" />
<circle cx="428.8140989409441" cy="444.0" r="5" fill="black" stroke="none" />
<circle cx="492.8140989409441" cy="500.0" r="5" fill="black" stroke="none" />
<path d="M492.8140989409441,500.0 A7.18590105905588,7.18590105905588,0,0,0,498.93608173004725,507.1067047177578" stroke="grey" stroke-width="5" fill="none" />
<path d="M498.93608173004725,507.1067047177578 L492.8140989409441,548.0" stroke="grey" stroke-width="5" />
<circle cx="498.93608173004725" cy="507.1067047177578" r="2.5" fill="grey" stroke="none" />
<circle cx="492.8140989409441" cy="500.0" r="5" fill="black" stroke="none" />
<circle cx="492.8140989409441" cy="548.0" r="5" fill="black" stroke="none" />
<path d="M588.8140989409442,380.0 A149.29147387138963,149.29147387138963,0,0,1,593.6219821629895,383.7121303550336" stroke="grey" stroke-width="5" fill="none" />
<path d="M593.6219821629895,383.7121303550336 L628.8140989409442,340.0" stroke="grey" stroke-width="5" />
<circle cx="593.6219821629895" cy="383.7121303550336" r="2.5" fill="grey" stroke="none" />
<circle cx="588.8140989409442" cy="380.0" r="5" fill="black" stroke="none" />
<circle cx="628.8140989409442" cy="340.0" r="5" fill="black" stroke="none" />
<path d="M588.8140989409442,380.0 L587.9454444973767,381.1736710102458" stroke="grey" stroke-width="5" />
<circle cx="587.9454444973767" cy="381.1736710102458" r="2.5" fill="grey" stroke="none" />
<path d="M587.9454444973767,381.17367101024587 A147.8313149133919,147.8313149133919,0,0,1,636.8140989409442,444.0" stroke="grey" stroke-width="5" fill="none" />
<circle cx="588.8140989409442" cy="380.0" r="5" fill="black" stroke="none" />
<circle cx="636.8140989409442" cy="444.0" r="5" fill="black" stroke="none" />
<path d="M540.8140989409442,388.0 L535.948839527229,401.3510004747268" stroke="grey" stroke-width="5" />
<circle cx="535.948839527229" cy="401.3510004747268" r="2.5" fill="grey" stroke="none" />
<path d="M535.948839527229,401.3510004747268 A104.99497212101069,104.99497212101069,0,0,1,588.8140989409442,444.0" stroke="grey" stroke-width="5" fill="none" />
<circle cx="540.8140989409442" cy="388.0" r="5" fill="black" stroke="none" />
<circle cx="588.8140989409442" cy="444.0" r="5" fill="black" stroke="none" />
<path d="M492.8140989409441,500.0 L540.8140989409442,500.0" stroke="grey" stroke-width="5" />
<circle cx="492.8140989409441" cy="500.0" r="5" fill="black" stroke="none" />
<circle cx="540.8140989409442" cy="500.0" r="5" fill="black" stroke="none" />
<path d="M492.8140989409441,548.0 A48.53490675823474,48.53490675823474,0,0,0,542.698006171617,523.0763394627289" stroke="grey" stroke-width="5" fill="none" />
<path d="M542.698006171617,523.0763394627289 L588.8140989409442,548.0" stroke="grey" stroke-width="5" />
<circle cx="542.698006171617" cy="523.0763394627289" r="2.5" fill="grey" stroke="none" />
<circle cx="492.8140989409441" cy="548.0" r="5" fill="black" stroke="none" />
<circle cx="588.8140989409442" cy="548.0" r="5" fill="black" stroke="none" />
<path d="M492.8140989409441,604.0 A104.24796004733398,104.24796004733398,0,0,0,567.6990977356129,579.2746449996118" stroke="grey" stroke-width="5" fill="none" />
<path d="M567.6990977356129,579.2746449996118 L588.8140989409442,604.0" stroke="grey" stroke-width="5" />
<circle cx="567.6990977356129" cy="579.2746449996118" r="2.5" fill="grey" stroke="none" />
<circle cx="492.8140989409441" cy="604.0" r="5" fill="black" stroke="none" />
<circle cx="588.8140989409442" cy="604.0" r="5" fill="black" stroke="none" />
<path d="M636.8140989409442,444.0 L597.1701598709404,460.22684069189756" stroke="grey" stroke-width="5" />
<circle cx="597.1701598709404" cy="460.22684069189756" r="2.5" fill="grey" stroke="none" />
<path d="M597.1701598709404,460.22684069189756 A104.99497212101069,104.99497212101069,0,0,0,588.8140989409442,444.0" stroke="grey" stroke-width="5" fill="none" />
<circle cx="636.8140989409442" cy="444.0" r="5" fill="black" stroke="none" />
<circle cx="588.8140989409442" cy="444.0" r="5" fill="black" stroke="none" />
<path d="M588.8140989409442,444.0 L534.5242000478718,478.2314381867863" stroke="grey" stroke-width="5" />
<circle cx="534.5242000478718" cy="478.2314381867863" r="2.5" fill="grey" stroke="none" />
<path d="M534.5242000478718,478.2314381867863 A40.81409894094412,40.81409894094412,0,0,1,540.8140989409442,500.0" stroke="grey" stroke-width="5" fill="none" />
<circle cx="588.8140989409442" cy="444.0" r="5" fill="black" stroke="none" />
<circle cx="540.8140989409442" cy="500.0" r="5" fill="black" stroke="none" />
<path d="M540.8140989409442,500.0 A40.81409894094412,40.81409894094412,0,0,1,535.9057174488904,519.4054148845528" stroke="grey" stroke-width="5" fill="none" />
<path d="M535.9057174488904,519.4054148845528 L588.8140989409442,548.0" stroke="grey" stroke-width="5" />
<circle cx="535.9057174488904" cy="519.4054148845528" r="2.5" fill="grey" stroke="none" />
<circle cx="540.8140989409442" cy="500.0" r="5" fill="black" stroke="none" />
<circle cx="588.8140989409442" cy="548.0" r="5" fill="black" stroke="none" />
<path d="M588.8140989409442,548.0 A100.95515920789691,100.95515920789691,0,0,1,565.5607379465893,576.7706572239059" stroke="grey" stroke-width="5" fill="none" />
<path d="M565.5607379465893,576.7706572239059 L588.8140989409442,604.0" stroke="grey" stroke-width="5" />
<circle cx="565.5607379465893" cy="576.7706572239059" r="2.5" fill="grey" stroke="none" />
<circle cx="588.8140989409442" cy="548.0" r="5" fill="black" stroke="none" />
<circle cx="588.8140989409442" cy="604.0" r="5" fill="black" stroke="none" />
<path d="M588.8140989409441,604.0 A136.76236386773888,136.76236386773888,0,0,0,589.9997069253552,602.975710359492" stroke="grey" stroke-width="5" fill="none" />
<path d="M589.9997069253552,602.975710359492 L660.8140989409442,684.0" stroke="grey" stroke-width="5" />
<circle cx="589.9997069253552" cy="602.975710359492" r="2.5" fill="grey" stroke="none" />
<circle cx="588.8140989409442" cy="604.0" r="5" fill="black" stroke="none" />
<circle cx="660.8140989409442" cy="684.0" r="5" fill="black" stroke="none" />
<path d="M636.8140989409442,444.0 L608.5255226591051,455.57892559352956" stroke="grey" stroke-width="5" />
<circle cx="608.5255226591051" cy="455.57892559352956" r="2.5" fill="grey" stroke="none" />
<path d="M608.5255226591051,455.57892559352956 A117.26474713168118,117.26474713168118,0,0,1,612.8140989409442,468.0" stroke="grey" stroke-width="5" fill="none" />
<circle cx="636.8140989409442" cy="444.0" r="5" fill="black" stroke="none" />
<circle cx="612.8140989409442" cy="468.0" r="5" fill="black" stroke="none" />
<path d="M612.8140989409442,468.0 L585.4432622791844,475.7638059550944" stroke="grey" stroke-width="5" />
<circle cx="585.4432622791844" cy="475.7638059550944" r="2.5" fill="grey" stroke="none" />
<path d="M585.4432622791844,475.7638059550944 A88.81409894094412,88.81409894094412,0,0,1,588.8140989409442,500.0" stroke="grey" stroke-width="5" fill="none" />
<circle cx="612.8140989409442" cy="468.0" r="5" fill="black" stroke="none" />
<circle cx="588.8140989409442" cy="500.0" r="5" fill="black" stroke="none" />
<path d="M588.8140989409442,500.0 A88.81409894094412,88.81409894094412,0,0,1,578.13314577067,542.2274283217796" stroke="grey" stroke-width="5" fill="none" />
<path d="M578.13314577067,542.2274283217796 L588.8140989409442,548.0" stroke="grey" stroke-width="5" />
<circle cx="578.13314577067" cy="542.2274283217796" r="2.5" fill="grey" stroke="none" />
<circle cx="588.8140989409442" cy="500.0" r="5" fill="black" stroke="none" />
<circle cx="588.8140989409442" cy="548.0" r="5" fill="black" stroke="none" />
<path d="M588.8140989409442,444.0 A104.99497212101069,104.99497212101069,0,0,1,601.0100090853414,471.34825947222276" stroke="grey" stroke-width="5" fill="none" />
<path d="M601.0100090853414,471.34825947222276 L612.8140989409442,468.0" stroke="grey" stroke-width="5" />
<circle cx="601.0100090853414" cy="471.34825947222276" r="2.5" fill="grey" stroke="none" />
<circle cx="588.8140989409442" cy="444.0" r="5" fill="black" stroke="none" />
<circle cx="612.8140989409442" cy="468.0" r="5" fill="black" stroke="none" />
<path d="M540.8140989409442,500.0 A40.81409894094412,40.81409894094412,0,0,1,540.8140989409442,500.0" stroke="grey" stroke-width="5" fill="none" />
<path d="M540.8140989409442,500.0 L588.8140989409442,500.0" stroke="grey" stroke-width="5" />
<circle cx="540.8140989409442" cy="500.0" r="2.5" fill="grey" stroke="none" />
<circle cx="540.8140989409442" cy="500.0" r="5" fill="black" stroke="none" />
<circle cx="588.8140989409442" cy="500.0" r="5" fill="black" stroke="none" />
<path d="M636.8140989409442,444.0 L626.6179474896005,448.17343304304995" stroke="grey" stroke-width="5" />
<circle cx="626.6179474896005" cy="448.17343304304995" r="2.5" fill="grey" stroke="none" />
<path d="M626.6179474896005,448.17343304304995 A136.81409894094412,136.81409894094412,0,0,1,636.8140989409442,500.0" stroke="grey" stroke-width="5" fill="none" />
<circle cx="636.8140989409442" cy="444.0" r="5" fill="black" stroke="none" />
<circle cx="636.8140989409442" cy="500.0" r="5" fill="black" stroke="none" />
<path d="M612.8140989409442,468.0 A117.26474713168118,117.26474713168118,0,0,1,617.2647471316811,500.0" stroke="grey" stroke-width="5" fill="none" />
<path d="M617.2647471316811,500.0 L636.8140989409442,500.0" stroke="grey" stroke-width="5" />
<circle cx="617.2647471316811" cy="500.0" r="2.5" fill="grey" stroke="none" />
<circle cx="612.8140989409442" cy="468.0" r="5" fill="black" stroke="none" />
<circle cx="636.8140989409442" cy="500.0" r="5" fill="black" stroke="none" />
<path d="M588.8140989409442,500.0 A88.81409894094412,88.81409894094412,0,0,1,588.8140989409442,500.0" stroke="grey" stroke-width="5" fill="none" />
<path d="M588.8140989409442,500.0 L636.8140989409442,500.0" stroke="grey" stroke-width="5" />
<circle cx="588.8140989409442" cy="500.0" r="2.5" fill="grey" stroke="none" />
<circle cx="588.8140989409442" cy="500.0" r="5" fill="black" stroke="none" />
<circle cx="636.8140989409442" cy="500.0" r="5" fill="black" stroke="none" />
<path d="M588.8140989409442,548.0 A100.95515920789691,100.95515920789691,0,0,0,600.9551592078969,500.0" stroke="grey" stroke-width="5" fill="none" />
<path d="M600.9551592078969,500.0 L636.8140989409442,500.0" stroke="grey" stroke-width="5" />
<circle cx="600.9551592078969" cy="500.0" r="2.5" fill="grey" stroke="none" />
<circle cx="588.8140989409442" cy="548.0" r="5" fill="black" stroke="none" />
<circle cx="636.8140989409442" cy="500.0" r="5" fill="black" stroke="none" />
<path d="M636.8140989409442,500.0 A136.81409894094412,136.81409894094412,0,0,1,621.0719955624628,563.7155362493752" stroke="grey" stroke-width="5" fill="none" />
<path d="M621.0719955624628,563.7155362493752 L636.8140989409442,572.0" stroke="grey" stroke-width="5" />
<circle cx="621.0719955624628" cy="563.7155362493752" r="2.5" fill="grey" stroke="none" />
<circle cx="636.8140989409442" cy="500.0" r="5" fill="black" stroke="none" />
<circle cx="636.8140989409442" cy="572.0" r="5" fill="black" stroke="none" />
<path d="M636.8140989409442,572.0 L621.0262132300716,563.6914427680915" stroke="grey" stroke-width="5" />
<circle cx="621.0262132300716" cy="563.6914427680915" r="2.5" fill="grey" stroke="none" />
<path d="M621.0262132300716,563.6914427680915 A136.76236386773888,136.76236386773888,0,0,1,588.8140989409441,604.0" stroke="grey" stroke-width="5" fill="none" />
<circle cx="636.8140989409442" cy="572.0" r="5" fill="black" stroke="none" />
<circle cx="588.8140989409442" cy="604.0" r="5" fill="black" stroke="none" />
<path d="M636.8140989409442,444.0 A147.8313149133919,147.8313149133919,0,0,0,623.131018481324,418.190159780291" stroke="grey" stroke-width="5" fill="none" />
<path d="M623.131018481324,418.190159780291 L740.8140989409442,340.0" stroke="grey" stroke-width="5" />
<circle cx="623.131018481324" cy="418.190159780291" r="2.5" fill="grey" stroke="none" />
<circle cx="636.8140989409442" cy="444.0" r="5" fill="black" stroke="none" />
<circle cx="740.8140989409442" cy="340.0" r="5" fill="black" stroke="none" />
<path d="M636.8140989409442,444.0 A147.8313149133919,147.8313149133919,0,0,1,646.7636634551266,482.2651541237938" stroke="grey" stroke-width="5" fill="none" />
<path d="M646.7636634551266,482.2651541237938 L764.8140989409442,468.0" stroke="grey" stroke-width="5" />
<circle cx="646.7636634551266" cy="482.2651541237938" r="2.5" fill="grey" stroke="none" />
<circle cx="636.8140989409442" cy="444.0" r="5" fill="black" stroke="none" />
<circle cx="764.8140989409442" cy="468.0" r="5" fill="black" stroke="none" />
<path d="M764.8140989409442,468.0 A266.7405237265312,266.7405237265312,0,0,1,765.6500940871126,475.90571625027235" stroke="grey" stroke-width="5" fill="none" />
<path d="M765.6500940871126,475.90571625027235 L852.8140989409442,468.0" stroke="grey" stroke-width="5" />
<circle cx="765.6500940871126" cy="475.90571625027235" r="2.5" fill="grey" stroke="none" />
<circle cx="764.8140989409442" cy="468.0" r="5" fill="black" stroke="none" />
<circle cx="852.8140989409442" cy="468.0" r="5" fill="black" stroke="none" />
<path d="M636.8140989409442,500.0 A136.81409894094412,136.81409894094412,0,0,1,621.4884294635934,562.9178764381946" stroke="grey" stroke-width="5" fill="none" />
<path d="M621.4884294635934,562.9178764381946 L700.8140989409442,604.0" stroke="grey" stroke-width="5" />
<circle cx="621.4884294635934" cy="562.9178764381946" r="2.5" fill="grey" stroke="none" />
<circle cx="636.8140989409442" cy="500.0" r="5" fill="black" stroke="none" />
<circle cx="700.8140989409442" cy="604.0" r="5" fill="black" stroke="none" />
<circle cx="500" cy="500" r="5" fill="red" stroke="none" />
</svg>