<?xml version="1.0" encoding="UTF-8"?>
<svg xmlns="http://www.w3.org/2000/svg" xmlns:xlink="http://www.w3.org/1999/xlink"
     width="1000" height="1000" viewBox="0 0 1000 1000">
<defs>
</defs>
<rect x="0" y="0" width="1000" height="1000" fill="white" />
<path d="M186.21660083376076,603.1019763548612 L314.59628748995215,560.9193769782169" stroke="grey" stroke-width="5" />
<circle cx="314.59628748995215" cy="560.9193769782169" r="2.5" fill="grey" stroke="none" />
<path d="M314.59628748995215,560.9193769782169 A195.1555971626809,195.1555971626809,0,0,1,306.2166008337607,523.1019763548611" stroke="grey" stroke-width="5" fill="none" />
<circle cx="186.21660083376076" cy="603.1019763548612" r="5" fill="black" stroke="none" />
<circle cx="306.21660083376076" cy="523.1019763548612" r="5" fill="black" stroke="none" />
<path d="M306.2166008337607,523.1019763548611 A195.1555971626809,195.1555971626809,0,0,1,307.5973110131996,467.336375360791" stroke="grey" stroke-width="5" fill="none" />
<path d="M307.5973110131996,467.336375360791 L306.21660083376076,467.1019763548612" stroke="grey" stroke-width="5" />
<circle cx="307.5973110131996" cy="467.336375360791" r="2.5" fill="grey" stroke="none" />
<circle cx="306.21660083376076" cy="523.1019763548612" r="5" fill="black" stroke="none" />
<circle cx="306.21660083376076" cy="467.1019763548612" r="5" fill="black" stroke="none" />
<path d="M306.2166008337607,467.1019763548612 A196.55606261873004,196.55606261873004,0,0,0,304.63255382765965,478.4165172347971" stroke="grey" stroke-width="5" fill="none" />
<path d="M304.63255382765965,478.41651723479714 L202.21660083376076,467.1019763548612" stroke="grey" stroke-width="5" />
<circle cx="304.63255382765965" cy="478.41651723479714" r="2.5" fill="grey" stroke="none" />
<circle cx="306.21660083376076" cy="467.1019763548612" r="5" fill="black" stroke="none" />
<circle cx="202.21660083376076" cy="467.1019763548612" r="5" fill="black" stroke="none" />
<path d="M202.21660083376076,467.1019763548612 L209.8860560799779,467.9492697927822" stroke="grey" stroke-width="5" />
<circle cx="209.8860560799779" cy="467.9492697927822" r="2.5" fill="grey" stroke="none" />
<path d="M209.8860560799779,467.9492697927821 A291.87899849705803,291.87899849705803,0,0,1,242.21660083376076,363.1019763548612" stroke="grey" stroke-width="5" fill="none" />
<circle cx="202.21660083376076" cy="467.1019763548612" r="5" fill="black" stroke="none" />
<circle cx="242.21660083376076" cy="363.1019763548612" r="5" fill="black" stroke="none" />
<path d="M242.21660083376076,363.1019763548612 L263.2931436937912,374.2948501866998" stroke="grey" stroke-width="5" />
<circle cx="263.2931436937912" cy="374.2948501866998" r="2.5" fill="grey" stroke="none" />
<path d="M263.2931436937912,374.2948501866998 A268.0147766671689,268.0147766671689,0,0,1,354.2166008337608,275.1019763548612" stroke="grey" stroke-width="5" fill="none" />
<circle cx="242.21660083376076" cy="363.1019763548612" r="5" fill="black" stroke="none" />
<circle cx="354.21660083376076" cy="275.1019763548612" r="5" fill="black" stroke="none" />
<path d="M354.21660083376076,275.1019763548612 L378.46716726005553,312.51298812122616" stroke="grey" stroke-width="5" />
<circle cx="378.46716726005553" cy="312.51298812122616" r="2.5" fill="grey" stroke="none" />
<path d="M378.46716726005553,312.51298812122616 A223.43144151400628,223.43144151400628,0,0,1,402.21660083376076,299.1019763548612" stroke="grey" stroke-width="5" fill="none" />
<circle cx="354.21660083376076" cy="275.1019763548612" r="5" fill="black" stroke="none" />
<circle cx="402.21660083376076" cy="299.1019763548612" r="5" fill="black" stroke="none" />
<path d="M402.21660083376076,299.1019763548612 A223.43144151400628,223.43144151400628,0,0,0,365.2856483976252,321.7483449463132" stroke="grey" stroke-width="5" fill="none" />
<path d="M365.28564839762527,321.7483449463132 L354.21660083376076,307.1019763548612" stroke="grey" stroke-width="5" />
<circle cx="365.28564839762527" cy="321.7483449463132" r="2.5" fill="grey" stroke="none" />
<circle cx="402.21660083376076" cy="299.1019763548612" r="5" fill="black" stroke="none" />
<circle cx="354.21660083376076" cy="307.1019763548612" r="5" fill="black" stroke="none" />
<path d="M354.21660083376076,275.1019763548612 L368.481202957304,297.10777978664214" stroke="grey" stroke-width="5" />
<circle cx="368.481202957304" cy="297.10777978664214" r="2.5" fill="grey" stroke="none" />
<path d="M368.481202957304,297.10777978664214 A241.79008871056638,241.79008871056638,0,0,0,354.21660083376065,307.1019763548613" stroke="grey" stroke-width="5" fill="none" />
<circle cx="354.21660083376076" cy="275.1019763548612" r="5" fill="black" stroke="none" />
<circle cx="354.21660083376076" cy="307.1019763548612" r="5" fill="black" stroke="none" />
<path d="M354.21660083376076,307.1019763548612 L373.3889477372355,332.4704877729689" stroke="grey" stroke-width="5" />
<circle cx="373.3889477372355" cy="332.4704877729689" r="2.5" fill="grey" stroke="none" />
<path d="M373.38894773723547,332.4704877729689 A209.9916570297769,209.9916570297769,0,0,0,306.2166008337607,419.1019763548613" stroke="grey" stroke-width="5" fill="none" />
<circle cx="354.21660083376076" cy="307.1019763548612" r="5" fill="black" stroke="none" />
<circle cx="306.21660083376076" cy="419.1019763548612" r="5" fill="black" stroke="none" />
<path d="M242.21660083376076,363.1019763548612 L314.53834148936687,401.5090397823397" stroke="grey" stroke-width="5" />
<circle cx="314.53834148936687" cy="401.5090397823397" r="2.5" fill="grey" stroke="none" />
<path d="M314.53834148936687,401.5090397823397 A209.9916570297769,209.9916570297769,0,0,0,306.2166008337607,419.1019763548613" stroke="grey" stroke-width="5" fill="none" />
<circle cx="242.21660083376076" cy="363.1019763548612" r="5" fill="black" stroke="none" />
<circle cx="306.21660083376076" cy="419.1019763548612" r="5" fill="black" stroke="none" />
<path d="M306.21660083376076,419.1019763548612 L318.6151655749419,424.27795834255147" stroke="grey" stroke-width="5" />
<circle cx="318.6151655749419" cy="424.27795834255147" r="2.5" fill="grey" stroke="none" />
<path d="M318.6151655749418,424.2779583425515 A196.55606261873004,196.55606261873004,0,0,0,306.2166008337607,467.1019763548612" stroke="grey" stroke-width="5" fill="none" />
<circle cx="306.21660083376076" cy="419.1019763548612" r="5" fill="black" stroke="none" />
<circle cx="306.21660083376076" cy="467.1019763548612" r="5" fill="black" stroke="none" />
<path d="M402.21660083376076,299.1019763548612 A223.43144151400628,223.43144151400628,0,0,1,447.88454239337415,282.73152981741964" stroke="grey" stroke-width="5" fill="none" />
<path d="M447.88454239337415,282.73152981741964 L442.21660083376076,259.1019763548612" stroke="grey" stroke-width="5" />
<circle cx="447.88454239337415" cy="282.73152981741964" r="2.5" fill="grey" stroke="none" />
<circle cx="402.21660083376076" cy="299.1019763548612" r="5" fill="black" stroke="none" />
<circle cx="442.21660083376076" cy="259.1019763548612" r="5" fill="black" stroke="none" />
<path d="M402.21660083376076,299.1019763548612 L436.2488589093357,369.0219571068177" stroke="grey" stroke-width="5" />
<circle cx="436.2488589093357" cy="369.0219571068177" r="2.5" fill="grey" stroke="none" />
<path d="M436.2488589093357,369.0219571068177 A145.66899364823692,145.66899364823692,0,0,1,450.21660083376076,363.1019763548612" stroke="grey" stroke-width="5" fill="none" />
<circle cx="402.21660083376076" cy="299.1019763548612" r="5" fill="black" stroke="none" />
<circle cx="450.21660083376076" cy="363.1019763548612" r="5" fill="black" stroke="none" />
<path d="M354.21660083376076,307.1019763548612 L398.5660774626868,365.7844219580179" stroke="grey" stroke-width="5" />
<circle cx="398.5660774626868" cy="365.7844219580179" r="2.5" fill="grey" stroke="none" />
<path d="M398.56607746268674,365.7844219580179 A168.233950290805,168.233950290805,0,0,1,402.2166008337607,363.1019763548613" stroke="grey" stroke-width="5" fill="none" />
<circle cx="354.21660083376076" cy="307.1019763548612" r="5" fill="black" stroke="none" />
<circle cx="402.21660083376076" cy="363.1019763548612" r="5" fill="black" stroke="none" />
<path d="M306.21660083376076,419.1019763548612 L346.143532932738,435.77012187670755" stroke="grey" stroke-width="5" />
<circle cx="346.143532932738" cy="435.77012187670755" r="2.5" fill="grey" stroke="none" />
<path d="M346.143532932738,435.7701218767076 A166.7251921640892,166.7251921640892,0,0,1,354.21660083376076,419.1019763548612" stroke="grey" stroke-width="5" fill="none" />
<circle cx="306.21660083376076" cy="419.1019763548612" r="5" fill="black" stroke="none" />
<circle cx="354.21660083376076" cy="419.1019763548612" r="5" fill="black" stroke="none" />
<path d="M306.21660083376076,467.1019763548612 L398.2861788409168,482.73235113056114" stroke="grey" stroke-width="5" />
<circle cx="398.2861788409168" cy="482.73235113056114" r="2.5" fill="grey" stroke="none" />
<path d="M398.2861788409168,482.73235113056114 A103.16914806404183,103.16914806404183,0,0,1,402.21660083376076,467.1019763548612" stroke="grey" stroke-width="5" fill="none" />
<circle cx="306.21660083376076" cy="467.1019763548612" r="5" fill="black" stroke="none" />
<circle cx="402.21660083376076" cy="467.1019763548612" r="5" fill="black" stroke="none" />
<path d="M306.21660083376076,523.1019763548612 L400.23112993863043,511.89399136884646" stroke="grey" stroke-width="5" />
<circle cx="400.23112993863043" cy="511.89399136884646" r="2.5" fill="grey" stroke="none" />
<path d="M400.23112993863043,511.89399136884646 A100.47534256724205,100.47534256724205,0,0,0,402.21660083376076,523.1019763548613" stroke="grey" stroke-width="5" fill="none" />
<circle cx="306.21660083376076" cy="523.1019763548612" r="5" fill="black" stroke="none" />
<circle cx="402.21660083376076" cy="523.1019763548612" r="5" fill="black" stroke="none" />
<path d="M450.21660083376076,363.1019763548612 A145.66899364823692,145.66899364823692,0,0,0,415.33213523531913,381.4638941643526" stroke="grey" stroke-width="5" fill="none" />
<path d="M415.33213523531913,381.4638941643526 L402.21660083376076,363.1019763548612" stroke="grey" stroke-width="5" />
<circle cx="415.33213523531913" cy="381.4638941643526" r="2.5" fill="grey" stroke="none" />
<circle cx="450.21660083376076" cy="363.1019763548612" r="5" fill="black" stroke="none" />
<circle cx="402.21660083376076" cy="363.1019763548612" r="5" fill="black" stroke="none" />
<path d="M402.21660083376076,363.1019763548612 L403.09354331709983,364.3297071746447" stroke="grey" stroke-width="5" />
<circle cx="403.09354331709983" cy="364.3297071746447" r="2.5" fill="grey" stroke="none" />
<path d="M403.0935433170998,364.3297071746447 A166.7251921640892,166.7251921640892,0,0,0,354.21660083376076,419.1019763548612" stroke="grey" stroke-width="5" fill="none" />
<circle cx="402.21660083376076" cy="363.1019763548612" r="5" fill="black" stroke="none" />
<circle cx="354.21660083376076" cy="419.1019763548612" r="5" fill="black" stroke="none" />
<path d="M354.21660083376076,419.1019763548612 L409.7895830939664,449.9404974665169" stroke="grey" stroke-width="5" />
<circle cx="409.7895830939664" cy="449.9404974665169" r="2.5" fill="grey" stroke="none" />
<path d="M409.7895830939664,449.9404974665169 A103.16914806404183,103.16914806404183,0,0,0,402.21660083376076,467.1019763548612" stroke="grey" stroke-width="5" fill="none" />
<circle cx="354.21660083376076" cy="419.1019763548612" r="5" fill="black" stroke="none" />
<circle cx="402.21660083376076" cy="467.1019763548612" r="5" fill="black" stroke="none" />
<path d="M402.21660083376076,467.1019763548612 L404.7697813447239,467.9609625788641" stroke="grey" stroke-width="5" />
<circle cx="404.7697813447239" cy="467.9609625788641" r="2.5" fill="grey" stroke="none" />
<path d="M404.7697813447239,467.9609625788641 A100.47534256724205,100.47534256724205,0,0,0,402.21660083376076,523.1019763548613" stroke="grey" stroke-width="5" fill="none" />
<circle cx="402.21660083376076" cy="467.1019763548612" r="5" fill="black" stroke="none" />
<circle cx="402.21660083376076" cy="523.1019763548612" r="5" fill="black" stroke="none" />
<path d="M402.21660083376076,523.1019763548613 A100.47534256724205,100.47534256724205,0,0,0,475.6241161336476,597.4736413074772" stroke="grey" stroke-width="5" fill="none" />
<path d="M475.6241161336476,597.4736413074772 L474.21660083376076,603.1019763548612" stroke="grey" stroke-width="5" />
<circle cx="475.6241161336476" cy="597.4736413074772" r="2.5" fill="grey" stroke="none" />
<circle cx="402.21660083376076" cy="523.1019763548612" r="5" fill="black" stroke="none" />
<circle cx="474.21660083376076" cy="603.1019763548612" r="5" fill="black" stroke="none" />
<path d="M450.21660083376076,363.1019763548612 L453.90718590294756,373.25061647440856" stroke="grey" stroke-width="5" />
<circle cx="453.90718590294756" cy="373.25061647440856" r="2.5" fill="grey" stroke="none" />
<path d="M453.9071859029476,373.25061647440856 A134.87013655922095,134.87013655922095,0,0,0,426.21660083376076,387.1019763548612" stroke="grey" stroke-width="5" fill="none" />
<circle cx="450.21660083376076" cy="363.1019763548612" r="5" fill="black" stroke="none" />
<circle cx="426.21660083376076" cy="387.1019763548612" r="5" fill="black" stroke="none" />
<path d="M426.21660083376076,387.1019763548612 L430.57149185046177,393.76551577607665" stroke="grey" stroke-width="5" />
<circle cx="430.57149185046177" cy="393.76551577607665" r="2.5" fill="grey" stroke="none" />
<path d="M430.57149185046177,393.76551577607665 A126.90974502453902,126.90974502453902,0,0,0,402.21660083376076,419.1019763548612" stroke="grey" stroke-width="5" fill="none" />
<circle cx="426.21660083376076" cy="387.1019763548612" r="5" fill="black" stroke="none" />
<circle cx="402.21660083376076" cy="419.1019763548612" r="5" fill="black" stroke="none" />
<path d="M402.21660083376076,419.1019763548612 L420.50862615131405,434.2353088967291" stroke="grey" stroke-width="5" />
<circle cx="420.50862615131405" cy="434.2353088967291" r="2.5" fill="grey" stroke="none" />
<path d="M420.50862615131405,434.2353088967291 A103.16914806404183,103.16914806404183,0,0,0,402.21660083376076,467.1019763548612" stroke="grey" stroke-width="5" fill="none" />
<circle cx="402.21660083376076" cy="419.1019763548612" r="5" fill="black" stroke="none" />
<circle cx="402.21660083376076" cy="467.1019763548612" r="5" fill="black" stroke="none" />
<path d="M402.21660083376076,363.1019763548612 L421.6088050243191,390.251313056658" stroke="grey" stroke-width="5" />
<circle cx="421.6088050243191" cy="390.251313056658" r="2.5" fill="grey" stroke="none" />
<path d="M421.60880502431905,390.251313056658 A134.87013655922095,134.87013655922095,0,0,1,426.21660083376076,387.1019763548612" stroke="grey" stroke-width="5" fill="none" />
<circle cx="402.21660083376076" cy="363.1019763548612" r="5" fill="black" stroke="none" />
<circle cx="426.21660083376076" cy="387.1019763548612" r="5" fill="black" stroke="none" />
<path d="M354.21660083376076,419.1019763548612 L389.0309630065432,438.4211382783157" stroke="grey" stroke-width="5" />
<circle cx="389.0309630065432" cy="438.4211382783157" r="2.5" fill="grey" stroke="none" />
<path d="M389.0309630065432,438.4211382783157 A126.90974502453902,126.90974502453902,0,0,1,402.21660083376076,419.1019763548612" stroke="grey" stroke-width="5" fill="none" />
<circle cx="354.21660083376076" cy="419.1019763548612" r="5" fill="black" stroke="none" />
<circle cx="402.21660083376076" cy="419.1019763548612" r="5" fill="black" stroke="none" />
<path d="M450.21660083376076,363.1019763548612 L467.53690320795226,410.7306076591496" stroke="grey" stroke-width="5" />
<circle cx="467.53690320795226" cy="410.7306076591496" r="2.5" fill="grey" stroke="none" />
<path d="M467.5369032079523,410.73060765914954 A94.98882598618925,94.98882598618925,0,0,0,450.21660083376076,419.1019763548612" stroke="grey" stroke-width="5" fill="none" />
<circle cx="450.21660083376076" cy="363.1019763548612" r="5" fill="black" stroke="none" />
<circle cx="450.21660083376076" cy="419.1019763548612" r="5" fill="black" stroke="none" />
<path d="M426.21660083376076,387.1019763548612 L448.03446750427224,420.48609873317747" stroke="grey" stroke-width="5" />
<circle cx="448.03446750427224" cy="420.48609873317747" r="2.5" fill="grey" stroke="none" />
<path d="M448.03446750427224,420.48609873317747 A94.98882598618925,94.98882598618925,0,0,1,450.21660083376076,419.1019763548612" stroke="grey" stroke-width="5" fill="none" />
<circle cx="426.21660083376076" cy="387.1019763548612" r="5" fill="black" stroke="none" />
<circle cx="450.21660083376076" cy="419.1019763548612" r="5" fill="black" stroke="none" />
<path d="M402.21660083376076,419.1019763548612 L426.81152825621064,439.4498169611099" stroke="grey" stroke-width="5" />
<circle cx="426.81152825621064" cy="439.4498169611099" r="2.5" fill="grey" stroke="none" />
<path d="M426.81152825621064,439.4498169611099 A94.98882598618925,94.98882598618925,0,0,1,450.21660083376076,419.1019763548612" stroke="grey" stroke-width="5" fill="none" />
<circle cx="402.21660083376076" cy="419.1019763548612" r="5" fill="black" stroke="none" />
<circle cx="450.21660083376076" cy="419.1019763548612" r="5" fill="black" stroke="none" />
<path d="M402.21660083376076,467.1019763548612 L409.9698847762677,469.71047350921395" stroke="grey" stroke-width="5" />
<circle cx="409.9698847762677" cy="469.71047350921395" r="2.5" fill="grey" stroke="none" />
<path d="M409.9698847762677,469.71047350921395 A94.98882598618925,94.98882598618925,0,0,1,450.21660083376076,419.1019763548612" stroke="grey" stroke-width="5" fill="none" />
<circle cx="402.21660083376076" cy="467.1019763548612" r="5" fill="black" stroke="none" />
<circle cx="450.21660083376076" cy="419.1019763548612" r="5" fill="black" stroke="none" />
<path d="M450.21660083376076,419.1019763548612 L473.49516635957724,456.9296453343129" stroke="grey" stroke-width="5" />
<circle cx="473.49516635957724" cy="456.9296453343129" r="2.5" fill="grey" stroke="none" />
<path d="M473.49516635957724,456.9296453343129 A50.57234083305378,50.57234083305378,0,0,0,450.21660083376076,491.1019763548612" stroke="grey" stroke-width="5" fill="none" />
<circle cx="450.21660083376076" cy="419.1019763548612" r="5" fill="black" stroke="none" />
<circle cx="450.21660083376076" cy="491.1019763548612" r="5" fill="black" stroke="none" />
<path d="M450.21660083376076,491.1019763548612 A50.57234083305378,50.57234083305378,0,0,0,450.7825973607394,511.62793768384824" stroke="grey" stroke-width="5" fill="none" />
<path d="M450.7825973607394,511.6279376838482 L402.21660083376076,523.1019763548612" stroke="grey" stroke-width="5" />
<circle cx="450.7825973607394" cy="511.6279376838482" r="2.5" fill="grey" stroke="none" />
<circle cx="450.21660083376076" cy="491.1019763548612" r="5" fill="black" stroke="none" />
<circle cx="402.21660083376076" cy="523.1019763548612" r="5" fill="black" stroke="none" />
<path d="M450.21660083376076,363.1019763548612 A145.66899364823692,145.66899364823692,0,0,1,531.984287939956,357.8857465436205" stroke="grey" stroke-width="5" fill="none" />
<path d="M531.984287939956,357.8857465436205 L554.2166008337608,259.1019763548612" stroke="grey" stroke-width="5" />
<circle cx="531.984287939956" cy="357.8857465436205" r="2.5" fill="grey" stroke="none" />
<circle cx="450.21660083376076" cy="363.1019763548612" r="5" fill="black" stroke="none" />
<circle cx="554.2166008337608" cy="259.1019763548612" r="5" fill="black" stroke="none" />
<path d="M450.21660083376076,363.1019763548612 L453.0611956627629,370.9242507813465" stroke="grey" stroke-width="5" />
<circle cx="453.0611956627629" cy="370.9242507813465" r="2.5" fill="grey" stroke="none" />
<path d="M453.06119566276294,370.9242507813464 A137.34555103448446,137.34555103448446,0,0,1,578.2166008337608,387.1019763548612" stroke="grey" stroke-width="5" fill="none" />
<circle cx="450.21660083376076" cy="363.1019763548612" r="5" fill="black" stroke="none" />
<circle cx="578.2166008337608" cy="387.1019763548612" r="5" fill="black" stroke="none" />
<path d="M578.2166008337608,387.1019763548612 A137.34555103448446,137.34555103448446,0,0,1,613.615745423316,422.829650895759" stroke="grey" stroke-width="5" fill="none" />
<path d="M613.615745423316,422.829650895759 L666.2166008337608,387.1019763548612" stroke="grey" stroke-width="5" />
<circle cx="613.615745423316" cy="422.829650895759" r="2.5" fill="grey" stroke="none" />
<circle cx="578.2166008337608" cy="387.1019763548612" r="5" fill="black" stroke="none" />
<circle cx="666.2166008337608" cy="387.1019763548612" r="5" fill="black" stroke="none" />
<path d="M450.21660083376076,419.1019763548612 L514.2166008337608,523.1019763548612" stroke="grey" stroke-width="5" />
<circle cx="450.21660083376076" cy="419.1019763548612" r="5" fill="black" stroke="none" />
<circle cx="514.2166008337608" cy="523.1019763548612" r="5" fill="black" stroke="none" />
<circle cx="500" cy="500" r="5" fill="red" stroke="none" />
</svg>