<?xml version="1.0" encoding="UTF-8"?>
<svg xmlns="http://www.w3.org/2000/svg" xmlns:xlink="http://www.w3.org/1999/xlink"
     width="1000" height="1000" viewBox="0 0 1000 1000">
<defs>
</defs>
<rect x="0" y="0" width="1000" height="1000" fill="white" />
<path d="M263.18088958790827,824.8191104120917 L340.19235657267615,719.1908266389033" stroke="grey" stroke-width="5" />
<circle cx="340.19235657267615" cy="719.1908266389033" r="2.5" fill="grey" stroke="none" />
<path d="M340.19235657267615,719.1908266389033 A271.2620529680487,271.2620529680487,0,0,0,383.18088958790827,744.8191104120917" stroke="grey" stroke-width="5" fill="none" />
<circle cx="263.18088958790827" cy="824.8191104120917" r="5" fill="black" stroke="none" />
<circle cx="383.18088958790827" cy="744.8191104120917" r="5" fill="black" stroke="none" />
<path d="M383.18088958790827,744.8191104120917 L404.3807141860133,700.3904019525619" stroke="grey" stroke-width="5" />
<circle cx="404.3807141860133" cy="700.3904019525619" r="2.5" fill="grey" stroke="none" />
<path d="M404.3807141860133,700.3904019525619 A222.03459418362306,222.03459418362306,0,0,1,383.18088958790815,688.8191104120917" stroke="grey" stroke-width="5" fill="none" />
<circle cx="383.18088958790827" cy="744.8191104120917" r="5" fill="black" stroke="none" />
<circle cx="383.18088958790827" cy="688.8191104120917" r="5" fill="black" stroke="none" />
<path d="M383.18088958790815,688.8191104120917 A222.03459418362306,222.03459418362306,0,0,1,331.24729607812253,644.2979068917541" stroke="grey" stroke-width="5" fill="none" />
<path d="M331.24729607812253,644.2979068917541 L279.18088958790827,688.8191104120917" stroke="grey" stroke-width="5" />
<circle cx="331.24729607812253" cy="644.2979068917541" r="2.5" fill="grey" stroke="none" />
<circle cx="383.18088958790827" cy="688.8191104120917" r="5" fill="black" stroke="none" />
<circle cx="279.18088958790827" cy="688.8191104120917" r="5" fill="black" stroke="none" />
<path d="M279.18088958790827,688.8191104120917 L348.20369515524646,629.7987442805111" stroke="grey" stroke-width="5" />
<circle cx="348.20369515524646" cy="629.7987442805111" r="2.5" fill="grey" stroke="none" />
<path d="M348.20369515524646,629.7987442805111 A199.72439055187738,199.72439055187738,0,0,1,319.18088958790815,584.8191104120917" stroke="grey" stroke-width="5" fill="none" />
<circle cx="279.18088958790827" cy="688.8191104120917" r="5" fill="black" stroke="none" />
<circle cx="319.18088958790827" cy="584.8191104120917" r="5" fill="black" stroke="none" />
<path d="M319.18088958790827,584.8191104120917 L437.62857120646186,529.2573561132024" stroke="grey" stroke-width="5" />
<circle cx="437.62857120646186" cy="529.2573561132024" r="2.5" fill="grey" stroke="none" />
<path d="M437.62857120646186,529.2573561132024 A68.89258317469407,68.89258317469407,0,0,1,431.1808895879082,496.81911041209173" stroke="grey" stroke-width="5" fill="none" />
<circle cx="319.18088958790827" cy="584.8191104120917" r="5" fill="black" stroke="none" />
<circle cx="431.18088958790827" cy="496.81911041209173" r="5" fill="black" stroke="none" />
<path d="M431.18088958790827,496.81911041209173 L470.5887318012539,498.6405811377049" stroke="grey" stroke-width="5" />
<circle cx="470.5887318012539" cy="498.6405811377049" r="2.5" fill="grey" stroke="none" />
<path d="M470.5887318012539,498.6405811377049 A29.442668301323085,29.442668301323085,0,0,0,479.18088958790827,520.8191104120917" stroke="grey" stroke-width="5" fill="none" />
<circle cx="431.18088958790827" cy="496.81911041209173" r="5" fill="black" stroke="none" />
<circle cx="479.18088958790827" cy="520.8191104120917" r="5" fill="black" stroke="none" />
<path d="M479.18088958790827,520.8191104120917 A29.442668301323085,29.442668301323085,0,0,1,472.8424379351571,511.37266632746866" stroke="grey" stroke-width="5" fill="none" />
<path d="M472.8424379351571,511.37266632746866 L431.18088958790827,528.8191104120917" stroke="grey" stroke-width="5" />
<circle cx="472.8424379351571" cy="511.37266632746866" r="2.5" fill="grey" stroke="none" />
<circle cx="479.18088958790827" cy="520.8191104120917" r="5" fill="black" stroke="none" />
<circle cx="431.18088958790827" cy="528.8191104120917" r="5" fill="black" stroke="none" />
<path d="M431.1808895879082,496.81911041209173 A68.89258317469407,68.89258317469407,0,0,0,436.454312352864,526.6107797318074" stroke="grey" stroke-width="5" fill="none" />
<path d="M436.454312352864,526.6107797318074 L431.18088958790827,528.8191104120917" stroke="grey" stroke-width="5" />
<circle cx="436.454312352864" cy="526.6107797318074" r="2.5" fill="grey" stroke="none" />
<circle cx="431.18088958790827" cy="496.81911041209173" r="5" fill="black" stroke="none" />
<circle cx="431.18088958790827" cy="528.8191104120917" r="5" fill="black" stroke="none" />
<path d="M431.18088958790827,528.8191104120917 A74.60972512250673,74.60972512250673,0,0,0,452.363719580826,557.4229559556267" stroke="grey" stroke-width="5" fill="none" />
<path d="M452.363719580826,557.4229559556267 L383.18088958790827,640.8191104120917" stroke="grey" stroke-width="5" />
<circle cx="452.363719580826" cy="557.4229559556267" r="2.5" fill="grey" stroke="none" />
<circle cx="431.18088958790827" cy="528.8191104120917" r="5" fill="black" stroke="none" />
<circle cx="383.18088958790827" cy="640.8191104120917" r="5" fill="black" stroke="none" />
<path d="M319.18088958790827,584.8191104120917 L334.35256504990093,577.7023404356528" stroke="grey" stroke-width="5" />
<circle cx="334.35256504990093" cy="577.7023404356528" r="2.5" fill="grey" stroke="none" />
<path d="M334.35256504990093,577.7023404356527 A182.96646254088583,182.96646254088583,0,0,0,383.18088958790827,640.8191104120917" stroke="grey" stroke-width="5" fill="none" />
<circle cx="319.18088958790827" cy="584.8191104120917" r="5" fill="black" stroke="none" />
<circle cx="383.18088958790827" cy="640.8191104120917" r="5" fill="black" stroke="none" />
<path d="M383.18088958790827,640.8191104120917 A182.96646254088583,182.96646254088583,0,0,0,403.7358143767575,655.5954143958596" stroke="grey" stroke-width="5" fill="none" />
<path d="M403.73581437675756,655.5954143958597 L383.18088958790827,688.8191104120917" stroke="grey" stroke-width="5" />
<circle cx="403.73581437675756" cy="655.5954143958597" r="2.5" fill="grey" stroke="none" />
<circle cx="383.18088958790827" cy="640.8191104120917" r="5" fill="black" stroke="none" />
<circle cx="383.18088958790827" cy="688.8191104120917" r="5" fill="black" stroke="none" />
<path d="M479.18088958790827,520.8191104120917 L519.1808895879083,480.81911041209173" stroke="grey" stroke-width="5" />
<circle cx="479.18088958790827" cy="520.8191104120917" r="5" fill="black" stroke="none" />
<circle cx="519.1808895879083" cy="480.81911041209173" r="5" fill="black" stroke="none" />
<path d="M479.18088958790827,520.8191104120917 A29.442668301323085,29.442668301323085,0,0,0,508.98503667491974,528.0381852596076" stroke="grey" stroke-width="5" fill="none" />
<path d="M508.98503667491974,528.0381852596076 L527.1808895879083,584.8191104120917" stroke="grey" stroke-width="5" />
<circle cx="508.98503667491974" cy="528.0381852596076" r="2.5" fill="grey" stroke="none" />
<circle cx="479.18088958790827" cy="520.8191104120917" r="5" fill="black" stroke="none" />
<circle cx="527.1808895879083" cy="584.8191104120917" r="5" fill="black" stroke="none" />
<path d="M431.18088958790827,528.8191104120917 A74.60972512250673,74.60972512250673,0,0,0,482.2147355613137,572.4589225127038" stroke="grey" stroke-width="5" fill="none" />
<path d="M482.2147355613137,572.4589225127038 L479.18088958790827,584.8191104120917" stroke="grey" stroke-width="5" />
<circle cx="482.2147355613137" cy="572.4589225127038" r="2.5" fill="grey" stroke="none" />
<circle cx="431.18088958790827" cy="528.8191104120917" r="5" fill="black" stroke="none" />
<circle cx="479.18088958790827" cy="584.8191104120917" r="5" fill="black" stroke="none" />
<path d="M383.18088958790827,640.8191104120917 L399.92849333492086,620.6307811835171" stroke="grey" stroke-width="5" />
<circle cx="399.92849333492086" cy="620.6307811835171" r="2.5" fill="grey" stroke="none" />
<path d="M399.92849333492086,620.6307811835171 A156.7357387935648,156.7357387935648,0,0,0,431.18088958790827,640.8191104120917" stroke="grey" stroke-width="5" fill="none" />
<circle cx="383.18088958790827" cy="640.8191104120917" r="5" fill="black" stroke="none" />
<circle cx="431.18088958790827" cy="640.8191104120917" r="5" fill="black" stroke="none" />
<path d="M383.18088958790827,688.8191104120917 L400.05451622648457,661.5456346932424" stroke="grey" stroke-width="5" />
<circle cx="400.05451622648457" cy="661.5456346932424" r="2.5" fill="grey" stroke="none" />
<path d="M400.0545162264845,661.5456346932424 A189.96339598766014,189.96339598766014,0,0,0,479.1808895879082,688.8191104120917" stroke="grey" stroke-width="5" fill="none" />
<circle cx="383.18088958790827" cy="688.8191104120917" r="5" fill="black" stroke="none" />
<circle cx="479.18088958790827" cy="688.8191104120917" r="5" fill="black" stroke="none" />
<path d="M383.18088958790827,744.8191104120917 L394.1880215631646,721.7513413727221" stroke="grey" stroke-width="5" />
<circle cx="394.1880215631646" cy="721.7513413727221" r="2.5" fill="grey" stroke="none" />
<path d="M394.1880215631646,721.7513413727221 A245.70273132653378,245.70273132653378,0,0,0,479.1808895879082,744.8191104120917" stroke="grey" stroke-width="5" fill="none" />
<circle cx="383.18088958790827" cy="744.8191104120917" r="5" fill="black" stroke="none" />
<circle cx="479.18088958790827" cy="744.8191104120917" r="5" fill="black" stroke="none" />
<path d="M527.1808895879083,584.8191104120917 L526.6526238080477,583.1706348033738" stroke="grey" stroke-width="5" />
<circle cx="526.6526238080477" cy="583.1706348033738" r="2.5" fill="grey" stroke="none" />
<path d="M526.6526238080477,583.1706348033738 A87.33680123206643,87.33680123206643,0,0,1,479.18088958790827,584.8191104120917" stroke="grey" stroke-width="5" fill="none" />
<circle cx="527.1808895879083" cy="584.8191104120917" r="5" fill="black" stroke="none" />
<circle cx="479.18088958790827" cy="584.8191104120917" r="5" fill="black" stroke="none" />
<path d="M479.18088958790827,584.8191104120917 A87.33680123206643,87.33680123206643,0,0,1,461.6523901103067,578.4676854838817" stroke="grey" stroke-width="5" fill="none" />
<path d="M461.6523901103067,578.4676854838817 L431.18088958790827,640.8191104120917" stroke="grey" stroke-width="5" />
<circle cx="461.6523901103067" cy="578.4676854838817" r="2.5" fill="grey" stroke="none" />
<circle cx="479.18088958790827" cy="584.8191104120917" r="5" fill="black" stroke="none" />
<circle cx="431.18088958790827" cy="640.8191104120917" r="5" fill="black" stroke="none" />
<path d="M431.18088958790827,640.8191104120917 A156.7357387935648,156.7357387935648,0,0,0,482.8224872770964,655.7916071931318" stroke="grey" stroke-width="5" fill="none" />
<path d="M482.82248727709646,655.7916071931318 L479.18088958790827,688.8191104120917" stroke="grey" stroke-width="5" />
<circle cx="482.82248727709646" cy="655.7916071931318" r="2.5" fill="grey" stroke="none" />
<circle cx="431.18088958790827" cy="640.8191104120917" r="5" fill="black" stroke="none" />
<circle cx="479.18088958790827" cy="688.8191104120917" r="5" fill="black" stroke="none" />
<path d="M479.1808895879082,688.8191104120917 A189.96339598766014,189.96339598766014,0,0,0,483.9038463513575,689.2802304861336" stroke="grey" stroke-width="5" fill="none" />
<path d="M483.9038463513576,689.2802304861336 L479.18088958790827,744.8191104120917" stroke="grey" stroke-width="5" />
<circle cx="483.9038463513576" cy="689.2802304861336" r="2.5" fill="grey" stroke="none" />
<circle cx="479.18088958790827" cy="688.8191104120917" r="5" fill="black" stroke="none" />
<circle cx="479.18088958790827" cy="744.8191104120917" r="5" fill="black" stroke="none" />
<path d="M479.1808895879082,744.8191104120917 A245.70273132653378,245.70273132653378,0,0,0,538.2429039136294,742.7082868003722" stroke="grey" stroke-width="5" fill="none" />
<path d="M538.2429039136294,742.7082868003722 L551.1808895879083,824.8191104120917" stroke="grey" stroke-width="5" />
<circle cx="538.2429039136294" cy="742.7082868003722" r="2.5" fill="grey" stroke="none" />
<circle cx="479.18088958790827" cy="744.8191104120917" r="5" fill="black" stroke="none" />
<circle cx="551.1808895879083" cy="824.8191104120917" r="5" fill="black" stroke="none" />
<path d="M527.1808895879083,584.8191104120917 A89.06785194383365,89.06785194383365,0,0,1,502.6024292975626,589.0298242817532" stroke="grey" stroke-width="5" fill="none" />
<path d="M502.6024292975626,589.0298242817532 L503.18088958790827,608.8191104120917" stroke="grey" stroke-width="5" />
<circle cx="502.6024292975626" cy="589.0298242817532" r="2.5" fill="grey" stroke="none" />
<circle cx="527.1808895879083" cy="584.8191104120917" r="5" fill="black" stroke="none" />
<circle cx="503.18088958790827" cy="608.8191104120917" r="5" fill="black" stroke="none" />
<path d="M503.1808895879082,608.8191104120917 A108.86559075047303,108.86559075047303,0,0,1,484.0780582721033,607.6949795536586" stroke="grey" stroke-width="5" fill="none" />
<path d="M484.07805827210325,607.6949795536586 L479.18088958790827,640.8191104120917" stroke="grey" stroke-width="5" />
<circle cx="484.07805827210325" cy="607.6949795536586" r="2.5" fill="grey" stroke="none" />
<circle cx="503.18088958790827" cy="608.8191104120917" r="5" fill="black" stroke="none" />
<circle cx="479.18088958790827" cy="640.8191104120917" r="5" fill="black" stroke="none" />
<path d="M479.18088958790827,640.8191104120917 A142.34977069037996,142.34977069037996,0,0,0,484.399122906123,641.4922960782865" stroke="grey" stroke-width="5" fill="none" />
<path d="M484.39912290612307,641.4922960782865 L479.18088958790827,688.8191104120917" stroke="grey" stroke-width="5" />
<circle cx="484.39912290612307" cy="641.4922960782865" r="2.5" fill="grey" stroke="none" />
<circle cx="479.18088958790827" cy="640.8191104120917" r="5" fill="black" stroke="none" />
<circle cx="479.18088958790827" cy="688.8191104120917" r="5" fill="black" stroke="none" />
<path d="M479.18088958790827,584.8191104120917 A87.33680123206643,87.33680123206643,0,0,0,502.55185058718,587.2995126448607" stroke="grey" stroke-width="5" fill="none" />
<path d="M502.55185058718,587.2995126448607 L503.18088958790827,608.8191104120917" stroke="grey" stroke-width="5" />
<circle cx="502.55185058718" cy="587.2995126448607" r="2.5" fill="grey" stroke="none" />
<circle cx="479.18088958790827" cy="584.8191104120917" r="5" fill="black" stroke="none" />
<circle cx="503.18088958790827" cy="608.8191104120917" r="5" fill="black" stroke="none" />
<path d="M431.18088958790827,640.8191104120917 L437.497442117015,627.8940478430793" stroke="grey" stroke-width="5" />
<circle cx="437.497442117015" cy="627.8940478430793" r="2.5" fill="grey" stroke="none" />
<path d="M437.497442117015,627.8940478430793 A142.34977069037996,142.34977069037996,0,0,0,479.18088958790827,640.8191104120917" stroke="grey" stroke-width="5" fill="none" />
<circle cx="431.18088958790827" cy="640.8191104120917" r="5" fill="black" stroke="none" />
<circle cx="479.18088958790827" cy="640.8191104120917" r="5" fill="black" stroke="none" />
<path d="M527.1808895879083,584.8191104120917 A89.06785194383365,89.06785194383365,0,0,1,516.8802909738008,587.4536335810496" stroke="grey" stroke-width="5" fill="none" />
<path d="M516.8802909738008,587.4536335810496 L527.1808895879083,640.8191104120917" stroke="grey" stroke-width="5" />
<circle cx="516.8802909738008" cy="587.4536335810496" r="2.5" fill="grey" stroke="none" />
<circle cx="527.1808895879083" cy="584.8191104120917" r="5" fill="black" stroke="none" />
<circle cx="527.1808895879083" cy="640.8191104120917" r="5" fill="black" stroke="none" />
<path d="M503.1808895879082,608.8191104120917 A108.86559075047303,108.86559075047303,0,0,0,520.6323921459513,606.8925687023432" stroke="grey" stroke-width="5" fill="none" />
<path d="M520.6323921459513,606.8925687023432 L527.1808895879083,640.8191104120917" stroke="grey" stroke-width="5" />
<circle cx="520.6323921459513" cy="606.8925687023432" r="2.5" fill="grey" stroke="none" />
<circle cx="503.18088958790827" cy="608.8191104120917" r="5" fill="black" stroke="none" />
<circle cx="527.1808895879083" cy="640.8191104120917" r="5" fill="black" stroke="none" />
<path d="M479.18088958790827,640.8191104120917 A142.34977069037996,142.34977069037996,0,0,0,526.9783709482824,639.7698991792604" stroke="grey" stroke-width="5" fill="none" />
<path d="M526.9783709482824,639.7698991792604 L527.1808895879083,640.8191104120917" stroke="grey" stroke-width="5" />
<circle cx="526.9783709482824" cy="639.7698991792604" r="2.5" fill="grey" stroke="none" />
<circle cx="479.18088958790827" cy="640.8191104120917" r="5" fill="black" stroke="none" />
<circle cx="527.1808895879083" cy="640.8191104120917" r="5" fill="black" stroke="none" />
<path d="M479.18088958790827,688.8191104120917 L484.2820117428108,642.5544368344592" stroke="grey" stroke-width="5" />
<circle cx="484.2820117428108" cy="642.5544368344592" r="2.5" fill="grey" stroke="none" />
<path d="M484.2820117428108,642.5544368344592 A143.41834825447876,143.41834825447876,0,0,0,527.1808895879083,640.8191104120917" stroke="grey" stroke-width="5" fill="none" />
<circle cx="479.18088958790827" cy="688.8191104120917" r="5" fill="black" stroke="none" />
<circle cx="527.1808895879083" cy="640.8191104120917" r="5" fill="black" stroke="none" />
<path d="M527.1808895879083,640.8191104120917 A143.41834825447876,143.41834825447876,0,0,1,518.1695529387414,642.2627497345993" stroke="grey" stroke-width="5" fill="none" />
<path d="M518.1695529387415,642.2627497345993 L527.1808895879083,712.8191104120917" stroke="grey" stroke-width="5" />
<circle cx="518.1695529387415" cy="642.2627497345993" r="2.5" fill="grey" stroke="none" />
<circle cx="527.1808895879083" cy="640.8191104120917" r="5" fill="black" stroke="none" />
<circle cx="527.1808895879083" cy="712.8191104120917" r="5" fill="black" stroke="none" />
<path d="M527.1808895879082,712.8191104120917 A214.54783735890734,214.54783735890734,0,0,1,481.82073479389015,713.7762588126897" stroke="grey" stroke-width="5" fill="none" />
<path d="M481.8207347938902,713.7762588126897 L479.18088958790827,744.8191104120917" stroke="grey" stroke-width="5" />
<circle cx="481.8207347938902" cy="713.7762588126897" r="2.5" fill="grey" stroke="none" />
<circle cx="527.1808895879083" cy="712.8191104120917" r="5" fill="black" stroke="none" />
<circle cx="479.18088958790827" cy="744.8191104120917" r="5" fill="black" stroke="none" />
<path d="M527.1808895879083,584.8191104120917 A89.06785194383365,89.06785194383365,0,0,0,588.1307411869258,487.1137783764293" stroke="grey" stroke-width="5" fill="none" />
<path d="M588.1307411869258,487.1137783764293 L631.1808895879083,480.81911041209173" stroke="grey" stroke-width="5" />
<circle cx="588.1307411869258" cy="487.1137783764293" r="2.5" fill="grey" stroke="none" />
<circle cx="527.1808895879083" cy="584.8191104120917" r="5" fill="black" stroke="none" />
<circle cx="631.1808895879083" cy="480.81911041209173" r="5" fill="black" stroke="none" />
<path d="M527.1808895879083,584.8191104120917 A89.06785194383365,89.06785194383365,0,0,0,572.9247058410022,551.1377505165409" stroke="grey" stroke-width="5" fill="none" />
<path d="M572.9247058410022,551.1377505165409 L655.1808895879083,608.8191104120917" stroke="grey" stroke-width="5" />
<circle cx="572.9247058410022" cy="551.1377505165409" r="2.5" fill="grey" stroke="none" />
<circle cx="527.1808895879083" cy="584.8191104120917" r="5" fill="black" stroke="none" />
<circle cx="655.1808895879083" cy="608.8191104120917" r="5" fill="black" stroke="none" />
<path d="M655.1808895879083,608.8191104120917 A189.53286597361839,189.53286597361839,0,0,0,673.0017235507108,577.4151854138256" stroke="grey" stroke-width="5" fill="none" />
<path d="M673.0017235507108,577.4151854138256 L743.1808895879083,608.8191104120917" stroke="grey" stroke-width="5" />
<circle cx="673.0017235507108" cy="577.4151854138256" r="2.5" fill="grey" stroke="none" />
<circle cx="655.1808895879083" cy="608.8191104120917" r="5" fill="black" stroke="none" />
<circle cx="743.1808895879083" cy="608.8191104120917" r="5" fill="black" stroke="none" />
<path d="M527.1808895879083,640.8191104120917 A143.41834825447876,143.41834825447876,0,0,0,550.0559946312641,634.3994792308281" stroke="grey" stroke-width="5" fill="none" />
<path d="M550.0559946312641,634.3994792308282 L591.1808895879083,744.8191104120917" stroke="grey" stroke-width="5" />
<circle cx="550.0559946312641" cy="634.3994792308282" r="2.5" fill="grey" stroke="none" />
<circle cx="527.1808895879083" cy="640.8191104120917" r="5" fill="black" stroke="none" />
<circle cx="591.1808895879083" cy="744.8191104120917" r="5" fill="black" stroke="none" />
<circle cx="500" cy="500" r="5" fill="red" stroke="none" />
</svg>