<?xml version="1.0" encoding="UTF-8"?>
<svg xmlns="http://www.w3.org/2000/svg" xmlns:xlink="http://www.w3.org/1999/xlink"
     width="1000" height="1000" viewBox="0 0 1000 1000">
<defs>
</defs>
<rect x="0" y="0" width="1000" height="1000" fill="white" />
<path d="M367.88212181483493,684.0 L438.9314818640008,585.0498622243659" stroke="grey" stroke-width="5" />
<circle cx="438.9314818640008" cy="585.0498622243659" r="2.5" fill="grey" stroke="none" />
<path d="M438.9314818640008,585.0498622243659 A104.70359579169428,104.70359579169428,0,0,0,487.8821218148349,604.0" stroke="grey" stroke-width="5" fill="none" />
<circle cx="367.88212181483493" cy="684.0" r="5" fill="black" stroke="none" />
<circle cx="487.88212181483493" cy="604.0" r="5" fill="black" stroke="none" />
<path d="M487.88212181483493,604.0 L494.27042077550004,549.1733148528822" stroke="grey" stroke-width="5" />
<circle cx="494.27042077550004" cy="549.1733148528822" r="2.5" fill="grey" stroke="none" />
<path d="M494.27042077550004,549.1733148528822 A49.505989250902765,49.505989250902765,0,0,1,487.8821218148349,548.0" stroke="grey" stroke-width="5" fill="none" />
<circle cx="487.88212181483493" cy="604.0" r="5" fill="black" stroke="none" />
<circle cx="487.88212181483493" cy="548.0" r="5" fill="black" stroke="none" />
<path d="M487.8821218148349,548.0 A49.505989250902765,49.505989250902765,0,0,1,454.2488456805926,518.9122936248427" stroke="grey" stroke-width="5" fill="none" />
<path d="M454.2488456805926,518.9122936248427 L383.88212181483493,548.0" stroke="grey" stroke-width="5" />
<circle cx="454.2488456805926" cy="518.9122936248427" r="2.5" fill="grey" stroke="none" />
<circle cx="487.88212181483493" cy="548.0" r="5" fill="black" stroke="none" />
<circle cx="383.88212181483493" cy="548.0" r="5" fill="black" stroke="none" />
<path d="M383.88212181483493,548.0 L412.6690119810312,536.1002757751567" stroke="grey" stroke-width="5" />
<circle cx="412.6690119810312" cy="536.1002757751567" r="2.5" fill="grey" stroke="none" />
<path d="M412.6690119810312,536.1002757751567 A94.49831416174382,94.49831416174382,0,0,1,423.88212181483493,444.0" stroke="grey" stroke-width="5" fill="none" />
<circle cx="383.88212181483493" cy="548.0" r="5" fill="black" stroke="none" />
<circle cx="423.88212181483493" cy="444.0" r="5" fill="black" stroke="none" />
<path d="M423.88212181483493,444.0 A94.49831416174382,94.49831416174382,0,0,1,522.8485552831422,408.3055350586262" stroke="grey" stroke-width="5" fill="none" />
<path d="M522.8485552831422,408.3055350586262 L535.8821218148349,356.0" stroke="grey" stroke-width="5" />
<circle cx="522.8485552831422" cy="408.3055350586262" r="2.5" fill="grey" stroke="none" />
<circle cx="423.88212181483493" cy="444.0" r="5" fill="black" stroke="none" />
<circle cx="535.8821218148349" cy="356.0" r="5" fill="black" stroke="none" />
<path d="M535.8821218148349,356.0 L535.4004423712405,357.9330473330293" stroke="grey" stroke-width="5" />
<circle cx="535.4004423712405" cy="357.9330473330293" r="2.5" fill="grey" stroke="none" />
<path d="M535.4004423712405,357.9330473330293 A146.4111005359867,146.4111005359867,0,0,1,583.8821218148349,380.0" stroke="grey" stroke-width="5" fill="none" />
<circle cx="535.8821218148349" cy="356.0" r="5" fill="black" stroke="none" />
<circle cx="583.8821218148349" cy="380.0" r="5" fill="black" stroke="none" />
<path d="M583.8821218148349,380.0 L567.3799154291332,403.6077095266561" stroke="grey" stroke-width="5" />
<circle cx="567.3799154291332" cy="403.6077095266561" r="2.5" fill="grey" stroke="none" />
<path d="M567.3799154291332,403.6077095266561 A117.6075110948899,117.6075110948899,0,0,0,535.8821218148349,388.0" stroke="grey" stroke-width="5" fill="none" />
<circle cx="583.8821218148349" cy="380.0" r="5" fill="black" stroke="none" />
<circle cx="535.8821218148349" cy="388.0" r="5" fill="black" stroke="none" />
<path d="M535.8821218148349,356.0 L528.436081032779,385.88200859885467" stroke="grey" stroke-width="5" />
<circle cx="528.436081032779" cy="385.88200859885467" r="2.5" fill="grey" stroke="none" />
<path d="M528.436081032779,385.88200859885467 A117.6075110948899,117.6075110948899,0,0,1,535.8821218148349,388.0" stroke="grey" stroke-width="5" fill="none" />
<circle cx="535.8821218148349" cy="356.0" r="5" fill="black" stroke="none" />
<circle cx="535.8821218148349" cy="388.0" r="5" fill="black" stroke="none" />
<path d="M535.8821218148349,388.0 L503.69717186538026,488.4599006976395" stroke="grey" stroke-width="5" />
<circle cx="503.69717186538026" cy="488.4599006976395" r="2.5" fill="grey" stroke="none" />
<path d="M503.69717186538026,488.4599006976395 A12.117878185165097,12.117878185165097,0,0,0,487.88212181483493,500.0" stroke="grey" stroke-width="5" fill="none" />
<circle cx="535.8821218148349" cy="388.0" r="5" fill="black" stroke="none" />
<circle cx="487.88212181483493" cy="500.0" r="5" fill="black" stroke="none" />
<path d="M423.88212181483493,444.0 L490.2391150176256,492.81890704200555" stroke="grey" stroke-width="5" />
<circle cx="490.2391150176256" cy="492.81890704200555" r="2.5" fill="grey" stroke="none" />
<path d="M490.2391150176256,492.81890704200555 A12.117878185165097,12.117878185165097,0,0,0,487.88212181483493,500.0" stroke="grey" stroke-width="5" fill="none" />
<circle cx="423.88212181483493" cy="444.0" r="5" fill="black" stroke="none" />
<circle cx="487.88212181483493" cy="500.0" r="5" fill="black" stroke="none" />
<path d="M487.88212181483493,500.0 A12.117878185165097,12.117878185165097,0,0,0,497.0338342101138,511.74924815541016" stroke="grey" stroke-width="5" fill="none" />
<path d="M497.0338342101138,511.74924815541016 L487.88212181483493,548.0" stroke="grey" stroke-width="5" />
<circle cx="497.0338342101138" cy="511.74924815541016" r="2.5" fill="grey" stroke="none" />
<circle cx="487.88212181483493" cy="500.0" r="5" fill="black" stroke="none" />
<circle cx="487.88212181483493" cy="548.0" r="5" fill="black" stroke="none" />
<path d="M583.8821218148349,380.0 A146.4111005359867,146.4111005359867,0,0,1,589.6339968179668,384.23317843788095" stroke="grey" stroke-width="5" fill="none" />
<path d="M589.6339968179668,384.23317843788095 L623.8821218148349,340.0" stroke="grey" stroke-width="5" />
<circle cx="589.6339968179668" cy="384.23317843788095" r="2.5" fill="grey" stroke="none" />
<circle cx="583.8821218148349" cy="380.0" r="5" fill="black" stroke="none" />
<circle cx="623.8821218148349" cy="340.0" r="5" fill="black" stroke="none" />
<path d="M583.8821218148349,380.0 L582.0877173238674,382.5670373407032" stroke="grey" stroke-width="5" />
<circle cx="582.0877173238674" cy="382.5670373407032" r="2.5" fill="grey" stroke="none" />
<path d="M582.0877173238674,382.5670373407032 A143.27907751790892,143.27907751790892,0,0,1,631.8821218148349,444.0" stroke="grey" stroke-width="5" fill="none" />
<circle cx="583.8821218148349" cy="380.0" r="5" fill="black" stroke="none" />
<circle cx="631.8821218148349" cy="444.0" r="5" fill="black" stroke="none" />
<path d="M535.8821218148349,388.0 L530.771645702761,403.9514904805777" stroke="grey" stroke-width="5" />
<circle cx="530.771645702761" cy="403.9514904805777" r="2.5" fill="grey" stroke="none" />
<path d="M530.771645702761,403.9514904805777 A100.85737632993832,100.85737632993832,0,0,1,583.8821218148349,444.0" stroke="grey" stroke-width="5" fill="none" />
<circle cx="535.8821218148349" cy="388.0" r="5" fill="black" stroke="none" />
<circle cx="583.8821218148349" cy="444.0" r="5" fill="black" stroke="none" />
<path d="M487.88212181483493,500.0 L535.8821218148349,500.0" stroke="grey" stroke-width="5" />
<circle cx="487.88212181483493" cy="500.0" r="5" fill="black" stroke="none" />
<circle cx="535.8821218148349" cy="500.0" r="5" fill="black" stroke="none" />
<path d="M487.8821218148349,548.0 A49.505989250902765,49.505989250902765,0,0,0,542.9683643459476,524.5878554807937" stroke="grey" stroke-width="5" fill="none" />
<path d="M542.9683643459476,524.5878554807937 L583.8821218148349,548.0" stroke="grey" stroke-width="5" />
<circle cx="542.9683643459476" cy="524.5878554807937" r="2.5" fill="grey" stroke="none" />
<circle cx="487.88212181483493" cy="548.0" r="5" fill="black" stroke="none" />
<circle cx="583.8821218148349" cy="548.0" r="5" fill="black" stroke="none" />
<path d="M487.8821218148349,604.0 A104.70359579169428,104.70359579169428,0,0,0,565.7332350276627,581.4983728948533" stroke="grey" stroke-width="5" fill="none" />
<path d="M565.7332350276627,581.4983728948533 L583.8821218148349,604.0" stroke="grey" stroke-width="5" />
<circle cx="565.7332350276627" cy="581.4983728948533" r="2.5" fill="grey" stroke="none" />
<circle cx="487.88212181483493" cy="604.0" r="5" fill="black" stroke="none" />
<circle cx="583.8821218148349" cy="604.0" r="5" fill="black" stroke="none" />
<path d="M631.8821218148349,444.0 L592.8348019926846,460.5803361361635" stroke="grey" stroke-width="5" />
<circle cx="592.8348019926846" cy="460.5803361361635" r="2.5" fill="grey" stroke="none" />
<path d="M592.8348019926846,460.5803361361635 A100.85737632993832,100.85737632993832,0,0,0,583.8821218148349,444.0" stroke="grey" stroke-width="5" fill="none" />
<circle cx="631.8821218148349" cy="444.0" r="5" fill="black" stroke="none" />
<circle cx="583.8821218148349" cy="444.0" r="5" fill="black" stroke="none" />
<path d="M583.8821218148349,444.0 L529.8428198568287,480.076828341664" stroke="grey" stroke-width="5" />
<circle cx="529.8428198568287" cy="480.076828341664" r="2.5" fill="grey" stroke="none" />
<path d="M529.8428198568287,480.076828341664 A35.8821218148349,35.8821218148349,0,0,1,535.8821218148349,500.0" stroke="grey" stroke-width="5" fill="none" />
<circle cx="583.8821218148349" cy="444.0" r="5" fill="black" stroke="none" />
<circle cx="535.8821218148349" cy="500.0" r="5" fill="black" stroke="none" />
<path d="M535.8821218148349,500.0 A35.8821218148349,35.8821218148349,0,0,1,531.1436274070089,517.8213674522483" stroke="grey" stroke-width="5" fill="none" />
<path d="M531.1436274070089,517.8213674522483 L583.8821218148349,548.0" stroke="grey" stroke-width="5" />
<circle cx="531.1436274070089" cy="517.8213674522483" r="2.5" fill="grey" stroke="none" />
<circle cx="535.8821218148349" cy="500.0" r="5" fill="black" stroke="none" />
<circle cx="583.8821218148349" cy="548.0" r="5" fill="black" stroke="none" />
<path d="M583.8821218148349,548.0 A96.64476374930409,96.64476374930409,0,0,1,560.6738758271937,575.2256017075641" stroke="grey" stroke-width="5" fill="none" />
<path d="M560.6738758271937,575.2256017075641 L583.8821218148349,604.0" stroke="grey" stroke-width="5" />
<circle cx="560.6738758271937" cy="575.2256017075641" r="2.5" fill="grey" stroke="none" />
<circle cx="583.8821218148349" cy="548.0" r="5" fill="black" stroke="none" />
<circle cx="583.8821218148349" cy="604.0" r="5" fill="black" stroke="none" />
<path d="M583.8821218148349,604.0 A133.612163967802,133.612163967802,0,0,0,586.3670121643435,601.9458168340562" stroke="grey" stroke-width="5" fill="none" />
<path d="M586.3670121643435,601.9458168340562 L655.8821218148349,684.0" stroke="grey" stroke-width="5" />
<circle cx="586.3670121643435" cy="601.9458168340562" r="2.5" fill="grey" stroke="none" />
<circle cx="583.8821218148349" cy="604.0" r="5" fill="black" stroke="none" />
<circle cx="655.8821218148349" cy="684.0" r="5" fill="black" stroke="none" />
<path d="M631.8821218148349,444.0 L603.5771062649193,456.0189215109896" stroke="grey" stroke-width="5" />
<circle cx="603.5771062649193" cy="456.0189215109896" r="2.5" fill="grey" stroke="none" />
<path d="M603.5771062649193,456.0189215109896 A112.52800632407417,112.52800632407417,0,0,1,607.8821218148349,468.0" stroke="grey" stroke-width="5" fill="none" />
<circle cx="631.8821218148349" cy="444.0" r="5" fill="black" stroke="none" />
<circle cx="607.8821218148349" cy="468.0" r="5" fill="black" stroke="none" />
<path d="M607.8821218148349,468.0 L580.4189248466123,476.14613476449324" stroke="grey" stroke-width="5" />
<circle cx="580.4189248466123" cy="476.14613476449324" r="2.5" fill="grey" stroke="none" />
<path d="M580.4189248466123,476.14613476449324 A83.8821218148349,83.8821218148349,0,0,1,583.8821218148349,500.0" stroke="grey" stroke-width="5" fill="none" />
<circle cx="607.8821218148349" cy="468.0" r="5" fill="black" stroke="none" />
<circle cx="583.8821218148349" cy="500.0" r="5" fill="black" stroke="none" />
<path d="M583.8821218148349,500.0 A83.8821218148349,83.8821218148349,0,0,1,572.8048793042807,541.6612518972718" stroke="grey" stroke-width="5" fill="none" />
<path d="M572.8048793042807,541.6612518972718 L583.8821218148349,548.0" stroke="grey" stroke-width="5" />
<circle cx="572.8048793042807" cy="541.6612518972718" r="2.5" fill="grey" stroke="none" />
<circle cx="583.8821218148349" cy="500.0" r="5" fill="black" stroke="none" />
<circle cx="583.8821218148349" cy="548.0" r="5" fill="black" stroke="none" />
<path d="M583.8821218148349,444.0 A100.85737632993832,100.85737632993832,0,0,1,596.693330972338,471.31881966109665" stroke="grey" stroke-width="5" fill="none" />
<path d="M596.693330972338,471.31881966109665 L607.8821218148349,468.0" stroke="grey" stroke-width="5" />
<circle cx="596.693330972338" cy="471.31881966109665" r="2.5" fill="grey" stroke="none" />
<circle cx="583.8821218148349" cy="444.0" r="5" fill="black" stroke="none" />
<circle cx="607.8821218148349" cy="468.0" r="5" fill="black" stroke="none" />
<path d="M535.8821218148349,500.0 A35.8821218148349,35.8821218148349,0,0,1,535.8821218148349,500.0" stroke="grey" stroke-width="5" fill="none" />
<path d="M535.8821218148349,500.0 L583.8821218148349,500.0" stroke="grey" stroke-width="5" />
<circle cx="535.8821218148349" cy="500.0" r="2.5" fill="grey" stroke="none" />
<circle cx="535.8821218148349" cy="500.0" r="5" fill="black" stroke="none" />
<circle cx="583.8821218148349" cy="500.0" r="5" fill="black" stroke="none" />
<path d="M631.8821218148349,444.0 L621.391722753163,448.45445022698703" stroke="grey" stroke-width="5" />
<circle cx="621.391722753163" cy="448.45445022698703" r="2.5" fill="grey" stroke="none" />
<path d="M621.391722753163,448.45445022698703 A131.8821218148349,131.8821218148349,0,0,1,631.8821218148349,500.0" stroke="grey" stroke-width="5" fill="none" />
<circle cx="631.8821218148349" cy="444.0" r="5" fill="black" stroke="none" />
<circle cx="631.8821218148349" cy="500.0" r="5" fill="black" stroke="none" />
<path d="M607.8821218148349,468.0 A112.52800632407417,112.52800632407417,0,0,1,612.5280063240741,500.0" stroke="grey" stroke-width="5" fill="none" />
<path d="M612.5280063240741,500.0 L631.8821218148349,500.0" stroke="grey" stroke-width="5" />
<circle cx="612.5280063240741" cy="500.0" r="2.5" fill="grey" stroke="none" />
<circle cx="607.8821218148349" cy="468.0" r="5" fill="black" stroke="none" />
<circle cx="631.8821218148349" cy="500.0" r="5" fill="black" stroke="none" />
<path d="M583.8821218148349,500.0 A83.8821218148349,83.8821218148349,0,0,1,583.8821218148349,500.0" stroke="grey" stroke-width="5" fill="none" />
<path d="M583.8821218148349,500.0 L631.8821218148349,500.0" stroke="grey" stroke-width="5" />
<circle cx="583.8821218148349" cy="500.0" r="2.5" fill="grey" stroke="none" />
<circle cx="583.8821218148349" cy="500.0" r="5" fill="black" stroke="none" />
<circle cx="631.8821218148349" cy="500.0" r="5" fill="black" stroke="none" />
<path d="M583.8821218148349,548.0 A96.64476374930409,96.64476374930409,0,0,0,596.644763749304,500.0" stroke="grey" stroke-width="5" fill="none" />
<path d="M596.644763749304,500.0 L631.8821218148349,500.0" stroke="grey" stroke-width="5" />
<circle cx="596.644763749304" cy="500.0" r="2.5" fill="grey" stroke="none" />
<circle cx="583.8821218148349" cy="548.0" r="5" fill="black" stroke="none" />
<circle cx="631.8821218148349" cy="500.0" r="5" fill="black" stroke="none" />
<path d="M631.8821218148349,500.0 A131.8821218148349,131.8821218148349,0,0,1,615.7549985978353,563.1955247940714" stroke="grey" stroke-width="5" fill="none" />
<path d="M615.7549985978353,563.1955247940714 L631.8821218148349,572.0" stroke="grey" stroke-width="5" />
<circle cx="615.7549985978353" cy="563.1955247940714" r="2.5" fill="grey" stroke="none" />
<circle cx="631.8821218148349" cy="500.0" r="5" fill="black" stroke="none" />
<circle cx="631.8821218148349" cy="572.0" r="5" fill="black" stroke="none" />
<path d="M631.8821218148349,572.0 L617.273483622455,564.0245296680309" stroke="grey" stroke-width="5" />
<circle cx="617.273483622455" cy="564.0245296680309" r="2.5" fill="grey" stroke="none" />
<path d="M617.273483622455,564.0245296680309 A133.612163967802,133.612163967802,0,0,1,583.8821218148349,604.0" stroke="grey" stroke-width="5" fill="none" />
<circle cx="631.8821218148349" cy="572.0" r="5" fill="black" stroke="none" />
<circle cx="583.8821218148349" cy="604.0" r="5" fill="black" stroke="none" />
<path d="M631.8821218148349,444.0 A143.27907751790892,143.27907751790892,0,0,0,618.5746473380134,419.57023521699995" stroke="grey" stroke-width="5" fill="none" />
<path d="M618.5746473380134,419.57023521699995 L735.8821218148349,340.0" stroke="grey" stroke-width="5" />
<circle cx="618.5746473380134" cy="419.57023521699995" r="2.5" fill="grey" stroke="none" />
<circle cx="631.8821218148349" cy="444.0" r="5" fill="black" stroke="none" />
<circle cx="735.8821218148349" cy="340.0" r="5" fill="black" stroke="none" />
<path d="M631.8821218148349,444.0 A143.27907751790892,143.27907751790892,0,0,1,642.2050993652483,482.48989523438553" stroke="grey" stroke-width="5" fill="none" />
<path d="M642.2050993652483,482.48989523438553 L759.8821218148349,468.0" stroke="grey" stroke-width="5" />
<circle cx="642.2050993652483" cy="482.48989523438553" r="2.5" fill="grey" stroke="none" />
<circle cx="631.8821218148349" cy="444.0" r="5" fill="black" stroke="none" />
<circle cx="759.8821218148349" cy="468.0" r="5" fill="black" stroke="none" />
<path d="M759.8821218148349,468.0 A261.84483427973277,261.84483427973277,0,0,1,760.744044551341,476.0154118236521" stroke="grey" stroke-width="5" fill="none" />
<path d="M760.744044551341,476.0154118236521 L847.8821218148349,468.0" stroke="grey" stroke-width="5" />
<circle cx="760.744044551341" cy="476.0154118236521" r="2.5" fill="grey" stroke="none" />
<circle cx="759.8821218148349" cy="468.0" r="5" fill="black" stroke="none" />
<circle cx="847.8821218148349" cy="468.0" r="5" fill="black" stroke="none" />
<path d="M631.8821218148349,500.0 A131.8821218148349,131.8821218148349,0,0,1,616.4825396097481,561.8442561637411" stroke="grey" stroke-width="5" fill="none" />
<path d="M616.4825396097481,561.8442561637412 L695.8821218148349,604.0" stroke="grey" stroke-width="5" />
<circle cx="616.4825396097481" cy="561.8442561637412" r="2.5" fill="grey" stroke="none" />
<circle cx="631.8821218148349" cy="500.0" r="5" fill="black" stroke="none" />
<circle cx="695.8821218148349" cy="604.0" r="5" fill="black" stroke="none" />
<circle cx="500" cy="500" r="5" fill="red" stroke="none" />
</svg>