<?xml version="1.0" encoding="UTF-8"?>
<svg xmlns="http://www.w3.org/2000/svg" xmlns:xlink="http://www.w3.org/1999/xlink"
     width="1000" height="1000" viewBox="0 0 1000 1000">
<defs>
</defs>
<rect x="0" y="0" width="1000" height="1000" fill="white" />
<path d="M208.18771121320918,638.8050307214648 L336.00977462427795,578.0044883165573" stroke="grey" stroke-width="5" />
<circle cx="336.00977462427795" cy="578.0044883165573" r="2.5" fill="grey" stroke="none" />
<path d="M336.00977462427795,578.0044883165573 A181.59706554982665,181.59706554982665,0,0,1,328.1877112132092,558.8050307214648" stroke="grey" stroke-width="5" fill="none" />
<circle cx="208.18771121320918" cy="638.8050307214648" r="5" fill="black" stroke="none" />
<circle cx="328.1877112132092" cy="558.8050307214648" r="5" fill="black" stroke="none" />
<path d="M328.1877112132092,558.8050307214648 L337.4236041462203,555.6439240771092" stroke="grey" stroke-width="5" />
<circle cx="337.4236041462203" cy="555.6439240771092" r="2.5" fill="grey" stroke="none" />
<path d="M337.4236041462203,555.6439240771092 A171.83518491712914,171.83518491712914,0,0,1,328.1877112132092,502.80503072146496" stroke="grey" stroke-width="5" fill="none" />
<circle cx="328.1877112132092" cy="558.8050307214648" r="5" fill="black" stroke="none" />
<circle cx="328.1877112132092" cy="502.8050307214649" r="5" fill="black" stroke="none" />
<path d="M328.1877112132092,502.80503072146496 A171.83518491712914,171.83518491712914,0,0,1,328.17370088076234,501.74748576252773" stroke="grey" stroke-width="5" fill="none" />
<path d="M328.17370088076234,501.7474857625277 L-275.8122887867908,2.8050307214649024" stroke="grey" stroke-width="5" />
<circle cx="328.17370088076234" cy="501.7474857625277" r="2.5" fill="grey" stroke="none" />
<circle cx="328.1877112132092" cy="502.8050307214649" r="5" fill="black" stroke="none" />
<circle cx="224.18771121320918" cy="502.8050307214649" r="5" fill="black" stroke="none" />
<path d="M224.18771121320918,502.8050307214649 L243.40489601870303,502.60959057629736" stroke="grey" stroke-width="5" />
<circle cx="243.40489601870303" cy="502.60959057629736" r="2.5" fill="grey" stroke="none" />
<path d="M243.40489601870303,502.6095905762975 A256.6083734996746,256.6083734996746,0,0,1,264.1877112132091,398.805030721465" stroke="grey" stroke-width="5" fill="none" />
<circle cx="224.18771121320918" cy="502.8050307214649" r="5" fill="black" stroke="none" />
<circle cx="264.1877112132092" cy="398.8050307214649" r="5" fill="black" stroke="none" />
<path d="M264.1877112132092,398.8050307214649 L292.2175063726353,410.8335567776551" stroke="grey" stroke-width="5" />
<circle cx="292.2175063726353" cy="410.8335567776551" r="2.5" fill="grey" stroke="none" />
<path d="M292.2175063726352,410.8335567776552 A226.10665460116277,226.10665460116277,0,0,1,376.1877112132092,310.80503072146496" stroke="grey" stroke-width="5" fill="none" />
<circle cx="264.1877112132092" cy="398.8050307214649" r="5" fill="black" stroke="none" />
<circle cx="376.1877112132092" cy="310.8050307214649" r="5" fill="black" stroke="none" />
<path d="M376.1877112132092,310.8050307214649 L400.4709343196204,347.91171612902394" stroke="grey" stroke-width="5" />
<circle cx="400.4709343196204" cy="347.91171612902394" r="2.5" fill="grey" stroke="none" />
<path d="M400.4709343196204,347.91171612902394 A181.7605045273255,181.7605045273255,0,0,1,424.1877112132091,334.80503072146496" stroke="grey" stroke-width="5" fill="none" />
<circle cx="376.1877112132092" cy="310.8050307214649" r="5" fill="black" stroke="none" />
<circle cx="424.1877112132092" cy="334.8050307214649" r="5" fill="black" stroke="none" />
<path d="M424.1877112132091,334.80503072146496 A181.7605045273255,181.7605045273255,0,0,0,387.53493448515275,357.2117300168917" stroke="grey" stroke-width="5" fill="none" />
<path d="M387.53493448515275,357.2117300168917 L-123.81228878679082,-157.1949692785351" stroke="grey" stroke-width="5" />
<circle cx="387.53493448515275" cy="357.2117300168917" r="2.5" fill="grey" stroke="none" />
<circle cx="424.1877112132092" cy="334.8050307214649" r="5" fill="black" stroke="none" />
<circle cx="376.1877112132092" cy="342.8050307214649" r="5" fill="black" stroke="none" />
<path d="M376.1877112132092,310.8050307214649 L390.42889570831403,332.566686930576" stroke="grey" stroke-width="5" />
<circle cx="390.42889570831403" cy="332.566686930576" r="2.5" fill="grey" stroke="none" />
<path d="M390.42889570831403,332.566686930576 A200.09932838743683,200.09932838743683,0,0,0,376.1877112132092,342.80503072146485" stroke="grey" stroke-width="5" fill="none" />
<circle cx="376.1877112132092" cy="310.8050307214649" r="5" fill="black" stroke="none" />
<circle cx="376.1877112132092" cy="342.8050307214649" r="5" fill="black" stroke="none" />
<path d="M376.1877112132092,342.8050307214649 L390.07392843619283,360.4352959491832" stroke="grey" stroke-width="5" />
<circle cx="390.07392843619283" cy="360.4352959491832" r="2.5" fill="grey" stroke="none" />
<path d="M390.07392843619283,360.4352959491832 A177.65710744646086,177.65710744646086,0,0,0,328.1877112132092,454.8050307214649" stroke="grey" stroke-width="5" fill="none" />
<circle cx="376.1877112132092" cy="342.8050307214649" r="5" fill="black" stroke="none" />
<circle cx="328.1877112132092" cy="454.8050307214649" r="5" fill="black" stroke="none" />
<path d="M264.1877112132092,398.8050307214649 L336.7405998688352,429.93991082609466" stroke="grey" stroke-width="5" />
<circle cx="336.7405998688352" cy="429.93991082609466" r="2.5" fill="grey" stroke="none" />
<path d="M336.7405998688352,429.9399108260947 A177.65710744646086,177.65710744646086,0,0,0,328.1877112132092,454.8050307214649" stroke="grey" stroke-width="5" fill="none" />
<circle cx="264.1877112132092" cy="398.8050307214649" r="5" fill="black" stroke="none" />
<circle cx="328.1877112132092" cy="454.8050307214649" r="5" fill="black" stroke="none" />
<path d="M328.1877112132092,454.8050307214649 L333.81809577412696,456.28609507986357" stroke="grey" stroke-width="5" />
<circle cx="333.81809577412696" cy="456.28609507986357" r="2.5" fill="grey" stroke="none" />
<path d="M333.81809577412696,456.28609507986357 A171.83518491712914,171.83518491712914,0,0,0,328.1877112132092,502.80503072146496" stroke="grey" stroke-width="5" fill="none" />
<circle cx="328.1877112132092" cy="454.8050307214649" r="5" fill="black" stroke="none" />
<circle cx="328.1877112132092" cy="502.8050307214649" r="5" fill="black" stroke="none" />
<path d="M424.1877112132091,334.80503072146496 A181.7605045273255,181.7605045273255,0,0,1,468.7500514298197,320.94603684813615" stroke="grey" stroke-width="5" fill="none" />
<path d="M468.7500514298197,320.94603684813615 L-35.812288786790816,-205.1949692785351" stroke="grey" stroke-width="5" />
<circle cx="468.7500514298197" cy="320.94603684813615" r="2.5" fill="grey" stroke="none" />
<circle cx="424.1877112132092" cy="334.8050307214649" r="5" fill="black" stroke="none" />
<circle cx="464.1877112132092" cy="294.8050307214649" r="5" fill="black" stroke="none" />
<path d="M424.1877112132092,334.8050307214649 L456.2264726077074,404.6174884243462" stroke="grey" stroke-width="5" />
<circle cx="456.2264726077074" cy="404.6174884243462" r="2.5" fill="grey" stroke="none" />
<path d="M456.2264726077074,404.6174884243462 A104.94734496328869,104.94734496328869,0,0,1,472.1877112132092,398.8050307214649" stroke="grey" stroke-width="5" fill="none" />
<circle cx="424.1877112132092" cy="334.8050307214649" r="5" fill="black" stroke="none" />
<circle cx="472.1877112132092" cy="398.8050307214649" r="5" fill="black" stroke="none" />
<path d="M376.1877112132092,342.8050307214649 L421.76264289526654,400.6680268410929" stroke="grey" stroke-width="5" />
<circle cx="421.76264289526654" cy="400.6680268410929" r="2.5" fill="grey" stroke="none" />
<path d="M421.76264289526654,400.6680268410929 A126.44336652579064,126.44336652579064,0,0,1,424.1877112132092,398.8050307214649" stroke="grey" stroke-width="5" fill="none" />
<circle cx="376.1877112132092" cy="342.8050307214649" r="5" fill="black" stroke="none" />
<circle cx="424.1877112132092" cy="398.8050307214649" r="5" fill="black" stroke="none" />
<path d="M328.1877112132092,454.8050307214649 L372.5331075597151,466.4700218561321" stroke="grey" stroke-width="5" />
<circle cx="372.5331075597151" cy="466.4700218561321" r="2.5" fill="grey" stroke="none" />
<path d="M372.5331075597151,466.4700218561321 A131.80314147512348,131.80314147512348,0,0,1,376.1877112132092,454.80503072146496" stroke="grey" stroke-width="5" fill="none" />
<circle cx="328.1877112132092" cy="454.8050307214649" r="5" fill="black" stroke="none" />
<circle cx="376.1877112132092" cy="454.8050307214649" r="5" fill="black" stroke="none" />
<path d="M328.1877112132092,502.8050307214649 L424.1459448348961,501.23840358910445" stroke="grey" stroke-width="5" />
<circle cx="424.1459448348961" cy="501.23840358910445" r="2.5" fill="grey" stroke="none" />
<path d="M424.1459448348961,501.23840358910445 A75.86416366401286,75.86416366401286,0,0,0,424.1877112132092,502.80503072146485" stroke="grey" stroke-width="5" fill="none" />
<circle cx="328.1877112132092" cy="502.8050307214649" r="5" fill="black" stroke="none" />
<circle cx="424.1877112132092" cy="502.8050307214649" r="5" fill="black" stroke="none" />
<path d="M328.1877112132092,558.8050307214648 L409.22423695310044,531.0692068211814" stroke="grey" stroke-width="5" />
<circle cx="409.22423695310044" cy="531.0692068211814" r="2.5" fill="grey" stroke="none" />
<path d="M409.22423695310044,531.0692068211814 A95.9454781073303,95.9454781073303,0,0,0,424.18771121320924,558.805030721465" stroke="grey" stroke-width="5" fill="none" />
<circle cx="328.1877112132092" cy="558.8050307214648" r="5" fill="black" stroke="none" />
<circle cx="424.1877112132092" cy="558.8050307214648" r="5" fill="black" stroke="none" />
<path d="M472.1877112132092,398.8050307214649 A104.94734496328869,104.94734496328869,0,0,0,437.0761895829391,416.00869510811674" stroke="grey" stroke-width="5" fill="none" />
<path d="M437.0761895829391,416.00869510811674 L-75.81228878679082,-101.1949692785351" stroke="grey" stroke-width="5" />
<circle cx="437.0761895829391" cy="416.00869510811674" r="2.5" fill="grey" stroke="none" />
<circle cx="472.1877112132092" cy="398.8050307214649" r="5" fill="black" stroke="none" />
<circle cx="424.1877112132092" cy="398.8050307214649" r="5" fill="black" stroke="none" />
<path d="M424.1877112132092,398.8050307214649 A126.44336652579064,126.44336652579064,0,0,0,381.2225381257699,456.64288421618363" stroke="grey" stroke-width="5" fill="none" />
<path d="M381.2225381257699,456.64288421618363 L-123.81228878679082,-45.1949692785351" stroke="grey" stroke-width="5" />
<circle cx="381.2225381257699" cy="456.64288421618363" r="2.5" fill="grey" stroke="none" />
<circle cx="424.1877112132092" cy="398.8050307214649" r="5" fill="black" stroke="none" />
<circle cx="376.1877112132092" cy="454.8050307214649" r="5" fill="black" stroke="none" />
<path d="M376.1877112132092,454.8050307214649 L428.7352665876333,473.9863670337179" stroke="grey" stroke-width="5" />
<circle cx="428.7352665876333" cy="473.9863670337179" r="2.5" fill="grey" stroke="none" />
<path d="M428.7352665876333,473.9863670337179 A75.86416366401286,75.86416366401286,0,0,0,424.1877112132092,502.80503072146485" stroke="grey" stroke-width="5" fill="none" />
<circle cx="376.1877112132092" cy="454.8050307214649" r="5" fill="black" stroke="none" />
<circle cx="424.1877112132092" cy="502.8050307214649" r="5" fill="black" stroke="none" />
<path d="M424.1877112132092,502.80503072146485 A75.86416366401286,75.86416366401286,0,0,0,440.055164686025,546.4971832224335" stroke="grey" stroke-width="5" fill="none" />
<path d="M440.055164686025,546.4971832224335 L-75.81228878679082,58.8050307214649" stroke="grey" stroke-width="5" />
<circle cx="440.055164686025" cy="546.4971832224335" r="2.5" fill="grey" stroke="none" />
<circle cx="424.1877112132092" cy="502.8050307214649" r="5" fill="black" stroke="none" />
<circle cx="424.1877112132092" cy="558.8050307214648" r="5" fill="black" stroke="none" />
<path d="M424.18771121320924,558.805030721465 A95.9454781073303,95.9454781073303,0,0,0,497.36584481016314,595.9093113085485" stroke="grey" stroke-width="5" fill="none" />
<path d="M497.36584481016314,595.9093113085485 L-3.812288786790816,138.8050307214649" stroke="grey" stroke-width="5" />
<circle cx="497.36584481016314" cy="595.9093113085485" r="2.5" fill="grey" stroke="none" />
<circle cx="424.1877112132092" cy="558.8050307214648" r="5" fill="black" stroke="none" />
<circle cx="496.1877112132092" cy="638.8050307214648" r="5" fill="black" stroke="none" />
<path d="M472.1877112132092,398.8050307214649 L475.36162757519895,410.3533204435513" stroke="grey" stroke-width="5" />
<circle cx="475.36162757519895" cy="410.3533204435513" r="2.5" fill="grey" stroke="none" />
<path d="M475.36162757519895,410.3533204435513 A92.97083710088765,92.97083710088765,0,0,0,448.18771121320924,422.80503072146485" stroke="grey" stroke-width="5" fill="none" />
<circle cx="472.1877112132092" cy="398.8050307214649" r="5" fill="black" stroke="none" />
<circle cx="448.1877112132092" cy="422.8050307214649" r="5" fill="black" stroke="none" />
<path d="M448.1877112132092,422.8050307214649 L450.81221924646843,426.7152771464475" stroke="grey" stroke-width="5" />
<circle cx="450.81221924646843" cy="426.7152771464475" r="2.5" fill="grey" stroke="none" />
<path d="M450.81221924646843,426.7152771464474 A88.26147732266608,88.26147732266608,0,0,0,424.18771121320924,454.80503072146485" stroke="grey" stroke-width="5" fill="none" />
<circle cx="448.1877112132092" cy="422.8050307214649" r="5" fill="black" stroke="none" />
<circle cx="424.1877112132092" cy="454.8050307214649" r="5" fill="black" stroke="none" />
<path d="M424.1877112132092,454.8050307214649 L434.8363968207962,461.15317066807904" stroke="grey" stroke-width="5" />
<circle cx="434.8363968207962" cy="461.15317066807904" r="2.5" fill="grey" stroke="none" />
<path d="M434.83639682079627,461.15317066807904 A75.86416366401286,75.86416366401286,0,0,0,424.1877112132092,502.80503072146485" stroke="grey" stroke-width="5" fill="none" />
<circle cx="424.1877112132092" cy="454.8050307214649" r="5" fill="black" stroke="none" />
<circle cx="424.1877112132092" cy="502.8050307214649" r="5" fill="black" stroke="none" />
<path d="M424.1877112132092,398.8050307214649 L444.25700497618016,425.59371628004675" stroke="grey" stroke-width="5" />
<circle cx="444.25700497618016" cy="425.59371628004675" r="2.5" fill="grey" stroke="none" />
<path d="M444.25700497618016,425.59371628004675 A92.97083710088765,92.97083710088765,0,0,1,448.18771121320924,422.80503072146485" stroke="grey" stroke-width="5" fill="none" />
<circle cx="424.1877112132092" cy="398.8050307214649" r="5" fill="black" stroke="none" />
<circle cx="448.1877112132092" cy="422.8050307214649" r="5" fill="black" stroke="none" />
<path d="M376.1877112132092,454.8050307214649 L417.0895670867963,469.73535902534695" stroke="grey" stroke-width="5" />
<circle cx="417.0895670867963" cy="469.73535902534695" r="2.5" fill="grey" stroke="none" />
<path d="M417.0895670867963,469.73535902534695 A88.26147732266608,88.26147732266608,0,0,1,424.18771121320924,454.80503072146485" stroke="grey" stroke-width="5" fill="none" />
<circle cx="376.1877112132092" cy="454.8050307214649" r="5" fill="black" stroke="none" />
<circle cx="424.1877112132092" cy="454.8050307214649" r="5" fill="black" stroke="none" />
<path d="M472.1877112132092,398.8050307214649 L485.93661138038095,448.83038248939954" stroke="grey" stroke-width="5" />
<circle cx="485.93661138038095" cy="448.83038248939954" r="2.5" fill="grey" stroke="none" />
<path d="M485.93661138038095,448.83038248939954 A53.06702041426089,53.06702041426089,0,0,0,472.1877112132092,454.8050307214649" stroke="grey" stroke-width="5" fill="none" />
<circle cx="472.1877112132092" cy="398.8050307214649" r="5" fill="black" stroke="none" />
<circle cx="472.1877112132092" cy="454.8050307214649" r="5" fill="black" stroke="none" />
<path d="M448.1877112132092,422.8050307214649 L470.4259542831205,455.93772049038427" stroke="grey" stroke-width="5" />
<circle cx="470.4259542831205" cy="455.93772049038427" r="2.5" fill="grey" stroke="none" />
<path d="M470.4259542831205,455.93772049038427 A53.06702041426089,53.06702041426089,0,0,1,472.1877112132092,454.8050307214649" stroke="grey" stroke-width="5" fill="none" />
<circle cx="448.1877112132092" cy="422.8050307214649" r="5" fill="black" stroke="none" />
<circle cx="472.1877112132092" cy="454.8050307214649" r="5" fill="black" stroke="none" />
<path d="M424.1877112132092,454.8050307214649 L454.41802699503074,472.8266234593152" stroke="grey" stroke-width="5" />
<circle cx="454.41802699503074" cy="472.8266234593152" r="2.5" fill="grey" stroke="none" />
<path d="M454.4180269950308,472.8266234593152 A53.06702041426089,53.06702041426089,0,0,1,472.1877112132092,454.8050307214649" stroke="grey" stroke-width="5" fill="none" />
<circle cx="424.1877112132092" cy="454.8050307214649" r="5" fill="black" stroke="none" />
<circle cx="472.1877112132092" cy="454.8050307214649" r="5" fill="black" stroke="none" />
<path d="M424.1877112132092,502.8050307214649 L446.96926608829284,501.96212039215055" stroke="grey" stroke-width="5" />
<circle cx="446.96926608829284" cy="501.96212039215055" r="2.5" fill="grey" stroke="none" />
<path d="M446.96926608829284,501.96212039215055 A53.06702041426089,53.06702041426089,0,0,1,472.1877112132092,454.8050307214649" stroke="grey" stroke-width="5" fill="none" />
<circle cx="424.1877112132092" cy="502.8050307214649" r="5" fill="black" stroke="none" />
<circle cx="472.1877112132092" cy="454.8050307214649" r="5" fill="black" stroke="none" />
<path d="M472.1877112132092,454.8050307214649 L479.75577048355643,467.10312703577915" stroke="grey" stroke-width="5" />
<circle cx="479.75577048355643" cy="467.10312703577915" r="2.5" fill="grey" stroke="none" />
<path d="M479.75577048355643,467.10312703577915 A38.626844027677535,38.626844027677535,0,0,0,472.1877112132092,526.805030721465" stroke="grey" stroke-width="5" fill="none" />
<circle cx="472.1877112132092" cy="454.8050307214649" r="5" fill="black" stroke="none" />
<circle cx="472.1877112132092" cy="526.8050307214648" r="5" fill="black" stroke="none" />
<path d="M472.1877112132092,526.805030721465 A38.626844027677535,38.626844027677535,0,0,1,469.47860897547724,523.674411702653" stroke="grey" stroke-width="5" fill="none" />
<path d="M469.47860897547724,523.674411702653 L-75.81228878679082,58.8050307214649" stroke="grey" stroke-width="5" />
<circle cx="469.47860897547724" cy="523.674411702653" r="2.5" fill="grey" stroke="none" />
<circle cx="472.1877112132092" cy="526.8050307214648" r="5" fill="black" stroke="none" />
<circle cx="424.1877112132092" cy="558.8050307214648" r="5" fill="black" stroke="none" />
<path d="M472.1877112132092,398.8050307214649 A104.94734496328869,104.94734496328869,0,0,1,536.529638118305,401.61539371533166" stroke="grey" stroke-width="5" fill="none" />
<path d="M536.529638118305,401.6153937153317 L76.18771121320918,-205.1949692785351" stroke="grey" stroke-width="5" />
<circle cx="536.529638118305" cy="401.6153937153317" r="2.5" fill="grey" stroke="none" />
<circle cx="472.1877112132092" cy="398.8050307214649" r="5" fill="black" stroke="none" />
<circle cx="576.1877112132092" cy="294.8050307214649" r="5" fill="black" stroke="none" />
<path d="M472.1877112132092,398.8050307214649 A104.94734496328869,104.94734496328869,0,0,1,583.1326290692776,435.94602901557613" stroke="grey" stroke-width="5" fill="none" />
<path d="M583.1326290692776,435.94602901557613 L100.18771121320918,-77.1949692785351" stroke="grey" stroke-width="5" />
<circle cx="583.1326290692776" cy="435.94602901557613" r="2.5" fill="grey" stroke="none" />
<circle cx="472.1877112132092" cy="398.8050307214649" r="5" fill="black" stroke="none" />
<circle cx="600.1877112132092" cy="422.8050307214649" r="5" fill="black" stroke="none" />
<path d="M600.1877112132092,422.8050307214649 A126.47782714790517,126.47782714790517,0,0,1,617.0155535733282,451.99998977101217" stroke="grey" stroke-width="5" fill="none" />
<path d="M617.0155535733282,451.99998977101217 L188.18771121320918,-77.1949692785351" stroke="grey" stroke-width="5" />
<circle cx="617.0155535733282" cy="451.99998977101217" r="2.5" fill="grey" stroke="none" />
<circle cx="600.1877112132092" cy="422.8050307214649" r="5" fill="black" stroke="none" />
<circle cx="688.1877112132092" cy="422.8050307214649" r="5" fill="black" stroke="none" />
<path d="M472.1877112132092,454.8050307214649 L536.1877112132092,558.8050307214648" stroke="grey" stroke-width="5" />
<circle cx="472.1877112132092" cy="454.8050307214649" r="5" fill="black" stroke="none" />
<circle cx="536.1877112132092" cy="558.8050307214648" r="5" fill="black" stroke="none" />
<circle cx="500" cy="500" r="5" fill="red" stroke="none" />
</svg>