<?xml version="1.0" encoding="UTF-8"?>
<svg xmlns="http://www.w3.org/2000/svg" xmlns:xlink="http://www.w3.org/1999/xlink"
     width="1000" height="1000" viewBox="0 0 1000 1000">
<defs>
</defs>
<rect x="0" y="0" width="1000" height="1000" fill="white" />
<path d="M256.2060206468507,831.7939793531493 L333.8632342431006,726.1055780524206" stroke="grey" stroke-width="5" />
<circle cx="333.8632342431006" cy="726.1055780524206" r="2.5" fill="grey" stroke="none" />
<path d="M333.8632342431006,726.1055780524206 A280.5800373558,280.5800373558,0,0,0,376.2060206468507,751.7939793531493" stroke="grey" stroke-width="5" fill="none" />
<circle cx="256.2060206468507" cy="831.7939793531493" r="5" fill="black" stroke="none" />
<circle cx="376.2060206468507" cy="751.7939793531493" r="5" fill="black" stroke="none" />
<path d="M376.2060206468507,751.7939793531493 L397.7957333119604,707.881022572503" stroke="grey" stroke-width="5" />
<circle cx="397.7957333119604" cy="707.881022572503" r="2.5" fill="grey" stroke="none" />
<path d="M397.7957333119604,707.881022572503 A231.64678213830084,231.64678213830084,0,0,1,376.2060206468507,695.7939793531493" stroke="grey" stroke-width="5" fill="none" />
<circle cx="376.2060206468507" cy="751.7939793531493" r="5" fill="black" stroke="none" />
<circle cx="376.2060206468507" cy="695.7939793531493" r="5" fill="black" stroke="none" />
<path d="M376.2060206468507,695.7939793531493 A231.64678213830084,231.64678213830084,0,0,1,324.32734917928553,650.9945410558036" stroke="grey" stroke-width="5" fill="none" />
<path d="M324.32734917928553,650.9945410558036 L-227.7939793531493,195.7939793531493" stroke="grey" stroke-width="5" />
<circle cx="324.32734917928553" cy="650.9945410558036" r="2.5" fill="grey" stroke="none" />
<circle cx="376.2060206468507" cy="695.7939793531493" r="5" fill="black" stroke="none" />
<circle cx="272.2060206468507" cy="695.7939793531493" r="5" fill="black" stroke="none" />
<path d="M272.2060206468507,695.7939793531493 L341.4806106669047,636.2509322252146" stroke="grey" stroke-width="5" />
<circle cx="341.4806106669047" cy="636.2509322252146" r="2.5" fill="grey" stroke="none" />
<path d="M341.4806106669047,636.2509322252146 A209.02802043452803,209.02802043452803,0,0,1,312.20602064685073,591.7939793531493" stroke="grey" stroke-width="5" fill="none" />
<circle cx="272.2060206468507" cy="695.7939793531493" r="5" fill="black" stroke="none" />
<circle cx="312.2060206468507" cy="591.7939793531493" r="5" fill="black" stroke="none" />
<path d="M312.2060206468507,591.7939793531493 L431.82026941560207,533.3263547805136" stroke="grey" stroke-width="5" />
<circle cx="431.82026941560207" cy="533.3263547805136" r="2.5" fill="grey" stroke="none" />
<path d="M431.8202694156021,533.3263547805136 A75.8888765598605,75.8888765598605,0,0,1,424.2060206468507,503.7939793531493" stroke="grey" stroke-width="5" fill="none" />
<circle cx="312.2060206468507" cy="591.7939793531493" r="5" fill="black" stroke="none" />
<circle cx="424.2060206468507" cy="503.7939793531493" r="5" fill="black" stroke="none" />
<path d="M424.2060206468507,503.7939793531493 L460.74252942833874,501.9650905530607" stroke="grey" stroke-width="5" />
<circle cx="460.74252942833874" cy="501.9650905530607" r="2.5" fill="grey" stroke="none" />
<path d="M460.74252942833874,501.9650905530607 A39.306622553541516,39.306622553541516,0,0,0,472.20602064685073,527.7939793531493" stroke="grey" stroke-width="5" fill="none" />
<circle cx="424.2060206468507" cy="503.7939793531493" r="5" fill="black" stroke="none" />
<circle cx="472.2060206468507" cy="527.7939793531493" r="5" fill="black" stroke="none" />
<path d="M472.20602064685073,527.7939793531493 A39.306622553541516,39.306622553541516,0,0,1,464.4574703318719,516.7850874694418" stroke="grey" stroke-width="5" fill="none" />
<path d="M464.4574703318719,516.7850874694418 L-75.7939793531493,35.7939793531493" stroke="grey" stroke-width="5" />
<circle cx="464.4574703318719" cy="516.7850874694418" r="2.5" fill="grey" stroke="none" />
<circle cx="472.2060206468507" cy="527.7939793531493" r="5" fill="black" stroke="none" />
<circle cx="424.2060206468507" cy="535.7939793531493" r="5" fill="black" stroke="none" />
<path d="M424.2060206468507,503.7939793531493 A75.8888765598605,75.8888765598605,0,0,0,431.3784173917347,532.406789193852" stroke="grey" stroke-width="5" fill="none" />
<path d="M431.3784173917347,532.406789193852 L-75.7939793531493,35.7939793531493" stroke="grey" stroke-width="5" />
<circle cx="431.3784173917347" cy="532.406789193852" r="2.5" fill="grey" stroke="none" />
<circle cx="424.2060206468507" cy="503.7939793531493" r="5" fill="black" stroke="none" />
<circle cx="424.2060206468507" cy="535.7939793531493" r="5" fill="black" stroke="none" />
<path d="M424.2060206468507,535.7939793531493 A83.8208581685925,83.8208581685925,0,0,0,446.17711490231704,564.2575544498926" stroke="grey" stroke-width="5" fill="none" />
<path d="M446.17711490231704,564.2575544498926 L-123.7939793531493,147.7939793531493" stroke="grey" stroke-width="5" />
<circle cx="446.17711490231704" cy="564.2575544498926" r="2.5" fill="grey" stroke="none" />
<circle cx="424.2060206468507" cy="535.7939793531493" r="5" fill="black" stroke="none" />
<circle cx="376.2060206468507" cy="647.7939793531493" r="5" fill="black" stroke="none" />
<path d="M312.2060206468507,591.7939793531493 L326.7944476934495,584.6631342870667" stroke="grey" stroke-width="5" />
<circle cx="326.7944476934495" cy="584.6631342870667" r="2.5" fill="grey" stroke="none" />
<path d="M326.79444769344957,584.6631342870668 A192.79006628228302,192.79006628228302,0,0,0,376.2060206468507,647.7939793531493" stroke="grey" stroke-width="5" fill="none" />
<circle cx="312.2060206468507" cy="591.7939793531493" r="5" fill="black" stroke="none" />
<circle cx="376.2060206468507" cy="647.7939793531493" r="5" fill="black" stroke="none" />
<path d="M376.2060206468507,647.7939793531493 A192.79006628228302,192.79006628228302,0,0,0,396.9713748469327,662.9512566879919" stroke="grey" stroke-width="5" fill="none" />
<path d="M396.9713748469328,662.951256687992 L-123.7939793531493,195.7939793531493" stroke="grey" stroke-width="5" />
<circle cx="396.9713748469328" cy="662.951256687992" r="2.5" fill="grey" stroke="none" />
<circle cx="376.2060206468507" cy="647.7939793531493" r="5" fill="black" stroke="none" />
<circle cx="376.2060206468507" cy="695.7939793531493" r="5" fill="black" stroke="none" />
<path d="M472.2060206468507,527.7939793531493 L512.2060206468507,487.7939793531493" stroke="grey" stroke-width="5" />
<circle cx="472.2060206468507" cy="527.7939793531493" r="5" fill="black" stroke="none" />
<circle cx="512.2060206468507" cy="487.7939793531493" r="5" fill="black" stroke="none" />
<path d="M472.20602064685073,527.7939793531493 A39.306622553541516,39.306622553541516,0,0,0,508.450016381155,538.38759955669" stroke="grey" stroke-width="5" fill="none" />
<path d="M508.450016381155,538.38759955669 L20.206020646850703,91.7939793531493" stroke="grey" stroke-width="5" />
<circle cx="508.450016381155" cy="538.38759955669" r="2.5" fill="grey" stroke="none" />
<circle cx="472.2060206468507" cy="527.7939793531493" r="5" fill="black" stroke="none" />
<circle cx="520.2060206468507" cy="591.7939793531493" r="5" fill="black" stroke="none" />
<path d="M424.2060206468507,535.7939793531493 A83.8208581685925,83.8208581685925,0,0,0,475.70924443657265,580.2240329220435" stroke="grey" stroke-width="5" fill="none" />
<path d="M475.70924443657265,580.2240329220435 L-27.793979353149297,91.7939793531493" stroke="grey" stroke-width="5" />
<circle cx="475.70924443657265" cy="580.2240329220435" r="2.5" fill="grey" stroke="none" />
<circle cx="424.2060206468507" cy="535.7939793531493" r="5" fill="black" stroke="none" />
<circle cx="472.2060206468507" cy="591.7939793531493" r="5" fill="black" stroke="none" />
<path d="M376.2060206468507,647.7939793531493 L393.3469430298423,627.3299378706557" stroke="grey" stroke-width="5" />
<circle cx="393.3469430298423" cy="627.3299378706557" r="2.5" fill="grey" stroke="none" />
<path d="M393.3469430298423,627.3299378706557 A166.0957183049122,166.0957183049122,0,0,0,424.2060206468507,647.7939793531493" stroke="grey" stroke-width="5" fill="none" />
<circle cx="376.2060206468507" cy="647.7939793531493" r="5" fill="black" stroke="none" />
<circle cx="424.2060206468507" cy="647.7939793531493" r="5" fill="black" stroke="none" />
<path d="M376.2060206468507,695.7939793531493 L394.31706254710633,667.1493475026226" stroke="grey" stroke-width="5" />
<circle cx="394.31706254710633" cy="667.1493475026226" r="2.5" fill="grey" stroke="none" />
<path d="M394.3170625471063,667.1493475026226 A197.7568902446252,197.7568902446252,0,0,0,472.20602064685073,695.7939793531493" stroke="grey" stroke-width="5" fill="none" />
<circle cx="376.2060206468507" cy="695.7939793531493" r="5" fill="black" stroke="none" />
<circle cx="472.2060206468507" cy="695.7939793531493" r="5" fill="black" stroke="none" />
<path d="M376.2060206468507,751.7939793531493 L388.23187740362243,727.3336756797341" stroke="grey" stroke-width="5" />
<circle cx="388.23187740362243" cy="727.3336756797341" r="2.5" fill="grey" stroke="none" />
<path d="M388.23187740362243,727.3336756797341 A253.3233375091554,253.3233375091554,0,0,0,472.20602064685073,751.7939793531493" stroke="grey" stroke-width="5" fill="none" />
<circle cx="376.2060206468507" cy="751.7939793531493" r="5" fill="black" stroke="none" />
<circle cx="472.2060206468507" cy="751.7939793531493" r="5" fill="black" stroke="none" />
<path d="M520.2060206468507,591.7939793531493 A93.99158428214388,93.99158428214388,0,0,1,472.7618322133533,589.9583244146635" stroke="grey" stroke-width="5" fill="none" />
<path d="M472.7618322133533,589.9583244146635 L-27.793979353149297,91.7939793531493" stroke="grey" stroke-width="5" />
<circle cx="472.7618322133533" cy="589.9583244146635" r="2.5" fill="grey" stroke="none" />
<circle cx="520.2060206468507" cy="591.7939793531493" r="5" fill="black" stroke="none" />
<circle cx="472.2060206468507" cy="591.7939793531493" r="5" fill="black" stroke="none" />
<path d="M472.2060206468507,591.7939793531493 A95.9095403688793,95.9095403688793,0,0,1,456.2338764859426,585.3414692064881" stroke="grey" stroke-width="5" fill="none" />
<path d="M456.2338764859426,585.3414692064881 L-75.7939793531493,147.7939793531493" stroke="grey" stroke-width="5" />
<circle cx="456.2338764859426" cy="585.3414692064881" r="2.5" fill="grey" stroke="none" />
<circle cx="472.2060206468507" cy="591.7939793531493" r="5" fill="black" stroke="none" />
<circle cx="424.2060206468507" cy="647.7939793531493" r="5" fill="black" stroke="none" />
<path d="M424.2060206468507,647.7939793531493 A166.0957183049122,166.0957183049122,0,0,0,476.6558780353864,664.4470723634994" stroke="grey" stroke-width="5" fill="none" />
<path d="M476.6558780353864,664.4470723634994 L-27.793979353149297,195.7939793531493" stroke="grey" stroke-width="5" />
<circle cx="476.6558780353864" cy="664.4470723634994" r="2.5" fill="grey" stroke="none" />
<circle cx="424.2060206468507" cy="647.7939793531493" r="5" fill="black" stroke="none" />
<circle cx="472.2060206468507" cy="695.7939793531493" r="5" fill="black" stroke="none" />
<path d="M472.20602064685073,695.7939793531493 A197.7568902446252,197.7568902446252,0,0,0,478.30262707555136,696.5629966382334" stroke="grey" stroke-width="5" fill="none" />
<path d="M478.3026270755513,696.5629966382334 L-27.793979353149297,251.7939793531493" stroke="grey" stroke-width="5" />
<circle cx="478.3026270755513" cy="696.5629966382334" r="2.5" fill="grey" stroke="none" />
<circle cx="472.2060206468507" cy="695.7939793531493" r="5" fill="black" stroke="none" />
<circle cx="472.2060206468507" cy="751.7939793531493" r="5" fill="black" stroke="none" />
<path d="M472.20602064685073,751.7939793531493 A253.3233375091554,253.3233375091554,0,0,0,533.4554847554177,751.1044481218074" stroke="grey" stroke-width="5" fill="none" />
<path d="M533.4554847554177,751.1044481218074 L44.2060206468507,331.7939793531493" stroke="grey" stroke-width="5" />
<circle cx="533.4554847554177" cy="751.1044481218074" r="2.5" fill="grey" stroke="none" />
<circle cx="472.2060206468507" cy="751.7939793531493" r="5" fill="black" stroke="none" />
<circle cx="544.2060206468507" cy="831.7939793531493" r="5" fill="black" stroke="none" />
<path d="M520.2060206468507,591.7939793531493 A93.99158428214388,93.99158428214388,0,0,1,496.922025886863,593.941173035183" stroke="grey" stroke-width="5" fill="none" />
<path d="M496.922025886863,593.941173035183 L-3.7939793531492967,115.7939793531493" stroke="grey" stroke-width="5" />
<circle cx="496.922025886863" cy="593.941173035183" r="2.5" fill="grey" stroke="none" />
<circle cx="520.2060206468507" cy="591.7939793531493" r="5" fill="black" stroke="none" />
<circle cx="496.2060206468507" cy="615.7939793531493" r="5" fill="black" stroke="none" />
<path d="M496.20602064685073,615.7939793531493 A115.85611737741641,115.85611737741641,0,0,1,478.5875691388508,613.8602113926819" stroke="grey" stroke-width="5" fill="none" />
<path d="M478.5875691388508,613.8602113926819 L-27.793979353149297,147.7939793531493" stroke="grey" stroke-width="5" />
<circle cx="478.5875691388508" cy="613.8602113926819" r="2.5" fill="grey" stroke="none" />
<circle cx="496.2060206468507" cy="615.7939793531493" r="5" fill="black" stroke="none" />
<circle cx="472.2060206468507" cy="647.7939793531493" r="5" fill="black" stroke="none" />
<path d="M472.2060206468507,647.7939793531493 A150.38472535906834,150.38472535906834,0,0,0,478.86399838463996,648.8920248268453" stroke="grey" stroke-width="5" fill="none" />
<path d="M478.86399838463996,648.8920248268453 L-27.793979353149297,195.7939793531493" stroke="grey" stroke-width="5" />
<circle cx="478.86399838463996" cy="648.8920248268453" r="2.5" fill="grey" stroke="none" />
<circle cx="472.2060206468507" cy="647.7939793531493" r="5" fill="black" stroke="none" />
<circle cx="472.2060206468507" cy="695.7939793531493" r="5" fill="black" stroke="none" />
<path d="M472.2060206468507,591.7939793531493 A95.9095403688793,95.9095403688793,0,0,0,496.85921793197866,595.8581004494189" stroke="grey" stroke-width="5" fill="none" />
<path d="M496.85921793197866,595.8581004494189 L-3.7939793531492967,115.7939793531493" stroke="grey" stroke-width="5" />
<circle cx="496.85921793197866" cy="595.8581004494189" r="2.5" fill="grey" stroke="none" />
<circle cx="472.2060206468507" cy="591.7939793531493" r="5" fill="black" stroke="none" />
<circle cx="496.2060206468507" cy="615.7939793531493" r="5" fill="black" stroke="none" />
<path d="M424.2060206468507,647.7939793531493 L431.3753726753523,633.8141477792077" stroke="grey" stroke-width="5" />
<circle cx="431.3753726753523" cy="633.8141477792077" r="2.5" fill="grey" stroke="none" />
<path d="M431.3753726753523,633.8141477792077 A150.38472535906834,150.38472535906834,0,0,0,472.2060206468507,647.7939793531493" stroke="grey" stroke-width="5" fill="none" />
<circle cx="424.2060206468507" cy="647.7939793531493" r="5" fill="black" stroke="none" />
<circle cx="472.2060206468507" cy="647.7939793531493" r="5" fill="black" stroke="none" />
<path d="M520.2060206468507,591.7939793531493 A93.99158428214388,93.99158428214388,0,0,1,512.7318537805778,593.1252802152957" stroke="grey" stroke-width="5" fill="none" />
<path d="M512.7318537805777,593.1252802152957 L20.206020646850703,147.7939793531493" stroke="grey" stroke-width="5" />
<circle cx="512.7318537805777" cy="593.1252802152957" r="2.5" fill="grey" stroke="none" />
<circle cx="520.2060206468507" cy="591.7939793531493" r="5" fill="black" stroke="none" />
<circle cx="520.2060206468507" cy="647.7939793531493" r="5" fill="black" stroke="none" />
<path d="M496.20602064685073,615.7939793531493 A115.85611737741641,115.85611737741641,0,0,0,515.6935661559537,614.7882917160039" stroke="grey" stroke-width="5" fill="none" />
<path d="M515.6935661559537,614.7882917160039 L20.206020646850703,147.7939793531493" stroke="grey" stroke-width="5" />
<circle cx="515.6935661559537" cy="614.7882917160039" r="2.5" fill="grey" stroke="none" />
<circle cx="496.2060206468507" cy="615.7939793531493" r="5" fill="black" stroke="none" />
<circle cx="520.2060206468507" cy="647.7939793531493" r="5" fill="black" stroke="none" />
<path d="M472.2060206468507,647.7939793531493 L472.430739082493,646.5990431615517" stroke="grey" stroke-width="5" />
<circle cx="472.430739082493" cy="646.5990431615517" r="2.5" fill="grey" stroke="none" />
<path d="M472.430739082493,646.5990431615517 A149.1688426026698,149.1688426026698,0,0,0,520.2060206468508,647.7939793531493" stroke="grey" stroke-width="5" fill="none" />
<circle cx="472.2060206468507" cy="647.7939793531493" r="5" fill="black" stroke="none" />
<circle cx="520.2060206468507" cy="647.7939793531493" r="5" fill="black" stroke="none" />
<path d="M472.2060206468507,695.7939793531493 L479.034886085116,647.6882107751192" stroke="grey" stroke-width="5" />
<circle cx="479.034886085116" cy="647.6882107751192" r="2.5" fill="grey" stroke="none" />
<path d="M479.034886085116,647.6882107751192 A149.1688426026698,149.1688426026698,0,0,0,520.2060206468508,647.7939793531493" stroke="grey" stroke-width="5" fill="none" />
<circle cx="472.2060206468507" cy="695.7939793531493" r="5" fill="black" stroke="none" />
<circle cx="520.2060206468507" cy="647.7939793531493" r="5" fill="black" stroke="none" />
<path d="M520.2060206468508,647.7939793531493 A149.1688426026698,149.1688426026698,0,0,1,513.6557522282566,648.5424654248761" stroke="grey" stroke-width="5" fill="none" />
<path d="M513.6557522282566,648.5424654248761 L20.206020646850703,219.7939793531493" stroke="grey" stroke-width="5" />
<circle cx="513.6557522282566" cy="648.5424654248761" r="2.5" fill="grey" stroke="none" />
<circle cx="520.2060206468507" cy="647.7939793531493" r="5" fill="black" stroke="none" />
<circle cx="520.2060206468507" cy="719.7939793531493" r="5" fill="black" stroke="none" />
<path d="M520.2060206468507,719.7939793531493 A220.72081150238998,220.72081150238998,0,0,1,475.78308521422326,719.3882806089058" stroke="grey" stroke-width="5" fill="none" />
<path d="M475.7830852142232,719.3882806089058 L-27.793979353149297,251.7939793531493" stroke="grey" stroke-width="5" />
<circle cx="475.7830852142232" cy="719.3882806089058" r="2.5" fill="grey" stroke="none" />
<circle cx="520.2060206468507" cy="719.7939793531493" r="5" fill="black" stroke="none" />
<circle cx="472.2060206468507" cy="751.7939793531493" r="5" fill="black" stroke="none" />
<path d="M520.2060206468507,591.7939793531493 A93.99158428214388,93.99158428214388,0,0,0,593.5409854295813,490.80750519552873" stroke="grey" stroke-width="5" fill="none" />
<path d="M593.5409854295813,490.80750519552873 L124.2060206468507,-12.206020646850703" stroke="grey" stroke-width="5" />
<circle cx="593.5409854295813" cy="490.80750519552873" r="2.5" fill="grey" stroke="none" />
<circle cx="520.2060206468507" cy="591.7939793531493" r="5" fill="black" stroke="none" />
<circle cx="624.2060206468507" cy="487.7939793531493" r="5" fill="black" stroke="none" />
<path d="M520.2060206468507,591.7939793531493 A93.99158428214388,93.99158428214388,0,0,0,574.0657134676363,557.8678494882724" stroke="grey" stroke-width="5" fill="none" />
<path d="M574.0657134676363,557.8678494882724 L148.2060206468507,115.7939793531493" stroke="grey" stroke-width="5" />
<circle cx="574.0657134676363" cy="557.8678494882724" r="2.5" fill="grey" stroke="none" />
<circle cx="520.2060206468507" cy="591.7939793531493" r="5" fill="black" stroke="none" />
<circle cx="648.2060206468507" cy="615.7939793531493" r="5" fill="black" stroke="none" />
<path d="M648.2060206468507,615.7939793531493 A188.0778301938118,188.0778301938118,0,0,0,668.8770839059794,582.7876847231826" stroke="grey" stroke-width="5" fill="none" />
<path d="M668.8770839059794,582.7876847231827 L236.2060206468507,115.7939793531493" stroke="grey" stroke-width="5" />
<circle cx="668.8770839059794" cy="582.7876847231827" r="2.5" fill="grey" stroke="none" />
<circle cx="648.2060206468507" cy="615.7939793531493" r="5" fill="black" stroke="none" />
<circle cx="736.2060206468507" cy="615.7939793531493" r="5" fill="black" stroke="none" />
<path d="M520.2060206468508,647.7939793531493 A149.1688426026698,149.1688426026698,0,0,0,547.3102075987664,641.4676212438087" stroke="grey" stroke-width="5" fill="none" />
<path d="M547.3102075987664,641.4676212438087 L84.2060206468507,251.7939793531493" stroke="grey" stroke-width="5" />
<circle cx="547.3102075987664" cy="641.4676212438087" r="2.5" fill="grey" stroke="none" />
<circle cx="520.2060206468507" cy="647.7939793531493" r="5" fill="black" stroke="none" />
<circle cx="584.2060206468507" cy="751.7939793531493" r="5" fill="black" stroke="none" />
<circle cx="500" cy="500" r="5" fill="red" stroke="none" />
</svg>