<?xml version="1.0" encoding="UTF-8"?>
<svg xmlns="http://www.w3.org/2000/svg" xmlns:xlink="http://www.w3.org/1999/xlink"
     width="1000" height="1000" viewBox="0 0 1000 1000">
<defs>
</defs>
<rect x="0" y="0" width="1000" height="1000" fill="white" />
<path d="M276.6405449818143,684.0 L386.8291290911801,593.2283804396257" stroke="grey" stroke-width="5" />
<circle cx="386.8291290911801" cy="593.2283804396257" r="2.5" fill="grey" stroke="none" />
<path d="M386.8291290911801,593.2283804396257 A146.62597635363372,146.62597635363372,0,0,0,396.6405449818143,604.0" stroke="grey" stroke-width="5" fill="none" />
<circle cx="276.6405449818143" cy="684.0" r="5" fill="black" stroke="none" />
<circle cx="396.6405449818143" cy="604.0" r="5" fill="black" stroke="none" />
<path d="M396.6405449818143,604.0 L419.66650302666346,580.8313442031697" stroke="grey" stroke-width="5" />
<circle cx="419.66650302666346" cy="580.8313442031697" r="2.5" fill="grey" stroke="none" />
<path d="M419.66650302666346,580.8313442031697 A113.96129580544597,113.96129580544597,0,0,1,396.6405449818143,548.0" stroke="grey" stroke-width="5" fill="none" />
<circle cx="396.6405449818143" cy="604.0" r="5" fill="black" stroke="none" />
<circle cx="396.6405449818143" cy="548.0" r="5" fill="black" stroke="none" />
<path d="M396.6405449818143,548.0 A113.96129580544597,113.96129580544597,0,0,1,388.9744830212529,525.7004186981129" stroke="grey" stroke-width="5" fill="none" />
<path d="M388.9744830212529,525.7004186981128 L292.6405449818143,548.0" stroke="grey" stroke-width="5" />
<circle cx="388.9744830212529" cy="525.7004186981128" r="2.5" fill="grey" stroke="none" />
<circle cx="396.6405449818143" cy="548.0" r="5" fill="black" stroke="none" />
<circle cx="292.6405449818143" cy="548.0" r="5" fill="black" stroke="none" />
<path d="M292.6405449818143,548.0 L328.0663440485611,539.7995619970418" stroke="grey" stroke-width="5" />
<circle cx="328.0663440485611" cy="539.7995619970418" r="2.5" fill="grey" stroke="none" />
<path d="M328.0663440485611,539.7995619970418 A176.47999088844074,176.47999088844074,0,0,1,332.6405449818143,444.0" stroke="grey" stroke-width="5" fill="none" />
<circle cx="292.6405449818143" cy="548.0" r="5" fill="black" stroke="none" />
<circle cx="332.6405449818143" cy="444.0" r="5" fill="black" stroke="none" />
<path d="M332.6405449818143,444.0 L353.6983025679332,451.04611773917713" stroke="grey" stroke-width="5" />
<circle cx="353.6983025679332" cy="451.04611773917713" r="2.5" fill="grey" stroke="none" />
<path d="M353.6983025679332,451.04611773917713 A154.27465527399673,154.27465527399673,0,0,1,444.6405449818143,356.0" stroke="grey" stroke-width="5" fill="none" />
<circle cx="332.6405449818143" cy="444.0" r="5" fill="black" stroke="none" />
<circle cx="444.6405449818143" cy="356.0" r="5" fill="black" stroke="none" />
<path d="M444.6405449818143,356.0 L456.8586556700482,387.78152564052016" stroke="grey" stroke-width="5" />
<circle cx="456.8586556700482" cy="387.78152564052016" r="2.5" fill="grey" stroke="none" />
<path d="M456.8586556700482,387.78152564052016 A120.22546143876804,120.22546143876804,0,0,1,492.6405449818143,380.0" stroke="grey" stroke-width="5" fill="none" />
<circle cx="444.6405449818143" cy="356.0" r="5" fill="black" stroke="none" />
<circle cx="492.6405449818143" cy="380.0" r="5" fill="black" stroke="none" />
<path d="M492.6405449818143,380.0 A120.22546143876804,120.22546143876804,0,0,0,446.72722504255194,392.22164861857556" stroke="grey" stroke-width="5" fill="none" />
<path d="M446.72722504255194,392.22164861857556 L444.6405449818143,388.0" stroke="grey" stroke-width="5" />
<circle cx="446.72722504255194" cy="392.22164861857556" r="2.5" fill="grey" stroke="none" />
<circle cx="492.6405449818143" cy="380.0" r="5" fill="black" stroke="none" />
<circle cx="444.6405449818143" cy="388.0" r="5" fill="black" stroke="none" />
<path d="M444.6405449818143,356.0 L455.16882098284384,383.38595861628744" stroke="grey" stroke-width="5" />
<circle cx="455.16882098284384" cy="383.38595861628744" r="2.5" fill="grey" stroke="none" />
<path d="M455.16882098284384,383.38595861628744 A124.93465996236003,124.93465996236003,0,0,0,444.6405449818143,388.0" stroke="grey" stroke-width="5" fill="none" />
<circle cx="444.6405449818143" cy="356.0" r="5" fill="black" stroke="none" />
<circle cx="444.6405449818143" cy="388.0" r="5" fill="black" stroke="none" />
<path d="M444.6405449818143,388.0 L454.20067495675477,407.34149382145466" stroke="grey" stroke-width="5" />
<circle cx="454.20067495675477" cy="407.34149382145466" r="2.5" fill="grey" stroke="none" />
<path d="M454.20067495675477,407.34149382145466 A103.35945501818571,103.35945501818571,0,0,0,396.6405449818143,500.0" stroke="grey" stroke-width="5" fill="none" />
<circle cx="444.6405449818143" cy="388.0" r="5" fill="black" stroke="none" />
<circle cx="396.6405449818143" cy="500.0" r="5" fill="black" stroke="none" />
<path d="M332.6405449818143,444.0 L401.98219086630036,467.2023471223019" stroke="grey" stroke-width="5" />
<circle cx="401.98219086630036" cy="467.2023471223019" r="2.5" fill="grey" stroke="none" />
<path d="M401.98219086630036,467.2023471223019 A103.35945501818571,103.35945501818571,0,0,0,396.6405449818143,500.0" stroke="grey" stroke-width="5" fill="none" />
<circle cx="332.6405449818143" cy="444.0" r="5" fill="black" stroke="none" />
<circle cx="396.6405449818143" cy="500.0" r="5" fill="black" stroke="none" />
<path d="M396.6405449818143,500.0 A103.35945501818571,103.35945501818571,0,0,0,406.25609452620995,543.534550970206" stroke="grey" stroke-width="5" fill="none" />
<path d="M406.25609452620995,543.534550970206 L396.6405449818143,548.0" stroke="grey" stroke-width="5" />
<circle cx="406.25609452620995" cy="543.534550970206" r="2.5" fill="grey" stroke="none" />
<circle cx="396.6405449818143" cy="500.0" r="5" fill="black" stroke="none" />
<circle cx="396.6405449818143" cy="548.0" r="5" fill="black" stroke="none" />
<path d="M492.6405449818143,380.0 A120.22546143876804,120.22546143876804,0,0,1,524.0314380760876,382.2007998237685" stroke="grey" stroke-width="5" fill="none" />
<path d="M524.0314380760876,382.2007998237685 L532.6405449818143,340.0" stroke="grey" stroke-width="5" />
<circle cx="524.0314380760876" cy="382.2007998237685" r="2.5" fill="grey" stroke="none" />
<circle cx="492.6405449818143" cy="380.0" r="5" fill="black" stroke="none" />
<circle cx="532.6405449818143" cy="340.0" r="5" fill="black" stroke="none" />
<path d="M492.6405449818143,380.0 L495.76444255520204,430.93688430464" stroke="grey" stroke-width="5" />
<circle cx="495.76444255520204" cy="430.93688430464" r="2.5" fill="grey" stroke="none" />
<path d="M495.76444255520204,430.93688430464 A69.1928746072807,69.1928746072807,0,0,1,540.6405449818143,444.0" stroke="grey" stroke-width="5" fill="none" />
<circle cx="492.6405449818143" cy="380.0" r="5" fill="black" stroke="none" />
<circle cx="540.6405449818143" cy="444.0" r="5" fill="black" stroke="none" />
<path d="M444.6405449818143,388.0 L474.9726304112379,449.3660948609313" stroke="grey" stroke-width="5" />
<circle cx="474.9726304112379" cy="449.3660948609313" r="2.5" fill="grey" stroke="none" />
<path d="M474.9726304112379,449.3660948609313 A56.481515367106596,56.481515367106596,0,0,1,492.6405449818143,444.0" stroke="grey" stroke-width="5" fill="none" />
<circle cx="444.6405449818143" cy="388.0" r="5" fill="black" stroke="none" />
<circle cx="492.6405449818143" cy="444.0" r="5" fill="black" stroke="none" />
<path d="M396.6405449818143,500.0 L444.6405449818143,500.0" stroke="grey" stroke-width="5" />
<circle cx="444.6405449818143" cy="500.0" r="2.5" fill="grey" stroke="none" />
<path d="M444.6405449818143,500.0 A55.35945501818571,55.35945501818571,0,0,1,444.6405449818143,500.0" stroke="grey" stroke-width="5" fill="none" />
<circle cx="396.6405449818143" cy="500.0" r="5" fill="black" stroke="none" />
<circle cx="444.6405449818143" cy="500.0" r="5" fill="black" stroke="none" />
<path d="M396.6405449818143,548.0 L455.9567243454048,520.4536414307584" stroke="grey" stroke-width="5" />
<circle cx="455.9567243454048" cy="520.4536414307584" r="2.5" fill="grey" stroke="none" />
<path d="M455.9567243454048,520.4536414307584 A48.56090586227463,48.56090586227463,0,0,0,492.6405449818143,548.0" stroke="grey" stroke-width="5" fill="none" />
<circle cx="396.6405449818143" cy="548.0" r="5" fill="black" stroke="none" />
<circle cx="492.6405449818143" cy="548.0" r="5" fill="black" stroke="none" />
<path d="M396.6405449818143,604.0 L426.5050847271582,573.9503820625864" stroke="grey" stroke-width="5" />
<circle cx="426.5050847271582" cy="573.9503820625864" r="2.5" fill="grey" stroke="none" />
<path d="M426.5050847271582,573.9503820625864 A104.26006703510554,104.26006703510554,0,0,0,492.64054498181434,604.0" stroke="grey" stroke-width="5" fill="none" />
<circle cx="396.6405449818143" cy="604.0" r="5" fill="black" stroke="none" />
<circle cx="492.6405449818143" cy="604.0" r="5" fill="black" stroke="none" />
<path d="M540.6405449818143,444.0 L533.174507909177,454.2877084019118" stroke="grey" stroke-width="5" />
<circle cx="533.174507909177" cy="454.2877084019118" r="2.5" fill="grey" stroke="none" />
<path d="M533.174507909177,454.2877084019118 A56.481515367106596,56.481515367106596,0,0,0,492.6405449818143,444.0" stroke="grey" stroke-width="5" fill="none" />
<circle cx="540.6405449818143" cy="444.0" r="5" fill="black" stroke="none" />
<circle cx="492.6405449818143" cy="444.0" r="5" fill="black" stroke="none" />
<path d="M492.6405449818143,444.0 L492.7867477281801,445.11249457687467" stroke="grey" stroke-width="5" />
<circle cx="492.7867477281801" cy="445.11249457687467" r="2.5" fill="grey" stroke="none" />
<path d="M492.7867477281801,445.11249457687467 A55.35945501818571,55.35945501818571,0,0,0,444.6405449818143,500.0" stroke="grey" stroke-width="5" fill="none" />
<circle cx="492.6405449818143" cy="444.0" r="5" fill="black" stroke="none" />
<circle cx="444.6405449818143" cy="500.0" r="5" fill="black" stroke="none" />
<path d="M444.6405449818143,500.0 L451.43909413772536,500.0" stroke="grey" stroke-width="5" />
<circle cx="451.43909413772536" cy="500.0" r="2.5" fill="grey" stroke="none" />
<path d="M451.43909413772536,500.0 A48.56090586227463,48.56090586227463,0,0,0,492.6405449818143,548.0" stroke="grey" stroke-width="5" fill="none" />
<circle cx="444.6405449818143" cy="500.0" r="5" fill="black" stroke="none" />
<circle cx="492.6405449818143" cy="548.0" r="5" fill="black" stroke="none" />
<path d="M492.6405449818143,548.0 A48.56090586227463,48.56090586227463,0,0,0,496.572208204936,548.4397752015261" stroke="grey" stroke-width="5" fill="none" />
<path d="M496.572208204936,548.4397752015261 L492.6405449818143,604.0" stroke="grey" stroke-width="5" />
<circle cx="496.572208204936" cy="548.4397752015261" r="2.5" fill="grey" stroke="none" />
<circle cx="492.6405449818143" cy="548.0" r="5" fill="black" stroke="none" />
<circle cx="492.6405449818143" cy="604.0" r="5" fill="black" stroke="none" />
<path d="M492.64054498181434,604.0 A104.26006703510554,104.26006703510554,0,0,0,534.5568958448201,598.3665722068984" stroke="grey" stroke-width="5" fill="none" />
<path d="M534.5568958448201,598.3665722068984 L564.6405449818143,684.0" stroke="grey" stroke-width="5" />
<circle cx="534.5568958448201" cy="598.3665722068984" r="2.5" fill="grey" stroke="none" />
<circle cx="492.6405449818143" cy="604.0" r="5" fill="black" stroke="none" />
<circle cx="564.6405449818143" cy="684.0" r="5" fill="black" stroke="none" />
<path d="M540.6405449818143,444.0 L521.1846551001139,470.80893757361673" stroke="grey" stroke-width="5" />
<circle cx="521.1846551001139" cy="470.80893757361673" r="2.5" fill="grey" stroke="none" />
<path d="M521.1846551001139,470.80893757361673 A36.06809860932212,36.06809860932212,0,0,0,516.6405449818143,468.0" stroke="grey" stroke-width="5" fill="none" />
<circle cx="540.6405449818143" cy="444.0" r="5" fill="black" stroke="none" />
<circle cx="516.6405449818143" cy="468.0" r="5" fill="black" stroke="none" />
<path d="M516.6405449818143,468.0 L503.3953922439401,493.4706133768561" stroke="grey" stroke-width="5" />
<circle cx="503.3953922439401" cy="493.4706133768561" r="2.5" fill="grey" stroke="none" />
<path d="M503.3953922439401,493.4706133768561 A7.359455018185713,7.359455018185713,0,0,0,492.6405449818143,500.0" stroke="grey" stroke-width="5" fill="none" />
<circle cx="516.6405449818143" cy="468.0" r="5" fill="black" stroke="none" />
<circle cx="492.6405449818143" cy="500.0" r="5" fill="black" stroke="none" />
<path d="M492.6405449818143,500.0 A7.359455018185713,7.359455018185713,0,0,0,498.88466705464043,507.2744491602935" stroke="grey" stroke-width="5" fill="none" />
<path d="M498.88466705464043,507.2744491602935 L492.6405449818143,548.0" stroke="grey" stroke-width="5" />
<circle cx="498.88466705464043" cy="507.2744491602935" r="2.5" fill="grey" stroke="none" />
<circle cx="492.6405449818143" cy="500.0" r="5" fill="black" stroke="none" />
<circle cx="492.6405449818143" cy="548.0" r="5" fill="black" stroke="none" />
<path d="M492.6405449818143,444.0 L495.30038194652656,464.2393886036151" stroke="grey" stroke-width="5" />
<circle cx="495.30038194652656" cy="464.2393886036151" r="2.5" fill="grey" stroke="none" />
<path d="M495.30038194652656,464.2393886036151 A36.06809860932212,36.06809860932212,0,0,1,516.6405449818143,468.0" stroke="grey" stroke-width="5" fill="none" />
<circle cx="492.6405449818143" cy="444.0" r="5" fill="black" stroke="none" />
<circle cx="516.6405449818143" cy="468.0" r="5" fill="black" stroke="none" />
<path d="M444.6405449818143,500.0 L492.6405449818143,500.0" stroke="grey" stroke-width="5" />
<circle cx="492.6405449818143" cy="500.0" r="2.5" fill="grey" stroke="none" />
<path d="M492.6405449818143,500.0 A7.359455018185713,7.359455018185713,0,0,1,492.6405449818143,500.0" stroke="grey" stroke-width="5" fill="none" />
<circle cx="444.6405449818143" cy="500.0" r="5" fill="black" stroke="none" />
<circle cx="492.6405449818143" cy="500.0" r="5" fill="black" stroke="none" />
<path d="M540.6405449818143,444.0 L523.870288751453,467.1083109077517" stroke="grey" stroke-width="5" />
<circle cx="523.870288751453" cy="467.1083109077517" r="2.5" fill="grey" stroke="none" />
<path d="M523.870288751453,467.1083109077517 A40.64054498181429,40.64054498181429,0,0,1,540.6405449818143,500.0" stroke="grey" stroke-width="5" fill="none" />
<circle cx="540.6405449818143" cy="444.0" r="5" fill="black" stroke="none" />
<circle cx="540.6405449818143" cy="500.0" r="5" fill="black" stroke="none" />
<path d="M516.6405449818143,468.0 A36.06809860932212,36.06809860932212,0,0,1,536.0680986093221,500.0" stroke="grey" stroke-width="5" fill="none" />
<path d="M536.0680986093221,500.0 L540.6405449818143,500.0" stroke="grey" stroke-width="5" />
<circle cx="536.0680986093221" cy="500.0" r="2.5" fill="grey" stroke="none" />
<circle cx="516.6405449818143" cy="468.0" r="5" fill="black" stroke="none" />
<circle cx="540.6405449818143" cy="500.0" r="5" fill="black" stroke="none" />
<path d="M492.6405449818143,500.0 L540.6405449818143,500.0" stroke="grey" stroke-width="5" />
<circle cx="492.6405449818143" cy="500.0" r="5" fill="black" stroke="none" />
<circle cx="540.6405449818143" cy="500.0" r="5" fill="black" stroke="none" />
<path d="M492.6405449818143,548.0 L493.84088378506607,540.1711237566216" stroke="grey" stroke-width="5" />
<circle cx="493.84088378506607" cy="540.1711237566216" r="2.5" fill="grey" stroke="none" />
<path d="M493.84088378506607,540.1711237566216 A40.64054498181429,40.64054498181429,0,0,0,540.6405449818143,500.0" stroke="grey" stroke-width="5" fill="none" />
<circle cx="492.6405449818143" cy="548.0" r="5" fill="black" stroke="none" />
<circle cx="540.6405449818143" cy="500.0" r="5" fill="black" stroke="none" />
<path d="M540.6405449818143,500.0 A40.64054498181429,40.64054498181429,0,0,1,519.9769422232367,535.3917458714363" stroke="grey" stroke-width="5" fill="none" />
<path d="M519.9769422232367,535.3917458714363 L540.6405449818143,572.0" stroke="grey" stroke-width="5" />
<circle cx="519.9769422232367" cy="535.3917458714363" r="2.5" fill="grey" stroke="none" />
<circle cx="540.6405449818143" cy="500.0" r="5" fill="black" stroke="none" />
<circle cx="540.6405449818143" cy="572.0" r="5" fill="black" stroke="none" />
<path d="M540.6405449818143,572.0 A82.67801337973034,82.67801337973034,0,0,1,494.1639676842314,582.4717807691102" stroke="grey" stroke-width="5" fill="none" />
<path d="M494.16396768423135,582.4717807691102 L492.6405449818143,604.0" stroke="grey" stroke-width="5" />
<circle cx="494.16396768423135" cy="582.4717807691102" r="2.5" fill="grey" stroke="none" />
<circle cx="540.6405449818143" cy="572.0" r="5" fill="black" stroke="none" />
<circle cx="492.6405449818143" cy="604.0" r="5" fill="black" stroke="none" />
<path d="M540.6405449818143,444.0 A69.1928746072807,69.1928746072807,0,0,1,546.4010094429328,448.67164312881494" stroke="grey" stroke-width="5" fill="none" />
<path d="M546.4010094429328,448.671643128815 L644.6405449818143,340.0" stroke="grey" stroke-width="5" />
<circle cx="546.4010094429328" cy="448.671643128815" r="2.5" fill="grey" stroke="none" />
<circle cx="540.6405449818143" cy="444.0" r="5" fill="black" stroke="none" />
<circle cx="644.6405449818143" cy="340.0" r="5" fill="black" stroke="none" />
<path d="M540.6405449818143,444.0 A69.1928746072807,69.1928746072807,0,0,1,567.9798527456387,487.1006388879079" stroke="grey" stroke-width="5" fill="none" />
<path d="M567.9798527456387,487.1006388879079 L668.6405449818143,468.0" stroke="grey" stroke-width="5" />
<circle cx="567.9798527456387" cy="487.1006388879079" r="2.5" fill="grey" stroke="none" />
<circle cx="540.6405449818143" cy="444.0" r="5" fill="black" stroke="none" />
<circle cx="668.6405449818143" cy="468.0" r="5" fill="black" stroke="none" />
<path d="M668.6405449818143,468.0 A171.64974049430813,171.64974049430813,0,0,1,670.3307723965631,478.7617941776259" stroke="grey" stroke-width="5" fill="none" />
<path d="M670.3307723965631,478.7617941776259 L756.6405449818143,468.0" stroke="grey" stroke-width="5" />
<circle cx="670.3307723965631" cy="478.7617941776259" r="2.5" fill="grey" stroke="none" />
<circle cx="668.6405449818143" cy="468.0" r="5" fill="black" stroke="none" />
<circle cx="756.6405449818143" cy="468.0" r="5" fill="black" stroke="none" />
<path d="M540.6405449818143,500.0 A40.64054498181429,40.64054498181429,0,0,1,528.8252948709636,528.6488441655308" stroke="grey" stroke-width="5" fill="none" />
<path d="M528.8252948709636,528.6488441655308 L604.6405449818143,604.0" stroke="grey" stroke-width="5" />
<circle cx="528.8252948709636" cy="528.6488441655308" r="2.5" fill="grey" stroke="none" />
<circle cx="540.6405449818143" cy="500.0" r="5" fill="black" stroke="none" />
<circle cx="604.6405449818143" cy="604.0" r="5" fill="black" stroke="none" />
<circle cx="500" cy="500" r="5" fill="red" stroke="none" />
</svg>