<?xml version="1.0" encoding="UTF-8"?>
<svg xmlns="http://www.w3.org/2000/svg" xmlns:xlink="http://www.w3.org/1999/xlink"
     width="1000" height="1000" viewBox="0 0 1000 1000">
<defs>
</defs>
<rect x="0" y="0" width="1000" height="1000" fill="white" />
<path d="M177.16967303045845,588.400718674495 L304.20379725627424,553.6149289280232" stroke="grey" stroke-width="5" />
<circle cx="304.20379725627424" cy="553.6149289280232" r="2.5" fill="grey" stroke="none" />
<path d="M304.20379725627424,553.6149289280232 A203.00422067735227,203.00422067735227,0,0,1,297.1696730304585,508.400718674495" stroke="grey" stroke-width="5" fill="none" />
<circle cx="177.16967303045845" cy="588.400718674495" r="5" fill="black" stroke="none" />
<circle cx="297.16967303045845" cy="508.400718674495" r="5" fill="black" stroke="none" />
<path d="M297.1696730304585,508.400718674495 A203.00422067735227,203.00422067735227,0,0,1,302.3649763579265,453.6199283871166" stroke="grey" stroke-width="5" fill="none" />
<path d="M302.3649763579265,453.61992838711666 L-202.83032696954155,-47.59928132550499" stroke="grey" stroke-width="5" />
<circle cx="302.3649763579265" cy="453.61992838711666" r="2.5" fill="grey" stroke="none" />
<circle cx="297.16967303045845" cy="508.400718674495" r="5" fill="black" stroke="none" />
<circle cx="297.16967303045845" cy="452.400718674495" r="5" fill="black" stroke="none" />
<path d="M297.16967303045845,452.40071867449495 A208.34066602868413,208.34066602868413,0,0,0,294.12193828974216,468.0616714948485" stroke="grey" stroke-width="5" fill="none" />
<path d="M294.12193828974216,468.0616714948486 L-306.83032696954155,-47.59928132550499" stroke="grey" stroke-width="5" />
<circle cx="294.12193828974216" cy="468.0616714948486" r="2.5" fill="grey" stroke="none" />
<circle cx="297.16967303045845" cy="452.400718674495" r="5" fill="black" stroke="none" />
<circle cx="193.16967303045845" cy="452.400718674495" r="5" fill="black" stroke="none" />
<path d="M193.16967303045845,452.400718674495 L196.7386034318024,452.95437490490275" stroke="grey" stroke-width="5" />
<circle cx="196.7386034318024" cy="452.95437490490275" r="2.5" fill="grey" stroke="none" />
<path d="M196.7386034318024,452.9543749049026 A306.8888487532287,306.8888487532287,0,0,1,233.1696730304584,348.40071867449507" stroke="grey" stroke-width="5" fill="none" />
<circle cx="193.16967303045845" cy="452.400718674495" r="5" fill="black" stroke="none" />
<circle cx="233.16967303045845" cy="348.400718674495" r="5" fill="black" stroke="none" />
<path d="M233.16967303045845,348.400718674495 L251.96465113137592,359.0790594950006" stroke="grey" stroke-width="5" />
<circle cx="251.96465113137592" cy="359.0790594950006" r="2.5" fill="grey" stroke="none" />
<path d="M251.96465113137592,359.0790594950006 A285.27223096753323,285.27223096753323,0,0,1,345.16967303045845,260.400718674495" stroke="grey" stroke-width="5" fill="none" />
<circle cx="233.16967303045845" cy="348.400718674495" r="5" fill="black" stroke="none" />
<circle cx="345.16967303045845" cy="260.400718674495" r="5" fill="black" stroke="none" />
<path d="M345.16967303045845,260.400718674495 L369.4069859699723,297.90785874990985" stroke="grey" stroke-width="5" />
<circle cx="369.4069859699723" cy="297.90785874990985" r="2.5" fill="grey" stroke="none" />
<path d="M369.4069859699723,297.90785874990985 A240.61539615846158,240.61539615846158,0,0,1,393.1696730304585,284.400718674495" stroke="grey" stroke-width="5" fill="none" />
<circle cx="345.16967303045845" cy="260.400718674495" r="5" fill="black" stroke="none" />
<circle cx="393.16967303045845" cy="284.400718674495" r="5" fill="black" stroke="none" />
<path d="M393.1696730304585,284.400718674495 A240.61539615846158,240.61539615846158,0,0,0,356.1480871847925,307.1207734153329" stroke="grey" stroke-width="5" fill="none" />
<path d="M356.1480871847925,307.1207734153329 L-154.83032696954155,-207.599281325505" stroke="grey" stroke-width="5" />
<circle cx="356.1480871847925" cy="307.1207734153329" r="2.5" fill="grey" stroke="none" />
<circle cx="393.16967303045845" cy="284.400718674495" r="5" fill="black" stroke="none" />
<circle cx="345.16967303045845" cy="292.400718674495" r="5" fill="black" stroke="none" />
<path d="M345.16967303045845,260.400718674495 L359.4404574363814,282.48469766320443" stroke="grey" stroke-width="5" />
<circle cx="359.4404574363814" cy="282.48469766320443" r="2.5" fill="grey" stroke="none" />
<path d="M359.4404574363814,282.48469766320443 A258.97855462636534,258.97855462636534,0,0,0,345.1696730304585,292.400718674495" stroke="grey" stroke-width="5" fill="none" />
<circle cx="345.16967303045845" cy="260.400718674495" r="5" fill="black" stroke="none" />
<circle cx="345.16967303045845" cy="292.400718674495" r="5" fill="black" stroke="none" />
<path d="M345.16967303045845,292.400718674495 L365.94373457796576,320.25495325427937" stroke="grey" stroke-width="5" />
<circle cx="365.94373457796576" cy="320.25495325427937" r="2.5" fill="grey" stroke="none" />
<path d="M365.94373457796576,320.25495325427937 A224.23060479899743,224.23060479899743,0,0,0,297.1696730304585,404.400718674495" stroke="grey" stroke-width="5" fill="none" />
<circle cx="345.16967303045845" cy="292.400718674495" r="5" fill="black" stroke="none" />
<circle cx="297.16967303045845" cy="404.400718674495" r="5" fill="black" stroke="none" />
<path d="M233.16967303045845,348.400718674495 L305.03845011584156,389.2328650036891" stroke="grey" stroke-width="5" />
<circle cx="305.03845011584156" cy="389.2328650036891" r="2.5" fill="grey" stroke="none" />
<path d="M305.03845011584156,389.2328650036891 A224.23060479899743,224.23060479899743,0,0,0,297.1696730304585,404.400718674495" stroke="grey" stroke-width="5" fill="none" />
<circle cx="233.16967303045845" cy="348.400718674495" r="5" fill="black" stroke="none" />
<circle cx="297.16967303045845" cy="404.400718674495" r="5" fill="black" stroke="none" />
<path d="M297.16967303045845,404.400718674495 L311.5430966725957,411.1752922350932" stroke="grey" stroke-width="5" />
<circle cx="311.5430966725957" cy="411.1752922350932" r="2.5" fill="grey" stroke="none" />
<path d="M311.5430966725957,411.1752922350932 A208.34066602868413,208.34066602868413,0,0,0,297.16967303045845,452.40071867449495" stroke="grey" stroke-width="5" fill="none" />
<circle cx="297.16967303045845" cy="404.400718674495" r="5" fill="black" stroke="none" />
<circle cx="297.16967303045845" cy="452.400718674495" r="5" fill="black" stroke="none" />
<path d="M393.1696730304585,284.400718674495 A240.61539615846158,240.61539615846158,0,0,1,439.13358351769176,267.21029186603715" stroke="grey" stroke-width="5" fill="none" />
<path d="M439.1335835176917,267.2102918660372 L-66.83032696954155,-255.599281325505" stroke="grey" stroke-width="5" />
<circle cx="439.1335835176917" cy="267.2102918660372" r="2.5" fill="grey" stroke="none" />
<circle cx="393.16967303045845" cy="284.400718674495" r="5" fill="black" stroke="none" />
<circle cx="433.16967303045845" cy="244.400718674495" r="5" fill="black" stroke="none" />
<path d="M393.16967303045845,284.400718674495 L427.8013001328687,354.2924257039166" stroke="grey" stroke-width="5" />
<circle cx="427.8013001328687" cy="354.2924257039166" r="2.5" fill="grey" stroke="none" />
<path d="M427.8013001328687,354.2924257039166 A162.6141121482166,162.6141121482166,0,0,1,441.1696730304584,348.400718674495" stroke="grey" stroke-width="5" fill="none" />
<circle cx="393.16967303045845" cy="284.400718674495" r="5" fill="black" stroke="none" />
<circle cx="441.16967303045845" cy="348.400718674495" r="5" fill="black" stroke="none" />
<path d="M345.16967303045845,292.400718674495 L389.1233056976705,351.33453824301847" stroke="grey" stroke-width="5" />
<circle cx="389.1233056976705" cy="351.33453824301847" r="2.5" fill="grey" stroke="none" />
<path d="M389.1233056976705,351.33453824301847 A185.45905439969428,185.45905439969428,0,0,1,393.1696730304584,348.400718674495" stroke="grey" stroke-width="5" fill="none" />
<circle cx="345.16967303045845" cy="292.400718674495" r="5" fill="black" stroke="none" />
<circle cx="393.16967303045845" cy="348.400718674495" r="5" fill="black" stroke="none" />
<path d="M297.16967303045845,404.400718674495 L335.40053025539277,422.41992975485056" stroke="grey" stroke-width="5" />
<circle cx="335.40053025539277" cy="422.41992975485056" r="2.5" fill="grey" stroke="none" />
<path d="M335.40053025539277,422.41992975485056 A181.96607579284714,181.96607579284714,0,0,1,345.1696730304584,404.400718674495" stroke="grey" stroke-width="5" fill="none" />
<circle cx="297.16967303045845" cy="404.400718674495" r="5" fill="black" stroke="none" />
<circle cx="345.16967303045845" cy="404.400718674495" r="5" fill="black" stroke="none" />
<path d="M297.16967303045845,452.400718674495 L386.1385640324075,473.2795257803767" stroke="grey" stroke-width="5" />
<circle cx="386.1385640324075" cy="473.2795257803767" r="2.5" fill="grey" stroke="none" />
<path d="M386.1385640324075,473.2795257803766 A116.95473630051809,116.95473630051809,0,0,1,393.16967303045845,452.40071867449495" stroke="grey" stroke-width="5" fill="none" />
<circle cx="297.16967303045845" cy="452.400718674495" r="5" fill="black" stroke="none" />
<circle cx="393.16967303045845" cy="452.400718674495" r="5" fill="black" stroke="none" />
<path d="M297.16967303045845,508.400718674495 L392.93167576832025,504.4344989443074" stroke="grey" stroke-width="5" />
<circle cx="392.93167576832025" cy="504.4344989443074" r="2.5" fill="grey" stroke="none" />
<path d="M392.93167576832025,504.4344989443074 A107.16011774287655,107.16011774287655,0,0,0,393.16967303045845,508.40071867449507" stroke="grey" stroke-width="5" fill="none" />
<circle cx="297.16967303045845" cy="508.400718674495" r="5" fill="black" stroke="none" />
<circle cx="393.16967303045845" cy="508.400718674495" r="5" fill="black" stroke="none" />
<path d="M441.1696730304584,348.400718674495 A162.6141121482166,162.6141121482166,0,0,0,406.3290879656058,367.0747965643928" stroke="grey" stroke-width="5" fill="none" />
<path d="M406.3290879656058,367.0747965643928 L-106.83032696954155,-151.599281325505" stroke="grey" stroke-width="5" />
<circle cx="406.3290879656058" cy="367.0747965643928" r="2.5" fill="grey" stroke="none" />
<circle cx="441.16967303045845" cy="348.400718674495" r="5" fill="black" stroke="none" />
<circle cx="393.16967303045845" cy="348.400718674495" r="5" fill="black" stroke="none" />
<path d="M393.16967303045845,348.400718674495 L395.1817400491055,351.25597450547843" stroke="grey" stroke-width="5" />
<circle cx="395.1817400491055" cy="351.25597450547843" r="2.5" fill="grey" stroke="none" />
<path d="M395.1817400491055,351.25597450547843 A181.96607579284714,181.96607579284714,0,0,0,345.1696730304584,404.400718674495" stroke="grey" stroke-width="5" fill="none" />
<circle cx="393.16967303045845" cy="348.400718674495" r="5" fill="black" stroke="none" />
<circle cx="345.16967303045845" cy="404.400718674495" r="5" fill="black" stroke="none" />
<path d="M345.16967303045845,404.400718674495 L400.4861758811554,438.5556418182483" stroke="grey" stroke-width="5" />
<circle cx="400.4861758811554" cy="438.5556418182483" r="2.5" fill="grey" stroke="none" />
<path d="M400.4861758811554,438.5556418182483 A116.95473630051809,116.95473630051809,0,0,0,393.16967303045845,452.40071867449495" stroke="grey" stroke-width="5" fill="none" />
<circle cx="345.16967303045845" cy="404.400718674495" r="5" fill="black" stroke="none" />
<circle cx="393.16967303045845" cy="452.400718674495" r="5" fill="black" stroke="none" />
<path d="M393.16967303045845,452.400718674495 L402.1164017919695,456.387019862018" stroke="grey" stroke-width="5" />
<circle cx="402.1164017919695" cy="456.387019862018" r="2.5" fill="grey" stroke="none" />
<path d="M402.1164017919695,456.38701986201795 A107.16011774287655,107.16011774287655,0,0,0,393.16967303045845,508.40071867449507" stroke="grey" stroke-width="5" fill="none" />
<circle cx="393.16967303045845" cy="452.400718674495" r="5" fill="black" stroke="none" />
<circle cx="393.16967303045845" cy="508.400718674495" r="5" fill="black" stroke="none" />
<path d="M393.16967303045845,508.400718674495 L405.27747380612306,507.4486086232715" stroke="grey" stroke-width="5" />
<circle cx="405.27747380612306" cy="507.4486086232715" r="2.5" fill="grey" stroke="none" />
<path d="M405.27747380612306,507.4486086232716 A95.0149395567475,95.0149395567475,0,0,0,465.16967303045845,588.400718674495" stroke="grey" stroke-width="5" fill="none" />
<circle cx="393.16967303045845" cy="508.400718674495" r="5" fill="black" stroke="none" />
<circle cx="465.16967303045845" cy="588.400718674495" r="5" fill="black" stroke="none" />
<path d="M441.16967303045845,348.400718674495 L444.96390649043144,358.1780409390966" stroke="grey" stroke-width="5" />
<circle cx="444.96390649043144" cy="358.1780409390966" r="2.5" fill="grey" stroke="none" />
<path d="M444.96390649043144,358.1780409390966 A152.1263937016405,152.1263937016405,0,0,0,417.16967303045845,372.400718674495" stroke="grey" stroke-width="5" fill="none" />
<circle cx="441.16967303045845" cy="348.400718674495" r="5" fill="black" stroke="none" />
<circle cx="417.16967303045845" cy="372.400718674495" r="5" fill="black" stroke="none" />
<path d="M417.16967303045845,372.400718674495 L421.943112187088,379.75415343832174" stroke="grey" stroke-width="5" />
<circle cx="421.943112187088" cy="379.75415343832174" r="2.5" fill="grey" stroke="none" />
<path d="M421.943112187088,379.75415343832174 A143.3594829453992,143.3594829453992,0,0,0,393.1696730304584,404.400718674495" stroke="grey" stroke-width="5" fill="none" />
<circle cx="417.16967303045845" cy="372.400718674495" r="5" fill="black" stroke="none" />
<circle cx="393.16967303045845" cy="404.400718674495" r="5" fill="black" stroke="none" />
<path d="M393.16967303045845,404.400718674495 L412.8462766262939,422.0087258392117" stroke="grey" stroke-width="5" />
<circle cx="412.8462766262939" cy="422.0087258392117" r="2.5" fill="grey" stroke="none" />
<path d="M412.8462766262939,422.00872583921176 A116.95473630051809,116.95473630051809,0,0,0,393.16967303045845,452.40071867449495" stroke="grey" stroke-width="5" fill="none" />
<circle cx="393.16967303045845" cy="404.400718674495" r="5" fill="black" stroke="none" />
<circle cx="393.16967303045845" cy="452.400718674495" r="5" fill="black" stroke="none" />
<path d="M393.16967303045845,348.400718674495 L412.3703480940952,375.6477432150245" stroke="grey" stroke-width="5" />
<circle cx="412.3703480940952" cy="375.6477432150245" r="2.5" fill="grey" stroke="none" />
<path d="M412.3703480940952,375.6477432150245 A152.1263937016405,152.1263937016405,0,0,1,417.16967303045845,372.400718674495" stroke="grey" stroke-width="5" fill="none" />
<circle cx="393.16967303045845" cy="348.400718674495" r="5" fill="black" stroke="none" />
<circle cx="417.16967303045845" cy="372.400718674495" r="5" fill="black" stroke="none" />
<path d="M345.16967303045845,404.400718674495 L378.0190454626868,424.68341430642164" stroke="grey" stroke-width="5" />
<circle cx="378.0190454626868" cy="424.68341430642164" r="2.5" fill="grey" stroke="none" />
<path d="M378.0190454626868,424.68341430642164 A143.3594829453992,143.3594829453992,0,0,1,393.1696730304584,404.400718674495" stroke="grey" stroke-width="5" fill="none" />
<circle cx="345.16967303045845" cy="404.400718674495" r="5" fill="black" stroke="none" />
<circle cx="393.16967303045845" cy="404.400718674495" r="5" fill="black" stroke="none" />
<path d="M441.16967303045845,348.400718674495 L459.3900676991988,395.3526715113063" stroke="grey" stroke-width="5" />
<circle cx="459.3900676991988" cy="395.3526715113063" r="2.5" fill="grey" stroke="none" />
<path d="M459.39006769919877,395.3526715113063 A112.25074592757153,112.25074592757153,0,0,0,441.16967303045845,404.400718674495" stroke="grey" stroke-width="5" fill="none" />
<circle cx="441.16967303045845" cy="348.400718674495" r="5" fill="black" stroke="none" />
<circle cx="441.16967303045845" cy="404.400718674495" r="5" fill="black" stroke="none" />
<path d="M417.16967303045845,372.400718674495 L438.881309406499,405.8472750185524" stroke="grey" stroke-width="5" />
<circle cx="438.881309406499" cy="405.8472750185524" r="2.5" fill="grey" stroke="none" />
<path d="M438.881309406499,405.8472750185524 A112.25074592757153,112.25074592757153,0,0,1,441.16967303045845,404.400718674495" stroke="grey" stroke-width="5" fill="none" />
<circle cx="417.16967303045845" cy="372.400718674495" r="5" fill="black" stroke="none" />
<circle cx="441.16967303045845" cy="404.400718674495" r="5" fill="black" stroke="none" />
<path d="M393.16967303045845,404.400718674495 L416.3516521987969,425.14558215158456" stroke="grey" stroke-width="5" />
<circle cx="416.3516521987969" cy="425.14558215158456" r="2.5" fill="grey" stroke="none" />
<path d="M416.35165219879684,425.1455821515846 A112.25074592757153,112.25074592757153,0,0,1,441.16967303045845,404.400718674495" stroke="grey" stroke-width="5" fill="none" />
<circle cx="393.16967303045845" cy="404.400718674495" r="5" fill="black" stroke="none" />
<circle cx="441.16967303045845" cy="404.400718674495" r="5" fill="black" stroke="none" />
<path d="M393.16967303045845,452.400718674495 L397.4664535243428,454.31519061634964" stroke="grey" stroke-width="5" />
<circle cx="397.4664535243428" cy="454.31519061634964" r="2.5" fill="grey" stroke="none" />
<path d="M397.46645352434285,454.31519061634964 A112.25074592757153,112.25074592757153,0,0,1,441.16967303045845,404.400718674495" stroke="grey" stroke-width="5" fill="none" />
<circle cx="393.16967303045845" cy="452.400718674495" r="5" fill="black" stroke="none" />
<circle cx="441.16967303045845" cy="404.400718674495" r="5" fill="black" stroke="none" />
<path d="M441.16967303045845,404.400718674495 L466.77894684618633,446.0157886250528" stroke="grey" stroke-width="5" />
<circle cx="466.77894684618633" cy="446.0157886250528" r="2.5" fill="grey" stroke="none" />
<path d="M466.77894684618633,446.0157886250528 A63.38717102398163,63.38717102398163,0,0,0,441.16967303045845,476.400718674495" stroke="grey" stroke-width="5" fill="none" />
<circle cx="441.16967303045845" cy="404.400718674495" r="5" fill="black" stroke="none" />
<circle cx="441.16967303045845" cy="476.400718674495" r="5" fill="black" stroke="none" />
<path d="M441.16967303045845,476.400718674495 A63.38717102398163,63.38717102398163,0,0,0,436.807906254691,504.9691788564685" stroke="grey" stroke-width="5" fill="none" />
<path d="M436.807906254691,504.96917885646843 L-106.83032696954155,8.40071867449501" stroke="grey" stroke-width="5" />
<circle cx="436.807906254691" cy="504.96917885646843" r="2.5" fill="grey" stroke="none" />
<circle cx="441.16967303045845" cy="476.400718674495" r="5" fill="black" stroke="none" />
<circle cx="393.16967303045845" cy="508.400718674495" r="5" fill="black" stroke="none" />
<path d="M441.1696730304584,348.400718674495 A162.6141121482166,162.6141121482166,0,0,1,528.298781845101,339.86715385082255" stroke="grey" stroke-width="5" fill="none" />
<path d="M528.298781845101,339.86715385082255 L45.169673030458455,-255.599281325505" stroke="grey" stroke-width="5" />
<circle cx="528.298781845101" cy="339.86715385082255" r="2.5" fill="grey" stroke="none" />
<circle cx="441.16967303045845" cy="348.400718674495" r="5" fill="black" stroke="none" />
<circle cx="545.1696730304584" cy="244.400718674495" r="5" fill="black" stroke="none" />
<path d="M441.16967303045845,348.400718674495 L447.4909357845381,364.6899174594058" stroke="grey" stroke-width="5" />
<circle cx="447.4909357845381" cy="364.6899174594058" r="2.5" fill="grey" stroke="none" />
<path d="M447.4909357845381,364.6899174594058 A145.14138025361996,145.14138025361996,0,0,1,569.1696730304585,372.400718674495" stroke="grey" stroke-width="5" fill="none" />
<circle cx="441.16967303045845" cy="348.400718674495" r="5" fill="black" stroke="none" />
<circle cx="569.1696730304584" cy="372.400718674495" r="5" fill="black" stroke="none" />
<path d="M569.1696730304585,372.400718674495 A145.14138025361996,145.14138025361996,0,0,1,612.681715046331,408.51857370950444" stroke="grey" stroke-width="5" fill="none" />
<path d="M612.681715046331,408.51857370950444 L157.16967303045845,-127.59928132550499" stroke="grey" stroke-width="5" />
<circle cx="612.681715046331" cy="408.51857370950444" r="2.5" fill="grey" stroke="none" />
<circle cx="569.1696730304584" cy="372.400718674495" r="5" fill="black" stroke="none" />
<circle cx="657.1696730304584" cy="372.400718674495" r="5" fill="black" stroke="none" />
<path d="M441.16967303045845,404.400718674495 L505.16967303045845,508.400718674495" stroke="grey" stroke-width="5" />
<circle cx="441.16967303045845" cy="404.400718674495" r="5" fill="black" stroke="none" />
<circle cx="505.16967303045845" cy="508.400718674495" r="5" fill="black" stroke="none" />
<circle cx="500" cy="500" r="5" fill="red" stroke="none" />
</svg>