<?xml version="1.0" encoding="UTF-8"?>
<svg xmlns="http://www.w3.org/2000/svg" xmlns:xlink="http://www.w3.org/1999/xlink"
     width="1000" height="1000" viewBox="0 0 1000 1000">
<defs>
</defs>
<rect x="0" y="0" width="1000" height="1000" fill="white" />
<path d="M355.5521789995619,684.0 L434.0300058794459,584.0336588957277" stroke="grey" stroke-width="5" />
<circle cx="434.0300058794459" cy="584.0336588957277" r="2.5" fill="grey" stroke="none" />
<path d="M434.03000587944587,584.0336588957277 A106.8349004383374,106.8349004383374,0,0,0,475.5521789995618,604.0" stroke="grey" stroke-width="5" fill="none" />
<circle cx="355.5521789995619" cy="684.0" r="5" fill="black" stroke="none" />
<circle cx="475.5521789995619" cy="604.0" r="5" fill="black" stroke="none" />
<path d="M475.5521789995619,604.0 L487.6731259264561,552.4380027007556" stroke="grey" stroke-width="5" />
<circle cx="487.6731259264561" cy="552.4380027007556" r="2.5" fill="grey" stroke="none" />
<path d="M487.67312592645607,552.4380027007556 A53.867392285774,53.867392285774,0,0,1,475.5521789995619,548.0" stroke="grey" stroke-width="5" fill="none" />
<circle cx="475.5521789995619" cy="604.0" r="5" fill="black" stroke="none" />
<circle cx="475.5521789995619" cy="548.0" r="5" fill="black" stroke="none" />
<path d="M475.5521789995619,548.0 A53.867392285774,53.867392285774,0,0,1,449.54073310577587,518.8562545635904" stroke="grey" stroke-width="5" fill="none" />
<path d="M449.54073310577587,518.8562545635904 L371.5521789995619,548.0" stroke="grey" stroke-width="5" />
<circle cx="449.54073310577587" cy="518.8562545635904" r="2.5" fill="grey" stroke="none" />
<circle cx="475.5521789995619" cy="548.0" r="5" fill="black" stroke="none" />
<circle cx="371.5521789995619" cy="548.0" r="5" fill="black" stroke="none" />
<path d="M371.5521789995619,548.0 L401.9379911602713,536.6450468964431" stroke="grey" stroke-width="5" />
<circle cx="401.9379911602713" cy="536.6450468964431" r="2.5" fill="grey" stroke="none" />
<path d="M401.9379911602713,536.6450468964431 A104.68532389846033,104.68532389846033,0,0,1,411.5521789995619,444.0" stroke="grey" stroke-width="5" fill="none" />
<circle cx="371.5521789995619" cy="548.0" r="5" fill="black" stroke="none" />
<circle cx="411.5521789995619" cy="444.0" r="5" fill="black" stroke="none" />
<path d="M411.5521789995619,444.0 A104.68532389846033,104.68532389846033,0,0,1,516.8974773058003,396.6874049284139" stroke="grey" stroke-width="5" fill="none" />
<path d="M516.8974773058003,396.6874049284139 L523.5521789995619,356.0" stroke="grey" stroke-width="5" />
<circle cx="516.8974773058003" cy="396.6874049284139" r="2.5" fill="grey" stroke="none" />
<circle cx="411.5521789995619" cy="444.0" r="5" fill="black" stroke="none" />
<circle cx="523.5521789995619" cy="356.0" r="5" fill="black" stroke="none" />
<path d="M523.5521789995619,356.0 L522.5513631915594,362.11907188523963" stroke="grey" stroke-width="5" />
<circle cx="522.5513631915594" cy="362.11907188523963" r="2.5" fill="grey" stroke="none" />
<path d="M522.5513631915594,362.11907188523963 A139.71297119303324,139.71297119303324,0,0,1,571.5521789995619,380.0" stroke="grey" stroke-width="5" fill="none" />
<circle cx="523.5521789995619" cy="356.0" r="5" fill="black" stroke="none" />
<circle cx="571.5521789995619" cy="380.0" r="5" fill="black" stroke="none" />
<path d="M571.5521789995619,380.0 L558.6138594093753,401.6988269613969" stroke="grey" stroke-width="5" />
<circle cx="558.6138594093753" cy="401.6988269613969" r="2.5" fill="grey" stroke="none" />
<path d="M558.6138594093753,401.6988269613969 A114.44957464153111,114.44957464153111,0,0,0,523.5521789995619,388.0" stroke="grey" stroke-width="5" fill="none" />
<circle cx="571.5521789995619" cy="380.0" r="5" fill="black" stroke="none" />
<circle cx="523.5521789995619" cy="388.0" r="5" fill="black" stroke="none" />
<path d="M523.5521789995619,356.0 L518.4735454612489,387.05119188889785" stroke="grey" stroke-width="5" />
<circle cx="518.4735454612489" cy="387.05119188889785" r="2.5" fill="grey" stroke="none" />
<path d="M518.4735454612489,387.05119188889785 A114.44957464153111,114.44957464153111,0,0,1,523.5521789995619,388.0" stroke="grey" stroke-width="5" fill="none" />
<circle cx="523.5521789995619" cy="356.0" r="5" fill="black" stroke="none" />
<circle cx="523.5521789995619" cy="388.0" r="5" fill="black" stroke="none" />
<path d="M523.5521789995619,388.0 L505.031031859708,476.07543793303483" stroke="grey" stroke-width="5" />
<circle cx="505.031031859708" cy="476.07543793303483" r="2.5" fill="grey" stroke="none" />
<path d="M505.0310318597079,476.07543793303483 A24.447821000438154,24.447821000438154,0,0,0,475.5521789995619,500.0" stroke="grey" stroke-width="5" fill="none" />
<circle cx="523.5521789995619" cy="388.0" r="5" fill="black" stroke="none" />
<circle cx="475.5521789995619" cy="500.0" r="5" fill="black" stroke="none" />
<path d="M411.5521789995619,444.0 L479.3442250052654,486.9219683806636" stroke="grey" stroke-width="5" />
<circle cx="479.3442250052654" cy="486.9219683806636" r="2.5" fill="grey" stroke="none" />
<path d="M479.3442250052654,486.9219683806636 A24.447821000438154,24.447821000438154,0,0,0,475.5521789995619,500.0" stroke="grey" stroke-width="5" fill="none" />
<circle cx="411.5521789995619" cy="444.0" r="5" fill="black" stroke="none" />
<circle cx="475.5521789995619" cy="500.0" r="5" fill="black" stroke="none" />
<path d="M475.5521789995619,500.0 A24.447821000438154,24.447821000438154,0,0,0,488.90430877925917,521.7848935733788" stroke="grey" stroke-width="5" fill="none" />
<path d="M488.90430877925917,521.7848935733788 L475.5521789995619,548.0" stroke="grey" stroke-width="5" />
<circle cx="488.90430877925917" cy="521.7848935733788" r="2.5" fill="grey" stroke="none" />
<circle cx="475.5521789995619" cy="500.0" r="5" fill="black" stroke="none" />
<circle cx="475.5521789995619" cy="548.0" r="5" fill="black" stroke="none" />
<path d="M571.5521789995619,380.0 A139.71297119303324,139.71297119303324,0,0,1,579.9047019197415,385.39217770718005" stroke="grey" stroke-width="5" fill="none" />
<path d="M579.9047019197415,385.39217770718 L611.5521789995619,340.0" stroke="grey" stroke-width="5" />
<circle cx="579.9047019197415" cy="385.39217770718" r="2.5" fill="grey" stroke="none" />
<circle cx="571.5521789995619" cy="380.0" r="5" fill="black" stroke="none" />
<circle cx="611.5521789995619" cy="340.0" r="5" fill="black" stroke="none" />
<path d="M571.5521789995619,380.0 L567.6112437973857,386.6093336481624" stroke="grey" stroke-width="5" />
<circle cx="567.6112437973857" cy="386.6093336481624" r="2.5" fill="grey" stroke="none" />
<path d="M567.6112437973857,386.6093336481624 A132.01789084644275,132.01789084644275,0,0,1,619.5521789995619,444.0" stroke="grey" stroke-width="5" fill="none" />
<circle cx="571.5521789995619" cy="380.0" r="5" fill="black" stroke="none" />
<circle cx="619.5521789995619" cy="444.0" r="5" fill="black" stroke="none" />
<path d="M523.5521789995619,388.0 L518.6979605241825,411.0837439394716" stroke="grey" stroke-width="5" />
<circle cx="518.6979605241825" cy="411.0837439394716" r="2.5" fill="grey" stroke="none" />
<path d="M518.6979605241825,411.0837439394716 A90.8609614718298,90.8609614718298,0,0,1,571.5521789995619,444.0" stroke="grey" stroke-width="5" fill="none" />
<circle cx="523.5521789995619" cy="388.0" r="5" fill="black" stroke="none" />
<circle cx="571.5521789995619" cy="444.0" r="5" fill="black" stroke="none" />
<path d="M475.5521789995619,500.0 L523.5521789995619,500.0" stroke="grey" stroke-width="5" />
<circle cx="475.5521789995619" cy="500.0" r="5" fill="black" stroke="none" />
<circle cx="523.5521789995619" cy="500.0" r="5" fill="black" stroke="none" />
<path d="M475.5521789995619,548.0 A53.867392285774,53.867392285774,0,0,0,544.7340470744667,530.0093482769763" stroke="grey" stroke-width="5" fill="none" />
<path d="M544.7340470744667,530.0093482769763 L571.5521789995619,548.0" stroke="grey" stroke-width="5" />
<circle cx="544.7340470744667" cy="530.0093482769763" r="2.5" fill="grey" stroke="none" />
<circle cx="475.5521789995619" cy="548.0" r="5" fill="black" stroke="none" />
<circle cx="571.5521789995619" cy="548.0" r="5" fill="black" stroke="none" />
<path d="M475.5521789995618,604.0 A106.8349004383374,106.8349004383374,0,0,0,560.5550330991666,588.0158162947337" stroke="grey" stroke-width="5" fill="none" />
<path d="M560.5550330991666,588.0158162947337 L571.5521789995619,604.0" stroke="grey" stroke-width="5" />
<circle cx="560.5550330991666" cy="588.0158162947337" r="2.5" fill="grey" stroke="none" />
<circle cx="475.5521789995619" cy="604.0" r="5" fill="black" stroke="none" />
<circle cx="571.5521789995619" cy="604.0" r="5" fill="black" stroke="none" />
<path d="M619.5521789995619,444.0 L582.2814685214703,461.4581492720494" stroke="grey" stroke-width="5" />
<circle cx="582.2814685214703" cy="461.4581492720494" r="2.5" fill="grey" stroke="none" />
<path d="M582.2814685214703,461.4581492720494 A90.8609614718298,90.8609614718298,0,0,0,571.5521789995619,444.0" stroke="grey" stroke-width="5" fill="none" />
<circle cx="619.5521789995619" cy="444.0" r="5" fill="black" stroke="none" />
<circle cx="571.5521789995619" cy="444.0" r="5" fill="black" stroke="none" />
<path d="M571.5521789995619,444.0 L518.5471262939348,485.48417271168347" stroke="grey" stroke-width="5" />
<circle cx="518.5471262939348" cy="485.48417271168347" r="2.5" fill="grey" stroke="none" />
<path d="M518.5471262939348,485.48417271168347 A23.552178999561846,23.552178999561846,0,0,1,523.5521789995619,500.0" stroke="grey" stroke-width="5" fill="none" />
<circle cx="571.5521789995619" cy="444.0" r="5" fill="black" stroke="none" />
<circle cx="523.5521789995619" cy="500.0" r="5" fill="black" stroke="none" />
<path d="M523.5521789995619,500.0 A23.552178999561846,23.552178999561846,0,0,1,519.5588507140508,513.120841984144" stroke="grey" stroke-width="5" fill="none" />
<path d="M519.5588507140508,513.120841984144 L571.5521789995619,548.0" stroke="grey" stroke-width="5" />
<circle cx="519.5588507140508" cy="513.120841984144" r="2.5" fill="grey" stroke="none" />
<circle cx="523.5521789995619" cy="500.0" r="5" fill="black" stroke="none" />
<circle cx="571.5521789995619" cy="548.0" r="5" fill="black" stroke="none" />
<path d="M571.5521789995619,548.0 A86.16097910066563,86.16097910066563,0,0,1,548.8368587408271,570.9836287316579" stroke="grey" stroke-width="5" fill="none" />
<path d="M548.8368587408271,570.9836287316579 L571.5521789995619,604.0" stroke="grey" stroke-width="5" />
<circle cx="548.8368587408271" cy="570.9836287316579" r="2.5" fill="grey" stroke="none" />
<circle cx="571.5521789995619" cy="548.0" r="5" fill="black" stroke="none" />
<circle cx="571.5521789995619" cy="604.0" r="5" fill="black" stroke="none" />
<path d="M571.5521789995619,604.0 A126.23673918311316,126.23673918311316,0,0,0,577.6504304273035,599.5295181041275" stroke="grey" stroke-width="5" fill="none" />
<path d="M577.6504304273035,599.5295181041275 L643.5521789995619,684.0" stroke="grey" stroke-width="5" />
<circle cx="577.6504304273035" cy="599.5295181041275" r="2.5" fill="grey" stroke="none" />
<circle cx="571.5521789995619" cy="604.0" r="5" fill="black" stroke="none" />
<circle cx="643.5521789995619" cy="684.0" r="5" fill="black" stroke="none" />
<path d="M619.5521789995619,444.0 L591.2531714532463,457.2556715892186" stroke="grey" stroke-width="5" />
<circle cx="591.2531714532463" cy="457.2556715892186" r="2.5" fill="grey" stroke="none" />
<path d="M591.2531714532463,457.2556715892186 A100.76814432926861,100.76814432926861,0,0,1,595.5521789995619,468.0" stroke="grey" stroke-width="5" fill="none" />
<circle cx="619.5521789995619" cy="444.0" r="5" fill="black" stroke="none" />
<circle cx="595.5521789995619" cy="468.0" r="5" fill="black" stroke="none" />
<path d="M595.5521789995619,468.0 L567.8484918133894,477.2778416906807" stroke="grey" stroke-width="5" />
<circle cx="567.8484918133894" cy="477.2778416906807" r="2.5" fill="grey" stroke="none" />
<path d="M567.8484918133894,477.2778416906807 A71.55217899956185,71.55217899956185,0,0,1,571.5521789995619,500.0" stroke="grey" stroke-width="5" fill="none" />
<circle cx="595.5521789995619" cy="468.0" r="5" fill="black" stroke="none" />
<circle cx="571.5521789995619" cy="500.0" r="5" fill="black" stroke="none" />
<path d="M571.5521789995619,500.0 A71.55217899956185,71.55217899956185,0,0,1,559.4203358994303,539.8614851853795" stroke="grey" stroke-width="5" fill="none" />
<path d="M559.4203358994303,539.8614851853795 L571.5521789995619,548.0" stroke="grey" stroke-width="5" />
<circle cx="559.4203358994303" cy="539.8614851853795" r="2.5" fill="grey" stroke="none" />
<circle cx="571.5521789995619" cy="500.0" r="5" fill="black" stroke="none" />
<circle cx="571.5521789995619" cy="548.0" r="5" fill="black" stroke="none" />
<path d="M571.5521789995619,444.0 A90.8609614718298,90.8609614718298,0,0,1,586.1578121976675,471.14613168227174" stroke="grey" stroke-width="5" fill="none" />
<path d="M586.1578121976675,471.14613168227174 L595.5521789995619,468.0" stroke="grey" stroke-width="5" />
<circle cx="586.1578121976675" cy="471.14613168227174" r="2.5" fill="grey" stroke="none" />
<circle cx="571.5521789995619" cy="444.0" r="5" fill="black" stroke="none" />
<circle cx="595.5521789995619" cy="468.0" r="5" fill="black" stroke="none" />
<path d="M523.5521789995619,500.0 A23.552178999561846,23.552178999561846,0,0,1,523.5521789995619,500.0" stroke="grey" stroke-width="5" fill="none" />
<path d="M523.5521789995619,500.0 L571.5521789995619,500.0" stroke="grey" stroke-width="5" />
<circle cx="523.5521789995619" cy="500.0" r="2.5" fill="grey" stroke="none" />
<circle cx="523.5521789995619" cy="500.0" r="5" fill="black" stroke="none" />
<circle cx="571.5521789995619" cy="500.0" r="5" fill="black" stroke="none" />
<path d="M619.5521789995619,444.0 L608.2635346762805,449.28776712723965" stroke="grey" stroke-width="5" />
<circle cx="608.2635346762805" cy="449.28776712723965" r="2.5" fill="grey" stroke="none" />
<path d="M608.2635346762805,449.28776712723965 A119.55217899956185,119.55217899956185,0,0,1,619.5521789995619,500.0" stroke="grey" stroke-width="5" fill="none" />
<circle cx="619.5521789995619" cy="444.0" r="5" fill="black" stroke="none" />
<circle cx="619.5521789995619" cy="500.0" r="5" fill="black" stroke="none" />
<path d="M595.5521789995619,468.0 A100.76814432926861,100.76814432926861,0,0,1,600.7681443292686,500.0" stroke="grey" stroke-width="5" fill="none" />
<path d="M600.7681443292686,500.0 L619.5521789995619,500.0" stroke="grey" stroke-width="5" />
<circle cx="600.7681443292686" cy="500.0" r="2.5" fill="grey" stroke="none" />
<circle cx="595.5521789995619" cy="468.0" r="5" fill="black" stroke="none" />
<circle cx="619.5521789995619" cy="500.0" r="5" fill="black" stroke="none" />
<path d="M571.5521789995619,500.0 A71.55217899956185,71.55217899956185,0,0,1,571.5521789995619,500.0" stroke="grey" stroke-width="5" fill="none" />
<path d="M571.5521789995619,500.0 L619.5521789995619,500.0" stroke="grey" stroke-width="5" />
<circle cx="571.5521789995619" cy="500.0" r="2.5" fill="grey" stroke="none" />
<circle cx="571.5521789995619" cy="500.0" r="5" fill="black" stroke="none" />
<circle cx="619.5521789995619" cy="500.0" r="5" fill="black" stroke="none" />
<path d="M571.5521789995619,548.0 A86.16097910066563,86.16097910066563,0,0,0,586.1609791006656,500.0" stroke="grey" stroke-width="5" fill="none" />
<path d="M586.1609791006656,500.0 L619.5521789995619,500.0" stroke="grey" stroke-width="5" />
<circle cx="586.1609791006656" cy="500.0" r="2.5" fill="grey" stroke="none" />
<circle cx="571.5521789995619" cy="548.0" r="5" fill="black" stroke="none" />
<circle cx="619.5521789995619" cy="500.0" r="5" fill="black" stroke="none" />
<path d="M619.5521789995619,500.0 A119.55217899956185,119.55217899956185,0,0,1,602.4134609233997,561.6782500176079" stroke="grey" stroke-width="5" fill="none" />
<path d="M602.4134609233997,561.6782500176079 L619.5521789995619,572.0" stroke="grey" stroke-width="5" />
<circle cx="602.4134609233997" cy="561.6782500176079" r="2.5" fill="grey" stroke="none" />
<circle cx="619.5521789995619" cy="500.0" r="5" fill="black" stroke="none" />
<circle cx="619.5521789995619" cy="572.0" r="5" fill="black" stroke="none" />
<path d="M619.5521789995619,572.0 L608.1397383436612,565.1268862341033" stroke="grey" stroke-width="5" />
<circle cx="608.1397383436612" cy="565.1268862341033" r="2.5" fill="grey" stroke="none" />
<path d="M608.1397383436612,565.1268862341033 A126.23673918311316,126.23673918311316,0,0,1,571.5521789995619,604.0" stroke="grey" stroke-width="5" fill="none" />
<circle cx="619.5521789995619" cy="572.0" r="5" fill="black" stroke="none" />
<circle cx="571.5521789995619" cy="604.0" r="5" fill="black" stroke="none" />
<path d="M619.5521789995619,444.0 A132.01789084644275,132.01789084644275,0,0,0,607.3546752183986,423.16447948835497" stroke="grey" stroke-width="5" fill="none" />
<path d="M607.3546752183986,423.16447948835497 L723.5521789995619,340.0" stroke="grey" stroke-width="5" />
<circle cx="607.3546752183986" cy="423.16447948835497" r="2.5" fill="grey" stroke="none" />
<circle cx="619.5521789995619" cy="444.0" r="5" fill="black" stroke="none" />
<circle cx="723.5521789995619" cy="340.0" r="5" fill="black" stroke="none" />
<path d="M619.5521789995619,444.0 A132.01789084644275,132.01789084644275,0,0,1,630.9285398898705,483.07543365843986" stroke="grey" stroke-width="5" fill="none" />
<path d="M630.9285398898705,483.07543365843986 L747.5521789995619,468.0" stroke="grey" stroke-width="5" />
<circle cx="630.9285398898705" cy="483.07543365843986" r="2.5" fill="grey" stroke="none" />
<circle cx="619.5521789995619" cy="444.0" r="5" fill="black" stroke="none" />
<circle cx="747.5521789995619" cy="468.0" r="5" fill="black" stroke="none" />
<path d="M747.5521789995619,468.0 A249.61186135164152,249.61186135164152,0,0,1,748.4844950357718,476.30322692330043" stroke="grey" stroke-width="5" fill="none" />
<path d="M748.4844950357718,476.30322692330043 L835.5521789995619,468.0" stroke="grey" stroke-width="5" />
<circle cx="748.4844950357718" cy="476.30322692330043" r="2.5" fill="grey" stroke="none" />
<circle cx="747.5521789995619" cy="468.0" r="5" fill="black" stroke="none" />
<circle cx="835.5521789995619" cy="468.0" r="5" fill="black" stroke="none" />
<path d="M619.5521789995619,500.0 A119.55217899956185,119.55217899956185,0,0,1,604.0161838882441,558.9351931605411" stroke="grey" stroke-width="5" fill="none" />
<path d="M604.0161838882441,558.9351931605411 L683.5521789995619,604.0" stroke="grey" stroke-width="5" />
<circle cx="604.0161838882441" cy="558.9351931605411" r="2.5" fill="grey" stroke="none" />
<circle cx="619.5521789995619" cy="500.0" r="5" fill="black" stroke="none" />
<circle cx="683.5521789995619" cy="604.0" r="5" fill="black" stroke="none" />
<circle cx="500" cy="500" r="5" fill="red" stroke="none" />
</svg>