<?xml version="1.0" encoding="UTF-8"?>
<svg xmlns="http://www.w3.org/2000/svg" xmlns:xlink="http://www.w3.org/1999/xlink"
     width="1000" height="1000" viewBox="0 0 1000 1000">
<defs>
</defs>
<rect x="0" y="0" width="1000" height="1000" fill="white" />
<path d="M271.89947576423015,816.1005242357699 L348.04998611648216,710.571541679431" stroke="grey" stroke-width="5" />
<circle cx="348.04998611648216" cy="710.571541679431" r="2.5" fill="grey" stroke="none" />
<path d="M348.04998611648216,710.571541679431 A259.67129391685484,259.67129391685484,0,0,0,391.8994757642302,736.1005242357699" stroke="grey" stroke-width="5" fill="none" />
<circle cx="271.89947576423015" cy="816.1005242357699" r="5" fill="black" stroke="none" />
<circle cx="391.89947576423015" cy="736.1005242357699" r="5" fill="black" stroke="none" />
<path d="M391.89947576423015,736.1005242357699 L412.55578765623557,690.985423259541" stroke="grey" stroke-width="5" />
<circle cx="412.55578765623557" cy="690.985423259541" r="2.5" fill="grey" stroke="none" />
<path d="M412.55578765623557,690.985423259541 A210.05218915795044,210.05218915795044,0,0,1,391.89947576423015,680.1005242357699" stroke="grey" stroke-width="5" fill="none" />
<circle cx="391.89947576423015" cy="736.1005242357699" r="5" fill="black" stroke="none" />
<circle cx="391.89947576423015" cy="680.1005242357699" r="5" fill="black" stroke="none" />
<path d="M391.89947576423015,680.1005242357699 A210.05218915795044,210.05218915795044,0,0,1,339.88411146937347,635.9589070642132" stroke="grey" stroke-width="5" fill="none" />
<path d="M339.88411146937347,635.9589070642132 L287.89947576423015,680.1005242357699" stroke="grey" stroke-width="5" />
<circle cx="339.88411146937347" cy="635.9589070642132" r="2.5" fill="grey" stroke="none" />
<circle cx="391.89947576423015" cy="680.1005242357699" r="5" fill="black" stroke="none" />
<circle cx="287.89947576423015" cy="680.1005242357699" r="5" fill="black" stroke="none" />
<path d="M287.89947576423015,680.1005242357699 L356.56027414098423,621.7987080254803" stroke="grey" stroke-width="5" />
<circle cx="356.56027414098423" cy="621.7987080254803" r="2.5" fill="grey" stroke="none" />
<path d="M356.56027414098423,621.7987080254803 A188.17513180860482,188.17513180860482,0,0,1,327.89947576423015,576.1005242357699" stroke="grey" stroke-width="5" fill="none" />
<circle cx="287.89947576423015" cy="680.1005242357699" r="5" fill="black" stroke="none" />
<circle cx="327.89947576423015" cy="576.1005242357699" r="5" fill="black" stroke="none" />
<path d="M327.89947576423015,576.1005242357699 L443.96646263558495,524.7772723944457" stroke="grey" stroke-width="5" />
<circle cx="443.96646263558495" cy="524.7772723944457" r="2.5" fill="grey" stroke="none" />
<path d="M443.96646263558495,524.7772723944457 A61.2672060475901,61.2672060475901,0,0,1,439.89947576423015,488.10052423576985" stroke="grey" stroke-width="5" fill="none" />
<circle cx="327.89947576423015" cy="576.1005242357699" r="5" fill="black" stroke="none" />
<circle cx="439.89947576423015" cy="488.10052423576985" r="5" fill="black" stroke="none" />
<path d="M439.89947576423015,488.10052423576985 L483.2131438796876,496.67632204375366" stroke="grey" stroke-width="5" />
<circle cx="483.2131438796876" cy="496.67632204375366" r="2.5" fill="grey" stroke="none" />
<path d="M483.2131438796876,496.67632204375366 A17.11272548605005,17.11272548605005,0,0,0,487.89947576423015,512.1005242357699" stroke="grey" stroke-width="5" fill="none" />
<circle cx="439.89947576423015" cy="488.10052423576985" r="5" fill="black" stroke="none" />
<circle cx="487.89947576423015" cy="512.1005242357699" r="5" fill="black" stroke="none" />
<path d="M487.89947576423015,512.1005242357699 A17.11272548605005,17.11272548605005,0,0,1,483.7708802874497,505.42780313908105" stroke="grey" stroke-width="5" fill="none" />
<path d="M483.7708802874497,505.42780313908105 L439.89947576423015,520.1005242357699" stroke="grey" stroke-width="5" />
<circle cx="483.7708802874497" cy="505.42780313908105" r="2.5" fill="grey" stroke="none" />
<circle cx="487.89947576423015" cy="512.1005242357699" r="5" fill="black" stroke="none" />
<circle cx="439.89947576423015" cy="520.1005242357699" r="5" fill="black" stroke="none" />
<path d="M439.89947576423015,488.10052423576985 A61.2672060475901,61.2672060475901,0,0,0,441.8962910256248,519.4326925643095" stroke="grey" stroke-width="5" fill="none" />
<path d="M441.8962910256248,519.4326925643095 L439.89947576423015,520.1005242357699" stroke="grey" stroke-width="5" />
<circle cx="441.8962910256248" cy="519.4326925643095" r="2.5" fill="grey" stroke="none" />
<circle cx="439.89947576423015" cy="488.10052423576985" r="5" fill="black" stroke="none" />
<circle cx="439.89947576423015" cy="520.1005242357699" r="5" fill="black" stroke="none" />
<path d="M439.89947576423015,520.1005242357699 A63.3727393124767,63.3727393124767,0,0,0,459.8659220415945,549.0444683363553" stroke="grey" stroke-width="5" fill="none" />
<path d="M459.8659220415945,549.0444683363553 L391.89947576423015,632.1005242357699" stroke="grey" stroke-width="5" />
<circle cx="459.8659220415945" cy="549.0444683363553" r="2.5" fill="grey" stroke="none" />
<circle cx="439.89947576423015" cy="520.1005242357699" r="5" fill="black" stroke="none" />
<circle cx="391.89947576423015" cy="632.1005242357699" r="5" fill="black" stroke="none" />
<path d="M327.89947576423015,576.1005242357699 L343.8877602710363,569.0307210611337" stroke="grey" stroke-width="5" />
<circle cx="343.8877602710363" cy="569.0307210611337" r="2.5" fill="grey" stroke="none" />
<path d="M343.8877602710363,569.0307210611337 A170.69350263971234,170.69350263971234,0,0,0,391.89947576423015,632.1005242357699" stroke="grey" stroke-width="5" fill="none" />
<circle cx="327.89947576423015" cy="576.1005242357699" r="5" fill="black" stroke="none" />
<circle cx="391.89947576423015" cy="632.1005242357699" r="5" fill="black" stroke="none" />
<path d="M391.89947576423015,632.1005242357699 A170.69350263971234,170.69350263971234,0,0,0,412.15489258663473,646.3540534011538" stroke="grey" stroke-width="5" fill="none" />
<path d="M412.15489258663473,646.3540534011538 L391.89947576423015,680.1005242357699" stroke="grey" stroke-width="5" />
<circle cx="412.15489258663473" cy="646.3540534011538" r="2.5" fill="grey" stroke="none" />
<circle cx="391.89947576423015" cy="632.1005242357699" r="5" fill="black" stroke="none" />
<circle cx="391.89947576423015" cy="680.1005242357699" r="5" fill="black" stroke="none" />
<path d="M487.89947576423015,512.1005242357699 L527.8994757642301,472.10052423576985" stroke="grey" stroke-width="5" />
<circle cx="487.89947576423015" cy="512.1005242357699" r="5" fill="black" stroke="none" />
<circle cx="527.8994757642301" cy="472.10052423576985" r="5" fill="black" stroke="none" />
<path d="M487.89947576423015,512.1005242357699 A17.11272548605005,17.11272548605005,0,0,0,507.3011077086117,515.4770539763922" stroke="grey" stroke-width="5" fill="none" />
<path d="M507.3011077086117,515.4770539763922 L535.8994757642301,576.1005242357699" stroke="grey" stroke-width="5" />
<circle cx="507.3011077086117" cy="515.4770539763922" r="2.5" fill="grey" stroke="none" />
<circle cx="487.89947576423015" cy="512.1005242357699" r="5" fill="black" stroke="none" />
<circle cx="535.8994757642301" cy="576.1005242357699" r="5" fill="black" stroke="none" />
<path d="M439.89947576423015,520.1005242357699 A63.3727393124767,63.3727393124767,0,0,0,490.04830438652493,562.5864829047285" stroke="grey" stroke-width="5" fill="none" />
<path d="M490.04830438652493,562.5864829047285 L487.89947576423015,576.1005242357699" stroke="grey" stroke-width="5" />
<circle cx="490.04830438652493" cy="562.5864829047285" r="2.5" fill="grey" stroke="none" />
<circle cx="439.89947576423015" cy="520.1005242357699" r="5" fill="black" stroke="none" />
<circle cx="487.89947576423015" cy="576.1005242357699" r="5" fill="black" stroke="none" />
<path d="M391.89947576423015,632.1005242357699 L408.0890993714638,612.3165520412326" stroke="grey" stroke-width="5" />
<circle cx="408.0890993714638" cy="612.3165520412326" r="2.5" fill="grey" stroke="none" />
<path d="M408.0890993714638,612.3165520412326 A145.12967138658993,145.12967138658993,0,0,0,439.8994757642301,632.1005242357699" stroke="grey" stroke-width="5" fill="none" />
<circle cx="391.89947576423015" cy="632.1005242357699" r="5" fill="black" stroke="none" />
<circle cx="439.89947576423015" cy="632.1005242357699" r="5" fill="black" stroke="none" />
<path d="M391.89947576423015,680.1005242357699 L407.10473033166414,654.7678596803185" stroke="grey" stroke-width="5" />
<circle cx="407.10473033166414" cy="654.7678596803185" r="2.5" fill="grey" stroke="none" />
<path d="M407.10473033166414,654.7678596803185 A180.5065691790179,180.5065691790179,0,0,0,487.8994757642301,680.1005242357699" stroke="grey" stroke-width="5" fill="none" />
<circle cx="391.89947576423015" cy="680.1005242357699" r="5" fill="black" stroke="none" />
<circle cx="487.89947576423015" cy="680.1005242357699" r="5" fill="black" stroke="none" />
<path d="M391.89947576423015,736.1005242357699 L401.5829263378278,714.951063833051" stroke="grey" stroke-width="5" />
<circle cx="401.5829263378278" cy="714.951063833051" r="2.5" fill="grey" stroke="none" />
<path d="M401.5829263378278,714.951063833051 A236.41040635129792,236.41040635129792,0,0,0,487.8994757642302,736.1005242357699" stroke="grey" stroke-width="5" fill="none" />
<circle cx="391.89947576423015" cy="736.1005242357699" r="5" fill="black" stroke="none" />
<circle cx="487.89947576423015" cy="736.1005242357699" r="5" fill="black" stroke="none" />
<path d="M535.8994757642301,576.1005242357699 L532.8760137616692,569.6913208002402" stroke="grey" stroke-width="5" />
<circle cx="532.8760137616692" cy="569.6913208002402" r="2.5" fill="grey" stroke="none" />
<path d="M532.8760137616692,569.6913208002402 A77.05655374943423,77.05655374943423,0,0,1,487.89947576423015,576.1005242357699" stroke="grey" stroke-width="5" fill="none" />
<circle cx="535.8994757642301" cy="576.1005242357699" r="5" fill="black" stroke="none" />
<circle cx="487.89947576423015" cy="576.1005242357699" r="5" fill="black" stroke="none" />
<path d="M487.89947576423015,576.1005242357699 A77.05655374943423,77.05655374943423,0,0,1,468.08964540540745,570.1387321341555" stroke="grey" stroke-width="5" fill="none" />
<path d="M468.08964540540745,570.1387321341555 L439.89947576423015,632.1005242357699" stroke="grey" stroke-width="5" />
<circle cx="468.08964540540745" cy="570.1387321341555" r="2.5" fill="grey" stroke="none" />
<circle cx="487.89947576423015" cy="576.1005242357699" r="5" fill="black" stroke="none" />
<circle cx="439.89947576423015" cy="632.1005242357699" r="5" fill="black" stroke="none" />
<path d="M439.8994757642301,632.1005242357699 A145.12967138658993,145.12967138658993,0,0,0,490.27101831290645,644.8032058764991" stroke="grey" stroke-width="5" fill="none" />
<path d="M490.27101831290645,644.8032058764991 L487.89947576423015,680.1005242357699" stroke="grey" stroke-width="5" />
<circle cx="490.27101831290645" cy="644.8032058764991" r="2.5" fill="grey" stroke="none" />
<circle cx="439.89947576423015" cy="632.1005242357699" r="5" fill="black" stroke="none" />
<circle cx="487.89947576423015" cy="680.1005242357699" r="5" fill="black" stroke="none" />
<path d="M487.8994757642301,680.1005242357699 A180.5065691790179,180.5065691790179,0,0,0,490.76087999349454,680.269964714827" stroke="grey" stroke-width="5" fill="none" />
<path d="M490.7608799934945,680.269964714827 L487.89947576423015,736.1005242357699" stroke="grey" stroke-width="5" />
<circle cx="490.7608799934945" cy="680.269964714827" r="2.5" fill="grey" stroke="none" />
<circle cx="487.89947576423015" cy="680.1005242357699" r="5" fill="black" stroke="none" />
<circle cx="487.89947576423015" cy="736.1005242357699" r="5" fill="black" stroke="none" />
<path d="M487.8994757642302,736.1005242357699 A236.41040635129792,236.41040635129792,0,0,0,544.0153059732892,732.2768457493419" stroke="grey" stroke-width="5" fill="none" />
<path d="M544.0153059732892,732.2768457493419 L559.8994757642301,816.1005242357699" stroke="grey" stroke-width="5" />
<circle cx="544.0153059732892" cy="732.2768457493419" r="2.5" fill="grey" stroke="none" />
<circle cx="487.89947576423015" cy="736.1005242357699" r="5" fill="black" stroke="none" />
<circle cx="559.8994757642301" cy="816.1005242357699" r="5" fill="black" stroke="none" />
<path d="M535.8994757642301,576.1005242357699 A84.1431051786511,84.1431051786511,0,0,1,509.93259923167943,583.5548060952115" stroke="grey" stroke-width="5" fill="none" />
<path d="M509.93259923167943,583.5548060952115 L511.89947576423015,600.1005242357699" stroke="grey" stroke-width="5" />
<circle cx="509.93259923167943" cy="583.5548060952115" r="2.5" fill="grey" stroke="none" />
<circle cx="535.8994757642301" cy="576.1005242357699" r="5" fill="black" stroke="none" />
<circle cx="511.89947576423015" cy="600.1005242357699" r="5" fill="black" stroke="none" />
<path d="M511.89947576423015,600.1005242357699 A100.80531967976415,100.80531967976415,0,0,1,490.80464129283695,600.3850479602717" stroke="grey" stroke-width="5" fill="none" />
<path d="M490.80464129283695,600.3850479602717 L487.89947576423015,632.1005242357699" stroke="grey" stroke-width="5" />
<circle cx="490.80464129283695" cy="600.3850479602717" r="2.5" fill="grey" stroke="none" />
<circle cx="511.89947576423015" cy="600.1005242357699" r="5" fill="black" stroke="none" />
<circle cx="487.89947576423015" cy="632.1005242357699" r="5" fill="black" stroke="none" />
<path d="M487.89947576423015,632.1005242357699 A132.65357586641105,132.65357586641105,0,0,0,491.10737178688987,632.3551750163516" stroke="grey" stroke-width="5" fill="none" />
<path d="M491.1073717868899,632.3551750163516 L487.89947576423015,680.1005242357699" stroke="grey" stroke-width="5" />
<circle cx="491.1073717868899" cy="632.3551750163516" r="2.5" fill="grey" stroke="none" />
<circle cx="487.89947576423015" cy="632.1005242357699" r="5" fill="black" stroke="none" />
<circle cx="487.89947576423015" cy="680.1005242357699" r="5" fill="black" stroke="none" />
<path d="M487.89947576423015,576.1005242357699 A77.05655374943423,77.05655374943423,0,0,0,509.0960734684378,576.5178013484198" stroke="grey" stroke-width="5" fill="none" />
<path d="M509.0960734684378,576.5178013484198 L511.89947576423015,600.1005242357699" stroke="grey" stroke-width="5" />
<circle cx="509.0960734684378" cy="576.5178013484198" r="2.5" fill="grey" stroke="none" />
<circle cx="487.89947576423015" cy="576.1005242357699" r="5" fill="black" stroke="none" />
<circle cx="511.89947576423015" cy="600.1005242357699" r="5" fill="black" stroke="none" />
<path d="M439.89947576423015,632.1005242357699 L445.0660269871083,620.7444814439341" stroke="grey" stroke-width="5" />
<circle cx="445.0660269871083" cy="620.7444814439341" r="2.5" fill="grey" stroke="none" />
<path d="M445.0660269871083,620.7444814439341 A132.65357586641105,132.65357586641105,0,0,0,487.89947576423015,632.1005242357699" stroke="grey" stroke-width="5" fill="none" />
<circle cx="439.89947576423015" cy="632.1005242357699" r="5" fill="black" stroke="none" />
<circle cx="487.89947576423015" cy="632.1005242357699" r="5" fill="black" stroke="none" />
<path d="M535.8994757642301,576.1005242357699 A84.1431051786511,84.1431051786511,0,0,1,522.0663101435615,581.1981533395539" stroke="grey" stroke-width="5" fill="none" />
<path d="M522.0663101435615,581.1981533395539 L535.8994757642301,632.1005242357699" stroke="grey" stroke-width="5" />
<circle cx="522.0663101435615" cy="581.1981533395539" r="2.5" fill="grey" stroke="none" />
<circle cx="535.8994757642301" cy="576.1005242357699" r="5" fill="black" stroke="none" />
<circle cx="535.8994757642301" cy="632.1005242357699" r="5" fill="black" stroke="none" />
<path d="M511.89947576423015,600.1005242357699 A100.80531967976415,100.80531967976415,0,0,0,526.435932492053,597.2772015891445" stroke="grey" stroke-width="5" fill="none" />
<path d="M526.435932492053,597.2772015891445 L535.8994757642301,632.1005242357699" stroke="grey" stroke-width="5" />
<circle cx="526.435932492053" cy="597.2772015891445" r="2.5" fill="grey" stroke="none" />
<circle cx="511.89947576423015" cy="600.1005242357699" r="5" fill="black" stroke="none" />
<circle cx="535.8994757642301" cy="632.1005242357699" r="5" fill="black" stroke="none" />
<path d="M487.89947576423015,632.1005242357699 A132.65357586641105,132.65357586641105,0,0,0,534.7880547135236,628.0107903240761" stroke="grey" stroke-width="5" fill="none" />
<path d="M534.7880547135236,628.0107903240761 L535.8994757642301,632.1005242357699" stroke="grey" stroke-width="5" />
<circle cx="534.7880547135236" cy="628.0107903240761" r="2.5" fill="grey" stroke="none" />
<circle cx="487.89947576423015" cy="632.1005242357699" r="5" fill="black" stroke="none" />
<circle cx="535.8994757642301" cy="632.1005242357699" r="5" fill="black" stroke="none" />
<path d="M487.89947576423015,680.1005242357699 L490.82326696201403,636.5837048635792" stroke="grey" stroke-width="5" />
<circle cx="490.82326696201403" cy="636.5837048635792" r="2.5" fill="grey" stroke="none" />
<path d="M490.82326696201403,636.5837048635792 A136.89163912931923,136.89163912931923,0,0,0,535.8994757642301,632.1005242357699" stroke="grey" stroke-width="5" fill="none" />
<circle cx="487.89947576423015" cy="680.1005242357699" r="5" fill="black" stroke="none" />
<circle cx="535.8994757642301" cy="632.1005242357699" r="5" fill="black" stroke="none" />
<path d="M535.8994757642301,632.1005242357699 A136.89163912931923,136.89163912931923,0,0,1,523.7139937035577,634.8219839868091" stroke="grey" stroke-width="5" fill="none" />
<path d="M523.7139937035577,634.8219839868091 L535.8994757642301,704.1005242357699" stroke="grey" stroke-width="5" />
<circle cx="523.7139937035577" cy="634.8219839868091" r="2.5" fill="grey" stroke="none" />
<circle cx="535.8994757642301" cy="632.1005242357699" r="5" fill="black" stroke="none" />
<circle cx="535.8994757642301" cy="704.1005242357699" r="5" fill="black" stroke="none" />
<path d="M535.8994757642301,704.1005242357699 A207.23367572251047,207.23367572251047,0,0,1,489.3928691454401,706.9620378922107" stroke="grey" stroke-width="5" fill="none" />
<path d="M489.39286914544005,706.9620378922107 L487.89947576423015,736.1005242357699" stroke="grey" stroke-width="5" />
<circle cx="489.39286914544005" cy="706.9620378922107" r="2.5" fill="grey" stroke="none" />
<circle cx="535.8994757642301" cy="704.1005242357699" r="5" fill="black" stroke="none" />
<circle cx="487.89947576423015" cy="736.1005242357699" r="5" fill="black" stroke="none" />
<path d="M535.8994757642301,576.1005242357699 A84.1431051786511,84.1431051786511,0,0,0,582.5182123471036,483.5437920484742" stroke="grey" stroke-width="5" fill="none" />
<path d="M582.5182123471036,483.5437920484742 L639.8994757642301,472.10052423576985" stroke="grey" stroke-width="5" />
<circle cx="582.5182123471036" cy="483.5437920484742" r="2.5" fill="grey" stroke="none" />
<circle cx="535.8994757642301" cy="576.1005242357699" r="5" fill="black" stroke="none" />
<circle cx="639.8994757642301" cy="472.10052423576985" r="5" fill="black" stroke="none" />
<path d="M535.8994757642301,576.1005242357699 A84.1431051786511,84.1431051786511,0,0,0,571.8095290916024,543.8571964533514" stroke="grey" stroke-width="5" fill="none" />
<path d="M571.8095290916024,543.8571964533514 L663.8994757642301,600.1005242357699" stroke="grey" stroke-width="5" />
<circle cx="571.8095290916024" cy="543.8571964533514" r="2.5" fill="grey" stroke="none" />
<circle cx="535.8994757642301" cy="576.1005242357699" r="5" fill="black" stroke="none" />
<circle cx="663.8994757642301" cy="600.1005242357699" r="5" fill="black" stroke="none" />
<path d="M663.8994757642301,600.1005242357699 A192.04987140861462,192.04987140861462,0,0,0,678.474443256684,570.9226777010153" stroke="grey" stroke-width="5" fill="none" />
<path d="M678.474443256684,570.9226777010153 L751.8994757642301,600.1005242357699" stroke="grey" stroke-width="5" />
<circle cx="678.474443256684" cy="570.9226777010153" r="2.5" fill="grey" stroke="none" />
<circle cx="663.8994757642301" cy="600.1005242357699" r="5" fill="black" stroke="none" />
<circle cx="751.8994757642301" cy="600.1005242357699" r="5" fill="black" stroke="none" />
<path d="M535.8994757642301,632.1005242357699 A136.89163912931923,136.89163912931923,0,0,0,553.3433449038788,626.0706485189062" stroke="grey" stroke-width="5" fill="none" />
<path d="M553.3433449038787,626.0706485189063 L599.8994757642301,736.1005242357699" stroke="grey" stroke-width="5" />
<circle cx="553.3433449038787" cy="626.0706485189063" r="2.5" fill="grey" stroke="none" />
<circle cx="535.8994757642301" cy="632.1005242357699" r="5" fill="black" stroke="none" />
<circle cx="599.8994757642301" cy="736.1005242357699" r="5" fill="black" stroke="none" />
<circle cx="500" cy="500" r="5" fill="red" stroke="none" />
</svg>