<?xml version="1.0" encoding="UTF-8"?>
<svg xmlns="http://www.w3.org/2000/svg" xmlns:xlink="http://www.w3.org/1999/xlink"
     width="1000" height="1000" viewBox="0 0 1000 1000">
<defs>
</defs>
<rect x="0" y="0" width="1000" height="1000" fill="white" />
<path d="M323.0661426615952,797.4889762230675 L385.07801349555666,693.2248842873515" stroke="grey" stroke-width="5" />
<circle cx="385.07801349555666" cy="693.2248842873515" r="2.5" fill="grey" stroke="none" />
<path d="M385.07801349555666,693.2248842873515 A224.81752353850854,224.81752353850854,0,0,0,443.0661426615952,717.4889762230675" stroke="grey" stroke-width="5" fill="none" />
<circle cx="323.0661426615952" cy="797.4889762230675" r="5" fill="black" stroke="none" />
<circle cx="443.0661426615952" cy="717.4889762230675" r="5" fill="black" stroke="none" />
<path d="M443.0661426615952,717.4889762230675 L456.6365757582037,665.6495306091456" stroke="grey" stroke-width="5" />
<circle cx="456.6365757582037" cy="665.6495306091456" r="2.5" fill="grey" stroke="none" />
<path d="M456.6365757582038,665.6495306091456 A171.23128672355494,171.23128672355494,0,0,1,443.0661426615952,661.4889762230675" stroke="grey" stroke-width="5" fill="none" />
<circle cx="443.0661426615952" cy="717.4889762230675" r="5" fill="black" stroke="none" />
<circle cx="443.0661426615952" cy="661.4889762230675" r="5" fill="black" stroke="none" />
<path d="M443.0661426615952,661.4889762230675 A171.23128672355494,171.23128672355494,0,0,1,379.1298378415648,621.287086916942" stroke="grey" stroke-width="5" fill="none" />
<path d="M379.1298378415648,621.287086916942 L339.0661426615952,661.4889762230675" stroke="grey" stroke-width="5" />
<circle cx="379.1298378415648" cy="621.287086916942" r="2.5" fill="grey" stroke="none" />
<circle cx="443.0661426615952" cy="661.4889762230675" r="5" fill="black" stroke="none" />
<circle cx="339.0661426615952" cy="661.4889762230675" r="5" fill="black" stroke="none" />
<path d="M339.0661426615952,661.4889762230675 L405.47952618984533,594.8465089954603" stroke="grey" stroke-width="5" />
<circle cx="405.47952618984533" cy="594.8465089954603" r="2.5" fill="grey" stroke="none" />
<path d="M405.47952618984533,594.8465089954603 A133.9028761376023,133.9028761376023,0,0,1,379.06614266159517,557.4889762230674" stroke="grey" stroke-width="5" fill="none" />
<circle cx="339.0661426615952" cy="661.4889762230675" r="5" fill="black" stroke="none" />
<circle cx="379.0661426615952" cy="557.4889762230675" r="5" fill="black" stroke="none" />
<path d="M379.0661426615952,557.4889762230674 L471.287107255501,513.6494017855146" stroke="grey" stroke-width="5" />
<circle cx="471.287107255501" cy="513.6494017855146" r="2.5" fill="grey" stroke="none" />
<path d="M471.287107255501,513.6494017855146 A31.79208044245472,31.79208044245472,0,0,1,491.06614266159517,469.4889762230675" stroke="grey" stroke-width="5" fill="none" />
<circle cx="379.0661426615952" cy="557.4889762230675" r="5" fill="black" stroke="none" />
<circle cx="491.0661426615952" cy="469.4889762230675" r="5" fill="black" stroke="none" />
<path d="M491.06614266159517,469.4889762230675 A31.79208044245472,31.79208044245472,0,0,1,531.3595149744201,494.77341417093" stroke="grey" stroke-width="5" fill="none" />
<path d="M531.3595149744201,494.77341417093 L539.0661426615952,493.4889762230675" stroke="grey" stroke-width="5" />
<circle cx="531.3595149744201" cy="494.77341417093" r="2.5" fill="grey" stroke="none" />
<circle cx="491.0661426615952" cy="469.4889762230675" r="5" fill="black" stroke="none" />
<circle cx="539.0661426615952" cy="493.4889762230675" r="5" fill="black" stroke="none" />
<path d="M539.0661426615952,493.4889762230675 L491.0661426615952,501.4889762230675" stroke="grey" stroke-width="5" />
<circle cx="539.0661426615952" cy="493.4889762230675" r="5" fill="black" stroke="none" />
<circle cx="491.0661426615952" cy="501.4889762230675" r="5" fill="black" stroke="none" />
<path d="M491.0661426615952,469.4889762230675 L497.45487750661727,491.30786512820316" stroke="grey" stroke-width="5" />
<circle cx="497.45487750661727" cy="491.30786512820316" r="2.5" fill="grey" stroke="none" />
<path d="M497.45487750661727,491.30786512820316 A9.057088778179756,9.057088778179756,0,0,0,491.0661426615952,501.4889762230675" stroke="grey" stroke-width="5" fill="none" />
<circle cx="491.0661426615952" cy="469.4889762230675" r="5" fill="black" stroke="none" />
<circle cx="491.0661426615952" cy="501.4889762230675" r="5" fill="black" stroke="none" />
<path d="M491.0661426615952,501.4889762230675 A9.057088778179756,9.057088778179756,0,0,0,495.9387437642889,508.09549596527154" stroke="grey" stroke-width="5" fill="none" />
<path d="M495.9387437642889,508.09549596527154 L443.0661426615952,613.4889762230674" stroke="grey" stroke-width="5" />
<circle cx="495.9387437642889" cy="508.09549596527154" r="2.5" fill="grey" stroke="none" />
<circle cx="491.0661426615952" cy="501.4889762230675" r="5" fill="black" stroke="none" />
<circle cx="443.0661426615952" cy="613.4889762230675" r="5" fill="black" stroke="none" />
<path d="M379.0661426615952,557.4889762230674 L385.32814383527074,554.512175147626" stroke="grey" stroke-width="5" />
<circle cx="385.32814383527074" cy="554.512175147626" r="2.5" fill="grey" stroke="none" />
<path d="M385.32814383527074,554.512175147626 A126.969334233073,126.969334233073,0,0,0,443.06614266159517,613.4889762230674" stroke="grey" stroke-width="5" fill="none" />
<circle cx="379.0661426615952" cy="557.4889762230675" r="5" fill="black" stroke="none" />
<circle cx="443.0661426615952" cy="613.4889762230675" r="5" fill="black" stroke="none" />
<path d="M443.06614266159517,613.4889762230674 A126.969334233073,126.969334233073,0,0,0,457.7831008579135,619.7453350340493" stroke="grey" stroke-width="5" fill="none" />
<path d="M457.7831008579135,619.7453350340493 L443.0661426615952,661.4889762230675" stroke="grey" stroke-width="5" />
<circle cx="457.7831008579135" cy="619.7453350340493" r="2.5" fill="grey" stroke="none" />
<circle cx="443.0661426615952" cy="613.4889762230675" r="5" fill="black" stroke="none" />
<circle cx="443.0661426615952" cy="661.4889762230675" r="5" fill="black" stroke="none" />
<path d="M539.0661426615952,493.4889762230675 A39.605011464206,39.605011464206,0,0,0,534.1366261461663,479.91897192779317" stroke="grey" stroke-width="5" fill="none" />
<path d="M534.1366261461663,479.91897192779317 L579.0661426615952,453.4889762230675" stroke="grey" stroke-width="5" />
<circle cx="534.1366261461663" cy="479.91897192779317" r="2.5" fill="grey" stroke="none" />
<circle cx="539.0661426615952" cy="493.4889762230675" r="5" fill="black" stroke="none" />
<circle cx="579.0661426615952" cy="453.4889762230675" r="5" fill="black" stroke="none" />
<path d="M539.0661426615952,493.4889762230675 A39.605011464206,39.605011464206,0,0,1,533.0502953181435,521.8228071627688" stroke="grey" stroke-width="5" fill="none" />
<path d="M533.0502953181435,521.8228071627688 L587.0661426615952,557.4889762230674" stroke="grey" stroke-width="5" />
<circle cx="533.0502953181435" cy="521.8228071627688" r="2.5" fill="grey" stroke="none" />
<circle cx="539.0661426615952" cy="493.4889762230675" r="5" fill="black" stroke="none" />
<circle cx="587.0661426615952" cy="557.4889762230675" r="5" fill="black" stroke="none" />
<path d="M491.0661426615952,501.4889762230675 A9.057088778179756,9.057088778179756,0,0,0,505.0905426476635,507.4911436168417" stroke="grey" stroke-width="5" fill="none" />
<path d="M505.0905426476635,507.4911436168417 L539.0661426615952,557.4889762230674" stroke="grey" stroke-width="5" />
<circle cx="505.0905426476635" cy="507.4911436168417" r="2.5" fill="grey" stroke="none" />
<circle cx="491.0661426615952" cy="501.4889762230675" r="5" fill="black" stroke="none" />
<circle cx="539.0661426615952" cy="557.4889762230675" r="5" fill="black" stroke="none" />
<path d="M443.0661426615952,613.4889762230674 L448.95338829413294,601.7536484085626" stroke="grey" stroke-width="5" />
<circle cx="448.95338829413294" cy="601.7536484085626" r="2.5" fill="grey" stroke="none" />
<path d="M448.95338829413294,601.7536484085626 A113.84006997144259,113.84006997144259,0,0,0,491.06614266159517,613.4889762230674" stroke="grey" stroke-width="5" fill="none" />
<circle cx="443.0661426615952" cy="613.4889762230675" r="5" fill="black" stroke="none" />
<circle cx="491.0661426615952" cy="613.4889762230675" r="5" fill="black" stroke="none" />
<path d="M443.0661426615952,661.4889762230675 L444.75662444828913,656.6940407344299" stroke="grey" stroke-width="5" />
<circle cx="444.75662444828913" cy="656.6940407344299" r="2.5" fill="grey" stroke="none" />
<path d="M444.75662444828913,656.6940407344299 A166.14708226156293,166.14708226156293,0,0,0,539.0661426615952,661.4889762230674" stroke="grey" stroke-width="5" fill="none" />
<circle cx="443.0661426615952" cy="661.4889762230675" r="5" fill="black" stroke="none" />
<circle cx="539.0661426615952" cy="661.4889762230675" r="5" fill="black" stroke="none" />
<path d="M443.0661426615952,717.4889762230675 L444.04057805906893,713.7666049153866" stroke="grey" stroke-width="5" />
<circle cx="444.04057805906893" cy="713.7666049153866" r="2.5" fill="grey" stroke="none" />
<path d="M444.04057805906893,713.7666049153866 A220.969722543642,220.969722543642,0,0,0,539.0661426615952,717.4889762230675" stroke="grey" stroke-width="5" fill="none" />
<circle cx="443.0661426615952" cy="717.4889762230675" r="5" fill="black" stroke="none" />
<circle cx="539.0661426615952" cy="717.4889762230675" r="5" fill="black" stroke="none" />
<path d="M587.0661426615952,557.4889762230674 L558.0029760677805,538.2988336234016" stroke="grey" stroke-width="5" />
<circle cx="558.0029760677805" cy="538.2988336234016" r="2.5" fill="grey" stroke="none" />
<path d="M558.0029760677805,538.2988336234016 A69.50644495032475,69.50644495032475,0,0,1,539.0661426615952,557.4889762230674" stroke="grey" stroke-width="5" fill="none" />
<circle cx="587.0661426615952" cy="557.4889762230675" r="5" fill="black" stroke="none" />
<circle cx="539.0661426615952" cy="557.4889762230675" r="5" fill="black" stroke="none" />
<path d="M539.0661426615952,557.4889762230674 A69.50644495032475,69.50644495032475,0,0,1,494.5453243006468,569.2920803746533" stroke="grey" stroke-width="5" fill="none" />
<path d="M494.5453243006469,569.2920803746533 L491.0661426615952,613.4889762230674" stroke="grey" stroke-width="5" />
<circle cx="494.5453243006469" cy="569.2920803746533" r="2.5" fill="grey" stroke="none" />
<circle cx="539.0661426615952" cy="557.4889762230675" r="5" fill="black" stroke="none" />
<circle cx="491.0661426615952" cy="613.4889762230675" r="5" fill="black" stroke="none" />
<path d="M491.06614266159517,613.4889762230674 A113.84006997144259,113.84006997144259,0,0,0,526.7672014071787,610.6484453570428" stroke="grey" stroke-width="5" fill="none" />
<path d="M526.7672014071787,610.6484453570428 L539.0661426615952,661.4889762230675" stroke="grey" stroke-width="5" />
<circle cx="526.7672014071787" cy="610.6484453570428" r="2.5" fill="grey" stroke="none" />
<circle cx="491.0661426615952" cy="613.4889762230675" r="5" fill="black" stroke="none" />
<circle cx="539.0661426615952" cy="661.4889762230675" r="5" fill="black" stroke="none" />
<path d="M539.0661426615952,661.4889762230674 A166.14708226156293,166.14708226156293,0,0,1,529.3738234529216,663.5299099241089" stroke="grey" stroke-width="5" fill="none" />
<path d="M529.3738234529216,663.5299099241089 L539.0661426615952,717.4889762230675" stroke="grey" stroke-width="5" />
<circle cx="529.3738234529216" cy="663.5299099241089" r="2.5" fill="grey" stroke="none" />
<circle cx="539.0661426615952" cy="661.4889762230675" r="5" fill="black" stroke="none" />
<circle cx="539.0661426615952" cy="717.4889762230675" r="5" fill="black" stroke="none" />
<path d="M539.0661426615952,717.4889762230675 A220.969722543642,220.969722543642,0,0,0,577.2872744114738,707.0127906556976" stroke="grey" stroke-width="5" fill="none" />
<path d="M577.2872744114738,707.0127906556976 L611.0661426615952,797.4889762230675" stroke="grey" stroke-width="5" />
<circle cx="577.2872744114738" cy="707.0127906556976" r="2.5" fill="grey" stroke="none" />
<circle cx="539.0661426615952" cy="717.4889762230675" r="5" fill="black" stroke="none" />
<circle cx="611.0661426615952" cy="797.4889762230675" r="5" fill="black" stroke="none" />
<path d="M587.0661426615952,557.4889762230674 L585.9888814251626,556.7776704994636" stroke="grey" stroke-width="5" />
<circle cx="585.9888814251626" cy="556.7776704994636" r="2.5" fill="grey" stroke="none" />
<path d="M585.9888814251626,556.7776704994636 A103.04266881295501,103.04266881295501,0,0,1,563.0661426615952,581.4889762230674" stroke="grey" stroke-width="5" fill="none" />
<circle cx="587.0661426615952" cy="557.4889762230675" r="5" fill="black" stroke="none" />
<circle cx="563.0661426615952" cy="581.4889762230675" r="5" fill="black" stroke="none" />
<path d="M563.0661426615952,581.4889762230674 A103.04266881295501,103.04266881295501,0,0,1,533.5387801746753,597.4317290234097" stroke="grey" stroke-width="5" fill="none" />
<path d="M533.5387801746753,597.4317290234097 L539.0661426615952,613.4889762230674" stroke="grey" stroke-width="5" />
<circle cx="533.5387801746753" cy="597.4317290234097" r="2.5" fill="grey" stroke="none" />
<circle cx="563.0661426615952" cy="581.4889762230675" r="5" fill="black" stroke="none" />
<circle cx="539.0661426615952" cy="613.4889762230675" r="5" fill="black" stroke="none" />
<path d="M539.0661426615952,613.4889762230674 A120.0246275837425,120.0246275837425,0,0,1,528.2213756646635,616.6596124723977" stroke="grey" stroke-width="5" fill="none" />
<path d="M528.2213756646635,616.6596124723977 L539.0661426615952,661.4889762230675" stroke="grey" stroke-width="5" />
<circle cx="528.2213756646635" cy="616.6596124723977" r="2.5" fill="grey" stroke="none" />
<circle cx="539.0661426615952" cy="613.4889762230675" r="5" fill="black" stroke="none" />
<circle cx="539.0661426615952" cy="661.4889762230675" r="5" fill="black" stroke="none" />
<path d="M539.0661426615952,557.4889762230674 A69.50644495032475,69.50644495032475,0,0,0,542.5406622677302,554.9676081292923" stroke="grey" stroke-width="5" fill="none" />
<path d="M542.5406622677302,554.9676081292923 L563.0661426615952,581.4889762230674" stroke="grey" stroke-width="5" />
<circle cx="542.5406622677302" cy="554.9676081292923" r="2.5" fill="grey" stroke="none" />
<circle cx="539.0661426615952" cy="557.4889762230675" r="5" fill="black" stroke="none" />
<circle cx="563.0661426615952" cy="581.4889762230675" r="5" fill="black" stroke="none" />
<path d="M491.06614266159517,613.4889762230674 A113.84006997144259,113.84006997144259,0,0,0,537.0531657014093,607.6411837662837" stroke="grey" stroke-width="5" fill="none" />
<path d="M537.0531657014093,607.6411837662837 L539.0661426615952,613.4889762230674" stroke="grey" stroke-width="5" />
<circle cx="537.0531657014093" cy="607.6411837662837" r="2.5" fill="grey" stroke="none" />
<circle cx="491.0661426615952" cy="613.4889762230675" r="5" fill="black" stroke="none" />
<circle cx="539.0661426615952" cy="613.4889762230675" r="5" fill="black" stroke="none" />
<path d="M587.0661426615952,557.4889762230674 A104.33357841627816,104.33357841627816,0,0,1,563.5064480653703,582.7793853520675" stroke="grey" stroke-width="5" fill="none" />
<path d="M563.5064480653703,582.7793853520675 L587.0661426615952,613.4889762230674" stroke="grey" stroke-width="5" />
<circle cx="563.5064480653703" cy="582.7793853520675" r="2.5" fill="grey" stroke="none" />
<circle cx="587.0661426615952" cy="557.4889762230675" r="5" fill="black" stroke="none" />
<circle cx="587.0661426615952" cy="613.4889762230675" r="5" fill="black" stroke="none" />
<path d="M563.0661426615952,581.4889762230674 A103.04266881295501,103.04266881295501,0,0,1,562.7206887257123,581.7551637627167" stroke="grey" stroke-width="5" fill="none" />
<path d="M562.7206887257123,581.7551637627168 L587.0661426615952,613.4889762230674" stroke="grey" stroke-width="5" />
<circle cx="562.7206887257123" cy="581.7551637627168" r="2.5" fill="grey" stroke="none" />
<circle cx="563.0661426615952" cy="581.4889762230675" r="5" fill="black" stroke="none" />
<circle cx="587.0661426615952" cy="613.4889762230675" r="5" fill="black" stroke="none" />
<path d="M539.0661426615952,613.4889762230674 A120.0246275837425,120.0246275837425,0,0,0,573.0573789753493,595.2288328389479" stroke="grey" stroke-width="5" fill="none" />
<path d="M573.0573789753493,595.2288328389479 L587.0661426615952,613.4889762230674" stroke="grey" stroke-width="5" />
<circle cx="573.0573789753493" cy="595.2288328389479" r="2.5" fill="grey" stroke="none" />
<circle cx="539.0661426615952" cy="613.4889762230675" r="5" fill="black" stroke="none" />
<circle cx="587.0661426615952" cy="613.4889762230675" r="5" fill="black" stroke="none" />
<path d="M539.0661426615952,661.4889762230675 L533.6328288009777,639.0291111565249" stroke="grey" stroke-width="5" />
<circle cx="533.6328288009777" cy="639.0291111565249" r="2.5" fill="grey" stroke="none" />
<path d="M533.6328288009777,639.0291111565249 A143.0393684344601,143.0393684344601,0,0,0,587.0661426615952,613.4889762230674" stroke="grey" stroke-width="5" fill="none" />
<circle cx="539.0661426615952" cy="661.4889762230675" r="5" fill="black" stroke="none" />
<circle cx="587.0661426615952" cy="613.4889762230675" r="5" fill="black" stroke="none" />
<path d="M587.0661426615952,613.4889762230674 A143.0393684344601,143.0393684344601,0,0,1,560.778384748781,629.4845506979823" stroke="grey" stroke-width="5" fill="none" />
<path d="M560.778384748781,629.4845506979824 L587.0661426615952,685.4889762230675" stroke="grey" stroke-width="5" />
<circle cx="560.778384748781" cy="629.4845506979824" r="2.5" fill="grey" stroke="none" />
<circle cx="587.0661426615952" cy="613.4889762230675" r="5" fill="black" stroke="none" />
<circle cx="587.0661426615952" cy="685.4889762230675" r="5" fill="black" stroke="none" />
<path d="M587.0661426615952,685.4889762230674 A204.90649940460878,204.90649940460878,0,0,1,536.2262596245398,701.6787832466925" stroke="grey" stroke-width="5" fill="none" />
<path d="M536.2262596245398,701.6787832466925 L539.0661426615952,717.4889762230675" stroke="grey" stroke-width="5" />
<circle cx="536.2262596245398" cy="701.6787832466925" r="2.5" fill="grey" stroke="none" />
<circle cx="587.0661426615952" cy="685.4889762230675" r="5" fill="black" stroke="none" />
<circle cx="539.0661426615952" cy="717.4889762230675" r="5" fill="black" stroke="none" />
<path d="M587.0661426615952,557.4889762230674 A104.33357841627816,104.33357841627816,0,0,0,601.3732339112145,475.32282367190555" stroke="grey" stroke-width="5" fill="none" />
<path d="M601.3732339112145,475.32282367190555 L691.0661426615952,453.4889762230675" stroke="grey" stroke-width="5" />
<circle cx="601.3732339112145" cy="475.32282367190555" r="2.5" fill="grey" stroke="none" />
<circle cx="587.0661426615952" cy="557.4889762230675" r="5" fill="black" stroke="none" />
<circle cx="691.0661426615952" cy="453.4889762230675" r="5" fill="black" stroke="none" />
<path d="M587.0661426615952,557.4889762230674 A104.33357841627816,104.33357841627816,0,0,0,597.5648448327728,536.9675078670801" stroke="grey" stroke-width="5" fill="none" />
<path d="M597.5648448327728,536.9675078670801 L715.0661426615952,581.4889762230674" stroke="grey" stroke-width="5" />
<circle cx="597.5648448327728" cy="536.9675078670801" r="2.5" fill="grey" stroke="none" />
<circle cx="587.0661426615952" cy="557.4889762230675" r="5" fill="black" stroke="none" />
<circle cx="715.0661426615952" cy="581.4889762230675" r="5" fill="black" stroke="none" />
<path d="M715.0661426615952,581.4889762230675 A229.98673649847998,229.98673649847998,0,0,0,722.0982606470263,559.7181846909871" stroke="grey" stroke-width="5" fill="none" />
<path d="M722.0982606470263,559.7181846909871 L803.0661426615952,581.4889762230674" stroke="grey" stroke-width="5" />
<circle cx="722.0982606470263" cy="559.7181846909871" r="2.5" fill="grey" stroke="none" />
<circle cx="715.0661426615952" cy="581.4889762230675" r="5" fill="black" stroke="none" />
<circle cx="803.0661426615952" cy="581.4889762230675" r="5" fill="black" stroke="none" />
<path d="M587.0661426615952,613.4889762230674 A143.0393684344601,143.0393684344601,0,0,1,581.6007653339162,617.4801090357357" stroke="grey" stroke-width="5" fill="none" />
<path d="M581.6007653339162,617.4801090357357 L651.0661426615952,717.4889762230675" stroke="grey" stroke-width="5" />
<circle cx="581.6007653339162" cy="617.4801090357357" r="2.5" fill="grey" stroke="none" />
<circle cx="587.0661426615952" cy="613.4889762230675" r="5" fill="black" stroke="none" />
<circle cx="651.0661426615952" cy="717.4889762230675" r="5" fill="black" stroke="none" />
<circle cx="500" cy="500" r="5" fill="red" stroke="none" />
</svg>