<?xml version="1.0" encoding="UTF-8"?>
<svg xmlns="http://www.w3.org/2000/svg" xmlns:xlink="http://www.w3.org/1999/xlink"
     width="1000" height="1000" viewBox="0 0 1000 1000">
<defs>
</defs>
<rect x="0" y="0" width="1000" height="1000" fill="white" />
<path d="M228.866403335043,672.4079054194449 L350.51616035530446,595.0534939388023" stroke="grey" stroke-width="5" />
<circle cx="350.51616035530446" cy="595.0534939388023" r="2.5" fill="grey" stroke="none" />
<path d="M350.51616035530446,595.0534939388023 A177.1456604743536,177.1456604743536,0,0,1,348.866403335043,592.4079054194449" stroke="grey" stroke-width="5" fill="none" />
<circle cx="228.866403335043" cy="672.4079054194449" r="5" fill="black" stroke="none" />
<circle cx="348.866403335043" cy="592.4079054194449" r="5" fill="black" stroke="none" />
<path d="M348.866403335043,592.4079054194449 L367.3702445237112,581.0940662454225" stroke="grey" stroke-width="5" />
<circle cx="367.3702445237112" cy="581.0940662454225" r="2.5" fill="grey" stroke="none" />
<path d="M367.3702445237112,581.0940662454225 A155.4570667995416,155.4570667995416,0,0,1,348.866403335043,536.4079054194448" stroke="grey" stroke-width="5" fill="none" />
<circle cx="348.866403335043" cy="592.4079054194449" r="5" fill="black" stroke="none" />
<circle cx="348.866403335043" cy="536.4079054194449" r="5" fill="black" stroke="none" />
<path d="M348.866403335043,536.4079054194448 A155.4570667995416,155.4570667995416,0,0,1,346.10200028562576,521.9614503581068" stroke="grey" stroke-width="5" fill="none" />
<path d="M346.10200028562576,521.9614503581068 L244.866403335043,536.4079054194449" stroke="grey" stroke-width="5" />
<circle cx="346.10200028562576" cy="521.9614503581068" r="2.5" fill="grey" stroke="none" />
<circle cx="348.866403335043" cy="536.4079054194449" r="5" fill="black" stroke="none" />
<circle cx="244.866403335043" cy="536.4079054194449" r="5" fill="black" stroke="none" />
<path d="M244.866403335043,536.4079054194449 L276.759534353071,531.8567129743387" stroke="grey" stroke-width="5" />
<circle cx="276.759534353071" cy="531.8567129743387" r="2.5" fill="grey" stroke="none" />
<path d="M276.759534353071,531.8567129743387 A225.50200811475517,225.50200811475517,0,0,1,284.86640333504295,432.4079054194449" stroke="grey" stroke-width="5" fill="none" />
<circle cx="244.866403335043" cy="536.4079054194449" r="5" fill="black" stroke="none" />
<circle cx="284.866403335043" cy="432.40790541944483" r="5" fill="black" stroke="none" />
<path d="M284.866403335043,432.40790541944483 L321.91358460705874,444.04763356651273" stroke="grey" stroke-width="5" />
<circle cx="321.91358460705874" cy="444.04763356651273" r="2.5" fill="grey" stroke="none" />
<path d="M321.91358460705874,444.04763356651284 A186.66932971705464,186.66932971705464,0,0,1,396.86640333504295,344.4079054194449" stroke="grey" stroke-width="5" fill="none" />
<circle cx="284.866403335043" cy="432.40790541944483" r="5" fill="black" stroke="none" />
<circle cx="396.866403335043" cy="344.40790541944483" r="5" fill="black" stroke="none" />
<path d="M396.866403335043,344.40790541944483 L421.1729137504427,381.0778266650126" stroke="grey" stroke-width="5" />
<circle cx="421.1729137504427" cy="381.0778266650126" r="2.5" fill="grey" stroke="none" />
<path d="M421.17291375044266,381.07782666501265 A142.6751304093041,142.6751304093041,0,0,1,444.866403335043,368.40790541944483" stroke="grey" stroke-width="5" fill="none" />
<circle cx="396.866403335043" cy="344.40790541944483" r="5" fill="black" stroke="none" />
<circle cx="444.866403335043" cy="368.40790541944483" r="5" fill="black" stroke="none" />
<path d="M444.866403335043,368.40790541944483 A142.6751304093041,142.6751304093041,0,0,0,408.58829897398925,390.45506057857733" stroke="grey" stroke-width="5" fill="none" />
<path d="M408.58829897398925,390.45506057857733 L396.866403335043,376.40790541944483" stroke="grey" stroke-width="5" />
<circle cx="408.58829897398925" cy="390.45506057857733" r="2.5" fill="grey" stroke="none" />
<circle cx="444.866403335043" cy="368.40790541944483" r="5" fill="black" stroke="none" />
<circle cx="396.866403335043" cy="376.40790541944483" r="5" fill="black" stroke="none" />
<path d="M396.866403335043,344.40790541944483 L411.0647671109156,365.82821103218737" stroke="grey" stroke-width="5" />
<circle cx="411.0647671109156" cy="365.82821103218737" r="2.5" fill="grey" stroke="none" />
<path d="M411.06476711091557,365.8282110321874 A160.9706327373379,160.9706327373379,0,0,0,396.866403335043,376.40790541944483" stroke="grey" stroke-width="5" fill="none" />
<circle cx="396.866403335043" cy="344.40790541944483" r="5" fill="black" stroke="none" />
<circle cx="396.866403335043" cy="376.40790541944483" r="5" fill="black" stroke="none" />
<path d="M396.866403335043,376.40790541944483 L402.88456205855016,383.61987965682954" stroke="grey" stroke-width="5" />
<circle cx="402.88456205855016" cy="383.61987965682954" r="2.5" fill="grey" stroke="none" />
<path d="M402.88456205855016,383.61987965682954 A151.57750722864668,151.57750722864668,0,0,0,348.866403335043,488.4079054194448" stroke="grey" stroke-width="5" fill="none" />
<circle cx="396.866403335043" cy="376.40790541944483" r="5" fill="black" stroke="none" />
<circle cx="348.866403335043" cy="488.40790541944483" r="5" fill="black" stroke="none" />
<path d="M284.866403335043,432.40790541944483 L355.39191168970547,454.5660755283842" stroke="grey" stroke-width="5" />
<circle cx="355.39191168970547" cy="454.5660755283842" r="2.5" fill="grey" stroke="none" />
<path d="M355.3919116897054,454.5660755283843 A151.57750722864668,151.57750722864668,0,0,0,348.866403335043,488.4079054194448" stroke="grey" stroke-width="5" fill="none" />
<circle cx="284.866403335043" cy="432.40790541944483" r="5" fill="black" stroke="none" />
<circle cx="348.866403335043" cy="488.40790541944483" r="5" fill="black" stroke="none" />
<path d="M348.866403335043,488.4079054194448 A151.57750722864668,151.57750722864668,0,0,0,352.6380671358361,535.4993160523986" stroke="grey" stroke-width="5" fill="none" />
<path d="M352.6380671358361,535.4993160523987 L348.866403335043,536.4079054194449" stroke="grey" stroke-width="5" />
<circle cx="352.6380671358361" cy="535.4993160523987" r="2.5" fill="grey" stroke="none" />
<circle cx="348.866403335043" cy="488.40790541944483" r="5" fill="black" stroke="none" />
<circle cx="348.866403335043" cy="536.4079054194449" r="5" fill="black" stroke="none" />
<path d="M444.866403335043,368.40790541944483 A142.6751304093041,142.6751304093041,0,0,1,487.4653954581843,357.87654477077956" stroke="grey" stroke-width="5" fill="none" />
<path d="M487.4653954581843,357.87654477077956 L484.866403335043,328.40790541944483" stroke="grey" stroke-width="5" />
<circle cx="487.4653954581843" cy="357.87654477077956" r="2.5" fill="grey" stroke="none" />
<circle cx="444.866403335043" cy="368.40790541944483" r="5" fill="black" stroke="none" />
<circle cx="484.866403335043" cy="328.40790541944483" r="5" fill="black" stroke="none" />
<path d="M444.866403335043,368.40790541944483 L473.7354921662092,437.31224139105194" stroke="grey" stroke-width="5" />
<circle cx="473.7354921662092" cy="437.31224139105194" r="2.5" fill="grey" stroke="none" />
<path d="M473.7354921662092,437.31224139105194 A67.96748819225999,67.96748819225999,0,0,1,492.866403335043,432.40790541944483" stroke="grey" stroke-width="5" fill="none" />
<circle cx="444.866403335043" cy="368.40790541944483" r="5" fill="black" stroke="none" />
<circle cx="492.866403335043" cy="432.40790541944483" r="5" fill="black" stroke="none" />
<path d="M396.866403335043,376.40790541944483 L444.11434880184845,433.0283737605289" stroke="grey" stroke-width="5" />
<circle cx="444.11434880184845" cy="433.0283737605289" r="2.5" fill="grey" stroke="none" />
<path d="M444.11434880184845,433.0283737605289 A87.22616998929205,87.22616998929205,0,0,1,444.866403335043,432.40790541944483" stroke="grey" stroke-width="5" fill="none" />
<circle cx="396.866403335043" cy="376.40790541944483" r="5" fill="black" stroke="none" />
<circle cx="444.866403335043" cy="432.40790541944483" r="5" fill="black" stroke="none" />
<path d="M348.866403335043,488.40790541944483 L396.5209185626163,492.0630533144107" stroke="grey" stroke-width="5" />
<circle cx="396.5209185626163" cy="492.0630533144107" r="2.5" fill="grey" stroke="none" />
<path d="M396.5209185626164,492.06305331441064 A103.7830208551214,103.7830208551214,0,0,1,396.866403335043,488.40790541944483" stroke="grey" stroke-width="5" fill="none" />
<circle cx="348.866403335043" cy="488.40790541944483" r="5" fill="black" stroke="none" />
<circle cx="396.866403335043" cy="488.40790541944483" r="5" fill="black" stroke="none" />
<path d="M348.866403335043,536.4079054194449 L435.76746497813696,515.4735420285899" stroke="grey" stroke-width="5" />
<circle cx="435.76746497813696" cy="515.4735420285899" r="2.5" fill="grey" stroke="none" />
<path d="M435.76746497813696,515.4735420285899 A66.07003146847592,66.07003146847592,0,0,0,444.866403335043,536.4079054194449" stroke="grey" stroke-width="5" fill="none" />
<circle cx="348.866403335043" cy="536.4079054194449" r="5" fill="black" stroke="none" />
<circle cx="444.866403335043" cy="536.4079054194449" r="5" fill="black" stroke="none" />
<path d="M348.866403335043,592.4079054194449 L408.195324931073,556.1323088845627" stroke="grey" stroke-width="5" />
<circle cx="408.195324931073" cy="556.1323088845627" r="2.5" fill="grey" stroke="none" />
<path d="M408.195324931073,556.1323088845627 A107.60545741375397,107.60545741375397,0,0,0,444.866403335043,592.4079054194449" stroke="grey" stroke-width="5" fill="none" />
<circle cx="348.866403335043" cy="592.4079054194449" r="5" fill="black" stroke="none" />
<circle cx="444.866403335043" cy="592.4079054194449" r="5" fill="black" stroke="none" />
<path d="M492.866403335043,432.40790541944483 A67.96748819225999,67.96748819225999,0,0,0,457.0393600821599,447.33157616735923" stroke="grey" stroke-width="5" fill="none" />
<path d="M457.0393600821599,447.33157616735923 L444.866403335043,432.40790541944483" stroke="grey" stroke-width="5" />
<circle cx="457.0393600821599" cy="447.33157616735923" r="2.5" fill="grey" stroke="none" />
<circle cx="492.866403335043" cy="432.40790541944483" r="5" fill="black" stroke="none" />
<circle cx="444.866403335043" cy="432.40790541944483" r="5" fill="black" stroke="none" />
<path d="M444.866403335043,432.40790541944483 A87.22616998929205,87.22616998929205,0,0,0,413.3196493975373,490.25723086412205" stroke="grey" stroke-width="5" fill="none" />
<path d="M413.3196493975373,490.25723086412205 L396.866403335043,488.40790541944483" stroke="grey" stroke-width="5" />
<circle cx="413.3196493975373" cy="490.25723086412205" r="2.5" fill="grey" stroke="none" />
<circle cx="444.866403335043" cy="432.40790541944483" r="5" fill="black" stroke="none" />
<circle cx="396.866403335043" cy="488.40790541944483" r="5" fill="black" stroke="none" />
<path d="M396.866403335043,488.40790541944483 L434.3434029866692,492.6202759621731" stroke="grey" stroke-width="5" />
<circle cx="434.3434029866692" cy="492.6202759621731" r="2.5" fill="grey" stroke="none" />
<path d="M434.3434029866692,492.6202759621731 A66.07003146847592,66.07003146847592,0,0,0,444.866403335043,536.4079054194449" stroke="grey" stroke-width="5" fill="none" />
<circle cx="396.866403335043" cy="488.40790541944483" r="5" fill="black" stroke="none" />
<circle cx="444.866403335043" cy="536.4079054194449" r="5" fill="black" stroke="none" />
<path d="M444.866403335043,536.4079054194449 A66.07003146847592,66.07003146847592,0,0,0,466.14782786882733,556.7386949113817" stroke="grey" stroke-width="5" fill="none" />
<path d="M466.14782786882733,556.7386949113817 L444.866403335043,592.4079054194449" stroke="grey" stroke-width="5" />
<circle cx="466.14782786882733" cy="556.7386949113817" r="2.5" fill="grey" stroke="none" />
<circle cx="444.866403335043" cy="536.4079054194449" r="5" fill="black" stroke="none" />
<circle cx="444.866403335043" cy="592.4079054194449" r="5" fill="black" stroke="none" />
<path d="M444.866403335043,592.4079054194449 A107.60545741375397,107.60545741375397,0,0,0,510.476863774641,607.0942098839654" stroke="grey" stroke-width="5" fill="none" />
<path d="M510.476863774641,607.0942098839654 L516.8664033350431,672.4079054194449" stroke="grey" stroke-width="5" />
<circle cx="510.476863774641" cy="607.0942098839654" r="2.5" fill="grey" stroke="none" />
<circle cx="444.866403335043" cy="592.4079054194449" r="5" fill="black" stroke="none" />
<circle cx="516.8664033350431" cy="672.4079054194449" r="5" fill="black" stroke="none" />
<path d="M492.866403335043,432.40790541944483 L494.37767612985994,446.7274833941971" stroke="grey" stroke-width="5" />
<circle cx="494.37767612985994" cy="446.7274833941971" r="2.5" fill="grey" stroke="none" />
<path d="M494.37767612985994,446.7274833941971 A53.56838201043866,53.56838201043866,0,0,0,468.866403335043,456.40790541944483" stroke="grey" stroke-width="5" fill="none" />
<circle cx="492.866403335043" cy="432.40790541944483" r="5" fill="black" stroke="none" />
<circle cx="468.866403335043" cy="456.40790541944483" r="5" fill="black" stroke="none" />
<path d="M468.866403335043,456.40790541944483 A53.56838201043866,53.56838201043866,0,0,0,447.5778020529304,488.97798958381287" stroke="grey" stroke-width="5" fill="none" />
<path d="M447.5778020529304,488.97798958381287 L444.866403335043,488.40790541944483" stroke="grey" stroke-width="5" />
<circle cx="447.5778020529304" cy="488.97798958381287" r="2.5" fill="grey" stroke="none" />
<circle cx="468.866403335043" cy="456.40790541944483" r="5" fill="black" stroke="none" />
<circle cx="444.866403335043" cy="488.40790541944483" r="5" fill="black" stroke="none" />
<path d="M444.866403335043,488.40790541944483 A56.339064049544646,56.339064049544646,0,0,0,452.98662396928285,531.0456536760476" stroke="grey" stroke-width="5" fill="none" />
<path d="M452.98662396928285,531.0456536760476 L444.866403335043,536.4079054194449" stroke="grey" stroke-width="5" />
<circle cx="452.98662396928285" cy="531.0456536760476" r="2.5" fill="grey" stroke="none" />
<circle cx="444.866403335043" cy="488.40790541944483" r="5" fill="black" stroke="none" />
<circle cx="444.866403335043" cy="536.4079054194449" r="5" fill="black" stroke="none" />
<path d="M444.866403335043,432.40790541944483 L466.14069415038597,458.48953193953867" stroke="grey" stroke-width="5" />
<circle cx="466.14069415038597" cy="458.48953193953867" r="2.5" fill="grey" stroke="none" />
<path d="M466.14069415038597,458.48953193953867 A53.56838201043866,53.56838201043866,0,0,1,468.866403335043,456.40790541944483" stroke="grey" stroke-width="5" fill="none" />
<circle cx="444.866403335043" cy="432.40790541944483" r="5" fill="black" stroke="none" />
<circle cx="468.866403335043" cy="456.40790541944483" r="5" fill="black" stroke="none" />
<path d="M396.866403335043,488.40790541944483 L444.013478695343,493.7071810623631" stroke="grey" stroke-width="5" />
<circle cx="444.013478695343" cy="493.7071810623631" r="2.5" fill="grey" stroke="none" />
<path d="M444.013478695343,493.7071810623631 A56.339064049544646,56.339064049544646,0,0,1,444.866403335043,488.40790541944483" stroke="grey" stroke-width="5" fill="none" />
<circle cx="396.866403335043" cy="488.40790541944483" r="5" fill="black" stroke="none" />
<circle cx="444.866403335043" cy="488.40790541944483" r="5" fill="black" stroke="none" />
<path d="M492.866403335043,432.40790541944483 L498.5714223402804,486.46397310829457" stroke="grey" stroke-width="5" />
<circle cx="498.5714223402804" cy="486.46397310829457" r="2.5" fill="grey" stroke="none" />
<path d="M498.5714223402804,486.46397310829457 A13.611203405387126,13.611203405387126,0,0,0,492.866403335043,488.40790541944483" stroke="grey" stroke-width="5" fill="none" />
<circle cx="492.866403335043" cy="432.40790541944483" r="5" fill="black" stroke="none" />
<circle cx="492.866403335043" cy="488.40790541944483" r="5" fill="black" stroke="none" />
<path d="M468.866403335043,456.40790541944483 L492.0892567398165,488.92367392975973" stroke="grey" stroke-width="5" />
<circle cx="492.0892567398165" cy="488.92367392975973" r="2.5" fill="grey" stroke="none" />
<path d="M492.0892567398165,488.9236739297598 A13.611203405387126,13.611203405387126,0,0,1,492.866403335043,488.40790541944483" stroke="grey" stroke-width="5" fill="none" />
<circle cx="468.866403335043" cy="456.40790541944483" r="5" fill="black" stroke="none" />
<circle cx="492.866403335043" cy="488.40790541944483" r="5" fill="black" stroke="none" />
<path d="M444.866403335043,488.40790541944483 L486.68003078614566,497.1994146531851" stroke="grey" stroke-width="5" />
<circle cx="486.68003078614566" cy="497.1994146531851" r="2.5" fill="grey" stroke="none" />
<path d="M486.68003078614566,497.1994146531851 A13.611203405387126,13.611203405387126,0,0,1,492.866403335043,488.40790541944483" stroke="grey" stroke-width="5" fill="none" />
<circle cx="444.866403335043" cy="488.40790541944483" r="5" fill="black" stroke="none" />
<circle cx="492.866403335043" cy="488.40790541944483" r="5" fill="black" stroke="none" />
<path d="M444.866403335043,536.4079054194449 L488.64183076656536,507.5004566399307" stroke="grey" stroke-width="5" />
<circle cx="488.64183076656536" cy="507.5004566399307" r="2.5" fill="grey" stroke="none" />
<path d="M488.64183076656536,507.5004566399307 A13.611203405387126,13.611203405387126,0,0,1,492.866403335043,488.40790541944483" stroke="grey" stroke-width="5" fill="none" />
<circle cx="444.866403335043" cy="536.4079054194449" r="5" fill="black" stroke="none" />
<circle cx="492.866403335043" cy="488.40790541944483" r="5" fill="black" stroke="none" />
<path d="M492.866403335043,488.40790541944483 A13.611203405387126,13.611203405387126,0,0,0,498.4037385605379,513.5172781120945" stroke="grey" stroke-width="5" fill="none" />
<path d="M498.4037385605379,513.5172781120945 L492.866403335043,560.4079054194449" stroke="grey" stroke-width="5" />
<circle cx="498.4037385605379" cy="513.5172781120945" r="2.5" fill="grey" stroke="none" />
<circle cx="492.866403335043" cy="488.40790541944483" r="5" fill="black" stroke="none" />
<circle cx="492.866403335043" cy="560.4079054194449" r="5" fill="black" stroke="none" />
<path d="M492.866403335043,560.4079054194449 A60.827651923634846,60.827651923634846,0,0,1,468.8338555698066,552.2367177366573" stroke="grey" stroke-width="5" fill="none" />
<path d="M468.8338555698066,552.2367177366573 L444.866403335043,592.4079054194449" stroke="grey" stroke-width="5" />
<circle cx="468.8338555698066" cy="552.2367177366573" r="2.5" fill="grey" stroke="none" />
<circle cx="492.866403335043" cy="560.4079054194449" r="5" fill="black" stroke="none" />
<circle cx="444.866403335043" cy="592.4079054194449" r="5" fill="black" stroke="none" />
<path d="M492.866403335043,432.40790541944483 A67.96748819225999,67.96748819225999,0,0,1,533.4124078106922,440.81224404104347" stroke="grey" stroke-width="5" fill="none" />
<path d="M533.4124078106922,440.81224404104347 L596.8664033350431,328.40790541944483" stroke="grey" stroke-width="5" />
<circle cx="533.4124078106922" cy="440.81224404104347" r="2.5" fill="grey" stroke="none" />
<circle cx="492.866403335043" cy="432.40790541944483" r="5" fill="black" stroke="none" />
<circle cx="596.8664033350431" cy="328.40790541944483" r="5" fill="black" stroke="none" />
<path d="M492.866403335043,432.40790541944483 A67.96748819225999,67.96748819225999,0,0,1,563.9362242957968,476.94054046681566" stroke="grey" stroke-width="5" fill="none" />
<path d="M563.9362242957968,476.94054046681566 L620.8664033350431,456.40790541944483" stroke="grey" stroke-width="5" />
<circle cx="563.9362242957968" cy="476.94054046681566" r="2.5" fill="grey" stroke="none" />
<circle cx="492.866403335043" cy="432.40790541944483" r="5" fill="black" stroke="none" />
<circle cx="620.8664033350431" cy="456.40790541944483" r="5" fill="black" stroke="none" />
<path d="M620.866403335043,456.40790541944483 A128.48719066533192,128.48719066533192,0,0,1,625.777025895311,473.7493253039158" stroke="grey" stroke-width="5" fill="none" />
<path d="M625.777025895311,473.7493253039158 L708.8664033350431,456.40790541944483" stroke="grey" stroke-width="5" />
<circle cx="625.777025895311" cy="473.7493253039158" r="2.5" fill="grey" stroke="none" />
<circle cx="620.8664033350431" cy="456.40790541944483" r="5" fill="black" stroke="none" />
<circle cx="708.8664033350431" cy="456.40790541944483" r="5" fill="black" stroke="none" />
<path d="M492.866403335043,488.40790541944483 L556.8664033350431,592.4079054194449" stroke="grey" stroke-width="5" />
<circle cx="492.866403335043" cy="488.40790541944483" r="5" fill="black" stroke="none" />
<circle cx="556.8664033350431" cy="592.4079054194449" r="5" fill="black" stroke="none" />
<circle cx="500" cy="500" r="5" fill="red" stroke="none" />
</svg>