<?xml version="1.0" encoding="UTF-8"?>
<svg xmlns="http://www.w3.org/2000/svg" xmlns:xlink="http://www.w3.org/1999/xlink"
     width="1000" height="1000" viewBox="0 0 1000 1000">
<defs>
</defs>
<rect x="0" y="0" width="1000" height="1000" fill="white" />
<path d="M357.5742524932118,736.3267441825058 L418.48233134290274,635.2620966666291" stroke="grey" stroke-width="5" />
<circle cx="418.48233134290274" cy="635.2620966666291" r="2.5" fill="grey" stroke="none" />
<path d="M418.48233134290274,635.2620966666291 A157.9270879169904,157.9270879169904,0,0,0,477.5742524932118,656.3267441825058" stroke="grey" stroke-width="5" fill="none" />
<circle cx="357.5742524932118" cy="736.3267441825058" r="5" fill="black" stroke="none" />
<circle cx="477.5742524932118" cy="656.3267441825058" r="5" fill="black" stroke="none" />
<path d="M477.5742524932118,656.3267441825058 L485.4019683664057,601.760833437648" stroke="grey" stroke-width="5" />
<circle cx="485.4019683664057" cy="601.760833437648" r="2.5" fill="grey" stroke="none" />
<path d="M485.4019683664057,601.760833437648 A102.8025765703378,102.8025765703378,0,0,1,477.5742524932118,600.3267441825058" stroke="grey" stroke-width="5" fill="none" />
<circle cx="477.5742524932118" cy="656.3267441825058" r="5" fill="black" stroke="none" />
<circle cx="477.5742524932118" cy="600.3267441825058" r="5" fill="black" stroke="none" />
<path d="M477.5742524932118,600.3267441825058 A102.8025765703378,102.8025765703378,0,0,1,419.47242422155847,563.903671950425" stroke="grey" stroke-width="5" fill="none" />
<path d="M419.47242422155847,563.903671950425 L-126.42574750678818,100.32674418250576" stroke="grey" stroke-width="5" />
<circle cx="419.47242422155847" cy="563.903671950425" r="2.5" fill="grey" stroke="none" />
<circle cx="477.5742524932118" cy="600.3267441825058" r="5" fill="black" stroke="none" />
<circle cx="373.5742524932118" cy="600.3267441825058" r="5" fill="black" stroke="none" />
<path d="M373.5742524932118,600.3267441825058 L432.2396449591842,553.7720831393991" stroke="grey" stroke-width="5" />
<circle cx="432.2396449591842" cy="553.7720831393991" r="2.5" fill="grey" stroke="none" />
<path d="M432.2396449591842,553.7720831393991 A86.50377240564633,86.50377240564633,0,0,1,413.5742524932118,496.3267441825057" stroke="grey" stroke-width="5" fill="none" />
<circle cx="373.5742524932118" cy="600.3267441825058" r="5" fill="black" stroke="none" />
<circle cx="413.5742524932118" cy="496.32674418250576" r="5" fill="black" stroke="none" />
<path d="M413.5742524932118,496.3267441825057 A86.50377240564633,86.50377240564633,0,0,1,523.2445509785,416.67777313216016" stroke="grey" stroke-width="5" fill="none" />
<path d="M523.2445509785,416.67777313216016 L25.574252493211816,-91.67325581749424" stroke="grey" stroke-width="5" />
<circle cx="523.2445509785" cy="416.67777313216016" r="2.5" fill="grey" stroke="none" />
<circle cx="413.5742524932118" cy="496.32674418250576" r="5" fill="black" stroke="none" />
<circle cx="525.5742524932118" cy="408.32674418250576" r="5" fill="black" stroke="none" />
<path d="M525.5742524932118,408.32674418250576 A95.17367400056746,95.17367400056746,0,0,1,570.0484003932997,435.5698065724908" stroke="grey" stroke-width="5" fill="none" />
<path d="M570.0484003932997,435.5698065724908 L73.57425249321182,-67.67325581749424" stroke="grey" stroke-width="5" />
<circle cx="570.0484003932997" cy="435.5698065724908" r="2.5" fill="grey" stroke="none" />
<circle cx="525.5742524932118" cy="408.32674418250576" r="5" fill="black" stroke="none" />
<circle cx="573.5742524932118" cy="432.32674418250576" r="5" fill="black" stroke="none" />
<path d="M573.5742524932118,432.32674418250576 L547.7834032733223,456.04904754085845" stroke="grey" stroke-width="5" />
<circle cx="547.7834032733223" cy="456.04904754085845" r="2.5" fill="grey" stroke="none" />
<path d="M547.7834032733223,456.04904754085845 A64.92256811345852,64.92256811345852,0,0,0,525.5742524932118,440.32674418250576" stroke="grey" stroke-width="5" fill="none" />
<circle cx="573.5742524932118" cy="432.32674418250576" r="5" fill="black" stroke="none" />
<circle cx="525.5742524932118" cy="440.32674418250576" r="5" fill="black" stroke="none" />
<path d="M525.5742524932118,408.32674418250576 L517.4454350625514,437.4652365006074" stroke="grey" stroke-width="5" />
<circle cx="517.4454350625514" cy="437.4652365006074" r="2.5" fill="grey" stroke="none" />
<path d="M517.4454350625514,437.4652365006074 A64.92256811345852,64.92256811345852,0,0,1,525.5742524932118,440.32674418250576" stroke="grey" stroke-width="5" fill="none" />
<circle cx="525.5742524932118" cy="408.32674418250576" r="5" fill="black" stroke="none" />
<circle cx="525.5742524932118" cy="440.32674418250576" r="5" fill="black" stroke="none" />
<path d="M525.5742524932118,440.32674418250576 L477.5742524932118,552.3267441825058" stroke="grey" stroke-width="5" />
<circle cx="525.5742524932118" cy="440.32674418250576" r="5" fill="black" stroke="none" />
<circle cx="477.5742524932118" cy="552.3267441825058" r="5" fill="black" stroke="none" />
<path d="M413.5742524932118,496.32674418250576 L443.12154811094763,497.5825594765597" stroke="grey" stroke-width="5" />
<circle cx="443.12154811094763" cy="497.5825594765597" r="2.5" fill="grey" stroke="none" />
<path d="M443.12154811094763,497.5825594765597 A56.92980158036402,56.92980158036402,0,0,0,477.5742524932118,552.3267441825058" stroke="grey" stroke-width="5" fill="none" />
<circle cx="413.5742524932118" cy="496.32674418250576" r="5" fill="black" stroke="none" />
<circle cx="477.5742524932118" cy="552.3267441825058" r="5" fill="black" stroke="none" />
<path d="M477.5742524932118,552.3267441825058 A56.92980158036402,56.92980158036402,0,0,0,487.5811151972511,555.5587401606234" stroke="grey" stroke-width="5" fill="none" />
<path d="M487.5811151972511,555.5587401606234 L-22.425747506788184,100.32674418250576" stroke="grey" stroke-width="5" />
<circle cx="487.5811151972511" cy="555.5587401606234" r="2.5" fill="grey" stroke="none" />
<circle cx="477.5742524932118" cy="552.3267441825058" r="5" fill="black" stroke="none" />
<circle cx="477.5742524932118" cy="600.3267441825058" r="5" fill="black" stroke="none" />
<path d="M573.5742524932118,432.32674418250576 A99.96419450420687,99.96419450420687,0,0,0,572.5448439580999,431.2243807881759" stroke="grey" stroke-width="5" fill="none" />
<path d="M572.5448439580999,431.2243807881759 L113.57425249321182,-107.67325581749424" stroke="grey" stroke-width="5" />
<circle cx="572.5448439580999" cy="431.2243807881759" r="2.5" fill="grey" stroke="none" />
<circle cx="573.5742524932118" cy="432.32674418250576" r="5" fill="black" stroke="none" />
<circle cx="613.5742524932118" cy="392.32674418250576" r="5" fill="black" stroke="none" />
<path d="M573.5742524932118,432.32674418250576 A99.96419450420687,99.96419450420687,0,0,1,599.9185974919995,496.98105016492826" stroke="grey" stroke-width="5" fill="none" />
<path d="M599.9185974919995,496.98105016492826 L121.57425249321182,-3.673255817494237" stroke="grey" stroke-width="5" />
<circle cx="599.9185974919995" cy="496.98105016492826" r="2.5" fill="grey" stroke="none" />
<circle cx="573.5742524932118" cy="432.32674418250576" r="5" fill="black" stroke="none" />
<circle cx="621.5742524932118" cy="496.32674418250576" r="5" fill="black" stroke="none" />
<path d="M525.5742524932118,440.32674418250576 A64.92256811345852,64.92256811345852,0,0,1,564.841806429416,496.7627188233321" stroke="grey" stroke-width="5" fill="none" />
<path d="M564.841806429416,496.7627188233321 L73.57425249321182,-3.673255817494237" stroke="grey" stroke-width="5" />
<circle cx="564.841806429416" cy="496.7627188233321" r="2.5" fill="grey" stroke="none" />
<circle cx="525.5742524932118" cy="440.32674418250576" r="5" fill="black" stroke="none" />
<circle cx="573.5742524932118" cy="496.32674418250576" r="5" fill="black" stroke="none" />
<path d="M477.5742524932118,552.3267441825058 A56.92980158036402,56.92980158036402,0,0,0,524.9980619412552,551.1478172277252" stroke="grey" stroke-width="5" fill="none" />
<path d="M524.9980619412552,551.1478172277252 L25.574252493211816,52.32674418250576" stroke="grey" stroke-width="5" />
<circle cx="524.9980619412552" cy="551.1478172277252" r="2.5" fill="grey" stroke="none" />
<circle cx="477.5742524932118" cy="552.3267441825058" r="5" fill="black" stroke="none" />
<circle cx="525.5742524932118" cy="552.3267441825058" r="5" fill="black" stroke="none" />
<path d="M477.5742524932118,600.3267441825058 A102.8025765703378,102.8025765703378,0,0,0,560.7944104748677,582.8999964084044" stroke="grey" stroke-width="5" fill="none" />
<path d="M560.7944104748677,582.8999964084044 L73.57425249321182,100.32674418250576" stroke="grey" stroke-width="5" />
<circle cx="560.7944104748677" cy="582.8999964084044" r="2.5" fill="grey" stroke="none" />
<circle cx="477.5742524932118" cy="600.3267441825058" r="5" fill="black" stroke="none" />
<circle cx="573.5742524932118" cy="600.3267441825058" r="5" fill="black" stroke="none" />
<path d="M477.5742524932118,656.3267441825058 A157.9270879169904,157.9270879169904,0,0,0,567.2514157967678,642.8923096995463" stroke="grey" stroke-width="5" fill="none" />
<path d="M567.2514157967678,642.8923096995463 L73.57425249321182,156.32674418250576" stroke="grey" stroke-width="5" />
<circle cx="567.2514157967678" cy="642.8923096995463" r="2.5" fill="grey" stroke="none" />
<circle cx="477.5742524932118" cy="656.3267441825058" r="5" fill="black" stroke="none" />
<circle cx="573.5742524932118" cy="656.3267441825058" r="5" fill="black" stroke="none" />
<path d="M621.5742524932118,496.32674418250576 L573.6322891260323,497.7752671405262" stroke="grey" stroke-width="5" />
<circle cx="573.6322891260323" cy="497.7752671405262" r="2.5" fill="grey" stroke="none" />
<path d="M573.6322891260323,497.7752671405262 A73.66589060233807,73.66589060233807,0,0,0,573.5742524932118,496.32674418250576" stroke="grey" stroke-width="5" fill="none" />
<circle cx="621.5742524932118" cy="496.32674418250576" r="5" fill="black" stroke="none" />
<circle cx="573.5742524932118" cy="496.32674418250576" r="5" fill="black" stroke="none" />
<path d="M573.5742524932118,496.32674418250576 L558.1695485948982,497.0958368513912" stroke="grey" stroke-width="5" />
<circle cx="558.1695485948982" cy="497.0958368513912" r="2.5" fill="grey" stroke="none" />
<path d="M558.1695485948982,497.0958368513912 A58.24199985687263,58.24199985687263,0,0,1,525.5742524932118,552.3267441825058" stroke="grey" stroke-width="5" fill="none" />
<circle cx="573.5742524932118" cy="496.32674418250576" r="5" fill="black" stroke="none" />
<circle cx="525.5742524932118" cy="552.3267441825058" r="5" fill="black" stroke="none" />
<path d="M525.5742524932118,552.3267441825058 A58.24199985687263,58.24199985687263,0,0,0,534.4426002178387,546.9663479265962" stroke="grey" stroke-width="5" fill="none" />
<path d="M534.4426002178387,546.9663479265962 L73.57425249321182,100.32674418250576" stroke="grey" stroke-width="5" />
<circle cx="534.4426002178387" cy="546.9663479265962" r="2.5" fill="grey" stroke="none" />
<circle cx="525.5742524932118" cy="552.3267441825058" r="5" fill="black" stroke="none" />
<circle cx="573.5742524932118" cy="600.3267441825058" r="5" fill="black" stroke="none" />
<path d="M573.5742524932118,600.3267441825058 A124.41312723421447,124.41312723421447,0,0,1,552.979884961864,612.5689034219686" stroke="grey" stroke-width="5" fill="none" />
<path d="M552.979884961864,612.5689034219686 L73.57425249321182,156.32674418250576" stroke="grey" stroke-width="5" />
<circle cx="552.979884961864" cy="612.5689034219686" r="2.5" fill="grey" stroke="none" />
<circle cx="573.5742524932118" cy="600.3267441825058" r="5" fill="black" stroke="none" />
<circle cx="573.5742524932118" cy="656.3267441825058" r="5" fill="black" stroke="none" />
<path d="M573.5742524932118,656.3267441825058 A172.7750606327125,172.7750606327125,0,0,0,590.61525241525,647.1057361436257" stroke="grey" stroke-width="5" fill="none" />
<path d="M590.61525241525,647.1057361436257 L145.57425249321182,236.32674418250576" stroke="grey" stroke-width="5" />
<circle cx="590.61525241525" cy="647.1057361436257" r="2.5" fill="grey" stroke="none" />
<circle cx="573.5742524932118" cy="656.3267441825058" r="5" fill="black" stroke="none" />
<circle cx="645.5742524932118" cy="736.3267441825058" r="5" fill="black" stroke="none" />
<path d="M621.5742524932118,496.32674418250576 L599.6235462488197,496.98996487074174" stroke="grey" stroke-width="5" />
<circle cx="599.6235462488197" cy="496.98996487074174" r="2.5" fill="grey" stroke="none" />
<path d="M599.6235462488197,496.98996487074174 A99.66900861687189,99.66900861687189,0,0,1,597.5742524932118,520.3267441825058" stroke="grey" stroke-width="5" fill="none" />
<circle cx="621.5742524932118" cy="496.32674418250576" r="5" fill="black" stroke="none" />
<circle cx="597.5742524932118" cy="520.3267441825058" r="5" fill="black" stroke="none" />
<path d="M597.5742524932118,520.3267441825058 L588.3868049516846,518.412807963729" stroke="grey" stroke-width="5" />
<circle cx="588.3868049516846" cy="518.412807963729" r="2.5" fill="grey" stroke="none" />
<path d="M588.3868049516846,518.412807963729 A90.28432193175229,90.28432193175229,0,0,1,573.5742524932118,552.3267441825058" stroke="grey" stroke-width="5" fill="none" />
<circle cx="597.5742524932118" cy="520.3267441825058" r="5" fill="black" stroke="none" />
<circle cx="573.5742524932118" cy="552.3267441825058" r="5" fill="black" stroke="none" />
<path d="M573.5742524932118,552.3267441825058 A90.28432193175229,90.28432193175229,0,0,1,553.3914840471787,572.8052760307669" stroke="grey" stroke-width="5" fill="none" />
<path d="M553.3914840471787,572.8052760307669 L73.57425249321182,100.32674418250576" stroke="grey" stroke-width="5" />
<circle cx="553.3914840471787" cy="572.8052760307669" r="2.5" fill="grey" stroke="none" />
<circle cx="573.5742524932118" cy="552.3267441825058" r="5" fill="black" stroke="none" />
<circle cx="573.5742524932118" cy="600.3267441825058" r="5" fill="black" stroke="none" />
<path d="M573.5742524932118,496.32674418250576 A73.66589060233807,73.66589060233807,0,0,1,572.1176452893211,515.0236039670681" stroke="grey" stroke-width="5" fill="none" />
<path d="M572.1176452893211,515.0236039670681 L97.57425249321182,20.326744182505763" stroke="grey" stroke-width="5" />
<circle cx="572.1176452893211" cy="515.0236039670681" r="2.5" fill="grey" stroke="none" />
<circle cx="573.5742524932118" cy="496.32674418250576" r="5" fill="black" stroke="none" />
<circle cx="597.5742524932118" cy="520.3267441825058" r="5" fill="black" stroke="none" />
<path d="M525.5742524932118,552.3267441825058 A58.24199985687263,58.24199985687263,0,0,0,547.4624110974478,533.7557414397138" stroke="grey" stroke-width="5" fill="none" />
<path d="M547.4624110974479,533.7557414397138 L73.57425249321182,52.32674418250576" stroke="grey" stroke-width="5" />
<circle cx="547.4624110974479" cy="533.7557414397138" r="2.5" fill="grey" stroke="none" />
<circle cx="525.5742524932118" cy="552.3267441825058" r="5" fill="black" stroke="none" />
<circle cx="573.5742524932118" cy="552.3267441825058" r="5" fill="black" stroke="none" />
<path d="M621.5742524932118,496.32674418250576 A121.62973188157562,121.62973188157562,0,0,1,611.7208674149701,548.0857511289013" stroke="grey" stroke-width="5" fill="none" />
<path d="M611.7208674149701,548.0857511289013 L121.57425249321182,52.32674418250576" stroke="grey" stroke-width="5" />
<circle cx="611.7208674149701" cy="548.0857511289013" r="2.5" fill="grey" stroke="none" />
<circle cx="621.5742524932118" cy="496.32674418250576" r="5" fill="black" stroke="none" />
<circle cx="621.5742524932118" cy="552.3267441825058" r="5" fill="black" stroke="none" />
<path d="M597.5742524932118,520.3267441825058 A99.66900861687189,99.66900861687189,0,0,1,591.5492283408856,539.4036809049417" stroke="grey" stroke-width="5" fill="none" />
<path d="M591.5492283408856,539.4036809049417 L121.57425249321182,52.32674418250576" stroke="grey" stroke-width="5" />
<circle cx="591.5492283408856" cy="539.4036809049417" r="2.5" fill="grey" stroke="none" />
<circle cx="597.5742524932118" cy="520.3267441825058" r="5" fill="black" stroke="none" />
<circle cx="621.5742524932118" cy="552.3267441825058" r="5" fill="black" stroke="none" />
<path d="M573.5742524932118,552.3267441825058 A90.28432193175229,90.28432193175229,0,0,0,582.9290881772938,535.6934884924257" stroke="grey" stroke-width="5" fill="none" />
<path d="M582.9290881772938,535.6934884924257 L121.57425249321182,52.32674418250576" stroke="grey" stroke-width="5" />
<circle cx="582.9290881772938" cy="535.6934884924257" r="2.5" fill="grey" stroke="none" />
<circle cx="573.5742524932118" cy="552.3267441825058" r="5" fill="black" stroke="none" />
<circle cx="621.5742524932118" cy="552.3267441825058" r="5" fill="black" stroke="none" />
<path d="M573.5742524932118,600.3267441825058 A124.41312723421447,124.41312723421447,0,0,0,614.2775066375114,549.1861535893017" stroke="grey" stroke-width="5" fill="none" />
<path d="M614.2775066375114,549.1861535893017 L121.57425249321182,52.32674418250576" stroke="grey" stroke-width="5" />
<circle cx="614.2775066375114" cy="549.1861535893017" r="2.5" fill="grey" stroke="none" />
<circle cx="573.5742524932118" cy="600.3267441825058" r="5" fill="black" stroke="none" />
<circle cx="621.5742524932118" cy="552.3267441825058" r="5" fill="black" stroke="none" />
<path d="M621.5742524932118,552.3267441825058 A132.35704373407793,132.35704373407793,0,0,1,592.5371606088663,594.6322404494023" stroke="grey" stroke-width="5" fill="none" />
<path d="M592.5371606088663,594.6322404494023 L121.57425249321182,124.32674418250576" stroke="grey" stroke-width="5" />
<circle cx="592.5371606088663" cy="594.6322404494023" r="2.5" fill="grey" stroke="none" />
<circle cx="621.5742524932118" cy="552.3267441825058" r="5" fill="black" stroke="none" />
<circle cx="621.5742524932118" cy="624.3267441825058" r="5" fill="black" stroke="none" />
<path d="M621.5742524932118,624.3267441825058 L620.7953357367069,623.5301924263609" stroke="grey" stroke-width="5" />
<circle cx="620.7953357367069" cy="623.5301924263609" r="2.5" fill="grey" stroke="none" />
<path d="M620.7953357367069,623.5301924263609 A172.7750606327125,172.7750606327125,0,0,1,573.5742524932118,656.3267441825058" stroke="grey" stroke-width="5" fill="none" />
<circle cx="621.5742524932118" cy="624.3267441825058" r="5" fill="black" stroke="none" />
<circle cx="573.5742524932118" cy="656.3267441825058" r="5" fill="black" stroke="none" />
<path d="M621.5742524932118,496.32674418250576 A121.62973188157562,121.62973188157562,0,0,0,609.7661020919945,447.60539618325373" stroke="grey" stroke-width="5" fill="none" />
<path d="M609.7661020919945,447.60539618325373 L225.57425249321182,-107.67325581749424" stroke="grey" stroke-width="5" />
<circle cx="609.7661020919945" cy="447.60539618325373" r="2.5" fill="grey" stroke="none" />
<circle cx="621.5742524932118" cy="496.32674418250576" r="5" fill="black" stroke="none" />
<circle cx="725.5742524932118" cy="392.32674418250576" r="5" fill="black" stroke="none" />
<path d="M621.5742524932118,496.32674418250576 A121.62973188157562,121.62973188157562,0,0,1,621.2283185945381,509.8735225894887" stroke="grey" stroke-width="5" fill="none" />
<path d="M621.2283185945381,509.8735225894887 L249.57425249321182,20.326744182505763" stroke="grey" stroke-width="5" />
<circle cx="621.2283185945381" cy="509.8735225894887" r="2.5" fill="grey" stroke="none" />
<circle cx="621.5742524932118" cy="496.32674418250576" r="5" fill="black" stroke="none" />
<circle cx="749.5742524932118" cy="520.3267441825058" r="5" fill="black" stroke="none" />
<path d="M749.5742524932118,520.3267441825058 A250.40064703711627,250.40064703711627,0,0,0,749.9479335399784,515.0504005162991" stroke="grey" stroke-width="5" fill="none" />
<path d="M749.9479335399784,515.0504005162991 L337.5742524932118,20.326744182505763" stroke="grey" stroke-width="5" />
<circle cx="749.9479335399784" cy="515.0504005162991" r="2.5" fill="grey" stroke="none" />
<circle cx="749.5742524932118" cy="520.3267441825058" r="5" fill="black" stroke="none" />
<circle cx="837.5742524932118" cy="520.3267441825058" r="5" fill="black" stroke="none" />
<path d="M621.5742524932118,552.3267441825058 A132.35704373407793,132.35704373407793,0,0,1,601.2269538005692,585.27303706496" stroke="grey" stroke-width="5" fill="none" />
<path d="M601.2269538005692,585.27303706496 L185.57425249321182,156.32674418250576" stroke="grey" stroke-width="5" />
<circle cx="601.2269538005692" cy="585.27303706496" r="2.5" fill="grey" stroke="none" />
<circle cx="621.5742524932118" cy="552.3267441825058" r="5" fill="black" stroke="none" />
<circle cx="685.5742524932118" cy="656.3267441825058" r="5" fill="black" stroke="none" />
<circle cx="500" cy="500" r="5" fill="red" stroke="none" />
</svg>