<?xml version="1.0" encoding="UTF-8"?>
<svg xmlns="http://www.w3.org/2000/svg" xmlns:xlink="http://www.w3.org/1999/xlink"
     width="1000" height="1000" viewBox="0 0 1000 1000">
<defs>
</defs>
<rect x="0" y="0" width="1000" height="1000" fill="white" />
<path d="M275.38691023475894,812.613089765241 L351.17494732930487,707.1324498429141" stroke="grey" stroke-width="5" />
<circle cx="351.17494732930487" cy="707.1324498429141" r="2.5" fill="grey" stroke="none" />
<path d="M351.17494732930487,707.1324498429141 A255.05440219757526,255.05440219757526,0,0,0,395.3869102347589,732.613089765241" stroke="grey" stroke-width="5" fill="none" />
<circle cx="275.38691023475894" cy="812.613089765241" r="5" fill="black" stroke="none" />
<circle cx="395.38691023475894" cy="732.613089765241" r="5" fill="black" stroke="none" />
<path d="M395.38691023475894,732.613089765241 L415.80616714684504,687.2097234017253" stroke="grey" stroke-width="5" />
<circle cx="415.80616714684504" cy="687.2097234017253" r="2.5" fill="grey" stroke="none" />
<path d="M415.806167146845,687.2097234017252 A205.27075297434723,205.27075297434723,0,0,1,395.38691023475894,676.613089765241" stroke="grey" stroke-width="5" fill="none" />
<circle cx="395.38691023475894" cy="732.613089765241" r="5" fill="black" stroke="none" />
<circle cx="395.38691023475894" cy="676.613089765241" r="5" fill="black" stroke="none" />
<path d="M395.38691023475894,676.613089765241 A205.27075297434723,205.27075297434723,0,0,1,343.3340564783896,632.6343249959792" stroke="grey" stroke-width="5" fill="none" />
<path d="M343.3340564783896,632.6343249959792 L-208.61308976524106,176.61308976524106" stroke="grey" stroke-width="5" />
<circle cx="343.3340564783896" cy="632.6343249959792" r="2.5" fill="grey" stroke="none" />
<circle cx="395.38691023475894" cy="676.613089765241" r="5" fill="black" stroke="none" />
<circle cx="291.38691023475894" cy="676.613089765241" r="5" fill="black" stroke="none" />
<path d="M291.38691023475894,676.613089765241 L359.88583987488516,618.6214861560496" stroke="grey" stroke-width="5" />
<circle cx="359.88583987488516" cy="618.6214861560496" r="2.5" fill="grey" stroke="none" />
<path d="M359.88583987488516,618.6214861560496 A183.58386324902358,183.58386324902358,0,0,1,331.38691023475894,572.613089765241" stroke="grey" stroke-width="5" fill="none" />
<circle cx="291.38691023475894" cy="676.613089765241" r="5" fill="black" stroke="none" />
<circle cx="331.38691023475894" cy="572.613089765241" r="5" fill="black" stroke="none" />
<path d="M331.38691023475894,572.613089765241 L446.1172775871272,523.2045505174538" stroke="grey" stroke-width="5" />
<circle cx="446.1172775871272" cy="523.2045505174538" r="2.5" fill="grey" stroke="none" />
<path d="M446.1172775871272,523.2045505174538 A58.66684702061097,58.66684702061097,0,0,1,443.38691023475894,484.61308976524106" stroke="grey" stroke-width="5" fill="none" />
<circle cx="331.38691023475894" cy="572.613089765241" r="5" fill="black" stroke="none" />
<circle cx="443.38691023475894" cy="484.61308976524106" r="5" fill="black" stroke="none" />
<path d="M443.38691023475894,484.61308976524106 L488.2456645391754,496.80528115750366" stroke="grey" stroke-width="5" />
<circle cx="488.2456645391754" cy="496.80528115750366" r="2.5" fill="grey" stroke="none" />
<path d="M488.2456645391754,496.80528115750366 A12.180748359940809,12.180748359940809,0,0,0,491.38691023475894,508.61308976524106" stroke="grey" stroke-width="5" fill="none" />
<circle cx="443.38691023475894" cy="484.61308976524106" r="5" fill="black" stroke="none" />
<circle cx="491.38691023475894" cy="508.61308976524106" r="5" fill="black" stroke="none" />
<path d="M491.38691023475894,508.61308976524106 A12.180748359940809,12.180748359940809,0,0,1,488.3120988688654,503.4298101634089" stroke="grey" stroke-width="5" fill="none" />
<path d="M488.3120988688654,503.4298101634089 L-56.61308976524106,16.61308976524107" stroke="grey" stroke-width="5" />
<circle cx="488.3120988688654" cy="503.4298101634089" r="2.5" fill="grey" stroke="none" />
<circle cx="491.38691023475894" cy="508.61308976524106" r="5" fill="black" stroke="none" />
<circle cx="443.38691023475894" cy="516.613089765241" r="5" fill="black" stroke="none" />
<path d="M443.38691023475894,484.61308976524106 A58.66684702061097,58.66684702061097,0,0,0,443.7068817620962,516.5191942416436" stroke="grey" stroke-width="5" fill="none" />
<path d="M443.7068817620962,516.5191942416436 L-56.61308976524106,16.61308976524107" stroke="grey" stroke-width="5" />
<circle cx="443.7068817620962" cy="516.5191942416436" r="2.5" fill="grey" stroke="none" />
<circle cx="443.38691023475894" cy="484.61308976524106" r="5" fill="black" stroke="none" />
<circle cx="443.38691023475894" cy="516.613089765241" r="5" fill="black" stroke="none" />
<path d="M443.38691023475894,516.613089765241 A59.00031088320806,59.00031088320806,0,0,0,462.770202178517,545.770938798398" stroke="grey" stroke-width="5" fill="none" />
<path d="M462.770202178517,545.770938798398 L-104.61308976524106,128.61308976524106" stroke="grey" stroke-width="5" />
<circle cx="462.770202178517" cy="545.770938798398" r="2.5" fill="grey" stroke="none" />
<circle cx="443.38691023475894" cy="516.613089765241" r="5" fill="black" stroke="none" />
<circle cx="395.38691023475894" cy="628.613089765241" r="5" fill="black" stroke="none" />
<path d="M331.38691023475894,572.613089765241 L347.7327748084149,565.5737565009618" stroke="grey" stroke-width="5" />
<circle cx="347.7327748084149" cy="565.5737565009618" r="2.5" fill="grey" stroke="none" />
<path d="M347.7327748084149,565.5737565009618 A165.78668646544673,165.78668646544673,0,0,0,395.38691023475894,628.613089765241" stroke="grey" stroke-width="5" fill="none" />
<circle cx="331.38691023475894" cy="572.613089765241" r="5" fill="black" stroke="none" />
<circle cx="395.38691023475894" cy="628.613089765241" r="5" fill="black" stroke="none" />
<path d="M395.38691023475894,628.613089765241 A165.78668646544673,165.78668646544673,0,0,0,415.5093589233383,642.6413578862985" stroke="grey" stroke-width="5" fill="none" />
<path d="M415.5093589233383,642.6413578862985 L-104.61308976524106,176.61308976524106" stroke="grey" stroke-width="5" />
<circle cx="415.5093589233383" cy="642.6413578862985" r="2.5" fill="grey" stroke="none" />
<circle cx="395.38691023475894" cy="628.613089765241" r="5" fill="black" stroke="none" />
<circle cx="395.38691023475894" cy="676.613089765241" r="5" fill="black" stroke="none" />
<path d="M491.38691023475894,508.61308976524106 L531.386910234759,468.61308976524106" stroke="grey" stroke-width="5" />
<circle cx="491.38691023475894" cy="508.61308976524106" r="5" fill="black" stroke="none" />
<circle cx="531.386910234759" cy="468.61308976524106" r="5" fill="black" stroke="none" />
<path d="M491.38691023475894,508.61308976524106 A12.180748359940809,12.180748359940809,0,0,0,505.80773389902043,510.70704709835394" stroke="grey" stroke-width="5" fill="none" />
<path d="M505.80773389902043,510.70704709835394 L39.38691023475894,72.61308976524107" stroke="grey" stroke-width="5" />
<circle cx="505.80773389902043" cy="510.70704709835394" r="2.5" fill="grey" stroke="none" />
<circle cx="491.38691023475894" cy="508.61308976524106" r="5" fill="black" stroke="none" />
<circle cx="539.386910234759" cy="572.613089765241" r="5" fill="black" stroke="none" />
<path d="M443.38691023475894,516.613089765241 A59.00031088320806,59.00031088320806,0,0,0,493.0503260349442,558.5895785621865" stroke="grey" stroke-width="5" fill="none" />
<path d="M493.0503260349442,558.5895785621865 L-8.613089765241057,72.61308976524107" stroke="grey" stroke-width="5" />
<circle cx="493.0503260349442" cy="558.5895785621865" r="2.5" fill="grey" stroke="none" />
<circle cx="443.38691023475894" cy="516.613089765241" r="5" fill="black" stroke="none" />
<circle cx="491.38691023475894" cy="572.613089765241" r="5" fill="black" stroke="none" />
<path d="M395.38691023475894,628.613089765241 L411.3293280347727,609.0132135337925" stroke="grey" stroke-width="5" />
<circle cx="411.3293280347727" cy="609.0132135337925" r="2.5" fill="grey" stroke="none" />
<path d="M411.3293280347727,609.0132135337925 A140.52177337241798,140.52177337241798,0,0,0,443.38691023475894,628.613089765241" stroke="grey" stroke-width="5" fill="none" />
<circle cx="395.38691023475894" cy="628.613089765241" r="5" fill="black" stroke="none" />
<circle cx="443.38691023475894" cy="628.613089765241" r="5" fill="black" stroke="none" />
<path d="M395.38691023475894,676.613089765241 L409.8848776002341,652.1368906827151" stroke="grey" stroke-width="5" />
<circle cx="409.8848776002341" cy="652.1368906827151" r="2.5" fill="grey" stroke="none" />
<path d="M409.8848776002341,652.1368906827151 A176.82298717002038,176.82298717002038,0,0,0,491.3869102347589,676.613089765241" stroke="grey" stroke-width="5" fill="none" />
<circle cx="395.38691023475894" cy="676.613089765241" r="5" fill="black" stroke="none" />
<circle cx="491.38691023475894" cy="676.613089765241" r="5" fill="black" stroke="none" />
<path d="M395.38691023475894,732.613089765241 L404.5260548408987,712.2916876403622" stroke="grey" stroke-width="5" />
<circle cx="404.5260548408987" cy="712.2916876403622" r="2.5" fill="grey" stroke="none" />
<path d="M404.52605484089867,712.2916876403622 A232.77249589553358,232.77249589553358,0,0,0,491.3869102347589,732.613089765241" stroke="grey" stroke-width="5" fill="none" />
<circle cx="395.38691023475894" cy="732.613089765241" r="5" fill="black" stroke="none" />
<circle cx="491.38691023475894" cy="732.613089765241" r="5" fill="black" stroke="none" />
<path d="M539.386910234759,572.613089765241 L534.8643506580005,564.2753698842336" stroke="grey" stroke-width="5" />
<circle cx="534.8643506580005" cy="564.2753698842336" r="2.5" fill="grey" stroke="none" />
<path d="M534.8643506580005,564.2753698842336 A73.12213153730585,73.12213153730585,0,0,1,491.38691023475894,572.613089765241" stroke="grey" stroke-width="5" fill="none" />
<circle cx="539.386910234759" cy="572.613089765241" r="5" fill="black" stroke="none" />
<circle cx="491.38691023475894" cy="572.613089765241" r="5" fill="black" stroke="none" />
<path d="M491.38691023475894,572.613089765241 A73.12213153730585,73.12213153730585,0,0,1,470.54072335412326,566.9253101603628" stroke="grey" stroke-width="5" fill="none" />
<path d="M470.54072335412326,566.9253101603628 L-56.61308976524106,128.61308976524106" stroke="grey" stroke-width="5" />
<circle cx="470.54072335412326" cy="566.9253101603628" r="2.5" fill="grey" stroke="none" />
<circle cx="491.38691023475894" cy="572.613089765241" r="5" fill="black" stroke="none" />
<circle cx="443.38691023475894" cy="628.613089765241" r="5" fill="black" stroke="none" />
<path d="M443.38691023475894,628.613089765241 A140.52177337241798,140.52177337241798,0,0,0,493.15515099366723,640.3549672573425" stroke="grey" stroke-width="5" fill="none" />
<path d="M493.1551509936673,640.3549672573425 L-8.613089765241057,176.61308976524106" stroke="grey" stroke-width="5" />
<circle cx="493.1551509936673" cy="640.3549672573425" r="2.5" fill="grey" stroke="none" />
<circle cx="443.38691023475894" cy="628.613089765241" r="5" fill="black" stroke="none" />
<circle cx="491.38691023475894" cy="676.613089765241" r="5" fill="black" stroke="none" />
<path d="M491.3869102347589,676.613089765241 A176.82298717002038,176.82298717002038,0,0,0,493.45716402105785,676.7018961106016" stroke="grey" stroke-width="5" fill="none" />
<path d="M493.4571640210579,676.7018961106016 L-8.613089765241057,232.61308976524106" stroke="grey" stroke-width="5" />
<circle cx="493.4571640210579" cy="676.7018961106016" r="2.5" fill="grey" stroke="none" />
<circle cx="491.38691023475894" cy="676.613089765241" r="5" fill="black" stroke="none" />
<circle cx="491.38691023475894" cy="732.613089765241" r="5" fill="black" stroke="none" />
<path d="M491.3869102347589,732.613089765241 A232.77249589553358,232.77249589553358,0,0,0,546.2567419518307,728.1301134647462" stroke="grey" stroke-width="5" fill="none" />
<path d="M546.2567419518307,728.1301134647462 L63.38691023475894,312.61308976524106" stroke="grey" stroke-width="5" />
<circle cx="546.2567419518307" cy="728.1301134647462" r="2.5" fill="grey" stroke="none" />
<circle cx="491.38691023475894" cy="732.613089765241" r="5" fill="black" stroke="none" />
<circle cx="563.386910234759" cy="812.613089765241" r="5" fill="black" stroke="none" />
<path d="M539.386910234759,572.613089765241 A82.60744217742077,82.60744217742077,0,0,1,512.9925808603061,581.5793009634449" stroke="grey" stroke-width="5" fill="none" />
<path d="M512.9925808603061,581.5793009634449 L15.386910234758943,96.61308976524107" stroke="grey" stroke-width="5" />
<circle cx="512.9925808603061" cy="581.5793009634449" r="2.5" fill="grey" stroke="none" />
<circle cx="539.386910234759" cy="572.613089765241" r="5" fill="black" stroke="none" />
<circle cx="515.386910234759" cy="596.613089765241" r="5" fill="black" stroke="none" />
<path d="M515.386910234759,596.613089765241 A97.83070131895744,97.83070131895744,0,0,1,493.46301823025163,597.612058629562" stroke="grey" stroke-width="5" fill="none" />
<path d="M493.46301823025163,597.612058629562 L-8.613089765241057,128.61308976524106" stroke="grey" stroke-width="5" />
<circle cx="493.46301823025163" cy="597.612058629562" r="2.5" fill="grey" stroke="none" />
<circle cx="515.386910234759" cy="596.613089765241" r="5" fill="black" stroke="none" />
<circle cx="491.38691023475894" cy="628.613089765241" r="5" fill="black" stroke="none" />
<path d="M491.38691023475894,628.613089765241 A128.90117212138165,128.90117212138165,0,0,0,493.721193244752,628.7481602198505" stroke="grey" stroke-width="5" fill="none" />
<path d="M493.72119324475204,628.7481602198505 L-8.613089765241057,176.61308976524106" stroke="grey" stroke-width="5" />
<circle cx="493.72119324475204" cy="628.7481602198505" r="2.5" fill="grey" stroke="none" />
<circle cx="491.38691023475894" cy="628.613089765241" r="5" fill="black" stroke="none" />
<circle cx="491.38691023475894" cy="676.613089765241" r="5" fill="black" stroke="none" />
<path d="M491.38691023475894,572.613089765241 A73.12213153730585,73.12213153730585,0,0,0,511.5007217465458,572.2120455316673" stroke="grey" stroke-width="5" fill="none" />
<path d="M511.5007217465458,572.2120455316673 L15.386910234758943,96.61308976524107" stroke="grey" stroke-width="5" />
<circle cx="511.5007217465458" cy="572.2120455316673" r="2.5" fill="grey" stroke="none" />
<circle cx="491.38691023475894" cy="572.613089765241" r="5" fill="black" stroke="none" />
<circle cx="515.386910234759" cy="596.613089765241" r="5" fill="black" stroke="none" />
<path d="M443.38691023475894,628.613089765241 L448.06859141456766,617.977290088385" stroke="grey" stroke-width="5" />
<circle cx="448.06859141456766" cy="617.977290088385" r="2.5" fill="grey" stroke="none" />
<path d="M448.06859141456766,617.977290088385 A128.90117212138165,128.90117212138165,0,0,0,491.38691023475894,628.613089765241" stroke="grey" stroke-width="5" fill="none" />
<circle cx="443.38691023475894" cy="628.613089765241" r="5" fill="black" stroke="none" />
<circle cx="491.38691023475894" cy="628.613089765241" r="5" fill="black" stroke="none" />
<path d="M539.386910234759,572.613089765241 A82.60744217742077,82.60744217742077,0,0,1,524.1891122946739,578.9865580304115" stroke="grey" stroke-width="5" fill="none" />
<path d="M524.1891122946739,578.9865580304115 L39.38691023475894,128.61308976524106" stroke="grey" stroke-width="5" />
<circle cx="524.1891122946739" cy="578.9865580304115" r="2.5" fill="grey" stroke="none" />
<circle cx="539.386910234759" cy="572.613089765241" r="5" fill="black" stroke="none" />
<circle cx="539.386910234759" cy="628.613089765241" r="5" fill="black" stroke="none" />
<path d="M515.386910234759,596.613089765241 A97.83070131895744,97.83070131895744,0,0,0,528.6467872348405,593.5425448749436" stroke="grey" stroke-width="5" fill="none" />
<path d="M528.6467872348405,593.5425448749436 L39.38691023475894,128.61308976524106" stroke="grey" stroke-width="5" />
<circle cx="528.6467872348405" cy="593.5425448749436" r="2.5" fill="grey" stroke="none" />
<circle cx="515.386910234759" cy="596.613089765241" r="5" fill="black" stroke="none" />
<circle cx="539.386910234759" cy="628.613089765241" r="5" fill="black" stroke="none" />
<path d="M491.38691023475894,628.613089765241 A128.90117212138165,128.90117212138165,0,0,0,537.7448429000195,623.2511217341201" stroke="grey" stroke-width="5" fill="none" />
<path d="M537.7448429000195,623.2511217341201 L39.38691023475894,128.61308976524106" stroke="grey" stroke-width="5" />
<circle cx="537.7448429000195" cy="623.2511217341201" r="2.5" fill="grey" stroke="none" />
<circle cx="491.38691023475894" cy="628.613089765241" r="5" fill="black" stroke="none" />
<circle cx="539.386910234759" cy="628.613089765241" r="5" fill="black" stroke="none" />
<path d="M491.38691023475894,676.613089765241 L493.4480374257904,634.3492736981822" stroke="grey" stroke-width="5" />
<circle cx="493.4480374257904" cy="634.3492736981822" r="2.5" fill="grey" stroke="none" />
<path d="M493.44803742579035,634.3492736981822 A134.5089422930792,134.5089422930792,0,0,0,539.386910234759,628.613089765241" stroke="grey" stroke-width="5" fill="none" />
<circle cx="491.38691023475894" cy="676.613089765241" r="5" fill="black" stroke="none" />
<circle cx="539.386910234759" cy="628.613089765241" r="5" fill="black" stroke="none" />
<path d="M539.386910234759,628.613089765241 A134.5089422930792,134.5089422930792,0,0,1,525.9137834068172,631.9891335919267" stroke="grey" stroke-width="5" fill="none" />
<path d="M525.9137834068172,631.9891335919267 L39.38691023475894,200.61308976524106" stroke="grey" stroke-width="5" />
<circle cx="525.9137834068172" cy="631.9891335919267" r="2.5" fill="grey" stroke="none" />
<circle cx="539.386910234759" cy="628.613089765241" r="5" fill="black" stroke="none" />
<circle cx="539.386910234759" cy="700.613089765241" r="5" fill="black" stroke="none" />
<path d="M539.386910234759,700.613089765241 A204.44300057228085,204.44300057228085,0,0,1,492.435163316741,704.3029949094072" stroke="grey" stroke-width="5" fill="none" />
<path d="M492.435163316741,704.3029949094072 L-8.613089765241057,232.61308976524106" stroke="grey" stroke-width="5" />
<circle cx="492.435163316741" cy="704.3029949094072" r="2.5" fill="grey" stroke="none" />
<circle cx="539.386910234759" cy="700.613089765241" r="5" fill="black" stroke="none" />
<circle cx="491.38691023475894" cy="732.613089765241" r="5" fill="black" stroke="none" />
<path d="M539.386910234759,572.613089765241 A82.60744217742077,82.60744217742077,0,0,0,580.696740879796,482.33575604575816" stroke="grey" stroke-width="5" fill="none" />
<path d="M580.696740879796,482.33575604575816 L143.38691023475894,-31.38691023475893" stroke="grey" stroke-width="5" />
<circle cx="580.696740879796" cy="482.33575604575816" r="2.5" fill="grey" stroke="none" />
<circle cx="539.386910234759" cy="572.613089765241" r="5" fill="black" stroke="none" />
<circle cx="643.386910234759" cy="468.61308976524106" r="5" fill="black" stroke="none" />
<path d="M539.386910234759,572.613089765241 A82.60744217742077,82.60744217742077,0,0,0,571.5452859085045,541.2948128384941" stroke="grey" stroke-width="5" fill="none" />
<path d="M571.5452859085045,541.2948128384941 L167.38691023475894,96.61308976524107" stroke="grey" stroke-width="5" />
<circle cx="571.5452859085045" cy="541.2948128384941" r="2.5" fill="grey" stroke="none" />
<circle cx="539.386910234759" cy="572.613089765241" r="5" fill="black" stroke="none" />
<circle cx="667.386910234759" cy="596.613089765241" r="5" fill="black" stroke="none" />
<path d="M667.386910234759,596.613089765241 A193.26786290515497,193.26786290515497,0,0,0,680.7654133513361,568.3837127380955" stroke="grey" stroke-width="5" fill="none" />
<path d="M680.7654133513361,568.3837127380955 L255.38691023475894,96.61308976524107" stroke="grey" stroke-width="5" />
<circle cx="680.7654133513361" cy="568.3837127380955" r="2.5" fill="grey" stroke="none" />
<circle cx="667.386910234759" cy="596.613089765241" r="5" fill="black" stroke="none" />
<circle cx="755.386910234759" cy="596.613089765241" r="5" fill="black" stroke="none" />
<path d="M539.386910234759,628.613089765241 A134.5089422930792,134.5089422930792,0,0,0,554.6307181374806,622.9151747856466" stroke="grey" stroke-width="5" fill="none" />
<path d="M554.6307181374806,622.9151747856466 L103.38691023475894,232.61308976524106" stroke="grey" stroke-width="5" />
<circle cx="554.6307181374806" cy="622.9151747856466" r="2.5" fill="grey" stroke="none" />
<circle cx="539.386910234759" cy="628.613089765241" r="5" fill="black" stroke="none" />
<circle cx="603.386910234759" cy="732.613089765241" r="5" fill="black" stroke="none" />
<circle cx="500" cy="500" r="5" fill="red" stroke="none" />
</svg>