<?xml version="1.0" encoding="UTF-8"?>
<svg xmlns="http://www.w3.org/2000/svg" xmlns:xlink="http://www.w3.org/1999/xlink"
     width="1000" height="1000" viewBox="0 0 1000 1000">
<defs>
</defs>
<rect x="0" y="0" width="1000" height="1000" fill="white" />
<path d="M350.62020187345263,684.0 L431.88473657031744,583.9016294589183" stroke="grey" stroke-width="5" />
<circle cx="431.88473657031744" cy="583.9016294589183" r="2.5" fill="grey" stroke="none" />
<path d="M431.88473657031744,583.9016294589183 A108.07022040301702,108.07022040301702,0,0,0,470.62020187345263,604.0" stroke="grey" stroke-width="5" fill="none" />
<circle cx="350.62020187345263" cy="684.0" r="5" fill="black" stroke="none" />
<circle cx="470.62020187345263" cy="604.0" r="5" fill="black" stroke="none" />
<path d="M470.62020187345263,604.0 L484.70045090055896,554.1580680537118" stroke="grey" stroke-width="5" />
<circle cx="484.70045090055896" cy="554.1580680537118" r="2.5" fill="grey" stroke="none" />
<path d="M484.700450900559,554.1580680537118 A56.27763799198289,56.27763799198289,0,0,1,470.62020187345263,548.0" stroke="grey" stroke-width="5" fill="none" />
<circle cx="470.62020187345263" cy="604.0" r="5" fill="black" stroke="none" />
<circle cx="470.62020187345263" cy="548.0" r="5" fill="black" stroke="none" />
<path d="M470.62020187345263,548.0 A56.27763799198289,56.27763799198289,0,0,1,447.04696273397286,519.0564525098303" stroke="grey" stroke-width="5" fill="none" />
<path d="M447.04696273397286,519.0564525098303 L366.62020187345263,548.0" stroke="grey" stroke-width="5" />
<circle cx="447.04696273397286" cy="519.0564525098303" r="2.5" fill="grey" stroke="none" />
<circle cx="470.62020187345263" cy="548.0" r="5" fill="black" stroke="none" />
<circle cx="366.62020187345263" cy="548.0" r="5" fill="black" stroke="none" />
<path d="M366.62020187345263,548.0 L397.54805625852686,536.8698511218687" stroke="grey" stroke-width="5" />
<circle cx="397.54805625852686" cy="536.8698511218687" r="2.5" fill="grey" stroke="none" />
<path d="M397.54805625852686,536.8698511218687 A108.88428122623917,108.88428122623917,0,0,1,406.62020187345263,444.0" stroke="grey" stroke-width="5" fill="none" />
<circle cx="366.62020187345263" cy="548.0" r="5" fill="black" stroke="none" />
<circle cx="406.62020187345263" cy="444.0" r="5" fill="black" stroke="none" />
<path d="M406.62020187345263,444.0 A108.88428122623917,108.88428122623917,0,0,1,513.9632443006145,392.0147486609579" stroke="grey" stroke-width="5" fill="none" />
<path d="M513.9632443006145,392.0147486609579 L518.6202018734526,356.0" stroke="grey" stroke-width="5" />
<circle cx="513.9632443006145" cy="392.0147486609579" r="2.5" fill="grey" stroke="none" />
<circle cx="406.62020187345263" cy="444.0" r="5" fill="black" stroke="none" />
<circle cx="518.6202018734526" cy="356.0" r="5" fill="black" stroke="none" />
<path d="M518.6202018734526,356.0 L517.6011660825668,363.88074989115796" stroke="grey" stroke-width="5" />
<circle cx="517.6011660825668" cy="363.88074989115796" r="2.5" fill="grey" stroke="none" />
<path d="M517.6011660825668,363.88074989115796 A137.25250925815376,137.25250925815376,0,0,1,566.6202018734526,380.0" stroke="grey" stroke-width="5" fill="none" />
<circle cx="518.6202018734526" cy="356.0" r="5" fill="black" stroke="none" />
<circle cx="566.6202018734526" cy="380.0" r="5" fill="black" stroke="none" />
<path d="M566.6202018734526,380.0 L555.1091995220371,400.7342554259102" stroke="grey" stroke-width="5" />
<circle cx="555.1091995220371" cy="400.7342554259102" r="2.5" fill="grey" stroke="none" />
<path d="M555.1091995220371,400.7342554259102 A113.53727105143989,113.53727105143989,0,0,0,518.6202018734526,388.0" stroke="grey" stroke-width="5" fill="none" />
<circle cx="566.6202018734526" cy="380.0" r="5" fill="black" stroke="none" />
<circle cx="518.6202018734526" cy="388.0" r="5" fill="black" stroke="none" />
<path d="M518.6202018734526,356.0 L514.5599404713184,387.40017739232536" stroke="grey" stroke-width="5" />
<circle cx="514.5599404713184" cy="387.40017739232536" r="2.5" fill="grey" stroke="none" />
<path d="M514.5599404713184,387.40017739232536 A113.53727105143989,113.53727105143989,0,0,1,518.6202018734526,388.0" stroke="grey" stroke-width="5" fill="none" />
<circle cx="518.6202018734526" cy="356.0" r="5" fill="black" stroke="none" />
<circle cx="518.6202018734526" cy="388.0" r="5" fill="black" stroke="none" />
<path d="M518.6202018734526,388.0 L504.81831003204,471.0179982335274" stroke="grey" stroke-width="5" />
<circle cx="504.81831003204" cy="471.0179982335274" r="2.5" fill="grey" stroke="none" />
<path d="M504.81831003204,471.0179982335274 A29.37979812654737,29.37979812654737,0,0,0,470.62020187345263,500.0" stroke="grey" stroke-width="5" fill="none" />
<circle cx="518.6202018734526" cy="388.0" r="5" fill="black" stroke="none" />
<circle cx="470.62020187345263" cy="500.0" r="5" fill="black" stroke="none" />
<path d="M406.62020187345263,444.0 L474.80371283018053,484.88975014062754" stroke="grey" stroke-width="5" />
<circle cx="474.80371283018053" cy="484.88975014062754" r="2.5" fill="grey" stroke="none" />
<path d="M474.80371283018053,484.88975014062754 A29.37979812654737,29.37979812654737,0,0,0,470.62020187345263,500.0" stroke="grey" stroke-width="5" fill="none" />
<circle cx="406.62020187345263" cy="444.0" r="5" fill="black" stroke="none" />
<circle cx="470.62020187345263" cy="500.0" r="5" fill="black" stroke="none" />
<path d="M470.62020187345263,500.0 A29.37979812654737,29.37979812654737,0,0,0,484.66224652001847,525.058448797641" stroke="grey" stroke-width="5" fill="none" />
<path d="M484.66224652001847,525.058448797641 L470.62020187345263,548.0" stroke="grey" stroke-width="5" />
<circle cx="484.66224652001847" cy="525.058448797641" r="2.5" fill="grey" stroke="none" />
<circle cx="470.62020187345263" cy="500.0" r="5" fill="black" stroke="none" />
<circle cx="470.62020187345263" cy="548.0" r="5" fill="black" stroke="none" />
<path d="M566.6202018734526,380.0 A137.25250925815376,137.25250925815376,0,0,1,576.1110291395222,385.78370282231003" stroke="grey" stroke-width="5" fill="none" />
<path d="M576.1110291395222,385.78370282231003 L606.6202018734526,340.0" stroke="grey" stroke-width="5" />
<circle cx="576.1110291395222" cy="385.78370282231003" r="2.5" fill="grey" stroke="none" />
<circle cx="566.6202018734526" cy="380.0" r="5" fill="black" stroke="none" />
<circle cx="606.6202018734526" cy="340.0" r="5" fill="black" stroke="none" />
<path d="M566.6202018734526,380.0 L561.9198669020088,388.46650386386807" stroke="grey" stroke-width="5" />
<circle cx="561.9198669020088" cy="388.46650386386807" r="2.5" fill="grey" stroke="none" />
<path d="M561.9198669020088,388.46650386386807 A127.56876842515582,127.56876842515582,0,0,1,614.6202018734526,444.0" stroke="grey" stroke-width="5" fill="none" />
<circle cx="566.6202018734526" cy="380.0" r="5" fill="black" stroke="none" />
<circle cx="614.6202018734526" cy="444.0" r="5" fill="black" stroke="none" />
<path d="M518.6202018734526,388.0 L514.2730171850092,414.148195836686" stroke="grey" stroke-width="5" />
<circle cx="514.2730171850092" cy="414.148195836686" r="2.5" fill="grey" stroke="none" />
<path d="M514.2730171850092,414.148195836686 A87.03017463879743,87.03017463879743,0,0,1,566.6202018734526,444.0" stroke="grey" stroke-width="5" fill="none" />
<circle cx="518.6202018734526" cy="388.0" r="5" fill="black" stroke="none" />
<circle cx="566.6202018734526" cy="444.0" r="5" fill="black" stroke="none" />
<path d="M470.62020187345263,500.0 L518.6202018734526,500.0" stroke="grey" stroke-width="5" />
<circle cx="470.62020187345263" cy="500.0" r="5" fill="black" stroke="none" />
<circle cx="518.6202018734526" cy="500.0" r="5" fill="black" stroke="none" />
<path d="M470.62020187345263,548.0 A56.27763799198289,56.27763799198289,0,0,0,545.660360719916,532.8983889709486" stroke="grey" stroke-width="5" fill="none" />
<path d="M545.660360719916,532.8983889709486 L566.6202018734526,548.0" stroke="grey" stroke-width="5" />
<circle cx="545.660360719916" cy="532.8983889709486" r="2.5" fill="grey" stroke="none" />
<circle cx="470.62020187345263" cy="548.0" r="5" fill="black" stroke="none" />
<circle cx="566.6202018734526" cy="548.0" r="5" fill="black" stroke="none" />
<path d="M470.62020187345263,604.0 A108.07022040301702,108.07022040301702,0,0,0,558.2930170102193,591.0005313490144" stroke="grey" stroke-width="5" fill="none" />
<path d="M558.2930170102193,591.0005313490145 L566.6202018734526,604.0" stroke="grey" stroke-width="5" />
<circle cx="558.2930170102193" cy="591.0005313490145" r="2.5" fill="grey" stroke="none" />
<circle cx="470.62020187345263" cy="604.0" r="5" fill="black" stroke="none" />
<circle cx="566.6202018734526" cy="604.0" r="5" fill="black" stroke="none" />
<path d="M614.6202018734526,444.0 L578.1963823067974,461.7955880585926" stroke="grey" stroke-width="5" />
<circle cx="578.1963823067974" cy="461.7955880585926" r="2.5" fill="grey" stroke="none" />
<path d="M578.1963823067974,461.7955880585926 A87.03017463879743,87.03017463879743,0,0,0,566.6202018734526,444.0" stroke="grey" stroke-width="5" fill="none" />
<circle cx="614.6202018734526" cy="444.0" r="5" fill="black" stroke="none" />
<circle cx="566.6202018734526" cy="444.0" r="5" fill="black" stroke="none" />
<path d="M566.6202018734526,444.0 L514.2534656845427,488.01873822221995" stroke="grey" stroke-width="5" />
<circle cx="514.2534656845427" cy="488.01873822221995" r="2.5" fill="grey" stroke="none" />
<path d="M514.2534656845427,488.01873822221995 A18.62020187345263,18.62020187345263,0,0,1,518.6202018734526,500.0" stroke="grey" stroke-width="5" fill="none" />
<circle cx="566.6202018734526" cy="444.0" r="5" fill="black" stroke="none" />
<circle cx="518.6202018734526" cy="500.0" r="5" fill="black" stroke="none" />
<path d="M518.6202018734526,500.0 A18.62020187345263,18.62020187345263,0,0,1,515.107335072247,510.8848676989197" stroke="grey" stroke-width="5" fill="none" />
<path d="M515.107335072247,510.8848676989197 L566.6202018734526,548.0" stroke="grey" stroke-width="5" />
<circle cx="515.107335072247" cy="510.8848676989197" r="2.5" fill="grey" stroke="none" />
<circle cx="518.6202018734526" cy="500.0" r="5" fill="black" stroke="none" />
<circle cx="566.6202018734526" cy="548.0" r="5" fill="black" stroke="none" />
<path d="M566.6202018734526,548.0 A82.11121298373068,82.11121298373068,0,0,1,544.290742790571,569.1417486090644" stroke="grey" stroke-width="5" fill="none" />
<path d="M544.290742790571,569.1417486090644 L566.6202018734526,604.0" stroke="grey" stroke-width="5" />
<circle cx="544.290742790571" cy="569.1417486090644" r="2.5" fill="grey" stroke="none" />
<circle cx="566.6202018734526" cy="548.0" r="5" fill="black" stroke="none" />
<circle cx="566.6202018734526" cy="604.0" r="5" fill="black" stroke="none" />
<path d="M566.6202018734526,604.0 A123.5081021539056,123.5081021539056,0,0,0,574.3174923343975,598.6466503779341" stroke="grey" stroke-width="5" fill="none" />
<path d="M574.3174923343975,598.6466503779341 L638.6202018734526,684.0" stroke="grey" stroke-width="5" />
<circle cx="574.3174923343975" cy="598.6466503779341" r="2.5" fill="grey" stroke="none" />
<circle cx="566.6202018734526" cy="604.0" r="5" fill="black" stroke="none" />
<circle cx="638.6202018734526" cy="684.0" r="5" fill="black" stroke="none" />
<path d="M614.6202018734526,444.0 L586.3493875904154,457.81227370021554" stroke="grey" stroke-width="5" />
<circle cx="586.3493875904154" cy="457.81227370021554" r="2.5" fill="grey" stroke="none" />
<path d="M586.3493875904154,457.81227370021554 A96.1042194057332,96.1042194057332,0,0,1,590.6202018734526,468.0" stroke="grey" stroke-width="5" fill="none" />
<circle cx="614.6202018734526" cy="444.0" r="5" fill="black" stroke="none" />
<circle cx="590.6202018734526" cy="468.0" r="5" fill="black" stroke="none" />
<path d="M590.6202018734526,468.0 L562.8186377242693,477.81734794650123" stroke="grey" stroke-width="5" />
<circle cx="562.8186377242693" cy="477.81734794650123" r="2.5" fill="grey" stroke="none" />
<path d="M562.8186377242693,477.81734794650123 A66.62020187345263,66.62020187345263,0,0,1,566.6202018734526,500.0" stroke="grey" stroke-width="5" fill="none" />
<circle cx="590.6202018734526" cy="468.0" r="5" fill="black" stroke="none" />
<circle cx="566.6202018734526" cy="500.0" r="5" fill="black" stroke="none" />
<path d="M566.6202018734526,500.0 A66.62020187345263,66.62020187345263,0,0,1,554.0517078774487,538.9443728052017" stroke="grey" stroke-width="5" fill="none" />
<path d="M554.0517078774487,538.9443728052017 L566.6202018734526,548.0" stroke="grey" stroke-width="5" />
<circle cx="554.0517078774487" cy="538.9443728052017" r="2.5" fill="grey" stroke="none" />
<circle cx="566.6202018734526" cy="500.0" r="5" fill="black" stroke="none" />
<circle cx="566.6202018734526" cy="548.0" r="5" fill="black" stroke="none" />
<path d="M566.6202018734526,444.0 A87.03017463879743,87.03017463879743,0,0,1,582.0639514437299,471.0214014986799" stroke="grey" stroke-width="5" fill="none" />
<path d="M582.0639514437299,471.0214014986799 L590.6202018734526,468.0" stroke="grey" stroke-width="5" />
<circle cx="582.0639514437299" cy="471.0214014986799" r="2.5" fill="grey" stroke="none" />
<circle cx="566.6202018734526" cy="444.0" r="5" fill="black" stroke="none" />
<circle cx="590.6202018734526" cy="468.0" r="5" fill="black" stroke="none" />
<path d="M518.6202018734526,500.0 A18.62020187345263,18.62020187345263,0,0,1,518.6202018734526,500.0" stroke="grey" stroke-width="5" fill="none" />
<path d="M518.6202018734526,500.0 L566.6202018734526,500.0" stroke="grey" stroke-width="5" />
<circle cx="518.6202018734526" cy="500.0" r="2.5" fill="grey" stroke="none" />
<circle cx="518.6202018734526" cy="500.0" r="5" fill="black" stroke="none" />
<circle cx="566.6202018734526" cy="500.0" r="5" fill="black" stroke="none" />
<path d="M614.6202018734526,444.0 L602.9859489881251,449.6841477412303" stroke="grey" stroke-width="5" />
<circle cx="602.9859489881251" cy="449.6841477412303" r="2.5" fill="grey" stroke="none" />
<path d="M602.9859489881251,449.6841477412303 A114.62020187345263,114.62020187345263,0,0,1,614.6202018734526,500.0" stroke="grey" stroke-width="5" fill="none" />
<circle cx="614.6202018734526" cy="444.0" r="5" fill="black" stroke="none" />
<circle cx="614.6202018734526" cy="500.0" r="5" fill="black" stroke="none" />
<path d="M590.6202018734526,468.0 A96.1042194057332,96.1042194057332,0,0,1,596.1042194057331,500.0" stroke="grey" stroke-width="5" fill="none" />
<path d="M596.1042194057331,500.0 L614.6202018734526,500.0" stroke="grey" stroke-width="5" />
<circle cx="596.1042194057331" cy="500.0" r="2.5" fill="grey" stroke="none" />
<circle cx="590.6202018734526" cy="468.0" r="5" fill="black" stroke="none" />
<circle cx="614.6202018734526" cy="500.0" r="5" fill="black" stroke="none" />
<path d="M566.6202018734526,500.0 A66.62020187345263,66.62020187345263,0,0,1,566.6202018734526,500.0" stroke="grey" stroke-width="5" fill="none" />
<path d="M566.6202018734526,500.0 L614.6202018734526,500.0" stroke="grey" stroke-width="5" />
<circle cx="566.6202018734526" cy="500.0" r="2.5" fill="grey" stroke="none" />
<circle cx="566.6202018734526" cy="500.0" r="5" fill="black" stroke="none" />
<circle cx="614.6202018734526" cy="500.0" r="5" fill="black" stroke="none" />
<path d="M566.6202018734526,548.0 A82.11121298373068,82.11121298373068,0,0,0,582.1112129837306,500.0" stroke="grey" stroke-width="5" fill="none" />
<path d="M582.1112129837306,500.0 L614.6202018734526,500.0" stroke="grey" stroke-width="5" />
<circle cx="582.1112129837306" cy="500.0" r="2.5" fill="grey" stroke="none" />
<circle cx="566.6202018734526" cy="548.0" r="5" fill="black" stroke="none" />
<circle cx="614.6202018734526" cy="500.0" r="5" fill="black" stroke="none" />
<path d="M614.6202018734526,500.0 A114.62020187345263,114.62020187345263,0,0,1,597.0595736960071,560.9690891473738" stroke="grey" stroke-width="5" fill="none" />
<path d="M597.0595736960071,560.9690891473738 L614.6202018734526,572.0" stroke="grey" stroke-width="5" />
<circle cx="597.0595736960071" cy="560.9690891473738" r="2.5" fill="grey" stroke="none" />
<circle cx="614.6202018734526" cy="500.0" r="5" fill="black" stroke="none" />
<circle cx="614.6202018734526" cy="572.0" r="5" fill="black" stroke="none" />
<path d="M614.6202018734526,572.0 L604.5857845922835,565.6967652086163" stroke="grey" stroke-width="5" />
<circle cx="604.5857845922835" cy="565.6967652086163" r="2.5" fill="grey" stroke="none" />
<path d="M604.5857845922835,565.6967652086163 A123.5081021539056,123.5081021539056,0,0,1,566.6202018734526,604.0" stroke="grey" stroke-width="5" fill="none" />
<circle cx="614.6202018734526" cy="572.0" r="5" fill="black" stroke="none" />
<circle cx="566.6202018734526" cy="604.0" r="5" fill="black" stroke="none" />
<path d="M614.6202018734526,444.0 A127.56876842515582,127.56876842515582,0,0,0,602.9442348003188,424.65894081652516" stroke="grey" stroke-width="5" fill="none" />
<path d="M602.9442348003188,424.65894081652516 L718.6202018734526,340.0" stroke="grey" stroke-width="5" />
<circle cx="602.9442348003188" cy="424.65894081652516" r="2.5" fill="grey" stroke="none" />
<circle cx="614.6202018734526" cy="444.0" r="5" fill="black" stroke="none" />
<circle cx="718.6202018734526" cy="340.0" r="5" fill="black" stroke="none" />
<path d="M614.6202018734526,444.0 A127.56876842515582,127.56876842515582,0,0,1,626.4734537881244,483.3189879079776" stroke="grey" stroke-width="5" fill="none" />
<path d="M626.4734537881244,483.3189879079776 L742.6202018734526,468.0" stroke="grey" stroke-width="5" />
<circle cx="626.4734537881244" cy="483.3189879079776" r="2.5" fill="grey" stroke="none" />
<circle cx="614.6202018734526" cy="444.0" r="5" fill="black" stroke="none" />
<circle cx="742.6202018734526" cy="468.0" r="5" fill="black" stroke="none" />
<path d="M742.6202018734526,468.0 A244.72139742391735,244.72139742391735,0,0,1,743.5831285975748,476.4241263209141" stroke="grey" stroke-width="5" fill="none" />
<path d="M743.5831285975748,476.4241263209141 L830.6202018734526,468.0" stroke="grey" stroke-width="5" />
<circle cx="743.5831285975748" cy="476.4241263209141" r="2.5" fill="grey" stroke="none" />
<circle cx="742.6202018734526" cy="468.0" r="5" fill="black" stroke="none" />
<circle cx="830.6202018734526" cy="468.0" r="5" fill="black" stroke="none" />
<path d="M614.6202018734526,500.0 A114.62020187345263,114.62020187345263,0,0,1,599.0535722957853,557.6730482370637" stroke="grey" stroke-width="5" fill="none" />
<path d="M599.0535722957853,557.6730482370637 L678.6202018734526,604.0" stroke="grey" stroke-width="5" />
<circle cx="599.0535722957853" cy="557.6730482370637" r="2.5" fill="grey" stroke="none" />
<circle cx="614.6202018734526" cy="500.0" r="5" fill="black" stroke="none" />
<circle cx="678.6202018734526" cy="604.0" r="5" fill="black" stroke="none" />
<circle cx="500" cy="500" r="5" fill="red" stroke="none" />
</svg>