<?xml version="1.0" encoding="UTF-8"?>
<svg xmlns="http://www.w3.org/2000/svg" xmlns:xlink="http://www.w3.org/1999/xlink"
     width="1000" height="1000" viewBox="0 0 1000 1000">
<defs>
</defs>
<rect x="0" y="0" width="1000" height="1000" fill="white" />
<path d="M298.8344420493058,684.0 L402.65515696015353,589.0383587618009" stroke="grey" stroke-width="5" />
<circle cx="402.65515696015353" cy="589.0383587618009" r="2.5" fill="grey" stroke="none" />
<path d="M402.65515696015353,589.0383587618009 A131.92364381507775,131.92364381507775,0,0,0,418.8344420493058,604.0" stroke="grey" stroke-width="5" fill="none" />
<circle cx="298.8344420493058" cy="684.0" r="5" fill="black" stroke="none" />
<circle cx="418.8344420493058" cy="604.0" r="5" fill="black" stroke="none" />
<path d="M418.8344420493058,604.0 L441.9843516197189,574.3372876856769" stroke="grey" stroke-width="5" />
<circle cx="441.9843516197189" cy="574.3372876856769" r="2.5" fill="grey" stroke="none" />
<path d="M441.9843516197189,574.3372876856769 A94.29659483484811,94.29659483484811,0,0,1,418.8344420493058,548.0" stroke="grey" stroke-width="5" fill="none" />
<circle cx="418.8344420493058" cy="604.0" r="5" fill="black" stroke="none" />
<circle cx="418.8344420493058" cy="548.0" r="5" fill="black" stroke="none" />
<path d="M418.8344420493058,548.0 A94.29659483484811,94.29659483484811,0,0,1,408.7204839246046,523.6621584494976" stroke="grey" stroke-width="5" fill="none" />
<path d="M408.7204839246046,523.6621584494977 L314.8344420493058,548.0" stroke="grey" stroke-width="5" />
<circle cx="408.7204839246046" cy="523.6621584494977" r="2.5" fill="grey" stroke="none" />
<circle cx="418.8344420493058" cy="548.0" r="5" fill="black" stroke="none" />
<circle cx="314.8344420493058" cy="548.0" r="5" fill="black" stroke="none" />
<path d="M314.8344420493058,548.0 L349.3857387987898,539.0433545939637" stroke="grey" stroke-width="5" />
<circle cx="349.3857387987898" cy="539.0433545939637" r="2.5" fill="grey" stroke="none" />
<path d="M349.38573879878976,539.0433545939636 A155.5925422863717,155.5925422863717,0,0,1,354.8344420493057,444.00000000000006" stroke="grey" stroke-width="5" fill="none" />
<circle cx="314.8344420493058" cy="548.0" r="5" fill="black" stroke="none" />
<circle cx="354.8344420493058" cy="444.0" r="5" fill="black" stroke="none" />
<path d="M354.8344420493058,444.0 L362.132818098225,446.8154685209717" stroke="grey" stroke-width="5" />
<circle cx="362.132818098225" cy="446.8154685209717" r="2.5" fill="grey" stroke="none" />
<path d="M362.132818098225,446.81546852097176 A147.7699368416352,147.7699368416352,0,0,1,466.8344420493057,356.0" stroke="grey" stroke-width="5" fill="none" />
<circle cx="354.8344420493058" cy="444.0" r="5" fill="black" stroke="none" />
<circle cx="466.8344420493058" cy="356.0" r="5" fill="black" stroke="none" />
<path d="M466.8344420493058,356.0 L472.86212687901616,382.17132558929643" stroke="grey" stroke-width="5" />
<circle cx="472.86212687901616" cy="382.17132558929643" r="2.5" fill="grey" stroke="none" />
<path d="M472.86212687901616,382.17132558929643 A120.91344288752269,120.91344288752269,0,0,1,514.8344420493057,380.0" stroke="grey" stroke-width="5" fill="none" />
<circle cx="466.8344420493058" cy="356.0" r="5" fill="black" stroke="none" />
<circle cx="514.8344420493058" cy="380.0" r="5" fill="black" stroke="none" />
<path d="M514.8344420493058,380.0 L514.3306785962665,384.0750851406335" stroke="grey" stroke-width="5" />
<circle cx="514.3306785962665" cy="384.0750851406335" r="2.5" fill="grey" stroke="none" />
<path d="M514.3306785962665,384.0750851406335 A116.80733810074116,116.80733810074116,0,0,0,466.83444204930584,388.0" stroke="grey" stroke-width="5" fill="none" />
<circle cx="514.8344420493058" cy="380.0" r="5" fill="black" stroke="none" />
<circle cx="466.8344420493058" cy="388.0" r="5" fill="black" stroke="none" />
<path d="M466.8344420493058,356.0 L473.7837030748805,386.17267459122644" stroke="grey" stroke-width="5" />
<circle cx="473.7837030748805" cy="386.17267459122644" r="2.5" fill="grey" stroke="none" />
<path d="M473.78370307488046,386.17267459122644 A116.80733810074116,116.80733810074116,0,0,0,466.83444204930584,388.0" stroke="grey" stroke-width="5" fill="none" />
<circle cx="466.8344420493058" cy="356.0" r="5" fill="black" stroke="none" />
<circle cx="466.8344420493058" cy="388.0" r="5" fill="black" stroke="none" />
<path d="M466.8344420493058,388.0 L476.95435013258725,422.1749023795272" stroke="grey" stroke-width="5" />
<circle cx="476.95435013258725" cy="422.1749023795272" r="2.5" fill="grey" stroke="none" />
<path d="M476.9543501325873,422.1749023795272 A81.16555795069422,81.16555795069422,0,0,0,418.8344420493058,500.0" stroke="grey" stroke-width="5" fill="none" />
<circle cx="466.8344420493058" cy="388.0" r="5" fill="black" stroke="none" />
<circle cx="418.8344420493058" cy="500.0" r="5" fill="black" stroke="none" />
<path d="M354.8344420493058,444.0 L424.27372589229844,470.78734508448866" stroke="grey" stroke-width="5" />
<circle cx="424.27372589229844" cy="470.78734508448866" r="2.5" fill="grey" stroke="none" />
<path d="M424.2737258922984,470.7873450844887 A81.16555795069422,81.16555795069422,0,0,0,418.8344420493058,500.0" stroke="grey" stroke-width="5" fill="none" />
<circle cx="354.8344420493058" cy="444.0" r="5" fill="black" stroke="none" />
<circle cx="418.8344420493058" cy="500.0" r="5" fill="black" stroke="none" />
<path d="M418.8344420493058,500.0 A81.16555795069422,81.16555795069422,0,0,0,430.1369491763142,541.3158798412256" stroke="grey" stroke-width="5" fill="none" />
<path d="M430.1369491763142,541.3158798412256 L418.8344420493058,548.0" stroke="grey" stroke-width="5" />
<circle cx="430.1369491763142" cy="541.3158798412256" r="2.5" fill="grey" stroke="none" />
<circle cx="418.8344420493058" cy="500.0" r="5" fill="black" stroke="none" />
<circle cx="418.8344420493058" cy="548.0" r="5" fill="black" stroke="none" />
<path d="M514.8344420493057,380.0 A120.91344288752269,120.91344288752269,0,0,1,539.2006487732696,385.61744098566" stroke="grey" stroke-width="5" fill="none" />
<path d="M539.2006487732696,385.61744098566 L554.8344420493058,340.0" stroke="grey" stroke-width="5" />
<circle cx="539.2006487732696" cy="385.61744098566" r="2.5" fill="grey" stroke="none" />
<circle cx="514.8344420493058" cy="380.0" r="5" fill="black" stroke="none" />
<circle cx="554.8344420493058" cy="340.0" r="5" fill="black" stroke="none" />
<path d="M514.8344420493058,380.0 L510.32621177408095,416.46835056073417" stroke="grey" stroke-width="5" />
<circle cx="510.32621177408095" cy="416.46835056073417" r="2.5" fill="grey" stroke="none" />
<path d="M510.32621177408095,416.46835056073417 A84.16749436479363,84.16749436479363,0,0,1,562.8344420493058,444.0" stroke="grey" stroke-width="5" fill="none" />
<circle cx="514.8344420493058" cy="380.0" r="5" fill="black" stroke="none" />
<circle cx="562.8344420493058" cy="444.0" r="5" fill="black" stroke="none" />
<path d="M466.8344420493058,388.0 L483.55128095503494,444.4527200243431" stroke="grey" stroke-width="5" />
<circle cx="483.55128095503494" cy="444.4527200243431" r="2.5" fill="grey" stroke="none" />
<path d="M483.55128095503494,444.4527200243431 A57.93151707761684,57.93151707761684,0,0,1,514.8344420493058,444.0" stroke="grey" stroke-width="5" fill="none" />
<circle cx="466.8344420493058" cy="388.0" r="5" fill="black" stroke="none" />
<circle cx="514.8344420493058" cy="444.0" r="5" fill="black" stroke="none" />
<path d="M418.8344420493058,500.0 L466.8344420493058,500.0" stroke="grey" stroke-width="5" />
<circle cx="466.8344420493058" cy="500.0" r="2.5" fill="grey" stroke="none" />
<path d="M466.8344420493058,500.0 A33.16555795069422,33.16555795069422,0,0,1,466.8344420493058,500.0" stroke="grey" stroke-width="5" fill="none" />
<circle cx="418.8344420493058" cy="500.0" r="5" fill="black" stroke="none" />
<circle cx="466.8344420493058" cy="500.0" r="5" fill="black" stroke="none" />
<path d="M418.8344420493058,548.0 L456.75601945964604,525.5737916222781" stroke="grey" stroke-width="5" />
<circle cx="456.75601945964604" cy="525.5737916222781" r="2.5" fill="grey" stroke="none" />
<path d="M456.75601945964604,525.5737916222781 A50.24003056243309,50.24003056243309,0,0,0,514.8344420493058,548.0" stroke="grey" stroke-width="5" fill="none" />
<circle cx="418.8344420493058" cy="548.0" r="5" fill="black" stroke="none" />
<circle cx="514.8344420493058" cy="548.0" r="5" fill="black" stroke="none" />
<path d="M418.8344420493058,604.0 L435.3667224064437,582.8166655838576" stroke="grey" stroke-width="5" />
<circle cx="435.3667224064437" cy="582.8166655838576" r="2.5" fill="grey" stroke="none" />
<path d="M435.3667224064437,582.8166655838576 A105.05265665805035,105.05265665805035,0,0,0,514.8344420493058,604.0" stroke="grey" stroke-width="5" fill="none" />
<circle cx="418.8344420493058" cy="604.0" r="5" fill="black" stroke="none" />
<circle cx="514.8344420493058" cy="604.0" r="5" fill="black" stroke="none" />
<path d="M562.8344420493058,444.0 L543.2482228455704,461.45584490984277" stroke="grey" stroke-width="5" />
<circle cx="543.2482228455704" cy="461.45584490984277" r="2.5" fill="grey" stroke="none" />
<path d="M543.2482228455704,461.45584490984277 A57.93151707761684,57.93151707761684,0,0,0,514.8344420493058,444.0" stroke="grey" stroke-width="5" fill="none" />
<circle cx="562.8344420493058" cy="444.0" r="5" fill="black" stroke="none" />
<circle cx="514.8344420493058" cy="444.0" r="5" fill="black" stroke="none" />
<path d="M514.8344420493058,444.0 L508.492657749551,467.940227721803" stroke="grey" stroke-width="5" />
<circle cx="508.492657749551" cy="467.940227721803" r="2.5" fill="grey" stroke="none" />
<path d="M508.492657749551,467.940227721803 A33.16555795069422,33.16555795069422,0,0,0,466.8344420493058,500.0" stroke="grey" stroke-width="5" fill="none" />
<circle cx="514.8344420493058" cy="444.0" r="5" fill="black" stroke="none" />
<circle cx="466.8344420493058" cy="500.0" r="5" fill="black" stroke="none" />
<path d="M466.8344420493058,500.0 A33.16555795069422,33.16555795069422,0,0,0,509.7928393343843,531.6868195303945" stroke="grey" stroke-width="5" fill="none" />
<path d="M509.7928393343843,531.6868195303945 L514.8344420493058,548.0" stroke="grey" stroke-width="5" />
<circle cx="509.7928393343843" cy="531.6868195303945" r="2.5" fill="grey" stroke="none" />
<circle cx="466.8344420493058" cy="500.0" r="5" fill="black" stroke="none" />
<circle cx="514.8344420493058" cy="548.0" r="5" fill="black" stroke="none" />
<path d="M514.8344420493058,548.0 A50.24003056243309,50.24003056243309,0,0,1,507.09437386585745,549.7366115690006" stroke="grey" stroke-width="5" fill="none" />
<path d="M507.0943738658574,549.7366115690006 L514.8344420493058,604.0" stroke="grey" stroke-width="5" />
<circle cx="507.0943738658574" cy="549.7366115690006" r="2.5" fill="grey" stroke="none" />
<circle cx="514.8344420493058" cy="548.0" r="5" fill="black" stroke="none" />
<circle cx="514.8344420493058" cy="604.0" r="5" fill="black" stroke="none" />
<path d="M514.8344420493058,604.0 A105.05265665805035,105.05265665805035,0,0,0,544.8351588600808,595.0045746314646" stroke="grey" stroke-width="5" fill="none" />
<path d="M544.8351588600808,595.0045746314646 L586.8344420493058,684.0" stroke="grey" stroke-width="5" />
<circle cx="544.8351588600808" cy="595.0045746314646" r="2.5" fill="grey" stroke="none" />
<circle cx="514.8344420493058" cy="604.0" r="5" fill="black" stroke="none" />
<circle cx="586.8344420493058" cy="684.0" r="5" fill="black" stroke="none" />
<path d="M562.8344420493058,444.0 L537.5660024228048,466.5200156623288" stroke="grey" stroke-width="5" />
<circle cx="537.5660024228048" cy="466.5200156623288" r="2.5" fill="grey" stroke="none" />
<path d="M537.5660024228048,466.5200156623288 A50.32011416204149,50.32011416204149,0,0,1,538.8344420493058,468.0" stroke="grey" stroke-width="5" fill="none" />
<circle cx="562.8344420493058" cy="444.0" r="5" fill="black" stroke="none" />
<circle cx="538.8344420493058" cy="468.0" r="5" fill="black" stroke="none" />
<path d="M538.8344420493058,468.0 L511.44844938631155,490.56635396237095" stroke="grey" stroke-width="5" />
<circle cx="511.44844938631155" cy="490.56635396237095" r="2.5" fill="grey" stroke="none" />
<path d="M511.44844938631155,490.56635396237095 A14.834442049305778,14.834442049305778,0,0,1,514.8344420493058,500.0" stroke="grey" stroke-width="5" fill="none" />
<circle cx="538.8344420493058" cy="468.0" r="5" fill="black" stroke="none" />
<circle cx="514.8344420493058" cy="500.0" r="5" fill="black" stroke="none" />
<path d="M514.8344420493058,500.0 A14.834442049305778,14.834442049305778,0,0,1,504.3801858488271,514.1730251832115" stroke="grey" stroke-width="5" fill="none" />
<path d="M504.3801858488271,514.1730251832115 L514.8344420493058,548.0" stroke="grey" stroke-width="5" />
<circle cx="504.3801858488271" cy="514.1730251832115" r="2.5" fill="grey" stroke="none" />
<circle cx="514.8344420493058" cy="500.0" r="5" fill="black" stroke="none" />
<circle cx="514.8344420493058" cy="548.0" r="5" fill="black" stroke="none" />
<path d="M514.8344420493058,444.0 L512.8854008164698,451.3576281922868" stroke="grey" stroke-width="5" />
<circle cx="512.8854008164698" cy="451.3576281922868" r="2.5" fill="grey" stroke="none" />
<path d="M512.8854008164698,451.3576281922868 A50.32011416204149,50.32011416204149,0,0,1,538.8344420493058,468.0" stroke="grey" stroke-width="5" fill="none" />
<circle cx="514.8344420493058" cy="444.0" r="5" fill="black" stroke="none" />
<circle cx="538.8344420493058" cy="468.0" r="5" fill="black" stroke="none" />
<path d="M466.8344420493058,500.0 L514.8344420493058,500.0" stroke="grey" stroke-width="5" />
<circle cx="466.8344420493058" cy="500.0" r="5" fill="black" stroke="none" />
<circle cx="514.8344420493058" cy="500.0" r="5" fill="black" stroke="none" />
<path d="M562.8344420493058,444.0 L546.9084548309786,458.1937328499948" stroke="grey" stroke-width="5" />
<circle cx="546.9084548309786" cy="458.1937328499948" r="2.5" fill="grey" stroke="none" />
<path d="M546.9084548309786,458.1937328499948 A62.83444204930578,62.83444204930578,0,0,1,562.8344420493058,500.0" stroke="grey" stroke-width="5" fill="none" />
<circle cx="562.8344420493058" cy="444.0" r="5" fill="black" stroke="none" />
<circle cx="562.8344420493058" cy="500.0" r="5" fill="black" stroke="none" />
<path d="M538.8344420493058,468.0 A50.32011416204149,50.32011416204149,0,0,1,550.3201141620415,500.0" stroke="grey" stroke-width="5" fill="none" />
<path d="M550.3201141620415,500.0 L562.8344420493058,500.0" stroke="grey" stroke-width="5" />
<circle cx="550.3201141620415" cy="500.0" r="2.5" fill="grey" stroke="none" />
<circle cx="538.8344420493058" cy="468.0" r="5" fill="black" stroke="none" />
<circle cx="562.8344420493058" cy="500.0" r="5" fill="black" stroke="none" />
<path d="M514.8344420493058,500.0 A14.834442049305778,14.834442049305778,0,0,1,514.8344420493058,500.0" stroke="grey" stroke-width="5" fill="none" />
<path d="M514.8344420493058,500.0 L562.8344420493058,500.0" stroke="grey" stroke-width="5" />
<circle cx="514.8344420493058" cy="500.0" r="2.5" fill="grey" stroke="none" />
<circle cx="514.8344420493058" cy="500.0" r="5" fill="black" stroke="none" />
<circle cx="562.8344420493058" cy="500.0" r="5" fill="black" stroke="none" />
<path d="M514.8344420493058,548.0 A50.24003056243309,50.24003056243309,0,0,0,550.240030562433,500.0" stroke="grey" stroke-width="5" fill="none" />
<path d="M550.240030562433,500.0 L562.8344420493058,500.0" stroke="grey" stroke-width="5" />
<circle cx="550.240030562433" cy="500.0" r="2.5" fill="grey" stroke="none" />
<circle cx="514.8344420493058" cy="548.0" r="5" fill="black" stroke="none" />
<circle cx="562.8344420493058" cy="500.0" r="5" fill="black" stroke="none" />
<path d="M562.8344420493058,500.0 A62.83444204930578,62.83444204930578,0,0,1,541.3150802901525,547.3416439117382" stroke="grey" stroke-width="5" fill="none" />
<path d="M541.3150802901525,547.3416439117382 L562.8344420493058,572.0" stroke="grey" stroke-width="5" />
<circle cx="541.3150802901525" cy="547.3416439117382" r="2.5" fill="grey" stroke="none" />
<circle cx="562.8344420493058" cy="500.0" r="5" fill="black" stroke="none" />
<circle cx="562.8344420493058" cy="572.0" r="5" fill="black" stroke="none" />
<path d="M562.8344420493058,572.0 A95.56237286530492,95.56237286530492,0,0,1,513.4943230134475,594.6048114741334" stroke="grey" stroke-width="5" fill="none" />
<path d="M513.4943230134473,594.6048114741334 L514.8344420493058,604.0" stroke="grey" stroke-width="5" />
<circle cx="513.4943230134473" cy="594.6048114741334" r="2.5" fill="grey" stroke="none" />
<circle cx="562.8344420493058" cy="572.0" r="5" fill="black" stroke="none" />
<circle cx="514.8344420493058" cy="604.0" r="5" fill="black" stroke="none" />
<path d="M562.8344420493058,444.0 A84.16749436479363,84.16749436479363,0,0,0,560.7466540384959,441.74185781562494" stroke="grey" stroke-width="5" fill="none" />
<path d="M560.7466540384959,441.74185781562494 L666.8344420493058,340.0" stroke="grey" stroke-width="5" />
<circle cx="560.7466540384959" cy="441.74185781562494" r="2.5" fill="grey" stroke="none" />
<circle cx="562.8344420493058" cy="444.0" r="5" fill="black" stroke="none" />
<circle cx="666.8344420493058" cy="340.0" r="5" fill="black" stroke="none" />
<path d="M562.8344420493058,444.0 A84.16749436479363,84.16749436479363,0,0,1,583.008561866493,486.080741237258" stroke="grey" stroke-width="5" fill="none" />
<path d="M583.008561866493,486.080741237258 L690.8344420493058,468.0" stroke="grey" stroke-width="5" />
<circle cx="583.008561866493" cy="486.080741237258" r="2.5" fill="grey" stroke="none" />
<circle cx="562.8344420493058" cy="444.0" r="5" fill="black" stroke="none" />
<circle cx="690.8344420493058" cy="468.0" r="5" fill="black" stroke="none" />
<path d="M690.8344420493058,468.0 A193.49879656543047,193.49879656543047,0,0,1,692.2369948272085,477.93822101294467" stroke="grey" stroke-width="5" fill="none" />
<path d="M692.2369948272085,477.93822101294467 L778.8344420493058,468.0" stroke="grey" stroke-width="5" />
<circle cx="692.2369948272085" cy="477.93822101294467" r="2.5" fill="grey" stroke="none" />
<circle cx="690.8344420493058" cy="468.0" r="5" fill="black" stroke="none" />
<circle cx="778.8344420493058" cy="468.0" r="5" fill="black" stroke="none" />
<path d="M562.8344420493058,500.0 A62.83444204930578,62.83444204930578,0,0,1,548.5886470375517,539.8410653309846" stroke="grey" stroke-width="5" fill="none" />
<path d="M548.5886470375517,539.8410653309846 L626.8344420493058,604.0" stroke="grey" stroke-width="5" />
<circle cx="548.5886470375517" cy="539.8410653309846" r="2.5" fill="grey" stroke="none" />
<circle cx="562.8344420493058" cy="500.0" r="5" fill="black" stroke="none" />
<circle cx="626.8344420493058" cy="604.0" r="5" fill="black" stroke="none" />
<circle cx="500" cy="500" r="5" fill="red" stroke="none" />
</svg>