<?xml version="1.0" encoding="UTF-8"?>
<svg xmlns="http://www.w3.org/2000/svg" xmlns:xlink="http://www.w3.org/1999/xlink"
     width="1000" height="1000" viewBox="0 0 1000 1000">
<defs>
</defs>
<rect x="0" y="0" width="1000" height="1000" fill="white" />
<path d="M205.60287469797993,634.6046713842175 L333.8022967243064,575.9891497285721" stroke="grey" stroke-width="5" />
<circle cx="333.8022967243064" cy="575.9891497285721" r="2.5" fill="grey" stroke="none" />
<path d="M333.8022967243064,575.9891497285721 A182.74580009014394,182.74580009014394,0,0,1,325.6028746979799,554.6046713842173" stroke="grey" stroke-width="5" fill="none" />
<circle cx="205.60287469797993" cy="634.6046713842175" r="5" fill="black" stroke="none" />
<circle cx="325.6028746979799" cy="554.6046713842175" r="5" fill="black" stroke="none" />
<path d="M325.6028746979799,554.6046713842175 L333.5648165156192,552.1117448765153" stroke="grey" stroke-width="5" />
<circle cx="333.5648165156192" cy="552.1117448765153" r="2.5" fill="grey" stroke="none" />
<path d="M333.5648165156192,552.1117448765152 A174.40270713367528,174.40270713367528,0,0,1,325.6028746979799,498.60467138421734" stroke="grey" stroke-width="5" fill="none" />
<circle cx="325.6028746979799" cy="554.6046713842175" r="5" fill="black" stroke="none" />
<circle cx="325.6028746979799" cy="498.6046713842174" r="5" fill="black" stroke="none" />
<path d="M325.6028746979799,498.60467138421734 A174.40270713367528,174.40270713367528,0,0,0,325.5994833425966,499.12590321744403" stroke="grey" stroke-width="5" fill="none" />
<path d="M325.5994833425966,499.125903217444 L-278.3971253020201,-1.3953286157826028" stroke="grey" stroke-width="5" />
<circle cx="325.5994833425966" cy="499.125903217444" r="2.5" fill="grey" stroke="none" />
<circle cx="325.6028746979799" cy="498.6046713842174" r="5" fill="black" stroke="none" />
<circle cx="221.60287469797993" cy="498.6046713842174" r="5" fill="black" stroke="none" />
<path d="M221.60287469797993,498.6046713842174 L239.34762999952596,498.69360823952957" stroke="grey" stroke-width="5" />
<circle cx="239.34762999952596" cy="498.69360823952957" r="2.5" fill="grey" stroke="none" />
<path d="M239.34762999952596,498.6936082395297 A260.65564380288384,260.65564380288384,0,0,1,261.6028746979799,394.60467138421745" stroke="grey" stroke-width="5" fill="none" />
<circle cx="221.60287469797993" cy="498.6046713842174" r="5" fill="black" stroke="none" />
<circle cx="261.6028746979799" cy="394.6046713842174" r="5" fill="black" stroke="none" />
<path d="M261.6028746979799,394.6046713842174 L288.69246941160355,406.5809766072508" stroke="grey" stroke-width="5" />
<circle cx="288.69246941160355" cy="406.5809766072508" r="2.5" fill="grey" stroke="none" />
<path d="M288.69246941160355,406.5809766072508 A231.0367642065243,231.0367642065243,0,0,1,373.6028746979799,306.60467138421734" stroke="grey" stroke-width="5" fill="none" />
<circle cx="261.6028746979799" cy="394.6046713842174" r="5" fill="black" stroke="none" />
<circle cx="373.6028746979799" cy="306.6046713842174" r="5" fill="black" stroke="none" />
<path d="M373.6028746979799,306.6046713842174 L397.88237576042684,343.7537922631882" stroke="grey" stroke-width="5" />
<circle cx="397.88237576042684" cy="343.7537922631882" r="2.5" fill="grey" stroke="none" />
<path d="M397.88237576042684,343.7537922631882 A186.65713651631327,186.65713651631327,0,0,1,421.6028746979799,330.6046713842174" stroke="grey" stroke-width="5" fill="none" />
<circle cx="373.6028746979799" cy="306.6046713842174" r="5" fill="black" stroke="none" />
<circle cx="421.6028746979799" cy="330.6046713842174" r="5" fill="black" stroke="none" />
<path d="M421.6028746979799,330.6046713842174 A186.65713651631327,186.65713651631327,0,0,0,384.9121278711042,353.0453529101154" stroke="grey" stroke-width="5" fill="none" />
<path d="M384.91212787110425,353.0453529101153 L-126.39712530202007,-161.3953286157826" stroke="grey" stroke-width="5" />
<circle cx="384.91212787110425" cy="353.0453529101153" r="2.5" fill="grey" stroke="none" />
<circle cx="421.6028746979799" cy="330.6046713842174" r="5" fill="black" stroke="none" />
<circle cx="373.6028746979799" cy="338.6046713842174" r="5" fill="black" stroke="none" />
<path d="M373.6028746979799,306.6046713842174 L387.8476601592045,328.4000639515104" stroke="grey" stroke-width="5" />
<circle cx="387.8476601592045" cy="328.4000639515104" r="2.5" fill="grey" stroke="none" />
<path d="M387.8476601592045,328.4000639515104 A204.9992326415175,204.9992326415175,0,0,0,373.6028746979798,338.60467138421745" stroke="grey" stroke-width="5" fill="none" />
<circle cx="373.6028746979799" cy="306.6046713842174" r="5" fill="black" stroke="none" />
<circle cx="373.6028746979799" cy="338.6046713842174" r="5" fill="black" stroke="none" />
<path d="M373.6028746979799,338.6046713842174 L388.2414448485852,357.2965271861339" stroke="grey" stroke-width="5" />
<circle cx="388.2414448485852" cy="357.2965271861339" r="2.5" fill="grey" stroke="none" />
<path d="M388.24144484858516,357.29652718613397 A181.257429648193,181.257429648193,0,0,0,325.6028746979799,450.6046713842174" stroke="grey" stroke-width="5" fill="none" />
<circle cx="373.6028746979799" cy="338.6046713842174" r="5" fill="black" stroke="none" />
<circle cx="325.6028746979799" cy="450.6046713842174" r="5" fill="black" stroke="none" />
<path d="M261.6028746979799,394.6046713842174 L334.22093019999943,426.70910139099" stroke="grey" stroke-width="5" />
<circle cx="334.22093019999943" cy="426.70910139099" r="2.5" fill="grey" stroke="none" />
<path d="M334.22093019999943,426.70910139099 A181.257429648193,181.257429648193,0,0,0,325.6028746979799,450.6046713842174" stroke="grey" stroke-width="5" fill="none" />
<circle cx="261.6028746979799" cy="394.6046713842174" r="5" fill="black" stroke="none" />
<circle cx="325.6028746979799" cy="450.6046713842174" r="5" fill="black" stroke="none" />
<path d="M325.6028746979799,450.6046713842174 L332.1981569084537,452.47268458418273" stroke="grey" stroke-width="5" />
<circle cx="332.1981569084537" cy="452.47268458418273" r="2.5" fill="grey" stroke="none" />
<path d="M332.1981569084537,452.47268458418273 A174.40270713367528,174.40270713367528,0,0,0,325.6028746979799,498.60467138421734" stroke="grey" stroke-width="5" fill="none" />
<circle cx="325.6028746979799" cy="450.6046713842174" r="5" fill="black" stroke="none" />
<circle cx="325.6028746979799" cy="498.6046713842174" r="5" fill="black" stroke="none" />
<path d="M421.6028746979799,330.6046713842174 A186.65713651631327,186.65713651631327,0,0,1,466.3337456580708,316.4040579668109" stroke="grey" stroke-width="5" fill="none" />
<path d="M466.3337456580708,316.4040579668109 L-38.39712530202007,-209.3953286157826" stroke="grey" stroke-width="5" />
<circle cx="466.3337456580708" cy="316.4040579668109" r="2.5" fill="grey" stroke="none" />
<circle cx="421.6028746979799" cy="330.6046713842174" r="5" fill="black" stroke="none" />
<circle cx="461.6028746979799" cy="290.6046713842174" r="5" fill="black" stroke="none" />
<path d="M421.6028746979799,330.6046713842174 L453.9290309114069,400.45289392506976" stroke="grey" stroke-width="5" />
<circle cx="453.9290309114069" cy="400.45289392506976" r="2.5" fill="grey" stroke="none" />
<path d="M453.9290309114069,400.45289392506976 A109.6912053022279,109.6912053022279,0,0,1,469.6028746979799,394.6046713842174" stroke="grey" stroke-width="5" fill="none" />
<circle cx="421.6028746979799" cy="330.6046713842174" r="5" fill="black" stroke="none" />
<circle cx="469.6028746979799" cy="394.6046713842174" r="5" fill="black" stroke="none" />
<path d="M373.6028746979799,338.6046713842174 L419.00961950288035,396.58412686351664" stroke="grey" stroke-width="5" />
<circle cx="419.00961950288035" cy="396.58412686351664" r="2.5" fill="grey" stroke="none" />
<path d="M419.00961950288024,396.5841268635167 A131.35556535468697,131.35556535468697,0,0,1,421.6028746979799,394.6046713842174" stroke="grey" stroke-width="5" fill="none" />
<circle cx="373.6028746979799" cy="338.6046713842174" r="5" fill="black" stroke="none" />
<circle cx="421.6028746979799" cy="394.6046713842174" r="5" fill="black" stroke="none" />
<path d="M325.6028746979799,450.6046713842174 L369.43020817210436,463.01809583464205" stroke="grey" stroke-width="5" />
<circle cx="369.43020817210436" cy="463.01809583464205" r="2.5" fill="grey" stroke="none" />
<path d="M369.43020817210436,463.01809583464205 A135.7060491417966,135.7060491417966,0,0,1,373.6028746979799,450.6046713842174" stroke="grey" stroke-width="5" fill="none" />
<circle cx="325.6028746979799" cy="450.6046713842174" r="5" fill="black" stroke="none" />
<circle cx="373.6028746979799" cy="450.6046713842174" r="5" fill="black" stroke="none" />
<path d="M325.6028746979799,498.6046713842174 L421.5929680344968,499.37267558057175" stroke="grey" stroke-width="5" />
<circle cx="421.5929680344968" cy="499.37267558057175" r="2.5" fill="grey" stroke="none" />
<path d="M421.5929680344968,499.3726755805717 A78.40954149570483,78.40954149570483,0,0,1,421.6028746979799,498.6046713842174" stroke="grey" stroke-width="5" fill="none" />
<circle cx="325.6028746979799" cy="498.6046713842174" r="5" fill="black" stroke="none" />
<circle cx="421.6028746979799" cy="498.6046713842174" r="5" fill="black" stroke="none" />
<path d="M325.6028746979799,554.6046713842175 L408.82527022749287,528.5472948544921" stroke="grey" stroke-width="5" />
<circle cx="408.82527022749287" cy="528.5472948544921" r="2.5" fill="grey" stroke="none" />
<path d="M408.82527022749287,528.5472948544921 A95.53941277085079,95.53941277085079,0,0,0,421.6028746979799,554.6046713842173" stroke="grey" stroke-width="5" fill="none" />
<circle cx="325.6028746979799" cy="554.6046713842175" r="5" fill="black" stroke="none" />
<circle cx="421.6028746979799" cy="554.6046713842175" r="5" fill="black" stroke="none" />
<path d="M469.6028746979799,394.6046713842174 A109.6912053022279,109.6912053022279,0,0,0,434.5328449282828,411.987431991384" stroke="grey" stroke-width="5" fill="none" />
<path d="M434.5328449282828,411.987431991384 L-78.39712530202007,-105.3953286157826" stroke="grey" stroke-width="5" />
<circle cx="434.5328449282828" cy="411.987431991384" r="2.5" fill="grey" stroke="none" />
<circle cx="469.6028746979799" cy="394.6046713842174" r="5" fill="black" stroke="none" />
<circle cx="421.6028746979799" cy="394.6046713842174" r="5" fill="black" stroke="none" />
<path d="M421.6028746979799,394.6046713842174 A131.35556535468697,131.35556535468697,0,0,0,377.65493168321524,452.1881938407394" stroke="grey" stroke-width="5" fill="none" />
<path d="M377.65493168321524,452.1881938407394 L-126.39712530202007,-49.3953286157826" stroke="grey" stroke-width="5" />
<circle cx="377.65493168321524" cy="452.1881938407394" r="2.5" fill="grey" stroke="none" />
<circle cx="421.6028746979799" cy="394.6046713842174" r="5" fill="black" stroke="none" />
<circle cx="373.6028746979799" cy="450.6046713842174" r="5" fill="black" stroke="none" />
<path d="M373.6028746979799,450.6046713842174 L426.9690577245307,471.45989369459653" stroke="grey" stroke-width="5" />
<circle cx="426.9690577245307" cy="471.45989369459653" r="2.5" fill="grey" stroke="none" />
<path d="M426.9690577245307,471.45989369459653 A78.40954149570483,78.40954149570483,0,0,0,421.6028746979799,498.6046713842174" stroke="grey" stroke-width="5" fill="none" />
<circle cx="373.6028746979799" cy="450.6046713842174" r="5" fill="black" stroke="none" />
<circle cx="421.6028746979799" cy="498.6046713842174" r="5" fill="black" stroke="none" />
<path d="M421.6028746979799,498.6046713842174 A78.40954149570483,78.40954149570483,0,0,0,435.65919581004374,544.8142512350298" stroke="grey" stroke-width="5" fill="none" />
<path d="M435.65919581004374,544.8142512350298 L-78.39712530202007,54.6046713842174" stroke="grey" stroke-width="5" />
<circle cx="435.65919581004374" cy="544.8142512350298" r="2.5" fill="grey" stroke="none" />
<circle cx="421.6028746979799" cy="498.6046713842174" r="5" fill="black" stroke="none" />
<circle cx="421.6028746979799" cy="554.6046713842175" r="5" fill="black" stroke="none" />
<path d="M421.6028746979799,554.6046713842173 A95.53941277085079,95.53941277085079,0,0,0,495.46458130632635,595.4317000261028" stroke="grey" stroke-width="5" fill="none" />
<path d="M495.4645813063264,595.4317000261028 L-6.397125302020072,134.6046713842174" stroke="grey" stroke-width="5" />
<circle cx="495.4645813063264" cy="595.4317000261028" r="2.5" fill="grey" stroke="none" />
<circle cx="421.6028746979799" cy="554.6046713842175" r="5" fill="black" stroke="none" />
<circle cx="493.6028746979799" cy="634.6046713842175" r="5" fill="black" stroke="none" />
<path d="M469.6028746979799,394.6046713842174 L472.87063063364315,405.93489446463855" stroke="grey" stroke-width="5" />
<circle cx="472.87063063364315" cy="405.93489446463855" r="2.5" fill="grey" stroke="none" />
<path d="M472.87063063364315,405.93489446463855 A97.89916629673058,97.89916629673058,0,0,0,445.6028746979799,418.6046713842174" stroke="grey" stroke-width="5" fill="none" />
<circle cx="469.6028746979799" cy="394.6046713842174" r="5" fill="black" stroke="none" />
<circle cx="445.6028746979799" cy="418.6046713842174" r="5" fill="black" stroke="none" />
<path d="M445.6028746979799,418.6046713842174 L448.5135919994387,422.9600263766821" stroke="grey" stroke-width="5" />
<circle cx="448.5135919994387" cy="422.9600263766821" r="2.5" fill="grey" stroke="none" />
<path d="M448.5135919994387,422.9600263766821 A92.66071305942874,92.66071305942874,0,0,0,421.6028746979799,450.6046713842174" stroke="grey" stroke-width="5" fill="none" />
<circle cx="445.6028746979799" cy="418.6046713842174" r="5" fill="black" stroke="none" />
<circle cx="421.6028746979799" cy="450.6046713842174" r="5" fill="black" stroke="none" />
<path d="M421.6028746979799,450.6046713842174 L433.66031356169003,458.2016483478909" stroke="grey" stroke-width="5" />
<circle cx="433.66031356169003" cy="458.2016483478909" r="2.5" fill="grey" stroke="none" />
<path d="M433.66031356169003,458.20164834789085 A78.40954149570483,78.40954149570483,0,0,0,421.6028746979799,498.6046713842174" stroke="grey" stroke-width="5" fill="none" />
<circle cx="421.6028746979799" cy="450.6046713842174" r="5" fill="black" stroke="none" />
<circle cx="421.6028746979799" cy="498.6046713842174" r="5" fill="black" stroke="none" />
<path d="M421.6028746979799,394.6046713842174 L441.5707040169636,421.4489711555499" stroke="grey" stroke-width="5" />
<circle cx="441.5707040169636" cy="421.4489711555499" r="2.5" fill="grey" stroke="none" />
<path d="M441.5707040169636,421.4489711555499 A97.89916629673058,97.89916629673058,0,0,1,445.6028746979799,418.6046713842174" stroke="grey" stroke-width="5" fill="none" />
<circle cx="421.6028746979799" cy="394.6046713842174" r="5" fill="black" stroke="none" />
<circle cx="445.6028746979799" cy="418.6046713842174" r="5" fill="black" stroke="none" />
<path d="M373.6028746979799,450.6046713842174 L413.6954628536164,466.2726429640524" stroke="grey" stroke-width="5" />
<circle cx="413.6954628536164" cy="466.2726429640524" r="2.5" fill="grey" stroke="none" />
<path d="M413.6954628536164,466.2726429640524 A92.66071305942874,92.66071305942874,0,0,1,421.6028746979799,450.6046713842174" stroke="grey" stroke-width="5" fill="none" />
<circle cx="373.6028746979799" cy="450.6046713842174" r="5" fill="black" stroke="none" />
<circle cx="421.6028746979799" cy="450.6046713842174" r="5" fill="black" stroke="none" />
<path d="M469.6028746979799,394.6046713842174 L483.92758297469106,444.2724383571969" stroke="grey" stroke-width="5" />
<circle cx="483.92758297469106" cy="444.2724383571969" r="2.5" fill="grey" stroke="none" />
<path d="M483.92758297469106,444.2724383571969 A57.998997540370134,57.998997540370134,0,0,0,469.6028746979799,450.6046713842174" stroke="grey" stroke-width="5" fill="none" />
<circle cx="469.6028746979799" cy="394.6046713842174" r="5" fill="black" stroke="none" />
<circle cx="469.6028746979799" cy="450.6046713842174" r="5" fill="black" stroke="none" />
<path d="M445.6028746979799,418.6046713842174 L467.77318075383414,451.7784712295139" stroke="grey" stroke-width="5" />
<circle cx="467.77318075383414" cy="451.7784712295139" r="2.5" fill="grey" stroke="none" />
<path d="M467.77318075383414,451.7784712295139 A57.998997540370134,57.998997540370134,0,0,1,469.6028746979799,450.6046713842174" stroke="grey" stroke-width="5" fill="none" />
<circle cx="445.6028746979799" cy="418.6046713842174" r="5" fill="black" stroke="none" />
<circle cx="469.6028746979799" cy="450.6046713842174" r="5" fill="black" stroke="none" />
<path d="M421.6028746979799,450.6046713842174 L450.92899107469935,469.0820473067681" stroke="grey" stroke-width="5" />
<circle cx="450.92899107469935" cy="469.0820473067681" r="2.5" fill="grey" stroke="none" />
<path d="M450.92899107469935,469.0820473067681 A57.998997540370134,57.998997540370134,0,0,1,469.6028746979799,450.6046713842174" stroke="grey" stroke-width="5" fill="none" />
<circle cx="421.6028746979799" cy="450.6046713842174" r="5" fill="black" stroke="none" />
<circle cx="469.6028746979799" cy="450.6046713842174" r="5" fill="black" stroke="none" />
<path d="M421.6028746979799,498.6046713842174 L442.01018663254104,498.9678850378277" stroke="grey" stroke-width="5" />
<circle cx="442.01018663254104" cy="498.9678850378277" r="2.5" fill="grey" stroke="none" />
<path d="M442.01018663254104,498.9678850378278 A57.998997540370134,57.998997540370134,0,0,1,469.6028746979799,450.6046713842174" stroke="grey" stroke-width="5" fill="none" />
<circle cx="421.6028746979799" cy="498.6046713842174" r="5" fill="black" stroke="none" />
<circle cx="469.6028746979799" cy="450.6046713842174" r="5" fill="black" stroke="none" />
<path d="M469.6028746979799,450.6046713842174 L480.14676064734357,467.7384860519333" stroke="grey" stroke-width="5" />
<circle cx="480.14676064734357" cy="467.7384860519333" r="2.5" fill="grey" stroke="none" />
<path d="M480.14676064734357,467.7384860519333 A37.880818299175715,37.880818299175715,0,0,0,469.6028746979799,522.6046713842175" stroke="grey" stroke-width="5" fill="none" />
<circle cx="469.6028746979799" cy="450.6046713842174" r="5" fill="black" stroke="none" />
<circle cx="469.6028746979799" cy="522.6046713842175" r="5" fill="black" stroke="none" />
<path d="M469.6028746979799,522.6046713842175 A37.880818299175715,37.880818299175715,0,0,1,468.91599840720806,521.6504327900038" stroke="grey" stroke-width="5" fill="none" />
<path d="M468.91599840720806,521.6504327900038 L-78.39712530202007,54.6046713842174" stroke="grey" stroke-width="5" />
<circle cx="468.91599840720806" cy="521.6504327900038" r="2.5" fill="grey" stroke="none" />
<circle cx="469.6028746979799" cy="522.6046713842175" r="5" fill="black" stroke="none" />
<circle cx="421.6028746979799" cy="554.6046713842175" r="5" fill="black" stroke="none" />
<path d="M469.6028746979799,394.6046713842174 A109.6912053022279,109.6912053022279,0,0,1,536.3749738163178,396.515596341682" stroke="grey" stroke-width="5" fill="none" />
<path d="M536.3749738163178,396.515596341682 L73.60287469797993,-209.3953286157826" stroke="grey" stroke-width="5" />
<circle cx="536.3749738163178" cy="396.515596341682" r="2.5" fill="grey" stroke="none" />
<circle cx="469.6028746979799" cy="394.6046713842174" r="5" fill="black" stroke="none" />
<circle cx="573.6028746979799" cy="290.6046713842174" r="5" fill="black" stroke="none" />
<path d="M469.6028746979799,394.6046713842174 A109.6912053022279,109.6912053022279,0,0,1,584.2418137898079,429.7470475349339" stroke="grey" stroke-width="5" fill="none" />
<path d="M584.2418137898079,429.7470475349339 L97.60287469797993,-81.3953286157826" stroke="grey" stroke-width="5" />
<circle cx="584.2418137898079" cy="429.7470475349339" r="2.5" fill="grey" stroke="none" />
<circle cx="469.6028746979799" cy="394.6046713842174" r="5" fill="black" stroke="none" />
<circle cx="597.6028746979799" cy="418.6046713842174" r="5" fill="black" stroke="none" />
<path d="M597.6028746979799,418.6046713842174 A127.0886331257867,127.0886331257867,0,0,1,616.3884492816901,448.95835481115193" stroke="grey" stroke-width="5" fill="none" />
<path d="M616.3884492816901,448.95835481115193 L185.60287469797993,-81.3953286157826" stroke="grey" stroke-width="5" />
<circle cx="616.3884492816901" cy="448.95835481115193" r="2.5" fill="grey" stroke="none" />
<circle cx="597.6028746979799" cy="418.6046713842174" r="5" fill="black" stroke="none" />
<circle cx="685.6028746979799" cy="418.6046713842174" r="5" fill="black" stroke="none" />
<path d="M469.6028746979799,450.6046713842174 L533.6028746979799,554.6046713842175" stroke="grey" stroke-width="5" />
<circle cx="469.6028746979799" cy="450.6046713842174" r="5" fill="black" stroke="none" />
<circle cx="533.6028746979799" cy="554.6046713842175" r="5" fill="black" stroke="none" />
<circle cx="500" cy="500" r="5" fill="red" stroke="none" />
</svg>